<svg xmlns="http://www.w3.org/2000/svg" width="300" height="300" viewBox="0 0 300 300">
<path d="M 147.43 143.89 L 146.69 143.22 C 146.10 142.69 145.20 142.74 144.67 143.32 C 144.14 143.91 144.19 144.81 144.77 145.34 L 145.51 146.01 C 146.10 146.54 147.00 146.49 147.53 145.91 C 148.06 145.32 148.02 144.42 147.43 143.89 Z M 146.72 143.25 L 146.00 142.55 C 145.43 142.00 144.52 142.02 143.97 142.59 C 143.42 143.16 143.44 144.07 144.01 144.62 L 144.74 145.31 C 145.31 145.86 146.21 145.84 146.76 145.27 C 147.31 144.70 147.29 143.79 146.72 143.25 Z M 146.05 142.60 L 145.36 141.86 C 144.81 141.28 143.90 141.25 143.33 141.79 C 142.75 142.34 142.72 143.25 143.26 143.82 L 143.96 144.57 C 144.50 145.15 145.41 145.17 145.99 144.63 C 146.57 144.09 146.60 143.18 146.05 142.60 Z M 145.42 141.90 L 144.68 141.04 C 144.16 140.42 143.24 140.35 142.63 140.87 C 142.02 141.39 141.95 142.31 142.47 142.92 L 143.20 143.78 C 143.72 144.39 144.64 144.47 145.25 143.95 C 145.86 143.43 145.94 142.51 145.42 141.90 Z M 144.86 141.20 L 144.60 140.77 C 144.17 140.06 143.24 139.83 142.53 140.26 C 141.83 140.69 141.60 141.62 142.03 142.32 L 142.29 142.76 C 142.72 143.46 143.64 143.69 144.35 143.26 C 145.06 142.83 145.29 141.91 144.86 141.20 Z M 142.20 142.61 L 142.92 143.36 C 143.51 143.97 144.48 143.99 145.10 143.41 C 145.71 142.82 145.73 141.85 145.14 141.24 L 144.42 140.48 C 143.83 139.87 142.86 139.85 142.25 140.44 C 141.64 141.02 141.62 142.00 142.20 142.61 Z M 142.83 143.25 L 143.52 144.13 C 144.05 144.79 145.01 144.91 145.68 144.38 C 146.35 143.85 146.46 142.88 145.93 142.22 L 145.24 141.34 C 144.71 140.68 143.74 140.56 143.08 141.09 C 142.41 141.62 142.30 142.59 142.83 143.25 Z M 143.48 144.08 L 144.10 144.93 C 144.60 145.61 145.57 145.76 146.25 145.26 C 146.94 144.76 147.09 143.80 146.59 143.11 L 145.97 142.26 C 145.47 141.58 144.50 141.43 143.82 141.93 C 143.13 142.43 142.98 143.39 143.48 144.08 Z M 144.08 144.90 L 144.65 145.71 C 145.14 146.41 146.10 146.58 146.79 146.10 C 147.49 145.61 147.66 144.65 147.18 143.95 L 146.61 143.14 C 146.12 142.44 145.16 142.27 144.46 142.76 C 143.77 143.24 143.59 144.20 144.08 144.90 Z M 144.63 145.68 L 145.24 146.61 C 145.70 147.32 146.66 147.51 147.37 147.05 C 148.08 146.58 148.28 145.62 147.81 144.91 L 147.20 143.99 C 146.73 143.28 145.78 143.08 145.07 143.55 C 144.35 144.01 144.16 144.97 144.63 145.68 Z M 145.21 146.56 L 145.67 147.32 C 146.11 148.04 147.06 148.27 147.78 147.83 C 148.51 147.39 148.74 146.44 148.30 145.71 L 147.84 144.96 C 147.40 144.23 146.45 144.00 145.72 144.44 C 145.00 144.89 144.76 145.83 145.21 146.56 Z M 145.65 147.29 L 146.15 148.14 C 146.58 148.88 147.52 149.13 148.25 148.70 C 148.99 148.27 149.24 147.33 148.81 146.59 L 148.31 145.74 C 147.88 145.00 146.94 144.76 146.21 145.18 C 145.47 145.61 145.22 146.56 145.65 147.29 Z M 146.13 148.11 L 146.61 148.99 C 147.02 149.74 147.96 150.01 148.71 149.60 C 149.45 149.19 149.72 148.25 149.31 147.51 L 148.83 146.62 C 148.42 145.88 147.48 145.61 146.74 146.02 C 145.99 146.43 145.72 147.36 146.13 148.11 Z M 146.59 148.94 L 147.04 149.83 C 147.43 150.59 148.35 150.89 149.11 150.51 C 149.87 150.12 150.17 149.20 149.79 148.44 L 149.33 147.55 C 148.95 146.79 148.02 146.49 147.27 146.88 C 146.51 147.26 146.21 148.19 146.59 148.94 Z M 147.03 149.81 L 147.47 150.70 C 147.84 151.47 148.76 151.79 149.52 151.41 C 150.29 151.04 150.60 150.12 150.23 149.36 L 149.80 148.46 C 149.43 147.70 148.51 147.38 147.74 147.76 C 146.98 148.13 146.66 149.05 147.03 149.81 Z M 147.46 150.69 L 147.89 151.60 C 148.26 152.37 149.18 152.69 149.94 152.33 C 150.71 151.96 151.03 151.05 150.67 150.28 L 150.24 149.37 C 149.87 148.61 148.96 148.28 148.19 148.64 C 147.42 149.01 147.10 149.92 147.46 150.69 Z M 147.89 151.58 L 148.31 152.49 C 148.66 153.26 149.58 153.60 150.35 153.24 C 151.12 152.89 151.45 151.97 151.10 151.20 L 150.68 150.30 C 150.32 149.53 149.41 149.19 148.64 149.55 C 147.87 149.90 147.53 150.81 147.89 151.58 Z M 148.30 152.47 L 148.70 153.39 C 149.05 154.16 149.96 154.51 150.73 154.17 C 151.51 153.82 151.86 152.92 151.51 152.14 L 151.11 151.22 C 150.76 150.45 149.85 150.10 149.08 150.44 C 148.30 150.79 147.95 151.69 148.30 152.47 Z M 148.69 153.35 L 149.08 154.28 C 149.40 155.06 150.30 155.43 151.08 155.11 C 151.87 154.78 152.24 153.88 151.91 153.10 L 151.53 152.17 C 151.20 151.39 150.30 151.02 149.52 151.35 C 148.73 151.67 148.36 152.57 148.69 153.35 Z M 149.06 154.23 L 149.40 155.15 C 149.70 155.95 150.58 156.35 151.38 156.05 C 152.17 155.76 152.58 154.87 152.28 154.08 L 151.93 153.15 C 151.63 152.36 150.75 151.95 149.96 152.25 C 149.16 152.55 148.76 153.43 149.06 154.23 Z M 149.39 155.11 L 149.71 156.06 C 149.98 156.86 150.86 157.29 151.66 157.02 C 152.46 156.74 152.89 155.87 152.62 155.07 L 152.29 154.12 C 152.02 153.32 151.15 152.89 150.35 153.16 C 149.54 153.44 149.11 154.31 149.39 155.11 Z M 149.71 156.05 L 150.03 157.01 C 150.30 157.81 151.17 158.25 151.97 157.98 C 152.77 157.71 153.21 156.84 152.94 156.04 L 152.62 155.08 C 152.35 154.27 151.48 153.84 150.68 154.11 C 149.88 154.38 149.44 155.24 149.71 156.05 Z M 150.03 156.99 L 150.33 157.93 C 150.58 158.74 151.45 159.18 152.25 158.93 C 153.06 158.67 153.50 157.81 153.24 157.00 L 152.94 156.06 C 152.69 155.25 151.82 154.81 151.02 155.07 C 150.21 155.32 149.77 156.19 150.03 156.99 Z M 150.31 157.87 L 150.57 158.81 C 150.79 159.62 151.63 160.10 152.45 159.88 C 153.26 159.65 153.74 158.81 153.52 158.00 L 153.26 157.06 C 153.04 156.25 152.19 155.77 151.38 156.00 C 150.57 156.22 150.09 157.06 150.31 157.87 Z M 150.55 158.71 L 150.75 159.70 C 150.92 160.53 151.72 161.06 152.55 160.89 C 153.38 160.72 153.91 159.92 153.74 159.09 L 153.54 158.10 C 153.37 157.27 152.56 156.74 151.74 156.91 C 150.91 157.08 150.38 157.88 150.55 158.71 Z M 150.74 159.62 L 150.89 160.62 C 151.01 161.46 151.79 162.03 152.62 161.90 C 153.46 161.78 154.03 161.00 153.91 160.17 L 153.76 159.17 C 153.63 158.33 152.85 157.76 152.02 157.88 C 151.18 158.01 150.61 158.79 150.74 159.62 Z M 150.87 160.56 L 150.99 161.68 C 151.08 162.52 151.84 163.13 152.68 163.04 C 153.52 162.95 154.13 162.19 154.04 161.35 L 153.92 160.23 C 153.83 159.39 153.07 158.78 152.23 158.87 C 151.39 158.96 150.78 159.72 150.87 160.56 Z M 150.97 161.53 L 150.98 162.42 C 150.99 163.27 151.68 163.96 152.53 163.95 C 153.39 163.94 154.07 163.25 154.07 162.40 L 154.06 161.50 C 154.05 160.65 153.36 159.97 152.50 159.97 C 151.65 159.98 150.97 160.67 150.97 161.53 Z M 154.02 161.97 L 153.85 161.39 C 153.61 160.56 152.75 160.09 151.92 160.33 C 151.10 160.57 150.62 161.43 150.86 162.26 L 151.03 162.84 C 151.27 163.67 152.13 164.14 152.96 163.90 C 153.78 163.66 154.26 162.80 154.02 161.97 Z M 153.90 161.64 L 153.75 160.35 C 153.65 159.49 152.87 158.88 152.02 158.98 C 151.16 159.08 150.55 159.86 150.65 160.71 L 150.81 162.01 C 150.91 162.86 151.68 163.47 152.54 163.37 C 153.39 163.27 154.00 162.49 153.90 161.64 Z M 153.76 160.46 L 153.71 159.44 C 153.68 158.58 152.95 157.91 152.09 157.95 C 151.23 157.98 150.56 158.71 150.60 159.57 L 150.64 160.59 C 150.68 161.45 151.40 162.12 152.26 162.09 C 153.13 162.05 153.79 161.32 153.76 160.46 Z M 153.72 159.50 L 153.71 158.47 C 153.71 157.61 153.01 156.92 152.15 156.92 C 151.29 156.92 150.59 157.62 150.60 158.48 L 150.60 159.51 C 150.60 160.37 151.30 161.07 152.16 161.07 C 153.02 161.06 153.72 160.37 153.72 159.50 Z M 153.71 158.53 L 153.75 157.51 C 153.78 156.65 153.10 155.92 152.24 155.90 C 151.38 155.87 150.66 156.54 150.63 157.40 L 150.60 158.42 C 150.57 159.29 151.24 160.01 152.10 160.04 C 152.96 160.06 153.69 159.39 153.71 158.53 Z M 153.74 157.60 L 153.84 156.59 C 153.92 155.73 153.29 154.97 152.43 154.89 C 151.58 154.81 150.82 155.44 150.74 156.29 L 150.64 157.31 C 150.56 158.16 151.19 158.92 152.04 159.00 C 152.90 159.09 153.66 158.46 153.74 157.60 Z M 153.81 156.74 L 153.98 155.85 C 154.15 155.01 153.60 154.20 152.76 154.03 C 151.92 153.87 151.10 154.41 150.93 155.26 L 150.76 156.14 C 150.60 156.98 151.14 157.80 151.99 157.96 C 152.83 158.13 153.64 157.58 153.81 156.74 Z M 153.95 155.98 L 154.22 155.03 C 154.46 154.20 153.99 153.34 153.16 153.11 C 152.34 152.87 151.48 153.35 151.24 154.17 L 150.97 155.13 C 150.73 155.95 151.21 156.81 152.03 157.05 C 152.85 157.28 153.71 156.81 153.95 155.98 Z M 154.20 155.11 L 154.53 154.16 C 154.81 153.35 154.39 152.47 153.58 152.18 C 152.77 151.90 151.88 152.33 151.60 153.14 L 151.27 154.09 C 150.98 154.90 151.41 155.78 152.22 156.07 C 153.03 156.35 153.92 155.92 154.20 155.11 Z M 154.51 154.22 L 154.88 153.28 C 155.19 152.48 154.80 151.58 154.00 151.27 C 153.20 150.95 152.30 151.35 151.99 152.15 L 151.62 153.08 C 151.30 153.88 151.70 154.78 152.50 155.10 C 153.30 155.41 154.20 155.02 154.51 154.22 Z M 154.86 153.34 L 155.26 152.42 C 155.60 151.63 155.24 150.71 154.45 150.37 C 153.66 150.03 152.75 150.39 152.41 151.17 L 152.01 152.09 C 151.66 152.88 152.02 153.80 152.81 154.14 C 153.60 154.48 154.52 154.12 154.86 153.34 Z M 155.24 152.46 L 155.67 151.56 C 156.03 150.79 155.70 149.86 154.93 149.49 C 154.15 149.12 153.23 149.45 152.86 150.23 L 152.43 151.13 C 152.06 151.90 152.39 152.83 153.16 153.20 C 153.94 153.57 154.87 153.24 155.24 152.46 Z M 155.65 151.60 L 156.09 150.72 C 156.48 149.95 156.18 149.02 155.42 148.63 C 154.65 148.24 153.71 148.54 153.32 149.31 L 152.88 150.19 C 152.49 150.95 152.79 151.89 153.56 152.28 C 154.32 152.67 155.26 152.36 155.65 151.60 Z M 156.07 150.75 L 156.55 149.88 C 156.96 149.12 156.68 148.18 155.93 147.77 C 155.17 147.36 154.23 147.64 153.82 148.39 L 153.35 149.27 C 152.94 150.02 153.21 150.97 153.97 151.38 C 154.72 151.79 155.66 151.51 156.07 150.75 Z M 156.53 149.92 L 157.04 149.04 C 157.47 148.30 157.22 147.35 156.48 146.92 C 155.74 146.49 154.79 146.74 154.36 147.48 L 153.85 148.35 C 153.42 149.09 153.66 150.04 154.40 150.48 C 155.14 150.91 156.09 150.66 156.53 149.92 Z M 157.01 149.08 L 157.55 148.23 C 158.00 147.50 157.78 146.55 157.06 146.09 C 156.34 145.64 155.38 145.86 154.93 146.58 L 154.39 147.44 C 153.94 148.16 154.15 149.11 154.88 149.57 C 155.60 150.02 156.55 149.80 157.01 149.08 Z M 157.51 148.27 L 158.07 147.45 C 158.55 146.74 158.37 145.78 157.67 145.30 C 156.97 144.82 156.01 145.00 155.53 145.71 L 154.96 146.53 C 154.48 147.24 154.66 148.20 155.37 148.68 C 156.07 149.16 157.03 148.98 157.51 148.27 Z M 158.03 147.50 L 158.64 146.69 C 159.15 146.02 159.01 145.05 158.33 144.54 C 157.66 144.03 156.69 144.17 156.18 144.84 L 155.57 145.65 C 155.06 146.33 155.20 147.29 155.88 147.80 C 156.55 148.31 157.52 148.18 158.03 147.50 Z M 158.59 146.74 L 159.21 145.98 C 159.75 145.33 159.66 144.37 159.01 143.83 C 158.35 143.29 157.39 143.39 156.85 144.04 L 156.23 144.80 C 155.69 145.45 155.79 146.41 156.44 146.95 C 157.09 147.49 158.05 147.39 158.59 146.74 Z M 159.17 146.02 L 159.84 145.27 C 160.40 144.64 160.35 143.68 159.72 143.12 C 159.09 142.56 158.13 142.62 157.57 143.24 L 156.90 144.00 C 156.34 144.63 156.39 145.59 157.02 146.15 C 157.65 146.71 158.61 146.65 159.17 146.02 Z M 159.79 145.32 L 160.48 144.61 C 161.07 144.02 161.06 143.06 160.47 142.47 C 159.87 141.88 158.91 141.89 158.32 142.48 L 157.63 143.19 C 157.04 143.79 157.05 144.75 157.64 145.34 C 158.24 145.92 159.20 145.92 159.79 145.32 Z M 160.41 144.67 L 161.16 143.99 C 161.78 143.44 161.84 142.49 161.28 141.87 C 160.72 141.25 159.77 141.19 159.15 141.75 L 158.40 142.43 C 157.78 142.98 157.73 143.93 158.28 144.55 C 158.84 145.17 159.79 145.23 160.41 144.67 Z M 161.09 144.05 L 161.83 143.46 C 162.48 142.94 162.59 142.00 162.08 141.35 C 161.57 140.70 160.62 140.59 159.98 141.11 L 159.23 141.70 C 158.58 142.21 158.47 143.15 158.98 143.80 C 159.50 144.45 160.44 144.56 161.09 144.05 Z M 161.73 143.52 L 162.54 142.98 C 163.23 142.53 163.41 141.60 162.96 140.92 C 162.50 140.23 161.58 140.05 160.89 140.50 L 160.08 141.04 C 159.40 141.50 159.21 142.42 159.66 143.11 C 160.12 143.79 161.04 143.98 161.73 143.52 Z M 162.41 143.05 L 163.32 142.56 C 164.04 142.18 164.31 141.28 163.93 140.56 C 163.54 139.84 162.64 139.56 161.92 139.95 L 161.02 140.44 C 160.29 140.82 160.02 141.72 160.41 142.44 C 160.80 143.16 161.69 143.43 162.41 143.05 Z M 163.18 142.62 L 164.13 142.24 C 164.88 141.93 165.24 141.07 164.94 140.32 C 164.63 139.56 163.77 139.20 163.01 139.51 L 162.07 139.89 C 161.31 140.20 160.95 141.06 161.26 141.81 C 161.56 142.57 162.42 142.93 163.18 142.62 Z M 163.87 142.31 L 164.85 142.10 C 165.64 141.94 166.15 141.16 165.99 140.37 C 165.82 139.58 165.05 139.07 164.25 139.23 L 163.27 139.43 C 162.48 139.60 161.97 140.38 162.13 141.17 C 162.30 141.96 163.07 142.47 163.87 142.31 Z M 164.44 142.12 L 165.44 142.19 C 166.24 142.25 166.94 141.65 167.00 140.85 C 167.06 140.05 166.46 139.35 165.66 139.29 L 164.66 139.22 C 163.86 139.16 163.16 139.76 163.10 140.56 C 163.04 141.36 163.64 142.06 164.44 142.12 Z M 165.19 142.14 L 166.14 142.38 C 166.91 142.58 167.70 142.12 167.90 141.35 C 168.10 140.58 167.64 139.79 166.86 139.59 L 165.91 139.35 C 165.14 139.15 164.36 139.61 164.16 140.38 C 163.96 141.15 164.42 141.94 165.19 142.14 Z"
      fill="black"
      fill-rule="nonzero" /></svg>