<svg xmlns="http://www.w3.org/2000/svg" width="300" height="300" viewBox="0 0 300 300">
<path d="M 154.18 94.77 L 154.17 93.54 C 154.16 92.67 153.44 91.97 152.57 91.98 C 151.69 92.00 150.99 92.71 151.01 93.59 L 151.02 94.81 C 151.03 95.68 151.75 96.38 152.62 96.37 C 153.50 96.36 154.19 95.64 154.18 94.77 Z M 151.32 92.52 L 151.21 92.65 C 150.63 93.35 150.73 94.39 151.43 94.96 C 152.14 95.54 153.17 95.44 153.75 94.74 L 153.86 94.61 C 154.43 93.91 154.33 92.87 153.63 92.30 C 152.93 91.72 151.90 91.82 151.32 92.52 Z M 150.83 93.37 L 150.59 94.62 C 150.41 95.53 151.00 96.41 151.91 96.59 C 152.82 96.77 153.70 96.18 153.88 95.27 L 154.13 94.02 C 154.31 93.11 153.71 92.23 152.80 92.05 C 151.89 91.87 151.01 92.46 150.83 93.37 Z M 150.59 94.54 L 150.35 95.53 C 150.12 96.44 150.68 97.36 151.59 97.58 C 152.49 97.80 153.41 97.25 153.63 96.34 L 153.88 95.35 C 154.10 94.44 153.55 93.53 152.64 93.30 C 151.73 93.08 150.81 93.64 150.59 94.54 Z M 150.35 95.50 L 150.09 96.46 C 149.85 97.37 150.39 98.30 151.29 98.54 C 152.20 98.79 153.13 98.25 153.37 97.34 L 153.63 96.38 C 153.87 95.47 153.33 94.54 152.43 94.30 C 151.52 94.05 150.59 94.59 150.35 95.50 Z M 150.08 96.47 L 149.82 97.47 C 149.58 98.38 150.13 99.31 151.04 99.55 C 151.95 99.79 152.88 99.24 153.12 98.33 L 153.38 97.33 C 153.62 96.42 153.07 95.49 152.16 95.26 C 151.25 95.02 150.32 95.56 150.08 96.47 Z M 149.82 97.48 L 149.58 98.41 C 149.35 99.32 149.90 100.25 150.81 100.48 C 151.73 100.72 152.66 100.16 152.89 99.25 L 153.12 98.32 C 153.36 97.41 152.80 96.48 151.89 96.25 C 150.98 96.01 150.05 96.57 149.82 97.48 Z M 149.58 98.39 L 149.34 99.33 C 149.10 100.24 149.64 101.18 150.55 101.42 C 151.46 101.66 152.40 101.11 152.64 100.20 L 152.88 99.27 C 153.13 98.35 152.58 97.42 151.67 97.18 C 150.76 96.94 149.82 97.48 149.58 98.39 Z M 149.34 99.32 L 149.07 100.31 C 148.83 101.22 149.37 102.16 150.28 102.40 C 151.19 102.65 152.13 102.11 152.37 101.19 L 152.64 100.21 C 152.88 99.30 152.34 98.36 151.43 98.12 C 150.52 97.87 149.58 98.41 149.34 99.32 Z M 149.07 100.32 L 148.82 101.26 C 148.58 102.17 149.13 103.11 150.04 103.35 C 150.95 103.59 151.89 103.04 152.13 102.13 L 152.38 101.19 C 152.62 100.27 152.07 99.34 151.16 99.10 C 150.24 98.86 149.31 99.40 149.07 100.32 Z M 148.82 101.26 L 148.56 102.24 C 148.32 103.16 148.87 104.09 149.79 104.33 C 150.70 104.57 151.64 104.02 151.88 103.11 L 152.13 102.12 C 152.37 101.21 151.82 100.27 150.91 100.04 C 149.99 99.80 149.06 100.34 148.82 101.26 Z M 148.56 102.23 L 148.31 103.20 C 148.06 104.11 148.61 105.05 149.52 105.29 C 150.44 105.54 151.38 104.99 151.62 104.08 L 151.88 103.11 C 152.12 102.20 151.57 101.26 150.66 101.02 C 149.74 100.77 148.80 101.32 148.56 102.23 Z M 148.31 103.20 L 148.05 104.17 C 147.80 105.08 148.35 106.02 149.26 106.27 C 150.18 106.51 151.12 105.97 151.36 105.05 L 151.62 104.08 C 151.86 103.16 151.32 102.22 150.40 101.98 C 149.49 101.74 148.55 102.28 148.31 103.20 Z M 148.05 104.18 L 147.79 105.16 C 147.55 106.08 148.10 107.01 149.01 107.25 C 149.93 107.49 150.87 106.94 151.11 106.03 L 151.36 105.04 C 151.60 104.13 151.05 103.19 150.14 102.95 C 149.22 102.71 148.29 103.26 148.05 104.18 Z M 147.79 105.17 L 147.54 106.14 C 147.31 107.06 147.86 107.99 148.78 108.23 C 149.69 108.46 150.63 107.91 150.86 106.99 L 151.11 106.02 C 151.34 105.10 150.79 104.17 149.87 103.93 C 148.95 103.70 148.02 104.25 147.79 105.17 Z M 147.54 106.14 L 147.29 107.10 C 147.06 108.02 147.61 108.95 148.53 109.19 C 149.44 109.43 150.38 108.87 150.61 107.96 L 150.86 106.99 C 151.10 106.07 150.54 105.14 149.63 104.90 C 148.71 104.67 147.78 105.22 147.54 106.14 Z M 147.30 107.09 L 147.04 108.06 C 146.79 108.97 147.34 109.91 148.25 110.15 C 149.17 110.40 150.11 109.85 150.35 108.94 L 150.61 107.97 C 150.85 107.06 150.31 106.12 149.39 105.87 C 148.48 105.63 147.54 106.17 147.30 107.09 Z M 147.04 108.05 L 146.78 109.01 C 146.53 109.93 147.07 110.87 147.98 111.12 C 148.90 111.37 149.84 110.83 150.09 109.91 L 150.35 108.95 C 150.60 108.03 150.06 107.09 149.14 106.84 C 148.23 106.60 147.29 107.13 147.04 108.05 Z M 146.78 109.02 L 146.52 109.99 C 146.27 110.90 146.81 111.84 147.73 112.09 C 148.64 112.33 149.58 111.79 149.83 110.88 L 150.09 109.91 C 150.33 108.99 149.79 108.05 148.88 107.81 C 147.96 107.56 147.02 108.11 146.78 109.02 Z M 146.51 110.00 L 146.26 110.98 C 146.02 111.89 146.57 112.83 147.49 113.07 C 148.40 113.30 149.34 112.75 149.58 111.84 L 149.83 110.86 C 150.07 109.95 149.52 109.01 148.60 108.77 C 147.69 108.53 146.75 109.08 146.51 110.00 Z M 146.26 110.99 L 146.01 111.94 C 145.78 112.86 146.34 113.79 147.25 114.03 C 148.17 114.26 149.11 113.70 149.34 112.79 L 149.58 111.83 C 149.81 110.91 149.26 109.98 148.34 109.75 C 147.42 109.51 146.49 110.07 146.26 110.99 Z M 146.01 111.95 L 145.76 112.94 C 145.53 113.86 146.09 114.79 147.01 115.02 C 147.93 115.25 148.86 114.69 149.09 113.77 L 149.34 112.78 C 149.57 111.86 149.01 110.93 148.09 110.70 C 147.17 110.47 146.24 111.03 146.01 111.95 Z M 145.77 112.94 L 145.52 113.89 C 145.29 114.81 145.85 115.74 146.76 115.98 C 147.68 116.21 148.61 115.65 148.85 114.73 L 149.09 113.78 C 149.32 112.86 148.77 111.93 147.85 111.69 C 146.93 111.46 146.00 112.02 145.77 112.94 Z M 145.53 113.88 L 145.27 114.85 C 145.03 115.77 145.58 116.70 146.49 116.94 C 147.41 117.18 148.35 116.64 148.59 115.72 L 148.84 114.75 C 149.08 113.83 148.54 112.90 147.62 112.66 C 146.71 112.42 145.77 112.96 145.53 113.88 Z M 145.27 114.85 L 145.02 115.80 C 144.78 116.72 145.32 117.65 146.23 117.90 C 147.15 118.14 148.09 117.60 148.33 116.68 L 148.58 115.73 C 148.83 114.81 148.28 113.88 147.37 113.63 C 146.46 113.39 145.52 113.93 145.27 114.85 Z M 145.02 115.82 L 144.78 116.75 C 144.55 117.67 145.10 118.60 146.02 118.83 C 146.93 119.07 147.86 118.51 148.09 117.60 L 148.33 116.66 C 148.57 115.75 148.01 114.82 147.10 114.58 C 146.18 114.35 145.25 114.91 145.02 115.82 Z M 144.77 116.79 L 144.55 117.77 C 144.34 118.69 144.91 119.61 145.83 119.82 C 146.75 120.03 147.66 119.46 147.87 118.54 L 148.10 117.56 C 148.31 116.64 147.74 115.72 146.82 115.51 C 145.90 115.30 144.99 115.87 144.77 116.79 Z M 144.54 117.82 L 144.34 118.79 C 144.16 119.71 144.75 120.61 145.67 120.80 C 146.60 120.98 147.50 120.39 147.68 119.47 L 147.88 118.50 C 148.07 117.57 147.47 116.67 146.55 116.49 C 145.63 116.30 144.73 116.89 144.54 117.82 Z M 144.34 118.82 L 144.16 119.80 C 143.99 120.73 144.60 121.61 145.52 121.79 C 146.44 121.96 147.33 121.35 147.50 120.43 L 147.69 119.44 C 147.86 118.51 147.25 117.63 146.32 117.46 C 145.40 117.28 144.51 117.89 144.34 118.82 Z M 144.16 119.81 L 144.01 120.63 C 143.85 121.55 144.46 122.44 145.38 122.60 C 146.31 122.77 147.19 122.15 147.35 121.23 L 147.50 120.41 C 147.67 119.49 147.05 118.61 146.13 118.44 C 145.21 118.28 144.33 118.89 144.16 119.81 Z"
      fill="black"
      fill-rule="nonzero" /></svg>