<svg xmlns="http://www.w3.org/2000/svg" width="300" height="300" viewBox="0 0 300 300">
<path d="M 132.03 177.88 L 131.52 178.75 C 131.11 179.45 131.34 180.34 132.03 180.74 C 132.72 181.15 133.61 180.92 134.02 180.23 L 134.53 179.36 C 134.94 178.67 134.71 177.78 134.02 177.37 C 133.33 176.96 132.44 177.19 132.03 177.88 Z M 134.04 178.76 L 133.71 178.18 C 133.30 177.48 132.41 177.23 131.71 177.64 C 131.00 178.04 130.76 178.94 131.16 179.64 L 131.50 180.22 C 131.90 180.92 132.80 181.17 133.50 180.76 C 134.20 180.36 134.45 179.46 134.04 178.76 Z M 133.90 178.71 L 133.74 177.55 C 133.63 176.74 132.89 176.18 132.08 176.29 C 131.27 176.40 130.71 177.14 130.82 177.95 L 130.97 179.11 C 131.08 179.91 131.83 180.48 132.63 180.37 C 133.44 180.26 134.01 179.52 133.90 178.71 Z M 133.75 177.69 L 133.72 176.70 C 133.68 175.89 133.00 175.25 132.18 175.29 C 131.37 175.32 130.73 176.00 130.76 176.82 L 130.80 177.81 C 130.83 178.62 131.52 179.26 132.34 179.23 C 133.15 179.19 133.79 178.51 133.75 177.69 Z M 133.72 176.75 L 133.71 175.71 C 133.71 174.89 133.04 174.23 132.22 174.24 C 131.41 174.25 130.75 174.91 130.75 175.73 L 130.76 176.77 C 130.77 177.59 131.43 178.25 132.25 178.24 C 133.07 178.24 133.72 177.57 133.72 176.75 Z M 133.71 175.72 L 133.71 174.65 C 133.71 173.83 133.05 173.17 132.23 173.17 C 131.42 173.17 130.75 173.83 130.75 174.65 L 130.75 175.72 C 130.75 176.54 131.41 177.20 132.23 177.20 C 133.05 177.20 133.71 176.54 133.71 175.72 Z M 133.71 174.65 L 133.72 173.65 C 133.72 172.84 133.06 172.17 132.24 172.17 C 131.43 172.16 130.76 172.82 130.76 173.64 L 130.75 174.64 C 130.75 175.46 131.41 176.12 132.23 176.13 C 133.05 176.13 133.71 175.47 133.71 174.65 Z M 133.72 173.67 L 133.73 172.68 C 133.75 171.86 133.09 171.19 132.28 171.18 C 131.46 171.16 130.78 171.82 130.77 172.64 L 130.76 173.62 C 130.74 174.44 131.40 175.12 132.21 175.13 C 133.03 175.14 133.71 174.49 133.72 173.67 Z M 133.73 172.74 L 133.78 171.77 C 133.83 170.95 133.20 170.25 132.38 170.21 C 131.56 170.16 130.87 170.79 130.82 171.61 L 130.77 172.58 C 130.73 173.40 131.36 174.10 132.18 174.14 C 132.99 174.18 133.69 173.55 133.73 172.74 Z M 133.78 171.86 L 133.89 170.91 C 133.99 170.10 133.40 169.36 132.59 169.26 C 131.78 169.17 131.04 169.75 130.94 170.56 L 130.83 171.51 C 130.73 172.33 131.32 173.07 132.13 173.16 C 132.94 173.26 133.68 172.68 133.78 171.86 Z M 133.88 170.96 L 134.04 169.97 C 134.16 169.16 133.61 168.40 132.80 168.27 C 131.99 168.15 131.23 168.70 131.11 169.51 L 130.95 170.51 C 130.82 171.32 131.38 172.07 132.19 172.20 C 133.00 172.33 133.76 171.77 133.88 170.96 Z M 134.04 169.97 L 134.19 169.00 C 134.32 168.19 133.77 167.43 132.96 167.30 C 132.15 167.17 131.39 167.72 131.26 168.53 L 131.11 169.50 C 130.98 170.31 131.53 171.07 132.34 171.20 C 133.15 171.33 133.91 170.78 134.04 169.97 Z M 134.19 169.02 L 134.36 168.03 C 134.51 167.23 133.97 166.46 133.16 166.31 C 132.36 166.17 131.59 166.71 131.44 167.51 L 131.27 168.51 C 131.13 169.31 131.66 170.08 132.47 170.22 C 133.27 170.37 134.04 169.83 134.19 169.02 Z M 134.36 168.06 L 134.55 167.08 C 134.71 166.28 134.19 165.50 133.39 165.34 C 132.59 165.18 131.81 165.70 131.65 166.50 L 131.45 167.48 C 131.29 168.28 131.81 169.06 132.61 169.22 C 133.42 169.38 134.20 168.86 134.36 168.06 Z M 134.55 167.09 L 134.75 166.11 C 134.92 165.31 134.40 164.52 133.60 164.36 C 132.80 164.19 132.02 164.71 131.85 165.51 L 131.65 166.50 C 131.48 167.30 132.00 168.08 132.80 168.24 C 133.60 168.41 134.39 167.89 134.55 167.09 Z M 134.75 166.11 L 134.95 165.13 C 135.12 164.33 134.60 163.54 133.80 163.38 C 133.00 163.22 132.21 163.73 132.05 164.54 L 131.85 165.51 C 131.69 166.31 132.20 167.10 133.00 167.26 C 133.81 167.42 134.59 166.91 134.75 166.11 Z M 134.95 165.13 L 135.16 164.16 C 135.32 163.36 134.81 162.57 134.01 162.41 C 133.20 162.24 132.42 162.75 132.25 163.56 L 132.05 164.53 C 131.88 165.33 132.40 166.12 133.20 166.28 C 134.00 166.45 134.79 165.93 134.95 165.13 Z M 135.15 164.17 L 135.36 163.21 C 135.54 162.41 135.03 161.62 134.23 161.44 C 133.43 161.27 132.64 161.78 132.47 162.58 L 132.26 163.54 C 132.08 164.34 132.59 165.13 133.39 165.30 C 134.19 165.48 134.98 164.97 135.15 164.17 Z M 135.36 163.24 L 135.59 162.24 C 135.79 161.45 135.30 160.65 134.50 160.46 C 133.70 160.26 132.90 160.75 132.71 161.55 L 132.47 162.55 C 132.28 163.34 132.77 164.14 133.57 164.33 C 134.37 164.52 135.16 164.03 135.36 163.24 Z M 135.59 162.27 L 135.84 161.30 C 136.05 160.51 135.58 159.70 134.79 159.49 C 134.00 159.28 133.19 159.76 132.98 160.55 L 132.72 161.52 C 132.51 162.31 132.98 163.12 133.78 163.33 C 134.57 163.54 135.38 163.07 135.59 162.27 Z M 135.84 161.32 L 136.11 160.36 C 136.33 159.57 135.87 158.75 135.08 158.53 C 134.29 158.31 133.47 158.77 133.25 159.56 L 132.98 160.53 C 132.76 161.31 133.22 162.13 134.01 162.35 C 134.80 162.57 135.62 162.11 135.84 161.32 Z M 136.10 160.37 L 136.38 159.39 C 136.61 158.61 136.16 157.79 135.37 157.56 C 134.58 157.34 133.76 157.79 133.54 158.58 L 133.26 159.55 C 133.03 160.34 133.48 161.16 134.27 161.38 C 135.06 161.61 135.88 161.16 136.10 160.37 Z M 136.38 159.40 L 136.66 158.46 C 136.89 157.67 136.44 156.85 135.66 156.62 C 134.87 156.39 134.05 156.83 133.82 157.62 L 133.54 158.57 C 133.31 159.35 133.76 160.18 134.54 160.41 C 135.33 160.64 136.15 160.19 136.38 159.40 Z M 136.66 158.47 L 136.94 157.52 C 137.18 156.74 136.74 155.91 135.95 155.68 C 135.17 155.44 134.34 155.88 134.11 156.66 L 133.82 157.61 C 133.59 158.39 134.03 159.22 134.81 159.45 C 135.59 159.69 136.42 159.25 136.66 158.47 Z M 136.94 157.54 L 137.24 156.59 C 137.49 155.81 137.06 154.98 136.28 154.73 C 135.50 154.48 134.67 154.91 134.42 155.69 L 134.12 156.64 C 133.87 157.42 134.29 158.25 135.07 158.50 C 135.85 158.75 136.69 158.32 136.94 157.54 Z M 137.23 156.64 L 137.56 155.69 C 137.83 154.92 137.43 154.07 136.66 153.80 C 135.89 153.53 135.04 153.93 134.77 154.70 L 134.44 155.65 C 134.16 156.42 134.57 157.26 135.34 157.54 C 136.11 157.81 136.95 157.41 137.23 156.64 Z M 137.54 155.73 L 137.91 154.80 C 138.21 154.04 137.83 153.18 137.07 152.89 C 136.31 152.59 135.45 152.96 135.15 153.73 L 134.79 154.66 C 134.49 155.42 134.87 156.28 135.63 156.57 C 136.39 156.87 137.25 156.50 137.54 155.73 Z M 137.90 154.83 L 138.28 153.90 C 138.60 153.15 138.24 152.28 137.48 151.97 C 136.73 151.65 135.86 152.01 135.55 152.77 L 135.16 153.70 C 134.85 154.45 135.21 155.32 135.96 155.63 C 136.72 155.95 137.58 155.59 137.90 154.83 Z M 138.27 153.92 L 138.67 153.00 C 138.99 152.24 138.65 151.37 137.89 151.05 C 137.14 150.73 136.27 151.08 135.95 151.83 L 135.55 152.75 C 135.23 153.50 135.58 154.37 136.33 154.70 C 137.08 155.02 137.95 154.67 138.27 153.92 Z M 138.66 153.02 L 139.07 152.11 C 139.40 151.36 139.07 150.49 138.33 150.15 C 137.58 149.82 136.70 150.15 136.37 150.90 L 135.96 151.81 C 135.63 152.55 135.96 153.43 136.70 153.76 C 137.45 154.10 138.33 153.76 138.66 153.02 Z M 139.05 152.14 L 139.48 151.24 C 139.83 150.50 139.52 149.62 138.78 149.27 C 138.04 148.92 137.16 149.23 136.81 149.97 L 136.38 150.87 C 136.03 151.61 136.35 152.49 137.08 152.84 C 137.82 153.19 138.70 152.88 139.05 152.14 Z M 139.47 151.27 L 139.91 150.37 C 140.28 149.64 139.98 148.76 139.25 148.39 C 138.52 148.03 137.64 148.32 137.27 149.05 L 136.82 149.94 C 136.46 150.67 136.76 151.56 137.48 151.93 C 138.21 152.29 139.10 152.00 139.47 151.27 Z M 139.90 150.39 L 140.37 149.48 C 140.75 148.76 140.47 147.87 139.74 147.50 C 139.02 147.12 138.13 147.40 137.76 148.13 L 137.28 149.03 C 136.91 149.76 137.19 150.65 137.91 151.02 C 138.64 151.40 139.53 151.11 139.90 150.39 Z M 140.36 149.51 L 140.84 148.62 C 141.23 147.90 140.96 147.01 140.25 146.62 C 139.54 146.23 138.64 146.50 138.25 147.21 L 137.77 148.10 C 137.38 148.82 137.65 149.71 138.36 150.10 C 139.08 150.49 139.97 150.22 140.36 149.51 Z M 140.81 148.66 L 141.32 147.79 C 141.73 147.09 141.50 146.19 140.80 145.78 C 140.10 145.37 139.20 145.61 138.79 146.31 L 138.28 147.17 C 137.87 147.87 138.10 148.77 138.80 149.18 C 139.50 149.59 140.40 149.36 140.81 148.66 Z M 141.28 147.85 L 141.83 147.02 C 142.27 146.34 142.09 145.43 141.41 144.99 C 140.73 144.54 139.82 144.73 139.37 145.41 L 138.83 146.25 C 138.38 146.92 138.57 147.83 139.25 148.28 C 139.93 148.72 140.84 148.53 141.28 147.85 Z M 141.80 147.07 L 142.33 146.31 C 142.80 145.65 142.65 144.74 141.99 144.27 C 141.33 143.80 140.41 143.95 139.94 144.61 L 139.41 145.36 C 138.94 146.02 139.09 146.94 139.75 147.41 C 140.41 147.88 141.33 147.73 141.80 147.07 Z M 142.30 146.36 L 142.91 145.58 C 143.40 144.94 143.29 144.02 142.65 143.52 C 142.01 143.02 141.09 143.14 140.59 143.78 L 139.98 144.56 C 139.48 145.20 139.60 146.12 140.24 146.62 C 140.88 147.12 141.80 147.00 142.30 146.36 Z M 142.87 145.63 L 143.52 144.86 C 144.04 144.25 143.96 143.32 143.35 142.79 C 142.73 142.27 141.80 142.35 141.28 142.96 L 140.63 143.73 C 140.10 144.35 140.18 145.27 140.80 145.80 C 141.42 146.32 142.34 146.25 142.87 145.63 Z M 143.49 144.90 L 144.17 144.14 C 144.71 143.54 144.66 142.61 144.06 142.07 C 143.46 141.53 142.53 141.58 141.98 142.18 L 141.31 142.93 C 140.76 143.53 140.81 144.46 141.41 145.01 C 142.02 145.55 142.94 145.50 143.49 144.90 Z M 144.14 144.17 L 144.86 143.42 C 145.41 142.83 145.39 141.91 144.81 141.35 C 144.22 140.79 143.29 140.81 142.73 141.40 L 142.01 142.15 C 141.45 142.74 141.47 143.66 142.06 144.22 C 142.65 144.78 143.58 144.76 144.14 144.17 Z M 144.82 143.46 L 145.56 142.74 C 146.14 142.18 146.15 141.25 145.59 140.66 C 145.03 140.08 144.10 140.07 143.51 140.63 L 142.77 141.36 C 142.19 141.92 142.17 142.85 142.74 143.43 C 143.30 144.01 144.23 144.03 144.82 143.46 Z M 145.50 142.80 L 146.24 142.16 C 146.85 141.63 146.92 140.70 146.39 140.09 C 145.86 139.47 144.93 139.41 144.32 139.94 L 143.58 140.58 C 142.96 141.11 142.90 142.03 143.43 142.65 C 143.96 143.26 144.88 143.33 145.50 142.80 Z M 146.14 142.23 L 146.95 141.64 C 147.61 141.16 147.75 140.24 147.27 139.59 C 146.79 138.93 145.87 138.79 145.22 139.27 L 144.41 139.86 C 143.76 140.34 143.61 141.26 144.09 141.91 C 144.57 142.57 145.49 142.71 146.14 142.23 Z M 146.83 141.72 L 147.69 141.22 C 148.39 140.81 148.63 139.91 148.22 139.21 C 147.81 138.51 146.91 138.27 146.21 138.68 L 145.35 139.19 C 144.65 139.60 144.41 140.49 144.82 141.20 C 145.23 141.90 146.13 142.13 146.83 141.72 Z M 147.52 141.30 L 148.43 140.92 C 149.17 140.60 149.52 139.74 149.20 138.99 C 148.89 138.25 148.02 137.90 147.28 138.22 L 146.38 138.60 C 145.63 138.92 145.28 139.78 145.60 140.53 C 145.92 141.27 146.78 141.62 147.52 141.30 Z M 148.21 140.99 L 149.17 140.75 C 149.96 140.55 150.44 139.75 150.24 138.96 C 150.04 138.18 149.24 137.70 148.45 137.90 L 147.49 138.14 C 146.70 138.34 146.23 139.14 146.43 139.93 C 146.63 140.72 147.43 141.19 148.21 140.99 Z M 148.95 140.79 L 149.95 140.69 C 150.76 140.62 151.35 139.90 151.27 139.09 C 151.19 138.28 150.48 137.69 149.67 137.76 L 148.67 137.86 C 147.86 137.94 147.27 138.66 147.35 139.47 C 147.42 140.27 148.14 140.87 148.95 140.79 Z M 149.72 140.70 L 150.72 140.76 C 151.53 140.81 152.23 140.19 152.28 139.38 C 152.33 138.57 151.71 137.87 150.90 137.82 L 149.90 137.76 C 149.09 137.71 148.39 138.33 148.34 139.14 C 148.29 139.95 148.90 140.65 149.72 140.70 Z M 150.41 140.71 L 151.37 140.98 C 152.15 141.21 152.97 140.75 153.19 139.97 C 153.41 139.18 152.96 138.36 152.17 138.14 L 151.21 137.87 C 150.43 137.65 149.61 138.10 149.39 138.89 C 149.17 139.67 149.62 140.49 150.41 140.71 Z M 151.03 140.85 L 151.90 141.35 C 152.61 141.76 153.51 141.52 153.92 140.81 C 154.33 140.10 154.09 139.19 153.38 138.78 L 152.51 138.28 C 151.80 137.87 150.90 138.11 150.49 138.82 C 150.08 139.53 150.32 140.44 151.03 140.85 Z M 151.69 141.21 L 152.45 141.84 C 153.08 142.37 154.02 142.28 154.55 141.65 C 155.07 141.01 154.98 140.08 154.35 139.55 L 153.59 138.92 C 152.96 138.40 152.02 138.48 151.50 139.12 C 150.97 139.75 151.06 140.69 151.69 141.21 Z M 152.34 141.74 L 153.03 142.45 C 153.61 143.03 154.55 143.04 155.14 142.47 C 155.73 141.89 155.74 140.94 155.16 140.36 L 154.46 139.65 C 153.89 139.07 152.94 139.06 152.36 139.63 C 151.77 140.21 151.76 141.16 152.34 141.74 Z M 152.97 142.38 L 153.62 143.13 C 154.16 143.75 155.10 143.82 155.72 143.28 C 156.34 142.74 156.41 141.80 155.87 141.18 L 155.22 140.43 C 154.68 139.80 153.74 139.74 153.12 140.28 C 152.50 140.82 152.43 141.76 152.97 142.38 Z M 153.59 143.09 L 154.21 143.85 C 154.73 144.49 155.67 144.58 156.31 144.06 C 156.94 143.54 157.04 142.61 156.52 141.97 L 155.90 141.21 C 155.38 140.57 154.44 140.48 153.80 141.00 C 153.17 141.52 153.07 142.46 153.59 143.09 Z M 154.20 143.82 L 154.83 144.64 C 155.34 145.29 156.27 145.40 156.92 144.90 C 157.56 144.39 157.68 143.46 157.17 142.81 L 156.54 142.00 C 156.03 141.35 155.10 141.24 154.45 141.74 C 153.81 142.25 153.69 143.18 154.20 143.82 Z M 154.82 144.62 L 155.41 145.41 C 155.90 146.07 156.84 146.20 157.49 145.71 C 158.15 145.21 158.28 144.28 157.79 143.63 L 157.19 142.83 C 156.70 142.18 155.77 142.05 155.11 142.54 C 154.46 143.03 154.32 143.96 154.82 144.62 Z M 155.40 145.40 L 155.99 146.21 C 156.47 146.88 157.41 147.02 158.07 146.54 C 158.74 146.05 158.88 145.12 158.40 144.46 L 157.80 143.64 C 157.32 142.98 156.39 142.83 155.72 143.32 C 155.06 143.80 154.91 144.73 155.40 145.40 Z M 155.98 146.20 L 156.55 147.01 C 157.03 147.69 157.97 147.84 158.64 147.37 C 159.31 146.89 159.47 145.96 158.99 145.28 L 158.41 144.47 C 157.93 143.80 157.00 143.64 156.33 144.12 C 155.65 144.59 155.50 145.53 155.98 146.20 Z M 156.54 147.00 L 157.10 147.82 C 157.57 148.50 158.50 148.67 159.18 148.20 C 159.86 147.73 160.04 146.80 159.57 146.12 L 159.01 145.30 C 158.54 144.62 157.61 144.45 156.92 144.91 C 156.24 145.38 156.07 146.32 156.54 147.00 Z M 157.08 147.79 L 157.62 148.62 C 158.08 149.31 159.01 149.51 159.70 149.05 C 160.39 148.60 160.59 147.67 160.13 146.98 L 159.59 146.15 C 159.14 145.45 158.21 145.26 157.51 145.71 C 156.82 146.17 156.63 147.10 157.08 147.79 Z M 157.60 148.59 L 158.11 149.41 C 158.54 150.12 159.47 150.34 160.18 149.90 C 160.88 149.47 161.10 148.54 160.67 147.83 L 160.16 147.01 C 159.72 146.30 158.79 146.08 158.09 146.52 C 157.38 146.96 157.16 147.88 157.60 148.59 Z M 158.09 149.38 L 158.60 150.27 C 159.02 150.98 159.94 151.23 160.66 150.81 C 161.38 150.39 161.62 149.47 161.20 148.75 L 160.69 147.87 C 160.27 147.15 159.35 146.91 158.63 147.32 C 157.91 147.74 157.67 148.66 158.09 149.38 Z M 158.58 150.23 L 159.06 151.11 C 159.46 151.84 160.37 152.11 161.10 151.71 C 161.83 151.31 162.10 150.40 161.70 149.67 L 161.22 148.79 C 160.82 148.06 159.91 147.79 159.18 148.19 C 158.45 148.59 158.18 149.50 158.58 150.23 Z M 159.04 151.08 L 159.50 151.97 C 159.88 152.71 160.79 153.00 161.53 152.62 C 162.27 152.24 162.56 151.33 162.18 150.59 L 161.72 149.70 C 161.34 148.96 160.43 148.67 159.69 149.05 C 158.95 149.43 158.66 150.34 159.04 151.08 Z M 159.48 151.93 L 159.92 152.85 C 160.28 153.60 161.18 153.92 161.93 153.56 C 162.68 153.20 163.00 152.29 162.64 151.54 L 162.20 150.63 C 161.84 149.87 160.94 149.56 160.19 149.92 C 159.43 150.28 159.12 151.18 159.48 151.93 Z M 159.89 152.80 L 160.32 153.78 C 160.66 154.55 161.55 154.90 162.32 154.56 C 163.08 154.22 163.43 153.33 163.09 152.57 L 162.66 151.59 C 162.33 150.82 161.43 150.47 160.67 150.81 C 159.90 151.15 159.56 152.04 159.89 152.80 Z M 160.30 153.74 L 160.69 154.69 C 161.00 155.47 161.88 155.84 162.66 155.53 C 163.44 155.22 163.81 154.33 163.50 153.56 L 163.11 152.61 C 162.80 151.83 161.92 151.46 161.14 151.77 C 160.37 152.08 159.99 152.97 160.30 153.74 Z M 160.67 154.66 L 160.99 155.52 C 161.29 156.31 162.16 156.71 162.95 156.41 C 163.73 156.12 164.13 155.24 163.84 154.46 L 163.51 153.59 C 163.22 152.81 162.34 152.41 161.56 152.70 C 160.77 153.00 160.38 153.87 160.67 154.66 Z M 160.98 155.48 L 161.32 156.49 C 161.60 157.28 162.46 157.70 163.26 157.43 C 164.05 157.16 164.47 156.29 164.20 155.50 L 163.85 154.49 C 163.58 153.70 162.71 153.28 161.92 153.55 C 161.13 153.83 160.70 154.69 160.98 155.48 Z M 161.31 156.46 L 161.59 157.33 C 161.85 158.13 162.71 158.57 163.51 158.32 C 164.31 158.06 164.75 157.20 164.49 156.40 L 164.21 155.53 C 163.95 154.73 163.10 154.29 162.30 154.54 C 161.49 154.80 161.05 155.66 161.31 156.46 Z M 161.59 157.32 L 161.88 158.28 C 162.14 159.08 162.99 159.53 163.80 159.28 C 164.60 159.02 165.05 158.17 164.80 157.36 L 164.50 156.41 C 164.25 155.61 163.39 155.16 162.59 155.41 C 161.78 155.66 161.33 156.52 161.59 157.32 Z M 161.87 158.24 L 162.13 159.14 C 162.37 159.95 163.21 160.42 164.03 160.18 C 164.84 159.95 165.30 159.10 165.07 158.29 L 164.81 157.39 C 164.57 156.58 163.73 156.11 162.91 156.35 C 162.10 156.58 161.64 157.43 161.87 158.24 Z M 162.11 159.07 L 162.36 160.09 C 162.55 160.92 163.38 161.42 164.20 161.23 C 165.02 161.03 165.53 160.20 165.33 159.38 L 165.09 158.36 C 164.89 157.53 164.07 157.03 163.24 157.22 C 162.42 157.42 161.91 158.25 162.11 159.07 Z M 162.34 160.02 L 162.51 160.95 C 162.67 161.78 163.47 162.33 164.30 162.17 C 165.14 162.02 165.68 161.21 165.53 160.38 L 165.35 159.45 C 165.19 158.62 164.39 158.07 163.56 158.23 C 162.73 158.39 162.18 159.19 162.34 160.02 Z M 162.50 160.89 L 162.65 161.90 C 162.78 162.74 163.56 163.31 164.40 163.19 C 165.24 163.06 165.81 162.28 165.69 161.44 L 165.54 160.44 C 165.41 159.60 164.63 159.02 163.79 159.15 C 162.95 159.28 162.38 160.06 162.50 160.89 Z M 162.65 161.84 L 162.77 162.91 C 162.86 163.75 163.62 164.36 164.46 164.26 C 165.31 164.17 165.91 163.41 165.82 162.57 L 165.70 161.50 C 165.60 160.66 164.84 160.05 164.00 160.15 C 163.16 160.24 162.55 161.00 162.65 161.84 Z M 162.76 162.86 L 162.84 163.92 C 162.91 164.76 163.65 165.40 164.49 165.33 C 165.34 165.27 165.97 164.53 165.91 163.68 L 165.82 162.62 C 165.76 161.77 165.02 161.14 164.17 161.21 C 163.33 161.27 162.69 162.01 162.76 162.86 Z M 162.84 163.88 L 162.89 164.87 C 162.94 165.72 163.66 166.37 164.51 166.33 C 165.36 166.28 166.01 165.55 165.96 164.71 L 165.91 163.72 C 165.86 162.87 165.14 162.22 164.29 162.26 C 163.44 162.31 162.79 163.03 162.84 163.88 Z M 162.89 164.86 L 162.93 165.86 C 162.97 166.70 163.69 167.36 164.54 167.33 C 165.39 167.29 166.05 166.57 166.01 165.72 L 165.97 164.72 C 165.93 163.87 165.21 163.21 164.36 163.25 C 163.51 163.29 162.85 164.01 162.89 164.86 Z M 162.93 165.84 L 162.97 166.81 C 163.00 167.66 163.71 168.33 164.56 168.30 C 165.41 168.26 166.08 167.55 166.05 166.70 L 166.01 165.73 C 165.98 164.88 165.27 164.22 164.42 164.25 C 163.57 164.28 162.90 164.99 162.93 165.84 Z M 162.97 166.78 L 162.98 167.74 C 163.00 168.59 163.70 169.27 164.55 169.25 C 165.40 169.24 166.08 168.54 166.06 167.69 L 166.05 166.73 C 166.03 165.88 165.33 165.20 164.48 165.22 C 163.63 165.23 162.95 165.93 162.97 166.78 Z M 162.98 167.72 L 162.99 168.73 C 162.99 169.58 163.68 170.26 164.53 170.26 C 165.38 170.26 166.07 169.57 166.07 168.72 L 166.06 167.71 C 166.06 166.86 165.37 166.17 164.52 166.18 C 163.67 166.18 162.98 166.87 162.98 167.72 Z M 162.99 168.72 L 162.99 169.74 C 162.99 170.59 163.68 171.28 164.53 171.28 C 165.38 171.28 166.07 170.59 166.07 169.74 L 166.07 168.72 C 166.07 167.87 165.38 167.18 164.53 167.18 C 163.68 167.18 162.99 167.87 162.99 168.72 Z M 162.99 169.74 L 162.99 170.72 C 162.99 171.57 163.68 172.26 164.53 172.26 C 165.38 172.26 166.07 171.57 166.07 170.72 L 166.07 169.74 C 166.07 168.89 165.38 168.20 164.53 168.20 C 163.68 168.20 162.99 168.89 162.99 169.74 Z M 162.98 170.72 L 162.98 171.72 C 162.98 172.57 163.68 173.26 164.53 173.26 C 165.38 173.26 166.07 172.57 166.07 171.72 L 166.07 170.72 C 166.07 169.87 165.38 169.18 164.53 169.18 C 163.68 169.18 162.98 169.87 162.98 170.72 Z M 162.98 171.72 L 162.98 172.71 C 162.98 173.56 163.67 174.25 164.53 174.25 C 165.38 174.25 166.07 173.56 166.07 172.71 L 166.07 171.72 C 166.07 170.86 165.38 170.17 164.53 170.17 C 163.67 170.17 162.98 170.86 162.98 171.72 Z M 162.98 172.71 L 162.98 173.72 C 162.98 174.57 163.67 175.26 164.53 175.26 C 165.38 175.26 166.07 174.57 166.07 173.72 L 166.07 172.71 C 166.07 171.86 165.38 171.17 164.53 171.17 C 163.67 171.17 162.98 171.86 162.98 172.71 Z M 162.98 173.72 L 162.98 174.72 C 162.98 175.57 163.67 176.26 164.53 176.26 C 165.38 176.26 166.07 175.57 166.07 174.72 L 166.07 173.72 C 166.07 172.87 165.38 172.18 164.53 172.18 C 163.67 172.18 162.98 172.87 162.98 173.72 Z M 162.98 174.72 L 162.98 175.71 C 162.98 176.56 163.67 177.25 164.53 177.25 C 165.38 177.25 166.07 176.56 166.07 175.71 L 166.07 174.72 C 166.07 173.87 165.38 173.18 164.53 173.18 C 163.67 173.18 162.98 173.87 162.98 174.72 Z M 162.98 175.71 L 162.98 176.71 C 162.98 177.57 163.67 178.26 164.53 178.26 C 165.38 178.26 166.07 177.57 166.07 176.71 L 166.07 175.71 C 166.07 174.86 165.38 174.17 164.53 174.17 C 163.67 174.17 162.98 174.86 162.98 175.71 Z M 162.98 176.72 L 162.98 177.65 C 162.99 178.51 163.68 179.20 164.53 179.19 C 165.39 179.19 166.08 178.50 166.07 177.65 L 166.07 176.71 C 166.07 175.86 165.38 175.17 164.52 175.17 C 163.67 175.17 162.98 175.87 162.98 176.72 Z M 162.98 177.68 L 163.00 178.74 C 163.02 179.59 163.72 180.27 164.58 180.26 C 165.43 180.24 166.11 179.54 166.09 178.68 L 166.08 177.62 C 166.06 176.77 165.36 176.09 164.50 176.10 C 163.65 176.12 162.97 176.82 162.98 177.68 Z M 163.00 178.77 L 163.04 179.74 C 163.07 180.60 163.79 181.26 164.64 181.23 C 165.50 181.20 166.16 180.48 166.13 179.63 L 166.10 178.65 C 166.06 177.80 165.34 177.13 164.49 177.16 C 163.63 177.20 162.97 177.92 163.00 178.77 Z M 163.04 179.77 L 163.09 180.79 C 163.14 181.64 163.87 182.30 164.72 182.25 C 165.58 182.21 166.23 181.48 166.19 180.62 L 166.13 179.60 C 166.09 178.75 165.36 178.09 164.50 178.14 C 163.65 178.18 162.99 178.91 163.04 179.77 Z M 163.09 180.81 L 163.16 181.85 C 163.22 182.70 163.96 183.35 164.81 183.29 C 165.67 183.24 166.31 182.50 166.25 181.64 L 166.19 180.60 C 166.13 179.75 165.39 179.10 164.54 179.16 C 163.68 179.22 163.04 179.96 163.09 180.81 Z M 163.16 181.87 L 163.24 182.88 C 163.31 183.73 164.05 184.37 164.91 184.30 C 165.76 184.24 166.40 183.49 166.33 182.64 L 166.25 181.63 C 166.19 180.77 165.44 180.13 164.59 180.20 C 163.73 180.27 163.10 181.01 163.16 181.87 Z M 163.24 182.88 L 163.32 183.83 C 163.38 184.68 164.13 185.32 164.98 185.25 C 165.84 185.18 166.48 184.44 166.41 183.58 L 166.33 182.64 C 166.27 181.78 165.52 181.15 164.66 181.21 C 163.81 181.28 163.17 182.03 163.24 182.88 Z M 163.32 183.84 L 163.40 184.80 C 163.48 185.65 164.23 186.28 165.09 186.20 C 165.94 186.13 166.57 185.37 166.49 184.52 L 166.41 183.57 C 166.33 182.71 165.58 182.08 164.72 182.16 C 163.87 182.24 163.24 182.99 163.32 183.84 Z M 163.42 184.91 L 163.58 185.94 C 163.72 186.78 164.52 187.35 165.37 187.22 C 166.21 187.08 166.78 186.28 166.65 185.44 L 166.48 184.41 C 166.34 183.56 165.54 182.99 164.70 183.13 C 163.85 183.27 163.28 184.06 163.42 184.91 Z M 163.61 186.06 L 163.84 186.97 C 164.05 187.80 164.89 188.30 165.72 188.09 C 166.55 187.88 167.05 187.04 166.85 186.21 L 166.62 185.31 C 166.41 184.48 165.57 183.97 164.74 184.18 C 163.91 184.39 163.40 185.23 163.61 186.06 Z M 163.85 187.03 L 164.14 188.00 C 164.39 188.83 165.25 189.29 166.07 189.05 C 166.89 188.81 167.36 187.94 167.12 187.12 L 166.83 186.15 C 166.59 185.33 165.72 184.86 164.90 185.10 C 164.08 185.34 163.61 186.21 163.85 187.03 Z M 164.15 188.03 L 164.44 188.93 C 164.69 189.75 165.56 190.20 166.38 189.95 C 167.20 189.69 167.65 188.82 167.39 188.00 L 167.11 187.10 C 166.85 186.28 165.98 185.83 165.17 186.09 C 164.35 186.34 163.89 187.21 164.15 188.03 Z"
      fill="black"
      fill-rule="nonzero" /></svg>