<svg xmlns="http://www.w3.org/2000/svg" width="300" height="300" viewBox="0 0 300 300">
<path d="M 157.14 128.64 L 157.47 127.63 C 157.72 126.83 157.27 125.97 156.47 125.72 C 155.67 125.47 154.82 125.91 154.56 126.71 L 154.24 127.73 C 153.99 128.53 154.43 129.39 155.24 129.64 C 156.04 129.89 156.89 129.45 157.14 128.64 Z M 156.05 125.60 L 155.44 125.58 C 154.57 125.56 153.85 126.25 153.83 127.11 C 153.80 127.98 154.49 128.70 155.36 128.72 L 155.97 128.74 C 156.84 128.76 157.56 128.08 157.58 127.21 C 157.61 126.34 156.92 125.62 156.05 125.60 Z M 154.75 125.72 L 153.69 126.19 C 152.90 126.55 152.55 127.48 152.90 128.28 C 153.26 129.07 154.20 129.42 154.99 129.07 L 156.05 128.59 C 156.84 128.23 157.19 127.30 156.83 126.51 C 156.48 125.71 155.54 125.36 154.75 125.72 Z M 153.67 126.22 L 152.80 126.63 C 152.02 127.01 151.69 127.94 152.06 128.72 C 152.43 129.50 153.37 129.83 154.15 129.46 L 155.01 129.04 C 155.79 128.67 156.12 127.74 155.75 126.96 C 155.38 126.18 154.45 125.85 153.67 126.22 Z M 152.78 126.66 L 151.84 127.14 C 151.07 127.52 150.77 128.45 151.15 129.21 C 151.53 129.98 152.46 130.28 153.22 129.90 L 154.17 129.43 C 154.93 129.04 155.24 128.11 154.85 127.35 C 154.47 126.59 153.54 126.28 152.78 126.66 Z M 151.81 127.16 L 150.90 127.64 C 150.15 128.04 149.87 128.97 150.27 129.72 C 150.67 130.47 151.60 130.75 152.35 130.36 L 153.25 129.87 C 154.00 129.48 154.28 128.55 153.89 127.80 C 153.49 127.05 152.56 126.76 151.81 127.16 Z M 150.89 127.65 L 150.01 128.14 C 149.26 128.54 148.99 129.47 149.39 130.21 C 149.80 130.96 150.73 131.23 151.47 130.83 L 152.36 130.35 C 153.10 129.94 153.37 129.01 152.97 128.27 C 152.57 127.52 151.64 127.25 150.89 127.65 Z M 150.02 128.14 L 149.10 128.63 C 148.36 129.03 148.08 129.96 148.48 130.70 C 148.88 131.44 149.80 131.72 150.55 131.32 L 151.46 130.82 C 152.20 130.43 152.48 129.50 152.08 128.76 C 151.68 128.02 150.76 127.74 150.02 128.14 Z M 149.12 128.64 L 148.28 129.08 C 147.54 129.47 147.26 130.38 147.65 131.12 C 148.03 131.86 148.95 132.14 149.69 131.75 L 150.53 131.31 C 151.27 130.93 151.55 130.01 151.16 129.27 C 150.77 128.53 149.86 128.25 149.12 128.64 Z M 148.29 129.08 L 147.43 129.53 C 146.70 129.91 146.41 130.82 146.79 131.56 C 147.18 132.29 148.08 132.58 148.82 132.20 L 149.68 131.75 C 150.41 131.36 150.70 130.46 150.32 129.72 C 149.93 128.99 149.03 128.70 148.29 129.08 Z M 147.44 129.53 L 146.54 130.00 C 145.80 130.38 145.52 131.28 145.90 132.02 C 146.28 132.75 147.18 133.04 147.92 132.66 L 148.81 132.19 C 149.55 131.81 149.84 130.91 149.46 130.18 C 149.08 129.44 148.17 129.15 147.44 129.53 Z M 146.55 129.99 L 145.67 130.44 C 144.93 130.81 144.63 131.71 145.00 132.45 C 145.37 133.19 146.27 133.48 147.01 133.11 L 147.90 132.66 C 148.64 132.29 148.94 131.39 148.57 130.65 C 148.19 129.92 147.29 129.62 146.55 129.99 Z M 145.69 130.43 L 144.79 130.86 C 144.04 131.22 143.73 132.11 144.08 132.85 C 144.44 133.60 145.33 133.91 146.08 133.56 L 146.98 133.12 C 147.73 132.77 148.04 131.87 147.69 131.13 C 147.33 130.38 146.44 130.07 145.69 130.43 Z M 144.81 130.85 L 143.90 131.26 C 143.15 131.60 142.82 132.49 143.16 133.24 C 143.50 133.99 144.39 134.32 145.14 133.98 L 146.05 133.57 C 146.80 133.23 147.14 132.34 146.79 131.59 C 146.45 130.84 145.57 130.51 144.81 130.85 Z M 143.92 131.25 L 143.00 131.66 C 142.25 131.99 141.91 132.87 142.24 133.63 C 142.57 134.38 143.46 134.73 144.21 134.39 L 145.13 133.99 C 145.88 133.66 146.22 132.77 145.89 132.02 C 145.56 131.26 144.67 130.92 143.92 131.25 Z M 143.01 131.65 L 142.09 132.05 C 141.34 132.38 140.99 133.26 141.32 134.02 C 141.65 134.78 142.53 135.12 143.29 134.80 L 144.20 134.40 C 144.96 134.07 145.31 133.19 144.98 132.43 C 144.65 131.67 143.77 131.33 143.01 131.65 Z M 142.10 132.05 L 141.22 132.43 C 140.46 132.75 140.11 133.63 140.44 134.39 C 140.76 135.15 141.64 135.50 142.40 135.18 L 143.28 134.80 C 144.04 134.47 144.39 133.60 144.06 132.84 C 143.74 132.08 142.86 131.73 142.10 132.05 Z M 141.23 132.42 L 140.29 132.82 C 139.53 133.14 139.18 134.01 139.49 134.77 C 139.81 135.53 140.69 135.89 141.45 135.57 L 142.39 135.18 C 143.15 134.86 143.51 133.98 143.19 133.22 C 142.87 132.46 141.99 132.10 141.23 132.42 Z M 140.30 132.81 L 139.38 133.19 C 138.62 133.51 138.25 134.38 138.57 135.14 C 138.88 135.91 139.75 136.27 140.52 135.96 L 141.44 135.58 C 142.20 135.26 142.57 134.39 142.26 133.63 C 141.94 132.86 141.07 132.50 140.30 132.81 Z M 139.39 133.19 L 138.45 133.56 C 137.68 133.87 137.31 134.74 137.62 135.51 C 137.92 136.27 138.79 136.65 139.56 136.34 L 140.50 135.96 C 141.27 135.65 141.64 134.79 141.34 134.02 C 141.03 133.25 140.16 132.88 139.39 133.19 Z M 138.47 133.56 L 137.40 133.97 C 136.63 134.26 136.25 135.12 136.54 135.90 C 136.84 136.67 137.70 137.05 138.47 136.76 L 139.54 136.35 C 140.31 136.05 140.69 135.19 140.40 134.42 C 140.10 133.65 139.24 133.26 138.47 133.56 Z M 137.36 133.98 L 136.38 134.39 C 135.62 134.71 135.26 135.59 135.58 136.35 C 135.90 137.11 136.78 137.47 137.54 137.15 L 138.51 136.74 C 139.27 136.42 139.63 135.54 139.31 134.78 C 139.00 134.02 138.12 133.66 137.36 133.98 Z M 135.92 136.85 L 136.17 137.08 C 136.76 137.66 137.71 137.64 138.28 137.04 C 138.86 136.45 138.84 135.50 138.24 134.93 L 138.00 134.69 C 137.40 134.12 136.46 134.14 135.88 134.73 C 135.31 135.33 135.33 136.27 135.92 136.85 Z M 136.99 137.49 L 138.17 137.66 C 138.99 137.78 139.75 137.22 139.87 136.39 C 139.99 135.57 139.42 134.81 138.60 134.69 L 137.42 134.52 C 136.60 134.40 135.84 134.97 135.72 135.79 C 135.60 136.61 136.17 137.37 136.99 137.49 Z M 137.92 137.62 L 138.87 137.92 C 139.66 138.17 140.51 137.73 140.76 136.94 C 141.02 136.14 140.58 135.30 139.79 135.04 L 138.84 134.74 C 138.05 134.49 137.20 134.93 136.95 135.72 C 136.69 136.51 137.13 137.36 137.92 137.62 Z M 138.59 137.81 L 139.44 138.28 C 140.18 138.68 141.10 138.42 141.51 137.68 C 141.91 136.95 141.64 136.03 140.91 135.62 L 140.06 135.15 C 139.33 134.75 138.41 135.01 138.00 135.75 C 137.59 136.48 137.86 137.40 138.59 137.81 Z M 139.21 138.14 L 140.01 138.78 C 140.66 139.31 141.62 139.21 142.16 138.56 C 142.69 137.90 142.59 136.94 141.93 136.41 L 141.14 135.76 C 140.49 135.23 139.52 135.33 138.99 135.99 C 138.46 136.64 138.56 137.60 139.21 138.14 Z M 139.84 138.64 L 140.50 139.36 C 141.08 139.98 142.05 140.02 142.68 139.45 C 143.30 138.87 143.34 137.90 142.77 137.27 L 142.10 136.55 C 141.52 135.92 140.55 135.89 139.93 136.46 C 139.30 137.04 139.26 138.01 139.84 138.64 Z M 140.36 139.20 L 140.95 140.04 C 141.44 140.74 142.41 140.91 143.11 140.42 C 143.81 139.93 143.98 138.96 143.49 138.26 L 142.91 137.43 C 142.42 136.72 141.45 136.55 140.75 137.04 C 140.04 137.53 139.87 138.50 140.36 139.20 Z M 140.83 139.85 L 141.27 140.72 C 141.66 141.49 142.60 141.80 143.36 141.41 C 144.13 141.02 144.44 140.08 144.05 139.31 L 143.61 138.44 C 143.22 137.67 142.28 137.37 141.51 137.76 C 140.74 138.15 140.44 139.09 140.83 139.85 Z M 141.18 140.54 L 141.52 141.49 C 141.81 142.30 142.71 142.73 143.52 142.44 C 144.34 142.15 144.76 141.25 144.47 140.44 L 144.13 139.49 C 143.84 138.67 142.95 138.25 142.13 138.54 C 141.32 138.83 140.89 139.72 141.18 140.54 Z M 141.47 141.34 L 141.71 142.29 C 141.92 143.13 142.77 143.65 143.61 143.44 C 144.45 143.23 144.96 142.38 144.75 141.54 L 144.52 140.59 C 144.31 139.75 143.46 139.23 142.62 139.44 C 141.78 139.65 141.27 140.50 141.47 141.34 Z M 141.68 142.18 L 141.85 143.15 C 142.00 144.01 142.81 144.58 143.67 144.43 C 144.52 144.28 145.09 143.47 144.95 142.62 L 144.78 141.65 C 144.63 140.79 143.82 140.22 142.96 140.37 C 142.11 140.52 141.54 141.33 141.68 142.18 Z M 141.84 143.08 L 141.97 144.13 C 142.08 144.99 142.86 145.60 143.72 145.49 C 144.58 145.38 145.19 144.60 145.09 143.74 L 144.96 142.69 C 144.85 141.83 144.07 141.22 143.21 141.33 C 142.35 141.43 141.73 142.22 141.84 143.08 Z M 141.96 144.07 L 142.06 145.12 C 142.14 145.98 142.90 146.62 143.77 146.54 C 144.63 146.46 145.27 145.70 145.19 144.84 L 145.09 143.79 C 145.01 142.93 144.25 142.29 143.39 142.37 C 142.52 142.45 141.89 143.21 141.96 144.07 Z M 142.06 145.09 L 142.13 146.11 C 142.19 146.97 142.94 147.63 143.80 147.57 C 144.67 147.51 145.32 146.76 145.26 145.89 L 145.19 144.87 C 145.13 144.00 144.38 143.35 143.52 143.41 C 142.65 143.47 142.00 144.22 142.06 145.09 Z M 142.12 146.08 L 142.17 147.03 C 142.21 147.90 142.95 148.57 143.82 148.53 C 144.68 148.48 145.35 147.75 145.31 146.88 L 145.26 145.92 C 145.22 145.06 144.48 144.39 143.62 144.43 C 142.75 144.47 142.08 145.21 142.12 146.08 Z M 142.17 146.99 L 142.19 148.05 C 142.22 148.92 142.94 149.61 143.80 149.59 C 144.67 149.57 145.36 148.85 145.34 147.98 L 145.31 146.92 C 145.29 146.05 144.57 145.36 143.70 145.38 C 142.84 145.41 142.15 146.13 142.17 146.99 Z M 142.19 148.02 L 142.20 148.93 C 142.20 149.80 142.90 150.50 143.77 150.50 C 144.64 150.50 145.34 149.79 145.34 148.93 L 145.34 148.01 C 145.34 147.14 144.63 146.44 143.76 146.44 C 142.89 146.45 142.19 147.15 142.19 148.02 Z M 142.20 148.93 L 142.20 149.93 C 142.20 150.80 142.90 151.50 143.77 151.50 C 144.64 151.50 145.34 150.80 145.34 149.93 L 145.34 148.93 C 145.34 148.06 144.64 147.36 143.77 147.36 C 142.90 147.36 142.20 148.06 142.20 148.93 Z M 142.20 149.93 L 142.20 150.93 C 142.20 151.80 142.90 152.50 143.77 152.50 C 144.63 152.50 145.34 151.80 145.34 150.93 L 145.34 149.93 C 145.34 149.07 144.64 148.36 143.77 148.36 C 142.90 148.36 142.20 149.06 142.20 149.93 Z M 142.20 150.92 L 142.19 151.91 C 142.18 152.78 142.88 153.49 143.74 153.50 C 144.61 153.50 145.32 152.81 145.33 151.94 L 145.34 150.95 C 145.34 150.08 144.65 149.37 143.78 149.37 C 142.92 149.36 142.21 150.05 142.20 150.92 Z M 142.20 151.87 L 142.16 152.77 C 142.13 153.64 142.80 154.36 143.66 154.40 C 144.52 154.43 145.25 153.76 145.28 152.90 L 145.32 151.99 C 145.36 151.13 144.68 150.40 143.82 150.37 C 142.96 150.33 142.23 151.00 142.20 151.87 Z M 142.17 152.67 L 142.06 153.74 C 141.97 154.60 142.59 155.36 143.44 155.45 C 144.30 155.55 145.07 154.93 145.16 154.07 L 145.27 153.00 C 145.36 152.15 144.74 151.38 143.89 151.29 C 143.03 151.20 142.26 151.82 142.17 152.67 Z M 142.08 153.67 L 141.92 154.64 C 141.79 155.49 142.37 156.28 143.21 156.41 C 144.06 156.55 144.86 155.97 144.99 155.12 L 145.14 154.15 C 145.27 153.30 144.70 152.51 143.85 152.37 C 143.00 152.24 142.21 152.82 142.08 153.67 Z M 141.93 154.60 L 141.75 155.62 C 141.59 156.46 142.15 157.27 142.99 157.42 C 143.83 157.57 144.64 157.02 144.79 156.18 L 144.98 155.16 C 145.13 154.32 144.57 153.51 143.73 153.36 C 142.89 153.20 142.09 153.76 141.93 154.60 Z M 141.76 155.59 L 141.54 156.66 C 141.36 157.50 141.90 158.31 142.73 158.48 C 143.57 158.66 144.38 158.12 144.55 157.29 L 144.78 156.21 C 144.95 155.38 144.41 154.56 143.58 154.39 C 142.75 154.22 141.93 154.75 141.76 155.59 Z M 141.58 156.55 L 141.30 157.49 C 141.07 158.30 141.54 159.15 142.35 159.38 C 143.16 159.62 144.01 159.15 144.24 158.34 L 144.52 157.40 C 144.75 156.59 144.28 155.74 143.47 155.51 C 142.66 155.27 141.81 155.74 141.58 156.55 Z M 141.50 157.09 L 140.99 157.89 C 140.53 158.59 140.74 159.53 141.44 159.98 C 142.15 160.44 143.09 160.23 143.54 159.53 L 144.05 158.73 C 144.50 158.03 144.30 157.09 143.59 156.64 C 142.89 156.18 141.95 156.39 141.50 157.09 Z M 141.32 157.53 L 140.85 157.91 C 140.20 158.43 140.10 159.37 140.62 160.02 C 141.13 160.67 142.08 160.78 142.73 160.26 L 143.20 159.88 C 143.85 159.36 143.96 158.42 143.44 157.77 C 142.92 157.12 141.97 157.01 141.32 157.53 Z"
      fill="black"
      fill-rule="nonzero" /><path d="M 145.10 137.10 L 145.71 137.92 C 146.18 138.56 147.09 138.70 147.74 138.22 C 148.38 137.75 148.52 136.84 148.05 136.19 L 147.44 135.37 C 146.96 134.73 146.06 134.59 145.41 135.07 C 144.76 135.54 144.63 136.45 145.10 137.10 Z M 146.16 138.37 L 146.96 138.81 C 147.69 139.21 148.60 138.94 149.00 138.21 C 149.39 137.49 149.12 136.58 148.40 136.18 L 147.59 135.74 C 146.87 135.35 145.96 135.61 145.56 136.34 C 145.17 137.06 145.43 137.97 146.16 138.37 Z M 147.57 139.01 L 148.60 139.08 C 149.44 139.14 150.16 138.51 150.22 137.67 C 150.28 136.84 149.65 136.11 148.81 136.05 L 147.79 135.98 C 146.95 135.92 146.23 136.55 146.17 137.39 C 146.11 138.23 146.74 138.95 147.57 139.01 Z M 148.70 139.09 L 149.67 139.09 C 150.51 139.10 151.19 138.42 151.20 137.57 C 151.20 136.73 150.52 136.05 149.67 136.05 L 148.71 136.04 C 147.87 136.04 147.18 136.72 147.18 137.56 C 147.18 138.41 147.86 139.09 148.70 139.09 Z M 149.64 139.09 L 150.69 139.11 C 151.53 139.13 152.22 138.46 152.24 137.62 C 152.25 136.77 151.58 136.08 150.74 136.06 L 149.70 136.05 C 148.86 136.03 148.16 136.70 148.15 137.54 C 148.13 138.38 148.80 139.08 149.64 139.09 Z M 150.64 139.11 L 151.59 139.15 C 152.43 139.20 153.15 138.55 153.19 137.71 C 153.23 136.87 152.58 136.16 151.74 136.12 L 150.79 136.07 C 149.95 136.03 149.24 136.68 149.19 137.52 C 149.15 138.35 149.80 139.07 150.64 139.11 Z M 151.50 139.14 L 152.52 139.26 C 153.35 139.35 154.10 138.75 154.19 137.92 C 154.29 137.08 153.69 136.33 152.85 136.24 L 151.84 136.13 C 151.00 136.04 150.25 136.64 150.16 137.47 C 150.07 138.30 150.67 139.05 151.50 139.14 Z M 152.38 139.23 L 153.36 139.43 C 154.18 139.60 154.98 139.07 155.15 138.25 C 155.31 137.43 154.79 136.63 153.97 136.47 L 152.99 136.27 C 152.17 136.10 151.37 136.63 151.20 137.44 C 151.04 138.26 151.56 139.06 152.38 139.23 Z M 153.22 139.40 L 154.17 139.69 C 154.97 139.94 155.82 139.49 156.06 138.69 C 156.31 137.89 155.86 137.04 155.06 136.79 L 154.11 136.50 C 153.31 136.26 152.46 136.70 152.21 137.50 C 151.97 138.30 152.42 139.15 153.22 139.40 Z M 154.04 139.64 L 154.99 140.04 C 155.77 140.35 156.65 139.98 156.97 139.21 C 157.29 138.43 156.92 137.55 156.14 137.23 L 155.19 136.84 C 154.42 136.52 153.53 136.89 153.21 137.67 C 152.89 138.44 153.26 139.33 154.04 139.64 Z M 154.87 139.98 L 155.81 140.46 C 156.55 140.85 157.47 140.55 157.85 139.81 C 158.24 139.06 157.94 138.14 157.20 137.76 L 156.26 137.28 C 155.52 136.90 154.60 137.19 154.22 137.94 C 153.83 138.69 154.13 139.60 154.87 139.98 Z M 155.72 140.42 L 156.57 140.93 C 157.29 141.36 158.23 141.13 158.66 140.41 C 159.09 139.69 158.86 138.75 158.14 138.32 L 157.28 137.81 C 156.56 137.38 155.63 137.61 155.20 138.33 C 154.77 139.05 155.00 139.98 155.72 140.42 Z M 156.49 140.88 L 157.34 141.46 C 158.03 141.93 158.98 141.76 159.45 141.07 C 159.93 140.38 159.75 139.43 159.06 138.95 L 158.22 138.37 C 157.53 137.89 156.58 138.07 156.10 138.76 C 155.63 139.45 155.80 140.40 156.49 140.88 Z M 157.22 141.37 L 157.96 141.99 C 158.60 142.53 159.57 142.45 160.11 141.80 C 160.65 141.16 160.56 140.20 159.92 139.65 L 159.18 139.04 C 158.53 138.49 157.57 138.58 157.03 139.23 C 156.49 139.87 156.57 140.83 157.22 141.37 Z M 157.81 141.86 L 158.47 142.57 C 159.04 143.19 160.01 143.23 160.63 142.66 C 161.25 142.08 161.29 141.12 160.72 140.50 L 160.06 139.79 C 159.49 139.17 158.52 139.13 157.90 139.70 C 157.28 140.27 157.24 141.24 157.81 141.86 Z M 158.36 142.43 L 158.94 143.24 C 159.44 143.92 160.39 144.07 161.08 143.57 C 161.76 143.07 161.91 142.12 161.41 141.43 L 160.83 140.63 C 160.33 139.95 159.37 139.80 158.69 140.30 C 158.01 140.79 157.86 141.75 158.36 142.43 Z M 158.86 143.12 L 159.37 143.97 C 159.80 144.70 160.74 144.94 161.47 144.50 C 162.19 144.07 162.43 143.13 162.00 142.41 L 161.49 141.55 C 161.06 140.83 160.12 140.59 159.39 141.02 C 158.67 141.45 158.43 142.39 158.86 143.12 Z M 159.30 143.84 L 159.72 144.74 C 160.07 145.50 160.99 145.83 161.75 145.48 C 162.52 145.12 162.85 144.21 162.49 143.44 L 162.07 142.54 C 161.71 141.78 160.80 141.44 160.04 141.80 C 159.27 142.16 158.94 143.07 159.30 143.84 Z M 159.67 144.63 L 160.03 145.57 C 160.32 146.36 161.20 146.77 162.00 146.47 C 162.79 146.17 163.19 145.29 162.89 144.50 L 162.54 143.55 C 162.24 142.76 161.36 142.36 160.57 142.66 C 159.78 142.95 159.38 143.84 159.67 144.63 Z M 160.01 145.50 L 160.31 146.45 C 160.57 147.25 161.43 147.69 162.23 147.44 C 163.03 147.18 163.47 146.32 163.22 145.52 L 162.91 144.57 C 162.66 143.77 161.80 143.33 160.99 143.58 C 160.19 143.84 159.75 144.70 160.01 145.50 Z M 160.28 146.35 L 160.53 147.33 C 160.74 148.15 161.56 148.64 162.38 148.43 C 163.20 148.23 163.69 147.40 163.49 146.58 L 163.24 145.61 C 163.03 144.79 162.21 144.30 161.39 144.50 C 160.57 144.71 160.08 145.54 160.28 146.35 Z M 160.51 147.22 L 160.68 148.18 C 160.82 149.01 161.61 149.57 162.44 149.42 C 163.27 149.28 163.82 148.49 163.68 147.66 L 163.51 146.69 C 163.36 145.86 162.57 145.31 161.74 145.45 C 160.91 145.60 160.36 146.39 160.51 147.22 Z M 160.66 148.13 L 160.80 149.14 C 160.92 149.97 161.69 150.56 162.52 150.44 C 163.36 150.33 163.94 149.56 163.83 148.72 L 163.69 147.71 C 163.58 146.88 162.81 146.29 161.97 146.41 C 161.14 146.52 160.55 147.29 160.66 148.13 Z M 160.79 149.11 L 160.91 150.10 C 161.01 150.94 161.77 151.54 162.61 151.44 C 163.45 151.35 164.05 150.59 163.95 149.75 L 163.84 148.75 C 163.74 147.91 162.98 147.31 162.14 147.41 C 161.30 147.51 160.70 148.27 160.79 149.11 Z M 160.90 150.05 L 160.98 151.05 C 161.05 151.90 161.79 152.53 162.64 152.46 C 163.48 152.39 164.11 151.65 164.04 150.80 L 163.96 149.80 C 163.89 148.95 163.15 148.32 162.31 148.39 C 161.46 148.46 160.83 149.20 160.90 150.05 Z M 160.98 150.98 L 161.01 151.98 C 161.04 152.83 161.75 153.49 162.60 153.47 C 163.44 153.44 164.11 152.73 164.08 151.88 L 164.05 150.88 C 164.02 150.03 163.31 149.36 162.46 149.39 C 161.61 149.42 160.95 150.13 160.98 150.98 Z M 161.01 151.94 L 161.01 152.93 C 161.01 153.78 161.71 154.47 162.56 154.46 C 163.41 154.46 164.09 153.77 164.09 152.92 L 164.08 151.92 C 164.08 151.07 163.39 150.39 162.54 150.39 C 161.69 150.39 161.00 151.09 161.01 151.94 Z M 161.01 152.93 L 161.01 153.92 C 161.01 154.77 161.70 155.46 162.55 155.46 C 163.40 155.46 164.09 154.77 164.09 153.92 L 164.09 152.93 C 164.09 152.08 163.40 151.39 162.55 151.39 C 161.70 151.39 161.01 152.08 161.01 152.93 Z M 161.01 153.92 L 161.01 154.93 C 161.01 155.78 161.70 156.47 162.55 156.47 C 163.40 156.47 164.09 155.78 164.09 154.93 L 164.09 153.92 C 164.09 153.07 163.40 152.38 162.55 152.38 C 161.70 152.38 161.01 153.07 161.01 153.92 Z M 161.01 154.93 L 161.01 155.93 C 161.01 156.78 161.70 157.47 162.55 157.47 C 163.40 157.47 164.09 156.78 164.09 155.93 L 164.09 154.93 C 164.09 154.07 163.40 153.38 162.55 153.38 C 161.70 153.38 161.01 154.07 161.01 154.93 Z M 161.01 155.93 L 161.01 156.93 C 161.01 157.78 161.70 158.47 162.55 158.47 C 163.40 158.47 164.09 157.78 164.09 156.93 L 164.09 155.93 C 164.09 155.08 163.40 154.39 162.55 154.39 C 161.70 154.39 161.01 155.08 161.01 155.93 Z M 161.01 156.92 L 161.00 157.94 C 161.00 158.79 161.69 159.48 162.54 159.48 C 163.40 159.49 164.09 158.80 164.09 157.94 L 164.09 156.93 C 164.09 156.08 163.41 155.39 162.55 155.38 C 161.70 155.38 161.01 156.07 161.01 156.92 Z M 161.00 157.90 L 160.98 158.90 C 160.96 159.75 161.63 160.46 162.49 160.48 C 163.34 160.50 164.05 159.83 164.07 158.97 L 164.09 157.98 C 164.11 157.13 163.44 156.42 162.59 156.40 C 161.73 156.38 161.02 157.05 161.00 157.90 Z M 160.98 158.82 L 160.91 159.81 C 160.84 160.66 161.48 161.40 162.33 161.46 C 163.18 161.53 163.92 160.89 163.99 160.04 L 164.06 159.05 C 164.13 158.20 163.49 157.46 162.64 157.40 C 161.79 157.33 161.05 157.97 160.98 158.82 Z M 160.91 159.74 L 160.79 160.73 C 160.69 161.57 161.30 162.34 162.14 162.44 C 162.99 162.55 163.76 161.94 163.86 161.10 L 163.98 160.11 C 164.08 159.26 163.48 158.49 162.63 158.39 C 161.79 158.29 161.02 158.89 160.91 159.74 Z M 160.80 160.71 L 160.67 161.66 C 160.56 162.50 161.16 163.28 162.01 163.39 C 162.85 163.50 163.63 162.90 163.74 162.06 L 163.86 161.11 C 163.97 160.26 163.37 159.49 162.53 159.38 C 161.68 159.27 160.91 159.87 160.80 160.71 Z M 160.68 161.65 L 160.54 162.64 C 160.43 163.48 161.02 164.26 161.86 164.38 C 162.71 164.49 163.48 163.90 163.60 163.06 L 163.73 162.07 C 163.85 161.22 163.26 160.44 162.41 160.33 C 161.57 160.21 160.79 160.81 160.68 161.65 Z M 160.55 162.61 L 160.38 163.66 C 160.25 164.50 160.83 165.29 161.67 165.42 C 162.51 165.56 163.30 164.98 163.43 164.14 L 163.59 163.08 C 163.73 162.24 163.15 161.45 162.31 161.32 C 161.47 161.19 160.68 161.77 160.55 162.61 Z M 160.39 163.60 L 160.19 164.63 C 160.02 165.46 160.56 166.27 161.40 166.44 C 162.23 166.61 163.04 166.07 163.21 165.23 L 163.42 164.20 C 163.58 163.37 163.04 162.56 162.21 162.39 C 161.37 162.22 160.56 162.76 160.39 163.60 Z M 160.23 164.48 L 159.95 165.38 C 159.70 166.19 160.15 167.05 160.97 167.30 C 161.78 167.56 162.64 167.10 162.89 166.29 L 163.17 165.39 C 163.42 164.57 162.97 163.71 162.15 163.46 C 161.34 163.21 160.48 163.66 160.23 164.48 Z M 160.13 164.99 L 159.56 165.87 C 159.09 166.58 159.30 167.54 160.01 168.00 C 160.72 168.47 161.68 168.26 162.14 167.55 L 162.71 166.67 C 163.18 165.96 162.97 165.00 162.26 164.54 C 161.55 164.08 160.59 164.28 160.13 164.99 Z M 159.83 165.56 L 159.35 165.98 C 158.71 166.54 158.65 167.52 159.22 168.15 C 159.78 168.79 160.76 168.85 161.39 168.29 L 161.87 167.86 C 162.51 167.30 162.57 166.33 162.00 165.69 C 161.44 165.05 160.47 164.99 159.83 165.56 Z"
      fill="black"
      fill-rule="nonzero" /><path d="M 145.46 147.75 L 146.31 147.30 C 147.05 146.92 147.34 146.00 146.95 145.26 C 146.57 144.52 145.66 144.24 144.92 144.62 L 144.06 145.07 C 143.32 145.46 143.03 146.37 143.42 147.11 C 143.80 147.85 144.72 148.13 145.46 147.75 Z M 146.03 147.45 L 146.98 147.18 C 147.80 146.95 148.28 146.10 148.05 145.28 C 147.82 144.46 146.97 143.98 146.15 144.21 L 145.20 144.48 C 144.38 144.71 143.90 145.56 144.13 146.38 C 144.36 147.19 145.21 147.67 146.03 147.45 Z M 146.68 147.24 L 147.65 147.17 C 148.50 147.10 149.14 146.36 149.08 145.51 C 149.01 144.66 148.27 144.02 147.42 144.08 L 146.45 144.15 C 145.60 144.22 144.96 144.96 145.02 145.81 C 145.09 146.67 145.83 147.30 146.68 147.24 Z M 147.54 147.17 L 148.61 147.16 C 149.46 147.15 150.14 146.46 150.14 145.60 C 150.13 144.75 149.43 144.07 148.58 144.07 L 147.52 144.08 C 146.67 144.09 145.99 144.78 145.99 145.64 C 146.00 146.49 146.69 147.17 147.54 147.17 Z M 148.59 147.16 L 149.57 147.16 C 150.42 147.16 151.11 146.47 151.11 145.62 C 151.11 144.77 150.42 144.08 149.57 144.08 L 148.59 144.08 C 147.74 144.08 147.05 144.77 147.05 145.62 C 147.05 146.47 147.74 147.16 148.59 147.16 Z M 149.57 147.16 L 150.59 147.16 C 151.44 147.16 152.13 146.47 152.13 145.62 C 152.13 144.76 151.44 144.07 150.59 144.07 L 149.57 144.07 C 148.72 144.07 148.03 144.76 148.03 145.62 C 148.03 146.47 148.72 147.16 149.57 147.16 Z M 150.59 147.16 L 151.60 147.16 C 152.45 147.16 153.14 146.47 153.14 145.62 C 153.14 144.77 152.45 144.08 151.60 144.08 L 150.59 144.08 C 149.74 144.08 149.05 144.77 149.05 145.62 C 149.05 146.47 149.74 147.16 150.59 147.16 Z M 151.60 147.15 L 152.61 147.15 C 153.45 147.15 154.14 146.47 154.14 145.62 C 154.14 144.78 153.46 144.09 152.61 144.09 L 151.61 144.09 C 150.76 144.08 150.08 144.77 150.07 145.61 C 150.07 146.46 150.76 147.14 151.60 147.15 Z M 152.60 147.14 L 153.59 147.15 C 154.43 147.15 155.12 146.48 155.12 145.64 C 155.13 144.80 154.46 144.11 153.62 144.11 L 152.62 144.10 C 151.78 144.09 151.10 144.77 151.09 145.61 C 151.09 146.45 151.76 147.13 152.60 147.14 Z M 153.58 147.13 L 154.60 147.15 C 155.43 147.17 156.12 146.51 156.14 145.67 C 156.15 144.84 155.49 144.16 154.66 144.14 L 153.63 144.12 C 152.80 144.11 152.12 144.77 152.10 145.60 C 152.09 146.43 152.75 147.11 153.58 147.13 Z M 154.57 147.13 L 155.56 147.17 C 156.39 147.21 157.08 146.57 157.11 145.75 C 157.15 144.93 156.51 144.23 155.69 144.20 L 154.69 144.16 C 153.87 144.13 153.18 144.76 153.15 145.58 C 153.11 146.41 153.75 147.10 154.57 147.13 Z M 155.51 147.15 L 156.49 147.23 C 157.30 147.29 158.01 146.69 158.07 145.88 C 158.13 145.07 157.53 144.36 156.72 144.30 L 155.74 144.22 C 154.93 144.16 154.22 144.76 154.16 145.57 C 154.10 146.38 154.70 147.09 155.51 147.15 Z M 156.40 147.21 L 157.39 147.35 C 158.18 147.46 158.92 146.91 159.03 146.11 C 159.15 145.31 158.59 144.58 157.80 144.46 L 156.81 144.32 C 156.01 144.21 155.28 144.76 155.16 145.56 C 155.05 146.35 155.60 147.09 156.40 147.21 Z M 157.24 147.30 L 158.21 147.54 C 158.98 147.74 159.77 147.26 159.96 146.49 C 160.15 145.72 159.68 144.93 158.90 144.74 L 157.94 144.50 C 157.16 144.31 156.38 144.78 156.19 145.56 C 156.00 146.33 156.47 147.11 157.24 147.30 Z M 158.06 147.49 L 158.98 147.83 C 159.72 148.10 160.55 147.73 160.82 146.98 C 161.10 146.24 160.72 145.41 159.98 145.14 L 159.06 144.80 C 158.31 144.52 157.49 144.90 157.21 145.64 C 156.94 146.39 157.32 147.21 158.06 147.49 Z M 158.89 147.79 L 159.81 148.20 C 160.53 148.53 161.38 148.20 161.70 147.48 C 162.03 146.76 161.71 145.92 160.98 145.59 L 160.06 145.18 C 159.34 144.86 158.50 145.18 158.17 145.90 C 157.85 146.62 158.17 147.47 158.89 147.79 Z M 159.79 148.19 L 160.16 148.36 C 160.88 148.70 161.73 148.40 162.06 147.68 C 162.40 146.97 162.10 146.12 161.38 145.79 L 161.01 145.61 C 160.30 145.27 159.45 145.58 159.11 146.29 C 158.77 147.00 159.08 147.85 159.79 148.19 Z"
      fill="black"
      fill-rule="nonzero" /><path d="M 144.67 154.01 L 143.86 154.85 C 143.29 155.44 143.31 156.39 143.90 156.96 C 144.50 157.53 145.44 157.52 146.02 156.92 L 146.82 156.09 C 147.39 155.49 147.38 154.55 146.78 153.98 C 146.19 153.40 145.24 153.42 144.67 154.01 Z M 143.50 156.41 L 143.67 156.87 C 143.96 157.66 144.84 158.07 145.63 157.78 C 146.43 157.49 146.84 156.61 146.55 155.82 L 146.38 155.36 C 146.09 154.57 145.21 154.16 144.41 154.45 C 143.62 154.74 143.21 155.62 143.50 156.41 Z M 145.00 157.89 L 146.06 157.97 C 146.92 158.03 147.66 157.38 147.72 156.53 C 147.78 155.67 147.14 154.93 146.28 154.87 L 145.22 154.79 C 144.36 154.73 143.62 155.38 143.56 156.23 C 143.50 157.09 144.14 157.83 145.00 157.89 Z M 146.25 157.98 L 147.34 157.93 C 148.20 157.89 148.86 157.16 148.82 156.29 C 148.78 155.43 148.05 154.77 147.19 154.81 L 146.10 154.86 C 145.24 154.90 144.57 155.63 144.61 156.49 C 144.65 157.35 145.38 158.02 146.25 157.98 Z M 147.38 157.92 L 148.37 157.85 C 149.23 157.79 149.88 157.04 149.81 156.18 C 149.75 155.32 149.01 154.68 148.15 154.74 L 147.15 154.81 C 146.29 154.87 145.65 155.62 145.71 156.48 C 145.77 157.34 146.52 157.98 147.38 157.92 Z M 148.37 157.85 L 149.33 157.78 C 150.19 157.72 150.84 156.97 150.78 156.12 C 150.72 155.26 149.97 154.61 149.11 154.67 L 148.15 154.74 C 147.29 154.80 146.65 155.55 146.71 156.41 C 146.77 157.26 147.51 157.91 148.37 157.85 Z M 149.31 157.77 L 150.26 157.72 C 151.11 157.68 151.77 156.94 151.72 156.09 C 151.67 155.24 150.94 154.58 150.09 154.63 L 149.14 154.68 C 148.28 154.73 147.63 155.46 147.68 156.31 C 147.72 157.17 148.45 157.82 149.31 157.77 Z M 150.23 157.71 L 151.29 157.68 C 152.14 157.65 152.80 156.94 152.77 156.09 C 152.74 155.24 152.03 154.57 151.18 154.60 L 150.12 154.64 C 149.27 154.66 148.61 155.38 148.63 156.23 C 148.66 157.08 149.38 157.74 150.23 157.71 Z M 151.26 157.67 L 152.26 157.66 C 153.10 157.64 153.78 156.95 153.77 156.10 C 153.75 155.25 153.06 154.58 152.21 154.59 L 151.21 154.61 C 150.36 154.62 149.69 155.32 149.70 156.16 C 149.71 157.01 150.41 157.68 151.26 157.67 Z M 152.22 157.65 L 153.24 157.66 C 154.09 157.66 154.77 156.99 154.78 156.14 C 154.79 155.30 154.11 154.61 153.27 154.61 L 152.25 154.60 C 151.40 154.59 150.71 155.27 150.71 156.11 C 150.70 156.95 151.38 157.64 152.22 157.65 Z M 153.19 157.65 L 154.20 157.69 C 155.04 157.73 155.75 157.08 155.78 156.24 C 155.82 155.40 155.17 154.69 154.33 154.66 L 153.32 154.61 C 152.48 154.58 151.77 155.23 151.74 156.07 C 151.70 156.91 152.35 157.61 153.19 157.65 Z M 154.12 157.68 L 155.17 157.78 C 156.00 157.86 156.74 157.26 156.82 156.43 C 156.91 155.60 156.30 154.86 155.47 154.78 L 154.42 154.67 C 153.59 154.59 152.85 155.20 152.77 156.02 C 152.68 156.85 153.29 157.59 154.12 157.68 Z M 155.04 157.74 L 156.03 157.93 C 156.84 158.09 157.62 157.56 157.78 156.75 C 157.93 155.94 157.40 155.16 156.59 155.01 L 155.60 154.82 C 154.79 154.66 154.01 155.19 153.86 156.00 C 153.71 156.81 154.24 157.59 155.04 157.74 Z M 155.88 157.87 L 156.75 158.14 C 157.53 158.39 158.35 157.96 158.59 157.18 C 158.83 156.41 158.40 155.59 157.63 155.34 L 156.75 155.07 C 155.98 154.83 155.16 155.26 154.91 156.03 C 154.67 156.81 155.10 157.63 155.88 157.87 Z M 156.58 158.06 L 157.50 158.49 C 158.23 158.83 159.09 158.51 159.43 157.79 C 159.76 157.06 159.45 156.20 158.72 155.86 L 157.80 155.43 C 157.08 155.09 156.21 155.41 155.88 156.13 C 155.54 156.86 155.85 157.72 156.58 158.06 Z M 157.39 158.41 L 158.24 158.91 C 158.92 159.31 159.80 159.08 160.20 158.40 C 160.60 157.71 160.37 156.83 159.69 156.43 L 158.84 155.93 C 158.15 155.53 157.27 155.76 156.87 156.45 C 156.47 157.13 156.70 158.01 157.39 158.41 Z M 158.21 158.89 L 158.37 158.99 C 159.04 159.40 159.92 159.19 160.34 158.52 C 160.75 157.85 160.54 156.97 159.87 156.55 L 159.71 156.46 C 159.04 156.04 158.16 156.25 157.75 156.92 C 157.33 157.59 157.54 158.47 158.21 158.89 Z"
      fill="black"
      fill-rule="nonzero" /><path d="M 140.22 169.13 L 139.30 169.13 C 138.44 169.12 137.73 169.81 137.72 170.68 C 137.72 171.54 138.41 172.25 139.28 172.25 L 140.19 172.26 C 141.05 172.27 141.76 171.58 141.77 170.71 C 141.77 169.85 141.08 169.14 140.22 169.13 Z M 139.34 172.29 L 139.96 172.27 C 140.84 172.24 141.53 171.50 141.50 170.62 C 141.47 169.73 140.73 169.04 139.85 169.07 L 139.23 169.09 C 138.35 169.12 137.66 169.86 137.69 170.74 C 137.72 171.63 138.46 172.32 139.34 172.29 Z M 139.96 172.29 L 141.24 172.24 C 142.13 172.21 142.83 171.47 142.80 170.57 C 142.77 169.68 142.02 168.98 141.13 169.01 L 139.85 169.05 C 138.96 169.08 138.26 169.83 138.29 170.72 C 138.32 171.62 139.06 172.32 139.96 172.29 Z M 141.25 172.25 L 142.33 172.21 C 143.23 172.17 143.93 171.41 143.89 170.52 C 143.85 169.62 143.10 168.92 142.20 168.96 L 141.12 169.00 C 140.22 169.04 139.52 169.80 139.56 170.69 C 139.60 171.59 140.35 172.29 141.25 172.25 Z M 142.34 172.21 L 143.39 172.16 C 144.29 172.11 144.98 171.35 144.94 170.46 C 144.90 169.56 144.14 168.87 143.24 168.91 L 142.19 168.96 C 141.29 169.00 140.60 169.76 140.64 170.66 C 140.69 171.56 141.45 172.25 142.34 172.21 Z M 143.40 172.15 L 144.39 172.10 C 145.29 172.05 145.97 171.29 145.93 170.39 C 145.88 169.50 145.12 168.81 144.22 168.86 L 143.23 168.91 C 142.34 168.96 141.65 169.73 141.70 170.62 C 141.75 171.51 142.51 172.20 143.40 172.15 Z M 144.41 172.09 L 145.43 172.03 C 146.32 171.97 146.99 171.21 146.94 170.32 C 146.88 169.43 146.12 168.75 145.23 168.81 L 144.21 168.87 C 143.32 168.93 142.64 169.69 142.70 170.58 C 142.75 171.47 143.52 172.14 144.41 172.09 Z M 145.44 172.01 L 146.40 171.94 C 147.27 171.88 147.93 171.11 147.87 170.24 C 147.81 169.36 147.05 168.70 146.17 168.76 L 145.21 168.83 C 144.34 168.89 143.68 169.65 143.74 170.53 C 143.80 171.41 144.56 172.07 145.44 172.01 Z M 146.38 171.92 L 147.28 171.86 C 148.15 171.81 148.81 171.06 148.76 170.19 C 148.70 169.32 147.95 168.66 147.08 168.72 L 146.18 168.78 C 145.31 168.83 144.66 169.58 144.71 170.45 C 144.77 171.32 145.51 171.98 146.38 171.92 Z M 147.26 171.85 L 148.15 171.81 C 149.02 171.77 149.68 171.04 149.64 170.17 C 149.60 169.31 148.87 168.64 148.00 168.68 L 147.11 168.73 C 146.25 168.77 145.58 169.50 145.62 170.37 C 145.66 171.23 146.40 171.90 147.26 171.85 Z M 148.13 171.81 L 149.18 171.78 C 150.05 171.75 150.72 171.02 150.69 170.16 C 150.66 169.30 149.94 168.62 149.08 168.65 L 148.03 168.68 C 147.16 168.71 146.49 169.44 146.51 170.30 C 146.54 171.16 147.27 171.84 148.13 171.81 Z M 149.16 171.77 L 150.26 171.75 C 151.12 171.73 151.81 171.02 151.79 170.16 C 151.77 169.30 151.06 168.61 150.20 168.63 L 149.10 168.65 C 148.24 168.67 147.55 169.38 147.57 170.24 C 147.59 171.11 148.30 171.79 149.16 171.77 Z M 150.24 171.74 L 151.25 171.73 C 152.11 171.72 152.80 171.02 152.79 170.17 C 152.78 169.31 152.08 168.62 151.22 168.63 L 150.21 168.64 C 149.36 168.65 148.67 169.35 148.68 170.21 C 148.69 171.06 149.39 171.75 150.24 171.74 Z M 151.24 171.71 L 152.28 171.71 C 153.12 171.71 153.81 171.02 153.80 170.17 C 153.80 169.32 153.11 168.64 152.26 168.64 L 151.23 168.65 C 150.39 168.65 149.70 169.34 149.71 170.19 C 149.71 171.03 150.40 171.72 151.24 171.71 Z M 152.27 171.69 L 153.27 171.69 C 154.11 171.69 154.78 171.01 154.78 170.17 C 154.78 169.34 154.10 168.66 153.26 168.66 L 152.27 168.66 C 151.43 168.66 150.75 169.34 150.75 170.18 C 150.75 171.02 151.43 171.69 152.27 171.69 Z M 153.27 171.68 L 154.33 171.68 C 155.16 171.68 155.83 171.00 155.83 170.18 C 155.83 169.35 155.16 168.68 154.33 168.68 L 153.27 168.68 C 152.44 168.68 151.77 169.35 151.77 170.18 C 151.77 171.00 152.44 171.68 153.27 171.68 Z M 154.33 171.65 L 155.37 171.65 C 156.18 171.65 156.85 170.99 156.85 170.18 C 156.85 169.36 156.18 168.70 155.37 168.70 L 154.33 168.70 C 153.52 168.70 152.85 169.36 152.85 170.18 C 152.85 170.99 153.52 171.65 154.33 171.65 Z M 155.37 171.63 L 156.28 171.63 C 157.09 171.63 157.74 170.98 157.74 170.18 C 157.74 169.37 157.09 168.72 156.28 168.72 L 155.37 168.72 C 154.56 168.72 153.91 169.37 153.91 170.18 C 153.91 170.98 154.56 171.63 155.37 171.63 Z M 156.28 171.62 L 157.27 171.62 C 158.07 171.62 158.71 170.97 158.71 170.18 C 158.71 169.38 158.07 168.73 157.27 168.73 L 156.28 168.73 C 155.49 168.73 154.84 169.38 154.84 170.18 C 154.84 170.97 155.49 171.62 156.28 171.62 Z M 157.27 171.61 L 158.26 171.61 C 159.05 171.61 159.69 170.97 159.69 170.18 C 159.69 169.38 159.05 168.74 158.26 168.74 L 157.27 168.74 C 156.48 168.74 155.84 169.38 155.84 170.18 C 155.84 170.97 156.48 171.61 157.27 171.61 Z M 158.26 171.60 L 158.86 171.60 C 159.65 171.60 160.29 170.96 160.29 170.18 C 160.29 169.39 159.65 168.75 158.86 168.75 L 158.26 168.75 C 157.47 168.75 156.83 169.39 156.83 170.18 C 156.83 170.96 157.47 171.60 158.26 171.60 Z"
      fill="black"
      fill-rule="nonzero" /></svg>