<svg xmlns="http://www.w3.org/2000/svg" width="300" height="300" viewBox="0 0 300 300">
<path d="M 145.91 130.41 L 146.51 129.31 C 146.90 128.60 146.64 127.71 145.93 127.32 C 145.22 126.93 144.32 127.19 143.93 127.90 L 143.33 128.99 C 142.94 129.70 143.20 130.60 143.91 130.99 C 144.62 131.38 145.52 131.12 145.91 130.41 Z M 146.10 129.82 L 146.52 129.51 C 147.19 129.02 147.34 128.09 146.85 127.42 C 146.36 126.75 145.42 126.60 144.76 127.09 L 144.34 127.40 C 143.67 127.88 143.52 128.82 144.01 129.49 C 144.50 130.16 145.44 130.30 146.10 129.82 Z M 144.12 128.46 L 144.21 129.38 C 144.30 130.22 145.06 130.82 145.90 130.73 C 146.74 130.64 147.35 129.89 147.26 129.05 L 147.16 128.14 C 147.07 127.30 146.32 126.69 145.48 126.78 C 144.64 126.87 144.03 127.62 144.12 128.46 Z M 144.19 129.00 L 144.03 130.18 C 143.92 131.03 144.52 131.82 145.37 131.93 C 146.22 132.05 147.00 131.45 147.12 130.60 L 147.28 129.42 C 147.39 128.57 146.80 127.79 145.94 127.67 C 145.09 127.55 144.31 128.15 144.19 129.00 Z M 144.06 130.02 L 143.81 131.02 C 143.61 131.86 144.12 132.70 144.96 132.91 C 145.80 133.11 146.65 132.60 146.85 131.76 L 147.10 130.76 C 147.30 129.92 146.79 129.07 145.95 128.87 C 145.11 128.66 144.26 129.18 144.06 130.02 Z M 143.83 130.95 L 143.55 131.89 C 143.31 132.73 143.78 133.60 144.61 133.84 C 145.45 134.08 146.32 133.61 146.56 132.78 L 146.84 131.83 C 147.08 131.00 146.61 130.13 145.77 129.88 C 144.94 129.64 144.07 130.12 143.83 130.95 Z M 143.56 131.86 L 143.26 132.82 C 143.00 133.65 143.46 134.53 144.28 134.79 C 145.11 135.05 145.99 134.59 146.25 133.77 L 146.55 132.81 C 146.81 131.98 146.35 131.10 145.53 130.84 C 144.70 130.58 143.82 131.04 143.56 131.86 Z M 143.27 132.78 L 142.96 133.68 C 142.68 134.50 143.11 135.39 143.93 135.67 C 144.75 135.96 145.65 135.52 145.93 134.70 L 146.24 133.81 C 146.52 132.99 146.08 132.09 145.26 131.81 C 144.45 131.53 143.55 131.97 143.27 132.78 Z M 142.97 133.64 L 142.62 134.59 C 142.32 135.40 142.74 136.30 143.55 136.60 C 144.36 136.91 145.26 136.49 145.56 135.68 L 145.91 134.74 C 146.22 133.93 145.80 133.02 144.99 132.72 C 144.18 132.42 143.28 132.83 142.97 133.64 Z M 142.63 134.56 L 142.27 135.49 C 141.96 136.29 142.36 137.20 143.17 137.52 C 143.97 137.83 144.88 137.43 145.20 136.63 L 145.55 135.70 C 145.87 134.90 145.47 133.99 144.66 133.67 C 143.86 133.36 142.95 133.76 142.63 134.56 Z M 142.28 135.48 L 141.90 136.42 C 141.58 137.23 141.98 138.14 142.78 138.46 C 143.58 138.78 144.50 138.39 144.82 137.58 L 145.19 136.63 C 145.51 135.83 145.12 134.92 144.31 134.60 C 143.51 134.28 142.60 134.67 142.28 135.48 Z M 141.90 136.42 L 141.53 137.34 C 141.21 138.14 141.60 139.06 142.41 139.38 C 143.21 139.70 144.12 139.31 144.45 138.50 L 144.81 137.58 C 145.14 136.78 144.75 135.87 143.94 135.55 C 143.14 135.22 142.23 135.61 141.90 136.42 Z M 141.55 137.31 L 141.15 138.24 C 140.82 139.03 141.19 139.95 141.98 140.29 C 142.78 140.63 143.70 140.26 144.04 139.46 L 144.43 138.53 C 144.77 137.74 144.40 136.82 143.60 136.48 C 142.81 136.14 141.89 136.51 141.55 137.31 Z M 141.18 138.19 L 140.76 139.09 C 140.39 139.87 140.73 140.81 141.51 141.17 C 142.30 141.54 143.23 141.20 143.60 140.41 L 144.02 139.51 C 144.38 138.73 144.04 137.80 143.26 137.43 C 142.47 137.06 141.54 137.40 141.18 138.19 Z M 140.77 139.06 L 140.33 139.96 C 139.95 140.73 140.26 141.67 141.04 142.06 C 141.82 142.44 142.75 142.12 143.14 141.34 L 143.58 140.44 C 143.96 139.67 143.64 138.73 142.87 138.35 C 142.09 137.96 141.15 138.28 140.77 139.06 Z M 140.34 139.95 L 139.89 140.84 C 139.50 141.61 139.81 142.55 140.58 142.94 C 141.35 143.33 142.29 143.02 142.68 142.24 L 143.13 141.36 C 143.52 140.58 143.21 139.64 142.44 139.25 C 141.66 138.87 140.72 139.18 140.34 139.95 Z M 139.90 140.82 L 139.43 141.71 C 139.04 142.48 139.33 143.42 140.10 143.82 C 140.87 144.22 141.81 143.92 142.21 143.15 L 142.67 142.26 C 143.07 141.50 142.77 140.55 142.01 140.15 C 141.24 139.76 140.30 140.05 139.90 140.82 Z M 139.45 141.69 L 138.97 142.56 C 138.56 143.32 138.84 144.27 139.60 144.68 C 140.35 145.09 141.30 144.81 141.71 144.05 L 142.19 143.18 C 142.60 142.42 142.32 141.47 141.57 141.06 C 140.81 140.65 139.86 140.93 139.45 141.69 Z M 138.99 142.53 L 138.49 143.40 C 138.06 144.15 138.32 145.10 139.07 145.53 C 139.81 145.96 140.76 145.70 141.19 144.96 L 141.69 144.09 C 142.12 143.34 141.87 142.39 141.12 141.96 C 140.38 141.53 139.42 141.79 138.99 142.53 Z M 138.52 143.37 L 137.99 144.22 C 137.55 144.96 137.78 145.91 138.51 146.36 C 139.24 146.81 140.20 146.58 140.65 145.84 L 141.17 144.99 C 141.62 144.26 141.39 143.30 140.65 142.85 C 139.92 142.40 138.96 142.63 138.52 143.37 Z M 138.01 144.20 L 137.48 145.04 C 137.01 145.76 137.23 146.72 137.95 147.18 C 138.67 147.64 139.63 147.43 140.09 146.71 L 140.63 145.87 C 141.09 145.15 140.88 144.19 140.16 143.73 C 139.43 143.26 138.47 143.48 138.01 144.20 Z M 137.49 145.02 L 136.98 145.78 C 136.51 146.50 136.71 147.46 137.42 147.93 C 138.13 148.40 139.09 148.21 139.57 147.50 L 140.07 146.73 C 140.55 146.02 140.35 145.06 139.64 144.58 C 138.93 144.11 137.97 144.31 137.49 145.02 Z M 137.01 145.75 L 136.42 146.59 C 135.93 147.29 136.10 148.25 136.79 148.74 C 137.49 149.23 138.46 149.07 138.95 148.37 L 139.54 147.53 C 140.03 146.83 139.86 145.87 139.16 145.38 C 138.47 144.89 137.50 145.05 137.01 145.75 Z M 136.45 146.55 L 135.85 147.36 C 135.34 148.04 135.47 149.00 136.16 149.51 C 136.84 150.03 137.80 149.89 138.31 149.21 L 138.92 148.40 C 139.43 147.72 139.29 146.76 138.61 146.25 C 137.93 145.74 136.96 145.87 136.45 146.55 Z M 135.91 147.29 L 135.26 148.06 C 134.71 148.71 134.79 149.68 135.44 150.23 C 136.09 150.77 137.06 150.69 137.61 150.04 L 138.26 149.27 C 138.80 148.62 138.72 147.65 138.07 147.11 C 137.42 146.56 136.45 146.64 135.91 147.29 Z M 135.37 147.95 L 134.63 148.66 C 134.02 149.25 134.00 150.22 134.59 150.83 C 135.17 151.44 136.15 151.46 136.76 150.87 L 137.50 150.15 C 138.11 149.57 138.13 148.60 137.54 147.99 C 136.95 147.38 135.98 147.36 135.37 147.95 Z M 134.83 148.51 L 133.99 149.08 C 133.30 149.56 133.12 150.51 133.60 151.20 C 134.08 151.90 135.03 152.08 135.72 151.60 L 136.56 151.03 C 137.25 150.55 137.43 149.60 136.95 148.90 C 136.47 148.21 135.52 148.03 134.83 148.51 Z M 134.23 148.96 L 133.32 149.37 C 132.56 149.72 132.22 150.62 132.57 151.38 C 132.92 152.15 133.83 152.48 134.59 152.13 L 135.49 151.72 C 136.25 151.37 136.59 150.47 136.24 149.71 C 135.89 148.94 134.99 148.61 134.23 148.96 Z M 133.48 149.32 L 132.53 149.64 C 131.74 149.90 131.31 150.75 131.58 151.54 C 131.84 152.33 132.69 152.76 133.48 152.50 L 134.43 152.18 C 135.22 151.92 135.65 151.07 135.39 150.28 C 135.12 149.49 134.27 149.06 133.48 149.32 Z M 132.59 149.63 L 132.02 149.79 C 131.22 150.02 130.76 150.86 130.99 151.65 C 131.22 152.45 132.05 152.91 132.85 152.68 L 133.43 152.51 C 134.22 152.28 134.68 151.45 134.45 150.65 C 134.22 149.85 133.39 149.40 132.59 149.63 Z"
      fill="black"
      fill-rule="nonzero" /><path d="M 142.94 140.33 L 143.87 140.56 C 144.67 140.77 145.48 140.29 145.69 139.49 C 145.89 138.69 145.41 137.88 144.61 137.68 L 143.67 137.44 C 142.88 137.24 142.07 137.72 141.86 138.51 C 141.66 139.31 142.14 140.12 142.94 140.33 Z M 143.94 140.62 L 144.93 140.82 C 145.76 140.98 146.56 140.45 146.73 139.62 C 146.89 138.79 146.36 137.98 145.53 137.82 L 144.54 137.62 C 143.71 137.46 142.91 137.99 142.74 138.82 C 142.58 139.65 143.11 140.46 143.94 140.62 Z M 145.06 140.87 L 146.08 140.98 C 146.94 141.07 147.71 140.45 147.80 139.60 C 147.89 138.74 147.27 137.97 146.42 137.88 L 145.40 137.77 C 144.54 137.68 143.77 138.29 143.68 139.15 C 143.59 140.00 144.21 140.77 145.06 140.87 Z M 146.19 140.99 L 147.21 141.03 C 148.08 141.07 148.80 140.39 148.84 139.53 C 148.87 138.67 148.20 137.94 147.34 137.91 L 146.31 137.87 C 145.45 137.83 144.72 138.50 144.69 139.37 C 144.65 140.23 145.33 140.96 146.19 140.99 Z M 147.27 141.03 L 148.24 141.04 C 149.11 141.04 149.81 140.35 149.82 139.49 C 149.82 138.63 149.13 137.92 148.27 137.92 L 147.29 137.91 C 146.42 137.90 145.72 138.60 145.72 139.46 C 145.71 140.32 146.40 141.02 147.27 141.03 Z M 148.26 141.03 L 149.29 141.03 C 150.15 141.03 150.85 140.34 150.85 139.48 C 150.85 138.62 150.15 137.92 149.29 137.92 L 148.26 137.92 C 147.39 137.92 146.70 138.62 146.70 139.48 C 146.70 140.34 147.39 141.03 148.26 141.03 Z M 149.29 141.03 L 150.26 141.03 C 151.11 141.03 151.81 140.33 151.81 139.48 C 151.81 138.62 151.11 137.92 150.26 137.92 L 149.29 137.92 C 148.43 137.92 147.74 138.62 147.74 139.48 C 147.74 140.33 148.43 141.03 149.29 141.03 Z M 150.26 141.03 L 151.23 141.03 C 152.08 141.03 152.78 140.33 152.78 139.48 C 152.78 138.62 152.08 137.92 151.23 137.92 L 150.26 137.92 C 149.40 137.92 148.70 138.62 148.70 139.48 C 148.70 140.33 149.40 141.03 150.26 141.03 Z M 151.23 141.03 L 152.24 141.03 C 153.09 141.03 153.79 140.33 153.79 139.48 C 153.79 138.62 153.09 137.93 152.24 137.93 L 151.23 137.93 C 150.37 137.93 149.68 138.62 149.68 139.48 C 149.68 140.33 150.37 141.03 151.23 141.03 Z M 152.24 141.03 L 153.25 141.03 C 154.10 141.03 154.80 140.33 154.80 139.48 C 154.80 138.62 154.10 137.93 153.25 137.93 L 152.24 137.93 C 151.38 137.93 150.69 138.62 150.69 139.48 C 150.69 140.33 151.38 141.03 152.24 141.03 Z M 153.24 141.03 L 154.24 141.03 C 155.09 141.03 155.79 140.34 155.79 139.49 C 155.79 138.63 155.10 137.93 154.25 137.93 L 153.25 137.93 C 152.40 137.92 151.70 138.62 151.70 139.47 C 151.69 140.33 152.39 141.02 153.24 141.03 Z M 154.22 141.03 L 155.23 141.04 C 156.08 141.05 156.78 140.37 156.79 139.51 C 156.80 138.66 156.12 137.96 155.26 137.94 L 154.26 137.93 C 153.41 137.92 152.71 138.61 152.69 139.46 C 152.68 140.32 153.37 141.02 154.22 141.03 Z M 155.21 141.04 L 156.21 141.06 C 157.06 141.08 157.77 140.41 157.79 139.56 C 157.81 138.70 157.14 137.99 156.28 137.97 L 155.28 137.95 C 154.43 137.93 153.72 138.60 153.70 139.45 C 153.68 140.31 154.35 141.02 155.21 141.04 Z M 156.19 141.06 L 157.19 141.10 C 158.04 141.13 158.76 140.46 158.79 139.61 C 158.82 138.76 158.15 138.04 157.30 138.01 L 156.30 137.98 C 155.45 137.94 154.73 138.61 154.70 139.46 C 154.67 140.31 155.34 141.03 156.19 141.06 Z M 157.17 141.09 L 158.19 141.14 C 159.04 141.18 159.76 140.52 159.80 139.68 C 159.84 138.83 159.18 138.11 158.33 138.07 L 157.32 138.02 C 156.47 137.98 155.75 138.63 155.71 139.48 C 155.67 140.33 156.32 141.05 157.17 141.09 Z M 158.16 141.13 L 159.15 141.20 C 160.00 141.25 160.73 140.61 160.78 139.77 C 160.84 138.92 160.20 138.19 159.35 138.14 L 158.36 138.07 C 157.52 138.02 156.79 138.66 156.73 139.50 C 156.68 140.35 157.31 141.08 158.16 141.13 Z M 159.11 141.19 L 160.12 141.28 C 160.96 141.36 161.70 140.74 161.78 139.91 C 161.86 139.07 161.24 138.32 160.40 138.24 L 159.40 138.15 C 158.56 138.07 157.81 138.69 157.73 139.53 C 157.65 140.37 158.27 141.11 159.11 141.19 Z M 160.09 141.28 L 161.08 141.39 C 161.91 141.49 162.67 140.89 162.77 140.05 C 162.86 139.22 162.26 138.46 161.43 138.36 L 160.44 138.25 C 159.60 138.15 158.85 138.75 158.75 139.59 C 158.65 140.42 159.25 141.18 160.09 141.28 Z M 161.08 141.39 L 162.06 141.50 C 162.89 141.60 163.65 141.01 163.75 140.17 C 163.85 139.34 163.25 138.58 162.42 138.48 L 161.43 138.37 C 160.60 138.27 159.84 138.87 159.74 139.70 C 159.65 140.53 160.24 141.29 161.08 141.39 Z M 162.06 141.50 L 163.04 141.62 C 163.88 141.72 164.63 141.13 164.73 140.29 C 164.83 139.46 164.24 138.70 163.40 138.60 L 162.42 138.49 C 161.59 138.39 160.83 138.98 160.73 139.81 C 160.63 140.65 161.22 141.40 162.06 141.50 Z M 163.01 141.61 L 163.98 141.75 C 164.81 141.87 165.58 141.29 165.70 140.46 C 165.81 139.63 165.24 138.87 164.41 138.75 L 163.44 138.61 C 162.61 138.49 161.84 139.07 161.72 139.90 C 161.60 140.73 162.18 141.50 163.01 141.61 Z M 163.93 141.74 L 164.91 141.92 C 165.74 142.06 166.53 141.51 166.67 140.69 C 166.82 139.86 166.27 139.08 165.44 138.93 L 164.46 138.76 C 163.63 138.61 162.84 139.16 162.70 139.99 C 162.55 140.81 163.10 141.60 163.93 141.74 Z M 164.86 141.91 L 165.86 142.12 C 166.68 142.30 167.49 141.78 167.66 140.96 C 167.84 140.15 167.32 139.34 166.50 139.16 L 165.50 138.94 C 164.68 138.77 163.88 139.28 163.70 140.10 C 163.52 140.92 164.04 141.73 164.86 141.91 Z M 165.76 142.10 L 166.73 142.38 C 167.53 142.61 168.37 142.15 168.61 141.34 C 168.84 140.54 168.37 139.70 167.57 139.46 L 166.60 139.19 C 165.80 138.95 164.96 139.42 164.73 140.22 C 164.49 141.03 164.96 141.87 165.76 142.10 Z M 166.49 142.30 L 167.49 142.77 C 168.25 143.13 169.16 142.81 169.52 142.05 C 169.88 141.29 169.56 140.38 168.80 140.02 L 167.80 139.55 C 167.04 139.18 166.14 139.51 165.77 140.27 C 165.41 141.03 165.73 141.94 166.49 142.30 Z M 166.76 142.08 L 167.09 142.75 C 167.47 143.51 168.40 143.82 169.16 143.44 C 169.92 143.06 170.23 142.14 169.85 141.38 L 169.52 140.71 C 169.14 139.95 168.22 139.64 167.46 140.01 C 166.69 140.39 166.38 141.32 166.76 142.08 Z M 167.33 141.00 L 166.67 141.70 C 166.08 142.34 166.12 143.33 166.75 143.92 C 167.39 144.51 168.38 144.47 168.97 143.84 L 169.62 143.13 C 170.21 142.49 170.17 141.50 169.54 140.91 C 168.91 140.33 167.91 140.36 167.33 141.00 Z M 166.72 141.62 L 165.94 142.36 C 165.30 142.97 165.27 143.97 165.88 144.61 C 166.48 145.25 167.49 145.27 168.12 144.67 L 168.91 143.92 C 169.55 143.32 169.58 142.31 168.97 141.68 C 168.37 141.04 167.36 141.01 166.72 141.62 Z M 165.74 142.57 L 165.17 143.36 C 164.64 144.07 164.80 145.07 165.51 145.59 C 166.22 146.11 167.22 145.96 167.75 145.25 L 168.32 144.46 C 168.84 143.75 168.69 142.75 167.97 142.23 C 167.26 141.71 166.26 141.86 165.74 142.57 Z M 165.03 143.57 L 164.59 144.42 C 164.19 145.21 164.50 146.17 165.29 146.58 C 166.07 146.98 167.04 146.67 167.44 145.89 L 167.88 145.03 C 168.28 144.25 167.97 143.28 167.19 142.88 C 166.40 142.48 165.44 142.78 165.03 143.57 Z M 164.54 144.54 L 164.15 145.49 C 163.81 146.30 164.19 147.24 165.01 147.58 C 165.83 147.92 166.76 147.53 167.10 146.71 L 167.50 145.77 C 167.84 144.95 167.45 144.01 166.63 143.67 C 165.82 143.34 164.88 143.72 164.54 144.54 Z M 164.13 145.52 L 163.76 146.46 C 163.44 147.29 163.85 148.22 164.67 148.54 C 165.50 148.86 166.43 148.45 166.76 147.63 L 167.12 146.68 C 167.44 145.86 167.03 144.92 166.21 144.60 C 165.38 144.28 164.45 144.69 164.13 145.52 Z M 163.74 146.49 L 163.40 147.42 C 163.09 148.25 163.52 149.18 164.36 149.49 C 165.20 149.80 166.13 149.37 166.43 148.53 L 166.77 147.60 C 167.08 146.76 166.65 145.84 165.81 145.53 C 164.98 145.22 164.05 145.65 163.74 146.49 Z M 163.39 147.44 L 163.07 148.35 C 162.78 149.20 163.23 150.12 164.07 150.41 C 164.91 150.70 165.84 150.26 166.13 149.41 L 166.45 148.50 C 166.74 147.66 166.29 146.74 165.45 146.44 C 164.60 146.15 163.68 146.60 163.39 147.44 Z M 163.07 148.35 L 162.74 149.28 C 162.45 150.13 162.89 151.05 163.74 151.35 C 164.58 151.64 165.51 151.20 165.80 150.35 L 166.13 149.42 C 166.43 148.57 165.98 147.65 165.14 147.35 C 164.29 147.06 163.37 147.50 163.07 148.35 Z M 162.75 149.27 L 162.42 150.16 C 162.12 151.00 162.55 151.93 163.39 152.24 C 164.24 152.54 165.17 152.11 165.47 151.27 L 165.80 150.37 C 166.10 149.53 165.67 148.60 164.83 148.30 C 163.98 147.99 163.05 148.42 162.75 149.27 Z M 162.43 150.14 L 162.05 151.13 C 161.74 151.97 162.16 152.91 163.00 153.22 C 163.83 153.54 164.77 153.12 165.09 152.28 L 165.46 151.29 C 165.78 150.45 165.36 149.51 164.52 149.20 C 163.68 148.88 162.75 149.30 162.43 150.14 Z M 162.06 151.11 L 161.68 152.07 C 161.35 152.91 161.75 153.85 162.59 154.18 C 163.42 154.51 164.36 154.11 164.69 153.27 L 165.08 152.31 C 165.41 151.47 165.00 150.53 164.17 150.20 C 163.34 149.87 162.39 150.27 162.06 151.11 Z M 161.69 152.05 L 161.30 152.98 C 160.95 153.81 161.34 154.76 162.17 155.11 C 163.00 155.45 163.95 155.06 164.29 154.23 L 164.68 153.30 C 165.03 152.47 164.64 151.52 163.81 151.18 C 162.98 150.83 162.03 151.22 161.69 152.05 Z M 161.31 152.96 L 160.91 153.88 C 160.55 154.70 160.92 155.65 161.74 156.01 C 162.56 156.37 163.52 156.00 163.88 155.18 L 164.28 154.26 C 164.64 153.44 164.27 152.48 163.45 152.12 C 162.63 151.76 161.67 152.14 161.31 152.96 Z M 160.92 153.84 L 160.49 154.77 C 160.11 155.58 160.47 156.55 161.28 156.93 C 162.09 157.30 163.06 156.95 163.43 156.14 L 163.86 155.21 C 164.24 154.40 163.89 153.43 163.08 153.06 C 162.26 152.68 161.30 153.03 160.92 153.84 Z M 160.51 154.73 L 160.05 155.65 C 159.65 156.46 159.98 157.43 160.78 157.83 C 161.59 158.23 162.56 157.90 162.96 157.10 L 163.41 156.18 C 163.81 155.37 163.49 154.40 162.68 154.00 C 161.88 153.60 160.91 153.93 160.51 154.73 Z M 160.07 155.61 L 159.62 156.46 C 159.20 157.25 159.50 158.23 160.29 158.65 C 161.08 159.08 162.06 158.78 162.48 157.99 L 162.94 157.14 C 163.36 156.35 163.06 155.37 162.27 154.94 C 161.48 154.52 160.50 154.82 160.07 155.61 Z M 159.65 156.41 L 159.18 157.23 C 158.73 158.01 159.00 159.00 159.77 159.44 C 160.55 159.89 161.54 159.62 161.99 158.85 L 162.46 158.03 C 162.90 157.26 162.64 156.27 161.86 155.82 C 161.08 155.37 160.09 155.64 159.65 156.41 Z M 159.21 157.18 L 158.70 158.00 C 158.23 158.76 158.46 159.75 159.21 160.23 C 159.97 160.70 160.97 160.47 161.44 159.71 L 161.95 158.90 C 162.43 158.14 162.20 157.14 161.44 156.67 C 160.68 156.20 159.69 156.42 159.21 157.18 Z M 158.74 157.95 L 158.14 158.84 C 157.64 159.57 157.83 160.58 158.57 161.07 C 159.31 161.57 160.31 161.38 160.81 160.64 L 161.40 159.76 C 161.90 159.02 161.71 158.02 160.97 157.52 C 160.24 157.02 159.23 157.22 158.74 157.95 Z M 158.16 158.81 L 157.60 159.60 C 157.09 160.32 157.26 161.32 157.98 161.84 C 158.70 162.35 159.71 162.18 160.22 161.46 L 160.78 160.67 C 161.30 159.95 161.13 158.95 160.40 158.43 C 159.68 157.92 158.68 158.09 158.16 158.81 Z M 157.62 159.58 L 157.01 160.41 C 156.49 161.12 156.64 162.13 157.36 162.65 C 158.07 163.17 159.07 163.02 159.60 162.31 L 160.20 161.48 C 160.73 160.76 160.57 159.76 159.86 159.24 C 159.14 158.71 158.14 158.87 157.62 159.58 Z M 157.02 160.40 L 156.41 161.21 C 155.88 161.92 156.03 162.92 156.73 163.45 C 157.44 163.98 158.44 163.84 158.98 163.13 L 159.58 162.32 C 160.12 161.61 159.97 160.61 159.27 160.08 C 158.56 159.55 157.55 159.69 157.02 160.40 Z M 156.43 161.20 L 155.77 162.06 C 155.23 162.76 155.36 163.76 156.06 164.30 C 156.76 164.83 157.76 164.70 158.29 164.00 L 158.96 163.14 C 159.49 162.44 159.36 161.44 158.66 160.91 C 157.97 160.37 156.97 160.50 156.43 161.20 Z M 155.80 162.05 L 155.16 162.85 C 154.62 163.53 154.74 164.52 155.42 165.06 C 156.10 165.60 157.09 165.49 157.63 164.81 L 158.26 164.01 C 158.80 163.33 158.69 162.34 158.01 161.80 C 157.33 161.26 156.34 161.37 155.80 162.05 Z M 155.20 162.84 L 154.64 163.52 C 154.09 164.18 154.18 165.16 154.84 165.70 C 155.50 166.25 156.48 166.16 157.03 165.50 L 157.59 164.82 C 158.14 164.16 158.05 163.19 157.39 162.64 C 156.73 162.09 155.75 162.18 155.20 162.84 Z M 154.69 163.48 L 154.02 164.23 C 153.45 164.86 153.50 165.83 154.13 166.40 C 154.76 166.96 155.73 166.91 156.29 166.29 L 156.97 165.54 C 157.54 164.91 157.49 163.94 156.86 163.37 C 156.23 162.81 155.26 162.86 154.69 163.48 Z M 154.12 164.16 L 153.40 164.84 C 152.79 165.42 152.77 166.38 153.34 166.98 C 153.92 167.59 154.87 167.61 155.48 167.04 L 156.20 166.36 C 156.80 165.78 156.83 164.82 156.25 164.22 C 155.68 163.61 154.72 163.59 154.12 164.16 Z M 153.49 164.79 L 152.75 165.40 C 152.12 165.92 152.03 166.87 152.56 167.50 C 153.08 168.13 154.02 168.22 154.66 167.70 L 155.39 167.09 C 156.03 166.56 156.12 165.62 155.59 164.99 C 155.06 164.35 154.12 164.26 153.49 164.79 Z M 152.80 165.38 L 151.99 166.02 C 151.34 166.52 151.23 167.44 151.73 168.09 C 152.23 168.73 153.16 168.84 153.80 168.34 L 154.61 167.71 C 155.25 167.21 155.37 166.28 154.87 165.64 C 154.37 165.00 153.44 164.88 152.80 165.38 Z M 152.00 166.02 L 151.71 166.24 C 151.07 166.73 150.95 167.65 151.44 168.29 C 151.93 168.93 152.85 169.05 153.49 168.56 L 153.78 168.34 C 154.42 167.85 154.54 166.93 154.05 166.29 C 153.56 165.65 152.65 165.53 152.00 166.02 Z"
      fill="black"
      fill-rule="nonzero" /><path d="M 144.63 164.83 L 145.44 165.22 C 146.25 165.62 147.22 165.28 147.61 164.48 C 148.01 163.67 147.67 162.70 146.87 162.31 L 146.06 161.91 C 145.25 161.52 144.28 161.85 143.89 162.66 C 143.49 163.46 143.83 164.43 144.63 164.83 Z M 145.51 165.26 L 146.44 165.66 C 147.27 166.02 148.22 165.63 148.58 164.81 C 148.93 163.98 148.55 163.03 147.73 162.67 L 146.80 162.27 C 145.97 161.91 145.01 162.30 144.66 163.12 C 144.30 163.95 144.68 164.91 145.51 165.26 Z M 146.54 165.70 L 147.52 166.05 C 148.37 166.35 149.30 165.91 149.60 165.06 C 149.90 164.21 149.46 163.28 148.61 162.98 L 147.63 162.63 C 146.78 162.33 145.85 162.77 145.55 163.62 C 145.25 164.47 145.69 165.40 146.54 165.70 Z M 147.58 166.07 L 148.52 166.36 C 149.38 166.63 150.30 166.15 150.56 165.29 C 150.83 164.43 150.35 163.52 149.49 163.25 L 148.55 162.96 C 147.69 162.69 146.78 163.17 146.51 164.03 C 146.24 164.89 146.72 165.80 147.58 166.07 Z M 148.55 166.37 L 149.55 166.66 C 150.41 166.91 151.31 166.42 151.56 165.55 C 151.82 164.69 151.32 163.79 150.46 163.54 L 149.46 163.24 C 148.60 162.99 147.70 163.49 147.45 164.35 C 147.19 165.21 147.69 166.12 148.55 166.37 Z M 149.55 166.66 L 150.53 166.94 C 151.39 167.19 152.29 166.70 152.54 165.83 C 152.79 164.97 152.30 164.07 151.44 163.82 L 150.45 163.54 C 149.59 163.29 148.69 163.78 148.44 164.65 C 148.19 165.51 148.69 166.41 149.55 166.66 Z M 150.52 166.94 L 151.60 167.26 C 152.45 167.52 153.36 167.03 153.62 166.18 C 153.88 165.32 153.39 164.41 152.53 164.16 L 151.45 163.83 C 150.59 163.57 149.69 164.06 149.43 164.91 C 149.17 165.77 149.66 166.68 150.52 166.94 Z M 151.57 167.25 L 152.53 167.56 C 153.38 167.83 154.30 167.36 154.57 166.51 C 154.84 165.65 154.37 164.74 153.52 164.47 L 152.56 164.16 C 151.70 163.89 150.79 164.36 150.52 165.22 C 150.25 166.07 150.72 166.98 151.57 167.25 Z M 152.51 167.55 L 153.33 167.82 C 154.17 168.11 155.09 167.65 155.38 166.81 C 155.66 165.96 155.21 165.04 154.36 164.76 L 153.54 164.48 C 152.69 164.20 151.78 164.65 151.49 165.50 C 151.21 166.34 151.66 167.26 152.51 167.55 Z M 153.29 167.81 L 154.30 168.17 C 155.14 168.48 156.07 168.04 156.37 167.20 C 156.67 166.36 156.24 165.44 155.40 165.13 L 154.39 164.77 C 153.55 164.47 152.63 164.90 152.32 165.74 C 152.02 166.58 152.45 167.51 153.29 167.81 Z M 154.28 168.17 L 155.14 168.49 C 155.98 168.80 156.91 168.38 157.22 167.54 C 157.53 166.70 157.11 165.77 156.27 165.46 L 155.41 165.14 C 154.58 164.82 153.64 165.25 153.33 166.09 C 153.02 166.93 153.45 167.86 154.28 168.17 Z M 155.16 168.49 L 156.03 168.81 C 156.87 169.11 157.79 168.68 158.09 167.84 C 158.40 167.00 157.96 166.07 157.13 165.77 L 156.25 165.45 C 155.42 165.15 154.49 165.58 154.19 166.42 C 153.88 167.26 154.32 168.19 155.16 168.49 Z M 156.02 168.79 L 157.02 169.17 C 157.86 169.48 158.78 169.05 159.09 168.22 C 159.40 167.39 158.98 166.47 158.14 166.16 L 157.14 165.78 C 156.31 165.47 155.38 165.90 155.07 166.73 C 154.76 167.56 155.18 168.48 156.02 168.79 Z M 157.00 169.15 L 157.91 169.51 C 158.73 169.83 159.66 169.42 159.98 168.60 C 160.30 167.77 159.89 166.85 159.07 166.52 L 158.16 166.17 C 157.34 165.85 156.41 166.26 156.09 167.08 C 155.77 167.91 156.18 168.83 157.00 169.15 Z M 157.90 169.50 L 158.86 169.88 C 159.69 170.20 160.61 169.80 160.94 168.98 C 161.26 168.16 160.86 167.23 160.04 166.91 L 159.08 166.53 C 158.26 166.21 157.33 166.61 157.00 167.43 C 156.68 168.25 157.08 169.18 157.90 169.50 Z M 158.87 169.88 L 159.86 170.27 C 160.68 170.59 161.61 170.19 161.93 169.37 C 162.25 168.54 161.85 167.62 161.02 167.30 L 160.03 166.91 C 159.21 166.59 158.29 166.99 157.96 167.81 C 157.64 168.63 158.05 169.56 158.87 169.88 Z M 159.85 170.26 L 160.82 170.65 C 161.63 170.98 162.56 170.59 162.89 169.77 C 163.22 168.95 162.82 168.02 162.01 167.69 L 161.04 167.30 C 160.22 166.97 159.29 167.37 158.96 168.19 C 158.63 169.01 159.03 169.93 159.85 170.26 Z M 160.73 170.62 L 161.55 171.01 C 162.35 171.38 163.30 171.04 163.68 170.25 C 164.05 169.45 163.71 168.50 162.92 168.12 L 162.09 167.73 C 161.30 167.35 160.35 167.69 159.97 168.49 C 159.59 169.29 159.93 170.24 160.73 170.62 Z M 161.36 170.88 L 162.21 171.45 C 162.94 171.94 163.93 171.74 164.41 171.01 C 164.90 170.28 164.70 169.30 163.97 168.81 L 163.11 168.24 C 162.38 167.76 161.40 167.95 160.91 168.68 C 160.43 169.41 160.63 170.40 161.36 170.88 Z M 162.10 171.35 L 162.48 171.67 C 163.16 172.22 164.15 172.11 164.70 171.44 C 165.25 170.77 165.14 169.77 164.47 169.23 L 164.09 168.91 C 163.41 168.36 162.42 168.46 161.87 169.14 C 161.32 169.81 161.42 170.80 162.10 171.35 Z"
      fill="black"
      fill-rule="nonzero" /></svg>