<svg xmlns="http://www.w3.org/2000/svg" width="300" height="300" viewBox="0 0 300 300">
<path d="M 138.13 132.59 L 137.14 133.11 C 136.40 133.49 136.11 134.40 136.49 135.14 C 136.87 135.88 137.78 136.17 138.52 135.79 L 139.52 135.27 C 140.26 134.89 140.55 133.98 140.17 133.24 C 139.78 132.50 138.87 132.21 138.13 132.59 Z M 137.25 135.91 L 137.75 136.11 C 138.56 136.43 139.48 136.03 139.80 135.23 C 140.12 134.42 139.72 133.50 138.91 133.18 L 138.41 132.98 C 137.60 132.66 136.69 133.06 136.37 133.87 C 136.05 134.67 136.44 135.59 137.25 135.91 Z M 138.33 136.25 L 139.44 136.25 C 140.32 136.26 141.04 135.54 141.05 134.66 C 141.05 133.77 140.34 133.05 139.45 133.05 L 138.34 133.04 C 137.45 133.04 136.73 133.75 136.73 134.64 C 136.73 135.52 137.44 136.25 138.33 136.25 Z M 139.44 136.26 L 140.46 136.26 C 141.35 136.26 142.07 135.54 142.07 134.65 C 142.07 133.76 141.35 133.04 140.46 133.04 L 139.44 133.04 C 138.55 133.04 137.83 133.76 137.83 134.65 C 137.83 135.54 138.55 136.26 139.44 136.26 Z M 140.46 136.26 L 141.41 136.27 C 142.30 136.27 143.02 135.55 143.03 134.66 C 143.03 133.76 142.31 133.04 141.41 133.04 L 140.46 133.04 C 139.57 133.04 138.85 133.76 138.85 134.65 C 138.85 135.54 139.57 136.26 140.46 136.26 Z M 141.39 136.27 L 142.43 136.28 C 143.32 136.29 144.05 135.58 144.06 134.69 C 144.07 133.80 143.36 133.07 142.47 133.05 L 141.43 133.04 C 140.54 133.03 139.81 133.74 139.80 134.63 C 139.79 135.52 140.50 136.25 141.39 136.27 Z M 142.39 136.28 L 143.38 136.31 C 144.27 136.34 145.02 135.64 145.05 134.75 C 145.08 133.86 144.38 133.12 143.49 133.09 L 142.50 133.05 C 141.61 133.03 140.86 133.72 140.83 134.61 C 140.81 135.50 141.50 136.25 142.39 136.28 Z M 143.36 136.31 L 144.35 136.36 C 145.25 136.40 146.00 135.71 146.04 134.82 C 146.08 133.93 145.40 133.18 144.51 133.13 L 143.51 133.09 C 142.62 133.05 141.87 133.73 141.83 134.62 C 141.78 135.51 142.47 136.27 143.36 136.31 Z M 144.35 136.36 L 145.39 136.41 C 146.29 136.46 147.04 135.77 147.09 134.88 C 147.13 133.99 146.45 133.23 145.56 133.19 L 144.51 133.13 C 143.62 133.09 142.86 133.77 142.82 134.67 C 142.77 135.56 143.46 136.31 144.35 136.36 Z M 145.40 136.41 L 146.45 136.46 C 147.34 136.50 148.09 135.81 148.14 134.92 C 148.18 134.03 147.49 133.28 146.60 133.24 L 145.55 133.19 C 144.66 133.15 143.90 133.83 143.86 134.72 C 143.82 135.61 144.51 136.37 145.40 136.41 Z M 146.45 136.45 L 147.45 136.50 C 148.34 136.54 149.09 135.85 149.13 134.96 C 149.17 134.07 148.48 133.32 147.59 133.28 L 146.59 133.24 C 145.71 133.20 144.95 133.89 144.92 134.78 C 144.88 135.66 145.57 136.42 146.45 136.45 Z M 147.45 136.49 L 148.46 136.54 C 149.35 136.57 150.09 135.89 150.13 135.00 C 150.17 134.12 149.49 133.37 148.60 133.33 L 147.59 133.29 C 146.71 133.25 145.96 133.94 145.92 134.82 C 145.88 135.70 146.57 136.45 147.45 136.49 Z M 148.45 136.53 L 149.42 136.57 C 150.30 136.61 151.05 135.94 151.09 135.06 C 151.13 134.18 150.46 133.43 149.58 133.39 L 148.61 133.34 C 147.73 133.30 146.98 133.98 146.94 134.86 C 146.90 135.74 147.58 136.48 148.45 136.53 Z M 149.41 136.56 L 150.36 136.62 C 151.24 136.67 151.99 136.00 152.04 135.13 C 152.09 134.26 151.42 133.51 150.55 133.46 L 149.59 133.40 C 148.72 133.35 147.97 134.01 147.92 134.89 C 147.87 135.76 148.53 136.51 149.41 136.56 Z M 150.34 136.61 L 151.34 136.69 C 152.21 136.76 152.97 136.10 153.04 135.23 C 153.10 134.36 152.45 133.61 151.58 133.54 L 150.58 133.46 C 149.71 133.40 148.95 134.05 148.88 134.92 C 148.82 135.79 149.47 136.55 150.34 136.61 Z M 151.30 136.69 L 152.31 136.79 C 153.18 136.88 153.96 136.24 154.04 135.38 C 154.13 134.51 153.50 133.73 152.63 133.64 L 151.62 133.54 C 150.75 133.45 149.98 134.09 149.89 134.96 C 149.80 135.83 150.43 136.60 151.30 136.69 Z M 152.28 136.79 L 153.26 136.91 C 154.13 137.01 154.92 136.39 155.03 135.52 C 155.13 134.65 154.51 133.86 153.64 133.76 L 152.65 133.64 C 151.78 133.54 151.00 134.16 150.89 135.03 C 150.79 135.90 151.41 136.69 152.28 136.79 Z M 153.26 136.91 L 154.25 137.03 C 155.12 137.13 155.91 136.51 156.02 135.64 C 156.12 134.77 155.50 133.98 154.63 133.88 L 153.64 133.76 C 152.77 133.65 151.98 134.27 151.87 135.14 C 151.77 136.01 152.39 136.80 153.26 136.91 Z M 154.25 137.02 L 155.25 137.14 C 156.12 137.25 156.90 136.63 157.01 135.76 C 157.11 134.89 156.49 134.11 155.63 134.00 L 154.63 133.88 C 153.76 133.78 152.98 134.40 152.87 135.26 C 152.77 136.13 153.39 136.92 154.25 137.02 Z M 155.25 137.14 L 156.24 137.26 C 157.10 137.36 157.89 136.75 157.99 135.88 C 158.10 135.02 157.48 134.23 156.62 134.13 L 155.63 134.01 C 154.76 133.90 153.98 134.52 153.87 135.38 C 153.77 136.25 154.38 137.03 155.25 137.14 Z M 156.24 137.25 L 157.16 137.36 C 158.02 137.47 158.80 136.86 158.91 136.00 C 159.01 135.14 158.40 134.36 157.54 134.25 L 156.62 134.13 C 155.76 134.03 154.98 134.64 154.87 135.50 C 154.77 136.36 155.38 137.14 156.24 137.25 Z M 157.15 137.35 L 158.21 137.49 C 159.06 137.61 159.85 137.00 159.96 136.15 C 160.07 135.29 159.47 134.51 158.61 134.40 L 157.55 134.26 C 156.70 134.14 155.91 134.75 155.80 135.60 C 155.69 136.46 156.29 137.24 157.15 137.35 Z M 158.19 137.49 L 159.13 137.62 C 159.98 137.74 160.77 137.15 160.89 136.30 C 161.01 135.45 160.42 134.66 159.57 134.54 L 158.63 134.40 C 157.78 134.28 156.99 134.87 156.87 135.72 C 156.75 136.58 157.34 137.36 158.19 137.49 Z M 159.07 137.61 L 160.09 137.79 C 160.94 137.95 161.75 137.39 161.90 136.54 C 162.05 135.70 161.49 134.89 160.65 134.73 L 159.63 134.55 C 158.78 134.40 157.97 134.96 157.82 135.80 C 157.67 136.65 158.23 137.46 159.07 137.61 Z M 159.97 137.78 L 161.03 138.06 C 161.87 138.28 162.73 137.78 162.95 136.94 C 163.17 136.11 162.67 135.25 161.83 135.03 L 160.77 134.75 C 159.93 134.53 159.07 135.03 158.86 135.87 C 158.64 136.70 159.13 137.56 159.97 137.78 Z M 160.78 138.01 L 161.73 138.43 C 162.54 138.79 163.48 138.43 163.85 137.62 C 164.21 136.81 163.84 135.86 163.03 135.50 L 162.09 135.08 C 161.28 134.72 160.33 135.08 159.97 135.89 C 159.61 136.70 159.97 137.65 160.78 138.01 Z M 161.14 138.06 L 161.70 138.68 C 162.30 139.37 163.35 139.43 164.03 138.83 C 164.71 138.22 164.77 137.18 164.17 136.49 L 163.62 135.87 C 163.01 135.19 161.97 135.13 161.28 135.73 C 160.60 136.34 160.54 137.38 161.14 138.06 Z M 161.26 137.57 L 161.25 138.54 C 161.24 139.46 161.98 140.22 162.90 140.23 C 163.83 140.24 164.58 139.50 164.59 138.58 L 164.60 137.61 C 164.61 136.68 163.87 135.93 162.95 135.92 C 162.03 135.91 161.27 136.65 161.26 137.57 Z M 161.28 138.22 L 161.09 139.17 C 160.91 140.07 161.49 140.96 162.40 141.14 C 163.30 141.32 164.18 140.74 164.37 139.83 L 164.56 138.89 C 164.74 137.99 164.16 137.10 163.26 136.92 C 162.35 136.74 161.47 137.32 161.28 138.22 Z M 161.09 139.17 L 160.89 140.17 C 160.70 141.08 161.29 141.96 162.19 142.15 C 163.10 142.33 163.98 141.75 164.16 140.84 L 164.37 139.84 C 164.55 138.93 163.97 138.05 163.06 137.86 C 162.16 137.68 161.28 138.26 161.09 139.17 Z M 160.89 140.16 L 160.67 141.18 C 160.48 142.09 161.06 142.97 161.96 143.17 C 162.86 143.36 163.75 142.78 163.94 141.88 L 164.16 140.85 C 164.35 139.95 163.78 139.06 162.87 138.87 C 161.97 138.68 161.08 139.26 160.89 140.16 Z M 160.68 141.17 L 160.45 142.17 C 160.25 143.07 160.82 143.97 161.72 144.17 C 162.63 144.36 163.52 143.80 163.72 142.89 L 163.94 141.89 C 164.14 140.99 163.57 140.10 162.67 139.90 C 161.77 139.70 160.88 140.27 160.68 141.17 Z M 160.46 142.16 L 160.23 143.14 C 160.03 144.04 160.59 144.93 161.49 145.14 C 162.39 145.34 163.28 144.78 163.49 143.88 L 163.71 142.91 C 163.92 142.01 163.36 141.11 162.46 140.91 C 161.56 140.70 160.66 141.26 160.46 142.16 Z M 160.24 143.12 L 160.00 144.10 C 159.79 145.00 160.34 145.90 161.24 146.11 C 162.13 146.33 163.04 145.78 163.25 144.88 L 163.49 143.90 C 163.70 143.00 163.15 142.10 162.25 141.89 C 161.35 141.67 160.45 142.22 160.24 143.12 Z M 160.01 144.08 L 159.78 145.00 C 159.55 145.89 160.09 146.80 160.99 147.03 C 161.88 147.25 162.79 146.71 163.02 145.81 L 163.25 144.90 C 163.47 144.00 162.93 143.10 162.03 142.87 C 161.14 142.65 160.23 143.19 160.01 144.08 Z M 159.78 144.98 L 159.52 145.94 C 159.29 146.84 159.82 147.75 160.71 147.99 C 161.60 148.22 162.52 147.69 162.76 146.80 L 163.01 145.83 C 163.25 144.94 162.72 144.03 161.83 143.79 C 160.93 143.55 160.02 144.08 159.78 144.98 Z M 159.53 145.91 L 159.26 146.86 C 159.00 147.75 159.51 148.67 160.40 148.93 C 161.29 149.19 162.21 148.68 162.47 147.79 L 162.75 146.84 C 163.00 145.95 162.49 145.02 161.61 144.77 C 160.72 144.51 159.79 145.02 159.53 145.91 Z M 159.27 146.83 L 158.97 147.78 C 158.69 148.66 159.19 149.60 160.07 149.87 C 160.95 150.15 161.89 149.66 162.16 148.78 L 162.46 147.82 C 162.74 146.94 162.25 146.00 161.36 145.73 C 160.48 145.45 159.54 145.94 159.27 146.83 Z M 158.97 147.76 L 158.67 148.72 C 158.39 149.60 158.87 150.54 159.75 150.82 C 160.63 151.10 161.57 150.62 161.85 149.74 L 162.16 148.79 C 162.44 147.91 161.96 146.97 161.08 146.68 C 160.20 146.40 159.26 146.89 158.97 147.76 Z M 158.68 148.70 L 158.36 149.65 C 158.07 150.52 158.54 151.47 159.41 151.76 C 160.29 152.05 161.24 151.58 161.53 150.71 L 161.85 149.76 C 162.14 148.88 161.67 147.94 160.79 147.64 C 159.92 147.35 158.97 147.82 158.68 148.70 Z M 158.38 149.61 L 158.03 150.57 C 157.72 151.44 158.17 152.39 159.03 152.71 C 159.90 153.02 160.85 152.57 161.17 151.70 L 161.51 150.74 C 161.82 149.88 161.38 148.92 160.51 148.61 C 159.64 148.30 158.69 148.75 158.38 149.61 Z M 158.05 150.53 L 157.69 151.45 C 157.35 152.31 157.77 153.27 158.62 153.61 C 159.48 153.95 160.44 153.53 160.78 152.67 L 161.14 151.75 C 161.48 150.89 161.06 149.93 160.21 149.59 C 159.35 149.25 158.39 149.67 158.05 150.53 Z M 157.71 151.42 L 157.32 152.35 C 156.96 153.19 157.35 154.16 158.20 154.52 C 159.04 154.87 160.01 154.48 160.37 153.64 L 160.76 152.71 C 161.12 151.87 160.72 150.89 159.88 150.54 C 159.04 150.18 158.06 150.58 157.71 151.42 Z M 157.34 152.32 L 156.93 153.22 C 156.56 154.05 156.94 155.03 157.77 155.40 C 158.60 155.77 159.57 155.40 159.94 154.57 L 160.35 153.66 C 160.72 152.83 160.34 151.86 159.51 151.49 C 158.68 151.11 157.71 151.49 157.34 152.32 Z M 156.96 153.20 L 156.53 154.10 C 156.15 154.92 156.50 155.89 157.32 156.28 C 158.14 156.66 159.11 156.31 159.49 155.49 L 159.92 154.59 C 160.30 153.77 159.95 152.80 159.13 152.41 C 158.32 152.03 157.34 152.38 156.96 153.20 Z M 156.56 154.08 L 156.11 154.98 C 155.72 155.78 156.05 156.76 156.85 157.15 C 157.66 157.55 158.63 157.22 159.03 156.42 L 159.47 155.52 C 159.87 154.71 159.54 153.74 158.73 153.34 C 157.93 152.95 156.95 153.28 156.56 154.08 Z M 156.14 154.96 L 155.69 155.84 C 155.28 156.63 155.59 157.60 156.38 158.00 C 157.17 158.41 158.14 158.10 158.55 157.31 L 159.00 156.44 C 159.41 155.64 159.10 154.67 158.31 154.27 C 157.52 153.86 156.55 154.17 156.14 154.96 Z M 155.71 155.82 L 155.23 156.71 C 154.81 157.49 155.11 158.46 155.88 158.87 C 156.66 159.29 157.63 159.00 158.05 158.22 L 158.53 157.33 C 158.94 156.55 158.65 155.58 157.87 155.16 C 157.10 154.75 156.13 155.04 155.71 155.82 Z M 155.25 156.69 L 154.76 157.56 C 154.34 158.33 154.61 159.30 155.38 159.73 C 156.15 160.16 157.12 159.88 157.54 159.11 L 158.03 158.24 C 158.46 157.47 158.18 156.50 157.41 156.08 C 156.64 155.65 155.68 155.92 155.25 156.69 Z M 154.77 157.54 L 154.28 158.40 C 153.84 159.17 154.10 160.14 154.86 160.58 C 155.62 161.02 156.60 160.76 157.04 160.00 L 157.53 159.13 C 157.97 158.37 157.71 157.40 156.95 156.96 C 156.19 156.52 155.21 156.78 154.77 157.54 Z M 154.29 158.38 L 153.76 159.25 C 153.31 160.00 153.56 160.98 154.31 161.44 C 155.07 161.89 156.05 161.65 156.50 160.89 L 157.03 160.02 C 157.48 159.27 157.24 158.28 156.48 157.83 C 155.72 157.38 154.74 157.62 154.29 158.38 Z M 153.78 159.22 L 153.26 160.05 C 152.79 160.80 153.01 161.79 153.76 162.26 C 154.51 162.73 155.50 162.50 155.97 161.75 L 156.49 160.92 C 156.96 160.17 156.73 159.18 155.99 158.71 C 155.24 158.24 154.25 158.47 153.78 159.22 Z M 153.27 160.02 L 152.73 160.85 C 152.25 161.59 152.46 162.59 153.20 163.07 C 153.94 163.55 154.94 163.34 155.42 162.60 L 155.96 161.78 C 156.44 161.03 156.23 160.04 155.49 159.56 C 154.75 159.07 153.75 159.28 153.27 160.02 Z M 152.74 160.83 L 152.17 161.68 C 151.68 162.41 151.87 163.41 152.61 163.91 C 153.34 164.40 154.34 164.21 154.84 163.47 L 155.41 162.62 C 155.90 161.89 155.71 160.89 154.97 160.39 C 154.24 159.90 153.24 160.09 152.74 160.83 Z M 152.19 161.66 L 151.61 162.49 C 151.11 163.22 151.29 164.21 152.02 164.72 C 152.74 165.22 153.74 165.04 154.24 164.32 L 154.82 163.49 C 155.32 162.76 155.14 161.76 154.42 161.26 C 153.69 160.75 152.69 160.94 152.19 161.66 Z M 151.64 162.48 L 151.05 163.31 C 150.55 164.02 150.71 165.01 151.42 165.51 C 152.13 166.02 153.12 165.86 153.63 165.15 L 154.22 164.32 C 154.72 163.61 154.56 162.62 153.85 162.11 C 153.14 161.61 152.15 161.77 151.64 162.48 Z M 151.09 163.30 L 150.49 164.11 C 149.97 164.80 150.12 165.78 150.82 166.29 C 151.51 166.80 152.49 166.66 153.00 165.96 L 153.60 165.15 C 154.11 164.46 153.96 163.48 153.27 162.97 C 152.58 162.46 151.60 162.60 151.09 163.30 Z M 150.52 164.09 L 149.91 164.89 C 149.39 165.57 149.51 166.53 150.18 167.05 C 150.86 167.57 151.83 167.45 152.35 166.78 L 152.96 165.98 C 153.48 165.30 153.36 164.34 152.69 163.81 C 152.01 163.29 151.04 163.42 150.52 164.09 Z M 149.95 164.87 L 149.30 165.66 C 148.77 166.31 148.87 167.27 149.52 167.80 C 150.17 168.34 151.13 168.24 151.66 167.59 L 152.31 166.80 C 152.84 166.15 152.74 165.19 152.09 164.65 C 151.44 164.12 150.48 164.22 149.95 164.87 Z M 149.34 165.63 L 148.70 166.37 C 148.15 167.00 148.22 167.95 148.85 168.50 C 149.47 169.05 150.43 168.98 150.98 168.36 L 151.62 167.61 C 152.17 166.98 152.10 166.03 151.48 165.48 C 150.85 164.93 149.89 165.00 149.34 165.63 Z M 148.74 166.34 L 148.07 167.06 C 147.51 167.67 147.54 168.62 148.15 169.18 C 148.75 169.74 149.70 169.71 150.26 169.10 L 150.93 168.38 C 151.50 167.78 151.46 166.83 150.86 166.27 C 150.25 165.70 149.30 165.74 148.74 166.34 Z M 148.11 167.03 L 147.40 167.75 C 146.82 168.33 146.83 169.27 147.41 169.85 C 147.99 170.43 148.94 170.43 149.51 169.84 L 150.22 169.13 C 150.80 168.55 150.80 167.61 150.22 167.03 C 149.63 166.45 148.69 166.45 148.11 167.03 Z M 147.44 167.72 L 146.72 168.41 C 146.12 168.97 146.10 169.91 146.66 170.50 C 147.22 171.09 148.16 171.12 148.75 170.56 L 149.48 169.87 C 150.07 169.31 150.10 168.37 149.53 167.78 C 148.97 167.18 148.04 167.16 147.44 167.72 Z M 146.75 168.38 L 146.01 169.05 C 145.40 169.59 145.35 170.52 145.89 171.13 C 146.43 171.74 147.36 171.79 147.97 171.25 L 148.72 170.58 C 149.32 170.04 149.38 169.11 148.83 168.50 C 148.29 167.89 147.36 167.84 146.75 168.38 Z M 146.04 169.02 L 145.27 169.67 C 144.65 170.19 144.57 171.12 145.10 171.74 C 145.62 172.36 146.54 172.44 147.17 171.92 L 147.93 171.27 C 148.55 170.75 148.63 169.82 148.11 169.20 C 147.59 168.58 146.66 168.50 146.04 169.02 Z M 145.31 169.65 L 144.53 170.26 C 143.90 170.76 143.79 171.68 144.29 172.32 C 144.79 172.95 145.71 173.06 146.34 172.56 L 147.13 171.94 C 147.76 171.44 147.87 170.52 147.37 169.89 C 146.87 169.25 145.95 169.15 145.31 169.65 Z M 144.58 170.23 L 143.77 170.83 C 143.12 171.30 142.98 172.22 143.45 172.87 C 143.93 173.52 144.84 173.66 145.49 173.18 L 146.30 172.59 C 146.95 172.11 147.09 171.20 146.62 170.55 C 146.14 169.90 145.23 169.76 144.58 170.23 Z M 143.81 170.80 L 142.98 171.37 C 142.31 171.82 142.14 172.73 142.60 173.39 C 143.05 174.06 143.95 174.23 144.62 173.77 L 145.45 173.21 C 146.11 172.75 146.29 171.85 145.83 171.18 C 145.38 170.52 144.47 170.35 143.81 170.80 Z M 143.02 171.34 L 142.18 171.88 C 141.51 172.31 141.31 173.21 141.74 173.88 C 142.17 174.56 143.07 174.76 143.75 174.33 L 144.58 173.80 C 145.26 173.37 145.46 172.47 145.02 171.79 C 144.59 171.11 143.69 170.91 143.02 171.34 Z M 142.22 171.85 L 141.35 172.37 C 140.66 172.78 140.44 173.67 140.85 174.36 C 141.26 175.05 142.15 175.28 142.84 174.87 L 143.71 174.35 C 144.40 173.94 144.63 173.05 144.21 172.36 C 143.80 171.67 142.91 171.44 142.22 171.85 Z M 141.38 172.35 L 140.51 172.85 C 139.82 173.24 139.57 174.13 139.97 174.83 C 140.36 175.53 141.25 175.77 141.95 175.38 L 142.82 174.88 C 143.52 174.49 143.76 173.60 143.36 172.90 C 142.97 172.20 142.08 171.96 141.38 172.35 Z M 140.53 172.84 L 139.90 173.19 C 139.19 173.58 138.94 174.47 139.33 175.17 C 139.72 175.87 140.61 176.12 141.31 175.73 L 141.94 175.38 C 142.64 174.99 142.90 174.11 142.50 173.40 C 142.11 172.70 141.23 172.45 140.53 172.84 Z"
      fill="black"
      fill-rule="nonzero" /></svg>