<svg xmlns="http://www.w3.org/2000/svg" width="300" height="300" viewBox="0 0 300 300">
<path d="M 143.81 133.41 L 143.81 132.54 C 143.81 131.76 143.17 131.12 142.38 131.12 C 141.59 131.12 140.95 131.76 140.95 132.54 L 140.95 133.41 C 140.95 134.20 141.59 134.83 142.38 134.83 C 143.17 134.83 143.81 134.20 143.81 133.41 Z"
      fill="black"
      fill-rule="nonzero" /><path d="M 140.59 134.92 L 141.47 135.24 C 142.27 135.54 143.16 135.13 143.46 134.33 C 143.76 133.53 143.35 132.64 142.55 132.34 L 141.67 132.01 C 140.87 131.71 139.97 132.12 139.68 132.92 C 139.38 133.72 139.79 134.62 140.59 134.92 Z M 141.79 135.34 L 142.78 135.48 C 143.63 135.60 144.43 135.01 144.55 134.15 C 144.67 133.30 144.08 132.51 143.22 132.38 L 142.23 132.24 C 141.38 132.12 140.58 132.71 140.46 133.57 C 140.34 134.42 140.93 135.22 141.79 135.34 Z M 143.06 135.50 L 144.01 135.46 C 144.87 135.43 145.55 134.70 145.51 133.83 C 145.48 132.97 144.75 132.30 143.89 132.33 L 142.94 132.37 C 142.07 132.40 141.40 133.13 141.43 133.99 C 141.47 134.86 142.20 135.53 143.06 135.50 Z M 144.14 135.44 L 145.22 135.30 C 146.08 135.20 146.68 134.41 146.57 133.56 C 146.46 132.71 145.68 132.10 144.83 132.21 L 143.75 132.35 C 142.90 132.46 142.29 133.24 142.40 134.09 C 142.51 134.95 143.29 135.55 144.14 135.44 Z M 145.30 135.29 L 146.33 135.10 C 147.18 134.95 147.74 134.15 147.59 133.30 C 147.44 132.46 146.63 131.89 145.79 132.04 L 144.75 132.23 C 143.91 132.38 143.35 133.18 143.50 134.03 C 143.65 134.87 144.45 135.44 145.30 135.29 Z M 146.37 135.09 L 147.38 134.89 C 148.22 134.72 148.76 133.89 148.58 133.06 C 148.41 132.22 147.59 131.67 146.75 131.85 L 145.75 132.05 C 144.91 132.23 144.37 133.05 144.54 133.89 C 144.71 134.73 145.53 135.27 146.37 135.09 Z M 147.40 134.88 L 148.34 134.67 C 149.17 134.49 149.70 133.66 149.51 132.83 C 149.33 131.99 148.50 131.46 147.67 131.65 L 146.73 131.85 C 145.89 132.04 145.37 132.87 145.55 133.70 C 145.74 134.54 146.56 135.06 147.40 134.88 Z M 148.34 134.66 L 149.38 134.42 C 150.20 134.23 150.72 133.41 150.53 132.58 C 150.34 131.76 149.52 131.24 148.69 131.43 L 147.66 131.66 C 146.83 131.85 146.32 132.68 146.51 133.50 C 146.69 134.33 147.52 134.85 148.34 134.66 Z M 149.39 134.40 L 150.29 134.18 C 151.10 133.98 151.60 133.16 151.40 132.35 C 151.21 131.54 150.39 131.04 149.57 131.24 L 148.68 131.45 C 147.87 131.65 147.37 132.47 147.56 133.28 C 147.76 134.09 148.58 134.59 149.39 134.40 Z M 150.30 134.16 L 151.27 133.92 C 152.07 133.71 152.55 132.89 152.35 132.09 C 152.15 131.29 151.33 130.80 150.53 131.01 L 149.56 131.25 C 148.76 131.46 148.27 132.27 148.48 133.08 C 148.68 133.88 149.50 134.37 150.30 134.16 Z M 151.27 133.91 L 152.24 133.66 C 153.04 133.45 153.52 132.64 153.31 131.84 C 153.11 131.04 152.29 130.56 151.49 130.76 L 150.52 131.02 C 149.72 131.22 149.24 132.04 149.45 132.84 C 149.66 133.63 150.47 134.11 151.27 133.91 Z M 152.23 133.65 L 153.20 133.41 C 153.99 133.21 154.48 132.40 154.27 131.60 C 154.07 130.80 153.26 130.32 152.46 130.52 L 151.50 130.77 C 150.70 130.97 150.22 131.78 150.42 132.58 C 150.63 133.38 151.44 133.86 152.23 133.65 Z M 153.19 133.40 L 154.17 133.16 C 154.96 132.96 155.45 132.16 155.25 131.36 C 155.05 130.57 154.25 130.09 153.45 130.28 L 152.47 130.53 C 151.68 130.73 151.20 131.53 151.39 132.32 C 151.59 133.12 152.40 133.60 153.19 133.40 Z M 154.15 133.15 L 155.13 132.92 C 155.92 132.73 156.41 131.94 156.22 131.15 C 156.03 130.36 155.24 129.87 154.45 130.06 L 153.47 130.29 C 152.69 130.48 152.20 131.27 152.38 132.06 C 152.57 132.85 153.36 133.34 154.15 133.15 Z M 155.09 132.91 L 156.02 132.72 C 156.81 132.56 157.32 131.79 157.15 131.00 C 156.99 130.22 156.22 129.71 155.44 129.87 L 154.50 130.07 C 153.71 130.23 153.21 131.00 153.37 131.78 C 153.53 132.57 154.30 133.07 155.09 132.91 Z M 155.94 132.72 L 156.91 132.58 C 157.70 132.46 158.24 131.73 158.13 130.94 C 158.01 130.16 157.28 129.61 156.49 129.73 L 155.52 129.87 C 154.73 129.99 154.19 130.72 154.30 131.51 C 154.42 132.29 155.15 132.84 155.94 132.72 Z M 156.83 132.58 L 157.81 132.50 C 158.60 132.43 159.18 131.73 159.11 130.94 C 159.04 130.15 158.35 129.57 157.56 129.64 L 156.58 129.73 C 155.79 129.80 155.21 130.49 155.28 131.28 C 155.34 132.07 156.04 132.65 156.83 132.58 Z M 157.77 132.50 L 158.76 132.44 C 159.55 132.39 160.15 131.72 160.11 130.93 C 160.06 130.14 159.39 129.54 158.60 129.58 L 157.60 129.64 C 156.81 129.69 156.21 130.36 156.26 131.15 C 156.30 131.94 156.98 132.54 157.77 132.50 Z M 158.75 132.44 L 159.81 132.39 C 160.60 132.35 161.20 131.68 161.17 130.90 C 161.13 130.11 160.46 129.50 159.68 129.54 L 158.61 129.58 C 157.83 129.62 157.22 130.29 157.25 131.08 C 157.29 131.86 157.96 132.47 158.75 132.44 Z"
      fill="black"
      fill-rule="nonzero" /><path d="M 144.35 151.44 L 145.35 151.40 C 146.20 151.37 146.86 150.66 146.83 149.81 C 146.80 148.96 146.09 148.30 145.24 148.33 L 144.24 148.37 C 143.39 148.40 142.73 149.11 142.76 149.96 C 142.79 150.80 143.50 151.47 144.35 151.44 Z M 145.42 151.42 L 146.41 151.34 C 147.27 151.28 147.91 150.53 147.84 149.67 C 147.78 148.81 147.03 148.17 146.17 148.24 L 145.18 148.31 C 144.32 148.38 143.68 149.13 143.74 149.99 C 143.81 150.84 144.56 151.49 145.42 151.42 Z M 146.52 151.34 L 147.48 151.19 C 148.34 151.07 148.93 150.27 148.80 149.42 C 148.67 148.56 147.88 147.97 147.02 148.10 L 146.06 148.24 C 145.20 148.37 144.61 149.17 144.74 150.02 C 144.87 150.87 145.66 151.46 146.52 151.34 Z M 147.56 151.17 L 148.54 150.97 C 149.38 150.80 149.93 149.99 149.76 149.14 C 149.59 148.30 148.78 147.76 147.93 147.93 L 146.95 148.12 C 146.11 148.29 145.56 149.11 145.73 149.95 C 145.90 150.79 146.72 151.34 147.56 151.17 Z M 148.57 150.95 L 149.46 150.76 C 150.29 150.57 150.81 149.75 150.63 148.92 C 150.44 148.09 149.62 147.56 148.79 147.75 L 147.90 147.94 C 147.07 148.13 146.55 148.95 146.73 149.78 C 146.92 150.61 147.74 151.14 148.57 150.95 Z M 149.47 150.74 L 150.50 150.50 C 151.32 150.31 151.83 149.49 151.64 148.67 C 151.45 147.85 150.63 147.34 149.81 147.53 L 148.78 147.77 C 147.96 147.96 147.45 148.78 147.64 149.60 C 147.83 150.42 148.65 150.93 149.47 150.74 Z M 150.50 150.48 L 151.50 150.25 C 152.32 150.06 152.82 149.24 152.63 148.43 C 152.44 147.62 151.62 147.11 150.81 147.30 L 149.80 147.54 C 148.99 147.73 148.49 148.55 148.68 149.36 C 148.87 150.17 149.69 150.68 150.50 150.48 Z M 151.50 150.24 L 152.49 150.00 C 153.30 149.81 153.80 149.01 153.61 148.20 C 153.42 147.39 152.61 146.89 151.81 147.08 L 150.81 147.31 C 150.01 147.50 149.51 148.31 149.70 149.12 C 149.89 149.93 150.69 150.43 151.50 150.24 Z M 152.48 149.99 L 153.48 149.76 C 154.28 149.58 154.78 148.78 154.60 147.98 C 154.41 147.18 153.62 146.68 152.81 146.86 L 151.82 147.09 C 151.02 147.27 150.51 148.07 150.70 148.88 C 150.88 149.68 151.68 150.18 152.48 149.99 Z M 153.46 149.76 L 154.49 149.53 C 155.29 149.36 155.79 148.57 155.62 147.77 C 155.44 146.97 154.66 146.47 153.86 146.65 L 152.83 146.87 C 152.03 147.04 151.53 147.83 151.71 148.63 C 151.88 149.43 152.67 149.93 153.46 149.76 Z M 154.46 149.52 L 155.49 149.31 C 156.28 149.15 156.79 148.38 156.63 147.59 C 156.47 146.80 155.70 146.29 154.91 146.45 L 153.89 146.66 C 153.09 146.81 152.58 147.59 152.74 148.38 C 152.90 149.17 153.67 149.68 154.46 149.52 Z M 155.46 149.30 L 156.35 149.14 C 157.13 149.00 157.65 148.24 157.51 147.46 C 157.37 146.67 156.62 146.15 155.83 146.30 L 154.94 146.46 C 154.16 146.60 153.64 147.36 153.78 148.14 C 153.92 148.92 154.67 149.44 155.46 149.30 Z M 156.32 149.13 L 157.32 148.97 C 158.10 148.84 158.63 148.10 158.51 147.32 C 158.38 146.54 157.64 146.01 156.86 146.14 L 155.86 146.30 C 155.08 146.43 154.55 147.17 154.68 147.95 C 154.81 148.73 155.54 149.26 156.32 149.13 Z M 157.30 148.97 L 158.26 148.82 C 159.04 148.71 159.58 147.98 159.46 147.20 C 159.35 146.42 158.62 145.88 157.84 146.00 L 156.88 146.14 C 156.10 146.26 155.56 146.99 155.68 147.77 C 155.80 148.55 156.52 149.08 157.30 148.97 Z M 158.26 148.82 L 158.34 148.81 C 159.12 148.69 159.66 147.97 159.54 147.19 C 159.43 146.41 158.70 145.87 157.93 145.99 L 157.84 146.00 C 157.06 146.11 156.53 146.84 156.64 147.62 C 156.75 148.40 157.48 148.94 158.26 148.82 Z"
      fill="black"
      fill-rule="nonzero" /><path d="M 132.86 166.37 L 133.74 165.96 C 134.49 165.61 134.81 164.73 134.46 163.98 C 134.11 163.24 133.23 162.92 132.49 163.27 L 131.60 163.68 C 130.86 164.03 130.54 164.91 130.89 165.66 C 131.23 166.40 132.12 166.72 132.86 166.37 Z M 133.63 166.04 L 134.59 165.69 C 135.38 165.40 135.78 164.53 135.50 163.75 C 135.21 162.96 134.34 162.55 133.56 162.84 L 132.60 163.19 C 131.81 163.48 131.41 164.35 131.69 165.13 C 131.98 165.92 132.85 166.32 133.63 166.04 Z M 134.41 165.76 L 135.41 165.54 C 136.24 165.35 136.75 164.53 136.57 163.70 C 136.38 162.87 135.56 162.36 134.73 162.54 L 133.74 162.77 C 132.91 162.96 132.39 163.78 132.58 164.60 C 132.77 165.43 133.59 165.95 134.41 165.76 Z M 135.31 165.56 L 136.30 165.40 C 137.14 165.27 137.72 164.48 137.58 163.64 C 137.45 162.80 136.66 162.22 135.82 162.36 L 134.83 162.52 C 133.99 162.65 133.41 163.44 133.55 164.28 C 133.68 165.12 134.47 165.70 135.31 165.56 Z M 136.30 165.41 L 137.31 165.25 C 138.15 165.12 138.73 164.33 138.60 163.49 C 138.47 162.64 137.68 162.07 136.83 162.20 L 135.82 162.35 C 134.98 162.49 134.40 163.28 134.53 164.12 C 134.66 164.96 135.45 165.54 136.30 165.41 Z M 137.31 165.25 L 138.25 165.10 C 139.09 164.97 139.67 164.18 139.54 163.34 C 139.41 162.50 138.62 161.93 137.78 162.06 L 136.84 162.20 C 135.99 162.33 135.42 163.12 135.55 163.96 C 135.68 164.80 136.47 165.38 137.31 165.25 Z M 138.21 165.11 L 139.17 164.99 C 140.02 164.88 140.61 164.11 140.51 163.26 C 140.40 162.42 139.63 161.82 138.78 161.93 L 137.82 162.05 C 136.98 162.16 136.38 162.93 136.49 163.77 C 136.59 164.62 137.37 165.22 138.21 165.11 Z M 139.16 165.00 L 140.17 164.88 C 141.02 164.78 141.63 164.01 141.53 163.16 C 141.43 162.31 140.66 161.70 139.81 161.80 L 138.80 161.92 C 137.94 162.02 137.34 162.79 137.44 163.64 C 137.54 164.49 138.31 165.10 139.16 165.00 Z M 140.18 164.89 L 141.16 164.76 C 142.02 164.66 142.62 163.88 142.52 163.02 C 142.41 162.17 141.63 161.56 140.78 161.67 L 139.80 161.79 C 138.94 161.89 138.34 162.67 138.44 163.53 C 138.55 164.38 139.33 164.99 140.18 164.89 Z M 141.18 164.77 L 142.19 164.63 C 143.05 164.52 143.65 163.73 143.53 162.87 C 143.42 162.01 142.63 161.41 141.77 161.52 L 140.76 161.66 C 139.90 161.78 139.30 162.57 139.41 163.43 C 139.53 164.29 140.32 164.89 141.18 164.77 Z M 142.21 164.64 L 143.19 164.50 C 144.05 164.37 144.65 163.56 144.52 162.70 C 144.39 161.84 143.58 161.24 142.72 161.37 L 141.74 161.52 C 140.88 161.64 140.28 162.45 140.41 163.31 C 140.54 164.18 141.35 164.77 142.21 164.64 Z M 143.20 164.51 L 144.21 164.35 C 145.08 164.21 145.67 163.39 145.53 162.52 C 145.40 161.65 144.58 161.06 143.71 161.20 L 142.70 161.36 C 141.83 161.50 141.24 162.31 141.38 163.18 C 141.52 164.05 142.33 164.65 143.20 164.51 Z M 144.22 164.36 L 145.18 164.20 C 146.05 164.06 146.65 163.23 146.50 162.36 C 146.36 161.48 145.53 160.89 144.66 161.03 L 143.70 161.19 C 142.82 161.33 142.23 162.16 142.37 163.03 C 142.51 163.91 143.34 164.50 144.22 164.36 Z M 145.18 164.22 L 146.17 164.06 C 147.06 163.91 147.66 163.08 147.51 162.19 C 147.37 161.31 146.54 160.71 145.65 160.85 L 144.66 161.02 C 143.77 161.16 143.17 161.99 143.32 162.88 C 143.46 163.76 144.29 164.36 145.18 164.22 Z M 146.17 164.07 L 147.17 163.91 C 148.06 163.77 148.67 162.94 148.53 162.05 C 148.39 161.16 147.56 160.55 146.67 160.69 L 145.66 160.84 C 144.77 160.98 144.16 161.82 144.30 162.71 C 144.44 163.60 145.28 164.21 146.17 164.07 Z M 147.16 163.92 L 148.16 163.76 C 149.05 163.63 149.67 162.79 149.53 161.90 C 149.39 161.01 148.56 160.39 147.67 160.53 L 146.67 160.68 C 145.78 160.82 145.16 161.65 145.30 162.54 C 145.44 163.44 146.27 164.05 147.16 163.92 Z M 148.16 163.77 L 149.15 163.61 C 150.04 163.48 150.66 162.64 150.52 161.75 C 150.38 160.85 149.55 160.24 148.65 160.38 L 147.67 160.53 C 146.77 160.67 146.16 161.50 146.29 162.39 C 146.43 163.29 147.27 163.90 148.16 163.77 Z M 149.16 163.61 L 150.16 163.45 C 151.06 163.31 151.67 162.47 151.53 161.58 C 151.38 160.69 150.55 160.08 149.65 160.22 L 148.65 160.38 C 147.75 160.52 147.14 161.36 147.28 162.25 C 147.43 163.15 148.26 163.75 149.16 163.61 Z M 150.17 163.45 L 151.14 163.30 C 152.04 163.15 152.65 162.32 152.50 161.42 C 152.36 160.53 151.52 159.92 150.63 160.06 L 149.65 160.22 C 148.76 160.36 148.15 161.20 148.29 162.09 C 148.43 162.99 149.27 163.60 150.17 163.45 Z M 151.13 163.29 L 152.11 163.15 C 153.00 163.01 153.62 162.18 153.48 161.29 C 153.35 160.39 152.51 159.78 151.62 159.92 L 150.64 160.07 C 149.75 160.20 149.14 161.03 149.27 161.93 C 149.41 162.82 150.24 163.43 151.13 163.29 Z M 152.10 163.14 L 153.09 163.00 C 153.97 162.87 154.59 162.05 154.46 161.16 C 154.34 160.28 153.52 159.66 152.63 159.79 L 151.64 159.93 C 150.75 160.05 150.14 160.87 150.26 161.76 C 150.39 162.65 151.21 163.26 152.10 163.14 Z M 153.08 162.98 L 154.07 162.84 C 154.94 162.72 155.56 161.91 155.43 161.03 C 155.31 160.16 154.50 159.54 153.62 159.66 L 152.64 159.80 C 151.76 159.92 151.15 160.73 151.27 161.61 C 151.39 162.49 152.20 163.10 153.08 162.98 Z M 154.06 162.83 L 155.06 162.69 C 155.93 162.57 156.53 161.77 156.41 160.90 C 156.29 160.03 155.49 159.42 154.62 159.54 L 153.63 159.68 C 152.76 159.80 152.15 160.60 152.27 161.47 C 152.39 162.34 153.19 162.95 154.06 162.83 Z M 155.05 162.67 L 156.04 162.54 C 156.90 162.42 157.50 161.63 157.38 160.77 C 157.27 159.91 156.48 159.31 155.62 159.43 L 154.63 159.56 C 153.77 159.68 153.17 160.47 153.28 161.33 C 153.40 162.19 154.19 162.79 155.05 162.67 Z M 156.02 162.53 L 157.02 162.40 C 157.87 162.29 158.48 161.51 158.37 160.66 C 158.26 159.81 157.48 159.20 156.63 159.31 L 155.63 159.44 C 154.78 159.55 154.17 160.33 154.28 161.18 C 154.39 162.03 155.17 162.64 156.02 162.53 Z M 157.01 162.40 L 158.00 162.28 C 158.85 162.17 159.46 161.40 159.36 160.55 C 159.25 159.70 158.48 159.09 157.63 159.20 L 156.64 159.32 C 155.79 159.42 155.18 160.19 155.28 161.04 C 155.39 161.89 156.16 162.50 157.01 162.40 Z M 158.00 162.27 L 158.99 162.15 C 159.84 162.05 160.45 161.28 160.34 160.43 C 160.24 159.58 159.47 158.98 158.63 159.08 L 157.63 159.20 C 156.79 159.30 156.18 160.07 156.28 160.92 C 156.38 161.77 157.15 162.37 158.00 162.27 Z M 158.99 162.15 L 159.98 162.03 C 160.83 161.93 161.43 161.17 161.33 160.32 C 161.24 159.48 160.47 158.87 159.63 158.97 L 158.63 159.09 C 157.79 159.18 157.18 159.95 157.28 160.79 C 157.38 161.64 158.14 162.25 158.99 162.15 Z M 159.95 162.03 L 160.95 161.93 C 161.80 161.85 162.42 161.10 162.33 160.25 C 162.25 159.41 161.50 158.79 160.65 158.87 L 159.65 158.97 C 158.81 159.05 158.19 159.81 158.27 160.65 C 158.36 161.50 159.11 162.11 159.95 162.03 Z M 160.92 161.93 L 161.94 161.86 C 162.79 161.79 163.42 161.06 163.36 160.21 C 163.30 159.37 162.56 158.73 161.71 158.80 L 160.69 158.87 C 159.84 158.93 159.21 159.67 159.27 160.52 C 159.33 161.36 160.07 162.00 160.92 161.93 Z M 161.93 161.86 L 162.89 161.79 C 163.73 161.74 164.37 161.01 164.32 160.16 C 164.26 159.32 163.53 158.68 162.69 158.73 L 161.73 158.80 C 160.88 158.85 160.24 159.58 160.30 160.43 C 160.35 161.27 161.08 161.91 161.93 161.86 Z M 162.90 161.80 L 163.86 161.73 C 164.70 161.67 165.34 160.93 165.28 160.09 C 165.22 159.24 164.49 158.60 163.64 158.66 L 162.68 158.73 C 161.83 158.79 161.19 159.53 161.25 160.37 C 161.32 161.22 162.05 161.86 162.90 161.80 Z M 163.85 161.73 L 164.86 161.66 C 165.71 161.61 166.35 160.87 166.30 160.03 C 166.24 159.18 165.51 158.54 164.66 158.59 L 163.65 158.66 C 162.80 158.72 162.16 159.45 162.21 160.30 C 162.27 161.15 163.00 161.79 163.85 161.73 Z M 164.85 161.67 L 165.85 161.61 C 166.70 161.56 167.35 160.84 167.30 159.99 C 167.26 159.14 166.53 158.49 165.68 158.53 L 164.68 158.59 C 163.83 158.64 163.18 159.36 163.22 160.21 C 163.27 161.06 164.00 161.71 164.85 161.67 Z M 165.83 161.61 L 166.85 161.57 C 167.70 161.53 168.36 160.82 168.32 159.96 C 168.29 159.11 167.57 158.45 166.72 158.49 L 165.70 158.53 C 164.85 158.57 164.19 159.29 164.22 160.14 C 164.26 160.99 164.98 161.65 165.83 161.61 Z M 166.82 161.57 L 167.86 161.55 C 168.71 161.53 169.38 160.82 169.37 159.97 C 169.35 159.12 168.64 158.44 167.79 158.46 L 166.75 158.48 C 165.89 158.50 165.22 159.21 165.24 160.06 C 165.26 160.92 165.96 161.59 166.82 161.57 Z M 167.84 161.55 L 168.80 161.54 C 169.65 161.53 170.34 160.83 170.33 159.98 C 170.32 159.13 169.62 158.44 168.77 158.45 L 167.81 158.46 C 166.95 158.47 166.27 159.17 166.28 160.02 C 166.29 160.87 166.99 161.56 167.84 161.55 Z M 168.81 161.54 L 169.80 161.52 C 170.66 161.51 171.34 160.80 171.32 159.95 C 171.31 159.09 170.60 158.41 169.75 158.43 L 168.76 158.45 C 167.90 158.46 167.22 159.17 167.24 160.02 C 167.25 160.88 167.96 161.56 168.81 161.54 Z M 169.82 161.54 L 170.82 161.51 C 171.68 161.49 172.36 160.77 172.34 159.91 C 172.32 159.05 171.60 158.37 170.74 158.39 L 169.73 158.42 C 168.87 158.44 168.19 159.16 168.22 160.02 C 168.24 160.88 168.95 161.56 169.82 161.54 Z M 170.82 161.52 L 170.90 161.51 C 171.77 161.49 172.45 160.77 172.42 159.91 C 172.40 159.04 171.68 158.36 170.82 158.38 L 170.74 158.38 C 169.87 158.41 169.19 159.13 169.21 159.99 C 169.24 160.86 169.96 161.54 170.82 161.52 Z"
      fill="black"
      fill-rule="nonzero" /></svg>