<svg xmlns="http://www.w3.org/2000/svg" width="300" height="300" viewBox="0 0 300 300">
<path d="M 144.62 133.61 L 144.49 132.54 C 144.38 131.70 143.61 131.11 142.77 131.22 C 141.93 131.32 141.34 132.09 141.45 132.93 L 141.59 134.00 C 141.69 134.84 142.46 135.43 143.30 135.32 C 144.14 135.22 144.73 134.45 144.62 133.61 Z M 142.14 131.41 L 141.66 131.70 C 140.93 132.16 140.70 133.13 141.16 133.86 C 141.61 134.59 142.58 134.82 143.31 134.36 L 143.79 134.07 C 144.53 133.61 144.75 132.65 144.30 131.91 C 143.84 131.18 142.88 130.95 142.14 131.41 Z M 141.16 132.19 L 140.52 133.21 C 140.05 133.94 140.27 134.91 141.00 135.38 C 141.74 135.84 142.71 135.62 143.17 134.89 L 143.81 133.87 C 144.28 133.14 144.06 132.17 143.33 131.71 C 142.59 131.25 141.63 131.46 141.16 132.19 Z M 140.49 133.25 L 139.97 134.13 C 139.53 134.88 139.78 135.84 140.53 136.28 C 141.27 136.72 142.24 136.47 142.68 135.72 L 143.19 134.85 C 143.63 134.10 143.39 133.14 142.64 132.70 C 141.89 132.26 140.93 132.51 140.49 133.25 Z M 139.98 134.13 L 139.47 134.99 C 139.03 135.73 139.27 136.69 140.02 137.14 C 140.76 137.58 141.73 137.33 142.17 136.58 L 142.68 135.73 C 143.12 134.98 142.87 134.02 142.12 133.58 C 141.38 133.14 140.42 133.38 139.98 134.13 Z M 139.48 134.97 L 138.95 135.84 C 138.49 136.58 138.73 137.55 139.47 138.00 C 140.21 138.45 141.17 138.22 141.62 137.48 L 142.16 136.60 C 142.61 135.86 142.38 134.90 141.64 134.45 C 140.90 133.99 139.93 134.23 139.48 134.97 Z M 138.95 135.84 L 138.45 136.66 C 137.99 137.40 138.23 138.36 138.97 138.82 C 139.71 139.27 140.67 139.03 141.12 138.30 L 141.62 137.48 C 142.08 136.74 141.84 135.77 141.10 135.32 C 140.36 134.87 139.40 135.10 138.95 135.84 Z M 138.43 136.68 L 137.94 137.52 C 137.49 138.26 137.74 139.23 138.49 139.67 C 139.23 140.11 140.19 139.86 140.64 139.12 L 141.13 138.28 C 141.58 137.53 141.33 136.57 140.58 136.13 C 139.84 135.68 138.88 135.93 138.43 136.68 Z M 137.94 137.52 L 137.41 138.40 C 136.97 139.14 137.22 140.11 137.96 140.55 C 138.71 140.99 139.67 140.75 140.11 140.00 L 140.64 139.12 C 141.08 138.37 140.83 137.41 140.09 136.97 C 139.34 136.53 138.38 136.77 137.94 137.52 Z M 137.42 138.39 L 136.91 139.24 C 136.46 139.98 136.69 140.94 137.43 141.39 C 138.18 141.84 139.14 141.60 139.59 140.86 L 140.10 140.01 C 140.55 139.27 140.32 138.31 139.57 137.86 C 138.83 137.41 137.87 137.65 137.42 138.39 Z M 136.91 139.24 L 136.38 140.11 C 135.94 140.84 136.17 141.81 136.91 142.25 C 137.65 142.70 138.61 142.47 139.06 141.73 L 139.59 140.86 C 140.03 140.12 139.80 139.16 139.06 138.71 C 138.32 138.26 137.36 138.50 136.91 139.24 Z M 136.38 140.12 L 135.87 140.98 C 135.43 141.72 135.67 142.68 136.41 143.12 C 137.15 143.56 138.11 143.32 138.55 142.58 L 139.06 141.71 C 139.50 140.97 139.26 140.02 138.52 139.57 C 137.78 139.13 136.82 139.38 136.38 140.12 Z M 135.87 140.98 L 135.36 141.84 C 134.92 142.58 135.16 143.53 135.90 143.97 C 136.64 144.41 137.60 144.17 138.04 143.43 L 138.55 142.57 C 138.99 141.83 138.75 140.88 138.01 140.44 C 137.27 140.00 136.31 140.24 135.87 140.98 Z M 135.37 141.83 L 134.85 142.68 C 134.41 143.41 134.64 144.37 135.38 144.82 C 136.11 145.26 137.07 145.03 137.51 144.29 L 138.03 143.44 C 138.47 142.71 138.24 141.75 137.51 141.31 C 136.77 140.86 135.82 141.09 135.37 141.83 Z M 134.86 142.67 L 134.34 143.52 C 133.88 144.25 134.11 145.21 134.84 145.66 C 135.57 146.11 136.53 145.88 136.98 145.15 L 137.50 144.30 C 137.95 143.57 137.73 142.62 137.00 142.17 C 136.27 141.72 135.31 141.94 134.86 142.67 Z M 134.34 143.52 L 133.81 144.38 C 133.36 145.10 133.58 146.06 134.31 146.51 C 135.04 146.96 135.99 146.74 136.45 146.01 L 136.97 145.16 C 137.43 144.43 137.20 143.47 136.47 143.02 C 135.75 142.57 134.79 142.79 134.34 143.52 Z M 133.81 144.38 L 133.28 145.23 C 132.83 145.96 133.06 146.92 133.79 147.36 C 134.51 147.81 135.47 147.59 135.92 146.86 L 136.44 146.01 C 136.89 145.28 136.67 144.32 135.94 143.88 C 135.21 143.43 134.26 143.65 133.81 144.38 Z M 133.28 145.24 L 132.79 146.04 C 132.34 146.77 132.57 147.72 133.29 148.17 C 134.02 148.62 134.97 148.39 135.42 147.66 L 135.92 146.86 C 136.37 146.13 136.14 145.18 135.41 144.73 C 134.68 144.28 133.73 144.51 133.28 145.24 Z M 132.79 146.04 L 132.34 146.78 C 131.89 147.51 132.12 148.46 132.84 148.90 C 133.57 149.35 134.52 149.12 134.97 148.40 L 135.42 147.66 C 135.87 146.93 135.64 145.98 134.91 145.54 C 134.19 145.09 133.23 145.32 132.79 146.04 Z M 132.34 146.78 L 131.78 147.68 C 131.34 148.41 131.56 149.36 132.29 149.81 C 133.02 150.25 133.97 150.02 134.41 149.30 L 134.97 148.40 C 135.41 147.67 135.19 146.72 134.46 146.27 C 133.73 145.83 132.78 146.05 132.34 146.78 Z M 131.78 147.68 L 131.22 148.61 C 130.77 149.34 131.00 150.29 131.72 150.73 C 132.45 151.18 133.40 150.95 133.84 150.22 L 134.41 149.30 C 134.86 148.57 134.63 147.62 133.90 147.18 C 133.18 146.73 132.23 146.96 131.78 147.68 Z M 131.22 148.61 L 130.68 149.48 C 130.24 150.21 130.46 151.16 131.19 151.60 C 131.91 152.05 132.86 151.82 133.31 151.10 L 133.84 150.22 C 134.29 149.50 134.06 148.55 133.34 148.10 C 132.61 147.66 131.66 147.89 131.22 148.61 Z M 130.68 149.48 L 130.13 150.39 C 129.68 151.11 129.91 152.06 130.63 152.50 C 131.36 152.95 132.30 152.72 132.75 152.00 L 133.30 151.09 C 133.75 150.37 133.52 149.42 132.80 148.98 C 132.08 148.53 131.13 148.76 130.68 149.48 Z M 130.13 150.39 L 129.60 151.25 C 129.15 151.97 129.38 152.92 130.10 153.36 C 130.83 153.81 131.77 153.58 132.22 152.86 L 132.75 152.00 C 133.19 151.28 132.97 150.33 132.24 149.88 C 131.52 149.44 130.57 149.66 130.13 150.39 Z M 129.60 151.25 L 129.04 152.17 C 128.59 152.89 128.82 153.83 129.54 154.28 C 130.26 154.72 131.20 154.50 131.64 153.78 L 132.21 152.86 C 132.66 152.14 132.43 151.19 131.71 150.75 C 130.99 150.31 130.05 150.53 129.60 151.25 Z M 129.05 152.18 L 128.49 153.08 C 128.05 153.79 128.27 154.72 128.98 155.16 C 129.69 155.60 130.63 155.38 131.07 154.67 L 131.63 153.77 C 132.07 153.06 131.85 152.13 131.14 151.69 C 130.43 151.25 129.49 151.47 129.05 152.18 Z M 128.52 153.09 L 128.09 153.78 C 127.65 154.48 127.87 155.39 128.56 155.83 C 129.26 156.26 130.18 156.05 130.61 155.35 L 131.04 154.66 C 131.48 153.97 131.26 153.05 130.57 152.61 C 129.87 152.18 128.95 152.39 128.52 153.09 Z"
      fill="black"
      fill-rule="nonzero" /><path d="M 136.76 142.87 L 137.00 143.69 C 137.24 144.49 138.08 144.96 138.89 144.72 C 139.70 144.49 140.16 143.64 139.93 142.83 L 139.69 142.02 C 139.45 141.21 138.61 140.75 137.80 140.98 C 136.99 141.22 136.53 142.07 136.76 142.87 Z M 136.93 143.61 L 137.17 144.66 C 137.36 145.51 138.20 146.04 139.05 145.85 C 139.90 145.66 140.43 144.81 140.24 143.97 L 140.00 142.91 C 139.81 142.06 138.96 141.53 138.12 141.72 C 137.27 141.91 136.74 142.76 136.93 143.61 Z M 137.12 144.58 L 137.29 145.60 C 137.43 146.47 138.26 147.06 139.14 146.92 C 140.01 146.77 140.60 145.94 140.46 145.07 L 140.29 144.05 C 140.14 143.17 139.31 142.58 138.44 142.73 C 137.56 142.88 136.97 143.70 137.12 144.58 Z M 137.27 145.55 L 137.42 146.59 C 137.54 147.47 138.36 148.09 139.24 147.96 C 140.12 147.84 140.74 147.03 140.61 146.14 L 140.47 145.11 C 140.35 144.23 139.53 143.61 138.65 143.73 C 137.77 143.86 137.15 144.67 137.27 145.55 Z M 137.41 146.56 L 137.54 147.60 C 137.65 148.48 138.46 149.11 139.34 149.00 C 140.23 148.89 140.86 148.08 140.75 147.20 L 140.62 146.17 C 140.51 145.28 139.70 144.65 138.82 144.76 C 137.93 144.87 137.30 145.68 137.41 146.56 Z M 137.54 147.58 L 137.65 148.61 C 137.75 149.50 138.55 150.14 139.44 150.04 C 140.33 149.94 140.97 149.15 140.87 148.26 L 140.75 147.22 C 140.65 146.33 139.85 145.69 138.97 145.79 C 138.08 145.89 137.44 146.69 137.54 147.58 Z M 137.65 148.59 L 137.75 149.64 C 137.83 150.53 138.62 151.18 139.51 151.10 C 140.40 151.02 141.05 150.23 140.97 149.34 L 140.87 148.29 C 140.78 147.40 140.00 146.74 139.11 146.83 C 138.22 146.91 137.57 147.70 137.65 148.59 Z M 137.75 149.61 L 137.81 150.46 C 137.88 151.35 138.66 152.01 139.55 151.95 C 140.43 151.88 141.10 151.10 141.03 150.22 L 140.97 149.37 C 140.90 148.48 140.12 147.81 139.23 147.88 C 138.35 147.95 137.68 148.72 137.75 149.61 Z M 137.82 150.46 L 137.89 151.44 C 137.96 152.33 138.73 152.99 139.61 152.93 C 140.50 152.86 141.16 152.09 141.10 151.21 L 141.03 150.22 C 140.96 149.33 140.19 148.67 139.30 148.73 C 138.42 148.80 137.75 149.57 137.82 150.46 Z M 137.90 151.44 L 137.97 152.45 C 138.03 153.33 138.80 153.99 139.68 153.93 C 140.56 153.87 141.23 153.10 141.16 152.22 L 141.09 151.21 C 141.03 150.33 140.26 149.67 139.38 149.73 C 138.50 149.79 137.83 150.56 137.90 151.44 Z M 137.97 152.44 L 138.04 153.43 C 138.10 154.31 138.85 154.98 139.73 154.92 C 140.61 154.87 141.28 154.11 141.22 153.23 L 141.16 152.23 C 141.10 151.35 140.34 150.68 139.46 150.74 C 138.58 150.80 137.92 151.56 137.97 152.44 Z M 138.04 153.42 L 138.10 154.42 C 138.15 155.30 138.90 155.97 139.77 155.92 C 140.65 155.88 141.32 155.13 141.27 154.25 L 141.22 153.24 C 141.17 152.37 140.42 151.70 139.54 151.74 C 138.67 151.79 138.00 152.54 138.04 153.42 Z M 138.10 154.40 L 138.15 155.41 C 138.19 156.28 138.92 156.96 139.80 156.92 C 140.67 156.88 141.35 156.14 141.31 155.27 L 141.27 154.27 C 141.23 153.39 140.49 152.72 139.62 152.75 C 138.74 152.79 138.07 153.53 138.10 154.40 Z M 138.15 155.40 L 138.19 156.35 C 138.22 157.22 138.95 157.90 139.82 157.86 C 140.69 157.83 141.37 157.10 141.34 156.23 L 141.30 155.28 C 141.27 154.41 140.54 153.73 139.67 153.76 C 138.80 153.80 138.12 154.53 138.15 155.40 Z M 138.20 156.34 L 138.23 157.31 C 138.26 158.17 138.99 158.85 139.86 158.82 C 140.72 158.79 141.40 158.06 141.37 157.19 L 141.33 156.23 C 141.30 155.36 140.57 154.69 139.71 154.72 C 138.84 154.75 138.16 155.48 138.20 156.34 Z M 138.24 157.31 L 138.28 158.34 C 138.31 159.20 139.03 159.87 139.90 159.84 C 140.76 159.81 141.43 159.08 141.40 158.22 L 141.36 157.19 C 141.33 156.33 140.60 155.65 139.74 155.69 C 138.88 155.72 138.20 156.44 138.24 157.31 Z M 138.28 158.35 L 138.32 159.30 C 138.36 160.16 139.09 160.83 139.95 160.79 C 140.81 160.76 141.47 160.03 141.44 159.17 L 141.39 158.21 C 141.36 157.35 140.63 156.69 139.77 156.72 C 138.91 156.76 138.24 157.49 138.28 158.35 Z M 138.33 159.33 L 138.39 160.37 C 138.44 161.23 139.17 161.88 140.03 161.83 C 140.88 161.78 141.54 161.05 141.49 160.19 L 141.43 159.15 C 141.38 158.29 140.65 157.64 139.79 157.69 C 138.94 157.74 138.28 158.47 138.33 159.33 Z M 138.40 160.41 L 138.49 161.57 C 138.56 162.42 139.31 163.05 140.16 162.98 C 141.01 162.91 141.64 162.16 141.57 161.31 L 141.48 160.16 C 141.41 159.31 140.66 158.67 139.81 158.74 C 138.96 158.81 138.33 159.56 138.40 160.41 Z M 138.52 161.69 L 138.70 162.82 C 138.84 163.65 139.63 164.22 140.46 164.09 C 141.30 163.95 141.87 163.16 141.73 162.33 L 141.55 161.19 C 141.41 160.36 140.62 159.79 139.79 159.93 C 138.95 160.06 138.38 160.85 138.52 161.69 Z M 138.89 163.30 L 139.23 163.93 C 139.64 164.67 140.56 164.93 141.29 164.53 C 142.03 164.13 142.30 163.20 141.89 162.47 L 141.55 161.84 C 141.14 161.11 140.22 160.84 139.49 161.24 C 138.75 161.65 138.48 162.57 138.89 163.30 Z M 140.98 164.63 L 141.61 164.45 C 142.40 164.22 142.86 163.40 142.63 162.60 C 142.40 161.81 141.57 161.36 140.78 161.59 L 140.15 161.77 C 139.36 162.00 138.90 162.82 139.13 163.62 C 139.36 164.41 140.19 164.86 140.98 164.63 Z M 142.22 164.05 L 143.03 163.25 C 143.60 162.68 143.61 161.76 143.04 161.19 C 142.47 160.61 141.55 160.61 140.98 161.18 L 140.17 161.99 C 139.59 162.55 139.59 163.48 140.16 164.05 C 140.73 164.62 141.65 164.62 142.22 164.05 Z M 143.08 163.16 L 143.33 162.88 C 143.86 162.28 143.80 161.38 143.21 160.85 C 142.61 160.33 141.70 160.38 141.18 160.98 L 140.93 161.26 C 140.40 161.86 140.46 162.76 141.05 163.29 C 141.65 163.81 142.56 163.76 143.08 163.16 Z"
      fill="black"
      fill-rule="nonzero" /><path d="M 149.62 138.54 L 150.48 138.70 C 151.32 138.86 152.12 138.30 152.28 137.46 C 152.43 136.63 151.88 135.82 151.04 135.67 L 150.18 135.51 C 149.34 135.36 148.54 135.91 148.38 136.75 C 148.23 137.59 148.78 138.39 149.62 138.54 Z M 150.65 138.73 L 151.70 138.80 C 152.55 138.86 153.29 138.22 153.34 137.36 C 153.40 136.51 152.76 135.78 151.91 135.72 L 150.87 135.64 C 150.02 135.59 149.28 136.23 149.22 137.08 C 149.16 137.93 149.80 138.67 150.65 138.73 Z M 151.88 138.80 L 152.93 138.75 C 153.78 138.70 154.44 137.98 154.40 137.12 C 154.35 136.27 153.63 135.62 152.77 135.66 L 151.72 135.71 C 150.87 135.76 150.22 136.48 150.26 137.34 C 150.30 138.19 151.03 138.85 151.88 138.80 Z M 153.03 138.74 L 154.07 138.62 C 154.91 138.53 155.52 137.76 155.43 136.91 C 155.33 136.07 154.57 135.46 153.72 135.55 L 152.68 135.67 C 151.83 135.76 151.22 136.53 151.32 137.38 C 151.41 138.22 152.18 138.83 153.03 138.74 Z M 154.10 138.62 L 155.13 138.47 C 155.97 138.36 156.56 137.58 156.44 136.74 C 156.33 135.89 155.55 135.30 154.70 135.42 L 153.68 135.56 C 152.84 135.67 152.25 136.45 152.36 137.30 C 152.48 138.14 153.26 138.73 154.10 138.62 Z M 155.13 138.47 L 156.10 138.34 C 156.94 138.22 157.53 137.44 157.41 136.60 C 157.29 135.75 156.51 135.16 155.67 135.28 L 154.70 135.42 C 153.86 135.54 153.27 136.32 153.39 137.16 C 153.51 138.00 154.29 138.59 155.13 138.47 Z M 156.07 138.34 L 157.00 138.23 C 157.85 138.13 158.45 137.36 158.35 136.52 C 158.25 135.67 157.48 135.07 156.64 135.17 L 155.70 135.28 C 154.86 135.38 154.25 136.15 154.35 136.99 C 154.45 137.84 155.22 138.44 156.07 138.34 Z M 156.96 138.24 L 157.96 138.14 C 158.81 138.06 159.43 137.31 159.35 136.46 C 159.27 135.61 158.52 134.99 157.67 135.07 L 156.67 135.16 C 155.82 135.24 155.20 136.00 155.28 136.85 C 155.36 137.69 156.12 138.32 156.96 138.24 Z M 157.95 138.14 L 158.85 138.06 C 159.70 137.99 160.33 137.24 160.25 136.39 C 160.18 135.54 159.43 134.91 158.58 134.99 L 157.68 135.07 C 156.83 135.14 156.20 135.89 156.28 136.74 C 156.35 137.59 157.10 138.22 157.95 138.14 Z M 158.85 138.06 L 159.83 137.98 C 160.68 137.91 161.31 137.16 161.24 136.31 C 161.17 135.46 160.42 134.83 159.57 134.90 L 158.59 134.99 C 157.74 135.06 157.11 135.80 157.18 136.65 C 157.25 137.50 158.00 138.13 158.85 138.06 Z M 159.82 137.98 L 160.88 137.90 C 161.73 137.83 162.36 137.09 162.30 136.24 C 162.23 135.39 161.49 134.76 160.64 134.82 L 159.58 134.90 C 158.74 134.97 158.10 135.71 158.17 136.56 C 158.23 137.41 158.97 138.04 159.82 137.98 Z M 160.86 137.89 L 161.93 137.83 C 162.78 137.77 163.42 137.04 163.37 136.19 C 163.31 135.35 162.58 134.70 161.73 134.76 L 160.66 134.82 C 159.82 134.88 159.17 135.61 159.23 136.46 C 159.28 137.31 160.01 137.95 160.86 137.89 Z M 161.90 137.82 L 163.03 137.77 C 163.87 137.73 164.53 137.02 164.49 136.17 C 164.45 135.32 163.73 134.67 162.89 134.71 L 161.76 134.76 C 160.92 134.80 160.26 135.52 160.30 136.36 C 160.34 137.21 161.06 137.86 161.90 137.82 Z M 163.00 137.76 L 164.04 137.73 C 164.88 137.71 165.54 137.01 165.51 136.17 C 165.49 135.33 164.79 134.66 163.95 134.69 L 162.91 134.72 C 162.07 134.74 161.41 135.44 161.44 136.28 C 161.46 137.12 162.16 137.79 163.00 137.76 Z M 164.02 137.72 L 164.93 137.71 C 165.77 137.69 166.44 137.00 166.42 136.17 C 166.41 135.33 165.72 134.67 164.88 134.68 L 163.97 134.70 C 163.13 134.71 162.46 135.40 162.48 136.24 C 162.49 137.07 163.18 137.74 164.02 137.72 Z M 164.92 137.70 L 165.96 137.69 C 166.79 137.69 167.46 137.01 167.46 136.18 C 167.45 135.35 166.78 134.68 165.95 134.68 L 164.90 134.69 C 164.07 134.69 163.40 135.37 163.40 136.20 C 163.41 137.03 164.09 137.71 164.92 137.70 Z M 165.83 137.69 L 166.80 137.77 C 167.62 137.84 168.35 137.22 168.42 136.39 C 168.49 135.56 167.87 134.84 167.04 134.77 L 166.08 134.69 C 165.25 134.62 164.52 135.24 164.45 136.07 C 164.38 136.89 165.00 137.62 165.83 137.69 Z M 166.29 137.65 L 167.10 138.01 C 167.86 138.36 168.76 138.02 169.10 137.26 C 169.45 136.50 169.11 135.60 168.35 135.25 L 167.54 134.89 C 166.78 134.54 165.88 134.88 165.54 135.64 C 165.19 136.40 165.53 137.30 166.29 137.65 Z M 166.45 137.50 L 167.01 138.32 C 167.50 139.02 168.46 139.20 169.16 138.72 C 169.86 138.24 170.04 137.28 169.55 136.58 L 168.99 135.76 C 168.51 135.06 167.55 134.88 166.85 135.36 C 166.15 135.84 165.97 136.80 166.45 137.50 Z M 166.75 137.73 L 166.92 138.69 C 167.08 139.53 167.89 140.09 168.74 139.94 C 169.59 139.79 170.15 138.97 169.99 138.13 L 169.82 137.17 C 169.66 136.32 168.85 135.76 168.00 135.92 C 167.16 136.07 166.60 136.88 166.75 137.73 Z M 166.90 138.44 L 166.92 139.46 C 166.94 140.32 167.65 141.01 168.51 140.99 C 169.38 140.97 170.06 140.26 170.04 139.39 L 170.02 138.37 C 170.00 137.51 169.29 136.82 168.43 136.84 C 167.56 136.86 166.88 137.58 166.90 138.44 Z M 166.92 139.44 L 166.92 140.34 C 166.93 141.20 167.64 141.90 168.50 141.89 C 169.37 141.88 170.06 141.18 170.05 140.31 L 170.05 139.41 C 170.04 138.55 169.33 137.85 168.47 137.86 C 167.60 137.87 166.91 138.57 166.92 139.44 Z M 166.92 140.40 L 166.97 141.48 C 167.01 142.35 167.75 143.02 168.61 142.98 C 169.48 142.93 170.15 142.20 170.11 141.34 L 170.06 140.25 C 170.01 139.39 169.28 138.72 168.42 138.76 C 167.55 138.80 166.88 139.53 166.92 140.40 Z M 166.97 141.54 L 167.05 142.48 C 167.12 143.34 167.88 143.99 168.74 143.92 C 169.61 143.85 170.25 143.09 170.18 142.22 L 170.10 141.28 C 170.04 140.42 169.28 139.77 168.41 139.84 C 167.55 139.91 166.90 140.67 166.97 141.54 Z M 167.05 142.49 L 167.14 143.51 C 167.22 144.37 167.99 145.01 168.85 144.93 C 169.72 144.85 170.35 144.09 170.27 143.22 L 170.18 142.21 C 170.10 141.34 169.34 140.71 168.47 140.79 C 167.61 140.86 166.97 141.63 167.05 142.49 Z M 167.14 143.50 L 167.24 144.55 C 167.31 145.42 168.08 146.05 168.94 145.98 C 169.81 145.90 170.45 145.13 170.37 144.27 L 170.28 143.22 C 170.20 142.36 169.43 141.72 168.57 141.80 C 167.70 141.88 167.06 142.64 167.14 143.50 Z M 167.23 144.53 L 167.32 145.62 C 167.38 146.49 168.14 147.14 169.00 147.07 C 169.87 147.01 170.52 146.25 170.45 145.39 L 170.37 144.29 C 170.31 143.42 169.55 142.77 168.68 142.84 C 167.82 142.91 167.17 143.66 167.23 144.53 Z M 167.31 145.59 L 167.37 146.64 C 167.42 147.51 168.16 148.17 169.03 148.12 C 169.90 148.07 170.57 147.33 170.52 146.46 L 170.46 145.42 C 170.41 144.55 169.67 143.88 168.80 143.93 C 167.93 143.98 167.26 144.72 167.31 145.59 Z M 167.37 146.61 L 167.40 147.52 C 167.44 148.39 168.17 149.07 169.04 149.03 C 169.91 149.00 170.59 148.27 170.55 147.40 L 170.52 146.49 C 170.49 145.62 169.75 144.94 168.88 144.97 C 168.01 145.01 167.34 145.74 167.37 146.61 Z M 167.40 147.49 L 167.42 148.51 C 167.44 149.38 168.16 150.07 169.04 150.05 C 169.91 150.03 170.60 149.31 170.58 148.44 L 170.56 147.42 C 170.54 146.55 169.82 145.86 168.95 145.88 C 168.07 145.90 167.38 146.62 167.40 147.49 Z M 167.42 148.48 L 167.43 149.43 C 167.43 150.30 168.14 151.00 169.01 151.00 C 169.88 151.00 170.59 150.29 170.58 149.42 L 170.58 148.47 C 170.57 147.60 169.86 146.90 168.99 146.90 C 168.12 146.90 167.42 147.61 167.42 148.48 Z M 167.43 149.42 L 167.43 150.38 C 167.43 151.25 168.14 151.95 169.01 151.95 C 169.88 151.95 170.58 151.25 170.58 150.38 L 170.58 149.42 C 170.58 148.55 169.88 147.85 169.01 147.85 C 168.14 147.85 167.43 148.55 167.43 149.42 Z M 167.43 150.38 L 167.43 151.41 C 167.43 152.28 168.14 152.98 169.01 152.98 C 169.88 152.98 170.58 152.28 170.58 151.41 L 170.58 150.38 C 170.58 149.51 169.88 148.80 169.01 148.80 C 168.14 148.80 167.43 149.51 167.43 150.38 Z M 167.43 151.41 L 167.43 152.38 C 167.43 153.25 168.14 153.95 169.00 153.95 C 169.87 153.95 170.58 153.25 170.58 152.38 L 170.58 151.41 C 170.58 150.54 169.88 149.83 169.01 149.83 C 168.14 149.83 167.43 150.54 167.43 151.41 Z M 167.44 152.37 L 167.43 153.39 C 167.43 154.25 168.13 154.96 168.99 154.96 C 169.86 154.97 170.56 154.27 170.57 153.40 L 170.57 152.39 C 170.58 151.52 169.88 150.81 169.01 150.81 C 168.15 150.81 167.44 151.50 167.44 152.37 Z M 167.43 153.37 L 167.42 154.38 C 167.41 155.25 168.10 155.96 168.96 155.97 C 169.83 155.98 170.54 155.29 170.55 154.43 L 170.57 153.42 C 170.58 152.55 169.89 151.84 169.02 151.83 C 168.16 151.82 167.45 152.51 167.43 153.37 Z M 167.42 154.36 L 167.40 155.37 C 167.37 156.23 168.05 156.95 168.92 156.98 C 169.78 157.00 170.50 156.32 170.52 155.46 L 170.55 154.45 C 170.57 153.59 169.89 152.87 169.03 152.85 C 168.17 152.82 167.45 153.50 167.42 154.36 Z M 167.40 155.34 L 167.36 156.35 C 167.32 157.21 167.98 157.94 168.84 157.97 C 169.70 158.01 170.43 157.35 170.47 156.49 L 170.51 155.49 C 170.55 154.63 169.89 153.90 169.03 153.86 C 168.17 153.82 167.44 154.48 167.40 155.34 Z M 167.36 156.31 L 167.29 157.32 C 167.23 158.18 167.88 158.92 168.73 158.98 C 169.59 159.04 170.33 158.40 170.39 157.54 L 170.47 156.53 C 170.52 155.67 169.88 154.93 169.02 154.87 C 168.16 154.81 167.42 155.45 167.36 156.31 Z M 167.29 157.29 L 167.20 158.27 C 167.12 159.13 167.76 159.88 168.61 159.96 C 169.47 160.04 170.23 159.41 170.30 158.55 L 170.39 157.57 C 170.47 156.71 169.84 155.96 168.98 155.88 C 168.13 155.80 167.37 156.43 167.29 157.29 Z M 167.20 158.25 L 167.10 159.25 C 167.01 160.10 167.63 160.87 168.48 160.96 C 169.34 161.05 170.11 160.43 170.20 159.57 L 170.30 158.57 C 170.39 157.72 169.77 156.95 168.92 156.86 C 168.06 156.77 167.29 157.39 167.20 158.25 Z M 167.10 159.23 L 166.99 160.22 C 166.89 161.08 167.50 161.85 168.36 161.95 C 169.21 162.05 169.98 161.44 170.08 160.58 L 170.19 159.59 C 170.29 158.73 169.68 157.96 168.83 157.86 C 167.97 157.77 167.20 158.38 167.10 159.23 Z M 166.99 160.22 L 166.87 161.21 C 166.76 162.07 167.37 162.84 168.23 162.95 C 169.08 163.05 169.86 162.44 169.96 161.59 L 170.08 160.59 C 170.18 159.74 169.57 158.96 168.72 158.86 C 167.87 158.75 167.09 159.36 166.99 160.22 Z M 166.87 161.21 L 166.74 162.20 C 166.64 163.05 167.24 163.83 168.10 163.94 C 168.95 164.04 169.73 163.44 169.83 162.58 L 169.96 161.59 C 170.06 160.74 169.46 159.96 168.61 159.85 C 167.75 159.75 166.97 160.35 166.87 161.21 Z M 166.74 162.19 L 166.62 163.19 C 166.51 164.04 167.11 164.82 167.96 164.93 C 168.82 165.04 169.60 164.44 169.71 163.59 L 169.83 162.59 C 169.94 161.74 169.34 160.96 168.49 160.85 C 167.63 160.74 166.85 161.34 166.74 162.19 Z M 166.62 163.18 L 166.48 164.17 C 166.36 165.02 166.96 165.81 167.81 165.93 C 168.66 166.04 169.45 165.45 169.57 164.60 L 169.70 163.60 C 169.82 162.75 169.23 161.96 168.37 161.85 C 167.52 161.73 166.74 162.32 166.62 163.18 Z M 166.49 164.14 L 166.33 165.12 C 166.19 165.97 166.77 166.77 167.62 166.90 C 168.47 167.04 169.26 166.46 169.40 165.62 L 169.56 164.63 C 169.70 163.78 169.12 162.99 168.27 162.85 C 167.42 162.71 166.63 163.29 166.49 164.14 Z M 166.34 165.09 L 166.16 166.06 C 166.01 166.91 166.56 167.72 167.41 167.87 C 168.25 168.02 169.06 167.47 169.21 166.62 L 169.39 165.65 C 169.55 164.81 168.99 164.00 168.14 163.84 C 167.30 163.69 166.49 164.25 166.34 165.09 Z M 166.17 166.06 L 165.98 167.05 C 165.83 167.89 166.39 168.70 167.23 168.85 C 168.07 169.00 168.87 168.45 169.03 167.61 L 169.21 166.62 C 169.36 165.78 168.81 164.98 167.97 164.82 C 167.13 164.67 166.32 165.22 166.17 166.06 Z M 166.01 166.96 L 165.76 167.97 C 165.56 168.79 166.06 169.63 166.89 169.83 C 167.71 170.04 168.55 169.53 168.75 168.71 L 169.00 167.70 C 169.21 166.87 168.70 166.04 167.88 165.83 C 167.05 165.63 166.21 166.13 166.01 166.96 Z M 166.01 167.45 L 165.55 168.09 C 165.06 168.78 165.22 169.74 165.91 170.23 C 166.60 170.72 167.56 170.56 168.05 169.87 L 168.51 169.23 C 169.00 168.54 168.84 167.58 168.15 167.09 C 167.46 166.60 166.50 166.76 166.01 167.45 Z M 168.25 168.54 L 168.01 167.75 C 167.78 166.95 166.93 166.49 166.13 166.73 C 165.33 166.97 164.87 167.81 165.11 168.61 L 165.35 169.41 C 165.59 170.21 166.43 170.67 167.23 170.43 C 168.04 170.19 168.49 169.35 168.25 168.54 Z M 168.03 167.95 L 167.91 167.17 C 167.78 166.36 167.02 165.80 166.21 165.93 C 165.40 166.06 164.84 166.82 164.97 167.64 L 165.09 168.41 C 165.22 169.23 165.98 169.78 166.80 169.65 C 167.61 169.52 168.16 168.76 168.03 167.95 Z"
      fill="black"
      fill-rule="nonzero" /><path d="M 158.37 141.14 L 157.86 141.96 C 157.43 142.67 157.65 143.59 158.36 144.03 C 159.07 144.46 159.99 144.24 160.42 143.53 L 160.93 142.71 C 161.36 142.00 161.14 141.08 160.43 140.65 C 159.72 140.21 158.80 140.43 158.37 141.14 Z M 157.75 142.10 L 157.31 143.03 C 156.96 143.80 157.29 144.72 158.06 145.07 C 158.83 145.43 159.74 145.10 160.10 144.33 L 160.54 143.40 C 160.89 142.63 160.56 141.71 159.79 141.35 C 159.02 141.00 158.11 141.33 157.75 142.10 Z M 157.21 143.25 L 156.93 144.21 C 156.69 145.03 157.17 145.90 157.99 146.14 C 158.82 146.38 159.68 145.90 159.92 145.08 L 160.20 144.12 C 160.44 143.29 159.97 142.43 159.14 142.19 C 158.32 141.95 157.45 142.42 157.21 143.25 Z M 156.90 144.34 L 156.70 145.33 C 156.53 146.17 157.08 147.00 157.92 147.16 C 158.76 147.33 159.58 146.79 159.75 145.95 L 159.95 144.95 C 160.12 144.11 159.58 143.29 158.73 143.12 C 157.89 142.95 157.07 143.49 156.90 144.34 Z M 156.69 145.38 L 156.53 146.39 C 156.38 147.24 156.96 148.04 157.80 148.18 C 158.65 148.32 159.45 147.75 159.59 146.90 L 159.76 145.89 C 159.90 145.05 159.33 144.25 158.48 144.10 C 157.64 143.96 156.84 144.54 156.69 145.38 Z M 156.53 146.42 L 156.38 147.38 C 156.25 148.22 156.83 149.01 157.68 149.14 C 158.53 149.27 159.32 148.69 159.45 147.84 L 159.59 146.88 C 159.72 146.03 159.14 145.24 158.29 145.11 C 157.44 144.99 156.65 145.57 156.53 146.42 Z M 156.38 147.40 L 156.25 148.35 C 156.13 149.20 156.72 149.98 157.57 150.10 C 158.42 150.21 159.20 149.62 159.32 148.78 L 159.45 147.82 C 159.56 146.97 158.97 146.19 158.13 146.08 C 157.28 145.96 156.50 146.55 156.38 147.40 Z M 156.25 148.35 L 156.11 149.35 C 155.99 150.19 156.58 150.98 157.42 151.10 C 158.27 151.22 159.05 150.63 159.17 149.78 L 159.31 148.78 C 159.43 147.93 158.84 147.15 158.00 147.03 C 157.15 146.91 156.37 147.50 156.25 148.35 Z M 156.11 149.32 L 155.95 150.31 C 155.82 151.15 156.39 151.94 157.24 152.08 C 158.08 152.22 158.88 151.64 159.01 150.80 L 159.17 149.81 C 159.30 148.96 158.73 148.17 157.88 148.03 C 157.04 147.90 156.25 148.47 156.11 149.32 Z M 155.95 150.29 L 155.79 151.28 C 155.64 152.12 156.21 152.92 157.05 153.07 C 157.90 153.21 158.70 152.64 158.84 151.80 L 159.01 150.81 C 159.15 149.97 158.59 149.17 157.74 149.02 C 156.90 148.88 156.10 149.45 155.95 150.29 Z M 155.78 151.29 L 155.62 152.29 C 155.48 153.13 156.06 153.93 156.90 154.07 C 157.75 154.20 158.54 153.63 158.68 152.79 L 158.84 151.79 C 158.98 150.94 158.41 150.14 157.56 150.01 C 156.72 149.87 155.92 150.44 155.78 151.29 Z M 155.62 152.31 L 155.47 153.30 C 155.34 154.14 155.92 154.93 156.77 155.06 C 157.62 155.19 158.41 154.61 158.53 153.76 L 158.68 152.77 C 158.81 151.92 158.23 151.13 157.38 151.01 C 156.54 150.88 155.75 151.46 155.62 152.31 Z M 155.47 153.29 L 155.32 154.28 C 155.19 155.13 155.77 155.91 156.61 156.05 C 157.46 156.18 158.25 155.60 158.38 154.75 L 158.53 153.76 C 158.66 152.92 158.08 152.13 157.24 152.00 C 156.39 151.87 155.60 152.45 155.47 153.29 Z M 155.33 154.26 L 155.16 155.25 C 155.02 156.08 155.59 156.88 156.43 157.02 C 157.27 157.16 158.06 156.60 158.20 155.76 L 158.37 154.77 C 158.51 153.93 157.95 153.14 157.11 153.00 C 156.27 152.86 155.47 153.42 155.33 154.26 Z M 155.17 155.23 L 154.99 156.21 C 154.84 157.04 155.39 157.84 156.23 158.00 C 157.06 158.15 157.86 157.60 158.01 156.76 L 158.19 155.78 C 158.35 154.94 157.79 154.14 156.96 153.99 C 156.12 153.84 155.32 154.39 155.17 155.23 Z M 155.00 156.19 L 154.81 157.20 C 154.65 158.03 155.19 158.83 156.02 158.99 C 156.85 159.15 157.65 158.61 157.81 157.78 L 158.01 156.77 C 158.17 155.94 157.62 155.14 156.79 154.98 C 155.96 154.82 155.16 155.37 155.00 156.19 Z M 154.82 157.19 L 154.62 158.17 C 154.46 159.00 155.00 159.80 155.82 159.96 C 156.65 160.12 157.45 159.59 157.61 158.76 L 157.80 157.78 C 157.97 156.96 157.43 156.16 156.60 155.99 C 155.78 155.83 154.98 156.37 154.82 157.19 Z M 154.63 158.18 L 154.43 159.18 C 154.27 160.01 154.81 160.80 155.63 160.96 C 156.45 161.13 157.25 160.59 157.41 159.77 L 157.61 158.76 C 157.77 157.94 157.23 157.14 156.41 156.98 C 155.59 156.82 154.79 157.35 154.63 158.18 Z M 154.44 159.18 L 154.25 160.13 C 154.08 160.95 154.61 161.74 155.43 161.91 C 156.25 162.08 157.04 161.55 157.21 160.73 L 157.40 159.78 C 157.57 158.96 157.04 158.16 156.22 157.99 C 155.40 157.83 154.60 158.36 154.44 159.18 Z M 154.26 160.09 L 154.05 161.01 C 153.87 161.82 154.38 162.62 155.18 162.81 C 155.99 162.99 156.80 162.49 156.98 161.68 L 157.19 160.76 C 157.38 159.95 156.87 159.15 156.06 158.96 C 155.25 158.78 154.45 159.29 154.26 160.09 Z M 154.07 161.00 L 153.83 162.02 C 153.64 162.82 154.14 163.62 154.94 163.81 C 155.74 164.00 156.54 163.50 156.73 162.70 L 156.97 161.68 C 157.16 160.88 156.66 160.08 155.86 159.89 C 155.06 159.70 154.25 160.20 154.07 161.00 Z M 153.83 162.04 L 153.62 162.98 C 153.45 163.78 153.95 164.57 154.75 164.75 C 155.55 164.93 156.34 164.42 156.52 163.63 L 156.73 162.68 C 156.90 161.88 156.40 161.09 155.60 160.91 C 154.80 160.73 154.01 161.24 153.83 162.04 Z M 153.64 162.98 L 153.41 163.98 C 153.22 164.77 153.72 165.56 154.51 165.74 C 155.30 165.92 156.09 165.43 156.27 164.64 L 156.50 163.63 C 156.69 162.84 156.19 162.05 155.40 161.87 C 154.61 161.69 153.82 162.18 153.64 162.98 Z M 153.43 163.94 L 153.16 164.94 C 152.96 165.72 153.42 166.52 154.20 166.72 C 154.98 166.93 155.78 166.46 155.99 165.68 L 156.25 164.68 C 156.46 163.90 155.99 163.10 155.21 162.90 C 154.43 162.69 153.63 163.16 153.43 163.94 Z M 153.18 164.89 L 152.90 165.83 C 152.67 166.60 153.11 167.41 153.87 167.64 C 154.64 167.87 155.45 167.44 155.68 166.67 L 155.97 165.73 C 156.20 164.96 155.76 164.15 154.99 163.92 C 154.23 163.69 153.42 164.12 153.18 164.89 Z M 152.91 165.82 L 152.80 166.18 C 152.56 166.94 152.98 167.75 153.75 167.99 C 154.51 168.23 155.32 167.81 155.56 167.04 L 155.67 166.68 C 155.91 165.92 155.49 165.11 154.72 164.87 C 153.96 164.63 153.15 165.06 152.91 165.82 Z"
      fill="black"
      fill-rule="nonzero" /><path d="M 147.77 151.60 L 148.76 151.47 C 149.58 151.37 150.17 150.62 150.07 149.79 C 149.97 148.96 149.21 148.38 148.39 148.48 L 147.40 148.60 C 146.57 148.71 145.99 149.46 146.09 150.29 C 146.19 151.11 146.94 151.70 147.77 151.60 Z M 148.66 151.51 L 149.65 151.45 C 150.49 151.41 151.14 150.68 151.09 149.84 C 151.05 148.99 150.32 148.34 149.48 148.39 L 148.49 148.45 C 147.64 148.49 146.99 149.22 147.04 150.06 C 147.09 150.91 147.81 151.56 148.66 151.51 Z M 149.49 151.45 L 150.41 151.49 C 151.26 151.54 151.97 150.89 152.01 150.04 C 152.06 149.20 151.41 148.48 150.56 148.44 L 149.64 148.39 C 148.79 148.35 148.08 149.00 148.03 149.85 C 147.99 150.69 148.64 151.41 149.49 151.45 Z M 150.30 151.46 L 151.37 151.59 C 152.19 151.70 152.94 151.11 153.04 150.29 C 153.15 149.47 152.57 148.72 151.74 148.62 L 150.68 148.48 C 149.85 148.38 149.10 148.96 149.00 149.78 C 148.89 150.60 149.48 151.35 150.30 151.46 Z M 151.32 151.56 L 152.24 151.71 C 153.04 151.84 153.80 151.30 153.93 150.49 C 154.07 149.69 153.52 148.93 152.72 148.80 L 151.80 148.65 C 150.99 148.51 150.23 149.06 150.10 149.86 C 149.97 150.67 150.51 151.43 151.32 151.56 Z M 152.22 151.69 L 153.21 151.87 C 154.01 152.01 154.77 151.49 154.91 150.69 C 155.05 149.90 154.53 149.14 153.73 149.00 L 152.74 148.82 C 151.94 148.67 151.18 149.20 151.04 150.00 C 150.90 150.79 151.42 151.55 152.22 151.69 Z M 153.21 151.85 L 154.25 152.05 C 155.03 152.20 155.79 151.68 155.94 150.89 C 156.08 150.11 155.56 149.35 154.78 149.21 L 153.74 149.01 C 152.95 148.87 152.20 149.38 152.05 150.17 C 151.91 150.95 152.42 151.71 153.21 151.85 Z M 154.25 152.04 L 154.31 152.05 C 155.09 152.20 155.85 151.69 155.99 150.91 C 156.14 150.12 155.63 149.37 154.84 149.23 L 154.78 149.21 C 154.00 149.07 153.25 149.58 153.10 150.36 C 152.96 151.14 153.47 151.89 154.25 152.04 Z"
      fill="black"
      fill-rule="nonzero" /></svg>