<svg xmlns="http://www.w3.org/2000/svg" width="300" height="300" viewBox="0 0 300 300">
<path d="M 131.84 151.35 L 132.82 151.34 C 133.65 151.34 134.32 150.67 134.32 149.84 C 134.32 149.01 133.65 148.35 132.82 148.35 L 131.83 148.35 C 131.00 148.35 130.33 149.02 130.33 149.85 C 130.34 150.68 131.01 151.35 131.84 151.35 Z M 132.84 151.36 L 133.84 151.35 C 134.68 151.34 135.35 150.65 135.34 149.81 C 135.33 148.97 134.64 148.30 133.80 148.31 L 132.80 148.33 C 131.96 148.34 131.29 149.03 131.30 149.87 C 131.31 150.71 132.00 151.38 132.84 151.36 Z M 133.88 151.37 L 134.91 151.33 C 135.76 151.30 136.42 150.58 136.39 149.74 C 136.36 148.89 135.65 148.23 134.80 148.26 L 133.77 148.30 C 132.92 148.33 132.26 149.04 132.29 149.89 C 132.32 150.73 133.03 151.40 133.88 151.37 Z M 134.95 151.33 L 135.98 151.26 C 136.83 151.21 137.47 150.49 137.42 149.64 C 137.37 148.79 136.65 148.15 135.80 148.20 L 134.76 148.26 C 133.92 148.31 133.27 149.04 133.32 149.89 C 133.37 150.73 134.10 151.38 134.95 151.33 Z M 136.00 151.26 L 136.95 151.19 C 137.79 151.12 138.42 150.39 138.36 149.55 C 138.30 148.70 137.56 148.07 136.72 148.13 L 135.78 148.20 C 134.93 148.27 134.30 149.00 134.36 149.85 C 134.43 150.69 135.16 151.32 136.00 151.26 Z M 136.96 151.17 L 138.01 151.08 C 138.84 151.01 139.46 150.28 139.39 149.44 C 139.32 148.61 138.59 147.99 137.75 148.06 L 136.70 148.15 C 135.87 148.22 135.25 148.96 135.32 149.79 C 135.39 150.62 136.13 151.24 136.96 151.17 Z M 138.03 151.05 L 138.96 150.96 C 139.78 150.88 140.38 150.15 140.30 149.33 C 140.22 148.51 139.49 147.92 138.67 148.00 L 137.74 148.09 C 136.92 148.17 136.32 148.90 136.40 149.72 C 136.48 150.54 137.21 151.13 138.03 151.05 Z M 138.98 150.94 L 139.97 150.83 C 140.78 150.74 141.36 150.01 141.27 149.20 C 141.18 148.40 140.45 147.81 139.65 147.90 L 138.65 148.02 C 137.84 148.11 137.26 148.83 137.35 149.64 C 137.44 150.45 138.17 151.03 138.98 150.94 Z M 139.98 150.83 L 140.98 150.71 C 141.79 150.61 142.36 149.88 142.27 149.08 C 142.17 148.27 141.44 147.70 140.64 147.79 L 139.64 147.91 C 138.83 148.01 138.26 148.73 138.35 149.54 C 138.45 150.34 139.18 150.92 139.98 150.83 Z M 140.98 150.70 L 141.97 150.58 C 142.78 150.49 143.35 149.76 143.25 148.96 C 143.16 148.16 142.43 147.58 141.63 147.68 L 140.64 147.80 C 139.83 147.89 139.26 148.62 139.36 149.42 C 139.45 150.23 140.18 150.80 140.98 150.70 Z M 141.98 150.58 L 142.89 150.47 C 143.69 150.37 144.26 149.64 144.16 148.84 C 144.07 148.04 143.34 147.48 142.54 147.57 L 141.62 147.69 C 140.82 147.78 140.26 148.51 140.35 149.31 C 140.45 150.11 141.18 150.68 141.98 150.58 Z M 142.91 150.46 L 143.96 150.32 C 144.76 150.21 145.31 149.48 145.21 148.69 C 145.10 147.89 144.37 147.34 143.58 147.44 L 142.52 147.58 C 141.73 147.69 141.17 148.42 141.28 149.21 C 141.39 150.01 142.12 150.56 142.91 150.46 Z M 143.98 150.31 L 144.92 150.17 C 145.71 150.05 146.26 149.32 146.14 148.53 C 146.02 147.74 145.29 147.19 144.50 147.31 L 143.56 147.45 C 142.77 147.57 142.22 148.30 142.34 149.09 C 142.46 149.88 143.19 150.43 143.98 150.31 Z M 144.95 150.16 L 145.96 149.99 C 146.75 149.86 147.28 149.11 147.14 148.33 C 147.01 147.55 146.27 147.02 145.48 147.15 L 144.47 147.32 C 143.69 147.45 143.16 148.19 143.29 148.98 C 143.42 149.76 144.16 150.29 144.95 150.16 Z M 146.00 149.98 L 147.03 149.77 C 147.80 149.62 148.31 148.86 148.16 148.09 C 148.00 147.31 147.25 146.80 146.47 146.96 L 145.44 147.16 C 144.67 147.32 144.16 148.07 144.32 148.85 C 144.47 149.63 145.23 150.13 146.00 149.98 Z M 147.07 149.76 L 148.06 149.53 C 148.83 149.35 149.31 148.58 149.13 147.81 C 148.95 147.04 148.17 146.56 147.41 146.74 L 146.42 146.97 C 145.65 147.15 145.17 147.92 145.35 148.69 C 145.53 149.46 146.30 149.94 147.07 149.76 Z M 148.09 149.52 L 149.04 149.27 C 149.81 149.07 150.27 148.29 150.07 147.53 C 149.87 146.77 149.09 146.31 148.33 146.51 L 147.37 146.75 C 146.61 146.95 146.15 147.73 146.35 148.49 C 146.55 149.26 147.33 149.71 148.09 149.52 Z M 149.05 149.27 L 149.40 149.17 C 150.16 148.97 150.62 148.19 150.41 147.43 C 150.21 146.67 149.43 146.21 148.67 146.42 L 148.32 146.51 C 147.56 146.71 147.11 147.49 147.31 148.25 C 147.51 149.02 148.29 149.47 149.05 149.27 Z"
      fill="black"
      fill-rule="nonzero" /><path d="M 140.15 143.57 L 139.61 144.35 C 139.14 145.04 139.31 145.98 140.00 146.45 C 140.69 146.92 141.62 146.75 142.10 146.06 L 142.63 145.28 C 143.11 144.60 142.93 143.66 142.25 143.19 C 141.56 142.71 140.62 142.89 140.15 143.57 Z M 139.42 144.71 L 139.08 145.69 C 138.80 146.48 139.22 147.34 140.01 147.62 C 140.80 147.90 141.67 147.48 141.94 146.69 L 142.29 145.71 C 142.56 144.92 142.15 144.05 141.36 143.78 C 140.57 143.50 139.70 143.92 139.42 144.71 Z M 138.99 146.11 L 138.94 147.09 C 138.89 147.93 139.54 148.65 140.38 148.69 C 141.22 148.74 141.93 148.09 141.98 147.25 L 142.03 146.27 C 142.08 145.43 141.43 144.71 140.59 144.67 C 139.75 144.62 139.04 145.27 138.99 146.11 Z M 138.94 147.27 L 139.01 148.30 C 139.06 149.14 139.79 149.78 140.63 149.72 C 141.47 149.67 142.10 148.94 142.05 148.11 L 141.98 147.07 C 141.92 146.23 141.20 145.60 140.36 145.65 C 139.52 145.71 138.88 146.43 138.94 147.27 Z M 139.01 148.36 L 139.12 149.41 C 139.20 150.24 139.95 150.85 140.78 150.77 C 141.62 150.69 142.23 149.94 142.14 149.11 L 142.04 148.05 C 141.96 147.22 141.21 146.61 140.38 146.69 C 139.54 146.77 138.93 147.52 139.01 148.36 Z M 139.12 149.39 L 139.21 150.34 C 139.28 151.18 140.02 151.79 140.85 151.72 C 141.69 151.64 142.30 150.90 142.23 150.07 L 142.14 149.12 C 142.07 148.29 141.33 147.67 140.49 147.75 C 139.66 147.82 139.05 148.56 139.12 149.39 Z M 139.21 150.32 L 139.29 151.26 C 139.35 152.09 140.08 152.72 140.91 152.65 C 141.74 152.59 142.36 151.86 142.30 151.03 L 142.22 150.09 C 142.16 149.26 141.43 148.64 140.60 148.70 C 139.77 148.77 139.15 149.49 139.21 150.32 Z M 139.29 151.24 L 139.35 152.26 C 139.41 153.09 140.12 153.72 140.95 153.67 C 141.78 153.62 142.41 152.90 142.35 152.07 L 142.29 151.05 C 142.24 150.22 141.53 149.59 140.70 149.65 C 139.87 149.70 139.24 150.41 139.29 151.24 Z M 139.36 152.23 L 139.40 153.20 C 139.43 154.03 140.13 154.67 140.96 154.63 C 141.78 154.60 142.42 153.90 142.39 153.08 L 142.35 152.11 C 142.31 151.28 141.62 150.64 140.79 150.67 C 139.97 150.71 139.33 151.40 139.36 152.23 Z M 139.40 153.17 L 139.43 154.20 C 139.45 155.03 140.13 155.68 140.95 155.66 C 141.78 155.64 142.43 154.96 142.41 154.13 L 142.38 153.10 C 142.37 152.28 141.68 151.63 140.86 151.65 C 140.04 151.67 139.39 152.35 139.40 153.17 Z M 139.43 154.18 L 139.44 155.19 C 139.45 156.01 140.12 156.67 140.94 156.66 C 141.76 156.65 142.42 155.98 142.42 155.16 L 142.41 154.16 C 142.40 153.33 141.73 152.67 140.91 152.68 C 140.08 152.69 139.42 153.36 139.43 154.18 Z M 139.44 155.17 L 139.44 156.17 C 139.44 157.00 140.11 157.66 140.93 157.66 C 141.75 157.66 142.42 156.99 142.42 156.17 L 142.42 155.17 C 142.42 154.35 141.75 153.68 140.92 153.68 C 140.10 153.68 139.44 154.35 139.44 155.17 Z M 139.44 156.17 L 139.44 157.19 C 139.44 158.01 140.10 158.68 140.93 158.68 C 141.75 158.68 142.42 158.01 142.42 157.19 L 142.42 156.17 C 142.42 155.35 141.75 154.68 140.93 154.68 C 140.10 154.68 139.44 155.35 139.44 156.17 Z M 139.44 157.19 L 139.44 158.17 C 139.44 158.99 140.10 159.66 140.93 159.66 C 141.75 159.66 142.42 158.99 142.42 158.17 L 142.42 157.19 C 142.42 156.36 141.75 155.70 140.93 155.70 C 140.10 155.70 139.44 156.36 139.44 157.19 Z M 139.44 158.17 L 139.44 159.18 C 139.44 160.00 140.11 160.67 140.93 160.67 C 141.75 160.67 142.42 160.00 142.42 159.18 L 142.42 158.17 C 142.42 157.35 141.75 156.68 140.93 156.68 C 140.11 156.68 139.44 157.35 139.44 158.17 Z M 139.44 159.18 L 139.44 160.17 C 139.44 160.99 140.11 161.66 140.93 161.66 C 141.75 161.66 142.41 160.99 142.41 160.17 L 142.41 159.18 C 142.41 158.36 141.75 157.69 140.93 157.69 C 140.11 157.69 139.44 158.36 139.44 159.18 Z M 139.45 160.17 L 139.44 161.19 C 139.44 162.00 140.10 162.67 140.92 162.67 C 141.74 162.67 142.40 162.01 142.41 161.19 L 142.41 160.18 C 142.41 159.36 141.75 158.69 140.93 158.69 C 140.11 158.69 139.45 159.35 139.45 160.17 Z M 139.45 161.16 L 139.43 162.10 C 139.42 162.91 140.07 163.59 140.89 163.60 C 141.70 163.61 142.37 162.96 142.39 162.15 L 142.40 161.21 C 142.42 160.40 141.77 159.73 140.95 159.71 C 140.14 159.70 139.46 160.35 139.45 161.16 Z M 139.44 162.02 L 139.37 162.97 C 139.32 163.78 139.93 164.48 140.74 164.54 C 141.55 164.60 142.26 163.99 142.31 163.17 L 142.38 162.23 C 142.44 161.41 141.83 160.71 141.01 160.65 C 140.20 160.60 139.50 161.21 139.44 162.02 Z M 139.38 162.86 L 139.21 164.03 C 139.09 164.83 139.65 165.58 140.46 165.70 C 141.26 165.82 142.01 165.26 142.13 164.46 L 142.30 163.29 C 142.42 162.48 141.87 161.73 141.06 161.61 C 140.25 161.49 139.50 162.05 139.38 162.86 Z M 139.22 163.94 L 138.99 165.06 C 138.83 165.86 139.34 166.65 140.15 166.81 C 140.95 166.97 141.73 166.46 141.90 165.65 L 142.13 164.54 C 142.29 163.74 141.77 162.95 140.97 162.79 C 140.17 162.62 139.38 163.14 139.22 163.94 Z M 139.07 164.76 L 138.86 165.25 C 138.53 166.01 138.88 166.89 139.64 167.22 C 140.40 167.54 141.29 167.19 141.61 166.43 L 141.82 165.95 C 142.15 165.19 141.80 164.31 141.04 163.98 C 140.27 163.65 139.39 164.00 139.07 164.76 Z M 141.75 166.00 L 141.86 164.93 C 141.95 164.10 141.34 163.35 140.51 163.26 C 139.67 163.17 138.92 163.78 138.83 164.62 L 138.72 165.68 C 138.63 166.52 139.24 167.27 140.08 167.36 C 140.91 167.44 141.67 166.84 141.75 166.00 Z M 141.74 165.44 L 142.16 164.55 C 142.53 163.78 142.20 162.86 141.43 162.49 C 140.66 162.13 139.74 162.46 139.37 163.23 L 138.95 164.11 C 138.59 164.88 138.92 165.80 139.69 166.17 C 140.46 166.53 141.38 166.21 141.74 165.44 Z M 142.02 164.79 L 142.61 163.97 C 143.11 163.28 142.96 162.32 142.27 161.82 C 141.58 161.32 140.61 161.47 140.11 162.16 L 139.52 162.98 C 139.02 163.68 139.17 164.64 139.86 165.14 C 140.55 165.64 141.52 165.48 142.02 164.79 Z M 142.54 164.06 L 143.18 163.30 C 143.73 162.65 143.65 161.68 143.00 161.13 C 142.35 160.58 141.38 160.66 140.83 161.31 L 140.19 162.07 C 139.64 162.72 139.72 163.69 140.37 164.24 C 141.02 164.79 141.99 164.71 142.54 164.06 Z M 143.14 163.34 L 143.81 162.60 C 144.38 161.98 144.34 161.01 143.72 160.43 C 143.09 159.86 142.12 159.91 141.55 160.53 L 140.87 161.27 C 140.30 161.90 140.34 162.87 140.97 163.44 C 141.59 164.01 142.56 163.97 143.14 163.34 Z M 143.78 162.62 L 144.46 161.91 C 145.04 161.30 145.02 160.33 144.41 159.75 C 143.80 159.17 142.84 159.19 142.25 159.80 L 141.58 160.51 C 140.99 161.12 141.02 162.09 141.63 162.67 C 142.24 163.25 143.20 163.23 143.78 162.62 Z M 144.43 161.93 L 145.15 161.21 C 145.74 160.62 145.75 159.66 145.16 159.07 C 144.57 158.48 143.61 158.47 143.02 159.06 L 142.29 159.78 C 141.70 160.37 141.69 161.33 142.28 161.92 C 142.87 162.52 143.83 162.52 144.43 161.93 Z M 145.11 161.23 L 145.83 160.56 C 146.43 160.00 146.46 159.04 145.90 158.44 C 145.33 157.83 144.38 157.80 143.77 158.37 L 143.06 159.04 C 142.45 159.61 142.42 160.56 142.99 161.16 C 143.55 161.77 144.50 161.80 145.11 161.23 Z M 145.81 160.56 L 146.55 159.88 C 147.16 159.33 147.20 158.38 146.64 157.78 C 146.09 157.17 145.15 157.13 144.54 157.68 L 143.79 158.37 C 143.19 158.92 143.15 159.86 143.70 160.47 C 144.26 161.08 145.20 161.12 145.81 160.56 Z M 146.55 159.86 L 147.29 159.18 C 147.89 158.62 147.92 157.69 147.36 157.09 C 146.81 156.49 145.88 156.46 145.28 157.02 L 144.54 157.70 C 143.94 158.26 143.91 159.19 144.47 159.79 C 145.02 160.38 145.95 160.42 146.55 159.86 Z M 147.29 159.15 L 148.02 158.46 C 148.60 157.90 148.62 156.98 148.06 156.40 C 147.51 155.81 146.58 155.79 146.00 156.35 L 145.28 157.04 C 144.69 157.60 144.67 158.52 145.23 159.10 C 145.79 159.69 146.71 159.71 147.29 159.15 Z M 148.02 158.44 L 148.73 157.74 C 149.31 157.18 149.32 156.26 148.76 155.69 C 148.20 155.12 147.29 155.11 146.72 155.67 L 146.00 156.37 C 145.43 156.93 145.42 157.84 145.98 158.41 C 146.53 158.98 147.45 158.99 148.02 158.44 Z M 148.74 157.72 L 149.45 157.01 C 150.01 156.45 150.01 155.55 149.45 154.98 C 148.89 154.42 147.98 154.42 147.42 154.98 L 146.71 155.69 C 146.15 156.24 146.15 157.15 146.71 157.72 C 147.27 158.28 148.18 158.28 148.74 157.72 Z M 149.45 157.01 L 150.05 156.40 C 150.61 155.84 150.60 154.94 150.05 154.38 C 149.49 153.82 148.58 153.82 148.02 154.38 L 147.42 154.99 C 146.87 155.55 146.87 156.45 147.43 157.01 C 147.99 157.57 148.89 157.56 149.45 157.01 Z"
      fill="black"
      fill-rule="nonzero" /><path d="M 148.15 127.96 L 149.07 128.11 C 149.89 128.24 150.66 127.68 150.79 126.86 C 150.92 126.04 150.36 125.27 149.54 125.14 L 148.63 124.99 C 147.81 124.86 147.03 125.42 146.90 126.24 C 146.77 127.06 147.33 127.83 148.15 127.96 Z M 148.74 128.04 L 149.71 128.43 C 150.49 128.74 151.38 128.37 151.69 127.58 C 152.01 126.80 151.63 125.91 150.84 125.60 L 149.87 125.21 C 149.09 124.89 148.20 125.27 147.89 126.06 C 147.57 126.84 147.95 127.73 148.74 128.04 Z M 149.43 128.27 L 150.19 128.78 C 150.89 129.25 151.83 129.07 152.29 128.37 C 152.76 127.68 152.58 126.74 151.88 126.27 L 151.12 125.76 C 150.43 125.29 149.48 125.47 149.02 126.17 C 148.55 126.86 148.73 127.80 149.43 128.27 Z M 150.11 128.68 L 150.92 129.33 C 151.55 129.84 152.48 129.74 152.99 129.11 C 153.51 128.47 153.41 127.54 152.77 127.03 L 151.96 126.38 C 151.33 125.87 150.40 125.96 149.89 126.60 C 149.37 127.23 149.47 128.16 150.11 128.68 Z M 150.91 129.28 L 151.46 129.75 C 152.07 130.27 152.98 130.20 153.50 129.59 C 154.02 128.99 153.95 128.08 153.34 127.56 L 152.78 127.08 C 152.18 126.56 151.27 126.63 150.75 127.24 C 150.23 127.85 150.30 128.76 150.91 129.28 Z"
      fill="black"
      fill-rule="nonzero" /><path d="M 167.69 123.49 L 167.03 124.23 C 166.48 124.85 166.53 125.81 167.16 126.36 C 167.78 126.92 168.74 126.86 169.30 126.24 L 169.95 125.50 C 170.51 124.88 170.45 123.92 169.82 123.36 C 169.20 122.81 168.24 122.86 167.69 123.49 Z M 167.00 124.22 L 166.35 124.98 C 165.79 125.62 165.86 126.59 166.50 127.15 C 167.14 127.71 168.11 127.64 168.67 127.00 L 169.33 126.24 C 169.88 125.60 169.81 124.63 169.17 124.07 C 168.53 123.51 167.56 123.58 167.00 124.22 Z M 166.32 125.01 L 165.66 125.80 C 165.12 126.45 165.21 127.42 165.86 127.97 C 166.52 128.51 167.49 128.42 168.03 127.77 L 168.69 126.97 C 169.24 126.32 169.15 125.35 168.49 124.81 C 167.84 124.26 166.87 124.35 166.32 125.01 Z M 165.67 125.84 L 165.03 126.64 C 164.51 127.29 164.61 128.24 165.26 128.76 C 165.91 129.28 166.86 129.18 167.38 128.53 L 168.02 127.73 C 168.55 127.08 168.44 126.13 167.79 125.61 C 167.14 125.08 166.19 125.19 165.67 125.84 Z M 165.06 126.67 L 164.46 127.42 C 163.95 128.05 164.05 128.97 164.68 129.48 C 165.31 129.99 166.24 129.88 166.74 129.25 L 167.35 128.50 C 167.85 127.87 167.75 126.95 167.12 126.44 C 166.49 125.93 165.57 126.03 165.06 126.67 Z M 164.49 127.42 L 163.84 128.21 C 163.33 128.82 163.42 129.73 164.03 130.24 C 164.65 130.74 165.55 130.65 166.06 130.04 L 166.71 129.25 C 167.22 128.64 167.13 127.73 166.52 127.23 C 165.90 126.72 164.99 126.81 164.49 127.42 Z M 163.85 128.21 L 163.24 128.94 C 162.73 129.55 162.81 130.45 163.42 130.96 C 164.02 131.46 164.92 131.38 165.43 130.78 L 166.05 130.04 C 166.55 129.44 166.47 128.54 165.87 128.03 C 165.26 127.52 164.36 127.60 163.85 128.21 Z M 163.24 128.95 L 162.61 129.71 C 162.10 130.31 162.18 131.21 162.79 131.72 C 163.39 132.22 164.29 132.14 164.80 131.53 L 165.43 130.77 C 165.94 130.17 165.85 129.27 165.25 128.76 C 164.64 128.26 163.74 128.34 163.24 128.95 Z M 162.60 129.71 L 162.05 130.37 C 161.55 130.98 161.63 131.88 162.24 132.38 C 162.85 132.88 163.74 132.80 164.25 132.19 L 164.80 131.53 C 165.30 130.92 165.22 130.02 164.61 129.52 C 164.01 129.02 163.11 129.10 162.60 129.71 Z"
      fill="black"
      fill-rule="nonzero" /><path d="M 144.63 138.33 L 145.17 138.99 C 145.70 139.64 146.66 139.73 147.31 139.20 C 147.96 138.67 148.05 137.71 147.52 137.06 L 146.98 136.41 C 146.45 135.76 145.49 135.66 144.84 136.20 C 144.20 136.73 144.10 137.69 144.63 138.33 Z M 145.27 139.10 L 146.07 139.90 C 146.67 140.50 147.63 140.50 148.23 139.90 C 148.82 139.31 148.82 138.34 148.23 137.75 L 147.42 136.95 C 146.83 136.35 145.86 136.35 145.27 136.95 C 144.67 137.54 144.67 138.51 145.27 139.10 Z M 146.15 139.97 L 146.85 140.58 C 147.48 141.13 148.44 141.07 148.99 140.44 C 149.54 139.81 149.48 138.85 148.85 138.29 L 148.15 137.68 C 147.52 137.13 146.56 137.20 146.01 137.83 C 145.46 138.46 145.52 139.42 146.15 139.97 Z M 146.88 140.60 L 147.68 141.26 C 148.32 141.79 149.27 141.71 149.80 141.07 C 150.34 140.43 150.25 139.48 149.61 138.94 L 148.81 138.28 C 148.17 137.75 147.22 137.83 146.69 138.47 C 146.16 139.11 146.24 140.06 146.88 140.60 Z M 147.70 141.26 L 148.51 141.92 C 149.16 142.45 150.10 142.35 150.62 141.71 C 151.14 141.07 151.04 140.12 150.40 139.60 L 149.59 138.94 C 148.95 138.42 148.01 138.52 147.49 139.16 C 146.96 139.80 147.06 140.74 147.70 141.26 Z M 148.53 141.92 L 149.30 142.54 C 149.94 143.06 150.87 142.96 151.39 142.32 C 151.90 141.69 151.80 140.75 151.17 140.24 L 150.39 139.61 C 149.76 139.09 148.82 139.19 148.30 139.83 C 147.79 140.47 147.89 141.40 148.53 141.92 Z M 149.31 142.53 L 150.05 143.13 C 150.68 143.64 151.61 143.55 152.12 142.92 C 152.63 142.28 152.53 141.36 151.90 140.85 L 151.16 140.25 C 150.53 139.74 149.60 139.83 149.09 140.47 C 148.58 141.10 148.68 142.02 149.31 142.53 Z M 150.06 143.12 L 150.84 143.75 C 151.46 144.26 152.38 144.17 152.89 143.54 C 153.39 142.92 153.30 142.00 152.67 141.49 L 151.89 140.86 C 151.27 140.35 150.35 140.45 149.85 141.07 C 149.34 141.70 149.43 142.61 150.06 143.12 Z M 150.84 143.74 L 151.60 144.36 C 152.22 144.86 153.13 144.77 153.63 144.15 C 154.13 143.53 154.04 142.62 153.42 142.12 L 152.67 141.50 C 152.05 141.00 151.14 141.09 150.64 141.71 C 150.13 142.33 150.23 143.24 150.84 143.74 Z M 151.60 144.35 L 152.33 144.95 C 152.95 145.45 153.85 145.36 154.35 144.74 C 154.86 144.13 154.77 143.22 154.15 142.72 L 153.42 142.13 C 152.81 141.62 151.90 141.72 151.40 142.33 C 150.90 142.95 150.99 143.85 151.60 144.35 Z M 152.33 144.95 L 153.12 145.59 C 153.73 146.09 154.63 146.00 155.13 145.38 C 155.64 144.77 155.55 143.87 154.93 143.37 L 154.15 142.73 C 153.54 142.22 152.63 142.31 152.13 142.93 C 151.63 143.54 151.72 144.44 152.33 144.95 Z M 153.12 145.58 L 153.94 146.25 C 154.55 146.75 155.45 146.66 155.95 146.05 C 156.45 145.44 156.36 144.54 155.75 144.04 L 154.93 143.37 C 154.32 142.87 153.42 142.96 152.92 143.57 C 152.42 144.18 152.51 145.08 153.12 145.58 Z M 153.94 146.25 L 154.60 146.79 C 155.21 147.29 156.11 147.20 156.61 146.59 C 157.11 145.98 157.02 145.08 156.41 144.58 L 155.75 144.04 C 155.14 143.54 154.24 143.63 153.74 144.24 C 153.24 144.85 153.33 145.75 153.94 146.25 Z"
      fill="black"
      fill-rule="nonzero" /><path d="M 151.71 140.53 L 152.74 140.60 C 153.58 140.66 154.31 140.02 154.37 139.18 C 154.43 138.34 153.79 137.61 152.95 137.55 L 151.92 137.48 C 151.08 137.43 150.35 138.06 150.29 138.90 C 150.23 139.75 150.87 140.47 151.71 140.53 Z M 152.76 140.64 L 153.73 140.69 C 154.59 140.73 155.33 140.07 155.37 139.21 C 155.42 138.35 154.76 137.62 153.90 137.57 L 152.93 137.52 C 152.07 137.47 151.33 138.14 151.29 139.00 C 151.24 139.86 151.90 140.59 152.76 140.64 Z M 153.80 140.70 L 154.81 140.71 C 155.68 140.71 156.39 140.01 156.39 139.15 C 156.40 138.28 155.70 137.57 154.83 137.57 L 153.82 137.56 C 152.96 137.55 152.25 138.25 152.24 139.12 C 152.24 139.99 152.94 140.70 153.80 140.70 Z M 154.96 140.69 L 155.92 140.61 C 156.77 140.53 157.41 139.77 157.33 138.91 C 157.25 138.05 156.49 137.42 155.64 137.50 L 154.68 137.58 C 153.82 137.66 153.19 138.42 153.27 139.28 C 153.34 140.14 154.10 140.77 154.96 140.69 Z M 156.03 140.58 L 157.02 140.42 C 157.86 140.28 158.43 139.48 158.29 138.63 C 158.15 137.78 157.35 137.21 156.50 137.35 L 155.52 137.52 C 154.67 137.66 154.10 138.46 154.24 139.31 C 154.38 140.15 155.19 140.73 156.03 140.58 Z M 157.04 140.41 L 158.03 140.23 C 158.87 140.07 159.43 139.26 159.27 138.42 C 159.11 137.58 158.30 137.02 157.46 137.18 L 156.47 137.36 C 155.63 137.52 155.08 138.33 155.23 139.17 C 155.39 140.01 156.20 140.57 157.04 140.41 Z M 158.02 140.23 L 159.01 140.05 C 159.85 139.89 160.41 139.09 160.25 138.24 C 160.10 137.40 159.29 136.84 158.45 136.99 L 157.46 137.18 C 156.62 137.33 156.06 138.14 156.21 138.98 C 156.37 139.83 157.18 140.38 158.02 140.23 Z M 159.01 140.05 L 160.01 139.86 C 160.86 139.71 161.42 138.90 161.26 138.06 C 161.11 137.21 160.30 136.66 159.45 136.81 L 158.45 137.00 C 157.60 137.15 157.05 137.96 157.20 138.80 C 157.35 139.64 158.16 140.20 159.01 140.05 Z M 160.01 139.86 L 161.00 139.68 C 161.84 139.52 162.39 138.72 162.24 137.88 C 162.09 137.04 161.28 136.48 160.44 136.64 L 159.46 136.82 C 158.62 136.97 158.06 137.78 158.21 138.62 C 158.37 139.46 159.17 140.01 160.01 139.86 Z M 160.99 139.67 L 161.98 139.49 C 162.82 139.34 163.38 138.54 163.22 137.70 C 163.07 136.87 162.27 136.31 161.44 136.46 L 160.45 136.64 C 159.61 136.79 159.05 137.59 159.20 138.43 C 159.36 139.27 160.16 139.82 160.99 139.67 Z M 161.97 139.49 L 162.96 139.31 C 163.80 139.16 164.35 138.37 164.21 137.54 C 164.06 136.71 163.27 136.15 162.43 136.30 L 161.44 136.47 C 160.61 136.62 160.06 137.41 160.20 138.24 C 160.35 139.08 161.14 139.63 161.97 139.49 Z M 162.96 139.30 L 163.94 139.13 C 164.77 138.99 165.32 138.21 165.18 137.38 C 165.04 136.55 164.25 135.99 163.42 136.14 L 162.44 136.30 C 161.61 136.45 161.06 137.23 161.20 138.06 C 161.34 138.89 162.13 139.45 162.96 139.30 Z M 163.93 139.13 L 164.92 138.96 C 165.74 138.82 166.30 138.04 166.16 137.22 C 166.02 136.39 165.24 135.84 164.41 135.98 L 163.43 136.14 C 162.60 136.28 162.05 137.06 162.19 137.89 C 162.33 138.71 163.11 139.27 163.93 139.13 Z M 164.92 138.96 L 165.91 138.79 C 166.73 138.65 167.28 137.87 167.15 137.05 C 167.01 136.23 166.23 135.67 165.41 135.81 L 164.42 135.98 C 163.59 136.12 163.04 136.90 163.18 137.72 C 163.32 138.54 164.10 139.10 164.92 138.96 Z M 165.91 138.79 L 166.90 138.62 C 167.72 138.48 168.27 137.70 168.13 136.88 C 167.99 136.06 167.21 135.51 166.39 135.65 L 165.40 135.82 C 164.58 135.96 164.03 136.73 164.17 137.55 C 164.31 138.38 165.09 138.93 165.91 138.79 Z M 166.90 138.62 L 167.90 138.45 C 168.72 138.30 169.27 137.53 169.13 136.71 C 168.99 135.89 168.21 135.34 167.39 135.48 L 166.39 135.65 C 165.57 135.79 165.02 136.57 165.16 137.39 C 165.30 138.21 166.08 138.76 166.90 138.62 Z M 167.89 138.45 L 168.86 138.29 C 169.68 138.15 170.23 137.38 170.10 136.56 C 169.96 135.74 169.19 135.18 168.37 135.32 L 167.40 135.47 C 166.58 135.61 166.02 136.38 166.16 137.20 C 166.29 138.03 167.07 138.58 167.89 138.45 Z M 168.83 138.29 L 169.85 138.14 C 170.67 138.02 171.24 137.26 171.12 136.44 C 171.00 135.61 170.23 135.04 169.41 135.16 L 168.39 135.31 C 167.57 135.43 167.00 136.20 167.12 137.02 C 167.24 137.84 168.01 138.41 168.83 138.29 Z M 169.82 138.14 L 170.79 138.02 C 171.61 137.91 172.19 137.16 172.09 136.33 C 171.98 135.51 171.23 134.93 170.40 135.04 L 169.43 135.16 C 168.61 135.27 168.03 136.02 168.14 136.85 C 168.24 137.67 169.00 138.25 169.82 138.14 Z M 170.77 138.02 L 171.71 137.91 C 172.54 137.82 173.13 137.07 173.03 136.25 C 172.94 135.42 172.19 134.83 171.37 134.93 L 170.42 135.04 C 169.60 135.13 169.01 135.88 169.10 136.70 C 169.20 137.52 169.94 138.11 170.77 138.02 Z M 171.67 137.91 L 172.70 137.82 C 173.52 137.75 174.13 137.02 174.06 136.20 C 173.99 135.37 173.26 134.76 172.43 134.83 L 171.41 134.93 C 170.58 135.00 169.97 135.73 170.05 136.55 C 170.12 137.38 170.85 137.99 171.67 137.91 Z M 172.66 137.82 L 173.66 137.76 C 174.49 137.71 175.12 137.00 175.07 136.18 C 175.02 135.35 174.31 134.72 173.48 134.77 L 172.48 134.83 C 171.65 134.88 171.02 135.59 171.07 136.42 C 171.12 137.24 171.83 137.87 172.66 137.82 Z M 173.62 137.76 L 174.65 137.73 C 175.47 137.70 176.12 137.01 176.09 136.19 C 176.07 135.36 175.38 134.71 174.55 134.74 L 173.53 134.77 C 172.70 134.80 172.05 135.49 172.08 136.31 C 172.10 137.14 172.79 137.79 173.62 137.76 Z M 174.57 137.73 L 175.68 137.76 C 176.51 137.77 177.19 137.12 177.21 136.29 C 177.23 135.47 176.57 134.78 175.75 134.76 L 174.63 134.74 C 173.81 134.72 173.12 135.38 173.10 136.20 C 173.09 137.03 173.74 137.71 174.57 137.73 Z M 175.29 137.69 L 176.14 137.95 C 176.94 138.19 177.77 137.74 178.01 136.95 C 178.24 136.15 177.79 135.32 177.00 135.08 L 176.14 134.83 C 175.35 134.59 174.52 135.04 174.28 135.83 C 174.05 136.62 174.50 137.46 175.29 137.69 Z M 175.07 136.49 L 175.06 137.17 C 175.05 138.00 175.71 138.68 176.54 138.69 C 177.36 138.71 178.05 138.05 178.06 137.22 L 178.07 136.54 C 178.09 135.71 177.43 135.03 176.60 135.02 C 175.77 135.00 175.09 135.66 175.07 136.49 Z M 175.35 136.29 L 174.65 137.23 C 174.15 137.90 174.29 138.84 174.96 139.34 C 175.62 139.84 176.57 139.70 177.07 139.03 L 177.77 138.09 C 178.27 137.43 178.13 136.48 177.46 135.99 C 176.80 135.49 175.85 135.62 175.35 136.29 Z M 174.80 137.06 L 174.11 137.74 C 173.52 138.32 173.51 139.28 174.10 139.87 C 174.69 140.47 175.64 140.47 176.24 139.89 L 176.92 139.21 C 177.52 138.62 177.52 137.66 176.93 137.07 C 176.35 136.48 175.39 136.47 174.80 137.06 Z M 174.17 137.68 L 173.39 138.37 C 172.76 138.92 172.71 139.88 173.26 140.51 C 173.82 141.13 174.77 141.19 175.40 140.63 L 176.18 139.94 C 176.80 139.39 176.86 138.43 176.31 137.81 C 175.75 137.18 174.79 137.12 174.17 137.68 Z M 173.42 138.33 L 172.62 139.00 C 171.98 139.54 171.89 140.50 172.42 141.14 C 172.96 141.78 173.92 141.87 174.56 141.34 L 175.37 140.67 C 176.01 140.13 176.10 139.18 175.56 138.53 C 175.03 137.89 174.07 137.80 173.42 138.33 Z M 172.65 138.98 L 171.85 139.61 C 171.19 140.13 171.08 141.09 171.60 141.75 C 172.12 142.40 173.08 142.52 173.73 141.99 L 174.53 141.36 C 175.19 140.84 175.30 139.88 174.78 139.23 C 174.26 138.57 173.31 138.46 172.65 138.98 Z M 171.88 139.59 L 171.10 140.17 C 170.43 140.68 170.30 141.63 170.80 142.30 C 171.31 142.97 172.26 143.11 172.93 142.60 L 173.71 142.02 C 174.38 141.51 174.51 140.56 174.00 139.89 C 173.50 139.22 172.55 139.08 171.88 139.59 Z M 171.13 140.15 L 170.33 140.73 C 169.65 141.22 169.50 142.17 169.99 142.85 C 170.48 143.53 171.43 143.68 172.11 143.19 L 172.91 142.62 C 173.59 142.13 173.74 141.18 173.25 140.50 C 172.76 139.82 171.81 139.66 171.13 140.15 Z M 170.36 140.71 L 169.53 141.28 C 168.84 141.75 168.67 142.70 169.14 143.39 C 169.62 144.08 170.56 144.25 171.25 143.78 L 172.08 143.21 C 172.77 142.74 172.95 141.79 172.47 141.10 C 172.00 140.41 171.05 140.24 170.36 140.71 Z M 169.57 141.26 L 168.73 141.81 C 168.02 142.26 167.82 143.20 168.28 143.90 C 168.74 144.60 169.67 144.80 170.38 144.35 L 171.22 143.80 C 171.92 143.34 172.12 142.41 171.67 141.70 C 171.21 141.00 170.27 140.80 169.57 141.26 Z M 168.77 141.79 L 167.89 142.32 C 167.17 142.75 166.94 143.68 167.37 144.39 C 167.81 145.10 168.73 145.33 169.44 144.90 L 170.33 144.37 C 171.04 143.94 171.27 143.01 170.84 142.30 C 170.41 141.58 169.48 141.36 168.77 141.79 Z M 167.94 142.30 L 167.08 142.77 C 166.36 143.17 166.10 144.08 166.49 144.81 C 166.89 145.53 167.81 145.80 168.53 145.40 L 169.39 144.92 C 170.11 144.52 170.38 143.61 169.98 142.89 C 169.58 142.16 168.67 141.90 167.94 142.30 Z M 167.16 142.75 L 166.24 143.19 C 165.50 143.55 165.19 144.44 165.55 145.17 C 165.91 145.91 166.79 146.22 167.53 145.87 L 168.45 145.42 C 169.19 145.07 169.50 144.18 169.14 143.44 C 168.79 142.70 167.90 142.39 167.16 142.75 Z M 166.34 143.17 L 165.43 143.54 C 164.68 143.84 164.32 144.70 164.63 145.45 C 164.93 146.20 165.78 146.56 166.53 146.25 L 167.44 145.89 C 168.19 145.58 168.55 144.73 168.24 143.98 C 167.94 143.23 167.08 142.87 166.34 143.17 Z M 165.51 143.52 L 164.57 143.84 C 163.81 144.10 163.41 144.93 163.67 145.69 C 163.93 146.45 164.76 146.85 165.52 146.59 L 166.45 146.27 C 167.21 146.01 167.62 145.18 167.36 144.42 C 167.10 143.66 166.27 143.26 165.51 143.52 Z M 164.64 143.82 L 163.69 144.09 C 162.92 144.31 162.47 145.12 162.69 145.89 C 162.91 146.67 163.72 147.11 164.49 146.89 L 165.45 146.62 C 166.22 146.40 166.67 145.59 166.44 144.82 C 166.22 144.04 165.42 143.60 164.64 143.82 Z M 163.76 144.07 L 162.79 144.30 C 162.00 144.48 161.52 145.26 161.70 146.05 C 161.88 146.83 162.66 147.32 163.45 147.14 L 164.42 146.91 C 165.20 146.73 165.69 145.95 165.51 145.16 C 165.33 144.38 164.55 143.89 163.76 144.07 Z M 162.83 144.29 L 162.00 144.46 C 161.21 144.62 160.70 145.39 160.86 146.18 C 161.02 146.96 161.79 147.47 162.58 147.31 L 163.41 147.14 C 164.19 146.98 164.70 146.21 164.54 145.43 C 164.38 144.64 163.61 144.13 162.83 144.29 Z"
      fill="black"
      fill-rule="nonzero" /><path d="M 153.74 139.20 L 153.69 140.20 C 153.64 141.02 154.28 141.73 155.10 141.77 C 155.93 141.81 156.63 141.18 156.67 140.35 L 156.72 139.36 C 156.77 138.53 156.13 137.83 155.31 137.78 C 154.48 137.74 153.78 138.38 153.74 139.20 Z M 153.69 140.43 L 153.79 141.39 C 153.87 142.21 154.61 142.81 155.43 142.72 C 156.25 142.64 156.85 141.90 156.77 141.08 L 156.67 140.12 C 156.58 139.30 155.85 138.70 155.02 138.79 C 154.20 138.87 153.61 139.61 153.69 140.43 Z M 153.85 141.66 L 154.13 142.61 C 154.37 143.40 155.19 143.85 155.98 143.61 C 156.77 143.38 157.22 142.55 156.99 141.76 L 156.70 140.81 C 156.47 140.02 155.64 139.57 154.85 139.81 C 154.07 140.04 153.62 140.87 153.85 141.66 Z M 154.18 142.71 L 154.55 143.67 C 154.84 144.43 155.69 144.81 156.45 144.52 C 157.21 144.23 157.59 143.38 157.30 142.62 L 156.94 141.66 C 156.65 140.90 155.80 140.52 155.04 140.81 C 154.27 141.10 153.89 141.95 154.18 142.71 Z M 154.57 143.69 L 154.96 144.64 C 155.26 145.39 156.11 145.75 156.85 145.45 C 157.60 145.14 157.96 144.30 157.66 143.55 L 157.28 142.60 C 156.98 141.85 156.13 141.49 155.38 141.80 C 154.63 142.10 154.27 142.95 154.57 143.69 Z M 154.97 144.64 L 155.36 145.60 C 155.66 146.34 156.51 146.69 157.25 146.39 C 157.99 146.08 158.34 145.24 158.04 144.50 L 157.65 143.54 C 157.34 142.81 156.50 142.45 155.76 142.76 C 155.02 143.06 154.67 143.91 154.97 144.64 Z M 155.36 145.60 L 155.73 146.51 C 156.04 147.25 156.88 147.61 157.63 147.30 C 158.37 147.00 158.72 146.15 158.42 145.41 L 158.04 144.50 C 157.74 143.75 156.89 143.40 156.15 143.70 C 155.41 144.01 155.05 144.86 155.36 145.60 Z M 155.72 146.51 L 155.86 146.84 C 156.16 147.58 157.02 147.94 157.76 147.63 C 158.51 147.33 158.87 146.47 158.56 145.73 L 158.43 145.40 C 158.12 144.66 157.27 144.30 156.52 144.61 C 155.77 144.91 155.42 145.77 155.72 146.51 Z"
      fill="black"
      fill-rule="nonzero" /><path d="M 164.17 138.88 L 164.17 139.95 C 164.17 140.77 164.83 141.44 165.65 141.44 C 166.47 141.44 167.14 140.77 167.14 139.95 L 167.14 138.88 C 167.14 138.06 166.47 137.40 165.65 137.40 C 164.83 137.40 164.17 138.06 164.17 138.88 Z M 164.16 139.95 L 164.15 140.96 C 164.15 141.79 164.82 142.46 165.64 142.46 C 166.47 142.47 167.14 141.80 167.14 140.97 L 167.15 139.96 C 167.15 139.13 166.48 138.46 165.66 138.46 C 164.83 138.45 164.16 139.12 164.16 139.95 Z M 164.14 140.95 L 164.13 141.88 C 164.13 142.71 164.79 143.39 165.62 143.40 C 166.45 143.41 167.14 142.74 167.14 141.91 L 167.15 140.98 C 167.16 140.15 166.50 139.47 165.66 139.46 C 164.83 139.45 164.15 140.12 164.14 140.95 Z M 164.14 141.85 L 164.11 142.91 C 164.08 143.74 164.73 144.43 165.56 144.46 C 166.38 144.48 167.08 143.84 167.10 143.01 L 167.14 141.94 C 167.16 141.12 166.51 140.42 165.69 140.40 C 164.86 140.37 164.17 141.02 164.14 141.85 Z M 164.13 142.83 L 164.05 143.74 C 163.98 144.55 164.58 145.27 165.39 145.34 C 166.20 145.42 166.92 144.82 166.99 144.01 L 167.08 143.09 C 167.15 142.28 166.55 141.56 165.74 141.49 C 164.93 141.42 164.21 142.02 164.13 142.83 Z M 164.08 143.63 L 163.93 144.52 C 163.79 145.32 164.33 146.07 165.12 146.21 C 165.92 146.34 166.67 145.81 166.81 145.01 L 166.96 144.12 C 167.10 143.32 166.56 142.57 165.77 142.43 C 164.97 142.30 164.22 142.83 164.08 143.63 Z M 163.96 144.43 L 163.71 145.47 C 163.52 146.25 163.99 147.04 164.77 147.22 C 165.55 147.41 166.33 146.94 166.52 146.16 L 166.78 145.11 C 166.97 144.33 166.49 143.55 165.71 143.36 C 164.93 143.17 164.15 143.65 163.96 144.43 Z M 163.73 145.42 L 163.47 146.32 C 163.26 147.08 163.70 147.88 164.47 148.10 C 165.23 148.32 166.03 147.87 166.24 147.11 L 166.50 146.21 C 166.72 145.45 166.27 144.65 165.51 144.43 C 164.74 144.21 163.95 144.66 163.73 145.42 Z M 163.49 146.30 L 163.19 147.26 C 162.96 148.02 163.39 148.82 164.15 149.05 C 164.91 149.28 165.71 148.85 165.94 148.09 L 166.23 147.13 C 166.46 146.37 166.03 145.57 165.27 145.34 C 164.52 145.11 163.72 145.54 163.49 146.30 Z M 163.20 147.25 L 162.89 148.27 C 162.65 149.03 163.07 149.83 163.83 150.06 C 164.58 150.29 165.38 149.87 165.62 149.12 L 165.93 148.10 C 166.17 147.35 165.75 146.55 164.99 146.31 C 164.24 146.08 163.44 146.50 163.20 147.25 Z M 162.89 148.27 L 162.84 148.43 C 162.60 149.18 163.02 149.98 163.78 150.22 C 164.53 150.45 165.33 150.03 165.56 149.28 L 165.61 149.12 C 165.85 148.37 165.43 147.57 164.68 147.33 C 163.92 147.10 163.12 147.52 162.89 148.27 Z"
      fill="black"
      fill-rule="nonzero" /><path d="M 160.71 136.63 L 160.23 137.48 C 159.83 138.21 160.08 139.12 160.81 139.53 C 161.53 139.94 162.45 139.68 162.85 138.96 L 163.33 138.11 C 163.74 137.38 163.49 136.47 162.76 136.06 C 162.04 135.65 161.12 135.91 160.71 136.63 Z M 160.12 137.76 L 159.81 138.71 C 159.56 139.49 159.99 140.34 160.77 140.59 C 161.56 140.85 162.41 140.42 162.66 139.63 L 162.97 138.68 C 163.22 137.90 162.79 137.05 162.01 136.80 C 161.22 136.54 160.38 136.97 160.12 137.76 Z M 159.76 138.99 L 159.64 139.98 C 159.53 140.80 160.12 141.54 160.93 141.64 C 161.75 141.74 162.50 141.16 162.60 140.34 L 162.72 139.35 C 162.82 138.53 162.24 137.79 161.42 137.69 C 160.60 137.59 159.86 138.17 159.76 138.99 Z M 159.64 140.02 L 159.54 141.03 C 159.46 141.84 160.06 142.57 160.88 142.65 C 161.69 142.72 162.42 142.13 162.50 141.31 L 162.59 140.30 C 162.67 139.49 162.07 138.76 161.26 138.68 C 160.44 138.61 159.72 139.20 159.64 140.02 Z M 159.57 140.94 L 159.41 141.91 C 159.28 142.71 159.83 143.46 160.63 143.59 C 161.43 143.72 162.19 143.18 162.31 142.37 L 162.47 141.40 C 162.60 140.60 162.05 139.85 161.25 139.72 C 160.45 139.59 159.70 140.13 159.57 140.94 Z M 159.44 141.81 L 159.22 142.78 C 159.04 143.56 159.52 144.35 160.31 144.53 C 161.09 144.71 161.87 144.23 162.05 143.44 L 162.28 142.47 C 162.46 141.69 161.98 140.91 161.19 140.72 C 160.41 140.54 159.63 141.03 159.44 141.81 Z M 159.25 142.70 L 158.98 143.64 C 158.75 144.40 159.19 145.21 159.96 145.43 C 160.72 145.66 161.52 145.22 161.75 144.45 L 162.02 143.52 C 162.25 142.75 161.81 141.95 161.04 141.72 C 160.28 141.50 159.47 141.94 159.25 142.70 Z M 159.00 143.57 L 158.66 144.56 C 158.40 145.31 158.80 146.13 159.55 146.39 C 160.30 146.65 161.12 146.25 161.38 145.50 L 161.72 144.52 C 161.98 143.76 161.59 142.94 160.83 142.68 C 160.08 142.42 159.26 142.82 159.00 143.57 Z M 158.69 144.50 L 158.30 145.48 C 158.01 146.22 158.37 147.05 159.11 147.34 C 159.84 147.63 160.68 147.27 160.97 146.53 L 161.35 145.56 C 161.65 144.82 161.28 143.99 160.55 143.70 C 159.81 143.41 158.98 143.77 158.69 144.50 Z M 158.32 145.44 L 157.92 146.37 C 157.60 147.09 157.94 147.94 158.66 148.25 C 159.39 148.56 160.23 148.23 160.55 147.50 L 160.95 146.57 C 161.26 145.85 160.93 145.01 160.20 144.69 C 159.48 144.38 158.63 144.71 158.32 145.44 Z M 157.94 146.33 L 157.53 147.22 C 157.19 147.93 157.50 148.78 158.22 149.12 C 158.94 149.45 159.79 149.14 160.12 148.42 L 160.53 147.54 C 160.86 146.82 160.55 145.97 159.83 145.64 C 159.12 145.31 158.27 145.62 157.94 146.33 Z M 157.56 147.16 L 157.11 148.02 C 156.74 148.72 157.01 149.58 157.71 149.95 C 158.41 150.31 159.27 150.04 159.64 149.34 L 160.09 148.48 C 160.45 147.78 160.18 146.92 159.48 146.55 C 158.79 146.19 157.92 146.46 157.56 147.16 Z M 157.15 147.93 L 156.64 148.76 C 156.23 149.44 156.44 150.32 157.12 150.73 C 157.79 151.14 158.67 150.93 159.09 150.26 L 159.59 149.43 C 160.00 148.75 159.79 147.87 159.12 147.46 C 158.44 147.05 157.56 147.26 157.15 147.93 Z M 156.68 148.70 L 156.11 149.54 C 155.66 150.19 155.83 151.09 156.49 151.53 C 157.15 151.98 158.04 151.81 158.48 151.15 L 159.05 150.32 C 159.50 149.66 159.33 148.77 158.67 148.32 C 158.02 147.88 157.12 148.05 156.68 148.70 Z M 156.15 149.48 L 155.53 150.30 C 155.05 150.93 155.17 151.83 155.81 152.31 C 156.44 152.79 157.34 152.67 157.82 152.03 L 158.44 151.21 C 158.92 150.58 158.80 149.68 158.17 149.20 C 157.53 148.72 156.63 148.84 156.15 149.48 Z M 155.60 150.20 L 154.92 150.96 C 154.39 151.56 154.44 152.47 155.04 153.00 C 155.63 153.53 156.54 153.48 157.07 152.89 L 157.75 152.13 C 158.28 151.53 158.23 150.62 157.64 150.09 C 157.04 149.56 156.13 149.61 155.60 150.20 Z M 155.05 150.84 L 154.31 151.48 C 153.71 152.00 153.64 152.91 154.16 153.51 C 154.69 154.12 155.60 154.18 156.20 153.66 L 156.94 153.01 C 157.54 152.49 157.61 151.58 157.09 150.98 C 156.56 150.38 155.65 150.31 155.05 150.84 Z M 154.43 151.36 L 153.45 152.03 C 152.78 152.48 152.60 153.39 153.06 154.06 C 153.51 154.73 154.42 154.90 155.09 154.45 L 156.08 153.78 C 156.75 153.33 156.92 152.42 156.47 151.75 C 156.01 151.08 155.10 150.90 154.43 151.36 Z M 153.90 154.69 L 154.17 154.76 C 154.97 154.96 155.78 154.48 155.99 153.67 C 156.19 152.87 155.71 152.06 154.90 151.85 L 154.64 151.79 C 153.84 151.58 153.02 152.07 152.82 152.87 C 152.61 153.67 153.10 154.49 153.90 154.69 Z M 154.89 154.78 L 156.09 154.49 C 156.91 154.29 157.41 153.47 157.21 152.66 C 157.01 151.84 156.19 151.34 155.37 151.54 L 154.18 151.83 C 153.36 152.03 152.86 152.85 153.06 153.66 C 153.25 154.48 154.08 154.98 154.89 154.78 Z M 156.02 154.52 L 157.00 154.33 C 157.83 154.17 158.37 153.37 158.21 152.53 C 158.05 151.70 157.24 151.16 156.41 151.32 L 155.44 151.51 C 154.61 151.67 154.06 152.47 154.22 153.31 C 154.39 154.14 155.19 154.68 156.02 154.52 Z M 156.94 154.35 L 157.90 154.20 C 158.74 154.06 159.31 153.28 159.18 152.44 C 159.05 151.60 158.26 151.03 157.42 151.16 L 156.47 151.31 C 155.63 151.44 155.05 152.22 155.18 153.06 C 155.32 153.90 156.10 154.48 156.94 154.35 Z M 157.89 154.19 L 158.88 154.04 C 159.72 153.92 160.30 153.13 160.17 152.30 C 160.05 151.46 159.26 150.88 158.42 151.01 L 157.43 151.16 C 156.59 151.29 156.02 152.07 156.14 152.91 C 156.27 153.75 157.05 154.32 157.89 154.19 Z M 158.91 154.03 L 159.92 153.86 C 160.75 153.72 161.31 152.94 161.17 152.11 C 161.03 151.27 160.25 150.71 159.42 150.85 L 158.40 151.02 C 157.57 151.16 157.01 151.95 157.15 152.78 C 157.29 153.61 158.07 154.17 158.91 154.03 Z M 159.95 153.84 L 160.94 153.65 C 161.76 153.50 162.30 152.71 162.14 151.89 C 161.99 151.07 161.20 150.53 160.38 150.69 L 159.39 150.87 C 158.57 151.03 158.03 151.82 158.18 152.63 C 158.34 153.45 159.13 153.99 159.95 153.84 Z M 160.96 153.63 L 161.96 153.42 C 162.77 153.25 163.29 152.47 163.12 151.66 C 162.95 150.85 162.16 150.34 161.35 150.50 L 160.35 150.71 C 159.55 150.88 159.03 151.67 159.20 152.47 C 159.37 153.28 160.16 153.80 160.96 153.63 Z M 161.96 153.41 L 162.92 153.20 C 163.72 153.04 164.23 152.25 164.06 151.46 C 163.90 150.66 163.11 150.15 162.32 150.32 L 161.35 150.52 C 160.56 150.69 160.05 151.47 160.21 152.27 C 160.38 153.06 161.16 153.57 161.96 153.41 Z M 162.86 153.20 L 163.83 153.04 C 164.63 152.90 165.16 152.15 165.03 151.35 C 164.89 150.56 164.14 150.02 163.34 150.16 L 162.38 150.32 C 161.58 150.45 161.04 151.21 161.18 152.00 C 161.31 152.80 162.07 153.34 162.86 153.20 Z M 163.77 153.03 L 164.76 152.91 C 165.55 152.81 166.11 152.08 166.01 151.29 C 165.91 150.49 165.18 149.93 164.39 150.03 L 163.40 150.16 C 162.61 150.26 162.05 150.99 162.15 151.78 C 162.25 152.57 162.98 153.13 163.77 153.03 Z M 164.74 152.90 L 165.73 152.79 C 166.51 152.69 167.08 151.98 166.99 151.19 C 166.90 150.40 166.19 149.84 165.40 149.93 L 164.41 150.04 C 163.62 150.13 163.06 150.85 163.15 151.63 C 163.24 152.42 163.95 152.99 164.74 152.90 Z M 165.72 152.78 L 166.34 152.71 C 167.12 152.62 167.69 151.91 167.60 151.13 C 167.51 150.34 166.81 149.78 166.02 149.87 L 165.40 149.93 C 164.62 150.02 164.05 150.73 164.14 151.52 C 164.23 152.30 164.94 152.87 165.72 152.78 Z"
      fill="black"
      fill-rule="nonzero" /><path d="M 155.48 158.51 L 155.44 159.46 C 155.41 160.31 156.08 161.03 156.93 161.06 C 157.78 161.09 158.49 160.43 158.52 159.58 L 158.56 158.62 C 158.59 157.77 157.93 157.05 157.08 157.02 C 156.23 156.99 155.51 157.65 155.48 158.51 Z M 155.44 159.52 L 155.44 160.54 C 155.44 161.39 156.13 162.08 156.98 162.08 C 157.83 162.08 158.52 161.39 158.52 160.54 L 158.53 159.52 C 158.53 158.67 157.84 157.98 156.99 157.98 C 156.13 157.98 155.44 158.67 155.44 159.52 Z M 155.44 160.60 L 155.48 161.54 C 155.51 162.39 156.23 163.05 157.08 163.02 C 157.93 162.99 158.59 162.27 158.56 161.42 L 158.52 160.48 C 158.49 159.63 157.77 158.97 156.92 159.00 C 156.07 159.03 155.41 159.75 155.44 160.60 Z M 155.48 161.58 L 155.55 162.63 C 155.60 163.48 156.34 164.13 157.19 164.07 C 158.03 164.02 158.68 163.29 158.62 162.44 L 158.56 161.38 C 158.50 160.53 157.77 159.89 156.92 159.94 C 156.07 160.00 155.43 160.73 155.48 161.58 Z M 155.55 162.65 L 155.63 163.64 C 155.69 164.49 156.43 165.12 157.28 165.06 C 158.13 164.99 158.76 164.25 158.70 163.40 L 158.62 162.42 C 158.56 161.57 157.82 160.94 156.97 161.00 C 156.12 161.07 155.49 161.81 155.55 162.65 Z M 155.63 163.64 L 155.70 164.64 C 155.77 165.48 156.50 166.12 157.35 166.06 C 158.20 165.99 158.83 165.25 158.77 164.41 L 158.70 163.41 C 158.63 162.56 157.89 161.92 157.05 161.99 C 156.20 162.05 155.57 162.79 155.63 163.64 Z M 155.70 164.61 L 155.76 165.64 C 155.81 166.49 156.54 167.13 157.39 167.08 C 158.24 167.03 158.88 166.31 158.83 165.46 L 158.77 164.43 C 158.72 163.58 157.99 162.94 157.15 162.99 C 156.30 163.04 155.65 163.76 155.70 164.61 Z M 155.77 165.60 L 155.80 166.66 C 155.83 167.50 156.54 168.17 157.38 168.14 C 158.23 168.11 158.89 167.41 158.86 166.56 L 158.83 165.50 C 158.80 164.65 158.09 163.99 157.25 164.02 C 156.40 164.04 155.74 164.75 155.77 165.60 Z M 155.81 166.63 L 155.82 167.64 C 155.83 168.48 156.52 169.15 157.36 169.14 C 158.20 169.13 158.88 168.44 158.87 167.60 L 158.85 166.59 C 158.84 165.75 158.16 165.08 157.31 165.09 C 156.47 165.10 155.80 165.79 155.81 166.63 Z M 155.83 167.62 L 155.83 168.66 C 155.83 169.49 156.51 170.17 157.35 170.17 C 158.18 170.17 158.86 169.49 158.86 168.65 L 158.86 167.62 C 158.86 166.78 158.18 166.11 157.34 166.11 C 156.51 166.11 155.83 166.79 155.83 167.62 Z M 155.85 168.67 L 155.86 169.73 C 155.87 170.56 156.55 171.22 157.38 171.21 C 158.20 171.20 158.87 170.52 158.86 169.69 L 158.84 168.63 C 158.83 167.81 158.15 167.14 157.33 167.15 C 156.50 167.16 155.84 167.84 155.85 168.67 Z M 158.83 169.92 L 158.90 169.43 C 159.01 168.62 158.45 167.87 157.64 167.75 C 156.83 167.64 156.07 168.20 155.96 169.01 L 155.89 169.50 C 155.77 170.31 156.34 171.07 157.15 171.18 C 157.96 171.30 158.71 170.73 158.83 169.92 Z M 158.89 169.38 L 159.02 168.16 C 159.10 167.35 158.52 166.63 157.71 166.54 C 156.90 166.46 156.18 167.05 156.09 167.85 L 155.96 169.07 C 155.88 169.88 156.47 170.60 157.27 170.69 C 158.08 170.77 158.81 170.19 158.89 169.38 Z M 159.00 168.21 L 159.14 167.22 C 159.25 166.42 158.69 165.69 157.89 165.58 C 157.09 165.47 156.35 166.03 156.24 166.83 L 156.11 167.81 C 156.00 168.61 156.56 169.35 157.36 169.46 C 158.16 169.57 158.89 169.01 159.00 168.21 Z M 159.13 167.25 L 159.28 166.25 C 159.40 165.45 158.86 164.71 158.06 164.59 C 157.27 164.47 156.53 165.01 156.40 165.81 L 156.25 166.81 C 156.13 167.60 156.67 168.34 157.47 168.47 C 158.26 168.59 159.01 168.04 159.13 167.25 Z M 159.28 166.26 L 159.43 165.33 C 159.56 164.53 159.03 163.79 158.24 163.65 C 157.44 163.52 156.70 164.06 156.56 164.85 L 156.41 165.79 C 156.28 166.58 156.81 167.33 157.60 167.46 C 158.40 167.59 159.14 167.06 159.28 166.26 Z M 159.43 165.37 L 159.62 164.36 C 159.78 163.57 159.26 162.80 158.47 162.65 C 157.68 162.50 156.92 163.01 156.77 163.80 L 156.57 164.81 C 156.42 165.60 156.93 166.36 157.72 166.52 C 158.51 166.67 159.27 166.15 159.43 165.37 Z M 159.62 164.41 L 159.85 163.41 C 160.03 162.63 159.55 161.84 158.76 161.66 C 157.98 161.47 157.19 161.96 157.01 162.75 L 156.77 163.74 C 156.59 164.53 157.08 165.32 157.86 165.50 C 158.65 165.68 159.43 165.20 159.62 164.41 Z M 159.84 163.48 L 160.12 162.50 C 160.34 161.72 159.89 160.91 159.11 160.69 C 158.33 160.47 157.52 160.92 157.30 161.70 L 157.02 162.68 C 156.80 163.46 157.25 164.27 158.03 164.49 C 158.81 164.71 159.62 164.26 159.84 163.48 Z M 160.10 162.59 L 160.43 161.65 C 160.70 160.88 160.30 160.04 159.53 159.77 C 158.77 159.50 157.92 159.90 157.65 160.66 L 157.32 161.60 C 157.05 162.37 157.45 163.22 158.22 163.49 C 158.98 163.76 159.83 163.36 160.10 162.59 Z M 160.38 161.80 L 160.84 160.84 C 161.19 160.10 160.88 159.21 160.14 158.86 C 159.40 158.50 158.52 158.82 158.16 159.56 L 157.70 160.52 C 157.35 161.26 157.66 162.14 158.40 162.49 C 159.14 162.85 160.03 162.54 160.38 161.80 Z M 160.73 161.03 L 161.29 160.22 C 161.75 159.54 161.57 158.61 160.89 158.15 C 160.21 157.69 159.28 157.86 158.82 158.54 L 158.27 159.36 C 157.81 160.04 157.98 160.97 158.66 161.43 C 159.34 161.89 160.27 161.71 160.73 161.03 Z M 161.12 160.44 L 161.80 159.76 C 162.38 159.17 162.38 158.22 161.80 157.64 C 161.21 157.05 160.26 157.05 159.68 157.64 L 158.99 158.32 C 158.41 158.91 158.41 159.86 158.99 160.44 C 159.58 161.03 160.53 161.03 161.12 160.44 Z M 161.52 159.99 L 162.37 159.48 C 163.08 159.04 163.31 158.12 162.88 157.40 C 162.45 156.69 161.52 156.46 160.81 156.89 L 159.96 157.41 C 159.24 157.84 159.01 158.77 159.45 159.48 C 159.88 160.19 160.81 160.42 161.52 159.99 Z M 161.96 159.65 L 162.89 159.42 C 163.71 159.21 164.20 158.39 163.99 157.57 C 163.78 156.76 162.96 156.27 162.15 156.48 L 161.21 156.71 C 160.40 156.92 159.91 157.75 160.12 158.56 C 160.32 159.37 161.15 159.86 161.96 159.65 Z M 162.37 159.46 L 163.37 159.55 C 164.20 159.64 164.94 159.02 165.02 158.19 C 165.10 157.35 164.49 156.61 163.66 156.53 L 162.67 156.43 C 161.83 156.35 161.09 156.97 161.01 157.80 C 160.93 158.64 161.54 159.38 162.37 159.46 Z M 162.90 159.43 L 163.82 159.84 C 164.59 160.18 165.48 159.83 165.82 159.06 C 166.16 158.29 165.81 157.39 165.04 157.05 L 164.12 156.65 C 163.35 156.31 162.46 156.66 162.12 157.43 C 161.78 158.20 162.13 159.10 162.90 159.43 Z M 163.52 159.67 L 164.33 160.26 C 165.00 160.76 165.95 160.62 166.45 159.95 C 166.96 159.28 166.81 158.32 166.14 157.82 L 165.34 157.23 C 164.66 156.72 163.71 156.86 163.21 157.54 C 162.71 158.21 162.85 159.17 163.52 159.67 Z M 164.08 160.03 L 164.72 160.79 C 165.27 161.43 166.23 161.51 166.87 160.97 C 167.51 160.42 167.58 159.46 167.04 158.82 L 166.39 158.06 C 165.85 157.42 164.89 157.34 164.25 157.88 C 163.61 158.43 163.53 159.39 164.08 160.03 Z M 164.57 160.57 L 165.06 161.41 C 165.48 162.13 166.41 162.38 167.13 161.96 C 167.86 161.53 168.10 160.61 167.68 159.88 L 167.19 159.04 C 166.77 158.32 165.84 158.07 165.12 158.50 C 164.39 158.92 164.15 159.85 164.57 160.57 Z M 164.99 161.26 L 165.40 162.18 C 165.74 162.94 166.63 163.29 167.40 162.95 C 168.16 162.61 168.50 161.71 168.16 160.95 L 167.75 160.03 C 167.41 159.27 166.52 158.92 165.76 159.26 C 164.99 159.60 164.65 160.50 164.99 161.26 Z M 165.35 162.03 L 165.64 162.94 C 165.89 163.73 166.74 164.17 167.54 163.91 C 168.33 163.65 168.77 162.80 168.51 162.01 L 168.22 161.10 C 167.96 160.31 167.11 159.88 166.32 160.13 C 165.53 160.39 165.09 161.24 165.35 162.03 Z M 165.60 162.79 L 165.82 163.80 C 165.99 164.61 166.79 165.13 167.60 164.95 C 168.41 164.78 168.93 163.98 168.76 163.17 L 168.55 162.16 C 168.37 161.35 167.57 160.83 166.76 161.00 C 165.95 161.18 165.43 161.98 165.60 162.79 Z M 165.80 163.68 L 165.93 164.70 C 166.04 165.52 166.79 166.10 167.62 166.00 C 168.44 165.89 169.02 165.14 168.91 164.31 L 168.78 163.29 C 168.67 162.47 167.92 161.89 167.10 161.99 C 166.27 162.10 165.69 162.85 165.80 163.68 Z M 165.93 164.63 L 166.01 165.65 C 166.08 166.47 166.80 167.09 167.63 167.02 C 168.45 166.95 169.07 166.23 169.00 165.40 L 168.91 164.39 C 168.85 163.56 168.12 162.95 167.30 163.02 C 166.48 163.08 165.86 163.81 165.93 164.63 Z M 166.02 165.60 L 166.07 166.63 C 166.11 167.45 166.80 168.08 167.62 168.04 C 168.44 168.01 169.08 167.31 169.04 166.49 L 168.99 165.46 C 168.95 164.64 168.26 164.00 167.44 164.04 C 166.61 164.08 165.98 164.78 166.02 165.60 Z M 166.08 166.57 L 166.09 167.53 C 166.09 168.34 166.75 168.99 167.57 168.99 C 168.38 168.99 169.03 168.32 169.03 167.51 L 169.02 166.55 C 169.02 165.74 168.36 165.08 167.55 165.09 C 166.73 165.09 166.08 165.75 166.08 166.57 Z M 166.11 167.44 L 166.06 168.37 C 166.02 169.17 166.64 169.85 167.44 169.89 C 168.24 169.93 168.92 169.32 168.96 168.51 L 169.01 167.59 C 169.05 166.79 168.43 166.11 167.63 166.07 C 166.83 166.03 166.15 166.64 166.11 167.44 Z M 166.11 168.10 L 165.87 169.10 C 165.68 169.88 166.15 170.65 166.93 170.84 C 167.70 171.03 168.48 170.56 168.66 169.79 L 168.91 168.78 C 169.10 168.01 168.62 167.23 167.85 167.04 C 167.08 166.85 166.30 167.33 166.11 168.10 Z M 165.97 168.85 L 165.57 169.70 C 165.24 170.42 165.56 171.27 166.27 171.60 C 166.99 171.93 167.84 171.62 168.17 170.90 L 168.57 170.04 C 168.90 169.32 168.58 168.48 167.86 168.15 C 167.15 167.81 166.30 168.13 165.97 168.85 Z M 165.62 169.61 L 165.11 170.53 C 164.73 171.22 164.98 172.09 165.67 172.47 C 166.36 172.85 167.23 172.60 167.61 171.91 L 168.12 170.99 C 168.50 170.30 168.25 169.43 167.56 169.05 C 166.87 168.67 166.00 168.92 165.62 169.61 Z M 165.13 170.51 L 165.00 170.73 C 164.61 171.41 164.85 172.28 165.53 172.67 C 166.21 173.06 167.09 172.83 167.48 172.15 L 167.60 171.93 C 167.99 171.25 167.76 170.38 167.07 169.98 C 166.39 169.59 165.52 169.83 165.13 170.51 Z"
      fill="black"
      fill-rule="nonzero" /><path d="M 158.82 164.83 L 159.73 164.89 C 160.57 164.95 161.29 164.32 161.35 163.48 C 161.41 162.64 160.77 161.92 159.94 161.86 L 159.02 161.80 C 158.19 161.74 157.46 162.37 157.40 163.21 C 157.35 164.05 157.98 164.78 158.82 164.83 Z M 159.77 164.90 L 160.85 164.95 C 161.69 164.98 162.40 164.33 162.44 163.48 C 162.47 162.64 161.82 161.93 160.98 161.90 L 159.89 161.85 C 159.05 161.82 158.34 162.47 158.31 163.31 C 158.27 164.16 158.93 164.87 159.77 164.90 Z M 160.89 164.93 L 161.88 164.95 C 162.71 164.96 163.40 164.29 163.41 163.46 C 163.43 162.63 162.76 161.94 161.93 161.93 L 160.94 161.91 C 160.10 161.90 159.42 162.56 159.40 163.40 C 159.39 164.23 160.06 164.92 160.89 164.93 Z M 161.90 164.91 L 162.93 164.92 C 163.74 164.92 164.41 164.26 164.41 163.45 C 164.41 162.63 163.76 161.97 162.94 161.97 L 161.91 161.96 C 161.10 161.96 160.43 162.62 160.43 163.43 C 160.43 164.24 161.08 164.91 161.90 164.91 Z M 162.94 164.89 L 163.98 164.89 C 164.78 164.89 165.43 164.24 165.43 163.44 C 165.43 162.64 164.78 162.00 163.98 162.00 L 162.94 162.00 C 162.14 162.00 161.49 162.64 161.49 163.44 C 161.49 164.24 162.14 164.89 162.94 164.89 Z M 163.98 164.87 L 164.98 164.87 C 165.77 164.87 166.41 164.23 166.41 163.44 C 166.41 162.65 165.77 162.01 164.98 162.01 L 163.98 162.01 C 163.19 162.01 162.55 162.65 162.55 163.44 C 162.55 164.23 163.19 164.87 163.98 164.87 Z M 164.98 164.87 L 165.52 164.87 C 166.30 164.87 166.94 164.23 166.94 163.44 C 166.94 162.65 166.30 162.01 165.52 162.01 L 164.98 162.01 C 164.19 162.01 163.55 162.65 163.55 163.44 C 163.55 164.23 164.19 164.87 164.98 164.87 Z"
      fill="black"
      fill-rule="nonzero" /><path d="M 156.52 172.77 L 157.40 173.23 C 158.14 173.60 159.05 173.31 159.43 172.57 C 159.80 171.83 159.51 170.93 158.77 170.55 L 157.89 170.10 C 157.15 169.72 156.25 170.01 155.87 170.75 C 155.49 171.49 155.78 172.40 156.52 172.77 Z M 157.74 173.40 L 158.67 173.61 C 159.50 173.81 160.33 173.29 160.53 172.45 C 160.72 171.62 160.20 170.79 159.37 170.59 L 158.44 170.38 C 157.60 170.18 156.77 170.70 156.58 171.54 C 156.39 172.37 156.90 173.20 157.74 173.40 Z M 159.09 173.67 L 160.07 173.62 C 160.93 173.58 161.60 172.85 161.55 171.98 C 161.51 171.12 160.78 170.45 159.92 170.49 L 158.94 170.54 C 158.08 170.58 157.41 171.31 157.46 172.18 C 157.50 173.04 158.23 173.71 159.09 173.67 Z M 160.27 173.59 L 161.32 173.40 C 162.16 173.25 162.73 172.44 162.58 171.60 C 162.43 170.75 161.62 170.18 160.77 170.34 L 159.72 170.52 C 158.87 170.67 158.31 171.48 158.46 172.33 C 158.61 173.18 159.42 173.74 160.27 173.59 Z M 161.38 173.38 L 162.39 173.15 C 163.22 172.96 163.74 172.13 163.55 171.30 C 163.37 170.47 162.54 169.95 161.70 170.13 L 160.70 170.36 C 159.87 170.55 159.35 171.38 159.53 172.21 C 159.72 173.04 160.55 173.57 161.38 173.38 Z M 162.40 173.13 L 163.35 172.90 C 164.17 172.71 164.68 171.88 164.48 171.06 C 164.29 170.24 163.46 169.73 162.64 169.93 L 161.69 170.15 C 160.87 170.35 160.36 171.17 160.56 172.00 C 160.75 172.82 161.58 173.33 162.40 173.13 Z M 163.32 172.88 L 164.28 172.67 C 165.09 172.49 165.60 171.69 165.42 170.88 C 165.24 170.07 164.44 169.55 163.63 169.73 L 162.67 169.95 C 161.86 170.13 161.35 170.93 161.53 171.74 C 161.71 172.55 162.51 173.06 163.32 172.88 Z M 164.24 172.64 L 165.24 172.45 C 166.03 172.29 166.55 171.52 166.39 170.72 C 166.23 169.92 165.46 169.41 164.66 169.56 L 163.67 169.76 C 162.87 169.92 162.35 170.69 162.51 171.49 C 162.67 172.28 163.44 172.80 164.24 172.64 Z M 165.22 172.43 L 166.11 172.26 C 166.90 172.11 167.42 171.36 167.27 170.57 C 167.12 169.78 166.37 169.27 165.58 169.41 L 164.68 169.58 C 163.90 169.73 163.38 170.49 163.53 171.27 C 163.67 172.06 164.43 172.58 165.22 172.43 Z M 166.11 172.26 L 167.12 172.07 C 167.90 171.93 168.42 171.17 168.28 170.39 C 168.13 169.61 167.38 169.09 166.60 169.23 L 165.59 169.42 C 164.80 169.56 164.29 170.31 164.43 171.10 C 164.57 171.88 165.32 172.40 166.11 172.26 Z M 167.12 172.06 L 167.95 171.91 C 168.73 171.77 169.25 171.02 169.10 170.24 C 168.96 169.46 168.21 168.94 167.43 169.09 L 166.60 169.24 C 165.82 169.38 165.30 170.13 165.44 170.91 C 165.59 171.69 166.33 172.21 167.12 172.06 Z"
      fill="black"
      fill-rule="nonzero" /></svg>