<svg xmlns="http://www.w3.org/2000/svg" width="300" height="300" viewBox="0 0 300 300">
<path d="M 132.88 145.60 L 133.85 145.65 C 134.72 145.69 135.46 145.03 135.50 144.17 C 135.55 143.30 134.88 142.56 134.02 142.52 L 133.04 142.47 C 132.18 142.42 131.44 143.08 131.39 143.95 C 131.35 144.81 132.01 145.55 132.88 145.60 Z M 133.89 145.66 L 134.88 145.69 C 135.75 145.72 136.48 145.03 136.50 144.16 C 136.53 143.29 135.85 142.56 134.97 142.54 L 133.99 142.51 C 133.11 142.48 132.39 143.16 132.36 144.04 C 132.33 144.91 133.02 145.63 133.89 145.66 Z M 134.95 145.70 L 135.96 145.69 C 136.83 145.68 137.54 144.96 137.52 144.08 C 137.51 143.20 136.79 142.50 135.91 142.51 L 134.91 142.52 C 134.03 142.54 133.33 143.26 133.34 144.13 C 133.35 145.01 134.07 145.71 134.95 145.70 Z M 136.05 145.69 L 137.08 145.62 C 137.95 145.55 138.61 144.78 138.55 143.91 C 138.48 143.03 137.72 142.37 136.84 142.43 L 135.82 142.51 C 134.94 142.57 134.28 143.34 134.35 144.22 C 134.41 145.10 135.18 145.76 136.05 145.69 Z M 137.17 145.60 L 138.18 145.47 C 139.05 145.35 139.67 144.55 139.55 143.68 C 139.43 142.81 138.63 142.19 137.76 142.31 L 136.75 142.45 C 135.88 142.56 135.26 143.36 135.38 144.24 C 135.50 145.11 136.30 145.72 137.17 145.60 Z M 138.25 145.45 L 139.25 145.27 C 140.11 145.12 140.68 144.30 140.53 143.44 C 140.38 142.58 139.56 142.00 138.70 142.15 L 137.70 142.33 C 136.84 142.48 136.26 143.30 136.42 144.16 C 136.57 145.02 137.39 145.60 138.25 145.45 Z M 139.29 145.25 L 140.24 145.06 C 141.09 144.88 141.64 144.05 141.47 143.20 C 141.29 142.35 140.46 141.80 139.61 141.98 L 138.66 142.17 C 137.81 142.35 137.26 143.18 137.44 144.03 C 137.61 144.88 138.44 145.42 139.29 145.25 Z M 140.27 145.04 L 141.30 144.81 C 142.14 144.62 142.67 143.79 142.48 142.95 C 142.30 142.11 141.46 141.58 140.62 141.77 L 139.59 142.00 C 138.75 142.18 138.22 143.01 138.41 143.85 C 138.60 144.69 139.43 145.22 140.27 145.04 Z M 141.31 144.78 L 142.30 144.55 C 143.13 144.36 143.64 143.53 143.45 142.70 C 143.25 141.87 142.42 141.36 141.60 141.56 L 140.61 141.79 C 139.78 141.98 139.27 142.81 139.46 143.64 C 139.66 144.47 140.49 144.98 141.31 144.78 Z M 142.31 144.53 L 143.21 144.31 C 144.03 144.11 144.53 143.29 144.33 142.47 C 144.13 141.66 143.31 141.16 142.49 141.36 L 141.59 141.58 C 140.77 141.78 140.27 142.60 140.47 143.42 C 140.67 144.23 141.50 144.73 142.31 144.53 Z M 143.21 144.29 L 144.19 144.05 C 144.99 143.85 145.48 143.04 145.28 142.23 C 145.09 141.43 144.27 140.94 143.47 141.14 L 142.49 141.38 C 141.69 141.58 141.20 142.39 141.40 143.19 C 141.60 144.00 142.41 144.49 143.21 144.29 Z M 144.16 144.04 L 145.13 143.81 C 145.93 143.63 146.43 142.83 146.25 142.03 C 146.06 141.23 145.26 140.74 144.47 140.92 L 143.49 141.15 C 142.70 141.33 142.20 142.13 142.38 142.93 C 142.57 143.72 143.37 144.22 144.16 144.04 Z M 145.08 143.81 L 146.04 143.62 C 146.84 143.47 147.36 142.70 147.20 141.90 C 147.05 141.11 146.28 140.59 145.48 140.74 L 144.52 140.92 C 143.73 141.08 143.20 141.85 143.36 142.64 C 143.51 143.44 144.28 143.96 145.08 143.81 Z M 145.97 143.62 L 146.96 143.48 C 147.76 143.36 148.31 142.63 148.19 141.83 C 148.08 141.04 147.34 140.49 146.55 140.60 L 145.55 140.74 C 144.76 140.86 144.21 141.59 144.32 142.39 C 144.44 143.18 145.18 143.73 145.97 143.62 Z M 146.92 143.47 L 147.89 143.35 C 148.68 143.26 149.24 142.55 149.15 141.76 C 149.06 140.97 148.34 140.40 147.56 140.50 L 146.59 140.61 C 145.80 140.70 145.23 141.42 145.33 142.21 C 145.42 142.99 146.13 143.56 146.92 143.47 Z"
      fill="black"
      fill-rule="nonzero" /><path d="M 141.45 146.98 L 141.18 146.28 C 140.88 145.49 140.00 145.09 139.21 145.39 C 138.42 145.69 138.02 146.58 138.32 147.37 L 138.58 148.07 C 138.88 148.86 139.77 149.26 140.56 148.96 C 141.35 148.66 141.75 147.77 141.45 146.98 Z M 138.20 146.91 L 138.24 147.60 C 138.29 148.45 139.02 149.11 139.88 149.06 C 140.74 149.01 141.39 148.27 141.34 147.42 L 141.30 146.73 C 141.25 145.88 140.52 145.22 139.66 145.27 C 138.80 145.32 138.15 146.06 138.20 146.91 Z M 138.23 147.65 L 138.33 148.74 C 138.41 149.60 139.17 150.23 140.03 150.15 C 140.89 150.08 141.52 149.31 141.45 148.46 L 141.34 147.36 C 141.27 146.51 140.51 145.87 139.65 145.95 C 138.79 146.03 138.15 146.79 138.23 147.65 Z M 138.33 148.74 L 138.43 149.95 C 138.51 150.81 139.27 151.45 140.14 151.38 C 141.00 151.30 141.64 150.54 141.56 149.68 L 141.45 148.46 C 141.38 147.60 140.61 146.96 139.75 147.04 C 138.89 147.11 138.25 147.87 138.33 148.74 Z M 138.43 149.93 L 138.50 150.94 C 138.57 151.81 139.32 152.46 140.18 152.39 C 141.05 152.33 141.70 151.58 141.64 150.71 L 141.56 149.70 C 141.50 148.83 140.75 148.18 139.88 148.25 C 139.02 148.31 138.37 149.06 138.43 149.93 Z M 138.50 150.91 L 138.56 151.91 C 138.61 152.78 139.35 153.44 140.21 153.39 C 141.08 153.34 141.74 152.60 141.70 151.73 L 141.64 150.74 C 141.59 149.87 140.85 149.21 139.98 149.26 C 139.12 149.31 138.45 150.05 138.50 150.91 Z M 138.56 151.89 L 138.60 152.87 C 138.63 153.74 139.36 154.41 140.23 154.38 C 141.09 154.34 141.77 153.61 141.73 152.74 L 141.70 151.76 C 141.66 150.89 140.93 150.22 140.06 150.25 C 139.20 150.29 138.52 151.02 138.56 151.89 Z M 138.60 152.84 L 138.62 153.89 C 138.64 154.76 139.36 155.44 140.23 155.42 C 141.09 155.40 141.78 154.68 141.76 153.82 L 141.73 152.77 C 141.71 151.91 140.99 151.22 140.13 151.24 C 139.26 151.26 138.58 151.98 138.60 152.84 Z M 138.63 153.87 L 138.64 154.90 C 138.65 155.76 139.36 156.45 140.22 156.44 C 141.08 156.43 141.77 155.73 141.76 154.87 L 141.75 153.84 C 141.74 152.98 141.04 152.29 140.17 152.29 C 139.31 152.30 138.62 153.01 138.63 153.87 Z M 138.65 154.89 L 138.65 155.84 C 138.65 156.70 139.35 157.39 140.21 157.39 C 141.06 157.39 141.76 156.69 141.75 155.83 L 141.75 154.88 C 141.75 154.02 141.05 153.33 140.20 153.33 C 139.34 153.33 138.65 154.03 138.65 154.89 Z M 138.66 155.84 L 138.66 156.87 C 138.66 157.72 139.35 158.41 140.20 158.41 C 141.05 158.41 141.74 157.72 141.74 156.87 L 141.74 155.84 C 141.74 154.99 141.05 154.30 140.20 154.30 C 139.35 154.30 138.66 154.99 138.66 155.84 Z M 138.68 156.87 L 138.68 157.85 C 138.68 158.69 139.36 159.37 140.20 159.37 C 141.04 159.37 141.72 158.69 141.72 157.85 L 141.72 156.87 C 141.72 156.03 141.04 155.35 140.20 155.35 C 139.36 155.35 138.68 156.03 138.68 156.87 Z M 138.70 157.85 L 138.70 158.82 C 138.70 159.65 139.37 160.32 140.20 160.32 C 141.03 160.32 141.70 159.65 141.70 158.82 L 141.70 157.85 C 141.70 157.02 141.03 156.35 140.20 156.35 C 139.38 156.35 138.70 157.02 138.70 157.85 Z M 138.72 158.76 L 138.68 159.78 C 138.65 160.59 139.28 161.28 140.10 161.32 C 140.92 161.35 141.61 160.71 141.64 159.90 L 141.68 158.88 C 141.72 158.06 141.08 157.37 140.26 157.34 C 139.44 157.31 138.75 157.94 138.72 158.76 Z M 138.72 159.55 L 138.53 160.51 C 138.37 161.31 138.89 162.08 139.68 162.23 C 140.48 162.39 141.25 161.88 141.41 161.08 L 141.60 160.12 C 141.76 159.33 141.24 158.56 140.45 158.40 C 139.65 158.24 138.88 158.76 138.72 159.55 Z M 138.65 160.21 L 138.25 161.11 C 137.92 161.84 138.25 162.70 138.98 163.02 C 139.71 163.35 140.57 163.02 140.89 162.29 L 141.29 161.39 C 141.62 160.65 141.29 159.80 140.56 159.47 C 139.83 159.15 138.97 159.48 138.65 160.21 Z M 138.31 161.02 L 138.15 161.30 C 137.78 162.00 138.03 162.87 138.73 163.24 C 139.43 163.62 140.30 163.36 140.68 162.67 L 140.83 162.38 C 141.21 161.69 140.95 160.82 140.25 160.44 C 139.55 160.06 138.68 160.32 138.31 161.02 Z"
      fill="black"
      fill-rule="nonzero" /><path d="M 135.02 159.40 L 134.20 159.97 C 133.54 160.44 133.38 161.35 133.85 162.01 C 134.31 162.68 135.23 162.84 135.89 162.37 L 136.70 161.80 C 137.37 161.33 137.53 160.42 137.06 159.75 C 136.59 159.09 135.68 158.93 135.02 159.40 Z M 134.18 159.92 L 133.23 160.57 C 132.54 161.05 132.37 162.00 132.85 162.69 C 133.33 163.38 134.28 163.55 134.97 163.08 L 135.91 162.42 C 136.60 161.94 136.77 161.00 136.30 160.30 C 135.82 159.61 134.87 159.44 134.18 159.92 Z M 132.87 160.85 L 132.56 161.23 C 132.02 161.91 132.14 162.90 132.82 163.44 C 133.50 163.98 134.49 163.87 135.03 163.19 L 135.33 162.80 C 135.87 162.12 135.76 161.13 135.08 160.59 C 134.40 160.05 133.41 160.16 132.87 160.85 Z M 134.19 163.77 L 135.00 163.56 C 135.86 163.35 136.38 162.47 136.16 161.61 C 135.95 160.75 135.08 160.23 134.22 160.45 L 133.41 160.65 C 132.55 160.87 132.02 161.74 132.24 162.60 C 132.45 163.46 133.33 163.98 134.19 163.77 Z M 135.15 163.53 L 136.37 163.09 C 137.22 162.80 137.66 161.87 137.36 161.03 C 137.06 160.19 136.14 159.75 135.30 160.05 L 134.07 160.48 C 133.23 160.78 132.78 161.70 133.08 162.54 C 133.38 163.39 134.30 163.83 135.15 163.53 Z M 136.42 163.08 L 137.36 162.72 C 138.20 162.40 138.62 161.46 138.30 160.62 C 137.98 159.79 137.04 159.37 136.20 159.69 L 135.25 160.06 C 134.42 160.38 134.00 161.32 134.32 162.15 C 134.64 162.99 135.58 163.41 136.42 163.08 Z M 137.38 162.71 L 138.36 162.33 C 139.19 162.00 139.60 161.06 139.27 160.22 C 138.94 159.39 138.00 158.98 137.16 159.31 L 136.19 159.70 C 135.35 160.03 134.95 160.97 135.27 161.80 C 135.60 162.64 136.55 163.04 137.38 162.71 Z M 138.36 162.33 L 139.28 161.96 C 140.11 161.63 140.51 160.69 140.18 159.85 C 139.85 159.02 138.91 158.62 138.07 158.95 L 137.16 159.31 C 136.33 159.65 135.92 160.59 136.25 161.42 C 136.59 162.25 137.53 162.66 138.36 162.33 Z M 139.27 161.96 L 140.28 161.56 C 141.11 161.23 141.52 160.29 141.19 159.46 C 140.86 158.63 139.92 158.23 139.09 158.55 L 138.08 158.95 C 137.25 159.28 136.84 160.22 137.17 161.05 C 137.50 161.88 138.44 162.29 139.27 161.96 Z M 140.28 161.54 L 141.16 161.19 C 141.98 160.86 142.38 159.93 142.05 159.11 C 141.72 158.29 140.79 157.89 139.97 158.22 L 139.09 158.57 C 138.27 158.90 137.87 159.83 138.20 160.65 C 138.53 161.47 139.46 161.87 140.28 161.54 Z M 141.18 161.16 L 142.03 160.80 C 142.84 160.46 143.22 159.53 142.87 158.73 C 142.53 157.92 141.60 157.55 140.80 157.89 L 139.95 158.25 C 139.14 158.59 138.77 159.52 139.11 160.32 C 139.45 161.13 140.38 161.50 141.18 161.16 Z M 142.06 160.77 L 142.98 160.36 C 143.77 160.00 144.13 159.08 143.77 158.29 C 143.42 157.50 142.49 157.15 141.70 157.50 L 140.78 157.92 C 139.99 158.27 139.64 159.20 139.99 159.98 C 140.34 160.77 141.27 161.13 142.06 160.77 Z M 142.98 160.34 L 143.89 159.93 C 144.67 159.57 145.02 158.66 144.67 157.88 C 144.31 157.10 143.40 156.75 142.62 157.11 L 141.71 157.52 C 140.93 157.87 140.58 158.79 140.93 159.57 C 141.29 160.35 142.20 160.69 142.98 160.34 Z M 143.87 159.90 L 144.79 159.50 C 145.56 159.16 145.91 158.26 145.57 157.49 C 145.23 156.73 144.33 156.38 143.57 156.72 L 142.64 157.13 C 141.87 157.47 141.53 158.36 141.87 159.13 C 142.21 159.90 143.10 160.24 143.87 159.90 Z M 144.78 159.45 L 145.68 159.05 C 146.42 158.72 146.76 157.85 146.42 157.10 C 146.09 156.36 145.22 156.03 144.47 156.36 L 143.58 156.76 C 142.83 157.09 142.50 157.97 142.83 158.71 C 143.17 159.45 144.04 159.79 144.78 159.45 Z M 145.69 159.01 L 146.56 158.60 C 147.29 158.26 147.60 157.40 147.25 156.68 C 146.91 155.95 146.05 155.65 145.33 155.99 L 144.46 156.40 C 143.73 156.74 143.43 157.60 143.77 158.32 C 144.11 159.05 144.97 159.36 145.69 159.01 Z M 146.58 158.58 L 147.49 158.14 C 148.20 157.79 148.50 156.93 148.15 156.22 C 147.80 155.50 146.94 155.21 146.23 155.56 L 145.31 156.01 C 144.60 156.35 144.31 157.21 144.66 157.93 C 145.01 158.64 145.87 158.93 146.58 158.58 Z M 147.49 158.13 L 148.03 157.86 C 148.74 157.51 149.03 156.65 148.68 155.95 C 148.33 155.24 147.47 154.95 146.76 155.30 L 146.22 155.57 C 145.52 155.92 145.23 156.77 145.58 157.48 C 145.93 158.19 146.79 158.48 147.49 158.13 Z"
      fill="black"
      fill-rule="nonzero" /><path d="M 151.96 137.69 L 152.80 138.29 C 153.49 138.79 154.46 138.64 154.96 137.94 C 155.46 137.25 155.30 136.28 154.61 135.78 L 153.77 135.18 C 153.08 134.68 152.11 134.83 151.61 135.53 C 151.11 136.22 151.26 137.19 151.96 137.69 Z M 153.34 138.54 L 154.22 138.76 C 155.06 138.96 155.89 138.45 156.10 137.62 C 156.30 136.79 155.79 135.95 154.96 135.75 L 154.07 135.53 C 153.24 135.33 152.40 135.84 152.20 136.67 C 151.99 137.50 152.50 138.34 153.34 138.54 Z M 154.95 138.76 L 155.93 138.53 C 156.76 138.33 157.27 137.50 157.08 136.66 C 156.88 135.83 156.05 135.32 155.22 135.51 L 154.23 135.75 C 153.40 135.94 152.89 136.78 153.08 137.61 C 153.28 138.44 154.11 138.96 154.95 138.76 Z M 156.06 138.49 L 156.99 138.18 C 157.80 137.91 158.24 137.04 157.97 136.23 C 157.71 135.42 156.83 134.98 156.02 135.24 L 155.09 135.55 C 154.28 135.82 153.84 136.69 154.10 137.50 C 154.37 138.31 155.24 138.76 156.06 138.49 Z M 156.99 138.18 L 157.97 137.85 C 158.78 137.58 159.22 136.71 158.95 135.90 C 158.68 135.09 157.80 134.65 156.99 134.92 L 156.02 135.25 C 155.21 135.52 154.77 136.39 155.04 137.20 C 155.31 138.01 156.18 138.45 156.99 138.18 Z M 157.99 137.84 L 158.93 137.51 C 159.73 137.24 160.16 136.36 159.88 135.55 C 159.60 134.75 158.72 134.33 157.92 134.61 L 156.98 134.93 C 156.17 135.21 155.75 136.09 156.03 136.89 C 156.31 137.70 157.18 138.12 157.99 137.84 Z M 158.93 137.50 L 159.88 137.17 C 160.68 136.89 161.10 136.02 160.82 135.22 C 160.54 134.42 159.66 134.00 158.87 134.28 L 157.92 134.62 C 157.12 134.90 156.70 135.77 156.98 136.57 C 157.26 137.37 158.13 137.78 158.93 137.50 Z M 159.87 137.16 L 160.80 136.84 C 161.60 136.57 162.02 135.71 161.75 134.91 C 161.48 134.12 160.62 133.70 159.82 133.97 L 158.88 134.29 C 158.09 134.56 157.66 135.42 157.94 136.22 C 158.21 137.01 159.07 137.44 159.87 137.16 Z M 160.79 136.83 L 161.74 136.51 C 162.53 136.25 162.95 135.39 162.69 134.61 C 162.42 133.82 161.57 133.39 160.78 133.66 L 159.83 133.98 C 159.04 134.24 158.62 135.10 158.88 135.89 C 159.15 136.67 160.00 137.10 160.79 136.83 Z M 161.75 136.50 L 162.71 136.17 C 163.49 135.90 163.90 135.05 163.64 134.27 C 163.37 133.49 162.52 133.07 161.74 133.34 L 160.77 133.67 C 159.99 133.94 159.58 134.79 159.85 135.57 C 160.12 136.35 160.97 136.77 161.75 136.50 Z M 162.73 136.15 L 163.68 135.81 C 164.45 135.53 164.85 134.68 164.57 133.91 C 164.29 133.14 163.44 132.74 162.67 133.02 L 161.72 133.36 C 160.95 133.64 160.55 134.49 160.83 135.26 C 161.10 136.03 161.96 136.43 162.73 136.15 Z M 163.72 135.78 L 164.80 135.36 C 165.56 135.06 165.93 134.20 165.63 133.44 C 165.34 132.68 164.48 132.31 163.72 132.61 L 162.63 133.04 C 161.88 133.34 161.50 134.19 161.80 134.95 C 162.10 135.71 162.96 136.08 163.72 135.78 Z M 164.83 135.33 L 165.51 135.05 C 166.26 134.74 166.61 133.88 166.30 133.13 C 165.99 132.39 165.13 132.04 164.38 132.35 L 163.70 132.63 C 162.95 132.94 162.60 133.80 162.91 134.55 C 163.22 135.29 164.08 135.64 164.83 135.33 Z M 164.22 132.45 L 163.33 132.97 C 162.64 133.38 162.41 134.26 162.82 134.95 C 163.22 135.64 164.11 135.87 164.80 135.46 L 165.68 134.94 C 166.37 134.54 166.60 133.65 166.19 132.96 C 165.79 132.28 164.90 132.05 164.22 132.45 Z M 163.15 133.07 L 162.37 133.70 C 161.74 134.20 161.64 135.12 162.15 135.75 C 162.65 136.39 163.58 136.49 164.21 135.98 L 164.98 135.36 C 165.61 134.85 165.71 133.93 165.21 133.30 C 164.70 132.67 163.78 132.57 163.15 133.07 Z M 162.21 133.78 L 161.51 134.48 C 160.93 135.08 160.94 136.04 161.53 136.63 C 162.13 137.21 163.09 137.20 163.68 136.61 L 164.37 135.90 C 164.96 135.30 164.95 134.34 164.35 133.76 C 163.76 133.17 162.80 133.18 162.21 133.78 Z M 161.40 134.57 L 160.76 135.35 C 160.23 136.01 160.33 136.98 160.99 137.52 C 161.65 138.06 162.62 137.96 163.16 137.30 L 163.79 136.52 C 164.33 135.86 164.23 134.88 163.57 134.35 C 162.91 133.81 161.93 133.91 161.40 134.57 Z M 160.67 135.46 L 160.14 136.24 C 159.66 136.96 159.85 137.92 160.56 138.40 C 161.28 138.88 162.24 138.69 162.72 137.98 L 163.25 137.19 C 163.73 136.48 163.54 135.51 162.83 135.03 C 162.12 134.55 161.15 134.74 160.67 135.46 Z M 160.08 136.33 L 159.56 137.22 C 159.13 137.97 159.38 138.93 160.13 139.36 C 160.87 139.79 161.83 139.54 162.27 138.79 L 162.79 137.90 C 163.22 137.15 162.97 136.19 162.22 135.76 C 161.47 135.32 160.51 135.58 160.08 136.33 Z M 159.52 137.27 L 159.05 138.17 C 158.64 138.94 158.93 139.89 159.70 140.30 C 160.46 140.70 161.42 140.41 161.82 139.65 L 162.30 138.74 C 162.71 137.98 162.42 137.02 161.65 136.62 C 160.88 136.21 159.93 136.50 159.52 137.27 Z M 159.03 138.20 L 158.57 139.11 C 158.17 139.89 158.49 140.83 159.26 141.23 C 160.04 141.62 160.99 141.31 161.38 140.53 L 161.84 139.62 C 162.23 138.84 161.92 137.90 161.15 137.50 C 160.37 137.11 159.42 137.42 159.03 138.20 Z M 158.56 139.12 L 158.11 140.03 C 157.73 140.81 158.05 141.76 158.83 142.14 C 159.61 142.53 160.56 142.20 160.94 141.42 L 161.39 140.52 C 161.77 139.73 161.45 138.79 160.67 138.40 C 159.89 138.02 158.94 138.34 158.56 139.12 Z M 158.11 140.03 L 157.67 140.92 C 157.29 141.71 157.62 142.65 158.40 143.04 C 159.19 143.42 160.13 143.09 160.52 142.31 L 160.95 141.42 C 161.33 140.63 161.01 139.69 160.22 139.31 C 159.44 138.92 158.49 139.25 158.11 140.03 Z M 157.68 140.90 L 157.25 141.77 C 156.85 142.55 157.17 143.50 157.95 143.89 C 158.73 144.29 159.68 143.97 160.07 143.19 L 160.51 142.32 C 160.90 141.54 160.59 140.59 159.81 140.20 C 159.02 139.81 158.07 140.12 157.68 140.90 Z M 157.26 141.75 L 156.80 142.64 C 156.39 143.41 156.70 144.37 157.47 144.77 C 158.25 145.17 159.20 144.87 159.61 144.09 L 160.06 143.21 C 160.47 142.43 160.16 141.48 159.39 141.08 C 158.61 140.67 157.66 140.98 157.26 141.75 Z M 156.80 142.64 L 156.32 143.55 C 155.92 144.32 156.23 145.28 157.00 145.68 C 157.78 146.08 158.73 145.78 159.14 145.00 L 159.61 144.09 C 160.01 143.32 159.71 142.36 158.93 141.96 C 158.15 141.56 157.20 141.86 156.80 142.64 Z M 156.32 143.56 L 155.86 144.46 C 155.46 145.24 155.77 146.19 156.55 146.59 C 157.33 146.99 158.28 146.68 158.68 145.90 L 159.14 144.99 C 159.54 144.21 159.23 143.26 158.45 142.86 C 157.67 142.47 156.72 142.78 156.32 143.56 Z M 155.86 144.46 L 155.41 145.33 C 155.01 146.11 155.32 147.06 156.10 147.46 C 156.88 147.86 157.83 147.55 158.23 146.78 L 158.68 145.90 C 159.08 145.12 158.77 144.17 157.99 143.77 C 157.21 143.37 156.26 143.68 155.86 144.46 Z M 155.42 145.31 L 154.94 146.22 C 154.53 147.00 154.83 147.96 155.61 148.36 C 156.38 148.77 157.34 148.47 157.75 147.70 L 158.23 146.79 C 158.63 146.02 158.34 145.06 157.56 144.65 C 156.79 144.24 155.83 144.54 155.42 145.31 Z M 154.94 146.22 L 154.49 147.09 C 154.08 147.86 154.38 148.82 155.15 149.23 C 155.93 149.64 156.88 149.34 157.29 148.56 L 157.75 147.70 C 158.16 146.93 157.86 145.97 157.08 145.56 C 156.31 145.15 155.35 145.45 154.94 146.22 Z M 154.47 147.11 L 154.01 148.02 C 153.62 148.80 153.93 149.76 154.71 150.15 C 155.49 150.55 156.45 150.24 156.84 149.45 L 157.31 148.54 C 157.70 147.76 157.39 146.80 156.61 146.41 C 155.82 146.01 154.87 146.33 154.47 147.11 Z M 153.99 148.06 L 153.54 149.04 C 153.17 149.83 153.51 150.77 154.30 151.14 C 155.09 151.52 156.04 151.18 156.41 150.38 L 156.86 149.41 C 157.24 148.62 156.89 147.67 156.10 147.30 C 155.31 146.93 154.36 147.27 153.99 148.06 Z M 153.40 149.54 L 153.32 150.29 C 153.22 151.16 153.85 151.94 154.72 152.03 C 155.59 152.13 156.37 151.50 156.46 150.63 L 156.54 149.88 C 156.64 149.01 156.01 148.23 155.14 148.14 C 154.27 148.04 153.49 148.67 153.40 149.54 Z M 155.32 151.98 L 156.22 151.73 C 157.06 151.49 157.55 150.62 157.32 149.78 C 157.08 148.94 156.21 148.45 155.37 148.69 L 154.46 148.94 C 153.63 149.18 153.14 150.05 153.37 150.89 C 153.61 151.73 154.48 152.22 155.32 151.98 Z M 156.50 151.62 L 157.46 151.14 C 158.24 150.75 158.55 149.81 158.17 149.03 C 157.78 148.25 156.83 147.93 156.05 148.32 L 155.10 148.80 C 154.32 149.19 154.00 150.13 154.39 150.91 C 154.78 151.69 155.72 152.00 156.50 151.62 Z M 157.48 151.13 L 158.38 150.66 C 159.15 150.26 159.46 149.31 159.06 148.54 C 158.66 147.77 157.72 147.47 156.94 147.87 L 156.04 148.33 C 155.27 148.73 154.96 149.68 155.36 150.45 C 155.76 151.22 156.71 151.52 157.48 151.13 Z M 158.34 150.68 L 159.27 150.23 C 160.05 149.86 160.38 148.93 160.01 148.14 C 159.64 147.36 158.70 147.03 157.92 147.40 L 156.99 147.85 C 156.21 148.22 155.88 149.16 156.25 149.94 C 156.62 150.72 157.56 151.05 158.34 150.68 Z M 159.19 150.26 L 160.08 149.90 C 160.88 149.57 161.26 148.66 160.94 147.86 C 160.61 147.06 159.70 146.68 158.90 147.01 L 158.01 147.37 C 157.21 147.70 156.82 148.61 157.15 149.41 C 157.48 150.21 158.39 150.59 159.19 150.26 Z M 160.00 149.92 L 160.92 149.60 C 161.73 149.32 162.16 148.44 161.88 147.62 C 161.60 146.81 160.71 146.38 159.90 146.66 L 158.98 146.98 C 158.17 147.26 157.74 148.15 158.02 148.96 C 158.30 149.78 159.19 150.21 160.00 149.92 Z M 160.86 149.62 L 161.83 149.32 C 162.66 149.07 163.12 148.20 162.87 147.38 C 162.62 146.56 161.75 146.10 160.93 146.35 L 159.96 146.65 C 159.14 146.90 158.67 147.77 158.92 148.59 C 159.17 149.41 160.04 149.87 160.86 149.62 Z M 161.78 149.34 L 162.73 149.09 C 163.56 148.87 164.05 148.02 163.83 147.19 C 163.61 146.36 162.76 145.87 161.93 146.09 L 160.98 146.34 C 160.16 146.56 159.66 147.41 159.88 148.24 C 160.10 149.06 160.95 149.56 161.78 149.34 Z M 162.60 149.11 L 163.62 148.93 C 164.46 148.78 165.02 147.98 164.87 147.13 C 164.72 146.29 163.92 145.73 163.07 145.88 L 162.06 146.06 C 161.21 146.21 160.65 147.01 160.80 147.86 C 160.95 148.70 161.76 149.26 162.60 149.11 Z M 163.38 148.96 L 164.43 148.94 C 165.29 148.92 165.97 148.21 165.96 147.35 C 165.94 146.49 165.23 145.81 164.37 145.83 L 163.31 145.85 C 162.45 145.87 161.77 146.58 161.79 147.44 C 161.81 148.30 162.52 148.98 163.38 148.96 Z M 163.90 148.86 L 164.77 149.15 C 165.58 149.43 166.47 148.99 166.74 148.18 C 167.02 147.36 166.58 146.48 165.77 146.20 L 164.90 145.91 C 164.09 145.63 163.20 146.07 162.92 146.88 C 162.65 147.70 163.08 148.58 163.90 148.86 Z M 163.97 148.56 L 164.52 149.35 C 165.00 150.06 165.98 150.25 166.69 149.76 C 167.40 149.27 167.59 148.30 167.10 147.58 L 166.56 146.79 C 166.07 146.08 165.10 145.90 164.38 146.38 C 163.67 146.87 163.49 147.84 163.97 148.56 Z M 164.27 148.81 L 164.49 149.77 C 164.67 150.61 165.51 151.15 166.36 150.96 C 167.21 150.77 167.74 149.93 167.55 149.09 L 167.34 148.13 C 167.15 147.28 166.31 146.75 165.47 146.93 C 164.62 147.12 164.09 147.96 164.27 148.81 Z M 164.45 149.54 L 164.52 150.53 C 164.58 151.40 165.34 152.05 166.20 151.99 C 167.07 151.93 167.72 151.17 167.66 150.31 L 167.59 149.32 C 167.53 148.45 166.78 147.79 165.91 147.86 C 165.04 147.92 164.39 148.67 164.45 149.54 Z M 164.51 150.45 L 164.53 151.50 C 164.55 152.37 165.27 153.06 166.14 153.05 C 167.01 153.03 167.70 152.31 167.69 151.44 L 167.67 150.39 C 167.65 149.52 166.93 148.82 166.06 148.84 C 165.19 148.86 164.50 149.58 164.51 150.45 Z M 164.53 151.48 L 164.53 152.50 C 164.54 153.38 165.25 154.08 166.12 154.08 C 167.00 154.07 167.70 153.36 167.70 152.49 L 167.69 151.46 C 167.69 150.59 166.97 149.88 166.10 149.89 C 165.23 149.89 164.52 150.60 164.53 151.48 Z M 164.53 152.50 L 164.53 153.49 C 164.53 154.37 165.24 155.07 166.12 155.07 C 166.99 155.07 167.70 154.36 167.70 153.49 L 167.70 152.50 C 167.70 151.62 166.99 150.91 166.11 150.91 C 165.24 150.91 164.53 151.62 164.53 152.50 Z M 164.53 153.49 L 164.53 154.50 C 164.53 155.38 165.24 156.09 166.12 156.09 C 166.99 156.09 167.70 155.38 167.70 154.50 L 167.70 153.49 C 167.70 152.62 166.99 151.91 166.12 151.91 C 165.24 151.91 164.53 152.62 164.53 153.49 Z M 164.53 154.50 L 164.53 155.46 C 164.53 156.34 165.24 157.05 166.11 157.05 C 166.99 157.05 167.70 156.34 167.70 155.46 L 167.70 154.50 C 167.70 153.63 166.99 152.92 166.12 152.92 C 165.24 152.92 164.53 153.63 164.53 154.50 Z M 164.53 155.44 L 164.51 156.44 C 164.50 157.32 165.20 158.04 166.08 158.05 C 166.95 158.07 167.67 157.37 167.69 156.49 L 167.70 155.48 C 167.72 154.61 167.02 153.89 166.14 153.87 C 165.26 153.86 164.54 154.56 164.53 155.44 Z M 164.52 156.37 L 164.45 157.38 C 164.40 158.25 165.06 159.00 165.94 159.06 C 166.81 159.12 167.57 158.45 167.62 157.58 L 167.68 156.57 C 167.74 155.69 167.08 154.94 166.20 154.88 C 165.33 154.83 164.57 155.49 164.52 156.37 Z M 164.46 157.30 L 164.35 158.29 C 164.25 159.16 164.88 159.94 165.75 160.04 C 166.62 160.13 167.41 159.51 167.51 158.63 L 167.61 157.65 C 167.71 156.78 167.08 156.00 166.21 155.90 C 165.34 155.80 164.56 156.43 164.46 157.30 Z M 164.35 158.27 L 164.23 159.26 C 164.13 160.13 164.75 160.92 165.62 161.03 C 166.49 161.13 167.28 160.51 167.38 159.64 L 167.50 158.65 C 167.61 157.78 166.99 156.99 166.12 156.88 C 165.25 156.78 164.46 157.40 164.35 158.27 Z M 164.23 159.28 L 164.12 160.28 C 164.03 161.15 164.66 161.93 165.53 162.02 C 166.40 162.12 167.19 161.49 167.28 160.62 L 167.39 159.62 C 167.48 158.75 166.85 157.97 165.98 157.87 C 165.11 157.78 164.32 158.41 164.23 159.28 Z M 164.12 160.31 L 164.03 161.30 C 163.95 162.18 164.60 162.95 165.47 163.03 C 166.34 163.10 167.12 162.46 167.19 161.59 L 167.28 160.59 C 167.36 159.71 166.72 158.94 165.84 158.87 C 164.97 158.79 164.20 159.43 164.12 160.31 Z M 164.03 161.32 L 163.95 162.32 C 163.88 163.19 164.53 163.96 165.40 164.03 C 166.28 164.10 167.04 163.45 167.11 162.57 L 167.19 161.57 C 167.27 160.70 166.61 159.93 165.74 159.86 C 164.87 159.79 164.10 160.44 164.03 161.32 Z M 163.95 162.34 L 163.88 163.32 C 163.82 164.20 164.48 164.96 165.35 165.02 C 166.23 165.08 166.98 164.42 167.05 163.55 L 167.12 162.56 C 167.18 161.68 166.52 160.92 165.64 160.86 C 164.77 160.80 164.01 161.46 163.95 162.34 Z M 163.88 163.35 L 163.82 164.35 C 163.78 165.23 164.45 165.97 165.32 166.02 C 166.20 166.07 166.95 165.40 166.99 164.52 L 167.05 163.52 C 167.10 162.65 166.42 161.90 165.55 161.85 C 164.67 161.80 163.92 162.47 163.88 163.35 Z M 163.82 164.33 L 163.76 165.31 C 163.70 166.18 164.37 166.94 165.24 166.99 C 166.12 167.05 166.87 166.39 166.93 165.51 L 166.99 164.54 C 167.05 163.66 166.39 162.91 165.51 162.85 C 164.64 162.80 163.88 163.46 163.82 164.33 Z M 163.76 165.29 L 163.68 166.29 C 163.61 167.17 164.27 167.93 165.14 168.00 C 166.01 168.07 166.78 167.42 166.85 166.54 L 166.93 165.54 C 167.00 164.66 166.34 163.90 165.47 163.83 C 164.60 163.76 163.83 164.41 163.76 165.29 Z M 163.68 166.30 L 163.61 167.27 C 163.55 168.14 164.20 168.90 165.08 168.97 C 165.95 169.03 166.71 168.38 166.78 167.50 L 166.85 166.54 C 166.91 165.66 166.26 164.90 165.38 164.83 C 164.51 164.77 163.75 165.43 163.68 166.30 Z M 163.61 167.24 L 163.52 168.27 C 163.44 169.15 164.08 169.92 164.96 170.00 C 165.83 170.08 166.60 169.43 166.68 168.56 L 166.78 167.53 C 166.85 166.65 166.21 165.88 165.34 165.80 C 164.46 165.72 163.69 166.37 163.61 167.24 Z M 163.53 168.16 L 163.35 169.28 C 163.21 170.14 163.80 170.96 164.66 171.10 C 165.53 171.24 166.35 170.65 166.49 169.79 L 166.67 168.67 C 166.81 167.81 166.22 166.99 165.36 166.85 C 164.49 166.71 163.67 167.29 163.53 168.16 Z M 163.58 168.67 L 163.15 169.34 C 162.67 170.08 162.88 171.06 163.62 171.54 C 164.36 172.02 165.34 171.80 165.82 171.07 L 166.25 170.40 C 166.73 169.66 166.52 168.67 165.78 168.20 C 165.05 167.72 164.06 167.93 163.58 168.67 Z M 164.74 168.63 L 163.84 168.48 C 162.97 168.34 162.15 168.93 162.01 169.79 C 161.86 170.66 162.45 171.48 163.32 171.62 L 164.23 171.77 C 165.09 171.92 165.91 171.33 166.06 170.46 C 166.20 169.59 165.61 168.77 164.74 168.63 Z M 164.15 168.58 L 163.15 168.19 C 162.34 167.87 161.42 168.27 161.10 169.09 C 160.78 169.90 161.18 170.82 162.00 171.14 L 163.00 171.53 C 163.82 171.85 164.74 171.44 165.05 170.63 C 165.37 169.81 164.97 168.89 164.15 168.58 Z M 163.05 168.17 L 162.09 167.86 C 161.27 167.60 160.39 168.06 160.13 168.89 C 159.86 169.71 160.32 170.59 161.15 170.85 L 162.10 171.16 C 162.93 171.42 163.81 170.96 164.07 170.14 C 164.33 169.31 163.87 168.43 163.05 168.17 Z M 162.00 167.87 L 161.04 167.62 C 160.21 167.41 159.37 167.91 159.16 168.73 C 158.95 169.55 159.45 170.39 160.27 170.61 L 161.24 170.85 C 162.06 171.06 162.90 170.57 163.11 169.74 C 163.32 168.92 162.83 168.08 162.00 167.87 Z M 160.95 167.63 L 159.97 167.44 C 159.15 167.28 158.36 167.81 158.20 168.63 C 158.04 169.45 158.57 170.24 159.39 170.40 L 160.37 170.59 C 161.19 170.75 161.98 170.22 162.14 169.40 C 162.30 168.58 161.76 167.79 160.95 167.63 Z M 159.89 167.45 L 158.92 167.31 C 158.11 167.20 157.36 167.76 157.24 168.57 C 157.12 169.38 157.69 170.14 158.50 170.25 L 159.47 170.39 C 160.28 170.51 161.03 169.94 161.15 169.13 C 161.27 168.32 160.70 167.57 159.89 167.45 Z M 158.83 167.32 L 157.82 167.24 C 157.01 167.17 156.30 167.76 156.23 168.57 C 156.16 169.38 156.76 170.08 157.57 170.15 L 158.58 170.24 C 159.39 170.31 160.10 169.72 160.17 168.91 C 160.24 168.10 159.64 167.39 158.83 167.32 Z M 157.73 167.25 L 156.74 167.22 C 155.94 167.20 155.27 167.82 155.25 168.62 C 155.22 169.42 155.85 170.09 156.65 170.11 L 157.65 170.14 C 158.45 170.17 159.12 169.54 159.14 168.74 C 159.16 167.94 158.53 167.27 157.73 167.25 Z M 156.70 167.23 L 155.90 167.23 C 155.11 167.23 154.46 167.87 154.46 168.66 C 154.46 169.45 155.10 170.09 155.89 170.10 L 156.69 170.10 C 157.48 170.10 158.13 169.46 158.13 168.67 C 158.13 167.88 157.49 167.23 156.70 167.23 Z"
      fill="black"
      fill-rule="nonzero" /></svg>