<svg xmlns="http://www.w3.org/2000/svg" width="300" height="300" viewBox="0 0 300 300">
<path d="M 142.80 130.29 L 143.77 130.18 C 144.60 130.10 145.21 129.35 145.12 128.52 C 145.03 127.69 144.29 127.09 143.46 127.18 L 142.49 127.28 C 141.65 127.36 141.05 128.11 141.14 128.94 C 141.22 129.77 141.97 130.37 142.80 130.29 Z M 143.72 130.21 L 144.73 130.14 C 145.58 130.09 146.22 129.35 146.16 128.50 C 146.10 127.66 145.37 127.02 144.52 127.08 L 143.51 127.14 C 142.66 127.20 142.02 127.94 142.08 128.79 C 142.14 129.63 142.87 130.27 143.72 130.21 Z M 144.66 130.16 L 145.63 130.13 C 146.49 130.11 147.16 129.40 147.14 128.55 C 147.12 127.70 146.41 127.02 145.56 127.04 L 144.59 127.06 C 143.73 127.09 143.06 127.79 143.08 128.65 C 143.10 129.50 143.81 130.18 144.66 130.16 Z M 145.60 130.12 L 146.64 130.12 C 147.49 130.12 148.17 129.43 148.17 128.58 C 148.17 127.73 147.48 127.04 146.63 127.05 L 145.59 127.05 C 144.74 127.05 144.05 127.74 144.06 128.59 C 144.06 129.44 144.75 130.13 145.60 130.12 Z M 146.64 130.11 L 147.62 130.11 C 148.46 130.11 149.15 129.42 149.14 128.58 C 149.14 127.73 148.46 127.05 147.61 127.05 L 146.63 127.06 C 145.79 127.06 145.10 127.74 145.11 128.59 C 145.11 129.43 145.79 130.11 146.64 130.11 Z M 147.64 130.10 L 148.65 130.08 C 149.49 130.07 150.16 129.38 150.14 128.54 C 150.13 127.70 149.44 127.03 148.60 127.05 L 147.59 127.06 C 146.75 127.08 146.09 127.77 146.10 128.61 C 146.11 129.44 146.80 130.11 147.64 130.10 Z M 148.69 130.07 L 149.69 130.03 C 150.52 129.99 151.17 129.29 151.13 128.45 C 151.10 127.62 150.39 126.98 149.56 127.02 L 148.56 127.06 C 147.73 127.10 147.09 127.80 147.12 128.63 C 147.16 129.46 147.86 130.11 148.69 130.07 Z M 149.74 130.01 L 150.73 129.94 C 151.56 129.87 152.17 129.15 152.11 128.33 C 152.05 127.51 151.33 126.89 150.51 126.95 L 149.51 127.03 C 148.69 127.09 148.07 127.81 148.14 128.63 C 148.20 129.46 148.92 130.07 149.74 130.01 Z M 150.78 129.92 L 151.78 129.81 C 152.60 129.72 153.19 128.99 153.10 128.18 C 153.01 127.36 152.28 126.77 151.47 126.86 L 150.46 126.97 C 149.65 127.06 149.06 127.79 149.14 128.60 C 149.23 129.42 149.96 130.01 150.78 129.92 Z M 151.82 129.79 L 152.83 129.66 C 153.63 129.55 154.20 128.81 154.09 128.01 C 153.98 127.20 153.24 126.63 152.44 126.74 L 151.43 126.88 C 150.62 126.99 150.06 127.73 150.17 128.53 C 150.28 129.34 151.02 129.90 151.82 129.79 Z M 152.86 129.64 L 153.84 129.49 C 154.64 129.37 155.18 128.62 155.06 127.82 C 154.94 127.03 154.19 126.48 153.39 126.61 L 152.41 126.76 C 151.61 126.88 151.07 127.63 151.19 128.42 C 151.32 129.22 152.06 129.77 152.86 129.64 Z M 153.86 129.47 L 154.88 129.30 C 155.67 129.16 156.20 128.42 156.06 127.63 C 155.93 126.84 155.18 126.31 154.39 126.45 L 153.37 126.62 C 152.59 126.76 152.06 127.51 152.19 128.29 C 152.33 129.08 153.08 129.61 153.86 129.47 Z M 154.90 129.29 L 155.88 129.10 C 156.66 128.95 157.17 128.20 157.03 127.42 C 156.88 126.64 156.13 126.13 155.35 126.28 L 154.37 126.46 C 153.59 126.61 153.08 127.36 153.22 128.14 C 153.37 128.92 154.12 129.43 154.90 129.29 Z M 155.91 129.09 L 156.87 128.88 C 157.64 128.72 158.14 127.96 157.97 127.19 C 157.81 126.42 157.05 125.92 156.28 126.09 L 155.32 126.29 C 154.54 126.45 154.05 127.21 154.21 127.98 C 154.38 128.76 155.14 129.25 155.91 129.09 Z M 156.90 128.88 L 157.86 128.65 C 158.63 128.47 159.10 127.71 158.93 126.94 C 158.75 126.17 157.98 125.69 157.21 125.87 L 156.25 126.10 C 155.48 126.27 155.01 127.04 155.19 127.81 C 155.36 128.58 156.13 129.05 156.90 128.88 Z M 157.87 128.65 L 158.14 128.58 C 158.91 128.40 159.38 127.63 159.19 126.86 C 159.01 126.10 158.24 125.63 157.48 125.81 L 157.20 125.88 C 156.44 126.06 155.97 126.83 156.15 127.59 C 156.33 128.36 157.10 128.83 157.87 128.65 Z"
      fill="black"
      fill-rule="nonzero" /><path d="M 150.31 122.85 L 149.63 123.57 C 149.05 124.18 149.08 125.15 149.69 125.73 C 150.30 126.30 151.27 126.28 151.84 125.67 L 152.52 124.95 C 153.10 124.34 153.08 123.37 152.46 122.79 C 151.85 122.21 150.89 122.24 150.31 122.85 Z M 149.36 123.94 L 148.92 124.82 C 148.55 125.58 148.86 126.50 149.62 126.88 C 150.39 127.25 151.31 126.94 151.68 126.18 L 152.12 125.30 C 152.49 124.53 152.18 123.61 151.42 123.24 C 150.65 122.86 149.73 123.18 149.36 123.94 Z M 148.77 125.30 L 148.64 126.28 C 148.53 127.13 149.13 127.90 149.98 128.01 C 150.82 128.12 151.60 127.53 151.71 126.68 L 151.84 125.70 C 151.95 124.85 151.35 124.08 150.50 123.97 C 149.66 123.86 148.88 124.45 148.77 125.30 Z M 148.63 126.46 L 148.62 127.50 C 148.61 128.35 149.29 129.05 150.14 129.06 C 151.00 129.07 151.70 128.39 151.71 127.53 L 151.72 126.50 C 151.73 125.65 151.05 124.95 150.19 124.94 C 149.34 124.93 148.64 125.61 148.63 126.46 Z M 148.62 127.52 L 148.62 128.52 C 148.62 129.37 149.31 130.06 150.16 130.06 C 151.02 130.06 151.71 129.37 151.71 128.52 L 151.71 127.52 C 151.71 126.66 151.02 125.97 150.16 125.97 C 149.31 125.97 148.62 126.66 148.62 127.52 Z M 148.62 128.52 L 148.62 129.50 C 148.62 130.35 149.31 131.04 150.16 131.04 C 151.01 131.04 151.70 130.35 151.70 129.50 L 151.70 128.52 C 151.70 127.67 151.01 126.98 150.16 126.98 C 149.31 126.98 148.62 127.67 148.62 128.52 Z M 148.63 129.50 L 148.63 130.49 C 148.63 131.34 149.32 132.02 150.16 132.02 C 151.01 132.02 151.70 131.34 151.70 130.49 L 151.70 129.50 C 151.70 128.65 151.01 127.96 150.16 127.96 C 149.32 127.96 148.63 128.65 148.63 129.50 Z M 148.64 130.49 L 148.64 131.51 C 148.64 132.35 149.32 133.03 150.16 133.03 C 151.00 133.03 151.69 132.35 151.69 131.51 L 151.69 130.49 C 151.69 129.65 151.00 128.97 150.16 128.97 C 149.32 128.97 148.64 129.65 148.64 130.49 Z M 148.65 131.51 L 148.65 132.52 C 148.65 133.35 149.33 134.03 150.16 134.03 C 151.00 134.03 151.67 133.35 151.67 132.52 L 151.67 131.51 C 151.67 130.67 151.00 130.00 150.16 130.00 C 149.33 130.00 148.65 130.67 148.65 131.51 Z M 148.67 132.52 L 148.67 133.51 C 148.67 134.34 149.34 135.01 150.16 135.01 C 150.99 135.01 151.66 134.34 151.66 133.51 L 151.66 132.52 C 151.66 131.69 150.99 131.02 150.16 131.02 C 149.34 131.02 148.67 131.69 148.67 132.52 Z M 148.68 133.51 L 148.68 134.53 C 148.68 135.35 149.35 136.01 150.16 136.01 C 150.98 136.01 151.64 135.35 151.64 134.53 L 151.64 133.51 C 151.64 132.70 150.98 132.04 150.16 132.04 C 149.35 132.04 148.68 132.70 148.68 133.51 Z M 148.70 134.53 L 148.70 135.51 C 148.70 136.32 149.35 136.97 150.16 136.97 C 150.97 136.97 151.63 136.32 151.63 135.51 L 151.63 134.53 C 151.63 133.72 150.97 133.07 150.16 133.07 C 149.35 133.07 148.70 133.72 148.70 134.53 Z M 148.71 135.46 L 148.68 136.45 C 148.66 137.25 149.28 137.92 150.08 137.95 C 150.88 137.97 151.55 137.35 151.58 136.55 L 151.61 135.55 C 151.64 134.75 151.01 134.09 150.21 134.06 C 149.41 134.03 148.74 134.66 148.71 135.46 Z M 148.71 136.30 L 148.57 137.28 C 148.46 138.07 149.01 138.79 149.80 138.90 C 150.59 139.01 151.31 138.46 151.42 137.67 L 151.55 136.70 C 151.66 135.91 151.11 135.18 150.33 135.08 C 149.54 134.97 148.81 135.52 148.71 136.30 Z M 148.60 137.16 L 148.38 138.15 C 148.20 138.92 148.69 139.68 149.46 139.86 C 150.23 140.03 150.99 139.55 151.17 138.78 L 151.39 137.79 C 151.56 137.02 151.08 136.26 150.31 136.08 C 149.54 135.91 148.78 136.39 148.60 137.16 Z M 148.39 138.12 L 148.32 138.41 C 148.13 139.18 148.59 139.95 149.36 140.14 C 150.12 140.33 150.89 139.86 151.08 139.10 L 151.16 138.81 C 151.35 138.04 150.88 137.27 150.12 137.08 C 149.35 136.89 148.58 137.35 148.39 138.12 Z"
      fill="black"
      fill-rule="nonzero" /><path d="M 131.15 138.63 L 129.85 138.83 C 129.06 138.96 128.51 139.72 128.64 140.51 C 128.77 141.31 129.52 141.85 130.32 141.72 L 131.62 141.52 C 132.41 141.39 132.96 140.64 132.83 139.84 C 132.70 139.04 131.95 138.50 131.15 138.63 Z M 129.78 138.80 L 129.00 138.96 C 128.18 139.13 127.66 139.93 127.83 140.75 C 128.00 141.57 128.80 142.09 129.61 141.92 L 130.40 141.76 C 131.21 141.59 131.74 140.79 131.57 139.97 C 131.40 139.16 130.60 138.63 129.78 138.80 Z M 129.00 141.97 L 129.43 142.05 C 130.28 142.22 131.09 141.68 131.26 140.83 C 131.43 139.99 130.89 139.17 130.04 139.00 L 129.61 138.92 C 128.77 138.75 127.95 139.29 127.78 140.14 C 127.61 140.98 128.16 141.80 129.00 141.97 Z M 129.78 142.12 L 130.99 142.09 C 131.87 142.07 132.57 141.34 132.54 140.46 C 132.52 139.58 131.79 138.88 130.91 138.91 L 129.70 138.94 C 128.82 138.96 128.12 139.69 128.15 140.57 C 128.17 141.45 128.90 142.14 129.78 142.12 Z M 131.05 142.10 L 132.03 142.04 C 132.92 141.99 133.60 141.22 133.54 140.33 C 133.48 139.45 132.72 138.77 131.83 138.83 L 130.85 138.89 C 129.96 138.95 129.29 139.71 129.34 140.60 C 129.40 141.49 130.17 142.16 131.05 142.10 Z M 132.07 142.05 L 133.09 141.96 C 133.98 141.88 134.64 141.10 134.57 140.21 C 134.49 139.32 133.71 138.66 132.82 138.74 L 131.80 138.83 C 130.91 138.90 130.25 139.68 130.32 140.57 C 130.40 141.46 131.18 142.12 132.07 142.05 Z M 133.11 141.96 L 134.13 141.87 C 135.03 141.78 135.68 140.99 135.60 140.10 C 135.51 139.21 134.72 138.55 133.83 138.64 L 132.80 138.73 C 131.91 138.82 131.26 139.61 131.34 140.50 C 131.43 141.39 132.22 142.05 133.11 141.96 Z M 134.14 141.87 L 135.11 141.77 C 136.01 141.69 136.66 140.89 136.57 140.00 C 136.48 139.10 135.69 138.45 134.79 138.54 L 133.82 138.63 C 132.93 138.72 132.27 139.52 132.36 140.41 C 132.45 141.30 133.25 141.96 134.14 141.87 Z M 135.11 141.78 L 136.15 141.68 C 137.04 141.59 137.70 140.79 137.61 139.89 C 137.52 139.00 136.73 138.34 135.83 138.43 L 134.79 138.53 C 133.90 138.62 133.24 139.42 133.33 140.31 C 133.42 141.21 134.22 141.87 135.11 141.78 Z M 136.16 141.68 L 137.10 141.57 C 138.00 141.48 138.65 140.67 138.55 139.78 C 138.45 138.88 137.65 138.23 136.75 138.33 L 135.81 138.43 C 134.92 138.53 134.27 139.33 134.37 140.23 C 134.46 141.12 135.27 141.77 136.16 141.68 Z M 137.12 141.57 L 138.11 141.46 C 139.01 141.35 139.65 140.53 139.54 139.64 C 139.43 138.74 138.62 138.10 137.72 138.21 L 136.73 138.33 C 135.83 138.44 135.20 139.25 135.30 140.15 C 135.41 141.04 136.22 141.68 137.12 141.57 Z M 138.11 141.46 L 139.09 141.34 C 139.99 141.23 140.63 140.42 140.52 139.52 C 140.41 138.63 139.60 137.99 138.70 138.09 L 137.73 138.21 C 136.83 138.32 136.19 139.13 136.29 140.03 C 136.40 140.92 137.21 141.56 138.11 141.46 Z M 139.08 141.34 L 140.09 141.23 C 140.99 141.13 141.64 140.32 141.54 139.42 C 141.44 138.52 140.63 137.88 139.73 137.98 L 138.71 138.09 C 137.82 138.19 137.17 139.00 137.27 139.90 C 137.37 140.80 138.18 141.44 139.08 141.34 Z M 140.08 141.23 L 141.07 141.13 C 141.97 141.03 142.62 140.23 142.53 139.33 C 142.43 138.43 141.63 137.78 140.73 137.87 L 139.74 137.97 C 138.84 138.07 138.19 138.88 138.28 139.78 C 138.38 140.68 139.18 141.33 140.08 141.23 Z M 141.08 141.13 L 142.08 141.02 C 142.98 140.92 143.63 140.11 143.53 139.21 C 143.43 138.31 142.62 137.66 141.72 137.76 L 140.72 137.87 C 139.82 137.97 139.17 138.78 139.27 139.68 C 139.37 140.58 140.18 141.23 141.08 141.13 Z M 142.11 141.01 L 143.09 140.89 C 143.99 140.77 144.62 139.96 144.51 139.06 C 144.40 138.16 143.58 137.53 142.68 137.64 L 141.70 137.76 C 140.80 137.88 140.16 138.70 140.28 139.59 C 140.39 140.49 141.21 141.12 142.11 141.01 Z M 143.10 140.88 L 144.09 140.75 C 144.99 140.63 145.62 139.81 145.50 138.92 C 145.38 138.02 144.56 137.39 143.66 137.51 L 142.67 137.64 C 141.78 137.76 141.15 138.58 141.26 139.48 C 141.38 140.37 142.20 141.00 143.10 140.88 Z M 144.09 140.75 L 145.06 140.62 C 145.96 140.50 146.59 139.69 146.47 138.79 C 146.35 137.90 145.53 137.27 144.64 137.39 L 143.67 137.51 C 142.77 137.63 142.14 138.45 142.26 139.34 C 142.38 140.24 143.20 140.87 144.09 140.75 Z M 145.07 140.62 L 146.08 140.48 C 146.97 140.36 147.60 139.54 147.48 138.65 C 147.36 137.76 146.54 137.13 145.65 137.25 L 144.64 137.39 C 143.74 137.51 143.12 138.33 143.24 139.22 C 143.36 140.11 144.18 140.74 145.07 140.62 Z M 146.09 140.48 L 147.07 140.34 C 147.96 140.22 148.58 139.39 148.45 138.51 C 148.33 137.62 147.51 137.00 146.62 137.12 L 145.64 137.26 C 144.75 137.38 144.13 138.21 144.26 139.09 C 144.38 139.98 145.20 140.60 146.09 140.48 Z M 147.08 140.34 L 148.08 140.19 C 148.96 140.06 149.58 139.24 149.45 138.35 C 149.32 137.47 148.50 136.85 147.61 136.98 L 146.61 137.13 C 145.72 137.25 145.11 138.08 145.24 138.96 C 145.37 139.85 146.19 140.47 147.08 140.34 Z M 148.08 140.19 L 149.06 140.04 C 149.95 139.91 150.56 139.09 150.43 138.21 C 150.30 137.32 149.48 136.71 148.59 136.84 L 147.61 136.98 C 146.72 137.11 146.11 137.94 146.24 138.82 C 146.37 139.71 147.19 140.32 148.08 140.19 Z M 149.07 140.04 L 150.06 139.89 C 150.94 139.76 151.55 138.93 151.42 138.05 C 151.28 137.17 150.46 136.56 149.58 136.70 L 148.59 136.84 C 147.71 136.98 147.10 137.80 147.23 138.68 C 147.36 139.56 148.19 140.17 149.07 140.04 Z M 150.07 139.88 L 151.05 139.73 C 151.93 139.59 152.53 138.77 152.39 137.89 C 152.26 137.01 151.43 136.41 150.55 136.55 L 149.57 136.70 C 148.69 136.84 148.09 137.66 148.23 138.54 C 148.37 139.42 149.19 140.02 150.07 139.88 Z M 151.06 139.72 L 152.04 139.56 C 152.91 139.42 153.51 138.60 153.36 137.72 C 153.22 136.85 152.40 136.25 151.52 136.40 L 150.55 136.55 C 149.67 136.70 149.08 137.52 149.22 138.40 C 149.36 139.27 150.18 139.86 151.06 139.72 Z M 152.03 139.56 L 153.04 139.40 C 153.91 139.26 154.51 138.44 154.37 137.56 C 154.23 136.69 153.41 136.10 152.53 136.24 L 151.53 136.40 C 150.65 136.54 150.06 137.36 150.20 138.23 C 150.34 139.10 151.16 139.70 152.03 139.56 Z M 153.03 139.39 L 154.03 139.23 C 154.90 139.10 155.49 138.28 155.36 137.42 C 155.22 136.55 154.41 135.95 153.54 136.09 L 152.54 136.25 C 151.67 136.38 151.08 137.20 151.22 138.06 C 151.35 138.93 152.17 139.52 153.03 139.39 Z M 154.03 139.23 L 155.03 139.07 C 155.89 138.93 156.48 138.12 156.34 137.26 C 156.21 136.40 155.40 135.81 154.53 135.94 L 153.54 136.10 C 152.68 136.23 152.09 137.04 152.22 137.91 C 152.36 138.77 153.17 139.36 154.03 139.23 Z M 155.04 139.06 L 156.04 138.89 C 156.90 138.75 157.48 137.94 157.34 137.08 C 157.19 136.22 156.38 135.64 155.52 135.78 L 154.52 135.95 C 153.66 136.09 153.08 136.91 153.23 137.76 C 153.37 138.62 154.18 139.20 155.04 139.06 Z M 156.06 138.88 L 157.05 138.71 C 157.90 138.55 158.47 137.74 158.32 136.89 C 158.16 136.03 157.35 135.47 156.50 135.62 L 155.51 135.79 C 154.65 135.95 154.09 136.76 154.24 137.61 C 154.39 138.47 155.21 139.03 156.06 138.88 Z M 157.05 138.70 L 158.01 138.53 C 158.86 138.37 159.42 137.56 159.27 136.71 C 159.11 135.86 158.30 135.30 157.45 135.45 L 156.50 135.62 C 155.65 135.78 155.08 136.59 155.24 137.44 C 155.39 138.29 156.20 138.85 157.05 138.70 Z M 157.99 138.52 L 158.99 138.35 C 159.83 138.20 160.40 137.40 160.25 136.55 C 160.11 135.71 159.30 135.14 158.46 135.29 L 157.47 135.46 C 156.62 135.60 156.05 136.41 156.20 137.25 C 156.34 138.10 157.15 138.67 157.99 138.52 Z M 158.97 138.34 L 159.92 138.19 C 160.76 138.05 161.33 137.26 161.19 136.42 C 161.06 135.57 160.26 135.00 159.42 135.14 L 158.47 135.29 C 157.63 135.43 157.06 136.22 157.20 137.07 C 157.33 137.91 158.13 138.48 158.97 138.34 Z M 159.90 138.19 L 160.85 138.04 C 161.69 137.91 162.27 137.13 162.14 136.29 C 162.01 135.45 161.23 134.87 160.39 135.00 L 159.44 135.14 C 158.60 135.27 158.02 136.06 158.15 136.90 C 158.27 137.74 159.06 138.31 159.90 138.19 Z M 160.84 138.03 L 161.88 137.88 C 162.71 137.76 163.29 136.99 163.17 136.15 C 163.05 135.32 162.28 134.73 161.44 134.86 L 160.40 135.01 C 159.56 135.13 158.98 135.90 159.10 136.74 C 159.22 137.57 160.00 138.15 160.84 138.03 Z M 161.86 137.88 L 162.88 137.74 C 163.71 137.63 164.30 136.86 164.19 136.03 C 164.07 135.20 163.31 134.61 162.47 134.72 L 161.46 134.86 C 160.62 134.97 160.04 135.74 160.15 136.57 C 160.26 137.41 161.03 137.99 161.86 137.88 Z M 162.85 137.74 L 163.84 137.63 C 164.67 137.53 165.27 136.78 165.18 135.95 C 165.08 135.12 164.33 134.52 163.50 134.61 L 162.51 134.73 C 161.67 134.82 161.08 135.57 161.17 136.40 C 161.27 137.24 162.02 137.83 162.85 137.74 Z M 163.77 137.62 L 164.84 137.55 C 165.66 137.49 166.29 136.78 166.24 135.95 C 166.18 135.12 165.46 134.49 164.64 134.55 L 163.57 134.62 C 162.74 134.67 162.11 135.39 162.17 136.22 C 162.23 137.05 162.94 137.68 163.77 137.62 Z M 164.75 137.53 L 165.67 137.52 C 166.49 137.51 167.15 136.84 167.14 136.02 C 167.13 135.20 166.45 134.54 165.63 134.55 L 164.72 134.56 C 163.90 134.57 163.24 135.25 163.25 136.07 C 163.26 136.89 163.93 137.54 164.75 137.53 Z"
      fill="black"
      fill-rule="nonzero" /><path d="M 148.23 137.10 L 147.24 137.43 C 146.43 137.70 146.00 138.56 146.26 139.37 C 146.53 140.17 147.39 140.61 148.20 140.34 L 149.19 140.01 C 149.99 139.75 150.43 138.88 150.17 138.08 C 149.90 137.27 149.03 136.84 148.23 137.10 Z M 146.48 137.96 L 146.00 138.61 C 145.48 139.29 145.62 140.26 146.30 140.77 C 146.98 141.28 147.95 141.14 148.46 140.46 L 148.95 139.81 C 149.46 139.13 149.32 138.16 148.64 137.65 C 147.96 137.14 146.99 137.28 146.48 137.96 Z M 145.68 139.58 L 145.71 140.67 C 145.73 141.52 146.45 142.20 147.31 142.17 C 148.16 142.15 148.84 141.43 148.81 140.57 L 148.78 139.49 C 148.76 138.63 148.04 137.96 147.18 137.98 C 146.32 138.01 145.65 138.72 145.68 139.58 Z M 145.72 140.86 L 145.87 141.78 C 146.00 142.63 146.80 143.22 147.65 143.08 C 148.50 142.95 149.08 142.15 148.94 141.30 L 148.80 140.38 C 148.67 139.53 147.87 138.95 147.02 139.08 C 146.17 139.22 145.59 140.01 145.72 140.86 Z M 145.88 141.84 L 146.08 142.86 C 146.24 143.70 147.06 144.25 147.90 144.09 C 148.74 143.93 149.29 143.11 149.13 142.27 L 148.93 141.25 C 148.77 140.40 147.95 139.85 147.11 140.02 C 146.27 140.18 145.72 141.00 145.88 141.84 Z M 146.10 142.90 L 146.33 143.93 C 146.52 144.76 147.34 145.29 148.18 145.10 C 149.01 144.91 149.53 144.08 149.34 143.25 L 149.11 142.22 C 148.92 141.39 148.09 140.87 147.26 141.06 C 146.43 141.25 145.91 142.07 146.10 142.90 Z M 146.37 143.99 L 146.64 144.98 C 146.86 145.79 147.70 146.26 148.51 146.04 C 149.32 145.82 149.80 144.98 149.57 144.17 L 149.30 143.19 C 149.08 142.38 148.24 141.90 147.43 142.12 C 146.62 142.35 146.15 143.18 146.37 143.99 Z M 146.70 145.09 L 147.03 146.00 C 147.32 146.77 148.18 147.17 148.95 146.89 C 149.73 146.60 150.13 145.74 149.84 144.97 L 149.51 144.06 C 149.22 143.28 148.36 142.88 147.59 143.17 C 146.81 143.45 146.42 144.31 146.70 145.09 Z M 147.13 146.16 L 147.60 147.06 C 147.98 147.79 148.86 148.07 149.58 147.69 C 150.31 147.32 150.59 146.43 150.21 145.71 L 149.74 144.81 C 149.37 144.09 148.48 143.80 147.76 144.18 C 147.04 144.55 146.76 145.44 147.13 146.16 Z M 147.69 147.16 L 148.15 147.90 C 148.58 148.57 149.47 148.77 150.14 148.35 C 150.82 147.92 151.02 147.03 150.60 146.36 L 150.13 145.62 C 149.70 144.95 148.81 144.74 148.14 145.17 C 147.47 145.59 147.26 146.48 147.69 147.16 Z"
      fill="black"
      fill-rule="nonzero" /><path d="M 154.93 141.91 L 155.90 141.35 C 156.63 140.94 156.88 140.02 156.47 139.29 C 156.06 138.57 155.13 138.31 154.41 138.72 L 153.43 139.28 C 152.71 139.69 152.45 140.61 152.86 141.34 C 153.28 142.06 154.20 142.32 154.93 141.91 Z M 153.62 139.87 L 153.57 140.33 C 153.48 141.18 154.09 141.94 154.94 142.03 C 155.79 142.12 156.55 141.51 156.64 140.66 L 156.69 140.21 C 156.78 139.36 156.17 138.59 155.32 138.50 C 154.47 138.41 153.71 139.02 153.62 139.87 Z M 153.82 139.63 L 153.13 140.66 C 152.65 141.37 152.84 142.34 153.55 142.81 C 154.26 143.29 155.23 143.10 155.70 142.39 L 156.39 141.36 C 156.87 140.65 156.68 139.68 155.97 139.21 C 155.26 138.73 154.29 138.92 153.82 139.63 Z M 153.20 140.58 L 152.58 141.38 C 152.05 142.05 152.17 143.02 152.85 143.54 C 153.52 144.06 154.49 143.94 155.01 143.27 L 155.63 142.47 C 156.15 141.80 156.03 140.83 155.36 140.31 C 154.69 139.79 153.72 139.91 153.20 140.58 Z M 152.62 141.34 L 151.98 142.11 C 151.44 142.75 151.52 143.72 152.17 144.26 C 152.82 144.80 153.78 144.72 154.32 144.07 L 154.96 143.31 C 155.51 142.66 155.42 141.70 154.77 141.16 C 154.13 140.61 153.17 140.70 152.62 141.34 Z M 152.03 142.08 L 151.34 142.84 C 150.78 143.46 150.84 144.42 151.46 144.98 C 152.08 145.54 153.04 145.48 153.59 144.86 L 154.28 144.10 C 154.84 143.48 154.78 142.52 154.16 141.96 C 153.54 141.40 152.58 141.46 152.03 142.08 Z M 151.40 142.80 L 150.71 143.50 C 150.13 144.09 150.15 145.04 150.74 145.62 C 151.33 146.20 152.28 146.19 152.86 145.60 L 153.54 144.90 C 154.12 144.31 154.11 143.36 153.52 142.78 C 152.92 142.20 151.97 142.21 151.40 142.80 Z M 150.77 143.46 L 150.06 144.12 C 149.45 144.68 149.42 145.62 149.98 146.23 C 150.54 146.83 151.48 146.86 152.08 146.30 L 152.80 145.64 C 153.40 145.08 153.44 144.14 152.88 143.53 C 152.32 142.93 151.38 142.90 150.77 143.46 Z M 150.11 144.09 L 149.34 144.74 C 148.72 145.28 148.65 146.21 149.18 146.83 C 149.71 147.45 150.65 147.52 151.27 146.99 L 152.03 146.34 C 152.65 145.81 152.73 144.87 152.19 144.25 C 151.66 143.63 150.73 143.56 150.11 144.09 Z M 149.38 144.72 L 148.61 145.34 C 147.98 145.84 147.88 146.77 148.39 147.41 C 148.90 148.04 149.82 148.14 150.46 147.63 L 151.23 147.02 C 151.86 146.51 151.96 145.58 151.45 144.95 C 150.94 144.31 150.02 144.21 149.38 144.72 Z M 148.65 145.31 L 147.85 145.92 C 147.20 146.41 147.07 147.33 147.56 147.98 C 148.05 148.63 148.97 148.75 149.62 148.26 L 150.42 147.66 C 151.07 147.17 151.20 146.25 150.71 145.60 C 150.22 144.95 149.30 144.82 148.65 145.31 Z M 147.88 145.90 L 147.06 146.49 C 146.40 146.96 146.24 147.87 146.71 148.53 C 147.18 149.19 148.10 149.35 148.76 148.88 L 149.58 148.29 C 150.24 147.82 150.40 146.90 149.93 146.24 C 149.46 145.58 148.54 145.43 147.88 145.90 Z M 147.08 146.47 L 146.25 147.04 C 145.58 147.49 145.41 148.40 145.86 149.07 C 146.32 149.74 147.23 149.91 147.90 149.46 L 148.73 148.89 C 149.40 148.44 149.57 147.53 149.12 146.86 C 148.66 146.19 147.75 146.01 147.08 146.47 Z M 146.27 147.02 L 145.46 147.55 C 144.79 148.00 144.60 148.91 145.04 149.58 C 145.48 150.26 146.39 150.45 147.07 150.00 L 147.88 149.47 C 148.55 149.03 148.74 148.12 148.30 147.44 C 147.85 146.77 146.95 146.58 146.27 147.02 Z M 145.48 147.54 L 144.69 148.04 C 144.01 148.48 143.80 149.38 144.24 150.07 C 144.67 150.75 145.58 150.95 146.26 150.52 L 147.05 150.02 C 147.73 149.58 147.94 148.68 147.50 147.99 C 147.07 147.31 146.16 147.11 145.48 147.54 Z M 144.71 148.03 L 143.80 148.59 C 143.11 149.01 142.89 149.91 143.31 150.61 C 143.74 151.30 144.64 151.51 145.33 151.09 L 146.24 150.53 C 146.93 150.11 147.15 149.20 146.73 148.51 C 146.30 147.82 145.40 147.61 144.71 148.03 Z M 143.81 148.58 L 142.94 149.10 C 142.24 149.52 142.02 150.42 142.44 151.12 C 142.86 151.81 143.76 152.04 144.46 151.62 L 145.32 151.10 C 146.02 150.68 146.24 149.78 145.83 149.08 C 145.41 148.39 144.50 148.16 143.81 148.58 Z M 142.94 149.09 L 142.04 149.63 C 141.34 150.05 141.12 150.96 141.54 151.66 C 141.96 152.36 142.86 152.58 143.56 152.16 L 144.46 151.62 C 145.16 151.20 145.38 150.30 144.96 149.60 C 144.54 148.90 143.64 148.67 142.94 149.09 Z M 142.03 149.63 L 141.18 150.15 C 140.48 150.58 140.27 151.49 140.69 152.19 C 141.12 152.89 142.03 153.11 142.73 152.68 L 143.58 152.16 C 144.28 151.73 144.49 150.82 144.07 150.12 C 143.64 149.42 142.73 149.21 142.03 149.63 Z M 141.12 150.17 L 140.07 150.88 C 139.39 151.35 139.21 152.28 139.67 152.96 C 140.13 153.65 141.07 153.83 141.75 153.36 L 142.80 152.66 C 143.48 152.19 143.66 151.26 143.20 150.58 C 142.73 149.89 141.80 149.71 141.12 150.17 Z M 139.58 151.38 L 139.31 151.86 C 138.91 152.60 139.17 153.53 139.91 153.94 C 140.65 154.34 141.57 154.08 141.98 153.34 L 142.25 152.86 C 142.65 152.12 142.39 151.20 141.65 150.79 C 140.91 150.38 139.99 150.65 139.58 151.38 Z M 140.44 154.14 L 141.33 154.26 C 142.18 154.38 142.96 153.78 143.08 152.93 C 143.19 152.08 142.60 151.30 141.75 151.18 L 140.86 151.06 C 140.01 150.95 139.22 151.54 139.11 152.39 C 138.99 153.24 139.59 154.02 140.44 154.14 Z M 141.66 154.29 L 142.73 154.21 C 143.59 154.15 144.25 153.39 144.18 152.53 C 144.12 151.66 143.36 151.01 142.49 151.07 L 141.42 151.15 C 140.55 151.22 139.90 151.97 139.97 152.84 C 140.03 153.71 140.79 154.36 141.66 154.29 Z M 142.86 154.21 L 143.81 154.05 C 144.67 153.91 145.26 153.10 145.12 152.24 C 144.98 151.37 144.17 150.79 143.30 150.93 L 142.36 151.08 C 141.50 151.22 140.91 152.03 141.05 152.90 C 141.19 153.76 142.00 154.35 142.86 154.21 Z M 143.89 154.04 L 144.93 153.82 C 145.78 153.64 146.33 152.80 146.15 151.94 C 145.97 151.08 145.13 150.54 144.27 150.72 L 143.23 150.94 C 142.37 151.12 141.82 151.96 142.01 152.82 C 142.19 153.68 143.03 154.22 143.89 154.04 Z M 144.96 153.82 L 145.92 153.59 C 146.77 153.39 147.31 152.54 147.11 151.68 C 146.91 150.83 146.05 150.30 145.20 150.50 L 144.24 150.72 C 143.38 150.92 142.85 151.78 143.05 152.63 C 143.25 153.48 144.10 154.01 144.96 153.82 Z M 145.94 153.59 L 146.95 153.34 C 147.80 153.13 148.32 152.27 148.11 151.42 C 147.90 150.57 147.04 150.05 146.19 150.25 L 145.18 150.50 C 144.33 150.71 143.81 151.57 144.02 152.42 C 144.23 153.28 145.09 153.80 145.94 153.59 Z M 146.96 153.34 L 147.93 153.09 C 148.78 152.87 149.30 152.00 149.08 151.15 C 148.86 150.30 147.99 149.79 147.14 150.01 L 146.18 150.26 C 145.33 150.48 144.81 151.34 145.03 152.19 C 145.25 153.04 146.12 153.55 146.96 153.34 Z M 147.95 153.08 L 148.86 152.84 C 149.70 152.61 150.21 151.74 149.98 150.90 C 149.75 150.05 148.88 149.55 148.04 149.77 L 147.13 150.02 C 146.28 150.24 145.78 151.11 146.01 151.96 C 146.23 152.81 147.10 153.31 147.95 153.08 Z M 148.86 152.84 L 149.79 152.58 C 150.64 152.36 151.14 151.49 150.91 150.64 C 150.68 149.80 149.81 149.30 148.96 149.52 L 148.03 149.78 C 147.19 150.00 146.69 150.87 146.92 151.72 C 147.15 152.56 148.01 153.06 148.86 152.84 Z M 149.78 152.58 L 150.83 152.31 C 151.67 152.09 152.18 151.22 151.96 150.38 C 151.73 149.53 150.87 149.03 150.03 149.25 L 148.98 149.52 C 148.13 149.75 147.63 150.61 147.85 151.46 C 148.07 152.30 148.93 152.81 149.78 152.58 Z M 150.81 152.31 L 151.73 152.08 C 152.58 151.86 153.09 151.01 152.88 150.16 C 152.66 149.31 151.80 148.80 150.96 149.02 L 150.04 149.25 C 149.19 149.46 148.68 150.32 148.90 151.17 C 149.11 152.01 149.97 152.52 150.81 152.31 Z M 151.72 152.08 L 152.72 151.83 C 153.57 151.63 154.08 150.77 153.87 149.92 C 153.67 149.08 152.81 148.56 151.97 148.77 L 150.97 149.01 C 150.12 149.22 149.61 150.08 149.81 150.92 C 150.02 151.77 150.88 152.29 151.72 152.08 Z M 152.71 151.83 L 153.73 151.59 C 154.57 151.39 155.09 150.54 154.89 149.69 C 154.69 148.84 153.84 148.32 152.99 148.53 L 151.98 148.77 C 151.13 148.97 150.61 149.82 150.81 150.67 C 151.01 151.52 151.86 152.04 152.71 151.83 Z M 153.71 151.59 L 154.69 151.36 C 155.54 151.17 156.06 150.32 155.87 149.47 C 155.67 148.63 154.82 148.10 153.98 148.30 L 153.00 148.52 C 152.15 148.72 151.63 149.57 151.82 150.42 C 152.02 151.26 152.87 151.79 153.71 151.59 Z M 154.67 151.36 L 155.79 151.12 C 156.64 150.93 157.17 150.09 156.98 149.25 C 156.80 148.40 155.96 147.87 155.11 148.05 L 154.00 148.30 C 153.15 148.49 152.62 149.32 152.80 150.17 C 152.99 151.02 153.83 151.55 154.67 151.36 Z M 155.75 151.11 L 156.75 150.92 C 157.59 150.75 158.15 149.94 157.98 149.09 C 157.82 148.25 157.00 147.70 156.16 147.86 L 155.15 148.06 C 154.31 148.22 153.76 149.04 153.92 149.88 C 154.09 150.73 154.90 151.28 155.75 151.11 Z M 156.68 150.92 L 157.56 150.79 C 158.40 150.66 158.98 149.88 158.86 149.04 C 158.74 148.19 157.95 147.61 157.11 147.73 L 156.23 147.86 C 155.39 147.99 154.80 148.77 154.93 149.61 C 155.05 150.46 155.83 151.04 156.68 150.92 Z M 157.43 150.79 L 158.42 150.72 C 159.26 150.66 159.90 149.94 159.84 149.09 C 159.78 148.25 159.06 147.61 158.21 147.67 L 157.23 147.74 C 156.39 147.79 155.75 148.52 155.81 149.36 C 155.86 150.20 156.59 150.84 157.43 150.79 Z M 158.28 150.70 L 159.27 150.72 C 160.10 150.74 160.79 150.08 160.81 149.25 C 160.83 148.41 160.17 147.72 159.33 147.71 L 158.35 147.69 C 157.51 147.67 156.82 148.33 156.81 149.16 C 156.79 150.00 157.45 150.69 158.28 150.70 Z M 159.21 150.70 L 159.82 150.74 C 160.64 150.79 161.35 150.17 161.40 149.35 C 161.45 148.52 160.82 147.82 160.00 147.77 L 159.39 147.73 C 158.57 147.68 157.86 148.30 157.81 149.12 C 157.76 149.95 158.39 150.65 159.21 150.70 Z"
      fill="black"
      fill-rule="nonzero" /><path d="M 142.89 157.64 L 142.13 158.58 C 141.62 159.21 141.72 160.14 142.35 160.65 C 142.99 161.15 143.91 161.05 144.42 160.42 L 145.17 159.48 C 145.68 158.85 145.58 157.93 144.95 157.42 C 144.32 156.91 143.40 157.01 142.89 157.64 Z M 141.80 159.15 L 141.68 159.67 C 141.49 160.48 141.99 161.30 142.80 161.49 C 143.62 161.68 144.43 161.18 144.62 160.37 L 144.75 159.85 C 144.94 159.04 144.44 158.22 143.62 158.03 C 142.81 157.84 142.00 158.34 141.80 159.15 Z M 143.43 161.54 L 144.48 161.35 C 145.33 161.20 145.88 160.39 145.73 159.55 C 145.58 158.71 144.77 158.15 143.93 158.30 L 142.88 158.49 C 142.03 158.65 141.47 159.45 141.63 160.30 C 141.78 161.14 142.59 161.70 143.43 161.54 Z M 144.65 161.33 L 145.50 161.08 C 146.33 160.83 146.81 159.96 146.56 159.13 C 146.31 158.30 145.44 157.82 144.61 158.07 L 143.76 158.33 C 142.93 158.57 142.46 159.45 142.70 160.28 C 142.95 161.11 143.82 161.58 144.65 161.33 Z M 145.52 161.07 L 146.45 160.78 C 147.28 160.53 147.74 159.65 147.48 158.82 C 147.23 157.99 146.35 157.53 145.52 157.79 L 144.59 158.08 C 143.76 158.33 143.30 159.21 143.56 160.04 C 143.81 160.87 144.69 161.33 145.52 161.07 Z M 146.46 160.78 L 147.55 160.43 C 148.37 160.17 148.83 159.29 148.57 158.46 C 148.30 157.64 147.42 157.18 146.59 157.44 L 145.51 157.79 C 144.68 158.06 144.23 158.94 144.49 159.76 C 144.76 160.59 145.64 161.04 146.46 160.78 Z M 147.56 160.43 L 148.53 160.11 C 149.35 159.84 149.80 158.96 149.53 158.14 C 149.26 157.31 148.37 156.86 147.55 157.13 L 146.59 157.45 C 145.76 157.72 145.31 158.60 145.58 159.42 C 145.85 160.25 146.74 160.70 147.56 160.43 Z M 148.53 160.11 L 149.49 159.79 C 150.31 159.52 150.75 158.64 150.48 157.82 C 150.21 156.99 149.33 156.55 148.51 156.82 L 147.55 157.14 C 146.73 157.41 146.28 158.29 146.55 159.11 C 146.82 159.93 147.71 160.38 148.53 160.11 Z M 149.49 159.79 L 150.46 159.47 C 151.28 159.20 151.73 158.31 151.46 157.49 C 151.19 156.67 150.30 156.23 149.48 156.50 L 148.50 156.82 C 147.69 157.09 147.24 157.98 147.51 158.80 C 147.78 159.62 148.67 160.06 149.49 159.79 Z M 150.46 159.47 L 151.42 159.15 C 152.24 158.88 152.69 158.00 152.42 157.18 C 152.15 156.36 151.27 155.91 150.45 156.18 L 149.49 156.50 C 148.67 156.77 148.22 157.65 148.49 158.47 C 148.76 159.29 149.64 159.74 150.46 159.47 Z M 151.41 159.15 L 152.43 158.82 C 153.24 158.56 153.69 157.68 153.43 156.86 C 153.16 156.04 152.29 155.59 151.47 155.86 L 150.45 156.18 C 149.64 156.45 149.19 157.33 149.45 158.15 C 149.72 158.97 150.59 159.41 151.41 159.15 Z M 152.41 158.82 L 153.43 158.49 C 154.25 158.24 154.70 157.36 154.44 156.55 C 154.19 155.73 153.32 155.28 152.50 155.54 L 151.48 155.86 C 150.66 156.12 150.21 156.99 150.47 157.81 C 150.73 158.62 151.60 159.07 152.41 158.82 Z M 153.42 158.48 L 154.35 158.20 C 155.16 157.94 155.61 157.08 155.36 156.27 C 155.11 155.46 154.24 155.01 153.43 155.26 L 152.51 155.55 C 151.70 155.80 151.25 156.66 151.50 157.47 C 151.75 158.28 152.61 158.74 153.42 158.48 Z M 154.34 158.19 L 155.19 157.92 C 156.00 157.67 156.45 156.82 156.20 156.01 C 155.95 155.21 155.10 154.76 154.29 155.01 L 153.44 155.27 C 152.64 155.52 152.18 156.37 152.43 157.18 C 152.68 157.98 153.54 158.44 154.34 158.19 Z M 155.20 157.91 L 156.23 157.58 C 157.03 157.33 157.47 156.48 157.22 155.69 C 156.97 154.89 156.12 154.45 155.33 154.70 L 154.29 155.02 C 153.49 155.27 153.05 156.12 153.30 156.92 C 153.55 157.71 154.40 158.16 155.20 157.91 Z M 156.25 157.56 L 157.16 157.25 C 157.94 156.99 158.36 156.14 158.10 155.36 C 157.84 154.58 156.99 154.16 156.21 154.42 L 155.30 154.72 C 154.52 154.99 154.10 155.83 154.36 156.62 C 154.62 157.40 155.47 157.82 156.25 157.56 Z M 157.22 157.21 L 158.13 156.86 C 158.89 156.57 159.27 155.72 158.98 154.96 C 158.69 154.20 157.83 153.82 157.07 154.11 L 156.16 154.46 C 155.40 154.75 155.02 155.60 155.31 156.37 C 155.60 157.13 156.45 157.51 157.22 157.21 Z M 158.19 156.82 L 159.09 156.42 C 159.83 156.10 160.16 155.24 159.84 154.50 C 159.51 153.76 158.65 153.43 157.92 153.75 L 157.01 154.15 C 156.28 154.47 155.94 155.34 156.27 156.07 C 156.59 156.81 157.45 157.14 158.19 156.82 Z M 159.11 156.40 L 159.46 156.24 C 160.19 155.90 160.51 155.05 160.17 154.32 C 159.84 153.60 158.98 153.28 158.25 153.61 L 157.90 153.78 C 157.17 154.11 156.86 154.97 157.19 155.69 C 157.53 156.42 158.38 156.74 159.11 156.40 Z"
      fill="black"
      fill-rule="nonzero" /><path d="M 150.50 152.47 L 150.27 153.46 C 150.08 154.29 150.60 155.11 151.43 155.30 C 152.26 155.50 153.08 154.98 153.28 154.15 L 153.50 153.16 C 153.69 152.33 153.18 151.51 152.35 151.32 C 151.52 151.13 150.69 151.64 150.50 152.47 Z M 150.22 153.55 L 150.06 154.53 C 149.92 155.39 150.51 156.20 151.36 156.34 C 152.22 156.48 153.03 155.89 153.17 155.04 L 153.33 154.06 C 153.47 153.20 152.89 152.39 152.03 152.25 C 151.17 152.11 150.36 152.69 150.22 153.55 Z M 150.02 154.72 L 149.99 155.65 C 149.95 156.53 150.64 157.27 151.52 157.30 C 152.40 157.34 153.14 156.65 153.17 155.77 L 153.21 154.85 C 153.24 153.97 152.56 153.23 151.68 153.19 C 150.80 153.16 150.06 153.84 150.02 154.72 Z M 149.98 155.79 L 150.04 156.79 C 150.08 157.67 150.83 158.34 151.71 158.30 C 152.59 158.25 153.27 157.50 153.23 156.62 L 153.17 155.63 C 153.13 154.75 152.38 154.07 151.50 154.12 C 150.62 154.16 149.94 154.91 149.98 155.79 Z M 150.04 156.82 L 150.11 157.83 C 150.17 158.71 150.94 159.37 151.82 159.31 C 152.70 159.24 153.36 158.48 153.30 157.60 L 153.22 156.59 C 153.16 155.71 152.40 155.05 151.52 155.11 C 150.64 155.17 149.98 155.94 150.04 156.82 Z M 150.11 157.81 L 150.17 158.75 C 150.22 159.63 150.98 160.30 151.86 160.25 C 152.74 160.19 153.41 159.44 153.35 158.56 L 153.29 157.62 C 153.24 156.74 152.49 156.07 151.61 156.12 C 150.73 156.18 150.06 156.93 150.11 157.81 Z M 150.17 158.73 L 150.22 159.76 C 150.26 160.64 151.01 161.32 151.89 161.28 C 152.76 161.23 153.44 160.49 153.40 159.61 L 153.35 158.58 C 153.31 157.70 152.56 157.02 151.68 157.06 C 150.80 157.11 150.13 157.85 150.17 158.73 Z M 150.22 159.74 L 150.26 160.83 C 150.29 161.70 151.02 162.39 151.90 162.36 C 152.78 162.33 153.46 161.60 153.44 160.72 L 153.40 159.63 C 153.37 158.75 152.63 158.07 151.76 158.10 C 150.88 158.13 150.19 158.86 150.22 159.74 Z M 150.26 160.80 L 150.28 161.85 C 150.30 162.73 151.02 163.42 151.90 163.41 C 152.77 163.39 153.47 162.67 153.45 161.79 L 153.43 160.74 C 153.41 159.87 152.69 159.17 151.82 159.19 C 150.94 159.20 150.24 159.93 150.26 160.80 Z M 150.29 161.84 L 150.30 162.87 C 150.30 163.74 151.02 164.44 151.89 164.43 C 152.76 164.43 153.46 163.71 153.45 162.84 L 153.44 161.81 C 153.44 160.94 152.72 160.24 151.85 160.25 C 150.98 160.25 150.28 160.97 150.29 161.84 Z M 150.31 162.86 L 150.31 163.83 C 150.31 164.69 151.01 165.39 151.88 165.39 C 152.75 165.39 153.45 164.69 153.45 163.82 L 153.44 162.85 C 153.44 161.99 152.74 161.29 151.87 161.29 C 151.00 161.29 150.30 161.99 150.31 162.86 Z M 150.32 163.82 L 150.32 164.87 C 150.32 165.73 151.02 166.43 151.88 166.43 C 152.74 166.43 153.43 165.73 153.43 164.87 L 153.43 163.82 C 153.43 162.96 152.74 162.27 151.88 162.27 C 151.02 162.27 150.32 162.96 150.32 163.82 Z M 150.34 164.87 L 150.34 165.89 C 150.34 166.74 151.03 167.43 151.88 167.43 C 152.72 167.43 153.41 166.74 153.41 165.89 L 153.41 164.87 C 153.41 164.03 152.72 163.34 151.88 163.34 C 151.03 163.34 150.34 164.03 150.34 164.87 Z M 150.37 165.89 L 150.37 166.78 C 150.37 167.61 151.04 168.28 151.88 168.28 C 152.71 168.28 153.38 167.61 153.38 166.78 L 153.38 165.89 C 153.38 165.06 152.71 164.39 151.88 164.39 C 151.04 164.39 150.37 165.06 150.37 165.89 Z M 150.40 166.77 L 150.39 167.80 C 150.39 168.62 151.05 169.28 151.87 169.28 C 152.69 169.29 153.35 168.62 153.36 167.81 L 153.36 166.78 C 153.36 165.96 152.70 165.30 151.88 165.30 C 151.06 165.29 150.40 165.96 150.40 166.77 Z M 150.41 167.78 L 150.40 168.75 C 150.39 169.56 151.03 170.22 151.84 170.23 C 152.64 170.25 153.31 169.60 153.32 168.80 L 153.33 167.83 C 153.35 167.02 152.70 166.36 151.90 166.34 C 151.09 166.33 150.43 166.97 150.41 167.78 Z M 150.42 168.73 L 150.39 169.72 C 150.36 170.52 150.98 171.19 151.78 171.21 C 152.57 171.24 153.24 170.62 153.27 169.82 L 153.30 168.82 C 153.33 168.03 152.70 167.36 151.91 167.34 C 151.11 167.31 150.45 167.93 150.42 168.73 Z M 150.40 169.72 L 150.38 169.99 C 150.35 170.78 150.97 171.45 151.76 171.48 C 152.55 171.51 153.21 170.89 153.24 170.11 L 153.25 169.83 C 153.29 169.04 152.67 168.37 151.88 168.34 C 151.09 168.31 150.43 168.93 150.40 169.72 Z"
      fill="black"
      fill-rule="nonzero" /></svg>