<svg xmlns="http://www.w3.org/2000/svg" width="300" height="300" viewBox="0 0 300 300">
<path d="M 137.21 134.56 L 136.72 135.53 C 136.33 136.27 136.63 137.19 137.38 137.57 C 138.13 137.95 139.04 137.65 139.42 136.91 L 139.92 135.93 C 140.30 135.19 140.00 134.27 139.25 133.89 C 138.51 133.51 137.59 133.81 137.21 134.56 Z M 136.95 137.29 L 137.38 137.74 C 137.97 138.35 138.95 138.37 139.57 137.78 C 140.19 137.19 140.21 136.21 139.62 135.59 L 139.19 135.14 C 138.60 134.52 137.61 134.50 136.99 135.10 C 136.38 135.69 136.36 136.67 136.95 137.29 Z M 138.42 138.23 L 139.50 138.28 C 140.36 138.33 141.10 137.66 141.14 136.79 C 141.18 135.93 140.52 135.19 139.65 135.15 L 138.57 135.09 C 137.71 135.05 136.97 135.72 136.93 136.58 C 136.88 137.45 137.55 138.19 138.42 138.23 Z M 139.62 138.29 L 140.68 138.26 C 141.55 138.24 142.23 137.51 142.21 136.64 C 142.18 135.76 141.45 135.08 140.58 135.10 L 139.53 135.14 C 138.65 135.16 137.97 135.89 137.99 136.76 C 138.02 137.63 138.75 138.32 139.62 138.29 Z M 140.67 138.27 L 141.66 138.24 C 142.53 138.22 143.23 137.49 143.20 136.61 C 143.18 135.74 142.45 135.05 141.57 135.07 L 140.59 135.10 C 139.71 135.12 139.02 135.85 139.04 136.73 C 139.07 137.60 139.80 138.29 140.67 138.27 Z M 141.64 138.25 L 142.67 138.23 C 143.55 138.22 144.25 137.49 144.24 136.61 C 144.22 135.73 143.50 135.03 142.62 135.05 L 141.59 135.06 C 140.71 135.08 140.01 135.80 140.02 136.68 C 140.04 137.56 140.76 138.26 141.64 138.25 Z M 142.65 138.23 L 143.68 138.23 C 144.56 138.22 145.27 137.50 145.26 136.62 C 145.26 135.74 144.54 135.03 143.66 135.04 L 142.63 135.05 C 141.75 135.05 141.04 135.77 141.05 136.65 C 141.06 137.53 141.77 138.24 142.65 138.23 Z M 143.67 138.22 L 144.67 138.22 C 145.55 138.22 146.26 137.51 146.26 136.63 C 146.26 135.75 145.54 135.04 144.66 135.04 L 143.67 135.04 C 142.79 135.04 142.08 135.76 142.08 136.64 C 142.08 137.51 142.79 138.23 143.67 138.22 Z M 144.67 138.22 L 145.71 138.22 C 146.59 138.22 147.30 137.51 147.30 136.63 C 147.30 135.75 146.59 135.04 145.71 135.04 L 144.67 135.04 C 143.79 135.04 143.08 135.75 143.08 136.63 C 143.08 137.51 143.79 138.22 144.67 138.22 Z M 145.71 138.21 L 146.66 138.21 C 147.54 138.21 148.25 137.51 148.25 136.63 C 148.25 135.76 147.54 135.05 146.66 135.05 L 145.71 135.05 C 144.84 135.05 144.13 135.76 144.13 136.63 C 144.13 137.51 144.84 138.21 145.71 138.21 Z M 146.66 138.21 L 147.63 138.21 C 148.51 138.21 149.21 137.50 149.21 136.63 C 149.21 135.76 148.51 135.05 147.63 135.05 L 146.66 135.05 C 145.79 135.05 145.08 135.76 145.08 136.63 C 145.08 137.50 145.79 138.21 146.66 138.21 Z M 147.63 138.21 L 148.64 138.21 C 149.52 138.21 150.22 137.50 150.22 136.63 C 150.22 135.76 149.52 135.05 148.64 135.05 L 147.63 135.05 C 146.76 135.05 146.05 135.76 146.05 136.63 C 146.05 137.50 146.76 138.21 147.63 138.21 Z M 148.64 138.21 L 149.63 138.21 C 150.50 138.22 151.21 137.51 151.21 136.63 C 151.21 135.76 150.50 135.05 149.63 135.05 L 148.65 135.05 C 147.77 135.05 147.06 135.76 147.06 136.63 C 147.06 137.50 147.77 138.21 148.64 138.21 Z M 149.61 138.21 L 150.63 138.22 C 151.50 138.23 152.22 137.53 152.22 136.66 C 152.23 135.78 151.53 135.07 150.66 135.06 L 149.64 135.05 C 148.77 135.04 148.06 135.74 148.05 136.62 C 148.04 137.49 148.74 138.21 149.61 138.21 Z M 150.61 138.22 L 151.61 138.24 C 152.48 138.27 153.21 137.58 153.23 136.70 C 153.25 135.83 152.56 135.11 151.69 135.09 L 150.68 135.06 C 149.81 135.04 149.09 135.73 149.07 136.60 C 149.04 137.48 149.73 138.20 150.61 138.22 Z M 151.60 138.24 L 152.60 138.27 C 153.46 138.30 154.19 137.62 154.22 136.75 C 154.25 135.88 153.57 135.15 152.70 135.12 L 151.70 135.09 C 150.83 135.06 150.10 135.74 150.07 136.61 C 150.05 137.48 150.73 138.21 151.60 138.24 Z M 152.59 138.27 L 153.61 138.31 C 154.47 138.34 155.20 137.66 155.23 136.80 C 155.27 135.93 154.59 135.20 153.72 135.17 L 152.71 135.13 C 151.84 135.10 151.11 135.77 151.08 136.64 C 151.05 137.51 151.72 138.24 152.59 138.27 Z M 153.59 138.30 L 154.57 138.34 C 155.43 138.38 156.16 137.72 156.20 136.85 C 156.24 135.99 155.58 135.26 154.72 135.22 L 153.74 135.18 C 152.87 135.14 152.14 135.80 152.11 136.67 C 152.07 137.53 152.73 138.26 153.59 138.30 Z M 154.55 138.33 L 155.56 138.39 C 156.42 138.44 157.15 137.79 157.20 136.94 C 157.26 136.08 156.61 135.35 155.75 135.30 L 154.74 135.24 C 153.88 135.18 153.15 135.83 153.10 136.69 C 153.05 137.54 153.70 138.28 154.55 138.33 Z M 155.55 138.38 L 156.51 138.45 C 157.36 138.51 158.10 137.87 158.16 137.02 C 158.22 136.18 157.58 135.44 156.73 135.38 L 155.77 135.31 C 154.92 135.25 154.18 135.89 154.12 136.73 C 154.06 137.58 154.70 138.32 155.55 138.38 Z M 156.50 138.44 L 157.43 138.51 C 158.27 138.58 159.01 137.96 159.08 137.12 C 159.15 136.27 158.53 135.54 157.68 135.47 L 156.75 135.39 C 155.91 135.32 155.17 135.95 155.10 136.79 C 155.03 137.63 155.65 138.37 156.50 138.44 Z M 157.40 138.51 L 158.45 138.62 C 159.29 138.71 160.04 138.10 160.13 137.26 C 160.22 136.43 159.61 135.68 158.77 135.59 L 157.72 135.47 C 156.88 135.38 156.13 135.99 156.04 136.83 C 155.95 137.67 156.56 138.42 157.40 138.51 Z M 158.42 138.61 L 159.43 138.74 C 160.27 138.85 161.03 138.25 161.13 137.42 C 161.24 136.59 160.65 135.82 159.81 135.72 L 158.80 135.59 C 157.97 135.49 157.21 136.08 157.10 136.91 C 157.00 137.75 157.59 138.51 158.42 138.61 Z M 159.42 138.74 L 160.42 138.87 C 161.25 138.99 162.02 138.41 162.14 137.58 C 162.25 136.74 161.67 135.98 160.84 135.86 L 159.83 135.72 C 159.00 135.61 158.23 136.19 158.12 137.02 C 158.00 137.85 158.58 138.62 159.42 138.74 Z M 160.40 138.87 L 161.44 139.03 C 162.27 139.15 163.05 138.58 163.17 137.75 C 163.30 136.92 162.73 136.15 161.90 136.02 L 160.86 135.86 C 160.03 135.74 159.25 136.31 159.13 137.14 C 159.00 137.97 159.57 138.75 160.40 138.87 Z M 161.41 139.02 L 162.33 139.19 C 163.16 139.33 163.95 138.78 164.10 137.95 C 164.24 137.12 163.69 136.33 162.86 136.19 L 161.93 136.03 C 161.10 135.88 160.32 136.44 160.17 137.26 C 160.03 138.09 160.58 138.88 161.41 139.02 Z M 162.30 139.18 L 163.33 139.38 C 164.16 139.55 164.96 139.01 165.12 138.18 C 165.28 137.36 164.74 136.56 163.92 136.40 L 162.89 136.20 C 162.07 136.03 161.27 136.57 161.10 137.39 C 160.94 138.22 161.48 139.02 162.30 139.18 Z M 163.32 139.38 L 164.30 139.58 C 165.12 139.74 165.92 139.21 166.09 138.39 C 166.26 137.57 165.73 136.77 164.91 136.60 L 163.93 136.40 C 163.11 136.24 162.31 136.77 162.14 137.59 C 161.97 138.41 162.50 139.21 163.32 139.38 Z M 164.32 139.57 L 164.96 139.70 C 165.78 139.86 166.58 139.32 166.74 138.50 C 166.89 137.69 166.36 136.89 165.54 136.73 L 164.89 136.61 C 164.07 136.45 163.28 136.98 163.12 137.80 C 162.96 138.62 163.50 139.41 164.32 139.57 Z"
      fill="black"
      fill-rule="nonzero" /><path d="M 136.06 136.58 L 136.23 137.45 C 136.37 138.25 137.14 138.77 137.93 138.62 C 138.73 138.48 139.25 137.71 139.10 136.92 L 138.94 136.04 C 138.79 135.24 138.03 134.72 137.23 134.87 C 136.44 135.02 135.91 135.78 136.06 136.58 Z M 136.18 137.35 L 136.30 138.44 C 136.39 139.27 137.12 139.86 137.95 139.77 C 138.77 139.68 139.36 138.94 139.27 138.12 L 139.15 137.02 C 139.06 136.20 138.32 135.61 137.50 135.70 C 136.68 135.79 136.09 136.53 136.18 137.35 Z M 136.27 138.34 L 136.31 139.33 C 136.34 140.17 137.05 140.82 137.89 140.79 C 138.72 140.75 139.37 140.05 139.34 139.21 L 139.30 138.22 C 139.26 137.38 138.56 136.73 137.72 136.77 C 136.88 136.80 136.23 137.51 136.27 138.34 Z M 136.30 139.29 L 136.31 140.33 C 136.32 141.18 137.01 141.85 137.86 141.84 C 138.70 141.83 139.37 141.14 139.36 140.29 L 139.35 139.25 C 139.34 138.41 138.65 137.73 137.80 137.74 C 136.96 137.76 136.29 138.45 136.30 139.29 Z M 136.30 140.32 L 136.30 141.34 C 136.31 142.18 136.99 142.87 137.84 142.87 C 138.69 142.87 139.37 142.18 139.37 141.33 L 139.37 140.31 C 139.37 139.47 138.68 138.78 137.83 138.78 C 136.99 138.78 136.30 139.47 136.30 140.32 Z M 136.30 141.34 L 136.30 142.37 C 136.30 143.22 136.99 143.91 137.84 143.91 C 138.69 143.91 139.38 143.22 139.38 142.37 L 139.38 141.34 C 139.38 140.49 138.69 139.80 137.84 139.80 C 136.99 139.80 136.30 140.49 136.30 141.34 Z M 136.30 142.37 L 136.30 143.27 C 136.30 144.12 136.99 144.81 137.84 144.81 C 138.69 144.81 139.38 144.12 139.38 143.27 L 139.38 142.37 C 139.38 141.52 138.69 140.83 137.84 140.83 C 136.99 140.83 136.30 141.52 136.30 142.37 Z M 136.29 143.27 L 136.29 144.26 C 136.29 145.11 136.98 145.80 137.84 145.80 C 138.69 145.80 139.38 145.11 139.38 144.26 L 139.38 143.27 C 139.38 142.42 138.69 141.72 137.84 141.72 C 136.98 141.72 136.29 142.42 136.29 143.27 Z M 136.29 144.26 L 136.29 145.26 C 136.29 146.11 136.98 146.81 137.84 146.81 C 138.69 146.81 139.39 146.12 139.39 145.26 L 139.39 144.26 C 139.39 143.41 138.69 142.71 137.84 142.71 C 136.98 142.71 136.29 143.40 136.29 144.26 Z M 136.29 145.25 L 136.28 146.24 C 136.27 147.10 136.96 147.80 137.82 147.81 C 138.67 147.81 139.37 147.13 139.38 146.27 L 139.39 145.27 C 139.39 144.42 138.71 143.72 137.85 143.71 C 137.00 143.70 136.30 144.39 136.29 145.25 Z M 136.28 146.21 L 136.25 147.22 C 136.22 148.07 136.90 148.79 137.75 148.81 C 138.61 148.84 139.32 148.17 139.35 147.31 L 139.38 146.30 C 139.40 145.45 138.73 144.73 137.88 144.71 C 137.02 144.68 136.30 145.36 136.28 146.21 Z M 136.25 147.18 L 136.20 148.17 C 136.15 149.02 136.81 149.76 137.66 149.80 C 138.52 149.85 139.25 149.19 139.29 148.34 L 139.35 147.35 C 139.39 146.49 138.74 145.76 137.88 145.72 C 137.03 145.67 136.30 146.32 136.25 147.18 Z M 136.20 148.14 L 136.12 149.16 C 136.06 150.01 136.70 150.76 137.55 150.82 C 138.41 150.89 139.15 150.25 139.22 149.39 L 139.29 148.37 C 139.36 147.52 138.72 146.77 137.86 146.71 C 137.01 146.64 136.26 147.28 136.20 148.14 Z M 136.12 149.13 L 136.03 150.12 C 135.95 150.97 136.58 151.73 137.43 151.81 C 138.29 151.89 139.04 151.26 139.12 150.40 L 139.21 149.42 C 139.29 148.56 138.67 147.81 137.81 147.73 C 136.96 147.65 136.20 148.28 136.12 149.13 Z M 136.03 150.10 L 135.93 151.11 C 135.84 151.96 136.47 152.72 137.32 152.81 C 138.17 152.90 138.93 152.27 139.02 151.42 L 139.12 150.42 C 139.21 149.57 138.59 148.80 137.73 148.72 C 136.88 148.63 136.12 149.25 136.03 150.10 Z M 135.93 151.10 L 135.83 152.09 C 135.74 152.95 136.36 153.71 137.21 153.80 C 138.06 153.89 138.83 153.27 138.92 152.42 L 139.02 151.43 C 139.11 150.57 138.49 149.81 137.64 149.72 C 136.78 149.63 136.02 150.25 135.93 151.10 Z M 135.83 152.09 L 135.72 153.08 C 135.63 153.93 136.25 154.70 137.10 154.79 C 137.96 154.88 138.72 154.26 138.81 153.41 L 138.92 152.42 C 139.01 151.57 138.39 150.80 137.54 150.71 C 136.68 150.62 135.92 151.24 135.83 152.09 Z M 135.72 153.07 L 135.61 154.08 C 135.52 154.94 136.13 155.70 136.99 155.80 C 137.84 155.89 138.61 155.27 138.70 154.42 L 138.81 153.41 C 138.90 152.56 138.29 151.79 137.44 151.70 C 136.58 151.61 135.82 152.22 135.72 153.07 Z M 135.61 154.08 L 135.50 155.08 C 135.40 155.93 136.02 156.70 136.87 156.80 C 137.72 156.89 138.49 156.28 138.58 155.43 L 138.70 154.43 C 138.80 153.58 138.18 152.81 137.33 152.71 C 136.48 152.61 135.71 153.23 135.61 154.08 Z M 135.50 155.08 L 135.39 156.08 C 135.29 156.93 135.90 157.70 136.75 157.79 C 137.60 157.89 138.37 157.28 138.47 156.43 L 138.58 155.43 C 138.68 154.58 138.07 153.81 137.22 153.71 C 136.37 153.62 135.60 154.23 135.50 155.08 Z M 135.39 156.08 L 135.27 157.08 C 135.17 157.93 135.78 158.70 136.63 158.80 C 137.48 158.90 138.25 158.29 138.35 157.44 L 138.47 156.43 C 138.57 155.58 137.96 154.81 137.11 154.71 C 136.25 154.61 135.48 155.22 135.39 156.08 Z M 135.27 157.08 L 135.15 158.09 C 135.06 158.94 135.66 159.71 136.52 159.81 C 137.37 159.91 138.13 159.30 138.23 158.45 L 138.35 157.44 C 138.45 156.59 137.84 155.82 136.99 155.72 C 136.14 155.62 135.37 156.23 135.27 157.08 Z M 135.16 158.09 L 135.04 159.04 C 134.94 159.89 135.55 160.66 136.40 160.76 C 137.25 160.86 138.02 160.25 138.12 159.40 L 138.23 158.45 C 138.33 157.60 137.73 156.83 136.88 156.73 C 136.03 156.63 135.26 157.24 135.16 158.09 Z M 135.04 159.03 L 134.92 160.05 C 134.81 160.90 135.41 161.67 136.26 161.78 C 137.11 161.88 137.88 161.28 137.99 160.43 L 138.12 159.41 C 138.22 158.56 137.62 157.79 136.77 157.69 C 135.92 157.58 135.15 158.18 135.04 159.03 Z M 134.92 160.04 L 134.79 161.00 C 134.68 161.85 135.28 162.63 136.13 162.74 C 136.97 162.85 137.75 162.25 137.86 161.41 L 137.99 160.44 C 138.10 159.59 137.50 158.82 136.65 158.71 C 135.81 158.59 135.03 159.19 134.92 160.04 Z M 134.80 161.00 L 134.67 161.93 C 134.56 162.78 135.15 163.56 136.00 163.67 C 136.84 163.79 137.62 163.19 137.73 162.35 L 137.86 161.41 C 137.97 160.56 137.38 159.79 136.53 159.67 C 135.69 159.56 134.91 160.15 134.80 161.00 Z M 134.67 161.95 L 134.54 162.98 C 134.44 163.83 135.04 164.60 135.89 164.70 C 136.73 164.81 137.50 164.21 137.61 163.36 L 137.73 162.33 C 137.84 161.48 137.24 160.71 136.39 160.61 C 135.54 160.50 134.77 161.10 134.67 161.95 Z M 134.54 163.01 L 134.43 164.02 C 134.35 164.87 134.96 165.63 135.81 165.72 C 136.66 165.81 137.42 165.19 137.50 164.34 L 137.61 163.33 C 137.70 162.48 137.08 161.72 136.23 161.63 C 135.39 161.55 134.63 162.16 134.54 163.01 Z M 134.43 164.07 L 134.35 165.09 C 134.29 165.94 134.92 166.68 135.77 166.75 C 136.62 166.81 137.36 166.18 137.43 165.33 L 137.51 164.30 C 137.57 163.45 136.94 162.71 136.09 162.65 C 135.24 162.58 134.50 163.22 134.43 164.07 Z M 134.35 165.17 L 134.33 166.20 C 134.31 167.05 134.98 167.75 135.83 167.77 C 136.68 167.79 137.38 167.12 137.40 166.27 L 137.43 165.25 C 137.45 164.40 136.78 163.70 135.93 163.68 C 135.08 163.66 134.38 164.33 134.35 165.17 Z M 134.34 166.34 L 134.41 167.33 C 134.47 168.18 135.19 168.81 136.04 168.76 C 136.88 168.70 137.51 167.97 137.46 167.13 L 137.39 166.13 C 137.33 165.29 136.60 164.66 135.76 164.71 C 134.92 164.77 134.29 165.50 134.34 166.34 Z M 134.43 167.41 L 134.48 167.86 C 134.58 168.69 135.34 169.28 136.17 169.18 C 137.00 169.08 137.59 168.32 137.49 167.49 L 137.44 167.05 C 137.34 166.22 136.58 165.63 135.75 165.73 C 134.92 165.83 134.33 166.58 134.43 167.41 Z"
      fill="black"
      fill-rule="nonzero" /><path d="M 142.57 139.66 L 142.43 140.65 C 142.31 141.46 142.87 142.20 143.68 142.32 C 144.48 142.44 145.23 141.88 145.35 141.07 L 145.49 140.08 C 145.61 139.28 145.05 138.53 144.24 138.42 C 143.44 138.30 142.69 138.86 142.57 139.66 Z M 142.40 140.72 L 142.30 141.72 C 142.23 142.54 142.83 143.27 143.66 143.35 C 144.48 143.43 145.21 142.82 145.29 142.00 L 145.38 141.00 C 145.46 140.18 144.85 139.45 144.03 139.37 C 143.20 139.30 142.47 139.90 142.40 140.72 Z M 142.29 141.82 L 142.26 142.82 C 142.24 143.66 142.90 144.35 143.73 144.37 C 144.56 144.39 145.26 143.73 145.28 142.90 L 145.30 141.90 C 145.32 141.07 144.67 140.37 143.83 140.35 C 143.00 140.33 142.31 140.99 142.29 141.82 Z M 142.26 142.86 L 142.26 143.84 C 142.26 144.68 142.94 145.35 143.77 145.35 C 144.60 145.35 145.27 144.68 145.27 143.85 L 145.28 142.86 C 145.28 142.03 144.60 141.36 143.77 141.36 C 142.94 141.36 142.26 142.03 142.26 142.86 Z M 142.27 143.85 L 142.27 144.85 C 142.27 145.68 142.94 146.35 143.77 146.35 C 144.60 146.35 145.27 145.68 145.27 144.85 L 145.27 143.85 C 145.27 143.02 144.60 142.34 143.77 142.34 C 142.94 142.34 142.27 143.02 142.27 143.85 Z M 142.28 144.85 L 142.28 145.85 C 142.28 146.67 142.94 147.34 143.77 147.34 C 144.59 147.34 145.26 146.67 145.26 145.85 L 145.26 144.85 C 145.26 144.02 144.59 143.36 143.77 143.36 C 142.94 143.36 142.28 144.02 142.28 144.85 Z M 142.28 145.85 L 142.28 146.86 C 142.28 147.68 142.95 148.34 143.77 148.34 C 144.59 148.34 145.25 147.68 145.25 146.86 L 145.25 145.85 C 145.25 145.03 144.59 144.36 143.77 144.36 C 142.95 144.36 142.28 145.03 142.28 145.85 Z M 142.29 146.86 L 142.29 147.84 C 142.29 148.66 142.95 149.33 143.77 149.33 C 144.59 149.33 145.25 148.66 145.25 147.84 L 145.25 146.86 C 145.25 146.04 144.59 145.37 143.77 145.37 C 142.95 145.37 142.29 146.04 142.29 146.86 Z M 142.28 147.84 L 142.28 148.85 C 142.28 149.67 142.95 150.34 143.77 150.34 C 144.59 150.34 145.26 149.67 145.26 148.85 L 145.26 147.84 C 145.26 147.02 144.59 146.36 143.77 146.36 C 142.95 146.36 142.28 147.02 142.28 147.84 Z M 142.28 148.85 L 142.28 149.83 C 142.28 150.66 142.95 151.32 143.77 151.32 C 144.59 151.32 145.26 150.66 145.26 149.83 L 145.26 148.85 C 145.26 148.03 144.59 147.36 143.77 147.36 C 142.95 147.36 142.28 148.03 142.28 148.85 Z M 142.28 149.83 L 142.28 150.86 C 142.28 151.68 142.95 152.34 143.77 152.34 C 144.59 152.34 145.26 151.68 145.26 150.86 L 145.26 149.83 C 145.26 149.01 144.59 148.34 143.77 148.34 C 142.95 148.34 142.28 149.01 142.28 149.83 Z"
      fill="black"
      fill-rule="nonzero" /><path d="M 144.95 144.78 L 145.99 144.64 C 146.80 144.54 147.37 143.80 147.26 142.99 C 147.16 142.18 146.42 141.60 145.61 141.71 L 144.57 141.84 C 143.76 141.95 143.19 142.69 143.29 143.50 C 143.40 144.31 144.14 144.88 144.95 144.78 Z M 145.98 144.65 L 146.98 144.53 C 147.80 144.43 148.38 143.68 148.27 142.87 C 148.17 142.05 147.43 141.47 146.61 141.57 L 145.61 141.70 C 144.80 141.80 144.22 142.54 144.32 143.36 C 144.42 144.18 145.16 144.76 145.98 144.65 Z M 146.96 144.54 L 147.91 144.43 C 148.73 144.34 149.32 143.60 149.23 142.78 C 149.14 141.96 148.40 141.37 147.58 141.46 L 146.63 141.56 C 145.81 141.66 145.22 142.40 145.31 143.22 C 145.40 144.04 146.14 144.63 146.96 144.54 Z M 147.87 144.43 L 148.87 144.34 C 149.69 144.27 150.30 143.55 150.23 142.73 C 150.16 141.91 149.43 141.30 148.61 141.37 L 147.61 141.46 C 146.79 141.53 146.19 142.26 146.26 143.08 C 146.33 143.90 147.05 144.50 147.87 144.43 Z M 148.82 144.32 L 149.80 144.27 C 150.61 144.23 151.23 143.54 151.19 142.73 C 151.14 141.92 150.45 141.30 149.64 141.34 L 148.66 141.39 C 147.85 141.44 147.23 142.13 147.28 142.94 C 147.32 143.75 148.01 144.37 148.82 144.32 Z M 149.76 144.26 L 150.77 144.23 C 151.57 144.21 152.21 143.55 152.19 142.75 C 152.17 141.94 151.50 141.31 150.70 141.33 L 149.69 141.35 C 148.89 141.37 148.25 142.04 148.27 142.84 C 148.29 143.64 148.96 144.28 149.76 144.26 Z M 150.74 144.22 L 151.77 144.22 C 152.57 144.22 153.21 143.57 153.21 142.78 C 153.21 141.98 152.56 141.33 151.77 141.34 L 150.74 141.34 C 149.94 141.34 149.29 141.99 149.29 142.78 C 149.30 143.58 149.94 144.23 150.74 144.22 Z M 151.74 144.22 L 152.72 144.24 C 153.52 144.26 154.18 143.63 154.19 142.83 C 154.21 142.04 153.58 141.38 152.79 141.36 L 151.80 141.34 C 151.01 141.32 150.35 141.95 150.33 142.75 C 150.31 143.54 150.94 144.20 151.74 144.22 Z M 152.67 144.24 L 153.71 144.30 C 154.51 144.34 155.18 143.74 155.23 142.94 C 155.28 142.15 154.67 141.47 153.88 141.43 L 152.84 141.37 C 152.05 141.32 151.37 141.93 151.32 142.72 C 151.28 143.51 151.88 144.19 152.67 144.24 Z M 153.68 144.30 L 154.32 144.35 C 155.11 144.42 155.81 143.83 155.88 143.04 C 155.94 142.24 155.36 141.55 154.56 141.48 L 153.92 141.43 C 153.12 141.36 152.43 141.95 152.36 142.74 C 152.29 143.53 152.88 144.23 153.68 144.30 Z"
      fill="black"
      fill-rule="nonzero" /><path d="M 140.11 153.40 L 140.85 152.92 C 141.54 152.47 141.74 151.54 141.29 150.85 C 140.83 150.16 139.91 149.96 139.22 150.41 L 138.47 150.90 C 137.78 151.35 137.59 152.28 138.04 152.97 C 138.49 153.66 139.42 153.86 140.11 153.40 Z M 140.58 153.08 L 141.61 152.68 C 142.39 152.38 142.78 151.50 142.48 150.72 C 142.17 149.94 141.29 149.55 140.51 149.85 L 139.49 150.25 C 138.70 150.55 138.32 151.43 138.62 152.21 C 138.92 153.00 139.80 153.39 140.58 153.08 Z M 141.35 152.77 L 142.26 152.59 C 143.09 152.43 143.63 151.62 143.46 150.80 C 143.30 149.97 142.50 149.43 141.67 149.59 L 140.77 149.77 C 139.94 149.93 139.40 150.73 139.56 151.56 C 139.72 152.39 140.53 152.93 141.35 152.77 Z M 142.15 152.60 L 143.18 152.48 C 144.01 152.38 144.61 151.62 144.50 150.78 C 144.40 149.94 143.64 149.35 142.81 149.45 L 141.78 149.58 C 140.94 149.68 140.35 150.44 140.45 151.28 C 140.55 152.11 141.31 152.71 142.15 152.60 Z M 143.12 152.48 L 144.16 152.39 C 145.00 152.32 145.62 151.58 145.55 150.74 C 145.48 149.91 144.74 149.29 143.90 149.36 L 142.86 149.45 C 142.02 149.52 141.40 150.26 141.48 151.09 C 141.55 151.93 142.28 152.55 143.12 152.48 Z M 144.14 152.38 L 145.13 152.32 C 145.96 152.26 146.59 151.54 146.53 150.70 C 146.47 149.87 145.75 149.24 144.92 149.30 L 143.93 149.37 C 143.09 149.42 142.47 150.15 142.52 150.98 C 142.58 151.81 143.30 152.44 144.14 152.38 Z M 145.10 152.31 L 146.07 152.26 C 146.90 152.21 147.53 151.50 147.49 150.68 C 147.44 149.85 146.74 149.21 145.91 149.26 L 144.94 149.31 C 144.12 149.35 143.48 150.06 143.52 150.89 C 143.57 151.71 144.27 152.35 145.10 152.31 Z M 146.04 152.24 L 147.06 152.21 C 147.89 152.18 148.53 151.49 148.50 150.67 C 148.48 149.85 147.79 149.21 146.96 149.23 L 145.94 149.27 C 145.12 149.29 144.47 149.98 144.50 150.80 C 144.53 151.63 145.22 152.27 146.04 152.24 Z M 147.04 152.20 L 148.04 152.19 C 148.86 152.17 149.51 151.50 149.49 150.68 C 149.48 149.86 148.81 149.21 147.99 149.22 L 146.99 149.24 C 146.17 149.25 145.52 149.93 145.53 150.75 C 145.55 151.57 146.22 152.22 147.04 152.20 Z M 148.02 152.18 L 149.06 152.17 C 149.87 152.17 150.53 151.50 150.52 150.69 C 150.51 149.87 149.85 149.21 149.03 149.22 L 148.00 149.23 C 147.19 149.23 146.53 149.90 146.54 150.72 C 146.54 151.53 147.21 152.19 148.02 152.18 Z M 149.05 152.17 L 150.07 152.17 C 150.88 152.16 151.54 151.50 151.54 150.69 C 151.53 149.88 150.87 149.22 150.06 149.22 L 149.04 149.22 C 148.23 149.23 147.57 149.89 147.57 150.70 C 147.57 151.51 148.23 152.17 149.05 152.17 Z M 150.06 152.16 L 151.09 152.16 C 151.90 152.16 152.55 151.50 152.55 150.69 C 152.55 149.88 151.90 149.23 151.09 149.23 L 150.06 149.23 C 149.25 149.23 148.60 149.88 148.60 150.69 C 148.60 151.50 149.25 152.16 150.06 152.16 Z M 151.09 152.15 L 152.19 152.15 C 152.99 152.15 153.65 151.50 153.65 150.69 C 153.65 149.89 152.99 149.24 152.19 149.24 L 151.09 149.24 C 150.28 149.24 149.63 149.89 149.63 150.69 C 149.63 151.50 150.28 152.15 151.09 152.15 Z M 152.19 152.13 L 153.10 152.13 C 153.89 152.13 154.54 151.49 154.54 150.69 C 154.54 149.90 153.89 149.25 153.10 149.25 L 152.19 149.25 C 151.39 149.25 150.75 149.90 150.75 150.69 C 150.75 151.49 151.39 152.13 152.19 152.13 Z M 153.10 152.12 L 154.08 152.12 C 154.87 152.12 155.51 151.48 155.51 150.69 C 155.51 149.90 154.87 149.26 154.08 149.26 L 153.10 149.26 C 152.31 149.26 151.67 149.90 151.67 150.69 C 151.67 151.48 152.31 152.12 153.10 152.12 Z M 154.08 152.12 L 155.04 152.12 C 155.82 152.12 156.46 151.48 156.46 150.69 C 156.46 149.91 155.82 149.27 155.04 149.27 L 154.08 149.27 C 153.30 149.27 152.66 149.91 152.66 150.69 C 152.66 151.48 153.30 152.12 154.08 152.12 Z M 155.04 152.12 L 155.10 152.12 C 155.89 152.12 156.53 151.48 156.53 150.69 C 156.53 149.91 155.89 149.27 155.10 149.27 L 155.04 149.27 C 154.25 149.27 153.61 149.91 153.61 150.69 C 153.61 151.48 154.25 152.12 155.04 152.12 Z"
      fill="black"
      fill-rule="nonzero" /><path d="M 145.86 151.11 L 145.38 152.00 C 144.98 152.74 145.25 153.66 145.99 154.06 C 146.73 154.46 147.65 154.18 148.05 153.45 L 148.53 152.55 C 148.93 151.81 148.66 150.89 147.92 150.49 C 147.18 150.10 146.26 150.37 145.86 151.11 Z M 145.27 152.24 L 144.96 153.16 C 144.69 153.95 145.12 154.82 145.92 155.09 C 146.72 155.35 147.58 154.92 147.85 154.13 L 148.16 153.21 C 148.42 152.41 147.99 151.55 147.20 151.28 C 146.40 151.01 145.54 151.44 145.27 152.24 Z M 144.88 153.58 L 144.84 154.51 C 144.81 155.35 145.47 156.06 146.31 156.09 C 147.15 156.13 147.86 155.47 147.89 154.63 L 147.93 153.70 C 147.96 152.86 147.30 152.15 146.46 152.12 C 145.62 152.08 144.91 152.74 144.88 153.58 Z M 144.85 154.72 L 144.96 155.79 C 145.04 156.62 145.78 157.24 146.62 157.16 C 147.46 157.07 148.07 156.33 147.99 155.49 L 147.89 154.42 C 147.81 153.58 147.06 152.97 146.22 153.05 C 145.38 153.13 144.77 153.88 144.85 154.72 Z M 144.96 155.79 L 145.06 156.78 C 145.14 157.61 145.89 158.22 146.73 158.14 C 147.56 158.05 148.18 157.31 148.09 156.47 L 147.99 155.48 C 147.91 154.65 147.16 154.03 146.32 154.12 C 145.48 154.20 144.87 154.95 144.96 155.79 Z M 145.06 156.76 L 145.15 157.78 C 145.22 158.62 145.96 159.24 146.80 159.16 C 147.64 159.08 148.26 158.34 148.18 157.51 L 148.09 156.49 C 148.02 155.65 147.28 155.03 146.44 155.10 C 145.60 155.18 144.98 155.92 145.06 156.76 Z M 145.15 157.76 L 145.23 158.76 C 145.30 159.60 146.03 160.22 146.86 160.15 C 147.70 160.09 148.33 159.36 148.26 158.52 L 148.18 157.52 C 148.11 156.69 147.38 156.06 146.54 156.13 C 145.71 156.19 145.08 156.93 145.15 157.76 Z M 145.24 158.73 L 145.30 159.71 C 145.35 160.54 146.07 161.17 146.90 161.12 C 147.73 161.07 148.36 160.35 148.31 159.52 L 148.25 158.55 C 148.20 157.71 147.48 157.08 146.65 157.13 C 145.82 157.19 145.19 157.90 145.24 158.73 Z M 145.31 159.67 L 145.35 160.67 C 145.38 161.50 146.07 162.14 146.89 162.11 C 147.72 162.08 148.36 161.39 148.34 160.57 L 148.30 159.56 C 148.27 158.73 147.58 158.09 146.75 158.12 C 145.93 158.15 145.28 158.84 145.31 159.67 Z M 145.36 160.64 L 145.37 161.66 C 145.38 162.48 146.06 163.13 146.87 163.12 C 147.69 163.11 148.35 162.44 148.34 161.62 L 148.32 160.60 C 148.31 159.78 147.64 159.13 146.82 159.14 C 146.00 159.15 145.35 159.82 145.36 160.64 Z M 145.38 161.64 L 145.38 162.66 C 145.38 163.47 146.04 164.13 146.85 164.13 C 147.66 164.13 148.32 163.47 148.32 162.66 L 148.33 161.64 C 148.33 160.83 147.67 160.17 146.86 160.17 C 146.04 160.17 145.38 160.83 145.38 161.64 Z M 145.40 162.63 L 145.38 163.68 C 145.37 164.49 146.01 165.15 146.81 165.16 C 147.62 165.18 148.28 164.53 148.30 163.73 L 148.31 162.68 C 148.32 161.87 147.68 161.21 146.88 161.20 C 146.07 161.19 145.41 161.83 145.40 162.63 Z M 145.40 163.66 L 145.37 164.61 C 145.34 165.41 145.96 166.07 146.76 166.10 C 147.55 166.12 148.22 165.50 148.25 164.70 L 148.28 163.75 C 148.30 162.96 147.68 162.29 146.88 162.27 C 146.09 162.24 145.42 162.86 145.40 163.66 Z M 145.38 164.60 L 145.37 164.84 C 145.34 165.63 145.95 166.30 146.74 166.33 C 147.53 166.36 148.19 165.74 148.22 164.96 L 148.23 164.71 C 148.26 163.93 147.65 163.26 146.86 163.23 C 146.07 163.20 145.41 163.81 145.38 164.60 Z"
      fill="black"
      fill-rule="nonzero" /><path d="M 144.35 154.52 L 143.32 154.57 C 142.48 154.62 141.83 155.33 141.88 156.17 C 141.92 157.01 142.64 157.66 143.48 157.62 L 144.51 157.56 C 145.35 157.52 146.00 156.80 145.95 155.96 C 145.91 155.12 145.19 154.48 144.35 154.52 Z M 142.80 154.68 L 142.01 155.02 C 141.23 155.35 140.87 156.25 141.20 157.03 C 141.53 157.81 142.43 158.17 143.21 157.84 L 144.00 157.51 C 144.78 157.18 145.14 156.28 144.81 155.50 C 144.48 154.71 143.58 154.35 142.80 154.68 Z M 141.41 155.49 L 140.83 156.22 C 140.31 156.89 140.43 157.85 141.10 158.37 C 141.76 158.89 142.72 158.77 143.24 158.11 L 143.82 157.37 C 144.34 156.71 144.22 155.74 143.55 155.22 C 142.89 154.70 141.93 154.82 141.41 155.49 Z M 140.70 156.45 L 140.19 157.41 C 139.79 158.15 140.07 159.07 140.81 159.46 C 141.55 159.86 142.47 159.58 142.86 158.84 L 143.38 157.88 C 143.77 157.14 143.49 156.22 142.75 155.83 C 142.01 155.43 141.09 155.71 140.70 156.45 Z M 140.16 157.46 L 139.74 158.34 C 139.37 159.09 139.68 159.99 140.43 160.36 C 141.18 160.73 142.09 160.41 142.46 159.66 L 142.88 158.79 C 143.25 158.04 142.94 157.13 142.19 156.76 C 141.44 156.40 140.53 156.71 140.16 157.46 Z M 139.72 158.37 L 139.28 159.32 C 138.93 160.08 139.27 160.98 140.03 161.33 C 140.78 161.68 141.68 161.35 142.03 160.59 L 142.47 159.63 C 142.82 158.87 142.49 157.97 141.73 157.63 C 140.97 157.28 140.07 157.61 139.72 158.37 Z M 139.27 159.36 L 138.86 160.32 C 138.53 161.09 138.88 161.98 139.65 162.31 C 140.42 162.64 141.30 162.28 141.63 161.51 L 142.05 160.55 C 142.37 159.78 142.02 158.90 141.25 158.57 C 140.49 158.24 139.60 158.59 139.27 159.36 Z M 138.85 160.38 L 138.45 161.40 C 138.16 162.17 138.54 163.03 139.31 163.33 C 140.08 163.63 140.95 163.25 141.25 162.47 L 141.64 161.46 C 141.94 160.69 141.56 159.82 140.78 159.52 C 140.01 159.22 139.14 159.61 138.85 160.38 Z M 138.45 161.47 L 138.14 162.41 C 137.88 163.18 138.30 164.01 139.07 164.27 C 139.85 164.53 140.68 164.11 140.94 163.34 L 141.25 162.40 C 141.51 161.63 141.09 160.79 140.32 160.54 C 139.54 160.28 138.71 160.70 138.45 161.47 Z M 138.14 162.49 L 137.90 163.38 C 137.69 164.15 138.14 164.95 138.92 165.16 C 139.69 165.37 140.49 164.92 140.70 164.14 L 140.94 163.25 C 141.15 162.48 140.70 161.68 139.92 161.47 C 139.15 161.26 138.35 161.72 138.14 162.49 Z M 137.89 163.47 L 137.68 164.48 C 137.52 165.26 138.02 166.02 138.80 166.18 C 139.58 166.34 140.34 165.84 140.50 165.06 L 140.71 164.05 C 140.87 163.27 140.37 162.51 139.59 162.35 C 138.81 162.19 138.05 162.69 137.89 163.47 Z M 137.68 164.55 L 137.52 165.51 C 137.40 166.29 137.94 167.03 138.72 167.15 C 139.50 167.27 140.23 166.74 140.35 165.95 L 140.50 164.99 C 140.63 164.21 140.09 163.48 139.31 163.35 C 138.53 163.23 137.80 163.77 137.68 164.55 Z M 137.53 165.53 L 137.48 165.89 C 137.37 166.67 137.91 167.39 138.69 167.50 C 139.47 167.61 140.19 167.07 140.30 166.29 L 140.35 165.93 C 140.46 165.15 139.92 164.43 139.14 164.32 C 138.36 164.21 137.64 164.75 137.53 165.53 Z"
      fill="black"
      fill-rule="nonzero" /><path d="M 150.51 157.66 L 151.12 158.40 C 151.64 159.04 152.59 159.13 153.23 158.61 C 153.87 158.08 153.97 157.14 153.44 156.49 L 152.84 155.76 C 152.31 155.11 151.37 155.02 150.73 155.54 C 150.08 156.07 149.99 157.02 150.51 157.66 Z M 150.85 157.98 L 151.20 158.91 C 151.49 159.70 152.37 160.10 153.16 159.81 C 153.94 159.51 154.35 158.64 154.05 157.85 L 153.71 156.92 C 153.42 156.13 152.54 155.72 151.75 156.02 C 150.96 156.31 150.56 157.19 150.85 157.98 Z M 151.10 158.50 L 151.18 159.50 C 151.25 160.34 151.99 160.97 152.83 160.90 C 153.68 160.83 154.31 160.09 154.24 159.25 L 154.15 158.25 C 154.09 157.41 153.34 156.78 152.50 156.85 C 151.66 156.92 151.03 157.66 151.10 158.50 Z M 151.17 159.32 L 151.14 160.38 C 151.11 161.22 151.78 161.93 152.62 161.96 C 153.47 161.99 154.18 161.32 154.21 160.47 L 154.24 159.42 C 154.27 158.57 153.60 157.87 152.76 157.84 C 151.91 157.81 151.20 158.48 151.17 159.32 Z M 151.16 160.29 L 151.07 161.33 C 151.00 162.16 151.61 162.90 152.45 162.97 C 153.29 163.05 154.02 162.43 154.10 161.59 L 154.19 160.56 C 154.26 159.72 153.64 158.98 152.81 158.91 C 151.97 158.84 151.23 159.46 151.16 160.29 Z M 151.10 161.31 L 151.00 162.26 C 150.92 163.08 151.52 163.82 152.34 163.90 C 153.17 163.98 153.90 163.38 153.98 162.55 L 154.07 161.61 C 154.15 160.78 153.55 160.05 152.73 159.97 C 151.91 159.89 151.18 160.49 151.10 161.31 Z M 151.03 162.32 L 150.96 163.33 C 150.91 164.14 151.53 164.83 152.34 164.88 C 153.14 164.93 153.84 164.32 153.89 163.51 L 153.95 162.50 C 154.00 161.69 153.39 161.00 152.58 160.95 C 151.77 160.90 151.08 161.51 151.03 162.32 Z M 150.99 163.36 L 150.97 163.98 C 150.93 164.77 151.55 165.44 152.34 165.47 C 153.14 165.50 153.81 164.89 153.84 164.09 L 153.86 163.48 C 153.90 162.69 153.28 162.02 152.49 161.98 C 151.69 161.95 151.02 162.57 150.99 163.36 Z"
      fill="black"
      fill-rule="nonzero" /><path d="M 151.53 134.04 L 152.26 134.65 C 152.90 135.20 153.87 135.12 154.42 134.48 C 154.97 133.83 154.89 132.86 154.25 132.31 L 153.52 131.70 C 152.88 131.15 151.91 131.23 151.36 131.87 C 150.81 132.52 150.89 133.49 151.53 134.04 Z M 152.13 134.56 L 152.85 135.31 C 153.44 135.93 154.42 135.96 155.04 135.36 C 155.67 134.77 155.69 133.79 155.10 133.17 L 154.37 132.41 C 153.78 131.79 152.80 131.77 152.18 132.36 C 151.56 132.95 151.53 133.93 152.13 134.56 Z M 152.72 135.18 L 153.32 135.98 C 153.84 136.67 154.82 136.81 155.51 136.29 C 156.20 135.77 156.34 134.79 155.82 134.10 L 155.22 133.30 C 154.70 132.61 153.72 132.47 153.03 132.99 C 152.34 133.51 152.20 134.49 152.72 135.18 Z M 153.28 135.91 L 153.85 136.75 C 154.33 137.47 155.30 137.66 156.02 137.17 C 156.73 136.69 156.92 135.72 156.44 135.00 L 155.87 134.16 C 155.38 133.45 154.41 133.26 153.70 133.74 C 152.98 134.23 152.79 135.20 153.28 135.91 Z M 153.84 136.74 L 154.41 137.61 C 154.89 138.33 155.86 138.52 156.58 138.04 C 157.30 137.57 157.49 136.60 157.02 135.88 L 156.44 135.02 C 155.97 134.30 155.00 134.10 154.28 134.58 C 153.56 135.05 153.36 136.02 153.84 136.74 Z M 154.41 137.61 L 154.95 138.41 C 155.42 139.13 156.39 139.32 157.11 138.85 C 157.83 138.37 158.03 137.40 157.55 136.68 L 157.01 135.88 C 156.54 135.16 155.57 134.96 154.85 135.44 C 154.13 135.92 153.93 136.89 154.41 137.61 Z M 154.94 138.40 L 155.46 139.21 C 155.93 139.93 156.90 140.14 157.62 139.67 C 158.35 139.20 158.55 138.23 158.08 137.50 L 157.56 136.69 C 157.09 135.97 156.12 135.76 155.40 136.23 C 154.67 136.70 154.47 137.67 154.94 138.40 Z M 155.45 139.19 L 155.99 140.05 C 156.46 140.78 157.42 140.99 158.15 140.53 C 158.88 140.07 159.10 139.11 158.64 138.38 L 158.09 137.52 C 157.63 136.79 156.67 136.57 155.94 137.03 C 155.21 137.50 154.99 138.46 155.45 139.19 Z M 155.99 140.04 L 156.50 140.87 C 156.96 141.60 157.92 141.83 158.65 141.37 C 159.39 140.92 159.61 139.95 159.16 139.22 L 158.64 138.39 C 158.19 137.66 157.22 137.43 156.49 137.89 C 155.76 138.34 155.53 139.30 155.99 140.04 Z M 156.50 140.86 L 157.03 141.72 C 157.48 142.46 158.45 142.68 159.18 142.23 C 159.91 141.78 160.14 140.82 159.69 140.09 L 159.16 139.23 C 158.71 138.49 157.75 138.26 157.01 138.72 C 156.28 139.17 156.05 140.13 156.50 140.86 Z M 157.03 141.72 L 157.55 142.57 C 158.00 143.30 158.96 143.53 159.70 143.07 C 160.43 142.62 160.66 141.66 160.21 140.93 L 159.69 140.09 C 159.24 139.35 158.28 139.12 157.54 139.58 C 156.81 140.03 156.58 140.99 157.03 141.72 Z M 157.55 142.57 L 158.08 143.41 C 158.53 144.15 159.49 144.37 160.22 143.92 C 160.95 143.47 161.18 142.51 160.73 141.78 L 160.21 140.93 C 159.76 140.20 158.79 139.97 158.06 140.42 C 157.33 140.87 157.10 141.83 157.55 142.57 Z M 158.07 143.41 L 158.62 144.29 C 159.07 145.02 160.03 145.25 160.76 144.80 C 161.49 144.35 161.72 143.39 161.27 142.66 L 160.73 141.78 C 160.28 141.04 159.32 140.81 158.59 141.27 C 157.85 141.72 157.62 142.68 158.07 143.41 Z M 158.62 144.29 L 159.14 145.14 C 159.59 145.88 160.55 146.11 161.28 145.66 C 162.02 145.21 162.25 144.25 161.80 143.51 L 161.27 142.66 C 160.82 141.93 159.86 141.69 159.13 142.14 C 158.40 142.59 158.16 143.55 158.62 144.29 Z M 159.14 145.14 L 159.66 146.00 C 160.12 146.73 161.07 146.96 161.81 146.51 C 162.54 146.06 162.77 145.10 162.32 144.37 L 161.80 143.51 C 161.35 142.78 160.39 142.55 159.65 143.00 C 158.92 143.45 158.69 144.41 159.14 145.14 Z M 159.67 146.00 L 160.19 146.86 C 160.65 147.59 161.61 147.82 162.34 147.37 C 163.07 146.92 163.30 145.96 162.85 145.22 L 162.32 144.37 C 161.87 143.63 160.91 143.41 160.18 143.86 C 159.44 144.31 159.21 145.27 159.67 146.00 Z M 160.20 146.86 L 160.72 147.71 C 161.18 148.45 162.14 148.67 162.87 148.22 C 163.60 147.76 163.83 146.80 163.37 146.07 L 162.85 145.22 C 162.39 144.49 161.43 144.26 160.70 144.72 C 159.97 145.17 159.74 146.13 160.20 146.86 Z M 160.72 147.71 L 161.24 148.55 C 161.70 149.28 162.66 149.51 163.39 149.06 C 164.12 148.61 164.35 147.65 163.89 146.91 L 163.37 146.07 C 162.92 145.34 161.96 145.11 161.23 145.57 C 160.50 146.02 160.27 146.98 160.72 147.71 Z M 161.24 148.55 L 161.76 149.39 C 162.21 150.13 163.17 150.36 163.90 149.91 C 164.64 149.46 164.87 148.50 164.42 147.76 L 163.90 146.92 C 163.45 146.18 162.49 145.95 161.75 146.40 C 161.02 146.85 160.79 147.81 161.24 148.55 Z M 161.76 149.39 L 162.27 150.24 C 162.72 150.98 163.68 151.21 164.41 150.77 C 165.15 150.32 165.38 149.36 164.94 148.63 L 164.42 147.77 C 163.97 147.04 163.02 146.80 162.28 147.25 C 161.54 147.69 161.31 148.65 161.76 149.39 Z M 162.27 150.23 L 162.79 151.10 C 163.23 151.83 164.18 152.08 164.92 151.63 C 165.66 151.19 165.90 150.24 165.46 149.50 L 164.94 148.64 C 164.50 147.90 163.55 147.66 162.81 148.10 C 162.07 148.54 161.83 149.50 162.27 150.23 Z M 162.78 151.09 L 163.29 151.95 C 163.73 152.69 164.68 152.94 165.42 152.50 C 166.16 152.07 166.41 151.11 165.97 150.37 L 165.46 149.51 C 165.03 148.77 164.07 148.52 163.33 148.96 C 162.59 149.39 162.35 150.35 162.78 151.09 Z M 163.29 151.94 L 163.79 152.81 C 164.22 153.55 165.17 153.80 165.92 153.37 C 166.66 152.94 166.91 151.98 166.48 151.24 L 165.97 150.38 C 165.54 149.64 164.59 149.39 163.85 149.82 C 163.11 150.25 162.86 151.20 163.29 151.94 Z M 163.79 152.80 L 164.30 153.68 C 164.73 154.42 165.67 154.67 166.42 154.25 C 167.16 153.82 167.41 152.87 166.98 152.13 L 166.48 151.25 C 166.05 150.51 165.10 150.25 164.36 150.68 C 163.62 151.11 163.36 152.06 163.79 152.80 Z M 164.30 153.67 L 164.79 154.54 C 165.22 155.28 166.17 155.54 166.91 155.11 C 167.65 154.69 167.91 153.74 167.48 153.00 L 166.98 152.13 C 166.56 151.39 165.61 151.13 164.87 151.56 C 164.13 151.98 163.87 152.93 164.30 153.67 Z M 164.79 154.53 L 165.28 155.39 C 165.70 156.13 166.64 156.39 167.39 155.97 C 168.13 155.56 168.39 154.61 167.97 153.87 L 167.48 153.01 C 167.06 152.27 166.12 152.01 165.38 152.43 C 164.64 152.85 164.37 153.79 164.79 154.53 Z M 165.28 155.38 L 165.77 156.26 C 166.18 157.00 167.12 157.26 167.86 156.85 C 168.61 156.43 168.87 155.50 168.46 154.75 L 167.97 153.88 C 167.55 153.14 166.62 152.87 165.87 153.29 C 165.13 153.70 164.87 154.64 165.28 155.38 Z M 165.77 156.25 L 166.26 157.12 C 166.67 157.86 167.60 158.13 168.34 157.72 C 169.08 157.30 169.35 156.37 168.94 155.63 L 168.45 154.76 C 168.04 154.02 167.11 153.75 166.37 154.16 C 165.63 154.58 165.36 155.51 165.77 156.25 Z M 166.26 157.12 L 166.77 158.03 C 167.18 158.77 168.11 159.03 168.85 158.62 C 169.59 158.21 169.85 157.28 169.44 156.54 L 168.93 155.63 C 168.52 154.89 167.59 154.63 166.85 155.04 C 166.12 155.45 165.85 156.38 166.26 157.12 Z M 166.78 158.03 L 167.27 158.90 C 167.68 159.63 168.61 159.88 169.34 159.47 C 170.07 159.06 170.33 158.13 169.92 157.40 L 169.43 156.54 C 169.02 155.81 168.09 155.55 167.36 155.96 C 166.63 156.37 166.37 157.30 166.78 158.03 Z M 167.28 158.90 L 167.77 159.75 C 168.19 160.48 169.11 160.72 169.84 160.31 C 170.56 159.89 170.81 158.96 170.39 158.24 L 169.90 157.39 C 169.49 156.67 168.56 156.42 167.84 156.84 C 167.11 157.26 166.86 158.18 167.28 158.90 Z M 167.77 159.75 L 168.26 160.60 C 168.68 161.32 169.60 161.57 170.32 161.15 C 171.04 160.74 171.29 159.81 170.88 159.09 L 170.39 158.24 C 169.97 157.52 169.05 157.27 168.33 157.69 C 167.61 158.10 167.36 159.03 167.77 159.75 Z M 168.25 160.57 L 168.72 161.43 C 169.12 162.16 170.04 162.42 170.77 162.02 C 171.50 161.62 171.76 160.70 171.36 159.97 L 170.89 159.12 C 170.49 158.39 169.57 158.12 168.84 158.52 C 168.11 158.93 167.85 159.84 168.25 160.57 Z M 168.73 161.44 L 169.24 162.34 C 169.65 163.06 170.57 163.31 171.29 162.90 C 172.01 162.49 172.27 161.57 171.86 160.85 L 171.35 159.96 C 170.94 159.23 170.02 158.98 169.30 159.39 C 168.58 159.80 168.32 160.72 168.73 161.44 Z M 169.28 162.40 L 169.84 163.27 C 170.28 163.97 171.21 164.17 171.91 163.72 C 172.61 163.28 172.81 162.35 172.37 161.65 L 171.81 160.78 C 171.37 160.08 170.44 159.88 169.74 160.33 C 169.04 160.77 168.84 161.70 169.28 162.40 Z M 169.89 163.33 L 170.46 164.14 C 170.95 164.81 171.88 164.96 172.55 164.48 C 173.22 163.99 173.38 163.06 172.89 162.39 L 172.32 161.58 C 171.83 160.91 170.90 160.76 170.23 161.24 C 169.56 161.73 169.40 162.66 169.89 163.33 Z M 170.48 164.15 L 170.71 164.46 C 171.21 165.12 172.14 165.26 172.80 164.76 C 173.46 164.27 173.60 163.33 173.10 162.67 L 172.87 162.37 C 172.38 161.71 171.45 161.57 170.79 162.07 C 170.13 162.56 169.99 163.50 170.48 164.15 Z"
      fill="black"
      fill-rule="nonzero" /><path d="M 157.35 131.96 L 158.23 131.63 C 159.00 131.33 159.39 130.47 159.09 129.70 C 158.80 128.93 157.94 128.54 157.16 128.83 L 156.29 129.17 C 155.51 129.46 155.13 130.32 155.42 131.10 C 155.72 131.87 156.58 132.26 157.35 131.96 Z M 157.53 131.74 L 158.51 131.84 C 159.34 131.93 160.08 131.33 160.17 130.50 C 160.26 129.67 159.66 128.92 158.83 128.83 L 157.86 128.72 C 157.03 128.63 156.28 129.23 156.19 130.07 C 156.10 130.90 156.70 131.65 157.53 131.74 Z M 157.99 131.69 L 158.81 132.10 C 159.56 132.47 160.46 132.17 160.84 131.42 C 161.21 130.68 160.91 129.77 160.16 129.39 L 159.35 128.98 C 158.60 128.61 157.69 128.91 157.32 129.66 C 156.94 130.40 157.24 131.31 157.99 131.69 Z M 158.66 131.99 L 159.55 132.58 C 160.23 133.04 161.16 132.86 161.62 132.17 C 162.08 131.49 161.89 130.56 161.21 130.10 L 160.32 129.50 C 159.63 129.05 158.71 129.23 158.25 129.91 C 157.79 130.60 157.97 131.53 158.66 131.99 Z M 159.49 132.52 L 160.38 133.19 C 161.03 133.67 161.95 133.54 162.44 132.89 C 162.93 132.24 162.80 131.31 162.15 130.82 L 161.26 130.16 C 160.61 129.67 159.68 129.81 159.20 130.46 C 158.71 131.11 158.84 132.03 159.49 132.52 Z M 160.36 133.15 L 161.19 133.80 C 161.83 134.30 162.74 134.19 163.24 133.55 C 163.74 132.92 163.63 132.00 162.99 131.51 L 162.16 130.86 C 161.53 130.36 160.61 130.47 160.11 131.11 C 159.62 131.74 159.73 132.66 160.36 133.15 Z M 161.19 133.78 L 161.94 134.38 C 162.56 134.88 163.47 134.78 163.97 134.16 C 164.47 133.54 164.37 132.63 163.75 132.13 L 162.99 131.53 C 162.37 131.03 161.47 131.13 160.97 131.75 C 160.47 132.37 160.57 133.28 161.19 133.78 Z M 161.95 134.37 L 162.74 135.02 C 163.36 135.51 164.26 135.42 164.75 134.80 C 165.25 134.19 165.16 133.29 164.54 132.79 L 163.74 132.15 C 163.13 131.65 162.23 131.75 161.73 132.36 C 161.24 132.98 161.33 133.88 161.95 134.37 Z M 162.75 135.01 L 163.50 135.62 C 164.11 136.11 165.01 136.01 165.50 135.40 C 166.00 134.78 165.90 133.89 165.29 133.39 L 164.53 132.79 C 163.92 132.30 163.02 132.40 162.53 133.01 C 162.04 133.62 162.14 134.52 162.75 135.01 Z M 163.50 135.62 L 163.77 135.84 C 164.39 136.33 165.28 136.23 165.78 135.61 C 166.27 135.00 166.17 134.10 165.56 133.61 L 165.28 133.39 C 164.67 132.90 163.77 133.00 163.28 133.61 C 162.79 134.23 162.89 135.13 163.50 135.62 Z"
      fill="black"
      fill-rule="nonzero" /><path d="M 172.25 148.04 L 171.93 147.04 C 171.67 146.23 170.80 145.79 170.00 146.05 C 169.20 146.31 168.75 147.18 169.01 147.98 L 169.34 148.99 C 169.60 149.79 170.46 150.23 171.27 149.97 C 172.07 149.71 172.51 148.85 172.25 148.04 Z M 169.51 146.23 L 169.03 146.59 C 168.32 147.12 168.18 148.13 168.71 148.83 C 169.24 149.54 170.24 149.68 170.95 149.15 L 171.43 148.79 C 172.14 148.26 172.28 147.26 171.75 146.55 C 171.22 145.84 170.22 145.70 169.51 146.23 Z M 168.56 147.10 L 168.04 148.07 C 167.61 148.86 167.90 149.84 168.69 150.27 C 169.47 150.69 170.46 150.40 170.88 149.62 L 171.41 148.65 C 171.84 147.86 171.54 146.88 170.76 146.45 C 169.97 146.02 168.99 146.31 168.56 147.10 Z M 168.01 148.13 L 167.50 149.17 C 167.10 149.97 167.43 150.94 168.23 151.34 C 169.04 151.73 170.01 151.40 170.40 150.60 L 170.91 149.56 C 171.31 148.75 170.98 147.78 170.17 147.39 C 169.37 146.99 168.40 147.33 168.01 148.13 Z M 167.51 149.15 L 167.07 150.01 C 166.67 150.81 166.98 151.78 167.78 152.18 C 168.57 152.59 169.55 152.27 169.95 151.47 L 170.39 150.61 C 170.79 149.82 170.48 148.85 169.68 148.44 C 168.89 148.04 167.91 148.35 167.51 149.15 Z M 167.08 150.01 L 166.66 150.83 C 166.25 151.62 166.57 152.59 167.36 152.99 C 168.15 153.40 169.12 153.09 169.52 152.29 L 169.94 151.48 C 170.35 150.69 170.04 149.72 169.24 149.31 C 168.45 148.91 167.48 149.22 167.08 150.01 Z M 166.67 150.84 L 166.21 151.74 C 165.81 152.53 166.12 153.49 166.91 153.89 C 167.70 154.29 168.66 153.97 169.06 153.19 L 169.52 152.29 C 169.92 151.50 169.60 150.53 168.82 150.13 C 168.03 149.73 167.07 150.05 166.67 150.84 Z M 166.22 151.74 L 165.77 152.63 C 165.37 153.41 165.68 154.37 166.46 154.77 C 167.24 155.16 168.20 154.85 168.60 154.07 L 169.05 153.18 C 169.45 152.40 169.14 151.44 168.36 151.05 C 167.57 150.65 166.62 150.96 166.22 151.74 Z M 165.78 152.62 L 165.32 153.51 C 164.92 154.29 165.22 155.24 165.99 155.64 C 166.77 156.04 167.72 155.74 168.12 154.97 L 168.59 154.08 C 168.99 153.30 168.69 152.35 167.91 151.94 C 167.14 151.54 166.18 151.85 165.78 152.62 Z M 165.34 153.50 L 164.85 154.40 C 164.44 155.17 164.73 156.12 165.50 156.53 C 166.26 156.94 167.22 156.65 167.63 155.88 L 168.11 154.98 C 168.52 154.21 168.23 153.26 167.46 152.85 C 166.70 152.44 165.74 152.73 165.34 153.50 Z M 164.87 154.39 L 164.39 155.26 C 163.97 156.02 164.25 156.97 165.01 157.38 C 165.76 157.80 166.71 157.52 167.13 156.77 L 167.61 155.89 C 168.02 155.14 167.75 154.19 166.99 153.77 C 166.24 153.36 165.29 153.63 164.87 154.39 Z M 164.40 155.26 L 163.91 156.14 C 163.50 156.89 163.77 157.84 164.52 158.26 C 165.27 158.67 166.21 158.40 166.63 157.65 L 167.12 156.77 C 167.53 156.02 167.26 155.07 166.51 154.66 C 165.76 154.24 164.82 154.51 164.40 155.26 Z M 163.92 156.15 L 163.44 157.03 C 163.03 157.77 163.30 158.71 164.04 159.12 C 164.79 159.53 165.73 159.26 166.14 158.52 L 166.62 157.64 C 167.03 156.90 166.76 155.96 166.01 155.55 C 165.27 155.14 164.33 155.41 163.92 156.15 Z M 163.45 157.03 L 162.97 157.91 C 162.56 158.65 162.83 159.58 163.57 159.99 C 164.31 160.39 165.24 160.12 165.65 159.38 L 166.13 158.51 C 166.54 157.77 166.27 156.84 165.53 156.43 C 164.79 156.02 163.85 156.29 163.45 157.03 Z M 162.98 157.91 L 162.49 158.78 C 162.09 159.51 162.35 160.44 163.08 160.85 C 163.82 161.25 164.74 160.99 165.15 160.26 L 165.64 159.38 C 166.04 158.65 165.78 157.72 165.04 157.31 C 164.31 156.91 163.39 157.17 162.98 157.91 Z M 162.51 158.78 L 162.02 159.64 C 161.61 160.37 161.87 161.29 162.59 161.69 C 163.32 162.10 164.24 161.85 164.65 161.12 L 165.13 160.26 C 165.54 159.53 165.29 158.61 164.56 158.21 C 163.84 157.80 162.92 158.05 162.51 158.78 Z M 162.04 159.63 L 161.54 160.51 C 161.12 161.22 161.37 162.13 162.08 162.55 C 162.79 162.96 163.70 162.72 164.12 162.00 L 164.62 161.13 C 165.04 160.42 164.80 159.51 164.08 159.09 C 163.37 158.68 162.46 158.92 162.04 159.63 Z M 161.56 160.49 L 161.04 161.35 C 160.62 162.05 160.85 162.96 161.55 163.38 C 162.25 163.80 163.16 163.58 163.58 162.88 L 164.09 162.02 C 164.52 161.32 164.29 160.41 163.59 159.99 C 162.89 159.57 161.98 159.79 161.56 160.49 Z M 161.07 161.34 L 160.54 162.19 C 160.11 162.88 160.32 163.78 161.01 164.21 C 161.70 164.64 162.60 164.42 163.03 163.74 L 163.56 162.89 C 163.99 162.20 163.77 161.30 163.09 160.87 C 162.40 160.44 161.49 160.65 161.07 161.34 Z M 160.56 162.18 L 160.02 163.03 C 159.58 163.71 159.78 164.61 160.46 165.04 C 161.14 165.47 162.04 165.27 162.47 164.59 L 163.01 163.74 C 163.44 163.07 163.24 162.17 162.57 161.73 C 161.89 161.30 160.99 161.50 160.56 162.18 Z M 160.03 163.02 L 159.48 163.87 C 159.05 164.54 159.24 165.43 159.91 165.87 C 160.58 166.30 161.47 166.11 161.91 165.44 L 162.46 164.60 C 162.89 163.93 162.70 163.03 162.03 162.59 C 161.36 162.16 160.46 162.35 160.03 163.02 Z M 159.50 163.86 L 158.94 164.69 C 158.50 165.35 158.68 166.25 159.34 166.69 C 160.00 167.13 160.90 166.95 161.34 166.29 L 161.89 165.45 C 162.34 164.79 162.16 163.90 161.49 163.46 C 160.83 163.01 159.94 163.19 159.50 163.86 Z M 158.96 164.67 L 158.39 165.49 C 157.94 166.14 158.11 167.04 158.76 167.49 C 159.41 167.94 160.31 167.77 160.76 167.12 L 161.32 166.30 C 161.77 165.65 161.61 164.76 160.96 164.31 C 160.30 163.86 159.41 164.02 158.96 164.67 Z M 158.41 165.47 L 157.83 166.28 C 157.37 166.93 157.51 167.82 158.16 168.28 C 158.80 168.74 159.69 168.60 160.15 167.95 L 160.74 167.14 C 161.20 166.50 161.05 165.61 160.41 165.14 C 159.77 164.68 158.87 164.83 158.41 165.47 Z M 157.84 166.28 L 157.25 167.08 C 156.78 167.71 156.92 168.61 157.56 169.07 C 158.19 169.54 159.09 169.40 159.55 168.77 L 160.14 167.96 C 160.61 167.33 160.47 166.43 159.84 165.97 C 159.20 165.50 158.31 165.64 157.84 166.28 Z M 157.25 167.08 L 156.67 167.88 C 156.20 168.52 156.34 169.41 156.97 169.87 C 157.61 170.34 158.50 170.20 158.97 169.57 L 159.55 168.76 C 160.02 168.13 159.88 167.24 159.25 166.77 C 158.61 166.31 157.72 166.44 157.25 167.08 Z M 156.66 167.89 L 156.07 168.69 C 155.61 169.33 155.75 170.22 156.39 170.69 C 157.03 171.15 157.92 171.01 158.38 170.37 L 158.97 169.56 C 159.43 168.92 159.29 168.03 158.65 167.57 C 158.02 167.11 157.13 167.25 156.66 167.89 Z M 156.07 168.70 L 155.48 169.51 C 155.02 170.15 155.16 171.04 155.80 171.50 C 156.44 171.96 157.33 171.82 157.79 171.18 L 158.38 170.37 C 158.84 169.73 158.70 168.84 158.06 168.38 C 157.43 167.92 156.54 168.06 156.07 168.70 Z"
      fill="black"
      fill-rule="nonzero" /></svg>