<svg xmlns="http://www.w3.org/2000/svg" width="300" height="300" viewBox="0 0 300 300">
<path d="M 125.60 148.46 L 124.55 148.67 C 123.72 148.84 123.17 149.65 123.34 150.48 C 123.50 151.32 124.32 151.86 125.15 151.69 L 126.20 151.49 C 127.04 151.32 127.58 150.51 127.41 149.67 C 127.25 148.84 126.44 148.30 125.60 148.46 Z M 124.70 151.80 L 125.33 151.86 C 126.22 151.94 127.01 151.28 127.09 150.39 C 127.18 149.50 126.52 148.71 125.63 148.63 L 125.00 148.57 C 124.11 148.48 123.32 149.14 123.24 150.03 C 123.15 150.92 123.81 151.71 124.70 151.80 Z M 125.48 151.88 L 126.70 151.88 C 127.61 151.88 128.34 151.15 128.34 150.25 C 128.34 149.34 127.61 148.61 126.71 148.61 L 125.48 148.61 C 124.58 148.60 123.84 149.33 123.84 150.24 C 123.84 151.14 124.57 151.88 125.48 151.88 Z M 126.72 151.88 L 127.75 151.87 C 128.65 151.86 129.37 151.12 129.37 150.22 C 129.36 149.32 128.62 148.59 127.72 148.60 L 126.69 148.61 C 125.79 148.62 125.06 149.35 125.07 150.26 C 125.08 151.16 125.82 151.88 126.72 151.88 Z M 127.79 151.86 L 128.79 151.82 C 129.69 151.79 130.39 151.04 130.36 150.14 C 130.33 149.24 129.57 148.54 128.68 148.57 L 127.67 148.61 C 126.78 148.64 126.07 149.40 126.11 150.29 C 126.14 151.19 126.89 151.89 127.79 151.86 Z M 128.88 151.81 L 129.89 151.72 C 130.78 151.64 131.43 150.85 131.35 149.96 C 131.27 149.07 130.48 148.41 129.59 148.49 L 128.58 148.59 C 127.69 148.67 127.04 149.46 127.12 150.35 C 127.20 151.24 127.99 151.89 128.88 151.81 Z M 129.96 151.70 L 130.90 151.57 C 131.79 151.45 132.40 150.63 132.28 149.75 C 132.16 148.87 131.34 148.26 130.46 148.38 L 129.52 148.51 C 128.64 148.63 128.02 149.45 128.14 150.33 C 128.27 151.21 129.08 151.82 129.96 151.70 Z M 130.93 151.56 L 131.92 151.41 C 132.79 151.27 133.39 150.46 133.26 149.58 C 133.13 148.70 132.31 148.10 131.43 148.24 L 130.44 148.39 C 129.56 148.52 128.96 149.34 129.10 150.22 C 129.23 151.09 130.05 151.69 130.93 151.56 Z M 131.92 151.40 L 132.91 151.25 C 133.78 151.11 134.38 150.30 134.24 149.43 C 134.11 148.56 133.29 147.96 132.42 148.09 L 131.43 148.24 C 130.56 148.38 129.96 149.19 130.10 150.07 C 130.23 150.94 131.05 151.54 131.92 151.40 Z M 132.90 151.24 L 133.89 151.09 C 134.76 150.96 135.36 150.15 135.23 149.29 C 135.10 148.42 134.29 147.82 133.42 147.95 L 132.43 148.10 C 131.56 148.23 130.96 149.04 131.09 149.91 C 131.22 150.77 132.03 151.37 132.90 151.24 Z M 133.89 151.08 L 134.87 150.94 C 135.73 150.81 136.32 150.01 136.20 149.15 C 136.07 148.29 135.27 147.69 134.41 147.82 L 133.43 147.96 C 132.57 148.09 131.97 148.89 132.10 149.75 C 132.23 150.61 133.03 151.21 133.89 151.08 Z M 134.89 150.92 L 135.88 150.75 C 136.73 150.61 137.31 149.81 137.17 148.96 C 137.03 148.11 136.23 147.54 135.38 147.68 L 134.39 147.84 C 133.54 147.98 132.96 148.78 133.10 149.63 C 133.24 150.48 134.04 151.05 134.89 150.92 Z M 135.93 150.73 L 136.89 150.54 C 137.73 150.38 138.27 149.57 138.11 148.73 C 137.95 147.90 137.14 147.35 136.30 147.51 L 135.34 147.70 C 134.50 147.86 133.95 148.67 134.12 149.51 C 134.28 150.34 135.09 150.89 135.93 150.73 Z M 136.93 150.51 L 137.93 150.29 C 138.75 150.10 139.26 149.29 139.08 148.47 C 138.89 147.65 138.08 147.13 137.26 147.32 L 136.26 147.54 C 135.44 147.73 134.93 148.54 135.11 149.36 C 135.30 150.18 136.11 150.70 136.93 150.51 Z M 137.96 150.26 L 138.93 150.02 C 139.74 149.81 140.23 149.00 140.03 148.19 C 139.83 147.39 139.01 146.90 138.20 147.10 L 137.23 147.34 C 136.42 147.54 135.93 148.36 136.13 149.17 C 136.33 149.97 137.15 150.46 137.96 150.26 Z M 138.94 149.99 L 139.91 149.74 C 140.70 149.54 141.18 148.73 140.97 147.93 C 140.77 147.14 139.96 146.66 139.16 146.87 L 138.20 147.12 C 137.40 147.33 136.93 148.14 137.13 148.93 C 137.34 149.72 138.15 150.20 138.94 149.99 Z M 139.90 149.73 L 140.89 149.47 C 141.67 149.27 142.14 148.47 141.94 147.68 C 141.74 146.90 140.94 146.43 140.15 146.63 L 139.17 146.89 C 138.38 147.09 137.91 147.89 138.11 148.67 C 138.32 149.46 139.12 149.93 139.90 149.73 Z M 140.91 149.45 L 141.83 149.19 C 142.60 148.98 143.06 148.18 142.84 147.40 C 142.62 146.63 141.82 146.18 141.05 146.39 L 140.13 146.65 C 139.36 146.87 138.90 147.67 139.12 148.44 C 139.34 149.22 140.14 149.67 140.91 149.45 Z M 141.87 149.17 L 142.78 148.89 C 143.54 148.65 143.96 147.83 143.72 147.07 C 143.48 146.31 142.67 145.89 141.91 146.13 L 141.01 146.42 C 140.25 146.66 139.82 147.47 140.06 148.23 C 140.30 148.99 141.11 149.41 141.87 149.17 Z M 142.80 148.87 L 143.79 148.54 C 144.54 148.28 144.94 147.47 144.69 146.72 C 144.43 145.96 143.62 145.56 142.87 145.82 L 141.88 146.15 C 141.13 146.40 140.73 147.22 140.98 147.97 C 141.24 148.72 142.05 149.12 142.80 148.87 Z M 143.79 148.53 L 144.70 148.22 C 145.44 147.96 145.84 147.14 145.58 146.40 C 145.32 145.65 144.51 145.25 143.76 145.51 L 142.86 145.82 C 142.11 146.08 141.72 146.90 141.97 147.64 C 142.23 148.39 143.05 148.79 143.79 148.53 Z M 144.70 148.21 L 145.68 147.87 C 146.43 147.61 146.82 146.80 146.56 146.05 C 146.30 145.31 145.49 144.91 144.74 145.17 L 143.76 145.52 C 143.01 145.77 142.62 146.59 142.88 147.33 C 143.14 148.08 143.95 148.47 144.70 148.21 Z M 145.68 147.87 L 146.22 147.68 C 146.96 147.42 147.35 146.61 147.09 145.87 C 146.83 145.12 146.02 144.73 145.28 144.99 L 144.74 145.18 C 144.00 145.43 143.61 146.25 143.87 146.99 C 144.13 147.74 144.94 148.13 145.68 147.87 Z"
      fill="black"
      fill-rule="nonzero" /><path d="M 136.37 142.61 L 136.18 143.53 C 136.01 144.34 136.53 145.13 137.34 145.30 C 138.15 145.47 138.94 144.95 139.11 144.14 L 139.31 143.22 C 139.48 142.41 138.96 141.62 138.15 141.45 C 137.34 141.28 136.54 141.80 136.37 142.61 Z M 136.07 143.81 L 136.06 144.85 C 136.05 145.72 136.74 146.43 137.61 146.44 C 138.48 146.46 139.19 145.76 139.20 144.89 L 139.22 143.85 C 139.23 142.99 138.53 142.28 137.66 142.26 C 136.80 142.25 136.09 142.95 136.07 143.81 Z M 136.05 145.13 L 136.21 146.13 C 136.35 147.00 137.18 147.59 138.06 147.45 C 138.93 147.31 139.52 146.48 139.38 145.60 L 139.22 144.61 C 139.07 143.74 138.25 143.14 137.37 143.29 C 136.50 143.43 135.90 144.26 136.05 145.13 Z M 136.22 146.22 L 136.44 147.21 C 136.64 148.08 137.51 148.63 138.38 148.43 C 139.25 148.24 139.79 147.37 139.60 146.50 L 139.37 145.51 C 139.17 144.64 138.31 144.09 137.44 144.29 C 136.57 144.49 136.02 145.35 136.22 146.22 Z M 136.43 147.21 L 136.66 148.23 C 136.85 149.11 137.72 149.66 138.59 149.47 C 139.47 149.28 140.02 148.41 139.83 147.53 L 139.61 146.51 C 139.41 145.63 138.55 145.08 137.67 145.27 C 136.79 145.46 136.24 146.33 136.43 147.21 Z M 136.65 148.20 L 136.83 149.12 C 137.00 150.01 137.86 150.58 138.74 150.41 C 139.62 150.23 140.20 149.38 140.03 148.49 L 139.84 147.57 C 139.67 146.69 138.81 146.11 137.93 146.28 C 137.05 146.46 136.47 147.31 136.65 148.20 Z M 136.82 149.11 L 137.00 150.07 C 137.16 150.96 138.02 151.54 138.90 151.38 C 139.79 151.21 140.38 150.36 140.21 149.47 L 140.03 148.51 C 139.87 147.62 139.02 147.04 138.13 147.20 C 137.24 147.36 136.65 148.22 136.82 149.11 Z M 136.99 150.06 L 137.17 151.06 C 137.33 151.95 138.18 152.54 139.07 152.38 C 139.96 152.22 140.56 151.37 140.40 150.48 L 140.22 149.48 C 140.06 148.59 139.21 148.00 138.32 148.16 C 137.43 148.32 136.83 149.17 136.99 150.06 Z M 137.17 151.04 L 137.33 152.02 C 137.49 152.91 138.33 153.51 139.23 153.35 C 140.12 153.20 140.72 152.35 140.56 151.46 L 140.40 150.49 C 140.25 149.60 139.40 149.00 138.51 149.15 C 137.61 149.31 137.01 150.15 137.17 151.04 Z M 137.33 152.00 L 137.50 153.00 C 137.64 153.90 138.48 154.50 139.38 154.36 C 140.27 154.21 140.87 153.37 140.73 152.48 L 140.56 151.48 C 140.42 150.58 139.58 149.98 138.69 150.12 C 137.79 150.27 137.19 151.11 137.33 152.00 Z M 137.50 152.99 L 137.65 153.96 C 137.78 154.85 138.62 155.46 139.51 155.32 C 140.40 155.19 141.01 154.35 140.88 153.46 L 140.73 152.49 C 140.59 151.60 139.76 150.99 138.86 151.13 C 137.97 151.26 137.36 152.10 137.50 152.99 Z M 137.65 153.94 L 137.80 154.96 C 137.93 155.85 138.75 156.47 139.65 156.34 C 140.54 156.21 141.15 155.38 141.02 154.49 L 140.88 153.47 C 140.74 152.58 139.92 151.96 139.02 152.09 C 138.13 152.22 137.52 153.05 137.65 153.94 Z M 137.80 154.95 L 137.94 155.94 C 138.06 156.83 138.89 157.45 139.78 157.33 C 140.67 157.20 141.29 156.38 141.16 155.48 L 141.02 154.50 C 140.90 153.60 140.07 152.98 139.18 153.11 C 138.29 153.24 137.67 154.06 137.80 154.95 Z M 137.93 155.93 L 138.07 156.93 C 138.19 157.82 139.01 158.45 139.90 158.32 C 140.79 158.20 141.42 157.38 141.30 156.49 L 141.16 155.49 C 141.04 154.60 140.22 153.98 139.33 154.10 C 138.44 154.22 137.81 155.04 137.93 155.93 Z M 138.07 156.92 L 138.20 157.92 C 138.31 158.81 139.13 159.44 140.02 159.33 C 140.91 159.22 141.54 158.40 141.43 157.51 L 141.30 156.50 C 141.19 155.61 140.37 154.98 139.48 155.09 C 138.59 155.21 137.95 156.02 138.07 156.92 Z M 138.19 157.90 L 138.31 158.90 C 138.42 159.79 139.22 160.43 140.12 160.32 C 141.01 160.22 141.65 159.41 141.55 158.52 L 141.43 157.52 C 141.33 156.63 140.52 155.99 139.62 156.10 C 138.73 156.20 138.09 157.01 138.19 157.90 Z M 138.31 158.88 L 138.41 159.86 C 138.51 160.75 139.31 161.40 140.20 161.31 C 141.10 161.22 141.75 160.41 141.65 159.52 L 141.55 158.54 C 141.45 157.64 140.65 156.99 139.76 157.09 C 138.86 157.18 138.22 157.98 138.31 158.88 Z M 138.41 159.84 L 138.50 160.83 C 138.58 161.73 139.38 162.39 140.27 162.31 C 141.17 162.22 141.82 161.43 141.74 160.54 L 141.65 159.54 C 141.57 158.65 140.78 157.99 139.88 158.07 C 138.99 158.15 138.33 158.94 138.41 159.84 Z M 138.50 160.81 L 138.58 161.81 C 138.65 162.70 139.44 163.37 140.33 163.30 C 141.22 163.23 141.89 162.45 141.82 161.55 L 141.74 160.56 C 141.67 159.66 140.89 159.00 139.99 159.07 C 139.10 159.14 138.43 159.92 138.50 160.81 Z M 138.58 161.79 L 138.65 162.80 C 138.71 163.69 139.49 164.37 140.38 164.31 C 141.27 164.25 141.95 163.47 141.89 162.58 L 141.82 161.57 C 141.76 160.68 140.98 160.00 140.09 160.06 C 139.20 160.12 138.52 160.90 138.58 161.79 Z M 138.65 162.78 L 138.71 163.77 C 138.76 164.66 139.52 165.34 140.42 165.29 C 141.31 165.24 141.99 164.48 141.94 163.59 L 141.89 162.60 C 141.84 161.71 141.07 161.02 140.18 161.07 C 139.29 161.12 138.60 161.89 138.65 162.78 Z M 138.71 163.75 L 138.75 164.77 C 138.79 165.66 139.55 166.35 140.44 166.31 C 141.33 166.28 142.02 165.52 141.98 164.63 L 141.94 163.61 C 141.90 162.72 141.15 162.03 140.26 162.06 C 139.37 162.10 138.67 162.85 138.71 163.75 Z M 138.76 164.75 L 138.79 165.73 C 138.82 166.62 139.57 167.32 140.46 167.29 C 141.35 167.26 142.04 166.51 142.01 165.62 L 141.98 164.64 C 141.95 163.75 141.20 163.06 140.31 163.09 C 139.42 163.12 138.73 163.86 138.76 164.75 Z M 138.79 165.73 L 138.83 166.73 C 138.86 167.62 139.60 168.32 140.49 168.29 C 141.38 168.26 142.08 167.51 142.05 166.62 L 142.01 165.62 C 141.98 164.73 141.24 164.04 140.35 164.07 C 139.46 164.10 138.76 164.84 138.79 165.73 Z M 138.83 166.74 L 138.87 167.73 C 138.90 168.61 139.64 169.31 140.53 169.27 C 141.42 169.24 142.11 168.50 142.08 167.61 L 142.04 166.62 C 142.01 165.73 141.27 165.04 140.38 165.07 C 139.49 165.10 138.80 165.85 138.83 166.74 Z M 138.87 167.72 L 138.90 168.70 C 138.93 169.59 139.68 170.28 140.56 170.25 C 141.45 170.22 142.14 169.47 142.11 168.59 L 142.08 167.61 C 142.04 166.72 141.30 166.03 140.42 166.06 C 139.53 166.09 138.84 166.84 138.87 167.72 Z M 138.90 168.68 L 138.93 169.71 C 138.95 170.60 139.68 171.30 140.57 171.27 C 141.45 171.25 142.15 170.52 142.13 169.63 L 142.11 168.61 C 142.09 167.72 141.35 167.02 140.47 167.04 C 139.58 167.06 138.88 167.80 138.90 168.68 Z M 138.93 169.67 L 138.93 170.69 C 138.93 171.58 139.65 172.29 140.53 172.29 C 141.42 172.29 142.13 171.57 142.13 170.69 L 142.13 169.67 C 142.13 168.79 141.41 168.07 140.53 168.07 C 139.65 168.07 138.93 168.79 138.93 169.67 Z M 138.93 170.62 L 138.89 171.62 C 138.85 172.51 139.54 173.25 140.42 173.29 C 141.31 173.33 142.05 172.64 142.09 171.76 L 142.13 170.76 C 142.17 169.88 141.48 169.13 140.60 169.09 C 139.72 169.05 138.97 169.74 138.93 170.62 Z M 138.93 171.35 L 138.70 172.38 C 138.51 173.24 139.05 174.09 139.92 174.28 C 140.78 174.48 141.63 173.93 141.82 173.07 L 142.05 172.04 C 142.24 171.17 141.70 170.32 140.84 170.13 C 139.97 169.94 139.12 170.48 138.93 171.35 Z M 139.59 171.27 L 138.91 171.58 C 138.11 171.95 137.76 172.90 138.13 173.71 C 138.50 174.51 139.45 174.86 140.26 174.49 L 140.93 174.18 C 141.74 173.81 142.09 172.85 141.72 172.05 C 141.35 171.25 140.39 170.90 139.59 171.27 Z M 140.01 171.49 L 138.97 171.21 C 138.11 170.97 137.23 171.48 137.00 172.33 C 136.77 173.19 137.27 174.07 138.13 174.30 L 139.17 174.58 C 140.02 174.81 140.90 174.31 141.13 173.45 C 141.36 172.60 140.86 171.72 140.01 171.49 Z M 139.17 171.27 L 138.21 170.87 C 137.40 170.53 136.46 170.92 136.12 171.74 C 135.77 172.55 136.16 173.49 136.98 173.83 L 137.93 174.23 C 138.75 174.57 139.69 174.19 140.03 173.37 C 140.37 172.55 139.98 171.61 139.17 171.27 Z M 138.25 170.89 L 137.35 170.49 C 136.54 170.12 135.59 170.49 135.23 171.29 C 134.86 172.10 135.23 173.05 136.04 173.41 L 136.94 173.82 C 137.75 174.18 138.70 173.82 139.06 173.01 C 139.42 172.20 139.06 171.25 138.25 170.89 Z M 137.32 170.47 L 136.39 170.08 C 135.57 169.73 134.63 170.11 134.28 170.92 C 133.94 171.74 134.32 172.68 135.13 173.03 L 136.06 173.43 C 136.88 173.77 137.82 173.39 138.17 172.58 C 138.51 171.76 138.13 170.82 137.32 170.47 Z M 136.34 170.06 L 135.43 169.70 C 134.60 169.38 133.67 169.79 133.35 170.62 C 133.03 171.44 133.44 172.37 134.27 172.70 L 135.18 173.05 C 136.01 173.37 136.94 172.96 137.26 172.14 C 137.58 171.31 137.17 170.38 136.34 170.06 Z M 135.40 169.68 L 134.48 169.35 C 133.64 169.05 132.72 169.48 132.41 170.31 C 132.11 171.15 132.54 172.08 133.38 172.38 L 134.30 172.71 C 135.13 173.02 136.06 172.59 136.36 171.75 C 136.67 170.91 136.23 169.99 135.40 169.68 Z M 134.48 169.35 L 133.53 169.00 C 132.69 168.69 131.76 169.12 131.45 169.96 C 131.15 170.80 131.58 171.73 132.42 172.04 L 133.37 172.38 C 134.21 172.69 135.14 172.26 135.45 171.42 C 135.76 170.58 135.32 169.65 134.48 169.35 Z M 133.55 168.99 L 132.61 168.64 C 131.77 168.32 130.83 168.75 130.52 169.59 C 130.20 170.43 130.63 171.37 131.47 171.69 L 132.40 172.04 C 133.24 172.35 134.18 171.93 134.49 171.09 C 134.81 170.25 134.39 169.31 133.55 168.99 Z M 132.61 168.63 L 131.61 168.26 C 130.77 167.95 129.83 168.38 129.51 169.23 C 129.20 170.08 129.63 171.02 130.48 171.33 L 131.47 171.70 C 132.32 172.01 133.26 171.58 133.58 170.73 C 133.89 169.88 133.45 168.94 132.61 168.63 Z M 131.74 168.30 L 130.76 167.85 C 129.93 167.46 128.95 167.83 128.57 168.66 C 128.19 169.49 128.55 170.47 129.38 170.85 L 130.36 171.30 C 131.19 171.68 132.17 171.32 132.55 170.49 C 132.93 169.66 132.57 168.68 131.74 168.30 Z M 131.68 168.88 L 131.49 168.25 C 131.24 167.36 130.31 166.85 129.42 167.11 C 128.54 167.36 128.03 168.29 128.28 169.18 L 128.47 169.81 C 128.72 170.70 129.65 171.21 130.54 170.95 C 131.42 170.70 131.93 169.77 131.68 168.88 Z M 131.18 169.77 L 131.85 168.96 C 132.44 168.24 132.33 167.18 131.62 166.60 C 130.90 166.01 129.84 166.12 129.26 166.83 L 128.59 167.65 C 128.00 168.37 128.11 169.42 128.82 170.01 C 129.54 170.60 130.60 170.49 131.18 169.77 Z M 131.65 169.16 L 132.41 168.50 C 133.11 167.90 133.19 166.85 132.59 166.15 C 131.98 165.45 130.93 165.37 130.23 165.97 L 129.46 166.63 C 128.77 167.23 128.69 168.29 129.29 168.99 C 129.89 169.69 130.95 169.76 131.65 169.16 Z M 132.34 168.55 L 133.13 167.93 C 133.85 167.37 133.99 166.33 133.42 165.60 C 132.86 164.88 131.82 164.75 131.10 165.31 L 130.30 165.93 C 129.58 166.49 129.45 167.53 130.01 168.25 C 130.57 168.98 131.61 169.11 132.34 168.55 Z M 133.11 167.93 L 133.93 167.30 C 134.65 166.76 134.79 165.73 134.25 165.00 C 133.70 164.28 132.67 164.14 131.94 164.69 L 131.12 165.31 C 130.40 165.86 130.26 166.89 130.81 167.61 C 131.35 168.33 132.38 168.48 133.11 167.93 Z M 133.92 167.29 L 134.74 166.67 C 135.45 166.13 135.59 165.11 135.05 164.40 C 134.51 163.68 133.50 163.54 132.78 164.08 L 131.96 164.70 C 131.24 165.24 131.10 166.26 131.64 166.97 C 132.18 167.69 133.20 167.83 133.92 167.29 Z M 134.71 166.66 L 135.52 166.06 C 136.23 165.53 136.38 164.53 135.85 163.82 C 135.33 163.11 134.33 162.96 133.62 163.49 L 132.80 164.09 C 132.09 164.62 131.95 165.62 132.47 166.33 C 133.00 167.04 134.00 167.19 134.71 166.66 Z M 135.48 166.04 L 136.30 165.45 C 137.00 164.95 137.16 163.97 136.66 163.27 C 136.15 162.57 135.18 162.41 134.48 162.92 L 133.66 163.51 C 132.96 164.01 132.80 164.99 133.30 165.69 C 133.81 166.39 134.78 166.55 135.48 166.04 Z M 136.28 165.42 L 137.05 164.86 C 137.73 164.37 137.88 163.42 137.39 162.74 C 136.90 162.06 135.95 161.91 135.27 162.40 L 134.50 162.95 C 133.82 163.44 133.67 164.39 134.16 165.07 C 134.65 165.75 135.59 165.91 136.28 165.42 Z M 137.03 164.84 L 137.84 164.26 C 138.51 163.78 138.66 162.85 138.18 162.18 C 137.70 161.51 136.77 161.36 136.10 161.84 L 135.29 162.42 C 134.62 162.90 134.47 163.83 134.95 164.50 C 135.43 165.17 136.36 165.32 137.03 164.84 Z M 137.79 164.27 L 138.62 163.71 C 139.29 163.26 139.47 162.34 139.02 161.67 C 138.56 161.00 137.65 160.82 136.98 161.27 L 136.15 161.83 C 135.48 162.28 135.30 163.20 135.75 163.87 C 136.21 164.54 137.12 164.72 137.79 164.27 Z M 138.59 163.71 L 139.43 163.16 C 140.10 162.72 140.29 161.82 139.85 161.15 C 139.42 160.48 138.52 160.29 137.85 160.73 L 137.01 161.28 C 136.34 161.71 136.15 162.61 136.59 163.28 C 137.02 163.95 137.92 164.14 138.59 163.71 Z M 139.43 163.14 L 140.27 162.59 C 140.93 162.15 141.11 161.26 140.67 160.60 C 140.23 159.94 139.34 159.76 138.68 160.19 L 137.85 160.75 C 137.18 161.18 137.00 162.07 137.44 162.74 C 137.88 163.40 138.77 163.58 139.43 163.14 Z M 140.28 162.58 L 141.11 162.01 C 141.76 161.57 141.93 160.68 141.49 160.03 C 141.04 159.37 140.15 159.20 139.50 159.65 L 138.67 160.21 C 138.02 160.65 137.85 161.54 138.29 162.20 C 138.73 162.85 139.62 163.02 140.28 162.58 Z M 141.11 162.01 L 141.74 161.57 C 142.39 161.13 142.55 160.24 142.10 159.59 C 141.66 158.94 140.77 158.78 140.12 159.22 L 139.49 159.66 C 138.84 160.10 138.68 160.99 139.13 161.64 C 139.57 162.29 140.46 162.45 141.11 162.01 Z"
      fill="black"
      fill-rule="nonzero" /><path d="M 152.79 147.74 L 153.73 147.79 C 154.58 147.83 155.29 147.18 155.34 146.34 C 155.38 145.50 154.74 144.78 153.89 144.73 L 152.95 144.68 C 152.10 144.64 151.38 145.29 151.34 146.13 C 151.29 146.97 151.94 147.69 152.79 147.74 Z M 153.92 147.84 L 154.94 147.77 C 155.81 147.71 156.46 146.96 156.41 146.09 C 156.35 145.22 155.59 144.56 154.72 144.62 L 153.71 144.68 C 152.84 144.74 152.18 145.49 152.24 146.37 C 152.29 147.24 153.05 147.89 153.92 147.84 Z M 155.13 147.75 L 156.06 147.57 C 156.92 147.40 157.48 146.57 157.32 145.71 C 157.15 144.85 156.32 144.29 155.46 144.45 L 154.53 144.63 C 153.67 144.80 153.11 145.63 153.27 146.49 C 153.44 147.35 154.27 147.91 155.13 147.75 Z M 156.17 147.51 L 157.19 147.23 C 158.02 147.01 158.51 146.15 158.28 145.32 C 158.06 144.49 157.20 144.00 156.37 144.23 L 155.35 144.51 C 154.52 144.74 154.03 145.59 154.26 146.42 C 154.49 147.25 155.34 147.74 156.17 147.51 Z M 157.26 147.18 L 158.21 146.87 C 159.01 146.60 159.44 145.74 159.18 144.94 C 158.91 144.14 158.05 143.70 157.24 143.97 L 156.30 144.28 C 155.50 144.55 155.07 145.41 155.33 146.21 C 155.60 147.01 156.46 147.45 157.26 147.18 Z M 158.25 146.83 L 159.18 146.48 C 159.96 146.19 160.36 145.33 160.07 144.55 C 159.79 143.77 158.92 143.38 158.14 143.66 L 157.21 144.01 C 156.43 144.30 156.03 145.16 156.32 145.94 C 156.60 146.72 157.47 147.12 158.25 146.83 Z M 159.20 146.45 L 160.16 146.07 C 160.92 145.78 161.29 144.92 161.00 144.16 C 160.70 143.40 159.84 143.03 159.08 143.32 L 158.13 143.70 C 157.37 143.99 156.99 144.85 157.29 145.61 C 157.59 146.37 158.44 146.74 159.20 146.45 Z M 160.16 146.05 L 161.09 145.68 C 161.83 145.38 162.20 144.53 161.90 143.79 C 161.60 143.04 160.75 142.68 160.00 142.98 L 159.08 143.35 C 158.33 143.64 157.97 144.49 158.27 145.24 C 158.57 145.99 159.41 146.35 160.16 146.05 Z M 161.09 145.67 L 162.01 145.29 C 162.75 144.99 163.11 144.15 162.81 143.41 C 162.51 142.67 161.67 142.31 160.93 142.61 L 160.00 142.99 C 159.26 143.29 158.90 144.13 159.20 144.87 C 159.50 145.61 160.35 145.97 161.09 145.67 Z M 162.01 145.28 L 162.94 144.90 C 163.68 144.60 164.03 143.76 163.73 143.03 C 163.43 142.30 162.59 141.95 161.86 142.24 L 160.93 142.62 C 160.20 142.92 159.84 143.76 160.14 144.49 C 160.44 145.23 161.28 145.58 162.01 145.28 Z"
      fill="black"
      fill-rule="nonzero" /><path d="M 146.39 159.75 L 147.43 159.62 C 148.27 159.53 148.88 158.76 148.78 157.92 C 148.68 157.08 147.92 156.48 147.08 156.57 L 146.03 156.69 C 145.19 156.79 144.59 157.56 144.68 158.40 C 144.78 159.24 145.54 159.84 146.39 159.75 Z M 147.50 159.64 L 148.46 159.49 C 149.31 159.35 149.89 158.55 149.75 157.69 C 149.62 156.84 148.81 156.26 147.96 156.40 L 147.00 156.55 C 146.15 156.69 145.57 157.50 145.71 158.35 C 145.85 159.20 146.65 159.78 147.50 159.64 Z M 148.65 159.46 L 149.61 159.18 C 150.45 158.94 150.94 158.07 150.70 157.23 C 150.45 156.39 149.58 155.90 148.74 156.15 L 147.77 156.42 C 146.93 156.67 146.45 157.54 146.69 158.38 C 146.93 159.22 147.81 159.70 148.65 159.46 Z M 149.80 159.12 L 150.68 158.74 C 151.48 158.40 151.85 157.47 151.51 156.66 C 151.17 155.86 150.24 155.49 149.43 155.84 L 148.55 156.21 C 147.75 156.56 147.38 157.49 147.72 158.29 C 148.07 159.09 149.00 159.46 149.80 159.12 Z M 150.73 158.72 L 151.60 158.30 C 152.39 157.93 152.73 156.99 152.36 156.20 C 151.98 155.42 151.04 155.08 150.26 155.45 L 149.38 155.86 C 148.60 156.23 148.26 157.17 148.63 157.96 C 149.00 158.75 149.94 159.09 150.73 158.72 Z M 151.61 158.30 L 152.54 157.86 C 153.32 157.48 153.66 156.54 153.28 155.76 C 152.91 154.97 151.97 154.64 151.18 155.01 L 150.25 155.45 C 149.47 155.83 149.13 156.77 149.51 157.55 C 149.88 158.34 150.82 158.67 151.61 158.30 Z M 152.54 157.85 L 153.42 157.43 C 154.21 157.06 154.54 156.12 154.17 155.33 C 153.80 154.55 152.86 154.22 152.07 154.59 L 151.18 155.01 C 150.40 155.39 150.07 156.33 150.44 157.11 C 150.81 157.89 151.75 158.23 152.54 157.85 Z M 153.44 157.42 L 154.37 156.96 C 155.15 156.58 155.47 155.64 155.09 154.86 C 154.70 154.09 153.76 153.77 152.99 154.15 L 152.06 154.60 C 151.28 154.98 150.96 155.92 151.34 156.70 C 151.72 157.48 152.66 157.80 153.44 157.42 Z M 154.39 156.95 L 155.27 156.50 C 156.04 156.10 156.34 155.16 155.94 154.39 C 155.55 153.62 154.61 153.32 153.84 153.71 L 152.96 154.16 C 152.19 154.56 151.89 155.50 152.29 156.27 C 152.68 157.04 153.62 157.34 154.39 156.95 Z M 155.28 156.48 L 156.17 156.02 C 156.93 155.61 157.22 154.67 156.82 153.91 C 156.42 153.15 155.48 152.86 154.72 153.26 L 153.83 153.73 C 153.06 154.13 152.77 155.07 153.17 155.83 C 153.57 156.59 154.52 156.89 155.28 156.48 Z M 156.16 156.01 L 157.05 155.55 C 157.81 155.15 158.10 154.21 157.70 153.45 C 157.31 152.69 156.37 152.40 155.61 152.80 L 154.72 153.26 C 153.96 153.66 153.67 154.60 154.07 155.36 C 154.47 156.12 155.40 156.41 156.16 156.01 Z M 157.04 155.54 L 157.93 155.08 C 158.69 154.69 158.98 153.75 158.59 152.99 C 158.19 152.24 157.26 151.94 156.50 152.34 L 155.61 152.80 C 154.86 153.19 154.56 154.13 154.96 154.88 C 155.35 155.64 156.29 155.94 157.04 155.54 Z M 157.93 155.07 L 158.82 154.61 C 159.58 154.21 159.87 153.28 159.48 152.53 C 159.08 151.77 158.15 151.48 157.40 151.88 L 156.50 152.34 C 155.75 152.74 155.46 153.67 155.85 154.42 C 156.24 155.17 157.18 155.47 157.93 155.07 Z M 158.83 154.60 L 159.73 154.12 C 160.48 153.73 160.77 152.80 160.37 152.05 C 159.98 151.30 159.05 151.02 158.30 151.41 L 157.40 151.88 C 156.65 152.28 156.36 153.21 156.75 153.96 C 157.15 154.71 158.08 154.99 158.83 154.60 Z M 159.73 154.12 L 160.61 153.65 C 161.35 153.26 161.64 152.33 161.24 151.59 C 160.85 150.84 159.92 150.56 159.18 150.95 L 158.30 151.42 C 157.55 151.81 157.27 152.74 157.66 153.48 C 158.06 154.23 158.98 154.51 159.73 154.12 Z M 160.60 153.64 L 161.50 153.17 C 162.24 152.78 162.52 151.86 162.13 151.12 C 161.74 150.38 160.82 150.09 160.08 150.49 L 159.18 150.96 C 158.44 151.35 158.16 152.27 158.55 153.01 C 158.94 153.75 159.86 154.04 160.60 153.64 Z M 161.49 153.16 L 162.38 152.70 C 163.12 152.31 163.40 151.40 163.01 150.66 C 162.62 149.92 161.71 149.64 160.97 150.02 L 160.08 150.49 C 159.35 150.88 159.06 151.79 159.45 152.53 C 159.84 153.27 160.75 153.55 161.49 153.16 Z M 162.37 152.69 L 163.21 152.26 C 163.95 151.87 164.24 150.97 163.86 150.23 C 163.47 149.49 162.57 149.21 161.83 149.59 L 160.98 150.03 C 160.25 150.41 159.96 151.32 160.34 152.05 C 160.72 152.79 161.63 153.08 162.37 152.69 Z M 163.21 152.25 L 164.06 151.81 C 164.80 151.43 165.08 150.53 164.71 149.80 C 164.33 149.06 163.43 148.77 162.69 149.15 L 161.84 149.59 C 161.10 149.97 160.82 150.87 161.19 151.61 C 161.57 152.34 162.47 152.63 163.21 152.25 Z M 164.07 151.80 L 164.99 151.31 C 165.72 150.93 166.00 150.03 165.62 149.30 C 165.23 148.57 164.33 148.30 163.61 148.68 L 162.68 149.17 C 161.96 149.55 161.68 150.45 162.06 151.18 C 162.44 151.90 163.34 152.18 164.07 151.80 Z M 165.01 151.30 L 165.89 150.82 C 166.61 150.43 166.88 149.53 166.49 148.81 C 166.10 148.09 165.20 147.82 164.48 148.21 L 163.60 148.69 C 162.88 149.08 162.61 149.98 163.00 150.70 C 163.39 151.42 164.29 151.69 165.01 151.30 Z M 165.89 150.81 L 166.79 150.32 C 167.50 149.93 167.77 149.04 167.38 148.32 C 166.99 147.61 166.09 147.34 165.38 147.73 L 164.48 148.22 C 163.77 148.61 163.51 149.50 163.89 150.22 C 164.28 150.93 165.18 151.20 165.89 150.81 Z M 166.78 150.32 L 167.70 149.82 C 168.41 149.44 168.68 148.55 168.29 147.84 C 167.91 147.13 167.02 146.86 166.31 147.24 L 165.39 147.74 C 164.68 148.12 164.41 149.01 164.80 149.72 C 165.18 150.43 166.06 150.70 166.78 150.32 Z M 167.68 149.82 L 168.55 149.36 C 169.25 148.99 169.53 148.11 169.16 147.41 C 168.79 146.70 167.91 146.42 167.20 146.79 L 166.33 147.25 C 165.62 147.62 165.35 148.49 165.72 149.20 C 166.09 149.91 166.97 150.19 167.68 149.82 Z M 168.53 149.36 L 168.94 149.15 C 169.65 148.78 169.92 147.91 169.56 147.21 C 169.19 146.50 168.33 146.22 167.62 146.59 L 167.21 146.80 C 166.51 147.16 166.23 148.03 166.59 148.74 C 166.96 149.44 167.83 149.72 168.53 149.36 Z"
      fill="black"
      fill-rule="nonzero" /><path d="M 159.88 134.41 L 159.10 135.03 C 158.45 135.56 158.35 136.52 158.88 137.17 C 159.41 137.83 160.37 137.93 161.02 137.40 L 161.79 136.77 C 162.45 136.24 162.55 135.28 162.02 134.63 C 161.49 133.98 160.53 133.88 159.88 134.41 Z M 158.68 135.37 L 158.18 136.19 C 157.71 136.96 157.95 137.95 158.71 138.42 C 159.47 138.89 160.47 138.65 160.93 137.89 L 161.44 137.06 C 161.91 136.30 161.67 135.30 160.91 134.84 C 160.15 134.37 159.15 134.61 158.68 135.37 Z M 157.92 136.74 L 157.73 137.73 C 157.57 138.63 158.17 139.50 159.07 139.67 C 159.98 139.83 160.84 139.24 161.01 138.33 L 161.19 137.34 C 161.36 136.44 160.76 135.57 159.86 135.40 C 158.95 135.24 158.08 135.83 157.92 136.74 Z M 157.70 137.93 L 157.64 138.95 C 157.58 139.88 158.28 140.67 159.21 140.73 C 160.14 140.78 160.93 140.08 160.99 139.15 L 161.05 138.13 C 161.10 137.21 160.40 136.41 159.47 136.35 C 158.55 136.30 157.75 137.00 157.70 137.93 Z M 157.63 138.98 L 157.58 139.96 C 157.54 140.89 158.26 141.68 159.20 141.72 C 160.13 141.76 160.91 141.04 160.95 140.11 L 161.00 139.12 C 161.04 138.19 160.31 137.41 159.38 137.37 C 158.45 137.33 157.67 138.05 157.63 138.98 Z M 157.58 139.97 L 157.54 140.93 C 157.50 141.87 158.23 142.65 159.16 142.69 C 160.10 142.73 160.88 142.00 160.92 141.07 L 160.96 140.10 C 161.00 139.17 160.27 138.38 159.33 138.35 C 158.40 138.31 157.61 139.04 157.58 139.97 Z M 157.54 140.94 L 157.50 141.96 C 157.46 142.89 158.19 143.68 159.13 143.71 C 160.07 143.75 160.85 143.02 160.89 142.08 L 160.92 141.06 C 160.96 140.13 160.23 139.34 159.29 139.30 C 158.36 139.27 157.57 140.00 157.54 140.94 Z M 157.50 141.96 L 157.46 142.94 C 157.43 143.88 158.17 144.66 159.10 144.70 C 160.04 144.73 160.83 143.99 160.86 143.05 L 160.89 142.08 C 160.92 141.14 160.19 140.35 159.25 140.32 C 158.31 140.29 157.53 141.03 157.50 141.96 Z M 157.46 142.93 L 157.42 143.94 C 157.38 144.88 158.11 145.67 159.05 145.71 C 159.99 145.75 160.78 145.02 160.82 144.08 L 160.86 143.07 C 160.90 142.13 160.17 141.33 159.23 141.30 C 158.29 141.26 157.50 141.99 157.46 142.93 Z M 157.42 143.91 L 157.36 144.90 C 157.31 145.84 158.03 146.65 158.96 146.70 C 159.90 146.75 160.71 146.04 160.76 145.10 L 160.82 144.11 C 160.87 143.17 160.16 142.36 159.22 142.31 C 158.28 142.25 157.47 142.97 157.42 143.91 Z M 157.36 144.88 L 157.29 145.87 C 157.23 146.81 157.93 147.62 158.87 147.69 C 159.81 147.76 160.63 147.05 160.69 146.11 L 160.76 145.12 C 160.83 144.18 160.12 143.37 159.18 143.30 C 158.24 143.23 157.43 143.94 157.36 144.88 Z M 157.29 145.87 L 157.22 146.89 C 157.15 147.83 157.85 148.65 158.79 148.72 C 159.73 148.79 160.55 148.08 160.62 147.14 L 160.69 146.12 C 160.76 145.18 160.06 144.36 159.12 144.29 C 158.18 144.22 157.36 144.93 157.29 145.87 Z M 157.21 146.90 L 157.15 147.86 C 157.08 148.80 157.79 149.62 158.73 149.68 C 159.67 149.75 160.49 149.04 160.55 148.10 L 160.62 147.14 C 160.68 146.20 159.98 145.38 159.04 145.32 C 158.10 145.25 157.28 145.96 157.21 146.90 Z M 157.15 147.87 L 157.08 148.87 C 157.02 149.81 157.73 150.62 158.67 150.69 C 159.61 150.75 160.42 150.04 160.48 149.10 L 160.55 148.09 C 160.61 147.15 159.90 146.34 158.96 146.28 C 158.02 146.22 157.21 146.93 157.15 147.87 Z M 157.08 148.88 L 157.01 149.90 C 156.95 150.84 157.67 151.65 158.61 151.72 C 159.55 151.78 160.36 151.06 160.42 150.12 L 160.48 149.09 C 160.55 148.15 159.83 147.34 158.89 147.28 C 157.95 147.22 157.14 147.93 157.08 148.88 Z M 157.01 149.90 L 156.95 150.90 C 156.89 151.84 157.60 152.65 158.54 152.71 C 159.48 152.77 160.29 152.06 160.35 151.12 L 160.42 150.12 C 160.48 149.18 159.76 148.37 158.82 148.31 C 157.88 148.25 157.07 148.96 157.01 149.90 Z M 156.95 150.90 L 156.88 151.90 C 156.82 152.84 157.53 153.65 158.47 153.72 C 159.41 153.78 160.22 153.07 160.29 152.13 L 160.35 151.12 C 160.42 150.18 159.70 149.37 158.77 149.31 C 157.83 149.25 157.01 149.96 156.95 150.90 Z M 156.89 151.89 L 156.81 152.89 C 156.75 153.83 157.45 154.65 158.39 154.71 C 159.33 154.78 160.14 154.08 160.21 153.14 L 160.28 152.14 C 160.35 151.20 159.65 150.38 158.71 150.32 C 157.77 150.25 156.95 150.95 156.89 151.89 Z M 156.82 152.88 L 156.73 153.89 C 156.66 154.83 157.36 155.65 158.29 155.72 C 159.23 155.80 160.05 155.10 160.13 154.17 L 160.21 153.15 C 160.29 152.22 159.59 151.40 158.65 151.32 C 157.71 151.24 156.89 151.94 156.82 152.88 Z M 156.74 153.87 L 156.65 154.86 C 156.56 155.80 157.25 156.63 158.19 156.71 C 159.12 156.80 159.95 156.11 160.03 155.17 L 160.12 154.18 C 160.21 153.25 159.52 152.42 158.58 152.33 C 157.65 152.25 156.82 152.94 156.74 153.87 Z M 156.65 154.85 L 156.55 155.83 C 156.46 156.76 157.14 157.60 158.07 157.69 C 159.01 157.78 159.84 157.10 159.93 156.17 L 160.03 155.19 C 160.13 154.25 159.44 153.42 158.51 153.33 C 157.58 153.23 156.74 153.91 156.65 154.85 Z M 156.55 155.82 L 156.45 156.82 C 156.35 157.75 157.02 158.59 157.95 158.69 C 158.89 158.79 159.72 158.11 159.82 157.18 L 159.93 156.18 C 160.03 155.25 159.36 154.41 158.42 154.31 C 157.49 154.21 156.65 154.89 156.55 155.82 Z M 156.45 156.81 L 156.34 157.81 C 156.24 158.74 156.91 159.58 157.84 159.68 C 158.77 159.78 159.61 159.11 159.71 158.18 L 159.82 157.19 C 159.92 156.25 159.25 155.42 158.32 155.31 C 157.39 155.21 156.55 155.88 156.45 156.81 Z M 156.34 157.81 L 156.24 158.81 C 156.14 159.74 156.81 160.57 157.74 160.67 C 158.67 160.77 159.50 160.10 159.60 159.17 L 159.71 158.17 C 159.81 157.24 159.14 156.41 158.21 156.31 C 157.28 156.21 156.44 156.88 156.34 157.81 Z M 156.24 158.82 L 156.14 159.82 C 156.04 160.75 156.72 161.58 157.65 161.67 C 158.58 161.77 159.41 161.09 159.50 160.16 L 159.60 159.16 C 159.69 158.23 159.02 157.40 158.09 157.30 C 157.16 157.21 156.33 157.89 156.24 158.82 Z M 156.14 159.83 L 156.04 160.82 C 155.95 161.74 156.63 162.57 157.56 162.66 C 158.49 162.75 159.31 162.07 159.40 161.14 L 159.50 160.15 C 159.59 159.23 158.91 158.40 157.98 158.31 C 157.05 158.22 156.23 158.90 156.14 159.83 Z M 156.05 160.82 L 155.95 161.82 C 155.86 162.75 156.54 163.57 157.46 163.66 C 158.39 163.75 159.21 163.07 159.30 162.14 L 159.40 161.14 C 159.49 160.22 158.81 159.39 157.88 159.30 C 156.96 159.21 156.13 159.89 156.05 160.82 Z M 155.95 161.82 L 155.85 162.83 C 155.76 163.75 156.44 164.57 157.36 164.66 C 158.29 164.76 159.11 164.08 159.20 163.16 L 159.30 162.14 C 159.39 161.22 158.71 160.40 157.79 160.31 C 156.87 160.22 156.04 160.89 155.95 161.82 Z M 155.86 162.82 L 155.76 163.80 C 155.67 164.72 156.34 165.54 157.26 165.64 C 158.18 165.73 159.00 165.06 159.10 164.14 L 159.20 163.16 C 159.29 162.24 158.62 161.42 157.70 161.32 C 156.77 161.23 155.95 161.90 155.86 162.82 Z M 155.76 163.79 L 155.66 164.80 C 155.56 165.72 156.22 166.54 157.14 166.64 C 158.06 166.74 158.89 166.07 158.99 165.15 L 159.09 164.14 C 159.19 163.23 158.52 162.40 157.61 162.30 C 156.69 162.20 155.86 162.87 155.76 163.79 Z M 155.66 164.80 L 155.55 165.78 C 155.45 166.70 156.12 167.52 157.04 167.62 C 157.95 167.72 158.78 167.06 158.88 166.14 L 158.98 165.15 C 159.08 164.24 158.42 163.41 157.50 163.31 C 156.58 163.22 155.76 163.88 155.66 164.80 Z M 155.56 165.79 L 155.46 166.77 C 155.37 167.68 156.03 168.50 156.95 168.59 C 157.86 168.68 158.68 168.02 158.77 167.10 L 158.87 166.13 C 158.97 165.21 158.30 164.40 157.38 164.30 C 156.47 164.21 155.65 164.88 155.56 165.79 Z M 155.46 166.78 L 155.37 167.77 C 155.29 168.68 155.96 169.49 156.87 169.57 C 157.78 169.66 158.59 168.99 158.68 168.07 L 158.77 167.09 C 158.85 166.17 158.18 165.37 157.27 165.28 C 156.36 165.20 155.55 165.87 155.46 166.78 Z M 155.38 167.77 L 155.29 168.78 C 155.20 169.69 155.87 170.49 156.78 170.58 C 157.69 170.66 158.49 169.99 158.58 169.08 L 158.67 168.07 C 158.75 167.16 158.09 166.36 157.18 166.27 C 156.27 166.19 155.46 166.86 155.38 167.77 Z M 155.29 168.77 L 155.20 169.79 C 155.11 170.69 155.77 171.50 156.68 171.58 C 157.58 171.67 158.38 171.01 158.47 170.10 L 158.57 169.09 C 158.66 168.19 157.99 167.38 157.09 167.29 C 156.18 167.21 155.38 167.87 155.29 168.77 Z M 155.20 169.79 L 155.11 170.79 C 155.02 171.69 155.68 172.49 156.59 172.57 C 157.49 172.66 158.29 172.00 158.37 171.10 L 158.46 170.10 C 158.55 169.20 157.89 168.40 156.99 168.31 C 156.09 168.23 155.29 168.89 155.20 169.79 Z M 155.12 170.82 L 155.02 172.04 C 154.95 172.94 155.62 173.72 156.52 173.79 C 157.41 173.86 158.20 173.19 158.27 172.30 L 158.36 171.07 C 158.43 170.17 157.76 169.39 156.86 169.32 C 155.97 169.25 155.19 169.92 155.12 170.82 Z M 155.06 172.39 L 155.12 172.85 C 155.25 173.73 156.05 174.34 156.93 174.22 C 157.81 174.09 158.42 173.29 158.29 172.41 L 158.23 171.95 C 158.11 171.07 157.30 170.46 156.42 170.58 C 155.55 170.71 154.94 171.52 155.06 172.39 Z M 158.18 173.09 L 158.43 172.28 C 158.69 171.47 158.24 170.61 157.43 170.35 C 156.62 170.09 155.75 170.54 155.50 171.35 L 155.24 172.17 C 154.99 172.98 155.44 173.84 156.25 174.10 C 157.06 174.35 157.92 173.90 158.18 173.09 Z M 158.38 172.19 L 158.62 171.27 C 158.82 170.49 158.36 169.69 157.58 169.48 C 156.80 169.28 156.00 169.75 155.79 170.53 L 155.55 171.45 C 155.35 172.23 155.82 173.02 156.60 173.23 C 157.38 173.43 158.17 172.97 158.38 172.19 Z"
      fill="black"
      fill-rule="nonzero" /><path d="M 159.17 161.69 L 160.04 161.97 C 160.86 162.23 161.74 161.78 162.00 160.96 C 162.27 160.14 161.82 159.26 161.00 159.00 L 160.12 158.72 C 159.30 158.45 158.43 158.90 158.16 159.72 C 157.90 160.54 158.35 161.42 159.17 161.69 Z M 159.91 161.98 L 160.84 162.36 C 161.67 162.70 162.62 162.30 162.96 161.47 C 163.29 160.64 162.89 159.69 162.06 159.36 L 161.13 158.98 C 160.30 158.64 159.35 159.04 159.02 159.87 C 158.68 160.70 159.08 161.65 159.91 161.98 Z M 160.66 162.33 L 161.60 162.83 C 162.42 163.27 163.43 162.96 163.86 162.15 C 164.30 161.33 163.99 160.32 163.18 159.89 L 162.24 159.39 C 161.43 158.95 160.41 159.26 159.98 160.07 C 159.54 160.88 159.85 161.90 160.66 162.33 Z M 161.48 162.79 L 162.36 163.34 C 163.15 163.84 164.19 163.61 164.69 162.82 C 165.19 162.03 164.96 160.99 164.17 160.49 L 163.30 159.93 C 162.51 159.43 161.46 159.67 160.96 160.45 C 160.46 161.24 160.70 162.29 161.48 162.79 Z M 162.30 163.31 L 163.15 163.89 C 163.91 164.42 164.97 164.23 165.50 163.47 C 166.03 162.70 165.84 161.64 165.07 161.11 L 164.23 160.53 C 163.46 159.99 162.41 160.19 161.87 160.95 C 161.34 161.72 161.53 162.77 162.30 163.31 Z M 163.11 163.87 L 163.93 164.47 C 164.69 165.02 165.75 164.85 166.30 164.10 C 166.85 163.34 166.68 162.29 165.93 161.73 L 165.11 161.14 C 164.35 160.58 163.29 160.75 162.74 161.50 C 162.19 162.26 162.36 163.32 163.11 163.87 Z M 163.90 164.44 L 164.74 165.08 C 165.48 165.65 166.54 165.51 167.10 164.76 C 167.67 164.02 167.53 162.96 166.79 162.40 L 165.96 161.76 C 165.22 161.19 164.16 161.33 163.59 162.08 C 163.02 162.82 163.16 163.88 163.90 164.44 Z M 164.70 165.04 L 165.38 165.60 C 166.10 166.18 167.16 166.08 167.75 165.35 C 168.34 164.63 168.23 163.57 167.51 162.99 L 166.83 162.43 C 166.10 161.85 165.04 161.96 164.46 162.68 C 163.87 163.40 163.98 164.46 164.70 165.04 Z M 165.36 165.58 L 166.12 166.22 C 166.83 166.82 167.89 166.73 168.49 166.02 C 169.09 165.31 169.00 164.25 168.29 163.65 L 167.53 163.01 C 166.82 162.41 165.76 162.50 165.16 163.21 C 164.56 163.92 164.65 164.98 165.36 165.58 Z M 166.11 166.21 L 166.87 166.86 C 167.57 167.46 168.63 167.38 169.24 166.68 C 169.84 165.98 169.76 164.92 169.06 164.31 L 168.30 163.66 C 167.60 163.06 166.54 163.14 165.93 163.84 C 165.33 164.54 165.41 165.60 166.11 166.21 Z M 166.87 166.85 L 167.63 167.51 C 168.33 168.11 169.39 168.03 169.99 167.33 C 170.59 166.63 170.51 165.57 169.81 164.97 L 169.06 164.32 C 168.36 163.72 167.30 163.80 166.70 164.50 C 166.10 165.19 166.17 166.25 166.87 166.85 Z M 167.64 167.50 L 168.41 168.16 C 169.10 168.76 170.15 168.68 170.75 167.98 C 171.35 167.29 171.27 166.24 170.58 165.64 L 169.81 164.98 C 169.11 164.38 168.06 164.46 167.46 165.15 C 166.86 165.85 166.94 166.90 167.64 167.50 Z M 168.41 168.14 L 169.16 168.80 C 169.85 169.40 170.89 169.33 171.49 168.64 C 172.09 167.96 172.02 166.91 171.33 166.31 L 170.58 165.66 C 169.89 165.06 168.85 165.13 168.25 165.81 C 167.65 166.50 167.72 167.54 168.41 168.14 Z M 169.14 168.77 L 169.83 169.40 C 170.50 170.01 171.54 169.97 172.15 169.30 C 172.76 168.63 172.71 167.59 172.05 166.98 L 171.35 166.35 C 170.68 165.74 169.65 165.78 169.03 166.45 C 168.42 167.12 168.47 168.16 169.14 168.77 Z M 169.81 169.37 L 170.55 170.08 C 171.20 170.71 172.23 170.69 172.86 170.04 C 173.48 169.39 173.46 168.36 172.81 167.73 L 172.07 167.02 C 171.42 166.39 170.39 166.41 169.76 167.06 C 169.14 167.71 169.16 168.74 169.81 169.37 Z M 170.54 170.06 L 171.23 170.75 C 171.87 171.38 172.90 171.38 173.53 170.74 C 174.17 170.10 174.16 169.07 173.52 168.44 L 172.83 167.75 C 172.19 167.12 171.16 167.12 170.52 167.76 C 169.89 168.40 169.90 169.43 170.54 170.06 Z M 171.22 170.73 L 171.94 171.46 C 172.57 172.10 173.60 172.11 174.24 171.48 C 174.87 170.86 174.88 169.83 174.25 169.19 L 173.53 168.46 C 172.90 167.82 171.88 167.81 171.24 168.44 C 170.60 169.06 170.59 170.09 171.22 170.73 Z M 171.92 171.43 L 172.64 172.20 C 173.25 172.85 174.27 172.88 174.92 172.27 C 175.57 171.66 175.61 170.64 175.00 169.99 L 174.28 169.22 C 173.67 168.57 172.64 168.54 171.99 169.15 C 171.34 169.76 171.31 170.78 171.92 171.43 Z M 172.61 172.14 L 173.29 172.93 C 173.87 173.59 174.88 173.67 175.55 173.09 C 176.21 172.51 176.28 171.50 175.71 170.83 L 175.02 170.05 C 174.45 169.38 173.44 169.31 172.77 169.89 C 172.10 170.47 172.03 171.48 172.61 172.14 Z M 173.26 172.85 L 173.83 173.58 C 174.37 174.27 175.36 174.39 176.04 173.85 C 176.73 173.31 176.85 172.32 176.31 171.64 L 175.74 170.91 C 175.20 170.22 174.21 170.10 173.53 170.64 C 172.84 171.18 172.72 172.17 173.26 172.85 Z M 173.80 173.48 L 174.38 174.33 C 174.86 175.03 175.82 175.21 176.53 174.73 C 177.23 174.25 177.41 173.29 176.92 172.59 L 176.34 171.74 C 175.86 171.04 174.90 170.86 174.20 171.34 C 173.50 171.82 173.32 172.78 173.80 173.48 Z M 174.38 174.26 L 174.73 174.81 C 175.17 175.52 176.10 175.73 176.80 175.28 C 177.51 174.84 177.72 173.91 177.27 173.21 L 176.93 172.66 C 176.48 171.95 175.55 171.74 174.85 172.19 C 174.15 172.63 173.94 173.56 174.38 174.26 Z"
      fill="black"
      fill-rule="nonzero" /></svg>