<svg xmlns="http://www.w3.org/2000/svg" width="300" height="300" viewBox="0 0 300 300">
<path d="M 128.48 139.11 L 129.45 139.11 C 130.31 139.11 131.00 138.42 131.00 137.57 C 131.00 136.72 130.31 136.03 129.45 136.03 L 128.48 136.03 C 127.63 136.03 126.94 136.72 126.94 137.57 C 126.94 138.42 127.63 139.11 128.48 139.11 Z M 129.45 139.15 L 130.44 139.15 C 131.32 139.15 132.02 138.44 132.02 137.57 C 132.02 136.70 131.32 135.99 130.44 135.99 L 129.45 135.99 C 128.58 135.99 127.87 136.70 127.87 137.57 C 127.87 138.44 128.58 139.15 129.45 139.15 Z M 130.44 139.16 L 131.42 139.16 C 132.30 139.16 133.01 138.45 133.01 137.57 C 133.01 136.69 132.30 135.98 131.42 135.98 L 130.44 135.98 C 129.57 135.98 128.86 136.69 128.86 137.57 C 128.86 138.45 129.57 139.16 130.44 139.16 Z M 131.42 139.15 L 132.46 139.15 C 133.33 139.15 134.03 138.44 134.03 137.57 C 134.03 136.70 133.33 135.99 132.46 135.99 L 131.42 135.99 C 130.55 135.99 129.84 136.70 129.84 137.57 C 129.84 138.44 130.55 139.15 131.42 139.15 Z M 132.46 139.14 L 133.44 139.14 C 134.31 139.14 135.01 138.43 135.01 137.57 C 135.01 136.70 134.31 136.00 133.44 136.00 L 132.46 136.00 C 131.59 136.00 130.89 136.70 130.89 137.57 C 130.89 138.43 131.59 139.14 132.46 139.14 Z M 133.44 139.13 L 134.47 139.13 C 135.33 139.13 136.03 138.43 136.03 137.57 C 136.03 136.71 135.33 136.01 134.47 136.01 L 133.44 136.01 C 132.58 136.01 131.88 136.71 131.88 137.57 C 131.88 138.43 132.58 139.13 133.44 139.13 Z M 134.47 139.12 L 135.48 139.12 C 136.34 139.12 137.03 138.43 137.03 137.57 C 137.03 136.71 136.34 136.01 135.48 136.01 L 134.47 136.01 C 133.61 136.01 132.92 136.71 132.92 137.57 C 132.92 138.43 133.61 139.12 134.47 139.12 Z M 135.48 139.11 L 136.48 139.11 C 137.34 139.11 138.03 138.42 138.03 137.57 C 138.03 136.71 137.34 136.02 136.48 136.02 L 135.48 136.02 C 134.63 136.02 133.94 136.71 133.94 137.57 C 133.94 138.42 134.63 139.11 135.48 139.11 Z M 136.48 139.11 L 137.49 139.11 C 138.34 139.11 139.03 138.42 139.03 137.57 C 139.03 136.72 138.34 136.03 137.49 136.03 L 136.48 136.03 C 135.63 136.03 134.94 136.72 134.94 137.57 C 134.94 138.42 135.63 139.11 136.48 139.11 Z M 137.49 139.10 L 138.50 139.10 C 139.35 139.10 140.03 138.41 140.03 137.57 C 140.03 136.72 139.35 136.04 138.50 136.04 L 137.49 136.04 C 136.64 136.04 135.96 136.72 135.96 137.57 C 135.96 138.41 136.64 139.10 137.49 139.10 Z M 138.50 139.09 L 139.49 139.09 C 140.33 139.09 141.01 138.41 141.01 137.57 C 141.01 136.73 140.33 136.05 139.49 136.05 L 138.50 136.05 C 137.66 136.05 136.98 136.73 136.98 137.57 C 136.98 138.41 137.66 139.09 138.50 139.09 Z M 139.49 139.08 L 140.47 139.08 C 141.30 139.08 141.98 138.40 141.98 137.57 C 141.98 136.73 141.30 136.06 140.47 136.06 L 139.49 136.06 C 138.65 136.06 137.98 136.73 137.98 137.57 C 137.98 138.40 138.65 139.08 139.49 139.08 Z M 140.47 139.07 L 141.46 139.07 C 142.29 139.07 142.96 138.40 142.96 137.57 C 142.96 136.74 142.29 136.07 141.46 136.07 L 140.47 136.07 C 139.64 136.07 138.97 136.74 138.97 137.57 C 138.97 138.40 139.64 139.07 140.47 139.07 Z M 141.46 139.06 L 142.49 139.06 C 143.31 139.06 143.98 138.39 143.98 137.57 C 143.98 136.74 143.31 136.08 142.49 136.08 L 141.46 136.08 C 140.63 136.08 139.97 136.74 139.97 137.57 C 139.97 138.39 140.63 139.06 141.46 139.06 Z M 142.50 139.05 L 143.54 139.04 C 144.36 139.03 145.02 138.36 145.01 137.54 C 145.00 136.73 144.33 136.07 143.51 136.08 L 142.47 136.09 C 141.66 136.09 141.00 136.76 141.01 137.58 C 141.01 138.40 141.68 139.06 142.50 139.05 Z M 143.59 139.03 L 144.55 138.99 C 145.37 138.96 146.00 138.27 145.96 137.46 C 145.93 136.65 145.25 136.01 144.43 136.05 L 143.47 136.09 C 142.65 136.12 142.02 136.81 142.06 137.62 C 142.09 138.43 142.77 139.06 143.59 139.03 Z M 144.67 138.97 L 145.72 138.84 C 146.52 138.74 147.09 138.01 147.00 137.21 C 146.90 136.41 146.17 135.84 145.37 135.94 L 144.32 136.07 C 143.52 136.17 142.95 136.90 143.04 137.70 C 143.14 138.50 143.87 139.06 144.67 138.97 Z M 145.84 138.80 L 146.63 138.64 C 147.41 138.47 147.91 137.71 147.75 136.93 C 147.58 136.15 146.82 135.65 146.04 135.81 L 145.25 135.98 C 144.47 136.14 143.97 136.91 144.14 137.69 C 144.30 138.46 145.06 138.96 145.84 138.80 Z"
      fill="black"
      fill-rule="nonzero" /><path d="M 136.02 132.02 L 135.98 132.97 C 135.95 133.83 136.63 134.55 137.49 134.58 C 138.35 134.61 139.07 133.94 139.10 133.08 L 139.13 132.13 C 139.16 131.27 138.49 130.55 137.63 130.52 C 136.77 130.49 136.05 131.16 136.02 132.02 Z M 135.95 132.98 L 135.92 134.01 C 135.90 134.89 136.60 135.62 137.48 135.65 C 138.36 135.67 139.09 134.97 139.11 134.09 L 139.14 133.06 C 139.16 132.18 138.46 131.45 137.58 131.43 C 136.70 131.41 135.97 132.10 135.95 132.98 Z M 135.90 134.03 L 135.89 135.04 C 135.88 135.94 136.59 136.67 137.49 136.68 C 138.38 136.69 139.11 135.97 139.12 135.08 L 139.13 134.07 C 139.14 133.18 138.43 132.45 137.54 132.44 C 136.64 132.43 135.91 133.14 135.90 134.03 Z M 135.89 135.06 L 135.88 136.08 C 135.88 136.97 136.60 137.70 137.49 137.71 C 138.39 137.71 139.12 136.99 139.12 136.09 L 139.12 135.07 C 139.13 134.18 138.40 133.45 137.51 133.45 C 136.62 133.44 135.89 134.16 135.89 135.06 Z M 135.88 136.09 L 135.88 137.09 C 135.88 137.99 136.61 138.71 137.50 138.71 C 138.39 138.71 139.12 137.99 139.12 137.10 L 139.12 136.09 C 139.12 135.19 138.40 134.47 137.50 134.47 C 136.61 134.47 135.88 135.19 135.88 136.09 Z M 135.88 137.09 L 135.88 138.12 C 135.88 139.01 136.61 139.74 137.50 139.74 C 138.39 139.74 139.12 139.01 139.12 138.12 L 139.12 137.09 C 139.12 136.20 138.39 135.48 137.50 135.48 C 136.61 135.48 135.88 136.20 135.88 137.09 Z M 135.88 138.12 L 135.88 139.08 C 135.88 139.97 136.61 140.69 137.50 140.69 C 138.39 140.69 139.12 139.97 139.12 139.08 L 139.12 138.12 C 139.12 137.23 138.39 136.50 137.50 136.50 C 136.61 136.50 135.88 137.23 135.88 138.12 Z M 135.88 139.08 L 135.88 140.06 C 135.88 140.96 136.61 141.68 137.50 141.68 C 138.39 141.68 139.12 140.96 139.12 140.06 L 139.12 139.08 C 139.12 138.18 138.39 137.46 137.50 137.46 C 136.61 137.46 135.88 138.18 135.88 139.08 Z M 135.89 140.06 L 135.89 141.07 C 135.89 141.96 136.61 142.68 137.50 142.68 C 138.39 142.68 139.11 141.96 139.11 141.07 L 139.11 140.06 C 139.11 139.17 138.39 138.45 137.50 138.45 C 136.61 138.45 135.89 139.17 135.89 140.06 Z M 135.89 141.07 L 135.89 142.07 C 135.89 142.96 136.61 143.68 137.50 143.68 C 138.39 143.68 139.11 142.96 139.11 142.07 L 139.11 141.07 C 139.11 140.18 138.39 139.46 137.50 139.46 C 136.61 139.46 135.89 140.18 135.89 141.07 Z M 135.89 142.07 L 135.89 143.07 C 135.89 143.96 136.61 144.68 137.50 144.68 C 138.39 144.68 139.11 143.96 139.11 143.07 L 139.11 142.07 C 139.11 141.18 138.39 140.46 137.50 140.46 C 136.61 140.46 135.89 141.18 135.89 142.07 Z M 135.89 143.07 L 135.89 144.07 C 135.89 144.96 136.61 145.67 137.50 145.67 C 138.39 145.67 139.11 144.96 139.11 144.07 L 139.11 143.07 C 139.11 142.18 138.39 141.46 137.50 141.46 C 136.61 141.46 135.89 142.18 135.89 143.07 Z M 135.90 144.07 L 135.90 145.07 C 135.90 145.95 136.62 146.67 137.50 146.67 C 138.39 146.67 139.10 145.95 139.10 145.07 L 139.10 144.07 C 139.10 143.18 138.39 142.47 137.50 142.47 C 136.62 142.47 135.90 143.18 135.90 144.07 Z M 135.90 145.07 L 135.90 146.07 C 135.90 146.96 136.62 147.67 137.50 147.67 C 138.38 147.67 139.10 146.96 139.10 146.07 L 139.10 145.07 C 139.10 144.18 138.38 143.47 137.50 143.47 C 136.62 143.47 135.90 144.18 135.90 145.07 Z M 135.90 146.07 L 135.90 147.07 C 135.90 147.95 136.61 148.66 137.49 148.67 C 138.37 148.67 139.09 147.96 139.09 147.08 L 139.10 146.08 C 139.10 145.20 138.39 144.48 137.51 144.48 C 136.62 144.47 135.91 145.19 135.90 146.07 Z M 135.90 147.05 L 135.89 148.05 C 135.88 148.93 136.58 149.65 137.46 149.67 C 138.34 149.68 139.06 148.98 139.08 148.10 L 139.09 147.09 C 139.10 146.21 138.40 145.49 137.52 145.48 C 136.64 145.46 135.92 146.17 135.90 147.05 Z M 135.89 148.02 L 135.86 149.01 C 135.83 149.89 136.52 150.63 137.40 150.66 C 138.27 150.69 139.01 150.00 139.04 149.12 L 139.07 148.13 C 139.10 147.25 138.41 146.52 137.54 146.49 C 136.66 146.46 135.92 147.14 135.89 148.02 Z M 135.87 148.99 L 135.82 149.99 C 135.78 150.86 136.45 151.61 137.32 151.65 C 138.20 151.69 138.94 151.02 138.98 150.14 L 139.03 149.14 C 139.07 148.27 138.40 147.53 137.52 147.48 C 136.65 147.44 135.91 148.12 135.87 148.99 Z M 135.82 149.98 L 135.77 151.00 C 135.72 151.87 136.39 152.61 137.26 152.66 C 138.13 152.71 138.88 152.04 138.92 151.17 L 138.98 150.15 C 139.03 149.28 138.36 148.54 137.49 148.49 C 136.61 148.44 135.87 149.11 135.82 149.98 Z M 135.77 151.00 L 135.72 152.01 C 135.67 152.88 136.33 153.62 137.20 153.67 C 138.07 153.72 138.82 153.05 138.86 152.18 L 138.92 151.17 C 138.97 150.30 138.30 149.56 137.43 149.51 C 136.56 149.46 135.82 150.13 135.77 151.00 Z M 135.72 152.01 L 135.67 152.99 C 135.62 153.85 136.28 154.60 137.14 154.65 C 138.01 154.69 138.75 154.03 138.80 153.17 L 138.86 152.19 C 138.91 151.32 138.25 150.58 137.38 150.53 C 136.51 150.48 135.77 151.14 135.72 152.01 Z M 135.67 152.98 L 135.61 154.02 C 135.55 154.88 136.21 155.62 137.08 155.68 C 137.94 155.73 138.68 155.07 138.74 154.21 L 138.80 153.17 C 138.85 152.31 138.19 151.57 137.33 151.51 C 136.47 151.46 135.72 152.12 135.67 152.98 Z M 135.61 154.01 L 135.55 154.96 C 135.49 155.83 136.14 156.57 137.00 156.63 C 137.86 156.69 138.61 156.03 138.67 155.17 L 138.73 154.22 C 138.79 153.35 138.14 152.61 137.28 152.55 C 136.41 152.49 135.67 153.14 135.61 154.01 Z M 135.55 154.95 L 135.47 155.97 C 135.41 156.83 136.06 157.58 136.92 157.65 C 137.78 157.71 138.53 157.06 138.59 156.20 L 138.66 155.18 C 138.73 154.32 138.08 153.57 137.22 153.51 C 136.36 153.45 135.61 154.09 135.55 154.95 Z M 135.48 155.97 L 135.40 156.92 C 135.34 157.78 135.98 158.53 136.83 158.60 C 137.69 158.67 138.44 158.03 138.51 157.17 L 138.59 156.21 C 138.65 155.35 138.01 154.60 137.15 154.54 C 136.30 154.47 135.55 155.11 135.48 155.97 Z M 135.41 156.92 L 135.33 157.89 C 135.26 158.75 135.90 159.50 136.75 159.57 C 137.61 159.63 138.36 159.00 138.43 158.14 L 138.51 157.17 C 138.58 156.32 137.94 155.57 137.08 155.50 C 136.23 155.43 135.48 156.06 135.41 156.92 Z M 135.33 157.89 L 135.23 159.12 C 135.16 159.97 135.79 160.72 136.65 160.79 C 137.50 160.86 138.25 160.23 138.32 159.37 L 138.42 158.14 C 138.49 157.29 137.86 156.54 137.01 156.47 C 136.15 156.40 135.40 157.03 135.33 157.89 Z M 135.24 159.04 L 135.15 159.77 C 135.04 160.61 135.63 161.39 136.48 161.50 C 137.32 161.61 138.10 161.02 138.21 160.17 L 138.31 159.45 C 138.42 158.60 137.82 157.83 136.98 157.71 C 136.13 157.60 135.36 158.20 135.24 159.04 Z M 138.19 159.91 L 138.16 159.14 C 138.13 158.30 137.43 157.65 136.60 157.68 C 135.76 157.72 135.11 158.42 135.14 159.25 L 135.17 160.03 C 135.20 160.86 135.90 161.51 136.74 161.48 C 137.57 161.45 138.22 160.75 138.19 159.91 Z M 138.12 159.19 L 138.12 158.29 C 138.11 157.48 137.46 156.82 136.65 156.83 C 135.84 156.83 135.18 157.48 135.18 158.29 L 135.18 159.20 C 135.19 160.01 135.84 160.66 136.65 160.66 C 137.46 160.66 138.12 160.00 138.12 159.19 Z"
      fill="black"
      fill-rule="nonzero" /><path d="M 135.17 142.74 L 134.33 143.24 C 133.57 143.69 133.33 144.66 133.78 145.42 C 134.23 146.17 135.20 146.42 135.96 145.97 L 136.80 145.47 C 137.55 145.02 137.80 144.05 137.35 143.29 C 136.90 142.54 135.93 142.29 135.17 142.74 Z M 134.16 143.33 L 133.36 143.94 C 132.65 144.48 132.52 145.50 133.06 146.20 C 133.61 146.91 134.62 147.04 135.33 146.50 L 136.13 145.89 C 136.83 145.34 136.97 144.33 136.42 143.62 C 135.88 142.91 134.87 142.78 134.16 143.33 Z M 133.13 144.14 L 132.45 144.90 C 131.85 145.57 131.91 146.60 132.58 147.20 C 133.25 147.80 134.28 147.74 134.88 147.06 L 135.56 146.30 C 136.16 145.63 136.10 144.60 135.43 144.00 C 134.75 143.41 133.73 143.47 133.13 144.14 Z M 132.34 145.05 L 131.76 145.88 C 131.24 146.62 131.42 147.63 132.15 148.14 C 132.89 148.65 133.90 148.48 134.41 147.74 L 134.99 146.91 C 135.51 146.18 135.33 145.17 134.59 144.66 C 133.86 144.14 132.85 144.32 132.34 145.05 Z M 131.74 145.93 L 131.17 146.79 C 130.69 147.53 130.90 148.53 131.64 149.02 C 132.38 149.50 133.38 149.30 133.87 148.55 L 134.43 147.70 C 134.92 146.95 134.71 145.95 133.97 145.47 C 133.22 144.98 132.22 145.19 131.74 145.93 Z M 131.19 146.79 L 130.66 147.59 C 130.18 148.32 130.38 149.31 131.11 149.80 C 131.85 150.29 132.84 150.09 133.33 149.35 L 133.85 148.55 C 134.34 147.81 134.14 146.82 133.40 146.34 C 132.67 145.85 131.68 146.05 131.19 146.79 Z M 130.67 147.61 L 130.14 148.42 C 129.66 149.16 129.87 150.14 130.60 150.61 C 131.33 151.09 132.31 150.88 132.79 150.15 L 133.32 149.33 C 133.80 148.60 133.59 147.62 132.86 147.14 C 132.12 146.67 131.14 146.87 130.67 147.61 Z M 130.15 148.42 L 129.60 149.26 C 129.12 149.99 129.32 150.96 130.04 151.44 C 130.76 151.92 131.74 151.72 132.22 151.00 L 132.77 150.15 C 133.25 149.43 133.05 148.45 132.33 147.98 C 131.60 147.50 130.63 147.70 130.15 148.42 Z M 129.62 149.24 L 129.06 150.06 C 128.57 150.77 128.75 151.74 129.46 152.23 C 130.17 152.72 131.14 152.54 131.63 151.83 L 132.19 151.02 C 132.68 150.31 132.50 149.34 131.79 148.85 C 131.08 148.36 130.11 148.54 129.62 149.24 Z M 129.07 150.07 L 128.50 150.90 C 128.01 151.60 128.19 152.57 128.89 153.05 C 129.60 153.53 130.56 153.36 131.04 152.65 L 131.62 151.82 C 132.10 151.12 131.92 150.16 131.22 149.67 C 130.52 149.19 129.55 149.37 129.07 150.07 Z M 128.50 150.92 L 127.94 151.76 C 127.46 152.46 127.65 153.41 128.35 153.88 C 129.05 154.35 130.00 154.17 130.47 153.47 L 131.04 152.63 C 131.51 151.93 131.33 150.98 130.63 150.51 C 129.92 150.04 128.97 150.22 128.50 150.92 Z M 127.95 151.76 L 127.46 152.49 C 126.98 153.18 127.16 154.12 127.85 154.59 C 128.54 155.07 129.49 154.89 129.96 154.20 L 130.46 153.47 C 130.93 152.78 130.75 151.83 130.06 151.36 C 129.37 150.89 128.43 151.07 127.95 151.76 Z M 127.48 152.48 L 126.94 153.25 C 126.46 153.93 126.62 154.86 127.30 155.34 C 127.98 155.82 128.92 155.66 129.40 154.98 L 129.94 154.21 C 130.41 153.53 130.25 152.59 129.57 152.11 C 128.89 151.64 127.96 151.80 127.48 152.48 Z M 126.95 153.24 L 126.32 154.13 C 125.84 154.80 125.99 155.73 126.67 156.21 C 127.34 156.69 128.27 156.54 128.75 155.86 L 129.38 154.98 C 129.86 154.31 129.71 153.38 129.04 152.90 C 128.36 152.42 127.43 152.57 126.95 153.24 Z M 126.33 154.13 L 125.81 154.85 C 125.33 155.52 125.48 156.45 126.15 156.93 C 126.81 157.41 127.74 157.25 128.22 156.59 L 128.74 155.86 C 129.22 155.20 129.07 154.27 128.40 153.79 C 127.74 153.31 126.81 153.46 126.33 154.13 Z M 125.81 154.85 L 125.22 155.67 C 124.74 156.33 124.89 157.26 125.56 157.74 C 126.22 158.22 127.15 158.07 127.63 157.40 L 128.22 156.58 C 128.70 155.92 128.55 154.99 127.88 154.52 C 127.22 154.04 126.29 154.19 125.81 154.85 Z M 125.23 155.67 L 124.59 156.55 C 124.11 157.22 124.26 158.14 124.93 158.62 C 125.59 159.09 126.51 158.94 126.99 158.28 L 127.62 157.40 C 128.10 156.74 127.95 155.81 127.29 155.34 C 126.63 154.86 125.70 155.01 125.23 155.67 Z M 124.60 156.56 L 124.06 157.30 C 123.58 157.96 123.73 158.89 124.39 159.36 C 125.05 159.84 125.97 159.69 126.45 159.03 L 126.99 158.28 C 127.46 157.62 127.31 156.70 126.65 156.22 C 125.99 155.75 125.07 155.89 124.60 156.56 Z"
      fill="black"
      fill-rule="nonzero" /><path d="M 138.22 149.27 L 139.23 149.28 C 140.04 149.28 140.71 148.62 140.71 147.80 C 140.71 146.99 140.05 146.32 139.24 146.32 L 138.23 146.31 C 137.41 146.31 136.75 146.97 136.75 147.79 C 136.74 148.61 137.40 149.27 138.22 149.27 Z M 139.20 149.30 L 140.19 149.32 C 141.02 149.34 141.71 148.69 141.73 147.86 C 141.75 147.03 141.09 146.34 140.26 146.32 L 139.27 146.30 C 138.44 146.28 137.75 146.93 137.73 147.76 C 137.71 148.59 138.37 149.28 139.20 149.30 Z M 140.05 149.34 L 141.04 149.46 C 141.88 149.56 142.64 148.96 142.74 148.12 C 142.84 147.28 142.24 146.52 141.40 146.42 L 140.41 146.30 C 139.57 146.20 138.81 146.80 138.71 147.64 C 138.61 148.48 139.21 149.24 140.05 149.34 Z M 140.72 149.41 L 141.62 149.72 C 142.44 149.99 143.32 149.55 143.59 148.74 C 143.87 147.93 143.43 147.04 142.62 146.77 L 141.71 146.47 C 140.90 146.19 140.02 146.63 139.74 147.44 C 139.47 148.26 139.91 149.14 140.72 149.41 Z M 141.36 149.61 L 142.25 150.11 C 143.01 150.53 143.96 150.26 144.38 149.50 C 144.80 148.75 144.53 147.79 143.78 147.37 L 142.88 146.88 C 142.12 146.45 141.17 146.73 140.75 147.48 C 140.33 148.24 140.60 149.19 141.36 149.61 Z M 142.12 150.03 L 142.93 150.59 C 143.64 151.08 144.62 150.90 145.11 150.19 C 145.60 149.47 145.42 148.50 144.71 148.01 L 143.90 147.45 C 143.19 146.96 142.22 147.14 141.72 147.85 C 141.23 148.57 141.41 149.54 142.12 150.03 Z M 142.90 150.56 L 143.75 151.17 C 144.44 151.68 145.42 151.53 145.93 150.83 C 146.43 150.14 146.28 149.16 145.58 148.65 L 144.74 148.04 C 144.04 147.53 143.07 147.68 142.56 148.38 C 142.05 149.07 142.21 150.05 142.90 150.56 Z M 143.78 151.17 L 144.62 151.76 C 145.31 152.25 146.27 152.09 146.76 151.40 C 147.25 150.70 147.09 149.74 146.39 149.25 L 145.55 148.66 C 144.86 148.17 143.90 148.33 143.41 149.03 C 142.92 149.72 143.08 150.68 143.78 151.17 Z M 144.70 151.78 L 145.52 152.30 C 146.21 152.74 147.14 152.54 147.59 151.84 C 148.04 151.14 147.83 150.21 147.13 149.76 L 146.31 149.24 C 145.61 148.80 144.69 149.00 144.24 149.70 C 143.79 150.40 144.00 151.33 144.70 151.78 Z M 145.65 152.34 L 146.56 152.81 C 147.28 153.18 148.17 152.90 148.54 152.18 C 148.91 151.46 148.63 150.57 147.91 150.20 L 147.00 149.73 C 146.28 149.35 145.39 149.64 145.02 150.36 C 144.65 151.08 144.93 151.96 145.65 152.34 Z M 146.66 152.82 L 147.41 153.15 C 148.14 153.46 148.99 153.13 149.31 152.40 C 149.62 151.67 149.29 150.83 148.56 150.51 L 147.81 150.18 C 147.08 149.87 146.23 150.20 145.92 150.93 C 145.60 151.66 145.93 152.50 146.66 152.82 Z"
      fill="black"
      fill-rule="nonzero" /><path d="M 154.27 128.49 L 153.79 129.38 C 153.36 130.17 153.66 131.15 154.45 131.57 C 155.24 131.99 156.22 131.70 156.64 130.91 L 157.12 130.01 C 157.54 129.23 157.25 128.24 156.46 127.82 C 155.67 127.40 154.69 127.70 154.27 128.49 Z M 153.79 129.37 L 153.31 130.25 C 152.88 131.04 153.18 132.03 153.97 132.45 C 154.76 132.88 155.74 132.59 156.17 131.80 L 156.64 130.91 C 157.07 130.12 156.78 129.14 155.99 128.71 C 155.20 128.29 154.21 128.58 153.79 129.37 Z M 153.31 130.24 L 152.84 131.10 C 152.41 131.88 152.70 132.87 153.49 133.31 C 154.27 133.74 155.26 133.45 155.70 132.66 L 156.17 131.81 C 156.60 131.02 156.31 130.03 155.52 129.60 C 154.73 129.17 153.74 129.45 153.31 130.24 Z M 152.86 131.08 L 152.40 131.89 C 151.97 132.67 152.24 133.66 153.02 134.10 C 153.80 134.53 154.79 134.26 155.23 133.48 L 155.68 132.67 C 156.12 131.90 155.84 130.91 155.07 130.47 C 154.29 130.03 153.30 130.30 152.86 131.08 Z M 152.43 131.88 L 151.94 132.73 C 151.49 133.49 151.75 134.47 152.51 134.92 C 153.27 135.36 154.25 135.11 154.70 134.34 L 155.20 133.49 C 155.64 132.73 155.39 131.75 154.62 131.30 C 153.86 130.86 152.88 131.11 152.43 131.88 Z M 151.96 132.72 L 151.40 133.65 C 150.95 134.40 151.19 135.37 151.93 135.82 C 152.68 136.28 153.65 136.04 154.11 135.29 L 154.67 134.35 C 155.12 133.61 154.89 132.63 154.14 132.18 C 153.39 131.73 152.42 131.97 151.96 132.72 Z M 151.42 133.64 L 150.91 134.47 C 150.45 135.20 150.68 136.17 151.41 136.63 C 152.15 137.09 153.11 136.86 153.57 136.12 L 154.08 135.30 C 154.54 134.56 154.32 133.59 153.58 133.14 C 152.84 132.68 151.88 132.91 151.42 133.64 Z M 150.92 134.47 L 150.37 135.34 C 149.91 136.06 150.13 137.02 150.86 137.48 C 151.58 137.94 152.54 137.72 153.00 137.00 L 153.55 136.13 C 154.01 135.40 153.80 134.44 153.07 133.98 C 152.34 133.52 151.38 133.74 150.92 134.47 Z M 150.39 135.34 L 149.83 136.20 C 149.37 136.92 149.58 137.87 150.30 138.33 C 151.02 138.79 151.97 138.58 152.43 137.86 L 152.99 137.00 C 153.45 136.28 153.24 135.33 152.52 134.87 C 151.80 134.41 150.85 134.62 150.39 135.34 Z M 149.85 136.20 L 149.30 137.05 C 148.84 137.76 149.04 138.70 149.75 139.16 C 150.45 139.62 151.40 139.42 151.86 138.72 L 152.42 137.87 C 152.88 137.16 152.68 136.21 151.97 135.75 C 151.26 135.29 150.31 135.49 149.85 136.20 Z M 149.33 137.05 L 148.71 137.98 C 148.25 138.67 148.44 139.61 149.13 140.07 C 149.82 140.53 150.76 140.34 151.22 139.64 L 151.84 138.72 C 152.30 138.02 152.11 137.09 151.41 136.63 C 150.72 136.17 149.79 136.36 149.33 137.05 Z M 148.74 137.99 L 148.20 138.78 C 147.75 139.46 147.93 140.38 148.60 140.83 C 149.28 141.29 150.20 141.11 150.65 140.43 L 151.19 139.64 C 151.65 138.96 151.47 138.04 150.79 137.59 C 150.11 137.13 149.19 137.31 148.74 137.99 Z M 148.23 138.80 L 147.72 139.55 C 147.27 140.21 147.45 141.11 148.11 141.56 C 148.77 142.01 149.68 141.83 150.12 141.17 L 150.63 140.42 C 151.08 139.76 150.90 138.85 150.24 138.41 C 149.57 137.96 148.67 138.13 148.23 138.80 Z M 147.73 139.57 L 147.16 140.42 C 146.72 141.08 146.90 141.97 147.56 142.41 C 148.22 142.85 149.11 142.67 149.55 142.01 L 150.11 141.16 C 150.55 140.50 150.38 139.61 149.72 139.17 C 149.06 138.73 148.17 138.91 147.73 139.57 Z M 147.16 140.43 L 146.66 141.19 C 146.22 141.85 146.40 142.74 147.06 143.17 C 147.72 143.61 148.61 143.42 149.04 142.77 L 149.55 142.00 C 149.98 141.34 149.80 140.45 149.14 140.02 C 148.48 139.59 147.60 139.77 147.16 140.43 Z"
      fill="black"
      fill-rule="nonzero" /><path d="M 158.69 135.40 L 159.67 135.80 C 160.44 136.11 161.32 135.74 161.63 134.97 C 161.95 134.19 161.58 133.31 160.80 133.00 L 159.83 132.60 C 159.05 132.29 158.17 132.66 157.86 133.44 C 157.55 134.21 157.92 135.09 158.69 135.40 Z M 159.66 135.83 L 160.58 136.20 C 161.37 136.51 162.27 136.13 162.58 135.34 C 162.90 134.55 162.52 133.66 161.73 133.34 L 160.81 132.97 C 160.02 132.65 159.12 133.03 158.81 133.82 C 158.49 134.61 158.87 135.51 159.66 135.83 Z M 160.59 136.21 L 161.52 136.58 C 162.32 136.90 163.22 136.50 163.53 135.70 C 163.85 134.91 163.45 134.00 162.66 133.69 L 161.72 133.32 C 160.93 133.01 160.02 133.40 159.71 134.20 C 159.39 135.00 159.79 135.90 160.59 136.21 Z M 161.52 136.56 L 162.43 136.92 C 163.22 137.23 164.11 136.85 164.42 136.06 C 164.73 135.27 164.34 134.38 163.56 134.07 L 162.65 133.71 C 161.86 133.40 160.97 133.78 160.66 134.57 C 160.35 135.36 160.73 136.25 161.52 136.56 Z M 162.40 136.87 L 163.29 137.26 C 164.05 137.58 164.93 137.23 165.26 136.47 C 165.59 135.71 165.24 134.82 164.47 134.49 L 163.59 134.11 C 162.82 133.78 161.94 134.14 161.61 134.90 C 161.28 135.66 161.63 136.55 162.40 136.87 Z M 163.22 137.20 L 164.12 137.65 C 164.85 138.01 165.73 137.72 166.10 136.99 C 166.47 136.26 166.17 135.37 165.44 135.01 L 164.54 134.56 C 163.81 134.19 162.93 134.48 162.56 135.21 C 162.19 135.94 162.49 136.83 163.22 137.20 Z M 164.02 137.58 L 164.87 138.10 C 165.56 138.53 166.46 138.31 166.89 137.62 C 167.31 136.92 167.09 136.02 166.40 135.60 L 165.55 135.08 C 164.86 134.65 163.95 134.87 163.53 135.56 C 163.11 136.25 163.32 137.16 164.02 137.58 Z M 164.80 138.06 L 165.62 138.63 C 166.29 139.10 167.21 138.93 167.67 138.26 C 168.14 137.59 167.97 136.67 167.30 136.21 L 166.47 135.64 C 165.80 135.17 164.88 135.34 164.42 136.01 C 163.96 136.68 164.13 137.60 164.80 138.06 Z M 165.60 138.63 L 165.71 138.71 C 166.38 139.18 167.30 139.02 167.78 138.35 C 168.25 137.68 168.09 136.76 167.42 136.29 L 167.32 136.21 C 166.65 135.74 165.72 135.90 165.25 136.56 C 164.78 137.23 164.94 138.16 165.60 138.63 Z"
      fill="black"
      fill-rule="nonzero" /><path d="M 155.24 141.47 L 154.85 142.24 C 154.46 143.00 154.76 143.94 155.52 144.32 C 156.29 144.71 157.22 144.41 157.61 143.65 L 158.00 142.88 C 158.39 142.12 158.08 141.19 157.32 140.80 C 156.56 140.41 155.63 140.71 155.24 141.47 Z M 154.79 142.29 L 154.32 143.32 C 153.96 144.11 154.31 145.05 155.10 145.41 C 155.90 145.77 156.83 145.42 157.19 144.63 L 157.66 143.60 C 158.02 142.81 157.67 141.87 156.88 141.51 C 156.09 141.15 155.15 141.50 154.79 142.29 Z M 154.29 143.36 L 153.92 144.26 C 153.58 145.07 153.96 146.00 154.77 146.34 C 155.58 146.68 156.51 146.30 156.85 145.49 L 157.23 144.58 C 157.56 143.77 157.18 142.84 156.37 142.50 C 155.56 142.17 154.63 142.55 154.29 143.36 Z M 153.91 144.28 L 153.52 145.26 C 153.19 146.07 153.58 147.00 154.40 147.33 C 155.21 147.65 156.14 147.26 156.47 146.44 L 156.86 145.47 C 157.19 144.65 156.79 143.72 155.98 143.40 C 155.16 143.07 154.23 143.47 153.91 144.28 Z M 153.51 145.27 L 153.15 146.19 C 152.83 147.00 153.24 147.93 154.05 148.25 C 154.87 148.57 155.79 148.16 156.11 147.35 L 156.47 146.43 C 156.79 145.61 156.39 144.69 155.57 144.37 C 154.75 144.05 153.83 144.45 153.51 145.27 Z M 153.15 146.20 L 152.74 147.25 C 152.43 148.07 152.84 148.99 153.66 149.30 C 154.48 149.62 155.40 149.21 155.71 148.39 L 156.12 147.34 C 156.43 146.52 156.02 145.60 155.20 145.28 C 154.38 144.97 153.46 145.38 153.15 146.20 Z M 152.75 147.24 L 152.43 148.06 C 152.11 148.88 152.52 149.80 153.34 150.12 C 154.16 150.43 155.08 150.03 155.40 149.21 L 155.71 148.39 C 156.03 147.57 155.62 146.65 154.80 146.33 C 153.98 146.02 153.06 146.42 152.75 147.24 Z M 152.44 148.04 L 152.07 148.95 C 151.74 149.76 152.13 150.69 152.95 151.02 C 153.76 151.35 154.69 150.96 155.02 150.14 L 155.39 149.23 C 155.72 148.42 155.32 147.49 154.51 147.16 C 153.70 146.83 152.77 147.22 152.44 148.04 Z M 152.08 148.93 L 151.69 149.86 C 151.35 150.67 151.73 151.60 152.54 151.94 C 153.35 152.28 154.28 151.90 154.62 151.09 L 155.01 150.16 C 155.35 149.35 154.97 148.42 154.16 148.08 C 153.35 147.74 152.42 148.12 152.08 148.93 Z M 151.69 149.86 L 151.30 150.78 C 150.96 151.59 151.34 152.52 152.15 152.86 C 152.96 153.20 153.89 152.82 154.23 152.01 L 154.62 151.09 C 154.96 150.28 154.58 149.35 153.77 149.01 C 152.96 148.67 152.03 149.05 151.69 149.86 Z M 151.30 150.80 L 150.91 151.73 C 150.58 152.54 150.97 153.47 151.78 153.80 C 152.59 154.13 153.52 153.74 153.85 152.93 L 154.24 152.00 C 154.57 151.19 154.18 150.26 153.37 149.93 C 152.56 149.60 151.63 149.98 151.30 150.80 Z M 150.91 151.73 L 150.54 152.66 C 150.21 153.47 150.60 154.40 151.42 154.72 C 152.23 155.05 153.15 154.66 153.48 153.85 L 153.85 152.92 C 154.18 152.11 153.79 151.19 152.98 150.86 C 152.17 150.53 151.24 150.92 150.91 151.73 Z M 150.55 152.64 L 150.18 153.53 C 149.84 154.34 150.22 155.26 151.02 155.60 C 151.83 155.94 152.76 155.56 153.10 154.76 L 153.47 153.87 C 153.81 153.06 153.43 152.13 152.62 151.79 C 151.82 151.46 150.89 151.83 150.55 152.64 Z M 150.19 153.51 L 149.78 154.43 C 149.43 155.23 149.80 156.17 150.60 156.52 C 151.40 156.87 152.33 156.50 152.68 155.70 L 153.09 154.78 C 153.44 153.98 153.07 153.04 152.27 152.69 C 151.47 152.34 150.54 152.71 150.19 153.51 Z M 149.78 154.43 L 149.37 155.35 C 149.02 156.15 149.39 157.09 150.19 157.44 C 150.99 157.79 151.92 157.43 152.28 156.63 L 152.68 155.70 C 153.04 154.90 152.67 153.97 151.87 153.61 C 151.07 153.26 150.14 153.63 149.78 154.43 Z M 149.37 155.35 L 148.96 156.28 C 148.61 157.09 148.97 158.02 149.78 158.38 C 150.58 158.73 151.52 158.36 151.87 157.56 L 152.28 156.63 C 152.63 155.83 152.27 154.89 151.47 154.54 C 150.66 154.18 149.73 154.55 149.37 155.35 Z M 148.96 156.29 L 148.50 157.34 C 148.15 158.15 148.52 159.08 149.32 159.43 C 150.13 159.78 151.07 159.42 151.42 158.61 L 151.87 157.56 C 152.22 156.75 151.85 155.81 151.05 155.46 C 150.24 155.11 149.31 155.48 148.96 156.29 Z M 148.40 157.67 L 148.23 158.51 C 148.06 159.37 148.62 160.21 149.48 160.38 C 150.34 160.55 151.18 159.99 151.35 159.13 L 151.52 158.29 C 151.69 157.43 151.13 156.59 150.27 156.42 C 149.41 156.25 148.57 156.80 148.40 157.67 Z M 149.67 160.40 L 150.32 160.45 C 151.19 160.52 151.95 159.86 152.02 158.99 C 152.08 158.11 151.43 157.35 150.55 157.29 L 149.91 157.24 C 149.03 157.17 148.27 157.83 148.21 158.70 C 148.14 159.58 148.80 160.34 149.67 160.40 Z M 150.83 160.40 L 152.01 160.10 C 152.85 159.88 153.36 159.02 153.15 158.17 C 152.93 157.33 152.07 156.82 151.22 157.03 L 150.04 157.34 C 149.20 157.55 148.69 158.41 148.90 159.26 C 149.12 160.11 149.98 160.62 150.83 160.40 Z M 151.93 160.11 L 152.90 159.91 C 153.76 159.74 154.31 158.91 154.13 158.06 C 153.96 157.20 153.13 156.65 152.28 156.82 L 151.30 157.02 C 150.45 157.19 149.90 158.03 150.07 158.88 C 150.24 159.73 151.07 160.28 151.93 160.11 Z M 152.84 159.92 L 153.85 159.75 C 154.71 159.61 155.29 158.80 155.15 157.95 C 155.01 157.09 154.20 156.51 153.34 156.65 L 152.33 156.82 C 151.48 156.96 150.90 157.77 151.04 158.62 C 151.18 159.48 151.99 160.06 152.84 159.92 Z M 153.82 159.75 L 154.81 159.61 C 155.67 159.49 156.27 158.69 156.14 157.84 C 156.02 156.98 155.22 156.38 154.37 156.51 L 153.38 156.65 C 152.52 156.77 151.92 157.57 152.05 158.43 C 152.17 159.28 152.96 159.88 153.82 159.75 Z M 154.79 159.61 L 155.76 159.49 C 156.61 159.38 157.22 158.60 157.11 157.74 C 157.00 156.88 156.22 156.28 155.36 156.39 L 154.39 156.51 C 153.54 156.62 152.93 157.40 153.04 158.26 C 153.15 159.11 153.93 159.72 154.79 159.61 Z M 155.73 159.49 L 156.73 159.38 C 157.59 159.29 158.21 158.52 158.12 157.66 C 158.03 156.80 157.26 156.18 156.40 156.28 L 155.39 156.39 C 154.54 156.48 153.92 157.25 154.01 158.10 C 154.10 158.96 154.87 159.58 155.73 159.49 Z M 156.71 159.38 L 157.71 159.29 C 158.56 159.21 159.19 158.45 159.11 157.59 C 159.04 156.73 158.28 156.11 157.42 156.18 L 156.42 156.28 C 155.57 156.36 154.94 157.11 155.02 157.97 C 155.10 158.83 155.85 159.46 156.71 159.38 Z M 157.69 159.29 L 158.72 159.20 C 159.57 159.13 160.21 158.38 160.14 157.52 C 160.06 156.66 159.31 156.03 158.46 156.10 L 157.43 156.18 C 156.58 156.26 155.94 157.01 156.01 157.87 C 156.09 158.72 156.84 159.36 157.69 159.29 Z M 158.71 159.20 L 159.70 159.12 C 160.55 159.05 161.19 158.30 161.12 157.45 C 161.06 156.59 160.31 155.96 159.45 156.02 L 158.46 156.10 C 157.61 156.17 156.97 156.92 157.04 157.77 C 157.10 158.63 157.85 159.26 158.71 159.20 Z M 159.68 159.11 L 160.68 159.04 C 161.53 158.98 162.17 158.24 162.11 157.39 C 162.05 156.54 161.31 155.91 160.46 155.97 L 159.47 156.04 C 158.62 156.10 157.98 156.83 158.04 157.68 C 158.10 158.53 158.83 159.17 159.68 159.11 Z M 160.64 159.02 L 161.62 158.97 C 162.46 158.93 163.11 158.22 163.07 157.38 C 163.03 156.55 162.32 155.90 161.48 155.94 L 160.50 155.98 C 159.66 156.02 159.01 156.74 159.05 157.57 C 159.09 158.41 159.80 159.06 160.64 159.02 Z M 161.58 158.95 L 162.59 158.93 C 163.42 158.91 164.08 158.23 164.06 157.40 C 164.04 156.57 163.36 155.92 162.53 155.93 L 161.52 155.96 C 160.69 155.97 160.03 156.66 160.05 157.49 C 160.07 158.31 160.75 158.97 161.58 158.95 Z M 162.58 158.92 L 163.60 158.90 C 164.42 158.89 165.08 158.22 165.07 157.40 C 165.06 156.58 164.38 155.92 163.56 155.93 L 162.54 155.95 C 161.72 155.96 161.07 156.63 161.08 157.45 C 161.09 158.27 161.76 158.93 162.58 158.92 Z M 163.62 158.89 L 164.65 158.86 C 165.46 158.83 166.10 158.16 166.08 157.35 C 166.06 156.54 165.38 155.90 164.57 155.92 L 163.54 155.95 C 162.73 155.97 162.09 156.65 162.12 157.46 C 162.14 158.27 162.81 158.91 163.62 158.89 Z M 164.70 158.83 L 165.68 158.78 C 166.48 158.73 167.09 158.04 167.04 157.24 C 166.99 156.45 166.30 155.84 165.51 155.89 L 164.53 155.94 C 163.73 155.99 163.12 156.68 163.17 157.48 C 163.22 158.27 163.90 158.88 164.70 158.83 Z M 165.70 158.76 L 166.09 158.73 C 166.87 158.67 167.47 157.98 167.41 157.19 C 167.35 156.41 166.66 155.81 165.87 155.87 L 165.49 155.90 C 164.70 155.96 164.11 156.65 164.16 157.44 C 164.22 158.23 164.91 158.82 165.70 158.76 Z"
      fill="black"
      fill-rule="nonzero" /><path d="M 162.60 150.40 L 162.58 151.31 C 162.55 152.16 163.22 152.86 164.07 152.89 C 164.92 152.91 165.62 152.24 165.65 151.40 L 165.67 150.49 C 165.70 149.64 165.03 148.93 164.18 148.91 C 163.33 148.88 162.63 149.55 162.60 150.40 Z M 162.52 151.39 L 162.55 152.45 C 162.58 153.33 163.31 154.02 164.18 154.00 C 165.06 153.97 165.75 153.24 165.73 152.37 L 165.70 151.31 C 165.68 150.43 164.95 149.74 164.07 149.76 C 163.19 149.79 162.50 150.52 162.52 151.39 Z M 162.53 152.55 L 162.61 153.46 C 162.69 154.35 163.47 155.01 164.36 154.93 C 165.25 154.86 165.91 154.07 165.83 153.18 L 165.75 152.27 C 165.67 151.38 164.89 150.72 164.00 150.80 C 163.11 150.88 162.45 151.66 162.53 152.55 Z M 162.62 153.51 L 162.73 154.48 C 162.83 155.36 163.63 156.00 164.52 155.89 C 165.40 155.79 166.04 154.99 165.94 154.11 L 165.82 153.14 C 165.72 152.25 164.92 151.62 164.03 151.72 C 163.15 151.82 162.51 152.62 162.62 153.51 Z M 162.74 154.49 L 162.87 155.56 C 162.98 156.44 163.78 157.07 164.67 156.96 C 165.55 156.85 166.17 156.04 166.06 155.16 L 165.93 154.09 C 165.82 153.21 165.01 152.59 164.13 152.70 C 163.25 152.81 162.63 153.61 162.74 154.49 Z M 162.88 155.56 L 163.01 156.61 C 163.12 157.49 163.91 158.11 164.79 158.00 C 165.67 157.90 166.29 157.10 166.18 156.22 L 166.05 155.17 C 165.94 154.29 165.15 153.67 164.27 153.78 C 163.40 153.88 162.77 154.68 162.88 155.56 Z M 163.03 156.60 L 163.15 157.62 C 163.25 158.49 164.03 159.11 164.90 159.01 C 165.77 158.91 166.39 158.12 166.28 157.26 L 166.17 156.24 C 166.06 155.37 165.28 154.75 164.41 154.85 C 163.55 154.95 162.93 155.74 163.03 156.60 Z M 163.16 157.61 L 163.28 158.63 C 163.37 159.48 164.15 160.10 165.00 160.00 C 165.86 159.91 166.48 159.13 166.38 158.28 L 166.27 157.27 C 166.17 156.41 165.40 155.79 164.54 155.89 C 163.68 155.99 163.07 156.76 163.16 157.61 Z M 163.30 158.62 L 163.40 159.58 C 163.49 160.43 164.25 161.04 165.10 160.95 C 165.94 160.85 166.56 160.09 166.46 159.25 L 166.36 158.29 C 166.27 157.44 165.51 156.83 164.66 156.92 C 163.82 157.01 163.21 157.77 163.30 158.62 Z M 163.41 159.58 L 163.52 160.64 C 163.61 161.49 164.36 162.10 165.21 162.01 C 166.05 161.92 166.66 161.17 166.57 160.32 L 166.46 159.25 C 166.37 158.41 165.62 157.80 164.77 157.89 C 163.93 157.98 163.32 158.73 163.41 159.58 Z M 163.50 160.65 L 163.61 161.65 C 163.71 162.50 164.47 163.12 165.32 163.02 C 166.17 162.93 166.79 162.17 166.69 161.32 L 166.59 160.32 C 166.49 159.47 165.73 158.85 164.88 158.94 C 164.03 159.03 163.41 159.80 163.50 160.65 Z M 163.60 161.68 L 163.71 162.59 C 163.82 163.45 164.60 164.06 165.46 163.95 C 166.32 163.84 166.93 163.06 166.82 162.20 L 166.71 161.29 C 166.60 160.43 165.82 159.82 164.96 159.93 C 164.10 160.03 163.49 160.82 163.60 161.68 Z M 163.71 162.64 L 163.86 163.62 C 163.99 164.49 164.80 165.08 165.66 164.94 C 166.53 164.81 167.12 164.00 166.98 163.14 L 166.83 162.15 C 166.69 161.29 165.89 160.70 165.02 160.83 C 164.16 160.97 163.57 161.77 163.71 162.64 Z M 163.87 163.67 L 164.05 164.64 C 164.20 165.50 165.03 166.07 165.88 165.91 C 166.74 165.76 167.31 164.93 167.15 164.07 L 166.98 163.10 C 166.82 162.24 166.00 161.67 165.14 161.83 C 164.28 161.98 163.71 162.81 163.87 163.67 Z M 164.05 164.66 L 164.17 165.25 C 164.33 166.11 165.16 166.67 166.02 166.50 C 166.87 166.34 167.43 165.51 167.26 164.65 L 167.15 164.06 C 166.98 163.20 166.16 162.64 165.30 162.81 C 164.44 162.98 163.88 163.80 164.05 164.66 Z"
      fill="black"
      fill-rule="nonzero" /></svg>