<svg xmlns="http://www.w3.org/2000/svg" width="300" height="300" viewBox="0 0 300 300">
<path d="M 130.76 138.88 L 131.65 138.93 C 132.48 138.98 133.19 138.34 133.24 137.50 C 133.29 136.67 132.65 135.95 131.81 135.91 L 130.93 135.86 C 130.09 135.81 129.38 136.45 129.33 137.29 C 129.29 138.12 129.93 138.83 130.76 138.88 Z M 131.80 138.94 L 132.90 138.89 C 133.74 138.85 134.39 138.13 134.35 137.29 C 134.30 136.45 133.59 135.80 132.75 135.84 L 131.66 135.90 C 130.82 135.94 130.17 136.65 130.21 137.49 C 130.25 138.33 130.96 138.98 131.80 138.94 Z M 133.02 138.88 L 133.95 138.76 C 134.78 138.66 135.38 137.89 135.27 137.05 C 135.16 136.21 134.40 135.62 133.56 135.73 L 132.63 135.85 C 131.79 135.96 131.20 136.72 131.30 137.56 C 131.41 138.40 132.18 138.99 133.02 138.88 Z M 133.98 138.76 L 135.01 138.60 C 135.84 138.47 136.42 137.70 136.29 136.86 C 136.16 136.03 135.38 135.45 134.55 135.58 L 133.52 135.74 C 132.69 135.86 132.11 136.64 132.24 137.48 C 132.37 138.31 133.15 138.89 133.98 138.76 Z M 135.00 138.60 L 136.04 138.45 C 136.88 138.32 137.45 137.54 137.33 136.71 C 137.21 135.88 136.43 135.30 135.59 135.42 L 134.55 135.58 C 133.72 135.70 133.14 136.48 133.27 137.32 C 133.39 138.15 134.17 138.73 135.00 138.60 Z M 136.01 138.45 L 137.04 138.32 C 137.87 138.22 138.47 137.45 138.36 136.62 C 138.26 135.78 137.50 135.19 136.66 135.29 L 135.63 135.42 C 134.79 135.53 134.20 136.29 134.30 137.13 C 134.41 137.96 135.17 138.56 136.01 138.45 Z M 136.99 138.33 L 137.97 138.23 C 138.81 138.15 139.43 137.41 139.35 136.57 C 139.27 135.73 138.52 135.11 137.68 135.19 L 136.70 135.29 C 135.86 135.37 135.25 136.11 135.33 136.95 C 135.41 137.79 136.15 138.41 136.99 138.33 Z M 137.93 138.24 L 138.89 138.17 C 139.73 138.12 140.37 137.39 140.31 136.55 C 140.26 135.71 139.53 135.07 138.69 135.13 L 137.73 135.19 C 136.88 135.25 136.25 135.97 136.30 136.81 C 136.36 137.65 137.09 138.29 137.93 138.24 Z M 138.85 138.17 L 139.83 138.14 C 140.68 138.10 141.33 137.39 141.30 136.55 C 141.26 135.71 140.56 135.05 139.71 135.09 L 138.73 135.13 C 137.89 135.16 137.23 135.87 137.26 136.71 C 137.30 137.55 138.01 138.21 138.85 138.17 Z M 139.80 138.14 L 140.81 138.12 C 141.65 138.10 142.32 137.40 142.30 136.56 C 142.29 135.72 141.59 135.05 140.75 135.07 L 139.74 135.09 C 138.90 135.10 138.23 135.80 138.25 136.64 C 138.27 137.48 138.96 138.15 139.80 138.14 Z M 140.79 138.12 L 141.84 138.11 C 142.68 138.10 143.35 137.41 143.35 136.57 C 143.34 135.73 142.65 135.05 141.81 135.06 L 140.77 135.07 C 139.93 135.07 139.25 135.76 139.26 136.60 C 139.26 137.44 139.95 138.12 140.79 138.12 Z M 141.80 138.11 L 142.83 138.13 C 143.68 138.14 144.37 137.47 144.39 136.63 C 144.40 135.79 143.73 135.09 142.89 135.08 L 141.85 135.06 C 141.01 135.04 140.31 135.71 140.30 136.55 C 140.28 137.40 140.95 138.09 141.80 138.11 Z M 142.73 138.12 L 143.68 138.20 C 144.52 138.28 145.26 137.65 145.33 136.81 C 145.40 135.97 144.77 135.23 143.93 135.16 L 142.99 135.08 C 142.15 135.01 141.41 135.63 141.34 136.47 C 141.27 137.31 141.89 138.05 142.73 138.12 Z M 143.41 138.16 L 144.42 138.43 C 145.24 138.65 146.08 138.16 146.29 137.35 C 146.51 136.53 146.03 135.69 145.21 135.47 L 144.20 135.20 C 143.38 134.99 142.54 135.47 142.33 136.29 C 142.11 137.10 142.59 137.94 143.41 138.16 Z M 143.90 138.18 L 144.64 138.74 C 145.32 139.24 146.28 139.10 146.79 138.42 C 147.30 137.74 147.16 136.78 146.48 136.28 L 145.73 135.72 C 145.05 135.22 144.09 135.36 143.58 136.04 C 143.08 136.72 143.22 137.68 143.90 138.18 Z M 144.25 138.32 L 144.76 139.14 C 145.21 139.86 146.16 140.08 146.88 139.63 C 147.60 139.18 147.82 138.24 147.37 137.51 L 146.87 136.70 C 146.42 135.97 145.47 135.75 144.75 136.20 C 144.03 136.65 143.81 137.60 144.25 138.32 Z M 144.61 138.81 L 144.93 139.79 C 145.20 140.60 146.08 141.03 146.88 140.76 C 147.69 140.49 148.12 139.62 147.85 138.81 L 147.53 137.84 C 147.26 137.03 146.38 136.59 145.58 136.86 C 144.77 137.14 144.34 138.01 144.61 138.81 Z M 144.87 139.53 L 145.02 140.52 C 145.15 141.36 145.93 141.94 146.77 141.82 C 147.62 141.69 148.20 140.90 148.07 140.06 L 147.92 139.07 C 147.79 138.23 147.01 137.65 146.16 137.78 C 145.32 137.90 144.74 138.69 144.87 139.53 Z M 145.00 140.36 L 145.04 141.35 C 145.08 142.20 145.80 142.86 146.65 142.83 C 147.50 142.79 148.16 142.07 148.13 141.22 L 148.09 140.23 C 148.05 139.38 147.33 138.72 146.48 138.75 C 145.63 138.79 144.97 139.51 145.00 140.36 Z M 145.04 141.29 L 145.05 142.29 C 145.05 143.14 145.74 143.83 146.59 143.83 C 147.44 143.82 148.13 143.13 148.13 142.28 L 148.13 141.28 C 148.13 140.43 147.43 139.74 146.58 139.75 C 145.73 139.75 145.04 140.44 145.04 141.29 Z M 145.05 142.20 L 145.00 143.20 C 144.95 144.05 145.60 144.78 146.45 144.82 C 147.30 144.87 148.03 144.22 148.07 143.37 L 148.13 142.36 C 148.17 141.51 147.52 140.79 146.67 140.74 C 145.82 140.70 145.09 141.35 145.05 142.20 Z M 145.01 143.06 L 144.86 144.07 C 144.74 144.91 145.32 145.69 146.16 145.82 C 147.00 145.94 147.79 145.36 147.91 144.52 L 148.06 143.51 C 148.18 142.67 147.60 141.89 146.76 141.76 C 145.92 141.64 145.13 142.22 145.01 143.06 Z M 144.89 143.95 L 144.67 144.92 C 144.48 145.75 145.00 146.57 145.83 146.76 C 146.66 146.95 147.48 146.43 147.67 145.60 L 147.89 144.63 C 148.07 143.80 147.55 142.98 146.73 142.79 C 145.90 142.60 145.07 143.12 144.89 143.95 Z M 144.69 144.85 L 144.43 145.81 C 144.20 146.62 144.68 147.47 145.50 147.69 C 146.32 147.92 147.16 147.44 147.39 146.62 L 147.65 145.67 C 147.87 144.85 147.39 144.00 146.58 143.78 C 145.76 143.55 144.91 144.03 144.69 144.85 Z M 144.44 145.77 L 144.15 146.72 C 143.91 147.53 144.36 148.39 145.17 148.63 C 145.98 148.88 146.83 148.42 147.08 147.61 L 147.37 146.66 C 147.62 145.85 147.16 145.00 146.35 144.75 C 145.54 144.50 144.69 144.96 144.44 145.77 Z M 144.16 146.72 L 143.86 147.67 C 143.61 148.47 144.06 149.32 144.87 149.57 C 145.67 149.82 146.52 149.38 146.77 148.57 L 147.07 147.62 C 147.32 146.82 146.87 145.96 146.07 145.71 C 145.26 145.46 144.41 145.91 144.16 146.72 Z M 143.87 147.69 L 143.58 148.66 C 143.35 149.46 143.81 150.30 144.61 150.54 C 145.41 150.78 146.25 150.32 146.49 149.51 L 146.77 148.55 C 147.01 147.74 146.55 146.90 145.75 146.67 C 144.94 146.43 144.10 146.89 143.87 147.69 Z M 143.58 148.72 L 143.33 149.70 C 143.12 150.51 143.61 151.32 144.42 151.53 C 145.22 151.73 146.04 151.25 146.24 150.44 L 146.49 149.46 C 146.69 148.65 146.21 147.84 145.40 147.63 C 144.60 147.43 143.78 147.91 143.58 148.72 Z M 143.33 149.75 L 143.12 150.71 C 142.94 151.51 143.44 152.30 144.24 152.48 C 145.05 152.66 145.84 152.16 146.02 151.36 L 146.24 150.40 C 146.41 149.60 145.91 148.80 145.11 148.62 C 144.31 148.44 143.51 148.95 143.33 149.75 Z M 143.13 150.72 L 143.11 150.77 C 142.94 151.57 143.44 152.36 144.24 152.53 C 145.04 152.71 145.83 152.20 146.00 151.40 L 146.01 151.35 C 146.19 150.55 145.68 149.76 144.88 149.59 C 144.09 149.41 143.30 149.92 143.13 150.72 Z"
      fill="black"
      fill-rule="nonzero" /><path d="M 127.45 148.49 L 128.46 148.19 C 129.25 147.96 129.69 147.14 129.46 146.36 C 129.23 145.57 128.41 145.13 127.63 145.36 L 126.61 145.66 C 125.83 145.89 125.38 146.71 125.61 147.49 C 125.84 148.27 126.66 148.72 127.45 148.49 Z M 128.47 148.21 L 129.42 147.93 C 130.21 147.70 130.67 146.86 130.43 146.07 C 130.19 145.27 129.36 144.82 128.56 145.05 L 127.62 145.34 C 126.82 145.57 126.37 146.41 126.61 147.20 C 126.84 148.00 127.68 148.45 128.47 148.21 Z M 129.43 147.95 L 130.38 147.66 C 131.19 147.42 131.64 146.57 131.40 145.77 C 131.16 144.97 130.31 144.51 129.51 144.75 L 128.55 145.04 C 127.75 145.28 127.30 146.13 127.54 146.93 C 127.78 147.73 128.63 148.19 129.43 147.95 Z M 130.39 147.67 L 131.31 147.39 C 132.11 147.14 132.57 146.29 132.32 145.49 C 132.08 144.68 131.23 144.23 130.43 144.47 L 129.50 144.75 C 128.70 144.99 128.24 145.84 128.49 146.65 C 128.73 147.45 129.58 147.91 130.39 147.67 Z M 131.29 147.39 L 132.21 147.12 C 133.02 146.89 133.48 146.04 133.24 145.24 C 133.01 144.43 132.17 143.97 131.36 144.20 L 130.44 144.47 C 129.63 144.70 129.17 145.55 129.41 146.35 C 129.64 147.16 130.48 147.62 131.29 147.39 Z M 132.20 147.12 L 133.19 146.83 C 133.99 146.60 134.46 145.77 134.23 144.96 C 134.00 144.16 133.16 143.69 132.36 143.92 L 131.37 144.21 C 130.56 144.44 130.10 145.27 130.33 146.08 C 130.56 146.88 131.40 147.35 132.20 147.12 Z M 133.19 146.82 L 134.14 146.55 C 134.93 146.32 135.39 145.49 135.16 144.69 C 134.94 143.89 134.10 143.43 133.31 143.66 L 132.36 143.94 C 131.56 144.17 131.10 145.00 131.33 145.79 C 131.56 146.59 132.39 147.05 133.19 146.82 Z M 134.14 146.53 L 135.11 146.25 C 135.89 146.02 136.34 145.20 136.12 144.41 C 135.89 143.62 135.07 143.17 134.28 143.40 L 133.31 143.68 C 132.52 143.91 132.07 144.73 132.30 145.52 C 132.53 146.30 133.35 146.76 134.14 146.53 Z M 135.10 146.23 L 136.05 145.96 C 136.83 145.73 137.28 144.92 137.06 144.14 C 136.83 143.36 136.02 142.91 135.24 143.14 L 134.28 143.41 C 133.51 143.64 133.06 144.45 133.28 145.23 C 133.51 146.01 134.32 146.46 135.10 146.23 Z M 136.05 145.95 L 137.01 145.67 C 137.79 145.45 138.24 144.64 138.01 143.86 C 137.79 143.09 136.98 142.64 136.20 142.86 L 135.24 143.14 C 134.46 143.37 134.02 144.18 134.24 144.95 C 134.46 145.73 135.27 146.17 136.05 145.95 Z M 137.01 145.67 L 137.99 145.39 C 138.76 145.17 139.21 144.37 138.99 143.59 C 138.77 142.82 137.96 142.37 137.19 142.59 L 136.21 142.87 C 135.43 143.09 134.99 143.89 135.21 144.67 C 135.43 145.44 136.23 145.89 137.01 145.67 Z M 137.98 145.40 L 138.95 145.13 C 139.73 144.91 140.18 144.10 139.96 143.33 C 139.75 142.55 138.94 142.10 138.16 142.31 L 137.19 142.58 C 136.42 142.80 135.96 143.61 136.18 144.38 C 136.40 145.16 137.20 145.61 137.98 145.40 Z M 138.94 145.14 L 139.90 144.88 C 140.68 144.67 141.14 143.86 140.93 143.08 C 140.72 142.30 139.92 141.84 139.14 142.05 L 138.18 142.30 C 137.39 142.51 136.93 143.32 137.14 144.10 C 137.35 144.88 138.15 145.35 138.94 145.14 Z M 139.88 144.89 L 140.87 144.63 C 141.65 144.43 142.13 143.63 141.93 142.85 C 141.73 142.06 140.93 141.59 140.14 141.79 L 139.15 142.04 C 138.37 142.24 137.89 143.04 138.09 143.83 C 138.29 144.61 139.09 145.09 139.88 144.89 Z M 140.87 144.63 L 141.82 144.39 C 142.61 144.19 143.08 143.39 142.88 142.61 C 142.69 141.82 141.89 141.34 141.10 141.54 L 140.14 141.79 C 139.36 141.99 138.88 142.79 139.08 143.57 C 139.28 144.36 140.08 144.83 140.87 144.63 Z M 141.84 144.38 L 142.81 144.12 C 143.60 143.91 144.06 143.11 143.85 142.32 C 143.64 141.54 142.83 141.08 142.05 141.29 L 141.08 141.55 C 140.30 141.76 139.83 142.57 140.04 143.35 C 140.26 144.13 141.06 144.60 141.84 144.38 Z M 142.83 144.11 L 143.79 143.84 C 144.57 143.62 145.02 142.81 144.80 142.03 C 144.58 141.25 143.77 140.80 142.99 141.02 L 142.03 141.30 C 141.25 141.52 140.80 142.33 141.02 143.11 C 141.25 143.88 142.06 144.34 142.83 144.11 Z M 143.79 143.84 L 144.70 143.58 C 145.47 143.36 145.92 142.55 145.70 141.77 C 145.48 141.00 144.67 140.55 143.90 140.77 L 142.99 141.03 C 142.21 141.25 141.76 142.06 141.99 142.83 C 142.21 143.61 143.02 144.06 143.79 143.84 Z M 144.69 143.58 L 145.63 143.31 C 146.41 143.10 146.86 142.30 146.64 141.52 C 146.43 140.75 145.63 140.30 144.85 140.51 L 143.91 140.77 C 143.14 140.99 142.68 141.79 142.90 142.56 C 143.11 143.34 143.91 143.79 144.69 143.58 Z M 145.61 143.31 L 146.61 143.05 C 147.38 142.84 147.85 142.05 147.64 141.28 C 147.44 140.50 146.64 140.04 145.87 140.25 L 144.87 140.51 C 144.10 140.72 143.64 141.51 143.84 142.28 C 144.05 143.06 144.84 143.52 145.61 143.31 Z M 146.59 143.05 L 147.55 142.81 C 148.32 142.61 148.79 141.83 148.60 141.06 C 148.40 140.28 147.62 139.81 146.84 140.01 L 145.89 140.25 C 145.11 140.44 144.64 141.23 144.84 142.00 C 145.03 142.77 145.82 143.24 146.59 143.05 Z M 147.52 142.81 L 148.53 142.58 C 149.30 142.40 149.79 141.62 149.61 140.85 C 149.43 140.07 148.65 139.59 147.88 139.77 L 146.87 140.00 C 146.10 140.18 145.61 140.96 145.79 141.73 C 145.97 142.51 146.75 142.99 147.52 142.81 Z M 148.49 142.58 L 149.50 142.37 C 150.28 142.21 150.78 141.46 150.62 140.68 C 150.47 139.90 149.71 139.40 148.93 139.56 L 147.92 139.77 C 147.14 139.93 146.64 140.68 146.80 141.46 C 146.96 142.24 147.71 142.74 148.49 142.58 Z M 149.46 142.38 L 150.46 142.20 C 151.24 142.07 151.76 141.33 151.62 140.55 C 151.49 139.77 150.75 139.25 149.97 139.38 L 148.97 139.55 C 148.19 139.69 147.67 140.43 147.81 141.21 C 147.94 141.99 148.68 142.51 149.46 142.38 Z M 150.43 142.21 L 151.40 142.06 C 152.18 141.94 152.71 141.21 152.59 140.43 C 152.47 139.65 151.75 139.11 150.97 139.23 L 150.00 139.38 C 149.22 139.50 148.68 140.23 148.80 141.01 C 148.92 141.79 149.65 142.33 150.43 142.21 Z M 151.39 142.06 L 151.75 142.00 C 152.53 141.89 153.06 141.16 152.95 140.39 C 152.84 139.61 152.11 139.07 151.33 139.18 L 150.97 139.23 C 150.19 139.35 149.66 140.07 149.77 140.85 C 149.88 141.63 150.61 142.17 151.39 142.06 Z"
      fill="black"
      fill-rule="nonzero" /><path d="M 129.82 155.42 L 130.86 155.10 C 131.63 154.86 132.07 154.04 131.83 153.26 C 131.60 152.48 130.77 152.04 129.99 152.28 L 128.96 152.60 C 128.18 152.84 127.75 153.66 127.98 154.44 C 128.22 155.22 129.05 155.65 129.82 155.42 Z M 130.86 155.11 L 131.84 154.81 C 132.63 154.57 133.07 153.74 132.83 152.95 C 132.59 152.17 131.75 151.73 130.97 151.97 L 129.99 152.27 C 129.20 152.51 128.76 153.34 129.00 154.13 C 129.24 154.91 130.08 155.36 130.86 155.11 Z M 131.85 154.83 L 132.72 154.56 C 133.52 154.31 133.96 153.47 133.71 152.67 C 133.47 151.88 132.63 151.44 131.83 151.68 L 130.96 151.95 C 130.17 152.20 129.72 153.04 129.97 153.84 C 130.21 154.63 131.06 155.07 131.85 154.83 Z M 132.73 154.55 L 133.77 154.22 C 134.56 153.97 134.99 153.13 134.74 152.34 C 134.49 151.55 133.65 151.11 132.86 151.36 L 131.82 151.69 C 131.03 151.94 130.59 152.78 130.85 153.57 C 131.10 154.36 131.94 154.80 132.73 154.55 Z M 133.76 154.20 L 134.63 153.92 C 135.41 153.67 135.84 152.84 135.59 152.06 C 135.34 151.28 134.51 150.85 133.73 151.10 L 132.86 151.38 C 132.08 151.63 131.65 152.47 131.90 153.24 C 132.15 154.02 132.98 154.45 133.76 154.20 Z M 134.62 153.91 L 135.54 153.63 C 136.31 153.38 136.75 152.56 136.51 151.79 C 136.26 151.02 135.44 150.58 134.67 150.82 L 133.74 151.11 C 132.97 151.35 132.54 152.17 132.78 152.95 C 133.02 153.72 133.84 154.15 134.62 153.91 Z M 135.52 153.63 L 136.49 153.34 C 137.27 153.11 137.71 152.30 137.48 151.52 C 137.25 150.75 136.44 150.31 135.66 150.53 L 134.69 150.82 C 133.92 151.05 133.47 151.86 133.70 152.64 C 133.93 153.41 134.74 153.86 135.52 153.63 Z M 136.47 153.34 L 137.43 153.07 C 138.20 152.86 138.65 152.05 138.44 151.27 C 138.22 150.49 137.41 150.04 136.63 150.26 L 135.68 150.53 C 134.90 150.75 134.45 151.56 134.67 152.33 C 134.89 153.11 135.70 153.56 136.47 153.34 Z M 137.43 153.07 L 138.40 152.79 C 139.18 152.57 139.63 151.76 139.41 150.99 C 139.18 150.21 138.38 149.77 137.60 149.99 L 136.63 150.27 C 135.85 150.49 135.40 151.30 135.63 152.07 C 135.85 152.84 136.66 153.29 137.43 153.07 Z M 138.42 152.78 L 139.38 152.50 C 140.15 152.26 140.59 151.45 140.36 150.68 C 140.13 149.91 139.32 149.48 138.55 149.71 L 137.59 150.00 C 136.81 150.23 136.38 151.04 136.61 151.81 C 136.84 152.58 137.65 153.02 138.42 152.78 Z M 139.39 152.49 L 140.34 152.20 C 141.11 151.97 141.54 151.16 141.31 150.39 C 141.08 149.62 140.27 149.19 139.50 149.42 L 138.54 149.71 C 137.78 149.95 137.34 150.76 137.58 151.52 C 137.81 152.29 138.62 152.72 139.39 152.49 Z M 140.33 152.20 L 141.30 151.91 C 142.07 151.68 142.50 150.87 142.27 150.11 C 142.05 149.34 141.24 148.91 140.47 149.14 L 139.51 149.43 C 138.74 149.65 138.31 150.46 138.53 151.22 C 138.76 151.99 139.57 152.43 140.33 152.20 Z M 141.30 151.90 L 142.25 151.62 C 143.01 151.39 143.45 150.59 143.22 149.83 C 142.99 149.06 142.19 148.63 141.43 148.86 L 140.48 149.14 C 139.71 149.37 139.28 150.17 139.51 150.93 C 139.73 151.70 140.54 152.13 141.30 151.90 Z M 142.25 151.62 L 143.21 151.33 C 143.97 151.10 144.40 150.30 144.17 149.54 C 143.94 148.78 143.14 148.35 142.38 148.58 L 141.42 148.86 C 140.66 149.09 140.23 149.89 140.46 150.65 C 140.69 151.41 141.49 151.84 142.25 151.62 Z M 143.21 151.32 L 144.14 151.04 C 144.90 150.82 145.33 150.02 145.10 149.26 C 144.87 148.50 144.07 148.07 143.32 148.30 L 142.38 148.58 C 141.62 148.81 141.19 149.60 141.42 150.36 C 141.65 151.12 142.45 151.55 143.21 151.32 Z M 144.15 151.04 L 145.09 150.75 C 145.84 150.52 146.27 149.72 146.03 148.96 C 145.80 148.21 145.00 147.78 144.25 148.02 L 143.31 148.31 C 142.55 148.54 142.13 149.34 142.36 150.09 C 142.59 150.85 143.39 151.27 144.15 151.04 Z M 145.12 150.73 L 146.08 150.41 C 146.83 150.16 147.23 149.35 146.98 148.61 C 146.73 147.86 145.92 147.46 145.17 147.71 L 144.21 148.03 C 143.47 148.28 143.07 149.09 143.32 149.84 C 143.57 150.58 144.38 150.99 145.12 150.73 Z M 146.11 150.40 L 147.05 150.06 C 147.79 149.80 148.17 148.98 147.90 148.24 C 147.63 147.50 146.82 147.11 146.08 147.38 L 145.14 147.72 C 144.40 147.99 144.02 148.81 144.29 149.55 C 144.55 150.29 145.37 150.67 146.11 150.40 Z M 147.06 150.06 L 147.96 149.73 C 148.69 149.45 149.07 148.63 148.80 147.89 C 148.52 147.15 147.70 146.78 146.96 147.05 L 146.06 147.39 C 145.33 147.66 144.95 148.48 145.22 149.22 C 145.50 149.96 146.32 150.33 147.06 150.06 Z"
      fill="black"
      fill-rule="nonzero" /><path d="M 138.15 138.04 L 137.64 138.76 C 137.18 139.42 137.34 140.34 138.00 140.80 C 138.66 141.27 139.58 141.11 140.04 140.45 L 140.55 139.73 C 141.02 139.06 140.86 138.15 140.20 137.68 C 139.53 137.22 138.62 137.37 138.15 138.04 Z M 137.48 139.00 L 137.04 139.99 C 136.70 140.75 137.04 141.63 137.80 141.96 C 138.55 142.30 139.43 141.96 139.77 141.21 L 140.21 140.21 C 140.54 139.46 140.20 138.57 139.45 138.24 C 138.70 137.90 137.81 138.24 137.48 139.00 Z M 136.95 140.18 L 136.68 141.13 C 136.45 141.93 136.91 142.77 137.71 143.00 C 138.51 143.23 139.35 142.77 139.58 141.97 L 139.85 141.02 C 140.08 140.22 139.62 139.38 138.82 139.15 C 138.02 138.92 137.18 139.38 136.95 140.18 Z M 136.65 141.19 L 136.41 142.21 C 136.21 143.03 136.71 143.85 137.53 144.04 C 138.34 144.24 139.16 143.74 139.36 142.92 L 139.60 141.90 C 139.80 141.09 139.30 140.27 138.48 140.07 C 137.67 139.88 136.85 140.38 136.65 141.19 Z M 136.40 142.22 L 136.16 143.25 C 135.96 144.07 136.47 144.89 137.29 145.08 C 138.11 145.27 138.93 144.77 139.12 143.95 L 139.36 142.92 C 139.56 142.10 139.05 141.28 138.23 141.08 C 137.41 140.89 136.59 141.40 136.40 142.22 Z M 136.16 143.22 L 135.91 144.20 C 135.71 145.02 136.20 145.85 137.02 146.05 C 137.84 146.26 138.67 145.77 138.87 144.95 L 139.12 143.97 C 139.33 143.16 138.83 142.33 138.02 142.12 C 137.20 141.91 136.37 142.41 136.16 143.22 Z M 135.91 144.18 L 135.68 145.06 C 135.47 145.88 135.95 146.72 136.77 146.93 C 137.59 147.15 138.42 146.66 138.64 145.84 L 138.87 144.96 C 139.09 144.15 138.60 143.31 137.78 143.09 C 136.97 142.88 136.13 143.37 135.91 144.18 Z M 135.68 145.07 L 135.43 146.02 C 135.22 146.84 135.71 147.68 136.53 147.89 C 137.34 148.10 138.18 147.61 138.39 146.79 L 138.64 145.84 C 138.85 145.02 138.36 144.18 137.55 143.97 C 136.73 143.76 135.89 144.25 135.68 145.07 Z M 135.43 146.03 L 135.18 147.00 C 134.97 147.82 135.47 148.66 136.29 148.86 C 137.11 149.07 137.94 148.58 138.15 147.76 L 138.39 146.79 C 138.60 145.97 138.11 145.13 137.29 144.93 C 136.47 144.72 135.64 145.21 135.43 146.03 Z M 135.18 147.00 L 134.94 147.97 C 134.73 148.79 135.22 149.62 136.04 149.83 C 136.86 150.04 137.70 149.54 137.90 148.72 L 138.15 147.76 C 138.36 146.94 137.86 146.11 137.04 145.90 C 136.22 145.69 135.39 146.19 135.18 147.00 Z M 134.94 147.95 L 134.68 148.94 C 134.46 149.75 134.95 150.59 135.76 150.81 C 136.58 151.03 137.42 150.54 137.64 149.72 L 137.90 148.74 C 138.12 147.92 137.63 147.08 136.81 146.87 C 136.00 146.65 135.16 147.13 134.94 147.95 Z M 134.68 148.91 L 134.41 149.86 C 134.18 150.68 134.66 151.53 135.47 151.76 C 136.29 151.99 137.13 151.51 137.36 150.70 L 137.63 149.75 C 137.86 148.93 137.39 148.09 136.58 147.86 C 135.76 147.62 134.91 148.10 134.68 148.91 Z M 134.42 149.85 L 134.13 150.82 C 133.89 151.64 134.36 152.49 135.17 152.73 C 135.98 152.97 136.83 152.50 137.07 151.69 L 137.36 150.71 C 137.60 149.90 137.13 149.05 136.32 148.81 C 135.51 148.57 134.66 149.04 134.42 149.85 Z M 134.13 150.81 L 133.85 151.76 C 133.60 152.57 134.06 153.43 134.87 153.67 C 135.69 153.92 136.54 153.46 136.79 152.64 L 137.07 151.70 C 137.32 150.89 136.86 150.03 136.05 149.79 C 135.23 149.54 134.38 150.00 134.13 150.81 Z M 133.85 151.75 L 133.55 152.71 C 133.30 153.52 133.76 154.38 134.57 154.63 C 135.38 154.88 136.24 154.43 136.49 153.62 L 136.79 152.65 C 137.04 151.84 136.58 150.98 135.77 150.73 C 134.96 150.48 134.10 150.94 133.85 151.75 Z M 133.55 152.70 L 133.25 153.65 C 132.99 154.46 133.44 155.33 134.26 155.58 C 135.07 155.84 135.93 155.39 136.19 154.58 L 136.49 153.63 C 136.75 152.81 136.30 151.95 135.49 151.69 C 134.67 151.44 133.81 151.89 133.55 152.70 Z M 133.25 153.64 L 132.95 154.58 C 132.68 155.39 133.13 156.26 133.94 156.53 C 134.75 156.79 135.62 156.35 135.88 155.53 L 136.19 154.59 C 136.45 153.78 136.01 152.91 135.20 152.65 C 134.39 152.38 133.51 152.83 133.25 153.64 Z M 132.95 154.57 L 132.63 155.53 C 132.36 156.35 132.80 157.22 133.61 157.49 C 134.42 157.76 135.29 157.32 135.56 156.51 L 135.88 155.55 C 136.15 154.73 135.71 153.86 134.90 153.59 C 134.09 153.32 133.22 153.76 132.95 154.57 Z M 132.63 155.52 L 132.30 156.49 C 132.03 157.29 132.46 158.17 133.27 158.45 C 134.08 158.72 134.96 158.29 135.24 157.48 L 135.56 156.52 C 135.84 155.71 135.40 154.83 134.59 154.56 C 133.78 154.28 132.90 154.72 132.63 155.52 Z M 132.31 156.48 L 131.98 157.43 C 131.70 158.24 132.13 159.12 132.94 159.40 C 133.74 159.67 134.62 159.25 134.90 158.44 L 135.23 157.49 C 135.51 156.68 135.08 155.80 134.27 155.52 C 133.47 155.24 132.59 155.67 132.31 156.48 Z M 131.99 157.43 L 131.66 158.36 C 131.37 159.17 131.80 160.05 132.60 160.33 C 133.40 160.61 134.28 160.19 134.57 159.39 L 134.90 158.45 C 135.18 157.64 134.75 156.76 133.95 156.48 C 133.15 156.20 132.27 156.62 131.99 157.43 Z M 131.67 158.36 L 131.32 159.33 C 131.03 160.13 131.45 161.00 132.25 161.29 C 133.05 161.58 133.93 161.16 134.21 160.36 L 134.56 159.39 C 134.84 158.59 134.43 157.71 133.63 157.43 C 132.83 157.14 131.95 157.56 131.67 158.36 Z M 131.33 159.32 L 131.00 160.23 C 130.71 161.03 131.12 161.90 131.92 162.19 C 132.71 162.48 133.58 162.07 133.87 161.27 L 134.20 160.36 C 134.49 159.57 134.08 158.70 133.28 158.41 C 132.49 158.12 131.62 158.53 131.33 159.32 Z M 131.01 160.23 L 130.66 161.18 C 130.38 161.97 130.78 162.84 131.57 163.13 C 132.36 163.42 133.23 163.01 133.52 162.22 L 133.86 161.27 C 134.15 160.49 133.74 159.61 132.96 159.33 C 132.17 159.04 131.30 159.44 131.01 160.23 Z M 130.67 161.18 L 130.33 162.10 C 130.04 162.89 130.43 163.76 131.22 164.05 C 132.00 164.34 132.87 163.94 133.16 163.16 L 133.51 162.23 C 133.80 161.45 133.40 160.57 132.62 160.28 C 131.83 159.99 130.96 160.39 130.67 161.18 Z M 130.33 162.09 L 129.97 163.03 C 129.67 163.81 130.06 164.69 130.84 164.99 C 131.62 165.28 132.49 164.89 132.79 164.12 L 133.16 163.17 C 133.45 162.39 133.06 161.52 132.29 161.22 C 131.51 160.92 130.63 161.31 130.33 162.09 Z M 129.98 163.02 L 129.61 163.94 C 129.31 164.71 129.69 165.59 130.46 165.90 C 131.24 166.21 132.11 165.83 132.42 165.05 L 132.79 164.13 C 133.09 163.36 132.71 162.48 131.94 162.17 C 131.16 161.86 130.29 162.24 129.98 163.02 Z M 129.62 163.92 L 129.24 164.86 C 128.92 165.64 129.29 166.52 130.06 166.83 C 130.83 167.15 131.71 166.78 132.03 166.01 L 132.41 165.07 C 132.73 164.29 132.36 163.41 131.59 163.10 C 130.82 162.78 129.94 163.15 129.62 163.92 Z M 129.24 164.85 L 128.87 165.75 C 128.55 166.52 128.91 167.40 129.68 167.72 C 130.44 168.04 131.33 167.68 131.65 166.91 L 132.02 166.02 C 132.34 165.25 131.98 164.37 131.21 164.05 C 130.45 163.72 129.56 164.09 129.24 164.85 Z M 128.87 165.75 L 128.49 166.66 C 128.17 167.43 128.53 168.31 129.30 168.63 C 130.07 168.95 130.95 168.58 131.27 167.82 L 131.65 166.91 C 131.97 166.14 131.60 165.26 130.84 164.94 C 130.07 164.62 129.19 164.99 128.87 165.75 Z M 128.48 166.69 L 128.12 167.62 C 127.82 168.39 128.20 169.26 128.97 169.56 C 129.75 169.87 130.62 169.48 130.92 168.71 L 131.28 167.78 C 131.58 167.01 131.20 166.14 130.43 165.84 C 129.65 165.54 128.78 165.92 128.48 166.69 Z M 128.11 167.65 L 127.77 168.60 C 127.48 169.37 127.88 170.23 128.66 170.51 C 129.44 170.80 130.30 170.40 130.58 169.62 L 130.92 168.68 C 131.21 167.90 130.81 167.04 130.03 166.76 C 129.26 166.48 128.40 166.87 128.11 167.65 Z M 127.77 168.61 L 127.60 169.08 C 127.32 169.85 127.73 170.71 128.50 170.99 C 129.28 171.26 130.13 170.86 130.41 170.08 L 130.58 169.61 C 130.86 168.84 130.45 167.98 129.68 167.70 C 128.90 167.43 128.05 167.83 127.77 168.61 Z"
      fill="black"
      fill-rule="nonzero" /><path d="M 136.78 158.96 L 137.52 159.61 C 138.15 160.15 139.10 160.08 139.64 159.45 C 140.19 158.82 140.12 157.87 139.49 157.33 L 138.75 156.68 C 138.12 156.14 137.17 156.21 136.62 156.84 C 136.08 157.47 136.15 158.42 136.78 158.96 Z M 137.25 159.31 L 137.81 160.13 C 138.27 160.82 139.21 161.01 139.90 160.54 C 140.59 160.08 140.78 159.14 140.31 158.45 L 139.76 157.62 C 139.29 156.93 138.35 156.75 137.66 157.21 C 136.97 157.68 136.79 158.61 137.25 159.31 Z M 137.63 159.77 L 137.95 160.73 C 138.21 161.52 139.07 161.95 139.86 161.68 C 140.65 161.42 141.07 160.56 140.81 159.77 L 140.49 158.81 C 140.23 158.02 139.37 157.60 138.58 157.86 C 137.79 158.12 137.36 158.98 137.63 159.77 Z M 137.90 160.55 L 138.11 161.55 C 138.27 162.37 139.07 162.89 139.88 162.73 C 140.70 162.56 141.23 161.76 141.06 160.95 L 140.86 159.95 C 140.69 159.13 139.89 158.61 139.08 158.77 C 138.26 158.94 137.73 159.74 137.90 160.55 Z M 138.09 161.45 L 138.22 162.43 C 138.33 163.25 139.09 163.83 139.91 163.72 C 140.74 163.61 141.31 162.85 141.20 162.03 L 141.07 161.05 C 140.96 160.23 140.21 159.65 139.38 159.76 C 138.56 159.87 137.98 160.63 138.09 161.45 Z M 138.22 162.36 L 138.31 163.35 C 138.38 164.18 139.11 164.78 139.93 164.71 C 140.76 164.64 141.37 163.91 141.29 163.09 L 141.21 162.09 C 141.13 161.27 140.40 160.66 139.58 160.73 C 138.76 160.81 138.15 161.54 138.22 162.36 Z M 138.31 163.33 L 138.39 164.33 C 138.45 165.15 139.17 165.77 139.99 165.71 C 140.81 165.64 141.43 164.93 141.36 164.11 L 141.29 163.11 C 141.23 162.28 140.51 161.67 139.69 161.73 C 138.87 161.79 138.25 162.51 138.31 163.33 Z M 138.40 164.33 L 138.47 165.26 C 138.53 166.08 139.24 166.69 140.06 166.63 C 140.87 166.57 141.49 165.86 141.43 165.04 L 141.36 164.11 C 141.30 163.29 140.58 162.68 139.77 162.74 C 138.95 162.80 138.33 163.51 138.40 164.33 Z M 138.47 165.22 L 138.52 166.32 C 138.56 167.14 139.25 167.77 140.06 167.73 C 140.88 167.69 141.51 167.00 141.47 166.18 L 141.42 165.09 C 141.38 164.27 140.69 163.64 139.88 163.68 C 139.06 163.71 138.43 164.41 138.47 165.22 Z M 138.53 166.27 L 138.55 167.52 C 138.56 168.33 139.22 168.98 140.04 168.97 C 140.85 168.95 141.49 168.29 141.48 167.48 L 141.47 166.23 C 141.45 165.42 140.79 164.77 139.98 164.78 C 139.16 164.79 138.52 165.46 138.53 166.27 Z M 138.56 167.51 L 138.56 167.62 C 138.56 168.42 139.22 169.07 140.03 169.06 C 140.84 169.05 141.48 168.39 141.47 167.59 L 141.47 167.48 C 141.47 166.68 140.81 166.03 140.00 166.04 C 139.19 166.05 138.55 166.71 138.56 167.51 Z M 141.46 167.61 L 141.47 166.48 C 141.47 165.68 140.83 165.03 140.03 165.02 C 139.23 165.02 138.58 165.66 138.58 166.46 L 138.57 167.59 C 138.57 168.39 139.21 169.04 140.01 169.05 C 140.81 169.05 141.46 168.41 141.46 167.61 Z M 141.46 166.49 L 141.47 165.28 C 141.48 164.48 140.85 163.83 140.06 163.82 C 139.27 163.81 138.62 164.44 138.60 165.24 L 138.59 166.45 C 138.57 167.24 139.21 167.89 140.00 167.90 C 140.79 167.92 141.44 167.28 141.46 166.49 Z M 141.47 165.31 L 141.50 164.33 C 141.53 163.54 140.92 162.87 140.13 162.84 C 139.34 162.81 138.67 163.43 138.64 164.22 L 138.61 165.20 C 138.58 165.99 139.20 166.66 139.99 166.69 C 140.78 166.72 141.44 166.10 141.47 165.31 Z M 141.50 164.38 L 141.57 163.43 C 141.63 162.64 141.04 161.96 140.25 161.90 C 139.46 161.84 138.78 162.43 138.72 163.22 L 138.65 164.17 C 138.59 164.95 139.18 165.64 139.97 165.70 C 140.75 165.76 141.44 165.17 141.50 164.38 Z M 141.56 163.57 L 141.72 162.59 C 141.86 161.81 141.33 161.07 140.55 160.94 C 139.77 160.81 139.03 161.33 138.90 162.11 L 138.73 163.08 C 138.60 163.86 139.12 164.61 139.90 164.74 C 140.69 164.87 141.43 164.35 141.56 163.57 Z M 141.68 162.79 L 141.98 161.86 C 142.22 161.10 141.81 160.29 141.05 160.05 C 140.29 159.81 139.48 160.22 139.24 160.98 L 138.94 161.91 C 138.70 162.67 139.12 163.48 139.87 163.72 C 140.63 163.97 141.44 163.55 141.68 162.79 Z M 141.92 162.04 L 142.35 161.12 C 142.70 160.40 142.39 159.54 141.67 159.20 C 140.95 158.85 140.08 159.16 139.74 159.88 L 139.30 160.80 C 138.96 161.52 139.27 162.38 139.99 162.72 C 140.71 163.07 141.57 162.76 141.92 162.04 Z M 142.26 161.31 L 142.82 160.46 C 143.27 159.79 143.09 158.89 142.42 158.44 C 141.76 157.99 140.85 158.17 140.41 158.84 L 139.84 159.69 C 139.39 160.36 139.57 161.26 140.24 161.71 C 140.91 162.15 141.81 161.98 142.26 161.31 Z M 142.68 160.65 L 143.36 159.93 C 143.92 159.35 143.89 158.42 143.31 157.87 C 142.72 157.31 141.80 157.34 141.24 157.92 L 140.56 158.64 C 140.00 159.23 140.03 160.15 140.61 160.71 C 141.20 161.26 142.12 161.24 142.68 160.65 Z M 143.13 160.14 L 143.96 159.57 C 144.63 159.12 144.80 158.20 144.34 157.53 C 143.88 156.86 142.97 156.69 142.30 157.15 L 141.47 157.72 C 140.80 158.17 140.63 159.09 141.09 159.76 C 141.55 160.43 142.46 160.60 143.13 160.14 Z M 143.68 159.73 L 144.60 159.36 C 145.35 159.06 145.72 158.20 145.41 157.44 C 145.11 156.69 144.25 156.32 143.50 156.62 L 142.58 157.00 C 141.82 157.30 141.46 158.16 141.76 158.91 C 142.06 159.67 142.92 160.03 143.68 159.73 Z M 144.33 159.44 L 145.33 159.25 C 146.13 159.09 146.65 158.31 146.50 157.51 C 146.34 156.71 145.56 156.19 144.76 156.34 L 143.76 156.54 C 142.96 156.70 142.44 157.48 142.59 158.28 C 142.75 159.08 143.53 159.60 144.33 159.44 Z M 145.06 159.28 L 146.04 159.27 C 146.86 159.26 147.51 158.59 147.50 157.77 C 147.49 156.95 146.82 156.29 146.00 156.30 L 145.03 156.31 C 144.20 156.32 143.55 156.99 143.56 157.81 C 143.57 158.64 144.24 159.29 145.06 159.28 Z M 145.64 159.23 L 146.63 159.49 C 147.43 159.70 148.25 159.22 148.45 158.42 C 148.66 157.62 148.18 156.80 147.38 156.59 L 146.39 156.34 C 145.59 156.13 144.78 156.61 144.57 157.41 C 144.36 158.21 144.84 159.03 145.64 159.23 Z M 145.85 159.01 L 146.42 159.69 C 146.96 160.32 147.91 160.41 148.54 159.87 C 149.18 159.34 149.26 158.39 148.73 157.75 L 148.16 157.07 C 147.62 156.44 146.67 156.35 146.04 156.89 C 145.40 157.42 145.32 158.37 145.85 159.01 Z M 146.09 158.98 L 146.27 160.01 C 146.42 160.83 147.20 161.38 148.02 161.23 C 148.84 161.09 149.39 160.30 149.24 159.48 L 149.06 158.45 C 148.91 157.63 148.13 157.09 147.31 157.23 C 146.49 157.38 145.94 158.16 146.09 158.98 Z M 146.25 159.71 L 146.23 160.71 C 146.21 161.54 146.87 162.24 147.70 162.26 C 148.53 162.28 149.22 161.62 149.24 160.79 L 149.27 159.78 C 149.29 158.95 148.63 158.26 147.80 158.24 C 146.96 158.22 146.27 158.88 146.25 159.71 Z M 146.25 160.49 L 146.08 161.48 C 145.93 162.30 146.48 163.08 147.30 163.22 C 148.11 163.37 148.90 162.82 149.04 162.00 L 149.22 161.01 C 149.36 160.19 148.82 159.41 148.00 159.27 C 147.18 159.12 146.40 159.67 146.25 160.49 Z M 146.15 161.22 L 145.83 162.08 C 145.55 162.86 145.95 163.73 146.72 164.01 C 147.50 164.30 148.37 163.90 148.65 163.12 L 148.97 162.26 C 149.25 161.48 148.86 160.62 148.08 160.33 C 147.30 160.05 146.44 160.44 146.15 161.22 Z M 145.92 161.90 L 145.43 162.83 C 145.04 163.56 145.33 164.47 146.06 164.85 C 146.79 165.24 147.70 164.96 148.08 164.22 L 148.57 163.30 C 148.95 162.57 148.67 161.66 147.94 161.28 C 147.21 160.89 146.30 161.17 145.92 161.90 Z M 145.47 162.77 L 144.96 163.63 C 144.54 164.35 144.78 165.26 145.49 165.68 C 146.20 166.10 147.12 165.86 147.54 165.15 L 148.05 164.28 C 148.47 163.57 148.23 162.65 147.52 162.23 C 146.80 161.82 145.88 162.05 145.47 162.77 Z M 144.97 163.61 L 144.43 164.48 C 144.00 165.19 144.22 166.11 144.92 166.55 C 145.63 166.98 146.55 166.76 146.98 166.06 L 147.52 165.18 C 147.96 164.47 147.74 163.55 147.03 163.12 C 146.33 162.68 145.41 162.90 144.97 163.61 Z M 144.45 164.45 L 143.90 165.30 C 143.45 165.99 143.65 166.92 144.34 167.37 C 145.04 167.82 145.96 167.63 146.42 166.93 L 146.96 166.09 C 147.41 165.39 147.22 164.46 146.52 164.01 C 145.83 163.56 144.90 163.76 144.45 164.45 Z M 143.94 165.25 L 143.33 166.11 C 142.85 166.78 143.01 167.72 143.68 168.20 C 144.36 168.68 145.29 168.52 145.77 167.84 L 146.38 166.98 C 146.86 166.31 146.70 165.37 146.03 164.89 C 145.35 164.41 144.41 164.57 143.94 165.25 Z M 143.39 166.03 L 142.78 166.77 C 142.26 167.42 142.35 168.36 142.99 168.88 C 143.64 169.41 144.58 169.31 145.10 168.67 L 145.71 167.92 C 146.23 167.28 146.14 166.33 145.49 165.81 C 144.85 165.29 143.91 165.39 143.39 166.03 Z M 142.85 166.69 L 142.17 167.42 C 141.60 168.02 141.63 168.97 142.24 169.53 C 142.84 170.10 143.79 170.07 144.35 169.47 L 145.03 168.75 C 145.60 168.15 145.57 167.20 144.97 166.63 C 144.36 166.06 143.42 166.09 142.85 166.69 Z M 142.25 167.34 L 141.49 168.04 C 140.89 168.60 140.85 169.55 141.41 170.15 C 141.97 170.76 142.91 170.80 143.52 170.24 L 144.27 169.54 C 144.88 168.98 144.92 168.04 144.36 167.43 C 143.80 166.82 142.86 166.79 142.25 167.34 Z M 141.62 167.95 L 140.82 168.54 C 140.17 169.03 140.03 169.96 140.52 170.62 C 141.02 171.28 141.95 171.41 142.61 170.92 L 143.40 170.33 C 144.05 169.84 144.19 168.91 143.70 168.25 C 143.21 167.59 142.27 167.46 141.62 167.95 Z M 141.03 168.43 L 140.14 168.89 C 139.42 169.27 139.14 170.16 139.52 170.88 C 139.90 171.60 140.79 171.88 141.51 171.50 L 142.40 171.04 C 143.12 170.66 143.40 169.77 143.02 169.05 C 142.64 168.33 141.75 168.05 141.03 168.43 Z M 140.26 168.85 L 139.84 169.03 C 139.10 169.34 138.75 170.19 139.06 170.94 C 139.37 171.68 140.22 172.03 140.97 171.72 L 141.39 171.54 C 142.13 171.23 142.48 170.38 142.17 169.63 C 141.86 168.89 141.00 168.54 140.26 168.85 Z"
      fill="black"
      fill-rule="nonzero" /><path d="M 151.01 131.68 L 151.95 132.03 C 152.71 132.33 153.57 131.94 153.86 131.18 C 154.15 130.41 153.77 129.55 153.00 129.26 L 152.07 128.91 C 151.30 128.62 150.44 129.00 150.15 129.77 C 149.86 130.53 150.25 131.39 151.01 131.68 Z M 151.90 132.02 L 152.82 132.41 C 153.58 132.73 154.45 132.37 154.77 131.61 C 155.08 130.86 154.73 129.98 153.97 129.67 L 153.05 129.28 C 152.29 128.96 151.42 129.31 151.10 130.07 C 150.78 130.83 151.14 131.70 151.90 132.02 Z M 152.74 132.36 L 153.61 132.79 C 154.35 133.16 155.23 132.86 155.59 132.12 C 155.96 131.39 155.66 130.50 154.92 130.14 L 154.05 129.71 C 153.32 129.35 152.43 129.65 152.07 130.38 C 151.71 131.11 152.01 132.00 152.74 132.36 Z M 153.58 132.75 L 154.46 133.23 C 155.17 133.61 156.05 133.35 156.44 132.64 C 156.82 131.94 156.56 131.05 155.85 130.67 L 154.96 130.19 C 154.25 129.81 153.37 130.07 152.99 130.78 C 152.61 131.48 152.87 132.37 153.58 132.75 Z M 154.47 133.21 L 155.34 133.68 C 156.04 134.06 156.91 133.81 157.29 133.11 C 157.67 132.41 157.41 131.54 156.71 131.16 L 155.84 130.69 C 155.15 130.31 154.27 130.57 153.89 131.26 C 153.52 131.96 153.77 132.83 154.47 133.21 Z M 155.35 133.68 L 156.24 134.16 C 156.94 134.53 157.80 134.27 158.17 133.57 C 158.55 132.87 158.28 132.01 157.59 131.64 L 156.70 131.16 C 156.01 130.79 155.14 131.05 154.77 131.75 C 154.40 132.45 154.66 133.31 155.35 133.68 Z M 156.24 134.16 L 156.94 134.52 C 157.63 134.89 158.50 134.63 158.87 133.93 C 159.24 133.24 158.97 132.37 158.28 132.00 L 157.58 131.64 C 156.89 131.27 156.02 131.53 155.65 132.23 C 155.28 132.92 155.55 133.79 156.24 134.16 Z"
      fill="black"
      fill-rule="nonzero" /><path d="M 165.84 130.00 L 164.82 129.82 C 164.00 129.68 163.23 130.23 163.08 131.04 C 162.94 131.86 163.48 132.64 164.30 132.78 L 165.32 132.96 C 166.14 133.11 166.92 132.56 167.06 131.74 C 167.20 130.92 166.66 130.14 165.84 130.00 Z M 164.36 129.82 L 163.44 129.95 C 162.62 130.06 162.05 130.82 162.16 131.63 C 162.27 132.45 163.03 133.03 163.85 132.91 L 164.77 132.79 C 165.59 132.67 166.16 131.92 166.05 131.10 C 165.93 130.28 165.18 129.71 164.36 129.82 Z M 162.79 130.20 L 161.99 130.75 C 161.31 131.22 161.14 132.15 161.61 132.83 C 162.08 133.52 163.01 133.69 163.69 133.22 L 164.49 132.67 C 165.18 132.20 165.35 131.26 164.88 130.58 C 164.41 129.90 163.47 129.72 162.79 130.20 Z M 161.77 130.92 L 161.04 131.66 C 160.46 132.25 160.47 133.21 161.06 133.79 C 161.65 134.38 162.61 134.37 163.19 133.77 L 163.92 133.04 C 164.50 132.45 164.49 131.49 163.90 130.91 C 163.31 130.32 162.35 130.33 161.77 130.92 Z M 161.00 131.71 L 160.32 132.45 C 159.76 133.07 159.81 134.03 160.43 134.58 C 161.05 135.14 162.00 135.10 162.56 134.48 L 163.24 133.73 C 163.80 133.11 163.75 132.16 163.13 131.60 C 162.51 131.04 161.56 131.09 161.00 131.71 Z M 160.32 132.47 L 159.64 133.23 C 159.09 133.85 159.15 134.80 159.77 135.35 C 160.39 135.90 161.34 135.84 161.89 135.22 L 162.57 134.46 C 163.12 133.84 163.06 132.89 162.44 132.34 C 161.82 131.79 160.87 131.85 160.32 132.47 Z M 159.65 133.22 L 158.99 133.96 C 158.43 134.57 158.48 135.52 159.09 136.08 C 159.71 136.63 160.66 136.58 161.21 135.97 L 161.88 135.23 C 162.43 134.62 162.39 133.67 161.77 133.11 C 161.16 132.56 160.21 132.61 159.65 133.22 Z M 159.00 133.95 L 158.33 134.67 C 157.77 135.28 157.80 136.22 158.41 136.79 C 159.01 137.35 159.96 137.31 160.52 136.71 L 161.19 135.98 C 161.76 135.38 161.72 134.43 161.12 133.87 C 160.51 133.31 159.57 133.34 159.00 133.95 Z M 158.34 134.66 L 157.65 135.39 C 157.08 135.99 157.11 136.94 157.71 137.50 C 158.31 138.07 159.25 138.05 159.82 137.45 L 160.51 136.72 C 161.08 136.12 161.05 135.17 160.45 134.60 C 159.85 134.04 158.91 134.06 158.34 134.66 Z M 157.64 135.39 L 156.97 136.11 C 156.41 136.72 156.44 137.66 157.04 138.23 C 157.65 138.79 158.60 138.76 159.16 138.16 L 159.83 137.44 C 160.40 136.84 160.36 135.89 159.76 135.32 C 159.15 134.76 158.21 134.79 157.64 135.39 Z M 156.97 136.11 L 156.30 136.83 C 155.73 137.44 155.77 138.39 156.37 138.96 C 156.98 139.52 157.93 139.48 158.50 138.88 L 159.17 138.16 C 159.73 137.55 159.69 136.60 159.09 136.03 C 158.48 135.47 157.53 135.51 156.97 136.11 Z M 156.31 136.81 L 155.60 137.54 C 155.02 138.14 155.04 139.09 155.64 139.67 C 156.24 140.25 157.19 140.23 157.77 139.64 L 158.48 138.90 C 159.06 138.30 159.04 137.35 158.44 136.77 C 157.85 136.20 156.89 136.21 156.31 136.81 Z M 155.62 137.52 L 154.90 138.23 C 154.31 138.82 154.31 139.78 154.90 140.37 C 155.49 140.96 156.44 140.96 157.03 140.37 L 157.75 139.66 C 158.34 139.07 158.34 138.12 157.75 137.53 C 157.17 136.94 156.21 136.93 155.62 137.52 Z M 154.90 138.23 L 154.19 138.94 C 153.60 139.53 153.60 140.49 154.19 141.08 C 154.78 141.67 155.74 141.67 156.33 141.08 L 157.04 140.37 C 157.63 139.78 157.63 138.82 157.04 138.23 C 156.45 137.64 155.49 137.64 154.90 138.23 Z M 154.12 139.01 L 153.32 139.91 C 152.77 140.54 152.83 141.50 153.46 142.06 C 154.09 142.61 155.05 142.55 155.60 141.92 L 156.40 141.01 C 156.95 140.39 156.89 139.43 156.26 138.87 C 155.63 138.32 154.68 138.38 154.12 139.01 Z M 152.95 141.05 L 152.99 141.54 C 153.07 142.38 153.80 143.00 154.63 142.93 C 155.47 142.85 156.09 142.12 156.02 141.29 L 155.97 140.79 C 155.90 139.95 155.17 139.34 154.33 139.41 C 153.50 139.48 152.88 140.21 152.95 141.05 Z M 154.57 142.92 L 155.67 142.88 C 156.51 142.84 157.15 142.13 157.12 141.30 C 157.08 140.47 156.38 139.82 155.54 139.86 L 154.44 139.91 C 153.61 139.94 152.96 140.65 153.00 141.48 C 153.03 142.31 153.74 142.96 154.57 142.92 Z M 155.88 142.84 L 156.87 142.66 C 157.69 142.51 158.23 141.73 158.08 140.92 C 157.94 140.10 157.15 139.56 156.34 139.71 L 155.34 139.89 C 154.52 140.04 153.98 140.82 154.13 141.64 C 154.28 142.45 155.06 142.99 155.88 142.84 Z M 156.93 142.64 L 157.89 142.43 C 158.69 142.25 159.20 141.45 159.02 140.65 C 158.84 139.84 158.04 139.33 157.24 139.51 L 156.28 139.73 C 155.48 139.91 154.97 140.71 155.15 141.51 C 155.33 142.32 156.13 142.82 156.93 142.64 Z M 157.90 142.42 L 158.87 142.19 C 159.67 142.00 160.17 141.21 159.98 140.41 C 159.80 139.61 159.00 139.11 158.20 139.30 L 157.22 139.53 C 156.42 139.71 155.93 140.51 156.11 141.31 C 156.30 142.11 157.10 142.61 157.90 142.42 Z M 158.87 142.18 L 159.81 141.97 C 160.60 141.78 161.10 140.99 160.91 140.20 C 160.73 139.40 159.94 138.91 159.14 139.09 L 158.20 139.31 C 157.41 139.49 156.91 140.28 157.10 141.08 C 157.28 141.87 158.07 142.37 158.87 142.18 Z M 159.80 141.96 L 160.79 141.73 C 161.58 141.55 162.08 140.77 161.90 139.98 C 161.72 139.19 160.93 138.69 160.14 138.87 L 159.15 139.10 C 158.36 139.28 157.87 140.06 158.05 140.85 C 158.23 141.64 159.01 142.14 159.80 141.96 Z M 160.79 141.72 L 161.75 141.50 C 162.54 141.32 163.03 140.54 162.85 139.75 C 162.67 138.97 161.88 138.48 161.10 138.66 L 160.14 138.88 C 159.35 139.06 158.86 139.85 159.04 140.63 C 159.22 141.42 160.01 141.91 160.79 141.72 Z M 161.75 141.50 L 162.73 141.27 C 163.52 141.10 164.01 140.32 163.83 139.53 C 163.65 138.75 162.87 138.26 162.09 138.44 L 161.10 138.66 C 160.32 138.84 159.83 139.62 160.01 140.40 C 160.19 141.19 160.96 141.68 161.75 141.50 Z M 162.71 141.27 L 163.72 141.06 C 164.51 140.89 165.00 140.12 164.84 139.34 C 164.67 138.56 163.90 138.06 163.12 138.23 L 162.11 138.44 C 161.33 138.61 160.83 139.38 161.00 140.16 C 161.16 140.94 161.93 141.44 162.71 141.27 Z M 163.70 141.05 L 164.68 140.86 C 165.46 140.71 165.97 139.95 165.82 139.17 C 165.66 138.39 164.91 137.88 164.13 138.04 L 163.15 138.23 C 162.37 138.38 161.86 139.14 162.01 139.92 C 162.16 140.70 162.92 141.21 163.70 141.05 Z M 164.66 140.86 L 165.65 140.67 C 166.43 140.53 166.94 139.78 166.80 139.00 C 166.65 138.23 165.90 137.71 165.13 137.86 L 164.14 138.04 C 163.36 138.18 162.85 138.93 162.99 139.71 C 163.14 140.49 163.89 141.00 164.66 140.86 Z M 165.64 140.67 L 165.97 140.61 C 166.75 140.47 167.26 139.73 167.12 138.95 C 166.98 138.17 166.23 137.66 165.46 137.80 L 165.13 137.86 C 164.35 138.00 163.84 138.75 163.98 139.52 C 164.12 140.30 164.87 140.81 165.64 140.67 Z"
      fill="black"
      fill-rule="nonzero" /><path d="M 154.39 150.04 L 155.27 149.83 C 156.08 149.64 156.57 148.84 156.39 148.04 C 156.20 147.24 155.40 146.74 154.60 146.93 L 153.72 147.14 C 152.91 147.32 152.42 148.12 152.60 148.93 C 152.79 149.73 153.59 150.22 154.39 150.04 Z M 155.29 149.83 L 156.24 149.60 C 157.04 149.41 157.54 148.60 157.34 147.80 C 157.14 146.99 156.34 146.50 155.53 146.70 L 154.58 146.93 C 153.78 147.12 153.29 147.93 153.48 148.74 C 153.68 149.54 154.49 150.03 155.29 149.83 Z M 156.26 149.60 L 157.34 149.32 C 158.14 149.11 158.63 148.29 158.42 147.49 C 158.21 146.69 157.39 146.21 156.59 146.42 L 155.51 146.70 C 154.71 146.90 154.22 147.72 154.43 148.53 C 154.64 149.33 155.46 149.81 156.26 149.60 Z M 157.36 149.32 L 158.31 149.06 C 159.11 148.84 159.59 148.01 159.37 147.21 C 159.15 146.41 158.32 145.94 157.52 146.16 L 156.57 146.42 C 155.77 146.64 155.29 147.47 155.51 148.27 C 155.73 149.07 156.56 149.54 157.36 149.32 Z M 158.32 149.05 L 159.32 148.77 C 160.12 148.55 160.59 147.72 160.36 146.92 C 160.14 146.13 159.31 145.66 158.52 145.88 L 157.51 146.16 C 156.71 146.39 156.25 147.21 156.47 148.01 C 156.70 148.81 157.52 149.28 158.32 149.05 Z M 159.32 148.77 L 160.31 148.49 C 161.10 148.27 161.57 147.45 161.34 146.65 C 161.12 145.85 160.29 145.39 159.50 145.61 L 158.52 145.89 C 157.72 146.11 157.25 146.93 157.48 147.73 C 157.70 148.53 158.53 148.99 159.32 148.77 Z M 160.29 148.49 L 161.27 148.23 C 162.07 148.01 162.53 147.19 162.32 146.39 C 162.10 145.60 161.28 145.13 160.48 145.35 L 159.51 145.61 C 158.71 145.83 158.25 146.65 158.46 147.45 C 158.68 148.24 159.50 148.71 160.29 148.49 Z M 161.24 148.22 L 162.32 147.95 C 163.11 147.74 163.59 146.94 163.39 146.15 C 163.19 145.35 162.38 144.88 161.59 145.08 L 160.51 145.35 C 159.72 145.55 159.24 146.36 159.44 147.15 C 159.65 147.94 160.45 148.42 161.24 148.22 Z M 162.28 147.94 L 163.16 147.73 C 163.95 147.55 164.44 146.77 164.26 145.98 C 164.08 145.20 163.29 144.70 162.51 144.88 L 161.63 145.09 C 160.84 145.27 160.35 146.05 160.53 146.84 C 160.71 147.63 161.49 148.12 162.28 147.94 Z M 163.12 147.73 L 164.06 147.54 C 164.84 147.38 165.35 146.62 165.19 145.83 C 165.03 145.05 164.27 144.54 163.48 144.70 L 162.55 144.89 C 161.76 145.05 161.26 145.81 161.42 146.60 C 161.57 147.38 162.34 147.89 163.12 147.73 Z M 164.00 147.54 L 164.97 147.39 C 165.75 147.26 166.29 146.52 166.16 145.74 C 166.04 144.95 165.30 144.42 164.52 144.55 L 163.54 144.70 C 162.76 144.83 162.23 145.56 162.35 146.35 C 162.48 147.13 163.21 147.67 164.00 147.54 Z M 164.88 147.39 L 165.86 147.30 C 166.65 147.22 167.23 146.52 167.15 145.73 C 167.08 144.95 166.38 144.37 165.59 144.45 L 164.61 144.54 C 163.82 144.62 163.24 145.31 163.32 146.10 C 163.39 146.89 164.09 147.47 164.88 147.39 Z M 165.80 147.30 L 166.80 147.25 C 167.58 147.21 168.19 146.54 168.15 145.75 C 168.11 144.96 167.44 144.36 166.65 144.40 L 165.66 144.44 C 164.87 144.48 164.26 145.15 164.30 145.94 C 164.34 146.73 165.01 147.34 165.80 147.30 Z M 166.78 147.25 L 166.96 147.24 C 167.75 147.21 168.36 146.55 168.33 145.76 C 168.30 144.97 167.64 144.36 166.85 144.39 L 166.67 144.40 C 165.88 144.43 165.27 145.09 165.30 145.88 C 165.33 146.66 165.99 147.28 166.78 147.25 Z"
      fill="black"
      fill-rule="nonzero" /><path d="M 153.31 157.98 L 154.29 157.94 C 155.10 157.91 155.74 157.22 155.70 156.41 C 155.67 155.60 154.99 154.97 154.17 155.00 L 153.19 155.04 C 152.38 155.07 151.75 155.76 151.78 156.57 C 151.81 157.38 152.50 158.01 153.31 157.98 Z M 154.36 157.93 L 155.36 157.84 C 156.16 157.77 156.76 157.07 156.69 156.26 C 156.62 155.46 155.92 154.86 155.11 154.93 L 154.11 155.01 C 153.30 155.08 152.70 155.79 152.77 156.59 C 152.84 157.40 153.55 158.00 154.36 157.93 Z M 155.47 157.83 L 156.49 157.66 C 157.29 157.53 157.83 156.78 157.70 155.98 C 157.57 155.18 156.82 154.64 156.02 154.77 L 155.00 154.94 C 154.20 155.07 153.66 155.82 153.79 156.62 C 153.92 157.42 154.67 157.96 155.47 157.83 Z M 156.58 157.66 L 157.58 157.43 C 158.37 157.25 158.87 156.46 158.69 155.67 C 158.52 154.87 157.72 154.37 156.93 154.55 L 155.93 154.78 C 155.14 154.96 154.64 155.75 154.82 156.54 C 155.00 157.34 155.79 157.84 156.58 157.66 Z M 157.62 157.44 L 158.59 157.19 C 159.39 156.99 159.87 156.18 159.67 155.38 C 159.46 154.58 158.65 154.10 157.85 154.30 L 156.89 154.55 C 156.09 154.75 155.61 155.56 155.81 156.36 C 156.01 157.16 156.82 157.64 157.62 157.44 Z M 158.60 157.20 L 159.56 156.94 C 160.36 156.73 160.84 155.92 160.63 155.12 C 160.42 154.32 159.60 153.84 158.80 154.05 L 157.84 154.30 C 157.04 154.51 156.56 155.33 156.77 156.13 C 156.98 156.93 157.80 157.41 158.60 157.20 Z M 159.58 156.94 L 160.49 156.69 C 161.29 156.47 161.76 155.65 161.54 154.85 C 161.33 154.05 160.50 153.59 159.71 153.80 L 158.79 154.05 C 157.99 154.27 157.52 155.09 157.74 155.89 C 157.96 156.69 158.78 157.16 159.58 156.94 Z M 160.50 156.68 L 161.47 156.41 C 162.27 156.19 162.73 155.37 162.51 154.57 C 162.29 153.78 161.46 153.31 160.67 153.54 L 159.70 153.81 C 158.90 154.03 158.44 154.85 158.66 155.65 C 158.88 156.44 159.71 156.91 160.50 156.68 Z M 161.47 156.41 L 162.43 156.14 C 163.22 155.92 163.68 155.10 163.46 154.31 C 163.24 153.52 162.42 153.05 161.63 153.27 L 160.67 153.54 C 159.88 153.76 159.41 154.58 159.63 155.37 C 159.85 156.17 160.68 156.63 161.47 156.41 Z M 162.44 156.14 L 163.41 155.86 C 164.20 155.63 164.66 154.80 164.43 154.02 C 164.20 153.23 163.38 152.77 162.59 153.00 L 161.61 153.28 C 160.82 153.51 160.37 154.33 160.60 155.12 C 160.82 155.91 161.65 156.36 162.44 156.14 Z M 163.44 155.84 L 164.40 155.54 C 165.19 155.30 165.62 154.47 165.38 153.69 C 165.14 152.91 164.31 152.47 163.53 152.71 L 162.56 153.01 C 161.78 153.25 161.34 154.08 161.58 154.86 C 161.83 155.65 162.66 156.08 163.44 155.84 Z M 164.41 155.53 L 165.34 155.24 C 166.12 155.00 166.55 154.17 166.30 153.39 C 166.06 152.62 165.23 152.19 164.46 152.43 L 163.53 152.72 C 162.75 152.97 162.32 153.79 162.56 154.57 C 162.81 155.35 163.63 155.78 164.41 155.53 Z M 165.33 155.24 L 166.24 154.96 C 167.01 154.72 167.45 153.90 167.21 153.13 C 166.97 152.35 166.15 151.92 165.38 152.16 L 164.47 152.43 C 163.70 152.67 163.26 153.49 163.50 154.27 C 163.73 155.04 164.55 155.47 165.33 155.24 Z M 166.24 154.95 L 167.20 154.65 C 167.97 154.41 168.40 153.60 168.17 152.83 C 167.93 152.06 167.11 151.63 166.34 151.87 L 165.37 152.16 C 164.61 152.40 164.17 153.22 164.41 153.99 C 164.65 154.76 165.47 155.19 166.24 154.95 Z M 167.21 154.64 L 168.12 154.36 C 168.88 154.11 169.30 153.30 169.06 152.53 C 168.82 151.77 168.00 151.34 167.23 151.59 L 166.33 151.87 C 165.57 152.12 165.14 152.93 165.39 153.70 C 165.63 154.46 166.45 154.89 167.21 154.64 Z M 168.13 154.35 L 169.13 154.02 C 169.89 153.77 170.31 152.95 170.06 152.19 C 169.81 151.43 168.99 151.02 168.23 151.26 L 167.22 151.59 C 166.46 151.84 166.05 152.66 166.30 153.42 C 166.55 154.18 167.36 154.60 168.13 154.35 Z M 169.14 154.01 L 170.11 153.69 C 170.87 153.43 171.28 152.61 171.02 151.85 C 170.77 151.10 169.95 150.69 169.19 150.95 L 168.22 151.27 C 167.47 151.53 167.06 152.35 167.31 153.10 C 167.57 153.86 168.39 154.27 169.14 154.01 Z M 170.12 153.68 L 171.06 153.36 C 171.82 153.10 172.22 152.28 171.96 151.52 C 171.70 150.77 170.88 150.37 170.12 150.63 L 169.18 150.95 C 168.43 151.21 168.03 152.03 168.29 152.79 C 168.55 153.54 169.37 153.94 170.12 153.68 Z M 171.07 153.36 L 172.03 153.02 C 172.78 152.76 173.18 151.94 172.92 151.18 C 172.65 150.43 171.83 150.03 171.08 150.29 L 170.12 150.63 C 169.36 150.89 168.97 151.71 169.23 152.47 C 169.49 153.22 170.31 153.62 171.07 153.36 Z M 172.03 153.02 L 172.52 152.85 C 173.28 152.59 173.68 151.76 173.41 151.01 C 173.15 150.25 172.32 149.86 171.57 150.12 L 171.07 150.29 C 170.32 150.56 169.92 151.38 170.19 152.14 C 170.45 152.89 171.27 153.29 172.03 153.02 Z"
      fill="black"
      fill-rule="nonzero" /><path d="M 158.72 141.99 L 158.29 142.86 C 157.93 143.60 158.24 144.49 158.97 144.85 C 159.71 145.21 160.59 144.90 160.95 144.17 L 161.38 143.30 C 161.74 142.56 161.43 141.67 160.70 141.31 C 159.96 140.95 159.08 141.26 158.72 141.99 Z M 158.12 143.31 L 157.98 144.30 C 157.87 145.13 158.46 145.89 159.29 146.01 C 160.12 146.12 160.88 145.54 160.99 144.70 L 161.13 143.72 C 161.24 142.89 160.66 142.12 159.83 142.01 C 158.99 141.90 158.23 142.48 158.12 143.31 Z M 157.97 144.73 L 158.12 145.73 C 158.25 146.57 159.03 147.15 159.87 147.02 C 160.71 146.89 161.28 146.11 161.16 145.27 L 161.01 144.27 C 160.88 143.44 160.10 142.86 159.26 142.98 C 158.42 143.11 157.85 143.89 157.97 144.73 Z M 158.14 145.85 L 158.38 146.86 C 158.57 147.68 159.40 148.20 160.22 148.00 C 161.05 147.81 161.56 146.98 161.37 146.16 L 161.14 145.15 C 160.94 144.33 160.12 143.81 159.29 144.00 C 158.46 144.20 157.95 145.02 158.14 145.85 Z M 158.37 146.84 L 158.58 147.81 C 158.77 148.64 159.59 149.16 160.42 148.98 C 161.25 148.80 161.78 147.97 161.59 147.14 L 161.38 146.17 C 161.19 145.34 160.37 144.82 159.54 145.00 C 158.71 145.18 158.18 146.01 158.37 146.84 Z M 158.58 147.79 L 158.77 148.73 C 158.94 149.56 159.76 150.10 160.60 149.93 C 161.43 149.76 161.97 148.94 161.80 148.10 L 161.60 147.16 C 161.43 146.33 160.61 145.79 159.77 145.96 C 158.94 146.13 158.40 146.95 158.58 147.79 Z M 158.77 148.71 L 158.96 149.70 C 159.12 150.54 159.93 151.08 160.77 150.92 C 161.61 150.75 162.16 149.94 161.99 149.10 L 161.80 148.12 C 161.64 147.28 160.82 146.73 159.99 146.90 C 159.15 147.06 158.60 147.87 158.77 148.71 Z M 158.95 149.67 L 159.12 150.65 C 159.27 151.49 160.08 152.06 160.92 151.91 C 161.76 151.76 162.32 150.96 162.17 150.11 L 162.00 149.13 C 161.85 148.29 161.05 147.73 160.21 147.88 C 159.36 148.02 158.80 148.83 158.95 149.67 Z M 159.12 150.62 L 159.27 151.61 C 159.41 152.45 160.20 153.03 161.05 152.89 C 161.89 152.76 162.47 151.97 162.33 151.12 L 162.18 150.14 C 162.04 149.30 161.25 148.72 160.41 148.85 C 159.56 148.99 158.99 149.78 159.12 150.62 Z M 159.27 151.59 L 159.42 152.59 C 159.54 153.43 160.33 154.02 161.17 153.90 C 162.02 153.77 162.60 152.99 162.48 152.14 L 162.34 151.14 C 162.21 150.29 161.43 149.71 160.58 149.83 C 159.73 149.95 159.15 150.74 159.27 151.59 Z M 159.42 152.57 L 159.55 153.55 C 159.66 154.39 160.44 154.99 161.29 154.87 C 162.14 154.76 162.73 153.98 162.62 153.13 L 162.48 152.16 C 162.37 151.31 161.59 150.72 160.74 150.83 C 159.89 150.95 159.30 151.73 159.42 152.57 Z M 159.55 153.53 L 159.67 154.55 C 159.78 155.40 160.55 156.00 161.40 155.90 C 162.25 155.79 162.85 155.02 162.74 154.17 L 162.62 153.15 C 162.51 152.30 161.74 151.70 160.89 151.80 C 160.04 151.91 159.44 152.68 159.55 153.53 Z M 159.67 154.53 L 159.78 155.51 C 159.87 156.36 160.64 156.97 161.48 156.87 C 162.33 156.78 162.95 156.02 162.85 155.17 L 162.75 154.19 C 162.65 153.34 161.89 152.73 161.04 152.82 C 160.19 152.92 159.58 153.68 159.67 154.53 Z M 159.78 155.49 L 159.87 156.48 C 159.96 157.33 160.71 157.95 161.56 157.87 C 162.41 157.79 163.03 157.03 162.95 156.18 L 162.85 155.19 C 162.77 154.34 162.02 153.72 161.17 153.80 C 160.32 153.88 159.70 154.64 159.78 155.49 Z M 159.87 156.46 L 159.96 157.48 C 160.03 158.33 160.78 158.96 161.63 158.89 C 162.48 158.81 163.11 158.07 163.04 157.22 L 162.95 156.20 C 162.88 155.35 162.13 154.72 161.28 154.79 C 160.43 154.87 159.80 155.61 159.87 156.46 Z M 159.96 157.46 L 160.03 158.44 C 160.10 159.29 160.84 159.93 161.69 159.86 C 162.54 159.80 163.17 159.06 163.11 158.21 L 163.04 157.23 C 162.97 156.38 162.23 155.75 161.38 155.81 C 160.53 155.87 159.90 156.61 159.96 157.46 Z M 160.04 158.42 L 160.10 159.43 C 160.16 160.28 160.89 160.92 161.74 160.86 C 162.59 160.81 163.23 160.07 163.17 159.23 L 163.11 158.22 C 163.05 157.37 162.32 156.73 161.47 156.79 C 160.62 156.84 159.98 157.58 160.04 158.42 Z M 160.10 159.41 L 160.16 160.43 C 160.21 161.28 160.93 161.92 161.78 161.88 C 162.63 161.83 163.28 161.10 163.23 160.26 L 163.17 159.24 C 163.13 158.39 162.40 157.74 161.55 157.79 C 160.70 157.84 160.05 158.56 160.10 159.41 Z M 160.16 160.41 L 160.21 161.39 C 160.25 162.24 160.97 162.89 161.81 162.85 C 162.66 162.81 163.32 162.09 163.28 161.25 L 163.23 160.27 C 163.19 159.42 162.47 158.77 161.62 158.81 C 160.77 158.85 160.12 159.57 160.16 160.41 Z M 160.21 161.38 L 160.25 162.38 C 160.28 163.23 160.99 163.89 161.84 163.85 C 162.69 163.82 163.35 163.11 163.31 162.26 L 163.27 161.26 C 163.24 160.41 162.53 159.75 161.68 159.79 C 160.83 159.82 160.18 160.53 160.21 161.38 Z M 160.25 162.37 L 160.28 163.39 C 160.31 164.24 161.02 164.90 161.86 164.87 C 162.71 164.85 163.37 164.14 163.34 163.29 L 163.31 162.27 C 163.28 161.43 162.58 160.76 161.73 160.79 C 160.89 160.82 160.22 161.52 160.25 162.37 Z M 160.28 163.38 L 160.31 164.39 C 160.33 165.24 161.03 165.91 161.88 165.89 C 162.72 165.86 163.39 165.16 163.37 164.32 L 163.34 163.30 C 163.32 162.46 162.62 161.79 161.77 161.81 C 160.93 161.84 160.26 162.54 160.28 163.38 Z M 160.31 164.39 L 160.33 165.40 C 160.35 166.24 161.04 166.91 161.89 166.90 C 162.73 166.88 163.41 166.18 163.39 165.34 L 163.37 164.33 C 163.35 163.48 162.65 162.81 161.81 162.82 C 160.96 162.84 160.29 163.54 160.31 164.39 Z M 160.33 165.39 L 160.34 166.38 C 160.35 167.22 161.05 167.90 161.90 167.89 C 162.74 167.87 163.42 167.18 163.40 166.33 L 163.39 165.34 C 163.38 164.50 162.68 163.82 161.84 163.84 C 160.99 163.85 160.32 164.54 160.33 165.39 Z M 160.34 166.37 L 160.35 167.40 C 160.36 168.25 161.05 168.93 161.90 168.92 C 162.74 168.91 163.42 168.22 163.41 167.37 L 163.40 166.34 C 163.40 165.50 162.71 164.82 161.86 164.82 C 161.01 164.83 160.33 165.52 160.34 166.37 Z M 160.35 167.39 L 160.35 168.40 C 160.36 169.25 161.04 169.93 161.89 169.93 C 162.74 169.93 163.42 169.24 163.42 168.39 L 163.42 167.38 C 163.41 166.54 162.72 165.85 161.88 165.85 C 161.03 165.86 160.35 166.55 160.35 167.39 Z M 160.35 168.40 L 160.35 169.36 C 160.35 170.20 161.04 170.89 161.89 170.89 C 162.74 170.89 163.42 170.20 163.42 169.35 L 163.42 168.40 C 163.42 167.55 162.73 166.86 161.88 166.86 C 161.04 166.86 160.35 167.55 160.35 168.40 Z M 160.35 169.36 L 160.35 170.37 C 160.35 171.22 161.04 171.91 161.89 171.91 C 162.73 171.91 163.42 171.22 163.42 170.37 L 163.42 169.36 C 163.42 168.51 162.73 167.82 161.89 167.82 C 161.04 167.82 160.35 168.51 160.35 169.36 Z M 160.35 170.37 L 160.35 171.37 C 160.35 172.22 161.04 172.91 161.89 172.91 C 162.74 172.91 163.42 172.22 163.42 171.37 L 163.42 170.37 C 163.42 169.52 162.74 168.84 161.89 168.84 C 161.04 168.84 160.35 169.52 160.35 170.37 Z M 160.35 171.37 L 160.35 172.36 C 160.35 173.21 161.04 173.90 161.89 173.90 C 162.74 173.90 163.42 173.21 163.42 172.36 L 163.42 171.37 C 163.43 170.52 162.74 169.83 161.89 169.83 C 161.04 169.83 160.35 170.52 160.35 171.37 Z M 160.35 172.35 L 160.34 173.37 C 160.34 174.22 161.02 174.91 161.87 174.92 C 162.72 174.92 163.42 174.23 163.42 173.38 L 163.43 172.37 C 163.43 171.51 162.75 170.82 161.89 170.82 C 161.04 170.81 160.35 171.50 160.35 172.35 Z M 160.34 173.34 L 160.31 174.30 C 160.29 175.15 160.96 175.86 161.82 175.88 C 162.67 175.91 163.37 175.24 163.40 174.38 L 163.42 173.42 C 163.44 172.57 162.77 171.86 161.92 171.83 C 161.07 171.81 160.36 172.48 160.34 173.34 Z M 160.32 174.24 L 160.25 175.28 C 160.19 176.13 160.84 176.87 161.69 176.92 C 162.54 176.98 163.27 176.33 163.33 175.48 L 163.39 174.44 C 163.45 173.59 162.81 172.86 161.96 172.80 C 161.11 172.75 160.37 173.39 160.32 174.24 Z M 160.25 175.22 L 160.15 176.17 C 160.06 177.02 160.68 177.78 161.52 177.87 C 162.37 177.96 163.13 177.35 163.22 176.50 L 163.32 175.55 C 163.41 174.70 162.80 173.94 161.95 173.85 C 161.10 173.76 160.34 174.37 160.25 175.22 Z M 160.16 176.12 L 160.02 177.13 C 159.90 177.98 160.48 178.76 161.33 178.88 C 162.17 178.99 162.95 178.41 163.07 177.56 L 163.21 176.55 C 163.33 175.71 162.74 174.93 161.90 174.81 C 161.06 174.69 160.28 175.28 160.16 176.12 Z M 160.02 177.10 L 159.87 178.06 C 159.73 178.90 160.30 179.70 161.14 179.83 C 161.98 179.97 162.78 179.39 162.91 178.55 L 163.07 177.59 C 163.20 176.75 162.63 175.96 161.79 175.82 C 160.95 175.69 160.16 176.26 160.02 177.10 Z M 159.88 178.00 L 159.68 178.97 C 159.50 179.80 160.04 180.62 160.87 180.79 C 161.71 180.96 162.52 180.43 162.70 179.59 L 162.90 178.62 C 163.07 177.79 162.54 176.97 161.70 176.80 C 160.87 176.62 160.05 177.16 159.88 178.00 Z M 159.74 178.75 L 159.33 179.87 C 159.04 180.68 159.45 181.56 160.26 181.85 C 161.06 182.14 161.94 181.73 162.23 180.93 L 162.64 179.81 C 162.93 179.00 162.51 178.12 161.71 177.83 C 160.91 177.54 160.03 177.95 159.74 178.75 Z M 159.94 179.11 L 159.61 179.32 C 158.90 179.79 158.69 180.74 159.16 181.46 C 159.62 182.17 160.58 182.37 161.30 181.91 L 161.62 181.69 C 162.34 181.23 162.54 180.27 162.08 179.56 C 161.61 178.84 160.65 178.64 159.94 179.11 Z M 161.99 180.72 L 162.07 179.55 C 162.13 178.70 161.49 177.97 160.64 177.91 C 159.79 177.85 159.05 178.49 159.00 179.34 L 158.92 180.51 C 158.86 181.36 159.50 182.09 160.35 182.15 C 161.20 182.21 161.93 181.57 161.99 180.72 Z M 162.02 179.76 L 162.21 178.82 C 162.38 178.00 161.86 177.20 161.04 177.03 C 160.21 176.86 159.41 177.38 159.24 178.20 L 159.05 179.14 C 158.87 179.96 159.40 180.76 160.22 180.93 C 161.04 181.11 161.85 180.58 162.02 179.76 Z M 162.17 178.86 L 162.41 177.86 C 162.60 177.06 162.11 176.26 161.31 176.07 C 160.51 175.88 159.71 176.37 159.52 177.17 L 159.28 178.17 C 159.09 178.97 159.58 179.77 160.38 179.96 C 161.18 180.15 161.98 179.66 162.17 178.86 Z M 162.39 177.82 L 162.60 176.85 C 162.77 176.06 162.27 175.28 161.48 175.12 C 160.69 174.95 159.92 175.45 159.75 176.24 L 159.54 177.20 C 159.37 177.99 159.87 178.77 160.66 178.94 C 161.45 179.11 162.22 178.61 162.39 177.82 Z M 162.59 176.81 L 162.78 175.82 C 162.93 175.04 162.42 174.28 161.63 174.13 C 160.85 173.99 160.09 174.50 159.94 175.28 L 159.76 176.27 C 159.61 177.06 160.12 177.81 160.90 177.96 C 161.69 178.11 162.44 177.60 162.59 176.81 Z M 162.77 175.81 L 162.91 175.06 C 163.05 174.28 162.53 173.53 161.75 173.39 C 160.98 173.25 160.23 173.77 160.09 174.55 L 159.95 175.30 C 159.81 176.08 160.33 176.82 161.11 176.96 C 161.89 177.10 162.63 176.59 162.77 175.81 Z"
      fill="black"
      fill-rule="nonzero" /></svg>