<svg xmlns="http://www.w3.org/2000/svg" width="300" height="300" viewBox="0 0 300 300">
<path d="M 144.24 135.82 L 145.15 135.93 C 146.01 136.03 146.80 135.42 146.90 134.56 C 147.01 133.69 146.39 132.91 145.53 132.80 L 144.62 132.69 C 143.76 132.59 142.97 133.20 142.87 134.06 C 142.76 134.93 143.38 135.71 144.24 135.82 Z M 145.20 135.93 L 146.22 136.02 C 147.09 136.10 147.85 135.46 147.93 134.59 C 148.01 133.73 147.37 132.96 146.50 132.89 L 145.48 132.80 C 144.61 132.72 143.85 133.36 143.77 134.23 C 143.69 135.09 144.33 135.86 145.20 135.93 Z M 146.29 136.03 L 147.27 136.07 C 148.14 136.11 148.88 135.44 148.92 134.57 C 148.96 133.70 148.29 132.97 147.42 132.93 L 146.43 132.88 C 145.56 132.84 144.83 133.52 144.79 134.38 C 144.75 135.25 145.42 135.99 146.29 136.03 Z M 147.32 136.08 L 148.28 136.09 C 149.15 136.11 149.87 135.42 149.89 134.55 C 149.91 133.68 149.22 132.96 148.35 132.95 L 147.38 132.93 C 146.51 132.91 145.79 133.60 145.77 134.47 C 145.76 135.34 146.45 136.06 147.32 136.08 Z M 148.30 136.09 L 149.34 136.10 C 150.21 136.11 150.92 135.41 150.93 134.55 C 150.94 133.68 150.24 132.96 149.37 132.96 L 148.33 132.95 C 147.46 132.94 146.75 133.64 146.74 134.50 C 146.73 135.37 147.43 136.09 148.30 136.09 Z M 149.35 136.10 L 150.42 136.11 C 151.29 136.12 152.00 135.42 152.01 134.55 C 152.02 133.68 151.32 132.97 150.45 132.97 L 149.37 132.96 C 148.50 132.95 147.79 133.65 147.79 134.52 C 147.78 135.38 148.48 136.09 149.35 136.10 Z M 150.41 136.11 L 151.47 136.12 C 152.34 136.13 153.05 135.44 153.06 134.57 C 153.07 133.71 152.38 133.00 151.51 132.98 L 150.46 132.97 C 149.59 132.96 148.88 133.65 148.87 134.52 C 148.85 135.39 149.55 136.10 150.41 136.11 Z M 151.47 136.12 L 152.49 136.13 C 153.35 136.15 154.06 135.46 154.07 134.60 C 154.09 133.73 153.40 133.02 152.54 133.01 L 151.52 132.99 C 150.66 132.98 149.95 133.66 149.93 134.53 C 149.92 135.39 150.60 136.10 151.47 136.12 Z M 152.48 136.13 L 153.42 136.15 C 154.28 136.16 154.99 135.48 155.01 134.62 C 155.02 133.76 154.34 133.05 153.48 133.03 L 152.54 133.01 C 151.68 133.00 150.97 133.68 150.96 134.54 C 150.94 135.40 151.62 136.11 152.48 136.13 Z M 153.41 136.14 L 154.51 136.16 C 155.36 136.19 156.07 135.51 156.09 134.66 C 156.12 133.80 155.44 133.09 154.59 133.07 L 153.49 133.04 C 152.64 133.02 151.93 133.70 151.90 134.55 C 151.88 135.40 152.56 136.11 153.41 136.14 Z M 154.43 136.14 L 155.39 136.22 C 156.24 136.28 156.97 135.65 157.03 134.81 C 157.10 133.97 156.47 133.23 155.63 133.17 L 154.66 133.09 C 153.82 133.03 153.09 133.66 153.02 134.50 C 152.96 135.34 153.59 136.08 154.43 136.14 Z M 155.16 136.16 L 156.07 136.37 C 156.88 136.56 157.69 136.06 157.88 135.25 C 158.07 134.44 157.57 133.62 156.76 133.43 L 155.85 133.22 C 155.04 133.03 154.23 133.53 154.04 134.35 C 153.85 135.16 154.35 135.97 155.16 136.16 Z M 155.79 136.26 L 156.68 136.67 C 157.43 137.01 158.32 136.68 158.66 135.94 C 159.01 135.19 158.68 134.30 157.93 133.96 L 157.03 133.55 C 156.28 133.20 155.40 133.53 155.06 134.28 C 154.71 135.03 155.04 135.91 155.79 136.26 Z M 156.60 136.61 L 156.84 136.74 C 157.56 137.13 158.46 136.87 158.85 136.15 C 159.23 135.43 158.97 134.53 158.25 134.14 L 158.01 134.01 C 157.29 133.62 156.40 133.89 156.01 134.61 C 155.62 135.33 155.88 136.22 156.60 136.61 Z"
      fill="black"
      fill-rule="nonzero" /><path d="M 144.76 130.15 L 144.57 131.11 C 144.41 131.91 144.93 132.69 145.74 132.85 C 146.54 133.00 147.31 132.48 147.47 131.68 L 147.66 130.72 C 147.82 129.92 147.30 129.14 146.49 128.99 C 145.69 128.83 144.91 129.35 144.76 130.15 Z M 144.55 131.14 L 144.38 132.13 C 144.24 132.95 144.78 133.72 145.60 133.86 C 146.41 134.00 147.19 133.45 147.33 132.64 L 147.49 131.65 C 147.63 130.83 147.09 130.06 146.27 129.92 C 145.46 129.78 144.69 130.33 144.55 131.14 Z M 144.35 132.20 L 144.22 133.22 C 144.12 134.05 144.70 134.80 145.53 134.91 C 146.36 135.01 147.11 134.43 147.22 133.60 L 147.35 132.58 C 147.45 131.75 146.87 131.00 146.04 130.89 C 145.22 130.79 144.46 131.37 144.35 132.20 Z M 144.21 133.27 L 144.12 134.30 C 144.05 135.13 144.66 135.87 145.49 135.94 C 146.33 136.01 147.06 135.40 147.14 134.57 L 147.23 133.54 C 147.30 132.71 146.69 131.98 145.86 131.90 C 145.02 131.83 144.29 132.44 144.21 133.27 Z M 144.12 134.33 L 144.05 135.30 C 144.00 136.13 144.63 136.86 145.47 136.91 C 146.30 136.97 147.03 136.33 147.08 135.50 L 147.14 134.53 C 147.20 133.69 146.56 132.97 145.73 132.92 C 144.89 132.86 144.17 133.50 144.12 134.33 Z M 144.05 135.32 L 144.00 136.37 C 143.95 137.21 144.60 137.92 145.44 137.96 C 146.27 138.00 146.99 137.36 147.03 136.52 L 147.08 135.47 C 147.13 134.64 146.48 133.92 145.64 133.88 C 144.80 133.84 144.09 134.48 144.05 135.32 Z M 144.00 136.37 L 143.95 137.31 C 143.91 138.15 144.55 138.86 145.39 138.90 C 146.23 138.95 146.94 138.30 146.98 137.46 L 147.03 136.52 C 147.07 135.68 146.43 134.97 145.59 134.93 C 144.75 134.89 144.04 135.53 144.00 136.37 Z M 143.95 137.29 L 143.89 138.29 C 143.84 139.13 144.47 139.85 145.31 139.90 C 146.15 139.95 146.87 139.31 146.92 138.48 L 146.98 137.48 C 147.03 136.64 146.40 135.92 145.56 135.87 C 144.72 135.82 144.00 136.46 143.95 137.29 Z M 143.89 138.29 L 143.83 139.30 C 143.78 140.14 144.42 140.85 145.26 140.90 C 146.09 140.95 146.81 140.31 146.86 139.48 L 146.92 138.47 C 146.97 137.63 146.33 136.92 145.49 136.87 C 144.66 136.82 143.94 137.46 143.89 138.29 Z M 143.83 139.32 L 143.78 140.32 C 143.75 141.16 144.39 141.87 145.23 141.91 C 146.07 141.94 146.78 141.30 146.82 140.46 L 146.86 139.46 C 146.90 138.62 146.25 137.91 145.42 137.87 C 144.58 137.83 143.87 138.48 143.83 139.32 Z M 143.78 140.31 L 143.73 141.30 C 143.68 142.14 144.33 142.86 145.16 142.90 C 146.00 142.95 146.71 142.31 146.76 141.47 L 146.82 140.47 C 146.86 139.64 146.22 138.92 145.38 138.87 C 144.55 138.83 143.83 139.47 143.78 140.31 Z M 143.73 141.29 L 143.66 142.28 C 143.61 143.12 144.24 143.84 145.08 143.90 C 145.91 143.95 146.64 143.32 146.69 142.48 L 146.76 141.49 C 146.82 140.65 146.18 139.93 145.35 139.87 C 144.51 139.82 143.79 140.45 143.73 141.29 Z M 143.66 142.30 L 143.61 143.27 C 143.57 144.11 144.21 144.82 145.04 144.87 C 145.88 144.91 146.60 144.27 146.64 143.43 L 146.69 142.47 C 146.74 141.63 146.10 140.91 145.26 140.87 C 144.42 140.82 143.71 141.46 143.66 142.30 Z M 143.61 143.31 L 143.58 144.32 C 143.56 145.16 144.21 145.85 145.05 145.88 C 145.89 145.90 146.59 145.25 146.61 144.41 L 146.64 143.40 C 146.67 142.56 146.01 141.86 145.17 141.84 C 144.33 141.81 143.64 142.47 143.61 143.31 Z M 143.58 144.35 L 143.57 145.34 C 143.56 146.18 144.23 146.86 145.07 146.87 C 145.90 146.88 146.59 146.21 146.60 145.37 L 146.61 144.38 C 146.62 143.55 145.95 142.86 145.11 142.85 C 144.28 142.84 143.59 143.51 143.58 144.35 Z M 143.57 145.35 L 143.57 146.37 C 143.57 147.21 144.24 147.89 145.08 147.89 C 145.91 147.89 146.59 147.21 146.59 146.38 L 146.60 145.36 C 146.60 144.53 145.92 143.85 145.09 143.85 C 144.25 143.84 143.58 144.52 143.57 145.35 Z M 143.57 146.41 L 143.60 147.52 C 143.61 148.35 144.30 149.02 145.14 149.00 C 145.97 148.98 146.63 148.29 146.61 147.46 L 146.59 146.34 C 146.57 145.51 145.89 144.85 145.05 144.87 C 144.22 144.88 143.56 145.57 143.57 146.41 Z M 143.68 147.97 L 143.95 148.78 C 144.21 149.56 145.06 149.99 145.85 149.73 C 146.64 149.47 147.06 148.62 146.80 147.83 L 146.53 147.02 C 146.27 146.23 145.42 145.80 144.63 146.07 C 143.84 146.33 143.42 147.18 143.68 147.97 Z M 145.09 149.77 L 145.97 149.94 C 146.78 150.10 147.56 149.58 147.72 148.77 C 147.88 147.95 147.36 147.17 146.55 147.01 L 145.66 146.84 C 144.85 146.68 144.07 147.20 143.91 148.01 C 143.75 148.82 144.28 149.61 145.09 149.77 Z M 146.71 149.89 L 147.71 149.57 C 148.49 149.32 148.92 148.49 148.67 147.70 C 148.42 146.92 147.58 146.49 146.80 146.74 L 145.80 147.06 C 145.02 147.31 144.59 148.15 144.84 148.93 C 145.09 149.71 145.93 150.14 146.71 149.89 Z M 147.94 149.47 L 148.83 149.01 C 149.56 148.63 149.84 147.73 149.46 147.00 C 149.08 146.28 148.18 146.00 147.45 146.38 L 146.56 146.84 C 145.84 147.22 145.56 148.12 145.94 148.85 C 146.32 149.57 147.22 149.85 147.94 149.47 Z M 148.88 148.98 L 149.75 148.48 C 150.46 148.07 150.71 147.16 150.30 146.45 C 149.89 145.74 148.99 145.50 148.28 145.91 L 147.41 146.41 C 146.70 146.81 146.45 147.72 146.86 148.43 C 147.26 149.14 148.17 149.38 148.88 148.98 Z M 149.74 148.48 L 150.61 147.99 C 151.32 147.59 151.57 146.69 151.17 145.98 C 150.77 145.26 149.87 145.01 149.16 145.41 L 148.29 145.90 C 147.58 146.30 147.33 147.20 147.73 147.92 C 148.13 148.63 149.03 148.88 149.74 148.48 Z M 150.57 148.01 L 151.44 147.55 C 152.16 147.17 152.44 146.28 152.06 145.55 C 151.68 144.83 150.78 144.56 150.06 144.94 L 149.20 145.40 C 148.48 145.78 148.20 146.67 148.58 147.39 C 148.96 148.11 149.85 148.39 150.57 148.01 Z M 151.36 147.58 L 152.29 147.16 C 153.03 146.82 153.35 145.95 153.02 145.21 C 152.68 144.47 151.80 144.14 151.06 144.48 L 150.14 144.90 C 149.40 145.24 149.07 146.12 149.41 146.86 C 149.75 147.60 150.62 147.92 151.36 147.58 Z M 152.18 147.20 L 153.13 146.86 C 153.89 146.57 154.28 145.73 154.00 144.96 C 153.72 144.20 152.87 143.81 152.11 144.09 L 151.16 144.44 C 150.40 144.72 150.01 145.57 150.29 146.33 C 150.57 147.10 151.42 147.49 152.18 147.20 Z M 152.98 146.90 L 153.97 146.65 C 154.76 146.46 155.24 145.65 155.05 144.86 C 154.85 144.07 154.05 143.59 153.26 143.79 L 152.26 144.04 C 151.47 144.24 150.99 145.04 151.19 145.83 C 151.39 146.62 152.19 147.10 152.98 146.90 Z M 153.62 146.71 L 154.65 146.71 C 155.47 146.70 156.13 146.04 156.13 145.22 C 156.12 144.39 155.46 143.73 154.64 143.73 L 153.61 143.74 C 152.79 143.74 152.13 144.41 152.13 145.23 C 152.13 146.05 152.80 146.71 153.62 146.71 Z M 153.69 146.38 L 154.34 146.92 C 154.98 147.45 155.93 147.36 156.46 146.72 C 156.99 146.07 156.89 145.13 156.25 144.60 L 155.60 144.06 C 154.95 143.53 154.01 143.62 153.48 144.27 C 152.95 144.91 153.04 145.85 153.69 146.38 Z M 153.83 146.14 L 154.09 147.15 C 154.30 147.96 155.13 148.44 155.94 148.23 C 156.75 148.02 157.24 147.19 157.03 146.38 L 156.77 145.38 C 156.55 144.57 155.73 144.08 154.92 144.29 C 154.11 144.50 153.62 145.33 153.83 146.14 Z M 154.04 146.86 L 154.10 147.86 C 154.16 148.70 154.88 149.34 155.73 149.28 C 156.57 149.23 157.20 148.50 157.15 147.66 L 157.08 146.66 C 157.03 145.82 156.30 145.19 155.46 145.24 C 154.62 145.30 153.98 146.02 154.04 146.86 Z M 154.10 147.77 L 154.10 148.77 C 154.11 149.61 154.79 150.29 155.64 150.29 C 156.48 150.28 157.16 149.59 157.16 148.75 L 157.16 147.75 C 157.15 146.91 156.46 146.23 155.62 146.23 C 154.77 146.23 154.09 146.92 154.10 147.77 Z M 154.10 148.76 L 154.10 149.76 C 154.10 150.60 154.78 151.29 155.63 151.29 C 156.48 151.29 157.16 150.60 157.16 149.76 L 157.16 148.76 C 157.16 147.91 156.48 147.23 155.63 147.23 C 154.78 147.23 154.10 147.91 154.10 148.76 Z M 154.10 149.76 L 154.10 150.75 C 154.10 151.60 154.78 152.29 155.63 152.29 C 156.48 152.29 157.16 151.60 157.16 150.75 L 157.16 149.76 C 157.16 148.91 156.48 148.22 155.63 148.22 C 154.78 148.22 154.10 148.91 154.10 149.76 Z M 154.10 150.74 L 154.09 151.74 C 154.09 152.59 154.77 153.28 155.62 153.29 C 156.46 153.29 157.15 152.61 157.16 151.76 L 157.16 150.76 C 157.17 149.91 156.49 149.22 155.64 149.22 C 154.79 149.21 154.10 149.90 154.10 150.74 Z M 154.09 151.72 L 154.07 152.72 C 154.06 153.56 154.73 154.26 155.58 154.28 C 156.43 154.29 157.12 153.62 157.14 152.77 L 157.16 151.78 C 157.17 150.93 156.50 150.23 155.65 150.22 C 154.81 150.20 154.11 150.88 154.09 151.72 Z M 154.07 152.69 L 154.03 153.69 C 154.00 154.54 154.66 155.25 155.51 155.28 C 156.36 155.32 157.07 154.66 157.10 153.81 L 157.14 152.80 C 157.17 151.96 156.51 151.24 155.67 151.21 C 154.82 151.18 154.11 151.84 154.07 152.69 Z M 154.04 153.65 L 153.97 154.67 C 153.91 155.51 154.55 156.25 155.40 156.30 C 156.24 156.36 156.97 155.72 157.03 154.87 L 157.10 153.85 C 157.16 153.01 156.52 152.28 155.67 152.22 C 154.83 152.16 154.09 152.80 154.04 153.65 Z M 153.98 154.57 L 153.85 155.57 C 153.74 156.41 154.33 157.18 155.17 157.29 C 156.01 157.40 156.78 156.81 156.89 155.97 L 157.02 154.97 C 157.13 154.13 156.54 153.36 155.70 153.25 C 154.86 153.14 154.09 153.73 153.98 154.57 Z M 153.89 155.38 L 153.63 156.34 C 153.42 157.16 153.90 158.00 154.72 158.21 C 155.54 158.43 156.38 157.94 156.59 157.13 L 156.85 156.16 C 157.07 155.34 156.58 154.50 155.76 154.29 C 154.94 154.07 154.10 154.56 153.89 155.38 Z M 153.70 156.14 L 153.32 157.06 C 152.99 157.84 153.36 158.73 154.14 159.06 C 154.92 159.39 155.82 159.02 156.14 158.24 L 156.53 157.32 C 156.85 156.54 156.48 155.65 155.70 155.32 C 154.93 155.00 154.03 155.36 153.70 156.14 Z M 153.35 156.99 L 153.20 157.31 C 152.84 158.08 153.16 158.99 153.93 159.35 C 154.69 159.71 155.60 159.38 155.96 158.62 L 156.11 158.30 C 156.47 157.54 156.15 156.63 155.38 156.27 C 154.62 155.90 153.71 156.23 153.35 156.99 Z"
      fill="black"
      fill-rule="nonzero" /><path d="M 148.55 147.92 L 148.06 148.81 C 147.65 149.56 147.93 150.49 148.67 150.90 C 149.42 151.31 150.35 151.04 150.76 150.29 L 151.25 149.40 C 151.66 148.65 151.39 147.72 150.64 147.31 C 149.89 146.90 148.96 147.17 148.55 147.92 Z M 147.98 148.97 L 147.61 149.87 C 147.29 150.66 147.66 151.57 148.45 151.89 C 149.24 152.21 150.15 151.83 150.47 151.04 L 150.84 150.14 C 151.16 149.35 150.79 148.44 150.00 148.12 C 149.21 147.80 148.30 148.18 147.98 148.97 Z M 147.54 150.10 L 147.31 151.07 C 147.12 151.90 147.63 152.73 148.46 152.92 C 149.29 153.12 150.12 152.61 150.31 151.78 L 150.54 150.81 C 150.74 149.99 150.22 149.15 149.39 148.96 C 148.57 148.76 147.74 149.28 147.54 150.10 Z M 147.31 151.12 L 147.11 152.09 C 146.94 152.92 147.47 153.73 148.30 153.90 C 149.13 154.07 149.94 153.53 150.11 152.71 L 150.31 151.73 C 150.48 150.90 149.95 150.10 149.12 149.92 C 148.29 149.75 147.48 150.29 147.31 151.12 Z M 147.13 152.08 L 146.91 153.07 C 146.74 153.89 147.26 154.70 148.08 154.87 C 148.90 155.05 149.71 154.53 149.89 153.71 L 150.10 152.72 C 150.27 151.90 149.75 151.09 148.93 150.91 C 148.11 150.73 147.30 151.26 147.13 152.08 Z M 146.93 153.08 L 146.74 153.99 C 146.57 154.80 147.09 155.60 147.91 155.76 C 148.72 155.93 149.52 155.41 149.69 154.59 L 149.87 153.69 C 150.04 152.88 149.52 152.08 148.70 151.91 C 147.89 151.75 147.09 152.27 146.93 153.08 Z M 146.76 153.99 L 146.54 155.04 C 146.37 155.85 146.89 156.63 147.69 156.80 C 148.50 156.97 149.28 156.45 149.45 155.65 L 149.67 154.59 C 149.83 153.79 149.32 153.00 148.51 152.84 C 147.71 152.67 146.92 153.19 146.76 153.99 Z M 146.56 155.04 L 146.36 155.94 C 146.19 156.73 146.70 157.51 147.49 157.68 C 148.29 157.85 149.07 157.35 149.24 156.55 L 149.43 155.65 C 149.60 154.86 149.09 154.08 148.30 153.91 C 147.51 153.74 146.73 154.24 146.56 155.04 Z M 146.38 155.93 L 146.16 156.94 C 145.99 157.72 146.49 158.50 147.27 158.67 C 148.06 158.84 148.84 158.34 149.01 157.56 L 149.22 156.55 C 149.40 155.77 148.90 154.99 148.11 154.82 C 147.32 154.65 146.55 155.15 146.38 155.93 Z M 146.17 156.94 L 145.99 157.78 C 145.81 158.56 146.31 159.34 147.09 159.51 C 147.87 159.68 148.64 159.18 148.81 158.40 L 149.00 157.56 C 149.17 156.78 148.67 156.00 147.89 155.83 C 147.11 155.66 146.34 156.16 146.17 156.94 Z"
      fill="black"
      fill-rule="nonzero" /><path d="M 132.27 132.25 L 132.34 133.24 C 132.40 134.06 133.11 134.67 133.92 134.61 C 134.73 134.55 135.35 133.85 135.29 133.04 L 135.22 132.04 C 135.16 131.23 134.46 130.62 133.64 130.68 C 132.83 130.73 132.22 131.44 132.27 132.25 Z M 132.31 133.23 L 132.37 134.23 C 132.42 135.06 133.14 135.70 133.97 135.65 C 134.80 135.60 135.44 134.88 135.39 134.04 L 135.33 133.05 C 135.28 132.21 134.56 131.58 133.72 131.63 C 132.89 131.68 132.26 132.40 132.31 133.23 Z M 132.33 134.20 L 132.37 135.22 C 132.41 136.07 133.13 136.74 133.99 136.70 C 134.84 136.66 135.50 135.94 135.47 135.09 L 135.42 134.07 C 135.39 133.22 134.67 132.56 133.81 132.59 C 132.96 132.63 132.30 133.35 132.33 134.20 Z M 132.36 135.18 L 132.38 136.23 C 132.40 137.10 133.11 137.78 133.97 137.76 C 134.84 137.75 135.52 137.03 135.50 136.17 L 135.48 135.12 C 135.47 134.26 134.75 133.57 133.89 133.59 C 133.03 133.61 132.34 134.32 132.36 135.18 Z M 132.38 136.21 L 132.38 137.20 C 132.39 138.06 133.09 138.76 133.96 138.75 C 134.82 138.75 135.52 138.05 135.51 137.18 L 135.51 136.19 C 135.50 135.33 134.80 134.63 133.93 134.64 C 133.07 134.64 132.37 135.35 132.38 136.21 Z M 132.38 137.19 L 132.38 138.20 C 132.38 139.07 133.08 139.77 133.95 139.77 C 134.81 139.77 135.51 139.07 135.51 138.20 L 135.51 137.19 C 135.51 136.32 134.81 135.62 133.95 135.62 C 133.08 135.62 132.38 136.32 132.38 137.19 Z M 132.38 138.20 L 132.38 139.18 C 132.38 140.05 133.08 140.75 133.95 140.75 C 134.81 140.75 135.51 140.05 135.51 139.18 L 135.51 138.20 C 135.51 137.34 134.81 136.63 133.95 136.63 C 133.08 136.63 132.38 137.34 132.38 138.20 Z M 132.38 139.18 L 132.38 140.14 C 132.38 141.00 133.08 141.71 133.95 141.71 C 134.81 141.71 135.51 141.00 135.51 140.14 L 135.51 139.18 C 135.51 138.32 134.81 137.61 133.95 137.61 C 133.08 137.61 132.38 138.32 132.38 139.18 Z M 132.38 140.14 L 132.38 141.14 C 132.38 142.01 133.08 142.71 133.95 142.71 C 134.81 142.71 135.51 142.01 135.51 141.14 L 135.51 140.14 C 135.51 139.27 134.81 138.57 133.95 138.57 C 133.08 138.57 132.38 139.27 132.38 140.14 Z M 132.38 141.14 L 132.38 142.14 C 132.38 143.00 133.08 143.71 133.95 143.71 C 134.81 143.71 135.51 143.00 135.51 142.14 L 135.51 141.14 C 135.51 140.28 134.81 139.57 133.95 139.57 C 133.08 139.57 132.38 140.28 132.38 141.14 Z M 132.38 142.14 L 132.38 143.14 C 132.38 144.01 133.08 144.71 133.95 144.71 C 134.81 144.71 135.51 144.01 135.51 143.14 L 135.51 142.14 C 135.51 141.28 134.81 140.57 133.95 140.57 C 133.08 140.57 132.38 141.28 132.38 142.14 Z M 132.38 143.14 L 132.38 144.14 C 132.38 145.00 133.08 145.70 133.94 145.71 C 134.81 145.71 135.51 145.01 135.51 144.14 L 135.51 143.14 C 135.51 142.28 134.81 141.58 133.95 141.58 C 133.08 141.58 132.38 142.28 132.38 143.14 Z M 132.39 144.13 L 132.38 145.13 C 132.37 145.99 133.06 146.70 133.92 146.70 C 134.79 146.71 135.49 146.02 135.50 145.16 L 135.51 144.16 C 135.51 143.29 134.82 142.59 133.96 142.58 C 133.10 142.57 132.39 143.27 132.39 144.13 Z M 132.38 145.10 L 132.36 146.11 C 132.33 146.97 133.01 147.68 133.87 147.70 C 134.73 147.72 135.45 147.04 135.47 146.18 L 135.49 145.18 C 135.52 144.32 134.84 143.61 133.98 143.59 C 133.12 143.57 132.40 144.24 132.38 145.10 Z M 132.36 146.08 L 132.32 147.07 C 132.28 147.93 132.94 148.65 133.80 148.69 C 134.66 148.73 135.38 148.07 135.42 147.21 L 135.46 146.22 C 135.50 145.36 134.84 144.63 133.98 144.59 C 133.13 144.56 132.40 145.22 132.36 146.08 Z M 132.32 147.04 L 132.25 148.02 C 132.20 148.88 132.84 149.62 133.70 149.68 C 134.55 149.73 135.29 149.09 135.35 148.24 L 135.41 147.25 C 135.47 146.39 134.83 145.65 133.97 145.59 C 133.12 145.54 132.38 146.18 132.32 147.04 Z M 132.26 147.98 L 132.16 148.99 C 132.08 149.84 132.71 150.60 133.56 150.68 C 134.41 150.76 135.16 150.14 135.24 149.29 L 135.34 148.28 C 135.42 147.43 134.80 146.67 133.95 146.59 C 133.10 146.51 132.34 147.13 132.26 147.98 Z M 132.17 148.96 L 132.05 149.97 C 131.95 150.81 132.56 151.58 133.40 151.68 C 134.25 151.78 135.02 151.17 135.12 150.33 L 135.24 149.32 C 135.34 148.47 134.73 147.71 133.88 147.61 C 133.04 147.51 132.27 148.11 132.17 148.96 Z M 132.06 149.97 L 131.95 150.94 C 131.85 151.79 132.46 152.55 133.30 152.64 C 134.15 152.74 134.91 152.13 135.00 151.29 L 135.11 150.32 C 135.21 149.48 134.60 148.72 133.76 148.62 C 132.91 148.52 132.15 149.13 132.06 149.97 Z M 131.95 150.96 L 131.85 151.93 C 131.77 152.77 132.38 153.52 133.22 153.61 C 134.07 153.69 134.82 153.08 134.90 152.24 L 135.00 151.27 C 135.08 150.43 134.47 149.68 133.63 149.59 C 132.79 149.51 132.04 150.12 131.95 150.96 Z M 131.86 151.91 L 131.74 152.91 C 131.65 153.75 132.25 154.51 133.08 154.60 C 133.92 154.70 134.68 154.10 134.78 153.26 L 134.89 152.26 C 134.99 151.42 134.39 150.66 133.55 150.57 C 132.72 150.47 131.96 151.07 131.86 151.91 Z M 131.75 152.89 L 131.62 153.90 C 131.51 154.74 132.10 155.50 132.93 155.61 C 133.76 155.72 134.53 155.13 134.64 154.30 L 134.77 153.28 C 134.88 152.45 134.29 151.69 133.46 151.58 C 132.62 151.47 131.86 152.06 131.75 152.89 Z M 131.63 153.91 L 131.48 155.09 C 131.37 155.91 131.95 156.67 132.78 156.78 C 133.61 156.89 134.37 156.30 134.48 155.47 L 134.63 154.29 C 134.73 153.47 134.15 152.71 133.32 152.60 C 132.49 152.49 131.73 153.08 131.63 153.91 Z M 131.48 155.17 L 131.44 155.84 C 131.38 156.67 132.00 157.38 132.82 157.44 C 133.64 157.50 134.36 156.88 134.42 156.06 L 134.47 155.39 C 134.53 154.56 133.91 153.85 133.08 153.79 C 132.26 153.73 131.54 154.35 131.48 155.17 Z M 134.35 156.27 L 134.56 155.37 C 134.73 154.58 134.24 153.80 133.45 153.62 C 132.66 153.45 131.88 153.94 131.70 154.73 L 131.50 155.63 C 131.32 156.42 131.82 157.20 132.61 157.38 C 133.39 157.55 134.18 157.06 134.35 156.27 Z M 134.54 155.33 L 134.63 154.89 C 134.78 154.11 134.28 153.35 133.51 153.20 C 132.73 153.04 131.97 153.54 131.82 154.32 L 131.72 154.76 C 131.57 155.54 132.07 156.30 132.85 156.45 C 133.62 156.61 134.38 156.11 134.54 155.33 Z"
      fill="black"
      fill-rule="nonzero" /><path d="M 134.32 143.86 L 135.24 143.83 C 136.06 143.81 136.70 143.12 136.68 142.30 C 136.65 141.48 135.97 140.84 135.15 140.86 L 134.23 140.89 C 133.41 140.92 132.76 141.60 132.79 142.42 C 132.81 143.24 133.50 143.88 134.32 143.86 Z M 135.22 143.85 L 136.27 143.83 C 137.10 143.81 137.76 143.13 137.74 142.30 C 137.73 141.47 137.04 140.82 136.22 140.83 L 135.17 140.85 C 134.34 140.86 133.68 141.55 133.69 142.37 C 133.71 143.20 134.39 143.86 135.22 143.85 Z M 136.25 143.82 L 137.20 143.81 C 138.02 143.81 138.69 143.14 138.68 142.31 C 138.68 141.49 138.01 140.83 137.18 140.83 L 136.23 140.84 C 135.41 140.84 134.75 141.51 134.75 142.34 C 134.76 143.16 135.43 143.82 136.25 143.82 Z M 137.19 143.79 L 138.24 143.78 C 139.05 143.78 139.70 143.13 139.70 142.32 C 139.70 141.51 139.05 140.86 138.24 140.86 L 137.19 140.86 C 136.38 140.86 135.73 141.52 135.73 142.32 C 135.73 143.13 136.39 143.79 137.19 143.79 Z M 138.24 143.77 L 138.69 143.77 C 139.49 143.77 140.13 143.12 140.13 142.32 C 140.13 141.52 139.49 140.88 138.69 140.88 L 138.24 140.88 C 137.44 140.88 136.79 141.52 136.80 142.32 C 136.80 143.12 137.44 143.77 138.24 143.77 Z"
      fill="black"
      fill-rule="nonzero" /><path d="M 135.34 152.11 L 136.32 151.78 C 137.11 151.53 137.53 150.68 137.27 149.90 C 137.02 149.12 136.17 148.70 135.39 148.95 L 134.41 149.28 C 133.62 149.54 133.20 150.38 133.46 151.16 C 133.72 151.94 134.56 152.37 135.34 152.11 Z M 136.32 151.79 L 137.29 151.48 C 138.07 151.22 138.50 150.37 138.25 149.59 C 137.99 148.80 137.14 148.37 136.35 148.63 L 135.39 148.94 C 134.60 149.20 134.18 150.05 134.43 150.84 C 134.69 151.62 135.54 152.05 136.32 151.79 Z M 137.29 151.49 L 138.20 151.19 C 139.00 150.94 139.43 150.09 139.17 149.29 C 138.92 148.50 138.07 148.06 137.27 148.32 L 136.36 148.62 C 135.56 148.87 135.13 149.72 135.38 150.52 C 135.64 151.31 136.49 151.75 137.29 151.49 Z M 138.19 151.19 L 139.16 150.89 C 139.95 150.64 140.39 149.79 140.14 149.00 C 139.89 148.21 139.04 147.77 138.25 148.02 L 137.29 148.32 C 136.49 148.57 136.05 149.42 136.30 150.21 C 136.55 151.00 137.40 151.44 138.19 151.19 Z M 139.14 150.87 L 140.08 150.58 C 140.86 150.34 141.30 149.51 141.07 148.73 C 140.83 147.95 140.00 147.51 139.22 147.75 L 138.27 148.03 C 137.49 148.27 137.05 149.10 137.29 149.88 C 137.53 150.67 138.35 151.11 139.14 150.87 Z M 140.06 150.56 L 141.01 150.28 C 141.78 150.05 142.22 149.24 141.99 148.47 C 141.77 147.70 140.95 147.26 140.18 147.49 L 139.24 147.77 C 138.46 147.99 138.02 148.80 138.25 149.58 C 138.48 150.35 139.29 150.79 140.06 150.56 Z M 140.99 150.27 L 141.99 149.98 C 142.76 149.77 143.20 148.97 142.98 148.20 C 142.76 147.44 141.97 146.99 141.20 147.21 L 140.20 147.50 C 139.43 147.72 138.99 148.51 139.21 149.28 C 139.43 150.05 140.23 150.49 140.99 150.27 Z M 141.98 149.98 L 142.95 149.71 C 143.71 149.50 144.16 148.71 143.95 147.95 C 143.74 147.18 142.95 146.74 142.18 146.95 L 141.21 147.22 C 140.45 147.43 140.00 148.22 140.21 148.98 C 140.43 149.75 141.22 150.19 141.98 149.98 Z M 142.93 149.71 L 143.91 149.45 C 144.67 149.25 145.13 148.47 144.93 147.71 C 144.72 146.94 143.94 146.49 143.18 146.69 L 142.20 146.95 C 141.44 147.15 140.98 147.93 141.19 148.70 C 141.39 149.46 142.17 149.91 142.93 149.71 Z M 143.89 149.46 L 144.85 149.22 C 145.62 149.03 146.08 148.25 145.89 147.49 C 145.70 146.72 144.93 146.26 144.16 146.45 L 143.20 146.69 C 142.43 146.88 141.97 147.65 142.16 148.42 C 142.35 149.18 143.12 149.65 143.89 149.46 Z M 144.84 149.22 L 145.29 149.11 C 146.06 148.92 146.53 148.15 146.34 147.39 C 146.16 146.62 145.39 146.15 144.62 146.34 L 144.17 146.45 C 143.41 146.63 142.94 147.40 143.12 148.17 C 143.30 148.93 144.07 149.40 144.84 149.22 Z"
      fill="black"
      fill-rule="nonzero" /><path d="M 162.14 135.91 L 163.14 135.87 C 163.98 135.84 164.63 135.14 164.60 134.31 C 164.57 133.48 163.87 132.83 163.04 132.86 L 162.03 132.89 C 161.20 132.92 160.55 133.62 160.58 134.45 C 160.61 135.28 161.31 135.94 162.14 135.91 Z M 163.11 135.89 L 164.11 135.88 C 164.95 135.87 165.63 135.18 165.62 134.33 C 165.61 133.49 164.92 132.82 164.08 132.83 L 163.07 132.84 C 162.23 132.85 161.56 133.54 161.57 134.38 C 161.58 135.22 162.27 135.90 163.11 135.89 Z M 163.97 135.89 L 164.98 135.97 C 165.83 136.03 166.57 135.40 166.64 134.55 C 166.70 133.71 166.07 132.97 165.22 132.90 L 164.22 132.82 C 163.37 132.75 162.63 133.38 162.56 134.23 C 162.49 135.08 163.12 135.82 163.97 135.89 Z M 164.54 135.88 L 165.44 136.23 C 166.24 136.54 167.13 136.14 167.45 135.35 C 167.76 134.55 167.36 133.65 166.57 133.34 L 165.67 132.99 C 164.87 132.68 163.97 133.07 163.66 133.87 C 163.35 134.67 163.74 135.56 164.54 135.88 Z M 164.96 135.94 L 165.70 136.61 C 166.34 137.18 167.33 137.13 167.90 136.49 C 168.48 135.85 168.42 134.87 167.79 134.29 L 167.04 133.63 C 166.40 133.05 165.42 133.10 164.85 133.74 C 164.27 134.38 164.32 135.36 164.96 135.94 Z M 165.47 136.34 L 166.02 137.14 C 166.51 137.84 167.49 138.02 168.19 137.53 C 168.90 137.03 169.07 136.06 168.58 135.36 L 168.02 134.56 C 167.53 133.85 166.56 133.68 165.85 134.17 C 165.15 134.67 164.97 135.64 165.47 136.34 Z M 165.87 136.88 L 166.28 137.81 C 166.63 138.60 167.55 138.96 168.34 138.61 C 169.13 138.26 169.49 137.34 169.14 136.55 L 168.73 135.62 C 168.38 134.83 167.46 134.47 166.67 134.82 C 165.88 135.17 165.52 136.09 165.87 136.88 Z M 166.21 137.60 L 166.45 138.48 C 166.68 139.31 167.54 139.80 168.37 139.57 C 169.20 139.34 169.69 138.48 169.46 137.65 L 169.22 136.77 C 168.99 135.94 168.13 135.45 167.30 135.68 C 166.46 135.91 165.98 136.77 166.21 137.60 Z M 166.42 138.34 L 166.60 139.38 C 166.75 140.23 167.57 140.80 168.42 140.64 C 169.27 140.49 169.83 139.68 169.68 138.83 L 169.49 137.79 C 169.34 136.94 168.53 136.38 167.68 136.53 C 166.83 136.68 166.27 137.49 166.42 138.34 Z M 166.59 139.28 L 166.71 140.32 C 166.81 141.17 167.58 141.79 168.44 141.69 C 169.30 141.59 169.91 140.82 169.81 139.96 L 169.69 138.93 C 169.60 138.07 168.82 137.45 167.96 137.55 C 167.11 137.65 166.49 138.43 166.59 139.28 Z M 166.70 140.26 L 166.78 141.29 C 166.85 142.15 167.60 142.79 168.46 142.72 C 169.32 142.66 169.96 141.91 169.90 141.04 L 169.82 140.02 C 169.75 139.16 169.00 138.51 168.14 138.58 C 167.28 138.65 166.63 139.40 166.70 140.26 Z M 166.78 141.24 L 166.83 142.22 C 166.87 143.09 167.61 143.75 168.47 143.71 C 169.33 143.66 169.99 142.93 169.95 142.06 L 169.90 141.09 C 169.86 140.22 169.12 139.56 168.26 139.60 C 167.40 139.65 166.73 140.38 166.78 141.24 Z M 166.83 142.18 L 166.85 143.23 C 166.87 144.10 167.59 144.78 168.45 144.76 C 169.32 144.74 170.00 144.02 169.98 143.16 L 169.95 142.10 C 169.93 141.24 169.21 140.56 168.35 140.58 C 167.49 140.60 166.80 141.32 166.83 142.18 Z M 166.85 143.20 L 166.85 144.13 C 166.86 144.99 167.56 145.69 168.42 145.69 C 169.29 145.69 169.98 144.98 169.98 144.12 L 169.98 143.19 C 169.98 142.33 169.27 141.63 168.41 141.63 C 167.55 141.63 166.85 142.34 166.85 143.20 Z M 166.86 144.13 L 166.86 145.12 C 166.86 145.99 167.55 146.69 168.42 146.69 C 169.28 146.69 169.98 145.99 169.98 145.12 L 169.98 144.13 C 169.98 143.26 169.28 142.56 168.42 142.56 C 167.55 142.56 166.86 143.26 166.86 144.13 Z M 166.86 145.12 L 166.86 146.13 C 166.86 146.99 167.56 147.69 168.42 147.69 C 169.28 147.69 169.98 146.99 169.98 146.13 L 169.98 145.12 C 169.98 144.26 169.28 143.56 168.42 143.56 C 167.56 143.56 166.86 144.26 166.86 145.12 Z M 166.86 146.13 L 166.86 147.13 C 166.86 147.99 167.56 148.69 168.42 148.69 C 169.28 148.69 169.98 147.99 169.98 147.13 L 169.98 146.13 C 169.98 145.27 169.28 144.57 168.42 144.57 C 167.56 144.57 166.86 145.27 166.86 146.13 Z M 166.86 147.13 L 166.86 148.13 C 166.86 148.98 167.56 149.68 168.42 149.68 C 169.28 149.68 169.97 148.98 169.97 148.13 L 169.97 147.13 C 169.97 146.28 169.28 145.58 168.42 145.58 C 167.56 145.58 166.86 146.28 166.86 147.13 Z M 166.87 148.11 L 166.85 149.10 C 166.84 149.96 167.53 150.66 168.38 150.67 C 169.24 150.68 169.94 150.00 169.95 149.14 L 169.97 148.15 C 169.98 147.29 169.29 146.59 168.44 146.58 C 167.58 146.56 166.88 147.25 166.87 148.11 Z M 166.86 149.04 L 166.80 150.04 C 166.76 150.89 167.41 151.62 168.26 151.67 C 169.12 151.71 169.85 151.06 169.89 150.21 L 169.95 149.21 C 170.00 148.35 169.34 147.63 168.49 147.58 C 167.64 147.53 166.91 148.18 166.86 149.04 Z M 166.81 149.97 L 166.71 150.97 C 166.63 151.82 167.25 152.57 168.10 152.66 C 168.94 152.74 169.70 152.12 169.78 151.27 L 169.88 150.28 C 169.97 149.43 169.35 148.67 168.50 148.59 C 167.65 148.50 166.90 149.12 166.81 149.97 Z M 166.72 150.92 L 166.59 151.93 C 166.48 152.77 167.08 153.54 167.92 153.65 C 168.77 153.76 169.54 153.17 169.65 152.32 L 169.78 151.32 C 169.88 150.47 169.29 149.70 168.45 149.59 C 167.60 149.49 166.83 150.08 166.72 150.92 Z M 166.60 151.90 L 166.46 152.88 C 166.33 153.72 166.91 154.50 167.75 154.63 C 168.59 154.75 169.37 154.17 169.50 153.33 L 169.64 152.35 C 169.76 151.51 169.18 150.73 168.34 150.60 C 167.50 150.48 166.72 151.06 166.60 151.90 Z M 166.46 152.87 L 166.32 153.80 C 166.19 154.64 166.76 155.42 167.60 155.55 C 168.43 155.68 169.22 155.11 169.35 154.27 L 169.49 153.34 C 169.62 152.50 169.05 151.72 168.21 151.59 C 167.37 151.46 166.59 152.03 166.46 152.87 Z M 166.32 153.79 L 166.15 154.83 C 166.01 155.66 166.58 156.45 167.42 156.58 C 168.25 156.72 169.04 156.15 169.18 155.32 L 169.35 154.28 C 169.48 153.45 168.91 152.66 168.08 152.52 C 167.24 152.39 166.46 152.95 166.32 153.79 Z M 166.16 154.81 L 165.99 155.78 C 165.85 156.61 166.41 157.40 167.24 157.54 C 168.07 157.69 168.86 157.13 169.01 156.29 L 169.17 155.33 C 169.31 154.50 168.75 153.71 167.92 153.56 C 167.09 153.42 166.30 153.98 166.16 154.81 Z M 166.00 155.75 L 165.81 156.76 C 165.65 157.59 166.19 158.39 167.02 158.55 C 167.85 158.70 168.65 158.16 168.81 157.33 L 169.00 156.32 C 169.16 155.49 168.61 154.69 167.78 154.53 C 166.96 154.38 166.16 154.92 166.00 155.75 Z M 165.83 156.69 L 165.54 157.88 C 165.34 158.69 165.84 159.52 166.66 159.72 C 167.48 159.91 168.30 159.41 168.50 158.59 L 168.79 157.40 C 168.98 156.59 168.48 155.76 167.66 155.56 C 166.85 155.37 166.02 155.87 165.83 156.69 Z M 165.72 157.46 L 165.38 158.02 C 164.95 158.74 165.19 159.67 165.90 160.10 C 166.62 160.53 167.55 160.30 167.98 159.58 L 168.32 159.01 C 168.75 158.29 168.51 157.36 167.80 156.93 C 167.08 156.50 166.15 156.74 165.72 157.46 Z M 168.11 158.36 L 167.89 157.66 C 167.65 156.87 166.81 156.43 166.02 156.68 C 165.24 156.92 164.79 157.76 165.04 158.55 L 165.25 159.24 C 165.50 160.03 166.33 160.47 167.12 160.23 C 167.91 159.98 168.35 159.15 168.11 158.36 Z M 167.91 157.90 L 167.75 156.77 C 167.64 155.97 166.89 155.41 166.09 155.53 C 165.30 155.64 164.74 156.39 164.86 157.19 L 165.02 158.31 C 165.13 159.11 165.87 159.67 166.67 159.55 C 167.47 159.44 168.03 158.70 167.91 157.90 Z"
      fill="black"
      fill-rule="nonzero" /><path d="M 160.02 144.54 L 161.07 144.46 C 161.90 144.40 162.52 143.68 162.46 142.86 C 162.40 142.03 161.68 141.41 160.85 141.47 L 159.80 141.54 C 158.97 141.60 158.35 142.32 158.41 143.15 C 158.47 143.98 159.19 144.60 160.02 144.54 Z M 161.06 144.47 L 162.05 144.41 C 162.88 144.35 163.51 143.64 163.46 142.80 C 163.41 141.97 162.69 141.34 161.86 141.40 L 160.87 141.46 C 160.03 141.51 159.40 142.23 159.46 143.06 C 159.51 143.89 160.23 144.52 161.06 144.47 Z M 162.02 144.40 L 163.03 144.36 C 163.86 144.32 164.50 143.62 164.47 142.79 C 164.43 141.96 163.73 141.32 162.90 141.36 L 161.89 141.40 C 161.06 141.44 160.42 142.14 160.45 142.97 C 160.49 143.80 161.19 144.44 162.02 144.40 Z M 162.99 144.33 L 163.97 144.31 C 164.78 144.30 165.43 143.63 165.42 142.82 C 165.40 142.01 164.74 141.36 163.93 141.37 L 162.94 141.39 C 162.13 141.40 161.48 142.07 161.50 142.88 C 161.51 143.69 162.17 144.34 162.99 144.33 Z M 163.95 144.28 L 164.92 144.28 C 165.71 144.28 166.35 143.64 166.35 142.84 C 166.35 142.05 165.71 141.41 164.92 141.41 L 163.95 141.41 C 163.15 141.41 162.51 142.05 162.51 142.84 C 162.51 143.64 163.15 144.28 163.95 144.28 Z M 164.92 144.27 L 165.85 144.27 C 166.64 144.27 167.28 143.63 167.28 142.84 C 167.28 142.06 166.64 141.42 165.85 141.42 L 164.92 141.42 C 164.13 141.42 163.49 142.06 163.49 142.84 C 163.49 143.63 164.13 144.27 164.92 144.27 Z"
      fill="black"
      fill-rule="nonzero" /><path d="M 160.50 150.95 L 161.50 151.00 C 162.32 151.04 163.03 150.40 163.07 149.58 C 163.11 148.75 162.47 148.05 161.65 148.00 L 160.65 147.95 C 159.82 147.91 159.12 148.55 159.08 149.38 C 159.04 150.20 159.67 150.91 160.50 150.95 Z M 161.62 151.01 L 162.62 150.97 C 163.45 150.95 164.10 150.25 164.08 149.42 C 164.05 148.58 163.35 147.93 162.52 147.96 L 161.52 147.99 C 160.69 148.02 160.04 148.72 160.06 149.55 C 160.09 150.38 160.79 151.04 161.62 151.01 Z M 162.81 150.95 L 163.73 150.79 C 164.55 150.66 165.10 149.89 164.97 149.07 C 164.83 148.25 164.06 147.70 163.24 147.84 L 162.32 147.99 C 161.51 148.12 160.95 148.90 161.09 149.71 C 161.22 150.53 162.00 151.08 162.81 150.95 Z M 163.82 150.75 L 164.84 150.51 C 165.63 150.32 166.12 149.53 165.93 148.74 C 165.75 147.95 164.96 147.46 164.17 147.65 L 163.15 147.89 C 162.36 148.07 161.87 148.86 162.06 149.65 C 162.24 150.44 163.03 150.93 163.82 150.75 Z M 164.84 150.49 L 165.78 150.26 C 166.56 150.08 167.04 149.30 166.85 148.52 C 166.67 147.74 165.89 147.26 165.11 147.44 L 164.17 147.67 C 163.39 147.85 162.91 148.63 163.09 149.41 C 163.28 150.19 164.06 150.67 164.84 150.49 Z M 165.77 150.26 L 166.75 150.03 C 167.52 149.86 168.01 149.08 167.83 148.31 C 167.65 147.53 166.88 147.05 166.10 147.23 L 165.12 147.45 C 164.35 147.63 163.86 148.40 164.04 149.18 C 164.22 149.95 164.99 150.44 165.77 150.26 Z M 166.74 150.03 L 167.76 149.80 C 168.54 149.62 169.02 148.86 168.85 148.08 C 168.67 147.31 167.91 146.83 167.13 147.00 L 166.11 147.23 C 165.34 147.40 164.85 148.17 165.03 148.94 C 165.20 149.72 165.97 150.20 166.74 150.03 Z"
      fill="black"
      fill-rule="nonzero" /><path d="M 124.32 165.93 L 125.28 165.89 C 126.11 165.86 126.75 165.16 126.72 164.33 C 126.69 163.51 125.99 162.86 125.16 162.89 L 124.20 162.93 C 123.38 162.96 122.73 163.66 122.76 164.49 C 122.80 165.32 123.49 165.96 124.32 165.93 Z M 125.31 165.94 L 126.34 165.88 C 127.19 165.83 127.84 165.10 127.79 164.25 C 127.75 163.40 127.02 162.75 126.17 162.79 L 125.13 162.85 C 124.28 162.90 123.63 163.63 123.68 164.48 C 123.73 165.33 124.46 165.98 125.31 165.94 Z M 126.37 165.90 L 127.40 165.82 C 128.26 165.75 128.91 165.00 128.84 164.13 C 128.77 163.27 128.02 162.62 127.15 162.69 L 126.13 162.77 C 125.26 162.84 124.62 163.60 124.69 164.46 C 124.75 165.32 125.51 165.97 126.37 165.90 Z M 127.42 165.83 L 128.43 165.73 C 129.29 165.65 129.93 164.89 129.85 164.02 C 129.77 163.15 129.01 162.51 128.14 162.59 L 127.13 162.69 C 126.26 162.76 125.63 163.53 125.71 164.40 C 125.78 165.27 126.55 165.91 127.42 165.83 Z M 128.43 165.74 L 129.46 165.64 C 130.33 165.56 130.97 164.78 130.89 163.91 C 130.80 163.04 130.03 162.41 129.16 162.49 L 128.13 162.59 C 127.26 162.67 126.63 163.44 126.71 164.31 C 126.79 165.18 127.56 165.82 128.43 165.74 Z M 129.47 165.64 L 130.42 165.55 C 131.29 165.46 131.92 164.68 131.83 163.81 C 131.75 162.94 130.97 162.30 130.10 162.39 L 129.15 162.49 C 128.28 162.58 127.65 163.35 127.74 164.22 C 127.82 165.10 128.60 165.73 129.47 165.64 Z M 130.44 165.55 L 131.40 165.44 C 132.27 165.34 132.90 164.55 132.80 163.68 C 132.70 162.81 131.91 162.18 131.03 162.28 L 130.08 162.39 C 129.20 162.49 128.58 163.28 128.68 164.15 C 128.78 165.02 129.57 165.65 130.44 165.55 Z M 131.40 165.44 L 132.41 165.33 C 133.28 165.22 133.91 164.43 133.80 163.56 C 133.70 162.68 132.91 162.06 132.03 162.16 L 131.03 162.28 C 130.16 162.38 129.53 163.17 129.63 164.05 C 129.73 164.92 130.53 165.55 131.40 165.44 Z M 132.40 165.33 L 133.38 165.22 C 134.26 165.13 134.89 164.34 134.80 163.46 C 134.70 162.58 133.91 161.95 133.03 162.04 L 132.04 162.15 C 131.17 162.25 130.53 163.04 130.63 163.92 C 130.73 164.80 131.52 165.43 132.40 165.33 Z M 133.38 165.23 L 134.38 165.12 C 135.26 165.03 135.90 164.24 135.81 163.36 C 135.72 162.48 134.93 161.84 134.04 161.93 L 133.04 162.04 C 132.16 162.13 131.52 162.92 131.61 163.80 C 131.70 164.68 132.49 165.32 133.38 165.23 Z M 134.38 165.13 L 135.37 165.03 C 136.26 164.93 136.90 164.14 136.81 163.26 C 136.72 162.37 135.93 161.73 135.04 161.82 L 134.05 161.92 C 133.16 162.02 132.52 162.81 132.61 163.69 C 132.70 164.58 133.49 165.22 134.38 165.13 Z M 135.37 165.03 L 136.37 164.93 C 137.25 164.84 137.90 164.05 137.81 163.16 C 137.72 162.27 136.93 161.62 136.04 161.72 L 135.04 161.82 C 134.16 161.91 133.51 162.70 133.60 163.59 C 133.69 164.47 134.48 165.12 135.37 165.03 Z M 136.36 164.93 L 137.36 164.83 C 138.25 164.74 138.90 163.95 138.81 163.06 C 138.72 162.17 137.92 161.52 137.03 161.61 L 136.04 161.71 C 135.15 161.80 134.50 162.59 134.59 163.48 C 134.68 164.37 135.47 165.02 136.36 164.93 Z M 137.36 164.84 L 138.35 164.74 C 139.24 164.65 139.89 163.86 139.80 162.97 C 139.72 162.07 138.92 161.42 138.03 161.51 L 137.04 161.61 C 136.15 161.70 135.49 162.49 135.58 163.38 C 135.67 164.27 136.46 164.93 137.36 164.84 Z M 138.35 164.74 L 139.34 164.64 C 140.24 164.55 140.89 163.76 140.80 162.86 C 140.71 161.97 139.92 161.32 139.02 161.41 L 138.03 161.51 C 137.14 161.60 136.48 162.39 136.57 163.29 C 136.66 164.18 137.46 164.83 138.35 164.74 Z M 139.35 164.65 L 140.35 164.54 C 141.25 164.44 141.89 163.64 141.80 162.75 C 141.70 161.85 140.90 161.21 140.01 161.30 L 139.01 161.41 C 138.12 161.50 137.47 162.30 137.56 163.20 C 137.66 164.09 138.46 164.74 139.35 164.65 Z M 140.36 164.54 L 141.35 164.43 C 142.25 164.33 142.89 163.52 142.79 162.62 C 142.69 161.73 141.88 161.09 140.99 161.19 L 140.00 161.30 C 139.10 161.40 138.46 162.21 138.56 163.10 C 138.66 164.00 139.47 164.64 140.36 164.54 Z M 141.36 164.43 L 142.36 164.31 C 143.26 164.21 143.90 163.39 143.79 162.50 C 143.68 161.60 142.87 160.96 141.98 161.07 L 140.98 161.19 C 140.08 161.29 139.44 162.10 139.55 163.00 C 139.65 163.89 140.47 164.54 141.36 164.43 Z M 142.36 164.31 L 143.35 164.20 C 144.24 164.09 144.88 163.27 144.77 162.38 C 144.67 161.48 143.85 160.84 142.95 160.95 L 141.97 161.07 C 141.08 161.17 140.44 161.99 140.54 162.89 C 140.65 163.78 141.47 164.42 142.36 164.31 Z M 143.35 164.20 L 144.36 164.07 C 145.26 163.96 145.90 163.14 145.78 162.24 C 145.67 161.35 144.85 160.71 143.96 160.82 L 142.95 160.95 C 142.05 161.06 141.41 161.88 141.52 162.77 C 141.64 163.67 142.45 164.31 143.35 164.20 Z M 144.37 164.07 L 145.37 163.94 C 146.27 163.83 146.90 163.01 146.79 162.11 C 146.67 161.21 145.85 160.58 144.95 160.69 L 143.95 160.82 C 143.05 160.93 142.42 161.76 142.53 162.65 C 142.65 163.55 143.47 164.19 144.37 164.07 Z M 145.37 163.95 L 146.36 163.82 C 147.26 163.71 147.90 162.89 147.78 161.99 C 147.67 161.09 146.85 160.45 145.95 160.56 L 144.96 160.69 C 144.06 160.80 143.42 161.62 143.53 162.52 C 143.64 163.42 144.47 164.06 145.37 163.95 Z M 146.34 163.83 L 147.34 163.71 C 148.25 163.61 148.89 162.79 148.79 161.89 C 148.69 160.99 147.87 160.34 146.97 160.44 L 145.97 160.56 C 145.07 160.66 144.42 161.48 144.52 162.38 C 144.62 163.28 145.44 163.93 146.34 163.83 Z M 147.32 163.71 L 148.31 163.61 C 149.21 163.52 149.87 162.72 149.78 161.81 C 149.69 160.91 148.88 160.25 147.98 160.34 L 146.99 160.44 C 146.09 160.53 145.43 161.34 145.52 162.24 C 145.61 163.15 146.42 163.81 147.32 163.71 Z M 148.30 163.61 L 149.29 163.52 C 150.19 163.43 150.85 162.63 150.76 161.73 C 150.68 160.82 149.88 160.16 148.97 160.25 L 147.99 160.34 C 147.08 160.43 146.42 161.23 146.51 162.13 C 146.60 163.04 147.40 163.70 148.30 163.61 Z M 149.28 163.52 L 150.28 163.42 C 151.19 163.34 151.85 162.54 151.76 161.63 C 151.68 160.73 150.87 160.07 149.97 160.16 L 148.97 160.25 C 148.07 160.34 147.41 161.14 147.50 162.04 C 147.58 162.94 148.38 163.60 149.28 163.52 Z M 150.29 163.42 L 151.28 163.32 C 152.18 163.24 152.84 162.44 152.75 161.53 C 152.67 160.63 151.86 159.97 150.96 160.06 L 149.97 160.16 C 149.07 160.25 148.41 161.05 148.50 161.95 C 148.58 162.85 149.38 163.51 150.29 163.42 Z M 151.28 163.32 L 152.28 163.22 C 153.17 163.13 153.83 162.33 153.74 161.43 C 153.65 160.54 152.85 159.88 151.95 159.97 L 150.96 160.07 C 150.06 160.15 149.41 160.95 149.49 161.85 C 149.58 162.75 150.38 163.41 151.28 163.32 Z M 152.27 163.22 L 153.27 163.12 C 154.17 163.03 154.82 162.23 154.73 161.34 C 154.64 160.44 153.85 159.79 152.95 159.87 L 151.95 159.97 C 151.06 160.06 150.40 160.86 150.49 161.75 C 150.58 162.65 151.38 163.31 152.27 163.22 Z M 153.26 163.12 L 154.26 163.03 C 155.15 162.94 155.81 162.15 155.73 161.26 C 155.65 160.36 154.86 159.70 153.96 159.79 L 152.96 159.88 C 152.07 159.96 151.41 160.75 151.49 161.65 C 151.57 162.54 152.36 163.20 153.26 163.12 Z M 154.23 163.03 L 155.21 162.95 C 156.11 162.89 156.78 162.11 156.72 161.22 C 156.65 160.32 155.87 159.65 154.98 159.71 L 153.99 159.79 C 153.10 159.85 152.43 160.63 152.49 161.52 C 152.55 162.42 153.33 163.09 154.23 163.03 Z M 155.17 162.96 L 156.15 162.91 C 157.05 162.87 157.74 162.12 157.71 161.22 C 157.67 160.32 156.91 159.63 156.01 159.67 L 155.03 159.71 C 154.13 159.75 153.44 160.51 153.47 161.41 C 153.51 162.30 154.27 163.00 155.17 162.96 Z M 156.12 162.91 L 157.13 162.89 C 158.03 162.88 158.74 162.13 158.72 161.24 C 158.70 160.34 157.96 159.63 157.06 159.65 L 156.05 159.67 C 155.15 159.69 154.44 160.43 154.46 161.32 C 154.48 162.22 155.22 162.93 156.12 162.91 Z M 157.11 162.89 L 158.12 162.89 C 159.02 162.88 159.74 162.15 159.73 161.25 C 159.73 160.36 159.00 159.64 158.10 159.64 L 157.09 159.65 C 156.19 159.65 155.47 160.38 155.48 161.28 C 155.48 162.18 156.21 162.90 157.11 162.89 Z M 158.11 162.88 L 159.12 162.88 C 160.01 162.88 160.74 162.15 160.74 161.26 C 160.74 160.37 160.01 159.65 159.12 159.65 L 158.11 159.65 C 157.22 159.65 156.49 160.37 156.50 161.26 C 156.50 162.16 157.22 162.88 158.11 162.88 Z M 159.12 162.87 L 160.14 162.87 C 161.02 162.87 161.74 162.15 161.74 161.26 C 161.74 160.37 161.02 159.65 160.14 159.65 L 159.12 159.65 C 158.23 159.65 157.51 160.37 157.51 161.26 C 157.51 162.15 158.23 162.87 159.12 162.87 Z M 160.14 162.86 L 161.11 162.86 C 161.99 162.86 162.71 162.14 162.71 161.26 C 162.71 160.38 161.99 159.67 161.11 159.67 L 160.14 159.67 C 159.25 159.67 158.54 160.38 158.54 161.26 C 158.54 162.14 159.25 162.86 160.14 162.86 Z M 161.11 162.85 L 162.11 162.85 C 162.99 162.85 163.70 162.14 163.70 161.26 C 163.70 160.39 162.99 159.68 162.11 159.68 L 161.11 159.68 C 160.24 159.68 159.52 160.39 159.52 161.26 C 159.52 162.14 160.24 162.85 161.11 162.85 Z M 162.11 162.84 L 163.05 162.84 C 163.92 162.84 164.63 162.14 164.63 161.26 C 164.63 160.39 163.92 159.68 163.05 159.68 L 162.11 159.68 C 161.24 159.68 160.53 160.39 160.53 161.26 C 160.53 162.14 161.24 162.84 162.11 162.84 Z M 163.05 162.84 L 164.10 162.84 C 164.97 162.84 165.68 162.14 165.68 161.26 C 165.68 160.39 164.97 159.68 164.10 159.68 L 163.05 159.68 C 162.17 159.68 161.46 160.39 161.46 161.26 C 161.46 162.14 162.17 162.84 163.05 162.84 Z M 164.09 162.84 L 165.00 162.85 C 165.87 162.85 166.58 162.15 166.59 161.28 C 166.59 160.40 165.89 159.69 165.01 159.69 L 164.10 159.68 C 163.23 159.68 162.52 160.38 162.51 161.25 C 162.51 162.13 163.21 162.84 164.09 162.84 Z M 164.95 162.84 L 165.98 162.88 C 166.85 162.91 167.58 162.23 167.62 161.36 C 167.65 160.49 166.97 159.76 166.10 159.73 L 165.06 159.69 C 164.19 159.66 163.46 160.34 163.43 161.21 C 163.40 162.08 164.08 162.81 164.95 162.84 Z M 165.90 162.87 L 166.94 162.96 C 167.80 163.04 168.57 162.40 168.64 161.53 C 168.72 160.67 168.08 159.91 167.21 159.83 L 166.18 159.74 C 165.31 159.66 164.55 160.30 164.47 161.17 C 164.40 162.03 165.04 162.80 165.90 162.87 Z M 166.87 162.95 L 167.84 163.08 C 168.70 163.20 169.49 162.60 169.61 161.74 C 169.73 160.88 169.13 160.09 168.27 159.97 L 167.29 159.84 C 166.43 159.72 165.64 160.33 165.52 161.19 C 165.40 162.04 166.01 162.83 166.87 162.95 Z M 167.81 163.08 L 168.81 163.24 C 169.66 163.38 170.47 162.80 170.61 161.94 C 170.74 161.09 170.16 160.28 169.31 160.14 L 168.31 159.98 C 167.45 159.84 166.65 160.42 166.51 161.28 C 166.37 162.13 166.95 162.94 167.81 163.08 Z M 168.80 163.23 L 169.34 163.33 C 170.20 163.47 171.00 162.90 171.15 162.05 C 171.30 161.20 170.72 160.39 169.87 160.24 L 169.32 160.15 C 168.47 160.00 167.66 160.58 167.52 161.43 C 167.37 162.28 167.94 163.09 168.80 163.23 Z"
      fill="black"
      fill-rule="nonzero" /><path d="M 149.36 164.70 L 149.02 165.65 C 148.73 166.45 149.15 167.34 149.95 167.62 C 150.75 167.91 151.64 167.49 151.92 166.69 L 152.26 165.75 C 152.55 164.94 152.14 164.06 151.33 163.77 C 150.53 163.49 149.65 163.90 149.36 164.70 Z M 149.01 165.67 L 148.68 166.61 C 148.41 167.42 148.84 168.30 149.64 168.58 C 150.45 168.86 151.34 168.43 151.61 167.62 L 151.94 166.68 C 152.22 165.87 151.79 164.99 150.98 164.71 C 150.17 164.43 149.29 164.86 149.01 165.67 Z M 148.67 166.65 L 148.39 167.54 C 148.13 168.36 148.58 169.23 149.40 169.49 C 150.21 169.75 151.09 169.29 151.35 168.48 L 151.63 167.58 C 151.89 166.77 151.43 165.89 150.62 165.64 C 149.80 165.38 148.93 165.83 148.67 166.65 Z M 148.39 167.55 L 148.10 168.48 C 147.84 169.30 148.30 170.17 149.12 170.42 C 149.94 170.67 150.80 170.21 151.06 169.40 L 151.34 168.47 C 151.60 167.65 151.14 166.78 150.32 166.53 C 149.51 166.28 148.64 166.73 148.39 167.55 Z M 148.11 168.45 L 147.78 169.47 C 147.51 170.27 147.94 171.15 148.75 171.42 C 149.56 171.69 150.43 171.25 150.70 170.44 L 151.04 169.43 C 151.31 168.62 150.87 167.75 150.06 167.48 C 149.26 167.21 148.38 167.64 148.11 168.45 Z M 147.80 169.43 L 147.46 170.38 C 147.17 171.17 147.58 172.05 148.37 172.34 C 149.17 172.63 150.05 172.21 150.33 171.42 L 150.68 170.48 C 150.97 169.68 150.56 168.80 149.76 168.52 C 148.97 168.23 148.09 168.64 147.80 169.43 Z M 147.48 170.35 L 147.11 171.32 C 146.81 172.10 147.20 172.98 147.98 173.28 C 148.76 173.58 149.64 173.19 149.94 172.41 L 150.31 171.44 C 150.61 170.66 150.22 169.78 149.44 169.48 C 148.66 169.18 147.78 169.57 147.48 170.35 Z M 147.14 171.30 L 146.76 172.22 C 146.45 172.99 146.82 173.86 147.58 174.17 C 148.35 174.49 149.22 174.12 149.54 173.35 L 149.91 172.43 C 150.23 171.66 149.86 170.79 149.09 170.48 C 148.32 170.16 147.45 170.53 147.14 171.30 Z M 146.80 172.19 L 146.35 173.21 C 146.02 173.95 146.35 174.83 147.10 175.16 C 147.85 175.49 148.72 175.15 149.05 174.40 L 149.50 173.38 C 149.83 172.64 149.49 171.76 148.75 171.43 C 148.00 171.10 147.13 171.44 146.80 172.19 Z M 146.39 173.17 L 146.00 173.98 C 145.65 174.70 145.95 175.57 146.67 175.92 C 147.39 176.27 148.26 175.97 148.61 175.25 L 149.00 174.44 C 149.35 173.72 149.05 172.85 148.33 172.50 C 147.61 172.15 146.74 172.45 146.39 173.17 Z M 146.03 173.95 L 145.57 174.84 C 145.20 175.55 145.48 176.41 146.18 176.78 C 146.88 177.14 147.75 176.87 148.12 176.17 L 148.58 175.28 C 148.94 174.58 148.67 173.71 147.97 173.34 C 147.26 172.98 146.40 173.25 146.03 173.95 Z M 145.59 174.82 L 145.22 175.51 C 144.84 176.20 145.10 177.07 145.79 177.44 C 146.49 177.82 147.35 177.56 147.73 176.87 L 148.10 176.18 C 148.47 175.49 148.22 174.62 147.52 174.25 C 146.83 173.87 145.96 174.13 145.59 174.82 Z"
      fill="black"
      fill-rule="nonzero" /><path d="M 155.25 169.81 L 156.26 169.62 C 157.08 169.46 157.62 168.66 157.46 167.84 C 157.30 167.02 156.51 166.48 155.68 166.64 L 154.68 166.83 C 153.86 166.99 153.32 167.79 153.48 168.61 C 153.64 169.43 154.43 169.97 155.25 169.81 Z M 155.50 169.61 L 156.34 169.88 C 157.16 170.14 158.04 169.69 158.30 168.87 C 158.56 168.05 158.11 167.17 157.29 166.91 L 156.44 166.64 C 155.62 166.38 154.74 166.84 154.48 167.66 C 154.22 168.48 154.68 169.35 155.50 169.61 Z M 155.62 169.43 L 156.27 170.17 C 156.84 170.82 157.83 170.90 158.49 170.33 C 159.14 169.76 159.22 168.76 158.65 168.11 L 158.00 167.36 C 157.43 166.71 156.44 166.64 155.78 167.21 C 155.13 167.78 155.05 168.77 155.62 169.43 Z M 156.09 169.91 L 156.62 170.85 C 157.05 171.60 158.01 171.87 158.76 171.44 C 159.51 171.01 159.78 170.06 159.35 169.30 L 158.82 168.36 C 158.39 167.61 157.44 167.34 156.68 167.77 C 155.93 168.20 155.66 169.15 156.09 169.91 Z M 156.58 170.73 L 157.01 171.66 C 157.37 172.43 158.30 172.77 159.08 172.41 C 159.85 172.04 160.19 171.12 159.83 170.34 L 159.39 169.42 C 159.03 168.64 158.11 168.30 157.33 168.67 C 156.55 169.03 156.22 169.96 156.58 170.73 Z M 157.00 171.58 L 157.37 172.48 C 157.69 173.27 158.58 173.65 159.36 173.33 C 160.15 173.01 160.52 172.12 160.21 171.33 L 159.84 170.42 C 159.52 169.64 158.63 169.26 157.84 169.58 C 157.06 169.90 156.68 170.79 157.00 171.58 Z M 157.37 172.40 L 157.69 173.33 C 157.96 174.11 158.82 174.53 159.60 174.26 C 160.38 173.99 160.80 173.13 160.53 172.35 L 160.21 171.42 C 159.94 170.63 159.08 170.22 158.30 170.49 C 157.51 170.76 157.10 171.62 157.37 172.40 Z M 157.69 173.24 L 157.96 174.20 C 158.19 174.98 159.01 175.43 159.79 175.21 C 160.57 174.98 161.02 174.17 160.80 173.38 L 160.53 172.43 C 160.30 171.65 159.49 171.20 158.70 171.42 C 157.92 171.65 157.47 172.46 157.69 173.24 Z M 157.97 174.15 L 158.21 175.09 C 158.41 175.87 159.20 176.34 159.98 176.14 C 160.76 175.94 161.23 175.15 161.03 174.37 L 160.79 173.43 C 160.59 172.65 159.80 172.18 159.02 172.38 C 158.24 172.58 157.77 173.37 157.97 174.15 Z M 158.22 175.07 L 158.47 176.08 C 158.65 176.85 159.43 177.33 160.21 177.14 C 160.98 176.95 161.46 176.17 161.27 175.40 L 161.02 174.39 C 160.84 173.62 160.06 173.14 159.28 173.33 C 158.51 173.52 158.03 174.30 158.22 175.07 Z M 158.47 176.08 L 158.51 176.25 C 158.70 177.03 159.47 177.50 160.24 177.31 C 161.02 177.13 161.49 176.35 161.31 175.58 L 161.26 175.41 C 161.08 174.63 160.30 174.16 159.53 174.34 C 158.76 174.53 158.29 175.30 158.47 176.08 Z"
      fill="black"
      fill-rule="nonzero" /></svg>