<svg xmlns="http://www.w3.org/2000/svg" width="300" height="300" viewBox="0 0 300 300">
<path d="M 136.26 128.71 L 137.19 128.40 C 137.98 128.14 138.41 127.28 138.15 126.49 C 137.89 125.69 137.03 125.26 136.24 125.53 L 135.31 125.83 C 134.52 126.09 134.09 126.95 134.35 127.74 C 134.61 128.54 135.47 128.97 136.26 128.71 Z M 137.07 128.47 L 138.06 128.24 C 138.89 128.04 139.41 127.21 139.21 126.37 C 139.02 125.54 138.18 125.02 137.35 125.22 L 136.36 125.45 C 135.52 125.65 135.00 126.48 135.20 127.32 C 135.40 128.15 136.23 128.67 137.07 128.47 Z M 137.86 128.30 L 138.87 128.20 C 139.74 128.11 140.37 127.33 140.28 126.47 C 140.20 125.60 139.42 124.97 138.56 125.06 L 137.54 125.16 C 136.68 125.25 136.04 126.02 136.13 126.89 C 136.22 127.75 136.99 128.39 137.86 128.30 Z M 138.75 128.21 L 139.76 128.19 C 140.63 128.17 141.33 127.44 141.31 126.57 C 141.29 125.69 140.56 125.00 139.68 125.02 L 138.68 125.04 C 137.80 125.06 137.11 125.79 137.13 126.66 C 137.15 127.54 137.88 128.23 138.75 128.21 Z M 139.72 128.19 L 140.75 128.19 C 141.63 128.19 142.34 127.48 142.34 126.60 C 142.34 125.72 141.63 125.01 140.75 125.01 L 139.72 125.01 C 138.84 125.01 138.13 125.72 138.13 126.60 C 138.13 127.48 138.84 128.19 139.72 128.19 Z M 140.73 128.19 L 141.70 128.20 C 142.58 128.21 143.30 127.50 143.30 126.63 C 143.31 125.75 142.60 125.03 141.73 125.02 L 140.76 125.01 C 139.88 125.00 139.16 125.71 139.16 126.59 C 139.15 127.47 139.86 128.19 140.73 128.19 Z M 141.67 128.20 L 142.64 128.23 C 143.51 128.25 144.25 127.56 144.27 126.68 C 144.30 125.80 143.60 125.07 142.72 125.05 L 141.76 125.02 C 140.88 125.00 140.15 125.69 140.12 126.57 C 140.10 127.45 140.79 128.18 141.67 128.20 Z M 142.61 128.23 L 143.62 128.27 C 144.50 128.31 145.25 127.64 145.29 126.76 C 145.33 125.88 144.65 125.14 143.77 125.10 L 142.75 125.05 C 141.88 125.01 141.13 125.69 141.09 126.57 C 141.05 127.44 141.73 128.19 142.61 128.23 Z M 143.60 128.27 L 144.57 128.33 C 145.45 128.38 146.20 127.71 146.26 126.84 C 146.31 125.96 145.64 125.21 144.76 125.16 L 143.79 125.10 C 142.92 125.05 142.16 125.71 142.11 126.59 C 142.06 127.47 142.73 128.22 143.60 128.27 Z M 144.56 128.33 L 145.58 128.40 C 146.46 128.46 147.22 127.80 147.28 126.93 C 147.34 126.05 146.68 125.29 145.81 125.23 L 144.78 125.16 C 143.91 125.10 143.15 125.75 143.08 126.63 C 143.02 127.51 143.68 128.27 144.56 128.33 Z M 145.56 128.40 L 146.54 128.48 C 147.42 128.55 148.19 127.90 148.26 127.03 C 148.33 126.15 147.68 125.38 146.80 125.31 L 145.82 125.23 C 144.95 125.16 144.18 125.81 144.11 126.69 C 144.04 127.56 144.69 128.33 145.56 128.40 Z M 146.54 128.48 L 147.55 128.56 C 148.42 128.64 149.19 127.99 149.27 127.12 C 149.34 126.25 148.70 125.48 147.82 125.40 L 146.81 125.32 C 145.94 125.24 145.17 125.89 145.09 126.76 C 145.02 127.63 145.66 128.40 146.54 128.48 Z M 147.55 128.56 L 148.54 128.65 C 149.41 128.73 150.18 128.08 150.26 127.21 C 150.33 126.34 149.69 125.57 148.82 125.49 L 147.82 125.40 C 146.95 125.33 146.18 125.97 146.10 126.85 C 146.03 127.72 146.67 128.49 147.55 128.56 Z M 148.55 128.65 L 149.55 128.73 C 150.42 128.80 151.18 128.15 151.26 127.28 C 151.33 126.41 150.68 125.64 149.80 125.57 L 148.81 125.49 C 147.93 125.42 147.17 126.07 147.10 126.94 C 147.03 127.81 147.68 128.58 148.55 128.65 Z M 149.57 128.73 L 150.56 128.80 C 151.43 128.86 152.19 128.20 152.25 127.33 C 152.31 126.46 151.65 125.70 150.78 125.64 L 149.79 125.57 C 148.91 125.51 148.16 126.17 148.10 127.04 C 148.04 127.92 148.69 128.67 149.57 128.73 Z M 150.57 128.80 L 151.57 128.86 C 152.44 128.91 153.19 128.25 153.24 127.37 C 153.29 126.50 152.63 125.75 151.76 125.70 L 150.76 125.64 C 149.89 125.59 149.14 126.26 149.09 127.13 C 149.04 128.00 149.70 128.75 150.57 128.80 Z M 151.58 128.86 L 152.59 128.91 C 153.46 128.96 154.21 128.30 154.26 127.42 C 154.30 126.55 153.64 125.81 152.76 125.76 L 151.75 125.70 C 150.88 125.65 150.13 126.32 150.09 127.19 C 150.04 128.06 150.70 128.81 151.58 128.86 Z M 152.59 128.91 L 153.60 128.96 C 154.47 129.01 155.21 128.35 155.26 127.48 C 155.31 126.61 154.64 125.87 153.78 125.82 L 152.76 125.77 C 151.90 125.72 151.15 126.38 151.11 127.25 C 151.06 128.12 151.72 128.86 152.59 128.91 Z M 153.61 128.95 L 154.60 129.00 C 155.46 129.04 156.20 128.38 156.24 127.52 C 156.28 126.66 155.62 125.93 154.76 125.88 L 153.77 125.83 C 152.91 125.79 152.17 126.45 152.13 127.31 C 152.09 128.18 152.75 128.91 153.61 128.95 Z M 154.62 128.99 L 155.64 129.03 C 156.50 129.07 157.22 128.40 157.26 127.54 C 157.29 126.69 156.62 125.97 155.77 125.93 L 154.74 125.89 C 153.89 125.86 153.17 126.52 153.13 127.38 C 153.10 128.24 153.76 128.96 154.62 128.99 Z M 155.65 129.02 L 156.63 129.06 C 157.48 129.09 158.20 128.43 158.23 127.58 C 158.26 126.73 157.60 126.01 156.75 125.98 L 155.76 125.94 C 154.91 125.91 154.20 126.57 154.17 127.43 C 154.13 128.28 154.80 128.99 155.65 129.02 Z M 156.61 129.05 L 157.61 129.10 C 158.46 129.15 159.18 128.50 159.22 127.65 C 159.26 126.80 158.61 126.08 157.77 126.04 L 156.77 125.99 C 155.92 125.94 155.20 126.59 155.16 127.44 C 155.11 128.29 155.77 129.01 156.61 129.05 Z M 157.59 129.10 L 158.58 129.16 C 159.43 129.21 160.15 128.57 160.21 127.73 C 160.26 126.88 159.62 126.16 158.77 126.11 L 157.78 126.04 C 156.94 125.99 156.21 126.63 156.16 127.48 C 156.11 128.32 156.75 129.05 157.59 129.10 Z M 158.60 129.16 L 159.61 129.21 C 160.45 129.25 161.17 128.60 161.21 127.76 C 161.25 126.92 160.61 126.20 159.76 126.16 L 158.75 126.11 C 157.91 126.06 157.19 126.71 157.15 127.56 C 157.11 128.40 157.76 129.12 158.60 129.16 Z M 159.63 129.21 L 160.61 129.24 C 161.45 129.27 162.16 128.62 162.19 127.78 C 162.22 126.93 161.57 126.23 160.73 126.20 L 159.74 126.16 C 158.90 126.13 158.19 126.78 158.16 127.63 C 158.13 128.47 158.79 129.18 159.63 129.21 Z M 160.60 129.24 L 161.48 129.28 C 162.32 129.31 163.03 128.66 163.07 127.82 C 163.10 126.99 162.45 126.28 161.61 126.24 L 160.74 126.20 C 159.90 126.16 159.19 126.81 159.15 127.65 C 159.11 128.49 159.76 129.20 160.60 129.24 Z M 161.45 129.27 L 162.55 129.34 C 163.39 129.39 164.11 128.76 164.16 127.93 C 164.21 127.09 163.58 126.37 162.75 126.32 L 161.65 126.25 C 160.81 126.19 160.09 126.83 160.04 127.66 C 159.98 128.49 160.62 129.21 161.45 129.27 Z M 162.53 129.33 L 163.50 129.41 C 164.33 129.48 165.06 128.86 165.13 128.03 C 165.19 127.20 164.58 126.47 163.75 126.41 L 162.77 126.33 C 161.94 126.26 161.21 126.88 161.15 127.71 C 161.08 128.54 161.70 129.26 162.53 129.33 Z M 163.47 129.40 L 164.51 129.51 C 165.34 129.60 166.08 128.99 166.16 128.17 C 166.25 127.34 165.64 126.60 164.82 126.52 L 163.77 126.41 C 162.95 126.33 162.21 126.93 162.13 127.76 C 162.04 128.58 162.64 129.32 163.47 129.40 Z M 164.46 129.50 L 165.45 129.64 C 166.27 129.75 167.02 129.17 167.14 128.35 C 167.25 127.53 166.67 126.78 165.85 126.66 L 164.87 126.53 C 164.05 126.42 163.29 126.99 163.18 127.81 C 163.07 128.63 163.64 129.39 164.46 129.50 Z M 165.29 129.60 L 166.54 129.90 C 167.34 130.10 168.14 129.61 168.34 128.81 C 168.53 128.01 168.05 127.21 167.25 127.01 L 166.01 126.70 C 165.21 126.51 164.40 127.00 164.21 127.79 C 164.01 128.59 164.50 129.40 165.29 129.60 Z M 165.58 129.11 L 165.74 129.45 C 166.11 130.17 166.99 130.47 167.72 130.10 C 168.44 129.74 168.74 128.85 168.37 128.13 L 168.21 127.80 C 167.84 127.07 166.96 126.78 166.23 127.14 C 165.51 127.50 165.21 128.39 165.58 129.11 Z M 166.66 127.39 L 165.59 127.69 C 164.81 127.91 164.37 128.71 164.58 129.49 C 164.80 130.26 165.61 130.71 166.38 130.49 L 167.45 130.19 C 168.23 129.97 168.68 129.16 168.46 128.39 C 168.24 127.62 167.44 127.17 166.66 127.39 Z M 165.68 127.68 L 165.61 127.69 C 164.83 127.86 164.33 128.63 164.50 129.41 C 164.67 130.19 165.44 130.69 166.22 130.52 L 166.29 130.50 C 167.07 130.34 167.56 129.57 167.40 128.79 C 167.23 128.01 166.46 127.51 165.68 127.68 Z"
      fill="black"
      fill-rule="nonzero" /><path d="M 146.42 123.07 L 146.17 124.03 C 145.97 124.82 146.45 125.63 147.24 125.83 C 148.03 126.03 148.83 125.55 149.03 124.76 L 149.28 123.80 C 149.48 123.01 149.00 122.20 148.21 122.00 C 147.42 121.80 146.62 122.28 146.42 123.07 Z M 146.12 124.19 L 145.98 125.19 C 145.87 126.01 146.44 126.76 147.26 126.87 C 148.08 126.99 148.84 126.41 148.95 125.59 L 149.09 124.60 C 149.20 123.78 148.63 123.02 147.81 122.91 C 146.99 122.80 146.23 123.37 146.12 124.19 Z M 145.96 125.44 L 146.00 126.40 C 146.03 127.23 146.72 127.88 147.55 127.85 C 148.38 127.83 149.03 127.13 149.00 126.30 L 148.97 125.34 C 148.94 124.51 148.24 123.86 147.41 123.89 C 146.59 123.92 145.94 124.61 145.96 125.44 Z M 146.02 126.53 L 146.14 127.55 C 146.24 128.37 146.98 128.95 147.80 128.85 C 148.62 128.75 149.20 128.01 149.10 127.19 L 148.98 126.17 C 148.88 125.36 148.14 124.77 147.32 124.87 C 146.50 124.97 145.92 125.71 146.02 126.53 Z M 146.15 127.55 L 146.28 128.54 C 146.38 129.35 147.12 129.93 147.93 129.83 C 148.74 129.72 149.32 128.98 149.21 128.17 L 149.09 127.19 C 148.99 126.38 148.25 125.80 147.44 125.90 C 146.63 126.00 146.05 126.74 146.15 127.55 Z M 146.29 128.53 L 146.40 129.53 C 146.50 130.33 147.22 130.91 148.03 130.82 C 148.84 130.72 149.41 129.99 149.32 129.19 L 149.20 128.19 C 149.11 127.38 148.38 126.80 147.58 126.90 C 146.77 126.99 146.19 127.72 146.29 128.53 Z M 146.41 129.53 L 146.53 130.54 C 146.63 131.33 147.35 131.91 148.15 131.81 C 148.95 131.71 149.52 130.99 149.43 130.19 L 149.31 129.18 C 149.21 128.38 148.49 127.81 147.69 127.91 C 146.89 128.00 146.32 128.73 146.41 129.53 Z M 146.55 130.55 L 146.68 131.55 C 146.78 132.34 147.51 132.90 148.30 132.79 C 149.10 132.69 149.65 131.96 149.55 131.17 L 149.42 130.17 C 149.31 129.38 148.58 128.82 147.79 128.93 C 147.00 129.03 146.44 129.76 146.55 130.55 Z M 146.69 131.57 L 146.84 132.56 C 146.96 133.34 147.69 133.88 148.48 133.76 C 149.26 133.64 149.80 132.91 149.68 132.12 L 149.53 131.14 C 149.41 130.36 148.68 129.82 147.90 129.94 C 147.11 130.06 146.57 130.79 146.69 131.57 Z M 146.85 132.59 L 147.03 133.58 C 147.17 134.36 147.91 134.88 148.69 134.74 C 149.46 134.60 149.98 133.86 149.85 133.08 L 149.67 132.09 C 149.53 131.31 148.79 130.79 148.01 130.93 C 147.24 131.07 146.72 131.81 146.85 132.59 Z M 147.04 133.60 L 147.23 134.58 C 147.38 135.36 148.13 135.86 148.90 135.71 C 149.68 135.56 150.18 134.81 150.03 134.04 L 149.84 133.06 C 149.69 132.28 148.94 131.78 148.16 131.93 C 147.39 132.08 146.89 132.83 147.04 133.60 Z M 147.23 134.59 L 147.31 135.00 C 147.47 135.78 148.22 136.28 148.99 136.12 C 149.76 135.97 150.26 135.21 150.11 134.44 L 150.03 134.03 C 149.87 133.26 149.12 132.76 148.35 132.91 C 147.58 133.07 147.08 133.82 147.23 134.59 Z"
      fill="black"
      fill-rule="nonzero" /><path d="M 155.43 122.27 L 155.53 123.25 C 155.61 124.06 156.33 124.64 157.13 124.56 C 157.94 124.47 158.52 123.75 158.44 122.95 L 158.34 121.97 C 158.25 121.17 157.54 120.58 156.73 120.66 C 155.93 120.75 155.34 121.47 155.43 122.27 Z M 155.50 123.21 L 155.58 124.21 C 155.63 125.02 156.34 125.64 157.16 125.58 C 157.98 125.52 158.59 124.81 158.53 124.00 L 158.46 123.00 C 158.40 122.18 157.70 121.56 156.88 121.62 C 156.06 121.68 155.45 122.39 155.50 123.21 Z M 155.56 124.14 L 155.59 125.09 C 155.61 125.91 156.29 126.56 157.12 126.54 C 157.94 126.52 158.59 125.84 158.57 125.01 L 158.54 124.06 C 158.52 123.24 157.84 122.59 157.02 122.61 C 156.19 122.63 155.54 123.32 155.56 124.14 Z M 155.59 125.06 L 155.59 126.11 C 155.59 126.94 156.26 127.60 157.09 127.60 C 157.91 127.60 158.57 126.93 158.57 126.10 L 158.57 125.05 C 158.57 124.22 157.90 123.56 157.07 123.56 C 156.25 123.57 155.59 124.23 155.59 125.06 Z M 155.60 126.11 L 155.60 127.14 C 155.60 127.96 156.26 128.62 157.08 128.62 C 157.90 128.62 158.57 127.96 158.57 127.14 L 158.57 126.11 C 158.57 125.29 157.90 124.62 157.08 124.62 C 156.26 124.62 155.60 125.29 155.60 126.11 Z M 155.60 127.14 L 155.60 128.15 C 155.60 128.96 156.27 129.63 157.08 129.63 C 157.90 129.63 158.56 128.96 158.56 128.15 L 158.56 127.14 C 158.56 126.32 157.90 125.66 157.08 125.66 C 156.27 125.66 155.60 126.32 155.60 127.14 Z M 155.61 128.15 L 155.61 129.19 C 155.61 130.00 156.27 130.65 157.08 130.65 C 157.89 130.65 158.55 130.00 158.55 129.19 L 158.55 128.15 C 158.55 127.34 157.89 126.68 157.08 126.68 C 156.27 126.68 155.61 127.34 155.61 128.15 Z M 155.63 129.18 L 155.62 130.12 C 155.61 130.92 156.26 131.58 157.06 131.59 C 157.87 131.59 158.52 130.95 158.53 130.14 L 158.54 129.20 C 158.54 128.39 157.90 127.74 157.09 127.73 C 156.29 127.73 155.63 128.37 155.63 129.18 Z M 155.63 130.09 L 155.60 131.06 C 155.58 131.85 156.20 132.52 157.00 132.54 C 157.80 132.57 158.46 131.94 158.48 131.15 L 158.51 130.18 C 158.54 129.38 157.91 128.72 157.12 128.69 C 156.32 128.67 155.66 129.29 155.63 130.09 Z M 155.61 131.00 L 155.54 132.00 C 155.49 132.79 156.08 133.48 156.87 133.53 C 157.66 133.59 158.35 133.00 158.40 132.21 L 158.47 131.20 C 158.53 130.41 157.94 129.73 157.15 129.67 C 156.36 129.62 155.67 130.21 155.61 131.00 Z M 155.55 131.95 L 155.44 132.94 C 155.36 133.73 155.92 134.43 156.71 134.52 C 157.49 134.61 158.20 134.04 158.28 133.26 L 158.39 132.26 C 158.48 131.48 157.91 130.77 157.13 130.68 C 156.35 130.60 155.64 131.16 155.55 131.95 Z M 155.45 132.92 L 155.32 133.92 C 155.23 134.70 155.78 135.42 156.56 135.51 C 157.34 135.61 158.06 135.06 158.15 134.27 L 158.28 133.28 C 158.38 132.49 157.82 131.78 157.04 131.68 C 156.26 131.59 155.54 132.14 155.45 132.92 Z M 155.32 133.92 L 155.20 134.87 C 155.11 135.65 155.66 136.36 156.44 136.46 C 157.22 136.56 157.94 136.01 158.03 135.23 L 158.15 134.28 C 158.25 133.49 157.70 132.78 156.92 132.68 C 156.14 132.58 155.42 133.14 155.32 133.92 Z"
      fill="black"
      fill-rule="nonzero" /><path d="M 137.25 146.20 L 138.20 145.89 C 139.00 145.63 139.44 144.77 139.18 143.97 C 138.92 143.17 138.06 142.73 137.26 142.99 L 136.30 143.30 C 135.50 143.56 135.07 144.42 135.33 145.22 C 135.59 146.02 136.45 146.46 137.25 146.20 Z M 137.92 145.95 L 138.89 145.83 C 139.73 145.72 140.32 144.96 140.21 144.13 C 140.11 143.30 139.35 142.71 138.51 142.81 L 137.54 142.93 C 136.71 143.04 136.12 143.80 136.22 144.63 C 136.33 145.46 137.09 146.05 137.92 145.95 Z M 138.51 145.82 L 139.50 145.94 C 140.33 146.05 141.08 145.46 141.19 144.63 C 141.29 143.81 140.71 143.05 139.88 142.94 L 138.89 142.82 C 138.07 142.71 137.31 143.30 137.20 144.13 C 137.10 144.96 137.69 145.71 138.51 145.82 Z M 139.37 145.91 L 140.34 146.12 C 141.15 146.30 141.95 145.78 142.13 144.98 C 142.30 144.17 141.79 143.37 140.98 143.19 L 140.01 142.98 C 139.20 142.80 138.40 143.32 138.23 144.12 C 138.05 144.93 138.56 145.73 139.37 145.91 Z M 140.33 146.11 L 141.30 146.33 C 142.10 146.52 142.90 146.02 143.08 145.21 C 143.27 144.41 142.77 143.61 141.97 143.43 L 141.00 143.20 C 140.19 143.02 139.40 143.52 139.21 144.32 C 139.03 145.12 139.53 145.92 140.33 146.11 Z M 141.27 146.32 L 142.25 146.57 C 143.04 146.77 143.85 146.29 144.05 145.49 C 144.25 144.70 143.77 143.89 142.98 143.69 L 142.00 143.44 C 141.20 143.24 140.40 143.72 140.19 144.51 C 139.99 145.31 140.47 146.12 141.27 146.32 Z M 142.18 146.54 L 143.14 146.84 C 143.92 147.08 144.75 146.64 144.99 145.87 C 145.23 145.09 144.79 144.26 144.02 144.02 L 143.05 143.72 C 142.27 143.48 141.45 143.91 141.20 144.69 C 140.96 145.47 141.40 146.30 142.18 146.54 Z M 142.99 146.77 L 143.94 147.19 C 144.69 147.52 145.55 147.18 145.88 146.43 C 146.20 145.69 145.86 144.82 145.12 144.50 L 144.17 144.08 C 143.42 143.76 142.56 144.10 142.23 144.84 C 141.91 145.58 142.25 146.45 142.99 146.77 Z M 143.67 147.03 L 144.47 147.61 C 145.12 148.09 146.04 147.95 146.52 147.29 C 146.99 146.64 146.85 145.72 146.20 145.25 L 145.39 144.66 C 144.74 144.18 143.82 144.33 143.35 144.98 C 142.87 145.64 143.01 146.55 143.67 147.03 Z M 144.05 147.13 L 144.51 147.97 C 144.89 148.68 145.78 148.95 146.49 148.56 C 147.20 148.17 147.46 147.29 147.08 146.58 L 146.62 145.73 C 146.23 145.02 145.34 144.76 144.63 145.14 C 143.92 145.53 143.66 146.42 144.05 147.13 Z M 144.34 147.12 L 144.24 148.08 C 144.15 148.88 144.73 149.60 145.54 149.68 C 146.34 149.77 147.06 149.19 147.14 148.38 L 147.24 147.43 C 147.33 146.63 146.75 145.91 145.95 145.82 C 145.15 145.74 144.43 146.32 144.34 147.12 Z M 144.54 147.33 L 143.96 148.08 C 143.46 148.72 143.57 149.63 144.21 150.13 C 144.84 150.62 145.76 150.51 146.25 149.88 L 146.84 149.13 C 147.33 148.49 147.22 147.58 146.59 147.08 C 145.95 146.59 145.04 146.70 144.54 147.33 Z M 144.22 147.82 L 143.40 148.44 C 142.76 148.93 142.64 149.85 143.13 150.49 C 143.62 151.13 144.53 151.26 145.17 150.77 L 145.99 150.14 C 146.63 149.65 146.75 148.74 146.26 148.09 C 145.77 147.45 144.86 147.33 144.22 147.82 Z M 143.51 148.36 L 142.66 148.89 C 141.97 149.32 141.76 150.22 142.19 150.91 C 142.62 151.60 143.53 151.81 144.22 151.38 L 145.07 150.85 C 145.75 150.42 145.96 149.51 145.53 148.83 C 145.10 148.14 144.20 147.93 143.51 148.36 Z M 142.75 148.83 L 141.84 149.30 C 141.12 149.68 140.84 150.57 141.22 151.30 C 141.60 152.02 142.49 152.30 143.22 151.92 L 144.12 151.44 C 144.85 151.07 145.13 150.17 144.75 149.45 C 144.37 148.73 143.47 148.45 142.75 148.83 Z M 141.93 149.25 L 141.01 149.66 C 140.26 149.99 139.92 150.87 140.26 151.62 C 140.59 152.37 141.47 152.71 142.22 152.38 L 143.14 151.97 C 143.89 151.63 144.22 150.76 143.89 150.01 C 143.55 149.26 142.68 148.92 141.93 149.25 Z M 141.06 149.63 L 140.17 149.99 C 139.40 150.29 139.02 151.16 139.33 151.92 C 139.63 152.69 140.50 153.06 141.26 152.76 L 142.16 152.41 C 142.93 152.10 143.30 151.24 143.00 150.47 C 142.70 149.70 141.83 149.33 141.06 149.63 Z M 140.23 149.96 L 139.30 150.27 C 138.52 150.54 138.10 151.40 138.37 152.18 C 138.63 152.96 139.49 153.38 140.27 153.11 L 141.20 152.79 C 141.98 152.52 142.40 151.67 142.13 150.89 C 141.86 150.10 141.01 149.69 140.23 149.96 Z M 139.38 150.25 L 138.23 150.57 C 137.43 150.79 136.97 151.62 137.19 152.42 C 137.42 153.22 138.25 153.68 139.04 153.46 L 140.19 153.14 C 140.99 152.91 141.45 152.09 141.23 151.29 C 141.01 150.49 140.18 150.02 139.38 150.25 Z M 138.21 150.57 L 137.29 150.85 C 136.50 151.08 136.04 151.92 136.28 152.71 C 136.51 153.50 137.34 153.96 138.14 153.72 L 139.06 153.45 C 139.86 153.22 140.31 152.38 140.08 151.59 C 139.84 150.79 139.01 150.34 138.21 150.57 Z M 137.23 153.70 L 137.61 153.83 C 138.39 154.10 139.24 153.68 139.51 152.90 C 139.78 152.12 139.36 151.27 138.58 151.00 L 138.20 150.87 C 137.42 150.61 136.57 151.02 136.30 151.80 C 136.03 152.58 136.45 153.43 137.23 153.70 Z M 138.09 153.90 L 139.29 153.91 C 140.11 153.91 140.78 153.25 140.79 152.43 C 140.79 151.61 140.13 150.94 139.31 150.94 L 138.11 150.93 C 137.29 150.93 136.62 151.59 136.61 152.41 C 136.61 153.23 137.27 153.90 138.09 153.90 Z M 139.26 153.90 L 140.27 153.93 C 141.09 153.95 141.77 153.31 141.79 152.49 C 141.81 151.67 141.17 150.99 140.35 150.97 L 139.34 150.94 C 138.53 150.92 137.84 151.57 137.82 152.38 C 137.80 153.20 138.44 153.88 139.26 153.90 Z M 140.15 153.92 L 141.17 154.03 C 141.98 154.12 142.71 153.54 142.80 152.73 C 142.89 151.92 142.31 151.19 141.49 151.10 L 140.48 150.98 C 139.66 150.89 138.93 151.48 138.84 152.29 C 138.75 153.10 139.34 153.83 140.15 153.92 Z M 140.95 154.00 L 141.91 154.26 C 142.70 154.47 143.51 154.00 143.72 153.21 C 143.94 152.42 143.47 151.60 142.68 151.39 L 141.71 151.13 C 140.92 150.92 140.11 151.39 139.90 152.18 C 139.69 152.97 140.15 153.78 140.95 154.00 Z M 141.58 154.13 L 142.44 154.60 C 143.16 154.99 144.07 154.72 144.46 153.99 C 144.85 153.27 144.58 152.36 143.85 151.97 L 143.00 151.51 C 142.27 151.12 141.37 151.39 140.98 152.12 C 140.59 152.84 140.86 153.74 141.58 154.13 Z M 142.06 154.32 L 142.75 155.03 C 143.32 155.63 144.26 155.65 144.86 155.08 C 145.46 154.51 145.48 153.57 144.91 152.97 L 144.23 152.25 C 143.66 151.65 142.71 151.63 142.11 152.20 C 141.51 152.77 141.49 153.72 142.06 154.32 Z M 142.50 154.70 L 142.94 155.55 C 143.33 156.29 144.24 156.57 144.97 156.19 C 145.71 155.80 145.99 154.89 145.61 154.16 L 145.16 153.30 C 144.78 152.57 143.87 152.28 143.13 152.67 C 142.40 153.05 142.11 153.96 142.50 154.70 Z M 142.82 155.25 L 143.09 156.25 C 143.31 157.06 144.14 157.53 144.95 157.31 C 145.75 157.09 146.23 156.26 146.01 155.45 L 145.73 154.45 C 145.51 153.65 144.68 153.17 143.88 153.39 C 143.07 153.62 142.60 154.45 142.82 155.25 Z M 143.04 156.01 L 143.15 157.03 C 143.24 157.86 143.98 158.46 144.82 158.37 C 145.65 158.29 146.25 157.54 146.17 156.71 L 146.06 155.69 C 145.97 154.86 145.22 154.26 144.39 154.35 C 143.56 154.43 142.95 155.18 143.04 156.01 Z M 143.14 156.91 L 143.17 157.91 C 143.20 158.75 143.90 159.41 144.73 159.38 C 145.57 159.36 146.23 158.66 146.20 157.82 L 146.17 156.82 C 146.15 155.98 145.45 155.32 144.61 155.35 C 143.77 155.38 143.11 156.07 143.14 156.91 Z M 143.17 157.84 L 143.15 158.83 C 143.14 159.67 143.80 160.36 144.64 160.38 C 145.48 160.39 146.17 159.73 146.19 158.89 L 146.21 157.89 C 146.22 157.06 145.55 156.36 144.71 156.35 C 143.88 156.33 143.18 157.00 143.17 157.84 Z M 143.16 158.67 L 143.05 159.59 C 142.94 160.42 143.54 161.18 144.37 161.29 C 145.20 161.39 145.96 160.80 146.06 159.96 L 146.18 159.05 C 146.28 158.22 145.69 157.46 144.86 157.35 C 144.02 157.25 143.26 157.84 143.16 158.67 Z M 143.08 159.40 L 142.83 160.40 C 142.62 161.22 143.11 162.04 143.92 162.25 C 144.74 162.46 145.57 161.97 145.77 161.16 L 146.03 160.15 C 146.24 159.34 145.75 158.51 144.93 158.30 C 144.12 158.10 143.29 158.59 143.08 159.40 Z M 142.87 160.27 L 142.53 161.21 C 142.25 162.00 142.67 162.87 143.46 163.15 C 144.25 163.43 145.12 163.01 145.40 162.22 L 145.73 161.29 C 146.01 160.49 145.60 159.63 144.81 159.34 C 144.02 159.06 143.15 159.48 142.87 160.27 Z M 142.57 161.11 L 142.17 162.06 C 141.84 162.83 142.19 163.72 142.96 164.05 C 143.73 164.39 144.62 164.03 144.96 163.26 L 145.36 162.32 C 145.69 161.55 145.34 160.65 144.57 160.32 C 143.80 159.99 142.91 160.34 142.57 161.11 Z M 142.23 161.95 L 141.74 162.86 C 141.35 163.60 141.63 164.51 142.36 164.91 C 143.10 165.30 144.02 165.02 144.41 164.28 L 144.90 163.37 C 145.29 162.63 145.01 161.72 144.27 161.32 C 143.54 160.93 142.62 161.21 142.23 161.95 Z M 141.82 162.75 L 141.28 163.58 C 140.82 164.28 141.02 165.21 141.71 165.66 C 142.41 166.11 143.34 165.92 143.79 165.22 L 144.33 164.39 C 144.79 163.70 144.59 162.77 143.90 162.31 C 143.20 161.86 142.27 162.06 141.82 162.75 Z M 141.32 163.54 L 140.97 164.04 C 140.49 164.71 140.65 165.64 141.32 166.11 C 141.99 166.59 142.92 166.43 143.39 165.76 L 143.75 165.27 C 144.22 164.60 144.06 163.67 143.39 163.19 C 142.72 162.71 141.80 162.87 141.32 163.54 Z"
      fill="black"
      fill-rule="nonzero" /><path d="M 135.02 148.51 L 134.68 149.38 C 134.38 150.13 134.74 150.98 135.50 151.28 C 136.25 151.59 137.10 151.22 137.40 150.47 L 137.75 149.60 C 138.05 148.85 137.68 147.99 136.93 147.69 C 136.18 147.39 135.33 147.76 135.02 148.51 Z M 134.58 149.59 L 134.35 150.61 C 134.17 151.42 134.67 152.22 135.48 152.41 C 136.29 152.59 137.09 152.08 137.27 151.27 L 137.50 150.25 C 137.69 149.44 137.18 148.64 136.37 148.46 C 135.56 148.28 134.76 148.79 134.58 149.59 Z M 134.30 150.83 L 134.23 151.81 C 134.16 152.65 134.79 153.37 135.63 153.44 C 136.46 153.50 137.19 152.87 137.25 152.03 L 137.32 151.05 C 137.38 150.22 136.76 149.49 135.92 149.43 C 135.09 149.37 134.36 150.00 134.30 150.83 Z M 134.22 151.90 L 134.21 152.93 C 134.19 153.77 134.86 154.46 135.70 154.47 C 136.54 154.49 137.23 153.82 137.24 152.98 L 137.26 151.95 C 137.27 151.11 136.60 150.42 135.76 150.41 C 134.92 150.39 134.23 151.06 134.22 151.90 Z M 134.20 152.96 L 134.20 153.98 C 134.20 154.82 134.88 155.50 135.72 155.50 C 136.56 155.50 137.24 154.82 137.24 153.98 L 137.24 152.96 C 137.24 152.12 136.56 151.44 135.72 151.44 C 134.88 151.44 134.20 152.12 134.20 152.96 Z M 134.20 153.98 L 134.20 154.96 C 134.20 155.80 134.88 156.48 135.72 156.48 C 136.56 156.48 137.24 155.80 137.24 154.96 L 137.24 153.98 C 137.24 153.14 136.56 152.46 135.72 152.46 C 134.88 152.46 134.20 153.14 134.20 153.98 Z M 134.20 154.96 L 134.20 155.93 C 134.20 156.77 134.88 157.45 135.72 157.45 C 136.56 157.45 137.24 156.77 137.24 155.93 L 137.24 154.96 C 137.24 154.12 136.56 153.44 135.72 153.44 C 134.88 153.44 134.20 154.12 134.20 154.96 Z M 134.20 155.93 L 134.20 156.93 C 134.21 157.77 134.89 158.44 135.73 158.44 C 136.57 158.44 137.25 157.76 137.25 156.92 L 137.24 155.93 C 137.24 155.09 136.56 154.41 135.72 154.41 C 134.88 154.41 134.20 155.09 134.20 155.93 Z M 134.20 156.93 L 134.21 157.97 C 134.22 158.81 134.91 159.49 135.75 159.48 C 136.59 159.47 137.27 158.78 137.26 157.94 L 137.25 156.91 C 137.24 156.07 136.56 155.39 135.71 155.40 C 134.87 155.40 134.19 156.09 134.20 156.93 Z M 134.21 157.98 L 134.22 158.96 C 134.24 159.80 134.93 160.47 135.78 160.46 C 136.62 160.45 137.29 159.75 137.28 158.91 L 137.26 157.93 C 137.25 157.09 136.55 156.41 135.71 156.43 C 134.86 156.44 134.19 157.14 134.21 157.98 Z M 134.22 158.97 L 134.25 159.98 C 134.27 160.82 134.97 161.49 135.82 161.47 C 136.66 161.45 137.33 160.74 137.31 159.90 L 137.28 158.89 C 137.26 158.05 136.56 157.38 135.71 157.40 C 134.87 157.42 134.20 158.13 134.22 158.97 Z M 134.24 159.99 L 134.28 161.00 C 134.31 161.85 135.02 162.51 135.87 162.48 C 136.71 162.45 137.38 161.74 137.35 160.89 L 137.31 159.88 C 137.28 159.04 136.57 158.37 135.72 158.40 C 134.88 158.43 134.21 159.14 134.24 159.99 Z M 134.28 161.01 L 134.32 162.00 C 134.36 162.85 135.07 163.51 135.92 163.47 C 136.77 163.44 137.43 162.72 137.39 161.87 L 137.35 160.88 C 137.31 160.03 136.59 159.37 135.75 159.41 C 134.90 159.45 134.24 160.16 134.28 161.01 Z M 134.32 162.02 L 134.37 163.02 C 134.42 163.87 135.14 164.52 135.98 164.48 C 136.83 164.44 137.48 163.71 137.44 162.87 L 137.39 161.86 C 137.35 161.01 136.62 160.36 135.78 160.40 C 134.93 160.45 134.28 161.17 134.32 162.02 Z M 134.37 163.03 L 134.43 164.04 C 134.48 164.89 135.21 165.54 136.05 165.49 C 136.90 165.44 137.55 164.71 137.50 163.86 L 137.44 162.86 C 137.39 162.01 136.66 161.36 135.82 161.41 C 134.97 161.46 134.32 162.19 134.37 163.03 Z M 134.43 164.05 L 134.49 165.05 C 134.55 165.90 135.28 166.54 136.12 166.49 C 136.97 166.43 137.61 165.70 137.56 164.86 L 137.50 163.86 C 137.44 163.01 136.72 162.37 135.87 162.42 C 135.02 162.47 134.38 163.20 134.43 164.05 Z M 134.50 165.05 L 134.56 166.04 C 134.61 166.89 135.34 167.53 136.18 167.48 C 137.03 167.43 137.67 166.70 137.62 165.85 L 137.56 164.86 C 137.51 164.01 136.78 163.37 135.93 163.42 C 135.09 163.47 134.44 164.20 134.50 165.05 Z M 134.56 166.03 L 134.61 167.04 C 134.66 167.89 135.38 168.53 136.23 168.49 C 137.08 168.44 137.72 167.72 137.68 166.87 L 137.62 165.86 C 137.57 165.02 136.85 164.37 136.00 164.42 C 135.16 164.46 134.51 165.19 134.56 166.03 Z M 134.61 167.03 L 134.66 168.03 C 134.70 168.88 135.42 169.53 136.27 169.49 C 137.11 169.45 137.76 168.73 137.72 167.89 L 137.68 166.88 C 137.64 166.04 136.92 165.38 136.07 165.42 C 135.23 165.47 134.57 166.18 134.61 167.03 Z M 134.66 168.02 L 134.71 169.01 C 134.74 169.85 135.45 170.51 136.30 170.48 C 137.14 170.44 137.80 169.73 137.76 168.89 L 137.72 167.90 C 137.69 167.05 136.97 166.40 136.13 166.43 C 135.29 166.47 134.63 167.18 134.66 168.02 Z M 134.71 169.00 L 134.74 170.00 C 134.77 170.84 135.48 171.50 136.32 171.47 C 137.16 171.44 137.82 170.74 137.79 169.89 L 137.76 168.89 C 137.73 168.05 137.02 167.39 136.18 167.42 C 135.34 167.45 134.68 168.16 134.71 169.00 Z M 134.75 170.00 L 134.78 170.99 C 134.81 171.83 135.51 172.49 136.35 172.46 C 137.19 172.43 137.85 171.73 137.82 170.89 L 137.79 169.90 C 137.76 169.06 137.06 168.40 136.22 168.43 C 135.38 168.45 134.72 169.16 134.75 170.00 Z M 134.78 170.99 L 134.82 172.00 C 134.85 172.83 135.55 173.49 136.39 173.46 C 137.23 173.43 137.88 172.73 137.85 171.89 L 137.82 170.89 C 137.79 170.05 137.09 169.40 136.25 169.42 C 135.41 169.45 134.75 170.16 134.78 170.99 Z M 134.82 172.00 L 134.86 173.03 C 134.90 173.87 135.60 174.52 136.44 174.49 C 137.27 174.45 137.92 173.75 137.89 172.91 L 137.85 171.88 C 137.82 171.05 137.11 170.40 136.28 170.43 C 135.44 170.46 134.79 171.17 134.82 172.00 Z M 134.87 173.03 L 134.91 174.04 C 134.94 174.87 135.64 175.52 136.48 175.48 C 137.31 175.45 137.96 174.75 137.93 173.91 L 137.89 172.91 C 137.85 172.08 137.15 171.43 136.31 171.46 C 135.48 171.50 134.83 172.20 134.87 173.03 Z M 134.91 174.03 L 134.95 175.04 C 134.98 175.87 135.68 176.52 136.51 176.49 C 137.35 176.46 138.00 175.76 137.96 174.93 L 137.92 173.92 C 137.89 173.08 137.19 172.43 136.36 172.47 C 135.53 172.50 134.88 173.20 134.91 174.03 Z M 134.95 175.04 L 134.99 176.05 C 135.02 176.88 135.72 177.53 136.55 177.50 C 137.38 177.47 138.03 176.77 138.00 175.94 L 137.96 174.93 C 137.93 174.10 137.23 173.45 136.40 173.48 C 135.57 173.51 134.92 174.21 134.95 175.04 Z M 134.99 176.07 L 135.04 177.00 C 135.08 177.83 135.78 178.47 136.61 178.43 C 137.44 178.39 138.08 177.69 138.04 176.86 L 138.00 175.92 C 137.96 175.09 137.25 174.45 136.42 174.49 C 135.59 174.53 134.95 175.24 134.99 176.07 Z M 135.04 177.04 L 135.11 178.01 C 135.17 178.83 135.89 179.45 136.72 179.39 C 137.55 179.33 138.17 178.61 138.11 177.79 L 138.04 176.82 C 137.97 175.99 137.26 175.37 136.43 175.43 C 135.60 175.49 134.98 176.21 135.04 177.04 Z M 135.12 178.05 L 135.22 179.07 C 135.31 179.89 136.04 180.49 136.86 180.40 C 137.68 180.32 138.28 179.59 138.20 178.77 L 138.10 177.75 C 138.02 176.93 137.28 176.33 136.46 176.41 C 135.64 176.49 135.04 177.23 135.12 178.05 Z M 135.23 179.11 L 135.36 180.11 C 135.47 180.93 136.22 181.50 137.04 181.40 C 137.85 181.29 138.43 180.54 138.32 179.73 L 138.19 178.72 C 138.08 177.91 137.34 177.33 136.52 177.44 C 135.70 177.54 135.13 178.29 135.23 179.11 Z M 135.38 180.19 L 135.56 181.17 C 135.71 181.98 136.48 182.52 137.29 182.37 C 138.10 182.22 138.63 181.45 138.49 180.64 L 138.31 179.65 C 138.16 178.84 137.38 178.31 136.58 178.46 C 135.77 178.61 135.23 179.38 135.38 180.19 Z M 135.63 181.38 L 136.00 182.46 C 136.26 183.23 137.10 183.64 137.87 183.38 C 138.64 183.11 139.05 182.27 138.79 181.50 L 138.42 180.43 C 138.16 179.66 137.32 179.24 136.55 179.51 C 135.77 179.77 135.36 180.61 135.63 181.38 Z M 136.69 183.26 L 137.31 183.60 C 138.02 183.99 138.90 183.73 139.29 183.02 C 139.68 182.31 139.42 181.42 138.71 181.04 L 138.09 180.70 C 137.39 180.31 136.50 180.57 136.11 181.28 C 135.72 181.99 135.98 182.88 136.69 183.26 Z M 138.70 183.59 L 139.54 183.13 C 140.24 182.75 140.50 181.87 140.12 181.17 C 139.74 180.47 138.86 180.21 138.16 180.59 L 137.32 181.05 C 136.62 181.43 136.36 182.31 136.74 183.01 C 137.12 183.71 138.00 183.97 138.70 183.59 Z M 139.74 182.99 L 140.24 182.59 C 140.86 182.10 140.97 181.20 140.48 180.58 C 139.99 179.95 139.09 179.85 138.46 180.34 L 137.96 180.73 C 137.34 181.23 137.23 182.13 137.73 182.75 C 138.22 183.37 139.12 183.48 139.74 182.99 Z"
      fill="black"
      fill-rule="nonzero" /><path d="M 158.51 138.94 L 157.80 139.65 C 157.21 140.25 157.22 141.20 157.81 141.79 C 158.40 142.37 159.35 142.37 159.94 141.78 L 160.65 141.06 C 161.24 140.47 161.24 139.52 160.65 138.93 C 160.06 138.34 159.10 138.34 158.51 138.94 Z M 157.77 139.68 L 157.09 140.40 C 156.52 141.01 156.55 141.96 157.16 142.54 C 157.77 143.11 158.73 143.08 159.30 142.47 L 159.98 141.75 C 160.55 141.14 160.52 140.19 159.91 139.61 C 159.30 139.04 158.34 139.07 157.77 139.68 Z M 157.04 140.45 L 156.42 141.18 C 155.88 141.82 155.97 142.78 156.61 143.32 C 157.25 143.86 158.21 143.78 158.75 143.14 L 159.36 142.41 C 159.90 141.77 159.82 140.81 159.18 140.27 C 158.54 139.73 157.58 139.81 157.04 140.45 Z M 156.37 141.24 L 155.74 142.08 C 155.24 142.75 155.37 143.70 156.04 144.21 C 156.71 144.71 157.66 144.58 158.17 143.91 L 158.80 143.07 C 159.30 142.40 159.17 141.45 158.50 140.95 C 157.83 140.44 156.88 140.57 156.37 141.24 Z M 155.71 142.12 L 155.15 142.92 C 154.67 143.60 154.83 144.55 155.52 145.04 C 156.20 145.52 157.15 145.36 157.63 144.67 L 158.20 143.87 C 158.68 143.19 158.52 142.24 157.83 141.75 C 157.15 141.27 156.20 141.43 155.71 142.12 Z M 155.14 142.93 L 154.56 143.78 C 154.08 144.47 154.26 145.41 154.95 145.89 C 155.64 146.37 156.58 146.19 157.06 145.50 L 157.64 144.66 C 158.12 143.97 157.95 143.02 157.25 142.54 C 156.56 142.07 155.62 142.24 155.14 142.93 Z M 154.56 143.78 L 153.97 144.63 C 153.49 145.32 153.66 146.27 154.35 146.74 C 155.04 147.22 155.98 147.05 156.46 146.36 L 157.05 145.50 C 157.53 144.82 157.36 143.87 156.67 143.39 C 155.98 142.92 155.04 143.09 154.56 143.78 Z M 153.98 144.63 L 153.41 145.45 C 152.93 146.14 153.10 147.08 153.78 147.55 C 154.47 148.03 155.41 147.86 155.88 147.18 L 156.45 146.36 C 156.93 145.68 156.76 144.74 156.08 144.26 C 155.39 143.78 154.45 143.95 153.98 144.63 Z M 153.41 145.47 L 152.88 146.24 C 152.41 146.92 152.58 147.86 153.27 148.33 C 153.95 148.79 154.88 148.62 155.35 147.94 L 155.88 147.16 C 156.35 146.48 156.17 145.55 155.49 145.08 C 154.81 144.61 153.88 144.79 153.41 145.47 Z M 152.88 146.27 L 152.36 147.05 C 151.90 147.73 152.09 148.66 152.77 149.11 C 153.45 149.56 154.38 149.38 154.83 148.69 L 155.35 147.91 C 155.80 147.23 155.62 146.31 154.94 145.85 C 154.25 145.40 153.33 145.58 152.88 146.27 Z M 152.37 147.07 L 151.77 147.97 C 151.33 148.65 151.52 149.56 152.20 150.00 C 152.87 150.45 153.78 150.26 154.23 149.58 L 154.82 148.68 C 155.26 148.00 155.08 147.09 154.40 146.65 C 153.72 146.20 152.81 146.39 152.37 147.07 Z M 151.78 147.98 L 151.28 148.74 C 150.84 149.41 151.03 150.32 151.70 150.76 C 152.37 151.20 153.27 151.01 153.71 150.34 L 154.21 149.58 C 154.66 148.91 154.47 148.00 153.80 147.56 C 153.13 147.12 152.23 147.31 151.78 147.98 Z M 151.29 148.74 L 150.73 149.59 C 150.29 150.25 150.48 151.15 151.14 151.59 C 151.81 152.03 152.71 151.85 153.15 151.18 L 153.71 150.34 C 154.15 149.67 153.96 148.77 153.29 148.33 C 152.63 147.89 151.73 148.08 151.29 148.74 Z M 150.74 149.59 L 150.15 150.47 C 149.71 151.14 149.90 152.03 150.56 152.47 C 151.23 152.91 152.12 152.73 152.56 152.06 L 153.15 151.18 C 153.59 150.51 153.40 149.62 152.74 149.18 C 152.07 148.74 151.18 148.92 150.74 149.59 Z M 150.15 150.47 L 150.01 150.69 C 149.57 151.36 149.76 152.25 150.42 152.69 C 151.08 153.13 151.98 152.94 152.42 152.28 L 152.56 152.06 C 153.00 151.40 152.82 150.50 152.15 150.07 C 151.49 149.63 150.59 149.81 150.15 150.47 Z"
      fill="black"
      fill-rule="nonzero" /><path d="M 158.62 143.72 L 159.33 144.39 C 159.92 144.96 160.86 144.94 161.42 144.35 C 161.99 143.76 161.97 142.82 161.38 142.25 L 160.67 141.58 C 160.08 141.01 159.14 141.03 158.58 141.62 C 158.01 142.21 158.03 143.15 158.62 143.72 Z M 159.43 144.50 L 160.22 145.12 C 160.87 145.63 161.81 145.52 162.32 144.87 C 162.83 144.23 162.72 143.29 162.07 142.78 L 161.28 142.15 C 160.63 141.64 159.69 141.75 159.18 142.40 C 158.67 143.05 158.78 143.98 159.43 144.50 Z M 160.36 145.22 L 161.22 145.75 C 161.93 146.19 162.85 145.97 163.28 145.26 C 163.72 144.56 163.50 143.64 162.79 143.20 L 161.94 142.67 C 161.23 142.24 160.31 142.46 159.87 143.16 C 159.44 143.87 159.66 144.79 160.36 145.22 Z M 161.35 145.81 L 162.26 146.26 C 163.00 146.63 163.89 146.33 164.25 145.59 C 164.62 144.85 164.32 143.96 163.58 143.59 L 162.67 143.14 C 161.93 142.78 161.04 143.08 160.67 143.82 C 160.31 144.56 160.61 145.45 161.35 145.81 Z M 162.36 146.29 L 163.27 146.66 C 164.02 146.97 164.88 146.61 165.19 145.86 C 165.50 145.11 165.14 144.25 164.39 143.95 L 163.48 143.57 C 162.73 143.26 161.87 143.62 161.56 144.37 C 161.25 145.12 161.61 145.98 162.36 146.29 Z M 163.30 146.65 L 164.23 147.01 C 164.97 147.31 165.81 146.94 166.10 146.20 C 166.40 145.45 166.03 144.61 165.29 144.32 L 164.36 143.96 C 163.61 143.67 162.78 144.03 162.48 144.77 C 162.19 145.52 162.56 146.36 163.30 146.65 Z M 164.23 147.00 L 164.93 147.27 C 165.67 147.56 166.50 147.20 166.79 146.46 C 167.07 145.73 166.71 144.90 165.98 144.61 L 165.28 144.33 C 164.54 144.05 163.71 144.41 163.42 145.14 C 163.14 145.88 163.50 146.71 164.23 147.00 Z"
      fill="black"
      fill-rule="nonzero" /><path d="M 153.79 151.00 L 154.69 151.04 C 155.52 151.07 156.21 150.43 156.25 149.61 C 156.28 148.78 155.64 148.08 154.82 148.05 L 153.92 148.01 C 153.09 147.98 152.39 148.62 152.36 149.44 C 152.32 150.27 152.97 150.97 153.79 151.00 Z M 154.69 151.04 L 155.79 151.08 C 156.62 151.12 157.31 150.47 157.35 149.65 C 157.38 148.82 156.74 148.12 155.91 148.09 L 154.81 148.05 C 153.99 148.01 153.29 148.66 153.26 149.48 C 153.22 150.31 153.87 151.01 154.69 151.04 Z M 155.79 151.08 L 156.76 151.12 C 157.58 151.15 158.28 150.51 158.31 149.68 C 158.34 148.86 157.70 148.16 156.88 148.13 L 155.91 148.10 C 155.08 148.06 154.39 148.71 154.36 149.53 C 154.33 150.35 154.97 151.05 155.79 151.08 Z M 156.77 151.10 L 157.80 151.14 C 158.62 151.17 159.31 150.53 159.34 149.71 C 159.36 148.89 158.72 148.21 157.91 148.18 L 156.87 148.14 C 156.05 148.12 155.37 148.76 155.34 149.57 C 155.31 150.39 155.95 151.08 156.77 151.10 Z M 157.82 151.13 L 158.85 151.16 C 159.66 151.18 160.33 150.54 160.35 149.73 C 160.38 148.92 159.74 148.24 158.92 148.22 L 157.89 148.19 C 157.08 148.17 156.41 148.81 156.39 149.62 C 156.36 150.43 157.00 151.11 157.82 151.13 Z M 158.86 151.14 L 159.91 151.16 C 160.72 151.17 161.38 150.53 161.39 149.72 C 161.40 148.92 160.76 148.26 159.96 148.25 L 158.91 148.23 C 158.10 148.22 157.44 148.86 157.43 149.67 C 157.42 150.47 158.06 151.13 158.86 151.14 Z M 159.92 151.15 L 160.83 151.16 C 161.63 151.17 162.29 150.53 162.30 149.73 C 162.31 148.94 161.67 148.28 160.87 148.27 L 159.95 148.26 C 159.16 148.25 158.50 148.89 158.49 149.68 C 158.48 150.48 159.12 151.14 159.92 151.15 Z M 160.82 151.15 L 161.82 151.17 C 162.61 151.19 163.27 150.57 163.29 149.78 C 163.31 148.99 162.69 148.33 161.89 148.31 L 160.89 148.28 C 160.10 148.26 159.44 148.89 159.42 149.68 C 159.40 150.47 160.02 151.13 160.82 151.15 Z M 161.81 151.17 L 162.76 151.20 C 163.55 151.23 164.21 150.61 164.24 149.83 C 164.27 149.04 163.65 148.38 162.86 148.35 L 161.91 148.31 C 161.12 148.29 160.46 148.90 160.43 149.69 C 160.40 150.48 161.02 151.14 161.81 151.17 Z"
      fill="black"
      fill-rule="nonzero" /><path d="M 152.43 157.12 L 153.45 157.28 C 154.27 157.41 155.03 156.85 155.16 156.04 C 155.29 155.22 154.73 154.46 153.92 154.33 L 152.90 154.17 C 152.08 154.04 151.32 154.60 151.19 155.41 C 151.06 156.23 151.62 156.99 152.43 157.12 Z M 153.50 157.28 L 154.47 157.40 C 155.28 157.50 156.02 156.92 156.12 156.11 C 156.23 155.30 155.65 154.55 154.83 154.45 L 153.87 154.33 C 153.05 154.23 152.31 154.81 152.21 155.62 C 152.11 156.44 152.69 157.18 153.50 157.28 Z M 154.57 157.41 L 155.52 157.46 C 156.34 157.50 157.04 156.87 157.08 156.05 C 157.12 155.23 156.49 154.54 155.68 154.49 L 154.73 154.44 C 153.91 154.40 153.21 155.03 153.17 155.85 C 153.13 156.67 153.76 157.36 154.57 157.41 Z M 155.65 157.46 L 156.69 157.42 C 157.51 157.40 158.15 156.71 158.12 155.89 C 158.10 155.07 157.41 154.43 156.59 154.46 L 155.55 154.49 C 154.73 154.52 154.09 155.20 154.12 156.02 C 154.14 156.84 154.83 157.48 155.65 157.46 Z M 156.75 157.42 L 157.70 157.35 C 158.52 157.29 159.13 156.58 159.07 155.76 C 159.01 154.94 158.30 154.33 157.48 154.39 L 156.53 154.46 C 155.71 154.52 155.10 155.23 155.16 156.05 C 155.22 156.87 155.93 157.48 156.75 157.42 Z M 157.72 157.35 L 158.75 157.26 C 159.57 157.18 160.17 156.46 160.10 155.65 C 160.03 154.83 159.31 154.23 158.49 154.30 L 157.46 154.39 C 156.65 154.47 156.04 155.19 156.12 156.00 C 156.19 156.82 156.91 157.42 157.72 157.35 Z M 158.75 157.26 L 159.90 157.16 C 160.72 157.09 161.32 156.37 161.25 155.55 C 161.18 154.73 160.46 154.13 159.65 154.20 L 158.49 154.30 C 157.68 154.37 157.07 155.09 157.14 155.91 C 157.21 156.72 157.93 157.33 158.75 157.26 Z M 159.71 157.17 L 160.70 157.21 C 161.52 157.25 162.22 156.61 162.26 155.79 C 162.30 154.97 161.66 154.28 160.84 154.24 L 159.84 154.19 C 159.02 154.15 158.32 154.79 158.29 155.61 C 158.25 156.43 158.88 157.13 159.71 157.17 Z M 159.42 156.35 L 159.66 156.89 C 160.01 157.64 160.89 157.96 161.64 157.62 C 162.39 157.28 162.72 156.39 162.37 155.64 L 162.12 155.10 C 161.78 154.35 160.89 154.03 160.15 154.37 C 159.40 154.71 159.07 155.60 159.42 156.35 Z M 159.71 155.58 L 159.19 156.55 C 158.81 157.28 159.09 158.18 159.82 158.56 C 160.54 158.94 161.44 158.66 161.82 157.93 L 162.33 156.95 C 162.71 156.23 162.43 155.33 161.71 154.95 C 160.98 154.57 160.09 154.85 159.71 155.58 Z M 159.33 156.36 L 158.72 157.18 C 158.23 157.83 158.36 158.75 159.01 159.24 C 159.66 159.73 160.58 159.59 161.06 158.95 L 161.68 158.13 C 162.17 157.48 162.04 156.56 161.39 156.07 C 160.74 155.58 159.82 155.71 159.33 156.36 Z M 158.83 157.08 L 158.15 157.80 C 157.61 158.38 157.64 159.30 158.23 159.85 C 158.81 160.40 159.73 160.36 160.28 159.78 L 160.95 159.05 C 161.50 158.47 161.46 157.55 160.88 157.00 C 160.29 156.46 159.37 156.49 158.83 157.08 Z M 158.25 157.72 L 157.52 158.38 C 156.93 158.92 156.89 159.83 157.42 160.41 C 157.96 161.00 158.87 161.05 159.46 160.51 L 160.18 159.85 C 160.77 159.32 160.82 158.41 160.28 157.82 C 159.75 157.23 158.84 157.19 158.25 157.72 Z M 157.57 158.35 L 156.82 158.98 C 156.22 159.49 156.14 160.39 156.65 161.00 C 157.16 161.60 158.06 161.68 158.67 161.17 L 159.41 160.54 C 160.01 160.03 160.09 159.13 159.58 158.53 C 159.07 157.92 158.17 157.85 157.57 158.35 Z"
      fill="black"
      fill-rule="nonzero" /><path d="M 155.46 158.93 L 154.65 158.77 C 153.84 158.61 153.05 159.13 152.89 159.94 C 152.72 160.75 153.25 161.54 154.06 161.70 L 154.87 161.87 C 155.68 162.03 156.47 161.50 156.63 160.69 C 156.80 159.88 156.27 159.09 155.46 158.93 Z M 154.42 161.72 L 155.16 161.69 C 155.97 161.65 156.61 160.96 156.58 160.14 C 156.54 159.32 155.85 158.69 155.03 158.72 L 154.29 158.75 C 153.47 158.79 152.84 159.48 152.87 160.30 C 152.91 161.12 153.60 161.75 154.42 161.72 Z M 155.10 161.71 L 156.34 161.71 C 157.17 161.70 157.85 161.03 157.84 160.20 C 157.84 159.36 157.16 158.69 156.33 158.69 L 155.09 158.70 C 154.26 158.70 153.58 159.38 153.59 160.21 C 153.59 161.04 154.27 161.71 155.10 161.71 Z M 156.34 161.71 L 157.40 161.71 C 158.24 161.71 158.91 161.04 158.91 160.20 C 158.91 159.37 158.24 158.69 157.40 158.69 L 156.34 158.69 C 155.50 158.69 154.82 159.37 154.82 160.20 C 154.82 161.04 155.50 161.71 156.34 161.71 Z M 157.40 161.70 L 158.38 161.70 C 159.21 161.70 159.88 161.03 159.88 160.20 C 159.88 159.37 159.21 158.70 158.38 158.70 L 157.40 158.70 C 156.57 158.70 155.90 159.37 155.90 160.20 C 155.90 161.03 156.57 161.70 157.40 161.70 Z M 158.38 161.68 L 159.38 161.68 C 160.19 161.68 160.86 161.02 160.86 160.20 C 160.86 159.38 160.19 158.72 159.38 158.72 L 158.38 158.72 C 157.56 158.72 156.90 159.38 156.90 160.20 C 156.90 161.02 157.56 161.68 158.38 161.68 Z M 159.38 161.67 L 160.35 161.67 C 161.17 161.67 161.82 161.01 161.82 160.20 C 161.82 159.39 161.17 158.73 160.35 158.73 L 159.38 158.73 C 158.56 158.73 157.91 159.39 157.91 160.20 C 157.91 161.01 158.56 161.67 159.38 161.67 Z M 160.35 161.66 L 161.31 161.66 C 162.12 161.66 162.77 161.01 162.77 160.20 C 162.77 159.40 162.12 158.74 161.31 158.74 L 160.36 158.74 C 159.55 158.74 158.89 159.39 158.89 160.20 C 158.89 161.01 159.55 161.66 160.35 161.66 Z M 161.29 161.65 L 162.30 161.67 C 163.11 161.68 163.77 161.04 163.78 160.24 C 163.79 159.43 163.15 158.77 162.34 158.76 L 161.33 158.75 C 160.53 158.74 159.87 159.38 159.86 160.18 C 159.85 160.98 160.49 161.64 161.29 161.65 Z M 162.27 161.66 L 163.26 161.70 C 164.06 161.73 164.73 161.11 164.76 160.31 C 164.79 159.51 164.17 158.84 163.37 158.81 L 162.38 158.77 C 161.58 158.74 160.91 159.36 160.88 160.16 C 160.85 160.96 161.47 161.63 162.27 161.66 Z M 163.24 161.69 L 164.24 161.75 C 165.04 161.79 165.72 161.18 165.76 160.39 C 165.80 159.60 165.20 158.92 164.41 158.88 L 163.40 158.82 C 162.60 158.77 161.93 159.38 161.88 160.17 C 161.84 160.97 162.44 161.65 163.24 161.69 Z M 164.24 161.74 L 164.78 161.77 C 165.57 161.82 166.24 161.22 166.29 160.43 C 166.34 159.64 165.74 158.97 164.95 158.92 L 164.41 158.88 C 163.62 158.83 162.95 159.43 162.90 160.22 C 162.85 161.01 163.45 161.69 164.24 161.74 Z"
      fill="black"
      fill-rule="nonzero" /><path d="M 153.22 165.63 L 151.97 165.72 C 151.14 165.78 150.51 166.50 150.57 167.33 C 150.63 168.16 151.35 168.78 152.18 168.72 L 153.43 168.63 C 154.26 168.58 154.89 167.86 154.83 167.03 C 154.77 166.20 154.05 165.57 153.22 165.63 Z M 151.15 168.44 L 151.21 168.49 C 151.89 169.00 152.85 168.87 153.35 168.19 C 153.86 167.52 153.73 166.56 153.06 166.05 L 153.00 166.00 C 152.32 165.49 151.36 165.62 150.85 166.30 C 150.34 166.97 150.48 167.93 151.15 168.44 Z M 152.12 168.81 L 153.32 168.82 C 154.18 168.82 154.87 168.14 154.88 167.29 C 154.88 166.44 154.20 165.74 153.34 165.73 L 152.14 165.73 C 151.29 165.72 150.60 166.41 150.59 167.26 C 150.59 168.11 151.27 168.80 152.12 168.81 Z M 153.33 168.82 L 154.43 168.82 C 155.29 168.82 155.98 168.13 155.98 167.28 C 155.98 166.42 155.29 165.73 154.43 165.73 L 153.33 165.73 C 152.48 165.73 151.79 166.42 151.79 167.28 C 151.79 168.13 152.48 168.82 153.33 168.82 Z M 154.43 168.81 L 155.39 168.81 C 156.24 168.81 156.93 168.13 156.93 167.28 C 156.93 166.43 156.24 165.74 155.39 165.74 L 154.43 165.74 C 153.58 165.74 152.90 166.43 152.90 167.28 C 152.90 168.13 153.58 168.81 154.43 168.81 Z M 155.39 168.81 L 156.38 168.81 C 157.23 168.81 157.91 168.12 157.91 167.28 C 157.91 166.43 157.23 165.75 156.38 165.75 L 155.39 165.75 C 154.55 165.75 153.87 166.43 153.87 167.28 C 153.87 168.12 154.55 168.81 155.39 168.81 Z M 156.38 168.80 L 157.39 168.80 C 158.23 168.80 158.91 168.12 158.91 167.28 C 158.91 166.44 158.23 165.76 157.39 165.76 L 156.38 165.76 C 155.54 165.76 154.86 166.44 154.86 167.28 C 154.86 168.12 155.54 168.80 156.38 168.80 Z M 157.39 168.79 L 158.39 168.79 C 159.22 168.79 159.90 168.11 159.90 167.28 C 159.90 166.44 159.22 165.76 158.39 165.76 L 157.39 165.76 C 156.55 165.76 155.88 166.44 155.88 167.28 C 155.88 168.11 156.55 168.79 157.39 168.79 Z M 158.39 168.78 L 159.38 168.78 C 160.21 168.78 160.88 168.11 160.88 167.28 C 160.88 166.45 160.21 165.78 159.38 165.78 L 158.39 165.78 C 157.56 165.78 156.89 166.45 156.89 167.28 C 156.89 168.11 157.56 168.78 158.39 168.78 Z M 159.39 168.76 L 160.36 168.76 C 161.18 168.76 161.85 168.09 161.84 167.27 C 161.84 166.45 161.18 165.79 160.36 165.79 L 159.38 165.79 C 158.56 165.79 157.90 166.46 157.90 167.28 C 157.90 168.10 158.57 168.76 159.39 168.76 Z M 160.38 168.74 L 161.41 168.72 C 162.21 168.71 162.86 168.05 162.85 167.24 C 162.84 166.43 162.18 165.79 161.37 165.80 L 160.34 165.81 C 159.53 165.82 158.89 166.49 158.90 167.29 C 158.91 168.10 159.57 168.75 160.38 168.74 Z M 161.42 168.71 L 162.44 168.69 C 163.25 168.67 163.88 168.00 163.86 167.20 C 163.84 166.40 163.18 165.77 162.38 165.79 L 161.35 165.81 C 160.55 165.83 159.92 166.49 159.94 167.29 C 159.96 168.10 160.62 168.73 161.42 168.71 Z M 162.44 168.68 L 163.43 168.66 C 164.23 168.64 164.86 167.98 164.84 167.18 C 164.83 166.39 164.17 165.76 163.37 165.77 L 162.38 165.80 C 161.58 165.81 160.95 166.47 160.97 167.27 C 160.99 168.06 161.65 168.70 162.44 168.68 Z M 163.42 168.65 L 164.44 168.64 C 165.23 168.63 165.87 167.98 165.86 167.19 C 165.85 166.40 165.20 165.76 164.41 165.77 L 163.39 165.78 C 162.60 165.79 161.96 166.44 161.97 167.23 C 161.98 168.02 162.62 168.66 163.42 168.65 Z M 164.43 168.63 L 164.93 168.63 C 165.72 168.63 166.36 167.99 166.35 167.20 C 166.35 166.42 165.71 165.78 164.93 165.78 L 164.42 165.78 C 163.64 165.78 163.00 166.42 163.00 167.21 C 163.00 167.99 163.64 168.63 164.43 168.63 Z"
      fill="black"
      fill-rule="nonzero" /><path d="M 159.09 166.78 L 158.17 167.14 C 157.39 167.45 157.00 168.33 157.31 169.11 C 157.62 169.90 158.50 170.28 159.28 169.97 L 160.20 169.61 C 160.99 169.30 161.37 168.42 161.06 167.64 C 160.76 166.86 159.87 166.47 159.09 166.78 Z M 157.65 167.49 L 156.99 168.15 C 156.39 168.75 156.40 169.71 156.99 170.30 C 157.59 170.89 158.55 170.89 159.15 170.29 L 159.81 169.63 C 160.40 169.03 160.39 168.07 159.80 167.48 C 159.20 166.89 158.24 166.89 157.65 167.49 Z M 156.67 168.62 L 156.27 169.53 C 155.94 170.30 156.29 171.20 157.06 171.53 C 157.83 171.87 158.73 171.51 159.07 170.74 L 159.46 169.83 C 159.80 169.06 159.44 168.16 158.67 167.83 C 157.90 167.49 157.00 167.85 156.67 168.62 Z M 156.22 169.67 L 155.90 170.69 C 155.64 171.49 156.08 172.35 156.89 172.60 C 157.69 172.86 158.54 172.41 158.80 171.61 L 159.12 170.60 C 159.37 169.79 158.93 168.94 158.13 168.68 C 157.33 168.43 156.47 168.87 156.22 169.67 Z M 155.89 170.70 L 155.59 171.68 C 155.34 172.48 155.79 173.33 156.59 173.58 C 157.40 173.83 158.25 173.38 158.50 172.58 L 158.80 171.60 C 159.05 170.80 158.60 169.95 157.80 169.70 C 156.99 169.45 156.14 169.90 155.89 170.70 Z M 155.59 171.67 L 155.29 172.61 C 155.04 173.41 155.48 174.27 156.28 174.53 C 157.08 174.78 157.94 174.34 158.19 173.54 L 158.49 172.59 C 158.75 171.79 158.31 170.93 157.51 170.68 C 156.70 170.42 155.85 170.86 155.59 171.67 Z M 155.29 172.61 L 154.99 173.56 C 154.73 174.36 155.17 175.22 155.98 175.47 C 156.78 175.73 157.63 175.29 157.89 174.49 L 158.19 173.54 C 158.45 172.74 158.01 171.88 157.21 171.63 C 156.41 171.37 155.55 171.81 155.29 172.61 Z M 154.96 173.66 L 154.72 174.66 C 154.52 175.48 155.02 176.30 155.83 176.50 C 156.65 176.70 157.47 176.20 157.67 175.38 L 157.91 174.39 C 158.11 173.57 157.61 172.75 156.80 172.55 C 155.98 172.35 155.16 172.85 154.96 173.66 Z M 154.79 175.58 L 155.10 176.35 C 155.41 177.12 156.28 177.50 157.06 177.19 C 157.83 176.89 158.21 176.01 157.90 175.23 L 157.60 174.46 C 157.29 173.69 156.41 173.31 155.64 173.62 C 154.86 173.93 154.48 174.81 154.79 175.58 Z M 156.20 177.26 L 157.08 177.44 C 157.89 177.60 158.68 177.08 158.85 176.27 C 159.01 175.46 158.49 174.67 157.68 174.50 L 156.80 174.32 C 155.99 174.16 155.20 174.68 155.03 175.49 C 154.87 176.30 155.39 177.09 156.20 177.26 Z M 157.55 177.44 L 158.68 177.31 C 159.49 177.22 160.07 176.48 159.98 175.67 C 159.89 174.86 159.15 174.27 158.34 174.37 L 157.21 174.50 C 156.40 174.59 155.82 175.33 155.91 176.14 C 156.00 176.95 156.74 177.53 157.55 177.44 Z M 158.95 177.24 L 159.94 176.93 C 160.72 176.69 161.15 175.86 160.91 175.08 C 160.66 174.31 159.84 173.88 159.06 174.12 L 158.07 174.44 C 157.29 174.68 156.86 175.51 157.11 176.28 C 157.35 177.06 158.18 177.49 158.95 177.24 Z M 160.11 176.86 L 160.99 176.46 C 161.72 176.12 162.05 175.26 161.71 174.52 C 161.38 173.78 160.51 173.46 159.77 173.79 L 158.89 174.19 C 158.16 174.53 157.83 175.40 158.17 176.14 C 158.50 176.87 159.37 177.20 160.11 176.86 Z M 161.10 176.40 L 161.99 175.89 C 162.69 175.49 162.94 174.60 162.54 173.90 C 162.14 173.20 161.24 172.95 160.54 173.35 L 159.65 173.86 C 158.95 174.26 158.71 175.15 159.11 175.85 C 159.51 176.55 160.40 176.79 161.10 176.40 Z M 162.05 175.85 L 162.86 175.33 C 163.54 174.90 163.73 174.00 163.30 173.32 C 162.87 172.64 161.96 172.44 161.29 172.88 L 160.48 173.39 C 159.81 173.83 159.61 174.73 160.04 175.40 C 160.48 176.08 161.38 176.28 162.05 175.85 Z M 162.86 175.34 L 163.70 174.80 C 164.39 174.37 164.59 173.46 164.16 172.78 C 163.72 172.10 162.81 171.89 162.13 172.33 L 161.29 172.87 C 160.60 173.30 160.40 174.21 160.83 174.89 C 161.27 175.57 162.18 175.78 162.86 175.34 Z M 163.74 174.81 L 164.64 174.21 C 165.33 173.76 165.51 172.83 165.06 172.15 C 164.60 171.46 163.68 171.27 162.99 171.73 L 162.09 172.33 C 161.41 172.78 161.22 173.71 161.68 174.39 C 162.13 175.08 163.06 175.26 163.74 174.81 Z M 164.16 174.44 L 164.99 174.25 C 165.80 174.06 166.31 173.25 166.12 172.44 C 165.93 171.62 165.12 171.12 164.31 171.30 L 163.48 171.50 C 162.66 171.68 162.16 172.50 162.34 173.31 C 162.53 174.12 163.34 174.63 164.16 174.44 Z M 163.41 173.68 L 163.91 174.36 C 164.41 175.05 165.36 175.20 166.05 174.70 C 166.73 174.21 166.88 173.25 166.39 172.57 L 165.89 171.88 C 165.39 171.20 164.43 171.04 163.75 171.54 C 163.07 172.04 162.91 172.99 163.41 173.68 Z M 163.70 173.99 L 164.09 175.05 C 164.37 175.85 165.25 176.26 166.05 175.98 C 166.85 175.69 167.26 174.81 166.98 174.01 L 166.59 172.95 C 166.31 172.15 165.42 171.73 164.63 172.02 C 163.83 172.31 163.41 173.19 163.70 173.99 Z M 164.07 175.00 L 164.37 175.95 C 164.63 176.76 165.50 177.21 166.31 176.95 C 167.11 176.69 167.56 175.83 167.30 175.02 L 167.00 174.06 C 166.74 173.25 165.87 172.80 165.06 173.06 C 164.25 173.32 163.81 174.19 164.07 175.00 Z M 164.38 175.97 L 164.69 176.92 C 164.96 177.73 165.83 178.16 166.64 177.90 C 167.44 177.63 167.88 176.76 167.61 175.95 L 167.30 175.00 C 167.03 174.20 166.16 173.76 165.35 174.03 C 164.55 174.30 164.11 175.17 164.38 175.97 Z M 164.72 176.99 L 165.09 177.95 C 165.39 178.74 166.28 179.13 167.07 178.83 C 167.86 178.53 168.26 177.64 167.95 176.85 L 167.59 175.89 C 167.28 175.10 166.39 174.70 165.60 175.00 C 164.81 175.31 164.42 176.20 164.72 176.99 Z M 165.13 178.05 L 165.55 178.93 C 165.91 179.69 166.82 180.02 167.59 179.66 C 168.35 179.30 168.68 178.39 168.32 177.62 L 167.91 176.74 C 167.55 175.98 166.63 175.65 165.87 176.01 C 165.10 176.37 164.77 177.29 165.13 178.05 Z M 165.63 179.07 L 166.15 179.93 C 166.59 180.65 167.53 180.88 168.25 180.44 C 168.97 180.01 169.20 179.07 168.76 178.35 L 168.24 177.48 C 167.80 176.76 166.86 176.53 166.14 176.97 C 165.42 177.41 165.19 178.35 165.63 179.07 Z M 166.26 180.06 L 166.86 180.84 C 167.37 181.51 168.32 181.63 168.98 181.12 C 169.65 180.61 169.77 179.66 169.26 179.00 L 168.66 178.22 C 168.15 177.55 167.20 177.43 166.54 177.94 C 165.87 178.45 165.75 179.40 166.26 180.06 Z M 166.96 180.93 L 167.64 181.67 C 168.19 182.27 169.14 182.31 169.74 181.76 C 170.35 181.20 170.39 180.25 169.84 179.65 L 169.16 178.91 C 168.60 178.30 167.66 178.26 167.05 178.82 C 166.44 179.38 166.40 180.32 166.96 180.93 Z M 167.69 181.69 L 168.22 182.23 C 168.80 182.81 169.73 182.81 170.30 182.24 C 170.88 181.67 170.88 180.74 170.31 180.16 L 169.78 179.62 C 169.21 179.05 168.28 179.04 167.70 179.61 C 167.13 180.18 167.12 181.11 167.69 181.69 Z"
      fill="black"
      fill-rule="nonzero" /></svg>