<svg xmlns="http://www.w3.org/2000/svg" width="300" height="300" viewBox="0 0 300 300">
<path d="M 153.42 131.54 L 154.36 131.26 C 155.16 131.02 155.61 130.18 155.37 129.38 C 155.13 128.58 154.29 128.13 153.50 128.37 L 152.56 128.65 C 151.76 128.89 151.31 129.73 151.55 130.53 C 151.79 131.33 152.63 131.78 153.42 131.54 Z M 154.17 131.32 L 155.12 131.17 C 155.96 131.04 156.53 130.26 156.40 129.42 C 156.26 128.59 155.48 128.02 154.64 128.15 L 153.69 128.30 C 152.86 128.43 152.29 129.22 152.42 130.05 C 152.55 130.89 153.33 131.46 154.17 131.32 Z M 154.88 131.20 L 155.79 131.20 C 156.64 131.21 157.33 130.52 157.33 129.67 C 157.34 128.82 156.65 128.13 155.80 128.13 L 154.89 128.12 C 154.04 128.12 153.35 128.80 153.35 129.65 C 153.34 130.50 154.03 131.20 154.88 131.20 Z M 155.65 131.19 L 156.78 131.30 C 157.63 131.38 158.38 130.76 158.45 129.91 C 158.53 129.07 157.91 128.32 157.07 128.24 L 155.94 128.14 C 155.09 128.06 154.35 128.68 154.27 129.52 C 154.19 130.37 154.81 131.12 155.65 131.19 Z M 156.74 131.29 L 157.68 131.41 C 158.52 131.51 159.29 130.92 159.39 130.08 C 159.49 129.24 158.90 128.47 158.06 128.37 L 157.12 128.25 C 156.28 128.15 155.51 128.74 155.41 129.58 C 155.30 130.42 155.90 131.19 156.74 131.29 Z M 157.66 131.41 L 158.68 131.54 C 159.52 131.66 160.29 131.07 160.41 130.23 C 160.52 129.39 159.93 128.62 159.09 128.51 L 158.07 128.37 C 157.24 128.26 156.46 128.85 156.35 129.68 C 156.24 130.52 156.83 131.29 157.66 131.41 Z M 158.68 131.54 L 159.70 131.68 C 160.53 131.80 161.31 131.21 161.42 130.37 C 161.54 129.54 160.95 128.77 160.11 128.65 L 159.10 128.51 C 158.26 128.40 157.49 128.98 157.37 129.82 C 157.26 130.65 157.84 131.43 158.68 131.54 Z M 159.70 131.68 L 160.76 131.82 C 161.60 131.93 162.36 131.35 162.48 130.51 C 162.59 129.67 162.00 128.91 161.17 128.79 L 160.11 128.65 C 159.27 128.54 158.50 129.13 158.39 129.96 C 158.28 130.80 158.87 131.57 159.70 131.68 Z M 160.77 131.82 L 161.76 131.95 C 162.60 132.06 163.36 131.47 163.47 130.63 C 163.58 129.80 162.99 129.04 162.16 128.93 L 161.16 128.80 C 160.33 128.69 159.56 129.28 159.45 130.11 C 159.34 130.94 159.93 131.71 160.77 131.82 Z M 161.76 131.94 L 162.68 132.07 C 163.51 132.18 164.28 131.60 164.39 130.77 C 164.50 129.94 163.92 129.17 163.09 129.06 L 162.16 128.93 C 161.33 128.82 160.57 129.40 160.46 130.23 C 160.34 131.06 160.93 131.83 161.76 131.94 Z M 162.67 132.06 L 163.70 132.21 C 164.52 132.33 165.29 131.76 165.41 130.93 C 165.54 130.11 164.96 129.34 164.14 129.22 L 163.11 129.07 C 162.28 128.94 161.51 129.52 161.39 130.34 C 161.27 131.17 161.84 131.94 162.67 132.06 Z M 163.69 132.21 L 164.67 132.35 C 165.49 132.48 166.26 131.91 166.39 131.09 C 166.51 130.27 165.95 129.50 165.12 129.37 L 164.14 129.22 C 163.32 129.10 162.55 129.66 162.43 130.49 C 162.30 131.31 162.87 132.08 163.69 132.21 Z M 164.68 132.35 L 165.68 132.49 C 166.50 132.61 167.27 132.04 167.38 131.22 C 167.50 130.39 166.93 129.63 166.10 129.51 L 165.11 129.37 C 164.28 129.26 163.52 129.83 163.41 130.65 C 163.29 131.47 163.86 132.24 164.68 132.35 Z M 165.69 132.49 L 166.66 132.62 C 167.48 132.74 168.24 132.16 168.35 131.34 C 168.46 130.52 167.88 129.76 167.06 129.65 L 166.09 129.52 C 165.27 129.40 164.52 129.98 164.40 130.80 C 164.29 131.62 164.87 132.38 165.69 132.49 Z M 166.57 132.62 L 167.69 132.84 C 168.51 133.00 169.30 132.46 169.46 131.64 C 169.62 130.82 169.09 130.03 168.27 129.87 L 167.15 129.65 C 166.33 129.49 165.54 130.03 165.38 130.85 C 165.22 131.67 165.75 132.46 166.57 132.62 Z M 166.45 131.50 L 166.49 131.87 C 166.57 132.71 167.32 133.33 168.16 133.25 C 169.01 133.16 169.62 132.41 169.54 131.57 L 169.51 131.21 C 169.42 130.36 168.67 129.74 167.83 129.83 C 166.99 129.91 166.37 130.66 166.45 131.50 Z M 167.28 130.36 L 166.26 130.91 C 165.51 131.32 165.23 132.26 165.64 133.01 C 166.04 133.76 166.98 134.04 167.73 133.63 L 168.75 133.08 C 169.50 132.67 169.78 131.73 169.37 130.98 C 168.97 130.23 168.03 129.95 167.28 130.36 Z M 166.09 131.01 L 165.28 131.59 C 164.59 132.09 164.43 133.06 164.93 133.76 C 165.43 134.45 166.39 134.61 167.09 134.11 L 167.90 133.53 C 168.60 133.03 168.75 132.06 168.25 131.37 C 167.76 130.67 166.79 130.51 166.09 131.01 Z M 165.19 131.66 L 164.41 132.31 C 163.75 132.86 163.66 133.83 164.21 134.49 C 164.76 135.15 165.74 135.24 166.39 134.69 L 167.18 134.05 C 167.83 133.50 167.93 132.52 167.38 131.86 C 166.83 131.20 165.85 131.11 165.19 131.66 Z M 164.38 132.34 L 163.63 133.01 C 162.99 133.57 162.93 134.55 163.50 135.19 C 164.07 135.83 165.05 135.89 165.69 135.32 L 166.43 134.66 C 167.07 134.09 167.13 133.11 166.56 132.47 C 165.99 131.83 165.02 131.78 164.38 132.34 Z M 163.61 133.04 L 162.87 133.73 C 162.24 134.31 162.21 135.28 162.79 135.91 C 163.37 136.53 164.34 136.56 164.97 135.98 L 165.71 135.29 C 166.33 134.71 166.36 133.74 165.78 133.11 C 165.20 132.49 164.23 132.46 163.61 133.04 Z M 162.87 133.76 L 162.14 134.45 C 161.54 135.03 161.51 135.99 162.09 136.59 C 162.67 137.20 163.63 137.22 164.24 136.65 L 164.96 135.95 C 165.57 135.38 165.59 134.41 165.01 133.81 C 164.44 133.20 163.47 133.18 162.87 133.76 Z M 162.17 134.46 L 161.44 135.15 C 160.84 135.72 160.82 136.66 161.38 137.26 C 161.95 137.86 162.89 137.88 163.49 137.32 L 164.22 136.63 C 164.81 136.06 164.84 135.12 164.27 134.52 C 163.71 133.93 162.77 133.90 162.17 134.46 Z M 161.47 135.17 L 160.75 135.85 C 160.17 136.40 160.14 137.32 160.69 137.90 C 161.24 138.49 162.16 138.52 162.74 137.97 L 163.46 137.30 C 164.04 136.75 164.07 135.83 163.52 135.24 C 162.97 134.65 162.05 134.63 161.47 135.17 Z M 160.76 135.87 L 160.04 136.55 C 159.46 137.10 159.44 138.00 159.98 138.58 C 160.53 139.15 161.44 139.18 162.01 138.63 L 162.73 137.95 C 163.31 137.40 163.33 136.49 162.79 135.92 C 162.24 135.35 161.34 135.32 160.76 135.87 Z M 160.04 136.56 L 159.65 136.93 C 159.08 137.48 159.06 138.38 159.60 138.95 C 160.15 139.52 161.05 139.54 161.62 139.00 L 162.01 138.63 C 162.58 138.08 162.60 137.18 162.06 136.61 C 161.51 136.04 160.61 136.02 160.04 136.56 Z"
      fill="black"
      fill-rule="nonzero" /><path d="M 151.83 140.05 L 152.53 140.70 C 153.13 141.28 154.08 141.25 154.66 140.64 C 155.23 140.04 155.20 139.08 154.59 138.51 L 153.90 137.86 C 153.29 137.29 152.34 137.32 151.77 137.92 C 151.20 138.53 151.23 139.48 151.83 140.05 Z M 152.67 140.85 L 153.50 141.45 C 154.19 141.94 155.14 141.79 155.63 141.10 C 156.13 140.41 155.97 139.46 155.29 138.97 L 154.45 138.37 C 153.77 137.87 152.81 138.03 152.32 138.72 C 151.83 139.40 151.98 140.36 152.67 140.85 Z M 153.69 141.56 L 154.52 141.99 C 155.27 142.38 156.19 142.09 156.57 141.34 C 156.96 140.60 156.67 139.68 155.92 139.29 L 155.10 138.86 C 154.35 138.47 153.43 138.76 153.04 139.51 C 152.65 140.25 152.94 141.17 153.69 141.56 Z M 154.61 142.00 L 155.56 142.43 C 156.31 142.77 157.20 142.43 157.53 141.68 C 157.87 140.93 157.54 140.05 156.79 139.71 L 155.83 139.28 C 155.08 138.94 154.20 139.28 153.86 140.03 C 153.52 140.78 153.86 141.66 154.61 142.00 Z M 155.58 142.41 L 156.50 142.82 C 157.24 143.15 158.11 142.82 158.44 142.08 C 158.77 141.34 158.44 140.47 157.70 140.14 L 156.77 139.73 C 156.03 139.40 155.16 139.73 154.83 140.47 C 154.50 141.21 154.84 142.08 155.58 142.41 Z M 156.50 142.80 L 157.40 143.22 C 158.13 143.55 158.99 143.23 159.33 142.50 C 159.66 141.78 159.34 140.91 158.61 140.58 L 157.71 140.16 C 156.98 139.83 156.12 140.15 155.78 140.88 C 155.45 141.60 155.77 142.47 156.50 142.80 Z M 157.40 143.20 L 158.32 143.63 C 159.04 143.97 159.90 143.66 160.23 142.94 C 160.57 142.22 160.26 141.36 159.54 141.02 L 158.62 140.59 C 157.90 140.26 157.04 140.57 156.70 141.29 C 156.37 142.01 156.68 142.87 157.40 143.20 Z M 158.32 143.62 L 158.58 143.74 C 159.29 144.08 160.14 143.77 160.48 143.05 C 160.82 142.34 160.51 141.49 159.79 141.15 L 159.54 141.03 C 158.82 140.70 157.97 141.01 157.63 141.72 C 157.30 142.44 157.61 143.29 158.32 143.62 Z"
      fill="black"
      fill-rule="nonzero" /><path d="M 147.70 145.26 L 147.49 146.12 C 147.29 146.93 147.79 147.76 148.61 147.95 C 149.42 148.15 150.24 147.65 150.44 146.84 L 150.65 145.98 C 150.85 145.16 150.35 144.34 149.53 144.14 C 148.72 143.94 147.90 144.44 147.70 145.26 Z M 147.43 146.29 L 147.30 147.38 C 147.20 148.22 147.81 148.99 148.65 149.09 C 149.50 149.20 150.27 148.59 150.37 147.74 L 150.50 146.66 C 150.60 145.81 150.00 145.04 149.15 144.94 C 148.30 144.84 147.53 145.45 147.43 146.29 Z M 147.28 147.55 L 147.27 148.50 C 147.26 149.36 147.96 150.06 148.82 150.07 C 149.68 150.07 150.39 149.38 150.39 148.52 L 150.40 147.57 C 150.40 146.71 149.71 146.00 148.85 146.00 C 147.98 145.99 147.28 146.69 147.28 147.55 Z M 147.27 148.57 L 147.31 149.59 C 147.35 150.46 148.07 151.13 148.94 151.09 C 149.80 151.06 150.47 150.33 150.43 149.47 L 150.39 148.44 C 150.36 147.58 149.63 146.91 148.77 146.95 C 147.90 146.98 147.23 147.71 147.27 148.57 Z M 147.31 149.63 L 147.37 150.67 C 147.43 151.53 148.17 152.19 149.03 152.14 C 149.89 152.08 150.55 151.34 150.50 150.48 L 150.43 149.44 C 150.38 148.57 149.64 147.92 148.78 147.97 C 147.92 148.02 147.26 148.76 147.31 149.63 Z M 147.37 150.67 L 147.44 151.72 C 147.49 152.58 148.23 153.24 149.09 153.19 C 149.96 153.13 150.61 152.39 150.56 151.53 L 150.50 150.48 C 150.44 149.62 149.70 148.96 148.84 149.01 C 147.98 149.06 147.32 149.81 147.37 150.67 Z M 147.44 151.70 L 147.49 152.70 C 147.53 153.56 148.27 154.23 149.13 154.18 C 149.99 154.14 150.66 153.40 150.61 152.54 L 150.56 151.54 C 150.52 150.68 149.78 150.02 148.92 150.06 C 148.06 150.10 147.39 150.84 147.44 151.70 Z M 147.49 152.68 L 147.52 153.64 C 147.55 154.50 148.28 155.18 149.14 155.15 C 150.00 155.11 150.68 154.39 150.65 153.52 L 150.61 152.56 C 150.58 151.70 149.86 151.02 148.99 151.06 C 148.13 151.09 147.45 151.81 147.49 152.68 Z M 147.52 153.61 L 147.54 154.60 C 147.56 155.46 148.27 156.15 149.13 156.13 C 150.00 156.11 150.68 155.40 150.67 154.53 L 150.65 153.55 C 150.63 152.69 149.92 152.00 149.05 152.02 C 148.19 152.03 147.50 152.75 147.52 153.61 Z M 147.54 154.58 L 147.55 155.58 C 147.56 156.44 148.26 157.13 149.12 157.13 C 149.98 157.12 150.68 156.42 150.67 155.56 L 150.66 154.55 C 150.66 153.69 149.95 153.00 149.09 153.00 C 148.23 153.01 147.54 153.71 147.54 154.58 Z M 147.55 155.57 L 147.55 156.58 C 147.55 157.44 148.25 158.13 149.11 158.13 C 149.97 158.13 150.67 157.43 150.67 156.57 L 150.67 155.56 C 150.67 154.70 149.97 154.01 149.11 154.01 C 148.25 154.01 147.55 154.71 147.55 155.57 Z M 147.56 156.57 L 147.56 157.59 C 147.56 158.44 148.25 159.14 149.11 159.14 C 149.97 159.14 150.66 158.44 150.66 157.59 L 150.66 156.57 C 150.66 155.72 149.97 155.02 149.11 155.02 C 148.25 155.02 147.56 155.72 147.56 156.57 Z M 147.57 157.59 L 147.57 158.59 C 147.57 159.44 148.26 160.13 149.11 160.13 C 149.96 160.13 150.65 159.44 150.65 158.59 L 150.65 157.59 C 150.65 156.74 149.96 156.05 149.11 156.05 C 148.26 156.05 147.57 156.74 147.57 157.59 Z M 147.58 158.59 L 147.58 159.58 C 147.58 160.42 148.27 161.11 149.11 161.11 C 149.96 161.11 150.64 160.42 150.64 159.58 L 150.64 158.59 C 150.64 157.74 149.96 157.06 149.11 157.06 C 148.27 157.06 147.58 157.74 147.58 158.59 Z M 147.59 159.58 L 147.59 160.61 C 147.59 161.44 148.27 162.12 149.11 162.12 C 149.95 162.12 150.63 161.44 150.63 160.61 L 150.63 159.58 C 150.63 158.74 149.95 158.06 149.11 158.06 C 148.27 158.06 147.59 158.74 147.59 159.58 Z M 147.60 160.61 L 147.60 161.60 C 147.60 162.43 148.28 163.10 149.11 163.10 C 149.94 163.10 150.62 162.43 150.62 161.60 L 150.62 160.61 C 150.62 159.77 149.94 159.10 149.11 159.10 C 148.28 159.10 147.60 159.77 147.60 160.61 Z M 147.62 161.60 L 147.62 162.62 C 147.62 163.45 148.29 164.12 149.11 164.12 C 149.94 164.11 150.61 163.44 150.61 162.62 L 150.61 161.59 C 150.61 160.77 149.94 160.10 149.11 160.10 C 148.28 160.10 147.61 160.77 147.62 161.60 Z M 147.63 162.65 L 147.65 163.67 C 147.67 164.49 148.35 165.14 149.17 165.12 C 149.99 165.10 150.64 164.42 150.62 163.60 L 150.60 162.59 C 150.58 161.77 149.90 161.12 149.08 161.14 C 148.26 161.15 147.61 161.83 147.63 162.65 Z M 147.67 163.78 L 147.77 164.74 C 147.85 165.55 148.56 166.14 149.37 166.06 C 150.18 165.98 150.77 165.26 150.69 164.45 L 150.60 163.49 C 150.52 162.69 149.80 162.10 148.99 162.17 C 148.18 162.25 147.59 162.97 147.67 163.78 Z M 147.81 164.92 L 148.04 165.89 C 148.22 166.67 149.00 167.16 149.78 166.98 C 150.56 166.80 151.05 166.02 150.87 165.24 L 150.64 164.27 C 150.46 163.49 149.68 163.00 148.90 163.18 C 148.12 163.36 147.63 164.14 147.81 164.92 Z M 148.07 165.97 L 148.18 166.35 C 148.40 167.11 149.20 167.55 149.97 167.33 C 150.73 167.10 151.17 166.30 150.94 165.54 L 150.83 165.16 C 150.61 164.40 149.81 163.96 149.05 164.19 C 148.28 164.41 147.85 165.21 148.07 165.97 Z"
      fill="black"
      fill-rule="nonzero" /><path d="M 153.43 147.38 L 153.42 146.32 C 153.41 145.50 152.73 144.84 151.91 144.85 C 151.09 144.86 150.43 145.54 150.44 146.36 L 150.45 147.42 C 150.46 148.24 151.13 148.90 151.96 148.89 C 152.78 148.88 153.44 148.20 153.43 147.38 Z M 153.27 147.03 L 153.67 146.25 C 154.05 145.50 153.76 144.59 153.01 144.21 C 152.27 143.83 151.36 144.13 150.98 144.87 L 150.58 145.65 C 150.20 146.40 150.50 147.31 151.24 147.69 C 151.98 148.07 152.89 147.77 153.27 147.03 Z M 152.92 146.97 L 153.85 146.58 C 154.63 146.25 155.00 145.35 154.67 144.57 C 154.34 143.79 153.44 143.43 152.66 143.76 L 151.73 144.15 C 150.95 144.48 150.59 145.38 150.92 146.16 C 151.24 146.93 152.14 147.30 152.92 146.97 Z M 153.53 146.68 L 154.48 146.51 C 155.32 146.36 155.87 145.56 155.72 144.72 C 155.57 143.89 154.77 143.33 153.94 143.48 L 152.99 143.65 C 152.15 143.80 151.59 144.60 151.75 145.44 C 151.90 146.28 152.69 146.83 153.53 146.68 Z M 154.33 146.53 L 155.34 146.45 C 156.18 146.39 156.82 145.65 156.75 144.80 C 156.69 143.96 155.95 143.32 155.10 143.39 L 154.09 143.46 C 153.25 143.53 152.61 144.27 152.68 145.11 C 152.74 145.96 153.48 146.59 154.33 146.53 Z M 155.25 146.46 L 156.22 146.44 C 157.07 146.42 157.74 145.72 157.72 144.87 C 157.71 144.02 157.00 143.34 156.15 143.36 L 155.19 143.38 C 154.34 143.40 153.66 144.10 153.68 144.95 C 153.70 145.80 154.40 146.48 155.25 146.46 Z M 156.19 146.44 L 157.24 146.44 C 158.09 146.43 158.78 145.74 158.78 144.89 C 158.78 144.04 158.09 143.35 157.24 143.36 L 156.18 143.36 C 155.33 143.36 154.64 144.05 154.65 144.90 C 154.65 145.75 155.34 146.44 156.19 146.44 Z M 157.24 146.43 L 158.21 146.44 C 159.06 146.44 159.75 145.75 159.75 144.90 C 159.75 144.05 159.07 143.36 158.22 143.36 L 157.24 143.36 C 156.39 143.36 155.70 144.05 155.70 144.89 C 155.70 145.74 156.39 146.43 157.24 146.43 Z M 158.21 146.43 L 159.22 146.44 C 160.07 146.44 160.76 145.76 160.77 144.91 C 160.77 144.06 160.09 143.37 159.24 143.37 L 158.22 143.36 C 157.37 143.36 156.68 144.04 156.68 144.89 C 156.68 145.74 157.36 146.43 158.21 146.43 Z M 159.21 146.43 L 160.23 146.44 C 161.07 146.45 161.77 145.78 161.78 144.93 C 161.79 144.09 161.11 143.39 160.26 143.38 L 159.25 143.37 C 158.40 143.36 157.71 144.04 157.70 144.88 C 157.69 145.73 158.37 146.42 159.21 146.43 Z M 160.20 146.44 L 161.21 146.46 C 162.05 146.49 162.75 145.82 162.77 144.98 C 162.79 144.14 162.13 143.44 161.29 143.42 L 160.29 143.39 C 159.45 143.37 158.75 144.03 158.72 144.87 C 158.70 145.71 159.36 146.41 160.20 146.44 Z M 161.16 146.45 L 162.16 146.51 C 162.99 146.56 163.71 145.92 163.76 145.08 C 163.80 144.25 163.16 143.53 162.33 143.48 L 161.33 143.43 C 160.50 143.38 159.78 144.02 159.74 144.85 C 159.69 145.69 160.33 146.41 161.16 146.45 Z M 162.10 146.50 L 163.11 146.59 C 163.94 146.67 164.67 146.07 164.75 145.24 C 164.83 144.41 164.22 143.67 163.40 143.59 L 162.39 143.50 C 161.56 143.42 160.82 144.02 160.74 144.85 C 160.66 145.68 161.27 146.42 162.10 146.50 Z M 163.07 146.58 L 164.05 146.70 C 164.87 146.81 165.62 146.22 165.73 145.40 C 165.83 144.58 165.25 143.83 164.43 143.73 L 163.44 143.61 C 162.62 143.50 161.87 144.09 161.77 144.91 C 161.66 145.73 162.24 146.48 163.07 146.58 Z M 164.04 146.69 L 165.05 146.83 C 165.86 146.94 166.61 146.37 166.72 145.55 C 166.83 144.74 166.26 143.99 165.45 143.88 L 164.44 143.74 C 163.63 143.63 162.87 144.20 162.76 145.02 C 162.65 145.83 163.22 146.58 164.04 146.69 Z M 165.05 146.83 L 166.06 146.96 C 166.87 147.07 167.62 146.50 167.73 145.69 C 167.84 144.88 167.27 144.13 166.46 144.02 L 165.44 143.88 C 164.63 143.77 163.88 144.34 163.78 145.16 C 163.67 145.97 164.24 146.72 165.05 146.83 Z M 166.07 146.96 L 167.02 147.08 C 167.83 147.18 168.57 146.61 168.68 145.80 C 168.78 144.99 168.21 144.25 167.40 144.15 L 166.45 144.02 C 165.64 143.92 164.89 144.49 164.79 145.30 C 164.69 146.11 165.26 146.85 166.07 146.96 Z M 167.04 147.08 L 168.02 147.19 C 168.82 147.28 169.56 146.71 169.65 145.90 C 169.74 145.09 169.17 144.36 168.36 144.26 L 167.38 144.15 C 166.57 144.06 165.84 144.63 165.74 145.44 C 165.65 146.25 166.23 146.98 167.04 147.08 Z M 168.04 147.19 L 169.06 147.29 C 169.87 147.37 170.59 146.78 170.67 145.97 C 170.75 145.17 170.16 144.45 169.35 144.37 L 168.33 144.27 C 167.52 144.19 166.81 144.78 166.73 145.58 C 166.65 146.39 167.24 147.11 168.04 147.19 Z M 169.00 147.28 L 170.09 147.43 C 170.89 147.54 171.63 146.98 171.74 146.18 C 171.86 145.38 171.30 144.64 170.50 144.53 L 169.41 144.38 C 168.61 144.26 167.87 144.82 167.76 145.63 C 167.64 146.43 168.20 147.17 169.00 147.28 Z M 169.56 147.26 L 170.26 147.66 C 170.97 148.07 171.87 147.83 172.28 147.12 C 172.68 146.42 172.44 145.51 171.73 145.11 L 171.03 144.70 C 170.32 144.30 169.42 144.54 169.02 145.24 C 168.61 145.95 168.85 146.85 169.56 147.26 Z M 169.48 146.40 L 169.49 147.31 C 169.50 148.14 170.19 148.81 171.03 148.81 C 171.86 148.80 172.53 148.11 172.52 147.27 L 172.51 146.37 C 172.50 145.53 171.82 144.86 170.98 144.87 C 170.14 144.88 169.47 145.57 169.48 146.40 Z M 169.47 147.01 L 169.28 148.07 C 169.12 148.92 169.69 149.74 170.54 149.89 C 171.39 150.05 172.21 149.48 172.36 148.63 L 172.55 147.57 C 172.71 146.71 172.14 145.90 171.29 145.75 C 170.43 145.59 169.62 146.16 169.47 147.01 Z M 169.24 148.24 L 169.17 149.24 C 169.10 150.12 169.76 150.88 170.64 150.94 C 171.51 151.00 172.27 150.34 172.33 149.47 L 172.40 148.46 C 172.46 147.59 171.81 146.83 170.93 146.77 C 170.06 146.70 169.30 147.36 169.24 148.24 Z M 169.16 149.32 L 169.14 150.31 C 169.12 151.19 169.82 151.91 170.69 151.93 C 171.57 151.95 172.29 151.26 172.31 150.38 L 172.33 149.39 C 172.35 148.51 171.66 147.79 170.78 147.77 C 169.91 147.75 169.18 148.45 169.16 149.32 Z M 169.14 150.34 L 169.13 151.32 C 169.13 152.19 169.83 152.91 170.71 152.91 C 171.59 152.92 172.30 152.21 172.31 151.34 L 172.31 150.35 C 172.32 149.48 171.61 148.76 170.74 148.76 C 169.86 148.75 169.14 149.46 169.14 150.34 Z M 169.13 151.33 L 169.13 152.35 C 169.13 153.22 169.84 153.93 170.72 153.93 C 171.60 153.93 172.31 153.22 172.31 152.35 L 172.31 151.33 C 172.31 150.45 171.60 149.74 170.72 149.74 C 169.84 149.74 169.13 150.45 169.13 151.33 Z M 169.13 152.35 L 169.14 153.38 C 169.14 154.25 169.85 154.96 170.73 154.96 C 171.60 154.95 172.31 154.24 172.31 153.37 L 172.31 152.34 C 172.30 151.47 171.59 150.76 170.72 150.76 C 169.84 150.76 169.13 151.48 169.13 152.35 Z M 169.14 153.39 L 169.15 154.40 C 169.16 155.27 169.88 155.97 170.76 155.96 C 171.63 155.95 172.33 155.23 172.32 154.35 L 172.31 153.35 C 172.30 152.47 171.58 151.77 170.70 151.78 C 169.83 151.80 169.13 152.51 169.14 153.39 Z M 169.15 154.43 L 169.19 155.46 C 169.22 156.33 169.96 157.02 170.83 156.98 C 171.71 156.95 172.39 156.21 172.36 155.34 L 172.32 154.32 C 172.29 153.44 171.55 152.76 170.68 152.79 C 169.80 152.82 169.12 153.56 169.15 154.43 Z M 169.19 155.52 L 169.27 156.47 C 169.33 157.34 170.09 157.99 170.97 157.93 C 171.84 157.86 172.49 157.10 172.43 156.23 L 172.36 155.28 C 172.29 154.40 171.53 153.75 170.65 153.82 C 169.78 153.88 169.13 154.65 169.19 155.52 Z M 169.27 156.52 L 169.38 157.51 C 169.47 158.38 170.26 159.01 171.13 158.91 C 172.00 158.82 172.63 158.04 172.53 157.17 L 172.42 156.17 C 172.33 155.30 171.55 154.68 170.68 154.77 C 169.81 154.87 169.18 155.65 169.27 156.52 Z M 169.38 157.52 L 169.50 158.50 C 169.60 159.37 170.39 159.99 171.25 159.89 C 172.12 159.79 172.75 159.00 172.64 158.13 L 172.53 157.15 C 172.43 156.28 171.64 155.66 170.77 155.76 C 169.90 155.87 169.28 156.65 169.38 157.52 Z M 169.50 158.50 L 169.61 159.51 C 169.71 160.38 170.50 161.00 171.37 160.90 C 172.24 160.80 172.86 160.02 172.76 159.15 L 172.64 158.14 C 172.54 157.27 171.76 156.64 170.89 156.74 C 170.02 156.84 169.40 157.63 169.50 158.50 Z M 169.61 159.50 L 169.72 160.49 C 169.82 161.36 170.60 161.99 171.47 161.89 C 172.34 161.79 172.97 161.01 172.87 160.14 L 172.76 159.15 C 172.66 158.28 171.88 157.66 171.01 157.75 C 170.14 157.85 169.51 158.63 169.61 159.50 Z M 169.72 160.49 L 169.83 161.49 C 169.92 162.36 170.70 162.99 171.57 162.89 C 172.44 162.80 173.07 162.02 172.98 161.15 L 172.87 160.14 C 172.77 159.27 171.99 158.65 171.12 158.74 C 170.25 158.83 169.63 159.62 169.72 160.49 Z M 169.83 161.49 L 169.94 162.48 C 170.03 163.35 170.81 163.98 171.68 163.88 C 172.55 163.79 173.18 163.01 173.08 162.14 L 172.98 161.15 C 172.88 160.28 172.10 159.65 171.23 159.74 C 170.36 159.84 169.74 160.62 169.83 161.49 Z M 169.94 162.48 L 170.05 163.47 C 170.14 164.34 170.92 164.96 171.79 164.87 C 172.66 164.77 173.28 164.00 173.19 163.13 L 173.08 162.14 C 172.99 161.27 172.21 160.65 171.34 160.74 C 170.47 160.83 169.85 161.61 169.94 162.48 Z M 170.05 163.47 L 170.16 164.45 C 170.25 165.32 171.02 165.95 171.89 165.86 C 172.76 165.76 173.38 164.99 173.29 164.12 L 173.19 163.13 C 173.09 162.27 172.32 161.64 171.45 161.73 C 170.59 161.82 169.96 162.60 170.05 163.47 Z M 170.16 164.44 L 170.26 165.46 C 170.34 166.32 171.12 166.95 171.98 166.87 C 172.85 166.78 173.48 166.01 173.39 165.14 L 173.29 164.13 C 173.20 163.27 172.43 162.63 171.57 162.72 C 170.70 162.81 170.07 163.58 170.16 164.44 Z M 170.26 165.44 L 170.35 166.45 C 170.43 167.32 171.20 167.95 172.06 167.87 C 172.93 167.79 173.56 167.02 173.48 166.16 L 173.39 165.15 C 173.31 164.29 172.54 163.65 171.68 163.73 C 170.81 163.81 170.18 164.58 170.26 165.44 Z M 170.36 166.44 L 170.44 167.45 C 170.52 168.31 171.28 168.95 172.14 168.87 C 173.01 168.80 173.65 168.03 173.57 167.17 L 173.48 166.17 C 173.40 165.30 172.64 164.67 171.78 164.74 C 170.92 164.82 170.28 165.58 170.36 166.44 Z M 170.45 167.45 L 170.54 168.43 C 170.62 169.29 171.38 169.93 172.24 169.85 C 173.10 169.77 173.73 169.01 173.66 168.15 L 173.57 167.17 C 173.49 166.31 172.73 165.67 171.86 165.75 C 171.00 165.83 170.37 166.59 170.45 167.45 Z M 170.54 168.46 L 170.65 169.45 C 170.74 170.31 171.51 170.93 172.37 170.84 C 173.23 170.75 173.85 169.98 173.76 169.12 L 173.65 168.13 C 173.56 167.27 172.79 166.64 171.93 166.74 C 171.07 166.83 170.45 167.60 170.54 168.46 Z M 170.65 169.45 L 170.75 170.41 C 170.85 171.26 171.62 171.88 172.47 171.79 C 173.33 171.70 173.95 170.93 173.86 170.07 L 173.75 169.12 C 173.66 168.26 172.89 167.64 172.03 167.73 C 171.18 167.83 170.56 168.60 170.65 169.45 Z M 170.75 170.38 L 170.83 171.17 C 170.90 172.03 171.66 172.66 172.52 172.59 C 173.37 172.51 174.00 171.75 173.93 170.90 L 173.86 170.10 C 173.78 169.24 173.02 168.61 172.17 168.69 C 171.31 168.76 170.68 169.52 170.75 170.38 Z M 170.83 171.15 L 170.91 172.34 C 170.97 173.20 171.72 173.84 172.58 173.78 C 173.43 173.72 174.08 172.97 174.01 172.12 L 173.93 170.92 C 173.87 170.07 173.12 169.42 172.26 169.48 C 171.41 169.55 170.76 170.29 170.83 171.15 Z M 170.91 172.33 L 170.98 173.30 C 171.04 174.16 171.77 174.80 172.63 174.75 C 173.49 174.69 174.13 173.95 174.08 173.10 L 174.01 172.13 C 173.96 171.27 173.22 170.62 172.36 170.68 C 171.50 170.74 170.86 171.48 170.91 172.33 Z M 170.98 173.30 L 171.05 174.35 C 171.10 175.20 171.84 175.85 172.69 175.80 C 173.55 175.74 174.20 175.00 174.14 174.15 L 174.08 173.10 C 174.02 172.24 173.28 171.60 172.43 171.65 C 171.57 171.71 170.93 172.44 170.98 173.30 Z M 171.05 174.34 L 171.11 175.41 C 171.17 176.26 171.90 176.91 172.76 176.86 C 173.61 176.80 174.26 176.07 174.21 175.21 L 174.14 174.15 C 174.09 173.30 173.35 172.65 172.50 172.70 C 171.64 172.75 171.00 173.49 171.05 174.34 Z M 171.12 175.40 L 171.17 176.37 C 171.23 177.22 171.96 177.87 172.81 177.82 C 173.66 177.77 174.31 177.04 174.26 176.18 L 174.21 175.22 C 174.15 174.37 173.42 173.72 172.57 173.77 C 171.72 173.82 171.07 174.55 171.12 175.40 Z M 171.18 176.35 L 171.25 177.74 C 171.29 178.59 172.01 179.24 172.86 179.20 C 173.71 179.16 174.36 178.44 174.32 177.59 L 174.25 176.20 C 174.21 175.36 173.49 174.70 172.65 174.74 C 171.80 174.78 171.14 175.50 171.18 176.35 Z M 171.30 177.41 L 171.22 177.85 C 171.08 178.68 171.63 179.46 172.46 179.60 C 173.28 179.74 174.06 179.18 174.20 178.36 L 174.27 177.92 C 174.41 177.10 173.86 176.32 173.04 176.18 C 172.22 176.04 171.44 176.59 171.30 177.41 Z M 174.04 177.49 L 173.60 176.53 C 173.25 175.80 172.38 175.48 171.65 175.82 C 170.91 176.16 170.59 177.04 170.93 177.77 L 171.38 178.73 C 171.72 179.46 172.59 179.78 173.33 179.44 C 174.06 179.10 174.38 178.22 174.04 177.49 Z M 173.57 176.55 L 173.15 175.64 C 172.81 174.92 171.96 174.61 171.24 174.95 C 170.52 175.28 170.21 176.14 170.54 176.85 L 170.96 177.76 C 171.30 178.48 172.15 178.79 172.87 178.45 C 173.59 178.12 173.90 177.26 173.57 176.55 Z M 173.12 175.62 L 172.86 175.09 C 172.51 174.38 171.66 174.09 170.95 174.44 C 170.24 174.79 169.95 175.65 170.30 176.35 L 170.56 176.88 C 170.91 177.59 171.77 177.88 172.48 177.53 C 173.18 177.18 173.47 176.32 173.12 175.62 Z"
      fill="black"
      fill-rule="nonzero" /><path d="M 153.19 154.05 L 154.18 154.05 C 155.01 154.05 155.68 153.38 155.68 152.55 C 155.68 151.72 155.01 151.04 154.18 151.04 L 153.19 151.04 C 152.36 151.04 151.69 151.72 151.69 152.55 C 151.69 153.38 152.36 154.05 153.19 154.05 Z M 154.18 154.07 L 155.19 154.07 C 156.03 154.07 156.71 153.39 156.71 152.55 C 156.71 151.71 156.03 151.02 155.19 151.02 L 154.18 151.02 C 153.34 151.02 152.65 151.71 152.65 152.55 C 152.65 153.39 153.34 154.07 154.18 154.07 Z M 155.18 154.08 L 156.09 154.09 C 156.94 154.09 157.63 153.40 157.63 152.55 C 157.63 151.71 156.95 151.02 156.10 151.01 L 155.19 151.01 C 154.34 151.01 153.65 151.70 153.65 152.54 C 153.65 153.39 154.34 154.08 155.18 154.08 Z M 156.07 154.08 L 157.05 154.10 C 157.90 154.12 158.60 153.44 158.61 152.60 C 158.63 151.75 157.96 151.05 157.11 151.04 L 156.12 151.02 C 155.28 151.00 154.58 151.68 154.56 152.52 C 154.55 153.37 155.22 154.07 156.07 154.08 Z M 157.02 154.09 L 158.10 154.14 C 158.94 154.18 159.65 153.53 159.69 152.68 C 159.73 151.84 159.07 151.13 158.23 151.09 L 157.15 151.05 C 156.31 151.01 155.60 151.66 155.56 152.50 C 155.52 153.34 156.17 154.05 157.02 154.09 Z M 158.07 154.13 L 159.05 154.19 C 159.89 154.25 160.61 153.61 160.66 152.78 C 160.72 151.94 160.08 151.22 159.24 151.17 L 158.26 151.10 C 157.43 151.05 156.70 151.68 156.65 152.52 C 156.60 153.36 157.23 154.08 158.07 154.13 Z M 159.04 154.19 L 160.07 154.26 C 160.90 154.32 161.63 153.69 161.68 152.86 C 161.74 152.03 161.12 151.31 160.29 151.25 L 159.26 151.17 C 158.42 151.11 157.70 151.74 157.64 152.57 C 157.58 153.40 158.21 154.13 159.04 154.19 Z M 160.07 154.25 L 161.08 154.33 C 161.91 154.39 162.63 153.76 162.69 152.94 C 162.75 152.11 162.13 151.39 161.30 151.33 L 160.29 151.26 C 159.46 151.20 158.74 151.82 158.68 152.64 C 158.62 153.47 159.24 154.19 160.07 154.25 Z M 161.09 154.32 L 162.18 154.39 C 163.00 154.45 163.71 153.82 163.77 153.00 C 163.83 152.18 163.20 151.47 162.38 151.41 L 161.29 151.34 C 160.47 151.28 159.75 151.90 159.70 152.73 C 159.64 153.55 160.27 154.26 161.09 154.32 Z M 162.18 154.38 L 163.19 154.45 C 164.01 154.50 164.71 153.88 164.76 153.06 C 164.82 152.24 164.20 151.54 163.38 151.49 L 162.38 151.42 C 161.56 151.37 160.85 151.99 160.80 152.81 C 160.75 153.62 161.37 154.33 162.18 154.38 Z M 163.18 154.43 L 164.08 154.50 C 164.89 154.56 165.59 153.95 165.65 153.14 C 165.71 152.33 165.10 151.62 164.29 151.56 L 163.39 151.50 C 162.58 151.44 161.87 152.05 161.82 152.86 C 161.76 153.67 162.37 154.38 163.18 154.43 Z M 164.04 154.48 L 165.08 154.58 C 165.88 154.66 166.59 154.07 166.67 153.27 C 166.75 152.47 166.16 151.76 165.36 151.68 L 164.32 151.58 C 163.52 151.50 162.81 152.09 162.73 152.89 C 162.65 153.69 163.24 154.41 164.04 154.48 Z M 165.02 154.56 L 165.98 154.70 C 166.77 154.81 167.50 154.25 167.61 153.46 C 167.72 152.67 167.17 151.94 166.38 151.83 L 165.42 151.70 C 164.63 151.59 163.90 152.14 163.79 152.93 C 163.68 153.72 164.23 154.45 165.02 154.56 Z M 165.90 154.67 L 166.88 154.86 C 167.66 155.01 168.41 154.50 168.56 153.72 C 168.71 152.95 168.20 152.20 167.42 152.05 L 166.45 151.86 C 165.67 151.71 164.92 152.22 164.77 152.99 C 164.62 153.77 165.13 154.52 165.90 154.67 Z M 166.83 154.84 L 167.79 155.07 C 168.56 155.25 169.33 154.77 169.51 154.00 C 169.69 153.24 169.21 152.47 168.44 152.29 L 167.48 152.06 C 166.71 151.88 165.94 152.36 165.76 153.13 C 165.58 153.90 166.06 154.66 166.83 154.84 Z M 167.78 155.06 L 168.02 155.12 C 168.78 155.31 169.55 154.84 169.74 154.07 C 169.93 153.31 169.46 152.54 168.69 152.35 L 168.46 152.29 C 167.69 152.11 166.92 152.58 166.73 153.34 C 166.55 154.11 167.02 154.88 167.78 155.06 Z"
      fill="black"
      fill-rule="nonzero" /><path d="M 152.57 160.13 L 153.35 160.76 C 154.00 161.29 154.95 161.19 155.47 160.54 C 155.99 159.90 155.89 158.95 155.25 158.43 L 154.46 157.79 C 153.82 157.27 152.87 157.37 152.35 158.01 C 151.82 158.66 151.92 159.60 152.57 160.13 Z M 153.75 161.03 L 154.63 161.37 C 155.42 161.67 156.31 161.28 156.61 160.49 C 156.92 159.70 156.53 158.81 155.74 158.51 L 154.85 158.16 C 154.06 157.86 153.18 158.25 152.87 159.04 C 152.57 159.83 152.96 160.72 153.75 161.03 Z M 155.23 161.48 L 156.20 161.45 C 157.05 161.43 157.72 160.71 157.70 159.86 C 157.67 159.01 156.96 158.34 156.11 158.36 L 155.14 158.39 C 154.28 158.42 153.61 159.13 153.64 159.98 C 153.66 160.84 154.38 161.51 155.23 161.48 Z M 156.42 161.43 L 157.44 161.25 C 158.28 161.10 158.85 160.30 158.70 159.46 C 158.55 158.62 157.75 158.06 156.91 158.20 L 155.89 158.38 C 155.04 158.53 154.48 159.33 154.63 160.17 C 154.78 161.02 155.58 161.58 156.42 161.43 Z M 157.46 161.24 L 158.43 161.06 C 159.27 160.90 159.82 160.09 159.66 159.25 C 159.50 158.42 158.69 157.87 157.86 158.03 L 156.89 158.21 C 156.05 158.37 155.50 159.18 155.66 160.02 C 155.82 160.85 156.63 161.40 157.46 161.24 Z M 158.42 161.06 L 159.43 160.88 C 160.26 160.73 160.82 159.93 160.67 159.09 C 160.52 158.25 159.72 157.69 158.88 157.84 L 157.87 158.03 C 157.04 158.18 156.48 158.98 156.63 159.81 C 156.78 160.65 157.58 161.21 158.42 161.06 Z M 159.39 160.88 L 160.37 160.72 C 161.21 160.59 161.78 159.81 161.65 158.97 C 161.52 158.13 160.74 157.56 159.90 157.69 L 158.92 157.85 C 158.08 157.98 157.51 158.76 157.64 159.60 C 157.77 160.43 158.56 161.01 159.39 160.88 Z M 160.34 160.72 L 161.34 160.58 C 162.17 160.47 162.76 159.70 162.64 158.87 C 162.53 158.03 161.76 157.45 160.93 157.56 L 159.93 157.70 C 159.10 157.81 158.52 158.58 158.63 159.41 C 158.74 160.25 159.51 160.83 160.34 160.72 Z M 161.32 160.57 L 162.33 160.44 C 163.16 160.34 163.75 159.59 163.65 158.77 C 163.54 157.94 162.79 157.35 161.97 157.45 L 160.95 157.58 C 160.13 157.68 159.54 158.43 159.64 159.25 C 159.74 160.08 160.49 160.67 161.32 160.57 Z M 162.31 160.43 L 163.31 160.32 C 164.13 160.23 164.72 159.49 164.63 158.68 C 164.54 157.86 163.80 157.27 162.99 157.36 L 161.99 157.47 C 161.17 157.56 160.58 158.29 160.67 159.11 C 160.76 159.93 161.50 160.52 162.31 160.43 Z M 163.30 160.30 L 164.27 160.20 C 165.08 160.11 165.67 159.39 165.58 158.58 C 165.50 157.78 164.78 157.19 163.97 157.28 L 163.00 157.38 C 162.19 157.46 161.60 158.18 161.69 158.99 C 161.77 159.80 162.49 160.38 163.30 160.30 Z M 164.27 160.18 L 165.26 160.08 C 166.06 160.00 166.63 159.28 166.55 158.48 C 166.47 157.68 165.75 157.10 164.95 157.19 L 163.97 157.29 C 163.17 157.37 162.59 158.09 162.67 158.89 C 162.76 159.69 163.47 160.27 164.27 160.18 Z M 165.27 160.07 L 166.26 159.95 C 167.05 159.86 167.62 159.14 167.53 158.35 C 167.44 157.56 166.72 156.99 165.93 157.08 L 164.94 157.20 C 164.14 157.29 163.58 158.01 163.67 158.80 C 163.76 159.59 164.48 160.16 165.27 160.07 Z M 166.28 159.94 L 167.25 159.81 C 168.04 159.71 168.59 158.99 168.49 158.20 C 168.39 157.42 167.67 156.86 166.88 156.97 L 165.91 157.09 C 165.12 157.20 164.57 157.92 164.67 158.71 C 164.77 159.49 165.50 160.04 166.28 159.94 Z M 167.26 159.81 L 168.28 159.67 C 169.06 159.56 169.61 158.83 169.50 158.05 C 169.39 157.27 168.66 156.72 167.88 156.83 L 166.87 156.97 C 166.09 157.08 165.54 157.80 165.65 158.59 C 165.76 159.37 166.48 159.92 167.26 159.81 Z M 168.28 159.66 L 168.48 159.63 C 169.26 159.52 169.80 158.80 169.69 158.02 C 169.58 157.24 168.86 156.70 168.08 156.81 L 167.88 156.83 C 167.10 156.94 166.56 157.67 166.67 158.45 C 166.78 159.23 167.50 159.77 168.28 159.66 Z"
      fill="black"
      fill-rule="nonzero" /><path d="M 161.99 147.42 L 161.94 146.25 C 161.92 145.44 161.23 144.80 160.42 144.83 C 159.60 144.86 158.96 145.54 158.99 146.36 L 159.03 147.52 C 159.06 148.34 159.75 148.98 160.56 148.95 C 161.38 148.92 162.02 148.23 161.99 147.42 Z M 158.92 146.22 L 158.91 146.53 C 158.86 147.39 159.51 148.12 160.37 148.16 C 161.22 148.21 161.95 147.56 162.00 146.70 L 162.01 146.39 C 162.06 145.54 161.41 144.81 160.55 144.76 C 159.70 144.71 158.97 145.37 158.92 146.22 Z M 158.88 146.61 L 158.88 147.72 C 158.87 148.58 159.57 149.29 160.44 149.29 C 161.31 149.30 162.02 148.59 162.02 147.73 L 162.02 146.62 C 162.03 145.76 161.32 145.05 160.46 145.05 C 159.59 145.04 158.88 145.75 158.88 146.61 Z M 158.87 147.72 L 158.87 148.95 C 158.87 149.83 159.58 150.53 160.45 150.53 C 161.32 150.53 162.03 149.83 162.03 148.95 L 162.03 147.72 C 162.03 146.85 161.32 146.14 160.45 146.14 C 159.58 146.14 158.87 146.85 158.87 147.72 Z M 158.86 148.95 L 158.86 150.00 C 158.86 150.88 159.57 151.59 160.45 151.59 C 161.32 151.59 162.03 150.88 162.03 150.00 L 162.03 148.95 C 162.03 148.08 161.32 147.37 160.45 147.37 C 159.57 147.37 158.86 148.08 158.86 148.95 Z M 158.86 150.00 L 158.86 150.94 C 158.86 151.81 159.57 152.52 160.45 152.52 C 161.32 152.52 162.03 151.81 162.03 150.94 L 162.03 150.00 C 162.03 149.13 161.32 148.42 160.45 148.42 C 159.57 148.42 158.86 149.13 158.86 150.00 Z M 158.86 150.94 L 158.86 151.97 C 158.86 152.85 159.57 153.56 160.45 153.56 C 161.32 153.56 162.03 152.85 162.03 151.97 L 162.03 150.94 C 162.03 150.06 161.32 149.35 160.45 149.35 C 159.57 149.35 158.86 150.06 158.86 150.94 Z M 158.86 151.97 L 158.86 152.91 C 158.86 153.78 159.57 154.49 160.45 154.49 C 161.32 154.49 162.03 153.78 162.03 152.91 L 162.03 151.97 C 162.03 151.10 161.32 150.39 160.45 150.39 C 159.57 150.39 158.86 151.10 158.86 151.97 Z M 158.86 152.91 L 158.86 153.91 C 158.86 154.79 159.57 155.50 160.45 155.50 C 161.32 155.50 162.03 154.79 162.03 153.91 L 162.03 152.91 C 162.03 152.03 161.32 151.32 160.45 151.32 C 159.57 151.32 158.86 152.03 158.86 152.91 Z M 158.87 153.91 L 158.87 154.87 C 158.87 155.75 159.58 156.45 160.45 156.45 C 161.32 156.45 162.03 155.75 162.03 154.87 L 162.03 153.91 C 162.03 153.04 161.32 152.33 160.45 152.33 C 159.58 152.33 158.87 153.04 158.87 153.91 Z M 158.87 154.87 L 158.87 155.84 C 158.87 156.71 159.58 157.42 160.45 157.42 C 161.32 157.42 162.02 156.71 162.02 155.84 L 162.02 154.87 C 162.02 154.00 161.32 153.30 160.45 153.30 C 159.58 153.30 158.87 154.00 158.87 154.87 Z M 158.87 155.84 L 158.87 156.84 C 158.87 157.71 159.58 158.42 160.45 158.42 C 161.32 158.42 162.02 157.71 162.02 156.84 L 162.02 155.84 C 162.02 154.97 161.32 154.27 160.45 154.27 C 159.58 154.27 158.87 154.97 158.87 155.84 Z M 158.88 156.84 L 158.88 157.84 C 158.88 158.70 159.58 159.41 160.45 159.41 C 161.32 159.41 162.02 158.70 162.02 157.84 L 162.02 156.84 C 162.02 155.97 161.32 155.27 160.45 155.27 C 159.58 155.27 158.88 155.97 158.88 156.84 Z M 158.88 157.84 L 158.88 158.90 C 158.88 159.77 159.58 160.47 160.45 160.47 C 161.31 160.47 162.02 159.77 162.02 158.90 L 162.02 157.84 C 162.02 156.97 161.31 156.27 160.45 156.27 C 159.58 156.27 158.88 156.97 158.88 157.84 Z M 158.89 158.90 L 158.89 159.92 C 158.89 160.78 159.59 161.48 160.45 161.48 C 161.31 161.48 162.01 160.78 162.01 159.92 L 162.01 158.90 C 162.01 158.04 161.31 157.34 160.45 157.34 C 159.59 157.34 158.89 158.04 158.89 158.90 Z M 158.90 159.92 L 158.90 160.92 C 158.90 161.78 159.59 162.47 160.45 162.47 C 161.30 162.47 162.00 161.78 162.00 160.92 L 162.00 159.92 C 162.00 159.06 161.30 158.37 160.45 158.37 C 159.59 158.37 158.90 159.06 158.90 159.92 Z M 158.91 160.92 L 158.91 161.92 C 158.91 162.76 159.60 163.45 160.45 163.45 C 161.30 163.45 161.99 162.76 161.99 161.92 L 161.99 160.92 C 161.99 160.07 161.30 159.38 160.45 159.38 C 159.60 159.38 158.91 160.07 158.91 160.92 Z M 158.93 161.92 L 158.93 162.96 C 158.93 163.80 159.61 164.48 160.45 164.48 C 161.29 164.48 161.97 163.80 161.97 162.96 L 161.97 161.92 C 161.97 161.08 161.29 160.39 160.45 160.39 C 159.61 160.39 158.93 161.08 158.93 161.92 Z M 158.95 162.96 L 158.95 163.94 C 158.95 164.77 159.62 165.44 160.45 165.44 C 161.28 165.44 161.95 164.77 161.95 163.94 L 161.95 162.96 C 161.95 162.13 161.28 161.46 160.45 161.46 C 159.62 161.46 158.95 162.13 158.95 162.96 Z M 158.96 163.94 L 158.96 164.95 C 158.96 165.77 159.63 166.44 160.45 166.44 C 161.27 166.44 161.93 165.77 161.93 164.95 L 161.93 163.94 C 161.93 163.12 161.27 162.46 160.45 162.46 C 159.63 162.46 158.96 163.12 158.96 163.94 Z M 158.98 164.95 L 158.98 165.93 C 158.98 166.75 159.64 167.40 160.45 167.40 C 161.26 167.40 161.92 166.75 161.92 165.93 L 161.92 164.95 C 161.92 164.14 161.26 163.48 160.45 163.48 C 159.64 163.48 158.98 164.14 158.98 164.95 Z M 158.99 165.93 L 158.99 166.91 C 158.99 167.71 159.64 168.37 160.45 168.37 C 161.25 168.37 161.90 167.71 161.90 166.91 L 161.90 165.93 C 161.90 165.13 161.25 164.48 160.45 164.48 C 159.64 164.48 158.99 165.13 158.99 165.93 Z M 159.01 166.91 L 159.01 167.91 C 159.01 168.70 159.65 169.35 160.45 169.35 C 161.24 169.35 161.89 168.70 161.89 167.91 L 161.89 166.91 C 161.89 166.11 161.24 165.47 160.45 165.47 C 159.65 165.47 159.01 166.11 159.01 166.91 Z M 159.01 167.91 L 159.01 168.19 C 159.01 168.99 159.66 169.63 160.45 169.63 C 161.24 169.63 161.88 168.99 161.88 168.19 L 161.88 167.91 C 161.88 167.12 161.24 166.47 160.45 166.47 C 159.66 166.47 159.01 167.12 159.01 167.91 Z"
      fill="black"
      fill-rule="nonzero" /><path d="M 132.29 149.98 L 132.61 149.00 C 132.87 148.20 132.43 147.34 131.63 147.08 C 130.83 146.82 129.97 147.26 129.71 148.06 L 129.39 149.03 C 129.13 149.83 129.57 150.70 130.37 150.96 C 131.17 151.22 132.03 150.78 132.29 149.98 Z M 132.08 149.78 L 132.73 149.30 C 133.42 148.79 133.57 147.82 133.06 147.13 C 132.56 146.45 131.59 146.30 130.90 146.80 L 130.24 147.29 C 129.56 147.79 129.41 148.76 129.91 149.45 C 130.42 150.14 131.39 150.29 132.08 149.78 Z M 131.98 149.59 L 133.02 149.48 C 133.87 149.39 134.48 148.63 134.39 147.77 C 134.30 146.92 133.54 146.31 132.69 146.40 L 131.65 146.51 C 130.80 146.60 130.18 147.36 130.27 148.22 C 130.37 149.07 131.13 149.68 131.98 149.59 Z M 132.87 149.48 L 133.92 149.46 C 134.77 149.45 135.45 148.76 135.44 147.91 C 135.43 147.06 134.74 146.38 133.89 146.39 L 132.83 146.40 C 131.98 146.41 131.30 147.11 131.31 147.96 C 131.32 148.81 132.02 149.49 132.87 149.48 Z M 133.90 149.44 L 134.93 149.45 C 135.77 149.45 136.45 148.78 136.45 147.94 C 136.46 147.11 135.79 146.42 134.95 146.42 L 133.92 146.41 C 133.08 146.41 132.40 147.08 132.39 147.92 C 132.39 148.75 133.06 149.43 133.90 149.44 Z M 134.89 149.42 L 135.88 149.45 C 136.70 149.48 137.39 148.84 137.42 148.02 C 137.45 147.20 136.81 146.51 135.98 146.48 L 134.99 146.45 C 134.17 146.42 133.48 147.06 133.45 147.88 C 133.43 148.70 134.07 149.39 134.89 149.42 Z M 135.81 149.42 L 136.88 149.52 C 137.68 149.59 138.39 148.99 138.46 148.19 C 138.53 147.38 137.93 146.67 137.13 146.60 L 136.06 146.51 C 135.26 146.44 134.55 147.04 134.48 147.84 C 134.41 148.65 135.00 149.35 135.81 149.42 Z M 136.81 149.49 L 137.73 149.61 C 138.51 149.72 139.24 149.17 139.35 148.38 C 139.45 147.59 138.90 146.87 138.11 146.76 L 137.20 146.64 C 136.41 146.53 135.69 147.08 135.58 147.87 C 135.47 148.65 136.02 149.38 136.81 149.49 Z"
      fill="black"
      fill-rule="nonzero" /><path d="M 132.51 152.94 L 131.65 153.52 C 130.95 153.99 130.77 154.94 131.24 155.64 C 131.71 156.34 132.65 156.52 133.35 156.05 L 134.21 155.47 C 134.91 155.00 135.09 154.05 134.62 153.35 C 134.15 152.65 133.20 152.47 132.51 152.94 Z M 131.74 156.12 L 132.34 156.46 C 133.08 156.89 134.01 156.63 134.44 155.89 C 134.86 155.16 134.60 154.22 133.87 153.80 L 133.26 153.45 C 132.53 153.03 131.59 153.29 131.17 154.02 C 130.75 154.76 131.00 155.70 131.74 156.12 Z M 132.74 156.61 L 133.86 156.89 C 134.68 157.09 135.50 156.59 135.71 155.77 C 135.91 154.96 135.41 154.13 134.59 153.93 L 133.47 153.65 C 132.65 153.45 131.83 153.95 131.63 154.77 C 131.42 155.58 131.92 156.41 132.74 156.61 Z M 133.81 156.86 L 134.77 157.14 C 135.57 157.37 136.41 156.91 136.64 156.11 C 136.87 155.31 136.41 154.47 135.61 154.24 L 134.65 153.96 C 133.85 153.73 133.01 154.19 132.78 154.99 C 132.55 155.79 133.01 156.63 133.81 156.86 Z M 134.74 157.12 L 135.70 157.42 C 136.49 157.67 137.33 157.23 137.58 156.44 C 137.83 155.65 137.39 154.81 136.60 154.56 L 135.64 154.26 C 134.85 154.01 134.01 154.45 133.76 155.24 C 133.51 156.03 133.95 156.87 134.74 157.12 Z M 135.61 157.38 L 136.53 157.73 C 137.30 158.03 138.16 157.65 138.46 156.88 C 138.75 156.11 138.37 155.25 137.60 154.95 L 136.69 154.60 C 135.92 154.30 135.05 154.68 134.76 155.45 C 134.46 156.22 134.85 157.08 135.61 157.38 Z M 136.27 157.59 L 137.11 158.12 C 137.80 158.56 138.71 158.36 139.15 157.67 C 139.59 156.98 139.38 156.07 138.70 155.63 L 137.86 155.10 C 137.17 154.66 136.26 154.86 135.82 155.55 C 135.38 156.23 135.59 157.15 136.27 157.59 Z M 136.65 157.61 L 137.13 158.45 C 137.54 159.14 138.43 159.38 139.12 158.98 C 139.82 158.57 140.06 157.68 139.65 156.99 L 139.16 156.14 C 138.76 155.45 137.87 155.21 137.17 155.62 C 136.48 156.02 136.24 156.91 136.65 157.61 Z M 136.95 157.78 L 136.99 158.78 C 137.02 159.57 137.70 160.19 138.49 160.16 C 139.29 160.13 139.91 159.46 139.88 158.66 L 139.83 157.66 C 139.80 156.86 139.13 156.24 138.33 156.28 C 137.54 156.31 136.92 156.98 136.95 157.78 Z M 137.12 158.14 L 136.73 159.02 C 136.41 159.74 136.74 160.59 137.47 160.92 C 138.19 161.24 139.04 160.91 139.36 160.18 L 139.75 159.30 C 140.07 158.57 139.74 157.72 139.02 157.40 C 138.29 157.08 137.44 157.41 137.12 158.14 Z M 136.98 158.62 L 136.29 159.37 C 135.75 159.96 135.79 160.88 136.38 161.42 C 136.97 161.96 137.89 161.92 138.43 161.33 L 139.12 160.58 C 139.66 159.98 139.62 159.07 139.03 158.53 C 138.43 157.99 137.52 158.03 136.98 158.62 Z M 136.42 159.21 L 135.65 159.85 C 135.02 160.37 134.93 161.30 135.45 161.93 C 135.97 162.56 136.90 162.65 137.52 162.13 L 138.30 161.49 C 138.93 160.97 139.02 160.04 138.50 159.41 C 137.98 158.78 137.05 158.69 136.42 159.21 Z M 135.72 159.76 L 134.88 160.35 C 134.20 160.83 134.04 161.77 134.52 162.45 C 135.00 163.13 135.94 163.29 136.62 162.81 L 137.45 162.22 C 138.13 161.74 138.30 160.80 137.82 160.12 C 137.34 159.44 136.40 159.28 135.72 159.76 Z M 134.94 160.29 L 134.08 160.83 C 133.37 161.28 133.16 162.22 133.61 162.93 C 134.06 163.64 135.00 163.85 135.71 163.41 L 136.56 162.87 C 137.27 162.42 137.48 161.48 137.04 160.77 C 136.59 160.06 135.65 159.84 134.94 160.29 Z M 134.10 160.82 L 133.19 161.37 C 132.47 161.81 132.24 162.74 132.68 163.46 C 133.12 164.18 134.06 164.41 134.78 163.98 L 135.69 163.42 C 136.41 162.98 136.64 162.05 136.20 161.33 C 135.76 160.61 134.82 160.38 134.10 160.82 Z M 132.63 161.98 L 132.29 162.65 C 131.90 163.40 132.20 164.32 132.95 164.70 C 133.70 165.08 134.62 164.78 135.00 164.03 L 135.34 163.36 C 135.72 162.62 135.42 161.70 134.67 161.32 C 133.93 160.93 133.01 161.23 132.63 161.98 Z M 132.53 164.37 L 133.21 165.11 C 133.77 165.72 134.73 165.76 135.34 165.20 C 135.96 164.63 136.00 163.68 135.43 163.06 L 134.76 162.32 C 134.19 161.71 133.23 161.66 132.62 162.23 C 132.00 162.79 131.96 163.75 132.53 164.37 Z M 133.46 165.31 L 134.29 165.90 C 134.97 166.38 135.91 166.21 136.38 165.53 C 136.86 164.85 136.70 163.91 136.02 163.44 L 135.18 162.85 C 134.50 162.38 133.57 162.54 133.09 163.22 C 132.61 163.90 132.78 164.84 133.46 165.31 Z M 134.35 165.94 L 135.21 166.48 C 135.91 166.92 136.83 166.71 137.28 166.01 C 137.72 165.32 137.51 164.39 136.81 163.94 L 135.96 163.40 C 135.26 162.96 134.33 163.16 133.89 163.86 C 133.44 164.56 133.65 165.49 134.35 165.94 Z M 135.18 166.46 L 136.01 167.01 C 136.70 167.47 137.63 167.28 138.09 166.59 C 138.55 165.90 138.36 164.97 137.67 164.51 L 136.84 163.96 C 136.15 163.50 135.22 163.69 134.76 164.38 C 134.30 165.07 134.49 166.00 135.18 166.46 Z M 135.97 166.98 L 136.79 167.57 C 137.47 168.06 138.40 167.90 138.89 167.23 C 139.37 166.56 139.22 165.62 138.54 165.14 L 137.71 164.54 C 137.04 164.06 136.11 164.21 135.62 164.89 C 135.14 165.56 135.29 166.50 135.97 166.98 Z M 136.71 167.51 L 137.50 168.16 C 138.14 168.69 139.08 168.60 139.61 167.96 C 140.14 167.32 140.05 166.38 139.41 165.85 L 138.62 165.20 C 137.99 164.67 137.04 164.76 136.51 165.40 C 135.99 166.04 136.08 166.98 136.71 167.51 Z M 137.37 168.04 L 138.05 168.75 C 138.62 169.35 139.56 169.38 140.16 168.81 C 140.76 168.24 140.79 167.29 140.22 166.69 L 139.54 165.97 C 138.97 165.37 138.02 165.35 137.42 165.92 C 136.82 166.49 136.80 167.44 137.37 168.04 Z M 137.85 168.50 L 138.36 169.34 C 138.80 170.05 139.72 170.28 140.43 169.85 C 141.13 169.42 141.36 168.49 140.93 167.78 L 140.41 166.94 C 139.98 166.23 139.06 166.01 138.35 166.44 C 137.64 166.87 137.42 167.79 137.85 168.50 Z M 138.16 168.78 L 138.31 169.76 C 138.43 170.58 139.19 171.15 140.01 171.03 C 140.83 170.91 141.40 170.14 141.28 169.32 L 141.13 168.34 C 141.01 167.52 140.25 166.96 139.43 167.08 C 138.61 167.20 138.04 167.96 138.16 168.78 Z M 138.42 168.92 L 138.03 169.78 C 137.68 170.54 138.02 171.43 138.77 171.78 C 139.53 172.12 140.42 171.79 140.77 171.03 L 141.16 170.17 C 141.51 169.41 141.17 168.52 140.42 168.17 C 139.66 167.83 138.77 168.16 138.42 168.92 Z M 138.47 169.21 L 137.67 169.82 C 137.01 170.33 136.89 171.29 137.40 171.95 C 137.91 172.61 138.86 172.74 139.52 172.23 L 140.32 171.61 C 140.99 171.10 141.11 170.15 140.60 169.48 C 140.09 168.82 139.14 168.70 138.47 169.21 Z M 137.87 169.68 L 136.99 170.16 C 136.25 170.56 135.97 171.48 136.37 172.23 C 136.77 172.97 137.69 173.25 138.44 172.85 L 139.32 172.37 C 140.07 171.97 140.34 171.04 139.94 170.30 C 139.54 169.56 138.62 169.28 137.87 169.68 Z M 137.11 170.10 L 136.20 170.49 C 135.42 170.82 135.06 171.72 135.40 172.49 C 135.73 173.27 136.63 173.63 137.40 173.30 L 138.31 172.91 C 139.09 172.57 139.45 171.68 139.12 170.90 C 138.79 170.12 137.89 169.76 137.11 170.10 Z M 136.30 170.44 L 135.36 170.77 C 134.57 171.04 134.14 171.91 134.42 172.71 C 134.69 173.51 135.56 173.93 136.36 173.66 L 137.30 173.34 C 138.10 173.06 138.52 172.19 138.25 171.39 C 137.97 170.60 137.10 170.17 136.30 170.44 Z M 135.43 170.75 L 134.47 171.03 C 133.66 171.26 133.20 172.11 133.44 172.92 C 133.68 173.74 134.52 174.20 135.34 173.96 L 136.29 173.68 C 137.10 173.44 137.57 172.59 137.33 171.78 C 137.09 170.97 136.24 170.51 135.43 170.75 Z M 134.52 171.02 L 133.54 171.27 C 132.73 171.49 132.24 172.32 132.45 173.14 C 132.67 173.95 133.50 174.44 134.32 174.23 L 135.29 173.97 C 136.11 173.76 136.60 172.92 136.38 172.11 C 136.17 171.29 135.33 170.80 134.52 171.02 Z M 133.57 171.26 L 132.59 171.50 C 131.77 171.70 131.26 172.52 131.46 173.34 C 131.66 174.16 132.48 174.67 133.30 174.47 L 134.29 174.24 C 135.11 174.04 135.61 173.21 135.42 172.39 C 135.22 171.57 134.39 171.07 133.57 171.26 Z M 132.62 171.49 L 131.64 171.71 C 130.82 171.88 130.30 172.70 130.47 173.52 C 130.65 174.35 131.46 174.87 132.29 174.69 L 133.27 174.48 C 134.09 174.30 134.62 173.49 134.44 172.66 C 134.26 171.84 133.45 171.32 132.62 171.49 Z M 131.69 171.69 L 130.68 171.88 C 129.85 172.03 129.30 172.82 129.45 173.65 C 129.60 174.49 130.40 175.04 131.23 174.89 L 132.24 174.70 C 133.07 174.55 133.62 173.76 133.47 172.93 C 133.32 172.09 132.52 171.54 131.69 171.69 Z M 130.73 171.86 L 129.77 172.01 C 128.93 172.14 128.35 172.92 128.48 173.76 C 128.61 174.60 129.39 175.17 130.23 175.04 L 131.19 174.90 C 132.02 174.77 132.60 173.99 132.47 173.15 C 132.35 172.31 131.56 171.74 130.73 171.86 Z M 129.79 172.00 L 128.80 172.13 C 127.95 172.24 127.36 173.02 127.47 173.86 C 127.58 174.71 128.36 175.30 129.20 175.19 L 130.20 175.05 C 131.04 174.94 131.64 174.17 131.52 173.32 C 131.41 172.48 130.64 171.89 129.79 172.00 Z M 128.84 172.12 L 127.69 172.24 C 126.84 172.33 126.23 173.09 126.32 173.94 C 126.41 174.79 127.17 175.41 128.02 175.32 L 129.16 175.20 C 130.01 175.11 130.63 174.35 130.54 173.50 C 130.45 172.65 129.69 172.03 128.84 172.12 Z M 127.45 172.28 L 127.09 172.37 C 126.26 172.60 125.77 173.45 126.00 174.29 C 126.22 175.12 127.08 175.61 127.91 175.38 L 128.27 175.28 C 129.10 175.06 129.59 174.20 129.36 173.37 C 129.14 172.54 128.28 172.05 127.45 172.28 Z M 127.39 175.45 L 128.49 175.53 C 129.35 175.59 130.11 174.94 130.17 174.08 C 130.24 173.21 129.59 172.45 128.72 172.39 L 127.62 172.31 C 126.75 172.24 126.00 172.89 125.93 173.76 C 125.87 174.63 126.52 175.38 127.39 175.45 Z M 128.42 175.53 L 129.35 175.64 C 130.22 175.74 131.00 175.11 131.10 174.24 C 131.20 173.37 130.58 172.59 129.71 172.49 L 128.78 172.38 C 127.91 172.28 127.13 172.91 127.03 173.78 C 126.93 174.65 127.55 175.43 128.42 175.53 Z M 129.23 175.63 L 130.18 175.81 C 131.04 175.97 131.88 175.41 132.04 174.54 C 132.21 173.68 131.64 172.85 130.78 172.68 L 129.82 172.50 C 128.96 172.34 128.13 172.90 127.96 173.77 C 127.80 174.63 128.36 175.46 129.23 175.63 Z M 130.09 175.79 L 131.20 176.07 C 132.06 176.28 132.92 175.77 133.14 174.91 C 133.35 174.06 132.83 173.19 131.98 172.98 L 130.87 172.70 C 130.01 172.49 129.15 173.01 128.93 173.86 C 128.72 174.71 129.24 175.58 130.09 175.79 Z M 131.16 176.06 L 132.13 176.33 C 132.98 176.57 133.86 176.08 134.10 175.23 C 134.34 174.38 133.84 173.50 132.99 173.26 L 132.02 172.99 C 131.17 172.75 130.29 173.25 130.05 174.09 C 129.82 174.94 130.31 175.82 131.16 176.06 Z M 132.12 176.33 L 133.14 176.63 C 133.99 176.88 134.88 176.39 135.12 175.54 C 135.37 174.69 134.88 173.81 134.03 173.56 L 133.01 173.26 C 132.16 173.01 131.28 173.50 131.03 174.35 C 130.78 175.20 131.27 176.09 132.12 176.33 Z M 133.13 176.63 L 134.10 176.92 C 134.95 177.17 135.84 176.69 136.10 175.84 C 136.35 174.99 135.86 174.10 135.02 173.85 L 134.04 173.56 C 133.19 173.31 132.30 173.79 132.05 174.64 C 131.80 175.49 132.28 176.38 133.13 176.63 Z M 134.10 176.92 L 135.10 177.22 C 135.95 177.47 136.85 176.98 137.10 176.13 C 137.35 175.28 136.86 174.39 136.01 174.14 L 135.01 173.84 C 134.16 173.59 133.27 174.08 133.02 174.93 C 132.77 175.78 133.25 176.67 134.10 176.92 Z M 135.11 177.22 L 136.07 177.50 C 136.93 177.75 137.82 177.26 138.07 176.41 C 138.31 175.55 137.82 174.66 136.97 174.41 L 136.01 174.14 C 135.15 173.89 134.26 174.38 134.02 175.23 C 133.77 176.08 134.26 176.98 135.11 177.22 Z M 136.07 177.50 L 136.91 177.75 C 137.77 178.00 138.66 177.51 138.91 176.66 C 139.16 175.81 138.67 174.91 137.82 174.66 L 136.97 174.41 C 136.12 174.16 135.23 174.65 134.98 175.51 C 134.73 176.36 135.22 177.25 136.07 177.50 Z M 136.90 177.75 L 137.78 178.01 C 138.63 178.27 139.53 177.79 139.79 176.94 C 140.05 176.09 139.57 175.19 138.72 174.94 L 137.84 174.67 C 136.99 174.41 136.09 174.89 135.83 175.74 C 135.57 176.59 136.05 177.49 136.90 177.75 Z M 137.77 178.01 L 138.76 178.32 C 139.61 178.58 140.51 178.11 140.78 177.26 C 141.04 176.41 140.57 175.51 139.72 175.25 L 138.73 174.94 C 137.88 174.68 136.98 175.15 136.71 176.00 C 136.45 176.85 136.92 177.75 137.77 178.01 Z M 138.76 178.32 L 139.74 178.62 C 140.59 178.89 141.49 178.41 141.75 177.57 C 142.02 176.72 141.55 175.82 140.70 175.56 L 139.72 175.25 C 138.87 174.98 137.97 175.46 137.71 176.30 C 137.44 177.15 137.91 178.05 138.76 178.32 Z M 139.74 178.62 L 140.65 178.91 C 141.49 179.17 142.39 178.70 142.66 177.86 C 142.93 177.01 142.46 176.11 141.61 175.85 L 140.70 175.56 C 139.86 175.29 138.96 175.76 138.69 176.61 C 138.42 177.45 138.89 178.35 139.74 178.62 Z M 140.64 178.90 L 141.60 179.21 C 142.44 179.48 143.34 179.02 143.62 178.18 C 143.89 177.34 143.43 176.44 142.59 176.17 L 141.62 175.85 C 140.78 175.58 139.88 176.04 139.61 176.88 C 139.34 177.72 139.80 178.63 140.64 178.90 Z M 141.59 179.20 L 142.58 179.54 C 143.42 179.82 144.32 179.37 144.60 178.53 C 144.88 177.69 144.43 176.79 143.60 176.51 L 142.60 176.17 C 141.76 175.89 140.86 176.34 140.58 177.18 C 140.30 178.02 140.75 178.92 141.59 179.20 Z M 142.57 179.53 L 143.54 179.86 C 144.37 180.15 145.28 179.71 145.56 178.88 C 145.85 178.05 145.41 177.14 144.58 176.85 L 143.61 176.52 C 142.78 176.23 141.87 176.67 141.58 177.50 C 141.29 178.33 141.74 179.24 142.57 179.53 Z M 143.53 179.86 L 144.50 180.20 C 145.33 180.49 146.24 180.06 146.53 179.23 C 146.82 178.40 146.39 177.49 145.56 177.20 L 144.59 176.86 C 143.76 176.56 142.85 177.00 142.56 177.83 C 142.27 178.66 142.70 179.57 143.53 179.86 Z M 144.49 180.19 L 145.40 180.52 C 146.23 180.82 147.14 180.39 147.43 179.56 C 147.73 178.74 147.30 177.83 146.47 177.53 L 145.56 177.20 C 144.74 176.91 143.83 177.34 143.53 178.16 C 143.24 178.99 143.67 179.90 144.49 180.19 Z M 145.39 180.51 L 146.44 180.89 C 147.26 181.19 148.17 180.77 148.47 179.95 C 148.77 179.13 148.35 178.22 147.53 177.92 L 146.48 177.54 C 145.66 177.24 144.75 177.66 144.45 178.48 C 144.15 179.30 144.57 180.21 145.39 180.51 Z M 146.44 180.88 L 147.34 181.22 C 148.16 181.52 149.06 181.10 149.36 180.28 C 149.66 179.47 149.25 178.56 148.43 178.26 L 147.53 177.93 C 146.71 177.63 145.81 178.05 145.51 178.86 C 145.21 179.68 145.63 180.58 146.44 180.88 Z M 147.35 181.21 L 148.21 181.52 C 149.02 181.81 149.92 181.39 150.21 180.58 C 150.51 179.77 150.09 178.87 149.28 178.58 L 148.42 178.27 C 147.61 177.97 146.71 178.39 146.42 179.21 C 146.12 180.02 146.54 180.91 147.35 181.21 Z M 148.25 181.52 L 149.18 181.83 C 149.99 182.11 150.87 181.68 151.14 180.86 C 151.42 180.05 150.98 179.17 150.17 178.90 L 149.24 178.58 C 148.43 178.31 147.55 178.74 147.28 179.55 C 147.00 180.36 147.43 181.24 148.25 181.52 Z M 149.23 181.83 L 150.18 182.12 C 150.99 182.36 151.84 181.90 152.09 181.09 C 152.33 180.28 151.87 179.43 151.06 179.18 L 150.12 178.90 C 149.31 178.65 148.45 179.11 148.21 179.92 C 147.96 180.73 148.42 181.59 149.23 181.83 Z M 150.23 182.11 L 151.19 182.37 C 151.99 182.59 152.82 182.11 153.04 181.31 C 153.26 180.50 152.78 179.67 151.98 179.45 L 151.02 179.19 C 150.21 178.97 149.38 179.45 149.16 180.26 C 148.95 181.06 149.42 181.89 150.23 182.11 Z M 151.21 182.35 L 152.09 182.58 C 152.89 182.79 153.70 182.31 153.90 181.51 C 154.11 180.72 153.63 179.91 152.84 179.70 L 151.95 179.47 C 151.16 179.27 150.35 179.74 150.14 180.54 C 149.94 181.33 150.41 182.14 151.21 182.35 Z"
      fill="black"
      fill-rule="nonzero" /></svg>