<svg xmlns="http://www.w3.org/2000/svg" width="300" height="300" viewBox="0 0 300 300">
<path d="M 125.57 124.24 L 126.47 124.75 C 127.18 125.16 128.07 124.91 128.48 124.21 C 128.88 123.50 128.63 122.60 127.93 122.20 L 127.03 121.69 C 126.33 121.29 125.43 121.53 125.03 122.24 C 124.62 122.94 124.87 123.84 125.57 124.24 Z M 126.37 124.72 L 127.18 125.25 C 127.86 125.71 128.79 125.53 129.24 124.84 C 129.70 124.16 129.52 123.23 128.83 122.77 L 128.03 122.24 C 127.34 121.78 126.42 121.97 125.96 122.65 C 125.50 123.34 125.69 124.26 126.37 124.72 Z M 127.02 125.12 L 127.74 125.77 C 128.35 126.31 129.29 126.26 129.83 125.65 C 130.38 125.04 130.32 124.10 129.71 123.56 L 128.99 122.91 C 128.38 122.36 127.44 122.42 126.90 123.03 C 126.35 123.64 126.41 124.57 127.02 125.12 Z M 127.69 125.67 L 128.39 126.39 C 128.95 126.96 129.87 126.97 130.44 126.41 C 131.01 125.85 131.02 124.93 130.46 124.36 L 129.76 123.65 C 129.20 123.08 128.29 123.07 127.72 123.63 C 127.15 124.19 127.14 125.10 127.69 125.67 Z M 128.41 126.38 L 129.11 127.08 C 129.66 127.64 130.57 127.64 131.13 127.09 C 131.69 126.53 131.69 125.62 131.13 125.06 L 130.44 124.36 C 129.88 123.80 128.98 123.80 128.42 124.36 C 127.86 124.92 127.85 125.82 128.41 126.38 Z M 129.11 127.08 L 129.78 127.74 C 130.33 128.30 131.24 128.29 131.79 127.73 C 132.35 127.18 132.35 126.27 131.79 125.72 L 131.13 125.06 C 130.57 124.50 129.66 124.51 129.11 125.07 C 128.55 125.63 128.56 126.53 129.11 127.08 Z"
      fill="black"
      fill-rule="nonzero" /><path d="M 138.21 125.70 L 139.19 124.82 C 139.79 124.28 139.84 123.36 139.30 122.77 C 138.77 122.17 137.85 122.12 137.25 122.66 L 136.27 123.54 C 135.67 124.08 135.62 125.00 136.16 125.59 C 136.69 126.19 137.61 126.24 138.21 125.70 Z M 139.16 124.89 L 139.62 124.52 C 140.26 124.00 140.35 123.07 139.83 122.43 C 139.32 121.79 138.38 121.69 137.74 122.21 L 137.28 122.58 C 136.64 123.10 136.55 124.04 137.07 124.68 C 137.59 125.32 138.52 125.41 139.16 124.89 Z M 137.55 122.36 L 136.96 123.02 C 136.41 123.64 136.46 124.59 137.08 125.15 C 137.70 125.71 138.65 125.66 139.21 125.03 L 139.80 124.37 C 140.36 123.75 140.31 122.80 139.68 122.24 C 139.06 121.69 138.11 121.74 137.55 122.36 Z M 136.99 122.99 L 136.24 123.78 C 135.67 124.39 135.69 125.34 136.29 125.92 C 136.90 126.49 137.85 126.46 138.43 125.86 L 139.18 125.07 C 139.75 124.46 139.73 123.51 139.12 122.93 C 138.52 122.36 137.56 122.39 136.99 122.99 Z M 136.24 123.79 L 135.57 124.50 C 135.00 125.10 135.02 126.05 135.63 126.63 C 136.23 127.20 137.18 127.17 137.75 126.57 L 138.43 125.86 C 139.00 125.25 138.97 124.30 138.37 123.73 C 137.76 123.16 136.81 123.19 136.24 123.79 Z M 135.57 124.50 L 134.87 125.24 C 134.30 125.85 134.32 126.80 134.93 127.37 C 135.53 127.94 136.48 127.91 137.05 127.31 L 137.75 126.56 C 138.32 125.96 138.29 125.01 137.69 124.44 C 137.09 123.87 136.14 123.90 135.57 124.50 Z M 134.87 125.24 L 134.16 125.99 C 133.59 126.59 133.61 127.54 134.21 128.11 C 134.81 128.68 135.76 128.65 136.33 128.06 L 137.04 127.31 C 137.61 126.71 137.59 125.76 136.99 125.19 C 136.39 124.62 135.44 124.65 134.87 125.24 Z M 134.17 125.99 L 133.46 126.73 C 132.89 127.32 132.90 128.27 133.50 128.84 C 134.09 129.41 135.04 129.39 135.61 128.80 L 136.32 128.06 C 136.89 127.47 136.88 126.52 136.28 125.95 C 135.69 125.38 134.74 125.39 134.17 125.99 Z M 133.48 126.72 L 132.71 127.49 C 132.13 128.07 132.14 129.02 132.72 129.59 C 133.30 130.17 134.24 130.17 134.82 129.58 L 135.59 128.81 C 136.17 128.23 136.16 127.28 135.58 126.71 C 135.00 126.13 134.05 126.13 133.48 126.72 Z M 132.73 127.48 L 132.05 128.15 C 131.47 128.72 131.46 129.66 132.04 130.24 C 132.61 130.82 133.54 130.83 134.13 130.26 L 134.80 129.59 C 135.38 129.02 135.39 128.08 134.82 127.50 C 134.25 126.92 133.31 126.91 132.73 127.48 Z M 132.05 128.16 L 131.38 128.83 C 130.81 129.41 130.81 130.34 131.38 130.91 C 131.96 131.49 132.89 131.49 133.47 130.91 L 134.13 130.24 C 134.71 129.67 134.70 128.73 134.13 128.16 C 133.55 127.59 132.62 127.59 132.05 128.16 Z M 131.37 128.85 L 130.67 129.56 C 130.10 130.15 130.12 131.08 130.70 131.65 C 131.29 132.21 132.22 132.20 132.78 131.61 L 133.48 130.90 C 134.05 130.31 134.03 129.38 133.45 128.81 C 132.87 128.25 131.93 128.26 131.37 128.85 Z M 130.67 129.55 L 130.02 130.22 C 129.45 130.80 129.45 131.74 130.04 132.31 C 130.62 132.88 131.55 132.87 132.13 132.29 L 132.78 131.62 C 133.35 131.04 133.35 130.11 132.76 129.54 C 132.18 128.96 131.25 128.97 130.67 129.55 Z M 130.03 130.19 L 129.30 130.91 C 128.71 131.48 128.70 132.42 129.28 133.01 C 129.85 133.60 130.80 133.61 131.38 133.03 L 132.11 132.32 C 132.70 131.74 132.71 130.80 132.13 130.22 C 131.56 129.63 130.62 129.62 130.03 130.19 Z M 129.31 130.88 L 128.46 131.69 C 127.86 132.26 127.84 133.21 128.41 133.81 C 128.98 134.41 129.93 134.43 130.53 133.86 L 131.37 133.06 C 131.97 132.48 132.00 131.54 131.43 130.94 C 130.86 130.34 129.91 130.31 129.31 130.88 Z M 128.39 131.75 L 127.69 132.50 C 127.12 133.10 127.15 134.06 127.76 134.63 C 128.37 135.20 129.32 135.16 129.89 134.56 L 130.59 133.81 C 131.16 133.20 131.13 132.25 130.52 131.68 C 129.92 131.11 128.96 131.14 128.39 131.75 Z M 127.28 133.48 L 127.26 133.97 C 127.24 134.81 127.90 135.51 128.73 135.53 C 129.57 135.56 130.27 134.90 130.29 134.06 L 130.31 133.57 C 130.33 132.73 129.67 132.04 128.84 132.01 C 128.00 131.99 127.30 132.64 127.28 133.48 Z M 128.89 135.53 L 130.02 135.45 C 130.86 135.38 131.48 134.65 131.42 133.81 C 131.35 132.98 130.62 132.35 129.78 132.42 L 128.66 132.50 C 127.82 132.57 127.20 133.30 127.26 134.14 C 127.33 134.97 128.06 135.60 128.89 135.53 Z M 130.21 135.42 L 131.11 135.24 C 131.93 135.07 132.46 134.27 132.29 133.44 C 132.12 132.62 131.32 132.09 130.50 132.26 L 129.60 132.44 C 128.77 132.61 128.24 133.41 128.41 134.24 C 128.58 135.06 129.38 135.59 130.21 135.42 Z M 131.16 135.23 L 132.18 134.98 C 133.00 134.79 133.50 133.96 133.31 133.15 C 133.11 132.33 132.29 131.82 131.47 132.02 L 130.45 132.27 C 129.63 132.46 129.13 133.29 129.32 134.10 C 129.52 134.92 130.34 135.42 131.16 135.23 Z M 132.21 134.98 L 133.22 134.71 C 134.03 134.50 134.52 133.66 134.31 132.85 C 134.09 132.04 133.26 131.55 132.44 131.76 L 131.44 132.03 C 130.62 132.24 130.14 133.08 130.35 133.89 C 130.57 134.70 131.40 135.19 132.21 134.98 Z M 133.24 134.71 L 134.19 134.44 C 135.00 134.22 135.47 133.38 135.25 132.57 C 135.02 131.75 134.18 131.28 133.37 131.51 L 132.42 131.77 C 131.61 131.99 131.14 132.83 131.36 133.65 C 131.59 134.46 132.43 134.93 133.24 134.71 Z M 134.20 134.44 L 135.17 134.16 C 135.98 133.93 136.45 133.08 136.22 132.27 C 135.99 131.46 135.14 131.00 134.33 131.23 L 133.36 131.51 C 132.55 131.74 132.08 132.59 132.31 133.39 C 132.55 134.20 133.39 134.67 134.20 134.44 Z M 135.18 134.16 L 136.17 133.87 C 136.98 133.63 137.45 132.79 137.21 131.98 C 136.97 131.17 136.13 130.71 135.32 130.94 L 134.33 131.23 C 133.52 131.47 133.05 132.31 133.29 133.12 C 133.53 133.93 134.37 134.39 135.18 134.16 Z M 136.17 133.86 L 137.17 133.57 C 137.97 133.34 138.44 132.49 138.20 131.69 C 137.96 130.88 137.12 130.42 136.31 130.65 L 135.32 130.94 C 134.51 131.18 134.05 132.03 134.29 132.83 C 134.52 133.64 135.37 134.10 136.17 133.86 Z M 137.17 133.57 L 138.14 133.29 C 138.94 133.05 139.40 132.21 139.17 131.40 C 138.93 130.60 138.09 130.14 137.28 130.37 L 136.31 130.66 C 135.51 130.89 135.05 131.74 135.28 132.54 C 135.52 133.35 136.36 133.81 137.17 133.57 Z M 138.14 133.28 L 139.06 133.01 C 139.86 132.77 140.32 131.93 140.08 131.13 C 139.84 130.33 139.00 129.87 138.20 130.11 L 137.28 130.38 C 136.48 130.61 136.02 131.45 136.26 132.26 C 136.49 133.06 137.33 133.52 138.14 133.28 Z M 139.05 133.00 L 140.09 132.70 C 140.88 132.46 141.34 131.63 141.11 130.83 C 140.87 130.03 140.03 129.58 139.24 129.81 L 138.20 130.11 C 137.41 130.35 136.95 131.19 137.18 131.98 C 137.42 132.78 138.26 133.24 139.05 133.00 Z M 140.08 132.69 L 141.03 132.41 C 141.82 132.18 142.27 131.35 142.04 130.56 C 141.81 129.77 140.98 129.31 140.19 129.55 L 139.24 129.82 C 138.45 130.05 138.00 130.88 138.23 131.67 C 138.46 132.46 139.29 132.92 140.08 132.69 Z M 141.02 132.40 L 141.92 132.14 C 142.71 131.91 143.16 131.09 142.94 130.31 C 142.71 129.53 141.89 129.07 141.11 129.30 L 140.20 129.56 C 139.42 129.78 138.96 130.60 139.19 131.38 C 139.41 132.17 140.23 132.62 141.02 132.40 Z M 141.91 132.12 L 142.88 131.85 C 143.66 131.63 144.11 130.83 143.90 130.05 C 143.68 129.28 142.88 128.82 142.10 129.04 L 141.13 129.31 C 140.35 129.53 139.90 130.33 140.11 131.11 C 140.33 131.88 141.13 132.34 141.91 132.12 Z M 142.87 131.84 L 143.62 131.63 C 144.39 131.42 144.84 130.63 144.63 129.86 C 144.42 129.09 143.63 128.64 142.86 128.85 L 142.11 129.05 C 141.34 129.26 140.89 130.06 141.10 130.83 C 141.31 131.59 142.10 132.05 142.87 131.84 Z"
      fill="black"
      fill-rule="nonzero" /><path d="M 124.94 139.13 L 125.06 140.09 C 125.15 140.90 125.89 141.49 126.71 141.39 C 127.53 141.30 128.12 140.56 128.02 139.74 L 127.91 138.78 C 127.81 137.96 127.07 137.38 126.25 137.47 C 125.43 137.57 124.85 138.31 124.94 139.13 Z M 125.09 140.30 L 125.34 141.24 C 125.56 142.04 126.38 142.52 127.18 142.30 C 127.98 142.09 128.46 141.27 128.24 140.47 L 127.99 139.52 C 127.77 138.72 126.95 138.25 126.15 138.46 C 125.35 138.68 124.87 139.50 125.09 140.30 Z M 125.40 141.43 L 125.76 142.29 C 126.08 143.05 126.96 143.42 127.73 143.10 C 128.49 142.78 128.86 141.89 128.54 141.13 L 128.18 140.27 C 127.86 139.51 126.98 139.15 126.21 139.47 C 125.45 139.79 125.08 140.67 125.40 141.43 Z M 125.78 142.33 L 126.24 143.36 C 126.59 144.11 127.48 144.45 128.23 144.11 C 128.99 143.76 129.33 142.87 128.98 142.12 L 128.52 141.09 C 128.18 140.33 127.28 139.99 126.53 140.34 C 125.77 140.68 125.44 141.57 125.78 142.33 Z M 126.24 143.33 L 126.63 144.24 C 126.96 145.00 127.85 145.35 128.61 145.02 C 129.37 144.69 129.72 143.81 129.39 143.05 L 128.99 142.14 C 128.66 141.38 127.78 141.03 127.02 141.36 C 126.25 141.69 125.91 142.57 126.24 143.33 Z M 126.63 144.22 L 127.03 145.18 C 127.35 145.94 128.22 146.30 128.99 145.98 C 129.75 145.66 130.11 144.79 129.79 144.02 L 129.39 143.07 C 129.07 142.31 128.19 141.95 127.43 142.26 C 126.67 142.58 126.31 143.46 126.63 144.22 Z M 127.03 145.16 L 127.40 146.08 C 127.71 146.84 128.58 147.21 129.34 146.90 C 130.11 146.59 130.47 145.72 130.16 144.95 L 129.79 144.04 C 129.48 143.28 128.61 142.91 127.85 143.22 C 127.08 143.53 126.72 144.40 127.03 145.16 Z M 127.40 146.06 L 127.81 147.09 C 128.11 147.85 128.97 148.22 129.73 147.92 C 130.49 147.62 130.87 146.76 130.56 146.00 L 130.16 144.97 C 129.86 144.21 129.00 143.84 128.23 144.14 C 127.47 144.44 127.10 145.30 127.40 146.06 Z M 127.81 147.06 L 128.15 147.94 C 128.44 148.70 129.28 149.08 130.04 148.79 C 130.80 148.51 131.18 147.66 130.89 146.90 L 130.56 146.02 C 130.27 145.26 129.42 144.88 128.67 145.17 C 127.91 145.46 127.53 146.30 127.81 147.06 Z M 128.15 147.92 L 128.47 148.80 C 128.75 149.55 129.58 149.94 130.33 149.67 C 131.09 149.40 131.48 148.57 131.21 147.81 L 130.89 146.93 C 130.61 146.18 129.78 145.78 129.03 146.06 C 128.27 146.33 127.88 147.16 128.15 147.92 Z M 128.48 148.79 L 128.81 149.72 C 129.08 150.47 129.91 150.87 130.66 150.60 C 131.41 150.33 131.80 149.51 131.53 148.76 L 131.20 147.82 C 130.93 147.07 130.11 146.68 129.36 146.95 C 128.61 147.21 128.21 148.04 128.48 148.79 Z M 128.83 149.74 L 129.17 150.66 C 129.44 151.41 130.27 151.79 131.01 151.51 C 131.75 151.24 132.13 150.41 131.86 149.67 L 131.52 148.75 C 131.24 148.00 130.42 147.62 129.68 147.90 C 128.93 148.17 128.55 148.99 128.83 149.74 Z M 129.18 150.68 L 129.54 151.62 C 129.82 152.36 130.64 152.73 131.38 152.45 C 132.12 152.17 132.49 151.34 132.21 150.60 L 131.85 149.66 C 131.57 148.92 130.74 148.55 130.01 148.83 C 129.27 149.11 128.90 149.94 129.18 150.68 Z M 129.54 151.62 L 129.71 152.07 C 129.99 152.80 130.82 153.17 131.56 152.89 C 132.29 152.61 132.66 151.78 132.38 151.05 L 132.20 150.60 C 131.92 149.86 131.10 149.50 130.36 149.78 C 129.63 150.06 129.26 150.89 129.54 151.62 Z"
      fill="black"
      fill-rule="nonzero" /><path d="M 130.54 143.01 L 131.54 143.03 C 132.36 143.05 133.03 142.41 133.05 141.59 C 133.07 140.77 132.43 140.10 131.61 140.08 L 130.62 140.05 C 129.80 140.03 129.12 140.68 129.10 141.49 C 129.08 142.31 129.73 142.99 130.54 143.01 Z M 131.56 143.05 L 132.56 143.06 C 133.39 143.07 134.07 142.41 134.07 141.58 C 134.08 140.76 133.42 140.08 132.60 140.07 L 131.59 140.06 C 130.77 140.05 130.09 140.71 130.08 141.54 C 130.07 142.36 130.73 143.04 131.56 143.05 Z M 132.61 143.07 L 133.59 143.04 C 134.42 143.02 135.08 142.34 135.06 141.51 C 135.04 140.68 134.35 140.02 133.53 140.04 L 132.55 140.06 C 131.72 140.08 131.06 140.77 131.08 141.60 C 131.10 142.43 131.79 143.08 132.61 143.07 Z M 133.71 143.03 L 134.72 142.93 C 135.55 142.84 136.14 142.11 136.06 141.28 C 135.98 140.46 135.24 139.86 134.42 139.95 L 133.41 140.05 C 132.58 140.14 131.99 140.87 132.07 141.70 C 132.16 142.52 132.89 143.12 133.71 143.03 Z M 134.88 142.90 L 135.80 142.71 C 136.61 142.54 137.13 141.75 136.96 140.94 C 136.79 140.13 136.00 139.61 135.19 139.78 L 134.27 139.97 C 133.46 140.14 132.94 140.93 133.11 141.74 C 133.28 142.55 134.07 143.07 134.88 142.90 Z M 135.88 142.69 L 136.86 142.44 C 137.66 142.23 138.14 141.41 137.93 140.61 C 137.72 139.81 136.90 139.33 136.10 139.54 L 135.12 139.80 C 134.32 140.01 133.84 140.82 134.05 141.62 C 134.26 142.42 135.08 142.90 135.88 142.69 Z M 136.85 142.44 L 137.84 142.18 C 138.64 141.98 139.12 141.16 138.91 140.36 C 138.70 139.56 137.89 139.08 137.09 139.29 L 136.11 139.54 C 135.31 139.75 134.83 140.56 135.03 141.36 C 135.24 142.16 136.06 142.64 136.85 142.44 Z M 137.81 142.19 L 138.78 141.96 C 139.58 141.77 140.07 140.96 139.88 140.16 C 139.69 139.36 138.89 138.86 138.09 139.05 L 137.12 139.28 C 136.32 139.47 135.82 140.28 136.01 141.08 C 136.20 141.88 137.01 142.38 137.81 142.19 Z M 138.75 141.96 L 139.75 141.74 C 140.55 141.56 141.06 140.76 140.88 139.96 C 140.71 139.16 139.91 138.65 139.11 138.83 L 138.11 139.05 C 137.31 139.23 136.80 140.02 136.98 140.83 C 137.16 141.63 137.95 142.13 138.75 141.96 Z M 139.73 141.74 L 140.73 141.53 C 141.53 141.36 142.05 140.58 141.89 139.78 C 141.72 138.98 140.94 138.46 140.13 138.62 L 139.13 138.83 C 138.33 139.00 137.81 139.78 137.98 140.58 C 138.14 141.39 138.93 141.90 139.73 141.74 Z M 140.70 141.53 L 141.69 141.35 C 142.49 141.20 143.02 140.43 142.88 139.63 C 142.73 138.83 141.96 138.29 141.15 138.44 L 140.17 138.62 C 139.36 138.77 138.83 139.54 138.98 140.34 C 139.13 141.15 139.90 141.68 140.70 141.53 Z M 141.64 141.36 L 142.61 141.21 C 143.41 141.09 143.97 140.34 143.85 139.54 C 143.73 138.73 142.98 138.18 142.18 138.29 L 141.21 138.44 C 140.40 138.56 139.84 139.31 139.96 140.11 C 140.08 140.92 140.83 141.47 141.64 141.36 Z M 142.54 141.22 L 143.56 141.11 C 144.37 141.03 144.95 140.31 144.87 139.50 C 144.79 138.70 144.07 138.11 143.26 138.19 L 142.25 138.29 C 141.44 138.37 140.85 139.09 140.93 139.90 C 141.01 140.71 141.73 141.30 142.54 141.22 Z M 143.50 141.12 L 144.49 141.06 C 145.30 141.01 145.92 140.31 145.87 139.51 C 145.82 138.70 145.13 138.08 144.32 138.13 L 143.32 138.19 C 142.52 138.23 141.90 138.93 141.95 139.74 C 141.99 140.55 142.69 141.16 143.50 141.12 Z M 144.45 141.05 L 145.45 141.02 C 146.26 141.00 146.89 140.33 146.87 139.52 C 146.84 138.71 146.17 138.08 145.36 138.10 L 144.36 138.13 C 143.56 138.15 142.92 138.83 142.94 139.64 C 142.97 140.44 143.64 141.08 144.45 141.05 Z M 145.39 141.02 L 146.43 141.03 C 147.23 141.03 147.89 140.39 147.90 139.58 C 147.90 138.77 147.26 138.12 146.45 138.11 L 145.42 138.10 C 144.61 138.10 143.95 138.75 143.95 139.55 C 143.94 140.36 144.59 141.02 145.39 141.02 Z M 146.30 141.02 L 147.24 141.11 C 148.04 141.19 148.75 140.60 148.83 139.80 C 148.90 139.00 148.32 138.29 147.52 138.21 L 146.58 138.12 C 145.78 138.04 145.07 138.63 144.99 139.43 C 144.91 140.23 145.50 140.94 146.30 141.02 Z M 146.92 141.04 L 147.88 141.36 C 148.64 141.61 149.46 141.20 149.72 140.44 C 149.97 139.68 149.56 138.86 148.80 138.61 L 147.84 138.28 C 147.08 138.03 146.26 138.44 146.00 139.20 C 145.75 139.96 146.16 140.78 146.92 141.04 Z M 147.24 140.93 L 147.84 141.64 C 148.37 142.25 149.28 142.32 149.89 141.79 C 150.50 141.27 150.57 140.35 150.05 139.74 L 149.44 139.04 C 148.92 138.43 148.00 138.36 147.39 138.88 C 146.78 139.40 146.71 140.32 147.24 140.93 Z M 147.52 141.01 L 147.74 141.97 C 147.92 142.75 148.70 143.24 149.48 143.07 C 150.27 142.89 150.76 142.11 150.58 141.33 L 150.37 140.37 C 150.19 139.59 149.41 139.09 148.63 139.27 C 147.84 139.45 147.35 140.23 147.52 141.01 Z M 147.70 141.58 L 147.65 142.62 C 147.62 143.43 148.25 144.11 149.05 144.15 C 149.86 144.18 150.54 143.55 150.58 142.75 L 150.62 141.71 C 150.66 140.90 150.03 140.22 149.22 140.18 C 148.42 140.15 147.73 140.78 147.70 141.58 Z M 147.70 142.27 L 147.44 143.17 C 147.21 143.95 147.66 144.77 148.44 145.00 C 149.22 145.23 150.04 144.78 150.27 144.00 L 150.53 143.10 C 150.76 142.31 150.31 141.50 149.53 141.27 C 148.75 141.04 147.93 141.49 147.70 142.27 Z M 147.53 142.91 L 147.07 143.82 C 146.70 144.55 146.99 145.44 147.72 145.81 C 148.45 146.18 149.34 145.89 149.72 145.16 L 150.18 144.26 C 150.55 143.53 150.26 142.63 149.52 142.26 C 148.79 141.89 147.90 142.18 147.53 142.91 Z M 147.11 143.73 L 146.59 144.61 C 146.17 145.32 146.41 146.23 147.12 146.65 C 147.83 147.07 148.75 146.83 149.16 146.12 L 149.68 145.25 C 150.10 144.54 149.86 143.62 149.15 143.21 C 148.44 142.79 147.52 143.02 147.11 143.73 Z M 146.60 144.59 L 146.06 145.47 C 145.63 146.18 145.86 147.10 146.56 147.53 C 147.27 147.96 148.19 147.73 148.62 147.03 L 149.15 146.15 C 149.58 145.44 149.36 144.52 148.66 144.09 C 147.95 143.66 147.03 143.88 146.60 144.59 Z M 146.07 145.45 L 145.54 146.30 C 145.10 147.00 145.31 147.93 146.01 148.37 C 146.71 148.81 147.63 148.60 148.08 147.90 L 148.61 147.05 C 149.05 146.35 148.84 145.42 148.14 144.98 C 147.44 144.54 146.51 144.75 146.07 145.45 Z M 145.55 146.28 L 144.98 147.15 C 144.52 147.84 144.72 148.77 145.41 149.23 C 146.11 149.68 147.04 149.49 147.49 148.79 L 148.06 147.92 C 148.52 147.23 148.32 146.30 147.63 145.84 C 146.93 145.39 146.00 145.58 145.55 146.28 Z M 144.99 147.13 L 144.45 147.93 C 143.99 148.62 144.17 149.55 144.86 150.02 C 145.55 150.48 146.49 150.30 146.95 149.61 L 147.48 148.81 C 147.95 148.12 147.76 147.19 147.07 146.72 C 146.38 146.26 145.45 146.44 144.99 147.13 Z M 144.44 147.94 L 143.92 148.73 C 143.47 149.43 143.66 150.36 144.36 150.82 C 145.05 151.27 145.98 151.08 146.44 150.38 L 146.96 149.59 C 147.41 148.90 147.22 147.96 146.52 147.51 C 145.83 147.05 144.90 147.25 144.44 147.94 Z M 143.91 148.76 L 143.38 149.60 C 142.94 150.31 143.16 151.23 143.86 151.67 C 144.56 152.11 145.49 151.90 145.93 151.19 L 146.45 150.35 C 146.89 149.65 146.68 148.72 145.98 148.29 C 145.27 147.85 144.35 148.06 143.91 148.76 Z M 143.37 149.63 L 142.84 150.53 C 142.41 151.24 142.65 152.16 143.36 152.58 C 144.07 153.01 144.99 152.77 145.41 152.06 L 145.94 151.16 C 146.37 150.45 146.13 149.53 145.42 149.11 C 144.71 148.69 143.79 148.92 143.37 149.63 Z M 142.82 150.56 L 142.32 151.44 C 141.91 152.16 142.17 153.07 142.88 153.48 C 143.60 153.89 144.51 153.64 144.92 152.92 L 145.42 152.04 C 145.83 151.32 145.58 150.41 144.86 150.00 C 144.14 149.59 143.23 149.84 142.82 150.56 Z M 142.32 151.44 L 141.83 152.31 C 141.42 153.03 141.67 153.94 142.38 154.35 C 143.10 154.76 144.01 154.51 144.42 153.79 L 144.91 152.92 C 145.32 152.21 145.07 151.30 144.36 150.89 C 143.64 150.48 142.73 150.73 142.32 151.44 Z M 141.85 152.27 L 141.33 153.12 C 140.90 153.82 141.12 154.74 141.82 155.17 C 142.52 155.60 143.44 155.38 143.87 154.68 L 144.39 153.84 C 144.82 153.14 144.60 152.22 143.90 151.79 C 143.20 151.36 142.28 151.57 141.85 152.27 Z M 141.38 153.06 L 140.81 153.89 C 140.34 154.57 140.51 155.49 141.19 155.95 C 141.86 156.42 142.78 156.25 143.24 155.57 L 143.82 154.74 C 144.28 154.07 144.11 153.15 143.44 152.68 C 142.77 152.22 141.84 152.39 141.38 153.06 Z M 140.84 153.86 L 140.26 154.65 C 139.78 155.30 139.92 156.22 140.57 156.70 C 141.23 157.18 142.15 157.05 142.63 156.39 L 143.21 155.61 C 143.69 154.95 143.55 154.03 142.90 153.55 C 142.25 153.07 141.33 153.21 140.84 153.86 Z M 140.27 154.64 L 140.22 154.71 C 139.74 155.36 139.87 156.28 140.51 156.76 C 141.16 157.25 142.08 157.12 142.56 156.47 L 142.62 156.40 C 143.10 155.75 142.97 154.83 142.32 154.35 C 141.68 153.86 140.76 154.00 140.27 154.64 Z"
      fill="black"
      fill-rule="nonzero" /><path d="M 132.81 132.63 L 132.92 133.63 C 133.00 134.44 133.73 135.03 134.54 134.94 C 135.34 134.85 135.93 134.13 135.84 133.32 L 135.74 132.32 C 135.65 131.51 134.92 130.92 134.12 131.01 C 133.31 131.09 132.72 131.82 132.81 132.63 Z M 132.89 133.58 L 132.96 134.57 C 133.02 135.39 133.73 136.01 134.56 135.95 C 135.38 135.89 136.00 135.18 135.94 134.35 L 135.87 133.37 C 135.81 132.54 135.10 131.92 134.27 131.98 C 133.45 132.04 132.83 132.76 132.89 133.58 Z M 132.94 134.49 L 132.96 135.48 C 132.98 136.31 133.67 136.97 134.50 136.95 C 135.34 136.94 136.00 136.25 135.98 135.41 L 135.96 134.43 C 135.94 133.60 135.25 132.93 134.42 132.95 C 133.59 132.97 132.93 133.66 132.94 134.49 Z M 132.96 135.45 L 132.97 136.43 C 132.97 137.26 133.64 137.94 134.47 137.93 C 135.31 137.93 135.98 137.26 135.98 136.43 L 135.98 135.44 C 135.98 134.61 135.30 133.94 134.47 133.94 C 133.64 133.94 132.96 134.62 132.96 135.45 Z M 132.97 136.43 L 132.97 137.43 C 132.97 138.26 133.64 138.93 134.47 138.93 C 135.30 138.93 135.98 138.26 135.98 137.43 L 135.98 136.43 C 135.98 135.60 135.30 134.93 134.47 134.93 C 133.64 134.93 132.97 135.60 132.97 136.43 Z M 132.97 137.43 L 132.97 138.44 C 132.97 139.27 133.65 139.94 134.47 139.94 C 135.30 139.94 135.97 139.27 135.97 138.44 L 135.97 137.43 C 135.97 136.60 135.30 135.93 134.47 135.93 C 133.65 135.93 132.97 136.60 132.97 137.43 Z M 132.98 138.44 L 132.98 139.43 C 132.98 140.25 133.65 140.92 134.47 140.92 C 135.30 140.92 135.96 140.25 135.96 139.43 L 135.96 138.44 C 135.96 137.62 135.30 136.95 134.47 136.95 C 133.65 136.95 132.98 137.62 132.98 138.44 Z M 132.99 139.43 L 132.99 140.46 C 132.99 141.28 133.65 141.95 134.47 141.95 C 135.29 141.95 135.96 141.28 135.96 140.46 L 135.96 139.43 C 135.96 138.61 135.29 137.94 134.47 137.94 C 133.65 137.94 132.99 138.61 132.99 139.43 Z M 133.00 140.46 L 132.99 141.46 C 132.99 142.28 133.65 142.94 134.47 142.94 C 135.28 142.94 135.94 142.28 135.95 141.47 L 135.95 140.47 C 135.95 139.65 135.29 138.99 134.48 138.99 C 133.66 138.98 133.00 139.64 133.00 140.46 Z M 133.00 141.44 L 132.98 142.44 C 132.97 143.25 133.61 143.92 134.42 143.94 C 135.23 143.95 135.90 143.31 135.92 142.50 L 135.94 141.49 C 135.95 140.68 135.31 140.01 134.50 140.00 C 133.69 139.98 133.02 140.63 133.00 141.44 Z M 132.99 142.39 L 132.94 143.38 C 132.90 144.19 133.52 144.87 134.33 144.91 C 135.13 144.96 135.82 144.34 135.86 143.53 L 135.91 142.54 C 135.95 141.74 135.33 141.05 134.53 141.01 C 133.72 140.97 133.03 141.59 132.99 142.39 Z M 132.95 143.33 L 132.86 144.30 C 132.79 145.10 133.38 145.81 134.18 145.88 C 134.98 145.95 135.69 145.36 135.76 144.56 L 135.85 143.58 C 135.92 142.78 135.33 142.08 134.53 142.01 C 133.73 141.93 133.02 142.52 132.95 143.33 Z M 132.87 144.27 L 132.75 145.28 C 132.66 146.08 133.23 146.80 134.03 146.89 C 134.82 146.98 135.54 146.41 135.64 145.61 L 135.75 144.60 C 135.84 143.80 135.27 143.08 134.48 142.99 C 133.68 142.90 132.96 143.47 132.87 144.27 Z M 132.76 145.26 L 132.64 146.22 C 132.54 147.02 133.10 147.74 133.89 147.84 C 134.68 147.94 135.41 147.38 135.51 146.59 L 135.63 145.63 C 135.73 144.84 135.17 144.11 134.38 144.01 C 133.59 143.91 132.86 144.47 132.76 145.26 Z M 132.65 146.22 L 132.51 147.22 C 132.41 148.00 132.96 148.73 133.75 148.83 C 134.54 148.94 135.26 148.38 135.37 147.59 L 135.50 146.59 C 135.61 145.81 135.05 145.08 134.26 144.98 C 133.47 144.87 132.75 145.43 132.65 146.22 Z M 132.52 147.21 L 132.39 148.20 C 132.28 148.98 132.83 149.71 133.62 149.81 C 134.40 149.92 135.13 149.37 135.23 148.58 L 135.36 147.60 C 135.47 146.81 134.92 146.09 134.13 145.98 C 133.35 145.88 132.62 146.43 132.52 147.21 Z"
      fill="black"
      fill-rule="nonzero" /><path d="M 138.49 132.70 L 138.25 133.67 C 138.05 134.47 138.54 135.28 139.33 135.48 C 140.13 135.68 140.94 135.20 141.15 134.40 L 141.39 133.43 C 141.59 132.63 141.10 131.82 140.30 131.62 C 139.50 131.42 138.69 131.90 138.49 132.70 Z M 138.24 133.69 L 138.02 134.64 C 137.83 135.44 138.33 136.25 139.13 136.44 C 139.94 136.63 140.74 136.13 140.93 135.32 L 141.16 134.38 C 141.34 133.57 140.84 132.77 140.04 132.58 C 139.23 132.39 138.43 132.89 138.24 133.69 Z M 138.01 134.68 L 137.81 135.66 C 137.65 136.47 138.17 137.26 138.98 137.42 C 139.79 137.59 140.58 137.06 140.75 136.25 L 140.95 135.28 C 141.11 134.46 140.58 133.67 139.77 133.51 C 138.96 133.35 138.17 133.87 138.01 134.68 Z M 137.80 135.71 L 137.64 136.66 C 137.51 137.48 138.06 138.25 138.88 138.38 C 139.70 138.52 140.47 137.96 140.60 137.14 L 140.76 136.20 C 140.89 135.38 140.34 134.61 139.52 134.47 C 138.70 134.34 137.93 134.89 137.80 135.71 Z M 137.64 136.70 L 137.50 137.69 C 137.39 138.51 137.97 139.27 138.79 139.38 C 139.61 139.49 140.36 138.91 140.48 138.09 L 140.61 137.10 C 140.72 136.28 140.15 135.53 139.32 135.42 C 138.50 135.31 137.75 135.88 137.64 136.70 Z M 137.50 137.72 L 137.38 138.80 C 137.29 139.62 137.88 140.36 138.70 140.45 C 139.52 140.55 140.27 139.95 140.36 139.13 L 140.48 138.06 C 140.57 137.24 139.98 136.49 139.16 136.40 C 138.33 136.31 137.59 136.90 137.50 137.72 Z M 137.38 138.82 L 137.28 139.85 C 137.20 140.67 137.80 141.40 138.63 141.48 C 139.45 141.56 140.18 140.96 140.26 140.13 L 140.36 139.11 C 140.44 138.28 139.84 137.55 139.01 137.47 C 138.19 137.39 137.46 138.00 137.38 138.82 Z M 137.28 139.86 L 137.19 140.86 C 137.12 141.68 137.73 142.41 138.56 142.48 C 139.38 142.55 140.11 141.94 140.18 141.12 L 140.26 140.12 C 140.34 139.29 139.73 138.57 138.90 138.49 C 138.08 138.42 137.35 139.03 137.28 139.86 Z M 137.19 140.87 L 137.11 141.88 C 137.04 142.71 137.66 143.43 138.48 143.50 C 139.31 143.56 140.03 142.95 140.10 142.12 L 140.18 141.11 C 140.25 140.28 139.63 139.56 138.81 139.50 C 137.98 139.43 137.26 140.04 137.19 140.87 Z M 137.11 141.89 L 137.04 142.87 C 136.98 143.70 137.59 144.41 138.42 144.48 C 139.24 144.54 139.96 143.92 140.02 143.09 L 140.10 142.11 C 140.16 141.29 139.54 140.57 138.71 140.51 C 137.89 140.45 137.17 141.07 137.11 141.89 Z M 137.04 142.89 L 136.97 143.87 C 136.92 144.69 137.55 145.40 138.37 145.46 C 139.20 145.51 139.91 144.88 139.96 144.06 L 140.02 143.08 C 140.08 142.25 139.45 141.54 138.63 141.49 C 137.80 141.43 137.09 142.06 137.04 142.89 Z M 136.97 143.97 L 136.98 145.00 C 136.98 145.82 137.66 146.49 138.48 146.48 C 139.31 146.48 139.98 145.80 139.97 144.98 L 139.96 143.95 C 139.96 143.13 139.28 142.46 138.46 142.47 C 137.63 142.47 136.97 143.15 136.97 143.97 Z M 137.04 145.41 L 137.31 146.33 C 137.54 147.12 138.37 147.57 139.16 147.34 C 139.95 147.11 140.40 146.28 140.17 145.49 L 139.91 144.57 C 139.67 143.78 138.85 143.33 138.06 143.56 C 137.27 143.79 136.81 144.62 137.04 145.41 Z M 137.62 146.87 L 138.26 147.62 C 138.79 148.24 139.73 148.31 140.35 147.77 C 140.97 147.24 141.04 146.31 140.51 145.69 L 139.87 144.94 C 139.33 144.32 138.40 144.25 137.78 144.79 C 137.16 145.32 137.09 146.25 137.62 146.87 Z M 138.40 147.75 L 138.57 147.90 C 139.17 148.44 140.10 148.39 140.65 147.79 C 141.19 147.19 141.14 146.25 140.54 145.71 L 140.37 145.56 C 139.76 145.01 138.83 145.06 138.29 145.67 C 137.75 146.27 137.79 147.20 138.40 147.75 Z"
      fill="black"
      fill-rule="nonzero" /><path d="M 133.71 151.68 L 134.56 151.23 C 135.28 150.84 135.56 149.95 135.17 149.23 C 134.79 148.50 133.89 148.23 133.17 148.61 L 132.33 149.06 C 131.61 149.45 131.33 150.34 131.71 151.06 C 132.10 151.79 132.99 152.06 133.71 151.68 Z M 134.36 151.33 L 135.31 150.99 C 136.09 150.72 136.50 149.86 136.23 149.09 C 135.95 148.31 135.10 147.90 134.32 148.18 L 133.37 148.51 C 132.59 148.79 132.18 149.64 132.46 150.42 C 132.73 151.20 133.59 151.60 134.36 151.33 Z M 135.11 151.05 L 136.07 150.85 C 136.88 150.69 137.40 149.90 137.23 149.09 C 137.07 148.29 136.28 147.77 135.48 147.93 L 134.52 148.12 C 133.71 148.29 133.19 149.07 133.36 149.88 C 133.52 150.69 134.31 151.21 135.11 151.05 Z M 136.00 150.85 L 137.04 150.69 C 137.85 150.56 138.40 149.81 138.27 149.00 C 138.15 148.20 137.39 147.65 136.59 147.77 L 135.55 147.93 C 134.74 148.06 134.19 148.81 134.31 149.62 C 134.44 150.42 135.19 150.97 136.00 150.85 Z M 137.04 150.67 L 138.02 150.52 C 138.82 150.39 139.36 149.65 139.24 148.85 C 139.11 148.05 138.37 147.51 137.57 147.63 L 136.59 147.79 C 135.79 147.91 135.25 148.66 135.37 149.45 C 135.50 150.25 136.24 150.80 137.04 150.67 Z M 138.02 150.50 L 139.02 150.34 C 139.80 150.21 140.34 149.47 140.21 148.69 C 140.09 147.90 139.35 147.36 138.56 147.49 L 137.57 147.65 C 136.78 147.78 136.24 148.52 136.37 149.31 C 136.50 150.09 137.24 150.63 138.02 150.50 Z M 139.02 150.33 L 139.38 150.27 C 140.16 150.14 140.69 149.41 140.57 148.63 C 140.44 147.85 139.70 147.32 138.92 147.44 L 138.56 147.50 C 137.78 147.63 137.25 148.36 137.37 149.15 C 137.50 149.93 138.24 150.46 139.02 150.33 Z"
      fill="black"
      fill-rule="nonzero" /><path d="M 129.84 157.57 L 130.76 157.79 C 131.57 157.99 132.38 157.50 132.57 156.69 C 132.77 155.89 132.28 155.08 131.47 154.88 L 130.55 154.66 C 129.74 154.46 128.93 154.96 128.74 155.76 C 128.54 156.56 129.04 157.37 129.84 157.57 Z M 131.00 157.85 L 132.03 157.93 C 132.86 158.00 133.59 157.38 133.66 156.54 C 133.72 155.71 133.10 154.98 132.27 154.91 L 131.24 154.83 C 130.41 154.76 129.68 155.38 129.61 156.22 C 129.54 157.05 130.16 157.78 131.00 157.85 Z M 132.33 157.93 L 133.25 157.82 C 134.08 157.72 134.68 156.96 134.58 156.13 C 134.48 155.29 133.72 154.70 132.89 154.80 L 131.97 154.91 C 131.13 155.01 130.53 155.77 130.63 156.60 C 130.73 157.44 131.49 158.03 132.33 157.93 Z M 133.40 157.79 L 134.39 157.57 C 135.21 157.39 135.72 156.57 135.54 155.75 C 135.35 154.93 134.54 154.42 133.72 154.60 L 132.73 154.83 C 131.91 155.01 131.40 155.83 131.58 156.65 C 131.77 157.47 132.58 157.98 133.40 157.79 Z M 134.44 157.56 L 135.47 157.28 C 136.28 157.07 136.76 156.24 136.55 155.43 C 136.33 154.62 135.50 154.13 134.69 154.35 L 133.66 154.62 C 132.85 154.83 132.37 155.66 132.59 156.48 C 132.80 157.29 133.63 157.77 134.44 157.56 Z M 135.46 157.28 L 136.38 157.04 C 137.18 156.82 137.66 156.00 137.45 155.19 C 137.24 154.39 136.41 153.90 135.61 154.12 L 134.70 154.36 C 133.89 154.57 133.41 155.39 133.62 156.20 C 133.83 157.01 134.66 157.49 135.46 157.28 Z M 136.37 157.03 L 137.33 156.78 C 138.13 156.57 138.61 155.75 138.40 154.95 C 138.19 154.15 137.37 153.67 136.57 153.88 L 135.61 154.13 C 134.81 154.33 134.33 155.15 134.54 155.96 C 134.75 156.76 135.57 157.24 136.37 157.03 Z M 137.33 156.77 L 138.35 156.50 C 139.14 156.29 139.62 155.48 139.41 154.68 C 139.20 153.88 138.39 153.41 137.59 153.62 L 136.57 153.89 C 135.77 154.10 135.30 154.91 135.51 155.71 C 135.72 156.50 136.53 156.98 137.33 156.77 Z M 138.35 156.49 L 139.38 156.21 C 140.17 156.00 140.63 155.19 140.42 154.40 C 140.21 153.61 139.40 153.14 138.61 153.36 L 137.59 153.63 C 136.80 153.84 136.33 154.65 136.54 155.44 C 136.75 156.23 137.56 156.70 138.35 156.49 Z M 139.38 156.20 L 140.40 155.93 C 141.19 155.71 141.65 154.91 141.44 154.12 C 141.23 153.34 140.42 152.88 139.64 153.09 L 138.61 153.37 C 137.83 153.58 137.37 154.38 137.58 155.17 C 137.79 155.95 138.59 156.41 139.38 156.20 Z M 140.40 155.92 L 141.37 155.65 C 142.14 155.44 142.60 154.64 142.39 153.86 C 142.18 153.09 141.38 152.63 140.60 152.84 L 139.64 153.10 C 138.86 153.31 138.40 154.11 138.61 154.89 C 138.82 155.67 139.62 156.13 140.40 155.92 Z M 141.36 155.64 L 142.29 155.39 C 143.07 155.18 143.52 154.39 143.31 153.62 C 143.10 152.84 142.31 152.39 141.54 152.60 L 140.61 152.85 C 139.83 153.06 139.38 153.85 139.59 154.62 C 139.80 155.40 140.59 155.85 141.36 155.64 Z M 142.29 155.38 L 143.34 155.10 C 144.10 154.90 144.56 154.11 144.36 153.34 C 144.15 152.57 143.36 152.12 142.60 152.32 L 141.54 152.60 C 140.78 152.81 140.32 153.60 140.53 154.36 C 140.73 155.13 141.52 155.59 142.29 155.38 Z M 143.33 155.10 L 143.99 154.92 C 144.76 154.72 145.21 153.94 145.01 153.18 C 144.81 152.41 144.03 151.96 143.27 152.16 L 142.60 152.33 C 141.84 152.53 141.38 153.31 141.58 154.08 C 141.78 154.84 142.57 155.30 143.33 155.10 Z"
      fill="black"
      fill-rule="nonzero" /><path d="M 129.78 162.43 L 129.01 163.36 C 128.49 163.99 128.57 164.92 129.20 165.44 C 129.83 165.96 130.76 165.87 131.28 165.25 L 132.05 164.31 C 132.57 163.69 132.49 162.76 131.86 162.24 C 131.23 161.72 130.31 161.80 129.78 162.43 Z M 128.67 164.04 L 128.58 164.58 C 128.43 165.39 128.98 166.17 129.79 166.31 C 130.60 166.45 131.38 165.91 131.52 165.10 L 131.62 164.56 C 131.76 163.75 131.22 162.97 130.40 162.83 C 129.59 162.69 128.81 163.23 128.67 164.04 Z M 130.24 166.33 L 131.27 166.20 C 132.10 166.09 132.68 165.34 132.58 164.51 C 132.47 163.69 131.72 163.10 130.89 163.21 L 129.86 163.34 C 129.03 163.45 128.45 164.20 128.55 165.03 C 128.66 165.85 129.41 166.44 130.24 166.33 Z M 131.52 166.15 L 132.37 165.90 C 133.17 165.66 133.62 164.82 133.38 164.02 C 133.14 163.22 132.30 162.76 131.50 163.00 L 130.65 163.26 C 129.85 163.49 129.39 164.34 129.63 165.14 C 129.87 165.94 130.72 166.39 131.52 166.15 Z M 132.42 165.88 L 133.36 165.56 C 134.15 165.29 134.57 164.43 134.30 163.64 C 134.03 162.85 133.17 162.43 132.38 162.70 L 131.45 163.02 C 130.66 163.29 130.23 164.15 130.50 164.94 C 130.77 165.73 131.63 166.15 132.42 165.88 Z M 133.38 165.55 L 134.42 165.18 C 135.20 164.90 135.61 164.03 135.33 163.25 C 135.05 162.46 134.18 162.05 133.40 162.34 L 132.36 162.71 C 131.58 162.99 131.17 163.85 131.45 164.64 C 131.73 165.42 132.60 165.83 133.38 165.55 Z M 134.42 165.18 L 135.27 164.87 C 136.05 164.58 136.46 163.72 136.17 162.93 C 135.89 162.15 135.02 161.75 134.24 162.03 L 133.39 162.34 C 132.61 162.62 132.20 163.49 132.49 164.27 C 132.77 165.06 133.64 165.46 134.42 165.18 Z M 135.27 164.86 L 136.21 164.52 C 137.00 164.23 137.40 163.37 137.11 162.59 C 136.82 161.81 135.96 161.40 135.18 161.69 L 134.24 162.04 C 133.46 162.32 133.06 163.19 133.34 163.97 C 133.63 164.75 134.49 165.15 135.27 164.86 Z M 136.22 164.51 L 137.22 164.14 C 138.00 163.86 138.39 162.99 138.10 162.21 C 137.82 161.43 136.95 161.04 136.17 161.33 L 135.17 161.70 C 134.40 161.98 134.00 162.85 134.29 163.63 C 134.58 164.40 135.44 164.80 136.22 164.51 Z M 137.22 164.14 L 138.24 163.75 C 139.02 163.46 139.41 162.60 139.12 161.82 C 138.83 161.05 137.97 160.66 137.19 160.95 L 136.17 161.33 C 135.39 161.62 135.00 162.49 135.29 163.26 C 135.58 164.04 136.45 164.43 137.22 164.14 Z M 138.25 163.75 L 139.29 163.35 C 140.06 163.06 140.45 162.20 140.15 161.42 C 139.86 160.65 139.00 160.27 138.23 160.56 L 137.19 160.96 C 136.42 161.25 136.03 162.11 136.32 162.88 C 136.62 163.65 137.48 164.04 138.25 163.75 Z M 139.29 163.34 L 140.29 162.95 C 141.06 162.66 141.44 161.80 141.14 161.04 C 140.85 160.27 139.99 159.89 139.22 160.19 L 138.22 160.57 C 137.46 160.87 137.08 161.73 137.37 162.49 C 137.67 163.25 138.53 163.63 139.29 163.34 Z M 140.30 162.94 L 141.23 162.58 C 141.98 162.28 142.36 161.43 142.06 160.67 C 141.77 159.91 140.91 159.54 140.15 159.83 L 139.22 160.20 C 138.47 160.49 138.09 161.35 138.39 162.11 C 138.68 162.86 139.54 163.24 140.30 162.94 Z M 141.23 162.56 L 142.06 162.23 C 142.81 161.93 143.18 161.08 142.88 160.33 C 142.59 159.58 141.74 159.22 140.99 159.51 L 140.15 159.85 C 139.40 160.14 139.03 160.99 139.33 161.74 C 139.63 162.49 140.48 162.86 141.23 162.56 Z M 142.07 162.22 L 143.06 161.82 C 143.81 161.51 144.16 160.67 143.86 159.93 C 143.56 159.18 142.72 158.83 141.97 159.13 L 140.98 159.53 C 140.24 159.83 139.88 160.68 140.18 161.42 C 140.48 162.16 141.33 162.52 142.07 162.22 Z M 143.07 161.80 L 143.99 161.42 C 144.72 161.11 145.07 160.27 144.76 159.53 C 144.45 158.80 143.61 158.45 142.88 158.76 L 141.96 159.14 C 141.23 159.45 140.88 160.29 141.19 161.03 C 141.50 161.76 142.34 162.11 143.07 161.80 Z M 144.00 161.40 L 144.66 161.12 C 145.38 160.81 145.72 159.97 145.41 159.24 C 145.10 158.52 144.26 158.18 143.53 158.49 L 142.87 158.77 C 142.14 159.09 141.81 159.93 142.12 160.65 C 142.43 161.38 143.27 161.71 144.00 161.40 Z"
      fill="black"
      fill-rule="nonzero" /><path d="M 136.85 155.38 L 136.84 156.39 C 136.84 157.23 137.51 157.91 138.35 157.92 C 139.18 157.92 139.87 157.25 139.87 156.41 L 139.88 155.40 C 139.88 154.57 139.21 153.88 138.37 153.88 C 137.54 153.87 136.85 154.55 136.85 155.38 Z M 136.84 156.34 L 136.79 157.33 C 136.76 158.17 137.41 158.88 138.25 158.91 C 139.09 158.95 139.80 158.30 139.83 157.46 L 139.88 156.47 C 139.91 155.63 139.26 154.92 138.42 154.88 C 137.59 154.85 136.88 155.50 136.84 156.34 Z M 136.80 157.22 L 136.68 158.22 C 136.58 159.05 137.18 159.81 138.02 159.91 C 138.85 160.01 139.61 159.41 139.71 158.57 L 139.83 157.57 C 139.93 156.74 139.33 155.98 138.49 155.88 C 137.66 155.78 136.90 156.38 136.80 157.22 Z M 136.69 158.13 L 136.52 159.11 C 136.37 159.94 136.92 160.73 137.75 160.88 C 138.59 161.03 139.38 160.47 139.53 159.64 L 139.70 158.66 C 139.85 157.83 139.30 157.04 138.46 156.89 C 137.63 156.74 136.84 157.30 136.69 158.13 Z M 136.52 159.08 L 136.33 160.03 C 136.17 160.86 136.71 161.67 137.54 161.83 C 138.37 162.00 139.18 161.45 139.34 160.62 L 139.53 159.67 C 139.69 158.84 139.15 158.03 138.32 157.87 C 137.49 157.71 136.68 158.25 136.52 159.08 Z M 136.33 160.02 L 136.13 161.00 C 135.96 161.83 136.50 162.64 137.33 162.81 C 138.16 162.98 138.97 162.44 139.14 161.61 L 139.34 160.64 C 139.51 159.81 138.97 158.99 138.14 158.82 C 137.31 158.65 136.50 159.19 136.33 160.02 Z M 136.14 160.98 L 135.92 161.95 C 135.74 162.78 136.26 163.60 137.09 163.78 C 137.92 163.96 138.74 163.44 138.92 162.61 L 139.13 161.64 C 139.32 160.81 138.79 159.99 137.97 159.81 C 137.14 159.62 136.32 160.15 136.14 160.98 Z M 135.93 161.93 L 135.70 162.91 C 135.51 163.74 136.02 164.56 136.85 164.75 C 137.67 164.94 138.50 164.43 138.69 163.60 L 138.91 162.63 C 139.10 161.80 138.59 160.98 137.77 160.79 C 136.94 160.60 136.12 161.11 135.93 161.93 Z M 135.70 162.91 L 135.47 163.91 C 135.28 164.73 135.80 165.55 136.62 165.74 C 137.45 165.93 138.27 165.42 138.46 164.60 L 138.69 163.60 C 138.88 162.78 138.36 161.95 137.54 161.76 C 136.71 161.57 135.89 162.09 135.70 162.91 Z M 135.47 163.92 L 135.26 164.86 C 135.08 165.69 135.60 166.50 136.42 166.69 C 137.25 166.87 138.06 166.35 138.25 165.53 L 138.46 164.58 C 138.64 163.76 138.12 162.94 137.30 162.76 C 136.47 162.58 135.66 163.10 135.47 163.92 Z M 135.27 164.87 L 135.06 165.86 C 134.88 166.68 135.40 167.49 136.22 167.66 C 137.05 167.84 137.85 167.32 138.03 166.50 L 138.24 165.51 C 138.42 164.69 137.90 163.88 137.08 163.71 C 136.25 163.53 135.44 164.05 135.27 164.87 Z M 135.06 165.86 L 134.85 166.87 C 134.68 167.69 135.20 168.49 136.02 168.66 C 136.84 168.84 137.64 168.31 137.81 167.50 L 138.02 166.49 C 138.20 165.67 137.68 164.87 136.86 164.70 C 136.04 164.52 135.24 165.05 135.06 165.86 Z M 134.86 166.88 L 134.65 167.88 C 134.49 168.69 135.01 169.48 135.82 169.65 C 136.63 169.82 137.43 169.30 137.59 168.49 L 137.80 167.49 C 137.97 166.68 137.45 165.88 136.64 165.71 C 135.82 165.54 135.03 166.07 134.86 166.88 Z M 134.67 167.89 L 134.47 168.88 C 134.31 169.68 134.83 170.47 135.64 170.63 C 136.44 170.79 137.23 170.26 137.39 169.46 L 137.58 168.47 C 137.74 167.66 137.22 166.88 136.41 166.72 C 135.61 166.56 134.82 167.09 134.67 167.89 Z M 134.48 168.91 L 134.30 169.92 C 134.15 170.72 134.68 171.48 135.48 171.63 C 136.28 171.77 137.05 171.24 137.19 170.44 L 137.38 169.43 C 137.52 168.63 136.99 167.86 136.19 167.72 C 135.39 167.57 134.62 168.11 134.48 168.91 Z M 134.31 169.95 L 134.15 170.94 C 134.02 171.73 134.56 172.48 135.36 172.61 C 136.15 172.74 136.90 172.19 137.03 171.40 L 137.18 170.41 C 137.31 169.61 136.77 168.87 135.97 168.74 C 135.18 168.61 134.43 169.15 134.31 169.95 Z M 134.16 170.96 L 134.03 171.82 C 133.92 172.61 134.46 173.34 135.25 173.46 C 136.04 173.57 136.77 173.03 136.89 172.24 L 137.01 171.38 C 137.13 170.59 136.58 169.86 135.80 169.74 C 135.01 169.63 134.28 170.17 134.16 170.96 Z"
      fill="black"
      fill-rule="nonzero" /><path d="M 138.92 165.62 L 139.94 165.46 C 140.75 165.33 141.30 164.57 141.17 163.77 C 141.04 162.96 140.29 162.41 139.48 162.54 L 138.46 162.70 C 137.65 162.83 137.10 163.59 137.23 164.39 C 137.36 165.20 138.11 165.75 138.92 165.62 Z M 139.62 165.50 L 140.57 165.56 C 141.40 165.61 142.11 164.98 142.16 164.15 C 142.21 163.32 141.58 162.61 140.76 162.56 L 139.80 162.50 C 138.97 162.45 138.26 163.08 138.21 163.91 C 138.16 164.74 138.79 165.45 139.62 165.50 Z M 139.97 165.40 L 140.84 165.85 C 141.59 166.23 142.50 165.94 142.88 165.20 C 143.26 164.45 142.97 163.54 142.23 163.16 L 141.36 162.71 C 140.61 162.33 139.70 162.62 139.32 163.37 C 138.94 164.11 139.23 165.02 139.97 165.40 Z M 140.55 165.65 L 141.30 166.30 C 141.93 166.85 142.89 166.78 143.44 166.15 C 143.98 165.51 143.91 164.56 143.28 164.01 L 142.53 163.36 C 141.89 162.81 140.94 162.88 140.39 163.52 C 139.84 164.15 139.91 165.11 140.55 165.65 Z M 141.26 166.26 L 141.93 166.89 C 142.54 167.46 143.50 167.43 144.07 166.82 C 144.64 166.21 144.60 165.25 144.00 164.68 L 143.32 164.05 C 142.71 163.48 141.76 163.52 141.19 164.13 C 140.62 164.74 140.65 165.69 141.26 166.26 Z M 141.98 166.92 L 142.80 167.63 C 143.43 168.18 144.38 168.11 144.92 167.48 C 145.46 166.85 145.40 165.90 144.77 165.36 L 143.95 164.65 C 143.32 164.11 142.37 164.17 141.83 164.80 C 141.28 165.43 141.35 166.38 141.98 166.92 Z M 142.86 167.67 L 143.63 168.27 C 144.28 168.78 145.22 168.67 145.73 168.02 C 146.24 167.37 146.12 166.43 145.47 165.92 L 144.71 165.32 C 144.06 164.81 143.12 164.92 142.61 165.57 C 142.10 166.22 142.21 167.16 142.86 167.67 Z M 143.67 168.30 L 144.51 168.91 C 145.17 169.40 146.10 169.25 146.59 168.59 C 147.07 167.93 146.93 167.00 146.27 166.52 L 145.43 165.90 C 144.77 165.42 143.84 165.56 143.35 166.22 C 142.87 166.88 143.01 167.81 143.67 168.30 Z M 144.56 168.93 L 145.40 169.50 C 146.07 169.96 146.99 169.79 147.45 169.11 C 147.91 168.44 147.73 167.52 147.06 167.06 L 146.22 166.49 C 145.54 166.04 144.63 166.21 144.17 166.89 C 143.71 167.56 143.89 168.48 144.56 168.93 Z M 145.48 169.54 L 146.39 170.08 C 147.08 170.50 147.98 170.27 148.39 169.58 C 148.81 168.89 148.58 167.99 147.89 167.58 L 146.98 167.03 C 146.29 166.62 145.39 166.84 144.98 167.53 C 144.56 168.22 144.79 169.12 145.48 169.54 Z M 146.47 170.10 L 147.28 170.53 C 147.98 170.91 148.85 170.64 149.23 169.94 C 149.60 169.24 149.33 168.37 148.63 167.99 L 147.82 167.56 C 147.12 167.19 146.25 167.45 145.87 168.15 C 145.50 168.85 145.76 169.73 146.47 170.10 Z M 147.30 170.53 L 147.39 170.58 C 148.09 170.94 148.95 170.67 149.32 169.97 C 149.68 169.27 149.40 168.41 148.70 168.04 L 148.61 168.00 C 147.91 167.63 147.05 167.91 146.69 168.61 C 146.33 169.31 146.60 170.17 147.30 170.53 Z"
      fill="black"
      fill-rule="nonzero" /><path d="M 152.10 138.36 L 152.98 138.68 C 153.74 138.96 154.59 138.57 154.87 137.80 C 155.15 137.04 154.76 136.19 153.99 135.91 L 153.11 135.59 C 152.34 135.31 151.50 135.70 151.22 136.47 C 150.94 137.23 151.33 138.08 152.10 138.36 Z M 153.17 138.74 L 154.19 138.97 C 154.99 139.14 155.78 138.64 155.95 137.85 C 156.13 137.05 155.63 136.26 154.83 136.08 L 153.81 135.86 C 153.01 135.68 152.22 136.18 152.04 136.98 C 151.87 137.77 152.37 138.56 153.17 138.74 Z M 154.39 138.99 L 155.39 139.08 C 156.20 139.15 156.92 138.55 156.99 137.74 C 157.06 136.93 156.46 136.21 155.64 136.14 L 154.64 136.06 C 153.83 135.99 153.11 136.59 153.04 137.40 C 152.97 138.21 153.57 138.93 154.39 138.99 Z M 155.43 139.08 L 156.44 139.14 C 157.25 139.19 157.95 138.57 158.00 137.76 C 158.05 136.95 157.43 136.25 156.62 136.21 L 155.61 136.14 C 154.80 136.09 154.10 136.71 154.05 137.52 C 154.00 138.33 154.62 139.03 155.43 139.08 Z M 156.29 139.12 L 157.36 139.30 C 158.16 139.43 158.91 138.89 159.04 138.09 C 159.17 137.29 158.63 136.53 157.83 136.40 L 156.77 136.23 C 155.97 136.10 155.21 136.64 155.08 137.44 C 154.95 138.23 155.49 138.99 156.29 139.12 Z M 156.80 139.07 L 157.53 139.55 C 158.20 139.99 159.11 139.80 159.55 139.13 C 159.99 138.45 159.80 137.55 159.13 137.11 L 158.39 136.63 C 157.72 136.19 156.82 136.38 156.37 137.05 C 155.93 137.73 156.12 138.63 156.80 139.07 Z M 156.94 138.74 L 157.20 139.63 C 157.43 140.40 158.24 140.84 159.01 140.61 C 159.77 140.38 160.21 139.57 159.98 138.80 L 159.72 137.92 C 159.49 137.15 158.68 136.71 157.92 136.94 C 157.15 137.17 156.71 137.97 156.94 138.74 Z M 157.17 138.96 L 156.98 139.97 C 156.84 140.76 157.36 141.51 158.15 141.66 C 158.93 141.80 159.69 141.28 159.83 140.49 L 160.02 139.48 C 160.16 138.69 159.64 137.94 158.85 137.79 C 158.07 137.65 157.31 138.17 157.17 138.96 Z M 157.11 139.58 L 156.66 140.47 C 156.30 141.19 156.59 142.06 157.31 142.42 C 158.02 142.78 158.89 142.49 159.25 141.78 L 159.70 140.88 C 160.06 140.17 159.77 139.30 159.06 138.94 C 158.34 138.58 157.47 138.87 157.11 139.58 Z M 156.78 140.27 L 156.17 141.11 C 155.70 141.76 155.85 142.67 156.49 143.14 C 157.14 143.61 158.05 143.47 158.52 142.82 L 159.13 141.98 C 159.60 141.33 159.46 140.42 158.81 139.95 C 158.16 139.48 157.25 139.62 156.78 140.27 Z M 156.27 140.98 L 155.59 141.73 C 155.05 142.32 155.09 143.24 155.68 143.79 C 156.27 144.33 157.19 144.29 157.73 143.70 L 158.42 142.95 C 158.96 142.35 158.92 141.43 158.33 140.89 C 157.74 140.35 156.82 140.39 156.27 140.98 Z M 155.67 141.65 L 154.88 142.38 C 154.29 142.93 154.25 143.85 154.80 144.44 C 155.35 145.03 156.27 145.06 156.86 144.52 L 157.65 143.78 C 158.24 143.24 158.27 142.31 157.73 141.73 C 157.18 141.14 156.26 141.10 155.67 141.65 Z M 154.68 142.62 L 154.23 143.27 C 153.77 143.92 153.94 144.83 154.59 145.28 C 155.25 145.74 156.15 145.58 156.61 144.92 L 157.06 144.28 C 157.51 143.62 157.35 142.72 156.69 142.26 C 156.04 141.81 155.14 141.97 154.68 142.62 Z M 155.19 145.52 L 156.04 145.66 C 156.83 145.79 157.57 145.25 157.70 144.47 C 157.83 143.68 157.29 142.94 156.51 142.81 L 155.65 142.67 C 154.87 142.54 154.13 143.07 154.00 143.86 C 153.87 144.65 154.40 145.39 155.19 145.52 Z M 156.48 145.67 L 157.58 145.51 C 158.37 145.40 158.92 144.66 158.80 143.87 C 158.69 143.08 157.96 142.53 157.17 142.65 L 156.07 142.80 C 155.28 142.92 154.73 143.65 154.84 144.44 C 154.95 145.23 155.69 145.78 156.48 145.67 Z M 157.72 145.49 L 158.71 145.24 C 159.48 145.05 159.96 144.26 159.76 143.48 C 159.57 142.71 158.78 142.23 158.01 142.42 L 157.02 142.67 C 156.24 142.86 155.77 143.65 155.96 144.43 C 156.16 145.21 156.94 145.68 157.72 145.49 Z M 158.74 145.24 L 159.72 144.98 C 160.50 144.77 160.96 143.97 160.75 143.19 C 160.54 142.41 159.74 141.95 158.96 142.16 L 157.98 142.42 C 157.20 142.63 156.74 143.43 156.95 144.21 C 157.16 144.99 157.96 145.45 158.74 145.24 Z M 159.67 145.00 L 160.63 144.77 C 161.42 144.59 161.92 143.80 161.73 143.01 C 161.55 142.23 160.76 141.73 159.97 141.92 L 159.01 142.14 C 158.22 142.32 157.73 143.11 157.91 143.90 C 158.10 144.69 158.88 145.18 159.67 145.00 Z M 160.48 144.81 L 161.53 144.69 C 162.34 144.60 162.92 143.86 162.83 143.05 C 162.73 142.24 162.00 141.66 161.19 141.75 L 160.13 141.88 C 159.32 141.97 158.74 142.70 158.84 143.52 C 158.93 144.33 159.66 144.91 160.48 144.81 Z M 160.82 144.62 L 161.62 144.93 C 162.39 145.22 163.26 144.84 163.56 144.07 C 163.85 143.30 163.47 142.43 162.70 142.14 L 161.90 141.83 C 161.13 141.53 160.26 141.91 159.96 142.68 C 159.67 143.46 160.05 144.32 160.82 144.62 Z M 160.70 143.90 L 160.93 144.82 C 161.14 145.63 161.95 146.12 162.76 145.92 C 163.56 145.72 164.05 144.90 163.85 144.09 L 163.62 143.17 C 163.42 142.36 162.60 141.87 161.80 142.07 C 160.99 142.27 160.50 143.09 160.70 143.90 Z M 160.91 144.21 L 160.74 145.22 C 160.60 146.04 161.16 146.82 161.98 146.96 C 162.79 147.09 163.57 146.54 163.71 145.72 L 163.88 144.71 C 164.01 143.89 163.46 143.11 162.64 142.97 C 161.82 142.84 161.05 143.39 160.91 144.21 Z M 160.83 144.91 L 160.45 145.84 C 160.14 146.61 160.52 147.49 161.29 147.80 C 162.06 148.11 162.94 147.74 163.25 146.96 L 163.62 146.03 C 163.93 145.26 163.56 144.38 162.78 144.07 C 162.01 143.76 161.14 144.14 160.83 144.91 Z M 160.51 145.72 L 160.08 146.56 C 159.70 147.30 160.00 148.20 160.74 148.58 C 161.48 148.96 162.38 148.67 162.76 147.93 L 163.19 147.09 C 163.57 146.35 163.27 145.44 162.53 145.06 C 161.79 144.68 160.89 144.98 160.51 145.72 Z M 160.12 146.48 L 159.60 147.37 C 159.19 148.09 159.43 149.01 160.15 149.43 C 160.87 149.85 161.79 149.60 162.20 148.89 L 162.72 148.00 C 163.14 147.28 162.90 146.36 162.18 145.94 C 161.46 145.52 160.54 145.77 160.12 146.48 Z M 159.64 147.32 L 159.08 148.18 C 158.63 148.88 158.84 149.81 159.53 150.26 C 160.23 150.71 161.16 150.51 161.61 149.81 L 162.17 148.94 C 162.62 148.24 162.41 147.32 161.72 146.87 C 161.02 146.42 160.09 146.62 159.64 147.32 Z M 159.11 148.15 L 158.53 148.99 C 158.06 149.67 158.23 150.60 158.91 151.07 C 159.59 151.54 160.53 151.37 161.00 150.69 L 161.58 149.85 C 162.05 149.17 161.88 148.23 161.20 147.76 C 160.52 147.29 159.58 147.46 159.11 148.15 Z M 158.56 148.96 L 157.97 149.75 C 157.48 150.42 157.62 151.35 158.29 151.84 C 158.95 152.33 159.89 152.19 160.38 151.53 L 160.97 150.73 C 161.46 150.06 161.31 149.13 160.65 148.64 C 159.99 148.15 159.05 148.29 158.56 148.96 Z M 158.02 149.71 L 157.39 150.50 C 156.87 151.14 156.97 152.07 157.61 152.58 C 158.25 153.10 159.18 153.00 159.69 152.36 L 160.33 151.57 C 160.84 150.93 160.74 150.00 160.10 149.49 C 159.47 148.97 158.53 149.07 158.02 149.71 Z M 157.45 150.45 L 156.80 151.18 C 156.26 151.79 156.31 152.71 156.92 153.25 C 157.52 153.79 158.45 153.74 158.98 153.13 L 159.63 152.40 C 160.17 151.80 160.12 150.87 159.52 150.34 C 158.91 149.80 157.99 149.85 157.45 150.45 Z M 156.85 151.15 L 156.13 151.88 C 155.58 152.46 155.59 153.38 156.16 153.93 C 156.74 154.49 157.66 154.48 158.22 153.90 L 158.93 153.17 C 159.49 152.59 159.48 151.67 158.90 151.12 C 158.33 150.56 157.41 150.57 156.85 151.15 Z M 156.21 151.82 L 155.47 152.48 C 154.87 153.01 154.82 153.93 155.35 154.52 C 155.88 155.12 156.80 155.17 157.39 154.64 L 158.14 153.97 C 158.73 153.44 158.79 152.53 158.25 151.93 C 157.72 151.34 156.81 151.28 156.21 151.82 Z M 155.66 152.35 L 154.79 152.90 C 154.12 153.32 153.93 154.21 154.35 154.88 C 154.78 155.55 155.66 155.75 156.33 155.32 L 157.20 154.77 C 157.87 154.35 158.07 153.46 157.64 152.79 C 157.22 152.12 156.33 151.92 155.66 152.35 Z M 155.03 152.79 L 154.17 153.13 C 153.44 153.43 153.08 154.26 153.38 154.99 C 153.68 155.72 154.51 156.08 155.24 155.78 L 156.10 155.44 C 156.83 155.14 157.18 154.31 156.89 153.57 C 156.59 152.84 155.76 152.49 155.03 152.79 Z"
      fill="black"
      fill-rule="nonzero" /><path d="M 150.43 140.56 L 150.63 141.53 C 150.79 142.33 151.56 142.85 152.36 142.69 C 153.16 142.53 153.67 141.75 153.52 140.96 L 153.32 139.98 C 153.16 139.18 152.39 138.67 151.59 138.83 C 150.79 138.98 150.27 139.76 150.43 140.56 Z M 150.58 141.50 L 150.74 142.44 C 150.88 143.26 151.66 143.81 152.48 143.67 C 153.30 143.53 153.86 142.75 153.72 141.93 L 153.56 140.99 C 153.42 140.17 152.64 139.62 151.82 139.76 C 151.00 139.90 150.45 140.68 150.58 141.50 Z M 150.72 142.40 L 150.85 143.34 C 150.97 144.18 151.74 144.76 152.58 144.64 C 153.41 144.53 153.99 143.75 153.88 142.92 L 153.74 141.97 C 153.63 141.13 152.85 140.55 152.02 140.67 C 151.18 140.79 150.60 141.56 150.72 142.40 Z M 150.84 143.35 L 151.00 144.41 C 151.12 145.25 151.90 145.83 152.74 145.71 C 153.58 145.59 154.16 144.81 154.04 143.97 L 153.88 142.91 C 153.76 142.07 152.98 141.49 152.14 141.61 C 151.30 141.73 150.72 142.52 150.84 143.35 Z M 150.99 144.43 L 151.15 145.45 C 151.29 146.29 152.08 146.87 152.92 146.73 C 153.76 146.60 154.34 145.81 154.21 144.97 L 154.05 143.95 C 153.91 143.11 153.12 142.53 152.28 142.66 C 151.44 142.80 150.86 143.59 150.99 144.43 Z M 151.14 145.45 L 151.31 146.46 C 151.44 147.30 152.24 147.88 153.09 147.74 C 153.94 147.61 154.51 146.81 154.38 145.96 L 154.22 144.96 C 154.08 144.11 153.28 143.53 152.43 143.67 C 151.58 143.81 151.01 144.61 151.14 145.45 Z M 151.30 146.46 L 151.47 147.51 C 151.60 148.37 152.41 148.95 153.26 148.81 C 154.11 148.67 154.69 147.87 154.55 147.02 L 154.38 145.96 C 154.25 145.11 153.45 144.53 152.59 144.67 C 151.74 144.80 151.16 145.60 151.30 146.46 Z M 151.46 147.50 L 151.60 148.42 C 151.73 149.28 152.52 149.87 153.38 149.74 C 154.24 149.61 154.83 148.82 154.70 147.96 L 154.56 147.04 C 154.43 146.18 153.64 145.59 152.78 145.72 C 151.92 145.84 151.33 146.64 151.46 147.50 Z M 151.59 148.39 L 151.71 149.33 C 151.82 150.19 152.61 150.80 153.46 150.69 C 154.32 150.58 154.93 149.79 154.82 148.93 L 154.70 148.00 C 154.60 147.14 153.81 146.53 152.95 146.64 C 152.09 146.75 151.49 147.53 151.59 148.39 Z M 151.71 149.31 L 151.83 150.32 C 151.92 151.18 152.70 151.80 153.56 151.70 C 154.43 151.60 155.04 150.83 154.94 149.96 L 154.83 148.95 C 154.73 148.09 153.95 147.47 153.09 147.57 C 152.23 147.67 151.61 148.45 151.71 149.31 Z M 151.82 150.33 L 151.94 151.30 C 152.04 152.16 152.82 152.78 153.69 152.67 C 154.55 152.57 155.16 151.79 155.06 150.93 L 154.94 149.96 C 154.84 149.10 154.06 148.48 153.20 148.58 C 152.34 148.69 151.72 149.47 151.82 150.33 Z M 151.94 151.30 L 152.06 152.31 C 152.16 153.17 152.95 153.79 153.81 153.68 C 154.67 153.58 155.29 152.80 155.18 151.94 L 155.06 150.93 C 154.96 150.06 154.17 149.45 153.31 149.55 C 152.45 149.66 151.84 150.44 151.94 151.30 Z M 152.06 152.30 L 152.17 153.28 C 152.27 154.15 153.05 154.77 153.92 154.67 C 154.78 154.57 155.40 153.78 155.30 152.92 L 155.18 151.94 C 155.08 151.08 154.30 150.46 153.44 150.56 C 152.58 150.66 151.96 151.44 152.06 152.30 Z M 152.17 153.27 L 152.28 154.27 C 152.37 155.14 153.15 155.76 154.02 155.66 C 154.88 155.57 155.51 154.79 155.41 153.93 L 155.30 152.93 C 155.20 152.07 154.43 151.44 153.56 151.54 C 152.70 151.63 152.07 152.41 152.17 153.27 Z M 152.28 154.26 L 152.38 155.27 C 152.48 156.14 153.25 156.77 154.12 156.68 C 154.98 156.58 155.61 155.81 155.52 154.94 L 155.41 153.93 C 155.32 153.07 154.55 152.44 153.68 152.53 C 152.81 152.62 152.19 153.40 152.28 154.26 Z M 152.38 155.27 L 152.48 156.25 C 152.57 157.12 153.34 157.75 154.21 157.66 C 155.07 157.58 155.70 156.80 155.62 155.94 L 155.52 154.95 C 155.43 154.09 154.66 153.45 153.79 153.54 C 152.93 153.63 152.30 154.40 152.38 155.27 Z M 152.48 156.24 L 152.57 157.25 C 152.66 158.12 153.42 158.75 154.29 158.67 C 155.16 158.59 155.79 157.82 155.71 156.96 L 155.62 155.95 C 155.54 155.08 154.77 154.44 153.90 154.53 C 153.04 154.61 152.40 155.37 152.48 156.24 Z M 152.57 157.24 L 152.66 158.22 C 152.73 159.09 153.49 159.73 154.36 159.66 C 155.23 159.59 155.87 158.82 155.80 157.96 L 155.71 156.97 C 155.64 156.10 154.88 155.46 154.01 155.53 C 153.14 155.61 152.50 156.37 152.57 157.24 Z M 152.66 158.20 L 152.73 159.19 C 152.79 160.06 153.55 160.71 154.42 160.65 C 155.28 160.58 155.94 159.83 155.87 158.96 L 155.80 157.97 C 155.73 157.10 154.98 156.45 154.11 156.52 C 153.24 156.58 152.59 157.34 152.66 158.20 Z M 152.73 159.17 L 152.79 160.20 C 152.85 161.07 153.59 161.73 154.46 161.67 C 155.33 161.62 155.99 160.87 155.94 160.00 L 155.87 158.98 C 155.82 158.11 155.07 157.45 154.20 157.50 C 153.33 157.56 152.67 158.31 152.73 159.17 Z M 152.79 160.18 L 152.84 161.18 C 152.89 162.05 153.63 162.72 154.50 162.67 C 155.37 162.63 156.03 161.89 155.99 161.02 L 155.94 160.02 C 155.89 159.15 155.15 158.48 154.28 158.53 C 153.41 158.57 152.75 159.31 152.79 160.18 Z M 152.84 161.17 L 152.88 162.18 C 152.92 163.05 153.66 163.72 154.53 163.68 C 155.40 163.65 156.07 162.91 156.03 162.04 L 155.99 161.03 C 155.95 160.16 155.22 159.49 154.35 159.52 C 153.48 159.56 152.80 160.30 152.84 161.17 Z M 152.88 162.17 L 152.92 163.16 C 152.95 164.03 153.68 164.71 154.55 164.68 C 155.43 164.64 156.10 163.91 156.07 163.04 L 156.04 162.05 C 156.00 161.18 155.27 160.50 154.40 160.53 C 153.53 160.56 152.85 161.30 152.88 162.17 Z M 152.92 163.15 L 152.95 164.19 C 152.98 165.06 153.71 165.75 154.58 165.72 C 155.45 165.69 156.14 164.96 156.11 164.09 L 156.07 163.05 C 156.04 162.18 155.32 161.49 154.44 161.52 C 153.57 161.55 152.89 162.28 152.92 163.15 Z M 152.95 164.19 L 152.98 165.18 C 153.01 166.05 153.73 166.73 154.61 166.71 C 155.48 166.68 156.16 165.96 156.14 165.08 L 156.11 164.09 C 156.08 163.22 155.36 162.54 154.48 162.56 C 153.61 162.59 152.93 163.32 152.95 164.19 Z M 152.98 165.17 L 153.01 166.16 C 153.03 167.03 153.76 167.71 154.63 167.69 C 155.50 167.67 156.19 166.94 156.16 166.07 L 156.14 165.09 C 156.11 164.22 155.39 163.53 154.52 163.55 C 153.64 163.58 152.96 164.30 152.98 165.17 Z M 153.01 166.15 L 153.03 167.17 C 153.06 168.04 153.78 168.73 154.65 168.71 C 155.52 168.68 156.21 167.96 156.19 167.09 L 156.17 166.07 C 156.14 165.20 155.42 164.51 154.55 164.53 C 153.67 164.55 152.99 165.28 153.01 166.15 Z M 153.03 167.16 L 153.05 168.13 C 153.07 169.00 153.79 169.70 154.66 169.68 C 155.53 169.66 156.23 168.94 156.21 168.07 L 156.19 167.10 C 156.18 166.22 155.45 165.53 154.58 165.55 C 153.71 165.56 153.02 166.28 153.03 167.16 Z M 153.05 168.11 L 153.06 169.06 C 153.07 169.94 153.78 170.64 154.65 170.63 C 155.53 170.62 156.23 169.91 156.22 169.03 L 156.21 168.08 C 156.20 167.21 155.49 166.51 154.62 166.52 C 153.74 166.53 153.04 167.24 153.05 168.11 Z M 153.06 169.05 L 153.06 170.05 C 153.06 170.93 153.77 171.63 154.65 171.63 C 155.52 171.63 156.22 170.92 156.22 170.05 L 156.22 169.04 C 156.22 168.17 155.51 167.47 154.64 167.47 C 153.76 167.47 153.06 168.18 153.06 169.05 Z M 153.06 170.05 L 153.06 171.08 C 153.06 171.95 153.77 172.66 154.64 172.66 C 155.51 172.66 156.22 171.95 156.22 171.08 L 156.22 170.05 C 156.22 169.18 155.51 168.47 154.64 168.47 C 153.77 168.47 153.06 169.18 153.06 170.05 Z M 153.06 171.08 L 153.06 172.10 C 153.06 172.97 153.77 173.68 154.64 173.68 C 155.51 173.68 156.22 172.97 156.22 172.10 L 156.22 171.08 C 156.22 170.21 155.51 169.50 154.64 169.50 C 153.77 169.50 153.06 170.21 153.06 171.08 Z M 153.07 172.10 L 153.07 173.11 C 153.07 173.98 153.77 174.69 154.64 174.69 C 155.51 174.69 156.22 173.98 156.22 173.11 L 156.22 172.10 C 156.22 171.23 155.51 170.52 154.64 170.52 C 153.77 170.52 153.07 171.23 153.07 172.10 Z M 153.07 173.11 L 153.07 174.26 C 153.07 175.13 153.78 175.84 154.64 175.83 C 155.51 175.83 156.22 175.13 156.22 174.26 L 156.22 173.11 C 156.22 172.24 155.51 171.54 154.64 171.54 C 153.77 171.54 153.07 172.24 153.07 173.11 Z M 153.07 174.29 L 153.09 175.26 C 153.10 176.13 153.82 176.82 154.69 176.80 C 155.55 176.79 156.25 176.07 156.23 175.21 L 156.21 174.23 C 156.20 173.37 155.48 172.67 154.62 172.69 C 153.75 172.70 153.06 173.42 153.07 174.29 Z M 153.14 175.64 L 153.33 176.32 C 153.55 177.16 154.41 177.66 155.25 177.44 C 156.08 177.21 156.58 176.35 156.36 175.52 L 156.18 174.83 C 155.95 173.99 155.09 173.49 154.26 173.72 C 153.42 173.94 152.92 174.80 153.14 175.64 Z"
      fill="black"
      fill-rule="nonzero" /></svg>