<svg xmlns="http://www.w3.org/2000/svg" width="300" height="300" viewBox="0 0 300 300">
<path d="M 133.82 128.08 L 133.75 129.02 C 133.69 129.85 134.32 130.58 135.16 130.64 C 135.99 130.70 136.72 130.07 136.78 129.24 L 136.85 128.30 C 136.91 127.46 136.28 126.73 135.45 126.67 C 134.61 126.61 133.88 127.24 133.82 128.08 Z M 133.75 128.84 L 133.56 129.83 C 133.40 130.67 133.95 131.48 134.79 131.64 C 135.62 131.80 136.43 131.25 136.59 130.41 L 136.79 129.42 C 136.95 128.58 136.40 127.77 135.56 127.61 C 134.72 127.45 133.91 128.00 133.75 128.84 Z M 133.58 129.67 L 133.31 130.57 C 133.06 131.39 133.52 132.26 134.35 132.52 C 135.17 132.77 136.04 132.30 136.30 131.48 L 136.57 130.58 C 136.82 129.75 136.36 128.88 135.53 128.63 C 134.71 128.38 133.83 128.84 133.58 129.67 Z M 133.32 130.50 L 132.96 131.51 C 132.67 132.32 133.10 133.22 133.92 133.51 C 134.73 133.80 135.63 133.37 135.92 132.56 L 136.28 131.55 C 136.57 130.73 136.14 129.83 135.33 129.54 C 134.51 129.25 133.61 129.68 133.32 130.50 Z M 132.97 131.48 L 132.60 132.46 C 132.30 133.28 132.72 134.18 133.53 134.49 C 134.35 134.79 135.25 134.37 135.56 133.56 L 135.92 132.58 C 136.22 131.77 135.81 130.86 134.99 130.56 C 134.18 130.25 133.27 130.67 132.97 131.48 Z M 132.60 132.46 L 132.24 133.42 C 131.94 134.24 132.35 135.15 133.17 135.45 C 133.98 135.76 134.89 135.34 135.20 134.53 L 135.56 133.56 C 135.86 132.75 135.45 131.84 134.63 131.53 C 133.82 131.23 132.91 131.64 132.60 132.46 Z M 132.24 133.42 L 131.90 134.33 C 131.60 135.14 132.02 136.05 132.83 136.36 C 133.65 136.66 134.56 136.25 134.86 135.43 L 135.20 134.52 C 135.50 133.71 135.09 132.80 134.27 132.49 C 133.45 132.19 132.54 132.60 132.24 133.42 Z M 131.90 134.33 L 131.54 135.33 C 131.24 136.15 131.66 137.06 132.48 137.36 C 133.30 137.66 134.20 137.23 134.50 136.41 L 134.87 135.42 C 135.17 134.60 134.75 133.69 133.93 133.39 C 133.11 133.09 132.20 133.51 131.90 134.33 Z M 131.54 135.32 L 131.21 136.21 C 130.90 137.03 131.32 137.94 132.14 138.24 C 132.95 138.55 133.86 138.13 134.17 137.32 L 134.50 136.42 C 134.81 135.61 134.39 134.70 133.57 134.39 C 132.75 134.09 131.84 134.50 131.54 135.32 Z M 131.22 136.17 L 130.86 137.06 C 130.54 137.87 130.93 138.79 131.74 139.12 C 132.55 139.45 133.47 139.05 133.79 138.24 L 134.15 137.35 C 134.48 136.54 134.09 135.62 133.28 135.30 C 132.47 134.97 131.55 135.36 131.22 136.17 Z M 130.88 137.03 L 130.48 137.96 C 130.14 138.76 130.51 139.69 131.32 140.03 C 132.12 140.37 133.05 140.00 133.39 139.20 L 133.78 138.27 C 134.12 137.47 133.75 136.54 132.95 136.20 C 132.15 135.86 131.22 136.23 130.88 137.03 Z M 130.48 137.96 L 130.09 138.88 C 129.74 139.68 130.11 140.61 130.91 140.95 C 131.72 141.30 132.64 140.93 132.99 140.13 L 133.39 139.20 C 133.73 138.40 133.36 137.47 132.56 137.13 C 131.76 136.79 130.83 137.16 130.48 137.96 Z M 130.09 138.89 L 129.70 139.81 C 129.35 140.61 129.73 141.53 130.53 141.88 C 131.33 142.22 132.25 141.84 132.60 141.04 L 132.99 140.12 C 133.33 139.32 132.96 138.39 132.16 138.05 C 131.35 137.71 130.43 138.08 130.09 138.89 Z M 129.70 139.81 L 129.30 140.74 C 128.97 141.54 129.34 142.46 130.14 142.80 C 130.94 143.14 131.87 142.76 132.20 141.96 L 132.60 141.04 C 132.93 140.24 132.56 139.31 131.76 138.97 C 130.96 138.64 130.03 139.01 129.70 139.81 Z M 129.31 140.74 L 128.92 141.64 C 128.58 142.44 128.96 143.37 129.76 143.70 C 130.56 144.04 131.48 143.67 131.82 142.87 L 132.20 141.96 C 132.54 141.16 132.17 140.24 131.37 139.90 C 130.57 139.56 129.65 139.94 129.31 140.74 Z M 128.93 141.63 L 128.53 142.56 C 128.18 143.36 128.55 144.28 129.35 144.63 C 130.14 144.97 131.06 144.61 131.41 143.81 L 131.81 142.88 C 132.15 142.08 131.79 141.16 130.99 140.82 C 130.20 140.47 129.27 140.84 128.93 141.63 Z M 128.54 142.55 L 128.13 143.47 C 127.77 144.26 128.13 145.19 128.92 145.54 C 129.71 145.89 130.63 145.54 130.99 144.75 L 131.40 143.83 C 131.75 143.04 131.40 142.11 130.61 141.76 C 129.82 141.40 128.89 141.76 128.54 142.55 Z M 128.13 143.46 L 127.71 144.38 C 127.35 145.16 127.70 146.09 128.48 146.45 C 129.27 146.81 130.19 146.46 130.55 145.68 L 130.98 144.76 C 131.34 143.98 130.99 143.05 130.21 142.69 C 129.42 142.33 128.49 142.67 128.13 143.46 Z M 127.72 144.37 L 127.30 145.28 C 126.93 146.06 127.27 146.99 128.05 147.36 C 128.83 147.72 129.76 147.38 130.13 146.60 L 130.55 145.69 C 130.91 144.90 130.57 143.98 129.79 143.61 C 129.01 143.25 128.08 143.59 127.72 144.37 Z M 127.30 145.28 L 126.87 146.20 C 126.50 146.98 126.84 147.91 127.62 148.27 C 128.39 148.64 129.32 148.30 129.69 147.53 L 130.12 146.60 C 130.48 145.82 130.15 144.90 129.37 144.53 C 128.59 144.17 127.67 144.50 127.30 145.28 Z M 126.88 146.19 L 126.46 147.06 C 126.09 147.83 126.41 148.76 127.19 149.13 C 127.96 149.50 128.89 149.18 129.26 148.40 L 129.68 147.54 C 130.05 146.76 129.72 145.84 128.95 145.46 C 128.18 145.09 127.25 145.42 126.88 146.19 Z M 126.47 147.04 L 126.02 147.95 C 125.64 148.72 125.95 149.65 126.72 150.03 C 127.49 150.41 128.42 150.10 128.80 149.33 L 129.25 148.42 C 129.63 147.65 129.32 146.72 128.55 146.34 C 127.78 145.96 126.85 146.27 126.47 147.04 Z M 126.03 147.95 L 125.59 148.83 C 125.21 149.60 125.52 150.52 126.29 150.90 C 127.05 151.28 127.98 150.97 128.36 150.20 L 128.79 149.33 C 129.17 148.56 128.86 147.64 128.09 147.26 C 127.33 146.88 126.40 147.19 126.03 147.95 Z M 125.59 148.85 L 125.18 149.71 C 124.81 150.48 125.13 151.39 125.90 151.76 C 126.67 152.13 127.58 151.80 127.95 151.04 L 128.36 150.18 C 128.73 149.42 128.40 148.50 127.64 148.13 C 126.87 147.76 125.95 148.09 125.59 148.85 Z M 125.18 149.72 L 124.73 150.66 C 124.37 151.43 124.69 152.34 125.46 152.70 C 126.22 153.07 127.14 152.74 127.50 151.98 L 127.95 151.03 C 128.31 150.26 127.98 149.35 127.22 148.99 C 126.45 148.63 125.54 148.95 125.18 149.72 Z M 124.74 150.66 L 124.30 151.57 C 123.94 152.33 124.25 153.24 125.01 153.61 C 125.77 153.97 126.69 153.65 127.05 152.89 L 127.49 151.98 C 127.86 151.22 127.54 150.31 126.78 149.94 C 126.02 149.58 125.11 149.90 124.74 150.66 Z M 124.31 151.55 L 123.86 152.47 C 123.49 153.22 123.79 154.14 124.55 154.51 C 125.30 154.88 126.21 154.58 126.59 153.82 L 127.04 152.91 C 127.41 152.15 127.11 151.24 126.35 150.87 C 125.60 150.49 124.69 150.80 124.31 151.55 Z M 123.88 152.45 L 123.40 153.36 C 123.01 154.10 123.30 155.02 124.04 155.40 C 124.78 155.79 125.69 155.51 126.08 154.77 L 126.56 153.85 C 126.95 153.11 126.66 152.20 125.92 151.81 C 125.18 151.42 124.27 151.71 123.88 152.45 Z M 123.44 153.33 L 122.96 154.18 C 122.55 154.90 122.80 155.81 123.52 156.22 C 124.24 156.63 125.15 156.37 125.56 155.66 L 126.04 154.80 C 126.45 154.08 126.20 153.17 125.48 152.76 C 124.76 152.36 123.85 152.61 123.44 153.33 Z M 122.98 154.17 L 122.79 154.50 C 122.37 155.20 122.61 156.11 123.31 156.52 C 124.02 156.94 124.92 156.71 125.34 156.00 L 125.53 155.67 C 125.95 154.96 125.71 154.06 125.01 153.64 C 124.30 153.23 123.40 153.46 122.98 154.17 Z"
      fill="black"
      fill-rule="nonzero" /><path d="M 132.09 134.19 L 133.08 134.20 C 133.92 134.20 134.60 133.52 134.61 132.68 C 134.61 131.84 133.93 131.15 133.09 131.15 L 132.10 131.15 C 131.26 131.14 130.57 131.82 130.57 132.67 C 130.57 133.51 131.25 134.19 132.09 134.19 Z M 133.05 134.21 L 133.99 134.23 C 134.84 134.25 135.54 133.57 135.56 132.72 C 135.57 131.88 134.90 131.17 134.05 131.16 L 133.12 131.14 C 132.27 131.12 131.56 131.79 131.55 132.64 C 131.53 133.49 132.20 134.19 133.05 134.21 Z M 133.92 134.22 L 134.88 134.28 C 135.72 134.34 136.45 133.70 136.51 132.86 C 136.56 132.01 135.92 131.28 135.08 131.23 L 134.12 131.16 C 133.27 131.11 132.55 131.75 132.49 132.59 C 132.44 133.44 133.07 134.17 133.92 134.22 Z M 134.80 134.26 L 135.85 134.39 C 136.69 134.49 137.44 133.89 137.54 133.06 C 137.64 132.23 137.05 131.47 136.21 131.37 L 135.16 131.25 C 134.32 131.15 133.57 131.74 133.47 132.58 C 133.37 133.41 133.96 134.16 134.80 134.26 Z M 135.81 134.37 L 136.78 134.52 C 137.60 134.64 138.37 134.08 138.50 133.25 C 138.62 132.43 138.05 131.66 137.23 131.54 L 136.26 131.39 C 135.43 131.27 134.67 131.83 134.54 132.66 C 134.42 133.48 134.98 134.25 135.81 134.37 Z M 136.76 134.51 L 137.79 134.68 C 138.61 134.81 139.38 134.26 139.51 133.45 C 139.65 132.63 139.10 131.86 138.28 131.72 L 137.25 131.55 C 136.43 131.41 135.66 131.97 135.53 132.78 C 135.39 133.60 135.94 134.37 136.76 134.51 Z M 137.78 134.66 L 138.82 134.85 C 139.63 134.99 140.40 134.45 140.54 133.64 C 140.68 132.83 140.14 132.06 139.34 131.92 L 138.30 131.74 C 137.49 131.59 136.72 132.13 136.57 132.94 C 136.43 133.75 136.97 134.52 137.78 134.66 Z M 138.81 134.83 L 139.84 135.02 C 140.64 135.17 141.41 134.64 141.56 133.84 C 141.70 133.04 141.18 132.28 140.38 132.13 L 139.35 131.94 C 138.55 131.79 137.78 132.32 137.63 133.12 C 137.48 133.92 138.01 134.68 138.81 134.83 Z M 139.83 135.00 L 140.78 135.19 C 141.57 135.34 142.33 134.82 142.48 134.03 C 142.64 133.25 142.12 132.48 141.33 132.33 L 140.38 132.15 C 139.60 131.99 138.83 132.51 138.68 133.30 C 138.53 134.09 139.04 134.85 139.83 135.00 Z M 140.77 135.17 L 141.73 135.36 C 142.51 135.52 143.27 135.01 143.43 134.23 C 143.58 133.45 143.08 132.69 142.30 132.54 L 141.34 132.34 C 140.56 132.19 139.80 132.69 139.64 133.47 C 139.48 134.26 139.99 135.02 140.77 135.17 Z M 141.72 135.35 L 142.70 135.56 C 143.48 135.72 144.24 135.22 144.40 134.44 C 144.56 133.67 144.06 132.91 143.28 132.75 L 142.30 132.55 C 141.53 132.39 140.77 132.89 140.61 133.66 C 140.45 134.44 140.95 135.19 141.72 135.35 Z M 142.70 135.55 L 143.54 135.72 C 144.31 135.89 145.07 135.39 145.23 134.62 C 145.39 133.85 144.90 133.09 144.12 132.93 L 143.29 132.75 C 142.51 132.59 141.76 133.09 141.60 133.86 C 141.43 134.63 141.93 135.39 142.70 135.55 Z"
      fill="black"
      fill-rule="nonzero" /><path d="M 131.09 142.47 L 131.84 143.14 C 132.47 143.70 133.43 143.64 133.99 143.01 C 134.55 142.38 134.49 141.42 133.86 140.86 L 133.10 140.19 C 132.47 139.64 131.51 139.69 130.96 140.32 C 130.40 140.95 130.46 141.91 131.09 142.47 Z M 132.27 143.43 L 133.14 143.78 C 133.93 144.10 134.83 143.71 135.15 142.92 C 135.46 142.14 135.08 141.24 134.29 140.92 L 133.43 140.57 C 132.64 140.25 131.74 140.63 131.42 141.42 C 131.10 142.21 131.48 143.11 132.27 143.43 Z M 133.71 143.89 L 134.72 143.89 C 135.57 143.89 136.26 143.21 136.26 142.36 C 136.26 141.51 135.58 140.82 134.73 140.82 L 133.72 140.81 C 132.87 140.81 132.18 141.49 132.18 142.34 C 132.18 143.19 132.86 143.88 133.71 143.89 Z M 134.92 143.86 L 135.86 143.74 C 136.69 143.63 137.28 142.86 137.17 142.03 C 137.06 141.20 136.30 140.61 135.46 140.72 L 134.53 140.85 C 133.70 140.96 133.11 141.72 133.22 142.55 C 133.33 143.38 134.09 143.97 134.92 143.86 Z M 135.93 143.71 L 136.92 143.53 C 137.73 143.38 138.28 142.60 138.13 141.78 C 137.98 140.96 137.19 140.42 136.38 140.57 L 135.39 140.75 C 134.57 140.90 134.03 141.68 134.18 142.50 C 134.33 143.32 135.11 143.86 135.93 143.71 Z M 136.96 143.50 L 138.01 143.28 C 138.81 143.11 139.32 142.32 139.15 141.51 C 138.98 140.71 138.19 140.20 137.39 140.37 L 136.34 140.60 C 135.53 140.77 135.02 141.56 135.19 142.36 C 135.37 143.16 136.16 143.68 136.96 143.50 Z M 138.03 143.26 L 139.03 143.03 C 139.82 142.85 140.32 142.06 140.13 141.27 C 139.95 140.47 139.16 139.98 138.37 140.16 L 137.37 140.39 C 136.58 140.57 136.08 141.36 136.26 142.15 C 136.44 142.95 137.23 143.44 138.03 143.26 Z M 139.03 143.01 L 140.02 142.78 C 140.80 142.60 141.29 141.82 141.11 141.03 C 140.92 140.25 140.14 139.76 139.36 139.94 L 138.37 140.18 C 137.58 140.36 137.10 141.14 137.28 141.93 C 137.46 142.71 138.25 143.20 139.03 143.01 Z M 140.01 142.77 L 141.03 142.54 C 141.81 142.36 142.29 141.58 142.11 140.80 C 141.93 140.03 141.16 139.54 140.38 139.72 L 139.36 139.96 C 138.59 140.14 138.10 140.91 138.28 141.69 C 138.46 142.47 139.23 142.95 140.01 142.77 Z M 141.01 142.53 L 141.98 142.32 C 142.76 142.15 143.25 141.38 143.08 140.61 C 142.90 139.83 142.14 139.34 141.37 139.51 L 140.40 139.73 C 139.62 139.90 139.13 140.66 139.30 141.44 C 139.47 142.21 140.24 142.70 141.01 142.53 Z M 141.97 142.31 L 142.55 142.19 C 143.33 142.02 143.82 141.26 143.65 140.49 C 143.49 139.72 142.73 139.23 141.96 139.39 L 141.37 139.52 C 140.60 139.68 140.11 140.44 140.28 141.22 C 140.44 141.99 141.20 142.48 141.97 142.31 Z"
      fill="black"
      fill-rule="nonzero" /><path d="M 130.98 150.88 L 131.89 150.84 C 132.72 150.80 133.36 150.10 133.33 149.28 C 133.29 148.45 132.59 147.81 131.77 147.84 L 130.86 147.88 C 130.03 147.92 129.39 148.62 129.42 149.44 C 129.46 150.27 130.15 150.91 130.98 150.88 Z M 131.95 150.86 L 132.98 150.78 C 133.83 150.71 134.45 149.98 134.39 149.14 C 134.32 148.30 133.58 147.67 132.74 147.74 L 131.71 147.82 C 130.87 147.89 130.24 148.62 130.31 149.46 C 130.38 150.30 131.11 150.93 131.95 150.86 Z M 133.06 150.78 L 134.03 150.66 C 134.87 150.56 135.47 149.79 135.36 148.94 C 135.26 148.10 134.49 147.50 133.65 147.61 L 132.67 147.73 C 131.83 147.84 131.23 148.61 131.34 149.45 C 131.44 150.29 132.21 150.89 133.06 150.78 Z M 134.07 150.65 L 135.05 150.49 C 135.89 150.36 136.46 149.58 136.33 148.75 C 136.20 147.92 135.42 147.34 134.58 147.47 L 133.60 147.63 C 132.77 147.75 132.20 148.54 132.33 149.37 C 132.46 150.20 133.24 150.78 134.07 150.65 Z M 135.08 150.47 L 136.11 150.30 C 136.93 150.15 137.48 149.37 137.34 148.55 C 137.20 147.73 136.42 147.17 135.59 147.32 L 134.56 147.49 C 133.74 147.64 133.19 148.42 133.33 149.24 C 133.47 150.06 134.25 150.62 135.08 150.47 Z M 136.12 150.28 L 137.18 150.08 C 137.99 149.93 138.53 149.15 138.38 148.34 C 138.23 147.53 137.45 146.99 136.63 147.14 L 135.58 147.33 C 134.77 147.48 134.23 148.26 134.38 149.08 C 134.53 149.89 135.31 150.43 136.12 150.28 Z M 137.19 150.07 L 138.22 149.87 C 139.03 149.71 139.55 148.93 139.39 148.13 C 139.24 147.32 138.46 146.80 137.66 146.95 L 136.62 147.16 C 135.82 147.31 135.29 148.09 135.45 148.89 C 135.60 149.70 136.38 150.22 137.19 150.07 Z M 138.23 149.85 L 139.19 149.66 C 139.99 149.49 140.50 148.72 140.34 147.92 C 140.17 147.13 139.40 146.61 138.60 146.77 L 137.65 146.97 C 136.85 147.13 136.34 147.91 136.50 148.70 C 136.66 149.50 137.44 150.01 138.23 149.85 Z M 139.20 149.64 L 140.17 149.43 C 140.96 149.26 141.46 148.48 141.29 147.70 C 141.12 146.91 140.34 146.41 139.56 146.58 L 138.59 146.79 C 137.80 146.96 137.30 147.74 137.47 148.52 C 137.64 149.31 138.42 149.81 139.20 149.64 Z M 140.20 149.41 L 141.20 149.18 C 141.97 149.00 142.45 148.22 142.27 147.44 C 142.09 146.66 141.31 146.18 140.53 146.36 L 139.53 146.60 C 138.76 146.78 138.27 147.56 138.46 148.34 C 138.64 149.11 139.42 149.60 140.20 149.41 Z M 141.23 149.16 L 142.12 148.93 C 142.89 148.73 143.34 147.94 143.14 147.17 C 142.94 146.41 142.16 145.95 141.39 146.15 L 140.50 146.38 C 139.73 146.58 139.27 147.37 139.47 148.13 C 139.67 148.90 140.46 149.36 141.23 149.16 Z M 142.15 148.91 L 143.11 148.64 C 143.87 148.42 144.31 147.63 144.09 146.87 C 143.88 146.11 143.08 145.67 142.33 145.89 L 141.36 146.16 C 140.60 146.38 140.16 147.17 140.38 147.93 C 140.60 148.69 141.39 149.13 142.15 148.91 Z M 143.12 148.63 L 143.57 148.50 C 144.33 148.27 144.76 147.48 144.54 146.72 C 144.31 145.97 143.52 145.54 142.76 145.76 L 142.31 145.89 C 141.56 146.12 141.13 146.91 141.35 147.67 C 141.57 148.42 142.37 148.85 143.12 148.63 Z"
      fill="black"
      fill-rule="nonzero" /><path d="M 136.98 143.33 L 137.17 144.30 C 137.33 145.10 138.11 145.62 138.91 145.46 C 139.72 145.30 140.23 144.52 140.07 143.72 L 139.88 142.75 C 139.72 141.95 138.93 141.43 138.13 141.59 C 137.33 141.75 136.81 142.53 136.98 143.33 Z M 137.12 144.29 L 137.31 145.28 C 137.46 146.11 138.26 146.65 139.09 146.49 C 139.92 146.34 140.47 145.54 140.31 144.71 L 140.12 143.73 C 139.97 142.90 139.17 142.35 138.34 142.51 C 137.51 142.66 136.96 143.46 137.12 144.29 Z M 137.26 145.25 L 137.43 146.26 C 137.57 147.12 138.37 147.70 139.23 147.56 C 140.08 147.42 140.66 146.61 140.52 145.75 L 140.36 144.74 C 140.22 143.88 139.41 143.30 138.55 143.44 C 137.70 143.58 137.12 144.39 137.26 145.25 Z M 137.40 146.22 L 137.54 147.26 C 137.66 148.12 138.46 148.73 139.33 148.61 C 140.19 148.50 140.80 147.70 140.68 146.83 L 140.54 145.80 C 140.43 144.93 139.63 144.32 138.76 144.44 C 137.89 144.55 137.29 145.35 137.40 146.22 Z M 137.54 147.22 L 137.64 148.18 C 137.74 149.05 138.52 149.68 139.39 149.58 C 140.26 149.49 140.89 148.71 140.80 147.84 L 140.69 146.87 C 140.59 146.00 139.81 145.37 138.94 145.47 C 138.07 145.56 137.44 146.35 137.54 147.22 Z M 137.64 148.13 L 137.72 149.16 C 137.79 150.04 138.56 150.69 139.43 150.62 C 140.30 150.55 140.95 149.78 140.88 148.91 L 140.80 147.88 C 140.73 147.01 139.97 146.36 139.09 146.43 C 138.22 146.50 137.57 147.26 137.64 148.13 Z M 137.73 149.11 L 137.77 150.06 C 137.81 150.93 138.55 151.60 139.42 151.56 C 140.29 151.52 140.96 150.78 140.92 149.91 L 140.88 148.96 C 140.84 148.09 140.10 147.42 139.23 147.46 C 138.36 147.50 137.69 148.24 137.73 149.11 Z M 137.78 150.04 L 137.81 151.01 C 137.84 151.88 138.57 152.55 139.44 152.52 C 140.30 152.49 140.98 151.76 140.95 150.90 L 140.92 149.93 C 140.89 149.06 140.16 148.38 139.29 148.41 C 138.42 148.44 137.75 149.17 137.78 150.04 Z M 137.82 151.01 L 137.85 152.02 C 137.88 152.89 138.60 153.56 139.47 153.53 C 140.33 153.50 141.01 152.78 140.98 151.92 L 140.94 150.90 C 140.91 150.04 140.19 149.36 139.33 149.39 C 138.46 149.42 137.79 150.14 137.82 151.01 Z M 137.86 152.02 L 137.89 153.01 C 137.92 153.87 138.64 154.55 139.50 154.52 C 140.36 154.49 141.03 153.77 141.00 152.91 L 140.97 151.92 C 140.94 151.06 140.22 150.38 139.36 150.41 C 138.50 150.44 137.83 151.16 137.86 152.02 Z M 137.90 153.01 L 137.93 154.02 C 137.96 154.88 138.68 155.55 139.54 155.52 C 140.39 155.49 141.06 154.77 141.03 153.91 L 141.00 152.91 C 140.97 152.05 140.25 151.38 139.39 151.41 C 138.54 151.44 137.87 152.16 137.90 153.01 Z M 137.94 154.02 L 137.97 155.01 C 138.01 155.86 138.72 156.53 139.57 156.50 C 140.43 156.47 141.09 155.75 141.06 154.90 L 141.03 153.91 C 141.00 153.06 140.28 152.39 139.43 152.42 C 138.57 152.45 137.91 153.17 137.94 154.02 Z M 137.98 155.01 L 138.02 156.02 C 138.05 156.87 138.76 157.54 139.61 157.51 C 140.46 157.48 141.12 156.76 141.09 155.92 L 141.06 154.90 C 141.03 154.05 140.31 153.39 139.46 153.42 C 138.62 153.45 137.95 154.16 137.98 155.01 Z M 138.02 156.02 L 138.05 157.04 C 138.08 157.88 138.79 158.54 139.63 158.52 C 140.48 158.49 141.14 157.79 141.11 156.94 L 141.08 155.92 C 141.06 155.08 140.35 154.41 139.51 154.44 C 138.66 154.47 138.00 155.17 138.02 156.02 Z M 138.06 157.02 L 138.08 157.99 C 138.10 158.83 138.80 159.50 139.64 159.48 C 140.48 159.46 141.15 158.77 141.13 157.93 L 141.11 156.96 C 141.09 156.12 140.39 155.45 139.55 155.47 C 138.71 155.49 138.04 156.18 138.06 157.02 Z M 138.09 157.97 L 138.10 158.88 C 138.11 159.72 138.79 160.39 139.63 160.38 C 140.46 160.37 141.14 159.69 141.13 158.85 L 141.12 157.95 C 141.11 157.11 140.43 156.44 139.59 156.45 C 138.76 156.45 138.08 157.14 138.09 157.97 Z M 138.11 158.87 L 138.11 159.97 C 138.11 160.80 138.78 161.47 139.62 161.47 C 140.45 161.47 141.12 160.80 141.12 159.96 L 141.12 158.86 C 141.12 158.03 140.44 157.36 139.61 157.36 C 138.78 157.36 138.11 158.03 138.11 158.87 Z M 138.11 159.97 L 138.11 160.95 C 138.11 161.78 138.79 162.45 139.61 162.45 C 140.44 162.45 141.12 161.78 141.12 160.95 L 141.12 159.97 C 141.12 159.14 140.44 158.46 139.61 158.46 C 138.79 158.46 138.11 159.14 138.11 159.97 Z M 138.12 160.95 L 138.12 162.00 C 138.12 162.83 138.79 163.50 139.61 163.50 C 140.44 163.50 141.11 162.83 141.11 162.00 L 141.11 160.95 C 141.11 160.12 140.44 159.45 139.61 159.45 C 138.79 159.45 138.12 160.12 138.12 160.95 Z M 138.13 162.00 L 138.13 162.97 C 138.13 163.80 138.79 164.46 139.61 164.46 C 140.44 164.46 141.10 163.80 141.10 162.97 L 141.10 162.00 C 141.10 161.18 140.44 160.51 139.61 160.51 C 138.79 160.51 138.13 161.18 138.13 162.00 Z M 138.14 162.97 L 138.14 164.10 C 138.14 164.91 138.80 165.57 139.61 165.57 C 140.43 165.57 141.09 164.91 141.09 164.10 L 141.09 162.97 C 141.09 162.16 140.43 161.50 139.61 161.50 C 138.80 161.50 138.14 162.16 138.14 162.97 Z M 138.17 164.10 L 138.17 164.83 C 138.17 165.63 138.82 166.28 139.61 166.28 C 140.41 166.28 141.06 165.63 141.06 164.83 L 141.06 164.10 C 141.06 163.30 140.41 162.65 139.61 162.65 C 138.82 162.65 138.17 163.30 138.17 164.10 Z"
      fill="black"
      fill-rule="nonzero" /><path d="M 130.04 153.55 L 130.92 154.03 C 131.65 154.44 132.57 154.18 132.98 153.45 C 133.38 152.72 133.12 151.80 132.39 151.39 L 131.52 150.90 C 130.79 150.49 129.87 150.76 129.46 151.49 C 129.05 152.22 129.31 153.14 130.04 153.55 Z M 130.91 154.04 L 131.79 154.53 C 132.52 154.93 133.45 154.67 133.86 153.94 C 134.26 153.21 134.00 152.28 133.27 151.87 L 132.40 151.38 C 131.66 150.98 130.74 151.24 130.33 151.97 C 129.92 152.70 130.18 153.63 130.91 154.04 Z M 131.78 154.53 L 132.66 155.02 C 133.39 155.43 134.32 155.16 134.73 154.43 C 135.14 153.69 134.88 152.76 134.14 152.35 L 133.27 151.87 C 132.54 151.46 131.61 151.72 131.20 152.46 C 130.79 153.19 131.05 154.12 131.78 154.53 Z M 132.66 155.02 L 132.88 155.14 C 133.61 155.55 134.54 155.29 134.96 154.55 C 135.37 153.82 135.10 152.89 134.37 152.47 L 134.15 152.35 C 133.41 151.94 132.48 152.20 132.07 152.94 C 131.66 153.68 131.92 154.61 132.66 155.02 Z"
      fill="black"
      fill-rule="nonzero" /><path d="M 146.22 151.06 L 145.62 151.71 C 145.02 152.36 145.06 153.38 145.71 153.98 C 146.35 154.58 147.37 154.54 147.97 153.89 L 148.57 153.24 C 149.17 152.59 149.14 151.58 148.49 150.98 C 147.84 150.38 146.82 150.41 146.22 151.06 Z M 145.61 151.72 L 144.94 152.45 C 144.34 153.10 144.38 154.12 145.03 154.72 C 145.69 155.32 146.70 155.28 147.30 154.62 L 147.98 153.89 C 148.58 153.24 148.53 152.22 147.88 151.62 C 147.23 151.02 146.21 151.06 145.61 151.72 Z M 144.93 152.45 L 144.19 153.27 C 143.59 153.92 143.64 154.94 144.30 155.54 C 144.96 156.14 145.97 156.09 146.57 155.43 L 147.31 154.62 C 147.91 153.96 147.86 152.94 147.20 152.35 C 146.54 151.75 145.53 151.80 144.93 152.45 Z M 144.20 153.28 L 143.52 154.03 C 142.92 154.69 142.98 155.70 143.63 156.29 C 144.29 156.88 145.30 156.83 145.89 156.17 L 146.57 155.42 C 147.16 154.76 147.11 153.75 146.45 153.16 C 145.80 152.57 144.79 152.62 144.20 153.28 Z M 143.53 154.04 L 142.83 154.82 C 142.24 155.47 142.29 156.47 142.94 157.05 C 143.59 157.64 144.58 157.59 145.17 156.94 L 145.87 156.16 C 146.46 155.51 146.41 154.52 145.76 153.93 C 145.11 153.35 144.11 153.40 143.53 154.04 Z M 142.84 154.83 L 142.18 155.56 C 141.60 156.20 141.64 157.18 142.28 157.77 C 142.91 158.35 143.90 158.30 144.48 157.66 L 145.15 156.93 C 145.73 156.29 145.69 155.31 145.05 154.73 C 144.41 154.14 143.43 154.19 142.84 154.83 Z M 142.20 155.56 L 141.45 156.36 C 140.87 156.98 140.90 157.96 141.53 158.54 C 142.15 159.13 143.13 159.09 143.71 158.47 L 144.46 157.67 C 145.04 157.04 145.01 156.06 144.39 155.48 C 143.76 154.90 142.78 154.93 142.20 155.56 Z M 141.48 156.34 L 140.80 157.03 C 140.21 157.64 140.22 158.61 140.82 159.21 C 141.43 159.80 142.40 159.79 143.00 159.19 L 143.68 158.49 C 144.27 157.88 144.26 156.91 143.66 156.32 C 143.05 155.72 142.08 155.73 141.48 156.34 Z M 140.84 157.01 L 140.20 157.62 C 139.59 158.21 139.58 159.18 140.16 159.78 C 140.75 160.39 141.72 160.41 142.32 159.82 L 142.96 159.21 C 143.57 158.62 143.59 157.66 143.00 157.05 C 142.41 156.44 141.44 156.42 140.84 157.01 Z M 140.22 157.61 L 139.50 158.28 C 138.89 158.85 138.85 159.82 139.43 160.43 C 140.00 161.05 140.97 161.09 141.58 160.51 L 142.30 159.84 C 142.92 159.26 142.95 158.30 142.38 157.68 C 141.80 157.07 140.84 157.03 140.22 157.61 Z M 139.51 158.27 L 138.76 158.97 C 138.14 159.53 138.10 160.50 138.67 161.12 C 139.24 161.74 140.20 161.78 140.82 161.21 L 141.57 160.52 C 142.19 159.95 142.23 158.98 141.66 158.36 C 141.09 157.74 140.13 157.70 139.51 158.27 Z M 138.76 158.97 L 138.02 159.65 C 137.40 160.21 137.36 161.18 137.93 161.80 C 138.50 162.41 139.46 162.45 140.08 161.89 L 140.82 161.21 C 141.44 160.64 141.48 159.68 140.91 159.06 C 140.34 158.44 139.38 158.40 138.76 158.97 Z M 138.03 159.64 L 137.29 160.32 C 136.67 160.88 136.62 161.85 137.19 162.47 C 137.76 163.09 138.72 163.13 139.34 162.56 L 140.08 161.89 C 140.70 161.32 140.74 160.36 140.17 159.74 C 139.61 159.12 138.65 159.08 138.03 159.64 Z M 137.30 160.31 L 136.54 160.99 C 135.92 161.55 135.86 162.51 136.42 163.13 C 136.98 163.76 137.94 163.81 138.57 163.25 L 139.33 162.57 C 139.95 162.01 140.00 161.05 139.44 160.43 C 138.88 159.80 137.92 159.75 137.30 160.31 Z M 136.55 160.98 L 135.81 161.63 C 135.18 162.19 135.12 163.15 135.68 163.78 C 136.23 164.41 137.19 164.47 137.82 163.91 L 138.56 163.26 C 139.19 162.70 139.25 161.74 138.69 161.11 C 138.14 160.49 137.18 160.43 136.55 160.98 Z M 135.81 161.63 L 135.05 162.30 C 134.42 162.85 134.35 163.81 134.91 164.44 C 135.46 165.07 136.42 165.14 137.05 164.59 L 137.81 163.92 C 138.44 163.36 138.51 162.40 137.96 161.77 C 137.40 161.14 136.44 161.08 135.81 161.63 Z M 135.05 162.29 L 134.30 162.94 C 133.67 163.49 133.60 164.45 134.15 165.09 C 134.70 165.72 135.66 165.79 136.29 165.24 L 137.04 164.59 C 137.68 164.04 137.75 163.08 137.20 162.45 C 136.65 161.81 135.69 161.74 135.05 162.29 Z M 134.31 162.93 L 133.59 163.55 C 132.95 164.10 132.87 165.06 133.41 165.70 C 133.96 166.34 134.92 166.41 135.56 165.87 L 136.29 165.25 C 136.93 164.71 137.00 163.75 136.46 163.11 C 135.91 162.47 134.95 162.39 134.31 162.93 Z M 133.59 163.55 L 132.82 164.20 C 132.17 164.74 132.09 165.70 132.63 166.34 C 133.17 166.99 134.13 167.07 134.77 166.53 L 135.55 165.88 C 136.19 165.34 136.28 164.38 135.74 163.73 C 135.20 163.09 134.24 163.00 133.59 163.55 Z M 132.81 164.19 L 132.04 164.84 C 131.39 165.38 131.31 166.35 131.85 166.99 C 132.39 167.64 133.36 167.72 134.00 167.18 L 134.78 166.53 C 135.42 165.99 135.51 165.03 134.96 164.38 C 134.42 163.74 133.46 163.65 132.81 164.19 Z M 132.03 164.85 L 131.25 165.51 C 130.61 166.06 130.53 167.02 131.08 167.67 C 131.63 168.31 132.59 168.39 133.24 167.84 L 134.01 167.18 C 134.66 166.63 134.73 165.66 134.19 165.02 C 133.64 164.38 132.67 164.30 132.03 164.85 Z M 131.20 165.54 L 130.32 166.36 C 129.69 166.94 129.65 167.91 130.23 168.53 C 130.81 169.16 131.78 169.20 132.40 168.62 L 133.29 167.81 C 133.91 167.23 133.95 166.26 133.37 165.63 C 132.80 165.01 131.82 164.97 131.20 165.54 Z M 129.88 167.94 L 129.97 168.24 C 130.22 169.05 131.08 169.51 131.90 169.26 C 132.72 169.02 133.18 168.15 132.93 167.33 L 132.84 167.04 C 132.59 166.22 131.73 165.76 130.91 166.01 C 130.09 166.26 129.63 167.12 129.88 167.94 Z M 131.84 169.30 L 132.90 169.03 C 133.73 168.81 134.24 167.96 134.02 167.12 C 133.81 166.29 132.96 165.78 132.12 166.00 L 131.06 166.27 C 130.22 166.48 129.72 167.34 129.93 168.17 C 130.15 169.01 131.00 169.51 131.84 169.30 Z M 132.94 169.02 L 133.90 168.75 C 134.74 168.51 135.22 167.64 134.98 166.80 C 134.74 165.97 133.87 165.48 133.03 165.72 L 132.07 166.00 C 131.24 166.24 130.76 167.11 131.00 167.95 C 131.24 168.78 132.11 169.26 132.94 169.02 Z M 133.89 168.75 L 134.84 168.48 C 135.68 168.25 136.16 167.38 135.93 166.54 C 135.69 165.71 134.83 165.22 133.99 165.46 L 133.04 165.73 C 132.21 165.96 131.72 166.83 131.96 167.66 C 132.19 168.50 133.06 168.98 133.89 168.75 Z M 134.86 168.47 L 135.87 168.17 C 136.70 167.93 137.18 167.06 136.93 166.23 C 136.69 165.40 135.82 164.93 134.99 165.17 L 133.98 165.47 C 133.15 165.71 132.67 166.58 132.91 167.41 C 133.16 168.24 134.03 168.71 134.86 168.47 Z M 135.89 168.17 L 136.84 167.88 C 137.67 167.63 138.14 166.75 137.88 165.93 C 137.63 165.10 136.76 164.64 135.94 164.89 L 134.98 165.18 C 134.15 165.43 133.69 166.30 133.94 167.13 C 134.19 167.95 135.06 168.42 135.89 168.17 Z M 136.85 167.87 L 137.84 167.57 C 138.66 167.32 139.13 166.45 138.87 165.62 C 138.62 164.80 137.75 164.33 136.93 164.58 L 135.93 164.89 C 135.11 165.14 134.64 166.01 134.90 166.84 C 135.15 167.66 136.02 168.13 136.85 167.87 Z M 137.83 167.57 L 138.79 167.28 C 139.61 167.03 140.08 166.16 139.83 165.34 C 139.58 164.51 138.71 164.05 137.88 164.30 L 136.93 164.58 C 136.11 164.83 135.64 165.70 135.89 166.53 C 136.14 167.35 137.01 167.82 137.83 167.57 Z M 138.78 167.28 L 139.70 167.00 C 140.53 166.76 140.99 165.90 140.75 165.07 C 140.51 164.25 139.65 163.78 138.82 164.03 L 137.90 164.30 C 137.08 164.55 136.61 165.41 136.85 166.23 C 137.09 167.05 137.95 167.52 138.78 167.28 Z M 139.70 166.98 L 140.63 166.71 C 141.44 166.47 141.90 165.61 141.66 164.80 C 141.42 163.99 140.56 163.53 139.75 163.77 L 138.83 164.04 C 138.01 164.29 137.55 165.14 137.79 165.95 C 138.04 166.76 138.89 167.23 139.70 166.98 Z M 140.64 166.69 L 141.65 166.38 C 142.45 166.13 142.90 165.28 142.65 164.48 C 142.40 163.67 141.55 163.23 140.75 163.47 L 139.74 163.79 C 138.93 164.04 138.49 164.89 138.74 165.69 C 138.98 166.49 139.84 166.94 140.64 166.69 Z M 141.66 166.36 L 142.61 166.05 C 143.40 165.80 143.83 164.95 143.58 164.16 C 143.32 163.36 142.47 162.93 141.68 163.18 L 140.73 163.49 C 139.94 163.75 139.50 164.60 139.76 165.39 C 140.02 166.18 140.87 166.62 141.66 166.36 Z M 142.61 166.04 L 143.61 165.72 C 144.40 165.45 144.82 164.61 144.56 163.82 C 144.30 163.03 143.45 162.60 142.67 162.87 L 141.67 163.19 C 140.88 163.45 140.46 164.30 140.72 165.09 C 140.98 165.88 141.83 166.30 142.61 166.04 Z M 143.61 165.71 L 144.58 165.38 C 145.36 165.12 145.78 164.27 145.52 163.49 C 145.25 162.71 144.41 162.29 143.63 162.55 L 142.66 162.87 C 141.88 163.14 141.46 163.98 141.72 164.77 C 141.99 165.55 142.83 165.97 143.61 165.71 Z M 144.58 165.37 L 145.57 165.04 C 146.34 164.77 146.76 163.93 146.49 163.15 C 146.23 162.38 145.39 161.96 144.61 162.23 L 143.62 162.56 C 142.85 162.83 142.43 163.67 142.70 164.44 C 142.96 165.22 143.80 165.63 144.58 165.37 Z M 145.57 165.02 L 146.57 164.67 C 147.33 164.41 147.74 163.58 147.48 162.81 C 147.21 162.05 146.38 161.64 145.62 161.90 L 144.61 162.25 C 143.85 162.51 143.44 163.34 143.71 164.11 C 143.97 164.87 144.80 165.28 145.57 165.02 Z M 146.56 164.65 L 147.38 164.36 C 148.13 164.10 148.53 163.28 148.27 162.53 C 148.01 161.78 147.19 161.38 146.44 161.64 L 145.62 161.93 C 144.87 162.19 144.47 163.01 144.73 163.76 C 144.99 164.51 145.81 164.91 146.56 164.65 Z M 147.38 164.35 L 147.47 164.32 C 148.21 164.06 148.60 163.25 148.35 162.50 C 148.09 161.76 147.27 161.37 146.53 161.63 L 146.44 161.66 C 145.70 161.91 145.30 162.73 145.56 163.47 C 145.82 164.22 146.63 164.61 147.38 164.35 Z"
      fill="black"
      fill-rule="nonzero" /><path d="M 148.07 138.97 L 149.06 139.18 C 149.88 139.35 150.68 138.83 150.85 138.02 C 151.02 137.21 150.50 136.40 149.69 136.23 L 148.70 136.02 C 147.88 135.85 147.08 136.37 146.91 137.18 C 146.74 138.00 147.26 138.80 148.07 138.97 Z M 149.15 139.25 L 150.13 139.39 C 150.98 139.52 151.77 138.93 151.90 138.08 C 152.02 137.23 151.44 136.44 150.59 136.31 L 149.61 136.17 C 148.76 136.04 147.96 136.63 147.84 137.48 C 147.71 138.33 148.30 139.12 149.15 139.25 Z M 150.31 139.42 L 151.22 139.44 C 152.09 139.47 152.81 138.79 152.83 137.92 C 152.86 137.06 152.18 136.34 151.31 136.31 L 150.40 136.29 C 149.54 136.26 148.82 136.94 148.79 137.81 C 148.77 138.67 149.45 139.39 150.31 139.42 Z M 151.41 139.40 L 152.42 139.30 C 153.26 139.22 153.87 138.48 153.80 137.64 C 153.72 136.80 152.97 136.19 152.13 136.26 L 151.12 136.36 C 150.29 136.44 149.67 137.18 149.75 138.02 C 149.83 138.86 150.57 139.48 151.41 139.40 Z M 152.53 139.25 L 153.50 139.09 C 154.32 138.95 154.86 138.18 154.72 137.37 C 154.59 136.56 153.82 136.01 153.01 136.15 L 152.03 136.31 C 151.22 136.45 150.67 137.22 150.81 138.03 C 150.95 138.84 151.71 139.39 152.53 139.25 Z M 153.55 139.06 L 154.50 138.87 C 155.29 138.71 155.81 137.93 155.65 137.14 C 155.49 136.34 154.71 135.82 153.92 135.98 L 152.97 136.18 C 152.17 136.34 151.66 137.11 151.82 137.91 C 151.98 138.70 152.75 139.22 153.55 139.06 Z M 154.51 138.85 L 155.54 138.63 C 156.32 138.46 156.82 137.68 156.65 136.90 C 156.48 136.11 155.71 135.61 154.92 135.78 L 153.90 136.00 C 153.11 136.17 152.61 136.95 152.78 137.73 C 152.95 138.52 153.73 139.02 154.51 138.85 Z M 155.54 138.62 L 156.34 138.44 C 157.12 138.27 157.62 137.49 157.44 136.71 C 157.27 135.94 156.50 135.44 155.72 135.62 L 154.92 135.79 C 154.14 135.97 153.64 136.74 153.82 137.52 C 153.99 138.30 154.76 138.79 155.54 138.62 Z"
      fill="black"
      fill-rule="nonzero" /><path d="M 148.78 150.91 L 149.59 150.41 C 150.28 149.97 150.49 149.04 150.05 148.35 C 149.61 147.65 148.69 147.44 147.99 147.88 L 147.19 148.39 C 146.49 148.83 146.28 149.75 146.72 150.45 C 147.16 151.14 148.08 151.35 148.78 150.91 Z M 149.49 150.52 L 150.42 150.05 C 151.18 149.66 151.48 148.73 151.09 147.97 C 150.70 147.20 149.77 146.90 149.01 147.29 L 148.09 147.76 C 147.33 148.15 147.02 149.09 147.41 149.85 C 147.80 150.61 148.73 150.91 149.49 150.52 Z M 150.28 150.13 L 151.15 149.80 C 151.96 149.48 152.36 148.57 152.05 147.76 C 151.73 146.96 150.82 146.55 150.02 146.87 L 149.15 147.21 C 148.34 147.52 147.94 148.43 148.25 149.24 C 148.57 150.05 149.48 150.45 150.28 150.13 Z M 151.08 149.81 L 152.06 149.49 C 152.88 149.21 153.32 148.32 153.05 147.50 C 152.77 146.69 151.88 146.24 151.07 146.52 L 150.09 146.85 C 149.27 147.12 148.83 148.01 149.10 148.83 C 149.38 149.65 150.26 150.09 151.08 149.81 Z M 152.04 149.49 L 153.06 149.16 C 153.88 148.89 154.33 148.01 154.06 147.19 C 153.80 146.37 152.92 145.92 152.10 146.19 L 151.08 146.52 C 150.26 146.79 149.82 147.66 150.08 148.48 C 150.35 149.30 151.23 149.75 152.04 149.49 Z M 153.07 149.15 L 154.06 148.82 C 154.87 148.55 155.32 147.68 155.05 146.86 C 154.78 146.05 153.90 145.60 153.09 145.87 L 152.10 146.20 C 151.28 146.47 150.84 147.34 151.11 148.16 C 151.37 148.97 152.25 149.42 153.07 149.15 Z M 154.06 148.81 L 154.97 148.51 C 155.78 148.24 156.21 147.36 155.94 146.55 C 155.67 145.74 154.80 145.31 153.99 145.58 L 153.08 145.88 C 152.27 146.15 151.84 147.03 152.11 147.84 C 152.38 148.65 153.25 149.09 154.06 148.81 Z M 154.98 148.50 L 155.85 148.20 C 156.65 147.92 157.08 147.05 156.80 146.24 C 156.53 145.44 155.65 145.01 154.85 145.29 L 153.98 145.59 C 153.17 145.87 152.75 146.74 153.02 147.55 C 153.30 148.35 154.17 148.77 154.98 148.50 Z M 155.87 148.17 L 156.78 147.85 C 157.57 147.56 157.98 146.69 157.70 145.90 C 157.42 145.11 156.54 144.70 155.75 144.98 L 154.84 145.31 C 154.05 145.60 153.64 146.47 153.92 147.26 C 154.20 148.05 155.07 148.46 155.87 148.17 Z M 156.79 147.83 L 157.74 147.48 C 158.52 147.19 158.93 146.33 158.64 145.55 C 158.35 144.76 157.49 144.36 156.71 144.65 L 155.75 145.00 C 154.97 145.29 154.57 146.15 154.85 146.93 C 155.14 147.71 156.01 148.12 156.79 147.83 Z M 157.74 147.47 L 158.70 147.12 C 159.47 146.83 159.87 145.97 159.58 145.19 C 159.30 144.42 158.44 144.02 157.66 144.30 L 156.70 144.66 C 155.93 144.94 155.53 145.81 155.82 146.58 C 156.10 147.36 156.97 147.76 157.74 147.47 Z M 158.70 147.11 L 159.69 146.75 C 160.46 146.46 160.85 145.60 160.57 144.82 C 160.28 144.05 159.42 143.66 158.64 143.94 L 157.66 144.31 C 156.88 144.60 156.49 145.46 156.78 146.23 C 157.06 147.01 157.93 147.40 158.70 147.11 Z M 159.69 146.74 L 160.67 146.37 C 161.44 146.08 161.83 145.22 161.54 144.45 C 161.24 143.68 160.39 143.29 159.62 143.58 L 158.64 143.95 C 157.87 144.24 157.48 145.10 157.77 145.87 C 158.06 146.64 158.92 147.03 159.69 146.74 Z M 160.68 146.35 L 161.71 145.95 C 162.47 145.65 162.85 144.80 162.55 144.04 C 162.26 143.28 161.40 142.90 160.64 143.20 L 159.61 143.60 C 158.85 143.90 158.47 144.75 158.77 145.51 C 159.06 146.27 159.92 146.65 160.68 146.35 Z M 161.73 145.92 L 162.54 145.59 C 163.28 145.28 163.64 144.43 163.33 143.69 C 163.03 142.94 162.18 142.59 161.43 142.89 L 160.63 143.23 C 159.88 143.53 159.53 144.38 159.83 145.12 C 160.14 145.87 160.99 146.22 161.73 145.92 Z M 162.57 145.56 L 163.48 145.15 C 164.21 144.83 164.54 143.98 164.21 143.26 C 163.89 142.53 163.04 142.20 162.32 142.52 L 161.41 142.92 C 160.68 143.24 160.35 144.10 160.67 144.82 C 160.99 145.55 161.84 145.88 162.57 145.56 Z M 163.50 145.13 L 164.21 144.81 C 164.92 144.47 165.23 143.62 164.90 142.90 C 164.56 142.19 163.71 141.88 163.00 142.21 L 162.29 142.54 C 161.58 142.87 161.27 143.73 161.60 144.44 C 161.94 145.16 162.79 145.47 163.50 145.13 Z"
      fill="black"
      fill-rule="nonzero" /><path d="M 152.63 138.92 L 152.84 139.91 C 153.01 140.73 153.81 141.25 154.63 141.08 C 155.45 140.91 155.98 140.11 155.81 139.29 L 155.60 138.30 C 155.43 137.48 154.62 136.96 153.81 137.13 C 152.99 137.30 152.46 138.10 152.63 138.92 Z M 152.80 139.96 L 153.02 140.89 C 153.21 141.74 154.06 142.26 154.90 142.06 C 155.74 141.86 156.27 141.02 156.07 140.18 L 155.85 139.24 C 155.65 138.40 154.81 137.87 153.96 138.07 C 153.12 138.27 152.60 139.11 152.80 139.96 Z M 153.00 140.94 L 153.25 141.90 C 153.47 142.75 154.34 143.26 155.19 143.03 C 156.04 142.81 156.55 141.95 156.33 141.10 L 156.08 140.14 C 155.86 139.29 154.99 138.78 154.14 139.00 C 153.29 139.22 152.78 140.09 153.00 140.94 Z M 153.25 141.89 L 153.49 142.81 C 153.70 143.66 154.57 144.18 155.42 143.96 C 156.27 143.74 156.79 142.88 156.57 142.03 L 156.33 141.10 C 156.12 140.25 155.25 139.74 154.40 139.95 C 153.55 140.17 153.03 141.04 153.25 141.89 Z M 153.48 142.79 L 153.71 143.77 C 153.91 144.62 154.77 145.15 155.63 144.95 C 156.48 144.75 157.01 143.89 156.81 143.03 L 156.58 142.05 C 156.38 141.20 155.52 140.67 154.66 140.87 C 153.81 141.07 153.28 141.93 153.48 142.79 Z M 153.70 143.73 L 153.93 144.78 C 154.11 145.64 154.95 146.19 155.81 146.01 C 156.67 145.83 157.22 144.99 157.04 144.13 L 156.82 143.07 C 156.64 142.21 155.79 141.66 154.93 141.84 C 154.07 142.02 153.52 142.87 153.70 143.73 Z M 153.92 144.75 L 154.11 145.76 C 154.27 146.62 155.10 147.19 155.96 147.03 C 156.83 146.87 157.40 146.04 157.24 145.17 L 157.05 144.16 C 156.89 143.30 156.05 142.73 155.19 142.89 C 154.33 143.05 153.76 143.88 153.92 144.75 Z M 154.10 145.73 L 154.27 146.72 C 154.41 147.58 155.23 148.17 156.10 148.02 C 156.96 147.88 157.55 147.06 157.40 146.19 L 157.24 145.21 C 157.09 144.34 156.28 143.76 155.41 143.90 C 154.54 144.04 153.96 144.86 154.10 145.73 Z M 154.27 146.68 L 154.41 147.69 C 154.54 148.56 155.34 149.16 156.21 149.04 C 157.08 148.91 157.68 148.11 157.55 147.24 L 157.41 146.23 C 157.28 145.36 156.48 144.76 155.61 144.88 C 154.74 145.01 154.14 145.81 154.27 146.68 Z M 154.41 147.65 L 154.52 148.62 C 154.62 149.49 155.40 150.12 156.27 150.02 C 157.14 149.92 157.76 149.13 157.67 148.27 L 157.55 147.29 C 157.46 146.42 156.67 145.80 155.80 145.90 C 154.93 145.99 154.31 146.78 154.41 147.65 Z M 154.52 148.58 L 154.60 149.53 C 154.68 150.40 155.44 151.04 156.31 150.96 C 157.18 150.89 157.82 150.12 157.75 149.26 L 157.67 148.31 C 157.59 147.44 156.83 146.80 155.96 146.87 C 155.09 146.95 154.45 147.71 154.52 148.58 Z M 154.60 149.50 L 154.67 150.50 C 154.73 151.36 155.48 152.02 156.35 151.96 C 157.22 151.90 157.87 151.15 157.82 150.28 L 157.75 149.29 C 157.69 148.42 156.94 147.76 156.07 147.82 C 155.20 147.88 154.54 148.63 154.60 149.50 Z M 154.67 150.47 L 154.72 151.47 C 154.77 152.34 155.51 153.01 156.37 152.97 C 157.24 152.92 157.91 152.18 157.87 151.32 L 157.82 150.31 C 157.77 149.44 157.03 148.77 156.16 148.82 C 155.30 148.86 154.63 149.60 154.67 150.47 Z M 154.72 151.45 L 154.76 152.44 C 154.78 153.31 155.51 153.99 156.38 153.96 C 157.25 153.93 157.93 153.21 157.90 152.34 L 157.87 151.34 C 157.84 150.47 157.11 149.79 156.24 149.82 C 155.37 149.85 154.69 150.58 154.72 151.45 Z M 154.75 152.42 L 154.77 153.43 C 154.79 154.30 155.51 154.99 156.38 154.97 C 157.25 154.96 157.94 154.24 157.92 153.37 L 157.90 152.36 C 157.89 151.49 157.17 150.80 156.30 150.82 C 155.43 150.83 154.74 151.55 154.75 152.42 Z M 154.77 153.41 L 154.78 154.43 C 154.79 155.30 155.50 156.00 156.37 155.99 C 157.24 155.98 157.94 155.27 157.93 154.40 L 157.92 153.39 C 157.92 152.52 157.21 151.82 156.34 151.83 C 155.47 151.83 154.77 152.54 154.77 153.41 Z M 154.78 154.42 L 154.78 155.40 C 154.78 156.27 155.49 156.97 156.36 156.97 C 157.23 156.97 157.93 156.27 157.93 155.40 L 157.93 154.41 C 157.93 153.54 157.22 152.84 156.35 152.84 C 155.48 152.84 154.78 153.55 154.78 154.42 Z M 154.78 155.40 L 154.78 156.43 C 154.78 157.30 155.49 158.01 156.36 158.01 C 157.23 158.01 157.93 157.30 157.93 156.43 L 157.93 155.40 C 157.93 154.53 157.23 153.82 156.36 153.82 C 155.49 153.82 154.78 154.53 154.78 155.40 Z M 154.78 156.43 L 154.78 157.39 C 154.78 158.26 155.49 158.96 156.36 158.96 C 157.22 158.96 157.93 158.26 157.93 157.39 L 157.93 156.43 C 157.93 155.56 157.23 154.86 156.36 154.86 C 155.49 154.86 154.78 155.56 154.78 156.43 Z M 154.78 157.38 L 154.78 158.35 C 154.77 159.21 155.47 159.92 156.34 159.93 C 157.21 159.93 157.92 159.23 157.92 158.36 L 157.93 157.40 C 157.93 156.53 157.23 155.82 156.36 155.82 C 155.50 155.81 154.79 156.51 154.78 157.38 Z M 154.78 158.31 L 154.75 159.33 C 154.73 160.20 155.41 160.92 156.28 160.94 C 157.15 160.96 157.87 160.28 157.89 159.41 L 157.92 158.40 C 157.94 157.53 157.26 156.81 156.39 156.78 C 155.53 156.76 154.80 157.44 154.78 158.31 Z M 154.76 159.28 L 154.70 160.26 C 154.65 161.13 155.31 161.87 156.18 161.92 C 157.04 161.97 157.78 161.31 157.83 160.45 L 157.89 159.46 C 157.94 158.60 157.28 157.85 156.41 157.80 C 155.55 157.75 154.81 158.42 154.76 159.28 Z M 154.71 160.19 L 154.60 161.23 C 154.51 162.09 155.14 162.86 156.00 162.95 C 156.86 163.04 157.63 162.41 157.72 161.55 L 157.83 160.52 C 157.91 159.66 157.29 158.89 156.43 158.80 C 155.57 158.71 154.80 159.33 154.71 160.19 Z M 154.61 161.16 L 154.43 162.38 C 154.31 163.24 154.90 164.03 155.75 164.16 C 156.61 164.28 157.40 163.69 157.53 162.84 L 157.71 161.62 C 157.83 160.76 157.24 159.97 156.39 159.84 C 155.53 159.71 154.74 160.31 154.61 161.16 Z M 154.44 162.91 L 154.56 163.48 C 154.72 164.33 155.54 164.88 156.39 164.72 C 157.24 164.55 157.79 163.73 157.63 162.88 L 157.51 162.31 C 157.35 161.46 156.53 160.91 155.68 161.08 C 154.83 161.24 154.28 162.06 154.44 162.91 Z M 156.91 164.52 L 157.67 164.06 C 158.41 163.61 158.65 162.64 158.19 161.90 C 157.74 161.16 156.77 160.92 156.03 161.37 L 155.27 161.84 C 154.53 162.29 154.29 163.26 154.75 164.00 C 155.20 164.74 156.17 164.98 156.91 164.52 Z M 157.78 164.00 L 158.70 163.33 C 159.41 162.82 159.57 161.83 159.06 161.12 C 158.54 160.41 157.55 160.25 156.84 160.76 L 155.92 161.43 C 155.21 161.95 155.05 162.94 155.56 163.65 C 156.08 164.36 157.07 164.52 157.78 164.00 Z M 158.63 163.38 L 159.48 162.84 C 160.22 162.37 160.43 161.39 159.96 160.65 C 159.48 159.91 158.50 159.70 157.77 160.17 L 156.92 160.71 C 156.18 161.19 155.96 162.17 156.44 162.91 C 156.91 163.64 157.89 163.86 158.63 163.38 Z M 159.46 162.84 L 160.33 162.30 C 161.07 161.84 161.29 160.86 160.83 160.12 C 160.36 159.38 159.38 159.16 158.64 159.62 L 157.78 160.16 C 157.04 160.63 156.82 161.61 157.28 162.35 C 157.75 163.09 158.72 163.31 159.46 162.84 Z M 160.35 162.28 L 161.15 161.75 C 161.88 161.27 162.08 160.30 161.60 159.57 C 161.12 158.84 160.14 158.64 159.42 159.12 L 158.62 159.65 C 157.89 160.13 157.69 161.10 158.17 161.83 C 158.65 162.55 159.63 162.76 160.35 162.28 Z M 161.18 161.72 L 161.99 161.16 C 162.70 160.66 162.87 159.69 162.38 158.98 C 161.88 158.27 160.91 158.09 160.20 158.59 L 159.39 159.15 C 158.68 159.65 158.50 160.62 159.00 161.33 C 159.49 162.04 160.47 162.21 161.18 161.72 Z M 162.00 161.13 L 162.84 160.53 C 163.54 160.03 163.69 159.06 163.19 158.36 C 162.69 157.66 161.71 157.50 161.02 158.01 L 160.18 158.61 C 159.48 159.11 159.33 160.09 159.83 160.78 C 160.33 161.48 161.31 161.64 162.00 161.13 Z M 162.84 160.51 L 163.61 159.95 C 164.29 159.44 164.44 158.48 163.93 157.79 C 163.43 157.10 162.46 156.96 161.78 157.46 L 161.01 158.03 C 160.33 158.53 160.18 159.50 160.69 160.18 C 161.19 160.87 162.16 161.02 162.84 160.51 Z M 163.61 159.93 L 164.42 159.31 C 165.10 158.81 165.23 157.85 164.72 157.17 C 164.22 156.50 163.26 156.37 162.58 156.87 L 161.77 157.49 C 161.10 157.99 160.96 158.95 161.47 159.63 C 161.98 160.30 162.94 160.43 163.61 159.93 Z M 164.43 159.29 L 165.26 158.65 C 165.92 158.13 166.04 157.18 165.53 156.52 C 165.02 155.86 164.07 155.74 163.40 156.26 L 162.58 156.90 C 161.92 157.41 161.80 158.36 162.31 159.02 C 162.82 159.68 163.77 159.80 164.43 159.29 Z M 165.27 158.62 L 166.07 157.98 C 166.71 157.46 166.81 156.52 166.29 155.87 C 165.78 155.23 164.83 155.13 164.19 155.65 L 163.39 156.28 C 162.75 156.80 162.65 157.74 163.17 158.39 C 163.68 159.03 164.63 159.14 165.27 158.62 Z M 166.07 157.95 L 166.84 157.31 C 167.47 156.79 167.56 155.86 167.04 155.23 C 166.52 154.60 165.58 154.51 164.95 155.03 L 164.18 155.67 C 163.55 156.19 163.47 157.13 163.99 157.76 C 164.51 158.39 165.44 158.47 166.07 157.95 Z M 166.84 157.29 L 167.60 156.65 C 168.22 156.12 168.30 155.20 167.78 154.58 C 167.25 153.97 166.33 153.89 165.71 154.41 L 164.95 155.06 C 164.34 155.58 164.26 156.50 164.78 157.12 C 165.30 157.74 166.23 157.81 166.84 157.29 Z M 167.60 156.63 L 168.31 156.02 C 168.91 155.51 168.99 154.59 168.47 153.99 C 167.95 153.38 167.03 153.31 166.43 153.83 L 165.72 154.43 C 165.11 154.95 165.04 155.86 165.56 156.47 C 166.08 157.08 166.99 157.15 167.60 156.63 Z"
      fill="black"
      fill-rule="nonzero" /><path d="M 167.35 151.25 L 167.97 152.02 C 168.49 152.69 169.45 152.80 170.12 152.28 C 170.78 151.76 170.90 150.79 170.37 150.13 L 169.76 149.35 C 169.23 148.69 168.27 148.57 167.61 149.10 C 166.94 149.62 166.83 150.58 167.35 151.25 Z M 167.90 152.04 L 168.51 152.84 C 169.04 153.54 170.04 153.68 170.74 153.15 C 171.44 152.61 171.58 151.61 171.05 150.91 L 170.44 150.11 C 169.91 149.41 168.91 149.28 168.21 149.81 C 167.51 150.34 167.37 151.34 167.90 152.04 Z M 168.48 152.80 L 169.06 153.61 C 169.57 154.33 170.57 154.49 171.28 153.98 C 172.00 153.47 172.16 152.48 171.65 151.76 L 171.07 150.95 C 170.56 150.24 169.57 150.07 168.85 150.58 C 168.14 151.09 167.97 152.09 168.48 152.80 Z M 169.10 153.54 L 169.67 154.37 C 170.14 155.06 171.09 155.24 171.78 154.77 C 172.47 154.29 172.65 153.35 172.17 152.66 L 171.61 151.83 C 171.13 151.14 170.19 150.96 169.50 151.44 C 168.81 151.91 168.63 152.85 169.10 153.54 Z M 169.71 154.33 L 169.91 154.62 C 170.36 155.29 171.27 155.47 171.94 155.02 C 172.60 154.57 172.78 153.66 172.33 152.99 L 172.13 152.70 C 171.68 152.03 170.77 151.86 170.11 152.31 C 169.44 152.76 169.26 153.66 169.71 154.33 Z"
      fill="black"
      fill-rule="nonzero" /></svg>