<svg xmlns="http://www.w3.org/2000/svg" width="300" height="300" viewBox="0 0 300 300">
<path d="M 135.80 127.86 L 135.04 127.14 C 134.43 126.55 133.45 126.58 132.86 127.19 C 132.27 127.81 132.30 128.79 132.91 129.38 L 133.67 130.10 C 134.29 130.68 135.26 130.66 135.85 130.04 C 136.44 129.43 136.42 128.45 135.80 127.86 Z M 134.05 129.83 L 134.76 129.80 C 135.63 129.76 136.30 129.02 136.26 128.15 C 136.22 127.28 135.48 126.61 134.61 126.65 L 133.90 126.68 C 133.03 126.72 132.36 127.46 132.40 128.33 C 132.44 129.20 133.18 129.88 134.05 129.83 Z M 134.30 129.74 L 135.39 130.02 C 136.23 130.23 137.08 129.73 137.30 128.89 C 137.51 128.05 137.00 127.20 136.16 126.98 L 135.07 126.71 C 134.23 126.49 133.38 127.00 133.16 127.84 C 132.95 128.68 133.46 129.53 134.30 129.74 Z M 135.32 129.96 L 136.28 130.26 C 137.08 130.51 137.94 130.06 138.19 129.26 C 138.45 128.45 138.00 127.59 137.19 127.34 L 136.24 127.04 C 135.43 126.79 134.57 127.24 134.32 128.05 C 134.07 128.85 134.52 129.71 135.32 129.96 Z M 136.30 130.23 L 137.26 130.52 C 138.05 130.76 138.88 130.31 139.12 129.52 C 139.36 128.73 138.91 127.90 138.12 127.66 L 137.17 127.37 C 136.38 127.13 135.54 127.58 135.30 128.37 C 135.06 129.16 135.51 129.99 136.30 130.23 Z M 137.28 130.50 L 138.24 130.78 C 139.02 131.01 139.83 130.57 140.06 129.79 C 140.29 129.01 139.85 128.20 139.07 127.97 L 138.11 127.68 C 137.33 127.45 136.51 127.90 136.28 128.68 C 136.05 129.45 136.50 130.27 137.28 130.50 Z M 138.23 130.76 L 139.20 131.06 C 139.96 131.29 140.77 130.86 141.00 130.10 C 141.24 129.33 140.81 128.52 140.04 128.29 L 139.08 127.99 C 138.31 127.76 137.50 128.18 137.27 128.95 C 137.03 129.71 137.46 130.52 138.23 130.76 Z M 139.19 131.04 L 139.91 131.27 C 140.67 131.50 141.47 131.08 141.71 130.33 C 141.95 129.57 141.53 128.77 140.77 128.53 L 140.05 128.30 C 139.30 128.06 138.49 128.48 138.25 129.24 C 138.01 130.00 138.43 130.80 139.19 131.04 Z"
      fill="black"
      fill-rule="nonzero" /><path d="M 130.04 139.80 L 129.37 140.67 C 128.85 141.34 128.97 142.30 129.64 142.81 C 130.31 143.33 131.27 143.20 131.78 142.54 L 132.45 141.67 C 132.97 141.00 132.85 140.04 132.18 139.53 C 131.51 139.01 130.55 139.14 130.04 139.80 Z M 130.03 143.08 L 130.55 143.27 C 131.36 143.57 132.27 143.16 132.57 142.34 C 132.87 141.53 132.46 140.62 131.64 140.32 L 131.12 140.13 C 130.31 139.83 129.40 140.24 129.10 141.06 C 128.80 141.87 129.21 142.78 130.03 143.08 Z M 131.49 143.33 L 132.54 143.06 C 133.38 142.84 133.89 141.98 133.67 141.13 C 133.46 140.29 132.59 139.78 131.75 139.99 L 130.70 140.26 C 129.85 140.48 129.34 141.34 129.56 142.19 C 129.78 143.04 130.64 143.55 131.49 143.33 Z M 132.66 143.02 L 133.53 142.72 C 134.36 142.44 134.80 141.53 134.51 140.71 C 134.23 139.88 133.32 139.44 132.50 139.73 L 131.62 140.03 C 130.80 140.31 130.36 141.22 130.64 142.04 C 130.93 142.87 131.83 143.31 132.66 143.02 Z M 133.54 142.72 L 134.64 142.33 C 135.47 142.04 135.90 141.13 135.61 140.31 C 135.32 139.48 134.41 139.05 133.59 139.34 L 132.49 139.73 C 131.66 140.02 131.23 140.93 131.52 141.75 C 131.81 142.58 132.72 143.01 133.54 142.72 Z M 134.62 142.34 L 135.57 142.01 C 136.40 141.73 136.84 140.83 136.56 140.00 C 136.28 139.18 135.38 138.73 134.55 139.01 L 133.60 139.34 C 132.78 139.62 132.33 140.52 132.61 141.35 C 132.90 142.17 133.80 142.62 134.62 142.34 Z M 135.56 142.02 L 136.56 141.68 C 137.39 141.41 137.84 140.51 137.57 139.68 C 137.29 138.85 136.40 138.40 135.57 138.68 L 134.57 139.01 C 133.74 139.29 133.29 140.18 133.56 141.01 C 133.83 141.84 134.73 142.29 135.56 142.02 Z M 136.56 141.69 L 137.50 141.38 C 138.33 141.11 138.79 140.21 138.52 139.38 C 138.25 138.55 137.35 138.10 136.52 138.37 L 135.58 138.68 C 134.75 138.95 134.29 139.84 134.56 140.67 C 134.83 141.50 135.73 141.96 136.56 141.69 Z M 137.50 141.38 L 138.55 141.04 C 139.38 140.77 139.83 139.88 139.57 139.05 C 139.30 138.22 138.41 137.77 137.58 138.03 L 136.53 138.37 C 135.70 138.64 135.25 139.52 135.51 140.35 C 135.78 141.18 136.67 141.64 137.50 141.38 Z M 138.52 141.04 L 139.42 140.77 C 140.25 140.51 140.72 139.64 140.47 138.81 C 140.21 137.98 139.34 137.51 138.51 137.76 L 137.61 138.03 C 136.78 138.29 136.31 139.16 136.56 139.99 C 136.82 140.82 137.69 141.29 138.52 141.04 Z M 139.36 140.77 L 140.24 140.54 C 141.07 140.32 141.57 139.47 141.35 138.64 C 141.13 137.80 140.27 137.30 139.44 137.52 L 138.57 137.75 C 137.73 137.97 137.23 138.83 137.45 139.66 C 137.67 140.50 138.53 140.99 139.36 140.77 Z M 140.20 140.54 L 141.18 140.31 C 142.01 140.11 142.52 139.26 142.32 138.43 C 142.12 137.59 141.28 137.08 140.44 137.29 L 139.47 137.52 C 138.64 137.72 138.12 138.57 138.33 139.40 C 138.53 140.24 139.37 140.75 140.20 140.54 Z M 141.19 140.30 L 142.16 140.05 C 142.99 139.84 143.49 138.99 143.28 138.16 C 143.06 137.33 142.22 136.84 141.39 137.05 L 140.42 137.30 C 139.60 137.51 139.10 138.35 139.31 139.18 C 139.52 140.01 140.37 140.51 141.19 140.30 Z M 142.14 140.05 L 143.08 139.82 C 143.90 139.62 144.41 138.79 144.21 137.96 C 144.01 137.13 143.18 136.62 142.35 136.82 L 141.41 137.05 C 140.59 137.25 140.08 138.08 140.28 138.91 C 140.48 139.74 141.31 140.25 142.14 140.05 Z M 143.01 139.83 L 144.01 139.63 C 144.84 139.46 145.38 138.65 145.21 137.82 C 145.05 136.99 144.24 136.45 143.41 136.62 L 142.41 136.82 C 141.58 136.98 141.04 137.79 141.21 138.62 C 141.37 139.45 142.18 139.99 143.01 139.83 Z M 143.95 139.63 L 144.87 139.48 C 145.71 139.35 146.27 138.57 146.14 137.73 C 146.01 136.90 145.22 136.34 144.39 136.47 L 143.47 136.62 C 142.63 136.75 142.07 137.53 142.20 138.37 C 142.33 139.20 143.12 139.76 143.95 139.63 Z M 144.83 139.48 L 145.84 139.35 C 146.67 139.24 147.26 138.48 147.15 137.65 C 147.05 136.82 146.29 136.23 145.46 136.34 L 144.44 136.47 C 143.61 136.58 143.02 137.34 143.13 138.17 C 143.23 139.00 144.00 139.59 144.83 139.48 Z M 145.79 139.35 L 146.98 139.24 C 147.82 139.16 148.43 138.42 148.35 137.59 C 148.27 136.75 147.53 136.15 146.70 136.22 L 145.50 136.34 C 144.67 136.42 144.06 137.16 144.14 137.99 C 144.22 138.82 144.96 139.43 145.79 139.35 Z M 146.90 139.24 L 148.00 139.20 C 148.83 139.17 149.49 138.46 149.45 137.63 C 149.42 136.79 148.72 136.14 147.88 136.18 L 146.78 136.22 C 145.95 136.25 145.30 136.95 145.33 137.79 C 145.36 138.62 146.06 139.27 146.90 139.24 Z M 147.35 139.09 L 147.77 139.27 C 148.55 139.59 149.44 139.23 149.77 138.45 C 150.09 137.68 149.73 136.79 148.95 136.46 L 148.53 136.28 C 147.76 135.96 146.86 136.32 146.54 137.10 C 146.21 137.87 146.58 138.77 147.35 139.09 Z M 147.46 136.62 L 146.55 137.27 C 145.86 137.77 145.71 138.73 146.20 139.42 C 146.70 140.11 147.67 140.27 148.36 139.77 L 149.26 139.11 C 149.95 138.62 150.11 137.65 149.61 136.96 C 149.11 136.27 148.15 136.12 147.46 136.62 Z M 146.50 137.29 L 145.69 137.91 C 145.01 138.44 144.89 139.42 145.42 140.10 C 145.95 140.78 146.93 140.91 147.61 140.38 L 148.41 139.75 C 149.09 139.22 149.21 138.24 148.68 137.56 C 148.16 136.88 147.18 136.76 146.50 137.29 Z M 145.60 137.98 L 144.87 138.64 C 144.23 139.22 144.17 140.21 144.75 140.86 C 145.34 141.50 146.33 141.55 146.97 140.97 L 147.70 140.31 C 148.35 139.73 148.40 138.74 147.82 138.09 C 147.24 137.45 146.24 137.40 145.60 137.98 Z M 144.80 138.69 L 144.08 139.42 C 143.47 140.04 143.47 141.04 144.09 141.65 C 144.71 142.27 145.71 142.26 146.32 141.64 L 147.04 140.91 C 147.65 140.30 147.65 139.30 147.03 138.68 C 146.41 138.07 145.41 138.07 144.80 138.69 Z M 144.00 139.50 L 143.37 140.22 C 142.80 140.89 142.88 141.89 143.54 142.46 C 144.20 143.03 145.20 142.96 145.77 142.29 L 146.40 141.57 C 146.97 140.90 146.90 139.90 146.23 139.33 C 145.57 138.76 144.57 138.83 144.00 139.50 Z M 143.32 140.29 L 142.71 141.08 C 142.17 141.77 142.30 142.77 142.99 143.30 C 143.68 143.84 144.68 143.71 145.22 143.02 L 145.83 142.23 C 146.36 141.54 146.23 140.54 145.54 140.00 C 144.85 139.47 143.85 139.60 143.32 140.29 Z M 142.68 141.12 L 142.08 141.94 C 141.57 142.65 141.73 143.65 142.44 144.16 C 143.15 144.67 144.14 144.51 144.65 143.80 L 145.25 142.98 C 145.76 142.27 145.60 141.28 144.89 140.76 C 144.18 140.25 143.19 140.41 142.68 141.12 Z M 142.05 141.98 L 141.49 142.81 C 141.00 143.53 141.18 144.52 141.91 145.01 C 142.63 145.51 143.62 145.32 144.11 144.59 L 144.68 143.77 C 145.17 143.04 144.98 142.05 144.26 141.56 C 143.54 141.07 142.55 141.25 142.05 141.98 Z M 141.46 142.86 L 140.92 143.71 C 140.45 144.45 140.68 145.43 141.42 145.90 C 142.16 146.37 143.14 146.14 143.61 145.40 L 144.14 144.55 C 144.61 143.80 144.39 142.82 143.65 142.36 C 142.91 141.89 141.93 142.11 141.46 142.86 Z M 140.90 143.75 L 140.40 144.59 C 139.96 145.35 140.21 146.32 140.96 146.76 C 141.72 147.21 142.69 146.96 143.13 146.20 L 143.63 145.36 C 144.07 144.61 143.82 143.64 143.07 143.19 C 142.31 142.75 141.34 143.00 140.90 143.75 Z M 140.40 144.61 L 139.93 145.42 C 139.49 146.17 139.75 147.14 140.50 147.58 C 141.26 148.02 142.23 147.76 142.66 147.00 L 143.13 146.19 C 143.57 145.44 143.32 144.47 142.56 144.03 C 141.80 143.59 140.84 143.85 140.40 144.61 Z M 139.94 145.40 L 139.41 146.30 C 138.96 147.05 139.20 148.02 139.95 148.46 C 140.70 148.91 141.66 148.67 142.11 147.92 L 142.65 147.02 C 143.09 146.27 142.85 145.30 142.10 144.86 C 141.36 144.41 140.39 144.66 139.94 145.40 Z M 139.43 146.28 L 138.90 147.14 C 138.44 147.87 138.66 148.84 139.40 149.30 C 140.13 149.75 141.10 149.53 141.55 148.79 L 142.09 147.94 C 142.54 147.20 142.32 146.24 141.59 145.78 C 140.85 145.33 139.89 145.55 139.43 146.28 Z M 138.92 147.12 L 138.37 147.97 C 137.90 148.68 138.10 149.65 138.82 150.12 C 139.54 150.59 140.50 150.39 140.97 149.67 L 141.53 148.82 C 142.00 148.10 141.79 147.14 141.08 146.67 C 140.36 146.20 139.40 146.40 138.92 147.12 Z M 138.41 147.92 L 137.80 148.78 C 137.30 149.47 137.46 150.44 138.16 150.94 C 138.86 151.43 139.82 151.27 140.32 150.57 L 140.93 149.72 C 141.43 149.02 141.26 148.05 140.57 147.56 C 139.87 147.06 138.90 147.22 138.41 147.92 Z M 137.83 148.73 L 137.25 149.48 C 136.73 150.16 136.86 151.14 137.53 151.66 C 138.21 152.18 139.19 152.05 139.71 151.37 L 140.29 150.62 C 140.81 149.94 140.68 148.97 140.00 148.44 C 139.32 147.92 138.35 148.05 137.83 148.73 Z M 137.26 149.47 L 137.20 149.54 C 136.68 150.22 136.79 151.19 137.47 151.72 C 138.15 152.25 139.12 152.13 139.65 151.45 L 139.70 151.38 C 140.23 150.71 140.11 149.73 139.44 149.20 C 138.76 148.68 137.78 148.80 137.26 149.47 Z"
      fill="black"
      fill-rule="nonzero" /><path d="M 134.47 146.95 L 135.50 146.95 C 136.34 146.95 137.02 146.26 137.02 145.42 C 137.02 144.57 136.34 143.89 135.50 143.89 L 134.47 143.89 C 133.63 143.89 132.95 144.57 132.95 145.42 C 132.95 146.26 133.63 146.95 134.47 146.95 Z M 135.50 146.98 L 136.50 146.98 C 137.36 146.98 138.06 146.28 138.06 145.42 C 138.06 144.55 137.36 143.86 136.50 143.86 L 135.50 143.86 C 134.63 143.86 133.93 144.55 133.93 145.42 C 133.93 146.28 134.63 146.98 135.50 146.98 Z M 136.50 147.01 L 137.49 147.01 C 138.37 147.01 139.08 146.29 139.08 145.42 C 139.08 144.54 138.37 143.83 137.49 143.83 L 136.50 143.83 C 135.62 143.83 134.91 144.54 134.91 145.42 C 134.91 146.29 135.62 147.01 136.50 147.01 Z M 137.49 147.00 L 138.49 147.00 C 139.36 147.00 140.07 146.29 140.07 145.42 C 140.07 144.54 139.36 143.83 138.49 143.83 L 137.49 143.83 C 136.61 143.83 135.91 144.54 135.91 145.42 C 135.91 146.29 136.61 147.00 137.49 147.00 Z M 138.49 146.99 L 139.47 146.99 C 140.34 146.99 141.04 146.28 141.04 145.42 C 141.04 144.55 140.34 143.85 139.47 143.85 L 138.49 143.85 C 137.62 143.85 136.92 144.55 136.92 145.42 C 136.92 146.28 137.62 146.99 138.49 146.99 Z M 139.47 146.97 L 140.46 146.97 C 141.32 146.97 142.01 146.27 142.01 145.42 C 142.01 144.56 141.32 143.87 140.46 143.87 L 139.47 143.87 C 138.62 143.87 137.92 144.56 137.92 145.42 C 137.92 146.27 138.62 146.97 139.47 146.97 Z M 140.46 146.94 L 141.47 146.94 C 142.31 146.94 143.00 146.26 143.00 145.42 C 143.00 144.58 142.31 143.89 141.47 143.89 L 140.46 143.89 C 139.62 143.89 138.94 144.58 138.94 145.42 C 138.94 146.26 139.62 146.94 140.46 146.94 Z M 141.47 146.92 L 142.48 146.92 C 143.31 146.92 143.98 146.25 143.98 145.42 C 143.98 144.59 143.31 143.92 142.48 143.92 L 141.47 143.92 C 140.64 143.92 139.97 144.59 139.97 145.42 C 139.97 146.25 140.64 146.92 141.47 146.92 Z M 142.47 146.90 L 143.47 146.90 C 144.29 146.91 144.95 146.25 144.96 145.43 C 144.96 144.62 144.30 143.95 143.49 143.95 L 142.49 143.94 C 141.67 143.93 141.01 144.59 141.00 145.41 C 141.00 146.23 141.65 146.89 142.47 146.90 Z M 143.45 146.88 L 144.45 146.90 C 145.26 146.91 145.92 146.27 145.94 145.47 C 145.95 144.66 145.31 144.00 144.50 143.98 L 143.50 143.97 C 142.70 143.95 142.03 144.59 142.02 145.40 C 142.01 146.20 142.65 146.87 143.45 146.88 Z M 144.44 146.88 L 145.44 146.91 C 146.23 146.94 146.90 146.31 146.92 145.51 C 146.94 144.72 146.31 144.05 145.52 144.03 L 144.52 144.00 C 143.72 143.98 143.06 144.60 143.04 145.40 C 143.01 146.20 143.64 146.86 144.44 146.88 Z M 145.43 146.90 L 146.02 146.92 C 146.81 146.95 147.48 146.33 147.50 145.54 C 147.53 144.75 146.91 144.08 146.12 144.06 L 145.52 144.04 C 144.73 144.01 144.07 144.63 144.05 145.42 C 144.02 146.21 144.64 146.88 145.43 146.90 Z"
      fill="black"
      fill-rule="nonzero" /><path d="M 128.89 154.54 L 127.74 155.02 C 126.97 155.34 126.62 156.21 126.93 156.97 C 127.25 157.74 128.13 158.10 128.89 157.78 L 130.04 157.29 C 130.81 156.98 131.17 156.10 130.85 155.34 C 130.53 154.58 129.65 154.22 128.89 154.54 Z M 127.54 155.04 L 126.91 155.40 C 126.17 155.82 125.90 156.78 126.33 157.53 C 126.76 158.28 127.71 158.54 128.46 158.11 L 129.09 157.75 C 129.83 157.33 130.10 156.38 129.67 155.63 C 129.24 154.88 128.29 154.61 127.54 155.04 Z M 127.47 158.35 L 128.22 158.45 C 129.11 158.57 129.92 157.95 130.03 157.07 C 130.15 156.18 129.53 155.37 128.65 155.26 L 127.90 155.16 C 127.01 155.04 126.20 155.66 126.09 156.54 C 125.97 157.43 126.59 158.24 127.47 158.35 Z M 128.67 158.47 L 129.68 158.33 C 130.58 158.20 131.20 157.37 131.07 156.47 C 130.94 155.58 130.11 154.96 129.22 155.09 L 128.20 155.23 C 127.31 155.36 126.69 156.19 126.82 157.09 C 126.95 157.98 127.78 158.60 128.67 158.47 Z M 129.78 158.32 L 130.77 158.11 C 131.66 157.93 132.23 157.07 132.05 156.18 C 131.87 155.29 131.01 154.72 130.12 154.90 L 129.12 155.10 C 128.24 155.28 127.66 156.15 127.84 157.03 C 128.02 157.92 128.89 158.50 129.78 158.32 Z M 130.81 158.11 L 131.86 157.87 C 132.75 157.66 133.30 156.78 133.10 155.90 C 132.90 155.02 132.02 154.46 131.13 154.66 L 130.08 154.90 C 129.20 155.11 128.64 155.99 128.84 156.87 C 129.05 157.75 129.93 158.31 130.81 158.11 Z M 131.88 157.86 L 132.89 157.62 C 133.77 157.41 134.31 156.53 134.10 155.65 C 133.89 154.77 133.01 154.22 132.13 154.43 L 131.12 154.67 C 130.24 154.88 129.70 155.76 129.90 156.64 C 130.11 157.52 131.00 158.07 131.88 157.86 Z M 132.89 157.61 L 133.86 157.38 C 134.73 157.17 135.27 156.29 135.06 155.41 C 134.85 154.54 133.97 154.00 133.09 154.21 L 132.13 154.44 C 131.25 154.65 130.71 155.53 130.92 156.41 C 131.13 157.28 132.01 157.82 132.89 157.61 Z M 133.85 157.38 L 134.86 157.13 C 135.73 156.93 136.27 156.05 136.07 155.18 C 135.86 154.30 134.98 153.76 134.11 153.97 L 133.10 154.21 C 132.22 154.42 131.68 155.30 131.89 156.17 C 132.10 157.04 132.98 157.58 133.85 157.38 Z M 134.85 157.13 L 135.79 156.92 C 136.66 156.71 137.21 155.84 137.01 154.97 C 136.80 154.09 135.93 153.55 135.06 153.75 L 134.12 153.97 C 133.24 154.17 132.70 155.05 132.90 155.92 C 133.10 156.79 133.98 157.34 134.85 157.13 Z M 135.78 156.91 L 136.71 156.70 C 137.58 156.51 138.13 155.64 137.93 154.77 C 137.74 153.90 136.87 153.35 136.00 153.55 L 135.07 153.76 C 134.20 153.95 133.65 154.82 133.85 155.69 C 134.04 156.56 134.91 157.11 135.78 156.91 Z M 136.70 156.70 L 137.68 156.48 C 138.55 156.28 139.10 155.42 138.91 154.56 C 138.71 153.69 137.85 153.14 136.98 153.33 L 136.01 153.55 C 135.14 153.75 134.59 154.61 134.78 155.47 C 134.98 156.34 135.84 156.89 136.70 156.70 Z M 137.68 156.47 L 138.65 156.25 C 139.51 156.06 140.06 155.20 139.86 154.34 C 139.67 153.48 138.82 152.94 137.96 153.13 L 136.99 153.35 C 136.12 153.54 135.58 154.39 135.77 155.25 C 135.96 156.12 136.82 156.66 137.68 156.47 Z M 138.65 156.24 L 139.63 156.02 C 140.49 155.82 141.03 154.97 140.83 154.12 C 140.64 153.26 139.79 152.73 138.93 152.92 L 137.95 153.14 C 137.10 153.33 136.56 154.18 136.75 155.04 C 136.95 155.90 137.80 156.43 138.65 156.24 Z M 139.64 156.00 L 140.46 155.81 C 141.31 155.62 141.83 154.77 141.64 153.92 C 141.44 153.08 140.59 152.55 139.75 152.74 L 138.93 152.93 C 138.08 153.13 137.55 153.98 137.75 154.82 C 137.95 155.67 138.79 156.20 139.64 156.00 Z M 140.46 155.80 L 141.45 155.56 C 142.29 155.37 142.81 154.52 142.61 153.69 C 142.41 152.85 141.57 152.33 140.73 152.53 L 139.74 152.76 C 138.90 152.96 138.38 153.80 138.58 154.64 C 138.78 155.48 139.62 156.00 140.46 155.80 Z M 141.45 155.55 L 142.52 155.30 C 143.35 155.10 143.86 154.26 143.66 153.43 C 143.46 152.60 142.63 152.08 141.79 152.28 L 140.73 152.54 C 139.90 152.74 139.38 153.57 139.58 154.41 C 139.78 155.24 140.62 155.75 141.45 155.55 Z M 142.52 155.29 L 143.48 155.06 C 144.31 154.86 144.81 154.03 144.62 153.20 C 144.42 152.37 143.58 151.86 142.76 152.06 L 141.79 152.29 C 140.97 152.49 140.46 153.32 140.66 154.15 C 140.86 154.98 141.69 155.49 142.52 155.29 Z M 143.47 155.05 L 144.49 154.81 C 145.32 154.61 145.83 153.78 145.63 152.96 C 145.43 152.13 144.61 151.63 143.78 151.82 L 142.76 152.07 C 141.94 152.26 141.43 153.09 141.62 153.91 C 141.82 154.74 142.65 155.25 143.47 155.05 Z M 144.49 154.80 L 145.49 154.57 C 146.31 154.37 146.82 153.55 146.63 152.73 C 146.43 151.91 145.61 151.40 144.79 151.59 L 143.79 151.83 C 142.97 152.02 142.46 152.84 142.65 153.66 C 142.84 154.49 143.67 154.99 144.49 154.80 Z M 145.48 154.56 L 146.54 154.32 C 147.36 154.13 147.87 153.32 147.68 152.50 C 147.50 151.68 146.68 151.17 145.87 151.36 L 144.80 151.60 C 143.99 151.79 143.47 152.60 143.66 153.42 C 143.85 154.23 144.66 154.75 145.48 154.56 Z M 146.52 154.31 L 147.55 154.08 C 148.36 153.91 148.87 153.11 148.70 152.30 C 148.52 151.48 147.72 150.97 146.91 151.15 L 145.88 151.37 C 145.07 151.54 144.56 152.34 144.73 153.16 C 144.91 153.97 145.71 154.48 146.52 154.31 Z M 147.53 154.07 L 148.42 153.88 C 149.22 153.72 149.74 152.93 149.57 152.13 C 149.40 151.32 148.62 150.81 147.81 150.98 L 146.93 151.16 C 146.12 151.33 145.61 152.11 145.78 152.92 C 145.94 153.72 146.73 154.23 147.53 154.07 Z M 148.41 153.87 L 149.35 153.67 C 150.14 153.51 150.65 152.73 150.49 151.94 C 150.32 151.15 149.55 150.64 148.76 150.80 L 147.82 150.99 C 147.03 151.16 146.52 151.93 146.68 152.73 C 146.84 153.52 147.62 154.03 148.41 153.87 Z M 149.35 153.66 L 150.32 153.45 C 151.11 153.29 151.61 152.52 151.45 151.74 C 151.29 150.95 150.52 150.45 149.73 150.61 L 148.76 150.82 C 147.97 150.98 147.47 151.75 147.63 152.53 C 147.79 153.32 148.56 153.82 149.35 153.66 Z M 150.32 153.44 L 151.04 153.29 C 151.82 153.13 152.32 152.37 152.16 151.59 C 152.00 150.81 151.23 150.31 150.46 150.47 L 149.73 150.63 C 148.96 150.79 148.46 151.55 148.62 152.33 C 148.78 153.10 149.55 153.60 150.32 153.44 Z"
      fill="black"
      fill-rule="nonzero" /><path d="M 135.45 153.75 L 134.36 153.80 C 133.53 153.84 132.89 154.54 132.93 155.37 C 132.96 156.20 133.67 156.84 134.50 156.80 L 135.59 156.75 C 136.42 156.71 137.06 156.01 137.02 155.18 C 136.99 154.35 136.28 153.71 135.45 153.75 Z M 133.72 153.91 L 132.98 154.29 C 132.22 154.68 131.91 155.61 132.30 156.38 C 132.69 157.14 133.63 157.45 134.39 157.06 L 135.13 156.68 C 135.90 156.30 136.20 155.36 135.81 154.60 C 135.42 153.83 134.49 153.53 133.72 153.91 Z M 132.13 155.37 L 131.94 156.31 C 131.77 157.18 132.33 158.01 133.19 158.18 C 134.05 158.35 134.89 157.79 135.06 156.93 L 135.25 155.99 C 135.42 155.12 134.86 154.29 134.00 154.12 C 133.14 153.95 132.30 154.51 132.13 155.37 Z M 131.89 156.69 L 131.93 157.62 C 131.97 158.50 132.71 159.19 133.60 159.16 C 134.49 159.12 135.18 158.37 135.14 157.49 L 135.10 156.56 C 135.07 155.67 134.32 154.98 133.43 155.02 C 132.55 155.06 131.86 155.80 131.89 156.69 Z M 131.92 157.65 L 131.98 158.65 C 132.04 159.54 132.80 160.22 133.69 160.17 C 134.58 160.11 135.26 159.35 135.21 158.46 L 135.15 157.46 C 135.10 156.57 134.33 155.89 133.44 155.94 C 132.55 155.99 131.87 156.76 131.92 157.65 Z M 131.98 158.64 L 132.04 159.73 C 132.09 160.63 132.85 161.31 133.75 161.26 C 134.64 161.21 135.33 160.45 135.28 159.55 L 135.21 158.46 C 135.16 157.57 134.40 156.88 133.50 156.94 C 132.61 156.99 131.93 157.75 131.98 158.64 Z M 132.03 159.72 L 132.09 160.76 C 132.13 161.66 132.89 162.35 133.79 162.30 C 134.69 162.26 135.38 161.50 135.33 160.60 L 135.28 159.56 C 135.23 158.67 134.47 157.98 133.58 158.02 C 132.68 158.07 131.99 158.83 132.03 159.72 Z M 132.09 160.75 L 132.13 161.78 C 132.17 162.68 132.93 163.38 133.83 163.34 C 134.72 163.30 135.42 162.54 135.38 161.64 L 135.33 160.61 C 135.29 159.71 134.53 159.02 133.64 159.06 C 132.74 159.10 132.05 159.86 132.09 160.75 Z M 132.13 161.77 L 132.17 162.78 C 132.20 163.67 132.95 164.37 133.85 164.34 C 134.75 164.31 135.45 163.56 135.42 162.66 L 135.38 161.65 C 135.35 160.76 134.59 160.06 133.70 160.09 C 132.80 160.12 132.10 160.87 132.13 161.77 Z M 132.17 162.75 L 132.18 163.72 C 132.20 164.62 132.94 165.33 133.84 165.32 C 134.73 165.30 135.45 164.56 135.43 163.66 L 135.41 162.69 C 135.40 161.79 134.66 161.08 133.76 161.09 C 132.87 161.11 132.15 161.85 132.17 162.75 Z M 132.19 163.70 L 132.19 164.64 C 132.19 165.53 132.92 166.26 133.81 166.26 C 134.71 166.25 135.43 165.53 135.43 164.63 L 135.43 163.69 C 135.43 162.79 134.70 162.07 133.80 162.07 C 132.91 162.07 132.19 162.80 132.19 163.70 Z M 132.19 164.64 L 132.19 165.59 C 132.19 166.48 132.92 167.20 133.81 167.20 C 134.70 167.20 135.42 166.48 135.42 165.59 L 135.42 164.64 C 135.42 163.74 134.70 163.02 133.81 163.02 C 132.92 163.02 132.19 163.74 132.19 164.64 Z M 132.20 165.59 L 132.20 166.63 C 132.20 167.52 132.92 168.24 133.81 168.24 C 134.70 168.24 135.42 167.52 135.42 166.63 L 135.42 165.59 C 135.42 164.70 134.70 163.98 133.81 163.98 C 132.92 163.98 132.20 164.70 132.20 165.59 Z M 132.21 166.63 L 132.21 167.70 C 132.21 168.58 132.93 169.30 133.81 169.30 C 134.69 169.30 135.41 168.58 135.41 167.70 L 135.41 166.63 C 135.41 165.75 134.69 165.03 133.81 165.03 C 132.93 165.03 132.21 165.75 132.21 166.63 Z M 132.22 167.70 L 132.22 168.72 C 132.22 169.60 132.93 170.31 133.81 170.31 C 134.69 170.31 135.40 169.60 135.40 168.72 L 135.40 167.70 C 135.40 166.82 134.69 166.11 133.81 166.11 C 132.93 166.11 132.22 166.82 132.22 167.70 Z M 132.24 168.72 L 132.24 169.67 C 132.24 170.54 132.94 171.24 133.81 171.24 C 134.68 171.24 135.38 170.54 135.38 169.67 L 135.38 168.72 C 135.38 167.85 134.68 167.15 133.81 167.15 C 132.94 167.15 132.24 167.85 132.24 168.72 Z M 132.26 169.67 L 132.26 170.72 C 132.26 171.58 132.96 172.27 133.82 172.27 C 134.67 172.26 135.36 171.57 135.36 170.71 L 135.36 169.67 C 135.36 168.81 134.66 168.12 133.81 168.12 C 132.95 168.12 132.26 168.82 132.26 169.67 Z M 132.29 170.75 L 132.31 171.71 C 132.33 172.55 133.03 173.22 133.87 173.20 C 134.71 173.18 135.38 172.48 135.36 171.64 L 135.34 170.68 C 135.32 169.84 134.62 169.17 133.77 169.19 C 132.93 169.21 132.27 169.91 132.29 170.75 Z M 132.34 171.79 L 132.42 172.79 C 132.48 173.61 133.20 174.23 134.02 174.17 C 134.85 174.11 135.46 173.39 135.40 172.57 L 135.33 171.56 C 135.27 170.74 134.55 170.12 133.72 170.18 C 132.90 170.24 132.28 170.96 132.34 171.79 Z M 132.45 172.85 L 132.55 173.71 C 132.64 174.51 133.37 175.09 134.18 175.00 C 134.98 174.91 135.56 174.18 135.47 173.38 L 135.37 172.51 C 135.28 171.71 134.55 171.13 133.74 171.22 C 132.94 171.31 132.36 172.04 132.45 172.85 Z"
      fill="black"
      fill-rule="nonzero" /><path d="M 143.57 154.71 L 143.18 155.55 C 142.81 156.35 143.15 157.30 143.95 157.67 C 144.75 158.05 145.70 157.70 146.07 156.91 L 146.47 156.07 C 146.84 155.27 146.50 154.32 145.70 153.95 C 144.90 153.57 143.95 153.92 143.57 154.71 Z M 143.14 155.59 L 142.74 156.53 C 142.38 157.35 142.76 158.31 143.58 158.66 C 144.40 159.01 145.35 158.63 145.71 157.81 L 146.11 156.87 C 146.47 156.05 146.09 155.10 145.27 154.74 C 144.45 154.39 143.50 154.77 143.14 155.59 Z M 142.72 156.57 L 142.38 157.42 C 142.04 158.25 142.44 159.19 143.28 159.53 C 144.11 159.86 145.05 159.46 145.39 158.63 L 145.73 157.78 C 146.06 156.95 145.66 156.00 144.83 155.67 C 144.00 155.33 143.05 155.74 142.72 156.57 Z M 142.38 157.42 L 141.98 158.41 C 141.65 159.24 142.06 160.18 142.89 160.51 C 143.72 160.84 144.66 160.44 144.99 159.61 L 145.39 158.62 C 145.72 157.79 145.31 156.85 144.48 156.52 C 143.65 156.18 142.71 156.59 142.38 157.42 Z M 142.00 158.40 L 141.60 159.38 C 141.26 160.21 141.66 161.15 142.48 161.48 C 143.30 161.82 144.24 161.42 144.58 160.60 L 144.98 159.61 C 145.32 158.79 144.92 157.85 144.10 157.51 C 143.27 157.18 142.33 157.58 142.00 158.40 Z M 141.61 159.38 L 141.22 160.32 C 140.88 161.13 141.27 162.07 142.08 162.41 C 142.90 162.74 143.83 162.36 144.17 161.55 L 144.56 160.61 C 144.90 159.79 144.52 158.86 143.70 158.52 C 142.89 158.18 141.95 158.57 141.61 159.38 Z M 141.24 160.32 L 140.85 161.26 C 140.51 162.06 140.89 162.99 141.69 163.32 C 142.49 163.66 143.42 163.29 143.76 162.48 L 144.15 161.54 C 144.49 160.74 144.11 159.81 143.31 159.48 C 142.50 159.14 141.58 159.52 141.24 160.32 Z M 140.87 161.26 L 140.48 162.18 C 140.14 162.98 140.52 163.89 141.31 164.22 C 142.10 164.56 143.02 164.19 143.35 163.39 L 143.74 162.47 C 144.07 161.68 143.70 160.77 142.91 160.43 C 142.11 160.10 141.20 160.47 140.87 161.26 Z M 140.50 162.19 L 140.10 163.15 C 139.77 163.94 140.14 164.84 140.92 165.16 C 141.70 165.49 142.60 165.12 142.93 164.34 L 143.33 163.38 C 143.66 162.60 143.29 161.70 142.51 161.37 C 141.73 161.04 140.83 161.41 140.50 162.19 Z M 140.12 163.16 L 139.75 164.05 C 139.43 164.82 139.78 165.70 140.55 166.03 C 141.32 166.35 142.20 165.99 142.52 165.23 L 142.90 164.33 C 143.22 163.57 142.86 162.68 142.10 162.36 C 141.33 162.04 140.45 162.40 140.12 163.16 Z M 139.78 164.06 L 139.40 164.94 C 139.08 165.69 139.42 166.56 140.17 166.89 C 140.93 167.21 141.80 166.86 142.12 166.11 L 142.50 165.22 C 142.82 164.47 142.47 163.60 141.72 163.28 C 140.97 162.96 140.10 163.31 139.78 164.06 Z M 139.42 164.94 L 139.02 165.85 C 138.70 166.59 139.04 167.45 139.78 167.78 C 140.52 168.10 141.38 167.76 141.70 167.02 L 142.10 166.11 C 142.42 165.37 142.08 164.51 141.34 164.19 C 140.60 163.86 139.74 164.20 139.42 164.94 Z M 139.04 165.85 L 138.63 166.78 C 138.31 167.51 138.64 168.36 139.37 168.68 C 140.10 169.01 140.96 168.67 141.28 167.94 L 141.68 167.02 C 142.01 166.29 141.67 165.44 140.94 165.11 C 140.21 164.79 139.36 165.12 139.04 165.85 Z M 138.64 166.78 L 138.50 167.09 C 138.18 167.82 138.51 168.67 139.23 168.99 C 139.96 169.31 140.81 168.98 141.13 168.25 L 141.27 167.94 C 141.59 167.21 141.26 166.37 140.53 166.04 C 139.81 165.72 138.96 166.05 138.64 166.78 Z"
      fill="black"
      fill-rule="nonzero" /><path d="M 148.52 157.96 L 148.36 158.87 C 148.22 159.70 148.77 160.49 149.60 160.64 C 150.43 160.78 151.22 160.23 151.37 159.40 L 151.53 158.48 C 151.67 157.65 151.12 156.86 150.29 156.72 C 149.46 156.57 148.67 157.13 148.52 157.96 Z M 148.34 158.69 L 148.04 159.71 C 147.80 160.55 148.28 161.43 149.12 161.68 C 149.96 161.92 150.85 161.44 151.09 160.60 L 151.39 159.58 C 151.64 158.74 151.15 157.86 150.31 157.61 C 149.47 157.36 148.59 157.85 148.34 158.69 Z M 148.07 159.53 L 147.71 160.38 C 147.37 161.21 147.76 162.16 148.58 162.50 C 149.41 162.85 150.36 162.46 150.70 161.63 L 151.06 160.78 C 151.41 159.95 151.02 159.00 150.19 158.66 C 149.37 158.31 148.42 158.70 148.07 159.53 Z M 147.75 160.30 L 147.30 161.23 C 146.91 162.04 147.25 163.01 148.06 163.40 C 148.87 163.79 149.84 163.45 150.22 162.64 L 150.67 161.71 C 151.06 160.90 150.72 159.93 149.91 159.55 C 149.11 159.16 148.14 159.50 147.75 160.30 Z M 147.32 161.20 L 146.83 162.16 C 146.42 162.96 146.74 163.93 147.54 164.34 C 148.34 164.75 149.31 164.43 149.72 163.63 L 150.21 162.67 C 150.62 161.87 150.30 160.90 149.50 160.49 C 148.70 160.08 147.72 160.40 147.32 161.20 Z M 146.83 162.15 L 146.35 163.08 C 145.94 163.88 146.25 164.86 147.04 165.27 C 147.84 165.68 148.82 165.37 149.23 164.57 L 149.72 163.64 C 150.13 162.84 149.82 161.86 149.02 161.45 C 148.23 161.04 147.25 161.35 146.83 162.15 Z M 146.35 163.08 L 145.90 163.94 C 145.49 164.74 145.79 165.72 146.59 166.13 C 147.38 166.55 148.36 166.24 148.78 165.44 L 149.23 164.58 C 149.64 163.79 149.34 162.80 148.54 162.39 C 147.75 161.97 146.77 162.28 146.35 163.08 Z M 145.91 163.94 L 145.43 164.84 C 145.02 165.63 145.33 166.61 146.12 167.03 C 146.91 167.44 147.89 167.13 148.30 166.34 L 148.77 165.44 C 149.19 164.65 148.88 163.67 148.09 163.26 C 147.30 162.84 146.32 163.15 145.91 163.94 Z M 145.45 164.84 L 144.99 165.69 C 144.58 166.48 144.88 167.45 145.67 167.87 C 146.45 168.28 147.43 167.98 147.84 167.20 L 148.29 166.34 C 148.71 165.56 148.40 164.58 147.62 164.17 C 146.83 163.75 145.86 164.06 145.45 164.84 Z M 145.01 165.68 L 144.56 166.52 C 144.14 167.29 144.43 168.26 145.20 168.68 C 145.98 169.10 146.95 168.82 147.37 168.04 L 147.82 167.21 C 148.24 166.43 147.96 165.46 147.18 165.04 C 146.40 164.62 145.43 164.91 145.01 165.68 Z M 144.58 166.50 L 144.09 167.38 C 143.66 168.15 143.93 169.11 144.69 169.54 C 145.46 169.97 146.43 169.70 146.86 168.94 L 147.35 168.06 C 147.78 167.29 147.51 166.32 146.74 165.89 C 145.98 165.46 145.01 165.74 144.58 166.50 Z M 144.10 167.37 L 143.60 168.24 C 143.16 169.00 143.42 169.97 144.17 170.40 C 144.93 170.84 145.90 170.58 146.33 169.83 L 146.84 168.95 C 147.28 168.19 147.02 167.23 146.26 166.79 C 145.51 166.35 144.54 166.61 144.10 167.37 Z M 143.61 168.24 L 143.10 169.11 C 142.66 169.86 142.91 170.82 143.66 171.26 C 144.41 171.70 145.37 171.44 145.81 170.70 L 146.32 169.83 C 146.76 169.08 146.51 168.12 145.76 167.68 C 145.01 167.24 144.05 167.49 143.61 168.24 Z M 143.11 169.11 L 142.60 169.99 C 142.16 170.73 142.41 171.69 143.15 172.13 C 143.90 172.56 144.85 172.31 145.29 171.57 L 145.80 170.69 C 146.24 169.95 145.99 168.99 145.25 168.55 C 144.50 168.12 143.55 168.37 143.11 169.11 Z M 142.60 170.00 L 142.11 170.85 C 141.68 171.58 141.93 172.53 142.66 172.97 C 143.40 173.40 144.35 173.15 144.78 172.41 L 145.28 171.56 C 145.71 170.82 145.46 169.87 144.72 169.44 C 143.99 169.01 143.04 169.26 142.60 170.00 Z M 142.12 170.85 L 141.65 171.66 C 141.22 172.39 141.46 173.34 142.20 173.76 C 142.93 174.19 143.87 173.95 144.30 173.21 L 144.77 172.40 C 145.20 171.67 144.96 170.73 144.22 170.30 C 143.49 169.87 142.55 170.12 142.12 170.85 Z M 141.66 171.66 L 141.12 172.56 C 140.69 173.29 140.93 174.22 141.66 174.65 C 142.38 175.08 143.32 174.84 143.75 174.12 L 144.28 173.22 C 144.71 172.49 144.48 171.56 143.75 171.12 C 143.03 170.69 142.09 170.93 141.66 171.66 Z M 141.14 172.56 L 140.63 173.41 C 140.20 174.12 140.43 175.05 141.14 175.49 C 141.86 175.92 142.79 175.69 143.22 174.97 L 143.73 174.12 C 144.16 173.41 143.93 172.48 143.22 172.04 C 142.50 171.61 141.57 171.84 141.14 172.56 Z M 140.64 173.42 L 140.11 174.30 C 139.68 175.01 139.91 175.93 140.62 176.36 C 141.33 176.78 142.26 176.55 142.68 175.84 L 143.21 174.96 C 143.64 174.25 143.41 173.33 142.70 172.90 C 141.99 172.47 141.06 172.70 140.64 173.42 Z M 140.11 174.32 L 139.59 175.22 C 139.17 175.93 139.41 176.84 140.12 177.26 C 140.83 177.67 141.74 177.43 142.16 176.72 L 142.68 175.82 C 143.09 175.11 142.85 174.20 142.14 173.79 C 141.43 173.37 140.52 173.61 140.11 174.32 Z M 139.59 175.26 L 139.12 176.11 C 138.72 176.82 138.98 177.71 139.68 178.11 C 140.39 178.50 141.28 178.25 141.68 177.54 L 142.15 176.68 C 142.54 175.98 142.29 175.08 141.58 174.69 C 140.88 174.30 139.98 174.55 139.59 175.26 Z M 139.13 176.13 L 138.93 176.49 C 138.55 177.19 138.81 178.07 139.51 178.45 C 140.21 178.83 141.09 178.57 141.47 177.87 L 141.67 177.52 C 142.05 176.82 141.79 175.94 141.09 175.56 C 140.39 175.17 139.51 175.43 139.13 176.13 Z"
      fill="black"
      fill-rule="nonzero" /><path d="M 149.27 166.30 L 149.08 167.23 C 148.91 168.05 149.43 168.85 150.25 169.02 C 151.07 169.19 151.87 168.66 152.04 167.85 L 152.23 166.92 C 152.40 166.10 151.88 165.30 151.06 165.13 C 150.24 164.96 149.44 165.49 149.27 166.30 Z M 149.07 167.13 L 148.80 168.13 C 148.57 168.95 149.06 169.80 149.88 170.02 C 150.70 170.25 151.55 169.76 151.77 168.94 L 152.04 167.95 C 152.27 167.13 151.79 166.28 150.96 166.05 C 150.14 165.83 149.30 166.31 149.07 167.13 Z M 148.82 168.00 L 148.48 168.92 C 148.19 169.73 148.60 170.62 149.41 170.92 C 150.22 171.21 151.11 170.80 151.41 169.99 L 151.75 169.07 C 152.04 168.26 151.63 167.37 150.82 167.07 C 150.01 166.78 149.12 167.19 148.82 168.00 Z M 148.52 168.84 L 148.11 169.78 C 147.77 170.57 148.14 171.48 148.93 171.82 C 149.72 172.16 150.64 171.80 150.98 171.01 L 151.38 170.07 C 151.72 169.28 151.35 168.36 150.56 168.02 C 149.77 167.69 148.85 168.05 148.52 168.84 Z M 148.14 169.73 L 147.70 170.67 C 147.34 171.45 147.68 172.37 148.45 172.73 C 149.23 173.10 150.16 172.76 150.52 171.98 L 150.96 171.05 C 151.32 170.27 150.98 169.34 150.20 168.98 C 149.42 168.62 148.50 168.96 148.14 169.73 Z M 147.72 170.65 L 147.27 171.57 C 146.90 172.34 147.21 173.26 147.98 173.64 C 148.74 174.01 149.67 173.70 150.04 172.93 L 150.50 172.00 C 150.87 171.24 150.56 170.31 149.79 169.94 C 149.02 169.56 148.10 169.88 147.72 170.65 Z M 147.30 171.55 L 146.85 172.42 C 146.47 173.17 146.76 174.09 147.51 174.48 C 148.26 174.86 149.18 174.57 149.57 173.82 L 150.01 172.95 C 150.40 172.20 150.10 171.28 149.36 170.89 C 148.61 170.51 147.69 170.80 147.30 171.55 Z M 146.89 172.40 L 146.41 173.27 C 146.01 174.00 146.28 174.92 147.02 175.31 C 147.75 175.71 148.66 175.44 149.06 174.71 L 149.53 173.84 C 149.93 173.11 149.66 172.19 148.93 171.80 C 148.20 171.40 147.28 171.67 146.89 172.40 Z M 146.45 173.24 L 145.95 174.09 C 145.53 174.80 145.77 175.72 146.48 176.13 C 147.19 176.55 148.10 176.31 148.52 175.60 L 149.02 174.74 C 149.44 174.03 149.20 173.12 148.49 172.71 C 147.78 172.29 146.87 172.53 146.45 173.24 Z M 145.99 174.05 L 145.46 174.88 C 145.02 175.57 145.21 176.48 145.90 176.92 C 146.59 177.36 147.50 177.16 147.94 176.48 L 148.48 175.65 C 148.92 174.96 148.72 174.05 148.03 173.61 C 147.35 173.17 146.43 173.36 145.99 174.05 Z M 145.48 174.84 L 144.92 175.65 C 144.45 176.32 144.61 177.25 145.28 177.71 C 145.95 178.18 146.88 178.01 147.34 177.34 L 147.91 176.53 C 148.38 175.86 148.21 174.93 147.54 174.47 C 146.87 174.00 145.95 174.17 145.48 174.84 Z M 144.92 175.63 L 144.34 176.43 C 143.85 177.10 144.00 178.03 144.67 178.51 C 145.34 179.00 146.27 178.85 146.75 178.18 L 147.34 177.37 C 147.82 176.71 147.67 175.77 147.00 175.29 C 146.34 174.81 145.40 174.96 144.92 175.63 Z"
      fill="black"
      fill-rule="nonzero" /><path d="M 155.24 133.63 L 156.24 133.37 C 157.10 133.15 157.61 132.28 157.40 131.43 C 157.18 130.57 156.31 130.05 155.45 130.27 L 154.45 130.53 C 153.59 130.74 153.07 131.61 153.29 132.47 C 153.51 133.33 154.38 133.84 155.24 133.63 Z M 156.23 133.37 L 157.21 133.13 C 158.07 132.92 158.59 132.05 158.37 131.19 C 158.16 130.33 157.29 129.81 156.43 130.03 L 155.46 130.27 C 154.60 130.48 154.08 131.35 154.29 132.21 C 154.51 133.07 155.38 133.59 156.23 133.37 Z M 157.20 133.13 L 158.13 132.91 C 158.99 132.70 159.52 131.84 159.31 130.98 C 159.10 130.12 158.24 129.59 157.38 129.80 L 156.45 130.02 C 155.59 130.23 155.06 131.09 155.27 131.95 C 155.47 132.81 156.34 133.34 157.20 133.13 Z M 158.10 132.91 L 159.05 132.69 C 159.91 132.50 160.45 131.65 160.26 130.79 C 160.06 129.93 159.21 129.39 158.35 129.58 L 157.40 129.80 C 156.55 129.99 156.01 130.84 156.20 131.70 C 156.39 132.56 157.25 133.10 158.10 132.91 Z M 159.02 132.69 L 160.00 132.49 C 160.86 132.31 161.41 131.47 161.23 130.62 C 161.06 129.76 160.22 129.21 159.36 129.39 L 158.38 129.59 C 157.53 129.77 156.97 130.60 157.15 131.46 C 157.33 132.31 158.16 132.87 159.02 132.69 Z M 159.97 132.48 L 160.99 132.29 C 161.84 132.13 162.40 131.31 162.24 130.45 C 162.08 129.60 161.25 129.04 160.40 129.20 L 159.39 129.39 C 158.53 129.55 157.97 130.38 158.14 131.23 C 158.30 132.08 159.12 132.65 159.97 132.48 Z M 160.97 132.29 L 161.99 132.11 C 162.84 131.95 163.41 131.14 163.26 130.29 C 163.11 129.44 162.30 128.87 161.45 129.02 L 160.42 129.20 C 159.57 129.35 159.00 130.17 159.15 131.02 C 159.30 131.87 160.11 132.44 160.97 132.29 Z M 161.97 132.10 L 162.94 131.95 C 163.79 131.81 164.37 131.01 164.23 130.16 C 164.09 129.31 163.29 128.73 162.44 128.87 L 161.47 129.02 C 160.62 129.16 160.04 129.96 160.18 130.81 C 160.32 131.66 161.12 132.24 161.97 132.10 Z M 162.89 131.94 L 163.97 131.80 C 164.82 131.69 165.42 130.91 165.31 130.06 C 165.20 129.21 164.42 128.62 163.57 128.73 L 162.49 128.87 C 161.64 128.98 161.04 129.76 161.15 130.61 C 161.26 131.46 162.04 132.06 162.89 131.94 Z M 163.89 131.80 L 164.80 131.73 C 165.65 131.67 166.29 130.93 166.22 130.08 C 166.16 129.23 165.42 128.59 164.57 128.66 L 163.66 128.73 C 162.81 128.79 162.17 129.53 162.23 130.38 C 162.30 131.23 163.04 131.87 163.89 131.80 Z M 164.61 131.73 L 165.65 131.78 C 166.49 131.82 167.21 131.17 167.26 130.32 C 167.30 129.47 166.64 128.75 165.79 128.71 L 164.76 128.66 C 163.91 128.62 163.19 129.27 163.15 130.12 C 163.11 130.97 163.76 131.69 164.61 131.73 Z M 164.36 130.96 L 164.69 131.59 C 165.09 132.34 166.02 132.63 166.77 132.23 C 167.52 131.83 167.81 130.90 167.41 130.15 L 167.08 129.53 C 166.68 128.78 165.75 128.49 165.00 128.89 C 164.25 129.28 163.96 130.21 164.36 130.96 Z M 164.60 130.36 L 164.24 131.38 C 163.96 132.19 164.38 133.06 165.18 133.34 C 165.98 133.63 166.86 133.21 167.14 132.40 L 167.50 131.38 C 167.78 130.58 167.36 129.70 166.56 129.42 C 165.76 129.14 164.88 129.56 164.60 130.36 Z M 164.37 131.10 L 163.89 131.90 C 163.44 132.63 163.68 133.58 164.40 134.02 C 165.13 134.46 166.08 134.22 166.52 133.50 L 167.01 132.69 C 167.45 131.96 167.21 131.02 166.49 130.58 C 165.76 130.14 164.81 130.37 164.37 131.10 Z M 163.97 131.78 L 163.35 132.60 C 162.84 133.28 162.98 134.25 163.66 134.76 C 164.34 135.27 165.31 135.13 165.82 134.45 L 166.44 133.62 C 166.95 132.94 166.81 131.98 166.13 131.47 C 165.45 130.96 164.48 131.09 163.97 131.78 Z M 163.37 132.56 L 162.75 133.36 C 162.22 134.03 162.33 135.00 163.00 135.53 C 163.67 136.06 164.64 135.94 165.17 135.27 L 165.80 134.48 C 166.33 133.81 166.21 132.84 165.54 132.31 C 164.87 131.78 163.90 131.90 163.37 132.56 Z M 162.74 133.36 L 162.11 134.16 C 161.58 134.83 161.70 135.81 162.37 136.33 C 163.05 136.86 164.02 136.75 164.55 136.07 L 165.18 135.27 C 165.71 134.60 165.59 133.62 164.92 133.10 C 164.24 132.57 163.27 132.68 162.74 133.36 Z M 162.09 134.17 L 161.47 134.99 C 160.95 135.67 161.08 136.65 161.77 137.17 C 162.45 137.69 163.42 137.56 163.94 136.87 L 164.57 136.06 C 165.09 135.38 164.96 134.40 164.27 133.88 C 163.59 133.36 162.61 133.49 162.09 134.17 Z M 161.44 135.02 L 160.82 135.88 C 160.32 136.58 160.48 137.56 161.18 138.06 C 161.88 138.56 162.86 138.40 163.36 137.70 L 163.98 136.84 C 164.48 136.14 164.32 135.17 163.62 134.66 C 162.92 134.16 161.94 134.32 161.44 135.02 Z M 160.78 135.94 L 160.24 136.77 C 159.77 137.49 159.97 138.46 160.69 138.93 C 161.42 139.41 162.39 139.20 162.86 138.48 L 163.40 137.65 C 163.87 136.92 163.67 135.95 162.95 135.48 C 162.22 135.01 161.25 135.21 160.78 135.94 Z M 160.19 136.83 L 159.71 137.65 C 159.28 138.40 159.53 139.36 160.28 139.80 C 161.02 140.23 161.99 139.98 162.42 139.23 L 162.90 138.42 C 163.34 137.67 163.09 136.71 162.34 136.27 C 161.59 135.83 160.63 136.08 160.19 136.83 Z M 159.67 137.72 L 159.21 138.61 C 158.81 139.38 159.12 140.33 159.89 140.73 C 160.66 141.13 161.61 140.83 162.01 140.05 L 162.47 139.16 C 162.87 138.39 162.56 137.44 161.79 137.04 C 161.02 136.64 160.07 136.95 159.67 137.72 Z M 159.17 138.69 L 158.76 139.60 C 158.41 140.40 158.77 141.33 159.57 141.68 C 160.36 142.04 161.29 141.68 161.65 140.88 L 162.05 139.97 C 162.40 139.18 162.05 138.25 161.25 137.89 C 160.45 137.54 159.52 137.90 159.17 138.69 Z M 158.73 139.68 L 158.39 140.59 C 158.08 141.41 158.49 142.32 159.30 142.63 C 160.12 142.94 161.03 142.52 161.34 141.71 L 161.68 140.80 C 161.99 139.98 161.58 139.07 160.76 138.76 C 159.95 138.46 159.04 138.87 158.73 139.68 Z M 158.36 140.66 L 158.05 141.62 C 157.78 142.45 158.24 143.34 159.07 143.61 C 159.90 143.88 160.79 143.42 161.06 142.59 L 161.37 141.64 C 161.64 140.80 161.18 139.91 160.35 139.64 C 159.52 139.38 158.63 139.83 158.36 140.66 Z M 158.03 141.68 L 157.76 142.65 C 157.52 143.49 158.01 144.37 158.85 144.60 C 159.70 144.84 160.57 144.35 160.81 143.50 L 161.08 142.53 C 161.32 141.69 160.83 140.82 159.98 140.58 C 159.14 140.34 158.27 140.83 158.03 141.68 Z M 157.74 142.69 L 157.50 143.66 C 157.29 144.51 157.81 145.37 158.66 145.58 C 159.51 145.79 160.37 145.28 160.58 144.43 L 160.82 143.46 C 161.03 142.61 160.51 141.75 159.67 141.54 C 158.82 141.33 157.96 141.84 157.74 142.69 Z M 157.49 143.70 L 157.27 144.70 C 157.09 145.55 157.63 146.40 158.48 146.58 C 159.34 146.77 160.18 146.23 160.37 145.38 L 160.59 144.38 C 160.78 143.53 160.24 142.68 159.38 142.50 C 158.53 142.31 157.68 142.85 157.49 143.70 Z M 157.27 144.74 L 157.08 145.73 C 156.92 146.59 157.48 147.42 158.34 147.58 C 159.20 147.74 160.03 147.18 160.20 146.31 L 160.38 145.33 C 160.54 144.47 159.98 143.64 159.12 143.48 C 158.26 143.32 157.43 143.88 157.27 144.74 Z M 157.07 145.77 L 156.91 146.75 C 156.78 147.62 157.36 148.43 158.23 148.57 C 159.09 148.71 159.91 148.12 160.04 147.25 L 160.20 146.27 C 160.34 145.41 159.75 144.59 158.89 144.46 C 158.03 144.32 157.21 144.90 157.07 145.77 Z M 156.91 146.78 L 156.77 147.78 C 156.65 148.65 157.25 149.45 158.12 149.57 C 158.99 149.69 159.79 149.09 159.91 148.22 L 160.05 147.22 C 160.17 146.36 159.57 145.56 158.70 145.43 C 157.83 145.31 157.03 145.92 156.91 146.78 Z M 156.77 147.80 L 156.64 148.85 C 156.53 149.72 157.15 150.51 158.01 150.62 C 158.88 150.73 159.67 150.11 159.78 149.25 L 159.91 148.20 C 160.02 147.33 159.40 146.54 158.54 146.43 C 157.67 146.32 156.88 146.94 156.77 147.80 Z M 156.64 148.87 L 156.53 149.86 C 156.43 150.73 157.05 151.51 157.91 151.61 C 158.78 151.71 159.56 151.09 159.66 150.22 L 159.77 149.23 C 159.87 148.36 159.25 147.58 158.39 147.48 C 157.52 147.39 156.74 148.01 156.64 148.87 Z M 156.54 149.88 L 156.43 150.87 C 156.34 151.74 156.97 152.51 157.83 152.60 C 158.69 152.69 159.46 152.06 159.55 151.20 L 159.65 150.21 C 159.74 149.34 159.12 148.57 158.26 148.48 C 157.40 148.39 156.63 149.02 156.54 149.88 Z M 156.44 150.88 L 156.34 151.85 C 156.26 152.71 156.88 153.47 157.73 153.56 C 158.59 153.64 159.35 153.02 159.44 152.17 L 159.54 151.19 C 159.63 150.34 159.00 149.58 158.15 149.49 C 157.29 149.40 156.53 150.03 156.44 150.88 Z M 156.36 151.82 L 156.26 152.68 C 156.15 153.52 156.76 154.29 157.61 154.40 C 158.45 154.50 159.22 153.89 159.32 153.04 L 159.43 152.19 C 159.53 151.34 158.92 150.57 158.08 150.47 C 157.23 150.37 156.46 150.98 156.36 151.82 Z M 156.26 152.67 L 156.15 153.64 C 156.04 154.48 156.64 155.25 157.48 155.35 C 158.32 155.46 159.09 154.86 159.20 154.02 L 159.32 153.05 C 159.42 152.21 158.82 151.44 157.98 151.34 C 157.14 151.23 156.37 151.83 156.26 152.67 Z M 156.15 153.67 L 156.03 154.77 C 155.95 155.61 156.56 156.36 157.40 156.44 C 158.24 156.53 158.99 155.92 159.08 155.08 L 159.19 153.99 C 159.28 153.14 158.67 152.39 157.83 152.31 C 156.99 152.22 156.24 152.83 156.15 153.67 Z M 156.04 154.80 L 155.95 155.82 C 155.89 156.66 156.51 157.39 157.35 157.46 C 158.19 157.53 158.93 156.90 158.99 156.06 L 159.08 155.05 C 159.14 154.21 158.52 153.47 157.68 153.40 C 156.84 153.34 156.10 153.96 156.04 154.80 Z M 155.96 155.87 L 155.90 156.91 C 155.86 157.75 156.51 158.46 157.35 158.50 C 158.19 158.55 158.90 157.90 158.94 157.06 L 158.99 156.02 C 159.03 155.18 158.39 154.46 157.55 154.42 C 156.71 154.38 156.00 155.03 155.96 155.87 Z M 155.91 157.00 L 155.92 158.01 C 155.93 158.85 156.61 159.52 157.45 159.51 C 158.28 159.50 158.96 158.82 158.95 157.98 L 158.94 156.97 C 158.93 156.13 158.25 155.46 157.41 155.47 C 156.57 155.48 155.90 156.16 155.91 157.00 Z M 155.94 158.19 L 156.09 159.26 C 156.19 160.08 156.95 160.66 157.77 160.55 C 158.59 160.45 159.17 159.69 159.06 158.87 L 158.92 157.80 C 158.81 156.98 158.06 156.40 157.24 156.51 C 156.42 156.61 155.84 157.37 155.94 158.19 Z M 156.14 159.44 L 156.37 160.29 C 156.57 161.08 157.38 161.56 158.17 161.35 C 158.97 161.14 159.44 160.33 159.23 159.54 L 159.01 158.69 C 158.80 157.90 157.99 157.42 157.20 157.63 C 156.41 157.84 155.93 158.65 156.14 159.44 Z"
      fill="black"
      fill-rule="nonzero" /><path d="M 161.95 141.77 L 162.64 142.51 C 163.21 143.13 164.17 143.17 164.79 142.60 C 165.41 142.03 165.45 141.06 164.88 140.44 L 164.20 139.70 C 163.63 139.08 162.66 139.05 162.04 139.62 C 161.42 140.19 161.38 141.15 161.95 141.77 Z M 162.65 142.54 L 163.34 143.26 C 163.92 143.87 164.89 143.89 165.51 143.30 C 166.12 142.72 166.14 141.75 165.55 141.14 L 164.86 140.42 C 164.28 139.80 163.31 139.78 162.70 140.37 C 162.09 140.95 162.06 141.92 162.65 142.54 Z M 163.37 143.29 L 164.07 143.98 C 164.67 144.58 165.65 144.57 166.24 143.96 C 166.84 143.36 166.83 142.38 166.22 141.79 L 165.52 141.10 C 164.92 140.50 163.94 140.51 163.35 141.12 C 162.75 141.72 162.76 142.70 163.37 143.29 Z M 164.06 143.97 L 164.77 144.68 C 165.37 145.28 166.34 145.28 166.94 144.68 C 167.54 144.08 167.54 143.11 166.94 142.51 L 166.23 141.80 C 165.63 141.20 164.66 141.20 164.06 141.80 C 163.46 142.40 163.46 143.37 164.06 143.97 Z M 164.71 144.62 L 165.36 145.34 C 165.92 145.98 166.90 146.03 167.53 145.46 C 168.16 144.90 168.22 143.92 167.65 143.29 L 167.00 142.57 C 166.43 141.94 165.46 141.88 164.83 142.45 C 164.20 143.02 164.14 143.99 164.71 144.62 Z M 165.29 145.27 L 165.91 146.05 C 166.43 146.72 167.40 146.84 168.07 146.32 C 168.74 145.79 168.85 144.83 168.33 144.16 L 167.71 143.37 C 167.19 142.70 166.22 142.58 165.55 143.11 C 164.88 143.63 164.77 144.60 165.29 145.27 Z M 165.85 145.97 L 166.44 146.84 C 166.91 147.54 167.87 147.73 168.57 147.25 C 169.28 146.77 169.46 145.82 168.98 145.11 L 168.39 144.24 C 167.91 143.54 166.96 143.36 166.26 143.83 C 165.55 144.31 165.37 145.27 165.85 145.97 Z M 166.39 146.76 L 166.93 147.66 C 167.36 148.39 168.30 148.63 169.03 148.19 C 169.76 147.76 170.00 146.82 169.57 146.09 L 169.03 145.19 C 168.60 144.46 167.65 144.22 166.92 144.66 C 166.19 145.09 165.96 146.03 166.39 146.76 Z M 166.90 147.61 L 167.36 148.46 C 167.76 149.21 168.70 149.48 169.44 149.08 C 170.19 148.68 170.46 147.74 170.06 147.00 L 169.60 146.14 C 169.19 145.40 168.26 145.12 167.51 145.52 C 166.77 145.93 166.49 146.86 166.90 147.61 Z M 167.33 148.40 L 167.79 149.34 C 168.16 150.10 169.08 150.41 169.84 150.04 C 170.60 149.67 170.92 148.75 170.54 147.99 L 170.09 147.06 C 169.71 146.30 168.80 145.98 168.04 146.35 C 167.28 146.73 166.96 147.64 167.33 148.40 Z M 167.76 149.25 L 168.11 150.11 C 168.43 150.89 169.32 151.26 170.10 150.94 C 170.88 150.62 171.26 149.72 170.93 148.94 L 170.58 148.08 C 170.26 147.30 169.37 146.93 168.59 147.25 C 167.81 147.57 167.44 148.47 167.76 149.25 Z M 168.08 150.01 L 168.40 150.96 C 168.67 151.75 169.54 152.18 170.33 151.91 C 171.13 151.64 171.55 150.77 171.28 149.98 L 170.96 149.04 C 170.69 148.24 169.83 147.81 169.03 148.09 C 168.24 148.36 167.81 149.22 168.08 150.01 Z M 168.39 150.88 L 168.65 151.81 C 168.88 152.62 169.71 153.09 170.51 152.86 C 171.32 152.63 171.79 151.80 171.56 151.00 L 171.30 150.06 C 171.07 149.26 170.24 148.79 169.43 149.01 C 168.63 149.24 168.16 150.07 168.39 150.88 Z M 168.64 151.72 L 168.84 152.66 C 169.01 153.47 169.81 153.99 170.62 153.81 C 171.43 153.64 171.95 152.84 171.77 152.03 L 171.57 151.09 C 171.40 150.28 170.60 149.76 169.79 149.94 C 168.98 150.11 168.46 150.91 168.64 151.72 Z M 168.83 152.57 L 168.98 153.58 C 169.11 154.40 169.87 154.96 170.68 154.83 C 171.50 154.71 172.06 153.95 171.93 153.13 L 171.78 152.12 C 171.66 151.30 170.89 150.75 170.08 150.87 C 169.27 150.99 168.71 151.76 168.83 152.57 Z M 168.99 153.53 L 169.11 154.53 C 169.20 155.35 169.94 155.93 170.76 155.83 C 171.57 155.73 172.15 154.99 172.05 154.18 L 171.93 153.18 C 171.83 152.37 171.10 151.79 170.28 151.88 C 169.47 151.98 168.89 152.72 168.99 153.53 Z M 169.11 154.49 L 169.21 155.53 C 169.28 156.34 170.00 156.93 170.81 156.86 C 171.62 156.78 172.22 156.06 172.14 155.25 L 172.05 154.22 C 171.97 153.41 171.25 152.81 170.44 152.89 C 169.63 152.96 169.03 153.68 169.11 154.49 Z M 169.22 155.48 L 169.28 156.55 C 169.33 157.36 170.03 157.97 170.84 157.92 C 171.64 157.87 172.26 157.17 172.20 156.37 L 172.14 155.30 C 172.09 154.49 171.39 153.88 170.58 153.93 C 169.78 153.98 169.16 154.67 169.22 155.48 Z M 169.30 156.51 L 169.33 157.47 C 169.36 158.27 170.03 158.89 170.83 158.87 C 171.63 158.84 172.25 158.17 172.23 157.37 L 172.19 156.41 C 172.16 155.61 171.49 154.98 170.69 155.01 C 169.89 155.04 169.27 155.71 169.30 156.51 Z M 169.34 157.44 L 169.36 158.45 C 169.37 159.24 170.02 159.87 170.81 159.86 C 171.61 159.85 172.24 159.20 172.23 158.40 L 172.21 157.40 C 172.20 156.60 171.55 155.97 170.76 155.98 C 169.96 155.99 169.33 156.65 169.34 157.44 Z M 169.36 158.43 L 169.37 159.39 C 169.37 160.18 170.01 160.82 170.80 160.82 C 171.59 160.81 172.23 160.17 172.22 159.38 L 172.22 158.42 C 172.22 157.63 171.58 156.99 170.79 157.00 C 170.00 157.00 169.36 157.64 169.36 158.43 Z"
      fill="black"
      fill-rule="nonzero" /><path d="M 159.83 153.56 L 160.78 153.17 C 161.56 152.86 161.93 151.97 161.61 151.19 C 161.29 150.41 160.41 150.04 159.63 150.36 L 158.68 150.74 C 157.91 151.06 157.53 151.95 157.85 152.73 C 158.17 153.50 159.06 153.88 159.83 153.56 Z M 160.77 153.21 L 161.69 152.85 C 162.49 152.54 162.88 151.64 162.57 150.84 C 162.26 150.04 161.36 149.65 160.56 149.96 L 159.64 150.32 C 158.84 150.63 158.44 151.53 158.76 152.33 C 159.07 153.13 159.97 153.53 160.77 153.21 Z M 161.65 152.87 L 162.55 152.55 C 163.36 152.26 163.79 151.37 163.50 150.56 C 163.21 149.75 162.32 149.33 161.51 149.62 L 160.60 149.94 C 159.79 150.23 159.37 151.12 159.66 151.93 C 159.95 152.74 160.84 153.16 161.65 152.87 Z M 162.47 152.53 L 163.43 152.24 C 164.23 152.00 164.68 151.16 164.44 150.36 C 164.20 149.56 163.35 149.10 162.55 149.35 L 161.60 149.63 C 160.80 149.88 160.34 150.72 160.58 151.52 C 160.83 152.32 161.67 152.77 162.47 152.53 Z M 163.35 152.22 L 164.30 151.98 C 165.09 151.78 165.57 150.98 165.37 150.19 C 165.17 149.40 164.36 148.92 163.58 149.12 L 162.62 149.36 C 161.83 149.57 161.36 150.37 161.56 151.16 C 161.76 151.95 162.56 152.42 163.35 152.22 Z M 164.26 151.97 L 165.24 151.75 C 166.02 151.57 166.51 150.79 166.33 150.01 C 166.15 149.22 165.37 148.73 164.59 148.91 L 163.62 149.13 C 162.83 149.31 162.34 150.09 162.52 150.88 C 162.70 151.66 163.48 152.15 164.26 151.97 Z M 165.22 151.74 L 166.24 151.52 C 167.02 151.35 167.51 150.58 167.34 149.80 C 167.18 149.03 166.41 148.53 165.63 148.70 L 164.61 148.92 C 163.83 149.09 163.34 149.86 163.50 150.64 C 163.67 151.41 164.44 151.91 165.22 151.74 Z"
      fill="black"
      fill-rule="nonzero" /><path d="M 158.51 157.06 L 157.46 157.64 C 156.71 158.05 156.43 158.99 156.85 159.74 C 157.26 160.49 158.20 160.77 158.95 160.35 L 160.00 159.78 C 160.75 159.36 161.03 158.42 160.62 157.67 C 160.21 156.92 159.26 156.65 158.51 157.06 Z M 156.75 159.63 L 156.81 159.76 C 157.16 160.56 158.09 160.93 158.89 160.58 C 159.69 160.23 160.06 159.30 159.71 158.50 L 159.66 158.37 C 159.31 157.57 158.38 157.20 157.58 157.55 C 156.77 157.89 156.41 158.82 156.75 159.63 Z M 158.76 160.63 L 159.92 160.25 C 160.75 159.97 161.20 159.08 160.93 158.24 C 160.65 157.41 159.75 156.96 158.92 157.24 L 157.76 157.63 C 156.93 157.90 156.48 158.80 156.76 159.63 C 157.03 160.46 157.93 160.91 158.76 160.63 Z M 160.00 160.20 L 160.89 159.85 C 161.69 159.53 162.08 158.61 161.76 157.81 C 161.44 157.00 160.53 156.61 159.72 156.93 L 158.84 157.29 C 158.03 157.61 157.64 158.52 157.96 159.33 C 158.29 160.13 159.20 160.52 160.00 160.20 Z M 160.89 159.82 L 161.87 159.42 C 162.66 159.09 163.03 158.19 162.70 157.40 C 162.38 156.61 161.47 156.23 160.68 156.56 L 159.71 156.96 C 158.92 157.29 158.55 158.19 158.87 158.98 C 159.20 159.77 160.11 160.15 160.89 159.82 Z M 161.85 159.40 L 162.84 159.00 C 163.62 158.69 163.99 157.80 163.67 157.02 C 163.36 156.24 162.47 155.86 161.69 156.18 L 160.70 156.58 C 159.92 156.89 159.55 157.78 159.86 158.56 C 160.18 159.34 161.07 159.72 161.85 159.40 Z M 162.81 158.99 L 163.76 158.62 C 164.54 158.32 164.92 157.45 164.62 156.67 C 164.32 155.90 163.45 155.51 162.67 155.81 L 161.72 156.19 C 160.94 156.49 160.56 157.36 160.86 158.14 C 161.16 158.91 162.03 159.29 162.81 158.99 Z M 163.73 158.62 L 164.64 158.28 C 165.42 158.00 165.81 157.15 165.53 156.37 C 165.25 155.60 164.39 155.20 163.62 155.49 L 162.71 155.82 C 161.94 156.10 161.54 156.96 161.82 157.73 C 162.10 158.50 162.96 158.90 163.73 158.62 Z M 164.60 158.28 L 165.56 157.96 C 166.33 157.70 166.75 156.87 166.49 156.10 C 166.24 155.33 165.41 154.91 164.64 155.17 L 163.67 155.49 C 162.90 155.74 162.48 156.58 162.74 157.35 C 162.99 158.12 163.82 158.53 164.60 158.28 Z M 165.51 157.95 L 166.46 157.67 C 167.23 157.44 167.66 156.63 167.44 155.87 C 167.21 155.10 166.40 154.66 165.63 154.89 L 164.69 155.17 C 163.92 155.40 163.48 156.21 163.71 156.98 C 163.94 157.74 164.75 158.18 165.51 157.95 Z M 166.44 157.66 L 167.03 157.49 C 167.79 157.28 168.24 156.49 168.02 155.72 C 167.80 154.96 167.01 154.52 166.25 154.73 L 165.66 154.90 C 164.90 155.12 164.45 155.91 164.67 156.67 C 164.88 157.43 165.68 157.88 166.44 157.66 Z"
      fill="black"
      fill-rule="nonzero" /><path d="M 160.32 160.90 L 159.46 161.31 C 158.71 161.67 158.40 162.57 158.76 163.32 C 159.11 164.06 160.01 164.38 160.76 164.02 L 161.62 163.61 C 162.37 163.25 162.69 162.35 162.33 161.60 C 161.97 160.86 161.07 160.54 160.32 160.90 Z M 160.85 164.00 L 161.51 163.63 C 162.24 163.23 162.51 162.30 162.10 161.56 C 161.69 160.82 160.76 160.56 160.02 160.97 L 159.37 161.33 C 158.63 161.74 158.37 162.67 158.78 163.41 C 159.19 164.15 160.12 164.41 160.85 164.00 Z M 161.44 163.66 L 162.53 163.11 C 163.28 162.74 163.59 161.83 163.21 161.08 C 162.84 160.33 161.93 160.03 161.18 160.40 L 160.09 160.95 C 159.34 161.32 159.04 162.23 159.41 162.98 C 159.78 163.73 160.69 164.03 161.44 163.66 Z M 162.42 163.15 L 163.35 162.77 C 164.12 162.46 164.49 161.59 164.17 160.82 C 163.86 160.05 162.99 159.68 162.22 159.99 L 161.29 160.37 C 160.52 160.68 160.15 161.55 160.47 162.32 C 160.78 163.09 161.65 163.46 162.42 163.15 Z M 163.19 162.82 L 164.12 162.55 C 164.91 162.32 165.37 161.50 165.15 160.71 C 164.92 159.92 164.10 159.46 163.30 159.68 L 162.37 159.95 C 161.58 160.17 161.12 161.00 161.35 161.79 C 161.58 162.58 162.40 163.04 163.19 162.82 Z M 163.96 162.59 L 164.95 162.43 C 165.76 162.29 166.31 161.52 166.18 160.71 C 166.04 159.89 165.27 159.34 164.46 159.48 L 163.47 159.64 C 162.65 159.78 162.10 160.55 162.24 161.36 C 162.38 162.18 163.14 162.73 163.96 162.59 Z M 164.69 162.47 L 165.73 162.48 C 166.56 162.48 167.25 161.81 167.25 160.97 C 167.26 160.13 166.59 159.45 165.75 159.44 L 164.71 159.44 C 163.88 159.43 163.19 160.10 163.19 160.94 C 163.18 161.78 163.85 162.46 164.69 162.47 Z M 164.83 162.22 L 165.53 162.73 C 166.23 163.23 167.20 163.08 167.70 162.38 C 168.21 161.69 168.05 160.71 167.36 160.21 L 166.65 159.70 C 165.95 159.20 164.98 159.35 164.48 160.05 C 163.97 160.74 164.13 161.72 164.83 162.22 Z M 164.90 161.82 L 165.11 162.78 C 165.31 163.63 166.16 164.17 167.01 163.97 C 167.87 163.78 168.40 162.93 168.21 162.07 L 167.99 161.12 C 167.80 160.26 166.95 159.73 166.09 159.92 C 165.24 160.12 164.70 160.97 164.90 161.82 Z M 165.06 162.36 L 165.01 163.37 C 164.97 164.25 165.66 165.00 166.55 165.04 C 167.43 165.08 168.18 164.39 168.22 163.51 L 168.27 162.50 C 168.30 161.61 167.62 160.86 166.73 160.82 C 165.84 160.78 165.09 161.47 165.06 162.36 Z M 165.04 163.07 L 164.83 164.00 C 164.63 164.86 165.17 165.73 166.04 165.93 C 166.91 166.14 167.77 165.59 167.98 164.73 L 168.19 163.80 C 168.39 162.93 167.85 162.07 166.98 161.86 C 166.11 161.66 165.24 162.20 165.04 163.07 Z M 164.89 163.78 L 164.51 164.78 C 164.19 165.61 164.61 166.55 165.45 166.87 C 166.28 167.18 167.22 166.77 167.54 165.93 L 167.91 164.94 C 168.23 164.10 167.81 163.17 166.98 162.85 C 166.14 162.53 165.21 162.95 164.89 163.78 Z M 164.55 164.68 L 164.14 165.58 C 163.77 166.39 164.13 167.35 164.94 167.72 C 165.76 168.09 166.72 167.73 167.09 166.92 L 167.50 166.03 C 167.87 165.21 167.51 164.25 166.70 163.88 C 165.88 163.51 164.92 163.87 164.55 164.68 Z M 164.16 165.53 L 163.70 166.46 C 163.30 167.26 163.63 168.23 164.43 168.63 C 165.23 169.03 166.20 168.70 166.60 167.90 L 167.07 166.97 C 167.47 166.17 167.14 165.20 166.34 164.80 C 165.54 164.40 164.56 164.72 164.16 165.53 Z M 163.72 166.42 L 163.24 167.33 C 162.81 168.12 163.11 169.10 163.90 169.52 C 164.69 169.94 165.67 169.64 166.10 168.85 L 166.58 167.94 C 167.00 167.15 166.71 166.17 165.92 165.75 C 165.13 165.33 164.14 165.63 163.72 166.42 Z M 163.26 167.28 L 162.74 168.19 C 162.29 168.97 162.56 169.96 163.34 170.40 C 164.11 170.85 165.10 170.58 165.55 169.81 L 166.07 168.90 C 166.52 168.12 166.25 167.13 165.47 166.68 C 164.70 166.24 163.71 166.51 163.26 167.28 Z M 162.76 168.15 L 162.26 168.96 C 161.79 169.72 162.03 170.72 162.79 171.19 C 163.55 171.66 164.55 171.42 165.02 170.66 L 165.52 169.85 C 165.99 169.09 165.76 168.09 165.00 167.62 C 164.23 167.15 163.24 167.38 162.76 168.15 Z M 162.29 168.92 L 161.77 169.72 C 161.28 170.47 161.49 171.47 162.24 171.96 C 162.99 172.45 164.00 172.23 164.48 171.48 L 165.00 170.69 C 165.49 169.94 165.28 168.94 164.53 168.45 C 163.78 167.96 162.77 168.17 162.29 168.92 Z M 161.79 169.69 L 161.24 170.50 C 160.73 171.24 160.92 172.24 161.66 172.75 C 162.40 173.25 163.40 173.06 163.91 172.32 L 164.46 171.51 C 164.97 170.77 164.78 169.77 164.04 169.27 C 163.30 168.76 162.30 168.95 161.79 169.69 Z M 161.26 170.48 L 160.65 171.32 C 160.14 172.05 160.30 173.05 161.03 173.57 C 161.75 174.09 162.76 173.92 163.27 173.20 L 163.88 172.35 C 164.40 171.63 164.23 170.62 163.51 170.10 C 162.79 169.58 161.78 169.75 161.26 170.48 Z M 160.68 171.30 L 160.06 172.13 C 159.53 172.84 159.67 173.85 160.38 174.38 C 161.09 174.91 162.09 174.76 162.62 174.05 L 163.25 173.22 C 163.78 172.51 163.63 171.51 162.93 170.98 C 162.22 170.45 161.21 170.59 160.68 171.30 Z M 160.09 172.11 L 159.47 172.89 C 158.92 173.58 159.04 174.58 159.73 175.13 C 160.42 175.68 161.42 175.56 161.96 174.87 L 162.59 174.08 C 163.14 173.39 163.02 172.39 162.33 171.85 C 161.64 171.30 160.64 171.42 160.09 172.11 Z M 159.54 172.84 L 158.85 173.62 C 158.28 174.27 158.34 175.26 158.99 175.84 C 159.64 176.41 160.64 176.35 161.21 175.70 L 161.90 174.92 C 162.47 174.27 162.41 173.28 161.76 172.70 C 161.11 172.13 160.11 172.19 159.54 172.84 Z M 158.97 173.55 L 158.28 174.22 C 157.67 174.81 157.65 175.78 158.24 176.39 C 158.83 177.00 159.80 177.02 160.41 176.43 L 161.10 175.76 C 161.71 175.17 161.73 174.20 161.14 173.59 C 160.55 172.98 159.58 172.97 158.97 173.55 Z M 158.34 174.21 L 158.12 174.40 C 157.50 174.96 157.45 175.91 158.00 176.53 C 158.56 177.15 159.51 177.20 160.13 176.64 L 160.35 176.44 C 160.96 175.89 161.02 174.94 160.46 174.32 C 159.91 173.70 158.96 173.65 158.34 174.21 Z"
      fill="black"
      fill-rule="nonzero" /><path d="M 164.62 170.11 L 165.41 170.83 C 166.02 171.39 166.98 171.35 167.55 170.74 C 168.12 170.12 168.08 169.16 167.46 168.59 L 166.68 167.87 C 166.06 167.30 165.10 167.34 164.53 167.96 C 163.97 168.58 164.01 169.54 164.62 170.11 Z M 165.39 170.86 L 166.15 171.54 C 166.78 172.12 167.77 172.07 168.34 171.43 C 168.92 170.80 168.87 169.82 168.23 169.24 L 167.48 168.56 C 166.84 167.98 165.86 168.03 165.28 168.66 C 164.71 169.30 164.76 170.28 165.39 170.86 Z M 166.15 171.59 L 166.85 172.20 C 167.51 172.77 168.51 172.71 169.09 172.05 C 169.66 171.39 169.59 170.39 168.94 169.81 L 168.23 169.20 C 167.57 168.62 166.57 168.69 166.00 169.35 C 165.42 170.01 165.49 171.01 166.15 171.59 Z M 166.88 172.25 L 167.66 172.88 C 168.35 173.44 169.36 173.34 169.92 172.65 C 170.48 171.96 170.37 170.95 169.68 170.39 L 168.90 169.76 C 168.21 169.20 167.20 169.31 166.65 169.99 C 166.09 170.68 166.19 171.69 166.88 172.25 Z M 167.71 172.93 L 168.49 173.50 C 169.20 174.03 170.21 173.88 170.74 173.17 C 171.26 172.46 171.12 171.45 170.40 170.92 L 169.63 170.35 C 168.92 169.82 167.91 169.97 167.38 170.68 C 166.85 171.39 167.00 172.40 167.71 172.93 Z M 168.52 173.52 L 169.33 174.10 C 170.05 174.61 171.05 174.44 171.57 173.72 C 172.08 172.99 171.91 171.99 171.19 171.48 L 170.37 170.91 C 169.65 170.39 168.65 170.56 168.14 171.29 C 167.63 172.01 167.80 173.01 168.52 173.52 Z M 169.34 174.09 L 170.17 174.68 C 170.89 175.18 171.88 175.01 172.39 174.30 C 172.90 173.58 172.73 172.59 172.01 172.08 L 171.18 171.49 C 170.46 170.98 169.47 171.15 168.96 171.87 C 168.45 172.59 168.62 173.58 169.34 174.09 Z M 170.16 174.65 L 170.99 175.25 C 171.69 175.76 172.67 175.60 173.19 174.90 C 173.70 174.20 173.54 173.21 172.84 172.70 L 172.02 172.10 C 171.31 171.59 170.33 171.75 169.82 172.45 C 169.30 173.15 169.46 174.14 170.16 174.65 Z M 170.96 175.20 L 171.79 175.84 C 172.47 176.37 173.44 176.24 173.97 175.57 C 174.49 174.89 174.37 173.92 173.69 173.39 L 172.86 172.75 C 172.19 172.23 171.21 172.35 170.69 173.02 C 170.16 173.70 170.29 174.67 170.96 175.20 Z M 171.77 175.77 L 172.52 176.41 C 173.16 176.94 174.11 176.86 174.65 176.22 C 175.18 175.59 175.10 174.63 174.46 174.10 L 173.71 173.46 C 173.07 172.93 172.12 173.01 171.59 173.65 C 171.05 174.28 171.13 175.24 171.77 175.77 Z M 172.53 176.36 L 172.98 176.75 C 173.59 177.29 174.52 177.23 175.05 176.62 C 175.59 176.01 175.52 175.08 174.91 174.54 L 174.46 174.15 C 173.85 173.61 172.92 173.68 172.39 174.29 C 171.86 174.90 171.92 175.82 172.53 176.36 Z"
      fill="black"
      fill-rule="nonzero" /></svg>