<svg xmlns="http://www.w3.org/2000/svg" width="300" height="300" viewBox="0 0 300 300">
<path d="M 137.10 143.96 L 137.10 142.62 C 137.10 141.79 136.43 141.11 135.60 141.11 C 134.77 141.11 134.09 141.79 134.09 142.62 L 134.09 143.96 C 134.09 144.79 134.77 145.46 135.60 145.46 C 136.43 145.46 137.10 144.79 137.10 143.96 Z M 137.12 142.62 L 137.12 142.23 C 137.12 141.39 136.44 140.70 135.60 140.70 C 134.76 140.70 134.07 141.39 134.07 142.23 L 134.07 142.62 C 134.07 143.46 134.76 144.14 135.60 144.14 C 136.44 144.14 137.12 143.46 137.12 142.62 Z M 134.06 142.23 L 134.06 143.20 C 134.06 144.05 134.75 144.74 135.60 144.74 C 136.45 144.74 137.13 144.05 137.13 143.20 L 137.13 142.23 C 137.13 141.38 136.45 140.69 135.60 140.69 C 134.75 140.69 134.06 141.38 134.06 142.23 Z M 134.06 143.20 L 134.06 144.44 C 134.06 145.29 134.75 145.98 135.60 145.98 C 136.45 145.98 137.14 145.29 137.14 144.44 L 137.14 143.20 C 137.14 142.35 136.45 141.66 135.60 141.66 C 134.75 141.66 134.06 142.35 134.06 143.20 Z M 134.06 144.43 L 134.05 145.40 C 134.05 146.25 134.73 146.94 135.58 146.95 C 136.43 146.95 137.13 146.27 137.13 145.42 L 137.14 144.44 C 137.14 143.59 136.46 142.90 135.61 142.90 C 134.76 142.89 134.06 143.58 134.06 144.43 Z M 134.06 145.37 L 134.04 146.32 C 134.02 147.17 134.69 147.87 135.54 147.89 C 136.39 147.91 137.09 147.23 137.11 146.39 L 137.13 145.44 C 137.15 144.59 136.47 143.89 135.63 143.87 C 134.78 143.85 134.08 144.53 134.06 145.37 Z M 134.04 146.29 L 134.00 147.30 C 133.97 148.15 134.63 148.86 135.48 148.89 C 136.32 148.92 137.03 148.26 137.06 147.42 L 137.10 146.41 C 137.13 145.57 136.47 144.86 135.63 144.82 C 134.78 144.79 134.07 145.45 134.04 146.29 Z M 134.01 147.29 L 133.96 148.29 C 133.92 149.13 134.57 149.85 135.41 149.89 C 136.25 149.93 136.97 149.28 137.01 148.44 L 137.06 147.44 C 137.10 146.59 136.45 145.88 135.61 145.84 C 134.77 145.79 134.05 146.44 134.01 147.29 Z M 133.96 148.27 L 133.90 149.27 C 133.85 150.11 134.49 150.83 135.33 150.88 C 136.17 150.94 136.90 150.29 136.95 149.45 L 137.01 148.45 C 137.06 147.61 136.42 146.89 135.57 146.84 C 134.73 146.79 134.01 147.43 133.96 148.27 Z M 133.91 149.25 L 133.83 150.26 C 133.77 151.10 134.40 151.83 135.24 151.89 C 136.08 151.95 136.81 151.32 136.87 150.48 L 136.94 149.47 C 137.00 148.63 136.37 147.90 135.53 147.84 C 134.69 147.78 133.97 148.41 133.91 149.25 Z M 133.84 150.25 L 133.76 151.25 C 133.69 152.08 134.31 152.82 135.15 152.89 C 135.98 152.95 136.72 152.33 136.79 151.49 L 136.87 150.50 C 136.94 149.66 136.31 148.92 135.48 148.86 C 134.64 148.79 133.90 149.41 133.84 150.25 Z M 133.76 151.24 L 133.67 152.24 C 133.60 153.07 134.22 153.81 135.05 153.88 C 135.89 153.96 136.62 153.34 136.70 152.50 L 136.78 151.50 C 136.86 150.67 136.24 149.93 135.40 149.86 C 134.57 149.79 133.83 150.40 133.76 151.24 Z M 133.67 152.23 L 133.58 153.23 C 133.51 154.07 134.12 154.80 134.96 154.88 C 135.79 154.95 136.53 154.34 136.60 153.50 L 136.69 152.51 C 136.77 151.67 136.15 150.94 135.32 150.86 C 134.49 150.79 133.75 151.40 133.67 152.23 Z M 133.59 153.22 L 133.49 154.21 C 133.41 155.05 134.02 155.79 134.85 155.87 C 135.68 155.95 136.42 155.34 136.50 154.51 L 136.60 153.52 C 136.68 152.68 136.07 151.94 135.24 151.86 C 134.41 151.78 133.67 152.39 133.59 153.22 Z M 133.50 154.20 L 133.39 155.20 C 133.30 156.03 133.90 156.77 134.73 156.86 C 135.56 156.95 136.30 156.35 136.39 155.52 L 136.50 154.52 C 136.59 153.69 135.99 152.95 135.16 152.86 C 134.33 152.77 133.59 153.37 133.50 154.20 Z M 133.39 155.19 L 133.29 156.19 C 133.19 157.01 133.79 157.76 134.62 157.85 C 135.44 157.94 136.19 157.34 136.28 156.52 L 136.39 155.52 C 136.48 154.69 135.88 153.95 135.06 153.86 C 134.23 153.77 133.49 154.37 133.39 155.19 Z M 133.29 156.20 L 133.18 157.21 C 133.10 158.03 133.70 158.77 134.52 158.86 C 135.35 158.94 136.09 158.34 136.17 157.52 L 136.28 156.50 C 136.36 155.68 135.76 154.94 134.94 154.86 C 134.11 154.77 133.37 155.37 133.29 156.20 Z M 133.19 157.22 L 133.09 158.22 C 133.01 159.04 133.62 159.77 134.44 159.85 C 135.26 159.93 135.99 159.33 136.07 158.50 L 136.17 157.51 C 136.25 156.68 135.64 155.95 134.82 155.87 C 134.00 155.79 133.27 156.40 133.19 157.22 Z M 133.10 158.21 L 133.00 159.22 C 132.92 160.04 133.52 160.77 134.34 160.85 C 135.16 160.93 135.89 160.33 135.97 159.51 L 136.07 158.50 C 136.15 157.68 135.55 156.95 134.73 156.87 C 133.91 156.79 133.18 157.39 133.10 158.21 Z M 133.01 159.21 L 132.90 160.20 C 132.82 161.02 133.41 161.75 134.23 161.83 C 135.05 161.92 135.78 161.32 135.86 160.50 L 135.96 159.52 C 136.05 158.70 135.46 157.97 134.64 157.88 C 133.82 157.80 133.09 158.39 133.01 159.21 Z M 132.91 160.18 L 132.80 161.12 C 132.71 161.93 133.30 162.67 134.11 162.76 C 134.92 162.85 135.66 162.27 135.75 161.45 L 135.86 160.52 C 135.95 159.71 135.36 158.97 134.55 158.88 C 133.74 158.79 133.00 159.37 132.91 160.18 Z M 132.81 161.12 L 132.70 162.12 C 132.60 162.93 133.18 163.66 133.99 163.75 C 134.80 163.85 135.53 163.27 135.62 162.46 L 135.74 161.46 C 135.84 160.65 135.26 159.92 134.45 159.82 C 133.64 159.73 132.91 160.31 132.81 161.12 Z M 132.70 162.15 L 132.58 163.41 C 132.50 164.22 133.09 164.93 133.89 165.01 C 134.70 165.09 135.41 164.50 135.49 163.70 L 135.62 162.43 C 135.70 161.63 135.11 160.91 134.30 160.83 C 133.50 160.75 132.78 161.34 132.70 162.15 Z M 132.59 163.77 L 132.65 164.12 C 132.76 164.92 133.50 165.47 134.30 165.35 C 135.09 165.24 135.64 164.50 135.53 163.70 L 135.48 163.34 C 135.36 162.55 134.62 162.00 133.82 162.11 C 133.03 162.23 132.48 162.97 132.59 163.77 Z M 135.47 164.32 L 135.69 163.57 C 135.92 162.80 135.48 162.00 134.71 161.77 C 133.94 161.55 133.14 161.99 132.92 162.76 L 132.70 163.51 C 132.48 164.28 132.92 165.08 133.68 165.30 C 134.45 165.52 135.25 165.08 135.47 164.32 Z M 135.70 163.50 L 136.01 162.24 C 136.19 161.48 135.72 160.70 134.96 160.51 C 134.19 160.32 133.41 160.79 133.22 161.56 L 132.91 162.82 C 132.72 163.59 133.20 164.37 133.96 164.55 C 134.73 164.74 135.51 164.27 135.70 163.50 Z M 136.00 162.24 L 136.06 161.99 C 136.24 161.22 135.77 160.45 135.00 160.27 C 134.24 160.09 133.47 160.56 133.28 161.33 L 133.23 161.57 C 133.04 162.34 133.52 163.11 134.28 163.29 C 135.05 163.47 135.82 163.00 136.00 162.24 Z"
      fill="black"
      fill-rule="nonzero" /><path d="M 136.84 140.79 L 137.75 141.14 C 138.52 141.44 139.37 141.06 139.67 140.29 C 139.97 139.53 139.59 138.67 138.82 138.38 L 137.91 138.02 C 137.15 137.73 136.29 138.10 135.99 138.87 C 135.70 139.63 136.08 140.49 136.84 140.79 Z M 137.55 141.06 L 138.40 141.54 C 139.12 141.94 140.03 141.69 140.44 140.97 C 140.84 140.25 140.59 139.34 139.87 138.93 L 139.02 138.45 C 138.30 138.05 137.39 138.31 136.98 139.03 C 136.58 139.75 136.83 140.66 137.55 141.06 Z M 138.18 141.40 L 138.92 142.00 C 139.56 142.53 140.51 142.44 141.04 141.80 C 141.56 141.16 141.47 140.21 140.83 139.68 L 140.09 139.07 C 139.45 138.54 138.50 138.64 137.97 139.28 C 137.45 139.92 137.54 140.87 138.18 141.40 Z M 138.78 141.88 L 139.52 142.66 C 140.09 143.27 141.05 143.30 141.65 142.72 C 142.26 142.15 142.29 141.19 141.71 140.59 L 140.97 139.80 C 140.40 139.20 139.44 139.17 138.83 139.74 C 138.23 140.32 138.20 141.27 138.78 141.88 Z M 139.44 142.58 L 140.08 143.37 C 140.61 144.02 141.56 144.12 142.21 143.59 C 142.86 143.06 142.96 142.10 142.43 141.45 L 141.79 140.67 C 141.26 140.02 140.31 139.92 139.66 140.45 C 139.01 140.98 138.91 141.93 139.44 142.58 Z M 140.03 143.31 L 140.64 144.13 C 141.14 144.81 142.09 144.95 142.76 144.45 C 143.44 143.95 143.58 143.00 143.08 142.33 L 142.48 141.51 C 141.98 140.83 141.03 140.69 140.35 141.19 C 139.68 141.69 139.54 142.64 140.03 143.31 Z M 140.60 144.07 L 141.17 144.93 C 141.64 145.63 142.58 145.82 143.28 145.35 C 143.98 144.89 144.17 143.94 143.70 143.25 L 143.13 142.39 C 142.66 141.69 141.72 141.50 141.02 141.96 C 140.32 142.43 140.13 143.37 140.60 144.07 Z M 141.12 144.85 L 141.60 145.69 C 142.02 146.42 142.95 146.67 143.68 146.25 C 144.41 145.84 144.66 144.90 144.24 144.18 L 143.75 143.33 C 143.33 142.60 142.40 142.35 141.68 142.77 C 140.95 143.19 140.70 144.12 141.12 144.85 Z M 141.56 145.61 L 141.98 146.46 C 142.35 147.21 143.26 147.52 144.02 147.14 C 144.77 146.77 145.08 145.86 144.70 145.10 L 144.29 144.26 C 143.91 143.51 143.00 143.20 142.25 143.57 C 141.49 143.95 141.18 144.86 141.56 145.61 Z M 141.95 146.39 L 142.35 147.30 C 142.68 148.07 143.58 148.42 144.35 148.08 C 145.12 147.74 145.47 146.84 145.13 146.07 L 144.73 145.17 C 144.40 144.40 143.50 144.05 142.73 144.39 C 141.96 144.73 141.61 145.62 141.95 146.39 Z M 142.32 147.24 L 142.69 148.19 C 143.00 148.97 143.88 149.36 144.66 149.05 C 145.45 148.75 145.83 147.87 145.53 147.08 L 145.16 146.13 C 144.85 145.35 143.97 144.96 143.19 145.27 C 142.40 145.57 142.01 146.46 142.32 147.24 Z M 142.67 148.14 L 143.00 149.06 C 143.27 149.86 144.14 150.28 144.94 150.00 C 145.73 149.72 146.15 148.85 145.87 148.06 L 145.55 147.13 C 145.27 146.34 144.40 145.92 143.61 146.20 C 142.81 146.48 142.39 147.35 142.67 148.14 Z M 142.98 149.02 L 143.29 150.00 C 143.55 150.80 144.41 151.24 145.21 150.99 C 146.01 150.73 146.45 149.88 146.20 149.07 L 145.88 148.10 C 145.63 147.30 144.77 146.85 143.97 147.11 C 143.17 147.36 142.73 148.22 142.98 149.02 Z M 143.28 149.97 L 143.56 150.91 C 143.80 151.72 144.65 152.18 145.45 151.94 C 146.26 151.70 146.72 150.86 146.48 150.05 L 146.21 149.11 C 145.97 148.30 145.12 147.84 144.31 148.08 C 143.51 148.31 143.05 149.16 143.28 149.97 Z M 143.55 150.87 L 143.81 151.84 C 144.03 152.65 144.86 153.13 145.68 152.91 C 146.49 152.69 146.97 151.86 146.75 151.05 L 146.49 150.08 C 146.28 149.27 145.44 148.79 144.63 149.01 C 143.82 149.23 143.33 150.06 143.55 150.87 Z M 143.80 151.79 L 144.04 152.80 C 144.23 153.61 145.05 154.12 145.87 153.93 C 146.69 153.73 147.19 152.91 147.00 152.10 L 146.76 151.09 C 146.57 150.27 145.75 149.77 144.93 149.96 C 144.11 150.15 143.61 150.97 143.80 151.79 Z M 144.03 152.75 L 144.22 153.72 C 144.39 154.54 145.20 155.08 146.02 154.91 C 146.84 154.74 147.38 153.94 147.21 153.11 L 147.01 152.14 C 146.84 151.32 146.04 150.79 145.22 150.95 C 144.39 151.12 143.86 151.92 144.03 152.75 Z M 144.22 153.68 L 144.39 154.67 C 144.54 155.50 145.33 156.05 146.16 155.91 C 146.99 155.76 147.54 154.97 147.39 154.14 L 147.22 153.15 C 147.07 152.32 146.28 151.77 145.45 151.92 C 144.62 152.06 144.07 152.85 144.22 153.68 Z M 144.39 154.64 L 144.54 155.63 C 144.67 156.47 145.45 157.03 146.28 156.90 C 147.11 156.78 147.68 156.00 147.55 155.17 L 147.40 154.17 C 147.27 153.34 146.49 152.77 145.66 152.90 C 144.83 153.03 144.26 153.81 144.39 154.64 Z M 144.54 155.61 L 144.67 156.61 C 144.79 157.44 145.55 158.02 146.39 157.91 C 147.22 157.80 147.81 157.03 147.69 156.20 L 147.56 155.19 C 147.44 154.36 146.67 153.78 145.84 153.89 C 145.01 154.00 144.42 154.77 144.54 155.61 Z M 144.67 156.57 L 144.78 157.56 C 144.87 158.40 145.62 159.00 146.46 158.91 C 147.30 158.81 147.90 158.06 147.81 157.22 L 147.70 156.23 C 147.60 155.40 146.85 154.79 146.01 154.89 C 145.18 154.98 144.57 155.73 144.67 156.57 Z M 144.77 157.51 L 144.85 158.50 C 144.92 159.34 145.66 159.97 146.50 159.90 C 147.34 159.83 147.96 159.09 147.89 158.25 L 147.81 157.27 C 147.74 156.43 147.01 155.80 146.17 155.87 C 145.33 155.94 144.70 156.67 144.77 157.51 Z M 144.85 158.46 L 144.90 159.45 C 144.94 160.29 145.66 160.94 146.50 160.90 C 147.34 160.85 147.99 160.14 147.95 159.29 L 147.90 158.30 C 147.85 157.46 147.14 156.81 146.30 156.85 C 145.45 156.90 144.81 157.61 144.85 158.46 Z M 144.90 159.41 L 144.92 160.41 C 144.95 161.26 145.65 161.92 146.49 161.90 C 147.33 161.87 148.00 161.17 147.98 160.33 L 147.95 159.33 C 147.93 158.49 147.22 157.82 146.38 157.84 C 145.54 157.87 144.87 158.57 144.90 159.41 Z M 144.92 160.39 L 144.94 161.40 C 144.95 162.24 145.64 162.91 146.48 162.90 C 147.33 162.89 148.00 162.20 147.99 161.36 L 147.98 160.35 C 147.97 159.51 147.27 158.83 146.43 158.85 C 145.59 158.86 144.91 159.55 144.92 160.39 Z M 144.94 161.39 L 144.94 162.38 C 144.95 163.23 145.64 163.91 146.48 163.90 C 147.32 163.90 148.00 163.21 148.00 162.37 L 147.99 161.37 C 147.98 160.52 147.30 159.85 146.45 159.85 C 145.61 159.86 144.93 160.54 144.94 161.39 Z M 144.94 162.38 L 144.95 163.38 C 144.95 164.22 145.63 164.90 146.47 164.90 C 147.32 164.90 148.00 164.22 148.00 163.37 L 148.00 162.37 C 147.99 161.53 147.31 160.85 146.47 160.85 C 145.62 160.85 144.94 161.54 144.94 162.38 Z M 144.95 163.38 L 144.95 164.38 C 144.95 165.22 145.63 165.91 146.47 165.91 C 147.31 165.91 148.00 165.22 148.00 164.38 L 148.00 163.38 C 148.00 162.53 147.31 161.85 146.47 161.85 C 145.63 161.85 144.95 162.53 144.95 163.38 Z M 144.95 164.38 L 144.95 165.39 C 144.95 166.23 145.63 166.91 146.47 166.91 C 147.31 166.91 148.00 166.23 148.00 165.39 L 148.00 164.38 C 148.00 163.54 147.31 162.86 146.47 162.86 C 145.63 162.86 144.95 163.54 144.95 164.38 Z M 144.95 165.39 L 144.95 166.39 C 144.95 167.23 145.63 167.91 146.47 167.91 C 147.31 167.91 148.00 167.23 148.00 166.39 L 148.00 165.39 C 148.00 164.55 147.31 163.87 146.47 163.87 C 145.63 163.87 144.95 164.55 144.95 165.39 Z M 144.95 166.39 L 144.95 167.38 C 144.95 168.23 145.63 168.91 146.47 168.91 C 147.31 168.91 148.00 168.23 148.00 167.38 L 148.00 166.39 C 148.00 165.55 147.31 164.86 146.47 164.86 C 145.63 164.86 144.95 165.55 144.95 166.39 Z M 144.95 167.38 L 144.94 168.38 C 144.94 169.22 145.62 169.91 146.46 169.91 C 147.30 169.92 147.99 169.24 147.99 168.39 L 148.00 167.39 C 148.00 166.55 147.32 165.86 146.48 165.86 C 145.64 165.86 144.95 166.53 144.95 167.38 Z M 144.94 168.36 L 144.92 169.35 C 144.91 170.19 145.57 170.89 146.42 170.90 C 147.26 170.92 147.95 170.25 147.97 169.41 L 147.99 168.42 C 148.01 167.58 147.34 166.88 146.50 166.86 C 145.66 166.85 144.96 167.51 144.94 168.36 Z M 144.92 169.31 L 144.88 170.33 C 144.83 171.17 145.48 171.88 146.32 171.92 C 147.17 171.96 147.88 171.31 147.92 170.47 L 147.97 169.45 C 148.01 168.61 147.36 167.90 146.52 167.86 C 145.68 167.82 144.96 168.47 144.92 169.31 Z M 144.88 170.28 L 144.80 171.30 C 144.73 172.14 145.36 172.88 146.20 172.94 C 147.04 173.01 147.77 172.38 147.84 171.54 L 147.92 170.52 C 147.98 169.68 147.36 168.95 146.52 168.88 C 145.68 168.81 144.94 169.44 144.88 170.28 Z M 144.80 171.26 L 144.70 172.22 C 144.61 173.06 145.22 173.81 146.05 173.90 C 146.89 173.99 147.64 173.38 147.73 172.54 L 147.83 171.58 C 147.92 170.75 147.32 170.00 146.48 169.91 C 145.64 169.82 144.89 170.42 144.80 171.26 Z M 144.71 172.18 L 144.57 173.15 C 144.46 173.98 145.05 174.75 145.88 174.86 C 146.71 174.97 147.48 174.39 147.59 173.56 L 147.72 172.59 C 147.84 171.75 147.25 170.99 146.42 170.87 C 145.59 170.76 144.82 171.34 144.71 172.18 Z M 144.58 173.10 L 144.42 174.07 C 144.29 174.90 144.85 175.68 145.68 175.82 C 146.51 175.95 147.29 175.39 147.43 174.56 L 147.59 173.60 C 147.72 172.77 147.16 171.99 146.33 171.85 C 145.50 171.71 144.72 172.27 144.58 173.10 Z M 144.43 174.04 L 144.25 175.03 C 144.10 175.86 144.65 176.65 145.47 176.80 C 146.30 176.95 147.09 176.40 147.24 175.57 L 147.42 174.59 C 147.57 173.76 147.02 172.97 146.20 172.82 C 145.37 172.67 144.58 173.22 144.43 174.04 Z M 144.25 175.01 L 144.06 176.01 C 143.90 176.83 144.44 177.63 145.27 177.79 C 146.09 177.94 146.89 177.41 147.05 176.58 L 147.24 175.59 C 147.40 174.77 146.86 173.97 146.03 173.81 C 145.21 173.65 144.41 174.19 144.25 175.01 Z M 144.07 175.97 L 143.86 176.97 C 143.68 177.79 144.20 178.60 145.02 178.78 C 145.84 178.95 146.65 178.43 146.82 177.61 L 147.04 176.61 C 147.21 175.79 146.69 174.99 145.87 174.81 C 145.05 174.63 144.25 175.15 144.07 175.97 Z M 143.87 176.91 L 143.55 178.13 C 143.34 178.93 143.82 179.76 144.63 179.98 C 145.44 180.19 146.27 179.71 146.48 178.90 L 146.80 177.68 C 147.02 176.87 146.53 176.04 145.73 175.83 C 144.92 175.61 144.09 176.10 143.87 176.91 Z M 143.63 177.91 L 143.31 178.65 C 142.98 179.41 143.32 180.30 144.09 180.64 C 144.85 180.97 145.74 180.62 146.08 179.86 L 146.40 179.12 C 146.74 178.35 146.39 177.46 145.62 177.13 C 144.86 176.79 143.97 177.14 143.63 177.91 Z M 146.10 178.73 L 145.90 178.20 C 145.61 177.43 144.75 177.03 143.97 177.32 C 143.20 177.61 142.80 178.47 143.09 179.25 L 143.29 179.78 C 143.58 180.55 144.44 180.95 145.22 180.66 C 145.99 180.37 146.39 179.51 146.10 178.73 Z M 145.97 178.62 L 145.91 177.72 C 145.85 176.91 145.14 176.29 144.33 176.35 C 143.51 176.41 142.90 177.12 142.95 177.93 L 143.02 178.83 C 143.08 179.65 143.78 180.26 144.60 180.20 C 145.42 180.15 146.03 179.44 145.97 178.62 Z"
      fill="black"
      fill-rule="nonzero" /><path d="M 137.17 154.25 L 138.23 154.01 C 139.01 153.84 139.51 153.05 139.34 152.27 C 139.16 151.48 138.38 150.98 137.59 151.16 L 136.53 151.39 C 135.74 151.57 135.25 152.35 135.42 153.14 C 135.60 153.92 136.38 154.42 137.17 154.25 Z M 138.23 154.01 L 139.25 153.78 C 140.04 153.61 140.54 152.83 140.36 152.04 C 140.19 151.25 139.41 150.75 138.62 150.93 L 137.59 151.16 C 136.80 151.33 136.31 152.11 136.48 152.90 C 136.66 153.69 137.44 154.18 138.23 154.01 Z M 139.25 153.78 L 140.21 153.57 C 141.00 153.40 141.49 152.62 141.32 151.83 C 141.15 151.04 140.37 150.54 139.58 150.72 L 138.62 150.93 C 137.83 151.10 137.33 151.88 137.51 152.67 C 137.68 153.46 138.46 153.96 139.25 153.78 Z M 140.21 153.57 L 141.08 153.38 C 141.87 153.21 142.37 152.43 142.19 151.64 C 142.02 150.85 141.24 150.35 140.45 150.52 L 139.58 150.72 C 138.79 150.89 138.29 151.67 138.47 152.46 C 138.64 153.25 139.42 153.74 140.21 153.57 Z M 141.08 153.37 L 142.18 153.13 C 142.96 152.96 143.46 152.19 143.29 151.40 C 143.12 150.62 142.34 150.12 141.56 150.29 L 140.46 150.53 C 139.67 150.70 139.18 151.48 139.35 152.26 C 139.52 153.05 140.29 153.54 141.08 153.37 Z M 142.17 153.12 L 143.08 152.92 C 143.85 152.76 144.35 151.99 144.18 151.21 C 144.01 150.44 143.25 149.94 142.47 150.11 L 141.57 150.30 C 140.79 150.47 140.29 151.24 140.46 152.01 C 140.63 152.79 141.39 153.29 142.17 153.12 Z M 143.07 152.91 L 143.47 152.83 C 144.24 152.66 144.73 151.90 144.57 151.13 C 144.40 150.36 143.64 149.87 142.87 150.03 L 142.47 150.12 C 141.70 150.28 141.21 151.04 141.38 151.82 C 141.54 152.59 142.30 153.08 143.07 152.91 Z"
      fill="black"
      fill-rule="nonzero" /><path d="M 136.93 159.09 L 137.95 159.25 C 138.78 159.38 139.57 158.81 139.70 157.97 C 139.84 157.14 139.26 156.35 138.43 156.22 L 137.42 156.06 C 136.58 155.92 135.79 156.49 135.66 157.33 C 135.53 158.17 136.10 158.95 136.93 159.09 Z M 138.24 159.26 L 139.21 159.22 C 140.05 159.19 140.71 158.48 140.68 157.64 C 140.65 156.80 139.94 156.14 139.09 156.17 L 138.13 156.21 C 137.29 156.24 136.63 156.95 136.66 157.79 C 136.69 158.63 137.40 159.29 138.24 159.26 Z M 139.62 159.12 L 140.57 158.81 C 141.35 158.55 141.78 157.70 141.52 156.91 C 141.26 156.12 140.41 155.70 139.62 155.96 L 138.68 156.27 C 137.89 156.53 137.47 157.38 137.73 158.17 C 137.99 158.96 138.84 159.38 139.62 159.12 Z M 140.66 158.74 L 141.57 158.36 C 142.32 158.05 142.68 157.19 142.37 156.44 C 142.06 155.69 141.20 155.34 140.45 155.65 L 139.53 156.02 C 138.78 156.34 138.42 157.20 138.73 157.95 C 139.04 158.70 139.90 159.05 140.66 158.74 Z M 141.57 158.35 L 142.51 157.96 C 143.25 157.65 143.60 156.80 143.29 156.06 C 142.98 155.31 142.13 154.96 141.39 155.27 L 140.45 155.66 C 139.71 155.97 139.36 156.82 139.67 157.56 C 139.97 158.31 140.83 158.66 141.57 158.35 Z M 142.52 157.94 L 143.43 157.55 C 144.17 157.23 144.51 156.39 144.19 155.65 C 143.88 154.92 143.03 154.58 142.30 154.89 L 141.38 155.29 C 140.65 155.60 140.31 156.45 140.62 157.18 C 140.94 157.92 141.78 158.26 142.52 157.94 Z M 143.44 157.54 L 144.36 157.14 C 145.08 156.82 145.42 155.98 145.10 155.25 C 144.78 154.52 143.94 154.19 143.21 154.50 L 142.29 154.90 C 141.57 155.22 141.23 156.07 141.55 156.79 C 141.87 157.52 142.71 157.85 143.44 157.54 Z M 144.36 157.13 L 145.27 156.73 C 145.99 156.41 146.32 155.57 146.01 154.85 C 145.69 154.12 144.84 153.79 144.12 154.11 L 143.21 154.51 C 142.48 154.83 142.15 155.67 142.47 156.40 C 142.79 157.12 143.63 157.45 144.36 157.13 Z M 145.28 156.72 L 146.19 156.32 C 146.91 155.99 147.24 155.15 146.91 154.43 C 146.59 153.71 145.74 153.39 145.02 153.71 L 144.11 154.12 C 143.39 154.44 143.07 155.29 143.39 156.01 C 143.72 156.73 144.56 157.05 145.28 156.72 Z M 146.20 156.31 L 147.11 155.89 C 147.83 155.56 148.14 154.72 147.82 154.00 C 147.49 153.28 146.64 152.97 145.92 153.30 L 145.01 153.72 C 144.30 154.04 143.98 154.89 144.31 155.61 C 144.64 156.32 145.49 156.64 146.20 156.31 Z M 147.12 155.89 L 147.53 155.70 C 148.25 155.37 148.56 154.52 148.23 153.81 C 147.90 153.09 147.05 152.78 146.34 153.11 L 145.92 153.30 C 145.21 153.63 144.89 154.48 145.23 155.19 C 145.56 155.91 146.40 156.22 147.12 155.89 Z"
      fill="black"
      fill-rule="nonzero" /><path d="M 154.91 126.15 L 155.48 126.98 C 155.96 127.66 156.90 127.84 157.59 127.36 C 158.28 126.88 158.45 125.93 157.97 125.24 L 157.40 124.42 C 156.92 123.73 155.98 123.56 155.29 124.04 C 154.60 124.52 154.43 125.47 154.91 126.15 Z M 155.47 126.98 L 155.95 127.67 C 156.43 128.37 157.39 128.54 158.08 128.06 C 158.78 127.58 158.95 126.62 158.46 125.93 L 157.98 125.24 C 157.50 124.54 156.55 124.37 155.85 124.85 C 155.16 125.33 154.99 126.29 155.47 126.98 Z"
      fill="black"
      fill-rule="nonzero" /><path d="M 168.52 125.04 L 167.61 125.38 C 166.78 125.69 166.37 126.61 166.68 127.43 C 166.98 128.25 167.90 128.67 168.72 128.36 L 169.64 128.02 C 170.46 127.71 170.88 126.79 170.57 125.97 C 170.26 125.15 169.35 124.73 168.52 125.04 Z M 167.37 125.50 L 166.52 125.99 C 165.76 126.43 165.50 127.40 165.94 128.16 C 166.38 128.92 167.35 129.18 168.11 128.74 L 168.96 128.25 C 169.72 127.81 169.98 126.84 169.54 126.08 C 169.10 125.32 168.13 125.06 167.37 125.50 Z M 166.30 126.18 L 165.57 126.80 C 164.92 127.36 164.84 128.35 165.40 129.00 C 165.95 129.66 166.94 129.73 167.59 129.18 L 168.32 128.55 C 168.98 128.00 169.06 127.01 168.50 126.36 C 167.94 125.70 166.96 125.62 166.30 126.18 Z M 165.53 126.90 L 164.77 127.64 C 164.17 128.22 164.15 129.18 164.73 129.78 C 165.32 130.38 166.27 130.40 166.87 129.81 L 167.63 129.08 C 168.23 128.49 168.25 127.54 167.67 126.94 C 167.09 126.34 166.13 126.32 165.53 126.90 Z M 164.79 127.66 L 164.10 128.32 C 163.52 128.89 163.50 129.83 164.07 130.42 C 164.64 131.01 165.58 131.03 166.17 130.46 L 166.85 129.79 C 167.44 129.22 167.46 128.28 166.89 127.69 C 166.32 127.10 165.38 127.09 164.79 127.66 Z M 164.13 128.32 L 163.38 129.02 C 162.79 129.58 162.77 130.51 163.32 131.10 C 163.88 131.70 164.82 131.72 165.41 131.16 L 166.15 130.46 C 166.74 129.90 166.77 128.97 166.21 128.38 C 165.65 127.78 164.72 127.76 164.13 128.32 Z M 163.41 129.01 L 162.62 129.72 C 162.03 130.27 161.98 131.20 162.53 131.79 C 163.08 132.39 164.00 132.43 164.60 131.89 L 165.39 131.17 C 165.98 130.63 166.03 129.70 165.48 129.10 C 164.93 128.50 164.01 128.46 163.41 129.01 Z M 162.64 129.71 L 161.86 130.40 C 161.25 130.94 161.20 131.86 161.73 132.47 C 162.27 133.07 163.19 133.13 163.80 132.60 L 164.58 131.90 C 165.19 131.37 165.24 130.44 164.71 129.84 C 164.17 129.23 163.25 129.17 162.64 129.71 Z M 161.87 130.39 L 161.13 131.04 C 160.52 131.57 160.45 132.49 160.98 133.10 C 161.51 133.71 162.44 133.78 163.05 133.25 L 163.79 132.61 C 164.40 132.08 164.46 131.15 163.93 130.54 C 163.40 129.93 162.48 129.87 161.87 130.39 Z M 161.14 131.03 L 160.35 131.71 C 159.74 132.23 159.66 133.15 160.19 133.77 C 160.72 134.38 161.64 134.45 162.25 133.93 L 163.04 133.25 C 163.65 132.73 163.72 131.80 163.20 131.19 C 162.67 130.58 161.75 130.51 161.14 131.03 Z M 160.36 131.70 L 159.63 132.31 C 159.01 132.83 158.94 133.76 159.46 134.37 C 159.98 134.99 160.90 135.07 161.52 134.55 L 162.25 133.93 C 162.86 133.41 162.94 132.49 162.42 131.87 C 161.90 131.25 160.97 131.18 160.36 131.70 Z M 159.64 132.30 L 158.94 132.88 C 158.32 133.39 158.23 134.32 158.74 134.94 C 159.26 135.56 160.18 135.65 160.80 135.14 L 161.50 134.56 C 162.13 134.05 162.22 133.12 161.70 132.50 C 161.19 131.88 160.27 131.79 159.64 132.30 Z M 158.97 132.85 L 158.16 133.48 C 157.53 133.98 157.41 134.90 157.91 135.54 C 158.41 136.18 159.33 136.29 159.97 135.79 L 160.77 135.16 C 161.41 134.67 161.52 133.75 161.03 133.11 C 160.53 132.47 159.61 132.36 158.97 132.85 Z M 158.20 133.45 L 157.42 134.02 C 156.76 134.50 156.62 135.42 157.10 136.08 C 157.58 136.73 158.49 136.87 159.15 136.40 L 159.93 135.82 C 160.59 135.35 160.73 134.43 160.25 133.77 C 159.77 133.12 158.85 132.97 158.20 133.45 Z M 157.44 134.00 L 156.61 134.58 C 155.94 135.05 155.78 135.97 156.25 136.64 C 156.71 137.30 157.64 137.47 158.30 137.00 L 159.13 136.42 C 159.80 135.95 159.96 135.03 159.49 134.36 C 159.03 133.69 158.10 133.53 157.44 134.00 Z M 156.62 134.56 L 155.68 135.20 C 155.00 135.66 154.83 136.59 155.29 137.27 C 155.75 137.95 156.68 138.12 157.36 137.66 L 158.29 137.02 C 158.97 136.55 159.15 135.63 158.68 134.95 C 158.22 134.27 157.29 134.10 156.62 134.56 Z M 155.65 135.21 L 154.68 135.90 C 154.00 136.38 153.84 137.31 154.32 137.98 C 154.80 138.66 155.73 138.82 156.40 138.34 L 157.38 137.65 C 158.06 137.17 158.22 136.24 157.74 135.57 C 157.26 134.89 156.33 134.73 155.65 135.21 Z M 154.38 136.16 L 154.04 136.58 C 153.51 137.22 153.60 138.17 154.24 138.70 C 154.87 139.23 155.82 139.14 156.35 138.50 L 156.70 138.08 C 157.23 137.44 157.14 136.49 156.50 135.96 C 155.86 135.43 154.91 135.52 154.38 136.16 Z M 155.35 139.05 L 156.26 138.96 C 157.10 138.87 157.70 138.12 157.62 137.29 C 157.53 136.45 156.79 135.85 155.95 135.93 L 155.04 136.03 C 154.20 136.11 153.60 136.86 153.68 137.69 C 153.77 138.53 154.51 139.14 155.35 139.05 Z M 156.47 138.93 L 157.54 138.67 C 158.36 138.47 158.86 137.64 158.66 136.82 C 158.46 136.00 157.63 135.49 156.81 135.69 L 155.74 135.95 C 154.92 136.16 154.42 136.99 154.62 137.81 C 154.82 138.63 155.65 139.14 156.47 138.93 Z M 157.55 138.67 L 158.52 138.42 C 159.34 138.21 159.83 137.37 159.62 136.56 C 159.41 135.74 158.58 135.24 157.76 135.45 L 156.79 135.70 C 155.97 135.91 155.48 136.75 155.69 137.56 C 155.90 138.38 156.74 138.88 157.55 138.67 Z M 158.52 138.41 L 159.51 138.16 C 160.33 137.95 160.82 137.12 160.61 136.30 C 160.40 135.49 159.57 135.00 158.76 135.21 L 157.76 135.46 C 156.95 135.67 156.46 136.50 156.66 137.31 C 156.87 138.13 157.70 138.62 158.52 138.41 Z M 159.51 138.15 L 160.48 137.91 C 161.30 137.70 161.79 136.88 161.59 136.06 C 161.38 135.25 160.56 134.76 159.74 134.96 L 158.77 135.21 C 157.95 135.41 157.46 136.24 157.66 137.05 C 157.87 137.86 158.69 138.36 159.51 138.15 Z M 160.48 137.91 L 161.46 137.66 C 162.27 137.46 162.77 136.63 162.56 135.82 C 162.36 135.01 161.53 134.51 160.72 134.72 L 159.74 134.96 C 158.93 135.17 158.44 135.99 158.64 136.81 C 158.85 137.62 159.67 138.11 160.48 137.91 Z M 161.47 137.66 L 162.47 137.40 C 163.28 137.20 163.77 136.37 163.56 135.56 C 163.35 134.74 162.53 134.25 161.72 134.46 L 160.71 134.72 C 159.90 134.93 159.41 135.75 159.62 136.57 C 159.83 137.38 160.65 137.87 161.47 137.66 Z M 162.47 137.40 L 163.43 137.16 C 164.24 136.95 164.73 136.13 164.53 135.31 C 164.32 134.50 163.49 134.01 162.68 134.22 L 161.72 134.46 C 160.91 134.67 160.42 135.50 160.62 136.31 C 160.83 137.12 161.65 137.61 162.47 137.40 Z M 163.41 137.16 L 164.37 136.93 C 165.18 136.74 165.68 135.92 165.49 135.11 C 165.30 134.30 164.48 133.80 163.67 133.99 L 162.71 134.22 C 161.89 134.41 161.39 135.22 161.58 136.04 C 161.78 136.85 162.59 137.35 163.41 137.16 Z M 164.34 136.93 L 165.32 136.72 C 166.14 136.54 166.65 135.74 166.48 134.93 C 166.30 134.11 165.50 133.60 164.69 133.77 L 163.70 133.99 C 162.88 134.16 162.37 134.97 162.54 135.78 C 162.72 136.59 163.52 137.11 164.34 136.93 Z M 165.32 136.71 L 166.28 136.50 C 167.08 136.32 167.60 135.53 167.42 134.72 C 167.24 133.91 166.45 133.40 165.64 133.58 L 164.69 133.78 C 163.88 133.96 163.37 134.76 163.54 135.56 C 163.72 136.37 164.52 136.88 165.32 136.71 Z M 166.27 136.48 L 167.24 136.28 C 168.04 136.10 168.55 135.32 168.37 134.52 C 168.20 133.72 167.42 133.21 166.62 133.38 L 165.65 133.59 C 164.85 133.76 164.34 134.55 164.51 135.35 C 164.68 136.15 165.47 136.66 166.27 136.48 Z M 167.17 136.27 L 168.14 136.11 C 168.94 135.98 169.47 135.23 169.34 134.43 C 169.21 133.63 168.46 133.10 167.66 133.23 L 166.69 133.39 C 165.89 133.52 165.36 134.27 165.49 135.07 C 165.62 135.86 166.37 136.40 167.17 136.27 Z M 168.07 136.11 L 169.07 135.99 C 169.87 135.90 170.43 135.18 170.34 134.38 C 170.25 133.59 169.53 133.02 168.73 133.11 L 167.73 133.23 C 166.94 133.32 166.37 134.04 166.46 134.84 C 166.56 135.63 167.28 136.20 168.07 136.11 Z M 169.05 135.98 L 169.30 135.96 C 170.09 135.87 170.66 135.16 170.58 134.37 C 170.49 133.58 169.78 133.01 168.99 133.09 L 168.75 133.12 C 167.96 133.20 167.38 133.91 167.47 134.70 C 167.55 135.50 168.26 136.07 169.05 135.98 Z"
      fill="black"
      fill-rule="nonzero" /><path d="M 152.78 142.22 L 151.78 142.77 C 151.04 143.17 150.77 144.10 151.18 144.84 C 151.58 145.58 152.51 145.85 153.25 145.45 L 154.25 144.90 C 154.99 144.50 155.26 143.57 154.86 142.83 C 154.45 142.09 153.52 141.82 152.78 142.22 Z M 152.18 145.62 L 152.50 145.69 C 153.34 145.87 154.16 145.35 154.35 144.52 C 154.53 143.68 154.01 142.86 153.18 142.67 L 152.85 142.60 C 152.02 142.41 151.19 142.94 151.01 143.77 C 150.82 144.61 151.35 145.43 152.18 145.62 Z M 153.23 145.68 L 154.45 145.36 C 155.28 145.14 155.78 144.29 155.56 143.46 C 155.34 142.64 154.49 142.14 153.66 142.36 L 152.44 142.68 C 151.62 142.90 151.12 143.75 151.34 144.58 C 151.56 145.40 152.41 145.90 153.23 145.68 Z M 154.53 145.33 L 155.43 145.05 C 156.25 144.78 156.69 143.91 156.43 143.10 C 156.17 142.28 155.30 141.83 154.48 142.10 L 153.58 142.38 C 152.77 142.65 152.32 143.52 152.58 144.33 C 152.85 145.15 153.72 145.60 154.53 145.33 Z M 155.46 145.04 L 156.45 144.70 C 157.25 144.42 157.69 143.54 157.41 142.73 C 157.13 141.92 156.25 141.49 155.44 141.77 L 154.45 142.11 C 153.64 142.38 153.21 143.26 153.49 144.07 C 153.77 144.88 154.65 145.31 155.46 145.04 Z M 156.46 144.69 L 157.47 144.33 C 158.27 144.05 158.69 143.16 158.41 142.36 C 158.12 141.55 157.24 141.13 156.43 141.42 L 155.43 141.77 C 154.62 142.06 154.20 142.95 154.48 143.75 C 154.77 144.56 155.66 144.98 156.46 144.69 Z M 157.48 144.33 L 158.42 143.99 C 159.22 143.69 159.63 142.81 159.34 142.01 C 159.05 141.20 158.16 140.79 157.36 141.08 L 156.42 141.42 C 155.62 141.72 155.20 142.60 155.50 143.40 C 155.79 144.21 156.67 144.62 157.48 144.33 Z M 158.42 143.98 L 159.34 143.64 C 160.14 143.35 160.55 142.46 160.26 141.66 C 159.96 140.86 159.08 140.45 158.28 140.75 L 157.36 141.09 C 156.56 141.38 156.15 142.27 156.44 143.07 C 156.74 143.86 157.62 144.27 158.42 143.98 Z M 159.34 143.64 L 160.28 143.29 C 161.08 143.00 161.49 142.12 161.19 141.32 C 160.90 140.52 160.02 140.12 159.22 140.41 L 158.28 140.75 C 157.49 141.04 157.08 141.93 157.37 142.72 C 157.66 143.52 158.54 143.93 159.34 143.64 Z M 160.27 143.29 L 161.21 142.95 C 162.00 142.67 162.42 141.79 162.13 140.99 C 161.84 140.20 160.97 139.78 160.17 140.07 L 159.23 140.41 C 158.44 140.70 158.02 141.57 158.31 142.37 C 158.60 143.17 159.47 143.58 160.27 143.29 Z M 161.20 142.95 L 162.14 142.61 C 162.93 142.33 163.35 141.46 163.07 140.67 C 162.79 139.88 161.91 139.46 161.12 139.74 L 160.18 140.08 C 159.39 140.36 158.97 141.23 159.25 142.02 C 159.53 142.81 160.41 143.23 161.20 142.95 Z M 162.13 142.61 L 163.09 142.27 C 163.88 142.00 164.29 141.13 164.02 140.34 C 163.74 139.55 162.88 139.14 162.09 139.41 L 161.13 139.75 C 160.34 140.03 159.93 140.89 160.20 141.68 C 160.48 142.47 161.34 142.88 162.13 142.61 Z M 163.08 142.26 L 164.04 141.93 C 164.82 141.66 165.23 140.80 164.96 140.02 C 164.69 139.23 163.83 138.82 163.05 139.09 L 162.10 139.42 C 161.31 139.70 160.90 140.55 161.17 141.34 C 161.44 142.12 162.30 142.54 163.08 142.26 Z M 164.03 141.92 L 165.07 141.56 C 165.84 141.29 166.26 140.44 165.99 139.66 C 165.72 138.89 164.87 138.47 164.09 138.74 L 163.05 139.10 C 162.27 139.37 161.86 140.22 162.13 141.00 C 162.40 141.78 163.25 142.19 164.03 141.92 Z M 165.06 141.55 L 166.06 141.20 C 166.83 140.93 167.24 140.09 166.97 139.32 C 166.70 138.55 165.86 138.14 165.09 138.41 L 164.09 138.76 C 163.32 139.03 162.91 139.87 163.18 140.64 C 163.45 141.41 164.29 141.82 165.06 141.55 Z M 166.06 141.19 L 166.94 140.88 C 167.70 140.61 168.10 139.77 167.83 139.01 C 167.56 138.25 166.73 137.85 165.97 138.12 L 165.09 138.43 C 164.32 138.70 163.92 139.53 164.19 140.29 C 164.46 141.05 165.30 141.45 166.06 141.19 Z M 166.94 140.86 L 167.90 140.51 C 168.65 140.24 169.04 139.41 168.77 138.66 C 168.50 137.90 167.66 137.52 166.91 137.79 L 165.96 138.14 C 165.21 138.41 164.82 139.24 165.09 139.99 C 165.36 140.74 166.19 141.13 166.94 140.86 Z M 167.92 140.49 L 168.81 140.15 C 169.55 139.87 169.93 139.04 169.64 138.30 C 169.36 137.56 168.53 137.18 167.79 137.47 L 166.89 137.81 C 166.15 138.09 165.78 138.92 166.07 139.66 C 166.35 140.40 167.18 140.77 167.92 140.49 Z M 168.82 140.14 L 169.14 140.01 C 169.87 139.73 170.24 138.90 169.95 138.16 C 169.66 137.43 168.83 137.07 168.10 137.35 L 167.78 137.48 C 167.05 137.77 166.68 138.59 166.97 139.33 C 167.26 140.06 168.09 140.43 168.82 140.14 Z"
      fill="black"
      fill-rule="nonzero" /><path d="M 165.43 119.88 L 164.61 120.29 C 163.85 120.67 163.54 121.59 163.92 122.35 C 164.29 123.10 165.21 123.41 165.97 123.04 L 166.80 122.63 C 167.55 122.25 167.86 121.33 167.49 120.57 C 167.11 119.82 166.19 119.51 165.43 119.88 Z M 164.07 120.68 L 163.42 121.47 C 162.88 122.15 162.98 123.14 163.66 123.69 C 164.33 124.23 165.32 124.13 165.87 123.45 L 166.51 122.65 C 167.06 121.98 166.96 120.99 166.28 120.44 C 165.60 119.89 164.61 120.00 164.07 120.68 Z M 163.15 121.91 L 162.81 122.82 C 162.51 123.64 162.93 124.56 163.76 124.87 C 164.58 125.17 165.50 124.75 165.81 123.92 L 166.14 123.01 C 166.45 122.19 166.03 121.27 165.20 120.96 C 164.37 120.66 163.45 121.08 163.15 121.91 Z M 162.76 122.98 L 162.50 124.01 C 162.29 124.87 162.81 125.74 163.67 125.95 C 164.53 126.16 165.40 125.64 165.61 124.78 L 165.87 123.75 C 166.08 122.89 165.56 122.03 164.70 121.81 C 163.84 121.60 162.97 122.12 162.76 122.98 Z M 162.48 124.07 L 162.27 125.12 C 162.09 125.99 162.65 126.83 163.52 127.01 C 164.39 127.19 165.24 126.63 165.42 125.76 L 165.63 124.72 C 165.81 123.85 165.25 123.00 164.38 122.82 C 163.51 122.64 162.66 123.20 162.48 124.07 Z M 162.27 125.13 L 162.07 126.10 C 161.90 126.98 162.47 127.82 163.34 127.99 C 164.22 128.16 165.06 127.59 165.23 126.72 L 165.42 125.75 C 165.59 124.87 165.03 124.03 164.15 123.86 C 163.28 123.69 162.44 124.25 162.27 125.13 Z M 162.08 126.09 L 161.89 127.00 C 161.71 127.87 162.27 128.72 163.14 128.90 C 164.01 129.07 164.86 128.51 165.04 127.64 L 165.23 126.74 C 165.41 125.87 164.85 125.02 163.98 124.84 C 163.11 124.66 162.26 125.22 162.08 126.09 Z M 161.90 126.97 L 161.69 127.90 C 161.49 128.77 162.04 129.63 162.91 129.83 C 163.77 130.02 164.63 129.47 164.83 128.61 L 165.04 127.67 C 165.23 126.80 164.69 125.94 163.82 125.75 C 162.95 125.56 162.09 126.10 161.90 126.97 Z M 161.69 127.89 L 161.45 128.91 C 161.25 129.77 161.78 130.64 162.65 130.84 C 163.51 131.05 164.38 130.51 164.58 129.64 L 164.82 128.62 C 165.03 127.76 164.49 126.89 163.63 126.69 C 162.76 126.49 161.89 127.02 161.69 127.89 Z M 161.45 128.90 L 161.23 129.83 C 161.03 130.70 161.56 131.57 162.42 131.77 C 163.29 131.98 164.15 131.44 164.36 130.58 L 164.58 129.65 C 164.79 128.79 164.25 127.92 163.39 127.71 C 162.53 127.51 161.66 128.04 161.45 128.90 Z M 161.23 129.83 L 161.00 130.80 C 160.79 131.66 161.32 132.53 162.18 132.74 C 163.04 132.95 163.91 132.42 164.12 131.56 L 164.36 130.59 C 164.57 129.72 164.04 128.86 163.17 128.65 C 162.31 128.44 161.44 128.97 161.23 129.83 Z M 161.00 130.79 L 160.75 131.81 C 160.53 132.67 161.05 133.54 161.91 133.75 C 162.77 133.97 163.65 133.45 163.86 132.59 L 164.12 131.57 C 164.33 130.71 163.81 129.84 162.95 129.62 C 162.09 129.41 161.22 129.93 161.00 130.79 Z M 160.75 131.79 L 160.51 132.70 C 160.29 133.56 160.81 134.44 161.66 134.66 C 162.52 134.88 163.40 134.37 163.62 133.51 L 163.86 132.60 C 164.08 131.74 163.57 130.87 162.71 130.64 C 161.85 130.42 160.97 130.94 160.75 131.79 Z M 160.52 132.69 L 160.26 133.65 C 160.03 134.51 160.54 135.38 161.40 135.61 C 162.25 135.84 163.13 135.33 163.36 134.48 L 163.62 133.52 C 163.85 132.67 163.34 131.79 162.48 131.56 C 161.63 131.33 160.75 131.84 160.52 132.69 Z M 160.27 133.64 L 159.99 134.65 C 159.75 135.50 160.26 136.39 161.11 136.62 C 161.96 136.86 162.85 136.35 163.08 135.50 L 163.36 134.49 C 163.59 133.64 163.09 132.75 162.24 132.52 C 161.38 132.28 160.50 132.79 160.27 133.64 Z M 159.99 134.64 L 159.72 135.60 C 159.48 136.45 159.98 137.34 160.83 137.58 C 161.69 137.82 162.57 137.32 162.81 136.47 L 163.08 135.51 C 163.32 134.66 162.82 133.77 161.97 133.53 C 161.11 133.29 160.23 133.79 159.99 134.64 Z M 159.72 135.60 L 159.45 136.55 C 159.21 137.40 159.70 138.29 160.56 138.53 C 161.41 138.77 162.29 138.28 162.54 137.43 L 162.81 136.47 C 163.05 135.62 162.56 134.73 161.70 134.49 C 160.85 134.25 159.97 134.74 159.72 135.60 Z M 159.45 136.55 L 159.17 137.52 C 158.93 138.37 159.42 139.26 160.27 139.51 C 161.13 139.75 162.01 139.26 162.26 138.41 L 162.54 137.43 C 162.78 136.58 162.29 135.69 161.44 135.45 C 160.58 135.20 159.70 135.70 159.45 136.55 Z M 159.17 137.52 L 158.89 138.50 C 158.65 139.35 159.14 140.24 159.99 140.49 C 160.84 140.73 161.73 140.24 161.98 139.39 L 162.26 138.41 C 162.50 137.55 162.01 136.67 161.16 136.42 C 160.31 136.18 159.42 136.67 159.17 137.52 Z M 158.89 138.50 L 158.61 139.48 C 158.37 140.33 158.86 141.22 159.71 141.46 C 160.57 141.71 161.45 141.21 161.70 140.36 L 161.98 139.39 C 162.22 138.53 161.73 137.65 160.88 137.40 C 160.02 137.16 159.14 137.65 158.89 138.50 Z M 158.61 139.47 L 158.34 140.44 C 158.09 141.29 158.58 142.18 159.43 142.42 C 160.29 142.67 161.18 142.18 161.42 141.33 L 161.70 140.36 C 161.94 139.51 161.45 138.62 160.60 138.38 C 159.75 138.13 158.86 138.62 158.61 139.47 Z M 158.34 140.43 L 158.06 141.39 C 157.81 142.24 158.30 143.13 159.15 143.38 C 160.00 143.63 160.89 143.14 161.14 142.29 L 161.42 141.33 C 161.67 140.48 161.18 139.59 160.33 139.34 C 159.48 139.09 158.59 139.58 158.34 140.43 Z M 158.06 141.38 L 157.78 142.33 C 157.52 143.18 158.01 144.07 158.86 144.33 C 159.71 144.58 160.60 144.10 160.85 143.25 L 161.14 142.30 C 161.39 141.45 160.91 140.55 160.06 140.30 C 159.21 140.04 158.31 140.53 158.06 141.38 Z M 157.78 142.32 L 157.48 143.28 C 157.22 144.13 157.70 145.03 158.55 145.29 C 159.39 145.55 160.29 145.08 160.55 144.23 L 160.85 143.26 C 161.11 142.41 160.64 141.51 159.79 141.25 C 158.94 140.99 158.04 141.47 157.78 142.32 Z M 157.49 143.27 L 157.18 144.23 C 156.91 145.08 157.38 145.98 158.23 146.25 C 159.08 146.52 159.98 146.05 160.25 145.20 L 160.55 144.24 C 160.82 143.39 160.35 142.49 159.50 142.22 C 158.66 141.96 157.75 142.43 157.49 143.27 Z M 157.18 144.22 L 156.88 145.17 C 156.61 146.02 157.07 146.92 157.92 147.20 C 158.76 147.47 159.67 147.00 159.94 146.16 L 160.24 145.21 C 160.52 144.37 160.05 143.46 159.21 143.19 C 158.36 142.92 157.46 143.38 157.18 144.22 Z M 156.88 145.17 L 156.57 146.11 C 156.30 146.95 156.76 147.86 157.60 148.13 C 158.45 148.41 159.35 147.95 159.63 147.11 L 159.94 146.17 C 160.21 145.32 159.75 144.41 158.91 144.14 C 158.06 143.86 157.16 144.32 156.88 145.17 Z M 156.58 146.10 L 156.25 147.08 C 155.97 147.92 156.43 148.83 157.27 149.11 C 158.11 149.39 159.02 148.93 159.30 148.09 L 159.63 147.11 C 159.91 146.27 159.45 145.36 158.61 145.08 C 157.76 144.80 156.85 145.26 156.58 146.10 Z M 156.25 147.07 L 155.94 148.02 C 155.65 148.86 156.11 149.78 156.95 150.06 C 157.79 150.34 158.70 149.89 158.98 149.05 L 159.30 148.09 C 159.58 147.25 159.13 146.34 158.29 146.06 C 157.45 145.78 156.54 146.23 156.25 147.07 Z M 155.94 148.02 L 155.62 148.94 C 155.34 149.78 155.79 150.69 156.63 150.98 C 157.47 151.26 158.38 150.81 158.66 149.97 L 158.98 149.05 C 159.26 148.21 158.81 147.30 157.97 147.01 C 157.14 146.73 156.22 147.18 155.94 148.02 Z M 155.63 148.94 L 155.30 149.89 C 155.01 150.73 155.46 151.64 156.29 151.93 C 157.13 152.22 158.04 151.77 158.33 150.94 L 158.66 149.98 C 158.95 149.14 158.50 148.23 157.67 147.94 C 156.83 147.65 155.92 148.10 155.63 148.94 Z M 155.31 149.89 L 154.97 150.85 C 154.68 151.68 155.12 152.59 155.95 152.88 C 156.79 153.17 157.70 152.73 157.99 151.90 L 158.32 150.94 C 158.62 150.11 158.18 149.20 157.34 148.90 C 156.51 148.61 155.60 149.05 155.31 149.89 Z M 154.98 150.84 L 154.65 151.77 C 154.36 152.60 154.79 153.51 155.62 153.80 C 156.45 154.09 157.36 153.66 157.65 152.83 L 157.98 151.91 C 158.28 151.08 157.84 150.17 157.01 149.87 C 156.18 149.58 155.27 150.01 154.98 150.84 Z M 154.66 151.76 L 154.32 152.69 C 154.03 153.52 154.45 154.42 155.28 154.72 C 156.10 155.02 157.01 154.59 157.31 153.77 L 157.64 152.84 C 157.94 152.01 157.52 151.11 156.69 150.81 C 155.87 150.51 154.96 150.94 154.66 151.76 Z M 154.33 152.68 L 153.98 153.63 C 153.68 154.45 154.10 155.36 154.92 155.66 C 155.74 155.96 156.65 155.54 156.95 154.72 L 157.30 153.78 C 157.60 152.96 157.18 152.05 156.36 151.75 C 155.54 151.45 154.63 151.87 154.33 152.68 Z M 153.99 153.63 L 153.65 154.55 C 153.35 155.37 153.76 156.27 154.57 156.58 C 155.39 156.88 156.30 156.46 156.60 155.65 L 156.94 154.73 C 157.24 153.91 156.83 153.01 156.02 152.70 C 155.20 152.40 154.30 152.81 153.99 153.63 Z M 153.66 154.55 L 153.29 155.52 C 152.99 156.33 153.40 157.23 154.21 157.54 C 155.02 157.84 155.93 157.43 156.23 156.62 L 156.59 155.65 C 156.89 154.84 156.48 153.94 155.67 153.63 C 154.86 153.33 153.96 153.74 153.66 154.55 Z M 153.30 155.52 L 152.94 156.49 C 152.63 157.30 153.04 158.20 153.85 158.50 C 154.66 158.80 155.56 158.40 155.86 157.59 L 156.22 156.62 C 156.53 155.81 156.12 154.91 155.31 154.61 C 154.50 154.30 153.60 154.71 153.30 155.52 Z M 152.94 156.49 L 152.61 157.36 C 152.31 158.16 152.71 159.06 153.51 159.36 C 154.32 159.67 155.21 159.26 155.52 158.46 L 155.85 157.59 C 156.15 156.79 155.75 155.89 154.95 155.59 C 154.15 155.28 153.25 155.69 152.94 156.49 Z M 152.63 157.35 L 152.25 158.31 C 151.94 159.11 152.33 160.00 153.12 160.32 C 153.92 160.63 154.82 160.24 155.13 159.44 L 155.51 158.47 C 155.82 157.68 155.43 156.78 154.63 156.47 C 153.84 156.16 152.94 156.55 152.63 157.35 Z M 152.26 158.31 L 151.91 159.19 C 151.60 159.98 151.98 160.88 152.78 161.19 C 153.57 161.50 154.46 161.11 154.77 160.32 L 155.12 159.44 C 155.43 158.65 155.05 157.76 154.25 157.44 C 153.46 157.13 152.57 157.52 152.26 158.31 Z M 151.91 159.21 L 151.56 160.12 C 151.26 160.91 151.65 161.80 152.44 162.10 C 153.23 162.40 154.12 162.01 154.42 161.22 L 154.77 160.30 C 155.08 159.51 154.68 158.63 153.89 158.32 C 153.10 158.02 152.21 158.42 151.91 159.21 Z M 151.56 160.13 L 151.24 160.99 C 150.94 161.78 151.34 162.66 152.13 162.96 C 152.92 163.26 153.80 162.86 154.10 162.07 L 154.42 161.21 C 154.72 160.42 154.32 159.54 153.53 159.24 C 152.74 158.94 151.86 159.34 151.56 160.13 Z"
      fill="black"
      fill-rule="nonzero" /><path d="M 163.22 146.50 L 164.05 146.90 C 164.79 147.26 165.69 146.95 166.06 146.21 C 166.42 145.47 166.11 144.57 165.36 144.21 L 164.53 143.80 C 163.79 143.44 162.89 143.75 162.53 144.49 C 162.17 145.24 162.47 146.13 163.22 146.50 Z M 164.27 147.02 L 165.29 147.32 C 166.09 147.56 166.94 147.10 167.19 146.30 C 167.43 145.49 166.97 144.64 166.16 144.40 L 165.15 144.09 C 164.34 143.85 163.49 144.31 163.25 145.12 C 163.00 145.92 163.46 146.77 164.27 147.02 Z M 165.55 147.38 L 166.53 147.50 C 167.37 147.59 168.13 146.99 168.23 146.15 C 168.33 145.31 167.73 144.55 166.89 144.45 L 165.90 144.34 C 165.06 144.24 164.30 144.84 164.20 145.68 C 164.10 146.52 164.71 147.28 165.55 147.38 Z M 166.65 147.49 L 167.69 147.53 C 168.53 147.56 169.23 146.90 169.26 146.06 C 169.29 145.22 168.64 144.52 167.80 144.49 L 166.76 144.45 C 165.92 144.43 165.22 145.08 165.19 145.92 C 165.16 146.76 165.82 147.46 166.65 147.49 Z M 167.74 147.51 L 168.77 147.51 C 169.60 147.52 170.27 146.85 170.28 146.02 C 170.28 145.19 169.61 144.51 168.78 144.51 L 167.75 144.51 C 166.92 144.51 166.25 145.18 166.24 146.00 C 166.24 146.83 166.91 147.51 167.74 147.51 Z M 168.77 147.49 L 169.81 147.49 C 170.62 147.49 171.28 146.83 171.28 146.01 C 171.28 145.20 170.62 144.54 169.81 144.54 L 168.77 144.54 C 167.96 144.54 167.30 145.20 167.30 146.01 C 167.30 146.83 167.96 147.49 168.77 147.49 Z M 169.81 147.46 L 170.46 147.46 C 171.26 147.46 171.90 146.81 171.90 146.01 C 171.90 145.21 171.26 144.57 170.46 144.57 L 169.81 144.57 C 169.01 144.57 168.36 145.21 168.36 146.01 C 168.36 146.81 169.01 147.46 169.81 147.46 Z"
      fill="black"
      fill-rule="nonzero" /><path d="M 159.42 153.98 L 160.16 153.45 C 160.85 152.96 161.01 152.01 160.52 151.33 C 160.03 150.65 159.08 150.49 158.40 150.98 L 157.65 151.51 C 156.97 152.00 156.81 152.95 157.30 153.63 C 157.79 154.31 158.73 154.47 159.42 153.98 Z M 159.96 153.59 L 160.90 153.12 C 161.66 152.75 161.97 151.82 161.60 151.06 C 161.22 150.30 160.30 149.99 159.54 150.37 L 158.60 150.84 C 157.84 151.21 157.53 152.13 157.91 152.89 C 158.28 153.65 159.20 153.96 159.96 153.59 Z M 160.72 153.20 L 161.66 152.87 C 162.46 152.60 162.88 151.72 162.61 150.92 C 162.33 150.12 161.46 149.70 160.66 149.97 L 159.72 150.30 C 158.92 150.57 158.49 151.45 158.77 152.25 C 159.05 153.05 159.92 153.47 160.72 153.20 Z M 161.56 152.88 L 162.56 152.61 C 163.37 152.39 163.84 151.55 163.62 150.75 C 163.40 149.94 162.56 149.47 161.76 149.69 L 160.76 149.96 C 159.95 150.18 159.48 151.02 159.70 151.82 C 159.92 152.63 160.75 153.11 161.56 152.88 Z M 162.48 152.61 L 163.52 152.38 C 164.33 152.21 164.84 151.41 164.66 150.60 C 164.49 149.79 163.69 149.28 162.88 149.46 L 161.84 149.69 C 161.03 149.86 160.52 150.66 160.70 151.47 C 160.87 152.28 161.67 152.79 162.48 152.61 Z M 163.43 152.38 L 164.38 152.23 C 165.19 152.10 165.74 151.35 165.61 150.54 C 165.48 149.74 164.73 149.19 163.92 149.31 L 162.97 149.46 C 162.17 149.59 161.62 150.34 161.74 151.15 C 161.87 151.95 162.62 152.51 163.43 152.38 Z M 164.28 152.22 L 165.27 152.13 C 166.07 152.06 166.66 151.35 166.59 150.55 C 166.52 149.75 165.81 149.16 165.01 149.23 L 164.02 149.32 C 163.22 149.39 162.63 150.10 162.70 150.90 C 162.77 151.70 163.48 152.29 164.28 152.22 Z M 165.20 152.12 L 166.18 152.08 C 166.97 152.05 167.59 151.38 167.56 150.58 C 167.52 149.79 166.85 149.17 166.06 149.20 L 165.08 149.24 C 164.29 149.28 163.67 149.95 163.70 150.74 C 163.73 151.54 164.41 152.15 165.20 152.12 Z M 166.16 152.07 L 166.22 152.07 C 167.01 152.04 167.63 151.38 167.61 150.59 C 167.58 149.81 166.92 149.19 166.13 149.21 L 166.07 149.21 C 165.28 149.24 164.66 149.90 164.69 150.69 C 164.71 151.48 165.37 152.10 166.16 152.07 Z"
      fill="black"
      fill-rule="nonzero" /><path d="M 159.95 153.54 L 159.95 154.54 C 159.95 155.40 160.64 156.10 161.50 156.10 C 162.36 156.10 163.05 155.40 163.05 154.54 L 163.05 153.54 C 163.05 152.68 162.36 151.99 161.50 151.99 C 160.64 151.99 159.95 152.68 159.95 153.54 Z M 159.94 154.54 L 159.94 155.54 C 159.94 156.40 160.64 157.10 161.50 157.10 C 162.36 157.10 163.06 156.40 163.06 155.54 L 163.06 154.54 C 163.06 153.68 162.36 152.98 161.50 152.98 C 160.64 152.98 159.94 153.68 159.94 154.54 Z M 159.93 155.54 L 159.93 156.53 C 159.93 157.40 160.63 158.10 161.50 158.10 C 162.36 158.10 163.06 157.40 163.06 156.53 L 163.06 155.54 C 163.06 154.67 162.36 153.97 161.50 153.97 C 160.63 153.97 159.93 154.67 159.93 155.54 Z M 159.94 156.53 L 159.94 157.51 C 159.94 158.37 160.64 159.07 161.50 159.07 C 162.36 159.07 163.05 158.37 163.05 157.51 L 163.05 156.53 C 163.05 155.67 162.36 154.98 161.50 154.98 C 160.64 154.98 159.94 155.67 159.94 156.53 Z M 159.96 157.51 L 159.96 158.53 C 159.96 159.39 160.65 160.08 161.50 160.08 C 162.35 160.08 163.04 159.39 163.04 158.53 L 163.04 157.51 C 163.04 156.66 162.35 155.97 161.50 155.97 C 160.65 155.97 159.96 156.66 159.96 157.51 Z M 159.97 158.53 L 159.97 159.53 C 159.97 160.37 160.66 161.05 161.50 161.05 C 162.34 161.05 163.03 160.37 163.03 159.53 L 163.03 158.53 C 163.03 157.69 162.34 157.01 161.50 157.01 C 160.66 157.01 159.97 157.69 159.97 158.53 Z M 159.99 159.53 L 159.99 160.54 C 159.99 161.37 160.66 162.05 161.50 162.05 C 162.33 162.05 163.01 161.37 163.01 160.54 L 163.01 159.53 C 163.01 158.69 162.33 158.02 161.50 158.02 C 160.66 158.02 159.99 158.69 159.99 159.53 Z M 160.01 160.54 L 160.01 161.54 C 160.01 162.36 160.67 163.03 161.50 163.03 C 162.32 163.03 162.99 162.36 162.99 161.54 L 162.99 160.54 C 162.99 159.71 162.32 159.05 161.50 159.05 C 160.67 159.05 160.01 159.71 160.01 160.54 Z M 160.03 161.54 L 160.03 162.54 C 160.03 163.35 160.69 164.01 161.50 164.01 C 162.31 164.01 162.97 163.35 162.97 162.54 L 162.97 161.54 C 162.97 160.72 162.31 160.07 161.50 160.07 C 160.69 160.07 160.03 160.72 160.03 161.54 Z M 160.04 162.54 L 160.04 163.53 C 160.04 164.34 160.69 164.99 161.50 164.99 C 162.30 164.99 162.95 164.34 162.95 163.53 L 162.95 162.54 C 162.95 161.73 162.30 161.08 161.50 161.08 C 160.69 161.08 160.04 161.73 160.04 162.54 Z M 160.06 163.53 L 160.06 164.54 C 160.06 165.33 160.70 165.98 161.50 165.98 C 162.29 165.98 162.94 165.33 162.94 164.54 L 162.94 163.53 C 162.94 162.74 162.29 162.09 161.50 162.09 C 160.70 162.09 160.06 162.74 160.06 163.53 Z M 160.07 164.54 L 160.07 164.63 C 160.07 165.42 160.71 166.06 161.50 166.06 C 162.29 166.06 162.93 165.42 162.93 164.63 L 162.93 164.54 C 162.93 163.75 162.29 163.10 161.50 163.10 C 160.71 163.10 160.07 163.75 160.07 164.54 Z"
      fill="black"
      fill-rule="nonzero" /><path d="M 163.38 156.02 L 164.38 156.13 C 165.20 156.21 165.94 155.61 166.03 154.79 C 166.11 153.96 165.51 153.22 164.69 153.14 L 163.69 153.03 C 162.87 152.95 162.13 153.55 162.04 154.37 C 161.96 155.20 162.56 155.94 163.38 156.02 Z M 164.37 156.14 L 165.37 156.25 C 166.20 156.34 166.95 155.73 167.04 154.89 C 167.13 154.06 166.52 153.31 165.69 153.23 L 164.69 153.12 C 163.86 153.03 163.11 153.64 163.02 154.47 C 162.93 155.31 163.54 156.06 164.37 156.14 Z M 165.37 156.26 L 166.36 156.37 C 167.21 156.46 167.96 155.84 168.05 155.00 C 168.14 154.16 167.53 153.40 166.68 153.31 L 165.69 153.21 C 164.84 153.12 164.09 153.73 164.00 154.58 C 163.91 155.42 164.52 156.18 165.37 156.26 Z M 166.36 156.38 L 166.48 156.39 C 167.33 156.48 168.09 155.86 168.18 155.01 C 168.27 154.16 167.65 153.40 166.80 153.32 L 166.68 153.30 C 165.83 153.21 165.07 153.83 164.98 154.68 C 164.90 155.53 165.51 156.29 166.36 156.38 Z"
      fill="black"
      fill-rule="nonzero" /><path d="M 164.08 161.59 L 165.07 161.32 C 165.87 161.09 166.33 160.26 166.11 159.46 C 165.88 158.66 165.05 158.20 164.25 158.42 L 163.27 158.70 C 162.47 158.93 162.00 159.76 162.23 160.56 C 162.46 161.35 163.29 161.82 164.08 161.59 Z M 165.13 161.25 L 166.06 160.93 C 166.82 160.67 167.23 159.84 166.97 159.08 C 166.71 158.31 165.87 157.91 165.11 158.17 L 164.19 158.49 C 163.42 158.75 163.01 159.58 163.28 160.34 C 163.54 161.11 164.37 161.51 165.13 161.25 Z M 166.20 160.86 L 167.13 160.42 C 167.85 160.08 168.16 159.22 167.82 158.50 C 167.48 157.78 166.62 157.47 165.90 157.81 L 164.97 158.25 C 164.25 158.58 163.94 159.44 164.28 160.16 C 164.62 160.89 165.48 161.20 166.20 160.86 Z M 167.23 160.37 L 168.06 159.91 C 168.75 159.51 169.00 158.63 168.60 157.93 C 168.21 157.24 167.32 156.99 166.63 157.39 L 165.80 157.86 C 165.11 158.25 164.86 159.13 165.26 159.83 C 165.65 160.52 166.53 160.77 167.23 160.37 Z M 168.14 159.87 L 168.95 159.35 C 169.62 158.90 169.81 158.00 169.37 157.32 C 168.93 156.64 168.02 156.45 167.35 156.90 L 166.54 157.42 C 165.87 157.86 165.68 158.77 166.12 159.45 C 166.56 160.12 167.47 160.31 168.14 159.87 Z M 169.10 159.27 L 169.99 158.54 C 170.62 158.01 170.71 157.07 170.18 156.43 C 169.65 155.80 168.71 155.71 168.08 156.24 L 167.19 156.97 C 166.56 157.50 166.47 158.44 167.00 159.07 C 167.52 159.71 168.47 159.80 169.10 159.27 Z M 169.93 158.62 L 170.75 158.03 C 171.44 157.53 171.59 156.57 171.09 155.89 C 170.59 155.20 169.64 155.05 168.95 155.55 L 168.13 156.15 C 167.45 156.65 167.30 157.60 167.79 158.29 C 168.29 158.97 169.25 159.12 169.93 158.62 Z M 168.97 158.07 L 169.40 158.37 C 170.11 158.85 171.08 158.67 171.57 157.96 C 172.05 157.25 171.87 156.28 171.16 155.80 L 170.73 155.50 C 170.02 155.02 169.06 155.20 168.57 155.91 C 168.08 156.62 168.26 157.59 168.97 158.07 Z M 168.72 157.11 L 168.74 158.25 C 168.75 159.11 169.46 159.80 170.33 159.78 C 171.19 159.77 171.88 159.06 171.86 158.20 L 171.85 157.06 C 171.83 156.19 171.12 155.51 170.26 155.52 C 169.40 155.53 168.71 156.25 168.72 157.11 Z M 168.75 158.07 L 168.65 159.05 C 168.57 159.91 169.20 160.68 170.05 160.76 C 170.91 160.84 171.68 160.21 171.76 159.36 L 171.86 158.37 C 171.94 157.51 171.31 156.75 170.45 156.67 C 169.60 156.58 168.83 157.21 168.75 158.07 Z M 168.66 159.00 L 168.53 159.98 C 168.41 160.83 169.01 161.62 169.87 161.73 C 170.72 161.85 171.51 161.25 171.62 160.39 L 171.75 159.41 C 171.87 158.56 171.27 157.77 170.41 157.66 C 169.56 157.54 168.77 158.14 168.66 159.00 Z M 168.53 159.95 L 168.37 161.00 C 168.24 161.86 168.82 162.65 169.68 162.78 C 170.53 162.91 171.33 162.33 171.46 161.48 L 171.62 160.42 C 171.75 159.57 171.16 158.77 170.31 158.64 C 169.46 158.51 168.66 159.10 168.53 159.95 Z M 168.37 160.99 L 168.21 162.00 C 168.07 162.85 168.65 163.66 169.50 163.79 C 170.36 163.93 171.16 163.35 171.29 162.50 L 171.46 161.49 C 171.59 160.64 171.01 159.83 170.16 159.70 C 169.31 159.56 168.51 160.14 168.37 160.99 Z M 168.21 161.99 L 168.04 163.01 C 167.90 163.86 168.47 164.66 169.32 164.80 C 170.17 164.95 170.98 164.37 171.12 163.52 L 171.29 162.51 C 171.43 161.66 170.86 160.85 170.01 160.71 C 169.16 160.57 168.35 161.14 168.21 161.99 Z M 168.04 162.99 L 167.87 163.96 C 167.72 164.81 168.29 165.62 169.13 165.77 C 169.98 165.93 170.79 165.36 170.94 164.51 L 171.12 163.54 C 171.27 162.69 170.70 161.88 169.85 161.73 C 169.01 161.58 168.20 162.14 168.04 162.99 Z M 167.88 163.94 L 167.67 165.01 C 167.50 165.85 168.05 166.67 168.90 166.84 C 169.74 167.00 170.56 166.46 170.72 165.61 L 170.94 164.54 C 171.10 163.70 170.55 162.88 169.71 162.71 C 168.87 162.54 168.05 163.09 167.88 163.94 Z M 167.68 164.97 L 167.49 165.82 C 167.30 166.66 167.83 167.49 168.66 167.68 C 169.50 167.86 170.33 167.34 170.52 166.50 L 170.71 165.65 C 170.90 164.81 170.37 163.98 169.54 163.80 C 168.70 163.61 167.87 164.13 167.68 164.97 Z M 167.50 165.78 L 167.25 166.77 C 167.05 167.60 167.55 168.44 168.38 168.65 C 169.21 168.86 170.06 168.35 170.26 167.52 L 170.51 166.54 C 170.72 165.71 170.21 164.86 169.38 164.66 C 168.55 164.45 167.71 164.95 167.50 165.78 Z M 167.26 166.76 L 166.98 167.86 C 166.77 168.69 167.27 169.53 168.10 169.74 C 168.93 169.95 169.77 169.45 169.98 168.62 L 170.26 167.52 C 170.47 166.69 169.97 165.85 169.14 165.64 C 168.31 165.43 167.47 165.93 167.26 166.76 Z M 166.97 168.56 L 167.06 169.00 C 167.24 169.84 168.06 170.37 168.89 170.20 C 169.73 170.02 170.27 169.20 170.09 168.37 L 170.00 167.92 C 169.82 167.09 169.00 166.55 168.16 166.73 C 167.33 166.90 166.79 167.72 166.97 168.56 Z M 169.74 169.70 L 170.45 168.89 C 171.01 168.25 170.94 167.27 170.30 166.71 C 169.66 166.15 168.68 166.22 168.12 166.86 L 167.41 167.67 C 166.85 168.31 166.92 169.28 167.56 169.85 C 168.20 170.41 169.18 170.34 169.74 169.70 Z M 170.44 168.89 L 171.12 168.12 C 171.68 167.49 171.63 166.52 170.99 165.95 C 170.35 165.39 169.38 165.45 168.82 166.08 L 168.13 166.85 C 167.57 167.49 167.63 168.46 168.26 169.02 C 168.90 169.59 169.87 169.53 170.44 168.89 Z M 171.06 168.18 L 171.77 167.45 C 172.36 166.85 172.36 165.88 171.75 165.29 C 171.15 164.69 170.18 164.70 169.58 165.31 L 168.87 166.03 C 168.28 166.63 168.29 167.60 168.89 168.20 C 169.50 168.79 170.47 168.78 171.06 168.18 Z M 171.72 167.50 L 172.48 166.79 C 173.10 166.22 173.13 165.25 172.56 164.63 C 171.98 164.01 171.02 163.98 170.40 164.55 L 169.64 165.26 C 169.02 165.84 168.98 166.80 169.56 167.42 C 170.13 168.04 171.10 168.07 171.72 167.50 Z M 172.43 166.83 L 173.20 166.17 C 173.84 165.63 173.92 164.66 173.37 164.02 C 172.82 163.38 171.86 163.31 171.22 163.85 L 170.45 164.51 C 169.81 165.06 169.73 166.02 170.28 166.66 C 170.83 167.30 171.79 167.38 172.43 166.83 Z M 173.16 166.21 L 173.94 165.59 C 174.60 165.06 174.71 164.10 174.18 163.44 C 173.66 162.78 172.70 162.67 172.04 163.20 L 171.26 163.82 C 170.60 164.35 170.49 165.31 171.01 165.96 C 171.54 166.62 172.50 166.73 173.16 166.21 Z M 173.90 165.62 L 174.73 165.00 C 175.41 164.50 175.55 163.55 175.05 162.87 C 174.55 162.19 173.60 162.05 172.92 162.55 L 172.08 163.16 C 171.40 163.66 171.26 164.62 171.76 165.30 C 172.26 165.98 173.22 166.12 173.90 165.62 Z M 174.67 165.05 L 175.51 164.49 C 176.21 164.02 176.40 163.08 175.93 162.37 C 175.47 161.67 174.52 161.48 173.82 161.95 L 172.98 162.50 C 172.28 162.97 172.09 163.92 172.55 164.62 C 173.02 165.32 173.97 165.51 174.67 165.05 Z M 175.41 164.55 L 176.25 164.08 C 176.99 163.67 177.25 162.74 176.84 162.00 C 176.43 161.27 175.50 161.00 174.76 161.41 L 173.92 161.88 C 173.18 162.29 172.92 163.22 173.33 163.96 C 173.74 164.70 174.67 164.96 175.41 164.55 Z M 176.08 164.17 L 177.01 163.79 C 177.80 163.47 178.18 162.58 177.86 161.80 C 177.54 161.01 176.65 160.63 175.86 160.95 L 174.93 161.33 C 174.15 161.64 173.77 162.54 174.09 163.32 C 174.41 164.11 175.30 164.48 176.08 164.17 Z M 176.76 163.87 L 177.74 163.66 C 178.57 163.48 179.10 162.66 178.92 161.84 C 178.74 161.01 177.92 160.48 177.09 160.66 L 176.11 160.87 C 175.29 161.05 174.76 161.87 174.94 162.69 C 175.12 163.52 175.93 164.05 176.76 163.87 Z M 177.20 163.69 L 178.15 163.83 C 179.00 163.95 179.78 163.36 179.90 162.52 C 180.02 161.67 179.44 160.89 178.59 160.77 L 177.64 160.63 C 176.79 160.51 176.01 161.10 175.89 161.94 C 175.77 162.78 176.35 163.57 177.20 163.69 Z M 177.14 163.24 L 177.66 163.92 C 178.18 164.59 179.15 164.72 179.83 164.20 C 180.51 163.68 180.64 162.71 180.12 162.03 L 179.60 161.35 C 179.08 160.67 178.11 160.55 177.43 161.07 C 176.75 161.59 176.62 162.56 177.14 163.24 Z M 177.37 163.31 L 177.60 164.33 C 177.78 165.17 178.61 165.70 179.45 165.51 C 180.29 165.32 180.82 164.49 180.63 163.65 L 180.41 162.64 C 180.22 161.80 179.39 161.27 178.55 161.45 C 177.71 161.64 177.18 162.47 177.37 163.31 Z M 177.56 164.11 L 177.64 165.15 C 177.71 166.01 178.46 166.65 179.32 166.59 C 180.18 166.52 180.82 165.77 180.75 164.91 L 180.67 163.87 C 180.60 163.01 179.85 162.37 178.99 162.43 C 178.13 162.50 177.49 163.25 177.56 164.11 Z M 177.63 165.01 L 177.62 166.01 C 177.61 166.87 178.31 167.58 179.17 167.58 C 180.03 167.59 180.74 166.90 180.75 166.04 L 180.76 165.05 C 180.77 164.18 180.08 163.48 179.21 163.47 C 178.35 163.46 177.64 164.15 177.63 165.01 Z M 177.63 165.83 L 177.51 166.85 C 177.40 167.71 178.01 168.49 178.87 168.59 C 179.73 168.70 180.51 168.09 180.61 167.23 L 180.74 166.21 C 180.84 165.35 180.23 164.57 179.38 164.47 C 178.52 164.36 177.74 164.97 177.63 165.83 Z M 177.54 166.67 L 177.30 167.69 C 177.09 168.53 177.61 169.38 178.45 169.58 C 179.29 169.78 180.14 169.26 180.34 168.42 L 180.58 167.41 C 180.79 166.57 180.27 165.72 179.43 165.52 C 178.59 165.32 177.74 165.83 177.54 166.67 Z M 177.33 167.58 L 177.02 168.53 C 176.76 169.35 177.21 170.24 178.03 170.50 C 178.86 170.76 179.74 170.31 180.00 169.49 L 180.31 168.54 C 180.57 167.71 180.12 166.83 179.29 166.57 C 178.47 166.30 177.59 166.76 177.33 167.58 Z M 177.04 168.46 L 176.69 169.43 C 176.39 170.24 176.80 171.14 177.61 171.44 C 178.42 171.74 179.32 171.33 179.62 170.52 L 179.98 169.55 C 180.28 168.74 179.87 167.84 179.06 167.54 C 178.25 167.24 177.34 167.65 177.04 168.46 Z M 176.71 169.36 L 176.34 170.24 C 176.00 171.03 176.38 171.95 177.17 172.29 C 177.96 172.62 178.88 172.25 179.22 171.46 L 179.59 170.58 C 179.93 169.79 179.56 168.87 178.76 168.53 C 177.97 168.20 177.05 168.57 176.71 169.36 Z M 176.38 170.16 L 175.95 171.03 C 175.58 171.81 175.90 172.74 176.67 173.12 C 177.45 173.50 178.38 173.18 178.76 172.40 L 179.18 171.53 C 179.56 170.76 179.24 169.82 178.47 169.44 C 177.69 169.07 176.76 169.39 176.38 170.16 Z M 175.97 171.00 L 175.51 171.89 C 175.11 172.65 175.41 173.59 176.18 173.99 C 176.94 174.39 177.88 174.09 178.28 173.32 L 178.74 172.44 C 179.14 171.67 178.84 170.73 178.08 170.33 C 177.31 169.94 176.37 170.23 175.97 171.00 Z M 175.52 171.88 L 175.05 172.77 C 174.66 173.53 174.95 174.47 175.71 174.87 C 176.47 175.27 177.41 174.97 177.81 174.21 L 178.27 173.33 C 178.67 172.57 178.38 171.62 177.62 171.23 C 176.85 170.83 175.91 171.12 175.52 171.88 Z M 175.06 172.77 L 174.62 173.61 C 174.22 174.37 174.51 175.31 175.27 175.71 C 176.03 176.10 176.97 175.81 177.37 175.05 L 177.81 174.21 C 178.21 173.45 177.92 172.51 177.16 172.11 C 176.40 171.71 175.46 172.01 175.06 172.77 Z M 174.64 173.58 L 174.14 174.47 C 173.72 175.22 174.00 176.16 174.74 176.58 C 175.49 176.99 176.44 176.72 176.85 175.97 L 177.35 175.08 C 177.76 174.33 177.49 173.39 176.74 172.97 C 176.00 172.56 175.05 172.83 174.64 173.58 Z M 174.17 174.42 L 173.65 175.28 C 173.21 176.01 173.44 176.96 174.17 177.40 C 174.90 177.85 175.86 177.61 176.30 176.88 L 176.82 176.03 C 177.26 175.30 177.03 174.34 176.30 173.90 C 175.57 173.46 174.62 173.69 174.17 174.42 Z M 173.69 175.23 L 173.12 176.09 C 172.65 176.80 172.85 177.76 173.57 178.23 C 174.28 178.69 175.24 178.50 175.71 177.78 L 176.27 176.93 C 176.74 176.21 176.54 175.26 175.83 174.79 C 175.11 174.32 174.15 174.52 173.69 175.23 Z M 173.16 176.03 L 172.56 176.87 C 172.06 177.56 172.22 178.53 172.91 179.02 C 173.60 179.52 174.56 179.37 175.06 178.68 L 175.67 177.84 C 176.16 177.14 176.01 176.18 175.32 175.68 C 174.63 175.19 173.66 175.34 173.16 176.03 Z M 172.62 176.80 L 171.98 177.58 C 171.44 178.24 171.54 179.21 172.20 179.74 C 172.85 180.28 173.82 180.18 174.35 179.53 L 175.00 178.75 C 175.53 178.09 175.44 177.12 174.78 176.59 C 174.13 176.05 173.16 176.15 172.62 176.80 Z M 172.07 177.50 L 171.40 178.20 C 170.81 178.80 170.83 179.77 171.44 180.35 C 172.04 180.94 173.01 180.92 173.59 180.31 L 174.26 179.61 C 174.85 179.01 174.83 178.04 174.22 177.46 C 173.62 176.88 172.65 176.89 172.07 177.50 Z M 171.51 178.11 L 170.74 178.78 C 170.10 179.32 170.03 180.27 170.57 180.90 C 171.11 181.54 172.06 181.61 172.70 181.07 L 173.48 180.40 C 174.11 179.86 174.18 178.91 173.64 178.27 C 173.10 177.64 172.15 177.57 171.51 178.11 Z M 170.89 178.68 L 170.08 179.22 C 169.39 179.67 169.20 180.60 169.66 181.28 C 170.11 181.97 171.04 182.16 171.72 181.70 L 172.54 181.17 C 173.22 180.71 173.41 179.79 172.96 179.10 C 172.51 178.41 171.58 178.22 170.89 178.68 Z M 170.30 179.12 L 169.39 179.52 C 168.64 179.85 168.31 180.72 168.64 181.47 C 168.97 182.21 169.84 182.54 170.58 182.21 L 171.50 181.80 C 172.24 181.47 172.57 180.61 172.24 179.86 C 171.91 179.12 171.05 178.79 170.30 179.12 Z M 169.62 179.46 L 168.68 179.70 C 167.91 179.90 167.44 180.69 167.64 181.47 C 167.83 182.24 168.62 182.71 169.40 182.51 L 170.34 182.28 C 171.12 182.08 171.59 181.29 171.39 180.51 C 171.19 179.73 170.40 179.26 169.62 179.46 Z M 168.87 179.68 L 167.88 179.80 C 167.09 179.89 166.52 180.60 166.62 181.39 C 166.71 182.18 167.42 182.75 168.21 182.65 L 169.21 182.54 C 170.00 182.44 170.56 181.73 170.47 180.94 C 170.38 180.15 169.66 179.59 168.87 179.68 Z M 167.99 179.80 L 167.00 179.83 C 166.21 179.86 165.60 180.53 165.63 181.32 C 165.65 182.11 166.32 182.72 167.11 182.69 L 168.10 182.66 C 168.89 182.63 169.50 181.96 169.47 181.17 C 169.44 180.38 168.78 179.77 167.99 179.80 Z M 167.05 179.84 L 166.11 179.84 C 165.32 179.84 164.69 180.49 164.69 181.27 C 164.69 182.06 165.33 182.70 166.12 182.69 L 167.06 182.69 C 167.85 182.69 168.49 182.04 168.48 181.26 C 168.48 180.47 167.84 179.83 167.05 179.84 Z"
      fill="black"
      fill-rule="nonzero" /><path d="M 149.28 167.80 L 150.00 168.53 C 150.58 169.13 151.55 169.14 152.15 168.55 C 152.75 167.96 152.75 167.00 152.17 166.40 L 151.45 165.67 C 150.86 165.07 149.90 165.06 149.30 165.65 C 148.70 166.24 148.69 167.20 149.28 167.80 Z M 149.95 168.50 L 150.60 169.22 C 151.18 169.85 152.15 169.89 152.77 169.32 C 153.40 168.75 153.45 167.78 152.87 167.15 L 152.22 166.43 C 151.64 165.81 150.67 165.76 150.05 166.33 C 149.42 166.91 149.38 167.88 149.95 168.50 Z M 150.55 169.14 L 151.16 169.90 C 151.68 170.56 152.64 170.67 153.30 170.15 C 153.95 169.63 154.06 168.67 153.54 168.01 L 152.93 167.24 C 152.41 166.58 151.45 166.47 150.79 167.00 C 150.13 167.52 150.02 168.48 150.55 169.14 Z M 151.15 169.84 L 151.72 170.61 C 152.20 171.27 153.13 171.41 153.80 170.92 C 154.46 170.44 154.60 169.51 154.11 168.84 L 153.55 168.08 C 153.06 167.42 152.13 167.27 151.47 167.76 C 150.81 168.25 150.67 169.18 151.15 169.84 Z M 151.72 170.57 L 152.26 171.34 C 152.73 172.01 153.65 172.16 154.31 171.70 C 154.97 171.23 155.13 170.31 154.66 169.65 L 154.11 168.88 C 153.65 168.22 152.73 168.06 152.07 168.53 C 151.41 169.00 151.25 169.91 151.72 170.57 Z M 152.24 171.29 L 152.84 172.21 C 153.27 172.89 154.18 173.08 154.85 172.64 C 155.52 172.20 155.72 171.30 155.28 170.63 L 154.68 169.71 C 154.24 169.03 153.34 168.84 152.67 169.28 C 152.00 169.72 151.80 170.62 152.24 171.29 Z M 152.82 172.16 L 153.30 172.96 C 153.71 173.65 154.60 173.87 155.28 173.46 C 155.96 173.05 156.19 172.16 155.78 171.48 L 155.30 170.68 C 154.89 169.99 154.00 169.77 153.31 170.18 C 152.63 170.59 152.41 171.48 152.82 172.16 Z M 153.29 172.94 L 153.80 173.82 C 154.19 174.51 155.07 174.74 155.76 174.35 C 156.45 173.95 156.69 173.07 156.29 172.38 L 155.78 171.50 C 155.39 170.81 154.51 170.58 153.82 170.97 C 153.13 171.37 152.89 172.25 153.29 172.94 Z M 153.80 173.80 L 154.32 174.73 C 154.71 175.42 155.58 175.66 156.27 175.27 C 156.96 174.88 157.20 174.01 156.81 173.32 L 156.29 172.40 C 155.90 171.71 155.03 171.46 154.34 171.85 C 153.65 172.24 153.41 173.12 153.80 173.80 Z M 154.32 174.72 L 154.39 174.84 C 154.77 175.52 155.64 175.77 156.33 175.38 C 157.02 174.99 157.26 174.12 156.87 173.44 L 156.81 173.32 C 156.42 172.64 155.55 172.39 154.87 172.78 C 154.18 173.17 153.94 174.04 154.32 174.72 Z"
      fill="black"
      fill-rule="nonzero" /><path d="M 156.64 167.77 L 157.07 168.63 C 157.45 169.38 158.38 169.69 159.14 169.30 C 159.89 168.92 160.20 167.99 159.81 167.23 L 159.38 166.38 C 159.00 165.62 158.07 165.32 157.31 165.71 C 156.55 166.09 156.25 167.02 156.64 167.77 Z M 157.09 168.69 L 157.60 169.60 C 158.02 170.35 158.97 170.61 159.71 170.19 C 160.46 169.77 160.73 168.82 160.30 168.07 L 159.79 167.17 C 159.37 166.42 158.42 166.16 157.68 166.58 C 156.93 167.00 156.67 167.95 157.09 168.69 Z M 157.64 169.67 L 158.18 170.52 C 158.64 171.25 159.60 171.46 160.33 171.00 C 161.05 170.54 161.27 169.58 160.80 168.85 L 160.26 168.00 C 159.80 167.28 158.84 167.06 158.12 167.53 C 157.39 167.99 157.18 168.95 157.64 169.67 Z M 158.20 170.54 L 158.76 171.38 C 159.23 172.09 160.18 172.29 160.90 171.83 C 161.61 171.36 161.81 170.40 161.34 169.69 L 160.78 168.84 C 160.31 168.13 159.36 167.93 158.65 168.40 C 157.93 168.87 157.74 169.82 158.20 170.54 Z M 158.75 171.34 L 159.29 172.21 C 159.73 172.93 160.67 173.15 161.39 172.71 C 162.10 172.27 162.33 171.33 161.89 170.61 L 161.35 169.74 C 160.91 169.02 159.97 168.80 159.25 169.24 C 158.53 169.68 158.31 170.62 158.75 171.34 Z M 159.27 172.13 L 159.74 172.98 C 160.13 173.70 161.04 173.97 161.77 173.58 C 162.49 173.18 162.76 172.27 162.37 171.54 L 161.90 170.69 C 161.51 169.97 160.60 169.70 159.87 170.10 C 159.14 170.49 158.88 171.40 159.27 172.13 Z M 159.74 172.92 L 160.15 173.74 C 160.52 174.47 161.40 174.76 162.13 174.39 C 162.85 174.03 163.14 173.14 162.78 172.42 L 162.37 171.60 C 162.00 170.87 161.11 170.58 160.39 170.95 C 159.66 171.31 159.37 172.20 159.74 172.92 Z M 160.15 173.70 L 160.58 174.61 C 160.92 175.34 161.79 175.65 162.51 175.31 C 163.24 174.97 163.55 174.10 163.21 173.38 L 162.78 172.46 C 162.44 171.73 161.57 171.42 160.84 171.76 C 160.12 172.10 159.81 172.97 160.15 173.70 Z M 160.57 174.57 L 160.97 175.48 C 161.28 176.22 162.13 176.55 162.86 176.24 C 163.59 175.92 163.93 175.07 163.61 174.34 L 163.22 173.42 C 162.90 172.69 162.05 172.35 161.32 172.67 C 160.59 172.99 160.25 173.84 160.57 174.57 Z M 160.96 175.46 L 161.34 176.37 C 161.64 177.11 162.48 177.46 163.21 177.16 C 163.95 176.86 164.30 176.02 164.00 175.28 L 163.62 174.37 C 163.32 173.63 162.48 173.28 161.75 173.58 C 161.01 173.89 160.66 174.72 160.96 175.46 Z M 161.34 176.36 L 161.73 177.34 C 162.02 178.07 162.86 178.43 163.59 178.13 C 164.32 177.84 164.68 177.01 164.39 176.27 L 164.00 175.30 C 163.70 174.56 162.87 174.21 162.14 174.50 C 161.40 174.80 161.05 175.63 161.34 176.36 Z M 161.73 177.33 L 161.82 177.56 C 162.12 178.30 162.95 178.65 163.68 178.36 C 164.41 178.07 164.77 177.24 164.48 176.51 L 164.38 176.28 C 164.09 175.54 163.26 175.19 162.53 175.48 C 161.80 175.77 161.44 176.60 161.73 177.33 Z"
      fill="black"
      fill-rule="nonzero" /><path d="M 164.18 170.25 L 164.67 171.13 C 165.08 171.87 166.01 172.13 166.75 171.72 C 167.48 171.31 167.75 170.38 167.34 169.65 L 166.85 168.77 C 166.44 168.03 165.51 167.76 164.77 168.18 C 164.04 168.59 163.77 169.52 164.18 170.25 Z M 164.65 171.12 L 165.12 172.00 C 165.53 172.75 166.47 173.03 167.22 172.63 C 167.97 172.22 168.25 171.28 167.84 170.53 L 167.36 169.65 C 166.96 168.90 166.02 168.62 165.27 169.03 C 164.52 169.44 164.24 170.37 164.65 171.12 Z M 165.10 171.97 L 165.57 172.89 C 165.96 173.65 166.89 173.95 167.65 173.56 C 168.41 173.18 168.72 172.24 168.33 171.48 L 167.86 170.56 C 167.47 169.80 166.54 169.50 165.78 169.89 C 165.02 170.28 164.71 171.21 165.10 171.97 Z M 165.59 172.85 L 166.03 173.76 C 166.39 174.51 167.30 174.83 168.05 174.46 C 168.80 174.10 169.12 173.19 168.75 172.44 L 168.31 171.53 C 167.95 170.78 167.04 170.46 166.29 170.82 C 165.54 171.19 165.22 172.09 165.59 172.85 Z M 166.06 173.73 L 166.48 174.62 C 166.83 175.35 167.71 175.67 168.44 175.32 C 169.18 174.97 169.49 174.09 169.14 173.36 L 168.72 172.47 C 168.37 171.73 167.50 171.42 166.76 171.77 C 166.02 172.11 165.71 172.99 166.06 173.73 Z M 166.51 174.62 L 166.94 175.50 C 167.29 176.22 168.16 176.52 168.87 176.17 C 169.59 175.82 169.89 174.96 169.54 174.24 L 169.11 173.36 C 168.76 172.64 167.90 172.34 167.18 172.69 C 166.46 173.04 166.16 173.90 166.51 174.62 Z M 166.97 175.53 L 167.42 176.39 C 167.78 177.10 168.64 177.37 169.35 177.01 C 170.05 176.65 170.32 175.78 169.96 175.08 L 169.51 174.22 C 169.15 173.51 168.29 173.24 167.59 173.60 C 166.88 173.96 166.61 174.83 166.97 175.53 Z M 167.43 176.41 L 167.89 177.26 C 168.26 177.95 169.12 178.21 169.82 177.84 C 170.51 177.47 170.77 176.60 170.40 175.91 L 169.95 175.06 C 169.57 174.37 168.71 174.11 168.01 174.48 C 167.32 174.85 167.06 175.72 167.43 176.41 Z"
      fill="black"
      fill-rule="nonzero" /><path d="M 170.53 169.47 L 171.07 170.31 C 171.52 171.00 172.44 171.20 173.14 170.75 C 173.83 170.30 174.03 169.38 173.58 168.69 L 173.04 167.85 C 172.59 167.16 171.66 166.96 170.97 167.41 C 170.28 167.86 170.08 168.78 170.53 169.47 Z M 170.98 170.25 L 171.47 171.12 C 171.89 171.86 172.82 172.12 173.56 171.71 C 174.30 171.30 174.57 170.36 174.15 169.62 L 173.66 168.75 C 173.25 168.01 172.32 167.74 171.58 168.16 C 170.84 168.57 170.57 169.51 170.98 170.25 Z M 171.38 170.96 L 171.76 171.87 C 172.08 172.66 172.98 173.04 173.77 172.72 C 174.56 172.39 174.94 171.49 174.62 170.70 L 174.24 169.78 C 173.92 168.99 173.02 168.62 172.23 168.94 C 171.44 169.26 171.06 170.17 171.38 170.96 Z M 171.74 171.71 L 172.02 172.67 C 172.25 173.47 173.09 173.93 173.89 173.69 C 174.69 173.46 175.15 172.62 174.92 171.82 L 174.63 170.86 C 174.40 170.06 173.56 169.60 172.76 169.84 C 171.96 170.07 171.50 170.91 171.74 171.71 Z M 172.05 172.59 L 172.27 173.49 C 172.46 174.27 173.25 174.75 174.03 174.56 C 174.81 174.37 175.29 173.58 175.10 172.80 L 174.88 171.90 C 174.69 171.12 173.90 170.64 173.12 170.83 C 172.34 171.02 171.86 171.81 172.05 172.59 Z"
      fill="black"
      fill-rule="nonzero" /></svg>