<svg xmlns="http://www.w3.org/2000/svg" width="300" height="300" viewBox="0 0 300 300">
<path d="M 127.85 143.35 L 128.11 144.32 C 128.32 145.14 129.15 145.62 129.96 145.41 C 130.78 145.20 131.27 144.37 131.06 143.56 L 130.81 142.59 C 130.59 141.77 129.76 141.28 128.95 141.49 C 128.13 141.71 127.64 142.54 127.85 143.35 Z M 128.12 144.42 L 128.44 145.37 C 128.70 146.18 129.57 146.61 130.38 146.34 C 131.19 146.08 131.62 145.21 131.35 144.40 L 131.04 143.45 C 130.77 142.65 129.90 142.21 129.10 142.48 C 128.29 142.75 127.85 143.62 128.12 144.42 Z M 128.50 145.54 L 128.92 146.42 C 129.28 147.19 130.20 147.52 130.97 147.16 C 131.73 146.80 132.06 145.88 131.70 145.11 L 131.29 144.23 C 130.93 143.46 130.01 143.13 129.24 143.49 C 128.47 143.85 128.14 144.77 128.50 145.54 Z M 128.99 146.53 L 129.50 147.40 C 129.92 148.13 130.85 148.38 131.58 147.96 C 132.31 147.53 132.56 146.60 132.13 145.87 L 131.63 145.00 C 131.21 144.27 130.27 144.03 129.54 144.45 C 128.82 144.87 128.57 145.81 128.99 146.53 Z M 129.53 147.43 L 130.01 148.22 C 130.45 148.93 131.38 149.15 132.09 148.72 C 132.80 148.28 133.02 147.35 132.59 146.64 L 132.10 145.85 C 131.67 145.14 130.74 144.91 130.03 145.35 C 129.31 145.79 129.09 146.72 129.53 147.43 Z M 130.02 148.20 L 130.49 148.98 C 130.91 149.69 131.83 149.92 132.54 149.49 C 133.25 149.06 133.48 148.14 133.05 147.43 L 132.59 146.66 C 132.16 145.95 131.24 145.72 130.53 146.15 C 129.82 146.57 129.59 147.49 130.02 148.20 Z M 130.48 148.96 L 131.03 149.89 C 131.44 150.60 132.35 150.85 133.06 150.43 C 133.77 150.02 134.02 149.11 133.60 148.39 L 133.06 147.46 C 132.64 146.75 131.73 146.51 131.02 146.92 C 130.31 147.33 130.07 148.25 130.48 148.96 Z M 131.02 149.87 L 131.55 150.80 C 131.95 151.52 132.85 151.77 133.57 151.37 C 134.28 150.97 134.53 150.06 134.13 149.35 L 133.61 148.42 C 133.20 147.70 132.30 147.45 131.59 147.85 C 130.87 148.25 130.62 149.16 131.02 149.87 Z M 131.55 150.79 L 132.05 151.69 C 132.44 152.41 133.34 152.66 134.05 152.27 C 134.76 151.88 135.02 150.98 134.63 150.27 L 134.13 149.37 C 133.74 148.65 132.84 148.39 132.13 148.79 C 131.42 149.18 131.16 150.08 131.55 150.79 Z M 132.05 151.68 L 132.56 152.61 C 132.95 153.32 133.84 153.58 134.55 153.19 C 135.26 152.80 135.52 151.91 135.13 151.20 L 134.63 150.28 C 134.24 149.57 133.35 149.30 132.63 149.69 C 131.92 150.08 131.66 150.97 132.05 151.68 Z M 132.56 152.60 L 133.04 153.48 C 133.42 154.18 134.31 154.45 135.02 154.06 C 135.73 153.68 135.99 152.79 135.60 152.08 L 135.13 151.20 C 134.74 150.50 133.85 150.24 133.15 150.62 C 132.44 151.01 132.18 151.89 132.56 152.60 Z M 133.05 153.47 L 133.56 154.42 C 133.95 155.13 134.83 155.39 135.53 155.00 C 136.24 154.62 136.50 153.74 136.11 153.03 L 135.60 152.08 C 135.21 151.38 134.33 151.12 133.62 151.50 C 132.92 151.89 132.66 152.77 133.05 153.47 Z M 133.57 154.42 L 134.08 155.34 C 134.46 156.04 135.34 156.29 136.04 155.91 C 136.73 155.52 136.99 154.65 136.61 153.95 L 136.10 153.03 C 135.72 152.33 134.84 152.08 134.14 152.46 C 133.44 152.85 133.19 153.72 133.57 154.42 Z M 134.09 155.34 L 134.49 156.07 C 134.88 156.76 135.75 157.01 136.44 156.63 C 137.13 156.25 137.38 155.38 137.00 154.68 L 136.59 153.95 C 136.21 153.26 135.34 153.01 134.65 153.39 C 133.96 153.77 133.70 154.64 134.09 155.34 Z M 134.50 156.07 L 134.54 156.14 C 134.92 156.83 135.79 157.08 136.48 156.69 C 137.17 156.31 137.42 155.44 137.03 154.76 L 136.99 154.69 C 136.61 154.00 135.74 153.75 135.06 154.13 C 134.37 154.51 134.12 155.38 134.50 156.07 Z"
      fill="black"
      fill-rule="nonzero" /><path d="M 132.25 145.88 L 133.20 145.61 C 134.00 145.38 134.47 144.55 134.24 143.74 C 134.01 142.94 133.18 142.47 132.37 142.70 L 131.42 142.97 C 130.62 143.20 130.15 144.04 130.38 144.84 C 130.61 145.64 131.44 146.11 132.25 145.88 Z M 133.03 145.64 L 134.01 145.48 C 134.83 145.35 135.39 144.58 135.25 143.75 C 135.12 142.93 134.35 142.38 133.52 142.51 L 132.54 142.67 C 131.72 142.80 131.16 143.58 131.30 144.40 C 131.43 145.22 132.21 145.78 133.03 145.64 Z M 133.82 145.49 L 134.82 145.46 C 135.65 145.43 136.29 144.73 136.26 143.91 C 136.23 143.08 135.54 142.43 134.71 142.47 L 133.71 142.50 C 132.89 142.53 132.24 143.23 132.27 144.05 C 132.30 144.88 133.00 145.52 133.82 145.49 Z M 134.77 145.45 L 135.79 145.45 C 136.61 145.45 137.28 144.78 137.28 143.96 C 137.28 143.14 136.61 142.47 135.79 142.47 L 134.77 142.47 C 133.95 142.47 133.28 143.14 133.28 143.96 C 133.28 144.78 133.95 145.45 134.77 145.45 Z M 135.78 145.45 L 136.77 145.46 C 137.60 145.47 138.27 144.81 138.28 143.98 C 138.28 143.16 137.62 142.49 136.80 142.48 L 135.80 142.47 C 134.98 142.46 134.31 143.12 134.30 143.95 C 134.29 144.77 134.95 145.44 135.78 145.45 Z M 136.70 145.46 L 137.68 145.52 C 138.51 145.56 139.22 144.93 139.26 144.11 C 139.31 143.28 138.68 142.57 137.85 142.53 L 136.87 142.47 C 136.04 142.43 135.34 143.06 135.29 143.89 C 135.24 144.71 135.88 145.42 136.70 145.46 Z M 137.38 145.48 L 138.33 145.73 C 139.14 145.95 139.96 145.47 140.18 144.67 C 140.39 143.87 139.92 143.04 139.11 142.83 L 138.16 142.57 C 137.36 142.36 136.53 142.83 136.32 143.63 C 136.10 144.44 136.58 145.26 137.38 145.48 Z M 137.94 145.57 L 138.78 146.08 C 139.50 146.52 140.42 146.29 140.86 145.58 C 141.29 144.87 141.07 143.94 140.36 143.51 L 139.51 142.99 C 138.80 142.56 137.87 142.78 137.44 143.49 C 137.00 144.21 137.23 145.13 137.94 145.57 Z M 138.39 145.74 L 139.01 146.52 C 139.52 147.17 140.47 147.28 141.13 146.76 C 141.78 146.24 141.89 145.29 141.37 144.64 L 140.75 143.86 C 140.23 143.20 139.28 143.09 138.63 143.61 C 137.98 144.13 137.87 145.08 138.39 145.74 Z M 138.74 146.03 L 139.04 146.97 C 139.29 147.77 140.14 148.21 140.94 147.96 C 141.74 147.71 142.18 146.86 141.93 146.06 L 141.63 145.12 C 141.38 144.33 140.53 143.88 139.74 144.13 C 138.94 144.38 138.49 145.23 138.74 146.03 Z M 138.97 146.65 L 139.06 147.66 C 139.14 148.50 139.87 149.11 140.71 149.04 C 141.54 148.96 142.16 148.23 142.08 147.39 L 141.99 146.38 C 141.92 145.55 141.18 144.93 140.35 145.01 C 139.52 145.08 138.90 145.82 138.97 146.65 Z M 139.06 147.44 L 139.01 148.42 C 138.96 149.25 139.60 149.97 140.44 150.01 C 141.27 150.06 141.99 149.42 142.03 148.58 L 142.09 147.61 C 142.13 146.78 141.49 146.06 140.66 146.01 C 139.82 145.97 139.11 146.61 139.06 147.44 Z M 139.04 148.18 L 138.82 149.19 C 138.65 150.01 139.17 150.81 139.99 150.99 C 140.81 151.16 141.61 150.64 141.78 149.83 L 142.00 148.82 C 142.18 148.00 141.65 147.19 140.84 147.02 C 140.02 146.85 139.22 147.37 139.04 148.18 Z M 138.88 149.00 L 138.55 149.90 C 138.27 150.68 138.68 151.55 139.46 151.84 C 140.25 152.12 141.12 151.71 141.40 150.93 L 141.73 150.02 C 142.01 149.24 141.60 148.37 140.82 148.09 C 140.03 147.80 139.16 148.21 138.88 149.00 Z M 138.60 149.77 L 138.18 150.70 C 137.82 151.46 138.15 152.36 138.91 152.71 C 139.67 153.06 140.57 152.73 140.92 151.97 L 141.35 151.05 C 141.71 150.29 141.38 149.39 140.62 149.04 C 139.86 148.68 138.96 149.01 138.60 149.77 Z M 138.22 150.61 L 137.72 151.52 C 137.32 152.26 137.59 153.18 138.33 153.58 C 139.07 153.98 139.99 153.71 140.39 152.97 L 140.88 152.06 C 141.28 151.32 141.01 150.40 140.27 150.00 C 139.54 149.60 138.62 149.87 138.22 150.61 Z M 137.76 151.46 L 137.23 152.33 C 136.79 153.04 137.02 153.98 137.74 154.41 C 138.45 154.85 139.39 154.62 139.82 153.91 L 140.35 153.03 C 140.79 152.32 140.56 151.38 139.85 150.95 C 139.13 150.51 138.19 150.74 137.76 151.46 Z M 137.26 152.27 L 136.72 153.08 C 136.25 153.78 136.44 154.72 137.13 155.19 C 137.83 155.66 138.77 155.47 139.24 154.78 L 139.79 153.96 C 140.25 153.27 140.07 152.32 139.37 151.86 C 138.67 151.39 137.73 151.57 137.26 152.27 Z M 136.76 153.03 L 136.15 153.85 C 135.65 154.52 135.80 155.47 136.47 155.97 C 137.15 156.47 138.10 156.33 138.59 155.65 L 139.20 154.83 C 139.70 154.16 139.56 153.21 138.88 152.71 C 138.21 152.21 137.26 152.35 136.76 153.03 Z M 136.21 153.78 L 135.58 154.54 C 135.04 155.18 135.13 156.14 135.77 156.68 C 136.42 157.21 137.37 157.12 137.91 156.48 L 138.54 155.72 C 139.07 155.08 138.99 154.12 138.34 153.59 C 137.70 153.05 136.74 153.14 136.21 153.78 Z M 135.66 154.46 L 134.86 155.27 C 134.28 155.87 134.29 156.83 134.89 157.41 C 135.49 157.99 136.44 157.98 137.02 157.38 L 137.82 156.57 C 138.41 155.97 138.39 155.01 137.80 154.43 C 137.20 153.85 136.24 153.86 135.66 154.46 Z M 135.09 155.10 L 134.40 155.58 C 133.72 156.05 133.55 156.98 134.02 157.66 C 134.49 158.34 135.42 158.51 136.10 158.04 L 136.79 157.56 C 137.48 157.09 137.65 156.16 137.17 155.48 C 136.70 154.80 135.77 154.63 135.09 155.10 Z M 136.70 156.98 L 136.79 156.22 C 136.89 155.41 136.32 154.69 135.51 154.59 C 134.71 154.50 133.98 155.07 133.89 155.87 L 133.80 156.64 C 133.70 157.44 134.27 158.17 135.08 158.26 C 135.88 158.36 136.61 157.78 136.70 156.98 Z M 136.69 156.54 L 136.81 156.21 C 137.08 155.47 136.70 154.64 135.95 154.37 C 135.21 154.10 134.39 154.48 134.12 155.22 L 134.00 155.55 C 133.72 156.30 134.11 157.12 134.85 157.39 C 135.59 157.66 136.41 157.28 136.69 156.54 Z"
      fill="black"
      fill-rule="nonzero" /><path d="M 161.79 121.28 L 160.92 120.76 C 160.20 120.34 159.29 120.58 158.87 121.29 C 158.45 122.01 158.69 122.92 159.40 123.34 L 160.28 123.86 C 160.99 124.28 161.91 124.04 162.33 123.33 C 162.74 122.62 162.51 121.70 161.79 121.28 Z M 160.63 120.63 L 159.73 120.32 C 158.94 120.06 158.09 120.49 157.83 121.27 C 157.56 122.06 157.99 122.91 158.78 123.18 L 159.68 123.48 C 160.47 123.74 161.32 123.32 161.58 122.53 C 161.85 121.74 161.42 120.89 160.63 120.63 Z M 159.23 120.24 L 158.24 120.26 C 157.41 120.27 156.75 120.96 156.76 121.79 C 156.78 122.62 157.46 123.29 158.29 123.27 L 159.28 123.26 C 160.11 123.24 160.77 122.56 160.76 121.72 C 160.74 120.89 160.06 120.23 159.23 120.24 Z M 157.93 120.30 L 156.98 120.52 C 156.17 120.70 155.67 121.51 155.85 122.32 C 156.04 123.13 156.85 123.64 157.65 123.45 L 158.60 123.23 C 159.41 123.05 159.92 122.24 159.73 121.43 C 159.55 120.62 158.74 120.11 157.93 120.30 Z M 156.84 120.57 L 155.87 120.89 C 155.09 121.16 154.67 122.01 154.94 122.79 C 155.20 123.58 156.06 124.00 156.84 123.73 L 157.80 123.40 C 158.58 123.14 159.00 122.29 158.74 121.50 C 158.47 120.72 157.62 120.30 156.84 120.57 Z M 155.79 120.93 L 154.91 121.29 C 154.14 121.61 153.78 122.48 154.10 123.24 C 154.41 124.01 155.28 124.37 156.04 124.06 L 156.93 123.69 C 157.69 123.38 158.05 122.51 157.74 121.74 C 157.42 120.98 156.55 120.62 155.79 120.93 Z M 154.85 121.33 L 154.03 121.71 C 153.29 122.05 152.97 122.94 153.31 123.68 C 153.66 124.43 154.54 124.75 155.29 124.40 L 156.10 124.02 C 156.85 123.68 157.17 122.79 156.82 122.05 C 156.48 121.30 155.59 120.98 154.85 121.33 Z M 153.99 121.73 L 153.03 122.22 C 152.30 122.59 152.01 123.48 152.38 124.21 C 152.75 124.94 153.64 125.23 154.37 124.86 L 155.33 124.37 C 156.06 124.01 156.35 123.12 155.98 122.39 C 155.61 121.66 154.72 121.37 153.99 121.73 Z M 153.01 122.24 L 152.05 122.75 C 151.33 123.13 151.05 124.02 151.43 124.74 C 151.81 125.46 152.71 125.73 153.43 125.35 L 154.39 124.84 C 155.11 124.46 155.38 123.57 155.00 122.85 C 154.62 122.13 153.73 121.86 153.01 122.24 Z M 152.03 122.76 L 151.12 123.25 C 150.41 123.64 150.15 124.53 150.53 125.24 C 150.92 125.96 151.81 126.22 152.53 125.84 L 153.44 125.34 C 154.15 124.96 154.42 124.06 154.03 123.35 C 153.64 122.63 152.75 122.37 152.03 122.76 Z M 151.12 123.25 L 150.19 123.76 C 149.48 124.15 149.22 125.05 149.61 125.76 C 150.00 126.47 150.90 126.73 151.61 126.34 L 152.54 125.83 C 153.25 125.44 153.51 124.55 153.12 123.83 C 152.72 123.12 151.83 122.86 151.12 123.25 Z M 150.19 123.77 L 149.31 124.25 C 148.60 124.65 148.35 125.54 148.74 126.25 C 149.14 126.96 150.03 127.22 150.74 126.82 L 151.61 126.34 C 152.32 125.94 152.58 125.05 152.19 124.34 C 151.79 123.63 150.90 123.37 150.19 123.77 Z M 149.31 124.26 L 148.38 124.77 C 147.68 125.17 147.42 126.07 147.82 126.77 C 148.22 127.48 149.11 127.73 149.82 127.34 L 150.75 126.82 C 151.45 126.42 151.71 125.53 151.31 124.82 C 150.91 124.11 150.02 123.86 149.31 124.26 Z M 148.37 124.79 L 147.46 125.32 C 146.75 125.72 146.52 126.62 146.92 127.32 C 147.33 128.02 148.22 128.26 148.92 127.85 L 149.84 127.32 C 150.54 126.92 150.78 126.02 150.37 125.32 C 149.97 124.62 149.07 124.38 148.37 124.79 Z M 147.41 125.35 L 146.71 125.79 C 146.03 126.23 145.83 127.13 146.26 127.81 C 146.69 128.49 147.59 128.69 148.27 128.26 L 148.97 127.82 C 149.65 127.39 149.85 126.49 149.42 125.80 C 148.99 125.12 148.09 124.92 147.41 125.35 Z M 146.60 125.89 L 145.69 126.59 C 145.06 127.09 144.95 128.00 145.44 128.63 C 145.94 129.26 146.85 129.37 147.48 128.88 L 148.38 128.17 C 149.01 127.68 149.12 126.76 148.63 126.13 C 148.14 125.50 147.23 125.39 146.60 125.89 Z M 145.14 127.69 L 145.13 128.20 C 145.10 129.00 145.73 129.66 146.53 129.69 C 147.33 129.71 147.99 129.08 148.01 128.28 L 148.03 127.78 C 148.05 126.98 147.42 126.31 146.63 126.29 C 145.83 126.27 145.16 126.90 145.14 127.69 Z M 146.16 129.64 L 147.20 129.94 C 147.97 130.16 148.78 129.72 149.00 128.95 C 149.23 128.18 148.79 127.38 148.02 127.15 L 146.98 126.85 C 146.21 126.63 145.40 127.07 145.18 127.84 C 144.95 128.61 145.39 129.41 146.16 129.64 Z M 147.11 129.92 L 148.13 130.29 C 148.89 130.56 149.72 130.17 150.00 129.41 C 150.28 128.66 149.88 127.82 149.13 127.54 L 148.11 127.17 C 147.35 126.90 146.51 127.29 146.24 128.05 C 145.96 128.81 146.35 129.64 147.11 129.92 Z M 147.93 130.21 L 148.81 130.69 C 149.53 131.07 150.42 130.81 150.81 130.09 C 151.19 129.38 150.93 128.49 150.21 128.10 L 149.32 127.62 C 148.61 127.24 147.72 127.50 147.33 128.22 C 146.95 128.93 147.21 129.82 147.93 130.21 Z M 148.58 130.54 L 149.36 131.17 C 149.99 131.69 150.92 131.59 151.44 130.96 C 151.95 130.33 151.86 129.40 151.22 128.88 L 150.45 128.25 C 149.81 127.73 148.88 127.83 148.37 128.46 C 147.85 129.09 147.95 130.02 148.58 130.54 Z M 149.10 130.91 L 149.68 131.69 C 150.16 132.34 151.09 132.48 151.75 131.99 C 152.41 131.51 152.54 130.58 152.06 129.92 L 151.48 129.15 C 150.99 128.49 150.07 128.35 149.41 128.84 C 148.75 129.33 148.61 130.25 149.10 130.91 Z M 149.55 131.50 L 149.98 132.33 C 150.37 133.05 151.27 133.33 152.00 132.95 C 152.72 132.57 153.00 131.67 152.62 130.94 L 152.18 130.11 C 151.80 129.38 150.90 129.10 150.17 129.49 C 149.44 129.87 149.17 130.77 149.55 131.50 Z M 149.91 132.20 L 150.31 133.17 C 150.62 133.94 151.49 134.31 152.26 134.00 C 153.03 133.69 153.40 132.81 153.09 132.04 L 152.69 131.07 C 152.38 130.30 151.51 129.93 150.74 130.24 C 149.97 130.55 149.60 131.43 149.91 132.20 Z M 150.26 133.06 L 150.55 133.98 C 150.80 134.77 151.65 135.21 152.44 134.96 C 153.24 134.71 153.68 133.86 153.42 133.07 L 153.13 132.15 C 152.88 131.36 152.03 130.92 151.24 131.17 C 150.45 131.42 150.01 132.27 150.26 133.06 Z M 150.52 133.89 L 150.77 134.88 C 150.98 135.69 151.80 136.18 152.61 135.98 C 153.42 135.77 153.91 134.95 153.71 134.14 L 153.45 133.15 C 153.25 132.34 152.43 131.85 151.62 132.06 C 150.81 132.26 150.32 133.08 150.52 133.89 Z M 150.75 134.80 L 150.94 135.80 C 151.11 136.62 151.90 137.15 152.72 136.99 C 153.55 136.83 154.08 136.03 153.92 135.21 L 153.73 134.22 C 153.57 133.40 152.77 132.86 151.95 133.02 C 151.13 133.18 150.59 133.98 150.75 134.80 Z M 150.93 135.72 L 151.07 136.70 C 151.19 137.53 151.96 138.10 152.79 137.98 C 153.62 137.86 154.20 137.09 154.08 136.26 L 153.94 135.29 C 153.82 134.46 153.05 133.88 152.22 134.00 C 151.39 134.12 150.81 134.89 150.93 135.72 Z M 151.06 136.64 L 151.17 137.65 C 151.26 138.49 152.00 139.09 152.84 139.01 C 153.67 138.92 154.28 138.17 154.19 137.34 L 154.08 136.32 C 154.00 135.49 153.25 134.88 152.42 134.97 C 151.58 135.06 150.98 135.80 151.06 136.64 Z M 151.17 137.61 L 151.24 138.66 C 151.31 139.50 152.04 140.12 152.87 140.06 C 153.71 140.00 154.34 139.27 154.27 138.44 L 154.20 137.38 C 154.13 136.55 153.40 135.92 152.57 135.98 C 151.73 136.04 151.10 136.77 151.17 137.61 Z M 151.24 138.63 L 151.30 139.65 C 151.34 140.49 152.06 141.13 152.89 141.09 C 153.73 141.04 154.37 140.33 154.33 139.49 L 154.28 138.47 C 154.23 137.63 153.52 136.99 152.68 137.03 C 151.84 137.07 151.20 137.79 151.24 138.63 Z M 151.29 139.63 L 151.33 140.56 C 151.36 141.40 152.06 142.06 152.90 142.03 C 153.74 142.00 154.40 141.29 154.37 140.45 L 154.33 139.52 C 154.30 138.68 153.60 138.02 152.76 138.05 C 151.92 138.08 151.26 138.79 151.29 139.63 Z M 151.33 140.54 L 151.34 141.50 C 151.36 142.34 152.05 143.01 152.89 143.00 C 153.73 142.98 154.40 142.29 154.38 141.45 L 154.37 140.48 C 154.35 139.64 153.66 138.97 152.82 138.99 C 151.98 139.00 151.31 139.70 151.33 140.54 Z M 151.34 141.48 L 151.34 142.49 C 151.34 143.33 152.03 144.01 152.87 144.01 C 153.71 144.01 154.39 143.33 154.39 142.49 L 154.39 141.48 C 154.38 140.63 153.70 139.95 152.86 139.96 C 152.02 139.96 151.34 140.64 151.34 141.48 Z M 151.34 142.49 L 151.34 143.49 C 151.34 144.33 152.02 145.01 152.87 145.01 C 153.71 145.01 154.39 144.33 154.39 143.49 L 154.39 142.49 C 154.39 141.65 153.71 140.96 152.87 140.96 C 152.02 140.96 151.34 141.65 151.34 142.49 Z M 151.34 143.49 L 151.34 144.53 C 151.34 145.37 152.02 146.05 152.87 146.05 C 153.71 146.05 154.39 145.37 154.39 144.53 L 154.39 143.49 C 154.39 142.65 153.71 141.96 152.87 141.96 C 152.02 141.96 151.34 142.65 151.34 143.49 Z M 151.34 144.52 L 151.34 145.53 C 151.34 146.38 152.02 147.06 152.86 147.06 C 153.71 147.06 154.39 146.38 154.39 145.54 L 154.39 144.53 C 154.39 143.68 153.71 143.00 152.87 143.00 C 152.02 143.00 151.34 143.68 151.34 144.52 Z M 151.34 145.51 L 151.32 146.46 C 151.31 147.30 151.98 148.00 152.82 148.01 C 153.66 148.03 154.36 147.36 154.37 146.51 L 154.39 145.56 C 154.40 144.72 153.73 144.02 152.89 144.01 C 152.05 143.99 151.35 144.67 151.34 145.51 Z M 151.33 146.40 L 151.27 147.36 C 151.23 148.20 151.87 148.92 152.71 148.97 C 153.55 149.01 154.27 148.37 154.31 147.53 L 154.37 146.57 C 154.41 145.73 153.77 145.02 152.93 144.97 C 152.09 144.92 151.38 145.56 151.33 146.40 Z M 151.28 147.31 L 151.19 148.31 C 151.12 149.14 151.74 149.88 152.57 149.95 C 153.41 150.03 154.14 149.41 154.22 148.58 L 154.31 147.58 C 154.38 146.75 153.76 146.01 152.93 145.94 C 152.09 145.86 151.36 146.48 151.28 147.31 Z M 151.20 148.26 L 151.07 149.30 C 150.97 150.13 151.56 150.88 152.39 150.98 C 153.23 151.09 153.98 150.50 154.08 149.66 L 154.21 148.63 C 154.31 147.79 153.72 147.04 152.89 146.94 C 152.06 146.84 151.30 147.43 151.20 148.26 Z M 151.09 149.23 L 150.92 150.25 C 150.78 151.07 151.34 151.85 152.16 151.99 C 152.98 152.13 153.76 151.57 153.90 150.75 L 154.07 149.73 C 154.21 148.91 153.65 148.13 152.83 147.99 C 152.00 147.85 151.23 148.41 151.09 149.23 Z M 150.94 150.20 L 150.74 151.17 C 150.57 151.98 151.10 152.78 151.91 152.94 C 152.72 153.11 153.52 152.58 153.68 151.77 L 153.88 150.80 C 154.05 149.99 153.52 149.19 152.71 149.03 C 151.90 148.86 151.10 149.39 150.94 150.20 Z M 150.75 151.15 L 150.61 151.76 C 150.44 152.57 150.95 153.37 151.76 153.54 C 152.56 153.72 153.36 153.21 153.54 152.40 L 153.67 151.79 C 153.85 150.98 153.34 150.18 152.53 150.01 C 151.72 149.83 150.93 150.34 150.75 151.15 Z"
      fill="black"
      fill-rule="nonzero" /><path d="M 152.94 134.03 L 153.90 133.85 C 154.73 133.70 155.27 132.91 155.12 132.09 C 154.97 131.27 154.18 130.73 153.36 130.88 L 152.39 131.06 C 151.57 131.21 151.03 132.00 151.18 132.82 C 151.33 133.64 152.12 134.18 152.94 134.03 Z M 153.95 133.84 L 154.91 133.63 C 155.73 133.46 156.25 132.66 156.07 131.84 C 155.90 131.03 155.10 130.51 154.28 130.69 L 153.32 130.89 C 152.50 131.07 151.98 131.87 152.16 132.68 C 152.33 133.50 153.13 134.02 153.95 133.84 Z M 154.93 133.63 L 155.90 133.40 C 156.71 133.22 157.22 132.41 157.03 131.60 C 156.85 130.80 156.04 130.29 155.23 130.47 L 154.26 130.69 C 153.45 130.88 152.95 131.68 153.13 132.49 C 153.32 133.30 154.12 133.81 154.93 133.63 Z M 155.86 133.41 L 156.82 133.22 C 157.63 133.06 158.16 132.28 158.00 131.46 C 157.84 130.65 157.05 130.12 156.24 130.28 L 155.28 130.47 C 154.47 130.63 153.94 131.41 154.10 132.23 C 154.25 133.04 155.04 133.57 155.86 133.41 Z M 156.74 133.24 L 157.71 133.10 C 158.53 132.99 159.10 132.23 158.99 131.40 C 158.87 130.58 158.11 130.01 157.29 130.12 L 156.32 130.26 C 155.49 130.38 154.92 131.14 155.04 131.96 C 155.15 132.78 155.92 133.36 156.74 133.24 Z M 157.62 133.12 L 158.69 133.03 C 159.52 132.96 160.14 132.23 160.07 131.40 C 160.00 130.57 159.27 129.95 158.44 130.02 L 157.37 130.11 C 156.54 130.18 155.93 130.91 155.99 131.74 C 156.06 132.57 156.79 133.19 157.62 133.12 Z M 158.60 133.03 L 159.62 133.01 C 160.45 132.99 161.11 132.29 161.09 131.46 C 161.07 130.63 160.37 129.97 159.54 129.99 L 158.53 130.02 C 157.69 130.04 157.04 130.73 157.06 131.57 C 157.08 132.40 157.77 133.06 158.60 133.03 Z M 159.53 133.00 L 160.55 133.03 C 161.38 133.06 162.07 132.41 162.10 131.58 C 162.12 130.75 161.47 130.06 160.64 130.03 L 159.62 130.00 C 158.80 129.97 158.10 130.63 158.08 131.46 C 158.05 132.28 158.70 132.98 159.53 133.00 Z M 160.43 133.02 L 161.46 133.13 C 162.28 133.23 163.02 132.64 163.11 131.82 C 163.20 130.99 162.61 130.25 161.79 130.16 L 160.76 130.05 C 159.94 129.95 159.20 130.54 159.11 131.36 C 159.02 132.18 159.61 132.92 160.43 133.02 Z M 161.24 133.09 L 162.22 133.35 C 163.01 133.56 163.83 133.09 164.04 132.29 C 164.25 131.50 163.78 130.68 162.99 130.47 L 162.01 130.21 C 161.21 130.00 160.40 130.47 160.19 131.26 C 159.97 132.06 160.44 132.87 161.24 133.09 Z M 161.90 133.21 L 162.71 133.65 C 163.43 134.04 164.33 133.78 164.72 133.06 C 165.11 132.34 164.84 131.44 164.12 131.05 L 163.31 130.61 C 162.59 130.22 161.69 130.48 161.30 131.20 C 160.91 131.92 161.18 132.82 161.90 133.21 Z M 162.37 133.40 L 163.07 134.10 C 163.65 134.67 164.59 134.67 165.16 134.09 C 165.74 133.51 165.74 132.58 165.16 132.00 L 164.46 131.30 C 163.88 130.73 162.94 130.73 162.37 131.31 C 161.79 131.88 161.79 132.82 162.37 133.40 Z M 162.85 133.81 L 163.36 134.65 C 163.78 135.35 164.69 135.58 165.38 135.16 C 166.08 134.74 166.31 133.83 165.89 133.13 L 165.38 132.29 C 164.96 131.59 164.05 131.37 163.36 131.78 C 162.66 132.20 162.43 133.11 162.85 133.81 Z M 163.25 134.41 L 163.59 135.34 C 163.88 136.10 164.72 136.49 165.48 136.20 C 166.24 135.92 166.63 135.07 166.35 134.31 L 166.00 133.38 C 165.72 132.62 164.87 132.23 164.11 132.52 C 163.35 132.80 162.96 133.65 163.25 134.41 Z M 163.53 135.12 L 163.74 136.11 C 163.90 136.90 164.68 137.42 165.47 137.25 C 166.26 137.09 166.77 136.31 166.61 135.52 L 166.41 134.53 C 166.24 133.74 165.47 133.23 164.68 133.39 C 163.88 133.55 163.37 134.33 163.53 135.12 Z M 163.72 135.95 L 163.81 136.95 C 163.89 137.75 164.60 138.34 165.40 138.27 C 166.21 138.20 166.80 137.48 166.72 136.68 L 166.63 135.68 C 166.55 134.88 165.84 134.29 165.04 134.36 C 164.23 134.44 163.64 135.15 163.72 135.95 Z M 163.81 136.87 L 163.85 137.88 C 163.88 138.69 164.55 139.32 165.35 139.29 C 166.16 139.26 166.79 138.58 166.76 137.78 L 166.72 136.76 C 166.69 135.96 166.02 135.33 165.22 135.36 C 164.41 135.39 163.78 136.06 163.81 136.87 Z M 163.85 137.81 L 163.84 138.82 C 163.83 139.62 164.47 140.28 165.27 140.29 C 166.07 140.30 166.73 139.66 166.74 138.86 L 166.75 137.85 C 166.76 137.05 166.12 136.39 165.32 136.38 C 164.52 136.37 163.86 137.01 163.85 137.81 Z M 163.86 138.67 L 163.74 139.66 C 163.65 140.45 164.21 141.16 165.00 141.26 C 165.79 141.35 166.51 140.79 166.60 140.00 L 166.72 139.01 C 166.81 138.22 166.25 137.51 165.46 137.41 C 164.67 137.32 163.95 137.88 163.86 138.67 Z M 163.78 139.45 L 163.52 140.42 C 163.32 141.19 163.77 141.97 164.54 142.18 C 165.31 142.39 166.09 141.93 166.30 141.17 L 166.56 140.20 C 166.76 139.43 166.31 138.64 165.54 138.44 C 164.78 138.23 163.99 138.69 163.78 139.45 Z M 163.58 140.26 L 163.22 141.18 C 162.92 141.92 163.28 142.75 164.02 143.04 C 164.75 143.34 165.58 142.98 165.88 142.24 L 166.24 141.32 C 166.53 140.59 166.18 139.75 165.44 139.46 C 164.71 139.17 163.87 139.53 163.58 140.26 Z M 163.26 141.10 L 162.83 141.99 C 162.49 142.70 162.79 143.56 163.50 143.90 C 164.21 144.24 165.06 143.94 165.41 143.23 L 165.83 142.33 C 166.17 141.62 165.87 140.77 165.16 140.43 C 164.45 140.09 163.60 140.39 163.26 141.10 Z M 162.84 141.97 L 162.79 142.08 C 162.44 142.79 162.72 143.64 163.43 143.99 C 164.13 144.34 164.99 144.06 165.34 143.35 L 165.39 143.24 C 165.75 142.54 165.46 141.68 164.75 141.33 C 164.05 140.98 163.19 141.27 162.84 141.97 Z"
      fill="black"
      fill-rule="nonzero" /><path d="M 153.49 140.29 L 154.42 140.61 C 155.20 140.88 156.05 140.46 156.31 139.69 C 156.58 138.91 156.17 138.06 155.39 137.79 L 154.46 137.47 C 153.68 137.20 152.84 137.62 152.57 138.40 C 152.30 139.18 152.71 140.03 153.49 140.29 Z M 154.73 140.69 L 155.71 140.80 C 156.53 140.90 157.27 140.31 157.37 139.49 C 157.47 138.67 156.88 137.93 156.06 137.83 L 155.08 137.71 C 154.26 137.62 153.51 138.20 153.42 139.02 C 153.32 139.85 153.91 140.59 154.73 140.69 Z M 156.04 140.79 L 157.02 140.69 C 157.84 140.60 158.43 139.87 158.34 139.05 C 158.25 138.23 157.52 137.64 156.70 137.73 L 155.72 137.84 C 154.91 137.92 154.32 138.66 154.40 139.48 C 154.49 140.29 155.23 140.88 156.04 140.79 Z M 157.15 140.65 L 158.17 140.45 C 158.97 140.29 159.48 139.51 159.32 138.72 C 159.16 137.92 158.39 137.40 157.59 137.56 L 156.57 137.77 C 155.77 137.93 155.26 138.70 155.42 139.50 C 155.58 140.30 156.35 140.81 157.15 140.65 Z M 158.20 140.43 L 159.17 140.21 C 159.96 140.03 160.45 139.25 160.27 138.47 C 160.10 137.68 159.31 137.19 158.53 137.37 L 157.56 137.58 C 156.77 137.76 156.28 138.54 156.46 139.33 C 156.63 140.11 157.42 140.60 158.20 140.43 Z M 159.19 140.19 L 160.17 139.95 C 160.95 139.77 161.42 138.99 161.24 138.21 C 161.05 137.44 160.27 136.96 159.49 137.15 L 158.51 137.38 C 157.74 137.57 157.26 138.35 157.45 139.13 C 157.63 139.90 158.41 140.38 159.19 140.19 Z M 160.19 139.94 L 161.15 139.69 C 161.92 139.50 162.39 138.72 162.19 137.95 C 161.99 137.18 161.21 136.72 160.45 136.91 L 159.48 137.16 C 158.71 137.36 158.25 138.14 158.44 138.90 C 158.64 139.67 159.42 140.14 160.19 139.94 Z M 161.16 139.69 L 162.13 139.43 C 162.90 139.23 163.35 138.45 163.15 137.68 C 162.95 136.92 162.17 136.46 161.40 136.67 L 160.44 136.92 C 159.67 137.12 159.22 137.90 159.42 138.67 C 159.62 139.43 160.40 139.89 161.16 139.69 Z M 162.13 139.43 L 162.45 139.34 C 163.21 139.14 163.67 138.36 163.47 137.60 C 163.26 136.84 162.48 136.38 161.72 136.59 L 161.40 136.67 C 160.64 136.87 160.19 137.65 160.39 138.41 C 160.59 139.18 161.37 139.63 162.13 139.43 Z"
      fill="black"
      fill-rule="nonzero" /><path d="M 154.19 147.29 L 155.18 147.24 C 156.00 147.19 156.62 146.50 156.58 145.69 C 156.54 144.88 155.85 144.25 155.03 144.29 L 154.04 144.34 C 153.23 144.38 152.60 145.08 152.65 145.89 C 152.69 146.70 153.38 147.33 154.19 147.29 Z M 155.30 147.24 L 156.29 147.11 C 157.11 147.01 157.69 146.26 157.58 145.44 C 157.48 144.63 156.73 144.05 155.91 144.16 L 154.92 144.28 C 154.10 144.39 153.52 145.14 153.63 145.96 C 153.73 146.77 154.48 147.35 155.30 147.24 Z M 156.46 147.07 L 157.40 146.84 C 158.20 146.64 158.68 145.84 158.48 145.04 C 158.29 144.25 157.48 143.76 156.69 143.96 L 155.74 144.19 C 154.95 144.39 154.46 145.20 154.66 145.99 C 154.86 146.79 155.66 147.27 156.46 147.07 Z M 157.47 146.79 L 158.45 146.49 C 159.22 146.26 159.65 145.45 159.42 144.68 C 159.18 143.91 158.37 143.48 157.61 143.71 L 156.62 144.01 C 155.85 144.25 155.42 145.06 155.65 145.82 C 155.89 146.59 156.70 147.02 157.47 146.79 Z M 158.44 146.47 L 159.38 146.19 C 160.14 145.97 160.57 145.17 160.34 144.41 C 160.11 143.65 159.31 143.22 158.56 143.45 L 157.62 143.73 C 156.86 143.95 156.43 144.75 156.66 145.51 C 156.88 146.27 157.68 146.70 158.44 146.47 Z M 159.36 146.20 L 160.33 145.92 C 161.09 145.70 161.53 144.91 161.32 144.15 C 161.10 143.39 160.31 142.95 159.55 143.17 L 158.58 143.44 C 157.82 143.66 157.38 144.45 157.59 145.21 C 157.81 145.97 158.60 146.41 159.36 146.20 Z M 160.31 145.92 L 161.28 145.66 C 162.05 145.46 162.50 144.68 162.29 143.91 C 162.09 143.15 161.31 142.70 160.55 142.90 L 159.57 143.16 C 158.81 143.37 158.36 144.15 158.56 144.91 C 158.77 145.68 159.55 146.13 160.31 145.92 Z M 161.27 145.67 L 162.24 145.42 C 163.00 145.22 163.46 144.44 163.27 143.68 C 163.07 142.92 162.29 142.46 161.53 142.65 L 160.56 142.90 C 159.80 143.10 159.34 143.87 159.53 144.64 C 159.73 145.40 160.50 145.86 161.27 145.67 Z M 162.23 145.42 L 163.03 145.22 C 163.80 145.03 164.26 144.25 164.07 143.49 C 163.88 142.72 163.10 142.26 162.34 142.45 L 161.54 142.65 C 160.77 142.84 160.31 143.62 160.50 144.38 C 160.69 145.15 161.47 145.61 162.23 145.42 Z"
      fill="black"
      fill-rule="nonzero" /><path d="M 155.16 153.72 L 155.88 153.08 C 156.48 152.54 156.54 151.61 156.00 151.00 C 155.46 150.39 154.52 150.34 153.92 150.88 L 153.20 151.52 C 152.59 152.06 152.54 152.99 153.08 153.60 C 153.62 154.21 154.55 154.26 155.16 153.72 Z M 155.80 153.17 L 156.61 152.55 C 157.27 152.05 157.40 151.12 156.90 150.46 C 156.40 149.81 155.47 149.68 154.81 150.18 L 154.00 150.79 C 153.34 151.29 153.21 152.23 153.71 152.88 C 154.21 153.54 155.14 153.67 155.80 153.17 Z M 156.48 152.65 L 157.33 152.13 C 158.04 151.71 158.27 150.79 157.85 150.09 C 157.43 149.38 156.51 149.15 155.81 149.57 L 154.95 150.08 C 154.24 150.50 154.01 151.42 154.43 152.13 C 154.85 152.84 155.77 153.07 156.48 152.65 Z M 157.24 152.17 L 158.15 151.71 C 158.88 151.34 159.17 150.45 158.80 149.72 C 158.43 148.99 157.54 148.70 156.81 149.07 L 155.90 149.53 C 155.17 149.90 154.88 150.79 155.25 151.52 C 155.62 152.25 156.51 152.54 157.24 152.17 Z M 158.10 151.72 L 159.03 151.28 C 159.76 150.94 160.08 150.07 159.74 149.33 C 159.39 148.60 158.52 148.28 157.79 148.63 L 156.86 149.06 C 156.12 149.41 155.81 150.28 156.15 151.01 C 156.50 151.75 157.37 152.06 158.10 151.72 Z M 159.01 151.28 L 159.94 150.86 C 160.67 150.53 160.99 149.67 160.66 148.94 C 160.33 148.21 159.47 147.88 158.74 148.21 L 157.81 148.63 C 157.08 148.96 156.75 149.82 157.09 150.55 C 157.42 151.28 158.28 151.61 159.01 151.28 Z M 159.90 150.86 L 160.78 150.48 C 161.51 150.17 161.85 149.33 161.54 148.60 C 161.23 147.87 160.38 147.53 159.65 147.84 L 158.77 148.21 C 158.04 148.52 157.70 149.37 158.02 150.10 C 158.33 150.83 159.17 151.17 159.90 150.86 Z M 160.74 150.49 L 161.68 150.12 C 162.41 149.83 162.77 149.00 162.48 148.27 C 162.19 147.53 161.36 147.17 160.63 147.46 L 159.69 147.83 C 158.96 148.12 158.60 148.95 158.89 149.69 C 159.17 150.42 160.00 150.78 160.74 150.49 Z M 161.66 150.13 L 162.39 149.85 C 163.13 149.57 163.50 148.75 163.22 148.01 C 162.94 147.27 162.12 146.90 161.38 147.18 L 160.65 147.46 C 159.91 147.74 159.54 148.56 159.82 149.30 C 160.10 150.03 160.92 150.40 161.66 150.13 Z"
      fill="black"
      fill-rule="nonzero" /><path d="M 153.78 159.34 L 154.75 159.16 C 155.59 159.02 156.15 158.22 156.00 157.39 C 155.85 156.55 155.06 155.99 154.22 156.14 L 153.25 156.31 C 152.41 156.46 151.86 157.25 152.00 158.09 C 152.15 158.93 152.95 159.48 153.78 159.34 Z M 154.87 159.14 L 155.85 158.89 C 156.67 158.68 157.16 157.85 156.96 157.03 C 156.75 156.20 155.91 155.71 155.09 155.92 L 154.11 156.16 C 153.29 156.37 152.79 157.21 153.00 158.03 C 153.21 158.85 154.05 159.35 154.87 159.14 Z M 156.02 158.84 L 156.91 158.49 C 157.70 158.19 158.10 157.30 157.80 156.51 C 157.49 155.72 156.61 155.32 155.82 155.63 L 154.92 155.97 C 154.13 156.27 153.73 157.16 154.03 157.95 C 154.34 158.74 155.22 159.14 156.02 158.84 Z M 157.02 158.44 L 157.94 158.00 C 158.71 157.64 159.03 156.72 158.66 155.96 C 158.30 155.20 157.39 154.88 156.63 155.24 L 155.71 155.68 C 154.94 156.04 154.62 156.96 154.98 157.72 C 155.35 158.48 156.26 158.80 157.02 158.44 Z M 157.99 157.97 L 158.87 157.52 C 159.62 157.13 159.91 156.20 159.52 155.46 C 159.13 154.71 158.21 154.42 157.46 154.81 L 156.58 155.27 C 155.83 155.66 155.54 156.58 155.93 157.33 C 156.32 158.07 157.24 158.36 157.99 157.97 Z M 158.88 157.51 L 159.76 157.03 C 160.51 156.64 160.78 155.71 160.39 154.97 C 159.99 154.23 159.06 153.95 158.32 154.35 L 157.44 154.82 C 156.70 155.22 156.42 156.14 156.82 156.88 C 157.22 157.62 158.14 157.90 158.88 157.51 Z M 159.77 157.03 L 160.67 156.55 C 161.41 156.15 161.69 155.22 161.29 154.48 C 160.89 153.74 159.97 153.46 159.23 153.86 L 158.32 154.35 C 157.58 154.75 157.30 155.67 157.70 156.41 C 158.10 157.15 159.02 157.43 159.77 157.03 Z M 160.66 156.55 L 161.54 156.08 C 162.28 155.69 162.57 154.77 162.17 154.02 C 161.78 153.28 160.86 153.00 160.12 153.39 L 159.24 153.86 C 158.49 154.25 158.21 155.17 158.61 155.92 C 159.00 156.66 159.92 156.94 160.66 156.55 Z M 161.53 156.08 L 162.42 155.62 C 163.16 155.23 163.45 154.31 163.06 153.57 C 162.68 152.83 161.76 152.54 161.02 152.93 L 160.13 153.39 C 159.39 153.78 159.10 154.69 159.49 155.44 C 159.87 156.18 160.79 156.47 161.53 156.08 Z M 162.40 155.62 L 163.30 155.16 C 164.05 154.78 164.34 153.87 163.97 153.13 C 163.59 152.39 162.68 152.09 161.94 152.47 L 161.04 152.93 C 160.29 153.31 160.00 154.21 160.38 154.96 C 160.75 155.70 161.66 155.99 162.40 155.62 Z M 163.29 155.16 L 164.20 154.71 C 164.94 154.34 165.25 153.44 164.88 152.69 C 164.51 151.95 163.61 151.65 162.87 152.01 L 161.95 152.47 C 161.21 152.83 160.90 153.74 161.27 154.48 C 161.64 155.23 162.54 155.53 163.29 155.16 Z M 164.18 154.71 L 165.07 154.28 C 165.82 153.92 166.13 153.03 165.77 152.28 C 165.41 151.53 164.52 151.22 163.77 151.58 L 162.88 152.01 C 162.13 152.37 161.82 153.27 162.18 154.01 C 162.54 154.76 163.44 155.07 164.18 154.71 Z M 165.06 154.29 L 165.95 153.87 C 166.70 153.52 167.02 152.63 166.67 151.88 C 166.32 151.13 165.43 150.81 164.68 151.16 L 163.79 151.58 C 163.04 151.93 162.72 152.82 163.07 153.57 C 163.42 154.32 164.31 154.64 165.06 154.29 Z M 165.93 153.88 L 166.83 153.47 C 167.58 153.14 167.92 152.25 167.58 151.50 C 167.25 150.74 166.36 150.41 165.61 150.74 L 164.71 151.15 C 163.95 151.48 163.61 152.37 163.95 153.12 C 164.29 153.88 165.17 154.22 165.93 153.88 Z M 166.79 153.49 L 167.72 153.11 C 168.49 152.79 168.85 151.92 168.54 151.16 C 168.22 150.39 167.35 150.03 166.59 150.34 L 165.65 150.73 C 164.89 151.04 164.52 151.91 164.84 152.68 C 165.15 153.44 166.02 153.81 166.79 153.49 Z M 167.67 153.12 L 168.65 152.76 C 169.43 152.47 169.82 151.62 169.54 150.84 C 169.25 150.07 168.39 149.68 167.62 149.96 L 166.64 150.33 C 165.87 150.61 165.47 151.47 165.76 152.24 C 166.04 153.01 166.90 153.41 167.67 153.12 Z M 168.59 152.78 L 169.53 152.47 C 170.32 152.22 170.75 151.39 170.50 150.61 C 170.25 149.82 169.41 149.39 168.63 149.64 L 167.68 149.95 C 166.90 150.20 166.47 151.03 166.72 151.81 C 166.97 152.60 167.81 153.03 168.59 152.78 Z M 169.39 152.52 L 170.45 152.29 C 171.26 152.12 171.77 151.32 171.60 150.52 C 171.42 149.72 170.63 149.20 169.83 149.38 L 168.77 149.60 C 167.96 149.78 167.45 150.57 167.63 151.37 C 167.80 152.18 168.59 152.69 169.39 152.52 Z M 169.70 152.27 L 170.48 152.51 C 171.28 152.76 172.12 152.31 172.36 151.52 C 172.61 150.72 172.16 149.88 171.37 149.63 L 170.58 149.39 C 169.79 149.15 168.95 149.59 168.70 150.39 C 168.46 151.18 168.90 152.03 169.70 152.27 Z M 169.49 151.57 L 169.79 152.45 C 170.07 153.24 170.93 153.66 171.73 153.39 C 172.52 153.11 172.94 152.25 172.67 151.45 L 172.36 150.58 C 172.09 149.78 171.22 149.36 170.43 149.64 C 169.63 149.91 169.21 150.78 169.49 151.57 Z M 169.70 152.06 L 169.78 153.13 C 169.84 153.97 170.57 154.61 171.42 154.55 C 172.26 154.49 172.89 153.75 172.83 152.91 L 172.75 151.84 C 172.69 151.00 171.96 150.36 171.12 150.42 C 170.27 150.48 169.64 151.22 169.70 152.06 Z M 169.77 153.04 L 169.78 154.04 C 169.80 154.88 170.50 155.56 171.34 155.55 C 172.19 155.53 172.87 154.84 172.86 153.99 L 172.84 153.00 C 172.83 152.15 172.13 151.47 171.28 151.48 C 170.43 151.50 169.76 152.20 169.77 153.04 Z M 169.78 154.01 L 169.78 154.98 C 169.78 155.83 170.47 156.52 171.32 156.52 C 172.17 156.52 172.86 155.83 172.86 154.98 L 172.86 154.01 C 172.86 153.16 172.17 152.47 171.32 152.47 C 170.47 152.47 169.78 153.16 169.78 154.01 Z M 169.78 154.94 L 169.75 155.95 C 169.73 156.80 170.40 157.51 171.25 157.54 C 172.10 157.56 172.81 156.89 172.83 156.04 L 172.86 155.02 C 172.88 154.17 172.21 153.46 171.36 153.44 C 170.51 153.42 169.80 154.09 169.78 154.94 Z M 169.75 155.88 L 169.68 156.84 C 169.61 157.69 170.25 158.43 171.10 158.50 C 171.95 158.56 172.69 157.93 172.75 157.08 L 172.83 156.11 C 172.89 155.26 172.26 154.52 171.41 154.46 C 170.56 154.39 169.82 155.03 169.75 155.88 Z M 169.68 156.78 L 169.57 157.78 C 169.47 158.63 170.08 159.40 170.92 159.50 C 171.77 159.59 172.53 158.99 172.63 158.14 L 172.75 157.14 C 172.85 156.29 172.24 155.52 171.39 155.43 C 170.55 155.33 169.78 155.93 169.68 156.78 Z M 169.57 157.76 L 169.43 158.77 C 169.32 159.61 169.91 160.39 170.76 160.50 C 171.60 160.62 172.38 160.03 172.49 159.18 L 172.63 158.17 C 172.74 157.33 172.15 156.55 171.31 156.43 C 170.46 156.32 169.69 156.91 169.57 157.76 Z M 169.43 158.76 L 169.29 159.75 C 169.18 160.60 169.76 161.38 170.61 161.50 C 171.45 161.62 172.23 161.03 172.35 160.18 L 172.49 159.19 C 172.61 158.34 172.02 157.56 171.18 157.44 C 170.33 157.33 169.55 157.91 169.43 158.76 Z M 169.29 159.76 L 169.16 160.76 C 169.04 161.61 169.63 162.39 170.48 162.50 C 171.33 162.62 172.10 162.02 172.22 161.18 L 172.35 160.18 C 172.47 159.33 171.88 158.55 171.03 158.44 C 170.19 158.32 169.41 158.92 169.29 159.76 Z M 169.15 160.78 L 169.03 161.78 C 168.93 162.63 169.53 163.40 170.37 163.51 C 171.22 163.61 171.99 163.01 172.10 162.16 L 172.22 161.16 C 172.32 160.31 171.72 159.54 170.88 159.44 C 170.03 159.33 169.26 159.94 169.15 160.78 Z M 169.03 161.79 L 168.91 162.78 C 168.81 163.62 169.41 164.39 170.26 164.49 C 171.11 164.60 171.88 163.99 171.98 163.14 L 172.10 162.16 C 172.20 161.31 171.60 160.54 170.75 160.44 C 169.90 160.34 169.13 160.94 169.03 161.79 Z M 168.91 162.76 L 168.78 163.74 C 168.67 164.59 169.27 165.36 170.12 165.47 C 170.96 165.58 171.74 164.99 171.85 164.14 L 171.98 163.16 C 172.09 162.31 171.49 161.54 170.65 161.43 C 169.80 161.32 169.02 161.91 168.91 162.76 Z M 168.79 163.71 L 168.64 164.69 C 168.51 165.54 169.09 166.33 169.94 166.45 C 170.78 166.58 171.57 166.00 171.70 165.15 L 171.85 164.17 C 171.97 163.33 171.39 162.54 170.55 162.41 C 169.70 162.28 168.91 162.87 168.79 163.71 Z M 168.65 164.66 L 168.47 165.66 C 168.33 166.50 168.89 167.30 169.73 167.44 C 170.57 167.59 171.37 167.02 171.52 166.18 L 171.69 165.19 C 171.84 164.35 171.27 163.55 170.43 163.40 C 169.59 163.25 168.79 163.82 168.65 164.66 Z M 168.48 165.62 L 168.29 166.60 C 168.12 167.44 168.66 168.25 169.50 168.42 C 170.34 168.58 171.15 168.04 171.32 167.20 L 171.51 166.22 C 171.68 165.38 171.13 164.57 170.30 164.40 C 169.46 164.24 168.65 164.78 168.48 165.62 Z M 168.30 166.56 L 168.08 167.54 C 167.89 168.37 168.41 169.20 169.24 169.38 C 170.07 169.57 170.90 169.05 171.09 168.22 L 171.31 167.24 C 171.50 166.41 170.97 165.58 170.14 165.40 C 169.31 165.21 168.48 165.73 168.30 166.56 Z M 168.09 167.50 L 167.84 168.47 C 167.63 169.30 168.12 170.14 168.95 170.35 C 169.77 170.56 170.61 170.06 170.82 169.24 L 171.07 168.26 C 171.29 167.44 170.79 166.60 169.96 166.38 C 169.14 166.17 168.30 166.67 168.09 167.50 Z M 167.85 168.43 L 167.56 169.42 C 167.33 170.23 167.80 171.09 168.62 171.32 C 169.43 171.56 170.29 171.09 170.52 170.27 L 170.81 169.28 C 171.05 168.47 170.58 167.61 169.76 167.37 C 168.94 167.14 168.09 167.61 167.85 168.43 Z M 167.58 169.37 L 167.28 170.31 C 167.01 171.12 167.46 171.99 168.27 172.25 C 169.08 172.51 169.94 172.07 170.21 171.26 L 170.51 170.32 C 170.77 169.51 170.33 168.64 169.52 168.38 C 168.71 168.12 167.84 168.56 167.58 169.37 Z M 167.29 170.26 L 166.95 171.22 C 166.66 172.02 167.07 172.90 167.87 173.19 C 168.67 173.48 169.55 173.07 169.84 172.27 L 170.19 171.31 C 170.48 170.51 170.07 169.62 169.27 169.34 C 168.47 169.05 167.58 169.46 167.29 170.26 Z M 166.97 171.15 L 166.59 172.07 C 166.26 172.86 166.64 173.76 167.43 174.08 C 168.21 174.41 169.12 174.03 169.44 173.25 L 169.82 172.33 C 170.14 171.54 169.77 170.64 168.98 170.32 C 168.19 169.99 167.29 170.37 166.97 171.15 Z M 166.62 172.00 L 166.21 172.87 C 165.84 173.64 166.17 174.56 166.94 174.93 C 167.71 175.29 168.63 174.96 169.00 174.19 L 169.41 173.32 C 169.78 172.55 169.45 171.63 168.68 171.26 C 167.91 170.90 166.98 171.23 166.62 172.00 Z M 166.26 172.76 L 165.77 173.63 C 165.34 174.37 165.60 175.31 166.35 175.74 C 167.09 176.16 168.04 175.90 168.46 175.16 L 168.95 174.30 C 169.37 173.55 169.11 172.61 168.37 172.18 C 167.62 171.76 166.68 172.02 166.26 172.76 Z M 165.85 173.49 L 165.26 174.33 C 164.76 175.03 164.93 175.99 165.62 176.49 C 166.32 176.98 167.29 176.82 167.79 176.12 L 168.38 175.29 C 168.87 174.59 168.71 173.62 168.01 173.13 C 167.31 172.63 166.34 172.80 165.85 173.49 Z M 165.38 174.18 L 164.70 174.92 C 164.12 175.55 164.16 176.53 164.79 177.11 C 165.43 177.69 166.41 177.65 166.98 177.01 L 167.66 176.27 C 168.24 175.64 168.20 174.66 167.57 174.08 C 166.94 173.50 165.96 173.55 165.38 174.18 Z M 164.96 174.70 L 164.16 175.26 C 163.46 175.75 163.28 176.71 163.77 177.41 C 164.26 178.11 165.23 178.28 165.93 177.79 L 166.73 177.24 C 167.43 176.75 167.60 175.78 167.11 175.08 C 166.62 174.38 165.66 174.21 164.96 174.70 Z M 164.61 175.04 L 163.66 175.32 C 162.84 175.56 162.37 176.41 162.61 177.23 C 162.85 178.05 163.70 178.52 164.52 178.28 L 165.47 178.01 C 166.29 177.77 166.76 176.92 166.52 176.10 C 166.29 175.28 165.43 174.81 164.61 175.04 Z M 164.03 175.27 L 163.10 175.30 C 162.26 175.33 161.60 176.04 161.63 176.89 C 161.66 177.73 162.37 178.40 163.21 178.36 L 164.15 178.33 C 164.99 178.30 165.65 177.59 165.62 176.75 C 165.59 175.90 164.88 175.24 164.03 175.27 Z M 163.48 175.35 L 162.47 175.13 C 161.65 174.95 160.84 175.47 160.66 176.28 C 160.48 177.10 161.00 177.91 161.81 178.09 L 162.83 178.31 C 163.65 178.49 164.46 177.98 164.64 177.16 C 164.82 176.34 164.30 175.53 163.48 175.35 Z M 162.84 175.29 L 161.99 174.84 C 161.26 174.46 160.35 174.74 159.97 175.47 C 159.59 176.20 159.87 177.10 160.60 177.49 L 161.45 177.93 C 162.18 178.32 163.08 178.04 163.46 177.30 C 163.85 176.57 163.57 175.67 162.84 175.29 Z M 162.17 174.99 L 161.36 174.39 C 160.70 173.91 159.79 174.04 159.30 174.70 C 158.82 175.35 158.96 176.27 159.61 176.75 L 160.42 177.34 C 161.07 177.83 161.99 177.69 162.47 177.04 C 162.95 176.38 162.82 175.47 162.17 174.99 Z M 161.41 174.46 L 160.65 173.83 C 160.04 173.32 159.13 173.40 158.62 174.01 C 158.11 174.61 158.19 175.52 158.80 176.03 L 159.56 176.67 C 160.17 177.18 161.08 177.10 161.59 176.49 C 162.10 175.88 162.02 174.97 161.41 174.46 Z"
      fill="black"
      fill-rule="nonzero" /><path d="M 140.09 162.09 L 139.76 163.05 C 139.49 163.85 139.92 164.72 140.71 164.99 C 141.51 165.26 142.37 164.83 142.64 164.03 L 142.97 163.07 C 143.24 162.27 142.81 161.41 142.02 161.14 C 141.22 160.87 140.36 161.29 140.09 162.09 Z M 139.68 163.68 L 139.76 164.59 C 139.83 165.43 140.58 166.05 141.42 165.97 C 142.26 165.90 142.88 165.15 142.81 164.31 L 142.73 163.41 C 142.65 162.56 141.91 161.94 141.06 162.02 C 140.22 162.09 139.60 162.84 139.68 163.68 Z M 139.94 165.19 L 140.44 166.10 C 140.86 166.84 141.79 167.10 142.53 166.69 C 143.27 166.28 143.54 165.35 143.12 164.61 L 142.62 163.70 C 142.21 162.96 141.28 162.70 140.54 163.11 C 139.80 163.52 139.53 164.45 139.94 165.19 Z M 140.49 166.17 L 141.01 166.99 C 141.47 167.71 142.41 167.92 143.12 167.47 C 143.84 167.01 144.05 166.07 143.60 165.35 L 143.08 164.53 C 142.62 163.82 141.68 163.61 140.97 164.06 C 140.25 164.51 140.04 165.46 140.49 166.17 Z M 141.02 166.99 L 141.57 167.86 C 142.02 168.57 142.96 168.78 143.67 168.34 C 144.38 167.89 144.59 166.95 144.15 166.23 L 143.59 165.36 C 143.15 164.65 142.20 164.43 141.49 164.88 C 140.78 165.33 140.57 166.27 141.02 166.99 Z M 141.58 167.86 L 142.12 168.71 C 142.57 169.41 143.50 169.62 144.21 169.17 C 144.92 168.72 145.12 167.79 144.67 167.08 L 144.13 166.23 C 143.68 165.53 142.75 165.32 142.04 165.77 C 141.34 166.22 141.13 167.15 141.58 167.86 Z M 142.14 168.71 L 142.69 169.55 C 143.14 170.25 144.07 170.45 144.76 169.99 C 145.46 169.54 145.65 168.61 145.20 167.92 L 144.65 167.08 C 144.20 166.38 143.27 166.19 142.58 166.64 C 141.88 167.09 141.69 168.02 142.14 168.71 Z M 142.71 169.56 L 143.27 170.40 C 143.73 171.08 144.65 171.26 145.33 170.80 C 146.01 170.35 146.19 169.42 145.74 168.74 L 145.18 167.91 C 144.72 167.23 143.80 167.05 143.12 167.50 C 142.43 167.96 142.25 168.88 142.71 169.56 Z M 143.29 170.40 L 143.85 171.22 C 144.31 171.89 145.22 172.06 145.89 171.61 C 146.56 171.15 146.73 170.24 146.28 169.57 L 145.72 168.75 C 145.26 168.08 144.35 167.90 143.68 168.36 C 143.01 168.82 142.84 169.73 143.29 170.40 Z M 143.86 171.20 L 144.43 172.05 C 144.88 172.72 145.78 172.89 146.44 172.44 C 147.11 172.00 147.29 171.10 146.84 170.43 L 146.27 169.58 C 145.82 168.92 144.92 168.74 144.26 169.19 C 143.59 169.64 143.41 170.54 143.86 171.20 Z M 144.45 172.05 L 145.01 172.88 C 145.46 173.53 146.36 173.70 147.01 173.25 C 147.67 172.80 147.83 171.91 147.39 171.25 L 146.82 170.43 C 146.37 169.77 145.48 169.60 144.82 170.05 C 144.16 170.50 144.00 171.40 144.45 172.05 Z M 145.06 172.93 L 145.68 173.73 C 146.16 174.36 147.05 174.48 147.68 174.00 C 148.31 173.52 148.43 172.62 147.95 171.99 L 147.33 171.19 C 146.85 170.57 145.95 170.45 145.33 170.93 C 144.70 171.41 144.58 172.31 145.06 172.93 Z M 145.73 173.80 L 146.37 174.53 C 146.88 175.13 147.78 175.19 148.38 174.68 C 148.97 174.16 149.04 173.26 148.53 172.67 L 147.89 171.93 C 147.38 171.33 146.48 171.27 145.88 171.78 C 145.28 172.30 145.22 173.20 145.73 173.80 Z"
      fill="black"
      fill-rule="nonzero" /><path d="M 148.75 163.38 L 149.34 164.06 C 149.89 164.70 150.86 164.77 151.49 164.21 C 152.13 163.66 152.20 162.69 151.64 162.06 L 151.05 161.38 C 150.50 160.74 149.53 160.67 148.90 161.23 C 148.26 161.78 148.19 162.74 148.75 163.38 Z M 149.29 164.03 L 149.97 164.87 C 150.50 165.54 151.48 165.64 152.14 165.10 C 152.81 164.57 152.91 163.59 152.38 162.93 L 151.70 162.09 C 151.16 161.42 150.18 161.32 149.52 161.86 C 148.85 162.39 148.75 163.37 149.29 164.03 Z M 149.93 164.84 L 150.53 165.62 C 151.04 166.30 152.02 166.44 152.70 165.92 C 153.38 165.40 153.52 164.43 153.00 163.75 L 152.41 162.97 C 151.89 162.28 150.92 162.15 150.24 162.66 C 149.55 163.18 149.42 164.15 149.93 164.84 Z M 150.52 165.59 L 151.13 166.43 C 151.63 167.11 152.59 167.26 153.28 166.76 C 153.97 166.26 154.12 165.30 153.62 164.62 L 153.01 163.78 C 152.51 163.09 151.54 162.94 150.86 163.44 C 150.17 163.94 150.02 164.90 150.52 165.59 Z M 151.13 166.39 L 151.73 167.25 C 152.21 167.94 153.16 168.11 153.85 167.62 C 154.53 167.14 154.70 166.20 154.22 165.51 L 153.62 164.65 C 153.14 163.96 152.19 163.80 151.50 164.28 C 150.82 164.76 150.65 165.71 151.13 166.39 Z M 151.73 167.20 L 152.28 168.04 C 152.73 168.73 153.66 168.92 154.35 168.46 C 155.04 168.01 155.23 167.08 154.77 166.39 L 154.22 165.56 C 153.77 164.87 152.84 164.68 152.15 165.13 C 151.46 165.59 151.27 166.51 151.73 167.20 Z M 152.27 167.98 L 152.76 168.79 C 153.19 169.48 154.09 169.70 154.79 169.28 C 155.48 168.85 155.70 167.95 155.27 167.26 L 154.78 166.45 C 154.36 165.75 153.45 165.53 152.76 165.96 C 152.07 166.38 151.85 167.29 152.27 167.98 Z M 152.76 168.74 L 153.26 169.61 C 153.66 170.30 154.54 170.55 155.24 170.15 C 155.93 169.75 156.17 168.86 155.77 168.17 L 155.28 167.30 C 154.88 166.61 153.99 166.37 153.30 166.76 C 152.60 167.16 152.36 168.05 152.76 168.74 Z M 153.26 169.59 L 153.75 170.47 C 154.14 171.16 155.02 171.41 155.71 171.02 C 156.40 170.63 156.65 169.76 156.26 169.06 L 155.77 168.19 C 155.38 167.49 154.50 167.25 153.81 167.63 C 153.12 168.02 152.87 168.90 153.26 169.59 Z M 153.76 170.47 L 154.26 171.34 C 154.65 172.03 155.52 172.27 156.21 171.88 C 156.89 171.49 157.13 170.62 156.75 169.93 L 156.25 169.06 C 155.86 168.37 154.99 168.13 154.30 168.52 C 153.62 168.91 153.37 169.78 153.76 170.47 Z M 154.26 171.35 L 154.76 172.21 C 155.15 172.90 156.02 173.13 156.71 172.74 C 157.39 172.35 157.63 171.48 157.24 170.79 L 156.74 169.93 C 156.35 169.24 155.48 169.01 154.79 169.40 C 154.11 169.79 153.87 170.66 154.26 171.35 Z M 154.76 172.21 L 154.79 172.27 C 155.19 172.95 156.06 173.19 156.74 172.80 C 157.42 172.41 157.66 171.54 157.27 170.85 L 157.23 170.79 C 156.84 170.11 155.97 169.88 155.29 170.27 C 154.61 170.66 154.37 171.53 154.76 172.21 Z"
      fill="black"
      fill-rule="nonzero" /><path d="M 158.00 162.02 L 158.16 163.02 C 158.29 163.86 159.08 164.43 159.92 164.30 C 160.75 164.17 161.33 163.39 161.20 162.55 L 161.04 161.55 C 160.91 160.71 160.12 160.14 159.28 160.27 C 158.45 160.40 157.87 161.18 158.00 162.02 Z M 158.17 163.11 L 158.37 164.08 C 158.55 164.91 159.37 165.44 160.21 165.27 C 161.04 165.09 161.58 164.27 161.40 163.43 L 161.19 162.46 C 161.01 161.63 160.19 161.10 159.35 161.27 C 158.52 161.45 157.99 162.27 158.17 163.11 Z M 158.42 164.20 L 158.71 165.15 C 158.95 165.96 159.81 166.42 160.62 166.18 C 161.43 165.93 161.89 165.07 161.64 164.26 L 161.35 163.31 C 161.11 162.50 160.25 162.04 159.44 162.29 C 158.63 162.53 158.17 163.39 158.42 164.20 Z M 158.75 165.18 L 159.06 166.13 C 159.32 166.92 160.17 167.35 160.96 167.09 C 161.75 166.82 162.18 165.97 161.92 165.18 L 161.60 164.24 C 161.34 163.45 160.49 163.02 159.70 163.28 C 158.91 163.54 158.48 164.39 158.75 165.18 Z M 159.08 166.12 L 159.39 167.07 C 159.65 167.85 160.48 168.27 161.26 168.02 C 162.04 167.76 162.46 166.92 162.21 166.15 L 161.89 165.20 C 161.64 164.42 160.80 163.99 160.03 164.25 C 159.25 164.50 158.83 165.34 159.08 166.12 Z M 159.42 167.08 L 159.73 168.01 C 159.99 168.77 160.82 169.18 161.59 168.92 C 162.35 168.66 162.76 167.83 162.50 167.07 L 162.18 166.14 C 161.92 165.38 161.09 164.97 160.33 165.23 C 159.57 165.49 159.16 166.32 159.42 167.08 Z M 159.77 168.05 L 160.12 168.99 C 160.40 169.73 161.24 170.11 161.98 169.83 C 162.73 169.55 163.10 168.71 162.82 167.97 L 162.46 167.03 C 162.18 166.28 161.35 165.91 160.61 166.19 C 159.86 166.47 159.48 167.30 159.77 168.05 Z M 160.15 169.03 L 160.53 169.94 C 160.84 170.67 161.68 171.02 162.41 170.71 C 163.14 170.41 163.48 169.57 163.17 168.84 L 162.79 167.93 C 162.49 167.20 161.65 166.85 160.92 167.16 C 160.19 167.46 159.84 168.30 160.15 169.03 Z M 160.54 169.96 L 160.85 170.67 C 161.17 171.40 162.01 171.73 162.73 171.41 C 163.45 171.10 163.79 170.26 163.47 169.53 L 163.16 168.82 C 162.85 168.10 162.01 167.77 161.28 168.08 C 160.56 168.40 160.23 169.24 160.54 169.96 Z"
      fill="black"
      fill-rule="nonzero" /><path d="M 163.79 161.71 L 164.61 162.17 C 165.34 162.58 166.25 162.32 166.66 161.59 C 167.07 160.87 166.81 159.95 166.08 159.54 L 165.26 159.08 C 164.54 158.68 163.62 158.94 163.21 159.66 C 162.80 160.39 163.06 161.31 163.79 161.71 Z M 164.28 161.98 L 165.03 162.70 C 165.65 163.28 166.63 163.26 167.22 162.64 C 167.81 162.02 167.79 161.04 167.16 160.45 L 166.41 159.73 C 165.79 159.14 164.81 159.17 164.22 159.79 C 163.63 160.41 163.66 161.39 164.28 161.98 Z M 164.78 162.41 L 165.26 163.17 C 165.72 163.90 166.68 164.12 167.41 163.66 C 168.14 163.20 168.36 162.23 167.90 161.50 L 167.42 160.74 C 166.96 160.01 166.00 159.79 165.26 160.25 C 164.53 160.71 164.31 161.67 164.78 162.41 Z M 165.17 163.00 L 165.62 163.93 C 165.98 164.71 166.91 165.04 167.69 164.67 C 168.46 164.31 168.79 163.38 168.43 162.60 L 167.99 161.67 C 167.62 160.89 166.69 160.56 165.91 160.93 C 165.14 161.30 164.81 162.22 165.17 163.00 Z M 165.59 163.84 L 165.98 164.84 C 166.29 165.63 167.19 166.02 167.98 165.71 C 168.78 165.40 169.17 164.50 168.85 163.71 L 168.46 162.70 C 168.15 161.91 167.25 161.52 166.46 161.83 C 165.66 162.15 165.27 163.04 165.59 163.84 Z M 165.98 164.78 L 166.32 165.75 C 166.60 166.54 167.47 166.96 168.26 166.68 C 169.06 166.40 169.47 165.53 169.20 164.74 L 168.86 163.77 C 168.58 162.98 167.71 162.56 166.91 162.84 C 166.12 163.11 165.70 163.98 165.98 164.78 Z M 166.33 165.70 L 166.63 166.65 C 166.89 167.44 167.73 167.88 168.52 167.63 C 169.31 167.37 169.74 166.53 169.49 165.74 L 169.19 164.78 C 168.93 164.00 168.09 163.56 167.30 163.81 C 166.51 164.06 166.08 164.91 166.33 165.70 Z M 166.65 166.61 L 166.92 167.55 C 167.15 168.34 167.97 168.78 168.75 168.56 C 169.53 168.33 169.98 167.51 169.75 166.73 L 169.48 165.78 C 169.25 165.00 168.43 164.55 167.65 164.78 C 166.87 165.01 166.42 165.83 166.65 166.61 Z M 166.93 167.52 L 167.20 168.51 C 167.41 169.29 168.20 169.75 168.98 169.55 C 169.76 169.34 170.22 168.54 170.01 167.76 L 169.74 166.76 C 169.54 165.99 168.74 165.52 167.96 165.73 C 167.18 165.94 166.72 166.74 166.93 167.52 Z M 167.21 168.49 L 167.44 169.43 C 167.63 170.20 168.42 170.67 169.19 170.48 C 169.96 170.29 170.43 169.51 170.24 168.73 L 170.00 167.79 C 169.81 167.02 169.03 166.55 168.26 166.74 C 167.48 166.93 167.01 167.71 167.21 168.49 Z M 167.45 169.42 L 167.55 169.85 C 167.74 170.61 168.51 171.09 169.28 170.90 C 170.05 170.71 170.52 169.94 170.33 169.17 L 170.23 168.75 C 170.04 167.98 169.27 167.51 168.50 167.69 C 167.74 167.88 167.26 168.65 167.45 169.42 Z"
      fill="black"
      fill-rule="nonzero" /></svg>