<svg xmlns="http://www.w3.org/2000/svg" width="300" height="300" viewBox="0 0 300 300">
<path d="M 157.86 131.41 L 156.97 130.93 C 156.23 130.54 155.32 130.82 154.92 131.56 C 154.53 132.30 154.81 133.21 155.55 133.61 L 156.43 134.08 C 157.17 134.47 158.09 134.19 158.48 133.45 C 158.87 132.72 158.59 131.80 157.86 131.41 Z M 157.01 130.94 L 156.15 130.45 C 155.41 130.04 154.48 130.30 154.07 131.03 C 153.65 131.76 153.91 132.69 154.64 133.11 L 155.51 133.60 C 156.24 134.01 157.17 133.76 157.59 133.02 C 158.00 132.29 157.74 131.36 157.01 130.94 Z M 156.19 130.47 L 155.35 129.96 C 154.63 129.52 153.69 129.75 153.25 130.47 C 152.81 131.19 153.04 132.14 153.76 132.57 L 154.60 133.09 C 155.32 133.53 156.26 133.30 156.70 132.58 C 157.14 131.86 156.91 130.91 156.19 130.47 Z M 155.33 129.95 L 154.45 129.43 C 153.73 129.01 152.79 129.25 152.36 129.98 C 151.93 130.70 152.17 131.64 152.90 132.07 L 153.78 132.59 C 154.51 133.01 155.44 132.77 155.87 132.04 C 156.30 131.32 156.06 130.38 155.33 129.95 Z M 154.38 129.40 L 153.48 128.93 C 152.73 128.54 151.81 128.83 151.42 129.57 C 151.03 130.32 151.32 131.25 152.07 131.64 L 152.97 132.11 C 153.72 132.50 154.64 132.21 155.03 131.46 C 155.42 130.71 155.13 129.79 154.38 129.40 Z M 153.37 128.87 L 152.45 128.49 C 151.67 128.16 150.78 128.52 150.45 129.30 C 150.12 130.08 150.49 130.97 151.27 131.30 L 152.18 131.69 C 152.96 132.02 153.86 131.65 154.18 130.87 C 154.51 130.10 154.15 129.20 153.37 128.87 Z M 152.26 128.42 L 151.31 128.16 C 150.49 127.94 149.65 128.42 149.43 129.23 C 149.21 130.05 149.69 130.89 150.50 131.11 L 151.46 131.37 C 152.27 131.59 153.11 131.11 153.33 130.30 C 153.55 129.48 153.07 128.64 152.26 128.42 Z M 151.10 128.12 L 150.14 128.00 C 149.30 127.89 148.54 128.48 148.43 129.32 C 148.32 130.15 148.91 130.92 149.75 131.03 L 150.71 131.15 C 151.55 131.26 152.31 130.67 152.42 129.83 C 152.53 128.99 151.94 128.23 151.10 128.12 Z M 149.98 127.98 L 148.97 127.96 C 148.13 127.94 147.43 128.61 147.41 129.46 C 147.39 130.30 148.06 131.00 148.91 131.02 L 149.91 131.04 C 150.75 131.06 151.45 130.39 151.47 129.54 C 151.49 128.70 150.82 128.00 149.98 127.98 Z M 148.83 127.97 L 147.84 128.04 C 147.00 128.10 146.37 128.83 146.42 129.67 C 146.48 130.51 147.21 131.14 148.05 131.08 L 149.05 131.01 C 149.89 130.95 150.52 130.22 150.46 129.38 C 150.40 128.54 149.67 127.91 148.83 127.97 Z M 147.65 128.07 L 146.68 128.26 C 145.85 128.43 145.32 129.23 145.49 130.05 C 145.65 130.88 146.45 131.41 147.27 131.24 L 148.25 131.05 C 149.07 130.88 149.60 130.08 149.44 129.26 C 149.27 128.44 148.47 127.90 147.65 128.07 Z M 146.41 128.35 L 145.45 128.74 C 144.68 129.06 144.30 129.94 144.62 130.71 C 144.93 131.48 145.81 131.86 146.59 131.54 L 147.54 131.16 C 148.32 130.84 148.69 129.96 148.38 129.19 C 148.06 128.41 147.18 128.04 146.41 128.35 Z M 145.22 128.86 L 144.35 129.40 C 143.64 129.84 143.42 130.77 143.86 131.48 C 144.30 132.18 145.23 132.40 145.94 131.97 L 146.81 131.43 C 147.52 130.99 147.74 130.06 147.30 129.35 C 146.86 128.64 145.93 128.42 145.22 128.86 Z M 144.22 129.49 L 143.44 130.09 C 142.78 130.60 142.67 131.55 143.18 132.21 C 143.69 132.87 144.63 132.99 145.29 132.48 L 146.07 131.87 C 146.73 131.36 146.85 130.42 146.34 129.76 C 145.83 129.10 144.88 128.98 144.22 129.49 Z M 143.34 130.18 L 142.58 130.89 C 141.97 131.46 141.94 132.42 142.50 133.03 C 143.07 133.64 144.03 133.67 144.64 133.10 L 145.40 132.39 C 146.01 131.82 146.04 130.86 145.47 130.25 C 144.90 129.65 143.95 129.61 143.34 130.18 Z M 142.48 131.00 L 141.85 131.70 C 141.30 132.33 141.35 133.28 141.98 133.83 C 142.60 134.39 143.56 134.33 144.11 133.71 L 144.74 133.00 C 145.29 132.37 145.23 131.42 144.61 130.87 C 143.98 130.31 143.03 130.37 142.48 131.00 Z M 141.80 131.76 L 141.18 132.54 C 140.66 133.19 140.77 134.14 141.42 134.66 C 142.07 135.18 143.02 135.07 143.54 134.42 L 144.16 133.65 C 144.68 132.99 144.57 132.04 143.92 131.52 C 143.27 131.00 142.32 131.11 141.80 131.76 Z M 141.13 132.60 L 140.54 133.42 C 140.06 134.10 140.21 135.04 140.89 135.53 C 141.57 136.02 142.52 135.86 143.01 135.18 L 143.59 134.36 C 144.08 133.68 143.92 132.73 143.24 132.25 C 142.56 131.76 141.62 131.92 141.13 132.60 Z M 140.48 133.51 L 139.97 134.35 C 139.53 135.06 139.75 136.00 140.46 136.43 C 141.18 136.87 142.11 136.65 142.55 135.94 L 143.07 135.09 C 143.51 134.38 143.28 133.45 142.57 133.01 C 141.86 132.57 140.92 132.79 140.48 133.51 Z M 139.90 134.45 L 139.45 135.34 C 139.07 136.09 139.37 137.01 140.11 137.39 C 140.86 137.77 141.78 137.47 142.16 136.72 L 142.61 135.83 C 142.99 135.08 142.70 134.17 141.95 133.79 C 141.20 133.41 140.29 133.70 139.90 134.45 Z M 139.40 135.44 L 139.02 136.35 C 138.69 137.12 139.06 138.02 139.83 138.34 C 140.61 138.67 141.50 138.30 141.82 137.53 L 142.21 136.62 C 142.53 135.85 142.17 134.96 141.39 134.63 C 140.62 134.31 139.73 134.67 139.40 135.44 Z M 138.98 136.45 L 138.65 137.42 C 138.38 138.21 138.80 139.08 139.60 139.35 C 140.39 139.62 141.26 139.20 141.53 138.40 L 141.86 137.43 C 142.14 136.64 141.71 135.77 140.91 135.50 C 140.12 135.23 139.25 135.65 138.98 136.45 Z M 138.62 137.51 L 138.36 138.45 C 138.14 139.27 138.62 140.10 139.43 140.33 C 140.24 140.55 141.08 140.07 141.30 139.26 L 141.56 138.31 C 141.78 137.50 141.31 136.66 140.49 136.44 C 139.68 136.21 138.84 136.69 138.62 137.51 Z M 138.34 138.52 L 138.12 139.51 C 137.94 140.34 138.46 141.15 139.28 141.34 C 140.10 141.52 140.92 141.00 141.10 140.18 L 141.32 139.19 C 141.51 138.36 140.99 137.55 140.16 137.36 C 139.34 137.18 138.53 137.70 138.34 138.52 Z M 138.11 139.56 L 137.93 140.53 C 137.77 141.36 138.32 142.16 139.14 142.32 C 139.97 142.47 140.77 141.93 140.93 141.10 L 141.11 140.13 C 141.27 139.30 140.72 138.50 139.89 138.34 C 139.06 138.19 138.27 138.73 138.11 139.56 Z M 137.92 140.58 L 137.76 141.57 C 137.63 142.40 138.20 143.19 139.04 143.32 C 139.87 143.45 140.65 142.88 140.78 142.04 L 140.94 141.05 C 141.07 140.22 140.50 139.44 139.67 139.31 C 138.83 139.17 138.05 139.74 137.92 140.58 Z M 137.76 141.62 L 137.63 142.62 C 137.53 143.45 138.12 144.22 138.96 144.32 C 139.80 144.43 140.56 143.83 140.67 142.99 L 140.79 141.99 C 140.89 141.16 140.30 140.39 139.46 140.29 C 138.62 140.19 137.86 140.78 137.76 141.62 Z M 137.63 142.66 L 137.54 143.65 C 137.46 144.49 138.08 145.23 138.92 145.31 C 139.76 145.39 140.50 144.77 140.58 143.93 L 140.67 142.95 C 140.75 142.10 140.13 141.36 139.29 141.28 C 138.45 141.20 137.70 141.82 137.63 142.66 Z M 137.53 143.68 L 137.47 144.70 C 137.41 145.54 138.05 146.27 138.89 146.32 C 139.73 146.38 140.46 145.74 140.52 144.90 L 140.58 143.89 C 140.64 143.04 140.00 142.31 139.16 142.26 C 138.32 142.20 137.59 142.84 137.53 143.68 Z M 137.46 144.73 L 137.42 145.74 C 137.38 146.59 138.03 147.30 138.88 147.34 C 139.72 147.38 140.44 146.72 140.48 145.88 L 140.52 144.87 C 140.56 144.02 139.90 143.31 139.06 143.27 C 138.22 143.23 137.50 143.89 137.46 144.73 Z M 137.42 145.77 L 137.39 146.78 C 137.36 147.62 138.03 148.33 138.87 148.35 C 139.72 148.38 140.42 147.71 140.45 146.87 L 140.48 145.86 C 140.50 145.01 139.84 144.31 138.99 144.28 C 138.15 144.26 137.44 144.92 137.42 145.77 Z M 137.38 146.80 L 137.37 147.79 C 137.35 148.63 138.03 149.33 138.87 149.34 C 139.72 149.36 140.42 148.68 140.43 147.84 L 140.45 146.85 C 140.47 146.00 139.79 145.30 138.94 145.29 C 138.10 145.28 137.40 145.95 137.38 146.80 Z M 137.37 147.80 L 137.36 148.83 C 137.35 149.68 138.03 150.38 138.88 150.38 C 139.73 150.39 140.42 149.71 140.43 148.86 L 140.44 147.82 C 140.44 146.98 139.76 146.28 138.91 146.28 C 138.07 146.27 137.37 146.95 137.37 147.80 Z M 137.35 148.85 L 137.36 149.84 C 137.36 150.69 138.05 151.38 138.90 151.37 C 139.75 151.37 140.43 150.68 140.43 149.83 L 140.43 148.85 C 140.43 148.00 139.74 147.31 138.89 147.31 C 138.04 147.31 137.35 148.00 137.35 148.85 Z M 137.35 149.86 L 137.37 150.84 C 137.38 151.69 138.08 152.37 138.93 152.36 C 139.78 152.35 140.46 151.65 140.45 150.80 L 140.43 149.82 C 140.42 148.97 139.72 148.29 138.87 148.30 C 138.02 148.31 137.34 149.01 137.35 149.86 Z M 137.37 150.88 L 137.40 151.89 C 137.43 152.74 138.15 153.40 139.00 153.37 C 139.85 153.34 140.51 152.63 140.48 151.78 L 140.45 150.77 C 140.42 149.92 139.70 149.25 138.85 149.28 C 138.00 149.32 137.34 150.03 137.37 150.88 Z M 137.41 151.97 L 137.49 152.95 C 137.57 153.79 138.32 154.42 139.16 154.35 C 140.01 154.27 140.64 153.52 140.56 152.68 L 140.48 151.70 C 140.40 150.85 139.66 150.22 138.81 150.30 C 137.96 150.37 137.33 151.12 137.41 151.97 Z M 137.51 153.06 L 137.67 154.06 C 137.81 154.90 138.60 155.47 139.44 155.33 C 140.28 155.20 140.85 154.40 140.71 153.56 L 140.55 152.56 C 140.41 151.72 139.62 151.15 138.78 151.29 C 137.94 151.43 137.37 152.22 137.51 153.06 Z M 137.69 154.15 L 137.91 155.11 C 138.10 155.94 138.92 156.46 139.75 156.27 C 140.58 156.09 141.10 155.26 140.91 154.43 L 140.70 153.47 C 140.51 152.64 139.68 152.12 138.85 152.31 C 138.02 152.50 137.50 153.32 137.69 154.15 Z M 137.92 155.19 L 138.20 156.16 C 138.43 156.98 139.28 157.46 140.10 157.23 C 140.92 157.00 141.40 156.15 141.17 155.33 L 140.90 154.35 C 140.67 153.53 139.81 153.05 138.99 153.28 C 138.17 153.51 137.69 154.37 137.92 155.19 Z M 138.22 156.24 L 138.54 157.18 C 138.81 157.98 139.69 158.41 140.50 158.14 C 141.30 157.87 141.74 156.99 141.46 156.18 L 141.14 155.25 C 140.87 154.44 139.99 154.01 139.19 154.28 C 138.38 154.56 137.95 155.43 138.22 156.24 Z M 138.56 157.24 L 138.93 158.17 C 139.24 158.97 140.14 159.36 140.93 159.04 C 141.72 158.73 142.11 157.84 141.80 157.04 L 141.44 156.11 C 141.13 155.32 140.23 154.93 139.43 155.24 C 138.64 155.55 138.25 156.45 138.56 157.24 Z M 138.93 158.19 L 139.30 159.09 C 139.62 159.88 140.53 160.26 141.32 159.94 C 142.11 159.62 142.49 158.72 142.16 157.93 L 141.80 157.02 C 141.47 156.23 140.57 155.85 139.78 156.18 C 138.99 156.50 138.61 157.40 138.93 158.19 Z M 139.33 159.16 L 139.76 160.07 C 140.12 160.84 141.04 161.18 141.81 160.82 C 142.58 160.46 142.92 159.54 142.56 158.77 L 142.13 157.86 C 141.77 157.08 140.85 156.75 140.08 157.11 C 139.31 157.47 138.97 158.39 139.33 159.16 Z M 139.85 160.24 L 140.38 161.09 C 140.83 161.81 141.78 162.03 142.51 161.58 C 143.23 161.12 143.45 160.17 143.00 159.45 L 142.47 158.60 C 142.01 157.88 141.06 157.66 140.34 158.11 C 139.61 158.56 139.39 159.51 139.85 160.24 Z M 140.49 161.24 L 141.13 162.03 C 141.66 162.69 142.64 162.79 143.30 162.25 C 143.96 161.71 144.06 160.74 143.52 160.08 L 142.89 159.29 C 142.35 158.63 141.37 158.53 140.71 159.07 C 140.05 159.61 139.95 160.58 140.49 161.24 Z M 141.26 162.17 L 142.00 162.87 C 142.61 163.46 143.59 163.44 144.18 162.82 C 144.77 162.21 144.75 161.23 144.13 160.64 L 143.39 159.94 C 142.78 159.35 141.80 159.37 141.21 159.99 C 140.62 160.60 140.64 161.58 141.26 162.17 Z M 142.16 163.01 L 142.97 163.59 C 143.67 164.09 144.63 163.93 145.13 163.23 C 145.62 162.54 145.46 161.57 144.77 161.08 L 143.96 160.50 C 143.27 160.00 142.30 160.16 141.81 160.86 C 141.31 161.55 141.47 162.52 142.16 163.01 Z M 143.16 163.70 L 144.04 164.16 C 144.80 164.55 145.73 164.25 146.12 163.49 C 146.51 162.74 146.21 161.81 145.46 161.42 L 144.58 160.96 C 143.82 160.57 142.89 160.87 142.50 161.63 C 142.11 162.38 142.41 163.31 143.16 163.70 Z M 144.25 164.24 L 145.20 164.56 C 146.00 164.84 146.87 164.41 147.15 163.60 C 147.42 162.80 146.99 161.93 146.19 161.66 L 145.24 161.33 C 144.44 161.06 143.57 161.49 143.30 162.29 C 143.02 163.09 143.45 163.97 144.25 164.24 Z M 145.42 164.61 L 146.39 164.78 C 147.22 164.93 148.01 164.38 148.16 163.55 C 148.31 162.73 147.76 161.93 146.93 161.79 L 145.96 161.61 C 145.13 161.46 144.34 162.01 144.19 162.84 C 144.04 163.67 144.59 164.46 145.42 164.61 Z M 146.57 164.79 L 147.56 164.85 C 148.39 164.90 149.11 164.28 149.16 163.45 C 149.22 162.62 148.59 161.90 147.76 161.85 L 146.76 161.78 C 145.93 161.73 145.22 162.36 145.16 163.19 C 145.11 164.02 145.74 164.73 146.57 164.79 Z M 147.64 164.84 L 148.63 164.85 C 149.45 164.86 150.13 164.21 150.14 163.39 C 150.16 162.56 149.50 161.89 148.68 161.88 L 147.68 161.86 C 146.86 161.85 146.18 162.50 146.17 163.33 C 146.16 164.15 146.81 164.82 147.64 164.84 Z M 148.69 164.84 L 149.67 164.81 C 150.49 164.79 151.13 164.11 151.11 163.30 C 151.08 162.48 150.41 161.84 149.59 161.86 L 148.61 161.89 C 147.80 161.91 147.16 162.59 147.18 163.40 C 147.20 164.22 147.88 164.86 148.69 164.84 Z M 149.81 164.79 L 150.84 164.67 C 151.65 164.57 152.22 163.83 152.12 163.03 C 152.02 162.23 151.29 161.66 150.49 161.75 L 149.45 161.88 C 148.65 161.98 148.08 162.71 148.18 163.52 C 148.27 164.32 149.01 164.89 149.81 164.79 Z M 151.01 164.63 L 151.96 164.40 C 152.74 164.21 153.22 163.42 153.04 162.64 C 152.85 161.85 152.06 161.37 151.27 161.56 L 150.32 161.79 C 149.54 161.98 149.05 162.77 149.24 163.55 C 149.43 164.34 150.22 164.82 151.01 164.63 Z M 152.09 164.37 L 153.05 164.04 C 153.81 163.78 154.22 162.95 153.96 162.18 C 153.70 161.42 152.87 161.01 152.10 161.27 L 151.14 161.60 C 150.38 161.86 149.97 162.69 150.23 163.45 C 150.49 164.22 151.32 164.63 152.09 164.37 Z M 153.16 163.99 L 154.08 163.59 C 154.82 163.27 155.15 162.41 154.83 161.67 C 154.51 160.93 153.64 160.59 152.91 160.92 L 151.99 161.32 C 151.25 161.64 150.91 162.50 151.24 163.24 C 151.56 163.98 152.42 164.32 153.16 163.99 Z M 154.19 163.53 L 155.03 163.07 C 155.74 162.68 156.00 161.79 155.61 161.09 C 155.22 160.39 154.34 160.13 153.63 160.52 L 152.79 160.98 C 152.09 161.37 151.83 162.25 152.22 162.95 C 152.60 163.66 153.49 163.92 154.19 163.53 Z M 155.15 162.98 L 155.98 162.41 C 156.64 161.96 156.80 161.06 156.35 160.41 C 155.90 159.75 155.00 159.58 154.34 160.03 L 153.52 160.60 C 152.86 161.05 152.69 161.95 153.14 162.61 C 153.59 163.27 154.49 163.43 155.15 162.98 Z M 156.08 162.33 L 156.85 161.69 C 157.46 161.19 157.55 160.28 157.04 159.67 C 156.54 159.06 155.63 158.97 155.02 159.48 L 154.25 160.11 C 153.63 160.62 153.55 161.52 154.05 162.14 C 154.56 162.75 155.46 162.84 156.08 162.33 Z M 156.91 161.63 L 157.62 160.98 C 158.20 160.44 158.23 159.53 157.69 158.95 C 157.15 158.37 156.25 158.34 155.67 158.88 L 154.96 159.53 C 154.38 160.07 154.35 160.98 154.89 161.56 C 155.42 162.14 156.33 162.17 156.91 161.63 Z M 157.65 160.94 L 158.37 160.23 C 158.93 159.67 158.94 158.77 158.38 158.21 C 157.83 157.64 156.92 157.64 156.36 158.19 L 155.64 158.91 C 155.07 159.47 155.07 160.37 155.63 160.93 C 156.18 161.50 157.09 161.50 157.65 160.94 Z M 158.39 160.21 L 159.12 159.46 C 159.67 158.90 159.66 157.99 159.10 157.44 C 158.54 156.89 157.63 156.90 157.08 157.46 L 156.35 158.21 C 155.79 158.78 155.80 159.68 156.37 160.23 C 156.93 160.78 157.84 160.77 158.39 160.21 Z M 159.12 159.46 L 159.22 159.36 C 159.77 158.79 159.75 157.89 159.19 157.34 C 158.63 156.79 157.72 156.80 157.17 157.37 L 157.08 157.47 C 156.53 158.03 156.54 158.93 157.11 159.48 C 157.67 160.03 158.57 160.02 159.12 159.46 Z"
      fill="black"
      fill-rule="nonzero" /><path d="M 149.43 153.32 L 150.37 153.24 C 151.20 153.17 151.81 152.45 151.74 151.62 C 151.67 150.80 150.94 150.18 150.12 150.25 L 149.17 150.33 C 148.35 150.41 147.74 151.13 147.81 151.96 C 147.88 152.78 148.60 153.39 149.43 153.32 Z M 150.41 153.25 L 151.45 153.13 C 152.28 153.04 152.88 152.30 152.79 151.47 C 152.69 150.64 151.95 150.04 151.12 150.13 L 150.08 150.25 C 149.25 150.34 148.66 151.08 148.75 151.91 C 148.84 152.74 149.58 153.34 150.41 153.25 Z M 151.49 153.13 L 152.50 152.99 C 153.32 152.88 153.90 152.12 153.79 151.29 C 153.67 150.47 152.91 149.89 152.09 150.00 L 151.08 150.14 C 150.26 150.25 149.68 151.01 149.79 151.84 C 149.91 152.66 150.67 153.24 151.49 153.13 Z M 152.51 152.98 L 153.50 152.83 C 154.32 152.71 154.89 151.95 154.77 151.13 C 154.65 150.31 153.89 149.74 153.07 149.86 L 152.08 150.01 C 151.26 150.13 150.69 150.89 150.81 151.71 C 150.93 152.53 151.69 153.10 152.51 152.98 Z M 153.50 152.83 L 154.53 152.68 C 155.35 152.56 155.92 151.81 155.80 150.99 C 155.68 150.17 154.93 149.61 154.11 149.72 L 153.07 149.87 C 152.26 149.99 151.69 150.74 151.81 151.56 C 151.92 152.38 152.68 152.94 153.50 152.83 Z M 154.53 152.67 L 155.44 152.54 C 156.25 152.43 156.82 151.68 156.70 150.87 C 156.59 150.05 155.84 149.49 155.03 149.60 L 154.11 149.73 C 153.30 149.84 152.74 150.60 152.85 151.41 C 152.96 152.22 153.72 152.79 154.53 152.67 Z M 155.45 152.54 L 156.27 152.42 C 157.08 152.30 157.64 151.54 157.52 150.74 C 157.40 149.93 156.65 149.37 155.84 149.49 L 155.02 149.61 C 154.21 149.73 153.65 150.48 153.77 151.29 C 153.89 152.10 154.64 152.66 155.45 152.54 Z M 156.26 152.41 L 157.43 152.25 C 158.24 152.14 158.80 151.40 158.69 150.59 C 158.58 149.78 157.84 149.21 157.03 149.33 L 155.85 149.49 C 155.05 149.60 154.48 150.35 154.59 151.15 C 154.71 151.96 155.45 152.53 156.26 152.41 Z M 157.42 152.25 L 158.36 152.13 C 159.16 152.03 159.73 151.29 159.63 150.48 C 159.53 149.67 158.79 149.10 157.98 149.21 L 157.04 149.33 C 156.23 149.43 155.66 150.17 155.77 150.98 C 155.87 151.79 156.61 152.36 157.42 152.25 Z M 158.35 152.13 L 159.39 152.00 C 160.20 151.90 160.77 151.17 160.67 150.36 C 160.57 149.55 159.84 148.98 159.03 149.08 L 157.99 149.21 C 157.18 149.31 156.60 150.04 156.70 150.85 C 156.80 151.66 157.54 152.23 158.35 152.13 Z M 159.39 152.00 L 160.41 151.88 C 161.22 151.78 161.80 151.05 161.70 150.24 C 161.60 149.43 160.87 148.86 160.06 148.95 L 159.03 149.08 C 158.23 149.18 157.65 149.91 157.75 150.72 C 157.84 151.52 158.58 152.10 159.39 152.00 Z M 160.41 151.88 L 161.49 151.75 C 162.30 151.66 162.88 150.93 162.78 150.12 C 162.69 149.31 161.96 148.73 161.15 148.83 L 160.07 148.95 C 159.26 149.05 158.68 149.78 158.77 150.59 C 158.87 151.39 159.60 151.97 160.41 151.88 Z M 161.48 151.75 L 162.50 151.64 C 163.30 151.56 163.89 150.83 163.80 150.02 C 163.71 149.21 162.99 148.63 162.18 148.72 L 161.16 148.82 C 160.36 148.91 159.77 149.64 159.86 150.45 C 159.95 151.26 160.67 151.84 161.48 151.75 Z M 162.47 151.65 L 163.37 151.57 C 164.18 151.49 164.78 150.77 164.70 149.96 C 164.63 149.15 163.91 148.55 163.10 148.63 L 162.20 148.71 C 161.39 148.78 160.79 149.50 160.87 150.32 C 160.94 151.13 161.66 151.72 162.47 151.65 Z M 163.19 151.59 L 164.24 151.62 C 165.06 151.64 165.75 150.99 165.77 150.16 C 165.79 149.34 165.14 148.65 164.32 148.63 L 163.27 148.60 C 162.45 148.58 161.76 149.23 161.74 150.06 C 161.72 150.88 162.37 151.57 163.19 151.59 Z M 162.76 149.96 L 162.70 150.54 C 162.61 151.38 163.22 152.13 164.05 152.22 C 164.89 152.31 165.64 151.70 165.73 150.86 L 165.79 150.29 C 165.88 149.45 165.27 148.70 164.44 148.61 C 163.60 148.52 162.85 149.13 162.76 149.96 Z M 162.90 149.87 L 162.30 150.83 C 161.84 151.56 162.06 152.52 162.78 152.97 C 163.51 153.43 164.46 153.21 164.92 152.49 L 165.53 151.53 C 165.98 150.80 165.77 149.84 165.04 149.39 C 164.32 148.93 163.36 149.15 162.90 149.87 Z M 162.20 150.97 L 161.78 151.83 C 161.40 152.61 161.72 153.55 162.50 153.93 C 163.28 154.31 164.21 153.99 164.59 153.21 L 165.01 152.35 C 165.39 151.57 165.07 150.64 164.30 150.26 C 163.52 149.88 162.58 150.20 162.20 150.97 Z M 161.73 151.93 L 161.32 152.93 C 161.00 153.74 161.39 154.65 162.19 154.98 C 163.00 155.31 163.92 154.92 164.24 154.11 L 164.65 153.11 C 164.97 152.31 164.58 151.39 163.78 151.06 C 162.97 150.74 162.05 151.13 161.73 151.93 Z M 161.29 152.99 L 160.95 153.97 C 160.65 154.79 161.09 155.70 161.91 155.99 C 162.73 156.28 163.64 155.85 163.93 155.03 L 164.27 154.05 C 164.56 153.23 164.13 152.32 163.31 152.03 C 162.49 151.74 161.58 152.17 161.29 152.99 Z M 160.93 154.01 L 160.61 154.98 C 160.35 155.82 160.81 156.71 161.64 156.98 C 162.47 157.25 163.37 156.79 163.63 155.96 L 163.95 154.98 C 164.22 154.15 163.76 153.26 162.92 152.99 C 162.09 152.72 161.19 153.18 160.93 154.01 Z M 160.60 155.02 L 160.32 155.98 C 160.07 156.82 160.56 157.71 161.40 157.95 C 162.24 158.20 163.13 157.71 163.37 156.87 L 163.65 155.92 C 163.90 155.07 163.41 154.19 162.57 153.94 C 161.73 153.70 160.84 154.18 160.60 155.02 Z M 160.30 156.03 L 160.04 157.03 C 159.82 157.89 160.33 158.76 161.19 158.98 C 162.04 159.20 162.91 158.68 163.13 157.83 L 163.39 156.82 C 163.61 155.97 163.10 155.10 162.24 154.88 C 161.39 154.66 160.52 155.17 160.30 156.03 Z M 160.04 157.05 L 159.81 157.95 C 159.60 158.80 160.13 159.67 160.98 159.88 C 161.84 160.09 162.70 159.57 162.91 158.71 L 163.13 157.82 C 163.35 156.96 162.82 156.10 161.97 155.88 C 161.11 155.67 160.25 156.19 160.04 157.05 Z M 159.81 157.94 L 159.57 158.91 C 159.35 159.76 159.87 160.63 160.73 160.85 C 161.58 161.06 162.45 160.54 162.67 159.69 L 162.91 158.72 C 163.13 157.87 162.61 157.00 161.75 156.78 C 160.90 156.57 160.03 157.08 159.81 157.94 Z M 159.55 158.97 L 159.37 159.86 C 159.18 160.73 159.74 161.58 160.60 161.76 C 161.46 161.94 162.31 161.39 162.50 160.52 L 162.69 159.63 C 162.87 158.76 162.32 157.91 161.45 157.73 C 160.59 157.55 159.74 158.10 159.55 158.97 Z M 159.35 159.93 L 159.18 160.99 C 159.03 161.86 159.62 162.68 160.49 162.83 C 161.37 162.97 162.19 162.38 162.34 161.51 L 162.51 160.45 C 162.65 159.58 162.06 158.76 161.19 158.61 C 160.32 158.47 159.50 159.06 159.35 159.93 Z M 159.17 161.02 L 159.04 161.94 C 158.91 162.81 159.51 163.62 160.39 163.75 C 161.27 163.88 162.08 163.27 162.21 162.40 L 162.34 161.48 C 162.47 160.60 161.86 159.79 160.99 159.66 C 160.11 159.54 159.30 160.14 159.17 161.02 Z M 159.04 161.96 L 158.90 162.98 C 158.79 163.86 159.41 164.66 160.28 164.78 C 161.16 164.89 161.96 164.27 162.07 163.40 L 162.21 162.37 C 162.32 161.50 161.70 160.70 160.83 160.58 C 159.95 160.47 159.15 161.08 159.04 161.96 Z M 158.90 163.02 L 158.79 164.06 C 158.69 164.94 159.32 165.73 160.20 165.82 C 161.08 165.92 161.87 165.29 161.96 164.41 L 162.08 163.36 C 162.17 162.49 161.54 161.70 160.66 161.60 C 159.78 161.51 159.00 162.14 158.90 163.02 Z M 158.79 164.10 L 158.71 165.11 C 158.63 165.98 159.28 166.75 160.16 166.82 C 161.03 166.90 161.80 166.25 161.88 165.37 L 161.96 164.37 C 162.03 163.49 161.38 162.72 160.51 162.65 C 159.63 162.58 158.86 163.23 158.79 164.10 Z M 158.71 165.15 L 158.66 166.14 C 158.61 167.01 159.27 167.76 160.14 167.81 C 161.01 167.86 161.76 167.19 161.81 166.32 L 161.87 165.33 C 161.92 164.46 161.25 163.71 160.38 163.66 C 159.51 163.61 158.76 164.28 158.71 165.15 Z M 158.67 166.18 L 158.63 167.21 C 158.61 168.08 159.29 168.80 160.15 168.83 C 161.02 168.85 161.74 168.18 161.77 167.31 L 161.80 166.28 C 161.83 165.42 161.15 164.69 160.28 164.67 C 159.42 164.64 158.70 165.32 158.67 166.18 Z M 158.65 167.27 L 158.66 168.30 C 158.66 169.15 159.36 169.84 160.21 169.83 C 161.07 169.83 161.76 169.13 161.75 168.28 L 161.75 167.25 C 161.74 166.40 161.05 165.71 160.19 165.71 C 159.34 165.72 158.65 166.41 158.65 167.27 Z M 158.68 168.39 L 158.75 169.33 C 158.81 170.17 159.54 170.80 160.38 170.75 C 161.22 170.69 161.85 169.96 161.79 169.12 L 161.73 168.18 C 161.67 167.34 160.94 166.71 160.10 166.77 C 159.26 166.82 158.63 167.55 158.68 168.39 Z M 158.77 169.50 L 158.96 170.53 C 159.11 171.36 159.90 171.91 160.73 171.76 C 161.56 171.61 162.11 170.81 161.96 169.98 L 161.77 168.95 C 161.62 168.12 160.83 167.57 160.00 167.72 C 159.17 167.87 158.62 168.67 158.77 169.50 Z M 158.97 170.67 L 159.22 171.58 C 159.45 172.40 160.30 172.89 161.12 172.66 C 161.95 172.43 162.43 171.58 162.20 170.75 L 161.95 169.84 C 161.72 169.02 160.87 168.53 160.05 168.76 C 159.22 168.99 158.74 169.84 158.97 170.67 Z"
      fill="black"
      fill-rule="nonzero" /></svg>