<svg xmlns="http://www.w3.org/2000/svg" width="300" height="300" viewBox="0 0 300 300">
<path d="M 160.85 110.47 L 161.14 109.55 C 161.38 108.78 160.95 107.97 160.19 107.73 C 159.42 107.49 158.60 107.91 158.36 108.68 L 158.07 109.60 C 157.83 110.37 158.26 111.18 159.02 111.43 C 159.79 111.67 160.61 111.24 160.85 110.47 Z M 161.14 109.61 L 161.50 108.60 C 161.77 107.83 161.37 106.99 160.60 106.72 C 159.83 106.45 158.99 106.85 158.72 107.61 L 158.36 108.62 C 158.09 109.39 158.49 110.23 159.26 110.50 C 160.02 110.78 160.87 110.38 161.14 109.61 Z M 161.53 108.66 L 161.95 107.58 C 162.26 106.79 161.87 105.91 161.08 105.60 C 160.29 105.30 159.41 105.69 159.10 106.47 L 158.68 107.55 C 158.38 108.34 158.77 109.22 159.55 109.53 C 160.34 109.84 161.22 109.45 161.53 108.66 Z M 161.89 106.22 L 161.81 106.08 C 161.37 105.33 160.40 105.08 159.64 105.52 C 158.89 105.97 158.64 106.94 159.08 107.69 L 159.16 107.83 C 159.61 108.58 160.58 108.83 161.33 108.39 C 162.09 107.94 162.34 106.97 161.89 106.22 Z M 159.14 105.96 L 158.47 106.90 C 157.96 107.62 158.12 108.62 158.84 109.13 C 159.56 109.64 160.56 109.48 161.08 108.76 L 161.75 107.82 C 162.26 107.10 162.10 106.10 161.38 105.59 C 160.66 105.07 159.66 105.24 159.14 105.96 Z M 158.48 106.89 L 157.91 107.68 C 157.39 108.39 157.55 109.39 158.26 109.91 C 158.97 110.43 159.97 110.27 160.49 109.56 L 161.07 108.77 C 161.58 108.05 161.43 107.06 160.71 106.54 C 160.00 106.02 159.00 106.17 158.48 106.89 Z M 157.92 107.67 L 157.28 108.53 C 156.76 109.23 156.90 110.23 157.61 110.75 C 158.31 111.28 159.31 111.13 159.83 110.43 L 160.48 109.57 C 161.00 108.86 160.85 107.87 160.15 107.34 C 159.45 106.82 158.45 106.96 157.92 107.67 Z M 157.30 108.53 L 156.67 109.35 C 156.15 110.05 156.29 111.04 156.98 111.57 C 157.68 112.09 158.67 111.95 159.20 111.26 L 159.82 110.43 C 160.35 109.73 160.21 108.74 159.51 108.22 C 158.81 107.69 157.82 107.83 157.30 108.53 Z M 156.68 109.36 L 156.09 110.15 C 155.57 110.84 155.70 111.82 156.39 112.34 C 157.08 112.87 158.07 112.73 158.59 112.04 L 159.19 111.25 C 159.71 110.56 159.57 109.58 158.88 109.05 C 158.19 108.53 157.21 108.67 156.68 109.36 Z M 156.10 110.16 L 155.46 111.01 C 154.95 111.69 155.09 112.66 155.78 113.18 C 156.46 113.69 157.43 113.55 157.95 112.87 L 158.58 112.02 C 159.09 111.34 158.95 110.36 158.27 109.85 C 157.58 109.34 156.61 109.48 156.10 110.16 Z M 155.49 111.02 L 154.93 111.76 C 154.43 112.43 154.56 113.39 155.23 113.89 C 155.91 114.40 156.86 114.26 157.37 113.59 L 157.92 112.85 C 158.43 112.18 158.30 111.23 157.62 110.72 C 156.95 110.21 155.99 110.35 155.49 111.02 Z M 154.96 111.75 L 154.36 112.54 C 153.85 113.19 153.97 114.14 154.62 114.65 C 155.28 115.15 156.22 115.04 156.73 114.38 L 157.34 113.60 C 157.85 112.94 157.73 112.00 157.07 111.49 C 156.42 110.98 155.47 111.10 154.96 111.75 Z M 154.36 112.55 L 153.75 113.35 C 153.25 114.00 153.37 114.93 154.02 115.43 C 154.67 115.93 155.61 115.81 156.11 115.16 L 156.72 114.36 C 157.22 113.71 157.10 112.78 156.45 112.28 C 155.80 111.78 154.87 111.90 154.36 112.55 Z M 153.75 113.38 L 153.15 114.18 C 152.67 114.83 152.81 115.76 153.46 116.24 C 154.11 116.72 155.03 116.59 155.51 115.93 L 156.11 115.13 C 156.59 114.48 156.46 113.56 155.81 113.07 C 155.15 112.59 154.23 112.73 153.75 113.38 Z M 153.15 114.21 L 152.58 115.01 C 152.11 115.67 152.26 116.57 152.91 117.04 C 153.56 117.51 154.47 117.36 154.94 116.71 L 155.51 115.91 C 155.98 115.25 155.83 114.35 155.18 113.88 C 154.53 113.41 153.62 113.56 153.15 114.21 Z M 152.58 115.03 L 152.00 115.86 C 151.54 116.51 151.70 117.41 152.35 117.87 C 153.00 118.32 153.90 118.17 154.35 117.52 L 154.93 116.69 C 155.39 116.04 155.24 115.14 154.58 114.68 C 153.93 114.23 153.04 114.38 152.58 115.03 Z M 152.00 115.87 L 151.42 116.70 C 150.97 117.35 151.14 118.25 151.79 118.70 C 152.44 119.15 153.33 118.98 153.78 118.33 L 154.35 117.50 C 154.80 116.85 154.64 115.96 153.99 115.51 C 153.34 115.06 152.45 115.22 152.00 115.87 Z M 151.41 116.73 L 150.86 117.58 C 150.42 118.24 150.61 119.12 151.26 119.55 C 151.92 119.99 152.81 119.80 153.24 119.14 L 153.80 118.30 C 154.23 117.64 154.05 116.76 153.39 116.32 C 152.73 115.89 151.84 116.07 151.41 116.73 Z M 150.83 117.61 L 150.31 118.46 C 149.90 119.13 150.11 120.01 150.79 120.42 C 151.46 120.83 152.33 120.62 152.75 119.95 L 153.26 119.11 C 153.68 118.43 153.47 117.56 152.79 117.14 C 152.12 116.73 151.24 116.94 150.83 117.61 Z M 150.31 118.47 L 150.19 118.67 C 149.79 119.34 150.01 120.22 150.68 120.62 C 151.36 121.03 152.23 120.81 152.64 120.13 L 152.75 119.94 C 153.16 119.26 152.94 118.39 152.26 117.98 C 151.59 117.58 150.71 117.80 150.31 118.47 Z"
      fill="black"
      fill-rule="nonzero" /><path d="M 138.75 130.92 L 138.18 131.72 C 137.68 132.42 137.85 133.39 138.54 133.89 C 139.24 134.39 140.21 134.22 140.71 133.53 L 141.28 132.73 C 141.78 132.03 141.61 131.06 140.92 130.56 C 140.22 130.06 139.25 130.22 138.75 130.92 Z M 138.08 131.88 L 137.60 132.76 C 137.19 133.52 137.47 134.46 138.22 134.87 C 138.97 135.28 139.92 135.00 140.33 134.25 L 140.81 133.37 C 141.22 132.62 140.94 131.67 140.19 131.26 C 139.44 130.85 138.49 131.13 138.08 131.88 Z M 137.49 133.00 L 137.19 133.88 C 136.91 134.69 137.34 135.58 138.15 135.86 C 138.96 136.14 139.85 135.71 140.13 134.90 L 140.43 134.02 C 140.71 133.21 140.28 132.32 139.47 132.04 C 138.66 131.76 137.78 132.19 137.49 133.00 Z M 137.15 134.03 L 136.90 135.04 C 136.70 135.88 137.22 136.72 138.05 136.92 C 138.89 137.12 139.73 136.60 139.93 135.77 L 140.17 134.75 C 140.37 133.92 139.86 133.08 139.02 132.88 C 138.19 132.68 137.35 133.19 137.15 134.03 Z M 136.89 135.10 L 136.69 136.12 C 136.52 136.96 137.07 137.78 137.91 137.95 C 138.75 138.11 139.57 137.57 139.74 136.72 L 139.94 135.71 C 140.11 134.87 139.56 134.05 138.72 133.88 C 137.87 133.71 137.06 134.26 136.89 135.10 Z M 136.68 136.14 L 136.50 137.15 C 136.34 138.00 136.91 138.81 137.75 138.96 C 138.60 139.11 139.41 138.55 139.56 137.71 L 139.74 136.70 C 139.90 135.85 139.34 135.04 138.49 134.89 C 137.64 134.74 136.83 135.30 136.68 136.14 Z M 136.49 137.17 L 136.33 138.14 C 136.19 138.99 136.76 139.79 137.61 139.93 C 138.46 140.08 139.26 139.50 139.40 138.66 L 139.56 137.69 C 139.71 136.84 139.13 136.04 138.29 135.90 C 137.44 135.75 136.64 136.32 136.49 137.17 Z M 136.33 138.16 L 136.17 139.19 C 136.04 140.04 136.62 140.84 137.47 140.97 C 138.32 141.10 139.11 140.52 139.24 139.67 L 139.40 138.64 C 139.53 137.79 138.95 136.99 138.10 136.86 C 137.25 136.73 136.46 137.31 136.33 138.16 Z M 136.17 139.22 L 136.04 140.15 C 135.92 141.00 136.51 141.78 137.36 141.90 C 138.21 142.02 139.00 141.43 139.12 140.58 L 139.25 139.65 C 139.37 138.80 138.77 138.01 137.92 137.89 C 137.07 137.77 136.29 138.37 136.17 139.22 Z M 136.04 140.16 L 135.91 141.12 C 135.79 141.97 136.39 142.76 137.24 142.87 C 138.09 142.98 138.87 142.39 138.99 141.54 L 139.12 140.57 C 139.23 139.72 138.63 138.94 137.78 138.82 C 136.93 138.71 136.15 139.31 136.04 140.16 Z M 135.91 141.12 L 135.77 142.13 C 135.66 142.98 136.25 143.77 137.10 143.88 C 137.95 144.00 138.73 143.40 138.85 142.55 L 138.99 141.54 C 139.10 140.69 138.51 139.91 137.66 139.79 C 136.81 139.68 136.02 140.27 135.91 141.12 Z M 135.77 142.12 L 135.64 143.10 C 135.51 143.95 136.11 144.73 136.95 144.85 C 137.80 144.97 138.59 144.38 138.71 143.53 L 138.85 142.56 C 138.97 141.71 138.38 140.93 137.53 140.81 C 136.68 140.69 135.89 141.28 135.77 142.12 Z M 135.63 143.11 L 135.50 144.11 C 135.38 144.96 135.98 145.74 136.83 145.86 C 137.68 145.97 138.46 145.37 138.58 144.52 L 138.71 143.52 C 138.83 142.67 138.23 141.89 137.38 141.78 C 136.53 141.66 135.75 142.26 135.63 143.11 Z M 135.49 144.14 L 135.38 145.13 C 135.29 145.98 135.90 146.75 136.75 146.85 C 137.61 146.94 138.38 146.33 138.47 145.48 L 138.58 144.49 C 138.68 143.64 138.06 142.87 137.21 142.77 C 136.36 142.68 135.59 143.29 135.49 144.14 Z M 135.38 145.16 L 135.29 146.15 C 135.21 147.01 135.84 147.77 136.70 147.84 C 137.55 147.92 138.31 147.29 138.39 146.44 L 138.48 145.44 C 138.55 144.59 137.92 143.83 137.07 143.75 C 136.21 143.68 135.46 144.31 135.38 145.16 Z M 135.29 146.17 L 135.21 147.19 C 135.14 148.04 135.78 148.79 136.63 148.86 C 137.49 148.93 138.24 148.29 138.31 147.43 L 138.39 146.42 C 138.46 145.56 137.82 144.81 136.96 144.74 C 136.10 144.68 135.35 145.32 135.29 146.17 Z M 135.20 147.20 L 135.13 148.20 C 135.07 149.06 135.72 149.80 136.58 149.86 C 137.43 149.93 138.18 149.28 138.24 148.42 L 138.31 147.42 C 138.37 146.56 137.72 145.82 136.87 145.76 C 136.01 145.70 135.26 146.34 135.20 147.20 Z M 135.13 148.22 L 135.07 149.23 C 135.03 150.09 135.68 150.82 136.54 150.87 C 137.40 150.92 138.14 150.26 138.19 149.40 L 138.24 148.40 C 138.29 147.54 137.63 146.80 136.77 146.76 C 135.91 146.71 135.18 147.37 135.13 148.22 Z M 135.07 149.26 L 135.04 150.28 C 135.01 151.14 135.69 151.86 136.55 151.89 C 137.41 151.91 138.13 151.24 138.16 150.38 L 138.19 149.36 C 138.22 148.50 137.54 147.78 136.68 147.75 C 135.82 147.73 135.10 148.40 135.07 149.26 Z M 135.04 150.31 L 135.03 151.31 C 135.02 152.17 135.71 152.88 136.57 152.89 C 137.43 152.89 138.14 152.20 138.15 151.34 L 138.16 150.34 C 138.17 149.48 137.48 148.78 136.61 148.77 C 135.75 148.76 135.05 149.45 135.04 150.31 Z M 135.03 151.32 L 135.03 152.31 C 135.02 153.18 135.72 153.88 136.59 153.88 C 137.45 153.88 138.15 153.18 138.15 152.32 L 138.15 151.33 C 138.15 150.46 137.45 149.76 136.59 149.76 C 135.73 149.76 135.03 150.46 135.03 151.32 Z M 135.02 152.32 L 135.02 153.33 C 135.02 154.19 135.72 154.89 136.59 154.89 C 137.45 154.89 138.15 154.19 138.15 153.33 L 138.15 152.32 C 138.15 151.45 137.45 150.75 136.59 150.75 C 135.72 150.75 135.02 151.45 135.02 152.32 Z M 135.02 153.33 L 135.02 154.31 C 135.02 155.17 135.72 155.87 136.59 155.87 C 137.45 155.87 138.15 155.17 138.15 154.31 L 138.15 153.33 C 138.15 152.46 137.45 151.76 136.59 151.76 C 135.72 151.76 135.02 152.46 135.02 153.33 Z M 135.02 154.31 L 135.02 155.34 C 135.02 156.20 135.72 156.90 136.59 156.90 C 137.45 156.90 138.15 156.20 138.15 155.34 L 138.15 154.31 C 138.15 153.45 137.45 152.75 136.59 152.75 C 135.72 152.75 135.02 153.45 135.02 154.31 Z M 135.02 155.34 L 135.02 156.31 C 135.02 157.18 135.72 157.88 136.59 157.88 C 137.45 157.88 138.15 157.18 138.15 156.31 L 138.15 155.34 C 138.15 154.47 137.45 153.77 136.59 153.77 C 135.72 153.77 135.02 154.47 135.02 155.34 Z M 135.03 156.32 L 135.03 157.34 C 135.03 158.20 135.73 158.90 136.60 158.90 C 137.46 158.90 138.16 158.19 138.15 157.33 L 138.15 156.31 C 138.15 155.45 137.44 154.75 136.58 154.75 C 135.72 154.75 135.02 155.46 135.03 156.32 Z M 135.03 157.39 L 135.06 158.36 C 135.09 159.22 135.81 159.90 136.67 159.87 C 137.53 159.84 138.21 159.12 138.18 158.26 L 138.15 157.29 C 138.12 156.43 137.40 155.75 136.54 155.78 C 135.68 155.80 135.00 156.52 135.03 157.39 Z M 135.07 158.45 L 135.16 159.46 C 135.24 160.31 136.00 160.95 136.86 160.87 C 137.71 160.79 138.35 160.03 138.27 159.17 L 138.18 158.17 C 138.10 157.31 137.34 156.68 136.48 156.76 C 135.62 156.83 134.99 157.59 135.07 158.45 Z M 135.17 159.57 L 135.34 160.54 C 135.48 161.39 136.28 161.96 137.13 161.82 C 137.98 161.68 138.56 160.87 138.41 160.02 L 138.25 159.06 C 138.11 158.21 137.31 157.63 136.46 157.77 C 135.61 157.92 135.03 158.72 135.17 159.57 Z M 135.37 160.70 L 135.64 161.66 C 135.86 162.49 136.72 162.97 137.55 162.75 C 138.38 162.52 138.87 161.66 138.64 160.83 L 138.38 159.87 C 138.15 159.04 137.29 158.55 136.46 158.78 C 135.63 159.01 135.14 159.87 135.37 160.70 Z M 135.72 161.88 L 136.13 162.80 C 136.48 163.59 137.40 163.94 138.19 163.59 C 138.97 163.24 139.32 162.32 138.97 161.53 L 138.56 160.61 C 138.21 159.82 137.29 159.47 136.50 159.82 C 135.72 160.17 135.37 161.09 135.72 161.88 Z M 136.25 163.02 L 136.80 163.86 C 137.27 164.58 138.24 164.78 138.96 164.30 C 139.68 163.83 139.87 162.87 139.40 162.15 L 138.85 161.31 C 138.38 160.59 137.42 160.39 136.70 160.87 C 135.98 161.34 135.78 162.30 136.25 163.02 Z M 136.99 164.09 L 137.69 164.80 C 138.29 165.42 139.27 165.43 139.89 164.83 C 140.50 164.23 140.51 163.24 139.91 162.63 L 139.21 161.92 C 138.61 161.30 137.63 161.29 137.01 161.89 C 136.40 162.49 136.39 163.48 136.99 164.09 Z M 137.93 165.01 L 138.74 165.55 C 139.45 166.03 140.42 165.84 140.90 165.13 C 141.38 164.42 141.19 163.45 140.48 162.97 L 139.67 162.43 C 138.96 161.95 137.99 162.14 137.51 162.85 C 137.03 163.56 137.22 164.53 137.93 165.01 Z M 138.98 165.68 L 139.84 166.06 C 140.63 166.41 141.54 166.05 141.89 165.26 C 142.23 164.48 141.88 163.56 141.09 163.22 L 140.23 162.84 C 139.45 162.49 138.53 162.85 138.18 163.64 C 137.84 164.42 138.20 165.34 138.98 165.68 Z M 140.15 166.16 L 141.20 166.37 C 142.04 166.55 142.86 166.01 143.03 165.17 C 143.21 164.33 142.66 163.50 141.82 163.33 L 140.78 163.12 C 139.94 162.94 139.12 163.48 138.94 164.32 C 138.77 165.17 139.31 165.99 140.15 166.16 Z M 141.45 166.40 L 142.47 166.44 C 143.32 166.48 144.04 165.81 144.08 164.96 C 144.11 164.10 143.45 163.38 142.59 163.34 L 141.57 163.30 C 140.72 163.27 140.00 163.93 139.96 164.79 C 139.93 165.65 140.59 166.37 141.45 166.40 Z M 142.66 166.43 L 143.67 166.35 C 144.52 166.28 145.15 165.53 145.08 164.68 C 145.00 163.83 144.26 163.20 143.41 163.27 L 142.40 163.35 C 141.55 163.43 140.92 164.17 140.99 165.02 C 141.06 165.88 141.81 166.51 142.66 166.43 Z M 143.95 166.29 L 144.95 166.01 C 145.77 165.78 146.25 164.93 146.02 164.11 C 145.79 163.30 144.94 162.82 144.12 163.05 L 143.12 163.33 C 142.30 163.55 141.82 164.40 142.05 165.22 C 142.28 166.04 143.13 166.52 143.95 166.29 Z M 145.31 165.85 L 146.13 165.38 C 146.86 164.95 147.11 164.00 146.68 163.27 C 146.25 162.54 145.31 162.30 144.57 162.73 L 143.76 163.20 C 143.03 163.63 142.78 164.58 143.21 165.31 C 143.64 166.04 144.58 166.28 145.31 165.85 Z M 146.33 165.23 L 147.07 164.62 C 147.72 164.08 147.81 163.11 147.27 162.46 C 146.72 161.81 145.76 161.72 145.11 162.26 L 144.37 162.87 C 143.72 163.41 143.63 164.38 144.17 165.03 C 144.71 165.68 145.68 165.77 146.33 165.23 Z M 147.18 164.52 L 147.90 163.79 C 148.50 163.19 148.49 162.22 147.89 161.62 C 147.29 161.02 146.32 161.03 145.72 161.63 L 145.00 162.36 C 144.40 162.96 144.41 163.93 145.01 164.53 C 145.61 165.12 146.58 165.12 147.18 164.52 Z M 147.97 163.71 L 148.57 163.02 C 149.12 162.38 149.05 161.41 148.41 160.86 C 147.77 160.31 146.80 160.38 146.25 161.02 L 145.65 161.71 C 145.10 162.35 145.17 163.31 145.81 163.87 C 146.45 164.42 147.42 164.35 147.97 163.71 Z M 148.62 162.96 L 149.25 162.15 C 149.76 161.48 149.64 160.51 148.97 160.00 C 148.30 159.48 147.34 159.60 146.82 160.27 L 146.19 161.08 C 145.68 161.75 145.80 162.71 146.47 163.23 C 147.14 163.75 148.10 163.63 148.62 162.96 Z M 149.29 162.09 L 149.89 161.23 C 150.38 160.54 150.22 159.58 149.52 159.09 C 148.83 158.60 147.87 158.77 147.38 159.46 L 146.78 160.33 C 146.29 161.02 146.46 161.98 147.15 162.46 C 147.84 162.95 148.80 162.79 149.29 162.09 Z M 149.92 161.20 L 150.49 160.34 C 150.96 159.63 150.77 158.67 150.06 158.20 C 149.35 157.74 148.39 157.93 147.92 158.64 L 147.36 159.50 C 146.89 160.21 147.08 161.16 147.79 161.63 C 148.50 162.10 149.45 161.91 149.92 161.20 Z M 150.52 160.31 L 151.06 159.46 C 151.51 158.73 151.30 157.78 150.57 157.32 C 149.85 156.87 148.90 157.08 148.44 157.80 L 147.90 158.66 C 147.44 159.39 147.66 160.34 148.38 160.80 C 149.10 161.25 150.06 161.04 150.52 160.31 Z M 151.08 159.42 L 151.62 158.51 C 152.06 157.78 151.82 156.83 151.08 156.39 C 150.35 155.95 149.39 156.19 148.96 156.93 L 148.42 157.84 C 147.98 158.57 148.22 159.53 148.96 159.96 C 149.69 160.40 150.64 160.16 151.08 159.42 Z M 151.65 158.46 L 152.13 157.57 C 152.53 156.82 152.25 155.88 151.50 155.48 C 150.75 155.07 149.81 155.35 149.40 156.10 L 148.93 156.99 C 148.52 157.74 148.80 158.68 149.55 159.08 C 150.31 159.49 151.25 159.21 151.65 158.46 Z M 152.16 157.50 L 152.55 156.66 C 152.92 155.89 152.59 154.97 151.82 154.61 C 151.05 154.25 150.13 154.57 149.77 155.34 L 149.37 156.18 C 149.01 156.95 149.34 157.87 150.11 158.23 C 150.88 158.60 151.79 158.27 152.16 157.50 Z M 152.57 156.60 L 152.96 155.67 C 153.29 154.89 152.92 153.99 152.14 153.66 C 151.36 153.34 150.46 153.70 150.13 154.48 L 149.75 155.41 C 149.42 156.19 149.79 157.09 150.57 157.42 C 151.35 157.75 152.25 157.38 152.57 156.60 Z M 152.97 155.64 L 153.33 154.72 C 153.64 153.94 153.25 153.05 152.47 152.74 C 151.69 152.43 150.80 152.82 150.49 153.60 L 150.13 154.52 C 149.82 155.30 150.21 156.19 150.99 156.50 C 151.77 156.81 152.66 156.42 152.97 155.64 Z M 153.34 154.68 L 153.68 153.74 C 153.96 152.95 153.55 152.08 152.76 151.79 C 151.97 151.51 151.10 151.92 150.81 152.71 L 150.48 153.65 C 150.19 154.44 150.60 155.31 151.40 155.59 C 152.19 155.88 153.06 155.47 153.34 154.68 Z M 153.74 153.63 L 154.06 152.47 C 154.28 151.65 153.79 150.80 152.97 150.57 C 152.14 150.35 151.29 150.83 151.07 151.66 L 150.75 152.82 C 150.53 153.64 151.01 154.49 151.84 154.72 C 152.67 154.94 153.52 154.46 153.74 153.63 Z M 151.02 151.68 L 150.95 151.97 C 150.74 152.82 151.26 153.68 152.11 153.89 C 152.96 154.11 153.82 153.59 154.03 152.74 L 154.10 152.45 C 154.31 151.60 153.80 150.74 152.95 150.53 C 152.09 150.32 151.23 150.83 151.02 151.68 Z M 150.89 152.35 L 150.89 153.56 C 150.89 154.44 151.61 155.16 152.49 155.16 C 153.37 155.16 154.09 154.44 154.09 153.56 L 154.09 152.36 C 154.09 151.47 153.37 150.76 152.49 150.76 C 151.61 150.76 150.89 151.47 150.89 152.35 Z M 150.95 153.99 L 151.23 154.96 C 151.46 155.81 152.34 156.31 153.19 156.07 C 154.04 155.83 154.53 154.95 154.30 154.11 L 154.03 153.13 C 153.79 152.29 152.91 151.79 152.06 152.03 C 151.21 152.26 150.72 153.14 150.95 153.99 Z M 151.33 155.23 L 151.77 156.13 C 152.15 156.92 153.10 157.25 153.89 156.87 C 154.68 156.48 155.01 155.53 154.63 154.74 L 154.19 153.84 C 153.81 153.05 152.86 152.72 152.07 153.11 C 151.28 153.49 150.95 154.44 151.33 155.23 Z M 151.92 156.36 L 152.49 157.16 C 153.00 157.87 153.99 158.03 154.70 157.52 C 155.41 157.00 155.57 156.01 155.06 155.30 L 154.48 154.51 C 153.97 153.80 152.98 153.64 152.27 154.15 C 151.56 154.67 151.40 155.66 151.92 156.36 Z M 152.62 157.31 L 153.28 158.02 C 153.88 158.65 154.87 158.69 155.51 158.10 C 156.15 157.50 156.18 156.51 155.59 155.87 L 154.93 155.16 C 154.34 154.52 153.34 154.49 152.70 155.08 C 152.06 155.67 152.03 156.67 152.62 157.31 Z M 153.41 158.13 L 154.17 158.80 C 154.83 159.37 155.82 159.30 156.39 158.64 C 156.96 157.99 156.89 157.00 156.24 156.43 L 155.47 155.76 C 154.81 155.19 153.82 155.26 153.25 155.91 C 152.68 156.57 152.75 157.56 153.41 158.13 Z M 154.31 158.90 L 155.12 159.47 C 155.83 159.96 156.81 159.79 157.30 159.08 C 157.80 158.37 157.62 157.39 156.91 156.89 L 156.10 156.33 C 155.39 155.83 154.41 156.01 153.92 156.72 C 153.43 157.43 153.60 158.40 154.31 158.90 Z M 155.28 159.56 L 156.15 160.03 C 156.92 160.43 157.87 160.14 158.27 159.38 C 158.68 158.62 158.39 157.67 157.63 157.26 L 156.75 156.80 C 155.99 156.39 155.04 156.68 154.64 157.44 C 154.23 158.21 154.52 159.16 155.28 159.56 Z M 156.34 160.11 L 157.22 160.43 C 158.03 160.73 158.93 160.32 159.23 159.52 C 159.53 158.71 159.12 157.81 158.31 157.51 L 157.44 157.18 C 156.63 156.88 155.73 157.29 155.43 158.10 C 155.13 158.90 155.54 159.80 156.34 160.11 Z M 157.41 160.48 L 158.47 160.73 C 159.30 160.93 160.14 160.42 160.34 159.58 C 160.54 158.75 160.02 157.91 159.19 157.71 L 158.13 157.46 C 157.29 157.26 156.45 157.78 156.26 158.61 C 156.06 159.45 156.57 160.28 157.41 160.48 Z M 158.60 160.76 L 159.56 160.90 C 160.41 161.03 161.20 160.45 161.33 159.60 C 161.45 158.75 160.87 157.97 160.03 157.84 L 159.06 157.69 C 158.21 157.56 157.42 158.15 157.30 158.99 C 157.17 159.84 157.75 160.63 158.60 160.76 Z M 159.64 160.91 L 160.67 161.01 C 161.52 161.09 162.28 160.47 162.36 159.62 C 162.45 158.77 161.82 158.01 160.97 157.93 L 159.95 157.83 C 159.10 157.75 158.34 158.37 158.25 159.22 C 158.17 160.07 158.79 160.83 159.64 160.91 Z M 160.75 161.01 L 161.73 161.06 C 162.59 161.11 163.31 160.45 163.36 159.60 C 163.40 158.74 162.74 158.02 161.89 157.98 L 160.90 157.93 C 160.05 157.88 159.32 158.54 159.28 159.39 C 159.24 160.25 159.89 160.97 160.75 161.01 Z M 161.85 161.07 L 162.92 161.04 C 163.77 161.02 164.45 160.31 164.43 159.46 C 164.41 158.60 163.70 157.93 162.85 157.95 L 161.77 157.97 C 160.92 157.99 160.25 158.70 160.27 159.56 C 160.29 160.41 160.99 161.09 161.85 161.07 Z M 163.14 161.02 L 164.08 160.86 C 164.92 160.72 165.49 159.92 165.35 159.08 C 165.21 158.23 164.41 157.67 163.56 157.81 L 162.63 157.97 C 161.78 158.11 161.21 158.91 161.36 159.75 C 161.50 160.59 162.30 161.16 163.14 161.02 Z M 164.36 160.79 L 165.24 160.46 C 166.04 160.17 166.45 159.27 166.16 158.47 C 165.86 157.67 164.96 157.26 164.16 157.56 L 163.28 157.88 C 162.48 158.18 162.07 159.07 162.37 159.88 C 162.67 160.68 163.56 161.09 164.36 160.79 Z M 165.47 160.36 L 166.33 159.87 C 167.08 159.44 167.33 158.49 166.91 157.75 C 166.48 157.00 165.53 156.74 164.79 157.17 L 163.93 157.66 C 163.19 158.09 162.93 159.03 163.35 159.78 C 163.78 160.53 164.73 160.78 165.47 160.36 Z M 166.48 159.77 L 167.32 159.15 C 168.01 158.64 168.16 157.67 167.65 156.98 C 167.14 156.29 166.17 156.14 165.47 156.65 L 164.64 157.27 C 163.94 157.78 163.80 158.75 164.31 159.44 C 164.82 160.13 165.79 160.28 166.48 159.77 Z M 167.42 159.08 L 168.17 158.42 C 168.82 157.86 168.89 156.87 168.32 156.22 C 167.75 155.57 166.77 155.51 166.12 156.07 L 165.37 156.73 C 164.72 157.29 164.66 158.28 165.22 158.93 C 165.79 159.57 166.77 159.64 167.42 159.08 Z M 168.25 158.35 L 168.96 157.63 C 169.57 157.02 169.57 156.03 168.96 155.42 C 168.34 154.82 167.36 154.82 166.75 155.43 L 166.04 156.15 C 165.43 156.76 165.43 157.75 166.05 158.36 C 166.66 158.96 167.65 158.96 168.25 158.35 Z M 169.04 157.55 L 169.70 156.78 C 170.26 156.12 170.19 155.13 169.53 154.57 C 168.88 154.01 167.89 154.09 167.33 154.75 L 166.67 155.52 C 166.11 156.17 166.19 157.16 166.84 157.72 C 167.50 158.28 168.48 158.20 169.04 157.55 Z M 169.78 156.68 L 170.38 155.86 C 170.88 155.16 170.73 154.19 170.03 153.68 C 169.33 153.17 168.36 153.32 167.85 154.02 L 167.25 154.84 C 166.74 155.54 166.90 156.52 167.60 157.02 C 168.29 157.53 169.27 157.38 169.78 156.68 Z M 170.44 155.77 L 170.96 154.94 C 171.41 154.20 171.19 153.24 170.46 152.78 C 169.72 152.33 168.76 152.55 168.30 153.28 L 167.79 154.11 C 167.33 154.85 167.55 155.81 168.29 156.27 C 169.02 156.72 169.98 156.50 170.44 155.77 Z M 171.01 154.85 L 171.48 153.97 C 171.89 153.21 171.60 152.26 170.84 151.85 C 170.07 151.44 169.13 151.73 168.72 152.49 L 168.25 153.37 C 167.84 154.13 168.13 155.08 168.89 155.49 C 169.66 155.90 170.60 155.61 171.01 154.85 Z M 171.53 153.88 L 171.94 152.97 C 172.30 152.18 171.95 151.25 171.16 150.89 C 170.36 150.53 169.43 150.89 169.07 151.68 L 168.67 152.58 C 168.31 153.38 168.66 154.31 169.45 154.67 C 170.24 155.02 171.18 154.67 171.53 153.88 Z M 171.99 152.88 L 172.34 151.95 C 172.65 151.13 172.24 150.22 171.42 149.91 C 170.60 149.60 169.69 150.01 169.38 150.83 L 169.03 151.77 C 168.72 152.58 169.13 153.50 169.95 153.80 C 170.77 154.11 171.68 153.70 171.99 152.88 Z M 172.38 151.86 L 172.67 150.90 C 172.94 150.07 172.47 149.18 171.63 148.92 C 170.80 148.66 169.91 149.12 169.65 149.96 L 169.35 150.92 C 169.09 151.76 169.55 152.64 170.39 152.90 C 171.23 153.16 172.12 152.70 172.38 151.86 Z M 172.71 150.80 L 172.94 149.83 C 173.15 148.98 172.62 148.12 171.77 147.91 C 170.91 147.71 170.06 148.23 169.85 149.09 L 169.62 150.06 C 169.41 150.91 169.93 151.77 170.79 151.98 C 171.64 152.18 172.50 151.66 172.71 150.80 Z M 172.97 149.72 L 173.12 148.79 C 173.26 147.92 172.67 147.10 171.80 146.96 C 170.94 146.82 170.12 147.40 169.98 148.27 L 169.82 149.20 C 169.68 150.07 170.27 150.89 171.14 151.03 C 172.01 151.17 172.82 150.58 172.97 149.72 Z M 173.13 148.67 L 173.22 147.70 C 173.30 146.83 172.66 146.05 171.78 145.97 C 170.91 145.89 170.13 146.54 170.05 147.41 L 169.96 148.38 C 169.88 149.26 170.53 150.03 171.40 150.11 C 172.28 150.19 173.05 149.55 173.13 148.67 Z M 173.23 147.62 L 173.27 146.55 C 173.31 145.67 172.63 144.93 171.75 144.89 C 170.87 144.85 170.13 145.54 170.09 146.41 L 170.04 147.49 C 170.01 148.37 170.69 149.11 171.57 149.15 C 172.45 149.19 173.19 148.50 173.23 147.62 Z M 173.27 146.51 L 173.29 145.48 C 173.31 144.60 172.61 143.87 171.73 143.86 C 170.85 143.84 170.12 144.54 170.11 145.42 L 170.09 146.45 C 170.07 147.33 170.77 148.06 171.65 148.08 C 172.53 148.09 173.26 147.39 173.27 146.51 Z M 173.29 145.46 L 173.30 144.42 C 173.31 143.54 172.60 142.82 171.72 142.81 C 170.84 142.81 170.12 143.52 170.11 144.40 L 170.11 145.44 C 170.10 146.32 170.81 147.04 171.69 147.04 C 172.57 147.05 173.29 146.34 173.29 145.46 Z M 173.30 144.41 L 173.30 143.47 C 173.31 142.59 172.59 141.88 171.71 141.88 C 170.83 141.87 170.11 142.59 170.11 143.47 L 170.11 144.41 C 170.11 145.29 170.82 146.00 171.71 146.00 C 172.59 146.00 173.30 145.29 173.30 144.41 Z M 173.30 143.46 L 173.30 142.37 C 173.29 141.49 172.57 140.78 171.69 140.79 C 170.81 140.79 170.10 141.51 170.11 142.39 L 170.11 143.48 C 170.12 144.36 170.84 145.07 171.72 145.07 C 172.60 145.06 173.31 144.34 173.30 143.46 Z M 173.30 142.29 L 173.24 141.39 C 173.20 140.51 172.44 139.83 171.56 139.88 C 170.68 139.93 170.01 140.68 170.06 141.56 L 170.11 142.47 C 170.16 143.35 170.91 144.02 171.79 143.97 C 172.67 143.93 173.34 143.17 173.30 142.29 Z M 173.23 141.27 L 173.11 140.32 C 173.00 139.45 172.20 138.83 171.33 138.94 C 170.45 139.06 169.84 139.85 169.95 140.73 L 170.07 141.68 C 170.18 142.55 170.98 143.17 171.85 143.06 C 172.73 142.95 173.35 142.15 173.23 141.27 Z M 173.10 140.25 L 172.92 139.23 C 172.76 138.36 171.94 137.79 171.07 137.94 C 170.20 138.10 169.62 138.93 169.78 139.79 L 169.96 140.81 C 170.12 141.67 170.94 142.25 171.81 142.10 C 172.68 141.94 173.26 141.11 173.10 140.25 Z M 172.90 139.16 L 172.69 138.19 C 172.49 137.33 171.64 136.79 170.78 136.98 C 169.92 137.17 169.38 138.02 169.58 138.88 L 169.79 139.86 C 169.99 140.72 170.84 141.26 171.70 141.07 C 172.56 140.87 173.10 140.02 172.90 139.16 Z M 172.67 138.11 L 172.40 137.16 C 172.17 136.31 171.30 135.81 170.45 136.04 C 169.60 136.28 169.10 137.15 169.33 138.00 L 169.60 138.96 C 169.83 139.80 170.70 140.30 171.55 140.07 C 172.40 139.84 172.90 138.96 172.67 138.11 Z M 172.38 137.09 L 172.07 136.12 C 171.80 135.28 170.90 134.83 170.07 135.10 C 169.23 135.37 168.77 136.26 169.04 137.10 L 169.36 138.07 C 169.63 138.90 170.52 139.36 171.36 139.09 C 172.19 138.82 172.65 137.92 172.38 137.09 Z M 172.03 136.02 L 171.65 135.07 C 171.33 134.26 170.40 133.86 169.59 134.19 C 168.78 134.51 168.38 135.44 168.70 136.25 L 169.08 137.20 C 169.41 138.01 170.33 138.41 171.14 138.08 C 171.96 137.76 172.35 136.83 172.03 136.02 Z M 171.55 134.88 L 171.06 134.02 C 170.63 133.26 169.67 132.99 168.91 133.42 C 168.15 133.85 167.88 134.82 168.31 135.58 L 168.80 136.44 C 169.23 137.20 170.20 137.47 170.96 137.04 C 171.72 136.61 171.98 135.64 171.55 134.88 Z M 170.87 133.76 L 170.21 133.01 C 169.64 132.35 168.65 132.29 167.99 132.86 C 167.34 133.43 167.27 134.42 167.84 135.08 L 168.50 135.83 C 169.07 136.49 170.07 136.56 170.72 135.98 C 171.38 135.41 171.44 134.42 170.87 133.76 Z M 170.09 132.90 L 169.62 132.46 C 168.98 131.87 168.00 131.91 167.41 132.54 C 166.82 133.18 166.86 134.17 167.49 134.75 L 167.97 135.19 C 168.60 135.78 169.59 135.74 170.17 135.11 C 170.76 134.47 170.72 133.48 170.09 132.90 Z"
      fill="black"
      fill-rule="nonzero" /><path d="M 149.53 139.69 L 149.58 140.66 C 149.63 141.52 150.37 142.18 151.23 142.14 C 152.09 142.09 152.75 141.35 152.70 140.49 L 152.65 139.52 C 152.60 138.65 151.86 137.99 151.00 138.04 C 150.14 138.09 149.48 138.83 149.53 139.69 Z M 149.57 140.64 L 149.62 141.65 C 149.65 142.52 150.39 143.19 151.25 143.15 C 152.12 143.12 152.79 142.38 152.75 141.52 L 152.71 140.51 C 152.67 139.64 151.94 138.97 151.08 139.01 C 150.21 139.04 149.54 139.77 149.57 140.64 Z M 149.61 141.62 L 149.63 142.65 C 149.65 143.52 150.37 144.21 151.24 144.19 C 152.11 144.17 152.80 143.46 152.78 142.59 L 152.76 141.55 C 152.74 140.68 152.02 139.99 151.15 140.01 C 150.28 140.03 149.59 140.75 149.61 141.62 Z M 149.63 142.63 L 149.64 143.65 C 149.65 144.52 150.35 145.22 151.22 145.21 C 152.09 145.21 152.79 144.50 152.79 143.63 L 152.78 142.61 C 152.77 141.74 152.07 141.04 151.20 141.05 C 150.33 141.05 149.63 141.76 149.63 142.63 Z M 149.64 143.64 L 149.64 144.65 C 149.64 145.52 150.35 146.22 151.21 146.22 C 152.08 146.22 152.79 145.52 152.79 144.65 L 152.79 143.64 C 152.79 142.77 152.08 142.07 151.21 142.07 C 150.34 142.07 149.64 142.77 149.64 143.64 Z M 149.64 144.64 L 149.64 145.63 C 149.63 146.50 150.33 147.21 151.20 147.21 C 152.07 147.21 152.78 146.51 152.78 145.64 L 152.79 144.66 C 152.79 143.79 152.09 143.08 151.22 143.07 C 150.35 143.07 149.64 143.77 149.64 144.64 Z M 149.64 145.60 L 149.61 146.55 C 149.60 147.42 150.28 148.14 151.15 148.16 C 152.02 148.18 152.74 147.49 152.76 146.62 L 152.78 145.67 C 152.80 144.80 152.11 144.08 151.24 144.06 C 150.37 144.04 149.65 144.73 149.64 145.60 Z M 149.62 146.51 L 149.56 147.51 C 149.52 148.38 150.18 149.12 151.05 149.17 C 151.92 149.21 152.66 148.55 152.71 147.68 L 152.76 146.67 C 152.81 145.80 152.14 145.06 151.27 145.02 C 150.40 144.97 149.66 145.64 149.62 146.51 Z M 149.57 147.45 L 149.48 148.45 C 149.40 149.31 150.04 150.08 150.90 150.16 C 151.77 150.24 152.53 149.60 152.61 148.73 L 152.70 147.74 C 152.78 146.87 152.14 146.11 151.28 146.03 C 150.41 145.95 149.65 146.59 149.57 147.45 Z M 149.48 148.42 L 149.37 149.39 C 149.28 150.25 149.90 151.03 150.76 151.12 C 151.63 151.22 152.41 150.60 152.50 149.73 L 152.61 148.76 C 152.71 147.90 152.08 147.12 151.22 147.03 C 150.36 146.93 149.58 147.55 149.48 148.42 Z M 149.37 149.38 L 149.28 150.25 C 149.18 151.11 149.80 151.89 150.66 151.99 C 151.53 152.08 152.31 151.46 152.40 150.60 L 152.50 149.74 C 152.60 148.87 151.98 148.09 151.11 148.00 C 150.25 147.90 149.47 148.52 149.37 149.38 Z M 149.27 150.26 L 149.15 151.41 C 149.07 152.27 149.69 153.05 150.56 153.14 C 151.43 153.23 152.20 152.60 152.29 151.73 L 152.41 150.58 C 152.50 149.72 151.87 148.95 151.00 148.86 C 150.14 148.77 149.36 149.40 149.27 150.26 Z M 149.15 151.42 L 149.06 152.35 C 148.98 153.22 149.61 153.99 150.48 154.07 C 151.35 154.16 152.12 153.52 152.20 152.66 L 152.29 151.72 C 152.37 150.86 151.74 150.09 150.87 150.00 C 150.01 149.92 149.24 150.55 149.15 151.42 Z M 149.06 152.35 L 148.96 153.39 C 148.88 154.25 149.52 155.02 150.38 155.10 C 151.25 155.19 152.02 154.55 152.10 153.69 L 152.20 152.65 C 152.28 151.79 151.65 151.02 150.78 150.94 C 149.92 150.85 149.15 151.49 149.06 152.35 Z M 148.97 153.38 L 148.86 154.42 C 148.78 155.28 149.41 156.05 150.27 156.14 C 151.14 156.23 151.91 155.59 152.00 154.73 L 152.10 153.69 C 152.19 152.83 151.55 152.05 150.69 151.97 C 149.82 151.88 149.05 152.51 148.97 153.38 Z M 148.86 154.40 L 148.73 155.65 C 148.63 156.51 149.25 157.29 150.12 157.38 C 150.98 157.48 151.76 156.86 151.86 155.99 L 151.99 154.75 C 152.09 153.88 151.47 153.10 150.60 153.01 C 149.74 152.91 148.96 153.54 148.86 154.40 Z M 148.74 155.59 L 148.58 156.63 C 148.46 157.49 149.05 158.29 149.91 158.42 C 150.77 158.54 151.57 157.95 151.70 157.09 L 151.85 156.05 C 151.97 155.19 151.38 154.39 150.52 154.26 C 149.66 154.14 148.86 154.73 148.74 155.59 Z M 151.40 155.93 L 151.33 155.84 C 150.82 155.15 149.84 155.00 149.15 155.51 C 148.45 156.02 148.30 157.00 148.81 157.69 L 148.88 157.78 C 149.39 158.48 150.37 158.63 151.07 158.12 C 151.76 157.61 151.91 156.63 151.40 155.93 Z M 151.60 156.79 L 151.62 155.66 C 151.63 154.81 150.95 154.12 150.11 154.11 C 149.26 154.10 148.56 154.77 148.55 155.62 L 148.54 156.75 C 148.53 157.59 149.21 158.29 150.05 158.30 C 150.90 158.31 151.59 157.63 151.60 156.79 Z M 151.59 155.68 L 151.61 155.16 C 151.63 154.33 150.97 153.64 150.14 153.62 C 149.31 153.59 148.62 154.25 148.59 155.08 L 148.58 155.60 C 148.56 156.43 149.21 157.12 150.05 157.15 C 150.88 157.17 151.57 156.51 151.59 155.68 Z"
      fill="black"
      fill-rule="nonzero" /></svg>