<svg xmlns="http://www.w3.org/2000/svg" width="300" height="300" viewBox="0 0 300 300">
<path d="M 127.86 138.86 L 128.76 139.08 C 129.55 139.28 130.36 138.80 130.55 138.00 C 130.75 137.21 130.27 136.41 129.47 136.21 L 128.57 135.99 C 127.78 135.79 126.98 136.27 126.78 137.07 C 126.58 137.86 127.07 138.66 127.86 138.86 Z M 128.92 139.17 L 129.98 139.30 C 130.82 139.41 131.59 138.82 131.70 137.98 C 131.80 137.14 131.21 136.37 130.37 136.26 L 129.31 136.13 C 128.47 136.02 127.70 136.61 127.60 137.45 C 127.49 138.29 128.08 139.06 128.92 139.17 Z M 130.17 139.34 L 131.16 139.35 C 132.02 139.35 132.72 138.65 132.73 137.79 C 132.73 136.93 132.03 136.23 131.17 136.23 L 130.18 136.22 C 129.32 136.22 128.62 136.92 128.62 137.78 C 128.61 138.64 129.31 139.34 130.17 139.34 Z M 131.26 139.34 L 132.29 139.27 C 133.15 139.22 133.80 138.48 133.75 137.62 C 133.69 136.77 132.95 136.12 132.10 136.17 L 131.07 136.24 C 130.21 136.29 129.56 137.03 129.62 137.88 C 129.67 138.74 130.41 139.39 131.26 139.34 Z M 132.37 139.26 L 133.40 139.15 C 134.25 139.05 134.86 138.28 134.77 137.43 C 134.67 136.58 133.90 135.97 133.05 136.07 L 132.02 136.18 C 131.17 136.28 130.56 137.05 130.65 137.90 C 130.75 138.75 131.52 139.36 132.37 139.26 Z M 133.47 139.13 L 134.44 138.97 C 135.28 138.84 135.85 138.04 135.72 137.20 C 135.58 136.36 134.79 135.79 133.95 135.92 L 132.98 136.08 C 132.14 136.22 131.57 137.01 131.70 137.85 C 131.84 138.69 132.63 139.27 133.47 139.13 Z M 134.47 138.96 L 135.40 138.79 C 136.24 138.64 136.79 137.84 136.64 137.00 C 136.49 136.16 135.68 135.61 134.85 135.76 L 133.92 135.94 C 133.08 136.09 132.53 136.89 132.68 137.73 C 132.83 138.56 133.64 139.12 134.47 138.96 Z M 135.41 138.78 L 136.40 138.60 C 137.23 138.44 137.78 137.64 137.62 136.81 C 137.46 135.98 136.66 135.43 135.83 135.59 L 134.84 135.77 C 134.01 135.93 133.46 136.73 133.62 137.56 C 133.78 138.39 134.58 138.94 135.41 138.78 Z M 136.42 138.59 L 137.40 138.39 C 138.23 138.22 138.76 137.41 138.59 136.58 C 138.42 135.76 137.61 135.22 136.79 135.39 L 135.80 135.60 C 134.98 135.77 134.45 136.57 134.62 137.40 C 134.79 138.23 135.59 138.76 136.42 138.59 Z M 137.42 138.37 L 138.40 138.16 C 139.22 137.97 139.74 137.16 139.56 136.34 C 139.37 135.52 138.56 135.01 137.74 135.19 L 136.76 135.41 C 135.94 135.59 135.43 136.40 135.61 137.22 C 135.79 138.04 136.60 138.56 137.42 138.37 Z M 138.41 138.15 L 139.38 137.93 C 140.19 137.74 140.70 136.93 140.52 136.12 C 140.33 135.30 139.52 134.79 138.71 134.98 L 137.74 135.20 C 136.92 135.38 136.41 136.19 136.60 137.01 C 136.78 137.82 137.59 138.33 138.41 138.15 Z M 139.37 137.92 L 140.35 137.70 C 141.16 137.52 141.67 136.71 141.48 135.90 C 141.30 135.09 140.50 134.58 139.68 134.76 L 138.71 134.98 C 137.90 135.17 137.39 135.97 137.57 136.78 C 137.76 137.59 138.56 138.10 139.37 137.92 Z M 140.34 137.70 L 141.33 137.48 C 142.14 137.30 142.65 136.50 142.47 135.69 C 142.30 134.89 141.50 134.37 140.69 134.55 L 139.70 134.77 C 138.89 134.95 138.38 135.74 138.55 136.55 C 138.73 137.36 139.53 137.87 140.34 137.70 Z M 141.33 137.47 L 142.32 137.26 C 143.12 137.08 143.63 136.29 143.46 135.49 C 143.28 134.68 142.49 134.17 141.69 134.35 L 140.70 134.56 C 139.89 134.73 139.38 135.52 139.56 136.33 C 139.73 137.13 140.52 137.64 141.33 137.47 Z M 142.33 137.24 L 143.30 137.02 C 144.10 136.84 144.60 136.05 144.42 135.26 C 144.24 134.46 143.45 133.96 142.65 134.14 L 141.68 134.36 C 140.88 134.54 140.38 135.33 140.56 136.13 C 140.74 136.92 141.53 137.42 142.33 137.24 Z M 143.33 137.01 L 144.30 136.77 C 145.09 136.58 145.58 135.78 145.38 134.99 C 145.19 134.20 144.39 133.72 143.61 133.91 L 142.63 134.15 C 141.84 134.35 141.36 135.14 141.55 135.93 C 141.74 136.72 142.54 137.20 143.33 137.01 Z M 144.32 136.76 L 145.24 136.52 C 146.02 136.31 146.49 135.52 146.28 134.73 C 146.08 133.95 145.28 133.49 144.50 133.69 L 143.59 133.93 C 142.81 134.13 142.34 134.93 142.54 135.71 C 142.75 136.49 143.54 136.96 144.32 136.76 Z M 145.24 136.51 L 146.17 136.26 C 146.95 136.05 147.41 135.26 147.20 134.48 C 147.00 133.70 146.20 133.24 145.42 133.45 L 144.49 133.70 C 143.72 133.91 143.26 134.70 143.46 135.48 C 143.67 136.25 144.47 136.72 145.24 136.51 Z M 146.17 136.26 L 147.18 135.99 C 147.95 135.79 148.41 135.00 148.21 134.22 C 148.01 133.45 147.21 132.99 146.44 133.19 L 145.43 133.45 C 144.66 133.66 144.20 134.45 144.40 135.22 C 144.60 136.00 145.39 136.46 146.17 136.26 Z M 147.17 135.99 L 148.15 135.74 C 148.92 135.54 149.38 134.75 149.18 133.98 C 148.99 133.21 148.20 132.74 147.43 132.94 L 146.45 133.19 C 145.68 133.39 145.21 134.18 145.41 134.95 C 145.61 135.72 146.40 136.19 147.17 135.99 Z M 148.15 135.73 L 149.13 135.48 C 149.90 135.28 150.37 134.49 150.17 133.72 C 149.97 132.95 149.18 132.49 148.41 132.69 L 147.43 132.94 C 146.66 133.14 146.19 133.93 146.39 134.70 C 146.59 135.47 147.38 135.93 148.15 135.73 Z M 149.14 135.47 L 150.16 135.20 C 150.92 135.00 151.38 134.22 151.18 133.45 C 150.97 132.68 150.19 132.23 149.42 132.43 L 148.41 132.70 C 147.64 132.90 147.18 133.68 147.39 134.45 C 147.59 135.22 148.37 135.67 149.14 135.47 Z M 150.16 135.20 L 151.10 134.94 C 151.86 134.74 152.31 133.95 152.11 133.19 C 151.90 132.43 151.11 131.97 150.35 132.18 L 149.41 132.43 C 148.65 132.64 148.20 133.43 148.41 134.19 C 148.61 134.95 149.40 135.40 150.16 135.20 Z M 151.10 134.94 L 151.46 134.84 C 152.22 134.63 152.67 133.85 152.46 133.09 C 152.26 132.33 151.47 131.88 150.71 132.09 L 150.35 132.19 C 149.59 132.39 149.14 133.18 149.35 133.94 C 149.56 134.70 150.34 135.15 151.10 134.94 Z"
      fill="black"
      fill-rule="nonzero" /><path d="M 142.05 133.10 L 141.11 133.36 C 140.32 133.58 139.86 134.39 140.07 135.18 C 140.29 135.97 141.11 136.43 141.89 136.21 L 142.84 135.95 C 143.62 135.73 144.09 134.92 143.87 134.13 C 143.65 133.34 142.84 132.88 142.05 133.10 Z M 140.04 134.43 L 139.85 135.21 C 139.66 136.01 140.15 136.83 140.96 137.02 C 141.76 137.22 142.58 136.72 142.77 135.92 L 142.96 135.14 C 143.16 134.33 142.66 133.52 141.85 133.33 C 141.05 133.13 140.24 133.62 140.04 134.43 Z M 139.83 135.85 L 140.02 136.85 C 140.18 137.67 140.97 138.21 141.79 138.05 C 142.62 137.89 143.15 137.09 142.99 136.27 L 142.80 135.27 C 142.64 134.45 141.84 133.92 141.02 134.08 C 140.20 134.24 139.67 135.03 139.83 135.85 Z M 140.03 136.95 L 140.32 138.06 C 140.53 138.87 141.37 139.36 142.18 139.14 C 142.99 138.93 143.48 138.10 143.27 137.29 L 142.98 136.18 C 142.77 135.37 141.94 134.88 141.12 135.09 C 140.31 135.30 139.82 136.13 140.03 136.95 Z M 140.31 138.02 L 140.55 139.05 C 140.74 139.87 141.57 140.38 142.39 140.19 C 143.21 140.00 143.72 139.18 143.52 138.36 L 143.28 137.32 C 143.09 136.50 142.27 135.99 141.45 136.19 C 140.63 136.38 140.12 137.20 140.31 138.02 Z M 140.54 139.01 L 140.73 139.94 C 140.89 140.76 141.70 141.30 142.53 141.13 C 143.35 140.97 143.89 140.16 143.72 139.33 L 143.54 138.40 C 143.37 137.58 142.56 137.04 141.74 137.21 C 140.91 137.37 140.37 138.18 140.54 139.01 Z M 140.72 139.88 L 140.88 140.90 C 141.02 141.73 141.81 142.30 142.64 142.16 C 143.47 142.02 144.04 141.24 143.90 140.40 L 143.73 139.39 C 143.60 138.55 142.81 137.99 141.98 138.13 C 141.14 138.26 140.58 139.05 140.72 139.88 Z M 140.87 140.84 L 140.99 141.76 C 141.09 142.60 141.85 143.20 142.69 143.10 C 143.53 143.00 144.13 142.23 144.02 141.39 L 143.91 140.47 C 143.81 139.63 143.05 139.03 142.21 139.13 C 141.37 139.23 140.77 140.00 140.87 140.84 Z M 140.98 141.72 L 141.07 142.71 C 141.15 143.55 141.89 144.17 142.73 144.10 C 143.58 144.02 144.20 143.28 144.12 142.43 L 144.03 141.44 C 143.95 140.60 143.21 139.98 142.37 140.05 C 141.53 140.13 140.90 140.88 140.98 141.72 Z M 141.07 142.67 L 141.13 143.67 C 141.19 144.51 141.91 145.15 142.76 145.10 C 143.60 145.04 144.24 144.31 144.19 143.47 L 144.12 142.47 C 144.07 141.63 143.34 140.99 142.50 141.04 C 141.65 141.10 141.01 141.83 141.07 142.67 Z M 141.13 143.64 L 141.18 144.64 C 141.22 145.49 141.94 146.14 142.78 146.10 C 143.63 146.06 144.28 145.34 144.24 144.50 L 144.19 143.49 C 144.15 142.65 143.43 141.99 142.59 142.04 C 141.74 142.08 141.09 142.79 141.13 143.64 Z M 141.17 144.63 L 141.21 145.64 C 141.25 146.48 141.96 147.14 142.81 147.11 C 143.65 147.08 144.31 146.36 144.28 145.51 L 144.24 144.51 C 144.21 143.66 143.49 143.00 142.65 143.04 C 141.80 143.07 141.14 143.78 141.17 144.63 Z M 141.21 145.61 L 141.24 146.61 C 141.26 147.46 141.96 148.13 142.81 148.11 C 143.66 148.09 144.33 147.38 144.31 146.53 L 144.28 145.54 C 144.26 144.69 143.56 144.02 142.71 144.04 C 141.86 144.06 141.19 144.77 141.21 145.61 Z M 141.24 146.58 L 141.24 147.59 C 141.25 148.43 141.94 149.12 142.79 149.11 C 143.64 149.10 144.32 148.41 144.32 147.56 L 144.31 146.56 C 144.30 145.71 143.61 145.03 142.76 145.04 C 141.91 145.04 141.23 145.74 141.24 146.58 Z M 141.24 147.57 L 141.24 148.57 C 141.24 149.41 141.93 150.10 142.78 150.10 C 143.63 150.10 144.31 149.42 144.31 148.57 L 144.32 147.58 C 144.32 146.73 143.63 146.04 142.78 146.04 C 141.93 146.04 141.25 146.72 141.24 147.57 Z M 141.24 148.54 L 141.22 149.54 C 141.21 150.39 141.88 151.09 142.73 151.11 C 143.57 151.12 144.28 150.45 144.29 149.60 L 144.31 148.60 C 144.33 147.75 143.66 147.05 142.81 147.03 C 141.96 147.01 141.26 147.69 141.24 148.54 Z M 141.23 149.46 L 141.16 150.38 C 141.09 151.23 141.73 151.97 142.57 152.03 C 143.42 152.09 144.15 151.46 144.22 150.62 L 144.29 149.69 C 144.35 148.84 143.72 148.10 142.87 148.04 C 142.03 147.98 141.29 148.61 141.23 149.46 Z M 141.18 150.25 L 141.00 151.28 C 140.86 152.12 141.42 152.91 142.26 153.05 C 143.09 153.19 143.88 152.63 144.03 151.79 L 144.20 150.76 C 144.34 149.92 143.78 149.13 142.94 148.99 C 142.11 148.85 141.32 149.41 141.18 150.25 Z M 141.03 151.16 L 140.79 152.10 C 140.58 152.92 141.07 153.76 141.89 153.97 C 142.71 154.18 143.55 153.68 143.76 152.86 L 144.00 151.92 C 144.21 151.10 143.71 150.26 142.89 150.05 C 142.07 149.84 141.24 150.34 141.03 151.16 Z M 140.82 151.99 L 140.49 152.97 C 140.22 153.77 140.65 154.64 141.45 154.91 C 142.25 155.18 143.12 154.75 143.39 153.95 L 143.72 152.97 C 143.99 152.17 143.56 151.30 142.76 151.03 C 141.96 150.76 141.09 151.19 140.82 151.99 Z M 140.55 152.83 L 140.12 153.78 C 139.77 154.55 140.12 155.46 140.89 155.81 C 141.66 156.15 142.56 155.81 142.91 155.04 L 143.34 154.09 C 143.68 153.32 143.34 152.41 142.57 152.07 C 141.80 151.72 140.89 152.06 140.55 152.83 Z M 140.20 153.63 L 139.69 154.48 C 139.26 155.21 139.50 156.14 140.22 156.57 C 140.95 157.01 141.88 156.77 142.32 156.05 L 142.82 155.19 C 143.26 154.47 143.02 153.53 142.30 153.10 C 141.57 152.67 140.63 152.91 140.20 153.63 Z M 139.80 154.33 L 139.19 155.12 C 138.67 155.79 138.79 156.74 139.46 157.26 C 140.12 157.77 141.08 157.65 141.59 156.99 L 142.21 156.20 C 142.72 155.53 142.60 154.58 141.94 154.06 C 141.27 153.55 140.32 153.67 139.80 154.33 Z M 139.34 154.95 L 138.61 155.65 C 138.01 156.23 137.98 157.19 138.56 157.80 C 139.14 158.41 140.10 158.43 140.71 157.85 L 141.44 157.16 C 142.05 156.58 142.07 155.62 141.49 155.01 C 140.91 154.40 139.95 154.37 139.34 154.95 Z M 138.88 155.45 L 138.04 155.96 C 137.32 156.39 137.09 157.33 137.52 158.05 C 137.96 158.76 138.89 158.99 139.61 158.56 L 140.45 158.05 C 141.17 157.61 141.40 156.68 140.96 155.96 C 140.53 155.24 139.59 155.01 138.88 155.45 Z M 138.38 155.80 L 137.45 156.09 C 136.64 156.33 136.19 157.18 136.43 157.98 C 136.67 158.78 137.52 159.24 138.32 158.99 L 139.26 158.71 C 140.07 158.47 140.52 157.62 140.28 156.82 C 140.03 156.01 139.19 155.56 138.38 155.80 Z M 137.72 156.03 L 136.76 156.14 C 135.93 156.23 135.33 156.97 135.42 157.81 C 135.51 158.64 136.25 159.24 137.09 159.15 L 138.05 159.05 C 138.88 158.96 139.48 158.21 139.39 157.38 C 139.30 156.55 138.56 155.94 137.72 156.03 Z M 137.03 156.13 L 136.01 156.06 C 135.17 156.00 134.44 156.63 134.38 157.46 C 134.32 158.30 134.95 159.02 135.79 159.08 L 136.82 159.16 C 137.65 159.22 138.38 158.59 138.44 157.75 C 138.50 156.92 137.87 156.19 137.03 156.13 Z M 136.33 156.12 L 135.36 155.82 C 134.56 155.58 133.71 156.04 133.47 156.84 C 133.23 157.64 133.68 158.49 134.48 158.73 L 135.46 159.02 C 136.26 159.26 137.11 158.81 137.35 158.01 C 137.59 157.21 137.13 156.36 136.33 156.12 Z M 136.02 156.24 L 135.38 155.55 C 134.81 154.94 133.85 154.91 133.24 155.49 C 132.63 156.06 132.60 157.02 133.17 157.63 L 133.82 158.31 C 134.39 158.92 135.35 158.95 135.96 158.38 C 136.57 157.81 136.60 156.85 136.02 156.24 Z M 135.79 156.60 L 135.79 155.62 C 135.80 154.79 135.13 154.11 134.29 154.10 C 133.46 154.09 132.78 154.77 132.77 155.60 L 132.76 156.58 C 132.76 157.41 133.43 158.10 134.26 158.10 C 135.10 158.11 135.78 157.44 135.79 156.60 Z M 135.50 156.51 L 136.07 155.74 C 136.56 155.07 136.42 154.12 135.75 153.63 C 135.08 153.13 134.14 153.27 133.64 153.94 L 133.07 154.71 C 132.57 155.38 132.71 156.33 133.38 156.83 C 134.05 157.32 135.00 157.18 135.50 156.51 Z M 135.72 156.08 L 136.56 155.48 C 137.25 155.00 137.41 154.06 136.93 153.38 C 136.45 152.69 135.50 152.53 134.82 153.01 L 133.98 153.61 C 133.30 154.09 133.14 155.03 133.62 155.71 C 134.10 156.39 135.04 156.56 135.72 156.08 Z M 136.35 155.61 L 137.25 155.18 C 138.00 154.82 138.32 153.91 137.95 153.16 C 137.59 152.41 136.69 152.09 135.93 152.45 L 135.04 152.88 C 134.28 153.25 133.97 154.15 134.33 154.90 C 134.69 155.66 135.60 155.97 136.35 155.61 Z M 137.06 155.26 L 138.01 154.95 C 138.80 154.69 139.24 153.83 138.98 153.04 C 138.72 152.24 137.86 151.81 137.06 152.07 L 136.12 152.38 C 135.32 152.64 134.89 153.49 135.15 154.29 C 135.41 155.08 136.27 155.52 137.06 155.26 Z M 137.84 154.99 L 138.83 154.79 C 139.65 154.62 140.17 153.81 140.00 152.99 C 139.83 152.18 139.03 151.65 138.21 151.82 L 137.23 152.02 C 136.41 152.19 135.88 153.00 136.05 153.82 C 136.22 154.64 137.02 155.16 137.84 154.99 Z M 138.68 154.81 L 139.67 154.71 C 140.50 154.62 141.10 153.87 141.01 153.04 C 140.92 152.20 140.18 151.60 139.34 151.69 L 138.36 151.80 C 137.52 151.88 136.92 152.63 137.01 153.46 C 137.10 154.30 137.85 154.90 138.68 154.81 Z M 139.57 154.71 L 140.57 154.67 C 141.41 154.64 142.06 153.93 142.03 153.10 C 141.99 152.26 141.29 151.61 140.45 151.64 L 139.44 151.68 C 138.61 151.72 137.96 152.42 137.99 153.26 C 138.02 154.10 138.73 154.75 139.57 154.71 Z M 140.53 154.67 L 141.54 154.66 C 142.38 154.65 143.05 153.97 143.04 153.13 C 143.03 152.29 142.34 151.62 141.51 151.63 L 140.50 151.64 C 139.66 151.65 138.99 152.33 138.99 153.17 C 139.00 154.01 139.69 154.68 140.53 154.67 Z M 141.50 154.66 L 142.49 154.68 C 143.33 154.69 144.02 154.03 144.03 153.19 C 144.05 152.35 143.38 151.66 142.54 151.65 L 141.55 151.63 C 140.71 151.62 140.02 152.28 140.01 153.12 C 139.99 153.96 140.66 154.65 141.50 154.66 Z M 142.41 154.68 L 143.42 154.75 C 144.25 154.81 144.98 154.17 145.04 153.34 C 145.10 152.50 144.47 151.78 143.63 151.72 L 142.62 151.65 C 141.78 151.59 141.06 152.22 141.00 153.06 C 140.94 153.89 141.57 154.62 142.41 154.68 Z M 143.21 154.72 L 144.16 154.92 C 144.98 155.10 145.79 154.58 145.97 153.76 C 146.14 152.94 145.62 152.13 144.80 151.95 L 143.84 151.75 C 143.02 151.57 142.21 152.09 142.04 152.91 C 141.86 153.74 142.38 154.54 143.21 154.72 Z M 143.90 154.84 L 144.82 155.23 C 145.59 155.55 146.48 155.18 146.81 154.40 C 147.13 153.63 146.76 152.74 145.98 152.42 L 145.07 152.03 C 144.29 151.71 143.40 152.08 143.08 152.85 C 142.75 153.63 143.12 154.52 143.90 154.84 Z M 144.64 155.14 L 145.53 155.65 C 146.26 156.07 147.19 155.82 147.61 155.09 C 148.03 154.36 147.78 153.43 147.05 153.01 L 146.16 152.50 C 145.43 152.08 144.50 152.33 144.08 153.06 C 143.66 153.79 143.91 154.72 144.64 155.14 Z M 145.39 155.57 L 146.21 156.15 C 146.89 156.65 147.84 156.49 148.34 155.81 C 148.83 155.13 148.68 154.17 147.99 153.68 L 147.18 153.09 C 146.50 152.60 145.54 152.75 145.05 153.43 C 144.56 154.12 144.71 155.07 145.39 155.57 Z M 146.03 156.01 L 146.73 156.69 C 147.34 157.28 148.30 157.27 148.89 156.67 C 149.48 156.06 149.47 155.10 148.87 154.51 L 148.17 153.82 C 147.57 153.23 146.60 153.24 146.01 153.85 C 145.42 154.45 145.43 155.42 146.03 156.01 Z M 146.54 156.47 L 147.11 157.29 C 147.59 157.99 148.55 158.16 149.24 157.68 C 149.94 157.20 150.11 156.25 149.63 155.55 L 149.06 154.73 C 148.58 154.03 147.62 153.86 146.93 154.34 C 146.23 154.82 146.06 155.78 146.54 156.47 Z M 146.99 157.09 L 147.40 157.94 C 147.77 158.70 148.68 159.02 149.45 158.66 C 150.21 158.29 150.53 157.37 150.16 156.61 L 149.75 155.76 C 149.38 154.99 148.47 154.67 147.70 155.04 C 146.94 155.41 146.62 156.32 146.99 157.09 Z M 147.30 157.70 L 147.59 158.71 C 147.82 159.52 148.67 160.00 149.49 159.76 C 150.31 159.53 150.78 158.68 150.55 157.86 L 150.26 156.85 C 150.03 156.04 149.17 155.56 148.36 155.80 C 147.54 156.03 147.07 156.88 147.30 157.70 Z M 147.54 158.45 L 147.64 159.44 C 147.73 160.28 148.49 160.90 149.34 160.81 C 150.18 160.72 150.80 159.96 150.71 159.11 L 150.60 158.12 C 150.51 157.28 149.75 156.66 148.91 156.75 C 148.06 156.84 147.45 157.60 147.54 158.45 Z M 147.63 159.22 L 147.60 160.23 C 147.57 161.08 148.23 161.79 149.08 161.82 C 149.93 161.85 150.65 161.19 150.68 160.34 L 150.71 159.33 C 150.74 158.48 150.08 157.77 149.23 157.74 C 148.38 157.70 147.67 158.37 147.63 159.22 Z M 147.62 159.99 L 147.43 160.98 C 147.27 161.82 147.82 162.63 148.66 162.79 C 149.49 162.95 150.30 162.40 150.46 161.56 L 150.65 160.57 C 150.81 159.74 150.26 158.93 149.43 158.77 C 148.59 158.61 147.78 159.16 147.62 159.99 Z M 147.49 160.78 L 147.17 161.72 C 146.90 162.53 147.34 163.40 148.14 163.67 C 148.95 163.94 149.82 163.50 150.09 162.70 L 150.41 161.76 C 150.68 160.96 150.24 160.08 149.44 159.81 C 148.63 159.54 147.76 159.98 147.49 160.78 Z M 147.21 161.62 L 146.83 162.53 C 146.51 163.32 146.88 164.22 147.66 164.54 C 148.45 164.87 149.35 164.50 149.67 163.71 L 150.05 162.80 C 150.38 162.02 150.01 161.12 149.22 160.79 C 148.44 160.46 147.54 160.83 147.21 161.62 Z M 146.85 162.48 L 146.43 163.39 C 146.08 164.17 146.42 165.08 147.19 165.43 C 147.96 165.79 148.88 165.45 149.23 164.68 L 149.65 163.77 C 150.01 162.99 149.67 162.08 148.90 161.72 C 148.12 161.37 147.21 161.71 146.85 162.48 Z M 146.45 163.36 L 146.00 164.27 C 145.63 165.03 145.94 165.95 146.71 166.33 C 147.47 166.70 148.39 166.39 148.77 165.63 L 149.22 164.72 C 149.59 163.95 149.28 163.03 148.51 162.65 C 147.75 162.28 146.83 162.59 146.45 163.36 Z M 146.02 164.24 L 145.56 165.13 C 145.16 165.88 145.46 166.81 146.21 167.20 C 146.97 167.60 147.90 167.30 148.29 166.55 L 148.75 165.66 C 149.14 164.90 148.85 163.97 148.10 163.58 C 147.34 163.19 146.41 163.48 146.02 164.24 Z M 145.58 165.09 L 145.09 165.96 C 144.68 166.71 144.95 167.64 145.69 168.06 C 146.44 168.47 147.37 168.20 147.79 167.46 L 148.27 166.58 C 148.68 165.84 148.41 164.90 147.67 164.49 C 146.93 164.08 145.99 164.35 145.58 165.09 Z M 145.13 165.90 L 144.61 166.74 C 144.16 167.47 144.38 168.42 145.10 168.87 C 145.83 169.31 146.78 169.09 147.22 168.37 L 147.75 167.52 C 148.20 166.80 147.97 165.85 147.25 165.40 C 146.53 164.95 145.58 165.17 145.13 165.90 Z M 144.68 166.64 L 143.99 167.57 C 143.48 168.25 143.62 169.21 144.30 169.72 C 144.99 170.23 145.95 170.09 146.46 169.41 L 147.15 168.48 C 147.66 167.79 147.52 166.83 146.83 166.32 C 146.15 165.81 145.19 165.95 144.68 166.64 Z M 143.86 167.77 L 143.53 168.39 C 143.14 169.15 143.43 170.08 144.18 170.47 C 144.93 170.87 145.87 170.58 146.26 169.83 L 146.59 169.20 C 146.98 168.45 146.69 167.52 145.94 167.12 C 145.19 166.72 144.25 167.01 143.86 167.77 Z M 145.26 170.61 L 146.15 170.39 C 146.98 170.19 147.49 169.36 147.29 168.53 C 147.09 167.70 146.25 167.19 145.42 167.39 L 144.53 167.61 C 143.70 167.81 143.20 168.64 143.40 169.47 C 143.60 170.30 144.43 170.81 145.26 170.61 Z M 146.22 170.38 L 147.19 170.09 C 148.01 169.85 148.48 169.00 148.24 168.18 C 148.00 167.36 147.14 166.89 146.32 167.13 L 145.35 167.41 C 144.53 167.65 144.06 168.51 144.30 169.33 C 144.54 170.15 145.40 170.62 146.22 170.38 Z M 147.06 170.13 L 148.03 169.94 C 148.87 169.77 149.41 168.95 149.24 168.11 C 149.07 167.27 148.26 166.73 147.42 166.90 L 146.45 167.09 C 145.61 167.26 145.07 168.08 145.24 168.92 C 145.41 169.76 146.22 170.30 147.06 170.13 Z M 147.95 169.95 L 149.03 169.79 C 149.88 169.66 150.47 168.87 150.34 168.02 C 150.21 167.18 149.42 166.59 148.57 166.72 L 147.49 166.88 C 146.65 167.01 146.06 167.80 146.19 168.64 C 146.31 169.49 147.10 170.08 147.95 169.95 Z M 149.00 169.80 L 150.03 169.67 C 150.88 169.56 151.48 168.78 151.37 167.93 C 151.27 167.08 150.49 166.47 149.64 166.58 L 148.61 166.71 C 147.76 166.82 147.15 167.60 147.26 168.45 C 147.37 169.30 148.15 169.90 149.00 169.80 Z M 150.01 169.67 L 151.04 169.55 C 151.89 169.46 152.50 168.69 152.41 167.83 C 152.31 166.98 151.54 166.37 150.69 166.46 L 149.66 166.58 C 148.80 166.68 148.19 167.45 148.29 168.30 C 148.38 169.15 149.15 169.77 150.01 169.67 Z M 151.02 169.56 L 152.03 169.46 C 152.88 169.37 153.51 168.61 153.42 167.75 C 153.34 166.90 152.58 166.28 151.72 166.36 L 150.71 166.46 C 149.86 166.54 149.23 167.31 149.32 168.16 C 149.40 169.02 150.16 169.64 151.02 169.56 Z M 151.99 169.46 L 153.04 169.38 C 153.90 169.31 154.54 168.57 154.47 167.71 C 154.41 166.85 153.66 166.21 152.80 166.28 L 151.75 166.36 C 150.90 166.42 150.26 167.17 150.32 168.03 C 150.39 168.88 151.14 169.53 151.99 169.46 Z M 153.02 169.38 L 153.89 169.33 C 154.74 169.28 155.40 168.54 155.34 167.68 C 155.29 166.82 154.55 166.17 153.69 166.22 L 152.83 166.27 C 151.97 166.33 151.31 167.06 151.37 167.92 C 151.42 168.78 152.16 169.43 153.02 169.38 Z M 153.91 169.33 L 154.90 169.26 C 155.76 169.19 156.41 168.44 156.34 167.58 C 156.28 166.73 155.53 166.08 154.67 166.15 L 153.67 166.22 C 152.82 166.28 152.17 167.03 152.24 167.89 C 152.30 168.75 153.05 169.39 153.91 169.33 Z M 154.94 169.25 L 155.93 169.16 C 156.78 169.08 157.41 168.32 157.33 167.46 C 157.25 166.60 156.49 165.97 155.63 166.05 L 154.64 166.15 C 153.78 166.23 153.15 166.99 153.23 167.85 C 153.31 168.71 154.08 169.34 154.94 169.25 Z M 155.95 169.16 L 156.94 169.05 C 157.80 168.96 158.42 168.19 158.33 167.33 C 158.24 166.47 157.47 165.85 156.61 165.94 L 155.61 166.05 C 154.75 166.15 154.13 166.92 154.23 167.77 C 154.32 168.63 155.09 169.25 155.95 169.16 Z M 156.94 169.05 L 157.94 168.95 C 158.80 168.85 159.42 168.09 159.33 167.23 C 159.24 166.37 158.47 165.75 157.61 165.84 L 156.61 165.94 C 155.75 166.04 155.13 166.80 155.22 167.66 C 155.31 168.52 156.08 169.14 156.94 169.05 Z M 157.94 168.94 L 158.94 168.84 C 159.80 168.75 160.42 167.98 160.33 167.13 C 160.24 166.27 159.47 165.64 158.61 165.73 L 157.62 165.84 C 156.76 165.93 156.13 166.70 156.22 167.55 C 156.31 168.41 157.08 169.03 157.94 168.94 Z M 158.95 168.84 L 159.96 168.73 C 160.82 168.64 161.43 167.86 161.34 167.01 C 161.25 166.15 160.48 165.53 159.62 165.62 L 158.61 165.74 C 157.75 165.83 157.13 166.60 157.22 167.46 C 157.32 168.31 158.09 168.93 158.95 168.84 Z M 159.95 168.73 L 160.93 168.63 C 161.79 168.54 162.41 167.77 162.32 166.91 C 162.23 166.05 161.46 165.43 160.60 165.52 L 159.62 165.62 C 158.77 165.71 158.14 166.48 158.24 167.34 C 158.33 168.20 159.10 168.82 159.95 168.73 Z M 160.92 168.63 L 161.92 168.53 C 162.78 168.44 163.40 167.68 163.32 166.82 C 163.23 165.96 162.47 165.34 161.61 165.42 L 160.61 165.52 C 159.75 165.60 159.13 166.37 159.21 167.23 C 159.30 168.09 160.06 168.71 160.92 168.63 Z M 161.95 168.52 L 162.94 168.40 C 163.80 168.30 164.41 167.52 164.30 166.66 C 164.20 165.81 163.42 165.20 162.56 165.30 L 161.57 165.42 C 160.72 165.53 160.11 166.31 160.21 167.16 C 160.32 168.02 161.10 168.63 161.95 168.52 Z M 162.99 168.40 L 163.98 168.25 C 164.83 168.11 165.41 167.32 165.28 166.46 C 165.15 165.61 164.35 165.03 163.50 165.16 L 162.52 165.31 C 161.66 165.44 161.08 166.24 161.21 167.09 C 161.34 167.94 162.14 168.53 162.99 168.40 Z M 164.00 168.24 L 164.90 168.09 C 165.75 167.94 166.32 167.13 166.18 166.28 C 166.03 165.43 165.22 164.86 164.37 165.01 L 163.48 165.16 C 162.63 165.31 162.05 166.11 162.20 166.97 C 162.35 167.82 163.15 168.39 164.00 168.24 Z M 164.95 168.08 L 166.01 167.86 C 166.85 167.69 167.40 166.87 167.23 166.03 C 167.06 165.18 166.24 164.63 165.39 164.80 L 164.33 165.02 C 163.48 165.19 162.94 166.01 163.11 166.86 C 163.28 167.70 164.10 168.25 164.95 168.08 Z M 166.05 167.85 L 166.94 167.65 C 167.78 167.45 168.30 166.62 168.11 165.78 C 167.92 164.94 167.08 164.41 166.24 164.61 L 165.35 164.81 C 164.51 165.01 163.99 165.85 164.18 166.69 C 164.37 167.53 165.21 168.05 166.05 167.85 Z M 166.99 167.64 L 167.98 167.38 C 168.81 167.16 169.31 166.30 169.09 165.47 C 168.88 164.64 168.02 164.14 167.19 164.36 L 166.19 164.62 C 165.36 164.84 164.86 165.69 165.08 166.52 C 165.30 167.36 166.15 167.86 166.99 167.64 Z M 168.04 167.36 L 169.07 167.05 C 169.89 166.79 170.36 165.92 170.11 165.10 C 169.85 164.27 168.98 163.81 168.16 164.06 L 167.13 164.37 C 166.31 164.63 165.84 165.50 166.09 166.32 C 166.34 167.15 167.22 167.61 168.04 167.36 Z M 169.14 167.02 L 170.13 166.66 C 170.94 166.37 171.36 165.48 171.07 164.67 C 170.78 163.86 169.89 163.44 169.08 163.73 L 168.09 164.09 C 167.28 164.38 166.86 165.27 167.15 166.08 C 167.44 166.89 168.33 167.31 169.14 167.02 Z M 170.20 166.63 L 171.12 166.25 C 171.91 165.92 172.29 165.01 171.96 164.21 C 171.62 163.42 170.71 163.05 169.92 163.38 L 169.00 163.76 C 168.21 164.09 167.84 165.01 168.17 165.80 C 168.50 166.59 169.41 166.97 170.20 166.63 Z M 171.22 166.20 L 172.12 165.75 C 172.89 165.36 173.20 164.42 172.81 163.66 C 172.43 162.89 171.49 162.58 170.73 162.97 L 169.82 163.43 C 169.05 163.81 168.75 164.75 169.13 165.51 C 169.52 166.28 170.45 166.59 171.22 166.20 Z M 172.33 165.62 L 173.16 165.03 C 173.85 164.53 174.01 163.56 173.52 162.86 C 173.02 162.17 172.05 162.00 171.35 162.50 L 170.52 163.10 C 169.83 163.59 169.66 164.56 170.16 165.26 C 170.66 165.96 171.63 166.12 172.33 165.62 Z M 173.55 164.61 L 174.04 163.86 C 174.51 163.14 174.30 162.18 173.58 161.71 C 172.87 161.25 171.91 161.45 171.44 162.17 L 170.95 162.92 C 170.49 163.64 170.69 164.60 171.41 165.07 C 172.13 165.53 173.09 165.33 173.55 164.61 Z M 174.29 163.05 L 174.32 162.07 C 174.34 161.21 173.66 160.50 172.80 160.48 C 171.94 160.46 171.23 161.14 171.21 162.00 L 171.19 162.98 C 171.17 163.84 171.85 164.55 172.71 164.57 C 173.56 164.59 174.27 163.91 174.29 163.05 Z M 174.19 161.42 L 173.81 160.52 C 173.47 159.73 172.56 159.36 171.77 159.70 C 170.98 160.04 170.61 160.96 170.95 161.75 L 171.33 162.64 C 171.67 163.43 172.59 163.80 173.38 163.46 C 174.17 163.12 174.53 162.21 174.19 161.42 Z M 173.65 160.24 L 173.07 159.41 C 172.58 158.71 171.61 158.54 170.90 159.03 C 170.20 159.52 170.03 160.49 170.52 161.20 L 171.10 162.03 C 171.60 162.73 172.57 162.90 173.27 162.41 C 173.97 161.91 174.14 160.94 173.65 160.24 Z M 173.01 159.34 L 172.41 158.59 C 171.88 157.92 170.91 157.80 170.24 158.33 C 169.57 158.87 169.45 159.84 169.98 160.51 L 170.59 161.27 C 171.12 161.94 172.09 162.05 172.76 161.52 C 173.43 160.99 173.54 160.01 173.01 159.34 Z M 172.41 158.61 L 171.79 157.81 C 171.28 157.14 170.31 157.02 169.64 157.54 C 168.97 158.05 168.85 159.02 169.37 159.69 L 169.98 160.48 C 170.50 161.15 171.46 161.28 172.13 160.76 C 172.80 160.24 172.93 159.28 172.41 158.61 Z M 171.81 157.86 L 171.25 157.08 C 170.76 156.40 169.81 156.24 169.13 156.73 C 168.45 157.22 168.30 158.17 168.78 158.85 L 169.35 159.63 C 169.84 160.32 170.79 160.47 171.47 159.98 C 172.15 159.49 172.30 158.54 171.81 157.86 Z M 171.26 157.12 L 170.66 156.24 C 170.19 155.55 169.26 155.38 168.57 155.85 C 167.89 156.31 167.71 157.25 168.18 157.93 L 168.78 158.81 C 169.24 159.50 170.18 159.67 170.86 159.21 C 171.55 158.74 171.73 157.80 171.26 157.12 Z M 170.66 156.27 L 170.09 155.40 C 169.64 154.71 168.72 154.52 168.03 154.97 C 167.34 155.42 167.15 156.34 167.60 157.03 L 168.18 157.90 C 168.63 158.59 169.55 158.78 170.23 158.33 C 170.92 157.88 171.11 156.96 170.66 156.27 Z M 170.08 155.43 L 169.54 154.57 C 169.11 153.89 168.20 153.69 167.52 154.12 C 166.83 154.56 166.63 155.46 167.06 156.15 L 167.61 157.00 C 168.04 157.69 168.95 157.89 169.63 157.45 C 170.32 157.02 170.52 156.11 170.08 155.43 Z M 169.54 154.60 L 169.01 153.74 C 168.59 153.05 167.70 152.84 167.02 153.26 C 166.33 153.68 166.12 154.57 166.54 155.25 L 167.07 156.12 C 167.48 156.80 168.38 157.02 169.06 156.60 C 169.75 156.18 169.96 155.29 169.54 154.60 Z M 169.02 153.78 L 168.53 152.93 C 168.13 152.24 167.25 152.00 166.56 152.40 C 165.88 152.80 165.64 153.68 166.04 154.37 L 166.53 155.22 C 166.93 155.90 167.81 156.14 168.49 155.74 C 169.18 155.34 169.42 154.46 169.02 153.78 Z M 168.54 152.96 L 168.08 152.12 C 167.71 151.43 166.84 151.17 166.14 151.55 C 165.45 151.93 165.19 152.79 165.57 153.49 L 166.03 154.33 C 166.40 155.02 167.27 155.28 167.97 154.90 C 168.66 154.53 168.92 153.66 168.54 152.96 Z M 168.09 152.14 L 167.64 151.29 C 167.27 150.59 166.41 150.33 165.71 150.69 C 165.02 151.06 164.75 151.92 165.12 152.62 L 165.56 153.47 C 165.93 154.17 166.79 154.43 167.49 154.07 C 168.19 153.70 168.46 152.84 168.09 152.14 Z"
      fill="black"
      fill-rule="nonzero" /><path d="M 163.38 131.41 L 163.55 132.40 C 163.69 133.22 164.46 133.77 165.28 133.63 C 166.10 133.49 166.65 132.71 166.52 131.89 L 166.35 130.91 C 166.21 130.09 165.43 129.53 164.61 129.67 C 163.79 129.81 163.24 130.59 163.38 131.41 Z M 163.52 132.40 L 163.69 133.39 C 163.83 134.22 164.62 134.78 165.46 134.64 C 166.29 134.50 166.85 133.71 166.71 132.87 L 166.54 131.89 C 166.40 131.05 165.61 130.49 164.78 130.63 C 163.94 130.78 163.38 131.57 163.52 132.40 Z M 163.66 133.39 L 163.83 134.38 C 163.97 135.23 164.78 135.80 165.63 135.65 C 166.48 135.51 167.05 134.70 166.90 133.85 L 166.74 132.87 C 166.59 132.02 165.79 131.45 164.94 131.59 C 164.09 131.74 163.52 132.54 163.66 133.39 Z M 163.81 134.38 L 163.84 134.52 C 163.98 135.38 164.80 135.95 165.65 135.81 C 166.51 135.66 167.09 134.85 166.94 133.99 L 166.92 133.85 C 166.77 133.00 165.96 132.42 165.10 132.56 C 164.25 132.71 163.67 133.52 163.81 134.38 Z"
      fill="black"
      fill-rule="nonzero" /></svg>