<svg xmlns="http://www.w3.org/2000/svg" width="300" height="300" viewBox="0 0 300 300">
<path d="M 136.25 134.05 L 137.22 134.14 C 138.05 134.22 138.79 133.60 138.86 132.76 C 138.94 131.93 138.32 131.19 137.49 131.12 L 136.52 131.03 C 135.69 130.96 134.95 131.58 134.88 132.41 C 134.80 133.24 135.42 133.98 136.25 134.05 Z M 137.28 134.18 L 138.30 134.22 C 139.16 134.26 139.88 133.60 139.92 132.74 C 139.96 131.89 139.29 131.17 138.44 131.13 L 137.42 131.08 C 136.57 131.04 135.84 131.71 135.80 132.56 C 135.77 133.42 136.43 134.14 137.28 134.18 Z M 138.41 134.24 L 139.44 134.22 C 140.30 134.20 140.99 133.48 140.97 132.62 C 140.95 131.75 140.23 131.06 139.37 131.08 L 138.34 131.11 C 137.47 131.13 136.78 131.84 136.80 132.71 C 136.82 133.58 137.54 134.26 138.41 134.24 Z M 139.50 134.22 L 140.51 134.16 C 141.38 134.11 142.04 133.36 141.98 132.49 C 141.93 131.62 141.18 130.96 140.31 131.02 L 139.30 131.08 C 138.43 131.14 137.78 131.88 137.83 132.75 C 137.89 133.62 138.63 134.28 139.50 134.22 Z M 140.54 134.16 L 141.55 134.08 C 142.42 134.01 143.07 133.25 143.00 132.38 C 142.93 131.51 142.17 130.87 141.30 130.94 L 140.29 131.02 C 139.42 131.08 138.77 131.84 138.84 132.71 C 138.91 133.58 139.67 134.23 140.54 134.16 Z M 141.56 134.08 L 142.51 134.00 C 143.38 133.93 144.03 133.17 143.96 132.30 C 143.89 131.43 143.12 130.79 142.25 130.86 L 141.30 130.93 C 140.43 131.01 139.78 131.77 139.85 132.64 C 139.93 133.51 140.69 134.15 141.56 134.08 Z M 142.51 134.00 L 143.47 133.92 C 144.34 133.85 144.99 133.09 144.92 132.22 C 144.85 131.35 144.08 130.70 143.21 130.78 L 142.25 130.86 C 141.38 130.93 140.74 131.69 140.81 132.56 C 140.88 133.43 141.64 134.08 142.51 134.00 Z M 143.48 133.93 L 144.50 133.84 C 145.37 133.76 146.01 132.99 145.94 132.12 C 145.86 131.25 145.09 130.61 144.22 130.69 L 143.21 130.78 C 142.34 130.85 141.69 131.62 141.77 132.49 C 141.85 133.36 142.61 134.00 143.48 133.93 Z M 144.52 133.84 L 145.49 133.74 C 146.36 133.66 147.00 132.88 146.92 132.01 C 146.83 131.14 146.06 130.51 145.19 130.59 L 144.21 130.69 C 143.34 130.77 142.70 131.54 142.79 132.41 C 142.87 133.28 143.65 133.92 144.52 133.84 Z M 145.50 133.74 L 146.51 133.64 C 147.38 133.55 148.02 132.78 147.93 131.91 C 147.84 131.04 147.07 130.40 146.20 130.49 L 145.18 130.59 C 144.31 130.68 143.68 131.45 143.76 132.32 C 143.85 133.19 144.63 133.83 145.50 133.74 Z M 146.50 133.64 L 147.49 133.55 C 148.36 133.47 149.00 132.69 148.92 131.82 C 148.84 130.95 148.07 130.31 147.19 130.39 L 146.20 130.49 C 145.33 130.57 144.69 131.34 144.78 132.21 C 144.86 133.09 145.63 133.73 146.50 133.64 Z M 147.48 133.55 L 148.48 133.47 C 149.35 133.39 150.00 132.63 149.93 131.75 C 149.85 130.88 149.09 130.23 148.21 130.31 L 147.21 130.39 C 146.34 130.47 145.69 131.23 145.76 132.10 C 145.84 132.98 146.60 133.62 147.48 133.55 Z M 148.46 133.47 L 149.45 133.40 C 150.33 133.34 150.98 132.58 150.92 131.70 C 150.86 130.83 150.10 130.17 149.23 130.23 L 148.24 130.30 C 147.36 130.37 146.70 131.12 146.77 132.00 C 146.83 132.87 147.59 133.53 148.46 133.47 Z M 149.44 133.40 L 150.44 133.34 C 151.31 133.28 151.98 132.53 151.93 131.66 C 151.87 130.78 151.12 130.12 150.24 130.17 L 149.24 130.23 C 148.37 130.29 147.70 131.04 147.76 131.91 C 147.81 132.79 148.57 133.45 149.44 133.40 Z M 150.44 133.34 L 151.43 133.28 C 152.30 133.23 152.97 132.48 152.92 131.60 C 152.87 130.73 152.12 130.06 151.24 130.11 L 150.25 130.17 C 149.38 130.22 148.71 130.97 148.76 131.85 C 148.81 132.72 149.56 133.39 150.44 133.34 Z M 151.42 133.28 L 152.42 133.23 C 153.30 133.18 153.97 132.43 153.92 131.56 C 153.88 130.69 153.13 130.02 152.26 130.06 L 151.25 130.11 C 150.38 130.16 149.71 130.91 149.76 131.78 C 149.80 132.65 150.55 133.32 151.42 133.28 Z M 152.41 133.23 L 153.41 133.18 C 154.29 133.15 154.97 132.41 154.93 131.53 C 154.89 130.66 154.15 129.98 153.28 130.02 L 152.27 130.06 C 151.40 130.10 150.72 130.84 150.76 131.71 C 150.79 132.58 151.53 133.26 152.41 133.23 Z M 153.39 133.18 L 154.39 133.15 C 155.26 133.13 155.95 132.40 155.92 131.53 C 155.90 130.65 155.17 129.96 154.30 129.99 L 153.30 130.02 C 152.43 130.05 151.74 130.77 151.77 131.65 C 151.79 132.52 152.52 133.21 153.39 133.18 Z M 154.37 133.15 L 155.38 133.14 C 156.25 133.13 156.95 132.41 156.93 131.53 C 156.92 130.66 156.20 129.96 155.33 129.98 L 154.32 129.99 C 153.45 130.00 152.75 130.72 152.76 131.59 C 152.77 132.47 153.49 133.16 154.37 133.15 Z M 155.36 133.14 L 156.35 133.13 C 157.22 133.13 157.93 132.42 157.93 131.55 C 157.92 130.68 157.21 129.97 156.34 129.98 L 155.35 129.98 C 154.48 129.98 153.77 130.69 153.77 131.56 C 153.78 132.43 154.49 133.14 155.36 133.14 Z M 156.35 133.13 L 157.35 133.13 C 158.22 133.13 158.92 132.42 158.92 131.55 C 158.92 130.68 158.22 129.98 157.35 129.98 L 156.35 129.98 C 155.48 129.98 154.77 130.68 154.77 131.56 C 154.77 132.43 155.48 133.13 156.35 133.13 Z M 157.36 133.13 L 158.35 133.12 C 159.22 133.11 159.92 132.40 159.91 131.53 C 159.91 130.66 159.20 129.97 158.33 129.97 L 157.33 129.98 C 156.47 129.99 155.77 130.70 155.77 131.57 C 155.78 132.43 156.49 133.13 157.36 133.13 Z M 158.38 133.12 L 159.35 133.09 C 160.21 133.07 160.90 132.35 160.88 131.49 C 160.86 130.62 160.14 129.93 159.27 129.95 L 158.30 129.98 C 157.44 130.00 156.75 130.71 156.77 131.58 C 156.79 132.45 157.51 133.14 158.38 133.12 Z M 159.35 133.09 L 160.36 133.06 C 161.23 133.04 161.91 132.32 161.89 131.46 C 161.87 130.59 161.15 129.91 160.29 129.93 L 159.27 129.96 C 158.40 129.98 157.72 130.70 157.74 131.56 C 157.76 132.43 158.48 133.11 159.35 133.09 Z M 160.34 133.06 L 161.33 133.05 C 162.20 133.04 162.89 132.33 162.88 131.47 C 162.87 130.60 162.16 129.91 161.29 129.92 L 160.31 129.93 C 159.44 129.94 158.75 130.65 158.76 131.52 C 158.77 132.38 159.48 133.07 160.34 133.06 Z M 161.32 133.05 L 162.33 133.04 C 163.19 133.04 163.89 132.34 163.89 131.48 C 163.89 130.61 163.18 129.92 162.32 129.92 L 161.31 129.92 C 160.44 129.93 159.75 130.63 159.75 131.49 C 159.75 132.35 160.45 133.05 161.32 133.05 Z M 162.33 133.04 L 163.36 133.04 C 164.22 133.04 164.92 132.34 164.92 131.48 C 164.91 130.62 164.22 129.92 163.36 129.92 L 162.32 129.92 C 161.46 129.93 160.77 130.62 160.77 131.48 C 160.77 132.34 161.47 133.04 162.33 133.04 Z M 163.38 133.03 L 164.39 133.01 C 165.25 133.00 165.93 132.29 165.91 131.44 C 165.90 130.59 165.20 129.91 164.34 129.92 L 163.33 129.94 C 162.48 129.95 161.80 130.65 161.81 131.51 C 161.83 132.36 162.53 133.04 163.38 133.03 Z M 164.47 132.99 L 165.45 132.92 C 166.29 132.87 166.93 132.14 166.87 131.30 C 166.82 130.46 166.09 129.82 165.25 129.88 L 164.27 129.94 C 163.43 130.00 162.79 130.72 162.85 131.56 C 162.90 132.41 163.63 133.04 164.47 132.99 Z M 165.55 132.88 L 166.55 132.75 C 167.37 132.64 167.94 131.88 167.83 131.06 C 167.72 130.24 166.96 129.67 166.14 129.78 L 165.15 129.92 C 164.33 130.03 163.76 130.78 163.87 131.60 C 163.98 132.42 164.74 132.99 165.55 132.88 Z M 166.60 132.71 L 167.22 132.60 C 168.01 132.47 168.55 131.71 168.41 130.91 C 168.27 130.11 167.52 129.58 166.72 129.71 L 166.10 129.82 C 165.30 129.96 164.77 130.72 164.90 131.51 C 165.04 132.31 165.80 132.85 166.60 132.71 Z"
      fill="black"
      fill-rule="nonzero" /><path d="M 158.98 123.68 L 158.83 122.70 C 158.71 121.90 157.97 121.36 157.17 121.48 C 156.38 121.60 155.83 122.35 155.96 123.14 L 156.11 124.12 C 156.23 124.92 156.97 125.46 157.77 125.34 C 158.56 125.22 159.11 124.48 158.98 123.68 Z M 158.86 122.74 L 158.72 121.61 C 158.62 120.80 157.89 120.22 157.08 120.32 C 156.27 120.42 155.69 121.16 155.79 121.97 L 155.93 123.10 C 156.03 123.91 156.76 124.49 157.57 124.39 C 158.38 124.29 158.96 123.55 158.86 122.74 Z M 158.76 121.68 L 158.71 120.95 C 158.65 120.12 157.93 119.50 157.10 119.56 C 156.27 119.61 155.65 120.33 155.70 121.16 L 155.76 121.89 C 155.81 122.72 156.53 123.35 157.36 123.29 C 158.19 123.23 158.81 122.51 158.76 121.68 Z M 155.70 121.28 L 155.85 122.30 C 155.98 123.13 156.75 123.70 157.59 123.58 C 158.42 123.45 158.99 122.68 158.87 121.84 L 158.71 120.83 C 158.59 120.00 157.81 119.42 156.98 119.55 C 156.15 119.68 155.57 120.45 155.70 121.28 Z M 155.85 122.35 L 156.04 123.40 C 156.20 124.24 156.99 124.79 157.83 124.64 C 158.66 124.48 159.21 123.69 159.06 122.85 L 158.87 121.80 C 158.71 120.96 157.92 120.41 157.08 120.56 C 156.25 120.72 155.70 121.51 155.85 122.35 Z M 156.04 123.43 L 156.24 124.41 C 156.40 125.25 157.22 125.79 158.05 125.62 C 158.88 125.45 159.42 124.64 159.26 123.81 L 159.06 122.83 C 158.89 121.99 158.08 121.45 157.25 121.62 C 156.42 121.78 155.87 122.60 156.04 123.43 Z M 156.23 124.39 L 156.41 125.39 C 156.57 126.23 157.38 126.78 158.22 126.62 C 159.06 126.47 159.61 125.66 159.45 124.82 L 159.27 123.83 C 159.11 122.99 158.30 122.43 157.46 122.59 C 156.62 122.75 156.07 123.55 156.23 124.39 Z M 156.40 125.35 L 156.55 126.31 C 156.69 127.16 157.49 127.73 158.34 127.59 C 159.18 127.46 159.76 126.66 159.62 125.81 L 159.47 124.86 C 159.33 124.01 158.53 123.43 157.69 123.57 C 156.84 123.71 156.26 124.50 156.40 125.35 Z M 156.54 126.28 L 156.68 127.24 C 156.80 128.09 157.59 128.68 158.44 128.56 C 159.29 128.44 159.89 127.66 159.77 126.80 L 159.63 125.84 C 159.51 124.99 158.72 124.40 157.87 124.52 C 157.02 124.64 156.42 125.42 156.54 126.28 Z M 156.67 127.20 L 156.79 128.22 C 156.89 129.08 157.67 129.69 158.53 129.59 C 159.38 129.49 160.00 128.71 159.90 127.85 L 159.77 126.84 C 159.67 125.98 158.90 125.37 158.04 125.47 C 157.18 125.57 156.57 126.35 156.67 127.20 Z M 156.78 128.19 L 156.88 129.15 C 156.96 130.01 157.73 130.64 158.59 130.56 C 159.45 130.47 160.08 129.70 160.00 128.84 L 159.90 127.89 C 159.82 127.02 159.05 126.39 158.19 126.48 C 157.33 126.56 156.70 127.33 156.78 128.19 Z M 156.87 129.13 L 156.96 130.17 C 157.04 131.04 157.80 131.68 158.66 131.60 C 159.52 131.53 160.16 130.77 160.09 129.91 L 160.00 128.86 C 159.93 128.00 159.17 127.36 158.30 127.43 C 157.44 127.51 156.80 128.27 156.87 129.13 Z M 156.96 130.16 L 157.03 131.13 C 157.10 131.99 157.86 132.64 158.72 132.57 C 159.59 132.50 160.23 131.75 160.17 130.88 L 160.09 129.92 C 160.03 129.05 159.27 128.41 158.40 128.47 C 157.54 128.54 156.89 129.29 156.96 130.16 Z M 157.03 131.12 L 157.11 132.12 C 157.17 132.99 157.92 133.64 158.79 133.58 C 159.65 133.51 160.30 132.76 160.24 131.90 L 160.17 130.89 C 160.10 130.03 159.35 129.38 158.49 129.44 C 157.62 129.50 156.97 130.25 157.03 131.12 Z M 157.11 132.12 L 157.18 133.14 C 157.24 134.00 157.99 134.66 158.85 134.60 C 159.72 134.54 160.37 133.79 160.31 132.92 L 160.24 131.90 C 160.18 131.04 159.43 130.38 158.57 130.44 C 157.70 130.50 157.05 131.25 157.11 132.12 Z M 157.18 133.13 L 157.24 134.11 C 157.30 134.97 158.05 135.63 158.91 135.57 C 159.78 135.51 160.43 134.76 160.37 133.90 L 160.31 132.93 C 160.25 132.06 159.51 131.41 158.64 131.46 C 157.78 131.52 157.12 132.27 157.18 133.13 Z M 157.24 134.10 L 157.30 135.10 C 157.36 135.96 158.10 136.62 158.96 136.57 C 159.83 136.52 160.49 135.77 160.44 134.91 L 160.37 133.91 C 160.32 133.04 159.58 132.38 158.71 132.44 C 157.85 132.49 157.19 133.23 157.24 134.10 Z M 157.30 135.09 L 157.36 136.10 C 157.41 136.97 158.14 137.63 159.01 137.58 C 159.87 137.54 160.54 136.80 160.49 135.93 L 160.44 134.92 C 160.39 134.05 159.65 133.39 158.79 133.44 C 157.92 133.48 157.26 134.22 157.30 135.09 Z M 157.36 136.09 L 157.40 137.05 C 157.44 137.91 158.18 138.58 159.04 138.54 C 159.91 138.50 160.58 137.77 160.54 136.90 L 160.49 135.94 C 160.45 135.08 159.72 134.41 158.85 134.45 C 157.99 134.49 157.32 135.22 157.36 136.09 Z M 157.40 137.04 L 157.44 138.04 C 157.48 138.90 158.20 139.58 159.07 139.54 C 159.94 139.51 160.61 138.78 160.58 137.91 L 160.54 136.91 C 160.50 136.05 159.77 135.37 158.91 135.41 C 158.04 135.44 157.37 136.17 157.40 137.04 Z M 157.44 138.03 L 157.47 139.07 C 157.50 139.94 158.23 140.62 159.09 140.59 C 159.96 140.56 160.64 139.84 160.61 138.97 L 160.58 137.93 C 160.55 137.06 159.82 136.38 158.96 136.41 C 158.09 136.44 157.41 137.16 157.44 138.03 Z M 157.47 139.06 L 157.50 140.03 C 157.52 140.90 158.24 141.58 159.11 141.56 C 159.97 141.54 160.66 140.82 160.64 139.95 L 160.61 138.98 C 160.59 138.11 159.87 137.43 159.00 137.45 C 158.14 137.47 157.45 138.19 157.47 139.06 Z M 157.50 140.02 L 157.52 141.01 C 157.54 141.88 158.25 142.56 159.12 142.55 C 159.99 142.53 160.67 141.81 160.66 140.94 L 160.64 139.96 C 160.62 139.09 159.90 138.40 159.03 138.42 C 158.17 138.44 157.48 139.16 157.50 140.02 Z M 157.52 141.00 L 157.53 142.02 C 157.55 142.88 158.27 143.58 159.13 143.56 C 160.00 143.55 160.69 142.83 160.68 141.96 L 160.66 140.95 C 160.64 140.08 159.93 139.39 159.06 139.41 C 158.19 139.42 157.50 140.14 157.52 141.00 Z M 157.53 142.01 L 157.55 143.05 C 157.56 143.92 158.28 144.61 159.15 144.60 C 160.01 144.59 160.71 143.87 160.69 143.00 L 160.68 141.97 C 160.66 141.10 159.95 140.41 159.08 140.42 C 158.21 140.43 157.52 141.15 157.53 142.01 Z M 157.55 143.05 L 157.57 144.02 C 157.58 144.89 158.29 145.58 159.16 145.57 C 160.03 145.56 160.72 144.84 160.71 143.98 L 160.69 143.01 C 160.68 142.14 159.97 141.45 159.10 141.46 C 158.23 141.47 157.54 142.19 157.55 143.05 Z M 157.57 144.02 L 157.58 145.01 C 157.59 145.88 158.30 146.57 159.17 146.56 C 160.04 146.55 160.73 145.83 160.72 144.97 L 160.71 143.98 C 160.69 143.11 159.98 142.42 159.11 142.43 C 158.25 142.44 157.55 143.15 157.57 144.02 Z M 157.58 145.01 L 157.59 146.01 C 157.60 146.88 158.31 147.58 159.18 147.57 C 160.05 147.56 160.74 146.84 160.73 145.98 L 160.72 144.97 C 160.71 144.10 160.00 143.41 159.13 143.42 C 158.26 143.43 157.57 144.14 157.58 145.01 Z M 157.59 146.01 L 157.60 147.04 C 157.61 147.90 158.32 148.60 159.19 148.59 C 160.05 148.58 160.75 147.87 160.74 147.01 L 160.73 145.98 C 160.72 145.11 160.01 144.42 159.15 144.42 C 158.28 144.43 157.58 145.14 157.59 146.01 Z M 157.60 147.03 L 157.61 148.02 C 157.61 148.89 158.32 149.58 159.19 149.58 C 160.06 149.57 160.75 148.87 160.75 148.00 L 160.74 147.01 C 160.74 146.14 160.03 145.44 159.16 145.45 C 158.29 145.46 157.60 146.16 157.60 147.03 Z M 157.61 148.01 L 157.61 149.00 C 157.61 149.87 158.32 150.57 159.19 150.56 C 160.05 150.56 160.76 149.86 160.75 148.99 L 160.75 148.00 C 160.75 147.13 160.04 146.43 159.17 146.44 C 158.30 146.44 157.60 147.15 157.61 148.01 Z M 157.61 149.00 L 157.61 150.00 C 157.61 150.86 158.32 151.57 159.19 151.57 C 160.05 151.56 160.76 150.86 160.75 149.99 L 160.75 148.99 C 160.75 148.12 160.05 147.42 159.18 147.42 C 158.31 147.42 157.61 148.13 157.61 149.00 Z M 157.61 150.00 L 157.61 151.01 C 157.61 151.88 158.32 152.58 159.18 152.58 C 160.05 152.58 160.76 151.88 160.75 151.01 L 160.75 149.99 C 160.75 149.13 160.05 148.42 159.18 148.42 C 158.31 148.42 157.61 149.13 157.61 150.00 Z M 157.61 151.01 L 157.61 152.03 C 157.61 152.90 158.32 153.60 159.18 153.60 C 160.05 153.60 160.75 152.90 160.75 152.03 L 160.75 151.01 C 160.75 150.14 160.05 149.44 159.18 149.44 C 158.32 149.44 157.61 150.14 157.61 151.01 Z M 157.61 152.03 L 157.61 153.06 C 157.61 153.92 158.32 154.63 159.18 154.63 C 160.05 154.63 160.75 153.92 160.75 153.06 L 160.75 152.03 C 160.75 151.17 160.05 150.46 159.18 150.46 C 158.32 150.46 157.61 151.17 157.61 152.03 Z M 157.61 153.06 L 157.61 154.07 C 157.61 154.94 158.32 155.65 159.18 155.65 C 160.05 155.65 160.75 154.94 160.75 154.07 L 160.75 153.06 C 160.75 152.19 160.05 151.48 159.18 151.48 C 158.32 151.48 157.61 152.19 157.61 153.06 Z M 157.61 154.07 L 157.61 155.08 C 157.61 155.94 158.32 156.65 159.18 156.65 C 160.05 156.65 160.75 155.94 160.75 155.08 L 160.75 154.07 C 160.75 153.21 160.05 152.50 159.18 152.50 C 158.32 152.50 157.61 153.21 157.61 154.07 Z M 157.61 155.08 L 157.61 156.05 C 157.61 156.92 158.32 157.62 159.18 157.62 C 160.05 157.62 160.75 156.92 160.75 156.05 L 160.75 155.08 C 160.75 154.21 160.05 153.51 159.18 153.51 C 158.32 153.51 157.61 154.21 157.61 155.08 Z M 157.61 156.05 L 157.61 157.08 C 157.61 157.95 158.32 158.65 159.18 158.65 C 160.05 158.65 160.75 157.95 160.75 157.08 L 160.75 156.05 C 160.75 155.18 160.05 154.48 159.18 154.48 C 158.32 154.48 157.61 155.18 157.61 156.05 Z M 157.61 157.08 L 157.61 158.11 C 157.61 158.98 158.32 159.68 159.18 159.68 C 160.05 159.68 160.76 158.98 160.76 158.11 L 160.76 157.08 C 160.76 156.21 160.05 155.51 159.18 155.51 C 158.32 155.51 157.61 156.21 157.61 157.08 Z M 157.61 158.11 L 157.61 159.10 C 157.61 159.97 158.32 160.67 159.18 160.67 C 160.05 160.67 160.76 159.97 160.76 159.10 L 160.76 158.11 C 160.76 157.24 160.05 156.54 159.18 156.54 C 158.32 156.54 157.61 157.24 157.61 158.11 Z M 157.61 159.10 L 157.61 160.05 C 157.61 160.92 158.32 161.62 159.18 161.62 C 160.05 161.62 160.76 160.92 160.76 160.05 L 160.76 159.10 C 160.76 158.23 160.05 157.53 159.18 157.53 C 158.32 157.53 157.61 158.23 157.61 159.10 Z M 157.61 160.05 L 157.61 161.06 C 157.61 161.93 158.32 162.63 159.18 162.63 C 160.05 162.63 160.76 161.93 160.76 161.06 L 160.76 160.05 C 160.76 159.18 160.05 158.48 159.18 158.48 C 158.32 158.48 157.61 159.18 157.61 160.05 Z M 157.61 161.06 L 157.61 162.08 C 157.61 162.94 158.31 163.65 159.18 163.65 C 160.05 163.65 160.75 162.95 160.75 162.08 L 160.75 161.06 C 160.76 160.20 160.05 159.49 159.19 159.49 C 158.32 159.49 157.61 160.19 157.61 161.06 Z M 157.61 162.07 L 157.60 163.05 C 157.60 163.92 158.30 164.63 159.16 164.64 C 160.03 164.64 160.74 163.94 160.74 163.08 L 160.75 162.09 C 160.76 161.22 160.06 160.51 159.19 160.51 C 158.33 160.50 157.62 161.20 157.61 162.07 Z M 157.60 163.04 L 157.59 164.02 C 157.58 164.89 158.27 165.60 159.13 165.61 C 160.00 165.63 160.71 164.94 160.73 164.07 L 160.74 163.09 C 160.76 162.22 160.07 161.51 159.20 161.50 C 158.33 161.48 157.62 162.17 157.60 163.04 Z M 157.59 164.00 L 157.56 165.05 C 157.54 165.91 158.22 166.63 159.09 166.66 C 159.95 166.68 160.68 166.00 160.70 165.13 L 160.73 164.09 C 160.75 163.22 160.07 162.50 159.20 162.48 C 158.34 162.45 157.61 163.14 157.59 164.00 Z M 157.56 165.03 L 157.53 166.02 C 157.50 166.89 158.18 167.62 159.04 167.64 C 159.91 167.67 160.63 167.00 160.66 166.13 L 160.70 165.14 C 160.73 164.28 160.05 163.55 159.18 163.52 C 158.32 163.49 157.59 164.17 157.56 165.03 Z M 157.53 166.02 L 157.50 166.99 C 157.47 167.86 158.14 168.58 159.01 168.61 C 159.87 168.64 160.60 167.96 160.63 167.10 L 160.66 166.13 C 160.69 165.27 160.02 164.54 159.15 164.51 C 158.29 164.48 157.56 165.16 157.53 166.02 Z M 157.50 167.00 L 157.46 168.04 C 157.44 168.91 158.12 169.63 158.98 169.66 C 159.85 169.69 160.57 169.01 160.60 168.14 L 160.63 167.09 C 160.66 166.23 159.98 165.51 159.11 165.48 C 158.25 165.45 157.52 166.13 157.50 167.00 Z M 157.46 168.04 L 157.43 169.00 C 157.40 169.87 158.08 170.59 158.94 170.62 C 159.81 170.65 160.53 169.98 160.56 169.11 L 160.60 168.15 C 160.63 167.28 159.95 166.56 159.08 166.53 C 158.22 166.50 157.49 167.17 157.46 168.04 Z M 157.43 168.98 L 157.38 169.99 C 157.34 170.86 158.01 171.59 158.87 171.63 C 159.74 171.67 160.47 171.01 160.51 170.14 L 160.56 169.13 C 160.60 168.27 159.94 167.53 159.07 167.49 C 158.21 167.45 157.47 168.12 157.43 168.98 Z M 157.38 169.97 L 157.33 170.96 C 157.28 171.82 157.94 172.56 158.80 172.61 C 159.66 172.66 160.41 172.00 160.46 171.14 L 160.51 170.16 C 160.56 169.29 159.90 168.55 159.04 168.50 C 158.17 168.45 157.43 169.11 157.38 169.97 Z M 157.32 170.96 L 157.27 171.93 C 157.23 172.79 157.89 173.53 158.75 173.58 C 159.62 173.63 160.36 172.96 160.41 172.10 L 160.46 171.13 C 160.50 170.27 159.84 169.53 158.98 169.48 C 158.11 169.43 157.37 170.10 157.32 170.96 Z M 157.28 171.85 L 157.17 172.84 C 157.08 173.70 157.71 174.48 158.57 174.57 C 159.43 174.66 160.21 174.03 160.30 173.17 L 160.40 172.18 C 160.49 171.32 159.87 170.54 159.00 170.45 C 158.14 170.36 157.37 170.99 157.28 171.85 Z M 157.21 172.61 L 156.93 173.70 C 156.71 174.54 157.21 175.40 158.05 175.62 C 158.89 175.84 159.75 175.34 159.97 174.50 L 160.26 173.40 C 160.48 172.56 159.97 171.70 159.13 171.48 C 158.29 171.26 157.43 171.77 157.21 172.61 Z M 157.15 173.21 L 156.66 173.91 C 156.17 174.63 156.35 175.62 157.07 176.11 C 157.79 176.60 158.78 176.42 159.27 175.70 L 159.75 174.99 C 160.25 174.27 160.06 173.29 159.34 172.79 C 158.62 172.30 157.64 172.49 157.15 173.21 Z M 158.67 173.39 L 157.95 173.03 C 157.16 172.64 156.21 172.96 155.82 173.75 C 155.44 174.53 155.76 175.48 156.54 175.87 L 157.26 176.23 C 158.05 176.61 159.00 176.29 159.39 175.51 C 159.77 174.72 159.45 173.77 158.67 173.39 Z M 158.42 173.39 L 157.70 172.59 C 157.12 171.94 156.12 171.89 155.47 172.47 C 154.82 173.05 154.76 174.06 155.35 174.71 L 156.07 175.51 C 156.65 176.16 157.65 176.21 158.30 175.63 C 158.95 175.04 159.01 174.04 158.42 173.39 Z M 157.67 172.57 L 156.99 171.85 C 156.40 171.21 155.40 171.18 154.77 171.78 C 154.13 172.37 154.10 173.37 154.70 174.00 L 155.38 174.73 C 155.97 175.36 156.97 175.39 157.60 174.80 C 158.24 174.20 158.27 173.21 157.67 172.57 Z M 156.96 171.84 L 156.27 171.12 C 155.67 170.51 154.68 170.49 154.06 171.09 C 153.44 171.70 153.43 172.68 154.03 173.30 L 154.73 174.01 C 155.33 174.63 156.32 174.64 156.93 174.04 C 157.55 173.44 157.56 172.45 156.96 171.84 Z M 156.25 171.12 L 155.55 170.42 C 154.95 169.82 153.97 169.81 153.37 170.42 C 152.76 171.02 152.76 172.00 153.36 172.60 L 154.05 173.30 C 154.66 173.91 155.63 173.91 156.24 173.31 C 156.85 172.71 156.85 171.73 156.25 171.12 Z M 155.53 170.42 L 154.79 169.69 C 154.19 169.09 153.22 169.10 152.62 169.70 C 152.03 170.30 152.03 171.27 152.63 171.86 L 153.38 172.60 C 153.98 173.19 154.95 173.19 155.54 172.59 C 156.14 171.99 156.13 171.02 155.53 170.42 Z M 154.77 169.69 L 154.12 169.05 C 153.52 168.46 152.55 168.47 151.97 169.07 C 151.38 169.67 151.39 170.64 152.00 171.22 L 152.65 171.86 C 153.25 172.45 154.21 172.43 154.80 171.83 C 155.38 171.23 155.37 170.27 154.77 169.69 Z M 154.11 169.05 L 153.39 168.36 C 152.79 167.78 151.83 167.80 151.25 168.40 C 150.67 169.00 150.69 169.96 151.29 170.54 L 152.01 171.22 C 152.61 171.80 153.56 171.79 154.14 171.19 C 154.72 170.58 154.71 169.63 154.11 169.05 Z M 153.38 168.36 L 152.59 167.60 C 151.99 167.02 151.03 167.05 150.46 167.65 C 149.88 168.25 149.91 169.20 150.51 169.78 L 151.30 170.54 C 151.90 171.11 152.86 171.09 153.43 170.49 C 154.01 169.89 153.98 168.93 153.38 168.36 Z M 152.58 167.60 L 151.85 166.91 C 151.25 166.34 150.30 166.36 149.73 166.96 C 149.16 167.56 149.19 168.51 149.79 169.08 L 150.51 169.77 C 151.11 170.34 152.06 170.32 152.63 169.72 C 153.20 169.12 153.18 168.17 152.58 167.60 Z M 151.85 166.91 L 151.10 166.20 C 150.50 165.63 149.56 165.65 148.99 166.25 C 148.42 166.85 148.44 167.79 149.04 168.36 L 149.79 169.08 C 150.39 169.65 151.33 169.62 151.90 169.03 C 152.47 168.43 152.45 167.48 151.85 166.91 Z M 151.10 166.21 L 150.38 165.51 C 149.79 164.94 148.84 164.96 148.27 165.55 C 147.70 166.14 147.72 167.08 148.31 167.65 L 149.04 168.35 C 149.63 168.92 150.57 168.91 151.14 168.31 C 151.71 167.72 151.70 166.78 151.10 166.21 Z M 150.39 165.53 L 149.66 164.81 C 149.07 164.23 148.13 164.24 147.56 164.82 C 146.99 165.40 146.99 166.34 147.57 166.92 L 148.30 167.64 C 148.89 168.21 149.83 168.21 150.40 167.62 C 150.97 167.04 150.97 166.10 150.39 165.53 Z M 149.67 164.84 L 148.93 164.08 C 148.37 163.50 147.44 163.48 146.86 164.04 C 146.28 164.60 146.26 165.53 146.82 166.12 L 147.56 166.88 C 148.12 167.46 149.05 167.48 149.63 166.92 C 150.22 166.36 150.23 165.43 149.67 164.84 Z M 148.96 164.13 L 148.35 163.46 C 147.82 162.86 146.91 162.81 146.31 163.34 C 145.71 163.87 145.66 164.79 146.19 165.38 L 146.80 166.06 C 147.33 166.66 148.24 166.71 148.84 166.18 C 149.44 165.65 149.49 164.73 148.96 164.13 Z M 148.39 163.52 L 147.78 162.76 C 147.28 162.15 146.37 162.05 145.76 162.55 C 145.14 163.05 145.05 163.95 145.55 164.57 L 146.16 165.32 C 146.66 165.94 147.56 166.03 148.18 165.53 C 148.79 165.04 148.89 164.13 148.39 163.52 Z M 147.80 162.81 L 147.21 162.01 C 146.73 161.38 145.84 161.26 145.20 161.73 C 144.57 162.20 144.45 163.10 144.92 163.73 L 145.52 164.52 C 145.99 165.16 146.89 165.28 147.52 164.81 C 148.15 164.33 148.28 163.44 147.80 162.81 Z M 147.21 162.03 L 146.96 161.68 C 146.49 161.04 145.60 160.91 144.97 161.37 C 144.33 161.84 144.19 162.73 144.66 163.37 L 144.91 163.71 C 145.38 164.35 146.27 164.49 146.91 164.02 C 147.54 163.56 147.68 162.66 147.21 162.03 Z"
      fill="black"
      fill-rule="nonzero" /><path d="M 156.86 137.29 L 156.56 138.04 C 156.22 138.86 156.62 139.78 157.43 140.11 C 158.24 140.44 159.17 140.05 159.50 139.24 L 159.81 138.49 C 160.14 137.68 159.75 136.75 158.93 136.42 C 158.12 136.09 157.19 136.48 156.86 137.29 Z M 156.61 137.84 L 156.07 138.80 C 155.63 139.58 155.90 140.57 156.69 141.01 C 157.47 141.45 158.46 141.18 158.90 140.40 L 159.44 139.44 C 159.89 138.66 159.61 137.67 158.83 137.23 C 158.05 136.78 157.06 137.06 156.61 137.84 Z M 156.14 138.64 L 155.56 139.46 C 155.04 140.21 155.21 141.24 155.95 141.76 C 156.70 142.29 157.72 142.11 158.25 141.37 L 158.83 140.55 C 159.36 139.81 159.18 138.78 158.44 138.25 C 157.70 137.73 156.67 137.90 156.14 138.64 Z M 155.60 139.41 L 154.98 140.21 C 154.42 140.93 154.56 141.97 155.28 142.52 C 156.00 143.08 157.04 142.95 157.60 142.23 L 158.21 141.43 C 158.77 140.70 158.64 139.67 157.92 139.11 C 157.19 138.55 156.16 138.69 155.60 139.41 Z M 155.00 140.18 L 154.34 141.01 C 153.77 141.72 153.88 142.76 154.59 143.33 C 155.30 143.90 156.34 143.79 156.91 143.08 L 157.58 142.25 C 158.15 141.54 158.03 140.50 157.32 139.93 C 156.61 139.36 155.57 139.47 155.00 140.18 Z M 154.35 141.00 L 153.70 141.79 C 153.12 142.50 153.22 143.54 153.93 144.11 C 154.64 144.69 155.68 144.59 156.26 143.88 L 156.90 143.09 C 157.48 142.38 157.38 141.34 156.67 140.76 C 155.96 140.19 154.92 140.29 154.35 141.00 Z M 153.70 141.79 L 153.01 142.64 C 152.44 143.34 152.54 144.38 153.24 144.95 C 153.94 145.53 154.98 145.43 155.56 144.72 L 156.25 143.88 C 156.83 143.18 156.72 142.14 156.02 141.56 C 155.32 140.99 154.28 141.09 153.70 141.79 Z M 153.02 142.65 L 152.39 143.42 C 151.82 144.11 151.93 145.14 152.62 145.71 C 153.32 146.28 154.35 146.18 154.92 145.48 L 155.55 144.71 C 156.12 144.02 156.01 142.99 155.32 142.42 C 154.62 141.85 153.59 141.95 153.02 142.65 Z M 152.41 143.43 L 151.82 144.14 C 151.25 144.83 151.35 145.85 152.04 146.41 C 152.73 146.98 153.75 146.88 154.31 146.19 L 154.90 145.47 C 155.47 144.78 155.37 143.77 154.68 143.20 C 153.99 142.64 152.97 142.74 152.41 143.43 Z M 151.83 144.15 L 151.24 144.86 C 150.68 145.54 150.77 146.55 151.46 147.11 C 152.14 147.68 153.14 147.58 153.71 146.90 L 154.30 146.19 C 154.86 145.51 154.77 144.50 154.09 143.93 C 153.41 143.37 152.40 143.47 151.83 144.15 Z M 151.25 144.86 L 150.63 145.61 C 150.07 146.29 150.16 147.29 150.84 147.85 C 151.51 148.42 152.52 148.32 153.08 147.65 L 153.70 146.90 C 154.26 146.22 154.17 145.22 153.49 144.65 C 152.82 144.09 151.81 144.18 151.25 144.86 Z M 150.63 145.61 L 149.97 146.41 C 149.41 147.08 149.51 148.09 150.18 148.65 C 150.86 149.21 151.86 149.11 152.42 148.44 L 153.08 147.64 C 153.64 146.97 153.55 145.96 152.87 145.40 C 152.19 144.84 151.19 144.94 150.63 145.61 Z M 149.97 146.41 L 149.32 147.21 C 148.76 147.88 148.86 148.89 149.54 149.44 C 150.22 150.00 151.22 149.90 151.77 149.22 L 152.43 148.43 C 152.98 147.75 152.88 146.75 152.20 146.19 C 151.53 145.64 150.53 145.73 149.97 146.41 Z M 149.32 147.21 L 148.71 147.96 C 148.15 148.64 148.26 149.64 148.94 150.19 C 149.61 150.75 150.61 150.64 151.17 149.96 L 151.78 149.22 C 152.33 148.54 152.23 147.54 151.55 146.98 C 150.87 146.43 149.87 146.53 149.32 147.21 Z M 148.71 147.96 L 148.08 148.74 C 147.52 149.42 147.63 150.42 148.30 150.97 C 148.98 151.52 149.98 151.42 150.54 150.74 L 151.17 149.96 C 151.72 149.28 151.62 148.29 150.94 147.73 C 150.26 147.18 149.26 147.28 148.71 147.96 Z M 148.08 148.73 L 147.43 149.53 C 146.87 150.21 146.97 151.21 147.65 151.76 C 148.32 152.32 149.32 152.22 149.88 151.54 L 150.53 150.74 C 151.09 150.07 150.99 149.07 150.31 148.51 C 149.63 147.96 148.63 148.06 148.08 148.73 Z M 147.43 149.52 L 146.79 150.30 C 146.23 150.97 146.32 151.97 146.99 152.53 C 147.67 153.09 148.67 153.00 149.23 152.32 L 149.87 151.55 C 150.43 150.88 150.34 149.88 149.66 149.32 C 148.99 148.76 147.99 148.85 147.43 149.52 Z M 146.80 150.29 L 146.16 151.04 C 145.60 151.71 145.68 152.71 146.35 153.27 C 147.02 153.84 148.02 153.75 148.59 153.08 L 149.22 152.33 C 149.78 151.66 149.70 150.66 149.03 150.10 C 148.36 149.54 147.36 149.62 146.80 150.29 Z M 146.17 151.03 L 145.52 151.79 C 144.95 152.45 145.03 153.45 145.69 154.02 C 146.36 154.59 147.36 154.52 147.93 153.85 L 148.58 153.09 C 149.15 152.43 149.07 151.43 148.41 150.86 C 147.74 150.29 146.74 150.37 146.17 151.03 Z M 145.53 151.78 L 144.86 152.55 C 144.29 153.21 144.36 154.21 145.02 154.78 C 145.68 155.36 146.68 155.29 147.25 154.63 L 147.92 153.86 C 148.49 153.20 148.42 152.20 147.76 151.63 C 147.10 151.05 146.10 151.12 145.53 151.78 Z M 144.87 152.54 L 144.20 153.30 C 143.62 153.95 143.68 154.95 144.34 155.53 C 144.99 156.11 145.99 156.05 146.57 155.39 L 147.24 154.64 C 147.82 153.98 147.76 152.98 147.11 152.40 C 146.45 151.82 145.45 151.88 144.87 152.54 Z M 144.21 153.29 L 143.55 154.02 C 142.97 154.67 143.02 155.67 143.67 156.25 C 144.32 156.83 145.32 156.78 145.91 156.13 L 146.56 155.40 C 147.15 154.75 147.09 153.75 146.44 153.17 C 145.79 152.59 144.79 152.64 144.21 153.29 Z M 143.57 154.01 L 142.90 154.74 C 142.31 155.39 142.35 156.38 143.00 156.97 C 143.64 157.56 144.64 157.51 145.22 156.87 L 145.89 156.14 C 146.48 155.49 146.44 154.50 145.79 153.91 C 145.15 153.32 144.15 153.37 143.57 154.01 Z M 142.91 154.74 L 142.22 155.48 C 141.63 156.11 141.67 157.11 142.31 157.70 C 142.95 158.29 143.94 158.25 144.53 157.61 L 145.21 156.88 C 145.80 156.24 145.77 155.24 145.13 154.65 C 144.49 154.06 143.50 154.10 142.91 154.74 Z M 142.24 155.47 L 141.54 156.22 C 140.94 156.85 140.97 157.84 141.60 158.43 C 142.23 159.02 143.23 158.99 143.82 158.36 L 144.52 157.62 C 145.11 156.99 145.08 156.00 144.45 155.40 C 143.82 154.81 142.83 154.84 142.24 155.47 Z M 141.55 156.21 L 140.85 156.95 C 140.25 157.57 140.28 158.56 140.90 159.15 C 141.53 159.75 142.51 159.72 143.11 159.10 L 143.81 158.37 C 144.40 157.74 144.38 156.75 143.75 156.16 C 143.13 155.56 142.14 155.59 141.55 156.21 Z M 140.86 156.94 L 140.16 157.67 C 139.56 158.29 139.58 159.28 140.20 159.87 C 140.81 160.47 141.80 160.45 142.39 159.83 L 143.10 159.10 C 143.69 158.48 143.68 157.50 143.06 156.90 C 142.44 156.31 141.46 156.33 140.86 156.94 Z M 140.17 157.67 L 139.46 158.39 C 138.86 159.01 138.88 159.99 139.49 160.58 C 140.10 161.18 141.08 161.17 141.68 160.56 L 142.38 159.83 C 142.98 159.22 142.97 158.24 142.36 157.64 C 141.74 157.05 140.76 157.06 140.17 157.67 Z M 139.47 158.39 L 138.77 159.10 C 138.18 159.71 138.18 160.69 138.79 161.28 C 139.40 161.88 140.37 161.87 140.97 161.27 L 141.67 160.56 C 142.27 159.95 142.26 158.97 141.65 158.38 C 141.04 157.78 140.07 157.79 139.47 158.39 Z M 138.78 159.10 L 138.09 159.80 C 137.49 160.41 137.49 161.38 138.09 161.98 C 138.70 162.57 139.67 162.57 140.27 161.97 L 140.96 161.27 C 141.56 160.66 141.56 159.69 140.95 159.09 C 140.35 158.50 139.38 158.50 138.78 159.10 Z M 138.10 159.80 L 137.35 160.55 C 136.75 161.14 136.75 162.11 137.35 162.71 C 137.95 163.31 138.92 163.31 139.51 162.71 L 140.26 161.97 C 140.86 161.37 140.86 160.40 140.26 159.80 C 139.66 159.21 138.69 159.20 138.10 159.80 Z M 137.36 160.54 L 136.64 161.25 C 136.04 161.85 136.03 162.81 136.62 163.41 C 137.22 164.01 138.18 164.02 138.78 163.43 L 139.51 162.72 C 140.11 162.12 140.11 161.16 139.52 160.56 C 138.93 159.96 137.96 159.95 137.36 160.54 Z M 136.65 161.25 L 135.95 161.93 C 135.35 162.52 135.33 163.48 135.92 164.08 C 136.51 164.69 137.47 164.70 138.08 164.11 L 138.78 163.43 C 139.38 162.84 139.39 161.88 138.80 161.28 C 138.22 160.67 137.25 160.66 136.65 161.25 Z M 135.96 161.92 L 135.27 162.58 C 134.67 163.17 134.65 164.13 135.23 164.73 C 135.81 165.34 136.77 165.36 137.38 164.78 L 138.07 164.12 C 138.67 163.54 138.69 162.57 138.11 161.97 C 137.53 161.36 136.57 161.34 135.96 161.92 Z M 135.28 162.58 L 134.52 163.30 C 133.91 163.87 133.89 164.83 134.46 165.44 C 135.04 166.05 136.00 166.08 136.61 165.50 L 137.37 164.78 C 137.98 164.21 138.01 163.25 137.43 162.64 C 136.85 162.03 135.89 162.00 135.28 162.58 Z M 134.53 163.29 L 133.79 163.98 C 133.18 164.55 133.15 165.51 133.72 166.12 C 134.29 166.73 135.25 166.77 135.86 166.19 L 136.60 165.51 C 137.21 164.93 137.24 163.98 136.67 163.36 C 136.10 162.75 135.14 162.72 134.53 163.29 Z M 133.80 163.98 L 133.09 164.64 C 132.48 165.21 132.44 166.17 133.01 166.78 C 133.58 167.39 134.54 167.43 135.15 166.86 L 135.86 166.20 C 136.47 165.63 136.50 164.67 135.94 164.06 C 135.37 163.45 134.41 163.41 133.80 163.98 Z M 133.09 164.65 L 132.35 165.33 C 131.74 165.90 131.71 166.86 132.28 167.47 C 132.85 168.08 133.80 168.11 134.41 167.54 L 135.15 166.85 C 135.76 166.28 135.79 165.33 135.22 164.72 C 134.65 164.11 133.70 164.08 133.09 164.65 Z M 132.35 165.34 L 131.59 166.05 C 130.98 166.62 130.95 167.58 131.52 168.18 C 132.09 168.79 133.05 168.82 133.66 168.25 L 134.41 167.54 C 135.02 166.97 135.05 166.01 134.48 165.40 C 133.91 164.80 132.95 164.77 132.35 165.34 Z M 131.59 166.05 L 130.88 166.72 C 130.27 167.29 130.25 168.24 130.82 168.85 C 131.39 169.46 132.34 169.49 132.95 168.91 L 133.66 168.25 C 134.26 167.68 134.29 166.72 133.72 166.11 C 133.15 165.51 132.20 165.48 131.59 166.05 Z M 130.88 166.72 L 130.15 167.40 C 129.54 167.97 129.51 168.93 130.08 169.54 C 130.65 170.14 131.61 170.17 132.22 169.60 L 132.95 168.92 C 133.56 168.35 133.59 167.39 133.02 166.78 C 132.45 166.18 131.49 166.15 130.88 166.72 Z M 130.15 167.40 L 129.40 168.11 C 128.79 168.68 128.76 169.63 129.33 170.24 C 129.90 170.85 130.85 170.88 131.46 170.31 L 132.22 169.60 C 132.82 169.03 132.85 168.08 132.28 167.47 C 131.71 166.86 130.76 166.83 130.15 167.40 Z M 129.39 168.12 L 128.72 168.76 C 128.12 169.34 128.10 170.29 128.68 170.89 C 129.25 171.49 130.21 171.51 130.81 170.94 L 131.47 170.30 C 132.07 169.72 132.09 168.77 131.52 168.17 C 130.94 167.56 129.99 167.54 129.39 168.12 Z M 128.69 168.79 L 127.97 169.52 C 127.38 170.11 127.39 171.07 127.98 171.65 C 128.57 172.24 129.53 172.23 130.12 171.64 L 130.84 170.91 C 131.43 170.32 131.42 169.36 130.83 168.77 C 130.23 168.19 129.28 168.19 128.69 168.79 Z M 127.94 169.53 L 127.51 169.99 C 126.93 170.60 126.95 171.56 127.56 172.14 C 128.17 172.71 129.12 172.69 129.70 172.08 L 130.14 171.62 C 130.72 171.02 130.69 170.06 130.09 169.48 C 129.48 168.90 128.52 168.93 127.94 169.53 Z"
      fill="black"
      fill-rule="nonzero" /></svg>