<svg xmlns="http://www.w3.org/2000/svg" width="300" height="300" viewBox="0 0 300 300">
<path d="M 131.18 130.84 L 132.15 131.09 C 133.00 131.31 133.86 130.80 134.08 129.95 C 134.30 129.10 133.79 128.24 132.94 128.02 L 131.96 127.77 C 131.12 127.55 130.25 128.06 130.04 128.91 C 129.82 129.76 130.33 130.62 131.18 130.84 Z M 132.23 131.11 L 133.20 131.31 C 134.06 131.49 134.90 130.94 135.08 130.08 C 135.26 129.22 134.71 128.38 133.85 128.20 L 132.87 128.00 C 132.01 127.82 131.17 128.37 130.99 129.23 C 130.81 130.09 131.37 130.93 132.23 131.11 Z M 133.35 131.32 L 134.33 131.43 C 135.20 131.53 135.98 130.91 136.07 130.04 C 136.17 129.18 135.55 128.40 134.68 128.30 L 133.70 128.19 C 132.83 128.10 132.05 128.72 131.96 129.58 C 131.86 130.45 132.48 131.23 133.35 131.32 Z M 134.46 131.39 L 135.46 131.42 C 136.30 131.45 137.01 130.78 137.03 129.94 C 137.06 129.10 136.39 128.40 135.55 128.37 L 134.55 128.34 C 133.71 128.32 133.01 128.98 132.98 129.82 C 132.96 130.66 133.62 131.37 134.46 131.39 Z M 135.50 131.38 L 136.50 131.38 C 137.32 131.38 137.98 130.72 137.99 129.90 C 137.99 129.08 137.32 128.42 136.51 128.42 L 135.51 128.42 C 134.69 128.41 134.02 129.08 134.02 129.89 C 134.02 130.71 134.69 131.38 135.50 131.38 Z M 136.50 131.35 L 137.51 131.35 C 138.31 131.35 138.96 130.70 138.96 129.90 C 138.96 129.09 138.31 128.44 137.51 128.44 L 136.50 128.44 C 135.70 128.44 135.05 129.09 135.05 129.90 C 135.05 130.70 135.70 131.35 136.50 131.35 Z M 137.51 131.34 L 138.51 131.34 C 139.31 131.34 139.96 130.70 139.96 129.90 C 139.96 129.10 139.31 128.45 138.51 128.45 L 137.51 128.45 C 136.71 128.45 136.06 129.10 136.06 129.90 C 136.06 130.70 136.71 131.34 137.51 131.34 Z M 138.51 131.33 L 139.51 131.33 C 140.31 131.33 140.95 130.69 140.95 129.90 C 140.95 129.10 140.31 128.46 139.51 128.46 L 138.51 128.46 C 137.72 128.46 137.08 129.10 137.08 129.90 C 137.08 130.69 137.72 131.33 138.51 131.33 Z M 139.51 131.33 L 140.51 131.33 C 141.30 131.33 141.94 130.69 141.94 129.90 C 141.94 129.11 141.30 128.47 140.51 128.47 L 139.51 128.47 C 138.72 128.47 138.08 129.11 138.08 129.90 C 138.08 130.69 138.72 131.33 139.51 131.33 Z"
      fill="black"
      fill-rule="nonzero" /><path d="M 130.78 141.42 L 131.75 141.64 C 132.56 141.82 133.37 141.30 133.55 140.49 C 133.73 139.67 133.22 138.86 132.40 138.68 L 131.43 138.47 C 130.62 138.28 129.81 138.80 129.63 139.62 C 129.45 140.43 129.96 141.24 130.78 141.42 Z M 131.90 141.67 L 132.90 141.78 C 133.73 141.87 134.49 141.27 134.58 140.44 C 134.67 139.60 134.07 138.85 133.24 138.76 L 132.24 138.65 C 131.41 138.55 130.66 139.15 130.56 139.99 C 130.47 140.82 131.07 141.58 131.90 141.67 Z M 133.16 141.79 L 134.04 141.73 C 134.88 141.68 135.51 140.96 135.46 140.12 C 135.41 139.28 134.69 138.64 133.85 138.70 L 132.97 138.75 C 132.13 138.80 131.50 139.53 131.55 140.36 C 131.60 141.20 132.32 141.84 133.16 141.79 Z M 134.22 141.70 L 135.14 141.53 C 135.96 141.38 136.50 140.58 136.35 139.76 C 136.20 138.94 135.40 138.40 134.58 138.55 L 133.66 138.73 C 132.84 138.88 132.30 139.67 132.45 140.49 C 132.61 141.32 133.40 141.86 134.22 141.70 Z M 135.21 141.51 L 136.31 141.25 C 137.12 141.06 137.63 140.25 137.44 139.44 C 137.25 138.63 136.43 138.12 135.62 138.31 L 134.52 138.57 C 133.70 138.76 133.20 139.58 133.39 140.39 C 133.58 141.20 134.39 141.70 135.21 141.51 Z M 136.31 141.24 L 137.31 141.01 C 138.12 140.82 138.62 140.01 138.43 139.20 C 138.24 138.40 137.43 137.90 136.62 138.09 L 135.62 138.32 C 134.82 138.51 134.32 139.32 134.51 140.13 C 134.70 140.93 135.50 141.43 136.31 141.24 Z M 137.30 141.01 L 138.31 140.78 C 139.11 140.59 139.62 139.79 139.43 138.98 C 139.25 138.18 138.45 137.67 137.64 137.86 L 136.63 138.09 C 135.83 138.27 135.32 139.08 135.51 139.88 C 135.69 140.69 136.49 141.19 137.30 141.01 Z M 138.30 140.77 L 139.32 140.54 C 140.13 140.36 140.63 139.56 140.45 138.76 C 140.27 137.96 139.47 137.45 138.67 137.63 L 137.65 137.86 C 136.85 138.04 136.34 138.84 136.52 139.64 C 136.70 140.45 137.50 140.95 138.30 140.77 Z M 139.32 140.54 L 140.28 140.32 C 141.08 140.15 141.59 139.35 141.41 138.55 C 141.23 137.75 140.44 137.25 139.64 137.42 L 138.68 137.64 C 137.88 137.81 137.37 138.61 137.55 139.41 C 137.73 140.21 138.52 140.72 139.32 140.54 Z M 140.28 140.32 L 141.39 140.07 C 142.18 139.90 142.69 139.11 142.51 138.31 C 142.34 137.52 141.55 137.01 140.75 137.19 L 139.65 137.43 C 138.85 137.61 138.34 138.39 138.52 139.19 C 138.69 139.99 139.48 140.49 140.28 140.32 Z M 141.37 140.06 L 142.38 139.85 C 143.17 139.68 143.67 138.91 143.51 138.12 C 143.34 137.33 142.57 136.82 141.78 136.99 L 140.77 137.20 C 139.98 137.37 139.47 138.14 139.64 138.93 C 139.81 139.72 140.58 140.23 141.37 140.06 Z M 142.34 139.84 L 143.12 139.69 C 143.91 139.55 144.42 138.80 144.28 138.01 C 144.14 137.23 143.39 136.71 142.60 136.86 L 141.82 137.00 C 141.04 137.14 140.52 137.89 140.66 138.68 C 140.80 139.46 141.56 139.98 142.34 139.84 Z M 143.04 139.69 L 144.07 139.56 C 144.85 139.46 145.41 138.75 145.31 137.96 C 145.21 137.18 144.49 136.62 143.71 136.72 L 142.68 136.86 C 141.90 136.96 141.34 137.67 141.44 138.46 C 141.54 139.24 142.26 139.79 143.04 139.69 Z M 144.01 139.56 L 144.62 139.51 C 145.40 139.44 145.98 138.75 145.92 137.96 C 145.85 137.18 145.15 136.60 144.37 136.67 L 143.76 136.72 C 142.98 136.79 142.40 137.48 142.47 138.27 C 142.54 139.05 143.23 139.63 144.01 139.56 Z"
      fill="black"
      fill-rule="nonzero" /><path d="M 133.53 148.24 L 132.96 149.12 C 132.51 149.82 132.71 150.75 133.41 151.20 C 134.11 151.65 135.04 151.45 135.49 150.75 L 136.06 149.87 C 136.51 149.17 136.31 148.24 135.61 147.79 C 134.92 147.34 133.98 147.54 133.53 148.24 Z M 134.79 151.36 L 135.31 151.15 C 136.09 150.84 136.48 149.95 136.17 149.17 C 135.86 148.38 134.97 148.00 134.18 148.31 L 133.66 148.52 C 132.88 148.83 132.50 149.72 132.81 150.50 C 133.12 151.29 134.01 151.67 134.79 151.36 Z M 135.59 151.02 L 136.63 150.34 C 137.34 149.87 137.53 148.92 137.06 148.21 C 136.60 147.49 135.64 147.30 134.93 147.77 L 133.90 148.44 C 133.19 148.91 132.99 149.87 133.46 150.58 C 133.93 151.29 134.88 151.49 135.59 151.02 Z M 136.63 150.34 L 137.54 149.74 C 138.25 149.26 138.44 148.30 137.97 147.59 C 137.50 146.88 136.54 146.69 135.83 147.16 L 134.92 147.77 C 134.21 148.24 134.02 149.20 134.49 149.91 C 134.96 150.62 135.92 150.81 136.63 150.34 Z M 137.53 149.74 L 138.37 149.19 C 139.08 148.72 139.28 147.76 138.81 147.05 C 138.34 146.34 137.39 146.15 136.68 146.61 L 135.84 147.16 C 135.13 147.63 134.93 148.59 135.40 149.30 C 135.87 150.01 136.82 150.20 137.53 149.74 Z M 138.37 149.18 L 139.21 148.62 C 139.92 148.16 140.11 147.20 139.64 146.50 C 139.18 145.79 138.22 145.60 137.52 146.06 L 136.68 146.62 C 135.97 147.09 135.78 148.04 136.24 148.75 C 136.71 149.45 137.66 149.65 138.37 149.18 Z M 139.21 148.61 L 140.01 148.07 C 140.71 147.60 140.90 146.65 140.42 145.95 C 139.95 145.26 139.01 145.07 138.31 145.54 L 137.51 146.08 C 136.81 146.55 136.63 147.50 137.10 148.19 C 137.57 148.89 138.52 149.08 139.21 148.61 Z M 140.02 148.05 L 140.81 147.51 C 141.49 147.03 141.67 146.09 141.20 145.41 C 140.72 144.72 139.78 144.55 139.09 145.02 L 138.31 145.56 C 137.62 146.03 137.44 146.97 137.92 147.66 C 138.39 148.35 139.33 148.52 140.02 148.05 Z M 140.82 147.48 L 141.64 146.89 C 142.32 146.41 142.47 145.48 141.99 144.80 C 141.51 144.13 140.57 143.98 139.90 144.46 L 139.08 145.04 C 138.41 145.53 138.25 146.46 138.73 147.14 C 139.21 147.81 140.15 147.96 140.82 147.48 Z M 141.66 146.86 L 142.46 146.26 C 143.12 145.77 143.25 144.84 142.76 144.18 C 142.27 143.53 141.34 143.40 140.68 143.89 L 139.88 144.49 C 139.22 144.98 139.09 145.91 139.58 146.57 C 140.08 147.22 141.01 147.35 141.66 146.86 Z M 142.46 146.24 L 143.26 145.63 C 143.91 145.14 144.04 144.22 143.55 143.58 C 143.06 142.93 142.13 142.80 141.49 143.29 L 140.68 143.90 C 140.04 144.39 139.91 145.32 140.40 145.96 C 140.89 146.61 141.81 146.73 142.46 146.24 Z M 143.25 145.63 L 144.05 145.03 C 144.69 144.54 144.82 143.63 144.33 142.99 C 143.85 142.34 142.94 142.22 142.29 142.70 L 141.50 143.30 C 140.86 143.79 140.73 144.70 141.21 145.34 C 141.70 145.98 142.61 146.11 143.25 145.63 Z M 144.04 145.02 L 144.84 144.42 C 145.47 143.94 145.60 143.03 145.12 142.39 C 144.64 141.76 143.73 141.63 143.09 142.11 L 142.30 142.71 C 141.66 143.19 141.54 144.10 142.02 144.73 C 142.50 145.37 143.40 145.50 144.04 145.02 Z M 144.84 144.40 L 145.63 143.80 C 146.26 143.31 146.38 142.41 145.90 141.78 C 145.42 141.15 144.52 141.03 143.89 141.51 L 143.09 142.12 C 142.46 142.61 142.34 143.51 142.83 144.14 C 143.31 144.77 144.21 144.89 144.84 144.40 Z M 145.64 143.78 L 146.43 143.17 C 147.05 142.68 147.16 141.78 146.68 141.16 C 146.19 140.54 145.29 140.43 144.67 140.91 L 143.88 141.53 C 143.26 142.01 143.15 142.91 143.63 143.53 C 144.12 144.16 145.02 144.27 145.64 143.78 Z M 146.43 143.16 L 146.83 142.85 C 147.45 142.36 147.55 141.46 147.07 140.85 C 146.58 140.23 145.68 140.12 145.06 140.61 L 144.67 140.92 C 144.05 141.41 143.94 142.30 144.43 142.92 C 144.91 143.54 145.81 143.65 146.43 143.16 Z"
      fill="black"
      fill-rule="nonzero" /><path d="M 157.52 115.57 L 156.74 116.19 C 156.08 116.71 155.96 117.68 156.49 118.34 C 157.01 119.00 157.98 119.12 158.64 118.59 L 159.42 117.97 C 160.08 117.45 160.20 116.48 159.67 115.82 C 159.15 115.16 158.18 115.04 157.52 115.57 Z M 156.66 116.20 L 155.90 116.86 C 155.25 117.43 155.18 118.42 155.75 119.08 C 156.32 119.73 157.32 119.80 157.97 119.23 L 158.72 118.57 C 159.38 118.00 159.44 117.01 158.87 116.36 C 158.30 115.70 157.31 115.63 156.66 116.20 Z M 155.79 116.94 L 155.07 117.69 C 154.47 118.32 154.49 119.33 155.12 119.94 C 155.76 120.55 156.77 120.53 157.37 119.89 L 158.09 119.15 C 158.70 118.51 158.67 117.50 158.04 116.90 C 157.40 116.29 156.39 116.31 155.79 116.94 Z M 155.00 117.78 L 154.35 118.57 C 153.79 119.24 153.89 120.24 154.57 120.80 C 155.25 121.36 156.25 121.26 156.80 120.58 L 157.45 119.80 C 158.01 119.12 157.91 118.12 157.23 117.56 C 156.56 117.01 155.55 117.10 155.00 117.78 Z M 154.34 118.61 L 153.73 119.40 C 153.20 120.08 153.32 121.07 154.01 121.60 C 154.69 122.13 155.68 122.01 156.21 121.32 L 156.82 120.54 C 157.35 119.85 157.23 118.86 156.54 118.33 C 155.86 117.80 154.87 117.93 154.34 118.61 Z M 153.74 119.41 L 153.14 120.20 C 152.62 120.87 152.74 121.85 153.42 122.37 C 154.10 122.89 155.07 122.77 155.59 122.09 L 156.20 121.31 C 156.72 120.63 156.60 119.65 155.92 119.13 C 155.24 118.61 154.27 118.73 153.74 119.41 Z M 153.14 120.23 L 152.57 121.00 C 152.06 121.67 152.20 122.63 152.87 123.14 C 153.55 123.64 154.51 123.51 155.01 122.83 L 155.59 122.06 C 156.10 121.38 155.96 120.42 155.28 119.92 C 154.61 119.41 153.65 119.55 153.14 120.23 Z M 152.56 121.02 L 151.97 121.83 C 151.48 122.51 151.62 123.46 152.30 123.95 C 152.98 124.45 153.93 124.30 154.42 123.62 L 155.01 122.81 C 155.51 122.13 155.36 121.18 154.68 120.69 C 154.01 120.19 153.06 120.34 152.56 121.02 Z M 151.98 121.84 L 151.39 122.64 C 150.90 123.31 151.04 124.25 151.72 124.75 C 152.39 125.24 153.33 125.09 153.83 124.42 L 154.41 123.62 C 154.90 122.95 154.76 122.00 154.09 121.51 C 153.41 121.02 152.47 121.16 151.98 121.84 Z M 151.40 122.64 L 150.80 123.45 C 150.31 124.11 150.45 125.05 151.11 125.55 C 151.78 126.04 152.72 125.90 153.21 125.23 L 153.81 124.42 C 154.31 123.76 154.17 122.82 153.50 122.32 C 152.84 121.83 151.90 121.97 151.40 122.64 Z M 150.81 123.45 L 150.21 124.26 C 149.72 124.92 149.86 125.86 150.52 126.35 C 151.18 126.84 152.11 126.70 152.60 126.04 L 153.20 125.23 C 153.69 124.57 153.56 123.64 152.90 123.15 C 152.24 122.65 151.30 122.79 150.81 123.45 Z M 150.21 124.29 L 149.63 125.09 C 149.15 125.75 149.30 126.67 149.96 127.15 C 150.62 127.62 151.54 127.48 152.02 126.82 L 152.60 126.02 C 153.08 125.36 152.93 124.43 152.27 123.96 C 151.61 123.48 150.69 123.63 150.21 124.29 Z M 149.61 125.13 L 149.08 125.91 C 148.63 126.58 148.80 127.49 149.47 127.95 C 150.14 128.40 151.05 128.23 151.51 127.56 L 152.04 126.77 C 152.49 126.10 152.32 125.19 151.65 124.74 C 150.98 124.29 150.07 124.46 149.61 125.13 Z M 149.06 125.96 L 148.51 126.84 C 148.08 127.52 148.28 128.42 148.96 128.85 C 149.64 129.28 150.54 129.07 150.97 128.39 L 151.53 127.51 C 151.95 126.83 151.75 125.93 151.07 125.50 C 150.39 125.08 149.49 125.28 149.06 125.96 Z M 148.50 126.87 L 147.98 127.73 C 147.57 128.42 147.79 129.31 148.48 129.72 C 149.16 130.13 150.05 129.91 150.46 129.22 L 150.98 128.36 C 151.39 127.68 151.17 126.79 150.48 126.38 C 149.80 125.97 148.91 126.19 148.50 126.87 Z M 147.97 127.76 L 147.46 128.65 C 147.07 129.35 147.31 130.23 148.00 130.62 C 148.70 131.01 149.58 130.77 149.97 130.08 L 150.48 129.19 C 150.87 128.50 150.63 127.62 149.94 127.22 C 149.24 126.83 148.36 127.07 147.97 127.76 Z M 147.44 128.71 L 146.96 129.64 C 146.59 130.35 146.87 131.21 147.58 131.58 C 148.28 131.94 149.15 131.66 149.51 130.96 L 149.99 130.02 C 150.36 129.32 150.08 128.45 149.38 128.09 C 148.67 127.73 147.80 128.00 147.44 128.71 Z M 146.93 129.70 L 146.53 130.58 C 146.20 131.30 146.52 132.15 147.24 132.48 C 147.96 132.80 148.81 132.49 149.13 131.77 L 149.54 130.90 C 149.86 130.18 149.55 129.33 148.83 129.00 C 148.11 128.67 147.26 128.99 146.93 129.70 Z M 146.53 130.60 L 146.42 130.85 C 146.10 131.58 146.43 132.42 147.15 132.73 C 147.87 133.05 148.71 132.72 149.03 132.00 L 149.14 131.75 C 149.46 131.03 149.13 130.19 148.41 129.87 C 147.69 129.55 146.84 129.88 146.53 130.60 Z"
      fill="black"
      fill-rule="nonzero" /><path d="M 153.69 125.62 L 154.65 125.42 C 155.46 125.26 155.99 124.47 155.82 123.66 C 155.66 122.85 154.86 122.33 154.05 122.49 L 153.09 122.69 C 152.28 122.85 151.76 123.64 151.92 124.45 C 152.09 125.26 152.88 125.79 153.69 125.62 Z M 154.57 125.48 L 155.57 125.34 C 156.42 125.22 157.00 124.45 156.88 123.60 C 156.77 122.76 155.99 122.17 155.15 122.29 L 154.14 122.43 C 153.30 122.55 152.71 123.33 152.83 124.17 C 152.95 125.01 153.72 125.60 154.57 125.48 Z M 155.44 125.37 L 156.45 125.32 C 157.31 125.27 157.97 124.54 157.93 123.68 C 157.88 122.83 157.15 122.17 156.29 122.21 L 155.28 122.26 C 154.42 122.31 153.76 123.04 153.81 123.90 C 153.85 124.75 154.58 125.41 155.44 125.37 Z M 156.38 125.31 L 157.37 125.31 C 158.23 125.30 158.92 124.60 158.91 123.75 C 158.90 122.89 158.21 122.20 157.35 122.21 L 156.36 122.22 C 155.51 122.22 154.82 122.92 154.82 123.78 C 154.83 124.63 155.53 125.32 156.38 125.31 Z M 157.36 125.29 L 158.37 125.29 C 159.22 125.29 159.91 124.61 159.91 123.76 C 159.91 122.91 159.22 122.22 158.37 122.22 L 157.36 122.22 C 156.51 122.22 155.83 122.91 155.83 123.76 C 155.83 124.61 156.51 125.29 157.36 125.29 Z M 158.37 125.27 L 159.35 125.27 C 160.19 125.27 160.86 124.59 160.86 123.76 C 160.86 122.92 160.19 122.24 159.35 122.24 L 158.37 122.24 C 157.54 122.24 156.86 122.92 156.86 123.76 C 156.86 124.59 157.54 125.27 158.37 125.27 Z M 159.35 125.25 L 160.35 125.25 C 161.17 125.25 161.83 124.58 161.83 123.76 C 161.83 122.94 161.17 122.27 160.35 122.27 L 159.35 122.27 C 158.53 122.27 157.86 122.94 157.86 123.76 C 157.86 124.58 158.53 125.25 159.35 125.25 Z M 160.35 125.22 L 161.37 125.22 C 162.17 125.22 162.83 124.56 162.83 123.76 C 162.83 122.95 162.17 122.30 161.37 122.30 L 160.35 122.30 C 159.54 122.30 158.89 122.95 158.89 123.76 C 158.89 124.56 159.54 125.22 160.35 125.22 Z M 161.36 125.20 L 162.37 125.21 C 163.16 125.21 163.81 124.57 163.82 123.77 C 163.82 122.97 163.18 122.32 162.38 122.32 L 161.37 122.31 C 160.58 122.31 159.93 122.95 159.92 123.75 C 159.92 124.55 160.56 125.20 161.36 125.20 Z M 162.34 125.20 L 163.34 125.22 C 164.13 125.23 164.79 124.61 164.81 123.81 C 164.82 123.02 164.20 122.37 163.40 122.35 L 162.40 122.33 C 161.61 122.31 160.96 122.94 160.94 123.73 C 160.92 124.52 161.55 125.18 162.34 125.20 Z M 163.32 125.21 L 164.31 125.25 C 165.09 125.28 165.76 124.67 165.79 123.88 C 165.82 123.09 165.21 122.43 164.42 122.40 L 163.43 122.36 C 162.64 122.33 161.98 122.94 161.95 123.73 C 161.92 124.52 162.53 125.18 163.32 125.21 Z M 164.30 125.25 L 164.46 125.25 C 165.25 125.29 165.92 124.68 165.95 123.89 C 165.99 123.11 165.38 122.44 164.59 122.41 L 164.42 122.40 C 163.64 122.36 162.97 122.97 162.94 123.76 C 162.90 124.55 163.51 125.21 164.30 125.25 Z"
      fill="black"
      fill-rule="nonzero" /><path d="M 148.68 135.38 L 149.64 135.56 C 150.51 135.73 151.35 135.16 151.52 134.28 C 151.68 133.41 151.11 132.57 150.24 132.41 L 149.27 132.23 C 148.40 132.06 147.56 132.64 147.40 133.51 C 147.23 134.38 147.81 135.22 148.68 135.38 Z M 149.94 135.60 L 150.94 135.60 C 151.83 135.60 152.55 134.88 152.55 133.99 C 152.55 133.10 151.83 132.37 150.94 132.37 L 149.94 132.37 C 149.05 132.37 148.33 133.10 148.33 133.99 C 148.33 134.88 149.05 135.60 149.94 135.60 Z M 151.31 135.55 L 152.24 135.33 C 153.10 135.12 153.64 134.25 153.43 133.38 C 153.22 132.52 152.35 131.99 151.48 132.20 L 150.56 132.42 C 149.69 132.63 149.16 133.50 149.37 134.37 C 149.58 135.23 150.45 135.76 151.31 135.55 Z M 152.41 135.27 L 153.40 134.91 C 154.23 134.60 154.66 133.68 154.36 132.85 C 154.05 132.02 153.13 131.59 152.30 131.90 L 151.31 132.26 C 150.48 132.56 150.05 133.48 150.35 134.31 C 150.66 135.14 151.58 135.57 152.41 135.27 Z M 153.44 134.88 L 154.31 134.54 C 155.13 134.21 155.53 133.29 155.20 132.47 C 154.88 131.66 153.95 131.25 153.14 131.58 L 152.27 131.92 C 151.45 132.25 151.05 133.17 151.37 133.99 C 151.70 134.80 152.62 135.20 153.44 134.88 Z M 154.31 134.52 L 155.24 134.15 C 156.05 133.82 156.44 132.90 156.12 132.09 C 155.79 131.28 154.87 130.89 154.06 131.22 L 153.13 131.59 C 152.32 131.92 151.93 132.84 152.26 133.65 C 152.58 134.46 153.50 134.85 154.31 134.52 Z M 155.24 134.14 L 156.22 133.74 C 157.02 133.42 157.41 132.50 157.09 131.70 C 156.76 130.89 155.84 130.51 155.04 130.83 L 154.06 131.23 C 153.26 131.55 152.87 132.47 153.19 133.27 C 153.52 134.08 154.44 134.46 155.24 134.14 Z M 156.21 133.73 L 157.12 133.37 C 157.92 133.04 158.31 132.14 157.98 131.34 C 157.66 130.54 156.75 130.15 155.96 130.47 L 155.05 130.84 C 154.25 131.16 153.86 132.07 154.18 132.87 C 154.51 133.67 155.42 134.05 156.21 133.73 Z M 157.11 133.36 L 158.06 132.98 C 158.85 132.67 159.24 131.77 158.92 130.97 C 158.61 130.18 157.71 129.79 156.91 130.11 L 155.97 130.48 C 155.17 130.80 154.79 131.70 155.10 132.49 C 155.42 133.29 156.32 133.67 157.11 133.36 Z M 158.04 132.98 L 158.98 132.61 C 159.78 132.31 160.17 131.42 159.87 130.63 C 159.56 129.84 158.67 129.44 157.88 129.75 L 156.93 130.11 C 156.14 130.42 155.75 131.31 156.05 132.10 C 156.36 132.89 157.24 133.28 158.04 132.98 Z M 158.95 132.61 L 159.98 132.23 C 160.76 131.95 161.17 131.07 160.88 130.28 C 160.59 129.50 159.72 129.09 158.93 129.38 L 157.91 129.75 C 157.12 130.04 156.72 130.91 157.00 131.70 C 157.29 132.49 158.17 132.90 158.95 132.61 Z M 159.94 132.23 L 160.90 131.90 C 161.68 131.63 162.10 130.78 161.84 130.00 C 161.57 129.21 160.72 128.79 159.93 129.06 L 158.97 129.39 C 158.19 129.65 157.77 130.51 158.03 131.29 C 158.30 132.07 159.15 132.49 159.94 132.23 Z M 160.85 131.89 L 161.71 131.63 C 162.49 131.39 162.93 130.56 162.69 129.78 C 162.45 129.00 161.63 128.56 160.85 128.80 L 159.98 129.07 C 159.20 129.30 158.77 130.13 159.00 130.91 C 159.24 131.69 160.07 132.13 160.85 131.89 Z M 161.63 131.63 L 162.67 131.37 C 163.45 131.18 163.93 130.39 163.73 129.61 C 163.54 128.82 162.75 128.35 161.97 128.54 L 160.93 128.80 C 160.15 129.00 159.67 129.79 159.87 130.57 C 160.06 131.35 160.85 131.82 161.63 131.63 Z M 162.59 131.37 L 163.50 131.19 C 164.28 131.04 164.79 130.28 164.64 129.51 C 164.49 128.73 163.73 128.22 162.95 128.37 L 162.04 128.55 C 161.27 128.70 160.76 129.45 160.91 130.23 C 161.06 131.01 161.81 131.52 162.59 131.37 Z"
      fill="black"
      fill-rule="nonzero" /><path d="M 147.89 142.12 L 148.83 142.39 C 149.64 142.62 150.47 142.15 150.70 141.35 C 150.93 140.55 150.47 139.71 149.67 139.48 L 148.73 139.21 C 147.92 138.98 147.09 139.45 146.86 140.25 C 146.63 141.05 147.09 141.89 147.89 142.12 Z M 149.06 142.48 L 150.06 142.60 C 150.91 142.70 151.68 142.10 151.79 141.24 C 151.89 140.39 151.29 139.61 150.43 139.51 L 149.44 139.39 C 148.59 139.28 147.81 139.89 147.71 140.74 C 147.60 141.60 148.21 142.37 149.06 142.48 Z M 150.44 142.62 L 151.44 142.49 C 152.30 142.38 152.91 141.59 152.80 140.73 C 152.69 139.86 151.90 139.25 151.04 139.37 L 150.04 139.49 C 149.18 139.60 148.57 140.39 148.68 141.26 C 148.79 142.12 149.58 142.73 150.44 142.62 Z M 151.69 142.42 L 152.67 142.12 C 153.50 141.87 153.96 141.00 153.71 140.18 C 153.47 139.36 152.60 138.89 151.77 139.14 L 150.79 139.43 C 149.96 139.68 149.50 140.55 149.75 141.38 C 149.99 142.20 150.86 142.67 151.69 142.42 Z M 152.77 142.07 L 153.71 141.71 C 154.50 141.41 154.90 140.52 154.60 139.73 C 154.30 138.93 153.41 138.54 152.62 138.84 L 151.68 139.19 C 150.88 139.50 150.49 140.38 150.79 141.18 C 151.09 141.97 151.97 142.37 152.77 142.07 Z M 153.72 141.68 L 154.69 141.30 C 155.47 140.99 155.85 140.11 155.54 139.33 C 155.23 138.55 154.35 138.17 153.57 138.48 L 152.60 138.86 C 151.83 139.17 151.45 140.05 151.75 140.83 C 152.06 141.61 152.94 141.99 153.72 141.68 Z M 154.69 141.28 L 155.55 140.94 C 156.32 140.63 156.69 139.76 156.39 138.99 C 156.08 138.22 155.21 137.85 154.44 138.15 L 153.58 138.50 C 152.81 138.80 152.43 139.68 152.74 140.44 C 153.05 141.21 153.92 141.59 154.69 141.28 Z M 155.54 140.93 L 156.47 140.56 C 157.23 140.26 157.61 139.40 157.31 138.63 C 157.00 137.87 156.14 137.50 155.38 137.80 L 154.45 138.16 C 153.69 138.46 153.31 139.33 153.62 140.09 C 153.92 140.85 154.78 141.23 155.54 140.93 Z M 156.46 140.55 L 157.39 140.19 C 158.15 139.89 158.53 139.03 158.23 138.27 C 157.93 137.52 157.08 137.14 156.32 137.44 L 155.39 137.80 C 154.63 138.10 154.25 138.96 154.55 139.72 C 154.85 140.48 155.70 140.85 156.46 140.55 Z M 157.39 140.18 L 158.32 139.81 C 159.08 139.52 159.45 138.67 159.15 137.91 C 158.86 137.16 158.01 136.79 157.25 137.08 L 156.32 137.45 C 155.57 137.74 155.19 138.59 155.49 139.35 C 155.78 140.10 156.64 140.47 157.39 140.18 Z M 158.32 139.81 L 159.14 139.49 C 159.89 139.20 160.26 138.35 159.97 137.60 C 159.68 136.85 158.83 136.48 158.08 136.77 L 157.26 137.09 C 156.51 137.38 156.14 138.23 156.43 138.98 C 156.72 139.73 157.57 140.10 158.32 139.81 Z M 159.12 139.49 L 159.98 139.16 C 160.73 138.88 161.11 138.05 160.83 137.30 C 160.55 136.55 159.71 136.17 158.96 136.45 L 158.10 136.77 C 157.35 137.05 156.97 137.89 157.25 138.64 C 157.53 139.39 158.37 139.77 159.12 139.49 Z M 159.95 139.17 L 161.04 138.78 C 161.79 138.52 162.19 137.69 161.92 136.94 C 161.66 136.19 160.84 135.80 160.09 136.06 L 158.99 136.45 C 158.24 136.71 157.84 137.53 158.11 138.28 C 158.37 139.04 159.20 139.43 159.95 139.17 Z M 161.03 138.79 L 161.84 138.51 C 162.60 138.26 163.00 137.44 162.75 136.68 C 162.49 135.93 161.67 135.52 160.92 135.78 L 160.10 136.05 C 159.34 136.31 158.94 137.13 159.20 137.89 C 159.45 138.64 160.27 139.05 161.03 138.79 Z M 161.84 138.53 L 162.77 138.22 C 163.53 137.96 163.94 137.14 163.69 136.38 C 163.43 135.61 162.61 135.20 161.84 135.46 L 160.92 135.76 C 160.16 136.02 159.74 136.84 160.00 137.61 C 160.25 138.37 161.08 138.78 161.84 138.53 Z M 162.77 138.23 L 163.77 137.90 C 164.54 137.64 164.96 136.81 164.70 136.04 C 164.45 135.27 163.62 134.86 162.85 135.11 L 161.85 135.44 C 161.08 135.70 160.66 136.53 160.91 137.30 C 161.17 138.06 162.00 138.48 162.77 138.23 Z M 163.77 137.91 L 164.82 137.56 C 165.60 137.30 166.02 136.47 165.76 135.70 C 165.51 134.92 164.67 134.50 163.90 134.76 L 162.85 135.10 C 162.07 135.36 161.65 136.19 161.91 136.97 C 162.16 137.74 163.00 138.16 163.77 137.91 Z M 164.82 137.57 L 165.19 137.45 C 165.97 137.19 166.39 136.35 166.14 135.57 C 165.88 134.80 165.04 134.37 164.26 134.63 L 163.90 134.75 C 163.12 135.01 162.70 135.84 162.95 136.62 C 163.21 137.40 164.05 137.82 164.82 137.57 Z"
      fill="black"
      fill-rule="nonzero" /><path d="M 157.45 132.32 L 157.31 133.30 C 157.19 134.16 157.78 134.95 158.64 135.07 C 159.49 135.19 160.28 134.60 160.40 133.74 L 160.54 132.76 C 160.66 131.91 160.07 131.12 159.22 131.00 C 158.36 130.88 157.57 131.47 157.45 132.32 Z M 157.28 133.37 L 157.19 134.37 C 157.11 135.24 157.74 136.01 158.61 136.09 C 159.48 136.18 160.25 135.54 160.33 134.67 L 160.43 133.67 C 160.51 132.80 159.88 132.03 159.01 131.95 C 158.14 131.87 157.37 132.50 157.28 133.37 Z M 157.17 134.50 L 157.16 135.53 C 157.15 136.41 157.85 137.13 158.73 137.14 C 159.61 137.15 160.33 136.45 160.34 135.57 L 160.35 134.54 C 160.36 133.66 159.66 132.94 158.78 132.93 C 157.90 132.92 157.18 133.62 157.17 134.50 Z M 157.16 135.64 L 157.22 136.65 C 157.27 137.53 158.02 138.20 158.90 138.15 C 159.77 138.10 160.44 137.35 160.39 136.47 L 160.34 135.46 C 160.29 134.58 159.54 133.91 158.66 133.96 C 157.78 134.01 157.11 134.76 157.16 135.64 Z M 157.23 136.71 L 157.32 137.71 C 157.40 138.58 158.17 139.22 159.05 139.14 C 159.92 139.06 160.56 138.28 160.48 137.41 L 160.38 136.42 C 160.30 135.54 159.53 134.90 158.66 134.98 C 157.79 135.07 157.15 135.84 157.23 136.71 Z M 157.33 137.73 L 157.44 138.71 C 157.53 139.57 158.30 140.20 159.17 140.11 C 160.03 140.02 160.66 139.24 160.57 138.38 L 160.46 137.39 C 160.37 136.53 159.60 135.90 158.73 135.99 C 157.87 136.09 157.24 136.86 157.33 137.73 Z M 157.45 138.69 L 157.54 139.64 C 157.62 140.50 158.38 141.13 159.24 141.05 C 160.10 140.97 160.73 140.21 160.65 139.35 L 160.56 138.40 C 160.48 137.54 159.72 136.91 158.86 136.99 C 158.00 137.07 157.37 137.83 157.45 138.69 Z M 157.55 139.62 L 157.62 140.62 C 157.69 141.47 158.43 142.11 159.28 142.05 C 160.14 141.98 160.78 141.24 160.71 140.39 L 160.64 139.38 C 160.57 138.53 159.83 137.89 158.98 137.96 C 158.12 138.02 157.48 138.76 157.55 139.62 Z M 157.64 140.61 L 157.71 141.61 C 157.77 142.45 158.50 143.09 159.35 143.03 C 160.19 142.97 160.83 142.24 160.77 141.39 L 160.70 140.39 C 160.64 139.55 159.91 138.91 159.06 138.97 C 158.21 139.03 157.58 139.76 157.64 140.61 Z M 157.72 141.60 L 157.78 142.60 C 157.83 143.44 158.56 144.08 159.40 144.02 C 160.24 143.97 160.87 143.25 160.82 142.41 L 160.76 141.40 C 160.71 140.56 159.98 139.93 159.14 139.98 C 158.30 140.03 157.67 140.76 157.72 141.60 Z M 157.79 142.57 L 157.84 143.57 C 157.88 144.40 158.58 145.04 159.42 145.00 C 160.25 144.97 160.89 144.26 160.86 143.43 L 160.81 142.43 C 160.77 141.60 160.06 140.96 159.23 141.00 C 158.40 141.03 157.76 141.74 157.79 142.57 Z M 157.85 143.55 L 157.89 144.56 C 157.92 145.38 158.61 146.03 159.44 146.00 C 160.26 145.97 160.91 145.27 160.88 144.45 L 160.84 143.44 C 160.81 142.62 160.12 141.97 159.29 142.00 C 158.47 142.03 157.82 142.72 157.85 143.55 Z M 157.90 144.55 L 157.94 145.57 C 157.97 146.39 158.65 147.03 159.47 147.00 C 160.29 146.97 160.93 146.28 160.90 145.47 L 160.87 144.45 C 160.84 143.63 160.15 142.99 159.33 143.02 C 158.51 143.05 157.87 143.74 157.90 144.55 Z M 157.95 145.57 L 157.99 146.56 C 158.02 147.37 158.70 148.00 159.51 147.97 C 160.32 147.94 160.96 147.26 160.93 146.45 L 160.89 145.46 C 160.86 144.65 160.18 144.02 159.37 144.05 C 158.55 144.08 157.92 144.76 157.95 145.57 Z M 158.00 146.56 L 158.03 147.51 C 158.06 148.31 158.74 148.94 159.55 148.91 C 160.35 148.88 160.98 148.20 160.95 147.40 L 160.91 146.45 C 160.88 145.64 160.21 145.01 159.40 145.05 C 158.59 145.08 157.97 145.75 158.00 146.56 Z M 158.04 147.51 L 158.08 148.55 C 158.12 149.36 158.79 149.98 159.59 149.95 C 160.39 149.91 161.02 149.24 160.98 148.44 L 160.94 147.39 C 160.91 146.59 160.23 145.97 159.43 146.00 C 158.63 146.03 158.01 146.71 158.04 147.51 Z M 158.09 148.56 L 158.13 149.51 C 158.17 150.31 158.84 150.93 159.64 150.89 C 160.44 150.85 161.06 150.18 161.02 149.38 L 160.98 148.43 C 160.94 147.63 160.27 147.02 159.47 147.05 C 158.67 147.09 158.05 147.76 158.09 148.56 Z M 158.14 149.52 L 158.19 150.56 C 158.24 151.35 158.92 151.96 159.71 151.92 C 160.51 151.87 161.11 151.19 161.07 150.40 L 161.01 149.37 C 160.97 148.57 160.29 147.96 159.50 148.01 C 158.70 148.05 158.09 148.73 158.14 149.52 Z M 158.20 150.58 L 158.28 151.62 C 158.33 152.41 159.02 153.00 159.81 152.94 C 160.60 152.89 161.20 152.20 161.14 151.41 L 161.07 150.37 C 161.01 149.58 160.32 148.99 159.53 149.05 C 158.74 149.10 158.14 149.79 158.20 150.58 Z M 158.28 151.65 L 158.38 152.65 C 158.45 153.43 159.15 154.01 159.93 153.94 C 160.72 153.86 161.30 153.17 161.23 152.38 L 161.13 151.38 C 161.06 150.59 160.36 150.01 159.57 150.09 C 158.79 150.16 158.21 150.86 158.28 151.65 Z M 158.38 152.66 L 158.48 153.64 C 158.57 154.42 159.27 154.99 160.05 154.91 C 160.84 154.83 161.41 154.12 161.32 153.34 L 161.22 152.36 C 161.14 151.58 160.44 151.01 159.65 151.09 C 158.87 151.17 158.30 151.88 158.38 152.66 Z M 158.49 153.64 L 158.49 153.69 C 158.58 154.47 159.28 155.04 160.06 154.96 C 160.84 154.87 161.41 154.17 161.33 153.39 L 161.32 153.34 C 161.24 152.55 160.54 151.99 159.75 152.07 C 158.97 152.15 158.40 152.86 158.49 153.64 Z"
      fill="black"
      fill-rule="nonzero" /><path d="M 159.10 137.59 L 158.19 137.81 C 157.36 138.01 156.86 138.84 157.05 139.66 C 157.25 140.48 158.08 140.99 158.91 140.79 L 159.82 140.57 C 160.64 140.37 161.15 139.54 160.95 138.72 C 160.75 137.90 159.92 137.39 159.10 137.59 Z M 157.86 137.89 L 156.95 138.33 C 156.17 138.70 155.84 139.64 156.22 140.42 C 156.59 141.21 157.53 141.53 158.31 141.16 L 159.23 140.72 C 160.01 140.34 160.34 139.40 159.96 138.62 C 159.58 137.84 158.64 137.51 157.86 137.89 Z M 156.67 138.48 L 155.98 139.01 C 155.28 139.54 155.15 140.54 155.68 141.23 C 156.21 141.93 157.21 142.06 157.91 141.53 L 158.60 141.00 C 159.29 140.47 159.43 139.47 158.89 138.78 C 158.36 138.08 157.36 137.95 156.67 138.48 Z M 155.86 139.11 L 155.10 139.82 C 154.46 140.42 154.42 141.42 155.02 142.06 C 155.62 142.70 156.62 142.74 157.27 142.14 L 158.03 141.43 C 158.67 140.83 158.70 139.83 158.10 139.18 C 157.51 138.54 156.50 138.51 155.86 139.11 Z M 155.04 139.87 L 154.26 140.68 C 153.65 141.31 153.66 142.31 154.29 142.92 C 154.92 143.53 155.92 143.52 156.53 142.89 L 157.32 142.09 C 157.93 141.46 157.92 140.45 157.29 139.84 C 156.66 139.23 155.66 139.24 155.04 139.87 Z M 154.24 140.71 L 153.53 141.47 C 152.94 142.11 152.97 143.10 153.61 143.70 C 154.25 144.29 155.25 144.26 155.84 143.62 L 156.55 142.86 C 157.15 142.23 157.11 141.23 156.47 140.63 C 155.84 140.04 154.84 140.07 154.24 140.71 Z M 153.53 141.49 L 152.83 142.26 C 152.24 142.90 152.29 143.89 152.93 144.47 C 153.57 145.06 154.56 145.01 155.14 144.37 L 155.85 143.60 C 156.43 142.96 156.38 141.97 155.74 141.39 C 155.10 140.80 154.11 140.85 153.53 141.49 Z M 152.83 142.28 L 152.18 143.00 C 151.61 143.63 151.66 144.62 152.30 145.19 C 152.94 145.77 153.93 145.71 154.50 145.07 L 155.14 144.35 C 155.72 143.71 155.66 142.73 155.02 142.16 C 154.38 141.58 153.40 141.64 152.83 142.28 Z M 152.19 143.02 L 151.46 143.84 C 150.90 144.47 150.96 145.44 151.60 146.01 C 152.23 146.57 153.20 146.51 153.77 145.87 L 154.49 145.05 C 155.05 144.42 155.00 143.45 154.36 142.88 C 153.72 142.32 152.75 142.38 152.19 143.02 Z M 151.48 143.86 L 150.85 144.58 C 150.30 145.21 150.37 146.16 150.99 146.71 C 151.62 147.26 152.58 147.19 153.12 146.56 L 153.75 145.85 C 154.30 145.22 154.24 144.27 153.61 143.72 C 152.98 143.17 152.03 143.23 151.48 143.86 Z M 150.88 144.59 L 150.28 145.27 C 149.74 145.88 149.80 146.82 150.41 147.36 C 151.03 147.90 151.96 147.84 152.50 147.23 L 153.10 146.55 C 153.64 145.94 153.58 145.00 152.97 144.46 C 152.35 143.92 151.42 143.98 150.88 144.59 Z M 150.31 145.27 L 149.64 146.02 C 149.10 146.62 149.15 147.54 149.74 148.08 C 150.34 148.62 151.27 148.57 151.80 147.97 L 152.48 147.22 C 153.01 146.62 152.97 145.70 152.37 145.16 C 151.77 144.62 150.85 144.67 150.31 145.27 Z M 149.65 146.02 L 148.97 146.77 C 148.44 147.36 148.48 148.27 149.07 148.81 C 149.66 149.35 150.57 149.30 151.11 148.71 L 151.79 147.96 C 152.32 147.37 152.28 146.46 151.69 145.93 C 151.10 145.39 150.19 145.43 149.65 146.02 Z M 148.98 146.78 L 148.31 147.52 C 147.77 148.11 147.82 149.01 148.41 149.55 C 148.99 150.08 149.90 150.03 150.43 149.45 L 151.10 148.70 C 151.64 148.12 151.59 147.21 151.00 146.68 C 150.42 146.15 149.51 146.19 148.98 146.78 Z M 148.30 147.53 L 147.64 148.28 C 147.11 148.87 147.17 149.78 147.76 150.30 C 148.35 150.82 149.25 150.77 149.78 150.18 L 150.44 149.43 C 150.96 148.84 150.91 147.94 150.32 147.41 C 149.73 146.89 148.82 146.94 148.30 147.53 Z M 147.62 148.30 L 146.97 149.06 C 146.46 149.66 146.52 150.56 147.12 151.07 C 147.72 151.59 148.62 151.52 149.13 150.92 L 149.79 150.16 C 150.30 149.56 150.23 148.66 149.64 148.15 C 149.04 147.63 148.14 147.70 147.62 148.30 Z M 146.95 149.07 L 146.31 149.84 C 145.80 150.45 145.88 151.35 146.49 151.86 C 147.10 152.37 148.01 152.29 148.51 151.68 L 149.15 150.91 C 149.66 150.30 149.58 149.40 148.97 148.89 C 148.36 148.38 147.46 148.46 146.95 149.07 Z M 146.28 149.83 L 145.65 150.60 C 145.14 151.23 145.23 152.15 145.86 152.66 C 146.48 153.17 147.40 153.08 147.91 152.45 L 148.54 151.68 C 149.05 151.06 148.96 150.14 148.34 149.63 C 147.71 149.11 146.79 149.21 146.28 149.83 Z M 145.63 150.59 L 145.44 150.82 C 144.93 151.46 145.02 152.39 145.66 152.91 C 146.30 153.43 147.23 153.33 147.75 152.69 L 147.93 152.46 C 148.45 151.83 148.35 150.89 147.72 150.38 C 147.08 149.86 146.15 149.96 145.63 150.59 Z"
      fill="black"
      fill-rule="nonzero" /><path d="M 163.54 144.48 L 164.37 145.07 C 165.06 145.55 166.01 145.38 166.48 144.69 C 166.96 144.00 166.79 143.06 166.11 142.58 L 165.27 141.99 C 164.58 141.52 163.63 141.69 163.16 142.37 C 162.68 143.06 162.85 144.01 163.54 144.48 Z M 164.57 145.19 L 165.43 145.61 C 166.19 145.98 167.10 145.67 167.47 144.91 C 167.84 144.15 167.53 143.24 166.77 142.87 L 165.91 142.45 C 165.15 142.08 164.24 142.40 163.87 143.16 C 163.50 143.91 163.82 144.82 164.57 145.19 Z M 165.81 145.74 L 166.76 145.93 C 167.58 146.09 168.39 145.55 168.55 144.73 C 168.71 143.90 168.17 143.09 167.35 142.93 L 166.40 142.74 C 165.57 142.58 164.77 143.12 164.60 143.95 C 164.44 144.77 164.98 145.58 165.81 145.74 Z M 166.97 145.95 L 167.97 146.00 C 168.81 146.05 169.52 145.41 169.57 144.57 C 169.62 143.73 168.97 143.01 168.13 142.96 L 167.13 142.91 C 166.30 142.86 165.58 143.51 165.53 144.35 C 165.49 145.19 166.13 145.90 166.97 145.95 Z M 168.03 145.99 L 169.03 146.00 C 169.86 146.02 170.55 145.35 170.56 144.52 C 170.57 143.69 169.91 143.00 169.07 142.99 L 168.07 142.98 C 167.24 142.97 166.56 143.63 166.55 144.46 C 166.53 145.30 167.20 145.98 168.03 145.99 Z M 169.05 145.99 L 169.87 145.99 C 170.69 145.99 171.35 145.32 171.36 144.50 C 171.36 143.68 170.69 143.01 169.87 143.01 L 169.05 143.01 C 168.23 143.01 167.57 143.68 167.57 144.50 C 167.56 145.32 168.23 145.98 169.05 145.99 Z"
      fill="black"
      fill-rule="nonzero" /><path d="M 142.83 162.20 L 143.77 161.91 C 144.58 161.66 145.03 160.80 144.78 160.00 C 144.52 159.19 143.67 158.74 142.86 158.99 L 141.93 159.28 C 141.12 159.53 140.67 160.39 140.92 161.19 C 141.17 162.00 142.03 162.45 142.83 162.20 Z M 143.75 161.95 L 144.72 161.67 C 145.55 161.43 146.03 160.57 145.79 159.74 C 145.55 158.91 144.68 158.43 143.85 158.67 L 142.88 158.95 C 142.05 159.19 141.58 160.05 141.81 160.88 C 142.05 161.71 142.92 162.19 143.75 161.95 Z M 144.67 161.70 L 145.61 161.47 C 146.46 161.25 146.97 160.40 146.76 159.55 C 146.55 158.71 145.70 158.19 144.85 158.40 L 143.90 158.64 C 143.06 158.85 142.54 159.71 142.75 160.55 C 142.97 161.40 143.82 161.91 144.67 161.70 Z M 145.57 161.46 L 146.55 161.25 C 147.39 161.06 147.92 160.22 147.74 159.38 C 147.55 158.53 146.71 158.00 145.87 158.19 L 144.89 158.40 C 144.05 158.59 143.51 159.43 143.70 160.27 C 143.89 161.12 144.73 161.65 145.57 161.46 Z M 146.53 161.24 L 147.55 161.02 C 148.39 160.84 148.92 160.02 148.75 159.18 C 148.57 158.35 147.75 157.81 146.91 157.99 L 145.89 158.20 C 145.05 158.38 144.51 159.20 144.69 160.04 C 144.87 160.88 145.69 161.41 146.53 161.24 Z M 147.54 161.01 L 148.57 160.80 C 149.41 160.62 149.94 159.81 149.77 158.97 C 149.59 158.14 148.78 157.61 147.94 157.78 L 146.91 158.00 C 146.08 158.17 145.55 158.99 145.72 159.82 C 145.90 160.65 146.71 161.18 147.54 161.01 Z M 148.57 160.79 L 149.54 160.59 C 150.37 160.42 150.90 159.61 150.73 158.78 C 150.56 157.95 149.75 157.42 148.92 157.59 L 147.95 157.79 C 147.12 157.96 146.58 158.77 146.75 159.60 C 146.93 160.43 147.74 160.96 148.57 160.79 Z M 149.52 160.58 L 150.53 160.38 C 151.36 160.22 151.89 159.42 151.73 158.60 C 151.57 157.77 150.77 157.23 149.94 157.40 L 148.93 157.59 C 148.11 157.76 147.57 158.56 147.73 159.38 C 147.90 160.21 148.70 160.74 149.52 160.58 Z M 150.51 160.36 L 151.44 160.19 C 152.26 160.04 152.80 159.25 152.64 158.44 C 152.49 157.62 151.71 157.09 150.89 157.24 L 149.96 157.42 C 149.15 157.57 148.61 158.35 148.76 159.17 C 148.92 159.98 149.70 160.52 150.51 160.36 Z M 151.45 160.17 L 152.40 159.98 C 153.20 159.83 153.72 159.05 153.56 158.25 C 153.41 157.44 152.63 156.92 151.83 157.08 L 150.88 157.26 C 150.08 157.42 149.56 158.20 149.72 159.00 C 149.87 159.80 150.65 160.32 151.45 160.17 Z M 152.40 159.97 L 153.38 159.77 C 154.17 159.61 154.68 158.84 154.52 158.04 C 154.36 157.25 153.59 156.74 152.80 156.90 L 151.82 157.09 C 151.03 157.26 150.52 158.03 150.68 158.82 C 150.84 159.61 151.61 160.13 152.40 159.97 Z M 153.38 159.76 L 154.30 159.57 C 155.09 159.41 155.59 158.64 155.43 157.85 C 155.27 157.07 154.50 156.56 153.72 156.72 L 152.80 156.91 C 152.01 157.07 151.50 157.84 151.66 158.62 C 151.82 159.41 152.59 159.92 153.38 159.76 Z M 154.31 159.56 L 155.35 159.33 C 156.12 159.16 156.62 158.39 156.45 157.62 C 156.28 156.84 155.51 156.34 154.73 156.51 L 153.70 156.73 C 152.92 156.90 152.43 157.67 152.60 158.45 C 152.77 159.23 153.54 159.72 154.31 159.56 Z M 155.36 159.32 L 156.32 159.10 C 157.10 158.92 157.58 158.15 157.40 157.38 C 157.22 156.61 156.45 156.12 155.68 156.30 L 154.72 156.52 C 153.95 156.70 153.46 157.47 153.64 158.24 C 153.82 159.02 154.59 159.50 155.36 159.32 Z M 156.33 159.09 L 157.34 158.85 C 158.11 158.67 158.58 157.90 158.40 157.13 C 158.21 156.36 157.44 155.88 156.67 156.07 L 155.67 156.31 C 154.90 156.49 154.42 157.27 154.61 158.03 C 154.79 158.80 155.57 159.28 156.33 159.09 Z M 157.35 158.85 L 158.36 158.60 C 159.12 158.40 159.59 157.63 159.39 156.86 C 159.20 156.10 158.43 155.63 157.66 155.82 L 156.66 156.07 C 155.89 156.27 155.43 157.04 155.62 157.81 C 155.81 158.57 156.59 159.04 157.35 158.85 Z M 158.37 158.59 L 159.33 158.34 C 160.09 158.14 160.55 157.36 160.35 156.60 C 160.15 155.84 159.37 155.38 158.61 155.58 L 157.65 155.83 C 156.89 156.03 156.43 156.81 156.63 157.57 C 156.83 158.33 157.60 158.79 158.37 158.59 Z M 159.33 158.34 L 160.01 158.16 C 160.77 157.96 161.23 157.18 161.03 156.41 C 160.82 155.65 160.04 155.20 159.28 155.40 L 158.60 155.58 C 157.84 155.78 157.39 156.56 157.59 157.32 C 157.79 158.08 158.57 158.54 159.33 158.34 Z"
      fill="black"
      fill-rule="nonzero" /><path d="M 148.64 154.94 L 148.58 155.82 C 148.52 156.66 149.15 157.39 149.99 157.45 C 150.83 157.51 151.56 156.88 151.62 156.04 L 151.68 155.16 C 151.74 154.32 151.11 153.59 150.27 153.53 C 149.43 153.47 148.70 154.10 148.64 154.94 Z M 148.55 155.86 L 148.51 156.96 C 148.47 157.81 149.13 158.54 149.98 158.57 C 150.83 158.61 151.56 157.95 151.59 157.10 L 151.64 156.00 C 151.68 155.14 151.02 154.42 150.17 154.38 C 149.31 154.35 148.59 155.01 148.55 155.86 Z M 148.51 157.00 L 148.49 158.00 C 148.48 158.85 149.16 159.55 150.01 159.57 C 150.85 159.58 151.56 158.90 151.57 158.05 L 151.59 157.06 C 151.60 156.21 150.93 155.51 150.08 155.49 C 149.23 155.48 148.53 156.15 148.51 157.00 Z M 148.53 158.02 L 148.53 159.07 C 148.52 159.90 149.19 160.57 150.02 160.58 C 150.85 160.58 151.52 159.92 151.53 159.09 L 151.53 158.04 C 151.54 157.21 150.87 156.53 150.04 156.53 C 149.21 156.52 148.54 157.19 148.53 158.02 Z M 148.57 159.08 L 148.56 160.05 C 148.56 160.86 149.22 161.52 150.02 161.52 C 150.83 161.52 151.49 160.86 151.49 160.06 L 151.49 159.08 C 151.49 158.27 150.83 157.62 150.03 157.62 C 149.22 157.62 148.57 158.27 148.57 159.08 Z M 148.59 160.06 L 148.59 161.17 C 148.59 161.97 149.23 162.61 150.03 162.61 C 150.82 162.61 151.46 161.97 151.46 161.17 L 151.46 160.06 C 151.46 159.26 150.82 158.62 150.03 158.62 C 149.23 158.62 148.59 159.26 148.59 160.06 Z M 148.60 161.17 L 148.60 162.05 C 148.60 162.84 149.24 163.48 150.03 163.48 C 150.81 163.48 151.45 162.84 151.45 162.05 L 151.45 161.17 C 151.45 160.38 150.81 159.74 150.03 159.74 C 149.24 159.74 148.60 160.38 148.60 161.17 Z M 148.60 162.05 L 148.60 163.04 C 148.60 163.83 149.24 164.47 150.03 164.47 C 150.81 164.47 151.45 163.83 151.45 163.04 L 151.45 162.05 C 151.45 161.26 150.81 160.63 150.03 160.63 C 149.24 160.63 148.60 161.26 148.60 162.05 Z M 148.60 163.04 L 148.60 163.77 C 148.60 164.55 149.24 165.19 150.03 165.19 C 150.81 165.19 151.45 164.55 151.45 163.77 L 151.45 163.04 C 151.45 162.25 150.81 161.61 150.03 161.61 C 149.24 161.61 148.60 162.25 148.60 163.04 Z"
      fill="black"
      fill-rule="nonzero" /><path d="M 138.43 167.73 L 137.50 168.13 C 136.74 168.47 136.39 169.35 136.72 170.12 C 137.05 170.88 137.94 171.23 138.70 170.90 L 139.63 170.49 C 140.39 170.16 140.74 169.28 140.41 168.51 C 140.08 167.75 139.19 167.40 138.43 167.73 Z M 137.49 168.10 L 136.45 168.55 C 135.67 168.88 135.30 169.79 135.64 170.57 C 135.98 171.36 136.89 171.72 137.67 171.38 L 138.71 170.93 C 139.50 170.60 139.86 169.69 139.52 168.90 C 139.18 168.12 138.28 167.76 137.49 168.10 Z M 135.85 168.90 L 135.59 169.20 C 135.01 169.87 135.07 170.88 135.74 171.47 C 136.40 172.05 137.42 171.99 138.01 171.32 L 138.27 171.03 C 138.85 170.36 138.79 169.34 138.12 168.76 C 137.45 168.17 136.44 168.24 135.85 168.90 Z M 136.85 171.92 L 137.68 171.89 C 138.60 171.86 139.32 171.10 139.29 170.18 C 139.26 169.27 138.49 168.55 137.58 168.58 L 136.75 168.60 C 135.83 168.63 135.11 169.40 135.14 170.31 C 135.17 171.23 135.94 171.95 136.85 171.92 Z M 137.79 171.91 L 139.11 171.78 C 140.04 171.69 140.71 170.87 140.62 169.94 C 140.53 169.02 139.71 168.34 138.79 168.43 L 137.47 168.56 C 136.54 168.65 135.87 169.47 135.96 170.40 C 136.05 171.32 136.87 172.00 137.79 171.91 Z M 139.14 171.79 L 140.14 171.67 C 141.07 171.57 141.74 170.73 141.63 169.80 C 141.53 168.87 140.69 168.21 139.76 168.31 L 138.76 168.43 C 137.83 168.53 137.17 169.37 137.27 170.29 C 137.38 171.22 138.21 171.89 139.14 171.79 Z M 140.15 171.67 L 141.19 171.55 C 142.12 171.44 142.78 170.60 142.67 169.67 C 142.56 168.74 141.72 168.08 140.79 168.19 L 139.75 168.31 C 138.83 168.42 138.16 169.27 138.27 170.19 C 138.38 171.12 139.23 171.78 140.15 171.67 Z M 141.20 171.54 L 142.19 171.42 C 143.11 171.31 143.77 170.47 143.66 169.54 C 143.54 168.61 142.70 167.96 141.77 168.07 L 140.79 168.19 C 139.86 168.31 139.20 169.15 139.32 170.08 C 139.43 171.00 140.27 171.66 141.20 171.54 Z M 142.20 171.42 L 143.27 171.28 C 144.19 171.16 144.85 170.32 144.73 169.39 C 144.61 168.47 143.76 167.82 142.84 167.94 L 141.77 168.07 C 140.84 168.19 140.19 169.04 140.31 169.96 C 140.43 170.89 141.27 171.54 142.20 171.42 Z M 143.29 171.27 L 144.27 171.14 C 145.19 171.01 145.83 170.16 145.70 169.24 C 145.58 168.32 144.73 167.68 143.81 167.81 L 142.83 167.94 C 141.91 168.07 141.26 168.92 141.39 169.84 C 141.52 170.76 142.37 171.40 143.29 171.27 Z M 144.29 171.13 L 145.16 171.00 C 146.07 170.86 146.70 170.00 146.56 169.09 C 146.43 168.17 145.57 167.55 144.66 167.68 L 143.79 167.82 C 142.87 167.96 142.24 168.81 142.38 169.72 C 142.52 170.64 143.38 171.27 144.29 171.13 Z M 145.18 170.99 L 146.16 170.84 C 147.07 170.69 147.70 169.83 147.55 168.91 C 147.40 168.00 146.54 167.38 145.63 167.53 L 144.64 167.69 C 143.73 167.83 143.11 168.69 143.25 169.61 C 143.40 170.52 144.26 171.14 145.18 170.99 Z M 146.15 170.84 L 147.14 170.69 C 148.06 170.55 148.69 169.69 148.54 168.77 C 148.40 167.85 147.54 167.22 146.62 167.37 L 145.63 167.52 C 144.72 167.66 144.09 168.52 144.23 169.44 C 144.37 170.36 145.23 170.99 146.15 170.84 Z M 147.12 170.70 L 148.11 170.56 C 149.03 170.42 149.67 169.57 149.54 168.65 C 149.41 167.72 148.56 167.08 147.63 167.22 L 146.64 167.36 C 145.72 167.49 145.08 168.34 145.21 169.27 C 145.34 170.19 146.20 170.83 147.12 170.70 Z M 148.10 170.56 L 149.10 170.42 C 150.02 170.30 150.67 169.44 150.54 168.52 C 150.41 167.60 149.56 166.95 148.64 167.08 L 147.64 167.21 C 146.72 167.34 146.07 168.19 146.20 169.11 C 146.32 170.04 147.18 170.69 148.10 170.56 Z M 149.09 170.42 L 150.08 170.29 C 151.01 170.16 151.66 169.31 151.53 168.39 C 151.40 167.46 150.55 166.82 149.63 166.94 L 148.64 167.08 C 147.71 167.20 147.07 168.05 147.19 168.98 C 147.32 169.90 148.17 170.55 149.09 170.42 Z M 150.08 170.28 L 151.07 170.15 C 151.99 170.03 152.64 169.18 152.52 168.26 C 152.39 167.34 151.55 166.69 150.63 166.82 L 149.64 166.95 C 148.71 167.07 148.07 167.92 148.19 168.84 C 148.31 169.76 149.16 170.40 150.08 170.28 Z M 151.06 170.13 L 152.05 170.00 C 152.97 169.89 153.61 169.05 153.49 168.14 C 153.37 167.23 152.54 166.59 151.62 166.70 L 150.63 166.83 C 149.72 166.95 149.08 167.79 149.20 168.70 C 149.32 169.61 150.15 170.25 151.06 170.13 Z M 152.05 169.98 L 153.04 169.85 C 153.94 169.73 154.57 168.91 154.45 168.01 C 154.33 167.11 153.51 166.48 152.61 166.60 L 151.63 166.73 C 150.73 166.85 150.10 167.67 150.21 168.57 C 150.33 169.47 151.16 170.10 152.05 169.98 Z M 153.04 169.83 L 154.02 169.70 C 154.90 169.58 155.53 168.77 155.41 167.88 C 155.29 167.00 154.48 166.37 153.59 166.49 L 152.61 166.62 C 151.73 166.74 151.10 167.55 151.22 168.44 C 151.34 169.32 152.15 169.95 153.04 169.83 Z M 154.01 169.68 L 155.02 169.55 C 155.90 169.44 156.52 168.63 156.40 167.76 C 156.29 166.88 155.49 166.26 154.61 166.38 L 153.60 166.51 C 152.72 166.62 152.10 167.42 152.22 168.30 C 152.33 169.18 153.13 169.79 154.01 169.68 Z M 155.01 169.55 L 156.02 169.42 C 156.89 169.32 157.51 168.52 157.41 167.65 C 157.30 166.77 156.50 166.15 155.63 166.26 L 154.62 166.38 C 153.74 166.49 153.12 167.28 153.23 168.16 C 153.34 169.03 154.13 169.66 155.01 169.55 Z M 156.01 169.43 L 157.00 169.31 C 157.88 169.21 158.50 168.41 158.40 167.54 C 158.30 166.66 157.50 166.03 156.62 166.13 L 155.63 166.25 C 154.76 166.35 154.13 167.15 154.23 168.03 C 154.33 168.91 155.13 169.53 156.01 169.43 Z M 156.99 169.32 L 158.00 169.20 C 158.88 169.11 159.51 168.31 159.41 167.43 C 159.32 166.55 158.52 165.92 157.64 166.02 L 156.63 166.13 C 155.75 166.23 155.12 167.02 155.22 167.90 C 155.31 168.78 156.11 169.41 156.99 169.32 Z M 157.97 169.20 L 158.94 169.11 C 159.82 169.02 160.47 168.24 160.38 167.37 C 160.30 166.49 159.52 165.84 158.64 165.93 L 157.67 166.02 C 156.79 166.10 156.15 166.88 156.23 167.76 C 156.31 168.64 157.09 169.29 157.97 169.20 Z M 158.92 169.10 L 159.92 169.02 C 160.79 168.95 161.44 168.19 161.38 167.31 C 161.31 166.44 160.54 165.79 159.67 165.86 L 158.67 165.94 C 157.79 166.00 157.14 166.77 157.21 167.64 C 157.28 168.52 158.04 169.17 158.92 169.10 Z M 159.91 169.01 L 160.85 168.94 C 161.72 168.87 162.37 168.12 162.31 167.26 C 162.24 166.39 161.49 165.74 160.63 165.80 L 159.68 165.87 C 158.81 165.94 158.16 166.69 158.23 167.55 C 158.29 168.42 159.04 169.07 159.91 169.01 Z M 160.83 168.92 L 161.81 168.87 C 162.67 168.82 163.33 168.08 163.28 167.22 C 163.23 166.37 162.49 165.71 161.64 165.76 L 160.65 165.82 C 159.79 165.87 159.14 166.60 159.19 167.46 C 159.24 168.32 159.97 168.97 160.83 168.92 Z M 161.77 168.85 L 162.76 168.83 C 163.61 168.81 164.28 168.10 164.26 167.25 C 164.24 166.39 163.53 165.72 162.68 165.75 L 161.68 165.77 C 160.83 165.79 160.16 166.50 160.18 167.35 C 160.21 168.21 160.91 168.88 161.77 168.85 Z M 162.72 168.82 L 163.72 168.82 C 164.56 168.81 165.25 168.13 165.25 167.28 C 165.25 166.44 164.56 165.75 163.71 165.75 L 162.72 165.76 C 161.87 165.76 161.19 166.44 161.19 167.29 C 161.19 168.13 161.88 168.82 162.72 168.82 Z M 163.68 168.81 L 164.74 168.83 C 165.58 168.84 166.28 168.18 166.30 167.34 C 166.31 166.50 165.65 165.80 164.81 165.79 L 163.75 165.77 C 162.91 165.75 162.21 166.41 162.20 167.25 C 162.18 168.09 162.84 168.79 163.68 168.81 Z M 164.70 168.81 L 165.79 168.87 C 166.62 168.91 167.33 168.27 167.37 167.44 C 167.41 166.61 166.78 165.90 165.95 165.86 L 164.86 165.80 C 164.02 165.76 163.32 166.40 163.27 167.23 C 163.23 168.06 163.87 168.77 164.70 168.81 Z M 165.67 168.84 L 166.66 168.97 C 167.48 169.08 168.23 168.50 168.33 167.69 C 168.44 166.87 167.87 166.13 167.05 166.02 L 166.06 165.89 C 165.25 165.78 164.50 166.36 164.39 167.17 C 164.28 167.99 164.86 168.73 165.67 168.84 Z M 166.38 168.89 L 167.29 169.19 C 168.05 169.45 168.89 169.04 169.15 168.27 C 169.41 167.51 169.00 166.67 168.23 166.41 L 167.33 166.10 C 166.56 165.84 165.73 166.25 165.47 167.02 C 165.20 167.79 165.62 168.63 166.38 168.89 Z M 166.85 168.93 L 167.61 169.54 C 168.23 170.04 169.14 169.95 169.65 169.32 C 170.15 168.70 170.05 167.79 169.43 167.28 L 168.67 166.67 C 168.05 166.17 167.13 166.27 166.63 166.89 C 166.13 167.52 166.23 168.43 166.85 168.93 Z M 167.45 169.37 L 167.68 169.62 C 168.21 170.21 169.12 170.26 169.70 169.73 C 170.29 169.20 170.34 168.29 169.81 167.70 L 169.58 167.45 C 169.05 166.86 168.14 166.82 167.56 167.35 C 166.97 167.88 166.92 168.78 167.45 169.37 Z"
      fill="black"
      fill-rule="nonzero" /></svg>