<svg xmlns="http://www.w3.org/2000/svg" width="300" height="300" viewBox="0 0 300 300">
<path d="M 127.80 133.19 L 128.76 133.29 C 129.59 133.37 130.34 132.76 130.42 131.92 C 130.50 131.09 129.89 130.34 129.06 130.26 L 128.10 130.17 C 127.27 130.09 126.52 130.70 126.44 131.53 C 126.36 132.37 126.97 133.11 127.80 133.19 Z M 128.80 133.38 L 129.84 133.45 C 130.72 133.51 131.49 132.84 131.55 131.95 C 131.61 131.07 130.94 130.30 130.05 130.24 L 129.02 130.17 C 128.13 130.11 127.36 130.78 127.31 131.67 C 127.25 132.55 127.91 133.32 128.80 133.38 Z M 129.90 133.49 L 130.91 133.52 C 131.82 133.54 132.57 132.83 132.60 131.92 C 132.62 131.01 131.91 130.25 131.00 130.22 L 129.99 130.20 C 129.08 130.17 128.32 130.89 128.30 131.80 C 128.27 132.71 128.99 133.47 129.90 133.49 Z M 130.94 133.51 L 131.95 133.52 C 132.86 133.52 133.60 132.79 133.60 131.89 C 133.61 130.98 132.88 130.24 131.97 130.24 L 130.96 130.23 C 130.06 130.23 129.32 130.96 129.31 131.86 C 129.31 132.77 130.04 133.51 130.94 133.51 Z M 131.96 133.51 L 132.99 133.51 C 133.89 133.51 134.63 132.78 134.63 131.88 C 134.63 130.98 133.89 130.25 132.99 130.25 L 131.96 130.25 C 131.06 130.25 130.33 130.98 130.33 131.88 C 130.33 132.78 131.06 133.51 131.96 133.51 Z M 132.99 133.50 L 133.96 133.50 C 134.85 133.50 135.58 132.77 135.58 131.88 C 135.58 130.98 134.85 130.26 133.96 130.26 L 132.99 130.26 C 132.10 130.26 131.37 130.98 131.37 131.88 C 131.37 132.77 132.10 133.50 132.99 133.50 Z M 133.96 133.49 L 134.93 133.49 C 135.82 133.49 136.54 132.77 136.54 131.88 C 136.54 130.99 135.82 130.27 134.93 130.27 L 133.96 130.27 C 133.07 130.27 132.35 130.99 132.35 131.88 C 132.35 132.77 133.07 133.49 133.96 133.49 Z M 134.93 133.48 L 135.94 133.48 C 136.83 133.48 137.55 132.76 137.55 131.88 C 137.55 130.99 136.83 130.28 135.94 130.28 L 134.93 130.28 C 134.04 130.28 133.33 130.99 133.33 131.88 C 133.33 132.76 134.04 133.48 134.93 133.48 Z M 135.94 133.47 L 136.93 133.47 C 137.81 133.47 138.52 132.76 138.52 131.88 C 138.52 131.00 137.81 130.29 136.93 130.29 L 135.94 130.29 C 135.06 130.29 134.35 131.00 134.35 131.88 C 134.35 132.76 135.06 133.47 135.94 133.47 Z M 136.93 133.46 L 137.94 133.46 C 138.82 133.46 139.52 132.75 139.52 131.88 C 139.52 131.01 138.82 130.30 137.94 130.30 L 136.93 130.30 C 136.06 130.30 135.35 131.01 135.35 131.88 C 135.35 132.75 136.06 133.46 136.93 133.46 Z M 137.95 133.44 L 138.96 133.44 C 139.82 133.43 140.52 132.73 140.52 131.87 C 140.52 131.01 139.82 130.31 138.95 130.32 L 137.94 130.32 C 137.08 130.32 136.38 131.02 136.38 131.88 C 136.39 132.74 137.09 133.44 137.95 133.44 Z M 138.98 133.42 L 139.97 133.40 C 140.83 133.39 141.50 132.68 141.49 131.83 C 141.48 130.98 140.77 130.30 139.92 130.32 L 138.93 130.33 C 138.08 130.35 137.40 131.05 137.42 131.90 C 137.43 132.75 138.13 133.43 138.98 133.42 Z M 140.02 133.38 L 141.04 133.33 C 141.88 133.29 142.53 132.58 142.49 131.74 C 142.45 130.90 141.74 130.25 140.90 130.29 L 139.88 130.34 C 139.03 130.38 138.39 131.09 138.43 131.93 C 138.47 132.77 139.18 133.42 140.02 133.38 Z M 141.09 133.31 L 142.07 133.23 C 142.90 133.17 143.51 132.44 143.45 131.61 C 143.38 130.78 142.65 130.16 141.82 130.23 L 140.85 130.31 C 140.02 130.38 139.40 131.10 139.47 131.93 C 139.53 132.76 140.26 133.38 141.09 133.31 Z M 142.10 133.22 L 143.10 133.11 C 143.92 133.03 144.52 132.30 144.43 131.48 C 144.35 130.66 143.62 130.06 142.80 130.14 L 141.79 130.25 C 140.97 130.33 140.37 131.06 140.46 131.88 C 140.54 132.70 141.28 133.30 142.10 133.22 Z M 143.09 133.10 L 144.05 133.00 C 144.87 132.92 145.46 132.20 145.38 131.39 C 145.30 130.57 144.57 129.98 143.76 130.06 L 142.80 130.16 C 141.99 130.24 141.40 130.96 141.48 131.77 C 141.56 132.59 142.28 133.18 143.09 133.10 Z M 144.03 132.99 L 145.01 132.91 C 145.81 132.85 146.41 132.14 146.35 131.34 C 146.28 130.53 145.58 129.93 144.77 129.99 L 143.79 130.07 C 142.98 130.14 142.38 130.84 142.45 131.65 C 142.51 132.46 143.22 133.06 144.03 132.99 Z M 144.99 132.90 L 146.01 132.83 C 146.81 132.78 147.42 132.09 147.36 131.29 C 147.31 130.49 146.62 129.88 145.82 129.94 L 144.79 130.00 C 143.99 130.06 143.39 130.75 143.44 131.55 C 143.49 132.35 144.19 132.96 144.99 132.90 Z M 145.99 132.83 L 147.02 132.77 C 147.81 132.73 148.42 132.05 148.38 131.25 C 148.34 130.45 147.66 129.84 146.86 129.89 L 145.83 129.94 C 145.04 129.99 144.43 130.67 144.47 131.46 C 144.51 132.26 145.20 132.87 145.99 132.83 Z M 146.99 132.78 L 148.02 132.74 C 148.82 132.71 149.45 132.04 149.42 131.24 C 149.39 130.44 148.72 129.82 147.92 129.85 L 146.89 129.88 C 146.09 129.91 145.46 130.58 145.49 131.38 C 145.52 132.18 146.19 132.80 146.99 132.78 Z M 147.99 132.76 L 148.96 132.76 C 149.77 132.75 150.42 132.08 150.42 131.27 C 150.41 130.46 149.74 129.80 148.93 129.81 L 147.96 129.82 C 147.15 129.83 146.49 130.49 146.50 131.31 C 146.51 132.12 147.17 132.77 147.99 132.76 Z M 148.94 132.78 L 149.17 132.78 C 150.00 132.78 150.67 132.11 150.67 131.28 C 150.67 130.46 150.00 129.79 149.17 129.79 L 148.94 129.79 C 148.12 129.79 147.45 130.46 147.45 131.28 C 147.45 132.11 148.12 132.78 148.94 132.78 Z"
      fill="black"
      fill-rule="nonzero" /><path d="M 141.78 126.02 L 141.24 124.88 C 140.88 124.11 139.97 123.79 139.20 124.15 C 138.44 124.51 138.12 125.43 138.48 126.19 L 139.02 127.33 C 139.39 128.09 140.30 128.42 141.06 128.06 C 141.82 127.69 142.15 126.78 141.78 126.02 Z M 141.02 124.46 L 140.63 124.05 C 140.04 123.41 139.05 123.37 138.41 123.96 C 137.77 124.55 137.73 125.55 138.32 126.19 L 138.70 126.60 C 139.29 127.24 140.29 127.28 140.93 126.69 C 141.57 126.10 141.61 125.10 141.02 124.46 Z M 137.89 124.92 L 137.78 125.81 C 137.67 126.69 138.29 127.48 139.16 127.60 C 140.04 127.71 140.84 127.09 140.95 126.21 L 141.06 125.32 C 141.17 124.45 140.55 123.65 139.68 123.54 C 138.80 123.42 138.01 124.04 137.89 124.92 Z M 137.77 126.06 L 137.80 127.18 C 137.83 128.06 138.56 128.76 139.44 128.73 C 140.32 128.71 141.01 127.97 140.99 127.09 L 140.96 125.97 C 140.93 125.09 140.20 124.40 139.32 124.42 C 138.44 124.44 137.75 125.18 137.77 126.06 Z M 137.80 127.22 L 137.85 128.21 C 137.90 129.09 138.64 129.76 139.52 129.72 C 140.40 129.68 141.08 128.93 141.03 128.05 L 140.98 127.06 C 140.94 126.18 140.19 125.51 139.32 125.55 C 138.44 125.59 137.76 126.34 137.80 127.22 Z M 137.86 128.22 L 137.91 129.22 C 137.96 130.09 138.71 130.76 139.58 130.72 C 140.46 130.67 141.13 129.92 141.08 129.05 L 141.03 128.04 C 140.98 127.17 140.23 126.50 139.36 126.54 C 138.48 126.59 137.81 127.34 137.86 128.22 Z M 137.92 129.21 L 137.97 130.18 C 138.01 131.06 138.75 131.73 139.62 131.68 C 140.50 131.64 141.17 130.90 141.12 130.03 L 141.08 129.05 C 141.03 128.18 140.29 127.51 139.42 127.55 C 138.55 127.60 137.88 128.34 137.92 129.21 Z M 137.97 130.16 L 138.01 131.20 C 138.05 132.06 138.78 132.74 139.64 132.71 C 140.51 132.68 141.19 131.95 141.16 131.08 L 141.12 130.05 C 141.08 129.18 140.35 128.50 139.49 128.53 C 138.62 128.57 137.94 129.30 137.97 130.16 Z M 138.02 131.17 L 138.04 132.17 C 138.06 133.04 138.78 133.72 139.64 133.70 C 140.50 133.68 141.18 132.97 141.17 132.11 L 141.15 131.11 C 141.13 130.24 140.41 129.56 139.55 129.58 C 138.69 129.59 138.01 130.31 138.02 131.17 Z M 138.06 132.15 L 138.06 133.16 C 138.07 134.01 138.77 134.70 139.63 134.69 C 140.48 134.69 141.17 133.99 141.16 133.13 L 141.15 132.13 C 141.15 131.27 140.45 130.59 139.59 130.59 C 138.74 130.60 138.05 131.30 138.06 132.15 Z M 138.08 133.15 L 138.08 134.16 C 138.08 135.00 138.77 135.69 139.62 135.69 C 140.46 135.69 141.15 135.00 141.15 134.15 L 141.15 133.14 C 141.15 132.29 140.46 131.61 139.61 131.61 C 138.76 131.61 138.08 132.30 138.08 133.15 Z M 138.10 134.15 L 138.10 135.16 C 138.10 136.00 138.78 136.68 139.61 136.68 C 140.45 136.68 141.13 136.00 141.13 135.16 L 141.13 134.15 C 141.13 133.31 140.45 132.63 139.61 132.63 C 138.78 132.63 138.10 133.31 138.10 134.15 Z M 138.12 135.16 L 138.12 136.16 C 138.12 136.99 138.79 137.66 139.61 137.66 C 140.44 137.66 141.11 136.99 141.11 136.16 L 141.11 135.16 C 141.11 134.33 140.44 133.66 139.61 133.66 C 138.79 133.66 138.12 134.33 138.12 135.16 Z M 138.14 136.16 L 138.14 137.15 C 138.14 137.97 138.80 138.63 139.61 138.63 C 140.43 138.63 141.09 137.97 141.09 137.15 L 141.09 136.16 C 141.09 135.34 140.43 134.68 139.61 134.68 C 138.80 134.68 138.14 135.34 138.14 136.16 Z M 138.15 137.15 L 138.15 138.16 C 138.15 138.97 138.80 139.63 139.61 139.63 C 140.42 139.63 141.07 138.98 141.08 138.17 L 141.08 137.16 C 141.08 136.35 140.43 135.69 139.62 135.69 C 138.81 135.69 138.15 136.34 138.15 137.15 Z M 138.16 138.14 L 138.14 139.14 C 138.13 139.95 138.77 140.61 139.57 140.62 C 140.37 140.63 141.03 139.99 141.05 139.19 L 141.06 138.19 C 141.08 137.39 140.44 136.73 139.64 136.72 C 138.84 136.70 138.18 137.34 138.16 138.14 Z M 138.16 139.10 L 138.11 140.09 C 138.07 140.88 138.68 141.56 139.48 141.60 C 140.27 141.63 140.95 141.02 140.99 140.23 L 141.03 139.24 C 141.07 138.44 140.46 137.77 139.66 137.73 C 138.87 137.69 138.20 138.30 138.16 139.10 Z M 138.12 140.03 L 138.03 141.04 C 137.96 141.82 138.54 142.52 139.33 142.59 C 140.12 142.66 140.82 142.08 140.89 141.29 L 140.97 140.28 C 141.04 139.50 140.46 138.80 139.67 138.73 C 138.89 138.66 138.19 139.24 138.12 140.03 Z M 138.04 141.00 L 137.92 141.98 C 137.83 142.77 138.39 143.48 139.18 143.57 C 139.96 143.66 140.67 143.10 140.76 142.31 L 140.88 141.33 C 140.97 140.54 140.41 139.83 139.62 139.74 C 138.84 139.65 138.13 140.21 138.04 141.00 Z M 137.93 141.97 L 137.87 142.40 C 137.78 143.18 138.33 143.89 139.11 143.99 C 139.89 144.09 140.61 143.53 140.70 142.75 L 140.76 142.33 C 140.86 141.54 140.30 140.83 139.52 140.73 C 138.74 140.63 138.03 141.19 137.93 141.97 Z"
      fill="black"
      fill-rule="nonzero" /><path d="M 130.09 141.46 L 129.64 142.36 C 129.25 143.14 129.56 144.09 130.34 144.49 C 131.12 144.88 132.08 144.57 132.47 143.79 L 132.92 142.89 C 133.31 142.11 133.00 141.16 132.22 140.76 C 131.44 140.37 130.49 140.68 130.09 141.46 Z M 129.49 142.72 L 129.28 143.65 C 129.08 144.51 129.62 145.38 130.48 145.57 C 131.35 145.77 132.21 145.23 132.41 144.37 L 132.62 143.43 C 132.82 142.57 132.28 141.70 131.41 141.51 C 130.55 141.31 129.69 141.85 129.49 142.72 Z M 129.23 144.12 L 129.30 145.08 C 129.36 145.97 130.13 146.64 131.02 146.58 C 131.91 146.52 132.58 145.74 132.52 144.85 L 132.45 143.89 C 132.39 143.00 131.62 142.33 130.73 142.40 C 129.84 142.46 129.17 143.23 129.23 144.12 Z M 129.31 145.20 L 129.46 146.23 C 129.59 147.11 130.41 147.72 131.29 147.59 C 132.18 147.46 132.79 146.64 132.66 145.76 L 132.51 144.73 C 132.38 143.85 131.56 143.24 130.67 143.37 C 129.79 143.50 129.18 144.32 129.31 145.20 Z M 129.46 146.18 L 129.57 147.13 C 129.67 148.02 130.47 148.65 131.36 148.55 C 132.25 148.44 132.88 147.64 132.78 146.76 L 132.66 145.80 C 132.56 144.92 131.76 144.28 130.87 144.39 C 129.99 144.49 129.35 145.29 129.46 146.18 Z M 129.57 147.09 L 129.66 148.13 C 129.74 149.02 130.52 149.67 131.41 149.59 C 132.30 149.51 132.95 148.73 132.87 147.84 L 132.78 146.80 C 132.70 145.91 131.92 145.26 131.03 145.34 C 130.14 145.42 129.49 146.20 129.57 147.09 Z M 129.66 148.09 L 129.73 149.15 C 129.79 150.03 130.56 150.70 131.44 150.64 C 132.33 150.59 133.00 149.82 132.94 148.93 L 132.87 147.88 C 132.81 146.99 132.04 146.32 131.16 146.38 C 130.27 146.44 129.60 147.21 129.66 148.09 Z M 129.73 149.12 L 129.79 150.15 C 129.84 151.04 130.59 151.72 131.47 151.67 C 132.36 151.62 133.04 150.87 132.99 149.98 L 132.94 148.95 C 132.89 148.07 132.14 147.39 131.25 147.44 C 130.37 147.48 129.69 148.24 129.73 149.12 Z M 129.79 150.14 L 129.84 151.08 C 129.88 151.96 130.62 152.64 131.50 152.60 C 132.39 152.56 133.07 151.81 133.03 150.93 L 132.99 150.00 C 132.95 149.12 132.20 148.43 131.32 148.47 C 130.44 148.51 129.75 149.26 129.79 150.14 Z M 129.85 151.07 L 129.89 152.08 C 129.92 152.95 130.66 153.64 131.53 153.60 C 132.41 153.57 133.09 152.83 133.06 151.96 L 133.02 150.94 C 132.98 150.07 132.24 149.39 131.37 149.42 C 130.50 149.45 129.81 150.19 129.85 151.07 Z M 129.91 152.06 L 129.93 153.04 C 129.95 153.90 130.67 154.59 131.53 154.56 C 132.40 154.54 133.08 153.83 133.06 152.96 L 133.04 151.98 C 133.02 151.11 132.30 150.43 131.43 150.45 C 130.57 150.47 129.88 151.19 129.91 152.06 Z M 129.94 153.01 L 129.95 153.97 C 129.96 154.83 130.66 155.52 131.52 155.51 C 132.38 155.50 133.07 154.80 133.06 153.94 L 133.05 152.98 C 133.04 152.13 132.34 151.44 131.48 151.44 C 130.62 151.45 129.93 152.15 129.94 153.01 Z M 129.96 153.96 L 129.96 154.99 C 129.96 155.84 130.66 156.53 131.51 156.53 C 132.36 156.53 133.05 155.84 133.05 154.98 L 133.05 153.95 C 133.05 153.10 132.35 152.41 131.50 152.41 C 130.65 152.41 129.96 153.11 129.96 153.96 Z M 129.97 154.99 L 129.97 156.07 C 129.97 156.92 130.66 157.61 131.51 157.61 C 132.36 157.60 133.04 156.92 133.04 156.07 L 133.04 154.99 C 133.04 154.14 132.35 153.45 131.51 153.45 C 130.66 153.45 129.97 154.14 129.97 154.99 Z M 129.99 156.10 L 130.01 157.15 C 130.02 157.99 130.71 158.66 131.55 158.65 C 132.39 158.63 133.06 157.94 133.04 157.10 L 133.03 156.05 C 133.01 155.21 132.32 154.54 131.48 154.55 C 130.64 154.57 129.98 155.26 129.99 156.10 Z M 130.04 157.29 L 130.14 158.23 C 130.23 159.05 130.97 159.64 131.79 159.55 C 132.61 159.46 133.21 158.72 133.12 157.90 L 133.01 156.96 C 132.92 156.14 132.18 155.55 131.36 155.64 C 130.54 155.73 129.95 156.47 130.04 157.29 Z M 130.26 158.62 L 130.54 159.31 C 130.85 160.06 131.70 160.43 132.46 160.12 C 133.21 159.82 133.57 158.96 133.27 158.21 L 132.99 157.52 C 132.69 156.76 131.83 156.40 131.08 156.70 C 130.33 157.01 129.96 157.86 130.26 158.62 Z"
      fill="black"
      fill-rule="nonzero" /><path d="M 136.21 146.41 L 136.81 145.57 C 137.29 144.90 137.13 143.97 136.47 143.49 C 135.80 143.02 134.87 143.17 134.39 143.84 L 133.79 144.68 C 133.31 145.35 133.46 146.28 134.13 146.75 C 134.80 147.23 135.73 147.08 136.21 146.41 Z M 136.71 145.74 L 137.36 145.03 C 137.93 144.42 137.90 143.46 137.29 142.89 C 136.68 142.32 135.72 142.36 135.15 142.97 L 134.49 143.67 C 133.92 144.28 133.96 145.24 134.57 145.81 C 135.18 146.38 136.14 146.35 136.71 145.74 Z M 137.03 145.33 L 137.87 144.84 C 138.60 144.41 138.85 143.47 138.42 142.74 C 138.00 142.00 137.06 141.75 136.32 142.18 L 135.48 142.67 C 134.75 143.10 134.50 144.04 134.93 144.77 C 135.36 145.51 136.30 145.76 137.03 145.33 Z M 137.45 145.02 L 138.44 144.79 C 139.27 144.59 139.79 143.75 139.59 142.92 C 139.39 142.08 138.55 141.57 137.72 141.76 L 136.74 142.00 C 135.90 142.20 135.38 143.03 135.58 143.87 C 135.78 144.71 136.62 145.22 137.45 145.02 Z M 138.20 144.84 L 139.21 144.76 C 140.07 144.69 140.72 143.94 140.65 143.08 C 140.59 142.22 139.84 141.58 138.97 141.64 L 137.96 141.72 C 137.10 141.78 136.45 142.53 136.52 143.40 C 136.58 144.26 137.33 144.90 138.20 144.84 Z M 139.10 144.77 L 140.13 144.76 C 140.99 144.76 141.69 144.05 141.69 143.19 C 141.68 142.32 140.98 141.62 140.11 141.63 L 139.09 141.63 C 138.22 141.64 137.52 142.34 137.53 143.21 C 137.53 144.07 138.23 144.77 139.10 144.77 Z M 140.00 144.76 L 140.98 144.84 C 141.84 144.90 142.59 144.26 142.66 143.40 C 142.73 142.53 142.09 141.78 141.22 141.71 L 140.24 141.63 C 139.38 141.57 138.62 142.21 138.56 143.07 C 138.49 143.94 139.13 144.69 140.00 144.76 Z M 140.73 144.79 L 141.67 145.02 C 142.51 145.23 143.35 144.72 143.56 143.88 C 143.77 143.04 143.25 142.19 142.42 141.99 L 141.47 141.75 C 140.63 141.55 139.79 142.06 139.58 142.90 C 139.37 143.74 139.89 144.59 140.73 144.79 Z M 141.42 144.94 L 142.35 145.34 C 143.14 145.68 144.06 145.31 144.40 144.52 C 144.74 143.73 144.38 142.82 143.59 142.48 L 142.66 142.08 C 141.87 141.73 140.95 142.10 140.61 142.89 C 140.27 143.68 140.63 144.59 141.42 144.94 Z M 142.16 145.23 L 142.99 145.74 C 143.72 146.19 144.68 145.96 145.13 145.22 C 145.57 144.49 145.34 143.54 144.61 143.09 L 143.78 142.58 C 143.05 142.14 142.09 142.37 141.65 143.10 C 141.20 143.83 141.43 144.78 142.16 145.23 Z M 142.84 145.62 L 143.64 146.26 C 144.30 146.79 145.28 146.68 145.81 146.01 C 146.34 145.34 146.23 144.37 145.56 143.84 L 144.76 143.21 C 144.10 142.68 143.12 142.79 142.59 143.46 C 142.06 144.12 142.17 145.09 142.84 145.62 Z M 143.51 146.14 L 144.22 146.84 C 144.83 147.44 145.80 147.43 146.40 146.83 C 147.00 146.22 146.99 145.25 146.39 144.65 L 145.68 143.95 C 145.07 143.35 144.10 143.36 143.50 143.96 C 142.91 144.57 142.91 145.54 143.51 146.14 Z M 144.10 146.69 L 144.72 147.49 C 145.25 148.15 146.21 148.27 146.88 147.75 C 147.54 147.22 147.66 146.26 147.13 145.59 L 146.51 144.80 C 145.99 144.13 145.02 144.02 144.36 144.54 C 143.69 145.06 143.58 146.03 144.10 146.69 Z M 144.60 147.31 L 145.10 148.16 C 145.52 148.89 146.46 149.14 147.19 148.72 C 147.92 148.30 148.17 147.36 147.75 146.63 L 147.25 145.77 C 146.83 145.04 145.89 144.79 145.16 145.22 C 144.43 145.64 144.18 146.57 144.60 147.31 Z M 145.02 148.00 L 145.42 148.92 C 145.75 149.69 146.64 150.05 147.42 149.72 C 148.19 149.39 148.55 148.49 148.22 147.72 L 147.83 146.80 C 147.50 146.02 146.60 145.66 145.82 145.99 C 145.05 146.33 144.69 147.22 145.02 148.00 Z M 145.37 148.78 L 145.67 149.72 C 145.93 150.52 146.78 150.96 147.58 150.70 C 148.38 150.45 148.82 149.59 148.57 148.79 L 148.27 147.85 C 148.01 147.05 147.16 146.61 146.36 146.87 C 145.55 147.12 145.11 147.98 145.37 148.78 Z M 145.64 149.60 L 145.87 150.59 C 146.06 151.41 146.87 151.92 147.69 151.73 C 148.50 151.54 149.01 150.73 148.82 149.91 L 148.60 148.92 C 148.41 148.10 147.59 147.59 146.78 147.78 C 145.96 147.97 145.45 148.78 145.64 149.60 Z M 145.86 150.48 L 146.00 151.42 C 146.13 152.24 146.90 152.80 147.73 152.68 C 148.55 152.55 149.11 151.78 148.98 150.95 L 148.84 150.02 C 148.71 149.19 147.94 148.63 147.12 148.76 C 146.29 148.89 145.73 149.66 145.86 150.48 Z M 146.00 151.32 L 146.09 152.34 C 146.17 153.16 146.90 153.77 147.73 153.69 C 148.56 153.61 149.16 152.88 149.08 152.06 L 148.99 151.04 C 148.91 150.22 148.18 149.61 147.35 149.69 C 146.53 149.77 145.92 150.50 146.00 151.32 Z M 146.10 152.26 L 146.14 153.31 C 146.18 154.14 146.88 154.78 147.71 154.74 C 148.53 154.70 149.17 154.00 149.13 153.18 L 149.08 152.13 C 149.04 151.30 148.34 150.67 147.52 150.70 C 146.70 150.74 146.06 151.44 146.10 152.26 Z M 146.15 153.24 L 146.15 154.28 C 146.15 155.10 146.81 155.76 147.63 155.77 C 148.45 155.77 149.12 155.11 149.12 154.29 L 149.12 153.25 C 149.12 152.43 148.46 151.76 147.64 151.76 C 146.82 151.76 146.15 152.42 146.15 153.24 Z M 146.16 154.17 L 146.09 155.14 C 146.02 155.95 146.63 156.66 147.44 156.73 C 148.26 156.79 148.96 156.18 149.03 155.37 L 149.10 154.40 C 149.17 153.58 148.56 152.88 147.75 152.81 C 146.94 152.75 146.23 153.36 146.16 154.17 Z M 146.13 154.92 L 145.89 155.96 C 145.71 156.75 146.20 157.53 146.98 157.72 C 147.77 157.90 148.55 157.41 148.74 156.63 L 148.98 155.59 C 149.17 154.80 148.68 154.02 147.89 153.83 C 147.10 153.65 146.32 154.14 146.13 154.92 Z M 146.03 155.63 L 145.60 156.46 C 145.23 157.17 145.51 158.04 146.22 158.41 C 146.93 158.77 147.80 158.50 148.17 157.79 L 148.60 156.96 C 148.97 156.25 148.69 155.38 147.98 155.01 C 147.27 154.64 146.40 154.92 146.03 155.63 Z M 145.82 156.16 L 145.17 156.88 C 144.64 157.47 144.68 158.38 145.27 158.91 C 145.86 159.44 146.77 159.40 147.30 158.81 L 147.95 158.08 C 148.48 157.49 148.44 156.59 147.85 156.05 C 147.26 155.52 146.35 155.57 145.82 156.16 Z M 145.32 156.75 L 144.63 157.32 C 144.02 157.82 143.94 158.73 144.45 159.33 C 144.95 159.94 145.85 160.02 146.46 159.52 L 147.15 158.94 C 147.75 158.44 147.84 157.54 147.33 156.93 C 146.83 156.32 145.93 156.24 145.32 156.75 Z"
      fill="black"
      fill-rule="nonzero" /><path d="M 133.84 148.65 L 132.82 148.72 C 131.98 148.77 131.35 149.50 131.40 150.34 C 131.46 151.19 132.19 151.82 133.03 151.77 L 134.05 151.70 C 134.89 151.64 135.53 150.91 135.47 150.07 C 135.41 149.23 134.69 148.59 133.84 148.65 Z M 132.73 151.78 L 133.28 151.85 C 134.13 151.95 134.91 151.35 135.01 150.50 C 135.12 149.66 134.52 148.88 133.67 148.78 L 133.12 148.71 C 132.27 148.60 131.50 149.20 131.39 150.05 C 131.28 150.89 131.89 151.67 132.73 151.78 Z M 133.38 151.86 L 134.47 151.93 C 135.33 151.99 136.07 151.33 136.12 150.48 C 136.18 149.62 135.52 148.88 134.67 148.83 L 133.58 148.76 C 132.72 148.70 131.98 149.36 131.93 150.21 C 131.87 151.07 132.52 151.81 133.38 151.86 Z M 134.49 151.93 L 135.70 152.00 C 136.55 152.05 137.29 151.39 137.34 150.53 C 137.38 149.67 136.72 148.94 135.86 148.89 L 134.65 148.82 C 133.79 148.78 133.06 149.44 133.01 150.30 C 132.97 151.15 133.63 151.89 134.49 151.93 Z M 135.70 151.99 L 136.73 152.05 C 137.59 152.09 138.32 151.43 138.36 150.58 C 138.41 149.72 137.75 148.99 136.89 148.95 L 135.86 148.89 C 135.00 148.85 134.27 149.51 134.23 150.37 C 134.19 151.22 134.84 151.95 135.70 151.99 Z M 136.74 152.04 L 137.70 152.08 C 138.55 152.13 139.27 151.47 139.32 150.62 C 139.36 149.77 138.70 149.05 137.85 149.01 L 136.89 148.96 C 136.04 148.92 135.32 149.57 135.28 150.42 C 135.23 151.27 135.89 151.99 136.74 152.04 Z M 137.70 152.07 L 138.68 152.12 C 139.52 152.16 140.24 151.51 140.28 150.67 C 140.32 149.82 139.67 149.11 138.83 149.07 L 137.85 149.02 C 137.01 148.98 136.29 149.63 136.25 150.47 C 136.21 151.31 136.86 152.03 137.70 152.07 Z M 138.68 152.11 L 139.68 152.16 C 140.52 152.20 141.23 151.56 141.27 150.72 C 141.31 149.88 140.67 149.17 139.83 149.13 L 138.83 149.08 C 137.99 149.04 137.28 149.68 137.24 150.52 C 137.19 151.36 137.84 152.07 138.68 152.11 Z M 139.68 152.15 L 140.67 152.20 C 141.50 152.24 142.21 151.61 142.25 150.77 C 142.30 149.94 141.66 149.23 140.83 149.19 L 139.83 149.14 C 139.00 149.09 138.29 149.73 138.25 150.56 C 138.21 151.40 138.85 152.11 139.68 152.15 Z M 140.66 152.19 L 141.69 152.25 C 142.52 152.29 143.22 151.66 143.27 150.84 C 143.32 150.01 142.68 149.31 141.86 149.26 L 140.83 149.20 C 140.01 149.16 139.30 149.79 139.25 150.61 C 139.21 151.44 139.84 152.14 140.66 152.19 Z M 141.68 152.23 L 142.67 152.29 C 143.48 152.35 144.19 151.73 144.24 150.91 C 144.29 150.10 143.68 149.39 142.86 149.34 L 141.87 149.28 C 141.05 149.22 140.35 149.84 140.30 150.66 C 140.25 151.47 140.86 152.18 141.68 152.23 Z M 142.65 152.28 L 143.66 152.36 C 144.47 152.42 145.18 151.82 145.24 151.01 C 145.30 150.20 144.70 149.50 143.89 149.44 L 142.88 149.36 C 142.07 149.29 141.37 149.90 141.30 150.70 C 141.24 151.51 141.84 152.21 142.65 152.28 Z M 143.63 152.34 L 144.62 152.44 C 145.42 152.52 146.13 151.94 146.21 151.15 C 146.29 150.35 145.71 149.64 144.92 149.55 L 143.93 149.45 C 143.13 149.37 142.42 149.95 142.33 150.75 C 142.25 151.54 142.83 152.26 143.63 152.34 Z M 144.56 152.42 L 145.54 152.56 C 146.33 152.68 147.06 152.13 147.17 151.34 C 147.28 150.56 146.74 149.83 145.95 149.71 L 144.97 149.57 C 144.19 149.46 143.46 150.01 143.34 150.79 C 143.23 151.58 143.78 152.31 144.56 152.42 Z M 145.49 152.55 L 146.46 152.72 C 147.23 152.87 147.98 152.35 148.12 151.58 C 148.27 150.80 147.75 150.05 146.97 149.91 L 146.00 149.73 C 145.23 149.59 144.48 150.10 144.34 150.88 C 144.20 151.66 144.71 152.40 145.49 152.55 Z M 146.44 152.72 L 146.66 152.76 C 147.43 152.91 148.18 152.41 148.33 151.63 C 148.49 150.86 147.98 150.11 147.21 149.96 L 146.99 149.92 C 146.22 149.77 145.47 150.27 145.32 151.04 C 145.16 151.82 145.67 152.57 146.44 152.72 Z"
      fill="black"
      fill-rule="nonzero" /><path d="M 132.46 157.15 L 131.51 157.69 C 130.77 158.11 130.51 159.05 130.93 159.79 C 131.35 160.53 132.29 160.79 133.03 160.37 L 133.98 159.83 C 134.72 159.41 134.98 158.47 134.56 157.73 C 134.14 156.99 133.20 156.73 132.46 157.15 Z M 131.60 160.45 L 132.03 160.66 C 132.82 161.03 133.75 160.69 134.13 159.91 C 134.50 159.12 134.16 158.19 133.37 157.82 L 132.94 157.61 C 132.15 157.24 131.22 157.58 130.85 158.36 C 130.48 159.15 130.81 160.08 131.60 160.45 Z M 132.68 160.82 L 133.79 160.83 C 134.66 160.85 135.38 160.15 135.39 159.28 C 135.41 158.41 134.71 157.69 133.84 157.68 L 132.73 157.66 C 131.86 157.64 131.14 158.34 131.13 159.21 C 131.11 160.08 131.81 160.80 132.68 160.82 Z M 133.90 160.83 L 135.06 160.77 C 135.93 160.72 136.59 159.97 136.54 159.10 C 136.50 158.24 135.75 157.57 134.88 157.62 L 133.73 157.68 C 132.86 157.73 132.19 158.47 132.24 159.34 C 132.29 160.21 133.03 160.88 133.90 160.83 Z M 135.13 160.75 L 136.12 160.65 C 136.98 160.57 137.61 159.80 137.53 158.94 C 137.44 158.08 136.67 157.45 135.81 157.53 L 134.81 157.63 C 133.95 157.72 133.32 158.49 133.41 159.35 C 133.49 160.21 134.26 160.84 135.13 160.75 Z M 136.16 160.64 L 137.13 160.52 C 137.99 160.41 138.59 159.63 138.49 158.78 C 138.38 157.93 137.60 157.32 136.75 157.43 L 135.77 157.55 C 134.92 157.65 134.31 158.43 134.42 159.28 C 134.53 160.14 135.30 160.74 136.16 160.64 Z M 137.14 160.51 L 138.13 160.38 C 138.98 160.27 139.57 159.49 139.47 158.65 C 139.36 157.80 138.58 157.20 137.73 157.31 L 136.74 157.44 C 135.90 157.55 135.30 158.32 135.41 159.17 C 135.52 160.02 136.29 160.62 137.14 160.51 Z M 138.12 160.37 L 139.11 160.25 C 139.96 160.14 140.55 159.38 140.45 158.53 C 140.35 157.69 139.58 157.09 138.74 157.20 L 137.74 157.32 C 136.90 157.42 136.30 158.19 136.41 159.03 C 136.51 159.87 137.28 160.47 138.12 160.37 Z M 139.09 160.24 L 140.10 160.13 C 140.93 160.04 141.54 159.28 141.45 158.45 C 141.36 157.61 140.60 157.00 139.76 157.10 L 138.76 157.21 C 137.92 157.30 137.32 158.05 137.41 158.89 C 137.50 159.72 138.25 160.33 139.09 160.24 Z M 140.06 160.12 L 141.09 160.03 C 141.92 159.96 142.54 159.22 142.46 158.39 C 142.39 157.55 141.65 156.94 140.82 157.01 L 139.80 157.10 C 138.96 157.18 138.35 157.91 138.42 158.75 C 138.50 159.58 139.23 160.19 140.06 160.12 Z M 141.05 160.02 L 142.02 159.96 C 142.85 159.91 143.48 159.19 143.42 158.36 C 143.37 157.53 142.66 156.91 141.83 156.96 L 140.86 157.02 C 140.03 157.07 139.40 157.79 139.46 158.62 C 139.51 159.45 140.22 160.07 141.05 160.02 Z M 141.97 159.95 L 142.97 159.91 C 143.80 159.88 144.44 159.20 144.41 158.38 C 144.38 157.56 143.70 156.91 142.88 156.94 L 141.87 156.97 C 141.05 157.00 140.41 157.69 140.44 158.51 C 140.47 159.33 141.15 159.97 141.97 159.95 Z M 142.94 159.89 L 143.92 159.88 C 144.73 159.88 145.38 159.22 145.38 158.41 C 145.37 157.60 144.71 156.95 143.90 156.95 L 142.91 156.96 C 142.10 156.97 141.45 157.63 141.46 158.44 C 141.47 159.25 142.13 159.90 142.94 159.89 Z M 143.91 159.87 L 144.89 159.87 C 145.69 159.87 146.34 159.22 146.34 158.42 C 146.34 157.62 145.69 156.97 144.89 156.97 L 143.91 156.97 C 143.11 156.97 142.46 157.62 142.46 158.42 C 142.46 159.22 143.11 159.87 143.91 159.87 Z M 144.89 159.87 L 145.90 159.87 C 146.70 159.87 147.35 159.22 147.35 158.42 C 147.35 157.62 146.70 156.96 145.90 156.96 L 144.89 156.96 C 144.09 156.96 143.44 157.62 143.44 158.42 C 143.44 159.22 144.09 159.87 144.89 159.87 Z M 145.90 159.88 L 146.47 159.88 C 147.28 159.88 147.93 159.22 147.93 158.42 C 147.93 157.61 147.28 156.96 146.47 156.96 L 145.90 156.96 C 145.09 156.96 144.44 157.61 144.44 158.42 C 144.44 159.22 145.09 159.88 145.90 159.88 Z"
      fill="black"
      fill-rule="nonzero" /><path d="M 128.13 167.84 L 128.97 168.20 C 129.76 168.54 130.67 168.18 131.01 167.39 C 131.35 166.61 130.99 165.70 130.20 165.36 L 129.36 164.99 C 128.57 164.65 127.66 165.01 127.32 165.80 C 126.98 166.58 127.34 167.50 128.13 167.84 Z M 129.21 168.33 L 130.24 168.58 C 131.10 168.78 131.96 168.26 132.17 167.41 C 132.38 166.55 131.85 165.69 131.00 165.48 L 129.96 165.23 C 129.11 165.02 128.25 165.55 128.04 166.40 C 127.83 167.26 128.36 168.12 129.21 168.33 Z M 130.49 168.63 L 131.48 168.72 C 132.36 168.79 133.14 168.13 133.22 167.24 C 133.29 166.36 132.63 165.58 131.74 165.51 L 130.75 165.42 C 129.87 165.35 129.09 166.01 129.02 166.90 C 128.94 167.78 129.60 168.56 130.49 168.63 Z M 131.58 168.72 L 132.61 168.74 C 133.50 168.76 134.23 168.05 134.25 167.16 C 134.27 166.28 133.56 165.54 132.68 165.53 L 131.64 165.51 C 130.76 165.49 130.02 166.19 130.01 167.08 C 129.99 167.97 130.69 168.70 131.58 168.72 Z M 132.64 168.73 L 133.70 168.73 C 134.58 168.73 135.30 168.02 135.30 167.13 C 135.30 166.25 134.58 165.53 133.70 165.53 L 132.64 165.53 C 131.76 165.53 131.05 166.25 131.04 167.13 C 131.04 168.01 131.76 168.73 132.64 168.73 Z M 133.71 168.72 L 134.67 168.71 C 135.54 168.71 136.25 168.00 136.25 167.12 C 136.24 166.25 135.53 165.54 134.66 165.54 L 133.69 165.55 C 132.82 165.55 132.11 166.26 132.11 167.14 C 132.12 168.01 132.83 168.72 133.71 168.72 Z M 134.69 168.70 L 135.63 168.68 C 136.50 168.67 137.19 167.95 137.17 167.08 C 137.16 166.22 136.45 165.53 135.58 165.54 L 134.64 165.56 C 133.77 165.57 133.08 166.29 133.09 167.15 C 133.11 168.02 133.82 168.71 134.69 168.70 Z M 135.66 168.67 L 136.67 168.63 C 137.53 168.60 138.20 167.88 138.17 167.02 C 138.14 166.16 137.42 165.49 136.56 165.52 L 135.55 165.56 C 134.69 165.59 134.02 166.31 134.05 167.17 C 134.08 168.02 134.80 168.70 135.66 168.67 Z M 136.70 168.62 L 137.70 168.56 C 138.56 168.52 139.21 167.79 139.16 166.94 C 139.12 166.09 138.39 165.44 137.54 165.48 L 136.53 165.54 C 135.68 165.58 135.03 166.31 135.07 167.16 C 135.12 168.01 135.84 168.66 136.70 168.62 Z M 137.71 168.55 L 138.72 168.49 C 139.56 168.44 140.20 167.72 140.15 166.88 C 140.10 166.03 139.38 165.39 138.54 165.44 L 137.53 165.50 C 136.69 165.55 136.05 166.27 136.10 167.11 C 136.15 167.96 136.87 168.60 137.71 168.55 Z M 138.70 168.48 L 139.71 168.43 C 140.55 168.39 141.19 167.68 141.15 166.85 C 141.11 166.01 140.40 165.36 139.57 165.40 L 138.56 165.45 C 137.72 165.49 137.07 166.20 137.11 167.04 C 137.15 167.87 137.86 168.52 138.70 168.48 Z M 139.70 168.42 L 140.69 168.38 C 141.52 168.34 142.16 167.64 142.13 166.81 C 142.09 165.98 141.39 165.34 140.56 165.37 L 139.57 165.42 C 138.75 165.45 138.10 166.15 138.14 166.98 C 138.17 167.81 138.87 168.45 139.70 168.42 Z M 140.71 168.36 L 141.72 168.30 C 142.54 168.25 143.17 167.55 143.12 166.73 C 143.07 165.90 142.36 165.28 141.54 165.33 L 140.54 165.39 C 139.72 165.44 139.09 166.14 139.14 166.96 C 139.19 167.78 139.89 168.41 140.71 168.36 Z M 141.73 168.29 L 142.71 168.23 C 143.53 168.17 144.14 167.47 144.09 166.66 C 144.04 165.84 143.34 165.22 142.52 165.28 L 141.54 165.34 C 140.72 165.39 140.10 166.09 140.16 166.91 C 140.21 167.72 140.91 168.34 141.73 168.29 Z M 142.68 168.22 L 143.61 168.18 C 144.42 168.14 145.05 167.46 145.01 166.65 C 144.98 165.84 144.29 165.21 143.48 165.25 L 142.55 165.29 C 141.74 165.32 141.12 166.01 141.15 166.81 C 141.19 167.62 141.87 168.25 142.68 168.22 Z M 143.58 168.17 L 144.63 168.15 C 145.43 168.13 146.07 167.47 146.06 166.66 C 146.04 165.86 145.38 165.22 144.57 165.23 L 143.52 165.25 C 142.72 165.27 142.08 165.93 142.09 166.74 C 142.11 167.54 142.77 168.18 143.58 168.17 Z M 144.61 168.14 L 145.55 168.13 C 146.35 168.13 147.00 167.47 146.99 166.67 C 146.98 165.87 146.33 165.23 145.53 165.23 L 144.59 165.24 C 143.79 165.25 143.14 165.90 143.15 166.70 C 143.16 167.50 143.81 168.15 144.61 168.14 Z M 145.55 168.13 L 146.59 168.12 C 147.39 168.12 148.03 167.47 148.02 166.67 C 148.02 165.87 147.37 165.23 146.57 165.23 L 145.53 165.24 C 144.73 165.24 144.09 165.89 144.09 166.69 C 144.10 167.49 144.75 168.13 145.55 168.13 Z M 146.59 168.12 L 147.64 168.11 C 148.43 168.10 149.07 167.44 149.06 166.65 C 149.05 165.85 148.40 165.21 147.60 165.22 L 146.56 165.24 C 145.76 165.25 145.13 165.90 145.14 166.69 C 145.15 167.49 145.80 168.13 146.59 168.12 Z M 147.65 168.10 L 148.65 168.08 C 149.44 168.07 150.07 167.41 150.06 166.62 C 150.04 165.82 149.39 165.19 148.59 165.21 L 147.59 165.23 C 146.80 165.24 146.17 165.90 146.18 166.69 C 146.20 167.49 146.85 168.12 147.65 168.10 Z M 148.65 168.08 L 149.65 168.05 C 150.44 168.03 151.07 167.38 151.05 166.59 C 151.03 165.80 150.37 165.17 149.58 165.19 L 148.59 165.21 C 147.80 165.23 147.17 165.89 147.19 166.68 C 147.21 167.47 147.86 168.09 148.65 168.08 Z M 149.65 168.05 L 150.06 168.04 C 150.85 168.02 151.47 167.36 151.45 166.57 C 151.43 165.79 150.78 165.16 149.99 165.18 L 149.58 165.19 C 148.79 165.21 148.17 165.87 148.19 166.66 C 148.21 167.45 148.87 168.07 149.65 168.05 Z"
      fill="black"
      fill-rule="nonzero" /><path d="M 138.97 162.06 L 138.81 163.05 C 138.66 163.92 139.25 164.74 140.11 164.88 C 140.98 165.03 141.80 164.44 141.94 163.58 L 142.11 162.59 C 142.25 161.72 141.67 160.90 140.80 160.76 C 139.94 160.61 139.12 161.20 138.97 162.06 Z M 138.78 163.14 L 138.67 164.12 C 138.58 165.00 139.21 165.79 140.09 165.89 C 140.97 165.99 141.77 165.35 141.86 164.47 L 141.97 163.49 C 142.07 162.61 141.43 161.82 140.55 161.72 C 139.67 161.62 138.88 162.26 138.78 163.14 Z M 138.66 164.27 L 138.64 165.18 C 138.63 166.06 139.33 166.80 140.22 166.81 C 141.11 166.83 141.84 166.12 141.86 165.23 L 141.88 164.33 C 141.89 163.44 141.19 162.70 140.30 162.69 C 139.41 162.67 138.67 163.38 138.66 164.27 Z M 138.65 165.26 L 138.68 166.34 C 138.72 167.23 139.46 167.92 140.35 167.89 C 141.24 167.85 141.93 167.11 141.90 166.22 L 141.86 165.15 C 141.82 164.26 141.08 163.57 140.19 163.60 C 139.31 163.63 138.61 164.38 138.65 165.26 Z M 138.69 166.36 L 138.74 167.30 C 138.78 168.18 139.53 168.86 140.42 168.82 C 141.30 168.77 141.98 168.02 141.94 167.14 L 141.89 166.20 C 141.85 165.32 141.09 164.64 140.21 164.68 C 139.33 164.72 138.65 165.48 138.69 166.36 Z M 138.75 167.31 L 138.80 168.31 C 138.85 169.19 139.61 169.86 140.49 169.81 C 141.36 169.76 142.04 169.01 141.99 168.13 L 141.93 167.13 C 141.88 166.25 141.13 165.58 140.25 165.63 C 139.37 165.68 138.70 166.43 138.75 167.31 Z M 138.81 168.32 L 138.88 169.38 C 138.94 170.25 139.70 170.91 140.57 170.86 C 141.44 170.80 142.10 170.04 142.05 169.17 L 141.98 168.11 C 141.92 167.24 141.16 166.58 140.29 166.64 C 139.42 166.69 138.76 167.45 138.81 168.32 Z M 138.90 169.40 L 138.98 170.47 C 139.05 171.34 139.81 171.98 140.67 171.91 C 141.54 171.84 142.18 171.09 142.11 170.22 L 142.03 169.15 C 141.96 168.29 141.21 167.64 140.34 167.71 C 139.48 167.78 138.83 168.53 138.90 169.40 Z M 139.01 170.50 L 139.11 171.53 C 139.19 172.38 139.95 173.01 140.80 172.92 C 141.65 172.84 142.27 172.08 142.19 171.23 L 142.09 170.20 C 142.01 169.35 141.25 168.72 140.40 168.81 C 139.55 168.89 138.93 169.65 139.01 170.50 Z M 139.14 171.57 L 139.26 172.53 C 139.36 173.36 140.12 173.96 140.95 173.85 C 141.79 173.75 142.38 172.99 142.28 172.16 L 142.16 171.20 C 142.06 170.36 141.30 169.77 140.46 169.87 C 139.63 169.98 139.04 170.74 139.14 171.57 Z M 139.29 172.59 L 139.46 173.58 C 139.59 174.39 140.36 174.95 141.18 174.81 C 141.99 174.68 142.54 173.91 142.41 173.09 L 142.24 172.10 C 142.11 171.28 141.34 170.73 140.52 170.87 C 139.71 171.00 139.16 171.77 139.29 172.59 Z M 139.50 173.66 L 139.72 174.63 C 139.89 175.42 140.68 175.92 141.47 175.74 C 142.26 175.57 142.76 174.78 142.58 173.99 L 142.36 173.02 C 142.19 172.22 141.40 171.73 140.61 171.90 C 139.82 172.08 139.32 172.86 139.50 173.66 Z M 139.75 174.67 L 139.93 175.36 C 140.13 176.13 140.92 176.60 141.69 176.40 C 142.46 176.20 142.92 175.41 142.72 174.64 L 142.55 173.95 C 142.35 173.18 141.56 172.72 140.79 172.92 C 140.02 173.12 139.55 173.90 139.75 174.67 Z"
      fill="black"
      fill-rule="nonzero" /><path d="M 157.93 125.24 L 157.37 126.02 C 156.87 126.72 157.04 127.68 157.73 128.18 C 158.43 128.67 159.39 128.51 159.89 127.81 L 160.44 127.03 C 160.94 126.33 160.77 125.37 160.08 124.88 C 159.38 124.38 158.42 124.54 157.93 125.24 Z M 157.26 126.07 L 156.72 126.95 C 156.25 127.70 156.48 128.69 157.23 129.16 C 157.98 129.63 158.97 129.40 159.44 128.65 L 159.99 127.77 C 160.46 127.01 160.23 126.02 159.48 125.56 C 158.72 125.09 157.73 125.32 157.26 126.07 Z M 156.63 127.05 L 156.16 127.94 C 155.75 128.74 156.06 129.73 156.86 130.14 C 157.66 130.56 158.65 130.25 159.06 129.45 L 159.53 128.55 C 159.94 127.75 159.63 126.77 158.83 126.35 C 158.03 125.93 157.05 126.25 156.63 127.05 Z M 156.14 128.00 L 155.71 128.91 C 155.32 129.72 155.67 130.69 156.49 131.08 C 157.30 131.46 158.27 131.11 158.66 130.30 L 159.09 129.39 C 159.47 128.58 159.12 127.60 158.31 127.22 C 157.50 126.83 156.52 127.18 156.14 128.00 Z M 155.72 128.92 L 155.28 129.84 C 154.90 130.65 155.25 131.62 156.06 132.00 C 156.87 132.38 157.83 132.03 158.21 131.22 L 158.65 130.29 C 159.03 129.48 158.68 128.52 157.87 128.14 C 157.06 127.76 156.10 128.11 155.72 128.92 Z M 155.30 129.84 L 154.88 130.70 C 154.50 131.50 154.83 132.46 155.63 132.84 C 156.43 133.23 157.39 132.89 157.77 132.10 L 158.19 131.23 C 158.58 130.43 158.24 129.47 157.44 129.09 C 156.65 128.70 155.69 129.04 155.30 129.84 Z M 154.91 130.70 L 154.48 131.58 C 154.09 132.37 154.41 133.31 155.20 133.70 C 155.98 134.09 156.93 133.76 157.31 132.98 L 157.75 132.10 C 158.13 131.31 157.81 130.37 157.03 129.98 C 156.24 129.59 155.29 129.92 154.91 130.70 Z M 154.49 131.60 L 154.05 132.51 C 153.67 133.28 153.99 134.22 154.77 134.59 C 155.54 134.97 156.47 134.65 156.85 133.88 L 157.30 132.97 C 157.67 132.19 157.35 131.26 156.58 130.88 C 155.80 130.50 154.87 130.82 154.49 131.60 Z M 154.06 132.53 L 153.63 133.44 C 153.27 134.21 153.59 135.12 154.36 135.49 C 155.13 135.85 156.05 135.52 156.41 134.76 L 156.84 133.85 C 157.21 133.08 156.88 132.16 156.11 131.80 C 155.34 131.44 154.42 131.76 154.06 132.53 Z M 153.65 133.44 L 153.22 134.35 C 152.86 135.11 153.18 136.02 153.94 136.38 C 154.70 136.74 155.61 136.41 155.97 135.65 L 156.40 134.75 C 156.76 133.99 156.43 133.08 155.67 132.72 C 154.91 132.36 154.01 132.69 153.65 133.44 Z M 153.24 134.34 L 152.80 135.24 C 152.44 135.99 152.75 136.89 153.50 137.25 C 154.24 137.62 155.14 137.31 155.51 136.56 L 155.95 135.66 C 156.31 134.91 156.00 134.01 155.25 133.65 C 154.51 133.28 153.61 133.59 153.24 134.34 Z M 152.82 135.24 L 152.38 136.14 C 152.01 136.88 152.32 137.77 153.06 138.14 C 153.79 138.50 154.69 138.19 155.05 137.46 L 155.49 136.56 C 155.85 135.82 155.55 134.93 154.81 134.56 C 154.07 134.20 153.18 134.51 152.82 135.24 Z M 152.39 136.15 L 151.94 137.06 C 151.59 137.79 151.89 138.67 152.62 139.03 C 153.35 139.39 154.24 139.09 154.60 138.35 L 155.04 137.45 C 155.40 136.72 155.09 135.83 154.36 135.47 C 153.63 135.12 152.75 135.42 152.39 136.15 Z M 151.96 137.05 L 151.54 137.89 C 151.18 138.62 151.47 139.50 152.20 139.86 C 152.92 140.22 153.80 139.92 154.16 139.20 L 154.58 138.36 C 154.94 137.63 154.65 136.76 153.92 136.39 C 153.20 136.03 152.32 136.33 151.96 137.05 Z M 151.55 137.89 L 151.13 138.73 C 150.77 139.45 151.05 140.32 151.77 140.68 C 152.49 141.04 153.36 140.76 153.73 140.04 L 154.15 139.20 C 154.51 138.48 154.22 137.61 153.51 137.25 C 152.79 136.89 151.91 137.17 151.55 137.89 Z M 151.13 138.75 L 150.66 139.70 C 150.31 140.41 150.61 141.28 151.33 141.63 C 152.05 141.98 152.91 141.69 153.26 140.97 L 153.73 140.02 C 154.08 139.30 153.78 138.44 153.06 138.08 C 152.35 137.73 151.48 138.03 151.13 138.75 Z M 150.66 139.71 L 150.26 140.56 C 149.92 141.28 150.22 142.14 150.94 142.48 C 151.66 142.82 152.52 142.51 152.86 141.79 L 153.27 140.95 C 153.61 140.23 153.30 139.37 152.58 139.03 C 151.86 138.69 151.00 138.99 150.66 139.71 Z M 150.26 140.56 L 149.82 141.50 C 149.48 142.22 149.79 143.08 150.51 143.42 C 151.23 143.75 152.09 143.44 152.42 142.73 L 152.86 141.79 C 153.20 141.07 152.89 140.21 152.17 139.87 C 151.46 139.54 150.60 139.85 150.26 140.56 Z M 149.82 141.51 L 149.39 142.43 C 149.05 143.15 149.36 144.00 150.08 144.34 C 150.80 144.68 151.65 144.37 151.99 143.65 L 152.42 142.72 C 152.76 142.00 152.45 141.15 151.73 140.82 C 151.01 140.48 150.16 140.79 149.82 141.51 Z"
      fill="black"
      fill-rule="nonzero" /><path d="M 156.84 129.32 L 157.42 130.10 C 157.94 130.78 158.91 130.91 159.59 130.39 C 160.28 129.88 160.41 128.90 159.89 128.22 L 159.30 127.45 C 158.79 126.77 157.82 126.63 157.13 127.15 C 156.45 127.67 156.32 128.64 156.84 129.32 Z M 157.48 130.22 L 158.16 130.98 C 158.74 131.64 159.75 131.69 160.40 131.11 C 161.05 130.52 161.11 129.52 160.52 128.86 L 159.84 128.10 C 159.26 127.45 158.25 127.39 157.60 127.98 C 156.95 128.56 156.89 129.57 157.48 130.22 Z M 158.27 131.12 L 159.01 131.77 C 159.67 132.36 160.68 132.30 161.27 131.65 C 161.86 130.99 161.80 129.98 161.14 129.39 L 160.41 128.73 C 159.75 128.14 158.74 128.20 158.15 128.86 C 157.56 129.51 157.62 130.53 158.27 131.12 Z M 159.11 131.84 L 159.92 132.46 C 160.61 132.99 161.61 132.86 162.14 132.16 C 162.67 131.47 162.54 130.47 161.85 129.94 L 161.04 129.32 C 160.35 128.79 159.35 128.92 158.82 129.61 C 158.28 130.31 158.41 131.31 159.11 131.84 Z M 159.99 132.49 L 160.83 133.06 C 161.54 133.55 162.52 133.37 163.01 132.66 C 163.50 131.95 163.32 130.97 162.60 130.48 L 161.77 129.91 C 161.06 129.42 160.08 129.60 159.59 130.31 C 159.10 131.02 159.28 132.00 159.99 132.49 Z M 160.90 133.07 L 161.74 133.60 C 162.45 134.05 163.40 133.84 163.85 133.12 C 164.31 132.40 164.09 131.45 163.37 131.00 L 162.54 130.47 C 161.82 130.02 160.87 130.24 160.42 130.95 C 159.97 131.67 160.18 132.62 160.90 133.07 Z M 161.79 133.59 L 162.61 134.08 C 163.32 134.51 164.25 134.28 164.67 133.56 C 165.10 132.85 164.86 131.92 164.15 131.50 L 163.33 131.01 C 162.61 130.58 161.69 130.82 161.26 131.53 C 160.84 132.24 161.07 133.17 161.79 133.59 Z M 162.65 134.08 L 163.51 134.57 C 164.22 134.97 165.13 134.73 165.53 134.01 C 165.94 133.30 165.69 132.40 164.98 131.99 L 164.11 131.50 C 163.40 131.10 162.50 131.35 162.09 132.06 C 161.69 132.77 161.94 133.68 162.65 134.08 Z M 163.55 134.57 L 164.44 135.05 C 165.15 135.44 166.04 135.17 166.42 134.46 C 166.81 133.75 166.54 132.86 165.83 132.48 L 164.94 132.00 C 164.23 131.61 163.34 131.88 162.96 132.59 C 162.57 133.30 162.84 134.18 163.55 134.57 Z M 164.46 135.05 L 165.33 135.50 C 166.04 135.88 166.92 135.60 167.29 134.89 C 167.66 134.18 167.39 133.31 166.68 132.94 L 165.81 132.48 C 165.10 132.11 164.22 132.38 163.85 133.09 C 163.48 133.80 163.75 134.68 164.46 135.05 Z M 165.35 135.50 L 166.26 135.97 C 166.97 136.34 167.84 136.06 168.20 135.35 C 168.57 134.64 168.29 133.78 167.58 133.41 L 166.66 132.94 C 165.96 132.58 165.09 132.85 164.73 133.56 C 164.36 134.27 164.64 135.14 165.35 135.50 Z M 166.27 135.97 L 166.58 136.12 C 167.28 136.48 168.14 136.21 168.50 135.50 C 168.86 134.80 168.59 133.94 167.88 133.57 L 167.58 133.42 C 166.87 133.06 166.01 133.34 165.65 134.04 C 165.29 134.74 165.57 135.61 166.27 135.97 Z"
      fill="black"
      fill-rule="nonzero" /><path d="M 152.45 143.60 L 153.35 143.89 C 154.16 144.15 155.04 143.71 155.30 142.90 C 155.57 142.08 155.12 141.21 154.31 140.94 L 153.41 140.65 C 152.59 140.38 151.72 140.83 151.45 141.64 C 151.19 142.46 151.63 143.33 152.45 143.60 Z M 153.55 143.99 L 154.55 144.16 C 155.42 144.31 156.24 143.73 156.39 142.86 C 156.55 142.00 155.96 141.17 155.10 141.02 L 154.10 140.84 C 153.23 140.69 152.41 141.27 152.26 142.14 C 152.11 143.01 152.69 143.84 153.55 143.99 Z M 154.74 144.20 L 155.71 144.24 C 156.60 144.29 157.35 143.61 157.40 142.72 C 157.44 141.83 156.76 141.08 155.87 141.03 L 154.90 140.98 C 154.02 140.94 153.26 141.62 153.22 142.51 C 153.17 143.40 153.85 144.15 154.74 144.20 Z M 155.78 144.24 L 156.85 144.25 C 157.74 144.25 158.46 143.54 158.46 142.66 C 158.47 141.77 157.76 141.05 156.87 141.05 L 155.80 141.04 C 154.92 141.03 154.20 141.74 154.19 142.63 C 154.18 143.51 154.90 144.23 155.78 144.24 Z M 156.86 144.24 L 157.85 144.24 C 158.73 144.24 159.44 143.52 159.44 142.65 C 159.44 141.77 158.73 141.06 157.85 141.06 L 156.86 141.06 C 155.98 141.06 155.27 141.77 155.27 142.65 C 155.27 143.52 155.98 144.24 156.86 144.24 Z M 157.85 144.22 L 158.86 144.22 C 159.73 144.22 160.44 143.52 160.44 142.65 C 160.44 141.77 159.73 141.07 158.86 141.07 L 157.85 141.07 C 156.98 141.07 156.27 141.77 156.27 142.65 C 156.27 143.52 156.98 144.22 157.85 144.22 Z M 158.86 144.21 L 159.87 144.21 C 160.73 144.21 161.43 143.51 161.43 142.65 C 161.43 141.78 160.73 141.08 159.87 141.08 L 158.86 141.08 C 158.00 141.08 157.29 141.78 157.29 142.65 C 157.29 143.51 158.00 144.21 158.86 144.21 Z M 159.87 144.19 L 160.88 144.19 C 161.73 144.19 162.42 143.50 162.42 142.65 C 162.43 141.80 161.74 141.10 160.88 141.10 L 159.87 141.10 C 159.02 141.10 158.33 141.79 158.32 142.64 C 158.32 143.50 159.01 144.19 159.87 144.19 Z M 160.87 144.17 L 161.86 144.18 C 162.70 144.19 163.38 143.51 163.39 142.67 C 163.40 141.82 162.72 141.14 161.88 141.13 L 160.89 141.12 C 160.05 141.12 159.36 141.79 159.35 142.64 C 159.35 143.48 160.02 144.17 160.87 144.17 Z M 161.84 144.16 L 162.84 144.18 C 163.67 144.19 164.36 143.53 164.37 142.70 C 164.39 141.87 163.73 141.19 162.90 141.17 L 161.90 141.15 C 161.07 141.14 160.38 141.80 160.36 142.63 C 160.35 143.45 161.01 144.14 161.84 144.16 Z M 162.80 144.15 L 163.80 144.20 C 164.62 144.23 165.31 143.60 165.35 142.79 C 165.38 141.97 164.75 141.28 163.94 141.24 L 162.94 141.20 C 162.12 141.16 161.43 141.79 161.39 142.61 C 161.36 143.42 161.99 144.11 162.80 144.15 Z M 163.74 144.17 L 164.73 144.26 C 165.53 144.33 166.24 143.74 166.31 142.94 C 166.38 142.14 165.79 141.43 164.99 141.36 L 164.00 141.27 C 163.20 141.20 162.49 141.79 162.42 142.59 C 162.35 143.39 162.94 144.10 163.74 144.17 Z M 164.66 144.24 L 165.65 144.37 C 166.44 144.48 167.17 143.93 167.28 143.14 C 167.39 142.35 166.83 141.62 166.04 141.51 L 165.05 141.38 C 164.26 141.27 163.54 141.82 163.43 142.61 C 163.32 143.40 163.87 144.13 164.66 144.24 Z M 165.62 144.36 L 166.61 144.52 C 167.39 144.64 168.12 144.11 168.25 143.33 C 168.38 142.55 167.84 141.81 167.06 141.69 L 166.08 141.53 C 165.30 141.40 164.56 141.93 164.43 142.71 C 164.31 143.49 164.84 144.23 165.62 144.36 Z M 166.60 144.51 L 166.67 144.52 C 167.45 144.65 168.18 144.13 168.31 143.35 C 168.44 142.57 167.92 141.84 167.14 141.71 L 167.07 141.69 C 166.29 141.56 165.56 142.09 165.43 142.87 C 165.30 143.65 165.82 144.38 166.60 144.51 Z"
      fill="black"
      fill-rule="nonzero" /><path d="M 152.14 149.40 L 151.35 149.40 C 150.49 149.40 149.79 150.10 149.79 150.96 C 149.79 151.83 150.49 152.53 151.35 152.53 L 152.14 152.53 C 153.00 152.53 153.70 151.83 153.70 150.96 C 153.70 150.10 153.00 149.40 152.14 149.40 Z M 151.35 152.57 L 152.07 152.57 C 152.96 152.57 153.68 151.85 153.68 150.96 C 153.68 150.07 152.96 149.35 152.07 149.35 L 151.35 149.35 C 150.46 149.35 149.74 150.07 149.74 150.96 C 149.74 151.85 150.46 152.57 151.35 152.57 Z M 152.07 152.58 L 153.30 152.58 C 154.19 152.58 154.91 151.86 154.91 150.96 C 154.91 150.07 154.19 149.35 153.30 149.35 L 152.07 149.35 C 151.18 149.35 150.46 150.07 150.46 150.96 C 150.46 151.86 151.18 152.58 152.07 152.58 Z M 153.30 152.58 L 154.42 152.58 C 155.31 152.58 156.03 151.86 156.03 150.96 C 156.03 150.07 155.31 149.35 154.42 149.35 L 153.30 149.35 C 152.41 149.35 151.68 150.07 151.68 150.96 C 151.68 151.86 152.41 152.58 153.30 152.58 Z M 154.42 152.58 L 155.43 152.58 C 156.32 152.58 157.04 151.85 157.04 150.96 C 157.04 150.07 156.32 149.35 155.43 149.35 L 154.42 149.35 C 153.53 149.35 152.80 150.07 152.80 150.96 C 152.80 151.85 153.53 152.58 154.42 152.58 Z M 155.43 152.57 L 156.36 152.57 C 157.25 152.57 157.97 151.85 157.97 150.96 C 157.97 150.08 157.25 149.36 156.36 149.36 L 155.43 149.36 C 154.54 149.36 153.82 150.08 153.82 150.96 C 153.82 151.85 154.54 152.57 155.43 152.57 Z M 156.36 152.56 L 157.33 152.56 C 158.21 152.56 158.93 151.84 158.93 150.96 C 158.93 150.08 158.21 149.37 157.33 149.37 L 156.36 149.37 C 155.48 149.37 154.77 150.08 154.77 150.96 C 154.77 151.84 155.48 152.56 156.36 152.56 Z M 157.33 152.54 L 158.33 152.54 C 159.21 152.54 159.91 151.84 159.91 150.96 C 159.91 150.09 159.21 149.39 158.33 149.39 L 157.33 149.39 C 156.46 149.39 155.75 150.09 155.75 150.96 C 155.75 151.84 156.46 152.54 157.33 152.54 Z M 158.33 152.53 L 159.35 152.53 C 160.21 152.53 160.91 151.83 160.91 150.96 C 160.91 150.10 160.21 149.40 159.35 149.40 L 158.33 149.40 C 157.47 149.40 156.77 150.10 156.77 150.96 C 156.77 151.83 157.47 152.53 158.33 152.53 Z M 159.35 152.52 L 160.37 152.52 C 161.23 152.52 161.92 151.82 161.92 150.96 C 161.92 150.11 161.23 149.41 160.37 149.41 L 159.35 149.41 C 158.49 149.41 157.80 150.11 157.80 150.96 C 157.80 151.82 158.49 152.52 159.35 152.52 Z M 160.37 152.50 L 161.36 152.50 C 162.21 152.50 162.90 151.81 162.90 150.96 C 162.90 150.12 162.21 149.43 161.36 149.43 L 160.37 149.43 C 159.52 149.43 158.83 150.12 158.83 150.96 C 158.83 151.81 159.52 152.50 160.37 152.50 Z M 161.36 152.48 L 162.33 152.48 C 163.16 152.48 163.84 151.80 163.84 150.96 C 163.84 150.13 163.16 149.45 162.33 149.45 L 161.36 149.45 C 160.53 149.45 159.85 150.13 159.85 150.96 C 159.85 151.80 160.53 152.48 161.36 152.48 Z M 162.33 152.45 L 163.28 152.45 C 164.10 152.45 164.77 151.79 164.77 150.96 C 164.77 150.14 164.10 149.47 163.28 149.47 L 162.33 149.47 C 161.50 149.47 160.84 150.14 160.84 150.96 C 160.84 151.79 161.50 152.45 162.33 152.45 Z M 163.28 152.44 L 164.29 152.44 C 165.11 152.44 165.77 151.78 165.77 150.96 C 165.77 150.15 165.11 149.49 164.29 149.49 L 163.28 149.49 C 162.46 149.49 161.80 150.15 161.80 150.96 C 161.80 151.78 162.46 152.44 163.28 152.44 Z M 164.29 152.43 L 165.35 152.43 C 166.16 152.43 166.82 151.77 166.82 150.96 C 166.82 150.15 166.16 149.50 165.35 149.50 L 164.29 149.50 C 163.48 149.50 162.83 150.15 162.83 150.96 C 162.83 151.77 163.48 152.43 164.29 152.43 Z M 165.35 152.42 L 166.37 152.42 C 167.18 152.42 167.83 151.77 167.83 150.96 C 167.83 150.16 167.18 149.51 166.37 149.51 L 165.35 149.51 C 164.55 149.51 163.90 150.16 163.90 150.96 C 163.90 151.77 164.55 152.42 165.35 152.42 Z M 166.37 152.41 L 167.36 152.41 C 168.16 152.41 168.81 151.76 168.81 150.96 C 168.81 150.17 168.16 149.52 167.36 149.52 L 166.37 149.52 C 165.57 149.52 164.93 150.17 164.93 150.96 C 164.93 151.76 165.57 152.41 166.37 152.41 Z M 167.36 152.40 L 168.09 152.40 C 168.88 152.40 169.53 151.76 169.53 150.96 C 169.53 150.17 168.88 149.53 168.09 149.53 L 167.36 149.53 C 166.57 149.53 165.93 150.17 165.93 150.96 C 165.93 151.76 166.57 152.40 167.36 152.40 Z"
      fill="black"
      fill-rule="nonzero" /><path d="M 162.26 145.05 L 162.23 146.09 C 162.20 146.94 162.88 147.65 163.73 147.67 C 164.58 147.70 165.29 147.03 165.31 146.18 L 165.34 145.14 C 165.37 144.29 164.70 143.58 163.85 143.55 C 162.99 143.53 162.28 144.20 162.26 145.05 Z M 162.15 146.09 L 162.13 147.06 C 162.11 147.95 162.82 148.70 163.71 148.72 C 164.61 148.74 165.35 148.03 165.37 147.13 L 165.39 146.17 C 165.41 145.27 164.70 144.53 163.81 144.51 C 162.91 144.49 162.17 145.20 162.15 146.09 Z M 162.08 147.08 L 162.07 148.09 C 162.06 149.01 162.80 149.77 163.72 149.78 C 164.64 149.79 165.40 149.05 165.41 148.13 L 165.42 147.11 C 165.42 146.19 164.69 145.44 163.77 145.43 C 162.84 145.42 162.09 146.16 162.08 147.08 Z M 162.07 148.11 L 162.07 149.07 C 162.07 149.99 162.81 150.74 163.74 150.74 C 164.66 150.74 165.41 149.99 165.41 149.07 L 165.41 148.11 C 165.41 147.19 164.66 146.44 163.74 146.44 C 162.82 146.44 162.07 147.18 162.07 148.11 Z M 162.06 149.07 L 162.06 150.06 C 162.06 150.98 162.81 151.73 163.74 151.73 C 164.66 151.73 165.41 150.98 165.41 150.06 L 165.41 149.07 C 165.41 148.14 164.66 147.39 163.74 147.39 C 162.81 147.39 162.06 148.14 162.06 149.07 Z M 162.06 150.06 L 162.06 151.06 C 162.06 151.99 162.81 152.74 163.74 152.74 C 164.67 152.74 165.42 151.99 165.42 151.06 L 165.42 150.06 C 165.42 149.13 164.67 148.38 163.74 148.38 C 162.81 148.38 162.06 149.13 162.06 150.06 Z M 162.06 151.06 L 162.06 152.06 C 162.06 152.98 162.81 153.74 163.74 153.74 C 164.67 153.74 165.42 152.98 165.42 152.06 L 165.42 151.06 C 165.42 150.13 164.67 149.38 163.74 149.38 C 162.81 149.38 162.06 150.13 162.06 151.06 Z M 162.06 152.06 L 162.06 153.08 C 162.06 154.01 162.81 154.76 163.74 154.76 C 164.67 154.76 165.42 154.01 165.42 153.08 L 165.42 152.06 C 165.42 151.13 164.67 150.37 163.74 150.37 C 162.81 150.37 162.06 151.13 162.06 152.06 Z M 162.06 153.08 L 162.06 154.05 C 162.06 154.98 162.81 155.73 163.74 155.73 C 164.67 155.73 165.42 154.98 165.42 154.05 L 165.42 153.08 C 165.42 152.15 164.67 151.39 163.74 151.39 C 162.81 151.39 162.06 152.15 162.06 153.08 Z M 162.05 154.05 L 162.05 155.08 C 162.05 156.01 162.81 156.76 163.74 156.76 C 164.67 156.76 165.42 156.01 165.42 155.08 L 165.42 154.05 C 165.42 153.12 164.67 152.37 163.74 152.37 C 162.81 152.37 162.05 153.12 162.05 154.05 Z M 162.06 155.08 L 162.06 156.07 C 162.06 157.00 162.81 157.76 163.74 157.76 C 164.67 157.76 165.42 157.00 165.42 156.07 L 165.42 155.08 C 165.42 154.15 164.67 153.40 163.74 153.40 C 162.81 153.40 162.06 154.15 162.06 155.08 Z M 162.06 156.07 L 162.06 157.08 C 162.06 158.01 162.81 158.76 163.74 158.76 C 164.67 158.76 165.42 158.01 165.42 157.08 L 165.42 156.07 C 165.42 155.14 164.67 154.39 163.74 154.39 C 162.81 154.39 162.06 155.14 162.06 156.07 Z M 162.06 157.08 L 162.06 158.09 C 162.06 159.02 162.81 159.77 163.74 159.77 C 164.67 159.77 165.42 159.02 165.42 158.09 L 165.42 157.08 C 165.42 156.15 164.67 155.40 163.74 155.40 C 162.81 155.40 162.06 156.15 162.06 157.08 Z M 162.06 158.09 L 162.06 159.09 C 162.06 160.02 162.81 160.77 163.74 160.77 C 164.66 160.77 165.42 160.02 165.42 159.09 L 165.42 158.09 C 165.42 157.17 164.66 156.42 163.74 156.42 C 162.81 156.42 162.06 157.17 162.06 158.09 Z M 162.06 159.09 L 162.06 160.09 C 162.06 161.02 162.81 161.77 163.74 161.77 C 164.66 161.77 165.41 161.02 165.41 160.09 L 165.41 159.09 C 165.41 158.17 164.66 157.42 163.74 157.42 C 162.81 157.42 162.06 158.17 162.06 159.09 Z M 162.07 160.09 L 162.07 161.09 C 162.07 162.02 162.81 162.77 163.74 162.77 C 164.66 162.77 165.41 162.02 165.41 161.09 L 165.41 160.09 C 165.41 159.17 164.66 158.42 163.74 158.42 C 162.81 158.42 162.07 159.17 162.07 160.09 Z M 162.07 161.09 L 162.07 162.09 C 162.07 163.01 162.82 163.76 163.74 163.76 C 164.66 163.76 165.41 163.01 165.41 162.09 L 165.41 161.09 C 165.41 160.17 164.66 159.42 163.74 159.42 C 162.82 159.42 162.07 160.17 162.07 161.09 Z M 162.07 162.09 L 162.07 163.09 C 162.07 164.01 162.82 164.76 163.74 164.76 C 164.66 164.76 165.40 164.01 165.40 163.09 L 165.40 162.09 C 165.40 161.17 164.66 160.43 163.74 160.43 C 162.82 160.43 162.07 161.17 162.07 162.09 Z M 162.08 163.09 L 162.08 164.10 C 162.08 165.02 162.82 165.76 163.74 165.76 C 164.66 165.76 165.40 165.02 165.40 164.10 L 165.40 163.09 C 165.40 162.18 164.66 161.43 163.74 161.43 C 162.82 161.43 162.08 162.18 162.08 163.09 Z M 162.08 164.10 L 162.08 165.11 C 162.08 166.02 162.82 166.77 163.74 166.77 C 164.66 166.77 165.40 166.02 165.40 165.11 L 165.40 164.10 C 165.40 163.18 164.66 162.44 163.74 162.44 C 162.82 162.44 162.08 163.18 162.08 164.10 Z M 162.08 165.11 L 162.08 166.10 C 162.08 167.02 162.82 167.76 163.74 167.76 C 164.65 167.76 165.39 167.02 165.39 166.10 L 165.39 165.11 C 165.39 164.19 164.65 163.45 163.74 163.45 C 162.82 163.45 162.08 164.19 162.08 165.11 Z M 162.09 166.10 L 162.09 167.11 C 162.09 168.02 162.83 168.76 163.74 168.76 C 164.65 168.76 165.39 168.02 165.39 167.11 L 165.39 166.10 C 165.39 165.19 164.65 164.45 163.74 164.45 C 162.83 164.45 162.09 165.19 162.09 166.10 Z M 162.09 167.11 L 162.09 168.12 C 162.09 169.03 162.83 169.77 163.74 169.77 C 164.65 169.77 165.38 169.03 165.38 168.12 L 165.38 167.11 C 165.38 166.20 164.65 165.46 163.74 165.46 C 162.83 165.46 162.09 166.20 162.09 167.11 Z M 162.10 168.12 L 162.10 169.11 C 162.10 170.01 162.83 170.74 163.74 170.74 C 164.64 170.74 165.37 170.01 165.37 169.11 L 165.37 168.12 C 165.37 167.22 164.64 166.49 163.74 166.49 C 162.83 166.49 162.10 167.22 162.10 168.12 Z M 162.11 169.11 L 162.11 170.11 C 162.11 171.01 162.84 171.74 163.74 171.74 C 164.64 171.74 165.37 171.01 165.37 170.11 L 165.37 169.11 C 165.37 168.21 164.64 167.48 163.74 167.48 C 162.84 167.48 162.11 168.21 162.11 169.11 Z M 162.12 170.11 L 162.12 171.11 C 162.12 172.00 162.85 172.73 163.74 172.73 C 164.63 172.73 165.36 172.00 165.36 171.11 L 165.36 170.11 C 165.36 169.22 164.63 168.50 163.74 168.50 C 162.85 168.50 162.12 169.22 162.12 170.11 Z M 162.13 171.11 L 162.13 172.11 C 162.13 173.00 162.85 173.72 163.74 173.72 C 164.63 173.72 165.34 173.00 165.34 172.11 L 165.34 171.11 C 165.34 170.22 164.63 169.50 163.74 169.50 C 162.85 169.50 162.13 170.22 162.13 171.11 Z M 162.14 172.11 L 162.14 173.15 C 162.14 174.03 162.85 174.74 163.73 174.74 C 164.61 174.74 165.33 174.03 165.33 173.15 L 165.33 172.11 C 165.33 171.23 164.62 170.52 163.74 170.52 C 162.86 170.51 162.15 171.23 162.14 172.11 Z M 162.15 173.13 L 162.15 174.08 C 162.14 174.95 162.84 175.67 163.71 175.68 C 164.59 175.68 165.30 174.98 165.31 174.11 L 165.32 173.16 C 165.33 172.29 164.63 171.58 163.75 171.57 C 162.88 171.56 162.16 172.26 162.15 173.13 Z M 162.16 174.06 L 162.14 175.03 C 162.12 175.90 162.80 176.62 163.67 176.64 C 164.53 176.66 165.25 175.97 165.27 175.11 L 165.30 174.13 C 165.32 173.27 164.63 172.55 163.76 172.53 C 162.90 172.51 162.18 173.19 162.16 174.06 Z M 162.15 175.04 L 162.13 176.10 C 162.11 176.95 162.79 177.67 163.65 177.68 C 164.51 177.70 165.22 177.02 165.24 176.16 L 165.26 175.10 C 165.28 174.24 164.59 173.53 163.74 173.51 C 162.88 173.50 162.17 174.18 162.15 175.04 Z M 162.14 176.13 L 162.15 177.30 C 162.15 178.15 162.84 178.84 163.69 178.84 C 164.55 178.83 165.23 178.14 165.23 177.29 L 165.23 176.12 C 165.22 175.27 164.53 174.58 163.68 174.58 C 162.83 174.59 162.14 175.28 162.14 176.13 Z M 162.21 177.64 L 162.31 178.04 C 162.50 178.85 163.31 179.36 164.13 179.17 C 164.94 178.98 165.45 178.17 165.26 177.35 L 165.16 176.95 C 164.97 176.13 164.16 175.63 163.34 175.82 C 162.53 176.01 162.02 176.82 162.21 177.64 Z M 165.22 177.98 L 165.38 177.20 C 165.54 176.40 165.02 175.63 164.23 175.47 C 163.43 175.31 162.66 175.82 162.50 176.62 L 162.34 177.41 C 162.18 178.20 162.70 178.98 163.49 179.14 C 164.29 179.30 165.06 178.78 165.22 177.98 Z"
      fill="black"
      fill-rule="nonzero" /></svg>