<svg xmlns="http://www.w3.org/2000/svg" width="300" height="300" viewBox="0 0 300 300">
<path d="M 142.05 129.41 L 141.00 129.80 C 140.22 130.10 139.82 130.97 140.11 131.75 C 140.40 132.54 141.27 132.94 142.06 132.64 L 143.11 132.25 C 143.89 131.96 144.29 131.09 144.00 130.31 C 143.71 129.52 142.84 129.12 142.05 129.41 Z M 140.67 132.53 L 141.03 132.77 C 141.75 133.24 142.72 133.04 143.19 132.32 C 143.67 131.59 143.46 130.63 142.74 130.15 L 142.38 129.92 C 141.66 129.45 140.69 129.65 140.22 130.37 C 139.75 131.09 139.95 132.06 140.67 132.53 Z M 141.79 133.04 L 142.98 133.11 C 143.85 133.17 144.60 132.51 144.65 131.64 C 144.71 130.76 144.05 130.01 143.18 129.96 L 141.99 129.88 C 141.12 129.83 140.37 130.49 140.31 131.36 C 140.26 132.23 140.92 132.98 141.79 133.04 Z M 143.05 133.12 L 144.05 133.13 C 144.92 133.15 145.64 132.45 145.65 131.58 C 145.67 130.70 144.97 129.98 144.10 129.97 L 143.10 129.95 C 142.23 129.94 141.51 130.64 141.49 131.51 C 141.48 132.38 142.18 133.10 143.05 133.12 Z M 144.07 133.13 L 145.11 133.13 C 145.99 133.14 146.70 132.43 146.70 131.56 C 146.70 130.69 146.00 129.98 145.12 129.97 L 144.08 129.97 C 143.20 129.97 142.49 130.67 142.49 131.55 C 142.49 132.42 143.19 133.13 144.07 133.13 Z M 145.12 133.13 L 146.14 133.13 C 147.01 133.13 147.71 132.42 147.71 131.55 C 147.71 130.68 147.00 129.98 146.14 129.98 L 145.12 129.98 C 144.25 129.98 143.54 130.69 143.54 131.55 C 143.55 132.42 144.25 133.13 145.12 133.13 Z M 146.14 133.12 L 147.13 133.11 C 147.99 133.11 148.69 132.41 148.69 131.54 C 148.68 130.68 147.98 129.98 147.12 129.99 L 146.13 129.99 C 145.27 129.99 144.57 130.70 144.57 131.56 C 144.58 132.42 145.28 133.12 146.14 133.12 Z M 147.14 133.10 L 148.13 133.09 C 148.99 133.08 149.67 132.37 149.66 131.52 C 149.65 130.66 148.95 129.98 148.10 129.99 L 147.11 130.00 C 146.25 130.01 145.57 130.71 145.58 131.57 C 145.59 132.42 146.29 133.11 147.14 133.10 Z M 148.16 133.07 L 149.15 133.04 C 150.00 133.02 150.66 132.31 150.64 131.47 C 150.62 130.62 149.91 129.96 149.07 129.98 L 148.07 130.01 C 147.23 130.03 146.56 130.74 146.58 131.58 C 146.61 132.43 147.31 133.09 148.16 133.07 Z M 149.20 133.02 L 150.21 132.96 C 151.04 132.90 151.68 132.19 151.62 131.35 C 151.57 130.52 150.86 129.89 150.02 129.94 L 149.01 130.00 C 148.18 130.05 147.55 130.77 147.60 131.60 C 147.65 132.44 148.37 133.07 149.20 133.02 Z M 150.29 132.94 L 151.29 132.83 C 152.12 132.73 152.71 131.98 152.62 131.16 C 152.52 130.33 151.77 129.74 150.95 129.84 L 149.94 129.95 C 149.12 130.05 148.53 130.79 148.62 131.62 C 148.72 132.44 149.46 133.04 150.29 132.94 Z M 151.37 132.83 L 152.36 132.66 C 153.19 132.52 153.75 131.74 153.61 130.91 C 153.47 130.08 152.69 129.53 151.86 129.67 L 150.87 129.83 C 150.04 129.97 149.48 130.76 149.62 131.58 C 149.76 132.41 150.55 132.97 151.37 132.83 Z M 152.42 132.68 L 153.39 132.48 C 154.23 132.31 154.77 131.49 154.60 130.66 C 154.43 129.82 153.61 129.28 152.77 129.45 L 151.80 129.65 C 150.96 129.82 150.42 130.64 150.60 131.47 C 150.77 132.31 151.58 132.85 152.42 132.68 Z M 153.42 132.48 L 154.40 132.26 C 155.24 132.08 155.77 131.25 155.58 130.41 C 155.39 129.57 154.56 129.05 153.73 129.23 L 152.74 129.45 C 151.91 129.64 151.38 130.47 151.57 131.30 C 151.75 132.14 152.58 132.67 153.42 132.48 Z M 154.41 132.25 L 155.38 132.02 C 156.21 131.83 156.73 131.00 156.53 130.17 C 156.34 129.34 155.51 128.83 154.69 129.02 L 153.71 129.25 C 152.89 129.44 152.37 130.27 152.56 131.10 C 152.76 131.92 153.58 132.44 154.41 132.25 Z M 155.39 132.01 L 156.04 131.85 C 156.86 131.66 157.37 130.83 157.18 130.01 C 156.98 129.19 156.16 128.69 155.34 128.88 L 154.68 129.04 C 153.86 129.23 153.36 130.05 153.55 130.87 C 153.74 131.69 154.57 132.20 155.39 132.01 Z"
      fill="black"
      fill-rule="nonzero" /><path d="M 141.66 139.14 L 140.62 139.85 C 139.93 140.32 139.75 141.27 140.23 141.96 C 140.70 142.65 141.64 142.83 142.34 142.36 L 143.38 141.65 C 144.07 141.18 144.25 140.23 143.77 139.54 C 143.30 138.84 142.35 138.67 141.66 139.14 Z M 140.27 140.11 L 139.90 140.56 C 139.35 141.23 139.45 142.21 140.11 142.76 C 140.78 143.31 141.77 143.22 142.32 142.55 L 142.69 142.10 C 143.24 141.43 143.14 140.44 142.48 139.89 C 141.81 139.34 140.82 139.44 140.27 140.11 Z M 141.08 143.14 L 141.85 143.16 C 142.73 143.18 143.45 142.48 143.47 141.60 C 143.49 140.73 142.79 140.00 141.92 139.98 L 141.14 139.96 C 140.26 139.95 139.54 140.64 139.52 141.52 C 139.50 142.40 140.20 143.12 141.08 143.14 Z M 142.17 143.13 L 143.38 142.91 C 144.25 142.75 144.82 141.92 144.66 141.06 C 144.50 140.19 143.66 139.62 142.80 139.78 L 141.59 140.01 C 140.73 140.17 140.16 141.00 140.32 141.86 C 140.48 142.72 141.31 143.30 142.17 143.13 Z M 143.44 142.90 L 144.40 142.68 C 145.26 142.49 145.80 141.64 145.60 140.78 C 145.41 139.93 144.56 139.39 143.70 139.58 L 142.74 139.79 C 141.89 139.99 141.35 140.84 141.54 141.69 C 141.73 142.55 142.58 143.09 143.44 142.90 Z M 144.43 142.67 L 145.43 142.43 C 146.29 142.22 146.81 141.36 146.60 140.51 C 146.39 139.66 145.54 139.14 144.68 139.34 L 143.68 139.59 C 142.83 139.79 142.30 140.65 142.51 141.50 C 142.72 142.36 143.57 142.88 144.43 142.67 Z M 145.45 142.42 L 146.46 142.16 C 147.30 141.94 147.81 141.08 147.59 140.23 C 147.38 139.39 146.51 138.88 145.67 139.09 L 144.66 139.35 C 143.82 139.57 143.31 140.43 143.53 141.28 C 143.74 142.13 144.61 142.64 145.45 142.42 Z M 146.47 142.15 L 147.47 141.88 C 148.31 141.65 148.81 140.79 148.58 139.95 C 148.35 139.11 147.49 138.61 146.65 138.84 L 145.65 139.11 C 144.81 139.33 144.31 140.20 144.54 141.04 C 144.77 141.88 145.63 142.38 146.47 142.15 Z M 147.48 141.86 L 148.43 141.60 C 149.26 141.36 149.75 140.50 149.51 139.67 C 149.28 138.84 148.42 138.35 147.59 138.59 L 146.64 138.85 C 145.81 139.09 145.32 139.95 145.56 140.78 C 145.79 141.61 146.65 142.10 147.48 141.86 Z M 148.43 141.58 L 149.35 141.32 C 150.17 141.09 150.65 140.23 150.42 139.40 C 150.18 138.58 149.32 138.10 148.50 138.34 L 147.58 138.60 C 146.76 138.84 146.28 139.69 146.52 140.52 C 146.75 141.34 147.61 141.82 148.43 141.58 Z M 149.35 141.31 L 150.24 141.06 C 151.06 140.82 151.54 139.97 151.30 139.15 C 151.07 138.33 150.21 137.86 149.40 138.09 L 148.50 138.35 C 147.68 138.58 147.21 139.44 147.44 140.25 C 147.68 141.07 148.53 141.55 149.35 141.31 Z M 150.24 141.05 L 151.19 140.78 C 152.01 140.54 152.48 139.70 152.25 138.88 C 152.02 138.06 151.17 137.59 150.35 137.83 L 149.40 138.10 C 148.58 138.33 148.11 139.18 148.34 139.99 C 148.58 140.81 149.43 141.28 150.24 141.05 Z M 151.19 140.77 L 152.24 140.47 C 153.05 140.24 153.52 139.40 153.29 138.59 C 153.06 137.77 152.22 137.30 151.40 137.53 L 150.36 137.83 C 149.54 138.06 149.07 138.91 149.30 139.72 C 149.53 140.53 150.38 141.00 151.19 140.77 Z M 152.23 140.46 L 153.20 140.19 C 154.01 139.96 154.48 139.12 154.25 138.32 C 154.02 137.51 153.18 137.04 152.38 137.27 L 151.41 137.54 C 150.60 137.77 150.13 138.61 150.36 139.42 C 150.59 140.22 151.43 140.69 152.23 140.46 Z M 153.19 140.18 L 154.20 139.90 C 155.00 139.68 155.47 138.84 155.24 138.04 C 155.02 137.24 154.19 136.78 153.39 137.00 L 152.38 137.28 C 151.58 137.50 151.12 138.34 151.34 139.14 C 151.56 139.94 152.39 140.40 153.19 140.18 Z M 154.19 139.89 L 155.16 139.62 C 155.96 139.40 156.42 138.58 156.20 137.78 C 155.98 136.99 155.16 136.52 154.37 136.74 L 153.40 137.01 C 152.60 137.23 152.13 138.05 152.35 138.85 C 152.57 139.64 153.39 140.11 154.19 139.89 Z M 155.15 139.61 L 156.12 139.35 C 156.91 139.14 157.38 138.32 157.17 137.53 C 156.96 136.75 156.14 136.28 155.35 136.49 L 154.38 136.75 C 153.59 136.96 153.12 137.78 153.33 138.57 C 153.55 139.36 154.36 139.82 155.15 139.61 Z M 156.10 139.34 L 157.14 139.08 C 157.93 138.88 158.40 138.08 158.21 137.30 C 158.01 136.51 157.21 136.04 156.43 136.23 L 155.38 136.50 C 154.60 136.70 154.12 137.49 154.32 138.28 C 154.52 139.06 155.31 139.54 156.10 139.34 Z M 157.10 139.07 L 157.98 138.88 C 158.76 138.70 159.25 137.93 159.08 137.15 C 158.91 136.37 158.14 135.87 157.36 136.05 L 156.47 136.24 C 155.69 136.41 155.20 137.18 155.37 137.97 C 155.54 138.75 156.31 139.24 157.10 139.07 Z M 157.91 138.88 L 158.86 138.71 C 159.64 138.57 160.16 137.83 160.03 137.05 C 159.89 136.27 159.15 135.74 158.36 135.88 L 157.42 136.05 C 156.64 136.18 156.11 136.93 156.25 137.71 C 156.39 138.49 157.13 139.01 157.91 138.88 Z M 158.81 138.71 L 159.80 138.57 C 160.58 138.46 161.13 137.74 161.02 136.96 C 160.91 136.18 160.18 135.63 159.40 135.74 L 158.41 135.88 C 157.63 135.99 157.09 136.71 157.20 137.49 C 157.30 138.28 158.03 138.82 158.81 138.71 Z M 159.78 138.57 L 160.23 138.51 C 161.01 138.41 161.56 137.70 161.46 136.92 C 161.36 136.14 160.65 135.58 159.87 135.68 L 159.42 135.74 C 158.64 135.84 158.08 136.56 158.18 137.34 C 158.28 138.12 159.00 138.67 159.78 138.57 Z"
      fill="black"
      fill-rule="nonzero" /><path d="M 137.64 150.82 L 136.50 151.38 C 135.77 151.75 135.47 152.64 135.83 153.37 C 136.19 154.11 137.08 154.41 137.82 154.05 L 138.96 153.48 C 139.69 153.12 139.99 152.23 139.63 151.49 C 139.27 150.76 138.38 150.46 137.64 150.82 Z M 136.42 151.36 L 135.62 151.80 C 134.87 152.21 134.59 153.15 135.00 153.89 C 135.41 154.64 136.35 154.92 137.10 154.51 L 137.90 154.07 C 138.65 153.66 138.92 152.72 138.51 151.98 C 138.11 151.23 137.17 150.95 136.42 151.36 Z M 134.80 153.44 L 134.84 153.65 C 134.99 154.51 135.82 155.08 136.68 154.92 C 137.54 154.76 138.11 153.93 137.95 153.07 L 137.91 152.87 C 137.75 152.01 136.93 151.44 136.07 151.60 C 135.21 151.76 134.64 152.58 134.80 153.44 Z M 136.74 154.92 L 137.88 154.67 C 138.74 154.48 139.28 153.63 139.09 152.76 C 138.90 151.90 138.05 151.36 137.19 151.55 L 136.05 151.80 C 135.19 151.99 134.64 152.84 134.83 153.70 C 135.02 154.57 135.88 155.11 136.74 154.92 Z M 137.99 154.64 L 138.92 154.36 C 139.77 154.11 140.25 153.22 139.99 152.37 C 139.74 151.52 138.84 151.04 138.00 151.29 L 137.07 151.57 C 136.22 151.83 135.74 152.72 136.00 153.57 C 136.25 154.42 137.14 154.90 137.99 154.64 Z M 138.96 154.35 L 139.98 154.01 C 140.83 153.73 141.28 152.82 141.00 151.98 C 140.72 151.14 139.81 150.69 138.97 150.97 L 137.95 151.31 C 137.11 151.59 136.66 152.50 136.93 153.34 C 137.21 154.18 138.12 154.63 138.96 154.35 Z M 140.01 154.01 L 140.98 153.67 C 141.81 153.38 142.26 152.46 141.96 151.63 C 141.67 150.79 140.76 150.35 139.92 150.64 L 138.95 150.97 C 138.11 151.27 137.67 152.18 137.96 153.02 C 138.25 153.85 139.17 154.30 140.01 154.01 Z M 140.99 153.66 L 141.94 153.33 C 142.78 153.03 143.21 152.11 142.92 151.28 C 142.62 150.44 141.70 150.00 140.87 150.30 L 139.91 150.64 C 139.08 150.94 138.64 151.85 138.94 152.69 C 139.23 153.52 140.15 153.96 140.99 153.66 Z M 141.94 153.32 L 142.90 152.98 C 143.74 152.68 144.17 151.76 143.87 150.93 C 143.57 150.09 142.66 149.66 141.82 149.96 L 140.86 150.30 C 140.03 150.60 139.59 151.52 139.89 152.35 C 140.19 153.19 141.11 153.62 141.94 153.32 Z M 142.91 152.98 L 143.84 152.64 C 144.67 152.34 145.11 151.42 144.81 150.59 C 144.50 149.76 143.59 149.32 142.76 149.63 L 141.82 149.96 C 140.99 150.26 140.56 151.18 140.86 152.01 C 141.16 152.84 142.08 153.28 142.91 152.98 Z M 143.85 152.63 L 144.74 152.30 C 145.57 152.00 146.00 151.08 145.69 150.25 C 145.39 149.42 144.47 149.00 143.64 149.30 L 142.75 149.63 C 141.92 149.94 141.49 150.85 141.80 151.68 C 142.10 152.51 143.02 152.94 143.85 152.63 Z M 144.75 152.30 L 145.68 151.95 C 146.51 151.65 146.93 150.73 146.62 149.90 C 146.32 149.08 145.40 148.66 144.58 148.96 L 143.64 149.31 C 142.82 149.61 142.39 150.53 142.70 151.35 C 143.00 152.18 143.92 152.60 144.75 152.30 Z M 145.66 151.95 L 146.60 151.61 C 147.43 151.32 147.85 150.41 147.56 149.59 C 147.27 148.76 146.36 148.33 145.53 148.63 L 144.59 148.97 C 143.77 149.26 143.34 150.17 143.64 150.99 C 143.93 151.81 144.84 152.24 145.66 151.95 Z M 146.60 151.60 L 147.54 151.26 C 148.35 150.96 148.78 150.07 148.48 149.25 C 148.19 148.43 147.29 148.01 146.47 148.31 L 145.54 148.64 C 144.72 148.94 144.30 149.84 144.59 150.65 C 144.89 151.47 145.79 151.89 146.60 151.60 Z M 147.55 151.23 L 148.48 150.88 C 149.29 150.58 149.69 149.69 149.39 148.89 C 149.09 148.08 148.19 147.68 147.39 147.98 L 146.46 148.33 C 145.66 148.63 145.25 149.53 145.55 150.33 C 145.86 151.13 146.75 151.54 147.55 151.23 Z M 148.46 150.87 L 149.41 150.53 C 150.20 150.23 150.61 149.36 150.32 148.56 C 150.03 147.77 149.15 147.36 148.36 147.65 L 147.41 147.99 C 146.62 148.28 146.21 149.16 146.50 149.96 C 146.79 150.75 147.67 151.16 148.46 150.87 Z M 149.39 150.51 L 150.33 150.18 C 151.12 149.90 151.53 149.03 151.25 148.24 C 150.97 147.45 150.10 147.04 149.32 147.32 L 148.37 147.66 C 147.58 147.94 147.17 148.81 147.45 149.60 C 147.74 150.38 148.60 150.80 149.39 150.51 Z M 150.35 150.16 L 151.27 149.81 C 152.05 149.52 152.44 148.65 152.15 147.88 C 151.85 147.10 150.99 146.71 150.21 147.00 L 149.30 147.35 C 148.52 147.64 148.13 148.50 148.42 149.28 C 148.71 150.06 149.58 150.45 150.35 150.16 Z M 151.28 149.79 L 152.23 149.43 C 152.99 149.13 153.37 148.26 153.08 147.50 C 152.78 146.73 151.91 146.35 151.15 146.65 L 150.20 147.02 C 149.43 147.32 149.05 148.18 149.35 148.95 C 149.65 149.71 150.51 150.09 151.28 149.79 Z M 152.22 149.41 L 153.16 149.05 C 153.92 148.75 154.30 147.90 154.00 147.14 C 153.71 146.38 152.85 146.00 152.09 146.30 L 151.15 146.66 C 150.39 146.96 150.02 147.81 150.31 148.57 C 150.61 149.33 151.46 149.71 152.22 149.41 Z M 153.16 149.03 L 154.10 148.67 C 154.85 148.37 155.23 147.52 154.93 146.77 C 154.64 146.02 153.79 145.65 153.04 145.94 L 152.09 146.31 C 151.34 146.60 150.97 147.45 151.26 148.20 C 151.56 148.96 152.41 149.33 153.16 149.03 Z M 154.10 148.65 L 155.03 148.29 C 155.77 148.00 156.14 147.16 155.85 146.41 C 155.56 145.67 154.71 145.30 153.97 145.59 L 153.04 145.95 C 152.30 146.25 151.93 147.09 152.22 147.83 C 152.51 148.58 153.35 148.95 154.10 148.65 Z M 155.02 148.28 L 155.88 147.94 C 156.62 147.65 156.99 146.82 156.70 146.08 C 156.41 145.34 155.57 144.97 154.83 145.26 L 153.97 145.60 C 153.23 145.89 152.87 146.73 153.16 147.47 C 153.45 148.21 154.28 148.57 155.02 148.28 Z M 155.89 147.93 L 156.84 147.56 C 157.57 147.26 157.93 146.43 157.64 145.69 C 157.34 144.96 156.51 144.60 155.77 144.89 L 154.83 145.27 C 154.09 145.56 153.73 146.40 154.02 147.13 C 154.32 147.87 155.15 148.23 155.89 147.93 Z M 156.84 147.55 L 157.74 147.18 C 158.47 146.89 158.82 146.05 158.53 145.32 C 158.23 144.59 157.39 144.24 156.66 144.54 L 155.77 144.90 C 155.03 145.20 154.68 146.03 154.98 146.76 C 155.28 147.49 156.11 147.85 156.84 147.55 Z M 157.74 147.18 L 158.68 146.80 C 159.41 146.50 159.76 145.66 159.46 144.93 C 159.16 144.20 158.32 143.86 157.59 144.16 L 156.66 144.54 C 155.93 144.84 155.58 145.67 155.88 146.40 C 156.18 147.13 157.01 147.48 157.74 147.18 Z M 158.68 146.79 L 159.60 146.41 C 160.33 146.11 160.68 145.28 160.38 144.55 C 160.08 143.82 159.24 143.48 158.51 143.78 L 157.59 144.16 C 156.86 144.46 156.52 145.29 156.82 146.02 C 157.12 146.75 157.95 147.09 158.68 146.79 Z"
      fill="black"
      fill-rule="nonzero" /><path d="M 149.63 124.27 L 149.29 125.17 C 148.99 125.98 149.40 126.87 150.21 127.17 C 151.02 127.48 151.91 127.07 152.21 126.26 L 152.55 125.37 C 152.85 124.56 152.44 123.66 151.63 123.36 C 150.83 123.06 149.93 123.47 149.63 124.27 Z M 149.25 125.21 L 148.92 126.18 C 148.64 127.01 149.09 127.91 149.92 128.19 C 150.75 128.47 151.65 128.03 151.93 127.20 L 152.26 126.22 C 152.54 125.39 152.09 124.49 151.26 124.21 C 150.43 123.93 149.53 124.38 149.25 125.21 Z M 148.88 126.25 L 148.60 127.22 C 148.36 128.07 148.85 128.96 149.70 129.21 C 150.56 129.45 151.45 128.96 151.69 128.11 L 151.97 127.13 C 152.22 126.28 151.72 125.39 150.87 125.14 C 150.02 124.90 149.13 125.39 148.88 126.25 Z M 148.59 127.26 L 148.33 128.24 C 148.10 129.11 148.62 129.99 149.48 130.21 C 150.34 130.44 151.23 129.92 151.45 129.06 L 151.71 128.07 C 151.93 127.21 151.42 126.33 150.55 126.10 C 149.69 125.88 148.81 126.39 148.59 127.26 Z M 148.32 128.25 L 148.07 129.22 C 147.85 130.08 148.37 130.97 149.23 131.19 C 150.09 131.42 150.98 130.90 151.20 130.03 L 151.45 129.06 C 151.68 128.19 151.16 127.31 150.30 127.09 C 149.43 126.86 148.55 127.38 148.32 128.25 Z M 148.07 129.20 L 147.81 130.17 C 147.58 131.03 148.09 131.92 148.95 132.15 C 149.82 132.39 150.71 131.87 150.94 131.01 L 151.20 130.05 C 151.43 129.18 150.92 128.30 150.06 128.06 C 149.20 127.83 148.31 128.34 148.07 129.20 Z M 147.81 130.18 L 147.57 131.11 C 147.34 131.97 147.85 132.86 148.72 133.09 C 149.58 133.31 150.47 132.80 150.70 131.93 L 150.94 131.00 C 151.17 130.14 150.65 129.25 149.79 129.02 C 148.92 128.79 148.04 129.31 147.81 130.18 Z M 147.56 131.13 L 147.33 132.07 C 147.11 132.93 147.64 133.81 148.51 134.03 C 149.38 134.24 150.26 133.71 150.47 132.84 L 150.70 131.91 C 150.92 131.04 150.39 130.16 149.52 129.95 C 148.65 129.73 147.77 130.26 147.56 131.13 Z M 147.33 132.06 L 147.08 133.07 C 146.86 133.94 147.39 134.82 148.26 135.04 C 149.13 135.25 150.01 134.72 150.22 133.85 L 150.47 132.84 C 150.69 131.98 150.16 131.10 149.29 130.88 C 148.42 130.67 147.54 131.20 147.33 132.06 Z M 147.08 133.06 L 146.84 133.99 C 146.61 134.86 147.13 135.74 148.00 135.97 C 148.87 136.19 149.75 135.67 149.98 134.81 L 150.22 133.87 C 150.44 133.01 149.92 132.12 149.06 131.90 C 148.19 131.67 147.31 132.19 147.08 133.06 Z M 146.84 133.98 L 146.58 134.95 C 146.35 135.81 146.86 136.70 147.73 136.93 C 148.59 137.16 149.48 136.65 149.71 135.79 L 149.97 134.82 C 150.20 133.96 149.69 133.07 148.83 132.83 C 147.96 132.60 147.07 133.12 146.84 133.98 Z M 146.58 134.94 L 146.31 135.95 C 146.08 136.81 146.59 137.70 147.46 137.93 C 148.32 138.17 149.21 137.65 149.44 136.79 L 149.71 135.79 C 149.95 134.92 149.43 134.04 148.57 133.80 C 147.71 133.57 146.82 134.08 146.58 134.94 Z M 146.31 135.95 L 146.06 136.88 C 145.83 137.75 146.34 138.64 147.21 138.87 C 148.07 139.10 148.96 138.59 149.19 137.72 L 149.44 136.79 C 149.67 135.92 149.16 135.03 148.30 134.80 C 147.43 134.57 146.54 135.08 146.31 135.95 Z M 146.06 136.88 L 145.80 137.85 C 145.57 138.72 146.08 139.61 146.95 139.84 C 147.81 140.07 148.70 139.55 148.93 138.69 L 149.19 137.72 C 149.42 136.86 148.91 135.97 148.05 135.74 C 147.18 135.50 146.29 136.02 146.06 136.88 Z M 145.80 137.85 L 145.53 138.85 C 145.30 139.71 145.81 140.60 146.68 140.84 C 147.54 141.07 148.43 140.56 148.66 139.69 L 148.93 138.69 C 149.17 137.83 148.65 136.94 147.79 136.71 C 146.92 136.47 146.04 136.99 145.80 137.85 Z M 145.53 138.85 L 145.28 139.78 C 145.05 140.64 145.56 141.53 146.42 141.77 C 147.28 142.00 148.17 141.49 148.41 140.63 L 148.66 139.70 C 148.90 138.83 148.39 137.94 147.52 137.71 C 146.66 137.47 145.77 137.98 145.53 138.85 Z M 145.28 139.77 L 145.02 140.73 C 144.78 141.59 145.29 142.48 146.15 142.72 C 147.01 142.96 147.91 142.45 148.14 141.59 L 148.41 140.63 C 148.65 139.77 148.14 138.88 147.28 138.64 C 146.41 138.40 145.52 138.91 145.28 139.77 Z M 145.02 140.72 L 144.75 141.71 C 144.51 142.57 145.01 143.47 145.87 143.71 C 146.73 143.95 147.63 143.44 147.87 142.58 L 148.14 141.59 C 148.38 140.73 147.88 139.84 147.02 139.60 C 146.16 139.36 145.26 139.86 145.02 140.72 Z M 144.75 141.70 L 144.47 142.68 C 144.23 143.54 144.73 144.44 145.59 144.68 C 146.45 144.93 147.35 144.42 147.59 143.56 L 147.87 142.59 C 148.11 141.72 147.61 140.83 146.75 140.59 C 145.89 140.34 144.99 140.84 144.75 141.70 Z M 144.47 142.68 L 144.20 143.65 C 143.95 144.51 144.45 145.40 145.31 145.65 C 146.17 145.89 147.07 145.39 147.31 144.53 L 147.59 143.57 C 147.83 142.71 147.34 141.81 146.47 141.56 C 145.61 141.32 144.72 141.82 144.47 142.68 Z M 144.20 143.64 L 143.92 144.61 C 143.67 145.47 144.17 146.37 145.03 146.62 C 145.89 146.86 146.79 146.36 147.03 145.50 L 147.31 144.54 C 147.56 143.68 147.06 142.78 146.20 142.53 C 145.34 142.29 144.44 142.78 144.20 143.64 Z M 143.92 144.61 L 143.65 145.57 C 143.40 146.43 143.90 147.32 144.76 147.57 C 145.62 147.82 146.52 147.32 146.76 146.46 L 147.03 145.50 C 147.28 144.64 146.78 143.75 145.92 143.50 C 145.06 143.26 144.17 143.75 143.92 144.61 Z M 143.65 145.57 L 143.37 146.55 C 143.12 147.41 143.62 148.31 144.48 148.55 C 145.34 148.80 146.24 148.30 146.48 147.44 L 146.76 146.46 C 147.01 145.60 146.51 144.70 145.65 144.46 C 144.79 144.21 143.89 144.71 143.65 145.57 Z M 143.37 146.55 L 143.09 147.51 C 142.85 148.37 143.34 149.27 144.20 149.51 C 145.06 149.76 145.96 149.26 146.20 148.41 L 146.48 147.44 C 146.73 146.58 146.23 145.69 145.37 145.44 C 144.51 145.20 143.62 145.69 143.37 146.55 Z M 143.10 147.50 L 142.82 148.45 C 142.57 149.31 143.06 150.20 143.92 150.46 C 144.77 150.71 145.67 150.22 145.92 149.36 L 146.20 148.42 C 146.45 147.56 145.96 146.66 145.10 146.41 C 144.25 146.16 143.35 146.65 143.10 147.50 Z M 142.83 148.43 L 142.54 149.38 C 142.28 150.23 142.76 151.14 143.61 151.40 C 144.46 151.66 145.37 151.18 145.63 150.32 L 145.92 149.38 C 146.18 148.52 145.70 147.62 144.84 147.36 C 143.99 147.10 143.09 147.58 142.83 148.43 Z M 142.54 149.37 L 142.24 150.32 C 141.97 151.17 142.44 152.08 143.29 152.35 C 144.14 152.62 145.05 152.14 145.32 151.30 L 145.62 150.34 C 145.89 149.49 145.42 148.58 144.57 148.31 C 143.72 148.05 142.81 148.52 142.54 149.37 Z M 142.25 150.31 L 141.94 151.27 C 141.67 152.11 142.13 153.02 142.98 153.29 C 143.82 153.57 144.73 153.10 145.00 152.26 L 145.31 151.30 C 145.59 150.46 145.12 149.55 144.27 149.28 C 143.43 149.00 142.52 149.47 142.25 150.31 Z M 141.94 151.26 L 141.63 152.21 C 141.36 153.06 141.82 153.96 142.67 154.24 C 143.51 154.51 144.42 154.05 144.69 153.20 L 145.00 152.26 C 145.28 151.41 144.81 150.51 143.97 150.23 C 143.12 149.96 142.22 150.42 141.94 151.26 Z M 141.64 152.21 L 141.32 153.18 C 141.05 154.03 141.51 154.93 142.36 155.20 C 143.20 155.48 144.11 155.01 144.38 154.17 L 144.69 153.20 C 144.96 152.36 144.50 151.45 143.66 151.18 C 142.81 150.91 141.91 151.37 141.64 152.21 Z M 141.33 153.18 L 141.02 154.14 C 140.74 154.98 141.20 155.88 142.05 156.15 C 142.89 156.43 143.79 155.97 144.07 155.13 L 144.38 154.17 C 144.65 153.33 144.19 152.43 143.35 152.15 C 142.51 151.88 141.60 152.34 141.33 153.18 Z M 141.02 154.12 L 140.71 155.06 C 140.43 155.90 140.89 156.80 141.72 157.08 C 142.56 157.36 143.47 156.91 143.75 156.07 L 144.06 155.14 C 144.34 154.30 143.89 153.39 143.05 153.11 C 142.21 152.83 141.30 153.29 141.02 154.12 Z M 140.72 155.04 L 140.39 156.00 C 140.10 156.83 140.54 157.75 141.37 158.04 C 142.20 158.33 143.11 157.89 143.40 157.05 L 143.74 156.09 C 144.03 155.26 143.59 154.35 142.76 154.06 C 141.92 153.76 141.01 154.20 140.72 155.04 Z M 140.40 155.98 L 140.05 156.93 C 139.75 157.76 140.18 158.67 141.01 158.97 C 141.83 159.27 142.75 158.85 143.05 158.02 L 143.39 157.07 C 143.69 156.24 143.27 155.33 142.44 155.03 C 141.61 154.73 140.70 155.16 140.40 155.98 Z M 140.06 156.91 L 139.72 157.83 C 139.41 158.65 139.83 159.57 140.65 159.88 C 141.47 160.18 142.39 159.77 142.70 158.95 L 143.04 158.03 C 143.35 157.21 142.93 156.29 142.11 155.98 C 141.29 155.68 140.37 156.09 140.06 156.91 Z M 139.73 157.82 L 139.36 158.76 C 139.05 159.58 139.46 160.50 140.28 160.81 C 141.09 161.13 142.01 160.72 142.33 159.90 L 142.69 158.96 C 143.00 158.14 142.60 157.22 141.78 156.90 C 140.96 156.59 140.04 157.00 139.73 157.82 Z M 139.37 158.75 L 139.00 159.67 C 138.68 160.49 139.08 161.41 139.89 161.73 C 140.71 162.05 141.63 161.65 141.95 160.84 L 142.32 159.91 C 142.64 159.10 142.24 158.18 141.43 157.86 C 140.61 157.54 139.69 157.93 139.37 158.75 Z M 139.02 159.65 L 138.64 160.56 C 138.31 161.37 138.69 162.29 139.50 162.62 C 140.30 162.96 141.23 162.58 141.56 161.77 L 141.94 160.86 C 142.27 160.06 141.89 159.13 141.08 158.80 C 140.28 158.46 139.35 158.85 139.02 159.65 Z M 138.66 160.53 L 138.27 161.43 C 137.92 162.23 138.28 163.15 139.08 163.50 C 139.87 163.85 140.80 163.49 141.15 162.69 L 141.54 161.80 C 141.89 161.00 141.53 160.07 140.73 159.72 C 139.94 159.37 139.01 159.74 138.66 160.53 Z M 138.29 161.40 L 137.87 162.31 C 137.50 163.09 137.85 164.02 138.63 164.39 C 139.42 164.75 140.35 164.41 140.71 163.63 L 141.13 162.72 C 141.49 161.93 141.15 161.00 140.37 160.64 C 139.58 160.28 138.65 160.62 138.29 161.40 Z M 137.89 162.28 L 137.44 163.20 C 137.06 163.98 137.38 164.91 138.16 165.29 C 138.93 165.67 139.86 165.35 140.24 164.57 L 140.69 163.65 C 141.07 162.88 140.75 161.94 139.97 161.57 C 139.20 161.19 138.27 161.51 137.89 162.28 Z M 137.46 163.18 L 136.99 164.08 C 136.60 164.85 136.90 165.78 137.66 166.18 C 138.43 166.57 139.36 166.27 139.75 165.50 L 140.22 164.60 C 140.61 163.83 140.31 162.90 139.55 162.51 C 138.79 162.11 137.85 162.42 137.46 163.18 Z M 137.02 164.05 L 136.53 164.93 C 136.12 165.68 136.40 166.62 137.14 167.03 C 137.89 167.44 138.83 167.17 139.24 166.42 L 139.73 165.54 C 140.14 164.79 139.87 163.85 139.12 163.44 C 138.37 163.03 137.43 163.30 137.02 164.05 Z M 136.57 164.88 L 136.05 165.74 C 135.61 166.46 135.84 167.41 136.57 167.85 C 137.29 168.29 138.24 168.06 138.68 167.33 L 139.20 166.47 C 139.65 165.75 139.41 164.80 138.69 164.36 C 137.96 163.92 137.02 164.15 136.57 164.88 Z M 136.11 165.67 L 135.53 166.51 C 135.06 167.21 135.24 168.16 135.93 168.63 C 136.63 169.11 137.58 168.93 138.05 168.23 L 138.63 167.40 C 139.10 166.70 138.93 165.75 138.23 165.27 C 137.53 164.80 136.58 164.98 136.11 165.67 Z M 135.58 166.47 L 135.01 167.24 C 134.51 167.92 134.65 168.86 135.33 169.36 C 136.00 169.86 136.95 169.71 137.44 169.04 L 138.01 168.27 C 138.51 167.60 138.37 166.65 137.69 166.15 C 137.02 165.66 136.07 165.80 135.58 166.47 Z M 135.02 167.24 L 134.98 167.29 C 134.48 167.96 134.62 168.90 135.28 169.40 C 135.95 169.90 136.89 169.76 137.39 169.10 L 137.43 169.05 C 137.93 168.38 137.79 167.44 137.13 166.94 C 136.46 166.44 135.52 166.57 135.02 167.24 Z"
      fill="black"
      fill-rule="nonzero" /><path d="M 150.81 154.15 L 151.82 154.15 C 152.67 154.15 153.35 153.47 153.35 152.62 C 153.35 151.77 152.67 151.09 151.82 151.09 L 150.81 151.09 C 149.97 151.09 149.28 151.77 149.28 152.62 C 149.28 153.47 149.97 154.15 150.81 154.15 Z M 151.82 154.18 L 152.82 154.18 C 153.68 154.18 154.37 153.48 154.37 152.62 C 154.37 151.76 153.68 151.06 152.82 151.06 L 151.82 151.06 C 150.96 151.06 150.26 151.76 150.26 152.62 C 150.26 153.48 150.96 154.18 151.82 154.18 Z M 152.82 154.18 L 153.84 154.18 C 154.70 154.18 155.40 153.48 155.40 152.62 C 155.40 151.76 154.70 151.06 153.84 151.06 L 152.82 151.06 C 151.95 151.06 151.25 151.76 151.25 152.62 C 151.25 153.48 151.95 154.18 152.82 154.18 Z M 153.84 154.17 L 154.85 154.17 C 155.70 154.17 156.39 153.47 156.39 152.62 C 156.39 151.77 155.70 151.07 154.85 151.07 L 153.84 151.07 C 152.99 151.07 152.29 151.77 152.29 152.62 C 152.29 153.47 152.99 154.17 153.84 154.17 Z M 154.85 154.14 L 155.84 154.14 C 156.67 154.14 157.35 153.46 157.35 152.62 C 157.35 151.78 156.67 151.11 155.84 151.11 L 154.85 151.11 C 154.01 151.11 153.33 151.78 153.33 152.62 C 153.33 153.46 154.01 154.14 154.85 154.14 Z M 155.83 154.11 L 156.83 154.11 C 157.65 154.12 158.32 153.46 158.32 152.64 C 158.33 151.82 157.67 151.15 156.85 151.14 L 155.85 151.13 C 155.03 151.13 154.36 151.79 154.35 152.61 C 154.34 153.43 155.00 154.10 155.83 154.11 Z M 156.79 154.09 L 157.77 154.12 C 158.58 154.15 159.25 153.51 159.28 152.71 C 159.31 151.90 158.68 151.23 157.87 151.20 L 156.89 151.17 C 156.08 151.14 155.41 151.77 155.38 152.58 C 155.35 153.39 155.98 154.06 156.79 154.09 Z M 157.71 154.10 L 158.71 154.17 C 159.51 154.23 160.20 153.64 160.26 152.84 C 160.32 152.05 159.72 151.35 158.93 151.29 L 157.93 151.22 C 157.13 151.16 156.44 151.76 156.38 152.55 C 156.32 153.35 156.92 154.04 157.71 154.10 Z M 158.64 154.16 L 159.63 154.28 C 160.42 154.38 161.14 153.82 161.23 153.04 C 161.33 152.25 160.78 151.54 159.99 151.44 L 159.00 151.31 C 158.21 151.21 157.50 151.77 157.40 152.55 C 157.30 153.34 157.85 154.06 158.64 154.16 Z M 159.58 154.27 L 160.54 154.43 C 161.32 154.55 162.05 154.02 162.18 153.25 C 162.31 152.47 161.78 151.73 161.00 151.61 L 160.04 151.45 C 159.26 151.32 158.53 151.85 158.40 152.63 C 158.28 153.41 158.80 154.14 159.58 154.27 Z"
      fill="black"
      fill-rule="nonzero" /><path d="M 146.19 161.29 L 145.31 161.78 C 144.56 162.19 144.28 163.13 144.70 163.88 C 145.11 164.63 146.05 164.90 146.80 164.49 L 147.68 164.01 C 148.43 163.59 148.70 162.65 148.29 161.90 C 147.88 161.15 146.94 160.88 146.19 161.29 Z M 144.64 162.41 L 144.23 163.20 C 143.83 163.98 144.13 164.94 144.91 165.34 C 145.69 165.74 146.65 165.44 147.05 164.66 L 147.46 163.86 C 147.87 163.08 147.56 162.13 146.78 161.72 C 146.00 161.32 145.04 161.63 144.64 162.41 Z M 144.03 163.92 L 144.03 164.96 C 144.02 165.85 144.74 166.57 145.63 166.58 C 146.51 166.58 147.24 165.87 147.24 164.98 L 147.25 163.94 C 147.26 163.05 146.54 162.33 145.65 162.32 C 144.76 162.32 144.04 163.03 144.03 163.92 Z M 144.03 165.16 L 144.14 166.08 C 144.25 166.96 145.05 167.60 145.94 167.49 C 146.82 167.39 147.45 166.58 147.35 165.70 L 147.24 164.78 C 147.13 163.89 146.33 163.26 145.45 163.37 C 144.56 163.47 143.93 164.27 144.03 165.16 Z M 144.15 166.10 L 144.28 167.11 C 144.40 167.99 145.21 168.62 146.09 168.50 C 146.98 168.38 147.60 167.57 147.48 166.68 L 147.35 165.68 C 147.23 164.79 146.42 164.17 145.53 164.29 C 144.65 164.41 144.03 165.22 144.15 166.10 Z M 144.28 167.07 L 144.38 168.08 C 144.48 168.97 145.27 169.61 146.16 169.52 C 147.05 169.42 147.69 168.62 147.59 167.74 L 147.48 166.73 C 147.39 165.84 146.59 165.20 145.71 165.29 C 144.82 165.39 144.18 166.18 144.28 167.07 Z M 144.38 168.04 L 144.46 169.04 C 144.54 169.92 145.31 170.58 146.20 170.51 C 147.09 170.44 147.75 169.66 147.68 168.77 L 147.59 167.78 C 147.52 166.89 146.74 166.23 145.86 166.31 C 144.97 166.38 144.31 167.16 144.38 168.04 Z M 144.46 169.00 L 144.53 170.04 C 144.58 170.93 145.35 171.61 146.24 171.55 C 147.12 171.49 147.80 170.73 147.74 169.84 L 147.68 168.80 C 147.62 167.92 146.86 167.24 145.97 167.30 C 145.08 167.35 144.41 168.12 144.46 169.00 Z M 144.53 170.01 L 144.58 171.06 C 144.61 171.95 145.36 172.63 146.25 172.60 C 147.13 172.56 147.82 171.81 147.78 170.92 L 147.74 169.88 C 147.70 168.99 146.95 168.30 146.07 168.34 C 145.18 168.38 144.49 169.13 144.53 170.01 Z M 144.58 171.03 L 144.61 172.06 C 144.62 172.94 145.35 173.64 146.24 173.62 C 147.12 173.60 147.82 172.87 147.80 171.99 L 147.78 170.96 C 147.76 170.08 147.03 169.38 146.15 169.40 C 145.26 169.41 144.56 170.15 144.58 171.03 Z M 144.62 172.04 L 144.62 173.01 C 144.63 173.89 145.34 174.59 146.22 174.58 C 147.09 174.58 147.80 173.86 147.79 172.99 L 147.79 172.02 C 147.78 171.14 147.07 170.44 146.19 170.44 C 145.32 170.45 144.61 171.16 144.62 172.04 Z M 144.64 173.00 L 144.64 173.99 C 144.64 174.86 145.34 175.56 146.21 175.56 C 147.08 175.56 147.78 174.86 147.78 173.99 L 147.78 173.00 C 147.78 172.13 147.08 171.43 146.21 171.43 C 145.34 171.43 144.64 172.13 144.64 173.00 Z M 144.65 173.99 L 144.65 175.02 C 144.65 175.88 145.35 176.57 146.21 176.57 C 147.07 176.57 147.77 175.88 147.77 175.02 L 147.77 173.99 C 147.77 173.13 147.07 172.43 146.21 172.43 C 145.35 172.43 144.65 173.13 144.65 173.99 Z M 144.66 175.02 L 144.66 175.97 C 144.66 176.83 145.36 177.52 146.21 177.52 C 147.06 177.52 147.75 176.83 147.75 175.97 L 147.75 175.02 C 147.75 174.16 147.06 173.47 146.21 173.47 C 145.36 173.47 144.66 174.16 144.66 175.02 Z M 144.68 175.97 L 144.68 177.02 C 144.68 177.86 145.36 178.55 146.21 178.55 C 147.05 178.55 147.74 177.86 147.74 177.02 L 147.74 175.97 C 147.74 175.13 147.05 174.44 146.21 174.44 C 145.36 174.44 144.68 175.13 144.68 175.97 Z M 144.70 177.02 L 144.70 177.98 C 144.70 178.81 145.38 179.49 146.21 179.49 C 147.04 179.49 147.72 178.81 147.72 177.98 L 147.72 177.02 C 147.72 176.19 147.04 175.51 146.21 175.51 C 145.38 175.51 144.70 176.19 144.70 177.02 Z M 144.73 177.98 L 144.73 178.99 C 144.73 179.81 145.39 180.47 146.21 180.47 C 147.03 180.47 147.69 179.81 147.69 178.99 L 147.69 177.98 C 147.69 177.16 147.03 176.50 146.21 176.50 C 145.39 176.50 144.73 177.16 144.73 177.98 Z M 144.75 178.99 L 144.75 179.81 C 144.75 180.62 145.40 181.27 146.21 181.27 C 147.02 181.27 147.67 180.62 147.67 179.81 L 147.67 178.99 C 147.67 178.18 147.02 177.53 146.21 177.53 C 145.40 177.53 144.75 178.18 144.75 178.99 Z"
      fill="black"
      fill-rule="nonzero" /><path d="M 148.53 166.35 L 149.48 166.21 C 150.32 166.09 150.90 165.31 150.78 164.47 C 150.65 163.63 149.87 163.04 149.03 163.17 L 148.09 163.30 C 147.25 163.43 146.66 164.21 146.79 165.05 C 146.91 165.89 147.69 166.47 148.53 166.35 Z M 149.42 166.22 L 150.43 166.11 C 151.28 166.02 151.89 165.26 151.80 164.41 C 151.71 163.57 150.95 162.96 150.10 163.05 L 149.09 163.16 C 148.24 163.25 147.63 164.01 147.72 164.86 C 147.81 165.70 148.57 166.31 149.42 166.22 Z M 150.35 166.12 L 151.39 166.06 C 152.24 166.02 152.89 165.30 152.85 164.45 C 152.80 163.60 152.08 162.95 151.23 162.99 L 150.19 163.04 C 149.34 163.09 148.69 163.81 148.73 164.66 C 148.77 165.51 149.50 166.16 150.35 166.12 Z M 151.29 166.06 L 152.32 166.07 C 153.17 166.08 153.86 165.40 153.87 164.56 C 153.88 163.71 153.21 163.02 152.36 163.01 L 151.33 162.99 C 150.48 162.98 149.79 163.66 149.78 164.51 C 149.77 165.35 150.44 166.05 151.29 166.06 Z M 152.18 166.06 L 153.16 166.16 C 154.00 166.25 154.75 165.64 154.84 164.80 C 154.92 163.96 154.32 163.21 153.48 163.12 L 152.50 163.02 C 151.66 162.93 150.91 163.54 150.82 164.38 C 150.74 165.22 151.34 165.97 152.18 166.06 Z M 152.87 166.09 L 153.85 166.40 C 154.65 166.65 155.50 166.20 155.75 165.40 C 156.00 164.60 155.55 163.75 154.75 163.50 L 153.77 163.19 C 152.97 162.94 152.12 163.39 151.87 164.19 C 151.62 164.99 152.07 165.84 152.87 166.09 Z M 153.49 166.23 L 154.27 166.72 C 154.98 167.17 155.92 166.96 156.36 166.25 C 156.81 165.54 156.60 164.61 155.89 164.16 L 155.11 163.67 C 154.40 163.22 153.47 163.43 153.02 164.14 C 152.58 164.85 152.79 165.78 153.49 166.23 Z M 154.03 166.53 L 154.75 167.22 C 155.35 167.80 156.31 167.78 156.89 167.18 C 157.47 166.58 157.45 165.63 156.85 165.05 L 156.13 164.35 C 155.53 163.78 154.58 163.79 154.00 164.39 C 153.42 164.99 153.43 165.95 154.03 166.53 Z M 154.58 167.02 L 155.16 167.82 C 155.64 168.49 156.59 168.64 157.26 168.15 C 157.94 167.66 158.09 166.72 157.60 166.05 L 157.02 165.25 C 156.53 164.57 155.59 164.42 154.92 164.91 C 154.24 165.40 154.09 166.34 154.58 167.02 Z M 155.04 167.63 L 155.51 168.53 C 155.90 169.27 156.81 169.56 157.54 169.17 C 158.28 168.79 158.57 167.88 158.18 167.14 L 157.71 166.23 C 157.33 165.50 156.42 165.21 155.68 165.59 C 154.94 165.98 154.66 166.89 155.04 167.63 Z M 155.44 168.36 L 155.78 169.29 C 156.07 170.07 156.94 170.46 157.72 170.17 C 158.50 169.88 158.90 169.01 158.60 168.23 L 158.26 167.31 C 157.97 166.53 157.10 166.13 156.32 166.42 C 155.54 166.72 155.15 167.58 155.44 168.36 Z M 155.74 169.13 L 155.98 170.11 C 156.19 170.91 157.00 171.40 157.81 171.20 C 158.61 171.00 159.10 170.18 158.90 169.38 L 158.65 168.39 C 158.45 167.59 157.63 167.10 156.83 167.30 C 156.02 167.51 155.53 168.32 155.74 169.13 Z M 155.96 169.95 L 156.09 170.89 C 156.20 171.71 156.96 172.28 157.78 172.17 C 158.60 172.05 159.17 171.29 159.06 170.47 L 158.93 169.54 C 158.81 168.72 158.05 168.14 157.23 168.26 C 156.41 168.37 155.84 169.13 155.96 169.95 Z M 156.08 170.76 L 156.13 171.77 C 156.17 172.59 156.88 173.23 157.70 173.19 C 158.53 173.14 159.16 172.44 159.12 171.62 L 159.07 170.60 C 159.02 169.78 158.32 169.15 157.50 169.19 C 156.67 169.23 156.04 169.93 156.08 170.76 Z M 156.13 171.69 L 156.13 172.73 C 156.13 173.55 156.79 174.22 157.62 174.22 C 158.44 174.22 159.11 173.56 159.11 172.73 L 159.12 171.70 C 159.12 170.87 158.45 170.20 157.63 170.20 C 156.81 170.20 156.14 170.86 156.13 171.69 Z M 156.14 172.66 L 156.09 173.69 C 156.05 174.51 156.69 175.21 157.51 175.24 C 158.33 175.28 159.02 174.65 159.06 173.83 L 159.10 172.80 C 159.14 171.98 158.51 171.28 157.69 171.25 C 156.87 171.21 156.17 171.84 156.14 172.66 Z M 156.10 173.61 L 156.00 174.58 C 155.92 175.39 156.51 176.12 157.32 176.20 C 158.14 176.29 158.86 175.70 158.95 174.88 L 159.05 173.91 C 159.13 173.10 158.54 172.37 157.73 172.29 C 156.91 172.20 156.19 172.79 156.10 173.61 Z M 156.04 174.43 L 155.81 175.49 C 155.64 176.28 156.14 177.06 156.94 177.23 C 157.73 177.40 158.51 176.90 158.68 176.10 L 158.91 175.04 C 159.08 174.25 158.58 173.47 157.78 173.30 C 156.99 173.13 156.21 173.63 156.04 174.43 Z M 155.89 175.27 L 155.56 176.12 C 155.27 176.87 155.64 177.71 156.39 178.00 C 157.14 178.29 157.98 177.92 158.27 177.17 L 158.60 176.32 C 158.89 175.58 158.52 174.73 157.77 174.44 C 157.02 174.15 156.18 174.52 155.89 175.27 Z M 155.68 175.91 L 155.16 176.78 C 154.76 177.46 154.98 178.34 155.66 178.75 C 156.35 179.16 157.23 178.93 157.64 178.25 L 158.15 177.38 C 158.56 176.70 158.33 175.82 157.65 175.41 C 156.97 175.01 156.08 175.23 155.68 175.91 Z M 155.24 176.68 L 154.87 177.19 C 154.41 177.83 154.55 178.73 155.20 179.19 C 155.84 179.65 156.73 179.50 157.19 178.86 L 157.56 178.35 C 158.02 177.71 157.88 176.81 157.24 176.35 C 156.59 175.89 155.70 176.04 155.24 176.68 Z"
      fill="black"
      fill-rule="nonzero" /><path d="M 147.16 175.70 L 148.00 175.21 C 148.71 174.80 148.95 173.88 148.54 173.17 C 148.12 172.46 147.21 172.21 146.50 172.63 L 145.66 173.12 C 144.95 173.53 144.70 174.44 145.12 175.16 C 145.53 175.87 146.45 176.11 147.16 175.70 Z M 147.92 175.29 L 148.82 174.85 C 149.57 174.48 149.89 173.57 149.52 172.81 C 149.15 172.05 148.23 171.74 147.48 172.11 L 146.58 172.55 C 145.82 172.92 145.51 173.83 145.88 174.59 C 146.25 175.35 147.16 175.66 147.92 175.29 Z M 148.69 174.90 L 149.58 174.56 C 150.37 174.26 150.76 173.37 150.45 172.59 C 150.15 171.80 149.27 171.41 148.48 171.72 L 147.60 172.06 C 146.81 172.36 146.42 173.24 146.72 174.03 C 147.03 174.81 147.91 175.21 148.69 174.90 Z M 149.50 174.56 L 150.52 174.22 C 151.31 173.97 151.73 173.12 151.48 172.34 C 151.22 171.55 150.37 171.12 149.59 171.38 L 148.57 171.72 C 147.78 171.97 147.35 172.82 147.61 173.60 C 147.87 174.39 148.71 174.82 149.50 174.56 Z M 150.48 174.21 L 151.39 173.94 C 152.17 173.71 152.61 172.89 152.38 172.11 C 152.15 171.33 151.33 170.88 150.55 171.12 L 149.63 171.39 C 148.85 171.62 148.41 172.45 148.64 173.22 C 148.88 174.00 149.70 174.45 150.48 174.21 Z M 151.37 173.93 L 152.35 173.65 C 153.12 173.43 153.57 172.62 153.35 171.85 C 153.13 171.08 152.32 170.63 151.55 170.85 L 150.57 171.13 C 149.80 171.35 149.35 172.16 149.57 172.93 C 149.79 173.70 150.60 174.15 151.37 173.93 Z M 152.34 173.64 L 153.12 173.42 C 153.88 173.20 154.33 172.41 154.12 171.64 C 153.90 170.87 153.10 170.43 152.34 170.64 L 151.56 170.86 C 150.79 171.08 150.34 171.87 150.56 172.64 C 150.77 173.41 151.57 173.85 152.34 173.64 Z"
      fill="black"
      fill-rule="nonzero" /><path d="M 147.05 183.10 L 147.99 182.86 C 148.82 182.66 149.33 181.82 149.12 180.98 C 148.92 180.15 148.07 179.64 147.24 179.85 L 146.30 180.08 C 145.47 180.29 144.96 181.13 145.16 181.96 C 145.37 182.80 146.21 183.31 147.05 183.10 Z M 148.13 182.85 L 149.08 182.52 C 149.91 182.24 150.35 181.34 150.07 180.52 C 149.79 179.69 148.89 179.25 148.06 179.53 L 147.10 179.86 C 146.28 180.14 145.84 181.04 146.12 181.87 C 146.40 182.69 147.30 183.13 148.13 182.85 Z M 149.23 182.46 L 150.11 182.05 C 150.89 181.69 151.24 180.76 150.88 179.97 C 150.52 179.18 149.59 178.84 148.80 179.20 L 147.92 179.60 C 147.13 179.96 146.79 180.90 147.15 181.68 C 147.51 182.47 148.44 182.82 149.23 182.46 Z M 150.14 181.99 L 151.07 181.52 C 151.82 181.14 152.13 180.23 151.75 179.47 C 151.37 178.72 150.46 178.41 149.70 178.79 L 148.77 179.26 C 148.01 179.64 147.71 180.56 148.09 181.31 C 148.47 182.06 149.38 182.37 150.14 181.99 Z M 151.04 181.50 L 151.92 181.07 C 152.66 180.71 152.97 179.81 152.61 179.07 C 152.24 178.33 151.35 178.02 150.61 178.39 L 149.73 178.81 C 148.99 179.18 148.68 180.07 149.04 180.82 C 149.41 181.56 150.30 181.86 151.04 181.50 Z M 151.89 181.06 L 152.80 180.63 C 153.54 180.29 153.86 179.41 153.51 178.67 C 153.16 177.93 152.29 177.62 151.55 177.96 L 150.64 178.39 C 149.90 178.74 149.58 179.62 149.93 180.36 C 150.28 181.09 151.15 181.41 151.89 181.06 Z M 152.78 180.62 L 153.70 180.21 C 154.43 179.87 154.75 179.01 154.42 178.28 C 154.09 177.55 153.22 177.22 152.49 177.56 L 151.57 177.97 C 150.84 178.31 150.52 179.17 150.85 179.90 C 151.18 180.63 152.05 180.96 152.78 180.62 Z M 153.68 180.20 L 154.59 179.80 C 155.32 179.48 155.65 178.62 155.33 177.89 C 155.00 177.17 154.15 176.84 153.42 177.16 L 152.51 177.56 C 151.78 177.89 151.45 178.74 151.77 179.47 C 152.10 180.19 152.95 180.52 153.68 180.20 Z M 154.58 179.79 L 155.50 179.39 C 156.23 179.07 156.56 178.23 156.24 177.50 C 155.93 176.78 155.08 176.45 154.36 176.76 L 153.43 177.17 C 152.71 177.48 152.38 178.33 152.69 179.05 C 153.01 179.78 153.85 180.11 154.58 179.79 Z M 155.50 179.38 L 155.61 179.33 C 156.33 179.02 156.66 178.18 156.35 177.46 C 156.04 176.73 155.20 176.40 154.47 176.72 L 154.36 176.77 C 153.64 177.08 153.31 177.92 153.62 178.64 C 153.94 179.37 154.78 179.70 155.50 179.38 Z"
      fill="black"
      fill-rule="nonzero" /></svg>