<svg xmlns="http://www.w3.org/2000/svg" width="300" height="300" viewBox="0 0 300 300">
<path d="M 131.39 138.45 L 130.74 139.20 C 130.21 139.81 130.28 140.74 130.89 141.26 C 131.50 141.79 132.42 141.72 132.95 141.11 L 133.60 140.36 C 134.13 139.75 134.06 138.83 133.45 138.30 C 132.84 137.77 131.92 137.84 131.39 138.45 Z M 130.49 139.47 L 130.05 140.34 C 129.67 141.09 129.97 142.00 130.72 142.38 C 131.47 142.76 132.39 142.46 132.77 141.71 L 133.20 140.84 C 133.58 140.09 133.28 139.18 132.53 138.80 C 131.78 138.42 130.87 138.72 130.49 139.47 Z M 129.88 140.80 L 129.74 141.71 C 129.61 142.55 130.20 143.34 131.05 143.47 C 131.89 143.59 132.68 143.01 132.81 142.16 L 132.94 141.25 C 133.07 140.41 132.48 139.62 131.64 139.49 C 130.79 139.36 130.00 139.95 129.88 140.80 Z M 129.72 141.95 L 129.73 143.03 C 129.74 143.89 130.44 144.58 131.30 144.58 C 132.16 144.57 132.85 143.87 132.84 143.01 L 132.83 141.92 C 132.82 141.06 132.12 140.37 131.26 140.38 C 130.40 140.39 129.71 141.09 129.72 141.95 Z M 129.73 143.11 L 129.78 144.03 C 129.83 144.89 130.57 145.54 131.43 145.49 C 132.29 145.44 132.94 144.71 132.89 143.85 L 132.84 142.93 C 132.79 142.07 132.05 141.42 131.19 141.46 C 130.33 141.51 129.68 142.25 129.73 143.11 Z M 129.78 144.05 L 129.85 145.03 C 129.91 145.89 130.66 146.54 131.51 146.48 C 132.37 146.42 133.02 145.67 132.96 144.81 L 132.89 143.83 C 132.83 142.97 132.09 142.32 131.23 142.38 C 130.37 142.44 129.72 143.19 129.78 144.05 Z M 129.85 145.03 L 129.93 146.11 C 129.98 146.97 130.73 147.61 131.59 147.55 C 132.45 147.49 133.10 146.75 133.04 145.89 L 132.96 144.81 C 132.90 143.95 132.16 143.31 131.30 143.36 C 130.44 143.42 129.79 144.17 129.85 145.03 Z M 129.92 146.09 L 129.99 147.08 C 130.04 147.94 130.78 148.59 131.64 148.54 C 132.50 148.49 133.15 147.75 133.10 146.89 L 133.04 145.90 C 132.98 145.04 132.24 144.39 131.38 144.44 C 130.52 144.50 129.87 145.23 129.92 146.09 Z M 129.98 147.07 L 130.04 148.05 C 130.08 148.91 130.82 149.57 131.68 149.53 C 132.54 149.48 133.20 148.75 133.15 147.89 L 133.10 146.90 C 133.05 146.04 132.32 145.38 131.46 145.43 C 130.60 145.47 129.94 146.21 129.98 147.07 Z M 130.04 148.04 L 130.08 149.06 C 130.12 149.92 130.84 150.58 131.70 150.55 C 132.56 150.51 133.23 149.78 133.20 148.92 L 133.15 147.90 C 133.11 147.04 132.39 146.38 131.53 146.41 C 130.67 146.45 130.00 147.18 130.04 148.04 Z M 130.08 149.04 L 130.11 150.07 C 130.14 150.93 130.86 151.61 131.72 151.58 C 132.58 151.55 133.26 150.83 133.23 149.97 L 133.20 148.94 C 133.17 148.08 132.45 147.40 131.59 147.43 C 130.73 147.46 130.05 148.18 130.08 149.04 Z M 130.11 150.05 L 130.13 151.13 C 130.15 151.99 130.86 152.67 131.72 152.65 C 132.58 152.64 133.27 151.93 133.25 151.07 L 133.23 149.99 C 133.21 149.13 132.50 148.44 131.64 148.46 C 130.78 148.48 130.09 149.19 130.11 150.05 Z M 130.14 151.11 L 130.15 152.16 C 130.16 153.02 130.86 153.71 131.72 153.70 C 132.58 153.69 133.27 152.99 133.26 152.13 L 133.25 151.08 C 133.24 150.22 132.54 149.53 131.68 149.54 C 130.82 149.55 130.13 150.25 130.14 151.11 Z M 130.15 152.15 L 130.15 153.12 C 130.16 153.98 130.85 154.68 131.71 154.67 C 132.57 154.67 133.26 153.97 133.26 153.11 L 133.26 152.14 C 133.25 151.28 132.56 150.59 131.70 150.59 C 130.84 150.59 130.15 151.29 130.15 152.15 Z M 130.16 153.12 L 130.16 154.07 C 130.16 154.93 130.85 155.62 131.71 155.62 C 132.56 155.62 133.26 154.92 133.26 154.07 L 133.26 153.12 C 133.26 152.26 132.56 151.57 131.71 151.57 C 130.85 151.57 130.15 152.26 130.16 153.12 Z M 130.16 154.07 L 130.16 155.15 C 130.16 156.01 130.85 156.70 131.71 156.70 C 132.56 156.70 133.25 156.01 133.25 155.15 L 133.25 154.07 C 133.25 153.21 132.56 152.52 131.71 152.52 C 130.85 152.52 130.16 153.21 130.16 154.07 Z M 130.17 155.15 L 130.17 156.06 C 130.17 156.91 130.86 157.60 131.71 157.60 C 132.56 157.60 133.24 156.91 133.24 156.06 L 133.24 155.15 C 133.24 154.30 132.56 153.61 131.71 153.61 C 130.86 153.61 130.17 154.30 130.17 155.15 Z M 130.18 156.08 L 130.20 157.26 C 130.20 158.10 130.89 158.78 131.73 158.77 C 132.58 158.76 133.25 158.07 133.24 157.23 L 133.23 156.05 C 133.22 155.20 132.53 154.53 131.69 154.54 C 130.85 154.55 130.17 155.23 130.18 156.08 Z M 132.23 158.66 L 132.33 158.62 C 133.11 158.34 133.51 157.48 133.23 156.70 C 132.95 155.92 132.09 155.52 131.31 155.80 L 131.21 155.83 C 130.43 156.12 130.03 156.98 130.31 157.76 C 130.59 158.54 131.45 158.94 132.23 158.66 Z M 133.27 157.43 L 133.42 156.46 C 133.54 155.65 132.99 154.90 132.18 154.78 C 131.38 154.66 130.63 155.21 130.51 156.02 L 130.36 156.99 C 130.24 157.80 130.79 158.55 131.60 158.67 C 132.40 158.79 133.15 158.23 133.27 157.43 Z M 133.39 156.43 L 133.52 155.44 C 133.63 154.65 133.07 153.93 132.28 153.82 C 131.50 153.72 130.77 154.27 130.67 155.06 L 130.54 156.05 C 130.43 156.84 130.99 157.56 131.78 157.67 C 132.56 157.77 133.29 157.22 133.39 156.43 Z"
      fill="black"
      fill-rule="nonzero" /><path d="M 134.84 142.85 L 134.84 141.87 C 134.85 141.06 134.19 140.39 133.37 140.39 C 132.56 140.38 131.89 141.04 131.89 141.86 L 131.88 142.84 C 131.88 143.65 132.54 144.32 133.35 144.32 C 134.17 144.32 134.83 143.67 134.84 142.85 Z M 134.86 141.92 L 134.90 140.89 C 134.93 140.06 134.29 139.36 133.46 139.33 C 132.64 139.30 131.94 139.94 131.91 140.77 L 131.87 141.81 C 131.84 142.63 132.48 143.33 133.31 143.36 C 134.13 143.39 134.83 142.75 134.86 141.92 Z M 134.87 141.20 L 135.12 140.24 C 135.32 139.43 134.83 138.61 134.02 138.40 C 133.21 138.20 132.39 138.69 132.18 139.50 L 131.94 140.45 C 131.73 141.27 132.22 142.09 133.03 142.30 C 133.84 142.50 134.67 142.01 134.87 141.20 Z M 134.59 141.08 L 135.32 140.50 C 135.99 139.99 136.11 139.03 135.59 138.36 C 135.08 137.69 134.12 137.57 133.45 138.09 L 132.71 138.66 C 132.04 139.18 131.92 140.14 132.44 140.81 C 132.96 141.48 133.92 141.60 134.59 141.08 Z M 134.53 140.83 L 135.54 140.73 C 136.39 140.65 137.00 139.90 136.92 139.05 C 136.84 138.21 136.09 137.59 135.25 137.67 L 134.24 137.77 C 133.39 137.85 132.78 138.60 132.86 139.45 C 132.94 140.29 133.69 140.91 134.53 140.83 Z M 134.90 140.66 L 135.82 140.97 C 136.63 141.25 137.50 140.82 137.78 140.02 C 138.05 139.21 137.62 138.34 136.82 138.06 L 135.89 137.74 C 135.09 137.47 134.21 137.90 133.94 138.70 C 133.66 139.51 134.09 140.38 134.90 140.66 Z M 135.34 140.71 L 136.09 141.32 C 136.74 141.86 137.71 141.77 138.25 141.11 C 138.80 140.46 138.70 139.49 138.05 138.94 L 137.30 138.33 C 136.65 137.79 135.67 137.88 135.13 138.54 C 134.59 139.19 134.69 140.16 135.34 140.71 Z M 135.85 141.08 L 136.47 141.88 C 136.99 142.55 137.96 142.68 138.63 142.15 C 139.31 141.63 139.43 140.66 138.91 139.99 L 138.29 139.19 C 137.76 138.52 136.80 138.39 136.12 138.91 C 135.45 139.43 135.33 140.40 135.85 141.08 Z M 136.36 141.72 L 136.86 142.57 C 137.30 143.30 138.24 143.55 138.98 143.11 C 139.71 142.68 139.95 141.73 139.52 141.00 L 139.02 140.15 C 138.58 139.42 137.64 139.17 136.90 139.61 C 136.17 140.04 135.93 140.99 136.36 141.72 Z M 136.80 142.46 L 137.24 143.36 C 137.61 144.13 138.54 144.45 139.31 144.08 C 140.07 143.70 140.39 142.78 140.02 142.01 L 139.58 141.11 C 139.21 140.34 138.28 140.02 137.52 140.40 C 136.75 140.77 136.43 141.69 136.80 142.46 Z M 137.20 143.28 L 137.59 144.22 C 137.91 145.01 138.82 145.38 139.61 145.06 C 140.40 144.73 140.77 143.82 140.45 143.04 L 140.06 142.10 C 139.73 141.31 138.83 140.93 138.04 141.26 C 137.25 141.58 136.87 142.49 137.20 143.28 Z M 137.56 144.15 L 137.90 145.08 C 138.19 145.88 139.07 146.30 139.88 146.01 C 140.68 145.72 141.10 144.83 140.81 144.03 L 140.47 143.10 C 140.18 142.30 139.30 141.88 138.49 142.17 C 137.69 142.46 137.27 143.35 137.56 144.15 Z M 137.88 145.02 L 138.19 146.00 C 138.44 146.82 139.32 147.27 140.13 147.01 C 140.95 146.75 141.40 145.88 141.14 145.06 L 140.83 144.09 C 140.57 143.27 139.70 142.82 138.88 143.08 C 138.07 143.34 137.62 144.21 137.88 145.02 Z M 138.17 145.95 L 138.44 146.92 C 138.67 147.75 139.53 148.23 140.35 148.00 C 141.17 147.77 141.66 146.92 141.43 146.09 L 141.16 145.12 C 140.93 144.29 140.07 143.81 139.25 144.04 C 138.42 144.27 137.94 145.12 138.17 145.95 Z M 138.43 146.87 L 138.66 147.85 C 138.87 148.68 139.70 149.19 140.53 148.99 C 141.37 148.79 141.88 147.95 141.68 147.12 L 141.44 146.14 C 141.24 145.31 140.40 144.80 139.57 145.00 C 138.74 145.20 138.23 146.04 138.43 146.87 Z M 138.65 147.80 L 138.85 148.77 C 139.02 149.61 139.84 150.15 140.68 149.98 C 141.52 149.80 142.06 148.98 141.89 148.15 L 141.69 147.17 C 141.52 146.33 140.70 145.79 139.86 145.97 C 139.02 146.14 138.48 146.96 138.65 147.80 Z M 138.84 148.71 L 139.01 149.71 C 139.15 150.56 139.94 151.13 140.79 150.99 C 141.63 150.85 142.21 150.05 142.07 149.21 L 141.90 148.20 C 141.76 147.36 140.96 146.79 140.12 146.93 C 139.27 147.07 138.70 147.87 138.84 148.71 Z M 139.00 149.66 L 139.12 150.64 C 139.23 151.49 140.01 152.09 140.86 151.98 C 141.71 151.87 142.31 151.10 142.20 150.25 L 142.07 149.26 C 141.97 148.42 141.19 147.81 140.34 147.92 C 139.49 148.03 138.89 148.81 139.00 149.66 Z M 139.12 150.58 L 139.21 151.56 C 139.29 152.41 140.04 153.04 140.89 152.96 C 141.74 152.88 142.37 152.13 142.29 151.27 L 142.20 150.30 C 142.13 149.45 141.37 148.82 140.52 148.90 C 139.67 148.98 139.04 149.73 139.12 150.58 Z M 139.21 151.51 L 139.27 152.49 C 139.32 153.35 140.05 154.00 140.90 153.95 C 141.76 153.89 142.41 153.16 142.36 152.31 L 142.30 151.32 C 142.24 150.47 141.51 149.82 140.66 149.87 C 139.80 149.92 139.15 150.66 139.21 151.51 Z M 139.27 152.45 L 139.30 153.48 C 139.33 154.33 140.04 155.00 140.90 154.97 C 141.75 154.94 142.42 154.23 142.39 153.37 L 142.36 152.35 C 142.33 151.49 141.61 150.83 140.76 150.86 C 139.90 150.89 139.24 151.60 139.27 152.45 Z M 139.30 153.44 L 139.31 154.47 C 139.32 155.33 140.02 156.01 140.87 156.00 C 141.72 155.99 142.41 155.30 142.40 154.44 L 142.39 153.41 C 142.38 152.56 141.68 151.87 140.83 151.88 C 139.98 151.89 139.29 152.59 139.30 153.44 Z M 139.31 154.41 L 139.28 155.42 C 139.25 156.27 139.92 156.98 140.77 157.01 C 141.62 157.04 142.33 156.37 142.36 155.52 L 142.40 154.51 C 142.42 153.66 141.76 152.95 140.91 152.92 C 140.06 152.89 139.34 153.56 139.31 154.41 Z M 139.30 155.27 L 139.15 156.37 C 139.04 157.22 139.64 157.99 140.48 158.10 C 141.32 158.21 142.09 157.61 142.20 156.77 L 142.35 155.67 C 142.46 154.82 141.86 154.05 141.02 153.94 C 140.18 153.83 139.41 154.43 139.30 155.27 Z M 139.30 155.91 L 138.92 156.70 C 138.56 157.46 138.88 158.38 139.64 158.74 C 140.41 159.10 141.32 158.78 141.68 158.02 L 142.06 157.23 C 142.42 156.47 142.10 155.56 141.34 155.19 C 140.57 154.83 139.66 155.15 139.30 155.91 Z M 141.32 156.25 L 140.82 155.79 C 140.21 155.23 139.26 155.27 138.70 155.88 C 138.13 156.49 138.17 157.45 138.79 158.01 L 139.29 158.47 C 139.90 159.03 140.85 158.99 141.41 158.38 C 141.97 157.76 141.93 156.81 141.32 156.25 Z M 141.12 156.25 L 140.73 155.46 C 140.37 154.74 139.49 154.44 138.77 154.80 C 138.04 155.16 137.74 156.04 138.10 156.76 L 138.49 157.55 C 138.85 158.27 139.73 158.57 140.45 158.21 C 141.18 157.86 141.48 156.98 141.12 156.25 Z"
      fill="black"
      fill-rule="nonzero" /><path d="M 134.35 151.78 L 135.31 151.68 C 136.13 151.60 136.72 150.88 136.64 150.06 C 136.56 149.24 135.84 148.64 135.02 148.72 L 134.06 148.82 C 133.25 148.90 132.65 149.63 132.73 150.44 C 132.81 151.26 133.54 151.86 134.35 151.78 Z M 135.32 151.71 L 136.34 151.60 C 137.17 151.52 137.78 150.77 137.69 149.94 C 137.60 149.11 136.86 148.51 136.03 148.59 L 135.01 148.70 C 134.18 148.78 133.57 149.53 133.66 150.36 C 133.74 151.19 134.49 151.80 135.32 151.71 Z M 136.35 151.60 L 137.35 151.49 C 138.18 151.40 138.78 150.65 138.69 149.82 C 138.59 148.99 137.84 148.39 137.01 148.48 L 136.02 148.59 C 135.18 148.68 134.58 149.43 134.68 150.27 C 134.77 151.10 135.52 151.70 136.35 151.60 Z M 137.34 151.47 L 138.35 151.36 C 139.17 151.27 139.76 150.53 139.67 149.71 C 139.58 148.89 138.85 148.30 138.03 148.39 L 137.02 148.50 C 136.20 148.59 135.61 149.33 135.70 150.15 C 135.79 150.97 136.52 151.56 137.34 151.47 Z M 138.33 151.33 L 139.34 151.23 C 140.15 151.16 140.74 150.44 140.66 149.64 C 140.58 148.84 139.87 148.25 139.06 148.32 L 138.05 148.42 C 137.25 148.50 136.66 149.21 136.73 150.01 C 136.81 150.82 137.52 151.41 138.33 151.33 Z M 139.31 151.22 L 140.32 151.14 C 141.11 151.09 141.71 150.39 141.65 149.60 C 141.59 148.80 140.90 148.21 140.10 148.26 L 139.10 148.34 C 138.30 148.40 137.70 149.09 137.76 149.88 C 137.82 150.68 138.51 151.28 139.31 151.22 Z M 140.30 151.13 L 141.21 151.08 C 142.00 151.03 142.61 150.35 142.56 149.56 C 142.51 148.77 141.83 148.17 141.04 148.22 L 140.12 148.28 C 139.34 148.32 138.73 149.00 138.78 149.79 C 138.83 150.58 139.51 151.18 140.30 151.13 Z"
      fill="black"
      fill-rule="nonzero" /><path d="M 132.63 157.38 L 132.00 158.33 C 131.54 159.02 131.72 159.96 132.41 160.42 C 133.10 160.88 134.04 160.70 134.50 160.01 L 135.14 159.06 C 135.60 158.37 135.41 157.43 134.72 156.97 C 134.03 156.51 133.10 156.69 132.63 157.38 Z M 133.71 160.61 L 134.18 160.46 C 134.98 160.21 135.42 159.36 135.17 158.56 C 134.91 157.76 134.06 157.32 133.26 157.57 L 132.79 157.72 C 131.99 157.98 131.55 158.83 131.81 159.63 C 132.06 160.42 132.91 160.86 133.71 160.61 Z M 134.56 160.28 L 135.46 159.67 C 136.16 159.21 136.34 158.27 135.88 157.58 C 135.41 156.88 134.48 156.70 133.78 157.16 L 132.88 157.76 C 132.19 158.22 132.00 159.16 132.46 159.86 C 132.93 160.55 133.87 160.74 134.56 160.28 Z M 135.39 159.71 L 136.21 159.22 C 136.92 158.79 137.16 157.87 136.73 157.16 C 136.31 156.45 135.39 156.21 134.67 156.64 L 133.85 157.13 C 133.14 157.55 132.91 158.47 133.33 159.19 C 133.76 159.90 134.68 160.13 135.39 159.71 Z M 136.15 159.24 L 137.07 158.74 C 137.80 158.34 138.06 157.44 137.67 156.71 C 137.28 155.99 136.37 155.73 135.65 156.12 L 134.73 156.62 C 134.01 157.01 133.74 157.92 134.13 158.64 C 134.53 159.36 135.43 159.63 136.15 159.24 Z M 137.05 158.74 L 137.87 158.31 C 138.59 157.93 138.87 157.03 138.49 156.31 C 138.11 155.59 137.22 155.31 136.50 155.69 L 135.68 156.12 C 134.95 156.50 134.67 157.39 135.05 158.11 C 135.43 158.84 136.32 159.12 137.05 158.74 Z M 137.86 158.30 L 138.78 157.83 C 139.50 157.46 139.78 156.57 139.41 155.85 C 139.04 155.13 138.15 154.84 137.43 155.22 L 136.51 155.69 C 135.79 156.06 135.50 156.95 135.88 157.67 C 136.25 158.39 137.13 158.68 137.86 158.30 Z M 138.77 157.82 L 139.75 157.32 C 140.46 156.95 140.75 156.07 140.38 155.36 C 140.01 154.64 139.13 154.35 138.41 154.72 L 137.44 155.22 C 136.72 155.59 136.44 156.47 136.80 157.19 C 137.17 157.91 138.05 158.19 138.77 157.82 Z M 139.74 157.32 L 139.95 157.21 C 140.67 156.85 140.95 155.97 140.59 155.25 C 140.22 154.54 139.34 154.25 138.63 154.62 L 138.42 154.73 C 137.70 155.09 137.42 155.97 137.78 156.68 C 138.15 157.40 139.03 157.68 139.74 157.32 Z"
      fill="black"
      fill-rule="nonzero" /><path d="M 149.06 127.78 L 148.95 126.65 C 148.88 125.84 148.15 125.24 147.34 125.32 C 146.52 125.40 145.92 126.12 146.00 126.94 L 146.11 128.06 C 146.19 128.87 146.91 129.47 147.73 129.39 C 148.54 129.32 149.14 128.59 149.06 127.78 Z M 148.98 126.89 L 149.04 125.94 C 149.09 125.11 148.46 124.39 147.63 124.34 C 146.80 124.29 146.08 124.92 146.03 125.75 L 145.97 126.70 C 145.92 127.53 146.56 128.25 147.39 128.30 C 148.22 128.35 148.93 127.72 148.98 126.89 Z M 148.77 126.74 L 149.27 126.05 C 149.76 125.37 149.60 124.42 148.92 123.92 C 148.24 123.43 147.29 123.59 146.80 124.27 L 146.30 124.96 C 145.81 125.64 145.96 126.59 146.64 127.08 C 147.33 127.57 148.28 127.42 148.77 126.74 Z M 148.44 126.63 L 149.40 126.37 C 150.22 126.14 150.69 125.30 150.47 124.49 C 150.25 123.68 149.41 123.20 148.59 123.42 L 147.63 123.69 C 146.81 123.91 146.34 124.75 146.56 125.56 C 146.78 126.38 147.62 126.85 148.44 126.63 Z M 149.07 126.42 L 150.08 126.37 C 150.92 126.33 151.57 125.62 151.53 124.77 C 151.49 123.93 150.78 123.28 149.94 123.32 L 148.93 123.37 C 148.08 123.41 147.43 124.12 147.47 124.97 C 147.51 125.81 148.23 126.46 149.07 126.42 Z M 149.77 126.35 L 150.75 126.51 C 151.58 126.64 152.37 126.08 152.50 125.24 C 152.63 124.41 152.06 123.62 151.23 123.49 L 150.25 123.34 C 149.41 123.20 148.63 123.77 148.50 124.60 C 148.37 125.44 148.93 126.22 149.77 126.35 Z M 150.38 126.40 L 151.30 126.80 C 152.07 127.14 152.97 126.79 153.31 126.01 C 153.65 125.24 153.29 124.34 152.52 124.00 L 151.60 123.60 C 150.83 123.26 149.93 123.62 149.59 124.39 C 149.25 125.16 149.60 126.06 150.38 126.40 Z M 151.04 126.66 L 151.86 127.23 C 152.55 127.71 153.51 127.53 153.99 126.84 C 154.47 126.15 154.29 125.19 153.60 124.71 L 152.78 124.15 C 152.08 123.67 151.13 123.84 150.65 124.53 C 150.17 125.23 150.34 126.18 151.04 126.66 Z M 151.62 127.02 L 152.30 127.74 C 152.88 128.36 153.85 128.38 154.46 127.80 C 155.08 127.22 155.10 126.26 154.52 125.65 L 153.84 124.92 C 153.26 124.31 152.29 124.28 151.68 124.86 C 151.07 125.44 151.04 126.41 151.62 127.02 Z M 152.12 127.50 L 152.63 128.32 C 153.08 129.04 154.02 129.26 154.73 128.81 C 155.45 128.37 155.67 127.43 155.22 126.71 L 154.71 125.89 C 154.26 125.17 153.32 124.95 152.61 125.40 C 151.89 125.84 151.67 126.78 152.12 127.50 Z M 152.54 128.15 L 152.95 129.05 C 153.29 129.82 154.19 130.16 154.96 129.82 C 155.73 129.47 156.07 128.57 155.73 127.80 L 155.32 126.89 C 154.97 126.13 154.07 125.78 153.30 126.13 C 152.53 126.48 152.19 127.38 152.54 128.15 Z M 152.89 128.90 L 153.20 129.86 C 153.47 130.66 154.33 131.09 155.13 130.83 C 155.93 130.57 156.36 129.71 156.10 128.91 L 155.78 127.95 C 155.52 127.15 154.66 126.72 153.86 126.98 C 153.06 127.24 152.63 128.10 152.89 128.90 Z M 153.17 129.74 L 153.40 130.71 C 153.60 131.52 154.42 132.03 155.24 131.83 C 156.05 131.64 156.56 130.81 156.36 130.00 L 156.13 129.03 C 155.94 128.21 155.11 127.71 154.30 127.90 C 153.48 128.10 152.97 128.92 153.17 129.74 Z M 153.39 130.63 L 153.57 131.61 C 153.72 132.43 154.51 132.98 155.34 132.83 C 156.17 132.67 156.71 131.88 156.56 131.05 L 156.38 130.07 C 156.22 129.25 155.43 128.70 154.61 128.86 C 153.78 129.01 153.23 129.80 153.39 130.63 Z M 153.56 131.55 L 153.70 132.48 C 153.82 133.31 154.59 133.88 155.42 133.76 C 156.25 133.64 156.83 132.87 156.70 132.04 L 156.57 131.11 C 156.44 130.28 155.67 129.71 154.84 129.83 C 154.01 129.95 153.44 130.72 153.56 131.55 Z M 153.70 132.43 L 153.81 133.47 C 153.91 134.30 154.66 134.90 155.49 134.81 C 156.32 134.71 156.92 133.96 156.82 133.13 L 156.71 132.09 C 156.61 131.26 155.86 130.66 155.03 130.75 C 154.20 130.85 153.60 131.60 153.70 132.43 Z M 153.81 133.43 L 153.90 134.45 C 153.97 135.29 154.70 135.90 155.53 135.83 C 156.36 135.77 156.98 135.03 156.91 134.20 L 156.82 133.18 C 156.76 132.35 156.02 131.73 155.19 131.80 C 154.36 131.87 153.74 132.60 153.81 133.43 Z M 153.90 134.42 L 153.96 135.45 C 154.02 136.28 154.73 136.91 155.57 136.86 C 156.40 136.81 157.03 136.09 156.97 135.26 L 156.91 134.23 C 156.86 133.40 156.14 132.77 155.31 132.82 C 154.48 132.88 153.85 133.59 153.90 134.42 Z M 153.97 135.43 L 154.02 136.44 C 154.06 137.27 154.76 137.91 155.59 137.87 C 156.42 137.82 157.06 137.12 157.02 136.29 L 156.97 135.28 C 156.93 134.45 156.23 133.81 155.40 133.85 C 154.57 133.89 153.93 134.60 153.97 135.43 Z M 154.02 136.41 L 154.06 137.48 C 154.08 138.30 154.77 138.95 155.60 138.92 C 156.43 138.90 157.08 138.21 157.05 137.38 L 157.02 136.31 C 156.99 135.49 156.30 134.84 155.47 134.87 C 154.64 134.89 153.99 135.58 154.02 136.41 Z M 154.06 137.45 L 154.08 138.45 C 154.09 139.28 154.76 139.93 155.59 139.92 C 156.41 139.91 157.07 139.23 157.06 138.41 L 157.04 137.41 C 157.03 136.58 156.35 135.93 155.53 135.94 C 154.71 135.95 154.05 136.62 154.06 137.45 Z M 154.09 138.44 L 154.09 139.35 C 154.09 140.17 154.75 140.83 155.57 140.82 C 156.39 140.82 157.05 140.16 157.04 139.35 L 157.04 138.43 C 157.04 137.62 156.38 136.96 155.56 136.96 C 154.75 136.96 154.09 137.62 154.09 138.44 Z M 154.10 139.35 L 154.10 140.36 C 154.10 141.17 154.76 141.82 155.57 141.82 C 156.38 141.82 157.03 141.17 157.03 140.36 L 157.03 139.35 C 157.03 138.54 156.38 137.88 155.57 137.88 C 154.76 137.88 154.10 138.54 154.10 139.35 Z M 154.11 140.36 L 154.11 141.34 C 154.11 142.14 154.76 142.79 155.57 142.79 C 156.37 142.79 157.02 142.14 157.02 141.34 L 157.02 140.36 C 157.02 139.55 156.37 138.90 155.57 138.90 C 154.76 138.90 154.11 139.55 154.11 140.36 Z M 154.13 141.34 L 154.13 142.34 C 154.13 143.13 154.77 143.78 155.57 143.78 C 156.36 143.78 157.01 143.13 157.01 142.34 L 157.01 141.34 C 157.01 140.54 156.36 139.89 155.57 139.89 C 154.77 139.89 154.13 140.54 154.13 141.34 Z M 154.13 142.34 L 154.13 142.77 C 154.13 143.56 154.78 144.20 155.57 144.20 C 156.36 144.20 157.00 143.56 157.00 142.77 L 157.00 142.34 C 157.00 141.54 156.36 140.90 155.57 140.90 C 154.78 140.90 154.13 141.54 154.13 142.34 Z"
      fill="black"
      fill-rule="nonzero" /><path d="M 145.68 133.47 L 144.90 134.40 C 144.39 135.02 144.47 135.93 145.08 136.45 C 145.70 136.96 146.61 136.88 147.13 136.27 L 147.91 135.33 C 148.43 134.72 148.35 133.80 147.73 133.28 C 147.11 132.77 146.20 132.85 145.68 133.47 Z M 144.57 134.93 L 144.40 135.51 C 144.18 136.31 144.65 137.14 145.45 137.37 C 146.25 137.59 147.08 137.12 147.30 136.32 L 147.46 135.74 C 147.69 134.94 147.22 134.11 146.42 133.88 C 145.62 133.66 144.79 134.13 144.57 134.93 Z M 145.94 137.44 L 146.95 137.38 C 147.79 137.34 148.43 136.62 148.39 135.77 C 148.34 134.93 147.62 134.29 146.77 134.33 L 145.77 134.39 C 144.92 134.44 144.28 135.16 144.33 136.00 C 144.37 136.85 145.10 137.49 145.94 137.44 Z M 147.22 137.33 L 148.24 137.09 C 149.05 136.89 149.55 136.07 149.35 135.26 C 149.16 134.44 148.34 133.94 147.52 134.14 L 146.51 134.39 C 145.69 134.58 145.19 135.40 145.39 136.22 C 145.58 137.03 146.40 137.53 147.22 137.33 Z M 148.26 137.05 L 149.21 136.80 C 150.00 136.59 150.48 135.77 150.26 134.98 C 150.05 134.19 149.24 133.71 148.44 133.92 L 147.50 134.17 C 146.70 134.39 146.23 135.20 146.44 136.00 C 146.65 136.79 147.47 137.26 148.26 137.05 Z M 149.19 136.78 L 150.16 136.54 C 150.94 136.34 151.41 135.54 151.22 134.76 C 151.02 133.97 150.22 133.50 149.43 133.70 L 148.46 133.94 C 147.68 134.14 147.20 134.94 147.40 135.72 C 147.60 136.51 148.40 136.98 149.19 136.78 Z M 150.11 136.53 L 151.09 136.31 C 151.87 136.13 152.36 135.36 152.18 134.58 C 152.01 133.80 151.23 133.31 150.45 133.49 L 149.48 133.70 C 148.70 133.88 148.21 134.65 148.38 135.43 C 148.56 136.21 149.33 136.70 150.11 136.53 Z M 151.06 136.30 L 151.90 136.13 C 152.68 135.97 153.18 135.21 153.02 134.43 C 152.86 133.66 152.10 133.16 151.32 133.32 L 150.48 133.49 C 149.71 133.65 149.21 134.41 149.37 135.19 C 149.53 135.96 150.29 136.46 151.06 136.30 Z"
      fill="black"
      fill-rule="nonzero" /><path d="M 145.18 140.89 L 144.05 141.41 C 143.30 141.76 142.97 142.66 143.32 143.41 C 143.67 144.16 144.56 144.48 145.31 144.13 L 146.44 143.61 C 147.19 143.26 147.52 142.37 147.17 141.62 C 146.82 140.87 145.93 140.54 145.18 140.89 Z M 143.94 141.44 L 143.87 141.48 C 143.13 141.89 142.87 142.82 143.28 143.55 C 143.68 144.29 144.61 144.55 145.35 144.15 L 145.42 144.11 C 146.16 143.70 146.42 142.77 146.01 142.04 C 145.61 141.30 144.68 141.03 143.94 141.44 Z M 145.26 144.20 L 146.34 143.69 C 147.10 143.33 147.43 142.42 147.07 141.66 C 146.71 140.89 145.80 140.56 145.04 140.92 L 143.96 141.43 C 143.19 141.79 142.87 142.70 143.23 143.46 C 143.58 144.23 144.49 144.56 145.26 144.20 Z M 146.35 143.67 L 147.24 143.23 C 147.99 142.87 148.31 141.96 147.94 141.21 C 147.57 140.46 146.67 140.15 145.92 140.51 L 145.03 140.95 C 144.28 141.31 143.96 142.22 144.33 142.97 C 144.70 143.72 145.60 144.03 146.35 143.67 Z M 147.22 143.21 L 148.12 142.79 C 148.86 142.43 149.17 141.54 148.81 140.80 C 148.46 140.06 147.57 139.74 146.83 140.10 L 145.93 140.53 C 145.19 140.89 144.88 141.78 145.24 142.52 C 145.59 143.26 146.48 143.57 147.22 143.21 Z M 148.10 142.77 L 149.02 142.33 C 149.75 141.98 150.06 141.11 149.71 140.38 C 149.37 139.65 148.49 139.34 147.76 139.68 L 146.84 140.12 C 146.11 140.47 145.80 141.34 146.15 142.07 C 146.50 142.80 147.37 143.12 148.10 142.77 Z M 149.02 142.31 L 149.93 141.87 C 150.65 141.52 150.95 140.65 150.60 139.93 C 150.25 139.21 149.39 138.91 148.67 139.26 L 147.76 139.70 C 147.04 140.05 146.74 140.92 147.09 141.64 C 147.43 142.36 148.30 142.66 149.02 142.31 Z M 149.94 141.85 L 150.83 141.41 C 151.54 141.06 151.83 140.19 151.48 139.48 C 151.13 138.77 150.27 138.48 149.56 138.84 L 148.66 139.28 C 147.95 139.63 147.66 140.49 148.01 141.20 C 148.36 141.91 149.23 142.21 149.94 141.85 Z M 150.83 141.40 L 151.19 141.22 C 151.89 140.87 152.18 140.01 151.83 139.31 C 151.48 138.60 150.62 138.31 149.91 138.67 L 149.56 138.84 C 148.85 139.20 148.56 140.05 148.92 140.76 C 149.27 141.47 150.13 141.75 150.83 141.40 Z"
      fill="black"
      fill-rule="nonzero" /><path d="M 162.68 126.51 L 162.99 125.48 C 163.22 124.68 162.77 123.84 161.97 123.60 C 161.17 123.37 160.33 123.82 160.09 124.62 L 159.79 125.65 C 159.55 126.45 160.01 127.29 160.81 127.53 C 161.61 127.76 162.45 127.31 162.68 126.51 Z M 162.88 125.80 L 163.33 124.98 C 163.75 124.24 163.48 123.31 162.74 122.90 C 162.00 122.48 161.06 122.75 160.65 123.49 L 160.20 124.30 C 159.78 125.04 160.05 125.98 160.79 126.39 C 161.53 126.80 162.47 126.54 162.88 125.80 Z M 162.72 125.61 L 163.56 125.16 C 164.32 124.76 164.61 123.82 164.21 123.06 C 163.81 122.31 162.87 122.02 162.11 122.42 L 161.26 122.87 C 160.51 123.27 160.22 124.21 160.62 124.96 C 161.02 125.72 161.96 126.01 162.72 125.61 Z M 162.83 125.35 L 163.83 125.35 C 164.69 125.36 165.39 124.66 165.40 123.80 C 165.40 122.94 164.71 122.24 163.85 122.24 L 162.85 122.23 C 161.99 122.23 161.28 122.92 161.28 123.78 C 161.27 124.64 161.97 125.34 162.83 125.35 Z M 163.31 125.26 L 164.24 125.60 C 165.05 125.89 165.95 125.47 166.24 124.66 C 166.53 123.85 166.11 122.96 165.30 122.67 L 164.37 122.33 C 163.56 122.04 162.67 122.46 162.38 123.27 C 162.08 124.08 162.50 124.97 163.31 125.26 Z M 163.81 125.35 L 164.56 125.95 C 165.24 126.49 166.21 126.38 166.75 125.70 C 167.28 125.03 167.17 124.05 166.50 123.52 L 165.74 122.92 C 165.07 122.38 164.09 122.49 163.56 123.17 C 163.02 123.84 163.13 124.81 163.81 125.35 Z M 164.30 125.67 L 164.90 126.47 C 165.42 127.15 166.39 127.29 167.07 126.77 C 167.75 126.26 167.89 125.29 167.37 124.60 L 166.77 123.80 C 166.25 123.12 165.28 122.99 164.60 123.50 C 163.92 124.02 163.78 124.99 164.30 125.67 Z M 164.75 126.21 L 165.19 127.12 C 165.56 127.89 166.49 128.21 167.25 127.84 C 168.02 127.46 168.34 126.54 167.97 125.78 L 167.52 124.86 C 167.15 124.10 166.23 123.78 165.46 124.15 C 164.70 124.52 164.38 125.45 164.75 126.21 Z M 165.12 126.93 L 165.43 127.88 C 165.70 128.69 166.56 129.13 167.37 128.87 C 168.18 128.60 168.61 127.73 168.35 126.93 L 168.04 125.97 C 167.77 125.17 166.91 124.73 166.10 124.99 C 165.30 125.25 164.86 126.12 165.12 126.93 Z M 165.40 127.74 L 165.62 128.73 C 165.81 129.55 166.62 130.07 167.45 129.89 C 168.27 129.70 168.79 128.89 168.60 128.06 L 168.38 127.07 C 168.20 126.25 167.38 125.73 166.56 125.92 C 165.74 126.10 165.22 126.92 165.40 127.74 Z M 165.61 128.62 L 165.75 129.59 C 165.88 130.42 166.65 130.99 167.48 130.87 C 168.30 130.75 168.88 129.98 168.76 129.15 L 168.62 128.18 C 168.49 127.35 167.72 126.77 166.89 126.89 C 166.07 127.02 165.49 127.79 165.61 128.62 Z M 165.76 129.52 L 165.85 130.51 C 165.93 131.33 166.67 131.94 167.50 131.86 C 168.33 131.78 168.93 131.04 168.85 130.21 L 168.76 129.23 C 168.67 128.40 167.94 127.79 167.11 127.87 C 166.28 127.95 165.68 128.69 165.76 129.52 Z M 165.86 130.44 L 165.92 131.45 C 165.96 132.27 166.67 132.90 167.49 132.85 C 168.32 132.81 168.95 132.10 168.90 131.28 L 168.84 130.28 C 168.80 129.45 168.09 128.82 167.27 128.87 C 166.45 128.92 165.82 129.62 165.86 130.44 Z M 165.93 131.39 L 165.95 132.39 C 165.96 133.21 166.64 133.86 167.46 133.84 C 168.27 133.83 168.92 133.15 168.91 132.33 L 168.89 131.33 C 168.87 130.52 168.20 129.87 167.38 129.88 C 166.56 129.90 165.91 130.57 165.93 131.39 Z M 165.96 132.36 L 165.96 133.37 C 165.96 134.18 166.62 134.84 167.43 134.84 C 168.24 134.84 168.90 134.18 168.90 133.37 L 168.90 132.36 C 168.89 131.55 168.24 130.89 167.43 130.89 C 166.61 130.89 165.96 131.55 165.96 132.36 Z M 165.97 133.37 L 165.97 134.38 C 165.97 135.18 166.63 135.84 167.43 135.84 C 168.23 135.84 168.89 135.18 168.89 134.38 L 168.89 133.37 C 168.89 132.57 168.23 131.91 167.43 131.91 C 166.63 131.91 165.97 132.57 165.97 133.37 Z M 165.98 134.38 L 165.98 135.35 C 165.98 136.15 166.63 136.80 167.43 136.80 C 168.23 136.80 168.87 136.15 168.87 135.35 L 168.88 134.38 C 168.88 133.58 168.23 132.94 167.43 132.93 C 166.63 132.93 165.98 133.58 165.98 134.38 Z M 165.99 135.31 L 165.96 136.30 C 165.94 137.10 166.56 137.76 167.35 137.78 C 168.15 137.81 168.81 137.19 168.83 136.39 L 168.86 135.40 C 168.89 134.60 168.27 133.94 167.47 133.92 C 166.68 133.89 166.02 134.52 165.99 135.31 Z M 165.97 136.22 L 165.89 137.19 C 165.81 137.98 166.39 138.67 167.18 138.74 C 167.97 138.82 168.66 138.24 168.73 137.45 L 168.82 136.48 C 168.89 135.69 168.31 135.00 167.53 134.93 C 166.74 134.85 166.04 135.43 165.97 136.22 Z M 165.89 137.15 L 165.77 138.17 C 165.67 138.95 166.23 139.66 167.01 139.76 C 167.79 139.85 168.51 139.30 168.60 138.52 L 168.73 137.49 C 168.82 136.71 168.26 136.00 167.48 135.90 C 166.70 135.81 165.99 136.37 165.89 137.15 Z M 165.77 138.16 L 165.75 138.31 C 165.65 139.09 166.20 139.80 166.99 139.90 C 167.77 140.00 168.48 139.45 168.58 138.67 L 168.60 138.52 C 168.70 137.74 168.15 137.03 167.37 136.93 C 166.58 136.83 165.87 137.38 165.77 138.16 Z"
      fill="black"
      fill-rule="nonzero" /><path d="M 161.39 132.79 L 162.33 133.08 C 163.12 133.32 163.96 132.88 164.20 132.08 C 164.45 131.29 164.00 130.45 163.21 130.21 L 162.26 129.92 C 161.47 129.68 160.63 130.12 160.39 130.92 C 160.15 131.71 160.59 132.55 161.39 132.79 Z M 162.72 133.15 L 163.69 133.18 C 164.52 133.21 165.22 132.56 165.25 131.73 C 165.28 130.90 164.63 130.20 163.79 130.17 L 162.82 130.14 C 161.99 130.11 161.29 130.76 161.26 131.59 C 161.23 132.42 161.88 133.12 162.72 133.15 Z M 164.05 133.12 L 165.04 132.91 C 165.83 132.74 166.34 131.96 166.17 131.16 C 166.00 130.36 165.22 129.85 164.42 130.02 L 163.43 130.23 C 162.64 130.40 162.13 131.19 162.30 131.99 C 162.47 132.78 163.25 133.29 164.05 133.12 Z M 165.11 132.85 L 165.51 132.74 C 166.28 132.53 166.73 131.74 166.51 130.97 C 166.30 130.20 165.51 129.76 164.74 129.97 L 164.34 130.08 C 163.58 130.29 163.13 131.09 163.34 131.85 C 163.55 132.62 164.35 133.07 165.11 132.85 Z"
      fill="black"
      fill-rule="nonzero" /><path d="M 159.54 137.09 L 159.00 138.13 C 158.63 138.84 158.91 139.72 159.63 140.10 C 160.34 140.47 161.22 140.19 161.60 139.47 L 162.13 138.44 C 162.51 137.72 162.23 136.84 161.51 136.47 C 160.79 136.10 159.91 136.38 159.54 137.09 Z M 158.96 139.52 L 159.17 139.90 C 159.57 140.64 160.49 140.92 161.22 140.52 C 161.96 140.12 162.24 139.21 161.84 138.47 L 161.63 138.08 C 161.24 137.34 160.32 137.07 159.58 137.46 C 158.84 137.86 158.57 138.78 158.96 139.52 Z M 161.00 140.63 L 162.13 140.25 C 162.93 139.98 163.35 139.11 163.08 138.31 C 162.80 137.51 161.93 137.08 161.13 137.35 L 160.01 137.74 C 159.21 138.01 158.79 138.88 159.06 139.68 C 159.33 140.48 160.20 140.91 161.00 140.63 Z M 162.24 140.19 L 163.12 139.80 C 163.89 139.46 164.24 138.57 163.90 137.80 C 163.56 137.04 162.67 136.69 161.90 137.02 L 161.02 137.41 C 160.25 137.75 159.91 138.65 160.24 139.41 C 160.58 140.18 161.47 140.53 162.24 140.19 Z M 163.12 139.77 L 164.07 139.35 C 164.82 139.01 165.16 138.13 164.82 137.38 C 164.49 136.63 163.60 136.29 162.85 136.63 L 161.90 137.05 C 161.15 137.39 160.82 138.27 161.15 139.02 C 161.49 139.77 162.37 140.11 163.12 139.77 Z M 164.04 139.34 L 165.00 138.93 C 165.75 138.60 166.09 137.74 165.77 136.99 C 165.45 136.25 164.58 135.90 163.84 136.22 L 162.88 136.64 C 162.13 136.96 161.79 137.83 162.11 138.57 C 162.43 139.32 163.30 139.66 164.04 139.34 Z M 164.96 138.92 L 165.89 138.54 C 166.64 138.24 167.00 137.40 166.70 136.66 C 166.40 135.91 165.55 135.55 164.81 135.85 L 163.88 136.23 C 163.13 136.53 162.77 137.38 163.07 138.12 C 163.37 138.86 164.22 139.22 164.96 138.92 Z M 165.87 138.54 L 166.64 138.24 C 167.37 137.95 167.74 137.12 167.45 136.38 C 167.17 135.64 166.33 135.28 165.60 135.56 L 164.83 135.86 C 164.09 136.15 163.73 136.98 164.01 137.72 C 164.30 138.46 165.13 138.82 165.87 138.54 Z"
      fill="black"
      fill-rule="nonzero" /><path d="M 158.68 142.84 L 157.69 143.13 C 156.88 143.38 156.42 144.23 156.67 145.04 C 156.91 145.84 157.76 146.30 158.57 146.06 L 159.56 145.77 C 160.37 145.52 160.83 144.67 160.59 143.86 C 160.34 143.06 159.49 142.60 158.68 142.84 Z M 157.63 143.16 L 156.71 143.48 C 155.92 143.76 155.50 144.63 155.77 145.42 C 156.05 146.22 156.93 146.64 157.72 146.36 L 158.64 146.04 C 159.43 145.76 159.85 144.89 159.57 144.09 C 159.29 143.30 158.42 142.88 157.63 143.16 Z M 156.57 143.54 L 155.64 143.98 C 154.87 144.34 154.55 145.25 154.91 146.01 C 155.27 146.77 156.18 147.10 156.94 146.74 L 157.87 146.30 C 158.63 145.94 158.95 145.03 158.59 144.27 C 158.24 143.51 157.33 143.18 156.57 143.54 Z M 155.53 144.04 L 154.71 144.52 C 153.98 144.93 153.73 145.86 154.15 146.59 C 154.56 147.31 155.49 147.57 156.22 147.15 L 157.04 146.67 C 157.77 146.26 158.02 145.33 157.60 144.60 C 157.19 143.88 156.26 143.63 155.53 144.04 Z M 154.70 144.53 L 153.85 145.02 C 153.13 145.44 152.88 146.37 153.30 147.09 C 153.72 147.81 154.65 148.06 155.37 147.64 L 156.22 147.14 C 156.94 146.72 157.19 145.79 156.77 145.07 C 156.35 144.35 155.42 144.11 154.70 144.53 Z M 153.88 145.01 L 153.01 145.49 C 152.28 145.89 152.01 146.80 152.41 147.53 C 152.81 148.26 153.73 148.53 154.46 148.13 L 155.33 147.65 C 156.06 147.25 156.33 146.33 155.93 145.60 C 155.53 144.87 154.61 144.61 153.88 145.01 Z M 153.03 145.47 L 152.13 145.95 C 151.39 146.33 151.11 147.24 151.50 147.98 C 151.88 148.72 152.79 149.00 153.53 148.62 L 154.43 148.14 C 155.17 147.76 155.46 146.85 155.07 146.11 C 154.68 145.37 153.77 145.09 153.03 145.47 Z M 152.14 145.94 L 151.22 146.42 C 150.48 146.80 150.19 147.71 150.58 148.45 C 150.96 149.19 151.87 149.48 152.61 149.09 L 153.52 148.62 C 154.26 148.24 154.55 147.33 154.17 146.59 C 153.79 145.85 152.88 145.56 152.14 145.94 Z M 151.21 146.42 L 150.33 146.89 C 149.60 147.27 149.31 148.18 149.70 148.92 C 150.09 149.65 151.00 149.94 151.73 149.55 L 152.61 149.09 C 153.35 148.70 153.63 147.79 153.25 147.06 C 152.86 146.32 151.95 146.04 151.21 146.42 Z M 150.29 146.92 L 149.28 147.49 C 148.56 147.91 148.31 148.82 148.72 149.54 C 149.13 150.26 150.05 150.51 150.77 150.10 L 151.78 149.52 C 152.50 149.11 152.75 148.19 152.34 147.47 C 151.92 146.75 151.01 146.50 150.29 146.92 Z M 148.58 148.38 L 148.45 148.83 C 148.22 149.63 148.68 150.46 149.47 150.69 C 150.27 150.92 151.10 150.46 151.33 149.67 L 151.46 149.21 C 151.69 148.42 151.24 147.59 150.44 147.36 C 149.65 147.12 148.81 147.58 148.58 148.38 Z M 149.49 150.70 L 150.54 151.00 C 151.34 151.22 152.17 150.75 152.40 149.95 C 152.62 149.15 152.15 148.32 151.35 148.09 L 150.30 147.80 C 149.50 147.57 148.67 148.04 148.44 148.84 C 148.22 149.64 148.68 150.47 149.49 150.70 Z M 150.29 150.92 L 151.20 151.35 C 151.95 151.71 152.86 151.39 153.22 150.63 C 153.58 149.88 153.26 148.97 152.51 148.61 L 151.60 148.17 C 150.85 147.81 149.94 148.13 149.58 148.89 C 149.21 149.65 149.53 150.55 150.29 150.92 Z M 150.82 151.11 L 151.58 151.79 C 152.20 152.36 153.17 152.31 153.74 151.68 C 154.31 151.06 154.26 150.09 153.63 149.52 L 152.88 148.84 C 152.25 148.27 151.28 148.32 150.71 148.95 C 150.15 149.58 150.20 150.55 150.82 151.11 Z M 151.35 151.56 L 151.93 152.36 C 152.43 153.05 153.40 153.20 154.09 152.70 C 154.78 152.20 154.93 151.24 154.43 150.55 L 153.85 149.75 C 153.35 149.06 152.39 148.91 151.70 149.41 C 151.01 149.91 150.85 150.87 151.35 151.56 Z M 151.82 152.19 L 152.30 153.08 C 152.71 153.84 153.64 154.12 154.40 153.71 C 155.15 153.31 155.43 152.37 155.03 151.62 L 154.54 150.72 C 154.14 149.97 153.20 149.69 152.45 150.09 C 151.69 150.50 151.41 151.44 151.82 152.19 Z M 152.22 152.93 L 152.59 153.86 C 152.91 154.66 153.82 155.05 154.61 154.73 C 155.41 154.41 155.80 153.51 155.48 152.71 L 155.11 151.78 C 154.79 150.98 153.89 150.59 153.09 150.91 C 152.29 151.23 151.90 152.13 152.22 152.93 Z M 152.54 153.71 L 152.81 154.67 C 153.04 155.49 153.90 155.97 154.73 155.74 C 155.56 155.51 156.04 154.64 155.80 153.82 L 155.54 152.87 C 155.30 152.04 154.44 151.56 153.61 151.79 C 152.79 152.03 152.31 152.89 152.54 153.71 Z M 152.78 154.55 L 152.97 155.51 C 153.14 156.35 153.97 156.90 154.81 156.73 C 155.65 156.56 156.20 155.73 156.03 154.89 L 155.84 153.93 C 155.66 153.09 154.84 152.54 154.00 152.71 C 153.15 152.88 152.61 153.71 152.78 154.55 Z M 152.96 155.42 L 153.10 156.42 C 153.22 157.27 154.01 157.87 154.86 157.74 C 155.71 157.62 156.31 156.83 156.19 155.98 L 156.05 154.98 C 155.92 154.13 155.13 153.53 154.28 153.65 C 153.43 153.77 152.83 154.56 152.96 155.42 Z M 153.09 156.35 L 153.18 157.28 C 153.26 158.14 154.02 158.77 154.88 158.69 C 155.74 158.60 156.37 157.84 156.29 156.98 L 156.20 156.05 C 156.11 155.19 155.35 154.56 154.49 154.65 C 153.64 154.73 153.01 155.49 153.09 156.35 Z M 153.17 157.22 L 153.23 158.20 C 153.28 159.06 154.02 159.72 154.88 159.67 C 155.74 159.62 156.40 158.88 156.35 158.02 L 156.29 157.04 C 156.24 156.18 155.50 155.52 154.64 155.57 C 153.78 155.62 153.12 156.36 153.17 157.22 Z M 153.23 158.16 L 153.26 159.24 C 153.29 160.11 154.01 160.78 154.87 160.76 C 155.73 160.73 156.41 160.01 156.38 159.15 L 156.35 158.06 C 156.32 157.20 155.60 156.52 154.74 156.55 C 153.88 156.57 153.20 157.29 153.23 158.16 Z M 153.26 159.22 L 153.27 160.22 C 153.29 161.09 154.00 161.78 154.86 161.76 C 155.72 161.75 156.41 161.04 156.40 160.18 L 156.38 159.18 C 156.37 158.31 155.66 157.62 154.80 157.64 C 153.94 157.65 153.25 158.36 153.26 159.22 Z M 153.27 160.21 L 153.28 161.24 C 153.28 162.11 153.99 162.80 154.85 162.80 C 155.71 162.79 156.41 162.09 156.40 161.23 L 156.40 160.19 C 156.39 159.33 155.69 158.64 154.83 158.64 C 153.97 158.65 153.27 159.35 153.27 160.21 Z M 153.28 161.24 L 153.28 162.21 C 153.28 163.08 153.98 163.78 154.84 163.77 C 155.71 163.77 156.40 163.07 156.40 162.21 L 156.40 161.24 C 156.40 160.37 155.70 159.68 154.84 159.68 C 153.98 159.68 153.28 160.38 153.28 161.24 Z M 153.28 162.21 L 153.28 163.26 C 153.27 164.12 153.97 164.82 154.83 164.83 C 155.69 164.83 156.39 164.14 156.40 163.28 L 156.40 162.22 C 156.41 161.36 155.71 160.66 154.85 160.65 C 153.99 160.65 153.29 161.34 153.28 162.21 Z M 153.28 163.19 L 153.23 164.15 C 153.19 165.01 153.86 165.74 154.71 165.78 C 155.57 165.82 156.30 165.16 156.35 164.30 L 156.39 163.34 C 156.43 162.48 155.77 161.75 154.91 161.71 C 154.05 161.67 153.32 162.33 153.28 163.19 Z M 153.25 164.01 L 153.10 165.10 C 152.98 165.95 153.57 166.73 154.42 166.85 C 155.27 166.97 156.06 166.38 156.18 165.53 L 156.33 164.44 C 156.45 163.59 155.86 162.80 155.01 162.68 C 154.16 162.57 153.37 163.16 153.25 164.01 Z M 153.13 164.94 L 152.86 166.04 C 152.66 166.88 153.17 167.72 154.00 167.92 C 154.83 168.12 155.67 167.61 155.88 166.78 L 156.15 165.68 C 156.35 164.85 155.84 164.01 155.01 163.80 C 154.17 163.60 153.33 164.11 153.13 164.94 Z M 153.43 165.20 L 153.24 165.35 C 152.57 165.86 152.45 166.83 152.97 167.50 C 153.49 168.17 154.45 168.29 155.12 167.77 L 155.31 167.62 C 155.98 167.11 156.10 166.14 155.58 165.47 C 155.06 164.80 154.10 164.68 153.43 165.20 Z M 155.66 166.55 L 155.65 165.38 C 155.65 164.57 154.98 163.91 154.16 163.91 C 153.35 163.92 152.69 164.59 152.69 165.40 L 152.70 166.57 C 152.71 167.38 153.37 168.04 154.19 168.04 C 155.01 168.03 155.67 167.36 155.66 166.55 Z M 155.61 165.43 L 155.62 165.26 C 155.64 164.47 155.01 163.81 154.22 163.78 C 153.42 163.76 152.76 164.39 152.74 165.19 L 152.74 165.36 C 152.71 166.15 153.34 166.81 154.14 166.83 C 154.93 166.85 155.59 166.23 155.61 165.43 Z"
      fill="black"
      fill-rule="nonzero" /><path d="M 159.67 147.33 L 160.57 147.07 C 161.37 146.85 161.83 146.01 161.61 145.22 C 161.38 144.42 160.55 143.96 159.75 144.18 L 158.85 144.44 C 158.05 144.67 157.59 145.50 157.81 146.30 C 158.04 147.10 158.87 147.56 159.67 147.33 Z M 160.52 147.10 L 161.54 146.86 C 162.35 146.66 162.85 145.84 162.66 145.02 C 162.46 144.21 161.64 143.71 160.82 143.91 L 159.80 144.15 C 158.99 144.35 158.49 145.17 158.69 145.99 C 158.88 146.80 159.70 147.30 160.52 147.10 Z M 161.47 146.87 L 162.40 146.69 C 163.22 146.53 163.75 145.74 163.60 144.92 C 163.44 144.10 162.65 143.56 161.83 143.72 L 160.89 143.90 C 160.07 144.06 159.54 144.85 159.70 145.67 C 159.85 146.49 160.65 147.02 161.47 146.87 Z M 162.36 146.66 L 163.36 146.49 C 164.16 146.36 164.71 145.60 164.57 144.79 C 164.44 143.99 163.68 143.44 162.87 143.58 L 161.87 143.74 C 161.06 143.88 160.52 144.64 160.65 145.44 C 160.79 146.25 161.55 146.79 162.36 146.66 Z M 163.34 146.46 L 164.22 146.32 C 165.01 146.20 165.55 145.46 165.43 144.67 C 165.31 143.88 164.57 143.34 163.78 143.47 L 162.89 143.61 C 162.10 143.73 161.56 144.47 161.69 145.26 C 161.81 146.05 162.55 146.59 163.34 146.46 Z"
      fill="black"
      fill-rule="nonzero" /><path d="M 158.28 152.03 L 159.15 151.60 C 159.89 151.23 160.19 150.32 159.81 149.58 C 159.44 148.84 158.54 148.55 157.80 148.92 L 156.93 149.35 C 156.19 149.73 155.89 150.63 156.27 151.37 C 156.64 152.11 157.54 152.41 158.28 152.03 Z M 158.96 151.71 L 159.93 151.39 C 160.73 151.12 161.16 150.25 160.89 149.45 C 160.63 148.65 159.76 148.22 158.96 148.48 L 157.99 148.81 C 157.19 149.07 156.75 149.94 157.02 150.74 C 157.29 151.54 158.16 151.98 158.96 151.71 Z M 159.67 151.45 L 160.67 151.30 C 161.50 151.17 162.08 150.39 161.95 149.55 C 161.83 148.72 161.04 148.14 160.21 148.27 L 159.21 148.42 C 158.38 148.55 157.80 149.33 157.93 150.16 C 158.06 151.00 158.84 151.57 159.67 151.45 Z M 160.55 151.28 L 161.55 151.21 C 162.38 151.14 163.00 150.42 162.93 149.59 C 162.87 148.76 162.15 148.14 161.32 148.21 L 160.32 148.28 C 159.49 148.35 158.87 149.07 158.94 149.90 C 159.00 150.73 159.73 151.35 160.55 151.28 Z M 161.54 151.18 L 162.58 151.11 C 163.39 151.05 164.00 150.34 163.95 149.53 C 163.89 148.72 163.18 148.10 162.37 148.16 L 161.33 148.23 C 160.51 148.29 159.90 149.00 159.96 149.81 C 160.02 150.62 160.72 151.24 161.54 151.18 Z M 162.58 151.08 L 163.54 151.01 C 164.33 150.95 164.93 150.25 164.87 149.45 C 164.81 148.65 164.12 148.06 163.32 148.12 L 162.36 148.19 C 161.57 148.25 160.97 148.94 161.03 149.74 C 161.09 150.54 161.78 151.14 162.58 151.08 Z M 163.54 150.99 L 164.53 150.91 C 165.32 150.85 165.91 150.16 165.85 149.38 C 165.79 148.59 165.10 148.00 164.32 148.06 L 163.32 148.13 C 162.53 148.19 161.94 148.88 162.00 149.67 C 162.06 150.46 162.75 151.05 163.54 150.99 Z M 164.53 150.91 L 164.97 150.87 C 165.76 150.81 166.35 150.13 166.29 149.34 C 166.23 148.56 165.54 147.97 164.76 148.03 L 164.32 148.06 C 163.53 148.12 162.94 148.81 163.00 149.59 C 163.06 150.38 163.75 150.97 164.53 150.91 Z"
      fill="black"
      fill-rule="nonzero" /><path d="M 155.41 154.91 L 154.76 155.93 C 154.32 156.63 154.53 157.57 155.23 158.01 C 155.94 158.46 156.87 158.25 157.31 157.54 L 157.96 156.52 C 158.40 155.82 158.19 154.89 157.49 154.44 C 156.78 153.99 155.85 154.20 155.41 154.91 Z M 154.51 156.70 L 154.50 157.24 C 154.48 158.08 155.15 158.78 156.00 158.80 C 156.84 158.81 157.54 158.14 157.56 157.30 L 157.57 156.77 C 157.58 155.92 156.91 155.22 156.07 155.21 C 155.22 155.19 154.53 155.86 154.51 156.70 Z M 156.40 158.76 L 157.47 158.49 C 158.29 158.28 158.79 157.45 158.58 156.62 C 158.37 155.80 157.54 155.30 156.72 155.51 L 155.65 155.78 C 154.83 155.99 154.33 156.82 154.54 157.64 C 154.74 158.47 155.58 158.97 156.40 158.76 Z M 157.61 158.44 L 158.52 158.11 C 159.32 157.82 159.73 156.95 159.44 156.15 C 159.15 155.35 158.28 154.94 157.48 155.23 L 156.57 155.56 C 155.77 155.85 155.36 156.72 155.65 157.52 C 155.94 158.32 156.82 158.73 157.61 158.44 Z M 158.54 158.10 L 159.51 157.73 C 160.29 157.43 160.69 156.55 160.39 155.76 C 160.09 154.97 159.21 154.58 158.42 154.88 L 157.46 155.25 C 156.67 155.55 156.28 156.43 156.58 157.21 C 156.88 158.00 157.76 158.40 158.54 158.10 Z M 159.52 157.71 L 160.45 157.34 C 161.22 157.03 161.60 156.15 161.29 155.38 C 160.98 154.60 160.10 154.22 159.33 154.53 L 158.40 154.90 C 157.63 155.21 157.25 156.09 157.56 156.86 C 157.87 157.64 158.75 158.02 159.52 157.71 Z M 160.44 157.33 L 161.38 156.95 C 162.15 156.65 162.53 155.78 162.22 155.01 C 161.92 154.24 161.04 153.87 160.28 154.17 L 159.33 154.54 C 158.57 154.85 158.19 155.72 158.49 156.49 C 158.80 157.26 159.67 157.63 160.44 157.33 Z M 161.36 156.95 L 162.25 156.60 C 163.02 156.31 163.40 155.46 163.11 154.69 C 162.82 153.93 161.96 153.54 161.20 153.84 L 160.30 154.18 C 159.53 154.47 159.15 155.33 159.44 156.09 C 159.74 156.86 160.59 157.24 161.36 156.95 Z M 162.24 156.59 L 163.19 156.23 C 163.94 155.94 164.32 155.10 164.04 154.34 C 163.75 153.59 162.90 153.21 162.15 153.49 L 161.20 153.85 C 160.45 154.14 160.07 154.98 160.36 155.74 C 160.64 156.50 161.49 156.88 162.24 156.59 Z M 163.20 156.21 L 164.11 155.85 C 164.86 155.56 165.23 154.72 164.93 153.97 C 164.64 153.23 163.80 152.86 163.05 153.15 L 162.14 153.51 C 161.39 153.80 161.03 154.64 161.32 155.39 C 161.61 156.14 162.45 156.50 163.20 156.21 Z M 164.12 155.84 L 165.05 155.47 C 165.78 155.17 166.14 154.33 165.84 153.59 C 165.55 152.86 164.71 152.50 163.97 152.79 L 163.05 153.17 C 162.31 153.46 161.95 154.30 162.25 155.04 C 162.54 155.78 163.38 156.14 164.12 155.84 Z M 165.05 155.46 L 166.01 155.07 C 166.75 154.77 167.10 153.93 166.80 153.20 C 166.50 152.46 165.66 152.11 164.93 152.41 L 163.97 152.80 C 163.23 153.10 162.88 153.94 163.18 154.67 C 163.48 155.40 164.32 155.76 165.05 155.46 Z M 166.01 155.06 L 166.19 154.99 C 166.92 154.69 167.27 153.85 166.97 153.12 C 166.68 152.39 165.84 152.04 165.11 152.34 L 164.93 152.42 C 164.20 152.71 163.85 153.55 164.15 154.28 C 164.45 155.01 165.28 155.36 166.01 155.06 Z"
      fill="black"
      fill-rule="nonzero" /><path d="M 157.70 158.07 L 157.15 159.03 C 156.73 159.74 156.98 160.66 157.69 161.07 C 158.41 161.48 159.32 161.24 159.73 160.53 L 160.29 159.56 C 160.70 158.85 160.46 157.93 159.74 157.52 C 159.03 157.11 158.12 157.35 157.70 158.07 Z M 157.42 160.90 L 157.81 161.26 C 158.44 161.82 159.40 161.77 159.96 161.15 C 160.52 160.52 160.47 159.56 159.84 159.00 L 159.45 158.65 C 158.83 158.09 157.87 158.14 157.31 158.76 C 156.75 159.39 156.80 160.34 157.42 160.90 Z M 159.08 161.62 L 160.23 161.43 C 161.05 161.29 161.61 160.51 161.47 159.69 C 161.33 158.86 160.55 158.31 159.73 158.45 L 158.58 158.64 C 157.76 158.78 157.20 159.56 157.34 160.38 C 157.48 161.20 158.26 161.76 159.08 161.62 Z M 160.35 161.39 L 161.33 161.14 C 162.13 160.93 162.62 160.12 162.41 159.31 C 162.20 158.51 161.38 158.03 160.58 158.23 L 159.60 158.48 C 158.80 158.69 158.32 159.51 158.52 160.31 C 158.73 161.11 159.55 161.60 160.35 161.39 Z M 161.36 161.12 L 162.34 160.84 C 163.13 160.62 163.59 159.79 163.37 159.00 C 163.14 158.21 162.32 157.75 161.53 157.98 L 160.55 158.25 C 159.76 158.48 159.30 159.30 159.52 160.09 C 159.75 160.88 160.57 161.34 161.36 161.12 Z M 162.36 160.82 L 163.34 160.52 C 164.12 160.29 164.56 159.47 164.32 158.69 C 164.09 157.91 163.27 157.47 162.49 157.70 L 161.51 158.00 C 160.73 158.24 160.29 159.06 160.52 159.83 C 160.76 160.61 161.58 161.05 162.36 160.82 Z M 163.37 160.48 L 164.29 160.18 C 165.04 159.93 165.45 159.11 165.20 158.35 C 164.95 157.60 164.13 157.19 163.37 157.44 L 162.46 157.74 C 161.70 157.99 161.30 158.81 161.55 159.57 C 161.80 160.32 162.62 160.73 163.37 160.48 Z M 164.33 160.15 L 165.26 159.80 C 166.00 159.53 166.38 158.70 166.11 157.96 C 165.83 157.22 165.01 156.85 164.27 157.12 L 163.33 157.47 C 162.59 157.74 162.22 158.56 162.49 159.30 C 162.76 160.05 163.59 160.42 164.33 160.15 Z M 165.28 159.79 L 165.90 159.55 C 166.64 159.27 167.00 158.44 166.72 157.71 C 166.44 156.97 165.61 156.61 164.88 156.89 L 164.25 157.13 C 163.52 157.42 163.15 158.24 163.44 158.98 C 163.72 159.71 164.55 160.08 165.28 159.79 Z"
      fill="black"
      fill-rule="nonzero" /><path d="M 163.84 150.32 L 162.80 149.96 C 162.01 149.68 161.14 150.10 160.87 150.90 C 160.59 151.69 161.01 152.56 161.80 152.83 L 162.84 153.19 C 163.63 153.47 164.50 153.05 164.78 152.25 C 165.05 151.46 164.63 150.59 163.84 150.32 Z M 161.36 150.14 L 160.83 150.54 C 160.14 151.06 160.00 152.05 160.52 152.74 C 161.04 153.43 162.02 153.57 162.71 153.05 L 163.24 152.65 C 163.94 152.13 164.08 151.15 163.56 150.46 C 163.04 149.76 162.05 149.62 161.36 150.14 Z M 160.19 151.73 L 160.14 152.84 C 160.11 153.71 160.78 154.45 161.65 154.48 C 162.53 154.52 163.26 153.84 163.30 152.97 L 163.35 151.86 C 163.39 150.99 162.71 150.25 161.84 150.22 C 160.96 150.18 160.23 150.86 160.19 151.73 Z M 160.14 152.98 L 160.19 153.95 C 160.23 154.82 160.97 155.50 161.85 155.45 C 162.72 155.41 163.39 154.67 163.35 153.80 L 163.30 152.83 C 163.26 151.95 162.52 151.28 161.64 151.32 C 160.77 151.37 160.10 152.11 160.14 152.98 Z M 160.19 153.97 L 160.25 154.99 C 160.31 155.87 161.06 156.53 161.93 156.48 C 162.80 156.42 163.46 155.67 163.41 154.80 L 163.35 153.78 C 163.29 152.90 162.54 152.24 161.67 152.30 C 160.80 152.35 160.14 153.10 160.19 153.97 Z M 160.25 154.99 L 160.31 155.96 C 160.36 156.83 161.11 157.50 161.98 157.45 C 162.85 157.40 163.52 156.65 163.47 155.78 L 163.41 154.81 C 163.36 153.93 162.61 153.27 161.74 153.32 C 160.87 153.37 160.20 154.12 160.25 154.99 Z M 160.31 155.94 L 160.35 156.96 C 160.39 157.84 161.13 158.51 162.00 158.47 C 162.87 158.44 163.55 157.70 163.51 156.83 L 163.47 155.80 C 163.43 154.93 162.69 154.25 161.82 154.29 C 160.95 154.33 160.27 155.07 160.31 155.94 Z M 160.35 156.93 L 160.37 157.92 C 160.39 158.79 161.12 159.49 161.99 159.47 C 162.86 159.45 163.56 158.73 163.54 157.85 L 163.51 156.86 C 163.50 155.99 162.77 155.30 161.90 155.31 C 161.03 155.33 160.33 156.06 160.35 156.93 Z M 160.37 157.90 L 160.38 158.90 C 160.39 159.77 161.10 160.48 161.97 160.47 C 162.84 160.47 163.55 159.75 163.54 158.88 L 163.54 157.88 C 163.53 157.00 162.82 156.30 161.95 156.31 C 161.07 156.31 160.37 157.02 160.37 157.90 Z M 160.38 158.89 L 160.38 159.90 C 160.38 160.77 161.09 161.48 161.96 161.48 C 162.84 161.48 163.54 160.77 163.54 159.90 L 163.54 158.89 C 163.54 158.02 162.83 157.31 161.96 157.31 C 161.09 157.31 160.38 158.02 160.38 158.89 Z M 160.38 159.90 L 160.38 160.89 C 160.38 161.77 161.09 162.47 161.96 162.47 C 162.83 162.47 163.54 161.77 163.54 160.89 L 163.54 159.90 C 163.54 159.02 162.83 158.32 161.96 158.32 C 161.09 158.32 160.38 159.02 160.38 159.90 Z M 160.38 160.89 L 160.38 161.90 C 160.38 162.77 161.09 163.48 161.96 163.48 C 162.83 163.48 163.54 162.77 163.54 161.90 L 163.54 160.89 C 163.54 160.02 162.83 159.31 161.96 159.31 C 161.09 159.31 160.38 160.02 160.38 160.89 Z M 160.38 161.90 L 160.38 162.94 C 160.38 163.81 161.09 164.52 161.96 164.52 C 162.83 164.52 163.54 163.81 163.54 162.94 L 163.54 161.90 C 163.54 161.03 162.84 160.32 161.96 160.32 C 161.09 160.32 160.38 161.03 160.38 161.90 Z M 160.38 162.92 L 160.37 163.92 C 160.36 164.79 161.05 165.51 161.93 165.52 C 162.80 165.53 163.52 164.83 163.53 163.96 L 163.54 162.96 C 163.55 162.09 162.85 161.37 161.98 161.36 C 161.11 161.35 160.39 162.05 160.38 162.92 Z M 160.37 163.87 L 160.32 164.87 C 160.29 165.74 160.96 166.48 161.84 166.52 C 162.71 166.55 163.45 165.88 163.48 165.00 L 163.53 164.01 C 163.56 163.14 162.89 162.40 162.02 162.36 C 161.14 162.32 160.41 163.00 160.37 163.87 Z M 160.33 164.78 L 160.23 165.78 C 160.15 166.65 160.78 167.42 161.66 167.51 C 162.53 167.59 163.30 166.95 163.38 166.08 L 163.48 165.09 C 163.56 164.22 162.93 163.44 162.06 163.36 C 161.19 163.28 160.41 163.91 160.33 164.78 Z M 160.24 165.68 L 160.06 166.80 C 159.92 167.66 160.51 168.47 161.37 168.61 C 162.24 168.75 163.05 168.17 163.19 167.30 L 163.37 166.18 C 163.51 165.32 162.93 164.51 162.06 164.37 C 161.20 164.23 160.38 164.81 160.24 165.68 Z M 160.04 166.98 L 160.02 167.60 C 159.98 168.48 160.66 169.22 161.53 169.25 C 162.41 169.29 163.15 168.61 163.19 167.73 L 163.21 167.12 C 163.25 166.24 162.57 165.50 161.69 165.47 C 160.82 165.43 160.08 166.11 160.04 166.98 Z M 162.91 168.58 L 163.40 167.87 C 163.90 167.15 163.73 166.16 163.01 165.65 C 162.28 165.15 161.29 165.33 160.79 166.05 L 160.29 166.76 C 159.79 167.48 159.97 168.47 160.69 168.97 C 161.41 169.48 162.40 169.30 162.91 168.58 Z M 163.35 167.95 L 164.08 167.03 C 164.63 166.33 164.51 165.33 163.82 164.78 C 163.13 164.23 162.12 164.35 161.57 165.04 L 160.84 165.97 C 160.29 166.66 160.41 167.66 161.10 168.21 C 161.79 168.76 162.80 168.64 163.35 167.95 Z M 163.99 167.13 L 164.67 166.41 C 165.27 165.77 165.24 164.76 164.60 164.15 C 163.95 163.55 162.94 163.58 162.34 164.22 L 161.66 164.94 C 161.06 165.58 161.09 166.59 161.73 167.20 C 162.37 167.80 163.39 167.77 163.99 167.13 Z M 164.62 166.46 L 165.36 165.73 C 165.99 165.11 166.01 164.10 165.39 163.47 C 164.77 162.84 163.77 162.83 163.14 163.45 L 162.39 164.18 C 161.76 164.79 161.75 165.80 162.36 166.43 C 162.98 167.06 163.99 167.07 164.62 166.46 Z M 165.33 165.75 L 166.12 165.02 C 166.76 164.43 166.80 163.42 166.21 162.78 C 165.61 162.13 164.60 162.09 163.96 162.69 L 163.17 163.42 C 162.53 164.02 162.49 165.02 163.08 165.67 C 163.68 166.31 164.68 166.35 165.33 165.75 Z M 166.09 165.04 L 166.89 164.33 C 167.55 163.75 167.61 162.75 167.03 162.10 C 166.45 161.44 165.45 161.38 164.79 161.96 L 163.99 162.67 C 163.34 163.25 163.28 164.25 163.86 164.91 C 164.44 165.56 165.43 165.62 166.09 165.04 Z M 166.86 164.34 L 167.59 163.72 C 168.25 163.15 168.33 162.16 167.77 161.50 C 167.21 160.84 166.22 160.76 165.56 161.32 L 164.82 161.95 C 164.16 162.51 164.08 163.50 164.65 164.16 C 165.21 164.82 166.20 164.90 166.86 164.34 Z M 167.56 163.72 L 168.32 163.10 C 168.98 162.56 169.08 161.58 168.54 160.92 C 167.99 160.25 167.01 160.15 166.35 160.70 L 165.59 161.32 C 164.93 161.86 164.83 162.84 165.37 163.50 C 165.91 164.17 166.89 164.27 167.56 163.72 Z M 168.25 163.12 L 169.03 162.53 C 169.70 162.02 169.83 161.07 169.32 160.40 C 168.82 159.72 167.86 159.59 167.19 160.10 L 166.41 160.69 C 165.74 161.19 165.61 162.15 166.12 162.82 C 166.63 163.49 167.58 163.62 168.25 163.12 Z M 168.95 162.54 L 169.73 162.01 C 170.41 161.55 170.58 160.63 170.12 159.95 C 169.66 159.27 168.74 159.09 168.06 159.55 L 167.28 160.08 C 166.60 160.54 166.42 161.47 166.88 162.15 C 167.34 162.83 168.27 163.01 168.95 162.54 Z M 169.67 162.02 L 170.52 161.48 C 171.21 161.05 171.41 160.14 170.98 159.46 C 170.55 158.78 169.64 158.58 168.96 159.01 L 168.11 159.55 C 167.43 159.98 167.23 160.88 167.66 161.57 C 168.09 162.25 168.99 162.45 169.67 162.02 Z M 170.50 161.47 L 170.89 161.23 C 171.57 160.81 171.78 159.92 171.36 159.24 C 170.94 158.56 170.05 158.35 169.37 158.77 L 168.98 159.02 C 168.30 159.44 168.09 160.33 168.51 161.01 C 168.94 161.68 169.83 161.89 170.50 161.47 Z"
      fill="black"
      fill-rule="nonzero" /></svg>