<svg xmlns="http://www.w3.org/2000/svg" width="300" height="300" viewBox="0 0 300 300">
<path d="M 135.51 136.71 L 135.98 135.57 C 136.31 134.78 135.94 133.86 135.14 133.53 C 134.35 133.20 133.44 133.58 133.11 134.37 L 132.63 135.51 C 132.30 136.31 132.68 137.22 133.47 137.55 C 134.27 137.88 135.18 137.50 135.51 136.71 Z M 135.21 136.39 L 135.34 136.34 C 136.12 135.97 136.46 135.03 136.09 134.25 C 135.72 133.46 134.78 133.12 134.00 133.49 L 133.88 133.55 C 133.09 133.92 132.75 134.85 133.12 135.64 C 133.49 136.43 134.43 136.76 135.21 136.39 Z M 133.17 134.46 L 132.81 135.64 C 132.56 136.47 133.03 137.34 133.85 137.59 C 134.68 137.84 135.55 137.37 135.80 136.55 L 136.16 135.37 C 136.41 134.54 135.95 133.67 135.12 133.42 C 134.29 133.17 133.42 133.63 133.17 134.46 Z M 132.86 135.54 L 132.50 136.49 C 132.19 137.29 132.59 138.18 133.39 138.49 C 134.18 138.80 135.08 138.40 135.39 137.60 L 135.75 136.65 C 136.06 135.85 135.66 134.96 134.86 134.65 C 134.07 134.34 133.17 134.74 132.86 135.54 Z M 132.52 136.45 L 132.14 137.36 C 131.81 138.15 132.18 139.05 132.96 139.38 C 133.75 139.71 134.65 139.34 134.98 138.56 L 135.36 137.64 C 135.69 136.86 135.32 135.95 134.54 135.62 C 133.75 135.29 132.85 135.66 132.52 136.45 Z M 132.15 137.34 L 131.73 138.30 C 131.39 139.07 131.74 139.98 132.51 140.32 C 133.29 140.67 134.19 140.32 134.54 139.54 L 134.96 138.58 C 135.30 137.81 134.95 136.90 134.18 136.56 C 133.40 136.22 132.50 136.57 132.15 137.34 Z M 131.74 138.28 L 131.35 139.13 C 130.99 139.90 131.33 140.81 132.09 141.16 C 132.86 141.52 133.77 141.18 134.12 140.42 L 134.52 139.56 C 134.88 138.80 134.54 137.89 133.78 137.53 C 133.01 137.18 132.10 137.51 131.74 138.28 Z M 131.36 139.12 L 130.93 140.02 C 130.57 140.78 130.90 141.69 131.66 142.05 C 132.42 142.41 133.33 142.09 133.69 141.32 L 134.12 140.43 C 134.48 139.66 134.15 138.75 133.39 138.40 C 132.63 138.04 131.72 138.36 131.36 139.12 Z M 130.94 140.02 L 130.50 140.93 C 130.14 141.69 130.46 142.60 131.22 142.96 C 131.98 143.33 132.89 143.00 133.25 142.25 L 133.69 141.33 C 134.05 140.57 133.73 139.66 132.97 139.30 C 132.21 138.94 131.30 139.26 130.94 140.02 Z M 130.51 140.92 L 130.07 141.83 C 129.70 142.58 130.01 143.49 130.77 143.86 C 131.53 144.23 132.44 143.91 132.80 143.16 L 133.24 142.25 C 133.61 141.50 133.30 140.59 132.54 140.22 C 131.78 139.85 130.87 140.17 130.51 140.92 Z M 130.08 141.81 L 129.62 142.71 C 129.24 143.46 129.55 144.37 130.30 144.75 C 131.04 145.13 131.96 144.83 132.34 144.08 L 132.79 143.18 C 133.17 142.43 132.87 141.51 132.12 141.13 C 131.37 140.76 130.46 141.06 130.08 141.81 Z M 129.62 142.71 L 129.19 143.56 C 128.81 144.31 129.11 145.23 129.86 145.61 C 130.61 145.98 131.53 145.68 131.91 144.93 L 132.34 144.08 C 132.72 143.33 132.41 142.42 131.67 142.04 C 130.92 141.66 130.00 141.96 129.62 142.71 Z M 129.19 143.57 L 128.80 144.36 C 128.42 145.11 128.73 146.02 129.48 146.40 C 130.24 146.77 131.15 146.46 131.52 145.71 L 131.91 144.92 C 132.28 144.17 131.98 143.26 131.22 142.89 C 130.47 142.51 129.56 142.82 129.19 143.57 Z M 128.81 144.33 L 128.29 145.32 C 127.90 146.06 128.19 146.98 128.93 147.37 C 129.67 147.76 130.59 147.48 130.98 146.73 L 131.51 145.74 C 131.90 145.00 131.61 144.08 130.87 143.69 C 130.12 143.30 129.21 143.58 128.81 144.33 Z M 128.31 145.29 L 127.84 146.13 C 127.44 146.87 127.70 147.79 128.44 148.20 C 129.18 148.60 130.10 148.34 130.51 147.60 L 130.97 146.76 C 131.38 146.02 131.11 145.10 130.37 144.69 C 129.64 144.29 128.71 144.55 128.31 145.29 Z M 127.84 146.13 L 127.34 147.04 C 126.93 147.78 127.19 148.70 127.93 149.11 C 128.66 149.52 129.59 149.26 130.00 148.52 L 130.51 147.60 C 130.91 146.87 130.65 145.94 129.91 145.54 C 129.18 145.13 128.25 145.39 127.84 146.13 Z M 127.33 147.05 L 126.84 147.94 C 126.44 148.68 126.70 149.61 127.44 150.01 C 128.18 150.42 129.11 150.15 129.51 149.41 L 130.00 148.51 C 130.41 147.78 130.14 146.85 129.40 146.45 C 128.66 146.04 127.74 146.31 127.33 147.05 Z M 126.81 147.99 L 126.24 149.12 C 125.86 149.87 126.16 150.79 126.92 151.17 C 127.67 151.55 128.58 151.25 128.96 150.50 L 129.54 149.36 C 129.92 148.61 129.61 147.70 128.86 147.32 C 128.11 146.94 127.19 147.24 126.81 147.99 Z M 126.13 149.41 L 125.92 150.18 C 125.70 150.99 126.19 151.83 127.00 152.05 C 127.82 152.27 128.66 151.78 128.88 150.97 L 129.08 150.20 C 129.30 149.39 128.81 148.55 128.00 148.33 C 127.18 148.11 126.34 148.60 126.13 149.41 Z M 126.71 151.94 L 127.28 152.23 C 128.04 152.61 128.96 152.31 129.34 151.56 C 129.72 150.80 129.42 149.88 128.67 149.50 L 128.09 149.21 C 127.34 148.82 126.42 149.12 126.03 149.88 C 125.65 150.63 125.95 151.55 126.71 151.94 Z M 128.36 152.35 L 129.43 152.07 C 130.25 151.86 130.75 151.02 130.53 150.20 C 130.32 149.38 129.48 148.89 128.66 149.10 L 127.59 149.38 C 126.77 149.59 126.28 150.43 126.49 151.25 C 126.70 152.07 127.54 152.56 128.36 152.35 Z M 129.61 152.01 L 130.51 151.66 C 131.29 151.34 131.68 150.45 131.37 149.66 C 131.05 148.88 130.16 148.49 129.37 148.81 L 128.48 149.16 C 127.69 149.47 127.31 150.36 127.62 151.15 C 127.94 151.94 128.83 152.32 129.61 152.01 Z M 130.56 151.63 L 131.55 151.19 C 132.32 150.85 132.67 149.94 132.32 149.17 C 131.98 148.40 131.07 148.05 130.30 148.39 L 129.32 148.83 C 128.55 149.18 128.20 150.08 128.54 150.85 C 128.88 151.63 129.79 151.97 130.56 151.63 Z M 131.56 151.18 L 132.51 150.75 C 133.28 150.40 133.62 149.49 133.27 148.72 C 132.91 147.95 132.01 147.62 131.24 147.97 L 130.29 148.40 C 129.52 148.76 129.18 149.66 129.53 150.43 C 129.89 151.20 130.79 151.54 131.56 151.18 Z M 132.51 150.74 L 133.45 150.31 C 134.21 149.96 134.54 149.05 134.19 148.29 C 133.84 147.52 132.93 147.19 132.17 147.54 L 131.24 147.97 C 130.47 148.33 130.14 149.23 130.49 150.00 C 130.84 150.76 131.75 151.10 132.51 150.74 Z M 133.44 150.31 L 134.31 149.91 C 135.08 149.56 135.41 148.66 135.06 147.89 C 134.71 147.13 133.80 146.80 133.04 147.15 L 132.17 147.55 C 131.41 147.90 131.07 148.80 131.42 149.56 C 131.78 150.33 132.68 150.66 133.44 150.31 Z M 134.30 149.91 L 135.28 149.47 C 136.05 149.12 136.39 148.22 136.04 147.46 C 135.70 146.70 134.80 146.36 134.03 146.70 L 133.05 147.15 C 132.29 147.49 131.95 148.39 132.29 149.15 C 132.64 149.92 133.54 150.26 134.30 149.91 Z M 135.26 149.47 L 136.10 149.11 C 136.86 148.78 137.22 147.89 136.88 147.12 C 136.55 146.36 135.66 146.00 134.90 146.33 L 134.06 146.69 C 133.29 147.03 132.94 147.92 133.27 148.68 C 133.60 149.45 134.49 149.80 135.26 149.47 Z M 136.06 149.12 L 137.00 148.74 C 137.77 148.43 138.14 147.55 137.83 146.78 C 137.51 146.00 136.63 145.63 135.86 145.94 L 134.93 146.32 C 134.15 146.64 133.78 147.52 134.10 148.29 C 134.41 149.06 135.29 149.44 136.06 149.12 Z M 136.98 148.75 L 137.90 148.38 C 138.68 148.08 139.06 147.20 138.76 146.43 C 138.45 145.65 137.58 145.27 136.80 145.58 L 135.88 145.94 C 135.10 146.25 134.72 147.12 135.03 147.90 C 135.33 148.67 136.21 149.05 136.98 148.75 Z M 137.91 148.38 L 138.84 148.01 C 139.61 147.71 139.99 146.83 139.68 146.06 C 139.38 145.29 138.50 144.91 137.73 145.21 L 136.80 145.58 C 136.03 145.89 135.65 146.76 135.95 147.53 C 136.26 148.31 137.13 148.68 137.91 148.38 Z M 138.84 148.01 L 139.65 147.68 C 140.42 147.38 140.79 146.50 140.48 145.73 C 140.18 144.96 139.30 144.59 138.53 144.90 L 137.72 145.22 C 136.95 145.53 136.58 146.40 136.89 147.17 C 137.20 147.94 138.07 148.31 138.84 148.01 Z M 139.63 147.69 L 140.62 147.30 C 141.40 147.01 141.78 146.14 141.48 145.37 C 141.18 144.59 140.32 144.21 139.55 144.51 L 138.55 144.89 C 137.78 145.19 137.39 146.06 137.69 146.83 C 137.99 147.60 138.86 147.99 139.63 147.69 Z M 140.60 147.31 L 141.56 146.96 C 142.34 146.68 142.74 145.82 142.46 145.04 C 142.17 144.26 141.31 143.86 140.54 144.15 L 139.57 144.50 C 138.80 144.78 138.40 145.64 138.68 146.42 C 138.96 147.19 139.82 147.59 140.60 147.31 Z M 141.51 146.97 L 142.51 146.65 C 143.30 146.39 143.73 145.55 143.47 144.76 C 143.21 143.98 142.37 143.55 141.59 143.81 L 140.59 144.13 C 139.80 144.39 139.37 145.23 139.63 146.02 C 139.89 146.80 140.73 147.23 141.51 146.97 Z M 142.42 146.67 L 143.39 146.43 C 144.19 146.22 144.68 145.41 144.47 144.61 C 144.27 143.81 143.46 143.33 142.66 143.53 L 141.68 143.78 C 140.88 143.98 140.40 144.79 140.60 145.59 C 140.81 146.39 141.62 146.88 142.42 146.67 Z M 143.15 146.46 L 144.23 146.37 C 145.05 146.30 145.65 145.59 145.59 144.77 C 145.52 143.95 144.80 143.34 143.98 143.41 L 142.91 143.50 C 142.09 143.57 141.48 144.28 141.55 145.10 C 141.61 145.92 142.33 146.53 143.15 146.46 Z M 143.85 146.34 L 144.77 146.51 C 145.57 146.65 146.34 146.11 146.48 145.31 C 146.62 144.51 146.08 143.74 145.28 143.60 L 144.36 143.44 C 143.56 143.30 142.79 143.83 142.65 144.63 C 142.51 145.44 143.05 146.20 143.85 146.34 Z M 144.61 146.46 L 144.93 146.55 C 145.70 146.78 146.52 146.34 146.75 145.56 C 146.98 144.79 146.54 143.97 145.76 143.74 L 145.44 143.65 C 144.67 143.42 143.85 143.86 143.62 144.64 C 143.39 145.41 143.83 146.23 144.61 146.46 Z"
      fill="black"
      fill-rule="nonzero" /><path d="M 126.73 161.38 L 127.67 161.32 C 128.50 161.26 129.13 160.54 129.08 159.71 C 129.02 158.88 128.30 158.26 127.47 158.31 L 126.53 158.37 C 125.70 158.43 125.07 159.15 125.12 159.98 C 125.18 160.81 125.90 161.43 126.73 161.38 Z M 127.85 161.35 L 128.85 161.17 C 129.70 161.02 130.27 160.21 130.12 159.36 C 129.96 158.51 129.15 157.94 128.30 158.09 L 127.30 158.28 C 126.45 158.43 125.88 159.24 126.03 160.09 C 126.19 160.94 127.00 161.51 127.85 161.35 Z M 129.02 161.16 L 129.93 160.89 C 130.77 160.65 131.25 159.76 131.01 158.92 C 130.76 158.08 129.88 157.60 129.04 157.84 L 128.13 158.11 C 127.29 158.35 126.81 159.24 127.05 160.08 C 127.30 160.92 128.18 161.40 129.02 161.16 Z M 129.98 160.88 L 130.99 160.54 C 131.82 160.27 132.27 159.37 132.00 158.54 C 131.72 157.70 130.82 157.25 129.99 157.53 L 128.99 157.86 C 128.15 158.13 127.70 159.03 127.98 159.87 C 128.25 160.70 129.15 161.15 129.98 160.88 Z M 130.98 160.54 L 131.99 160.22 C 132.83 159.95 133.28 159.05 133.01 158.22 C 132.74 157.38 131.85 156.93 131.01 157.20 L 130.00 157.53 C 129.17 157.80 128.71 158.69 128.98 159.52 C 129.25 160.36 130.14 160.81 130.98 160.54 Z M 131.97 160.22 L 132.95 159.91 C 133.79 159.66 134.26 158.77 134.00 157.93 C 133.74 157.10 132.85 156.63 132.02 156.89 L 131.03 157.20 C 130.20 157.45 129.73 158.34 129.99 159.18 C 130.25 160.01 131.14 160.48 131.97 160.22 Z M 132.94 159.91 L 133.86 159.64 C 134.69 159.39 135.17 158.51 134.92 157.68 C 134.67 156.84 133.79 156.37 132.96 156.62 L 132.03 156.89 C 131.20 157.14 130.72 158.02 130.97 158.85 C 131.22 159.69 132.10 160.16 132.94 159.91 Z M 133.84 159.63 L 134.84 159.35 C 135.67 159.11 136.15 158.25 135.92 157.42 C 135.68 156.58 134.81 156.10 133.98 156.34 L 132.98 156.62 C 132.15 156.86 131.66 157.72 131.90 158.55 C 132.14 159.39 133.00 159.87 133.84 159.63 Z M 134.81 159.34 L 135.70 159.10 C 136.53 158.88 137.02 158.03 136.80 157.20 C 136.58 156.37 135.73 155.88 134.90 156.11 L 134.01 156.35 C 133.18 156.57 132.69 157.42 132.91 158.25 C 133.13 159.07 133.98 159.56 134.81 159.34 Z M 135.69 159.09 L 136.66 158.83 C 137.48 158.62 137.97 157.78 137.76 156.96 C 137.54 156.14 136.70 155.65 135.88 155.86 L 134.91 156.12 C 134.09 156.33 133.60 157.17 133.82 157.99 C 134.03 158.81 134.87 159.31 135.69 159.09 Z M 136.66 158.82 L 137.55 158.59 C 138.37 158.38 138.86 157.54 138.64 156.73 C 138.43 155.91 137.60 155.43 136.78 155.64 L 135.89 155.87 C 135.07 156.09 134.58 156.92 134.80 157.73 C 135.01 158.55 135.84 159.04 136.66 158.82 Z M 137.55 158.58 L 138.59 158.30 C 139.39 158.09 139.88 157.26 139.66 156.46 C 139.45 155.65 138.62 155.16 137.82 155.38 L 136.78 155.65 C 135.97 155.86 135.49 156.69 135.70 157.50 C 135.92 158.31 136.75 158.79 137.55 158.58 Z M 138.59 158.29 L 139.50 158.05 C 140.30 157.84 140.78 157.01 140.57 156.21 C 140.35 155.41 139.53 154.93 138.73 155.14 L 137.81 155.39 C 137.01 155.60 136.53 156.43 136.75 157.23 C 136.96 158.03 137.79 158.51 138.59 158.29 Z M 139.51 158.04 L 140.51 157.77 C 141.31 157.55 141.78 156.72 141.56 155.93 C 141.34 155.13 140.52 154.66 139.72 154.88 L 138.72 155.16 C 137.92 155.37 137.45 156.20 137.67 156.99 C 137.89 157.79 138.71 158.26 139.51 158.04 Z M 140.53 157.75 L 141.53 157.46 C 142.32 157.23 142.78 156.41 142.55 155.62 C 142.32 154.83 141.50 154.38 140.71 154.61 L 139.70 154.90 C 138.92 155.12 138.46 155.95 138.69 156.73 C 138.91 157.52 139.74 157.98 140.53 157.75 Z M 141.57 157.43 L 142.53 157.13 C 143.31 156.88 143.74 156.06 143.49 155.28 C 143.25 154.51 142.42 154.08 141.65 154.32 L 140.68 154.63 C 139.91 154.88 139.48 155.70 139.72 156.48 C 139.97 157.25 140.79 157.68 141.57 157.43 Z M 142.59 157.09 L 143.49 156.76 C 144.25 156.48 144.63 155.65 144.36 154.89 C 144.08 154.14 143.24 153.75 142.49 154.03 L 141.59 154.36 C 140.83 154.64 140.45 155.48 140.73 156.23 C 141.00 156.98 141.84 157.37 142.59 157.09 Z M 143.58 156.71 L 144.51 156.30 C 145.24 155.97 145.56 155.12 145.24 154.39 C 144.91 153.67 144.06 153.34 143.33 153.66 L 142.40 154.08 C 141.68 154.40 141.35 155.25 141.68 155.98 C 142.00 156.71 142.85 157.04 143.58 156.71 Z M 144.57 156.26 L 145.45 155.82 C 146.15 155.46 146.44 154.60 146.08 153.89 C 145.73 153.19 144.86 152.90 144.16 153.26 L 143.28 153.70 C 142.57 154.06 142.29 154.92 142.64 155.62 C 143.00 156.33 143.86 156.62 144.57 156.26 Z M 145.46 155.81 L 145.61 155.73 C 146.31 155.36 146.59 154.50 146.23 153.80 C 145.86 153.10 145.00 152.83 144.30 153.19 L 144.15 153.27 C 143.44 153.63 143.17 154.49 143.53 155.19 C 143.89 155.89 144.76 156.17 145.46 155.81 Z"
      fill="black"
      fill-rule="nonzero" /><path d="M 138.26 138.20 L 137.90 139.11 C 137.59 139.90 137.98 140.78 138.76 141.09 C 139.54 141.40 140.42 141.01 140.73 140.23 L 141.09 139.31 C 141.40 138.53 141.02 137.65 140.24 137.34 C 139.45 137.03 138.57 137.42 138.26 138.20 Z M 137.80 139.28 L 137.55 140.25 C 137.33 141.09 137.83 141.94 138.67 142.16 C 139.51 142.38 140.37 141.88 140.58 141.04 L 140.84 140.07 C 141.05 139.23 140.55 138.37 139.71 138.15 C 138.87 137.94 138.01 138.44 137.80 139.28 Z M 137.47 140.56 L 137.42 141.57 C 137.37 142.46 138.05 143.21 138.93 143.25 C 139.82 143.30 140.57 142.62 140.61 141.73 L 140.66 140.72 C 140.71 139.84 140.03 139.09 139.15 139.04 C 138.26 139.00 137.51 139.68 137.47 140.56 Z M 137.41 141.79 L 137.50 142.81 C 137.58 143.69 138.36 144.35 139.24 144.27 C 140.13 144.20 140.78 143.42 140.71 142.53 L 140.62 141.51 C 140.54 140.63 139.76 139.97 138.88 140.05 C 137.99 140.13 137.33 140.91 137.41 141.79 Z M 137.50 142.88 L 137.64 143.89 C 137.75 144.77 138.56 145.39 139.45 145.27 C 140.33 145.16 140.95 144.35 140.83 143.46 L 140.70 142.46 C 140.58 141.57 139.77 140.95 138.89 141.07 C 138.01 141.19 137.39 142.00 137.50 142.88 Z M 137.63 143.87 L 137.75 144.86 C 137.86 145.74 138.67 146.37 139.55 146.26 C 140.44 146.16 141.07 145.35 140.96 144.46 L 140.84 143.48 C 140.73 142.59 139.92 141.96 139.04 142.07 C 138.15 142.18 137.52 142.98 137.63 143.87 Z M 137.75 144.84 L 137.85 145.78 C 137.95 146.67 138.76 147.31 139.64 147.21 C 140.53 147.11 141.17 146.31 141.07 145.42 L 140.96 144.48 C 140.86 143.59 140.06 142.95 139.18 143.05 C 138.29 143.15 137.65 143.95 137.75 144.84 Z M 137.85 145.77 L 137.95 146.76 C 138.04 147.65 138.84 148.30 139.73 148.20 C 140.62 148.11 141.27 147.32 141.17 146.43 L 141.07 145.44 C 140.98 144.55 140.19 143.90 139.30 143.99 C 138.41 144.08 137.76 144.88 137.85 145.77 Z M 137.95 146.73 L 138.03 147.72 C 138.11 148.61 138.89 149.28 139.78 149.20 C 140.67 149.13 141.33 148.34 141.26 147.45 L 141.18 146.46 C 141.10 145.57 140.32 144.90 139.43 144.98 C 138.54 145.05 137.87 145.84 137.95 146.73 Z M 138.03 147.69 L 138.10 148.69 C 138.16 149.59 138.93 150.26 139.82 150.20 C 140.71 150.14 141.39 149.37 141.33 148.48 L 141.26 147.48 C 141.20 146.59 140.43 145.91 139.54 145.97 C 138.65 146.03 137.97 146.80 138.03 147.69 Z M 138.10 148.68 L 138.16 149.69 C 138.21 150.58 138.97 151.27 139.87 151.21 C 140.76 151.16 141.44 150.39 141.39 149.50 L 141.33 148.49 C 141.28 147.60 140.51 146.92 139.62 146.97 C 138.73 147.02 138.04 147.79 138.10 148.68 Z M 138.16 149.68 L 138.21 150.67 C 138.25 151.56 139.02 152.25 139.91 152.20 C 140.80 152.16 141.49 151.40 141.44 150.50 L 141.39 149.51 C 141.34 148.62 140.58 147.93 139.69 147.98 C 138.80 148.03 138.11 148.79 138.16 149.68 Z M 138.21 150.66 L 138.25 151.68 C 138.29 152.57 139.05 153.26 139.94 153.22 C 140.83 153.18 141.52 152.43 141.48 151.54 L 141.44 150.52 C 141.40 149.63 140.65 148.93 139.75 148.97 C 138.86 149.01 138.17 149.77 138.21 150.66 Z M 138.25 151.66 L 138.29 152.65 C 138.32 153.54 139.06 154.24 139.96 154.21 C 140.85 154.18 141.55 153.43 141.52 152.54 L 141.48 151.55 C 141.45 150.66 140.71 149.96 139.81 149.99 C 138.92 150.02 138.22 150.77 138.25 151.66 Z M 138.29 152.64 L 138.32 153.65 C 138.34 154.54 139.09 155.24 139.97 155.21 C 140.86 155.19 141.57 154.44 141.54 153.56 L 141.51 152.55 C 141.49 151.66 140.75 150.96 139.86 150.99 C 138.97 151.01 138.27 151.75 138.29 152.64 Z M 138.32 153.64 L 138.35 154.64 C 138.37 155.53 139.11 156.23 140.00 156.20 C 140.89 156.18 141.59 155.44 141.56 154.55 L 141.54 153.56 C 141.51 152.67 140.77 151.97 139.89 151.99 C 139.00 152.02 138.30 152.76 138.32 153.64 Z M 138.35 154.64 L 138.38 155.63 C 138.40 156.52 139.14 157.22 140.02 157.20 C 140.91 157.17 141.61 156.44 141.59 155.55 L 141.56 154.56 C 141.54 153.67 140.80 152.97 139.92 152.99 C 139.03 153.02 138.33 153.75 138.35 154.64 Z M 138.38 155.62 L 138.40 156.63 C 138.42 157.52 139.15 158.22 140.03 158.20 C 140.92 158.19 141.62 157.46 141.60 156.57 L 141.58 155.56 C 141.57 154.68 140.84 153.97 139.95 153.99 C 139.07 154.01 138.37 154.74 138.38 155.62 Z M 138.41 156.62 L 138.42 157.63 C 138.43 158.51 139.15 159.22 140.03 159.21 C 140.91 159.20 141.62 158.48 141.61 157.60 L 141.60 156.59 C 141.59 155.71 140.87 155.00 139.99 155.01 C 139.11 155.02 138.40 155.74 138.41 156.62 Z M 138.42 157.62 L 138.43 158.63 C 138.43 159.50 139.14 160.21 140.02 160.21 C 140.90 160.21 141.61 159.49 141.60 158.62 L 141.60 157.61 C 141.60 156.74 140.88 156.03 140.01 156.03 C 139.13 156.03 138.42 156.74 138.42 157.62 Z M 138.43 158.62 L 138.43 159.63 C 138.43 160.50 139.14 161.21 140.02 161.21 C 140.89 161.21 141.60 160.50 141.60 159.63 L 141.60 158.62 C 141.60 157.75 140.89 157.04 140.01 157.04 C 139.14 157.04 138.43 157.75 138.43 158.62 Z M 138.44 159.63 L 138.44 160.64 C 138.44 161.51 139.15 162.21 140.02 162.21 C 140.88 162.21 141.59 161.51 141.59 160.64 L 141.59 159.63 C 141.59 158.76 140.88 158.05 140.02 158.05 C 139.15 158.05 138.44 158.76 138.44 159.63 Z M 138.45 160.64 L 138.45 161.61 C 138.45 162.47 139.15 163.17 140.02 163.17 C 140.88 163.17 141.58 162.47 141.58 161.61 L 141.58 160.64 C 141.58 159.77 140.88 159.07 140.02 159.07 C 139.15 159.07 138.45 159.77 138.45 160.64 Z M 138.46 161.61 L 138.46 162.62 C 138.46 163.48 139.15 164.18 140.02 164.18 C 140.88 164.18 141.57 163.48 141.57 162.62 L 141.57 161.61 C 141.57 160.75 140.88 160.05 140.02 160.05 C 139.15 160.05 138.46 160.75 138.46 161.61 Z M 138.47 162.62 L 138.47 163.60 C 138.47 164.46 139.16 165.15 140.02 165.15 C 140.87 165.15 141.57 164.46 141.57 163.60 L 141.57 162.62 C 141.57 161.76 140.87 161.07 140.02 161.07 C 139.16 161.07 138.47 161.76 138.47 162.62 Z M 138.47 163.60 L 138.47 164.62 C 138.47 165.48 139.16 166.17 140.01 166.17 C 140.86 166.17 141.55 165.48 141.55 164.63 L 141.56 163.61 C 141.56 162.76 140.87 162.07 140.02 162.06 C 139.17 162.06 138.48 162.75 138.47 163.60 Z M 138.48 164.60 L 138.46 165.57 C 138.44 166.42 139.11 167.12 139.96 167.14 C 140.80 167.15 141.50 166.48 141.52 165.64 L 141.54 164.66 C 141.56 163.82 140.89 163.12 140.05 163.10 C 139.20 163.08 138.50 163.75 138.48 164.60 Z M 138.47 165.52 L 138.42 166.54 C 138.37 167.38 139.01 168.10 139.85 168.14 C 140.68 168.19 141.40 167.55 141.45 166.72 L 141.51 165.69 C 141.56 164.86 140.92 164.14 140.08 164.09 C 139.24 164.04 138.52 164.68 138.47 165.52 Z M 138.43 166.51 L 138.36 167.47 C 138.29 168.30 138.91 169.02 139.74 169.09 C 140.57 169.16 141.29 168.54 141.36 167.71 L 141.43 166.75 C 141.50 165.92 140.88 165.19 140.05 165.13 C 139.22 165.06 138.50 165.68 138.43 166.51 Z M 138.37 167.49 L 138.30 168.47 C 138.24 169.29 138.87 170.00 139.69 170.06 C 140.51 170.12 141.22 169.49 141.28 168.67 L 141.35 167.69 C 141.40 166.87 140.78 166.15 139.96 166.10 C 139.13 166.04 138.42 166.67 138.37 167.49 Z M 138.31 168.52 L 138.28 169.51 C 138.25 170.33 138.90 171.01 139.71 171.04 C 140.53 171.06 141.21 170.42 141.24 169.60 L 141.27 168.62 C 141.30 167.80 140.65 167.11 139.84 167.09 C 139.02 167.06 138.34 167.71 138.31 168.52 Z M 138.29 169.55 L 138.28 170.56 C 138.28 171.38 138.93 172.04 139.74 172.04 C 140.55 172.05 141.22 171.40 141.22 170.58 L 141.23 169.57 C 141.24 168.76 140.58 168.09 139.77 168.09 C 138.96 168.08 138.29 168.74 138.29 169.55 Z M 138.29 170.57 L 138.29 171.04 C 138.29 171.85 138.94 172.50 139.75 172.50 C 140.56 172.50 141.22 171.85 141.22 171.04 L 141.22 170.57 C 141.22 169.77 140.56 169.11 139.75 169.11 C 138.95 169.11 138.29 169.77 138.29 170.57 Z"
      fill="black"
      fill-rule="nonzero" /><path d="M 152.41 134.88 L 152.43 135.86 C 152.44 136.69 153.13 137.35 153.96 137.34 C 154.80 137.32 155.46 136.63 155.44 135.80 L 155.42 134.82 C 155.41 133.99 154.72 133.33 153.89 133.34 C 153.06 133.36 152.39 134.05 152.41 134.88 Z M 152.43 135.75 L 152.37 136.76 C 152.33 137.59 152.96 138.30 153.79 138.35 C 154.62 138.39 155.34 137.76 155.38 136.93 L 155.44 135.92 C 155.49 135.09 154.85 134.37 154.02 134.33 C 153.19 134.28 152.48 134.92 152.43 135.75 Z M 152.39 136.60 L 152.24 137.51 C 152.10 138.33 152.66 139.11 153.48 139.24 C 154.30 139.38 155.08 138.82 155.22 138.00 L 155.37 137.09 C 155.50 136.27 154.95 135.49 154.13 135.35 C 153.30 135.22 152.52 135.77 152.39 136.60 Z M 152.25 137.41 L 152.02 138.42 C 151.83 139.24 152.34 140.05 153.15 140.24 C 153.97 140.43 154.78 139.92 154.97 139.10 L 155.20 138.09 C 155.39 137.28 154.88 136.46 154.07 136.28 C 153.25 136.09 152.44 136.60 152.25 137.41 Z M 152.02 138.40 L 151.77 139.41 C 151.56 140.22 152.06 141.05 152.87 141.25 C 153.69 141.45 154.51 140.96 154.72 140.14 L 154.97 139.13 C 155.17 138.32 154.68 137.49 153.86 137.29 C 153.05 137.09 152.22 137.58 152.02 138.40 Z M 151.76 139.41 L 151.51 140.41 C 151.31 141.22 151.80 142.05 152.62 142.26 C 153.44 142.46 154.26 141.97 154.47 141.15 L 154.72 140.15 C 154.93 139.33 154.43 138.50 153.61 138.30 C 152.80 138.09 151.97 138.59 151.76 139.41 Z M 151.51 140.41 L 151.27 141.36 C 151.07 142.18 151.57 143.01 152.39 143.21 C 153.21 143.41 154.04 142.91 154.24 142.10 L 154.47 141.15 C 154.68 140.33 154.18 139.50 153.36 139.29 C 152.54 139.09 151.71 139.59 151.51 140.41 Z M 151.26 141.38 L 151.02 142.42 C 150.83 143.24 151.34 144.07 152.16 144.26 C 152.98 144.45 153.81 143.94 154.00 143.12 L 154.25 142.08 C 154.44 141.25 153.93 140.43 153.11 140.24 C 152.28 140.04 151.46 140.55 151.26 141.38 Z M 151.00 142.48 L 150.83 143.40 C 150.67 144.24 151.22 145.04 152.05 145.20 C 152.88 145.35 153.69 144.81 153.84 143.97 L 154.02 143.05 C 154.18 142.22 153.63 141.42 152.80 141.26 C 151.96 141.10 151.16 141.65 151.00 142.48 Z M 150.81 143.55 L 150.71 144.61 C 150.64 145.46 151.26 146.20 152.10 146.28 C 152.95 146.36 153.69 145.73 153.77 144.89 L 153.87 143.83 C 153.94 142.98 153.32 142.24 152.47 142.16 C 151.63 142.08 150.88 142.71 150.81 143.55 Z M 150.76 145.17 L 151.00 146.01 C 151.23 146.82 152.08 147.30 152.90 147.07 C 153.71 146.84 154.19 145.99 153.96 145.17 L 153.72 144.33 C 153.49 143.52 152.64 143.04 151.82 143.27 C 151.01 143.50 150.53 144.35 150.76 145.17 Z M 152.04 147.06 L 152.93 147.33 C 153.74 147.57 154.60 147.10 154.84 146.29 C 155.08 145.47 154.62 144.62 153.80 144.38 L 152.92 144.12 C 152.10 143.87 151.25 144.34 151.00 145.15 C 150.76 145.97 151.23 146.82 152.04 147.06 Z M 153.60 147.37 L 154.57 147.22 C 155.41 147.10 155.99 146.31 155.86 145.47 C 155.73 144.63 154.95 144.06 154.11 144.18 L 153.13 144.33 C 152.29 144.46 151.72 145.24 151.85 146.08 C 151.97 146.92 152.76 147.50 153.60 147.37 Z M 154.78 147.18 L 155.76 146.88 C 156.57 146.64 157.03 145.79 156.79 144.98 C 156.55 144.16 155.69 143.70 154.88 143.94 L 153.90 144.23 C 153.09 144.47 152.63 145.33 152.87 146.14 C 153.11 146.95 153.96 147.42 154.78 147.18 Z M 155.85 146.85 L 156.79 146.50 C 157.59 146.21 157.99 145.33 157.70 144.54 C 157.41 143.74 156.53 143.33 155.73 143.63 L 154.79 143.97 C 153.99 144.27 153.59 145.15 153.88 145.94 C 154.17 146.74 155.05 147.14 155.85 146.85 Z M 156.83 146.49 L 157.75 146.12 C 158.54 145.81 158.92 144.92 158.61 144.13 C 158.30 143.34 157.40 142.96 156.62 143.27 L 155.69 143.64 C 154.91 143.96 154.53 144.85 154.84 145.63 C 155.15 146.42 156.04 146.80 156.83 146.49 Z M 157.76 146.12 L 158.73 145.72 C 159.52 145.40 159.89 144.51 159.57 143.73 C 159.26 142.94 158.36 142.57 157.58 142.88 L 156.61 143.28 C 155.83 143.60 155.45 144.49 155.77 145.27 C 156.09 146.06 156.98 146.43 157.76 146.12 Z M 158.72 145.72 L 159.65 145.35 C 160.43 145.04 160.82 144.15 160.50 143.36 C 160.19 142.58 159.30 142.20 158.51 142.51 L 157.59 142.88 C 156.80 143.20 156.42 144.09 156.74 144.87 C 157.05 145.66 157.94 146.04 158.72 145.72 Z M 159.64 145.36 L 160.57 144.99 C 161.36 144.68 161.75 143.80 161.44 143.01 C 161.13 142.23 160.25 141.84 159.46 142.14 L 158.53 142.51 C 157.74 142.82 157.35 143.70 157.66 144.49 C 157.97 145.27 158.85 145.66 159.64 145.36 Z M 160.56 144.99 L 161.50 144.64 C 162.29 144.34 162.68 143.46 162.38 142.67 C 162.08 141.88 161.20 141.48 160.41 141.78 L 159.48 142.14 C 158.69 142.44 158.29 143.32 158.59 144.11 C 158.89 144.90 159.77 145.29 160.56 144.99 Z M 161.48 144.64 L 162.44 144.30 C 163.23 144.01 163.64 143.13 163.35 142.34 C 163.07 141.55 162.19 141.14 161.40 141.43 L 160.44 141.78 C 159.64 142.06 159.24 142.94 159.52 143.73 C 159.81 144.52 160.68 144.93 161.48 144.64 Z M 162.40 144.31 L 163.34 144.00 C 164.14 143.73 164.57 142.87 164.31 142.07 C 164.04 141.27 163.18 140.84 162.38 141.10 L 161.44 141.41 C 160.64 141.68 160.21 142.54 160.47 143.34 C 160.74 144.14 161.60 144.57 162.40 144.31 Z M 163.27 144.02 L 164.23 143.75 C 165.04 143.52 165.52 142.68 165.29 141.86 C 165.06 141.05 164.22 140.58 163.40 140.81 L 162.45 141.08 C 161.64 141.31 161.16 142.15 161.39 142.96 C 161.62 143.77 162.46 144.25 163.27 144.02 Z M 164.14 143.77 L 165.12 143.56 C 165.95 143.38 166.47 142.57 166.30 141.75 C 166.12 140.93 165.31 140.40 164.49 140.58 L 163.50 140.79 C 162.68 140.96 162.15 141.77 162.33 142.60 C 162.50 143.42 163.31 143.95 164.14 143.77 Z M 165.00 143.58 L 165.97 143.45 C 166.80 143.35 167.39 142.58 167.28 141.75 C 167.17 140.91 166.41 140.32 165.57 140.43 L 164.61 140.56 C 163.77 140.67 163.19 141.43 163.29 142.27 C 163.40 143.10 164.17 143.69 165.00 143.58 Z M 165.79 143.47 L 166.83 143.45 C 167.67 143.44 168.34 142.75 168.33 141.90 C 168.32 141.06 167.63 140.39 166.78 140.40 L 165.75 140.42 C 164.91 140.43 164.23 141.12 164.25 141.97 C 164.26 142.81 164.95 143.48 165.79 143.47 Z M 166.48 143.42 L 167.43 143.62 C 168.25 143.80 169.06 143.28 169.24 142.46 C 169.42 141.64 168.90 140.83 168.08 140.65 L 167.13 140.44 C 166.31 140.26 165.50 140.78 165.32 141.60 C 165.14 142.42 165.66 143.24 166.48 143.42 Z M 166.89 143.40 L 167.70 143.94 C 168.39 144.42 169.34 144.24 169.82 143.54 C 170.29 142.84 170.11 141.89 169.41 141.42 L 168.61 140.87 C 167.91 140.40 166.97 140.58 166.49 141.28 C 166.02 141.97 166.20 142.92 166.89 143.40 Z M 167.32 143.59 L 167.91 144.40 C 168.41 145.08 169.37 145.23 170.06 144.73 C 170.74 144.23 170.89 143.27 170.39 142.58 L 169.79 141.77 C 169.29 141.09 168.33 140.94 167.65 141.45 C 166.97 141.95 166.82 142.91 167.32 143.59 Z M 167.72 144.07 L 168.10 144.99 C 168.42 145.77 169.31 146.15 170.10 145.83 C 170.89 145.51 171.27 144.61 170.95 143.83 L 170.58 142.91 C 170.26 142.12 169.36 141.74 168.57 142.07 C 167.78 142.39 167.40 143.28 167.72 144.07 Z M 168.01 144.72 L 168.21 145.69 C 168.39 146.53 169.21 147.06 170.04 146.89 C 170.87 146.72 171.41 145.90 171.24 145.06 L 171.03 144.09 C 170.86 143.26 170.04 142.72 169.21 142.90 C 168.37 143.07 167.84 143.89 168.01 144.72 Z M 168.19 145.57 L 168.30 146.48 C 168.40 147.33 169.17 147.94 170.02 147.83 C 170.87 147.73 171.48 146.96 171.37 146.11 L 171.26 145.19 C 171.16 144.34 170.39 143.74 169.54 143.84 C 168.69 143.95 168.09 144.72 168.19 145.57 Z M 168.29 146.44 L 168.38 147.38 C 168.46 148.23 169.21 148.86 170.06 148.78 C 170.92 148.70 171.55 147.94 171.47 147.09 L 171.38 146.16 C 171.30 145.30 170.55 144.67 169.69 144.75 C 168.84 144.83 168.21 145.59 168.29 146.44 Z M 168.37 147.36 L 168.46 148.48 C 168.53 149.34 169.28 149.98 170.14 149.91 C 170.99 149.84 171.63 149.09 171.56 148.24 L 171.47 147.11 C 171.40 146.25 170.65 145.61 169.80 145.68 C 168.94 145.75 168.30 146.50 168.37 147.36 Z M 168.46 148.48 L 168.54 149.50 C 168.60 150.36 169.35 151.00 170.21 150.93 C 171.07 150.86 171.71 150.11 171.65 149.26 L 171.57 148.24 C 171.50 147.38 170.75 146.74 169.89 146.81 C 169.03 146.87 168.39 147.62 168.46 148.48 Z M 168.54 149.50 L 168.62 150.55 C 168.68 151.41 169.43 152.05 170.29 151.98 C 171.15 151.92 171.79 151.17 171.73 150.31 L 171.65 149.26 C 171.58 148.40 170.83 147.76 169.97 147.82 C 169.11 147.89 168.47 148.64 168.54 149.50 Z M 168.62 150.54 L 168.69 151.55 C 168.75 152.41 169.50 153.05 170.36 152.99 C 171.22 152.93 171.86 152.18 171.80 151.32 L 171.73 150.32 C 171.66 149.46 170.92 148.81 170.06 148.88 C 169.20 148.94 168.55 149.69 168.62 150.54 Z M 168.69 151.54 L 168.76 152.59 C 168.82 153.45 169.56 154.10 170.42 154.04 C 171.28 153.99 171.93 153.24 171.87 152.38 L 171.80 151.33 C 171.74 150.47 171.00 149.82 170.14 149.88 C 169.28 149.94 168.63 150.68 168.69 151.54 Z M 168.76 152.57 L 168.82 153.59 C 168.86 154.45 169.60 155.11 170.46 155.06 C 171.32 155.02 171.97 154.28 171.93 153.42 L 171.87 152.40 C 171.83 151.55 171.09 150.89 170.23 150.93 C 169.37 150.98 168.71 151.71 168.76 152.57 Z M 168.82 153.57 L 168.85 154.43 C 168.89 155.29 169.61 155.96 170.47 155.92 C 171.33 155.89 172.00 155.16 171.96 154.30 L 171.93 153.44 C 171.89 152.58 171.17 151.91 170.31 151.95 C 169.45 151.98 168.78 152.71 168.82 153.57 Z M 168.85 154.43 L 168.89 155.43 C 168.93 156.29 169.65 156.96 170.51 156.92 C 171.37 156.89 172.04 156.16 172.00 155.30 L 171.96 154.30 C 171.93 153.44 171.20 152.78 170.34 152.81 C 169.48 152.85 168.82 153.57 168.85 154.43 Z M 168.89 155.44 L 168.94 156.43 C 168.98 157.29 169.71 157.96 170.57 157.92 C 171.42 157.88 172.09 157.15 172.05 156.29 L 172.00 155.29 C 171.96 154.44 171.23 153.77 170.38 153.81 C 169.52 153.85 168.86 154.58 168.89 155.44 Z M 168.94 156.45 L 169.00 157.45 C 169.05 158.30 169.79 158.96 170.64 158.91 C 171.50 158.86 172.15 158.12 172.10 157.27 L 172.04 156.27 C 171.99 155.42 171.26 154.76 170.40 154.81 C 169.55 154.86 168.89 155.60 168.94 156.45 Z M 169.01 157.47 L 169.08 158.46 C 169.14 159.31 169.88 159.95 170.74 159.89 C 171.59 159.83 172.23 159.09 172.17 158.23 L 172.10 157.24 C 172.04 156.39 171.29 155.75 170.44 155.81 C 169.58 155.87 168.94 156.62 169.01 157.47 Z M 169.08 158.47 L 169.15 159.42 C 169.22 160.28 169.97 160.91 170.82 160.85 C 171.67 160.78 172.31 160.03 172.24 159.18 L 172.17 158.22 C 172.10 157.37 171.36 156.73 170.50 156.80 C 169.65 156.87 169.01 157.61 169.08 158.47 Z M 169.16 159.43 L 169.24 160.43 C 169.31 161.28 170.06 161.92 170.91 161.85 C 171.76 161.78 172.39 161.03 172.32 160.18 L 172.24 159.18 C 172.17 158.32 171.42 157.69 170.57 157.76 C 169.72 157.83 169.09 158.58 169.16 159.43 Z M 169.24 160.44 L 169.33 161.45 C 169.41 162.30 170.16 162.93 171.01 162.85 C 171.86 162.78 172.49 162.03 172.41 161.17 L 172.32 160.17 C 172.25 159.32 171.49 158.69 170.64 158.77 C 169.79 158.84 169.17 159.59 169.24 160.44 Z M 169.33 161.45 L 169.43 162.46 C 169.50 163.31 170.25 163.94 171.10 163.86 C 171.95 163.78 172.58 163.03 172.50 162.18 L 172.41 161.17 C 172.33 160.32 171.58 159.70 170.73 159.78 C 169.88 159.85 169.26 160.60 169.33 161.45 Z M 169.43 162.45 L 169.51 163.47 C 169.58 164.32 170.33 164.95 171.17 164.88 C 172.02 164.81 172.65 164.07 172.58 163.22 L 172.50 162.20 C 172.43 161.35 171.69 160.72 170.84 160.79 C 169.99 160.86 169.36 161.60 169.43 162.45 Z M 169.51 163.42 L 169.56 164.41 C 169.60 165.26 170.32 165.92 171.17 165.88 C 172.02 165.83 172.68 165.11 172.63 164.26 L 172.59 163.27 C 172.54 162.42 171.82 161.77 170.97 161.81 C 170.12 161.85 169.47 162.57 169.51 163.42 Z M 169.56 164.28 L 169.52 165.27 C 169.49 166.11 170.15 166.83 170.99 166.86 C 171.84 166.90 172.56 166.24 172.59 165.39 L 172.63 164.40 C 172.67 163.55 172.01 162.84 171.16 162.80 C 170.31 162.77 169.60 163.43 169.56 164.28 Z M 169.55 165.08 L 169.39 166.03 C 169.25 166.87 169.81 167.66 170.64 167.80 C 171.47 167.94 172.26 167.38 172.40 166.54 L 172.57 165.58 C 172.71 164.75 172.14 163.96 171.31 163.82 C 170.48 163.68 169.69 164.24 169.55 165.08 Z M 169.42 165.90 L 169.17 166.87 C 168.95 167.68 169.44 168.52 170.26 168.73 C 171.07 168.94 171.90 168.46 172.12 167.64 L 172.37 166.67 C 172.58 165.86 172.10 165.03 171.28 164.81 C 170.47 164.60 169.63 165.09 169.42 165.90 Z M 169.19 166.81 L 168.89 167.80 C 168.64 168.60 169.09 169.45 169.90 169.70 C 170.70 169.94 171.55 169.49 171.79 168.69 L 172.09 167.70 C 172.34 166.90 171.89 166.05 171.09 165.80 C 170.28 165.56 169.43 166.01 169.19 166.81 Z"
      fill="black"
      fill-rule="nonzero" /><path d="M 158.20 145.10 L 157.65 145.80 C 157.15 146.46 157.26 147.40 157.92 147.90 C 158.57 148.41 159.51 148.29 160.01 147.64 L 160.56 146.93 C 161.07 146.28 160.95 145.34 160.30 144.83 C 159.65 144.33 158.71 144.44 158.20 145.10 Z M 157.53 145.88 L 156.98 146.73 C 156.52 147.45 156.73 148.41 157.45 148.87 C 158.17 149.33 159.12 149.13 159.59 148.41 L 160.13 147.56 C 160.60 146.84 160.39 145.88 159.67 145.42 C 158.95 144.96 158.00 145.17 157.53 145.88 Z M 156.86 146.87 L 156.39 147.83 C 156.01 148.62 156.33 149.57 157.12 149.95 C 157.90 150.34 158.85 150.01 159.24 149.23 L 159.71 148.27 C 160.09 147.48 159.77 146.53 158.98 146.15 C 158.20 145.76 157.25 146.09 156.86 146.87 Z M 156.33 147.93 L 155.95 148.89 C 155.62 149.71 156.02 150.64 156.84 150.97 C 157.65 151.30 158.59 150.90 158.91 150.08 L 159.30 149.13 C 159.63 148.31 159.23 147.37 158.41 147.05 C 157.59 146.72 156.66 147.11 156.33 147.93 Z M 155.93 148.94 L 155.57 149.92 C 155.27 150.75 155.70 151.67 156.53 151.97 C 157.36 152.27 158.28 151.84 158.58 151.01 L 158.93 150.03 C 159.24 149.20 158.81 148.28 157.98 147.98 C 157.15 147.68 156.23 148.11 155.93 148.94 Z M 155.57 149.94 L 155.24 150.87 C 154.95 151.71 155.40 152.62 156.23 152.91 C 157.07 153.20 157.98 152.76 158.27 151.92 L 158.59 150.99 C 158.88 150.15 158.44 149.24 157.60 148.95 C 156.77 148.66 155.85 149.11 155.57 149.94 Z M 155.25 150.87 L 154.88 151.91 C 154.59 152.74 155.03 153.65 155.86 153.95 C 156.69 154.24 157.61 153.80 157.90 152.97 L 158.26 151.93 C 158.56 151.09 158.12 150.18 157.28 149.89 C 156.45 149.60 155.54 150.03 155.25 150.87 Z M 154.89 151.89 L 154.59 152.70 C 154.29 153.53 154.72 154.45 155.55 154.75 C 156.37 155.05 157.29 154.63 157.59 153.80 L 157.89 152.98 C 158.19 152.15 157.76 151.24 156.94 150.94 C 156.11 150.63 155.19 151.06 154.89 151.89 Z M 154.60 152.69 L 154.26 153.61 C 153.94 154.43 154.36 155.35 155.18 155.66 C 156.01 155.97 156.93 155.56 157.24 154.73 L 157.58 153.81 C 157.89 152.99 157.48 152.07 156.66 151.76 C 155.83 151.45 154.91 151.86 154.60 152.69 Z M 154.27 153.59 L 153.90 154.53 C 153.58 155.35 153.98 156.27 154.80 156.59 C 155.62 156.91 156.54 156.50 156.86 155.69 L 157.23 154.75 C 157.55 153.93 157.14 153.01 156.32 152.69 C 155.51 152.37 154.59 152.77 154.27 153.59 Z M 153.91 154.52 L 153.54 155.43 C 153.22 156.25 153.61 157.17 154.42 157.49 C 155.23 157.82 156.16 157.42 156.48 156.61 L 156.85 155.70 C 157.17 154.89 156.78 153.96 155.97 153.64 C 155.16 153.31 154.23 153.71 153.91 154.52 Z M 153.55 155.43 L 153.17 156.38 C 152.84 157.19 153.23 158.11 154.04 158.43 C 154.85 158.76 155.77 158.37 156.09 157.56 L 156.48 156.61 C 156.80 155.81 156.41 154.89 155.60 154.56 C 154.79 154.24 153.88 154.63 153.55 155.43 Z M 153.18 156.38 L 152.80 157.33 C 152.48 158.13 152.87 159.04 153.67 159.37 C 154.47 159.69 155.39 159.30 155.71 158.49 L 156.09 157.55 C 156.41 156.75 156.02 155.83 155.22 155.51 C 154.41 155.19 153.50 155.58 153.18 156.38 Z M 152.81 157.32 L 152.44 158.25 C 152.11 159.05 152.50 159.95 153.30 160.28 C 154.09 160.60 155.00 160.21 155.32 159.42 L 155.70 158.49 C 156.02 157.70 155.64 156.79 154.84 156.46 C 154.04 156.14 153.13 156.53 152.81 157.32 Z M 152.45 158.23 L 152.06 159.17 C 151.73 159.96 152.10 160.87 152.89 161.20 C 153.68 161.53 154.58 161.16 154.91 160.37 L 155.31 159.43 C 155.64 158.64 155.27 157.74 154.48 157.41 C 153.69 157.08 152.78 157.45 152.45 158.23 Z M 152.09 159.14 L 151.70 160.00 C 151.35 160.77 151.69 161.68 152.46 162.03 C 153.24 162.38 154.15 162.04 154.50 161.26 L 154.89 160.41 C 155.24 159.63 154.89 158.72 154.12 158.37 C 153.35 158.02 152.44 158.36 152.09 159.14 Z M 151.72 159.97 L 151.30 160.85 C 150.93 161.60 151.25 162.52 152.01 162.88 C 152.76 163.25 153.68 162.93 154.04 162.18 L 154.47 161.30 C 154.84 160.54 154.52 159.62 153.76 159.26 C 153.00 158.89 152.09 159.21 151.72 159.97 Z M 151.31 160.85 L 150.86 161.77 C 150.50 162.53 150.82 163.43 151.57 163.80 C 152.32 164.16 153.23 163.84 153.59 163.09 L 154.04 162.17 C 154.40 161.41 154.08 160.51 153.33 160.15 C 152.58 159.78 151.67 160.10 151.31 160.85 Z M 150.87 161.78 L 150.43 162.70 C 150.07 163.45 150.39 164.35 151.14 164.71 C 151.89 165.07 152.79 164.75 153.15 164.00 L 153.59 163.08 C 153.95 162.33 153.63 161.43 152.88 161.07 C 152.13 160.71 151.23 161.03 150.87 161.78 Z M 150.45 162.69 L 149.99 163.62 C 149.63 164.36 149.93 165.25 150.68 165.62 C 151.42 165.98 152.31 165.67 152.68 164.93 L 153.13 164.01 C 153.49 163.27 153.19 162.37 152.45 162.01 C 151.71 161.65 150.81 161.95 150.45 162.69 Z M 150.02 163.60 L 149.55 164.50 C 149.18 165.22 149.46 166.12 150.19 166.49 C 150.91 166.87 151.81 166.58 152.18 165.86 L 152.65 164.95 C 153.02 164.23 152.74 163.34 152.01 162.96 C 151.29 162.59 150.40 162.87 150.02 163.60 Z M 149.58 164.49 L 149.20 165.20 C 148.82 165.91 149.09 166.80 149.80 167.18 C 150.51 167.56 151.40 167.29 151.78 166.58 L 152.16 165.87 C 152.53 165.15 152.27 164.27 151.55 163.89 C 150.84 163.51 149.96 163.78 149.58 164.49 Z"
      fill="black"
      fill-rule="nonzero" /><path d="M 162.14 149.94 L 161.89 151.01 C 161.69 151.81 162.18 152.62 162.99 152.82 C 163.79 153.02 164.60 152.52 164.80 151.72 L 165.06 150.65 C 165.25 149.85 164.76 149.04 163.95 148.84 C 163.15 148.65 162.34 149.14 162.14 149.94 Z M 161.85 151.00 L 161.60 152.01 C 161.40 152.84 161.91 153.67 162.73 153.87 C 163.55 154.07 164.38 153.57 164.58 152.74 L 164.83 151.73 C 165.03 150.91 164.53 150.08 163.71 149.87 C 162.88 149.67 162.05 150.18 161.85 151.00 Z M 161.57 152.00 L 161.34 152.91 C 161.14 153.75 161.65 154.61 162.49 154.81 C 163.33 155.02 164.18 154.51 164.39 153.67 L 164.61 152.76 C 164.82 151.92 164.31 151.07 163.47 150.86 C 162.63 150.65 161.78 151.16 161.57 152.00 Z M 161.32 152.89 L 161.07 153.89 C 160.84 154.74 161.36 155.61 162.21 155.83 C 163.06 156.05 163.93 155.54 164.15 154.69 L 164.41 153.69 C 164.63 152.84 164.12 151.97 163.27 151.75 C 162.41 151.53 161.54 152.04 161.32 152.89 Z M 161.07 153.86 L 160.81 154.79 C 160.57 155.64 161.06 156.52 161.92 156.76 C 162.77 157.00 163.65 156.50 163.89 155.65 L 164.15 154.72 C 164.38 153.87 163.89 152.99 163.04 152.75 C 162.19 152.51 161.31 153.01 161.07 153.86 Z M 160.82 154.77 L 160.56 155.63 C 160.31 156.48 160.79 157.36 161.63 157.62 C 162.48 157.87 163.36 157.39 163.62 156.54 L 163.87 155.68 C 164.13 154.83 163.65 153.95 162.80 153.69 C 161.96 153.44 161.07 153.92 160.82 154.77 Z M 160.57 155.61 L 160.27 156.57 C 160.01 157.41 160.48 158.30 161.32 158.56 C 162.15 158.82 163.05 158.36 163.31 157.52 L 163.61 156.56 C 163.87 155.72 163.40 154.83 162.56 154.57 C 161.72 154.31 160.83 154.78 160.57 155.61 Z M 160.29 156.54 L 159.97 157.48 C 159.70 158.31 160.14 159.21 160.97 159.48 C 161.80 159.76 162.69 159.32 162.97 158.49 L 163.29 157.55 C 163.57 156.72 163.12 155.82 162.29 155.55 C 161.47 155.27 160.57 155.71 160.29 156.54 Z M 159.99 157.46 L 159.65 158.41 C 159.36 159.23 159.79 160.13 160.61 160.42 C 161.43 160.71 162.33 160.28 162.62 159.46 L 162.96 158.51 C 163.25 157.69 162.82 156.79 162.00 156.50 C 161.18 156.21 160.28 156.64 159.99 157.46 Z M 159.66 158.41 L 159.33 159.34 C 159.04 160.16 159.46 161.05 160.28 161.35 C 161.09 161.64 161.99 161.21 162.28 160.40 L 162.61 159.46 C 162.90 158.64 162.48 157.75 161.66 157.46 C 160.85 157.17 159.95 157.59 159.66 158.41 Z M 159.34 159.36 L 159.00 160.30 C 158.72 161.11 159.15 162.00 159.96 162.29 C 160.77 162.57 161.65 162.14 161.94 161.33 L 162.27 160.38 C 162.55 159.57 162.13 158.69 161.32 158.40 C 160.51 158.12 159.62 158.55 159.34 159.36 Z M 159.01 160.32 L 158.68 161.27 C 158.41 162.08 158.84 162.96 159.64 163.23 C 160.45 163.51 161.33 163.08 161.60 162.28 L 161.93 161.32 C 162.21 160.51 161.78 159.64 160.97 159.36 C 160.17 159.08 159.29 159.51 159.01 160.32 Z M 158.69 161.28 L 158.37 162.23 C 158.10 163.03 158.52 163.90 159.32 164.17 C 160.12 164.45 160.99 164.02 161.27 163.22 L 161.59 162.27 C 161.86 161.47 161.44 160.60 160.64 160.33 C 159.84 160.05 158.97 160.48 158.69 161.28 Z M 158.39 162.22 L 158.05 163.16 C 157.77 163.95 158.19 164.82 158.98 165.10 C 159.77 165.38 160.64 164.96 160.92 164.17 L 161.25 163.23 C 161.53 162.44 161.11 161.57 160.32 161.29 C 159.53 161.01 158.67 161.43 158.39 162.22 Z M 158.07 163.15 L 157.73 164.08 C 157.44 164.86 157.83 165.73 158.61 166.02 C 159.39 166.31 160.26 165.91 160.55 165.13 L 160.89 164.19 C 161.18 163.41 160.79 162.55 160.01 162.26 C 159.23 161.97 158.36 162.37 158.07 163.15 Z M 157.74 164.08 L 157.39 165.01 C 157.10 165.78 157.49 166.64 158.25 166.93 C 159.02 167.22 159.89 166.84 160.18 166.07 L 160.53 165.14 C 160.82 164.37 160.43 163.50 159.66 163.21 C 158.89 162.92 158.03 163.31 157.74 164.08 Z M 157.40 165.01 L 157.07 165.90 C 156.78 166.66 157.16 167.52 157.92 167.80 C 158.69 168.09 159.54 167.71 159.83 166.95 L 160.16 166.06 C 160.45 165.30 160.07 164.44 159.31 164.16 C 158.54 163.87 157.69 164.25 157.40 165.01 Z M 157.08 165.90 L 156.72 166.85 C 156.43 167.60 156.80 168.45 157.56 168.74 C 158.31 169.03 159.16 168.65 159.45 167.90 L 159.81 166.95 C 160.10 166.19 159.73 165.35 158.97 165.06 C 158.22 164.77 157.37 165.14 157.08 165.90 Z M 156.73 166.84 L 156.37 167.76 C 156.07 168.51 156.44 169.35 157.18 169.65 C 157.93 169.94 158.77 169.58 159.07 168.83 L 159.43 167.91 C 159.73 167.16 159.36 166.32 158.62 166.03 C 157.87 165.73 157.03 166.09 156.73 166.84 Z M 156.38 167.75 L 156.01 168.67 C 155.71 169.41 156.06 170.25 156.80 170.55 C 157.54 170.85 158.38 170.50 158.68 169.76 L 159.06 168.84 C 159.35 168.10 159.00 167.26 158.26 166.96 C 157.52 166.66 156.68 167.01 156.38 167.75 Z M 156.01 168.67 L 155.62 169.63 C 155.32 170.37 155.67 171.21 156.41 171.51 C 157.14 171.81 157.98 171.45 158.28 170.72 L 158.68 169.76 C 158.98 169.02 158.62 168.18 157.89 167.88 C 157.15 167.58 156.31 167.94 156.01 168.67 Z M 155.63 169.63 L 155.49 169.96 C 155.19 170.69 155.54 171.53 156.28 171.83 C 157.01 172.13 157.85 171.78 158.15 171.04 L 158.28 170.72 C 158.58 169.99 158.23 169.15 157.50 168.85 C 156.76 168.55 155.93 168.90 155.63 169.63 Z"
      fill="black"
      fill-rule="nonzero" /></svg>