<svg xmlns="http://www.w3.org/2000/svg" width="300" height="300" viewBox="0 0 300 300">
<path d="M 139.28 127.84 L 138.91 126.86 C 138.61 126.06 137.72 125.66 136.92 125.96 C 136.12 126.27 135.72 127.16 136.02 127.96 L 136.39 128.93 C 136.70 129.73 137.59 130.13 138.39 129.83 C 139.18 129.53 139.59 128.64 139.28 127.84 Z M 136.30 126.32 L 135.97 126.68 C 135.37 127.32 135.41 128.33 136.05 128.93 C 136.69 129.53 137.70 129.50 138.30 128.85 L 138.64 128.50 C 139.24 127.85 139.20 126.84 138.56 126.24 C 137.91 125.64 136.90 125.68 136.30 126.32 Z M 135.61 127.25 L 135.18 128.52 C 134.90 129.37 135.35 130.28 136.19 130.56 C 137.03 130.85 137.95 130.39 138.23 129.55 L 138.66 128.28 C 138.94 127.44 138.49 126.53 137.65 126.24 C 136.81 125.96 135.90 126.41 135.61 127.25 Z M 135.16 128.58 L 134.89 129.48 C 134.64 130.33 135.12 131.23 135.98 131.48 C 136.83 131.74 137.73 131.25 137.99 130.40 L 138.25 129.50 C 138.51 128.64 138.02 127.75 137.17 127.49 C 136.31 127.24 135.41 127.72 135.16 128.58 Z M 134.89 129.49 L 134.60 130.49 C 134.35 131.35 134.84 132.25 135.70 132.49 C 136.56 132.74 137.46 132.25 137.70 131.39 L 137.99 130.39 C 138.24 129.53 137.75 128.63 136.89 128.38 C 136.03 128.14 135.13 128.63 134.89 129.49 Z M 134.59 130.50 L 134.30 131.51 C 134.06 132.37 134.56 133.27 135.42 133.51 C 136.28 133.75 137.18 133.25 137.42 132.39 L 137.71 131.38 C 137.95 130.52 137.45 129.62 136.59 129.38 C 135.73 129.14 134.83 129.64 134.59 130.50 Z M 134.30 131.52 L 134.02 132.50 C 133.78 133.37 134.29 134.26 135.16 134.50 C 136.02 134.74 136.92 134.24 137.16 133.37 L 137.43 132.39 C 137.67 131.52 137.16 130.63 136.30 130.39 C 135.43 130.15 134.54 130.65 134.30 131.52 Z M 134.02 132.51 L 133.73 133.57 C 133.50 134.44 134.01 135.33 134.87 135.57 C 135.74 135.81 136.63 135.30 136.87 134.43 L 137.16 133.36 C 137.39 132.50 136.88 131.61 136.02 131.37 C 135.15 131.13 134.26 131.64 134.02 132.51 Z M 133.73 133.58 L 133.49 134.48 C 133.25 135.34 133.77 136.23 134.63 136.47 C 135.50 136.70 136.39 136.19 136.63 135.32 L 136.87 134.43 C 137.10 133.56 136.59 132.67 135.72 132.43 C 134.86 132.20 133.97 132.71 133.73 133.58 Z M 133.49 134.47 L 133.25 135.34 C 133.01 136.21 133.52 137.10 134.39 137.34 C 135.25 137.58 136.15 137.07 136.38 136.20 L 136.62 135.33 C 136.86 134.47 136.35 133.57 135.49 133.33 C 134.62 133.09 133.73 133.60 133.49 134.47 Z M 133.26 135.33 L 132.99 136.27 C 132.74 137.13 133.24 138.03 134.10 138.28 C 134.97 138.53 135.86 138.03 136.11 137.16 L 136.38 136.22 C 136.63 135.36 136.13 134.46 135.26 134.21 C 134.40 133.97 133.50 134.47 133.26 135.33 Z M 132.99 136.26 L 132.70 137.24 C 132.45 138.10 132.94 139.00 133.80 139.26 C 134.66 139.51 135.56 139.02 135.82 138.16 L 136.11 137.17 C 136.36 136.31 135.87 135.41 135.01 135.16 C 134.15 134.91 133.24 135.40 132.99 136.26 Z M 132.71 137.23 L 132.42 138.17 C 132.17 139.03 132.65 139.93 133.51 140.19 C 134.37 140.45 135.27 139.96 135.53 139.10 L 135.81 138.17 C 136.07 137.31 135.58 136.40 134.73 136.15 C 133.87 135.89 132.96 136.37 132.71 137.23 Z M 132.43 138.16 L 132.14 139.11 C 131.88 139.97 132.36 140.87 133.22 141.13 C 134.07 141.40 134.98 140.91 135.24 140.06 L 135.53 139.11 C 135.79 138.25 135.31 137.35 134.45 137.09 C 133.59 136.83 132.69 137.31 132.43 138.16 Z M 132.14 139.11 L 131.84 140.10 C 131.57 140.95 132.05 141.86 132.91 142.12 C 133.76 142.38 134.67 141.90 134.93 141.05 L 135.24 140.06 C 135.50 139.21 135.02 138.30 134.17 138.04 C 133.31 137.77 132.41 138.25 132.14 139.11 Z M 131.84 140.09 L 131.55 141.04 C 131.28 141.89 131.76 142.80 132.61 143.07 C 133.46 143.33 134.37 142.85 134.63 142.00 L 134.93 141.05 C 135.19 140.20 134.72 139.29 133.86 139.03 C 133.01 138.76 132.11 139.24 131.84 140.09 Z M 131.55 141.04 L 131.25 142.00 C 130.98 142.85 131.46 143.75 132.31 144.02 C 133.16 144.29 134.07 143.81 134.33 142.96 L 134.63 142.00 C 134.90 141.15 134.42 140.25 133.57 139.98 C 132.72 139.71 131.82 140.19 131.55 141.04 Z M 131.25 141.99 L 130.95 142.95 C 130.68 143.80 131.15 144.71 132.00 144.98 C 132.85 145.25 133.75 144.78 134.02 143.93 L 134.33 142.97 C 134.60 142.12 134.13 141.21 133.28 140.94 C 132.43 140.67 131.52 141.14 131.25 141.99 Z M 130.95 142.95 L 130.64 143.91 C 130.37 144.75 130.84 145.66 131.68 145.93 C 132.53 146.21 133.43 145.74 133.71 144.90 L 134.02 143.94 C 134.29 143.09 133.83 142.18 132.98 141.91 C 132.13 141.64 131.23 142.10 130.95 142.95 Z M 130.65 143.90 L 130.34 144.85 C 130.06 145.69 130.52 146.60 131.36 146.88 C 132.21 147.15 133.11 146.69 133.39 145.85 L 133.70 144.90 C 133.98 144.06 133.52 143.15 132.68 142.88 C 131.83 142.60 130.93 143.06 130.65 143.90 Z M 130.34 144.85 L 130.03 145.79 C 129.76 146.63 130.21 147.54 131.05 147.82 C 131.89 148.09 132.79 147.64 133.07 146.80 L 133.38 145.85 C 133.66 145.02 133.21 144.11 132.37 143.83 C 131.53 143.56 130.62 144.01 130.34 144.85 Z M 130.04 145.80 L 129.73 146.74 C 129.45 147.58 129.90 148.48 130.74 148.75 C 131.58 149.03 132.48 148.58 132.75 147.74 L 133.07 146.80 C 133.34 145.96 132.89 145.06 132.05 144.78 C 131.22 144.51 130.31 144.96 130.04 145.80 Z M 129.73 146.74 L 129.42 147.69 C 129.14 148.52 129.59 149.42 130.43 149.70 C 131.26 149.97 132.16 149.52 132.44 148.68 L 132.75 147.74 C 133.03 146.91 132.57 146.01 131.74 145.73 C 130.90 145.45 130.01 145.91 129.73 146.74 Z M 129.42 147.69 L 129.11 148.64 C 128.83 149.47 129.28 150.37 130.11 150.64 C 130.94 150.92 131.84 150.47 132.12 149.64 L 132.43 148.68 C 132.71 147.85 132.26 146.96 131.43 146.68 C 130.59 146.41 129.70 146.86 129.42 147.69 Z M 129.11 148.64 L 128.79 149.59 C 128.52 150.42 128.97 151.32 129.79 151.59 C 130.62 151.87 131.52 151.42 131.79 150.59 L 132.11 149.64 C 132.39 148.81 131.94 147.91 131.11 147.64 C 130.28 147.36 129.39 147.81 129.11 148.64 Z M 128.80 149.59 L 128.48 150.55 C 128.20 151.37 128.65 152.27 129.47 152.54 C 130.29 152.82 131.19 152.38 131.46 151.55 L 131.79 150.59 C 132.06 149.77 131.62 148.88 130.79 148.60 C 129.97 148.32 129.08 148.77 128.80 149.59 Z M 128.48 150.55 L 128.17 151.50 C 127.89 152.32 128.33 153.21 129.15 153.49 C 129.97 153.76 130.86 153.32 131.14 152.50 L 131.46 151.55 C 131.73 150.73 131.29 149.84 130.47 149.56 C 129.65 149.29 128.76 149.73 128.48 150.55 Z M 128.17 151.50 L 127.86 152.44 C 127.58 153.26 128.02 154.15 128.84 154.42 C 129.66 154.69 130.55 154.25 130.82 153.43 L 131.13 152.50 C 131.41 151.68 130.97 150.79 130.15 150.52 C 129.33 150.24 128.44 150.69 128.17 151.50 Z M 127.86 152.45 L 127.54 153.43 C 127.27 154.25 127.71 155.13 128.53 155.40 C 129.34 155.67 130.22 155.22 130.49 154.41 L 130.82 153.43 C 131.09 152.61 130.64 151.73 129.83 151.46 C 129.01 151.19 128.13 151.63 127.86 152.45 Z M 127.54 153.44 L 127.23 154.39 C 126.97 155.20 127.41 156.08 128.22 156.34 C 129.04 156.61 129.91 156.16 130.18 155.35 L 130.49 154.40 C 130.75 153.59 130.31 152.71 129.50 152.45 C 128.68 152.18 127.81 152.63 127.54 153.44 Z M 127.24 154.40 L 126.94 155.32 C 126.68 156.13 127.12 157.00 127.93 157.26 C 128.75 157.52 129.62 157.08 129.88 156.26 L 130.17 155.34 C 130.44 154.53 129.99 153.66 129.18 153.40 C 128.37 153.14 127.50 153.58 127.24 154.40 Z M 126.94 155.32 L 126.63 156.30 C 126.38 157.11 126.82 157.97 127.63 158.23 C 128.44 158.49 129.30 158.04 129.56 157.23 L 129.87 156.26 C 130.13 155.45 129.68 154.58 128.87 154.33 C 128.07 154.07 127.20 154.52 126.94 155.32 Z M 126.64 156.30 L 126.34 157.25 C 126.09 158.05 126.53 158.91 127.34 159.17 C 128.14 159.42 129.00 158.98 129.26 158.17 L 129.55 157.23 C 129.81 156.42 129.36 155.56 128.56 155.31 C 127.75 155.05 126.90 155.50 126.64 156.30 Z M 126.35 157.25 L 126.05 158.18 C 125.80 158.98 126.24 159.84 127.04 160.09 C 127.84 160.35 128.70 159.90 128.95 159.10 L 129.25 158.17 C 129.50 157.37 129.06 156.51 128.26 156.26 C 127.46 156.01 126.60 156.45 126.35 157.25 Z M 126.06 158.19 L 125.76 159.14 C 125.52 159.93 125.96 160.78 126.76 161.03 C 127.55 161.28 128.40 160.83 128.65 160.04 L 128.94 159.09 C 129.19 158.30 128.75 157.45 127.95 157.20 C 127.16 156.95 126.31 157.39 126.06 158.19 Z M 125.76 159.17 L 125.48 160.14 C 125.25 160.94 125.71 161.77 126.51 162.00 C 127.31 162.23 128.14 161.77 128.37 160.97 L 128.65 160.00 C 128.88 159.21 128.42 158.37 127.62 158.14 C 126.83 157.91 125.99 158.37 125.76 159.17 Z M 125.48 160.20 L 125.18 161.44 C 124.98 162.24 125.47 163.05 126.27 163.24 C 127.08 163.44 127.88 162.95 128.08 162.15 L 128.38 160.91 C 128.57 160.11 128.08 159.30 127.28 159.11 C 126.48 158.91 125.67 159.40 125.48 160.20 Z M 125.15 161.62 L 125.06 162.46 C 124.96 163.27 125.55 164.01 126.36 164.10 C 127.17 164.19 127.91 163.61 128.00 162.80 L 128.10 161.97 C 128.19 161.15 127.61 160.42 126.80 160.32 C 125.98 160.23 125.25 160.81 125.15 161.62 Z M 127.54 163.69 L 127.84 163.40 C 128.43 162.85 128.46 161.92 127.90 161.33 C 127.34 160.74 126.42 160.72 125.83 161.27 L 125.52 161.56 C 124.93 162.12 124.91 163.05 125.46 163.64 C 126.02 164.22 126.95 164.25 127.54 163.69 Z M 128.11 163.02 L 128.70 161.93 C 129.07 161.23 128.81 160.35 128.11 159.97 C 127.41 159.60 126.53 159.86 126.15 160.56 L 125.57 161.66 C 125.19 162.36 125.45 163.23 126.15 163.61 C 126.85 163.99 127.73 163.72 128.11 163.02 Z M 128.70 161.89 L 128.82 161.64 C 129.18 160.94 128.90 160.08 128.20 159.72 C 127.50 159.36 126.64 159.64 126.28 160.34 L 126.15 160.59 C 125.79 161.30 126.07 162.16 126.78 162.52 C 127.48 162.87 128.34 162.60 128.70 161.89 Z"
      fill="black"
      fill-rule="nonzero" /><path d="M 135.28 135.60 L 136.27 135.50 C 137.12 135.42 137.74 134.66 137.66 133.81 C 137.58 132.96 136.83 132.34 135.97 132.42 L 134.99 132.52 C 134.14 132.60 133.51 133.35 133.60 134.20 C 133.68 135.05 134.43 135.68 135.28 135.60 Z M 136.41 135.50 L 137.38 135.32 C 138.23 135.17 138.79 134.35 138.64 133.50 C 138.48 132.64 137.66 132.08 136.81 132.24 L 135.84 132.42 C 134.98 132.58 134.42 133.40 134.58 134.25 C 134.74 135.10 135.56 135.66 136.41 135.50 Z M 137.52 135.28 L 138.48 135.00 C 139.30 134.77 139.78 133.91 139.55 133.08 C 139.31 132.26 138.45 131.78 137.63 132.01 L 136.67 132.29 C 135.84 132.52 135.36 133.38 135.60 134.21 C 135.83 135.03 136.69 135.51 137.52 135.28 Z M 138.50 134.97 L 139.45 134.67 C 140.25 134.43 140.71 133.58 140.46 132.77 C 140.21 131.97 139.36 131.52 138.56 131.76 L 137.61 132.05 C 136.80 132.30 136.35 133.15 136.60 133.95 C 136.84 134.76 137.69 135.21 138.50 134.97 Z M 139.42 134.65 L 140.39 134.37 C 141.19 134.14 141.64 133.31 141.41 132.52 C 141.18 131.72 140.35 131.27 139.55 131.50 L 138.58 131.78 C 137.79 132.01 137.34 132.85 137.57 133.64 C 137.80 134.43 138.63 134.89 139.42 134.65 Z M 140.36 134.36 L 141.34 134.09 C 142.12 133.88 142.59 133.07 142.37 132.28 C 142.16 131.50 141.35 131.03 140.56 131.25 L 139.59 131.51 C 138.80 131.72 138.34 132.53 138.55 133.32 C 138.76 134.11 139.57 134.57 140.36 134.36 Z M 141.30 134.08 L 142.27 133.84 C 143.05 133.65 143.53 132.86 143.34 132.08 C 143.15 131.30 142.36 130.82 141.58 131.02 L 140.60 131.26 C 139.82 131.45 139.34 132.24 139.54 133.02 C 139.73 133.80 140.52 134.28 141.30 134.08 Z M 142.24 133.84 L 143.22 133.62 C 144.00 133.45 144.49 132.68 144.32 131.90 C 144.14 131.12 143.37 130.63 142.60 130.80 L 141.61 131.02 C 140.84 131.19 140.34 131.96 140.52 132.74 C 140.69 133.52 141.46 134.01 142.24 133.84 Z M 143.19 133.62 L 144.17 133.42 C 144.95 133.27 145.45 132.51 145.29 131.74 C 145.14 130.96 144.38 130.46 143.61 130.61 L 142.63 130.81 C 141.85 130.96 141.35 131.72 141.50 132.49 C 141.66 133.27 142.41 133.77 143.19 133.62 Z M 144.15 133.42 L 144.89 133.28 C 145.66 133.13 146.17 132.39 146.02 131.61 C 145.88 130.84 145.13 130.33 144.35 130.47 L 143.62 130.61 C 142.85 130.76 142.34 131.51 142.49 132.28 C 142.63 133.06 143.38 133.57 144.15 133.42 Z"
      fill="black"
      fill-rule="nonzero" /><path d="M 132.71 141.61 L 131.86 142.51 C 131.29 143.12 131.31 144.08 131.92 144.65 C 132.53 145.22 133.49 145.19 134.06 144.58 L 134.91 143.68 C 135.48 143.07 135.45 142.12 134.85 141.54 C 134.24 140.97 133.28 141.00 132.71 141.61 Z M 131.55 142.88 L 131.26 143.49 C 130.89 144.27 131.22 145.20 132.00 145.57 C 132.77 145.94 133.71 145.61 134.08 144.83 L 134.37 144.22 C 134.74 143.44 134.41 142.51 133.63 142.14 C 132.85 141.77 131.92 142.10 131.55 142.88 Z M 132.33 145.71 L 132.95 145.85 C 133.81 146.04 134.66 145.50 134.84 144.64 C 135.03 143.78 134.49 142.94 133.63 142.75 L 133.01 142.61 C 132.15 142.43 131.30 142.97 131.12 143.82 C 130.93 144.68 131.47 145.53 132.33 145.71 Z M 133.55 145.87 L 134.84 145.66 C 135.71 145.52 136.30 144.70 136.16 143.83 C 136.01 142.96 135.19 142.37 134.32 142.51 L 133.03 142.73 C 132.16 142.87 131.58 143.69 131.72 144.56 C 131.86 145.43 132.68 146.02 133.55 145.87 Z M 134.95 145.64 L 135.84 145.43 C 136.70 145.23 137.23 144.37 137.03 143.51 C 136.83 142.65 135.97 142.12 135.11 142.32 L 134.22 142.53 C 133.36 142.74 132.83 143.60 133.03 144.45 C 133.23 145.31 134.09 145.84 134.95 145.64 Z M 135.88 145.42 L 136.85 145.16 C 137.70 144.93 138.21 144.06 137.98 143.21 C 137.75 142.36 136.88 141.85 136.03 142.08 L 135.06 142.34 C 134.21 142.57 133.71 143.44 133.93 144.29 C 134.16 145.14 135.03 145.65 135.88 145.42 Z M 136.89 145.15 L 137.90 144.85 C 138.74 144.60 139.22 143.71 138.97 142.87 C 138.72 142.03 137.84 141.55 136.99 141.80 L 135.99 142.09 C 135.14 142.34 134.66 143.23 134.91 144.07 C 135.16 144.92 136.05 145.40 136.89 145.15 Z M 137.94 144.83 L 138.96 144.50 C 139.79 144.22 140.25 143.33 139.97 142.49 C 139.70 141.66 138.80 141.21 137.97 141.48 L 136.95 141.81 C 136.12 142.09 135.67 142.98 135.94 143.82 C 136.21 144.65 137.11 145.10 137.94 144.83 Z M 139.00 144.47 L 140.00 144.12 C 140.82 143.82 141.24 142.92 140.95 142.10 C 140.66 141.28 139.75 140.85 138.93 141.14 L 137.93 141.50 C 137.11 141.80 136.68 142.70 136.98 143.52 C 137.27 144.34 138.17 144.77 139.00 144.47 Z M 140.02 144.09 L 140.97 143.73 C 141.78 143.43 142.18 142.52 141.88 141.72 C 141.57 140.91 140.67 140.50 139.86 140.81 L 138.91 141.17 C 138.10 141.47 137.69 142.38 138.00 143.19 C 138.31 143.99 139.21 144.40 140.02 144.09 Z M 140.98 143.72 L 141.85 143.37 C 142.65 143.06 143.05 142.16 142.73 141.36 C 142.42 140.56 141.52 140.17 140.72 140.48 L 139.85 140.82 C 139.05 141.14 138.65 142.04 138.97 142.84 C 139.28 143.64 140.18 144.03 140.98 143.72 Z M 141.85 143.36 L 142.83 142.97 C 143.62 142.66 144.01 141.76 143.69 140.97 C 143.38 140.18 142.49 139.80 141.70 140.11 L 140.72 140.50 C 139.93 140.81 139.54 141.71 139.86 142.50 C 140.17 143.29 141.06 143.67 141.85 143.36 Z M 142.83 142.95 L 143.75 142.58 C 144.53 142.27 144.91 141.38 144.60 140.60 C 144.29 139.83 143.40 139.45 142.62 139.76 L 141.70 140.13 C 140.92 140.44 140.54 141.33 140.86 142.10 C 141.17 142.88 142.05 143.26 142.83 142.95 Z M 143.76 142.55 L 144.60 142.21 C 145.37 141.89 145.73 141.02 145.42 140.25 C 145.10 139.49 144.23 139.12 143.46 139.44 L 142.62 139.78 C 141.86 140.10 141.49 140.97 141.80 141.74 C 142.12 142.50 142.99 142.87 143.76 142.55 Z M 144.60 142.19 L 145.54 141.80 C 146.29 141.48 146.64 140.61 146.33 139.86 C 146.01 139.11 145.15 138.75 144.39 139.07 L 143.46 139.46 C 142.71 139.77 142.35 140.64 142.67 141.39 C 142.98 142.15 143.85 142.50 144.60 142.19 Z M 145.50 141.79 L 146.42 141.43 C 147.17 141.13 147.54 140.29 147.24 139.53 C 146.95 138.78 146.10 138.42 145.35 138.71 L 144.43 139.07 C 143.68 139.37 143.31 140.22 143.61 140.97 C 143.90 141.72 144.75 142.09 145.50 141.79 Z M 146.35 141.44 L 147.29 141.12 C 148.05 140.86 148.46 140.04 148.20 139.29 C 147.95 138.53 147.12 138.12 146.37 138.38 L 145.42 138.70 C 144.66 138.96 144.26 139.78 144.51 140.53 C 144.77 141.29 145.59 141.70 146.35 141.44 Z M 147.24 141.13 L 148.20 140.84 C 148.96 140.61 149.39 139.81 149.16 139.05 C 148.94 138.29 148.13 137.86 147.37 138.09 L 146.42 138.37 C 145.66 138.60 145.23 139.40 145.45 140.16 C 145.68 140.92 146.48 141.35 147.24 141.13 Z M 148.19 140.84 L 148.39 140.78 C 149.15 140.56 149.58 139.76 149.36 139.00 C 149.14 138.24 148.34 137.81 147.58 138.03 L 147.39 138.09 C 146.63 138.31 146.19 139.10 146.41 139.86 C 146.63 140.62 147.43 141.06 148.19 140.84 Z"
      fill="black"
      fill-rule="nonzero" /><path d="M 134.06 148.82 L 133.11 149.49 C 132.44 149.98 132.28 150.92 132.77 151.60 C 133.25 152.28 134.20 152.43 134.87 151.95 L 135.82 151.27 C 136.49 150.79 136.65 149.84 136.16 149.17 C 135.68 148.49 134.73 148.33 134.06 148.82 Z M 133.00 151.90 L 133.25 152.12 C 133.91 152.67 134.88 152.59 135.44 151.94 C 135.99 151.28 135.90 150.31 135.25 149.76 L 134.99 149.54 C 134.34 148.99 133.36 149.07 132.81 149.72 C 132.26 150.37 132.34 151.35 133.00 151.90 Z M 134.42 152.49 L 135.53 152.37 C 136.38 152.28 137.00 151.51 136.91 150.65 C 136.82 149.80 136.05 149.18 135.20 149.27 L 134.09 149.39 C 133.23 149.48 132.61 150.25 132.70 151.10 C 132.80 151.96 133.56 152.58 134.42 152.49 Z M 135.66 152.35 L 136.79 152.13 C 137.64 151.96 138.19 151.14 138.02 150.30 C 137.86 149.45 137.04 148.90 136.19 149.07 L 135.06 149.29 C 134.22 149.45 133.67 150.27 133.83 151.12 C 134.00 151.96 134.82 152.51 135.66 152.35 Z M 136.84 152.12 L 137.84 151.89 C 138.68 151.69 139.20 150.86 139.01 150.02 C 138.82 149.18 137.98 148.66 137.14 148.85 L 136.14 149.08 C 135.31 149.27 134.78 150.11 134.97 150.94 C 135.17 151.78 136.00 152.31 136.84 152.12 Z M 137.86 151.88 L 138.85 151.64 C 139.69 151.44 140.20 150.59 140.00 149.76 C 139.79 148.92 138.95 148.41 138.12 148.61 L 137.12 148.86 C 136.29 149.06 135.78 149.90 135.98 150.73 C 136.18 151.57 137.02 152.08 137.86 151.88 Z M 138.85 151.63 L 139.85 151.39 C 140.69 151.19 141.20 150.35 140.99 149.51 C 140.79 148.68 139.95 148.17 139.12 148.38 L 138.12 148.62 C 137.28 148.82 136.77 149.66 136.98 150.49 C 137.18 151.33 138.02 151.84 138.85 151.63 Z M 139.84 151.38 L 140.86 151.14 C 141.69 150.94 142.20 150.11 142.00 149.29 C 141.81 148.46 140.98 147.95 140.15 148.14 L 139.13 148.39 C 138.31 148.58 137.79 149.41 137.99 150.24 C 138.19 151.06 139.01 151.57 139.84 151.38 Z M 140.86 151.12 L 141.76 150.91 C 142.57 150.71 143.08 149.90 142.89 149.08 C 142.69 148.26 141.88 147.76 141.06 147.95 L 140.16 148.16 C 139.34 148.35 138.84 149.17 139.03 149.99 C 139.22 150.80 140.04 151.31 140.86 151.12 Z M 141.76 150.88 L 142.72 150.65 C 143.53 150.45 144.02 149.64 143.82 148.84 C 143.63 148.04 142.82 147.54 142.01 147.74 L 141.05 147.97 C 140.25 148.17 139.76 148.98 139.95 149.78 C 140.15 150.59 140.96 151.08 141.76 150.88 Z M 142.74 150.63 L 143.70 150.38 C 144.49 150.17 144.97 149.36 144.76 148.57 C 144.55 147.78 143.75 147.31 142.96 147.51 L 142.00 147.76 C 141.21 147.97 140.73 148.77 140.94 149.57 C 141.14 150.36 141.95 150.83 142.74 150.63 Z M 143.72 150.35 L 144.70 150.08 C 145.48 149.86 145.93 149.05 145.71 148.28 C 145.50 147.50 144.69 147.05 143.91 147.26 L 142.93 147.54 C 142.16 147.75 141.70 148.56 141.92 149.34 C 142.14 150.12 142.94 150.57 143.72 150.35 Z M 144.72 150.06 L 145.68 149.77 C 146.45 149.54 146.88 148.73 146.65 147.96 C 146.42 147.20 145.61 146.76 144.84 147.00 L 143.89 147.28 C 143.12 147.52 142.69 148.33 142.92 149.09 C 143.15 149.86 143.96 150.29 144.72 150.06 Z M 145.71 149.76 L 146.67 149.45 C 147.43 149.20 147.84 148.38 147.59 147.61 C 147.34 146.85 146.52 146.44 145.76 146.69 L 144.81 147.00 C 144.05 147.26 143.63 148.07 143.88 148.84 C 144.13 149.60 144.95 150.01 145.71 149.76 Z M 146.71 149.46 L 147.62 149.13 C 148.39 148.86 148.80 148.02 148.53 147.26 C 148.26 146.49 147.41 146.08 146.65 146.35 L 145.73 146.68 C 144.96 146.95 144.56 147.79 144.83 148.56 C 145.10 149.32 145.94 149.73 146.71 149.46 Z M 147.64 149.15 L 147.70 149.13 C 148.47 148.85 148.88 148.00 148.60 147.22 C 148.32 146.45 147.47 146.04 146.70 146.32 L 146.64 146.34 C 145.86 146.62 145.46 147.47 145.73 148.25 C 146.01 149.02 146.86 149.42 147.64 149.15 Z"
      fill="black"
      fill-rule="nonzero" /><path d="M 140.55 144.70 L 140.27 145.60 C 140.02 146.39 140.46 147.24 141.26 147.49 C 142.06 147.74 142.91 147.30 143.16 146.50 L 143.44 145.60 C 143.69 144.80 143.24 143.95 142.44 143.70 C 141.64 143.45 140.80 143.90 140.55 144.70 Z M 140.17 145.77 L 139.99 146.78 C 139.83 147.63 140.40 148.45 141.24 148.60 C 142.09 148.76 142.91 148.19 143.06 147.34 L 143.25 146.33 C 143.40 145.48 142.84 144.66 141.99 144.51 C 141.14 144.35 140.33 144.92 140.17 145.77 Z M 139.94 146.97 L 139.88 147.92 C 139.83 148.79 140.49 149.55 141.37 149.60 C 142.25 149.66 143.00 148.99 143.05 148.11 L 143.11 147.16 C 143.17 146.29 142.50 145.53 141.62 145.48 C 140.75 145.42 139.99 146.09 139.94 146.97 Z M 139.87 148.00 L 139.86 149.04 C 139.85 149.92 140.55 150.65 141.43 150.66 C 142.32 150.67 143.04 149.96 143.05 149.08 L 143.06 148.03 C 143.08 147.15 142.37 146.43 141.49 146.42 C 140.60 146.41 139.88 147.11 139.87 148.00 Z M 139.85 149.06 L 139.85 150.13 C 139.85 151.01 140.57 151.73 141.45 151.73 C 142.34 151.73 143.06 151.01 143.06 150.13 L 143.06 149.06 C 143.06 148.18 142.34 147.46 141.45 147.46 C 140.57 147.46 139.85 148.18 139.85 149.06 Z M 139.85 150.13 L 139.85 151.15 C 139.85 152.04 140.57 152.75 141.45 152.75 C 142.34 152.75 143.06 152.04 143.06 151.15 L 143.06 150.13 C 143.06 149.24 142.34 148.52 141.45 148.52 C 140.57 148.52 139.85 149.24 139.85 150.13 Z M 139.85 151.15 L 139.85 152.12 C 139.85 153.00 140.57 153.72 141.45 153.72 C 142.34 153.72 143.06 153.00 143.06 152.12 L 143.06 151.15 C 143.06 150.26 142.34 149.55 141.45 149.55 C 140.57 149.55 139.85 150.26 139.85 151.15 Z M 139.86 152.12 L 139.86 153.13 C 139.86 154.02 140.57 154.73 141.45 154.73 C 142.34 154.73 143.05 154.02 143.05 153.13 L 143.05 152.12 C 143.05 151.23 142.34 150.52 141.45 150.52 C 140.57 150.52 139.86 151.23 139.86 152.12 Z M 139.86 153.13 L 139.86 154.08 C 139.86 154.96 140.58 155.67 141.45 155.67 C 142.33 155.67 143.05 154.96 143.05 154.08 L 143.05 153.13 C 143.05 152.26 142.33 151.54 141.45 151.54 C 140.58 151.54 139.86 152.26 139.86 153.13 Z M 139.87 154.08 L 139.87 155.08 C 139.87 155.96 140.58 156.66 141.45 156.66 C 142.33 156.66 143.04 155.96 143.04 155.08 L 143.04 154.08 C 143.04 153.21 142.33 152.50 141.45 152.50 C 140.58 152.50 139.87 153.21 139.87 154.08 Z M 139.88 155.08 L 139.88 156.07 C 139.88 156.94 140.59 157.65 141.45 157.65 C 142.32 157.65 143.03 156.94 143.03 156.07 L 143.03 155.08 C 143.03 154.21 142.32 153.51 141.45 153.51 C 140.59 153.51 139.88 154.21 139.88 155.08 Z M 139.89 156.07 L 139.89 157.08 C 139.89 157.95 140.59 158.64 141.45 158.64 C 142.32 158.64 143.01 157.95 143.01 157.08 L 143.01 156.07 C 143.01 155.21 142.32 154.51 141.45 154.51 C 140.59 154.51 139.89 155.21 139.89 156.07 Z M 139.91 157.08 L 139.91 158.09 C 139.91 158.94 140.60 159.64 141.45 159.64 C 142.31 159.64 143.00 158.94 143.00 158.09 L 143.00 157.08 C 143.00 156.23 142.31 155.54 141.45 155.54 C 140.60 155.54 139.91 156.23 139.91 157.08 Z M 139.93 158.09 L 139.93 159.10 C 139.93 159.94 140.61 160.62 141.45 160.62 C 142.30 160.62 142.98 159.94 142.98 159.10 L 142.98 158.09 C 142.98 157.25 142.30 156.56 141.45 156.56 C 140.61 156.56 139.93 157.25 139.93 158.09 Z M 139.94 159.10 L 139.94 160.09 C 139.94 160.93 140.62 161.60 141.45 161.60 C 142.29 161.60 142.96 160.93 142.96 160.09 L 142.96 159.10 C 142.96 158.26 142.29 157.59 141.45 157.59 C 140.62 157.59 139.94 158.26 139.94 159.10 Z M 139.96 160.09 L 139.96 161.02 C 139.96 161.85 140.63 162.52 141.45 162.52 C 142.28 162.52 142.95 161.85 142.95 161.02 L 142.95 160.10 C 142.95 159.27 142.28 158.60 141.46 158.60 C 140.63 158.60 139.96 159.27 139.96 160.09 Z M 139.97 161.01 L 139.96 162.06 C 139.96 162.88 140.61 163.55 141.43 163.56 C 142.25 163.56 142.92 162.91 142.93 162.09 L 142.94 161.03 C 142.94 160.22 142.28 159.55 141.47 159.54 C 140.65 159.53 139.98 160.19 139.97 161.01 Z M 139.97 162.05 L 139.96 163.02 C 139.94 163.83 140.59 164.50 141.40 164.51 C 142.21 164.53 142.88 163.88 142.90 163.07 L 142.92 162.10 C 142.93 161.29 142.28 160.62 141.47 160.60 C 140.66 160.59 139.99 161.24 139.97 162.05 Z M 139.96 163.02 L 139.95 164.05 C 139.93 164.86 140.57 165.52 141.38 165.54 C 142.19 165.55 142.86 164.91 142.87 164.10 L 142.89 163.07 C 142.91 162.26 142.26 161.59 141.45 161.58 C 140.65 161.56 139.98 162.21 139.96 163.02 Z M 139.95 164.06 L 139.94 165.10 C 139.93 165.90 140.57 166.56 141.38 166.57 C 142.18 166.58 142.84 165.94 142.85 165.13 L 142.86 164.09 C 142.87 163.29 142.23 162.63 141.43 162.62 C 140.62 162.61 139.96 163.25 139.95 164.06 Z M 139.95 165.11 L 139.95 166.10 C 139.95 166.90 140.59 167.55 141.39 167.55 C 142.18 167.56 142.83 166.91 142.83 166.12 L 142.84 165.12 C 142.84 164.33 142.20 163.68 141.40 163.67 C 140.61 163.67 139.96 164.31 139.95 165.11 Z M 139.96 166.11 L 139.96 166.74 C 139.96 167.53 140.60 168.17 141.39 168.17 C 142.18 168.17 142.82 167.53 142.82 166.74 L 142.82 166.11 C 142.82 165.32 142.18 164.68 141.39 164.68 C 140.60 164.68 139.96 165.32 139.96 166.11 Z"
      fill="black"
      fill-rule="nonzero" /><path d="M 131.97 155.93 L 132.96 156.02 C 133.80 156.09 134.54 155.46 134.61 154.61 C 134.68 153.76 134.06 153.02 133.21 152.95 L 132.22 152.87 C 131.38 152.80 130.63 153.43 130.56 154.28 C 130.49 155.12 131.12 155.86 131.97 155.93 Z M 132.94 156.03 L 133.94 156.12 C 134.79 156.19 135.54 155.56 135.62 154.71 C 135.70 153.86 135.07 153.11 134.22 153.03 L 133.22 152.94 C 132.37 152.87 131.62 153.49 131.54 154.35 C 131.47 155.20 132.09 155.95 132.94 156.03 Z M 133.92 156.11 L 134.95 156.22 C 135.79 156.30 136.55 155.69 136.64 154.84 C 136.73 154.00 136.11 153.24 135.27 153.15 L 134.24 153.04 C 133.39 152.95 132.64 153.57 132.55 154.41 C 132.46 155.26 133.07 156.02 133.92 156.11 Z M 134.93 156.18 L 135.95 156.30 C 136.77 156.40 137.52 155.81 137.62 154.98 C 137.72 154.16 137.13 153.41 136.31 153.31 L 135.29 153.19 C 134.46 153.09 133.71 153.68 133.61 154.50 C 133.51 155.33 134.10 156.08 134.93 156.18 Z M 135.93 156.25 L 136.89 156.38 C 137.68 156.49 138.42 155.93 138.53 155.13 C 138.63 154.33 138.08 153.60 137.28 153.49 L 136.32 153.36 C 135.52 153.25 134.79 153.81 134.68 154.61 C 134.57 155.41 135.13 156.14 135.93 156.25 Z M 136.87 156.35 L 137.89 156.50 C 138.67 156.62 139.40 156.08 139.52 155.30 C 139.64 154.51 139.10 153.79 138.31 153.67 L 137.29 153.52 C 136.51 153.40 135.78 153.94 135.67 154.72 C 135.55 155.51 136.09 156.23 136.87 156.35 Z M 137.90 156.50 L 138.84 156.63 C 139.62 156.75 140.34 156.20 140.45 155.42 C 140.57 154.64 140.03 153.92 139.24 153.81 L 138.31 153.67 C 137.52 153.56 136.80 154.10 136.69 154.88 C 136.58 155.66 137.12 156.39 137.90 156.50 Z M 138.86 156.63 L 139.85 156.76 C 140.64 156.86 141.35 156.31 141.45 155.53 C 141.55 154.75 140.99 154.03 140.21 153.93 L 139.22 153.81 C 138.44 153.71 137.73 154.26 137.63 155.04 C 137.53 155.82 138.08 156.54 138.86 156.63 Z M 139.85 156.76 L 140.84 156.89 C 141.62 156.99 142.34 156.44 142.44 155.66 C 142.54 154.88 141.99 154.17 141.21 154.06 L 140.22 153.93 C 139.44 153.83 138.72 154.38 138.62 155.16 C 138.52 155.94 139.07 156.66 139.85 156.76 Z M 140.84 156.89 L 141.83 157.02 C 142.61 157.12 143.33 156.57 143.43 155.79 C 143.53 155.01 142.98 154.30 142.20 154.19 L 141.21 154.06 C 140.43 153.96 139.71 154.51 139.61 155.29 C 139.51 156.07 140.06 156.79 140.84 156.89 Z M 141.87 157.02 L 142.86 157.13 C 143.65 157.21 144.35 156.64 144.43 155.86 C 144.51 155.07 143.94 154.37 143.16 154.29 L 142.16 154.19 C 141.38 154.11 140.68 154.68 140.60 155.46 C 140.52 156.24 141.09 156.94 141.87 157.02 Z M 142.89 157.13 L 143.85 157.21 C 144.63 157.27 145.32 156.69 145.39 155.91 C 145.45 155.12 144.87 154.43 144.09 154.37 L 143.13 154.29 C 142.34 154.22 141.66 154.81 141.59 155.59 C 141.52 156.37 142.11 157.06 142.89 157.13 Z"
      fill="black"
      fill-rule="nonzero" /><path d="M 149.41 153.71 L 148.59 154.27 C 147.88 154.75 147.70 155.72 148.18 156.43 C 148.66 157.14 149.63 157.33 150.34 156.84 L 151.16 156.28 C 151.87 155.80 152.06 154.83 151.57 154.12 C 151.09 153.41 150.12 153.23 149.41 153.71 Z M 148.50 154.28 L 147.70 154.88 C 147.00 155.41 146.85 156.42 147.39 157.12 C 147.92 157.83 148.92 157.97 149.63 157.44 L 150.43 156.83 C 151.14 156.30 151.28 155.30 150.74 154.59 C 150.21 153.89 149.21 153.75 148.50 154.28 Z M 147.58 154.95 L 146.86 155.60 C 146.19 156.20 146.13 157.22 146.73 157.89 C 147.32 158.56 148.35 158.62 149.02 158.02 L 149.75 157.37 C 150.42 156.77 150.47 155.75 149.88 155.08 C 149.28 154.41 148.25 154.35 147.58 154.95 Z M 146.78 155.67 L 146.07 156.39 C 145.45 157.03 145.45 158.06 146.09 158.69 C 146.73 159.31 147.76 159.31 148.39 158.67 L 149.10 157.95 C 149.72 157.31 149.72 156.28 149.08 155.65 C 148.44 155.02 147.41 155.03 146.78 155.67 Z M 146.04 156.43 L 145.34 157.20 C 144.73 157.85 144.77 158.88 145.43 159.48 C 146.09 160.09 147.11 160.05 147.71 159.39 L 148.42 158.62 C 149.03 157.97 148.98 156.95 148.33 156.34 C 147.67 155.73 146.65 155.78 146.04 156.43 Z M 145.33 157.22 L 144.65 157.99 C 144.05 158.65 144.11 159.66 144.77 160.25 C 145.43 160.84 146.44 160.79 147.03 160.13 L 147.72 159.36 C 148.31 158.70 148.26 157.69 147.60 157.10 C 146.94 156.51 145.92 156.56 145.33 157.22 Z M 144.64 158.01 L 144.00 158.75 C 143.42 159.41 143.49 160.42 144.15 160.99 C 144.81 161.57 145.81 161.50 146.39 160.84 L 147.04 160.10 C 147.62 159.44 147.55 158.44 146.89 157.86 C 146.23 157.28 145.22 157.35 144.64 158.01 Z M 144.00 158.77 L 143.34 159.54 C 142.77 160.20 142.85 161.20 143.51 161.76 C 144.18 162.33 145.17 162.25 145.74 161.59 L 146.39 160.82 C 146.96 160.16 146.88 159.16 146.22 158.60 C 145.56 158.03 144.56 158.11 144.00 158.77 Z M 143.36 159.54 L 142.74 160.25 C 142.17 160.91 142.24 161.90 142.89 162.46 C 143.54 163.03 144.53 162.96 145.10 162.31 L 145.72 161.59 C 146.29 160.94 146.22 159.95 145.56 159.38 C 144.91 158.82 143.92 158.89 143.36 159.54 Z M 142.75 160.25 L 142.08 161.01 C 141.51 161.65 141.58 162.64 142.22 163.21 C 142.87 163.78 143.86 163.71 144.42 163.07 L 145.09 162.31 C 145.66 161.66 145.59 160.68 144.95 160.11 C 144.30 159.54 143.31 159.60 142.75 160.25 Z M 142.06 161.03 L 141.43 161.79 C 140.87 162.44 140.96 163.43 141.62 163.98 C 142.28 164.53 143.26 164.45 143.81 163.79 L 144.44 163.04 C 145.00 162.38 144.91 161.40 144.26 160.84 C 143.60 160.29 142.62 160.38 142.06 161.03 Z M 141.43 161.79 L 140.77 162.57 C 140.22 163.23 140.31 164.21 140.96 164.76 C 141.62 165.32 142.60 165.23 143.16 164.57 L 143.81 163.79 C 144.36 163.13 144.28 162.15 143.62 161.60 C 142.96 161.04 141.98 161.13 141.43 161.79 Z M 140.80 162.54 L 140.13 163.29 C 139.57 163.94 139.63 164.92 140.27 165.49 C 140.92 166.06 141.90 166.00 142.47 165.35 L 143.13 164.60 C 143.70 163.96 143.64 162.97 142.99 162.40 C 142.35 161.84 141.37 161.90 140.80 162.54 Z M 140.16 163.26 L 139.48 164.00 C 138.90 164.63 138.93 165.61 139.56 166.19 C 140.19 166.78 141.18 166.74 141.76 166.11 L 142.44 165.38 C 143.03 164.75 142.99 163.77 142.36 163.18 C 141.73 162.60 140.75 162.63 140.16 163.26 Z M 139.51 163.97 L 138.91 164.58 C 138.31 165.20 138.33 166.18 138.95 166.78 C 139.56 167.38 140.55 167.37 141.15 166.75 L 141.74 166.14 C 142.34 165.52 142.32 164.54 141.71 163.94 C 141.09 163.34 140.10 163.35 139.51 163.97 Z M 138.92 164.57 L 138.18 165.33 C 137.57 165.94 137.58 166.92 138.19 167.53 C 138.80 168.13 139.79 168.12 140.39 167.51 L 141.14 166.76 C 141.74 166.15 141.73 165.16 141.12 164.56 C 140.51 163.95 139.53 163.96 138.92 164.57 Z M 138.17 165.33 L 137.46 166.05 C 136.86 166.66 136.87 167.65 137.48 168.25 C 138.10 168.86 139.08 168.85 139.69 168.23 L 140.40 167.51 C 141.00 166.90 140.99 165.91 140.38 165.31 C 139.76 164.71 138.78 164.71 138.17 165.33 Z M 137.46 166.05 L 136.76 166.76 C 136.16 167.38 136.17 168.36 136.78 168.97 C 137.40 169.57 138.38 169.56 138.99 168.95 L 139.69 168.23 C 140.29 167.62 140.28 166.63 139.67 166.03 C 139.05 165.43 138.07 165.44 137.46 166.05 Z M 136.77 166.76 L 136.02 167.51 C 135.42 168.12 135.42 169.11 136.03 169.71 C 136.65 170.32 137.63 170.31 138.24 169.70 L 138.98 168.95 C 139.59 168.34 139.58 167.35 138.97 166.75 C 138.36 166.14 137.37 166.15 136.77 166.76 Z M 136.03 167.50 L 135.30 168.22 C 134.69 168.83 134.69 169.82 135.30 170.43 C 135.90 171.04 136.89 171.04 137.50 170.43 L 138.23 169.71 C 138.84 169.10 138.85 168.12 138.24 167.50 C 137.63 166.89 136.64 166.89 136.03 167.50 Z M 135.32 168.21 L 134.35 169.14 C 133.74 169.74 133.72 170.73 134.32 171.35 C 134.92 171.97 135.91 171.98 136.53 171.38 L 137.49 170.45 C 138.11 169.85 138.13 168.86 137.53 168.24 C 136.93 167.62 135.94 167.60 135.32 168.21 Z M 134.32 169.17 L 133.66 169.85 C 133.06 170.47 133.08 171.46 133.70 172.06 C 134.32 172.66 135.32 172.65 135.92 172.02 L 136.57 171.35 C 137.17 170.72 137.15 169.73 136.53 169.13 C 135.91 168.53 134.92 168.55 134.32 169.17 Z M 133.23 170.75 L 133.19 171.05 C 133.09 171.92 133.71 172.70 134.57 172.80 C 135.43 172.90 136.21 172.28 136.31 171.42 L 136.35 171.12 C 136.45 170.26 135.83 169.48 134.97 169.38 C 134.11 169.28 133.33 169.89 133.23 170.75 Z M 135.15 172.76 L 136.19 172.49 C 137.03 172.27 137.54 171.41 137.32 170.57 C 137.10 169.73 136.24 169.23 135.40 169.44 L 134.36 169.72 C 133.52 169.93 133.01 170.79 133.23 171.63 C 133.45 172.47 134.31 172.98 135.15 172.76 Z M 136.29 172.46 L 137.36 172.11 C 138.18 171.84 138.63 170.95 138.36 170.12 C 138.08 169.30 137.19 168.85 136.37 169.12 L 135.30 169.47 C 134.48 169.74 134.03 170.63 134.30 171.46 C 134.58 172.28 135.47 172.73 136.29 172.46 Z M 137.36 172.11 L 138.35 171.78 C 139.18 171.50 139.62 170.61 139.35 169.79 C 139.08 168.97 138.19 168.52 137.37 168.79 L 136.37 169.12 C 135.54 169.40 135.10 170.28 135.37 171.11 C 135.64 171.93 136.53 172.38 137.36 172.11 Z M 138.36 171.77 L 139.32 171.45 C 140.14 171.18 140.58 170.29 140.31 169.47 C 140.04 168.65 139.15 168.20 138.33 168.47 L 137.36 168.79 C 136.54 169.07 136.10 169.96 136.37 170.78 C 136.64 171.60 137.53 172.05 138.36 171.77 Z M 139.32 171.44 L 140.36 171.09 C 141.18 170.81 141.62 169.93 141.34 169.11 C 141.06 168.29 140.18 167.86 139.36 168.13 L 138.32 168.49 C 137.50 168.76 137.07 169.65 137.34 170.47 C 137.62 171.28 138.51 171.72 139.32 171.44 Z M 140.38 171.06 L 141.27 170.75 C 142.07 170.46 142.49 169.58 142.20 168.77 C 141.91 167.97 141.03 167.55 140.23 167.84 L 139.34 168.16 C 138.54 168.45 138.12 169.33 138.41 170.13 C 138.70 170.93 139.58 171.35 140.38 171.06 Z M 141.30 170.71 L 142.08 170.41 C 142.87 170.11 143.26 169.22 142.96 168.44 C 142.65 167.65 141.77 167.26 140.99 167.57 L 140.20 167.87 C 139.41 168.18 139.02 169.06 139.33 169.84 C 139.63 170.63 140.51 171.02 141.30 170.71 Z M 142.11 170.39 L 143.05 170.01 C 143.83 169.69 144.20 168.80 143.88 168.03 C 143.56 167.26 142.68 166.89 141.91 167.20 L 140.96 167.59 C 140.19 167.90 139.82 168.79 140.13 169.56 C 140.45 170.34 141.33 170.71 142.11 170.39 Z M 143.06 170.00 L 143.95 169.62 C 144.72 169.30 145.08 168.42 144.76 167.65 C 144.44 166.88 143.56 166.52 142.79 166.84 L 141.90 167.21 C 141.13 167.53 140.77 168.42 141.09 169.19 C 141.41 169.95 142.29 170.32 143.06 170.00 Z M 143.96 169.61 L 144.88 169.22 C 145.64 168.89 146.00 168.01 145.67 167.25 C 145.35 166.48 144.46 166.13 143.70 166.46 L 142.78 166.85 C 142.01 167.18 141.66 168.06 141.99 168.82 C 142.31 169.59 143.20 169.94 143.96 169.61 Z M 144.90 169.21 L 145.88 168.77 C 146.64 168.44 146.98 167.55 146.65 166.80 C 146.31 166.04 145.43 165.70 144.67 166.03 L 143.68 166.47 C 142.93 166.80 142.58 167.69 142.92 168.44 C 143.25 169.20 144.14 169.54 144.90 169.21 Z M 145.91 168.75 L 146.83 168.32 C 147.58 167.98 147.90 167.09 147.56 166.34 C 147.21 165.60 146.33 165.27 145.58 165.62 L 144.65 166.05 C 143.90 166.40 143.58 167.28 143.93 168.03 C 144.27 168.78 145.16 169.10 145.91 168.75 Z M 146.86 168.30 L 147.76 167.86 C 148.50 167.50 148.80 166.61 148.44 165.88 C 148.08 165.14 147.20 164.84 146.46 165.20 L 145.56 165.64 C 144.82 166.00 144.52 166.89 144.88 167.62 C 145.23 168.36 146.12 168.66 146.86 168.30 Z M 147.79 167.83 L 148.66 167.38 C 149.38 167.01 149.66 166.12 149.29 165.40 C 148.92 164.68 148.03 164.40 147.31 164.77 L 146.44 165.22 C 145.72 165.60 145.43 166.48 145.81 167.20 C 146.18 167.92 147.07 168.21 147.79 167.83 Z M 148.69 167.35 L 149.59 166.85 C 150.30 166.46 150.55 165.57 150.16 164.87 C 149.77 164.16 148.88 163.91 148.18 164.30 L 147.27 164.80 C 146.57 165.19 146.32 166.08 146.71 166.79 C 147.10 167.49 147.99 167.74 148.69 167.35 Z M 149.63 166.82 L 150.49 166.30 C 151.17 165.89 151.39 165.00 150.98 164.31 C 150.57 163.63 149.68 163.41 148.99 163.82 L 148.14 164.33 C 147.45 164.75 147.23 165.64 147.64 166.32 C 148.06 167.01 148.95 167.23 149.63 166.82 Z M 150.53 166.26 L 151.34 165.73 C 152.00 165.30 152.19 164.41 151.75 163.74 C 151.32 163.08 150.42 162.89 149.76 163.33 L 148.95 163.86 C 148.29 164.30 148.10 165.19 148.54 165.85 C 148.97 166.52 149.86 166.70 150.53 166.26 Z M 151.38 165.70 L 152.20 165.11 C 152.85 164.65 153.00 163.76 152.54 163.11 C 152.08 162.47 151.18 162.32 150.54 162.78 L 149.72 163.36 C 149.07 163.82 148.92 164.72 149.38 165.36 C 149.84 166.01 150.74 166.16 151.38 165.70 Z M 152.23 165.09 L 153.02 164.49 C 153.65 164.02 153.78 163.12 153.31 162.49 C 152.83 161.86 151.93 161.73 151.30 162.21 L 150.51 162.80 C 149.88 163.28 149.75 164.17 150.23 164.80 C 150.70 165.43 151.60 165.56 152.23 165.09 Z M 153.03 164.48 L 153.33 164.25 C 153.96 163.77 154.08 162.88 153.60 162.25 C 153.12 161.62 152.22 161.51 151.60 161.98 L 151.30 162.21 C 150.67 162.69 150.55 163.59 151.03 164.21 C 151.51 164.84 152.40 164.96 153.03 164.48 Z"
      fill="black"
      fill-rule="nonzero" /><path d="M 148.19 132.29 L 149.28 132.29 C 150.12 132.29 150.81 131.61 150.81 130.76 C 150.81 129.92 150.12 129.23 149.28 129.23 L 148.19 129.23 C 147.34 129.23 146.66 129.92 146.66 130.76 C 146.66 131.61 147.34 132.29 148.19 132.29 Z M 149.28 132.30 L 150.32 132.30 C 151.17 132.30 151.86 131.61 151.86 130.76 C 151.86 129.91 151.17 129.22 150.32 129.22 L 149.28 129.22 C 148.43 129.22 147.74 129.91 147.74 130.76 C 147.74 131.61 148.43 132.30 149.28 132.30 Z M 150.32 132.32 L 151.25 132.32 C 152.11 132.32 152.80 131.62 152.80 130.76 C 152.80 129.90 152.11 129.20 151.25 129.20 L 150.32 129.20 C 149.46 129.20 148.76 129.90 148.76 130.76 C 148.76 131.62 149.46 132.32 150.32 132.32 Z M 151.25 132.33 L 152.30 132.33 C 153.17 132.33 153.87 131.63 153.87 130.76 C 153.87 129.90 153.17 129.19 152.30 129.19 L 151.25 129.19 C 150.38 129.19 149.68 129.90 149.68 130.76 C 149.68 131.63 150.38 132.33 151.25 132.33 Z M 152.30 132.33 L 153.24 132.33 C 154.10 132.33 154.81 131.63 154.81 130.76 C 154.81 129.89 154.10 129.19 153.24 129.19 L 152.30 129.19 C 151.43 129.19 150.73 129.89 150.73 130.76 C 150.73 131.63 151.43 132.33 152.30 132.33 Z M 153.24 132.33 L 154.16 132.33 C 155.02 132.33 155.73 131.62 155.72 130.76 C 155.72 129.89 155.02 129.19 154.15 129.19 L 153.23 129.19 C 152.37 129.19 151.66 129.90 151.67 130.77 C 151.67 131.63 152.37 132.33 153.24 132.33 Z M 154.20 132.32 L 155.22 132.29 C 156.08 132.26 156.76 131.54 156.73 130.68 C 156.70 129.81 155.98 129.13 155.11 129.16 L 154.10 129.19 C 153.24 129.22 152.56 129.95 152.59 130.81 C 152.62 131.68 153.34 132.35 154.20 132.32 Z M 155.31 132.28 L 156.30 132.19 C 157.16 132.11 157.79 131.35 157.71 130.49 C 157.63 129.63 156.87 129.00 156.02 129.08 L 155.02 129.17 C 154.16 129.25 153.53 130.01 153.61 130.87 C 153.69 131.73 154.45 132.36 155.31 132.28 Z M 156.37 132.17 L 157.38 132.03 C 158.22 131.91 158.82 131.13 158.70 130.28 C 158.58 129.43 157.80 128.84 156.95 128.96 L 155.95 129.10 C 155.10 129.22 154.51 130.00 154.63 130.85 C 154.74 131.70 155.53 132.29 156.37 132.17 Z M 157.42 132.01 L 158.42 131.85 C 159.26 131.71 159.82 130.91 159.68 130.07 C 159.54 129.23 158.75 128.67 157.91 128.81 L 156.91 128.98 C 156.07 129.12 155.50 129.91 155.64 130.75 C 155.78 131.59 156.58 132.15 157.42 132.01 Z M 158.45 131.83 L 159.43 131.65 C 160.26 131.49 160.80 130.69 160.65 129.86 C 160.49 129.03 159.70 128.49 158.87 128.64 L 157.89 128.82 C 157.06 128.98 156.51 129.78 156.66 130.61 C 156.82 131.44 157.62 131.98 158.45 131.83 Z M 159.45 131.63 L 160.43 131.43 C 161.25 131.26 161.78 130.45 161.61 129.63 C 161.44 128.81 160.64 128.29 159.82 128.46 L 158.84 128.66 C 158.02 128.83 157.49 129.63 157.66 130.45 C 157.83 131.27 158.63 131.80 159.45 131.63 Z M 160.46 131.41 L 161.44 131.19 C 162.25 131.00 162.75 130.20 162.57 129.39 C 162.39 128.58 161.58 128.07 160.77 128.25 L 159.79 128.47 C 158.98 128.66 158.48 129.46 158.66 130.27 C 158.84 131.08 159.65 131.59 160.46 131.41 Z M 161.46 131.17 L 162.43 130.93 C 163.23 130.73 163.72 129.92 163.52 129.12 C 163.32 128.32 162.52 127.83 161.72 128.03 L 160.75 128.27 C 159.95 128.47 159.46 129.28 159.66 130.08 C 159.85 130.88 160.66 131.37 161.46 131.17 Z M 162.46 130.91 L 163.43 130.65 C 164.22 130.44 164.69 129.63 164.48 128.84 C 164.26 128.05 163.45 127.58 162.66 127.79 L 161.69 128.05 C 160.90 128.26 160.43 129.07 160.64 129.86 C 160.85 130.65 161.67 131.12 162.46 130.91 Z M 163.45 130.64 L 164.41 130.36 C 165.19 130.14 165.64 129.32 165.42 128.54 C 165.20 127.76 164.38 127.31 163.60 127.53 L 162.64 127.80 C 161.86 128.03 161.40 128.84 161.63 129.62 C 161.85 130.41 162.67 130.86 163.45 130.64 Z M 164.43 130.35 L 165.39 130.06 C 166.16 129.82 166.60 129.01 166.37 128.23 C 166.13 127.46 165.32 127.02 164.54 127.25 L 163.58 127.54 C 162.81 127.78 162.37 128.59 162.60 129.37 C 162.84 130.14 163.65 130.58 164.43 130.35 Z M 165.41 130.04 L 166.36 129.74 C 167.12 129.50 167.55 128.68 167.30 127.91 C 167.06 127.15 166.24 126.73 165.48 126.97 L 164.53 127.27 C 163.76 127.51 163.34 128.33 163.58 129.10 C 163.82 129.86 164.64 130.29 165.41 130.04 Z M 166.37 129.73 L 167.31 129.42 C 168.07 129.17 168.48 128.35 168.23 127.59 C 167.98 126.83 167.16 126.42 166.40 126.67 L 165.46 126.98 C 164.71 127.23 164.29 128.05 164.54 128.81 C 164.79 129.57 165.61 129.98 166.37 129.73 Z M 167.33 129.40 L 168.26 129.08 C 169.01 128.82 169.41 128.00 169.15 127.25 C 168.88 126.50 168.06 126.10 167.31 126.36 L 166.39 126.69 C 165.64 126.95 165.24 127.77 165.50 128.52 C 165.76 129.27 166.58 129.66 167.33 129.40 Z M 168.36 129.03 L 169.28 128.63 C 170.00 128.31 170.33 127.47 170.02 126.74 C 169.70 126.02 168.86 125.69 168.13 126.01 L 167.21 126.41 C 166.49 126.73 166.16 127.57 166.48 128.29 C 166.79 129.02 167.64 129.35 168.36 129.03 Z M 169.41 128.56 L 170.27 128.07 C 170.96 127.68 171.20 126.81 170.81 126.12 C 170.42 125.44 169.55 125.20 168.86 125.59 L 168.00 126.08 C 167.31 126.47 167.08 127.34 167.47 128.02 C 167.85 128.71 168.73 128.95 169.41 128.56 Z M 170.32 128.04 L 170.89 127.69 C 171.55 127.27 171.76 126.39 171.34 125.72 C 170.93 125.05 170.05 124.85 169.38 125.27 L 168.82 125.62 C 168.15 126.03 167.94 126.91 168.36 127.58 C 168.77 128.25 169.65 128.45 170.32 128.04 Z"
      fill="black"
      fill-rule="nonzero" /><path d="M 152.47 121.20 L 152.43 122.20 C 152.40 123.03 153.05 123.73 153.89 123.76 C 154.72 123.80 155.42 123.14 155.45 122.31 L 155.49 121.31 C 155.52 120.48 154.87 119.77 154.03 119.74 C 153.20 119.71 152.50 120.36 152.47 121.20 Z M 152.37 122.45 L 152.49 123.44 C 152.60 124.31 153.39 124.92 154.26 124.81 C 155.13 124.71 155.75 123.92 155.64 123.05 L 155.52 122.06 C 155.41 121.19 154.62 120.57 153.75 120.68 C 152.88 120.79 152.26 121.58 152.37 122.45 Z M 152.55 123.83 L 152.92 124.77 C 153.24 125.61 154.18 126.02 155.02 125.70 C 155.85 125.37 156.27 124.43 155.94 123.60 L 155.58 122.66 C 155.25 121.82 154.31 121.41 153.48 121.73 C 152.64 122.05 152.23 122.99 152.55 123.83 Z M 153.00 124.94 L 153.46 125.81 C 153.88 126.60 154.86 126.91 155.65 126.49 C 156.44 126.07 156.74 125.09 156.32 124.30 L 155.86 123.43 C 155.44 122.64 154.46 122.33 153.67 122.75 C 152.88 123.17 152.58 124.15 153.00 124.94 Z M 153.45 125.80 L 153.91 126.70 C 154.33 127.50 155.30 127.81 156.10 127.40 C 156.90 126.99 157.21 126.01 156.80 125.22 L 156.33 124.31 C 155.92 123.52 154.94 123.20 154.15 123.61 C 153.35 124.02 153.04 125.00 153.45 125.80 Z M 153.90 126.68 L 154.34 127.55 C 154.74 128.35 155.71 128.68 156.52 128.28 C 157.32 127.88 157.64 126.90 157.24 126.10 L 156.81 125.23 C 156.41 124.43 155.43 124.10 154.63 124.51 C 153.83 124.91 153.50 125.88 153.90 126.68 Z M 154.34 127.56 L 154.79 128.45 C 155.19 129.25 156.17 129.57 156.97 129.16 C 157.77 128.76 158.09 127.78 157.69 126.98 L 157.24 126.09 C 156.83 125.29 155.86 124.97 155.06 125.37 C 154.26 125.78 153.93 126.76 154.34 127.56 Z M 154.78 128.42 L 155.21 129.33 C 155.60 130.14 156.57 130.47 157.38 130.09 C 158.19 129.70 158.53 128.72 158.14 127.92 L 157.70 127.01 C 157.31 126.20 156.34 125.86 155.53 126.25 C 154.73 126.64 154.39 127.61 154.78 128.42 Z M 155.20 129.30 L 155.62 130.20 C 155.99 131.02 156.95 131.38 157.77 131.01 C 158.58 130.63 158.94 129.67 158.57 128.85 L 158.15 127.95 C 157.78 127.13 156.82 126.77 156.00 127.15 C 155.19 127.52 154.83 128.48 155.20 129.30 Z M 155.62 130.21 L 156.04 131.12 C 156.41 131.93 157.38 132.28 158.19 131.91 C 159.00 131.53 159.36 130.57 158.98 129.76 L 158.56 128.85 C 158.19 128.04 157.23 127.68 156.41 128.06 C 155.60 128.43 155.25 129.40 155.62 130.21 Z M 156.05 131.12 L 156.47 132.03 C 156.84 132.83 157.81 133.18 158.61 132.81 C 159.42 132.43 159.77 131.47 159.40 130.66 L 158.97 129.75 C 158.60 128.95 157.64 128.60 156.83 128.97 C 156.02 129.35 155.67 130.31 156.05 131.12 Z M 156.46 132.00 L 156.88 132.92 C 157.24 133.73 158.20 134.09 159.01 133.73 C 159.82 133.36 160.18 132.41 159.81 131.60 L 159.40 130.68 C 159.03 129.87 158.08 129.51 157.27 129.88 C 156.46 130.24 156.10 131.19 156.46 132.00 Z M 156.87 132.89 L 157.26 133.80 C 157.61 134.62 158.55 135.00 159.37 134.65 C 160.18 134.30 160.56 133.36 160.21 132.54 L 159.82 131.63 C 159.47 130.82 158.53 130.44 157.72 130.79 C 156.90 131.13 156.52 132.08 156.87 132.89 Z M 157.26 133.78 L 157.65 134.71 C 157.98 135.53 158.91 135.92 159.73 135.58 C 160.54 135.25 160.93 134.32 160.60 133.51 L 160.21 132.57 C 159.88 131.76 158.95 131.37 158.13 131.70 C 157.32 132.03 156.93 132.96 157.26 133.78 Z M 157.65 134.70 L 158.02 135.62 C 158.34 136.44 159.26 136.84 160.08 136.51 C 160.89 136.19 161.29 135.27 160.96 134.45 L 160.59 133.53 C 160.27 132.71 159.35 132.32 158.54 132.64 C 157.72 132.96 157.33 133.88 157.65 134.70 Z M 158.02 135.61 L 158.39 136.54 C 158.70 137.36 159.61 137.76 160.42 137.44 C 161.24 137.13 161.64 136.21 161.32 135.40 L 160.96 134.47 C 160.64 133.66 159.73 133.26 158.92 133.57 C 158.11 133.89 157.71 134.80 158.02 135.61 Z M 158.39 136.53 L 158.75 137.47 C 159.06 138.27 159.96 138.68 160.77 138.37 C 161.58 138.06 161.98 137.15 161.67 136.34 L 161.32 135.41 C 161.01 134.61 160.10 134.20 159.29 134.51 C 158.49 134.82 158.08 135.73 158.39 136.53 Z M 158.76 137.46 L 159.11 138.39 C 159.42 139.19 160.32 139.60 161.12 139.29 C 161.92 138.99 162.33 138.09 162.02 137.28 L 161.66 136.35 C 161.36 135.55 160.46 135.14 159.66 135.45 C 158.85 135.76 158.45 136.65 158.76 137.46 Z M 159.12 138.38 L 159.48 139.34 C 159.79 140.14 160.68 140.54 161.48 140.24 C 162.27 139.93 162.67 139.04 162.37 138.24 L 162.01 137.29 C 161.71 136.49 160.82 136.09 160.02 136.39 C 159.22 136.69 158.82 137.59 159.12 138.38 Z M 159.49 139.33 L 159.85 140.28 C 160.15 141.07 161.03 141.47 161.83 141.18 C 162.62 140.88 163.02 139.99 162.72 139.20 L 162.36 138.25 C 162.06 137.46 161.18 137.06 160.39 137.36 C 159.60 137.66 159.20 138.54 159.49 139.33 Z M 159.86 140.27 L 160.20 141.18 C 160.49 141.96 161.37 142.36 162.15 142.07 C 162.94 141.78 163.34 140.90 163.05 140.12 L 162.71 139.21 C 162.42 138.42 161.54 138.02 160.76 138.32 C 159.97 138.61 159.57 139.49 159.86 140.27 Z M 160.21 141.17 L 160.54 142.07 C 160.83 142.85 161.70 143.25 162.48 142.97 C 163.26 142.68 163.66 141.81 163.37 141.03 L 163.04 140.12 C 162.75 139.34 161.88 138.94 161.10 139.23 C 160.32 139.52 159.92 140.39 160.21 141.17 Z M 160.56 142.08 L 160.92 143.03 C 161.21 143.81 162.07 144.20 162.84 143.91 C 163.62 143.62 164.01 142.75 163.72 141.98 L 163.36 141.03 C 163.07 140.25 162.20 139.86 161.43 140.15 C 160.66 140.44 160.27 141.31 160.56 142.08 Z M 160.93 143.04 L 161.29 143.97 C 161.59 144.74 162.45 145.12 163.21 144.83 C 163.98 144.53 164.36 143.67 164.06 142.90 L 163.70 141.97 C 163.41 141.20 162.55 140.82 161.78 141.12 C 161.01 141.42 160.63 142.28 160.93 143.04 Z M 161.30 143.99 L 161.68 144.94 C 161.99 145.70 162.85 146.07 163.61 145.76 C 164.37 145.46 164.74 144.60 164.43 143.84 L 164.05 142.89 C 163.75 142.13 162.89 141.76 162.13 142.06 C 161.37 142.37 161.00 143.23 161.30 143.99 Z M 161.71 144.97 L 162.13 145.95 C 162.45 146.70 163.31 147.05 164.06 146.73 C 164.81 146.41 165.15 145.54 164.83 144.79 L 164.41 143.81 C 164.09 143.06 163.23 142.72 162.48 143.04 C 161.73 143.36 161.39 144.22 161.71 144.97 Z M 162.19 146.05 L 162.64 146.91 C 163.01 147.63 163.90 147.90 164.61 147.53 C 165.33 147.15 165.60 146.27 165.22 145.55 L 164.77 144.69 C 164.40 143.98 163.51 143.70 162.80 144.08 C 162.09 144.45 161.81 145.34 162.19 146.05 Z M 162.80 147.13 L 163.40 147.89 C 163.89 148.51 164.80 148.62 165.43 148.12 C 166.06 147.62 166.16 146.71 165.66 146.09 L 165.07 145.33 C 164.57 144.71 163.66 144.60 163.03 145.10 C 162.40 145.60 162.30 146.51 162.80 147.13 Z M 163.59 148.07 L 164.34 148.72 C 164.94 149.24 165.84 149.17 166.36 148.57 C 166.88 147.97 166.82 147.07 166.22 146.55 L 165.47 145.90 C 164.87 145.38 163.96 145.45 163.44 146.05 C 162.92 146.65 162.99 147.55 163.59 148.07 Z M 164.39 148.76 L 164.51 148.85 C 165.12 149.33 166.02 149.23 166.51 148.61 C 167.00 147.99 166.89 147.09 166.27 146.60 L 166.16 146.51 C 165.54 146.02 164.64 146.13 164.15 146.75 C 163.67 147.37 163.77 148.27 164.39 148.76 Z"
      fill="black"
      fill-rule="nonzero" /><path d="M 161.17 116.53 L 161.02 117.50 C 160.88 118.34 161.45 119.13 162.29 119.26 C 163.13 119.40 163.91 118.82 164.05 117.99 L 164.20 117.01 C 164.34 116.18 163.77 115.39 162.93 115.26 C 162.09 115.12 161.30 115.69 161.17 116.53 Z M 160.99 117.61 L 160.91 118.58 C 160.83 119.43 161.46 120.18 162.31 120.26 C 163.16 120.33 163.91 119.70 163.99 118.85 L 164.07 117.88 C 164.15 117.03 163.52 116.28 162.67 116.20 C 161.82 116.13 161.07 116.76 160.99 117.61 Z M 160.90 118.78 L 160.94 119.77 C 160.97 120.63 161.69 121.29 162.55 121.26 C 163.40 121.22 164.07 120.50 164.03 119.65 L 163.99 118.66 C 163.96 117.80 163.24 117.14 162.38 117.17 C 161.53 117.20 160.86 117.93 160.90 118.78 Z M 160.97 120.00 L 161.17 121.00 C 161.33 121.83 162.14 122.38 162.97 122.22 C 163.81 122.05 164.35 121.25 164.19 120.41 L 164.00 119.42 C 163.84 118.58 163.03 118.04 162.19 118.20 C 161.36 118.36 160.81 119.17 160.97 120.00 Z M 161.22 121.15 L 161.52 122.12 C 161.77 122.92 162.62 123.37 163.42 123.12 C 164.22 122.88 164.67 122.03 164.43 121.23 L 164.13 120.26 C 163.89 119.46 163.04 119.00 162.23 119.25 C 161.43 119.50 160.98 120.35 161.22 121.15 Z M 161.58 122.20 L 161.94 123.15 C 162.23 123.93 163.09 124.32 163.86 124.02 C 164.64 123.73 165.03 122.87 164.73 122.09 L 164.37 121.14 C 164.08 120.37 163.22 119.98 162.44 120.27 C 161.67 120.56 161.28 121.43 161.58 122.20 Z M 161.98 123.21 L 162.38 124.12 C 162.70 124.86 163.56 125.20 164.31 124.88 C 165.06 124.56 165.40 123.69 165.08 122.95 L 164.69 122.04 C 164.36 121.30 163.50 120.95 162.75 121.27 C 162.01 121.60 161.66 122.46 161.98 123.21 Z M 162.42 124.14 L 162.84 125.05 C 163.17 125.78 164.03 126.09 164.76 125.76 C 165.48 125.42 165.80 124.56 165.46 123.84 L 165.04 122.93 C 164.70 122.20 163.84 121.89 163.12 122.22 C 162.40 122.56 162.08 123.41 162.42 124.14 Z M 162.85 125.05 L 163.27 125.94 C 163.60 126.65 164.45 126.96 165.17 126.62 C 165.88 126.29 166.19 125.44 165.86 124.72 L 165.45 123.84 C 165.11 123.13 164.26 122.82 163.54 123.15 C 162.83 123.49 162.52 124.34 162.85 125.05 Z M 163.27 125.93 L 163.70 126.85 C 164.03 127.56 164.88 127.87 165.60 127.54 C 166.31 127.20 166.62 126.35 166.28 125.64 L 165.86 124.72 C 165.52 124.01 164.67 123.70 163.96 124.04 C 163.24 124.37 162.94 125.22 163.27 125.93 Z M 163.70 126.85 L 163.96 127.41 C 164.30 128.12 165.14 128.43 165.86 128.09 C 166.57 127.76 166.88 126.91 166.54 126.20 L 166.28 125.64 C 165.95 124.93 165.10 124.62 164.39 124.95 C 163.67 125.29 163.37 126.14 163.70 126.85 Z"
      fill="black"
      fill-rule="nonzero" /><path d="M 169.04 132.32 L 168.30 133.06 C 167.69 133.66 167.69 134.64 168.29 135.24 C 168.89 135.84 169.87 135.85 170.47 135.24 L 171.22 134.50 C 171.82 133.90 171.83 132.92 171.22 132.32 C 170.62 131.72 169.65 131.72 169.04 132.32 Z M 168.28 133.04 L 167.55 133.75 C 166.94 134.37 166.93 135.36 167.55 135.98 C 168.16 136.60 169.15 136.60 169.77 135.99 L 170.49 135.27 C 171.11 134.66 171.11 133.66 170.50 133.04 C 169.89 132.43 168.89 132.42 168.28 133.04 Z M 167.53 133.73 L 166.86 134.40 C 166.23 135.02 166.22 136.04 166.84 136.67 C 167.47 137.30 168.48 137.31 169.11 136.68 L 169.79 136.01 C 170.42 135.39 170.43 134.37 169.80 133.74 C 169.18 133.11 168.16 133.11 167.53 133.73 Z M 166.85 134.38 L 166.13 135.08 C 165.49 135.71 165.48 136.74 166.10 137.38 C 166.73 138.02 167.76 138.03 168.40 137.41 L 169.12 136.70 C 169.76 136.07 169.77 135.05 169.14 134.40 C 168.52 133.76 167.49 133.75 166.85 134.38 Z M 166.13 135.08 L 165.43 135.77 C 164.79 136.40 164.78 137.43 165.41 138.07 C 166.04 138.71 167.07 138.72 167.71 138.09 L 168.40 137.40 C 169.05 136.78 169.05 135.75 168.43 135.11 C 167.80 134.46 166.77 134.46 166.13 135.08 Z M 165.42 135.78 L 164.72 136.49 C 164.09 137.12 164.09 138.15 164.73 138.78 C 165.37 139.41 166.39 139.41 167.03 138.77 L 167.72 138.07 C 168.35 137.43 168.35 136.41 167.71 135.78 C 167.08 135.14 166.05 135.15 165.42 135.78 Z M 164.70 136.51 L 164.00 137.24 C 163.38 137.88 163.40 138.91 164.05 139.53 C 164.69 140.15 165.72 140.13 166.34 139.48 L 167.04 138.75 C 167.66 138.11 167.64 137.08 166.99 136.46 C 166.35 135.84 165.32 135.86 164.70 136.51 Z M 164.00 137.25 L 163.30 137.99 C 162.69 138.64 162.72 139.66 163.37 140.27 C 164.01 140.89 165.04 140.86 165.65 140.21 L 166.35 139.47 C 166.96 138.82 166.93 137.80 166.28 137.19 C 165.63 136.57 164.61 136.60 164.00 137.25 Z M 163.30 138.00 L 162.61 138.73 C 162.00 139.38 162.03 140.40 162.68 141.01 C 163.32 141.62 164.34 141.59 164.95 140.94 L 165.64 140.20 C 166.25 139.56 166.22 138.54 165.58 137.93 C 164.93 137.32 163.91 137.35 163.30 138.00 Z M 162.62 138.74 L 161.93 139.47 C 161.32 140.11 161.35 141.12 161.99 141.73 C 162.63 142.34 163.64 142.31 164.25 141.67 L 164.94 140.94 C 165.55 140.29 165.52 139.28 164.88 138.67 C 164.24 138.07 163.22 138.10 162.62 138.74 Z M 161.93 139.48 L 161.28 140.17 C 160.68 140.81 160.71 141.82 161.35 142.42 C 161.99 143.02 162.99 142.99 163.60 142.35 L 164.25 141.66 C 164.85 141.02 164.82 140.01 164.18 139.41 C 163.54 138.81 162.53 138.84 161.93 139.48 Z M 161.28 140.18 L 160.61 140.90 C 160.01 141.54 160.05 142.54 160.69 143.14 C 161.33 143.73 162.33 143.70 162.93 143.06 L 163.60 142.34 C 164.19 141.70 164.16 140.70 163.52 140.10 C 162.88 139.51 161.88 139.54 161.28 140.18 Z M 160.61 140.90 L 159.92 141.64 C 159.32 142.28 159.35 143.28 159.99 143.88 C 160.63 144.48 161.63 144.44 162.23 143.80 L 162.92 143.06 C 163.52 142.42 163.49 141.42 162.85 140.82 C 162.21 140.22 161.21 140.26 160.61 140.90 Z M 159.92 141.64 L 159.25 142.35 C 158.65 142.99 158.67 143.99 159.31 144.59 C 159.94 145.19 160.95 145.16 161.55 144.53 L 162.22 143.81 C 162.82 143.18 162.79 142.17 162.16 141.57 C 161.52 140.97 160.52 141.00 159.92 141.64 Z M 159.25 142.35 L 158.56 143.07 C 157.95 143.71 157.98 144.71 158.61 145.31 C 159.24 145.91 160.24 145.89 160.84 145.26 L 161.54 144.53 C 162.14 143.90 162.12 142.90 161.49 142.29 C 160.86 141.69 159.86 141.71 159.25 142.35 Z M 158.56 143.07 L 157.86 143.80 C 157.25 144.43 157.27 145.43 157.90 146.04 C 158.53 146.64 159.53 146.63 160.13 146.00 L 160.84 145.26 C 161.44 144.63 161.43 143.63 160.80 143.03 C 160.17 142.42 159.17 142.44 158.56 143.07 Z M 157.86 143.80 L 157.16 144.53 C 156.55 145.16 156.57 146.16 157.20 146.76 C 157.82 147.37 158.82 147.35 159.43 146.72 L 160.13 146.00 C 160.73 145.37 160.72 144.37 160.09 143.77 C 159.47 143.16 158.47 143.18 157.86 143.80 Z M 157.17 144.53 L 156.48 145.24 C 155.87 145.86 155.88 146.86 156.51 147.46 C 157.13 148.07 158.12 148.05 158.73 147.43 L 159.42 146.72 C 160.02 146.10 160.01 145.11 159.39 144.50 C 158.77 143.90 157.77 143.91 157.17 144.53 Z M 156.48 145.24 L 155.76 145.97 C 155.16 146.59 155.17 147.58 155.79 148.19 C 156.41 148.79 157.40 148.78 158.00 148.17 L 158.72 147.43 C 159.33 146.81 159.32 145.82 158.70 145.21 C 158.08 144.61 157.09 144.62 156.48 145.24 Z M 155.76 145.98 L 155.08 146.68 C 154.48 147.30 154.50 148.29 155.12 148.89 C 155.74 149.49 156.73 149.48 157.33 148.86 L 158.01 148.16 C 158.61 147.54 158.59 146.55 157.97 145.95 C 157.35 145.35 156.36 145.36 155.76 145.98 Z M 155.07 146.70 L 154.38 147.43 C 153.79 148.06 153.82 149.04 154.44 149.64 C 155.07 150.23 156.05 150.20 156.64 149.57 L 157.34 148.84 C 157.93 148.21 157.90 147.23 157.28 146.64 C 156.65 146.05 155.66 146.07 155.07 146.70 Z M 154.38 147.44 L 153.70 148.16 C 153.12 148.79 153.15 149.77 153.77 150.35 C 154.40 150.94 155.38 150.91 155.96 150.29 L 156.64 149.57 C 157.23 148.94 157.20 147.96 156.57 147.37 C 155.95 146.79 154.97 146.82 154.38 147.44 Z M 153.72 148.15 L 153.07 148.83 C 152.48 149.44 152.50 150.42 153.11 151.01 C 153.72 151.60 154.70 151.59 155.29 150.97 L 155.94 150.30 C 156.54 149.68 156.52 148.71 155.91 148.11 C 155.29 147.52 154.31 147.54 153.72 148.15 Z M 153.08 148.82 L 152.37 149.55 C 151.78 150.16 151.79 151.14 152.40 151.73 C 153.01 152.32 153.98 152.31 154.57 151.70 L 155.28 150.97 C 155.88 150.36 155.87 149.39 155.26 148.80 C 154.65 148.20 153.67 148.22 153.08 148.82 Z M 152.36 149.56 L 151.68 150.27 C 151.10 150.89 151.12 151.86 151.73 152.45 C 152.34 153.03 153.32 153.01 153.90 152.40 L 154.58 151.69 C 155.17 151.08 155.15 150.10 154.53 149.52 C 153.92 148.93 152.95 148.95 152.36 149.56 Z M 151.67 150.29 L 150.98 151.03 C 150.41 151.65 150.44 152.62 151.07 153.20 C 151.69 153.78 152.66 153.74 153.24 153.12 L 153.92 152.38 C 154.50 151.76 154.46 150.79 153.84 150.21 C 153.22 149.63 152.24 149.67 151.67 150.29 Z M 150.96 151.06 L 150.27 151.84 C 149.70 152.48 149.76 153.45 150.40 154.01 C 151.03 154.57 152.01 154.51 152.57 153.88 L 153.26 153.09 C 153.82 152.46 153.76 151.48 153.13 150.92 C 152.49 150.36 151.52 150.42 150.96 151.06 Z M 150.22 151.90 L 149.43 152.88 C 148.90 153.54 149.01 154.51 149.67 155.04 C 150.34 155.57 151.30 155.46 151.83 154.80 L 152.62 153.82 C 153.15 153.15 153.04 152.19 152.38 151.66 C 151.71 151.13 150.75 151.23 150.22 151.90 Z M 149.26 153.15 L 148.88 153.91 C 148.49 154.67 148.80 155.59 149.56 155.97 C 150.31 156.36 151.24 156.05 151.62 155.29 L 152.01 154.53 C 152.39 153.77 152.08 152.85 151.33 152.47 C 150.57 152.08 149.64 152.39 149.26 153.15 Z M 149.45 155.93 L 149.92 156.21 C 150.65 156.65 151.61 156.41 152.05 155.68 C 152.49 154.94 152.25 153.99 151.51 153.55 L 151.05 153.27 C 150.31 152.83 149.36 153.07 148.92 153.80 C 148.48 154.54 148.72 155.49 149.45 155.93 Z M 150.98 156.44 L 152.13 156.25 C 152.99 156.10 153.57 155.29 153.43 154.42 C 153.28 153.56 152.46 152.97 151.60 153.12 L 150.45 153.31 C 149.58 153.46 149.00 154.28 149.15 155.14 C 149.29 156.01 150.11 156.59 150.98 156.44 Z M 152.26 156.25 L 153.19 156.01 C 154.05 155.79 154.57 154.92 154.35 154.05 C 154.14 153.19 153.26 152.67 152.40 152.89 L 151.47 153.12 C 150.61 153.34 150.08 154.22 150.30 155.08 C 150.52 155.94 151.39 156.46 152.26 156.25 Z M 153.25 156.00 L 154.20 155.72 C 155.05 155.47 155.54 154.57 155.29 153.71 C 155.04 152.86 154.14 152.37 153.29 152.62 L 152.34 152.90 C 151.48 153.15 150.99 154.05 151.25 154.90 C 151.50 155.76 152.39 156.25 153.25 156.00 Z M 154.25 155.70 L 155.22 155.38 C 156.07 155.10 156.53 154.19 156.25 153.34 C 155.97 152.50 155.06 152.04 154.21 152.32 L 153.24 152.64 C 152.39 152.92 151.93 153.83 152.21 154.68 C 152.49 155.52 153.40 155.98 154.25 155.70 Z M 155.25 155.37 L 156.19 155.05 C 157.03 154.75 157.47 153.83 157.18 152.99 C 156.89 152.15 155.97 151.70 155.13 152.00 L 154.19 152.32 C 153.34 152.62 152.90 153.54 153.19 154.38 C 153.49 155.22 154.41 155.67 155.25 155.37 Z M 156.20 155.04 L 157.18 154.70 C 158.02 154.40 158.46 153.48 158.16 152.63 C 157.86 151.79 156.94 151.35 156.10 151.65 L 155.12 152.00 C 154.28 152.30 153.84 153.22 154.13 154.06 C 154.43 154.90 155.36 155.34 156.20 155.04 Z M 157.18 154.70 L 158.15 154.36 C 158.99 154.06 159.44 153.13 159.14 152.29 C 158.84 151.45 157.92 151.01 157.08 151.30 L 156.10 151.65 C 155.26 151.95 154.82 152.87 155.11 153.71 C 155.41 154.55 156.33 155.00 157.18 154.70 Z M 158.14 154.36 L 159.15 154.01 C 159.99 153.72 160.44 152.79 160.15 151.95 C 159.85 151.11 158.93 150.66 158.09 150.95 L 157.08 151.30 C 156.24 151.59 155.79 152.52 156.08 153.36 C 156.38 154.20 157.30 154.65 158.14 154.36 Z M 159.15 154.01 L 160.07 153.69 C 160.91 153.40 161.36 152.47 161.06 151.63 C 160.77 150.79 159.85 150.34 159.00 150.63 L 158.09 150.95 C 157.24 151.25 156.80 152.17 157.09 153.01 C 157.38 153.86 158.31 154.30 159.15 154.01 Z M 160.08 153.68 L 160.98 153.36 C 161.82 153.05 162.25 152.13 161.95 151.29 C 161.65 150.45 160.72 150.01 159.88 150.32 L 158.98 150.64 C 158.14 150.95 157.71 151.87 158.01 152.71 C 158.32 153.55 159.24 153.99 160.08 153.68 Z M 161.00 153.34 L 161.95 152.98 C 162.78 152.67 163.20 151.74 162.88 150.91 C 162.56 150.08 161.64 149.66 160.80 149.97 L 159.86 150.33 C 159.03 150.65 158.61 151.58 158.93 152.41 C 159.24 153.24 160.17 153.66 161.00 153.34 Z M 161.95 152.97 L 162.87 152.62 C 163.69 152.30 164.10 151.38 163.79 150.55 C 163.47 149.73 162.55 149.32 161.72 149.63 L 160.80 149.99 C 159.98 150.30 159.57 151.23 159.88 152.05 C 160.20 152.87 161.12 153.29 161.95 152.97 Z M 162.85 152.61 L 163.75 152.27 C 164.57 151.97 164.98 151.06 164.68 150.24 C 164.38 149.42 163.47 149.00 162.65 149.31 L 161.74 149.64 C 160.93 149.95 160.51 150.86 160.81 151.68 C 161.12 152.50 162.03 152.91 162.85 152.61 Z M 163.72 152.26 L 164.65 151.93 C 165.46 151.64 165.89 150.75 165.60 149.94 C 165.31 149.13 164.42 148.70 163.61 148.99 L 162.68 149.32 C 161.86 149.61 161.44 150.50 161.73 151.31 C 162.01 152.12 162.91 152.55 163.72 152.26 Z M 164.63 151.91 L 165.60 151.58 C 166.41 151.31 166.84 150.43 166.56 149.63 C 166.29 148.83 165.42 148.40 164.61 148.67 L 163.63 149.01 C 162.83 149.28 162.40 150.15 162.68 150.96 C 162.95 151.76 163.82 152.19 164.63 151.91 Z M 165.59 151.56 L 166.54 151.24 C 167.34 150.98 167.77 150.12 167.50 149.32 C 167.23 148.53 166.37 148.10 165.58 148.37 L 164.63 148.69 C 163.83 148.96 163.41 149.81 163.67 150.61 C 163.94 151.40 164.80 151.83 165.59 151.56 Z M 166.54 151.22 L 167.51 150.90 C 168.29 150.63 168.71 149.78 168.44 149.00 C 168.18 148.22 167.33 147.80 166.55 148.06 L 165.58 148.39 C 164.80 148.66 164.38 149.50 164.65 150.29 C 164.91 151.07 165.76 151.49 166.54 151.22 Z M 167.52 150.87 L 168.48 150.53 C 169.25 150.26 169.65 149.42 169.38 148.65 C 169.10 147.88 168.26 147.48 167.49 147.75 L 166.53 148.09 C 165.76 148.36 165.36 149.20 165.63 149.97 C 165.91 150.74 166.75 151.14 167.52 150.87 Z M 168.50 150.50 L 169.45 150.14 C 170.21 149.86 170.59 149.02 170.30 148.27 C 170.02 147.51 169.18 147.13 168.42 147.42 L 167.47 147.78 C 166.72 148.06 166.34 148.90 166.62 149.65 C 166.90 150.41 167.75 150.79 168.50 150.50 Z M 169.46 150.12 L 170.35 149.77 C 171.10 149.48 171.46 148.64 171.17 147.90 C 170.88 147.16 170.04 146.80 169.30 147.09 L 168.41 147.44 C 167.67 147.73 167.30 148.57 167.60 149.31 C 167.89 150.05 168.72 150.41 169.46 150.12 Z M 170.36 149.76 L 170.46 149.72 C 171.20 149.43 171.56 148.60 171.26 147.86 C 170.97 147.13 170.14 146.77 169.40 147.06 L 169.30 147.10 C 168.56 147.39 168.20 148.22 168.50 148.96 C 168.79 149.69 169.62 150.05 170.36 149.76 Z"
      fill="black"
      fill-rule="nonzero" /><path d="M 155.23 150.87 L 155.59 151.76 C 155.90 152.56 156.81 152.95 157.61 152.64 C 158.41 152.32 158.80 151.41 158.48 150.61 L 158.13 149.72 C 157.81 148.92 156.91 148.53 156.11 148.85 C 155.31 149.17 154.92 150.07 155.23 150.87 Z M 155.59 151.90 L 156.05 152.83 C 156.45 153.62 157.41 153.95 158.20 153.56 C 159.00 153.16 159.33 152.20 158.93 151.41 L 158.48 150.48 C 158.08 149.68 157.12 149.35 156.32 149.75 C 155.53 150.14 155.20 151.10 155.59 151.90 Z M 156.10 152.95 L 156.62 153.83 C 157.09 154.60 158.09 154.85 158.86 154.38 C 159.63 153.92 159.88 152.92 159.41 152.15 L 158.89 151.28 C 158.43 150.51 157.43 150.26 156.66 150.72 C 155.88 151.18 155.64 152.18 156.10 152.95 Z M 156.64 153.85 L 157.17 154.70 C 157.64 155.46 158.65 155.69 159.41 155.21 C 160.17 154.74 160.40 153.73 159.93 152.97 L 159.40 152.13 C 158.92 151.37 157.92 151.13 157.16 151.61 C 156.39 152.09 156.16 153.09 156.64 153.85 Z M 157.14 154.66 L 157.66 155.54 C 158.11 156.31 159.11 156.57 159.88 156.12 C 160.66 155.66 160.92 154.67 160.46 153.89 L 159.95 153.01 C 159.50 152.24 158.50 151.98 157.73 152.43 C 156.95 152.89 156.69 153.88 157.14 154.66 Z M 157.65 155.53 L 158.13 156.35 C 158.58 157.13 159.58 157.39 160.35 156.95 C 161.13 156.50 161.40 155.50 160.95 154.72 L 160.47 153.90 C 160.02 153.12 159.02 152.86 158.25 153.31 C 157.47 153.76 157.20 154.75 157.65 155.53 Z M 158.15 156.38 L 158.66 157.23 C 159.13 158.00 160.12 158.25 160.89 157.79 C 161.66 157.33 161.91 156.33 161.45 155.56 L 160.93 154.70 C 160.47 153.93 159.47 153.68 158.70 154.15 C 157.93 154.61 157.68 155.61 158.15 156.38 Z M 158.66 157.23 L 159.18 158.09 C 159.64 158.86 160.64 159.11 161.41 158.64 C 162.18 158.18 162.43 157.18 161.96 156.41 L 161.45 155.56 C 160.98 154.79 159.99 154.54 159.22 155.01 C 158.45 155.47 158.20 156.47 158.66 157.23 Z M 159.17 158.07 L 159.68 158.94 C 160.13 159.72 161.13 159.97 161.90 159.52 C 162.67 159.07 162.93 158.07 162.48 157.30 L 161.97 156.43 C 161.52 155.66 160.52 155.40 159.75 155.85 C 158.98 156.31 158.72 157.30 159.17 158.07 Z M 159.67 158.91 L 160.15 159.78 C 160.59 160.56 161.58 160.84 162.36 160.40 C 163.14 159.96 163.42 158.97 162.98 158.19 L 162.49 157.33 C 162.05 156.55 161.07 156.27 160.29 156.71 C 159.51 157.15 159.23 158.13 159.67 158.91 Z M 160.15 159.76 L 160.63 160.64 C 161.05 161.42 162.03 161.71 162.81 161.29 C 163.60 160.86 163.89 159.89 163.46 159.10 L 162.98 158.22 C 162.56 157.43 161.58 157.14 160.80 157.57 C 160.01 157.99 159.72 158.97 160.15 159.76 Z M 160.63 160.63 L 161.11 161.52 C 161.52 162.30 162.50 162.60 163.28 162.18 C 164.06 161.76 164.36 160.79 163.94 160.01 L 163.46 159.11 C 163.04 158.33 162.07 158.04 161.29 158.46 C 160.51 158.87 160.21 159.84 160.63 160.63 Z M 161.12 161.51 L 161.59 162.40 C 162.00 163.18 162.96 163.47 163.74 163.06 C 164.52 162.65 164.81 161.68 164.40 160.91 L 163.93 160.02 C 163.52 159.24 162.55 158.95 161.78 159.36 C 161.00 159.77 160.70 160.73 161.12 161.51 Z M 161.60 162.39 L 162.06 163.28 C 162.47 164.05 163.42 164.34 164.20 163.94 C 164.97 163.53 165.26 162.58 164.86 161.81 L 164.39 160.92 C 163.99 160.15 163.03 159.85 162.26 160.25 C 161.49 160.66 161.19 161.62 161.60 162.39 Z M 162.07 163.26 L 162.53 164.15 C 162.93 164.92 163.87 165.22 164.64 164.82 C 165.41 164.42 165.71 163.47 165.31 162.70 L 164.85 161.82 C 164.45 161.05 163.51 160.75 162.74 161.15 C 161.97 161.55 161.67 162.49 162.07 163.26 Z M 162.53 164.13 L 162.98 165.02 C 163.38 165.79 164.31 166.09 165.08 165.70 C 165.85 165.31 166.15 164.37 165.76 163.60 L 165.31 162.72 C 164.92 161.95 163.98 161.65 163.21 162.04 C 162.44 162.43 162.14 163.37 162.53 164.13 Z M 162.99 165.01 L 163.45 165.91 C 163.83 166.67 164.77 166.98 165.53 166.59 C 166.29 166.20 166.60 165.27 166.21 164.51 L 165.75 163.61 C 165.37 162.85 164.43 162.54 163.67 162.93 C 162.91 163.32 162.60 164.25 162.99 165.01 Z M 163.46 165.92 L 163.92 166.81 C 164.32 167.57 165.25 167.86 166.00 167.47 C 166.76 167.07 167.05 166.14 166.66 165.39 L 166.19 164.50 C 165.80 163.74 164.87 163.45 164.12 163.84 C 163.36 164.24 163.07 165.17 163.46 165.92 Z M 163.94 166.82 L 164.42 167.71 C 164.82 168.45 165.75 168.73 166.49 168.33 C 167.24 167.93 167.52 167.00 167.12 166.26 L 166.64 165.37 C 166.24 164.63 165.31 164.35 164.57 164.75 C 163.82 165.15 163.54 166.08 163.94 166.82 Z M 164.42 167.70 L 164.88 168.58 C 165.28 169.33 166.20 169.61 166.95 169.22 C 167.69 168.82 167.98 167.90 167.58 167.15 L 167.11 166.27 C 166.72 165.52 165.80 165.24 165.05 165.63 C 164.31 166.03 164.02 166.95 164.42 167.70 Z M 164.88 168.56 L 165.34 169.45 C 165.72 170.20 166.64 170.49 167.38 170.11 C 168.13 169.72 168.43 168.81 168.04 168.06 L 167.59 167.17 C 167.20 166.42 166.29 166.13 165.54 166.51 C 164.79 166.90 164.50 167.81 164.88 168.56 Z M 165.35 169.45 L 165.80 170.34 C 166.19 171.08 167.10 171.37 167.84 170.99 C 168.58 170.60 168.88 169.69 168.49 168.95 L 168.03 168.06 C 167.65 167.32 166.74 167.03 166.00 167.41 C 165.25 167.79 164.96 168.71 165.35 169.45 Z M 165.82 170.35 L 166.29 171.22 C 166.68 171.95 167.59 172.22 168.32 171.83 C 169.05 171.44 169.33 170.53 168.94 169.80 L 168.47 168.93 C 168.08 168.20 167.17 167.93 166.44 168.32 C 165.71 168.71 165.43 169.62 165.82 170.35 Z M 166.34 171.27 L 166.83 172.10 C 167.25 172.80 168.17 173.03 168.87 172.61 C 169.57 172.18 169.80 171.27 169.38 170.57 L 168.89 169.74 C 168.46 169.04 167.55 168.81 166.85 169.23 C 166.14 169.66 165.92 170.57 166.34 171.27 Z M 166.96 172.25 L 167.59 173.04 C 168.09 173.67 169.02 173.78 169.65 173.27 C 170.29 172.76 170.39 171.84 169.89 171.20 L 169.26 170.41 C 168.75 169.78 167.82 169.67 167.19 170.18 C 166.55 170.69 166.45 171.61 166.96 172.25 Z M 167.70 173.15 L 168.40 173.85 C 168.97 174.42 169.89 174.43 170.46 173.86 C 171.04 173.29 171.04 172.37 170.47 171.79 L 169.77 171.09 C 169.20 170.52 168.28 170.52 167.71 171.09 C 167.13 171.65 167.13 172.58 167.70 173.15 Z M 168.44 173.88 L 169.08 174.48 C 169.67 175.02 170.58 174.99 171.13 174.41 C 171.68 173.82 171.65 172.90 171.06 172.36 L 170.42 171.76 C 169.84 171.22 168.92 171.25 168.37 171.83 C 167.83 172.42 167.86 173.34 168.44 173.88 Z"
      fill="black"
      fill-rule="nonzero" /><path d="M 160.14 145.71 L 160.59 146.51 C 161.01 147.26 161.95 147.52 162.70 147.11 C 163.45 146.69 163.72 145.74 163.30 144.99 L 162.85 144.19 C 162.44 143.44 161.49 143.18 160.74 143.59 C 159.99 144.01 159.72 144.96 160.14 145.71 Z M 160.71 146.72 L 161.35 147.53 C 161.89 148.22 162.88 148.33 163.56 147.80 C 164.24 147.26 164.36 146.27 163.82 145.59 L 163.18 144.78 C 162.64 144.10 161.65 143.98 160.97 144.52 C 160.29 145.05 160.18 146.04 160.71 146.72 Z M 161.56 147.75 L 162.29 148.38 C 162.94 148.95 163.93 148.89 164.50 148.23 C 165.07 147.58 165.00 146.59 164.35 146.02 L 163.62 145.38 C 162.96 144.81 161.97 144.88 161.40 145.53 C 160.83 146.19 160.90 147.18 161.56 147.75 Z M 162.42 148.46 L 163.24 149.04 C 163.93 149.54 164.90 149.38 165.39 148.68 C 165.89 147.99 165.73 147.02 165.03 146.53 L 164.22 145.94 C 163.52 145.45 162.56 145.61 162.06 146.30 C 161.57 147.00 161.73 147.96 162.42 148.46 Z M 163.31 149.05 L 164.18 149.63 C 164.89 150.09 165.82 149.89 166.28 149.19 C 166.74 148.49 166.54 147.55 165.84 147.09 L 164.97 146.52 C 164.27 146.06 163.33 146.25 162.87 146.95 C 162.41 147.66 162.61 148.59 163.31 149.05 Z M 164.21 149.61 L 165.12 150.20 C 165.81 150.65 166.73 150.45 167.18 149.76 C 167.62 149.07 167.43 148.14 166.74 147.70 L 165.82 147.11 C 165.13 146.66 164.21 146.86 163.76 147.55 C 163.32 148.24 163.52 149.16 164.21 149.61 Z M 165.12 150.17 L 165.99 150.75 C 166.67 151.20 167.58 151.01 168.03 150.34 C 168.47 149.66 168.29 148.75 167.61 148.30 L 166.74 147.72 C 166.06 147.28 165.15 147.46 164.70 148.14 C 164.26 148.82 164.44 149.73 165.12 150.17 Z M 165.99 150.73 L 166.76 151.25 C 167.42 151.70 168.32 151.52 168.77 150.86 C 169.22 150.20 169.05 149.29 168.38 148.85 L 167.61 148.33 C 166.95 147.88 166.05 148.05 165.60 148.72 C 165.15 149.38 165.33 150.28 165.99 150.73 Z M 166.76 151.23 L 167.60 151.81 C 168.25 152.26 169.14 152.10 169.59 151.45 C 170.04 150.79 169.88 149.90 169.23 149.45 L 168.39 148.87 C 167.74 148.42 166.84 148.58 166.39 149.23 C 165.94 149.88 166.10 150.78 166.76 151.23 Z M 167.58 151.79 L 168.35 152.34 C 168.99 152.80 169.88 152.66 170.34 152.02 C 170.80 151.38 170.66 150.49 170.02 150.03 L 169.25 149.47 C 168.61 149.01 167.71 149.15 167.25 149.79 C 166.79 150.43 166.94 151.33 167.58 151.79 Z M 168.32 152.32 L 169.10 152.91 C 169.72 153.38 170.62 153.26 171.09 152.63 C 171.57 152.00 171.45 151.11 170.82 150.63 L 170.04 150.05 C 169.41 149.57 168.52 149.70 168.05 150.32 C 167.57 150.95 167.69 151.85 168.32 152.32 Z M 169.08 152.90 L 169.88 153.51 C 170.50 154.00 171.39 153.89 171.88 153.26 C 172.36 152.64 172.25 151.75 171.63 151.26 L 170.83 150.64 C 170.21 150.16 169.31 150.27 168.83 150.89 C 168.35 151.52 168.46 152.41 169.08 152.90 Z M 169.87 153.51 L 169.92 153.55 C 170.54 154.03 171.43 153.92 171.92 153.30 C 172.40 152.68 172.29 151.78 171.67 151.30 L 171.63 151.27 C 171.01 150.78 170.11 150.89 169.63 151.51 C 169.14 152.13 169.25 153.03 169.87 153.51 Z"
      fill="black"
      fill-rule="nonzero" /><path d="M 174.91 155.05 L 173.90 155.38 C 173.05 155.65 172.59 156.55 172.85 157.39 C 173.12 158.24 174.03 158.70 174.87 158.43 L 175.89 158.11 C 176.73 157.84 177.20 156.94 176.93 156.09 C 176.66 155.25 175.76 154.78 174.91 155.05 Z M 173.83 155.36 L 172.89 155.70 C 172.04 156.01 171.60 156.94 171.90 157.79 C 172.21 158.64 173.14 159.09 174.00 158.78 L 174.93 158.45 C 175.79 158.14 176.23 157.21 175.92 156.35 C 175.62 155.50 174.68 155.06 173.83 155.36 Z M 172.74 155.73 L 171.89 156.13 C 171.06 156.52 170.70 157.51 171.08 158.34 C 171.47 159.17 172.46 159.53 173.29 159.15 L 174.15 158.75 C 174.98 158.36 175.34 157.37 174.95 156.54 C 174.56 155.71 173.58 155.35 172.74 155.73 Z M 171.62 156.27 L 170.84 156.83 C 170.09 157.36 169.91 158.41 170.45 159.16 C 170.99 159.92 172.03 160.09 172.78 159.56 L 173.56 159.00 C 174.31 158.47 174.49 157.42 173.95 156.67 C 173.42 155.92 172.37 155.74 171.62 156.27 Z M 170.63 157.01 L 169.91 157.74 C 169.26 158.39 169.26 159.45 169.92 160.10 C 170.57 160.75 171.63 160.75 172.28 160.09 L 173.00 159.37 C 173.65 158.72 173.65 157.66 172.99 157.01 C 172.34 156.35 171.28 156.36 170.63 157.01 Z M 169.84 157.83 L 169.17 158.60 C 168.57 159.29 168.65 160.34 169.34 160.95 C 170.04 161.55 171.09 161.47 171.69 160.77 L 172.35 160.00 C 172.95 159.31 172.88 158.26 172.18 157.66 C 171.49 157.06 170.44 157.13 169.84 157.83 Z M 169.15 158.64 L 168.51 159.43 C 167.93 160.14 168.03 161.18 168.74 161.75 C 169.44 162.33 170.48 162.22 171.06 161.52 L 171.70 160.73 C 172.28 160.03 172.18 158.99 171.47 158.41 C 170.77 157.84 169.73 157.94 169.15 158.64 Z M 168.51 159.45 L 167.85 160.28 C 167.28 160.98 167.39 162.01 168.10 162.57 C 168.80 163.14 169.83 163.03 170.40 162.32 L 171.06 161.50 C 171.62 160.80 171.51 159.77 170.80 159.20 C 170.10 158.64 169.07 158.75 168.51 159.45 Z M 167.85 160.29 L 167.26 161.03 C 166.71 161.73 166.82 162.75 167.53 163.31 C 168.23 163.87 169.25 163.75 169.81 163.05 L 170.39 162.31 C 170.95 161.61 170.83 160.59 170.13 160.03 C 169.43 159.47 168.41 159.59 167.85 160.29 Z M 167.26 161.04 L 166.68 161.78 C 166.13 162.49 166.26 163.50 166.96 164.05 C 167.66 164.60 168.67 164.48 169.22 163.78 L 169.81 163.03 C 170.36 162.33 170.23 161.32 169.53 160.77 C 168.83 160.22 167.81 160.34 167.26 161.04 Z M 166.69 161.79 L 166.06 162.59 C 165.51 163.29 165.63 164.30 166.33 164.85 C 167.03 165.40 168.04 165.28 168.59 164.58 L 169.22 163.77 C 169.77 163.07 169.64 162.06 168.95 161.52 C 168.25 160.97 167.24 161.09 166.69 161.79 Z M 166.07 162.59 L 165.46 163.35 C 164.91 164.04 165.03 165.05 165.72 165.60 C 166.41 166.15 167.41 166.04 167.96 165.34 L 168.57 164.58 C 169.12 163.89 169.01 162.88 168.32 162.33 C 167.63 161.78 166.62 161.90 166.07 162.59 Z M 165.49 163.34 L 164.85 164.12 C 164.29 164.80 164.39 165.80 165.06 166.36 C 165.74 166.91 166.74 166.81 167.30 166.14 L 167.94 165.36 C 168.50 164.68 168.40 163.68 167.72 163.12 C 167.04 162.57 166.04 162.67 165.49 163.34 Z M 164.88 164.11 L 164.24 164.85 C 163.67 165.51 163.75 166.51 164.41 167.07 C 165.07 167.64 166.06 167.56 166.63 166.90 L 167.27 166.15 C 167.83 165.49 167.76 164.50 167.09 163.94 C 166.43 163.37 165.44 163.45 164.88 164.11 Z M 164.27 164.84 L 163.61 165.57 C 163.04 166.22 163.09 167.20 163.74 167.78 C 164.38 168.35 165.37 168.30 165.94 167.65 L 166.60 166.92 C 167.17 166.27 167.11 165.29 166.47 164.71 C 165.83 164.14 164.84 164.20 164.27 164.84 Z M 163.64 165.56 L 162.92 166.34 C 162.34 166.97 162.38 167.95 163.01 168.53 C 163.64 169.11 164.62 169.07 165.20 168.44 L 165.91 167.66 C 166.49 167.03 166.45 166.05 165.83 165.47 C 165.20 164.89 164.22 164.93 163.64 165.56 Z M 162.95 166.34 L 162.28 167.04 C 161.70 167.66 161.72 168.63 162.34 169.21 C 162.95 169.79 163.92 169.76 164.51 169.15 L 165.17 168.44 C 165.76 167.83 165.73 166.86 165.11 166.28 C 164.50 165.69 163.53 165.72 162.95 166.34 Z M 162.30 167.04 L 161.60 167.77 C 161.02 168.37 161.04 169.33 161.64 169.91 C 162.24 170.49 163.20 170.47 163.78 169.87 L 164.48 169.15 C 165.06 168.54 165.04 167.59 164.44 167.01 C 163.84 166.43 162.88 166.44 162.30 167.04 Z M 161.62 167.78 L 160.91 168.50 C 160.33 169.09 160.34 170.04 160.93 170.62 C 161.52 171.20 162.47 171.19 163.05 170.60 L 163.76 169.87 C 164.34 169.28 164.33 168.33 163.74 167.75 C 163.15 167.18 162.20 167.19 161.62 167.78 Z M 160.93 168.51 L 160.22 169.22 C 159.65 169.80 159.65 170.74 160.23 171.31 C 160.81 171.89 161.75 171.88 162.33 171.30 L 163.03 170.59 C 163.61 170.01 163.60 169.07 163.02 168.50 C 162.44 167.92 161.50 167.93 160.93 168.51 Z M 160.24 169.22 L 159.53 169.92 C 158.96 170.49 158.96 171.42 159.53 172.00 C 160.10 172.57 161.03 172.57 161.60 172.00 L 162.31 171.30 C 162.89 170.73 162.89 169.80 162.32 169.23 C 161.74 168.65 160.81 168.65 160.24 169.22 Z M 159.55 169.92 L 158.83 170.62 C 158.26 171.19 158.25 172.11 158.81 172.68 C 159.37 173.26 160.30 173.27 160.87 172.71 L 161.59 172.00 C 162.16 171.44 162.17 170.52 161.61 169.94 C 161.05 169.37 160.13 169.36 159.55 169.92 Z M 158.85 170.62 L 158.13 171.31 C 157.56 171.86 157.54 172.78 158.10 173.36 C 158.65 173.93 159.57 173.95 160.14 173.39 L 160.86 172.71 C 161.43 172.15 161.45 171.24 160.89 170.66 C 160.34 170.09 159.42 170.07 158.85 170.62 Z M 158.15 171.30 L 157.42 171.99 C 156.84 172.54 156.82 173.45 157.36 174.03 C 157.91 174.61 158.82 174.63 159.40 174.09 L 160.13 173.40 C 160.71 172.85 160.73 171.94 160.19 171.36 C 159.64 170.79 158.73 170.76 158.15 171.30 Z M 157.44 171.98 L 156.70 172.67 C 156.12 173.20 156.08 174.11 156.62 174.69 C 157.15 175.27 158.06 175.31 158.64 174.78 L 159.38 174.09 C 159.96 173.56 160.00 172.65 159.46 172.07 C 158.93 171.49 158.02 171.45 157.44 171.98 Z M 156.72 172.66 L 155.97 173.33 C 155.38 173.85 155.33 174.76 155.86 175.34 C 156.39 175.93 157.29 175.98 157.88 175.45 L 158.62 174.79 C 159.21 174.26 159.26 173.35 158.73 172.77 C 158.21 172.18 157.30 172.13 156.72 172.66 Z M 155.98 173.32 L 155.23 173.98 C 154.64 174.50 154.58 175.40 155.10 175.99 C 155.62 176.58 156.52 176.64 157.11 176.12 L 157.86 175.46 C 158.46 174.94 158.52 174.04 158.00 173.45 C 157.48 172.86 156.57 172.80 155.98 173.32 Z M 155.24 173.97 L 154.48 174.63 C 153.89 175.14 153.82 176.04 154.34 176.64 C 154.85 177.23 155.75 177.30 156.35 176.78 L 157.11 176.13 C 157.70 175.61 157.76 174.71 157.25 174.12 C 156.73 173.52 155.83 173.46 155.24 173.97 Z M 154.48 174.63 L 154.24 174.84 C 153.64 175.35 153.57 176.26 154.09 176.85 C 154.60 177.45 155.50 177.51 156.10 177.00 L 156.35 176.78 C 156.94 176.27 157.01 175.37 156.50 174.77 C 155.98 174.18 155.08 174.11 154.48 174.63 Z"
      fill="black"
      fill-rule="nonzero" /></svg>