<svg xmlns="http://www.w3.org/2000/svg" width="300" height="300" viewBox="0 0 300 300">
<path d="M 140.45 137.17 L 141.41 137.40 C 142.21 137.60 143.02 137.10 143.22 136.29 C 143.41 135.49 142.92 134.68 142.11 134.49 L 141.15 134.26 C 140.35 134.06 139.54 134.56 139.35 135.36 C 139.15 136.17 139.65 136.98 140.45 137.17 Z M 141.33 137.43 L 142.30 137.71 C 143.12 137.94 143.98 137.47 144.21 136.65 C 144.45 135.83 143.97 134.97 143.15 134.73 L 142.19 134.46 C 141.36 134.22 140.51 134.70 140.27 135.52 C 140.04 136.34 140.51 137.19 141.33 137.43 Z M 142.18 137.70 L 143.15 138.06 C 143.96 138.36 144.87 137.95 145.17 137.13 C 145.47 136.31 145.06 135.41 144.24 135.10 L 143.27 134.74 C 142.46 134.44 141.55 134.86 141.25 135.67 C 140.94 136.49 141.36 137.39 142.18 137.70 Z M 143.06 138.02 L 144.00 138.44 C 144.79 138.79 145.72 138.43 146.07 137.63 C 146.43 136.83 146.06 135.90 145.27 135.55 L 144.33 135.14 C 143.53 134.79 142.60 135.15 142.25 135.95 C 141.90 136.74 142.26 137.67 143.06 138.02 Z M 143.97 138.42 L 144.86 138.83 C 145.65 139.20 146.58 138.86 146.95 138.07 C 147.31 137.29 146.97 136.35 146.19 135.99 L 145.29 135.57 C 144.51 135.20 143.57 135.55 143.21 136.33 C 142.84 137.12 143.18 138.05 143.97 138.42 Z M 144.87 138.83 L 145.78 139.25 C 146.56 139.61 147.49 139.26 147.85 138.48 C 148.21 137.69 147.87 136.77 147.08 136.41 L 146.18 135.99 C 145.39 135.63 144.46 135.97 144.10 136.76 C 143.74 137.54 144.09 138.47 144.87 138.83 Z M 145.78 139.24 L 146.65 139.64 C 147.43 139.99 148.35 139.65 148.71 138.87 C 149.07 138.09 148.72 137.16 147.94 136.80 L 147.08 136.41 C 146.30 136.05 145.37 136.40 145.02 137.18 C 144.66 137.96 145.00 138.88 145.78 139.24 Z M 146.64 139.63 L 147.55 140.05 C 148.33 140.42 149.26 140.08 149.62 139.30 C 149.98 138.52 149.64 137.59 148.86 137.23 L 147.95 136.81 C 147.17 136.45 146.25 136.79 145.88 137.57 C 145.52 138.34 145.86 139.27 146.64 139.63 Z M 147.54 140.05 L 148.46 140.48 C 149.23 140.85 150.16 140.52 150.53 139.74 C 150.89 138.97 150.56 138.04 149.79 137.67 L 148.87 137.24 C 148.10 136.87 147.17 137.20 146.80 137.98 C 146.43 138.75 146.77 139.68 147.54 140.05 Z M 148.46 140.48 L 149.36 140.91 C 150.14 141.28 151.06 140.95 151.43 140.17 C 151.80 139.40 151.47 138.47 150.69 138.10 L 149.79 137.67 C 149.01 137.31 148.09 137.64 147.72 138.41 C 147.35 139.19 147.68 140.11 148.46 140.48 Z M 149.38 140.91 L 150.28 141.33 C 151.05 141.69 151.98 141.35 152.33 140.57 C 152.69 139.80 152.36 138.88 151.58 138.52 L 150.68 138.10 C 149.90 137.74 148.98 138.08 148.62 138.86 C 148.26 139.63 148.60 140.55 149.38 140.91 Z M 150.29 141.33 L 151.20 141.75 C 151.98 142.10 152.89 141.75 153.25 140.97 C 153.60 140.20 153.26 139.28 152.48 138.93 L 151.57 138.51 C 150.79 138.16 149.87 138.51 149.52 139.28 C 149.16 140.06 149.51 140.98 150.29 141.33 Z M 151.20 141.74 L 152.12 142.16 C 152.89 142.52 153.81 142.17 154.16 141.40 C 154.52 140.62 154.18 139.70 153.40 139.35 L 152.48 138.93 C 151.70 138.58 150.79 138.92 150.43 139.69 C 150.08 140.47 150.42 141.39 151.20 141.74 Z M 152.11 142.16 L 153.03 142.58 C 153.80 142.93 154.72 142.60 155.08 141.82 C 155.43 141.05 155.09 140.13 154.32 139.78 L 153.40 139.35 C 152.63 139.00 151.71 139.34 151.36 140.11 C 151.00 140.89 151.34 141.80 152.11 142.16 Z M 153.03 142.58 L 153.96 143.00 C 154.73 143.35 155.65 143.01 156.00 142.24 C 156.35 141.46 156.01 140.55 155.24 140.20 L 154.31 139.78 C 153.54 139.42 152.63 139.76 152.27 140.54 C 151.92 141.31 152.26 142.23 153.03 142.58 Z M 153.97 143.00 L 154.86 143.41 C 155.64 143.76 156.55 143.41 156.90 142.64 C 157.25 141.86 156.90 140.95 156.13 140.60 L 155.23 140.19 C 154.46 139.85 153.54 140.19 153.19 140.97 C 152.85 141.74 153.19 142.65 153.97 143.00 Z M 154.86 143.41 L 155.71 143.79 C 156.49 144.14 157.40 143.80 157.75 143.02 C 158.10 142.25 157.75 141.34 156.98 140.99 L 156.13 140.60 C 155.36 140.25 154.45 140.59 154.10 141.37 C 153.74 142.14 154.09 143.06 154.86 143.41 Z M 155.71 143.79 L 156.64 144.21 C 157.41 144.56 158.32 144.22 158.68 143.45 C 159.03 142.67 158.68 141.76 157.91 141.41 L 156.98 140.98 C 156.21 140.63 155.29 140.98 154.94 141.75 C 154.59 142.53 154.93 143.44 155.71 143.79 Z M 156.64 144.21 L 157.54 144.62 C 158.31 144.97 159.22 144.63 159.58 143.85 C 159.93 143.07 159.58 142.16 158.81 141.81 L 157.91 141.40 C 157.13 141.05 156.22 141.40 155.87 142.17 C 155.52 142.95 155.86 143.86 156.64 144.21 Z M 157.54 144.62 L 158.46 145.04 C 159.24 145.39 160.15 145.04 160.50 144.27 C 160.85 143.49 160.51 142.58 159.73 142.23 L 158.81 141.81 C 158.03 141.46 157.12 141.80 156.77 142.58 C 156.42 143.36 156.76 144.27 157.54 144.62 Z M 158.46 145.04 L 159.45 145.49 C 160.22 145.84 161.14 145.50 161.49 144.72 C 161.84 143.94 161.50 143.03 160.72 142.68 L 159.74 142.23 C 158.96 141.88 158.05 142.22 157.69 143.00 C 157.34 143.77 157.68 144.69 158.46 145.04 Z M 159.41 145.49 L 160.51 146.02 C 161.28 146.39 162.22 146.07 162.59 145.29 C 162.97 144.52 162.64 143.59 161.87 143.21 L 160.76 142.68 C 159.99 142.31 159.06 142.63 158.68 143.40 C 158.31 144.18 158.63 145.11 159.41 145.49 Z M 160.10 145.77 L 160.50 146.14 C 161.14 146.74 162.14 146.71 162.74 146.07 C 163.34 145.44 163.31 144.43 162.67 143.83 L 162.28 143.46 C 161.64 142.86 160.63 142.89 160.03 143.53 C 159.43 144.17 159.46 145.17 160.10 145.77 Z M 161.39 143.38 L 160.38 143.51 C 159.49 143.61 158.86 144.42 158.97 145.31 C 159.08 146.19 159.88 146.82 160.77 146.72 L 161.78 146.59 C 162.67 146.48 163.30 145.68 163.19 144.79 C 163.08 143.91 162.28 143.28 161.39 143.38 Z M 160.47 143.48 L 159.49 143.54 C 158.59 143.60 157.91 144.37 157.96 145.27 C 158.02 146.17 158.79 146.86 159.69 146.80 L 160.67 146.74 C 161.57 146.69 162.26 145.91 162.20 145.01 C 162.15 144.11 161.37 143.43 160.47 143.48 Z M 159.30 143.56 L 158.28 143.75 C 157.39 143.90 156.79 144.75 156.95 145.64 C 157.11 146.53 157.96 147.12 158.85 146.97 L 159.88 146.78 C 160.77 146.62 161.36 145.77 161.20 144.88 C 161.04 143.99 160.19 143.40 159.30 143.56 Z M 158.08 143.79 L 157.21 144.06 C 156.34 144.33 155.86 145.24 156.12 146.10 C 156.39 146.97 157.30 147.45 158.16 147.19 L 159.04 146.92 C 159.90 146.65 160.39 145.74 160.13 144.88 C 159.86 144.01 158.95 143.53 158.08 143.79 Z M 157.08 144.11 L 156.13 144.48 C 155.30 144.81 154.88 145.76 155.22 146.60 C 155.55 147.44 156.50 147.85 157.34 147.52 L 158.29 147.14 C 159.12 146.81 159.53 145.86 159.20 145.02 C 158.87 144.18 157.92 143.77 157.08 144.11 Z M 156.04 144.52 L 155.10 144.97 C 154.29 145.35 153.94 146.32 154.32 147.13 C 154.70 147.95 155.67 148.30 156.48 147.92 L 157.43 147.48 C 158.24 147.09 158.59 146.12 158.21 145.31 C 157.83 144.49 156.86 144.14 156.04 144.52 Z M 155.03 145.01 L 154.19 145.46 C 153.40 145.88 153.10 146.86 153.52 147.65 C 153.94 148.44 154.92 148.74 155.71 148.32 L 156.55 147.87 C 157.34 147.45 157.64 146.47 157.22 145.68 C 156.80 144.89 155.82 144.59 155.03 145.01 Z M 154.14 145.51 L 153.27 146.02 C 152.50 146.46 152.25 147.45 152.69 148.21 C 153.14 148.98 154.13 149.23 154.89 148.78 L 155.76 148.27 C 156.52 147.82 156.78 146.84 156.33 146.08 C 155.88 145.31 154.90 145.06 154.14 145.51 Z M 153.22 146.06 L 152.33 146.63 C 151.59 147.11 151.38 148.09 151.85 148.83 C 152.32 149.57 153.31 149.78 154.05 149.31 L 154.94 148.74 C 155.68 148.26 155.89 147.28 155.42 146.54 C 154.94 145.80 153.96 145.59 153.22 146.06 Z M 152.29 146.67 L 151.46 147.24 C 150.74 147.74 150.56 148.72 151.06 149.44 C 151.55 150.16 152.54 150.34 153.26 149.84 L 154.09 149.27 C 154.80 148.78 154.98 147.79 154.49 147.07 C 153.99 146.36 153.01 146.17 152.29 146.67 Z M 151.43 147.28 L 150.61 147.88 C 149.91 148.39 149.76 149.38 150.27 150.08 C 150.78 150.78 151.77 150.93 152.47 150.41 L 153.29 149.81 C 153.99 149.30 154.14 148.31 153.63 147.61 C 153.11 146.91 152.13 146.76 151.43 147.28 Z M 150.57 147.91 L 149.79 148.53 C 149.11 149.06 148.99 150.04 149.52 150.72 C 150.05 151.40 151.03 151.52 151.71 150.99 L 152.50 150.38 C 153.18 149.85 153.30 148.87 152.77 148.18 C 152.24 147.50 151.25 147.38 150.57 147.91 Z M 149.76 148.57 L 148.94 149.26 C 148.28 149.81 148.20 150.78 148.75 151.44 C 149.30 152.10 150.28 152.18 150.93 151.63 L 151.75 150.95 C 152.41 150.40 152.49 149.42 151.94 148.76 C 151.39 148.11 150.41 148.02 149.76 148.57 Z M 148.91 149.31 L 148.13 150.02 C 147.50 150.59 147.45 151.55 148.02 152.18 C 148.59 152.81 149.55 152.85 150.18 152.29 L 150.96 151.58 C 151.59 151.01 151.63 150.04 151.07 149.42 C 150.50 148.79 149.54 148.74 148.91 149.31 Z M 148.11 150.07 L 147.46 150.70 C 146.86 151.27 146.84 152.22 147.42 152.82 C 147.99 153.42 148.94 153.44 149.54 152.86 L 150.19 152.24 C 150.79 151.66 150.81 150.71 150.23 150.12 C 149.66 149.52 148.71 149.50 148.11 150.07 Z M 147.46 150.73 L 146.78 151.41 C 146.20 151.98 146.20 152.91 146.77 153.49 C 147.34 154.07 148.28 154.08 148.86 153.50 L 149.54 152.83 C 150.11 152.26 150.12 151.32 149.55 150.74 C 148.97 150.16 148.04 150.16 147.46 150.73 Z M 146.75 151.46 L 146.09 152.17 C 145.54 152.76 145.57 153.68 146.16 154.23 C 146.75 154.78 147.67 154.75 148.22 154.16 L 148.88 153.45 C 149.43 152.86 149.40 151.94 148.81 151.39 C 148.22 150.84 147.30 150.87 146.75 151.46 Z M 146.05 152.23 L 145.41 152.99 C 144.89 153.60 144.97 154.51 145.58 155.03 C 146.18 155.54 147.09 155.47 147.61 154.86 L 148.26 154.10 C 148.77 153.49 148.70 152.58 148.09 152.06 C 147.48 151.55 146.57 151.62 146.05 152.23 Z M 145.39 153.03 L 144.74 153.84 C 144.24 154.46 144.34 155.37 144.96 155.86 C 145.58 156.36 146.48 156.26 146.98 155.64 L 147.63 154.83 C 148.13 154.21 148.03 153.30 147.41 152.80 C 146.79 152.31 145.88 152.41 145.39 153.03 Z M 144.72 153.87 L 144.09 154.70 C 143.61 155.33 143.73 156.23 144.36 156.71 C 144.99 157.19 145.89 157.07 146.37 156.44 L 147.00 155.61 C 147.48 154.98 147.36 154.08 146.73 153.60 C 146.10 153.12 145.20 153.24 144.72 153.87 Z M 144.06 154.74 L 143.49 155.56 C 143.03 156.20 143.18 157.09 143.83 157.55 C 144.47 158.00 145.37 157.85 145.82 157.21 L 146.39 156.39 C 146.85 155.75 146.70 154.86 146.05 154.40 C 145.41 153.95 144.52 154.10 144.06 154.74 Z M 143.47 155.58 L 143.25 155.91 C 142.81 156.56 142.98 157.45 143.63 157.89 C 144.28 158.33 145.17 158.16 145.61 157.51 L 145.83 157.18 C 146.28 156.53 146.11 155.64 145.45 155.20 C 144.80 154.76 143.91 154.93 143.47 155.58 Z"
      fill="black"
      fill-rule="nonzero" /><path d="M 135.54 168.76 L 136.63 168.71 C 137.49 168.66 138.15 167.93 138.11 167.07 C 138.06 166.21 137.33 165.55 136.47 165.59 L 135.38 165.65 C 134.52 165.69 133.86 166.42 133.90 167.28 C 133.95 168.15 134.68 168.81 135.54 168.76 Z M 136.62 168.73 L 137.66 168.68 C 138.54 168.64 139.21 167.90 139.17 167.02 C 139.13 166.14 138.38 165.47 137.51 165.51 L 136.47 165.56 C 135.59 165.61 134.92 166.35 134.96 167.23 C 135.00 168.10 135.75 168.78 136.62 168.73 Z M 137.66 168.71 L 138.60 168.67 C 139.49 168.63 140.18 167.87 140.15 166.98 C 140.11 166.09 139.35 165.40 138.46 165.44 L 137.51 165.49 C 136.62 165.53 135.93 166.28 135.97 167.17 C 136.01 168.06 136.77 168.75 137.66 168.71 Z M 138.59 168.69 L 139.60 168.66 C 140.50 168.63 141.21 167.87 141.18 166.97 C 141.15 166.06 140.39 165.36 139.49 165.39 L 138.48 165.42 C 137.57 165.45 136.87 166.21 136.90 167.11 C 136.93 168.01 137.68 168.72 138.59 168.69 Z M 139.57 168.67 L 140.56 168.66 C 141.47 168.64 142.20 167.89 142.18 166.97 C 142.17 166.06 141.41 165.33 140.50 165.35 L 139.51 165.37 C 138.60 165.39 137.88 166.14 137.89 167.05 C 137.91 167.96 138.66 168.69 139.57 168.67 Z M 140.56 168.67 L 141.46 168.66 C 142.38 168.64 143.12 167.88 143.10 166.96 C 143.09 166.04 142.33 165.31 141.41 165.32 L 140.50 165.34 C 139.58 165.35 138.85 166.11 138.86 167.03 C 138.88 167.95 139.64 168.68 140.56 168.67 Z M 141.48 168.67 L 142.44 168.64 C 143.37 168.62 144.10 167.85 144.08 166.92 C 144.06 166.00 143.29 165.26 142.36 165.29 L 141.39 165.31 C 140.47 165.34 139.73 166.11 139.76 167.03 C 139.78 167.96 140.55 168.69 141.48 168.67 Z M 142.45 168.66 L 143.50 168.63 C 144.43 168.60 145.17 167.82 145.14 166.89 C 145.12 165.96 144.34 165.22 143.41 165.25 L 142.36 165.28 C 141.42 165.30 140.69 166.08 140.71 167.01 C 140.74 167.94 141.52 168.68 142.45 168.66 Z M 143.50 168.63 L 144.46 168.61 C 145.40 168.59 146.14 167.81 146.12 166.87 C 146.09 165.94 145.32 165.20 144.38 165.22 L 143.41 165.24 C 142.48 165.27 141.74 166.04 141.76 166.98 C 141.78 167.91 142.56 168.65 143.50 168.63 Z M 144.47 168.61 L 145.48 168.58 C 146.41 168.55 147.15 167.78 147.13 166.84 C 147.10 165.91 146.32 165.17 145.39 165.20 L 144.38 165.22 C 143.44 165.25 142.71 166.02 142.73 166.96 C 142.76 167.89 143.53 168.63 144.47 168.61 Z M 145.49 168.58 L 146.51 168.54 C 147.44 168.51 148.17 167.73 148.14 166.79 C 148.11 165.86 147.32 165.13 146.39 165.16 L 145.38 165.20 C 144.44 165.23 143.71 166.01 143.75 166.95 C 143.78 167.88 144.56 168.61 145.49 168.58 Z M 146.52 168.54 L 147.52 168.49 C 148.45 168.45 149.17 167.66 149.13 166.73 C 149.09 165.80 148.30 165.08 147.37 165.12 L 146.38 165.17 C 145.45 165.21 144.72 166.00 144.77 166.93 C 144.81 167.86 145.59 168.58 146.52 168.54 Z M 147.53 168.49 L 148.53 168.44 C 149.46 168.40 150.17 167.61 150.13 166.68 C 150.08 165.75 149.29 165.03 148.37 165.08 L 147.36 165.13 C 146.43 165.17 145.72 165.96 145.76 166.89 C 145.81 167.82 146.60 168.53 147.53 168.49 Z M 148.53 168.44 L 149.52 168.39 C 150.45 168.34 151.16 167.56 151.12 166.63 C 151.08 165.70 150.29 164.99 149.36 165.03 L 148.37 165.08 C 147.44 165.13 146.73 165.91 146.77 166.84 C 146.81 167.77 147.60 168.48 148.53 168.44 Z M 149.52 168.38 L 150.52 168.34 C 151.44 168.29 152.15 167.51 152.11 166.58 C 152.06 165.66 151.28 164.95 150.36 164.99 L 149.36 165.04 C 148.44 165.08 147.73 165.87 147.77 166.79 C 147.82 167.71 148.60 168.43 149.52 168.38 Z M 150.52 168.33 L 151.53 168.28 C 152.45 168.23 153.16 167.45 153.11 166.53 C 153.06 165.61 152.28 164.90 151.36 164.95 L 150.35 165.00 C 149.43 165.05 148.73 165.83 148.77 166.75 C 148.82 167.67 149.60 168.37 150.52 168.33 Z M 151.54 168.27 L 152.54 168.21 C 153.45 168.16 154.15 167.38 154.10 166.46 C 154.05 165.55 153.26 164.85 152.35 164.90 L 151.35 164.96 C 150.43 165.01 149.74 165.79 149.79 166.71 C 149.84 167.62 150.62 168.32 151.54 168.27 Z M 152.54 168.20 L 153.54 168.14 C 154.45 168.09 155.15 167.30 155.09 166.39 C 155.04 165.48 154.25 164.79 153.34 164.85 L 152.34 164.91 C 151.43 164.96 150.74 165.74 150.79 166.66 C 150.85 167.57 151.63 168.26 152.54 168.20 Z M 153.54 168.14 L 154.54 168.08 C 155.45 168.02 156.14 167.24 156.09 166.34 C 156.03 165.43 155.25 164.74 154.35 164.79 L 153.34 164.85 C 152.44 164.91 151.75 165.68 151.80 166.59 C 151.85 167.50 152.63 168.19 153.54 168.14 Z M 154.53 168.07 L 155.54 168.02 C 156.45 167.97 157.14 167.20 157.09 166.29 C 157.04 165.39 156.27 164.70 155.37 164.75 L 154.36 164.80 C 153.45 164.85 152.76 165.62 152.81 166.52 C 152.86 167.43 153.63 168.12 154.53 168.07 Z M 155.54 168.01 L 156.54 167.96 C 157.44 167.92 158.13 167.15 158.09 166.25 C 158.05 165.35 157.28 164.66 156.38 164.70 L 155.38 164.75 C 154.48 164.79 153.78 165.56 153.83 166.46 C 153.87 167.36 154.64 168.05 155.54 168.01 Z M 156.54 167.96 L 157.52 167.91 C 158.42 167.87 159.11 167.11 159.07 166.21 C 159.02 165.31 158.26 164.62 157.36 164.66 L 156.38 164.71 C 155.49 164.75 154.79 165.51 154.84 166.41 C 154.88 167.31 155.64 168.00 156.54 167.96 Z M 157.52 167.90 L 158.54 167.85 C 159.43 167.81 160.12 167.05 160.07 166.16 C 160.03 165.26 159.27 164.57 158.38 164.62 L 157.36 164.67 C 156.47 164.71 155.78 165.47 155.82 166.37 C 155.87 167.26 156.63 167.95 157.52 167.90 Z M 158.53 167.85 L 159.52 167.80 C 160.41 167.76 161.10 167.01 161.06 166.12 C 161.02 165.23 160.27 164.54 159.38 164.58 L 158.38 164.62 C 157.49 164.66 156.80 165.42 156.84 166.31 C 156.88 167.20 157.64 167.89 158.53 167.85 Z M 159.50 167.80 L 160.48 167.77 C 161.36 167.74 162.06 167.00 162.03 166.11 C 162.00 165.22 161.26 164.53 160.38 164.55 L 159.40 164.59 C 158.51 164.61 157.82 165.36 157.84 166.24 C 157.87 167.13 158.61 167.83 159.50 167.80 Z M 160.45 167.76 L 161.42 167.75 C 162.30 167.73 163.01 167.01 163.00 166.12 C 162.99 165.24 162.26 164.53 161.37 164.54 L 160.40 164.56 C 159.52 164.57 158.81 165.30 158.83 166.18 C 158.84 167.07 159.57 167.77 160.45 167.76 Z M 161.40 167.74 L 162.41 167.74 C 163.29 167.74 164.01 167.02 164.00 166.14 C 164.00 165.25 163.28 164.54 162.40 164.55 L 161.39 164.55 C 160.51 164.55 159.80 165.27 159.80 166.15 C 159.80 167.03 160.52 167.75 161.40 167.74 Z M 162.41 167.73 L 163.44 167.73 C 164.32 167.73 165.03 167.02 165.03 166.14 C 165.03 165.26 164.32 164.55 163.44 164.55 L 162.41 164.55 C 161.53 164.55 160.81 165.26 160.81 166.14 C 160.81 167.02 161.53 167.73 162.41 167.73 Z M 163.44 167.73 L 164.47 167.73 C 165.34 167.73 166.05 167.02 166.05 166.14 C 166.05 165.27 165.34 164.55 164.47 164.55 L 163.44 164.55 C 162.56 164.55 161.85 165.27 161.85 166.14 C 161.85 167.02 162.56 167.73 163.44 167.73 Z M 164.47 167.73 L 165.47 167.73 C 166.34 167.73 167.05 167.02 167.05 166.14 C 167.05 165.27 166.34 164.56 165.47 164.56 L 164.47 164.56 C 163.59 164.56 162.88 165.27 162.88 166.14 C 162.88 167.02 163.59 167.73 164.47 167.73 Z M 165.47 167.72 L 166.69 167.72 C 167.56 167.72 168.27 167.01 168.27 166.14 C 168.27 165.27 167.56 164.56 166.69 164.56 L 165.47 164.56 C 164.59 164.56 163.89 165.27 163.89 166.14 C 163.89 167.01 164.59 167.72 165.47 167.72 Z M 166.69 167.71 L 167.57 167.71 C 168.44 167.71 169.14 167.01 169.14 166.14 C 169.14 165.28 168.44 164.57 167.57 164.57 L 166.69 164.57 C 165.82 164.57 165.12 165.28 165.12 166.14 C 165.12 167.01 165.82 167.71 166.69 167.71 Z M 167.57 164.59 L 167.02 164.59 C 166.16 164.59 165.47 165.28 165.47 166.14 C 165.47 167.00 166.16 167.70 167.02 167.70 L 167.57 167.70 C 168.43 167.70 169.13 167.00 169.13 166.14 C 169.13 165.28 168.43 164.59 167.57 164.59 Z M 167.02 164.60 L 166.44 164.60 C 165.59 164.60 164.90 165.29 164.90 166.14 C 164.90 166.99 165.59 167.68 166.44 167.68 L 167.02 167.68 C 167.87 167.68 168.56 166.99 168.56 166.14 C 168.56 165.29 167.87 164.60 167.02 164.60 Z"
      fill="black"
      fill-rule="nonzero" /></svg>