<svg xmlns="http://www.w3.org/2000/svg" width="300" height="300" viewBox="0 0 300 300">
<path d="M 150.04 125.16 L 149.83 126.06 C 149.65 126.86 150.15 127.65 150.94 127.83 C 151.74 128.01 152.53 127.51 152.71 126.72 L 152.92 125.81 C 153.10 125.02 152.60 124.23 151.80 124.05 C 151.01 123.87 150.22 124.36 150.04 125.16 Z M 149.78 126.23 L 149.67 127.28 C 149.59 128.10 150.19 128.84 151.01 128.92 C 151.83 129.01 152.57 128.41 152.65 127.59 L 152.76 126.54 C 152.84 125.72 152.25 124.98 151.42 124.90 C 150.60 124.81 149.87 125.41 149.78 126.23 Z M 149.66 127.43 L 149.65 128.44 C 149.65 129.27 150.33 129.95 151.16 129.95 C 151.99 129.95 152.67 129.28 152.67 128.44 L 152.67 127.44 C 152.67 126.61 152.00 125.93 151.17 125.93 C 150.33 125.93 149.66 126.60 149.66 127.43 Z M 149.65 128.49 L 149.69 129.51 C 149.72 130.35 150.42 131.00 151.25 130.97 C 152.08 130.94 152.74 130.24 152.71 129.41 L 152.67 128.39 C 152.64 127.55 151.94 126.90 151.11 126.93 C 150.27 126.96 149.62 127.66 149.65 128.49 Z M 149.68 129.52 L 149.72 130.56 C 149.76 131.40 150.46 132.05 151.30 132.02 C 152.13 131.99 152.78 131.28 152.75 130.45 L 152.71 129.40 C 152.68 128.57 151.97 127.91 151.14 127.95 C 150.30 127.98 149.65 128.68 149.68 129.52 Z M 149.72 130.55 L 149.75 131.50 C 149.77 132.34 150.47 133.00 151.30 132.98 C 152.14 132.95 152.80 132.26 152.78 131.42 L 152.75 130.46 C 152.73 129.63 152.03 128.97 151.20 128.99 C 150.36 129.01 149.70 129.71 149.72 130.55 Z M 149.75 131.48 L 149.76 132.43 C 149.77 133.27 150.45 133.95 151.29 133.94 C 152.13 133.93 152.80 133.24 152.79 132.40 L 152.78 131.44 C 152.77 130.60 152.09 129.93 151.25 129.94 C 150.41 129.95 149.74 130.64 149.75 131.48 Z M 149.75 132.42 L 149.76 133.45 C 149.76 134.28 150.44 134.96 151.28 134.96 C 152.12 134.96 152.80 134.28 152.80 133.44 L 152.79 132.41 C 152.79 131.58 152.11 130.90 151.27 130.90 C 150.43 130.90 149.75 131.58 149.75 132.42 Z M 149.76 133.44 L 149.76 134.41 C 149.76 135.25 150.44 135.94 151.28 135.94 C 152.12 135.94 152.80 135.25 152.80 134.41 L 152.80 133.44 C 152.80 132.60 152.12 131.92 151.28 131.92 C 150.44 131.92 149.76 132.60 149.76 133.44 Z M 149.75 134.41 L 149.75 135.43 C 149.75 136.27 150.44 136.95 151.28 136.95 C 152.12 136.95 152.80 136.27 152.80 135.43 L 152.80 134.41 C 152.80 133.57 152.12 132.89 151.28 132.89 C 150.44 132.89 149.75 133.57 149.75 134.41 Z M 149.75 135.43 L 149.75 136.42 C 149.75 137.26 150.43 137.95 151.28 137.95 C 152.12 137.95 152.80 137.27 152.80 136.42 L 152.80 135.43 C 152.80 134.59 152.12 133.90 151.28 133.90 C 150.44 133.90 149.75 134.58 149.75 135.43 Z M 149.75 136.41 L 149.74 137.38 C 149.73 138.22 150.41 138.91 151.25 138.92 C 152.09 138.93 152.78 138.26 152.79 137.42 L 152.80 136.44 C 152.81 135.60 152.13 134.91 151.29 134.90 C 150.45 134.89 149.76 135.57 149.75 136.41 Z M 149.74 137.34 L 149.70 138.38 C 149.67 139.22 150.33 139.93 151.17 139.96 C 152.01 139.99 152.72 139.34 152.75 138.49 L 152.79 137.46 C 152.82 136.62 152.17 135.91 151.32 135.88 C 150.48 135.84 149.78 136.50 149.74 137.34 Z M 149.71 138.32 L 149.63 139.31 C 149.57 140.15 150.19 140.88 151.03 140.94 C 151.87 141.01 152.61 140.38 152.67 139.54 L 152.74 138.55 C 152.81 137.71 152.18 136.98 151.34 136.92 C 150.50 136.85 149.77 137.48 149.71 138.32 Z M 149.63 139.27 L 149.53 140.26 C 149.44 141.10 150.05 141.85 150.88 141.94 C 151.72 142.03 152.47 141.42 152.56 140.58 L 152.67 139.59 C 152.75 138.75 152.15 138.00 151.31 137.91 C 150.47 137.82 149.72 138.43 149.63 139.27 Z M 149.53 140.23 L 149.40 141.24 C 149.30 142.08 149.89 142.84 150.73 142.95 C 151.56 143.05 152.33 142.46 152.43 141.62 L 152.56 140.61 C 152.66 139.78 152.07 139.02 151.23 138.91 C 150.40 138.81 149.64 139.40 149.53 140.23 Z M 149.41 141.22 L 149.27 142.22 C 149.15 143.05 149.73 143.82 150.57 143.94 C 151.40 144.06 152.17 143.48 152.29 142.64 L 152.43 141.64 C 152.55 140.81 151.96 140.04 151.13 139.92 C 150.29 139.80 149.52 140.39 149.41 141.22 Z M 149.27 142.20 L 149.11 143.18 C 148.98 144.01 149.56 144.80 150.39 144.93 C 151.23 145.05 152.01 144.48 152.14 143.65 L 152.29 142.66 C 152.42 141.83 151.85 141.05 151.01 140.92 C 150.18 140.79 149.39 141.36 149.27 142.20 Z M 149.11 143.15 L 148.94 144.13 C 148.80 144.97 149.36 145.76 150.19 145.91 C 151.03 146.05 151.82 145.49 151.97 144.66 L 152.14 143.68 C 152.28 142.84 151.72 142.05 150.89 141.90 C 150.05 141.76 149.26 142.32 149.11 143.15 Z M 148.95 144.10 L 148.76 145.07 C 148.59 145.91 149.14 146.71 149.97 146.88 C 150.80 147.04 151.61 146.50 151.77 145.66 L 151.96 144.69 C 152.13 143.86 151.58 143.05 150.75 142.89 C 149.92 142.72 149.11 143.27 148.95 144.10 Z M 148.76 145.04 L 148.55 146.01 C 148.37 146.85 148.90 147.67 149.73 147.85 C 150.57 148.02 151.39 147.49 151.56 146.66 L 151.77 145.69 C 151.95 144.86 151.42 144.04 150.59 143.86 C 149.76 143.68 148.94 144.21 148.76 145.04 Z M 148.55 145.99 L 148.33 146.98 C 148.14 147.81 148.66 148.64 149.49 148.83 C 150.32 149.02 151.15 148.50 151.34 147.67 L 151.56 146.68 C 151.75 145.85 151.23 145.02 150.40 144.83 C 149.57 144.64 148.74 145.16 148.55 145.99 Z M 148.33 146.97 L 148.09 147.95 C 147.90 148.78 148.41 149.62 149.25 149.81 C 150.08 150.01 150.91 149.49 151.11 148.66 L 151.34 147.68 C 151.54 146.84 151.02 146.01 150.19 145.81 C 149.35 145.62 148.52 146.13 148.33 146.97 Z M 148.09 147.94 L 147.86 148.92 C 147.66 149.75 148.17 150.59 149.00 150.79 C 149.83 150.99 150.67 150.48 150.87 149.64 L 151.11 148.67 C 151.31 147.84 150.80 147.00 149.96 146.80 C 149.13 146.60 148.30 147.11 148.09 147.94 Z M 147.86 148.90 L 147.62 149.87 C 147.41 150.70 147.91 151.55 148.74 151.75 C 149.58 151.96 150.42 151.46 150.63 150.63 L 150.87 149.66 C 151.08 148.83 150.57 147.98 149.74 147.78 C 148.91 147.57 148.07 148.07 147.86 148.90 Z M 147.62 149.86 L 147.37 150.82 C 147.15 151.65 147.64 152.50 148.47 152.72 C 149.30 152.93 150.15 152.44 150.37 151.61 L 150.62 150.65 C 150.84 149.82 150.34 148.97 149.52 148.75 C 148.69 148.53 147.84 149.03 147.62 149.86 Z M 147.37 150.80 L 147.10 151.78 C 146.87 152.60 147.35 153.46 148.17 153.69 C 149.00 153.92 149.85 153.44 150.08 152.61 L 150.36 151.64 C 150.59 150.81 150.11 149.96 149.29 149.73 C 148.46 149.49 147.61 149.98 147.37 150.80 Z M 147.11 151.75 L 146.82 152.71 C 146.58 153.54 147.05 154.40 147.87 154.64 C 148.69 154.88 149.55 154.42 149.79 153.60 L 150.08 152.64 C 150.32 151.82 149.85 150.95 149.03 150.71 C 148.21 150.47 147.35 150.93 147.11 151.75 Z M 146.83 152.69 L 146.54 153.63 C 146.28 154.45 146.74 155.32 147.55 155.57 C 148.37 155.83 149.24 155.37 149.49 154.56 L 149.79 153.62 C 150.04 152.80 149.59 151.93 148.77 151.68 C 147.95 151.42 147.08 151.88 146.83 152.69 Z M 146.54 153.61 L 146.23 154.57 C 145.96 155.38 146.41 156.26 147.22 156.52 C 148.03 156.79 148.91 156.35 149.17 155.53 L 149.49 154.58 C 149.75 153.77 149.31 152.89 148.50 152.62 C 147.68 152.36 146.81 152.80 146.54 153.61 Z M 146.24 154.55 L 145.91 155.49 C 145.63 156.30 146.06 157.18 146.87 157.46 C 147.68 157.74 148.56 157.31 148.84 156.50 L 149.17 155.55 C 149.44 154.74 149.01 153.86 148.20 153.59 C 147.40 153.31 146.51 153.74 146.24 154.55 Z M 145.92 155.47 L 145.58 156.41 C 145.29 157.21 145.71 158.10 146.52 158.39 C 147.32 158.68 148.21 158.26 148.50 157.45 L 148.83 156.52 C 149.12 155.71 148.70 154.82 147.90 154.54 C 147.09 154.25 146.21 154.67 145.92 155.47 Z M 145.59 156.39 L 145.23 157.35 C 144.93 158.16 145.34 159.05 146.14 159.35 C 146.94 159.65 147.83 159.24 148.13 158.44 L 148.49 157.47 C 148.79 156.67 148.38 155.78 147.58 155.48 C 146.78 155.18 145.89 155.59 145.59 156.39 Z M 145.24 157.33 L 144.87 158.28 C 144.56 159.08 144.95 159.97 145.74 160.29 C 146.54 160.60 147.44 160.21 147.75 159.41 L 148.12 158.46 C 148.43 157.66 148.04 156.77 147.25 156.45 C 146.45 156.14 145.55 156.53 145.24 157.33 Z M 144.88 158.24 L 144.51 159.13 C 144.18 159.92 144.55 160.83 145.34 161.16 C 146.12 161.49 147.03 161.12 147.36 160.33 L 147.74 159.44 C 148.07 158.66 147.70 157.75 146.91 157.42 C 146.12 157.09 145.21 157.46 144.88 158.24 Z M 144.53 159.08 L 144.08 160.04 C 143.72 160.81 144.06 161.73 144.83 162.09 C 145.60 162.46 146.53 162.12 146.89 161.35 L 147.34 160.39 C 147.70 159.61 147.37 158.69 146.59 158.33 C 145.82 157.97 144.90 158.30 144.53 159.08 Z M 144.12 159.97 L 143.66 160.83 C 143.27 161.59 143.56 162.53 144.32 162.92 C 145.07 163.32 146.01 163.03 146.41 162.27 L 146.86 161.41 C 147.25 160.65 146.96 159.72 146.20 159.32 C 145.45 158.93 144.51 159.22 144.12 159.97 Z M 143.69 160.78 L 143.23 161.58 C 142.81 162.33 143.06 163.27 143.80 163.70 C 144.54 164.12 145.49 163.87 145.91 163.13 L 146.38 162.32 C 146.80 161.58 146.55 160.64 145.81 160.21 C 145.07 159.79 144.12 160.04 143.69 160.78 Z M 143.27 161.52 L 142.75 162.34 C 142.29 163.07 142.50 164.02 143.22 164.48 C 143.94 164.94 144.90 164.73 145.36 164.01 L 145.88 163.19 C 146.34 162.47 146.13 161.51 145.40 161.05 C 144.68 160.59 143.73 160.80 143.27 161.52 Z M 142.79 162.28 L 142.20 163.11 C 141.70 163.81 141.87 164.78 142.56 165.27 C 143.26 165.76 144.23 165.60 144.72 164.90 L 145.31 164.07 C 145.81 163.37 145.64 162.41 144.95 161.91 C 144.25 161.42 143.28 161.58 142.79 162.28 Z M 142.24 163.06 L 141.63 163.85 C 141.11 164.52 141.23 165.49 141.91 166.02 C 142.59 166.54 143.56 166.41 144.08 165.74 L 144.69 164.95 C 145.21 164.28 145.08 163.31 144.41 162.78 C 143.73 162.26 142.76 162.39 142.24 163.06 Z M 141.67 163.80 L 141.01 164.59 C 140.46 165.24 140.54 166.22 141.19 166.77 C 141.85 167.32 142.82 167.23 143.37 166.58 L 144.04 165.79 C 144.59 165.14 144.51 164.16 143.85 163.61 C 143.20 163.06 142.22 163.14 141.67 163.80 Z M 141.07 164.52 L 140.33 165.29 C 139.75 165.91 139.77 166.89 140.39 167.48 C 141.01 168.06 141.99 168.04 142.57 167.42 L 143.31 166.65 C 143.90 166.03 143.87 165.05 143.25 164.46 C 142.64 163.88 141.66 163.90 141.07 164.52 Z M 140.42 165.21 L 139.66 165.89 C 139.03 166.46 138.98 167.44 139.55 168.07 C 140.12 168.71 141.09 168.76 141.73 168.19 L 142.49 167.50 C 143.12 166.93 143.17 165.96 142.60 165.32 C 142.03 164.69 141.05 164.64 140.42 165.21 Z M 139.77 165.81 L 139.03 166.36 C 138.35 166.87 138.21 167.83 138.72 168.51 C 139.23 169.20 140.20 169.34 140.88 168.83 L 141.62 168.27 C 142.30 167.76 142.44 166.80 141.93 166.12 C 141.42 165.44 140.45 165.30 139.77 165.81 Z M 139.20 166.25 L 138.36 166.73 C 137.62 167.14 137.36 168.08 137.78 168.82 C 138.20 169.56 139.13 169.82 139.87 169.40 L 140.71 168.93 C 141.45 168.51 141.71 167.58 141.29 166.84 C 140.88 166.10 139.94 165.84 139.20 166.25 Z M 138.59 166.63 L 137.63 166.99 C 136.84 167.28 136.43 168.16 136.73 168.95 C 137.02 169.74 137.90 170.14 138.69 169.85 L 139.65 169.50 C 140.44 169.20 140.84 168.32 140.55 167.53 C 140.26 166.74 139.38 166.34 138.59 166.63 Z M 137.78 166.95 L 136.79 167.21 C 135.98 167.42 135.49 168.25 135.71 169.06 C 135.92 169.87 136.75 170.36 137.56 170.15 L 138.54 169.89 C 139.36 169.68 139.84 168.85 139.63 168.04 C 139.42 167.22 138.59 166.74 137.78 166.95 Z M 136.90 167.19 L 135.88 167.38 C 135.05 167.53 134.51 168.32 134.67 169.15 C 134.82 169.97 135.61 170.51 136.43 170.36 L 137.46 170.17 C 138.28 170.01 138.82 169.22 138.67 168.40 C 138.51 167.57 137.72 167.03 136.90 167.19 Z M 136.04 167.36 L 135.02 167.44 C 134.19 167.51 133.57 168.23 133.64 169.06 C 133.70 169.89 134.43 170.51 135.26 170.45 L 136.27 170.37 C 137.10 170.31 137.72 169.58 137.66 168.75 C 137.59 167.92 136.87 167.30 136.04 167.36 Z M 135.33 167.47 L 134.34 167.35 C 133.52 167.24 132.78 167.82 132.67 168.64 C 132.57 169.45 133.15 170.20 133.96 170.30 L 134.95 170.42 C 135.77 170.53 136.51 169.95 136.62 169.13 C 136.72 168.32 136.14 167.57 135.33 167.47 Z M 134.52 167.40 L 134.12 167.30 C 133.33 167.09 132.53 167.56 132.33 168.35 C 132.12 169.13 132.59 169.93 133.38 170.14 L 133.78 170.24 C 134.57 170.44 135.37 169.97 135.57 169.19 C 135.77 168.41 135.30 167.61 134.52 167.40 Z"
      fill="black"
      fill-rule="nonzero" /></svg>