<svg xmlns="http://www.w3.org/2000/svg" width="300" height="300" viewBox="0 0 300 300">
<path d="M 133.25 137.96 L 133.25 138.98 C 133.25 139.84 133.94 140.53 134.80 140.53 C 135.65 140.53 136.35 139.84 136.35 138.98 L 136.35 137.96 C 136.35 137.11 135.65 136.41 134.80 136.41 C 133.94 136.41 133.25 137.11 133.25 137.96 Z M 133.25 138.98 L 133.25 139.96 C 133.25 140.82 133.94 141.51 134.80 141.51 C 135.66 141.51 136.35 140.82 136.35 139.96 L 136.35 138.98 C 136.35 138.12 135.66 137.43 134.80 137.43 C 133.94 137.43 133.25 138.12 133.25 138.98 Z M 133.24 139.96 L 133.24 140.94 C 133.24 141.80 133.94 142.49 134.80 142.49 C 135.66 142.49 136.35 141.80 136.35 140.94 L 136.35 139.96 C 136.35 139.10 135.66 138.41 134.80 138.41 C 133.94 138.41 133.24 139.10 133.24 139.96 Z M 133.24 140.94 L 133.24 141.94 C 133.24 142.79 133.94 143.49 134.80 143.49 C 135.66 143.49 136.35 142.79 136.35 141.94 L 136.35 140.94 C 136.35 140.08 135.66 139.39 134.80 139.39 C 133.94 139.39 133.24 140.08 133.24 140.94 Z M 133.24 141.94 L 133.24 142.92 C 133.24 143.78 133.94 144.47 134.80 144.47 C 135.66 144.47 136.35 143.78 136.35 142.92 L 136.35 141.94 C 136.35 141.08 135.66 140.38 134.80 140.38 C 133.94 140.38 133.24 141.08 133.24 141.94 Z M 133.24 142.92 L 133.24 143.96 C 133.24 144.82 133.94 145.52 134.80 145.52 C 135.66 145.52 136.35 144.82 136.35 143.96 L 136.35 142.92 C 136.35 142.06 135.66 141.37 134.80 141.37 C 133.94 141.37 133.24 142.06 133.24 142.92 Z M 133.25 143.96 L 133.25 144.98 C 133.25 145.83 133.94 146.53 134.80 146.53 C 135.65 146.53 136.35 145.83 136.35 144.98 L 136.35 143.96 C 136.35 143.11 135.65 142.41 134.80 142.41 C 133.94 142.41 133.25 143.11 133.25 143.96 Z M 133.25 144.98 L 133.25 145.97 C 133.25 146.83 133.94 147.52 134.80 147.52 C 135.65 147.52 136.35 146.83 136.35 145.97 L 136.35 144.98 C 136.35 144.12 135.65 143.43 134.80 143.43 C 133.94 143.43 133.25 144.12 133.25 144.98 Z M 133.25 145.97 L 133.25 146.98 C 133.25 147.83 133.94 148.53 134.80 148.53 C 135.65 148.53 136.34 147.84 136.34 146.98 L 136.34 145.97 C 136.34 145.12 135.65 144.43 134.80 144.43 C 133.95 144.42 133.25 145.12 133.25 145.97 Z M 133.26 146.97 L 133.25 147.96 C 133.25 148.81 133.93 149.50 134.78 149.51 C 135.63 149.51 136.32 148.83 136.33 147.98 L 136.34 146.99 C 136.34 146.14 135.66 145.45 134.81 145.44 C 133.96 145.44 133.26 146.12 133.26 146.97 Z M 133.26 147.94 L 133.24 148.96 C 133.23 149.80 133.90 150.50 134.75 150.51 C 135.59 150.53 136.29 149.85 136.30 149.01 L 136.32 148.00 C 136.34 147.15 135.66 146.45 134.82 146.44 C 133.97 146.42 133.28 147.10 133.26 147.94 Z M 133.25 148.93 L 133.22 149.93 C 133.19 150.78 133.85 151.48 134.69 151.51 C 135.53 151.53 136.24 150.87 136.26 150.03 L 136.29 149.03 C 136.32 148.19 135.66 147.49 134.82 147.46 C 133.98 147.43 133.28 148.09 133.25 148.93 Z M 133.24 149.91 L 133.18 150.92 C 133.14 151.75 133.78 152.46 134.61 152.50 C 135.44 152.54 136.15 151.91 136.19 151.07 L 136.25 150.06 C 136.29 149.23 135.65 148.52 134.82 148.48 C 133.99 148.44 133.28 149.07 133.24 149.91 Z M 133.21 150.89 L 133.14 151.86 C 133.08 152.68 133.70 153.39 134.51 153.44 C 135.33 153.50 136.04 152.89 136.10 152.07 L 136.17 151.10 C 136.23 150.28 135.61 149.57 134.79 149.52 C 133.98 149.46 133.27 150.07 133.21 150.89 Z M 133.16 151.85 L 133.15 151.97 C 133.08 152.78 133.69 153.48 134.50 153.54 C 135.31 153.61 136.01 153.00 136.07 152.19 L 136.08 152.08 C 136.14 151.27 135.54 150.56 134.73 150.50 C 133.92 150.44 133.22 151.05 133.16 151.85 Z"
      fill="black"
      fill-rule="nonzero" /><path d="M 134.49 135.83 L 134.84 136.77 C 135.12 137.53 135.97 137.91 136.73 137.63 C 137.48 137.35 137.87 136.50 137.59 135.74 L 137.23 134.80 C 136.95 134.05 136.11 133.66 135.35 133.94 C 134.59 134.23 134.20 135.07 134.49 135.83 Z M 135.40 137.52 L 136.13 137.99 C 136.83 138.44 137.76 138.24 138.21 137.54 C 138.65 136.85 138.45 135.92 137.76 135.47 L 137.02 135.00 C 136.33 134.55 135.40 134.75 134.95 135.45 C 134.50 136.14 134.71 137.07 135.40 137.52 Z M 136.78 138.25 L 137.80 138.36 C 138.64 138.44 139.39 137.84 139.48 137.00 C 139.57 136.16 138.96 135.41 138.12 135.32 L 137.11 135.21 C 136.27 135.12 135.52 135.73 135.43 136.57 C 135.34 137.41 135.95 138.16 136.78 138.25 Z M 137.91 138.38 L 138.98 138.42 C 139.84 138.45 140.55 137.79 140.58 136.93 C 140.61 136.08 139.95 135.37 139.10 135.34 L 138.02 135.30 C 137.17 135.26 136.45 135.93 136.42 136.78 C 136.39 137.63 137.05 138.35 137.91 138.38 Z M 138.96 138.43 L 139.97 138.48 C 140.82 138.53 141.55 137.87 141.60 137.01 C 141.64 136.16 140.99 135.43 140.13 135.38 L 139.12 135.33 C 138.27 135.28 137.53 135.94 137.49 136.80 C 137.44 137.65 138.10 138.38 138.96 138.43 Z M 139.97 138.48 L 140.97 138.54 C 141.83 138.58 142.56 137.92 142.60 137.06 C 142.65 136.21 141.99 135.47 141.13 135.43 L 140.13 135.38 C 139.27 135.33 138.54 135.99 138.50 136.85 C 138.45 137.71 139.11 138.44 139.97 138.48 Z M 140.98 138.53 L 141.95 138.58 C 142.81 138.62 143.53 137.96 143.57 137.10 C 143.62 136.25 142.96 135.52 142.10 135.48 L 141.12 135.44 C 140.27 135.39 139.54 136.05 139.50 136.91 C 139.46 137.76 140.12 138.49 140.98 138.53 Z M 141.92 138.57 L 142.89 138.64 C 143.74 138.70 144.48 138.05 144.54 137.20 C 144.60 136.35 143.96 135.62 143.11 135.56 L 142.14 135.49 C 141.29 135.43 140.55 136.07 140.49 136.92 C 140.43 137.77 141.07 138.51 141.92 138.57 Z M 142.87 138.63 L 143.87 138.72 C 144.72 138.79 145.47 138.15 145.54 137.31 C 145.61 136.46 144.97 135.71 144.13 135.64 L 143.12 135.56 C 142.28 135.49 141.53 136.12 141.46 136.97 C 141.39 137.82 142.02 138.56 142.87 138.63 Z M 143.88 138.72 L 144.86 138.79 C 145.71 138.86 146.46 138.23 146.52 137.38 C 146.59 136.53 145.95 135.78 145.10 135.72 L 144.12 135.64 C 143.27 135.58 142.53 136.21 142.46 137.06 C 142.40 137.91 143.03 138.65 143.88 138.72 Z M 144.85 138.79 L 145.86 138.88 C 146.71 138.95 147.46 138.32 147.53 137.47 C 147.61 136.63 146.98 135.88 146.13 135.81 L 145.12 135.72 C 144.27 135.65 143.52 136.27 143.45 137.12 C 143.37 137.97 144.00 138.72 144.85 138.79 Z M 145.84 138.88 L 146.84 138.98 C 147.69 139.06 148.44 138.44 148.53 137.59 C 148.61 136.75 147.99 135.99 147.14 135.91 L 146.15 135.81 C 145.30 135.72 144.54 136.34 144.46 137.19 C 144.38 138.04 144.99 138.79 145.84 138.88 Z M 146.83 138.98 L 147.83 139.08 C 148.68 139.17 149.44 138.56 149.53 137.71 C 149.62 136.86 149.00 136.10 148.15 136.01 L 147.15 135.91 C 146.31 135.82 145.55 136.43 145.46 137.28 C 145.37 138.13 145.98 138.89 146.83 138.98 Z M 147.83 139.08 L 148.82 139.19 C 149.67 139.28 150.43 138.66 150.52 137.82 C 150.61 136.97 150.00 136.21 149.15 136.12 L 148.16 136.01 C 147.31 135.92 146.55 136.54 146.46 137.38 C 146.37 138.23 146.98 138.99 147.83 139.08 Z M 148.82 139.18 L 149.80 139.29 C 150.65 139.38 151.41 138.77 151.50 137.92 C 151.59 137.08 150.98 136.32 150.13 136.23 L 149.15 136.12 C 148.30 136.03 147.54 136.64 147.45 137.49 C 147.36 138.33 147.98 139.09 148.82 139.18 Z M 149.80 139.29 L 150.79 139.40 C 151.64 139.49 152.40 138.89 152.49 138.04 C 152.59 137.20 151.98 136.44 151.14 136.34 L 150.14 136.23 C 149.30 136.13 148.53 136.74 148.44 137.59 C 148.34 138.43 148.95 139.19 149.80 139.29 Z M 150.78 139.39 L 151.78 139.52 C 152.62 139.62 153.39 139.02 153.49 138.18 C 153.60 137.34 153.00 136.57 152.16 136.47 L 151.15 136.35 C 150.31 136.24 149.54 136.84 149.44 137.68 C 149.34 138.53 149.94 139.29 150.78 139.39 Z M 151.79 139.51 L 152.78 139.63 C 153.62 139.73 154.38 139.13 154.48 138.29 C 154.58 137.46 153.99 136.69 153.15 136.59 L 152.15 136.47 C 151.31 136.37 150.55 136.97 150.45 137.81 C 150.35 138.65 150.95 139.41 151.79 139.51 Z M 152.82 139.63 L 153.83 139.73 C 154.67 139.81 155.41 139.20 155.50 138.36 C 155.58 137.52 154.96 136.77 154.13 136.69 L 153.11 136.59 C 152.27 136.51 151.53 137.12 151.45 137.96 C 151.36 138.80 151.98 139.55 152.82 139.63 Z M 153.86 139.73 L 154.83 139.81 C 155.67 139.87 156.40 139.24 156.47 138.41 C 156.53 137.57 155.91 136.84 155.07 136.77 L 154.10 136.69 C 153.26 136.63 152.52 137.25 152.46 138.09 C 152.39 138.93 153.02 139.66 153.86 139.73 Z M 154.83 139.80 L 155.84 139.88 C 156.68 139.94 157.41 139.32 157.47 138.48 C 157.54 137.64 156.91 136.91 156.07 136.85 L 155.07 136.77 C 154.23 136.71 153.50 137.33 153.43 138.17 C 153.37 139.01 154.00 139.74 154.83 139.80 Z M 155.83 139.88 L 156.79 139.96 C 157.63 140.03 158.36 139.41 158.43 138.57 C 158.50 137.74 157.88 137.00 157.04 136.93 L 156.08 136.85 C 155.25 136.78 154.52 137.40 154.45 138.24 C 154.38 139.07 155.00 139.81 155.83 139.88 Z M 156.79 139.95 L 157.77 140.04 C 158.60 140.11 159.34 139.49 159.40 138.65 C 159.47 137.82 158.85 137.09 158.02 137.02 L 157.04 136.94 C 156.21 136.87 155.48 137.49 155.41 138.32 C 155.34 139.15 155.96 139.88 156.79 139.95 Z M 157.79 140.04 L 158.79 140.10 C 159.62 140.16 160.34 139.53 160.40 138.69 C 160.46 137.86 159.83 137.14 158.99 137.08 L 158.00 137.02 C 157.16 136.96 156.44 137.59 156.39 138.43 C 156.33 139.26 156.96 139.98 157.79 140.04 Z M 158.79 140.10 L 159.80 140.17 C 160.63 140.23 161.35 139.60 161.41 138.77 C 161.47 137.94 160.84 137.22 160.01 137.16 L 159.00 137.09 C 158.16 137.03 157.44 137.66 157.38 138.49 C 157.33 139.32 157.95 140.04 158.79 140.10 Z M 159.75 140.17 L 160.84 140.28 C 161.67 140.37 162.41 139.77 162.50 138.94 C 162.59 138.11 161.99 137.37 161.16 137.28 L 160.06 137.16 C 159.23 137.08 158.49 137.68 158.40 138.51 C 158.32 139.34 158.92 140.08 159.75 140.17 Z M 160.66 140.26 L 161.69 140.50 C 162.51 140.68 163.32 140.17 163.51 139.35 C 163.70 138.53 163.19 137.72 162.37 137.53 L 161.34 137.30 C 160.52 137.11 159.70 137.62 159.51 138.44 C 159.33 139.26 159.84 140.08 160.66 140.26 Z M 160.98 140.14 L 161.56 140.68 C 162.18 141.26 163.15 141.22 163.73 140.59 C 164.31 139.97 164.27 139.00 163.65 138.42 L 163.08 137.88 C 162.45 137.31 161.48 137.34 160.90 137.97 C 160.32 138.59 160.36 139.56 160.98 140.14 Z M 161.04 139.52 L 161.03 140.54 C 161.02 141.40 161.70 142.11 162.56 142.12 C 163.42 142.13 164.13 141.45 164.15 140.59 L 164.16 139.57 C 164.17 138.71 163.49 138.00 162.63 137.99 C 161.77 137.98 161.06 138.66 161.04 139.52 Z M 161.02 140.59 L 161.04 141.58 C 161.05 142.45 161.77 143.13 162.64 143.12 C 163.50 143.10 164.19 142.38 164.18 141.52 L 164.16 140.53 C 164.14 139.66 163.42 138.98 162.56 138.99 C 161.69 139.01 161.00 139.72 161.02 140.59 Z M 161.04 141.69 L 161.13 142.67 C 161.20 143.54 161.97 144.18 162.84 144.10 C 163.70 144.02 164.34 143.26 164.26 142.39 L 164.18 141.41 C 164.10 140.54 163.33 139.90 162.46 139.98 C 161.60 140.06 160.96 140.82 161.04 141.69 Z M 161.12 142.64 L 161.18 143.58 C 161.24 144.45 162.00 145.11 162.87 145.05 C 163.74 144.99 164.40 144.23 164.34 143.36 L 164.27 142.42 C 164.21 141.55 163.46 140.89 162.58 140.95 C 161.71 141.02 161.06 141.77 161.12 142.64 Z M 161.18 143.52 L 161.21 144.58 C 161.24 145.46 161.98 146.14 162.85 146.11 C 163.73 146.08 164.41 145.35 164.38 144.47 L 164.35 143.42 C 164.32 142.54 163.58 141.85 162.71 141.88 C 161.83 141.92 161.15 142.65 161.18 143.52 Z M 161.21 144.54 L 161.22 145.52 C 161.23 146.40 161.95 147.10 162.83 147.09 C 163.71 147.08 164.41 146.36 164.40 145.48 L 164.39 144.51 C 164.38 143.63 163.66 142.92 162.78 142.94 C 161.90 142.95 161.20 143.67 161.21 144.54 Z M 161.22 145.50 L 161.22 146.54 C 161.22 147.42 161.94 148.14 162.82 148.13 C 163.70 148.13 164.41 147.41 164.41 146.53 L 164.40 145.49 C 164.40 144.61 163.68 143.90 162.80 143.91 C 161.92 143.91 161.21 144.62 161.22 145.50 Z M 161.22 146.54 L 161.22 147.57 C 161.22 148.45 161.93 149.16 162.81 149.16 C 163.69 149.16 164.41 148.45 164.41 147.57 L 164.41 146.54 C 164.41 145.66 163.69 144.94 162.81 144.94 C 161.93 144.94 161.22 145.66 161.22 146.54 Z M 161.22 147.54 L 161.20 148.54 C 161.19 149.42 161.89 150.14 162.77 150.16 C 163.65 150.17 164.38 149.47 164.39 148.59 L 164.41 147.59 C 164.42 146.71 163.72 145.99 162.84 145.97 C 161.96 145.96 161.23 146.66 161.22 147.54 Z M 161.20 148.46 L 161.14 149.45 C 161.09 150.33 161.76 151.09 162.64 151.14 C 163.52 151.20 164.28 150.53 164.33 149.65 L 164.39 148.66 C 164.44 147.78 163.77 147.02 162.89 146.97 C 162.01 146.91 161.26 147.58 161.20 148.46 Z M 161.15 149.35 L 161.03 150.32 C 160.91 151.19 161.53 151.99 162.41 152.11 C 163.28 152.22 164.08 151.60 164.19 150.73 L 164.32 149.75 C 164.43 148.88 163.81 148.08 162.94 147.97 C 162.06 147.85 161.26 148.47 161.15 149.35 Z M 161.04 150.23 L 160.86 151.21 C 160.69 152.08 161.26 152.91 162.13 153.08 C 162.99 153.24 163.83 152.67 163.99 151.80 L 164.18 150.82 C 164.34 149.95 163.77 149.12 162.91 148.95 C 162.04 148.79 161.21 149.36 161.04 150.23 Z M 160.87 151.14 L 160.64 152.13 C 160.43 152.99 160.96 153.85 161.82 154.05 C 162.68 154.25 163.54 153.72 163.74 152.87 L 163.98 151.88 C 164.18 151.02 163.65 150.16 162.79 149.95 C 161.94 149.75 161.07 150.28 160.87 151.14 Z M 160.65 152.07 L 160.38 153.05 C 160.14 153.90 160.63 154.78 161.48 155.02 C 162.33 155.25 163.22 154.76 163.45 153.91 L 163.73 152.93 C 163.97 152.08 163.47 151.20 162.62 150.96 C 161.77 150.72 160.89 151.22 160.65 152.07 Z M 160.39 152.99 L 160.09 153.95 C 159.82 154.79 160.28 155.69 161.12 155.95 C 161.96 156.22 162.86 155.76 163.13 154.92 L 163.44 153.96 C 163.71 153.12 163.24 152.22 162.40 151.96 C 161.56 151.69 160.66 152.15 160.39 152.99 Z M 160.11 153.89 L 159.77 154.82 C 159.48 155.65 159.91 156.57 160.74 156.87 C 161.57 157.16 162.48 156.73 162.78 155.90 L 163.11 154.97 C 163.41 154.14 162.98 153.23 162.15 152.93 C 161.32 152.63 160.40 153.06 160.11 153.89 Z M 159.79 154.78 L 159.42 155.71 C 159.10 156.53 159.50 157.46 160.32 157.78 C 161.14 158.10 162.07 157.70 162.39 156.88 L 162.76 155.95 C 163.09 155.13 162.68 154.20 161.86 153.88 C 161.04 153.55 160.12 153.95 159.79 154.78 Z M 159.45 155.65 L 159.04 156.57 C 158.69 157.37 159.06 158.31 159.86 158.67 C 160.67 159.03 161.61 158.66 161.97 157.85 L 162.37 156.94 C 162.73 156.13 162.36 155.19 161.55 154.83 C 160.75 154.48 159.80 154.84 159.45 155.65 Z M 159.08 156.50 L 158.63 157.39 C 158.24 158.18 158.56 159.14 159.35 159.53 C 160.14 159.92 161.10 159.60 161.49 158.81 L 161.94 157.92 C 162.33 157.13 162.01 156.17 161.22 155.78 C 160.43 155.39 159.47 155.71 159.08 156.50 Z M 158.68 157.31 L 158.17 158.20 C 157.74 158.96 158.01 159.94 158.77 160.37 C 159.54 160.81 160.51 160.54 160.95 159.77 L 161.45 158.89 C 161.89 158.12 161.62 157.15 160.85 156.71 C 160.08 156.28 159.11 156.54 158.68 157.31 Z M 158.22 158.12 L 157.68 158.96 C 157.20 159.70 157.41 160.69 158.15 161.17 C 158.89 161.65 159.88 161.43 160.36 160.69 L 160.90 159.85 C 161.38 159.11 161.17 158.12 160.43 157.64 C 159.68 157.17 158.70 157.38 158.22 158.12 Z M 157.73 158.88 L 157.15 159.68 C 156.63 160.39 156.78 161.39 157.49 161.91 C 158.20 162.43 159.20 162.28 159.72 161.57 L 160.30 160.77 C 160.83 160.06 160.67 159.06 159.96 158.54 C 159.25 158.02 158.25 158.17 157.73 158.88 Z M 157.22 159.59 L 156.56 160.37 C 156.00 161.04 156.08 162.05 156.75 162.61 C 157.43 163.18 158.43 163.10 159.00 162.42 L 159.65 161.65 C 160.22 160.98 160.14 159.97 159.46 159.41 C 158.79 158.84 157.78 158.92 157.22 159.59 Z M 156.64 160.29 L 155.95 161.00 C 155.34 161.63 155.36 162.64 155.99 163.25 C 156.63 163.86 157.63 163.84 158.24 163.21 L 158.93 162.50 C 159.54 161.87 159.52 160.86 158.89 160.25 C 158.25 159.64 157.25 159.66 156.64 160.29 Z M 156.02 160.94 L 155.30 161.61 C 154.66 162.20 154.62 163.21 155.21 163.85 C 155.81 164.49 156.81 164.53 157.46 163.94 L 158.18 163.27 C 158.82 162.67 158.86 161.67 158.26 161.03 C 157.67 160.38 156.66 160.34 156.02 160.94 Z M 155.36 161.57 L 154.60 162.21 C 153.93 162.78 153.85 163.77 154.41 164.44 C 154.98 165.10 155.97 165.18 156.64 164.62 L 157.40 163.98 C 158.06 163.41 158.15 162.42 157.58 161.75 C 157.02 161.09 156.02 161.00 155.36 161.57 Z M 154.65 162.19 L 153.85 162.81 C 153.17 163.35 153.06 164.34 153.59 165.02 C 154.13 165.69 155.11 165.81 155.79 165.27 L 156.59 164.65 C 157.27 164.11 157.38 163.12 156.85 162.45 C 156.31 161.77 155.32 161.65 154.65 162.19 Z M 153.90 162.80 L 153.10 163.39 C 152.41 163.90 152.26 164.87 152.77 165.56 C 153.28 166.25 154.25 166.40 154.94 165.89 L 155.74 165.29 C 156.43 164.78 156.58 163.81 156.07 163.12 C 155.56 162.43 154.59 162.29 153.90 162.80 Z M 153.17 163.36 L 152.34 163.92 C 151.63 164.39 151.44 165.34 151.91 166.04 C 152.37 166.74 153.32 166.94 154.03 166.47 L 154.86 165.91 C 155.57 165.45 155.76 164.50 155.29 163.79 C 154.82 163.09 153.88 162.90 153.17 163.36 Z M 152.44 163.88 L 151.56 164.37 C 150.84 164.78 150.58 165.70 150.98 166.42 C 151.39 167.15 152.31 167.41 153.04 167.00 L 153.92 166.51 C 154.64 166.10 154.90 165.18 154.50 164.46 C 154.09 163.73 153.17 163.47 152.44 163.88 Z M 151.69 164.33 L 150.77 164.74 C 150.02 165.08 149.69 165.96 150.03 166.71 C 150.37 167.46 151.25 167.80 152.00 167.46 L 152.91 167.04 C 153.66 166.71 154.00 165.82 153.66 165.07 C 153.32 164.32 152.44 163.99 151.69 164.33 Z M 150.89 164.72 L 149.96 165.05 C 149.20 165.32 148.80 166.16 149.07 166.93 C 149.35 167.69 150.19 168.09 150.96 167.82 L 151.88 167.49 C 152.65 167.21 153.05 166.37 152.77 165.60 C 152.50 164.84 151.66 164.44 150.89 164.72 Z M 150.07 165.03 L 149.10 165.30 C 148.33 165.52 147.87 166.32 148.09 167.10 C 148.31 167.87 149.11 168.32 149.89 168.11 L 150.85 167.83 C 151.63 167.62 152.08 166.81 151.86 166.04 C 151.64 165.27 150.84 164.81 150.07 165.03 Z M 149.16 165.30 L 148.19 165.53 C 147.42 165.71 146.94 166.49 147.12 167.26 C 147.30 168.04 148.08 168.52 148.85 168.33 L 149.82 168.11 C 150.60 167.93 151.08 167.15 150.90 166.38 C 150.71 165.60 149.94 165.12 149.16 165.30 Z M 148.21 165.53 L 147.88 165.61 C 147.10 165.78 146.62 166.54 146.79 167.32 C 146.96 168.09 147.72 168.57 148.50 168.40 L 148.83 168.33 C 149.60 168.16 150.09 167.39 149.92 166.62 C 149.75 165.85 148.98 165.36 148.21 165.53 Z"
      fill="black"
      fill-rule="nonzero" /></svg>