<svg xmlns="http://www.w3.org/2000/svg" width="300" height="300" viewBox="0 0 300 300">
<path d="M 131.75 142.28 L 130.75 142.25 C 129.89 142.23 129.17 142.91 129.15 143.77 C 129.13 144.63 129.81 145.35 130.67 145.37 L 131.67 145.39 C 132.53 145.41 133.24 144.73 133.26 143.87 C 133.29 143.01 132.61 142.30 131.75 142.28 Z M 130.92 145.46 L 131.55 145.38 C 132.46 145.26 133.11 144.43 132.99 143.52 C 132.88 142.61 132.04 141.96 131.13 142.08 L 130.50 142.16 C 129.59 142.28 128.94 143.11 129.06 144.02 C 129.18 144.93 130.01 145.57 130.92 145.46 Z M 131.49 145.40 L 132.77 145.29 C 133.69 145.20 134.37 144.38 134.29 143.46 C 134.21 142.54 133.39 141.86 132.47 141.94 L 131.19 142.06 C 130.27 142.14 129.59 142.96 129.67 143.88 C 129.75 144.80 130.57 145.49 131.49 145.40 Z M 132.78 145.29 L 133.82 145.19 C 134.74 145.10 135.42 144.28 135.33 143.35 C 135.25 142.43 134.42 141.75 133.50 141.84 L 132.46 141.94 C 131.53 142.02 130.85 142.85 130.94 143.77 C 131.03 144.70 131.85 145.38 132.78 145.29 Z M 133.83 145.19 L 134.82 145.08 C 135.75 144.99 136.42 144.16 136.32 143.23 C 136.22 142.31 135.39 141.64 134.47 141.73 L 133.48 141.84 C 132.56 141.94 131.89 142.77 131.98 143.69 C 132.08 144.62 132.91 145.29 133.83 145.19 Z M 134.85 145.07 L 135.87 144.94 C 136.79 144.83 137.44 143.99 137.33 143.07 C 137.21 142.15 136.37 141.50 135.45 141.62 L 134.43 141.74 C 133.51 141.86 132.86 142.70 132.98 143.62 C 133.10 144.54 133.94 145.19 134.85 145.07 Z M 135.90 144.93 L 136.84 144.79 C 137.75 144.66 138.38 143.81 138.24 142.90 C 138.11 141.99 137.27 141.36 136.36 141.50 L 135.42 141.63 C 134.51 141.77 133.88 142.61 134.02 143.52 C 134.15 144.43 134.99 145.06 135.90 144.93 Z M 136.82 144.77 L 137.79 144.64 C 138.69 144.52 139.33 143.70 139.21 142.80 C 139.09 141.90 138.26 141.26 137.36 141.38 L 136.38 141.51 C 135.48 141.63 134.85 142.46 134.97 143.36 C 135.09 144.26 135.92 144.89 136.82 144.77 Z M 137.80 144.62 L 138.79 144.48 C 139.68 144.36 140.30 143.54 140.18 142.66 C 140.06 141.77 139.24 141.15 138.35 141.27 L 137.36 141.41 C 136.47 141.53 135.85 142.35 135.97 143.23 C 136.09 144.12 136.91 144.74 137.80 144.62 Z M 138.83 144.46 L 139.82 144.29 C 140.69 144.15 141.28 143.32 141.14 142.45 C 141.00 141.58 140.17 140.99 139.30 141.13 L 138.31 141.30 C 137.44 141.44 136.85 142.27 136.99 143.14 C 137.14 144.01 137.96 144.60 138.83 144.46 Z M 139.84 144.27 L 140.81 144.09 C 141.67 143.94 142.24 143.12 142.09 142.26 C 141.94 141.40 141.12 140.83 140.26 140.98 L 139.28 141.16 C 138.43 141.31 137.85 142.13 138.01 142.99 C 138.16 143.85 138.98 144.42 139.84 144.27 Z M 140.81 144.07 L 141.78 143.90 C 142.63 143.75 143.19 142.95 143.05 142.10 C 142.90 141.25 142.09 140.69 141.25 140.84 L 140.27 141.01 C 139.42 141.15 138.86 141.96 139.00 142.81 C 139.15 143.65 139.96 144.22 140.81 144.07 Z M 141.76 143.88 L 142.67 143.73 C 143.50 143.60 144.07 142.81 143.93 141.97 C 143.80 141.13 143.01 140.57 142.17 140.70 L 141.26 140.85 C 140.43 140.99 139.86 141.78 140.00 142.62 C 140.14 143.45 140.93 144.02 141.76 143.88 Z M 142.64 143.72 L 143.70 143.56 C 144.53 143.44 145.10 142.67 144.98 141.84 C 144.86 141.01 144.09 140.44 143.26 140.56 L 142.20 140.72 C 141.37 140.84 140.79 141.61 140.92 142.44 C 141.04 143.27 141.81 143.84 142.64 143.72 Z M 143.69 143.55 L 144.69 143.41 C 145.52 143.30 146.09 142.54 145.98 141.72 C 145.86 140.90 145.11 140.32 144.28 140.43 L 143.27 140.57 C 142.45 140.69 141.88 141.45 141.99 142.27 C 142.10 143.09 142.86 143.66 143.69 143.55 Z M 144.69 143.40 L 145.69 143.27 C 146.51 143.16 147.08 142.41 146.98 141.59 C 146.87 140.77 146.12 140.20 145.30 140.31 L 144.29 140.44 C 143.47 140.55 142.90 141.30 143.01 142.12 C 143.12 142.94 143.87 143.51 144.69 143.40 Z M 145.68 143.25 L 146.71 143.12 C 147.52 143.02 148.09 142.28 147.99 141.47 C 147.88 140.66 147.14 140.09 146.34 140.19 L 145.31 140.33 C 144.50 140.43 143.93 141.17 144.03 141.98 C 144.14 142.78 144.87 143.35 145.68 143.25 Z M 146.67 143.10 L 147.61 143.01 C 148.41 142.93 148.99 142.22 148.91 141.42 C 148.83 140.62 148.12 140.04 147.33 140.12 L 146.38 140.21 C 145.58 140.29 145.00 141.01 145.08 141.80 C 145.16 142.60 145.87 143.18 146.67 143.10 Z M 147.55 142.99 L 148.50 142.94 C 149.29 142.89 149.90 142.21 149.85 141.42 C 149.80 140.63 149.13 140.03 148.34 140.08 L 147.39 140.13 C 146.60 140.18 145.99 140.86 146.04 141.65 C 146.09 142.44 146.76 143.04 147.55 142.99 Z M 148.47 142.93 L 149.50 142.90 C 150.29 142.87 150.90 142.20 150.87 141.42 C 150.84 140.63 150.18 140.01 149.39 140.04 L 148.37 140.08 C 147.58 140.11 146.96 140.77 146.99 141.56 C 147.02 142.35 147.68 142.96 148.47 142.93 Z M 149.49 142.89 L 149.87 142.88 C 150.66 142.86 151.27 142.20 151.25 141.41 C 151.23 140.62 150.57 140.01 149.78 140.03 L 149.40 140.04 C 148.61 140.07 148.00 140.73 148.02 141.51 C 148.05 142.30 148.70 142.92 149.49 142.89 Z"
      fill="black"
      fill-rule="nonzero" /><path d="M 142.29 135.03 L 141.17 135.05 C 140.31 135.07 139.63 135.77 139.65 136.63 C 139.67 137.48 140.37 138.16 141.23 138.15 L 142.35 138.13 C 143.20 138.11 143.88 137.40 143.87 136.55 C 143.85 135.69 143.14 135.01 142.29 135.03 Z M 140.45 135.18 L 139.75 135.55 C 138.97 135.96 138.66 136.93 139.08 137.71 C 139.49 138.50 140.46 138.80 141.24 138.39 L 141.94 138.02 C 142.73 137.61 143.03 136.64 142.62 135.85 C 142.21 135.07 141.24 134.77 140.45 135.18 Z M 138.87 136.81 L 138.79 137.66 C 138.70 138.56 139.35 139.35 140.25 139.44 C 141.15 139.53 141.95 138.88 142.04 137.98 L 142.12 137.13 C 142.21 136.23 141.55 135.43 140.65 135.34 C 139.76 135.26 138.96 135.91 138.87 136.81 Z M 138.80 138.14 L 139.03 139.27 C 139.20 140.15 140.07 140.73 140.95 140.56 C 141.84 140.38 142.42 139.52 142.24 138.63 L 142.02 137.50 C 141.84 136.61 140.98 136.03 140.09 136.21 C 139.20 136.39 138.63 137.25 138.80 138.14 Z M 139.03 139.31 L 139.26 140.32 C 139.46 141.21 140.34 141.76 141.23 141.56 C 142.11 141.36 142.67 140.48 142.47 139.60 L 142.24 138.58 C 142.04 137.70 141.16 137.14 140.27 137.34 C 139.39 137.54 138.83 138.42 139.03 139.31 Z M 139.26 140.31 L 139.47 141.28 C 139.66 142.16 140.54 142.73 141.42 142.53 C 142.31 142.34 142.88 141.46 142.68 140.58 L 142.47 139.61 C 142.28 138.72 141.40 138.16 140.51 138.35 C 139.63 138.54 139.06 139.42 139.26 140.31 Z M 139.46 141.24 L 139.65 142.24 C 139.83 143.13 140.69 143.71 141.58 143.54 C 142.48 143.37 143.06 142.50 142.89 141.61 L 142.69 140.61 C 142.52 139.72 141.65 139.14 140.76 139.31 C 139.87 139.48 139.28 140.35 139.46 141.24 Z M 139.64 142.19 L 139.80 143.14 C 139.95 144.04 140.79 144.65 141.69 144.50 C 142.59 144.35 143.20 143.51 143.05 142.61 L 142.89 141.66 C 142.75 140.76 141.90 140.15 141.00 140.30 C 140.10 140.45 139.50 141.29 139.64 142.19 Z M 139.80 143.12 L 139.94 144.08 C 140.07 144.98 140.91 145.60 141.81 145.47 C 142.71 145.33 143.33 144.50 143.20 143.60 L 143.05 142.63 C 142.92 141.73 142.08 141.11 141.18 141.25 C 140.28 141.38 139.66 142.22 139.80 143.12 Z M 139.94 144.06 L 140.07 145.06 C 140.19 145.96 141.02 146.59 141.92 146.47 C 142.82 146.35 143.45 145.53 143.33 144.62 L 143.20 143.62 C 143.08 142.72 142.25 142.09 141.35 142.21 C 140.45 142.33 139.81 143.15 139.94 144.06 Z M 140.07 145.03 L 140.18 146.01 C 140.28 146.91 141.09 147.56 141.99 147.46 C 142.90 147.36 143.55 146.55 143.45 145.64 L 143.34 144.66 C 143.24 143.76 142.42 143.11 141.52 143.21 C 140.62 143.31 139.97 144.12 140.07 145.03 Z M 140.17 145.98 L 140.27 146.98 C 140.35 147.89 141.15 148.55 142.05 148.47 C 142.96 148.39 143.62 147.59 143.54 146.68 L 143.45 145.68 C 143.37 144.77 142.57 144.11 141.66 144.19 C 140.76 144.27 140.09 145.07 140.17 145.98 Z M 140.27 146.95 L 140.34 147.93 C 140.40 148.83 141.19 149.51 142.10 149.44 C 143.00 149.38 143.68 148.59 143.61 147.68 L 143.54 146.71 C 143.47 145.81 142.69 145.13 141.78 145.19 C 140.88 145.26 140.20 146.05 140.27 146.95 Z M 140.34 147.90 L 140.40 148.91 C 140.45 149.82 141.22 150.51 142.13 150.46 C 143.03 150.41 143.72 149.63 143.67 148.73 L 143.61 147.71 C 143.56 146.81 142.79 146.12 141.88 146.17 C 140.98 146.22 140.29 146.99 140.34 147.90 Z M 140.40 148.89 L 140.44 149.88 C 140.47 150.78 141.23 151.49 142.14 151.45 C 143.04 151.41 143.75 150.65 143.71 149.75 L 143.67 148.75 C 143.63 147.85 142.87 147.15 141.97 147.18 C 141.06 147.22 140.36 147.98 140.40 148.89 Z M 140.44 149.86 L 140.47 150.87 C 140.49 151.77 141.25 152.48 142.15 152.45 C 143.06 152.43 143.77 151.67 143.74 150.77 L 143.71 149.76 C 143.68 148.86 142.93 148.15 142.02 148.18 C 141.12 148.20 140.41 148.96 140.44 149.86 Z M 140.47 150.86 L 140.50 151.87 C 140.52 152.77 141.27 153.48 142.17 153.46 C 143.07 153.44 143.79 152.69 143.76 151.78 L 143.74 150.78 C 143.71 149.87 142.96 149.16 142.06 149.19 C 141.16 149.21 140.45 149.96 140.47 150.86 Z M 140.50 151.87 L 140.52 152.86 C 140.54 153.76 141.29 154.48 142.19 154.45 C 143.09 154.43 143.80 153.69 143.78 152.78 L 143.76 151.79 C 143.74 150.89 142.99 150.17 142.09 150.20 C 141.19 150.22 140.48 150.97 140.50 151.87 Z M 140.53 152.85 L 140.54 153.85 C 140.56 154.75 141.30 155.47 142.20 155.45 C 143.10 155.44 143.81 154.70 143.80 153.80 L 143.78 152.80 C 143.77 151.90 143.02 151.18 142.13 151.20 C 141.23 151.21 140.51 151.95 140.53 152.85 Z M 140.55 153.84 L 140.55 154.83 C 140.56 155.72 141.29 156.44 142.19 156.44 C 143.09 156.43 143.81 155.70 143.80 154.80 L 143.80 153.81 C 143.79 152.92 143.06 152.19 142.16 152.20 C 141.26 152.21 140.54 152.94 140.55 153.84 Z M 140.56 154.82 L 140.56 155.82 C 140.56 156.72 141.29 157.44 142.18 157.44 C 143.08 157.44 143.80 156.71 143.80 155.82 L 143.80 154.81 C 143.80 153.91 143.07 153.19 142.18 153.19 C 141.28 153.19 140.55 153.92 140.56 154.82 Z M 140.56 155.82 L 140.56 156.84 C 140.56 157.74 141.28 158.46 142.18 158.46 C 143.07 158.46 143.80 157.74 143.80 156.84 L 143.80 155.82 C 143.80 154.92 143.07 154.20 142.18 154.20 C 141.28 154.20 140.56 154.92 140.56 155.82 Z M 140.56 156.84 L 140.56 157.85 C 140.56 158.75 141.29 159.47 142.18 159.47 C 143.07 159.47 143.80 158.75 143.80 157.85 L 143.80 156.84 C 143.80 155.95 143.07 155.22 142.18 155.22 C 141.29 155.22 140.56 155.95 140.56 156.84 Z M 140.56 157.85 L 140.56 158.84 C 140.56 159.73 141.29 160.46 142.18 160.46 C 143.07 160.46 143.80 159.73 143.80 158.84 L 143.80 157.85 C 143.80 156.96 143.07 156.24 142.18 156.24 C 141.29 156.24 140.56 156.96 140.56 157.85 Z M 140.56 158.84 L 140.56 159.88 C 140.56 160.77 141.29 161.49 142.18 161.49 C 143.07 161.49 143.80 160.77 143.80 159.88 L 143.80 158.84 C 143.80 157.95 143.07 157.22 142.18 157.22 C 141.29 157.22 140.56 157.95 140.56 158.84 Z M 140.56 159.88 L 140.56 160.83 C 140.56 161.72 141.29 162.44 142.18 162.44 C 143.07 162.44 143.79 161.72 143.79 160.83 L 143.79 159.88 C 143.79 158.98 143.07 158.26 142.18 158.26 C 141.29 158.26 140.56 158.98 140.56 159.88 Z M 140.57 160.83 L 140.57 161.85 C 140.57 162.74 141.29 163.47 142.18 163.47 C 143.07 163.47 143.79 162.74 143.79 161.85 L 143.79 160.83 C 143.79 159.94 143.07 159.22 142.18 159.22 C 141.29 159.22 140.57 159.94 140.57 160.83 Z M 140.57 161.85 L 140.57 162.82 C 140.57 163.71 141.29 164.43 142.18 164.43 C 143.07 164.43 143.79 163.71 143.79 162.82 L 143.79 161.85 C 143.79 160.97 143.07 160.24 142.18 160.24 C 141.29 160.24 140.57 160.97 140.57 161.85 Z M 140.57 162.80 L 140.56 163.77 C 140.55 164.66 141.26 165.38 142.15 165.39 C 143.04 165.40 143.76 164.69 143.77 163.81 L 143.79 162.84 C 143.80 161.95 143.09 161.23 142.20 161.22 C 141.31 161.21 140.58 161.92 140.57 162.80 Z M 140.57 163.70 L 140.51 164.73 C 140.46 165.61 141.14 166.37 142.03 166.42 C 142.91 166.47 143.67 165.79 143.71 164.90 L 143.77 163.87 C 143.82 162.99 143.14 162.24 142.26 162.19 C 141.37 162.14 140.62 162.82 140.57 163.70 Z M 140.52 164.66 L 140.42 165.68 C 140.33 166.56 140.97 167.34 141.85 167.43 C 142.73 167.52 143.51 166.88 143.60 166.00 L 143.70 164.98 C 143.79 164.10 143.15 163.31 142.27 163.23 C 141.39 163.14 140.61 163.78 140.52 164.66 Z M 140.43 165.60 L 140.27 166.65 C 140.14 167.52 140.74 168.33 141.62 168.46 C 142.49 168.59 143.30 167.99 143.43 167.12 L 143.59 166.07 C 143.72 165.20 143.12 164.39 142.25 164.26 C 141.38 164.13 140.56 164.73 140.43 165.60 Z M 140.36 166.30 L 140.00 167.19 C 139.68 168.02 140.09 168.96 140.92 169.28 C 141.74 169.60 142.68 169.20 143.00 168.37 L 143.35 167.47 C 143.68 166.64 143.27 165.71 142.44 165.38 C 141.61 165.06 140.68 165.47 140.36 166.30 Z M 142.09 166.27 L 141.50 166.04 C 140.67 165.71 139.73 166.13 139.40 166.96 C 139.07 167.79 139.49 168.74 140.32 169.06 L 140.91 169.29 C 141.75 169.62 142.69 169.21 143.01 168.37 C 143.34 167.54 142.93 166.60 142.09 166.27 Z M 141.88 166.25 L 140.92 165.53 C 140.20 165.00 139.18 165.14 138.65 165.86 C 138.11 166.58 138.26 167.60 138.98 168.14 L 139.94 168.85 C 140.66 169.39 141.68 169.24 142.21 168.52 C 142.75 167.80 142.60 166.78 141.88 166.25 Z M 140.78 165.44 L 139.93 164.94 C 139.16 164.48 138.16 164.73 137.71 165.50 C 137.25 166.27 137.50 167.27 138.27 167.73 L 139.12 168.23 C 139.89 168.69 140.89 168.43 141.34 167.66 C 141.80 166.89 141.55 165.90 140.78 165.44 Z M 139.87 164.90 L 138.94 164.41 C 138.15 163.99 137.17 164.29 136.75 165.08 C 136.33 165.87 136.63 166.85 137.42 167.27 L 138.34 167.76 C 139.13 168.18 140.11 167.88 140.53 167.09 C 140.95 166.30 140.66 165.32 139.87 164.90 Z M 138.91 164.39 L 138.00 163.93 C 137.21 163.53 136.23 163.84 135.83 164.64 C 135.42 165.44 135.74 166.41 136.54 166.82 L 137.45 167.28 C 138.24 167.69 139.22 167.37 139.62 166.57 C 140.03 165.78 139.71 164.80 138.91 164.39 Z M 138.00 163.93 L 137.12 163.49 C 136.32 163.08 135.34 163.41 134.94 164.21 C 134.54 165.01 134.86 165.98 135.66 166.38 L 136.54 166.82 C 137.34 167.22 138.32 166.90 138.72 166.10 C 139.12 165.30 138.80 164.33 138.00 163.93 Z M 137.11 163.48 L 136.24 163.05 C 135.44 162.65 134.46 162.97 134.06 163.77 C 133.66 164.57 133.99 165.54 134.79 165.94 L 135.66 166.38 C 136.46 166.78 137.44 166.46 137.84 165.66 C 138.24 164.86 137.91 163.88 137.11 163.48 Z M 136.24 163.05 L 135.34 162.59 C 134.54 162.19 133.57 162.51 133.17 163.31 C 132.76 164.12 133.09 165.09 133.89 165.49 L 134.78 165.94 C 135.58 166.35 136.56 166.02 136.96 165.22 C 137.36 164.42 137.04 163.45 136.24 163.05 Z M 135.36 162.59 L 134.44 162.12 C 133.64 161.71 132.66 162.03 132.25 162.83 C 131.83 163.63 132.15 164.61 132.95 165.02 L 133.87 165.49 C 134.67 165.90 135.65 165.59 136.06 164.79 C 136.48 163.99 136.16 163.01 135.36 162.59 Z M 134.47 162.13 L 133.61 161.67 C 132.81 161.24 131.82 161.54 131.39 162.34 C 130.97 163.13 131.27 164.12 132.06 164.55 L 132.92 165.01 C 133.72 165.44 134.71 165.14 135.14 164.35 C 135.56 163.55 135.27 162.56 134.47 162.13 Z M 133.69 161.70 L 132.76 161.14 C 131.99 160.67 130.97 160.92 130.50 161.70 C 130.03 162.48 130.28 163.49 131.06 163.96 L 131.98 164.52 C 132.76 164.99 133.78 164.74 134.25 163.96 C 134.72 163.18 134.47 162.17 133.69 161.70 Z M 132.94 161.25 L 132.22 160.68 C 131.50 160.11 130.46 160.23 129.89 160.95 C 129.32 161.67 129.44 162.71 130.16 163.28 L 130.88 163.85 C 131.60 164.42 132.65 164.30 133.21 163.58 C 133.78 162.86 133.66 161.82 132.94 161.25 Z M 132.49 160.91 L 131.81 160.08 C 131.21 159.36 130.15 159.25 129.43 159.85 C 128.71 160.44 128.61 161.50 129.20 162.22 L 129.89 163.05 C 130.48 163.77 131.54 163.87 132.26 163.28 C 132.98 162.69 133.09 161.63 132.49 160.91 Z M 132.21 160.93 L 132.10 160.12 C 131.98 159.17 131.12 158.51 130.18 158.63 C 129.24 158.75 128.57 159.61 128.70 160.56 L 128.80 161.37 C 128.92 162.31 129.78 162.97 130.72 162.85 C 131.67 162.73 132.33 161.87 132.21 160.93 Z M 131.52 161.66 L 132.29 161.02 C 133.02 160.40 133.11 159.30 132.50 158.57 C 131.88 157.84 130.78 157.74 130.05 158.36 L 129.28 159.01 C 128.55 159.62 128.45 160.72 129.07 161.45 C 129.69 162.19 130.78 162.28 131.52 161.66 Z M 131.91 161.27 L 132.70 160.89 C 133.57 160.48 133.95 159.44 133.54 158.57 C 133.12 157.70 132.09 157.33 131.22 157.74 L 130.42 158.11 C 129.55 158.52 129.18 159.56 129.59 160.43 C 130.00 161.30 131.04 161.68 131.91 161.27 Z M 132.61 160.93 L 133.59 160.54 C 134.48 160.18 134.91 159.16 134.55 158.27 C 134.19 157.37 133.17 156.94 132.28 157.30 L 131.31 157.70 C 130.41 158.06 129.98 159.08 130.34 159.97 C 130.70 160.86 131.72 161.29 132.61 160.93 Z M 133.57 160.55 L 134.53 160.17 C 135.43 159.82 135.87 158.81 135.52 157.91 C 135.17 157.01 134.16 156.57 133.26 156.92 L 132.30 157.29 C 131.40 157.64 130.96 158.66 131.31 159.56 C 131.66 160.45 132.67 160.90 133.57 160.55 Z M 134.53 160.17 L 135.46 159.81 C 136.36 159.46 136.80 158.45 136.45 157.55 C 136.10 156.65 135.09 156.21 134.19 156.56 L 133.26 156.92 C 132.36 157.27 131.92 158.28 132.27 159.18 C 132.62 160.08 133.63 160.52 134.53 160.17 Z M 135.46 159.81 L 136.44 159.43 C 137.33 159.07 137.78 158.06 137.42 157.16 C 137.07 156.27 136.06 155.82 135.16 156.18 L 134.19 156.56 C 133.29 156.91 132.85 157.92 133.20 158.82 C 133.55 159.72 134.57 160.16 135.46 159.81 Z M 136.44 159.42 L 137.41 159.04 C 138.30 158.68 138.74 157.67 138.39 156.78 C 138.03 155.88 137.02 155.44 136.12 155.80 L 135.16 156.18 C 134.26 156.54 133.82 157.55 134.18 158.45 C 134.53 159.34 135.55 159.78 136.44 159.42 Z M 137.42 159.03 L 138.40 158.63 C 139.29 158.27 139.72 157.26 139.36 156.37 C 139.00 155.48 137.99 155.05 137.10 155.41 L 136.11 155.81 C 135.22 156.17 134.79 157.18 135.15 158.07 C 135.51 158.96 136.53 159.39 137.42 159.03 Z M 138.41 158.62 L 139.32 158.24 C 140.20 157.87 140.62 156.86 140.25 155.98 C 139.88 155.10 138.87 154.68 137.99 155.05 L 137.09 155.43 C 136.21 155.79 135.79 156.80 136.15 157.68 C 136.52 158.56 137.53 158.98 138.41 158.62 Z M 139.33 158.22 L 140.19 157.85 C 141.06 157.48 141.46 156.47 141.09 155.60 C 140.72 154.73 139.71 154.33 138.84 154.70 L 137.98 155.07 C 137.11 155.44 136.70 156.45 137.08 157.32 C 137.45 158.19 138.46 158.59 139.33 158.22 Z M 140.21 157.83 L 141.08 157.45 C 141.94 157.06 142.33 156.05 141.94 155.19 C 141.56 154.33 140.55 153.95 139.69 154.33 L 138.82 154.72 C 137.96 155.10 137.57 156.11 137.96 156.97 C 138.34 157.83 139.35 158.22 140.21 157.83 Z M 141.11 157.42 L 142.01 156.99 C 142.85 156.59 143.21 155.58 142.81 154.74 C 142.41 153.89 141.40 153.53 140.55 153.93 L 139.66 154.36 C 138.81 154.76 138.45 155.77 138.86 156.61 C 139.26 157.46 140.27 157.82 141.11 157.42 Z M 142.04 156.96 L 142.99 156.48 C 143.81 156.06 144.14 155.04 143.72 154.22 C 143.29 153.39 142.28 153.06 141.45 153.48 L 140.51 153.97 C 139.69 154.39 139.36 155.40 139.78 156.23 C 140.20 157.06 141.22 157.38 142.04 156.96 Z M 143.02 156.45 L 143.92 155.95 C 144.73 155.51 145.03 154.50 144.59 153.69 C 144.15 152.88 143.14 152.58 142.33 153.02 L 141.42 153.52 C 140.61 153.96 140.31 154.97 140.75 155.78 C 141.19 156.59 142.21 156.89 143.02 156.45 Z M 143.94 155.92 L 144.84 155.41 C 145.64 154.96 145.91 153.95 145.46 153.16 C 145.01 152.37 144.00 152.09 143.21 152.54 L 142.31 153.05 C 141.52 153.50 141.24 154.51 141.69 155.30 C 142.14 156.10 143.15 156.37 143.94 155.92 Z M 144.86 155.38 L 145.68 154.90 C 146.46 154.44 146.72 153.44 146.26 152.66 C 145.80 151.88 144.80 151.63 144.02 152.08 L 143.20 152.57 C 142.42 153.03 142.16 154.03 142.62 154.81 C 143.08 155.59 144.08 155.84 144.86 155.38 Z M 145.70 154.85 L 146.64 154.26 C 147.39 153.79 147.61 152.80 147.14 152.05 C 146.67 151.30 145.68 151.07 144.93 151.55 L 143.99 152.13 C 143.24 152.61 143.02 153.60 143.49 154.35 C 143.96 155.10 144.95 155.32 145.70 154.85 Z M 146.70 154.17 L 147.45 153.62 C 148.14 153.12 148.30 152.14 147.79 151.44 C 147.28 150.75 146.31 150.59 145.61 151.10 L 144.86 151.64 C 144.17 152.15 144.01 153.13 144.52 153.82 C 145.03 154.52 146.00 154.67 146.70 154.17 Z M 147.54 153.50 L 148.24 152.88 C 148.87 152.32 148.93 151.36 148.37 150.73 C 147.81 150.10 146.85 150.04 146.23 150.60 L 145.52 151.22 C 144.89 151.78 144.84 152.74 145.39 153.37 C 145.95 154.00 146.91 154.05 147.54 153.50 Z M 148.29 152.79 L 149.00 152.07 C 149.58 151.49 149.57 150.54 148.99 149.96 C 148.40 149.39 147.46 149.39 146.88 149.97 L 146.17 150.69 C 145.60 151.27 145.60 152.22 146.19 152.80 C 146.77 153.37 147.71 153.37 148.29 152.79 Z M 149.01 152.04 L 149.25 151.78 C 149.81 151.19 149.79 150.26 149.20 149.70 C 148.61 149.14 147.68 149.16 147.12 149.75 L 146.88 150.01 C 146.32 150.59 146.34 151.53 146.93 152.09 C 147.51 152.65 148.44 152.63 149.01 152.04 Z"
      fill="black"
      fill-rule="nonzero" /><path d="M 146.82 128.06 L 147.73 128.13 C 148.58 128.19 149.31 127.56 149.38 126.72 C 149.44 125.88 148.81 125.14 147.97 125.08 L 147.05 125.00 C 146.21 124.94 145.47 125.57 145.41 126.41 C 145.34 127.25 145.97 127.99 146.82 128.06 Z M 147.78 128.23 L 148.85 128.28 C 149.75 128.33 150.51 127.63 150.56 126.73 C 150.60 125.83 149.90 125.06 149.00 125.02 L 147.93 124.97 C 147.03 124.93 146.27 125.62 146.22 126.52 C 146.18 127.43 146.88 128.19 147.78 128.23 Z M 148.90 128.33 L 149.89 128.35 C 150.81 128.37 151.58 127.63 151.60 126.70 C 151.61 125.77 150.87 125.00 149.94 124.99 L 148.95 124.97 C 148.03 124.96 147.26 125.69 147.24 126.62 C 147.23 127.55 147.97 128.32 148.90 128.33 Z M 149.91 128.35 L 150.94 128.36 C 151.87 128.36 152.62 127.61 152.63 126.68 C 152.63 125.75 151.88 125.00 150.95 124.99 L 149.92 124.99 C 148.99 124.98 148.24 125.73 148.23 126.66 C 148.23 127.59 148.98 128.35 149.91 128.35 Z M 150.94 128.35 L 151.98 128.35 C 152.91 128.35 153.66 127.60 153.66 126.67 C 153.66 125.75 152.91 124.99 151.98 124.99 L 150.94 124.99 C 150.02 124.99 149.26 125.75 149.26 126.67 C 149.26 127.60 150.02 128.35 150.94 128.35 Z M 151.98 128.35 L 152.96 128.35 C 153.89 128.35 154.64 127.60 154.64 126.67 C 154.64 125.75 153.89 125.00 152.96 125.00 L 151.98 125.00 C 151.05 125.00 150.30 125.75 150.30 126.67 C 150.30 127.60 151.05 128.35 151.98 128.35 Z M 152.96 128.35 L 153.92 128.35 C 154.84 128.35 155.59 127.60 155.59 126.67 C 155.59 125.75 154.84 125.00 153.92 125.00 L 152.96 125.00 C 152.04 125.00 151.29 125.75 151.29 126.67 C 151.29 127.60 152.04 128.35 152.96 128.35 Z M 153.92 128.35 L 154.92 128.35 C 155.84 128.35 156.59 127.60 156.59 126.67 C 156.59 125.75 155.84 125.00 154.92 125.00 L 153.92 125.00 C 152.99 125.00 152.25 125.75 152.25 126.67 C 152.25 127.60 152.99 128.35 153.92 128.35 Z M 154.92 128.34 L 155.93 128.34 C 156.85 128.34 157.60 127.59 157.60 126.67 C 157.60 125.75 156.85 125.01 155.93 125.01 L 154.92 125.01 C 154.00 125.01 153.25 125.75 153.25 126.67 C 153.25 127.60 154.00 128.34 154.92 128.34 Z M 155.95 128.34 L 156.95 128.32 C 157.86 128.31 158.60 127.56 158.59 126.64 C 158.58 125.73 157.82 124.99 156.91 125.00 L 155.91 125.01 C 154.99 125.02 154.26 125.78 154.27 126.69 C 154.28 127.61 155.03 128.35 155.95 128.34 Z M 157.01 128.32 L 158.01 128.27 C 158.92 128.22 159.62 127.44 159.58 126.53 C 159.53 125.62 158.76 124.91 157.84 124.96 L 156.84 125.01 C 155.93 125.06 155.23 125.83 155.27 126.75 C 155.32 127.66 156.10 128.36 157.01 128.32 Z M 158.08 128.25 L 159.07 128.16 C 159.98 128.07 160.64 127.27 160.56 126.36 C 160.47 125.46 159.67 124.79 158.76 124.88 L 157.77 124.97 C 156.86 125.06 156.20 125.86 156.29 126.77 C 156.37 127.67 157.18 128.34 158.08 128.25 Z M 159.10 128.15 L 160.10 128.04 C 161.00 127.94 161.65 127.13 161.55 126.23 C 161.45 125.33 160.64 124.68 159.74 124.78 L 158.74 124.89 C 157.84 124.99 157.19 125.80 157.29 126.70 C 157.39 127.60 158.20 128.25 159.10 128.15 Z M 160.09 128.03 L 161.09 127.92 C 161.98 127.83 162.63 127.03 162.54 126.14 C 162.45 125.25 161.65 124.60 160.75 124.69 L 159.75 124.79 C 158.86 124.88 158.21 125.68 158.30 126.58 C 158.39 127.47 159.19 128.12 160.09 128.03 Z M 161.10 127.90 L 162.08 127.80 C 162.97 127.70 163.60 126.90 163.51 126.02 C 163.41 125.14 162.62 124.50 161.73 124.60 L 160.74 124.71 C 159.86 124.80 159.22 125.60 159.32 126.48 C 159.42 127.36 160.21 128.00 161.10 127.90 Z M 162.12 127.77 L 163.12 127.64 C 163.99 127.52 164.60 126.72 164.49 125.85 C 164.37 124.98 163.57 124.37 162.69 124.48 L 161.69 124.62 C 160.82 124.74 160.21 125.54 160.33 126.41 C 160.45 127.28 161.25 127.89 162.12 127.77 Z M 163.15 127.61 L 164.13 127.46 C 164.99 127.32 165.58 126.52 165.44 125.66 C 165.31 124.80 164.50 124.22 163.64 124.35 L 162.66 124.51 C 161.81 124.64 161.22 125.45 161.36 126.31 C 161.49 127.16 162.30 127.75 163.15 127.61 Z M 164.14 127.44 L 165.13 127.27 C 165.98 127.13 166.55 126.33 166.41 125.49 C 166.27 124.64 165.47 124.07 164.62 124.21 L 163.63 124.38 C 162.79 124.52 162.22 125.32 162.36 126.16 C 162.50 127.01 163.30 127.58 164.14 127.44 Z M 165.12 127.25 L 166.10 127.10 C 166.94 126.96 167.51 126.17 167.37 125.34 C 167.24 124.50 166.45 123.93 165.62 124.07 L 164.63 124.23 C 163.80 124.36 163.23 125.15 163.36 125.99 C 163.50 126.82 164.29 127.39 165.12 127.25 Z M 166.08 127.08 L 167.03 126.94 C 167.85 126.82 168.43 126.05 168.30 125.22 C 168.18 124.40 167.41 123.83 166.59 123.95 L 165.64 124.09 C 164.81 124.21 164.24 124.98 164.36 125.80 C 164.48 126.63 165.25 127.20 166.08 127.08 Z M 167.04 126.92 L 168.04 126.76 C 168.85 126.64 169.41 125.88 169.28 125.06 C 169.16 124.25 168.39 123.69 167.58 123.81 L 166.58 123.97 C 165.77 124.09 165.21 124.86 165.33 125.67 C 165.46 126.49 166.22 127.04 167.04 126.92 Z M 168.08 126.74 L 169.09 126.55 C 169.89 126.40 170.42 125.63 170.27 124.83 C 170.12 124.03 169.35 123.50 168.55 123.65 L 167.54 123.84 C 166.74 123.99 166.21 124.76 166.36 125.56 C 166.51 126.36 167.28 126.89 168.08 126.74 Z M 169.12 126.53 L 170.13 126.32 C 170.92 126.16 171.42 125.38 171.26 124.59 C 171.09 123.80 170.32 123.29 169.53 123.46 L 168.52 123.67 C 167.73 123.83 167.22 124.61 167.39 125.40 C 167.55 126.19 168.33 126.70 169.12 126.53 Z M 170.13 126.31 L 171.12 126.10 C 171.90 125.93 172.40 125.16 172.23 124.37 C 172.06 123.59 171.29 123.09 170.51 123.26 L 169.52 123.47 C 168.74 123.64 168.24 124.41 168.41 125.20 C 168.57 125.98 169.35 126.48 170.13 126.31 Z M 171.11 126.09 L 172.10 125.88 C 172.88 125.72 173.38 124.95 173.22 124.17 C 173.05 123.39 172.29 122.89 171.51 123.06 L 170.51 123.27 C 169.74 123.43 169.24 124.20 169.40 124.98 C 169.57 125.76 170.33 126.25 171.11 126.09 Z M 172.10 125.87 L 172.66 125.75 C 173.44 125.59 173.93 124.84 173.77 124.06 C 173.61 123.29 172.86 122.79 172.08 122.95 L 171.52 123.07 C 170.74 123.23 170.24 123.99 170.41 124.76 C 170.57 125.53 171.32 126.03 172.10 125.87 Z"
      fill="black"
      fill-rule="nonzero" /><path d="M 162.36 118.26 L 161.96 119.17 C 161.62 119.97 161.99 120.89 162.79 121.24 C 163.59 121.58 164.51 121.21 164.85 120.41 L 165.25 119.50 C 165.59 118.70 165.22 117.78 164.42 117.43 C 163.62 117.09 162.70 117.46 162.36 118.26 Z M 161.90 119.22 L 161.55 120.14 C 161.23 120.97 161.65 121.90 162.48 122.22 C 163.31 122.54 164.24 122.12 164.56 121.29 L 164.91 120.37 C 165.23 119.54 164.81 118.60 163.98 118.29 C 163.15 117.97 162.22 118.39 161.90 119.22 Z M 161.51 120.21 L 161.21 121.12 C 160.94 121.97 161.41 122.89 162.26 123.17 C 163.12 123.44 164.04 122.97 164.31 122.12 L 164.60 121.22 C 164.88 120.36 164.41 119.44 163.56 119.17 C 162.70 118.89 161.78 119.36 161.51 120.21 Z M 161.21 121.13 L 160.89 122.14 C 160.62 123.00 161.10 123.92 161.96 124.19 C 162.82 124.46 163.73 123.98 164.00 123.12 L 164.32 122.10 C 164.59 121.25 164.11 120.33 163.25 120.06 C 162.39 119.79 161.48 120.27 161.21 121.13 Z M 160.90 122.12 L 160.58 123.08 C 160.30 123.94 160.76 124.86 161.62 125.14 C 162.47 125.42 163.40 124.96 163.68 124.10 L 164.00 123.14 C 164.28 122.29 163.81 121.36 162.96 121.08 C 162.10 120.80 161.18 121.26 160.90 122.12 Z M 160.59 123.06 L 160.25 124.02 C 159.96 124.87 160.41 125.80 161.26 126.10 C 162.12 126.39 163.05 125.94 163.34 125.09 L 163.68 124.13 C 163.97 123.27 163.52 122.34 162.66 122.05 C 161.81 121.75 160.88 122.20 160.59 123.06 Z M 160.26 123.99 L 159.91 124.96 C 159.60 125.81 160.03 126.75 160.88 127.06 C 161.73 127.37 162.67 126.93 162.98 126.08 L 163.33 125.11 C 163.64 124.26 163.21 123.32 162.36 123.01 C 161.51 122.70 160.57 123.14 160.26 123.99 Z M 159.92 124.93 L 159.57 125.83 C 159.24 126.67 159.66 127.62 160.50 127.95 C 161.34 128.28 162.29 127.86 162.62 127.02 L 162.97 126.11 C 163.30 125.27 162.88 124.32 162.04 123.99 C 161.20 123.67 160.25 124.08 159.92 124.93 Z M 159.58 125.81 L 159.21 126.70 C 158.88 127.54 159.28 128.49 160.12 128.83 C 160.96 129.17 161.91 128.77 162.25 127.93 L 162.61 127.04 C 162.95 126.20 162.54 125.24 161.71 124.91 C 160.87 124.57 159.91 124.97 159.58 125.81 Z M 159.22 126.69 L 158.83 127.62 C 158.49 128.45 158.88 129.41 159.71 129.76 C 160.55 130.10 161.50 129.71 161.85 128.88 L 162.24 127.95 C 162.59 127.11 162.19 126.15 161.36 125.81 C 160.53 125.46 159.57 125.85 159.22 126.69 Z M 158.85 127.59 L 158.44 128.50 C 158.08 129.33 158.45 130.29 159.28 130.66 C 160.10 131.02 161.07 130.65 161.43 129.82 L 161.84 128.91 C 162.20 128.08 161.83 127.12 161.00 126.75 C 160.18 126.39 159.21 126.76 158.85 127.59 Z M 158.46 128.47 L 158.04 129.38 C 157.66 130.19 158.01 131.16 158.83 131.55 C 159.64 131.93 160.61 131.57 160.99 130.76 L 161.42 129.85 C 161.80 129.04 161.44 128.07 160.63 127.69 C 159.81 127.30 158.84 127.66 158.46 128.47 Z M 158.05 129.36 L 157.61 130.26 C 157.22 131.07 157.56 132.04 158.37 132.43 C 159.18 132.83 160.15 132.49 160.54 131.68 L 160.98 130.78 C 161.37 129.97 161.04 128.99 160.23 128.60 C 159.42 128.21 158.44 128.55 158.05 129.36 Z M 157.63 130.24 L 157.18 131.14 C 156.78 131.94 157.10 132.91 157.90 133.32 C 158.70 133.72 159.68 133.39 160.08 132.59 L 160.53 131.70 C 160.93 130.90 160.61 129.92 159.81 129.52 C 159.01 129.11 158.03 129.44 157.63 130.24 Z M 157.20 131.11 L 156.73 132.00 C 156.31 132.79 156.61 133.77 157.40 134.19 C 158.20 134.60 159.18 134.30 159.59 133.51 L 160.06 132.62 C 160.48 131.83 160.18 130.85 159.38 130.43 C 158.59 130.01 157.61 130.32 157.20 131.11 Z M 156.75 131.97 L 156.26 132.84 C 155.83 133.62 156.11 134.60 156.89 135.04 C 157.67 135.47 158.65 135.19 159.08 134.41 L 159.57 133.54 C 160.00 132.76 159.72 131.78 158.94 131.34 C 158.17 130.91 157.18 131.19 156.75 131.97 Z M 156.28 132.82 L 155.78 133.68 C 155.34 134.45 155.60 135.44 156.36 135.88 C 157.13 136.33 158.12 136.07 158.56 135.30 L 159.07 134.44 C 159.51 133.67 159.25 132.68 158.48 132.24 C 157.71 131.79 156.73 132.05 156.28 132.82 Z M 155.80 133.67 L 155.28 134.53 C 154.82 135.29 155.07 136.27 155.83 136.73 C 156.59 137.19 157.57 136.94 158.03 136.18 L 158.55 135.32 C 159.00 134.56 158.76 133.58 158.00 133.12 C 157.24 132.66 156.26 132.91 155.80 133.67 Z M 155.30 134.51 L 154.77 135.35 C 154.31 136.09 154.53 137.08 155.28 137.55 C 156.02 138.02 157.01 137.79 157.48 137.04 L 158.00 136.20 C 158.47 135.46 158.25 134.47 157.50 134.00 C 156.75 133.54 155.77 133.76 155.30 134.51 Z M 154.80 135.32 L 154.25 136.16 C 153.77 136.89 153.97 137.87 154.70 138.36 C 155.43 138.84 156.42 138.64 156.90 137.91 L 157.45 137.07 C 157.93 136.34 157.73 135.35 157.00 134.87 C 156.27 134.39 155.28 134.59 154.80 135.32 Z M 154.28 136.13 L 153.71 136.96 C 153.21 137.67 153.39 138.66 154.11 139.15 C 154.83 139.65 155.81 139.47 156.30 138.75 L 156.87 137.93 C 157.37 137.21 157.19 136.23 156.47 135.73 C 155.75 135.24 154.77 135.42 154.28 136.13 Z M 153.74 136.94 L 153.14 137.78 C 152.64 138.48 152.80 139.46 153.50 139.96 C 154.20 140.46 155.18 140.30 155.68 139.60 L 156.28 138.76 C 156.78 138.06 156.62 137.08 155.92 136.58 C 155.21 136.08 154.24 136.24 153.74 136.94 Z M 153.17 137.76 L 152.59 138.54 C 152.08 139.23 152.22 140.20 152.90 140.71 C 153.59 141.22 154.56 141.07 155.07 140.39 L 155.65 139.61 C 156.16 138.93 156.02 137.96 155.33 137.45 C 154.65 136.94 153.68 137.08 153.17 137.76 Z M 152.64 138.51 L 152.03 139.27 C 151.50 139.93 151.60 140.89 152.26 141.42 C 152.91 141.95 153.87 141.84 154.40 141.19 L 155.02 140.43 C 155.55 139.77 155.44 138.81 154.79 138.28 C 154.13 137.75 153.17 137.85 152.64 138.51 Z M 152.09 139.22 L 151.42 139.96 C 150.86 140.58 150.90 141.54 151.52 142.10 C 152.14 142.66 153.10 142.61 153.66 141.99 L 154.33 141.24 C 154.89 140.62 154.85 139.67 154.23 139.11 C 153.61 138.55 152.65 138.60 152.09 139.22 Z M 151.48 139.92 L 150.76 140.63 C 150.18 141.21 150.17 142.16 150.76 142.75 C 151.34 143.33 152.29 143.34 152.87 142.75 L 153.59 142.04 C 154.18 141.46 154.18 140.51 153.60 139.92 C 153.02 139.34 152.07 139.33 151.48 139.92 Z M 150.87 140.55 L 150.09 141.20 C 149.46 141.72 149.38 142.66 149.91 143.29 C 150.43 143.92 151.37 144.00 152.00 143.48 L 152.77 142.83 C 153.40 142.30 153.48 141.37 152.96 140.74 C 152.43 140.11 151.50 140.03 150.87 140.55 Z M 150.28 141.09 L 149.41 141.62 C 148.72 142.04 148.50 142.94 148.92 143.63 C 149.34 144.33 150.24 144.54 150.93 144.12 L 151.81 143.59 C 152.50 143.17 152.72 142.27 152.30 141.57 C 151.87 140.88 150.97 140.67 150.28 141.09 Z M 149.54 141.57 L 148.93 141.87 C 148.21 142.22 147.91 143.08 148.26 143.80 C 148.61 144.52 149.48 144.82 150.19 144.47 L 150.80 144.17 C 151.52 143.82 151.82 142.96 151.47 142.24 C 151.12 141.52 150.25 141.22 149.54 141.57 Z"
      fill="black"
      fill-rule="nonzero" /><path d="M 161.64 130.53 L 162.63 130.74 C 163.44 130.92 164.25 130.40 164.42 129.58 C 164.60 128.77 164.08 127.96 163.27 127.79 L 162.28 127.57 C 161.46 127.40 160.66 127.92 160.48 128.73 C 160.31 129.55 160.83 130.35 161.64 130.53 Z M 162.54 130.78 L 163.50 131.04 C 164.34 131.26 165.20 130.77 165.42 129.93 C 165.65 129.09 165.15 128.23 164.31 128.01 L 163.36 127.75 C 162.52 127.52 161.66 128.02 161.43 128.86 C 161.21 129.69 161.70 130.55 162.54 130.78 Z M 163.36 131.03 L 164.31 131.37 C 165.14 131.68 166.06 131.25 166.36 130.42 C 166.66 129.59 166.24 128.67 165.41 128.37 L 164.46 128.02 C 163.63 127.71 162.71 128.14 162.40 128.97 C 162.10 129.80 162.53 130.72 163.36 131.03 Z M 164.22 131.34 L 165.12 131.73 C 165.93 132.09 166.88 131.72 167.23 130.90 C 167.59 130.09 167.21 129.14 166.40 128.79 L 165.50 128.40 C 164.68 128.04 163.74 128.42 163.39 129.23 C 163.03 130.04 163.40 130.99 164.22 131.34 Z M 165.10 131.72 L 166.00 132.13 C 166.81 132.50 167.76 132.14 168.12 131.33 C 168.49 130.53 168.13 129.58 167.32 129.21 L 166.42 128.80 C 165.62 128.44 164.67 128.79 164.30 129.60 C 163.93 130.41 164.29 131.36 165.10 131.72 Z M 166.03 132.13 L 166.90 132.52 C 167.71 132.87 168.65 132.50 169.00 131.69 C 169.35 130.88 168.98 129.94 168.18 129.59 L 167.30 129.21 C 166.49 128.86 165.55 129.23 165.20 130.04 C 164.85 130.84 165.22 131.78 166.03 132.13 Z M 166.95 132.52 L 167.85 132.89 C 168.66 133.21 169.58 132.82 169.91 132.01 C 170.24 131.20 169.85 130.28 169.04 129.96 L 168.13 129.59 C 167.32 129.26 166.40 129.65 166.08 130.46 C 165.75 131.27 166.14 132.19 166.95 132.52 Z M 167.88 132.88 L 168.85 133.25 C 169.66 133.56 170.56 133.16 170.87 132.35 C 171.18 131.55 170.78 130.64 169.97 130.33 L 169.01 129.96 C 168.20 129.65 167.30 130.05 166.99 130.86 C 166.68 131.67 167.08 132.57 167.88 132.88 Z M 168.86 133.24 L 169.76 133.58 C 170.56 133.88 171.46 133.48 171.76 132.68 C 172.06 131.88 171.66 130.99 170.86 130.69 L 169.96 130.34 C 169.16 130.04 168.27 130.44 167.97 131.24 C 167.66 132.04 168.06 132.94 168.86 133.24 Z M 169.75 133.56 L 170.72 133.94 C 171.50 134.25 172.39 133.86 172.70 133.08 C 173.02 132.29 172.63 131.40 171.84 131.09 L 170.87 130.71 C 170.09 130.40 169.20 130.78 168.89 131.57 C 168.58 132.36 168.96 133.25 169.75 133.56 Z M 170.69 133.91 L 171.64 134.31 C 172.41 134.64 173.30 134.28 173.62 133.51 C 173.95 132.74 173.59 131.85 172.82 131.52 L 171.87 131.12 C 171.10 130.79 170.21 131.15 169.88 131.92 C 169.56 132.70 169.92 133.58 170.69 133.91 Z M 171.61 134.28 L 172.52 134.69 C 173.27 135.03 174.16 134.69 174.50 133.94 C 174.84 133.19 174.50 132.31 173.75 131.97 L 172.84 131.55 C 172.09 131.21 171.21 131.55 170.87 132.30 C 170.53 133.05 170.86 133.94 171.61 134.28 Z M 172.51 134.66 L 173.42 135.09 C 174.15 135.43 175.03 135.12 175.38 134.38 C 175.72 133.65 175.41 132.77 174.67 132.42 L 173.76 132.00 C 173.03 131.65 172.15 131.96 171.80 132.70 C 171.46 133.43 171.77 134.31 172.51 134.66 Z M 173.42 135.07 L 174.05 135.37 C 174.77 135.71 175.64 135.41 175.98 134.68 C 176.33 133.96 176.02 133.09 175.30 132.75 L 174.67 132.45 C 173.95 132.10 173.08 132.40 172.73 133.13 C 172.39 133.85 172.69 134.72 173.42 135.07 Z"
      fill="black"
      fill-rule="nonzero" /><path d="M 156.75 139.15 L 156.66 140.17 C 156.59 141.05 157.25 141.82 158.13 141.89 C 159.00 141.96 159.77 141.30 159.84 140.43 L 159.92 139.40 C 159.99 138.53 159.34 137.76 158.46 137.69 C 157.58 137.62 156.82 138.28 156.75 139.15 Z M 156.64 140.18 L 156.56 141.17 C 156.50 142.06 157.16 142.84 158.05 142.90 C 158.94 142.97 159.72 142.31 159.79 141.42 L 159.86 140.42 C 159.93 139.53 159.27 138.76 158.38 138.69 C 157.49 138.62 156.71 139.29 156.64 140.18 Z M 156.55 141.18 L 156.48 142.17 C 156.41 143.07 157.09 143.85 157.99 143.91 C 158.89 143.98 159.67 143.30 159.73 142.40 L 159.81 141.41 C 159.87 140.51 159.19 139.73 158.29 139.66 C 157.39 139.60 156.61 140.28 156.55 141.18 Z M 156.47 142.17 L 156.40 143.16 C 156.34 144.06 157.03 144.85 157.93 144.91 C 158.83 144.97 159.61 144.29 159.67 143.38 L 159.74 142.40 C 159.80 141.49 159.12 140.71 158.22 140.65 C 157.31 140.59 156.53 141.27 156.47 142.17 Z M 156.41 143.15 L 156.34 144.11 C 156.27 145.01 156.95 145.79 157.85 145.86 C 158.75 145.92 159.53 145.25 159.60 144.35 L 159.67 143.39 C 159.74 142.49 159.06 141.71 158.16 141.64 C 157.26 141.58 156.47 142.25 156.41 143.15 Z M 156.34 144.10 L 156.27 145.05 C 156.20 145.95 156.87 146.73 157.76 146.80 C 158.66 146.87 159.45 146.20 159.52 145.31 L 159.59 144.36 C 159.66 143.46 158.99 142.67 158.10 142.60 C 157.20 142.53 156.42 143.20 156.34 144.10 Z M 156.28 145.06 L 156.19 146.13 C 156.13 147.02 156.80 147.80 157.69 147.87 C 158.58 147.93 159.36 147.27 159.43 146.37 L 159.51 145.30 C 159.58 144.41 158.91 143.63 158.02 143.56 C 157.12 143.49 156.34 144.16 156.28 145.06 Z M 156.20 146.14 L 156.14 147.16 C 156.08 148.05 156.75 148.82 157.64 148.88 C 158.52 148.94 159.29 148.27 159.35 147.38 L 159.42 146.36 C 159.48 145.47 158.81 144.70 157.92 144.64 C 157.03 144.58 156.26 145.25 156.20 146.14 Z M 156.15 147.17 L 156.08 148.20 C 156.03 149.08 156.70 149.84 157.58 149.90 C 158.46 149.95 159.22 149.28 159.27 148.40 L 159.34 147.37 C 159.39 146.49 158.72 145.73 157.84 145.68 C 156.96 145.62 156.20 146.29 156.15 147.17 Z M 156.10 148.20 L 156.04 149.16 C 155.98 150.03 156.65 150.78 157.52 150.84 C 158.39 150.89 159.14 150.23 159.20 149.36 L 159.26 148.40 C 159.31 147.53 158.65 146.78 157.78 146.72 C 156.90 146.67 156.15 147.33 156.10 148.20 Z M 156.07 149.16 L 156.00 150.25 C 155.94 151.11 156.59 151.85 157.45 151.90 C 158.31 151.96 159.04 151.31 159.10 150.45 L 159.17 149.36 C 159.22 148.50 158.57 147.76 157.72 147.71 C 156.86 147.65 156.12 148.30 156.07 149.16 Z M 156.04 150.27 L 155.99 151.17 C 155.95 152.01 156.59 152.72 157.43 152.76 C 158.26 152.80 158.97 152.16 159.01 151.33 L 159.06 150.43 C 159.10 149.59 158.46 148.88 157.62 148.84 C 156.79 148.80 156.08 149.44 156.04 150.27 Z M 156.03 151.22 L 156.01 152.22 C 155.99 153.03 156.64 153.71 157.46 153.72 C 158.27 153.74 158.94 153.09 158.96 152.27 L 158.98 151.28 C 158.99 150.46 158.35 149.79 157.53 149.77 C 156.72 149.76 156.04 150.41 156.03 151.22 Z M 156.03 152.24 L 156.03 153.01 C 156.03 153.81 156.68 154.47 157.48 154.47 C 158.28 154.47 158.93 153.82 158.93 153.02 L 158.93 152.25 C 158.94 151.45 158.29 150.80 157.49 150.80 C 156.69 150.79 156.04 151.44 156.03 152.24 Z"
      fill="black"
      fill-rule="nonzero" /><path d="M 160.26 141.98 L 161.22 141.71 C 162.06 141.49 162.55 140.63 162.32 139.80 C 162.10 138.96 161.24 138.47 160.40 138.70 L 159.44 138.96 C 158.60 139.18 158.11 140.04 158.34 140.88 C 158.56 141.71 159.42 142.20 160.26 141.98 Z M 161.12 141.76 L 162.10 141.57 C 162.96 141.40 163.52 140.56 163.35 139.70 C 163.18 138.84 162.34 138.28 161.48 138.45 L 160.50 138.65 C 159.64 138.82 159.08 139.65 159.25 140.51 C 159.43 141.37 160.26 141.93 161.12 141.76 Z M 161.95 141.60 L 162.95 141.51 C 163.83 141.42 164.47 140.64 164.38 139.76 C 164.30 138.88 163.52 138.23 162.63 138.32 L 161.64 138.42 C 160.76 138.50 160.11 139.29 160.20 140.17 C 160.29 141.05 161.07 141.69 161.95 141.60 Z M 162.85 141.52 L 163.83 141.48 C 164.72 141.45 165.41 140.71 165.38 139.82 C 165.35 138.94 164.60 138.25 163.72 138.28 L 162.73 138.31 C 161.85 138.34 161.16 139.08 161.19 139.97 C 161.22 140.85 161.96 141.55 162.85 141.52 Z M 163.77 141.48 L 164.78 141.49 C 165.66 141.49 166.38 140.77 166.38 139.89 C 166.39 139.00 165.67 138.28 164.78 138.28 L 163.78 138.28 C 162.89 138.27 162.17 138.99 162.17 139.87 C 162.17 140.76 162.88 141.48 163.77 141.48 Z M 164.72 141.48 L 165.70 141.52 C 166.59 141.55 167.33 140.86 167.36 139.97 C 167.39 139.09 166.70 138.35 165.82 138.32 L 164.84 138.28 C 163.95 138.25 163.21 138.94 163.18 139.83 C 163.15 140.71 163.84 141.45 164.72 141.48 Z M 165.57 141.50 L 166.58 141.63 C 167.46 141.73 168.26 141.11 168.36 140.23 C 168.47 139.36 167.84 138.56 166.97 138.45 L 165.95 138.33 C 165.08 138.22 164.28 138.85 164.17 139.72 C 164.07 140.60 164.69 141.40 165.57 141.50 Z M 166.36 141.58 L 167.32 141.84 C 168.17 142.07 169.04 141.56 169.27 140.71 C 169.50 139.86 168.99 138.98 168.14 138.75 L 167.19 138.50 C 166.34 138.27 165.46 138.77 165.23 139.63 C 165.00 140.48 165.51 141.35 166.36 141.58 Z M 167.11 141.76 L 168.04 142.16 C 168.85 142.50 169.78 142.12 170.13 141.31 C 170.47 140.50 170.09 139.57 169.28 139.22 L 168.35 138.83 C 167.54 138.48 166.61 138.86 166.26 139.67 C 165.92 140.48 166.30 141.42 167.11 141.76 Z M 167.86 142.06 L 168.72 142.57 C 169.48 143.01 170.45 142.75 170.89 142.00 C 171.34 141.24 171.08 140.26 170.32 139.82 L 169.46 139.32 C 168.70 138.87 167.73 139.13 167.29 139.89 C 166.84 140.65 167.10 141.62 167.86 142.06 Z M 168.57 142.46 L 169.38 143.06 C 170.08 143.59 171.07 143.44 171.59 142.74 C 172.12 142.04 171.97 141.05 171.27 140.52 L 170.47 139.92 C 169.77 139.40 168.78 139.54 168.25 140.25 C 167.73 140.95 167.87 141.94 168.57 142.46 Z M 169.25 142.95 L 170.00 143.64 C 170.64 144.23 171.64 144.19 172.23 143.55 C 172.82 142.91 172.78 141.91 172.14 141.32 L 171.39 140.63 C 170.75 140.04 169.76 140.08 169.16 140.72 C 168.57 141.36 168.61 142.36 169.25 142.95 Z M 169.87 143.50 L 170.52 144.26 C 171.09 144.92 172.08 145.00 172.74 144.43 C 173.40 143.87 173.48 142.87 172.91 142.21 L 172.26 141.46 C 171.70 140.79 170.70 140.72 170.04 141.28 C 169.38 141.85 169.30 142.84 169.87 143.50 Z M 170.38 144.07 L 170.91 144.92 C 171.38 145.65 172.35 145.88 173.08 145.42 C 173.82 144.95 174.04 143.98 173.58 143.25 L 173.05 142.40 C 172.59 141.67 171.62 141.44 170.88 141.90 C 170.15 142.37 169.92 143.34 170.38 144.07 Z M 170.80 144.69 L 171.18 145.60 C 171.52 146.40 172.43 146.78 173.23 146.45 C 174.03 146.11 174.41 145.20 174.08 144.40 L 173.69 143.48 C 173.36 142.68 172.44 142.30 171.64 142.64 C 170.84 142.97 170.47 143.89 170.80 144.69 Z M 171.11 145.37 L 171.35 146.34 C 171.55 147.18 172.39 147.69 173.23 147.49 C 174.07 147.29 174.59 146.44 174.38 145.60 L 174.15 144.63 C 173.94 143.79 173.10 143.28 172.26 143.48 C 171.42 143.69 170.91 144.53 171.11 145.37 Z M 171.32 146.16 L 171.45 147.15 C 171.55 148.00 172.32 148.61 173.17 148.50 C 174.03 148.40 174.63 147.63 174.53 146.78 L 174.41 145.78 C 174.30 144.93 173.53 144.33 172.68 144.43 C 171.83 144.53 171.22 145.31 171.32 146.16 Z M 171.45 147.06 L 171.51 148.05 C 171.56 148.90 172.29 149.54 173.14 149.49 C 173.99 149.44 174.63 148.71 174.58 147.86 L 174.52 146.87 C 174.47 146.02 173.74 145.38 172.89 145.43 C 172.05 145.48 171.40 146.21 171.45 147.06 Z M 171.53 147.91 L 171.50 148.91 C 171.48 149.75 172.14 150.45 172.98 150.47 C 173.82 150.49 174.52 149.83 174.54 148.99 L 174.57 148.00 C 174.59 147.16 173.93 146.46 173.09 146.43 C 172.25 146.41 171.55 147.07 171.53 147.91 Z M 171.54 148.69 L 171.36 149.70 C 171.22 150.52 171.77 151.29 172.59 151.44 C 173.40 151.58 174.18 151.03 174.32 150.22 L 174.50 149.21 C 174.64 148.39 174.09 147.61 173.28 147.47 C 172.46 147.33 171.68 147.88 171.54 148.69 Z M 171.45 149.45 L 171.11 150.38 C 170.83 151.15 171.23 152.00 171.99 152.28 C 172.76 152.56 173.61 152.17 173.89 151.40 L 174.23 150.47 C 174.52 149.70 174.12 148.85 173.35 148.57 C 172.58 148.29 171.73 148.68 171.45 149.45 Z M 171.31 150.05 L 170.73 150.87 C 170.27 151.53 170.42 152.44 171.08 152.91 C 171.74 153.37 172.65 153.21 173.12 152.55 L 173.70 151.73 C 174.16 151.07 174.00 150.16 173.34 149.70 C 172.68 149.23 171.77 149.39 171.31 150.05 Z M 170.94 150.66 L 170.34 151.23 C 169.76 151.77 169.73 152.68 170.27 153.26 C 170.82 153.84 171.73 153.87 172.30 153.33 L 172.91 152.76 C 173.49 152.22 173.52 151.31 172.97 150.73 C 172.43 150.15 171.52 150.12 170.94 150.66 Z"
      fill="black"
      fill-rule="nonzero" /><path d="M 158.15 149.65 L 159.14 149.64 C 159.98 149.63 160.66 148.94 160.66 148.10 C 160.65 147.25 159.96 146.57 159.11 146.58 L 158.12 146.59 C 157.28 146.60 156.60 147.29 156.60 148.13 C 156.61 148.98 157.30 149.66 158.15 149.65 Z M 159.22 149.69 L 160.22 149.64 C 161.09 149.58 161.76 148.84 161.71 147.96 C 161.66 147.09 160.91 146.42 160.04 146.47 L 159.04 146.53 C 158.16 146.58 157.49 147.33 157.55 148.20 C 157.60 149.08 158.35 149.74 159.22 149.69 Z M 160.36 149.65 L 161.35 149.50 C 162.23 149.38 162.84 148.56 162.71 147.68 C 162.58 146.80 161.76 146.19 160.88 146.32 L 159.90 146.46 C 159.02 146.59 158.41 147.40 158.54 148.28 C 158.66 149.16 159.48 149.77 160.36 149.65 Z M 161.43 149.47 L 162.42 149.27 C 163.28 149.10 163.84 148.26 163.66 147.39 C 163.49 146.53 162.65 145.97 161.78 146.15 L 160.80 146.35 C 159.93 146.52 159.38 147.36 159.55 148.23 C 159.73 149.09 160.57 149.65 161.43 149.47 Z M 162.42 149.25 L 163.40 149.05 C 164.25 148.87 164.80 148.04 164.63 147.19 C 164.45 146.34 163.62 145.79 162.77 145.97 L 161.78 146.17 C 160.93 146.35 160.38 147.18 160.56 148.03 C 160.73 148.88 161.57 149.43 162.42 149.25 Z M 163.37 149.03 L 164.35 148.84 C 165.19 148.69 165.74 147.88 165.59 147.04 C 165.43 146.20 164.63 145.65 163.79 145.81 L 162.80 145.99 C 161.96 146.15 161.41 146.95 161.57 147.79 C 161.72 148.63 162.53 149.18 163.37 149.03 Z M 164.32 148.82 L 165.29 148.66 C 166.11 148.51 166.67 147.73 166.53 146.91 C 166.39 146.08 165.60 145.53 164.78 145.67 L 163.82 145.83 C 162.99 145.97 162.43 146.75 162.58 147.58 C 162.72 148.40 163.50 148.96 164.32 148.82 Z M 165.25 148.63 L 166.21 148.50 C 167.02 148.38 167.59 147.62 167.47 146.81 C 167.35 146.00 166.60 145.43 165.78 145.55 L 164.82 145.69 C 164.01 145.80 163.44 146.56 163.56 147.37 C 163.68 148.19 164.43 148.75 165.25 148.63 Z M 166.13 148.48 L 167.16 148.38 C 167.97 148.31 168.56 147.60 168.49 146.79 C 168.41 145.99 167.70 145.40 166.89 145.47 L 165.86 145.56 C 165.06 145.64 164.46 146.35 164.54 147.16 C 164.61 147.96 165.32 148.55 166.13 148.48 Z M 167.09 148.37 L 168.04 148.33 C 168.84 148.30 169.46 147.63 169.43 146.83 C 169.40 146.03 168.72 145.41 167.93 145.44 L 166.97 145.48 C 166.17 145.51 165.55 146.19 165.58 146.98 C 165.61 147.78 166.29 148.40 167.09 148.37 Z M 168.00 148.33 L 169.02 148.32 C 169.81 148.31 170.45 147.66 170.44 146.86 C 170.43 146.07 169.78 145.43 168.99 145.44 L 167.97 145.45 C 167.17 145.46 166.54 146.11 166.55 146.91 C 166.55 147.70 167.21 148.34 168.00 148.33 Z M 169.00 148.31 L 169.73 148.31 C 170.52 148.31 171.16 147.67 171.16 146.87 C 171.16 146.08 170.52 145.44 169.73 145.45 L 169.00 145.45 C 168.21 145.45 167.57 146.09 167.57 146.88 C 167.57 147.67 168.21 148.31 169.00 148.31 Z"
      fill="black"
      fill-rule="nonzero" /><path d="M 158.00 154.23 L 157.19 155.12 C 156.63 155.74 156.68 156.70 157.29 157.26 C 157.91 157.82 158.87 157.78 159.43 157.16 L 160.24 156.27 C 160.80 155.65 160.76 154.69 160.14 154.13 C 159.52 153.57 158.56 153.61 158.00 154.23 Z M 156.88 155.51 L 156.59 156.17 C 156.25 156.96 156.61 157.88 157.40 158.23 C 158.19 158.57 159.11 158.21 159.45 157.42 L 159.74 156.77 C 160.09 155.98 159.73 155.06 158.94 154.71 C 158.15 154.36 157.23 154.72 156.88 155.51 Z M 157.51 158.31 L 158.30 158.58 C 159.13 158.86 160.04 158.42 160.32 157.58 C 160.61 156.74 160.16 155.83 159.32 155.55 L 158.54 155.28 C 157.70 155.00 156.79 155.45 156.51 156.28 C 156.23 157.12 156.67 158.03 157.51 158.31 Z M 158.82 158.68 L 159.93 158.67 C 160.82 158.67 161.54 157.94 161.53 157.05 C 161.53 156.15 160.80 155.43 159.91 155.44 L 158.80 155.45 C 157.91 155.45 157.19 156.18 157.19 157.08 C 157.20 157.97 157.93 158.69 158.82 158.68 Z M 160.03 158.67 L 161.02 158.60 C 161.91 158.54 162.59 157.77 162.53 156.88 C 162.47 155.99 161.70 155.32 160.81 155.38 L 159.81 155.44 C 158.92 155.50 158.24 156.27 158.30 157.17 C 158.36 158.06 159.14 158.73 160.03 158.67 Z M 161.13 158.59 L 162.13 158.45 C 163.01 158.34 163.63 157.53 163.52 156.64 C 163.40 155.76 162.59 155.14 161.71 155.26 L 160.70 155.39 C 159.82 155.51 159.20 156.32 159.32 157.20 C 159.44 158.08 160.24 158.70 161.13 158.59 Z M 162.23 158.43 L 163.20 158.24 C 164.07 158.07 164.64 157.23 164.47 156.36 C 164.30 155.49 163.46 154.92 162.59 155.09 L 161.61 155.28 C 160.74 155.45 160.18 156.29 160.35 157.16 C 160.52 158.03 161.36 158.60 162.23 158.43 Z M 163.26 158.22 L 164.25 157.99 C 165.11 157.79 165.64 156.93 165.44 156.07 C 165.24 155.21 164.38 154.68 163.52 154.88 L 162.53 155.11 C 161.67 155.31 161.14 156.17 161.34 157.03 C 161.54 157.89 162.40 158.42 163.26 158.22 Z M 164.27 157.97 L 165.22 157.73 C 166.07 157.51 166.58 156.65 166.37 155.80 C 166.15 154.96 165.29 154.44 164.44 154.66 L 163.49 154.90 C 162.64 155.12 162.13 155.98 162.35 156.83 C 162.56 157.67 163.43 158.19 164.27 157.97 Z M 165.25 157.70 L 166.21 157.43 C 167.04 157.20 167.53 156.34 167.30 155.51 C 167.07 154.68 166.21 154.19 165.38 154.42 L 164.42 154.69 C 163.59 154.92 163.10 155.78 163.33 156.61 C 163.56 157.44 164.42 157.93 165.25 157.70 Z M 166.24 157.40 L 167.22 157.10 C 168.03 156.86 168.49 156.00 168.24 155.19 C 167.99 154.37 167.14 153.91 166.32 154.16 L 165.35 154.46 C 164.54 154.70 164.08 155.56 164.33 156.37 C 164.57 157.19 165.43 157.65 166.24 157.40 Z M 167.25 157.07 L 168.20 156.75 C 169.00 156.49 169.42 155.63 169.16 154.84 C 168.90 154.04 168.04 153.61 167.25 153.88 L 166.29 154.20 C 165.50 154.46 165.07 155.32 165.33 156.11 C 165.60 156.90 166.46 157.33 167.25 157.07 Z M 168.23 156.72 L 169.17 156.38 C 169.95 156.10 170.35 155.24 170.07 154.47 C 169.79 153.70 168.94 153.29 168.17 153.57 L 167.22 153.91 C 166.45 154.19 166.04 155.04 166.32 155.82 C 166.60 156.59 167.46 157.00 168.23 156.72 Z M 169.20 156.34 L 170.15 155.98 C 170.90 155.68 171.28 154.83 170.98 154.07 C 170.69 153.32 169.84 152.94 169.08 153.24 L 168.14 153.61 C 167.38 153.90 167.01 154.75 167.30 155.51 C 167.59 156.26 168.45 156.64 169.20 156.34 Z M 170.17 155.95 L 171.09 155.57 C 171.83 155.26 172.19 154.41 171.88 153.67 C 171.57 152.93 170.72 152.58 169.98 152.88 L 169.06 153.27 C 168.32 153.57 167.97 154.42 168.27 155.16 C 168.58 155.90 169.43 156.26 170.17 155.95 Z M 171.10 155.54 L 171.95 155.18 C 172.68 154.87 173.02 154.03 172.70 153.30 C 172.39 152.57 171.55 152.23 170.82 152.54 L 169.97 152.90 C 169.24 153.22 168.91 154.06 169.22 154.79 C 169.53 155.52 170.37 155.86 171.10 155.54 Z"
      fill="black"
      fill-rule="nonzero" /><path d="M 163.33 134.60 L 163.33 135.68 C 163.33 136.53 164.01 137.22 164.86 137.22 C 165.71 137.22 166.40 136.53 166.40 135.68 L 166.40 134.60 C 166.40 133.75 165.71 133.06 164.86 133.06 C 164.01 133.06 163.33 133.75 163.33 134.60 Z M 163.29 135.68 L 163.29 136.70 C 163.29 137.57 163.99 138.28 164.86 138.28 C 165.73 138.28 166.44 137.57 166.44 136.70 L 166.44 135.68 C 166.44 134.81 165.73 134.11 164.86 134.11 C 163.99 134.11 163.29 134.81 163.29 135.68 Z M 163.25 136.70 L 163.25 137.61 C 163.25 138.50 163.97 139.22 164.86 139.22 C 165.76 139.22 166.48 138.50 166.48 137.61 L 166.48 136.70 C 166.48 135.81 165.76 135.09 164.86 135.09 C 163.97 135.09 163.25 135.81 163.25 136.70 Z M 163.24 137.61 L 163.24 138.67 C 163.24 139.57 163.96 140.30 164.86 140.30 C 165.76 140.30 166.49 139.57 166.49 138.67 L 166.49 137.61 C 166.49 136.71 165.76 135.98 164.86 135.98 C 163.96 135.98 163.24 136.71 163.24 137.61 Z M 163.24 138.67 L 163.24 139.58 C 163.24 140.48 163.97 141.21 164.86 141.21 C 165.76 141.21 166.49 140.48 166.49 139.58 L 166.49 138.67 C 166.49 137.77 165.76 137.04 164.86 137.04 C 163.97 137.04 163.24 137.77 163.24 138.67 Z M 163.24 139.57 L 163.23 140.55 C 163.23 141.45 163.95 142.18 164.85 142.19 C 165.75 142.19 166.48 141.47 166.49 140.57 L 166.49 139.59 C 166.50 138.69 165.77 137.96 164.87 137.96 C 163.97 137.95 163.24 138.68 163.24 139.57 Z M 163.23 140.52 L 163.21 141.54 C 163.18 142.44 163.89 143.19 164.79 143.21 C 165.69 143.23 166.44 142.52 166.46 141.62 L 166.49 140.60 C 166.51 139.70 165.80 138.96 164.90 138.93 C 164.00 138.91 163.26 139.62 163.23 140.52 Z M 163.21 141.50 L 163.16 142.47 C 163.11 143.37 163.80 144.14 164.70 144.18 C 165.60 144.23 166.36 143.54 166.41 142.64 L 166.46 141.67 C 166.50 140.77 165.81 140.00 164.92 139.96 C 164.02 139.91 163.25 140.60 163.21 141.50 Z M 163.16 142.45 L 163.09 143.48 C 163.03 144.38 163.71 145.15 164.61 145.21 C 165.50 145.27 166.28 144.60 166.34 143.70 L 166.41 142.67 C 166.47 141.77 165.79 140.99 164.89 140.94 C 164.00 140.88 163.22 141.55 163.16 142.45 Z M 163.09 143.47 L 163.02 144.43 C 162.96 145.33 163.63 146.11 164.53 146.17 C 165.42 146.24 166.20 145.57 166.27 144.67 L 166.34 143.71 C 166.40 142.82 165.73 142.04 164.83 141.97 C 163.94 141.91 163.16 142.58 163.09 143.47 Z M 163.03 144.43 L 162.95 145.44 C 162.88 146.34 163.55 147.12 164.45 147.18 C 165.34 147.25 166.12 146.58 166.19 145.69 L 166.26 144.68 C 166.33 143.78 165.66 143.00 164.77 142.93 C 163.87 142.87 163.09 143.54 163.03 144.43 Z M 162.95 145.44 L 162.87 146.45 C 162.81 147.34 163.48 148.12 164.37 148.19 C 165.27 148.26 166.04 147.59 166.11 146.69 L 166.19 145.69 C 166.25 144.79 165.58 144.01 164.69 143.95 C 163.80 143.88 163.02 144.55 162.95 145.44 Z M 162.88 146.45 L 162.80 147.44 C 162.74 148.33 163.41 149.11 164.30 149.17 C 165.19 149.24 165.97 148.57 166.04 147.68 L 166.11 146.69 C 166.18 145.80 165.51 145.02 164.61 144.95 C 163.72 144.89 162.94 145.56 162.88 146.45 Z M 162.80 147.43 L 162.73 148.44 C 162.66 149.34 163.32 150.12 164.22 150.19 C 165.11 150.25 165.89 149.59 165.96 148.69 L 166.04 147.68 C 166.10 146.79 165.44 146.01 164.54 145.94 C 163.65 145.87 162.87 146.54 162.80 147.43 Z M 162.73 148.44 L 162.64 149.43 C 162.57 150.33 163.24 151.11 164.13 151.18 C 165.02 151.25 165.80 150.59 165.88 149.70 L 165.96 148.70 C 166.03 147.81 165.37 147.03 164.47 146.95 C 163.58 146.88 162.80 147.54 162.73 148.44 Z M 162.65 149.42 L 162.56 150.42 C 162.48 151.31 163.14 152.10 164.03 152.17 C 164.92 152.25 165.71 151.59 165.79 150.70 L 165.87 149.71 C 165.95 148.81 165.29 148.03 164.40 147.95 C 163.51 147.87 162.72 148.53 162.65 149.42 Z M 162.56 150.41 L 162.47 151.41 C 162.38 152.30 163.04 153.09 163.93 153.18 C 164.82 153.26 165.61 152.61 165.69 151.72 L 165.79 150.71 C 165.87 149.82 165.22 149.03 164.32 148.95 C 163.43 148.86 162.64 149.52 162.56 150.41 Z M 162.47 151.40 L 162.37 152.39 C 162.28 153.28 162.93 154.08 163.82 154.17 C 164.71 154.26 165.50 153.61 165.59 152.72 L 165.69 151.73 C 165.78 150.84 165.13 150.04 164.24 149.95 C 163.35 149.86 162.56 150.51 162.47 151.40 Z M 162.37 152.39 L 162.27 153.38 C 162.17 154.27 162.82 155.06 163.71 155.16 C 164.60 155.25 165.40 154.60 165.49 153.71 L 165.59 152.72 C 165.68 151.83 165.04 151.04 164.15 150.94 C 163.26 150.85 162.46 151.50 162.37 152.39 Z M 162.27 153.38 L 162.17 154.38 C 162.08 155.27 162.72 156.07 163.61 156.16 C 164.50 156.25 165.30 155.60 165.39 154.71 L 165.49 153.71 C 165.58 152.82 164.93 152.02 164.04 151.93 C 163.15 151.84 162.36 152.49 162.27 153.38 Z M 162.17 154.40 L 162.07 155.41 C 161.99 156.30 162.64 157.09 163.53 157.17 C 164.42 157.25 165.21 156.60 165.29 155.71 L 165.39 154.70 C 165.47 153.81 164.82 153.02 163.93 152.94 C 163.04 152.85 162.25 153.51 162.17 154.40 Z M 162.07 155.42 L 161.98 156.43 C 161.90 157.32 162.56 158.10 163.45 158.18 C 164.34 158.26 165.13 157.60 165.20 156.71 L 165.29 155.70 C 165.37 154.81 164.71 154.03 163.82 153.95 C 162.93 153.87 162.15 154.53 162.07 155.42 Z M 161.98 156.44 L 161.90 157.42 C 161.83 158.31 162.49 159.09 163.38 159.16 C 164.27 159.24 165.05 158.58 165.12 157.69 L 165.20 156.70 C 165.28 155.82 164.62 155.03 163.73 154.96 C 162.84 154.89 162.06 155.55 161.98 156.44 Z M 161.90 157.43 L 161.82 158.45 C 161.75 159.34 162.41 160.12 163.30 160.19 C 164.19 160.26 164.97 159.60 165.04 158.71 L 165.12 157.68 C 165.19 156.80 164.53 156.02 163.64 155.95 C 162.75 155.87 161.97 156.54 161.90 157.43 Z M 161.82 158.46 L 161.74 159.46 C 161.67 160.35 162.33 161.12 163.22 161.20 C 164.11 161.27 164.89 160.60 164.96 159.72 L 165.04 158.71 C 165.11 157.82 164.45 157.05 163.56 156.98 C 162.67 156.90 161.89 157.57 161.82 158.46 Z M 161.74 159.46 L 161.66 160.40 C 161.59 161.29 162.25 162.07 163.14 162.14 C 164.03 162.21 164.81 161.55 164.88 160.67 L 164.96 159.72 C 165.03 158.83 164.37 158.05 163.48 157.98 C 162.59 157.91 161.81 158.57 161.74 159.46 Z M 161.66 160.40 L 161.58 161.43 C 161.50 162.32 162.16 163.10 163.05 163.17 C 163.94 163.25 164.72 162.59 164.79 161.70 L 164.88 160.67 C 164.95 159.78 164.29 159.00 163.41 158.93 C 162.52 158.85 161.74 159.51 161.66 160.40 Z M 161.58 161.44 L 161.50 162.41 C 161.44 163.30 162.10 164.08 162.99 164.14 C 163.88 164.21 164.65 163.55 164.72 162.66 L 164.79 161.69 C 164.86 160.80 164.20 160.02 163.31 159.96 C 162.42 159.89 161.64 160.55 161.58 161.44 Z M 161.50 162.45 L 161.45 163.39 C 161.40 164.28 162.08 165.04 162.97 165.09 C 163.86 165.14 164.62 164.46 164.67 163.57 L 164.72 162.62 C 164.77 161.73 164.09 160.97 163.20 160.93 C 162.31 160.88 161.55 161.56 161.50 162.45 Z M 161.45 163.43 L 161.42 164.43 C 161.39 165.32 162.09 166.06 162.98 166.09 C 163.87 166.11 164.62 165.41 164.64 164.52 L 164.67 163.52 C 164.70 162.63 164.00 161.89 163.11 161.87 C 162.22 161.84 161.47 162.54 161.45 163.43 Z M 161.42 164.46 L 161.40 165.48 C 161.39 166.37 162.11 167.11 163.00 167.12 C 163.89 167.13 164.62 166.41 164.63 165.52 L 164.64 164.49 C 164.65 163.60 163.94 162.87 163.05 162.86 C 162.16 162.85 161.43 163.56 161.42 164.46 Z M 161.40 165.51 L 161.41 166.53 C 161.41 167.42 162.13 168.14 163.02 168.14 C 163.91 168.14 164.63 167.42 164.63 166.53 L 164.63 165.50 C 164.63 164.61 163.91 163.89 163.02 163.89 C 162.12 163.89 161.40 164.61 161.40 165.51 Z M 161.41 166.56 L 161.43 167.56 C 161.44 168.46 162.18 169.16 163.07 169.15 C 163.96 169.13 164.67 168.39 164.65 167.50 L 164.63 166.50 C 164.62 165.61 163.88 164.90 162.99 164.91 C 162.10 164.93 161.39 165.67 161.41 166.56 Z M 161.43 167.64 L 161.50 168.75 C 161.56 169.64 162.33 170.31 163.22 170.25 C 164.11 170.19 164.79 169.42 164.73 168.53 L 164.65 167.42 C 164.59 166.53 163.82 165.86 162.93 165.92 C 162.04 165.98 161.37 166.75 161.43 167.64 Z M 161.56 169.10 L 161.82 169.97 C 162.08 170.83 162.98 171.32 163.83 171.07 C 164.69 170.81 165.18 169.91 164.92 169.06 L 164.66 168.18 C 164.41 167.32 163.51 166.83 162.66 167.09 C 161.80 167.34 161.31 168.24 161.56 169.10 Z M 162.26 170.69 L 162.90 171.30 C 163.55 171.91 164.57 171.89 165.19 171.24 C 165.80 170.59 165.78 169.56 165.13 168.95 L 164.49 168.34 C 163.84 167.73 162.81 167.75 162.20 168.40 C 161.58 169.05 161.61 170.07 162.26 170.69 Z M 163.44 171.64 L 164.41 172.01 C 165.25 172.33 166.19 171.91 166.50 171.07 C 166.82 170.23 166.40 169.29 165.56 168.97 L 164.59 168.60 C 163.75 168.29 162.81 168.71 162.49 169.55 C 162.18 170.39 162.60 171.32 163.44 171.64 Z M 164.62 172.08 L 165.60 172.30 C 166.47 172.51 167.35 171.96 167.55 171.08 C 167.75 170.21 167.21 169.34 166.33 169.13 L 165.35 168.91 C 164.48 168.70 163.60 169.25 163.40 170.12 C 163.20 171.00 163.74 171.87 164.62 172.08 Z M 165.71 172.33 L 166.70 172.49 C 167.59 172.63 168.43 172.02 168.57 171.14 C 168.71 170.25 168.11 169.41 167.22 169.27 L 166.23 169.11 C 165.34 168.97 164.50 169.57 164.36 170.46 C 164.22 171.35 164.82 172.18 165.71 172.33 Z M 166.81 172.50 L 167.80 172.59 C 168.69 172.68 169.49 172.02 169.57 171.13 C 169.66 170.24 169.00 169.44 168.11 169.36 L 167.12 169.26 C 166.23 169.17 165.43 169.83 165.34 170.72 C 165.26 171.62 165.91 172.41 166.81 172.50 Z M 167.88 172.59 L 168.88 172.64 C 169.77 172.67 170.52 171.98 170.56 171.09 C 170.60 170.20 169.91 169.44 169.02 169.40 L 168.03 169.36 C 167.13 169.32 166.38 170.01 166.34 170.90 C 166.30 171.80 166.99 172.55 167.88 172.59 Z M 168.92 172.63 L 169.92 172.64 C 170.81 172.65 171.54 171.94 171.55 171.06 C 171.56 170.17 170.85 169.44 169.97 169.43 L 168.97 169.41 C 168.08 169.40 167.35 170.11 167.34 171.00 C 167.33 171.88 168.04 172.61 168.92 172.63 Z M 169.99 172.62 L 170.99 172.60 C 171.87 172.57 172.56 171.84 172.54 170.96 C 172.51 170.08 171.78 169.39 170.90 169.41 L 169.90 169.44 C 169.02 169.47 168.33 170.20 168.35 171.08 C 168.38 171.96 169.11 172.65 169.99 172.62 Z M 171.13 172.57 L 172.11 172.45 C 172.97 172.35 173.59 171.57 173.49 170.71 C 173.39 169.85 172.61 169.23 171.74 169.33 L 170.76 169.44 C 169.90 169.54 169.28 170.32 169.38 171.19 C 169.48 172.05 170.26 172.67 171.13 172.57 Z M 172.27 172.41 L 173.19 172.20 C 174.02 172.01 174.55 171.17 174.36 170.34 C 174.17 169.50 173.34 168.98 172.50 169.17 L 171.58 169.38 C 170.74 169.57 170.22 170.40 170.41 171.24 C 170.60 172.07 171.43 172.60 172.27 172.41 Z M 173.29 172.15 L 174.29 171.84 C 175.10 171.59 175.55 170.73 175.30 169.92 C 175.05 169.12 174.20 168.66 173.39 168.91 L 172.39 169.22 C 171.58 169.47 171.13 170.32 171.38 171.13 C 171.63 171.94 172.49 172.40 173.29 172.15 Z M 174.34 171.82 L 175.26 171.50 C 176.06 171.22 176.48 170.35 176.20 169.56 C 175.93 168.76 175.06 168.34 174.26 168.61 L 173.34 168.93 C 172.54 169.21 172.12 170.08 172.40 170.88 C 172.67 171.67 173.54 172.09 174.34 171.82 Z M 175.28 171.50 L 176.21 171.16 C 177.01 170.87 177.42 169.99 177.13 169.20 C 176.84 168.40 175.96 167.99 175.16 168.28 L 174.24 168.61 C 173.44 168.90 173.03 169.78 173.32 170.58 C 173.61 171.38 174.49 171.79 175.28 171.50 Z M 176.23 171.17 L 177.20 170.81 C 178.00 170.51 178.41 169.62 178.11 168.82 C 177.82 168.01 176.92 167.60 176.12 167.90 L 175.15 168.26 C 174.34 168.56 173.93 169.46 174.23 170.26 C 174.53 171.06 175.42 171.47 176.23 171.17 Z M 177.21 170.82 L 177.86 170.58 C 178.67 170.28 179.08 169.37 178.78 168.56 C 178.48 167.76 177.58 167.34 176.77 167.65 L 176.11 167.89 C 175.30 168.20 174.89 169.10 175.19 169.91 C 175.50 170.72 176.40 171.13 177.21 170.82 Z"
      fill="black"
      fill-rule="nonzero" /></svg>