<svg xmlns="http://www.w3.org/2000/svg" width="300" height="300" viewBox="0 0 300 300">
<path d="M 139.70 120.73 L 140.24 121.50 C 140.72 122.17 141.65 122.34 142.32 121.87 C 143.00 121.39 143.17 120.46 142.69 119.78 L 142.15 119.01 C 141.68 118.34 140.75 118.17 140.07 118.64 C 139.40 119.12 139.23 120.05 139.70 120.73 Z M 140.43 121.78 L 141.20 122.48 C 141.83 123.05 142.80 123.00 143.38 122.37 C 143.95 121.74 143.90 120.77 143.27 120.20 L 142.50 119.50 C 141.87 118.93 140.90 118.98 140.33 119.61 C 139.76 120.24 139.80 121.21 140.43 121.78 Z M 141.47 122.69 L 142.32 123.16 C 143.07 123.58 144.01 123.32 144.43 122.57 C 144.85 121.83 144.59 120.88 143.84 120.46 L 143.00 119.99 C 142.25 119.56 141.30 119.83 140.88 120.58 C 140.46 121.32 140.73 122.27 141.47 122.69 Z M 142.47 123.22 L 143.42 123.64 C 144.20 123.98 145.10 123.62 145.44 122.84 C 145.78 122.06 145.42 121.16 144.65 120.82 L 143.69 120.40 C 142.92 120.06 142.01 120.42 141.67 121.20 C 141.33 121.98 141.69 122.88 142.47 123.22 Z M 143.50 123.65 L 144.46 124.01 C 145.25 124.31 146.12 123.91 146.42 123.12 C 146.71 122.34 146.32 121.46 145.53 121.17 L 144.57 120.81 C 143.78 120.51 142.91 120.91 142.61 121.69 C 142.32 122.48 142.71 123.35 143.50 123.65 Z M 144.53 124.01 L 145.47 124.31 C 146.25 124.57 147.09 124.14 147.35 123.36 C 147.61 122.58 147.18 121.74 146.40 121.48 L 145.46 121.17 C 144.68 120.92 143.84 121.34 143.58 122.13 C 143.33 122.91 143.75 123.75 144.53 124.01 Z M 145.55 124.30 L 146.49 124.56 C 147.26 124.78 148.07 124.32 148.28 123.54 C 148.50 122.77 148.04 121.96 147.26 121.75 L 146.32 121.49 C 145.55 121.27 144.74 121.73 144.53 122.51 C 144.31 123.29 144.77 124.09 145.55 124.30 Z M 146.54 124.56 L 147.51 124.79 C 148.28 124.97 149.06 124.49 149.24 123.72 C 149.43 122.94 148.95 122.16 148.17 121.98 L 147.21 121.75 C 146.43 121.57 145.65 122.05 145.47 122.82 C 145.29 123.60 145.77 124.38 146.54 124.56 Z M 147.53 124.79 L 148.53 125.00 C 149.30 125.17 150.07 124.68 150.23 123.91 C 150.40 123.13 149.91 122.37 149.14 122.20 L 148.14 121.98 C 147.37 121.82 146.61 122.31 146.44 123.08 C 146.27 123.85 146.76 124.62 147.53 124.79 Z M 148.53 125.00 L 148.68 125.03 C 149.45 125.19 150.21 124.70 150.37 123.93 C 150.54 123.16 150.04 122.40 149.27 122.24 L 149.13 122.20 C 148.36 122.04 147.60 122.53 147.44 123.30 C 147.27 124.07 147.76 124.83 148.53 125.00 Z"
      fill="black"
      fill-rule="nonzero" /><path d="M 156.91 117.68 L 156.17 118.39 C 155.55 119.00 155.54 119.99 156.14 120.62 C 156.75 121.24 157.75 121.26 158.37 120.65 L 159.11 119.94 C 159.73 119.33 159.75 118.33 159.14 117.71 C 158.53 117.08 157.53 117.07 156.91 117.68 Z M 156.18 118.38 L 155.45 119.08 C 154.83 119.69 154.81 120.68 155.41 121.31 C 156.01 121.94 157.01 121.96 157.64 121.36 L 158.37 120.66 C 158.99 120.05 159.01 119.05 158.41 118.43 C 157.80 117.80 156.81 117.78 156.18 118.38 Z M 155.46 119.07 L 154.76 119.74 C 154.12 120.34 154.09 121.34 154.69 121.97 C 155.29 122.60 156.29 122.63 156.92 122.03 L 157.63 121.37 C 158.26 120.77 158.29 119.77 157.69 119.14 C 157.10 118.50 156.10 118.47 155.46 119.07 Z M 154.78 119.73 L 153.98 120.46 C 153.35 121.05 153.30 122.03 153.88 122.67 C 154.47 123.31 155.46 123.35 156.09 122.77 L 156.89 122.04 C 157.53 121.46 157.57 120.47 156.99 119.83 C 156.41 119.20 155.42 119.15 154.78 119.73 Z M 154.02 120.47 L 153.27 121.13 C 152.64 121.69 152.58 122.66 153.14 123.30 C 153.70 123.93 154.67 123.99 155.31 123.43 L 156.06 122.77 C 156.69 122.21 156.75 121.23 156.19 120.60 C 155.63 119.96 154.66 119.90 154.02 120.47 Z M 153.30 121.14 L 152.58 121.76 C 151.95 122.30 151.88 123.26 152.42 123.89 C 152.97 124.52 153.92 124.59 154.55 124.05 L 155.27 123.42 C 155.91 122.88 155.98 121.93 155.43 121.29 C 154.89 120.66 153.93 120.59 153.30 121.14 Z M 152.61 121.76 L 151.84 122.40 C 151.21 122.93 151.12 123.87 151.65 124.50 C 152.18 125.14 153.12 125.22 153.76 124.69 L 154.53 124.05 C 155.16 123.52 155.24 122.58 154.71 121.94 C 154.18 121.31 153.24 121.23 152.61 121.76 Z M 151.88 122.38 L 151.14 122.96 C 150.49 123.47 150.38 124.41 150.89 125.05 C 151.40 125.70 152.34 125.81 152.98 125.30 L 153.72 124.71 C 154.36 124.20 154.47 123.27 153.96 122.62 C 153.46 121.98 152.52 121.87 151.88 122.38 Z M 151.17 122.94 L 150.37 123.54 C 149.71 124.03 149.57 124.96 150.06 125.62 C 150.55 126.27 151.48 126.41 152.14 125.92 L 152.94 125.32 C 153.60 124.83 153.74 123.90 153.25 123.25 C 152.76 122.59 151.83 122.45 151.17 122.94 Z M 150.40 123.52 L 149.60 124.09 C 148.93 124.56 148.77 125.48 149.24 126.15 C 149.71 126.81 150.63 126.97 151.30 126.50 L 152.10 125.94 C 152.77 125.47 152.93 124.55 152.46 123.88 C 151.99 123.21 151.07 123.05 150.40 123.52 Z M 149.63 124.07 L 148.78 124.65 C 148.10 125.10 147.92 126.02 148.38 126.69 C 148.83 127.37 149.75 127.54 150.43 127.09 L 151.27 126.52 C 151.95 126.06 152.13 125.15 151.67 124.47 C 151.22 123.80 150.30 123.62 149.63 124.07 Z M 148.79 124.64 L 147.96 125.19 C 147.28 125.63 147.09 126.55 147.54 127.22 C 147.98 127.90 148.89 128.09 149.57 127.65 L 150.41 127.10 C 151.09 126.65 151.28 125.74 150.83 125.06 C 150.38 124.38 149.47 124.19 148.79 124.64 Z M 147.97 125.18 L 147.13 125.73 C 146.44 126.16 146.25 127.07 146.68 127.75 C 147.12 128.44 148.03 128.63 148.71 128.20 L 149.56 127.65 C 150.24 127.21 150.44 126.31 150.00 125.62 C 149.56 124.94 148.65 124.74 147.97 125.18 Z M 147.14 125.72 L 146.29 126.25 C 145.60 126.68 145.39 127.58 145.82 128.27 C 146.25 128.96 147.15 129.17 147.84 128.74 L 148.70 128.20 C 149.38 127.78 149.59 126.87 149.16 126.18 C 148.73 125.50 147.83 125.29 147.14 125.72 Z M 146.31 126.24 L 145.46 126.75 C 144.77 127.16 144.54 128.07 144.96 128.76 C 145.38 129.46 146.28 129.68 146.98 129.26 L 147.82 128.75 C 148.52 128.33 148.74 127.43 148.32 126.74 C 147.90 126.04 147.00 125.82 146.31 126.24 Z M 145.48 126.73 L 144.61 127.24 C 143.91 127.65 143.67 128.55 144.08 129.25 C 144.49 129.95 145.39 130.19 146.09 129.78 L 146.96 129.27 C 147.66 128.86 147.90 127.96 147.49 127.26 C 147.08 126.56 146.18 126.33 145.48 126.73 Z M 144.62 127.23 L 143.75 127.73 C 143.04 128.14 142.80 129.04 143.21 129.74 C 143.61 130.45 144.51 130.69 145.21 130.29 L 146.08 129.79 C 146.79 129.38 147.03 128.48 146.63 127.78 C 146.22 127.07 145.32 126.83 144.62 127.23 Z M 143.76 127.72 L 142.89 128.21 C 142.18 128.61 141.93 129.51 142.33 130.22 C 142.73 130.93 143.63 131.18 144.34 130.78 L 145.21 130.29 C 145.92 129.89 146.17 128.99 145.77 128.28 C 145.37 127.58 144.47 127.32 143.76 127.72 Z M 142.91 128.20 L 142.02 128.68 C 141.31 129.07 141.04 129.96 141.43 130.68 C 141.82 131.40 142.71 131.67 143.43 131.28 L 144.32 130.80 C 145.03 130.41 145.30 129.51 144.91 128.80 C 144.52 128.08 143.63 127.81 142.91 128.20 Z M 142.04 128.67 L 141.17 129.13 C 140.44 129.51 140.17 130.40 140.55 131.12 C 140.92 131.85 141.82 132.12 142.54 131.74 L 143.41 131.29 C 144.14 130.91 144.41 130.01 144.04 129.29 C 143.66 128.57 142.76 128.29 142.04 128.67 Z M 141.16 129.13 L 140.33 129.57 C 139.61 129.95 139.33 130.84 139.71 131.57 C 140.09 132.29 140.99 132.57 141.71 132.18 L 142.54 131.75 C 143.27 131.37 143.54 130.47 143.16 129.75 C 142.78 129.02 141.89 128.75 141.16 129.13 Z M 140.30 129.58 L 139.38 130.09 C 138.66 130.49 138.41 131.40 138.81 132.11 C 139.21 132.83 140.12 133.09 140.83 132.69 L 141.75 132.17 C 142.47 131.77 142.72 130.87 142.32 130.15 C 141.92 129.43 141.01 129.17 140.30 129.58 Z M 139.34 130.10 L 138.47 130.62 C 137.75 131.04 137.52 131.96 137.94 132.67 C 138.36 133.39 139.28 133.62 140.00 133.20 L 140.87 132.68 C 141.58 132.25 141.82 131.33 141.40 130.62 C 140.97 129.91 140.05 129.68 139.34 130.10 Z M 138.43 130.63 L 137.58 131.16 C 136.87 131.60 136.66 132.53 137.10 133.24 C 137.54 133.95 138.48 134.16 139.18 133.72 L 140.03 133.19 C 140.74 132.75 140.96 131.81 140.51 131.11 C 140.07 130.40 139.14 130.18 138.43 130.63 Z M 137.44 131.24 L 136.54 131.94 C 135.88 132.47 135.77 133.43 136.29 134.09 C 136.81 134.75 137.77 134.87 138.43 134.34 L 139.33 133.64 C 139.99 133.11 140.11 132.15 139.58 131.49 C 139.06 130.83 138.10 130.71 137.44 131.24 Z M 136.44 134.28 L 136.76 134.58 C 137.39 135.16 138.37 135.12 138.95 134.49 C 139.53 133.86 139.49 132.88 138.86 132.30 L 138.54 132.00 C 137.91 131.42 136.93 131.46 136.35 132.09 C 135.77 132.72 135.81 133.70 136.44 134.28 Z M 137.70 135.01 L 138.79 135.09 C 139.67 135.15 140.42 134.49 140.48 133.62 C 140.54 132.75 139.88 132.00 139.01 131.94 L 137.92 131.86 C 137.05 131.80 136.29 132.46 136.23 133.33 C 136.17 134.20 136.83 134.95 137.70 135.01 Z M 138.88 135.11 L 140.05 135.13 C 140.93 135.14 141.66 134.43 141.67 133.55 C 141.68 132.66 140.97 131.94 140.09 131.93 L 138.92 131.91 C 138.04 131.90 137.31 132.61 137.30 133.49 C 137.29 134.38 138.00 135.10 138.88 135.11 Z M 140.06 135.14 L 141.11 135.14 C 142.00 135.14 142.72 134.42 142.72 133.54 C 142.73 132.65 142.01 131.93 141.12 131.92 L 140.07 131.92 C 139.18 131.92 138.46 132.64 138.46 133.52 C 138.45 134.41 139.17 135.13 140.06 135.14 Z M 141.12 135.14 L 142.13 135.14 C 143.02 135.14 143.74 134.41 143.73 133.52 C 143.73 132.63 143.01 131.91 142.12 131.92 L 141.11 131.92 C 140.22 131.92 139.50 132.65 139.50 133.54 C 139.51 134.43 140.23 135.15 141.12 135.14 Z M 142.15 135.14 L 143.21 135.13 C 144.10 135.11 144.81 134.38 144.80 133.49 C 144.79 132.60 144.05 131.88 143.16 131.90 L 142.10 131.91 C 141.21 131.93 140.49 132.66 140.51 133.55 C 140.52 134.44 141.26 135.16 142.15 135.14 Z M 143.26 135.12 L 144.22 135.08 C 145.11 135.04 145.80 134.28 145.76 133.39 C 145.72 132.50 144.96 131.81 144.07 131.85 L 143.11 131.90 C 142.22 131.94 141.53 132.70 141.57 133.59 C 141.62 134.48 142.37 135.17 143.26 135.12 Z M 144.32 135.07 L 145.22 134.98 C 146.11 134.88 146.75 134.08 146.65 133.20 C 146.56 132.31 145.76 131.67 144.88 131.76 L 143.97 131.86 C 143.09 131.95 142.44 132.75 142.54 133.64 C 142.63 134.52 143.43 135.17 144.32 135.07 Z M 145.30 134.96 L 146.29 134.81 C 147.17 134.67 147.78 133.84 147.64 132.96 C 147.50 132.08 146.68 131.48 145.80 131.62 L 144.80 131.77 C 143.92 131.91 143.32 132.74 143.45 133.62 C 143.59 134.50 144.42 135.10 145.30 134.96 Z M 146.34 134.80 L 147.31 134.61 C 148.19 134.45 148.76 133.61 148.60 132.73 C 148.44 131.86 147.59 131.28 146.72 131.45 L 145.75 131.63 C 144.87 131.79 144.30 132.64 144.46 133.51 C 144.63 134.38 145.47 134.96 146.34 134.80 Z M 147.35 134.60 L 148.34 134.39 C 149.21 134.21 149.76 133.35 149.58 132.49 C 149.39 131.62 148.54 131.06 147.67 131.25 L 146.68 131.46 C 145.81 131.64 145.26 132.50 145.44 133.37 C 145.63 134.24 146.48 134.79 147.35 134.60 Z M 148.37 134.38 L 149.33 134.16 C 150.19 133.96 150.73 133.10 150.53 132.23 C 150.32 131.37 149.46 130.83 148.60 131.03 L 147.64 131.26 C 146.78 131.46 146.24 132.32 146.44 133.18 C 146.64 134.05 147.50 134.58 148.37 134.38 Z M 149.33 134.15 L 150.32 133.92 C 151.18 133.72 151.72 132.85 151.51 131.99 C 151.31 131.13 150.45 130.60 149.59 130.81 L 148.59 131.04 C 147.73 131.24 147.20 132.11 147.41 132.97 C 147.61 133.83 148.47 134.36 149.33 134.15 Z M 150.32 133.92 L 151.30 133.68 C 152.16 133.48 152.69 132.62 152.49 131.76 C 152.28 130.91 151.42 130.38 150.57 130.58 L 149.59 130.81 C 148.73 131.01 148.20 131.87 148.40 132.73 C 148.61 133.59 149.46 134.12 150.32 133.92 Z M 151.32 133.67 L 152.29 133.43 C 153.15 133.21 153.66 132.35 153.45 131.50 C 153.23 130.65 152.37 130.13 151.52 130.34 L 150.55 130.59 C 149.69 130.80 149.18 131.67 149.39 132.52 C 149.61 133.37 150.47 133.89 151.32 133.67 Z M 152.33 133.41 L 153.30 133.14 C 154.14 132.91 154.63 132.03 154.40 131.19 C 154.16 130.35 153.29 129.85 152.44 130.09 L 151.48 130.36 C 150.64 130.59 150.14 131.47 150.38 132.31 C 150.61 133.16 151.49 133.65 152.33 133.41 Z M 153.31 133.13 L 154.26 132.86 C 155.10 132.61 155.58 131.73 155.34 130.90 C 155.09 130.06 154.22 129.58 153.38 129.82 L 152.43 130.10 C 151.59 130.34 151.11 131.22 151.35 132.06 C 151.60 132.90 152.47 133.38 153.31 133.13 Z M 154.26 132.85 L 155.22 132.58 C 156.06 132.33 156.54 131.46 156.30 130.63 C 156.06 129.79 155.18 129.31 154.35 129.55 L 153.39 129.83 C 152.55 130.07 152.07 130.94 152.31 131.78 C 152.55 132.61 153.42 133.09 154.26 132.85 Z M 155.20 132.58 L 156.17 132.31 C 157.01 132.08 157.50 131.22 157.27 130.38 C 157.04 129.54 156.17 129.05 155.34 129.28 L 154.37 129.55 C 153.53 129.78 153.04 130.64 153.27 131.48 C 153.50 132.31 154.36 132.81 155.20 132.58 Z M 156.15 132.31 L 157.12 132.06 C 157.95 131.84 158.45 130.98 158.24 130.15 C 158.02 129.31 157.16 128.81 156.32 129.03 L 155.36 129.28 C 154.52 129.50 154.02 130.36 154.24 131.19 C 154.46 132.03 155.31 132.53 156.15 132.31 Z M 157.12 132.05 L 158.09 131.80 C 158.92 131.58 159.42 130.72 159.20 129.89 C 158.98 129.06 158.13 128.56 157.30 128.78 L 156.32 129.03 C 155.49 129.25 154.99 130.11 155.21 130.94 C 155.43 131.77 156.29 132.27 157.12 132.05 Z M 158.08 131.79 L 159.04 131.54 C 159.87 131.33 160.37 130.48 160.16 129.65 C 159.94 128.82 159.10 128.32 158.27 128.53 L 157.30 128.78 C 156.47 129.00 155.97 129.84 156.19 130.68 C 156.40 131.51 157.25 132.01 158.08 131.79 Z M 159.00 131.54 L 159.98 131.32 C 160.81 131.13 161.33 130.30 161.14 129.47 C 160.94 128.64 160.12 128.12 159.28 128.31 L 158.31 128.53 C 157.48 128.72 156.96 129.55 157.15 130.38 C 157.34 131.22 158.17 131.74 159.00 131.54 Z M 159.96 131.31 L 160.92 131.10 C 161.75 130.92 162.28 130.10 162.09 129.27 C 161.91 128.44 161.09 127.92 160.26 128.10 L 159.30 128.31 C 158.47 128.49 157.95 129.31 158.13 130.14 C 158.31 130.97 159.13 131.50 159.96 131.31 Z M 160.91 131.09 L 161.87 130.89 C 162.69 130.71 163.22 129.90 163.04 129.08 C 162.86 128.25 162.05 127.73 161.22 127.91 L 160.27 128.11 C 159.45 128.29 158.92 129.10 159.10 129.92 C 159.28 130.75 160.09 131.27 160.91 131.09 Z M 161.78 130.89 L 162.77 130.74 C 163.60 130.61 164.17 129.84 164.04 129.02 C 163.91 128.19 163.14 127.62 162.31 127.75 L 161.32 127.90 C 160.49 128.03 159.92 128.80 160.05 129.63 C 160.18 130.45 160.95 131.02 161.78 130.89 Z M 162.68 130.74 L 163.67 130.65 C 164.50 130.58 165.11 129.85 165.04 129.02 C 164.96 128.19 164.23 127.58 163.40 127.66 L 162.41 127.75 C 161.58 127.82 160.97 128.55 161.05 129.38 C 161.12 130.21 161.85 130.82 162.68 130.74 Z M 163.64 130.65 L 164.37 130.60 C 165.19 130.54 165.81 129.83 165.76 129.00 C 165.70 128.18 164.99 127.56 164.16 127.61 L 163.44 127.66 C 162.61 127.72 161.99 128.43 162.05 129.26 C 162.10 130.08 162.82 130.70 163.64 130.65 Z"
      fill="black"
      fill-rule="nonzero" /><path d="M 140.05 138.71 L 139.63 139.59 C 139.28 140.33 139.60 141.22 140.34 141.57 C 141.08 141.92 141.97 141.61 142.32 140.86 L 142.74 139.99 C 143.09 139.25 142.77 138.36 142.03 138.01 C 141.29 137.65 140.40 137.97 140.05 138.71 Z M 139.51 139.86 L 139.26 140.84 C 139.06 141.65 139.55 142.47 140.37 142.67 C 141.18 142.88 142.00 142.38 142.20 141.57 L 142.45 140.59 C 142.65 139.78 142.16 138.96 141.34 138.76 C 140.53 138.55 139.71 139.05 139.51 139.86 Z M 139.20 141.11 L 139.14 142.12 C 139.09 142.96 139.73 143.69 140.57 143.74 C 141.42 143.80 142.15 143.15 142.20 142.31 L 142.26 141.30 C 142.32 140.45 141.67 139.72 140.83 139.67 C 139.98 139.62 139.25 140.26 139.20 141.11 Z M 139.12 142.21 L 139.12 143.19 C 139.12 144.04 139.81 144.74 140.66 144.74 C 141.51 144.74 142.21 144.05 142.21 143.20 L 142.22 142.22 C 142.22 141.36 141.53 140.67 140.68 140.67 C 139.82 140.66 139.13 141.35 139.12 142.21 Z M 139.11 143.20 L 139.12 144.15 C 139.12 145.01 139.82 145.70 140.68 145.70 C 141.53 145.69 142.23 145.00 142.22 144.14 L 142.22 143.19 C 142.22 142.33 141.52 141.64 140.66 141.64 C 139.80 141.64 139.11 142.34 139.11 143.20 Z M 139.11 144.16 L 139.13 145.20 C 139.14 146.06 139.84 146.75 140.70 146.74 C 141.56 146.73 142.25 146.02 142.24 145.16 L 142.23 144.12 C 142.21 143.26 141.51 142.58 140.65 142.59 C 139.79 142.60 139.10 143.31 139.11 144.16 Z M 139.13 145.21 L 139.14 146.19 C 139.16 147.05 139.87 147.73 140.73 147.72 C 141.59 147.70 142.27 146.99 142.26 146.13 L 142.24 145.15 C 142.22 144.29 141.51 143.61 140.65 143.62 C 139.79 143.64 139.11 144.35 139.13 145.21 Z M 139.14 146.19 L 139.16 147.23 C 139.18 148.09 139.89 148.78 140.75 148.76 C 141.61 148.74 142.29 148.03 142.28 147.17 L 142.26 146.13 C 142.24 145.27 141.53 144.59 140.67 144.60 C 139.81 144.62 139.13 145.33 139.14 146.19 Z M 139.16 147.22 L 139.18 148.27 C 139.19 149.13 139.89 149.82 140.75 149.81 C 141.61 149.79 142.30 149.09 142.29 148.23 L 142.28 147.18 C 142.27 146.32 141.56 145.63 140.70 145.64 C 139.84 145.66 139.15 146.36 139.16 147.22 Z M 139.18 148.26 L 139.18 149.27 C 139.19 150.13 139.89 150.82 140.75 150.82 C 141.61 150.81 142.30 150.11 142.30 149.25 L 142.29 148.24 C 142.29 147.38 141.58 146.68 140.72 146.69 C 139.86 146.70 139.17 147.40 139.18 148.26 Z M 139.18 149.26 L 139.19 150.23 C 139.19 151.09 139.88 151.79 140.74 151.79 C 141.60 151.78 142.30 151.09 142.30 150.23 L 142.29 149.26 C 142.29 148.40 141.60 147.71 140.74 147.71 C 139.88 147.71 139.18 148.41 139.18 149.26 Z M 139.19 150.23 L 139.19 151.22 C 139.19 152.08 139.88 152.78 140.74 152.78 C 141.60 152.78 142.29 152.08 142.29 151.22 L 142.29 150.23 C 142.29 149.37 141.60 148.68 140.74 148.68 C 139.88 148.68 139.19 149.37 139.19 150.23 Z M 139.19 151.22 L 139.19 152.23 C 139.19 153.08 139.89 153.77 140.74 153.77 C 141.59 153.77 142.29 153.08 142.29 152.23 L 142.29 151.22 C 142.29 150.37 141.59 149.68 140.74 149.68 C 139.89 149.68 139.19 150.37 139.19 151.22 Z M 139.20 152.23 L 139.20 153.23 C 139.20 154.08 139.89 154.77 140.74 154.77 C 141.59 154.77 142.28 154.08 142.28 153.23 L 142.28 152.23 C 142.28 151.38 141.59 150.69 140.74 150.69 C 139.89 150.69 139.20 151.38 139.20 152.23 Z M 139.21 153.23 L 139.21 154.26 C 139.21 155.10 139.89 155.79 140.74 155.79 C 141.59 155.79 142.27 155.10 142.27 154.26 L 142.27 153.23 C 142.27 152.38 141.59 151.69 140.74 151.69 C 139.89 151.69 139.21 152.38 139.21 153.23 Z M 139.22 154.26 L 139.22 155.23 C 139.22 156.07 139.90 156.76 140.74 156.76 C 141.58 156.76 142.27 156.07 142.27 155.23 L 142.27 154.26 C 142.27 153.41 141.58 152.73 140.74 152.73 C 139.90 152.73 139.22 153.41 139.22 154.26 Z M 139.23 155.23 L 139.23 156.27 C 139.22 157.10 139.90 157.78 140.73 157.79 C 141.57 157.79 142.25 157.11 142.25 156.28 L 142.25 155.24 C 142.25 154.40 141.58 153.72 140.74 153.72 C 139.91 153.72 139.23 154.39 139.23 155.23 Z M 139.24 156.23 L 139.21 157.19 C 139.19 158.02 139.84 158.71 140.66 158.73 C 141.49 158.76 142.18 158.11 142.20 157.29 L 142.23 156.32 C 142.26 155.50 141.61 154.81 140.79 154.78 C 139.96 154.75 139.27 155.40 139.24 156.23 Z M 139.24 157.03 L 139.10 158.07 C 138.98 158.88 139.54 159.63 140.35 159.75 C 141.16 159.86 141.91 159.30 142.02 158.49 L 142.17 157.45 C 142.29 156.64 141.73 155.89 140.92 155.78 C 140.11 155.66 139.36 156.22 139.24 157.03 Z M 142.01 158.08 L 141.93 157.55 C 141.82 156.75 141.08 156.20 140.28 156.31 C 139.48 156.42 138.92 157.17 139.03 157.97 L 139.11 158.49 C 139.22 159.29 139.97 159.85 140.77 159.73 C 141.57 159.62 142.12 158.88 142.01 158.08 Z M 141.93 157.76 L 141.93 156.69 C 141.94 155.89 141.29 155.24 140.49 155.24 C 139.69 155.24 139.04 155.89 139.04 156.69 L 139.04 157.76 C 139.03 158.56 139.68 159.21 140.48 159.21 C 141.28 159.21 141.93 158.56 141.93 157.76 Z M 141.92 156.75 L 141.97 155.57 C 142.00 154.78 141.39 154.11 140.60 154.08 C 139.81 154.04 139.14 154.66 139.11 155.45 L 139.05 156.63 C 139.02 157.42 139.63 158.09 140.42 158.12 C 141.21 158.16 141.88 157.54 141.92 156.75 Z M 141.96 155.64 L 142.04 154.67 C 142.11 153.89 141.53 153.19 140.75 153.12 C 139.97 153.06 139.27 153.63 139.20 154.42 L 139.12 155.39 C 139.05 156.17 139.63 156.86 140.41 156.93 C 141.20 157.00 141.89 156.42 141.96 155.64 Z M 142.04 154.73 L 142.16 153.75 C 142.26 152.97 141.71 152.25 140.93 152.15 C 140.15 152.05 139.44 152.60 139.34 153.38 L 139.21 154.36 C 139.11 155.14 139.66 155.86 140.44 155.96 C 141.22 156.06 141.94 155.51 142.04 154.73 Z M 142.16 153.79 L 142.32 152.78 C 142.44 152.01 141.91 151.28 141.13 151.15 C 140.35 151.03 139.62 151.56 139.50 152.34 L 139.34 153.35 C 139.22 154.12 139.75 154.85 140.53 154.98 C 141.31 155.10 142.04 154.57 142.16 153.79 Z M 142.31 152.80 L 142.47 151.87 C 142.61 151.09 142.09 150.35 141.31 150.22 C 140.54 150.09 139.80 150.61 139.67 151.38 L 139.50 152.32 C 139.37 153.10 139.89 153.83 140.67 153.97 C 141.44 154.10 142.18 153.58 142.31 152.80 Z M 142.47 151.88 L 142.65 150.89 C 142.80 150.11 142.28 149.37 141.51 149.23 C 140.73 149.09 139.99 149.60 139.85 150.37 L 139.67 151.37 C 139.53 152.14 140.04 152.88 140.81 153.03 C 141.59 153.17 142.33 152.66 142.47 151.88 Z M 142.65 150.90 L 142.85 149.87 C 142.99 149.10 142.49 148.35 141.71 148.21 C 140.94 148.06 140.19 148.57 140.05 149.34 L 139.85 150.36 C 139.70 151.14 140.21 151.88 140.98 152.03 C 141.76 152.18 142.50 151.67 142.65 150.90 Z M 142.85 149.88 L 143.05 148.83 C 143.21 148.06 142.70 147.31 141.93 147.16 C 141.16 147.01 140.41 147.51 140.26 148.28 L 140.05 149.33 C 139.90 150.10 140.40 150.85 141.17 151.00 C 141.94 151.16 142.69 150.65 142.85 149.88 Z M 143.05 148.84 L 143.26 147.80 C 143.42 147.03 142.93 146.28 142.15 146.12 C 141.38 145.96 140.63 146.46 140.47 147.23 L 140.26 148.27 C 140.10 149.04 140.60 149.79 141.37 149.95 C 142.14 150.11 142.89 149.61 143.05 148.84 Z M 143.26 147.82 L 143.47 146.84 C 143.64 146.07 143.15 145.31 142.38 145.15 C 141.61 144.98 140.85 145.47 140.68 146.24 L 140.47 147.22 C 140.31 147.99 140.80 148.75 141.57 148.91 C 142.34 149.08 143.10 148.59 143.26 147.82 Z M 143.47 146.86 L 143.67 145.98 C 143.84 145.21 143.36 144.45 142.59 144.27 C 141.83 144.10 141.06 144.58 140.89 145.35 L 140.69 146.22 C 140.51 146.99 140.99 147.76 141.76 147.93 C 142.53 148.11 143.29 147.63 143.47 146.86 Z M 143.66 146.01 L 143.94 144.93 C 144.13 144.16 143.67 143.39 142.90 143.19 C 142.14 143.00 141.36 143.46 141.17 144.23 L 140.89 145.31 C 140.70 146.08 141.16 146.86 141.93 147.05 C 142.69 147.24 143.47 146.78 143.66 146.01 Z M 143.93 144.98 L 144.19 144.09 C 144.41 143.33 143.98 142.53 143.22 142.31 C 142.46 142.09 141.66 142.52 141.44 143.28 L 141.18 144.18 C 140.95 144.93 141.39 145.73 142.15 145.95 C 142.91 146.18 143.70 145.74 143.93 144.98 Z M 144.17 144.15 L 144.48 143.25 C 144.74 142.50 144.34 141.68 143.59 141.42 C 142.84 141.17 142.02 141.57 141.76 142.32 L 141.46 143.22 C 141.20 143.97 141.60 144.79 142.35 145.04 C 143.10 145.30 143.92 144.90 144.17 144.15 Z M 144.44 143.36 L 144.84 142.45 C 145.16 141.73 144.83 140.88 144.10 140.56 C 143.37 140.24 142.52 140.57 142.20 141.30 L 141.80 142.20 C 141.48 142.93 141.82 143.78 142.54 144.10 C 143.27 144.42 144.12 144.09 144.44 143.36 Z M 144.74 142.65 L 145.29 141.78 C 145.72 141.10 145.51 140.21 144.84 139.78 C 144.16 139.36 143.27 139.56 142.84 140.24 L 142.30 141.11 C 141.87 141.78 142.07 142.68 142.75 143.10 C 143.43 143.53 144.32 143.32 144.74 142.65 Z M 145.08 142.05 L 145.78 141.37 C 146.36 140.81 146.37 139.89 145.81 139.31 C 145.25 138.74 144.33 138.72 143.75 139.28 L 143.05 139.96 C 142.47 140.52 142.46 141.44 143.02 142.02 C 143.58 142.60 144.50 142.61 145.08 142.05 Z M 145.20 141.73 L 146.12 141.45 C 146.90 141.21 147.33 140.39 147.10 139.62 C 146.86 138.84 146.04 138.40 145.26 138.64 L 144.34 138.92 C 143.56 139.16 143.13 139.98 143.36 140.75 C 143.60 141.53 144.42 141.97 145.20 141.73 Z M 145.15 141.43 L 146.02 141.77 C 146.78 142.07 147.65 141.69 147.94 140.93 C 148.24 140.16 147.87 139.30 147.10 139.00 L 146.23 138.66 C 145.47 138.36 144.61 138.74 144.31 139.50 C 144.01 140.27 144.39 141.13 145.15 141.43 Z M 145.44 141.37 L 146.03 142.05 C 146.58 142.67 147.52 142.73 148.14 142.19 C 148.77 141.64 148.83 140.70 148.28 140.07 L 147.69 139.40 C 147.14 138.77 146.19 138.71 145.57 139.26 C 144.95 139.80 144.89 140.75 145.44 141.37 Z M 145.84 141.81 L 146.41 142.80 C 146.82 143.53 147.75 143.78 148.47 143.37 C 149.20 142.95 149.45 142.03 149.03 141.30 L 148.47 140.31 C 148.05 139.59 147.13 139.34 146.41 139.75 C 145.68 140.16 145.43 141.09 145.84 141.81 Z M 146.34 142.70 L 146.76 143.58 C 147.11 144.34 148.02 144.67 148.78 144.32 C 149.54 143.96 149.87 143.06 149.51 142.30 L 149.10 141.41 C 148.75 140.65 147.84 140.32 147.08 140.68 C 146.32 141.03 145.99 141.94 146.34 142.70 Z M 146.72 143.53 L 147.12 144.47 C 147.44 145.25 148.34 145.62 149.12 145.30 C 149.89 144.97 150.26 144.08 149.94 143.30 L 149.55 142.35 C 149.22 141.57 148.33 141.20 147.55 141.53 C 146.77 141.85 146.40 142.75 146.72 143.53 Z M 147.09 144.42 L 147.44 145.37 C 147.74 146.16 148.63 146.56 149.42 146.27 C 150.22 145.97 150.62 145.08 150.32 144.29 L 149.97 143.35 C 149.67 142.55 148.78 142.15 147.99 142.45 C 147.20 142.74 146.79 143.63 147.09 144.42 Z M 147.42 145.31 L 147.75 146.31 C 148.02 147.12 148.89 147.56 149.70 147.29 C 150.51 147.02 150.94 146.15 150.68 145.34 L 150.35 144.34 C 150.08 143.54 149.21 143.10 148.40 143.37 C 147.59 143.63 147.15 144.51 147.42 145.31 Z M 147.73 146.25 L 148.00 147.20 C 148.24 148.02 149.09 148.49 149.91 148.26 C 150.74 148.02 151.21 147.16 150.97 146.34 L 150.70 145.40 C 150.46 144.57 149.60 144.10 148.78 144.34 C 147.96 144.57 147.49 145.43 147.73 146.25 Z M 147.98 147.16 L 148.22 148.08 C 148.43 148.91 149.28 149.41 150.11 149.20 C 150.94 148.98 151.44 148.14 151.23 147.31 L 150.99 146.38 C 150.77 145.55 149.93 145.05 149.10 145.27 C 148.27 145.48 147.77 146.33 147.98 147.16 Z M 148.21 148.05 L 148.43 149.00 C 148.63 149.83 149.47 150.35 150.30 150.15 C 151.14 149.96 151.66 149.12 151.46 148.28 L 151.24 147.34 C 151.04 146.50 150.20 145.98 149.37 146.18 C 148.53 146.38 148.01 147.22 148.21 148.05 Z M 148.42 148.96 L 148.63 149.95 C 148.80 150.79 149.63 151.33 150.47 151.15 C 151.31 150.98 151.85 150.15 151.68 149.31 L 151.47 148.32 C 151.30 147.48 150.47 146.94 149.63 147.11 C 148.79 147.29 148.25 148.12 148.42 148.96 Z M 148.62 149.90 L 148.79 150.90 C 148.94 151.74 149.75 152.31 150.60 152.16 C 151.45 152.01 152.02 151.20 151.87 150.35 L 151.69 149.36 C 151.54 148.51 150.73 147.94 149.88 148.09 C 149.03 148.24 148.47 149.05 148.62 149.90 Z M 148.78 150.85 L 148.93 151.84 C 149.05 152.69 149.84 153.28 150.70 153.16 C 151.55 153.03 152.14 152.24 152.02 151.39 L 151.88 150.40 C 151.75 149.55 150.96 148.95 150.10 149.08 C 149.25 149.20 148.66 150.00 148.78 150.85 Z M 148.92 151.80 L 149.04 152.81 C 149.15 153.66 149.93 154.27 150.78 154.17 C 151.64 154.07 152.25 153.29 152.15 152.43 L 152.03 151.42 C 151.92 150.56 151.14 149.95 150.28 150.06 C 149.43 150.16 148.82 150.94 148.92 151.80 Z M 149.04 152.77 L 149.14 153.75 C 149.22 154.61 149.99 155.24 150.85 155.15 C 151.71 155.06 152.34 154.30 152.25 153.44 L 152.15 152.46 C 152.07 151.60 151.30 150.97 150.44 151.06 C 149.58 151.15 148.95 151.91 149.04 152.77 Z M 149.13 153.72 L 149.21 154.67 C 149.28 155.53 150.03 156.18 150.90 156.11 C 151.76 156.04 152.40 155.28 152.33 154.42 L 152.26 153.47 C 152.19 152.61 151.43 151.96 150.57 152.03 C 149.71 152.10 149.06 152.86 149.13 153.72 Z M 149.21 154.63 L 149.26 155.64 C 149.31 156.50 150.05 157.16 150.91 157.11 C 151.78 157.06 152.44 156.32 152.39 155.46 L 152.33 154.46 C 152.29 153.59 151.55 152.93 150.68 152.98 C 149.82 153.03 149.16 153.77 149.21 154.63 Z M 149.26 155.60 L 149.30 156.67 C 149.32 157.53 150.05 158.21 150.91 158.18 C 151.78 158.15 152.46 157.43 152.43 156.56 L 152.39 155.50 C 152.36 154.63 151.64 153.95 150.77 153.98 C 149.91 154.01 149.23 154.74 149.26 155.60 Z M 149.30 156.64 L 149.31 157.69 C 149.33 158.55 150.04 159.24 150.91 159.23 C 151.77 159.21 152.46 158.50 152.44 157.64 L 152.43 156.59 C 152.41 155.72 151.70 155.03 150.84 155.05 C 149.97 155.06 149.28 155.78 149.30 156.64 Z M 149.32 157.67 L 149.32 158.72 C 149.33 159.58 150.03 160.28 150.90 160.27 C 151.76 160.27 152.46 159.56 152.45 158.70 L 152.44 157.65 C 152.44 156.79 151.73 156.09 150.87 156.10 C 150.00 156.11 149.31 156.81 149.32 157.67 Z M 149.33 158.71 L 149.33 159.67 C 149.33 160.53 150.03 161.23 150.89 161.22 C 151.75 161.22 152.45 160.52 152.45 159.66 L 152.45 158.71 C 152.45 157.84 151.75 157.15 150.88 157.15 C 150.02 157.15 149.32 157.85 149.33 158.71 Z M 149.33 159.66 L 149.33 160.74 C 149.33 161.60 150.02 162.30 150.88 162.30 C 151.74 162.30 152.44 161.60 152.44 160.74 L 152.45 159.67 C 152.45 158.81 151.75 158.11 150.89 158.11 C 150.03 158.10 149.33 158.80 149.33 159.66 Z M 149.34 160.69 L 149.31 161.62 C 149.28 162.48 149.96 163.19 150.81 163.22 C 151.66 163.24 152.38 162.57 152.40 161.72 L 152.43 160.79 C 152.46 159.94 151.79 159.22 150.93 159.20 C 150.08 159.17 149.37 159.84 149.34 160.69 Z M 149.33 161.51 L 149.23 162.42 C 149.14 163.27 149.75 164.02 150.60 164.11 C 151.44 164.20 152.20 163.59 152.29 162.74 L 152.39 161.83 C 152.48 160.99 151.86 160.23 151.02 160.14 C 150.17 160.05 149.42 160.67 149.33 161.51 Z M 149.25 162.33 L 149.08 163.33 C 148.94 164.17 149.51 164.96 150.34 165.10 C 151.17 165.24 151.96 164.67 152.10 163.84 L 152.27 162.84 C 152.41 162.00 151.85 161.21 151.01 161.07 C 150.18 160.93 149.39 161.50 149.25 162.33 Z M 149.10 163.27 L 148.89 164.27 C 148.71 165.10 149.24 165.90 150.06 166.08 C 150.88 166.25 151.69 165.73 151.87 164.91 L 152.08 163.90 C 152.26 163.08 151.73 162.27 150.91 162.10 C 150.09 161.92 149.28 162.45 149.10 163.27 Z M 148.94 164.14 L 148.64 165.08 C 148.39 165.88 148.83 166.72 149.63 166.97 C 150.42 167.22 151.27 166.78 151.52 165.99 L 151.82 165.04 C 152.07 164.25 151.63 163.40 150.83 163.15 C 150.04 162.90 149.19 163.34 148.94 164.14 Z M 148.78 164.80 L 148.31 165.64 C 147.90 166.36 148.15 167.27 148.87 167.67 C 149.58 168.08 150.49 167.83 150.90 167.11 L 151.38 166.27 C 151.78 165.56 151.53 164.65 150.82 164.24 C 150.10 163.83 149.19 164.08 148.78 164.80 Z M 148.48 165.43 L 147.83 166.20 C 147.31 166.82 147.39 167.75 148.01 168.27 C 148.63 168.80 149.56 168.72 150.09 168.09 L 150.73 167.32 C 151.26 166.70 151.18 165.77 150.55 165.25 C 149.93 164.72 149.00 164.80 148.48 165.43 Z M 147.89 166.14 L 147.58 166.48 C 147.03 167.06 147.06 167.99 147.65 168.54 C 148.24 169.09 149.16 169.06 149.72 168.47 L 150.03 168.14 C 150.58 167.55 150.55 166.63 149.96 166.08 C 149.37 165.52 148.44 165.56 147.89 166.14 Z"
      fill="black"
      fill-rule="nonzero" /><path d="M 143.41 152.27 L 144.26 151.77 C 144.98 151.35 145.22 150.42 144.79 149.70 C 144.37 148.98 143.44 148.74 142.72 149.16 L 141.87 149.66 C 141.15 150.08 140.91 151.01 141.34 151.73 C 141.76 152.45 142.69 152.69 143.41 152.27 Z M 144.19 151.84 L 145.09 151.38 C 145.85 150.98 146.15 150.05 145.76 149.30 C 145.37 148.54 144.43 148.24 143.68 148.63 L 142.78 149.09 C 142.02 149.49 141.72 150.42 142.11 151.17 C 142.51 151.93 143.44 152.23 144.19 151.84 Z M 144.96 151.44 L 145.91 151.06 C 146.70 150.74 147.08 149.84 146.77 149.05 C 146.45 148.25 145.55 147.87 144.76 148.19 L 143.81 148.57 C 143.02 148.89 142.63 149.79 142.95 150.58 C 143.27 151.37 144.17 151.76 144.96 151.44 Z M 145.80 151.06 L 146.76 150.75 C 147.56 150.50 147.99 149.65 147.74 148.85 C 147.48 148.05 146.63 147.61 145.83 147.87 L 144.87 148.18 C 144.07 148.44 143.63 149.29 143.89 150.09 C 144.15 150.88 145.00 151.32 145.80 151.06 Z M 146.69 150.74 L 147.67 150.47 C 148.46 150.25 148.92 149.44 148.70 148.65 C 148.49 147.86 147.67 147.40 146.88 147.62 L 145.91 147.89 C 145.12 148.10 144.65 148.92 144.87 149.70 C 145.09 150.49 145.90 150.96 146.69 150.74 Z M 147.62 150.45 L 148.58 150.22 C 149.36 150.03 149.84 149.24 149.65 148.46 C 149.46 147.69 148.67 147.21 147.89 147.40 L 146.93 147.63 C 146.15 147.82 145.68 148.61 145.87 149.39 C 146.06 150.17 146.84 150.64 147.62 150.45 Z M 148.56 150.20 L 148.97 150.11 C 149.74 149.93 150.22 149.16 150.04 148.39 C 149.87 147.62 149.10 147.14 148.32 147.32 L 147.91 147.41 C 147.14 147.59 146.66 148.36 146.84 149.13 C 147.02 149.90 147.79 150.38 148.56 150.20 Z"
      fill="black"
      fill-rule="nonzero" /><path d="M 141.34 158.29 L 142.17 158.25 C 143.00 158.21 143.64 157.50 143.60 156.67 C 143.56 155.84 142.86 155.19 142.02 155.23 L 141.20 155.27 C 140.36 155.31 139.72 156.02 139.76 156.85 C 139.80 157.68 140.50 158.33 141.34 158.29 Z M 142.46 158.24 L 143.58 157.97 C 144.41 157.77 144.92 156.93 144.72 156.11 C 144.52 155.28 143.68 154.77 142.86 154.97 L 141.73 155.24 C 140.91 155.44 140.40 156.28 140.60 157.10 C 140.80 157.93 141.63 158.44 142.46 158.24 Z M 143.77 157.92 L 144.55 157.62 C 145.35 157.32 145.75 156.42 145.45 155.62 C 145.14 154.82 144.24 154.42 143.44 154.72 L 142.66 155.02 C 141.86 155.33 141.46 156.22 141.77 157.02 C 142.07 157.82 142.97 158.23 143.77 157.92 Z M 144.61 157.59 L 145.49 157.20 C 146.28 156.86 146.63 155.95 146.29 155.17 C 145.95 154.39 145.05 154.03 144.26 154.37 L 143.38 154.76 C 142.60 155.10 142.24 156.01 142.58 156.79 C 142.92 157.57 143.83 157.93 144.61 157.59 Z M 145.52 157.18 L 146.49 156.73 C 147.26 156.38 147.60 155.47 147.24 154.70 C 146.89 153.93 145.98 153.59 145.21 153.95 L 144.24 154.40 C 143.47 154.75 143.13 155.66 143.49 156.43 C 143.84 157.20 144.75 157.53 145.52 157.18 Z M 146.50 156.72 L 147.53 156.23 C 148.29 155.88 148.61 154.97 148.26 154.21 C 147.90 153.45 146.99 153.12 146.23 153.48 L 145.20 153.96 C 144.44 154.32 144.12 155.23 144.47 155.99 C 144.83 156.75 145.74 157.08 146.50 156.72 Z M 147.52 156.22 L 148.41 155.81 C 149.17 155.45 149.49 154.55 149.14 153.80 C 148.79 153.04 147.89 152.72 147.13 153.07 L 146.24 153.49 C 145.48 153.84 145.16 154.74 145.51 155.50 C 145.87 156.25 146.76 156.58 147.52 156.22 Z M 148.40 155.79 L 149.30 155.37 C 150.05 155.03 150.38 154.14 150.03 153.39 C 149.68 152.64 148.79 152.32 148.04 152.66 L 147.14 153.08 C 146.40 153.43 146.07 154.32 146.42 155.07 C 146.77 155.82 147.66 156.14 148.40 155.79 Z M 149.30 155.36 L 150.21 154.94 C 150.95 154.60 151.27 153.72 150.93 152.98 C 150.59 152.24 149.71 151.91 148.96 152.26 L 148.05 152.68 C 147.31 153.02 146.99 153.90 147.33 154.64 C 147.68 155.38 148.55 155.70 149.30 155.36 Z M 150.20 154.93 L 151.12 154.50 C 151.85 154.16 152.17 153.30 151.83 152.56 C 151.49 151.83 150.62 151.51 149.89 151.85 L 148.97 152.27 C 148.24 152.61 147.92 153.48 148.26 154.21 C 148.60 154.95 149.47 155.27 150.20 154.93 Z M 151.11 154.49 L 151.88 154.14 C 152.61 153.80 152.93 152.94 152.59 152.21 C 152.26 151.48 151.40 151.17 150.67 151.50 L 149.90 151.86 C 149.17 152.19 148.85 153.05 149.19 153.78 C 149.52 154.51 150.38 154.83 151.11 154.49 Z"
      fill="black"
      fill-rule="nonzero" /><path d="M 158.28 142.91 L 159.20 143.31 C 160.00 143.67 160.94 143.30 161.29 142.50 C 161.64 141.69 161.28 140.76 160.47 140.40 L 159.56 140.00 C 158.76 139.65 157.82 140.01 157.47 140.82 C 157.11 141.62 157.48 142.56 158.28 142.91 Z M 158.59 142.86 L 159.14 143.55 C 159.69 144.24 160.70 144.34 161.39 143.79 C 162.08 143.23 162.19 142.22 161.63 141.53 L 161.08 140.85 C 160.53 140.16 159.52 140.05 158.83 140.61 C 158.14 141.17 158.03 142.18 158.59 142.86 Z M 158.82 142.92 L 159.04 143.83 C 159.25 144.69 160.12 145.22 160.98 145.01 C 161.85 144.80 162.38 143.93 162.17 143.07 L 161.95 142.16 C 161.74 141.30 160.87 140.77 160.01 140.98 C 159.14 141.19 158.61 142.06 158.82 142.92 Z M 159.01 143.62 L 159.13 144.75 C 159.22 145.64 160.01 146.28 160.89 146.18 C 161.78 146.09 162.42 145.30 162.32 144.42 L 162.20 143.28 C 162.11 142.39 161.32 141.76 160.44 141.85 C 159.55 141.94 158.91 142.73 159.01 143.62 Z M 159.13 144.71 L 159.21 145.68 C 159.28 146.57 160.05 147.22 160.93 147.15 C 161.81 147.08 162.47 146.31 162.40 145.43 L 162.32 144.46 C 162.25 143.58 161.48 142.92 160.60 142.99 C 159.72 143.06 159.06 143.83 159.13 144.71 Z M 159.22 145.66 L 159.28 146.69 C 159.34 147.57 160.10 148.23 160.98 148.17 C 161.86 148.11 162.52 147.35 162.46 146.48 L 162.39 145.45 C 162.33 144.57 161.57 143.91 160.70 143.97 C 159.82 144.03 159.16 144.79 159.22 145.66 Z M 159.29 146.67 L 159.35 147.68 C 159.39 148.55 160.13 149.22 161.01 149.18 C 161.88 149.13 162.55 148.39 162.51 147.52 L 162.45 146.50 C 162.41 145.63 161.66 144.96 160.79 145.00 C 159.92 145.05 159.25 145.79 159.29 146.67 Z M 159.36 147.65 L 159.40 148.73 C 159.43 149.59 160.15 150.27 161.01 150.24 C 161.87 150.21 162.55 149.49 162.52 148.63 L 162.49 147.55 C 162.46 146.69 161.74 146.01 160.88 146.04 C 160.01 146.06 159.34 146.78 159.36 147.65 Z M 159.43 148.70 L 159.44 149.69 C 159.45 150.53 160.15 151.21 160.99 151.20 C 161.84 151.19 162.51 150.50 162.50 149.65 L 162.49 148.66 C 162.48 147.81 161.79 147.14 160.94 147.15 C 160.10 147.16 159.42 147.85 159.43 148.70 Z M 159.47 149.67 L 159.48 150.60 C 159.48 151.43 160.15 152.10 160.98 152.10 C 161.80 152.10 162.47 151.43 162.47 150.60 L 162.47 149.67 C 162.47 148.84 161.80 148.17 160.97 148.17 C 160.14 148.18 159.47 148.85 159.47 149.67 Z M 159.50 150.60 L 159.50 151.62 C 159.50 152.44 160.16 153.09 160.97 153.09 C 161.79 153.09 162.44 152.44 162.44 151.62 L 162.44 150.60 C 162.44 149.79 161.79 149.13 160.97 149.13 C 160.16 149.13 159.50 149.79 159.50 150.60 Z M 159.52 151.62 L 159.52 152.60 C 159.52 153.40 160.17 154.05 160.97 154.05 C 161.77 154.05 162.42 153.40 162.42 152.60 L 162.42 151.62 C 162.42 150.82 161.77 150.17 160.97 150.17 C 160.17 150.17 159.52 150.82 159.52 151.62 Z M 159.54 152.60 L 159.54 152.82 C 159.54 153.61 160.18 154.25 160.97 154.25 C 161.77 154.25 162.41 153.61 162.41 152.82 L 162.41 152.60 C 162.41 151.81 161.77 151.17 160.97 151.17 C 160.18 151.17 159.54 151.81 159.54 152.60 Z"
      fill="black"
      fill-rule="nonzero" /><path d="M 165.24 141.09 L 165.63 141.98 C 165.97 142.76 166.88 143.11 167.66 142.77 C 168.43 142.43 168.79 141.52 168.44 140.74 L 168.05 139.85 C 167.70 139.07 166.80 138.72 166.02 139.06 C 165.24 139.40 164.89 140.31 165.24 141.09 Z M 165.55 141.88 L 165.88 142.84 C 166.16 143.66 167.06 144.10 167.88 143.81 C 168.71 143.53 169.14 142.63 168.86 141.81 L 168.53 140.85 C 168.24 140.02 167.34 139.59 166.52 139.87 C 165.70 140.16 165.26 141.06 165.55 141.88 Z M 165.81 142.65 L 166.01 143.62 C 166.19 144.48 167.04 145.03 167.90 144.85 C 168.76 144.67 169.31 143.82 169.13 142.96 L 168.93 141.99 C 168.75 141.13 167.90 140.58 167.04 140.76 C 166.18 140.94 165.63 141.79 165.81 142.65 Z M 165.99 143.48 L 166.12 144.49 C 166.23 145.36 167.02 145.98 167.89 145.87 C 168.76 145.76 169.38 144.97 169.27 144.10 L 169.15 143.09 C 169.04 142.22 168.25 141.60 167.38 141.71 C 166.50 141.82 165.89 142.61 165.99 143.48 Z M 166.12 144.43 L 166.20 145.38 C 166.28 146.25 167.04 146.89 167.91 146.82 C 168.78 146.74 169.42 145.98 169.35 145.11 L 169.27 144.16 C 169.19 143.29 168.43 142.65 167.56 142.72 C 166.69 142.80 166.05 143.56 166.12 144.43 Z M 166.22 145.34 L 166.28 146.29 C 166.33 147.15 167.07 147.80 167.93 147.75 C 168.79 147.70 169.44 146.96 169.39 146.10 L 169.33 145.15 C 169.28 144.29 168.54 143.63 167.68 143.69 C 166.82 143.74 166.17 144.48 166.22 145.34 Z M 166.30 146.25 L 166.33 147.33 C 166.36 148.18 167.07 148.85 167.92 148.82 C 168.77 148.79 169.44 148.08 169.41 147.23 L 169.37 146.14 C 169.34 145.30 168.63 144.63 167.78 144.66 C 166.94 144.69 166.27 145.40 166.30 146.25 Z M 166.35 147.31 L 166.37 148.27 C 166.38 149.11 167.07 149.78 167.91 149.77 C 168.75 149.75 169.42 149.06 169.40 148.23 L 169.39 147.26 C 169.38 146.42 168.69 145.75 167.85 145.77 C 167.01 145.78 166.34 146.47 166.35 147.31 Z M 166.38 148.26 L 166.39 149.29 C 166.40 150.12 167.07 150.79 167.90 150.78 C 168.73 150.78 169.40 150.10 169.39 149.27 L 169.39 148.24 C 169.38 147.41 168.71 146.74 167.88 146.75 C 167.05 146.75 166.38 147.43 166.38 148.26 Z M 166.41 149.28 L 166.41 150.30 C 166.41 151.12 167.08 151.78 167.89 151.78 C 168.71 151.78 169.38 151.12 169.38 150.30 L 169.37 149.28 C 169.37 148.46 168.71 147.80 167.89 147.80 C 167.07 147.80 166.41 148.46 166.41 149.28 Z M 166.43 150.30 L 166.43 151.36 C 166.43 152.17 167.08 152.83 167.89 152.83 C 168.70 152.83 169.36 152.17 169.36 151.36 L 169.36 150.30 C 169.36 149.49 168.70 148.83 167.89 148.83 C 167.08 148.83 166.43 149.49 166.43 150.30 Z M 166.44 151.36 L 166.44 152.37 C 166.44 153.17 167.09 153.82 167.89 153.82 C 168.69 153.82 169.34 153.17 169.34 152.37 L 169.34 151.36 C 169.34 150.56 168.69 149.91 167.89 149.91 C 167.09 149.91 166.44 150.56 166.44 151.36 Z M 166.46 152.37 L 166.46 153.30 C 166.46 154.09 167.10 154.73 167.89 154.73 C 168.68 154.73 169.33 154.09 169.33 153.30 L 169.33 152.37 C 169.33 151.57 168.68 150.93 167.89 150.93 C 167.10 150.93 166.46 151.57 166.46 152.37 Z M 166.47 153.30 L 166.47 153.41 C 166.47 154.20 167.10 154.84 167.89 154.84 C 168.68 154.84 169.32 154.20 169.32 153.41 L 169.32 153.30 C 169.32 152.51 168.68 151.87 167.89 151.87 C 167.10 151.87 166.47 152.51 166.47 153.30 Z"
      fill="black"
      fill-rule="nonzero" /><path d="M 139.74 169.99 L 140.75 170.00 C 141.59 170.00 142.28 169.32 142.28 168.48 C 142.29 167.64 141.61 166.95 140.77 166.95 L 139.76 166.94 C 138.92 166.93 138.23 167.61 138.23 168.45 C 138.22 169.30 138.90 169.98 139.74 169.99 Z M 140.68 170.01 L 141.68 170.06 C 142.53 170.10 143.25 169.45 143.30 168.60 C 143.34 167.75 142.69 167.03 141.84 166.99 L 140.84 166.94 C 139.99 166.89 139.27 167.55 139.22 168.40 C 139.18 169.24 139.83 169.97 140.68 170.01 Z M 141.50 170.05 L 142.50 170.22 C 143.35 170.36 144.14 169.79 144.29 168.95 C 144.43 168.10 143.86 167.30 143.02 167.16 L 142.02 167.00 C 141.17 166.85 140.38 167.42 140.23 168.27 C 140.09 169.11 140.66 169.91 141.50 170.05 Z M 142.10 170.10 L 142.96 170.50 C 143.74 170.86 144.66 170.53 145.03 169.75 C 145.39 168.98 145.06 168.05 144.28 167.69 L 143.42 167.28 C 142.64 166.92 141.72 167.25 141.35 168.03 C 140.99 168.81 141.32 169.73 142.10 170.10 Z M 142.54 170.21 L 143.26 170.91 C 143.88 171.51 144.86 171.50 145.46 170.88 C 146.06 170.26 146.05 169.27 145.43 168.67 L 144.71 167.97 C 144.09 167.37 143.10 167.39 142.50 168.01 C 141.90 168.63 141.92 169.61 142.54 170.21 Z M 143.07 170.70 L 143.61 171.46 C 144.11 172.17 145.09 172.33 145.79 171.83 C 146.50 171.33 146.66 170.35 146.16 169.65 L 145.62 168.88 C 145.12 168.18 144.14 168.02 143.44 168.52 C 142.73 169.02 142.57 170.00 143.07 170.70 Z M 143.51 171.32 L 144.02 172.23 C 144.44 172.99 145.40 173.27 146.16 172.85 C 146.91 172.43 147.19 171.47 146.77 170.71 L 146.26 169.79 C 145.84 169.03 144.88 168.76 144.12 169.18 C 143.37 169.60 143.09 170.56 143.51 171.32 Z M 143.96 172.12 L 144.36 173.00 C 144.71 173.80 145.65 174.15 146.44 173.80 C 147.23 173.44 147.59 172.51 147.23 171.71 L 146.83 170.83 C 146.47 170.03 145.54 169.68 144.75 170.04 C 143.96 170.39 143.60 171.33 143.96 172.12 Z M 144.31 172.91 L 144.67 173.86 C 144.97 174.67 145.88 175.09 146.70 174.78 C 147.51 174.48 147.93 173.57 147.62 172.75 L 147.27 171.81 C 146.97 170.99 146.06 170.58 145.24 170.88 C 144.42 171.19 144.01 172.09 144.31 172.91 Z M 144.63 173.76 L 144.94 174.77 C 145.19 175.61 146.07 176.08 146.91 175.83 C 147.74 175.58 148.22 174.70 147.96 173.86 L 147.66 172.85 C 147.41 172.01 146.53 171.54 145.69 171.79 C 144.85 172.04 144.38 172.92 144.63 173.76 Z M 144.91 174.68 L 145.15 175.71 C 145.35 176.56 146.20 177.09 147.05 176.89 C 147.90 176.69 148.43 175.84 148.23 174.98 L 147.99 173.95 C 147.79 173.10 146.94 172.57 146.09 172.77 C 145.24 172.97 144.71 173.83 144.91 174.68 Z M 145.13 175.64 L 145.31 176.60 C 145.47 177.46 146.30 178.03 147.16 177.87 C 148.02 177.71 148.59 176.88 148.43 176.02 L 148.25 175.06 C 148.09 174.20 147.26 173.63 146.40 173.79 C 145.54 173.95 144.97 174.78 145.13 175.64 Z M 145.30 176.54 L 145.45 177.55 C 145.57 178.42 146.37 179.02 147.24 178.90 C 148.11 178.77 148.71 177.97 148.59 177.10 L 148.44 176.09 C 148.32 175.22 147.51 174.62 146.65 174.74 C 145.78 174.87 145.18 175.67 145.30 176.54 Z M 145.44 177.49 L 145.54 178.42 C 145.62 179.29 146.40 179.93 147.27 179.84 C 148.14 179.75 148.77 178.98 148.68 178.11 L 148.59 177.17 C 148.50 176.30 147.73 175.67 146.86 175.76 C 145.99 175.84 145.36 176.62 145.44 177.49 Z M 145.54 178.40 L 145.62 179.37 C 145.70 180.24 146.46 180.88 147.33 180.81 C 148.20 180.73 148.84 179.97 148.77 179.10 L 148.68 178.13 C 148.61 177.26 147.84 176.62 146.98 176.69 C 146.11 176.77 145.46 177.53 145.54 178.40 Z M 145.62 179.34 L 145.69 180.31 C 145.75 181.18 146.51 181.83 147.37 181.77 C 148.24 181.71 148.89 180.96 148.83 180.09 L 148.76 179.12 C 148.70 178.26 147.95 177.60 147.08 177.66 C 146.22 177.73 145.56 178.48 145.62 179.34 Z M 145.69 180.26 L 145.73 181.22 C 145.77 182.09 146.50 182.76 147.36 182.73 C 148.23 182.69 148.90 181.96 148.87 181.09 L 148.83 180.14 C 148.80 179.27 148.07 178.60 147.20 178.63 C 146.33 178.67 145.66 179.40 145.69 180.26 Z M 145.73 181.18 L 145.75 182.22 C 145.76 183.09 146.48 183.78 147.34 183.77 C 148.21 183.75 148.90 183.04 148.88 182.17 L 148.87 181.13 C 148.85 180.27 148.14 179.57 147.28 179.59 C 146.41 179.60 145.72 180.32 145.73 181.18 Z M 145.75 182.21 L 145.76 183.22 C 145.76 184.08 146.47 184.78 147.33 184.77 C 148.19 184.77 148.89 184.07 148.89 183.20 L 148.88 182.19 C 148.88 181.33 148.17 180.63 147.31 180.63 C 146.45 180.64 145.75 181.34 145.75 182.21 Z M 145.76 183.21 L 145.76 184.24 C 145.76 185.10 146.46 185.80 147.32 185.80 C 148.19 185.80 148.88 185.10 148.88 184.23 L 148.88 183.21 C 148.88 182.35 148.18 181.65 147.32 181.65 C 146.46 181.65 145.76 182.35 145.76 183.21 Z M 145.77 184.23 L 145.76 185.28 C 145.76 186.14 146.45 186.84 147.31 186.84 C 148.17 186.85 148.87 186.15 148.87 185.30 L 148.88 184.24 C 148.88 183.39 148.19 182.69 147.33 182.68 C 146.47 182.68 145.77 183.37 145.77 184.23 Z M 145.77 185.22 L 145.73 186.18 C 145.69 187.03 146.35 187.76 147.20 187.79 C 148.05 187.83 148.78 187.18 148.82 186.32 L 148.86 185.36 C 148.90 184.51 148.24 183.78 147.39 183.74 C 146.54 183.71 145.81 184.36 145.77 185.22 Z M 145.76 186.01 L 145.57 187.18 C 145.44 188.02 146.01 188.80 146.85 188.94 C 147.68 189.07 148.47 188.50 148.60 187.66 L 148.79 186.49 C 148.92 185.65 148.35 184.87 147.51 184.74 C 146.68 184.61 145.89 185.18 145.76 186.01 Z M 146.08 186.29 L 145.73 186.60 C 145.11 187.16 145.05 188.12 145.61 188.74 C 146.17 189.36 147.13 189.42 147.75 188.86 L 148.10 188.55 C 148.72 188.00 148.78 187.04 148.22 186.41 C 147.66 185.79 146.70 185.74 146.08 186.29 Z M 148.11 187.14 L 147.78 186.36 C 147.45 185.61 146.57 185.26 145.82 185.58 C 145.06 185.91 144.71 186.79 145.04 187.54 L 145.37 188.32 C 145.70 189.08 146.57 189.42 147.33 189.10 C 148.09 188.78 148.43 187.90 148.11 187.14 Z M 147.81 186.54 L 147.47 185.41 C 147.24 184.63 146.43 184.19 145.66 184.42 C 144.88 184.65 144.44 185.46 144.67 186.24 L 145.01 187.37 C 145.24 188.14 146.05 188.58 146.82 188.35 C 147.59 188.12 148.04 187.31 147.81 186.54 Z"
      fill="black"
      fill-rule="nonzero" /><path d="M 140.33 178.46 L 141.13 177.90 C 141.81 177.43 141.98 176.50 141.51 175.82 C 141.03 175.14 140.10 174.97 139.42 175.45 L 138.62 176.01 C 137.94 176.48 137.78 177.41 138.25 178.09 C 138.72 178.77 139.66 178.93 140.33 178.46 Z M 141.05 178.00 L 141.93 177.50 C 142.66 177.07 142.91 176.13 142.49 175.40 C 142.06 174.67 141.13 174.41 140.39 174.84 L 139.51 175.35 C 138.78 175.77 138.53 176.71 138.95 177.44 C 139.37 178.18 140.31 178.43 141.05 178.00 Z M 141.75 177.60 L 142.64 177.23 C 143.43 176.90 143.80 175.99 143.48 175.21 C 143.15 174.42 142.25 174.04 141.46 174.37 L 140.57 174.74 C 139.78 175.07 139.40 175.97 139.73 176.76 C 140.06 177.55 140.96 177.92 141.75 177.60 Z M 142.49 177.26 L 143.46 176.97 C 144.27 176.72 144.72 175.87 144.48 175.07 C 144.24 174.26 143.39 173.80 142.58 174.05 L 141.61 174.34 C 140.80 174.58 140.35 175.43 140.59 176.24 C 140.83 177.04 141.68 177.50 142.49 177.26 Z M 143.35 176.97 L 144.34 176.75 C 145.15 176.56 145.66 175.76 145.48 174.95 C 145.29 174.14 144.49 173.63 143.68 173.82 L 142.69 174.04 C 141.88 174.22 141.37 175.03 141.56 175.84 C 141.74 176.65 142.54 177.15 143.35 176.97 Z M 144.27 176.73 L 145.25 176.56 C 146.06 176.42 146.59 175.65 146.45 174.85 C 146.30 174.04 145.54 173.51 144.73 173.65 L 143.75 173.83 C 142.95 173.97 142.42 174.74 142.56 175.54 C 142.70 176.34 143.47 176.88 144.27 176.73 Z M 145.22 176.54 L 146.22 176.38 C 147.01 176.26 147.55 175.52 147.43 174.73 C 147.30 173.93 146.56 173.39 145.77 173.52 L 144.77 173.67 C 143.98 173.79 143.44 174.54 143.56 175.33 C 143.68 176.12 144.43 176.66 145.22 176.54 Z M 146.21 176.37 L 146.35 176.35 C 147.13 176.23 147.67 175.50 147.56 174.71 C 147.44 173.93 146.70 173.39 145.92 173.51 L 145.78 173.53 C 144.99 173.65 144.45 174.38 144.57 175.16 C 144.69 175.95 145.42 176.49 146.21 176.37 Z"
      fill="black"
      fill-rule="nonzero" /><path d="M 138.83 184.93 L 139.73 184.60 C 140.52 184.31 140.92 183.44 140.63 182.66 C 140.34 181.87 139.47 181.47 138.68 181.76 L 137.78 182.10 C 136.99 182.39 136.59 183.26 136.88 184.04 C 137.17 184.83 138.04 185.22 138.83 184.93 Z M 139.80 184.60 L 140.75 184.20 C 141.53 183.87 141.90 182.97 141.57 182.19 C 141.24 181.40 140.34 181.04 139.56 181.37 L 138.61 181.76 C 137.83 182.09 137.46 182.99 137.79 183.78 C 138.12 184.56 139.02 184.93 139.80 184.60 Z M 140.84 184.17 L 141.69 183.75 C 142.45 183.37 142.77 182.45 142.39 181.69 C 142.02 180.92 141.09 180.61 140.33 180.98 L 139.48 181.40 C 138.71 181.77 138.40 182.70 138.77 183.46 C 139.15 184.23 140.07 184.54 140.84 184.17 Z M 141.73 183.71 L 142.63 183.23 C 143.37 182.83 143.65 181.91 143.25 181.17 C 142.86 180.42 141.93 180.14 141.19 180.54 L 140.29 181.02 C 139.55 181.42 139.26 182.34 139.66 183.08 C 140.06 183.83 140.98 184.11 141.73 183.71 Z M 142.63 183.21 L 143.56 182.70 C 144.29 182.30 144.56 181.38 144.15 180.65 C 143.75 179.92 142.84 179.65 142.10 180.05 L 141.18 180.56 C 140.45 180.96 140.18 181.88 140.58 182.61 C 140.99 183.34 141.90 183.61 142.63 183.21 Z M 143.55 182.68 L 144.46 182.18 C 145.18 181.78 145.45 180.88 145.05 180.15 C 144.65 179.43 143.74 179.17 143.02 179.57 L 142.11 180.07 C 141.39 180.47 141.13 181.38 141.52 182.10 C 141.92 182.82 142.83 183.08 143.55 182.68 Z M 144.45 182.17 L 145.29 181.71 C 146.01 181.31 146.27 180.41 145.87 179.70 C 145.48 178.98 144.58 178.72 143.86 179.12 L 143.02 179.58 C 142.31 179.98 142.05 180.88 142.44 181.59 C 142.84 182.31 143.74 182.57 144.45 182.17 Z M 145.28 181.70 L 146.21 181.18 C 146.92 180.79 147.18 179.90 146.79 179.20 C 146.40 178.49 145.51 178.23 144.80 178.62 L 143.87 179.13 C 143.16 179.52 142.90 180.41 143.29 181.12 C 143.68 181.83 144.57 182.09 145.28 181.70 Z M 146.20 181.17 L 147.01 180.73 C 147.71 180.34 147.97 179.47 147.59 178.77 C 147.20 178.06 146.33 177.81 145.63 178.19 L 144.82 178.63 C 144.11 179.02 143.86 179.89 144.24 180.59 C 144.62 181.29 145.50 181.55 146.20 181.17 Z M 147.01 180.72 L 147.88 180.24 C 148.58 179.86 148.83 178.99 148.45 178.29 C 148.07 177.60 147.20 177.34 146.50 177.72 L 145.63 178.20 C 144.94 178.58 144.68 179.45 145.06 180.15 C 145.44 180.84 146.31 181.10 147.01 180.72 Z M 147.89 180.23 L 148.76 179.74 C 149.45 179.36 149.70 178.49 149.31 177.80 C 148.93 177.11 148.06 176.86 147.37 177.25 L 146.50 177.73 C 145.81 178.12 145.56 178.99 145.94 179.68 C 146.33 180.37 147.20 180.61 147.89 180.23 Z M 148.77 179.74 L 149.64 179.24 C 150.32 178.85 150.56 177.98 150.17 177.29 C 149.78 176.61 148.91 176.37 148.23 176.76 L 147.36 177.25 C 146.67 177.64 146.43 178.52 146.82 179.20 C 147.21 179.89 148.08 180.13 148.77 179.74 Z M 149.65 179.23 L 150.51 178.73 C 151.20 178.34 151.43 177.47 151.04 176.79 C 150.64 176.10 149.77 175.87 149.09 176.26 L 148.22 176.76 C 147.54 177.16 147.30 178.03 147.70 178.71 C 148.09 179.39 148.96 179.63 149.65 179.23 Z M 150.52 178.73 L 151.38 178.23 C 152.07 177.83 152.30 176.96 151.90 176.28 C 151.50 175.60 150.63 175.37 149.95 175.76 L 149.08 176.27 C 148.40 176.66 148.17 177.53 148.57 178.22 C 148.96 178.90 149.84 179.13 150.52 178.73 Z M 151.39 178.23 L 151.53 178.14 C 152.21 177.74 152.44 176.87 152.04 176.19 C 151.65 175.51 150.78 175.28 150.10 175.68 L 149.95 175.76 C 149.27 176.16 149.04 177.03 149.44 177.71 C 149.83 178.39 150.71 178.62 151.39 178.23 Z"
      fill="black"
      fill-rule="nonzero" /><path d="M 162.46 165.49 L 162.72 164.49 C 162.94 163.67 162.44 162.83 161.62 162.61 C 160.80 162.40 159.96 162.89 159.74 163.71 L 159.48 164.71 C 159.27 165.53 159.76 166.37 160.59 166.59 C 161.41 166.80 162.25 166.31 162.46 165.49 Z M 162.59 164.83 L 163.05 163.98 C 163.45 163.23 163.17 162.30 162.42 161.89 C 161.66 161.49 160.73 161.77 160.33 162.52 L 159.87 163.37 C 159.47 164.13 159.75 165.06 160.50 165.46 C 161.26 165.87 162.19 165.58 162.59 164.83 Z M 162.60 164.51 L 163.40 163.93 C 164.09 163.43 164.25 162.45 163.74 161.76 C 163.24 161.06 162.26 160.91 161.57 161.42 L 160.77 162.00 C 160.08 162.50 159.92 163.48 160.43 164.17 C 160.93 164.87 161.91 165.02 162.60 164.51 Z M 162.82 164.21 L 163.78 164.00 C 164.63 163.81 165.16 162.98 164.98 162.13 C 164.79 161.28 163.96 160.74 163.11 160.93 L 162.15 161.14 C 161.30 161.33 160.76 162.16 160.95 163.01 C 161.14 163.86 161.97 164.39 162.82 164.21 Z M 163.14 164.02 L 164.12 164.20 C 164.97 164.37 165.80 163.81 165.97 162.96 C 166.14 162.10 165.58 161.27 164.72 161.10 L 163.75 160.91 C 162.89 160.75 162.06 161.31 161.89 162.16 C 161.73 163.02 162.29 163.85 163.14 164.02 Z M 163.52 163.96 L 164.26 164.47 C 164.98 164.97 165.97 164.79 166.47 164.06 C 166.97 163.34 166.78 162.35 166.06 161.85 L 165.32 161.34 C 164.59 160.85 163.60 161.03 163.11 161.75 C 162.61 162.48 162.79 163.47 163.52 163.96 Z M 163.96 164.22 L 164.70 165.05 C 165.28 165.72 166.29 165.78 166.95 165.19 C 167.62 164.61 167.68 163.60 167.09 162.93 L 166.36 162.10 C 165.77 161.44 164.76 161.38 164.10 161.96 C 163.44 162.55 163.37 163.56 163.96 164.22 Z M 164.58 164.92 L 165.13 165.70 C 165.64 166.43 166.64 166.60 167.37 166.09 C 168.09 165.58 168.27 164.58 167.76 163.85 L 167.21 163.07 C 166.70 162.34 165.70 162.17 164.97 162.68 C 164.24 163.19 164.07 164.19 164.58 164.92 Z M 165.07 165.61 L 165.61 166.49 C 166.07 167.25 167.06 167.48 167.82 167.02 C 168.58 166.56 168.81 165.57 168.35 164.81 L 167.82 163.94 C 167.35 163.18 166.36 162.94 165.61 163.40 C 164.85 163.87 164.61 164.86 165.07 165.61 Z M 165.56 166.40 L 166.03 167.31 C 166.45 168.09 167.42 168.39 168.21 167.98 C 168.99 167.56 169.29 166.59 168.88 165.80 L 168.40 164.90 C 167.99 164.11 167.01 163.81 166.23 164.23 C 165.44 164.64 165.14 165.62 165.56 166.40 Z M 165.98 167.20 L 166.39 168.13 C 166.75 168.94 167.69 169.32 168.51 168.96 C 169.32 168.60 169.70 167.65 169.34 166.84 L 168.93 165.91 C 168.58 165.10 167.63 164.72 166.81 165.08 C 166.00 165.44 165.63 166.38 165.98 167.20 Z M 166.35 168.02 L 166.67 168.95 C 166.97 169.79 167.89 170.23 168.73 169.93 C 169.57 169.63 170.01 168.71 169.71 167.88 L 169.38 166.95 C 169.09 166.11 168.17 165.67 167.33 165.97 C 166.49 166.26 166.05 167.18 166.35 168.02 Z M 166.65 168.86 L 166.93 169.83 C 167.18 170.69 168.07 171.18 168.93 170.93 C 169.78 170.68 170.27 169.78 170.02 168.93 L 169.74 167.96 C 169.49 167.11 168.59 166.62 167.74 166.87 C 166.89 167.12 166.40 168.01 166.65 168.86 Z M 166.91 169.77 L 167.17 170.79 C 167.38 171.65 168.26 172.17 169.12 171.96 C 169.99 171.74 170.51 170.86 170.29 170.00 L 170.04 168.99 C 169.82 168.13 168.94 167.60 168.08 167.82 C 167.22 168.04 166.70 168.91 166.91 169.77 Z M 167.16 170.74 L 167.36 171.70 C 167.55 172.57 168.41 173.12 169.28 172.93 C 170.15 172.74 170.70 171.88 170.51 171.01 L 170.30 170.05 C 170.11 169.18 169.26 168.63 168.39 168.82 C 167.52 169.01 166.97 169.87 167.16 170.74 Z M 167.35 171.64 L 167.53 172.64 C 167.69 173.52 168.52 174.10 169.40 173.95 C 170.28 173.79 170.86 172.96 170.70 172.08 L 170.52 171.07 C 170.37 170.20 169.53 169.61 168.66 169.77 C 167.78 169.92 167.20 170.76 167.35 171.64 Z M 167.52 172.57 L 167.64 173.52 C 167.76 174.40 168.56 175.02 169.45 174.91 C 170.33 174.79 170.95 173.99 170.84 173.10 L 170.71 172.16 C 170.60 171.27 169.79 170.65 168.91 170.76 C 168.03 170.88 167.41 171.69 167.52 172.57 Z M 167.64 173.48 L 167.74 174.44 C 167.83 175.32 168.62 175.96 169.51 175.87 C 170.39 175.78 171.03 174.99 170.94 174.10 L 170.84 173.14 C 170.75 172.26 169.96 171.62 169.07 171.71 C 168.19 171.80 167.55 172.59 167.64 173.48 Z M 167.74 174.41 L 167.83 175.42 C 167.91 176.31 168.69 176.96 169.57 176.88 C 170.46 176.80 171.11 176.02 171.03 175.13 L 170.94 174.13 C 170.86 173.24 170.08 172.59 169.20 172.67 C 168.31 172.75 167.66 173.53 167.74 174.41 Z M 167.83 175.38 L 167.89 176.38 C 167.95 177.27 168.71 177.94 169.59 177.88 C 170.48 177.83 171.15 177.06 171.10 176.18 L 171.03 175.18 C 170.98 174.29 170.22 173.62 169.33 173.67 C 168.45 173.73 167.77 174.49 167.83 175.38 Z M 167.89 176.34 L 167.93 177.33 C 167.96 178.22 168.70 178.91 169.58 178.88 C 170.47 178.85 171.16 178.11 171.13 177.22 L 171.10 176.22 C 171.07 175.34 170.32 174.65 169.44 174.68 C 168.55 174.71 167.86 175.45 167.89 176.34 Z M 167.93 177.30 L 167.94 178.29 C 167.95 179.17 168.68 179.88 169.56 179.87 C 170.45 179.85 171.16 179.13 171.14 178.24 L 171.13 177.26 C 171.12 176.37 170.39 175.66 169.51 175.68 C 168.62 175.69 167.91 176.42 167.93 177.30 Z M 167.94 178.27 L 167.94 179.28 C 167.95 180.16 168.66 180.88 169.55 180.87 C 170.43 180.87 171.15 180.15 171.14 179.27 L 171.14 178.26 C 171.14 177.38 170.42 176.66 169.54 176.67 C 168.65 176.67 167.94 177.39 167.94 178.27 Z M 167.95 179.27 L 167.95 180.27 C 167.95 181.15 168.66 181.87 169.54 181.87 C 170.43 181.87 171.14 181.15 171.14 180.27 L 171.14 179.27 C 171.14 178.39 170.43 177.68 169.54 177.68 C 168.66 177.68 167.95 178.39 167.95 179.27 Z M 167.95 180.27 L 167.95 181.28 C 167.95 182.16 168.66 182.87 169.54 182.87 C 170.42 182.87 171.14 182.16 171.14 181.28 L 171.14 180.27 C 171.14 179.39 170.42 178.68 169.54 178.68 C 168.66 178.68 167.95 179.39 167.95 180.27 Z M 167.95 181.28 L 167.95 182.28 C 167.95 183.16 168.67 183.87 169.54 183.87 C 170.42 183.87 171.14 183.16 171.14 182.28 L 171.14 181.28 C 171.14 180.40 170.42 179.68 169.54 179.68 C 168.67 179.68 167.95 180.40 167.95 181.28 Z M 167.96 182.28 L 167.96 183.28 C 167.96 184.16 168.67 184.87 169.54 184.87 C 170.42 184.87 171.13 184.16 171.13 183.28 L 171.13 182.28 C 171.13 181.41 170.42 180.70 169.54 180.70 C 168.67 180.70 167.96 181.41 167.96 182.28 Z M 167.96 183.28 L 167.96 184.28 C 167.96 185.15 168.67 185.86 169.54 185.86 C 170.42 185.86 171.12 185.15 171.13 184.28 L 171.13 183.28 C 171.13 182.41 170.42 181.70 169.55 181.70 C 168.67 181.70 167.96 182.41 167.96 183.28 Z M 167.97 184.25 L 167.95 185.25 C 167.94 186.12 168.63 186.84 169.50 186.85 C 170.37 186.87 171.09 186.17 171.10 185.30 L 171.12 184.30 C 171.13 183.43 170.44 182.72 169.57 182.70 C 168.70 182.69 167.98 183.38 167.97 184.25 Z M 167.96 185.20 L 167.91 186.12 C 167.87 186.99 168.54 187.73 169.40 187.77 C 170.27 187.81 171.01 187.15 171.05 186.28 L 171.10 185.36 C 171.14 184.49 170.47 183.75 169.61 183.71 C 168.74 183.66 168.00 184.33 167.96 185.20 Z M 167.92 186.05 L 167.83 187.00 C 167.75 187.86 168.38 188.62 169.25 188.70 C 170.11 188.79 170.87 188.15 170.95 187.29 L 171.04 186.35 C 171.12 185.49 170.49 184.72 169.63 184.64 C 168.77 184.56 168.00 185.19 167.92 186.05 Z M 167.85 186.94 L 167.70 188.05 C 167.59 188.91 168.19 189.69 169.05 189.80 C 169.90 189.91 170.68 189.31 170.80 188.45 L 170.94 187.35 C 171.05 186.49 170.45 185.71 169.59 185.60 C 168.74 185.49 167.96 186.09 167.85 186.94 Z M 167.71 188.02 L 167.56 189.00 C 167.43 189.85 168.01 190.64 168.86 190.77 C 169.71 190.90 170.51 190.32 170.64 189.47 L 170.79 188.49 C 170.92 187.64 170.33 186.84 169.48 186.71 C 168.64 186.58 167.84 187.17 167.71 188.02 Z M 167.57 188.96 L 167.39 189.99 C 167.24 190.84 167.80 191.64 168.64 191.79 C 169.49 191.94 170.29 191.38 170.44 190.54 L 170.63 189.51 C 170.78 188.66 170.21 187.86 169.37 187.71 C 168.52 187.56 167.72 188.12 167.57 188.96 Z M 167.40 189.94 L 167.19 190.91 C 167.01 191.75 167.55 192.57 168.38 192.75 C 169.22 192.93 170.04 192.40 170.22 191.56 L 170.43 190.59 C 170.61 189.75 170.08 188.93 169.24 188.75 C 168.40 188.57 167.58 189.10 167.40 189.94 Z M 167.24 190.78 L 166.86 192.00 C 166.61 192.81 167.06 193.67 167.87 193.92 C 168.69 194.17 169.55 193.72 169.80 192.91 L 170.18 191.69 C 170.43 190.88 169.98 190.02 169.16 189.77 C 168.35 189.51 167.49 189.97 167.24 190.78 Z M 167.24 191.39 L 166.79 191.85 C 166.21 192.46 166.22 193.42 166.83 194.01 C 167.43 194.59 168.39 194.58 168.98 193.97 L 169.42 193.51 C 170.01 192.91 169.99 191.94 169.39 191.36 C 168.79 190.77 167.82 190.79 167.24 191.39 Z M 169.16 192.13 L 168.80 191.56 C 168.37 190.85 167.45 190.64 166.75 191.07 C 166.04 191.51 165.83 192.43 166.26 193.13 L 166.61 193.70 C 167.05 194.40 167.97 194.62 168.67 194.18 C 169.37 193.75 169.59 192.83 169.16 192.13 Z M 168.94 191.93 L 168.60 190.81 C 168.37 190.03 167.56 189.59 166.79 189.82 C 166.01 190.05 165.57 190.86 165.80 191.64 L 166.13 192.76 C 166.36 193.53 167.17 193.97 167.95 193.75 C 168.72 193.52 169.16 192.70 168.94 191.93 Z M 168.60 190.86 L 168.50 190.49 C 168.30 189.72 167.51 189.25 166.74 189.45 C 165.97 189.65 165.51 190.44 165.71 191.21 L 165.81 191.58 C 166.01 192.35 166.79 192.82 167.56 192.62 C 168.33 192.42 168.79 191.63 168.60 190.86 Z"
      fill="black"
      fill-rule="nonzero" /><path d="M 158.57 172.81 L 157.56 172.55 C 156.76 172.35 155.95 172.83 155.74 173.63 C 155.53 174.44 156.02 175.25 156.82 175.46 L 157.82 175.71 C 158.63 175.92 159.44 175.44 159.65 174.63 C 159.85 173.83 159.37 173.02 158.57 172.81 Z M 158.45 174.89 L 158.87 174.29 C 159.36 173.59 159.19 172.63 158.49 172.15 C 157.79 171.66 156.84 171.83 156.35 172.53 L 155.93 173.13 C 155.45 173.82 155.62 174.78 156.31 175.27 C 157.01 175.75 157.97 175.58 158.45 174.89 Z M 158.35 174.75 L 159.32 174.22 C 160.06 173.81 160.33 172.87 159.92 172.13 C 159.51 171.39 158.57 171.12 157.83 171.53 L 156.87 172.06 C 156.12 172.47 155.85 173.41 156.26 174.15 C 156.68 174.89 157.61 175.16 158.35 174.75 Z M 159.12 174.30 L 160.06 173.94 C 160.84 173.64 161.24 172.76 160.94 171.97 C 160.64 171.18 159.76 170.79 158.97 171.09 L 158.03 171.45 C 157.24 171.75 156.85 172.63 157.15 173.42 C 157.45 174.20 158.33 174.60 159.12 174.30 Z M 159.94 173.96 L 160.86 173.69 C 161.65 173.45 162.11 172.61 161.87 171.82 C 161.64 171.02 160.80 170.56 160.00 170.80 L 159.09 171.07 C 158.29 171.31 157.83 172.15 158.07 172.94 C 158.31 173.74 159.14 174.19 159.94 173.96 Z M 160.75 173.69 L 161.76 173.47 C 162.56 173.29 163.06 172.49 162.88 171.69 C 162.70 170.89 161.91 170.39 161.11 170.57 L 160.11 170.79 C 159.31 170.97 158.80 171.77 158.98 172.57 C 159.16 173.37 159.95 173.87 160.75 173.69 Z M 161.68 173.46 L 162.65 173.30 C 163.44 173.16 163.98 172.40 163.84 171.60 C 163.70 170.81 162.94 170.27 162.15 170.41 L 161.19 170.57 C 160.39 170.71 159.85 171.47 159.99 172.27 C 160.13 173.07 160.89 173.60 161.68 173.46 Z M 162.61 173.28 L 163.64 173.13 C 164.43 173.01 164.97 172.27 164.85 171.48 C 164.73 170.69 163.99 170.14 163.20 170.27 L 162.18 170.42 C 161.39 170.54 160.85 171.28 160.97 172.07 C 161.09 172.86 161.82 173.40 162.61 173.28 Z M 163.63 173.12 L 163.69 173.11 C 164.47 172.99 165.01 172.26 164.90 171.48 C 164.78 170.69 164.05 170.15 163.26 170.27 L 163.21 170.27 C 162.42 170.39 161.88 171.12 162.00 171.91 C 162.11 172.69 162.85 173.24 163.63 173.12 Z"
      fill="black"
      fill-rule="nonzero" /><path d="M 157.63 183.07 L 158.54 183.09 C 159.38 183.11 160.08 182.45 160.11 181.60 C 160.13 180.76 159.47 180.06 158.62 180.03 L 157.71 180.01 C 156.87 179.99 156.16 180.65 156.14 181.49 C 156.12 182.34 156.78 183.04 157.63 183.07 Z M 158.79 183.11 L 159.79 182.97 C 160.64 182.86 161.24 182.07 161.12 181.22 C 161.01 180.37 160.23 179.77 159.37 179.88 L 158.37 180.02 C 157.52 180.13 156.92 180.92 157.04 181.77 C 157.15 182.62 157.93 183.22 158.79 183.11 Z M 160.11 182.91 L 161.06 182.57 C 161.88 182.28 162.30 181.38 162.01 180.56 C 161.72 179.74 160.82 179.32 160.00 179.61 L 159.05 179.95 C 158.23 180.24 157.81 181.14 158.10 181.96 C 158.39 182.77 159.29 183.20 160.11 182.91 Z M 161.23 182.49 L 162.11 182.05 C 162.88 181.66 163.19 180.72 162.80 179.95 C 162.42 179.17 161.47 178.86 160.70 179.25 L 159.83 179.69 C 159.05 180.08 158.74 181.02 159.13 181.79 C 159.52 182.57 160.46 182.88 161.23 182.49 Z M 162.18 181.99 L 163.08 181.47 C 163.82 181.05 164.08 180.10 163.66 179.36 C 163.23 178.62 162.28 178.36 161.54 178.79 L 160.64 179.30 C 159.89 179.73 159.64 180.68 160.06 181.42 C 160.49 182.16 161.43 182.42 162.18 181.99 Z M 163.10 181.45 L 163.99 180.91 C 164.71 180.48 164.95 179.54 164.52 178.81 C 164.08 178.09 163.14 177.85 162.42 178.28 L 161.53 178.81 C 160.80 179.25 160.56 180.19 161.00 180.92 C 161.43 181.64 162.37 181.88 163.10 181.45 Z M 163.97 180.90 L 164.88 180.36 C 165.60 179.94 165.84 179.02 165.42 178.30 C 165.00 177.58 164.07 177.34 163.35 177.76 L 162.44 178.30 C 161.72 178.72 161.48 179.64 161.90 180.36 C 162.32 181.08 163.25 181.32 163.97 180.90 Z M 164.85 180.35 L 165.72 179.85 C 166.43 179.45 166.68 178.54 166.27 177.83 C 165.86 177.12 164.96 176.87 164.24 177.28 L 163.38 177.77 C 162.67 178.18 162.42 179.09 162.83 179.80 C 163.24 180.51 164.14 180.76 164.85 180.35 Z M 165.69 179.84 L 166.53 179.37 C 167.23 178.97 167.48 178.08 167.09 177.38 C 166.69 176.68 165.80 176.43 165.10 176.83 L 164.27 177.30 C 163.57 177.69 163.32 178.58 163.71 179.28 C 164.11 179.98 164.99 180.23 165.69 179.84 Z M 166.52 179.35 L 166.74 179.23 C 167.44 178.84 167.68 177.96 167.30 177.27 C 166.91 176.58 166.03 176.33 165.34 176.72 L 165.11 176.84 C 164.42 177.23 164.17 178.11 164.56 178.80 C 164.95 179.49 165.83 179.74 166.52 179.35 Z"
      fill="black"
      fill-rule="nonzero" /></svg>