<svg xmlns="http://www.w3.org/2000/svg" width="300" height="300" viewBox="0 0 300 300">
<path d="M 142.23 119.22 L 142.20 120.09 C 142.17 120.94 142.83 121.66 143.68 121.69 C 144.52 121.72 145.24 121.06 145.27 120.21 L 145.31 119.33 C 145.34 118.48 144.68 117.77 143.83 117.74 C 142.98 117.70 142.26 118.37 142.23 119.22 Z M 142.21 119.80 L 141.98 120.80 C 141.78 121.64 142.30 122.49 143.14 122.68 C 143.98 122.88 144.82 122.36 145.02 121.52 L 145.26 120.51 C 145.46 119.67 144.93 118.83 144.09 118.63 C 143.25 118.43 142.41 118.95 142.21 119.80 Z M 142.07 120.49 L 141.63 121.42 C 141.26 122.21 141.60 123.15 142.39 123.52 C 143.18 123.89 144.12 123.55 144.49 122.76 L 144.93 121.83 C 145.30 121.04 144.96 120.10 144.17 119.73 C 143.38 119.36 142.44 119.70 142.07 120.49 Z M 141.71 121.27 L 141.17 122.16 C 140.72 122.90 140.96 123.88 141.71 124.33 C 142.46 124.78 143.44 124.54 143.89 123.79 L 144.42 122.91 C 144.87 122.16 144.63 121.19 143.88 120.73 C 143.13 120.28 142.16 120.52 141.71 121.27 Z M 141.21 122.09 L 140.63 122.96 C 140.15 123.69 140.34 124.67 141.07 125.16 C 141.79 125.65 142.78 125.45 143.26 124.72 L 143.85 123.85 C 144.33 123.13 144.14 122.14 143.41 121.66 C 142.68 121.17 141.70 121.37 141.21 122.09 Z M 140.65 122.94 L 140.07 123.77 C 139.56 124.49 139.74 125.48 140.45 125.98 C 141.17 126.48 142.16 126.30 142.66 125.59 L 143.24 124.75 C 143.75 124.04 143.57 123.05 142.86 122.55 C 142.14 122.05 141.15 122.22 140.65 122.94 Z M 140.07 123.77 L 139.44 124.66 C 138.94 125.37 139.11 126.36 139.83 126.86 C 140.54 127.36 141.52 127.19 142.03 126.48 L 142.65 125.59 C 143.15 124.88 142.98 123.89 142.27 123.39 C 141.56 122.89 140.57 123.06 140.07 123.77 Z M 139.44 124.67 L 138.94 125.40 C 138.44 126.11 138.61 127.09 139.32 127.59 C 140.04 128.09 141.02 127.91 141.52 127.20 L 142.03 126.47 C 142.52 125.76 142.35 124.78 141.64 124.28 C 140.92 123.78 139.94 123.96 139.44 124.67 Z M 138.93 125.41 L 138.39 126.21 C 137.90 126.93 138.08 127.90 138.80 128.39 C 139.51 128.88 140.49 128.70 140.98 127.98 L 141.52 127.18 C 142.01 126.47 141.83 125.49 141.11 125.00 C 140.39 124.51 139.42 124.70 138.93 125.41 Z M 138.38 126.23 L 137.82 127.06 C 137.34 127.78 137.54 128.76 138.26 129.24 C 138.97 129.72 139.95 129.52 140.43 128.80 L 140.99 127.96 C 141.47 127.24 141.27 126.27 140.55 125.79 C 139.83 125.31 138.86 125.51 138.38 126.23 Z M 137.82 127.07 L 137.27 127.91 C 136.79 128.63 136.99 129.60 137.71 130.08 C 138.44 130.55 139.41 130.35 139.88 129.63 L 140.43 128.79 C 140.91 128.07 140.70 127.10 139.98 126.63 C 139.26 126.15 138.29 126.35 137.82 127.07 Z M 137.26 127.92 L 136.72 128.76 C 136.25 129.48 136.46 130.45 137.18 130.92 C 137.90 131.39 138.87 131.18 139.34 130.46 L 139.88 129.62 C 140.35 128.90 140.15 127.93 139.42 127.46 C 138.70 126.99 137.73 127.20 137.26 127.92 Z M 136.72 128.77 L 136.18 129.61 C 135.71 130.34 135.92 131.30 136.65 131.76 C 137.37 132.23 138.34 132.02 138.80 131.29 L 139.34 130.45 C 139.81 129.72 139.59 128.76 138.87 128.30 C 138.15 127.83 137.18 128.04 136.72 128.77 Z M 136.18 129.62 L 135.64 130.47 C 135.18 131.19 135.40 132.15 136.12 132.61 C 136.85 133.07 137.80 132.85 138.26 132.13 L 138.80 131.28 C 139.26 130.56 139.04 129.60 138.32 129.14 C 137.60 128.68 136.64 128.90 136.18 129.62 Z M 135.65 130.47 L 135.11 131.33 C 134.65 132.05 134.87 133.00 135.59 133.46 C 136.31 133.91 137.26 133.70 137.72 132.98 L 138.26 132.13 C 138.71 131.40 138.50 130.45 137.78 129.99 C 137.06 129.54 136.10 129.75 135.65 130.47 Z M 135.12 131.33 L 134.58 132.17 C 134.13 132.88 134.34 133.83 135.05 134.29 C 135.77 134.74 136.72 134.53 137.17 133.82 L 137.71 132.98 C 138.16 132.26 137.95 131.31 137.24 130.86 C 136.52 130.40 135.57 130.61 135.12 131.33 Z M 134.59 132.17 L 134.05 133.01 C 133.59 133.72 133.80 134.66 134.50 135.12 C 135.21 135.58 136.16 135.37 136.62 134.66 L 137.16 133.82 C 137.62 133.11 137.41 132.17 136.70 131.71 C 136.00 131.25 135.05 131.46 134.59 132.17 Z M 134.06 133.01 L 133.52 133.84 C 133.06 134.54 133.26 135.48 133.96 135.94 C 134.66 136.39 135.60 136.20 136.06 135.50 L 136.60 134.67 C 137.06 133.97 136.86 133.03 136.16 132.57 C 135.46 132.11 134.52 132.31 134.06 133.01 Z M 133.53 133.84 L 132.98 134.67 C 132.52 135.37 132.71 136.30 133.41 136.76 C 134.10 137.22 135.03 137.03 135.49 136.33 L 136.05 135.50 C 136.51 134.80 136.31 133.87 135.62 133.41 C 134.93 132.95 133.99 133.14 133.53 133.84 Z M 132.98 134.69 L 132.45 135.51 C 132.00 136.21 132.19 137.13 132.88 137.58 C 133.58 138.03 134.50 137.84 134.95 137.14 L 135.49 136.32 C 135.94 135.63 135.74 134.70 135.05 134.25 C 134.36 133.80 133.43 134.00 132.98 134.69 Z M 132.44 135.54 L 131.92 136.37 C 131.49 137.06 131.69 137.98 132.39 138.41 C 133.08 138.85 134.00 138.64 134.43 137.95 L 134.95 137.12 C 135.39 136.43 135.18 135.51 134.49 135.07 C 133.80 134.64 132.88 134.85 132.44 135.54 Z M 131.93 136.37 L 131.40 137.22 C 130.96 137.91 131.17 138.81 131.85 139.25 C 132.54 139.68 133.45 139.48 133.88 138.79 L 134.42 137.94 C 134.86 137.26 134.65 136.35 133.96 135.91 C 133.28 135.48 132.37 135.68 131.93 136.37 Z M 131.41 137.21 L 130.87 138.05 C 130.43 138.73 130.63 139.64 131.30 140.07 C 131.98 140.51 132.89 140.32 133.32 139.64 L 133.87 138.80 C 134.31 138.12 134.11 137.22 133.43 136.78 C 132.76 136.34 131.85 136.53 131.41 137.21 Z M 130.88 138.05 L 130.55 138.56 C 130.11 139.23 130.30 140.13 130.98 140.57 C 131.65 141.01 132.55 140.82 132.99 140.14 L 133.32 139.64 C 133.75 138.97 133.56 138.07 132.89 137.63 C 132.22 137.19 131.32 137.38 130.88 138.05 Z"
      fill="black"
      fill-rule="nonzero" /><path d="M 139.05 132.67 L 139.89 131.86 C 140.47 131.30 140.49 130.38 139.93 129.80 C 139.37 129.23 138.45 129.21 137.88 129.77 L 137.03 130.58 C 136.45 131.14 136.44 132.06 136.99 132.63 C 137.55 133.21 138.47 133.23 139.05 132.67 Z M 139.24 132.26 L 139.89 132.11 C 140.69 131.91 141.18 131.10 140.99 130.30 C 140.79 129.49 139.98 129.00 139.18 129.20 L 138.53 129.36 C 137.73 129.55 137.23 130.36 137.43 131.17 C 137.63 131.97 138.44 132.46 139.24 132.26 Z M 138.13 131.26 L 138.50 132.10 C 138.83 132.88 139.73 133.23 140.50 132.90 C 141.28 132.56 141.63 131.66 141.30 130.89 L 140.93 130.05 C 140.60 129.27 139.70 128.92 138.93 129.25 C 138.15 129.58 137.80 130.48 138.13 131.26 Z M 138.38 131.79 L 138.59 132.87 C 138.75 133.71 139.56 134.25 140.40 134.09 C 141.23 133.93 141.78 133.12 141.62 132.29 L 141.41 131.20 C 141.25 130.37 140.44 129.82 139.60 129.98 C 138.77 130.14 138.22 130.95 138.38 131.79 Z M 138.58 132.85 L 138.75 133.82 C 138.90 134.67 139.70 135.23 140.55 135.08 C 141.39 134.93 141.96 134.13 141.81 133.28 L 141.64 132.31 C 141.49 131.46 140.68 130.90 139.84 131.05 C 138.99 131.20 138.43 132.00 138.58 132.85 Z M 138.74 133.80 L 138.90 134.79 C 139.03 135.64 139.83 136.22 140.68 136.09 C 141.53 135.95 142.11 135.15 141.98 134.30 L 141.82 133.31 C 141.68 132.46 140.88 131.88 140.03 132.01 C 139.18 132.15 138.60 132.95 138.74 133.80 Z M 138.89 134.77 L 139.02 135.73 C 139.14 136.59 139.93 137.19 140.79 137.07 C 141.64 136.95 142.24 136.16 142.12 135.30 L 141.99 134.33 C 141.87 133.48 141.08 132.88 140.22 133.00 C 139.36 133.12 138.77 133.91 138.89 134.77 Z M 139.01 135.71 L 139.14 136.73 C 139.24 137.59 140.03 138.20 140.89 138.09 C 141.75 137.99 142.36 137.20 142.26 136.34 L 142.13 135.32 C 142.02 134.46 141.24 133.85 140.38 133.96 C 139.52 134.06 138.91 134.85 139.01 135.71 Z M 139.13 136.71 L 139.24 137.70 C 139.33 138.56 140.11 139.19 140.97 139.09 C 141.84 139.00 142.46 138.22 142.37 137.36 L 142.26 136.37 C 142.17 135.50 141.39 134.88 140.53 134.97 C 139.66 135.06 139.04 135.84 139.13 136.71 Z M 139.24 137.68 L 139.33 138.67 C 139.42 139.54 140.19 140.17 141.06 140.09 C 141.92 140.00 142.55 139.23 142.47 138.37 L 142.37 137.37 C 142.29 136.51 141.52 135.87 140.65 135.96 C 139.78 136.05 139.15 136.82 139.24 137.68 Z M 139.33 138.67 L 139.43 139.68 C 139.51 140.54 140.28 141.18 141.14 141.10 C 142.01 141.02 142.64 140.25 142.56 139.39 L 142.47 138.37 C 142.39 137.51 141.62 136.87 140.76 136.95 C 139.89 137.03 139.25 137.80 139.33 138.67 Z M 139.43 139.67 L 139.52 140.68 C 139.60 141.55 140.36 142.19 141.23 142.11 C 142.09 142.03 142.73 141.27 142.65 140.40 L 142.56 139.39 C 142.48 138.53 141.72 137.89 140.85 137.97 C 139.99 138.05 139.35 138.81 139.43 139.67 Z M 139.53 140.68 L 139.61 141.68 C 139.69 142.54 140.44 143.18 141.31 143.11 C 142.17 143.03 142.81 142.27 142.73 141.41 L 142.65 140.41 C 142.57 139.55 141.82 138.91 140.95 138.98 C 140.09 139.06 139.45 139.81 139.53 140.68 Z M 139.62 141.66 L 139.69 142.65 C 139.76 143.50 140.51 144.15 141.37 144.08 C 142.23 144.02 142.87 143.27 142.80 142.41 L 142.73 141.43 C 142.66 140.57 141.91 139.92 141.05 139.99 C 140.20 140.05 139.55 140.80 139.62 141.66 Z M 139.70 142.64 L 139.77 143.65 C 139.83 144.51 140.58 145.15 141.43 145.09 C 142.29 145.02 142.93 144.28 142.87 143.43 L 142.80 142.41 C 142.73 141.56 141.99 140.92 141.14 140.98 C 140.28 141.04 139.64 141.78 139.70 142.64 Z M 139.79 143.72 L 139.90 144.70 C 140.00 145.55 140.77 146.15 141.61 146.05 C 142.46 145.95 143.07 145.19 142.97 144.34 L 142.85 143.36 C 142.76 142.51 141.99 141.91 141.14 142.01 C 140.30 142.10 139.69 142.87 139.79 143.72 Z M 139.94 144.84 L 140.15 145.80 C 140.33 146.63 141.14 147.16 141.97 146.98 C 142.80 146.80 143.32 145.98 143.14 145.16 L 142.93 144.20 C 142.75 143.37 141.94 142.84 141.11 143.02 C 140.28 143.20 139.76 144.02 139.94 144.84 Z M 140.20 145.95 L 140.50 146.90 C 140.77 147.69 141.62 148.13 142.42 147.87 C 143.22 147.61 143.66 146.75 143.40 145.95 L 143.09 145.01 C 142.83 144.21 141.97 143.77 141.17 144.03 C 140.37 144.29 139.94 145.15 140.20 145.95 Z M 140.54 146.97 L 140.91 147.92 C 141.21 148.69 142.09 149.08 142.87 148.77 C 143.65 148.47 144.03 147.59 143.73 146.82 L 143.36 145.87 C 143.06 145.10 142.18 144.71 141.40 145.01 C 140.62 145.32 140.24 146.19 140.54 146.97 Z M 140.93 147.93 L 141.05 148.24 C 141.36 149.01 142.24 149.38 143.01 149.06 C 143.78 148.75 144.15 147.87 143.84 147.10 L 143.71 146.80 C 143.40 146.03 142.52 145.66 141.75 145.97 C 140.98 146.29 140.61 147.16 140.93 147.93 Z"
      fill="black"
      fill-rule="nonzero" /><path d="M 149.30 132.23 L 150.27 132.33 C 151.09 132.40 151.81 131.81 151.89 131.00 C 151.96 130.18 151.37 129.46 150.55 129.38 L 149.58 129.29 C 148.76 129.21 148.04 129.81 147.96 130.62 C 147.89 131.43 148.48 132.16 149.30 132.23 Z M 150.31 132.36 L 151.32 132.43 C 152.15 132.49 152.87 131.86 152.93 131.03 C 152.99 130.20 152.36 129.48 151.53 129.42 L 150.52 129.35 C 149.69 129.29 148.97 129.92 148.91 130.75 C 148.85 131.58 149.48 132.30 150.31 132.36 Z M 151.39 132.44 L 152.34 132.47 C 153.18 132.49 153.88 131.83 153.91 130.99 C 153.93 130.16 153.27 129.46 152.43 129.43 L 151.47 129.41 C 150.63 129.38 149.93 130.04 149.91 130.88 C 149.89 131.72 150.55 132.42 151.39 132.44 Z M 152.39 132.47 L 153.41 132.46 C 154.25 132.46 154.93 131.78 154.92 130.94 C 154.92 130.10 154.24 129.43 153.40 129.43 L 152.38 129.43 C 151.54 129.44 150.86 130.12 150.87 130.96 C 150.87 131.80 151.56 132.47 152.39 132.47 Z M 153.45 132.46 L 154.45 132.43 C 155.28 132.41 155.94 131.71 155.92 130.88 C 155.90 130.04 155.20 129.38 154.37 129.41 L 153.36 129.43 C 152.53 129.46 151.87 130.15 151.89 130.99 C 151.92 131.82 152.61 132.48 153.45 132.46 Z M 154.47 132.43 L 155.47 132.39 C 156.30 132.35 156.95 131.65 156.91 130.82 C 156.88 129.99 156.18 129.34 155.35 129.37 L 154.35 129.41 C 153.51 129.45 152.87 130.15 152.90 130.98 C 152.93 131.81 153.64 132.46 154.47 132.43 Z M 155.48 132.38 L 156.50 132.33 C 157.33 132.29 157.97 131.59 157.93 130.76 C 157.89 129.93 157.18 129.29 156.36 129.33 L 155.33 129.38 C 154.51 129.42 153.87 130.12 153.90 130.95 C 153.94 131.78 154.65 132.42 155.48 132.38 Z M 156.50 132.32 L 157.51 132.27 C 158.34 132.23 158.97 131.53 158.93 130.70 C 158.89 129.88 158.19 129.25 157.36 129.29 L 156.35 129.34 C 155.53 129.38 154.89 130.08 154.94 130.91 C 154.98 131.73 155.68 132.36 156.50 132.32 Z M 157.51 132.26 L 158.51 132.21 C 159.32 132.17 159.95 131.48 159.91 130.66 C 159.88 129.84 159.18 129.21 158.37 129.25 L 157.37 129.30 C 156.55 129.34 155.92 130.03 155.96 130.85 C 156.00 131.67 156.69 132.30 157.51 132.26 Z M 158.49 132.20 L 159.49 132.16 C 160.30 132.13 160.93 131.44 160.90 130.63 C 160.87 129.82 160.19 129.19 159.38 129.22 L 158.38 129.26 C 157.57 129.30 156.94 129.98 156.97 130.79 C 157.00 131.60 157.68 132.23 158.49 132.20 Z M 159.48 132.15 L 160.49 132.12 C 161.30 132.09 161.93 131.42 161.90 130.61 C 161.88 129.80 161.20 129.17 160.40 129.20 L 159.39 129.23 C 158.58 129.26 157.95 129.93 157.97 130.74 C 158.00 131.55 158.68 132.18 159.48 132.15 Z M 160.50 132.12 L 161.48 132.08 C 162.29 132.04 162.92 131.37 162.88 130.56 C 162.85 129.76 162.17 129.13 161.37 129.16 L 160.39 129.20 C 159.58 129.23 158.96 129.91 158.99 130.72 C 159.02 131.52 159.70 132.15 160.50 132.12 Z M 161.51 132.08 L 162.53 132.02 C 163.33 131.97 163.95 131.28 163.90 130.47 C 163.85 129.67 163.16 129.06 162.36 129.11 L 161.34 129.17 C 160.54 129.21 159.92 129.90 159.97 130.71 C 160.02 131.51 160.71 132.12 161.51 132.08 Z M 162.55 132.02 L 163.55 131.95 C 164.35 131.89 164.96 131.18 164.90 130.38 C 164.84 129.57 164.14 128.97 163.33 129.03 L 162.34 129.10 C 161.53 129.16 160.93 129.86 160.99 130.67 C 161.05 131.48 161.75 132.08 162.55 132.02 Z M 163.55 131.95 L 164.55 131.87 C 165.35 131.81 165.96 131.10 165.90 130.30 C 165.83 129.49 165.13 128.88 164.32 128.95 L 163.33 129.02 C 162.52 129.09 161.91 129.79 161.98 130.60 C 162.04 131.41 162.74 132.01 163.55 131.95 Z M 164.54 131.87 L 165.53 131.80 C 166.34 131.74 166.95 131.04 166.89 130.23 C 166.83 129.42 166.13 128.82 165.32 128.88 L 164.33 128.95 C 163.52 129.01 162.91 129.71 162.97 130.52 C 163.03 131.32 163.73 131.93 164.54 131.87 Z M 165.53 131.79 L 166.14 131.75 C 166.95 131.69 167.55 130.99 167.50 130.19 C 167.44 129.39 166.74 128.78 165.94 128.84 L 165.32 128.88 C 164.52 128.94 163.91 129.64 163.97 130.44 C 164.03 131.24 164.73 131.85 165.53 131.79 Z"
      fill="black"
      fill-rule="nonzero" /><path d="M 154.80 124.90 L 154.65 123.79 C 154.55 122.98 153.81 122.40 153.00 122.51 C 152.19 122.61 151.61 123.35 151.72 124.17 L 151.86 125.28 C 151.96 126.09 152.71 126.66 153.52 126.56 C 154.33 126.45 154.90 125.71 154.80 124.90 Z M 151.79 124.60 L 152.03 125.15 C 152.37 125.92 153.28 126.26 154.05 125.92 C 154.82 125.58 155.17 124.68 154.83 123.91 L 154.58 123.36 C 154.24 122.59 153.34 122.24 152.57 122.58 C 151.79 122.92 151.45 123.83 151.79 124.60 Z M 151.97 125.07 L 152.37 126.13 C 152.67 126.93 153.56 127.34 154.36 127.04 C 155.17 126.74 155.58 125.85 155.28 125.04 L 154.88 123.98 C 154.59 123.18 153.69 122.77 152.89 123.07 C 152.08 123.37 151.67 124.26 151.97 125.07 Z M 152.37 126.17 L 152.75 127.10 C 153.07 127.90 153.98 128.28 154.78 127.96 C 155.58 127.64 155.97 126.73 155.65 125.93 L 155.27 125.00 C 154.95 124.20 154.04 123.81 153.24 124.14 C 152.44 124.46 152.05 125.37 152.37 126.17 Z M 152.73 127.06 L 153.09 128.03 C 153.40 128.84 154.30 129.25 155.11 128.95 C 155.92 128.65 156.33 127.74 156.03 126.93 L 155.66 125.96 C 155.36 125.15 154.46 124.74 153.65 125.04 C 152.84 125.35 152.43 126.25 152.73 127.06 Z M 153.08 128.00 L 153.42 128.97 C 153.71 129.79 154.60 130.22 155.42 129.94 C 156.24 129.65 156.67 128.75 156.38 127.94 L 156.04 126.96 C 155.76 126.15 154.86 125.71 154.04 126.00 C 153.22 126.29 152.79 127.18 153.08 128.00 Z M 153.42 128.97 L 153.75 129.93 C 154.03 130.75 154.93 131.19 155.75 130.90 C 156.57 130.62 157.00 129.72 156.72 128.90 L 156.39 127.94 C 156.10 127.12 155.21 126.68 154.39 126.97 C 153.56 127.25 153.13 128.15 153.42 128.97 Z M 153.75 129.94 L 154.08 130.87 C 154.37 131.69 155.27 132.12 156.09 131.83 C 156.91 131.54 157.34 130.64 157.05 129.82 L 156.72 128.89 C 156.43 128.07 155.53 127.64 154.71 127.93 C 153.89 128.22 153.46 129.12 153.75 129.94 Z M 154.07 130.85 L 154.38 131.75 C 154.65 132.58 155.55 133.02 156.37 132.74 C 157.19 132.46 157.64 131.57 157.36 130.75 L 157.05 129.84 C 156.78 129.02 155.88 128.58 155.06 128.86 C 154.24 129.13 153.79 130.03 154.07 130.85 Z M 154.37 131.73 L 154.68 132.70 C 154.95 133.52 155.83 133.98 156.66 133.71 C 157.49 133.44 157.94 132.56 157.68 131.73 L 157.37 130.77 C 157.10 129.94 156.21 129.49 155.38 129.75 C 154.56 130.02 154.10 130.91 154.37 131.73 Z M 154.68 132.69 L 154.98 133.65 C 155.25 134.47 156.14 134.93 156.96 134.66 C 157.79 134.40 158.25 133.51 157.98 132.69 L 157.68 131.73 C 157.41 130.91 156.53 130.45 155.70 130.71 C 154.87 130.98 154.41 131.86 154.68 132.69 Z M 154.98 133.62 L 155.27 134.58 C 155.52 135.41 156.40 135.88 157.23 135.63 C 158.06 135.37 158.53 134.50 158.28 133.67 L 157.99 132.71 C 157.73 131.88 156.86 131.41 156.03 131.66 C 155.19 131.92 154.73 132.79 154.98 133.62 Z M 155.26 134.54 L 155.53 135.51 C 155.76 136.34 156.63 136.83 157.46 136.60 C 158.30 136.37 158.79 135.50 158.56 134.67 L 158.29 133.70 C 158.05 132.87 157.19 132.38 156.35 132.61 C 155.52 132.84 155.03 133.71 155.26 134.54 Z M 155.53 135.50 L 155.79 136.46 C 156.02 137.30 156.88 137.79 157.71 137.56 C 158.55 137.34 159.04 136.48 158.82 135.64 L 158.55 134.68 C 158.33 133.85 157.47 133.35 156.63 133.58 C 155.80 133.80 155.31 134.66 155.53 135.50 Z M 155.80 136.46 L 156.06 137.42 C 156.28 138.25 157.14 138.75 157.97 138.52 C 158.80 138.30 159.29 137.44 159.07 136.61 L 158.81 135.65 C 158.59 134.81 157.73 134.32 156.90 134.54 C 156.07 134.77 155.57 135.63 155.80 136.46 Z M 156.05 137.39 L 156.29 138.35 C 156.50 139.19 157.34 139.70 158.18 139.49 C 159.01 139.28 159.52 138.44 159.31 137.61 L 159.07 136.64 C 158.87 135.81 158.02 135.30 157.19 135.50 C 156.35 135.71 155.85 136.56 156.05 137.39 Z M 156.29 138.32 L 156.51 139.30 C 156.70 140.14 157.54 140.66 158.37 140.47 C 159.20 140.28 159.73 139.45 159.54 138.62 L 159.31 137.64 C 159.12 136.80 158.29 136.28 157.46 136.47 C 156.62 136.66 156.10 137.49 156.29 138.32 Z M 156.52 139.29 L 156.73 140.26 C 156.91 141.09 157.74 141.62 158.57 141.44 C 159.41 141.25 159.93 140.43 159.75 139.60 L 159.53 138.63 C 159.35 137.79 158.53 137.27 157.69 137.45 C 156.86 137.64 156.33 138.46 156.52 139.29 Z M 156.74 140.26 L 156.95 141.25 C 157.14 142.08 157.96 142.60 158.79 142.42 C 159.62 142.23 160.14 141.41 159.96 140.58 L 159.74 139.60 C 159.56 138.77 158.74 138.24 157.91 138.43 C 157.08 138.61 156.55 139.43 156.74 140.26 Z M 156.96 141.25 L 157.15 142.11 C 157.33 142.93 158.15 143.46 158.98 143.27 C 159.81 143.09 160.33 142.27 160.15 141.44 L 159.96 140.58 C 159.77 139.75 158.95 139.23 158.12 139.42 C 157.30 139.60 156.77 140.42 156.96 141.25 Z M 157.15 142.09 L 157.36 143.09 C 157.54 143.92 158.35 144.45 159.18 144.27 C 160.00 144.10 160.53 143.28 160.36 142.46 L 160.15 141.46 C 159.97 140.63 159.16 140.10 158.33 140.27 C 157.50 140.45 156.97 141.26 157.15 142.09 Z M 157.36 143.07 L 157.56 144.12 C 157.73 144.94 158.53 145.49 159.36 145.32 C 160.19 145.16 160.73 144.36 160.57 143.53 L 160.36 142.48 C 160.20 141.65 159.39 141.11 158.57 141.27 C 157.74 141.43 157.20 142.24 157.36 143.07 Z M 157.56 144.10 L 157.75 145.11 C 157.91 145.94 158.70 146.48 159.53 146.33 C 160.36 146.17 160.91 145.37 160.76 144.54 L 160.57 143.54 C 160.41 142.71 159.61 142.16 158.78 142.32 C 157.95 142.47 157.41 143.27 157.56 144.10 Z M 157.75 145.10 L 157.94 146.12 C 158.09 146.95 158.89 147.50 159.72 147.35 C 160.55 147.20 161.10 146.40 160.94 145.57 L 160.76 144.55 C 160.60 143.72 159.81 143.17 158.98 143.32 C 158.15 143.47 157.60 144.27 157.75 145.10 Z M 157.94 146.12 L 158.13 147.17 C 158.28 148.00 159.08 148.55 159.91 148.39 C 160.74 148.24 161.29 147.44 161.14 146.62 L 160.94 145.57 C 160.79 144.74 159.99 144.19 159.16 144.35 C 158.34 144.50 157.79 145.30 157.94 146.12 Z M 158.15 147.19 L 158.39 148.42 C 158.56 149.24 159.36 149.77 160.18 149.61 C 161.00 149.44 161.53 148.64 161.37 147.82 L 161.12 146.59 C 160.95 145.77 160.16 145.24 159.34 145.41 C 158.51 145.57 157.98 146.37 158.15 147.19 Z M 158.67 148.98 L 158.81 149.18 C 159.29 149.85 160.22 150.01 160.89 149.53 C 161.56 149.05 161.71 148.12 161.24 147.45 L 161.09 147.25 C 160.62 146.58 159.68 146.43 159.01 146.91 C 158.34 147.38 158.19 148.31 158.67 148.98 Z M 161.47 148.35 L 161.50 147.31 C 161.52 146.51 160.88 145.84 160.08 145.82 C 159.28 145.80 158.62 146.44 158.60 147.24 L 158.57 148.28 C 158.55 149.09 159.19 149.75 159.99 149.77 C 160.79 149.79 161.45 149.16 161.47 148.35 Z"
      fill="black"
      fill-rule="nonzero" /><path d="M 158.91 122.63 L 159.83 122.89 C 160.62 123.12 161.46 122.66 161.68 121.86 C 161.91 121.06 161.45 120.23 160.66 120.00 L 159.74 119.74 C 158.94 119.51 158.11 119.97 157.88 120.77 C 157.65 121.57 158.11 122.40 158.91 122.63 Z M 159.50 122.78 L 160.39 123.27 C 161.13 123.68 162.06 123.42 162.46 122.68 C 162.87 121.95 162.61 121.02 161.87 120.61 L 160.98 120.11 C 160.25 119.71 159.32 119.97 158.91 120.71 C 158.50 121.44 158.76 122.37 159.50 122.78 Z M 160.11 123.06 L 160.84 123.73 C 161.46 124.30 162.41 124.25 162.98 123.64 C 163.55 123.02 163.50 122.07 162.89 121.50 L 162.16 120.83 C 161.54 120.26 160.58 120.30 160.02 120.92 C 159.45 121.53 159.49 122.49 160.11 123.06 Z M 160.75 123.58 L 161.42 124.35 C 161.96 124.97 162.89 125.03 163.50 124.50 C 164.12 123.96 164.18 123.03 163.65 122.42 L 162.98 121.65 C 162.44 121.03 161.51 120.97 160.90 121.50 C 160.28 122.04 160.22 122.97 160.75 123.58 Z M 161.39 124.27 L 162.02 125.10 C 162.51 125.73 163.42 125.85 164.05 125.36 C 164.69 124.88 164.81 123.97 164.32 123.33 L 163.69 122.50 C 163.20 121.87 162.29 121.75 161.65 122.24 C 161.02 122.72 160.90 123.63 161.39 124.27 Z M 162.00 125.04 L 162.55 125.82 C 163.01 126.47 163.90 126.62 164.55 126.17 C 165.20 125.71 165.35 124.81 164.89 124.17 L 164.34 123.39 C 163.88 122.74 162.99 122.59 162.34 123.04 C 161.70 123.50 161.54 124.39 162.00 125.04 Z"
      fill="black"
      fill-rule="nonzero" /><path d="M 147.84 147.71 L 148.59 148.07 C 149.35 148.44 150.26 148.12 150.63 147.37 C 151.00 146.61 150.68 145.70 149.92 145.33 L 149.18 144.97 C 148.42 144.60 147.51 144.91 147.14 145.67 C 146.77 146.43 147.09 147.34 147.84 147.71 Z M 148.64 148.10 L 149.63 148.53 C 150.41 148.87 151.31 148.52 151.65 147.74 C 151.99 146.97 151.63 146.06 150.86 145.73 L 149.87 145.30 C 149.09 144.96 148.19 145.31 147.85 146.09 C 147.51 146.86 147.87 147.76 148.64 148.10 Z M 149.69 148.55 L 150.58 148.90 C 151.37 149.21 152.25 148.83 152.56 148.04 C 152.87 147.26 152.49 146.37 151.70 146.06 L 150.80 145.71 C 150.02 145.40 149.13 145.79 148.82 146.57 C 148.51 147.36 148.90 148.24 149.69 148.55 Z M 150.61 148.90 L 151.49 149.23 C 152.28 149.52 153.15 149.13 153.44 148.34 C 153.73 147.56 153.34 146.69 152.55 146.40 L 151.67 146.07 C 150.89 145.77 150.02 146.17 149.73 146.95 C 149.43 147.73 149.83 148.61 150.61 148.90 Z M 151.51 149.22 L 152.49 149.57 C 153.26 149.86 154.12 149.46 154.40 148.68 C 154.68 147.91 154.29 147.05 153.51 146.77 L 152.54 146.41 C 151.76 146.13 150.90 146.53 150.62 147.30 C 150.34 148.07 150.74 148.93 151.51 149.22 Z M 152.50 149.56 L 153.53 149.93 C 154.30 150.20 155.14 149.81 155.42 149.04 C 155.69 148.28 155.30 147.43 154.53 147.16 L 153.50 146.78 C 152.73 146.51 151.89 146.90 151.61 147.67 C 151.34 148.43 151.73 149.28 152.50 149.56 Z M 153.54 149.92 L 154.01 150.09 C 154.77 150.36 155.60 149.97 155.88 149.21 C 156.15 148.45 155.76 147.61 155.00 147.34 L 154.52 147.17 C 153.77 146.90 152.93 147.29 152.66 148.05 C 152.38 148.81 152.78 149.64 153.54 149.92 Z"
      fill="black"
      fill-rule="nonzero" /><path d="M 138.88 154.13 L 139.77 154.13 C 140.60 154.13 141.28 153.46 141.28 152.63 C 141.29 151.80 140.62 151.12 139.78 151.12 L 138.89 151.11 C 138.06 151.11 137.39 151.78 137.38 152.61 C 137.38 153.45 138.05 154.12 138.88 154.13 Z M 139.74 154.18 L 140.82 154.20 C 141.67 154.22 142.38 153.54 142.40 152.68 C 142.42 151.82 141.74 151.11 140.88 151.09 L 139.81 151.07 C 138.95 151.05 138.24 151.73 138.22 152.59 C 138.21 153.45 138.89 154.16 139.74 154.18 Z M 140.79 154.22 L 141.81 154.26 C 142.68 154.30 143.42 153.62 143.45 152.75 C 143.49 151.88 142.81 151.14 141.94 151.11 L 140.91 151.07 C 140.04 151.04 139.31 151.71 139.27 152.58 C 139.24 153.46 139.92 154.19 140.79 154.22 Z M 141.80 154.26 L 142.85 154.31 C 143.72 154.35 144.46 153.68 144.50 152.81 C 144.54 151.94 143.87 151.20 143.00 151.16 L 141.95 151.11 C 141.08 151.07 140.34 151.74 140.30 152.61 C 140.26 153.49 140.93 154.22 141.80 154.26 Z M 142.85 154.31 L 143.84 154.35 C 144.71 154.39 145.44 153.72 145.48 152.85 C 145.52 151.98 144.85 151.24 143.98 151.21 L 142.99 151.16 C 142.13 151.12 141.39 151.80 141.35 152.67 C 141.31 153.53 141.99 154.27 142.85 154.31 Z M 143.86 154.35 L 144.97 154.38 C 145.84 154.41 146.57 153.73 146.59 152.86 C 146.62 151.99 145.94 151.27 145.07 151.24 L 143.95 151.21 C 143.09 151.18 142.36 151.86 142.34 152.73 C 142.31 153.60 142.99 154.33 143.86 154.35 Z M 145.01 154.39 L 145.89 154.39 C 146.76 154.40 147.47 153.70 147.47 152.83 C 147.48 151.96 146.78 151.25 145.91 151.24 L 145.03 151.24 C 144.16 151.23 143.45 151.93 143.45 152.80 C 143.44 153.67 144.14 154.38 145.01 154.39 Z M 145.90 154.40 L 146.86 154.40 C 147.73 154.40 148.44 153.69 148.44 152.82 C 148.44 151.95 147.73 151.24 146.86 151.24 L 145.90 151.24 C 145.03 151.24 144.32 151.95 144.32 152.82 C 144.32 153.69 145.03 154.40 145.90 154.40 Z M 146.86 154.40 L 147.87 154.40 C 148.74 154.40 149.45 153.69 149.45 152.82 C 149.45 151.95 148.74 151.24 147.87 151.24 L 146.86 151.24 C 145.99 151.24 145.28 151.95 145.28 152.82 C 145.28 153.69 145.99 154.40 146.86 154.40 Z M 147.87 154.40 L 148.87 154.40 C 149.75 154.40 150.45 153.69 150.45 152.82 C 150.45 151.95 149.75 151.24 148.87 151.24 L 147.87 151.24 C 147.00 151.24 146.29 151.95 146.29 152.82 C 146.29 153.69 147.00 154.40 147.87 154.40 Z M 148.87 154.40 L 149.88 154.40 C 150.76 154.40 151.46 153.69 151.46 152.82 C 151.46 151.95 150.76 151.24 149.88 151.24 L 148.87 151.24 C 148.00 151.24 147.30 151.95 147.30 152.82 C 147.30 153.69 148.00 154.40 148.87 154.40 Z M 149.88 154.39 L 150.88 154.39 C 151.75 154.39 152.46 153.69 152.46 152.82 C 152.46 151.95 151.75 151.24 150.88 151.24 L 149.88 151.24 C 149.01 151.24 148.31 151.95 148.31 152.82 C 148.31 153.69 149.01 154.39 149.88 154.39 Z M 150.88 154.39 L 151.88 154.39 C 152.75 154.39 153.45 153.69 153.45 152.82 C 153.45 151.95 152.75 151.25 151.88 151.25 L 150.88 151.25 C 150.01 151.25 149.31 151.95 149.31 152.82 C 149.31 153.69 150.01 154.39 150.88 154.39 Z M 151.88 154.39 L 152.88 154.39 C 153.75 154.39 154.45 153.68 154.45 152.82 C 154.45 151.95 153.75 151.25 152.88 151.25 L 151.88 151.25 C 151.01 151.25 150.31 151.95 150.31 152.82 C 150.31 153.68 151.01 154.39 151.88 154.39 Z M 152.88 154.38 L 153.89 154.38 C 154.75 154.38 155.45 153.68 155.45 152.82 C 155.45 151.96 154.75 151.26 153.89 151.26 L 152.88 151.26 C 152.02 151.26 151.32 151.96 151.32 152.82 C 151.32 153.68 152.02 154.38 152.88 154.38 Z M 153.89 154.37 L 154.89 154.37 C 155.74 154.37 156.44 153.68 156.44 152.82 C 156.44 151.96 155.74 151.26 154.89 151.26 L 153.89 151.26 C 153.03 151.26 152.33 151.96 152.33 152.82 C 152.33 153.68 153.03 154.37 153.89 154.37 Z M 154.89 154.37 L 155.89 154.37 C 156.74 154.37 157.43 153.67 157.43 152.82 C 157.43 151.96 156.74 151.27 155.89 151.27 L 154.89 151.27 C 154.03 151.27 153.34 151.96 153.34 152.82 C 153.34 153.67 154.03 154.37 154.89 154.37 Z M 155.89 154.36 L 156.89 154.36 C 157.73 154.36 158.42 153.67 158.42 152.82 C 158.42 151.97 157.73 151.28 156.89 151.28 L 155.89 151.28 C 155.04 151.28 154.35 151.97 154.35 152.82 C 154.35 153.67 155.04 154.36 155.89 154.36 Z M 156.89 154.35 L 157.88 154.35 C 158.73 154.35 159.41 153.66 159.41 152.82 C 159.41 151.97 158.73 151.29 157.88 151.29 L 156.89 151.29 C 156.04 151.29 155.36 151.97 155.36 152.82 C 155.36 153.66 156.04 154.35 156.89 154.35 Z M 157.88 154.34 L 158.88 154.34 C 159.72 154.34 160.40 153.66 160.40 152.82 C 160.40 151.98 159.72 151.30 158.88 151.30 L 157.88 151.30 C 157.04 151.30 156.36 151.98 156.36 152.82 C 156.36 153.66 157.04 154.34 157.88 154.34 Z M 158.88 154.33 L 159.85 154.33 C 160.69 154.33 161.37 153.65 161.37 152.82 C 161.37 151.98 160.69 151.31 159.85 151.31 L 158.88 151.31 C 158.05 151.30 157.37 151.98 157.37 152.82 C 157.37 153.65 158.05 154.33 158.88 154.33 Z M 159.85 154.32 L 160.85 154.33 C 161.68 154.33 162.36 153.66 162.36 152.83 C 162.36 152.00 161.69 151.32 160.86 151.32 L 159.86 151.31 C 159.03 151.31 158.35 151.98 158.35 152.81 C 158.34 153.64 159.01 154.32 159.85 154.32 Z M 160.83 154.32 L 161.87 154.34 C 162.70 154.35 163.38 153.68 163.39 152.86 C 163.40 152.03 162.74 151.35 161.91 151.34 L 160.87 151.32 C 160.05 151.31 159.37 151.98 159.35 152.80 C 159.34 153.63 160.01 154.31 160.83 154.32 Z M 161.83 154.33 L 162.85 154.37 C 163.68 154.41 164.37 153.77 164.41 152.95 C 164.45 152.13 163.81 151.43 162.99 151.39 L 161.96 151.34 C 161.14 151.31 160.44 151.94 160.40 152.77 C 160.36 153.59 161.00 154.29 161.83 154.33 Z M 162.72 154.36 L 163.70 154.49 C 164.52 154.60 165.26 154.03 165.37 153.21 C 165.48 152.40 164.91 151.65 164.10 151.54 L 163.12 151.41 C 162.31 151.30 161.56 151.87 161.45 152.68 C 161.34 153.50 161.91 154.25 162.72 154.36 Z M 163.46 154.42 L 164.43 154.72 C 165.21 154.97 166.04 154.53 166.28 153.75 C 166.52 152.98 166.08 152.15 165.31 151.91 L 164.34 151.61 C 163.56 151.37 162.74 151.80 162.49 152.58 C 162.25 153.36 162.69 154.18 163.46 154.42 Z M 164.30 154.66 L 164.82 154.88 C 165.56 155.20 166.42 154.85 166.73 154.11 C 167.05 153.37 166.71 152.51 165.96 152.19 L 165.44 151.97 C 164.70 151.66 163.84 152.00 163.53 152.74 C 163.21 153.49 163.55 154.34 164.30 154.66 Z"
      fill="black"
      fill-rule="nonzero" /><path d="M 150.35 151.88 L 149.34 151.84 C 148.50 151.81 147.78 152.46 147.75 153.31 C 147.71 154.15 148.37 154.86 149.21 154.90 L 150.22 154.94 C 151.07 154.98 151.78 154.32 151.82 153.48 C 151.85 152.63 151.20 151.92 150.35 151.88 Z M 149.07 151.83 L 148.09 151.97 C 147.25 152.08 146.65 152.86 146.77 153.71 C 146.88 154.56 147.67 155.15 148.51 155.04 L 149.48 154.90 C 150.33 154.79 150.93 154.01 150.81 153.16 C 150.69 152.31 149.91 151.72 149.07 151.83 Z M 147.66 152.08 L 146.88 152.44 C 146.10 152.80 145.75 153.72 146.11 154.50 C 146.46 155.29 147.39 155.63 148.17 155.28 L 148.95 154.92 C 149.73 154.56 150.08 153.64 149.72 152.86 C 149.37 152.07 148.44 151.73 147.66 152.08 Z M 146.64 152.58 L 145.78 153.17 C 145.07 153.66 144.90 154.63 145.39 155.34 C 145.88 156.05 146.85 156.22 147.55 155.73 L 148.41 155.14 C 149.12 154.65 149.29 153.68 148.80 152.97 C 148.31 152.26 147.34 152.09 146.64 152.58 Z M 145.71 153.22 L 144.89 153.86 C 144.21 154.39 144.08 155.37 144.61 156.05 C 145.14 156.72 146.11 156.85 146.79 156.32 L 147.62 155.68 C 148.30 155.16 148.42 154.18 147.90 153.50 C 147.37 152.82 146.39 152.70 145.71 153.22 Z M 144.88 153.87 L 144.09 154.49 C 143.42 155.02 143.30 156.00 143.83 156.67 C 144.36 157.35 145.34 157.46 146.01 156.93 L 146.80 156.31 C 147.47 155.78 147.59 154.81 147.06 154.13 C 146.53 153.46 145.55 153.34 144.88 153.87 Z M 144.09 154.50 L 143.27 155.14 C 142.60 155.67 142.49 156.65 143.02 157.32 C 143.55 157.99 144.52 158.11 145.19 157.57 L 146.01 156.93 C 146.68 156.40 146.80 155.43 146.27 154.75 C 145.74 154.08 144.76 153.97 144.09 154.50 Z M 143.28 155.14 L 142.49 155.77 C 141.81 156.29 141.70 157.27 142.23 157.94 C 142.75 158.61 143.73 158.73 144.40 158.20 L 145.19 157.57 C 145.86 157.05 145.98 156.07 145.45 155.40 C 144.92 154.73 143.95 154.61 143.28 155.14 Z M 142.50 155.77 L 141.68 156.41 C 141.01 156.93 140.88 157.89 141.40 158.56 C 141.92 159.23 142.89 159.35 143.56 158.83 L 144.38 158.20 C 145.05 157.68 145.18 156.71 144.66 156.04 C 144.14 155.37 143.17 155.25 142.50 155.77 Z M 141.70 156.41 L 140.92 157.00 C 140.25 157.50 140.12 158.46 140.63 159.13 C 141.14 159.80 142.09 159.93 142.76 159.42 L 143.54 158.83 C 144.21 158.32 144.34 157.37 143.83 156.70 C 143.32 156.03 142.37 155.90 141.70 156.41 Z M 140.95 157.00 L 140.16 157.58 C 139.49 158.07 139.35 159.01 139.84 159.68 C 140.34 160.35 141.28 160.49 141.95 160.00 L 142.74 159.42 C 143.40 158.93 143.55 157.98 143.05 157.32 C 142.56 156.65 141.62 156.50 140.95 157.00 Z M 140.18 157.58 L 139.36 158.17 C 138.69 158.65 138.54 159.58 139.02 160.25 C 139.50 160.92 140.44 161.07 141.11 160.59 L 141.92 160.00 C 142.59 159.52 142.75 158.59 142.26 157.92 C 141.78 157.25 140.85 157.10 140.18 157.58 Z M 139.38 158.17 L 138.54 158.76 C 137.87 159.23 137.71 160.16 138.18 160.83 C 138.66 161.50 139.58 161.66 140.25 161.18 L 141.09 160.59 C 141.76 160.12 141.92 159.19 141.45 158.52 C 140.97 157.85 140.05 157.69 139.38 158.17 Z M 138.55 158.76 L 137.75 159.32 C 137.08 159.78 136.91 160.70 137.37 161.37 C 137.84 162.04 138.76 162.21 139.43 161.74 L 140.24 161.18 C 140.91 160.72 141.07 159.80 140.61 159.13 C 140.14 158.46 139.22 158.29 138.55 158.76 Z M 137.76 159.32 L 136.89 159.92 C 136.22 160.37 136.05 161.28 136.50 161.95 C 136.96 162.62 137.87 162.79 138.54 162.34 L 139.41 161.74 C 140.08 161.29 140.25 160.37 139.80 159.71 C 139.34 159.04 138.43 158.86 137.76 159.32 Z M 136.91 159.92 L 136.09 160.47 C 135.42 160.91 135.25 161.82 135.69 162.48 C 136.14 163.15 137.04 163.33 137.71 162.88 L 138.52 162.33 C 139.19 161.89 139.37 160.99 138.92 160.32 C 138.48 159.65 137.57 159.47 136.91 159.92 Z M 136.10 160.47 L 135.53 160.85 C 134.86 161.29 134.68 162.19 135.12 162.85 C 135.56 163.51 136.46 163.70 137.12 163.26 L 137.70 162.87 C 138.36 162.43 138.54 161.54 138.10 160.88 C 137.66 160.21 136.77 160.03 136.10 160.47 Z"
      fill="black"
      fill-rule="nonzero" /><path d="M 143.30 157.69 L 143.88 158.48 C 144.38 159.18 145.35 159.33 146.04 158.83 C 146.73 158.33 146.89 157.36 146.39 156.67 L 145.81 155.87 C 145.31 155.18 144.34 155.03 143.65 155.53 C 142.96 156.03 142.80 157.00 143.30 157.69 Z M 143.69 158.16 L 144.06 159.07 C 144.38 159.87 145.29 160.25 146.08 159.93 C 146.88 159.61 147.27 158.70 146.95 157.91 L 146.58 157.00 C 146.26 156.20 145.35 155.81 144.55 156.13 C 143.76 156.45 143.37 157.36 143.69 158.16 Z M 143.95 158.70 L 144.09 159.70 C 144.21 160.55 145.00 161.15 145.85 161.03 C 146.71 160.91 147.31 160.12 147.19 159.27 L 147.05 158.27 C 146.93 157.42 146.14 156.82 145.29 156.94 C 144.43 157.06 143.84 157.85 143.95 158.70 Z M 144.08 159.57 L 144.13 160.57 C 144.18 161.43 144.92 162.09 145.78 162.05 C 146.64 162.00 147.30 161.26 147.26 160.40 L 147.20 159.40 C 147.15 158.53 146.42 157.87 145.56 157.92 C 144.69 157.97 144.03 158.70 144.08 159.57 Z M 144.13 160.54 L 144.16 161.53 C 144.19 162.39 144.91 163.07 145.78 163.04 C 146.64 163.01 147.32 162.29 147.29 161.43 L 147.26 160.44 C 147.23 159.57 146.51 158.90 145.64 158.92 C 144.78 158.95 144.10 159.67 144.13 160.54 Z M 144.16 161.50 L 144.18 162.50 C 144.19 163.36 144.90 164.05 145.76 164.04 C 146.63 164.03 147.32 163.32 147.30 162.45 L 147.29 161.45 C 147.28 160.59 146.57 159.90 145.70 159.91 C 144.84 159.93 144.15 160.64 144.16 161.50 Z M 144.18 162.49 L 144.19 163.48 C 144.19 164.35 144.90 165.04 145.76 165.04 C 146.62 165.03 147.32 164.33 147.31 163.46 L 147.30 162.46 C 147.30 161.60 146.59 160.91 145.73 160.91 C 144.87 160.92 144.17 161.62 144.18 162.49 Z M 144.19 163.49 L 144.20 164.52 C 144.21 165.38 144.91 166.07 145.78 166.06 C 146.64 166.06 147.33 165.35 147.32 164.49 L 147.31 163.46 C 147.30 162.59 146.59 161.90 145.73 161.91 C 144.87 161.92 144.18 162.63 144.19 163.49 Z M 144.20 164.53 L 144.22 165.54 C 144.23 166.41 144.94 167.09 145.81 167.08 C 146.67 167.06 147.35 166.35 147.34 165.49 L 147.32 164.47 C 147.30 163.61 146.59 162.93 145.73 162.94 C 144.87 162.96 144.18 163.67 144.20 164.53 Z M 144.22 165.54 L 144.24 166.53 C 144.25 167.40 144.96 168.08 145.82 168.06 C 146.68 168.05 147.37 167.34 147.35 166.48 L 147.34 165.49 C 147.32 164.63 146.61 163.94 145.75 163.96 C 144.89 163.97 144.20 164.68 144.22 165.54 Z M 144.24 166.52 L 144.25 167.56 C 144.26 168.42 144.96 169.11 145.82 169.11 C 146.68 169.10 147.37 168.39 147.36 167.53 L 147.35 166.49 C 147.34 165.63 146.64 164.94 145.78 164.95 C 144.92 164.96 144.23 165.66 144.24 166.52 Z M 144.25 167.55 L 144.25 168.53 C 144.25 169.39 144.95 170.08 145.81 170.08 C 146.67 170.08 147.37 169.38 147.37 168.52 L 147.36 167.55 C 147.36 166.69 146.66 165.99 145.80 165.99 C 144.94 165.99 144.25 166.69 144.25 167.55 Z M 144.25 168.53 L 144.25 169.53 C 144.25 170.39 144.95 171.08 145.81 171.08 C 146.67 171.08 147.37 170.39 147.37 169.53 L 147.37 168.53 C 147.37 167.67 146.67 166.97 145.81 166.97 C 144.95 166.97 144.25 167.67 144.25 168.53 Z M 144.25 169.53 L 144.25 170.51 C 144.25 171.37 144.95 172.07 145.81 172.07 C 146.67 172.07 147.37 171.37 147.37 170.51 L 147.37 169.53 C 147.37 168.67 146.67 167.97 145.81 167.97 C 144.95 167.97 144.25 168.67 144.25 169.53 Z M 144.26 170.69 L 144.39 171.73 C 144.49 172.59 145.26 173.20 146.12 173.10 C 146.97 172.99 147.58 172.22 147.48 171.37 L 147.35 170.33 C 147.25 169.47 146.48 168.86 145.62 168.96 C 144.77 169.07 144.16 169.84 144.26 170.69 Z M 146.56 172.95 L 147.15 172.69 C 147.92 172.34 148.26 171.43 147.91 170.65 C 147.56 169.88 146.65 169.54 145.88 169.89 L 145.30 170.15 C 144.53 170.50 144.18 171.41 144.53 172.18 C 144.88 172.96 145.79 173.30 146.56 172.95 Z M 147.58 172.33 L 148.40 171.50 C 148.98 170.91 148.97 169.97 148.38 169.39 C 147.79 168.81 146.85 168.82 146.27 169.41 L 145.45 170.24 C 144.87 170.83 144.88 171.77 145.46 172.35 C 146.05 172.93 147.00 172.92 147.58 172.33 Z M 148.31 171.55 L 149.05 170.89 C 149.65 170.35 149.70 169.42 149.16 168.82 C 148.62 168.21 147.70 168.16 147.09 168.70 L 146.35 169.36 C 145.75 169.90 145.70 170.83 146.24 171.43 C 146.78 172.04 147.71 172.09 148.31 171.55 Z M 149.01 170.90 L 149.75 170.27 C 150.36 169.75 150.44 168.83 149.92 168.22 C 149.39 167.61 148.48 167.54 147.86 168.06 L 147.13 168.69 C 146.51 169.21 146.44 170.13 146.96 170.74 C 147.48 171.35 148.40 171.42 149.01 170.90 Z M 149.75 170.26 L 150.46 169.65 C 151.06 169.13 151.13 168.22 150.61 167.61 C 150.08 167.01 149.17 166.94 148.57 167.46 L 147.86 168.07 C 147.26 168.59 147.19 169.51 147.71 170.11 C 148.23 170.71 149.15 170.78 149.75 170.26 Z M 150.44 169.65 L 151.28 168.94 C 151.88 168.43 151.95 167.52 151.44 166.92 C 150.93 166.31 150.02 166.24 149.41 166.75 L 148.58 167.46 C 147.98 167.98 147.90 168.89 148.42 169.49 C 148.93 170.10 149.84 170.17 150.44 169.65 Z M 151.26 168.95 L 151.98 168.35 C 152.59 167.85 152.67 166.94 152.17 166.34 C 151.66 165.73 150.76 165.64 150.15 166.15 L 149.43 166.75 C 148.82 167.25 148.74 168.16 149.24 168.76 C 149.75 169.37 150.65 169.46 151.26 168.95 Z M 151.97 168.36 L 152.74 167.73 C 153.35 167.23 153.44 166.32 152.94 165.71 C 152.44 165.10 151.54 165.01 150.93 165.51 L 150.16 166.15 C 149.55 166.65 149.46 167.55 149.96 168.16 C 150.46 168.77 151.36 168.86 151.97 168.36 Z M 152.74 167.73 L 153.55 167.06 C 154.16 166.57 154.26 165.67 153.76 165.06 C 153.26 164.44 152.36 164.35 151.75 164.85 L 150.93 165.51 C 150.32 166.01 150.23 166.91 150.73 167.52 C 151.23 168.13 152.12 168.23 152.74 167.73 Z M 153.55 167.06 L 153.96 166.73 C 154.58 166.23 154.67 165.33 154.17 164.72 C 153.68 164.11 152.78 164.02 152.17 164.51 L 151.75 164.85 C 151.14 165.35 151.05 166.24 151.54 166.86 C 152.04 167.47 152.94 167.56 153.55 167.06 Z"
      fill="black"
      fill-rule="nonzero" /><path d="M 162.74 156.78 L 162.34 157.66 C 161.98 158.43 162.31 159.34 163.08 159.70 C 163.85 160.06 164.76 159.73 165.12 158.96 L 165.53 158.08 C 165.89 157.31 165.56 156.39 164.79 156.03 C 164.02 155.68 163.10 156.01 162.74 156.78 Z M 162.54 157.37 L 161.91 158.16 C 161.39 158.82 161.51 159.77 162.17 160.29 C 162.82 160.81 163.78 160.70 164.30 160.04 L 164.92 159.25 C 165.44 158.59 165.33 157.63 164.67 157.12 C 164.01 156.60 163.06 156.71 162.54 157.37 Z M 162.17 157.93 L 161.37 158.56 C 160.73 159.08 160.62 160.03 161.14 160.68 C 161.66 161.32 162.61 161.43 163.25 160.91 L 164.05 160.27 C 164.69 159.75 164.80 158.81 164.28 158.16 C 163.76 157.51 162.81 157.41 162.17 157.93 Z M 161.51 158.48 L 160.70 159.00 C 160.00 159.44 159.80 160.36 160.24 161.06 C 160.69 161.75 161.61 161.95 162.30 161.51 L 163.12 160.99 C 163.81 160.55 164.02 159.63 163.57 158.93 C 163.13 158.24 162.21 158.03 161.51 158.48 Z M 160.80 158.94 L 159.96 159.39 C 159.24 159.78 158.97 160.68 159.35 161.41 C 159.74 162.13 160.65 162.40 161.37 162.01 L 162.21 161.56 C 162.93 161.18 163.20 160.27 162.81 159.55 C 162.42 158.82 161.52 158.55 160.80 158.94 Z M 160.02 159.36 L 159.09 159.81 C 158.35 160.17 158.04 161.06 158.39 161.80 C 158.75 162.54 159.64 162.85 160.39 162.49 L 161.31 162.04 C 162.06 161.69 162.37 160.79 162.01 160.05 C 161.65 159.31 160.76 159.00 160.02 159.36 Z M 159.11 159.80 L 158.22 160.21 C 157.47 160.56 157.14 161.45 157.49 162.19 C 157.84 162.94 158.73 163.27 159.48 162.92 L 160.37 162.51 C 161.12 162.16 161.44 161.27 161.09 160.52 C 160.74 159.77 159.86 159.45 159.11 159.80 Z M 158.23 160.20 L 157.27 160.63 C 156.52 160.97 156.18 161.86 156.52 162.61 C 156.86 163.37 157.75 163.70 158.51 163.36 L 159.46 162.93 C 160.22 162.59 160.55 161.70 160.21 160.95 C 159.87 160.19 158.99 159.86 158.23 160.20 Z M 157.29 160.61 L 156.22 161.08 C 155.46 161.41 155.11 162.30 155.44 163.06 C 155.77 163.82 156.66 164.17 157.42 163.84 L 158.49 163.38 C 159.25 163.05 159.60 162.16 159.27 161.40 C 158.94 160.63 158.05 160.28 157.29 160.61 Z M 156.16 161.09 L 155.16 161.58 C 154.40 161.94 154.08 162.85 154.45 163.61 C 154.81 164.37 155.73 164.68 156.48 164.32 L 157.49 163.83 C 158.24 163.46 158.56 162.55 158.19 161.80 C 157.83 161.04 156.92 160.72 156.16 161.09 Z M 154.62 161.98 L 154.23 162.45 C 153.70 163.12 153.80 164.09 154.46 164.62 C 155.13 165.16 156.10 165.05 156.63 164.39 L 157.02 163.92 C 157.55 163.25 157.45 162.28 156.79 161.75 C 156.12 161.21 155.15 161.31 154.62 161.98 Z M 154.38 164.58 L 155.02 165.17 C 155.66 165.75 156.65 165.71 157.24 165.07 C 157.82 164.43 157.77 163.43 157.13 162.85 L 156.49 162.26 C 155.85 161.68 154.86 161.73 154.28 162.37 C 153.69 163.01 153.74 164.00 154.38 164.58 Z M 155.36 165.43 L 156.37 165.94 C 157.15 166.33 158.11 166.02 158.50 165.23 C 158.90 164.45 158.58 163.49 157.80 163.10 L 156.79 162.59 C 156.01 162.20 155.05 162.51 154.66 163.29 C 154.26 164.08 154.58 165.03 155.36 165.43 Z M 156.38 165.95 L 157.27 166.39 C 158.06 166.78 159.02 166.45 159.41 165.66 C 159.80 164.87 159.47 163.91 158.68 163.52 L 157.79 163.08 C 157.00 162.69 156.04 163.02 155.65 163.81 C 155.26 164.60 155.59 165.56 156.38 165.95 Z M 157.23 166.37 L 158.13 166.85 C 158.91 167.26 159.88 166.96 160.29 166.18 C 160.71 165.40 160.41 164.43 159.63 164.02 L 158.72 163.54 C 157.94 163.13 156.98 163.43 156.56 164.21 C 156.15 164.99 156.45 165.96 157.23 166.37 Z M 158.07 166.81 L 158.95 167.33 C 159.71 167.77 160.69 167.51 161.14 166.75 C 161.58 165.99 161.33 165.01 160.56 164.56 L 159.69 164.05 C 158.92 163.60 157.94 163.86 157.50 164.63 C 157.05 165.39 157.31 166.37 158.07 166.81 Z M 158.91 167.30 L 159.75 167.83 C 160.50 168.29 161.49 168.06 161.96 167.31 C 162.42 166.56 162.19 165.58 161.44 165.11 L 160.60 164.59 C 159.85 164.12 158.87 164.35 158.40 165.10 C 157.93 165.85 158.16 166.84 158.91 167.30 Z M 159.73 167.81 L 160.60 168.37 C 161.34 168.85 162.33 168.63 162.81 167.89 C 163.29 167.14 163.07 166.15 162.33 165.68 L 161.46 165.12 C 160.72 164.64 159.73 164.86 159.25 165.60 C 158.77 166.35 158.99 167.34 159.73 167.81 Z M 160.57 168.36 L 161.39 168.90 C 162.13 169.39 163.12 169.19 163.61 168.45 C 164.10 167.72 163.90 166.72 163.17 166.23 L 162.35 165.69 C 161.61 165.20 160.62 165.40 160.13 166.13 C 159.64 166.87 159.84 167.87 160.57 168.36 Z M 161.35 168.87 L 162.14 169.43 C 162.86 169.94 163.86 169.77 164.37 169.05 C 164.88 168.33 164.71 167.33 163.99 166.81 L 163.21 166.26 C 162.48 165.75 161.48 165.92 160.97 166.64 C 160.46 167.36 160.63 168.36 161.35 168.87 Z M 162.08 169.39 L 162.87 170.00 C 163.57 170.54 164.58 170.42 165.12 169.72 C 165.66 169.02 165.54 168.01 164.84 167.47 L 164.05 166.86 C 163.35 166.31 162.34 166.44 161.80 167.14 C 161.26 167.84 161.38 168.84 162.08 169.39 Z M 162.81 169.95 L 163.57 170.60 C 164.24 171.18 165.25 171.10 165.83 170.43 C 166.40 169.76 166.32 168.75 165.65 168.17 L 164.89 167.52 C 164.22 166.95 163.21 167.02 162.64 167.70 C 162.06 168.37 162.14 169.38 162.81 169.95 Z M 163.53 170.55 L 164.27 171.24 C 164.91 171.84 165.92 171.81 166.52 171.16 C 167.12 170.52 167.08 169.51 166.44 168.91 L 165.70 168.22 C 165.06 167.62 164.05 167.66 163.45 168.30 C 162.85 168.94 162.89 169.95 163.53 170.55 Z M 164.22 171.19 L 164.93 171.91 C 165.54 172.54 166.55 172.55 167.17 171.94 C 167.80 171.33 167.81 170.33 167.20 169.70 L 166.49 168.97 C 165.88 168.35 164.88 168.33 164.25 168.94 C 163.62 169.56 163.61 170.56 164.22 171.19 Z M 164.88 171.85 L 165.55 172.61 C 166.13 173.26 167.13 173.32 167.78 172.75 C 168.43 172.17 168.50 171.17 167.92 170.52 L 167.25 169.76 C 166.67 169.11 165.67 169.05 165.02 169.62 C 164.37 170.20 164.31 171.20 164.88 171.85 Z M 165.52 172.58 L 166.08 173.24 C 166.64 173.91 167.64 174.00 168.31 173.44 C 168.97 172.88 169.06 171.88 168.50 171.21 L 167.94 170.55 C 167.38 169.88 166.39 169.79 165.72 170.35 C 165.05 170.91 164.96 171.91 165.52 172.58 Z"
      fill="black"
      fill-rule="nonzero" /></svg>