<svg xmlns="http://www.w3.org/2000/svg" width="300" height="300" viewBox="0 0 300 300">
<path d="M 138.64 133.94 L 138.36 132.66 C 138.19 131.86 137.39 131.34 136.59 131.52 C 135.78 131.69 135.27 132.48 135.44 133.29 L 135.71 134.57 C 135.89 135.38 136.68 135.89 137.49 135.72 C 138.30 135.54 138.81 134.75 138.64 133.94 Z M 138.31 132.37 L 138.13 131.93 C 137.79 131.15 136.88 130.79 136.10 131.12 C 135.32 131.46 134.96 132.37 135.30 133.15 L 135.49 133.59 C 135.82 134.37 136.73 134.73 137.51 134.39 C 138.29 134.05 138.65 133.15 138.31 132.37 Z M 135.14 132.43 L 135.08 133.33 C 135.02 134.19 135.67 134.94 136.54 135.00 C 137.40 135.07 138.15 134.41 138.22 133.55 L 138.28 132.65 C 138.34 131.78 137.69 131.03 136.82 130.97 C 135.96 130.91 135.20 131.56 135.14 132.43 Z M 135.06 133.41 L 135.05 134.65 C 135.03 135.53 135.73 136.25 136.61 136.26 C 137.48 136.27 138.20 135.57 138.22 134.70 L 138.23 133.46 C 138.25 132.58 137.55 131.86 136.67 131.85 C 135.80 131.84 135.08 132.54 135.06 133.41 Z M 135.04 134.63 L 135.01 135.65 C 134.98 136.53 135.67 137.26 136.55 137.29 C 137.43 137.32 138.16 136.63 138.19 135.75 L 138.22 134.73 C 138.25 133.85 137.56 133.11 136.68 133.09 C 135.80 133.06 135.07 133.75 135.04 134.63 Z M 135.01 135.59 L 134.94 136.56 C 134.88 137.43 135.54 138.20 136.42 138.26 C 137.30 138.32 138.06 137.65 138.12 136.78 L 138.19 135.81 C 138.25 134.93 137.59 134.17 136.71 134.11 C 135.83 134.05 135.07 134.71 135.01 135.59 Z M 134.95 136.44 L 134.81 137.43 C 134.69 138.31 135.30 139.11 136.17 139.24 C 137.05 139.36 137.85 138.75 137.98 137.87 L 138.11 136.89 C 138.24 136.01 137.63 135.21 136.75 135.08 C 135.88 134.96 135.07 135.57 134.95 136.44 Z M 134.82 137.34 L 134.64 138.28 C 134.46 139.15 135.03 139.99 135.89 140.16 C 136.76 140.34 137.60 139.77 137.77 138.91 L 137.96 137.97 C 138.13 137.10 137.57 136.26 136.71 136.08 C 135.84 135.91 135.00 136.48 134.82 137.34 Z M 134.64 138.25 L 134.43 139.24 C 134.24 140.10 134.78 140.95 135.65 141.14 C 136.51 141.33 137.36 140.79 137.55 139.92 L 137.77 138.94 C 137.96 138.07 137.41 137.22 136.55 137.03 C 135.69 136.84 134.83 137.39 134.64 138.25 Z M 134.43 139.23 L 134.21 140.20 C 134.01 141.07 134.55 141.92 135.42 142.12 C 136.28 142.31 137.14 141.77 137.33 140.91 L 137.55 139.93 C 137.75 139.07 137.21 138.21 136.34 138.02 C 135.48 137.82 134.62 138.36 134.43 139.23 Z M 134.21 140.19 L 133.98 141.16 C 133.77 142.03 134.31 142.89 135.17 143.09 C 136.03 143.30 136.90 142.77 137.10 141.90 L 137.33 140.93 C 137.54 140.06 137.00 139.20 136.14 138.99 C 135.28 138.79 134.41 139.32 134.21 140.19 Z M 133.98 141.13 L 133.74 142.08 C 133.52 142.94 134.03 143.82 134.89 144.04 C 135.75 144.26 136.63 143.74 136.85 142.88 L 137.09 141.94 C 137.31 141.08 136.80 140.20 135.94 139.98 C 135.08 139.76 134.21 140.27 133.98 141.13 Z M 133.74 142.06 L 133.48 143.04 C 133.24 143.90 133.75 144.78 134.60 145.01 C 135.46 145.25 136.34 144.74 136.57 143.89 L 136.84 142.91 C 137.08 142.05 136.57 141.17 135.72 140.93 C 134.86 140.70 133.98 141.20 133.74 142.06 Z M 133.48 143.03 L 133.21 143.98 C 132.98 144.84 133.48 145.72 134.33 145.96 C 135.19 146.20 136.07 145.70 136.31 144.84 L 136.57 143.89 C 136.81 143.04 136.31 142.15 135.45 141.92 C 134.60 141.68 133.71 142.18 133.48 143.03 Z M 133.22 143.97 L 132.94 144.94 C 132.69 145.79 133.19 146.68 134.04 146.93 C 134.89 147.17 135.78 146.68 136.03 145.83 L 136.31 144.85 C 136.55 144.00 136.06 143.11 135.20 142.87 C 134.35 142.62 133.46 143.12 133.22 143.97 Z M 132.95 144.92 L 132.66 145.87 C 132.40 146.71 132.88 147.61 133.73 147.87 C 134.57 148.13 135.47 147.65 135.73 146.80 L 136.02 145.85 C 136.28 145.00 135.80 144.11 134.95 143.85 C 134.10 143.59 133.21 144.07 132.95 144.92 Z M 132.66 145.85 L 132.36 146.80 C 132.09 147.64 132.56 148.55 133.40 148.81 C 134.25 149.08 135.15 148.62 135.42 147.77 L 135.72 146.82 C 135.99 145.98 135.53 145.07 134.68 144.80 C 133.84 144.53 132.93 145.00 132.66 145.85 Z M 132.36 146.79 L 132.05 147.75 C 131.78 148.59 132.24 149.50 133.09 149.77 C 133.93 150.04 134.84 149.58 135.11 148.74 L 135.42 147.78 C 135.69 146.93 135.23 146.03 134.38 145.76 C 133.54 145.48 132.64 145.95 132.36 146.79 Z M 132.05 147.75 L 131.75 148.68 C 131.48 149.52 131.94 150.43 132.78 150.70 C 133.63 150.98 134.53 150.51 134.81 149.67 L 135.11 148.74 C 135.38 147.89 134.92 146.99 134.08 146.72 C 133.23 146.44 132.33 146.90 132.05 147.75 Z M 131.75 148.68 L 131.44 149.65 C 131.16 150.49 131.62 151.39 132.46 151.67 C 133.30 151.95 134.21 151.49 134.49 150.64 L 134.80 149.68 C 135.08 148.83 134.62 147.93 133.78 147.65 C 132.94 147.38 132.03 147.83 131.75 148.68 Z M 131.44 149.64 L 131.12 150.59 C 130.84 151.43 131.29 152.34 132.13 152.62 C 132.97 152.90 133.88 152.45 134.16 151.61 L 134.48 150.65 C 134.76 149.81 134.31 148.91 133.47 148.62 C 132.63 148.34 131.72 148.80 131.44 149.64 Z M 131.13 150.58 L 130.80 151.54 C 130.52 152.37 130.96 153.28 131.80 153.57 C 132.64 153.85 133.55 153.41 133.83 152.57 L 134.16 151.62 C 134.44 150.78 134.00 149.87 133.16 149.58 C 132.32 149.30 131.41 149.75 131.13 150.58 Z M 130.81 151.53 L 130.48 152.48 C 130.19 153.31 130.63 154.22 131.47 154.51 C 132.30 154.80 133.21 154.35 133.50 153.52 L 133.83 152.57 C 134.12 151.74 133.67 150.83 132.84 150.54 C 132.00 150.25 131.09 150.70 130.81 151.53 Z M 130.48 152.47 L 130.15 153.44 C 129.86 154.27 130.30 155.18 131.13 155.47 C 131.96 155.76 132.87 155.32 133.16 154.49 L 133.50 153.52 C 133.79 152.69 133.35 151.78 132.52 151.49 C 131.69 151.20 130.78 151.64 130.48 152.47 Z M 130.15 153.43 L 129.82 154.37 C 129.53 155.20 129.96 156.11 130.79 156.40 C 131.62 156.70 132.53 156.26 132.82 155.43 L 133.16 154.50 C 133.45 153.67 133.02 152.75 132.19 152.46 C 131.36 152.17 130.45 152.60 130.15 153.43 Z M 129.83 154.36 L 129.49 155.29 C 129.19 156.12 129.62 157.03 130.45 157.33 C 131.28 157.62 132.19 157.20 132.48 156.37 L 132.82 155.44 C 133.12 154.61 132.69 153.70 131.86 153.40 C 131.03 153.11 130.12 153.54 129.83 154.36 Z M 129.50 155.28 L 129.15 156.23 C 128.85 157.05 129.27 157.96 130.10 158.26 C 130.92 158.57 131.83 158.14 132.13 157.32 L 132.48 156.38 C 132.78 155.55 132.36 154.64 131.53 154.34 C 130.71 154.04 129.80 154.46 129.50 155.28 Z M 129.16 156.22 L 128.81 157.15 C 128.51 157.97 128.92 158.88 129.74 159.19 C 130.56 159.49 131.47 159.07 131.78 158.26 L 132.13 157.33 C 132.43 156.51 132.01 155.60 131.19 155.29 C 130.38 154.99 129.46 155.40 129.16 156.22 Z M 128.82 157.14 L 128.46 158.08 C 128.16 158.90 128.57 159.81 129.38 160.12 C 130.20 160.43 131.11 160.01 131.42 159.20 L 131.77 158.26 C 132.08 157.44 131.67 156.53 130.85 156.22 C 130.04 155.92 129.13 156.33 128.82 157.14 Z M 128.47 158.09 L 128.12 159.02 C 127.81 159.83 128.22 160.74 129.04 161.05 C 129.85 161.35 130.76 160.94 131.06 160.13 L 131.42 159.19 C 131.72 158.38 131.31 157.47 130.50 157.17 C 129.68 156.86 128.77 157.27 128.47 158.09 Z M 128.12 159.03 L 127.77 159.97 C 127.47 160.79 127.89 161.69 128.70 161.99 C 129.52 162.29 130.42 161.87 130.72 161.06 L 131.06 160.12 C 131.36 159.30 130.94 158.40 130.13 158.10 C 129.32 157.80 128.42 158.22 128.12 159.03 Z M 127.77 159.99 L 127.43 160.93 C 127.14 161.75 127.56 162.64 128.38 162.93 C 129.19 163.23 130.09 162.80 130.38 161.99 L 130.72 161.04 C 131.01 160.23 130.59 159.34 129.77 159.04 C 128.96 158.75 128.06 159.18 127.77 159.99 Z M 127.44 160.94 L 127.10 161.87 C 126.81 162.68 127.23 163.57 128.04 163.86 C 128.85 164.15 129.75 163.73 130.04 162.92 L 130.37 161.99 C 130.66 161.18 130.24 160.29 129.43 160.00 C 128.62 159.70 127.73 160.13 127.44 160.94 Z M 127.11 161.86 L 126.77 162.81 C 126.47 163.61 126.89 164.50 127.69 164.79 C 128.50 165.09 129.39 164.67 129.68 163.87 L 130.03 162.93 C 130.32 162.12 129.91 161.23 129.10 160.94 C 128.30 160.64 127.41 161.06 127.11 161.86 Z M 126.77 162.81 L 126.44 163.75 C 126.14 164.55 126.56 165.43 127.36 165.72 C 128.16 166.02 129.05 165.60 129.34 164.80 L 129.68 163.86 C 129.97 163.06 129.55 162.18 128.75 161.89 C 127.95 161.60 127.06 162.01 126.77 162.81 Z M 126.44 163.77 L 126.10 164.75 C 125.82 165.55 126.24 166.42 127.04 166.70 C 127.84 166.98 128.72 166.56 129.00 165.76 L 129.34 164.78 C 129.61 163.98 129.19 163.10 128.39 162.82 C 127.59 162.55 126.72 162.97 126.44 163.77 Z M 126.10 164.77 L 125.79 165.71 C 125.52 166.51 125.95 167.37 126.75 167.64 C 127.55 167.91 128.41 167.48 128.68 166.68 L 128.99 165.74 C 129.26 164.94 128.83 164.08 128.03 163.81 C 127.23 163.54 126.37 163.97 126.10 164.77 Z M 125.79 165.74 L 125.49 166.68 C 125.24 167.47 125.68 168.32 126.47 168.58 C 127.27 168.83 128.12 168.39 128.37 167.59 L 128.67 166.65 C 128.93 165.86 128.48 165.01 127.69 164.75 C 126.89 164.50 126.04 164.94 125.79 165.74 Z M 125.46 166.84 L 125.27 167.79 C 125.10 168.60 125.62 169.40 126.44 169.56 C 127.25 169.73 128.04 169.20 128.21 168.39 L 128.40 167.44 C 128.57 166.62 128.04 165.83 127.23 165.66 C 126.42 165.50 125.63 166.02 125.46 166.84 Z M 125.25 168.04 L 125.21 169.00 C 125.19 169.82 125.83 170.51 126.66 170.54 C 127.48 170.57 128.17 169.92 128.20 169.10 L 128.23 168.14 C 128.25 167.32 127.61 166.63 126.79 166.60 C 125.96 166.57 125.27 167.22 125.25 168.04 Z M 125.22 169.12 L 125.27 170.15 C 125.31 170.97 126.01 171.60 126.82 171.57 C 127.64 171.53 128.27 170.83 128.24 170.01 L 128.19 168.98 C 128.15 168.16 127.45 167.53 126.63 167.57 C 125.82 167.61 125.18 168.30 125.22 169.12 Z M 125.28 170.18 L 125.29 170.34 C 125.34 171.16 126.04 171.77 126.86 171.72 C 127.67 171.67 128.29 170.97 128.24 170.15 L 128.23 169.99 C 128.18 169.18 127.48 168.56 126.66 168.61 C 125.85 168.66 125.23 169.36 125.28 170.18 Z"
      fill="black"
      fill-rule="nonzero" /><path d="M 138.98 137.44 L 139.96 137.73 C 140.76 137.98 141.61 137.52 141.85 136.72 C 142.09 135.91 141.64 135.07 140.83 134.82 L 139.85 134.53 C 139.05 134.29 138.20 134.74 137.96 135.54 C 137.72 136.35 138.17 137.20 138.98 137.44 Z M 139.94 137.76 L 140.87 138.04 C 141.69 138.29 142.56 137.84 142.81 137.02 C 143.06 136.20 142.60 135.34 141.78 135.09 L 140.85 134.80 C 140.03 134.55 139.17 135.01 138.92 135.82 C 138.67 136.64 139.12 137.51 139.94 137.76 Z M 140.86 138.04 L 141.82 138.35 C 142.64 138.61 143.51 138.16 143.77 137.34 C 144.02 136.53 143.57 135.66 142.76 135.40 L 141.80 135.09 C 140.98 134.83 140.11 135.28 139.85 136.10 C 139.59 136.91 140.05 137.78 140.86 138.04 Z M 141.84 138.32 L 142.77 138.62 C 143.58 138.87 144.43 138.42 144.68 137.62 C 144.93 136.82 144.49 135.97 143.69 135.72 L 142.75 135.42 C 141.95 135.17 141.09 135.61 140.84 136.42 C 140.59 137.22 141.03 138.07 141.84 138.32 Z M 142.80 138.60 L 143.75 138.89 C 144.55 139.13 145.38 138.68 145.62 137.89 C 145.86 137.10 145.41 136.26 144.62 136.02 L 143.66 135.73 C 142.87 135.49 142.04 135.94 141.80 136.73 C 141.56 137.53 142.01 138.36 142.80 138.60 Z M 143.76 138.87 L 144.73 139.16 C 145.51 139.40 146.33 138.96 146.57 138.18 C 146.81 137.40 146.37 136.58 145.59 136.34 L 144.62 136.04 C 143.84 135.81 143.01 136.25 142.78 137.03 C 142.54 137.81 142.98 138.63 143.76 138.87 Z M 144.72 139.14 L 145.67 139.44 C 146.44 139.68 147.26 139.25 147.50 138.49 C 147.74 137.72 147.31 136.90 146.55 136.66 L 145.59 136.36 C 144.83 136.12 144.01 136.55 143.77 137.31 C 143.53 138.08 143.95 138.90 144.72 139.14 Z M 145.67 139.42 L 146.62 139.73 C 147.38 139.97 148.19 139.56 148.43 138.80 C 148.68 138.05 148.26 137.23 147.51 136.99 L 146.55 136.68 C 145.80 136.44 144.99 136.85 144.74 137.61 C 144.50 138.36 144.91 139.18 145.67 139.42 Z M 146.61 139.72 L 147.56 140.03 C 148.31 140.28 149.12 139.87 149.36 139.12 C 149.61 138.37 149.20 137.56 148.45 137.31 L 147.51 137.00 C 146.76 136.75 145.95 137.16 145.70 137.91 C 145.46 138.66 145.86 139.47 146.61 139.72 Z"
      fill="black"
      fill-rule="nonzero" /><path d="M 136.49 151.43 L 137.45 151.49 C 138.29 151.54 139.02 150.90 139.07 150.06 C 139.13 149.21 138.48 148.49 137.64 148.43 L 136.68 148.37 C 135.84 148.32 135.11 148.96 135.06 149.81 C 135.01 150.65 135.65 151.38 136.49 151.43 Z M 137.65 151.53 L 138.64 151.46 C 139.51 151.41 140.16 150.66 140.11 149.79 C 140.05 148.92 139.30 148.27 138.43 148.33 L 137.44 148.39 C 136.57 148.45 135.92 149.20 135.98 150.07 C 136.03 150.93 136.78 151.59 137.65 151.53 Z M 138.85 151.45 L 139.75 151.27 C 140.61 151.10 141.16 150.26 140.99 149.40 C 140.82 148.54 139.98 147.99 139.12 148.16 L 138.22 148.34 C 137.36 148.51 136.81 149.35 136.98 150.21 C 137.15 151.07 137.99 151.62 138.85 151.45 Z M 139.83 151.25 L 140.89 150.97 C 141.73 150.76 142.24 149.90 142.03 149.05 C 141.81 148.21 140.95 147.70 140.10 147.91 L 139.04 148.18 C 138.20 148.40 137.69 149.26 137.90 150.11 C 138.12 150.95 138.98 151.46 139.83 151.25 Z M 140.90 150.96 L 141.88 150.70 C 142.71 150.48 143.21 149.62 142.99 148.78 C 142.77 147.94 141.91 147.44 141.07 147.66 L 140.09 147.92 C 139.25 148.15 138.75 149.01 138.98 149.85 C 139.20 150.69 140.06 151.18 140.90 150.96 Z M 141.87 150.69 L 142.86 150.43 C 143.70 150.21 144.19 149.35 143.97 148.52 C 143.75 147.69 142.90 147.19 142.07 147.41 L 141.07 147.68 C 140.24 147.90 139.75 148.75 139.96 149.58 C 140.18 150.41 141.04 150.91 141.87 150.69 Z M 142.85 150.42 L 143.83 150.16 C 144.66 149.95 145.15 149.11 144.94 148.28 C 144.73 147.45 143.88 146.96 143.06 147.17 L 142.08 147.42 C 141.25 147.64 140.75 148.48 140.97 149.31 C 141.18 150.13 142.03 150.63 142.85 150.42 Z M 143.81 150.15 L 144.85 149.89 C 145.67 149.69 146.17 148.86 145.97 148.04 C 145.77 147.22 144.94 146.72 144.12 146.93 L 143.07 147.18 C 142.26 147.39 141.76 148.22 141.96 149.03 C 142.16 149.85 142.99 150.35 143.81 150.15 Z M 144.82 149.87 L 145.80 149.65 C 146.60 149.46 147.11 148.66 146.92 147.85 C 146.74 147.04 145.94 146.54 145.13 146.72 L 144.15 146.95 C 143.35 147.13 142.84 147.93 143.03 148.74 C 143.21 149.55 144.01 150.05 144.82 149.87 Z M 145.75 149.62 L 146.65 149.44 C 147.45 149.28 147.96 148.51 147.80 147.71 C 147.64 146.92 146.87 146.40 146.08 146.56 L 145.18 146.74 C 144.38 146.90 143.86 147.68 144.02 148.47 C 144.18 149.27 144.96 149.78 145.75 149.62 Z M 146.60 149.43 L 147.61 149.26 C 148.39 149.13 148.92 148.38 148.79 147.60 C 148.66 146.81 147.91 146.28 147.13 146.41 L 146.12 146.58 C 145.34 146.71 144.81 147.45 144.94 148.24 C 145.07 149.03 145.82 149.56 146.60 149.43 Z M 147.58 149.25 L 148.33 149.14 C 149.12 149.02 149.66 148.30 149.54 147.51 C 149.42 146.73 148.70 146.19 147.91 146.31 L 147.16 146.42 C 146.37 146.53 145.83 147.26 145.95 148.05 C 146.06 148.83 146.79 149.37 147.58 149.25 Z"
      fill="black"
      fill-rule="nonzero" /><path d="M 132.77 158.84 L 132.11 159.73 C 131.61 160.42 131.76 161.38 132.44 161.88 C 133.12 162.39 134.09 162.24 134.59 161.56 L 135.25 160.66 C 135.75 159.98 135.60 159.02 134.92 158.51 C 134.24 158.01 133.27 158.16 132.77 158.84 Z M 132.65 162.06 L 133.12 162.29 C 133.90 162.67 134.84 162.35 135.23 161.57 C 135.62 160.79 135.29 159.85 134.51 159.46 L 134.05 159.23 C 133.27 158.85 132.32 159.17 131.94 159.95 C 131.55 160.73 131.87 161.67 132.65 162.06 Z M 134.21 162.41 L 135.29 162.13 C 136.14 161.91 136.65 161.05 136.43 160.20 C 136.21 159.35 135.35 158.84 134.50 159.06 L 133.42 159.34 C 132.57 159.56 132.06 160.42 132.28 161.27 C 132.50 162.12 133.36 162.63 134.21 162.41 Z M 135.41 162.09 L 136.35 161.77 C 137.18 161.49 137.62 160.59 137.33 159.76 C 137.05 158.93 136.15 158.49 135.32 158.78 L 134.38 159.10 C 133.55 159.38 133.11 160.28 133.40 161.11 C 133.68 161.94 134.58 162.38 135.41 162.09 Z M 136.37 161.76 L 137.32 161.42 C 138.14 161.12 138.56 160.21 138.26 159.39 C 137.96 158.57 137.05 158.15 136.23 158.45 L 135.29 158.79 C 134.47 159.09 134.05 160.00 134.35 160.82 C 134.65 161.64 135.55 162.06 136.37 161.76 Z M 137.32 161.41 L 138.18 161.09 C 138.99 160.79 139.41 159.88 139.11 159.07 C 138.80 158.25 137.90 157.83 137.08 158.14 L 136.23 158.46 C 135.41 158.76 134.99 159.66 135.30 160.48 C 135.60 161.30 136.51 161.71 137.32 161.41 Z M 138.19 161.08 L 139.18 160.70 C 139.98 160.39 140.39 159.48 140.08 158.67 C 139.77 157.86 138.86 157.46 138.05 157.77 L 137.07 158.15 C 136.26 158.46 135.86 159.37 136.17 160.18 C 136.48 160.99 137.39 161.39 138.19 161.08 Z M 139.19 160.69 L 140.18 160.29 C 140.98 159.97 141.37 159.06 141.05 158.26 C 140.73 157.46 139.82 157.07 139.02 157.39 L 138.03 157.79 C 137.23 158.11 136.84 159.02 137.16 159.82 C 137.48 160.62 138.39 161.01 139.19 160.69 Z M 140.20 160.27 L 141.13 159.89 C 141.92 159.56 142.30 158.65 141.97 157.86 C 141.64 157.07 140.74 156.69 139.94 157.02 L 139.01 157.40 C 138.22 157.73 137.84 158.64 138.17 159.43 C 138.50 160.22 139.40 160.60 140.20 160.27 Z M 141.14 159.88 L 142.09 159.48 C 142.88 159.14 143.24 158.24 142.91 157.45 C 142.58 156.67 141.68 156.30 140.89 156.63 L 139.94 157.03 C 139.15 157.36 138.78 158.27 139.11 159.05 C 139.44 159.84 140.35 160.21 141.14 159.88 Z M 142.10 159.46 L 143.01 159.07 C 143.79 158.73 144.15 157.83 143.82 157.05 C 143.49 156.27 142.58 155.91 141.80 156.25 L 140.89 156.64 C 140.11 156.98 139.75 157.88 140.08 158.66 C 140.41 159.44 141.32 159.80 142.10 159.46 Z M 143.02 159.05 L 144.02 158.62 C 144.79 158.28 145.14 157.38 144.80 156.61 C 144.47 155.84 143.57 155.49 142.80 155.83 L 141.80 156.26 C 141.03 156.60 140.68 157.50 141.02 158.27 C 141.35 159.04 142.25 159.39 143.02 159.05 Z M 144.02 158.59 L 144.96 158.17 C 145.72 157.83 146.05 156.94 145.71 156.19 C 145.38 155.43 144.49 155.09 143.73 155.43 L 142.79 155.85 C 142.04 156.19 141.70 157.08 142.04 157.84 C 142.38 158.59 143.27 158.93 144.02 158.59 Z M 144.96 158.15 L 145.78 157.77 C 146.52 157.43 146.85 156.56 146.51 155.81 C 146.17 155.07 145.29 154.74 144.55 155.08 L 143.73 155.46 C 142.98 155.80 142.66 156.67 143.00 157.42 C 143.34 158.16 144.22 158.49 144.96 158.15 Z M 145.78 157.75 L 146.69 157.33 C 147.42 156.99 147.74 156.12 147.40 155.39 C 147.07 154.66 146.20 154.34 145.46 154.68 L 144.55 155.10 C 143.82 155.44 143.50 156.31 143.84 157.04 C 144.18 157.77 145.04 158.09 145.78 157.75 Z M 146.70 157.31 L 147.59 156.89 C 148.31 156.55 148.62 155.68 148.27 154.96 C 147.93 154.24 147.07 153.93 146.35 154.27 L 145.46 154.70 C 144.73 155.04 144.43 155.90 144.77 156.63 C 145.11 157.35 145.98 157.66 146.70 157.31 Z M 147.61 156.86 L 148.49 156.42 C 149.20 156.06 149.49 155.20 149.13 154.49 C 148.77 153.78 147.91 153.50 147.20 153.86 L 146.32 154.30 C 145.61 154.66 145.33 155.52 145.68 156.23 C 146.04 156.94 146.91 157.22 147.61 156.86 Z M 148.52 156.40 L 149.40 155.93 C 150.09 155.56 150.36 154.69 149.98 153.99 C 149.61 153.30 148.75 153.04 148.05 153.41 L 147.17 153.88 C 146.48 154.25 146.21 155.12 146.59 155.81 C 146.96 156.51 147.82 156.77 148.52 156.40 Z M 149.41 155.92 L 149.79 155.71 C 150.49 155.33 150.74 154.47 150.36 153.77 C 149.99 153.08 149.12 152.83 148.43 153.20 L 148.04 153.42 C 147.35 153.79 147.09 154.66 147.47 155.35 C 147.85 156.04 148.72 156.30 149.41 155.92 Z"
      fill="black"
      fill-rule="nonzero" /><path d="M 141.41 150.62 L 141.45 151.63 C 141.48 152.50 142.21 153.17 143.07 153.14 C 143.94 153.11 144.62 152.38 144.59 151.52 L 144.55 150.51 C 144.52 149.64 143.79 148.97 142.92 149.00 C 142.06 149.03 141.38 149.76 141.41 150.62 Z M 141.43 151.67 L 141.49 152.66 C 141.55 153.54 142.30 154.20 143.18 154.15 C 144.06 154.09 144.72 153.34 144.67 152.46 L 144.60 151.47 C 144.55 150.60 143.79 149.93 142.92 149.99 C 142.04 150.04 141.38 150.80 141.43 151.67 Z M 141.49 152.73 L 141.58 153.61 C 141.68 154.49 142.46 155.12 143.34 155.03 C 144.22 154.94 144.85 154.15 144.76 153.27 L 144.67 152.39 C 144.58 151.51 143.79 150.88 142.91 150.97 C 142.03 151.06 141.40 151.85 141.49 152.73 Z M 141.59 153.63 L 141.72 154.69 C 141.82 155.57 142.62 156.19 143.49 156.09 C 144.37 155.98 144.99 155.19 144.88 154.31 L 144.76 153.25 C 144.65 152.38 143.86 151.75 142.98 151.86 C 142.11 151.96 141.48 152.76 141.59 153.63 Z M 141.72 154.68 L 141.83 155.65 C 141.93 156.52 142.72 157.15 143.59 157.05 C 144.46 156.96 145.09 156.17 144.99 155.29 L 144.88 154.32 C 144.78 153.45 144.00 152.82 143.12 152.92 C 142.25 153.02 141.62 153.81 141.72 154.68 Z M 141.83 155.64 L 141.94 156.64 C 142.03 157.51 142.80 158.14 143.68 158.05 C 144.55 157.96 145.18 157.18 145.09 156.31 L 144.99 155.31 C 144.90 154.44 144.12 153.81 143.25 153.90 C 142.38 153.99 141.74 154.76 141.83 155.64 Z M 141.94 156.62 L 142.04 157.66 C 142.12 158.53 142.89 159.17 143.76 159.09 C 144.62 159.01 145.26 158.24 145.18 157.37 L 145.09 156.33 C 145.01 155.46 144.24 154.82 143.37 154.90 C 142.50 154.98 141.86 155.75 141.94 156.62 Z M 142.04 157.64 L 142.13 158.69 C 142.19 159.56 142.95 160.20 143.81 160.13 C 144.68 160.07 145.32 159.31 145.26 158.45 L 145.18 157.40 C 145.11 156.53 144.35 155.89 143.49 155.95 C 142.62 156.02 141.98 156.78 142.04 157.64 Z M 142.14 158.66 L 142.20 159.69 C 142.25 160.55 142.99 161.20 143.85 161.15 C 144.70 161.10 145.35 160.37 145.30 159.51 L 145.24 158.48 C 145.19 157.62 144.46 156.97 143.60 157.02 C 142.74 157.07 142.09 157.81 142.14 158.66 Z M 142.22 159.67 L 142.26 160.64 C 142.30 161.48 143.01 162.14 143.86 162.10 C 144.70 162.07 145.36 161.36 145.32 160.51 L 145.28 159.54 C 145.25 158.70 144.54 158.04 143.69 158.07 C 142.85 158.11 142.19 158.82 142.22 159.67 Z M 142.28 160.61 L 142.31 161.58 C 142.33 162.42 143.02 163.08 143.85 163.05 C 144.69 163.03 145.35 162.34 145.33 161.51 L 145.30 160.54 C 145.28 159.70 144.59 159.04 143.76 159.06 C 142.92 159.08 142.26 159.78 142.28 160.61 Z M 142.32 161.56 L 142.34 162.59 C 142.35 163.41 143.02 164.07 143.85 164.06 C 144.67 164.05 145.33 163.38 145.32 162.55 L 145.31 161.53 C 145.30 160.70 144.62 160.04 143.80 160.05 C 142.98 160.06 142.32 160.74 142.32 161.56 Z M 142.35 162.58 L 142.36 163.56 C 142.36 164.37 143.02 165.03 143.84 165.03 C 144.65 165.03 145.31 164.36 145.31 163.55 L 145.30 162.57 C 145.30 161.75 144.64 161.09 143.82 161.10 C 143.01 161.10 142.35 161.76 142.35 162.58 Z M 142.37 163.55 L 142.37 164.58 C 142.37 165.38 143.02 166.04 143.83 166.04 C 144.64 166.04 145.29 165.38 145.29 164.58 L 145.29 163.55 C 145.29 162.75 144.64 162.09 143.83 162.09 C 143.02 162.09 142.37 162.75 142.37 163.55 Z M 142.38 164.58 L 142.38 165.58 C 142.38 166.38 143.03 167.03 143.83 167.03 C 144.63 167.03 145.28 166.38 145.28 165.58 L 145.28 164.58 C 145.28 163.78 144.63 163.13 143.83 163.13 C 143.03 163.13 142.38 163.78 142.38 164.58 Z M 142.39 165.58 L 142.39 166.55 C 142.39 167.34 143.04 167.99 143.83 167.99 C 144.63 167.99 145.27 167.34 145.27 166.55 L 145.27 165.58 C 145.27 164.79 144.63 164.15 143.83 164.15 C 143.04 164.15 142.39 164.79 142.39 165.58 Z M 142.40 166.55 L 142.40 167.55 C 142.40 168.34 143.04 168.99 143.83 168.99 C 144.62 168.99 145.26 168.34 145.26 167.55 L 145.26 166.55 C 145.26 165.76 144.62 165.12 143.83 165.12 C 143.04 165.12 142.40 165.76 142.40 166.55 Z M 142.40 167.55 L 142.40 168.12 C 142.40 168.91 143.04 169.55 143.83 169.55 C 144.62 169.55 145.26 168.91 145.26 168.12 L 145.26 167.55 C 145.26 166.77 144.62 166.13 143.83 166.13 C 143.04 166.13 142.40 166.77 142.40 167.55 Z"
      fill="black"
      fill-rule="nonzero" /><path d="M 135.32 164.55 L 136.26 164.52 C 137.10 164.48 137.75 163.78 137.71 162.94 C 137.68 162.11 136.97 161.46 136.14 161.50 L 135.20 161.54 C 134.36 161.57 133.72 162.27 133.75 163.11 C 133.79 163.94 134.49 164.59 135.32 164.55 Z M 136.24 164.55 L 137.28 164.52 C 138.13 164.50 138.80 163.80 138.78 162.95 C 138.76 162.10 138.06 161.42 137.21 161.44 L 136.16 161.47 C 135.31 161.49 134.64 162.19 134.66 163.04 C 134.68 163.89 135.39 164.57 136.24 164.55 Z M 137.25 164.51 L 138.26 164.50 C 139.10 164.49 139.78 163.81 139.77 162.96 C 139.77 162.12 139.08 161.44 138.24 161.45 L 137.23 161.46 C 136.39 161.46 135.71 162.15 135.72 162.99 C 135.72 163.83 136.41 164.51 137.25 164.51 Z M 138.25 164.45 L 139.26 164.45 C 140.08 164.45 140.74 163.79 140.74 162.97 C 140.74 162.16 140.08 161.50 139.26 161.50 L 138.25 161.50 C 137.43 161.50 136.77 162.16 136.77 162.98 C 136.77 163.79 137.43 164.45 138.25 164.45 Z M 139.26 164.42 L 140.30 164.42 C 141.10 164.42 141.75 163.77 141.75 162.97 C 141.75 162.18 141.10 161.53 140.30 161.53 L 139.26 161.53 C 138.46 161.53 137.82 162.18 137.82 162.97 C 137.82 163.77 138.46 164.42 139.26 164.42 Z M 140.30 164.41 L 141.19 164.41 C 141.98 164.41 142.62 163.76 142.62 162.97 C 142.62 162.18 141.98 161.54 141.19 161.54 L 140.30 161.54 C 139.51 161.54 138.87 162.18 138.87 162.97 C 138.87 163.76 139.51 164.41 140.30 164.41 Z"
      fill="black"
      fill-rule="nonzero" /><path d="M 151.08 157.20 L 150.26 157.72 C 149.51 158.19 149.29 159.19 149.76 159.94 C 150.24 160.69 151.23 160.91 151.98 160.44 L 152.80 159.92 C 153.55 159.45 153.78 158.45 153.30 157.70 C 152.82 156.95 151.83 156.73 151.08 157.20 Z M 150.15 157.80 L 149.34 158.41 C 148.63 158.95 148.49 159.96 149.03 160.67 C 149.57 161.37 150.58 161.51 151.28 160.97 L 152.10 160.36 C 152.80 159.82 152.94 158.81 152.40 158.11 C 151.87 157.40 150.86 157.26 150.15 157.80 Z M 149.23 158.51 L 148.49 159.19 C 147.84 159.79 147.79 160.80 148.39 161.45 C 148.99 162.10 150.00 162.15 150.65 161.55 L 151.39 160.88 C 152.04 160.28 152.09 159.27 151.49 158.61 C 150.90 157.96 149.88 157.92 149.23 158.51 Z M 148.44 159.25 L 147.73 159.97 C 147.11 160.59 147.12 161.60 147.74 162.22 C 148.37 162.84 149.37 162.83 149.99 162.21 L 150.70 161.49 C 151.32 160.86 151.31 159.86 150.69 159.24 C 150.06 158.62 149.06 158.63 148.44 159.25 Z M 147.71 160.02 L 147.04 160.73 C 146.45 161.37 146.49 162.37 147.12 162.96 C 147.76 163.55 148.76 163.52 149.35 162.88 L 150.02 162.16 C 150.61 161.52 150.57 160.52 149.93 159.93 C 149.29 159.34 148.30 159.38 147.71 160.02 Z M 147.03 160.77 L 146.37 161.50 C 145.80 162.15 145.86 163.14 146.50 163.71 C 147.15 164.28 148.14 164.23 148.71 163.58 L 149.36 162.84 C 149.94 162.20 149.88 161.21 149.23 160.64 C 148.59 160.06 147.60 160.12 147.03 160.77 Z M 146.37 161.52 L 145.78 162.19 C 145.22 162.84 145.28 163.82 145.93 164.38 C 146.58 164.95 147.56 164.88 148.12 164.24 L 148.71 163.57 C 149.28 162.92 149.21 161.94 148.57 161.37 C 147.92 160.81 146.94 160.87 146.37 161.52 Z M 145.79 162.19 L 145.10 162.98 C 144.53 163.63 144.60 164.61 145.24 165.17 C 145.89 165.73 146.87 165.67 147.43 165.02 L 148.12 164.24 C 148.68 163.59 148.62 162.61 147.97 162.05 C 147.33 161.48 146.35 161.55 145.79 162.19 Z M 145.10 162.98 L 144.43 163.75 C 143.86 164.39 143.92 165.36 144.56 165.93 C 145.21 166.49 146.18 166.43 146.75 165.79 L 147.42 165.03 C 147.99 164.39 147.93 163.41 147.29 162.84 C 146.65 162.28 145.67 162.34 145.10 162.98 Z M 144.43 163.74 L 143.82 164.43 C 143.25 165.07 143.31 166.05 143.95 166.61 C 144.59 167.18 145.56 167.12 146.13 166.48 L 146.74 165.79 C 147.31 165.16 147.25 164.18 146.61 163.61 C 145.98 163.05 145.00 163.10 144.43 163.74 Z M 143.82 164.43 L 143.15 165.18 C 142.59 165.82 142.64 166.79 143.28 167.36 C 143.91 167.93 144.89 167.87 145.46 167.24 L 146.13 166.49 C 146.70 165.85 146.64 164.87 146.00 164.31 C 145.37 163.74 144.39 163.79 143.82 164.43 Z M 143.16 165.18 L 142.44 165.98 C 141.87 166.61 141.92 167.59 142.56 168.16 C 143.19 168.73 144.17 168.67 144.74 168.04 L 145.45 167.24 C 146.02 166.60 145.97 165.63 145.34 165.06 C 144.70 164.49 143.73 164.54 143.16 165.18 Z M 142.44 165.98 L 141.71 166.79 C 141.14 167.42 141.19 168.40 141.82 168.97 C 142.45 169.54 143.43 169.49 144.00 168.86 L 144.73 168.04 C 145.30 167.41 145.25 166.43 144.62 165.86 C 143.99 165.29 143.01 165.34 142.44 165.98 Z M 141.71 166.79 L 140.98 167.58 C 140.41 168.22 140.46 169.19 141.09 169.77 C 141.73 170.34 142.70 170.29 143.28 169.66 L 144.00 168.86 C 144.57 168.23 144.52 167.25 143.89 166.68 C 143.26 166.10 142.28 166.15 141.71 166.79 Z M 140.98 167.58 L 140.27 168.36 C 139.70 168.99 139.75 169.97 140.38 170.55 C 141.02 171.13 142.00 171.08 142.58 170.44 L 143.28 169.66 C 143.86 169.03 143.81 168.05 143.17 167.47 C 142.54 166.89 141.56 166.94 140.98 167.58 Z M 140.27 168.36 L 139.61 169.08 C 139.03 169.72 139.08 170.71 139.72 171.28 C 140.36 171.86 141.34 171.81 141.92 171.17 L 142.58 170.45 C 143.16 169.81 143.11 168.82 142.47 168.25 C 141.83 167.67 140.85 167.72 140.27 168.36 Z M 139.60 169.08 L 139.02 169.73 C 138.45 170.37 138.50 171.36 139.14 171.94 C 139.78 172.51 140.77 172.46 141.35 171.82 L 141.93 171.18 C 142.50 170.53 142.45 169.54 141.81 168.97 C 141.17 168.39 140.18 168.44 139.60 169.08 Z M 138.99 169.76 L 138.10 170.80 C 137.54 171.46 137.62 172.45 138.29 173.02 C 138.95 173.58 139.94 173.49 140.50 172.83 L 141.38 171.79 C 141.94 171.13 141.86 170.14 141.20 169.58 C 140.54 169.01 139.55 169.10 138.99 169.76 Z M 137.79 171.35 L 137.63 171.87 C 137.37 172.70 137.84 173.59 138.68 173.84 C 139.51 174.10 140.40 173.63 140.65 172.80 L 140.81 172.28 C 141.07 171.45 140.60 170.56 139.77 170.31 C 138.93 170.05 138.05 170.52 137.79 171.35 Z M 139.00 173.92 L 139.65 173.97 C 140.52 174.05 141.29 173.41 141.37 172.53 C 141.45 171.66 140.80 170.89 139.93 170.81 L 139.28 170.75 C 138.41 170.67 137.64 171.32 137.56 172.19 C 137.48 173.07 138.13 173.84 139.00 173.92 Z M 140.14 173.95 L 141.44 173.65 C 142.30 173.46 142.84 172.61 142.64 171.75 C 142.45 170.89 141.60 170.35 140.74 170.54 L 139.44 170.83 C 138.58 171.03 138.04 171.88 138.23 172.74 C 138.42 173.60 139.28 174.14 140.14 173.95 Z M 141.54 173.63 L 142.41 173.37 C 143.26 173.12 143.74 172.23 143.49 171.38 C 143.23 170.54 142.35 170.06 141.50 170.31 L 140.63 170.57 C 139.79 170.82 139.31 171.71 139.56 172.55 C 139.81 173.40 140.70 173.88 141.54 173.63 Z M 142.45 173.35 L 143.40 173.05 C 144.24 172.77 144.69 171.87 144.42 171.04 C 144.15 170.20 143.25 169.74 142.41 170.01 L 141.46 170.32 C 140.63 170.60 140.17 171.49 140.44 172.33 C 140.71 173.17 141.61 173.63 142.45 173.35 Z M 143.43 173.03 L 144.42 172.69 C 145.25 172.41 145.69 171.50 145.40 170.67 C 145.12 169.84 144.21 169.40 143.38 169.68 L 142.39 170.03 C 141.56 170.31 141.12 171.22 141.40 172.05 C 141.69 172.88 142.59 173.32 143.43 173.03 Z M 144.44 172.68 L 145.43 172.33 C 146.25 172.03 146.68 171.12 146.38 170.29 C 146.09 169.47 145.18 169.04 144.35 169.34 L 143.36 169.69 C 142.54 169.99 142.11 170.90 142.40 171.73 C 142.70 172.55 143.61 172.98 144.44 172.68 Z M 145.44 172.31 L 146.43 171.94 C 147.25 171.63 147.67 170.72 147.36 169.91 C 147.05 169.09 146.14 168.67 145.33 168.98 L 144.33 169.35 C 143.52 169.66 143.10 170.57 143.41 171.39 C 143.72 172.20 144.63 172.62 145.44 172.31 Z M 146.45 171.92 L 147.39 171.56 C 148.20 171.24 148.60 170.33 148.29 169.53 C 147.97 168.72 147.07 168.32 146.26 168.63 L 145.31 169.00 C 144.51 169.31 144.11 170.22 144.42 171.03 C 144.73 171.83 145.64 172.24 146.45 171.92 Z M 147.40 171.54 L 148.30 171.18 C 149.10 170.86 149.49 169.96 149.17 169.16 C 148.85 168.36 147.95 167.97 147.15 168.29 L 146.25 168.65 C 145.45 168.97 145.06 169.87 145.38 170.67 C 145.70 171.47 146.60 171.86 147.40 171.54 Z M 148.31 171.16 L 149.21 170.79 C 150.00 170.47 150.38 169.57 150.05 168.78 C 149.73 168.00 148.83 167.62 148.04 167.94 L 147.14 168.31 C 146.36 168.63 145.98 169.53 146.30 170.32 C 146.62 171.11 147.52 171.48 148.31 171.16 Z M 149.21 170.77 L 150.17 170.37 C 150.95 170.05 151.32 169.16 150.99 168.38 C 150.67 167.60 149.78 167.24 149.00 167.56 L 148.04 167.96 C 147.26 168.28 146.90 169.18 147.22 169.95 C 147.54 170.73 148.44 171.10 149.21 170.77 Z M 150.18 170.35 L 151.09 169.96 C 151.85 169.63 152.21 168.75 151.88 167.98 C 151.55 167.22 150.67 166.87 149.91 167.19 L 149.00 167.58 C 148.23 167.91 147.88 168.79 148.21 169.56 C 148.53 170.32 149.42 170.67 150.18 170.35 Z M 151.10 169.93 L 151.97 169.55 C 152.72 169.22 153.06 168.34 152.72 167.59 C 152.39 166.85 151.52 166.51 150.77 166.84 L 149.90 167.22 C 149.15 167.55 148.81 168.43 149.14 169.17 C 149.47 169.92 150.35 170.26 151.10 169.93 Z M 151.98 169.53 L 152.91 169.10 C 153.65 168.76 153.97 167.89 153.64 167.16 C 153.30 166.42 152.43 166.10 151.69 166.43 L 150.76 166.86 C 150.02 167.20 149.70 168.06 150.04 168.80 C 150.37 169.54 151.24 169.86 151.98 169.53 Z M 152.92 169.08 L 153.82 168.66 C 154.54 168.32 154.85 167.46 154.51 166.73 C 154.17 166.00 153.31 165.69 152.58 166.03 L 151.69 166.45 C 150.96 166.79 150.65 167.66 150.99 168.38 C 151.33 169.11 152.19 169.42 152.92 169.08 Z M 153.82 168.65 L 154.53 168.31 C 155.25 167.97 155.56 167.11 155.22 166.39 C 154.88 165.67 154.02 165.37 153.30 165.71 L 152.58 166.05 C 151.87 166.39 151.56 167.24 151.90 167.96 C 152.24 168.68 153.10 168.99 153.82 168.65 Z"
      fill="black"
      fill-rule="nonzero" /><path d="M 154.02 136.42 L 154.93 136.63 C 155.80 136.83 156.66 136.29 156.86 135.42 C 157.06 134.55 156.52 133.69 155.65 133.49 L 154.74 133.28 C 153.87 133.07 153.01 133.62 152.81 134.49 C 152.61 135.36 153.15 136.22 154.02 136.42 Z M 155.04 136.66 L 156.07 136.82 C 156.95 136.96 157.78 136.36 157.92 135.48 C 158.06 134.59 157.46 133.76 156.57 133.62 L 155.54 133.46 C 154.66 133.32 153.83 133.92 153.69 134.81 C 153.55 135.69 154.15 136.52 155.04 136.66 Z M 156.20 136.84 L 157.18 136.91 C 158.08 136.98 158.86 136.30 158.92 135.41 C 158.98 134.51 158.31 133.73 157.41 133.67 L 156.43 133.60 C 155.54 133.54 154.76 134.21 154.70 135.11 C 154.63 136.00 155.31 136.78 156.20 136.84 Z M 157.26 136.92 L 158.28 136.94 C 159.18 136.96 159.92 136.25 159.94 135.35 C 159.96 134.45 159.25 133.71 158.35 133.69 L 157.33 133.67 C 156.44 133.64 155.69 134.36 155.67 135.25 C 155.65 136.15 156.36 136.90 157.26 136.92 Z M 158.31 136.94 L 159.34 136.94 C 160.23 136.94 160.96 136.22 160.97 135.32 C 160.97 134.42 160.24 133.69 159.35 133.69 L 158.32 133.69 C 157.42 133.69 156.69 134.41 156.69 135.31 C 156.69 136.21 157.41 136.94 158.31 136.94 Z M 159.34 136.94 L 160.38 136.94 C 161.27 136.93 162.00 136.21 161.99 135.32 C 161.99 134.42 161.27 133.70 160.37 133.70 L 159.34 133.70 C 158.45 133.70 157.72 134.42 157.72 135.32 C 157.72 136.21 158.45 136.94 159.34 136.94 Z M 160.38 136.93 L 161.37 136.92 C 162.25 136.92 162.97 136.19 162.97 135.30 C 162.96 134.41 162.24 133.70 161.35 133.70 L 160.37 133.71 C 159.48 133.71 158.76 134.44 158.77 135.32 C 158.77 136.21 159.50 136.93 160.38 136.93 Z M 161.38 136.91 L 162.36 136.89 C 163.25 136.88 163.95 136.16 163.94 135.27 C 163.93 134.39 163.20 133.69 162.32 133.70 L 161.33 133.71 C 160.45 133.73 159.75 134.45 159.76 135.33 C 159.77 136.22 160.50 136.92 161.38 136.91 Z M 162.39 136.88 L 163.40 136.85 C 164.27 136.82 164.96 136.09 164.93 135.22 C 164.90 134.34 164.17 133.65 163.30 133.68 L 162.29 133.71 C 161.42 133.74 160.73 134.47 160.76 135.35 C 160.78 136.22 161.52 136.91 162.39 136.88 Z M 163.44 136.84 L 164.43 136.78 C 165.30 136.72 165.96 135.98 165.91 135.11 C 165.85 134.24 165.11 133.58 164.24 133.64 L 163.25 133.70 C 162.38 133.75 161.72 134.49 161.78 135.36 C 161.83 136.23 162.57 136.89 163.44 136.84 Z M 164.49 136.76 L 165.47 136.66 C 166.32 136.57 166.95 135.81 166.86 134.96 C 166.78 134.10 166.02 133.48 165.16 133.56 L 164.18 133.66 C 163.33 133.74 162.70 134.50 162.79 135.36 C 162.87 136.21 163.63 136.84 164.49 136.76 Z M 165.50 136.63 L 166.49 136.51 C 167.34 136.41 167.94 135.64 167.83 134.80 C 167.73 133.96 166.96 133.36 166.12 133.46 L 165.13 133.59 C 164.29 133.69 163.69 134.46 163.79 135.30 C 163.90 136.14 164.66 136.74 165.50 136.63 Z M 166.50 136.49 L 167.49 136.37 C 168.32 136.26 168.91 135.50 168.80 134.67 C 168.70 133.84 167.94 133.25 167.11 133.36 L 166.12 133.48 C 165.29 133.59 164.70 134.35 164.80 135.18 C 164.91 136.01 165.67 136.60 166.50 136.49 Z M 167.48 136.35 L 168.46 136.23 C 169.28 136.13 169.87 135.39 169.77 134.57 C 169.67 133.75 168.93 133.16 168.10 133.26 L 167.12 133.38 C 166.30 133.48 165.71 134.22 165.81 135.04 C 165.91 135.86 166.66 136.45 167.48 136.35 Z M 168.46 136.21 L 169.47 136.09 C 170.28 136.00 170.86 135.26 170.76 134.45 C 170.67 133.64 169.93 133.06 169.12 133.16 L 168.11 133.28 C 167.30 133.37 166.72 134.11 166.82 134.92 C 166.91 135.73 167.65 136.31 168.46 136.21 Z M 169.47 136.08 L 169.71 136.05 C 170.52 135.96 171.09 135.23 171.00 134.43 C 170.91 133.62 170.18 133.05 169.37 133.14 L 169.13 133.17 C 168.32 133.26 167.75 133.99 167.84 134.80 C 167.93 135.60 168.66 136.17 169.47 136.08 Z"
      fill="black"
      fill-rule="nonzero" /><path d="M 157.58 135.81 L 156.57 136.16 C 155.79 136.43 155.38 137.29 155.65 138.06 C 155.92 138.84 156.77 139.26 157.55 138.99 L 158.56 138.64 C 159.34 138.37 159.75 137.52 159.48 136.74 C 159.21 135.96 158.36 135.54 157.58 135.81 Z M 155.94 136.49 L 155.33 137.12 C 154.73 137.74 154.75 138.73 155.37 139.32 C 155.99 139.92 156.98 139.91 157.57 139.29 L 158.18 138.66 C 158.78 138.04 158.76 137.05 158.14 136.45 C 157.52 135.86 156.54 135.87 155.94 136.49 Z M 154.85 138.19 L 154.84 139.04 C 154.84 139.93 155.54 140.65 156.43 140.66 C 157.31 140.67 158.03 139.96 158.04 139.08 L 158.05 138.22 C 158.06 137.34 157.35 136.61 156.47 136.60 C 155.59 136.59 154.86 137.30 154.85 138.19 Z M 154.88 139.45 L 155.14 140.50 C 155.35 141.36 156.23 141.89 157.09 141.68 C 157.96 141.46 158.48 140.59 158.27 139.72 L 158.01 138.67 C 157.80 137.81 156.92 137.28 156.06 137.49 C 155.19 137.71 154.66 138.58 154.88 139.45 Z M 155.14 140.53 L 155.42 141.60 C 155.66 142.47 156.55 142.98 157.42 142.75 C 158.28 142.51 158.79 141.62 158.56 140.76 L 158.27 139.69 C 158.04 138.82 157.15 138.31 156.28 138.54 C 155.41 138.78 154.90 139.67 155.14 140.53 Z M 155.40 141.54 L 155.63 142.53 C 155.83 143.41 156.70 143.96 157.58 143.76 C 158.45 143.56 159.00 142.69 158.81 141.81 L 158.58 140.82 C 158.38 139.94 157.51 139.39 156.63 139.59 C 155.76 139.79 155.21 140.66 155.40 141.54 Z M 155.61 142.48 L 155.79 143.41 C 155.96 144.30 156.81 144.88 157.70 144.71 C 158.58 144.54 159.16 143.69 159.00 142.80 L 158.82 141.87 C 158.65 140.98 157.80 140.40 156.91 140.57 C 156.03 140.74 155.45 141.59 155.61 142.48 Z M 155.78 143.35 L 155.93 144.35 C 156.07 145.24 156.90 145.85 157.79 145.71 C 158.68 145.58 159.29 144.75 159.16 143.86 L 159.01 142.86 C 158.87 141.97 158.04 141.36 157.15 141.49 C 156.26 141.63 155.64 142.46 155.78 143.35 Z M 155.93 144.30 L 156.04 145.24 C 156.15 146.14 156.97 146.77 157.86 146.66 C 158.76 146.55 159.39 145.73 159.28 144.84 L 159.16 143.90 C 159.05 143.00 158.24 142.37 157.34 142.48 C 156.45 142.59 155.81 143.41 155.93 144.30 Z M 156.04 145.23 L 156.16 146.23 C 156.26 147.13 157.07 147.77 157.97 147.66 C 158.86 147.56 159.50 146.75 159.40 145.85 L 159.28 144.85 C 159.18 143.96 158.37 143.32 157.47 143.42 C 156.58 143.52 155.94 144.34 156.04 145.23 Z M 156.16 146.22 L 156.26 147.20 C 156.36 148.10 157.17 148.75 158.07 148.65 C 158.96 148.55 159.61 147.74 159.51 146.84 L 159.40 145.86 C 159.30 144.97 158.50 144.32 157.60 144.42 C 156.70 144.52 156.06 145.33 156.16 146.22 Z M 156.26 147.18 L 156.36 148.19 C 156.45 149.09 157.24 149.75 158.14 149.66 C 159.04 149.57 159.69 148.78 159.61 147.88 L 159.51 146.87 C 159.42 145.97 158.63 145.31 157.73 145.40 C 156.83 145.49 156.18 146.28 156.26 147.18 Z M 156.36 148.16 L 156.43 149.13 C 156.50 150.03 157.28 150.70 158.18 150.64 C 159.08 150.57 159.75 149.79 159.68 148.89 L 159.61 147.91 C 159.54 147.01 158.76 146.34 157.86 146.41 C 156.96 146.48 156.29 147.26 156.36 148.16 Z M 156.43 149.12 L 156.50 150.14 C 156.56 151.03 157.34 151.71 158.24 151.65 C 159.14 151.59 159.81 150.81 159.75 149.91 L 159.68 148.90 C 159.62 148.00 158.84 147.32 157.95 147.39 C 157.05 147.45 156.37 148.22 156.43 149.12 Z M 156.51 150.15 L 156.58 151.13 C 156.65 152.03 157.43 152.70 158.33 152.63 C 159.22 152.56 159.89 151.78 159.82 150.89 L 159.75 149.90 C 159.68 149.01 158.90 148.33 158.00 148.40 C 157.11 148.47 156.44 149.25 156.51 150.15 Z M 156.58 151.14 L 156.66 152.14 C 156.74 153.04 157.52 153.70 158.42 153.63 C 159.31 153.56 159.98 152.77 159.90 151.88 L 159.82 150.88 C 159.75 149.98 158.96 149.32 158.07 149.39 C 157.17 149.46 156.51 150.25 156.58 151.14 Z M 156.67 152.14 L 156.75 153.16 C 156.82 154.05 157.61 154.72 158.50 154.64 C 159.40 154.57 160.06 153.79 159.99 152.89 L 159.90 151.88 C 159.83 150.98 159.05 150.32 158.15 150.39 C 157.26 150.46 156.59 151.25 156.67 152.14 Z M 156.75 153.15 L 156.83 154.16 C 156.90 155.05 157.68 155.72 158.57 155.65 C 159.47 155.58 160.13 154.80 160.06 153.90 L 159.99 152.90 C 159.92 152.00 159.14 151.34 158.24 151.41 C 157.35 151.48 156.68 152.26 156.75 153.15 Z M 156.83 154.15 L 156.90 155.14 C 156.97 156.03 157.74 156.70 158.63 156.64 C 159.53 156.58 160.20 155.80 160.13 154.91 L 160.06 153.91 C 160.00 153.02 159.22 152.35 158.33 152.41 C 157.44 152.48 156.77 153.25 156.83 154.15 Z M 156.90 155.13 L 156.97 156.14 C 157.02 157.04 157.79 157.71 158.69 157.66 C 159.58 157.60 160.26 156.83 160.20 155.94 L 160.13 154.92 C 160.08 154.03 159.31 153.35 158.41 153.41 C 157.52 153.46 156.84 154.23 156.90 155.13 Z M 156.97 156.14 L 157.02 157.12 C 157.08 158.01 157.84 158.69 158.74 158.64 C 159.63 158.59 160.31 157.82 160.26 156.93 L 160.20 155.95 C 160.15 155.05 159.38 154.37 158.49 154.43 C 157.60 154.48 156.91 155.24 156.97 156.14 Z M 157.02 157.12 L 157.08 158.12 C 157.14 159.01 157.90 159.69 158.79 159.64 C 159.69 159.59 160.37 158.82 160.32 157.93 L 160.26 156.93 C 160.20 156.04 159.44 155.36 158.55 155.41 C 157.65 155.46 156.97 156.23 157.02 157.12 Z M 157.08 158.12 L 157.14 159.12 C 157.20 160.02 157.97 160.69 158.86 160.64 C 159.75 160.59 160.43 159.82 160.38 158.93 L 160.31 157.93 C 160.26 157.03 159.49 156.36 158.60 156.41 C 157.71 156.46 157.03 157.23 157.08 158.12 Z M 157.14 159.12 L 157.21 160.12 C 157.26 161.02 158.03 161.70 158.92 161.64 C 159.81 161.59 160.49 160.82 160.44 159.93 L 160.38 158.93 C 160.32 158.03 159.55 157.35 158.66 157.41 C 157.77 157.46 157.09 158.23 157.14 159.12 Z M 157.21 160.13 L 157.27 161.13 C 157.32 162.02 158.09 162.70 158.98 162.64 C 159.88 162.59 160.55 161.82 160.50 160.93 L 160.44 159.93 C 160.38 159.03 159.61 158.36 158.72 158.41 C 157.83 158.47 157.15 159.23 157.21 160.13 Z M 157.27 161.13 L 157.34 162.13 C 157.39 163.02 158.16 163.69 159.06 163.63 C 159.95 163.58 160.62 162.81 160.56 161.91 L 160.50 160.92 C 160.44 160.03 159.67 159.35 158.78 159.41 C 157.89 159.47 157.21 160.24 157.27 161.13 Z M 157.34 162.14 L 157.41 163.14 C 157.48 164.03 158.25 164.70 159.14 164.63 C 160.04 164.57 160.70 163.79 160.64 162.90 L 160.56 161.90 C 160.50 161.01 159.72 160.34 158.83 160.41 C 157.94 160.47 157.27 161.25 157.34 162.14 Z M 157.41 163.17 L 157.51 164.16 C 157.59 165.05 158.38 165.70 159.27 165.62 C 160.15 165.54 160.81 164.75 160.73 163.86 L 160.63 162.87 C 160.55 161.98 159.76 161.33 158.88 161.41 C 157.99 161.49 157.33 162.28 157.41 163.17 Z M 157.51 164.20 L 157.63 165.19 C 157.73 166.07 158.53 166.71 159.42 166.60 C 160.30 166.50 160.94 165.70 160.84 164.81 L 160.72 163.82 C 160.62 162.94 159.82 162.30 158.93 162.41 C 158.04 162.51 157.41 163.31 157.51 164.20 Z M 157.63 165.22 L 157.77 166.20 C 157.89 167.08 158.71 167.70 159.59 167.58 C 160.48 167.45 161.09 166.63 160.97 165.75 L 160.83 164.78 C 160.71 163.89 159.89 163.28 159.01 163.40 C 158.12 163.52 157.51 164.34 157.63 165.22 Z M 157.78 166.26 L 157.95 167.25 C 158.11 168.13 158.94 168.71 159.82 168.56 C 160.70 168.40 161.29 167.57 161.13 166.69 L 160.96 165.70 C 160.80 164.82 159.97 164.23 159.09 164.38 C 158.21 164.54 157.62 165.38 157.78 166.26 Z M 157.97 167.36 L 158.21 168.32 C 158.43 169.19 159.30 169.71 160.17 169.50 C 161.03 169.29 161.56 168.41 161.35 167.54 L 161.11 166.58 C 160.90 165.71 160.02 165.18 159.15 165.40 C 158.29 165.61 157.76 166.49 157.97 167.36 Z M 158.31 168.60 L 158.73 169.51 C 159.10 170.33 160.06 170.68 160.87 170.31 C 161.68 169.94 162.04 168.98 161.67 168.17 L 161.25 167.26 C 160.88 166.45 159.92 166.09 159.11 166.46 C 158.30 166.83 157.94 167.79 158.31 168.60 Z M 158.99 169.92 L 159.65 170.65 C 160.24 171.32 161.26 171.38 161.93 170.79 C 162.59 170.20 162.65 169.18 162.06 168.51 L 161.40 167.77 C 160.81 167.10 159.79 167.04 159.12 167.64 C 158.46 168.23 158.40 169.25 158.99 169.92 Z M 160.07 170.99 L 160.94 171.48 C 161.72 171.91 162.70 171.63 163.13 170.85 C 163.57 170.08 163.29 169.09 162.51 168.66 L 161.64 168.17 C 160.86 167.74 159.88 168.02 159.45 168.80 C 159.01 169.57 159.29 170.56 160.07 170.99 Z M 161.45 171.65 L 162.42 171.82 C 163.30 171.97 164.13 171.38 164.28 170.51 C 164.43 169.63 163.84 168.80 162.96 168.65 L 162.00 168.48 C 161.12 168.33 160.29 168.92 160.14 169.80 C 159.99 170.67 160.58 171.50 161.45 171.65 Z M 162.82 171.83 L 163.84 171.75 C 164.72 171.68 165.38 170.90 165.31 170.02 C 165.23 169.14 164.46 168.48 163.58 168.55 L 162.56 168.63 C 161.68 168.71 161.02 169.48 161.09 170.36 C 161.16 171.25 161.94 171.90 162.82 171.83 Z M 164.13 171.69 L 165.08 171.43 C 165.93 171.20 166.43 170.32 166.20 169.47 C 165.97 168.62 165.09 168.12 164.24 168.35 L 163.28 168.61 C 162.43 168.84 161.93 169.72 162.17 170.57 C 162.40 171.42 163.28 171.92 164.13 171.69 Z M 165.29 171.35 L 166.21 170.95 C 167.02 170.60 167.39 169.67 167.04 168.86 C 166.69 168.06 165.76 167.68 164.96 168.03 L 164.03 168.43 C 163.23 168.78 162.85 169.71 163.20 170.52 C 163.55 171.32 164.48 171.69 165.29 171.35 Z M 166.35 170.86 L 167.25 170.36 C 168.01 169.93 168.28 168.98 167.85 168.22 C 167.43 167.47 166.48 167.19 165.72 167.62 L 164.82 168.12 C 164.06 168.54 163.79 169.50 164.22 170.26 C 164.64 171.01 165.59 171.28 166.35 170.86 Z M 167.35 170.26 L 168.17 169.71 C 168.87 169.23 169.06 168.27 168.58 167.57 C 168.10 166.86 167.15 166.68 166.44 167.16 L 165.62 167.71 C 164.92 168.19 164.73 169.15 165.21 169.85 C 165.69 170.56 166.64 170.74 167.35 170.26 Z M 168.27 169.59 L 169.04 168.96 C 169.68 168.42 169.76 167.47 169.23 166.83 C 168.70 166.19 167.74 166.10 167.10 166.63 L 166.34 167.27 C 165.70 167.81 165.61 168.76 166.14 169.40 C 166.68 170.04 167.63 170.13 168.27 169.59 Z M 169.17 168.78 L 169.83 168.05 C 170.37 167.44 170.32 166.51 169.71 165.96 C 169.10 165.42 168.17 165.47 167.62 166.08 L 166.97 166.81 C 166.42 167.42 166.47 168.35 167.08 168.90 C 167.69 169.44 168.63 169.39 169.17 168.78 Z M 169.93 167.88 L 170.47 167.07 C 170.92 166.41 170.75 165.50 170.08 165.05 C 169.42 164.60 168.51 164.78 168.06 165.44 L 167.52 166.25 C 167.07 166.91 167.24 167.82 167.91 168.27 C 168.58 168.72 169.48 168.54 169.93 167.88 Z M 170.51 166.99 L 171.03 166.10 C 171.43 165.41 171.20 164.53 170.51 164.13 C 169.82 163.73 168.94 163.96 168.54 164.65 L 168.02 165.53 C 167.62 166.22 167.85 167.10 168.54 167.50 C 169.23 167.90 170.11 167.67 170.51 166.99 Z M 171.03 166.08 L 171.11 165.93 C 171.50 165.24 171.26 164.37 170.58 163.98 C 169.89 163.59 169.01 163.83 168.62 164.52 L 168.54 164.67 C 168.15 165.36 168.39 166.23 169.08 166.62 C 169.77 167.01 170.64 166.77 171.03 166.08 Z"
      fill="black"
      fill-rule="nonzero" /><path d="M 162.88 150.74 L 163.93 150.74 C 164.79 150.74 165.49 150.04 165.49 149.18 C 165.49 148.32 164.79 147.62 163.93 147.62 L 162.88 147.62 C 162.01 147.62 161.31 148.32 161.31 149.18 C 161.31 150.04 162.01 150.74 162.88 150.74 Z M 163.93 150.74 L 164.94 150.74 C 165.80 150.74 166.50 150.04 166.50 149.18 C 166.50 148.32 165.80 147.62 164.94 147.62 L 163.93 147.62 C 163.07 147.62 162.37 148.32 162.37 149.18 C 162.37 150.04 163.07 150.74 163.93 150.74 Z M 164.94 150.74 L 165.89 150.74 C 166.75 150.74 167.44 150.04 167.44 149.18 C 167.44 148.32 166.75 147.62 165.89 147.62 L 164.94 147.62 C 164.08 147.62 163.38 148.32 163.38 149.18 C 163.38 150.04 164.08 150.74 164.94 150.74 Z M 165.89 150.74 L 166.95 150.74 C 167.81 150.74 168.50 150.04 168.50 149.18 C 168.50 148.32 167.81 147.63 166.95 147.63 L 165.89 147.63 C 165.03 147.63 164.33 148.32 164.33 149.18 C 164.33 150.04 165.03 150.74 165.89 150.74 Z M 166.95 150.73 L 167.89 150.73 C 168.74 150.73 169.44 150.04 169.44 149.18 C 169.44 148.32 168.74 147.63 167.89 147.63 L 166.95 147.63 C 166.09 147.63 165.40 148.32 165.40 149.18 C 165.40 150.04 166.09 150.73 166.95 150.73 Z M 167.89 150.73 L 168.90 150.73 C 169.75 150.73 170.45 150.04 170.45 149.18 C 170.45 148.32 169.75 147.63 168.90 147.63 L 167.89 147.63 C 167.03 147.63 166.34 148.32 166.34 149.18 C 166.34 150.04 167.03 150.73 167.89 150.73 Z M 168.90 150.73 L 169.88 150.73 C 170.73 150.73 171.43 150.04 171.43 149.18 C 171.43 148.32 170.73 147.63 169.88 147.63 L 168.90 147.63 C 168.04 147.63 167.34 148.32 167.34 149.18 C 167.34 150.04 168.04 150.73 168.90 150.73 Z M 169.87 150.73 L 170.86 150.74 C 171.72 150.74 172.42 150.05 172.42 149.19 C 172.42 148.33 171.73 147.63 170.87 147.63 L 169.88 147.63 C 169.02 147.63 168.33 148.32 168.32 149.18 C 168.32 150.03 169.01 150.73 169.87 150.73 Z M 170.83 150.74 L 171.87 150.76 C 172.73 150.79 173.44 150.11 173.47 149.25 C 173.49 148.39 172.81 147.68 171.95 147.66 L 170.90 147.63 C 170.05 147.61 169.33 148.29 169.31 149.15 C 169.29 150.00 169.97 150.72 170.83 150.74 Z M 171.63 150.75 L 172.66 150.94 C 173.51 151.09 174.32 150.53 174.48 149.68 C 174.63 148.83 174.07 148.02 173.22 147.86 L 172.19 147.67 C 171.34 147.52 170.53 148.08 170.37 148.93 C 170.22 149.78 170.78 150.59 171.63 150.75 Z M 171.39 149.71 L 171.51 150.31 C 171.69 151.16 172.52 151.71 173.37 151.54 C 174.22 151.37 174.77 150.54 174.60 149.69 L 174.48 149.09 C 174.31 148.24 173.48 147.68 172.63 147.85 C 171.78 148.03 171.22 148.86 171.39 149.71 Z M 171.77 149.09 L 171.14 149.98 C 170.64 150.70 170.81 151.68 171.52 152.18 C 172.24 152.68 173.22 152.51 173.72 151.80 L 174.35 150.91 C 174.85 150.19 174.68 149.21 173.97 148.71 C 173.25 148.21 172.27 148.38 171.77 149.09 Z M 171.30 149.79 L 170.57 150.55 C 169.96 151.18 169.98 152.18 170.61 152.78 C 171.23 153.39 172.23 153.37 172.84 152.74 L 173.57 151.99 C 174.17 151.36 174.16 150.36 173.53 149.76 C 172.90 149.15 171.90 149.17 171.30 149.79 Z M 170.64 150.48 L 169.90 151.15 C 169.26 151.73 169.21 152.73 169.79 153.38 C 170.38 154.02 171.38 154.07 172.02 153.49 L 172.76 152.82 C 173.41 152.23 173.46 151.23 172.87 150.59 C 172.29 149.94 171.29 149.89 170.64 150.48 Z M 169.95 151.11 L 169.15 151.77 C 168.49 152.33 168.40 153.33 168.96 154.00 C 169.52 154.67 170.51 154.75 171.18 154.19 L 171.98 153.53 C 172.64 152.97 172.73 151.97 172.17 151.30 C 171.61 150.64 170.62 150.55 169.95 151.11 Z M 169.18 151.75 L 168.36 152.42 C 167.68 152.96 167.57 153.95 168.11 154.63 C 168.66 155.31 169.65 155.42 170.33 154.88 L 171.15 154.21 C 171.83 153.67 171.94 152.68 171.40 152.00 C 170.85 151.32 169.86 151.21 169.18 151.75 Z M 168.38 152.41 L 167.59 153.02 C 166.90 153.55 166.78 154.54 167.31 155.23 C 167.85 155.91 168.83 156.03 169.52 155.50 L 170.31 154.89 C 170.99 154.35 171.11 153.37 170.58 152.68 C 170.05 152.00 169.06 151.87 168.38 152.41 Z M 167.60 153.02 L 166.84 153.60 C 166.16 154.12 166.02 155.10 166.55 155.79 C 167.07 156.47 168.05 156.61 168.74 156.08 L 169.50 155.50 C 170.19 154.98 170.32 154.00 169.80 153.31 C 169.27 152.63 168.29 152.49 167.60 153.02 Z M 166.85 153.60 L 166.09 154.18 C 165.41 154.70 165.27 155.67 165.79 156.35 C 166.30 157.04 167.28 157.17 167.96 156.66 L 168.73 156.08 C 169.41 155.56 169.54 154.59 169.03 153.91 C 168.51 153.22 167.54 153.09 166.85 153.60 Z M 166.08 154.20 L 165.29 154.82 C 164.62 155.34 164.50 156.30 165.02 156.97 C 165.54 157.64 166.51 157.77 167.18 157.25 L 167.97 156.63 C 168.64 156.11 168.76 155.15 168.24 154.48 C 167.72 153.81 166.75 153.68 166.08 154.20 Z M 165.29 154.84 L 164.48 155.47 C 163.82 156.00 163.71 156.96 164.23 157.62 C 164.76 158.28 165.72 158.39 166.38 157.87 L 167.18 157.23 C 167.84 156.70 167.95 155.74 167.43 155.08 C 166.91 154.42 165.95 154.31 165.29 154.84 Z M 164.49 155.48 L 163.70 156.10 C 163.05 156.62 162.93 157.57 163.45 158.23 C 163.97 158.89 164.93 159.00 165.59 158.48 L 166.37 157.86 C 167.03 157.34 167.14 156.39 166.62 155.73 C 166.10 155.07 165.15 154.96 164.49 155.48 Z M 163.73 156.10 L 162.90 156.74 C 162.25 157.25 162.13 158.19 162.63 158.84 C 163.14 159.50 164.08 159.62 164.73 159.11 L 165.56 158.48 C 166.21 157.97 166.33 157.03 165.83 156.38 C 165.33 155.72 164.39 155.60 163.73 156.10 Z M 162.92 156.77 L 162.17 157.35 C 161.53 157.85 161.42 158.76 161.91 159.40 C 162.41 160.04 163.33 160.16 163.97 159.66 L 164.71 159.08 C 165.35 158.59 165.47 157.67 164.97 157.03 C 164.48 156.39 163.56 156.28 162.92 156.77 Z M 162.16 157.39 L 161.41 158.00 C 160.79 158.50 160.70 159.41 161.20 160.03 C 161.71 160.65 162.62 160.74 163.23 160.23 L 163.98 159.63 C 164.60 159.12 164.69 158.21 164.19 157.60 C 163.68 156.98 162.78 156.89 162.16 157.39 Z M 161.40 158.02 L 160.61 158.68 C 160.00 159.19 159.92 160.09 160.43 160.70 C 160.93 161.31 161.84 161.39 162.45 160.88 L 163.24 160.22 C 163.85 159.71 163.93 158.80 163.42 158.20 C 162.91 157.59 162.01 157.51 161.40 158.02 Z"
      fill="black"
      fill-rule="nonzero" /></svg>