<svg xmlns="http://www.w3.org/2000/svg" width="300" height="300" viewBox="0 0 300 300">
<path d="M 130.93 138.44 L 130.94 139.42 C 130.95 140.25 131.64 140.92 132.47 140.91 C 133.30 140.89 133.97 140.21 133.95 139.38 L 133.94 138.39 C 133.93 137.56 133.24 136.89 132.41 136.91 C 131.58 136.92 130.91 137.60 130.93 138.44 Z M 130.92 139.55 L 131.02 140.55 C 131.10 141.39 131.85 142.01 132.70 141.92 C 133.54 141.84 134.15 141.09 134.07 140.25 L 133.97 139.25 C 133.89 138.41 133.14 137.79 132.30 137.87 C 131.45 137.96 130.84 138.71 130.92 139.55 Z M 131.03 140.71 L 131.22 141.63 C 131.39 142.47 132.21 143.01 133.05 142.83 C 133.89 142.66 134.43 141.84 134.25 141.00 L 134.06 140.08 C 133.89 139.25 133.07 138.71 132.23 138.88 C 131.39 139.05 130.86 139.87 131.03 140.71 Z M 131.22 141.67 L 131.46 142.70 C 131.65 143.53 132.49 144.05 133.33 143.86 C 134.16 143.67 134.68 142.83 134.49 141.99 L 134.25 140.97 C 134.06 140.13 133.22 139.61 132.39 139.80 C 131.55 140.00 131.03 140.83 131.22 141.67 Z M 131.45 142.65 L 131.64 143.65 C 131.81 144.50 132.63 145.05 133.47 144.88 C 134.32 144.72 134.87 143.90 134.70 143.05 L 134.50 142.05 C 134.34 141.20 133.52 140.65 132.68 140.82 C 131.83 140.98 131.28 141.80 131.45 142.65 Z M 131.63 143.60 L 131.79 144.61 C 131.93 145.46 132.73 146.04 133.58 145.91 C 134.43 145.77 135.01 144.97 134.87 144.12 L 134.71 143.11 C 134.58 142.26 133.78 141.68 132.93 141.81 C 132.08 141.95 131.49 142.75 131.63 143.60 Z M 131.78 144.55 L 131.90 145.55 C 132.00 146.41 132.78 147.02 133.64 146.92 C 134.50 146.82 135.11 146.04 135.01 145.18 L 134.89 144.18 C 134.78 143.32 134.00 142.71 133.15 142.81 C 132.29 142.92 131.68 143.69 131.78 144.55 Z M 131.89 145.48 L 131.96 146.48 C 132.02 147.34 132.77 147.99 133.63 147.93 C 134.50 147.87 135.15 147.12 135.09 146.26 L 135.01 145.26 C 134.95 144.39 134.21 143.74 133.34 143.81 C 132.48 143.87 131.83 144.61 131.89 145.48 Z M 131.96 146.43 L 132.00 147.37 C 132.03 148.23 132.76 148.90 133.63 148.87 C 134.49 148.83 135.16 148.10 135.13 147.24 L 135.09 146.31 C 135.05 145.44 134.32 144.77 133.46 144.80 C 132.60 144.84 131.93 145.57 131.96 146.43 Z M 132.00 147.36 L 132.03 148.35 C 132.06 149.21 132.79 149.89 133.65 149.86 C 134.51 149.83 135.19 149.11 135.16 148.24 L 135.13 147.25 C 135.10 146.38 134.37 145.71 133.51 145.74 C 132.64 145.77 131.97 146.49 132.00 147.36 Z M 132.03 148.33 L 132.05 149.34 C 132.07 150.20 132.78 150.89 133.65 150.87 C 134.51 150.86 135.20 150.14 135.18 149.28 L 135.16 148.27 C 135.14 147.40 134.43 146.71 133.57 146.73 C 132.70 146.75 132.01 147.46 132.03 148.33 Z M 132.05 149.32 L 132.06 150.32 C 132.06 151.19 132.77 151.89 133.63 151.88 C 134.49 151.88 135.19 151.17 135.19 150.31 L 135.18 149.30 C 135.18 148.44 134.47 147.74 133.61 147.75 C 132.74 147.75 132.05 148.45 132.05 149.32 Z M 132.06 150.32 L 132.06 151.33 C 132.06 152.19 132.76 152.89 133.62 152.89 C 134.49 152.89 135.19 152.19 135.19 151.33 L 135.18 150.32 C 135.18 149.45 134.48 148.75 133.62 148.75 C 132.76 148.75 132.06 149.45 132.06 150.32 Z M 132.06 151.32 L 132.05 152.32 C 132.05 153.18 132.75 153.88 133.61 153.89 C 134.47 153.89 135.17 153.20 135.18 152.33 L 135.18 151.33 C 135.19 150.47 134.49 149.77 133.63 149.76 C 132.77 149.76 132.06 150.46 132.06 151.32 Z M 132.06 152.29 L 132.04 153.29 C 132.02 154.15 132.70 154.86 133.56 154.88 C 134.43 154.90 135.14 154.21 135.16 153.35 L 135.18 152.36 C 135.19 151.50 134.51 150.78 133.65 150.76 C 132.79 150.75 132.07 151.43 132.06 152.29 Z M 132.04 153.23 L 131.98 154.22 C 131.93 155.08 132.59 155.82 133.45 155.87 C 134.30 155.92 135.04 155.27 135.09 154.41 L 135.15 153.41 C 135.20 152.55 134.55 151.81 133.69 151.76 C 132.83 151.71 132.09 152.37 132.04 153.23 Z M 132.00 154.11 L 131.87 155.11 C 131.75 155.96 132.35 156.74 133.20 156.85 C 134.06 156.96 134.84 156.36 134.95 155.51 L 135.08 154.52 C 135.19 153.67 134.59 152.89 133.74 152.78 C 132.89 152.66 132.11 153.26 132.00 154.11 Z M 131.89 154.99 L 131.69 155.97 C 131.51 156.81 132.05 157.63 132.89 157.80 C 133.73 157.98 134.55 157.44 134.72 156.60 L 134.92 155.62 C 135.10 154.78 134.56 153.96 133.72 153.79 C 132.88 153.62 132.06 154.16 131.89 154.99 Z M 131.71 155.90 L 131.46 156.88 C 131.24 157.70 131.74 158.54 132.56 158.76 C 133.39 158.97 134.23 158.48 134.45 157.65 L 134.70 156.67 C 134.91 155.85 134.42 155.01 133.59 154.79 C 132.77 154.58 131.92 155.07 131.71 155.90 Z M 131.48 156.83 L 131.19 157.78 C 130.95 158.59 131.41 159.45 132.23 159.69 C 133.04 159.93 133.90 159.47 134.14 158.65 L 134.43 157.70 C 134.67 156.89 134.20 156.03 133.39 155.79 C 132.57 155.55 131.72 156.01 131.48 156.83 Z M 131.21 157.74 L 130.90 158.70 C 130.64 159.50 131.08 160.36 131.88 160.63 C 132.69 160.89 133.55 160.45 133.82 159.64 L 134.13 158.69 C 134.39 157.88 133.95 157.02 133.14 156.76 C 132.34 156.50 131.47 156.94 131.21 157.74 Z M 130.91 158.67 L 130.59 159.60 C 130.32 160.40 130.74 161.27 131.54 161.54 C 132.34 161.82 133.21 161.39 133.48 160.60 L 133.80 159.67 C 134.07 158.87 133.65 158.00 132.85 157.73 C 132.06 157.45 131.19 157.87 130.91 158.67 Z M 130.62 159.57 L 130.27 160.48 C 129.98 161.26 130.38 162.14 131.16 162.43 C 131.95 162.72 132.82 162.33 133.12 161.54 L 133.46 160.63 C 133.75 159.85 133.35 158.97 132.57 158.68 C 131.78 158.38 130.91 158.78 130.62 159.57 Z M 130.32 160.38 L 129.90 161.32 C 129.55 162.08 129.89 162.97 130.64 163.32 C 131.40 163.66 132.30 163.33 132.64 162.57 L 133.07 161.64 C 133.41 160.88 133.08 159.98 132.32 159.64 C 131.56 159.29 130.67 159.63 130.32 160.38 Z M 129.96 161.21 L 129.46 162.10 C 129.06 162.82 129.31 163.73 130.04 164.14 C 130.76 164.54 131.67 164.29 132.08 163.57 L 132.58 162.68 C 132.98 161.96 132.73 161.04 132.00 160.64 C 131.28 160.23 130.37 160.49 129.96 161.21 Z M 129.56 161.97 L 128.97 162.80 C 128.50 163.47 128.66 164.40 129.33 164.87 C 130.00 165.35 130.93 165.19 131.40 164.52 L 131.99 163.69 C 132.46 163.02 132.30 162.09 131.63 161.62 C 130.96 161.14 130.03 161.30 129.56 161.97 Z M 129.11 162.66 L 128.43 163.39 C 127.87 163.99 127.91 164.92 128.51 165.47 C 129.11 166.03 130.04 165.99 130.59 165.39 L 131.27 164.65 C 131.82 164.06 131.78 163.12 131.19 162.57 C 130.59 162.02 129.66 162.06 129.11 162.66 Z M 128.50 163.34 L 128.12 163.71 C 127.54 164.26 127.52 165.19 128.08 165.77 C 128.64 166.35 129.56 166.36 130.14 165.81 L 130.52 165.44 C 131.10 164.88 131.12 163.96 130.56 163.38 C 130.00 162.80 129.08 162.78 128.50 163.34 Z"
      fill="black"
      fill-rule="nonzero" /><path d="M 143.19 119.50 L 142.08 119.55 C 141.26 119.58 140.63 120.26 140.66 121.08 C 140.69 121.90 141.37 122.54 142.19 122.51 L 143.30 122.47 C 144.12 122.43 144.75 121.75 144.72 120.93 C 144.69 120.11 144.01 119.47 143.19 119.50 Z M 142.98 122.29 L 143.47 121.96 C 144.17 121.49 144.35 120.55 143.89 119.85 C 143.42 119.15 142.47 118.97 141.78 119.44 L 141.29 119.77 C 140.59 120.23 140.41 121.18 140.88 121.87 C 141.34 122.57 142.29 122.76 142.98 122.29 Z M 143.12 122.15 L 144.19 121.78 C 144.99 121.51 145.42 120.64 145.15 119.83 C 144.87 119.03 144.00 118.61 143.20 118.88 L 142.13 119.25 C 141.33 119.52 140.90 120.39 141.17 121.19 C 141.45 122.00 142.32 122.42 143.12 122.15 Z M 144.11 121.81 L 145.07 121.55 C 145.89 121.32 146.37 120.48 146.15 119.66 C 145.92 118.84 145.08 118.36 144.26 118.58 L 143.29 118.85 C 142.47 119.07 141.99 119.92 142.22 120.74 C 142.44 121.56 143.29 122.04 144.11 121.81 Z M 145.03 121.56 L 145.92 121.35 C 146.74 121.14 147.25 120.31 147.05 119.49 C 146.85 118.66 146.02 118.15 145.19 118.35 L 144.30 118.57 C 143.47 118.77 142.97 119.60 143.17 120.43 C 143.37 121.26 144.20 121.76 145.03 121.56 Z M 145.89 121.35 L 146.83 121.14 C 147.66 120.96 148.19 120.13 148.00 119.30 C 147.81 118.47 146.99 117.95 146.16 118.13 L 145.22 118.34 C 144.38 118.53 143.86 119.35 144.05 120.19 C 144.23 121.02 145.06 121.54 145.89 121.35 Z M 146.81 121.15 L 147.93 120.92 C 148.76 120.74 149.30 119.93 149.12 119.09 C 148.95 118.26 148.13 117.72 147.30 117.89 L 146.18 118.13 C 145.34 118.30 144.81 119.12 144.98 119.95 C 145.16 120.79 145.98 121.32 146.81 121.15 Z M 147.91 120.92 L 148.91 120.72 C 149.75 120.56 150.29 119.74 150.13 118.91 C 149.96 118.07 149.15 117.53 148.31 117.69 L 147.31 117.89 C 146.47 118.06 145.93 118.87 146.10 119.71 C 146.26 120.54 147.07 121.09 147.91 120.92 Z M 148.90 120.73 L 149.93 120.53 C 150.77 120.37 151.32 119.56 151.16 118.72 C 151.00 117.88 150.19 117.33 149.35 117.49 L 148.32 117.69 C 147.48 117.85 146.93 118.66 147.09 119.50 C 147.25 120.34 148.06 120.89 148.90 120.73 Z M 149.92 120.53 L 150.89 120.35 C 151.73 120.20 152.28 119.40 152.13 118.56 C 151.98 117.72 151.17 117.16 150.33 117.31 L 149.37 117.49 C 148.53 117.64 147.97 118.45 148.12 119.29 C 148.28 120.13 149.08 120.68 149.92 120.53 Z M 150.86 120.36 L 151.96 120.17 C 152.80 120.03 153.37 119.24 153.23 118.39 C 153.09 117.55 152.29 116.99 151.45 117.13 L 150.35 117.31 C 149.51 117.45 148.94 118.25 149.09 119.09 C 149.23 119.93 150.02 120.50 150.86 120.36 Z M 151.93 120.17 L 152.84 120.04 C 153.69 119.92 154.27 119.13 154.14 118.29 C 154.02 117.45 153.24 116.87 152.39 116.99 L 151.48 117.12 C 150.64 117.25 150.06 118.03 150.18 118.88 C 150.31 119.72 151.09 120.30 151.93 120.17 Z M 152.85 120.04 L 153.75 119.90 C 154.59 119.77 155.17 118.99 155.04 118.15 C 154.92 117.31 154.13 116.73 153.29 116.86 L 152.39 116.99 C 151.55 117.12 150.97 117.91 151.10 118.75 C 151.22 119.59 152.01 120.16 152.85 120.04 Z M 153.76 119.90 L 154.75 119.74 C 155.59 119.61 156.16 118.83 156.03 117.99 C 155.90 117.15 155.12 116.58 154.28 116.71 L 153.29 116.86 C 152.45 116.99 151.87 117.77 152.00 118.61 C 152.13 119.45 152.92 120.03 153.76 119.90 Z M 154.72 119.75 L 155.69 119.62 C 156.53 119.51 157.12 118.74 157.01 117.90 C 156.90 117.05 156.13 116.46 155.29 116.57 L 154.31 116.70 C 153.47 116.81 152.88 117.58 152.99 118.43 C 153.10 119.27 153.87 119.86 154.72 119.75 Z M 155.66 119.62 L 156.67 119.51 C 157.51 119.41 158.12 118.65 158.02 117.81 C 157.93 116.97 157.17 116.36 156.32 116.46 L 155.31 116.57 C 154.47 116.67 153.86 117.43 153.96 118.27 C 154.06 119.11 154.82 119.72 155.66 119.62 Z M 156.66 119.51 L 157.66 119.40 C 158.50 119.32 159.12 118.56 159.03 117.72 C 158.94 116.88 158.19 116.26 157.34 116.35 L 156.34 116.45 C 155.50 116.54 154.88 117.30 154.97 118.14 C 155.06 118.98 155.81 119.60 156.66 119.51 Z M 157.64 119.41 L 158.65 119.31 C 159.50 119.23 160.12 118.49 160.04 117.64 C 159.96 116.80 159.22 116.18 158.37 116.26 L 157.36 116.35 C 156.52 116.43 155.90 117.17 155.98 118.02 C 156.05 118.86 156.80 119.48 157.64 119.41 Z M 158.63 119.31 L 159.61 119.24 C 160.46 119.17 161.09 118.44 161.02 117.59 C 160.96 116.75 160.22 116.11 159.38 116.18 L 158.40 116.25 C 157.55 116.32 156.92 117.06 156.98 117.90 C 157.05 118.75 157.79 119.38 158.63 119.31 Z M 159.58 119.24 L 160.46 119.19 C 161.31 119.14 161.95 118.42 161.91 117.57 C 161.86 116.73 161.14 116.08 160.29 116.13 L 159.41 116.18 C 158.56 116.22 157.92 116.95 157.96 117.79 C 158.01 118.64 158.73 119.29 159.58 119.24 Z M 160.42 119.19 L 161.53 119.16 C 162.37 119.14 163.04 118.44 163.02 117.59 C 162.99 116.74 162.29 116.07 161.44 116.10 L 160.33 116.13 C 159.49 116.15 158.82 116.85 158.84 117.70 C 158.87 118.55 159.57 119.21 160.42 119.19 Z M 161.49 119.16 L 162.46 119.16 C 163.31 119.15 163.99 118.46 163.99 117.61 C 163.98 116.77 163.29 116.09 162.44 116.09 L 161.47 116.10 C 160.63 116.10 159.95 116.79 159.95 117.64 C 159.96 118.49 160.65 119.17 161.49 119.16 Z M 162.43 119.16 L 163.48 119.17 C 164.33 119.18 165.02 118.51 165.03 117.66 C 165.04 116.81 164.37 116.12 163.52 116.11 L 162.48 116.09 C 161.63 116.08 160.93 116.76 160.92 117.60 C 160.91 118.45 161.59 119.14 162.43 119.16 Z M 163.42 119.17 L 164.46 119.22 C 165.31 119.27 166.03 118.62 166.07 117.77 C 166.12 116.93 165.47 116.21 164.62 116.16 L 163.58 116.11 C 162.74 116.06 162.01 116.71 161.97 117.56 C 161.93 118.40 162.58 119.12 163.42 119.17 Z M 164.25 119.20 L 165.31 119.40 C 166.14 119.56 166.94 119.02 167.10 118.18 C 167.26 117.35 166.72 116.55 165.89 116.39 L 164.83 116.19 C 164.00 116.03 163.20 116.57 163.04 117.40 C 162.88 118.24 163.42 119.04 164.25 119.20 Z M 164.61 119.08 L 165.22 119.58 C 165.87 120.13 166.84 120.04 167.39 119.38 C 167.93 118.73 167.84 117.76 167.19 117.21 L 166.58 116.71 C 165.92 116.17 164.95 116.26 164.41 116.91 C 163.87 117.57 163.96 118.54 164.61 119.08 Z M 164.70 118.77 L 164.93 119.70 C 165.14 120.53 165.98 121.04 166.80 120.83 C 167.63 120.63 168.14 119.79 167.93 118.96 L 167.70 118.03 C 167.50 117.20 166.66 116.69 165.83 116.90 C 165.00 117.10 164.50 117.94 164.70 118.77 Z M 164.88 119.39 L 164.92 120.43 C 164.95 121.29 165.67 121.96 166.52 121.93 C 167.38 121.90 168.05 121.18 168.02 120.33 L 167.98 119.28 C 167.95 118.43 167.24 117.76 166.38 117.78 C 165.53 117.81 164.86 118.53 164.88 119.39 Z M 164.92 120.34 L 164.89 121.35 C 164.87 122.21 165.54 122.92 166.40 122.94 C 167.26 122.96 167.97 122.29 168.00 121.43 L 168.02 120.42 C 168.04 119.56 167.37 118.85 166.51 118.83 C 165.65 118.80 164.94 119.48 164.92 120.34 Z M 164.89 121.26 L 164.80 122.28 C 164.73 123.14 165.37 123.89 166.22 123.96 C 167.08 124.03 167.84 123.40 167.91 122.54 L 167.99 121.52 C 168.07 120.66 167.43 119.91 166.57 119.84 C 165.72 119.77 164.96 120.40 164.89 121.26 Z M 164.81 122.18 L 164.67 123.16 C 164.54 124.01 165.13 124.80 165.98 124.93 C 166.83 125.06 167.63 124.47 167.75 123.62 L 167.90 122.64 C 168.02 121.79 167.44 120.99 166.58 120.87 C 165.73 120.74 164.94 121.33 164.81 122.18 Z M 164.67 123.11 L 164.50 124.10 C 164.35 124.95 164.91 125.76 165.76 125.91 C 166.61 126.06 167.42 125.49 167.57 124.65 L 167.75 123.66 C 167.90 122.81 167.33 122.00 166.48 121.85 C 165.64 121.70 164.83 122.27 164.67 123.11 Z M 164.50 124.11 L 164.33 125.08 C 164.19 125.93 164.77 126.73 165.62 126.87 C 166.47 127.02 167.27 126.44 167.41 125.59 L 167.58 124.63 C 167.72 123.78 167.14 122.98 166.29 122.83 C 165.44 122.69 164.64 123.26 164.50 124.11 Z M 164.33 125.10 L 164.18 126.09 C 164.06 126.95 164.64 127.74 165.50 127.87 C 166.35 127.99 167.15 127.40 167.27 126.55 L 167.42 125.56 C 167.55 124.71 166.96 123.92 166.10 123.79 C 165.25 123.66 164.46 124.25 164.33 125.10 Z M 164.18 126.11 L 164.04 127.14 C 163.93 128.00 164.53 128.78 165.38 128.90 C 166.24 129.01 167.02 128.41 167.14 127.56 L 167.28 126.53 C 167.39 125.67 166.79 124.89 165.93 124.77 C 165.08 124.66 164.29 125.26 164.18 126.11 Z M 164.04 127.16 L 163.91 128.21 C 163.81 129.07 164.42 129.84 165.27 129.95 C 166.13 130.05 166.91 129.44 167.01 128.59 L 167.14 127.54 C 167.25 126.68 166.64 125.90 165.78 125.80 C 164.92 125.69 164.14 126.30 164.04 127.16 Z M 163.91 128.22 L 163.80 129.22 C 163.70 130.08 164.32 130.86 165.18 130.95 C 166.04 131.05 166.81 130.43 166.90 129.57 L 167.02 128.57 C 167.11 127.71 166.49 126.94 165.63 126.84 C 164.78 126.75 164.00 127.37 163.91 128.22 Z M 163.80 129.24 L 163.70 130.22 C 163.61 131.08 164.24 131.84 165.10 131.93 C 165.96 132.02 166.72 131.39 166.81 130.53 L 166.91 129.55 C 166.99 128.69 166.36 127.93 165.51 127.84 C 164.65 127.76 163.88 128.38 163.80 129.24 Z M 163.70 130.24 L 163.61 131.25 C 163.54 132.11 164.18 132.86 165.04 132.94 C 165.90 133.01 166.65 132.37 166.73 131.51 L 166.81 130.51 C 166.88 129.65 166.24 128.89 165.38 128.82 C 164.52 128.74 163.77 129.38 163.70 130.24 Z M 163.61 131.26 L 163.54 132.20 C 163.48 133.06 164.12 133.81 164.98 133.87 C 165.85 133.94 166.60 133.29 166.66 132.43 L 166.73 131.49 C 166.79 130.63 166.15 129.88 165.29 129.82 C 164.42 129.76 163.67 130.40 163.61 131.26 Z M 163.54 132.21 L 163.47 133.20 C 163.41 134.06 164.06 134.81 164.92 134.87 C 165.79 134.93 166.53 134.28 166.59 133.42 L 166.66 132.42 C 166.72 131.56 166.07 130.81 165.21 130.75 C 164.35 130.69 163.60 131.35 163.54 132.21 Z M 163.47 133.23 L 163.42 134.22 C 163.37 135.08 164.04 135.81 164.90 135.86 C 165.76 135.90 166.49 135.24 166.54 134.38 L 166.59 133.39 C 166.64 132.53 165.98 131.79 165.11 131.75 C 164.25 131.70 163.52 132.36 163.47 133.23 Z M 163.42 134.23 L 163.38 135.23 C 163.34 136.09 164.01 136.82 164.87 136.85 C 165.74 136.89 166.47 136.22 166.50 135.36 L 166.54 134.36 C 166.58 133.50 165.91 132.77 165.04 132.74 C 164.18 132.70 163.45 133.37 163.42 134.23 Z M 163.38 135.22 L 163.33 136.24 C 163.29 137.10 163.96 137.83 164.82 137.87 C 165.68 137.91 166.41 137.24 166.45 136.38 L 166.50 135.36 C 166.54 134.50 165.87 133.77 165.01 133.73 C 164.15 133.69 163.42 134.36 163.38 135.22 Z M 163.33 136.23 L 163.28 137.23 C 163.24 138.10 163.90 138.83 164.76 138.87 C 165.62 138.92 166.36 138.26 166.40 137.39 L 166.45 136.39 C 166.50 135.53 165.83 134.79 164.97 134.75 C 164.11 134.70 163.38 135.37 163.33 136.23 Z M 163.28 137.24 L 163.23 138.24 C 163.19 139.11 163.86 139.84 164.72 139.88 C 165.58 139.92 166.31 139.26 166.35 138.39 L 166.40 137.39 C 166.44 136.53 165.78 135.79 164.91 135.75 C 164.05 135.71 163.32 136.38 163.28 137.24 Z M 163.23 138.26 L 163.20 139.26 C 163.17 140.12 163.84 140.85 164.70 140.88 C 165.57 140.91 166.29 140.23 166.32 139.37 L 166.36 138.37 C 166.39 137.51 165.71 136.79 164.85 136.76 C 163.99 136.73 163.26 137.40 163.23 138.26 Z M 163.20 139.28 L 163.17 140.28 C 163.16 141.15 163.84 141.86 164.70 141.88 C 165.57 141.90 166.28 141.21 166.30 140.35 L 166.32 139.35 C 166.34 138.48 165.65 137.77 164.79 137.75 C 163.93 137.73 163.21 138.42 163.20 139.28 Z M 163.17 140.30 L 163.17 141.28 C 163.16 142.14 163.85 142.85 164.72 142.85 C 165.58 142.86 166.28 142.17 166.29 141.30 L 166.30 140.33 C 166.31 139.47 165.61 138.76 164.75 138.75 C 163.89 138.74 163.18 139.44 163.17 140.30 Z M 163.17 141.29 L 163.16 142.30 C 163.16 143.16 163.86 143.86 164.72 143.87 C 165.59 143.87 166.29 143.17 166.29 142.31 L 166.29 141.29 C 166.29 140.43 165.60 139.73 164.73 139.73 C 163.87 139.73 163.17 140.42 163.17 141.29 Z M 163.16 142.30 L 163.16 143.31 C 163.16 144.17 163.86 144.87 164.73 144.87 C 165.59 144.87 166.29 144.17 166.29 143.31 L 166.29 142.30 C 166.29 141.44 165.59 140.74 164.73 140.74 C 163.86 140.74 163.16 141.44 163.16 142.30 Z M 163.16 143.31 L 163.16 144.31 C 163.16 145.17 163.86 145.87 164.73 145.87 C 165.59 145.87 166.29 145.17 166.29 144.31 L 166.29 143.31 C 166.29 142.44 165.59 141.74 164.73 141.74 C 163.86 141.74 163.16 142.44 163.16 143.31 Z M 163.16 144.31 L 163.16 145.31 C 163.16 146.18 163.86 146.88 164.73 146.88 C 165.59 146.88 166.29 146.18 166.29 145.31 L 166.29 144.31 C 166.29 143.44 165.59 142.74 164.73 142.74 C 163.86 142.74 163.16 143.44 163.16 144.31 Z M 163.16 145.31 L 163.16 146.31 C 163.16 147.17 163.86 147.87 164.73 147.87 C 165.59 147.87 166.29 147.17 166.29 146.31 L 166.29 145.31 C 166.29 144.45 165.59 143.75 164.73 143.75 C 163.86 143.75 163.16 144.45 163.16 145.31 Z M 163.16 146.31 L 163.16 147.31 C 163.16 148.18 163.86 148.88 164.73 148.88 C 165.59 148.88 166.29 148.18 166.29 147.31 L 166.29 146.31 C 166.29 145.45 165.59 144.75 164.73 144.75 C 163.86 144.75 163.16 145.45 163.16 146.31 Z M 163.16 147.31 L 163.16 148.30 C 163.16 149.16 163.86 149.86 164.73 149.86 C 165.59 149.86 166.29 149.16 166.29 148.30 L 166.29 147.31 C 166.29 146.45 165.59 145.75 164.73 145.75 C 163.86 145.75 163.16 146.45 163.16 147.31 Z M 163.16 148.30 L 163.16 149.29 C 163.16 150.16 163.86 150.86 164.73 150.86 C 165.59 150.86 166.29 150.16 166.29 149.29 L 166.29 148.30 C 166.29 147.44 165.59 146.74 164.73 146.74 C 163.86 146.74 163.16 147.44 163.16 148.30 Z M 163.16 149.29 L 163.16 150.31 C 163.16 151.18 163.86 151.88 164.73 151.88 C 165.59 151.88 166.29 151.18 166.29 150.31 L 166.29 149.29 C 166.29 148.43 165.59 147.73 164.73 147.73 C 163.86 147.73 163.16 148.43 163.16 149.29 Z M 163.16 150.31 L 163.16 151.33 C 163.16 152.19 163.86 152.89 164.73 152.89 C 165.59 152.89 166.29 152.19 166.29 151.33 L 166.29 150.31 C 166.29 149.45 165.59 148.75 164.73 148.75 C 163.86 148.75 163.16 149.45 163.16 150.31 Z M 163.16 151.33 L 163.16 152.34 C 163.16 153.20 163.86 153.90 164.73 153.90 C 165.59 153.90 166.29 153.20 166.29 152.34 L 166.29 151.33 C 166.29 150.46 165.59 149.76 164.73 149.76 C 163.86 149.76 163.16 150.46 163.16 151.33 Z M 163.16 152.34 L 163.16 153.33 C 163.16 154.20 163.86 154.90 164.73 154.90 C 165.59 154.90 166.29 154.20 166.29 153.33 L 166.29 152.34 C 166.29 151.47 165.59 150.77 164.73 150.77 C 163.86 150.77 163.16 151.47 163.16 152.34 Z M 163.16 153.33 L 163.16 154.35 C 163.16 155.22 163.86 155.92 164.73 155.92 C 165.59 155.92 166.29 155.22 166.29 154.35 L 166.29 153.33 C 166.29 152.47 165.59 151.77 164.73 151.77 C 163.86 151.77 163.16 152.47 163.16 153.33 Z M 163.16 154.35 L 163.16 155.32 C 163.16 156.19 163.86 156.89 164.73 156.89 C 165.59 156.89 166.29 156.19 166.29 155.32 L 166.29 154.35 C 166.29 153.49 165.59 152.79 164.73 152.79 C 163.86 152.79 163.16 153.49 163.16 154.35 Z M 163.16 155.32 L 163.16 156.33 C 163.16 157.19 163.86 157.90 164.73 157.90 C 165.59 157.90 166.29 157.19 166.29 156.33 L 166.29 155.32 C 166.29 154.46 165.59 153.75 164.73 153.75 C 163.86 153.75 163.16 154.46 163.16 155.32 Z M 163.16 156.33 L 163.16 157.32 C 163.16 158.19 163.86 158.89 164.73 158.89 C 165.59 158.89 166.29 158.19 166.29 157.32 L 166.29 156.33 C 166.29 155.46 165.59 154.76 164.73 154.76 C 163.86 154.76 163.16 155.46 163.16 156.33 Z M 163.16 157.32 L 163.16 158.34 C 163.16 159.20 163.86 159.91 164.73 159.90 C 165.59 159.90 166.30 159.20 166.29 158.34 L 166.29 157.32 C 166.29 156.46 165.59 155.76 164.73 155.76 C 163.86 155.76 163.16 156.46 163.16 157.32 Z M 163.16 158.35 L 163.16 159.34 C 163.17 160.21 163.87 160.90 164.74 160.90 C 165.61 160.89 166.30 160.19 166.30 159.32 L 166.30 158.33 C 166.29 157.46 165.59 156.76 164.72 156.77 C 163.85 156.77 163.15 157.48 163.16 158.35 Z M 163.16 159.36 L 163.18 160.36 C 163.20 161.23 163.91 161.91 164.78 161.90 C 165.65 161.88 166.34 161.17 166.32 160.30 L 166.30 159.30 C 166.28 158.44 165.57 157.75 164.70 157.76 C 163.84 157.78 163.15 158.49 163.16 159.36 Z M 163.18 160.40 L 163.23 161.39 C 163.27 162.26 164.00 162.93 164.86 162.89 C 165.73 162.85 166.40 162.12 166.36 161.25 L 166.32 160.26 C 166.28 159.39 165.55 158.72 164.68 158.76 C 163.82 158.80 163.15 159.53 163.18 160.40 Z M 163.23 161.45 L 163.31 162.44 C 163.38 163.30 164.14 163.94 165.00 163.87 C 165.87 163.80 166.51 163.05 166.44 162.18 L 166.36 161.19 C 166.29 160.33 165.53 159.69 164.67 159.76 C 163.80 159.83 163.16 160.58 163.23 161.45 Z M 163.32 162.47 L 163.42 163.47 C 163.51 164.33 164.29 164.96 165.15 164.86 C 166.01 164.77 166.63 164.00 166.54 163.14 L 166.44 162.14 C 166.34 161.28 165.57 160.66 164.71 160.75 C 163.85 160.84 163.22 161.61 163.32 162.47 Z M 163.42 163.48 L 163.53 164.44 C 163.63 165.30 164.40 165.92 165.27 165.82 C 166.13 165.72 166.75 164.94 166.65 164.08 L 166.54 163.13 C 166.44 162.27 165.67 161.65 164.80 161.74 C 163.94 161.84 163.32 162.62 163.42 163.48 Z M 163.53 164.47 L 163.68 165.50 C 163.79 166.36 164.58 166.96 165.44 166.84 C 166.30 166.72 166.90 165.93 166.78 165.07 L 166.64 164.05 C 166.53 163.19 165.73 162.59 164.88 162.71 C 164.02 162.82 163.42 163.61 163.53 164.47 Z M 163.68 165.56 L 163.86 166.55 C 164.01 167.40 164.82 167.97 165.67 167.82 C 166.53 167.67 167.10 166.86 166.95 166.01 L 166.78 165.02 C 166.63 164.16 165.81 163.59 164.96 163.74 C 164.11 163.89 163.53 164.70 163.68 165.56 Z M 163.87 166.61 L 164.09 167.60 C 164.27 168.44 165.11 168.98 165.95 168.79 C 166.80 168.61 167.34 167.77 167.15 166.93 L 166.94 165.94 C 166.75 165.10 165.92 164.56 165.07 164.75 C 164.22 164.93 163.69 165.77 163.87 166.61 Z M 164.11 167.69 L 164.40 168.69 C 164.64 169.52 165.51 170.00 166.34 169.76 C 167.17 169.52 167.65 168.65 167.41 167.82 L 167.13 166.83 C 166.89 165.99 166.02 165.51 165.18 165.75 C 164.35 165.99 163.87 166.86 164.11 167.69 Z M 164.46 168.87 L 164.84 169.75 C 165.17 170.55 166.09 170.92 166.89 170.58 C 167.69 170.24 168.06 169.32 167.72 168.53 L 167.35 167.64 C 167.01 166.85 166.09 166.47 165.29 166.81 C 164.50 167.15 164.12 168.07 164.46 168.87 Z M 164.98 170.01 L 165.54 170.85 C 166.03 171.57 167.00 171.76 167.72 171.27 C 168.43 170.79 168.62 169.82 168.14 169.10 L 167.58 168.26 C 167.09 167.55 166.12 167.36 165.40 167.84 C 164.69 168.32 164.50 169.30 164.98 170.01 Z M 165.94 171.25 L 166.73 171.81 C 167.44 172.30 168.42 172.13 168.91 171.42 C 169.41 170.71 169.23 169.74 168.53 169.24 L 167.74 168.69 C 167.03 168.20 166.05 168.37 165.56 169.08 C 165.06 169.78 165.24 170.76 165.94 171.25 Z M 167.44 172.07 L 168.42 172.19 C 169.27 172.29 170.05 171.68 170.15 170.83 C 170.25 169.97 169.64 169.20 168.79 169.09 L 167.82 168.98 C 166.96 168.87 166.18 169.48 166.08 170.34 C 165.98 171.19 166.59 171.97 167.44 172.07 Z M 169.07 172.12 L 169.97 171.84 C 170.79 171.58 171.25 170.71 170.99 169.89 C 170.73 169.07 169.86 168.62 169.04 168.87 L 168.14 169.16 C 167.32 169.42 166.86 170.29 167.12 171.11 C 167.38 171.93 168.25 172.38 169.07 172.12 Z M 170.41 171.61 L 171.19 171.05 C 171.89 170.55 172.04 169.59 171.55 168.89 C 171.05 168.20 170.08 168.04 169.39 168.54 L 168.60 169.10 C 167.91 169.60 167.75 170.56 168.25 171.26 C 168.75 171.95 169.71 172.11 170.41 171.61 Z M 171.38 170.87 L 172.14 170.11 C 172.74 169.50 172.73 168.53 172.13 167.93 C 171.52 167.34 170.55 167.34 169.95 167.95 L 169.20 168.71 C 168.60 169.32 168.61 170.29 169.21 170.89 C 169.81 171.48 170.79 171.48 171.38 170.87 Z M 172.21 170.01 L 172.85 169.25 C 173.40 168.61 173.31 167.65 172.67 167.10 C 172.03 166.56 171.07 166.64 170.52 167.29 L 169.88 168.04 C 169.34 168.69 169.42 169.65 170.06 170.19 C 170.71 170.74 171.67 170.65 172.21 170.01 Z M 172.88 169.20 L 173.51 168.38 C 174.02 167.73 173.91 166.78 173.25 166.26 C 172.59 165.75 171.64 165.87 171.13 166.53 L 170.49 167.34 C 169.98 168.00 170.10 168.95 170.76 169.46 C 171.42 169.97 172.37 169.86 172.88 169.20 Z M 173.52 168.34 L 174.13 167.51 C 174.62 166.85 174.48 165.91 173.81 165.42 C 173.15 164.93 172.21 165.08 171.73 165.74 L 171.12 166.57 C 170.63 167.24 170.77 168.17 171.43 168.66 C 172.10 169.15 173.03 169.01 173.52 168.34 Z M 174.13 167.48 L 174.72 166.64 C 175.19 165.97 175.03 165.05 174.37 164.58 C 173.70 164.12 172.78 164.28 172.31 164.94 L 171.72 165.78 C 171.26 166.44 171.42 167.36 172.08 167.83 C 172.75 168.30 173.67 168.14 174.13 167.48 Z M 174.72 166.61 L 175.26 165.81 C 175.71 165.15 175.54 164.25 174.88 163.80 C 174.22 163.35 173.32 163.52 172.87 164.18 L 172.32 164.97 C 171.87 165.63 172.04 166.53 172.70 166.99 C 173.36 167.44 174.26 167.27 174.72 166.61 Z M 175.25 165.80 L 175.41 165.56 C 175.85 164.90 175.68 164.01 175.03 163.57 C 174.37 163.13 173.48 163.30 173.04 163.95 L 172.88 164.19 C 172.43 164.85 172.60 165.74 173.26 166.18 C 173.91 166.62 174.81 166.45 175.25 165.80 Z"
      fill="black"
      fill-rule="nonzero" /><path d="M 142.15 129.28 L 143.01 128.74 C 143.72 128.29 143.93 127.34 143.48 126.63 C 143.03 125.91 142.09 125.70 141.37 126.15 L 140.51 126.70 C 139.80 127.15 139.58 128.09 140.04 128.81 C 140.49 129.52 141.43 129.73 142.15 129.28 Z M 142.91 128.82 L 143.78 128.36 C 144.53 127.97 144.83 127.03 144.43 126.27 C 144.04 125.51 143.10 125.22 142.34 125.62 L 141.47 126.07 C 140.71 126.47 140.42 127.40 140.82 128.16 C 141.21 128.92 142.15 129.21 142.91 128.82 Z M 143.56 128.46 L 144.50 128.14 C 145.32 127.87 145.75 126.98 145.47 126.17 C 145.19 125.35 144.31 124.92 143.49 125.20 L 142.55 125.52 C 141.74 125.79 141.31 126.68 141.58 127.49 C 141.86 128.31 142.75 128.74 143.56 128.46 Z M 144.38 128.18 L 145.34 127.93 C 146.17 127.72 146.68 126.88 146.46 126.04 C 146.25 125.21 145.41 124.71 144.58 124.92 L 143.62 125.16 C 142.78 125.37 142.28 126.22 142.49 127.05 C 142.70 127.88 143.55 128.39 144.38 128.18 Z M 145.35 127.92 L 146.24 127.69 C 147.07 127.48 147.57 126.63 147.35 125.80 C 147.13 124.98 146.29 124.48 145.46 124.70 L 144.57 124.93 C 143.74 125.14 143.24 125.99 143.46 126.82 C 143.68 127.64 144.52 128.14 145.35 127.92 Z M 146.25 127.68 L 147.29 127.40 C 148.11 127.18 148.60 126.33 148.38 125.51 C 148.15 124.69 147.31 124.21 146.49 124.43 L 145.45 124.71 C 144.63 124.93 144.14 125.77 144.37 126.59 C 144.59 127.41 145.43 127.90 146.25 127.68 Z M 147.29 127.39 L 148.22 127.14 C 149.04 126.92 149.52 126.08 149.30 125.26 C 149.08 124.45 148.24 123.96 147.43 124.18 L 146.49 124.44 C 145.67 124.66 145.19 125.50 145.41 126.31 C 145.63 127.13 146.47 127.61 147.29 127.39 Z M 148.23 127.13 L 149.21 126.86 C 150.02 126.63 150.50 125.80 150.27 124.99 C 150.05 124.18 149.21 123.70 148.41 123.93 L 147.42 124.20 C 146.61 124.42 146.14 125.26 146.36 126.06 C 146.58 126.87 147.42 127.35 148.23 127.13 Z M 149.22 126.84 L 150.21 126.56 C 151.01 126.33 151.47 125.49 151.24 124.69 C 151.01 123.89 150.18 123.43 149.38 123.66 L 148.39 123.94 C 147.59 124.17 147.13 125.01 147.36 125.81 C 147.59 126.61 148.42 127.07 149.22 126.84 Z M 150.23 126.53 L 151.28 126.21 C 152.07 125.97 152.51 125.13 152.27 124.35 C 152.02 123.56 151.19 123.12 150.40 123.36 L 149.36 123.68 C 148.57 123.92 148.13 124.76 148.37 125.55 C 148.61 126.33 149.45 126.78 150.23 126.53 Z M 151.29 126.19 L 152.23 125.89 C 153.01 125.64 153.43 124.81 153.19 124.04 C 152.94 123.26 152.11 122.83 151.34 123.08 L 150.39 123.38 C 149.62 123.63 149.19 124.46 149.44 125.23 C 149.68 126.01 150.51 126.44 151.29 126.19 Z M 152.21 125.87 L 153.13 125.59 C 153.90 125.36 154.33 124.55 154.09 123.78 C 153.86 123.01 153.05 122.58 152.28 122.81 L 151.36 123.09 C 150.59 123.33 150.16 124.14 150.39 124.91 C 150.63 125.68 151.44 126.11 152.21 125.87 Z M 153.08 125.59 L 154.05 125.33 C 154.81 125.12 155.27 124.33 155.06 123.57 C 154.85 122.80 154.06 122.35 153.29 122.55 L 152.33 122.81 C 151.56 123.02 151.11 123.81 151.32 124.58 C 151.52 125.35 152.31 125.80 153.08 125.59 Z M 154.02 125.33 L 154.46 125.22 C 155.23 125.02 155.69 124.25 155.50 123.48 C 155.31 122.72 154.53 122.25 153.77 122.44 L 153.32 122.56 C 152.56 122.75 152.09 123.52 152.28 124.29 C 152.48 125.06 153.25 125.52 154.02 125.33 Z"
      fill="black"
      fill-rule="nonzero" /><path d="M 147.92 126.39 L 147.04 126.90 C 146.33 127.30 146.09 128.19 146.49 128.90 C 146.89 129.60 147.79 129.84 148.49 129.44 L 149.38 128.94 C 150.08 128.54 150.32 127.64 149.92 126.94 C 149.52 126.23 148.63 125.99 147.92 126.39 Z M 146.47 127.44 L 146.03 128.24 C 145.63 128.95 145.88 129.86 146.59 130.26 C 147.31 130.66 148.21 130.40 148.61 129.69 L 149.06 128.90 C 149.46 128.18 149.20 127.28 148.49 126.88 C 147.77 126.48 146.87 126.73 146.47 127.44 Z M 145.84 128.88 L 145.78 129.91 C 145.74 130.73 146.36 131.43 147.18 131.47 C 147.99 131.52 148.69 130.90 148.74 130.08 L 148.79 129.05 C 148.84 128.23 148.22 127.53 147.40 127.49 C 146.59 127.44 145.89 128.06 145.84 128.88 Z M 145.80 130.00 L 145.80 131.00 C 145.80 131.80 146.46 132.46 147.26 132.46 C 148.06 132.46 148.72 131.80 148.72 131.00 L 148.72 130.00 C 148.72 129.19 148.06 128.54 147.26 128.54 C 146.46 128.54 145.80 129.19 145.80 130.00 Z M 145.83 131.00 L 145.83 131.55 C 145.83 132.35 146.47 132.99 147.26 132.99 C 148.05 132.99 148.69 132.35 148.69 131.55 L 148.69 131.00 C 148.69 130.21 148.05 129.57 147.26 129.57 C 146.47 129.57 145.83 130.21 145.83 131.00 Z"
      fill="black"
      fill-rule="nonzero" /><path d="M 141.31 136.02 L 142.29 136.11 C 143.11 136.19 143.84 135.58 143.92 134.76 C 144.00 133.93 143.39 133.20 142.57 133.12 L 141.59 133.03 C 140.77 132.95 140.04 133.56 139.96 134.38 C 139.88 135.21 140.49 135.94 141.31 136.02 Z M 142.55 136.14 L 143.54 136.06 C 144.38 135.99 145.00 135.25 144.93 134.41 C 144.86 133.56 144.12 132.94 143.28 133.01 L 142.30 133.09 C 141.45 133.16 140.83 133.90 140.90 134.75 C 140.97 135.59 141.71 136.21 142.55 136.14 Z M 143.78 136.03 L 144.75 135.79 C 145.58 135.58 146.08 134.74 145.87 133.91 C 145.66 133.09 144.82 132.59 144.00 132.79 L 143.03 133.04 C 142.20 133.24 141.70 134.08 141.91 134.91 C 142.12 135.74 142.96 136.24 143.78 136.03 Z M 144.80 135.77 L 145.79 135.49 C 146.61 135.25 147.08 134.39 146.84 133.58 C 146.60 132.76 145.75 132.29 144.93 132.52 L 143.94 132.81 C 143.12 133.05 142.65 133.90 142.89 134.72 C 143.13 135.54 143.98 136.01 144.80 135.77 Z M 145.77 135.49 L 146.73 135.23 C 147.55 135.00 148.04 134.15 147.81 133.33 C 147.58 132.51 146.73 132.03 145.91 132.25 L 144.95 132.52 C 144.13 132.74 143.65 133.59 143.87 134.41 C 144.10 135.24 144.95 135.72 145.77 135.49 Z M 146.71 135.23 L 147.69 134.98 C 148.52 134.76 149.01 133.92 148.80 133.10 C 148.58 132.27 147.74 131.78 146.92 131.99 L 145.93 132.25 C 145.11 132.46 144.62 133.30 144.83 134.13 C 145.05 134.95 145.89 135.45 146.71 135.23 Z M 147.67 134.98 L 148.65 134.74 C 149.47 134.53 149.98 133.70 149.77 132.87 C 149.57 132.05 148.73 131.54 147.91 131.75 L 146.93 131.99 C 146.11 132.20 145.61 133.03 145.81 133.86 C 146.02 134.68 146.85 135.18 147.67 134.98 Z M 148.64 134.73 L 149.61 134.50 C 150.43 134.29 150.94 133.46 150.74 132.64 C 150.53 131.81 149.70 131.31 148.88 131.51 L 147.91 131.75 C 147.09 131.95 146.58 132.79 146.79 133.61 C 146.99 134.43 147.82 134.94 148.64 134.73 Z M 149.61 134.49 L 150.59 134.25 C 151.41 134.04 151.91 133.21 151.71 132.39 C 151.51 131.57 150.68 131.07 149.85 131.27 L 148.87 131.52 C 148.05 131.72 147.55 132.55 147.76 133.37 C 147.96 134.20 148.79 134.70 149.61 134.49 Z M 150.58 134.25 L 151.55 134.02 C 152.37 133.82 152.87 132.99 152.68 132.17 C 152.48 131.35 151.65 130.85 150.83 131.04 L 149.87 131.28 C 149.05 131.47 148.54 132.30 148.74 133.12 C 148.94 133.94 149.76 134.44 150.58 134.25 Z M 151.51 134.02 L 152.45 133.82 C 153.27 133.65 153.80 132.84 153.63 132.01 C 153.45 131.19 152.64 130.67 151.82 130.84 L 150.87 131.04 C 150.05 131.21 149.53 132.02 149.70 132.85 C 149.87 133.67 150.68 134.19 151.51 134.02 Z M 152.36 133.83 L 153.36 133.68 C 154.19 133.56 154.76 132.78 154.63 131.95 C 154.51 131.12 153.73 130.55 152.90 130.68 L 151.91 130.83 C 151.08 130.95 150.51 131.73 150.63 132.56 C 150.76 133.39 151.53 133.96 152.36 133.83 Z M 153.23 133.69 L 154.31 133.62 C 155.14 133.57 155.77 132.85 155.72 132.01 C 155.67 131.17 154.94 130.54 154.11 130.60 L 153.03 130.67 C 152.19 130.72 151.56 131.44 151.62 132.28 C 151.67 133.11 152.39 133.75 153.23 133.69 Z M 154.04 133.62 L 155.05 133.73 C 155.88 133.82 156.63 133.23 156.73 132.40 C 156.82 131.56 156.22 130.81 155.39 130.72 L 154.38 130.60 C 153.55 130.51 152.79 131.11 152.70 131.94 C 152.61 132.77 153.20 133.52 154.04 133.62 Z M 154.33 133.45 L 155.02 133.95 C 155.70 134.44 156.65 134.29 157.14 133.61 C 157.63 132.93 157.48 131.99 156.80 131.50 L 156.11 131.00 C 155.43 130.50 154.48 130.66 153.99 131.34 C 153.50 132.01 153.65 132.96 154.33 133.45 Z M 154.43 133.04 L 154.63 133.99 C 154.80 134.82 155.61 135.34 156.43 135.17 C 157.25 134.99 157.77 134.19 157.60 133.37 L 157.40 132.41 C 157.22 131.59 156.42 131.07 155.60 131.24 C 154.78 131.41 154.25 132.22 154.43 133.04 Z M 154.60 133.51 L 154.48 134.56 C 154.39 135.39 154.99 136.14 155.82 136.24 C 156.66 136.33 157.41 135.74 157.51 134.90 L 157.62 133.85 C 157.72 133.02 157.12 132.27 156.29 132.17 C 155.45 132.08 154.70 132.67 154.60 133.51 Z M 154.53 134.33 L 154.27 135.28 C 154.04 136.09 154.52 136.93 155.33 137.15 C 156.14 137.37 156.98 136.89 157.20 136.08 L 157.46 135.13 C 157.68 134.32 157.21 133.48 156.40 133.26 C 155.59 133.04 154.75 133.52 154.53 134.33 Z M 154.30 135.16 L 153.98 136.06 C 153.69 136.85 154.10 137.72 154.89 138.01 C 155.68 138.29 156.55 137.89 156.84 137.10 L 157.16 136.20 C 157.45 135.41 157.04 134.54 156.25 134.25 C 155.46 133.96 154.59 134.37 154.30 135.16 Z M 154.00 136.01 L 153.62 136.95 C 153.31 137.73 153.69 138.61 154.47 138.92 C 155.24 139.23 156.13 138.86 156.44 138.08 L 156.81 137.14 C 157.13 136.37 156.75 135.48 155.97 135.17 C 155.19 134.86 154.31 135.24 154.00 136.01 Z M 153.64 136.93 L 153.24 137.86 C 152.92 138.63 153.28 139.52 154.05 139.84 C 154.82 140.17 155.70 139.81 156.03 139.04 L 156.42 138.10 C 156.75 137.33 156.39 136.45 155.62 136.12 C 154.85 135.80 153.96 136.16 153.64 136.93 Z M 153.26 137.85 L 152.85 138.78 C 152.52 139.54 152.87 140.43 153.63 140.76 C 154.39 141.09 155.28 140.74 155.61 139.98 L 156.02 139.05 C 156.35 138.29 156.00 137.40 155.24 137.07 C 154.47 136.74 153.59 137.09 153.26 137.85 Z M 152.87 138.77 L 152.44 139.72 C 152.10 140.47 152.44 141.35 153.19 141.69 C 153.95 142.03 154.83 141.70 155.17 140.94 L 155.60 139.99 C 155.93 139.24 155.60 138.36 154.85 138.02 C 154.09 137.68 153.21 138.01 152.87 138.77 Z M 152.49 139.65 L 152.05 140.50 C 151.67 141.23 151.95 142.12 152.68 142.50 C 153.40 142.88 154.30 142.59 154.67 141.87 L 155.12 141.01 C 155.50 140.29 155.21 139.39 154.49 139.02 C 153.76 138.64 152.87 138.92 152.49 139.65 Z M 152.17 140.34 L 151.59 141.15 C 151.13 141.81 151.28 142.72 151.94 143.19 C 152.60 143.65 153.51 143.50 153.98 142.84 L 154.55 142.03 C 155.02 141.37 154.86 140.46 154.21 139.99 C 153.55 139.53 152.64 139.68 152.17 140.34 Z M 151.69 141.06 L 151.24 141.58 C 150.72 142.19 150.80 143.10 151.40 143.62 C 152.01 144.14 152.92 144.06 153.44 143.46 L 153.88 142.93 C 154.40 142.33 154.33 141.42 153.72 140.90 C 153.11 140.38 152.20 140.45 151.69 141.06 Z"
      fill="black"
      fill-rule="nonzero" /><path d="M 144.77 142.06 L 145.61 141.53 C 146.31 141.09 146.52 140.16 146.08 139.46 C 145.63 138.75 144.70 138.54 144.00 138.99 L 143.16 139.52 C 142.46 139.96 142.25 140.89 142.70 141.60 C 143.14 142.30 144.07 142.51 144.77 142.06 Z M 145.51 141.62 L 146.39 141.16 C 147.14 140.77 147.43 139.85 147.04 139.10 C 146.65 138.35 145.73 138.06 144.98 138.45 L 144.10 138.90 C 143.35 139.29 143.06 140.22 143.45 140.96 C 143.84 141.71 144.76 142.01 145.51 141.62 Z M 146.22 141.24 L 147.10 140.91 C 147.89 140.62 148.29 139.73 148.00 138.94 C 147.70 138.15 146.82 137.75 146.02 138.04 L 145.15 138.37 C 144.35 138.67 143.95 139.55 144.25 140.34 C 144.55 141.14 145.43 141.54 146.22 141.24 Z M 147.00 140.94 L 148.03 140.62 C 148.84 140.38 149.30 139.53 149.05 138.73 C 148.81 137.92 147.96 137.47 147.16 137.71 L 146.12 138.02 C 145.32 138.26 144.86 139.11 145.10 139.92 C 145.34 140.72 146.19 141.18 147.00 140.94 Z M 148.00 140.62 L 148.97 140.35 C 149.78 140.13 150.25 139.30 150.03 138.49 C 149.80 137.69 148.97 137.22 148.17 137.44 L 147.19 137.71 C 146.39 137.93 145.92 138.76 146.14 139.57 C 146.36 140.37 147.19 140.85 148.00 140.62 Z M 148.95 140.35 L 149.94 140.09 C 150.74 139.88 151.22 139.06 151.01 138.26 C 150.80 137.45 149.98 136.98 149.18 137.19 L 148.19 137.45 C 147.39 137.66 146.91 138.48 147.12 139.28 C 147.33 140.08 148.15 140.56 148.95 140.35 Z M 149.91 140.08 L 150.92 139.83 C 151.72 139.64 152.20 138.84 152.01 138.04 C 151.82 137.24 151.01 136.75 150.22 136.95 L 149.21 137.19 C 148.41 137.39 147.93 138.19 148.12 138.99 C 148.31 139.78 149.12 140.27 149.91 140.08 Z M 150.85 139.83 L 151.83 139.63 C 152.62 139.47 153.14 138.70 152.98 137.91 C 152.82 137.12 152.05 136.60 151.26 136.76 L 150.28 136.96 C 149.49 137.11 148.97 137.89 149.13 138.68 C 149.29 139.47 150.06 139.99 150.85 139.83 Z M 151.72 139.63 L 152.65 139.52 C 153.44 139.42 154.01 138.70 153.91 137.91 C 153.81 137.12 153.09 136.55 152.30 136.65 L 151.37 136.76 C 150.58 136.86 150.01 137.58 150.11 138.37 C 150.21 139.16 150.93 139.73 151.72 139.63 Z M 152.56 139.51 L 153.56 139.45 C 154.34 139.41 154.95 138.73 154.90 137.94 C 154.85 137.15 154.17 136.55 153.39 136.59 L 152.39 136.65 C 151.60 136.70 151.00 137.38 151.05 138.17 C 151.09 138.96 151.77 139.56 152.56 139.51 Z M 153.54 139.45 L 153.66 139.44 C 154.44 139.41 155.05 138.74 155.02 137.95 C 154.98 137.17 154.31 136.56 153.53 136.59 L 153.41 136.60 C 152.62 136.63 152.01 137.30 152.04 138.09 C 152.08 138.88 152.75 139.49 153.54 139.45 Z"
      fill="black"
      fill-rule="nonzero" /><path d="M 144.41 148.38 L 145.30 148.05 C 146.06 147.76 146.44 146.92 146.16 146.15 C 145.87 145.39 145.03 145.01 144.26 145.29 L 143.38 145.62 C 142.62 145.91 142.23 146.76 142.51 147.52 C 142.80 148.28 143.65 148.67 144.41 148.38 Z M 145.32 148.07 L 146.29 147.69 C 147.07 147.40 147.45 146.53 147.15 145.76 C 146.86 144.99 145.99 144.60 145.22 144.90 L 144.24 145.27 C 143.47 145.57 143.09 146.44 143.38 147.21 C 143.68 147.98 144.55 148.36 145.32 148.07 Z M 146.31 147.69 L 147.22 147.33 C 147.99 147.02 148.37 146.15 148.06 145.38 C 147.76 144.60 146.88 144.23 146.11 144.53 L 145.20 144.90 C 144.43 145.20 144.05 146.08 144.36 146.85 C 144.67 147.62 145.54 148.00 146.31 147.69 Z M 147.23 147.32 L 148.18 146.93 C 148.94 146.62 149.31 145.74 149.00 144.98 C 148.68 144.21 147.81 143.85 147.04 144.16 L 146.10 144.55 C 145.33 144.86 144.97 145.74 145.28 146.50 C 145.59 147.27 146.47 147.63 147.23 147.32 Z M 148.19 146.92 L 149.15 146.51 C 149.91 146.19 150.26 145.32 149.94 144.56 C 149.62 143.81 148.75 143.45 147.99 143.77 L 147.03 144.18 C 146.28 144.50 145.92 145.37 146.24 146.12 C 146.56 146.88 147.43 147.23 148.19 146.92 Z M 149.16 146.49 L 150.10 146.08 C 150.85 145.76 151.19 144.89 150.86 144.14 C 150.54 143.40 149.67 143.06 148.93 143.38 L 147.98 143.79 C 147.24 144.11 146.90 144.98 147.22 145.73 C 147.55 146.47 148.41 146.81 149.16 146.49 Z M 150.11 146.06 L 150.97 145.68 C 151.71 145.35 152.04 144.49 151.71 143.75 C 151.38 143.02 150.52 142.69 149.79 143.01 L 148.92 143.40 C 148.18 143.73 147.85 144.59 148.18 145.32 C 148.51 146.06 149.37 146.39 150.11 146.06 Z M 150.97 145.66 L 151.91 145.24 C 152.63 144.91 152.95 144.05 152.62 143.33 C 152.30 142.60 151.44 142.28 150.72 142.61 L 149.78 143.03 C 149.06 143.36 148.74 144.21 149.06 144.94 C 149.39 145.67 150.25 145.99 150.97 145.66 Z M 151.90 145.22 L 152.53 144.94 C 153.25 144.61 153.57 143.76 153.24 143.04 C 152.91 142.32 152.06 142.01 151.35 142.33 L 150.72 142.62 C 150.00 142.95 149.68 143.80 150.01 144.52 C 150.34 145.24 151.19 145.55 151.90 145.22 Z"
      fill="black"
      fill-rule="nonzero" /><path d="M 145.72 133.95 L 144.60 133.72 C 143.80 133.55 143.03 134.07 142.86 134.86 C 142.70 135.66 143.21 136.44 144.01 136.60 L 145.12 136.83 C 145.92 137.00 146.70 136.48 146.86 135.69 C 147.03 134.89 146.51 134.11 145.72 133.95 Z M 143.99 133.69 L 143.23 133.85 C 142.41 134.02 141.90 134.82 142.07 135.63 C 142.24 136.45 143.04 136.97 143.85 136.79 L 144.62 136.63 C 145.43 136.46 145.95 135.66 145.78 134.85 C 145.60 134.04 144.81 133.52 143.99 133.69 Z M 142.04 135.02 L 141.86 135.93 C 141.69 136.76 142.23 137.56 143.06 137.73 C 143.89 137.89 144.69 137.36 144.86 136.53 L 145.04 135.62 C 145.20 134.79 144.67 133.99 143.84 133.82 C 143.01 133.66 142.20 134.19 142.04 135.02 Z M 141.82 136.42 L 141.95 137.46 C 142.06 138.31 142.83 138.91 143.68 138.80 C 144.53 138.69 145.13 137.92 145.02 137.08 L 144.89 136.04 C 144.79 135.19 144.01 134.59 143.17 134.69 C 142.32 134.80 141.72 135.57 141.82 136.42 Z M 141.96 137.53 L 142.13 138.52 C 142.27 139.37 143.08 139.93 143.92 139.79 C 144.77 139.64 145.34 138.83 145.19 137.99 L 145.02 137.00 C 144.87 136.15 144.07 135.59 143.22 135.73 C 142.37 135.88 141.81 136.69 141.96 137.53 Z M 142.12 138.53 L 142.28 139.42 C 142.43 140.27 143.24 140.83 144.09 140.68 C 144.94 140.53 145.50 139.72 145.35 138.87 L 145.19 137.98 C 145.04 137.13 144.23 136.57 143.39 136.72 C 142.54 136.87 141.97 137.68 142.12 138.53 Z M 142.28 139.40 L 142.43 140.35 C 142.57 141.20 143.37 141.78 144.22 141.64 C 145.07 141.51 145.65 140.71 145.51 139.85 L 145.36 138.90 C 145.22 138.05 144.42 137.47 143.57 137.61 C 142.72 137.74 142.14 138.54 142.28 139.40 Z M 142.42 140.32 L 142.58 141.42 C 142.70 142.28 143.49 142.87 144.34 142.75 C 145.20 142.63 145.79 141.85 145.67 140.99 L 145.52 139.89 C 145.40 139.03 144.61 138.44 143.76 138.56 C 142.90 138.68 142.31 139.46 142.42 140.32 Z M 142.58 141.40 L 142.69 142.30 C 142.79 143.15 143.57 143.76 144.42 143.66 C 145.28 143.55 145.89 142.77 145.79 141.92 L 145.68 141.02 C 145.57 140.16 144.79 139.55 143.94 139.66 C 143.08 139.76 142.47 140.54 142.58 141.40 Z M 142.68 142.28 L 142.79 143.27 C 142.89 144.12 143.66 144.74 144.51 144.65 C 145.37 144.56 145.99 143.79 145.90 142.93 L 145.79 141.94 C 145.69 141.08 144.92 140.46 144.07 140.55 C 143.21 140.65 142.59 141.42 142.68 142.28 Z M 142.79 143.25 L 142.89 144.30 C 142.97 145.16 143.74 145.79 144.59 145.70 C 145.45 145.62 146.08 144.86 146.00 144.00 L 145.90 142.95 C 145.82 142.09 145.05 141.46 144.19 141.54 C 143.34 141.63 142.71 142.39 142.79 143.25 Z M 142.89 144.28 L 142.98 145.34 C 143.05 146.20 143.80 146.84 144.66 146.77 C 145.52 146.70 146.16 145.95 146.09 145.09 L 146.00 144.02 C 145.93 143.17 145.18 142.53 144.32 142.60 C 143.46 142.67 142.82 143.42 142.89 144.28 Z M 142.98 145.32 L 143.05 146.33 C 143.10 147.18 143.85 147.83 144.70 147.78 C 145.56 147.72 146.21 146.98 146.15 146.12 L 146.08 145.11 C 146.03 144.25 145.29 143.61 144.43 143.66 C 143.57 143.72 142.92 144.46 142.98 145.32 Z M 143.05 146.31 L 143.11 147.31 C 143.15 148.17 143.88 148.82 144.74 148.78 C 145.59 148.73 146.25 148.00 146.20 147.15 L 146.15 146.14 C 146.10 145.29 145.37 144.63 144.52 144.68 C 143.66 144.72 143.01 145.45 143.05 146.31 Z M 143.11 147.29 L 143.15 148.29 C 143.19 149.14 143.91 149.80 144.76 149.77 C 145.61 149.73 146.27 149.02 146.24 148.16 L 146.19 147.17 C 146.16 146.32 145.44 145.65 144.59 145.69 C 143.74 145.73 143.08 146.44 143.11 147.29 Z M 143.16 148.27 L 143.19 149.26 C 143.21 150.10 143.92 150.77 144.77 150.74 C 145.62 150.72 146.28 150.01 146.26 149.16 L 146.23 148.18 C 146.20 147.33 145.50 146.67 144.65 146.69 C 143.80 146.72 143.13 147.43 143.16 148.27 Z M 143.20 149.24 L 143.22 150.35 C 143.23 151.19 143.93 151.86 144.77 151.85 C 145.62 151.83 146.29 151.13 146.27 150.29 L 146.25 149.18 C 146.23 148.34 145.54 147.67 144.69 147.68 C 143.85 147.70 143.18 148.39 143.20 149.24 Z M 143.23 150.33 L 143.24 151.38 C 143.25 152.22 143.93 152.89 144.77 152.88 C 145.61 152.88 146.28 152.19 146.27 151.35 L 146.26 150.31 C 146.25 149.47 145.57 148.80 144.73 148.80 C 143.89 148.81 143.22 149.50 143.23 150.33 Z M 143.25 151.37 L 143.25 152.32 C 143.25 153.15 143.93 153.82 144.76 153.82 C 145.59 153.82 146.27 153.14 146.26 152.31 L 146.26 151.36 C 146.26 150.53 145.58 149.86 144.75 149.86 C 143.92 149.86 143.25 150.54 143.25 151.37 Z M 143.26 152.31 L 143.26 153.30 C 143.26 154.13 143.93 154.79 144.76 154.79 C 145.58 154.79 146.25 154.13 146.25 153.30 L 146.25 152.31 C 146.25 151.49 145.58 150.82 144.76 150.82 C 143.93 150.82 143.26 151.49 143.26 152.31 Z M 143.28 153.29 L 143.27 154.33 C 143.27 155.15 143.93 155.81 144.74 155.82 C 145.56 155.82 146.23 155.16 146.23 154.35 L 146.24 153.31 C 146.24 152.49 145.58 151.83 144.77 151.82 C 143.95 151.82 143.28 152.48 143.28 153.29 Z M 143.29 154.29 L 143.26 155.17 C 143.24 155.98 143.87 156.66 144.68 156.68 C 145.49 156.71 146.16 156.07 146.19 155.26 L 146.21 154.38 C 146.24 153.58 145.61 152.90 144.80 152.88 C 143.99 152.85 143.31 153.48 143.29 154.29 Z M 143.28 155.11 L 143.20 156.11 C 143.15 156.91 143.75 157.61 144.55 157.66 C 145.35 157.72 146.04 157.12 146.10 156.32 L 146.17 155.32 C 146.23 154.52 145.63 153.83 144.83 153.77 C 144.03 153.71 143.33 154.31 143.28 155.11 Z M 143.21 156.09 L 143.18 156.45 C 143.11 157.25 143.70 157.95 144.49 158.02 C 145.29 158.09 145.99 157.50 146.06 156.71 L 146.09 156.34 C 146.16 155.55 145.57 154.85 144.78 154.78 C 143.99 154.71 143.28 155.29 143.21 156.09 Z"
      fill="black"
      fill-rule="nonzero" /><path d="M 146.03 152.56 L 146.83 151.97 C 147.50 151.48 147.64 150.55 147.15 149.88 C 146.66 149.22 145.73 149.08 145.07 149.57 L 144.26 150.16 C 143.60 150.65 143.46 151.58 143.95 152.24 C 144.43 152.91 145.37 153.05 146.03 152.56 Z M 146.68 152.10 L 147.56 151.61 C 148.29 151.21 148.55 150.28 148.15 149.55 C 147.74 148.82 146.82 148.55 146.09 148.96 L 145.21 149.44 C 144.48 149.84 144.22 150.77 144.62 151.50 C 145.03 152.24 145.95 152.50 146.68 152.10 Z M 147.37 151.71 L 148.30 151.35 C 149.09 151.05 149.48 150.17 149.18 149.38 C 148.88 148.60 148.00 148.20 147.21 148.50 L 146.27 148.86 C 145.49 149.16 145.10 150.05 145.40 150.83 C 145.70 151.62 146.58 152.01 147.37 151.71 Z M 148.22 151.37 L 149.14 151.07 C 149.93 150.82 150.37 149.97 150.12 149.17 C 149.86 148.37 149.01 147.94 148.21 148.19 L 147.30 148.48 C 146.50 148.74 146.06 149.59 146.32 150.39 C 146.57 151.18 147.42 151.62 148.22 151.37 Z M 149.07 151.08 L 150.05 150.81 C 150.85 150.60 151.33 149.77 151.11 148.97 C 150.89 148.17 150.07 147.70 149.27 147.92 L 148.28 148.18 C 147.48 148.40 147.01 149.23 147.23 150.02 C 147.45 150.82 148.27 151.30 149.07 151.08 Z M 149.99 150.81 L 150.97 150.59 C 151.77 150.41 152.28 149.62 152.10 148.82 C 151.92 148.02 151.12 147.51 150.32 147.69 L 149.34 147.92 C 148.54 148.10 148.03 148.89 148.21 149.69 C 148.39 150.49 149.19 150.99 149.99 150.81 Z M 150.88 150.59 L 151.89 150.43 C 152.69 150.30 153.24 149.54 153.11 148.74 C 152.97 147.94 152.22 147.40 151.42 147.53 L 150.41 147.69 C 149.61 147.82 149.07 148.58 149.20 149.38 C 149.33 150.18 150.08 150.72 150.88 150.59 Z M 151.80 150.42 L 152.78 150.32 C 153.58 150.25 154.16 149.54 154.09 148.74 C 154.01 147.95 153.30 147.36 152.50 147.44 L 151.52 147.54 C 150.72 147.61 150.14 148.32 150.21 149.12 C 150.29 149.92 151.00 150.50 151.80 150.42 Z M 152.75 150.31 L 153.10 150.29 C 153.89 150.23 154.48 149.54 154.42 148.75 C 154.36 147.96 153.67 147.37 152.88 147.43 L 152.54 147.45 C 151.75 147.51 151.15 148.20 151.21 148.99 C 151.27 149.78 151.96 150.37 152.75 150.31 Z"
      fill="black"
      fill-rule="nonzero" /><path d="M 146.42 159.60 L 147.03 158.92 C 147.61 158.30 147.56 157.33 146.93 156.75 C 146.31 156.18 145.34 156.23 144.76 156.85 L 144.15 157.53 C 143.58 158.15 143.62 159.12 144.25 159.70 C 144.87 160.27 145.85 160.22 146.42 159.60 Z M 146.86 159.09 L 147.70 158.43 C 148.37 157.89 148.47 156.92 147.94 156.25 C 147.41 155.59 146.44 155.48 145.77 156.01 L 144.93 156.68 C 144.27 157.21 144.16 158.19 144.69 158.85 C 145.23 159.52 146.20 159.63 146.86 159.09 Z M 147.50 158.57 L 148.33 158.10 C 149.07 157.68 149.34 156.73 148.91 155.99 C 148.49 155.24 147.55 154.98 146.80 155.40 L 145.97 155.87 C 145.23 156.29 144.97 157.24 145.39 157.98 C 145.81 158.73 146.75 158.99 147.50 158.57 Z M 148.22 158.16 L 149.15 157.72 C 149.93 157.36 150.27 156.44 149.91 155.66 C 149.55 154.89 148.62 154.55 147.85 154.91 L 146.91 155.34 C 146.14 155.70 145.80 156.63 146.16 157.40 C 146.52 158.18 147.44 158.52 148.22 158.16 Z M 149.09 157.75 L 150.04 157.36 C 150.83 157.03 151.21 156.13 150.89 155.34 C 150.56 154.55 149.65 154.17 148.86 154.49 L 147.91 154.88 C 147.12 155.21 146.74 156.11 147.07 156.91 C 147.39 157.70 148.30 158.08 149.09 157.75 Z M 150.00 157.38 L 150.99 157.00 C 151.79 156.70 152.20 155.81 151.90 155.01 C 151.59 154.20 150.70 153.80 149.90 154.10 L 148.91 154.48 C 148.10 154.78 147.70 155.67 148.00 156.47 C 148.30 157.27 149.20 157.68 150.00 157.38 Z M 150.96 157.01 L 151.87 156.69 C 152.68 156.41 153.11 155.53 152.83 154.72 C 152.54 153.91 151.66 153.49 150.85 153.77 L 149.93 154.09 C 149.13 154.37 148.70 155.25 148.98 156.06 C 149.26 156.87 150.15 157.30 150.96 157.01 Z M 151.85 156.70 L 152.78 156.39 C 153.59 156.12 154.03 155.24 153.76 154.43 C 153.49 153.62 152.61 153.18 151.80 153.45 L 150.87 153.76 C 150.06 154.03 149.62 154.91 149.89 155.72 C 150.16 156.53 151.04 156.97 151.85 156.70 Z M 152.76 156.40 L 153.72 156.09 C 154.54 155.84 154.99 154.97 154.73 154.15 C 154.48 153.34 153.61 152.88 152.79 153.14 L 151.83 153.45 C 151.01 153.70 150.56 154.57 150.82 155.39 C 151.07 156.20 151.94 156.66 152.76 156.40 Z M 153.68 156.11 L 154.62 155.84 C 155.45 155.61 155.92 154.75 155.69 153.93 C 155.46 153.11 154.61 152.63 153.78 152.86 L 152.84 153.13 C 152.02 153.36 151.54 154.21 151.77 155.04 C 152.00 155.86 152.85 156.34 153.68 156.11 Z M 154.55 155.86 L 155.56 155.63 C 156.39 155.44 156.91 154.61 156.72 153.78 C 156.53 152.95 155.71 152.43 154.87 152.61 L 153.86 152.84 C 153.03 153.03 152.51 153.86 152.70 154.69 C 152.89 155.52 153.71 156.05 154.55 155.86 Z M 155.46 155.65 L 156.40 155.50 C 157.25 155.36 157.82 154.57 157.69 153.73 C 157.55 152.89 156.76 152.31 155.92 152.45 L 154.97 152.60 C 154.13 152.73 153.56 153.52 153.69 154.36 C 153.82 155.21 154.62 155.78 155.46 155.65 Z M 156.28 155.51 L 157.28 155.43 C 158.13 155.37 158.76 154.63 158.70 153.78 C 158.63 152.93 157.89 152.29 157.04 152.36 L 156.05 152.44 C 155.20 152.50 154.56 153.24 154.63 154.09 C 154.69 154.94 155.43 155.57 156.28 155.51 Z M 157.16 155.43 L 158.17 155.44 C 159.02 155.44 159.71 154.75 159.71 153.90 C 159.71 153.05 159.03 152.36 158.18 152.36 L 157.16 152.36 C 156.31 152.36 155.62 153.04 155.62 153.89 C 155.62 154.74 156.31 155.43 157.16 155.43 Z M 157.87 155.40 L 158.83 155.60 C 159.66 155.77 160.47 155.23 160.64 154.40 C 160.81 153.57 160.28 152.76 159.45 152.59 L 158.48 152.39 C 157.65 152.22 156.84 152.76 156.67 153.59 C 156.50 154.42 157.03 155.23 157.87 155.40 Z M 158.03 155.16 L 158.69 155.84 C 159.28 156.45 160.25 156.47 160.86 155.88 C 161.47 155.29 161.49 154.31 160.90 153.70 L 160.24 153.02 C 159.65 152.41 158.68 152.40 158.07 152.99 C 157.46 153.58 157.44 154.55 158.03 155.16 Z M 158.33 155.27 L 158.66 156.22 C 158.93 157.03 159.80 157.46 160.61 157.19 C 161.42 156.91 161.85 156.04 161.58 155.23 L 161.25 154.28 C 160.98 153.47 160.11 153.04 159.30 153.31 C 158.49 153.58 158.06 154.46 158.33 155.27 Z M 158.59 155.95 L 158.73 156.93 C 158.85 157.78 159.64 158.36 160.48 158.24 C 161.32 158.12 161.91 157.33 161.79 156.49 L 161.65 155.50 C 161.52 154.66 160.74 154.07 159.90 154.20 C 159.05 154.32 158.47 155.10 158.59 155.95 Z M 158.71 156.78 L 158.76 157.77 C 158.79 158.62 159.52 159.28 160.37 159.24 C 161.22 159.21 161.89 158.48 161.85 157.63 L 161.80 156.64 C 161.77 155.79 161.04 155.13 160.19 155.17 C 159.34 155.20 158.68 155.93 158.71 156.78 Z M 158.75 157.69 L 158.75 158.72 C 158.75 159.57 159.44 160.27 160.30 160.27 C 161.15 160.27 161.85 159.58 161.85 158.72 L 161.85 157.70 C 161.85 156.85 161.16 156.15 160.31 156.15 C 159.45 156.15 158.76 156.84 158.75 157.69 Z M 158.75 158.67 L 158.72 159.65 C 158.70 160.51 159.37 161.22 160.23 161.25 C 161.08 161.27 161.79 160.60 161.82 159.75 L 161.85 158.77 C 161.87 157.91 161.20 157.20 160.35 157.17 C 159.49 157.15 158.78 157.82 158.75 158.67 Z M 158.73 159.58 L 158.65 160.60 C 158.58 161.45 159.22 162.19 160.07 162.26 C 160.92 162.33 161.67 161.69 161.73 160.84 L 161.82 159.82 C 161.88 158.97 161.25 158.22 160.39 158.16 C 159.54 158.09 158.80 158.72 158.73 159.58 Z M 158.66 160.49 L 158.51 161.47 C 158.39 162.32 158.98 163.11 159.82 163.23 C 160.67 163.35 161.46 162.77 161.58 161.92 L 161.72 160.94 C 161.85 160.10 161.26 159.31 160.41 159.19 C 159.57 159.06 158.78 159.65 158.66 160.49 Z M 158.53 161.39 L 158.33 162.38 C 158.16 163.22 158.70 164.03 159.54 164.20 C 160.37 164.38 161.19 163.83 161.36 163.00 L 161.57 162.01 C 161.74 161.17 161.20 160.35 160.36 160.18 C 159.52 160.01 158.70 160.55 158.53 161.39 Z M 158.35 162.30 L 158.11 163.23 C 157.90 164.06 158.39 164.90 159.22 165.11 C 160.05 165.33 160.90 164.83 161.11 164.00 L 161.35 163.07 C 161.56 162.24 161.06 161.40 160.23 161.19 C 159.40 160.97 158.56 161.47 158.35 162.30 Z M 158.13 163.16 L 157.83 164.12 C 157.58 164.94 158.04 165.80 158.86 166.05 C 159.68 166.30 160.54 165.85 160.79 165.03 L 161.09 164.07 C 161.34 163.25 160.88 162.38 160.06 162.13 C 159.24 161.88 158.38 162.34 158.13 163.16 Z M 157.85 164.07 L 157.52 165.03 C 157.24 165.84 157.67 166.72 158.48 167.00 C 159.28 167.28 160.16 166.85 160.44 166.04 L 160.77 165.08 C 161.05 164.27 160.62 163.39 159.82 163.11 C 159.01 162.84 158.13 163.26 157.85 164.07 Z M 157.54 164.99 L 157.18 165.94 C 156.88 166.74 157.28 167.63 158.07 167.93 C 158.87 168.23 159.76 167.83 160.06 167.04 L 160.42 166.08 C 160.73 165.29 160.33 164.40 159.53 164.09 C 158.73 163.79 157.84 164.19 157.54 164.99 Z M 157.21 165.88 L 156.81 166.81 C 156.47 167.59 156.84 168.49 157.62 168.83 C 158.40 169.16 159.31 168.80 159.64 168.02 L 160.04 167.09 C 160.37 166.31 160.01 165.41 159.23 165.07 C 158.44 164.74 157.54 165.10 157.21 165.88 Z M 156.86 166.71 L 156.38 167.66 C 155.99 168.41 156.29 169.33 157.04 169.72 C 157.80 170.11 158.72 169.81 159.11 169.06 L 159.59 168.11 C 159.98 167.36 159.68 166.44 158.92 166.05 C 158.17 165.66 157.25 165.96 156.86 166.71 Z M 156.46 167.53 L 155.94 168.35 C 155.48 169.06 155.69 170.00 156.39 170.45 C 157.10 170.91 158.04 170.70 158.50 170.00 L 159.02 169.18 C 159.48 168.47 159.27 167.53 158.56 167.08 C 157.86 166.62 156.91 166.83 156.46 167.53 Z M 156.05 168.22 L 155.42 168.99 C 154.89 169.63 154.98 170.58 155.63 171.11 C 156.27 171.64 157.22 171.55 157.75 170.90 L 158.38 170.13 C 158.91 169.49 158.82 168.54 158.17 168.01 C 157.53 167.48 156.58 167.57 156.05 168.22 Z M 155.59 168.84 L 154.85 169.50 C 154.24 170.04 154.19 170.99 154.73 171.60 C 155.28 172.21 156.22 172.27 156.84 171.72 L 157.58 171.06 C 158.19 170.51 158.24 169.57 157.69 168.95 C 157.15 168.34 156.20 168.29 155.59 168.84 Z M 155.15 169.32 L 154.29 169.78 C 153.57 170.16 153.30 171.05 153.69 171.76 C 154.07 172.48 154.96 172.75 155.67 172.36 L 156.54 171.90 C 157.25 171.52 157.52 170.63 157.13 169.91 C 156.75 169.20 155.86 168.93 155.15 169.32 Z M 154.57 169.69 L 153.63 169.97 C 152.86 170.19 152.42 170.99 152.65 171.76 C 152.88 172.52 153.68 172.96 154.44 172.73 L 155.39 172.45 C 156.15 172.23 156.59 171.43 156.36 170.66 C 156.14 169.90 155.33 169.46 154.57 169.69 Z M 153.69 169.96 L 153.63 169.98 C 152.87 170.17 152.40 170.94 152.59 171.71 C 152.78 172.48 153.56 172.94 154.32 172.75 L 154.38 172.74 C 155.15 172.55 155.61 171.77 155.42 171.00 C 155.23 170.24 154.45 169.77 153.69 169.96 Z"
      fill="black"
      fill-rule="nonzero" /><path d="M 134.44 159.19 L 133.47 159.57 C 132.70 159.88 132.32 160.76 132.62 161.54 C 132.93 162.32 133.81 162.70 134.59 162.39 L 135.56 162.00 C 136.33 161.69 136.71 160.81 136.40 160.04 C 136.10 159.26 135.22 158.88 134.44 159.19 Z M 132.52 160.77 L 132.42 161.51 C 132.30 162.34 132.88 163.11 133.72 163.23 C 134.55 163.34 135.32 162.76 135.44 161.93 L 135.54 161.19 C 135.66 160.36 135.08 159.59 134.24 159.47 C 133.41 159.36 132.64 159.94 132.52 160.77 Z M 132.60 162.48 L 133.16 163.45 C 133.58 164.18 134.51 164.44 135.24 164.02 C 135.98 163.60 136.23 162.66 135.81 161.93 L 135.25 160.96 C 134.83 160.23 133.90 159.97 133.17 160.39 C 132.43 160.81 132.18 161.75 132.60 162.48 Z M 133.30 163.65 L 133.89 164.38 C 134.41 165.04 135.37 165.14 136.03 164.61 C 136.69 164.08 136.79 163.12 136.26 162.47 L 135.67 161.73 C 135.14 161.08 134.18 160.97 133.53 161.50 C 132.87 162.03 132.77 162.99 133.30 163.65 Z M 133.96 164.45 L 134.67 165.21 C 135.24 165.83 136.19 165.87 136.81 165.30 C 137.42 164.73 137.46 163.77 136.89 163.16 L 136.19 162.40 C 135.62 161.78 134.66 161.74 134.05 162.31 C 133.43 162.88 133.39 163.84 133.96 164.45 Z M 134.71 165.24 L 135.42 165.95 C 136.00 166.54 136.95 166.55 137.54 165.97 C 138.13 165.38 138.14 164.43 137.55 163.84 L 136.85 163.13 C 136.27 162.54 135.31 162.54 134.72 163.12 C 134.14 163.70 134.13 164.65 134.71 165.24 Z M 135.45 165.97 L 136.18 166.67 C 136.77 167.24 137.71 167.22 138.28 166.63 C 138.85 166.04 138.83 165.10 138.24 164.53 L 137.52 163.83 C 136.93 163.26 135.99 163.28 135.42 163.87 C 134.85 164.46 134.86 165.40 135.45 165.97 Z M 136.22 166.69 L 136.97 167.37 C 137.57 167.92 138.50 167.87 139.05 167.27 C 139.59 166.67 139.55 165.74 138.95 165.20 L 138.20 164.52 C 137.60 163.97 136.67 164.01 136.13 164.61 C 135.58 165.21 135.62 166.14 136.22 166.69 Z M 137.02 167.39 L 137.79 168.05 C 138.40 168.57 139.32 168.50 139.84 167.89 C 140.36 167.28 140.29 166.36 139.68 165.84 L 138.91 165.18 C 138.30 164.66 137.38 164.73 136.86 165.34 C 136.33 165.95 136.41 166.87 137.02 167.39 Z M 137.82 168.06 L 138.59 168.69 C 139.21 169.19 140.11 169.10 140.62 168.48 C 141.12 167.86 141.03 166.95 140.41 166.45 L 139.64 165.83 C 139.03 165.32 138.12 165.42 137.62 166.03 C 137.11 166.65 137.21 167.56 137.82 168.06 Z M 138.61 168.69 L 138.98 168.99 C 139.60 169.48 140.50 169.38 140.99 168.77 C 141.49 168.15 141.39 167.25 140.77 166.75 L 140.40 166.45 C 139.78 165.96 138.88 166.06 138.38 166.67 C 137.89 167.29 137.99 168.19 138.61 168.69 Z"
      fill="black"
      fill-rule="nonzero" /><path d="M 140.63 161.23 L 140.92 162.16 C 141.16 162.95 141.99 163.39 142.78 163.15 C 143.56 162.91 144.00 162.07 143.76 161.29 L 143.48 160.36 C 143.23 159.57 142.40 159.13 141.62 159.37 C 140.83 159.62 140.39 160.45 140.63 161.23 Z M 140.98 162.37 L 141.40 163.27 C 141.76 164.02 142.65 164.34 143.41 163.99 C 144.16 163.64 144.48 162.74 144.13 161.99 L 143.70 161.09 C 143.35 160.33 142.45 160.01 141.70 160.37 C 140.95 160.72 140.63 161.62 140.98 162.37 Z M 141.52 163.47 L 142.05 164.26 C 142.52 164.95 143.46 165.13 144.14 164.66 C 144.83 164.19 145.01 163.26 144.55 162.57 L 144.01 161.78 C 143.54 161.09 142.61 160.91 141.92 161.38 C 141.23 161.85 141.05 162.79 141.52 163.47 Z M 142.10 164.31 L 142.75 165.17 C 143.25 165.83 144.19 165.96 144.85 165.47 C 145.51 164.97 145.64 164.03 145.14 163.37 L 144.49 162.51 C 144.00 161.85 143.06 161.72 142.40 162.22 C 141.74 162.72 141.61 163.65 142.10 164.31 Z M 142.75 165.15 L 143.36 165.97 C 143.84 166.63 144.77 166.77 145.43 166.29 C 146.09 165.80 146.23 164.87 145.75 164.21 L 145.14 163.39 C 144.65 162.73 143.73 162.59 143.07 163.08 C 142.41 163.56 142.26 164.49 142.75 165.15 Z M 143.36 165.96 L 143.95 166.78 C 144.43 167.43 145.35 167.58 146.01 167.11 C 146.67 166.63 146.81 165.71 146.34 165.05 L 145.74 164.23 C 145.27 163.57 144.35 163.43 143.69 163.90 C 143.03 164.38 142.88 165.30 143.36 165.96 Z M 143.97 166.77 L 144.57 167.60 C 145.05 168.25 145.96 168.39 146.61 167.92 C 147.26 167.45 147.40 166.53 146.93 165.88 L 146.32 165.06 C 145.85 164.41 144.94 164.26 144.29 164.74 C 143.64 165.21 143.49 166.12 143.97 166.77 Z M 144.60 167.61 L 145.18 168.39 C 145.66 169.03 146.56 169.16 147.20 168.68 C 147.84 168.21 147.97 167.30 147.49 166.67 L 146.90 165.88 C 146.43 165.24 145.52 165.11 144.89 165.59 C 144.25 166.07 144.12 166.97 144.60 167.61 Z M 145.20 168.39 L 145.46 168.73 C 145.93 169.36 146.83 169.49 147.46 169.01 C 148.09 168.53 148.21 167.64 147.74 167.01 L 147.48 166.67 C 147.00 166.04 146.10 165.91 145.48 166.39 C 144.85 166.87 144.72 167.76 145.20 168.39 Z"
      fill="black"
      fill-rule="nonzero" /><path d="M 147.02 160.55 L 146.89 161.54 C 146.79 162.36 147.37 163.11 148.19 163.22 C 149.01 163.32 149.76 162.74 149.87 161.92 L 150.00 160.93 C 150.11 160.11 149.53 159.36 148.70 159.25 C 147.88 159.14 147.13 159.72 147.02 160.55 Z M 146.87 161.90 L 146.98 162.86 C 147.07 163.70 147.82 164.30 148.66 164.21 C 149.50 164.11 150.10 163.36 150.01 162.52 L 149.90 161.56 C 149.80 160.72 149.05 160.12 148.21 160.21 C 147.38 160.31 146.77 161.06 146.87 161.90 Z M 147.06 163.25 L 147.43 164.19 C 147.74 164.98 148.63 165.37 149.42 165.06 C 150.20 164.75 150.59 163.86 150.29 163.07 L 149.92 162.13 C 149.61 161.35 148.72 160.96 147.93 161.27 C 147.14 161.57 146.76 162.46 147.06 163.25 Z M 147.51 164.34 L 147.93 165.15 C 148.32 165.89 149.25 166.18 149.99 165.79 C 150.74 165.40 151.02 164.47 150.63 163.73 L 150.21 162.92 C 149.82 162.18 148.89 161.89 148.15 162.28 C 147.40 162.68 147.11 163.60 147.51 164.34 Z M 147.97 165.19 L 148.48 166.07 C 148.89 166.80 149.82 167.05 150.54 166.63 C 151.27 166.21 151.52 165.29 151.10 164.56 L 150.59 163.68 C 150.18 162.96 149.25 162.71 148.53 163.13 C 147.80 163.54 147.55 164.47 147.97 165.19 Z M 148.49 166.07 L 149.00 166.95 C 149.41 167.66 150.33 167.91 151.05 167.49 C 151.76 167.08 152.01 166.16 151.59 165.44 L 151.09 164.57 C 150.67 163.85 149.75 163.61 149.04 164.02 C 148.32 164.44 148.08 165.35 148.49 166.07 Z M 149.01 166.94 L 149.49 167.77 C 149.90 168.48 150.80 168.73 151.52 168.32 C 152.23 167.91 152.47 167.00 152.06 166.29 L 151.58 165.45 C 151.18 164.74 150.27 164.50 149.56 164.91 C 148.84 165.31 148.60 166.22 149.01 166.94 Z M 149.50 167.76 L 150.01 168.67 C 150.42 169.38 151.32 169.62 152.03 169.22 C 152.73 168.81 152.98 167.91 152.57 167.21 L 152.06 166.30 C 151.65 165.59 150.75 165.35 150.04 165.75 C 149.34 166.15 149.09 167.06 149.50 167.76 Z M 150.02 168.66 L 150.47 169.44 C 150.87 170.14 151.76 170.39 152.46 169.99 C 153.17 169.59 153.41 168.69 153.01 167.99 L 152.57 167.21 C 152.16 166.51 151.27 166.27 150.57 166.67 C 149.87 167.07 149.62 167.96 150.02 168.66 Z"
      fill="black"
      fill-rule="nonzero" /><path d="M 152.30 162.66 L 153.04 163.30 C 153.67 163.82 154.60 163.75 155.13 163.13 C 155.66 162.50 155.58 161.57 154.96 161.04 L 154.21 160.41 C 153.59 159.88 152.65 159.95 152.13 160.58 C 151.60 161.20 151.67 162.13 152.30 162.66 Z M 152.85 163.17 L 153.51 163.93 C 154.06 164.57 155.03 164.64 155.67 164.08 C 156.30 163.53 156.37 162.57 155.82 161.93 L 155.15 161.17 C 154.60 160.53 153.64 160.46 153.00 161.01 C 152.36 161.57 152.29 162.53 152.85 163.17 Z M 153.33 163.70 L 153.83 164.57 C 154.26 165.31 155.20 165.56 155.93 165.14 C 156.67 164.71 156.92 163.77 156.50 163.03 L 156.00 162.16 C 155.57 161.42 154.63 161.17 153.89 161.60 C 153.16 162.02 152.90 162.96 153.33 163.70 Z M 153.78 164.42 L 154.19 165.34 C 154.53 166.11 155.43 166.45 156.20 166.11 C 156.97 165.77 157.31 164.87 156.97 164.10 L 156.55 163.18 C 156.21 162.41 155.31 162.07 154.54 162.41 C 153.78 162.76 153.43 163.66 153.78 164.42 Z M 154.19 165.26 L 154.55 166.20 C 154.85 166.97 155.71 167.35 156.48 167.05 C 157.25 166.75 157.63 165.89 157.33 165.12 L 156.97 164.18 C 156.67 163.41 155.81 163.03 155.04 163.33 C 154.27 163.63 153.89 164.49 154.19 165.26 Z M 154.56 166.13 L 154.87 167.05 C 155.13 167.82 155.96 168.23 156.72 167.97 C 157.49 167.71 157.90 166.88 157.64 166.12 L 157.33 165.19 C 157.07 164.43 156.24 164.01 155.47 164.27 C 154.71 164.53 154.30 165.36 154.56 166.13 Z M 154.88 167.00 L 155.17 167.96 C 155.40 168.72 156.21 169.15 156.97 168.92 C 157.73 168.69 158.16 167.88 157.92 167.12 L 157.63 166.16 C 157.40 165.40 156.59 164.97 155.83 165.21 C 155.07 165.44 154.64 166.24 154.88 167.00 Z M 155.18 167.95 L 155.31 168.40 C 155.53 169.16 156.33 169.59 157.09 169.37 C 157.84 169.14 158.28 168.35 158.05 167.59 L 157.92 167.14 C 157.69 166.38 156.90 165.95 156.14 166.17 C 155.38 166.39 154.95 167.19 155.18 167.95 Z"
      fill="black"
      fill-rule="nonzero" /></svg>