<svg xmlns="http://www.w3.org/2000/svg" width="300" height="300" viewBox="0 0 300 300">
<path d="M 132.46 136.63 L 133.45 136.53 C 134.29 136.44 134.89 135.69 134.80 134.85 C 134.71 134.02 133.97 133.41 133.13 133.50 L 132.13 133.61 C 131.30 133.70 130.69 134.45 130.78 135.28 C 130.87 136.12 131.62 136.72 132.46 136.63 Z M 133.42 136.54 L 134.41 136.46 C 135.26 136.39 135.89 135.65 135.81 134.80 C 135.74 133.96 135.00 133.33 134.16 133.40 L 133.16 133.49 C 132.32 133.56 131.69 134.30 131.76 135.14 C 131.83 135.98 132.57 136.61 133.42 136.54 Z M 134.34 136.47 L 135.33 136.44 C 136.18 136.40 136.84 135.69 136.81 134.84 C 136.78 133.99 136.07 133.32 135.21 133.35 L 134.23 133.39 C 133.38 133.42 132.71 134.13 132.74 134.99 C 132.78 135.84 133.49 136.50 134.34 136.47 Z M 135.20 136.44 L 136.19 136.49 C 137.05 136.52 137.77 135.86 137.81 135.00 C 137.84 134.15 137.18 133.42 136.32 133.39 L 135.34 133.34 C 134.48 133.31 133.76 133.97 133.72 134.83 C 133.68 135.68 134.35 136.41 135.20 136.44 Z M 136.01 136.48 L 137.03 136.64 C 137.88 136.77 138.68 136.19 138.81 135.34 C 138.95 134.49 138.36 133.69 137.51 133.56 L 136.50 133.40 C 135.65 133.26 134.85 133.84 134.72 134.69 C 134.58 135.54 135.16 136.34 136.01 136.48 Z M 136.85 136.60 L 137.85 136.88 C 138.68 137.11 139.54 136.63 139.77 135.80 C 140.01 134.97 139.52 134.10 138.69 133.87 L 137.69 133.59 C 136.86 133.36 136.00 133.84 135.77 134.67 C 135.53 135.50 136.02 136.37 136.85 136.60 Z M 137.73 136.84 L 138.67 137.19 C 139.48 137.49 140.38 137.08 140.68 136.27 C 140.98 135.46 140.57 134.56 139.76 134.26 L 138.81 133.91 C 138.00 133.61 137.10 134.02 136.80 134.83 C 136.50 135.64 136.92 136.54 137.73 136.84 Z M 138.58 137.15 L 139.51 137.57 C 140.30 137.92 141.22 137.56 141.57 136.77 C 141.92 135.99 141.57 135.06 140.78 134.71 L 139.85 134.30 C 139.06 133.95 138.14 134.30 137.79 135.09 C 137.44 135.88 137.79 136.80 138.58 137.15 Z M 139.40 137.51 L 140.25 137.98 C 141.01 138.39 141.96 138.11 142.38 137.35 C 142.79 136.59 142.51 135.64 141.75 135.23 L 140.89 134.77 C 140.13 134.35 139.18 134.63 138.77 135.39 C 138.36 136.15 138.64 137.10 139.40 137.51 Z M 140.15 137.92 L 140.93 138.43 C 141.65 138.90 142.62 138.70 143.09 137.97 C 143.57 137.24 143.36 136.27 142.64 135.80 L 141.86 135.29 C 141.13 134.82 140.16 135.02 139.69 135.75 C 139.22 136.48 139.42 137.45 140.15 137.92 Z M 140.84 138.37 L 141.65 138.98 C 142.35 139.50 143.33 139.35 143.85 138.66 C 144.37 137.96 144.23 136.98 143.53 136.46 L 142.72 135.86 C 142.03 135.34 141.04 135.48 140.52 136.17 C 140.00 136.87 140.15 137.85 140.84 138.37 Z M 141.57 138.92 L 142.33 139.57 C 143.00 140.13 143.99 140.05 144.55 139.39 C 145.12 138.72 145.04 137.73 144.37 137.16 L 143.61 136.52 C 142.95 135.95 141.95 136.04 141.39 136.70 C 140.83 137.36 140.91 138.36 141.57 138.92 Z M 142.26 139.51 L 143.00 140.21 C 143.63 140.81 144.63 140.79 145.23 140.15 C 145.83 139.52 145.81 138.52 145.18 137.92 L 144.44 137.22 C 143.81 136.62 142.81 136.64 142.21 137.27 C 141.61 137.91 141.63 138.91 142.26 139.51 Z M 142.93 140.15 L 143.61 140.88 C 144.21 141.52 145.21 141.55 145.85 140.96 C 146.49 140.36 146.53 139.36 145.93 138.72 L 145.25 137.98 C 144.65 137.34 143.64 137.31 143.00 137.90 C 142.36 138.50 142.33 139.51 142.93 140.15 Z M 143.54 140.81 L 144.18 141.58 C 144.73 142.26 145.74 142.35 146.41 141.80 C 147.09 141.24 147.19 140.24 146.63 139.56 L 146.00 138.79 C 145.44 138.11 144.44 138.01 143.76 138.57 C 143.08 139.13 142.99 140.13 143.54 140.81 Z M 144.11 141.50 L 144.69 142.30 C 145.21 143.02 146.20 143.18 146.91 142.66 C 147.63 142.15 147.79 141.15 147.27 140.44 L 146.70 139.64 C 146.18 138.92 145.19 138.76 144.47 139.28 C 143.76 139.79 143.60 140.79 144.11 141.50 Z M 144.64 142.23 L 145.18 143.07 C 145.65 143.81 146.64 144.03 147.38 143.56 C 148.12 143.08 148.34 142.10 147.86 141.35 L 147.33 140.51 C 146.85 139.77 145.87 139.55 145.12 140.03 C 144.38 140.50 144.17 141.49 144.64 142.23 Z M 145.14 143.01 L 145.64 143.88 C 146.08 144.64 147.05 144.91 147.81 144.47 C 148.58 144.03 148.84 143.06 148.41 142.29 L 147.90 141.42 C 147.47 140.65 146.49 140.39 145.73 140.83 C 144.96 141.27 144.70 142.24 145.14 143.01 Z M 145.60 143.82 L 146.06 144.70 C 146.46 145.48 147.42 145.79 148.21 145.39 C 148.99 144.99 149.30 144.02 148.90 143.24 L 148.44 142.36 C 148.04 141.57 147.08 141.26 146.29 141.67 C 145.51 142.07 145.20 143.03 145.60 143.82 Z M 146.02 144.63 L 146.44 145.55 C 146.80 146.35 147.74 146.71 148.55 146.35 C 149.35 145.99 149.71 145.04 149.35 144.24 L 148.93 143.31 C 148.57 142.51 147.62 142.15 146.82 142.51 C 146.02 142.88 145.66 143.82 146.02 144.63 Z M 146.40 145.47 L 146.76 146.39 C 147.08 147.22 148.00 147.62 148.83 147.31 C 149.65 146.99 150.06 146.06 149.74 145.24 L 149.38 144.32 C 149.06 143.49 148.14 143.09 147.32 143.40 C 146.49 143.72 146.08 144.65 146.40 145.47 Z M 146.74 146.33 L 147.06 147.28 C 147.34 148.12 148.25 148.56 149.08 148.28 C 149.92 148.00 150.37 147.09 150.08 146.26 L 149.76 145.31 C 149.48 144.47 148.57 144.02 147.74 144.30 C 146.90 144.58 146.45 145.49 146.74 146.33 Z M 147.04 147.23 L 147.33 148.18 C 147.58 149.02 148.48 149.50 149.32 149.24 C 150.16 148.99 150.64 148.10 150.39 147.25 L 150.10 146.31 C 149.84 145.46 148.95 144.98 148.11 145.24 C 147.26 145.50 146.79 146.39 147.04 147.23 Z M 147.32 148.13 L 147.58 149.09 C 147.81 149.94 148.69 150.44 149.54 150.21 C 150.39 149.98 150.89 149.10 150.66 148.25 L 150.40 147.29 C 150.17 146.44 149.29 145.94 148.44 146.17 C 147.59 146.40 147.08 147.28 147.32 148.13 Z M 147.56 149.04 L 147.80 150.04 C 148.01 150.90 148.87 151.43 149.73 151.22 C 150.59 151.02 151.12 150.15 150.91 149.30 L 150.67 148.30 C 150.46 147.44 149.60 146.91 148.74 147.12 C 147.89 147.32 147.36 148.18 147.56 149.04 Z M 147.79 150.00 L 148.00 150.98 C 148.18 151.85 149.03 152.40 149.89 152.22 C 150.75 152.04 151.31 151.19 151.13 150.33 L 150.92 149.34 C 150.74 148.48 149.89 147.93 149.03 148.11 C 148.17 148.29 147.61 149.13 147.79 150.00 Z M 147.99 150.94 L 148.17 151.93 C 148.32 152.80 149.15 153.38 150.02 153.22 C 150.89 153.07 151.47 152.24 151.31 151.37 L 151.14 150.37 C 150.98 149.51 150.15 148.93 149.28 149.08 C 148.41 149.24 147.83 150.07 147.99 150.94 Z M 148.16 151.88 L 148.31 152.87 C 148.44 153.75 149.25 154.35 150.12 154.22 C 150.99 154.09 151.60 153.28 151.47 152.41 L 151.32 151.42 C 151.19 150.54 150.38 149.94 149.51 150.07 C 148.64 150.20 148.03 151.01 148.16 151.88 Z M 148.30 152.82 L 148.41 153.83 C 148.51 154.71 149.30 155.34 150.17 155.24 C 151.05 155.15 151.68 154.36 151.59 153.48 L 151.48 152.47 C 151.38 151.59 150.59 150.96 149.71 151.05 C 148.84 151.15 148.20 151.94 148.30 152.82 Z M 148.41 153.77 L 148.48 154.74 C 148.54 155.62 149.31 156.28 150.19 156.21 C 151.07 156.14 151.73 155.38 151.66 154.50 L 151.59 153.53 C 151.53 152.65 150.76 151.99 149.88 152.06 C 149.00 152.13 148.34 152.89 148.41 153.77 Z M 148.47 154.70 L 148.52 155.71 C 148.57 156.59 149.32 157.27 150.20 157.23 C 151.08 157.18 151.76 156.43 151.72 155.55 L 151.67 154.54 C 151.62 153.66 150.88 152.98 149.99 153.02 C 149.11 153.06 148.43 153.81 148.47 154.70 Z M 148.52 155.68 L 148.56 156.68 C 148.58 157.56 149.32 158.25 150.21 158.22 C 151.09 158.19 151.78 157.45 151.75 156.57 L 151.72 155.58 C 151.69 154.69 150.95 154.00 150.07 154.03 C 149.18 154.06 148.49 154.80 148.52 155.68 Z M 148.55 156.67 L 148.58 157.68 C 148.61 158.57 149.35 159.26 150.23 159.24 C 151.11 159.21 151.81 158.47 151.78 157.59 L 151.75 156.58 C 151.73 155.69 150.99 155.00 150.11 155.02 C 149.22 155.05 148.53 155.79 148.55 156.67 Z M 148.58 157.68 L 148.61 158.67 C 148.63 159.55 149.37 160.25 150.25 160.22 C 151.13 160.20 151.83 159.47 151.81 158.58 L 151.78 157.60 C 151.76 156.71 151.03 156.01 150.14 156.04 C 149.26 156.06 148.56 156.79 148.58 157.68 Z M 148.61 158.65 L 148.62 159.65 C 148.63 160.54 149.36 161.25 150.24 161.23 C 151.13 161.22 151.84 160.50 151.82 159.61 L 151.81 158.60 C 151.80 157.72 151.07 157.01 150.19 157.02 C 149.30 157.04 148.60 157.76 148.61 158.65 Z M 148.62 159.64 L 148.62 160.62 C 148.63 161.50 149.34 162.22 150.23 162.22 C 151.11 162.21 151.83 161.50 151.83 160.61 L 151.82 159.63 C 151.82 158.74 151.10 158.03 150.22 158.03 C 149.33 158.03 148.62 158.75 148.62 159.64 Z M 148.62 160.61 L 148.62 161.62 C 148.62 162.50 149.34 163.22 150.23 163.22 C 151.11 163.22 151.83 162.50 151.83 161.62 L 151.83 160.61 C 151.83 159.73 151.11 159.01 150.23 159.01 C 149.34 159.01 148.62 159.73 148.62 160.61 Z M 148.62 161.62 L 148.62 162.59 C 148.62 163.48 149.34 164.20 150.22 164.20 C 151.11 164.20 151.83 163.48 151.83 162.59 L 151.83 161.62 C 151.83 160.73 151.11 160.01 150.23 160.01 C 149.34 160.01 148.62 160.73 148.62 161.62 Z M 148.62 162.58 L 148.61 163.56 C 148.60 164.45 149.32 165.17 150.20 165.18 C 151.09 165.19 151.81 164.48 151.82 163.59 L 151.83 162.61 C 151.84 161.72 151.12 161.00 150.24 160.99 C 149.35 160.98 148.63 161.69 148.62 162.58 Z M 148.61 163.52 L 148.58 164.54 C 148.55 165.43 149.24 166.17 150.13 166.20 C 151.01 166.23 151.76 165.53 151.79 164.65 L 151.82 163.63 C 151.85 162.75 151.16 162.00 150.27 161.97 C 149.38 161.94 148.64 162.64 148.61 163.52 Z M 148.58 164.50 L 148.52 165.51 C 148.47 166.40 149.14 167.16 150.03 167.21 C 150.91 167.26 151.67 166.59 151.72 165.70 L 151.78 164.69 C 151.84 163.80 151.16 163.04 150.28 162.99 C 149.39 162.94 148.63 163.62 148.58 164.50 Z M 148.53 165.47 L 148.42 166.68 C 148.34 167.56 148.99 168.34 149.88 168.42 C 150.76 168.50 151.54 167.85 151.61 166.96 L 151.72 165.75 C 151.80 164.87 151.15 164.09 150.26 164.01 C 149.38 163.93 148.60 164.58 148.53 165.47 Z M 148.47 166.39 L 148.35 166.82 C 148.12 167.68 148.62 168.56 149.47 168.80 C 150.32 169.03 151.20 168.53 151.44 167.68 L 151.56 167.25 C 151.80 166.40 151.30 165.52 150.45 165.28 C 149.59 165.04 148.71 165.54 148.47 166.39 Z M 151.49 167.17 L 151.43 166.03 C 151.38 165.16 150.64 164.48 149.76 164.52 C 148.88 164.57 148.20 165.32 148.25 166.20 L 148.31 167.33 C 148.35 168.21 149.10 168.89 149.98 168.84 C 150.86 168.80 151.53 168.05 151.49 167.17 Z M 151.42 166.10 L 151.41 165.07 C 151.40 164.19 150.68 163.49 149.81 163.50 C 148.93 163.51 148.23 164.23 148.24 165.11 L 148.26 166.13 C 148.27 167.01 148.98 167.71 149.86 167.70 C 150.73 167.69 151.43 166.97 151.42 166.10 Z M 151.40 165.08 L 151.40 164.09 C 151.40 163.22 150.69 162.52 149.82 162.52 C 148.95 162.52 148.25 163.23 148.25 164.10 L 148.25 165.09 C 148.25 165.96 148.96 166.66 149.83 166.66 C 150.70 166.66 151.40 165.95 151.40 165.08 Z M 151.40 164.11 L 151.41 163.17 C 151.42 162.30 150.72 161.59 149.85 161.58 C 148.98 161.57 148.27 162.27 148.26 163.14 L 148.25 164.08 C 148.24 164.95 148.94 165.66 149.81 165.67 C 150.68 165.68 151.39 164.98 151.40 164.11 Z M 151.41 163.24 L 151.47 162.19 C 151.52 161.32 150.86 160.57 149.98 160.52 C 149.11 160.47 148.36 161.14 148.31 162.01 L 148.25 163.06 C 148.20 163.94 148.87 164.68 149.74 164.73 C 150.62 164.78 151.36 164.12 151.41 163.24 Z M 151.47 162.27 L 151.57 161.32 C 151.66 160.44 151.03 159.66 150.16 159.57 C 149.29 159.48 148.51 160.11 148.42 160.98 L 148.32 161.93 C 148.22 162.80 148.85 163.58 149.73 163.68 C 150.60 163.77 151.38 163.14 151.47 162.27 Z M 151.57 161.36 L 151.70 160.33 C 151.81 159.46 151.20 158.67 150.34 158.55 C 149.47 158.44 148.67 159.05 148.56 159.92 L 148.42 160.94 C 148.31 161.81 148.92 162.61 149.79 162.72 C 150.65 162.84 151.45 162.23 151.57 161.36 Z M 151.70 160.36 L 151.85 159.35 C 151.98 158.48 151.38 157.67 150.51 157.55 C 149.65 157.42 148.84 158.01 148.71 158.88 L 148.56 159.89 C 148.43 160.76 149.03 161.56 149.89 161.69 C 150.76 161.82 151.57 161.23 151.70 160.36 Z M 151.84 159.36 L 152.00 158.39 C 152.14 157.52 151.55 156.71 150.69 156.57 C 149.82 156.43 149.01 157.02 148.87 157.88 L 148.72 158.86 C 148.58 159.72 149.16 160.54 150.03 160.68 C 150.89 160.81 151.70 160.23 151.84 159.36 Z M 151.99 158.39 L 152.16 157.41 C 152.30 156.55 151.72 155.74 150.86 155.60 C 149.99 155.45 149.18 156.04 149.04 156.90 L 148.88 157.88 C 148.73 158.74 149.32 159.55 150.18 159.70 C 151.04 159.84 151.85 159.25 151.99 158.39 Z M 152.15 157.41 L 152.30 156.50 C 152.44 155.64 151.86 154.83 151.00 154.69 C 150.14 154.55 149.33 155.14 149.19 156.00 L 149.04 156.90 C 148.90 157.76 149.49 158.57 150.35 158.71 C 151.21 158.85 152.02 158.27 152.15 157.41 Z M 152.30 156.49 L 152.45 155.54 C 152.58 154.68 151.99 153.88 151.13 153.74 C 150.28 153.61 149.47 154.20 149.34 155.06 L 149.19 156.01 C 149.06 156.87 149.64 157.67 150.50 157.80 C 151.36 157.94 152.17 157.35 152.30 156.49 Z M 152.45 155.53 L 152.60 154.47 C 152.73 153.61 152.14 152.81 151.28 152.68 C 150.42 152.56 149.62 153.15 149.50 154.01 L 149.34 155.07 C 149.21 155.93 149.80 156.73 150.66 156.85 C 151.52 156.98 152.32 156.39 152.45 155.53 Z M 152.60 154.46 L 152.75 153.43 C 152.88 152.57 152.28 151.78 151.42 151.65 C 150.56 151.53 149.77 152.13 149.64 152.99 L 149.50 154.02 C 149.37 154.88 149.97 155.67 150.83 155.79 C 151.69 155.92 152.48 155.32 152.60 154.46 Z M 152.75 153.43 L 152.89 152.41 C 153.01 151.56 152.42 150.76 151.56 150.64 C 150.70 150.52 149.90 151.12 149.78 151.98 L 149.64 152.99 C 149.52 153.85 150.12 154.64 150.98 154.76 C 151.84 154.88 152.63 154.28 152.75 153.43 Z M 152.90 152.41 L 153.04 151.40 C 153.16 150.54 152.56 149.74 151.70 149.62 C 150.84 149.50 150.05 150.10 149.93 150.96 L 149.78 151.98 C 149.66 152.84 150.26 153.63 151.12 153.75 C 151.98 153.87 152.77 153.27 152.90 152.41 Z M 153.04 151.40 L 153.18 150.43 C 153.30 149.57 152.71 148.77 151.85 148.65 C 150.99 148.53 150.19 149.12 150.07 149.98 L 149.93 150.95 C 149.80 151.81 150.40 152.61 151.26 152.73 C 152.12 152.86 152.91 152.26 153.04 151.40 Z M 153.18 150.44 L 153.34 149.39 C 153.47 148.53 152.88 147.73 152.02 147.60 C 151.16 147.47 150.36 148.06 150.23 148.91 L 150.07 149.97 C 149.94 150.83 150.53 151.63 151.39 151.76 C 152.24 151.89 153.05 151.30 153.18 150.44 Z M 153.33 149.40 L 153.49 148.41 C 153.63 147.56 153.05 146.75 152.19 146.61 C 151.34 146.47 150.53 147.05 150.39 147.91 L 150.23 148.90 C 150.09 149.76 150.68 150.56 151.53 150.70 C 152.39 150.84 153.20 150.26 153.33 149.40 Z M 153.49 148.42 L 153.64 147.50 C 153.79 146.64 153.21 145.83 152.35 145.69 C 151.50 145.55 150.69 146.13 150.55 146.98 L 150.39 147.90 C 150.25 148.76 150.83 149.57 151.68 149.71 C 152.54 149.85 153.35 149.27 153.49 148.42 Z M 153.64 147.50 L 153.81 146.52 C 153.95 145.67 153.37 144.86 152.52 144.72 C 151.66 144.58 150.85 145.15 150.71 146.01 L 150.55 146.98 C 150.41 147.84 150.98 148.64 151.84 148.79 C 152.69 148.93 153.50 148.35 153.64 147.50 Z M 153.80 146.53 L 153.97 145.54 C 154.12 144.68 153.55 143.87 152.69 143.73 C 151.84 143.58 151.03 144.15 150.88 145.01 L 150.71 146.00 C 150.57 146.86 151.14 147.67 151.99 147.81 C 152.85 147.96 153.66 147.38 153.80 146.53 Z M 153.97 145.56 L 154.15 144.59 C 154.31 143.74 153.75 142.92 152.89 142.76 C 152.04 142.60 151.23 143.17 151.07 144.02 L 150.89 144.99 C 150.73 145.84 151.29 146.66 152.14 146.81 C 152.99 146.97 153.81 146.41 153.97 145.56 Z M 154.14 144.63 L 154.35 143.63 C 154.53 142.78 153.99 141.95 153.15 141.77 C 152.30 141.59 151.47 142.13 151.29 142.98 L 151.08 143.98 C 150.90 144.82 151.44 145.65 152.28 145.83 C 153.13 146.01 153.96 145.47 154.14 144.63 Z M 154.34 143.68 L 154.58 142.71 C 154.79 141.88 154.27 141.03 153.43 140.82 C 152.60 140.61 151.75 141.12 151.54 141.96 L 151.30 142.93 C 151.09 143.76 151.61 144.61 152.45 144.82 C 153.29 145.03 154.13 144.52 154.34 143.68 Z M 154.56 142.77 L 154.83 141.82 C 155.07 140.99 154.59 140.13 153.76 139.89 C 152.93 139.65 152.06 140.13 151.82 140.96 L 151.55 141.91 C 151.32 142.74 151.80 143.61 152.63 143.84 C 153.46 144.08 154.33 143.60 154.56 142.77 Z M 154.82 141.88 L 155.13 140.93 C 155.39 140.11 154.95 139.22 154.12 138.96 C 153.30 138.69 152.42 139.14 152.15 139.96 L 151.84 140.91 C 151.57 141.73 152.02 142.61 152.84 142.88 C 153.66 143.15 154.55 142.70 154.82 141.88 Z M 155.10 140.99 L 155.45 140.06 C 155.76 139.25 155.35 138.35 154.54 138.04 C 153.73 137.74 152.83 138.15 152.52 138.96 L 152.17 139.89 C 151.87 140.70 152.28 141.60 153.09 141.91 C 153.90 142.21 154.80 141.80 155.10 140.99 Z M 155.42 140.13 L 155.83 139.18 C 156.18 138.39 155.81 137.47 155.02 137.13 C 154.23 136.78 153.31 137.15 152.96 137.94 L 152.55 138.89 C 152.21 139.68 152.58 140.60 153.37 140.94 C 154.16 141.29 155.08 140.92 155.42 140.13 Z M 155.79 139.28 L 156.24 138.40 C 156.64 137.63 156.34 136.68 155.57 136.29 C 154.81 135.89 153.86 136.19 153.47 136.96 L 153.01 137.85 C 152.61 138.61 152.91 139.56 153.68 139.95 C 154.45 140.35 155.39 140.05 155.79 139.28 Z M 156.16 138.54 L 156.72 137.69 C 157.19 136.97 156.99 136.00 156.27 135.53 C 155.55 135.05 154.58 135.25 154.10 135.98 L 153.55 136.82 C 153.07 137.54 153.27 138.51 154.00 138.99 C 154.72 139.46 155.69 139.26 156.16 138.54 Z M 156.59 137.85 L 157.24 137.10 C 157.80 136.45 157.73 135.46 157.08 134.90 C 156.42 134.34 155.44 134.41 154.87 135.06 L 154.23 135.81 C 153.66 136.47 153.74 137.45 154.39 138.02 C 155.04 138.58 156.03 138.51 156.59 137.85 Z M 157.11 137.23 L 157.84 136.56 C 158.48 135.97 158.52 134.99 157.93 134.35 C 157.35 133.72 156.36 133.68 155.73 134.26 L 155.00 134.94 C 154.37 135.52 154.33 136.51 154.91 137.14 C 155.49 137.77 156.48 137.82 157.11 137.23 Z M 157.71 136.67 L 158.51 136.08 C 159.20 135.57 159.35 134.60 158.84 133.90 C 158.33 133.21 157.35 133.06 156.66 133.57 L 155.86 134.15 C 155.17 134.66 155.02 135.64 155.53 136.33 C 156.04 137.03 157.02 137.18 157.71 136.67 Z M 158.33 136.20 L 159.21 135.72 C 159.96 135.31 160.24 134.36 159.83 133.61 C 159.42 132.85 158.48 132.57 157.72 132.98 L 156.84 133.46 C 156.08 133.87 155.80 134.81 156.21 135.57 C 156.62 136.33 157.57 136.61 158.33 136.20 Z M 158.95 135.82 L 159.88 135.52 C 160.69 135.25 161.14 134.37 160.87 133.56 C 160.60 132.74 159.72 132.30 158.91 132.57 L 157.98 132.87 C 157.16 133.14 156.72 134.02 156.99 134.83 C 157.25 135.65 158.13 136.09 158.95 135.82 Z M 159.52 135.59 L 160.50 135.51 C 161.35 135.44 161.98 134.70 161.92 133.84 C 161.85 132.99 161.10 132.35 160.25 132.42 L 159.27 132.50 C 158.42 132.57 157.78 133.31 157.85 134.16 C 157.92 135.02 158.66 135.65 159.52 135.59 Z M 160.05 135.48 L 161.01 135.68 C 161.84 135.86 162.66 135.34 162.84 134.50 C 163.03 133.67 162.50 132.85 161.66 132.66 L 160.70 132.46 C 159.87 132.27 159.04 132.80 158.86 133.64 C 158.68 134.47 159.21 135.29 160.05 135.48 Z M 160.74 135.60 L 161.68 135.99 C 162.47 136.31 163.37 135.94 163.69 135.16 C 164.02 134.37 163.65 133.47 162.86 133.14 L 161.93 132.75 C 161.14 132.43 160.24 132.80 159.91 133.58 C 159.59 134.37 159.96 135.27 160.74 135.60 Z M 161.62 135.96 L 161.96 136.12 C 162.73 136.47 163.65 136.14 164.00 135.37 C 164.36 134.60 164.03 133.69 163.26 133.33 L 162.92 133.17 C 162.15 132.81 161.24 133.14 160.88 133.91 C 160.52 134.68 160.85 135.60 161.62 135.96 Z"
      fill="black"
      fill-rule="nonzero" /><path d="M 162.45 137.44 L 163.36 137.92 C 164.10 138.30 165.01 138.02 165.39 137.28 C 165.78 136.55 165.49 135.64 164.76 135.25 L 163.85 134.78 C 163.11 134.39 162.20 134.68 161.82 135.41 C 161.43 136.15 161.72 137.06 162.45 137.44 Z M 162.68 137.24 L 163.07 138.05 C 163.43 138.81 164.34 139.13 165.10 138.77 C 165.86 138.41 166.19 137.50 165.82 136.74 L 165.44 135.93 C 165.07 135.17 164.16 134.84 163.40 135.21 C 162.64 135.57 162.32 136.48 162.68 137.24 Z M 162.96 137.02 L 162.71 138.01 C 162.50 138.83 163.00 139.66 163.82 139.87 C 164.64 140.07 165.48 139.57 165.68 138.75 L 165.93 137.77 C 166.14 136.95 165.64 136.11 164.82 135.91 C 164.00 135.70 163.16 136.20 162.96 137.02 Z M 163.05 137.39 L 162.41 138.12 C 161.86 138.76 161.93 139.72 162.57 140.27 C 163.20 140.81 164.16 140.74 164.71 140.11 L 165.35 139.37 C 165.89 138.74 165.82 137.78 165.19 137.23 C 164.55 136.68 163.59 136.75 163.05 137.39 Z M 162.75 137.86 L 161.91 138.40 C 161.21 138.85 161.01 139.78 161.46 140.47 C 161.91 141.17 162.84 141.37 163.53 140.92 L 164.38 140.37 C 165.07 139.92 165.27 139.00 164.82 138.30 C 164.37 137.61 163.44 137.41 162.75 137.86 Z M 162.08 138.34 L 161.17 138.78 C 160.44 139.13 160.14 140.01 160.49 140.74 C 160.84 141.47 161.72 141.78 162.46 141.42 L 163.36 140.98 C 164.09 140.63 164.40 139.75 164.04 139.02 C 163.69 138.29 162.81 137.98 162.08 138.34 Z M 161.22 138.78 L 160.84 138.94 C 160.11 139.27 159.78 140.13 160.11 140.86 C 160.44 141.59 161.30 141.92 162.03 141.59 L 162.41 141.42 C 163.14 141.10 163.46 140.24 163.14 139.51 C 162.81 138.78 161.95 138.45 161.22 138.78 Z"
      fill="black"
      fill-rule="nonzero" /></svg>