<svg xmlns="http://www.w3.org/2000/svg" width="300" height="300" viewBox="0 0 300 300">
<path d="M 142.89 132.00 L 142.43 132.83 C 142.02 133.57 142.28 134.50 143.02 134.92 C 143.76 135.33 144.69 135.06 145.11 134.32 L 145.57 133.49 C 145.98 132.75 145.72 131.82 144.98 131.40 C 144.24 130.99 143.30 131.26 142.89 132.00 Z M 142.42 132.81 L 141.91 133.70 C 141.48 134.44 141.74 135.39 142.49 135.82 C 143.23 136.24 144.18 135.98 144.60 135.24 L 145.11 134.35 C 145.54 133.60 145.28 132.65 144.54 132.23 C 143.79 131.80 142.85 132.06 142.42 132.81 Z M 141.91 133.67 L 141.39 134.55 C 140.95 135.29 141.20 136.25 141.94 136.69 C 142.68 137.13 143.64 136.88 144.08 136.14 L 144.60 135.27 C 145.04 134.52 144.80 133.57 144.05 133.13 C 143.31 132.69 142.35 132.93 141.91 133.67 Z M 141.40 134.53 L 140.87 135.41 C 140.42 136.14 140.66 137.11 141.40 137.55 C 142.14 138.00 143.10 137.77 143.55 137.03 L 144.08 136.15 C 144.52 135.42 144.29 134.45 143.55 134.01 C 142.81 133.56 141.85 133.79 141.40 134.53 Z M 140.88 135.40 L 140.35 136.26 C 139.89 137.00 140.12 137.96 140.86 138.41 C 141.59 138.86 142.56 138.63 143.01 137.90 L 143.54 137.04 C 143.99 136.30 143.76 135.34 143.03 134.88 C 142.29 134.43 141.33 134.66 140.88 135.40 Z M 140.35 136.26 L 139.82 137.11 C 139.37 137.84 139.59 138.81 140.33 139.26 C 141.06 139.71 142.02 139.49 142.48 138.76 L 143.00 137.90 C 143.46 137.17 143.23 136.21 142.50 135.75 C 141.77 135.30 140.80 135.52 140.35 136.26 Z M 139.82 137.11 L 139.32 137.92 C 138.87 138.65 139.09 139.61 139.83 140.07 C 140.56 140.52 141.52 140.30 141.97 139.56 L 142.47 138.75 C 142.93 138.02 142.70 137.06 141.97 136.61 C 141.24 136.15 140.28 136.38 139.82 137.11 Z M 139.32 137.93 L 138.80 138.77 C 138.35 139.50 138.58 140.46 139.31 140.91 C 140.04 141.37 141.00 141.14 141.45 140.40 L 141.97 139.56 C 142.42 138.83 142.20 137.87 141.46 137.42 C 140.73 136.97 139.77 137.19 139.32 137.93 Z M 138.80 138.77 L 138.27 139.63 C 137.82 140.37 138.06 141.33 138.79 141.78 C 139.52 142.22 140.48 141.99 140.93 141.26 L 141.46 140.40 C 141.91 139.67 141.67 138.71 140.94 138.26 C 140.21 137.81 139.25 138.04 138.80 138.77 Z M 138.27 139.63 L 137.76 140.47 C 137.31 141.21 137.54 142.17 138.27 142.62 C 139.00 143.07 139.96 142.84 140.41 142.10 L 140.93 141.26 C 141.38 140.53 141.15 139.57 140.42 139.12 C 139.68 138.67 138.72 138.90 138.27 139.63 Z M 137.77 140.46 L 137.22 141.33 C 136.77 142.06 136.99 143.02 137.71 143.47 C 138.44 143.93 139.40 143.71 139.86 142.98 L 140.40 142.12 C 140.86 141.39 140.64 140.43 139.91 139.97 C 139.18 139.51 138.22 139.73 137.77 140.46 Z M 137.24 141.31 L 136.69 142.16 C 136.22 142.88 136.43 143.84 137.15 144.31 C 137.87 144.77 138.84 144.56 139.30 143.84 L 139.85 143.00 C 140.31 142.28 140.11 141.31 139.39 140.85 C 138.66 140.38 137.70 140.59 137.24 141.31 Z M 136.69 142.16 L 136.15 143.00 C 135.69 143.72 135.90 144.68 136.61 145.14 C 137.33 145.61 138.29 145.40 138.76 144.68 L 139.30 143.84 C 139.76 143.12 139.56 142.16 138.84 141.70 C 138.12 141.23 137.16 141.44 136.69 142.16 Z M 136.14 143.02 L 135.68 143.76 C 135.23 144.48 135.45 145.44 136.17 145.89 C 136.90 146.34 137.85 146.12 138.30 145.40 L 138.77 144.66 C 139.22 143.94 139.00 142.98 138.28 142.53 C 137.55 142.07 136.60 142.29 136.14 143.02 Z M 135.68 143.77 L 135.18 144.59 C 134.74 145.31 134.96 146.26 135.69 146.71 C 136.42 147.15 137.37 146.92 137.81 146.20 L 138.31 145.38 C 138.75 144.66 138.52 143.71 137.80 143.26 C 137.07 142.82 136.12 143.05 135.68 143.77 Z M 135.18 144.59 L 134.58 145.57 C 134.14 146.30 134.37 147.24 135.09 147.69 C 135.82 148.13 136.77 147.90 137.21 147.18 L 137.81 146.19 C 138.25 145.47 138.02 144.52 137.30 144.08 C 136.57 143.64 135.63 143.86 135.18 144.59 Z M 134.59 145.57 L 134.08 146.39 C 133.64 147.11 133.87 148.06 134.59 148.50 C 135.31 148.95 136.25 148.72 136.70 148.00 L 137.20 147.18 C 137.65 146.46 137.42 145.51 136.70 145.07 C 135.98 144.62 135.03 144.85 134.59 145.57 Z M 134.09 146.39 L 133.54 147.28 C 133.10 148.00 133.32 148.95 134.04 149.39 C 134.76 149.83 135.70 149.61 136.15 148.89 L 136.69 148.00 C 137.14 147.28 136.91 146.33 136.19 145.89 C 135.47 145.45 134.53 145.67 134.09 146.39 Z M 133.54 147.29 L 133.00 148.18 C 132.56 148.90 132.78 149.84 133.50 150.28 C 134.22 150.72 135.16 150.49 135.60 149.77 L 136.15 148.88 C 136.58 148.16 136.36 147.22 135.64 146.78 C 134.92 146.34 133.98 146.57 133.54 147.29 Z M 133.00 148.19 L 132.49 149.03 C 132.06 149.75 132.29 150.68 133.01 151.11 C 133.73 151.55 134.67 151.31 135.10 150.59 L 135.60 149.76 C 136.04 149.04 135.80 148.11 135.08 147.67 C 134.36 147.24 133.43 147.47 133.00 148.19 Z M 132.49 149.05 L 131.90 150.06 C 131.48 150.78 131.73 151.71 132.45 152.13 C 133.17 152.55 134.09 152.30 134.51 151.58 L 135.10 150.57 C 135.52 149.85 135.28 148.92 134.56 148.50 C 133.84 148.08 132.91 148.33 132.49 149.05 Z M 131.90 150.09 L 131.44 150.91 C 131.04 151.64 131.30 152.55 132.02 152.95 C 132.74 153.35 133.65 153.09 134.05 152.37 L 134.51 151.55 C 134.92 150.83 134.66 149.92 133.94 149.51 C 133.22 149.11 132.31 149.37 131.90 150.09 Z M 131.45 150.93 L 131.13 151.52 C 130.74 152.23 131.00 153.13 131.72 153.53 C 132.44 153.92 133.34 153.65 133.73 152.93 L 134.05 152.35 C 134.44 151.63 134.18 150.73 133.46 150.34 C 132.74 149.95 131.84 150.22 131.45 150.93 Z"
      fill="black"
      fill-rule="nonzero" /><path d="M 138.72 141.66 L 138.72 142.69 C 138.72 143.51 139.39 144.17 140.20 144.17 C 141.02 144.17 141.68 143.51 141.68 142.69 L 141.68 141.66 C 141.68 140.84 141.02 140.17 140.20 140.17 C 139.39 140.17 138.72 140.84 138.72 141.66 Z M 138.69 142.69 L 138.69 143.68 C 138.69 144.51 139.37 145.19 140.20 145.19 C 141.04 145.19 141.71 144.51 141.71 143.68 L 141.71 142.69 C 141.71 141.86 141.04 141.18 140.20 141.18 C 139.37 141.18 138.69 141.86 138.69 142.69 Z M 138.67 143.68 L 138.67 144.68 C 138.67 145.52 139.36 146.21 140.20 146.21 C 141.05 146.21 141.74 145.52 141.74 144.67 L 141.74 143.68 C 141.74 142.83 141.05 142.14 140.20 142.15 C 139.35 142.15 138.67 142.83 138.67 143.68 Z M 138.66 144.70 L 138.67 145.68 C 138.68 146.53 139.38 147.21 140.24 147.20 C 141.09 147.19 141.77 146.49 141.76 145.64 L 141.75 144.66 C 141.74 143.80 141.04 143.12 140.18 143.13 C 139.33 143.14 138.65 143.84 138.66 144.70 Z M 138.67 145.72 L 138.71 146.68 C 138.74 147.53 139.46 148.19 140.31 148.16 C 141.16 148.13 141.83 147.41 141.80 146.56 L 141.76 145.60 C 141.73 144.75 141.01 144.08 140.16 144.11 C 139.30 144.14 138.64 144.86 138.67 145.72 Z M 138.71 146.70 L 138.76 147.71 C 138.81 148.56 139.54 149.21 140.39 149.17 C 141.24 149.12 141.90 148.39 141.85 147.54 L 141.80 146.53 C 141.75 145.68 141.02 145.03 140.17 145.07 C 139.31 145.12 138.66 145.85 138.71 146.70 Z M 138.76 147.71 L 138.82 148.75 C 138.87 149.61 139.60 150.26 140.45 150.21 C 141.30 150.17 141.96 149.43 141.91 148.58 L 141.85 147.54 C 141.80 146.68 141.07 146.03 140.22 146.08 C 139.37 146.12 138.71 146.85 138.76 147.71 Z M 138.82 148.74 L 138.87 149.77 C 138.91 150.62 139.64 151.28 140.49 151.24 C 141.34 151.20 142.00 150.47 141.96 149.62 L 141.91 148.59 C 141.87 147.74 141.14 147.08 140.29 147.12 C 139.44 147.16 138.78 147.89 138.82 148.74 Z M 138.87 149.75 L 138.91 150.70 C 138.94 151.55 139.65 152.21 140.51 152.18 C 141.36 152.15 142.03 151.44 141.99 150.58 L 141.96 149.64 C 141.93 148.79 141.21 148.12 140.36 148.15 C 139.51 148.18 138.84 148.90 138.87 149.75 Z M 138.91 150.67 L 138.92 151.58 C 138.94 152.43 139.64 153.11 140.49 153.09 C 141.35 153.08 142.03 152.37 142.01 151.52 L 141.99 150.61 C 141.98 149.76 141.27 149.08 140.42 149.09 C 139.57 149.11 138.89 149.81 138.91 150.67 Z M 138.92 151.57 L 138.94 152.65 C 138.95 153.50 139.65 154.19 140.50 154.18 C 141.35 154.17 142.03 153.47 142.02 152.61 L 142.01 151.53 C 142.00 150.68 141.30 149.99 140.45 150.00 C 139.60 150.01 138.91 150.71 138.92 151.57 Z M 138.94 152.66 L 138.95 153.55 C 138.96 154.40 139.66 155.08 140.52 155.06 C 141.37 155.05 142.05 154.35 142.03 153.50 L 142.02 152.61 C 142.01 151.76 141.31 151.08 140.46 151.09 C 139.60 151.10 138.92 151.81 138.94 152.66 Z M 138.95 153.55 L 138.97 154.56 C 138.98 155.41 139.68 156.09 140.53 156.08 C 141.38 156.07 142.06 155.37 142.05 154.52 L 142.03 153.50 C 142.02 152.65 141.32 151.97 140.47 151.98 C 139.62 152.00 138.94 152.70 138.95 153.55 Z M 138.97 154.56 L 138.98 155.64 C 138.99 156.49 139.69 157.17 140.54 157.15 C 141.39 157.14 142.07 156.44 142.06 155.59 L 142.05 154.52 C 142.04 153.67 141.34 152.99 140.49 153.00 C 139.64 153.01 138.96 153.71 138.97 154.56 Z M 138.98 155.63 L 139.00 156.74 C 139.00 157.59 139.70 158.27 140.55 158.26 C 141.40 158.26 142.08 157.56 142.07 156.71 L 142.06 155.60 C 142.05 154.75 141.36 154.07 140.51 154.08 C 139.66 154.08 138.98 154.78 138.98 155.63 Z M 139.00 156.73 L 139.00 157.81 C 139.01 158.66 139.70 159.34 140.55 159.34 C 141.39 159.34 142.08 158.64 142.07 157.80 L 142.07 156.72 C 142.06 155.87 141.37 155.19 140.53 155.19 C 139.68 155.20 138.99 155.89 139.00 156.73 Z M 139.01 157.81 L 139.01 158.77 C 139.01 159.62 139.70 160.30 140.54 160.30 C 141.39 160.30 142.07 159.61 142.07 158.76 L 142.07 157.80 C 142.07 156.96 141.38 156.27 140.54 156.27 C 139.69 156.27 139.01 156.96 139.01 157.81 Z M 139.01 158.77 L 139.02 159.85 C 139.02 160.69 139.70 161.37 140.54 161.37 C 141.39 161.37 142.07 160.69 142.07 159.84 L 142.07 158.76 C 142.07 157.92 141.38 157.24 140.54 157.24 C 139.70 157.24 139.01 157.93 139.01 158.77 Z M 139.05 160.10 L 139.17 160.80 C 139.31 161.62 140.10 162.18 140.92 162.03 C 141.74 161.89 142.30 161.11 142.15 160.28 L 142.03 159.59 C 141.89 158.76 141.11 158.21 140.28 158.35 C 139.46 158.50 138.91 159.28 139.05 160.10 Z M 142.01 161.18 L 142.31 160.55 C 142.66 159.81 142.35 158.92 141.61 158.57 C 140.86 158.21 139.97 158.53 139.62 159.27 L 139.32 159.90 C 138.96 160.64 139.28 161.53 140.02 161.89 C 140.76 162.24 141.65 161.93 142.01 161.18 Z M 142.34 160.39 L 142.75 159.22 C 143.01 158.46 142.61 157.63 141.86 157.37 C 141.10 157.10 140.27 157.50 140.00 158.26 L 139.59 159.43 C 139.32 160.19 139.72 161.02 140.48 161.28 C 141.24 161.55 142.07 161.15 142.34 160.39 Z M 142.73 159.20 L 142.75 159.15 C 143.01 158.40 142.61 157.58 141.85 157.33 C 141.10 157.07 140.29 157.47 140.03 158.23 L 140.01 158.28 C 139.76 159.03 140.16 159.85 140.91 160.10 C 141.66 160.36 142.48 159.96 142.73 159.20 Z"
      fill="black"
      fill-rule="nonzero" /><path d="M 149.91 131.44 L 150.87 131.59 C 151.72 131.73 152.52 131.15 152.66 130.30 C 152.80 129.45 152.22 128.65 151.37 128.52 L 150.41 128.36 C 149.56 128.22 148.76 128.80 148.62 129.65 C 148.49 130.50 149.06 131.30 149.91 131.44 Z M 150.93 131.61 L 151.87 131.72 C 152.73 131.82 153.51 131.21 153.61 130.36 C 153.72 129.50 153.11 128.72 152.25 128.62 L 151.31 128.50 C 150.45 128.40 149.67 129.01 149.57 129.86 C 149.46 130.72 150.07 131.50 150.93 131.61 Z M 151.93 131.73 L 152.79 131.80 C 153.65 131.87 154.41 131.23 154.48 130.37 C 154.55 129.51 153.91 128.75 153.04 128.68 L 152.19 128.61 C 151.33 128.54 150.57 129.18 150.50 130.04 C 150.43 130.90 151.07 131.66 151.93 131.73 Z M 152.80 131.80 L 153.96 131.89 C 154.82 131.95 155.57 131.30 155.63 130.43 C 155.70 129.57 155.05 128.82 154.18 128.76 L 153.03 128.67 C 152.16 128.61 151.41 129.26 151.35 130.13 C 151.29 130.99 151.94 131.74 152.80 131.80 Z M 153.95 131.89 L 154.95 131.96 C 155.82 132.03 156.57 131.38 156.64 130.51 C 156.70 129.64 156.05 128.89 155.18 128.83 L 154.18 128.75 C 153.32 128.69 152.57 129.34 152.50 130.21 C 152.44 131.07 153.09 131.83 153.95 131.89 Z M 154.95 131.96 L 155.97 132.04 C 156.83 132.10 157.59 131.45 157.65 130.59 C 157.72 129.72 157.07 128.97 156.20 128.90 L 155.19 128.83 C 154.32 128.76 153.57 129.41 153.50 130.28 C 153.44 131.14 154.09 131.90 154.95 131.96 Z M 155.97 132.04 L 157.02 132.12 C 157.89 132.18 158.64 131.53 158.70 130.67 C 158.77 129.80 158.12 129.05 157.25 128.98 L 156.20 128.90 C 155.33 128.84 154.58 129.49 154.52 130.35 C 154.45 131.22 155.10 131.98 155.97 132.04 Z M 157.02 132.12 L 158.03 132.19 C 158.90 132.26 159.65 131.60 159.72 130.74 C 159.78 129.87 159.13 129.12 158.26 129.05 L 157.25 128.98 C 156.38 128.92 155.63 129.57 155.57 130.43 C 155.50 131.30 156.15 132.06 157.02 132.12 Z M 158.04 132.19 L 159.08 132.26 C 159.94 132.32 160.69 131.67 160.75 130.80 C 160.81 129.94 160.16 129.19 159.29 129.13 L 158.25 129.05 C 157.39 128.99 156.64 129.65 156.58 130.51 C 156.52 131.38 157.17 132.13 158.04 132.19 Z M 159.09 132.26 L 160.07 132.32 C 160.93 132.37 161.68 131.72 161.73 130.85 C 161.78 129.99 161.13 129.24 160.26 129.19 L 159.28 129.13 C 158.42 129.08 157.67 129.73 157.62 130.60 C 157.57 131.46 158.22 132.21 159.09 132.26 Z M 160.08 132.32 L 161.03 132.37 C 161.89 132.42 162.62 131.75 162.67 130.89 C 162.72 130.03 162.06 129.29 161.20 129.25 L 160.25 129.20 C 159.39 129.15 158.65 129.81 158.60 130.67 C 158.56 131.53 159.22 132.27 160.08 132.32 Z M 161.03 132.36 L 162.03 132.41 C 162.89 132.45 163.62 131.79 163.66 130.93 C 163.71 130.07 163.04 129.34 162.18 129.30 L 161.19 129.25 C 160.33 129.21 159.60 129.87 159.56 130.73 C 159.51 131.59 160.18 132.32 161.03 132.36 Z M 162.03 132.41 L 163.06 132.46 C 163.91 132.50 164.64 131.84 164.68 130.98 C 164.72 130.12 164.06 129.40 163.20 129.35 L 162.18 129.31 C 161.32 129.27 160.60 129.93 160.56 130.78 C 160.52 131.64 161.18 132.37 162.03 132.41 Z M 163.05 132.45 L 164.10 132.50 C 164.95 132.54 165.68 131.89 165.72 131.03 C 165.76 130.18 165.11 129.45 164.25 129.41 L 163.20 129.36 C 162.35 129.32 161.62 129.98 161.58 130.83 C 161.54 131.68 162.20 132.41 163.05 132.45 Z M 164.09 132.50 L 165.08 132.55 C 165.93 132.60 166.66 131.94 166.70 131.09 C 166.75 130.24 166.10 129.51 165.24 129.47 L 164.26 129.41 C 163.41 129.37 162.68 130.02 162.63 130.87 C 162.59 131.73 163.24 132.45 164.09 132.50 Z M 165.06 132.54 L 166.15 132.61 C 167.00 132.67 167.73 132.03 167.78 131.18 C 167.84 130.33 167.20 129.60 166.35 129.55 L 165.26 129.48 C 164.41 129.42 163.68 130.06 163.63 130.91 C 163.57 131.76 164.22 132.49 165.06 132.54 Z M 166.12 132.59 L 167.11 132.68 C 167.94 132.75 168.68 132.13 168.75 131.29 C 168.82 130.46 168.20 129.72 167.36 129.65 L 166.38 129.57 C 165.54 129.50 164.81 130.11 164.74 130.95 C 164.67 131.79 165.28 132.52 166.12 132.59 Z M 167.08 132.66 L 167.74 132.72 C 168.57 132.81 169.30 132.20 169.38 131.38 C 169.47 130.56 168.87 129.82 168.04 129.74 L 167.39 129.67 C 166.56 129.59 165.83 130.19 165.74 131.01 C 165.66 131.84 166.26 132.57 167.08 132.66 Z"
      fill="black"
      fill-rule="nonzero" /><path d="M 150.91 136.43 L 150.57 137.33 C 150.28 138.11 150.67 139.00 151.46 139.29 C 152.25 139.59 153.13 139.19 153.43 138.40 L 153.77 137.51 C 154.07 136.72 153.67 135.84 152.88 135.55 C 152.09 135.25 151.21 135.65 150.91 136.43 Z M 150.49 137.56 L 150.29 138.56 C 150.12 139.39 150.66 140.20 151.50 140.37 C 152.33 140.54 153.14 140.00 153.31 139.17 L 153.51 138.17 C 153.68 137.34 153.14 136.52 152.31 136.35 C 151.48 136.19 150.66 136.72 150.49 137.56 Z M 150.26 138.78 L 150.20 139.77 C 150.15 140.62 150.81 141.35 151.66 141.40 C 152.51 141.45 153.24 140.80 153.29 139.94 L 153.35 138.95 C 153.39 138.10 152.74 137.37 151.89 137.32 C 151.03 137.27 150.30 137.92 150.26 138.78 Z M 150.20 139.85 L 150.19 140.88 C 150.19 141.74 150.88 142.43 151.73 142.44 C 152.58 142.44 153.28 141.76 153.29 140.90 L 153.29 139.87 C 153.30 139.01 152.61 138.31 151.75 138.31 C 150.90 138.30 150.20 138.99 150.20 139.85 Z M 150.19 140.90 L 150.20 141.90 C 150.20 142.76 150.89 143.45 151.75 143.44 C 152.60 143.44 153.29 142.75 153.29 141.89 L 153.29 140.89 C 153.28 140.03 152.59 139.34 151.73 139.35 C 150.88 139.35 150.19 140.04 150.19 140.90 Z M 150.20 141.93 L 150.22 142.92 C 150.24 143.77 150.94 144.45 151.79 144.43 C 152.65 144.41 153.32 143.71 153.31 142.85 L 153.29 141.87 C 153.27 141.01 152.56 140.34 151.71 140.35 C 150.86 140.37 150.18 141.08 150.20 141.93 Z M 150.22 142.96 L 150.27 143.96 C 150.31 144.81 151.03 145.47 151.88 145.43 C 152.73 145.39 153.39 144.67 153.35 143.82 L 153.30 142.82 C 153.26 141.97 152.54 141.31 151.69 141.35 C 150.84 141.39 150.19 142.11 150.22 142.96 Z M 150.28 143.99 L 150.34 144.98 C 150.39 145.82 151.12 146.47 151.96 146.42 C 152.81 146.37 153.45 145.64 153.40 144.79 L 153.34 143.80 C 153.29 142.95 152.56 142.31 151.72 142.36 C 150.87 142.41 150.23 143.14 150.28 143.99 Z M 150.35 144.99 L 150.41 146.01 C 150.47 146.85 151.19 147.49 152.03 147.43 C 152.88 147.38 153.51 146.65 153.46 145.81 L 153.39 144.79 C 153.34 143.95 152.61 143.31 151.77 143.36 C 150.93 143.42 150.29 144.14 150.35 144.99 Z M 150.42 146.01 L 150.49 146.98 C 150.55 147.82 151.27 148.45 152.11 148.39 C 152.94 148.33 153.57 147.61 153.52 146.78 L 153.45 145.80 C 153.39 144.97 152.67 144.34 151.83 144.40 C 151.00 144.45 150.37 145.18 150.42 146.01 Z M 150.50 146.99 L 150.57 147.93 C 150.63 148.76 151.35 149.38 152.18 149.32 C 153.01 149.26 153.63 148.54 153.57 147.71 L 153.51 146.77 C 153.45 145.94 152.72 145.32 151.89 145.38 C 151.07 145.44 150.44 146.16 150.50 146.99 Z M 150.58 147.90 L 150.63 148.97 C 150.68 149.79 151.39 150.43 152.21 150.38 C 153.04 150.33 153.67 149.63 153.62 148.80 L 153.56 147.74 C 153.52 146.91 152.81 146.28 151.99 146.32 C 151.16 146.37 150.53 147.08 150.58 147.90 Z M 150.65 148.96 L 150.71 150.22 C 150.75 151.03 151.45 151.66 152.26 151.62 C 153.08 151.58 153.71 150.89 153.67 150.07 L 153.61 148.81 C 153.57 148.00 152.87 147.37 152.06 147.41 C 151.24 147.45 150.61 148.14 150.65 148.96 Z M 150.91 150.83 L 151.03 151.06 C 151.41 151.77 152.29 152.03 153.00 151.65 C 153.71 151.27 153.98 150.39 153.60 149.68 L 153.48 149.46 C 153.10 148.75 152.21 148.48 151.50 148.86 C 150.79 149.24 150.53 150.12 150.91 150.83 Z M 153.73 150.64 L 153.91 149.71 C 154.06 148.93 153.54 148.17 152.76 148.02 C 151.98 147.87 151.23 148.38 151.08 149.16 L 150.90 150.10 C 150.75 150.88 151.26 151.63 152.04 151.79 C 152.82 151.94 153.58 151.42 153.73 150.64 Z M 153.90 149.66 L 154.11 148.40 C 154.23 147.62 153.70 146.89 152.92 146.76 C 152.14 146.64 151.41 147.17 151.28 147.95 L 151.08 149.21 C 150.95 149.99 151.48 150.72 152.26 150.85 C 153.04 150.97 153.78 150.44 153.90 149.66 Z M 154.10 148.44 L 154.29 147.41 C 154.43 146.64 153.92 145.89 153.14 145.75 C 152.37 145.60 151.62 146.12 151.48 146.89 L 151.29 147.92 C 151.15 148.69 151.66 149.44 152.43 149.58 C 153.21 149.72 153.95 149.21 154.10 148.44 Z M 154.28 147.47 L 154.48 146.56 C 154.65 145.79 154.17 145.03 153.40 144.86 C 152.63 144.68 151.87 145.16 151.70 145.93 L 151.49 146.84 C 151.32 147.61 151.80 148.37 152.57 148.54 C 153.34 148.72 154.10 148.23 154.28 147.47 Z M 154.46 146.62 L 154.73 145.65 C 154.94 144.89 154.49 144.11 153.73 143.90 C 152.97 143.69 152.18 144.14 151.98 144.90 L 151.71 145.87 C 151.50 146.63 151.95 147.42 152.71 147.62 C 153.47 147.83 154.26 147.38 154.46 146.62 Z M 154.71 145.73 L 155.02 144.78 C 155.27 144.04 154.86 143.23 154.11 142.98 C 153.37 142.73 152.56 143.14 152.31 143.89 L 152.00 144.83 C 151.75 145.58 152.15 146.38 152.90 146.63 C 153.65 146.88 154.46 146.48 154.71 145.73 Z M 154.99 144.88 L 155.36 143.96 C 155.67 143.23 155.32 142.40 154.59 142.10 C 153.86 141.80 153.02 142.14 152.72 142.87 L 152.34 143.79 C 152.04 144.52 152.39 145.35 153.12 145.66 C 153.85 145.96 154.68 145.61 154.99 144.88 Z M 155.31 144.08 L 155.78 143.19 C 156.14 142.49 155.87 141.62 155.17 141.26 C 154.47 140.89 153.60 141.16 153.24 141.87 L 152.77 142.76 C 152.41 143.46 152.68 144.32 153.38 144.69 C 154.08 145.05 154.95 144.78 155.31 144.08 Z M 155.71 143.31 L 156.25 142.48 C 156.69 141.81 156.50 140.92 155.83 140.49 C 155.17 140.06 154.28 140.25 153.85 140.91 L 153.30 141.74 C 152.87 142.41 153.06 143.30 153.72 143.73 C 154.39 144.16 155.28 143.97 155.71 143.31 Z M 156.14 142.63 L 156.80 141.87 C 157.32 141.27 157.25 140.36 156.64 139.84 C 156.04 139.32 155.13 139.39 154.61 139.99 L 153.96 140.75 C 153.44 141.36 153.51 142.27 154.11 142.79 C 154.71 143.31 155.62 143.24 156.14 142.63 Z M 156.60 142.07 L 157.38 141.45 C 158.01 140.96 158.12 140.05 157.62 139.42 C 157.13 138.79 156.22 138.68 155.59 139.18 L 154.81 139.79 C 154.18 140.29 154.07 141.20 154.57 141.83 C 155.06 142.46 155.97 142.56 156.60 142.07 Z M 157.10 141.63 L 158.00 141.21 C 158.73 140.87 159.05 140.01 158.71 139.28 C 158.37 138.55 157.50 138.24 156.77 138.58 L 155.87 139.00 C 155.14 139.34 154.83 140.20 155.17 140.93 C 155.51 141.66 156.37 141.97 157.10 141.63 Z M 157.67 141.33 L 158.68 141.13 C 159.47 140.97 159.99 140.21 159.83 139.41 C 159.68 138.62 158.91 138.11 158.12 138.26 L 157.11 138.46 C 156.32 138.62 155.80 139.38 155.96 140.17 C 156.11 140.97 156.88 141.48 157.67 141.33 Z M 158.31 141.16 L 159.30 141.22 C 160.11 141.27 160.80 140.65 160.85 139.84 C 160.90 139.03 160.28 138.34 159.47 138.29 L 158.49 138.23 C 157.68 138.18 156.98 138.80 156.94 139.61 C 156.89 140.42 157.50 141.11 158.31 141.16 Z M 158.77 141.10 L 159.68 141.51 C 160.42 141.85 161.29 141.52 161.63 140.78 C 161.97 140.04 161.64 139.16 160.90 138.82 L 160.00 138.41 C 159.26 138.07 158.38 138.40 158.04 139.14 C 157.70 139.88 158.03 140.76 158.77 141.10 Z M 159.16 141.14 L 159.80 141.87 C 160.33 142.49 161.27 142.56 161.89 142.03 C 162.52 141.49 162.59 140.55 162.05 139.93 L 161.42 139.19 C 160.88 138.57 159.94 138.50 159.32 139.04 C 158.70 139.58 158.63 140.52 159.16 141.14 Z M 159.53 141.47 L 159.90 142.37 C 160.22 143.14 161.09 143.50 161.86 143.19 C 162.62 142.88 162.99 142.00 162.68 141.24 L 162.31 140.33 C 162.00 139.57 161.12 139.20 160.36 139.51 C 159.59 139.82 159.22 140.70 159.53 141.47 Z M 159.80 142.07 L 159.98 143.05 C 160.13 143.88 160.91 144.42 161.73 144.28 C 162.55 144.13 163.10 143.34 162.95 142.52 L 162.78 141.54 C 162.63 140.72 161.85 140.17 161.02 140.32 C 160.20 140.46 159.66 141.25 159.80 142.07 Z M 159.95 142.80 L 159.96 143.78 C 159.96 144.62 160.65 145.29 161.49 145.28 C 162.32 145.28 163.00 144.59 162.99 143.76 L 162.99 142.78 C 162.98 141.94 162.29 141.26 161.46 141.27 C 160.62 141.28 159.94 141.96 159.95 142.80 Z M 159.99 143.43 L 159.76 144.43 C 159.58 145.25 160.09 146.06 160.91 146.25 C 161.74 146.43 162.55 145.92 162.74 145.10 L 162.96 144.10 C 163.15 143.28 162.63 142.47 161.81 142.28 C 160.99 142.09 160.17 142.61 159.99 143.43 Z M 159.85 144.14 L 159.45 145.05 C 159.10 145.82 159.45 146.73 160.22 147.07 C 160.99 147.42 161.89 147.07 162.24 146.30 L 162.64 145.39 C 162.99 144.62 162.65 143.71 161.87 143.37 C 161.10 143.02 160.20 143.37 159.85 144.14 Z M 159.52 144.90 L 159.01 145.77 C 158.58 146.50 158.82 147.44 159.55 147.87 C 160.28 148.30 161.22 148.06 161.65 147.33 L 162.16 146.45 C 162.59 145.72 162.35 144.78 161.62 144.36 C 160.89 143.93 159.95 144.17 159.52 144.90 Z M 159.07 145.68 L 158.51 146.48 C 158.03 147.18 158.20 148.13 158.90 148.61 C 159.60 149.09 160.55 148.92 161.04 148.22 L 161.59 147.42 C 162.07 146.72 161.90 145.77 161.20 145.29 C 160.50 144.81 159.55 144.98 159.07 145.68 Z M 158.59 146.38 L 157.96 147.16 C 157.42 147.81 157.52 148.77 158.17 149.31 C 158.83 149.84 159.79 149.75 160.33 149.09 L 160.96 148.32 C 161.49 147.66 161.40 146.70 160.74 146.17 C 160.09 145.63 159.12 145.73 158.59 146.38 Z M 158.03 147.08 L 157.35 147.80 C 156.78 148.42 156.81 149.38 157.42 149.96 C 158.03 150.53 159.00 150.50 159.58 149.89 L 160.25 149.17 C 160.83 148.55 160.80 147.59 160.19 147.01 C 159.57 146.43 158.61 146.47 158.03 147.08 Z M 157.41 147.75 L 156.68 148.46 C 156.08 149.04 156.07 150.00 156.65 150.60 C 157.24 151.21 158.20 151.22 158.80 150.64 L 159.52 149.94 C 160.13 149.35 160.14 148.39 159.56 147.79 C 158.97 147.18 158.01 147.17 157.41 147.75 Z M 156.73 148.42 L 155.97 149.11 C 155.34 149.67 155.29 150.62 155.85 151.25 C 156.41 151.87 157.37 151.92 157.99 151.36 L 158.75 150.67 C 159.38 150.11 159.43 149.16 158.87 148.54 C 158.31 147.91 157.35 147.86 156.73 148.42 Z M 156.02 149.07 L 155.19 149.75 C 154.55 150.28 154.46 151.23 154.99 151.87 C 155.51 152.51 156.46 152.61 157.11 152.08 L 157.93 151.40 C 158.58 150.87 158.67 149.92 158.14 149.28 C 157.61 148.63 156.66 148.54 156.02 149.07 Z M 155.29 149.68 L 154.47 150.25 C 153.79 150.72 153.62 151.66 154.10 152.34 C 154.57 153.02 155.51 153.19 156.19 152.72 L 157.01 152.15 C 157.69 151.67 157.86 150.74 157.39 150.05 C 156.91 149.37 155.97 149.20 155.29 149.68 Z M 154.66 150.14 L 153.81 150.56 C 153.07 150.93 152.77 151.83 153.14 152.57 C 153.51 153.31 154.41 153.62 155.15 153.25 L 156.00 152.82 C 156.74 152.45 157.04 151.55 156.67 150.81 C 156.30 150.07 155.40 149.77 154.66 150.14 Z M 154.10 150.46 L 153.13 150.72 C 152.33 150.93 151.85 151.75 152.07 152.55 C 152.28 153.35 153.10 153.82 153.90 153.61 L 154.87 153.35 C 155.66 153.14 156.14 152.32 155.93 151.52 C 155.71 150.72 154.89 150.25 154.10 150.46 Z M 153.30 150.69 L 152.51 150.81 C 151.70 150.92 151.14 151.68 151.25 152.49 C 151.37 153.30 152.13 153.87 152.94 153.75 L 153.72 153.64 C 154.54 153.52 155.10 152.76 154.98 151.95 C 154.87 151.14 154.11 150.57 153.30 150.69 Z"
      fill="black"
      fill-rule="nonzero" /><path d="M 165.28 133.89 L 165.25 134.85 C 165.23 135.67 165.88 136.35 166.71 136.37 C 167.53 136.39 168.21 135.74 168.23 134.92 L 168.25 133.97 C 168.28 133.15 167.63 132.46 166.80 132.44 C 165.98 132.42 165.30 133.07 165.28 133.89 Z M 165.21 134.88 L 165.21 135.90 C 165.21 136.74 165.89 137.43 166.74 137.43 C 167.58 137.43 168.27 136.75 168.27 135.90 L 168.27 134.89 C 168.27 134.04 167.59 133.36 166.75 133.35 C 165.90 133.35 165.21 134.04 165.21 134.88 Z M 165.18 135.95 L 165.22 136.98 C 165.24 137.84 165.96 138.51 166.82 138.48 C 167.68 138.46 168.36 137.74 168.33 136.88 L 168.30 135.85 C 168.27 134.99 167.55 134.32 166.69 134.34 C 165.83 134.37 165.16 135.09 165.18 135.95 Z M 165.21 137.02 L 165.27 138.04 C 165.32 138.91 166.06 139.57 166.92 139.52 C 167.79 139.47 168.45 138.73 168.40 137.86 L 168.34 136.84 C 168.29 135.97 167.55 135.31 166.68 135.36 C 165.82 135.41 165.16 136.15 165.21 137.02 Z M 165.27 138.07 L 165.34 139.05 C 165.41 139.91 166.16 140.56 167.02 140.49 C 167.89 140.43 168.54 139.68 168.47 138.81 L 168.40 137.83 C 168.33 136.97 167.58 136.32 166.72 136.39 C 165.85 136.45 165.20 137.21 165.27 138.07 Z M 165.34 139.07 L 165.43 140.11 C 165.51 140.98 166.27 141.61 167.14 141.54 C 168.00 141.46 168.64 140.70 168.56 139.83 L 168.47 138.79 C 168.39 137.92 167.63 137.29 166.77 137.36 C 165.90 137.44 165.26 138.20 165.34 139.07 Z M 165.43 140.12 L 165.53 141.07 C 165.61 141.94 166.38 142.57 167.24 142.49 C 168.11 142.40 168.74 141.63 168.66 140.77 L 168.57 139.82 C 168.48 138.96 167.71 138.32 166.85 138.41 C 165.98 138.49 165.35 139.26 165.43 140.12 Z M 165.52 141.06 L 165.61 142.03 C 165.69 142.89 166.46 143.53 167.32 143.45 C 168.19 143.37 168.83 142.61 168.75 141.74 L 168.66 140.78 C 168.58 139.91 167.81 139.27 166.95 139.35 C 166.08 139.43 165.44 140.20 165.52 141.06 Z M 165.61 142.01 L 165.69 143.02 C 165.76 143.89 166.52 144.54 167.39 144.47 C 168.26 144.40 168.90 143.64 168.83 142.77 L 168.75 141.76 C 168.68 140.89 167.92 140.24 167.05 140.31 C 166.18 140.38 165.54 141.14 165.61 142.01 Z M 165.69 143.01 L 165.76 144.00 C 165.82 144.87 166.57 145.52 167.44 145.46 C 168.31 145.40 168.96 144.65 168.90 143.78 L 168.83 142.79 C 168.77 141.92 168.02 141.26 167.15 141.32 C 166.28 141.38 165.63 142.14 165.69 143.01 Z M 165.76 143.99 L 165.82 144.99 C 165.87 145.86 166.62 146.52 167.49 146.46 C 168.36 146.41 169.02 145.66 168.96 144.80 L 168.90 143.80 C 168.85 142.93 168.10 142.27 167.23 142.32 C 166.37 142.37 165.71 143.12 165.76 143.99 Z M 165.82 144.98 L 165.88 145.98 C 165.93 146.85 166.67 147.51 167.54 147.46 C 168.41 147.41 169.07 146.67 169.02 145.80 L 168.96 144.80 C 168.91 143.94 168.17 143.27 167.30 143.32 C 166.43 143.37 165.77 144.12 165.82 144.98 Z M 165.88 145.98 L 165.93 146.96 C 165.98 147.82 166.72 148.49 167.59 148.44 C 168.45 148.39 169.12 147.65 169.07 146.79 L 169.02 145.81 C 168.97 144.94 168.23 144.28 167.36 144.32 C 166.50 144.37 165.83 145.11 165.88 145.98 Z M 165.93 146.94 L 165.98 147.96 C 166.02 148.83 166.75 149.50 167.62 149.46 C 168.49 149.42 169.16 148.69 169.12 147.82 L 169.07 146.80 C 169.03 145.94 168.30 145.27 167.43 145.30 C 166.56 145.34 165.89 146.08 165.93 146.94 Z M 165.98 147.95 L 166.02 148.95 C 166.05 149.81 166.77 150.49 167.64 150.46 C 168.50 150.43 169.18 149.70 169.15 148.84 L 169.11 147.84 C 169.09 146.97 168.36 146.30 167.49 146.33 C 166.63 146.36 165.95 147.08 165.98 147.95 Z M 166.02 148.93 L 166.04 149.94 C 166.07 150.81 166.79 151.49 167.65 151.47 C 168.51 151.44 169.20 150.72 169.17 149.86 L 169.15 148.85 C 169.12 147.99 168.41 147.30 167.54 147.33 C 166.68 147.35 165.99 148.07 166.02 148.93 Z M 166.05 149.94 L 166.07 150.94 C 166.09 151.81 166.81 152.49 167.67 152.47 C 168.53 152.45 169.22 151.73 169.20 150.87 L 169.17 149.87 C 169.15 149.00 168.44 148.32 167.57 148.34 C 166.71 148.36 166.03 149.08 166.05 149.94 Z M 166.07 150.94 L 166.10 151.96 C 166.12 152.83 166.83 153.51 167.69 153.49 C 168.55 153.47 169.24 152.75 169.22 151.89 L 169.19 150.87 C 169.17 150.01 168.46 149.32 167.60 149.34 C 166.73 149.36 166.05 150.08 166.07 150.94 Z M 166.10 151.96 L 166.12 152.94 C 166.13 153.81 166.85 154.49 167.71 154.47 C 168.57 154.46 169.25 153.74 169.24 152.88 L 169.22 151.90 C 169.20 151.04 168.49 150.35 167.63 150.37 C 166.76 150.39 166.08 151.10 166.10 151.96 Z M 166.12 152.93 L 166.13 153.93 C 166.14 154.79 166.85 155.48 167.71 155.47 C 168.57 155.46 169.26 154.75 169.25 153.89 L 169.23 152.90 C 169.22 152.03 168.52 151.35 167.66 151.36 C 166.80 151.37 166.11 152.07 166.12 152.93 Z M 166.13 153.92 L 166.13 154.92 C 166.14 155.78 166.84 156.47 167.70 156.47 C 168.56 156.46 169.25 155.76 169.25 154.90 L 169.25 153.90 C 169.24 153.04 168.54 152.35 167.68 152.35 C 166.82 152.35 166.13 153.05 166.13 153.92 Z M 166.13 154.91 L 166.13 155.91 C 166.13 156.77 166.83 157.46 167.69 157.46 C 168.55 157.46 169.25 156.76 169.25 155.90 L 169.25 154.91 C 169.25 154.05 168.55 153.35 167.69 153.35 C 166.83 153.35 166.13 154.05 166.13 154.91 Z M 166.13 155.90 L 166.13 156.92 C 166.13 157.78 166.83 158.48 167.69 158.48 C 168.55 158.48 169.25 157.78 169.25 156.92 L 169.25 155.90 C 169.25 155.04 168.55 154.35 167.69 154.35 C 166.83 154.35 166.13 155.04 166.13 155.90 Z M 166.14 156.92 L 166.14 157.90 C 166.14 158.76 166.83 159.46 167.69 159.46 C 168.55 159.46 169.25 158.76 169.25 157.90 L 169.25 156.92 C 169.25 156.06 168.55 155.36 167.69 155.36 C 166.83 155.36 166.14 156.06 166.14 156.92 Z M 166.14 157.90 L 166.14 158.93 C 166.14 159.79 166.83 160.48 167.69 160.48 C 168.55 160.48 169.25 159.79 169.25 158.93 L 169.25 157.90 C 169.25 157.04 168.55 156.35 167.69 156.35 C 166.83 156.35 166.14 157.04 166.14 157.90 Z M 166.14 158.93 L 166.14 159.91 C 166.14 160.76 166.84 161.46 167.69 161.46 C 168.55 161.46 169.24 160.76 169.24 159.91 L 169.24 158.93 C 169.24 158.07 168.55 157.38 167.69 157.38 C 166.84 157.38 166.14 158.07 166.14 158.93 Z M 166.14 159.90 L 166.14 160.82 C 166.13 161.68 166.82 162.38 167.68 162.38 C 168.53 162.39 169.23 161.70 169.23 160.84 L 169.24 159.92 C 169.25 159.06 168.56 158.36 167.70 158.36 C 166.85 158.35 166.15 159.04 166.14 159.90 Z M 166.14 160.75 L 166.09 161.77 C 166.04 162.63 166.70 163.35 167.55 163.40 C 168.41 163.44 169.13 162.79 169.18 161.93 L 169.23 160.91 C 169.28 160.06 168.62 159.33 167.77 159.29 C 166.91 159.24 166.19 159.90 166.14 160.75 Z M 166.09 161.68 L 165.98 162.69 C 165.88 163.54 166.49 164.31 167.34 164.40 C 168.19 164.50 168.96 163.89 169.06 163.04 L 169.17 162.03 C 169.27 161.18 168.66 160.41 167.81 160.32 C 166.96 160.22 166.19 160.83 166.09 161.68 Z M 165.98 162.62 L 165.82 163.64 C 165.69 164.49 166.27 165.29 167.12 165.42 C 167.97 165.56 168.76 164.98 168.90 164.13 L 169.06 163.11 C 169.19 162.26 168.61 161.46 167.76 161.33 C 166.91 161.19 166.11 161.78 165.98 162.62 Z M 165.82 163.59 L 165.63 164.56 C 165.47 165.41 166.02 166.23 166.87 166.40 C 167.72 166.57 168.54 166.01 168.70 165.16 L 168.89 164.19 C 169.06 163.34 168.51 162.52 167.66 162.35 C 166.81 162.18 165.99 162.74 165.82 163.59 Z M 165.65 164.47 L 165.37 165.54 C 165.16 166.38 165.66 167.24 166.50 167.45 C 167.34 167.67 168.20 167.16 168.41 166.32 L 168.69 165.26 C 168.90 164.42 168.40 163.56 167.56 163.34 C 166.72 163.13 165.86 163.63 165.65 164.47 Z M 165.42 165.38 L 165.10 166.24 C 164.80 167.06 165.21 167.96 166.02 168.26 C 166.84 168.57 167.74 168.15 168.05 167.34 L 168.37 166.48 C 168.67 165.67 168.25 164.76 167.44 164.46 C 166.63 164.15 165.72 164.57 165.42 165.38 Z M 165.22 165.98 L 164.70 166.84 C 164.26 167.59 164.50 168.56 165.25 169.00 C 165.99 169.45 166.96 169.21 167.41 168.46 L 167.92 167.60 C 168.37 166.85 168.13 165.89 167.38 165.44 C 166.63 164.99 165.67 165.24 165.22 165.98 Z M 165.20 166.32 L 164.43 166.82 C 163.70 167.29 163.49 168.27 163.96 169.00 C 164.44 169.74 165.42 169.95 166.15 169.47 L 166.91 168.98 C 167.65 168.51 167.86 167.53 167.38 166.79 C 166.91 166.06 165.93 165.85 165.20 166.32 Z M 165.24 166.56 L 164.29 166.59 C 163.42 166.62 162.73 167.36 162.76 168.23 C 162.79 169.11 163.53 169.80 164.40 169.77 L 165.35 169.73 C 166.22 169.70 166.91 168.97 166.88 168.09 C 166.85 167.22 166.11 166.53 165.24 166.56 Z M 164.73 166.63 L 163.71 166.38 C 162.85 166.17 161.99 166.69 161.78 167.55 C 161.57 168.40 162.09 169.26 162.95 169.47 L 163.97 169.72 C 164.82 169.93 165.68 169.41 165.89 168.56 C 166.10 167.71 165.58 166.84 164.73 166.63 Z M 163.92 166.45 L 163.02 166.09 C 162.20 165.76 161.28 166.15 160.95 166.96 C 160.62 167.78 161.01 168.71 161.82 169.04 L 162.73 169.40 C 163.54 169.73 164.47 169.34 164.80 168.53 C 165.13 167.71 164.74 166.78 163.92 166.45 Z M 163.16 166.15 L 162.24 165.67 C 161.46 165.26 160.50 165.56 160.09 166.33 C 159.68 167.11 159.98 168.07 160.76 168.48 L 161.68 168.97 C 162.46 169.38 163.42 169.08 163.83 168.30 C 164.24 167.53 163.94 166.56 163.16 166.15 Z M 162.35 165.75 L 161.54 165.23 C 160.81 164.76 159.83 164.97 159.36 165.70 C 158.89 166.44 159.10 167.41 159.84 167.88 L 160.65 168.40 C 161.38 168.87 162.35 168.66 162.83 167.93 C 163.30 167.19 163.08 166.22 162.35 165.75 Z M 161.62 165.32 L 160.84 164.73 C 160.16 164.21 159.19 164.35 158.67 165.03 C 158.16 165.71 158.29 166.68 158.97 167.20 L 159.75 167.79 C 160.43 168.31 161.41 168.17 161.92 167.49 C 162.44 166.81 162.31 165.84 161.62 165.32 Z M 160.91 164.82 L 160.11 164.13 C 159.48 163.58 158.52 163.64 157.97 164.27 C 157.42 164.90 157.48 165.86 158.11 166.41 L 158.91 167.11 C 159.54 167.66 160.50 167.60 161.05 166.96 C 161.60 166.33 161.54 165.38 160.91 164.82 Z M 160.16 164.20 L 159.47 163.53 C 158.88 162.95 157.93 162.97 157.36 163.55 C 156.78 164.14 156.79 165.09 157.38 165.66 L 158.07 166.34 C 158.66 166.91 159.60 166.90 160.18 166.31 C 160.76 165.72 160.75 164.78 160.16 164.20 Z M 159.49 163.58 L 158.80 162.86 C 158.24 162.28 157.31 162.26 156.72 162.82 C 156.13 163.38 156.11 164.31 156.68 164.90 L 157.36 165.62 C 157.92 166.20 158.86 166.22 159.45 165.66 C 160.03 165.10 160.05 164.17 159.49 163.58 Z M 158.81 162.89 L 158.11 162.14 C 157.57 161.55 156.65 161.51 156.05 162.06 C 155.46 162.60 155.43 163.52 155.97 164.11 L 156.67 164.87 C 157.22 165.46 158.14 165.50 158.73 164.95 C 159.32 164.41 159.36 163.49 158.81 162.89 Z M 158.11 162.16 L 157.56 161.55 C 157.02 160.97 156.11 160.92 155.53 161.46 C 154.94 161.99 154.89 162.90 155.43 163.49 L 155.98 164.10 C 156.51 164.68 157.42 164.73 158.01 164.19 C 158.60 163.66 158.64 162.75 158.11 162.16 Z"
      fill="black"
      fill-rule="nonzero" /></svg>