<svg xmlns="http://www.w3.org/2000/svg" width="300" height="300" viewBox="0 0 300 300">
<path d="M 157.68 123.33 L 156.68 123.25 C 155.82 123.17 155.06 123.81 154.99 124.67 C 154.92 125.53 155.55 126.29 156.41 126.36 L 157.41 126.45 C 158.27 126.53 159.03 125.89 159.10 125.03 C 159.18 124.17 158.54 123.41 157.68 123.33 Z M 156.35 123.22 L 155.43 123.34 C 154.56 123.45 153.94 124.24 154.04 125.12 C 154.15 125.99 154.95 126.61 155.83 126.51 L 156.75 126.39 C 157.62 126.28 158.24 125.48 158.13 124.61 C 158.02 123.73 157.23 123.11 156.35 123.22 Z M 155.03 123.42 L 154.15 123.78 C 153.32 124.11 152.92 125.04 153.25 125.87 C 153.57 126.70 154.51 127.10 155.34 126.77 L 156.22 126.42 C 157.05 126.09 157.45 125.15 157.13 124.33 C 156.80 123.50 155.86 123.10 155.03 123.42 Z M 153.99 123.85 L 153.05 124.34 C 152.27 124.75 151.96 125.73 152.38 126.52 C 152.79 127.30 153.76 127.61 154.55 127.19 L 155.49 126.70 C 156.28 126.29 156.58 125.31 156.17 124.53 C 155.76 123.74 154.78 123.43 153.99 123.85 Z M 153.01 124.36 L 152.15 124.84 C 151.38 125.28 151.11 126.27 151.54 127.04 C 151.98 127.82 152.96 128.09 153.74 127.65 L 154.59 127.17 C 155.37 126.73 155.64 125.75 155.21 124.97 C 154.77 124.20 153.79 123.92 153.01 124.36 Z M 152.13 124.86 L 151.23 125.39 C 150.46 125.85 150.21 126.84 150.66 127.60 C 151.11 128.37 152.10 128.62 152.87 128.17 L 153.77 127.64 C 154.54 127.18 154.79 126.19 154.34 125.43 C 153.88 124.66 152.89 124.41 152.13 124.86 Z M 151.20 125.41 L 150.28 125.98 C 149.53 126.45 149.30 127.45 149.77 128.20 C 150.24 128.96 151.23 129.19 151.99 128.72 L 152.90 128.15 C 153.66 127.68 153.89 126.68 153.42 125.93 C 152.95 125.17 151.95 124.94 151.20 125.41 Z M 150.25 126.01 L 149.37 126.59 C 148.63 127.08 148.42 128.07 148.91 128.82 C 149.40 129.56 150.40 129.76 151.14 129.27 L 152.02 128.69 C 152.76 128.20 152.97 127.21 152.48 126.46 C 151.99 125.72 150.99 125.52 150.25 126.01 Z M 149.34 126.61 L 148.57 127.15 C 147.84 127.65 147.66 128.65 148.17 129.38 C 148.67 130.11 149.67 130.29 150.40 129.78 L 151.17 129.25 C 151.90 128.74 152.08 127.74 151.57 127.02 C 151.07 126.29 150.07 126.11 149.34 126.61 Z M 148.55 127.18 L 147.72 127.78 C 147.00 128.30 146.85 129.29 147.36 130.00 C 147.88 130.72 148.87 130.87 149.59 130.36 L 150.42 129.75 C 151.13 129.24 151.29 128.24 150.77 127.53 C 150.26 126.82 149.26 126.66 148.55 127.18 Z M 147.70 127.82 L 146.94 128.39 C 146.25 128.92 146.12 129.90 146.64 130.59 C 147.17 131.28 148.15 131.42 148.84 130.89 L 149.60 130.32 C 150.29 129.80 150.43 128.81 149.90 128.12 C 149.38 127.43 148.39 127.29 147.70 127.82 Z M 146.94 128.43 L 146.17 129.03 C 145.49 129.56 145.37 130.53 145.90 131.20 C 146.43 131.88 147.40 132.00 148.08 131.47 L 148.85 130.86 C 149.52 130.34 149.64 129.36 149.11 128.69 C 148.59 128.02 147.61 127.90 146.94 128.43 Z M 146.16 129.06 L 145.39 129.68 C 144.73 130.22 144.63 131.18 145.16 131.84 C 145.69 132.49 146.66 132.59 147.31 132.06 L 148.08 131.44 C 148.74 130.91 148.84 129.94 148.31 129.29 C 147.78 128.63 146.82 128.53 146.16 129.06 Z M 145.38 129.71 L 144.62 130.35 C 143.97 130.88 143.89 131.84 144.42 132.48 C 144.96 133.12 145.91 133.21 146.55 132.67 L 147.32 132.04 C 147.96 131.50 148.05 130.55 147.51 129.91 C 146.98 129.27 146.03 129.18 145.38 129.71 Z M 144.64 130.35 L 143.86 130.99 C 143.22 131.51 143.13 132.46 143.65 133.09 C 144.17 133.73 145.11 133.83 145.75 133.31 L 146.53 132.67 C 147.17 132.15 147.26 131.20 146.74 130.57 C 146.22 129.93 145.28 129.83 144.64 130.35 Z M 143.87 131.00 L 143.10 131.64 C 142.46 132.15 142.37 133.08 142.88 133.71 C 143.40 134.34 144.33 134.44 144.96 133.92 L 145.74 133.29 C 146.37 132.78 146.46 131.85 145.95 131.22 C 145.43 130.58 144.50 130.49 143.87 131.00 Z M 143.08 131.67 L 142.38 132.27 C 141.77 132.80 141.70 133.72 142.23 134.33 C 142.75 134.94 143.67 135.01 144.28 134.49 L 144.98 133.89 C 145.59 133.36 145.66 132.44 145.14 131.83 C 144.61 131.22 143.69 131.15 143.08 131.67 Z M 142.37 132.30 L 141.57 133.01 C 140.97 133.54 140.91 134.46 141.45 135.05 C 141.98 135.65 142.89 135.71 143.49 135.18 L 144.29 134.46 C 144.89 133.93 144.95 133.02 144.41 132.42 C 143.88 131.82 142.97 131.77 142.37 132.30 Z M 141.57 133.02 L 140.89 133.62 C 140.29 134.15 140.24 135.06 140.77 135.65 C 141.29 136.25 142.20 136.30 142.80 135.78 L 143.48 135.17 C 144.08 134.65 144.13 133.74 143.61 133.14 C 143.08 132.54 142.17 132.49 141.57 133.02 Z M 140.89 133.62 L 140.12 134.30 C 139.53 134.83 139.47 135.73 139.99 136.33 C 140.52 136.92 141.42 136.98 142.02 136.46 L 142.79 135.78 C 143.39 135.25 143.44 134.35 142.92 133.75 C 142.40 133.16 141.49 133.10 140.89 133.62 Z M 140.12 134.31 L 139.52 134.84 C 138.93 135.36 138.87 136.26 139.39 136.86 C 139.91 137.45 140.82 137.51 141.41 136.99 L 142.02 136.45 C 142.61 135.93 142.67 135.03 142.14 134.43 C 141.62 133.84 140.72 133.78 140.12 134.31 Z"
      fill="black"
      fill-rule="nonzero" /><path d="M 135.48 145.71 L 134.22 146.04 C 133.44 146.26 132.97 147.07 133.18 147.85 C 133.40 148.64 134.21 149.10 134.99 148.89 L 136.25 148.55 C 137.03 148.34 137.50 147.53 137.28 146.74 C 137.07 145.96 136.26 145.49 135.48 145.71 Z M 133.94 146.08 L 133.44 146.32 C 132.67 146.69 132.35 147.61 132.71 148.37 C 133.08 149.14 134.00 149.47 134.77 149.10 L 135.27 148.86 C 136.04 148.49 136.37 147.57 136.00 146.80 C 135.63 146.03 134.71 145.71 133.94 146.08 Z M 133.95 149.29 L 134.81 149.37 C 135.68 149.45 136.45 148.82 136.54 147.95 C 136.62 147.07 135.99 146.30 135.11 146.21 L 134.26 146.13 C 133.39 146.05 132.61 146.68 132.53 147.56 C 132.44 148.43 133.08 149.20 133.95 149.29 Z M 134.96 149.40 L 136.13 149.40 C 137.02 149.40 137.74 148.68 137.74 147.80 C 137.74 146.91 137.02 146.19 136.14 146.19 L 134.96 146.19 C 134.08 146.19 133.36 146.90 133.36 147.79 C 133.36 148.67 134.07 149.39 134.96 149.40 Z M 136.13 149.41 L 137.12 149.41 C 138.01 149.41 138.74 148.68 138.74 147.79 C 138.74 146.90 138.01 146.18 137.12 146.18 L 136.13 146.18 C 135.24 146.18 134.52 146.90 134.52 147.79 C 134.52 148.68 135.24 149.41 136.13 149.41 Z M 137.12 149.41 L 138.15 149.41 C 139.04 149.41 139.76 148.69 139.76 147.79 C 139.76 146.90 139.04 146.18 138.15 146.18 L 137.12 146.18 C 136.23 146.18 135.51 146.90 135.51 147.79 C 135.51 148.69 136.23 149.41 137.12 149.41 Z M 138.15 149.41 L 139.19 149.41 C 140.08 149.41 140.80 148.69 140.80 147.79 C 140.80 146.90 140.08 146.18 139.19 146.18 L 138.15 146.18 C 137.26 146.18 136.54 146.90 136.54 147.79 C 136.54 148.69 137.26 149.41 138.15 149.41 Z M 139.19 149.41 L 140.16 149.41 C 141.05 149.41 141.78 148.69 141.78 147.79 C 141.78 146.90 141.05 146.18 140.16 146.18 L 139.19 146.18 C 138.29 146.18 137.57 146.90 137.57 147.79 C 137.57 148.69 138.29 149.41 139.19 149.41 Z M 140.16 149.41 L 141.20 149.41 C 142.10 149.41 142.82 148.69 142.82 147.79 C 142.82 146.90 142.10 146.18 141.20 146.18 L 140.16 146.18 C 139.27 146.18 138.54 146.90 138.54 147.79 C 138.54 148.69 139.27 149.41 140.16 149.41 Z M 141.20 149.41 L 142.14 149.41 C 143.04 149.41 143.76 148.69 143.76 147.79 C 143.76 146.90 143.04 146.18 142.14 146.18 L 141.20 146.18 C 140.31 146.18 139.59 146.90 139.59 147.79 C 139.59 148.69 140.31 149.41 141.20 149.41 Z M 142.14 149.41 L 143.13 149.41 C 144.03 149.41 144.75 148.69 144.75 147.79 C 144.75 146.90 144.03 146.18 143.13 146.18 L 142.14 146.18 C 141.25 146.18 140.53 146.90 140.53 147.79 C 140.53 148.69 141.25 149.41 142.14 149.41 Z M 143.13 149.41 L 144.13 149.41 C 145.02 149.41 145.74 148.69 145.74 147.79 C 145.74 146.90 145.02 146.18 144.13 146.18 L 143.13 146.18 C 142.24 146.18 141.52 146.90 141.52 147.79 C 141.52 148.69 142.24 149.41 143.13 149.41 Z M 144.13 149.40 L 145.12 149.40 C 146.01 149.40 146.73 148.68 146.73 147.79 C 146.73 146.91 146.01 146.19 145.12 146.19 L 144.13 146.19 C 143.24 146.19 142.52 146.91 142.52 147.79 C 142.52 148.68 143.24 149.40 144.13 149.40 Z M 145.12 149.40 L 146.13 149.40 C 147.02 149.40 147.73 148.68 147.73 147.79 C 147.73 146.91 147.01 146.19 146.13 146.19 L 145.12 146.19 C 144.23 146.19 143.51 146.91 143.51 147.80 C 143.51 148.68 144.23 149.40 145.12 149.40 Z M 146.14 149.39 L 147.15 149.39 C 148.03 149.38 148.74 148.66 148.73 147.77 C 148.73 146.89 148.01 146.18 147.12 146.19 L 146.12 146.20 C 145.23 146.20 144.52 146.92 144.53 147.81 C 144.54 148.69 145.26 149.40 146.14 149.39 Z M 147.18 149.38 L 148.19 149.35 C 149.07 149.32 149.76 148.59 149.74 147.71 C 149.71 146.83 148.98 146.14 148.10 146.17 L 147.09 146.19 C 146.21 146.22 145.52 146.95 145.54 147.83 C 145.57 148.71 146.30 149.40 147.18 149.38 Z M 148.23 149.34 L 149.22 149.29 C 150.10 149.24 150.77 148.50 150.72 147.62 C 150.68 146.75 149.93 146.08 149.06 146.12 L 148.06 146.17 C 147.19 146.22 146.52 146.97 146.56 147.84 C 146.61 148.71 147.35 149.39 148.23 149.34 Z M 149.24 149.28 L 150.23 149.22 C 151.10 149.16 151.76 148.41 151.71 147.54 C 151.65 146.67 150.90 146.01 150.03 146.07 L 149.04 146.13 C 148.17 146.19 147.51 146.94 147.57 147.81 C 147.62 148.68 148.37 149.34 149.24 149.28 Z M 150.24 149.21 L 151.23 149.14 C 152.09 149.09 152.75 148.34 152.69 147.47 C 152.63 146.61 151.88 145.95 151.02 146.01 L 150.03 146.08 C 149.16 146.14 148.51 146.88 148.57 147.75 C 148.62 148.61 149.37 149.27 150.24 149.21 Z M 151.24 149.13 L 152.25 149.06 C 153.11 149.00 153.75 148.25 153.69 147.39 C 153.63 146.53 152.88 145.88 152.02 145.95 L 151.01 146.02 C 150.15 146.08 149.50 146.83 149.57 147.69 C 149.63 148.55 150.38 149.20 151.24 149.13 Z M 152.26 149.05 L 153.26 148.97 C 154.11 148.89 154.75 148.14 154.67 147.29 C 154.60 146.43 153.85 145.80 153.00 145.87 L 152.00 145.96 C 151.15 146.03 150.51 146.78 150.59 147.63 C 150.66 148.49 151.41 149.12 152.26 149.05 Z M 153.28 148.95 L 154.28 148.85 C 155.13 148.77 155.75 148.01 155.66 147.16 C 155.58 146.31 154.82 145.70 153.97 145.78 L 152.97 145.88 C 152.12 145.97 151.51 146.73 151.59 147.57 C 151.68 148.42 152.43 149.04 153.28 148.95 Z M 154.31 148.84 L 155.31 148.72 C 156.15 148.61 156.75 147.85 156.65 147.01 C 156.55 146.17 155.78 145.57 154.94 145.67 L 153.94 145.80 C 153.10 145.90 152.50 146.66 152.60 147.50 C 152.71 148.35 153.47 148.94 154.31 148.84 Z M 155.33 148.70 L 156.32 148.57 C 157.15 148.46 157.74 147.69 157.62 146.86 C 157.51 146.02 156.74 145.44 155.91 145.55 L 154.92 145.69 C 154.09 145.80 153.51 146.57 153.62 147.40 C 153.73 148.23 154.50 148.82 155.33 148.70 Z M 156.32 148.56 L 157.30 148.43 C 158.13 148.32 158.71 147.56 158.60 146.73 C 158.49 145.90 157.73 145.32 156.90 145.43 L 155.92 145.56 C 155.09 145.67 154.51 146.43 154.62 147.26 C 154.73 148.09 155.49 148.67 156.32 148.56 Z M 157.29 148.42 L 158.28 148.29 C 159.10 148.18 159.68 147.43 159.57 146.61 C 159.47 145.79 158.71 145.21 157.89 145.31 L 156.91 145.44 C 156.08 145.55 155.50 146.30 155.61 147.12 C 155.72 147.94 156.47 148.52 157.29 148.42 Z M 158.28 148.28 L 159.25 148.15 C 160.07 148.05 160.64 147.30 160.53 146.48 C 160.43 145.67 159.68 145.09 158.86 145.20 L 157.89 145.33 C 157.08 145.43 156.50 146.18 156.61 147.00 C 156.71 147.81 157.46 148.39 158.28 148.28 Z M 159.26 148.14 L 160.22 148.01 C 161.03 147.89 161.59 147.15 161.48 146.34 C 161.37 145.53 160.62 144.96 159.81 145.08 L 158.85 145.21 C 158.04 145.32 157.48 146.07 157.59 146.88 C 157.70 147.69 158.45 148.25 159.26 148.14 Z M 160.24 147.99 L 161.28 147.83 C 162.08 147.71 162.63 146.96 162.50 146.15 C 162.38 145.35 161.63 144.80 160.83 144.93 L 159.79 145.09 C 158.99 145.22 158.44 145.97 158.56 146.77 C 158.69 147.57 159.44 148.12 160.24 147.99 Z M 161.30 147.82 L 162.28 147.65 C 163.07 147.51 163.60 146.75 163.47 145.96 C 163.33 145.16 162.57 144.63 161.77 144.77 L 160.80 144.94 C 160.01 145.08 159.48 145.84 159.61 146.63 C 159.75 147.43 160.51 147.96 161.30 147.82 Z M 162.30 147.64 L 163.30 147.45 C 164.09 147.29 164.60 146.53 164.45 145.74 C 164.30 144.95 163.53 144.44 162.74 144.59 L 161.75 144.78 C 160.96 144.94 160.44 145.70 160.60 146.49 C 160.75 147.28 161.52 147.79 162.30 147.64 Z M 163.33 147.43 L 164.32 147.22 C 165.10 147.05 165.59 146.28 165.42 145.50 C 165.25 144.71 164.48 144.22 163.70 144.39 L 162.71 144.60 C 161.93 144.77 161.44 145.54 161.61 146.32 C 161.78 147.11 162.55 147.60 163.33 147.43 Z M 164.35 147.20 L 165.35 146.96 C 166.13 146.77 166.60 145.99 166.41 145.21 C 166.22 144.44 165.44 143.97 164.66 144.16 L 163.66 144.40 C 162.89 144.59 162.42 145.37 162.61 146.15 C 162.80 146.92 163.58 147.39 164.35 147.20 Z M 165.38 146.95 L 166.34 146.69 C 167.10 146.48 167.56 145.69 167.35 144.93 C 167.15 144.16 166.36 143.71 165.59 143.91 L 164.64 144.17 C 163.87 144.38 163.41 145.16 163.62 145.93 C 163.83 146.70 164.61 147.15 165.38 146.95 Z M 166.35 146.68 L 167.09 146.47 C 167.85 146.26 168.29 145.47 168.08 144.71 C 167.87 143.95 167.08 143.50 166.32 143.72 L 165.58 143.92 C 164.82 144.13 164.37 144.92 164.59 145.69 C 164.80 146.45 165.59 146.89 166.35 146.68 Z"
      fill="black"
      fill-rule="nonzero" /><path d="M 152.92 131.36 L 152.67 130.19 C 152.49 129.39 151.70 128.89 150.90 129.06 C 150.10 129.24 149.59 130.03 149.77 130.83 L 150.03 132.00 C 150.21 132.80 151.00 133.31 151.80 133.13 C 152.60 132.95 153.10 132.16 152.92 131.36 Z M 149.87 129.77 L 149.76 129.97 C 149.35 130.71 149.63 131.65 150.37 132.06 C 151.11 132.47 152.05 132.19 152.46 131.45 L 152.56 131.25 C 152.97 130.51 152.70 129.58 151.96 129.17 C 151.22 128.76 150.28 129.03 149.87 129.77 Z M 149.54 130.74 L 149.57 131.95 C 149.58 132.81 150.30 133.50 151.17 133.48 C 152.03 133.47 152.72 132.75 152.70 131.88 L 152.68 130.68 C 152.66 129.81 151.94 129.12 151.08 129.14 C 150.21 129.16 149.52 129.88 149.54 130.74 Z M 149.55 132.03 L 149.63 133.16 C 149.69 134.03 150.45 134.69 151.33 134.63 C 152.20 134.56 152.86 133.80 152.80 132.93 L 152.72 131.80 C 152.66 130.93 151.90 130.27 151.02 130.33 C 150.15 130.39 149.49 131.15 149.55 132.03 Z M 149.62 133.19 L 149.72 134.24 C 149.80 135.12 150.58 135.76 151.47 135.68 C 152.35 135.60 152.99 134.81 152.91 133.93 L 152.81 132.89 C 152.73 132.01 151.94 131.36 151.06 131.45 C 150.18 131.53 149.54 132.31 149.62 133.19 Z M 149.71 134.26 L 149.81 135.23 C 149.91 136.12 150.70 136.76 151.59 136.66 C 152.48 136.57 153.12 135.77 153.02 134.88 L 152.92 133.91 C 152.82 133.02 152.03 132.38 151.14 132.48 C 150.25 132.57 149.61 133.37 149.71 134.26 Z M 149.80 135.24 L 149.93 136.32 C 150.03 137.21 150.84 137.85 151.73 137.75 C 152.63 137.64 153.26 136.83 153.16 135.94 L 153.03 134.87 C 152.93 133.97 152.12 133.34 151.23 133.44 C 150.34 133.55 149.70 134.35 149.80 135.24 Z M 149.93 136.34 L 150.05 137.25 C 150.16 138.14 150.98 138.77 151.87 138.65 C 152.77 138.54 153.40 137.72 153.28 136.82 L 153.16 135.92 C 153.04 135.03 152.23 134.40 151.33 134.52 C 150.44 134.63 149.81 135.45 149.93 136.34 Z M 150.04 137.26 L 150.18 138.20 C 150.30 139.09 151.13 139.71 152.02 139.59 C 152.91 139.46 153.54 138.63 153.41 137.74 L 153.28 136.81 C 153.15 135.91 152.33 135.29 151.43 135.42 C 150.54 135.54 149.92 136.37 150.04 137.26 Z M 150.17 138.18 L 150.31 139.20 C 150.43 140.10 151.25 140.73 152.14 140.61 C 153.04 140.49 153.67 139.67 153.55 138.77 L 153.42 137.75 C 153.30 136.86 152.47 136.23 151.58 136.35 C 150.68 136.46 150.05 137.29 150.17 138.18 Z M 150.30 139.17 L 150.41 140.13 C 150.51 141.03 151.32 141.68 152.22 141.58 C 153.12 141.48 153.77 140.66 153.67 139.76 L 153.56 138.80 C 153.46 137.90 152.64 137.26 151.74 137.36 C 150.84 137.46 150.20 138.27 150.30 139.17 Z M 150.41 140.12 L 150.52 141.15 C 150.61 142.05 151.42 142.70 152.32 142.61 C 153.23 142.51 153.88 141.70 153.78 140.80 L 153.67 139.77 C 153.58 138.87 152.77 138.22 151.86 138.32 C 150.96 138.41 150.31 139.22 150.41 140.12 Z M 150.51 141.15 L 150.62 142.13 C 150.72 143.03 151.53 143.69 152.43 143.59 C 153.34 143.49 153.99 142.68 153.89 141.77 L 153.78 140.80 C 153.68 139.89 152.87 139.24 151.97 139.34 C 151.07 139.44 150.41 140.25 150.51 141.15 Z M 150.62 142.13 L 150.73 143.14 C 150.82 144.04 151.64 144.70 152.54 144.60 C 153.45 144.50 154.10 143.69 154.00 142.78 L 153.89 141.78 C 153.80 140.87 152.98 140.22 152.08 140.31 C 151.17 140.41 150.52 141.22 150.62 142.13 Z M 150.72 143.12 L 150.82 144.11 C 150.91 145.02 151.72 145.68 152.63 145.59 C 153.53 145.50 154.19 144.69 154.10 143.79 L 154.01 142.80 C 153.92 141.89 153.11 141.23 152.20 141.32 C 151.29 141.41 150.63 142.22 150.72 143.12 Z M 150.82 144.10 L 150.91 145.09 C 150.99 146.00 151.79 146.67 152.70 146.59 C 153.61 146.51 154.28 145.70 154.20 144.79 L 154.11 143.80 C 154.02 142.89 153.22 142.22 152.31 142.31 C 151.41 142.39 150.74 143.19 150.82 144.10 Z M 150.91 145.08 L 150.99 146.07 C 151.07 146.98 151.87 147.66 152.78 147.58 C 153.68 147.50 154.36 146.70 154.28 145.79 L 154.20 144.80 C 154.12 143.89 153.32 143.22 152.41 143.30 C 151.50 143.37 150.83 144.17 150.91 145.08 Z M 150.99 146.06 L 151.07 147.05 C 151.14 147.96 151.93 148.64 152.84 148.56 C 153.75 148.49 154.43 147.70 154.36 146.79 L 154.28 145.80 C 154.21 144.89 153.42 144.21 152.51 144.29 C 151.60 144.36 150.92 145.15 150.99 146.06 Z M 151.06 147.03 L 151.13 148.05 C 151.20 148.97 151.99 149.65 152.90 149.59 C 153.81 149.53 154.50 148.74 154.43 147.83 L 154.36 146.80 C 154.30 145.89 153.51 145.20 152.60 145.27 C 151.69 145.33 151.00 146.12 151.06 147.03 Z M 151.13 148.04 L 151.19 149.02 C 151.24 149.93 152.02 150.63 152.93 150.58 C 153.85 150.52 154.54 149.74 154.49 148.83 L 154.44 147.85 C 154.38 146.93 153.60 146.24 152.69 146.29 C 151.78 146.34 151.08 147.12 151.13 148.04 Z M 151.19 149.01 L 151.24 150.01 C 151.28 150.92 152.06 151.62 152.97 151.58 C 153.88 151.53 154.59 150.76 154.54 149.84 L 154.49 148.84 C 154.45 147.93 153.67 147.23 152.76 147.27 C 151.85 147.32 151.14 148.09 151.19 149.01 Z M 151.24 150.00 L 151.29 151.02 C 151.33 151.93 152.10 152.64 153.01 152.59 C 153.93 152.55 154.63 151.78 154.59 150.86 L 154.54 149.85 C 154.50 148.94 153.73 148.23 152.81 148.27 C 151.90 148.32 151.20 149.09 151.24 150.00 Z M 151.29 151.02 L 151.33 152.01 C 151.37 152.93 152.15 153.63 153.06 153.59 C 153.97 153.55 154.68 152.77 154.64 151.86 L 154.59 150.86 C 154.55 149.95 153.77 149.25 152.86 149.29 C 151.95 149.33 151.24 150.11 151.29 151.02 Z M 151.33 152.01 L 151.38 153.01 C 151.42 153.92 152.19 154.63 153.10 154.59 C 154.01 154.55 154.72 153.78 154.68 152.87 L 154.64 151.87 C 154.60 150.95 153.82 150.25 152.91 150.29 C 152.00 150.32 151.29 151.10 151.33 152.01 Z M 151.38 153.00 L 151.41 154.00 C 151.45 154.91 152.21 155.62 153.12 155.59 C 154.04 155.55 154.75 154.79 154.72 153.87 L 154.68 152.88 C 154.65 151.97 153.88 151.25 152.97 151.29 C 152.05 151.32 151.34 152.09 151.38 153.00 Z M 151.41 153.98 L 151.44 154.97 C 151.47 155.89 152.23 156.60 153.14 156.58 C 154.05 156.55 154.77 155.79 154.74 154.88 L 154.71 153.89 C 154.69 152.98 153.93 152.26 153.02 152.28 C 152.11 152.31 151.39 153.07 151.41 153.98 Z M 151.44 154.97 L 151.47 155.97 C 151.49 156.88 152.24 157.60 153.16 157.58 C 154.07 157.56 154.79 156.80 154.76 155.89 L 154.74 154.89 C 154.72 153.98 153.96 153.26 153.05 153.28 C 152.14 153.30 151.42 154.05 151.44 154.97 Z M 151.47 155.96 L 151.49 156.98 C 151.51 157.89 152.26 158.61 153.17 158.59 C 154.08 158.57 154.80 157.82 154.78 156.91 L 154.76 155.89 C 154.74 154.98 153.99 154.26 153.08 154.28 C 152.17 154.30 151.45 155.05 151.47 155.96 Z M 151.50 156.98 L 151.52 157.99 C 151.53 158.90 152.28 159.62 153.19 159.60 C 154.10 159.58 154.82 158.83 154.80 157.93 L 154.78 156.91 C 154.76 156.00 154.01 155.28 153.11 155.30 C 152.20 155.32 151.48 156.07 151.50 156.98 Z M 151.52 157.99 L 151.54 158.98 C 151.55 159.89 152.30 160.61 153.20 160.59 C 154.11 160.58 154.83 159.83 154.81 158.93 L 154.80 157.93 C 154.78 157.03 154.04 156.30 153.13 156.32 C 152.23 156.33 151.50 157.08 151.52 157.99 Z M 151.54 158.97 L 151.55 159.99 C 151.56 160.89 152.30 161.62 153.20 161.61 C 154.11 161.60 154.83 160.86 154.82 159.96 L 154.81 158.94 C 154.80 158.03 154.06 157.31 153.16 157.32 C 152.25 157.33 151.53 158.07 151.54 158.97 Z M 151.55 159.98 L 151.56 160.99 C 151.56 161.89 152.30 162.62 153.20 162.62 C 154.10 162.61 154.83 161.88 154.82 160.98 L 154.82 159.97 C 154.81 159.06 154.08 158.34 153.18 158.34 C 152.28 158.34 151.55 159.08 151.55 159.98 Z M 151.56 160.98 L 151.56 161.94 C 151.56 162.84 152.29 163.57 153.19 163.57 C 154.09 163.57 154.82 162.84 154.82 161.94 L 154.82 160.98 C 154.82 160.08 154.09 159.35 153.19 159.35 C 152.29 159.35 151.56 160.08 151.56 160.98 Z M 151.56 161.94 L 151.56 162.96 C 151.56 163.86 152.29 164.59 153.19 164.59 C 154.09 164.59 154.82 163.86 154.82 162.96 L 154.82 161.94 C 154.82 161.04 154.09 160.31 153.19 160.31 C 152.29 160.31 151.56 161.04 151.56 161.94 Z M 151.57 162.96 L 151.57 163.95 C 151.57 164.84 152.29 165.57 153.19 165.57 C 154.09 165.57 154.82 164.84 154.82 163.95 L 154.82 162.96 C 154.82 162.06 154.09 161.34 153.19 161.34 C 152.29 161.34 151.57 162.06 151.57 162.96 Z M 151.57 163.95 L 151.57 164.89 C 151.57 165.79 152.29 166.51 153.19 166.51 C 154.09 166.51 154.81 165.79 154.81 164.89 L 154.81 163.95 C 154.81 163.05 154.09 162.33 153.19 162.33 C 152.29 162.33 151.57 163.05 151.57 163.95 Z M 151.57 164.89 L 151.57 165.88 C 151.57 166.77 152.30 167.50 153.19 167.50 C 154.08 167.50 154.81 166.77 154.81 165.88 L 154.81 164.89 C 154.81 164.00 154.08 163.28 153.19 163.28 C 152.30 163.28 151.57 164.00 151.57 164.89 Z M 151.58 165.88 L 151.58 166.93 C 151.58 167.83 152.30 168.55 153.19 168.55 C 154.08 168.55 154.80 167.83 154.80 166.93 L 154.80 165.88 C 154.80 164.99 154.08 164.27 153.19 164.27 C 152.30 164.27 151.58 164.99 151.58 165.88 Z M 151.58 166.93 L 151.58 167.98 C 151.58 168.86 152.30 169.58 153.19 169.58 C 154.08 169.58 154.80 168.86 154.80 167.98 L 154.80 166.93 C 154.80 166.05 154.08 165.33 153.19 165.33 C 152.30 165.33 151.58 166.05 151.58 166.93 Z M 151.59 167.98 L 151.59 168.97 C 151.59 169.86 152.30 170.58 153.19 170.58 C 154.08 170.58 154.79 169.86 154.79 168.97 L 154.79 167.98 C 154.79 167.09 154.08 166.37 153.19 166.37 C 152.30 166.37 151.59 167.09 151.59 167.98 Z M 151.59 168.98 L 151.60 170.05 C 151.60 170.93 152.31 171.64 153.20 171.64 C 154.08 171.64 154.79 170.92 154.79 170.04 L 154.79 168.97 C 154.79 168.09 154.07 167.38 153.19 167.38 C 152.31 167.38 151.59 168.10 151.59 168.98 Z M 151.61 170.10 L 151.64 171.01 C 151.67 171.89 152.40 172.57 153.28 172.54 C 154.15 172.51 154.84 171.78 154.81 170.91 L 154.77 169.99 C 154.74 169.12 154.01 168.43 153.14 168.46 C 152.27 168.49 151.58 169.22 151.61 170.10 Z M 151.67 171.15 L 151.78 172.11 C 151.88 172.97 152.66 173.59 153.52 173.48 C 154.38 173.38 155.00 172.60 154.90 171.74 L 154.78 170.78 C 154.68 169.92 153.90 169.30 153.04 169.40 C 152.18 169.50 151.56 170.28 151.67 171.15 Z M 151.80 172.18 L 151.91 172.88 C 152.06 173.73 152.86 174.30 153.71 174.16 C 154.56 174.02 155.13 173.22 154.99 172.37 L 154.88 171.67 C 154.74 170.82 153.93 170.25 153.08 170.39 C 152.23 170.53 151.66 171.33 151.80 172.18 Z"
      fill="black"
      fill-rule="nonzero" /></svg>