<svg xmlns="http://www.w3.org/2000/svg" width="300" height="300" viewBox="0 0 300 300">
<path d="M 138.77 112.81 L 138.77 113.81 C 138.77 114.64 139.44 115.32 140.28 115.32 C 141.11 115.32 141.79 114.64 141.79 113.81 L 141.79 112.81 C 141.79 111.98 141.11 111.30 140.28 111.30 C 139.44 111.30 138.77 111.98 138.77 112.81 Z M 138.73 113.81 L 138.73 114.73 C 138.73 115.59 139.42 116.28 140.28 116.28 C 141.14 116.28 141.83 115.59 141.83 114.73 L 141.83 113.81 C 141.83 112.95 141.13 112.26 140.28 112.26 C 139.42 112.26 138.73 112.96 138.73 113.81 Z M 138.71 114.76 L 138.73 115.75 C 138.74 116.61 139.46 117.30 140.32 117.29 C 141.19 117.27 141.87 116.56 141.86 115.70 L 141.84 114.71 C 141.83 113.84 141.12 113.15 140.25 113.16 C 139.39 113.18 138.70 113.89 138.71 114.76 Z M 138.73 115.78 L 138.77 116.80 C 138.80 117.66 139.53 118.34 140.39 118.31 C 141.26 118.27 141.93 117.54 141.90 116.68 L 141.86 115.66 C 141.83 114.80 141.10 114.12 140.23 114.15 C 139.37 114.19 138.69 114.92 138.73 115.78 Z M 138.76 116.81 L 138.81 117.81 C 138.85 118.68 139.58 119.35 140.45 119.31 C 141.32 119.27 141.99 118.54 141.95 117.67 L 141.90 116.67 C 141.86 115.80 141.13 115.13 140.26 115.17 C 139.40 115.21 138.73 115.94 138.76 116.81 Z M 138.81 117.81 L 138.85 118.86 C 138.89 119.73 139.62 120.40 140.49 120.36 C 141.35 120.33 142.03 119.60 141.99 118.73 L 141.95 117.68 C 141.91 116.81 141.18 116.14 140.31 116.17 C 139.45 116.21 138.77 116.94 138.81 117.81 Z M 138.85 118.84 L 138.88 119.88 C 138.91 120.75 139.63 121.43 140.49 121.41 C 141.36 121.38 142.04 120.66 142.02 119.79 L 141.99 118.75 C 141.97 117.88 141.25 117.20 140.38 117.23 C 139.51 117.25 138.83 117.97 138.85 118.84 Z M 138.89 119.86 L 138.90 120.85 C 138.91 121.72 139.62 122.41 140.48 122.40 C 141.35 122.39 142.04 121.68 142.03 120.82 L 142.02 119.82 C 142.01 118.95 141.30 118.26 140.43 118.27 C 139.57 118.28 138.88 118.99 138.89 119.86 Z M 138.90 120.84 L 138.91 121.81 C 138.91 122.68 139.61 123.37 140.47 123.37 C 141.33 123.37 142.03 122.67 142.03 121.81 L 142.02 120.83 C 142.02 119.97 141.32 119.27 140.46 119.28 C 139.60 119.28 138.90 119.98 138.90 120.84 Z M 138.91 121.81 L 138.91 122.80 C 138.91 123.66 139.61 124.36 140.47 124.36 C 141.32 124.36 142.02 123.66 142.02 122.80 L 142.02 121.81 C 142.02 120.95 141.32 120.26 140.47 120.26 C 139.61 120.26 138.91 120.95 138.91 121.81 Z M 138.92 122.80 L 138.92 123.81 C 138.92 124.66 139.61 125.36 140.47 125.36 C 141.32 125.36 142.01 124.66 142.01 123.81 L 142.01 122.80 C 142.01 121.95 141.32 121.26 140.47 121.26 C 139.61 121.26 138.92 121.95 138.92 122.80 Z M 138.92 123.81 L 138.92 124.81 C 138.92 125.66 139.61 126.35 140.47 126.35 C 141.32 126.35 142.01 125.66 142.01 124.81 L 142.01 123.81 C 142.01 122.96 141.32 122.27 140.47 122.27 C 139.61 122.27 138.92 122.96 138.92 123.81 Z M 138.93 124.81 L 138.93 125.87 C 138.93 126.71 139.62 127.40 140.47 127.40 C 141.31 127.40 142.00 126.71 142.00 125.87 L 142.00 124.81 C 142.00 123.96 141.31 123.28 140.47 123.28 C 139.62 123.28 138.93 123.96 138.93 124.81 Z M 138.95 125.87 L 138.95 126.86 C 138.95 127.70 139.63 128.38 140.47 128.38 C 141.30 128.38 141.98 127.70 141.98 126.86 L 141.98 125.87 C 141.98 125.03 141.30 124.35 140.47 124.35 C 139.63 124.35 138.95 125.03 138.95 125.87 Z M 138.96 126.86 L 138.96 127.85 C 138.96 128.68 139.63 129.36 140.47 129.36 C 141.30 129.36 141.97 128.68 141.97 127.85 L 141.97 126.86 C 141.97 126.03 141.30 125.36 140.47 125.36 C 139.64 125.36 138.96 126.03 138.96 126.86 Z M 138.98 127.83 L 138.97 128.84 C 138.95 129.66 139.61 130.33 140.43 130.35 C 141.25 130.36 141.92 129.70 141.94 128.88 L 141.95 127.87 C 141.96 127.05 141.31 126.38 140.49 126.37 C 139.67 126.36 138.99 127.01 138.98 127.83 Z M 138.99 128.76 L 138.92 129.71 C 138.86 130.52 139.47 131.22 140.28 131.28 C 141.08 131.33 141.78 130.73 141.84 129.92 L 141.91 128.97 C 141.97 128.16 141.36 127.46 140.56 127.40 C 139.75 127.34 139.05 127.95 138.99 128.76 Z M 138.95 129.61 L 138.81 130.59 C 138.70 131.38 139.25 132.12 140.04 132.23 C 140.83 132.34 141.56 131.79 141.67 131.00 L 141.81 130.02 C 141.93 129.23 141.38 128.50 140.59 128.39 C 139.80 128.27 139.07 128.82 138.95 129.61 Z M 138.83 130.57 L 138.79 130.80 C 138.66 131.58 139.19 132.32 139.97 132.45 C 140.75 132.57 141.49 132.05 141.62 131.27 L 141.66 131.03 C 141.78 130.25 141.26 129.51 140.47 129.39 C 139.69 129.26 138.96 129.79 138.83 130.57 Z"
      fill="black"
      fill-rule="nonzero" /><path d="M 141.59 122.69 L 142.57 122.65 C 143.40 122.62 144.05 121.92 144.02 121.09 C 143.99 120.26 143.29 119.61 142.46 119.64 L 141.47 119.68 C 140.64 119.71 139.99 120.41 140.02 121.24 C 140.05 122.07 140.75 122.72 141.59 122.69 Z M 142.65 122.67 L 143.66 122.58 C 144.50 122.51 145.12 121.77 145.05 120.92 C 144.97 120.08 144.23 119.46 143.39 119.53 L 142.38 119.62 C 141.54 119.70 140.92 120.44 140.99 121.28 C 141.06 122.12 141.81 122.74 142.65 122.67 Z M 143.75 122.56 L 144.75 122.41 C 145.58 122.29 146.15 121.51 146.02 120.68 C 145.90 119.85 145.13 119.28 144.30 119.41 L 143.30 119.56 C 142.47 119.68 141.90 120.45 142.02 121.28 C 142.15 122.11 142.92 122.68 143.75 122.56 Z M 144.75 122.37 L 145.74 122.22 C 146.55 122.09 147.10 121.34 146.98 120.53 C 146.85 119.72 146.09 119.16 145.28 119.29 L 144.29 119.44 C 143.48 119.57 142.93 120.33 143.06 121.14 C 143.18 121.94 143.94 122.50 144.75 122.37 Z M 145.67 122.20 L 146.68 122.09 C 147.47 122.00 148.05 121.28 147.96 120.48 C 147.87 119.68 147.15 119.11 146.35 119.20 L 145.35 119.31 C 144.55 119.40 143.98 120.12 144.06 120.92 C 144.15 121.71 144.87 122.29 145.67 122.20 Z M 146.64 122.07 L 147.25 122.02 C 148.04 121.95 148.62 121.25 148.55 120.46 C 148.48 119.67 147.79 119.09 147.00 119.16 L 146.39 119.21 C 145.60 119.28 145.02 119.98 145.08 120.77 C 145.15 121.56 145.85 122.14 146.64 122.07 Z"
      fill="black"
      fill-rule="nonzero" /><path d="M 123.76 131.77 L 124.31 132.66 C 124.76 133.38 125.70 133.59 126.41 133.15 C 127.13 132.71 127.35 131.76 126.90 131.05 L 126.35 130.15 C 125.90 129.44 124.96 129.22 124.25 129.66 C 123.53 130.11 123.31 131.05 123.76 131.77 Z M 124.28 132.66 L 124.79 133.50 C 125.23 134.23 126.19 134.47 126.92 134.02 C 127.66 133.58 127.89 132.62 127.45 131.88 L 126.94 131.05 C 126.49 130.31 125.53 130.08 124.80 130.53 C 124.06 130.97 123.83 131.93 124.28 132.66 Z M 124.77 133.46 L 125.25 134.31 C 125.68 135.06 126.63 135.32 127.37 134.89 C 128.12 134.46 128.38 133.51 127.95 132.77 L 127.47 131.92 C 127.04 131.18 126.09 130.92 125.34 131.34 C 124.60 131.77 124.34 132.72 124.77 133.46 Z M 125.26 134.23 L 125.70 135.10 C 126.08 135.84 126.99 136.13 127.73 135.76 C 128.47 135.38 128.77 134.47 128.39 133.73 L 127.95 132.86 C 127.57 132.11 126.66 131.82 125.92 132.20 C 125.17 132.57 124.88 133.48 125.26 134.23 Z M 125.72 135.03 L 126.12 135.89 C 126.46 136.63 127.33 136.95 128.06 136.61 C 128.80 136.27 129.12 135.40 128.78 134.66 L 128.38 133.80 C 128.04 133.06 127.16 132.74 126.43 133.08 C 125.70 133.42 125.38 134.29 125.72 135.03 Z M 126.13 135.87 L 126.54 136.80 C 126.87 137.53 127.72 137.86 128.45 137.54 C 129.18 137.21 129.51 136.36 129.18 135.63 L 128.77 134.69 C 128.44 133.96 127.59 133.63 126.86 133.96 C 126.13 134.28 125.80 135.14 126.13 135.87 Z M 126.55 136.79 L 126.77 137.28 C 127.08 138.01 127.93 138.34 128.66 138.02 C 129.38 137.70 129.71 136.85 129.39 136.13 L 129.18 135.64 C 128.86 134.91 128.01 134.58 127.29 134.90 C 126.56 135.22 126.23 136.07 126.55 136.79 Z"
      fill="black"
      fill-rule="nonzero" /><path d="M 127.28 134.19 L 128.38 134.01 C 129.22 133.87 129.79 133.08 129.65 132.24 C 129.51 131.39 128.71 130.83 127.87 130.97 L 126.77 131.15 C 125.93 131.29 125.37 132.08 125.50 132.92 C 125.64 133.76 126.44 134.33 127.28 134.19 Z M 128.38 134.03 L 129.45 133.85 C 130.30 133.71 130.88 132.91 130.74 132.06 C 130.60 131.20 129.79 130.63 128.94 130.77 L 127.87 130.95 C 127.02 131.09 126.44 131.89 126.58 132.74 C 126.72 133.60 127.53 134.17 128.38 134.03 Z M 129.45 133.87 L 130.47 133.71 C 131.33 133.56 131.92 132.75 131.77 131.89 C 131.63 131.02 130.82 130.44 129.95 130.58 L 128.94 130.75 C 128.08 130.89 127.49 131.70 127.63 132.57 C 127.78 133.43 128.59 134.02 129.45 133.87 Z M 130.47 133.73 L 131.40 133.58 C 132.27 133.43 132.87 132.61 132.73 131.74 C 132.58 130.86 131.76 130.27 130.89 130.41 L 129.95 130.56 C 129.08 130.70 128.49 131.53 128.63 132.40 C 128.77 133.28 129.59 133.87 130.47 133.73 Z M 131.40 133.60 L 132.22 133.47 C 133.11 133.32 133.71 132.49 133.57 131.61 C 133.43 130.72 132.60 130.12 131.71 130.26 L 130.89 130.39 C 130.00 130.53 129.40 131.36 129.54 132.25 C 129.68 133.13 130.51 133.74 131.40 133.60 Z M 132.21 133.48 L 133.40 133.30 C 134.29 133.16 134.90 132.33 134.76 131.44 C 134.63 130.55 133.80 129.93 132.91 130.07 L 131.72 130.25 C 130.83 130.38 130.22 131.22 130.35 132.11 C 130.49 133.00 131.32 133.61 132.21 133.48 Z M 133.38 133.29 L 134.29 133.17 C 135.18 133.04 135.80 132.22 135.68 131.33 C 135.55 130.44 134.73 129.82 133.84 129.94 L 132.92 130.07 C 132.03 130.19 131.41 131.02 131.54 131.91 C 131.66 132.80 132.49 133.42 133.38 133.29 Z M 134.28 133.16 L 135.14 133.05 C 136.03 132.93 136.65 132.12 136.53 131.23 C 136.41 130.34 135.60 129.71 134.71 129.83 L 133.85 129.94 C 132.96 130.06 132.34 130.88 132.45 131.77 C 132.57 132.66 133.39 133.28 134.28 133.16 Z M 135.13 133.05 L 136.11 132.92 C 137.00 132.81 137.63 131.99 137.51 131.10 C 137.40 130.22 136.58 129.59 135.70 129.70 L 134.71 129.83 C 133.82 129.95 133.20 130.76 133.31 131.65 C 133.43 132.54 134.24 133.16 135.13 133.05 Z M 136.10 132.92 L 137.11 132.80 C 137.99 132.69 138.63 131.89 138.52 131.00 C 138.42 130.11 137.61 129.48 136.72 129.59 L 135.71 129.71 C 134.83 129.81 134.19 130.62 134.30 131.50 C 134.40 132.39 135.21 133.03 136.10 132.92 Z M 137.08 132.80 L 138.08 132.70 C 138.97 132.61 139.61 131.82 139.52 130.93 C 139.43 130.04 138.64 129.39 137.75 129.48 L 136.75 129.59 C 135.86 129.68 135.22 130.47 135.31 131.36 C 135.40 132.24 136.19 132.89 137.08 132.80 Z M 138.05 132.70 L 139.04 132.62 C 139.93 132.54 140.59 131.76 140.52 130.87 C 140.44 129.99 139.66 129.33 138.78 129.40 L 137.78 129.48 C 136.89 129.56 136.24 130.34 136.31 131.22 C 136.38 132.11 137.16 132.77 138.05 132.70 Z M 139.02 132.61 L 140.02 132.55 C 140.90 132.49 141.57 131.72 141.51 130.83 C 141.45 129.94 140.68 129.27 139.80 129.33 L 138.80 129.40 C 137.91 129.46 137.24 130.23 137.30 131.12 C 137.36 132.01 138.13 132.68 139.02 132.61 Z M 140.00 132.54 L 140.99 132.49 C 141.88 132.44 142.56 131.68 142.51 130.79 C 142.46 129.91 141.70 129.23 140.81 129.28 L 139.82 129.34 C 138.93 129.39 138.25 130.14 138.30 131.03 C 138.35 131.92 139.11 132.59 140.00 132.54 Z M 140.98 132.49 L 141.98 132.44 C 142.86 132.40 143.55 131.65 143.51 130.77 C 143.47 129.88 142.72 129.19 141.83 129.24 L 140.83 129.28 C 139.95 129.32 139.26 130.07 139.30 130.96 C 139.34 131.84 140.09 132.53 140.98 132.49 Z M 141.96 132.44 L 142.97 132.40 C 143.85 132.37 144.54 131.63 144.51 130.75 C 144.48 129.86 143.74 129.17 142.85 129.20 L 141.85 129.24 C 140.96 129.27 140.27 130.01 140.30 130.90 C 140.34 131.78 141.08 132.47 141.96 132.44 Z M 142.95 132.40 L 143.94 132.37 C 144.83 132.35 145.52 131.62 145.50 130.74 C 145.48 129.86 144.75 129.16 143.87 129.18 L 142.87 129.21 C 141.99 129.23 141.29 129.96 141.31 130.84 C 141.34 131.72 142.07 132.42 142.95 132.40 Z M 143.93 132.37 L 144.94 132.36 C 145.82 132.35 146.52 131.62 146.51 130.75 C 146.50 129.87 145.78 129.16 144.90 129.17 L 143.89 129.19 C 143.01 129.20 142.30 129.92 142.31 130.80 C 142.32 131.68 143.05 132.38 143.93 132.37 Z M 144.92 132.35 L 145.92 132.35 C 146.80 132.34 147.50 131.63 147.50 130.76 C 147.50 129.88 146.79 129.17 145.91 129.18 L 144.91 129.18 C 144.04 129.18 143.33 129.90 143.33 130.77 C 143.34 131.65 144.05 132.35 144.92 132.35 Z M 145.92 132.34 L 146.91 132.34 C 147.78 132.34 148.49 131.63 148.49 130.76 C 148.49 129.89 147.78 129.18 146.91 129.18 L 145.92 129.18 C 145.04 129.18 144.34 129.89 144.34 130.76 C 144.34 131.63 145.04 132.34 145.92 132.34 Z M 146.91 132.33 L 147.91 132.33 C 148.77 132.33 149.48 131.63 149.48 130.76 C 149.48 129.89 148.77 129.19 147.91 129.19 L 146.91 129.19 C 146.04 129.19 145.34 129.89 145.34 130.76 C 145.34 131.63 146.04 132.33 146.91 132.33 Z M 147.91 132.33 L 148.89 132.33 C 149.75 132.33 150.45 131.63 150.45 130.76 C 150.45 129.90 149.75 129.20 148.89 129.20 L 147.91 129.20 C 147.04 129.20 146.34 129.90 146.34 130.76 C 146.34 131.63 147.04 132.33 147.91 132.33 Z M 148.89 132.32 L 149.87 132.32 C 150.74 132.32 151.43 131.62 151.43 130.76 C 151.43 129.90 150.74 129.20 149.87 129.20 L 148.89 129.20 C 148.02 129.20 147.32 129.90 147.32 130.76 C 147.32 131.62 148.02 132.32 148.89 132.32 Z M 149.87 132.32 L 150.90 132.32 C 151.76 132.32 152.46 131.62 152.46 130.76 C 152.46 129.90 151.76 129.20 150.90 129.20 L 149.87 129.20 C 149.01 129.20 148.32 129.90 148.32 130.76 C 148.32 131.62 149.01 132.32 149.87 132.32 Z M 150.90 132.32 L 151.93 132.32 C 152.79 132.32 153.48 131.62 153.48 130.76 C 153.48 129.90 152.79 129.21 151.93 129.21 L 150.90 129.21 C 150.05 129.21 149.35 129.90 149.35 130.76 C 149.35 131.62 150.05 132.32 150.90 132.32 Z M 151.93 132.31 L 152.90 132.31 C 153.76 132.31 154.46 131.62 154.46 130.76 C 154.46 129.90 153.76 129.21 152.90 129.21 L 151.93 129.21 C 151.07 129.21 150.38 129.90 150.38 130.76 C 150.38 131.62 151.07 132.31 151.93 132.31 Z M 152.89 132.31 L 154.10 132.31 C 154.95 132.32 155.65 131.63 155.66 130.78 C 155.66 129.93 154.98 129.23 154.12 129.23 L 152.92 129.22 C 152.06 129.21 151.37 129.90 151.36 130.75 C 151.35 131.60 152.04 132.30 152.89 132.31 Z M 153.58 129.32 L 153.24 129.45 C 152.44 129.75 152.03 130.63 152.32 131.43 C 152.62 132.23 153.51 132.64 154.31 132.34 L 154.65 132.22 C 155.45 131.92 155.86 131.03 155.56 130.23 C 155.26 129.44 154.38 129.03 153.58 129.32 Z M 153.05 129.53 L 152.13 130.01 C 151.37 130.41 151.09 131.35 151.49 132.10 C 151.89 132.86 152.82 133.15 153.58 132.75 L 154.50 132.27 C 155.25 131.87 155.54 130.93 155.14 130.17 C 154.74 129.42 153.80 129.13 153.05 129.53 Z M 151.72 130.34 L 151.00 131.11 C 150.42 131.74 150.47 132.72 151.09 133.30 C 151.72 133.87 152.70 133.83 153.28 133.21 L 153.99 132.43 C 154.57 131.80 154.53 130.82 153.90 130.24 C 153.27 129.67 152.30 129.71 151.72 130.34 Z M 150.92 131.24 L 150.30 132.05 C 149.79 132.73 149.93 133.69 150.60 134.20 C 151.28 134.70 152.24 134.57 152.75 133.90 L 153.36 133.08 C 153.87 132.41 153.74 131.45 153.06 130.94 C 152.39 130.43 151.43 130.56 150.92 131.24 Z M 150.29 132.10 L 149.69 132.94 C 149.21 133.62 149.37 134.57 150.05 135.05 C 150.73 135.53 151.67 135.37 152.16 134.69 L 152.76 133.85 C 153.24 133.17 153.08 132.23 152.40 131.74 C 151.72 131.26 150.78 131.42 150.29 132.10 Z M 149.70 132.98 L 149.12 133.82 C 148.65 134.50 148.83 135.42 149.50 135.89 C 150.18 136.35 151.11 136.18 151.57 135.50 L 152.15 134.66 C 152.62 133.98 152.44 133.06 151.77 132.59 C 151.09 132.13 150.16 132.30 149.70 132.98 Z M 149.13 133.84 L 148.58 134.65 C 148.13 135.32 148.30 136.23 148.97 136.68 C 149.64 137.14 150.55 136.96 151.01 136.29 L 151.56 135.48 C 152.01 134.81 151.84 133.90 151.17 133.45 C 150.50 133.00 149.59 133.17 149.13 133.84 Z M 148.61 134.65 L 148.07 135.42 C 147.62 136.07 147.78 136.97 148.43 137.43 C 149.08 137.88 149.98 137.72 150.44 137.07 L 150.98 136.30 C 151.43 135.65 151.27 134.75 150.62 134.29 C 149.97 133.83 149.07 133.99 148.61 134.65 Z M 148.10 135.40 L 147.51 136.21 C 147.04 136.85 147.19 137.75 147.82 138.21 C 148.46 138.68 149.36 138.53 149.82 137.90 L 150.41 137.09 C 150.88 136.45 150.74 135.55 150.10 135.09 C 149.46 134.62 148.56 134.76 148.10 135.40 Z M 147.52 136.21 L 147.10 136.78 C 146.63 137.41 146.77 138.30 147.40 138.77 C 148.04 139.24 148.93 139.10 149.40 138.47 L 149.82 137.90 C 150.28 137.27 150.15 136.37 149.51 135.90 C 148.88 135.44 147.98 135.57 147.52 136.21 Z"
      fill="black"
      fill-rule="nonzero" /><path d="M 135.73 140.95 L 136.76 140.95 C 137.61 140.95 138.30 140.25 138.30 139.40 C 138.30 138.55 137.61 137.85 136.75 137.86 L 135.72 137.86 C 134.87 137.86 134.18 138.55 134.18 139.41 C 134.18 140.26 134.87 140.95 135.73 140.95 Z M 136.78 140.98 L 137.76 140.97 C 138.63 140.96 139.33 140.24 139.32 139.37 C 139.31 138.49 138.59 137.80 137.72 137.81 L 136.73 137.82 C 135.86 137.83 135.16 138.55 135.17 139.42 C 135.19 140.30 135.90 141.00 136.78 140.98 Z M 137.81 140.97 L 138.75 140.93 C 139.62 140.89 140.30 140.15 140.26 139.28 C 140.23 138.41 139.49 137.73 138.62 137.77 L 137.67 137.81 C 136.80 137.85 136.12 138.58 136.16 139.46 C 136.20 140.33 136.93 141.00 137.81 140.97 Z M 138.83 140.87 L 139.82 140.78 C 140.66 140.70 141.28 139.96 141.20 139.12 C 141.12 138.27 140.38 137.65 139.54 137.73 L 138.54 137.82 C 137.70 137.90 137.08 138.65 137.16 139.49 C 137.24 140.33 137.98 140.95 138.83 140.87 Z M 139.88 140.73 L 140.84 140.60 C 141.65 140.49 142.22 139.74 142.11 138.93 C 142.00 138.11 141.25 137.54 140.44 137.65 L 139.48 137.78 C 138.66 137.90 138.09 138.64 138.21 139.46 C 138.32 140.27 139.07 140.84 139.88 140.73 Z M 140.87 140.57 L 141.85 140.42 C 142.65 140.29 143.19 139.54 143.06 138.74 C 142.94 137.94 142.19 137.40 141.39 137.53 L 140.41 137.68 C 139.61 137.81 139.07 138.56 139.19 139.35 C 139.32 140.15 140.07 140.70 140.87 140.57 Z M 141.86 140.40 L 142.90 140.23 C 143.69 140.09 144.23 139.35 144.09 138.56 C 143.96 137.77 143.22 137.24 142.43 137.37 L 141.38 137.54 C 140.59 137.67 140.06 138.42 140.19 139.21 C 140.32 140.00 141.07 140.53 141.86 140.40 Z M 142.90 140.22 L 143.15 140.18 C 143.93 140.04 144.46 139.30 144.33 138.52 C 144.19 137.73 143.45 137.20 142.67 137.34 L 142.43 137.38 C 141.64 137.51 141.11 138.25 141.25 139.04 C 141.38 139.82 142.12 140.35 142.90 140.22 Z"
      fill="black"
      fill-rule="nonzero" /><path d="M 135.65 147.95 L 136.05 147.06 C 136.39 146.30 136.06 145.41 135.30 145.06 C 134.54 144.72 133.64 145.06 133.30 145.82 L 132.89 146.70 C 132.55 147.46 132.89 148.36 133.65 148.70 C 134.41 149.05 135.31 148.71 135.65 147.95 Z M 135.97 147.30 L 136.58 146.38 C 137.05 145.67 136.86 144.71 136.15 144.23 C 135.43 143.75 134.47 143.95 133.99 144.66 L 133.38 145.58 C 132.90 146.29 133.10 147.26 133.81 147.73 C 134.53 148.21 135.49 148.02 135.97 147.30 Z M 136.43 146.66 L 137.18 145.90 C 137.80 145.27 137.80 144.25 137.17 143.63 C 136.54 143.00 135.52 143.00 134.89 143.63 L 134.14 144.39 C 133.52 145.02 133.52 146.04 134.15 146.66 C 134.78 147.29 135.80 147.29 136.43 146.66 Z M 134.66 143.85 L 134.43 144.20 C 133.93 144.96 134.13 145.98 134.89 146.48 C 135.64 146.99 136.67 146.79 137.17 146.03 L 137.40 145.68 C 137.91 144.92 137.71 143.90 136.95 143.40 C 136.19 142.89 135.17 143.09 134.66 143.85 Z M 134.58 144.00 L 133.75 144.91 C 133.13 145.59 133.19 146.64 133.86 147.25 C 134.54 147.87 135.59 147.82 136.20 147.14 L 137.03 146.23 C 137.64 145.55 137.59 144.50 136.92 143.89 C 136.24 143.27 135.19 143.32 134.58 144.00 Z M 133.78 144.89 L 133.11 145.59 C 132.48 146.25 132.51 147.30 133.17 147.93 C 133.83 148.55 134.88 148.53 135.51 147.87 L 136.17 147.16 C 136.80 146.50 136.77 145.46 136.11 144.83 C 135.45 144.20 134.40 144.23 133.78 144.89 Z M 133.13 145.57 L 132.40 146.33 C 131.76 146.98 131.77 148.02 132.42 148.66 C 133.07 149.29 134.12 149.28 134.75 148.63 L 135.49 147.88 C 136.12 147.23 136.11 146.18 135.46 145.55 C 134.81 144.91 133.77 144.92 133.13 145.57 Z M 132.41 146.32 L 131.67 147.06 C 131.03 147.70 131.03 148.74 131.67 149.38 C 132.31 150.02 133.35 150.02 134.00 149.38 L 134.74 148.64 C 135.38 148.00 135.38 146.96 134.74 146.32 C 134.09 145.67 133.05 145.67 132.41 146.32 Z M 131.68 147.06 L 130.95 147.78 C 130.31 148.41 130.30 149.45 130.94 150.09 C 131.58 150.74 132.61 150.74 133.26 150.11 L 133.98 149.38 C 134.63 148.75 134.63 147.71 134.00 147.07 C 133.36 146.43 132.32 146.42 131.68 147.06 Z M 130.96 147.78 L 130.26 148.47 C 129.62 149.10 129.61 150.13 130.25 150.77 C 130.88 151.41 131.91 151.42 132.55 150.79 L 133.25 150.10 C 133.89 149.47 133.90 148.44 133.27 147.80 C 132.63 147.16 131.60 147.15 130.96 147.78 Z M 130.27 148.48 L 129.53 149.21 C 128.90 149.83 128.89 150.86 129.52 151.49 C 130.15 152.13 131.17 152.13 131.81 151.51 L 132.54 150.78 C 133.18 150.15 133.19 149.13 132.56 148.49 C 131.93 147.86 130.91 147.85 130.27 148.48 Z M 129.54 149.22 L 128.89 149.87 C 128.26 150.49 128.26 151.50 128.88 152.13 C 129.50 152.76 130.51 152.76 131.14 152.14 L 131.80 151.49 C 132.42 150.87 132.43 149.86 131.81 149.23 C 131.18 148.60 130.17 148.60 129.54 149.22 Z M 128.90 149.88 L 128.19 150.58 C 127.57 151.19 127.56 152.20 128.17 152.82 C 128.79 153.44 129.79 153.45 130.42 152.84 L 131.13 152.13 C 131.75 151.52 131.76 150.51 131.14 149.89 C 130.53 149.27 129.52 149.26 128.90 149.88 Z M 128.21 150.58 L 127.53 151.24 C 126.90 151.84 126.89 152.84 127.49 153.46 C 128.10 154.09 129.09 154.10 129.72 153.50 L 130.40 152.84 C 131.02 152.23 131.04 151.24 130.43 150.61 C 129.83 149.99 128.83 149.97 128.21 150.58 Z M 127.56 151.22 L 126.79 151.94 C 126.16 152.52 126.12 153.51 126.71 154.14 C 127.29 154.77 128.28 154.81 128.91 154.22 L 129.68 153.51 C 130.31 152.93 130.35 151.94 129.77 151.31 C 129.18 150.68 128.20 150.64 127.56 151.22 Z M 126.83 151.92 L 126.11 152.55 C 125.47 153.11 125.41 154.09 125.97 154.73 C 126.53 155.37 127.51 155.44 128.15 154.87 L 128.87 154.24 C 129.51 153.68 129.58 152.70 129.01 152.06 C 128.45 151.42 127.48 151.36 126.83 151.92 Z M 126.15 152.53 L 125.36 153.19 C 124.71 153.73 124.62 154.70 125.16 155.35 C 125.70 156.01 126.67 156.09 127.32 155.55 L 128.12 154.89 C 128.77 154.35 128.86 153.38 128.31 152.73 C 127.77 152.08 126.80 151.99 126.15 152.53 Z M 125.40 153.17 L 124.60 153.81 C 123.93 154.33 123.82 155.28 124.34 155.94 C 124.86 156.60 125.81 156.72 126.47 156.20 L 127.28 155.57 C 127.94 155.05 128.06 154.09 127.54 153.43 C 127.02 152.77 126.06 152.66 125.40 153.17 Z M 124.64 153.80 L 123.84 154.40 C 123.17 154.89 123.04 155.83 123.53 156.49 C 124.02 157.16 124.96 157.30 125.63 156.80 L 126.43 156.21 C 127.09 155.71 127.23 154.77 126.74 154.11 C 126.24 153.44 125.30 153.31 124.64 153.80 Z M 123.86 154.40 L 123.26 154.85 C 122.60 155.33 122.45 156.25 122.93 156.91 C 123.41 157.57 124.33 157.72 124.99 157.24 L 125.60 156.80 C 126.26 156.32 126.41 155.39 125.93 154.73 C 125.45 154.07 124.52 153.92 123.86 154.40 Z"
      fill="black"
      fill-rule="nonzero" /><path d="M 143.07 147.70 L 144.05 147.59 C 144.87 147.50 145.47 146.76 145.38 145.94 C 145.28 145.11 144.54 144.52 143.72 144.61 L 142.74 144.72 C 141.92 144.81 141.32 145.55 141.41 146.38 C 141.50 147.20 142.25 147.79 143.07 147.70 Z M 144.01 147.63 L 145.00 147.54 C 145.84 147.47 146.47 146.73 146.40 145.89 C 146.33 145.05 145.59 144.42 144.74 144.49 L 143.76 144.58 C 142.91 144.65 142.29 145.39 142.36 146.23 C 142.43 147.07 143.17 147.70 144.01 147.63 Z M 144.94 147.56 L 145.89 147.52 C 146.75 147.48 147.41 146.75 147.36 145.90 C 147.32 145.05 146.60 144.39 145.75 144.43 L 144.80 144.48 C 143.94 144.52 143.29 145.24 143.33 146.09 C 143.37 146.95 144.09 147.60 144.94 147.56 Z M 145.86 147.52 L 146.91 147.50 C 147.77 147.48 148.45 146.77 148.43 145.92 C 148.41 145.06 147.70 144.38 146.85 144.40 L 145.79 144.43 C 144.93 144.45 144.26 145.15 144.27 146.01 C 144.29 146.86 145.00 147.54 145.86 147.52 Z M 146.89 147.49 L 147.85 147.48 C 148.70 147.47 149.38 146.78 149.37 145.93 C 149.37 145.08 148.67 144.40 147.82 144.41 L 146.87 144.41 C 146.02 144.42 145.34 145.11 145.34 145.96 C 145.35 146.81 146.04 147.49 146.89 147.49 Z M 147.84 147.46 L 148.87 147.46 C 149.70 147.45 150.38 146.77 150.38 145.94 C 150.38 145.10 149.70 144.42 148.86 144.42 L 147.83 144.43 C 146.99 144.43 146.32 145.11 146.32 145.95 C 146.32 146.78 147.00 147.46 147.84 147.46 Z M 148.86 147.44 L 149.50 147.44 C 150.33 147.44 151.00 146.77 151.00 145.94 C 151.00 145.11 150.33 144.44 149.50 144.44 L 148.86 144.44 C 148.03 144.44 147.36 145.11 147.36 145.94 C 147.36 146.77 148.03 147.44 148.86 147.44 Z"
      fill="black"
      fill-rule="nonzero" /><path d="M 140.51 150.13 L 139.77 150.57 C 139.02 151.03 138.78 152.00 139.24 152.75 C 139.69 153.50 140.67 153.74 141.42 153.29 L 142.15 152.84 C 142.90 152.39 143.14 151.41 142.69 150.66 C 142.23 149.91 141.26 149.68 140.51 150.13 Z M 139.61 150.67 L 138.74 151.34 C 138.04 151.89 137.92 152.90 138.47 153.60 C 139.02 154.30 140.02 154.42 140.72 153.87 L 141.59 153.19 C 142.28 152.65 142.41 151.64 141.86 150.94 C 141.31 150.24 140.30 150.12 139.61 150.67 Z M 138.61 151.45 L 137.90 152.14 C 137.25 152.76 137.24 153.78 137.86 154.42 C 138.48 155.06 139.50 155.08 140.14 154.46 L 140.86 153.77 C 141.50 153.15 141.51 152.13 140.89 151.48 C 140.27 150.84 139.25 150.83 138.61 151.45 Z M 137.85 152.18 L 137.13 152.94 C 136.51 153.59 136.54 154.61 137.19 155.23 C 137.83 155.84 138.86 155.82 139.47 155.17 L 140.19 154.41 C 140.81 153.76 140.78 152.74 140.13 152.13 C 139.49 151.51 138.46 151.54 137.85 152.18 Z M 137.11 152.96 L 136.41 153.72 C 135.80 154.37 135.85 155.40 136.50 156.00 C 137.16 156.61 138.19 156.57 138.79 155.91 L 139.49 155.15 C 140.10 154.49 140.06 153.47 139.40 152.86 C 138.74 152.26 137.72 152.30 137.11 152.96 Z M 136.42 153.71 L 135.68 154.50 C 135.08 155.15 135.11 156.18 135.77 156.78 C 136.42 157.39 137.45 157.36 138.06 156.70 L 138.79 155.92 C 139.40 155.26 139.36 154.24 138.70 153.63 C 138.05 153.02 137.02 153.06 136.42 153.71 Z M 135.70 154.48 L 135.01 155.20 C 134.39 155.85 134.41 156.87 135.06 157.49 C 135.70 158.11 136.73 158.08 137.35 157.44 L 138.04 156.72 C 138.66 156.07 138.63 155.05 137.99 154.43 C 137.34 153.81 136.32 153.84 135.70 154.48 Z M 135.02 155.20 L 134.40 155.84 C 133.78 156.49 133.80 157.51 134.44 158.13 C 135.08 158.75 136.10 158.73 136.72 158.08 L 137.34 157.44 C 137.96 156.80 137.94 155.78 137.30 155.16 C 136.66 154.54 135.63 154.56 135.02 155.20 Z M 134.38 155.86 L 133.72 156.57 C 133.11 157.22 133.14 158.24 133.79 158.85 C 134.44 159.46 135.46 159.43 136.07 158.78 L 136.74 158.07 C 137.34 157.42 137.31 156.40 136.66 155.79 C 136.01 155.18 134.99 155.21 134.38 155.86 Z M 133.71 156.59 L 133.01 157.34 C 132.41 158.00 132.46 159.01 133.11 159.61 C 133.76 160.22 134.78 160.17 135.38 159.52 L 136.08 158.76 C 136.68 158.11 136.64 157.09 135.98 156.49 C 135.33 155.89 134.31 155.93 133.71 156.59 Z M 133.02 157.34 L 132.35 158.07 C 131.75 158.72 131.79 159.74 132.44 160.34 C 133.10 160.94 134.11 160.89 134.71 160.24 L 135.38 159.52 C 135.98 158.87 135.94 157.85 135.28 157.25 C 134.63 156.65 133.62 156.69 133.02 157.34 Z M 132.36 158.07 L 131.67 158.81 C 131.07 159.46 131.11 160.47 131.76 161.07 C 132.41 161.67 133.42 161.63 134.02 160.98 L 134.70 160.24 C 135.30 159.59 135.26 158.58 134.62 157.98 C 133.97 157.38 132.96 157.42 132.36 158.07 Z M 131.68 158.81 L 131.00 159.55 C 130.40 160.20 130.44 161.20 131.08 161.80 C 131.73 162.40 132.73 162.36 133.33 161.72 L 134.01 160.98 C 134.61 160.33 134.57 159.33 133.93 158.73 C 133.29 158.13 132.28 158.17 131.68 158.81 Z M 131.00 159.55 L 130.33 160.28 C 129.73 160.92 129.77 161.92 130.41 162.52 C 131.05 163.11 132.05 163.08 132.65 162.44 L 133.32 161.71 C 133.92 161.07 133.89 160.07 133.24 159.47 C 132.60 158.88 131.60 158.91 131.00 159.55 Z M 130.34 160.27 L 129.64 161.01 C 129.05 161.65 129.08 162.65 129.71 163.25 C 130.35 163.84 131.35 163.81 131.95 163.18 L 132.64 162.44 C 133.24 161.80 133.21 160.80 132.57 160.20 C 131.94 159.61 130.94 159.64 130.34 160.27 Z M 129.65 161.01 L 128.95 161.75 C 128.36 162.38 128.38 163.37 129.01 163.97 C 129.64 164.57 130.64 164.55 131.24 163.92 L 131.94 163.18 C 132.54 162.55 132.51 161.55 131.88 160.95 C 131.25 160.35 130.25 160.38 129.65 161.01 Z M 128.97 161.74 L 128.26 162.47 C 127.66 163.10 127.68 164.09 128.31 164.69 C 128.93 165.29 129.92 165.27 130.52 164.65 L 131.23 163.92 C 131.83 163.29 131.81 162.30 131.18 161.70 C 130.56 161.10 129.57 161.12 128.97 161.74 Z M 128.28 162.47 L 127.59 163.17 C 126.99 163.79 127.00 164.78 127.62 165.38 C 128.23 165.98 129.22 165.97 129.83 165.35 L 130.51 164.65 C 131.12 164.03 131.10 163.04 130.49 162.44 C 129.87 161.84 128.88 161.85 128.28 162.47 Z M 127.60 163.16 L 126.87 163.90 C 126.26 164.51 126.27 165.50 126.88 166.11 C 127.49 166.71 128.47 166.71 129.08 166.10 L 129.81 165.36 C 130.42 164.75 130.42 163.76 129.81 163.16 C 129.20 162.55 128.21 162.55 127.60 163.16 Z M 126.89 163.89 L 126.19 164.58 C 125.58 165.18 125.57 166.16 126.17 166.77 C 126.77 167.38 127.75 167.39 128.36 166.79 L 129.06 166.11 C 129.67 165.51 129.68 164.53 129.08 163.91 C 128.48 163.30 127.50 163.29 126.89 163.89 Z M 126.21 164.56 L 125.53 165.21 C 124.91 165.80 124.89 166.78 125.48 167.40 C 126.06 168.02 127.04 168.04 127.66 167.45 L 128.34 166.80 C 128.96 166.22 128.98 165.24 128.40 164.62 C 127.81 164.00 126.83 163.98 126.21 164.56 Z M 125.56 165.20 L 124.84 165.85 C 124.21 166.43 124.16 167.40 124.74 168.02 C 125.31 168.65 126.28 168.70 126.91 168.13 L 127.63 167.47 C 128.26 166.90 128.30 165.93 127.73 165.30 C 127.16 164.67 126.19 164.63 125.56 165.20 Z M 124.87 165.84 L 124.08 166.52 C 123.44 167.08 123.37 168.04 123.93 168.68 C 124.48 169.32 125.44 169.39 126.08 168.83 L 126.87 168.14 C 127.51 167.59 127.58 166.63 127.03 165.99 C 126.47 165.35 125.51 165.28 124.87 165.84 Z M 124.11 166.51 L 123.33 167.15 C 122.69 167.69 122.60 168.65 123.14 169.30 C 123.67 169.94 124.63 170.03 125.28 169.49 L 126.05 168.85 C 126.70 168.31 126.79 167.35 126.25 166.71 C 125.71 166.06 124.75 165.97 124.11 166.51 Z M 123.37 167.14 L 122.56 167.77 C 121.91 168.29 121.80 169.24 122.31 169.90 C 122.83 170.55 123.78 170.66 124.44 170.15 L 125.24 169.51 C 125.90 168.99 126.01 168.04 125.49 167.39 C 124.97 166.73 124.02 166.62 123.37 167.14 Z M 122.62 167.74 L 121.79 168.34 C 121.12 168.83 120.97 169.77 121.45 170.44 C 121.94 171.11 122.88 171.26 123.55 170.78 L 124.38 170.17 C 125.05 169.69 125.20 168.75 124.72 168.08 C 124.23 167.40 123.29 167.25 122.62 167.74 Z M 121.87 168.31 L 121.01 168.86 C 120.32 169.30 120.12 170.22 120.56 170.91 C 121.00 171.60 121.92 171.81 122.61 171.36 L 123.47 170.81 C 124.16 170.37 124.37 169.45 123.92 168.76 C 123.48 168.07 122.56 167.87 121.87 168.31 Z M 121.07 168.85 L 120.28 169.31 C 119.58 169.71 119.35 170.61 119.76 171.31 C 120.16 172.01 121.06 172.25 121.76 171.84 L 122.55 171.38 C 123.25 170.97 123.48 170.07 123.08 169.37 C 122.67 168.67 121.77 168.44 121.07 168.85 Z"
      fill="black"
      fill-rule="nonzero" /><path d="M 137.74 156.69 L 138.73 156.80 C 139.56 156.88 140.30 156.28 140.39 155.46 C 140.48 154.63 139.88 153.89 139.05 153.80 L 138.06 153.70 C 137.23 153.61 136.49 154.21 136.40 155.04 C 136.32 155.86 136.92 156.61 137.74 156.69 Z M 138.78 156.85 L 139.78 156.92 C 140.64 156.98 141.38 156.34 141.44 155.48 C 141.50 154.62 140.86 153.88 140.00 153.82 L 139.00 153.75 C 138.14 153.69 137.40 154.33 137.34 155.19 C 137.28 156.05 137.93 156.79 138.78 156.85 Z M 139.86 156.94 L 140.86 156.96 C 141.73 156.98 142.45 156.29 142.47 155.43 C 142.49 154.56 141.80 153.84 140.93 153.82 L 139.93 153.80 C 139.06 153.78 138.34 154.47 138.32 155.34 C 138.30 156.20 138.99 156.92 139.86 156.94 Z M 140.90 156.95 L 141.88 156.95 C 142.74 156.96 143.44 156.26 143.44 155.39 C 143.45 154.53 142.75 153.83 141.88 153.83 L 140.90 153.83 C 140.04 153.83 139.34 154.53 139.34 155.39 C 139.33 156.25 140.03 156.95 140.90 156.95 Z M 141.91 156.94 L 142.89 156.92 C 143.75 156.91 144.43 156.21 144.41 155.36 C 144.40 154.50 143.70 153.82 142.85 153.84 L 141.86 153.85 C 141.01 153.86 140.33 154.56 140.34 155.42 C 140.35 156.27 141.05 156.95 141.91 156.94 Z M 142.95 156.90 L 143.95 156.85 C 144.79 156.80 145.43 156.09 145.39 155.25 C 145.34 154.41 144.63 153.76 143.79 153.81 L 142.79 153.86 C 141.95 153.90 141.31 154.62 141.35 155.46 C 141.40 156.30 142.11 156.94 142.95 156.90 Z M 144.00 156.83 L 145.00 156.74 C 145.83 156.67 146.44 155.94 146.37 155.11 C 146.30 154.28 145.57 153.67 144.74 153.74 L 143.74 153.83 C 142.91 153.90 142.29 154.63 142.37 155.46 C 142.44 156.28 143.17 156.90 144.00 156.83 Z M 145.03 156.72 L 146.05 156.61 C 146.87 156.52 147.46 155.78 147.37 154.97 C 147.28 154.15 146.55 153.56 145.73 153.65 L 144.71 153.76 C 143.89 153.85 143.30 154.58 143.39 155.40 C 143.48 156.22 144.22 156.81 145.03 156.72 Z M 146.06 156.58 L 147.06 156.47 C 147.87 156.38 148.44 155.65 148.35 154.84 C 148.26 154.04 147.53 153.46 146.72 153.56 L 145.72 153.67 C 144.92 153.77 144.34 154.49 144.44 155.30 C 144.53 156.10 145.26 156.68 146.06 156.58 Z M 147.04 156.45 L 148.03 156.35 C 148.82 156.27 149.40 155.56 149.32 154.76 C 149.24 153.97 148.53 153.39 147.73 153.47 L 146.75 153.57 C 145.95 153.66 145.37 154.36 145.45 155.16 C 145.54 155.95 146.25 156.53 147.04 156.45 Z M 147.99 156.34 L 148.99 156.26 C 149.78 156.20 150.37 155.51 150.31 154.72 C 150.24 153.93 149.55 153.34 148.76 153.40 L 147.77 153.48 C 146.98 153.54 146.39 154.23 146.45 155.02 C 146.51 155.81 147.20 156.40 147.99 156.34 Z M 148.97 156.26 L 149.47 156.22 C 150.26 156.17 150.85 155.49 150.80 154.70 C 150.75 153.91 150.06 153.32 149.28 153.37 L 148.78 153.41 C 147.99 153.46 147.40 154.14 147.45 154.93 C 147.51 155.72 148.19 156.31 148.97 156.26 Z"
      fill="black"
      fill-rule="nonzero" /><path d="M 135.09 164.25 L 135.34 165.20 C 135.56 166.07 136.45 166.58 137.31 166.36 C 138.17 166.13 138.69 165.25 138.46 164.39 L 138.21 163.43 C 137.99 162.57 137.10 162.05 136.24 162.28 C 135.38 162.50 134.86 163.38 135.09 164.25 Z M 135.30 165.06 L 135.47 166.04 C 135.61 166.92 136.44 167.52 137.33 167.38 C 138.21 167.23 138.80 166.40 138.66 165.52 L 138.50 164.53 C 138.35 163.65 137.52 163.05 136.64 163.20 C 135.76 163.34 135.16 164.18 135.30 165.06 Z M 135.44 165.86 L 135.49 166.84 C 135.53 167.74 136.29 168.43 137.19 168.38 C 138.08 168.34 138.77 167.58 138.73 166.69 L 138.68 165.70 C 138.64 164.81 137.88 164.12 136.99 164.16 C 136.09 164.20 135.40 164.96 135.44 165.86 Z M 135.49 166.77 L 135.49 167.78 C 135.50 168.68 136.22 169.40 137.12 169.40 C 138.01 169.40 138.73 168.67 138.73 167.78 L 138.73 166.76 C 138.73 165.87 138.00 165.14 137.10 165.15 C 136.21 165.15 135.49 165.88 135.49 166.77 Z M 135.50 167.78 L 135.50 168.78 C 135.50 169.67 136.22 170.39 137.11 170.39 C 138.00 170.39 138.73 169.67 138.73 168.78 L 138.73 167.78 C 138.73 166.89 138.00 166.17 137.11 166.17 C 136.22 166.17 135.50 166.89 135.50 167.78 Z M 135.50 168.78 L 135.50 169.79 C 135.50 170.68 136.22 171.40 137.11 171.40 C 138.00 171.40 138.72 170.68 138.72 169.79 L 138.72 168.78 C 138.72 167.89 138.00 167.17 137.11 167.17 C 136.22 167.17 135.50 167.89 135.50 168.78 Z M 135.51 169.78 L 135.51 170.79 C 135.50 171.67 136.21 172.39 137.09 172.40 C 137.98 172.40 138.70 171.69 138.70 170.81 L 138.71 169.80 C 138.72 168.92 138.01 168.20 137.12 168.19 C 136.24 168.19 135.52 168.90 135.51 169.78 Z M 135.52 170.74 L 135.48 171.73 C 135.45 172.60 136.14 173.34 137.01 173.37 C 137.89 173.40 138.62 172.71 138.66 171.84 L 138.69 170.85 C 138.72 169.98 138.04 169.24 137.16 169.21 C 136.29 169.18 135.55 169.86 135.52 170.74 Z M 135.50 171.66 L 135.43 172.62 C 135.36 173.49 136.00 174.25 136.87 174.32 C 137.73 174.39 138.49 173.74 138.56 172.88 L 138.64 171.91 C 138.71 171.04 138.06 170.28 137.20 170.22 C 136.33 170.15 135.57 170.79 135.50 171.66 Z M 135.45 172.57 L 135.33 173.61 C 135.23 174.47 135.84 175.24 136.69 175.34 C 137.54 175.44 138.31 174.83 138.41 173.98 L 138.54 172.93 C 138.64 172.08 138.03 171.31 137.17 171.21 C 136.32 171.11 135.55 171.72 135.45 172.57 Z M 135.35 173.57 L 135.17 174.80 C 135.04 175.64 135.62 176.42 136.46 176.54 C 137.30 176.67 138.08 176.09 138.20 175.25 L 138.39 174.02 C 138.51 173.19 137.94 172.40 137.10 172.28 C 136.26 172.15 135.48 172.73 135.35 173.57 Z M 135.25 174.54 L 135.12 174.94 C 134.85 175.73 135.27 176.59 136.06 176.86 C 136.85 177.13 137.71 176.70 137.98 175.91 L 138.12 175.51 C 138.38 174.72 137.96 173.86 137.17 173.59 C 136.38 173.33 135.52 173.75 135.25 174.54 Z M 138.02 175.41 L 138.01 174.42 C 138.00 173.60 137.33 172.95 136.52 172.96 C 135.70 172.97 135.05 173.64 135.06 174.45 L 135.08 175.45 C 135.09 176.26 135.75 176.91 136.57 176.90 C 137.38 176.89 138.03 176.22 138.02 175.41 Z M 137.97 174.51 L 138.03 173.39 C 138.07 172.60 137.46 171.92 136.67 171.88 C 135.87 171.84 135.20 172.45 135.15 173.24 L 135.10 174.36 C 135.06 175.16 135.67 175.83 136.46 175.87 C 137.26 175.92 137.93 175.31 137.97 174.51 Z M 138.02 173.43 L 138.10 172.44 C 138.17 171.66 137.58 170.96 136.79 170.90 C 136.00 170.83 135.31 171.42 135.25 172.21 L 135.17 173.20 C 135.10 173.99 135.69 174.68 136.48 174.75 C 137.27 174.81 137.96 174.22 138.02 173.43 Z M 138.10 172.48 L 138.21 171.45 C 138.30 170.66 137.73 169.95 136.95 169.87 C 136.16 169.78 135.46 170.35 135.37 171.13 L 135.25 172.17 C 135.17 172.95 135.73 173.66 136.52 173.75 C 137.30 173.84 138.01 173.27 138.10 172.48 Z M 138.20 171.49 L 138.36 170.44 C 138.47 169.65 137.93 168.93 137.15 168.82 C 136.37 168.70 135.64 169.24 135.53 170.03 L 135.37 171.08 C 135.26 171.87 135.80 172.59 136.58 172.70 C 137.37 172.82 138.09 172.28 138.20 171.49 Z M 138.35 170.48 L 138.53 169.46 C 138.67 168.68 138.15 167.94 137.37 167.80 C 136.59 167.66 135.85 168.18 135.71 168.96 L 135.53 169.98 C 135.40 170.76 135.92 171.50 136.69 171.64 C 137.47 171.78 138.22 171.26 138.35 170.48 Z M 138.53 169.50 L 138.72 168.57 C 138.87 167.80 138.37 167.04 137.60 166.88 C 136.82 166.73 136.06 167.23 135.91 168.00 L 135.72 168.93 C 135.56 169.70 136.06 170.46 136.84 170.61 C 137.61 170.77 138.37 170.27 138.53 169.50 Z M 138.71 168.61 L 138.95 167.58 C 139.13 166.80 138.65 166.03 137.87 165.85 C 137.10 165.67 136.33 166.16 136.15 166.93 L 135.91 167.96 C 135.73 168.74 136.22 169.51 136.99 169.69 C 137.76 169.86 138.53 169.38 138.71 168.61 Z M 138.94 167.63 L 139.18 166.73 C 139.39 165.96 138.94 165.17 138.17 164.96 C 137.40 164.75 136.61 165.21 136.40 165.97 L 136.16 166.88 C 135.95 167.64 136.41 168.43 137.17 168.64 C 137.94 168.85 138.73 168.40 138.94 167.63 Z M 139.18 166.78 L 139.46 165.86 C 139.70 165.10 139.27 164.29 138.51 164.05 C 137.75 163.81 136.94 164.24 136.70 165.00 L 136.41 165.92 C 136.18 166.68 136.60 167.49 137.36 167.73 C 138.13 167.97 138.94 167.54 139.18 166.78 Z M 139.44 165.94 L 139.80 164.99 C 140.08 164.24 139.70 163.40 138.94 163.12 C 138.19 162.84 137.35 163.22 137.07 163.98 L 136.72 164.92 C 136.44 165.68 136.82 166.51 137.57 166.79 C 138.32 167.08 139.16 166.69 139.44 165.94 Z M 139.76 165.10 L 140.19 164.18 C 140.53 163.45 140.22 162.58 139.48 162.24 C 138.75 161.89 137.87 162.21 137.53 162.95 L 137.10 163.87 C 136.76 164.60 137.08 165.47 137.81 165.82 C 138.55 166.16 139.42 165.84 139.76 165.10 Z M 140.10 164.38 L 140.65 163.54 C 141.10 162.86 140.91 161.94 140.22 161.49 C 139.53 161.04 138.62 161.23 138.17 161.92 L 137.62 162.75 C 137.17 163.44 137.36 164.36 138.05 164.81 C 138.74 165.26 139.65 165.06 140.10 164.38 Z M 140.39 163.87 L 141.14 163.23 C 141.77 162.69 141.84 161.74 141.30 161.11 C 140.76 160.47 139.81 160.40 139.18 160.94 L 138.43 161.59 C 137.80 162.13 137.72 163.08 138.27 163.71 C 138.81 164.34 139.76 164.42 140.39 163.87 Z M 140.64 163.54 L 141.56 163.24 C 142.37 162.98 142.81 162.11 142.54 161.31 C 142.28 160.50 141.42 160.06 140.61 160.33 L 139.68 160.63 C 138.88 160.89 138.44 161.76 138.70 162.56 C 138.97 163.37 139.83 163.81 140.64 163.54 Z M 140.87 163.33 L 141.86 163.46 C 142.71 163.58 143.50 162.99 143.62 162.13 C 143.73 161.28 143.14 160.49 142.28 160.37 L 141.30 160.24 C 140.45 160.12 139.66 160.72 139.54 161.57 C 139.42 162.43 140.02 163.21 140.87 163.33 Z M 141.14 163.19 L 141.90 163.75 C 142.60 164.26 143.59 164.11 144.11 163.41 C 144.62 162.70 144.47 161.71 143.76 161.20 L 143.00 160.64 C 142.30 160.13 141.31 160.28 140.80 160.99 C 140.28 161.69 140.44 162.68 141.14 163.19 Z M 141.53 163.38 L 142.12 164.24 C 142.62 164.95 143.61 165.13 144.33 164.63 C 145.05 164.14 145.23 163.15 144.73 162.43 L 144.13 161.57 C 143.63 160.85 142.65 160.67 141.93 161.17 C 141.21 161.67 141.03 162.66 141.53 163.38 Z M 141.97 163.96 L 142.36 164.88 C 142.71 165.68 143.64 166.06 144.45 165.71 C 145.26 165.36 145.63 164.43 145.28 163.62 L 144.89 162.70 C 144.54 161.90 143.60 161.53 142.80 161.87 C 141.99 162.22 141.62 163.15 141.97 163.96 Z M 142.30 164.73 L 142.61 165.69 C 142.88 166.53 143.77 166.99 144.61 166.73 C 145.45 166.46 145.91 165.56 145.64 164.73 L 145.34 163.77 C 145.07 162.93 144.18 162.47 143.34 162.73 C 142.50 163.00 142.04 163.90 142.30 164.73 Z M 142.59 165.62 L 142.85 166.61 C 143.08 167.46 143.95 167.97 144.80 167.74 C 145.65 167.51 146.16 166.64 145.93 165.79 L 145.67 164.80 C 145.44 163.95 144.57 163.44 143.72 163.67 C 142.87 163.90 142.36 164.77 142.59 165.62 Z M 142.83 166.53 L 143.03 167.47 C 143.21 168.33 144.05 168.88 144.91 168.71 C 145.77 168.53 146.33 167.68 146.15 166.82 L 145.95 165.88 C 145.77 165.01 144.93 164.46 144.07 164.64 C 143.20 164.82 142.65 165.66 142.83 166.53 Z M 143.01 167.37 L 143.15 168.30 C 143.27 169.17 144.08 169.77 144.95 169.65 C 145.81 169.53 146.42 168.72 146.30 167.85 L 146.16 166.92 C 146.04 166.05 145.23 165.45 144.36 165.57 C 143.49 165.69 142.89 166.50 143.01 167.37 Z M 143.14 168.23 L 143.24 169.29 C 143.33 170.16 144.10 170.80 144.97 170.71 C 145.85 170.63 146.49 169.86 146.40 168.98 L 146.30 167.92 C 146.22 167.05 145.44 166.41 144.57 166.49 C 143.70 166.58 143.06 167.35 143.14 168.23 Z M 143.24 169.25 L 143.31 170.20 C 143.38 171.07 144.14 171.73 145.01 171.66 C 145.89 171.59 146.54 170.83 146.47 169.96 L 146.40 169.02 C 146.34 168.14 145.58 167.49 144.70 167.56 C 143.83 167.62 143.18 168.38 143.24 169.25 Z M 143.32 170.18 L 143.38 171.20 C 143.43 172.07 144.18 172.73 145.05 172.68 C 145.92 172.63 146.58 171.88 146.53 171.01 L 146.47 169.99 C 146.42 169.12 145.67 168.45 144.80 168.51 C 143.93 168.56 143.27 169.31 143.32 170.18 Z M 143.39 171.17 L 143.43 172.21 C 143.46 173.08 144.19 173.75 145.06 173.72 C 145.93 173.68 146.60 172.95 146.57 172.09 L 146.53 171.04 C 146.49 170.18 145.76 169.50 144.89 169.54 C 144.03 169.57 143.35 170.30 143.39 171.17 Z M 143.44 172.17 L 143.45 173.19 C 143.47 174.05 144.17 174.74 145.03 174.73 C 145.90 174.72 146.58 174.01 146.57 173.15 L 146.56 172.13 C 146.54 171.26 145.83 170.58 144.97 170.59 C 144.11 170.60 143.43 171.31 143.44 172.17 Z M 143.47 173.15 L 143.46 174.13 C 143.45 174.98 144.13 175.68 144.98 175.69 C 145.83 175.70 146.53 175.02 146.54 174.17 L 146.55 173.19 C 146.56 172.34 145.88 171.64 145.03 171.63 C 144.18 171.62 143.48 172.30 143.47 173.15 Z M 143.48 174.07 L 143.42 175.12 C 143.38 175.97 144.03 176.68 144.87 176.72 C 145.71 176.77 146.43 176.12 146.47 175.28 L 146.52 174.23 C 146.56 173.38 145.92 172.67 145.07 172.63 C 144.23 172.58 143.52 173.23 143.48 174.07 Z M 143.46 174.98 L 143.31 175.98 C 143.19 176.80 143.76 177.56 144.58 177.68 C 145.40 177.81 146.17 177.24 146.29 176.41 L 146.44 175.42 C 146.56 174.60 145.99 173.83 145.16 173.71 C 144.34 173.59 143.58 174.16 143.46 174.98 Z M 143.44 175.59 L 143.06 176.46 C 142.73 177.21 143.07 178.08 143.82 178.41 C 144.57 178.74 145.45 178.41 145.78 177.66 L 146.16 176.79 C 146.49 176.04 146.15 175.17 145.40 174.84 C 144.65 174.51 143.77 174.84 143.44 175.59 Z M 143.42 176.00 L 142.71 176.66 C 142.13 177.21 142.10 178.14 142.65 178.72 C 143.20 179.30 144.12 179.33 144.71 178.78 L 145.42 178.11 C 146.00 177.56 146.03 176.64 145.48 176.06 C 144.93 175.47 144.01 175.45 143.42 176.00 Z M 142.86 176.57 L 142.72 176.67 C 142.08 177.14 141.95 178.04 142.42 178.68 C 142.89 179.32 143.78 179.45 144.42 178.98 L 144.56 178.88 C 145.20 178.41 145.33 177.51 144.86 176.87 C 144.39 176.23 143.50 176.10 142.86 176.57 Z"
      fill="black"
      fill-rule="nonzero" /><path d="M 140.04 168.91 L 141.00 168.63 C 141.80 168.39 142.25 167.56 142.01 166.76 C 141.78 165.97 140.94 165.51 140.15 165.75 L 139.19 166.04 C 138.39 166.27 137.94 167.11 138.18 167.90 C 138.41 168.70 139.25 169.15 140.04 168.91 Z M 141.01 168.66 L 141.97 168.38 C 142.78 168.14 143.25 167.28 143.00 166.47 C 142.76 165.65 141.91 165.19 141.09 165.43 L 140.14 165.72 C 139.32 165.96 138.86 166.81 139.10 167.63 C 139.34 168.44 140.20 168.90 141.01 168.66 Z M 141.98 168.40 L 142.30 168.30 C 143.12 168.06 143.59 167.19 143.35 166.36 C 143.10 165.54 142.24 165.07 141.41 165.31 L 141.09 165.41 C 140.26 165.66 139.79 166.52 140.04 167.35 C 140.28 168.17 141.15 168.64 141.98 168.40 Z"
      fill="black"
      fill-rule="nonzero" /><path d="M 138.64 174.75 L 139.36 174.05 C 139.96 173.46 139.97 172.49 139.38 171.89 C 138.78 171.30 137.82 171.29 137.22 171.88 L 136.51 172.58 C 135.91 173.17 135.90 174.14 136.49 174.74 C 137.08 175.34 138.05 175.34 138.64 174.75 Z M 139.32 174.11 L 140.06 173.44 C 140.69 172.87 140.74 171.90 140.17 171.27 C 139.60 170.64 138.63 170.59 137.99 171.16 L 137.26 171.82 C 136.63 172.39 136.58 173.36 137.15 174.00 C 137.72 174.63 138.69 174.68 139.32 174.11 Z M 139.96 173.52 L 140.74 172.92 C 141.41 172.41 141.53 171.44 141.02 170.77 C 140.51 170.10 139.54 169.97 138.87 170.49 L 138.09 171.08 C 137.42 171.60 137.29 172.56 137.81 173.23 C 138.32 173.90 139.29 174.03 139.96 173.52 Z M 140.61 172.97 L 141.48 172.42 C 142.18 171.97 142.38 171.04 141.94 170.34 C 141.49 169.64 140.56 169.44 139.86 169.88 L 138.99 170.44 C 138.29 170.88 138.09 171.81 138.54 172.51 C 138.98 173.21 139.91 173.42 140.61 172.97 Z M 141.36 172.46 L 142.27 171.98 C 142.99 171.60 143.26 170.70 142.88 169.98 C 142.50 169.25 141.60 168.98 140.88 169.36 L 139.97 169.84 C 139.25 170.23 138.98 171.12 139.36 171.85 C 139.74 172.57 140.64 172.84 141.36 172.46 Z M 142.09 172.04 L 143.03 171.68 C 143.78 171.40 144.16 170.55 143.87 169.80 C 143.59 169.04 142.74 168.66 141.99 168.95 L 141.05 169.30 C 140.30 169.59 139.92 170.44 140.21 171.19 C 140.49 171.95 141.34 172.33 142.09 172.04 Z M 142.76 171.74 L 143.74 171.56 C 144.53 171.42 145.05 170.67 144.91 169.88 C 144.76 169.09 144.01 168.57 143.23 168.72 L 142.25 168.89 C 141.46 169.04 140.94 169.79 141.08 170.57 C 141.23 171.36 141.98 171.88 142.76 171.74 Z M 143.63 171.56 L 143.97 171.53 C 144.76 171.45 145.34 170.75 145.26 169.96 C 145.18 169.17 144.48 168.60 143.69 168.68 L 143.34 168.71 C 142.55 168.79 141.98 169.49 142.06 170.28 C 142.14 171.07 142.84 171.64 143.63 171.56 Z"
      fill="black"
      fill-rule="nonzero" /><path d="M 139.21 180.85 L 140.03 180.46 C 140.78 180.10 141.10 179.20 140.75 178.45 C 140.39 177.70 139.49 177.38 138.74 177.73 L 137.92 178.12 C 137.16 178.48 136.84 179.38 137.20 180.13 C 137.56 180.88 138.46 181.20 139.21 180.85 Z M 140.12 180.45 L 141.06 179.93 C 141.81 179.53 142.08 178.59 141.68 177.85 C 141.27 177.10 140.34 176.83 139.59 177.23 L 138.65 177.74 C 137.90 178.15 137.63 179.08 138.03 179.83 C 138.44 180.58 139.37 180.85 140.12 180.45 Z M 141.12 179.89 L 141.96 179.38 C 142.69 178.94 142.92 178.00 142.48 177.28 C 142.04 176.56 141.10 176.33 140.37 176.76 L 139.53 177.27 C 138.81 177.71 138.58 178.65 139.02 179.38 C 139.46 180.10 140.40 180.33 141.12 179.89 Z M 141.97 179.34 L 142.85 178.78 C 143.54 178.34 143.75 177.42 143.31 176.72 C 142.87 176.02 141.94 175.81 141.24 176.25 L 140.37 176.81 C 139.67 177.25 139.46 178.18 139.90 178.87 C 140.35 179.57 141.27 179.78 141.97 179.34 Z M 142.84 178.75 L 143.72 178.18 C 144.40 177.74 144.60 176.83 144.16 176.15 C 143.72 175.47 142.81 175.28 142.13 175.72 L 141.25 176.29 C 140.57 176.73 140.37 177.64 140.81 178.32 C 141.25 179.00 142.16 179.19 142.84 178.75 Z M 143.72 178.15 L 144.55 177.61 C 145.22 177.17 145.40 176.27 144.96 175.61 C 144.53 174.94 143.63 174.75 142.96 175.19 L 142.13 175.74 C 141.46 176.18 141.28 177.07 141.72 177.74 C 142.16 178.41 143.05 178.59 143.72 178.15 Z M 144.55 177.60 L 145.08 177.24 C 145.74 176.80 145.93 175.92 145.49 175.26 C 145.05 174.60 144.16 174.41 143.50 174.85 L 142.97 175.21 C 142.31 175.64 142.13 176.53 142.56 177.19 C 143.00 177.85 143.89 178.03 144.55 177.60 Z"
      fill="black"
      fill-rule="nonzero" /><path d="M 156.63 147.85 L 157.59 148.10 C 158.43 148.31 159.28 147.80 159.49 146.97 C 159.70 146.13 159.20 145.28 158.36 145.07 L 157.41 144.82 C 156.57 144.61 155.72 145.11 155.50 145.95 C 155.29 146.79 155.80 147.64 156.63 147.85 Z M 158.01 148.15 L 158.97 148.13 C 159.84 148.11 160.53 147.39 160.51 146.52 C 160.49 145.65 159.77 144.97 158.90 144.99 L 157.94 145.01 C 157.07 145.03 156.38 145.75 156.41 146.62 C 156.43 147.49 157.15 148.17 158.01 148.15 Z M 159.40 148.06 L 160.34 147.77 C 161.17 147.51 161.64 146.63 161.38 145.80 C 161.12 144.97 160.24 144.51 159.42 144.76 L 158.47 145.06 C 157.64 145.31 157.18 146.19 157.43 147.02 C 157.69 147.85 158.57 148.32 159.40 148.06 Z M 160.48 147.72 L 161.44 147.32 C 162.24 146.99 162.62 146.07 162.29 145.27 C 161.96 144.47 161.04 144.09 160.24 144.42 L 159.28 144.82 C 158.48 145.15 158.10 146.07 158.43 146.87 C 158.76 147.67 159.68 148.05 160.48 147.72 Z M 161.45 147.30 L 162.38 146.91 C 163.17 146.57 163.54 145.65 163.20 144.86 C 162.86 144.07 161.94 143.70 161.15 144.04 L 160.23 144.44 C 159.44 144.77 159.07 145.69 159.41 146.48 C 159.75 147.27 160.66 147.64 161.45 147.30 Z M 162.36 146.90 L 163.30 146.52 C 164.09 146.19 164.46 145.29 164.14 144.50 C 163.81 143.71 162.90 143.33 162.12 143.66 L 161.17 144.04 C 160.39 144.37 160.01 145.28 160.34 146.07 C 160.66 146.85 161.57 147.23 162.36 146.90 Z M 163.25 146.52 L 164.22 146.15 C 165.01 145.85 165.41 144.96 165.11 144.17 C 164.81 143.38 163.92 142.98 163.13 143.28 L 162.16 143.65 C 161.37 143.95 160.97 144.84 161.27 145.63 C 161.57 146.43 162.46 146.82 163.25 146.52 Z M 164.18 146.16 L 165.08 145.84 C 165.88 145.56 166.29 144.69 166.01 143.89 C 165.73 143.10 164.86 142.68 164.07 142.96 L 163.17 143.28 C 162.37 143.56 161.95 144.43 162.24 145.23 C 162.52 146.02 163.39 146.44 164.18 146.16 Z M 165.04 145.84 L 166.01 145.53 C 166.81 145.27 167.25 144.42 166.99 143.62 C 166.74 142.82 165.88 142.38 165.08 142.64 L 164.11 142.95 C 163.31 143.21 162.87 144.07 163.13 144.86 C 163.39 145.66 164.24 146.10 165.04 145.84 Z M 165.91 145.56 L 166.87 145.33 C 167.68 145.13 168.18 144.31 167.99 143.49 C 167.79 142.68 166.97 142.18 166.15 142.38 L 165.19 142.61 C 164.38 142.81 163.88 143.63 164.07 144.44 C 164.27 145.26 165.09 145.76 165.91 145.56 Z M 166.46 145.38 L 167.45 145.41 C 168.29 145.44 169.00 144.77 169.02 143.93 C 169.05 143.09 168.39 142.38 167.55 142.36 L 166.56 142.32 C 165.72 142.30 165.01 142.96 164.98 143.80 C 164.96 144.65 165.62 145.35 166.46 145.38 Z M 166.25 144.79 L 166.75 145.47 C 167.25 146.16 168.21 146.31 168.90 145.81 C 169.59 145.31 169.74 144.35 169.24 143.66 L 168.74 142.98 C 168.24 142.29 167.28 142.14 166.59 142.64 C 165.90 143.14 165.75 144.10 166.25 144.79 Z M 166.46 144.75 L 166.58 145.79 C 166.68 146.64 167.46 147.24 168.31 147.14 C 169.16 147.04 169.76 146.26 169.66 145.42 L 169.53 144.38 C 169.43 143.53 168.66 142.92 167.81 143.03 C 166.96 143.13 166.35 143.90 166.46 144.75 Z M 166.56 145.58 L 166.55 146.67 C 166.54 147.53 167.23 148.24 168.09 148.25 C 168.95 148.26 169.65 147.57 169.66 146.71 L 169.68 145.62 C 169.69 144.76 169.00 144.06 168.14 144.05 C 167.28 144.03 166.58 144.72 166.56 145.58 Z M 166.55 146.53 L 166.45 147.49 C 166.36 148.35 166.98 149.12 167.84 149.21 C 168.70 149.30 169.47 148.68 169.56 147.82 L 169.66 146.86 C 169.75 145.99 169.13 145.22 168.27 145.13 C 167.41 145.04 166.64 145.67 166.55 146.53 Z M 166.47 147.29 L 166.25 148.20 C 166.05 149.05 166.58 149.90 167.42 150.10 C 168.27 150.30 169.12 149.78 169.32 148.93 L 169.54 148.02 C 169.74 147.17 169.21 146.32 168.37 146.12 C 167.52 145.92 166.67 146.44 166.47 147.29 Z M 166.28 148.07 L 165.96 149.04 C 165.69 149.87 166.14 150.77 166.97 151.04 C 167.80 151.31 168.70 150.86 168.97 150.03 L 169.29 149.06 C 169.56 148.23 169.11 147.34 168.28 147.06 C 167.45 146.79 166.56 147.24 166.28 148.07 Z M 165.98 148.98 L 165.63 149.91 C 165.33 150.74 165.74 151.65 166.57 151.96 C 167.39 152.26 168.30 151.85 168.61 151.02 L 168.95 150.09 C 169.26 149.27 168.84 148.36 168.02 148.05 C 167.20 147.74 166.29 148.16 165.98 148.98 Z M 165.64 149.89 L 165.27 150.83 C 164.95 151.65 165.36 152.57 166.17 152.89 C 166.99 153.21 167.92 152.81 168.23 151.99 L 168.60 151.05 C 168.92 150.23 168.52 149.31 167.70 148.99 C 166.88 148.67 165.96 149.07 165.64 149.89 Z M 165.27 150.83 L 164.90 151.77 C 164.58 152.59 164.99 153.51 165.81 153.83 C 166.63 154.15 167.55 153.75 167.87 152.93 L 168.24 151.99 C 168.56 151.17 168.15 150.25 167.33 149.93 C 166.51 149.61 165.59 150.01 165.27 150.83 Z M 164.90 151.76 L 164.54 152.70 C 164.21 153.52 164.62 154.44 165.44 154.76 C 166.26 155.09 167.18 154.68 167.50 153.87 L 167.87 152.93 C 168.19 152.11 167.79 151.19 166.97 150.87 C 166.15 150.54 165.23 150.95 164.90 151.76 Z M 164.54 152.68 L 164.17 153.60 C 163.83 154.42 164.22 155.35 165.04 155.68 C 165.85 156.01 166.78 155.63 167.12 154.81 L 167.50 153.89 C 167.83 153.07 167.44 152.14 166.62 151.81 C 165.81 151.47 164.88 151.86 164.54 152.68 Z M 164.18 153.58 L 163.78 154.49 C 163.43 155.30 163.81 156.24 164.62 156.59 C 165.43 156.93 166.36 156.56 166.71 155.75 L 167.11 154.83 C 167.45 154.03 167.08 153.09 166.27 152.74 C 165.46 152.39 164.52 152.77 164.18 153.58 Z M 163.79 154.48 L 163.39 155.39 C 163.03 156.20 163.39 157.14 164.20 157.49 C 165.00 157.85 165.94 157.48 166.30 156.68 L 166.70 155.77 C 167.06 154.96 166.70 154.02 165.89 153.66 C 165.09 153.31 164.15 153.67 163.79 154.48 Z M 163.39 155.39 L 162.98 156.30 C 162.62 157.10 162.98 158.04 163.79 158.40 C 164.59 158.76 165.53 158.40 165.89 157.59 L 166.30 156.68 C 166.65 155.88 166.29 154.94 165.49 154.58 C 164.69 154.22 163.75 154.58 163.39 155.39 Z M 162.98 156.30 L 162.57 157.22 C 162.22 158.03 162.58 158.97 163.38 159.32 C 164.18 159.68 165.12 159.32 165.48 158.52 L 165.89 157.59 C 166.25 156.79 165.88 155.85 165.08 155.49 C 164.28 155.14 163.34 155.50 162.98 156.30 Z M 162.57 157.23 L 162.16 158.17 C 161.80 158.97 162.17 159.91 162.97 160.26 C 163.77 160.62 164.71 160.26 165.06 159.45 L 165.48 158.51 C 165.83 157.71 165.47 156.77 164.67 156.42 C 163.86 156.06 162.93 156.43 162.57 157.23 Z M 162.17 158.16 L 161.77 159.04 C 161.40 159.84 161.75 160.78 162.55 161.14 C 163.35 161.50 164.28 161.15 164.65 160.35 L 165.05 159.47 C 165.41 158.67 165.06 157.73 164.26 157.37 C 163.47 157.01 162.53 157.36 162.17 158.16 Z M 161.79 159.00 L 161.34 159.93 C 160.95 160.71 161.27 161.65 162.05 162.04 C 162.83 162.42 163.78 162.10 164.16 161.32 L 164.62 160.40 C 165.01 159.62 164.68 158.67 163.90 158.28 C 163.12 157.90 162.18 158.22 161.79 159.00 Z M 161.36 159.89 L 160.92 160.73 C 160.52 161.50 160.81 162.45 161.57 162.85 C 162.34 163.26 163.29 162.96 163.69 162.20 L 164.14 161.36 C 164.54 160.59 164.25 159.64 163.48 159.24 C 162.72 158.83 161.77 159.13 161.36 159.89 Z M 160.94 160.73 L 160.49 161.55 C 160.08 162.31 160.37 163.25 161.12 163.66 C 161.88 164.07 162.82 163.79 163.23 163.03 L 163.68 162.20 C 164.09 161.45 163.80 160.50 163.05 160.09 C 162.29 159.69 161.34 159.97 160.94 160.73 Z M 160.50 161.55 L 160.00 162.47 C 159.59 163.22 159.87 164.16 160.62 164.57 C 161.37 164.98 162.31 164.70 162.72 163.95 L 163.22 163.03 C 163.63 162.28 163.35 161.34 162.60 160.93 C 161.85 160.52 160.91 160.80 160.50 161.55 Z M 160.01 162.47 L 159.54 163.33 C 159.13 164.07 159.40 165.01 160.15 165.42 C 160.89 165.83 161.83 165.56 162.24 164.81 L 162.71 163.95 C 163.12 163.21 162.85 162.27 162.10 161.86 C 161.36 161.45 160.42 161.72 160.01 162.47 Z M 159.55 163.32 L 159.04 164.23 C 158.63 164.97 158.90 165.91 159.64 166.32 C 160.38 166.73 161.32 166.46 161.73 165.72 L 162.23 164.81 C 162.64 164.07 162.38 163.14 161.63 162.72 C 160.89 162.31 159.96 162.58 159.55 163.32 Z M 159.05 164.22 L 158.52 165.16 C 158.10 165.89 158.35 166.83 159.09 167.25 C 159.83 167.67 160.76 167.41 161.18 166.67 L 161.72 165.73 C 162.14 165.00 161.88 164.06 161.14 163.64 C 160.41 163.22 159.47 163.48 159.05 164.22 Z M 158.57 165.09 L 158.02 165.93 C 157.56 166.64 157.77 167.58 158.48 168.04 C 159.18 168.50 160.13 168.29 160.59 167.59 L 161.13 166.75 C 161.59 166.04 161.39 165.09 160.68 164.63 C 159.97 164.17 159.02 164.38 158.57 165.09 Z M 158.19 165.72 L 157.54 166.42 C 156.97 167.04 157.01 168.00 157.62 168.57 C 158.24 169.14 159.20 169.10 159.77 168.49 L 160.42 167.79 C 160.99 167.18 160.95 166.22 160.34 165.65 C 159.72 165.07 158.76 165.11 158.19 165.72 Z M 157.87 166.18 L 157.04 166.69 C 156.33 167.12 156.11 168.04 156.54 168.75 C 156.98 169.45 157.90 169.68 158.60 169.24 L 159.44 168.73 C 160.14 168.30 160.37 167.38 159.93 166.67 C 159.50 165.97 158.58 165.75 157.87 166.18 Z M 157.18 166.63 L 156.96 166.73 C 156.22 167.09 155.92 167.98 156.27 168.71 C 156.63 169.45 157.52 169.76 158.25 169.40 L 158.47 169.30 C 159.21 168.94 159.51 168.06 159.16 167.32 C 158.80 166.58 157.91 166.27 157.18 166.63 Z"
      fill="black"
      fill-rule="nonzero" /><path d="M 157.49 155.45 L 158.31 155.80 C 159.08 156.12 159.96 155.76 160.28 154.99 C 160.60 154.22 160.24 153.33 159.47 153.01 L 158.65 152.67 C 157.88 152.35 157.00 152.71 156.68 153.48 C 156.36 154.25 156.72 155.13 157.49 155.45 Z M 158.18 155.80 L 159.11 156.28 C 159.88 156.67 160.83 156.36 161.22 155.59 C 161.61 154.82 161.30 153.87 160.53 153.48 L 159.60 153.01 C 158.83 152.61 157.89 152.92 157.49 153.69 C 157.10 154.46 157.41 155.41 158.18 155.80 Z M 158.97 156.24 L 159.86 156.79 C 160.62 157.26 161.61 157.03 162.07 156.28 C 162.54 155.52 162.31 154.53 161.56 154.06 L 160.67 153.51 C 159.91 153.04 158.92 153.28 158.45 154.03 C 157.99 154.78 158.22 155.78 158.97 156.24 Z M 159.79 156.76 L 160.66 157.35 C 161.39 157.86 162.40 157.67 162.90 156.93 C 163.41 156.20 163.22 155.19 162.48 154.69 L 161.62 154.10 C 160.89 153.59 159.88 153.78 159.38 154.51 C 158.87 155.25 159.06 156.26 159.79 156.76 Z M 160.63 157.33 L 161.46 157.92 C 162.18 158.44 163.19 158.28 163.71 157.55 C 164.23 156.83 164.06 155.82 163.34 155.30 L 162.51 154.71 C 161.79 154.19 160.78 154.35 160.26 155.08 C 159.74 155.80 159.90 156.81 160.63 157.33 Z M 161.44 157.91 L 162.31 158.55 C 163.03 159.07 164.04 158.92 164.56 158.20 C 165.09 157.48 164.93 156.48 164.22 155.95 L 163.35 155.31 C 162.63 154.79 161.62 154.94 161.10 155.66 C 160.57 156.38 160.73 157.38 161.44 157.91 Z M 162.30 158.53 L 163.08 159.11 C 163.79 159.65 164.79 159.50 165.32 158.79 C 165.86 158.08 165.71 157.08 165.00 156.55 L 164.22 155.97 C 163.52 155.43 162.51 155.58 161.98 156.29 C 161.45 157.00 161.59 158.00 162.30 158.53 Z M 163.06 159.09 L 163.77 159.64 C 164.47 160.18 165.47 160.06 166.01 159.36 C 166.55 158.67 166.43 157.67 165.73 157.13 L 165.02 156.57 C 164.33 156.03 163.32 156.16 162.78 156.85 C 162.24 157.55 162.37 158.55 163.06 159.09 Z M 163.76 159.62 L 164.54 160.25 C 165.22 160.80 166.22 160.69 166.77 160.01 C 167.32 159.32 167.21 158.33 166.53 157.78 L 165.75 157.15 C 165.06 156.60 164.07 156.71 163.52 157.39 C 162.97 158.07 163.08 159.07 163.76 159.62 Z M 164.54 160.23 L 165.31 160.86 C 165.98 161.41 166.97 161.31 167.52 160.64 C 168.07 159.97 167.97 158.97 167.30 158.42 L 166.53 157.79 C 165.86 157.24 164.86 157.34 164.31 158.02 C 163.76 158.69 163.86 159.68 164.54 160.23 Z M 165.30 160.84 L 166.07 161.49 C 166.73 162.04 167.72 161.96 168.27 161.30 C 168.83 160.63 168.74 159.65 168.08 159.09 L 167.31 158.45 C 166.65 157.89 165.66 157.98 165.11 158.64 C 164.55 159.30 164.64 160.29 165.30 160.84 Z M 166.05 161.45 L 166.79 162.11 C 167.43 162.68 168.41 162.62 168.98 161.97 C 169.55 161.33 169.49 160.35 168.85 159.78 L 168.10 159.13 C 167.46 158.56 166.48 158.62 165.91 159.26 C 165.35 159.91 165.41 160.89 166.05 161.45 Z M 166.77 162.07 L 167.51 162.76 C 168.13 163.34 169.11 163.31 169.69 162.68 C 170.27 162.06 170.23 161.08 169.61 160.50 L 168.87 159.82 C 168.24 159.24 167.27 159.27 166.69 159.90 C 166.11 160.52 166.14 161.49 166.77 162.07 Z M 167.49 162.73 L 168.22 163.44 C 168.83 164.03 169.79 164.01 170.38 163.41 C 170.97 162.80 170.96 161.83 170.35 161.24 L 169.62 160.54 C 169.02 159.95 168.05 159.96 167.46 160.57 C 166.87 161.17 166.89 162.14 167.49 162.73 Z M 168.21 163.41 L 168.91 164.12 C 169.50 164.71 170.46 164.72 171.05 164.13 C 171.65 163.54 171.65 162.58 171.07 161.99 L 170.36 161.28 C 169.78 160.68 168.82 160.67 168.22 161.26 C 167.62 161.85 167.62 162.81 168.21 163.41 Z M 168.89 164.08 L 169.54 164.77 C 170.11 165.38 171.06 165.41 171.67 164.84 C 172.27 164.27 172.30 163.31 171.73 162.71 L 171.08 162.02 C 170.51 161.42 169.56 161.39 168.96 161.96 C 168.35 162.53 168.32 163.48 168.89 164.08 Z M 169.52 164.73 L 170.19 165.49 C 170.74 166.10 171.68 166.16 172.30 165.61 C 172.91 165.06 172.97 164.12 172.42 163.50 L 171.75 162.75 C 171.21 162.13 170.26 162.08 169.65 162.62 C 169.03 163.17 168.97 164.12 169.52 164.73 Z M 170.17 165.45 L 170.82 166.22 C 171.35 166.85 172.29 166.92 172.91 166.39 C 173.54 165.86 173.62 164.93 173.09 164.30 L 172.44 163.53 C 171.91 162.91 170.97 162.83 170.35 163.36 C 169.72 163.89 169.64 164.83 170.17 165.45 Z M 170.80 166.19 L 171.45 166.99 C 171.96 167.62 172.90 167.72 173.53 167.20 C 174.16 166.69 174.26 165.76 173.75 165.13 L 173.10 164.33 C 172.59 163.69 171.66 163.60 171.02 164.11 C 170.39 164.62 170.29 165.56 170.80 166.19 Z M 171.43 166.94 L 172.04 167.76 C 172.53 168.41 173.46 168.53 174.10 168.04 C 174.75 167.55 174.88 166.63 174.39 165.98 L 173.77 165.17 C 173.28 164.52 172.36 164.39 171.71 164.88 C 171.06 165.37 170.94 166.30 171.43 166.94 Z M 172.00 167.69 L 172.61 168.58 C 173.06 169.25 173.97 169.43 174.64 168.98 C 175.31 168.52 175.48 167.62 175.03 166.95 L 174.43 166.05 C 173.98 165.38 173.07 165.21 172.40 165.66 C 171.73 166.11 171.55 167.02 172.00 167.69 Z M 172.57 168.50 L 173.04 169.30 C 173.45 169.99 174.34 170.22 175.03 169.81 C 175.72 169.40 175.95 168.51 175.54 167.82 L 175.07 167.02 C 174.66 166.33 173.77 166.11 173.08 166.52 C 172.39 166.92 172.16 167.81 172.57 168.50 Z M 173.02 169.23 L 173.49 170.13 C 173.86 170.84 174.73 171.11 175.43 170.74 C 176.14 170.37 176.41 169.50 176.04 168.79 L 175.57 167.89 C 175.20 167.19 174.33 166.92 173.62 167.28 C 172.92 167.65 172.65 168.52 173.02 169.23 Z M 173.48 170.09 L 173.79 170.73 C 174.13 171.44 174.99 171.74 175.70 171.39 C 176.41 171.05 176.71 170.19 176.36 169.48 L 176.05 168.84 C 175.71 168.13 174.85 167.83 174.14 168.18 C 173.43 168.52 173.13 169.38 173.48 170.09 Z"
      fill="black"
      fill-rule="nonzero" /></svg>