<svg xmlns="http://www.w3.org/2000/svg" width="300" height="300" viewBox="0 0 300 300">
<path d="M 138.06 138.11 L 138.90 138.31 C 139.74 138.51 140.59 137.99 140.79 137.15 C 141.00 136.31 140.48 135.46 139.63 135.25 L 138.80 135.05 C 137.95 134.84 137.10 135.36 136.90 136.21 C 136.69 137.05 137.21 137.90 138.06 138.11 Z M 139.07 138.36 L 140.18 138.50 C 141.06 138.61 141.85 137.98 141.96 137.11 C 142.06 136.24 141.44 135.44 140.57 135.33 L 139.46 135.20 C 138.59 135.09 137.79 135.71 137.68 136.59 C 137.58 137.46 138.20 138.26 139.07 138.36 Z M 140.31 138.52 L 141.29 138.56 C 142.18 138.59 142.92 137.91 142.96 137.02 C 143.00 136.14 142.31 135.39 141.43 135.36 L 140.44 135.32 C 139.56 135.28 138.81 135.97 138.78 136.85 C 138.74 137.73 139.43 138.48 140.31 138.52 Z M 141.34 138.55 L 142.40 138.56 C 143.28 138.57 144.00 137.86 144.01 136.98 C 144.02 136.10 143.31 135.38 142.43 135.37 L 141.38 135.36 C 140.49 135.35 139.77 136.06 139.76 136.94 C 139.76 137.82 140.46 138.55 141.34 138.55 Z M 142.43 138.56 L 143.45 138.55 C 144.33 138.54 145.04 137.82 145.03 136.94 C 145.02 136.07 144.30 135.36 143.42 135.37 L 142.40 135.38 C 141.52 135.39 140.81 136.10 140.82 136.98 C 140.83 137.86 141.55 138.57 142.43 138.56 Z M 143.48 138.53 L 144.55 138.50 C 145.42 138.48 146.10 137.75 146.08 136.89 C 146.05 136.02 145.33 135.33 144.46 135.36 L 143.40 135.39 C 142.53 135.41 141.84 136.13 141.87 137.00 C 141.89 137.87 142.61 138.56 143.48 138.53 Z M 144.58 138.48 L 145.47 138.43 C 146.32 138.39 146.98 137.66 146.93 136.80 C 146.89 135.95 146.16 135.29 145.30 135.34 L 144.42 135.38 C 143.57 135.43 142.91 136.15 142.96 137.01 C 143.00 137.86 143.73 138.52 144.58 138.48 Z M 145.49 138.41 L 146.48 138.34 C 147.32 138.28 147.96 137.55 147.90 136.71 C 147.84 135.86 147.11 135.22 146.26 135.28 L 145.28 135.35 C 144.43 135.41 143.80 136.15 143.85 136.99 C 143.91 137.84 144.65 138.47 145.49 138.41 Z M 146.50 138.33 L 147.51 138.24 C 148.35 138.17 148.97 137.43 148.89 136.59 C 148.82 135.75 148.08 135.14 147.24 135.21 L 146.24 135.30 C 145.40 135.37 144.78 136.11 144.85 136.95 C 144.93 137.78 145.67 138.40 146.50 138.33 Z M 147.53 138.23 L 148.53 138.13 C 149.36 138.04 149.96 137.30 149.88 136.47 C 149.80 135.64 149.05 135.04 148.22 135.12 L 147.23 135.22 C 146.40 135.31 145.79 136.05 145.87 136.88 C 145.96 137.71 146.70 138.31 147.53 138.23 Z M 148.54 138.11 L 149.54 138.01 C 150.36 137.92 150.96 137.18 150.87 136.36 C 150.78 135.53 150.04 134.94 149.22 135.03 L 148.22 135.14 C 147.39 135.22 146.80 135.96 146.89 136.78 C 146.98 137.61 147.71 138.20 148.54 138.11 Z M 149.55 137.99 L 150.53 137.88 C 151.35 137.79 151.94 137.06 151.85 136.24 C 151.76 135.43 151.02 134.84 150.21 134.93 L 149.22 135.04 C 148.40 135.13 147.82 135.86 147.91 136.68 C 148.00 137.50 148.73 138.08 149.55 137.99 Z M 150.54 137.87 L 151.46 137.77 C 152.26 137.67 152.85 136.94 152.75 136.14 C 152.66 135.33 151.93 134.75 151.12 134.84 L 150.20 134.94 C 149.40 135.03 148.81 135.76 148.91 136.57 C 149.00 137.38 149.73 137.96 150.54 137.87 Z M 151.46 137.76 L 152.48 137.63 C 153.29 137.54 153.86 136.81 153.76 136.01 C 153.67 135.20 152.94 134.63 152.14 134.73 L 151.12 134.85 C 150.31 134.94 149.74 135.67 149.84 136.48 C 149.93 137.28 150.66 137.85 151.46 137.76 Z M 152.49 137.62 L 153.44 137.51 C 154.24 137.41 154.80 136.68 154.71 135.88 C 154.61 135.08 153.88 134.52 153.08 134.62 L 152.13 134.74 C 151.33 134.84 150.77 135.56 150.87 136.36 C 150.97 137.16 151.69 137.72 152.49 137.62 Z M 153.44 137.50 L 154.43 137.37 C 155.23 137.27 155.79 136.55 155.69 135.76 C 155.59 134.96 154.86 134.40 154.07 134.50 L 153.08 134.62 C 152.29 134.72 151.72 135.45 151.82 136.24 C 151.92 137.04 152.65 137.60 153.44 137.50 Z M 154.43 137.37 L 155.50 137.23 C 156.29 137.13 156.85 136.41 156.75 135.62 C 156.65 134.83 155.93 134.27 155.14 134.37 L 154.07 134.50 C 153.28 134.60 152.72 135.33 152.82 136.12 C 152.92 136.91 153.64 137.47 154.43 137.37 Z M 155.50 137.23 L 156.49 137.11 C 157.28 137.01 157.84 136.29 157.74 135.50 C 157.64 134.71 156.92 134.15 156.14 134.25 L 155.14 134.37 C 154.35 134.47 153.79 135.19 153.89 135.98 C 153.99 136.77 154.71 137.33 155.50 137.23 Z M 156.49 137.10 L 157.48 136.98 C 158.27 136.88 158.83 136.17 158.73 135.38 C 158.63 134.59 157.92 134.03 157.13 134.13 L 156.14 134.25 C 155.35 134.35 154.79 135.07 154.89 135.85 C 154.99 136.64 155.70 137.20 156.49 137.10 Z M 157.48 136.97 L 158.48 136.85 C 159.26 136.76 159.82 136.04 159.72 135.26 C 159.63 134.47 158.91 133.92 158.13 134.01 L 157.13 134.14 C 156.35 134.23 155.79 134.95 155.89 135.73 C 155.98 136.51 156.70 137.07 157.48 136.97 Z M 158.48 136.85 L 158.83 136.81 C 159.61 136.71 160.17 136.00 160.08 135.22 C 159.98 134.43 159.27 133.88 158.48 133.97 L 158.13 134.02 C 157.35 134.11 156.79 134.82 156.89 135.61 C 156.98 136.39 157.70 136.95 158.48 136.85 Z"
      fill="black"
      fill-rule="nonzero" /><path d="M 132.79 151.35 L 131.83 151.89 C 131.10 152.31 130.84 153.24 131.26 153.97 C 131.68 154.71 132.61 154.96 133.34 154.55 L 134.30 154.00 C 135.04 153.59 135.29 152.65 134.88 151.92 C 134.46 151.19 133.53 150.93 132.79 151.35 Z M 131.90 154.64 L 132.34 154.86 C 133.13 155.24 134.07 154.91 134.46 154.12 C 134.84 153.34 134.51 152.39 133.72 152.01 L 133.28 151.80 C 132.49 151.42 131.55 151.74 131.17 152.53 C 130.79 153.31 131.11 154.26 131.90 154.64 Z M 133.00 155.07 L 134.20 155.10 C 135.11 155.12 135.86 154.40 135.88 153.50 C 135.90 152.59 135.18 151.84 134.28 151.82 L 133.07 151.80 C 132.17 151.78 131.42 152.49 131.40 153.40 C 131.38 154.30 132.09 155.05 133.00 155.07 Z M 134.25 155.12 L 135.26 155.12 C 136.18 155.12 136.93 154.37 136.92 153.45 C 136.92 152.53 136.17 151.79 135.25 151.79 L 134.24 151.80 C 133.32 151.80 132.57 152.55 132.58 153.47 C 132.58 154.39 133.33 155.13 134.25 155.12 Z M 135.31 155.12 L 136.32 155.09 C 137.24 155.07 137.96 154.30 137.94 153.38 C 137.91 152.46 137.14 151.73 136.22 151.76 L 135.21 151.79 C 134.29 151.82 133.57 152.59 133.59 153.51 C 133.62 154.43 134.39 155.15 135.31 155.12 Z M 136.40 155.09 L 137.45 155.01 C 138.37 154.93 139.05 154.13 138.98 153.21 C 138.91 152.29 138.10 151.61 137.19 151.68 L 136.14 151.77 C 135.22 151.84 134.54 152.64 134.61 153.56 C 134.68 154.48 135.48 155.16 136.40 155.09 Z M 137.54 155.00 L 138.48 154.87 C 139.39 154.75 140.04 153.91 139.91 153.00 C 139.79 152.09 138.96 151.45 138.04 151.57 L 137.10 151.69 C 136.19 151.81 135.54 152.65 135.67 153.56 C 135.79 154.48 136.62 155.12 137.54 155.00 Z M 138.52 154.86 L 139.48 154.71 C 140.39 154.56 141.01 153.71 140.86 152.81 C 140.72 151.90 139.87 151.28 138.96 151.43 L 138.00 151.58 C 137.10 151.72 136.48 152.57 136.62 153.48 C 136.77 154.39 137.62 155.00 138.52 154.86 Z M 139.51 154.70 L 140.51 154.52 C 141.41 154.36 142.01 153.51 141.85 152.61 C 141.69 151.71 140.84 151.10 139.94 151.26 L 138.94 151.44 C 138.04 151.60 137.44 152.45 137.59 153.35 C 137.75 154.25 138.61 154.85 139.51 154.70 Z M 140.53 154.51 L 141.53 154.32 C 142.42 154.15 143.01 153.28 142.83 152.39 C 142.66 151.49 141.80 150.91 140.90 151.08 L 139.91 151.27 C 139.02 151.45 138.43 152.31 138.60 153.20 C 138.78 154.10 139.64 154.68 140.53 154.51 Z M 141.55 154.31 L 142.53 154.10 C 143.42 153.92 143.99 153.04 143.80 152.16 C 143.62 151.27 142.75 150.70 141.86 150.89 L 140.88 151.09 C 139.99 151.28 139.42 152.15 139.61 153.04 C 139.79 153.93 140.66 154.49 141.55 154.31 Z M 142.56 154.09 L 143.54 153.87 C 144.42 153.67 144.98 152.79 144.78 151.91 C 144.58 151.03 143.70 150.47 142.82 150.67 L 141.83 150.90 C 140.95 151.10 140.40 151.97 140.60 152.86 C 140.80 153.74 141.68 154.29 142.56 154.09 Z M 143.56 153.86 L 144.53 153.63 C 145.40 153.42 145.95 152.54 145.74 151.66 C 145.52 150.78 144.64 150.24 143.76 150.45 L 142.80 150.68 C 141.92 150.89 141.38 151.77 141.59 152.65 C 141.80 153.53 142.68 154.07 143.56 153.86 Z M 144.53 153.63 L 145.50 153.39 C 146.37 153.18 146.91 152.29 146.69 151.42 C 146.48 150.54 145.60 150.00 144.72 150.22 L 143.76 150.45 C 142.88 150.67 142.34 151.55 142.56 152.43 C 142.77 153.30 143.66 153.84 144.53 153.63 Z M 145.50 153.38 L 146.47 153.14 C 147.35 152.92 147.88 152.04 147.66 151.17 C 147.44 150.29 146.56 149.76 145.68 149.98 L 144.71 150.22 C 143.84 150.44 143.31 151.33 143.53 152.20 C 143.75 153.07 144.63 153.60 145.50 153.38 Z M 146.49 153.13 L 147.46 152.88 C 148.33 152.65 148.84 151.76 148.62 150.90 C 148.39 150.03 147.50 149.51 146.64 149.74 L 145.67 149.99 C 144.80 150.22 144.28 151.11 144.51 151.97 C 144.74 152.84 145.62 153.36 146.49 153.13 Z M 147.47 152.86 L 148.44 152.60 C 149.30 152.37 149.80 151.48 149.57 150.62 C 149.33 149.76 148.45 149.25 147.59 149.49 L 146.62 149.75 C 145.76 149.99 145.26 150.87 145.49 151.73 C 145.73 152.59 146.61 153.10 147.47 152.86 Z M 148.44 152.59 L 149.42 152.32 C 150.27 152.08 150.77 151.19 150.53 150.34 C 150.29 149.49 149.41 148.99 148.56 149.23 L 147.58 149.50 C 146.73 149.74 146.23 150.62 146.47 151.47 C 146.71 152.33 147.59 152.83 148.44 152.59 Z M 149.42 152.30 L 150.37 152.04 C 151.22 151.80 151.71 150.92 151.48 150.07 C 151.24 149.23 150.36 148.73 149.51 148.97 L 148.56 149.24 C 147.71 149.48 147.22 150.36 147.46 151.20 C 147.69 152.05 148.57 152.54 149.42 152.30 Z M 150.37 152.02 L 151.33 151.75 C 152.17 151.52 152.65 150.64 152.42 149.80 C 152.18 148.97 151.31 148.48 150.47 148.71 L 149.51 148.98 C 148.67 149.22 148.19 150.09 148.42 150.93 C 148.66 151.77 149.53 152.26 150.37 152.02 Z M 151.32 151.74 L 152.28 151.47 C 153.12 151.24 153.60 150.37 153.37 149.54 C 153.13 148.71 152.27 148.22 151.44 148.46 L 150.47 148.73 C 149.64 148.96 149.16 149.82 149.39 150.66 C 149.62 151.49 150.49 151.97 151.32 151.74 Z M 152.28 151.46 L 153.25 151.19 C 154.08 150.96 154.56 150.10 154.33 149.27 C 154.10 148.45 153.25 147.97 152.42 148.20 L 151.45 148.47 C 150.62 148.70 150.14 149.55 150.37 150.38 C 150.60 151.20 151.45 151.69 152.28 151.46 Z M 153.26 151.17 L 154.21 150.90 C 155.02 150.66 155.50 149.81 155.26 148.99 C 155.02 148.18 154.17 147.70 153.35 147.94 L 152.41 148.21 C 151.59 148.45 151.12 149.30 151.36 150.12 C 151.59 150.93 152.45 151.41 153.26 151.17 Z M 154.24 150.88 L 155.15 150.59 C 155.96 150.34 156.41 149.48 156.16 148.67 C 155.90 147.87 155.04 147.42 154.24 147.67 L 153.32 147.96 C 152.52 148.21 152.07 149.07 152.32 149.88 C 152.57 150.68 153.43 151.13 154.24 150.88 Z M 155.18 150.58 L 156.14 150.26 C 156.94 149.99 157.37 149.12 157.10 148.33 C 156.84 147.53 155.97 147.10 155.18 147.36 L 154.21 147.69 C 153.41 147.95 152.98 148.82 153.25 149.62 C 153.52 150.41 154.38 150.84 155.18 150.58 Z M 156.15 150.24 L 157.10 149.92 C 157.89 149.64 158.31 148.78 158.04 147.99 C 157.77 147.20 156.91 146.78 156.12 147.05 L 155.17 147.38 C 154.37 147.65 153.95 148.51 154.23 149.30 C 154.50 150.10 155.36 150.52 156.15 150.24 Z M 157.11 149.91 L 158.08 149.56 C 158.86 149.29 159.28 148.42 159.00 147.64 C 158.72 146.85 157.86 146.44 157.07 146.72 L 156.11 147.06 C 155.32 147.34 154.91 148.20 155.19 148.99 C 155.46 149.77 156.33 150.18 157.11 149.91 Z M 158.10 149.54 L 159.10 149.17 C 159.88 148.88 160.27 148.02 159.98 147.25 C 159.69 146.47 158.83 146.08 158.06 146.37 L 157.06 146.74 C 156.28 147.03 155.89 147.89 156.18 148.66 C 156.47 149.44 157.33 149.83 158.10 149.54 Z M 159.17 149.12 L 160.03 148.74 C 160.77 148.42 161.11 147.55 160.79 146.80 C 160.46 146.06 159.59 145.72 158.85 146.04 L 157.99 146.42 C 157.25 146.74 156.91 147.61 157.23 148.36 C 157.56 149.10 158.42 149.44 159.17 149.12 Z M 160.16 148.65 L 161.05 148.14 C 161.74 147.74 161.98 146.85 161.58 146.16 C 161.18 145.46 160.29 145.22 159.59 145.63 L 158.71 146.13 C 158.02 146.54 157.78 147.42 158.18 148.12 C 158.58 148.81 159.47 149.05 160.16 148.65 Z M 161.13 148.07 L 161.64 147.72 C 162.30 147.28 162.47 146.39 162.03 145.73 C 161.58 145.07 160.69 144.90 160.03 145.34 L 159.51 145.69 C 158.86 146.14 158.69 147.03 159.13 147.69 C 159.58 148.35 160.47 148.52 161.13 148.07 Z"
      fill="black"
      fill-rule="nonzero" /><path d="M 148.48 137.90 L 148.32 138.83 C 148.17 139.64 148.72 140.43 149.53 140.57 C 150.35 140.72 151.13 140.17 151.28 139.35 L 151.44 138.43 C 151.59 137.61 151.04 136.83 150.23 136.68 C 149.41 136.54 148.63 137.08 148.48 137.90 Z M 148.27 138.83 L 148.10 139.83 C 147.96 140.67 148.53 141.47 149.37 141.62 C 150.21 141.76 151.01 141.19 151.16 140.35 L 151.32 139.35 C 151.47 138.50 150.90 137.71 150.06 137.56 C 149.21 137.42 148.41 137.99 148.27 138.83 Z M 148.07 139.85 L 147.91 140.86 C 147.77 141.73 148.37 142.53 149.23 142.67 C 150.09 142.80 150.90 142.21 151.03 141.35 L 151.19 140.33 C 151.33 139.47 150.74 138.66 149.87 138.53 C 149.01 138.39 148.20 138.98 148.07 139.85 Z M 147.89 140.87 L 147.75 141.88 C 147.62 142.75 148.22 143.56 149.09 143.69 C 149.97 143.82 150.78 143.22 150.90 142.34 L 151.05 141.34 C 151.18 140.46 150.57 139.65 149.70 139.53 C 148.83 139.40 148.02 140.00 147.89 140.87 Z M 147.74 141.89 L 147.60 142.89 C 147.47 143.76 148.08 144.57 148.96 144.70 C 149.83 144.82 150.64 144.21 150.77 143.34 L 150.91 142.34 C 151.03 141.46 150.43 140.65 149.55 140.53 C 148.68 140.40 147.86 141.01 147.74 141.89 Z M 147.59 142.89 L 147.45 143.90 C 147.32 144.77 147.93 145.59 148.81 145.71 C 149.68 145.84 150.50 145.23 150.62 144.36 L 150.77 143.34 C 150.90 142.47 150.29 141.65 149.41 141.53 C 148.53 141.40 147.72 142.01 147.59 142.89 Z M 147.45 143.89 L 147.30 144.87 C 147.17 145.75 147.78 146.56 148.66 146.69 C 149.54 146.82 150.35 146.21 150.48 145.34 L 150.62 144.36 C 150.75 143.48 150.15 142.67 149.27 142.54 C 148.39 142.41 147.57 143.02 147.45 143.89 Z M 147.30 144.87 L 147.16 145.83 C 147.03 146.71 147.64 147.52 148.52 147.65 C 149.40 147.78 150.21 147.17 150.34 146.30 L 150.48 145.34 C 150.61 144.46 150.01 143.64 149.13 143.51 C 148.25 143.38 147.43 143.99 147.30 144.87 Z M 147.16 145.83 L 147.02 146.78 C 146.89 147.66 147.50 148.48 148.38 148.61 C 149.26 148.74 150.07 148.13 150.20 147.25 L 150.34 146.30 C 150.47 145.42 149.86 144.60 148.98 144.47 C 148.10 144.34 147.29 144.95 147.16 145.83 Z M 147.02 146.77 L 146.87 147.78 C 146.73 148.66 147.34 149.48 148.22 149.61 C 149.10 149.74 149.92 149.14 150.05 148.26 L 150.20 147.25 C 150.34 146.38 149.73 145.55 148.85 145.42 C 147.97 145.29 147.15 145.89 147.02 146.77 Z M 146.87 147.76 L 146.71 148.76 C 146.56 149.64 147.16 150.47 148.04 150.61 C 148.92 150.75 149.75 150.16 149.89 149.28 L 150.05 148.27 C 150.19 147.40 149.60 146.57 148.72 146.43 C 147.84 146.28 147.01 146.88 146.87 147.76 Z M 146.71 148.74 L 146.54 149.72 C 146.39 150.59 146.97 151.43 147.85 151.58 C 148.73 151.73 149.56 151.15 149.71 150.27 L 149.88 149.30 C 150.04 148.42 149.45 147.59 148.57 147.43 C 147.70 147.28 146.86 147.87 146.71 148.74 Z M 146.54 149.70 L 146.36 150.69 C 146.20 151.57 146.78 152.41 147.65 152.57 C 148.52 152.73 149.36 152.15 149.53 151.28 L 149.71 150.28 C 149.87 149.41 149.29 148.57 148.42 148.41 C 147.55 148.25 146.71 148.83 146.54 149.70 Z M 146.37 150.68 L 146.17 151.67 C 146.00 152.54 146.57 153.38 147.44 153.55 C 148.32 153.72 149.16 153.15 149.33 152.28 L 149.52 151.29 C 149.69 150.42 149.12 149.58 148.25 149.41 C 147.38 149.24 146.54 149.81 146.37 150.68 Z M 146.18 151.65 L 145.98 152.62 C 145.81 153.49 146.37 154.34 147.24 154.51 C 148.10 154.69 148.95 154.13 149.13 153.26 L 149.32 152.29 C 149.50 151.42 148.94 150.58 148.07 150.40 C 147.20 150.22 146.35 150.78 146.18 151.65 Z M 145.99 152.61 L 145.78 153.59 C 145.60 154.46 146.16 155.31 147.02 155.49 C 147.89 155.67 148.74 155.12 148.92 154.25 L 149.12 153.27 C 149.30 152.40 148.75 151.55 147.88 151.37 C 147.02 151.19 146.17 151.74 145.99 152.61 Z M 145.78 153.59 L 145.57 154.59 C 145.39 155.45 145.94 156.30 146.81 156.49 C 147.67 156.67 148.52 156.12 148.70 155.25 L 148.91 154.25 C 149.10 153.39 148.55 152.54 147.68 152.36 C 146.82 152.17 145.97 152.73 145.78 153.59 Z M 145.58 154.58 L 145.36 155.57 C 145.18 156.43 145.73 157.28 146.59 157.47 C 147.45 157.65 148.30 157.10 148.49 156.24 L 148.70 155.26 C 148.89 154.39 148.34 153.54 147.47 153.36 C 146.61 153.17 145.76 153.72 145.58 154.58 Z M 145.37 155.56 L 145.15 156.55 C 144.96 157.41 145.51 158.26 146.37 158.45 C 147.23 158.63 148.08 158.09 148.27 157.23 L 148.48 156.25 C 148.67 155.39 148.13 154.53 147.27 154.35 C 146.41 154.16 145.56 154.70 145.37 155.56 Z M 145.16 156.54 L 144.94 157.50 C 144.75 158.36 145.28 159.21 146.14 159.41 C 147.00 159.60 147.85 159.06 148.05 158.20 L 148.26 157.24 C 148.46 156.38 147.92 155.53 147.06 155.34 C 146.20 155.14 145.35 155.68 145.16 156.54 Z M 144.95 157.49 L 144.71 158.50 C 144.51 159.35 145.04 160.21 145.89 160.41 C 146.75 160.61 147.60 160.08 147.80 159.23 L 148.04 158.22 C 148.24 157.36 147.71 156.51 146.86 156.31 C 146.00 156.11 145.15 156.64 144.95 157.49 Z M 144.71 158.49 L 144.48 159.46 C 144.27 160.31 144.79 161.17 145.64 161.38 C 146.49 161.59 147.35 161.06 147.56 160.21 L 147.80 159.24 C 148.00 158.39 147.48 157.53 146.63 157.32 C 145.78 157.11 144.92 157.64 144.71 158.49 Z M 144.48 159.45 L 144.25 160.39 C 144.04 161.24 144.55 162.10 145.40 162.31 C 146.25 162.52 147.11 162.00 147.32 161.16 L 147.56 160.22 C 147.77 159.37 147.25 158.51 146.40 158.30 C 145.55 158.09 144.69 158.61 144.48 159.45 Z M 144.25 160.39 L 144.01 161.37 C 143.79 162.22 144.31 163.08 145.15 163.29 C 146.00 163.50 146.86 162.99 147.07 162.14 L 147.32 161.16 C 147.53 160.31 147.02 159.45 146.17 159.24 C 145.32 159.03 144.46 159.54 144.25 160.39 Z M 144.01 161.37 L 143.77 162.34 C 143.55 163.18 144.07 164.04 144.91 164.25 C 145.76 164.47 146.61 163.95 146.83 163.11 L 147.07 162.14 C 147.28 161.30 146.77 160.44 145.92 160.23 C 145.08 160.01 144.22 160.53 144.01 161.37 Z M 143.77 162.34 L 143.53 163.29 C 143.31 164.14 143.83 164.99 144.67 165.21 C 145.51 165.42 146.37 164.91 146.58 164.06 L 146.82 163.11 C 147.04 162.27 146.52 161.41 145.68 161.20 C 144.84 160.98 143.98 161.49 143.77 162.34 Z M 143.53 163.29 L 143.28 164.28 C 143.07 165.12 143.58 165.98 144.42 166.19 C 145.26 166.40 146.12 165.89 146.33 165.05 L 146.58 164.06 C 146.79 163.22 146.28 162.37 145.44 162.16 C 144.60 161.94 143.74 162.45 143.53 163.29 Z M 143.28 164.28 L 143.04 165.24 C 142.82 166.08 143.33 166.94 144.17 167.15 C 145.01 167.36 145.86 166.86 146.08 166.02 L 146.32 165.06 C 146.54 164.22 146.03 163.36 145.19 163.15 C 144.35 162.93 143.50 163.44 143.28 164.28 Z M 143.05 165.24 L 142.79 166.22 C 142.57 167.05 143.08 167.91 143.91 168.12 C 144.75 168.34 145.60 167.84 145.82 167.00 L 146.07 166.02 C 146.29 165.19 145.79 164.33 144.95 164.12 C 144.12 163.90 143.26 164.40 143.05 165.24 Z M 142.80 166.22 L 142.54 167.19 C 142.33 168.02 142.82 168.87 143.65 169.09 C 144.48 169.31 145.33 168.81 145.55 167.98 L 145.81 167.00 C 146.03 166.17 145.53 165.32 144.70 165.11 C 143.87 164.89 143.02 165.39 142.80 166.22 Z M 142.55 167.20 L 142.31 168.13 C 142.10 168.96 142.60 169.80 143.42 170.02 C 144.25 170.23 145.09 169.73 145.30 168.91 L 145.54 167.97 C 145.76 167.15 145.26 166.31 144.43 166.09 C 143.61 165.88 142.77 166.38 142.55 167.20 Z M 142.32 168.15 L 142.08 169.11 C 141.87 169.93 142.37 170.76 143.20 170.97 C 144.02 171.18 144.85 170.68 145.06 169.85 L 145.30 168.89 C 145.50 168.07 145.00 167.24 144.18 167.03 C 143.36 166.83 142.52 167.33 142.32 168.15 Z M 142.09 169.12 L 141.85 170.09 C 141.65 170.90 142.15 171.73 142.96 171.93 C 143.78 172.13 144.60 171.64 144.80 170.82 L 145.05 169.85 C 145.25 169.03 144.75 168.21 143.93 168.00 C 143.12 167.80 142.29 168.30 142.09 169.12 Z M 141.86 170.09 L 141.62 171.03 C 141.42 171.84 141.91 172.67 142.72 172.87 C 143.53 173.07 144.35 172.58 144.56 171.77 L 144.79 170.82 C 145.00 170.01 144.51 169.19 143.69 168.99 C 142.88 168.78 142.06 169.28 141.86 170.09 Z M 141.63 171.03 L 141.38 172.02 C 141.18 172.83 141.66 173.65 142.47 173.85 C 143.28 174.05 144.10 173.57 144.30 172.76 L 144.55 171.77 C 144.75 170.96 144.26 170.15 143.46 169.94 C 142.65 169.74 141.83 170.23 141.63 171.03 Z M 141.38 172.02 L 141.33 172.26 C 141.12 173.06 141.61 173.88 142.41 174.08 C 143.22 174.28 144.03 173.80 144.23 172.99 L 144.29 172.76 C 144.50 171.96 144.01 171.14 143.21 170.94 C 142.40 170.73 141.59 171.22 141.38 172.02 Z"
      fill="black"
      fill-rule="nonzero" /><path d="M 147.44 159.33 L 148.43 159.39 C 149.26 159.43 149.97 158.79 150.02 157.96 C 150.06 157.13 149.43 156.42 148.59 156.37 L 147.61 156.32 C 146.77 156.27 146.06 156.91 146.02 157.74 C 145.97 158.57 146.61 159.28 147.44 159.33 Z M 148.24 159.44 L 149.24 159.61 C 150.10 159.76 150.92 159.18 151.07 158.31 C 151.21 157.45 150.63 156.63 149.77 156.48 L 148.77 156.32 C 147.91 156.17 147.09 156.75 146.95 157.61 C 146.80 158.48 147.38 159.30 148.24 159.44 Z M 148.96 159.58 L 149.92 159.92 C 150.76 160.22 151.69 159.78 151.99 158.93 C 152.29 158.08 151.85 157.15 151.00 156.85 L 150.05 156.51 C 149.20 156.21 148.27 156.66 147.97 157.50 C 147.67 158.35 148.11 159.28 148.96 159.58 Z M 149.76 159.86 L 150.65 160.29 C 151.46 160.67 152.44 160.33 152.83 159.52 C 153.21 158.70 152.87 157.73 152.06 157.34 L 151.17 156.91 C 150.35 156.53 149.38 156.87 148.99 157.68 C 148.60 158.49 148.94 159.47 149.76 159.86 Z M 150.58 160.25 L 151.48 160.74 C 152.28 161.17 153.27 160.87 153.70 160.08 C 154.12 159.28 153.83 158.29 153.03 157.86 L 152.13 157.38 C 151.34 156.95 150.34 157.24 149.92 158.04 C 149.49 158.83 149.78 159.82 150.58 160.25 Z M 151.43 160.71 L 152.25 161.20 C 153.03 161.65 154.03 161.39 154.49 160.62 C 154.95 159.84 154.69 158.84 153.91 158.38 L 153.09 157.89 C 152.31 157.43 151.31 157.69 150.85 158.47 C 150.39 159.25 150.65 160.25 151.43 160.71 Z M 152.22 161.17 L 153.05 161.70 C 153.82 162.17 154.82 161.94 155.30 161.18 C 155.78 160.41 155.55 159.40 154.79 158.92 L 153.95 158.40 C 153.19 157.92 152.18 158.15 151.70 158.92 C 151.22 159.68 151.45 160.69 152.22 161.17 Z M 153.02 161.68 L 153.86 162.23 C 154.61 162.73 155.63 162.52 156.12 161.76 C 156.62 161.01 156.41 159.99 155.66 159.50 L 154.82 158.94 C 154.06 158.45 153.05 158.66 152.55 159.41 C 152.06 160.17 152.27 161.18 153.02 161.68 Z M 153.84 162.22 L 154.67 162.78 C 155.42 163.28 156.44 163.09 156.94 162.34 C 157.45 161.59 157.25 160.57 156.50 160.07 L 155.67 159.51 C 154.93 159.00 153.91 159.20 153.40 159.95 C 152.90 160.70 153.10 161.71 153.84 162.22 Z M 154.68 162.78 L 155.52 163.34 C 156.27 163.85 157.28 163.64 157.79 162.89 C 158.29 162.14 158.09 161.13 157.34 160.63 L 156.50 160.07 C 155.75 159.56 154.73 159.76 154.23 160.51 C 153.73 161.27 153.93 162.28 154.68 162.78 Z M 155.52 163.35 L 156.35 163.90 C 157.11 164.40 158.12 164.19 158.62 163.44 C 159.12 162.69 158.91 161.67 158.16 161.17 L 157.33 160.62 C 156.58 160.12 155.56 160.33 155.06 161.08 C 154.57 161.83 154.77 162.85 155.52 163.35 Z M 156.34 163.89 L 157.17 164.45 C 157.92 164.96 158.93 164.76 159.44 164.02 C 159.95 163.27 159.75 162.26 159.01 161.75 L 158.18 161.18 C 157.43 160.68 156.41 160.87 155.91 161.62 C 155.40 162.37 155.59 163.38 156.34 163.89 Z M 157.15 164.44 L 157.97 165.01 C 158.71 165.53 159.73 165.35 160.25 164.61 C 160.76 163.87 160.58 162.86 159.85 162.34 L 159.03 161.76 C 158.29 161.25 157.27 161.43 156.75 162.16 C 156.24 162.90 156.42 163.92 157.15 164.44 Z M 157.96 165.00 L 158.74 165.55 C 159.47 166.08 160.49 165.91 161.01 165.18 C 161.53 164.44 161.36 163.43 160.63 162.90 L 159.86 162.35 C 159.12 161.83 158.11 162.00 157.58 162.73 C 157.06 163.46 157.23 164.48 157.96 165.00 Z M 158.73 165.55 L 159.43 166.05 C 160.15 166.57 161.17 166.41 161.70 165.68 C 162.22 164.95 162.06 163.94 161.33 163.41 L 160.64 162.91 C 159.91 162.38 158.89 162.55 158.37 163.28 C 157.84 164.01 158.00 165.02 158.73 165.55 Z M 159.42 166.04 L 160.29 166.67 C 161.01 167.20 162.03 167.04 162.56 166.31 C 163.08 165.58 162.92 164.57 162.20 164.04 L 161.33 163.42 C 160.61 162.89 159.59 163.05 159.06 163.78 C 158.54 164.50 158.70 165.52 159.42 166.04 Z M 160.29 166.67 L 161.16 167.30 C 161.88 167.83 162.90 167.67 163.42 166.95 C 163.95 166.22 163.79 165.21 163.07 164.68 L 162.20 164.05 C 161.47 163.52 160.46 163.68 159.93 164.40 C 159.40 165.13 159.56 166.14 160.29 166.67 Z M 161.16 167.30 L 161.97 167.89 C 162.70 168.42 163.71 168.26 164.24 167.54 C 164.76 166.82 164.60 165.81 163.88 165.28 L 163.07 164.68 C 162.35 164.16 161.33 164.31 160.81 165.04 C 160.28 165.76 160.44 166.77 161.16 167.30 Z M 161.97 167.89 L 162.83 168.52 C 163.55 169.04 164.56 168.89 165.09 168.17 C 165.61 167.45 165.46 166.43 164.74 165.91 L 163.88 165.28 C 163.16 164.75 162.15 164.91 161.62 165.63 C 161.10 166.35 161.25 167.36 161.97 167.89 Z M 162.82 168.51 L 163.65 169.12 C 164.37 169.65 165.38 169.50 165.91 168.78 C 166.44 168.06 166.28 167.05 165.57 166.52 L 164.74 165.91 C 164.02 165.38 163.01 165.54 162.48 166.25 C 161.95 166.97 162.11 167.98 162.82 168.51 Z M 163.65 169.11 L 164.49 169.73 C 165.20 170.26 166.21 170.12 166.74 169.40 C 167.27 168.69 167.12 167.68 166.41 167.15 L 165.57 166.53 C 164.85 166.00 163.85 166.15 163.32 166.86 C 162.79 167.57 162.94 168.58 163.65 169.11 Z M 164.48 169.71 L 165.36 170.38 C 166.07 170.92 167.07 170.78 167.60 170.08 C 168.13 169.37 168.00 168.37 167.29 167.84 L 166.41 167.17 C 165.71 166.64 164.71 166.77 164.18 167.48 C 163.64 168.18 163.78 169.18 164.48 169.71 Z M 165.35 170.34 L 166.05 170.90 C 166.73 171.44 167.72 171.33 168.26 170.65 C 168.80 169.97 168.69 168.98 168.01 168.43 L 167.31 167.88 C 166.63 167.34 165.64 167.45 165.10 168.13 C 164.55 168.81 164.67 169.80 165.35 170.34 Z M 166.02 170.85 L 166.71 171.44 C 167.37 172.00 168.35 171.92 168.91 171.26 C 169.47 170.61 169.39 169.62 168.73 169.07 L 168.04 168.48 C 167.38 167.92 166.40 168.00 165.84 168.66 C 165.28 169.31 165.36 170.30 166.02 170.85 Z M 166.69 171.40 L 167.43 172.07 C 168.07 172.64 169.04 172.59 169.62 171.95 C 170.19 171.32 170.13 170.34 169.50 169.77 L 168.75 169.10 C 168.12 168.53 167.14 168.59 166.57 169.22 C 166.00 169.86 166.05 170.83 166.69 171.40 Z M 167.42 172.05 L 168.04 172.62 C 168.66 173.20 169.64 173.16 170.21 172.53 C 170.79 171.91 170.75 170.93 170.12 170.36 L 169.51 169.79 C 168.88 169.22 167.91 169.26 167.33 169.88 C 166.76 170.51 166.80 171.48 167.42 172.05 Z"
      fill="black"
      fill-rule="nonzero" /></svg>