<svg xmlns="http://www.w3.org/2000/svg" width="300" height="300" viewBox="0 0 300 300">
<path d="M 141.40 128.52 L 142.40 128.43 C 143.25 128.36 143.87 127.61 143.79 126.77 C 143.72 125.93 142.97 125.31 142.13 125.38 L 141.13 125.47 C 140.29 125.55 139.66 126.29 139.74 127.14 C 139.82 127.98 140.56 128.60 141.40 128.52 Z M 142.37 128.44 L 143.37 128.38 C 144.22 128.32 144.86 127.58 144.80 126.73 C 144.74 125.88 144.00 125.24 143.15 125.30 L 142.16 125.37 C 141.31 125.43 140.67 126.17 140.73 127.02 C 140.79 127.86 141.52 128.50 142.37 128.44 Z M 143.31 128.39 L 144.27 128.36 C 145.13 128.33 145.80 127.62 145.77 126.76 C 145.75 125.91 145.03 125.23 144.18 125.26 L 143.21 125.29 C 142.36 125.32 141.69 126.03 141.71 126.89 C 141.74 127.74 142.45 128.41 143.31 128.39 Z M 144.22 128.37 L 145.23 128.38 C 146.09 128.38 146.79 127.69 146.80 126.82 C 146.80 125.96 146.11 125.26 145.25 125.25 L 144.23 125.25 C 143.37 125.24 142.67 125.94 142.66 126.80 C 142.66 127.66 143.35 128.36 144.22 128.37 Z M 145.19 128.38 L 146.12 128.40 C 146.98 128.43 147.70 127.75 147.72 126.89 C 147.75 126.02 147.07 125.30 146.20 125.28 L 145.28 125.25 C 144.42 125.23 143.70 125.91 143.68 126.77 C 143.65 127.63 144.33 128.35 145.19 128.38 Z M 146.11 128.39 L 147.07 128.42 C 147.93 128.45 148.64 127.78 148.67 126.93 C 148.70 126.07 148.03 125.35 147.17 125.32 L 146.21 125.29 C 145.36 125.26 144.64 125.93 144.61 126.79 C 144.58 127.65 145.25 128.36 146.11 128.39 Z M 147.08 128.41 L 148.19 128.44 C 149.04 128.46 149.75 127.79 149.77 126.94 C 149.79 126.09 149.12 125.39 148.27 125.37 L 147.16 125.34 C 146.31 125.31 145.61 125.98 145.58 126.83 C 145.56 127.68 146.23 128.39 147.08 128.41 Z M 148.21 128.43 L 149.22 128.44 C 150.06 128.45 150.75 127.78 150.77 126.94 C 150.78 126.10 150.11 125.41 149.26 125.39 L 148.25 125.38 C 147.41 125.37 146.72 126.04 146.71 126.88 C 146.69 127.72 147.37 128.41 148.21 128.43 Z M 149.23 128.43 L 150.26 128.43 C 151.10 128.44 151.78 127.77 151.79 126.93 C 151.79 126.10 151.12 125.42 150.28 125.41 L 149.25 125.41 C 148.42 125.40 147.74 126.07 147.73 126.91 C 147.73 127.74 148.40 128.42 149.23 128.43 Z M 150.27 128.42 L 151.29 128.42 C 152.12 128.43 152.79 127.76 152.79 126.93 C 152.80 126.10 152.13 125.43 151.30 125.43 L 150.28 125.43 C 149.45 125.43 148.78 126.09 148.78 126.92 C 148.78 127.75 149.44 128.42 150.27 128.42 Z M 151.30 128.41 L 152.29 128.41 C 153.11 128.41 153.77 127.75 153.77 126.93 C 153.77 126.11 153.11 125.44 152.29 125.44 L 151.30 125.44 C 150.48 125.44 149.81 126.11 149.81 126.93 C 149.81 127.75 150.48 128.41 151.30 128.41 Z M 152.29 128.39 L 153.38 128.39 C 154.19 128.39 154.84 127.74 154.84 126.93 C 154.84 126.12 154.19 125.46 153.38 125.46 L 152.29 125.46 C 151.48 125.46 150.82 126.12 150.82 126.93 C 150.82 127.74 151.48 128.39 152.29 128.39 Z M 153.38 128.37 L 154.32 128.37 C 155.12 128.37 155.77 127.73 155.77 126.93 C 155.77 126.13 155.12 125.48 154.32 125.48 L 153.38 125.48 C 152.58 125.48 151.93 126.13 151.93 126.93 C 151.93 127.73 152.58 128.37 153.38 128.37 Z M 154.32 128.36 L 154.84 128.36 C 155.63 128.36 156.27 127.72 156.27 126.93 C 156.27 126.14 155.63 125.49 154.84 125.49 L 154.32 125.49 C 153.53 125.49 152.89 126.14 152.89 126.93 C 152.89 127.72 153.53 128.36 154.32 128.36 Z"
      fill="black"
      fill-rule="nonzero" /><path d="M 128.67 133.06 L 128.83 134.06 C 128.97 134.90 129.76 135.47 130.60 135.34 C 131.43 135.20 132.01 134.42 131.87 133.58 L 131.71 132.57 C 131.58 131.73 130.79 131.16 129.95 131.29 C 129.11 131.43 128.54 132.22 128.67 133.06 Z M 128.82 134.22 L 129.08 135.17 C 129.30 136.01 130.16 136.52 131.01 136.29 C 131.85 136.07 132.36 135.21 132.13 134.36 L 131.88 133.41 C 131.66 132.57 130.79 132.07 129.95 132.29 C 129.10 132.51 128.60 133.38 128.82 134.22 Z M 129.15 135.44 L 129.57 136.33 C 129.94 137.13 130.89 137.48 131.69 137.11 C 132.49 136.74 132.84 135.79 132.47 134.99 L 132.05 134.10 C 131.68 133.29 130.73 132.95 129.93 133.32 C 129.13 133.69 128.78 134.64 129.15 135.44 Z M 129.66 136.48 L 130.17 137.33 C 130.62 138.08 131.60 138.32 132.35 137.87 C 133.10 137.41 133.35 136.43 132.89 135.68 L 132.38 134.84 C 131.92 134.09 130.95 133.84 130.19 134.30 C 129.44 134.75 129.20 135.73 129.66 136.48 Z M 130.21 137.38 L 130.76 138.21 C 131.25 138.94 132.23 139.14 132.95 138.66 C 133.68 138.18 133.88 137.19 133.40 136.47 L 132.85 135.63 C 132.37 134.91 131.38 134.71 130.66 135.19 C 129.93 135.67 129.73 136.65 130.21 137.38 Z M 130.79 138.22 L 131.36 139.06 C 131.85 139.78 132.82 139.96 133.54 139.48 C 134.25 138.99 134.44 138.02 133.95 137.30 L 133.38 136.46 C 132.89 135.74 131.92 135.56 131.20 136.04 C 130.48 136.53 130.30 137.50 130.79 138.22 Z M 131.38 139.07 L 131.95 139.89 C 132.44 140.59 133.40 140.77 134.11 140.28 C 134.81 139.79 134.99 138.83 134.50 138.12 L 133.93 137.30 C 133.44 136.59 132.48 136.42 131.77 136.91 C 131.07 137.39 130.89 138.36 131.38 139.07 Z M 131.99 139.91 L 132.58 140.73 C 133.08 141.41 134.04 141.56 134.72 141.07 C 135.41 140.57 135.56 139.61 135.06 138.93 L 134.47 138.11 C 133.97 137.42 133.01 137.27 132.33 137.77 C 131.64 138.26 131.49 139.22 131.99 139.91 Z M 132.63 140.76 L 133.26 141.55 C 133.77 142.21 134.72 142.32 135.38 141.81 C 136.04 141.29 136.15 140.34 135.63 139.69 L 135.01 138.89 C 134.49 138.24 133.54 138.12 132.89 138.64 C 132.23 139.15 132.12 140.10 132.63 140.76 Z M 133.33 141.60 L 133.97 142.34 C 134.51 142.96 135.46 143.02 136.07 142.48 C 136.69 141.93 136.75 140.99 136.21 140.37 L 135.56 139.64 C 135.02 139.02 134.08 138.96 133.46 139.50 C 132.84 140.04 132.78 140.98 133.33 141.60 Z M 134.06 142.41 L 134.77 143.10 C 135.35 143.66 136.28 143.65 136.85 143.07 C 137.41 142.49 137.40 141.56 136.82 141.00 L 136.12 140.31 C 135.54 139.74 134.61 139.75 134.04 140.33 C 133.47 140.91 133.48 141.84 134.06 142.41 Z M 134.88 143.17 L 135.66 143.81 C 136.28 144.31 137.20 144.22 137.70 143.60 C 138.21 142.97 138.11 142.06 137.49 141.55 L 136.71 140.92 C 136.09 140.41 135.17 140.51 134.67 141.13 C 134.16 141.75 134.26 142.67 134.88 143.17 Z M 135.75 143.86 L 136.56 144.42 C 137.21 144.88 138.11 144.72 138.57 144.06 C 139.02 143.41 138.86 142.51 138.20 142.06 L 137.40 141.50 C 136.74 141.04 135.85 141.20 135.39 141.86 C 134.94 142.51 135.10 143.41 135.75 143.86 Z M 136.60 144.44 L 137.47 145.00 C 138.13 145.43 139.02 145.24 139.45 144.57 C 139.88 143.91 139.69 143.02 139.02 142.59 L 138.16 142.04 C 137.49 141.61 136.61 141.80 136.18 142.46 C 135.75 143.13 135.94 144.01 136.60 144.44 Z M 137.48 145.00 L 137.53 145.04 C 138.20 145.46 139.08 145.27 139.50 144.60 C 139.93 143.94 139.73 143.05 139.07 142.63 L 139.01 142.59 C 138.35 142.17 137.46 142.36 137.04 143.03 C 136.62 143.69 136.81 144.58 137.48 145.00 Z"
      fill="black"
      fill-rule="nonzero" /><path d="M 136.65 136.25 L 137.70 136.29 C 138.54 136.33 139.26 135.68 139.29 134.84 C 139.33 133.99 138.68 133.28 137.84 133.25 L 136.78 133.20 C 135.94 133.16 135.23 133.82 135.19 134.66 C 135.15 135.50 135.80 136.21 136.65 136.25 Z M 137.72 136.36 L 138.71 136.39 C 139.59 136.42 140.33 135.73 140.36 134.85 C 140.38 133.97 139.69 133.24 138.82 133.21 L 137.82 133.18 C 136.94 133.15 136.21 133.84 136.18 134.72 C 136.15 135.60 136.84 136.33 137.72 136.36 Z M 138.76 136.44 L 139.75 136.44 C 140.66 136.44 141.40 135.71 141.40 134.80 C 141.40 133.90 140.66 133.16 139.76 133.16 L 138.77 133.16 C 137.86 133.16 137.12 133.89 137.12 134.80 C 137.12 135.71 137.86 136.44 138.76 136.44 Z M 139.84 136.46 L 140.83 136.41 C 141.74 136.36 142.45 135.58 142.40 134.67 C 142.35 133.75 141.57 133.05 140.66 133.09 L 139.67 133.14 C 138.76 133.19 138.05 133.97 138.10 134.89 C 138.14 135.80 138.92 136.51 139.84 136.46 Z M 140.89 136.40 L 141.83 136.32 C 142.75 136.24 143.42 135.44 143.34 134.52 C 143.26 133.61 142.46 132.94 141.54 133.02 L 140.60 133.10 C 139.68 133.18 139.01 133.98 139.09 134.90 C 139.17 135.81 139.97 136.48 140.89 136.40 Z M 141.85 136.32 L 142.85 136.22 C 143.76 136.13 144.43 135.32 144.34 134.41 C 144.25 133.49 143.43 132.83 142.52 132.92 L 141.53 133.02 C 140.61 133.11 139.95 133.92 140.04 134.83 C 140.13 135.74 140.94 136.41 141.85 136.32 Z M 142.85 136.22 L 143.84 136.12 C 144.76 136.03 145.42 135.22 145.33 134.30 C 145.24 133.39 144.43 132.73 143.51 132.82 L 142.52 132.92 C 141.61 133.01 140.94 133.82 141.04 134.73 C 141.13 135.65 141.94 136.31 142.85 136.22 Z M 143.85 136.12 L 144.84 136.02 C 145.75 135.93 146.42 135.11 146.33 134.20 C 146.23 133.29 145.42 132.62 144.51 132.72 L 143.51 132.82 C 142.60 132.91 141.93 133.73 142.03 134.64 C 142.12 135.55 142.93 136.21 143.85 136.12 Z M 144.85 136.02 L 145.84 135.91 C 146.76 135.81 147.42 134.99 147.32 134.08 C 147.22 133.17 146.40 132.51 145.48 132.61 L 144.49 132.72 C 143.58 132.82 142.92 133.64 143.02 134.55 C 143.12 135.46 143.94 136.12 144.85 136.02 Z M 145.85 135.91 L 146.84 135.80 C 147.75 135.70 148.41 134.87 148.30 133.96 C 148.20 133.05 147.38 132.39 146.46 132.50 L 145.48 132.61 C 144.56 132.71 143.91 133.54 144.01 134.45 C 144.12 135.36 144.94 136.02 145.85 135.91 Z M 146.84 135.80 L 147.85 135.69 C 148.76 135.59 149.42 134.76 149.32 133.85 C 149.22 132.94 148.39 132.28 147.48 132.38 L 146.47 132.49 C 145.55 132.60 144.89 133.42 145.00 134.33 C 145.10 135.25 145.92 135.91 146.84 135.80 Z M 147.84 135.69 L 148.82 135.59 C 149.74 135.49 150.40 134.67 150.30 133.76 C 150.21 132.84 149.39 132.18 148.47 132.27 L 147.49 132.38 C 146.57 132.48 145.91 133.30 146.01 134.21 C 146.10 135.13 146.92 135.79 147.84 135.69 Z M 148.82 135.59 L 149.83 135.48 C 150.74 135.39 151.41 134.57 151.31 133.66 C 151.22 132.74 150.40 132.08 149.48 132.17 L 148.48 132.27 C 147.56 132.37 146.90 133.19 146.99 134.10 C 147.08 135.02 147.90 135.68 148.82 135.59 Z M 149.83 135.48 L 150.81 135.38 C 151.72 135.29 152.38 134.47 152.29 133.56 C 152.20 132.64 151.38 131.98 150.46 132.07 L 149.48 132.17 C 148.57 132.27 147.90 133.08 148.00 134.00 C 148.09 134.91 148.91 135.58 149.83 135.48 Z M 150.80 135.38 L 151.79 135.28 C 152.71 135.18 153.37 134.37 153.28 133.46 C 153.18 132.54 152.37 131.88 151.45 131.97 L 150.46 132.07 C 149.55 132.17 148.89 132.98 148.98 133.90 C 149.08 134.81 149.89 135.47 150.80 135.38 Z M 151.79 135.28 L 152.81 135.17 C 153.72 135.08 154.39 134.27 154.29 133.36 C 154.20 132.45 153.39 131.78 152.48 131.87 L 151.46 131.97 C 150.55 132.06 149.88 132.88 149.97 133.79 C 150.06 134.70 150.88 135.37 151.79 135.28 Z M 152.80 135.17 L 153.80 135.08 C 154.71 134.99 155.38 134.18 155.29 133.27 C 155.20 132.36 154.39 131.69 153.48 131.78 L 152.49 131.88 C 151.58 131.96 150.91 132.77 151.00 133.68 C 151.08 134.59 151.89 135.26 152.80 135.17 Z M 153.80 135.07 L 154.80 134.98 C 155.71 134.89 156.38 134.09 156.29 133.18 C 156.21 132.27 155.40 131.61 154.49 131.69 L 153.49 131.78 C 152.58 131.87 151.91 132.67 152.00 133.58 C 152.08 134.49 152.89 135.16 153.80 135.07 Z M 154.80 134.97 L 155.80 134.88 C 156.71 134.79 157.37 133.99 157.29 133.08 C 157.20 132.18 156.40 131.51 155.49 131.60 L 154.49 131.69 C 153.58 131.78 152.92 132.58 153.01 133.49 C 153.09 134.40 153.90 135.06 154.80 134.97 Z M 155.81 134.87 L 156.82 134.78 C 157.73 134.69 158.39 133.88 158.30 132.98 C 158.21 132.08 157.41 131.42 156.51 131.51 L 155.49 131.60 C 154.59 131.69 153.93 132.50 154.01 133.40 C 154.10 134.30 154.90 134.96 155.81 134.87 Z M 156.82 134.77 L 157.79 134.68 C 158.69 134.59 159.35 133.79 159.27 132.89 C 159.18 131.99 158.38 131.33 157.48 131.42 L 156.51 131.51 C 155.61 131.60 154.95 132.40 155.03 133.30 C 155.12 134.20 155.92 134.86 156.82 134.77 Z M 157.78 134.67 L 158.78 134.58 C 159.68 134.50 160.34 133.71 160.26 132.81 C 160.18 131.91 159.39 131.25 158.49 131.33 L 157.49 131.42 C 156.59 131.50 155.93 132.30 156.01 133.20 C 156.09 134.09 156.88 134.76 157.78 134.67 Z M 158.78 134.58 L 159.77 134.49 C 160.67 134.41 161.33 133.63 161.25 132.73 C 161.18 131.83 160.39 131.17 159.49 131.25 L 158.49 131.33 C 157.60 131.41 156.94 132.20 157.01 133.10 C 157.09 133.99 157.88 134.66 158.78 134.58 Z M 159.77 134.49 L 160.77 134.40 C 161.66 134.32 162.32 133.54 162.25 132.64 C 162.17 131.75 161.38 131.09 160.49 131.17 L 159.49 131.25 C 158.60 131.33 157.94 132.12 158.01 133.01 C 158.09 133.90 158.88 134.57 159.77 134.49 Z M 160.77 134.40 L 161.78 134.31 C 162.67 134.23 163.33 133.44 163.25 132.55 C 163.17 131.66 162.39 131.00 161.50 131.08 L 160.49 131.17 C 159.59 131.25 158.94 132.04 159.01 132.93 C 159.09 133.82 159.88 134.48 160.77 134.40 Z M 161.78 134.30 L 162.72 134.22 C 163.61 134.14 164.27 133.36 164.19 132.47 C 164.12 131.58 163.33 130.93 162.45 131.00 L 161.50 131.09 C 160.61 131.16 159.95 131.94 160.03 132.83 C 160.11 133.72 160.89 134.38 161.78 134.30 Z M 162.71 134.22 L 163.62 134.15 C 164.50 134.08 165.17 133.31 165.10 132.42 C 165.03 131.53 164.26 130.87 163.37 130.94 L 162.46 131.01 C 161.57 131.07 160.91 131.85 160.98 132.74 C 161.05 133.62 161.82 134.29 162.71 134.22 Z M 163.58 134.15 L 164.67 134.08 C 165.56 134.03 166.24 133.27 166.18 132.39 C 166.13 131.50 165.37 130.82 164.49 130.88 L 163.40 130.94 C 162.51 130.99 161.84 131.75 161.89 132.64 C 161.94 133.52 162.70 134.20 163.58 134.15 Z M 164.64 134.08 L 165.82 134.04 C 166.70 134.00 167.39 133.26 167.36 132.37 C 167.32 131.49 166.58 130.80 165.69 130.83 L 164.52 130.88 C 163.63 130.91 162.95 131.66 162.98 132.54 C 163.01 133.43 163.76 134.12 164.64 134.08 Z M 165.76 134.03 L 166.83 134.03 C 167.72 134.02 168.43 133.30 168.42 132.42 C 168.42 131.53 167.70 130.82 166.81 130.83 L 165.74 130.83 C 164.86 130.84 164.15 131.56 164.16 132.44 C 164.16 133.33 164.88 134.04 165.76 134.03 Z M 166.52 134.00 L 167.11 134.11 C 167.98 134.28 168.82 133.71 168.99 132.84 C 169.15 131.98 168.59 131.14 167.72 130.97 L 167.13 130.86 C 166.26 130.69 165.42 131.26 165.25 132.12 C 165.08 132.99 165.65 133.83 166.52 134.00 Z M 166.53 131.19 L 165.67 131.75 C 164.93 132.24 164.72 133.25 165.21 133.99 C 165.70 134.74 166.71 134.95 167.45 134.46 L 168.31 133.89 C 169.05 133.40 169.26 132.40 168.77 131.65 C 168.28 130.90 167.27 130.70 166.53 131.19 Z M 165.55 131.82 L 164.76 132.44 C 164.05 133.00 163.93 134.02 164.49 134.73 C 165.04 135.44 166.07 135.57 166.78 135.01 L 167.57 134.39 C 168.28 133.83 168.40 132.81 167.85 132.10 C 167.29 131.39 166.26 131.26 165.55 131.82 Z M 164.64 132.55 L 163.92 133.24 C 163.27 133.86 163.25 134.89 163.88 135.54 C 164.50 136.19 165.53 136.21 166.18 135.59 L 166.90 134.90 C 167.55 134.28 167.57 133.25 166.95 132.60 C 166.32 131.95 165.29 131.93 164.64 132.55 Z M 163.89 133.29 L 163.18 134.02 C 162.56 134.66 162.58 135.68 163.22 136.30 C 163.86 136.93 164.88 136.91 165.51 136.27 L 166.21 135.54 C 166.84 134.90 166.82 133.88 166.18 133.25 C 165.54 132.63 164.51 132.65 163.89 133.29 Z M 163.21 134.02 L 162.53 134.71 C 161.90 135.34 161.91 136.35 162.54 136.97 C 163.16 137.59 164.17 137.59 164.80 136.96 L 165.48 136.27 C 166.10 135.64 166.10 134.63 165.47 134.01 C 164.84 133.39 163.83 133.39 163.21 134.02 Z M 162.56 134.71 L 161.84 135.41 C 161.22 136.02 161.21 137.01 161.82 137.63 C 162.42 138.25 163.42 138.27 164.04 137.66 L 164.76 136.96 C 165.38 136.35 165.39 135.36 164.78 134.74 C 164.18 134.12 163.18 134.11 162.56 134.71 Z M 161.84 135.47 L 161.17 136.16 C 160.58 136.77 160.59 137.74 161.20 138.33 C 161.81 138.92 162.79 138.91 163.38 138.30 L 164.05 137.61 C 164.64 137.00 164.62 136.02 164.01 135.43 C 163.40 134.84 162.43 134.86 161.84 135.47 Z M 161.16 136.22 L 160.49 136.96 C 159.93 137.57 159.97 138.52 160.58 139.08 C 161.20 139.64 162.15 139.59 162.70 138.98 L 163.38 138.24 C 163.94 137.63 163.90 136.68 163.28 136.12 C 162.67 135.56 161.72 135.60 161.16 136.22 Z M 160.51 136.97 L 159.85 137.69 C 159.30 138.29 159.34 139.22 159.94 139.78 C 160.54 140.33 161.47 140.29 162.02 139.69 L 162.68 138.97 C 163.23 138.37 163.19 137.43 162.59 136.88 C 161.99 136.33 161.06 136.37 160.51 136.97 Z M 159.87 137.70 L 159.18 138.44 C 158.63 139.03 158.67 139.95 159.25 140.50 C 159.84 141.04 160.77 141.01 161.31 140.42 L 162.00 139.68 C 162.55 139.09 162.52 138.17 161.93 137.62 C 161.34 137.07 160.42 137.11 159.87 137.70 Z M 159.19 138.44 L 158.59 139.08 C 158.05 139.67 158.08 140.58 158.66 141.13 C 159.24 141.67 160.16 141.64 160.70 141.06 L 161.30 140.41 C 161.85 139.83 161.82 138.92 161.23 138.37 C 160.65 137.83 159.74 137.86 159.19 138.44 Z"
      fill="black"
      fill-rule="nonzero" /><path d="M 142.31 149.27 L 143.16 148.87 C 143.93 148.50 144.26 147.58 143.90 146.81 C 143.54 146.04 142.61 145.71 141.84 146.07 L 141.00 146.47 C 140.22 146.83 139.89 147.75 140.26 148.53 C 140.62 149.30 141.54 149.63 142.31 149.27 Z M 143.14 148.95 L 144.10 148.54 C 144.92 148.18 145.30 147.23 144.95 146.41 C 144.59 145.59 143.64 145.22 142.82 145.57 L 141.86 145.99 C 141.04 146.34 140.66 147.29 141.02 148.11 C 141.37 148.93 142.32 149.30 143.14 148.95 Z M 144.06 148.56 L 145.01 148.19 C 145.84 147.85 146.25 146.91 145.92 146.08 C 145.59 145.24 144.64 144.84 143.81 145.17 L 142.86 145.54 C 142.03 145.88 141.62 146.82 141.95 147.65 C 142.29 148.49 143.23 148.89 144.06 148.56 Z M 144.98 148.16 L 145.92 147.80 C 146.74 147.49 147.15 146.57 146.84 145.75 C 146.53 144.93 145.61 144.52 144.79 144.83 L 143.84 145.19 C 143.02 145.50 142.61 146.42 142.92 147.24 C 143.23 148.06 144.15 148.48 144.98 148.16 Z M 145.89 147.78 L 146.86 147.42 C 147.67 147.13 148.09 146.23 147.79 145.42 C 147.49 144.61 146.60 144.20 145.79 144.49 L 144.81 144.85 C 144.00 145.15 143.59 146.05 143.89 146.86 C 144.18 147.67 145.08 148.08 145.89 147.78 Z M 146.85 147.40 L 147.74 147.07 C 148.54 146.78 148.95 145.90 148.65 145.11 C 148.36 144.31 147.48 143.90 146.69 144.19 L 145.80 144.52 C 145.00 144.81 144.59 145.69 144.88 146.49 C 145.18 147.28 146.06 147.69 146.85 147.40 Z M 147.75 147.05 L 148.68 146.70 C 149.46 146.40 149.86 145.53 149.56 144.75 C 149.27 143.97 148.40 143.57 147.62 143.87 L 146.68 144.22 C 145.90 144.51 145.51 145.38 145.80 146.17 C 146.09 146.95 146.96 147.34 147.75 147.05 Z M 148.69 146.68 L 149.62 146.32 C 150.39 146.02 150.77 145.16 150.47 144.39 C 150.17 143.62 149.31 143.23 148.54 143.53 L 147.61 143.89 C 146.84 144.19 146.46 145.05 146.76 145.82 C 147.05 146.59 147.92 146.97 148.69 146.68 Z M 149.63 146.29 L 150.56 145.92 C 151.32 145.62 151.69 144.76 151.38 144.00 C 151.08 143.25 150.22 142.88 149.47 143.18 L 148.53 143.55 C 147.77 143.85 147.40 144.71 147.71 145.47 C 148.01 146.23 148.87 146.60 149.63 146.29 Z M 150.58 145.90 L 151.51 145.51 C 152.25 145.20 152.61 144.35 152.30 143.60 C 151.99 142.85 151.13 142.50 150.38 142.81 L 149.45 143.20 C 148.70 143.51 148.35 144.37 148.66 145.11 C 148.97 145.86 149.83 146.21 150.58 145.90 Z M 151.50 145.51 L 152.42 145.13 C 153.16 144.82 153.51 143.97 153.21 143.23 C 152.90 142.48 152.05 142.13 151.30 142.44 L 150.39 142.82 C 149.65 143.13 149.29 143.98 149.60 144.72 C 149.91 145.46 150.76 145.81 151.50 145.51 Z M 152.40 145.13 L 153.19 144.81 C 153.93 144.52 154.29 143.67 154.00 142.93 C 153.70 142.19 152.86 141.83 152.12 142.12 L 151.33 142.44 C 150.58 142.73 150.22 143.57 150.52 144.32 C 150.81 145.06 151.65 145.42 152.40 145.13 Z M 153.20 144.80 L 154.21 144.39 C 154.95 144.09 155.31 143.25 155.01 142.51 C 154.71 141.78 153.87 141.42 153.13 141.72 L 152.11 142.13 C 151.38 142.43 151.02 143.27 151.32 144.01 C 151.62 144.75 152.46 145.10 153.20 144.80 Z M 154.24 144.40 L 155.08 144.05 C 155.83 143.74 156.18 142.88 155.87 142.13 C 155.55 141.39 154.70 141.04 153.95 141.35 L 153.11 141.71 C 152.36 142.02 152.01 142.88 152.32 143.62 C 152.64 144.37 153.49 144.72 154.24 144.40 Z M 155.11 144.10 L 156.00 143.71 C 156.77 143.39 157.13 142.49 156.80 141.72 C 156.47 140.95 155.58 140.60 154.81 140.93 L 153.92 141.31 C 153.15 141.63 152.79 142.53 153.12 143.30 C 153.45 144.07 154.34 144.42 155.11 144.10 Z M 156.03 143.77 L 157.00 143.35 C 157.80 143.00 158.17 142.08 157.83 141.28 C 157.48 140.48 156.56 140.11 155.76 140.45 L 154.78 140.87 C 153.99 141.22 153.62 142.14 153.96 142.94 C 154.31 143.74 155.23 144.11 156.03 143.77 Z M 157.03 143.40 L 158.04 142.96 C 158.87 142.60 159.25 141.64 158.89 140.81 C 158.54 139.99 157.57 139.61 156.75 139.96 L 155.73 140.40 C 154.90 140.76 154.52 141.72 154.88 142.55 C 155.24 143.38 156.20 143.76 157.03 143.40 Z"
      fill="black"
      fill-rule="nonzero" /><path d="M 149.88 138.13 L 149.35 139.11 C 148.93 139.88 149.22 140.85 149.99 141.26 C 150.76 141.68 151.73 141.39 152.14 140.62 L 152.67 139.64 C 153.09 138.86 152.80 137.90 152.03 137.49 C 151.26 137.07 150.30 137.36 149.88 138.13 Z M 149.33 139.10 L 148.81 140.06 C 148.39 140.84 148.68 141.81 149.46 142.24 C 150.25 142.66 151.22 142.37 151.64 141.59 L 152.16 140.63 C 152.58 139.85 152.29 138.87 151.51 138.45 C 150.73 138.03 149.75 138.32 149.33 139.10 Z M 148.80 140.05 L 148.31 140.94 C 147.88 141.74 148.17 142.72 148.97 143.15 C 149.76 143.58 150.75 143.29 151.17 142.50 L 151.66 141.60 C 152.09 140.81 151.80 139.82 151.00 139.39 C 150.21 138.96 149.22 139.25 148.80 140.05 Z M 148.29 140.93 L 147.85 141.74 C 147.41 142.54 147.71 143.55 148.51 143.98 C 149.31 144.42 150.31 144.12 150.75 143.32 L 151.19 142.51 C 151.63 141.71 151.33 140.71 150.53 140.27 C 149.73 139.83 148.73 140.13 148.29 140.93 Z M 147.84 141.73 L 147.39 142.54 C 146.95 143.35 147.24 144.36 148.05 144.81 C 148.86 145.25 149.87 144.96 150.32 144.15 L 150.76 143.34 C 151.21 142.53 150.91 141.51 150.10 141.07 C 149.30 140.63 148.28 140.92 147.84 141.73 Z M 147.39 142.52 L 146.84 143.50 C 146.38 144.31 146.67 145.34 147.48 145.79 C 148.29 146.24 149.31 145.96 149.77 145.15 L 150.32 144.17 C 150.77 143.36 150.48 142.33 149.68 141.88 C 148.87 141.43 147.84 141.71 147.39 142.52 Z M 146.85 143.48 L 146.42 144.23 C 145.95 145.03 146.23 146.06 147.03 146.52 C 147.84 146.99 148.87 146.71 149.33 145.91 L 149.76 145.17 C 150.22 144.36 149.95 143.33 149.14 142.87 C 148.34 142.40 147.31 142.68 146.85 143.48 Z M 146.42 144.22 L 145.97 145.00 C 145.50 145.80 145.77 146.83 146.57 147.30 C 147.37 147.77 148.40 147.50 148.87 146.70 L 149.33 145.91 C 149.80 145.11 149.52 144.08 148.72 143.61 C 147.92 143.15 146.89 143.42 146.42 144.22 Z M 145.97 145.00 L 145.46 145.88 C 145.00 146.68 145.27 147.70 146.07 148.17 C 146.87 148.63 147.90 148.36 148.36 147.56 L 148.87 146.69 C 149.33 145.89 149.06 144.86 148.26 144.40 C 147.46 143.93 146.44 144.20 145.97 145.00 Z M 145.47 145.88 L 144.96 146.75 C 144.50 147.55 144.77 148.57 145.57 149.03 C 146.37 149.50 147.39 149.22 147.86 148.43 L 148.36 147.56 C 148.82 146.76 148.55 145.74 147.75 145.27 C 146.95 144.81 145.93 145.08 145.47 145.88 Z M 144.97 146.75 L 144.47 147.61 C 144.01 148.41 144.29 149.42 145.08 149.88 C 145.88 150.35 146.90 150.07 147.36 149.28 L 147.85 148.42 C 148.31 147.62 148.04 146.61 147.24 146.15 C 146.45 145.69 145.43 145.96 144.97 146.75 Z M 144.48 147.61 L 143.96 148.51 C 143.50 149.30 143.77 150.31 144.56 150.78 C 145.35 151.24 146.37 150.97 146.83 150.17 L 147.35 149.28 C 147.81 148.48 147.54 147.47 146.75 147.01 C 145.96 146.55 144.94 146.82 144.48 147.61 Z M 143.97 148.50 L 143.47 149.34 C 143.01 150.13 143.27 151.14 144.06 151.61 C 144.85 152.07 145.86 151.81 146.33 151.02 L 146.82 150.18 C 147.28 149.39 147.02 148.38 146.23 147.91 C 145.45 147.45 144.43 147.71 143.97 148.50 Z M 143.48 149.33 L 142.97 150.20 C 142.50 150.98 142.76 151.99 143.54 152.46 C 144.32 152.93 145.34 152.67 145.80 151.89 L 146.32 151.03 C 146.78 150.24 146.53 149.23 145.75 148.76 C 144.96 148.30 143.95 148.55 143.48 149.33 Z M 142.98 150.19 L 142.45 151.05 C 141.98 151.83 142.22 152.84 143.00 153.32 C 143.78 153.79 144.79 153.54 145.26 152.77 L 145.79 151.90 C 146.26 151.12 146.02 150.11 145.24 149.64 C 144.47 149.17 143.45 149.41 142.98 150.19 Z M 142.46 151.04 L 141.94 151.88 C 141.46 152.64 141.70 153.66 142.47 154.14 C 143.24 154.62 144.25 154.38 144.73 153.61 L 145.25 152.78 C 145.73 152.01 145.49 151.00 144.73 150.52 C 143.96 150.04 142.94 150.27 142.46 151.04 Z M 141.96 151.86 L 141.42 152.70 C 140.93 153.47 141.15 154.48 141.91 154.97 C 142.67 155.45 143.69 155.23 144.17 154.47 L 144.71 153.63 C 145.20 152.87 144.98 151.85 144.22 151.37 C 143.46 150.88 142.45 151.10 141.96 151.86 Z M 141.43 152.69 L 140.87 153.54 C 140.37 154.29 140.58 155.31 141.33 155.80 C 142.09 156.30 143.10 156.09 143.60 155.34 L 144.16 154.49 C 144.66 153.73 144.45 152.72 143.70 152.22 C 142.94 151.73 141.93 151.93 141.43 152.69 Z M 140.88 153.52 L 140.31 154.36 C 139.80 155.11 140.00 156.13 140.75 156.63 C 141.50 157.14 142.51 156.95 143.02 156.20 L 143.59 155.36 C 144.10 154.61 143.90 153.59 143.15 153.08 C 142.40 152.58 141.39 152.77 140.88 153.52 Z M 140.31 154.34 L 139.74 155.17 C 139.22 155.91 139.41 156.94 140.15 157.46 C 140.90 157.98 141.93 157.79 142.45 157.04 L 143.02 156.22 C 143.54 155.47 143.35 154.44 142.60 153.92 C 141.86 153.41 140.83 153.59 140.31 154.34 Z M 139.74 155.15 L 139.17 155.96 C 138.64 156.70 138.82 157.74 139.57 158.26 C 140.32 158.79 141.35 158.61 141.87 157.87 L 142.44 157.06 C 142.97 156.31 142.79 155.28 142.05 154.75 C 141.30 154.23 140.27 154.40 139.74 155.15 Z M 139.18 155.94 L 138.57 156.78 C 138.04 157.53 138.21 158.56 138.95 159.10 C 139.70 159.63 140.73 159.46 141.27 158.72 L 141.87 157.88 C 142.40 157.13 142.23 156.10 141.49 155.56 C 140.75 155.03 139.71 155.20 139.18 155.94 Z M 138.58 156.77 L 138.00 157.57 C 137.46 158.31 137.62 159.34 138.36 159.89 C 139.10 160.43 140.14 160.27 140.68 159.53 L 141.26 158.73 C 141.80 157.99 141.64 156.95 140.90 156.41 C 140.16 155.87 139.12 156.03 138.58 156.77 Z M 138.01 157.55 L 137.42 158.34 C 136.87 159.08 137.02 160.12 137.76 160.66 C 138.49 161.21 139.53 161.06 140.08 160.33 L 140.67 159.54 C 141.22 158.80 141.06 157.76 140.33 157.22 C 139.60 156.67 138.56 156.82 138.01 157.55 Z M 137.43 158.33 L 136.82 159.14 C 136.27 159.86 136.41 160.90 137.14 161.46 C 137.86 162.01 138.90 161.87 139.45 161.14 L 140.07 160.34 C 140.62 159.61 140.48 158.57 139.75 158.02 C 139.03 157.46 137.99 157.60 137.43 158.33 Z M 136.84 159.13 L 136.23 159.90 C 135.67 160.62 135.80 161.66 136.52 162.22 C 137.24 162.78 138.27 162.65 138.83 161.93 L 139.44 161.15 C 140.00 160.43 139.87 159.40 139.15 158.84 C 138.43 158.28 137.40 158.41 136.84 159.13 Z M 136.25 159.89 L 135.62 160.68 C 135.05 161.39 135.17 162.42 135.87 162.99 C 136.58 163.55 137.61 163.44 138.18 162.73 L 138.81 161.94 C 139.38 161.23 139.26 160.20 138.55 159.64 C 137.85 159.07 136.82 159.19 136.25 159.89 Z M 135.63 160.68 L 135.00 161.45 C 134.43 162.15 134.54 163.18 135.24 163.75 C 135.94 164.32 136.96 164.21 137.53 163.51 L 138.16 162.74 C 138.73 162.04 138.63 161.01 137.93 160.44 C 137.23 159.87 136.20 159.98 135.63 160.68 Z M 135.01 161.46 L 134.38 162.23 C 133.81 162.93 133.92 163.95 134.61 164.51 C 135.31 165.08 136.33 164.98 136.90 164.28 L 137.53 163.51 C 138.09 162.81 137.99 161.79 137.29 161.22 C 136.60 160.66 135.58 160.76 135.01 161.46 Z M 134.38 162.24 L 133.74 163.02 C 133.18 163.72 133.29 164.73 133.98 165.30 C 134.67 165.86 135.69 165.75 136.25 165.06 L 136.89 164.27 C 137.46 163.58 137.35 162.56 136.66 162.00 C 135.96 161.44 134.95 161.54 134.38 162.24 Z M 133.76 163.02 L 133.13 163.77 C 132.57 164.46 132.67 165.47 133.35 166.04 C 134.04 166.60 135.05 166.51 135.62 165.82 L 136.24 165.07 C 136.81 164.38 136.71 163.37 136.02 162.80 C 135.34 162.24 134.32 162.33 133.76 163.02 Z M 133.15 163.76 L 132.50 164.53 C 131.93 165.21 132.01 166.22 132.69 166.79 C 133.36 167.36 134.37 167.28 134.94 166.60 L 135.60 165.83 C 136.17 165.16 136.09 164.15 135.41 163.58 C 134.74 163.00 133.73 163.09 133.15 163.76 Z M 132.51 164.54 L 131.88 165.28 C 131.31 165.95 131.40 166.95 132.07 167.52 C 132.74 168.09 133.74 168.01 134.31 167.34 L 134.94 166.60 C 135.50 165.93 135.42 164.92 134.75 164.35 C 134.08 163.79 133.07 163.87 132.51 164.54 Z M 131.88 165.30 L 131.26 166.05 C 130.71 166.72 130.80 167.71 131.47 168.27 C 132.14 168.83 133.14 168.73 133.69 168.06 L 134.31 167.31 C 134.87 166.64 134.77 165.65 134.10 165.09 C 133.43 164.54 132.44 164.63 131.88 165.30 Z M 131.27 166.06 L 130.57 166.92 C 130.02 167.58 130.11 168.57 130.78 169.12 C 131.44 169.66 132.43 169.57 132.98 168.90 L 133.68 168.05 C 134.23 167.38 134.14 166.40 133.47 165.85 C 132.81 165.30 131.82 165.39 131.27 166.06 Z M 130.59 166.91 L 129.84 167.80 C 129.29 168.45 129.37 169.42 130.02 169.97 C 130.67 170.53 131.65 170.45 132.20 169.79 L 132.95 168.91 C 133.50 168.26 133.42 167.28 132.77 166.73 C 132.12 166.18 131.14 166.26 130.59 166.91 Z M 130.48 167.38 L 130.34 167.44 C 129.56 167.73 129.17 168.61 129.46 169.39 C 129.76 170.17 130.63 170.56 131.41 170.26 L 131.56 170.21 C 132.34 169.91 132.73 169.04 132.44 168.26 C 132.14 167.48 131.27 167.08 130.48 167.38 Z M 132.10 169.64 L 132.61 168.86 C 133.04 168.18 132.85 167.28 132.17 166.85 C 131.50 166.41 130.60 166.60 130.16 167.28 L 129.65 168.06 C 129.22 168.73 129.41 169.64 130.09 170.07 C 130.76 170.51 131.66 170.32 132.10 169.64 Z"
      fill="black"
      fill-rule="nonzero" /><path d="M 149.44 155.17 L 150.57 155.07 C 151.40 154.99 152.01 154.25 151.93 153.41 C 151.85 152.58 151.11 151.97 150.28 152.05 L 149.15 152.15 C 148.32 152.23 147.71 152.98 147.79 153.81 C 147.87 154.64 148.61 155.25 149.44 155.17 Z M 149.67 154.96 L 150.30 155.30 C 151.08 155.71 152.04 155.42 152.46 154.64 C 152.87 153.87 152.58 152.90 151.80 152.49 L 151.17 152.15 C 150.40 151.74 149.43 152.03 149.02 152.81 C 148.60 153.58 148.90 154.55 149.67 154.96 Z M 149.43 153.86 L 149.41 154.74 C 149.39 155.64 150.10 156.39 151.00 156.41 C 151.89 156.43 152.64 155.72 152.66 154.82 L 152.68 153.93 C 152.70 153.03 151.99 152.29 151.09 152.27 C 150.19 152.25 149.45 152.96 149.43 153.86 Z M 149.47 154.32 L 149.15 155.41 C 148.90 156.28 149.40 157.18 150.26 157.43 C 151.13 157.68 152.03 157.19 152.28 156.32 L 152.60 155.24 C 152.85 154.37 152.35 153.47 151.49 153.22 C 150.62 152.96 149.72 153.46 149.47 154.32 Z M 149.18 155.32 L 148.87 156.20 C 148.56 157.05 149.01 157.98 149.86 158.29 C 150.71 158.59 151.64 158.14 151.94 157.29 L 152.25 156.42 C 152.56 155.57 152.11 154.63 151.26 154.33 C 150.41 154.03 149.48 154.47 149.18 155.32 Z M 148.88 156.15 L 148.51 157.11 C 148.18 157.95 148.59 158.89 149.43 159.22 C 150.27 159.55 151.22 159.14 151.55 158.30 L 151.92 157.34 C 152.25 156.50 151.84 155.56 151.00 155.23 C 150.16 154.90 149.21 155.31 148.88 156.15 Z M 148.52 157.07 L 148.11 158.06 C 147.76 158.89 148.15 159.85 148.98 160.20 C 149.81 160.55 150.77 160.16 151.12 159.33 L 151.54 158.34 C 151.89 157.50 151.50 156.55 150.66 156.20 C 149.83 155.85 148.87 156.24 148.52 157.07 Z M 148.12 158.04 L 147.70 158.97 C 147.34 159.80 147.71 160.77 148.54 161.13 C 149.37 161.50 150.33 161.12 150.70 160.29 L 151.11 159.35 C 151.47 158.53 151.10 157.56 150.27 157.20 C 149.45 156.83 148.48 157.21 148.12 158.04 Z M 147.71 158.96 L 147.28 159.89 C 146.91 160.72 147.28 161.69 148.10 162.06 C 148.92 162.43 149.89 162.07 150.27 161.24 L 150.69 160.31 C 151.06 159.49 150.70 158.52 149.87 158.14 C 149.05 157.77 148.08 158.14 147.71 158.96 Z M 147.29 159.88 L 146.88 160.76 C 146.51 161.58 146.87 162.56 147.69 162.94 C 148.51 163.31 149.48 162.95 149.86 162.13 L 150.26 161.25 C 150.64 160.43 150.28 159.46 149.46 159.08 C 148.64 158.70 147.67 159.06 147.29 159.88 Z M 146.89 160.76 L 146.42 161.76 C 146.04 162.58 146.40 163.55 147.22 163.93 C 148.03 164.31 149.01 163.96 149.39 163.14 L 149.85 162.14 C 150.23 161.32 149.88 160.35 149.06 159.97 C 148.24 159.59 147.27 159.94 146.89 160.76 Z M 146.44 161.76 L 146.02 162.64 C 145.64 163.45 145.98 164.42 146.79 164.80 C 147.61 165.19 148.57 164.84 148.96 164.03 L 149.37 163.15 C 149.76 162.33 149.41 161.37 148.60 160.98 C 147.79 160.60 146.82 160.95 146.44 161.76 Z M 146.03 162.63 L 145.63 163.46 C 145.24 164.26 145.58 165.23 146.38 165.62 C 147.18 166.01 148.15 165.67 148.54 164.87 L 148.94 164.04 C 149.33 163.24 149.00 162.27 148.19 161.88 C 147.39 161.49 146.42 161.83 146.03 162.63 Z M 145.65 163.43 L 145.20 164.32 C 144.80 165.12 145.11 166.09 145.91 166.49 C 146.70 166.89 147.67 166.57 148.07 165.78 L 148.52 164.89 C 148.92 164.10 148.61 163.13 147.81 162.73 C 147.02 162.32 146.05 162.64 145.65 163.43 Z M 145.21 164.32 L 144.70 165.33 C 144.29 166.12 144.60 167.08 145.39 167.48 C 146.18 167.88 147.14 167.57 147.54 166.79 L 148.06 165.78 C 148.46 164.99 148.15 164.03 147.36 163.63 C 146.58 163.23 145.61 163.54 145.21 164.32 Z M 144.55 165.89 L 144.49 166.51 C 144.40 167.37 145.03 168.15 145.89 168.24 C 146.76 168.33 147.53 167.70 147.62 166.83 L 147.69 166.22 C 147.78 165.36 147.15 164.58 146.28 164.49 C 145.42 164.40 144.64 165.03 144.55 165.89 Z M 146.76 168.07 L 147.55 167.67 C 148.32 167.28 148.63 166.34 148.24 165.57 C 147.86 164.80 146.92 164.49 146.15 164.88 L 145.36 165.27 C 144.59 165.66 144.27 166.60 144.66 167.37 C 145.05 168.14 145.98 168.45 146.76 168.07 Z M 147.75 167.54 L 148.73 166.84 C 149.43 166.34 149.60 165.37 149.10 164.67 C 148.60 163.97 147.62 163.81 146.92 164.31 L 145.94 165.01 C 145.24 165.51 145.08 166.48 145.58 167.18 C 146.08 167.88 147.05 168.04 147.75 167.54 Z M 148.78 166.80 L 149.59 166.17 C 150.27 165.64 150.39 164.67 149.87 163.99 C 149.34 163.32 148.37 163.19 147.69 163.72 L 146.88 164.35 C 146.20 164.87 146.08 165.85 146.60 166.52 C 147.13 167.20 148.10 167.32 148.78 166.80 Z M 149.60 166.14 L 150.35 165.55 C 151.02 165.02 151.12 164.05 150.60 163.39 C 150.07 162.72 149.10 162.61 148.44 163.14 L 147.69 163.74 C 147.02 164.27 146.91 165.23 147.44 165.90 C 147.97 166.56 148.94 166.67 149.60 166.14 Z M 150.35 165.54 L 151.11 164.93 C 151.77 164.41 151.88 163.45 151.35 162.79 C 150.83 162.13 149.86 162.02 149.20 162.54 L 148.44 163.15 C 147.78 163.67 147.67 164.63 148.20 165.30 C 148.72 165.96 149.69 166.07 150.35 165.54 Z M 151.11 164.93 L 151.89 164.30 C 152.54 163.78 152.65 162.82 152.12 162.16 C 151.59 161.50 150.63 161.40 149.97 161.93 L 149.20 162.55 C 148.54 163.08 148.44 164.04 148.97 164.69 C 149.49 165.35 150.45 165.46 151.11 164.93 Z M 151.89 164.30 L 152.64 163.70 C 153.30 163.17 153.40 162.21 152.87 161.55 C 152.34 160.89 151.38 160.79 150.72 161.32 L 149.97 161.93 C 149.32 162.46 149.21 163.42 149.74 164.07 C 150.27 164.73 151.23 164.83 151.89 164.30 Z M 152.63 163.71 L 153.45 163.07 C 154.11 162.54 154.23 161.58 153.71 160.92 C 153.18 160.25 152.22 160.14 151.56 160.66 L 150.74 161.31 C 150.07 161.83 149.96 162.79 150.48 163.45 C 151.00 164.12 151.96 164.23 152.63 163.71 Z M 153.42 163.09 L 154.24 162.48 C 154.92 161.98 155.06 161.02 154.56 160.34 C 154.05 159.66 153.09 159.52 152.41 160.02 L 151.59 160.63 C 150.91 161.14 150.77 162.10 151.27 162.78 C 151.78 163.46 152.74 163.60 153.42 163.09 Z M 154.20 162.52 L 155.02 161.95 C 155.72 161.47 155.89 160.51 155.41 159.81 C 154.92 159.11 153.97 158.94 153.27 159.42 L 152.45 159.99 C 151.75 160.47 151.58 161.43 152.06 162.13 C 152.55 162.83 153.50 163.00 154.20 162.52 Z M 154.99 161.98 L 155.82 161.43 C 156.54 160.97 156.74 160.01 156.28 159.30 C 155.81 158.58 154.85 158.38 154.14 158.85 L 153.30 159.39 C 152.59 159.86 152.38 160.81 152.85 161.53 C 153.32 162.24 154.27 162.45 154.99 161.98 Z M 155.79 161.46 L 156.68 160.92 C 157.41 160.47 157.64 159.52 157.19 158.79 C 156.75 158.06 155.79 157.83 155.06 158.27 L 154.17 158.82 C 153.44 159.26 153.21 160.22 153.66 160.95 C 154.11 161.68 155.06 161.91 155.79 161.46 Z M 156.60 160.97 L 157.47 160.50 C 158.23 160.09 158.52 159.15 158.11 158.40 C 157.70 157.64 156.76 157.36 156.01 157.76 L 155.14 158.23 C 154.38 158.63 154.10 159.57 154.50 160.33 C 154.91 161.09 155.85 161.37 156.60 160.97 Z M 157.29 160.60 L 158.29 160.23 C 159.10 159.92 159.51 159.02 159.21 158.20 C 158.90 157.39 158.00 156.98 157.18 157.29 L 156.19 157.66 C 155.38 157.97 154.97 158.87 155.27 159.68 C 155.58 160.49 156.48 160.90 157.29 160.60 Z M 157.73 160.36 L 158.64 160.36 C 159.53 160.36 160.25 159.65 160.25 158.76 C 160.25 157.87 159.53 157.15 158.64 157.15 L 157.74 157.15 C 156.85 157.15 156.13 157.87 156.13 158.75 C 156.13 159.64 156.85 160.36 157.73 160.36 Z M 157.58 160.01 L 158.27 160.59 C 158.96 161.17 159.99 161.09 160.58 160.40 C 161.16 159.71 161.08 158.67 160.39 158.09 L 159.70 157.51 C 159.01 156.92 157.98 157.01 157.39 157.70 C 156.81 158.39 156.89 159.42 157.58 160.01 Z M 157.90 160.16 L 158.42 161.07 C 158.87 161.86 159.88 162.13 160.67 161.68 C 161.46 161.23 161.73 160.22 161.28 159.43 L 160.76 158.52 C 160.31 157.73 159.30 157.46 158.51 157.91 C 157.72 158.36 157.44 159.37 157.90 160.16 Z M 158.37 160.99 L 158.81 161.88 C 159.22 162.70 160.21 163.03 161.03 162.63 C 161.85 162.22 162.18 161.23 161.78 160.41 L 161.33 159.51 C 160.92 158.69 159.93 158.36 159.11 158.77 C 158.29 159.18 157.96 160.17 158.37 160.99 Z M 158.81 161.87 L 159.26 162.79 C 159.66 163.61 160.65 163.94 161.47 163.54 C 162.29 163.14 162.63 162.15 162.23 161.33 L 161.78 160.42 C 161.38 159.60 160.39 159.26 159.57 159.66 C 158.75 160.06 158.41 161.05 158.81 161.87 Z M 159.28 162.83 L 159.75 163.71 C 160.17 164.52 161.17 164.83 161.98 164.41 C 162.79 163.98 163.10 162.98 162.67 162.17 L 162.20 161.29 C 161.78 160.48 160.78 160.17 159.97 160.59 C 159.17 161.02 158.85 162.02 159.28 162.83 Z M 159.81 163.81 L 160.34 164.67 C 160.82 165.44 161.84 165.68 162.61 165.19 C 163.38 164.71 163.62 163.70 163.14 162.92 L 162.61 162.07 C 162.13 161.30 161.11 161.06 160.34 161.54 C 159.56 162.03 159.33 163.04 159.81 163.81 Z M 160.45 164.81 L 161.06 165.59 C 161.62 166.31 162.65 166.43 163.36 165.87 C 164.08 165.32 164.20 164.28 163.65 163.57 L 163.03 162.78 C 162.47 162.07 161.44 161.94 160.73 162.50 C 160.01 163.06 159.89 164.09 160.45 164.81 Z M 161.21 165.74 L 161.92 166.44 C 162.56 167.07 163.59 167.07 164.22 166.43 C 164.86 165.78 164.85 164.75 164.21 164.12 L 163.50 163.42 C 162.86 162.79 161.82 162.80 161.19 163.44 C 160.56 164.08 160.57 165.11 161.21 165.74 Z M 162.04 166.53 L 162.81 167.16 C 163.50 167.73 164.52 167.62 165.08 166.93 C 165.65 166.24 165.55 165.22 164.85 164.66 L 164.09 164.03 C 163.39 163.46 162.38 163.57 161.81 164.26 C 161.25 164.95 161.35 165.97 162.04 166.53 Z M 162.84 167.17 L 162.88 167.21 C 163.58 167.76 164.59 167.64 165.14 166.94 C 165.69 166.24 165.57 165.23 164.87 164.68 L 164.83 164.65 C 164.13 164.10 163.12 164.22 162.57 164.91 C 162.02 165.61 162.14 166.62 162.84 167.17 Z"
      fill="black"
      fill-rule="nonzero" /></svg>