<svg xmlns="http://www.w3.org/2000/svg" width="300" height="300" viewBox="0 0 300 300">
<path d="M 131.04 131.63 L 132.03 131.77 C 132.83 131.88 133.58 131.32 133.69 130.51 C 133.80 129.70 133.24 128.96 132.44 128.85 L 131.45 128.71 C 130.64 128.59 129.90 129.16 129.78 129.96 C 129.67 130.77 130.23 131.52 131.04 131.63 Z M 132.09 131.79 L 133.08 131.89 C 133.90 131.97 134.63 131.37 134.71 130.54 C 134.79 129.72 134.19 128.99 133.37 128.92 L 132.38 128.82 C 131.55 128.74 130.83 129.34 130.75 130.16 C 130.67 130.98 131.27 131.71 132.09 131.79 Z M 133.18 131.90 L 134.16 131.93 C 134.98 131.96 135.67 131.31 135.70 130.48 C 135.73 129.66 135.08 128.97 134.26 128.94 L 133.28 128.91 C 132.45 128.88 131.76 129.53 131.73 130.35 C 131.70 131.18 132.35 131.87 133.18 131.90 Z M 134.20 131.92 L 135.22 131.92 C 136.04 131.92 136.70 131.26 136.71 130.44 C 136.71 129.62 136.05 128.96 135.23 128.95 L 134.21 128.95 C 133.39 128.95 132.73 129.61 132.72 130.43 C 132.72 131.25 133.38 131.92 134.20 131.92 Z M 135.22 131.91 L 136.21 131.91 C 137.02 131.91 137.68 131.25 137.68 130.44 C 137.68 129.62 137.02 128.97 136.21 128.97 L 135.22 128.97 C 134.41 128.97 133.75 129.62 133.75 130.44 C 133.75 131.25 134.41 131.91 135.22 131.91 Z M 136.21 131.90 L 137.23 131.90 C 138.04 131.90 138.69 131.24 138.69 130.44 C 138.69 129.63 138.04 128.98 137.23 128.98 L 136.21 128.98 C 135.40 128.98 134.75 129.63 134.75 130.44 C 134.75 131.24 135.40 131.90 136.21 131.90 Z M 137.23 131.89 L 138.26 131.89 C 139.06 131.88 139.70 131.23 139.70 130.43 C 139.70 129.63 139.05 128.99 138.25 128.99 L 137.23 128.99 C 136.43 128.99 135.78 129.64 135.78 130.44 C 135.78 131.24 136.43 131.89 137.23 131.89 Z M 138.27 131.88 L 139.25 131.87 C 140.04 131.86 140.68 131.21 140.67 130.41 C 140.67 129.62 140.02 128.98 139.22 128.99 L 138.24 129.00 C 137.45 129.00 136.81 129.65 136.81 130.45 C 136.82 131.24 137.47 131.88 138.27 131.88 Z M 139.27 131.86 L 140.29 131.83 C 141.08 131.81 141.71 131.16 141.69 130.36 C 141.67 129.57 141.01 128.95 140.22 128.97 L 139.20 129.00 C 138.41 129.02 137.78 129.67 137.80 130.46 C 137.82 131.25 138.48 131.88 139.27 131.86 Z M 140.31 131.83 L 141.25 131.79 C 142.03 131.76 142.65 131.10 142.62 130.31 C 142.59 129.52 141.92 128.91 141.14 128.94 L 140.20 128.98 C 139.42 129.01 138.80 129.67 138.83 130.46 C 138.86 131.24 139.52 131.86 140.31 131.83 Z"
      fill="black"
      fill-rule="nonzero" /><path d="M 126.55 139.65 L 127.38 140.27 C 128.02 140.75 128.93 140.61 129.41 139.97 C 129.89 139.32 129.75 138.41 129.11 137.93 L 128.28 137.32 C 127.64 136.84 126.73 136.98 126.25 137.62 C 125.77 138.26 125.90 139.17 126.55 139.65 Z M 127.68 140.49 L 128.51 140.83 C 129.28 141.14 130.15 140.77 130.46 140.00 C 130.78 139.24 130.41 138.37 129.64 138.05 L 128.81 137.71 C 128.04 137.40 127.17 137.77 126.86 138.54 C 126.55 139.30 126.91 140.17 127.68 140.49 Z M 129.12 140.95 L 130.04 140.93 C 130.87 140.90 131.53 140.21 131.51 139.37 C 131.48 138.53 130.79 137.88 129.95 137.90 L 129.03 137.93 C 128.20 137.95 127.54 138.65 127.56 139.48 C 127.59 140.32 128.29 140.98 129.12 140.95 Z M 130.32 140.89 L 131.38 140.66 C 132.19 140.48 132.71 139.67 132.53 138.85 C 132.34 138.03 131.53 137.52 130.72 137.70 L 129.67 137.94 C 128.85 138.12 128.33 138.93 128.52 139.74 C 128.70 140.56 129.51 141.07 130.32 140.89 Z M 131.44 140.64 L 132.37 140.39 C 133.18 140.17 133.66 139.34 133.44 138.53 C 133.22 137.72 132.39 137.25 131.58 137.46 L 130.65 137.72 C 129.84 137.94 129.37 138.77 129.58 139.58 C 129.80 140.38 130.64 140.86 131.44 140.64 Z M 132.40 140.38 L 133.41 140.09 C 134.21 139.85 134.67 139.01 134.44 138.21 C 134.20 137.41 133.36 136.95 132.56 137.18 L 131.55 137.47 C 130.75 137.71 130.29 138.55 130.52 139.35 C 130.76 140.15 131.60 140.62 132.40 140.38 Z M 133.43 140.08 L 134.44 139.77 C 135.24 139.53 135.69 138.68 135.45 137.88 C 135.20 137.08 134.35 136.63 133.56 136.88 L 132.54 137.19 C 131.74 137.43 131.29 138.28 131.54 139.08 C 131.78 139.88 132.63 140.33 133.43 140.08 Z M 134.45 139.76 L 135.45 139.45 C 136.25 139.20 136.69 138.35 136.44 137.55 C 136.18 136.76 135.34 136.32 134.54 136.57 L 133.54 136.89 C 132.75 137.14 132.31 137.98 132.56 138.78 C 132.81 139.57 133.66 140.01 134.45 139.76 Z M 135.46 139.44 L 136.40 139.13 C 137.19 138.88 137.62 138.03 137.36 137.24 C 137.11 136.45 136.26 136.02 135.47 136.28 L 134.54 136.58 C 133.75 136.83 133.31 137.68 133.57 138.47 C 133.82 139.26 134.67 139.69 135.46 139.44 Z M 136.39 139.13 L 137.30 138.83 C 138.08 138.58 138.51 137.74 138.26 136.96 C 138.01 136.17 137.17 135.74 136.38 135.99 L 135.48 136.28 C 134.69 136.54 134.26 137.38 134.51 138.16 C 134.77 138.95 135.61 139.38 136.39 139.13 Z M 137.28 138.83 L 138.22 138.54 C 139.01 138.29 139.44 137.46 139.20 136.67 C 138.95 135.89 138.12 135.46 137.33 135.70 L 136.40 136.00 C 135.61 136.24 135.18 137.08 135.42 137.86 C 135.67 138.64 136.50 139.08 137.28 138.83 Z M 138.20 138.54 L 139.16 138.25 C 139.94 138.01 140.38 137.19 140.15 136.41 C 139.91 135.62 139.09 135.18 138.30 135.42 L 137.35 135.70 C 136.57 135.94 136.13 136.76 136.36 137.55 C 136.60 138.33 137.42 138.77 138.20 138.54 Z M 139.13 138.25 L 140.13 137.97 C 140.91 137.74 141.36 136.93 141.14 136.14 C 140.92 135.36 140.10 134.91 139.32 135.13 L 138.32 135.42 C 137.54 135.64 137.09 136.46 137.31 137.24 C 137.54 138.02 138.35 138.47 139.13 138.25 Z M 140.11 137.96 L 141.12 137.69 C 141.91 137.48 142.37 136.67 142.16 135.89 C 141.94 135.11 141.14 134.65 140.36 134.86 L 139.34 135.13 C 138.56 135.35 138.10 136.15 138.31 136.93 C 138.52 137.71 139.33 138.18 140.11 137.96 Z M 141.10 137.68 L 142.08 137.43 C 142.86 137.23 143.33 136.44 143.13 135.66 C 142.93 134.88 142.13 134.41 141.35 134.61 L 140.38 134.86 C 139.60 135.06 139.13 135.86 139.33 136.64 C 139.53 137.42 140.32 137.88 141.10 137.68 Z M 142.05 137.43 L 143.03 137.20 C 143.81 137.01 144.29 136.23 144.11 135.45 C 143.92 134.68 143.14 134.19 142.36 134.38 L 141.38 134.61 C 140.60 134.80 140.12 135.58 140.31 136.36 C 140.49 137.13 141.27 137.62 142.05 137.43 Z M 142.98 137.20 L 143.96 137.00 C 144.74 136.84 145.24 136.08 145.08 135.31 C 144.93 134.53 144.17 134.02 143.39 134.18 L 142.41 134.38 C 141.63 134.54 141.13 135.30 141.29 136.07 C 141.45 136.85 142.21 137.36 142.98 137.20 Z M 143.93 137.00 L 144.35 136.92 C 145.13 136.78 145.64 136.04 145.50 135.26 C 145.36 134.48 144.62 133.97 143.84 134.11 L 143.42 134.18 C 142.64 134.32 142.13 135.07 142.27 135.85 C 142.41 136.62 143.15 137.14 143.93 137.00 Z"
      fill="black"
      fill-rule="nonzero" /><path d="M 130.60 146.85 L 131.51 146.59 C 132.29 146.36 132.75 145.54 132.53 144.76 C 132.30 143.97 131.48 143.51 130.70 143.73 L 129.79 143.99 C 129.00 144.21 128.54 145.03 128.77 145.82 C 128.99 146.61 129.81 147.07 130.60 146.85 Z M 131.50 146.61 L 132.51 146.34 C 133.31 146.12 133.78 145.29 133.56 144.49 C 133.34 143.69 132.51 143.21 131.71 143.43 L 130.70 143.71 C 129.90 143.93 129.43 144.76 129.65 145.56 C 129.87 146.36 130.70 146.83 131.50 146.61 Z M 132.50 146.35 L 133.46 146.10 C 134.27 145.88 134.75 145.05 134.53 144.24 C 134.32 143.43 133.49 142.95 132.68 143.17 L 131.72 143.42 C 130.91 143.63 130.43 144.46 130.65 145.27 C 130.86 146.08 131.69 146.56 132.50 146.35 Z M 133.46 146.09 L 134.45 145.83 C 135.26 145.61 135.74 144.78 135.52 143.97 C 135.30 143.16 134.47 142.68 133.66 142.90 L 132.67 143.17 C 131.87 143.39 131.39 144.22 131.61 145.03 C 131.82 145.83 132.66 146.31 133.46 146.09 Z M 134.47 145.82 L 135.42 145.55 C 136.23 145.31 136.69 144.48 136.46 143.67 C 136.23 142.87 135.39 142.40 134.58 142.64 L 133.64 142.91 C 132.83 143.14 132.37 143.98 132.60 144.78 C 132.83 145.59 133.67 146.05 134.47 145.82 Z M 135.45 145.53 L 136.39 145.25 C 137.18 145.00 137.63 144.16 137.39 143.36 C 137.15 142.56 136.30 142.11 135.50 142.36 L 134.56 142.65 C 133.76 142.89 133.32 143.73 133.56 144.53 C 133.80 145.33 134.65 145.78 135.45 145.53 Z M 136.39 145.24 L 137.37 144.93 C 138.16 144.69 138.60 143.84 138.36 143.05 C 138.11 142.26 137.27 141.82 136.47 142.06 L 135.50 142.37 C 134.71 142.61 134.26 143.46 134.51 144.25 C 134.76 145.04 135.60 145.49 136.39 145.24 Z M 137.36 144.93 L 138.35 144.62 C 139.14 144.38 139.58 143.54 139.34 142.75 C 139.09 141.96 138.25 141.52 137.46 141.76 L 136.48 142.07 C 135.69 142.31 135.25 143.15 135.49 143.94 C 135.74 144.73 136.58 145.17 137.36 144.93 Z M 138.35 144.61 L 139.27 144.33 C 140.06 144.09 140.50 143.25 140.26 142.47 C 140.02 141.68 139.18 141.24 138.40 141.49 L 137.47 141.77 C 136.68 142.01 136.24 142.85 136.49 143.63 C 136.73 144.42 137.56 144.86 138.35 144.61 Z M 139.26 144.32 L 140.26 144.02 C 141.04 143.79 141.49 142.97 141.25 142.19 C 141.02 141.41 140.20 140.96 139.42 141.20 L 138.42 141.49 C 137.64 141.73 137.19 142.55 137.42 143.33 C 137.66 144.11 138.48 144.55 139.26 144.32 Z M 140.21 144.01 L 141.12 143.78 C 141.90 143.57 142.36 142.78 142.16 142.00 C 141.96 141.23 141.17 140.76 140.39 140.96 L 139.48 141.20 C 138.70 141.40 138.23 142.20 138.43 142.97 C 138.64 143.75 139.43 144.22 140.21 144.01 Z M 141.06 143.78 L 142.02 143.57 C 142.79 143.40 143.29 142.64 143.12 141.86 C 142.95 141.08 142.18 140.59 141.41 140.76 L 140.45 140.96 C 139.67 141.13 139.18 141.90 139.35 142.67 C 139.52 143.45 140.28 143.95 141.06 143.78 Z M 141.99 143.57 L 142.92 143.38 C 143.70 143.23 144.20 142.48 144.05 141.70 C 143.89 140.93 143.14 140.42 142.37 140.57 L 141.43 140.76 C 140.66 140.91 140.15 141.66 140.31 142.44 C 140.46 143.22 141.21 143.72 141.99 143.57 Z"
      fill="black"
      fill-rule="nonzero" /><path d="M 132.42 153.30 L 133.27 153.07 C 134.06 152.85 134.52 152.04 134.30 151.26 C 134.08 150.47 133.27 150.01 132.49 150.23 L 131.64 150.46 C 130.86 150.68 130.40 151.49 130.61 152.27 C 130.83 153.06 131.64 153.52 132.42 153.30 Z M 133.36 153.06 L 134.41 152.70 C 135.18 152.44 135.60 151.60 135.34 150.82 C 135.08 150.04 134.23 149.62 133.45 149.88 L 132.41 150.24 C 131.63 150.50 131.21 151.35 131.47 152.12 C 131.74 152.90 132.58 153.32 133.36 153.06 Z M 134.47 152.69 L 135.39 152.34 C 136.16 152.04 136.54 151.17 136.24 150.40 C 135.94 149.63 135.07 149.24 134.30 149.54 L 133.39 149.90 C 132.62 150.20 132.23 151.06 132.53 151.83 C 132.83 152.61 133.70 152.99 134.47 152.69 Z M 135.41 152.33 L 136.37 151.94 C 137.14 151.63 137.51 150.75 137.20 149.99 C 136.89 149.22 136.02 148.85 135.25 149.16 L 134.28 149.55 C 133.52 149.86 133.14 150.73 133.45 151.50 C 133.77 152.27 134.64 152.64 135.41 152.33 Z M 136.38 151.93 L 137.35 151.54 C 138.11 151.23 138.48 150.36 138.17 149.59 C 137.86 148.82 136.99 148.45 136.22 148.77 L 135.25 149.16 C 134.48 149.47 134.11 150.35 134.43 151.11 C 134.74 151.88 135.61 152.25 136.38 151.93 Z M 137.34 151.54 L 138.30 151.15 C 139.06 150.85 139.44 149.98 139.13 149.21 C 138.83 148.45 137.96 148.08 137.19 148.38 L 136.23 148.77 C 135.47 149.07 135.09 149.94 135.40 150.71 C 135.71 151.47 136.57 151.84 137.34 151.54 Z M 138.30 151.14 L 139.13 150.80 C 139.89 150.50 140.26 149.64 139.95 148.88 C 139.65 148.12 138.78 147.75 138.03 148.06 L 137.19 148.40 C 136.44 148.70 136.07 149.56 136.37 150.32 C 136.68 151.08 137.54 151.45 138.30 151.14 Z M 139.13 150.79 L 140.04 150.43 C 140.79 150.13 141.15 149.27 140.85 148.52 C 140.55 147.77 139.69 147.40 138.94 147.70 L 138.03 148.07 C 137.28 148.37 136.91 149.23 137.22 149.98 C 137.52 150.73 138.37 151.10 139.13 150.79 Z M 139.97 150.44 L 140.91 150.11 C 141.67 149.85 142.07 149.02 141.80 148.26 C 141.54 147.50 140.71 147.10 139.95 147.36 L 139.01 147.69 C 138.25 147.96 137.85 148.79 138.11 149.55 C 138.38 150.31 139.21 150.71 139.97 150.44 Z M 140.84 150.12 L 141.80 149.84 C 142.57 149.61 143.00 148.80 142.77 148.04 C 142.54 147.27 141.74 146.84 140.97 147.07 L 140.01 147.35 C 139.25 147.58 138.82 148.39 139.04 149.15 C 139.27 149.92 140.08 150.35 140.84 150.12 Z M 141.78 149.83 L 142.45 149.65 C 143.21 149.43 143.65 148.64 143.44 147.87 C 143.22 147.11 142.43 146.66 141.66 146.88 L 141.00 147.07 C 140.23 147.28 139.79 148.08 140.01 148.84 C 140.22 149.61 141.02 150.05 141.78 149.83 Z"
      fill="black"
      fill-rule="nonzero" /><path d="M 132.70 156.78 L 133.09 157.68 C 133.43 158.44 134.31 158.78 135.06 158.45 C 135.82 158.12 136.16 157.24 135.83 156.49 L 135.44 155.59 C 135.11 154.83 134.23 154.49 133.47 154.82 C 132.72 155.15 132.37 156.03 132.70 156.78 Z M 133.10 157.71 L 133.51 158.62 C 133.85 159.37 134.75 159.71 135.50 159.36 C 136.26 159.02 136.59 158.13 136.25 157.37 L 135.83 156.46 C 135.49 155.71 134.60 155.37 133.84 155.72 C 133.09 156.06 132.75 156.95 133.10 157.71 Z M 133.49 158.58 L 133.88 159.50 C 134.20 160.27 135.09 160.63 135.85 160.31 C 136.62 159.99 136.98 159.10 136.66 158.34 L 136.27 157.41 C 135.94 156.64 135.06 156.28 134.29 156.60 C 133.53 156.93 133.17 157.81 133.49 158.58 Z M 133.82 159.34 L 134.11 160.32 C 134.34 161.12 135.17 161.58 135.97 161.35 C 136.77 161.12 137.23 160.28 137.00 159.48 L 136.72 158.50 C 136.48 157.70 135.65 157.24 134.85 157.47 C 134.05 157.70 133.59 158.54 133.82 159.34 Z M 134.07 160.16 L 134.24 161.15 C 134.39 161.97 135.17 162.52 135.99 162.37 C 136.81 162.22 137.36 161.44 137.21 160.62 L 137.04 159.64 C 136.89 158.82 136.11 158.27 135.29 158.42 C 134.47 158.56 133.92 159.34 134.07 160.16 Z M 134.23 161.06 L 134.35 162.06 C 134.44 162.89 135.19 163.48 136.02 163.39 C 136.85 163.29 137.44 162.54 137.34 161.72 L 137.23 160.71 C 137.13 159.88 136.38 159.29 135.55 159.39 C 134.73 159.48 134.13 160.23 134.23 161.06 Z M 134.34 161.98 L 134.40 162.95 C 134.46 163.78 135.17 164.41 136.00 164.36 C 136.83 164.31 137.46 163.59 137.41 162.76 L 137.35 161.80 C 137.30 160.97 136.58 160.34 135.75 160.39 C 134.92 160.44 134.29 161.15 134.34 161.98 Z M 134.40 162.88 L 134.42 163.85 C 134.43 164.68 135.12 165.34 135.95 165.33 C 136.78 165.32 137.44 164.63 137.43 163.80 L 137.41 162.83 C 137.39 162.00 136.71 161.34 135.88 161.36 C 135.05 161.37 134.39 162.05 134.40 162.88 Z M 134.42 163.83 L 134.42 164.86 C 134.42 165.69 135.09 166.36 135.92 166.36 C 136.75 166.36 137.43 165.68 137.43 164.85 L 137.43 163.83 C 137.42 163.00 136.75 162.32 135.92 162.32 C 135.09 162.33 134.42 163.00 134.42 163.83 Z M 134.42 164.83 L 134.41 165.85 C 134.39 166.67 135.05 167.36 135.88 167.37 C 136.71 167.38 137.39 166.72 137.41 165.90 L 137.42 164.88 C 137.44 164.05 136.78 163.37 135.95 163.35 C 135.12 163.34 134.44 164.00 134.42 164.83 Z M 134.41 165.76 L 134.32 166.91 C 134.26 167.73 134.88 168.45 135.70 168.52 C 136.53 168.58 137.25 167.96 137.31 167.14 L 137.40 165.98 C 137.46 165.16 136.85 164.44 136.02 164.38 C 135.20 164.31 134.47 164.93 134.41 165.76 Z M 134.33 166.92 L 134.28 167.70 C 134.22 168.52 134.84 169.24 135.67 169.29 C 136.49 169.35 137.21 168.72 137.26 167.90 L 137.31 167.12 C 137.37 166.30 136.74 165.58 135.92 165.53 C 135.09 165.47 134.38 166.10 134.33 166.92 Z M 137.02 168.59 L 137.45 167.91 C 137.88 167.22 137.67 166.30 136.98 165.87 C 136.29 165.43 135.37 165.64 134.93 166.34 L 134.51 167.01 C 134.08 167.70 134.29 168.62 134.98 169.06 C 135.67 169.49 136.59 169.28 137.02 168.59 Z M 137.44 167.90 L 138.05 166.93 C 138.48 166.24 138.27 165.33 137.58 164.90 C 136.89 164.47 135.98 164.68 135.55 165.37 L 134.95 166.34 C 134.52 167.03 134.72 167.94 135.41 168.37 C 136.10 168.80 137.01 168.59 137.44 167.90 Z M 138.00 166.99 L 138.58 166.15 C 139.04 165.49 138.88 164.58 138.22 164.12 C 137.55 163.65 136.64 163.82 136.18 164.48 L 135.60 165.31 C 135.14 165.98 135.30 166.89 135.96 167.35 C 136.63 167.81 137.54 167.65 138.00 166.99 Z M 138.55 166.19 L 139.17 165.36 C 139.66 164.71 139.53 163.80 138.88 163.31 C 138.24 162.83 137.32 162.96 136.84 163.61 L 136.21 164.44 C 135.73 165.09 135.86 166.00 136.50 166.49 C 137.15 166.97 138.06 166.84 138.55 166.19 Z M 139.14 165.40 L 139.79 164.60 C 140.30 163.98 140.21 163.06 139.58 162.55 C 138.96 162.04 138.04 162.13 137.53 162.76 L 136.88 163.56 C 136.37 164.19 136.46 165.10 137.08 165.61 C 137.71 166.12 138.63 166.03 139.14 165.40 Z M 139.74 164.65 L 140.40 163.92 C 140.94 163.33 140.89 162.41 140.30 161.87 C 139.70 161.33 138.78 161.38 138.24 161.97 L 137.58 162.70 C 137.04 163.30 137.09 164.22 137.69 164.76 C 138.28 165.30 139.20 165.25 139.74 164.65 Z M 140.35 163.97 L 141.04 163.28 C 141.61 162.71 141.61 161.79 141.04 161.22 C 140.47 160.66 139.55 160.66 138.98 161.23 L 138.29 161.92 C 137.73 162.49 137.73 163.41 138.30 163.98 C 138.87 164.54 139.79 164.54 140.35 163.97 Z M 141.00 163.32 L 141.75 162.63 C 142.34 162.08 142.37 161.16 141.83 160.57 C 141.28 159.98 140.37 159.95 139.78 160.49 L 139.03 161.19 C 138.44 161.73 138.40 162.65 138.95 163.24 C 139.49 163.83 140.41 163.86 141.00 163.32 Z M 141.70 162.67 L 142.47 162.02 C 143.09 161.50 143.16 160.59 142.65 159.97 C 142.13 159.36 141.21 159.28 140.60 159.80 L 139.83 160.45 C 139.21 160.96 139.13 161.88 139.65 162.50 C 140.17 163.11 141.09 163.19 141.70 162.67 Z M 142.38 162.10 L 143.29 161.45 C 143.95 160.98 144.10 160.07 143.63 159.41 C 143.16 158.76 142.25 158.61 141.59 159.08 L 140.69 159.72 C 140.03 160.19 139.88 161.10 140.35 161.76 C 140.82 162.42 141.73 162.57 142.38 162.10 Z M 142.96 161.65 L 143.84 161.32 C 144.61 161.03 145.00 160.18 144.71 159.41 C 144.42 158.65 143.57 158.26 142.80 158.55 L 141.92 158.88 C 141.15 159.17 140.77 160.02 141.05 160.78 C 141.34 161.55 142.19 161.94 142.96 161.65 Z M 142.02 160.68 L 142.31 161.18 C 142.72 161.90 143.64 162.15 144.36 161.74 C 145.08 161.33 145.33 160.42 144.92 159.70 L 144.63 159.19 C 144.22 158.47 143.30 158.22 142.58 158.63 C 141.86 159.04 141.61 159.96 142.02 160.68 Z M 142.14 160.12 L 141.90 161.25 C 141.72 162.06 142.24 162.87 143.05 163.04 C 143.87 163.22 144.67 162.70 144.85 161.89 L 145.09 160.76 C 145.26 159.94 144.75 159.14 143.93 158.97 C 143.12 158.79 142.31 159.31 142.14 160.12 Z M 141.98 160.97 L 141.57 161.93 C 141.24 162.70 141.60 163.59 142.37 163.92 C 143.13 164.24 144.02 163.89 144.35 163.12 L 144.76 162.16 C 145.09 161.39 144.73 160.50 143.97 160.18 C 143.20 159.85 142.31 160.20 141.98 160.97 Z M 141.63 161.80 L 141.14 162.70 C 140.74 163.44 141.02 164.36 141.75 164.76 C 142.48 165.16 143.40 164.88 143.80 164.15 L 144.29 163.25 C 144.69 162.51 144.42 161.59 143.68 161.20 C 142.95 160.80 142.03 161.07 141.63 161.80 Z M 141.19 162.62 L 140.66 163.47 C 140.21 164.18 140.43 165.11 141.14 165.55 C 141.85 166.00 142.78 165.78 143.22 165.08 L 143.75 164.23 C 144.20 163.52 143.98 162.59 143.28 162.14 C 142.57 161.70 141.63 161.91 141.19 162.62 Z M 140.71 163.39 L 140.12 164.22 C 139.63 164.90 139.78 165.84 140.46 166.33 C 141.14 166.82 142.09 166.66 142.58 165.98 L 143.17 165.15 C 143.66 164.48 143.50 163.53 142.82 163.04 C 142.15 162.55 141.20 162.71 140.71 163.39 Z M 140.18 164.14 L 139.56 164.88 C 139.03 165.53 139.12 166.48 139.77 167.01 C 140.41 167.55 141.37 167.45 141.90 166.81 L 142.52 166.06 C 143.05 165.42 142.96 164.46 142.31 163.93 C 141.67 163.40 140.71 163.49 140.18 164.14 Z M 139.62 164.82 L 138.94 165.56 C 138.38 166.17 138.42 167.13 139.03 167.69 C 139.64 168.26 140.60 168.22 141.17 167.61 L 141.85 166.87 C 142.41 166.26 142.37 165.30 141.76 164.73 C 141.14 164.17 140.19 164.21 139.62 164.82 Z M 139.04 165.46 L 138.29 166.14 C 137.68 166.71 137.63 167.66 138.19 168.28 C 138.76 168.89 139.71 168.94 140.33 168.38 L 141.07 167.70 C 141.69 167.13 141.73 166.18 141.17 165.56 C 140.61 164.95 139.65 164.90 139.04 165.46 Z M 138.48 166.00 L 137.64 166.56 C 136.95 167.01 136.76 167.95 137.21 168.64 C 137.67 169.33 138.60 169.53 139.30 169.07 L 140.14 168.52 C 140.83 168.06 141.02 167.13 140.57 166.43 C 140.11 165.74 139.18 165.55 138.48 166.00 Z M 137.86 166.45 L 136.95 166.86 C 136.20 167.20 135.87 168.08 136.21 168.83 C 136.54 169.58 137.43 169.92 138.18 169.58 L 139.08 169.17 C 139.84 168.84 140.17 167.95 139.83 167.20 C 139.49 166.45 138.61 166.11 137.86 166.45 Z M 137.04 166.83 L 136.58 167.01 C 135.82 167.30 135.44 168.16 135.73 168.92 C 136.02 169.69 136.88 170.07 137.64 169.78 L 138.10 169.60 C 138.86 169.31 139.24 168.46 138.95 167.69 C 138.66 166.93 137.80 166.54 137.04 166.83 Z"
      fill="black"
      fill-rule="nonzero" /><path d="M 151.00 118.18 L 151.75 118.88 C 152.35 119.44 153.29 119.40 153.84 118.80 C 154.40 118.20 154.36 117.27 153.76 116.71 L 153.01 116.01 C 152.41 115.46 151.47 115.49 150.92 116.09 C 150.36 116.69 150.40 117.62 151.00 118.18 Z M 152.02 119.10 L 152.84 119.57 C 153.56 119.98 154.48 119.73 154.89 119.01 C 155.30 118.29 155.05 117.38 154.33 116.97 L 153.50 116.49 C 152.78 116.08 151.87 116.33 151.46 117.05 C 151.05 117.77 151.30 118.69 152.02 119.10 Z M 153.40 119.75 L 154.37 119.87 C 155.19 119.98 155.94 119.39 156.04 118.57 C 156.14 117.75 155.56 117.01 154.74 116.90 L 153.77 116.78 C 152.95 116.68 152.20 117.26 152.10 118.08 C 152.00 118.90 152.58 119.65 153.40 119.75 Z M 154.65 119.86 L 155.65 119.79 C 156.46 119.74 157.07 119.04 157.02 118.22 C 156.96 117.41 156.26 116.80 155.45 116.85 L 154.46 116.92 C 153.64 116.97 153.03 117.68 153.08 118.49 C 153.14 119.30 153.84 119.91 154.65 119.86 Z M 155.73 119.77 L 156.73 119.64 C 157.53 119.54 158.09 118.81 157.99 118.02 C 157.89 117.22 157.17 116.65 156.37 116.75 L 155.37 116.88 C 154.57 116.98 154.01 117.71 154.10 118.50 C 154.20 119.30 154.93 119.87 155.73 119.77 Z M 156.78 119.62 L 157.77 119.46 C 158.56 119.34 159.10 118.60 158.97 117.81 C 158.84 117.02 158.11 116.49 157.32 116.61 L 156.32 116.77 C 155.54 116.90 155.00 117.64 155.13 118.43 C 155.25 119.21 155.99 119.75 156.78 119.62 Z M 157.80 119.45 L 158.79 119.27 C 159.57 119.13 160.08 118.38 159.94 117.61 C 159.80 116.83 159.06 116.31 158.28 116.45 L 157.29 116.63 C 156.51 116.77 156.00 117.51 156.14 118.29 C 156.28 119.07 157.02 119.59 157.80 119.45 Z M 158.80 119.26 L 159.32 119.17 C 160.10 119.02 160.61 118.27 160.46 117.50 C 160.32 116.72 159.57 116.21 158.80 116.36 L 158.27 116.46 C 157.50 116.60 156.99 117.35 157.13 118.12 C 157.28 118.90 158.02 119.41 158.80 119.26 Z"
      fill="black"
      fill-rule="nonzero" /><path d="M 149.22 127.36 L 150.15 127.11 C 150.94 126.89 151.40 126.08 151.19 125.29 C 150.97 124.51 150.16 124.05 149.37 124.26 L 148.45 124.51 C 147.66 124.73 147.20 125.54 147.41 126.32 C 147.63 127.11 148.44 127.57 149.22 127.36 Z M 150.01 127.17 L 151.00 127.00 C 151.82 126.86 152.37 126.09 152.23 125.27 C 152.10 124.45 151.32 123.89 150.50 124.03 L 149.51 124.20 C 148.69 124.34 148.14 125.11 148.28 125.93 C 148.42 126.75 149.19 127.31 150.01 127.17 Z M 150.87 127.03 L 151.83 126.95 C 152.67 126.89 153.29 126.15 153.22 125.32 C 153.16 124.48 152.43 123.86 151.59 123.93 L 150.63 124.00 C 149.79 124.07 149.17 124.80 149.24 125.64 C 149.30 126.47 150.04 127.10 150.87 127.03 Z M 151.82 126.95 L 152.89 126.88 C 153.72 126.82 154.35 126.10 154.30 125.26 C 154.24 124.42 153.51 123.79 152.68 123.85 L 151.60 123.92 C 150.77 123.98 150.14 124.71 150.20 125.54 C 150.25 126.38 150.98 127.01 151.82 126.95 Z M 152.93 126.88 L 153.95 126.78 C 154.79 126.70 155.40 125.96 155.32 125.12 C 155.24 124.29 154.50 123.68 153.66 123.76 L 152.64 123.85 C 151.80 123.93 151.19 124.68 151.27 125.51 C 151.35 126.34 152.09 126.96 152.93 126.88 Z M 153.98 126.77 L 154.98 126.65 C 155.81 126.56 156.41 125.80 156.31 124.97 C 156.21 124.14 155.46 123.55 154.62 123.64 L 153.63 123.76 C 152.80 123.86 152.20 124.61 152.30 125.44 C 152.40 126.28 153.15 126.87 153.98 126.77 Z M 155.01 126.65 L 156.03 126.51 C 156.86 126.40 157.43 125.63 157.32 124.80 C 157.21 123.97 156.44 123.39 155.61 123.51 L 154.59 123.65 C 153.77 123.76 153.19 124.53 153.30 125.36 C 153.42 126.18 154.18 126.76 155.01 126.65 Z M 156.07 126.50 L 157.02 126.34 C 157.84 126.21 158.40 125.43 158.26 124.60 C 158.13 123.78 157.34 123.22 156.52 123.36 L 155.57 123.52 C 154.75 123.65 154.19 124.43 154.33 125.26 C 154.46 126.08 155.24 126.64 156.07 126.50 Z M 157.07 126.33 L 158.00 126.15 C 158.82 125.98 159.35 125.19 159.19 124.37 C 159.03 123.55 158.23 123.01 157.41 123.18 L 156.47 123.37 C 155.65 123.53 155.12 124.33 155.29 125.15 C 155.45 125.97 156.25 126.50 157.07 126.33 Z M 158.04 126.14 L 159.03 125.92 C 159.84 125.74 160.35 124.93 160.17 124.11 C 159.99 123.30 159.18 122.79 158.37 122.97 L 157.38 123.19 C 156.56 123.37 156.05 124.18 156.23 124.99 C 156.41 125.81 157.22 126.32 158.04 126.14 Z M 159.04 125.91 L 160.02 125.68 C 160.83 125.49 161.33 124.68 161.14 123.87 C 160.95 123.06 160.14 122.55 159.33 122.74 L 158.35 122.97 C 157.54 123.16 157.04 123.97 157.23 124.79 C 157.42 125.60 158.23 126.10 159.04 125.91 Z M 160.04 125.68 L 161.01 125.43 C 161.82 125.23 162.31 124.41 162.11 123.61 C 161.91 122.80 161.09 122.31 160.28 122.51 L 159.31 122.75 C 158.50 122.95 158.01 123.77 158.21 124.58 C 158.41 125.39 159.23 125.88 160.04 125.68 Z M 161.05 125.42 L 162.02 125.15 C 162.83 124.93 163.29 124.10 163.07 123.30 C 162.85 122.50 162.02 122.03 161.22 122.25 L 160.25 122.52 C 159.45 122.74 158.98 123.57 159.20 124.37 C 159.42 125.17 160.25 125.64 161.05 125.42 Z M 162.06 125.14 L 163.01 124.85 C 163.80 124.61 164.25 123.77 164.00 122.97 C 163.76 122.18 162.92 121.73 162.13 121.98 L 161.19 122.27 C 160.39 122.51 159.95 123.35 160.19 124.14 C 160.43 124.93 161.27 125.38 162.06 125.14 Z M 163.04 124.83 L 164.00 124.51 C 164.78 124.25 165.20 123.40 164.94 122.62 C 164.68 121.83 163.83 121.41 163.04 121.67 L 162.09 121.99 C 161.31 122.26 160.89 123.10 161.15 123.89 C 161.41 124.67 162.26 125.10 163.04 124.83 Z M 164.03 124.50 L 164.97 124.15 C 165.74 123.87 166.14 123.01 165.86 122.24 C 165.58 121.46 164.72 121.07 163.94 121.35 L 163.01 121.69 C 162.23 121.97 161.83 122.83 162.12 123.61 C 162.40 124.38 163.26 124.78 164.03 124.50 Z M 165.00 124.14 L 165.93 123.77 C 166.70 123.47 167.08 122.61 166.78 121.85 C 166.48 121.08 165.62 120.70 164.85 121.00 L 163.92 121.36 C 163.15 121.66 162.77 122.53 163.07 123.29 C 163.37 124.06 164.23 124.43 165.00 124.14 Z M 165.93 123.76 L 166.82 123.42 C 167.58 123.12 167.96 122.26 167.66 121.50 C 167.36 120.74 166.51 120.36 165.74 120.66 L 164.85 121.01 C 164.09 121.30 163.72 122.16 164.01 122.92 C 164.31 123.69 165.17 124.06 165.93 123.76 Z M 166.81 123.41 L 167.73 123.06 C 168.49 122.77 168.86 121.92 168.57 121.16 C 168.28 120.40 167.43 120.02 166.67 120.31 L 165.75 120.66 C 164.99 120.95 164.62 121.81 164.91 122.57 C 165.20 123.33 166.05 123.71 166.81 123.41 Z M 167.73 123.05 L 168.69 122.68 C 169.44 122.39 169.82 121.54 169.52 120.78 C 169.23 120.03 168.38 119.65 167.63 119.95 L 166.67 120.32 C 165.91 120.61 165.54 121.46 165.83 122.22 C 166.12 122.97 166.97 123.35 167.73 123.05 Z M 168.71 122.67 L 169.65 122.28 C 170.40 121.98 170.76 121.13 170.46 120.38 C 170.15 119.63 169.30 119.27 168.55 119.58 L 167.61 119.96 C 166.86 120.26 166.50 121.12 166.80 121.86 C 167.11 122.61 167.96 122.97 168.71 122.67 Z M 169.69 122.26 L 170.62 121.85 C 171.35 121.53 171.69 120.67 171.36 119.93 C 171.04 119.20 170.18 118.86 169.44 119.19 L 168.51 119.60 C 167.78 119.92 167.45 120.78 167.77 121.52 C 168.10 122.25 168.96 122.59 169.69 122.26 Z M 170.69 121.81 L 171.62 121.34 C 172.33 120.97 172.62 120.10 172.25 119.39 C 171.89 118.68 171.02 118.39 170.31 118.75 L 169.37 119.23 C 168.66 119.59 168.38 120.46 168.74 121.18 C 169.10 121.89 169.97 122.17 170.69 121.81 Z M 171.67 121.30 L 172.50 120.83 C 173.19 120.44 173.43 119.56 173.04 118.87 C 172.65 118.18 171.77 117.93 171.08 118.32 L 170.25 118.79 C 169.56 119.18 169.32 120.06 169.71 120.75 C 170.10 121.44 170.98 121.69 171.67 121.30 Z M 172.51 120.82 L 172.56 120.79 C 173.25 120.39 173.48 119.51 173.09 118.83 C 172.69 118.14 171.81 117.91 171.13 118.30 L 171.07 118.34 C 170.39 118.73 170.15 119.61 170.55 120.29 C 170.95 120.98 171.82 121.21 172.51 120.82 Z"
      fill="black"
      fill-rule="nonzero" /><path d="M 153.68 131.84 L 154.20 130.94 C 154.62 130.24 154.38 129.33 153.68 128.92 C 152.98 128.50 152.07 128.74 151.66 129.44 L 151.13 130.34 C 150.71 131.04 150.95 131.95 151.65 132.36 C 152.36 132.77 153.26 132.54 153.68 131.84 Z M 152.33 131.55 L 153.00 131.85 C 153.76 132.18 154.63 131.83 154.96 131.08 C 155.29 130.33 154.95 129.45 154.20 129.12 L 153.53 128.83 C 152.77 128.50 151.90 128.84 151.57 129.60 C 151.24 130.35 151.58 131.23 152.33 131.55 Z M 152.32 131.23 L 152.85 132.14 C 153.26 132.85 154.16 133.09 154.87 132.68 C 155.58 132.27 155.82 131.37 155.41 130.66 L 154.88 129.74 C 154.47 129.04 153.57 128.79 152.86 129.20 C 152.15 129.61 151.91 130.52 152.32 131.23 Z M 152.73 131.86 L 153.04 132.79 C 153.29 133.56 154.13 133.98 154.90 133.72 C 155.67 133.47 156.09 132.63 155.83 131.86 L 155.53 130.94 C 155.27 130.17 154.44 129.75 153.67 130.00 C 152.89 130.26 152.48 131.09 152.73 131.86 Z M 153.01 132.67 L 153.26 133.70 C 153.45 134.49 154.24 134.97 155.03 134.78 C 155.81 134.60 156.30 133.80 156.11 133.02 L 155.86 131.98 C 155.67 131.20 154.88 130.71 154.09 130.90 C 153.31 131.09 152.82 131.88 153.01 132.67 Z M 153.26 133.66 L 153.47 134.67 C 153.63 135.46 154.41 135.96 155.20 135.80 C 155.99 135.63 156.49 134.86 156.33 134.07 L 156.11 133.06 C 155.95 132.27 155.18 131.77 154.39 131.93 C 153.60 132.10 153.09 132.87 153.26 133.66 Z M 153.46 134.64 L 153.65 135.62 C 153.81 136.41 154.57 136.93 155.36 136.78 C 156.15 136.63 156.67 135.86 156.52 135.07 L 156.33 134.09 C 156.18 133.30 155.41 132.78 154.62 132.93 C 153.83 133.09 153.31 133.85 153.46 134.64 Z M 153.66 135.61 L 153.88 136.85 C 154.02 137.64 154.78 138.17 155.57 138.02 C 156.36 137.88 156.88 137.13 156.74 136.34 L 156.51 135.09 C 156.37 134.30 155.62 133.78 154.83 133.92 C 154.04 134.06 153.51 134.82 153.66 135.61 Z M 154.61 137.86 L 154.72 137.92 C 155.42 138.31 156.30 138.05 156.68 137.36 C 157.07 136.66 156.82 135.78 156.12 135.40 L 156.01 135.33 C 155.31 134.95 154.44 135.20 154.05 135.89 C 153.66 136.59 153.91 137.47 154.61 137.86 Z M 156.86 136.72 L 156.91 135.52 C 156.94 134.73 156.33 134.06 155.53 134.03 C 154.74 133.99 154.07 134.61 154.03 135.40 L 153.98 136.60 C 153.95 137.39 154.57 138.06 155.36 138.09 C 156.16 138.13 156.83 137.51 156.86 136.72 Z M 156.90 135.62 L 157.01 134.63 C 157.10 133.84 156.53 133.13 155.74 133.04 C 154.95 132.96 154.24 133.52 154.15 134.31 L 154.04 135.30 C 153.95 136.09 154.52 136.81 155.31 136.89 C 156.10 136.98 156.81 136.41 156.90 135.62 Z M 156.98 134.80 L 157.21 133.83 C 157.40 133.06 156.92 132.28 156.14 132.10 C 155.37 131.92 154.59 132.40 154.41 133.17 L 154.18 134.14 C 154.00 134.92 154.48 135.69 155.25 135.88 C 156.03 136.06 156.80 135.58 156.98 134.80 Z M 157.16 134.01 L 157.51 133.07 C 157.79 132.32 157.41 131.49 156.66 131.22 C 155.91 130.94 155.08 131.32 154.81 132.07 L 154.46 133.00 C 154.18 133.75 154.56 134.58 155.31 134.86 C 156.06 135.13 156.89 134.75 157.16 134.01 Z M 157.44 133.23 L 157.90 132.34 C 158.26 131.63 157.98 130.76 157.27 130.40 C 156.56 130.03 155.69 130.32 155.32 131.03 L 154.87 131.91 C 154.51 132.62 154.79 133.49 155.50 133.85 C 156.21 134.22 157.08 133.94 157.44 133.23 Z M 157.82 132.48 L 158.36 131.67 C 158.80 131.00 158.62 130.10 157.95 129.66 C 157.29 129.22 156.39 129.40 155.95 130.07 L 155.40 130.88 C 154.96 131.55 155.14 132.45 155.81 132.89 C 156.47 133.33 157.37 133.15 157.82 132.48 Z M 158.19 131.89 L 158.90 131.17 C 159.46 130.59 159.46 129.67 158.88 129.11 C 158.31 128.55 157.39 128.55 156.83 129.13 L 156.12 129.85 C 155.55 130.42 155.56 131.34 156.13 131.90 C 156.70 132.47 157.62 132.46 158.19 131.89 Z M 158.58 131.42 L 159.53 130.89 C 160.24 130.50 160.49 129.60 160.10 128.90 C 159.70 128.19 158.81 127.94 158.11 128.33 L 157.15 128.87 C 156.44 129.26 156.19 130.15 156.59 130.86 C 156.98 131.56 157.87 131.82 158.58 131.42 Z M 158.88 131.08 L 159.74 131.05 C 160.55 131.01 161.19 130.33 161.15 129.52 C 161.12 128.70 160.43 128.07 159.62 128.10 L 158.76 128.14 C 157.95 128.17 157.31 128.86 157.35 129.67 C 157.38 130.49 158.07 131.12 158.88 131.08 Z M 158.38 130.28 L 158.81 131.07 C 159.20 131.79 160.10 132.06 160.82 131.67 C 161.53 131.28 161.80 130.38 161.41 129.66 L 160.98 128.87 C 160.59 128.15 159.69 127.89 158.98 128.28 C 158.26 128.67 157.99 129.56 158.38 130.28 Z M 158.63 130.46 L 158.70 131.51 C 158.75 132.33 159.45 132.95 160.27 132.90 C 161.09 132.84 161.71 132.14 161.66 131.32 L 161.59 130.27 C 161.54 129.45 160.83 128.83 160.01 128.88 C 159.20 128.94 158.58 129.64 158.63 130.46 Z M 158.70 131.26 L 158.60 132.26 C 158.52 133.07 159.11 133.80 159.93 133.89 C 160.74 133.97 161.47 133.37 161.55 132.56 L 161.66 131.56 C 161.74 130.75 161.14 130.02 160.33 129.94 C 159.51 129.85 158.78 130.45 158.70 131.26 Z M 158.64 132.02 L 158.37 133.00 C 158.16 133.79 158.63 134.61 159.42 134.83 C 160.21 135.04 161.03 134.57 161.24 133.78 L 161.51 132.80 C 161.73 132.00 161.26 131.19 160.47 130.97 C 159.67 130.76 158.86 131.23 158.64 132.02 Z M 158.44 132.82 L 158.05 133.75 C 157.73 134.51 158.09 135.38 158.84 135.70 C 159.60 136.01 160.47 135.66 160.79 134.90 L 161.18 133.97 C 161.50 133.21 161.14 132.34 160.38 132.02 C 159.63 131.71 158.76 132.06 158.44 132.82 Z M 158.12 133.62 L 157.63 134.51 C 157.24 135.23 157.50 136.13 158.22 136.52 C 158.94 136.91 159.84 136.65 160.23 135.93 L 160.72 135.04 C 161.11 134.32 160.84 133.42 160.13 133.03 C 159.41 132.64 158.51 132.90 158.12 133.62 Z M 157.71 134.40 L 157.16 135.23 C 156.71 135.90 156.89 136.82 157.57 137.26 C 158.25 137.71 159.16 137.53 159.61 136.85 L 160.16 136.03 C 160.61 135.36 160.42 134.44 159.75 133.99 C 159.07 133.54 158.16 133.73 157.71 134.40 Z M 157.19 135.19 L 157.00 135.46 C 156.54 136.12 156.69 137.03 157.35 137.50 C 158.01 137.97 158.92 137.81 159.39 137.15 L 159.58 136.89 C 160.04 136.23 159.89 135.32 159.23 134.85 C 158.57 134.38 157.66 134.54 157.19 135.19 Z"
      fill="black"
      fill-rule="nonzero" /><path d="M 163.11 128.98 L 163.48 129.83 C 163.81 130.58 164.69 130.92 165.44 130.59 C 166.18 130.26 166.52 129.39 166.19 128.64 L 165.82 127.79 C 165.49 127.04 164.62 126.70 163.87 127.03 C 163.12 127.36 162.78 128.23 163.11 128.98 Z M 163.44 129.71 L 163.78 130.71 C 164.04 131.48 164.88 131.90 165.65 131.64 C 166.42 131.37 166.84 130.54 166.58 129.76 L 166.24 128.76 C 165.98 127.99 165.14 127.58 164.37 127.84 C 163.59 128.10 163.18 128.94 163.44 129.71 Z M 163.74 130.57 L 164.01 131.73 C 164.19 132.52 164.98 133.01 165.77 132.83 C 166.57 132.65 167.06 131.86 166.88 131.07 L 166.61 129.91 C 166.43 129.11 165.64 128.62 164.85 128.80 C 164.05 128.98 163.56 129.78 163.74 130.57 Z M 164.02 131.76 L 164.25 132.65 C 164.45 133.44 165.25 133.91 166.03 133.71 C 166.82 133.51 167.30 132.71 167.10 131.92 L 166.87 131.03 C 166.67 130.25 165.87 129.77 165.08 129.97 C 164.29 130.17 163.82 130.97 164.02 131.76 Z M 166.38 133.57 L 166.75 133.36 C 167.45 132.97 167.71 132.08 167.32 131.37 C 166.93 130.67 166.04 130.41 165.33 130.80 L 164.96 131.00 C 164.26 131.40 164.00 132.29 164.39 132.99 C 164.78 133.70 165.67 133.96 166.38 133.57 Z M 167.41 132.58 L 167.80 131.51 C 168.07 130.75 167.68 129.92 166.92 129.64 C 166.17 129.37 165.33 129.76 165.06 130.52 L 164.67 131.58 C 164.39 132.34 164.78 133.18 165.54 133.45 C 166.30 133.73 167.13 133.34 167.41 132.58 Z M 167.77 131.58 L 168.17 130.64 C 168.48 129.90 168.13 129.04 167.38 128.73 C 166.64 128.42 165.78 128.77 165.47 129.51 L 165.08 130.45 C 164.77 131.19 165.12 132.05 165.86 132.36 C 166.61 132.67 167.46 132.32 167.77 131.58 Z M 168.12 130.76 L 168.59 129.86 C 168.96 129.14 168.68 128.26 167.96 127.88 C 167.24 127.51 166.36 127.79 165.98 128.51 L 165.52 129.40 C 165.14 130.12 165.42 131.01 166.14 131.38 C 166.86 131.76 167.75 131.48 168.12 130.76 Z M 168.50 130.02 L 169.06 129.20 C 169.52 128.53 169.35 127.61 168.68 127.15 C 168.00 126.69 167.08 126.86 166.62 127.53 L 166.06 128.35 C 165.60 129.03 165.78 129.94 166.45 130.41 C 167.12 130.87 168.04 130.69 168.50 130.02 Z M 168.93 129.38 L 169.60 128.65 C 170.16 128.05 170.12 127.11 169.52 126.55 C 168.92 125.99 167.98 126.03 167.42 126.63 L 166.75 127.36 C 166.20 127.96 166.23 128.90 166.83 129.46 C 167.44 130.01 168.38 129.98 168.93 129.38 Z M 169.35 128.88 L 170.19 128.31 C 170.87 127.84 171.05 126.91 170.58 126.23 C 170.12 125.55 169.19 125.37 168.51 125.84 L 167.67 126.41 C 166.99 126.87 166.81 127.80 167.28 128.48 C 167.74 129.16 168.67 129.34 169.35 128.88 Z M 169.77 128.51 L 170.80 128.21 C 171.59 127.98 172.05 127.14 171.82 126.35 C 171.58 125.56 170.75 125.10 169.96 125.33 L 168.93 125.64 C 168.13 125.87 167.68 126.70 167.91 127.49 C 168.14 128.29 168.98 128.74 169.77 128.51 Z M 170.03 128.23 L 170.87 128.43 C 171.68 128.63 172.49 128.13 172.68 127.33 C 172.88 126.52 172.38 125.71 171.57 125.52 L 170.73 125.31 C 169.92 125.12 169.11 125.61 168.92 126.42 C 168.72 127.23 169.22 128.04 170.03 128.23 Z M 169.85 127.58 L 170.24 128.47 C 170.57 129.23 171.46 129.57 172.22 129.24 C 172.98 128.91 173.32 128.02 172.99 127.26 L 172.60 126.37 C 172.26 125.61 171.38 125.27 170.62 125.60 C 169.86 125.93 169.52 126.82 169.85 127.58 Z M 170.13 127.97 L 170.20 128.96 C 170.26 129.78 170.97 130.40 171.79 130.34 C 172.61 130.28 173.23 129.57 173.17 128.75 L 173.10 127.76 C 173.04 126.94 172.33 126.32 171.51 126.38 C 170.68 126.44 170.07 127.15 170.13 127.97 Z M 170.23 128.66 L 170.10 129.67 C 169.99 130.47 170.55 131.21 171.36 131.31 C 172.16 131.42 172.90 130.86 173.01 130.05 L 173.14 129.05 C 173.25 128.24 172.68 127.51 171.88 127.40 C 171.08 127.29 170.34 127.86 170.23 128.66 Z M 170.17 129.42 L 169.87 130.35 C 169.63 131.11 170.05 131.93 170.81 132.17 C 171.57 132.41 172.39 131.99 172.63 131.23 L 172.93 130.30 C 173.17 129.54 172.75 128.73 171.99 128.48 C 171.23 128.24 170.42 128.66 170.17 129.42 Z M 169.92 130.26 L 169.59 131.10 C 169.30 131.83 169.65 132.67 170.39 132.96 C 171.13 133.25 171.96 132.89 172.25 132.16 L 172.58 131.32 C 172.88 130.59 172.52 129.75 171.78 129.46 C 171.05 129.17 170.21 129.53 169.92 130.26 Z"
      fill="black"
      fill-rule="nonzero" /><path d="M 153.73 146.30 L 154.52 145.81 C 155.23 145.36 155.44 144.43 154.99 143.72 C 154.55 143.01 153.61 142.80 152.91 143.25 L 152.12 143.74 C 151.41 144.19 151.20 145.12 151.65 145.83 C 152.09 146.54 153.03 146.75 153.73 146.30 Z M 154.43 145.89 L 155.34 145.41 C 156.09 145.01 156.38 144.09 155.99 143.34 C 155.59 142.59 154.67 142.30 153.92 142.69 L 153.00 143.17 C 152.25 143.56 151.96 144.49 152.36 145.24 C 152.75 145.99 153.68 146.28 154.43 145.89 Z M 155.20 145.48 L 156.11 145.12 C 156.90 144.80 157.29 143.90 156.97 143.11 C 156.65 142.32 155.75 141.93 154.96 142.25 L 154.05 142.61 C 153.26 142.93 152.88 143.83 153.20 144.62 C 153.51 145.41 154.41 145.80 155.20 145.48 Z M 156.03 145.14 L 156.98 144.82 C 157.79 144.55 158.22 143.67 157.95 142.86 C 157.67 142.06 156.80 141.62 155.99 141.90 L 155.04 142.22 C 154.23 142.50 153.80 143.37 154.07 144.18 C 154.35 144.99 155.23 145.42 156.03 145.14 Z M 156.96 144.82 L 157.96 144.50 C 158.76 144.24 159.21 143.37 158.94 142.56 C 158.68 141.75 157.81 141.31 157.00 141.57 L 156.01 141.90 C 155.20 142.16 154.76 143.03 155.02 143.84 C 155.29 144.64 156.15 145.09 156.96 144.82 Z M 157.97 144.49 L 158.94 144.16 C 159.74 143.89 160.17 143.02 159.90 142.22 C 159.62 141.41 158.75 140.99 157.95 141.26 L 156.99 141.59 C 156.18 141.86 155.76 142.73 156.03 143.53 C 156.30 144.33 157.17 144.76 157.97 144.49 Z M 158.97 144.14 L 159.90 143.80 C 160.69 143.51 161.10 142.64 160.81 141.85 C 160.52 141.06 159.65 140.65 158.86 140.94 L 157.92 141.28 C 157.13 141.57 156.73 142.44 157.01 143.23 C 157.30 144.02 158.18 144.43 158.97 144.14 Z M 159.92 143.78 L 160.85 143.42 C 161.63 143.12 162.01 142.24 161.71 141.46 C 161.41 140.69 160.54 140.30 159.76 140.60 L 158.83 140.96 C 158.06 141.26 157.67 142.14 157.97 142.91 C 158.27 143.69 159.15 144.08 159.92 143.78 Z M 160.87 143.40 L 161.77 143.03 C 162.53 142.72 162.90 141.85 162.59 141.08 C 162.28 140.32 161.41 139.95 160.64 140.26 L 159.74 140.62 C 158.98 140.93 158.61 141.80 158.92 142.57 C 159.23 143.34 160.10 143.71 160.87 143.40 Z M 161.78 143.02 L 162.68 142.64 C 163.44 142.32 163.80 141.45 163.48 140.69 C 163.16 139.94 162.29 139.58 161.54 139.90 L 160.63 140.27 C 159.87 140.59 159.52 141.46 159.84 142.22 C 160.15 142.98 161.02 143.33 161.78 143.02 Z M 162.69 142.62 L 163.63 142.22 C 164.38 141.89 164.72 141.03 164.40 140.28 C 164.08 139.53 163.21 139.19 162.46 139.51 L 161.52 139.91 C 160.78 140.24 160.43 141.10 160.76 141.85 C 161.08 142.60 161.95 142.94 162.69 142.62 Z M 163.64 142.20 L 164.61 141.77 C 165.34 141.44 165.68 140.58 165.35 139.84 C 165.02 139.10 164.16 138.77 163.42 139.10 L 162.45 139.53 C 161.71 139.85 161.38 140.72 161.71 141.46 C 162.04 142.20 162.90 142.53 163.64 142.20 Z M 164.61 141.76 L 165.58 141.32 C 166.31 140.99 166.64 140.13 166.31 139.39 C 165.98 138.66 165.11 138.34 164.38 138.67 L 163.41 139.11 C 162.68 139.44 162.36 140.30 162.69 141.03 C 163.02 141.77 163.88 142.09 164.61 141.76 Z M 165.59 141.31 L 166.50 140.89 C 167.23 140.56 167.55 139.70 167.22 138.97 C 166.88 138.24 166.02 137.92 165.30 138.26 L 164.38 138.68 C 163.65 139.01 163.33 139.87 163.67 140.60 C 164.00 141.32 164.86 141.64 165.59 141.31 Z M 166.50 140.88 L 167.35 140.49 C 168.07 140.16 168.39 139.30 168.05 138.58 C 167.72 137.86 166.86 137.54 166.14 137.88 L 165.30 138.26 C 164.58 138.60 164.26 139.45 164.59 140.18 C 164.93 140.90 165.78 141.21 166.50 140.88 Z M 167.34 140.49 L 168.34 140.03 C 169.06 139.70 169.38 138.84 169.05 138.12 C 168.71 137.41 167.86 137.09 167.14 137.42 L 166.15 137.88 C 165.43 138.21 165.11 139.06 165.44 139.78 C 165.77 140.50 166.63 140.82 167.34 140.49 Z M 168.34 140.02 L 169.01 139.71 C 169.73 139.38 170.04 138.53 169.72 137.82 C 169.39 137.10 168.54 136.79 167.82 137.12 L 167.15 137.43 C 166.43 137.76 166.12 138.60 166.45 139.32 C 166.77 140.04 167.62 140.35 168.34 140.02 Z"
      fill="black"
      fill-rule="nonzero" /><path d="M 154.92 152.07 L 155.76 151.53 C 156.45 151.08 156.64 150.17 156.20 149.49 C 155.76 148.80 154.84 148.61 154.16 149.05 L 153.31 149.60 C 152.63 150.04 152.44 150.96 152.88 151.64 C 153.32 152.32 154.24 152.52 154.92 152.07 Z M 155.72 151.57 L 156.58 151.06 C 157.29 150.64 157.52 149.73 157.10 149.02 C 156.68 148.31 155.76 148.08 155.06 148.50 L 154.20 149.01 C 153.49 149.43 153.26 150.34 153.68 151.05 C 154.10 151.76 155.02 151.99 155.72 151.57 Z M 156.49 151.12 L 157.32 150.71 C 158.06 150.34 158.37 149.44 158.00 148.70 C 157.63 147.95 156.73 147.65 155.99 148.02 L 155.15 148.44 C 154.41 148.81 154.11 149.71 154.47 150.45 C 154.84 151.19 155.74 151.49 156.49 151.12 Z M 157.24 150.74 L 158.14 150.36 C 158.90 150.04 159.26 149.16 158.94 148.40 C 158.61 147.64 157.73 147.28 156.97 147.60 L 156.07 147.98 C 155.31 148.31 154.95 149.19 155.27 149.95 C 155.60 150.71 156.48 151.07 157.24 150.74 Z M 158.11 150.37 L 159.10 149.97 C 159.86 149.66 160.23 148.79 159.93 148.03 C 159.62 147.26 158.75 146.89 157.98 147.20 L 157.00 147.60 C 156.23 147.91 155.86 148.78 156.17 149.54 C 156.48 150.31 157.35 150.68 158.11 150.37 Z M 159.10 149.96 L 160.02 149.59 C 160.78 149.28 161.15 148.41 160.84 147.65 C 160.53 146.89 159.66 146.52 158.90 146.83 L 157.98 147.21 C 157.22 147.52 156.85 148.39 157.16 149.15 C 157.47 149.91 158.34 150.27 159.10 149.96 Z M 160.03 149.58 L 160.98 149.18 C 161.74 148.87 162.10 148.00 161.78 147.24 C 161.46 146.48 160.60 146.13 159.84 146.44 L 158.89 146.84 C 158.13 147.16 157.77 148.03 158.09 148.78 C 158.41 149.54 159.28 149.89 160.03 149.58 Z M 161.00 149.17 L 161.93 148.77 C 162.68 148.45 163.02 147.58 162.70 146.83 C 162.38 146.08 161.51 145.73 160.76 146.05 L 159.83 146.45 C 159.08 146.78 158.73 147.65 159.05 148.40 C 159.38 149.15 160.25 149.49 161.00 149.17 Z M 161.94 148.75 L 162.95 148.30 C 163.69 147.97 164.02 147.10 163.68 146.36 C 163.35 145.62 162.48 145.29 161.74 145.62 L 160.74 146.07 C 160.00 146.40 159.67 147.28 160.00 148.02 C 160.33 148.76 161.20 149.09 161.94 148.75 Z M 162.97 148.28 L 163.83 147.88 C 164.55 147.53 164.87 146.66 164.52 145.93 C 164.18 145.21 163.31 144.89 162.58 145.24 L 161.72 145.64 C 160.99 145.98 160.68 146.85 161.02 147.58 C 161.37 148.31 162.24 148.62 162.97 148.28 Z M 163.84 147.86 L 164.71 147.43 C 165.43 147.08 165.73 146.21 165.38 145.49 C 165.03 144.78 164.16 144.48 163.44 144.83 L 162.57 145.25 C 161.85 145.61 161.55 146.47 161.90 147.19 C 162.25 147.91 163.12 148.21 163.84 147.86 Z M 164.74 147.41 L 165.61 146.95 C 166.32 146.59 166.59 145.72 166.23 145.01 C 165.86 144.31 164.99 144.03 164.28 144.40 L 163.41 144.85 C 162.71 145.22 162.43 146.09 162.80 146.79 C 163.17 147.50 164.04 147.77 164.74 147.41 Z M 165.67 146.91 L 166.52 146.42 C 167.20 146.02 167.43 145.14 167.03 144.46 C 166.63 143.77 165.75 143.54 165.06 143.95 L 164.22 144.44 C 163.54 144.84 163.31 145.72 163.71 146.40 C 164.11 147.09 164.99 147.31 165.67 146.91 Z M 166.56 146.38 L 167.41 145.84 C 168.07 145.42 168.26 144.53 167.84 143.87 C 167.41 143.20 166.53 143.01 165.86 143.44 L 165.02 143.98 C 164.35 144.41 164.16 145.29 164.59 145.95 C 165.01 146.62 165.90 146.81 166.56 146.38 Z M 167.41 145.83 L 167.55 145.75 C 168.21 145.32 168.39 144.43 167.96 143.77 C 167.53 143.11 166.65 142.93 165.99 143.36 L 165.85 143.45 C 165.19 143.88 165.01 144.76 165.44 145.42 C 165.87 146.08 166.76 146.27 167.41 145.83 Z"
      fill="black"
      fill-rule="nonzero" /><path d="M 158.05 136.43 L 158.05 137.49 C 158.05 138.31 158.71 138.97 159.52 138.97 C 160.34 138.97 161.00 138.31 161.00 137.49 L 161.00 136.43 C 161.00 135.62 160.34 134.96 159.52 134.96 C 158.71 134.96 158.05 135.62 158.05 136.43 Z M 158.02 137.49 L 158.02 138.50 C 158.02 139.33 158.69 140.00 159.52 140.00 C 160.35 140.00 161.02 139.33 161.02 138.50 L 161.02 137.49 C 161.02 136.66 160.35 135.99 159.52 135.99 C 158.69 135.99 158.02 136.66 158.02 137.49 Z M 158.01 138.50 L 158.01 139.47 C 158.01 140.31 158.68 140.99 159.52 140.99 C 160.36 140.99 161.04 140.31 161.04 139.47 L 161.04 138.50 C 161.04 137.66 160.36 136.98 159.52 136.98 C 158.68 136.98 158.01 137.66 158.01 138.50 Z M 158.00 139.48 L 158.00 140.52 C 158.01 141.36 158.69 142.04 159.53 142.04 C 160.38 142.03 161.05 141.35 161.05 140.51 L 161.05 139.47 C 161.04 138.62 160.36 137.94 159.51 137.95 C 158.67 137.95 157.99 138.64 158.00 139.48 Z M 158.00 140.55 L 158.02 141.43 C 158.05 142.27 158.75 142.94 159.59 142.91 C 160.43 142.89 161.10 142.19 161.07 141.35 L 161.05 140.47 C 161.03 139.63 160.33 138.97 159.49 138.99 C 158.64 139.01 157.98 139.71 158.00 140.55 Z M 158.03 141.50 L 158.09 142.36 C 158.15 143.20 158.88 143.83 159.72 143.77 C 160.56 143.71 161.19 142.98 161.13 142.14 L 161.07 141.28 C 161.01 140.44 160.28 139.81 159.44 139.87 C 158.60 139.93 157.97 140.66 158.03 141.50 Z M 158.10 142.42 L 158.23 143.59 C 158.32 144.42 159.08 145.02 159.92 144.93 C 160.75 144.83 161.36 144.07 161.26 143.24 L 161.13 142.07 C 161.03 141.24 160.27 140.64 159.44 140.73 C 158.60 140.83 158.00 141.59 158.10 142.42 Z M 158.23 143.61 L 158.36 144.54 C 158.47 145.37 159.24 145.96 160.07 145.85 C 160.90 145.74 161.49 144.97 161.38 144.13 L 161.26 143.21 C 161.14 142.38 160.38 141.79 159.54 141.90 C 158.71 142.01 158.12 142.78 158.23 143.61 Z M 158.36 144.55 L 158.51 145.58 C 158.63 146.42 159.40 146.99 160.23 146.87 C 161.06 146.76 161.64 145.98 161.52 145.15 L 161.37 144.12 C 161.26 143.29 160.48 142.71 159.65 142.83 C 158.82 142.95 158.24 143.72 158.36 144.55 Z M 158.51 145.60 L 158.67 146.64 C 158.80 147.47 159.58 148.04 160.41 147.91 C 161.24 147.78 161.81 147.01 161.68 146.17 L 161.52 145.14 C 161.39 144.31 160.61 143.74 159.78 143.86 C 158.95 143.99 158.38 144.77 158.51 145.60 Z M 158.68 146.66 L 158.86 147.71 C 159.00 148.54 159.78 149.09 160.61 148.95 C 161.43 148.81 161.99 148.03 161.85 147.21 L 161.67 146.15 C 161.53 145.33 160.75 144.77 159.92 144.91 C 159.10 145.05 158.54 145.83 158.68 146.66 Z M 158.88 147.76 L 159.10 148.83 C 159.26 149.64 160.05 150.16 160.87 150.00 C 161.68 149.84 162.20 149.05 162.04 148.23 L 161.82 147.16 C 161.66 146.35 160.87 145.83 160.06 145.99 C 159.24 146.15 158.72 146.94 158.88 147.76 Z M 159.14 148.91 L 159.37 149.77 C 159.58 150.56 160.39 151.03 161.18 150.82 C 161.97 150.61 162.43 149.80 162.22 149.02 L 161.99 148.15 C 161.79 147.36 160.98 146.90 160.19 147.11 C 159.40 147.32 158.94 148.12 159.14 148.91 Z M 159.44 149.90 L 159.76 150.79 C 160.04 151.55 160.88 151.93 161.63 151.66 C 162.38 151.38 162.77 150.54 162.49 149.79 L 162.16 148.89 C 161.89 148.14 161.05 147.75 160.30 148.03 C 159.54 148.31 159.16 149.14 159.44 149.90 Z M 159.83 150.90 L 160.24 151.79 C 160.58 152.51 161.44 152.82 162.16 152.49 C 162.88 152.15 163.19 151.29 162.85 150.57 L 162.43 149.68 C 162.10 148.96 161.24 148.65 160.52 148.99 C 159.80 149.32 159.49 150.18 159.83 150.90 Z M 160.27 151.83 L 160.42 152.13 C 160.78 152.83 161.64 153.12 162.34 152.76 C 163.05 152.41 163.33 151.55 162.98 150.84 L 162.82 150.54 C 162.47 149.84 161.61 149.55 160.90 149.91 C 160.20 150.26 159.91 151.12 160.27 151.83 Z"
      fill="black"
      fill-rule="nonzero" /><path d="M 167.65 138.21 L 168.30 137.39 C 168.80 136.75 168.69 135.83 168.06 135.33 C 167.43 134.83 166.50 134.94 166.00 135.57 L 165.35 136.39 C 164.85 137.02 164.96 137.94 165.60 138.45 C 166.23 138.95 167.15 138.84 167.65 138.21 Z M 165.78 137.05 L 166.00 137.59 C 166.32 138.35 167.19 138.71 167.95 138.39 C 168.71 138.07 169.07 137.20 168.75 136.44 L 168.52 135.91 C 168.21 135.15 167.34 134.79 166.58 135.11 C 165.82 135.42 165.46 136.29 165.78 137.05 Z M 165.87 137.07 L 165.91 138.31 C 165.94 139.14 166.64 139.80 167.47 139.77 C 168.31 139.74 168.96 139.04 168.93 138.21 L 168.88 136.96 C 168.85 136.13 168.16 135.48 167.32 135.51 C 166.49 135.54 165.84 136.24 165.87 137.07 Z M 165.90 138.27 L 165.91 139.27 C 165.92 140.11 166.60 140.78 167.44 140.78 C 168.28 140.77 168.95 140.09 168.94 139.25 L 168.94 138.25 C 168.93 137.41 168.25 136.74 167.41 136.74 C 166.57 136.75 165.90 137.43 165.90 138.27 Z M 165.91 139.26 L 165.91 140.28 C 165.91 141.12 166.59 141.80 167.43 141.80 C 168.27 141.79 168.95 141.11 168.95 140.28 L 168.95 139.26 C 168.94 138.42 168.26 137.74 167.42 137.74 C 166.59 137.74 165.91 138.42 165.91 139.26 Z M 165.91 140.28 L 165.91 141.30 C 165.91 142.14 166.59 142.82 167.43 142.82 C 168.27 142.82 168.95 142.14 168.95 141.30 L 168.95 140.28 C 168.95 139.44 168.27 138.76 167.43 138.76 C 166.59 138.76 165.91 139.44 165.91 140.28 Z M 165.91 141.28 L 165.90 142.28 C 165.89 143.12 166.55 143.81 167.39 143.82 C 168.23 143.83 168.92 143.16 168.93 142.32 L 168.95 141.32 C 168.96 140.49 168.29 139.80 167.45 139.79 C 166.61 139.77 165.92 140.44 165.91 141.28 Z M 165.90 142.21 L 165.85 143.17 C 165.80 144.00 166.43 144.72 167.27 144.77 C 168.10 144.82 168.82 144.18 168.87 143.35 L 168.93 142.39 C 168.98 141.56 168.34 140.84 167.50 140.79 C 166.67 140.74 165.95 141.38 165.90 142.21 Z M 165.86 143.08 L 165.75 144.06 C 165.65 144.89 166.24 145.64 167.07 145.73 C 167.90 145.83 168.65 145.24 168.74 144.41 L 168.86 143.43 C 168.95 142.60 168.36 141.85 167.53 141.76 C 166.70 141.66 165.96 142.26 165.86 143.08 Z M 165.76 144.01 L 165.61 145.02 C 165.49 145.84 166.05 146.60 166.87 146.73 C 167.69 146.85 168.45 146.29 168.58 145.47 L 168.73 144.46 C 168.85 143.64 168.29 142.88 167.47 142.75 C 166.65 142.63 165.89 143.19 165.76 144.01 Z M 165.62 145.00 L 165.46 145.99 C 165.33 146.80 165.88 147.56 166.69 147.70 C 167.50 147.83 168.27 147.28 168.40 146.47 L 168.56 145.49 C 168.70 144.68 168.15 143.91 167.34 143.78 C 166.52 143.64 165.76 144.19 165.62 145.00 Z M 165.48 145.96 L 165.30 146.95 C 165.15 147.76 165.69 148.52 166.49 148.67 C 167.29 148.82 168.06 148.28 168.20 147.48 L 168.38 146.49 C 168.53 145.69 168.00 144.92 167.19 144.77 C 166.39 144.63 165.62 145.16 165.48 145.96 Z M 165.31 146.92 L 165.10 147.90 C 164.93 148.70 165.45 149.48 166.25 149.65 C 167.04 149.82 167.82 149.30 167.99 148.51 L 168.20 147.52 C 168.36 146.72 167.85 145.94 167.05 145.77 C 166.25 145.61 165.47 146.12 165.31 146.92 Z M 165.10 147.86 L 164.86 148.83 C 164.67 149.63 165.16 150.43 165.96 150.63 C 166.76 150.82 167.57 150.33 167.76 149.52 L 168.00 148.55 C 168.19 147.75 167.70 146.95 166.89 146.76 C 166.09 146.56 165.29 147.06 165.10 147.86 Z M 164.86 148.78 L 164.60 149.74 C 164.38 150.54 164.85 151.37 165.65 151.59 C 166.45 151.81 167.28 151.34 167.50 150.53 L 167.76 149.57 C 167.98 148.77 167.51 147.94 166.71 147.72 C 165.91 147.50 165.08 147.98 164.86 148.78 Z M 164.62 149.69 L 164.32 150.65 C 164.08 151.45 164.52 152.29 165.31 152.53 C 166.10 152.77 166.94 152.33 167.19 151.54 L 167.48 150.58 C 167.73 149.79 167.28 148.95 166.49 148.70 C 165.70 148.46 164.86 148.90 164.62 149.69 Z M 164.35 150.61 L 164.03 151.55 C 163.76 152.32 164.17 153.17 164.94 153.43 C 165.71 153.70 166.56 153.29 166.83 152.52 L 167.15 151.58 C 167.42 150.81 167.01 149.97 166.24 149.70 C 165.47 149.43 164.62 149.84 164.35 150.61 Z M 164.06 151.51 L 163.70 152.44 C 163.41 153.20 163.79 154.05 164.54 154.34 C 165.29 154.63 166.14 154.25 166.43 153.50 L 166.79 152.56 C 167.08 151.81 166.71 150.96 165.95 150.67 C 165.20 150.38 164.35 150.75 164.06 151.51 Z M 163.72 152.43 L 163.38 153.26 C 163.08 154.01 163.44 154.85 164.18 155.15 C 164.92 155.45 165.77 155.10 166.07 154.35 L 166.41 153.52 C 166.71 152.77 166.35 151.93 165.61 151.63 C 164.87 151.33 164.02 151.68 163.72 152.43 Z"
      fill="black"
      fill-rule="nonzero" /><path d="M 156.21 155.24 L 155.48 156.11 C 154.96 156.74 155.04 157.67 155.67 158.20 C 156.30 158.72 157.23 158.63 157.76 158.01 L 158.48 157.13 C 159.01 156.50 158.92 155.57 158.29 155.05 C 157.66 154.52 156.73 154.61 156.21 155.24 Z M 156.86 158.54 L 157.34 158.47 C 158.16 158.34 158.72 157.56 158.58 156.74 C 158.45 155.92 157.68 155.36 156.86 155.49 L 156.38 155.57 C 155.56 155.70 155.00 156.47 155.13 157.30 C 155.26 158.12 156.04 158.67 156.86 158.54 Z M 157.81 158.31 L 158.82 157.77 C 159.56 157.37 159.84 156.46 159.44 155.73 C 159.05 154.99 158.14 154.71 157.40 155.11 L 156.39 155.65 C 155.65 156.04 155.38 156.96 155.77 157.69 C 156.16 158.43 157.07 158.70 157.81 158.31 Z M 158.83 157.76 L 159.72 157.28 C 160.45 156.88 160.72 155.97 160.32 155.24 C 159.92 154.51 159.01 154.24 158.28 154.64 L 157.40 155.12 C 156.67 155.51 156.40 156.43 156.79 157.15 C 157.19 157.88 158.10 158.15 158.83 157.76 Z M 159.73 157.26 L 160.60 156.77 C 161.33 156.37 161.59 155.46 161.18 154.74 C 160.78 154.02 159.87 153.76 159.15 154.16 L 158.27 154.65 C 157.55 155.05 157.29 155.96 157.69 156.68 C 158.09 157.41 159.00 157.67 159.73 157.26 Z M 160.61 156.76 L 161.48 156.27 C 162.20 155.86 162.45 154.95 162.05 154.24 C 161.64 153.52 160.73 153.27 160.01 153.68 L 159.14 154.17 C 158.43 154.58 158.17 155.49 158.58 156.20 C 158.99 156.92 159.90 157.17 160.61 156.76 Z M 161.48 156.26 L 162.36 155.77 C 163.07 155.36 163.32 154.46 162.92 153.74 C 162.52 153.03 161.61 152.78 160.90 153.18 L 160.02 153.68 C 159.31 154.08 159.06 154.99 159.46 155.70 C 159.86 156.41 160.77 156.67 161.48 156.26 Z M 162.35 155.76 L 163.22 155.27 C 163.93 154.88 164.19 153.98 163.79 153.27 C 163.39 152.56 162.50 152.30 161.79 152.70 L 160.91 153.19 C 160.20 153.58 159.94 154.48 160.34 155.19 C 160.74 155.90 161.64 156.16 162.35 155.76 Z M 163.21 155.27 L 164.10 154.78 C 164.81 154.39 165.07 153.50 164.68 152.79 C 164.29 152.08 163.40 151.82 162.69 152.21 L 161.80 152.70 C 161.09 153.09 160.83 153.98 161.22 154.69 C 161.61 155.40 162.50 155.66 163.21 155.27 Z M 164.08 154.78 L 164.98 154.30 C 165.69 153.92 165.96 153.04 165.58 152.33 C 165.20 151.62 164.32 151.35 163.61 151.73 L 162.71 152.21 C 162.00 152.59 161.73 153.47 162.11 154.18 C 162.49 154.89 163.37 155.16 164.08 154.78 Z M 164.95 154.31 L 165.82 153.87 C 166.53 153.50 166.81 152.63 166.45 151.92 C 166.08 151.20 165.21 150.92 164.50 151.29 L 163.64 151.73 C 162.92 152.09 162.64 152.96 163.01 153.68 C 163.37 154.39 164.24 154.67 164.95 154.31 Z M 165.79 153.87 L 166.67 153.45 C 167.39 153.10 167.69 152.23 167.34 151.52 C 166.99 150.80 166.13 150.50 165.41 150.85 L 164.53 151.28 C 163.81 151.63 163.51 152.49 163.86 153.21 C 164.21 153.92 165.07 154.22 165.79 153.87 Z M 166.66 153.45 L 167.73 152.94 C 168.45 152.60 168.76 151.73 168.41 151.01 C 168.07 150.29 167.21 149.99 166.49 150.33 L 165.42 150.84 C 164.70 151.19 164.39 152.05 164.74 152.77 C 165.08 153.49 165.94 153.80 166.66 153.45 Z M 167.56 153.03 L 168.15 152.83 C 168.92 152.59 169.34 151.77 169.09 151.00 C 168.84 150.23 168.02 149.81 167.25 150.06 L 166.66 150.25 C 165.90 150.49 165.47 151.32 165.72 152.08 C 165.97 152.85 166.79 153.27 167.56 153.03 Z M 166.69 150.35 L 165.89 151.09 C 165.29 151.64 165.25 152.59 165.81 153.19 C 166.37 153.80 167.31 153.84 167.92 153.28 L 168.71 152.54 C 169.32 151.98 169.36 151.04 168.80 150.43 C 168.24 149.83 167.30 149.79 166.69 150.35 Z M 165.85 151.09 L 165.14 151.77 C 164.53 152.36 164.51 153.32 165.10 153.92 C 165.68 154.53 166.64 154.55 167.25 153.96 L 167.96 153.28 C 168.56 152.69 168.58 151.73 168.00 151.13 C 167.42 150.52 166.45 150.50 165.85 151.09 Z M 165.11 151.78 L 164.41 152.48 C 163.81 153.08 163.81 154.05 164.41 154.65 C 165.01 155.25 165.98 155.25 166.58 154.65 L 167.27 153.95 C 167.87 153.36 167.87 152.39 167.28 151.79 C 166.68 151.19 165.71 151.19 165.11 151.78 Z M 164.42 152.47 L 163.70 153.18 C 163.09 153.77 163.09 154.74 163.68 155.35 C 164.27 155.95 165.25 155.96 165.85 155.37 L 166.57 154.66 C 167.17 154.07 167.18 153.09 166.59 152.49 C 165.99 151.88 165.02 151.88 164.42 152.47 Z M 163.71 153.17 L 162.99 153.86 C 162.39 154.45 162.37 155.42 162.96 156.03 C 163.55 156.64 164.52 156.65 165.13 156.06 L 165.85 155.37 C 166.45 154.78 166.47 153.81 165.88 153.20 C 165.29 152.59 164.31 152.58 163.71 153.17 Z M 163.00 153.85 L 162.27 154.55 C 161.66 155.14 161.64 156.11 162.22 156.72 C 162.81 157.34 163.78 157.36 164.39 156.77 L 165.13 156.07 C 165.74 155.48 165.76 154.51 165.17 153.90 C 164.59 153.29 163.61 153.27 163.00 153.85 Z M 162.28 154.54 L 161.62 155.17 C 161.00 155.75 160.97 156.72 161.55 157.34 C 162.13 157.96 163.10 157.99 163.72 157.40 L 164.39 156.78 C 165.00 156.20 165.03 155.23 164.45 154.61 C 163.87 153.99 162.90 153.96 162.28 154.54 Z M 161.63 155.16 L 160.94 155.79 C 160.32 156.37 160.28 157.34 160.86 157.96 C 161.43 158.58 162.41 158.62 163.03 158.05 L 163.71 157.41 C 164.33 156.84 164.37 155.86 163.80 155.24 C 163.22 154.62 162.25 154.58 161.63 155.16 Z M 160.95 155.79 L 160.09 156.58 C 159.46 157.15 159.42 158.12 159.99 158.75 C 160.56 159.37 161.53 159.41 162.16 158.84 L 163.02 158.05 C 163.65 157.48 163.69 156.51 163.12 155.88 C 162.54 155.26 161.57 155.21 160.95 155.79 Z M 160.09 156.58 L 159.40 157.20 C 158.78 157.77 158.73 158.74 159.30 159.37 C 159.87 160.00 160.84 160.04 161.47 159.47 L 162.16 158.84 C 162.78 158.27 162.83 157.30 162.26 156.67 C 161.68 156.05 160.71 156.00 160.09 156.58 Z M 159.40 157.21 L 158.65 157.89 C 158.03 158.46 157.98 159.43 158.55 160.06 C 159.12 160.68 160.09 160.72 160.71 160.15 L 161.47 159.47 C 162.09 158.90 162.14 157.93 161.57 157.30 C 161.00 156.68 160.03 156.64 159.40 157.21 Z M 158.65 157.90 L 157.88 158.60 C 157.26 159.17 157.21 160.14 157.78 160.76 C 158.36 161.39 159.32 161.43 159.94 160.86 L 160.72 160.15 C 161.34 159.58 161.38 158.61 160.81 157.99 C 160.24 157.37 159.27 157.33 158.65 157.90 Z M 157.88 158.61 L 157.13 159.30 C 156.52 159.87 156.48 160.83 157.05 161.45 C 157.62 162.07 158.59 162.11 159.21 161.54 L 159.95 160.85 C 160.57 160.28 160.60 159.31 160.03 158.69 C 159.46 158.08 158.49 158.04 157.88 158.61 Z M 157.13 159.31 L 156.38 160.01 C 155.76 160.58 155.73 161.55 156.31 162.16 C 156.88 162.77 157.85 162.81 158.46 162.23 L 159.21 161.53 C 159.83 160.95 159.86 159.99 159.28 159.37 C 158.71 158.76 157.74 158.73 157.13 159.31 Z M 156.37 160.02 L 155.67 160.69 C 155.06 161.27 155.04 162.24 155.62 162.84 C 156.20 163.45 157.16 163.47 157.77 162.89 L 158.47 162.22 C 159.08 161.64 159.10 160.68 158.52 160.07 C 157.94 159.46 156.98 159.44 156.37 160.02 Z M 155.66 160.71 L 154.96 161.39 C 154.37 161.98 154.36 162.93 154.94 163.53 C 155.53 164.13 156.48 164.14 157.08 163.55 L 157.78 162.87 C 158.38 162.29 158.39 161.33 157.80 160.73 C 157.22 160.13 156.26 160.12 155.66 160.71 Z M 154.96 161.40 L 154.24 162.12 C 153.65 162.71 153.65 163.67 154.24 164.26 C 154.82 164.85 155.78 164.85 156.37 164.26 L 157.09 163.54 C 157.68 162.95 157.68 162.00 157.09 161.41 C 156.50 160.82 155.55 160.81 154.96 161.40 Z M 154.23 162.13 L 153.52 162.86 C 152.93 163.45 152.94 164.40 153.53 164.99 C 154.12 165.57 155.07 165.56 155.66 164.97 L 156.37 164.25 C 156.96 163.66 156.95 162.70 156.36 162.12 C 155.77 161.54 154.82 161.54 154.23 162.13 Z M 153.51 162.87 L 152.78 163.61 C 152.20 164.21 152.22 165.16 152.81 165.73 C 153.40 166.31 154.35 166.30 154.93 165.71 L 155.66 164.96 C 156.24 164.37 156.23 163.42 155.63 162.84 C 155.04 162.26 154.09 162.27 153.51 162.87 Z M 152.78 163.62 L 152.08 164.35 C 151.51 164.94 151.53 165.89 152.12 166.46 C 152.72 167.03 153.66 167.02 154.24 166.42 L 154.93 165.70 C 155.51 165.11 155.49 164.16 154.89 163.59 C 154.30 163.01 153.35 163.03 152.78 163.62 Z M 152.08 164.36 L 151.38 165.10 C 150.82 165.69 150.84 166.64 151.44 167.20 C 152.04 167.77 152.98 167.74 153.55 167.14 L 154.24 166.41 C 154.81 165.81 154.78 164.87 154.18 164.30 C 153.59 163.74 152.64 163.76 152.08 164.36 Z M 151.37 165.12 L 150.63 165.93 C 150.09 166.54 150.13 167.47 150.74 168.02 C 151.34 168.57 152.28 168.53 152.83 167.92 L 153.56 167.11 C 154.11 166.51 154.06 165.57 153.46 165.02 C 152.85 164.47 151.92 164.52 151.37 165.12 Z M 150.60 165.99 L 150.02 166.68 C 149.51 167.31 149.59 168.24 150.22 168.75 C 150.84 169.27 151.77 169.18 152.29 168.56 L 152.86 167.86 C 153.38 167.24 153.30 166.31 152.67 165.80 C 152.05 165.28 151.12 165.36 150.60 165.99 Z M 149.98 166.76 L 149.42 167.53 C 148.95 168.18 149.09 169.09 149.75 169.56 C 150.40 170.04 151.31 169.89 151.78 169.24 L 152.34 168.48 C 152.81 167.83 152.67 166.91 152.01 166.44 C 151.36 165.97 150.45 166.11 149.98 166.76 Z M 149.39 167.60 L 148.84 168.44 C 148.41 169.11 148.60 170.00 149.28 170.44 C 149.95 170.87 150.84 170.68 151.28 170.01 L 151.82 169.17 C 152.25 168.50 152.06 167.60 151.39 167.17 C 150.72 166.73 149.82 166.93 149.39 167.60 Z M 148.83 168.47 L 148.54 168.95 C 148.12 169.63 148.33 170.52 149.01 170.93 C 149.68 171.35 150.57 171.14 150.99 170.46 L 151.29 169.98 C 151.71 169.30 151.50 168.41 150.82 167.99 C 150.14 167.58 149.25 167.79 148.83 168.47 Z"
      fill="black"
      fill-rule="nonzero" /><path d="M 158.30 163.73 L 159.19 163.20 C 159.90 162.79 160.13 161.88 159.72 161.17 C 159.30 160.47 158.39 160.23 157.69 160.65 L 156.79 161.17 C 156.09 161.59 155.85 162.50 156.27 163.20 C 156.68 163.91 157.59 164.14 158.30 163.73 Z M 157.57 163.15 L 158.17 163.58 C 158.85 164.06 159.79 163.90 160.27 163.22 C 160.75 162.55 160.59 161.61 159.91 161.12 L 159.31 160.70 C 158.63 160.22 157.69 160.38 157.21 161.05 C 156.73 161.73 156.89 162.67 157.57 163.15 Z M 157.61 162.83 L 157.95 163.88 C 158.22 164.67 159.07 165.10 159.86 164.84 C 160.65 164.58 161.08 163.72 160.82 162.93 L 160.47 161.88 C 160.21 161.09 159.36 160.66 158.56 160.92 C 157.77 161.18 157.34 162.03 157.61 162.83 Z M 157.90 163.68 L 158.08 164.65 C 158.24 165.47 159.03 166.01 159.85 165.86 C 160.67 165.70 161.21 164.91 161.05 164.09 L 160.87 163.13 C 160.72 162.31 159.93 161.77 159.11 161.92 C 158.29 162.08 157.75 162.86 157.90 163.68 Z M 158.07 164.57 L 158.21 165.60 C 158.31 166.43 159.07 167.01 159.90 166.90 C 160.73 166.79 161.31 166.04 161.20 165.21 L 161.07 164.18 C 160.96 163.35 160.20 162.77 159.37 162.87 C 158.55 162.98 157.96 163.74 158.07 164.57 Z M 158.20 165.56 L 158.30 166.57 C 158.39 167.40 159.13 168.00 159.96 167.92 C 160.79 167.83 161.39 167.09 161.31 166.26 L 161.21 165.25 C 161.12 164.42 160.38 163.82 159.55 163.90 C 158.72 163.99 158.12 164.73 158.20 165.56 Z M 158.30 166.55 L 158.39 167.54 C 158.46 168.37 159.19 168.98 160.03 168.91 C 160.86 168.83 161.47 168.10 161.40 167.27 L 161.31 166.28 C 161.24 165.45 160.50 164.84 159.67 164.91 C 158.84 164.98 158.23 165.72 158.30 166.55 Z M 158.39 167.54 L 158.48 168.56 C 158.56 169.39 159.29 170.00 160.12 169.93 C 160.95 169.85 161.57 169.11 161.49 168.28 L 161.40 167.26 C 161.32 166.43 160.58 165.82 159.75 165.90 C 158.92 165.98 158.31 166.71 158.39 167.54 Z M 158.48 168.58 L 158.59 169.56 C 158.67 170.39 159.42 170.99 160.25 170.90 C 161.08 170.81 161.68 170.07 161.59 169.24 L 161.49 168.26 C 161.40 167.43 160.66 166.83 159.83 166.92 C 159.00 167.01 158.40 167.75 158.48 168.58 Z M 158.60 169.65 L 158.79 170.73 C 158.92 171.56 159.70 172.11 160.52 171.97 C 161.35 171.83 161.90 171.05 161.76 170.23 L 161.58 169.15 C 161.44 168.33 160.66 167.77 159.84 167.91 C 159.02 168.05 158.46 168.83 158.60 169.65 Z M 159.41 171.71 L 159.98 172.10 C 160.66 172.58 161.59 172.41 162.07 171.73 C 162.54 171.05 162.37 170.11 161.69 169.64 L 161.13 169.25 C 160.45 168.78 159.51 168.94 159.04 169.62 C 158.57 170.31 158.73 171.24 159.41 171.71 Z M 161.51 172.20 L 162.27 171.81 C 163.00 171.43 163.29 170.54 162.92 169.81 C 162.54 169.07 161.65 168.78 160.91 169.16 L 160.16 169.55 C 159.42 169.92 159.13 170.82 159.51 171.55 C 159.88 172.28 160.78 172.57 161.51 172.20 Z M 162.47 171.66 L 163.41 170.95 C 164.06 170.46 164.19 169.54 163.70 168.89 C 163.22 168.25 162.30 168.12 161.65 168.60 L 160.71 169.31 C 160.06 169.80 159.93 170.72 160.42 171.37 C 160.90 172.01 161.83 172.15 162.47 171.66 Z M 163.44 170.92 L 163.59 170.80 C 164.22 170.30 164.33 169.38 163.83 168.75 C 163.33 168.12 162.41 168.01 161.78 168.51 L 161.63 168.64 C 160.99 169.14 160.89 170.05 161.39 170.68 C 161.89 171.31 162.81 171.42 163.44 170.92 Z"
      fill="black"
      fill-rule="nonzero" /><path d="M 174.41 158.51 L 175.55 158.37 C 176.37 158.26 176.95 157.52 176.84 156.70 C 176.74 155.89 176.00 155.31 175.18 155.41 L 174.04 155.55 C 173.22 155.66 172.64 156.40 172.75 157.22 C 172.85 158.03 173.59 158.61 174.41 158.51 Z M 173.87 156.64 L 173.80 157.05 C 173.66 157.87 174.22 158.65 175.04 158.79 C 175.87 158.93 176.65 158.38 176.79 157.56 L 176.86 157.14 C 177.00 156.32 176.45 155.54 175.62 155.40 C 174.80 155.26 174.01 155.81 173.87 156.64 Z M 174.32 156.15 L 173.42 156.91 C 172.79 157.46 172.71 158.41 173.26 159.04 C 173.80 159.68 174.75 159.75 175.39 159.21 L 176.28 158.45 C 176.91 157.91 176.99 156.95 176.45 156.32 C 175.90 155.69 174.95 155.61 174.32 156.15 Z M 173.43 156.92 L 172.67 157.57 C 172.04 158.11 171.97 159.06 172.51 159.69 C 173.05 160.32 174.00 160.39 174.62 159.85 L 175.38 159.20 C 176.01 158.66 176.08 157.72 175.54 157.09 C 175.00 156.46 174.06 156.39 173.43 156.92 Z M 172.67 157.59 L 171.91 158.25 C 171.29 158.79 171.22 159.73 171.76 160.36 C 172.30 160.98 173.25 161.04 173.87 160.50 L 174.63 159.84 C 175.25 159.29 175.31 158.35 174.77 157.73 C 174.23 157.11 173.29 157.05 172.67 157.59 Z M 171.91 158.25 L 171.15 158.91 C 170.53 159.45 170.47 160.39 171.00 161.01 C 171.54 161.63 172.48 161.69 173.10 161.16 L 173.86 160.50 C 174.48 159.96 174.55 159.02 174.01 158.40 C 173.47 157.78 172.53 157.72 171.91 158.25 Z M 171.17 158.90 L 170.42 159.53 C 169.80 160.06 169.72 160.99 170.25 161.62 C 170.77 162.24 171.71 162.32 172.33 161.80 L 173.08 161.17 C 173.71 160.64 173.79 159.71 173.26 159.08 C 172.73 158.46 171.80 158.38 171.17 158.90 Z M 170.43 159.53 L 169.67 160.16 C 169.04 160.69 168.96 161.62 169.48 162.24 C 170.00 162.87 170.93 162.96 171.56 162.43 L 172.32 161.80 C 172.95 161.28 173.04 160.35 172.51 159.72 C 171.99 159.09 171.06 159.01 170.43 159.53 Z M 169.65 160.18 L 168.90 160.83 C 168.28 161.37 168.21 162.30 168.75 162.91 C 169.28 163.53 170.21 163.60 170.83 163.07 L 171.58 162.42 C 172.20 161.88 172.26 160.95 171.73 160.33 C 171.20 159.72 170.27 159.65 169.65 160.18 Z M 168.86 160.87 L 168.12 161.55 C 167.52 162.11 167.48 163.04 168.04 163.64 C 168.59 164.24 169.53 164.27 170.12 163.72 L 170.87 163.03 C 171.46 162.48 171.50 161.55 170.95 160.95 C 170.39 160.35 169.46 160.31 168.86 160.87 Z M 168.06 161.60 L 167.32 162.37 C 166.75 162.95 166.76 163.89 167.35 164.46 C 167.93 165.02 168.87 165.01 169.44 164.43 L 170.18 163.67 C 170.75 163.08 170.74 162.15 170.15 161.58 C 169.57 161.01 168.63 161.02 168.06 161.60 Z M 167.21 162.49 L 166.56 163.32 C 166.06 163.96 166.17 164.90 166.82 165.40 C 167.47 165.90 168.40 165.79 168.90 165.14 L 169.55 164.31 C 170.05 163.66 169.93 162.73 169.29 162.23 C 168.64 161.73 167.71 161.84 167.21 162.49 Z M 166.33 163.73 L 166.03 164.55 C 165.75 165.32 166.16 166.18 166.93 166.45 C 167.71 166.73 168.56 166.33 168.84 165.55 L 169.14 164.73 C 169.41 163.96 169.01 163.10 168.23 162.82 C 167.46 162.55 166.60 162.95 166.33 163.73 Z M 166.03 165.63 L 166.39 166.49 C 166.71 167.26 167.60 167.63 168.38 167.31 C 169.15 166.99 169.52 166.10 169.20 165.32 L 168.84 164.47 C 168.52 163.69 167.63 163.32 166.85 163.65 C 166.08 163.97 165.71 164.86 166.03 165.63 Z M 166.80 167.10 L 167.58 167.75 C 168.24 168.29 169.22 168.20 169.76 167.54 C 170.31 166.89 170.22 165.91 169.56 165.36 L 168.78 164.71 C 168.12 164.17 167.15 164.26 166.60 164.92 C 166.05 165.57 166.14 166.55 166.80 167.10 Z M 167.75 167.88 L 168.63 168.42 C 169.36 168.87 170.32 168.64 170.77 167.91 C 171.22 167.17 170.99 166.21 170.26 165.76 L 169.39 165.23 C 168.65 164.77 167.69 165.00 167.24 165.74 C 166.79 166.47 167.02 167.43 167.75 167.88 Z M 168.67 168.44 L 169.57 168.96 C 170.32 169.39 171.27 169.13 171.70 168.38 C 172.13 167.64 171.87 166.68 171.12 166.25 L 170.22 165.74 C 169.47 165.31 168.52 165.57 168.09 166.31 C 167.66 167.06 167.92 168.02 168.67 168.44 Z M 169.54 168.95 L 170.41 169.47 C 171.15 169.92 172.11 169.68 172.55 168.94 C 173.00 168.20 172.76 167.24 172.02 166.79 L 171.16 166.27 C 170.42 165.82 169.46 166.06 169.01 166.80 C 168.56 167.54 168.80 168.50 169.54 168.95 Z M 170.36 169.44 L 171.17 169.97 C 171.89 170.44 172.86 170.24 173.34 169.52 C 173.81 168.80 173.61 167.83 172.88 167.35 L 172.07 166.82 C 171.35 166.35 170.38 166.55 169.91 167.27 C 169.43 168.00 169.63 168.97 170.36 169.44 Z M 171.12 169.94 L 171.94 170.52 C 172.65 171.02 173.63 170.86 174.13 170.15 C 174.63 169.45 174.46 168.47 173.75 167.97 L 172.93 167.38 C 172.23 166.89 171.25 167.05 170.75 167.76 C 170.25 168.46 170.42 169.44 171.12 169.94 Z M 171.90 170.48 L 172.68 171.09 C 173.37 171.62 174.35 171.49 174.87 170.81 C 175.40 170.12 175.27 169.14 174.59 168.61 L 173.80 168.01 C 173.12 167.48 172.14 167.61 171.61 168.29 C 171.09 168.98 171.21 169.96 171.90 170.48 Z M 172.62 171.03 L 173.41 171.71 C 174.06 172.27 175.04 172.19 175.60 171.54 C 176.16 170.88 176.09 169.90 175.43 169.34 L 174.65 168.67 C 174.00 168.11 173.01 168.18 172.45 168.84 C 171.89 169.49 171.97 170.47 172.62 171.03 Z M 173.33 171.63 L 174.02 172.31 C 174.63 172.91 175.61 172.90 176.22 172.29 C 176.82 171.68 176.81 170.69 176.20 170.09 L 175.51 169.42 C 174.90 168.82 173.91 168.82 173.31 169.43 C 172.71 170.05 172.72 171.03 173.33 171.63 Z M 173.94 172.21 L 174.60 172.97 C 175.15 173.62 176.13 173.69 176.77 173.13 C 177.42 172.58 177.49 171.60 176.94 170.96 L 176.28 170.19 C 175.72 169.55 174.75 169.48 174.10 170.03 C 173.46 170.59 173.38 171.56 173.94 172.21 Z M 174.52 172.85 L 175.08 173.64 C 175.58 174.33 176.53 174.48 177.22 173.99 C 177.91 173.50 178.06 172.54 177.57 171.86 L 177.01 171.07 C 176.52 170.39 175.56 170.23 174.88 170.72 C 174.19 171.21 174.03 172.17 174.52 172.85 Z M 175.01 173.49 L 175.48 174.33 C 175.89 175.06 176.81 175.33 177.54 174.92 C 178.27 174.51 178.53 173.58 178.12 172.85 L 177.65 172.01 C 177.24 171.28 176.32 171.02 175.59 171.43 C 174.86 171.83 174.60 172.76 175.01 173.49 Z M 175.41 174.15 L 175.79 175.09 C 176.10 175.86 176.97 176.23 177.74 175.92 C 178.51 175.61 178.88 174.73 178.57 173.97 L 178.19 173.03 C 177.88 172.27 177.01 171.89 176.24 172.20 C 175.47 172.51 175.10 173.39 175.41 174.15 Z M 175.77 174.98 L 176.07 175.92 C 176.31 176.70 177.15 177.13 177.93 176.88 C 178.71 176.63 179.14 175.80 178.89 175.02 L 178.59 174.08 C 178.34 173.30 177.51 172.87 176.73 173.12 C 175.95 173.36 175.52 174.20 175.77 174.98 Z M 176.07 175.87 L 176.36 176.89 C 176.59 177.67 177.40 178.12 178.17 177.89 C 178.95 177.67 179.40 176.86 179.18 176.08 L 178.89 175.07 C 178.66 174.29 177.85 173.84 177.07 174.06 C 176.30 174.29 175.85 175.10 176.07 175.87 Z"
      fill="black"
      fill-rule="nonzero" /></svg>