<svg xmlns="http://www.w3.org/2000/svg" width="300" height="300" viewBox="0 0 300 300">
<path d="M 126.44 135.12 L 127.34 135.19 C 128.18 135.26 128.91 134.63 128.97 133.80 C 129.04 132.96 128.42 132.23 127.58 132.17 L 126.68 132.10 C 125.85 132.03 125.12 132.65 125.05 133.49 C 124.99 134.32 125.61 135.05 126.44 135.12 Z M 127.50 135.23 L 128.55 135.20 C 129.40 135.18 130.08 134.47 130.06 133.61 C 130.03 132.75 129.32 132.08 128.47 132.10 L 127.42 132.13 C 126.57 132.15 125.89 132.86 125.91 133.72 C 125.93 134.58 126.65 135.25 127.50 135.23 Z M 128.73 135.21 L 129.71 135.07 C 130.57 134.94 131.17 134.14 131.04 133.28 C 130.91 132.42 130.11 131.82 129.25 131.95 L 128.28 132.09 C 127.42 132.22 126.82 133.02 126.95 133.88 C 127.07 134.74 127.87 135.34 128.73 135.21 Z M 129.81 135.05 L 130.80 134.84 C 131.65 134.66 132.19 133.82 132.01 132.97 C 131.83 132.12 130.99 131.57 130.14 131.75 L 129.15 131.96 C 128.30 132.14 127.76 132.98 127.94 133.84 C 128.12 134.69 128.96 135.23 129.81 135.05 Z M 130.84 134.83 L 131.85 134.59 C 132.70 134.39 133.22 133.53 133.02 132.68 C 132.81 131.83 131.96 131.31 131.11 131.52 L 130.10 131.76 C 129.25 131.97 128.73 132.82 128.93 133.67 C 129.13 134.52 129.99 135.04 130.84 134.83 Z M 131.86 134.59 L 132.91 134.33 C 133.76 134.12 134.27 133.27 134.07 132.42 C 133.86 131.57 133.00 131.05 132.16 131.26 L 131.11 131.52 C 130.26 131.73 129.74 132.58 129.95 133.43 C 130.16 134.28 131.01 134.80 131.86 134.59 Z M 132.90 134.33 L 133.93 134.08 C 134.78 133.88 135.30 133.03 135.10 132.18 C 134.90 131.34 134.05 130.81 133.20 131.02 L 132.17 131.26 C 131.32 131.46 130.80 132.31 131.00 133.16 C 131.20 134.01 132.05 134.53 132.90 134.33 Z M 133.93 134.08 L 134.84 133.87 C 135.68 133.67 136.21 132.82 136.01 131.98 C 135.81 131.13 134.96 130.61 134.12 130.81 L 133.21 131.02 C 132.36 131.22 131.84 132.06 132.04 132.91 C 132.24 133.75 133.08 134.28 133.93 134.08 Z M 134.84 133.86 L 135.77 133.64 C 136.61 133.44 137.13 132.60 136.93 131.75 C 136.73 130.91 135.88 130.39 135.04 130.59 L 134.12 130.81 C 133.27 131.01 132.75 131.86 132.95 132.70 C 133.15 133.54 134.00 134.06 134.84 133.86 Z M 135.77 133.63 L 136.71 133.40 C 137.54 133.20 138.05 132.36 137.85 131.52 C 137.65 130.69 136.81 130.17 135.97 130.38 L 135.04 130.60 C 134.20 130.81 133.69 131.65 133.89 132.48 C 134.09 133.32 134.94 133.83 135.77 133.63 Z M 136.70 133.39 L 137.64 133.17 C 138.47 132.97 138.98 132.13 138.78 131.30 C 138.58 130.47 137.75 129.96 136.92 130.16 L 135.98 130.39 C 135.15 130.59 134.64 131.42 134.84 132.25 C 135.03 133.08 135.87 133.59 136.70 133.39 Z M 137.64 133.16 L 138.61 132.93 C 139.44 132.73 139.95 131.90 139.75 131.07 C 139.55 130.24 138.72 129.73 137.89 129.93 L 136.92 130.17 C 136.09 130.36 135.59 131.19 135.78 132.02 C 135.98 132.85 136.81 133.36 137.64 133.16 Z M 138.62 132.92 L 139.64 132.67 C 140.46 132.47 140.96 131.64 140.76 130.82 C 140.56 129.99 139.73 129.49 138.91 129.69 L 137.89 129.94 C 137.07 130.14 136.56 130.97 136.76 131.79 C 136.96 132.62 137.79 133.12 138.62 132.92 Z M 139.65 132.66 L 140.65 132.40 C 141.46 132.20 141.96 131.37 141.75 130.55 C 141.54 129.74 140.71 129.24 139.90 129.45 L 138.90 129.70 C 138.08 129.91 137.59 130.74 137.79 131.55 C 138.00 132.37 138.83 132.86 139.65 132.66 Z M 140.65 132.39 L 141.61 132.14 C 142.42 131.93 142.90 131.11 142.70 130.30 C 142.49 129.50 141.67 129.01 140.86 129.22 L 139.90 129.47 C 139.09 129.67 138.61 130.49 138.81 131.30 C 139.02 132.11 139.84 132.59 140.65 132.39 Z M 141.60 132.13 L 142.56 131.89 C 143.36 131.69 143.84 130.88 143.64 130.08 C 143.44 129.28 142.63 128.79 141.83 128.99 L 140.88 129.23 C 140.08 129.43 139.59 130.24 139.79 131.04 C 139.99 131.84 140.80 132.33 141.60 132.13 Z M 142.53 131.88 L 143.52 131.65 C 144.32 131.47 144.81 130.67 144.63 129.87 C 144.44 129.08 143.64 128.58 142.85 128.77 L 141.86 129.00 C 141.06 129.18 140.57 129.98 140.75 130.78 C 140.94 131.57 141.73 132.07 142.53 131.88 Z M 143.50 131.65 L 144.45 131.44 C 145.24 131.27 145.75 130.48 145.57 129.69 C 145.40 128.90 144.62 128.39 143.82 128.57 L 142.87 128.77 C 142.08 128.95 141.57 129.73 141.75 130.52 C 141.92 131.31 142.70 131.82 143.50 131.65 Z M 144.42 131.43 L 145.42 131.23 C 146.21 131.07 146.72 130.30 146.56 129.52 C 146.40 128.73 145.63 128.21 144.84 128.37 L 143.85 128.57 C 143.06 128.73 142.55 129.50 142.71 130.29 C 142.87 131.08 143.63 131.59 144.42 131.43 Z M 145.40 131.22 L 146.37 131.04 C 147.16 130.89 147.67 130.13 147.52 129.35 C 147.37 128.56 146.61 128.05 145.83 128.20 L 144.86 128.38 C 144.07 128.53 143.56 129.29 143.71 130.07 C 143.86 130.86 144.62 131.37 145.40 131.22 Z M 146.37 131.03 L 146.60 130.99 C 147.38 130.84 147.89 130.09 147.75 129.31 C 147.60 128.53 146.85 128.01 146.07 128.16 L 145.83 128.20 C 145.05 128.35 144.54 129.10 144.69 129.88 C 144.83 130.66 145.59 131.18 146.37 131.03 Z"
      fill="black"
      fill-rule="nonzero" /><path d="M 126.70 138.81 L 126.22 139.66 C 125.81 140.39 126.07 141.31 126.79 141.72 C 127.52 142.12 128.44 141.87 128.85 141.14 L 129.33 140.29 C 129.74 139.56 129.48 138.64 128.76 138.24 C 128.03 137.83 127.11 138.08 126.70 138.81 Z M 126.02 140.66 L 126.17 141.53 C 126.32 142.36 127.11 142.92 127.94 142.78 C 128.78 142.63 129.34 141.84 129.19 141.01 L 129.04 140.14 C 128.90 139.31 128.11 138.75 127.27 138.89 C 126.44 139.04 125.88 139.83 126.02 140.66 Z M 126.41 142.13 L 126.96 142.95 C 127.44 143.65 128.40 143.84 129.10 143.36 C 129.81 142.88 129.99 141.92 129.51 141.21 L 128.96 140.40 C 128.48 139.69 127.52 139.51 126.82 139.99 C 126.11 140.47 125.93 141.43 126.41 142.13 Z M 127.02 143.03 L 127.70 143.91 C 128.23 144.58 129.20 144.71 129.87 144.18 C 130.54 143.66 130.67 142.69 130.14 142.01 L 129.46 141.13 C 128.93 140.46 127.96 140.34 127.29 140.86 C 126.62 141.38 126.49 142.35 127.02 143.03 Z M 127.66 143.85 L 128.26 144.70 C 128.75 145.40 129.71 145.56 130.41 145.07 C 131.11 144.58 131.28 143.61 130.78 142.92 L 130.19 142.07 C 129.69 141.37 128.73 141.21 128.03 141.70 C 127.33 142.19 127.17 143.16 127.66 143.85 Z M 128.22 144.65 L 128.75 145.47 C 129.22 146.19 130.17 146.40 130.89 145.93 C 131.61 145.47 131.82 144.51 131.35 143.80 L 130.82 142.97 C 130.36 142.25 129.40 142.05 128.68 142.51 C 127.96 142.97 127.76 143.93 128.22 144.65 Z M 128.73 145.43 L 129.25 146.30 C 129.69 147.04 130.64 147.27 131.38 146.83 C 132.11 146.39 132.34 145.44 131.90 144.71 L 131.38 143.84 C 130.94 143.11 129.99 142.87 129.26 143.31 C 128.52 143.75 128.29 144.70 128.73 145.43 Z M 129.23 146.26 L 129.71 147.11 C 130.13 147.86 131.07 148.12 131.81 147.71 C 132.55 147.29 132.82 146.35 132.40 145.60 L 131.92 144.75 C 131.51 144.01 130.57 143.74 129.82 144.16 C 129.08 144.58 128.81 145.52 129.23 146.26 Z M 129.69 147.07 L 130.15 147.96 C 130.55 148.71 131.48 149.00 132.23 148.60 C 132.99 148.21 133.28 147.28 132.88 146.53 L 132.42 145.64 C 132.03 144.89 131.10 144.60 130.34 145.00 C 129.59 145.39 129.30 146.32 129.69 147.07 Z M 130.14 147.92 L 130.58 148.81 C 130.96 149.57 131.88 149.88 132.64 149.51 C 133.40 149.14 133.71 148.22 133.34 147.45 L 132.90 146.56 C 132.52 145.80 131.60 145.49 130.84 145.86 C 130.08 146.24 129.77 147.16 130.14 147.92 Z M 130.57 148.77 L 130.96 149.64 C 131.31 150.41 132.22 150.75 132.99 150.39 C 133.76 150.04 134.10 149.14 133.75 148.37 L 133.35 147.50 C 133.00 146.73 132.09 146.39 131.32 146.74 C 130.55 147.09 130.22 148.00 130.57 148.77 Z M 130.94 149.57 L 131.33 150.53 C 131.64 151.31 132.53 151.69 133.31 151.38 C 134.09 151.07 134.47 150.18 134.15 149.40 L 133.77 148.44 C 133.45 147.66 132.57 147.28 131.79 147.59 C 131.01 147.91 130.63 148.79 130.94 149.57 Z M 131.33 150.48 L 131.75 151.62 C 132.03 152.40 132.89 152.80 133.67 152.52 C 134.45 152.23 134.85 151.37 134.57 150.59 L 134.15 149.45 C 133.87 148.67 133.00 148.27 132.23 148.56 C 131.45 148.84 131.04 149.70 131.33 150.48 Z M 132.08 152.12 L 132.18 152.23 C 132.74 152.82 133.68 152.85 134.27 152.29 C 134.87 151.73 134.89 150.79 134.33 150.19 L 134.23 150.09 C 133.67 149.49 132.74 149.47 132.14 150.03 C 131.55 150.59 131.52 151.53 132.08 152.12 Z M 134.68 150.85 L 134.39 149.69 C 134.19 148.90 133.40 148.42 132.61 148.62 C 131.82 148.82 131.35 149.61 131.54 150.40 L 131.83 151.57 C 132.03 152.35 132.83 152.83 133.61 152.63 C 134.40 152.44 134.88 151.64 134.68 150.85 Z M 134.39 149.70 L 134.16 148.74 C 133.97 147.96 133.18 147.47 132.39 147.66 C 131.60 147.85 131.12 148.65 131.31 149.43 L 131.54 150.39 C 131.73 151.18 132.52 151.66 133.31 151.47 C 134.10 151.28 134.58 150.49 134.39 149.70 Z M 134.19 148.83 L 134.02 147.88 C 133.87 147.08 133.11 146.54 132.30 146.69 C 131.50 146.83 130.96 147.60 131.11 148.40 L 131.28 149.35 C 131.43 150.16 132.19 150.69 133.00 150.54 C 133.80 150.40 134.33 149.63 134.19 148.83 Z M 134.05 147.98 L 133.94 146.97 C 133.85 146.16 133.11 145.56 132.29 145.65 C 131.47 145.75 130.88 146.48 130.97 147.30 L 131.08 148.31 C 131.17 149.12 131.91 149.72 132.73 149.63 C 133.55 149.53 134.14 148.80 134.05 147.98 Z M 133.96 147.08 L 133.92 146.02 C 133.89 145.18 133.19 144.54 132.35 144.57 C 131.52 144.60 130.87 145.30 130.91 146.13 L 130.95 147.20 C 130.98 148.03 131.68 148.68 132.51 148.64 C 133.34 148.61 133.99 147.91 133.96 147.08 Z M 133.93 146.18 L 134.01 145.16 C 134.06 144.32 133.43 143.59 132.59 143.53 C 131.75 143.47 131.02 144.11 130.96 144.95 L 130.89 145.97 C 130.83 146.81 131.46 147.54 132.30 147.60 C 133.14 147.65 133.87 147.02 133.93 146.18 Z M 133.95 145.52 L 134.25 144.61 C 134.51 143.80 134.06 142.93 133.25 142.67 C 132.44 142.41 131.57 142.85 131.31 143.66 L 131.02 144.58 C 130.76 145.39 131.20 146.26 132.01 146.52 C 132.82 146.78 133.69 146.33 133.95 145.52 Z M 133.94 145.16 L 134.59 144.43 C 135.15 143.79 135.09 142.81 134.45 142.24 C 133.81 141.68 132.83 141.74 132.26 142.38 L 131.62 143.11 C 131.05 143.75 131.11 144.73 131.75 145.30 C 132.39 145.86 133.37 145.80 133.94 145.16 Z M 134.26 144.72 L 135.07 144.20 C 135.79 143.74 136.01 142.78 135.55 142.06 C 135.09 141.33 134.13 141.12 133.40 141.58 L 132.59 142.09 C 131.87 142.55 131.65 143.51 132.11 144.24 C 132.57 144.96 133.53 145.18 134.26 144.72 Z M 134.88 144.31 L 135.80 143.89 C 136.58 143.53 136.92 142.61 136.57 141.83 C 136.21 141.05 135.29 140.70 134.51 141.06 L 133.59 141.48 C 132.81 141.83 132.46 142.76 132.82 143.54 C 133.18 144.32 134.10 144.66 134.88 144.31 Z M 135.67 143.94 L 136.60 143.61 C 137.41 143.32 137.83 142.43 137.54 141.62 C 137.26 140.81 136.37 140.39 135.56 140.68 L 134.63 141.01 C 133.82 141.29 133.40 142.18 133.69 142.99 C 133.97 143.80 134.86 144.23 135.67 143.94 Z M 136.51 143.64 L 137.47 143.36 C 138.30 143.12 138.77 142.26 138.53 141.43 C 138.30 140.61 137.43 140.13 136.61 140.37 L 135.65 140.65 C 134.82 140.89 134.35 141.75 134.59 142.58 C 134.82 143.40 135.69 143.88 136.51 143.64 Z M 137.40 143.38 L 138.40 143.14 C 139.24 142.94 139.76 142.10 139.56 141.27 C 139.36 140.43 138.52 139.92 137.68 140.11 L 136.68 140.35 C 135.85 140.55 135.33 141.39 135.53 142.22 C 135.73 143.06 136.56 143.58 137.40 143.38 Z M 138.35 143.15 L 139.31 142.96 C 140.16 142.79 140.70 141.98 140.54 141.13 C 140.37 140.29 139.55 139.74 138.71 139.91 L 137.74 140.10 C 136.90 140.27 136.35 141.09 136.52 141.93 C 136.69 142.77 137.50 143.32 138.35 143.15 Z M 139.28 142.97 L 140.28 142.80 C 141.12 142.65 141.69 141.85 141.54 141.00 C 141.40 140.15 140.59 139.59 139.75 139.73 L 138.75 139.90 C 137.90 140.05 137.33 140.85 137.48 141.70 C 137.63 142.55 138.43 143.11 139.28 142.97 Z M 140.25 142.80 L 141.25 142.64 C 142.09 142.51 142.67 141.72 142.54 140.87 C 142.41 140.02 141.61 139.44 140.76 139.57 L 139.77 139.73 C 138.92 139.86 138.34 140.66 138.48 141.50 C 138.61 142.35 139.40 142.93 140.25 142.80 Z M 141.22 142.65 L 142.20 142.51 C 143.05 142.39 143.65 141.61 143.53 140.76 C 143.41 139.91 142.63 139.32 141.78 139.43 L 140.79 139.57 C 139.94 139.69 139.35 140.47 139.47 141.32 C 139.58 142.17 140.37 142.76 141.22 142.65 Z M 142.16 142.51 L 143.16 142.41 C 144.01 142.32 144.63 141.55 144.54 140.70 C 144.44 139.85 143.68 139.23 142.83 139.32 L 141.83 139.43 C 140.97 139.52 140.36 140.29 140.45 141.14 C 140.54 141.99 141.31 142.61 142.16 142.51 Z M 143.10 142.41 L 144.14 142.34 C 144.99 142.28 145.64 141.55 145.58 140.69 C 145.53 139.84 144.79 139.19 143.93 139.25 L 142.89 139.32 C 142.04 139.37 141.39 140.11 141.45 140.97 C 141.50 141.82 142.24 142.47 143.10 142.41 Z M 144.09 142.34 L 145.11 142.31 C 145.96 142.28 146.63 141.57 146.60 140.71 C 146.58 139.86 145.86 139.19 145.01 139.21 L 143.99 139.25 C 143.13 139.27 142.46 139.99 142.49 140.84 C 142.51 141.70 143.23 142.37 144.09 142.34 Z M 145.07 142.31 L 146.05 142.31 C 146.91 142.30 147.60 141.60 147.59 140.74 C 147.58 139.89 146.88 139.20 146.03 139.21 L 145.04 139.21 C 144.19 139.22 143.50 139.92 143.51 140.77 C 143.51 141.63 144.21 142.32 145.07 142.31 Z M 145.86 142.30 L 146.95 142.42 C 147.80 142.52 148.57 141.91 148.67 141.05 C 148.76 140.20 148.15 139.43 147.30 139.34 L 146.21 139.21 C 145.36 139.12 144.59 139.73 144.50 140.58 C 144.40 141.43 145.01 142.20 145.86 142.30 Z M 145.64 141.35 L 145.81 141.89 C 146.08 142.71 146.95 143.16 147.77 142.90 C 148.59 142.63 149.04 141.76 148.78 140.94 L 148.61 140.40 C 148.34 139.58 147.47 139.13 146.65 139.40 C 145.83 139.66 145.38 140.54 145.64 141.35 Z M 145.97 140.60 L 145.44 141.47 C 144.99 142.20 145.22 143.16 145.95 143.61 C 146.69 144.06 147.65 143.83 148.10 143.09 L 148.63 142.23 C 149.08 141.49 148.84 140.53 148.11 140.08 C 147.38 139.63 146.42 139.87 145.97 140.60 Z M 145.59 141.26 L 144.84 142.11 C 144.28 142.76 144.35 143.75 144.99 144.31 C 145.64 144.88 146.63 144.81 147.19 144.16 L 147.94 143.30 C 148.50 142.66 148.44 141.67 147.79 141.11 C 147.14 140.54 146.16 140.61 145.59 141.26 Z M 144.91 142.04 L 144.20 142.76 C 143.60 143.37 143.60 144.35 144.21 144.96 C 144.82 145.56 145.80 145.56 146.41 144.95 L 147.12 144.23 C 147.72 143.62 147.72 142.64 147.11 142.04 C 146.50 141.43 145.52 141.43 144.91 142.04 Z M 144.24 142.73 L 143.50 143.42 C 142.88 144.01 142.85 144.99 143.44 145.61 C 144.02 146.24 145.00 146.27 145.63 145.68 L 146.37 144.98 C 146.99 144.40 147.02 143.42 146.43 142.79 C 145.85 142.17 144.87 142.14 144.24 142.73 Z M 143.53 143.41 L 142.76 144.10 C 142.13 144.68 142.08 145.65 142.65 146.28 C 143.22 146.92 144.19 146.97 144.83 146.39 L 145.60 145.70 C 146.23 145.13 146.28 144.15 145.71 143.52 C 145.14 142.89 144.16 142.84 143.53 143.41 Z M 142.79 144.09 L 142.03 144.76 C 141.39 145.31 141.32 146.28 141.88 146.91 C 142.43 147.55 143.40 147.62 144.03 147.07 L 144.80 146.40 C 145.43 145.85 145.50 144.88 144.95 144.25 C 144.39 143.61 143.43 143.54 142.79 144.09 Z M 142.06 144.74 L 141.34 145.34 C 140.69 145.88 140.60 146.83 141.14 147.48 C 141.67 148.12 142.62 148.21 143.27 147.68 L 144.00 147.08 C 144.64 146.55 144.73 145.59 144.20 144.95 C 143.66 144.30 142.71 144.21 142.06 144.74 Z M 141.38 145.33 L 140.58 145.96 C 139.92 146.47 139.81 147.41 140.31 148.06 C 140.82 148.71 141.76 148.83 142.42 148.32 L 143.22 147.69 C 143.88 147.18 143.99 146.24 143.48 145.59 C 142.98 144.94 142.04 144.82 141.38 145.33 Z M 140.63 145.95 L 139.83 146.52 C 139.17 147.00 139.03 147.92 139.50 148.58 C 139.98 149.24 140.90 149.39 141.56 148.91 L 142.36 148.34 C 143.02 147.86 143.17 146.94 142.69 146.28 C 142.21 145.62 141.29 145.47 140.63 145.95 Z M 139.90 146.50 L 139.09 147.03 C 138.42 147.47 138.23 148.38 138.67 149.05 C 139.11 149.72 140.02 149.91 140.69 149.47 L 141.50 148.94 C 142.17 148.49 142.36 147.59 141.92 146.92 C 141.48 146.24 140.57 146.06 139.90 146.50 Z M 139.18 146.99 L 138.31 147.48 C 137.61 147.88 137.37 148.76 137.76 149.45 C 138.15 150.15 139.03 150.39 139.73 150.00 L 140.60 149.51 C 141.30 149.11 141.54 148.23 141.15 147.54 C 140.76 146.84 139.87 146.60 139.18 146.99 Z M 138.40 147.44 L 137.52 147.86 C 136.80 148.20 136.49 149.06 136.83 149.78 C 137.17 150.49 138.03 150.80 138.75 150.46 L 139.63 150.04 C 140.35 149.70 140.66 148.84 140.32 148.13 C 139.98 147.41 139.12 147.10 138.40 147.44 Z M 137.58 147.84 L 136.65 148.23 C 135.92 148.54 135.58 149.38 135.89 150.10 C 136.19 150.83 137.03 151.17 137.76 150.87 L 138.68 150.48 C 139.41 150.17 139.76 149.34 139.45 148.61 C 139.14 147.88 138.31 147.54 137.58 147.84 Z M 136.68 148.22 L 135.80 148.58 C 135.06 148.87 134.71 149.70 135.00 150.43 C 135.29 151.16 136.12 151.52 136.85 151.23 L 137.73 150.88 C 138.47 150.58 138.82 149.75 138.53 149.02 C 138.24 148.29 137.41 147.93 136.68 148.22 Z"
      fill="black"
      fill-rule="nonzero" /><path d="M 138.45 127.49 L 138.34 126.51 C 138.25 125.69 137.51 125.10 136.69 125.20 C 135.87 125.29 135.29 126.03 135.38 126.85 L 135.50 127.83 C 135.59 128.65 136.33 129.24 137.14 129.14 C 137.96 129.05 138.55 128.31 138.45 127.49 Z M 135.37 126.98 L 135.51 127.67 C 135.68 128.49 136.48 129.02 137.30 128.85 C 138.12 128.68 138.65 127.88 138.49 127.06 L 138.35 126.37 C 138.18 125.55 137.38 125.02 136.56 125.19 C 135.74 125.36 135.21 126.16 135.37 126.98 Z M 135.51 127.72 L 135.79 128.93 C 135.99 129.75 136.81 130.26 137.64 130.07 C 138.46 129.87 138.97 129.05 138.78 128.22 L 138.49 127.01 C 138.30 126.19 137.47 125.68 136.65 125.87 C 135.83 126.07 135.31 126.89 135.51 127.72 Z M 135.80 129.00 L 136.08 129.99 C 136.32 130.81 137.17 131.28 137.99 131.05 C 138.81 130.82 139.29 129.96 139.05 129.14 L 138.77 128.15 C 138.54 127.33 137.68 126.86 136.86 127.09 C 136.04 127.32 135.57 128.18 135.80 129.00 Z M 136.08 130.01 L 136.36 130.94 C 136.60 131.76 137.47 132.22 138.29 131.98 C 139.11 131.74 139.57 130.87 139.33 130.05 L 139.05 129.12 C 138.81 128.30 137.94 127.84 137.12 128.08 C 136.31 128.33 135.84 129.19 136.08 130.01 Z M 136.35 130.92 L 136.63 131.92 C 136.86 132.74 137.72 133.23 138.55 132.99 C 139.37 132.76 139.85 131.90 139.62 131.08 L 139.34 130.07 C 139.11 129.25 138.25 128.77 137.42 129.00 C 136.60 129.23 136.12 130.09 136.35 130.92 Z M 136.62 131.89 L 136.86 132.81 C 137.08 133.64 137.93 134.14 138.76 133.92 C 139.59 133.70 140.09 132.85 139.87 132.02 L 139.63 131.10 C 139.42 130.27 138.56 129.77 137.73 129.99 C 136.90 130.21 136.40 131.06 136.62 131.89 Z M 136.85 132.79 L 137.10 133.76 C 137.31 134.60 138.15 135.10 138.99 134.89 C 139.83 134.68 140.33 133.83 140.12 133.00 L 139.88 132.03 C 139.67 131.19 138.82 130.69 137.98 130.90 C 137.15 131.11 136.64 131.96 136.85 132.79 Z M 137.09 133.74 L 137.32 134.72 C 137.52 135.56 138.37 136.08 139.21 135.88 C 140.05 135.68 140.57 134.84 140.37 133.99 L 140.13 133.01 C 139.93 132.17 139.09 131.66 138.24 131.86 C 137.40 132.06 136.89 132.90 137.09 133.74 Z M 137.31 134.71 L 137.53 135.68 C 137.72 136.52 138.56 137.05 139.41 136.86 C 140.26 136.67 140.79 135.83 140.59 134.99 L 140.37 134.01 C 140.18 133.17 139.34 132.64 138.50 132.83 C 137.65 133.02 137.12 133.86 137.31 134.71 Z M 137.53 135.66 L 137.74 136.63 C 137.92 137.48 138.76 138.02 139.60 137.84 C 140.45 137.65 140.99 136.82 140.81 135.97 L 140.60 135.00 C 140.42 134.15 139.58 133.61 138.73 133.80 C 137.88 133.98 137.34 134.82 137.53 135.66 Z M 137.73 136.61 L 137.93 137.59 C 138.10 138.45 138.93 139.00 139.78 138.83 C 140.63 138.66 141.19 137.83 141.02 136.97 L 140.82 135.99 C 140.65 135.14 139.82 134.58 138.96 134.76 C 138.11 134.93 137.56 135.76 137.73 136.61 Z M 137.92 137.56 L 138.09 138.54 C 138.24 139.40 139.06 139.97 139.92 139.82 C 140.78 139.66 141.35 138.84 141.20 137.99 L 141.02 137.01 C 140.87 136.15 140.05 135.58 139.20 135.73 C 138.34 135.88 137.76 136.70 137.92 137.56 Z M 138.08 138.51 L 138.24 139.50 C 138.37 140.36 139.18 140.95 140.05 140.81 C 140.91 140.68 141.50 139.87 141.36 139.01 L 141.20 138.02 C 141.07 137.15 140.26 136.57 139.40 136.70 C 138.54 136.84 137.95 137.65 138.08 138.51 Z M 138.24 139.48 L 138.38 140.48 C 138.51 141.34 139.31 141.94 140.18 141.81 C 141.04 141.68 141.64 140.88 141.51 140.02 L 141.36 139.02 C 141.24 138.16 140.43 137.56 139.57 137.69 C 138.71 137.81 138.11 138.62 138.24 139.48 Z M 138.38 140.46 L 138.52 141.45 C 138.64 142.32 139.44 142.92 140.30 142.80 C 141.17 142.68 141.77 141.88 141.65 141.01 L 141.51 140.03 C 141.39 139.16 140.59 138.56 139.73 138.68 C 138.86 138.80 138.26 139.60 138.38 140.46 Z M 138.51 141.43 L 138.64 142.44 C 138.75 143.30 139.55 143.92 140.41 143.81 C 141.28 143.69 141.89 142.90 141.78 142.03 L 141.65 141.03 C 141.54 140.16 140.75 139.55 139.88 139.66 C 139.01 139.77 138.40 140.57 138.51 141.43 Z M 138.64 142.42 L 138.75 143.39 C 138.85 144.26 139.64 144.88 140.51 144.78 C 141.38 144.68 142.00 143.89 141.90 143.02 L 141.79 142.05 C 141.69 141.18 140.90 140.56 140.03 140.66 C 139.16 140.76 138.54 141.55 138.64 142.42 Z M 138.75 143.38 L 138.85 144.38 C 138.95 145.25 139.73 145.89 140.60 145.79 C 141.47 145.70 142.10 144.92 142.01 144.05 L 141.90 143.04 C 141.81 142.17 141.03 141.53 140.16 141.63 C 139.28 141.72 138.65 142.50 138.75 143.38 Z M 138.85 144.38 L 138.96 145.38 C 139.04 146.25 139.82 146.89 140.70 146.80 C 141.57 146.71 142.20 145.93 142.12 145.06 L 142.01 144.05 C 141.92 143.18 141.14 142.55 140.27 142.63 C 139.40 142.72 138.76 143.50 138.85 144.38 Z M 138.95 145.37 L 139.05 146.38 C 139.13 147.25 139.91 147.89 140.78 147.81 C 141.66 147.72 142.30 146.95 142.21 146.07 L 142.12 145.07 C 142.03 144.19 141.26 143.55 140.38 143.64 C 139.51 143.72 138.87 144.50 138.95 145.37 Z M 139.05 146.36 L 139.13 147.35 C 139.21 148.22 139.98 148.87 140.85 148.80 C 141.72 148.72 142.37 147.96 142.30 147.08 L 142.22 146.09 C 142.14 145.21 141.37 144.57 140.50 144.64 C 139.62 144.71 138.97 145.48 139.05 146.36 Z M 139.13 147.32 L 139.20 148.34 C 139.26 149.22 140.02 149.88 140.89 149.82 C 141.77 149.76 142.43 149.00 142.37 148.13 L 142.30 147.11 C 142.24 146.23 141.48 145.57 140.61 145.63 C 139.73 145.69 139.07 146.45 139.13 147.32 Z M 139.20 148.32 L 139.25 149.30 C 139.29 150.18 140.04 150.85 140.92 150.81 C 141.79 150.76 142.47 150.02 142.42 149.14 L 142.37 148.15 C 142.33 147.28 141.58 146.60 140.70 146.65 C 139.83 146.69 139.15 147.44 139.20 148.32 Z M 139.25 149.28 L 139.29 150.27 C 139.32 151.15 140.06 151.83 140.94 151.80 C 141.81 151.76 142.50 151.03 142.46 150.15 L 142.42 149.16 C 142.39 148.28 141.65 147.60 140.77 147.63 C 139.90 147.67 139.21 148.41 139.25 149.28 Z M 139.29 150.26 L 139.32 151.26 C 139.34 152.14 140.08 152.82 140.95 152.80 C 141.83 152.77 142.52 152.04 142.49 151.16 L 142.46 150.16 C 142.44 149.28 141.70 148.59 140.83 148.62 C 139.95 148.65 139.26 149.38 139.29 150.26 Z M 139.32 151.25 L 139.34 152.25 C 139.37 153.13 140.10 153.82 140.98 153.80 C 141.85 153.77 142.55 153.04 142.52 152.17 L 142.49 151.16 C 142.47 150.29 141.74 149.60 140.86 149.62 C 139.98 149.65 139.29 150.38 139.32 151.25 Z M 139.34 152.26 L 139.37 153.27 C 139.40 154.14 140.13 154.83 141.01 154.81 C 141.88 154.79 142.57 154.05 142.55 153.18 L 142.52 152.17 C 142.50 151.29 141.76 150.60 140.89 150.62 C 140.01 150.65 139.32 151.38 139.34 152.26 Z M 139.37 153.26 L 139.40 154.26 C 139.42 155.13 140.15 155.83 141.02 155.80 C 141.90 155.78 142.59 155.06 142.57 154.18 L 142.55 153.18 C 142.53 152.31 141.80 151.61 140.92 151.64 C 140.05 151.66 139.35 152.38 139.37 153.26 Z M 139.40 154.24 L 139.41 155.25 C 139.43 156.13 140.15 156.83 141.02 156.81 C 141.90 156.80 142.60 156.08 142.59 155.20 L 142.57 154.20 C 142.56 153.32 141.84 152.62 140.96 152.63 C 140.09 152.64 139.39 153.36 139.40 154.24 Z M 139.41 155.23 L 139.42 156.23 C 139.42 157.11 140.13 157.81 141.01 157.81 C 141.89 157.81 142.59 157.09 142.59 156.22 L 142.58 155.22 C 142.58 154.34 141.87 153.64 140.99 153.64 C 140.12 153.64 139.41 154.36 139.41 155.23 Z M 139.42 156.22 L 139.42 157.21 C 139.42 158.08 140.13 158.79 141.00 158.79 C 141.88 158.79 142.59 158.08 142.59 157.21 L 142.59 156.22 C 142.59 155.35 141.88 154.64 141.00 154.64 C 140.13 154.64 139.42 155.35 139.42 156.22 Z M 139.42 157.21 L 139.42 158.20 C 139.42 159.08 140.13 159.79 141.00 159.79 C 141.88 159.79 142.59 159.08 142.59 158.20 L 142.59 157.21 C 142.59 156.33 141.88 155.63 141.00 155.63 C 140.13 155.63 139.42 156.33 139.42 157.21 Z M 139.42 158.20 L 139.42 159.21 C 139.42 160.09 140.13 160.79 141.00 160.79 C 141.88 160.79 142.58 160.09 142.58 159.21 L 142.58 158.20 C 142.58 157.33 141.88 156.62 141.00 156.62 C 140.13 156.62 139.42 157.33 139.42 158.20 Z M 139.43 159.21 L 139.42 160.23 C 139.42 161.10 140.12 161.81 140.99 161.82 C 141.86 161.82 142.57 161.12 142.58 160.25 L 142.58 159.22 C 142.58 158.35 141.88 157.64 141.01 157.64 C 140.14 157.63 139.43 158.34 139.43 159.21 Z M 139.43 160.21 L 139.41 161.17 C 139.39 162.04 140.08 162.76 140.95 162.78 C 141.81 162.80 142.53 162.11 142.55 161.24 L 142.57 160.27 C 142.59 159.40 141.90 158.69 141.03 158.67 C 140.16 158.65 139.45 159.34 139.43 160.21 Z M 139.41 161.11 L 139.36 162.01 C 139.31 162.88 139.97 163.62 140.83 163.67 C 141.70 163.72 142.44 163.06 142.49 162.20 L 142.55 161.30 C 142.60 160.43 141.94 159.69 141.07 159.64 C 140.21 159.59 139.46 160.25 139.41 161.11 Z M 139.37 161.94 L 139.26 163.01 C 139.17 163.87 139.80 164.64 140.66 164.73 C 141.52 164.82 142.29 164.19 142.38 163.33 L 142.49 162.26 C 142.57 161.40 141.95 160.63 141.08 160.54 C 140.22 160.46 139.45 161.08 139.37 161.94 Z M 139.26 162.98 L 139.15 163.92 C 139.04 164.78 139.65 165.56 140.51 165.66 C 141.37 165.77 142.15 165.16 142.26 164.30 L 142.37 163.36 C 142.48 162.50 141.87 161.72 141.01 161.62 C 140.15 161.51 139.37 162.12 139.26 162.98 Z M 139.15 163.90 L 139.02 164.91 C 138.90 165.77 139.50 166.56 140.36 166.67 C 141.21 166.79 142.00 166.18 142.12 165.33 L 142.25 164.32 C 142.37 163.46 141.77 162.68 140.91 162.56 C 140.05 162.45 139.27 163.05 139.15 163.90 Z M 139.02 164.89 L 138.87 165.94 C 138.74 166.79 139.33 167.58 140.19 167.71 C 141.04 167.83 141.83 167.24 141.96 166.39 L 142.11 165.35 C 142.24 164.50 141.65 163.70 140.79 163.58 C 139.94 163.45 139.15 164.04 139.02 164.89 Z M 138.88 165.90 L 138.67 167.14 C 138.52 167.99 139.10 168.80 139.95 168.94 C 140.79 169.08 141.60 168.51 141.74 167.66 L 141.95 166.42 C 142.09 165.57 141.52 164.77 140.67 164.63 C 139.82 164.48 139.02 165.06 138.88 165.90 Z M 138.69 167.07 L 138.45 168.16 C 138.27 169.00 138.80 169.82 139.64 170.01 C 140.47 170.19 141.30 169.66 141.48 168.82 L 141.72 167.73 C 141.90 166.90 141.37 166.07 140.54 165.89 C 139.70 165.70 138.87 166.23 138.69 167.07 Z M 138.85 167.44 L 138.68 167.61 C 138.10 168.23 138.13 169.20 138.75 169.78 C 139.37 170.37 140.34 170.34 140.92 169.72 L 141.09 169.55 C 141.67 168.93 141.64 167.95 141.02 167.37 C 140.40 166.79 139.43 166.82 138.85 167.44 Z M 141.30 168.59 L 141.25 167.54 C 141.21 166.71 140.51 166.07 139.68 166.11 C 138.86 166.15 138.22 166.85 138.25 167.68 L 138.30 168.74 C 138.34 169.56 139.05 170.20 139.87 170.16 C 140.70 170.12 141.34 169.42 141.30 168.59 Z M 141.21 167.61 L 141.21 166.43 C 141.21 165.63 140.56 164.97 139.75 164.97 C 138.94 164.98 138.29 165.63 138.29 166.44 L 138.29 167.61 C 138.29 168.42 138.95 169.07 139.75 169.07 C 140.56 169.07 141.21 168.42 141.21 167.61 Z M 141.19 166.43 L 141.19 165.46 C 141.19 164.66 140.55 164.02 139.75 164.02 C 138.96 164.02 138.31 164.66 138.31 165.46 L 138.31 166.43 C 138.31 167.23 138.96 167.87 139.75 167.87 C 140.55 167.87 141.19 167.23 141.19 166.43 Z M 141.18 165.46 L 141.18 165.10 C 141.18 164.31 140.54 163.67 139.75 163.67 C 138.96 163.67 138.32 164.31 138.32 165.10 L 138.32 165.46 C 138.32 166.25 138.96 166.89 139.75 166.89 C 140.54 166.89 141.18 166.25 141.18 165.46 Z"
      fill="black"
      fill-rule="nonzero" /><path d="M 140.20 153.28 L 140.15 152.10 C 140.12 151.26 139.42 150.61 138.58 150.65 C 137.74 150.68 137.09 151.38 137.13 152.22 L 137.18 153.40 C 137.21 154.24 137.91 154.89 138.75 154.85 C 139.59 154.82 140.24 154.12 140.20 153.28 Z M 138.10 150.69 L 137.79 150.80 C 136.97 151.10 136.56 152.00 136.85 152.81 C 137.15 153.62 138.05 154.04 138.86 153.75 L 139.18 153.63 C 139.99 153.33 140.41 152.43 140.11 151.62 C 139.82 150.81 138.92 150.39 138.10 150.69 Z M 136.90 151.58 L 136.37 152.65 C 135.98 153.44 136.31 154.39 137.09 154.78 C 137.88 155.17 138.83 154.84 139.22 154.05 L 139.75 152.97 C 140.13 152.19 139.81 151.24 139.02 150.85 C 138.24 150.46 137.28 150.79 136.90 151.58 Z M 136.39 152.60 L 135.92 153.47 C 135.50 154.24 135.79 155.21 136.56 155.63 C 137.34 156.05 138.31 155.76 138.72 154.98 L 139.20 154.11 C 139.61 153.34 139.33 152.37 138.55 151.95 C 137.78 151.53 136.81 151.82 136.39 152.60 Z M 135.96 153.40 L 135.45 154.24 C 134.99 154.99 135.23 155.98 135.99 156.43 C 136.74 156.89 137.72 156.65 138.18 155.89 L 138.69 155.05 C 139.15 154.30 138.90 153.32 138.15 152.86 C 137.39 152.40 136.41 152.64 135.96 153.40 Z M 135.47 154.19 L 134.93 155.02 C 134.45 155.76 134.66 156.75 135.40 157.24 C 136.14 157.72 137.13 157.51 137.61 156.77 L 138.15 155.94 C 138.64 155.20 138.43 154.21 137.69 153.73 C 136.95 153.24 135.96 153.45 135.47 154.19 Z M 134.95 154.99 L 134.39 155.82 C 133.89 156.54 134.07 157.54 134.80 158.04 C 135.53 158.54 136.53 158.35 137.03 157.62 L 137.59 156.80 C 138.09 156.07 137.91 155.07 137.18 154.57 C 136.45 154.08 135.45 154.26 134.95 154.99 Z M 134.41 155.79 L 133.85 156.56 C 133.34 157.28 133.50 158.28 134.22 158.79 C 134.94 159.31 135.94 159.14 136.46 158.42 L 137.01 157.65 C 137.52 156.93 137.36 155.93 136.64 155.42 C 135.92 154.90 134.92 155.07 134.41 155.79 Z M 133.88 156.53 L 133.24 157.38 C 132.71 158.08 132.85 159.09 133.55 159.62 C 134.26 160.15 135.26 160.01 135.79 159.30 L 136.43 158.46 C 136.97 157.75 136.82 156.75 136.12 156.21 C 135.41 155.68 134.41 155.82 133.88 156.53 Z M 133.26 157.35 L 132.63 158.15 C 132.08 158.84 132.20 159.85 132.89 160.39 C 133.59 160.94 134.59 160.82 135.14 160.13 L 135.77 159.33 C 136.32 158.64 136.20 157.63 135.51 157.08 C 134.81 156.54 133.81 156.65 133.26 157.35 Z M 132.65 158.13 L 132.00 158.92 C 131.44 159.61 131.54 160.61 132.22 161.17 C 132.91 161.73 133.91 161.63 134.47 160.95 L 135.12 160.15 C 135.68 159.47 135.58 158.46 134.90 157.90 C 134.21 157.34 133.21 157.44 132.65 158.13 Z M 132.01 158.91 L 131.37 159.66 C 130.81 160.34 130.89 161.35 131.57 161.92 C 132.25 162.48 133.25 162.40 133.82 161.72 L 134.46 160.96 C 135.02 160.29 134.94 159.28 134.26 158.71 C 133.59 158.14 132.58 158.23 132.01 158.91 Z M 131.40 159.65 L 130.69 160.46 C 130.11 161.12 130.18 162.13 130.84 162.70 C 131.51 163.28 132.51 163.21 133.09 162.55 L 133.80 161.74 C 134.38 161.08 134.31 160.07 133.64 159.49 C 132.98 158.91 131.98 158.98 131.40 159.65 Z M 130.72 160.43 L 130.07 161.14 C 129.48 161.79 129.52 162.79 130.17 163.38 C 130.81 163.97 131.81 163.93 132.40 163.29 L 133.06 162.58 C 133.65 161.93 133.60 160.93 132.96 160.34 C 132.32 159.75 131.31 159.79 130.72 160.43 Z M 130.12 161.12 L 129.45 161.80 C 128.84 162.42 128.85 163.41 129.47 164.02 C 130.09 164.62 131.08 164.61 131.69 163.99 L 132.36 163.31 C 132.97 162.69 132.96 161.70 132.34 161.09 C 131.72 160.49 130.72 160.50 130.12 161.12 Z M 129.55 161.73 L 128.80 162.38 C 128.16 162.94 128.09 163.92 128.65 164.57 C 129.22 165.21 130.20 165.28 130.84 164.72 L 131.59 164.06 C 132.24 163.50 132.30 162.52 131.74 161.88 C 131.18 161.23 130.20 161.16 129.55 161.73 Z M 129.01 162.25 L 128.18 162.78 C 127.46 163.23 127.25 164.17 127.70 164.89 C 128.15 165.60 129.09 165.82 129.81 165.37 L 130.64 164.84 C 131.35 164.39 131.57 163.45 131.12 162.73 C 130.67 162.02 129.72 161.80 129.01 162.25 Z M 128.36 162.70 L 127.45 163.12 C 126.70 163.46 126.36 164.36 126.71 165.12 C 127.06 165.87 127.95 166.21 128.71 165.86 L 129.62 165.44 C 130.38 165.10 130.71 164.20 130.36 163.44 C 130.02 162.69 129.12 162.35 128.36 162.70 Z M 127.52 163.11 L 126.99 163.32 C 126.23 163.63 125.86 164.50 126.17 165.26 C 126.48 166.03 127.35 166.39 128.11 166.08 L 128.64 165.87 C 129.40 165.56 129.77 164.69 129.46 163.93 C 129.15 163.16 128.28 162.80 127.52 163.11 Z"
      fill="black"
      fill-rule="nonzero" /><path d="M 139.67 155.82 L 140.63 156.09 C 141.41 156.31 142.23 155.86 142.45 155.08 C 142.67 154.30 142.22 153.48 141.44 153.26 L 140.48 152.99 C 139.70 152.77 138.89 153.22 138.66 154.00 C 138.44 154.78 138.89 155.59 139.67 155.82 Z M 140.54 156.07 L 141.46 156.40 C 142.23 156.67 143.08 156.27 143.35 155.50 C 143.62 154.73 143.22 153.88 142.45 153.61 L 141.53 153.28 C 140.76 153.01 139.92 153.41 139.64 154.18 C 139.37 154.95 139.77 155.80 140.54 156.07 Z M 141.37 156.38 L 142.30 156.78 C 143.06 157.10 143.94 156.74 144.26 155.98 C 144.59 155.22 144.23 154.34 143.47 154.02 L 142.54 153.63 C 141.78 153.30 140.90 153.66 140.58 154.42 C 140.26 155.18 140.61 156.06 141.37 156.38 Z M 142.29 156.79 L 143.13 157.15 C 143.89 157.47 144.78 157.12 145.11 156.35 C 145.44 155.58 145.08 154.69 144.32 154.37 L 143.48 154.01 C 142.71 153.68 141.83 154.04 141.50 154.80 C 141.17 155.57 141.52 156.46 142.29 156.79 Z M 143.11 157.15 L 144.06 157.56 C 144.83 157.90 145.72 157.55 146.06 156.78 C 146.39 156.01 146.04 155.11 145.27 154.78 L 144.33 154.36 C 143.56 154.03 142.66 154.38 142.33 155.15 C 141.99 155.92 142.34 156.81 143.11 157.15 Z M 144.03 157.56 L 144.98 157.99 C 145.75 158.34 146.65 158.01 147.00 157.24 C 147.36 156.48 147.02 155.57 146.25 155.22 L 145.30 154.78 C 144.54 154.43 143.63 154.77 143.28 155.53 C 142.93 156.30 143.26 157.20 144.03 157.56 Z M 144.96 157.99 L 145.88 158.43 C 146.64 158.79 147.56 158.46 147.92 157.70 C 148.28 156.94 147.96 156.03 147.20 155.66 L 146.28 155.23 C 145.51 154.86 144.60 155.19 144.24 155.95 C 143.87 156.71 144.20 157.62 144.96 157.99 Z M 145.87 158.42 L 146.79 158.87 C 147.55 159.24 148.46 158.93 148.83 158.17 C 149.21 157.41 148.89 156.49 148.13 156.12 L 147.21 155.67 C 146.45 155.30 145.54 155.61 145.16 156.37 C 144.79 157.13 145.11 158.05 145.87 158.42 Z M 146.77 158.86 L 147.73 159.35 C 148.49 159.73 149.41 159.42 149.79 158.67 C 150.17 157.91 149.86 156.99 149.11 156.61 L 148.15 156.13 C 147.39 155.75 146.47 156.05 146.09 156.81 C 145.71 157.56 146.02 158.48 146.77 158.86 Z M 147.71 159.33 L 148.61 159.80 C 149.35 160.19 150.28 159.91 150.67 159.16 C 151.06 158.41 150.77 157.49 150.03 157.10 L 149.13 156.63 C 148.39 156.23 147.46 156.52 147.07 157.27 C 146.68 158.01 146.96 158.94 147.71 159.33 Z M 148.57 159.77 L 149.37 160.22 C 150.10 160.63 151.02 160.38 151.44 159.65 C 151.85 158.92 151.59 157.99 150.86 157.58 L 150.06 157.13 C 149.33 156.71 148.41 156.97 148.00 157.70 C 147.58 158.43 147.84 159.36 148.57 159.77 Z M 149.33 160.17 L 150.18 160.70 C 150.88 161.14 151.81 160.92 152.24 160.22 C 152.68 159.52 152.46 158.59 151.76 158.16 L 150.91 157.63 C 150.20 157.19 149.28 157.41 148.84 158.11 C 148.41 158.81 148.62 159.74 149.33 160.17 Z M 150.17 160.67 L 150.55 160.92 C 151.23 161.36 152.15 161.17 152.59 160.48 C 153.04 159.80 152.84 158.88 152.16 158.44 L 151.78 158.19 C 151.09 157.75 150.18 157.94 149.73 158.63 C 149.29 159.31 149.48 160.23 150.17 160.67 Z"
      fill="black"
      fill-rule="nonzero" /><path d="M 151.26 127.41 L 151.04 126.38 C 150.87 125.59 150.09 125.08 149.30 125.25 C 148.50 125.42 148.00 126.21 148.17 127.00 L 148.39 128.03 C 148.56 128.82 149.34 129.33 150.13 129.16 C 150.93 128.99 151.43 128.20 151.26 127.41 Z M 151.03 127.13 L 151.29 126.31 C 151.53 125.52 151.09 124.68 150.30 124.44 C 149.51 124.19 148.68 124.63 148.43 125.42 L 148.18 126.25 C 147.93 127.04 148.37 127.87 149.16 128.12 C 149.95 128.36 150.79 127.92 151.03 127.13 Z M 150.69 127.13 L 151.50 126.59 C 152.20 126.14 152.40 125.20 151.94 124.50 C 151.48 123.80 150.54 123.61 149.85 124.07 L 149.03 124.60 C 148.33 125.06 148.14 125.99 148.60 126.69 C 149.05 127.39 149.99 127.59 150.69 127.13 Z M 151.20 126.76 L 152.19 126.39 C 152.98 126.10 153.38 125.23 153.09 124.44 C 152.80 123.65 151.92 123.25 151.14 123.54 L 150.15 123.90 C 149.36 124.19 148.96 125.07 149.25 125.86 C 149.54 126.64 150.41 127.05 151.20 126.76 Z M 152.08 126.43 L 153.02 126.17 C 153.83 125.94 154.30 125.09 154.07 124.28 C 153.85 123.47 153.00 123.00 152.19 123.23 L 151.25 123.50 C 150.44 123.73 149.97 124.57 150.19 125.38 C 150.42 126.19 151.27 126.66 152.08 126.43 Z M 152.95 126.19 L 153.94 125.96 C 154.76 125.78 155.28 124.96 155.09 124.13 C 154.90 123.31 154.08 122.80 153.26 122.98 L 152.27 123.21 C 151.45 123.40 150.93 124.21 151.12 125.04 C 151.30 125.86 152.12 126.38 152.95 126.19 Z M 153.90 125.97 L 154.90 125.77 C 155.73 125.61 156.27 124.80 156.10 123.97 C 155.94 123.14 155.13 122.61 154.30 122.77 L 153.30 122.97 C 152.47 123.14 151.93 123.94 152.10 124.77 C 152.26 125.60 153.07 126.14 153.90 125.97 Z M 154.89 125.78 L 155.85 125.60 C 156.68 125.44 157.23 124.64 157.07 123.81 C 156.91 122.98 156.12 122.43 155.28 122.59 L 154.32 122.77 C 153.49 122.92 152.94 123.72 153.10 124.55 C 153.26 125.38 154.06 125.93 154.89 125.78 Z M 155.83 125.60 L 156.77 125.43 C 157.61 125.29 158.16 124.50 158.02 123.67 C 157.87 122.84 157.08 122.28 156.25 122.42 L 155.31 122.59 C 154.47 122.73 153.92 123.52 154.06 124.35 C 154.20 125.18 155.00 125.74 155.83 125.60 Z M 156.73 125.44 L 157.72 125.29 C 158.55 125.17 159.13 124.40 159.01 123.57 C 158.89 122.73 158.12 122.16 157.29 122.28 L 156.30 122.42 C 155.46 122.54 154.88 123.31 155.00 124.15 C 155.12 124.98 155.90 125.56 156.73 125.44 Z M 157.68 125.30 L 158.65 125.18 C 159.49 125.09 160.08 124.33 159.98 123.49 C 159.89 122.66 159.13 122.06 158.29 122.16 L 157.32 122.27 C 156.49 122.37 155.89 123.13 155.99 123.96 C 156.09 124.80 156.85 125.40 157.68 125.30 Z M 158.61 125.19 L 159.65 125.09 C 160.49 125.02 161.10 124.28 161.03 123.44 C 160.96 122.61 160.22 121.99 159.38 122.06 L 158.34 122.16 C 157.50 122.23 156.88 122.97 156.96 123.81 C 157.03 124.64 157.77 125.26 158.61 125.19 Z M 159.59 125.10 L 160.65 125.04 C 161.49 125.00 162.13 124.29 162.09 123.45 C 162.04 122.61 161.33 121.96 160.49 122.01 L 159.44 122.06 C 158.60 122.10 157.95 122.82 158.00 123.66 C 158.04 124.49 158.75 125.14 159.59 125.10 Z M 160.60 125.04 L 161.60 125.03 C 162.44 125.01 163.11 124.32 163.09 123.48 C 163.08 122.64 162.39 121.97 161.55 121.99 L 160.54 122.00 C 159.70 122.02 159.03 122.71 159.05 123.55 C 159.06 124.39 159.76 125.06 160.60 125.04 Z M 161.57 125.03 L 162.56 125.03 C 163.40 125.03 164.08 124.34 164.08 123.50 C 164.08 122.66 163.40 121.98 162.56 121.98 L 161.57 121.99 C 160.73 121.99 160.05 122.67 160.05 123.51 C 160.05 124.35 160.73 125.03 161.57 125.03 Z M 162.49 125.03 L 163.52 125.07 C 164.36 125.11 165.07 124.45 165.11 123.61 C 165.14 122.77 164.49 122.06 163.65 122.03 L 162.62 121.98 C 161.78 121.95 161.07 122.60 161.04 123.44 C 161.00 124.28 161.65 124.99 162.49 125.03 Z M 163.22 125.03 L 164.13 125.25 C 164.95 125.45 165.77 124.95 165.97 124.13 C 166.17 123.31 165.67 122.49 164.85 122.29 L 163.95 122.07 C 163.13 121.87 162.30 122.37 162.10 123.19 C 161.90 124.01 162.40 124.83 163.22 125.03 Z M 163.55 124.97 L 164.30 125.57 C 164.96 126.09 165.92 125.97 166.45 125.31 C 166.97 124.65 166.85 123.69 166.19 123.17 L 165.44 122.57 C 164.77 122.05 163.82 122.16 163.29 122.83 C 162.77 123.49 162.89 124.45 163.55 124.97 Z M 163.84 124.96 L 164.23 125.88 C 164.56 126.65 165.45 127.02 166.23 126.69 C 167.01 126.36 167.37 125.46 167.04 124.69 L 166.65 123.77 C 166.32 123.00 165.43 122.63 164.65 122.96 C 163.88 123.29 163.51 124.19 163.84 124.96 Z M 164.12 125.46 L 164.24 126.48 C 164.33 127.32 165.09 127.92 165.93 127.82 C 166.77 127.73 167.37 126.97 167.27 126.13 L 167.15 125.11 C 167.06 124.27 166.30 123.67 165.46 123.76 C 164.62 123.86 164.02 124.62 164.12 125.46 Z M 164.23 126.20 L 164.16 127.23 C 164.10 128.07 164.73 128.80 165.58 128.86 C 166.42 128.92 167.15 128.29 167.21 127.44 L 167.28 126.41 C 167.34 125.57 166.70 124.84 165.86 124.78 C 165.02 124.72 164.29 125.36 164.23 126.20 Z M 164.22 126.90 L 163.94 127.82 C 163.70 128.63 164.16 129.48 164.97 129.72 C 165.77 129.97 166.62 129.51 166.87 128.70 L 167.14 127.78 C 167.39 126.97 166.93 126.12 166.12 125.87 C 165.31 125.63 164.46 126.09 164.22 126.90 Z M 164.04 127.58 L 163.61 128.44 C 163.23 129.19 163.54 130.10 164.29 130.48 C 165.04 130.86 165.95 130.56 166.33 129.81 L 166.76 128.95 C 167.14 128.20 166.84 127.28 166.09 126.90 C 165.34 126.52 164.42 126.83 164.04 127.58 Z M 163.67 128.35 L 163.15 129.23 C 162.72 129.95 162.96 130.88 163.68 131.30 C 164.40 131.73 165.32 131.49 165.75 130.77 L 166.27 129.89 C 166.70 129.17 166.46 128.24 165.74 127.82 C 165.02 127.39 164.10 127.63 163.67 128.35 Z M 163.16 129.22 L 162.67 130.04 C 162.24 130.74 162.46 131.67 163.17 132.10 C 163.88 132.53 164.80 132.31 165.24 131.60 L 165.73 130.78 C 166.16 130.08 165.94 129.15 165.23 128.72 C 164.52 128.29 163.60 128.51 163.16 129.22 Z M 162.70 130.01 L 162.13 130.89 C 161.69 131.58 161.88 132.50 162.57 132.95 C 163.26 133.39 164.19 133.20 164.63 132.51 L 165.20 131.63 C 165.65 130.94 165.45 130.01 164.76 129.57 C 164.07 129.12 163.15 129.32 162.70 130.01 Z M 162.18 130.84 L 161.62 131.63 C 161.14 132.30 161.30 133.22 161.97 133.69 C 162.63 134.16 163.55 134.01 164.02 133.34 L 164.59 132.55 C 165.06 131.89 164.90 130.96 164.24 130.49 C 163.57 130.02 162.65 130.18 162.18 130.84 Z M 161.67 131.59 L 161.04 132.39 C 160.54 133.03 160.66 133.95 161.29 134.45 C 161.93 134.94 162.85 134.83 163.35 134.19 L 163.97 133.39 C 164.47 132.75 164.36 131.83 163.72 131.34 C 163.08 130.84 162.16 130.95 161.67 131.59 Z M 161.10 132.34 L 160.43 133.11 C 159.91 133.72 159.97 134.63 160.58 135.16 C 161.18 135.68 162.10 135.62 162.62 135.01 L 163.29 134.24 C 163.81 133.64 163.75 132.72 163.14 132.20 C 162.54 131.67 161.62 131.74 161.10 132.34 Z M 160.48 133.07 L 159.80 133.79 C 159.25 134.37 159.27 135.28 159.85 135.83 C 160.42 136.37 161.33 136.35 161.88 135.78 L 162.57 135.05 C 163.12 134.48 163.09 133.57 162.52 133.02 C 161.94 132.47 161.03 132.49 160.48 133.07 Z M 159.82 133.78 L 159.30 134.31 C 158.74 134.87 158.74 135.78 159.30 136.33 C 159.86 136.89 160.77 136.88 161.33 136.32 L 161.85 135.79 C 162.41 135.23 162.41 134.33 161.84 133.77 C 161.28 133.21 160.38 133.22 159.82 133.78 Z"
      fill="black"
      fill-rule="nonzero" /><path d="M 159.00 127.35 L 158.67 126.29 C 158.42 125.48 157.57 125.03 156.77 125.28 C 155.97 125.53 155.52 126.38 155.77 127.18 L 156.09 128.24 C 156.34 129.04 157.19 129.49 157.99 129.24 C 158.79 129.00 159.24 128.15 159.00 127.35 Z M 156.05 125.74 L 155.75 126.10 C 155.21 126.74 155.29 127.71 155.93 128.25 C 156.58 128.80 157.54 128.72 158.09 128.07 L 158.39 127.72 C 158.93 127.07 158.85 126.11 158.21 125.56 C 157.56 125.02 156.60 125.10 156.05 125.74 Z M 155.44 126.70 L 155.13 127.90 C 154.91 128.72 155.40 129.56 156.22 129.77 C 157.04 129.98 157.88 129.49 158.09 128.67 L 158.40 127.47 C 158.62 126.65 158.12 125.81 157.31 125.60 C 156.49 125.39 155.65 125.88 155.44 126.70 Z M 155.13 127.92 L 154.91 128.81 C 154.71 129.63 155.21 130.46 156.02 130.66 C 156.84 130.86 157.67 130.36 157.87 129.54 L 158.09 128.65 C 158.29 127.84 157.79 127.01 156.97 126.81 C 156.15 126.61 155.33 127.11 155.13 127.92 Z M 154.92 128.80 L 154.67 129.79 C 154.46 130.60 154.95 131.43 155.76 131.64 C 156.57 131.84 157.40 131.36 157.60 130.54 L 157.86 129.56 C 158.07 128.74 157.58 127.92 156.77 127.71 C 155.95 127.50 155.13 127.99 154.92 128.80 Z M 154.68 129.77 L 154.39 130.81 C 154.17 131.62 154.65 132.45 155.45 132.67 C 156.25 132.89 157.08 132.41 157.30 131.61 L 157.59 130.57 C 157.81 129.76 157.34 128.93 156.53 128.71 C 155.73 128.49 154.90 128.96 154.68 129.77 Z M 154.41 130.79 L 154.13 131.76 C 153.90 132.55 154.35 133.39 155.14 133.62 C 155.94 133.85 156.77 133.40 157.00 132.60 L 157.28 131.63 C 157.52 130.84 157.06 130.01 156.27 129.78 C 155.48 129.54 154.64 130.00 154.41 130.79 Z M 154.15 131.75 L 153.85 132.72 C 153.61 133.51 154.05 134.33 154.83 134.57 C 155.61 134.81 156.44 134.37 156.68 133.59 L 156.98 132.62 C 157.22 131.83 156.78 131.00 156.00 130.76 C 155.21 130.52 154.39 130.96 154.15 131.75 Z M 153.86 132.71 L 153.57 133.66 C 153.32 134.43 153.75 135.25 154.53 135.50 C 155.30 135.74 156.12 135.31 156.37 134.54 L 156.67 133.60 C 156.91 132.83 156.48 132.00 155.71 131.76 C 154.93 131.51 154.11 131.94 153.86 132.71 Z M 153.58 133.65 L 153.26 134.64 C 153.01 135.40 153.43 136.23 154.20 136.47 C 154.96 136.72 155.79 136.30 156.03 135.54 L 156.35 134.55 C 156.60 133.78 156.18 132.96 155.42 132.71 C 154.65 132.46 153.83 132.88 153.58 133.65 Z M 153.28 134.63 L 152.96 135.59 C 152.71 136.34 153.12 137.16 153.88 137.41 C 154.64 137.66 155.46 137.25 155.71 136.49 L 156.02 135.54 C 156.27 134.78 155.86 133.97 155.10 133.72 C 154.34 133.47 153.53 133.88 153.28 134.63 Z M 152.97 135.58 L 152.67 136.49 C 152.42 137.24 152.83 138.05 153.58 138.30 C 154.33 138.55 155.14 138.15 155.39 137.40 L 155.69 136.49 C 155.94 135.74 155.54 134.93 154.79 134.68 C 154.04 134.43 153.23 134.83 152.97 135.58 Z M 152.68 136.49 L 152.63 136.65 C 152.38 137.39 152.78 138.20 153.53 138.45 C 154.27 138.70 155.08 138.30 155.33 137.55 L 155.38 137.40 C 155.63 136.65 155.23 135.84 154.49 135.59 C 153.74 135.34 152.93 135.74 152.68 136.49 Z"
      fill="black"
      fill-rule="nonzero" /><path d="M 153.77 144.54 L 154.33 143.51 C 154.72 142.79 154.45 141.89 153.73 141.50 C 153.01 141.11 152.11 141.38 151.72 142.10 L 151.16 143.13 C 150.77 143.85 151.04 144.75 151.76 145.14 C 152.48 145.53 153.38 145.26 153.77 144.54 Z M 153.60 144.22 L 154.11 144.01 C 154.89 143.69 155.27 142.80 154.95 142.02 C 154.64 141.24 153.75 140.87 152.97 141.18 L 152.45 141.39 C 151.67 141.71 151.29 142.60 151.61 143.38 C 151.93 144.16 152.82 144.53 153.60 144.22 Z M 152.13 143.26 L 152.57 144.18 C 152.93 144.96 153.86 145.30 154.64 144.93 C 155.42 144.56 155.75 143.63 155.38 142.86 L 154.95 141.93 C 154.58 141.15 153.65 140.82 152.88 141.19 C 152.10 141.55 151.76 142.48 152.13 143.26 Z M 152.44 143.86 L 152.67 144.90 C 152.86 145.75 153.70 146.29 154.55 146.10 C 155.40 145.91 155.93 145.07 155.75 144.22 L 155.51 143.18 C 155.33 142.33 154.48 141.79 153.63 141.98 C 152.78 142.17 152.25 143.01 152.44 143.86 Z M 152.64 144.80 L 152.79 145.81 C 152.92 146.68 153.73 147.27 154.59 147.14 C 155.46 147.01 156.06 146.20 155.93 145.34 L 155.77 144.33 C 155.64 143.46 154.84 142.86 153.97 142.99 C 153.10 143.12 152.51 143.93 152.64 144.80 Z M 152.78 145.75 L 152.89 146.77 C 152.99 147.64 153.78 148.27 154.65 148.17 C 155.52 148.07 156.15 147.28 156.06 146.41 L 155.94 145.40 C 155.84 144.52 155.05 143.89 154.18 143.99 C 153.31 144.09 152.68 144.88 152.78 145.75 Z M 152.88 146.72 L 152.97 147.75 C 153.05 148.63 153.82 149.28 154.70 149.21 C 155.57 149.13 156.23 148.36 156.15 147.48 L 156.06 146.45 C 155.99 145.57 155.22 144.92 154.34 145.00 C 153.46 145.07 152.81 145.85 152.88 146.72 Z M 152.97 147.72 L 153.03 148.69 C 153.09 149.57 153.85 150.24 154.73 150.18 C 155.61 150.12 156.28 149.36 156.22 148.48 L 156.15 147.51 C 156.10 146.63 155.33 145.97 154.46 146.02 C 153.58 146.08 152.91 146.84 152.97 147.72 Z M 153.03 148.68 L 153.09 149.62 C 153.14 150.50 153.89 151.17 154.77 151.11 C 155.65 151.06 156.32 150.31 156.27 149.43 L 156.22 148.49 C 156.17 147.61 155.41 146.94 154.53 146.99 C 153.65 147.04 152.98 147.80 153.03 148.68 Z M 153.09 149.60 L 153.13 150.58 C 153.18 151.46 153.93 152.14 154.81 152.09 C 155.69 152.05 156.36 151.30 156.32 150.42 L 156.27 149.44 C 156.23 148.56 155.48 147.89 154.60 147.93 C 153.72 147.97 153.04 148.72 153.09 149.60 Z M 153.13 150.55 L 153.17 151.62 C 153.19 152.50 153.93 153.19 154.81 153.16 C 155.69 153.13 156.38 152.40 156.35 151.52 L 156.32 150.45 C 156.29 149.57 155.56 148.88 154.68 148.91 C 153.80 148.94 153.11 149.67 153.13 150.55 Z M 153.17 151.59 L 153.18 152.62 C 153.20 153.50 153.92 154.20 154.80 154.19 C 155.68 154.17 156.38 153.45 156.37 152.57 L 156.35 151.55 C 156.34 150.67 155.62 149.97 154.74 149.98 C 153.86 149.99 153.16 150.71 153.17 151.59 Z M 153.19 152.60 L 153.19 153.63 C 153.20 154.51 153.91 155.21 154.79 155.21 C 155.66 155.20 156.37 154.49 156.37 153.61 L 156.36 152.59 C 156.36 151.71 155.64 151.00 154.77 151.01 C 153.89 151.01 153.18 151.73 153.19 152.60 Z M 153.20 153.62 L 153.20 154.61 C 153.20 155.48 153.91 156.19 154.78 156.19 C 155.66 156.19 156.36 155.48 156.36 154.61 L 156.36 153.62 C 156.36 152.75 155.65 152.04 154.78 152.04 C 153.90 152.04 153.19 152.75 153.20 153.62 Z M 153.20 154.61 L 153.20 155.64 C 153.20 156.51 153.91 157.22 154.78 157.22 C 155.65 157.22 156.35 156.51 156.35 155.64 L 156.35 154.61 C 156.35 153.74 155.65 153.03 154.78 153.03 C 153.91 153.03 153.20 153.74 153.20 154.61 Z M 153.22 155.64 L 153.22 156.60 C 153.22 157.46 153.92 158.16 154.78 158.16 C 155.64 158.16 156.34 157.46 156.34 156.60 L 156.34 155.64 C 156.34 154.78 155.64 154.08 154.78 154.08 C 153.92 154.08 153.22 154.78 153.22 155.64 Z M 153.24 156.61 L 153.25 157.69 C 153.25 158.54 153.94 159.22 154.79 159.22 C 155.64 159.22 156.32 158.53 156.32 157.68 L 156.32 156.59 C 156.31 155.75 155.62 155.06 154.77 155.06 C 153.92 155.07 153.24 155.76 153.24 156.61 Z M 156.29 157.76 L 156.31 157.39 C 156.35 156.56 155.71 155.85 154.88 155.81 C 154.04 155.77 153.33 156.41 153.29 157.25 L 153.27 157.61 C 153.23 158.44 153.88 159.15 154.71 159.19 C 155.55 159.23 156.25 158.59 156.29 157.76 Z M 156.30 157.39 L 156.35 156.37 C 156.39 155.54 155.74 154.84 154.92 154.80 C 154.09 154.76 153.38 155.41 153.35 156.24 L 153.30 157.25 C 153.26 158.08 153.91 158.78 154.73 158.82 C 155.56 158.86 156.27 158.22 156.30 157.39 Z M 156.34 156.42 L 156.44 155.11 C 156.51 154.29 155.89 153.57 155.07 153.50 C 154.24 153.43 153.52 154.05 153.46 154.88 L 153.35 156.18 C 153.29 157.01 153.91 157.73 154.73 157.80 C 155.55 157.86 156.28 157.24 156.34 156.42 Z M 156.43 155.18 L 156.56 154.15 C 156.66 153.33 156.08 152.58 155.26 152.48 C 154.44 152.38 153.70 152.96 153.59 153.78 L 153.47 154.81 C 153.37 155.63 153.95 156.38 154.77 156.48 C 155.59 156.58 156.33 156.00 156.43 155.18 Z M 156.55 154.19 L 156.71 153.18 C 156.83 152.37 156.28 151.60 155.46 151.48 C 154.65 151.35 153.89 151.91 153.76 152.72 L 153.60 153.74 C 153.48 154.55 154.04 155.31 154.85 155.44 C 155.66 155.56 156.43 155.01 156.55 154.19 Z M 156.70 153.21 L 156.87 152.25 C 157.01 151.44 156.47 150.67 155.66 150.53 C 154.85 150.38 154.08 150.92 153.94 151.73 L 153.77 152.69 C 153.62 153.50 154.17 154.27 154.97 154.42 C 155.78 154.56 156.56 154.02 156.70 153.21 Z M 156.86 152.27 L 157.06 151.26 C 157.22 150.45 156.69 149.67 155.88 149.52 C 155.07 149.36 154.29 149.89 154.14 150.70 L 153.94 151.71 C 153.79 152.52 154.32 153.30 155.12 153.45 C 155.93 153.61 156.71 153.08 156.86 152.27 Z M 157.05 151.28 L 157.26 150.28 C 157.43 149.48 156.91 148.69 156.11 148.52 C 155.31 148.36 154.52 148.87 154.35 149.68 L 154.14 150.68 C 153.98 151.48 154.49 152.27 155.30 152.43 C 156.10 152.60 156.89 152.08 157.05 151.28 Z M 157.26 150.31 L 157.46 149.41 C 157.64 148.61 157.14 147.81 156.34 147.63 C 155.54 147.45 154.74 147.95 154.56 148.75 L 154.36 149.65 C 154.18 150.45 154.68 151.25 155.48 151.43 C 156.28 151.61 157.07 151.11 157.26 150.31 Z M 157.45 149.44 L 157.70 148.47 C 157.90 147.67 157.41 146.86 156.62 146.66 C 155.82 146.47 155.01 146.95 154.81 147.75 L 154.57 148.72 C 154.37 149.51 154.86 150.32 155.65 150.52 C 156.45 150.72 157.25 150.23 157.45 149.44 Z M 157.69 148.50 L 157.95 147.55 C 158.17 146.76 157.71 145.94 156.92 145.72 C 156.13 145.50 155.31 145.96 155.09 146.75 L 154.82 147.71 C 154.60 148.50 155.07 149.32 155.86 149.54 C 156.65 149.76 157.47 149.29 157.69 148.50 Z M 157.94 147.59 L 158.24 146.62 C 158.48 145.84 158.04 145.01 157.26 144.76 C 156.48 144.52 155.64 144.96 155.40 145.74 L 155.10 146.71 C 154.86 147.50 155.30 148.33 156.08 148.57 C 156.86 148.81 157.70 148.38 157.94 147.59 Z M 158.22 146.68 L 158.56 145.73 C 158.83 144.96 158.43 144.11 157.66 143.83 C 156.88 143.56 156.03 143.96 155.75 144.74 L 155.42 145.68 C 155.14 146.46 155.55 147.31 156.32 147.59 C 157.10 147.86 157.95 147.46 158.22 146.68 Z M 158.52 145.82 L 158.91 144.92 C 159.24 144.17 158.89 143.29 158.14 142.96 C 157.38 142.64 156.51 142.98 156.18 143.74 L 155.79 144.64 C 155.46 145.40 155.81 146.27 156.57 146.60 C 157.32 146.93 158.20 146.58 158.52 145.82 Z M 158.84 145.08 L 159.33 144.23 C 159.75 143.52 159.50 142.60 158.79 142.19 C 158.08 141.78 157.17 142.02 156.75 142.73 L 156.26 143.58 C 155.84 144.29 156.09 145.21 156.80 145.62 C 157.51 146.03 158.42 145.79 158.84 145.08 Z M 159.20 144.42 L 159.83 143.65 C 160.35 143.01 160.26 142.07 159.62 141.55 C 158.98 141.03 158.03 141.12 157.51 141.76 L 156.88 142.53 C 156.36 143.17 156.46 144.12 157.10 144.64 C 157.74 145.16 158.68 145.06 159.20 144.42 Z M 159.62 143.87 L 160.40 143.23 C 161.04 142.71 161.13 141.76 160.61 141.12 C 160.08 140.48 159.14 140.39 158.50 140.91 L 157.72 141.55 C 157.08 142.07 156.98 143.02 157.51 143.66 C 158.03 144.30 158.98 144.40 159.62 143.87 Z M 159.99 143.48 L 160.92 143.13 C 161.69 142.83 162.08 141.96 161.79 141.18 C 161.49 140.40 160.61 140.01 159.84 140.31 L 158.91 140.66 C 158.13 140.96 157.74 141.83 158.04 142.61 C 158.34 143.39 159.21 143.78 159.99 143.48 Z M 160.31 143.23 L 161.30 143.28 C 162.13 143.31 162.84 142.66 162.88 141.83 C 162.91 140.99 162.27 140.28 161.43 140.24 L 160.44 140.20 C 159.60 140.17 158.90 140.82 158.86 141.65 C 158.82 142.49 159.47 143.20 160.31 143.23 Z M 160.65 143.11 L 161.52 143.57 C 162.27 143.96 163.19 143.67 163.58 142.92 C 163.97 142.18 163.68 141.25 162.94 140.86 L 162.07 140.41 C 161.32 140.02 160.40 140.31 160.01 141.05 C 159.62 141.80 159.91 142.72 160.65 143.11 Z M 161.13 143.28 L 161.83 144.01 C 162.42 144.61 163.39 144.63 164.00 144.04 C 164.61 143.45 164.62 142.48 164.03 141.87 L 163.33 141.15 C 162.74 140.54 161.77 140.53 161.16 141.12 C 160.55 141.71 160.54 142.68 161.13 143.28 Z M 161.66 143.80 L 162.20 144.60 C 162.67 145.31 163.62 145.49 164.33 145.02 C 165.03 144.55 165.22 143.59 164.75 142.89 L 164.21 142.08 C 163.74 141.38 162.78 141.19 162.08 141.66 C 161.37 142.14 161.18 143.09 161.66 143.80 Z M 162.09 144.42 L 162.52 145.31 C 162.90 146.07 163.82 146.39 164.59 146.01 C 165.35 145.64 165.67 144.71 165.29 143.95 L 164.86 143.06 C 164.48 142.30 163.56 141.98 162.79 142.36 C 162.03 142.73 161.71 143.66 162.09 144.42 Z M 162.47 145.20 L 162.84 146.13 C 163.15 146.92 164.05 147.31 164.85 146.99 C 165.64 146.67 166.03 145.77 165.71 144.98 L 165.34 144.05 C 165.03 143.26 164.13 142.87 163.33 143.19 C 162.54 143.51 162.15 144.41 162.47 145.20 Z M 162.81 146.07 L 163.15 147.01 C 163.43 147.81 164.32 148.23 165.12 147.95 C 165.93 147.66 166.35 146.78 166.07 145.97 L 165.74 145.04 C 165.45 144.23 164.56 143.81 163.76 144.09 C 162.95 144.38 162.53 145.26 162.81 146.07 Z M 163.13 146.95 L 163.44 147.95 C 163.70 148.77 164.57 149.22 165.39 148.97 C 166.21 148.71 166.66 147.84 166.40 147.02 L 166.09 146.02 C 165.83 145.20 164.96 144.75 164.14 145.01 C 163.32 145.27 162.87 146.14 163.13 146.95 Z M 163.42 147.89 L 163.70 148.91 C 163.92 149.74 164.78 150.23 165.60 150.01 C 166.43 149.78 166.92 148.93 166.70 148.10 L 166.42 147.08 C 166.20 146.25 165.34 145.76 164.52 145.99 C 163.69 146.21 163.20 147.06 163.42 147.89 Z M 163.68 148.85 L 163.91 149.84 C 164.09 150.67 164.92 151.20 165.76 151.01 C 166.59 150.82 167.12 149.99 166.93 149.16 L 166.71 148.17 C 166.52 147.33 165.69 146.81 164.86 146.99 C 164.02 147.18 163.50 148.01 163.68 148.85 Z M 163.89 149.77 L 164.06 150.70 C 164.20 151.54 165.01 152.10 165.85 151.96 C 166.69 151.81 167.26 151.00 167.11 150.16 L 166.95 149.23 C 166.80 148.39 166.00 147.82 165.15 147.97 C 164.31 148.12 163.74 148.92 163.89 149.77 Z M 164.05 150.61 L 164.17 151.65 C 164.27 152.49 165.04 153.10 165.89 153.00 C 166.73 152.90 167.34 152.13 167.24 151.29 L 167.12 150.25 C 167.02 149.40 166.25 148.80 165.40 148.90 C 164.56 149.00 163.95 149.76 164.05 150.61 Z M 164.18 151.58 L 164.25 152.53 C 164.31 153.37 165.04 154.01 165.89 153.95 C 166.73 153.88 167.37 153.15 167.31 152.30 L 167.24 151.35 C 167.17 150.51 166.44 149.87 165.59 149.94 C 164.75 150.00 164.11 150.74 164.18 151.58 Z M 164.26 152.51 L 164.32 153.49 C 164.37 154.33 165.10 154.96 165.94 154.91 C 166.78 154.86 167.41 154.13 167.36 153.29 L 167.30 152.32 C 167.24 151.48 166.52 150.84 165.68 150.90 C 164.84 150.95 164.20 151.67 164.26 152.51 Z M 164.33 153.46 L 164.38 154.48 C 164.42 155.31 165.13 155.95 165.96 155.91 C 166.80 155.87 167.44 155.16 167.40 154.33 L 167.35 153.32 C 167.31 152.48 166.60 151.84 165.76 151.88 C 164.93 151.92 164.29 152.63 164.33 153.46 Z M 164.39 154.42 L 164.40 155.46 C 164.41 156.29 165.09 156.95 165.92 156.94 C 166.75 156.93 167.41 156.25 167.40 155.42 L 167.39 154.38 C 167.38 153.55 166.70 152.89 165.87 152.90 C 165.04 152.91 164.38 153.59 164.39 154.42 Z M 164.41 155.33 L 164.34 156.31 C 164.28 157.14 164.90 157.85 165.72 157.91 C 166.54 157.97 167.26 157.36 167.32 156.53 L 167.39 155.55 C 167.45 154.73 166.83 154.01 166.01 153.95 C 165.19 153.89 164.47 154.51 164.41 155.33 Z M 164.40 156.03 L 164.13 157.01 C 163.91 157.80 164.38 158.61 165.16 158.83 C 165.95 159.05 166.77 158.58 166.98 157.80 L 167.25 156.82 C 167.47 156.03 167.01 155.22 166.22 155.00 C 165.44 154.78 164.62 155.24 164.40 156.03 Z M 164.24 156.77 L 163.87 157.53 C 163.52 158.26 163.83 159.13 164.55 159.48 C 165.28 159.83 166.16 159.53 166.51 158.80 L 166.87 158.04 C 167.23 157.31 166.92 156.44 166.19 156.09 C 165.47 155.74 164.59 156.04 164.24 156.77 Z"
      fill="black"
      fill-rule="nonzero" /><path d="M 157.58 150.78 L 157.22 149.78 C 156.94 149.00 156.08 148.59 155.30 148.87 C 154.51 149.15 154.10 150.01 154.38 150.79 L 154.74 151.79 C 155.01 152.58 155.88 152.99 156.66 152.71 C 157.45 152.43 157.86 151.57 157.58 150.78 Z M 157.21 150.92 L 157.53 150.20 C 157.88 149.42 157.53 148.51 156.76 148.16 C 155.98 147.81 155.07 148.16 154.72 148.94 L 154.40 149.66 C 154.05 150.43 154.39 151.34 155.17 151.69 C 155.94 152.04 156.86 151.70 157.21 150.92 Z M 156.76 150.99 L 157.72 150.56 C 158.50 150.20 158.85 149.28 158.50 148.50 C 158.15 147.72 157.23 147.37 156.45 147.72 L 155.49 148.15 C 154.71 148.50 154.36 149.42 154.71 150.20 C 155.06 150.99 155.98 151.34 156.76 150.99 Z M 157.54 150.62 L 158.48 150.33 C 159.30 150.08 159.76 149.21 159.51 148.39 C 159.26 147.57 158.39 147.11 157.57 147.36 L 156.62 147.65 C 155.80 147.91 155.34 148.78 155.60 149.60 C 155.85 150.42 156.72 150.88 157.54 150.62 Z M 158.44 150.34 L 159.43 150.07 C 160.25 149.85 160.74 148.99 160.51 148.17 C 160.29 147.34 159.43 146.85 158.61 147.08 L 157.62 147.35 C 156.79 147.58 156.30 148.43 156.53 149.26 C 156.76 150.08 157.61 150.57 158.44 150.34 Z M 159.40 150.07 L 160.37 149.83 C 161.19 149.62 161.70 148.78 161.49 147.95 C 161.28 147.13 160.44 146.63 159.61 146.83 L 158.64 147.08 C 157.81 147.29 157.31 148.13 157.52 148.95 C 157.73 149.78 158.57 150.28 159.40 150.07 Z M 160.35 149.82 L 161.33 149.58 C 162.15 149.38 162.66 148.56 162.46 147.74 C 162.27 146.92 161.44 146.41 160.62 146.61 L 159.64 146.84 C 158.81 147.04 158.31 147.86 158.50 148.69 C 158.70 149.51 159.53 150.01 160.35 149.82 Z M 161.30 149.57 L 162.29 149.35 C 163.10 149.17 163.61 148.37 163.43 147.55 C 163.26 146.74 162.45 146.22 161.64 146.40 L 160.65 146.62 C 159.84 146.80 159.32 147.61 159.50 148.42 C 159.68 149.23 160.49 149.75 161.30 149.57 Z M 162.22 149.34 L 163.18 149.17 C 163.98 149.03 164.52 148.26 164.38 147.45 C 164.24 146.65 163.47 146.11 162.67 146.25 L 161.71 146.42 C 160.90 146.56 160.36 147.33 160.50 148.13 C 160.64 148.94 161.41 149.48 162.22 149.34 Z M 163.10 149.16 L 164.05 149.04 C 164.85 148.94 165.42 148.22 165.32 147.42 C 165.23 146.62 164.50 146.05 163.70 146.15 L 162.75 146.26 C 161.95 146.36 161.38 147.09 161.47 147.88 C 161.57 148.68 162.30 149.25 163.10 149.16 Z M 164.01 149.03 L 165.03 148.93 C 165.83 148.86 166.41 148.15 166.33 147.36 C 166.26 146.57 165.56 145.99 164.76 146.06 L 163.74 146.16 C 162.95 146.23 162.37 146.94 162.44 147.73 C 162.52 148.52 163.22 149.10 164.01 149.03 Z M 165.03 148.92 L 165.32 148.90 C 166.10 148.83 166.69 148.13 166.62 147.34 C 166.55 146.56 165.85 145.97 165.06 146.04 L 164.77 146.07 C 163.98 146.14 163.40 146.83 163.47 147.62 C 163.54 148.41 164.24 148.99 165.03 148.92 Z"
      fill="black"
      fill-rule="nonzero" /><path d="M 157.44 153.14 L 156.55 154.01 C 155.97 154.57 155.96 155.51 156.52 156.10 C 157.09 156.68 158.03 156.69 158.61 156.13 L 159.50 155.26 C 160.09 154.70 160.10 153.76 159.53 153.17 C 158.96 152.59 158.03 152.58 157.44 153.14 Z M 156.33 155.90 L 156.46 156.10 C 156.92 156.79 157.85 156.98 158.55 156.52 C 159.24 156.06 159.43 155.13 158.97 154.43 L 158.84 154.24 C 158.38 153.54 157.45 153.35 156.75 153.81 C 156.06 154.27 155.87 155.20 156.33 155.90 Z M 158.28 156.67 L 159.34 156.25 C 160.12 155.93 160.49 155.05 160.18 154.27 C 159.87 153.50 158.99 153.12 158.21 153.43 L 157.15 153.86 C 156.37 154.17 156.00 155.05 156.31 155.83 C 156.62 156.61 157.50 156.98 158.28 156.67 Z M 159.38 156.21 L 160.38 155.77 C 161.14 155.43 161.48 154.55 161.15 153.79 C 160.81 153.03 159.92 152.68 159.16 153.02 L 158.16 153.46 C 157.40 153.80 157.06 154.69 157.40 155.45 C 157.74 156.21 158.63 156.55 159.38 156.21 Z M 160.33 155.77 L 161.23 155.40 C 161.98 155.10 162.35 154.23 162.04 153.48 C 161.74 152.72 160.87 152.35 160.11 152.66 L 159.21 153.02 C 158.46 153.33 158.09 154.19 158.40 154.95 C 158.71 155.71 159.57 156.08 160.33 155.77 Z M 161.14 155.42 L 162.08 155.10 C 162.84 154.84 163.25 154.00 162.99 153.24 C 162.73 152.47 161.90 152.07 161.13 152.33 L 160.20 152.65 C 159.43 152.91 159.02 153.74 159.29 154.51 C 159.55 155.27 160.38 155.68 161.14 155.42 Z M 161.99 155.11 L 162.97 154.84 C 163.74 154.63 164.20 153.83 163.98 153.06 C 163.77 152.29 162.97 151.83 162.20 152.04 L 161.22 152.31 C 160.45 152.52 159.99 153.32 160.20 154.10 C 160.42 154.87 161.21 155.33 161.99 155.11 Z M 162.85 154.87 L 163.85 154.69 C 164.64 154.54 165.16 153.78 165.02 152.99 C 164.87 152.20 164.11 151.68 163.32 151.83 L 162.32 152.02 C 161.53 152.16 161.01 152.92 161.15 153.71 C 161.30 154.50 162.06 155.02 162.85 154.87 Z M 163.77 154.71 L 164.70 154.60 C 165.51 154.50 166.08 153.77 165.98 152.96 C 165.88 152.16 165.15 151.59 164.35 151.69 L 163.41 151.80 C 162.61 151.90 162.04 152.63 162.14 153.44 C 162.23 154.24 162.96 154.81 163.77 154.71 Z"
      fill="black"
      fill-rule="nonzero" /><path d="M 159.83 157.19 L 159.14 157.87 C 158.57 158.43 158.56 159.34 159.11 159.90 C 159.67 160.47 160.58 160.48 161.15 159.93 L 161.84 159.25 C 162.41 158.69 162.42 157.78 161.86 157.21 C 161.31 156.65 160.40 156.64 159.83 157.19 Z M 159.24 157.75 L 158.35 158.44 C 157.71 158.94 157.60 159.85 158.10 160.49 C 158.59 161.13 159.51 161.24 160.15 160.75 L 161.04 160.05 C 161.68 159.56 161.79 158.64 161.29 158.00 C 160.80 157.36 159.88 157.25 159.24 157.75 Z M 158.55 158.28 L 157.73 158.71 C 157.00 159.09 156.73 160.00 157.11 160.72 C 157.49 161.45 158.40 161.73 159.12 161.34 L 159.94 160.91 C 160.67 160.53 160.95 159.63 160.57 158.90 C 160.18 158.17 159.28 157.89 158.55 158.28 Z M 159.66 160.89 L 160.06 160.32 C 160.54 159.64 160.38 158.71 159.70 158.23 C 159.02 157.75 158.08 157.91 157.60 158.59 L 157.20 159.16 C 156.72 159.84 156.88 160.78 157.56 161.26 C 158.24 161.74 159.18 161.57 159.66 160.89 Z M 159.79 160.61 L 160.64 159.90 C 161.27 159.37 161.35 158.42 160.82 157.79 C 160.29 157.15 159.34 157.07 158.71 157.60 L 157.87 158.30 C 157.23 158.84 157.15 159.78 157.68 160.42 C 158.21 161.06 159.16 161.14 159.79 160.61 Z M 160.51 159.99 L 161.36 159.42 C 162.04 158.95 162.22 158.02 161.75 157.34 C 161.29 156.65 160.36 156.48 159.67 156.94 L 158.83 157.51 C 158.15 157.98 157.97 158.91 158.43 159.59 C 158.90 160.28 159.83 160.46 160.51 159.99 Z M 161.23 159.49 L 162.16 158.99 C 162.88 158.59 163.15 157.68 162.75 156.96 C 162.36 156.23 161.45 155.97 160.72 156.36 L 159.80 156.87 C 159.08 157.26 158.81 158.17 159.20 158.89 C 159.60 159.62 160.51 159.89 161.23 159.49 Z M 162.00 159.06 L 162.93 158.68 C 163.70 158.37 164.06 157.50 163.75 156.73 C 163.44 155.97 162.57 155.60 161.81 155.91 L 160.88 156.29 C 160.11 156.60 159.74 157.47 160.06 158.24 C 160.37 159.00 161.24 159.37 162.00 159.06 Z M 162.67 158.76 L 163.68 158.55 C 164.49 158.39 165.01 157.59 164.84 156.78 C 164.67 155.97 163.88 155.45 163.07 155.62 L 162.06 155.83 C 161.25 156.00 160.73 156.79 160.90 157.60 C 161.07 158.41 161.86 158.93 162.67 158.76 Z M 162.80 158.49 L 163.62 158.82 C 164.39 159.13 165.27 158.76 165.59 157.99 C 165.90 157.22 165.53 156.34 164.76 156.02 L 163.95 155.69 C 163.17 155.37 162.29 155.74 161.98 156.52 C 161.66 157.29 162.03 158.17 162.80 158.49 Z M 162.74 157.89 L 163.02 158.75 C 163.27 159.55 164.13 159.99 164.93 159.74 C 165.73 159.48 166.17 158.62 165.92 157.82 L 165.64 156.96 C 165.38 156.15 164.52 155.71 163.72 155.97 C 162.92 156.23 162.48 157.08 162.74 157.89 Z M 162.93 158.29 L 162.94 159.37 C 162.94 160.22 163.63 160.91 164.48 160.90 C 165.33 160.90 166.01 160.21 166.01 159.36 L 166.00 158.28 C 166.00 157.43 165.31 156.75 164.46 156.75 C 163.61 156.75 162.93 157.45 162.93 158.29 Z M 162.95 159.11 L 162.79 160.07 C 162.64 160.91 163.21 161.71 164.05 161.85 C 164.89 161.99 165.68 161.43 165.83 160.59 L 165.99 159.63 C 166.13 158.79 165.57 157.99 164.73 157.85 C 163.89 157.70 163.10 158.27 162.95 159.11 Z M 162.84 159.85 L 162.52 160.81 C 162.26 161.62 162.70 162.49 163.51 162.76 C 164.32 163.02 165.19 162.58 165.46 161.77 L 165.77 160.82 C 166.04 160.01 165.60 159.13 164.79 158.87 C 163.98 158.60 163.11 159.04 162.84 159.85 Z M 162.58 160.67 L 162.19 161.54 C 161.85 162.32 162.20 163.24 162.98 163.58 C 163.76 163.93 164.67 163.57 165.02 162.79 L 165.40 161.91 C 165.75 161.13 165.40 160.22 164.61 159.88 C 163.83 159.53 162.92 159.89 162.58 160.67 Z M 162.22 161.47 L 161.76 162.39 C 161.37 163.15 161.68 164.08 162.44 164.47 C 163.20 164.85 164.13 164.55 164.52 163.78 L 164.98 162.86 C 165.37 162.10 165.06 161.17 164.30 160.79 C 163.54 160.40 162.61 160.71 162.22 161.47 Z M 161.78 162.35 L 161.31 163.22 C 160.91 163.97 161.19 164.90 161.94 165.31 C 162.69 165.72 163.63 165.44 164.03 164.69 L 164.50 163.82 C 164.90 163.07 164.62 162.13 163.87 161.73 C 163.12 161.32 162.18 161.60 161.78 162.35 Z M 161.33 163.18 L 160.84 164.03 C 160.42 164.77 160.67 165.71 161.41 166.14 C 162.15 166.57 163.10 166.31 163.52 165.57 L 164.01 164.72 C 164.44 163.98 164.18 163.04 163.44 162.61 C 162.70 162.19 161.76 162.44 161.33 163.18 Z M 160.87 163.98 L 160.32 164.87 C 159.86 165.59 160.08 166.55 160.81 167.00 C 161.53 167.45 162.48 167.23 162.94 166.51 L 163.49 165.62 C 163.95 164.90 163.73 163.94 163.00 163.49 C 162.28 163.04 161.33 163.26 160.87 163.98 Z M 160.35 164.82 L 159.79 165.64 C 159.31 166.34 159.49 167.31 160.20 167.79 C 160.90 168.27 161.86 168.09 162.35 167.38 L 162.90 166.56 C 163.38 165.86 163.20 164.89 162.50 164.41 C 161.79 163.93 160.83 164.11 160.35 164.82 Z M 159.82 165.60 L 159.22 166.42 C 158.72 167.11 158.87 168.07 159.56 168.58 C 160.25 169.08 161.21 168.93 161.72 168.24 L 162.32 167.42 C 162.82 166.73 162.67 165.77 161.98 165.26 C 161.29 164.76 160.32 164.91 159.82 165.60 Z M 159.25 166.38 L 158.63 167.17 C 158.11 167.85 158.23 168.82 158.90 169.34 C 159.57 169.87 160.54 169.75 161.07 169.07 L 161.69 168.28 C 162.21 167.61 162.09 166.63 161.42 166.11 C 160.75 165.59 159.77 165.71 159.25 166.38 Z M 158.67 167.13 L 157.97 167.96 C 157.42 168.61 157.50 169.59 158.16 170.14 C 158.81 170.69 159.79 170.60 160.33 169.95 L 161.03 169.12 C 161.58 168.46 161.50 167.49 160.84 166.94 C 160.19 166.39 159.22 166.48 158.67 167.13 Z M 158.02 167.90 L 157.32 168.65 C 156.74 169.27 156.77 170.25 157.40 170.83 C 158.02 171.41 159.00 171.38 159.58 170.76 L 160.28 170.01 C 160.86 169.39 160.83 168.41 160.21 167.83 C 159.58 167.24 158.61 167.28 158.02 167.90 Z M 157.42 168.56 L 156.75 169.17 C 156.12 169.74 156.07 170.72 156.64 171.35 C 157.21 171.98 158.19 172.02 158.82 171.45 L 159.49 170.85 C 160.12 170.27 160.17 169.30 159.59 168.67 C 159.02 168.04 158.05 167.99 157.42 168.56 Z M 157.07 168.95 L 156.11 169.46 C 155.36 169.85 155.07 170.78 155.47 171.53 C 155.86 172.28 156.79 172.56 157.54 172.17 L 158.50 171.67 C 159.25 171.27 159.53 170.35 159.14 169.60 C 158.74 168.85 157.82 168.56 157.07 168.95 Z M 158.06 169.96 L 157.70 169.44 C 157.23 168.76 156.30 168.58 155.61 169.05 C 154.93 169.52 154.76 170.46 155.23 171.14 L 155.59 171.67 C 156.06 172.35 156.99 172.52 157.68 172.05 C 158.36 171.58 158.53 170.65 158.06 169.96 Z M 157.92 170.33 L 157.95 169.30 C 157.97 168.50 157.34 167.83 156.53 167.80 C 155.73 167.78 155.06 168.41 155.04 169.22 L 155.01 170.25 C 154.99 171.05 155.62 171.72 156.42 171.75 C 157.23 171.77 157.90 171.14 157.92 170.33 Z"
      fill="black"
      fill-rule="nonzero" /><path d="M 162.30 164.11 L 163.02 164.81 C 163.61 165.39 164.55 165.38 165.12 164.79 C 165.70 164.20 165.69 163.26 165.10 162.68 L 164.38 161.98 C 163.79 161.41 162.85 161.42 162.27 162.01 C 161.70 162.59 161.71 163.54 162.30 164.11 Z M 163.09 164.90 L 163.85 165.54 C 164.48 166.07 165.43 165.99 165.96 165.36 C 166.50 164.72 166.42 163.78 165.79 163.24 L 165.03 162.60 C 164.39 162.07 163.45 162.15 162.91 162.78 C 162.38 163.41 162.46 164.36 163.09 164.90 Z M 163.99 165.66 L 164.84 166.21 C 165.54 166.67 166.48 166.47 166.93 165.77 C 167.39 165.07 167.19 164.13 166.49 163.67 L 165.65 163.12 C 164.95 162.66 164.01 162.86 163.55 163.56 C 163.09 164.26 163.29 165.20 163.99 165.66 Z M 164.94 166.29 L 165.79 166.75 C 166.54 167.15 167.47 166.88 167.87 166.14 C 168.27 165.39 167.99 164.47 167.25 164.06 L 166.39 163.60 C 165.65 163.20 164.72 163.47 164.32 164.21 C 163.92 164.96 164.19 165.88 164.94 166.29 Z M 165.85 166.79 L 166.71 167.21 C 167.48 167.59 168.40 167.27 168.77 166.51 C 169.14 165.74 168.83 164.82 168.06 164.45 L 167.20 164.02 C 166.44 163.65 165.51 163.97 165.14 164.73 C 164.77 165.50 165.08 166.42 165.85 166.79 Z M 166.78 167.25 L 167.73 167.66 C 168.51 167.99 169.42 167.63 169.76 166.85 C 170.09 166.07 169.73 165.16 168.95 164.82 L 168.00 164.41 C 167.22 164.07 166.31 164.44 165.97 165.22 C 165.63 166.00 166.00 166.91 166.78 167.25 Z M 167.78 167.68 L 168.73 168.05 C 169.53 168.36 170.42 167.96 170.73 167.17 C 171.04 166.37 170.64 165.48 169.85 165.17 L 168.90 164.80 C 168.10 164.49 167.21 164.88 166.90 165.68 C 166.59 166.47 166.98 167.37 167.78 167.68 Z M 168.77 168.06 L 169.71 168.40 C 170.51 168.69 171.39 168.27 171.68 167.47 C 171.97 166.67 171.55 165.78 170.75 165.49 L 169.81 165.16 C 169.01 164.87 168.13 165.29 167.84 166.09 C 167.55 166.89 167.97 167.77 168.77 168.06 Z M 169.74 168.40 L 170.73 168.73 C 171.53 169.00 172.40 168.57 172.67 167.76 C 172.93 166.96 172.50 166.09 171.70 165.82 L 170.72 165.49 C 169.91 165.22 169.05 165.66 168.78 166.46 C 168.51 167.26 168.94 168.13 169.74 168.40 Z M 170.68 168.69 L 171.56 169.03 C 172.34 169.32 173.22 168.93 173.51 168.15 C 173.81 167.37 173.42 166.49 172.64 166.20 L 171.75 165.86 C 170.97 165.57 170.09 165.96 169.80 166.74 C 169.50 167.52 169.90 168.39 170.68 168.69 Z M 171.47 168.96 L 172.37 169.38 C 173.11 169.73 174.00 169.42 174.35 168.67 C 174.70 167.93 174.38 167.04 173.63 166.69 L 172.73 166.26 C 171.99 165.91 171.10 166.23 170.75 166.98 C 170.40 167.72 170.72 168.61 171.47 168.96 Z M 172.33 169.35 L 172.89 169.63 C 173.62 170.00 174.50 169.71 174.87 168.99 C 175.24 168.26 174.95 167.38 174.23 167.01 L 173.67 166.73 C 172.94 166.36 172.06 166.65 171.69 167.37 C 171.32 168.09 171.61 168.98 172.33 169.35 Z"
      fill="black"
      fill-rule="nonzero" /></svg>