<svg xmlns="http://www.w3.org/2000/svg" width="300" height="300" viewBox="0 0 300 300">
<path d="M 147.82 125.79 L 146.80 125.38 C 146.02 125.07 145.14 125.44 144.83 126.22 C 144.52 126.99 144.89 127.88 145.67 128.19 L 146.69 128.60 C 147.47 128.91 148.35 128.54 148.66 127.76 C 148.98 126.99 148.60 126.10 147.82 125.79 Z M 147.45 127.72 L 147.78 127.30 C 148.30 126.63 148.17 125.66 147.50 125.14 C 146.82 124.62 145.86 124.75 145.34 125.42 L 145.01 125.85 C 144.49 126.52 144.62 127.49 145.29 128.00 C 145.97 128.52 146.93 128.40 147.45 127.72 Z M 147.00 127.85 L 148.07 127.53 C 148.89 127.29 149.36 126.43 149.12 125.61 C 148.88 124.79 148.02 124.32 147.19 124.56 L 146.12 124.87 C 145.30 125.11 144.83 125.98 145.07 126.80 C 145.31 127.62 146.17 128.09 147.00 127.85 Z M 147.93 127.57 L 148.85 127.39 C 149.69 127.23 150.24 126.42 150.08 125.57 C 149.92 124.73 149.10 124.18 148.26 124.34 L 147.34 124.52 C 146.49 124.68 145.94 125.50 146.10 126.34 C 146.27 127.18 147.08 127.73 147.93 127.57 Z M 148.78 127.41 L 149.87 127.25 C 150.72 127.13 151.31 126.34 151.18 125.49 C 151.06 124.64 150.27 124.05 149.42 124.17 L 148.33 124.33 C 147.48 124.45 146.89 125.24 147.02 126.09 C 147.14 126.94 147.93 127.53 148.78 127.41 Z M 149.83 127.25 L 150.81 127.13 C 151.66 127.03 152.26 126.25 152.16 125.40 C 152.06 124.55 151.28 123.95 150.43 124.05 L 149.46 124.17 C 148.61 124.27 148.00 125.05 148.11 125.90 C 148.21 126.75 148.98 127.35 149.83 127.25 Z M 150.78 127.13 L 151.81 127.02 C 152.66 126.93 153.28 126.17 153.19 125.32 C 153.10 124.47 152.34 123.85 151.49 123.94 L 150.46 124.05 C 149.61 124.14 148.99 124.91 149.08 125.75 C 149.17 126.60 149.93 127.22 150.78 127.13 Z M 151.78 127.02 L 152.78 126.93 C 153.63 126.86 154.26 126.11 154.18 125.26 C 154.11 124.41 153.36 123.79 152.52 123.86 L 151.52 123.95 C 150.67 124.02 150.04 124.77 150.11 125.62 C 150.19 126.46 150.94 127.09 151.78 127.02 Z M 152.74 126.93 L 153.80 126.87 C 154.65 126.82 155.29 126.09 155.24 125.24 C 155.19 124.39 154.47 123.75 153.62 123.80 L 152.56 123.86 C 151.71 123.91 151.06 124.64 151.11 125.49 C 151.17 126.33 151.89 126.98 152.74 126.93 Z M 153.76 126.86 L 154.72 126.84 C 155.56 126.81 156.23 126.10 156.20 125.26 C 156.18 124.41 155.47 123.75 154.62 123.77 L 153.67 123.80 C 152.82 123.82 152.15 124.53 152.18 125.38 C 152.20 126.22 152.91 126.89 153.76 126.86 Z M 154.69 126.83 L 155.68 126.82 C 156.53 126.81 157.20 126.12 157.19 125.28 C 157.18 124.43 156.49 123.75 155.65 123.76 L 154.65 123.77 C 153.81 123.78 153.13 124.48 153.14 125.32 C 153.15 126.17 153.84 126.84 154.69 126.83 Z M 155.66 126.82 L 156.68 126.83 C 157.53 126.83 158.22 126.15 158.22 125.30 C 158.23 124.46 157.54 123.77 156.70 123.77 L 155.67 123.76 C 154.82 123.76 154.14 124.44 154.13 125.29 C 154.13 126.13 154.81 126.82 155.66 126.82 Z M 156.63 126.83 L 157.63 126.87 C 158.48 126.90 159.19 126.24 159.22 125.39 C 159.25 124.55 158.59 123.84 157.75 123.80 L 156.75 123.76 C 155.90 123.73 155.19 124.39 155.16 125.24 C 155.13 126.09 155.79 126.80 156.63 126.83 Z M 157.36 126.84 L 158.34 127.06 C 159.18 127.24 160.00 126.71 160.18 125.88 C 160.36 125.05 159.83 124.22 159.00 124.04 L 158.02 123.83 C 157.19 123.65 156.36 124.18 156.18 125.01 C 156.00 125.84 156.53 126.66 157.36 126.84 Z M 157.37 126.39 L 157.81 127.08 C 158.28 127.80 159.24 128.01 159.96 127.54 C 160.68 127.08 160.89 126.12 160.42 125.40 L 159.98 124.71 C 159.51 123.99 158.55 123.78 157.83 124.25 C 157.11 124.71 156.90 125.67 157.37 126.39 Z M 157.61 125.86 L 157.35 126.86 C 157.14 127.69 157.65 128.54 158.48 128.75 C 159.31 128.96 160.16 128.46 160.37 127.62 L 160.63 126.62 C 160.84 125.79 160.33 124.94 159.50 124.73 C 158.67 124.52 157.82 125.02 157.61 125.86 Z M 157.65 126.26 L 157.03 127.03 C 156.49 127.70 156.60 128.68 157.27 129.22 C 157.94 129.76 158.92 129.66 159.46 128.98 L 160.08 128.22 C 160.62 127.54 160.51 126.56 159.84 126.02 C 159.17 125.48 158.19 125.59 157.65 126.26 Z M 157.20 126.85 L 156.43 127.56 C 155.79 128.14 155.74 129.12 156.32 129.76 C 156.90 130.40 157.89 130.44 158.52 129.86 L 159.30 129.16 C 159.93 128.58 159.98 127.59 159.40 126.96 C 158.82 126.32 157.83 126.28 157.20 126.85 Z M 156.51 127.49 L 155.71 128.12 C 155.04 128.65 154.92 129.62 155.45 130.30 C 155.98 130.97 156.96 131.09 157.63 130.56 L 158.43 129.93 C 159.11 129.40 159.23 128.43 158.70 127.75 C 158.17 127.08 157.19 126.96 156.51 127.49 Z M 155.78 128.08 L 154.99 128.63 C 154.29 129.13 154.13 130.09 154.62 130.79 C 155.11 131.49 156.08 131.65 156.78 131.16 L 157.56 130.60 C 158.26 130.11 158.43 129.14 157.94 128.45 C 157.44 127.75 156.48 127.58 155.78 128.08 Z M 155.05 128.61 L 154.22 129.15 C 153.50 129.61 153.30 130.55 153.76 131.27 C 154.22 131.98 155.17 132.18 155.88 131.72 L 156.72 131.19 C 157.43 130.73 157.63 129.78 157.17 129.06 C 156.71 128.35 155.76 128.15 155.05 128.61 Z M 154.32 129.11 L 153.44 129.59 C 152.71 129.99 152.44 130.92 152.84 131.65 C 153.25 132.38 154.17 132.65 154.90 132.25 L 155.78 131.76 C 156.51 131.36 156.78 130.44 156.38 129.70 C 155.97 128.97 155.05 128.70 154.32 129.11 Z M 153.56 129.55 L 152.65 129.96 C 151.89 130.30 151.56 131.19 151.89 131.94 C 152.23 132.69 153.12 133.03 153.87 132.69 L 154.79 132.28 C 155.54 131.94 155.88 131.06 155.54 130.30 C 155.20 129.55 154.31 129.21 153.56 129.55 Z M 152.76 129.94 L 151.82 130.28 C 151.05 130.55 150.65 131.40 150.93 132.16 C 151.20 132.93 152.04 133.33 152.81 133.05 L 153.76 132.71 C 154.52 132.44 154.92 131.60 154.65 130.83 C 154.37 130.06 153.53 129.67 152.76 129.94 Z M 151.90 130.27 L 150.94 130.56 C 150.18 130.78 149.74 131.59 149.96 132.36 C 150.19 133.13 151.00 133.57 151.76 133.34 L 152.72 133.06 C 153.49 132.83 153.93 132.02 153.71 131.26 C 153.48 130.49 152.67 130.05 151.90 130.27 Z M 150.97 130.56 L 150.51 130.69 C 149.74 130.90 149.29 131.69 149.50 132.46 C 149.71 133.22 150.50 133.67 151.27 133.46 L 151.73 133.33 C 152.50 133.12 152.95 132.33 152.74 131.57 C 152.53 130.80 151.74 130.35 150.97 130.56 Z"
      fill="black"
      fill-rule="nonzero" /><path d="M 147.72 126.79 L 147.19 127.66 C 146.75 128.38 146.98 129.33 147.71 129.78 C 148.44 130.22 149.39 129.99 149.83 129.26 L 150.36 128.39 C 150.80 127.66 150.57 126.72 149.84 126.27 C 149.11 125.83 148.16 126.06 147.72 126.79 Z M 147.05 127.94 L 146.73 128.83 C 146.44 129.64 146.87 130.53 147.68 130.81 C 148.48 131.10 149.37 130.68 149.66 129.87 L 149.98 128.98 C 150.26 128.17 149.84 127.28 149.03 126.99 C 148.22 126.70 147.34 127.13 147.05 127.94 Z M 146.64 129.26 L 146.59 130.17 C 146.54 131.03 147.20 131.77 148.06 131.81 C 148.92 131.86 149.65 131.21 149.70 130.35 L 149.75 129.44 C 149.80 128.58 149.14 127.84 148.28 127.79 C 147.42 127.74 146.69 128.40 146.64 129.26 Z M 146.59 130.34 L 146.65 131.45 C 146.69 132.31 147.43 132.97 148.29 132.92 C 149.15 132.87 149.81 132.14 149.76 131.28 L 149.70 130.17 C 149.65 129.31 148.92 128.65 148.06 128.70 C 147.20 128.75 146.54 129.48 146.59 130.34 Z M 146.65 131.46 L 146.70 132.42 C 146.75 133.28 147.49 133.93 148.36 133.88 C 149.22 133.83 149.87 133.09 149.82 132.23 L 149.76 131.27 C 149.71 130.41 148.97 129.75 148.11 129.80 C 147.25 129.85 146.59 130.59 146.65 131.46 Z M 146.70 132.41 L 146.76 133.44 C 146.80 134.30 147.54 134.96 148.40 134.92 C 149.27 134.87 149.93 134.13 149.88 133.27 L 149.82 132.24 C 149.78 131.38 149.04 130.71 148.18 130.76 C 147.31 130.81 146.65 131.55 146.70 132.41 Z M 146.75 133.43 L 146.80 134.45 C 146.84 135.32 147.58 135.98 148.44 135.94 C 149.30 135.90 149.97 135.17 149.93 134.30 L 149.88 133.28 C 149.84 132.42 149.11 131.75 148.24 131.79 C 147.38 131.83 146.71 132.57 146.75 133.43 Z M 146.80 134.44 L 146.84 135.44 C 146.87 136.31 147.60 136.98 148.46 136.95 C 149.33 136.91 150.00 136.19 149.97 135.32 L 149.93 134.32 C 149.90 133.45 149.17 132.78 148.31 132.81 C 147.44 132.84 146.77 133.57 146.80 134.44 Z M 146.84 135.43 L 146.87 136.41 C 146.90 137.27 147.62 137.95 148.48 137.92 C 149.35 137.90 150.03 137.18 150.00 136.31 L 149.97 135.33 C 149.94 134.47 149.22 133.79 148.36 133.82 C 147.49 133.84 146.81 134.57 146.84 135.43 Z M 146.87 136.41 L 146.90 137.42 C 146.92 138.29 147.65 138.97 148.51 138.94 C 149.38 138.92 150.06 138.19 150.03 137.33 L 150.00 136.31 C 149.97 135.45 149.25 134.77 148.39 134.79 C 147.52 134.82 146.84 135.54 146.87 136.41 Z M 146.90 137.43 L 146.94 138.48 C 146.97 139.34 147.69 140.02 148.56 139.99 C 149.42 139.96 150.10 139.23 150.07 138.37 L 150.03 137.32 C 150.00 136.46 149.28 135.78 148.41 135.81 C 147.55 135.84 146.87 136.57 146.90 137.43 Z M 146.94 138.49 L 146.98 139.52 C 147.02 140.38 147.75 141.05 148.62 141.01 C 149.48 140.97 150.15 140.24 150.11 139.37 L 150.07 138.35 C 150.03 137.49 149.29 136.82 148.43 136.86 C 147.57 136.90 146.90 137.63 146.94 138.49 Z M 146.98 139.55 L 147.05 140.53 C 147.11 141.39 147.86 142.04 148.72 141.98 C 149.58 141.92 150.24 141.18 150.18 140.31 L 150.11 139.34 C 150.05 138.48 149.30 137.82 148.44 137.88 C 147.58 137.94 146.93 138.69 146.98 139.55 Z M 147.06 140.65 L 147.22 141.69 C 147.35 142.55 148.14 143.14 149.00 143.01 C 149.86 142.88 150.45 142.09 150.32 141.23 L 150.16 140.19 C 150.04 139.33 149.24 138.74 148.38 138.87 C 147.53 139.00 146.94 139.79 147.06 140.65 Z M 147.31 142.03 L 147.63 142.85 C 147.94 143.66 148.85 144.05 149.66 143.74 C 150.46 143.42 150.86 142.52 150.55 141.71 L 150.23 140.89 C 149.91 140.09 149.01 139.69 148.20 140.00 C 147.39 140.32 147.00 141.22 147.31 142.03 Z M 147.95 143.35 L 148.62 144.06 C 149.21 144.69 150.20 144.72 150.83 144.13 C 151.46 143.54 151.49 142.54 150.90 141.91 L 150.23 141.21 C 149.63 140.58 148.64 140.55 148.01 141.14 C 147.39 141.73 147.36 142.73 147.95 143.35 Z M 149.30 144.49 L 150.22 144.77 C 151.05 145.02 151.92 144.55 152.17 143.73 C 152.43 142.90 151.96 142.03 151.14 141.77 L 150.22 141.49 C 149.39 141.24 148.51 141.71 148.26 142.53 C 148.01 143.36 148.47 144.23 149.30 144.49 Z M 150.74 144.83 L 151.76 144.79 C 152.62 144.76 153.29 144.03 153.26 143.17 C 153.23 142.31 152.51 141.64 151.65 141.67 L 150.62 141.71 C 149.76 141.74 149.09 142.47 149.12 143.33 C 149.15 144.19 149.88 144.86 150.74 144.83 Z M 152.13 144.72 L 153.11 144.44 C 153.93 144.21 154.41 143.35 154.17 142.53 C 153.94 141.70 153.08 141.23 152.26 141.46 L 151.28 141.74 C 150.45 141.98 149.98 142.84 150.21 143.66 C 150.45 144.48 151.31 144.96 152.13 144.72 Z M 153.40 144.31 L 154.28 143.85 C 155.03 143.45 155.31 142.52 154.91 141.77 C 154.52 141.02 153.58 140.73 152.83 141.13 L 151.96 141.59 C 151.21 141.99 150.93 142.92 151.32 143.67 C 151.72 144.42 152.65 144.71 153.40 144.31 Z M 154.44 143.73 L 155.25 143.15 C 155.94 142.66 156.10 141.71 155.61 141.03 C 155.13 140.34 154.18 140.18 153.49 140.67 L 152.67 141.25 C 151.99 141.73 151.83 142.68 152.32 143.37 C 152.80 144.05 153.75 144.22 154.44 143.73 Z M 155.32 143.08 L 156.09 142.45 C 156.74 141.93 156.84 140.98 156.31 140.34 C 155.79 139.69 154.84 139.59 154.20 140.11 L 153.43 140.74 C 152.78 141.26 152.68 142.21 153.20 142.85 C 153.73 143.50 154.67 143.60 155.32 143.08 Z M 156.12 142.40 L 156.88 141.74 C 157.50 141.20 157.57 140.26 157.03 139.64 C 156.49 139.03 155.56 138.96 154.94 139.50 L 154.17 140.16 C 153.55 140.70 153.49 141.64 154.03 142.25 C 154.56 142.87 155.50 142.94 156.12 142.40 Z M 156.89 141.71 L 157.64 141.03 C 158.24 140.49 158.29 139.57 157.75 138.96 C 157.21 138.36 156.28 138.31 155.68 138.85 L 154.93 139.53 C 154.33 140.07 154.28 140.99 154.82 141.60 C 155.36 142.20 156.29 142.25 156.89 141.71 Z M 157.65 141.01 L 158.38 140.33 C 158.97 139.78 159.00 138.86 158.46 138.28 C 157.91 137.69 156.99 137.65 156.40 138.20 L 155.67 138.88 C 155.08 139.42 155.05 140.34 155.60 140.93 C 156.14 141.52 157.06 141.55 157.65 141.01 Z M 158.39 140.30 L 159.11 139.61 C 159.68 139.06 159.70 138.14 159.15 137.57 C 158.60 137.00 157.69 136.98 157.11 137.53 L 156.39 138.23 C 155.82 138.78 155.80 139.69 156.35 140.26 C 156.91 140.83 157.82 140.85 158.39 140.30 Z M 159.12 139.59 L 159.83 138.88 C 160.39 138.32 160.40 137.42 159.84 136.86 C 159.28 136.29 158.37 136.29 157.81 136.85 L 157.10 137.55 C 156.54 138.11 156.54 139.02 157.10 139.58 C 157.65 140.14 158.56 140.14 159.12 139.59 Z M 159.84 138.87 L 160.40 138.30 C 160.95 137.74 160.95 136.84 160.39 136.28 C 159.83 135.73 158.93 135.73 158.37 136.29 L 157.81 136.86 C 157.25 137.42 157.26 138.32 157.82 138.88 C 158.38 139.43 159.28 139.43 159.84 138.87 Z"
      fill="black"
      fill-rule="nonzero" /><path d="M 162.69 128.51 L 163.67 128.29 C 164.51 128.10 165.03 127.27 164.84 126.43 C 164.65 125.60 163.82 125.07 162.98 125.26 L 162.01 125.48 C 161.17 125.67 160.64 126.51 160.83 127.34 C 161.02 128.18 161.86 128.70 162.69 128.51 Z M 163.58 128.30 L 164.57 128.14 C 165.41 128.00 165.98 127.20 165.84 126.36 C 165.70 125.51 164.90 124.94 164.05 125.09 L 163.07 125.25 C 162.23 125.39 161.66 126.19 161.80 127.03 C 161.94 127.88 162.74 128.45 163.58 128.30 Z M 164.41 128.15 L 165.41 128.08 C 166.26 128.03 166.90 127.29 166.84 126.44 C 166.79 125.59 166.05 124.95 165.20 125.00 L 164.21 125.07 C 163.36 125.13 162.71 125.87 162.77 126.72 C 162.83 127.57 163.56 128.21 164.41 128.15 Z M 165.29 128.09 L 166.30 128.09 C 167.15 128.10 167.84 127.42 167.85 126.56 C 167.86 125.71 167.17 125.02 166.32 125.01 L 165.32 125.00 C 164.47 125.00 163.77 125.68 163.76 126.53 C 163.76 127.38 164.44 128.08 165.29 128.09 Z M 166.19 128.09 L 167.25 128.17 C 168.10 128.23 168.84 127.59 168.90 126.74 C 168.96 125.89 168.33 125.15 167.48 125.09 L 166.42 125.01 C 165.57 124.95 164.83 125.59 164.77 126.44 C 164.70 127.29 165.34 128.03 166.19 128.09 Z M 166.90 128.11 L 167.79 128.39 C 168.61 128.64 169.48 128.18 169.73 127.36 C 169.99 126.55 169.53 125.68 168.71 125.43 L 167.82 125.15 C 167.00 124.90 166.14 125.35 165.88 126.17 C 165.63 126.99 166.09 127.86 166.90 128.11 Z M 167.08 127.92 L 167.70 128.65 C 168.26 129.29 169.25 129.37 169.90 128.80 C 170.54 128.24 170.62 127.26 170.05 126.61 L 169.43 125.89 C 168.87 125.24 167.89 125.17 167.24 125.73 C 166.59 126.29 166.52 127.27 167.08 127.92 Z M 167.35 127.92 L 167.53 128.88 C 167.70 129.72 168.51 130.27 169.36 130.11 C 170.20 129.95 170.76 129.13 170.59 128.28 L 170.41 127.33 C 170.24 126.49 169.43 125.94 168.58 126.10 C 167.74 126.26 167.19 127.08 167.35 127.92 Z M 167.52 128.35 L 167.38 129.32 C 167.25 130.17 167.84 130.96 168.69 131.09 C 169.54 131.22 170.33 130.63 170.46 129.78 L 170.60 128.81 C 170.73 127.96 170.14 127.17 169.29 127.04 C 168.44 126.91 167.65 127.50 167.52 128.35 Z M 167.51 128.89 L 167.06 129.84 C 166.70 130.62 167.04 131.54 167.81 131.91 C 168.59 132.27 169.52 131.94 169.88 131.16 L 170.33 130.21 C 170.69 129.43 170.35 128.51 169.58 128.14 C 168.80 127.78 167.87 128.11 167.51 128.89 Z M 167.25 129.57 L 166.63 130.37 C 166.12 131.05 166.25 132.02 166.93 132.53 C 167.60 133.05 168.57 132.92 169.08 132.24 L 169.70 131.43 C 170.21 130.76 170.08 129.79 169.41 129.27 C 168.73 128.76 167.76 128.89 167.25 129.57 Z M 166.79 130.23 L 166.07 130.93 C 165.48 131.53 165.47 132.49 166.06 133.09 C 166.65 133.68 167.62 133.69 168.21 133.10 L 168.93 132.39 C 169.53 131.80 169.53 130.83 168.94 130.24 C 168.35 129.64 167.39 129.63 166.79 130.23 Z M 166.25 130.82 L 165.41 131.44 C 164.75 131.94 164.61 132.87 165.11 133.54 C 165.60 134.20 166.54 134.33 167.20 133.84 L 168.04 133.21 C 168.70 132.72 168.84 131.78 168.34 131.12 C 167.85 130.46 166.91 130.32 166.25 130.82 Z M 165.58 131.37 L 164.74 131.85 C 164.04 132.25 163.79 133.15 164.19 133.85 C 164.60 134.55 165.49 134.80 166.20 134.39 L 167.03 133.91 C 167.74 133.51 167.98 132.62 167.58 131.91 C 167.18 131.21 166.28 130.97 165.58 131.37 Z M 164.80 131.84 L 164.52 131.98 C 163.81 132.35 163.54 133.22 163.91 133.93 C 164.27 134.64 165.15 134.92 165.86 134.55 L 166.13 134.40 C 166.84 134.04 167.12 133.16 166.75 132.45 C 166.38 131.74 165.51 131.47 164.80 131.84 Z"
      fill="black"
      fill-rule="nonzero" /><path d="M 160.94 127.19 L 160.55 128.02 C 160.17 128.79 160.50 129.73 161.28 130.10 C 162.05 130.47 162.99 130.14 163.36 129.37 L 163.76 128.54 C 164.13 127.76 163.80 126.83 163.02 126.46 C 162.25 126.08 161.32 126.41 160.94 127.19 Z M 160.45 128.25 L 160.15 129.27 C 159.91 130.10 160.38 130.97 161.21 131.21 C 162.04 131.46 162.91 130.98 163.15 130.15 L 163.45 129.13 C 163.70 128.30 163.22 127.43 162.39 127.19 C 161.56 126.95 160.69 127.42 160.45 128.25 Z M 160.10 129.53 L 159.99 130.47 C 159.89 131.33 160.50 132.11 161.36 132.21 C 162.22 132.31 163.00 131.69 163.10 130.83 L 163.21 129.89 C 163.31 129.03 162.69 128.26 161.83 128.16 C 160.97 128.06 160.20 128.67 160.10 129.53 Z M 159.98 130.60 L 159.94 131.62 C 159.91 132.49 160.59 133.21 161.45 133.25 C 162.32 133.28 163.04 132.60 163.07 131.73 L 163.11 130.71 C 163.14 129.84 162.46 129.12 161.60 129.09 C 160.73 129.06 160.01 129.73 159.98 130.60 Z M 159.94 131.68 L 159.94 132.72 C 159.94 133.59 160.65 134.29 161.51 134.29 C 162.38 134.28 163.08 133.58 163.08 132.71 L 163.07 131.68 C 163.07 130.81 162.37 130.11 161.50 130.11 C 160.64 130.11 159.94 130.82 159.94 131.68 Z M 159.94 132.74 L 159.96 133.78 C 159.97 134.65 160.68 135.34 161.55 135.33 C 162.41 135.31 163.10 134.60 163.09 133.74 L 163.08 132.70 C 163.06 131.83 162.35 131.14 161.49 131.15 C 160.62 131.16 159.93 131.87 159.94 132.74 Z M 159.96 133.79 L 159.98 134.77 C 159.99 135.63 160.70 136.32 161.57 136.31 C 162.43 136.29 163.12 135.58 163.11 134.72 L 163.09 133.73 C 163.07 132.87 162.36 132.18 161.50 132.19 C 160.63 132.21 159.94 132.92 159.96 133.79 Z M 159.98 134.76 L 159.99 135.75 C 160.00 136.61 160.71 137.30 161.57 137.29 C 162.44 137.28 163.13 136.57 163.12 135.71 L 163.10 134.72 C 163.09 133.86 162.38 133.17 161.52 133.18 C 160.66 133.19 159.97 133.90 159.98 134.76 Z M 159.99 135.74 L 160.00 136.77 C 160.01 137.63 160.71 138.33 161.58 138.32 C 162.44 138.31 163.13 137.61 163.13 136.74 L 163.12 135.71 C 163.11 134.85 162.40 134.16 161.54 134.17 C 160.68 134.17 159.98 134.88 159.99 135.74 Z M 160.00 136.78 L 160.02 137.76 C 160.03 138.62 160.74 139.31 161.60 139.30 C 162.46 139.28 163.15 138.57 163.14 137.71 L 163.12 136.73 C 163.11 135.87 162.40 135.18 161.54 135.20 C 160.68 135.21 159.99 135.92 160.00 136.78 Z M 160.02 137.80 L 160.06 138.82 C 160.09 139.68 160.82 140.35 161.68 140.31 C 162.54 140.28 163.21 139.56 163.18 138.70 L 163.14 137.67 C 163.10 136.81 162.38 136.14 161.52 136.18 C 160.66 136.21 159.99 136.94 160.02 137.80 Z M 160.06 138.88 L 160.14 139.85 C 160.21 140.71 160.96 141.35 161.81 141.28 C 162.67 141.22 163.31 140.47 163.25 139.61 L 163.17 138.63 C 163.10 137.78 162.35 137.14 161.50 137.20 C 160.64 137.27 160.00 138.02 160.06 138.88 Z M 160.15 139.94 L 160.29 140.96 C 160.40 141.81 161.19 142.41 162.04 142.29 C 162.89 142.18 163.49 141.40 163.37 140.54 L 163.23 139.52 C 163.12 138.67 162.34 138.07 161.49 138.19 C 160.64 138.30 160.04 139.09 160.15 139.94 Z M 160.37 141.26 L 160.69 142.17 C 160.97 142.98 161.85 143.41 162.66 143.13 C 163.47 142.84 163.90 141.96 163.61 141.15 L 163.29 140.24 C 163.01 139.43 162.13 139.01 161.32 139.29 C 160.51 139.57 160.08 140.45 160.37 141.26 Z M 161.21 142.89 L 161.96 143.47 C 162.64 143.99 163.61 143.86 164.13 143.18 C 164.65 142.50 164.52 141.53 163.84 141.01 L 163.09 140.43 C 162.41 139.91 161.44 140.04 160.92 140.72 C 160.40 141.40 160.53 142.37 161.21 142.89 Z M 162.79 143.79 L 163.77 143.85 C 164.63 143.91 165.37 143.26 165.42 142.41 C 165.48 141.56 164.84 140.82 163.98 140.76 L 163.00 140.69 C 162.15 140.63 161.41 141.28 161.35 142.13 C 161.29 142.99 161.94 143.73 162.79 143.79 Z M 164.39 143.76 L 165.31 143.44 C 166.11 143.15 166.53 142.27 166.25 141.47 C 165.96 140.66 165.08 140.24 164.28 140.52 L 163.36 140.85 C 162.56 141.13 162.13 142.02 162.42 142.82 C 162.70 143.63 163.59 144.05 164.39 143.76 Z M 165.62 143.28 L 166.46 142.75 C 167.17 142.29 167.39 141.34 166.93 140.62 C 166.48 139.90 165.52 139.69 164.81 140.15 L 163.97 140.68 C 163.25 141.14 163.04 142.09 163.49 142.81 C 163.95 143.52 164.90 143.74 165.62 143.28 Z M 166.58 142.65 L 167.36 142.03 C 168.02 141.51 168.14 140.55 167.62 139.88 C 167.09 139.22 166.13 139.11 165.47 139.63 L 164.69 140.25 C 164.02 140.77 163.91 141.73 164.43 142.39 C 164.95 143.06 165.91 143.17 166.58 142.65 Z M 167.42 141.97 L 168.20 141.28 C 168.83 140.73 168.89 139.77 168.34 139.14 C 167.79 138.51 166.83 138.45 166.20 139.00 L 165.42 139.69 C 164.79 140.24 164.72 141.20 165.28 141.83 C 165.83 142.46 166.79 142.52 167.42 141.97 Z M 168.23 141.24 L 168.96 140.56 C 169.56 139.99 169.59 139.04 169.03 138.43 C 168.46 137.83 167.51 137.79 166.91 138.36 L 166.18 139.04 C 165.57 139.61 165.54 140.56 166.10 141.17 C 166.67 141.77 167.62 141.80 168.23 141.24 Z M 168.97 140.52 L 169.69 139.82 C 170.27 139.25 170.29 138.31 169.71 137.72 C 169.14 137.13 168.20 137.12 167.61 137.69 L 166.89 138.40 C 166.31 138.97 166.30 139.91 166.87 140.49 C 167.44 141.08 168.38 141.09 168.97 140.52 Z M 169.69 139.79 L 170.41 139.07 C 170.98 138.49 170.98 137.56 170.40 136.99 C 169.83 136.42 168.90 136.42 168.33 137.00 L 167.61 137.72 C 167.04 138.30 167.04 139.23 167.62 139.80 C 168.19 140.37 169.12 140.37 169.69 139.79 Z M 170.40 139.06 L 171.10 138.35 C 171.67 137.78 171.67 136.86 171.10 136.29 C 170.52 135.73 169.60 135.73 169.04 136.30 L 168.34 137.01 C 167.77 137.58 167.77 138.50 168.34 139.07 C 168.92 139.63 169.84 139.63 170.40 139.06 Z M 171.07 138.36 L 171.79 137.68 C 172.36 137.12 172.38 136.21 171.82 135.63 C 171.27 135.06 170.35 135.04 169.78 135.60 L 169.07 136.29 C 168.49 136.84 168.48 137.75 169.03 138.33 C 169.59 138.90 170.50 138.92 171.07 138.36 Z M 171.75 137.70 L 172.49 137.02 C 173.08 136.49 173.12 135.58 172.58 135.00 C 172.05 134.41 171.14 134.37 170.56 134.90 L 169.82 135.58 C 169.23 136.11 169.19 137.02 169.72 137.60 C 170.26 138.19 171.16 138.23 171.75 137.70 Z M 172.47 137.03 L 173.06 136.51 C 173.65 135.99 173.70 135.09 173.18 134.49 C 172.66 133.90 171.75 133.85 171.16 134.37 L 170.57 134.89 C 169.98 135.42 169.93 136.32 170.45 136.91 C 170.98 137.50 171.88 137.56 172.47 137.03 Z"
      fill="black"
      fill-rule="nonzero" /><path d="M 146.00 156.72 L 146.97 156.73 C 147.81 156.74 148.50 156.06 148.51 155.21 C 148.51 154.37 147.83 153.68 146.99 153.68 L 146.02 153.67 C 145.18 153.66 144.49 154.34 144.48 155.18 C 144.48 156.03 145.15 156.71 146.00 156.72 Z M 147.14 156.75 L 148.16 156.65 C 149.01 156.56 149.64 155.79 149.55 154.94 C 149.46 154.08 148.69 153.46 147.84 153.55 L 146.82 153.65 C 145.96 153.74 145.34 154.51 145.43 155.36 C 145.52 156.22 146.28 156.84 147.14 156.75 Z M 148.40 156.62 L 149.37 156.36 C 150.22 156.14 150.72 155.28 150.50 154.44 C 150.27 153.60 149.41 153.10 148.57 153.32 L 147.60 153.57 C 146.75 153.80 146.25 154.66 146.47 155.50 C 146.70 156.34 147.56 156.84 148.40 156.62 Z M 149.50 156.32 L 150.45 155.99 C 151.27 155.69 151.70 154.79 151.41 153.97 C 151.12 153.15 150.22 152.72 149.40 153.02 L 148.44 153.36 C 147.62 153.65 147.20 154.55 147.49 155.37 C 147.78 156.19 148.68 156.62 149.50 156.32 Z M 150.49 155.97 L 151.44 155.61 C 152.26 155.30 152.66 154.39 152.35 153.57 C 152.04 152.76 151.13 152.36 150.32 152.67 L 149.36 153.03 C 148.55 153.34 148.14 154.25 148.45 155.06 C 148.76 155.87 149.67 156.28 150.49 155.97 Z M 151.45 155.60 L 152.35 155.26 C 153.16 154.94 153.56 154.04 153.25 153.23 C 152.94 152.42 152.03 152.01 151.22 152.32 L 150.32 152.67 C 149.51 152.98 149.11 153.89 149.42 154.70 C 149.73 155.51 150.64 155.91 151.45 155.60 Z M 152.36 155.25 L 153.26 154.89 C 154.06 154.57 154.46 153.66 154.14 152.86 C 153.82 152.05 152.91 151.66 152.10 151.98 L 151.21 152.33 C 150.40 152.65 150.01 153.56 150.33 154.37 C 150.65 155.17 151.56 155.56 152.36 155.25 Z M 153.26 154.88 L 154.21 154.50 C 155.01 154.18 155.40 153.27 155.08 152.47 C 154.75 151.67 153.84 151.28 153.04 151.60 L 152.10 151.99 C 151.30 152.31 150.91 153.22 151.23 154.02 C 151.55 154.82 152.46 155.21 153.26 154.88 Z M 154.21 154.50 L 155.13 154.12 C 155.93 153.80 156.31 152.90 155.99 152.10 C 155.67 151.30 154.77 150.92 153.97 151.24 L 153.05 151.61 C 152.25 151.93 151.86 152.84 152.19 153.63 C 152.51 154.43 153.41 154.82 154.21 154.50 Z M 155.13 154.11 L 156.06 153.73 C 156.85 153.42 157.24 152.52 156.92 151.73 C 156.60 150.94 155.70 150.55 154.91 150.87 L 153.97 151.25 C 153.18 151.57 152.80 152.47 153.12 153.26 C 153.44 154.05 154.34 154.43 155.13 154.11 Z M 156.07 153.72 L 156.99 153.34 C 157.78 153.02 158.15 152.13 157.83 151.35 C 157.51 150.56 156.62 150.19 155.84 150.51 L 154.91 150.89 C 154.13 151.21 153.75 152.10 154.07 152.88 C 154.39 153.67 155.28 154.04 156.07 153.72 Z M 156.99 153.33 L 157.91 152.95 C 158.69 152.63 159.06 151.75 158.74 150.97 C 158.43 150.19 157.54 149.82 156.76 150.14 L 155.84 150.52 C 155.06 150.84 154.69 151.72 155.01 152.50 C 155.33 153.28 156.21 153.65 156.99 153.33 Z M 157.91 152.94 L 158.84 152.56 C 159.61 152.25 159.98 151.37 159.66 150.60 C 159.35 149.83 158.47 149.46 157.70 149.77 L 156.77 150.15 C 156.00 150.46 155.63 151.34 155.94 152.11 C 156.26 152.88 157.14 153.26 157.91 152.94 Z M 158.83 152.55 L 159.76 152.18 C 160.52 151.87 160.89 150.99 160.58 150.23 C 160.27 149.46 159.40 149.09 158.63 149.41 L 157.70 149.78 C 156.94 150.09 156.57 150.97 156.88 151.73 C 157.19 152.50 158.07 152.87 158.83 152.55 Z M 159.76 152.16 L 160.70 151.78 C 161.45 151.46 161.81 150.59 161.50 149.84 C 161.18 149.08 160.32 148.72 159.56 149.03 L 158.63 149.42 C 157.87 149.73 157.51 150.60 157.82 151.36 C 158.14 152.12 159.01 152.48 159.76 152.16 Z M 160.69 151.77 L 161.61 151.38 C 162.37 151.07 162.72 150.21 162.41 149.45 C 162.10 148.70 161.23 148.35 160.48 148.66 L 159.56 149.04 C 158.81 149.36 158.45 150.22 158.77 150.97 C 159.08 151.72 159.94 152.08 160.69 151.77 Z M 161.59 151.38 L 162.53 151.01 C 163.28 150.71 163.64 149.85 163.34 149.10 C 163.04 148.35 162.19 147.99 161.44 148.29 L 160.50 148.66 C 159.75 148.96 159.39 149.81 159.69 150.57 C 159.99 151.32 160.84 151.68 161.59 151.38 Z M 162.51 151.00 L 163.44 150.64 C 164.19 150.35 164.56 149.50 164.27 148.76 C 163.97 148.01 163.13 147.64 162.38 147.93 L 161.46 148.29 C 160.71 148.58 160.34 149.43 160.63 150.18 C 160.92 150.92 161.77 151.29 162.51 151.00 Z M 163.46 150.62 L 164.39 150.24 C 165.13 149.94 165.48 149.09 165.18 148.35 C 164.87 147.61 164.03 147.26 163.29 147.56 L 162.36 147.95 C 161.62 148.25 161.27 149.10 161.57 149.84 C 161.88 150.57 162.72 150.93 163.46 150.62 Z M 164.40 150.23 L 165.31 149.84 C 166.04 149.54 166.38 148.69 166.07 147.96 C 165.76 147.23 164.92 146.88 164.18 147.19 L 163.28 147.58 C 162.55 147.89 162.20 148.73 162.51 149.46 C 162.82 150.20 163.67 150.54 164.40 150.23 Z M 165.28 149.85 L 166.21 149.47 C 166.94 149.18 167.29 148.34 167.00 147.61 C 166.70 146.87 165.86 146.52 165.13 146.82 L 164.21 147.19 C 163.47 147.49 163.12 148.32 163.42 149.06 C 163.71 149.79 164.55 150.14 165.28 149.85 Z M 166.20 149.47 L 167.13 149.10 C 167.86 148.81 168.22 147.98 167.92 147.24 C 167.63 146.51 166.80 146.15 166.07 146.45 L 165.14 146.82 C 164.40 147.11 164.05 147.94 164.34 148.68 C 164.63 149.41 165.47 149.76 166.20 149.47 Z M 167.13 149.10 L 168.06 148.72 C 168.79 148.42 169.14 147.59 168.85 146.86 C 168.55 146.13 167.72 145.78 166.99 146.08 L 166.06 146.45 C 165.33 146.75 164.98 147.58 165.27 148.31 C 165.57 149.04 166.40 149.39 167.13 149.10 Z M 168.06 148.72 L 168.37 148.59 C 169.10 148.30 169.45 147.46 169.15 146.73 C 168.85 146.01 168.02 145.66 167.29 145.95 L 166.99 146.08 C 166.26 146.37 165.91 147.21 166.20 147.94 C 166.50 148.66 167.33 149.01 168.06 148.72 Z"
      fill="black"
      fill-rule="nonzero" /><path d="M 153.47 146.25 L 153.11 147.19 C 152.80 147.98 153.20 148.87 153.99 149.18 C 154.78 149.48 155.67 149.09 155.97 148.30 L 156.34 147.36 C 156.64 146.57 156.25 145.68 155.46 145.37 C 154.67 145.07 153.78 145.46 153.47 146.25 Z M 153.01 147.42 L 152.82 148.37 C 152.64 149.22 153.18 150.04 154.02 150.22 C 154.86 150.40 155.69 149.86 155.87 149.01 L 156.07 148.06 C 156.24 147.22 155.70 146.39 154.86 146.22 C 154.02 146.04 153.19 146.58 153.01 147.42 Z M 152.78 148.73 L 152.80 149.71 C 152.82 150.58 153.53 151.26 154.40 151.24 C 155.26 151.22 155.95 150.51 155.93 149.64 L 155.91 148.66 C 155.89 147.80 155.17 147.11 154.31 147.13 C 153.44 147.15 152.76 147.86 152.78 148.73 Z M 152.82 149.88 L 152.94 150.83 C 153.06 151.69 153.84 152.29 154.70 152.17 C 155.55 152.06 156.15 151.27 156.03 150.42 L 155.91 149.47 C 155.79 148.62 155.01 148.02 154.16 148.13 C 153.30 148.25 152.70 149.03 152.82 149.88 Z M 152.96 150.88 L 153.12 151.83 C 153.26 152.67 154.06 153.24 154.90 153.10 C 155.75 152.96 156.32 152.16 156.18 151.32 L 156.02 150.37 C 155.88 149.53 155.08 148.96 154.23 149.10 C 153.39 149.24 152.82 150.04 152.96 150.88 Z M 153.13 151.84 L 153.32 152.93 C 153.47 153.76 154.26 154.33 155.10 154.18 C 155.94 154.03 156.50 153.24 156.35 152.40 L 156.16 151.31 C 156.02 150.47 155.22 149.91 154.39 150.06 C 153.55 150.20 152.99 151.00 153.13 151.84 Z M 153.33 152.92 L 153.50 153.92 C 153.64 154.75 154.43 155.31 155.26 155.17 C 156.09 155.02 156.65 154.23 156.51 153.40 L 156.34 152.41 C 156.20 151.58 155.41 151.02 154.58 151.16 C 153.75 151.30 153.19 152.09 153.33 152.92 Z M 153.52 153.92 L 153.69 154.94 C 153.84 155.76 154.62 156.31 155.44 156.17 C 156.27 156.03 156.82 155.24 156.68 154.42 L 156.50 153.40 C 156.35 152.58 155.57 152.03 154.75 152.17 C 153.93 152.31 153.37 153.10 153.52 153.92 Z M 153.71 154.95 L 153.89 155.92 C 154.04 156.73 154.82 157.27 155.64 157.12 C 156.45 156.97 156.99 156.18 156.84 155.37 L 156.66 154.41 C 156.51 153.59 155.72 153.06 154.91 153.21 C 154.10 153.36 153.56 154.14 153.71 154.95 Z M 153.92 155.96 L 154.15 157.03 C 154.33 157.83 155.12 158.33 155.92 158.16 C 156.72 157.98 157.22 157.19 157.04 156.39 L 156.81 155.32 C 156.63 154.53 155.84 154.02 155.04 154.20 C 154.25 154.37 153.74 155.16 153.92 155.96 Z M 154.21 157.14 L 154.47 158.00 C 154.70 158.77 155.52 159.20 156.29 158.97 C 157.06 158.73 157.49 157.92 157.26 157.15 L 156.99 156.29 C 156.76 155.52 155.95 155.08 155.18 155.32 C 154.41 155.55 153.97 156.37 154.21 157.14 Z M 154.54 158.14 L 154.92 159.04 C 155.23 159.78 156.07 160.12 156.81 159.81 C 157.54 159.50 157.88 158.66 157.57 157.92 L 157.19 157.02 C 156.88 156.28 156.03 155.94 155.30 156.25 C 154.57 156.56 154.23 157.40 154.54 158.14 Z M 154.97 159.12 L 155.40 159.99 C 155.76 160.70 156.61 160.99 157.32 160.63 C 158.03 160.28 158.31 159.42 157.96 158.71 L 157.53 157.84 C 157.17 157.14 156.31 156.85 155.61 157.20 C 154.90 157.56 154.61 158.42 154.97 159.12 Z"
      fill="black"
      fill-rule="nonzero" /><path d="M 162.23 146.57 L 162.17 147.51 C 162.11 148.34 162.73 149.07 163.56 149.13 C 164.39 149.19 165.11 148.56 165.18 147.73 L 165.24 146.79 C 165.30 145.96 164.68 145.23 163.85 145.17 C 163.02 145.11 162.29 145.74 162.23 146.57 Z M 162.15 147.45 L 162.04 148.47 C 161.94 149.31 162.55 150.07 163.39 150.16 C 164.23 150.25 164.99 149.65 165.08 148.81 L 165.19 147.79 C 165.28 146.95 164.68 146.19 163.84 146.10 C 163.00 146.01 162.24 146.61 162.15 147.45 Z M 162.04 148.39 L 161.88 149.37 C 161.74 150.21 162.31 151.00 163.14 151.14 C 163.98 151.28 164.77 150.71 164.91 149.87 L 165.07 148.89 C 165.21 148.05 164.65 147.26 163.81 147.12 C 162.97 146.99 162.18 147.55 162.04 148.39 Z M 161.91 149.32 L 161.70 150.31 C 161.53 151.13 162.06 151.93 162.88 152.10 C 163.70 152.27 164.51 151.74 164.68 150.92 L 164.88 149.93 C 165.05 149.11 164.52 148.31 163.70 148.14 C 162.88 147.97 162.08 148.49 161.91 149.32 Z M 161.74 150.27 L 161.50 151.26 C 161.31 152.06 161.80 152.87 162.61 153.06 C 163.41 153.25 164.22 152.76 164.41 151.95 L 164.64 150.96 C 164.83 150.16 164.34 149.35 163.54 149.16 C 162.73 148.97 161.93 149.47 161.74 150.27 Z M 161.53 151.23 L 161.26 152.22 C 161.05 153.01 161.52 153.82 162.31 154.03 C 163.09 154.24 163.90 153.77 164.11 152.99 L 164.38 151.99 C 164.59 151.20 164.12 150.40 163.33 150.19 C 162.55 149.98 161.74 150.44 161.53 151.23 Z M 161.30 152.18 L 161.01 153.13 C 160.77 153.89 161.20 154.71 161.97 154.94 C 162.74 155.18 163.55 154.74 163.79 153.98 L 164.08 153.03 C 164.31 152.26 163.88 151.45 163.11 151.22 C 162.34 150.98 161.53 151.41 161.30 152.18 Z M 161.04 153.07 L 160.72 154.00 C 160.45 154.75 160.85 155.57 161.60 155.83 C 162.34 156.09 163.16 155.70 163.43 154.95 L 163.75 154.03 C 164.02 153.28 163.62 152.46 162.87 152.20 C 162.12 151.93 161.30 152.33 161.04 153.07 Z M 160.74 153.95 L 160.37 154.88 C 160.08 155.61 160.44 156.44 161.18 156.73 C 161.91 157.02 162.74 156.67 163.03 155.93 L 163.40 155.00 C 163.69 154.27 163.33 153.44 162.60 153.15 C 161.86 152.86 161.03 153.21 160.74 153.95 Z M 160.39 154.85 L 160.00 155.77 C 159.69 156.50 160.03 157.33 160.76 157.64 C 161.49 157.95 162.32 157.61 162.63 156.88 L 163.02 155.96 C 163.32 155.23 162.99 154.40 162.26 154.09 C 161.53 153.78 160.70 154.12 160.39 154.85 Z M 160.00 155.76 L 159.93 155.95 C 159.62 156.67 159.95 157.51 160.67 157.82 C 161.40 158.13 162.24 157.79 162.55 157.07 L 162.63 156.89 C 162.94 156.16 162.60 155.32 161.88 155.01 C 161.15 154.70 160.32 155.04 160.00 155.76 Z"
      fill="black"
      fill-rule="nonzero" /><path d="M 154.60 162.62 L 155.52 162.28 C 156.34 161.98 156.76 161.07 156.46 160.25 C 156.15 159.43 155.25 159.01 154.43 159.31 L 153.51 159.65 C 152.69 159.95 152.27 160.86 152.57 161.68 C 152.87 162.50 153.78 162.92 154.60 162.62 Z M 155.55 162.26 L 156.48 161.89 C 157.28 161.57 157.68 160.66 157.36 159.85 C 157.04 159.05 156.13 158.65 155.32 158.97 L 154.39 159.34 C 153.59 159.66 153.19 160.57 153.51 161.38 C 153.83 162.18 154.74 162.58 155.55 162.26 Z M 156.52 161.87 L 157.38 161.50 C 158.17 161.16 158.54 160.24 158.20 159.45 C 157.86 158.65 156.94 158.28 156.14 158.62 L 155.28 158.99 C 154.49 159.33 154.12 160.25 154.46 161.05 C 154.80 161.84 155.72 162.21 156.52 161.87 Z M 157.38 161.49 L 158.37 161.06 C 159.17 160.72 159.53 159.80 159.19 159.01 C 158.85 158.22 157.93 157.86 157.14 158.20 L 156.14 158.63 C 155.35 158.97 154.99 159.89 155.33 160.68 C 155.67 161.47 156.59 161.84 157.38 161.49 Z M 158.36 161.07 L 159.22 160.70 C 160.01 160.37 160.38 159.46 160.05 158.67 C 159.72 157.88 158.81 157.50 158.02 157.84 L 157.16 158.20 C 156.36 158.53 155.99 159.44 156.32 160.23 C 156.65 161.02 157.56 161.40 158.36 161.07 Z M 159.19 160.71 L 160.13 160.33 C 160.92 160.01 161.31 159.11 160.99 158.32 C 160.67 157.53 159.77 157.14 158.98 157.46 L 158.04 157.84 C 157.25 158.15 156.86 159.05 157.18 159.85 C 157.50 160.64 158.40 161.02 159.19 160.71 Z M 160.10 160.33 L 161.09 159.96 C 161.88 159.66 162.28 158.77 161.98 157.98 C 161.68 157.18 160.80 156.78 160.00 157.08 L 159.01 157.46 C 158.22 157.76 157.82 158.64 158.12 159.44 C 158.42 160.23 159.30 160.63 160.10 160.33 Z M 161.05 159.96 L 162.06 159.61 C 162.86 159.33 163.28 158.46 163.00 157.66 C 162.72 156.87 161.85 156.45 161.06 156.73 L 160.04 157.08 C 159.25 157.36 158.83 158.23 159.10 159.02 C 159.38 159.82 160.25 160.24 161.05 159.96 Z M 162.02 159.61 L 162.99 159.30 C 163.79 159.04 164.23 158.19 163.97 157.39 C 163.72 156.60 162.87 156.16 162.07 156.41 L 161.10 156.73 C 160.30 156.98 159.86 157.83 160.12 158.63 C 160.37 159.43 161.23 159.86 162.02 159.61 Z M 162.95 159.30 L 163.85 159.04 C 164.65 158.81 165.11 157.98 164.88 157.18 C 164.65 156.39 163.82 155.92 163.02 156.15 L 162.12 156.41 C 161.32 156.64 160.86 157.47 161.09 158.27 C 161.32 159.07 162.15 159.53 162.95 159.30 Z M 163.68 159.10 L 164.80 158.92 C 165.63 158.79 166.20 158.01 166.06 157.18 C 165.93 156.35 165.15 155.78 164.32 155.91 L 163.19 156.09 C 162.36 156.23 161.80 157.01 161.93 157.84 C 162.06 158.67 162.84 159.23 163.68 159.10 Z M 163.01 157.17 L 162.94 157.64 C 162.80 158.50 163.38 159.30 164.23 159.44 C 165.09 159.58 165.89 158.99 166.03 158.14 L 166.10 157.67 C 166.24 156.81 165.66 156.01 164.81 155.87 C 163.95 155.73 163.15 156.31 163.01 157.17 Z M 163.38 156.74 L 162.53 157.56 C 161.90 158.16 161.88 159.17 162.49 159.81 C 163.10 160.44 164.10 160.46 164.74 159.85 L 165.58 159.04 C 166.22 158.43 166.24 157.43 165.63 156.79 C 165.02 156.16 164.02 156.14 163.38 156.74 Z M 162.66 157.44 L 161.86 158.05 C 161.16 158.59 161.03 159.60 161.57 160.30 C 162.11 161.00 163.12 161.13 163.82 160.58 L 164.61 159.97 C 165.31 159.43 165.44 158.43 164.90 157.73 C 164.36 157.03 163.36 156.90 162.66 157.44 Z M 161.89 158.02 L 161.11 158.60 C 160.39 159.13 160.24 160.13 160.76 160.84 C 161.29 161.56 162.29 161.71 163.00 161.19 L 163.79 160.61 C 164.51 160.09 164.66 159.08 164.14 158.37 C 163.61 157.65 162.61 157.50 161.89 158.02 Z M 161.09 158.61 L 160.29 159.21 C 159.58 159.74 159.43 160.75 159.96 161.46 C 160.49 162.17 161.50 162.31 162.21 161.78 L 163.02 161.18 C 163.73 160.65 163.87 159.64 163.34 158.93 C 162.81 158.22 161.81 158.08 161.09 158.61 Z M 160.30 159.20 L 159.53 159.76 C 158.82 160.28 158.66 161.29 159.19 162.00 C 159.71 162.72 160.72 162.88 161.43 162.35 L 162.20 161.79 C 162.92 161.27 163.07 160.26 162.55 159.55 C 162.03 158.83 161.02 158.67 160.30 159.20 Z M 159.51 159.77 L 158.70 160.39 C 157.99 160.92 157.85 161.93 158.39 162.64 C 158.93 163.35 159.94 163.49 160.64 162.95 L 161.46 162.34 C 162.16 161.80 162.30 160.79 161.77 160.08 C 161.23 159.38 160.22 159.24 159.51 159.77 Z M 158.64 160.43 L 157.87 161.08 C 157.18 161.64 157.09 162.66 157.66 163.34 C 158.23 164.03 159.24 164.12 159.93 163.55 L 160.70 162.91 C 161.38 162.34 161.48 161.33 160.91 160.64 C 160.34 159.96 159.33 159.86 158.64 160.43 Z M 157.83 161.11 L 157.06 161.79 C 156.40 162.38 156.34 163.40 156.93 164.06 C 157.52 164.73 158.54 164.79 159.21 164.20 L 159.97 163.52 C 160.63 162.93 160.69 161.91 160.10 161.24 C 159.51 160.58 158.49 160.52 157.83 161.11 Z M 157.04 161.81 L 156.29 162.51 C 155.64 163.12 155.60 164.14 156.21 164.79 C 156.82 165.44 157.83 165.47 158.48 164.87 L 159.23 164.17 C 159.88 163.56 159.92 162.54 159.31 161.89 C 158.71 161.24 157.69 161.21 157.04 161.81 Z M 156.26 162.54 L 155.53 163.25 C 154.89 163.87 154.88 164.89 155.50 165.53 C 156.11 166.17 157.13 166.18 157.77 165.56 L 158.51 164.84 C 159.15 164.22 159.16 163.21 158.54 162.57 C 157.92 161.93 156.90 161.92 156.26 162.54 Z M 155.51 163.28 L 154.83 163.96 C 154.20 164.59 154.20 165.61 154.83 166.24 C 155.47 166.86 156.48 166.86 157.11 166.23 L 157.79 165.54 C 158.42 164.91 158.41 163.89 157.78 163.27 C 157.15 162.64 156.13 162.65 155.51 163.28 Z M 154.81 163.98 L 154.12 164.70 C 153.50 165.33 153.52 166.35 154.16 166.97 C 154.79 167.58 155.81 167.57 156.42 166.93 L 157.12 166.21 C 157.74 165.57 157.72 164.56 157.08 163.94 C 156.45 163.33 155.43 163.34 154.81 163.98 Z M 154.10 164.72 L 153.42 165.45 C 152.82 166.09 152.85 167.11 153.50 167.71 C 154.14 168.31 155.15 168.28 155.76 167.64 L 156.44 166.91 C 157.04 166.26 157.01 165.25 156.36 164.65 C 155.72 164.04 154.71 164.08 154.10 164.72 Z M 153.40 165.48 L 152.73 166.23 C 152.15 166.89 152.21 167.90 152.86 168.48 C 153.52 169.07 154.53 169.01 155.11 168.35 L 155.78 167.60 C 156.37 166.94 156.31 165.94 155.65 165.35 C 154.99 164.77 153.98 164.83 153.40 165.48 Z M 152.71 166.27 L 152.07 167.03 C 151.50 167.70 151.58 168.69 152.25 169.26 C 152.92 169.83 153.92 169.75 154.48 169.08 L 155.13 168.32 C 155.70 167.65 155.61 166.65 154.95 166.09 C 154.28 165.52 153.28 165.60 152.71 166.27 Z M 152.07 167.05 L 151.42 167.83 C 150.86 168.50 150.96 169.49 151.63 170.05 C 152.29 170.60 153.28 170.51 153.84 169.84 L 154.49 169.06 C 155.04 168.39 154.95 167.40 154.28 166.84 C 153.61 166.29 152.62 166.38 152.07 167.05 Z M 151.38 167.91 L 150.79 168.71 C 150.28 169.40 150.42 170.38 151.11 170.89 C 151.80 171.40 152.77 171.25 153.29 170.56 L 153.88 169.76 C 154.39 169.07 154.24 168.10 153.55 167.59 C 152.86 167.08 151.89 167.22 151.38 167.91 Z M 150.67 168.94 L 150.22 169.82 C 149.83 170.57 150.13 171.50 150.88 171.88 C 151.63 172.27 152.56 171.97 152.94 171.22 L 153.40 170.34 C 153.78 169.58 153.49 168.66 152.74 168.27 C 151.98 167.89 151.06 168.18 150.67 168.94 Z M 150.16 170.04 L 149.85 170.96 C 149.59 171.75 150.01 172.60 150.80 172.86 C 151.59 173.12 152.44 172.70 152.70 171.91 L 153.01 171.00 C 153.27 170.21 152.84 169.36 152.06 169.09 C 151.27 168.83 150.42 169.26 150.16 170.04 Z"
      fill="black"
      fill-rule="nonzero" /><path d="M 160.31 162.43 L 160.87 163.27 C 161.33 163.96 162.28 164.14 162.97 163.68 C 163.66 163.21 163.85 162.27 163.38 161.57 L 162.82 160.74 C 162.35 160.05 161.41 159.86 160.71 160.33 C 160.02 160.80 159.84 161.74 160.31 162.43 Z M 160.86 163.32 L 161.43 164.12 C 161.93 164.82 162.90 164.98 163.60 164.48 C 164.30 163.98 164.46 163.01 163.96 162.31 L 163.39 161.52 C 162.89 160.82 161.92 160.65 161.22 161.15 C 160.52 161.65 160.36 162.62 160.86 163.32 Z M 161.46 164.19 L 162.07 164.97 C 162.61 165.65 163.60 165.77 164.28 165.23 C 164.96 164.69 165.08 163.70 164.54 163.02 L 163.93 162.24 C 163.39 161.56 162.40 161.44 161.72 161.98 C 161.04 162.52 160.92 163.51 161.46 164.19 Z M 162.12 165.02 L 162.76 165.76 C 163.32 166.42 164.32 166.49 164.97 165.93 C 165.63 165.36 165.70 164.36 165.14 163.71 L 164.49 162.97 C 163.93 162.31 162.93 162.24 162.28 162.81 C 161.62 163.37 161.55 164.37 162.12 165.02 Z M 162.80 165.80 L 163.49 166.54 C 164.08 167.18 165.07 167.21 165.70 166.63 C 166.34 166.04 166.37 165.04 165.78 164.41 L 165.09 163.67 C 164.50 163.03 163.51 163.00 162.88 163.59 C 162.24 164.18 162.21 165.17 162.80 165.80 Z M 163.53 166.58 L 164.28 167.32 C 164.88 167.93 165.87 167.93 166.48 167.33 C 167.09 166.72 167.09 165.73 166.48 165.12 L 165.74 164.38 C 165.13 163.77 164.14 163.77 163.53 164.37 C 162.93 164.98 162.92 165.97 163.53 166.58 Z M 164.32 167.35 L 165.07 168.05 C 165.69 168.63 166.66 168.60 167.25 167.98 C 167.83 167.36 167.80 166.38 167.18 165.80 L 166.43 165.10 C 165.81 164.52 164.84 164.55 164.26 165.17 C 163.67 165.79 163.70 166.76 164.32 167.35 Z M 165.13 168.06 L 165.87 168.72 C 166.50 169.27 167.46 169.21 168.01 168.58 C 168.56 167.95 168.50 166.99 167.87 166.44 L 167.12 165.78 C 166.49 165.23 165.54 165.29 164.98 165.92 C 164.43 166.55 164.50 167.51 165.13 168.06 Z M 165.98 168.76 L 166.76 169.36 C 167.41 169.85 168.34 169.72 168.84 169.07 C 169.33 168.42 169.21 167.49 168.55 166.99 L 167.77 166.40 C 167.12 165.90 166.19 166.03 165.69 166.68 C 165.20 167.33 165.32 168.26 165.98 168.76 Z M 166.92 169.43 L 167.75 169.92 C 168.44 170.32 169.34 170.09 169.74 169.40 C 170.15 168.71 169.92 167.82 169.22 167.41 L 168.39 166.92 C 167.70 166.52 166.81 166.75 166.40 167.44 C 166.00 168.13 166.23 169.02 166.92 169.43 Z M 167.86 169.95 L 168.76 170.40 C 169.48 170.75 170.34 170.45 170.68 169.74 C 171.03 169.03 170.74 168.17 170.03 167.82 L 169.12 167.37 C 168.41 167.03 167.55 167.32 167.20 168.03 C 166.85 168.74 167.14 169.60 167.86 169.95 Z"
      fill="black"
      fill-rule="nonzero" /><path d="M 132.75 153.26 L 133.70 153.14 C 134.53 153.03 135.11 152.28 135.01 151.45 C 134.91 150.62 134.15 150.03 133.32 150.14 L 132.37 150.26 C 131.54 150.36 130.95 151.12 131.06 151.94 C 131.16 152.77 131.92 153.36 132.75 153.26 Z M 133.65 153.17 L 134.67 153.08 C 135.52 153.00 136.14 152.25 136.07 151.40 C 135.99 150.55 135.24 149.93 134.39 150.01 L 133.37 150.10 C 132.52 150.18 131.89 150.93 131.97 151.78 C 132.05 152.63 132.80 153.25 133.65 153.17 Z M 134.60 153.09 L 135.60 153.05 C 136.46 153.01 137.12 152.29 137.08 151.43 C 137.05 150.58 136.32 149.92 135.47 149.95 L 134.46 150.00 C 133.61 150.03 132.94 150.76 132.98 151.61 C 133.02 152.46 133.74 153.13 134.60 153.09 Z M 135.56 153.02 L 136.58 153.01 C 137.42 153.00 138.09 152.31 138.08 151.47 C 138.07 150.63 137.38 149.95 136.54 149.96 L 135.52 149.98 C 134.68 149.99 134.00 150.68 134.01 151.52 C 134.02 152.36 134.71 153.03 135.56 153.02 Z M 136.56 152.98 L 137.57 152.98 C 138.40 152.98 139.07 152.31 139.07 151.48 C 139.07 150.66 138.40 149.99 137.57 149.99 L 136.55 149.99 C 135.73 149.99 135.06 150.66 135.06 151.49 C 135.06 152.31 135.73 152.98 136.56 152.98 Z M 137.57 152.96 L 138.59 152.96 C 139.40 152.96 140.06 152.30 140.06 151.49 C 140.06 150.67 139.40 150.02 138.59 150.02 L 137.57 150.02 C 136.76 150.02 136.10 150.67 136.10 151.49 C 136.10 152.30 136.76 152.96 137.57 152.96 Z M 138.59 152.93 L 139.55 152.93 C 140.35 152.93 140.99 152.29 140.99 151.49 C 140.99 150.69 140.35 150.04 139.55 150.04 L 138.59 150.04 C 137.79 150.04 137.14 150.69 137.14 151.49 C 137.14 152.29 137.79 152.93 138.59 152.93 Z M 139.55 152.92 L 140.55 152.92 C 141.34 152.92 141.98 152.28 141.98 151.49 C 141.98 150.69 141.34 150.05 140.55 150.05 L 139.55 150.05 C 138.75 150.05 138.11 150.69 138.11 151.49 C 138.11 152.28 138.75 152.92 139.55 152.92 Z M 140.55 152.91 L 141.39 152.91 C 142.18 152.91 142.82 152.27 142.82 151.49 C 142.82 150.70 142.18 150.06 141.39 150.06 L 140.55 150.06 C 139.76 150.06 139.12 150.70 139.12 151.49 C 139.12 152.27 139.76 152.91 140.55 152.91 Z"
      fill="black"
      fill-rule="nonzero" /><path d="M 133.83 155.79 L 132.99 156.29 C 132.27 156.72 132.03 157.66 132.46 158.38 C 132.89 159.10 133.82 159.34 134.55 158.91 L 135.39 158.42 C 136.11 157.99 136.35 157.05 135.92 156.33 C 135.49 155.60 134.56 155.36 133.83 155.79 Z M 133.80 159.13 L 134.49 159.12 C 135.34 159.10 136.01 158.40 135.99 157.56 C 135.98 156.71 135.28 156.04 134.43 156.06 L 133.74 156.07 C 132.89 156.09 132.22 156.79 132.24 157.63 C 132.26 158.48 132.96 159.15 133.80 159.13 Z M 134.72 159.10 L 135.94 158.89 C 136.78 158.75 137.34 157.96 137.20 157.13 C 137.06 156.30 136.27 155.73 135.44 155.87 L 134.21 156.08 C 133.38 156.22 132.82 157.01 132.96 157.84 C 133.10 158.67 133.88 159.24 134.72 159.10 Z M 135.98 158.88 L 137.00 158.68 C 137.83 158.52 138.37 157.72 138.20 156.89 C 138.04 156.06 137.24 155.52 136.41 155.68 L 135.40 155.88 C 134.57 156.05 134.03 156.85 134.19 157.67 C 134.35 158.50 135.16 159.04 135.98 158.88 Z M 137.01 158.68 L 137.97 158.48 C 138.80 158.32 139.33 157.51 139.17 156.69 C 139.00 155.86 138.20 155.33 137.37 155.49 L 136.40 155.69 C 135.58 155.85 135.04 156.66 135.21 157.48 C 135.38 158.31 136.18 158.84 137.01 158.68 Z M 137.95 158.48 L 139.01 158.28 C 139.83 158.12 140.37 157.33 140.21 156.51 C 140.06 155.68 139.26 155.14 138.44 155.30 L 137.39 155.50 C 136.57 155.65 136.03 156.45 136.18 157.27 C 136.34 158.09 137.13 158.63 137.95 158.48 Z M 138.93 158.28 L 139.86 158.15 C 140.68 158.04 141.25 157.28 141.14 156.46 C 141.02 155.64 140.27 155.06 139.45 155.17 L 138.52 155.30 C 137.70 155.42 137.12 156.17 137.24 156.99 C 137.35 157.82 138.11 158.39 138.93 158.28 Z M 139.43 158.14 L 140.35 158.28 C 141.17 158.40 141.93 157.84 142.05 157.02 C 142.18 156.20 141.61 155.44 140.79 155.32 L 139.87 155.18 C 139.05 155.06 138.29 155.62 138.17 156.44 C 138.05 157.26 138.61 158.02 139.43 158.14 Z M 139.25 156.07 L 138.86 156.77 C 138.46 157.50 138.72 158.42 139.45 158.82 C 140.18 159.22 141.10 158.96 141.50 158.23 L 141.89 157.53 C 142.29 156.80 142.03 155.88 141.30 155.48 C 140.58 155.08 139.66 155.34 139.25 156.07 Z M 139.18 156.36 L 138.32 157.11 C 137.69 157.67 137.63 158.63 138.18 159.26 C 138.73 159.89 139.69 159.95 140.32 159.40 L 141.18 158.64 C 141.82 158.09 141.88 157.13 141.33 156.50 C 140.77 155.87 139.81 155.80 139.18 156.36 Z M 138.50 156.96 L 137.67 157.49 C 136.95 157.95 136.74 158.89 137.19 159.61 C 137.65 160.32 138.59 160.53 139.31 160.08 L 140.14 159.55 C 140.86 159.09 141.07 158.15 140.61 157.44 C 140.16 156.72 139.22 156.51 138.50 156.96 Z M 137.77 157.42 L 136.91 157.88 C 136.16 158.27 135.87 159.20 136.27 159.95 C 136.66 160.70 137.59 160.99 138.34 160.60 L 139.20 160.15 C 139.95 159.75 140.24 158.82 139.85 158.07 C 139.45 157.32 138.52 157.03 137.77 157.42 Z M 136.95 157.85 L 136.04 158.30 C 135.27 158.67 134.95 159.60 135.33 160.36 C 135.70 161.13 136.63 161.45 137.39 161.07 L 138.31 160.62 C 139.07 160.25 139.39 159.32 139.01 158.56 C 138.64 157.79 137.71 157.48 136.95 157.85 Z M 136.03 158.30 L 135.14 158.73 C 134.37 159.11 134.06 160.04 134.43 160.80 C 134.81 161.57 135.74 161.89 136.50 161.51 L 137.40 161.07 C 138.16 160.70 138.48 159.77 138.10 159.00 C 137.73 158.24 136.80 157.92 136.03 158.30 Z M 135.15 158.73 L 134.24 159.17 C 133.47 159.54 133.15 160.47 133.52 161.24 C 133.89 162.01 134.82 162.33 135.59 161.96 L 136.50 161.52 C 137.26 161.14 137.59 160.22 137.21 159.45 C 136.84 158.68 135.92 158.36 135.15 158.73 Z M 134.18 159.21 L 133.17 159.75 C 132.42 160.16 132.14 161.09 132.55 161.84 C 132.96 162.59 133.89 162.87 134.64 162.46 L 135.65 161.92 C 136.40 161.51 136.68 160.58 136.27 159.83 C 135.86 159.08 134.93 158.80 134.18 159.21 Z M 132.79 162.16 L 133.09 162.48 C 133.67 163.09 134.64 163.12 135.26 162.54 C 135.88 161.96 135.90 160.99 135.32 160.37 L 135.02 160.05 C 134.44 159.44 133.47 159.41 132.85 159.99 C 132.24 160.57 132.21 161.54 132.79 162.16 Z M 133.89 162.92 L 135.09 163.17 C 135.91 163.35 136.72 162.82 136.90 161.99 C 137.07 161.16 136.54 160.35 135.72 160.18 L 134.52 159.93 C 133.69 159.75 132.88 160.28 132.71 161.11 C 132.53 161.94 133.06 162.75 133.89 162.92 Z M 135.00 163.15 L 135.97 163.41 C 136.79 163.64 137.62 163.16 137.85 162.35 C 138.07 161.53 137.59 160.69 136.78 160.47 L 135.80 160.21 C 134.99 159.98 134.15 160.46 133.93 161.27 C 133.71 162.09 134.19 162.92 135.00 163.15 Z M 135.83 163.36 L 136.76 163.72 C 137.55 164.02 138.42 163.63 138.72 162.85 C 139.03 162.06 138.64 161.18 137.85 160.88 L 136.92 160.53 C 136.14 160.23 135.26 160.62 134.96 161.40 C 134.66 162.18 135.05 163.06 135.83 163.36 Z M 136.57 163.62 L 137.47 164.13 C 138.20 164.54 139.12 164.27 139.53 163.54 C 139.94 162.81 139.68 161.89 138.95 161.48 L 138.05 160.98 C 137.32 160.57 136.39 160.83 135.99 161.56 C 135.58 162.29 135.84 163.22 136.57 163.62 Z M 137.22 163.96 L 137.96 164.59 C 138.60 165.13 139.55 165.06 140.10 164.42 C 140.64 163.79 140.57 162.83 139.93 162.28 L 139.20 161.65 C 138.56 161.11 137.60 161.18 137.06 161.82 C 136.51 162.45 136.59 163.41 137.22 163.96 Z M 137.69 164.30 L 138.26 165.12 C 138.73 165.81 139.68 165.99 140.37 165.52 C 141.07 165.04 141.24 164.09 140.77 163.40 L 140.20 162.58 C 139.73 161.88 138.78 161.70 138.09 162.18 C 137.39 162.66 137.22 163.60 137.69 164.30 Z M 138.03 164.67 L 138.30 165.61 C 138.52 166.43 139.37 166.90 140.19 166.68 C 141.00 166.45 141.48 165.60 141.25 164.79 L 140.99 163.85 C 140.76 163.03 139.91 162.55 139.10 162.78 C 138.28 163.01 137.81 163.86 138.03 164.67 Z M 138.24 165.02 L 138.13 166.00 C 138.03 166.84 138.64 167.61 139.48 167.71 C 140.33 167.80 141.09 167.20 141.19 166.35 L 141.30 165.38 C 141.40 164.53 140.80 163.77 139.95 163.67 C 139.11 163.57 138.34 164.18 138.24 165.02 Z M 138.36 165.35 L 137.84 166.17 C 137.38 166.89 137.59 167.84 138.30 168.30 C 139.02 168.76 139.97 168.55 140.43 167.83 L 140.96 167.01 C 141.42 166.29 141.21 165.34 140.49 164.88 C 139.77 164.42 138.82 164.63 138.36 165.35 Z M 138.21 165.77 L 137.40 166.38 C 136.72 166.89 136.59 167.86 137.10 168.53 C 137.61 169.21 138.58 169.35 139.26 168.84 L 140.06 168.23 C 140.74 167.72 140.87 166.75 140.36 166.08 C 139.85 165.40 138.88 165.26 138.21 165.77 Z M 137.64 166.24 L 136.72 166.70 C 135.97 167.08 135.66 168.00 136.05 168.76 C 136.43 169.52 137.35 169.82 138.11 169.44 L 139.02 168.98 C 139.78 168.60 140.08 167.67 139.70 166.91 C 139.32 166.16 138.39 165.85 137.64 166.24 Z M 136.87 166.63 L 135.95 166.99 C 135.15 167.29 134.75 168.17 135.06 168.97 C 135.36 169.76 136.25 170.16 137.04 169.86 L 137.97 169.50 C 138.76 169.20 139.16 168.31 138.85 167.52 C 138.55 166.73 137.67 166.33 136.87 166.63 Z M 136.02 166.96 L 135.12 167.25 C 134.31 167.51 133.87 168.38 134.13 169.18 C 134.39 169.99 135.25 170.43 136.06 170.17 L 136.96 169.88 C 137.77 169.62 138.21 168.76 137.95 167.95 C 137.69 167.14 136.83 166.70 136.02 166.96 Z M 135.21 167.23 L 134.22 167.48 C 133.40 167.69 132.91 168.53 133.12 169.35 C 133.33 170.17 134.17 170.66 134.99 170.45 L 135.97 170.20 C 136.79 169.99 137.28 169.15 137.07 168.33 C 136.86 167.51 136.03 167.02 135.21 167.23 Z M 134.33 167.46 L 133.31 167.64 C 132.48 167.79 131.93 168.59 132.08 169.42 C 132.23 170.26 133.03 170.81 133.86 170.66 L 134.88 170.48 C 135.71 170.32 136.26 169.53 136.11 168.69 C 135.96 167.86 135.16 167.31 134.33 167.46 Z M 133.38 167.63 L 132.36 167.77 C 131.52 167.88 130.93 168.65 131.05 169.49 C 131.16 170.33 131.93 170.92 132.77 170.81 L 133.79 170.67 C 134.63 170.56 135.22 169.79 135.11 168.95 C 135.00 168.10 134.22 167.52 133.38 167.63 Z M 132.40 167.76 L 131.40 167.86 C 130.56 167.96 129.95 168.72 130.04 169.56 C 130.13 170.41 130.89 171.02 131.74 170.93 L 132.74 170.82 C 133.58 170.73 134.19 169.97 134.10 169.12 C 134.01 168.27 133.25 167.66 132.40 167.76 Z M 131.45 167.85 L 130.49 167.93 C 129.63 167.99 129.00 168.74 129.06 169.59 C 129.13 170.44 129.87 171.08 130.72 171.01 L 131.69 170.94 C 132.54 170.87 133.18 170.13 133.11 169.28 C 133.05 168.43 132.31 167.79 131.45 167.85 Z M 130.56 167.91 L 129.35 167.95 C 128.49 167.97 127.81 168.69 127.84 169.55 C 127.86 170.41 128.58 171.09 129.44 171.06 L 130.65 171.03 C 131.51 171.00 132.19 170.29 132.16 169.42 C 132.14 168.56 131.42 167.89 130.56 167.91 Z M 129.33 167.93 L 128.85 167.95 C 127.98 167.99 127.30 168.72 127.34 169.60 C 127.38 170.47 128.11 171.14 128.98 171.10 L 129.47 171.08 C 130.34 171.05 131.01 170.31 130.97 169.44 C 130.94 168.57 130.20 167.89 129.33 167.93 Z M 128.81 171.13 L 129.85 171.19 C 130.73 171.25 131.49 170.58 131.55 169.69 C 131.60 168.81 130.93 168.05 130.05 167.99 L 129.02 167.93 C 128.13 167.87 127.37 168.54 127.31 169.43 C 127.26 170.31 127.93 171.07 128.81 171.13 Z M 129.75 171.21 L 130.82 171.34 C 131.71 171.45 132.52 170.82 132.63 169.93 C 132.74 169.03 132.11 168.22 131.22 168.11 L 130.15 167.98 C 129.26 167.87 128.44 168.50 128.33 169.39 C 128.22 170.28 128.86 171.10 129.75 171.21 Z M 130.66 171.32 L 131.61 171.53 C 132.49 171.73 133.36 171.18 133.56 170.30 C 133.76 169.42 133.21 168.55 132.33 168.35 L 131.38 168.13 C 130.50 167.93 129.62 168.49 129.43 169.37 C 129.23 170.25 129.78 171.12 130.66 171.32 Z M 131.52 171.51 L 132.50 171.79 C 133.37 172.04 134.27 171.53 134.52 170.66 C 134.76 169.79 134.26 168.89 133.39 168.64 L 132.42 168.37 C 131.55 168.12 130.64 168.62 130.40 169.49 C 130.15 170.36 130.65 171.27 131.52 171.51 Z M 132.46 171.78 L 133.41 172.07 C 134.27 172.34 135.19 171.85 135.46 170.99 C 135.72 170.12 135.24 169.20 134.37 168.94 L 133.43 168.65 C 132.56 168.38 131.64 168.87 131.38 169.73 C 131.11 170.60 131.60 171.52 132.46 171.78 Z M 133.38 172.07 L 134.38 172.40 C 135.24 172.68 136.17 172.20 136.45 171.34 C 136.73 170.47 136.26 169.54 135.39 169.26 L 134.40 168.94 C 133.53 168.66 132.60 169.13 132.32 170.00 C 132.04 170.86 132.52 171.79 133.38 172.07 Z M 134.35 172.39 L 135.37 172.74 C 136.23 173.04 137.17 172.57 137.47 171.71 C 137.76 170.85 137.30 169.91 136.44 169.61 L 135.42 169.26 C 134.55 168.97 133.61 169.43 133.32 170.29 C 133.02 171.16 133.49 172.10 134.35 172.39 Z M 135.34 172.73 L 136.34 173.10 C 137.20 173.41 138.15 172.96 138.46 172.10 C 138.77 171.24 138.33 170.29 137.47 169.98 L 136.47 169.62 C 135.60 169.31 134.66 169.75 134.35 170.61 C 134.04 171.48 134.48 172.42 135.34 172.73 Z M 136.32 173.09 L 137.19 173.42 C 138.05 173.74 139.01 173.31 139.33 172.45 C 139.65 171.60 139.22 170.64 138.36 170.32 L 137.49 169.99 C 136.63 169.66 135.68 170.10 135.35 170.95 C 135.03 171.81 135.46 172.77 136.32 173.09 Z M 137.17 173.41 L 138.11 173.78 C 138.96 174.12 139.93 173.70 140.26 172.84 C 140.60 171.99 140.18 171.02 139.32 170.69 L 138.39 170.32 C 137.53 169.99 136.57 170.41 136.23 171.26 C 135.90 172.11 136.32 173.08 137.17 173.41 Z M 138.07 173.77 L 138.95 174.13 C 139.80 174.49 140.77 174.09 141.12 173.24 C 141.48 172.39 141.08 171.42 140.23 171.07 L 139.36 170.70 C 138.51 170.35 137.54 170.75 137.18 171.59 C 136.83 172.44 137.23 173.41 138.07 173.77 Z M 138.91 174.12 L 139.81 174.52 C 140.65 174.89 141.63 174.51 142.00 173.68 C 142.37 172.84 142.00 171.86 141.16 171.48 L 140.27 171.08 C 139.43 170.71 138.45 171.09 138.07 171.92 C 137.70 172.76 138.08 173.74 138.91 174.12 Z M 139.79 174.50 L 140.72 174.93 C 141.55 175.31 142.53 174.94 142.91 174.11 C 143.29 173.28 142.93 172.29 142.09 171.91 L 141.17 171.49 C 140.34 171.11 139.36 171.48 138.98 172.31 C 138.60 173.14 138.96 174.12 139.79 174.50 Z M 140.72 174.92 L 141.64 175.34 C 142.47 175.71 143.44 175.35 143.82 174.52 C 144.20 173.69 143.83 172.71 143.00 172.33 L 142.09 171.92 C 141.26 171.54 140.28 171.91 139.90 172.74 C 139.53 173.57 139.89 174.54 140.72 174.92 Z M 141.65 175.33 L 142.55 175.74 C 143.38 176.11 144.35 175.74 144.72 174.91 C 145.10 174.09 144.73 173.11 143.90 172.74 L 142.99 172.34 C 142.16 171.97 141.19 172.34 140.82 173.16 C 140.45 173.99 140.82 174.96 141.65 175.33 Z M 142.56 175.74 L 143.47 176.15 C 144.29 176.52 145.26 176.15 145.63 175.32 C 146.01 174.49 145.64 173.52 144.81 173.15 L 143.90 172.75 C 143.07 172.38 142.10 172.75 141.73 173.57 C 141.36 174.40 141.73 175.37 142.56 175.74 Z M 143.44 176.14 L 144.36 176.56 C 145.18 176.95 146.15 176.59 146.54 175.77 C 146.92 174.95 146.57 173.98 145.75 173.59 L 144.83 173.17 C 144.01 172.78 143.04 173.14 142.65 173.96 C 142.27 174.78 142.62 175.75 143.44 176.14 Z M 144.34 176.56 L 145.24 176.99 C 146.05 177.38 147.04 177.04 147.43 176.22 C 147.82 175.41 147.48 174.43 146.66 174.03 L 145.76 173.60 C 144.95 173.20 143.97 173.55 143.57 174.36 C 143.18 175.18 143.52 176.16 144.34 176.56 Z M 145.26 177.00 L 146.17 177.42 C 147.00 177.81 147.97 177.45 148.35 176.63 C 148.73 175.80 148.38 174.83 147.55 174.44 L 146.64 174.02 C 145.82 173.64 144.84 174.00 144.46 174.82 C 144.08 175.64 144.44 176.62 145.26 177.00 Z M 146.19 177.43 L 147.09 177.84 C 147.92 178.21 148.89 177.84 149.26 177.01 C 149.63 176.18 149.26 175.21 148.44 174.84 L 147.53 174.44 C 146.71 174.07 145.74 174.44 145.37 175.26 C 145.00 176.09 145.37 177.06 146.19 177.43 Z M 147.09 177.83 L 148.00 178.24 C 148.83 178.61 149.79 178.25 150.17 177.42 C 150.54 176.60 150.17 175.63 149.35 175.26 L 148.44 174.85 C 147.62 174.48 146.65 174.84 146.28 175.67 C 145.90 176.49 146.27 177.46 147.09 177.83 Z M 148.01 178.24 L 148.91 178.64 C 149.73 179.00 150.69 178.63 151.06 177.81 C 151.42 176.99 151.05 176.02 150.23 175.66 L 149.34 175.26 C 148.52 174.90 147.55 175.27 147.19 176.09 C 146.82 176.91 147.19 177.88 148.01 178.24 Z M 148.91 178.63 L 149.83 179.04 C 150.65 179.40 151.61 179.03 151.97 178.21 C 152.33 177.38 151.96 176.43 151.14 176.06 L 150.22 175.66 C 149.40 175.30 148.44 175.67 148.08 176.49 C 147.72 177.31 148.09 178.27 148.91 178.63 Z M 149.81 179.02 L 150.72 179.44 C 151.53 179.82 152.49 179.46 152.87 178.65 C 153.24 177.84 152.89 176.88 152.07 176.50 L 151.16 176.08 C 150.35 175.71 149.39 176.06 149.01 176.87 C 148.64 177.69 148.99 178.65 149.81 179.02 Z M 150.65 179.41 L 151.56 179.87 C 152.35 180.28 153.32 179.97 153.73 179.18 C 154.14 178.39 153.83 177.41 153.04 177.00 L 152.14 176.54 C 151.35 176.13 150.37 176.44 149.96 177.23 C 149.55 178.02 149.86 179.00 150.65 179.41 Z M 151.44 179.80 L 152.30 180.34 C 153.05 180.81 154.04 180.59 154.52 179.84 C 154.99 179.09 154.77 178.10 154.02 177.62 L 153.16 177.08 C 152.41 176.61 151.42 176.83 150.94 177.58 C 150.47 178.33 150.69 179.32 151.44 179.80 Z M 152.20 180.26 L 153.00 180.85 C 153.70 181.38 154.70 181.23 155.23 180.53 C 155.75 179.83 155.61 178.83 154.90 178.30 L 154.11 177.71 C 153.41 177.18 152.41 177.32 151.88 178.03 C 151.36 178.73 151.50 179.73 152.20 180.26 Z M 152.98 180.82 L 153.20 181.00 C 153.89 181.54 154.88 181.42 155.42 180.73 C 155.96 180.04 155.84 179.05 155.15 178.51 L 154.93 178.33 C 154.24 177.79 153.25 177.91 152.71 178.60 C 152.17 179.29 152.29 180.28 152.98 180.82 Z"
      fill="black"
      fill-rule="nonzero" /></svg>