<svg xmlns="http://www.w3.org/2000/svg" width="300" height="300" viewBox="0 0 300 300">
<path d="M 133.48 135.85 L 132.92 136.63 C 132.44 137.29 132.59 138.21 133.25 138.68 C 133.91 139.16 134.83 139.00 135.30 138.35 L 135.87 137.56 C 136.34 136.90 136.19 135.98 135.53 135.51 C 134.87 135.04 133.95 135.19 133.48 135.85 Z M 132.87 136.67 L 132.31 137.51 C 131.86 138.19 132.05 139.12 132.74 139.57 C 133.42 140.02 134.35 139.83 134.80 139.15 L 135.35 138.31 C 135.80 137.62 135.62 136.70 134.93 136.25 C 134.24 135.79 133.32 135.98 132.87 136.67 Z M 132.25 137.59 L 131.74 138.49 C 131.33 139.21 131.58 140.13 132.30 140.54 C 133.02 140.95 133.94 140.69 134.35 139.97 L 134.86 139.07 C 135.27 138.35 135.02 137.43 134.30 137.02 C 133.58 136.61 132.66 136.86 132.25 137.59 Z M 131.70 138.56 L 131.23 139.48 C 130.86 140.23 131.16 141.13 131.90 141.50 C 132.65 141.87 133.55 141.57 133.92 140.83 L 134.39 139.90 C 134.76 139.16 134.46 138.26 133.72 137.88 C 132.97 137.51 132.07 137.81 131.70 138.56 Z M 131.22 139.52 L 130.81 140.39 C 130.45 141.14 130.77 142.04 131.53 142.39 C 132.28 142.74 133.17 142.42 133.53 141.67 L 133.94 140.80 C 134.29 140.05 133.97 139.15 133.22 138.80 C 132.47 138.44 131.57 138.76 131.22 139.52 Z M 130.81 140.39 L 130.36 141.35 C 130.00 142.10 130.32 143.00 131.08 143.35 C 131.83 143.70 132.72 143.38 133.07 142.63 L 133.52 141.67 C 133.88 140.92 133.56 140.03 132.81 139.67 C 132.06 139.32 131.16 139.64 130.81 140.39 Z M 130.36 141.34 L 129.96 142.18 C 129.60 142.93 129.92 143.83 130.67 144.18 C 131.42 144.54 132.31 144.22 132.67 143.48 L 133.07 142.64 C 133.43 141.89 133.11 140.99 132.36 140.64 C 131.61 140.28 130.72 140.60 130.36 141.34 Z M 129.96 142.18 L 129.53 143.09 C 129.17 143.84 129.49 144.73 130.24 145.09 C 130.98 145.45 131.88 145.13 132.23 144.38 L 132.67 143.48 C 133.02 142.73 132.71 141.83 131.96 141.48 C 131.21 141.12 130.32 141.44 129.96 142.18 Z M 129.53 143.09 L 129.11 143.98 C 128.75 144.73 129.07 145.62 129.81 145.98 C 130.56 146.33 131.46 146.02 131.81 145.27 L 132.23 144.38 C 132.59 143.64 132.27 142.74 131.53 142.38 C 130.78 142.03 129.88 142.34 129.53 143.09 Z M 129.11 143.97 L 128.69 144.84 C 128.33 145.58 128.64 146.48 129.39 146.84 C 130.13 147.20 131.03 146.89 131.39 146.14 L 131.81 145.28 C 132.17 144.53 131.86 143.63 131.11 143.27 C 130.37 142.91 129.47 143.22 129.11 143.97 Z M 128.70 144.81 L 128.24 145.73 C 127.86 146.47 128.16 147.37 128.90 147.75 C 129.64 148.12 130.54 147.83 130.91 147.09 L 131.38 146.17 C 131.75 145.43 131.46 144.52 130.72 144.15 C 129.98 143.78 129.07 144.07 128.70 144.81 Z M 128.24 145.71 L 127.77 146.63 C 127.39 147.36 127.67 148.27 128.41 148.65 C 129.14 149.03 130.05 148.75 130.43 148.01 L 130.91 147.10 C 131.29 146.37 131.00 145.46 130.27 145.08 C 129.53 144.69 128.63 144.98 128.24 145.71 Z M 127.77 146.62 L 127.26 147.60 C 126.88 148.33 127.16 149.24 127.89 149.62 C 128.63 150.01 129.54 149.72 129.92 148.99 L 130.43 148.02 C 130.82 147.28 130.53 146.37 129.80 145.99 C 129.06 145.60 128.15 145.89 127.77 146.62 Z M 127.13 147.93 L 126.92 148.77 C 126.72 149.57 127.21 150.39 128.02 150.59 C 128.82 150.79 129.64 150.30 129.84 149.50 L 130.05 148.66 C 130.25 147.85 129.76 147.04 128.96 146.84 C 128.15 146.63 127.34 147.12 127.13 147.93 Z M 128.42 150.63 L 129.14 150.61 C 129.97 150.59 130.62 149.90 130.60 149.07 C 130.57 148.25 129.89 147.59 129.06 147.62 L 128.34 147.64 C 127.51 147.66 126.86 148.35 126.89 149.17 C 126.91 150.00 127.60 150.65 128.42 150.63 Z M 129.67 150.49 L 130.75 150.04 C 131.51 149.73 131.87 148.86 131.56 148.10 C 131.24 147.34 130.37 146.98 129.61 147.29 L 128.53 147.74 C 127.77 148.05 127.41 148.92 127.73 149.68 C 128.04 150.44 128.91 150.80 129.67 150.49 Z M 130.92 149.95 L 131.71 149.49 C 132.42 149.09 132.66 148.18 132.25 147.47 C 131.85 146.76 130.94 146.52 130.23 146.93 L 129.44 147.38 C 128.74 147.79 128.49 148.69 128.90 149.40 C 129.31 150.11 130.21 150.36 130.92 149.95 Z M 131.78 149.44 L 132.65 148.87 C 133.33 148.42 133.51 147.51 133.06 146.83 C 132.61 146.15 131.70 145.96 131.02 146.41 L 130.16 146.98 C 129.48 147.43 129.29 148.35 129.74 149.03 C 130.19 149.71 131.10 149.89 131.78 149.44 Z M 132.67 148.85 L 133.55 148.24 C 134.22 147.78 134.39 146.86 133.92 146.19 C 133.46 145.52 132.54 145.36 131.87 145.82 L 130.99 146.43 C 130.32 146.89 130.16 147.81 130.62 148.48 C 131.08 149.15 132.00 149.32 132.67 148.85 Z M 133.55 148.24 L 134.40 147.66 C 135.07 147.19 135.24 146.27 134.77 145.60 C 134.31 144.93 133.39 144.77 132.72 145.23 L 131.87 145.82 C 131.20 146.29 131.03 147.21 131.50 147.88 C 131.96 148.55 132.89 148.71 133.55 148.24 Z M 134.40 147.66 L 135.25 147.08 C 135.92 146.61 136.09 145.69 135.63 145.02 C 135.16 144.34 134.24 144.17 133.57 144.64 L 132.72 145.22 C 132.05 145.69 131.88 146.61 132.34 147.28 C 132.80 147.96 133.73 148.13 134.40 147.66 Z M 135.24 147.09 L 136.04 146.55 C 136.72 146.10 136.90 145.17 136.44 144.49 C 135.98 143.81 135.06 143.63 134.38 144.09 L 133.58 144.63 C 132.90 145.08 132.72 146.01 133.17 146.69 C 133.63 147.37 134.55 147.55 135.24 147.09 Z M 136.00 146.58 L 136.91 146.01 C 137.60 145.57 137.81 144.65 137.37 143.95 C 136.93 143.26 136.01 143.05 135.32 143.49 L 134.41 144.06 C 133.72 144.50 133.51 145.42 133.95 146.12 C 134.39 146.81 135.31 147.02 136.00 146.58 Z M 136.86 146.03 L 137.67 145.56 C 138.38 145.15 138.62 144.24 138.20 143.53 C 137.79 142.82 136.88 142.58 136.17 142.99 L 135.36 143.46 C 134.65 143.88 134.41 144.79 134.83 145.50 C 135.24 146.21 136.15 146.45 136.86 146.03 Z M 137.63 145.59 L 138.63 145.05 C 139.35 144.66 139.62 143.75 139.22 143.03 C 138.83 142.30 137.93 142.04 137.20 142.43 L 136.21 142.97 C 135.48 143.36 135.22 144.27 135.61 144.99 C 136.00 145.71 136.91 145.98 137.63 145.59 Z M 138.43 145.15 L 139.34 144.81 C 140.12 144.53 140.52 143.67 140.23 142.89 C 139.94 142.11 139.08 141.71 138.30 142.00 L 137.40 142.33 C 136.62 142.62 136.22 143.48 136.50 144.26 C 136.79 145.04 137.65 145.43 138.43 145.15 Z M 137.48 144.11 L 137.70 144.53 C 138.09 145.27 139.00 145.55 139.74 145.17 C 140.48 144.78 140.77 143.87 140.38 143.13 L 140.16 142.71 C 139.77 141.97 138.86 141.68 138.12 142.07 C 137.38 142.45 137.10 143.37 137.48 144.11 Z M 137.63 143.29 L 137.21 144.38 C 136.92 145.16 137.31 146.03 138.09 146.33 C 138.87 146.63 139.74 146.24 140.04 145.46 L 140.46 144.37 C 140.75 143.59 140.36 142.71 139.58 142.42 C 138.80 142.12 137.93 142.51 137.63 143.29 Z M 137.25 144.27 L 136.82 145.20 C 136.47 145.96 136.79 146.86 137.55 147.21 C 138.31 147.57 139.21 147.24 139.56 146.49 L 140.00 145.56 C 140.35 144.80 140.03 143.90 139.27 143.55 C 138.51 143.19 137.61 143.52 137.25 144.27 Z M 136.82 145.19 L 136.39 146.09 C 136.03 146.85 136.36 147.75 137.11 148.11 C 137.87 148.47 138.78 148.15 139.14 147.39 L 139.56 146.49 C 139.92 145.74 139.60 144.83 138.84 144.47 C 138.09 144.11 137.18 144.43 136.82 145.19 Z M 136.39 146.10 L 135.95 147.04 C 135.59 147.81 135.92 148.71 136.68 149.07 C 137.44 149.42 138.35 149.09 138.70 148.33 L 139.15 147.39 C 139.50 146.62 139.17 145.72 138.41 145.36 C 137.65 145.01 136.74 145.34 136.39 146.10 Z M 135.94 147.06 L 135.51 148.01 C 135.16 148.78 135.50 149.68 136.27 150.03 C 137.03 150.37 137.94 150.03 138.28 149.27 L 138.71 148.32 C 139.06 147.55 138.72 146.65 137.95 146.30 C 137.19 145.95 136.28 146.29 135.94 147.06 Z M 135.50 148.02 L 135.10 148.94 C 134.76 149.71 135.10 150.61 135.87 150.95 C 136.64 151.29 137.54 150.94 137.88 150.17 L 138.29 149.26 C 138.63 148.49 138.28 147.59 137.51 147.25 C 136.74 146.91 135.84 147.25 135.50 148.02 Z M 135.09 148.94 L 134.68 149.88 C 134.34 150.65 134.69 151.55 135.46 151.89 C 136.23 152.23 137.13 151.88 137.47 151.11 L 137.88 150.17 C 138.22 149.40 137.87 148.50 137.10 148.16 C 136.33 147.82 135.43 148.17 135.09 148.94 Z M 134.68 149.89 L 134.29 150.79 C 133.95 151.56 134.31 152.46 135.08 152.79 C 135.85 153.13 136.75 152.77 137.08 152.00 L 137.47 151.10 C 137.81 150.33 137.45 149.43 136.68 149.10 C 135.91 148.76 135.01 149.12 134.68 149.89 Z M 134.28 150.80 L 133.91 151.68 C 133.59 152.46 133.95 153.35 134.73 153.67 C 135.50 154.00 136.40 153.63 136.72 152.86 L 137.09 151.98 C 137.42 151.21 137.05 150.31 136.28 149.99 C 135.50 149.66 134.61 150.03 134.28 150.80 Z M 133.91 151.69 L 133.53 152.61 C 133.21 153.39 133.59 154.28 134.36 154.60 C 135.14 154.92 136.03 154.54 136.35 153.77 L 136.73 152.85 C 137.05 152.07 136.67 151.18 135.90 150.86 C 135.12 150.54 134.23 150.91 133.91 151.69 Z M 133.54 152.60 L 133.22 153.37 C 132.89 154.14 133.26 155.03 134.04 155.36 C 134.81 155.68 135.70 155.32 136.03 154.54 L 136.35 153.77 C 136.67 153.00 136.30 152.11 135.53 151.78 C 134.75 151.46 133.86 151.83 133.54 152.60 Z M 133.22 153.36 L 132.77 154.44 C 132.44 155.22 132.81 156.11 133.58 156.43 C 134.36 156.76 135.25 156.40 135.57 155.62 L 136.03 154.54 C 136.35 153.77 135.99 152.88 135.21 152.55 C 134.44 152.22 133.54 152.59 133.22 153.36 Z M 132.77 154.44 L 132.40 155.31 C 132.08 156.09 132.44 156.98 133.22 157.30 C 133.99 157.63 134.89 157.26 135.21 156.49 L 135.57 155.62 C 135.90 154.84 135.53 153.95 134.76 153.63 C 133.98 153.30 133.09 153.67 132.77 154.44 Z M 132.40 155.31 L 132.00 156.27 C 131.67 157.05 132.03 157.94 132.81 158.27 C 133.58 158.59 134.48 158.23 134.80 157.46 L 135.21 156.49 C 135.54 155.71 135.17 154.82 134.40 154.49 C 133.62 154.17 132.73 154.53 132.40 155.31 Z M 132.00 156.27 L 131.59 157.22 C 131.26 157.99 131.62 158.89 132.40 159.22 C 133.17 159.55 134.06 159.19 134.39 158.41 L 134.80 157.46 C 135.13 156.69 134.77 155.79 134.00 155.46 C 133.22 155.13 132.33 155.49 132.00 156.27 Z M 131.60 157.20 L 131.15 158.21 C 130.81 158.98 131.16 159.88 131.93 160.22 C 132.70 160.56 133.60 160.21 133.94 159.44 L 134.39 158.43 C 134.73 157.66 134.38 156.76 133.61 156.42 C 132.84 156.08 131.94 156.43 131.60 157.20 Z M 131.17 158.17 L 130.74 159.07 C 130.38 159.83 130.70 160.74 131.46 161.10 C 132.23 161.46 133.14 161.14 133.50 160.38 L 133.92 159.48 C 134.29 158.72 133.96 157.81 133.20 157.45 C 132.44 157.09 131.53 157.41 131.17 158.17 Z M 130.77 159.00 L 130.31 159.87 C 129.91 160.61 130.19 161.54 130.93 161.93 C 131.68 162.33 132.60 162.05 133.00 161.31 L 133.47 160.45 C 133.86 159.70 133.59 158.78 132.84 158.38 C 132.10 157.98 131.17 158.26 130.77 159.00 Z M 130.35 159.79 L 129.85 160.61 C 129.42 161.33 129.64 162.27 130.36 162.71 C 131.08 163.15 132.02 162.92 132.46 162.20 L 132.96 161.38 C 133.40 160.66 133.17 159.72 132.45 159.29 C 131.73 158.85 130.79 159.07 130.35 159.79 Z M 132.43 162.22 L 132.82 161.60 C 133.27 160.90 133.06 159.97 132.36 159.52 C 131.65 159.07 130.72 159.28 130.27 159.98 L 129.88 160.59 C 129.44 161.30 129.64 162.23 130.35 162.68 C 131.05 163.13 131.99 162.92 132.43 162.22 Z M 132.66 161.78 L 133.43 160.90 C 133.98 160.29 133.92 159.35 133.30 158.80 C 132.68 158.26 131.74 158.32 131.20 158.94 L 130.43 159.81 C 129.89 160.43 129.95 161.37 130.56 161.91 C 131.18 162.45 132.12 162.39 132.66 161.78 Z M 133.30 161.02 L 134.06 160.34 C 134.67 159.79 134.72 158.86 134.17 158.25 C 133.63 157.64 132.69 157.59 132.08 158.14 L 131.32 158.82 C 130.72 159.37 130.67 160.30 131.21 160.91 C 131.76 161.52 132.70 161.57 133.30 161.02 Z M 133.99 160.39 L 134.79 159.75 C 135.43 159.25 135.53 158.32 135.02 157.68 C 134.51 157.05 133.58 156.94 132.95 157.45 L 132.15 158.09 C 131.52 158.60 131.41 159.52 131.92 160.16 C 132.43 160.80 133.36 160.90 133.99 160.39 Z M 134.71 159.80 L 135.52 159.24 C 136.18 158.77 136.34 157.86 135.88 157.19 C 135.41 156.53 134.50 156.37 133.83 156.83 L 133.03 157.40 C 132.36 157.87 132.20 158.78 132.67 159.45 C 133.13 160.11 134.05 160.27 134.71 159.80 Z M 135.40 159.31 L 136.27 158.81 C 136.97 158.41 137.21 157.52 136.81 156.82 C 136.41 156.11 135.51 155.87 134.81 156.27 L 133.95 156.77 C 133.25 157.17 133.00 158.06 133.40 158.76 C 133.81 159.47 134.70 159.71 135.40 159.31 Z M 136.12 158.88 L 137.05 158.48 C 137.79 158.16 138.13 157.29 137.80 156.55 C 137.48 155.81 136.62 155.48 135.88 155.80 L 134.96 156.20 C 134.22 156.52 133.88 157.39 134.20 158.13 C 134.52 158.87 135.38 159.20 136.12 158.88 Z M 136.80 158.57 L 137.83 158.32 C 138.62 158.14 139.11 157.35 138.92 156.56 C 138.74 155.77 137.95 155.28 137.16 155.47 L 136.13 155.71 C 135.34 155.90 134.85 156.69 135.04 157.47 C 135.22 158.26 136.01 158.75 136.80 158.57 Z M 137.10 158.32 L 137.92 158.55 C 138.71 158.77 139.52 158.31 139.74 157.53 C 139.96 156.74 139.50 155.93 138.72 155.71 L 137.89 155.47 C 137.11 155.25 136.29 155.71 136.07 156.50 C 135.85 157.28 136.31 158.10 137.10 158.32 Z M 136.96 157.73 L 137.34 158.58 C 137.67 159.33 138.55 159.67 139.30 159.33 C 140.05 159.00 140.39 158.12 140.06 157.37 L 139.68 156.52 C 139.35 155.77 138.47 155.43 137.72 155.77 C 136.96 156.10 136.63 156.98 136.96 157.73 Z M 137.21 158.15 L 137.33 159.21 C 137.42 160.03 138.17 160.62 138.99 160.52 C 139.82 160.43 140.41 159.68 140.31 158.86 L 140.19 157.80 C 140.09 156.98 139.35 156.39 138.52 156.48 C 137.70 156.58 137.11 157.32 137.21 158.15 Z M 137.31 159.06 L 137.33 160.08 C 137.34 160.92 138.03 161.58 138.86 161.57 C 139.70 161.55 140.36 160.86 140.35 160.03 L 140.33 159.01 C 140.32 158.17 139.63 157.51 138.79 157.52 C 137.96 157.54 137.30 158.22 137.31 159.06 Z M 137.33 159.93 L 137.24 160.95 C 137.17 161.78 137.79 162.52 138.62 162.59 C 139.46 162.66 140.19 162.04 140.26 161.20 L 140.35 160.18 C 140.42 159.35 139.80 158.61 138.97 158.54 C 138.13 158.47 137.40 159.09 137.33 159.93 Z M 137.27 160.74 L 137.05 161.70 C 136.86 162.52 137.37 163.34 138.19 163.52 C 139.01 163.71 139.82 163.20 140.01 162.38 L 140.23 161.42 C 140.42 160.60 139.91 159.78 139.09 159.59 C 138.27 159.41 137.46 159.92 137.27 160.74 Z M 137.10 161.52 L 136.78 162.40 C 136.49 163.19 136.89 164.06 137.68 164.35 C 138.47 164.64 139.35 164.24 139.64 163.45 L 139.96 162.57 C 140.25 161.78 139.84 160.90 139.05 160.61 C 138.26 160.32 137.39 160.73 137.10 161.52 Z M 136.82 162.27 L 136.41 163.15 C 136.05 163.92 136.38 164.83 137.14 165.19 C 137.90 165.55 138.81 165.22 139.17 164.46 L 139.59 163.57 C 139.95 162.81 139.62 161.90 138.86 161.54 C 138.09 161.18 137.18 161.51 136.82 162.27 Z M 136.45 163.06 L 135.94 163.98 C 135.53 164.72 135.79 165.66 136.53 166.07 C 137.27 166.48 138.21 166.21 138.62 165.47 L 139.13 164.55 C 139.54 163.81 139.28 162.88 138.54 162.46 C 137.80 162.05 136.86 162.32 136.45 163.06 Z M 135.96 163.92 L 135.43 164.79 C 134.99 165.52 135.22 166.47 135.94 166.91 C 136.67 167.36 137.62 167.13 138.06 166.40 L 138.59 165.53 C 139.04 164.80 138.81 163.85 138.08 163.41 C 137.35 162.97 136.41 163.20 135.96 163.92 Z M 135.45 164.76 L 134.90 165.60 C 134.43 166.32 134.64 167.28 135.36 167.74 C 136.08 168.21 137.04 168.00 137.50 167.28 L 138.05 166.44 C 138.51 165.72 138.31 164.76 137.59 164.30 C 136.87 163.83 135.91 164.04 135.45 164.76 Z M 134.92 165.56 L 134.34 166.41 C 133.85 167.11 134.03 168.08 134.74 168.57 C 135.44 169.06 136.41 168.88 136.90 168.17 L 137.48 167.32 C 137.97 166.62 137.79 165.65 137.08 165.16 C 136.37 164.67 135.41 164.85 134.92 165.56 Z M 134.38 166.34 L 133.80 167.11 C 133.27 167.79 133.40 168.76 134.08 169.29 C 134.76 169.81 135.74 169.68 136.26 169.00 L 136.85 168.24 C 137.38 167.55 137.25 166.58 136.57 166.05 C 135.89 165.53 134.91 165.66 134.38 166.34 Z M 133.86 167.02 L 133.20 167.77 C 132.64 168.41 132.70 169.40 133.34 169.97 C 133.99 170.54 134.97 170.47 135.54 169.83 L 136.20 169.09 C 136.77 168.44 136.71 167.46 136.06 166.89 C 135.42 166.32 134.43 166.38 133.86 167.02 Z M 133.27 167.69 L 132.55 168.41 C 131.94 169.02 131.93 170.01 132.54 170.62 C 133.15 171.23 134.14 171.23 134.75 170.62 L 135.48 169.90 C 136.09 169.30 136.09 168.31 135.48 167.69 C 134.87 167.08 133.88 167.08 133.27 167.69 Z M 132.64 168.32 L 131.86 168.98 C 131.20 169.54 131.12 170.53 131.68 171.19 C 132.24 171.85 133.22 171.93 133.88 171.37 L 134.66 170.71 C 135.32 170.15 135.40 169.17 134.85 168.51 C 134.29 167.85 133.30 167.76 132.64 168.32 Z M 132.04 168.85 L 131.20 169.38 C 130.47 169.84 130.25 170.80 130.71 171.53 C 131.17 172.26 132.13 172.48 132.86 172.03 L 133.70 171.50 C 134.43 171.04 134.65 170.08 134.20 169.35 C 133.74 168.62 132.77 168.40 132.04 168.85 Z M 131.54 169.23 L 130.59 169.55 C 129.77 169.82 129.33 170.70 129.61 171.51 C 129.88 172.32 130.75 172.76 131.57 172.49 L 132.52 172.17 C 133.34 171.90 133.78 171.02 133.51 170.21 C 133.23 169.40 132.36 168.96 131.54 169.23 Z M 131.56 169.56 L 130.73 169.29 C 129.92 169.02 129.05 169.46 128.78 170.26 C 128.52 171.07 128.95 171.93 129.76 172.20 L 130.59 172.48 C 131.40 172.75 132.27 172.31 132.53 171.50 C 132.80 170.70 132.37 169.83 131.56 169.56 Z M 131.64 170.18 L 131.31 169.37 C 131.00 168.60 130.12 168.23 129.35 168.54 C 128.58 168.85 128.21 169.72 128.52 170.49 L 128.85 171.31 C 129.16 172.08 130.03 172.45 130.80 172.14 C 131.58 171.83 131.95 170.95 131.64 170.18 Z M 131.36 169.70 L 131.18 168.59 C 131.05 167.79 130.30 167.25 129.50 167.38 C 128.70 167.51 128.16 168.26 128.29 169.06 L 128.47 170.17 C 128.60 170.96 129.35 171.51 130.15 171.38 C 130.95 171.25 131.49 170.50 131.36 169.70 Z"
      fill="black"
      fill-rule="nonzero" /><path d="M 145.79 135.13 L 146.76 135.36 C 147.57 135.55 148.39 135.05 148.58 134.24 C 148.77 133.43 148.27 132.62 147.46 132.42 L 146.48 132.19 C 145.67 132.00 144.86 132.50 144.67 133.31 C 144.47 134.12 144.98 134.94 145.79 135.13 Z M 146.87 135.39 L 147.85 135.54 C 148.67 135.67 149.45 135.11 149.58 134.29 C 149.71 133.46 149.15 132.69 148.33 132.56 L 147.35 132.40 C 146.53 132.27 145.75 132.83 145.62 133.65 C 145.49 134.48 146.05 135.25 146.87 135.39 Z M 148.00 135.52 L 148.99 135.59 C 149.81 135.64 150.51 135.02 150.56 134.20 C 150.61 133.39 149.99 132.68 149.18 132.63 L 148.18 132.57 C 147.36 132.52 146.66 133.14 146.61 133.96 C 146.56 134.77 147.18 135.47 148.00 135.52 Z M 149.06 135.55 L 150.05 135.57 C 150.85 135.58 151.51 134.95 151.52 134.15 C 151.53 133.35 150.90 132.70 150.10 132.69 L 149.11 132.67 C 148.31 132.66 147.66 133.29 147.64 134.09 C 147.63 134.88 148.26 135.54 149.06 135.55 Z M 150.07 135.56 L 151.09 135.56 C 151.87 135.56 152.52 134.92 152.52 134.13 C 152.52 133.34 151.88 132.70 151.09 132.70 L 150.08 132.70 C 149.29 132.70 148.65 133.33 148.65 134.12 C 148.65 134.91 149.29 135.55 150.07 135.56 Z"
      fill="black"
      fill-rule="nonzero" /><path d="M 143.86 143.51 L 144.75 143.53 C 145.60 143.55 146.30 142.87 146.32 142.03 C 146.33 141.18 145.66 140.48 144.81 140.46 L 143.92 140.45 C 143.08 140.43 142.38 141.10 142.36 141.95 C 142.34 142.80 143.02 143.50 143.86 143.51 Z M 144.85 143.52 L 145.84 143.48 C 146.69 143.44 147.34 142.73 147.30 141.89 C 147.27 141.04 146.55 140.39 145.71 140.43 L 144.72 140.47 C 143.87 140.51 143.22 141.22 143.26 142.06 C 143.29 142.90 144.01 143.56 144.85 143.52 Z M 145.97 143.46 L 147.06 143.32 C 147.89 143.21 148.48 142.45 148.37 141.62 C 148.26 140.78 147.50 140.19 146.67 140.30 L 145.58 140.44 C 144.75 140.55 144.16 141.32 144.27 142.15 C 144.38 142.98 145.14 143.57 145.97 143.46 Z M 147.15 143.30 L 148.15 143.11 C 148.97 142.96 149.51 142.16 149.35 141.34 C 149.20 140.51 148.40 139.97 147.58 140.13 L 146.58 140.32 C 145.76 140.48 145.22 141.27 145.37 142.10 C 145.53 142.92 146.32 143.46 147.15 143.30 Z M 148.18 143.10 L 149.21 142.88 C 150.03 142.70 150.55 141.90 150.37 141.08 C 150.19 140.26 149.39 139.74 148.57 139.92 L 147.54 140.14 C 146.72 140.32 146.20 141.12 146.38 141.94 C 146.56 142.76 147.36 143.28 148.18 143.10 Z M 149.22 142.88 L 150.18 142.66 C 151.00 142.48 151.51 141.67 151.33 140.86 C 151.15 140.04 150.34 139.52 149.52 139.71 L 148.56 139.92 C 147.74 140.10 147.23 140.91 147.41 141.73 C 147.59 142.54 148.40 143.06 149.22 142.88 Z M 150.15 142.67 L 151.26 142.44 C 152.08 142.28 152.61 141.48 152.44 140.66 C 152.28 139.84 151.48 139.31 150.66 139.48 L 149.55 139.70 C 148.73 139.87 148.20 140.67 148.37 141.49 C 148.54 142.30 149.33 142.83 150.15 142.67 Z M 151.19 142.45 L 152.13 142.30 C 152.95 142.18 153.51 141.41 153.39 140.59 C 153.26 139.77 152.49 139.20 151.67 139.33 L 150.73 139.47 C 149.91 139.60 149.35 140.37 149.47 141.19 C 149.60 142.01 150.37 142.57 151.19 142.45 Z M 152.04 142.31 L 152.94 142.22 C 153.76 142.14 154.36 141.41 154.29 140.59 C 154.21 139.77 153.48 139.16 152.66 139.24 L 151.76 139.33 C 150.94 139.40 150.33 140.13 150.41 140.96 C 150.49 141.78 151.22 142.38 152.04 142.31 Z M 152.82 142.22 L 153.81 142.20 C 154.64 142.19 155.29 141.51 155.28 140.68 C 155.26 139.86 154.58 139.21 153.76 139.22 L 152.77 139.24 C 151.95 139.26 151.29 139.94 151.31 140.76 C 151.32 141.58 152.00 142.24 152.82 142.22 Z M 153.56 142.19 L 154.57 142.34 C 155.39 142.47 156.15 141.91 156.27 141.09 C 156.40 140.27 155.84 139.51 155.02 139.39 L 154.01 139.24 C 153.19 139.11 152.43 139.67 152.31 140.49 C 152.18 141.30 152.74 142.07 153.56 142.19 Z M 153.78 141.98 L 154.43 142.57 C 155.05 143.13 156.00 143.09 156.56 142.47 C 157.12 141.86 157.07 140.91 156.46 140.35 L 155.81 139.76 C 155.20 139.20 154.25 139.24 153.69 139.85 C 153.13 140.47 153.17 141.42 153.78 141.98 Z M 153.96 141.75 L 154.16 142.74 C 154.32 143.56 155.11 144.09 155.92 143.94 C 156.74 143.78 157.28 142.99 157.12 142.17 L 156.93 141.17 C 156.77 140.35 155.98 139.82 155.16 139.98 C 154.34 140.14 153.81 140.93 153.96 141.75 Z M 154.13 142.48 L 154.14 143.35 C 154.16 144.19 154.84 144.85 155.68 144.84 C 156.51 144.83 157.17 144.14 157.16 143.31 L 157.15 142.43 C 157.13 141.60 156.45 140.93 155.61 140.94 C 154.78 140.96 154.12 141.64 154.13 142.48 Z M 154.15 143.17 L 154.05 144.14 C 153.96 144.97 154.56 145.72 155.39 145.81 C 156.21 145.90 156.96 145.30 157.05 144.47 L 157.15 143.49 C 157.24 142.66 156.64 141.92 155.81 141.83 C 154.99 141.74 154.24 142.34 154.15 143.17 Z M 154.07 143.99 L 153.84 145.08 C 153.66 145.89 154.18 146.70 155.00 146.87 C 155.81 147.04 156.61 146.53 156.79 145.71 L 157.02 144.62 C 157.20 143.81 156.68 143.00 155.86 142.83 C 155.05 142.66 154.25 143.17 154.07 143.99 Z M 153.86 145.01 L 153.61 145.94 C 153.39 146.75 153.87 147.57 154.67 147.79 C 155.48 148.00 156.31 147.53 156.52 146.72 L 156.77 145.78 C 156.99 144.98 156.51 144.15 155.70 143.94 C 154.90 143.72 154.07 144.20 153.86 145.01 Z M 153.62 145.91 L 153.32 146.91 C 153.09 147.71 153.54 148.55 154.34 148.78 C 155.14 149.02 155.98 148.56 156.22 147.76 L 156.51 146.76 C 156.75 145.96 156.29 145.12 155.49 144.88 C 154.69 144.65 153.85 145.11 153.62 145.91 Z M 153.33 146.89 L 153.02 147.88 C 152.77 148.68 153.21 149.53 154.00 149.78 C 154.80 150.02 155.65 149.58 155.90 148.79 L 156.21 147.79 C 156.46 146.99 156.01 146.15 155.22 145.90 C 154.42 145.65 153.58 146.09 153.33 146.89 Z M 153.02 147.86 L 152.68 148.89 C 152.42 149.68 152.85 150.53 153.64 150.79 C 154.43 151.05 155.29 150.62 155.55 149.83 L 155.89 148.81 C 156.15 148.02 155.72 147.17 154.93 146.90 C 154.14 146.64 153.29 147.07 153.02 147.86 Z M 152.70 148.85 L 152.33 149.89 C 152.05 150.67 152.46 151.53 153.24 151.81 C 154.02 152.09 154.88 151.69 155.16 150.91 L 155.53 149.87 C 155.81 149.09 155.40 148.23 154.62 147.95 C 153.84 147.67 152.98 148.07 152.70 148.85 Z M 152.36 149.84 L 152.01 150.69 C 151.70 151.46 152.07 152.33 152.84 152.64 C 153.60 152.95 154.47 152.58 154.78 151.82 L 155.13 150.96 C 155.44 150.19 155.07 149.32 154.30 149.01 C 153.54 148.70 152.67 149.07 152.36 149.84 Z M 152.05 150.62 L 151.66 151.44 C 151.31 152.19 151.62 153.07 152.36 153.43 C 153.10 153.78 153.99 153.47 154.34 152.72 L 154.74 151.90 C 155.09 151.15 154.78 150.27 154.04 149.91 C 153.30 149.56 152.41 149.87 152.05 150.62 Z M 151.72 151.35 L 151.22 152.23 C 150.82 152.93 151.06 153.84 151.77 154.24 C 152.48 154.64 153.38 154.40 153.79 153.69 L 154.28 152.82 C 154.69 152.11 154.44 151.21 153.73 150.80 C 153.02 150.40 152.12 150.64 151.72 151.35 Z M 151.26 152.18 L 150.90 152.76 C 150.47 153.45 150.68 154.35 151.36 154.78 C 152.05 155.21 152.95 155.00 153.38 154.32 L 153.75 153.74 C 154.18 153.05 153.97 152.15 153.28 151.72 C 152.60 151.29 151.69 151.49 151.26 152.18 Z"
      fill="black"
      fill-rule="nonzero" /><path d="M 146.12 152.00 L 146.95 151.70 C 147.74 151.42 148.15 150.55 147.87 149.76 C 147.59 148.97 146.72 148.56 145.93 148.84 L 145.10 149.14 C 144.31 149.42 143.90 150.29 144.18 151.08 C 144.46 151.87 145.33 152.28 146.12 152.00 Z M 146.94 151.73 L 147.97 151.37 C 148.78 151.10 149.21 150.22 148.93 149.42 C 148.66 148.61 147.78 148.19 146.98 148.46 L 145.94 148.82 C 145.14 149.09 144.71 149.97 144.98 150.77 C 145.26 151.57 146.13 152.00 146.94 151.73 Z M 147.96 151.38 L 148.89 151.07 C 149.70 150.81 150.14 149.94 149.87 149.13 C 149.61 148.32 148.74 147.88 147.93 148.15 L 147.00 148.45 C 146.19 148.72 145.75 149.59 146.01 150.40 C 146.28 151.20 147.15 151.64 147.96 151.38 Z M 148.87 151.06 L 149.87 150.74 C 150.66 150.49 151.11 149.63 150.85 148.83 C 150.60 148.04 149.75 147.59 148.95 147.85 L 147.95 148.16 C 147.15 148.42 146.71 149.27 146.97 150.07 C 147.22 150.87 148.07 151.31 148.87 151.06 Z M 149.84 150.72 L 150.80 150.43 C 151.59 150.19 152.04 149.36 151.80 148.57 C 151.56 147.77 150.72 147.33 149.93 147.57 L 148.97 147.86 C 148.18 148.10 147.73 148.94 147.97 149.73 C 148.22 150.52 149.05 150.97 149.84 150.72 Z M 150.77 150.42 L 151.82 150.12 C 152.61 149.90 153.06 149.09 152.84 148.30 C 152.62 147.52 151.81 147.06 151.02 147.29 L 149.97 147.58 C 149.18 147.80 148.73 148.62 148.95 149.40 C 149.17 150.18 149.98 150.64 150.77 150.42 Z M 151.78 150.11 L 152.69 149.87 C 153.47 149.68 153.94 148.89 153.74 148.11 C 153.54 147.34 152.75 146.87 151.97 147.07 L 151.06 147.30 C 150.29 147.50 149.82 148.29 150.02 149.06 C 150.22 149.84 151.01 150.31 151.78 150.11 Z M 152.67 149.86 L 153.01 149.78 C 153.78 149.59 154.25 148.82 154.06 148.05 C 153.87 147.28 153.09 146.81 152.32 147.00 L 151.99 147.08 C 151.22 147.27 150.75 148.04 150.94 148.81 C 151.13 149.58 151.91 150.05 152.67 149.86 Z"
      fill="black"
      fill-rule="nonzero" /><path d="M 144.15 161.04 L 145.10 160.79 C 145.90 160.58 146.37 159.77 146.16 158.98 C 145.95 158.18 145.14 157.71 144.35 157.92 L 143.39 158.17 C 142.60 158.38 142.12 159.19 142.33 159.98 C 142.54 160.78 143.35 161.25 144.15 161.04 Z M 145.26 160.77 L 146.20 160.42 C 146.98 160.13 147.38 159.26 147.09 158.47 C 146.79 157.69 145.92 157.29 145.13 157.58 L 144.19 157.94 C 143.41 158.23 143.01 159.10 143.30 159.89 C 143.60 160.67 144.47 161.07 145.26 160.77 Z M 146.40 160.34 L 147.24 159.87 C 147.98 159.46 148.25 158.54 147.84 157.80 C 147.43 157.07 146.51 156.80 145.77 157.21 L 144.93 157.67 C 144.19 158.08 143.93 159.00 144.33 159.74 C 144.74 160.47 145.66 160.74 146.40 160.34 Z M 147.35 159.79 L 148.21 159.20 C 148.90 158.74 149.08 157.80 148.61 157.11 C 148.15 156.42 147.21 156.24 146.52 156.71 L 145.66 157.29 C 144.97 157.76 144.79 158.70 145.26 159.38 C 145.73 160.07 146.67 160.25 147.35 159.79 Z M 148.25 159.16 L 149.05 158.57 C 149.71 158.08 149.85 157.14 149.36 156.48 C 148.87 155.82 147.93 155.68 147.27 156.17 L 146.48 156.76 C 145.81 157.25 145.67 158.18 146.17 158.85 C 146.66 159.51 147.59 159.65 148.25 159.16 Z M 149.07 158.54 L 149.87 157.91 C 150.51 157.41 150.62 156.48 150.12 155.83 C 149.61 155.19 148.68 155.08 148.04 155.58 L 147.24 156.20 C 146.60 156.71 146.49 157.64 146.99 158.28 C 147.50 158.93 148.43 159.04 149.07 158.54 Z M 149.89 157.87 L 150.68 157.22 C 151.31 156.70 151.39 155.77 150.87 155.15 C 150.36 154.53 149.43 154.44 148.81 154.96 L 148.01 155.62 C 147.39 156.14 147.31 157.06 147.82 157.68 C 148.34 158.31 149.27 158.39 149.89 157.87 Z M 150.71 157.17 L 151.47 156.50 C 152.07 155.97 152.12 155.05 151.59 154.45 C 151.06 153.85 150.14 153.79 149.54 154.33 L 148.78 155.00 C 148.18 155.53 148.13 156.45 148.66 157.05 C 149.19 157.65 150.11 157.71 150.71 157.17 Z M 151.50 156.45 L 152.20 155.77 C 152.77 155.22 152.79 154.31 152.24 153.74 C 151.69 153.17 150.78 153.15 150.21 153.70 L 149.51 154.38 C 148.94 154.93 148.92 155.84 149.47 156.41 C 150.02 156.98 150.93 157.00 151.50 156.45 Z M 152.25 155.71 L 152.95 154.96 C 153.48 154.39 153.45 153.48 152.87 152.94 C 152.30 152.41 151.39 152.44 150.85 153.02 L 150.16 153.77 C 149.62 154.34 149.65 155.25 150.23 155.78 C 150.81 156.32 151.71 156.29 152.25 155.71 Z M 152.98 154.92 L 153.54 154.28 C 154.06 153.68 153.99 152.78 153.40 152.26 C 152.80 151.75 151.90 151.81 151.39 152.41 L 150.82 153.06 C 150.31 153.65 150.37 154.55 150.97 155.07 C 151.56 155.58 152.46 155.52 152.98 154.92 Z"
      fill="black"
      fill-rule="nonzero" /><path d="M 144.27 143.45 L 144.07 144.38 C 143.90 145.20 144.42 146.00 145.24 146.18 C 146.05 146.35 146.86 145.83 147.03 145.01 L 147.23 144.07 C 147.40 143.26 146.88 142.45 146.06 142.28 C 145.24 142.11 144.44 142.63 144.27 143.45 Z M 144.03 144.43 L 143.85 145.43 C 143.71 146.27 144.27 147.07 145.11 147.22 C 145.95 147.36 146.74 146.80 146.89 145.96 L 147.07 144.96 C 147.21 144.12 146.65 143.32 145.82 143.18 C 144.98 143.03 144.18 143.59 144.03 144.43 Z M 143.82 145.51 L 143.70 146.52 C 143.59 147.38 144.20 148.16 145.06 148.26 C 145.92 148.37 146.69 147.76 146.80 146.90 L 146.92 145.89 C 147.03 145.03 146.42 144.25 145.56 144.15 C 144.71 144.04 143.93 144.65 143.82 145.51 Z M 143.69 146.58 L 143.60 147.60 C 143.53 148.46 144.17 149.22 145.03 149.29 C 145.89 149.37 146.65 148.73 146.72 147.87 L 146.81 146.85 C 146.88 145.98 146.24 145.23 145.38 145.15 C 144.52 145.08 143.76 145.72 143.69 146.58 Z M 143.60 147.63 L 143.53 148.61 C 143.47 149.47 144.12 150.22 144.99 150.28 C 145.85 150.34 146.60 149.68 146.66 148.82 L 146.72 147.84 C 146.78 146.98 146.13 146.23 145.27 146.17 C 144.41 146.11 143.66 146.76 143.60 147.63 Z M 143.53 148.61 L 143.47 149.64 C 143.41 150.51 144.06 151.25 144.93 151.31 C 145.79 151.36 146.53 150.71 146.59 149.85 L 146.66 148.81 C 146.71 147.95 146.06 147.21 145.19 147.15 C 144.33 147.10 143.59 147.75 143.53 148.61 Z M 143.47 149.65 L 143.41 150.61 C 143.35 151.48 144.01 152.22 144.87 152.27 C 145.73 152.32 146.48 151.67 146.53 150.81 L 146.59 149.84 C 146.64 148.98 145.99 148.24 145.12 148.18 C 144.26 148.13 143.52 148.79 143.47 149.65 Z M 143.41 150.62 L 143.35 151.58 C 143.30 152.44 143.96 153.18 144.82 153.23 C 145.68 153.28 146.42 152.63 146.47 151.76 L 146.53 150.80 C 146.58 149.94 145.92 149.20 145.06 149.15 C 144.20 149.10 143.46 149.76 143.41 150.62 Z M 143.35 151.59 L 143.30 152.60 C 143.25 153.46 143.92 154.20 144.78 154.24 C 145.64 154.29 146.37 153.63 146.42 152.76 L 146.47 151.75 C 146.52 150.89 145.85 150.16 144.99 150.11 C 144.13 150.07 143.40 150.73 143.35 151.59 Z M 143.30 152.62 L 143.26 153.63 C 143.22 154.50 143.89 155.22 144.75 155.26 C 145.61 155.29 146.34 154.62 146.38 153.76 L 146.42 152.75 C 146.45 151.89 145.79 151.16 144.92 151.12 C 144.06 151.09 143.33 151.76 143.30 152.62 Z M 143.26 153.65 L 143.22 154.64 C 143.19 155.50 143.87 156.23 144.73 156.25 C 145.59 156.28 146.31 155.61 146.34 154.75 L 146.38 153.75 C 146.41 152.89 145.73 152.17 144.87 152.14 C 144.01 152.11 143.29 152.78 143.26 153.65 Z M 143.22 154.64 L 143.19 155.65 C 143.16 156.51 143.83 157.23 144.69 157.26 C 145.56 157.29 146.28 156.62 146.31 155.76 L 146.34 154.75 C 146.37 153.89 145.70 153.16 144.84 153.13 C 143.98 153.10 143.25 153.78 143.22 154.64 Z M 143.19 155.64 L 143.15 156.63 C 143.11 157.49 143.78 158.22 144.64 158.26 C 145.50 158.29 146.23 157.63 146.27 156.76 L 146.31 155.77 C 146.34 154.91 145.68 154.18 144.81 154.14 C 143.95 154.11 143.23 154.77 143.19 155.64 Z M 143.15 156.63 L 143.11 157.63 C 143.07 158.49 143.74 159.22 144.60 159.26 C 145.46 159.29 146.19 158.63 146.22 157.76 L 146.27 156.76 C 146.30 155.90 145.63 155.18 144.77 155.14 C 143.91 155.10 143.18 155.77 143.15 156.63 Z M 143.10 157.65 L 143.08 158.66 C 143.05 159.52 143.73 160.24 144.59 160.26 C 145.45 160.29 146.17 159.61 146.19 158.75 L 146.22 157.74 C 146.25 156.88 145.57 156.16 144.71 156.14 C 143.85 156.11 143.13 156.79 143.10 157.65 Z M 143.07 158.68 L 143.06 159.69 C 143.05 160.55 143.74 161.26 144.60 161.27 C 145.46 161.28 146.17 160.59 146.18 159.73 L 146.19 158.72 C 146.21 157.86 145.52 157.15 144.65 157.14 C 143.79 157.13 143.09 157.82 143.07 158.68 Z M 143.06 159.71 L 143.06 160.70 C 143.06 161.56 143.75 162.26 144.62 162.26 C 145.48 162.27 146.18 161.57 146.18 160.71 L 146.18 159.71 C 146.18 158.85 145.49 158.15 144.63 158.15 C 143.76 158.15 143.06 158.84 143.06 159.71 Z M 143.06 160.70 L 143.06 161.72 C 143.06 162.58 143.76 163.28 144.62 163.28 C 145.48 163.28 146.18 162.58 146.18 161.72 L 146.18 160.70 C 146.18 159.84 145.48 159.14 144.62 159.14 C 143.76 159.14 143.06 159.84 143.06 160.70 Z M 143.06 161.72 L 143.06 162.72 C 143.06 163.58 143.76 164.28 144.62 164.28 C 145.48 164.28 146.18 163.58 146.18 162.72 L 146.18 161.72 C 146.18 160.86 145.48 160.16 144.62 160.16 C 143.76 160.16 143.06 160.86 143.06 161.72 Z M 143.06 162.72 L 143.06 163.71 C 143.06 164.57 143.76 165.27 144.62 165.27 C 145.48 165.27 146.18 164.57 146.18 163.71 L 146.18 162.72 C 146.18 161.85 145.48 161.16 144.62 161.16 C 143.76 161.16 143.06 161.85 143.06 162.72 Z M 143.06 163.71 L 143.06 164.71 C 143.06 165.58 143.76 166.27 144.62 166.27 C 145.48 166.27 146.18 165.58 146.18 164.71 L 146.18 163.71 C 146.18 162.85 145.48 162.15 144.62 162.15 C 143.76 162.15 143.06 162.85 143.06 163.71 Z M 143.06 164.71 L 143.06 165.70 C 143.06 166.56 143.76 167.26 144.62 167.26 C 145.48 167.26 146.18 166.56 146.18 165.70 L 146.18 164.71 C 146.18 163.85 145.48 163.15 144.62 163.15 C 143.76 163.15 143.06 163.85 143.06 164.71 Z M 143.06 165.71 L 143.07 166.68 C 143.07 167.54 143.78 168.24 144.64 168.23 C 145.50 168.23 146.19 167.52 146.19 166.66 L 146.18 165.69 C 146.17 164.82 145.47 164.13 144.61 164.14 C 143.75 164.14 143.05 164.85 143.06 165.71 Z M 143.07 166.74 L 143.11 167.75 C 143.15 168.62 143.88 169.28 144.74 169.25 C 145.60 169.21 146.27 168.48 146.23 167.62 L 146.19 166.60 C 146.15 165.74 145.42 165.08 144.56 165.11 C 143.70 165.15 143.03 165.88 143.07 166.74 Z M 143.12 167.86 L 143.24 168.93 C 143.33 169.78 144.11 170.40 144.96 170.30 C 145.82 170.21 146.44 169.44 146.34 168.58 L 146.22 167.51 C 146.13 166.66 145.36 166.04 144.50 166.14 C 143.64 166.23 143.03 167.00 143.12 167.86 Z M 143.29 169.17 L 143.55 170.13 C 143.78 170.96 144.64 171.45 145.47 171.22 C 146.30 170.99 146.79 170.13 146.56 169.30 L 146.29 168.34 C 146.06 167.51 145.20 167.02 144.37 167.25 C 143.54 167.48 143.06 168.34 143.29 169.17 Z M 143.88 170.73 L 144.45 171.39 C 145.01 172.05 145.99 172.12 146.64 171.56 C 147.29 171.00 147.37 170.02 146.81 169.36 L 146.24 168.70 C 145.68 168.05 144.69 167.98 144.04 168.54 C 143.39 169.10 143.32 170.08 143.88 170.73 Z M 145.41 171.91 L 146.36 172.05 C 147.20 172.17 147.99 171.58 148.11 170.73 C 148.23 169.88 147.64 169.10 146.79 168.98 L 145.84 168.85 C 145.00 168.73 144.21 169.31 144.09 170.16 C 143.97 171.01 144.56 171.79 145.41 171.91 Z M 147.00 171.99 L 147.97 171.71 C 148.78 171.48 149.25 170.62 149.02 169.80 C 148.78 168.99 147.93 168.52 147.11 168.76 L 146.15 169.04 C 145.33 169.27 144.86 170.13 145.10 170.94 C 145.33 171.76 146.19 172.23 147.00 171.99 Z M 148.23 171.60 L 149.12 171.15 C 149.87 170.77 150.17 169.85 149.79 169.09 C 149.41 168.34 148.49 168.04 147.73 168.42 L 146.85 168.87 C 146.09 169.25 145.79 170.17 146.17 170.92 C 146.55 171.68 147.48 171.98 148.23 171.60 Z M 149.24 171.07 L 150.13 170.50 C 150.84 170.05 151.05 169.11 150.60 168.40 C 150.14 167.69 149.20 167.48 148.49 167.94 L 147.61 168.50 C 146.90 168.95 146.69 169.90 147.14 170.60 C 147.60 171.31 148.54 171.52 149.24 171.07 Z M 150.21 170.43 L 151.08 169.79 C 151.75 169.30 151.89 168.35 151.39 167.68 C 150.90 167.01 149.95 166.87 149.28 167.36 L 148.42 168.00 C 147.75 168.50 147.60 169.44 148.10 170.11 C 148.59 170.78 149.54 170.93 150.21 170.43 Z M 151.13 169.73 L 151.91 169.09 C 152.54 168.56 152.63 167.62 152.10 166.99 C 151.58 166.35 150.64 166.26 150.01 166.79 L 149.23 167.43 C 148.60 167.95 148.51 168.89 149.03 169.53 C 149.56 170.16 150.50 170.25 151.13 169.73 Z M 151.95 169.02 L 152.66 168.36 C 153.26 167.81 153.30 166.88 152.75 166.28 C 152.20 165.69 151.27 165.65 150.67 166.20 L 149.96 166.85 C 149.36 167.40 149.32 168.34 149.87 168.93 C 150.42 169.53 151.36 169.57 151.95 169.02 Z M 152.72 168.28 L 153.41 167.55 C 153.96 166.97 153.94 166.05 153.35 165.50 C 152.77 164.95 151.85 164.97 151.30 165.56 L 150.61 166.28 C 150.06 166.87 150.09 167.78 150.67 168.33 C 151.25 168.89 152.17 168.86 152.72 168.28 Z M 153.45 167.48 L 154.06 166.75 C 154.57 166.15 154.49 165.24 153.89 164.73 C 153.28 164.22 152.38 164.30 151.87 164.91 L 151.26 165.63 C 150.75 166.24 150.83 167.14 151.43 167.65 C 152.04 168.16 152.94 168.08 153.45 167.48 Z M 154.09 166.71 L 154.71 165.93 C 155.20 165.31 155.09 164.41 154.47 163.92 C 153.86 163.43 152.96 163.54 152.47 164.16 L 151.85 164.95 C 151.36 165.56 151.46 166.46 152.08 166.95 C 152.70 167.44 153.60 167.33 154.09 166.71 Z M 154.73 165.89 L 155.33 165.09 C 155.80 164.46 155.67 163.56 155.03 163.09 C 154.40 162.62 153.51 162.76 153.04 163.39 L 152.44 164.19 C 151.98 164.82 152.11 165.72 152.74 166.19 C 153.37 166.66 154.26 166.52 154.73 165.89 Z M 155.34 165.07 L 155.86 164.34 C 156.32 163.70 156.17 162.81 155.53 162.36 C 154.90 161.90 154.00 162.04 153.55 162.68 L 153.03 163.41 C 152.57 164.05 152.72 164.94 153.36 165.40 C 153.99 165.85 154.89 165.71 155.34 165.07 Z"
      fill="black"
      fill-rule="nonzero" /><path d="M 163.51 139.10 L 164.46 139.41 C 165.27 139.68 166.15 139.24 166.42 138.42 C 166.69 137.61 166.25 136.73 165.43 136.46 L 164.49 136.15 C 163.67 135.88 162.79 136.32 162.52 137.13 C 162.25 137.95 162.70 138.83 163.51 139.10 Z M 164.66 139.45 L 165.63 139.63 C 166.47 139.79 167.27 139.24 167.43 138.41 C 167.59 137.57 167.04 136.76 166.21 136.60 L 165.23 136.42 C 164.39 136.26 163.59 136.81 163.43 137.65 C 163.27 138.48 163.82 139.29 164.66 139.45 Z M 165.84 139.65 L 166.84 139.70 C 167.68 139.74 168.40 139.10 168.44 138.25 C 168.49 137.41 167.84 136.69 167.00 136.64 L 166.00 136.59 C 165.15 136.55 164.44 137.19 164.39 138.04 C 164.35 138.88 164.99 139.60 165.84 139.65 Z M 166.84 139.69 L 167.90 139.74 C 168.74 139.79 169.45 139.15 169.50 138.31 C 169.54 137.47 168.90 136.76 168.07 136.71 L 167.00 136.66 C 166.16 136.61 165.45 137.25 165.40 138.09 C 165.36 138.93 166.00 139.64 166.84 139.69 Z M 167.49 139.65 L 168.36 139.96 C 169.15 140.23 170.01 139.82 170.28 139.03 C 170.56 138.25 170.14 137.38 169.36 137.11 L 168.48 136.80 C 167.70 136.53 166.83 136.94 166.56 137.73 C 166.28 138.52 166.70 139.38 167.49 139.65 Z M 167.47 139.11 L 167.81 139.94 C 168.13 140.71 169.01 141.08 169.78 140.76 C 170.55 140.44 170.91 139.56 170.59 138.79 L 170.25 137.96 C 169.93 137.19 169.05 136.83 168.28 137.14 C 167.51 137.46 167.15 138.34 167.47 139.11 Z M 167.72 139.10 L 167.55 140.06 C 167.40 140.88 167.94 141.66 168.76 141.81 C 169.58 141.96 170.36 141.41 170.51 140.60 L 170.69 139.63 C 170.83 138.82 170.29 138.03 169.47 137.88 C 168.65 137.74 167.87 138.28 167.72 139.10 Z M 167.67 139.67 L 167.26 140.51 C 166.90 141.27 167.22 142.17 167.97 142.53 C 168.73 142.89 169.63 142.57 169.99 141.82 L 170.39 140.98 C 170.75 140.23 170.44 139.33 169.68 138.96 C 168.93 138.60 168.03 138.92 167.67 139.67 Z M 167.35 140.35 L 166.72 141.32 C 166.27 142.03 166.47 142.97 167.18 143.42 C 167.88 143.87 168.82 143.67 169.28 142.96 L 169.90 141.99 C 170.36 141.28 170.15 140.34 169.45 139.89 C 168.74 139.44 167.80 139.64 167.35 140.35 Z M 166.76 141.27 L 166.09 142.21 C 165.61 142.90 165.77 143.85 166.46 144.33 C 167.15 144.82 168.10 144.65 168.58 143.96 L 169.25 143.02 C 169.73 142.33 169.56 141.38 168.88 140.90 C 168.19 140.41 167.24 140.58 166.76 141.27 Z M 166.06 142.25 L 165.50 143.11 C 165.04 143.82 165.23 144.76 165.93 145.22 C 166.64 145.68 167.58 145.49 168.04 144.79 L 168.61 143.92 C 169.07 143.22 168.87 142.28 168.17 141.82 C 167.47 141.35 166.53 141.55 166.06 142.25 Z M 165.31 143.53 L 165.11 144.22 C 164.88 145.02 165.35 145.86 166.16 146.10 C 166.96 146.33 167.80 145.86 168.03 145.05 L 168.23 144.37 C 168.46 143.56 167.99 142.72 167.19 142.49 C 166.38 142.26 165.54 142.73 165.31 143.53 Z M 166.74 146.13 L 167.69 146.02 C 168.52 145.93 169.11 145.18 169.01 144.36 C 168.92 143.53 168.18 142.94 167.35 143.03 L 166.40 143.14 C 165.58 143.24 164.99 143.98 165.08 144.81 C 165.17 145.63 165.92 146.22 166.74 146.13 Z M 168.10 145.91 L 168.97 145.54 C 169.73 145.23 170.09 144.35 169.78 143.59 C 169.46 142.83 168.59 142.47 167.82 142.79 L 166.95 143.15 C 166.19 143.47 165.83 144.34 166.14 145.10 C 166.46 145.86 167.33 146.22 168.10 145.91 Z M 169.03 145.52 L 169.98 145.08 C 170.73 144.73 171.06 143.84 170.71 143.09 C 170.36 142.34 169.47 142.01 168.72 142.36 L 167.77 142.81 C 167.02 143.15 166.69 144.04 167.04 144.79 C 167.39 145.54 168.28 145.87 169.03 145.52 Z M 169.97 145.09 L 170.90 144.67 C 171.66 144.32 171.99 143.43 171.65 142.68 C 171.31 141.92 170.42 141.59 169.66 141.93 L 168.73 142.35 C 167.98 142.70 167.64 143.59 167.99 144.34 C 168.33 145.10 169.22 145.43 169.97 145.09 Z M 170.87 144.69 L 171.81 144.29 C 172.57 143.97 172.93 143.09 172.61 142.32 C 172.29 141.55 171.41 141.19 170.64 141.52 L 169.70 141.91 C 168.93 142.23 168.57 143.12 168.90 143.88 C 169.22 144.65 170.10 145.01 170.87 144.69 Z M 171.60 144.37 L 172.64 144.10 C 173.45 143.90 173.94 143.08 173.73 142.27 C 173.53 141.46 172.71 140.97 171.90 141.17 L 170.85 141.44 C 170.04 141.64 169.55 142.47 169.76 143.27 C 169.96 144.08 170.79 144.57 171.60 144.37 Z M 170.91 143.31 L 171.19 143.89 C 171.57 144.64 172.48 144.95 173.23 144.58 C 173.98 144.20 174.29 143.29 173.92 142.54 L 173.63 141.96 C 173.25 141.21 172.34 140.90 171.59 141.28 C 170.84 141.65 170.53 142.56 170.91 143.31 Z M 171.10 142.76 L 170.78 143.82 C 170.53 144.62 170.97 145.47 171.77 145.72 C 172.57 145.97 173.43 145.52 173.68 144.72 L 174.01 143.67 C 174.26 142.87 173.81 142.02 173.01 141.77 C 172.21 141.52 171.35 141.96 171.10 142.76 Z M 170.88 143.58 L 170.42 144.47 C 170.04 145.21 170.34 146.12 171.08 146.51 C 171.83 146.89 172.74 146.59 173.12 145.85 L 173.57 144.96 C 173.95 144.21 173.66 143.30 172.92 142.92 C 172.17 142.54 171.26 142.83 170.88 143.58 Z M 170.48 144.37 L 169.99 145.18 C 169.56 145.89 169.79 146.82 170.50 147.25 C 171.21 147.68 172.13 147.46 172.57 146.75 L 173.06 145.94 C 173.49 145.23 173.26 144.30 172.55 143.87 C 171.84 143.44 170.92 143.66 170.48 144.37 Z M 170.04 145.12 L 169.46 145.97 C 169.00 146.65 169.17 147.58 169.86 148.05 C 170.54 148.52 171.48 148.34 171.94 147.65 L 172.52 146.81 C 172.98 146.12 172.81 145.19 172.12 144.73 C 171.44 144.26 170.51 144.44 170.04 145.12 Z M 169.51 145.92 L 168.91 146.72 C 168.42 147.38 168.55 148.31 169.21 148.81 C 169.87 149.30 170.81 149.16 171.30 148.50 L 171.90 147.70 C 172.39 147.04 172.26 146.11 171.60 145.61 C 170.93 145.12 170.00 145.26 169.51 145.92 Z M 168.95 146.68 L 168.31 147.47 C 167.80 148.10 167.90 149.04 168.53 149.55 C 169.17 150.07 170.10 149.97 170.62 149.33 L 171.26 148.54 C 171.77 147.91 171.68 146.97 171.04 146.46 C 170.40 145.94 169.47 146.04 168.95 146.68 Z M 168.37 147.42 L 167.68 148.18 C 167.13 148.79 167.18 149.72 167.79 150.26 C 168.39 150.81 169.32 150.76 169.87 150.16 L 170.56 149.39 C 171.11 148.78 171.06 147.85 170.45 147.31 C 169.85 146.76 168.92 146.81 168.37 147.42 Z M 167.76 148.11 L 167.01 148.83 C 166.43 149.38 166.41 150.31 166.97 150.89 C 167.52 151.48 168.45 151.50 169.03 150.94 L 169.78 150.23 C 170.37 149.67 170.39 148.74 169.83 148.16 C 169.27 147.57 168.35 147.55 167.76 148.11 Z M 167.12 148.75 L 166.36 149.36 C 165.73 149.86 165.63 150.78 166.13 151.40 C 166.63 152.03 167.55 152.13 168.17 151.63 L 168.93 151.02 C 169.56 150.52 169.66 149.60 169.16 148.98 C 168.66 148.35 167.74 148.25 167.12 148.75 Z M 166.47 149.29 L 165.64 149.84 C 164.97 150.28 164.79 151.17 165.23 151.84 C 165.67 152.50 166.56 152.68 167.23 152.25 L 168.06 151.70 C 168.72 151.26 168.91 150.36 168.47 149.70 C 168.03 149.03 167.14 148.85 166.47 149.29 Z M 165.73 149.79 L 164.87 150.27 C 164.18 150.66 163.93 151.53 164.31 152.22 C 164.70 152.92 165.57 153.16 166.27 152.78 L 167.13 152.29 C 167.82 151.91 168.07 151.03 167.69 150.34 C 167.30 149.65 166.43 149.40 165.73 149.79 Z M 164.90 150.26 L 164.46 150.49 C 163.77 150.86 163.50 151.72 163.86 152.42 C 164.23 153.12 165.09 153.39 165.79 153.02 L 166.23 152.79 C 166.93 152.43 167.20 151.56 166.83 150.86 C 166.47 150.16 165.60 149.89 164.90 150.26 Z"
      fill="black"
      fill-rule="nonzero" /><path d="M 160.44 142.18 L 160.44 143.19 C 160.44 144.04 161.12 144.72 161.96 144.72 C 162.81 144.72 163.49 144.03 163.49 143.19 L 163.49 142.18 C 163.49 141.33 162.80 140.65 161.96 140.65 C 161.12 140.65 160.43 141.34 160.44 142.18 Z M 160.39 143.20 L 160.40 144.19 C 160.40 145.06 161.11 145.76 161.98 145.76 C 162.85 145.75 163.55 145.04 163.54 144.17 L 163.54 143.18 C 163.53 142.31 162.82 141.61 161.95 141.62 C 161.08 141.63 160.38 142.34 160.39 143.20 Z M 160.37 144.22 L 160.39 145.19 C 160.41 146.07 161.14 146.77 162.02 146.75 C 162.91 146.74 163.61 146.00 163.59 145.12 L 163.57 144.15 C 163.55 143.26 162.82 142.56 161.94 142.58 C 161.05 142.60 160.35 143.33 160.37 144.22 Z M 160.38 145.21 L 160.42 146.22 C 160.45 147.10 161.20 147.80 162.08 147.77 C 162.97 147.74 163.67 146.99 163.63 146.10 L 163.60 145.10 C 163.57 144.21 162.82 143.51 161.93 143.54 C 161.05 143.58 160.35 144.32 160.38 145.21 Z M 160.42 146.23 L 160.46 147.18 C 160.50 148.07 161.25 148.76 162.14 148.72 C 163.03 148.68 163.72 147.93 163.68 147.04 L 163.64 146.09 C 163.60 145.20 162.84 144.51 161.95 144.55 C 161.06 144.59 160.38 145.34 160.42 146.23 Z M 160.45 147.18 L 160.50 148.18 C 160.54 149.07 161.30 149.76 162.19 149.72 C 163.08 149.68 163.77 148.93 163.73 148.03 L 163.68 147.04 C 163.64 146.14 162.89 145.45 162.00 145.49 C 161.10 145.54 160.41 146.29 160.45 147.18 Z M 160.50 148.17 L 160.54 149.22 C 160.57 150.11 161.32 150.81 162.22 150.78 C 163.11 150.74 163.81 149.99 163.77 149.10 L 163.73 148.05 C 163.70 147.15 162.95 146.46 162.05 146.49 C 161.16 146.52 160.46 147.28 160.50 148.17 Z M 160.53 149.21 L 160.56 150.15 C 160.59 151.05 161.33 151.75 162.23 151.73 C 163.12 151.70 163.83 150.96 163.80 150.06 L 163.77 149.11 C 163.75 148.22 163.00 147.51 162.11 147.54 C 161.21 147.56 160.51 148.31 160.53 149.21 Z M 160.56 150.14 L 160.58 151.15 C 160.60 152.04 161.34 152.75 162.24 152.73 C 163.14 152.71 163.85 151.97 163.83 151.07 L 163.80 150.07 C 163.78 149.18 163.04 148.47 162.15 148.49 C 161.25 148.51 160.54 149.25 160.56 150.14 Z M 160.58 151.14 L 160.60 152.20 C 160.62 153.10 161.36 153.81 162.26 153.80 C 163.15 153.78 163.86 153.04 163.85 152.14 L 163.83 151.08 C 163.81 150.18 163.07 149.47 162.17 149.49 C 161.28 149.51 160.56 150.25 160.58 151.14 Z M 160.60 152.20 L 160.62 153.15 C 160.63 154.05 161.37 154.76 162.27 154.75 C 163.17 154.73 163.88 153.99 163.87 153.10 L 163.85 152.14 C 163.83 151.25 163.09 150.53 162.20 150.55 C 161.30 150.56 160.58 151.30 160.60 152.20 Z M 160.62 153.15 L 160.63 154.14 C 160.65 155.04 161.39 155.75 162.29 155.74 C 163.18 155.72 163.90 154.98 163.88 154.09 L 163.87 153.10 C 163.85 152.20 163.11 151.49 162.21 151.50 C 161.32 151.52 160.60 152.26 160.62 153.15 Z M 160.63 154.14 L 160.65 155.16 C 160.66 156.06 161.40 156.78 162.30 156.76 C 163.20 156.75 163.91 156.01 163.90 155.11 L 163.88 154.09 C 163.87 153.19 163.13 152.47 162.23 152.49 C 161.33 152.50 160.62 153.24 160.63 154.14 Z M 160.65 155.16 L 160.67 156.19 C 160.68 157.09 161.42 157.81 162.32 157.79 C 163.22 157.78 163.93 157.04 163.92 156.14 L 163.90 155.11 C 163.89 154.21 163.15 153.50 162.25 153.51 C 161.35 153.53 160.63 154.27 160.65 155.16 Z M 160.67 156.19 L 160.68 157.18 C 160.69 158.08 161.43 158.79 162.33 158.78 C 163.23 158.76 163.95 158.03 163.93 157.13 L 163.92 156.14 C 163.90 155.24 163.16 154.53 162.27 154.54 C 161.37 154.55 160.65 155.29 160.67 156.19 Z M 160.68 157.17 L 160.69 158.18 C 160.71 159.07 161.44 159.79 162.34 159.78 C 163.24 159.77 163.96 159.03 163.95 158.13 L 163.93 157.13 C 163.92 156.23 163.18 155.51 162.28 155.53 C 161.39 155.54 160.67 156.28 160.68 157.17 Z M 160.69 158.17 L 160.71 159.18 C 160.72 160.08 161.45 160.80 162.35 160.79 C 163.25 160.78 163.97 160.04 163.96 159.14 L 163.95 158.13 C 163.94 157.24 163.20 156.52 162.30 156.53 C 161.40 156.54 160.68 157.27 160.69 158.17 Z M 160.71 159.18 L 160.71 160.19 C 160.72 161.09 161.46 161.81 162.35 161.80 C 163.25 161.79 163.97 161.06 163.97 160.16 L 163.96 159.15 C 163.95 158.25 163.22 157.53 162.32 157.54 C 161.42 157.54 160.70 158.28 160.71 159.18 Z M 160.71 160.18 L 160.72 161.19 C 160.72 162.09 161.46 162.81 162.35 162.80 C 163.25 162.80 163.98 162.07 163.97 161.17 L 163.97 160.16 C 163.96 159.27 163.23 158.54 162.33 158.55 C 161.43 158.55 160.71 159.28 160.71 160.18 Z M 160.72 161.18 L 160.72 162.19 C 160.73 163.08 161.45 163.81 162.35 163.81 C 163.25 163.80 163.98 163.07 163.97 162.18 L 163.97 161.17 C 163.97 160.28 163.24 159.55 162.34 159.55 C 161.44 159.56 160.72 160.28 160.72 161.18 Z M 160.72 162.18 L 160.72 163.18 C 160.72 164.08 161.45 164.80 162.35 164.80 C 163.25 164.80 163.98 164.07 163.97 163.18 L 163.97 162.18 C 163.97 161.28 163.24 160.55 162.35 160.56 C 161.45 160.56 160.72 161.28 160.72 162.18 Z M 160.72 163.18 L 160.72 164.17 C 160.72 165.07 161.45 165.80 162.35 165.80 C 163.25 165.80 163.97 165.07 163.97 164.17 L 163.97 163.18 C 163.97 162.28 163.25 161.55 162.35 161.55 C 161.45 161.55 160.72 162.28 160.72 163.18 Z M 160.72 164.17 L 160.72 165.18 C 160.72 166.08 161.45 166.80 162.35 166.80 C 163.25 166.80 163.97 166.08 163.97 165.18 L 163.97 164.17 C 163.97 163.28 163.25 162.55 162.35 162.55 C 161.45 162.55 160.72 163.28 160.72 164.17 Z M 160.73 165.18 L 160.73 166.18 C 160.73 167.08 161.45 167.80 162.35 167.80 C 163.25 167.80 163.97 167.08 163.97 166.18 L 163.97 165.18 C 163.97 164.28 163.25 163.56 162.35 163.56 C 161.45 163.56 160.73 164.28 160.73 165.18 Z M 160.73 166.18 L 160.73 167.18 C 160.73 168.07 161.45 168.80 162.35 168.80 C 163.25 168.80 163.97 168.07 163.97 167.18 L 163.97 166.18 C 163.97 165.28 163.25 164.56 162.35 164.56 C 161.45 164.56 160.73 165.28 160.73 166.18 Z M 160.73 167.18 L 160.73 168.18 C 160.73 169.08 161.45 169.80 162.35 169.80 C 163.25 169.80 163.97 169.08 163.97 168.18 L 163.97 167.18 C 163.97 166.28 163.25 165.55 162.35 165.55 C 161.45 165.55 160.73 166.28 160.73 167.18 Z M 160.73 168.18 L 160.73 169.22 C 160.73 170.12 161.45 170.84 162.35 170.84 C 163.25 170.84 163.97 170.12 163.97 169.22 L 163.97 168.18 C 163.97 167.28 163.25 166.56 162.35 166.56 C 161.45 166.56 160.73 167.28 160.73 168.18 Z M 160.73 169.22 L 160.73 170.24 C 160.73 171.13 161.45 171.86 162.35 171.86 C 163.24 171.86 163.97 171.13 163.97 170.24 L 163.97 169.22 C 163.97 168.33 163.24 167.60 162.35 167.60 C 161.45 167.60 160.73 168.33 160.73 169.22 Z M 160.73 170.24 L 160.73 171.22 C 160.73 172.11 161.46 172.84 162.35 172.84 C 163.24 172.84 163.97 172.11 163.97 171.22 L 163.97 170.24 C 163.97 169.35 163.24 168.62 162.35 168.62 C 161.46 168.62 160.73 169.35 160.73 170.24 Z M 160.73 171.22 L 160.73 172.22 C 160.73 173.11 161.46 173.84 162.35 173.84 C 163.24 173.84 163.97 173.11 163.97 172.22 L 163.97 171.22 C 163.97 170.32 163.24 169.60 162.35 169.60 C 161.46 169.60 160.73 170.32 160.73 171.22 Z M 160.73 172.22 L 160.73 173.27 C 160.73 174.16 161.45 174.89 162.35 174.89 C 163.24 174.89 163.96 174.17 163.97 173.27 L 163.97 172.22 C 163.97 171.33 163.24 170.60 162.35 170.60 C 161.46 170.60 160.73 171.33 160.73 172.22 Z M 160.73 173.26 L 160.73 174.22 C 160.72 175.12 161.44 175.84 162.34 175.85 C 163.23 175.85 163.96 175.13 163.96 174.24 L 163.96 173.28 C 163.97 172.39 163.25 171.66 162.36 171.66 C 161.46 171.65 160.74 172.37 160.73 173.26 Z M 160.73 174.21 L 160.72 175.19 C 160.71 176.08 161.42 176.81 162.31 176.82 C 163.21 176.83 163.94 176.11 163.95 175.22 L 163.96 174.25 C 163.97 173.36 163.25 172.63 162.36 172.62 C 161.47 172.61 160.74 173.32 160.73 174.21 Z M 160.72 175.17 L 160.70 176.19 C 160.68 177.08 161.38 177.82 162.27 177.84 C 163.16 177.86 163.90 177.15 163.92 176.26 L 163.95 175.24 C 163.97 174.35 163.26 173.61 162.37 173.59 C 161.48 173.57 160.74 174.28 160.72 175.17 Z M 160.70 176.17 L 160.67 177.11 C 160.63 178.00 161.33 178.75 162.22 178.78 C 163.11 178.81 163.86 178.12 163.89 177.23 L 163.92 176.28 C 163.95 175.39 163.26 174.65 162.37 174.62 C 161.48 174.58 160.73 175.28 160.70 176.17 Z M 160.67 177.09 L 160.61 178.14 C 160.57 179.03 161.25 179.78 162.14 179.83 C 163.03 179.88 163.78 179.19 163.83 178.31 L 163.89 177.25 C 163.93 176.37 163.25 175.61 162.36 175.56 C 161.47 175.52 160.71 176.20 160.67 177.09 Z M 160.61 178.11 L 160.55 179.06 C 160.49 179.95 161.16 180.71 162.05 180.77 C 162.94 180.83 163.70 180.16 163.77 179.28 L 163.83 178.33 C 163.89 177.44 163.22 176.67 162.33 176.61 C 161.44 176.55 160.67 177.22 160.61 178.11 Z M 160.55 179.03 L 160.47 179.99 C 160.40 180.88 161.06 181.66 161.95 181.73 C 162.83 181.80 163.61 181.14 163.69 180.26 L 163.76 179.30 C 163.84 178.41 163.18 177.63 162.29 177.56 C 161.40 177.49 160.62 178.15 160.55 179.03 Z M 160.47 179.97 L 160.38 180.98 C 160.29 181.86 160.94 182.65 161.83 182.74 C 162.72 182.82 163.50 182.17 163.59 181.28 L 163.69 180.28 C 163.77 179.39 163.12 178.60 162.23 178.52 C 161.34 178.43 160.56 179.08 160.47 179.97 Z M 160.37 180.96 L 160.27 181.92 C 160.17 182.81 160.82 183.60 161.71 183.70 C 162.59 183.80 163.39 183.15 163.49 182.26 L 163.59 181.30 C 163.69 180.41 163.04 179.62 162.16 179.52 C 161.27 179.43 160.47 180.07 160.37 180.96 Z M 160.27 181.87 L 160.13 182.91 C 160.00 183.80 160.63 184.62 161.51 184.74 C 162.40 184.86 163.22 184.24 163.35 183.35 L 163.49 182.31 C 163.61 181.42 162.99 180.60 162.10 180.48 C 161.21 180.36 160.39 180.98 160.27 181.87 Z M 160.13 182.83 L 159.90 184.07 C 159.73 184.95 160.31 185.81 161.19 185.98 C 162.08 186.15 162.93 185.57 163.10 184.68 L 163.34 183.44 C 163.51 182.55 162.93 181.70 162.04 181.53 C 161.16 181.36 160.30 181.94 160.13 182.83 Z M 159.93 183.90 L 159.71 184.62 C 159.45 185.49 159.93 186.40 160.80 186.67 C 161.66 186.93 162.58 186.44 162.84 185.58 L 163.06 184.85 C 163.33 183.99 162.84 183.07 161.98 182.81 C 161.11 182.54 160.20 183.03 159.93 183.90 Z M 162.89 184.89 L 162.82 184.36 C 162.71 183.46 161.89 182.83 161.00 182.95 C 160.11 183.07 159.48 183.88 159.59 184.77 L 159.66 185.31 C 159.78 186.20 160.59 186.83 161.48 186.72 C 162.38 186.60 163.01 185.79 162.89 184.89 Z M 162.80 184.73 L 162.93 183.47 C 163.02 182.59 162.38 181.80 161.50 181.71 C 160.62 181.62 159.83 182.26 159.74 183.14 L 159.61 184.40 C 159.52 185.28 160.16 186.07 161.04 186.16 C 161.92 186.25 162.71 185.61 162.80 184.73 Z M 162.89 183.55 L 163.05 182.53 C 163.18 181.68 162.59 180.87 161.73 180.74 C 160.88 180.61 160.07 181.20 159.94 182.05 L 159.78 183.07 C 159.65 183.93 160.24 184.73 161.10 184.86 C 161.96 185.00 162.76 184.41 162.89 183.55 Z M 163.01 182.56 L 163.19 181.54 C 163.33 180.70 162.77 179.90 161.93 179.76 C 161.10 179.61 160.30 180.17 160.15 181.01 L 159.98 182.03 C 159.83 182.87 160.39 183.67 161.23 183.81 C 162.07 183.96 162.86 183.40 163.01 182.56 Z M 163.15 181.55 L 163.34 180.51 C 163.50 179.69 162.95 178.90 162.14 178.75 C 161.32 178.60 160.53 179.14 160.38 179.96 L 160.19 181.00 C 160.04 181.82 160.58 182.61 161.40 182.76 C 162.22 182.91 163.00 182.37 163.15 181.55 Z M 163.31 180.51 L 163.50 179.53 C 163.65 178.73 163.13 177.96 162.33 177.81 C 161.53 177.65 160.76 178.17 160.61 178.97 L 160.42 179.95 C 160.27 180.75 160.79 181.52 161.59 181.68 C 162.38 181.83 163.15 181.31 163.31 180.51 Z M 163.47 179.53 L 163.57 178.97 C 163.73 178.19 163.22 177.43 162.44 177.28 C 161.66 177.13 160.90 177.63 160.75 178.41 L 160.64 178.97 C 160.49 179.75 160.99 180.51 161.77 180.66 C 162.55 180.82 163.31 180.31 163.47 179.53 Z"
      fill="black"
      fill-rule="nonzero" /></svg>