<svg xmlns="http://www.w3.org/2000/svg" width="300" height="300" viewBox="0 0 300 300">
<path d="M 147.12 122.94 L 146.85 123.86 C 146.62 124.66 147.08 125.50 147.88 125.73 C 148.68 125.97 149.52 125.51 149.75 124.71 L 150.02 123.79 C 150.26 122.99 149.80 122.15 149.00 121.91 C 148.20 121.68 147.36 122.14 147.12 122.94 Z M 146.77 123.94 L 146.55 124.93 C 146.37 125.78 146.90 126.61 147.75 126.80 C 148.59 126.99 149.43 126.45 149.62 125.61 L 149.84 124.62 C 150.02 123.77 149.49 122.94 148.64 122.75 C 147.80 122.56 146.96 123.10 146.77 123.94 Z M 146.49 125.09 L 146.37 126.10 C 146.27 126.98 146.90 127.78 147.79 127.88 C 148.67 127.98 149.47 127.35 149.57 126.46 L 149.69 125.45 C 149.79 124.57 149.15 123.77 148.27 123.67 C 147.38 123.57 146.59 124.20 146.49 125.09 Z M 146.35 126.22 L 146.30 127.24 C 146.27 128.14 146.97 128.89 147.86 128.93 C 148.76 128.96 149.52 128.27 149.55 127.37 L 149.59 126.35 C 149.63 125.45 148.93 124.69 148.04 124.66 C 147.14 124.62 146.38 125.32 146.35 126.22 Z M 146.30 127.29 L 146.29 128.28 C 146.28 129.18 147.01 129.92 147.91 129.93 C 148.81 129.93 149.55 129.21 149.56 128.30 L 149.56 127.31 C 149.57 126.41 148.84 125.68 147.94 125.67 C 147.04 125.67 146.30 126.39 146.30 127.29 Z M 146.29 128.29 L 146.29 129.33 C 146.29 130.23 147.02 130.96 147.92 130.96 C 148.83 130.96 149.56 130.23 149.56 129.33 L 149.56 128.29 C 149.56 127.39 148.83 126.66 147.92 126.66 C 147.02 126.66 146.29 127.39 146.29 128.29 Z M 146.28 129.33 L 146.28 130.30 C 146.28 131.20 147.02 131.93 147.92 131.93 C 148.83 131.93 149.56 131.20 149.56 130.30 L 149.56 129.33 C 149.56 128.42 148.83 127.69 147.92 127.69 C 147.02 127.69 146.28 128.42 146.28 129.33 Z M 146.28 130.30 L 146.28 131.26 C 146.28 132.17 147.02 132.90 147.92 132.90 C 148.83 132.90 149.56 132.17 149.56 131.26 L 149.56 130.30 C 149.56 129.39 148.83 128.66 147.92 128.66 C 147.02 128.66 146.28 129.39 146.28 130.30 Z M 146.28 131.26 L 146.28 132.26 C 146.28 133.17 147.02 133.90 147.92 133.90 C 148.83 133.90 149.56 133.17 149.56 132.26 L 149.56 131.26 C 149.56 130.35 148.83 129.62 147.92 129.62 C 147.02 129.62 146.28 130.35 146.28 131.26 Z M 146.28 132.26 L 146.28 133.28 C 146.28 134.19 147.02 134.93 147.92 134.93 C 148.83 134.93 149.57 134.19 149.57 133.28 L 149.57 132.26 C 149.57 131.36 148.83 130.62 147.92 130.62 C 147.02 130.62 146.28 131.36 146.28 132.26 Z M 146.28 133.28 L 146.28 134.27 C 146.28 135.18 147.01 135.92 147.92 135.92 C 148.83 135.92 149.57 135.18 149.57 134.27 L 149.57 133.28 C 149.57 132.38 148.83 131.64 147.92 131.64 C 147.01 131.64 146.28 132.38 146.28 133.28 Z M 146.28 134.27 L 146.28 135.28 C 146.28 136.19 147.01 136.93 147.92 136.93 C 148.83 136.93 149.57 136.19 149.57 135.28 L 149.57 134.27 C 149.57 133.36 148.83 132.63 147.92 132.63 C 147.01 132.63 146.28 133.36 146.28 134.27 Z M 146.27 135.28 L 146.27 136.27 C 146.27 137.18 147.01 137.92 147.92 137.92 C 148.83 137.92 149.57 137.18 149.57 136.27 L 149.57 135.28 C 149.57 134.37 148.83 133.63 147.92 133.63 C 147.01 133.63 146.27 134.37 146.27 135.28 Z M 146.27 136.27 L 146.27 137.27 C 146.27 138.18 147.01 138.92 147.92 138.92 C 148.84 138.92 149.58 138.18 149.58 137.27 L 149.58 136.27 C 149.58 135.36 148.84 134.62 147.92 134.62 C 147.01 134.62 146.27 135.36 146.27 136.27 Z M 146.27 137.27 L 146.27 138.28 C 146.27 139.20 147.01 139.94 147.92 139.94 C 148.84 139.94 149.58 139.20 149.58 138.28 L 149.58 137.27 C 149.58 136.35 148.84 135.61 147.92 135.61 C 147.01 135.61 146.27 136.35 146.27 137.27 Z M 146.26 138.28 L 146.26 139.28 C 146.26 140.20 147.01 140.94 147.92 140.94 C 148.84 140.94 149.58 140.20 149.58 139.28 L 149.58 138.28 C 149.58 137.37 148.84 136.63 147.92 136.63 C 147.01 136.63 146.26 137.37 146.26 138.28 Z M 146.26 139.28 L 146.26 140.28 C 146.26 141.20 147.01 141.94 147.92 141.94 C 148.84 141.94 149.58 141.20 149.58 140.28 L 149.58 139.28 C 149.58 138.36 148.84 137.62 147.92 137.62 C 147.01 137.62 146.26 138.36 146.26 139.28 Z M 146.26 140.28 L 146.26 141.29 C 146.26 142.21 147.00 142.95 147.92 142.95 C 148.84 142.95 149.59 142.21 149.59 141.29 L 149.59 140.28 C 149.59 139.36 148.84 138.62 147.92 138.62 C 147.00 138.62 146.26 139.36 146.26 140.28 Z M 146.26 141.29 L 146.26 142.30 C 146.26 143.22 147.00 143.96 147.92 143.96 C 148.84 143.96 149.59 143.22 149.59 142.30 L 149.59 141.29 C 149.59 140.37 148.84 139.62 147.92 139.62 C 147.00 139.62 146.26 140.37 146.26 141.29 Z M 146.26 142.30 L 146.26 143.30 C 146.26 144.22 147.00 144.97 147.92 144.97 C 148.84 144.97 149.59 144.22 149.59 143.30 L 149.59 142.30 C 149.59 141.38 148.84 140.63 147.92 140.63 C 147.00 140.63 146.26 141.38 146.26 142.30 Z M 146.26 143.30 L 146.26 144.29 C 146.26 145.21 147.00 145.96 147.92 145.96 C 148.84 145.96 149.59 145.21 149.59 144.29 L 149.59 143.30 C 149.59 142.38 148.84 141.63 147.92 141.63 C 147.00 141.63 146.26 142.38 146.26 143.30 Z M 146.26 144.29 L 146.25 145.28 C 146.25 146.20 147.00 146.95 147.92 146.95 C 148.84 146.95 149.59 146.20 149.59 145.28 L 149.59 144.29 C 149.59 143.37 148.84 142.62 147.92 142.62 C 147.00 142.62 146.26 143.37 146.26 144.29 Z M 146.26 145.28 L 146.25 146.27 C 146.25 147.19 146.99 147.94 147.91 147.94 C 148.83 147.95 149.58 147.20 149.59 146.28 L 149.59 145.29 C 149.59 144.37 148.85 143.62 147.93 143.61 C 147.01 143.61 146.26 144.35 146.26 145.28 Z M 146.25 146.26 L 146.24 147.27 C 146.23 148.19 146.97 148.95 147.89 148.96 C 148.81 148.96 149.57 148.23 149.57 147.31 L 149.58 146.29 C 149.59 145.37 148.86 144.62 147.94 144.61 C 147.02 144.60 146.26 145.34 146.25 146.26 Z M 146.24 147.26 L 146.23 148.27 C 146.21 149.19 146.94 149.95 147.86 149.97 C 148.78 149.98 149.54 149.25 149.55 148.33 L 149.57 147.32 C 149.59 146.40 148.86 145.64 147.94 145.62 C 147.02 145.61 146.26 146.34 146.24 147.26 Z M 146.23 148.26 L 146.20 149.27 C 146.18 150.18 146.90 150.95 147.82 150.97 C 148.74 150.99 149.50 150.27 149.53 149.35 L 149.55 148.34 C 149.58 147.43 148.85 146.66 147.93 146.64 C 147.01 146.62 146.25 147.34 146.23 148.26 Z M 146.20 149.25 L 146.17 150.25 C 146.14 151.17 146.86 151.94 147.78 151.97 C 148.69 152.00 149.46 151.28 149.49 150.36 L 149.52 149.36 C 149.55 148.45 148.84 147.68 147.92 147.65 C 147.00 147.62 146.24 148.34 146.20 149.25 Z M 146.17 150.24 L 146.13 151.27 C 146.09 152.19 146.80 152.96 147.72 153.00 C 148.63 153.04 149.40 152.33 149.44 151.41 L 149.49 150.38 C 149.53 149.46 148.82 148.69 147.90 148.65 C 146.99 148.61 146.21 149.32 146.17 150.24 Z M 146.13 151.26 L 146.08 152.23 C 146.04 153.14 146.74 153.92 147.65 153.97 C 148.57 154.01 149.35 153.31 149.39 152.39 L 149.44 151.43 C 149.49 150.51 148.78 149.74 147.87 149.69 C 146.96 149.64 146.18 150.35 146.13 151.26 Z M 146.09 152.22 L 146.03 153.23 C 145.97 154.14 146.67 154.92 147.58 154.97 C 148.50 155.03 149.28 154.33 149.33 153.42 L 149.39 152.41 C 149.44 151.49 148.75 150.71 147.83 150.66 C 146.92 150.61 146.14 151.30 146.09 152.22 Z M 146.03 153.21 L 145.96 154.20 C 145.90 155.12 146.59 155.90 147.50 155.96 C 148.41 156.03 149.20 155.34 149.26 154.42 L 149.33 153.43 C 149.39 152.52 148.70 151.73 147.79 151.67 C 146.88 151.61 146.09 152.30 146.03 153.21 Z M 145.97 154.18 L 145.88 155.17 C 145.81 156.08 146.49 156.88 147.39 156.96 C 148.30 157.03 149.10 156.36 149.18 155.45 L 149.26 154.45 C 149.34 153.54 148.66 152.74 147.75 152.67 C 146.84 152.59 146.04 153.27 145.97 154.18 Z M 145.89 155.14 L 145.79 156.13 C 145.69 157.03 146.35 157.84 147.26 157.94 C 148.17 158.03 148.98 157.37 149.07 156.46 L 149.17 155.48 C 149.27 154.57 148.61 153.76 147.70 153.67 C 146.79 153.58 145.98 154.24 145.89 155.14 Z M 145.79 156.10 L 145.68 157.02 C 145.57 157.93 146.22 158.75 147.12 158.86 C 148.02 158.97 148.85 158.32 148.95 157.42 L 149.07 156.49 C 149.18 155.59 148.53 154.77 147.63 154.66 C 146.72 154.55 145.90 155.19 145.79 156.10 Z M 145.69 156.99 L 145.54 158.00 C 145.41 158.90 146.04 159.74 146.94 159.87 C 147.84 160.00 148.67 159.38 148.80 158.48 L 148.95 157.46 C 149.08 156.56 148.45 155.72 147.55 155.59 C 146.65 155.46 145.82 156.09 145.69 156.99 Z M 145.55 157.96 L 145.34 159.18 C 145.18 160.07 145.78 160.92 146.68 161.08 C 147.57 161.23 148.43 160.63 148.58 159.74 L 148.79 158.52 C 148.95 157.63 148.35 156.77 147.45 156.62 C 146.56 156.47 145.71 157.06 145.55 157.96 Z M 145.40 158.98 L 145.23 159.55 C 144.96 160.41 145.44 161.32 146.30 161.59 C 147.16 161.85 148.07 161.37 148.34 160.51 L 148.52 159.94 C 148.78 159.08 148.30 158.17 147.44 157.90 C 146.58 157.63 145.67 158.12 145.40 158.98 Z M 148.34 159.95 L 148.29 158.95 C 148.25 158.09 147.52 157.43 146.66 157.47 C 145.80 157.51 145.13 158.25 145.17 159.11 L 145.22 160.11 C 145.27 160.97 146.00 161.63 146.86 161.59 C 147.72 161.55 148.39 160.81 148.34 159.95 Z M 148.23 159.03 L 148.23 158.81 C 148.23 157.99 147.56 157.32 146.73 157.32 C 145.91 157.32 145.24 157.99 145.24 158.81 L 145.24 159.03 C 145.24 159.86 145.91 160.53 146.74 160.53 C 147.56 160.53 148.23 159.86 148.23 159.03 Z"
      fill="black"
      fill-rule="nonzero" /><path d="M 126.25 143.48 L 125.43 144.02 C 124.73 144.48 124.54 145.43 125.00 146.13 C 125.47 146.83 126.41 147.03 127.11 146.56 L 127.93 146.02 C 128.63 145.56 128.83 144.61 128.36 143.91 C 127.90 143.21 126.95 143.02 126.25 143.48 Z M 125.85 146.85 L 126.52 147.03 C 127.38 147.26 128.26 146.76 128.50 145.90 C 128.73 145.04 128.23 144.15 127.37 143.92 L 126.70 143.74 C 125.84 143.50 124.95 144.01 124.72 144.87 C 124.48 145.72 124.99 146.61 125.85 146.85 Z M 126.87 147.13 L 128.10 147.18 C 129.01 147.22 129.78 146.52 129.82 145.60 C 129.86 144.69 129.16 143.92 128.24 143.88 L 127.02 143.82 C 126.11 143.78 125.33 144.49 125.29 145.40 C 125.25 146.31 125.96 147.09 126.87 147.13 Z M 128.15 147.20 L 129.18 147.21 C 130.10 147.23 130.86 146.49 130.87 145.56 C 130.88 144.64 130.14 143.88 129.22 143.87 L 128.19 143.86 C 127.27 143.84 126.51 144.58 126.50 145.51 C 126.48 146.43 127.22 147.19 128.15 147.20 Z M 129.19 147.22 L 130.17 147.22 C 131.09 147.22 131.85 146.47 131.85 145.55 C 131.85 144.62 131.10 143.87 130.17 143.87 L 129.20 143.86 C 128.28 143.86 127.52 144.61 127.52 145.54 C 127.52 146.46 128.27 147.22 129.19 147.22 Z M 130.17 147.22 L 131.20 147.22 C 132.13 147.22 132.88 146.47 132.88 145.54 C 132.88 144.62 132.13 143.86 131.20 143.86 L 130.17 143.86 C 129.24 143.86 128.49 144.62 128.49 145.54 C 128.49 146.47 129.24 147.22 130.17 147.22 Z M 131.20 147.22 L 132.16 147.22 C 133.09 147.22 133.84 146.47 133.84 145.54 C 133.84 144.62 133.09 143.87 132.16 143.87 L 131.20 143.87 C 130.27 143.87 129.52 144.62 129.52 145.54 C 129.52 146.47 130.27 147.22 131.20 147.22 Z M 132.16 147.22 L 133.13 147.22 C 134.06 147.22 134.81 146.47 134.81 145.54 C 134.81 144.62 134.06 143.87 133.13 143.87 L 132.16 143.87 C 131.23 143.87 130.48 144.62 130.48 145.54 C 130.48 146.47 131.23 147.22 132.16 147.22 Z M 133.13 147.22 L 134.15 147.22 C 135.08 147.22 135.83 146.47 135.83 145.54 C 135.83 144.62 135.08 143.87 134.15 143.87 L 133.13 143.87 C 132.21 143.87 131.46 144.62 131.46 145.54 C 131.46 146.47 132.21 147.22 133.13 147.22 Z M 134.15 147.22 L 135.13 147.22 C 136.05 147.22 136.80 146.47 136.80 145.54 C 136.80 144.62 136.05 143.87 135.13 143.87 L 134.15 143.87 C 133.23 143.87 132.48 144.62 132.48 145.54 C 132.48 146.47 133.23 147.22 134.15 147.22 Z M 135.13 147.22 L 136.16 147.22 C 137.09 147.22 137.84 146.47 137.84 145.54 C 137.84 144.62 137.09 143.87 136.16 143.87 L 135.13 143.87 C 134.20 143.87 133.45 144.62 133.45 145.54 C 133.45 146.47 134.20 147.22 135.13 147.22 Z M 136.16 147.22 L 137.14 147.22 C 138.07 147.22 138.82 146.47 138.82 145.54 C 138.82 144.62 138.07 143.87 137.14 143.87 L 136.16 143.87 C 135.24 143.87 134.49 144.62 134.49 145.54 C 134.49 146.47 135.24 147.22 136.16 147.22 Z M 137.14 147.22 L 138.15 147.22 C 139.08 147.22 139.83 146.47 139.83 145.54 C 139.83 144.62 139.08 143.87 138.15 143.87 L 137.14 143.87 C 136.22 143.87 135.46 144.62 135.46 145.54 C 135.46 146.47 136.22 147.22 137.14 147.22 Z M 138.15 147.22 L 139.16 147.22 C 140.09 147.22 140.84 146.47 140.84 145.54 C 140.84 144.62 140.09 143.87 139.16 143.87 L 138.15 143.87 C 137.23 143.87 136.48 144.62 136.48 145.54 C 136.48 146.47 137.23 147.22 138.15 147.22 Z M 139.16 147.22 L 140.16 147.22 C 141.09 147.22 141.84 146.47 141.84 145.54 C 141.84 144.62 141.09 143.86 140.16 143.86 L 139.16 143.86 C 138.23 143.86 137.48 144.62 137.48 145.54 C 137.48 146.47 138.23 147.22 139.16 147.22 Z M 140.16 147.23 L 141.16 147.23 C 142.09 147.23 142.85 146.47 142.85 145.54 C 142.85 144.62 142.09 143.86 141.16 143.86 L 140.16 143.86 C 139.23 143.86 138.48 144.62 138.48 145.54 C 138.48 146.47 139.23 147.23 140.16 147.23 Z M 141.16 147.23 L 142.15 147.23 C 143.08 147.23 143.84 146.47 143.84 145.54 C 143.84 144.61 143.08 143.86 142.15 143.86 L 141.16 143.86 C 140.23 143.86 139.48 144.61 139.48 145.54 C 139.48 146.47 140.23 147.23 141.16 147.23 Z M 142.15 147.23 L 143.16 147.23 C 144.08 147.23 144.84 146.47 144.84 145.54 C 144.84 144.62 144.08 143.86 143.16 143.86 L 142.15 143.86 C 141.22 143.86 140.47 144.62 140.47 145.54 C 140.47 146.47 141.22 147.23 142.15 147.23 Z M 143.16 147.23 L 144.16 147.23 C 145.09 147.23 145.84 146.47 145.84 145.54 C 145.84 144.62 145.09 143.86 144.16 143.86 L 143.16 143.86 C 142.23 143.86 141.47 144.62 141.47 145.54 C 141.47 146.47 142.23 147.23 143.16 147.23 Z M 144.16 147.22 L 145.17 147.22 C 146.10 147.22 146.85 146.47 146.84 145.54 C 146.84 144.61 146.09 143.86 145.16 143.86 L 144.16 143.86 C 143.23 143.87 142.48 144.62 142.48 145.55 C 142.48 146.47 143.24 147.22 144.16 147.22 Z M 145.17 147.22 L 146.17 147.21 C 147.10 147.21 147.85 146.45 147.84 145.53 C 147.84 144.60 147.08 143.86 146.16 143.86 L 145.16 143.87 C 144.23 143.87 143.48 144.63 143.49 145.55 C 143.49 146.48 144.25 147.22 145.17 147.22 Z M 146.19 147.21 L 147.20 147.20 C 148.13 147.19 148.87 146.43 148.86 145.50 C 148.84 144.58 148.08 143.84 147.16 143.85 L 146.14 143.86 C 145.22 143.87 144.48 144.63 144.49 145.56 C 144.50 146.48 145.26 147.22 146.19 147.21 Z M 147.21 147.20 L 148.21 147.18 C 149.14 147.16 149.87 146.40 149.85 145.47 C 149.84 144.55 149.07 143.82 148.15 143.83 L 147.15 143.85 C 146.23 143.87 145.49 144.63 145.51 145.56 C 145.53 146.48 146.29 147.21 147.21 147.20 Z M 148.22 147.18 L 149.21 147.15 C 150.13 147.13 150.86 146.36 150.84 145.44 C 150.82 144.52 150.05 143.79 149.13 143.81 L 148.14 143.83 C 147.22 143.86 146.49 144.62 146.51 145.55 C 146.53 146.47 147.30 147.20 148.22 147.18 Z M 149.21 147.15 L 150.22 147.12 C 151.14 147.10 151.87 146.33 151.84 145.41 C 151.81 144.48 151.05 143.76 150.12 143.78 L 149.12 143.81 C 148.20 143.84 147.47 144.61 147.50 145.53 C 147.52 146.45 148.29 147.18 149.21 147.15 Z M 150.22 147.12 L 151.21 147.09 C 152.14 147.07 152.86 146.30 152.83 145.37 C 152.81 144.45 152.04 143.73 151.11 143.75 L 150.12 143.78 C 149.20 143.81 148.47 144.58 148.50 145.50 C 148.53 146.42 149.30 147.15 150.22 147.12 Z M 151.21 147.09 L 152.25 147.06 C 153.17 147.04 153.89 146.27 153.86 145.34 C 153.84 144.42 153.07 143.70 152.15 143.72 L 151.11 143.75 C 150.19 143.78 149.47 144.55 149.49 145.47 C 149.52 146.40 150.29 147.12 151.21 147.09 Z M 152.25 147.06 L 153.25 147.03 C 154.17 147.01 154.89 146.24 154.87 145.31 C 154.84 144.39 154.07 143.67 153.15 143.69 L 152.15 143.72 C 151.22 143.75 150.50 144.52 150.53 145.44 C 150.55 146.37 151.32 147.09 152.25 147.06 Z M 153.25 147.03 L 154.26 147.00 C 155.18 146.98 155.91 146.20 155.88 145.28 C 155.85 144.36 155.08 143.63 154.16 143.66 L 153.15 143.69 C 152.22 143.72 151.50 144.49 151.53 145.41 C 151.55 146.34 152.32 147.06 153.25 147.03 Z M 154.26 147.00 L 155.23 146.98 C 156.16 146.95 156.89 146.18 156.86 145.26 C 156.84 144.34 156.07 143.61 155.15 143.64 L 154.17 143.66 C 153.24 143.69 152.52 144.45 152.54 145.38 C 152.56 146.30 153.33 147.03 154.26 147.00 Z M 155.21 146.98 L 156.16 146.96 C 157.08 146.95 157.82 146.19 157.81 145.27 C 157.80 144.35 157.04 143.61 156.12 143.62 L 155.17 143.64 C 154.25 143.65 153.51 144.41 153.52 145.33 C 153.53 146.25 154.29 146.99 155.21 146.98 Z M 156.14 146.96 L 157.16 146.96 C 158.08 146.96 158.83 146.21 158.83 145.29 C 158.82 144.37 158.08 143.62 157.16 143.63 L 156.14 143.63 C 155.22 143.63 154.47 144.38 154.47 145.30 C 154.47 146.22 155.22 146.96 156.14 146.96 Z M 157.16 146.95 L 158.16 146.95 C 159.08 146.94 159.82 146.20 159.82 145.28 C 159.81 144.37 159.07 143.63 158.15 143.63 L 157.15 143.64 C 156.24 143.64 155.50 144.38 155.50 145.30 C 155.51 146.21 156.25 146.95 157.16 146.95 Z M 158.20 146.93 L 159.27 146.90 C 160.18 146.88 160.90 146.12 160.87 145.22 C 160.85 144.31 160.09 143.59 159.19 143.62 L 158.11 143.65 C 157.21 143.67 156.49 144.42 156.52 145.33 C 156.54 146.24 157.29 146.95 158.20 146.93 Z M 159.37 146.89 L 160.33 146.81 C 161.23 146.73 161.90 145.93 161.82 145.03 C 161.74 144.13 160.94 143.46 160.04 143.54 L 159.09 143.63 C 158.18 143.71 157.52 144.50 157.60 145.40 C 157.68 146.30 158.47 146.97 159.37 146.89 Z M 160.24 143.54 L 159.33 143.51 C 158.43 143.48 157.67 144.20 157.65 145.10 C 157.62 146.00 158.33 146.76 159.24 146.79 L 160.14 146.81 C 161.04 146.84 161.80 146.13 161.83 145.22 C 161.85 144.32 161.14 143.56 160.24 143.54 Z M 159.28 143.51 L 159.18 143.51 C 158.28 143.51 157.55 144.24 157.55 145.15 C 157.55 146.05 158.28 146.79 159.18 146.79 L 159.28 146.79 C 160.19 146.79 160.92 146.05 160.92 145.15 C 160.92 144.24 160.19 143.51 159.28 143.51 Z"
      fill="black"
      fill-rule="nonzero" /><path d="M 127.42 129.30 L 127.69 130.19 C 127.93 130.99 128.78 131.44 129.58 131.19 C 130.38 130.95 130.84 130.10 130.59 129.30 L 130.32 128.41 C 130.07 127.61 129.22 127.16 128.42 127.40 C 127.62 127.65 127.17 128.50 127.42 129.30 Z M 127.80 130.53 L 128.32 131.42 C 128.75 132.16 129.70 132.41 130.45 131.98 C 131.19 131.54 131.44 130.59 131.00 129.85 L 130.48 128.96 C 130.05 128.21 129.09 127.96 128.35 128.40 C 127.61 128.83 127.36 129.79 127.80 130.53 Z M 128.51 131.67 L 129.13 132.36 C 129.70 133.00 130.68 133.05 131.32 132.48 C 131.96 131.91 132.01 130.93 131.44 130.29 L 130.81 129.60 C 130.24 128.96 129.26 128.91 128.62 129.48 C 127.99 130.05 127.93 131.03 128.51 131.67 Z M 129.24 132.42 L 130.00 133.15 C 130.61 133.72 131.56 133.70 132.14 133.10 C 132.71 132.49 132.69 131.54 132.09 130.96 L 131.33 130.23 C 130.72 129.66 129.77 129.68 129.19 130.29 C 128.62 130.89 128.64 131.84 129.24 132.42 Z M 130.05 133.15 L 130.45 133.51 C 131.05 134.06 131.99 134.02 132.54 133.42 C 133.09 132.81 133.05 131.88 132.44 131.33 L 132.04 130.96 C 131.44 130.41 130.50 130.45 129.95 131.06 C 129.40 131.66 129.44 132.59 130.05 133.15 Z"
      fill="black"
      fill-rule="nonzero" /><path d="M 156.97 131.90 L 157.40 132.81 C 157.77 133.59 158.70 133.93 159.49 133.56 C 160.27 133.20 160.61 132.26 160.24 131.48 L 159.82 130.56 C 159.45 129.78 158.52 129.44 157.73 129.81 C 156.94 130.17 156.60 131.11 156.97 131.90 Z M 157.27 132.60 L 157.55 133.54 C 157.80 134.40 158.70 134.89 159.56 134.63 C 160.42 134.38 160.91 133.48 160.65 132.62 L 160.37 131.68 C 160.12 130.82 159.22 130.34 158.36 130.59 C 157.50 130.84 157.02 131.74 157.27 132.60 Z M 157.53 133.20 L 157.60 134.18 C 157.66 135.05 158.42 135.70 159.29 135.64 C 160.16 135.57 160.81 134.81 160.75 133.94 L 160.67 132.96 C 160.61 132.09 159.85 131.44 158.98 131.51 C 158.11 131.57 157.46 132.33 157.53 133.20 Z M 157.68 134.02 L 157.66 135.03 C 157.63 135.86 158.29 136.54 159.11 136.56 C 159.93 136.58 160.62 135.93 160.64 135.11 L 160.66 134.10 C 160.69 133.28 160.04 132.59 159.21 132.57 C 158.39 132.55 157.70 133.20 157.68 134.02 Z M 157.70 135.00 L 157.65 136.00 C 157.61 136.80 158.22 137.48 159.02 137.52 C 159.82 137.56 160.50 136.94 160.54 136.14 L 160.60 135.14 C 160.64 134.34 160.02 133.66 159.22 133.62 C 158.42 133.58 157.74 134.20 157.70 135.00 Z M 157.66 135.99 L 157.63 136.62 C 157.58 137.41 158.18 138.09 158.97 138.14 C 159.77 138.18 160.45 137.58 160.49 136.79 L 160.53 136.15 C 160.58 135.36 159.97 134.68 159.18 134.64 C 158.39 134.59 157.71 135.19 157.66 135.99 Z"
      fill="black"
      fill-rule="nonzero" /><path d="M 129.70 154.59 L 130.28 155.35 C 130.83 156.06 131.84 156.20 132.55 155.65 C 133.26 155.11 133.39 154.10 132.85 153.39 L 132.26 152.63 C 131.72 151.92 130.71 151.79 130.00 152.33 C 129.29 152.87 129.16 153.89 129.70 154.59 Z M 130.33 155.45 L 131.00 156.22 C 131.60 156.90 132.64 156.97 133.32 156.38 C 134.00 155.78 134.07 154.74 133.47 154.06 L 132.80 153.29 C 132.20 152.61 131.17 152.54 130.48 153.14 C 129.80 153.73 129.73 154.77 130.33 155.45 Z M 131.11 156.27 L 131.82 156.98 C 132.44 157.61 133.46 157.61 134.08 156.98 C 134.70 156.36 134.70 155.34 134.08 154.72 L 133.37 154.01 C 132.74 153.39 131.73 153.39 131.11 154.01 C 130.48 154.64 130.48 155.65 131.11 156.27 Z M 131.93 156.97 L 132.69 157.66 C 133.30 158.23 134.26 158.18 134.83 157.56 C 135.39 156.95 135.35 155.99 134.73 155.42 L 133.97 154.73 C 133.35 154.17 132.39 154.21 131.83 154.83 C 131.27 155.45 131.31 156.41 131.93 156.97 Z M 132.76 157.66 L 133.53 158.31 C 134.14 158.83 135.07 158.75 135.59 158.14 C 136.11 157.52 136.03 156.60 135.42 156.07 L 134.65 155.43 C 134.04 154.90 133.11 154.98 132.59 155.60 C 132.07 156.21 132.14 157.14 132.76 157.66 Z M 133.56 158.30 L 134.02 158.68 C 134.64 159.19 135.54 159.10 136.05 158.48 C 136.55 157.87 136.46 156.96 135.85 156.46 L 135.38 156.08 C 134.77 155.58 133.86 155.66 133.36 156.28 C 132.86 156.89 132.95 157.80 133.56 158.30 Z"
      fill="black"
      fill-rule="nonzero" /><path d="M 156.84 155.81 L 157.19 156.75 C 157.50 157.57 158.42 157.99 159.25 157.68 C 160.07 157.37 160.49 156.45 160.18 155.62 L 159.83 154.69 C 159.51 153.86 158.60 153.45 157.77 153.76 C 156.95 154.07 156.53 154.99 156.84 155.81 Z M 157.13 156.77 L 157.49 157.71 C 157.81 158.56 158.77 159.00 159.62 158.67 C 160.48 158.35 160.91 157.39 160.59 156.54 L 160.24 155.60 C 159.91 154.74 158.96 154.31 158.10 154.63 C 157.24 154.96 156.81 155.91 157.13 156.77 Z M 157.45 157.72 L 157.48 157.77 C 157.80 158.65 158.78 159.09 159.66 158.76 C 160.53 158.43 160.97 157.45 160.64 156.58 L 160.62 156.52 C 160.29 155.65 159.32 155.21 158.44 155.54 C 157.57 155.87 157.13 156.84 157.45 157.72 Z"
      fill="black"
      fill-rule="nonzero" /></svg>