<svg xmlns="http://www.w3.org/2000/svg" width="300" height="300" viewBox="0 0 300 300">
<path d="M 158.83 128.79 L 158.91 127.80 C 158.99 126.98 158.38 126.26 157.56 126.18 C 156.75 126.11 156.02 126.72 155.95 127.53 L 155.86 128.52 C 155.79 129.34 156.39 130.06 157.21 130.14 C 158.03 130.21 158.75 129.61 158.83 128.79 Z M 158.95 127.78 L 159.04 126.62 C 159.10 125.78 158.48 125.05 157.64 124.99 C 156.81 124.92 156.08 125.55 156.01 126.38 L 155.92 127.55 C 155.85 128.38 156.48 129.11 157.31 129.18 C 158.15 129.24 158.88 128.62 158.95 127.78 Z M 159.01 126.06 L 158.90 125.68 C 158.66 124.86 157.80 124.39 156.98 124.63 C 156.15 124.87 155.68 125.74 155.93 126.56 L 156.04 126.94 C 156.28 127.76 157.14 128.23 157.96 127.99 C 158.78 127.75 159.25 126.89 159.01 126.06 Z M 155.94 125.51 L 155.49 126.59 C 155.16 127.41 155.55 128.34 156.36 128.67 C 157.18 129.01 158.11 128.62 158.44 127.81 L 158.89 126.73 C 159.22 125.91 158.83 124.98 158.02 124.65 C 157.21 124.31 156.27 124.70 155.94 125.51 Z M 155.47 126.59 L 155.08 127.54 C 154.74 128.37 155.14 129.32 155.97 129.65 C 156.80 129.99 157.75 129.59 158.08 128.76 L 158.47 127.81 C 158.81 126.98 158.41 126.03 157.58 125.70 C 156.75 125.36 155.80 125.76 155.47 126.59 Z M 155.09 127.52 L 154.69 128.47 C 154.34 129.29 154.73 130.24 155.56 130.59 C 156.39 130.94 157.34 130.55 157.68 129.72 L 158.08 128.78 C 158.43 127.95 158.04 127.00 157.21 126.65 C 156.38 126.31 155.43 126.70 155.09 127.52 Z M 154.69 128.46 L 154.29 129.41 C 153.94 130.24 154.32 131.19 155.15 131.54 C 155.97 131.89 156.93 131.51 157.28 130.68 L 157.68 129.73 C 158.03 128.90 157.65 127.95 156.82 127.60 C 156.00 127.25 155.04 127.63 154.69 128.46 Z M 154.29 129.41 L 153.91 130.29 C 153.56 131.12 153.94 132.07 154.76 132.43 C 155.59 132.78 156.54 132.40 156.90 131.57 L 157.28 130.69 C 157.63 129.86 157.25 128.91 156.42 128.55 C 155.60 128.20 154.64 128.58 154.29 129.41 Z M 153.91 130.30 L 153.53 131.18 C 153.18 132.01 153.56 132.96 154.39 133.31 C 155.21 133.66 156.17 133.28 156.52 132.46 L 156.90 131.57 C 157.25 130.75 156.86 129.79 156.04 129.44 C 155.22 129.09 154.26 129.47 153.91 130.30 Z M 153.53 131.18 L 153.14 132.11 C 152.78 132.93 153.16 133.89 153.99 134.24 C 154.81 134.59 155.76 134.21 156.12 133.39 L 156.52 132.46 C 156.87 131.63 156.49 130.68 155.66 130.33 C 154.84 129.97 153.89 130.36 153.53 131.18 Z M 153.14 132.10 L 152.74 133.01 C 152.39 133.83 152.76 134.79 153.58 135.14 C 154.40 135.50 155.35 135.13 155.71 134.31 L 156.11 133.40 C 156.47 132.58 156.09 131.62 155.27 131.27 C 154.45 130.91 153.50 131.28 153.14 132.10 Z M 152.75 133.00 L 152.34 133.92 C 151.97 134.74 152.34 135.69 153.16 136.06 C 153.97 136.42 154.93 136.06 155.29 135.24 L 155.70 134.32 C 156.07 133.50 155.70 132.55 154.89 132.18 C 154.07 131.82 153.12 132.18 152.75 133.00 Z M 152.35 133.91 L 151.94 134.80 C 151.57 135.61 151.92 136.57 152.74 136.94 C 153.55 137.31 154.50 136.95 154.88 136.14 L 155.28 135.25 C 155.65 134.44 155.30 133.49 154.49 133.11 C 153.68 132.74 152.72 133.10 152.35 133.91 Z M 151.95 134.79 L 151.52 135.71 C 151.14 136.52 151.49 137.48 152.30 137.85 C 153.11 138.23 154.07 137.88 154.44 137.07 L 154.87 136.15 C 155.24 135.34 154.89 134.39 154.09 134.01 C 153.28 133.64 152.32 133.99 151.95 134.79 Z M 151.53 135.71 L 151.10 136.62 C 150.72 137.42 151.07 138.38 151.87 138.76 C 152.68 139.13 153.63 138.79 154.01 137.98 L 154.43 137.07 C 154.81 136.27 154.46 135.31 153.66 134.94 C 152.86 134.56 151.90 134.91 151.53 135.71 Z M 151.11 136.62 L 150.68 137.53 C 150.30 138.32 150.64 139.28 151.44 139.66 C 152.24 140.03 153.19 139.69 153.57 138.90 L 154.00 137.99 C 154.38 137.19 154.04 136.23 153.24 135.86 C 152.44 135.48 151.49 135.82 151.11 136.62 Z M 150.69 137.52 L 150.25 138.43 C 149.87 139.22 150.20 140.17 150.99 140.55 C 151.78 140.94 152.73 140.61 153.11 139.82 L 153.55 138.91 C 153.94 138.11 153.61 137.16 152.82 136.78 C 152.03 136.40 151.07 136.73 150.69 137.52 Z M 150.26 138.42 L 149.82 139.31 C 149.43 140.10 149.75 141.05 150.54 141.43 C 151.32 141.82 152.27 141.50 152.66 140.72 L 153.10 139.82 C 153.49 139.04 153.17 138.09 152.38 137.70 C 151.60 137.31 150.65 137.64 150.26 138.42 Z M 149.83 139.31 L 149.39 140.20 C 149.00 140.98 149.32 141.93 150.10 142.32 C 150.88 142.70 151.82 142.39 152.21 141.61 L 152.65 140.71 C 153.04 139.93 152.72 138.99 151.94 138.60 C 151.16 138.21 150.21 138.53 149.83 139.31 Z M 149.39 140.20 L 148.95 141.10 C 148.56 141.88 148.87 142.82 149.65 143.21 C 150.43 143.59 151.37 143.28 151.76 142.50 L 152.20 141.61 C 152.59 140.83 152.28 139.89 151.50 139.50 C 150.72 139.11 149.78 139.43 149.39 140.20 Z M 148.96 141.09 L 148.50 141.98 C 148.11 142.75 148.41 143.69 149.18 144.08 C 149.94 144.48 150.89 144.18 151.28 143.41 L 151.74 142.52 C 152.14 141.75 151.83 140.81 151.07 140.41 C 150.30 140.02 149.36 140.32 148.96 141.09 Z M 148.52 141.96 L 148.05 142.84 C 147.64 143.60 147.93 144.55 148.69 144.95 C 149.44 145.36 150.39 145.07 150.79 144.31 L 151.26 143.43 C 151.67 142.67 151.38 141.73 150.62 141.32 C 149.87 140.92 148.92 141.20 148.52 141.96 Z M 148.06 142.84 L 147.58 143.72 C 147.17 144.47 147.45 145.41 148.20 145.82 C 148.95 146.23 149.89 145.95 150.30 145.20 L 150.78 144.32 C 151.19 143.56 150.91 142.62 150.16 142.22 C 149.41 141.81 148.47 142.09 148.06 142.84 Z M 147.59 143.72 L 147.11 144.59 C 146.70 145.34 146.98 146.27 147.72 146.68 C 148.47 147.09 149.40 146.82 149.81 146.07 L 150.29 145.20 C 150.70 144.45 150.42 143.52 149.68 143.11 C 148.93 142.70 148.00 142.98 147.59 143.72 Z M 147.13 144.59 L 146.67 145.42 C 146.25 146.15 146.52 147.08 147.25 147.49 C 147.99 147.91 148.92 147.64 149.33 146.91 L 149.79 146.08 C 150.21 145.34 149.94 144.41 149.21 144.00 C 148.47 143.59 147.54 143.85 147.13 144.59 Z M 146.69 145.40 L 146.17 146.29 C 145.75 147.02 146.00 147.94 146.73 148.36 C 147.45 148.78 148.38 148.53 148.80 147.81 L 149.31 146.92 C 149.73 146.20 149.48 145.27 148.76 144.85 C 148.03 144.43 147.11 144.68 146.69 145.40 Z M 146.21 146.26 L 145.66 147.13 C 145.23 147.84 145.44 148.76 146.15 149.20 C 146.85 149.64 147.78 149.42 148.22 148.72 L 148.76 147.84 C 149.20 147.14 148.98 146.21 148.28 145.77 C 147.57 145.33 146.65 145.55 146.21 146.26 Z M 145.81 146.95 L 145.16 147.71 C 144.62 148.34 144.70 149.28 145.32 149.82 C 145.95 150.36 146.90 150.28 147.43 149.65 L 148.08 148.89 C 148.62 148.27 148.54 147.32 147.91 146.79 C 147.29 146.25 146.34 146.32 145.81 146.95 Z M 145.64 147.35 L 144.77 147.78 C 144.04 148.14 143.74 149.03 144.10 149.76 C 144.46 150.50 145.35 150.80 146.08 150.44 L 146.95 150.01 C 147.68 149.65 147.99 148.76 147.63 148.03 C 147.26 147.29 146.38 146.99 145.64 147.35 Z M 145.32 147.64 L 144.33 147.72 C 143.52 147.78 142.92 148.48 142.98 149.29 C 143.04 150.10 143.74 150.70 144.55 150.64 L 145.54 150.57 C 146.35 150.51 146.95 149.81 146.89 149.00 C 146.83 148.19 146.13 147.58 145.32 147.64 Z M 144.44 147.72 L 144.36 147.72 C 143.55 147.72 142.90 148.38 142.90 149.18 C 142.90 149.99 143.55 150.64 144.36 150.64 L 144.44 150.64 C 145.24 150.64 145.90 149.99 145.90 149.18 C 145.90 148.38 145.24 147.72 144.44 147.72 Z"
      fill="black"
      fill-rule="nonzero" /><path d="M 145.34 134.38 L 144.55 133.66 C 143.93 133.08 142.95 133.12 142.38 133.75 C 141.80 134.37 141.84 135.35 142.47 135.93 L 143.25 136.65 C 143.88 137.23 144.85 137.19 145.43 136.56 C 146.00 135.93 145.96 134.96 145.34 134.38 Z M 143.56 136.39 L 144.18 136.37 C 145.06 136.34 145.75 135.60 145.72 134.72 C 145.69 133.84 144.96 133.15 144.08 133.18 L 143.46 133.20 C 142.58 133.23 141.89 133.96 141.91 134.84 C 141.94 135.73 142.68 136.42 143.56 136.39 Z M 143.49 136.26 L 144.52 136.70 C 145.34 137.05 146.29 136.67 146.64 135.85 C 146.99 135.03 146.61 134.08 145.79 133.73 L 144.76 133.29 C 143.94 132.94 142.99 133.32 142.64 134.14 C 142.29 134.96 142.67 135.91 143.49 136.26 Z M 144.33 136.60 L 145.20 137.12 C 145.96 137.58 146.96 137.33 147.42 136.56 C 147.87 135.80 147.62 134.80 146.86 134.34 L 145.99 133.83 C 145.22 133.37 144.23 133.62 143.77 134.38 C 143.31 135.15 143.56 136.14 144.33 136.60 Z M 145.10 137.06 L 145.95 137.65 C 146.68 138.16 147.69 137.98 148.20 137.25 C 148.71 136.51 148.53 135.51 147.80 135.00 L 146.95 134.41 C 146.22 133.90 145.21 134.08 144.70 134.81 C 144.19 135.54 144.37 136.55 145.10 137.06 Z M 145.88 137.60 L 146.65 138.20 C 147.36 138.75 148.38 138.62 148.92 137.91 C 149.47 137.21 149.34 136.19 148.64 135.65 L 147.87 135.05 C 147.16 134.50 146.14 134.63 145.60 135.33 C 145.05 136.04 145.18 137.05 145.88 137.60 Z M 146.61 138.16 L 147.39 138.82 C 148.07 139.39 149.09 139.30 149.66 138.62 C 150.24 137.93 150.15 136.91 149.47 136.34 L 148.69 135.68 C 148.00 135.11 146.98 135.20 146.41 135.88 C 145.83 136.57 145.92 137.59 146.61 138.16 Z M 147.36 138.79 L 148.14 139.48 C 148.81 140.07 149.83 140.00 150.42 139.33 C 151.01 138.66 150.94 137.64 150.27 137.05 L 149.49 136.36 C 148.82 135.78 147.80 135.84 147.21 136.51 C 146.62 137.18 146.69 138.20 147.36 138.79 Z M 148.13 139.46 L 148.89 140.15 C 149.55 140.74 150.57 140.69 151.16 140.03 C 151.76 139.37 151.71 138.35 151.05 137.75 L 150.29 137.07 C 149.63 136.47 148.61 136.52 148.01 137.18 C 147.41 137.84 147.46 138.86 148.13 139.46 Z M 148.88 140.13 L 149.60 140.80 C 150.26 141.40 151.27 141.36 151.88 140.71 C 152.48 140.05 152.44 139.04 151.78 138.43 L 151.06 137.77 C 150.40 137.16 149.38 137.21 148.78 137.86 C 148.18 138.51 148.22 139.53 148.88 140.13 Z M 149.59 140.79 L 150.35 141.49 C 150.99 142.10 152.01 142.07 152.61 141.42 C 153.22 140.78 153.19 139.76 152.54 139.15 L 151.79 138.45 C 151.14 137.84 150.13 137.87 149.52 138.52 C 148.92 139.17 148.95 140.18 149.59 140.79 Z M 150.35 141.48 L 151.02 142.12 C 151.66 142.73 152.67 142.70 153.28 142.06 C 153.88 141.42 153.86 140.41 153.22 139.80 L 152.54 139.16 C 151.90 138.56 150.89 138.58 150.28 139.23 C 149.68 139.87 149.71 140.88 150.35 141.48 Z M 151.02 142.11 L 151.74 142.80 C 152.37 143.41 153.38 143.39 153.98 142.75 C 154.59 142.12 154.57 141.12 153.94 140.51 L 153.22 139.82 C 152.59 139.21 151.58 139.23 150.97 139.86 C 150.37 140.49 150.39 141.50 151.02 142.11 Z M 151.71 142.76 L 152.42 143.47 C 153.03 144.10 154.03 144.10 154.65 143.49 C 155.27 142.88 155.28 141.88 154.67 141.26 L 153.96 140.55 C 153.35 139.92 152.35 139.92 151.73 140.53 C 151.11 141.14 151.10 142.14 151.71 142.76 Z M 152.41 143.45 L 153.10 144.18 C 153.70 144.80 154.69 144.82 155.32 144.23 C 155.95 143.63 155.97 142.63 155.37 142.01 L 154.67 141.28 C 154.07 140.65 153.08 140.63 152.45 141.23 C 151.83 141.83 151.81 142.83 152.41 143.45 Z M 153.12 144.19 L 153.82 144.90 C 154.43 145.52 155.41 145.53 156.03 144.92 C 156.65 144.32 156.66 143.33 156.05 142.71 L 155.35 142.00 C 154.74 141.38 153.76 141.37 153.14 141.98 C 152.52 142.58 152.51 143.57 153.12 144.19 Z M 153.84 144.91 L 154.54 145.61 C 155.15 146.22 156.14 146.22 156.74 145.62 C 157.35 145.01 157.35 144.02 156.74 143.42 L 156.04 142.71 C 155.43 142.10 154.44 142.10 153.84 142.71 C 153.23 143.31 153.23 144.30 153.84 144.91 Z M 154.55 145.61 L 155.25 146.32 C 155.85 146.92 156.83 146.93 157.44 146.33 C 158.05 145.72 158.05 144.74 157.45 144.14 L 156.74 143.42 C 156.14 142.82 155.16 142.81 154.55 143.42 C 153.95 144.02 153.94 145.00 154.55 145.61 Z M 155.24 146.30 L 155.93 147.01 C 156.52 147.62 157.50 147.64 158.11 147.05 C 158.72 146.46 158.74 145.48 158.15 144.87 L 157.46 144.16 C 156.87 143.55 155.89 143.53 155.28 144.12 C 154.67 144.71 154.65 145.69 155.24 146.30 Z M 155.93 146.99 L 156.61 147.72 C 157.19 148.33 158.16 148.36 158.78 147.78 C 159.39 147.20 159.42 146.23 158.84 145.61 L 158.15 144.89 C 157.57 144.27 156.60 144.25 155.99 144.83 C 155.37 145.41 155.35 146.38 155.93 146.99 Z M 156.62 147.70 L 157.27 148.40 C 157.84 149.01 158.80 149.04 159.42 148.47 C 160.03 147.89 160.06 146.93 159.48 146.32 L 158.83 145.62 C 158.26 145.01 157.30 144.98 156.68 145.56 C 156.07 146.13 156.04 147.09 156.62 147.70 Z M 157.27 148.38 L 157.96 149.14 C 158.53 149.75 159.48 149.79 160.10 149.23 C 160.71 148.66 160.75 147.71 160.18 147.10 L 159.49 146.34 C 158.92 145.72 157.97 145.68 157.35 146.25 C 156.74 146.81 156.70 147.77 157.27 148.38 Z M 157.96 149.11 L 158.61 149.84 C 159.16 150.46 160.10 150.51 160.72 149.96 C 161.34 149.41 161.39 148.47 160.84 147.85 L 160.19 147.12 C 159.64 146.50 158.69 146.45 158.08 147.00 C 157.46 147.55 157.41 148.50 157.96 149.11 Z M 158.59 149.81 L 159.27 150.60 C 159.80 151.23 160.74 151.31 161.36 150.77 C 161.99 150.24 162.07 149.30 161.53 148.67 L 160.86 147.88 C 160.32 147.25 159.38 147.18 158.76 147.71 C 158.13 148.25 158.06 149.18 158.59 149.81 Z M 159.25 150.57 L 159.87 151.34 C 160.39 151.98 161.32 152.08 161.95 151.57 C 162.59 151.05 162.69 150.12 162.17 149.49 L 161.55 148.71 C 161.04 148.08 160.11 147.98 159.47 148.49 C 158.84 149.00 158.74 149.93 159.25 150.57 Z M 159.87 151.31 L 160.48 152.10 C 160.98 152.74 161.90 152.86 162.54 152.37 C 163.17 151.87 163.29 150.95 162.80 150.31 L 162.18 149.52 C 161.69 148.88 160.77 148.76 160.13 149.26 C 159.49 149.75 159.37 150.67 159.87 151.31 Z M 160.48 152.09 L 160.81 152.51 C 161.30 153.15 162.21 153.27 162.85 152.78 C 163.48 152.30 163.60 151.38 163.12 150.75 L 162.79 150.32 C 162.31 149.69 161.39 149.57 160.76 150.05 C 160.12 150.54 160.00 151.45 160.48 152.09 Z"
      fill="black"
      fill-rule="nonzero" /><path d="M 149.26 127.90 L 148.55 127.10 C 148.00 126.47 147.03 126.41 146.40 126.97 C 145.77 127.53 145.72 128.49 146.28 129.12 L 146.98 129.92 C 147.54 130.55 148.50 130.61 149.13 130.05 C 149.76 129.49 149.82 128.53 149.26 127.90 Z M 146.91 129.58 L 147.54 129.80 C 148.35 130.08 149.24 129.64 149.52 128.83 C 149.80 128.01 149.36 127.13 148.55 126.85 L 147.92 126.63 C 147.11 126.35 146.22 126.79 145.94 127.60 C 145.66 128.42 146.09 129.31 146.91 129.58 Z M 147.20 129.64 L 148.19 130.28 C 148.91 130.74 149.88 130.53 150.35 129.80 C 150.82 129.07 150.61 128.10 149.88 127.64 L 148.89 127.00 C 148.16 126.54 147.19 126.75 146.72 127.48 C 146.26 128.21 146.47 129.18 147.20 129.64 Z M 148.04 130.16 L 148.80 130.79 C 149.47 131.34 150.45 131.24 151.00 130.58 C 151.55 129.91 151.45 128.93 150.79 128.38 L 150.02 127.75 C 149.36 127.20 148.37 127.30 147.83 127.97 C 147.28 128.63 147.37 129.61 148.04 130.16 Z M 148.73 130.71 L 149.44 131.38 C 150.06 131.97 151.04 131.94 151.62 131.32 C 152.21 130.70 152.19 129.72 151.57 129.13 L 150.86 128.46 C 150.24 127.87 149.26 127.90 148.67 128.52 C 148.08 129.14 148.11 130.12 148.73 130.71 Z M 149.41 131.33 L 150.12 132.06 C 150.71 132.66 151.68 132.67 152.29 132.08 C 152.89 131.49 152.90 130.52 152.31 129.91 L 151.60 129.18 C 151.00 128.58 150.03 128.57 149.43 129.16 C 148.82 129.75 148.81 130.72 149.41 131.33 Z M 150.11 132.02 L 150.76 132.72 C 151.34 133.33 152.29 133.36 152.90 132.79 C 153.52 132.21 153.55 131.26 152.97 130.65 L 152.32 129.95 C 151.75 129.34 150.79 129.31 150.18 129.88 C 149.57 130.45 149.54 131.41 150.11 132.02 Z M 150.76 132.69 L 151.45 133.45 C 152.01 134.06 152.95 134.10 153.56 133.55 C 154.17 132.99 154.22 132.05 153.67 131.44 L 152.98 130.68 C 152.42 130.07 151.48 130.02 150.86 130.57 C 150.25 131.13 150.21 132.07 150.76 132.69 Z M 151.45 133.42 L 152.13 134.19 C 152.67 134.80 153.61 134.86 154.22 134.32 C 154.83 133.78 154.89 132.85 154.35 132.24 L 153.66 131.46 C 153.13 130.85 152.19 130.80 151.58 131.33 C 150.97 131.87 150.91 132.81 151.45 133.42 Z M 152.14 134.17 L 152.81 134.94 C 153.33 135.55 154.26 135.62 154.87 135.09 C 155.48 134.56 155.54 133.64 155.01 133.03 L 154.35 132.26 C 153.82 131.65 152.90 131.58 152.29 132.11 C 151.68 132.64 151.61 133.56 152.14 134.17 Z M 152.81 134.92 L 153.46 135.70 C 153.98 136.31 154.89 136.38 155.50 135.87 C 156.11 135.35 156.18 134.44 155.67 133.83 L 155.01 133.05 C 154.50 132.45 153.59 132.37 152.98 132.88 C 152.37 133.40 152.29 134.31 152.81 134.92 Z M 153.46 135.67 L 154.09 136.45 C 154.60 137.06 155.50 137.15 156.11 136.64 C 156.72 136.14 156.81 135.24 156.31 134.62 L 155.67 133.85 C 155.17 133.24 154.27 133.15 153.65 133.66 C 153.04 134.16 152.95 135.06 153.46 135.67 Z M 154.09 136.43 L 154.40 136.81 C 154.89 137.42 155.79 137.52 156.40 137.02 C 157.02 136.52 157.11 135.63 156.61 135.01 L 156.31 134.64 C 155.81 134.02 154.91 133.93 154.30 134.42 C 153.69 134.92 153.59 135.82 154.09 136.43 Z"
      fill="black"
      fill-rule="nonzero" /><path d="M 135.25 142.66 L 136.17 142.60 C 137.02 142.54 137.65 141.80 137.59 140.96 C 137.53 140.11 136.80 139.48 135.95 139.54 L 135.03 139.60 C 134.18 139.66 133.54 140.40 133.61 141.24 C 133.67 142.09 134.40 142.72 135.25 142.66 Z M 135.79 142.61 L 136.80 142.79 C 137.66 142.94 138.47 142.37 138.62 141.52 C 138.77 140.66 138.20 139.85 137.34 139.70 L 136.33 139.52 C 135.48 139.37 134.67 139.94 134.52 140.79 C 134.37 141.65 134.94 142.46 135.79 142.61 Z M 136.49 142.71 L 137.38 143.06 C 138.18 143.38 139.10 142.98 139.42 142.17 C 139.74 141.36 139.34 140.45 138.54 140.13 L 137.65 139.78 C 136.84 139.46 135.93 139.86 135.61 140.66 C 135.29 141.47 135.68 142.39 136.49 142.71 Z M 137.28 142.99 L 138.23 143.45 C 139.00 143.83 139.93 143.51 140.30 142.74 C 140.68 141.96 140.36 141.03 139.59 140.66 L 138.64 140.19 C 137.86 139.82 136.93 140.14 136.56 140.91 C 136.18 141.69 136.50 142.62 137.28 142.99 Z M 138.21 143.42 L 139.12 143.89 C 139.87 144.27 140.79 143.97 141.18 143.22 C 141.56 142.47 141.27 141.54 140.51 141.16 L 139.60 140.69 C 138.85 140.31 137.93 140.60 137.54 141.36 C 137.16 142.11 137.45 143.03 138.21 143.42 Z M 139.14 143.86 L 140.02 144.31 C 140.76 144.69 141.66 144.39 142.04 143.65 C 142.41 142.90 142.12 142.00 141.38 141.62 L 140.49 141.18 C 139.75 140.80 138.85 141.10 138.47 141.84 C 138.10 142.58 138.39 143.49 139.14 143.86 Z M 140.05 144.30 L 140.96 144.74 C 141.70 145.09 142.58 144.79 142.93 144.05 C 143.29 143.32 142.98 142.44 142.25 142.08 L 141.34 141.64 C 140.61 141.28 139.72 141.59 139.37 142.32 C 139.01 143.06 139.32 143.94 140.05 144.30 Z M 141.00 144.73 L 141.90 145.14 C 142.63 145.47 143.49 145.15 143.83 144.42 C 144.16 143.69 143.84 142.83 143.10 142.49 L 142.21 142.08 C 141.48 141.75 140.62 142.07 140.28 142.81 C 139.95 143.54 140.27 144.40 141.00 144.73 Z M 141.93 145.14 L 142.84 145.54 C 143.57 145.86 144.42 145.52 144.74 144.79 C 145.06 144.06 144.72 143.21 143.99 142.89 L 143.08 142.49 C 142.34 142.17 141.49 142.51 141.18 143.24 C 140.86 143.97 141.19 144.82 141.93 145.14 Z M 142.86 145.54 L 143.80 145.93 C 144.53 146.24 145.37 145.90 145.68 145.17 C 145.99 144.44 145.64 143.60 144.91 143.29 L 143.97 142.89 C 143.24 142.58 142.40 142.92 142.09 143.65 C 141.79 144.38 142.13 145.23 142.86 145.54 Z M 143.80 145.93 L 144.14 146.07 C 144.87 146.38 145.71 146.03 146.01 145.30 C 146.32 144.58 145.98 143.74 145.25 143.43 L 144.91 143.29 C 144.18 142.99 143.34 143.33 143.04 144.06 C 142.73 144.79 143.07 145.62 143.80 145.93 Z"
      fill="black"
      fill-rule="nonzero" /><path d="M 162.23 134.02 L 162.16 134.96 C 162.10 135.83 162.76 136.58 163.63 136.64 C 164.49 136.71 165.25 136.05 165.31 135.18 L 165.37 134.24 C 165.43 133.37 164.78 132.62 163.91 132.56 C 163.04 132.50 162.29 133.15 162.23 134.02 Z M 162.16 135.01 L 162.12 136.04 C 162.08 136.91 162.76 137.64 163.63 137.68 C 164.50 137.72 165.23 137.04 165.27 136.17 L 165.31 135.14 C 165.35 134.27 164.67 133.53 163.80 133.50 C 162.93 133.46 162.20 134.14 162.16 135.01 Z M 162.15 136.08 L 162.14 137.05 C 162.13 137.90 162.81 138.60 163.66 138.61 C 164.51 138.62 165.21 137.94 165.22 137.09 L 165.23 136.13 C 165.24 135.28 164.56 134.58 163.71 134.56 C 162.86 134.55 162.16 135.23 162.15 136.08 Z M 162.20 137.07 L 162.20 138.11 C 162.20 138.93 162.86 139.59 163.67 139.59 C 164.49 139.59 165.15 138.93 165.15 138.12 L 165.15 137.08 C 165.15 136.26 164.50 135.60 163.68 135.60 C 162.87 135.60 162.21 136.26 162.20 137.07 Z M 162.24 138.12 L 162.24 138.29 C 162.24 139.08 162.88 139.72 163.68 139.72 C 164.47 139.72 165.11 139.08 165.11 138.29 L 165.11 138.12 C 165.11 137.32 164.47 136.68 163.68 136.68 C 162.88 136.68 162.24 137.32 162.24 138.12 Z"
      fill="black"
      fill-rule="nonzero" /><path d="M 149.16 146.63 L 149.71 147.34 C 150.23 148.01 151.20 148.13 151.86 147.60 C 152.53 147.08 152.65 146.12 152.12 145.45 L 151.57 144.74 C 151.05 144.08 150.08 143.96 149.42 144.48 C 148.75 145.00 148.63 145.97 149.16 146.63 Z M 149.77 147.47 L 150.52 148.26 C 151.11 148.89 152.10 148.93 152.73 148.33 C 153.36 147.74 153.40 146.75 152.81 146.12 L 152.06 145.33 C 151.47 144.69 150.48 144.66 149.85 145.25 C 149.22 145.84 149.18 146.84 149.77 147.47 Z M 150.61 148.34 L 151.33 149.01 C 151.96 149.59 152.95 149.55 153.54 148.91 C 154.12 148.27 154.08 147.28 153.44 146.70 L 152.72 146.04 C 152.08 145.46 151.09 145.50 150.51 146.13 C 149.93 146.77 149.97 147.76 150.61 148.34 Z M 151.39 149.02 L 152.18 149.69 C 152.82 150.24 153.79 150.17 154.34 149.53 C 154.89 148.88 154.81 147.92 154.17 147.37 L 153.38 146.69 C 152.74 146.14 151.77 146.21 151.22 146.86 C 150.67 147.50 150.75 148.47 151.39 149.02 Z M 152.22 149.69 L 153.03 150.35 C 153.66 150.88 154.61 150.79 155.14 150.15 C 155.66 149.51 155.57 148.56 154.93 148.04 L 154.13 147.37 C 153.49 146.85 152.54 146.94 152.02 147.58 C 151.49 148.22 151.58 149.16 152.22 149.69 Z M 153.06 150.34 L 153.86 150.98 C 154.49 151.48 155.41 151.38 155.92 150.75 C 156.43 150.12 156.33 149.19 155.69 148.69 L 154.90 148.05 C 154.26 147.54 153.34 147.64 152.83 148.27 C 152.33 148.91 152.43 149.83 153.06 150.34 Z M 153.88 150.96 L 154.48 151.43 C 155.10 151.92 156.01 151.82 156.50 151.19 C 156.99 150.56 156.89 149.66 156.26 149.16 L 155.67 148.70 C 155.04 148.21 154.14 148.31 153.64 148.94 C 153.15 149.57 153.26 150.47 153.88 150.96 Z"
      fill="black"
      fill-rule="nonzero" /><path d="M 133.44 134.13 L 133.03 135.03 C 132.66 135.82 133.00 136.76 133.79 137.12 C 134.58 137.49 135.52 137.15 135.88 136.36 L 136.30 135.46 C 136.67 134.67 136.33 133.73 135.54 133.37 C 134.75 133.00 133.81 133.34 133.44 134.13 Z M 132.91 135.40 L 132.74 136.29 C 132.57 137.15 133.13 137.98 133.99 138.14 C 134.84 138.30 135.67 137.74 135.83 136.88 L 136.00 135.99 C 136.17 135.13 135.60 134.31 134.75 134.15 C 133.89 133.98 133.07 134.54 132.91 135.40 Z M 132.71 136.68 L 132.76 137.61 C 132.81 138.48 133.55 139.14 134.42 139.09 C 135.29 139.05 135.96 138.30 135.91 137.43 L 135.86 136.50 C 135.81 135.63 135.07 134.97 134.20 135.02 C 133.33 135.06 132.66 135.81 132.71 136.68 Z M 132.77 137.70 L 132.89 138.80 C 132.99 139.67 133.77 140.29 134.63 140.19 C 135.50 140.10 136.12 139.32 136.02 138.45 L 135.90 137.35 C 135.80 136.48 135.02 135.86 134.16 135.96 C 133.30 136.05 132.67 136.83 132.77 137.70 Z M 132.89 138.79 L 132.99 139.74 C 133.08 140.60 133.86 141.23 134.72 141.14 C 135.58 141.05 136.21 140.28 136.12 139.41 L 136.02 138.47 C 135.93 137.60 135.16 136.97 134.30 137.06 C 133.43 137.15 132.80 137.93 132.89 138.79 Z M 132.99 139.72 L 133.09 140.75 C 133.17 141.62 133.94 142.25 134.80 142.17 C 135.67 142.09 136.30 141.32 136.22 140.46 L 136.12 139.43 C 136.04 138.56 135.27 137.93 134.41 138.01 C 133.55 138.09 132.91 138.86 132.99 139.72 Z M 133.09 140.74 L 133.18 141.78 C 133.25 142.65 134.01 143.29 134.87 143.22 C 135.74 143.14 136.38 142.38 136.31 141.52 L 136.22 140.48 C 136.15 139.61 135.39 138.97 134.52 139.04 C 133.66 139.11 133.02 139.87 133.09 140.74 Z M 133.18 141.76 L 133.25 142.82 C 133.31 143.69 134.06 144.34 134.92 144.28 C 135.79 144.22 136.44 143.47 136.38 142.61 L 136.31 141.54 C 136.25 140.68 135.50 140.03 134.63 140.09 C 133.77 140.15 133.12 140.89 133.18 141.76 Z M 133.25 142.80 L 133.30 143.81 C 133.35 144.67 134.09 145.33 134.95 145.29 C 135.81 145.24 136.48 144.51 136.43 143.64 L 136.38 142.63 C 136.33 141.77 135.60 141.10 134.73 141.15 C 133.87 141.19 133.20 141.93 133.25 142.80 Z M 133.30 143.78 L 133.34 144.74 C 133.37 145.60 134.10 146.28 134.96 146.24 C 135.82 146.21 136.50 145.49 136.47 144.62 L 136.43 143.67 C 136.40 142.80 135.68 142.13 134.81 142.16 C 133.95 142.19 133.27 142.92 133.30 143.78 Z M 133.34 144.71 L 133.36 145.72 C 133.38 146.58 134.09 147.27 134.96 147.25 C 135.82 147.23 136.51 146.51 136.49 145.65 L 136.47 144.65 C 136.45 143.78 135.73 143.10 134.87 143.11 C 134.01 143.13 133.32 143.85 133.34 144.71 Z M 133.36 145.70 L 133.37 146.71 C 133.38 147.57 134.08 148.27 134.95 148.26 C 135.81 148.25 136.51 147.55 136.50 146.68 L 136.49 145.67 C 136.48 144.80 135.77 144.11 134.91 144.12 C 134.05 144.12 133.35 144.83 133.36 145.70 Z M 133.37 146.70 L 133.37 147.66 C 133.37 148.53 134.07 149.23 134.94 149.23 C 135.80 149.22 136.50 148.52 136.50 147.66 L 136.50 146.69 C 136.50 145.83 135.80 145.13 134.93 145.13 C 134.07 145.13 133.37 145.83 133.37 146.70 Z M 133.37 147.66 L 133.37 148.69 C 133.37 149.56 134.07 150.26 134.93 150.26 C 135.80 150.26 136.50 149.56 136.50 148.70 L 136.50 147.66 C 136.50 146.80 135.80 146.10 134.94 146.09 C 134.07 146.09 133.37 146.79 133.37 147.66 Z M 133.37 148.67 L 133.35 149.66 C 133.34 150.52 134.03 151.24 134.90 151.25 C 135.76 151.26 136.47 150.57 136.49 149.70 L 136.50 148.72 C 136.51 147.85 135.82 147.14 134.96 147.13 C 134.09 147.11 133.38 147.81 133.37 148.67 Z M 133.35 149.61 L 133.31 150.61 C 133.27 151.48 133.94 152.21 134.80 152.25 C 135.67 152.29 136.40 151.62 136.44 150.76 L 136.49 149.75 C 136.53 148.89 135.86 148.16 134.99 148.12 C 134.13 148.08 133.39 148.75 133.35 149.61 Z M 133.31 150.54 L 133.22 151.54 C 133.13 152.40 133.76 153.17 134.63 153.25 C 135.49 153.33 136.25 152.70 136.34 151.84 L 136.43 150.84 C 136.52 149.98 135.89 149.21 135.02 149.13 C 134.16 149.04 133.40 149.67 133.31 150.54 Z M 133.23 151.44 L 133.06 152.50 C 132.92 153.36 133.51 154.16 134.36 154.30 C 135.22 154.43 136.02 153.85 136.16 153.00 L 136.33 151.94 C 136.46 151.08 135.88 150.28 135.02 150.14 C 134.17 150.00 133.36 150.59 133.23 151.44 Z M 133.12 153.25 L 133.34 153.91 C 133.62 154.73 134.51 155.17 135.33 154.90 C 136.15 154.62 136.59 153.73 136.32 152.91 L 136.09 152.25 C 135.82 151.43 134.93 150.99 134.11 151.26 C 133.29 151.54 132.85 152.43 133.12 153.25 Z M 135.00 154.97 L 135.85 154.88 C 136.71 154.79 137.34 154.01 137.24 153.15 C 137.15 152.28 136.37 151.66 135.51 151.75 L 134.66 151.85 C 133.80 151.94 133.17 152.71 133.27 153.58 C 133.36 154.44 134.14 155.07 135.00 154.97 Z M 136.00 154.86 L 137.17 154.62 C 138.02 154.45 138.57 153.61 138.39 152.76 C 138.22 151.90 137.38 151.35 136.53 151.53 L 135.36 151.77 C 134.51 151.95 133.96 152.78 134.13 153.64 C 134.31 154.49 135.15 155.04 136.00 154.86 Z M 137.07 154.64 L 138.09 154.50 C 138.95 154.37 139.55 153.57 139.43 152.70 C 139.31 151.84 138.50 151.24 137.64 151.36 L 136.62 151.51 C 135.76 151.63 135.16 152.43 135.28 153.30 C 135.40 154.17 136.21 154.77 137.07 154.64 Z M 138.02 154.51 L 139.02 154.41 C 139.90 154.32 140.53 153.54 140.45 152.67 C 140.36 151.80 139.58 151.16 138.71 151.25 L 137.70 151.35 C 136.83 151.44 136.20 152.22 136.28 153.09 C 136.37 153.96 137.15 154.60 138.02 154.51 Z M 138.96 154.42 L 140.00 154.35 C 140.88 154.30 141.54 153.55 141.49 152.67 C 141.44 151.79 140.68 151.12 139.80 151.18 L 138.77 151.24 C 137.89 151.30 137.23 152.05 137.28 152.93 C 137.33 153.80 138.09 154.47 138.96 154.42 Z M 139.94 154.36 L 140.91 154.33 C 141.79 154.31 142.48 153.58 142.46 152.70 C 142.44 151.82 141.71 151.13 140.83 151.15 L 139.86 151.18 C 138.98 151.20 138.29 151.93 138.31 152.81 C 138.33 153.68 139.06 154.38 139.94 154.36 Z M 140.90 154.33 L 141.83 154.31 C 142.71 154.30 143.41 153.57 143.39 152.69 C 143.38 151.81 142.65 151.12 141.77 151.13 L 140.84 151.15 C 139.96 151.17 139.26 151.89 139.28 152.77 C 139.30 153.65 140.02 154.35 140.90 154.33 Z M 141.84 154.31 L 142.84 154.29 C 143.72 154.27 144.41 153.54 144.39 152.66 C 144.37 151.78 143.64 151.08 142.76 151.11 L 141.76 151.13 C 140.88 151.15 140.19 151.89 140.21 152.76 C 140.24 153.64 140.97 154.34 141.84 154.31 Z M 142.83 154.29 L 143.83 154.27 C 144.71 154.26 145.41 153.53 145.40 152.65 C 145.38 151.78 144.66 151.08 143.78 151.09 L 142.77 151.11 C 141.89 151.12 141.19 151.85 141.21 152.73 C 141.22 153.60 141.95 154.30 142.83 154.29 Z M 143.82 154.27 L 144.80 154.26 C 145.68 154.25 146.39 153.53 146.38 152.66 C 146.37 151.78 145.65 151.07 144.77 151.08 L 143.79 151.09 C 142.91 151.10 142.21 151.82 142.21 152.70 C 142.22 153.57 142.94 154.28 143.82 154.27 Z M 144.81 154.26 L 145.86 154.24 C 146.74 154.23 147.44 153.51 147.42 152.63 C 147.41 151.75 146.68 151.05 145.81 151.07 L 144.76 151.08 C 143.88 151.10 143.18 151.82 143.20 152.70 C 143.21 153.57 143.94 154.27 144.81 154.26 Z M 145.88 154.24 L 146.86 154.21 C 147.73 154.19 148.42 153.46 148.40 152.58 C 148.37 151.70 147.64 151.01 146.76 151.04 L 145.79 151.07 C 144.91 151.09 144.22 151.82 144.25 152.70 C 144.27 153.58 145.00 154.27 145.88 154.24 Z M 146.86 154.21 L 147.87 154.18 C 148.75 154.15 149.43 153.42 149.40 152.54 C 149.37 151.66 148.64 150.98 147.76 151.00 L 146.76 151.04 C 145.88 151.07 145.19 151.80 145.22 152.68 C 145.25 153.56 145.99 154.24 146.86 154.21 Z M 147.86 154.18 L 148.87 154.15 C 149.75 154.13 150.44 153.40 150.42 152.52 C 150.40 151.65 149.67 150.96 148.79 150.98 L 147.77 151.00 C 146.90 151.03 146.21 151.76 146.23 152.63 C 146.25 153.51 146.98 154.20 147.86 154.18 Z M 148.85 154.15 L 149.85 154.14 C 150.73 154.13 151.43 153.41 151.42 152.53 C 151.40 151.65 150.68 150.95 149.81 150.97 L 148.81 150.98 C 147.93 150.99 147.23 151.71 147.25 152.59 C 147.26 153.46 147.98 154.16 148.85 154.15 Z M 149.84 154.13 L 150.84 154.13 C 151.72 154.12 152.42 153.40 152.41 152.53 C 152.41 151.66 151.69 150.95 150.82 150.96 L 149.82 150.97 C 148.94 150.98 148.24 151.69 148.25 152.57 C 148.25 153.44 148.97 154.14 149.84 154.13 Z M 150.85 154.12 L 151.87 154.11 C 152.75 154.10 153.45 153.39 153.44 152.51 C 153.43 151.64 152.71 150.94 151.84 150.95 L 150.81 150.96 C 149.94 150.97 149.24 151.69 149.25 152.56 C 149.26 153.43 149.98 154.13 150.85 154.12 Z M 151.88 154.11 L 152.94 154.09 C 153.81 154.07 154.50 153.35 154.49 152.48 C 154.47 151.61 153.75 150.92 152.88 150.93 L 151.83 150.95 C 150.95 150.97 150.26 151.69 150.28 152.56 C 150.29 153.43 151.01 154.13 151.88 154.11 Z M 152.95 154.09 L 153.92 154.07 C 154.79 154.04 155.48 153.32 155.46 152.45 C 155.44 151.58 154.71 150.89 153.84 150.91 L 152.87 150.94 C 152.00 150.96 151.31 151.68 151.33 152.55 C 151.35 153.42 152.08 154.11 152.95 154.09 Z M 153.93 154.06 L 154.90 154.04 C 155.77 154.01 156.46 153.29 156.43 152.42 C 156.41 151.55 155.68 150.86 154.81 150.89 L 153.84 150.91 C 152.97 150.94 152.28 151.66 152.31 152.53 C 152.33 153.40 153.06 154.09 153.93 154.06 Z M 154.90 154.03 L 155.87 154.01 C 156.74 153.98 157.42 153.25 157.39 152.39 C 157.37 151.52 156.64 150.83 155.77 150.86 L 154.81 150.89 C 153.94 150.91 153.26 151.64 153.28 152.51 C 153.31 153.38 154.03 154.06 154.90 154.03 Z M 155.86 154.00 L 156.80 153.98 C 157.67 153.95 158.36 153.23 158.33 152.36 C 158.31 151.49 157.58 150.81 156.71 150.83 L 155.77 150.86 C 154.91 150.89 154.22 151.61 154.25 152.48 C 154.27 153.35 155.00 154.03 155.86 154.00 Z M 156.80 153.97 L 157.77 153.95 C 158.64 153.92 159.32 153.20 159.30 152.34 C 159.28 151.47 158.56 150.79 157.69 150.81 L 156.72 150.84 C 155.85 150.86 155.17 151.58 155.19 152.45 C 155.21 153.31 155.94 154.00 156.80 153.97 Z M 157.77 153.94 L 158.85 153.92 C 159.72 153.90 160.40 153.18 160.38 152.31 C 160.36 151.45 159.64 150.77 158.78 150.79 L 157.69 150.82 C 156.83 150.84 156.15 151.56 156.17 152.42 C 156.19 153.28 156.91 153.96 157.77 153.94 Z M 158.86 153.91 L 159.89 153.89 C 160.76 153.86 161.44 153.15 161.41 152.29 C 161.39 151.42 160.67 150.74 159.81 150.77 L 158.77 150.79 C 157.91 150.82 157.23 151.53 157.26 152.39 C 157.28 153.26 158.00 153.94 158.86 153.91 Z M 159.93 153.88 L 160.95 153.83 C 161.81 153.79 162.47 153.06 162.43 152.20 C 162.39 151.34 161.66 150.68 160.80 150.72 L 159.78 150.77 C 158.92 150.81 158.26 151.54 158.30 152.40 C 158.34 153.26 159.07 153.92 159.93 153.88 Z M 161.04 153.82 L 162.00 153.72 C 162.85 153.63 163.47 152.87 163.38 152.02 C 163.29 151.16 162.53 150.54 161.67 150.63 L 160.72 150.73 C 159.86 150.82 159.24 151.58 159.33 152.44 C 159.42 153.29 160.18 153.91 161.04 153.82 Z M 162.16 153.69 L 163.19 153.47 C 164.03 153.29 164.56 152.47 164.38 151.63 C 164.20 150.79 163.38 150.26 162.54 150.44 L 161.51 150.66 C 160.67 150.84 160.14 151.66 160.32 152.50 C 160.50 153.34 161.32 153.87 162.16 153.69 Z M 163.36 153.42 L 164.27 153.12 C 165.08 152.84 165.52 151.97 165.25 151.16 C 164.98 150.34 164.10 149.91 163.29 150.18 L 162.37 150.49 C 161.56 150.76 161.12 151.64 161.39 152.45 C 161.67 153.26 162.54 153.70 163.36 153.42 Z M 164.34 153.09 L 164.76 152.93 C 165.55 152.62 165.95 151.73 165.65 150.93 C 165.34 150.13 164.44 149.73 163.65 150.04 L 163.23 150.20 C 162.43 150.51 162.03 151.40 162.34 152.20 C 162.64 153.00 163.54 153.40 164.34 153.09 Z"
      fill="black"
      fill-rule="nonzero" /><path d="M 168.55 129.58 L 167.85 128.87 C 167.27 128.29 166.32 128.28 165.73 128.86 C 165.15 129.44 165.14 130.39 165.73 130.98 L 166.43 131.69 C 167.01 132.27 167.96 132.28 168.54 131.70 C 169.13 131.12 169.13 130.17 168.55 129.58 Z M 165.32 129.46 L 165.12 130.10 C 164.86 130.91 165.32 131.77 166.13 132.03 C 166.94 132.28 167.81 131.83 168.06 131.02 L 168.26 130.38 C 168.51 129.57 168.06 128.71 167.25 128.45 C 166.43 128.20 165.57 128.65 165.32 129.46 Z M 165.03 130.56 L 165.03 131.79 C 165.03 132.65 165.73 133.35 166.60 133.35 C 167.46 133.34 168.16 132.64 168.15 131.78 L 168.15 130.55 C 168.15 129.69 167.45 128.99 166.59 128.99 C 165.72 129.00 165.03 129.70 165.03 130.56 Z M 165.02 131.84 L 165.06 132.88 C 165.10 133.75 165.83 134.42 166.69 134.39 C 167.56 134.36 168.24 133.63 168.20 132.76 L 168.16 131.72 C 168.13 130.85 167.40 130.18 166.53 130.21 C 165.66 130.25 164.99 130.98 165.02 131.84 Z M 165.06 132.89 L 165.11 133.88 C 165.15 134.75 165.89 135.42 166.76 135.38 C 167.62 135.33 168.30 134.60 168.25 133.73 L 168.21 132.74 C 168.16 131.87 167.43 131.20 166.56 131.25 C 165.69 131.29 165.02 132.03 165.06 132.89 Z M 165.10 133.87 L 165.15 134.90 C 165.19 135.77 165.93 136.44 166.80 136.40 C 167.67 136.36 168.34 135.63 168.30 134.76 L 168.26 133.73 C 168.22 132.86 167.48 132.19 166.61 132.23 C 165.74 132.27 165.06 133.00 165.10 133.87 Z M 165.15 134.87 L 165.17 135.83 C 165.20 136.70 165.93 137.39 166.80 137.36 C 167.68 137.33 168.36 136.60 168.34 135.73 L 168.31 134.78 C 168.28 133.91 167.55 133.22 166.68 133.25 C 165.81 133.27 165.12 134.00 165.15 134.87 Z M 165.17 135.80 L 165.18 136.78 C 165.19 137.66 165.91 138.36 166.78 138.35 C 167.66 138.34 168.36 137.63 168.35 136.75 L 168.34 135.76 C 168.33 134.89 167.61 134.19 166.74 134.20 C 165.86 134.21 165.16 134.92 165.17 135.80 Z M 165.18 136.77 L 165.18 137.78 C 165.18 138.66 165.89 139.36 166.77 139.36 C 167.64 139.36 168.35 138.65 168.35 137.78 L 168.35 136.77 C 168.35 135.89 167.64 135.18 166.76 135.18 C 165.89 135.18 165.18 135.89 165.18 136.77 Z M 165.18 137.78 L 165.18 138.78 C 165.18 139.65 165.89 140.36 166.77 140.36 C 167.64 140.36 168.35 139.65 168.35 138.78 L 168.35 137.78 C 168.35 136.90 167.64 136.19 166.77 136.19 C 165.89 136.19 165.18 136.90 165.18 137.78 Z M 165.19 138.78 L 165.19 139.77 C 165.19 140.64 165.89 141.35 166.77 141.35 C 167.64 141.35 168.35 140.64 168.35 139.77 L 168.35 138.78 C 168.35 137.90 167.64 137.20 166.77 137.20 C 165.89 137.20 165.19 137.90 165.19 138.78 Z M 165.19 139.77 L 165.19 140.77 C 165.19 141.64 165.90 142.35 166.77 142.35 C 167.64 142.35 168.34 141.64 168.34 140.77 L 168.34 139.77 C 168.34 138.90 167.64 138.19 166.77 138.19 C 165.90 138.19 165.19 138.90 165.19 139.77 Z M 165.19 140.77 L 165.19 141.78 C 165.19 142.65 165.90 143.35 166.77 143.35 C 167.63 143.35 168.34 142.65 168.34 141.78 L 168.34 140.77 C 168.34 139.90 167.63 139.20 166.77 139.20 C 165.90 139.20 165.19 139.90 165.19 140.77 Z M 165.20 141.78 L 165.20 142.78 C 165.20 143.64 165.90 144.35 166.77 144.35 C 167.63 144.35 168.33 143.64 168.33 142.78 L 168.33 141.78 C 168.33 140.91 167.63 140.21 166.77 140.21 C 165.90 140.21 165.20 140.91 165.20 141.78 Z M 165.21 142.78 L 165.21 143.79 C 165.21 144.65 165.91 145.34 166.77 145.34 C 167.63 145.34 168.33 144.65 168.33 143.79 L 168.33 142.78 C 168.33 141.92 167.63 141.22 166.77 141.22 C 165.91 141.22 165.21 141.92 165.21 142.78 Z M 165.22 143.79 L 165.22 144.78 C 165.22 145.63 165.91 146.33 166.77 146.33 C 167.62 146.33 168.32 145.63 168.32 144.78 L 168.32 143.79 C 168.32 142.93 167.62 142.23 166.77 142.23 C 165.91 142.23 165.22 142.93 165.22 143.79 Z M 165.22 144.78 L 165.22 145.77 C 165.22 146.62 165.91 147.32 166.77 147.32 C 167.62 147.32 168.31 146.62 168.31 145.77 L 168.31 144.78 C 168.31 143.93 167.62 143.23 166.77 143.23 C 165.91 143.23 165.22 143.93 165.22 144.78 Z M 165.23 145.77 L 165.23 146.76 C 165.23 147.61 165.92 148.30 166.77 148.30 C 167.61 148.30 168.30 147.61 168.30 146.76 L 168.30 145.77 C 168.30 144.92 167.61 144.24 166.77 144.24 C 165.92 144.24 165.23 144.92 165.23 145.77 Z M 165.24 146.75 L 165.23 147.72 C 165.23 148.56 165.91 149.25 166.75 149.26 C 167.60 149.26 168.28 148.58 168.29 147.74 L 168.29 146.77 C 168.30 145.92 167.62 145.24 166.77 145.23 C 165.93 145.23 165.24 145.91 165.24 146.75 Z M 165.24 147.69 L 165.22 148.71 C 165.20 149.55 165.86 150.24 166.70 150.26 C 167.54 150.28 168.24 149.62 168.26 148.78 L 168.28 147.76 C 168.30 146.92 167.63 146.23 166.80 146.21 C 165.96 146.19 165.26 146.85 165.24 147.69 Z M 165.23 148.69 L 165.19 149.64 C 165.16 150.47 165.81 151.17 166.65 151.20 C 167.48 151.23 168.18 150.58 168.21 149.75 L 168.25 148.80 C 168.28 147.97 167.63 147.26 166.79 147.23 C 165.96 147.20 165.26 147.85 165.23 148.69 Z M 165.20 149.64 L 165.17 150.70 C 165.14 151.53 165.79 152.22 166.62 152.25 C 167.45 152.28 168.14 151.63 168.17 150.80 L 168.20 149.74 C 168.23 148.91 167.58 148.22 166.75 148.19 C 165.92 148.16 165.23 148.82 165.20 149.64 Z M 165.18 150.72 L 165.16 151.71 C 165.14 152.54 165.80 153.22 166.62 153.23 C 167.45 153.25 168.13 152.59 168.14 151.77 L 168.16 150.78 C 168.18 149.95 167.52 149.27 166.70 149.26 C 165.87 149.24 165.19 149.90 165.18 150.72 Z M 165.17 151.73 L 165.16 152.73 C 165.16 153.54 165.81 154.21 166.63 154.22 C 167.45 154.22 168.12 153.56 168.12 152.75 L 168.13 151.75 C 168.14 150.93 167.48 150.26 166.66 150.26 C 165.84 150.25 165.18 150.91 165.17 151.73 Z M 165.18 152.73 L 165.17 153.76 C 165.17 154.57 165.83 155.23 166.64 155.23 C 167.45 155.23 168.11 154.58 168.11 153.77 L 168.11 152.74 C 168.11 151.93 167.46 151.27 166.64 151.27 C 165.83 151.27 165.18 151.92 165.18 152.73 Z M 165.18 153.76 L 165.18 154.06 C 165.18 154.87 165.84 155.52 166.64 155.52 C 167.45 155.52 168.10 154.87 168.10 154.06 L 168.10 153.76 C 168.10 152.96 167.45 152.31 166.64 152.31 C 165.84 152.31 165.18 152.96 165.18 153.76 Z"
      fill="black"
      fill-rule="nonzero" /><path d="M 147.29 158.61 L 146.20 159.26 C 145.50 159.68 145.27 160.59 145.69 161.29 C 146.11 161.99 147.02 162.22 147.72 161.80 L 148.81 161.14 C 149.51 160.72 149.73 159.82 149.31 159.12 C 148.90 158.42 147.99 158.19 147.29 158.61 Z M 145.59 159.82 L 145.39 160.19 C 145.00 160.95 145.29 161.88 146.05 162.27 C 146.80 162.67 147.74 162.37 148.13 161.62 L 148.32 161.24 C 148.72 160.49 148.42 159.56 147.67 159.16 C 146.91 158.77 145.98 159.06 145.59 159.82 Z M 146.72 162.48 L 147.55 162.50 C 148.42 162.53 149.15 161.84 149.17 160.97 C 149.19 160.10 148.51 159.37 147.64 159.35 L 146.80 159.33 C 145.93 159.31 145.21 159.99 145.18 160.86 C 145.16 161.74 145.85 162.46 146.72 162.48 Z M 147.74 162.51 L 149.01 162.39 C 149.88 162.32 150.52 161.55 150.44 160.67 C 150.37 159.80 149.60 159.16 148.73 159.24 L 147.45 159.35 C 146.58 159.43 145.94 160.20 146.02 161.07 C 146.09 161.94 146.86 162.58 147.74 162.51 Z M 149.01 162.40 L 150.08 162.30 C 150.95 162.22 151.60 161.45 151.52 160.58 C 151.45 159.71 150.67 159.06 149.80 159.14 L 148.73 159.23 C 147.85 159.31 147.21 160.08 147.28 160.95 C 147.36 161.83 148.13 162.47 149.01 162.40 Z M 150.06 162.30 L 151.03 162.23 C 151.90 162.16 152.56 161.40 152.49 160.53 C 152.43 159.66 151.67 159.00 150.79 159.07 L 149.82 159.14 C 148.95 159.20 148.29 159.96 148.36 160.84 C 148.42 161.71 149.18 162.37 150.06 162.30 Z M 151.00 162.22 L 151.99 162.17 C 152.86 162.12 153.52 161.37 153.47 160.50 C 153.42 159.63 152.68 158.97 151.81 159.02 L 150.82 159.07 C 149.95 159.12 149.29 159.87 149.34 160.74 C 149.39 161.61 150.13 162.27 151.00 162.22 Z M 151.97 162.15 L 152.95 162.10 C 153.81 162.06 154.47 161.33 154.43 160.47 C 154.39 159.61 153.66 158.95 152.80 158.99 L 151.83 159.04 C 150.97 159.08 150.30 159.80 150.34 160.66 C 150.38 161.52 151.11 162.19 151.97 162.15 Z M 152.97 162.07 L 153.95 162.01 C 154.80 161.96 155.44 161.24 155.39 160.39 C 155.34 159.55 154.61 158.91 153.77 158.96 L 152.78 159.02 C 151.94 159.07 151.29 159.79 151.35 160.64 C 151.40 161.48 152.12 162.12 152.97 162.07 Z M 153.98 161.99 L 154.97 161.91 C 155.80 161.85 156.42 161.12 156.35 160.29 C 156.29 159.46 155.56 158.84 154.73 158.90 L 153.74 158.98 C 152.91 159.05 152.29 159.77 152.35 160.60 C 152.42 161.43 153.15 162.05 153.98 161.99 Z M 154.99 161.89 L 155.92 161.80 C 156.74 161.73 157.34 161.00 157.27 160.19 C 157.19 159.37 156.47 158.77 155.65 158.84 L 154.71 158.93 C 153.90 159.00 153.29 159.73 153.37 160.54 C 153.44 161.36 154.17 161.96 154.99 161.89 Z M 156.01 161.77 L 157.02 161.62 C 157.82 161.50 158.38 160.75 158.26 159.95 C 158.14 159.15 157.39 158.60 156.59 158.72 L 155.57 158.87 C 154.77 158.99 154.22 159.74 154.34 160.54 C 154.46 161.34 155.21 161.89 156.01 161.77 Z M 157.10 161.59 L 158.03 161.40 C 158.82 161.24 159.32 160.47 159.16 159.69 C 159.00 158.90 158.23 158.40 157.45 158.56 L 156.52 158.75 C 155.73 158.91 155.23 159.68 155.39 160.46 C 155.55 161.24 156.31 161.75 157.10 161.59 Z M 158.06 161.38 L 159.08 161.15 C 159.86 160.98 160.34 160.20 160.17 159.43 C 159.99 158.65 159.22 158.17 158.45 158.34 L 157.42 158.57 C 156.65 158.75 156.16 159.52 156.34 160.30 C 156.51 161.07 157.28 161.56 158.06 161.38 Z M 159.09 161.14 L 159.38 161.07 C 160.15 160.90 160.63 160.13 160.46 159.36 C 160.28 158.58 159.51 158.10 158.74 158.28 L 158.44 158.35 C 157.67 158.53 157.19 159.30 157.37 160.07 C 157.55 160.84 158.32 161.32 159.09 161.14 Z"
      fill="black"
      fill-rule="nonzero" /><path d="M 148.55 152.48 L 147.94 153.27 C 147.42 153.94 147.54 154.90 148.21 155.41 C 148.88 155.93 149.84 155.81 150.36 155.14 L 150.97 154.35 C 151.49 153.68 151.37 152.72 150.70 152.20 C 150.03 151.69 149.07 151.81 148.55 152.48 Z M 147.76 153.50 L 147.32 154.38 C 146.93 155.15 147.24 156.09 148.00 156.47 C 148.77 156.86 149.71 156.55 150.09 155.78 L 150.54 154.91 C 150.92 154.14 150.61 153.20 149.85 152.82 C 149.08 152.43 148.15 152.74 147.76 153.50 Z M 147.16 154.81 L 146.99 155.73 C 146.84 156.58 147.41 157.40 148.26 157.55 C 149.12 157.70 149.93 157.13 150.09 156.28 L 150.25 155.36 C 150.40 154.51 149.83 153.69 148.98 153.54 C 148.13 153.39 147.31 153.95 147.16 154.81 Z M 146.97 155.96 L 146.94 157.01 C 146.92 157.88 147.60 158.60 148.47 158.62 C 149.34 158.65 150.06 157.96 150.08 157.10 L 150.11 156.05 C 150.13 155.18 149.45 154.46 148.58 154.43 C 147.72 154.41 146.99 155.09 146.97 155.96 Z M 146.94 157.05 L 146.94 158.09 C 146.94 158.95 147.64 159.66 148.51 159.66 C 149.38 159.66 150.08 158.96 150.08 158.09 L 150.08 157.05 C 150.08 156.19 149.38 155.48 148.51 155.48 C 147.64 155.48 146.94 156.18 146.94 157.05 Z M 146.94 158.08 L 146.93 159.10 C 146.93 159.97 147.63 160.67 148.50 160.68 C 149.37 160.68 150.08 159.98 150.08 159.11 L 150.08 158.09 C 150.09 157.22 149.39 156.52 148.52 156.51 C 147.65 156.51 146.94 157.21 146.94 158.08 Z M 146.93 159.08 L 146.92 160.09 C 146.91 160.96 147.60 161.67 148.47 161.69 C 149.34 161.70 150.05 161.00 150.07 160.13 L 150.08 159.13 C 150.09 158.26 149.40 157.54 148.53 157.53 C 147.66 157.52 146.95 158.22 146.93 159.08 Z M 146.92 160.08 L 146.90 161.07 C 146.88 161.93 147.56 162.65 148.43 162.68 C 149.30 162.70 150.02 162.01 150.04 161.14 L 150.07 160.15 C 150.09 159.28 149.40 158.56 148.53 158.54 C 147.66 158.52 146.94 159.21 146.92 160.08 Z M 146.90 161.08 L 146.88 162.03 C 146.87 162.90 147.56 163.62 148.42 163.63 C 149.29 163.65 150.01 162.96 150.03 162.09 L 150.04 161.13 C 150.06 160.26 149.37 159.55 148.50 159.53 C 147.63 159.52 146.91 160.21 146.90 161.08 Z M 146.88 162.05 L 146.87 163.05 C 146.86 163.92 147.56 164.63 148.43 164.64 C 149.30 164.65 150.01 163.95 150.02 163.08 L 150.03 162.08 C 150.03 161.21 149.34 160.50 148.47 160.49 C 147.60 160.48 146.89 161.18 146.88 162.05 Z M 146.87 163.04 L 146.85 164.05 C 146.84 164.91 147.53 165.63 148.40 165.65 C 149.27 165.66 149.98 164.97 150.00 164.10 L 150.02 163.09 C 150.03 162.23 149.34 161.51 148.47 161.49 C 147.60 161.48 146.89 162.17 146.87 163.04 Z M 146.85 164.02 L 146.82 165.02 C 146.80 165.89 147.48 166.61 148.34 166.64 C 149.21 166.67 149.94 165.99 149.97 165.12 L 150.00 164.12 C 150.02 163.26 149.34 162.53 148.48 162.50 C 147.61 162.47 146.88 163.16 146.85 164.02 Z M 146.82 165.01 L 146.79 166.01 C 146.75 166.88 147.43 167.61 148.30 167.64 C 149.17 167.67 149.90 166.99 149.93 166.13 L 149.97 165.13 C 150.00 164.26 149.32 163.53 148.45 163.50 C 147.58 163.47 146.86 164.14 146.82 165.01 Z M 146.79 166.02 L 146.76 167.02 C 146.73 167.89 147.41 168.61 148.28 168.64 C 149.15 168.67 149.87 167.98 149.90 167.12 L 149.93 166.12 C 149.96 165.25 149.27 164.52 148.41 164.50 C 147.54 164.47 146.81 165.15 146.79 166.02 Z M 146.76 167.04 L 146.74 168.05 C 146.73 168.92 147.42 169.63 148.29 169.64 C 149.16 169.66 149.87 168.96 149.88 168.09 L 149.90 167.09 C 149.91 166.22 149.22 165.51 148.35 165.50 C 147.48 165.48 146.77 166.18 146.76 167.04 Z M 146.74 168.05 L 146.73 169.05 C 146.72 169.92 147.41 170.63 148.28 170.64 C 149.15 170.65 149.86 169.95 149.87 169.09 L 149.88 168.09 C 149.89 167.22 149.20 166.51 148.33 166.50 C 147.46 166.49 146.75 167.19 146.74 168.05 Z M 146.73 169.03 L 146.71 170.04 C 146.68 170.91 147.37 171.63 148.23 171.65 C 149.10 171.67 149.82 170.99 149.84 170.12 L 149.87 169.11 C 149.89 168.24 149.21 167.52 148.34 167.50 C 147.47 167.48 146.75 168.16 146.73 169.03 Z M 146.71 170.03 L 146.67 170.99 C 146.64 171.86 147.32 172.58 148.18 172.61 C 149.05 172.64 149.77 171.97 149.81 171.10 L 149.84 170.14 C 149.87 169.27 149.19 168.55 148.33 168.52 C 147.46 168.49 146.74 169.16 146.71 170.03 Z M 146.67 171.00 L 146.64 171.95 C 146.62 172.82 147.29 173.54 148.16 173.57 C 149.02 173.60 149.75 172.92 149.77 172.05 L 149.80 171.10 C 149.83 170.23 149.15 169.51 148.29 169.48 C 147.43 169.45 146.70 170.13 146.67 171.00 Z M 146.64 171.98 L 146.63 173.00 C 146.61 173.87 147.30 174.58 148.17 174.59 C 149.03 174.61 149.74 173.92 149.76 173.05 L 149.77 172.03 C 149.79 171.17 149.10 170.45 148.23 170.44 C 147.37 170.42 146.66 171.11 146.64 171.98 Z M 146.63 173.02 L 146.62 174.02 C 146.62 174.89 147.31 175.59 148.18 175.60 C 149.04 175.60 149.75 174.90 149.75 174.04 L 149.76 173.04 C 149.76 172.17 149.06 171.47 148.20 171.46 C 147.34 171.46 146.63 172.16 146.63 173.02 Z M 146.62 174.03 L 146.62 175.06 C 146.62 175.93 147.32 176.63 148.18 176.63 C 149.05 176.63 149.75 175.93 149.75 175.07 L 149.75 174.03 C 149.75 173.17 149.05 172.47 148.19 172.47 C 147.32 172.47 146.62 173.17 146.62 174.03 Z M 146.62 175.12 L 146.66 176.28 C 146.69 177.14 147.41 177.82 148.27 177.79 C 149.14 177.76 149.81 177.04 149.79 176.18 L 149.75 175.02 C 149.72 174.15 149.00 173.47 148.14 173.50 C 147.27 173.53 146.59 174.25 146.62 175.12 Z M 146.75 176.77 L 147.04 177.53 C 147.34 178.34 148.24 178.75 149.05 178.45 C 149.86 178.15 150.27 177.25 149.97 176.44 L 149.69 175.68 C 149.39 174.87 148.49 174.46 147.68 174.76 C 146.87 175.06 146.45 175.96 146.75 176.77 Z M 148.22 178.53 L 148.99 178.67 C 149.84 178.83 150.66 178.26 150.82 177.41 C 150.98 176.56 150.41 175.74 149.56 175.59 L 148.79 175.44 C 147.94 175.28 147.12 175.85 146.96 176.70 C 146.80 177.55 147.37 178.37 148.22 178.53 Z M 149.69 178.64 L 150.81 178.34 C 151.65 178.11 152.14 177.25 151.91 176.41 C 151.68 175.57 150.82 175.08 149.99 175.31 L 148.86 175.61 C 148.03 175.84 147.53 176.70 147.76 177.54 C 147.99 178.38 148.85 178.87 149.69 178.64 Z M 150.92 178.30 L 151.87 177.97 C 152.69 177.67 153.12 176.78 152.82 175.96 C 152.53 175.14 151.63 174.71 150.82 175.00 L 149.87 175.34 C 149.05 175.63 148.63 176.53 148.92 177.35 C 149.21 178.17 150.11 178.59 150.92 178.30 Z M 151.90 177.96 L 152.86 177.60 C 153.67 177.29 154.08 176.39 153.78 175.57 C 153.47 174.76 152.56 174.35 151.75 174.65 L 150.79 175.01 C 149.98 175.32 149.57 176.22 149.87 177.04 C 150.18 177.85 151.08 178.26 151.90 177.96 Z M 152.85 177.60 L 153.81 177.25 C 154.63 176.95 155.05 176.04 154.75 175.22 C 154.44 174.41 153.54 173.99 152.72 174.29 L 151.76 174.65 C 150.94 174.95 150.53 175.85 150.83 176.67 C 151.13 177.49 152.03 177.90 152.85 177.60 Z M 153.79 177.26 L 154.72 176.93 C 155.54 176.64 155.98 175.75 155.69 174.92 C 155.40 174.10 154.51 173.67 153.69 173.96 L 152.75 174.28 C 151.93 174.57 151.50 175.47 151.78 176.29 C 152.07 177.11 152.97 177.54 153.79 177.26 Z M 154.71 176.93 L 155.59 176.63 C 156.42 176.35 156.85 175.45 156.57 174.63 C 156.29 173.81 155.40 173.37 154.57 173.65 L 153.69 173.95 C 152.87 174.24 152.43 175.13 152.72 175.95 C 153.00 176.77 153.89 177.21 154.71 176.93 Z M 155.60 176.63 L 156.50 176.31 C 157.32 176.03 157.76 175.14 157.48 174.32 C 157.19 173.50 156.30 173.06 155.48 173.34 L 154.57 173.66 C 153.75 173.94 153.32 174.83 153.60 175.65 C 153.88 176.47 154.78 176.91 155.60 176.63 Z M 156.49 176.31 L 157.49 175.98 C 158.31 175.70 158.76 174.82 158.48 174.00 C 158.21 173.18 157.32 172.74 156.51 173.01 L 155.50 173.34 C 154.68 173.62 154.24 174.50 154.51 175.32 C 154.78 176.14 155.67 176.59 156.49 176.31 Z M 157.47 175.98 L 158.38 175.69 C 159.20 175.43 159.66 174.56 159.40 173.74 C 159.14 172.91 158.26 172.46 157.44 172.72 L 156.53 173.00 C 155.71 173.26 155.25 174.14 155.51 174.96 C 155.77 175.78 156.65 176.24 157.47 175.98 Z M 158.35 175.70 L 159.33 175.41 C 160.15 175.17 160.62 174.30 160.38 173.47 C 160.14 172.65 159.27 172.18 158.44 172.42 L 157.47 172.71 C 156.64 172.95 156.17 173.82 156.41 174.65 C 156.66 175.47 157.53 175.94 158.35 175.70 Z M 159.29 175.42 L 160.29 175.15 C 161.12 174.92 161.61 174.07 161.38 173.24 C 161.16 172.41 160.30 171.92 159.48 172.15 L 158.48 172.42 C 157.65 172.64 157.16 173.50 157.38 174.32 C 157.61 175.15 158.46 175.64 159.29 175.42 Z M 160.25 175.14 L 161.22 174.90 C 162.05 174.70 162.55 173.86 162.35 173.04 C 162.15 172.21 161.31 171.71 160.48 171.91 L 159.51 172.15 C 158.69 172.35 158.18 173.19 158.39 174.02 C 158.59 174.84 159.43 175.35 160.25 175.14 Z M 161.19 174.89 L 162.17 174.66 C 162.99 174.48 163.50 173.66 163.31 172.84 C 163.12 172.02 162.30 171.51 161.49 171.70 L 160.51 171.92 C 159.69 172.11 159.18 172.93 159.37 173.75 C 159.56 174.57 160.38 175.08 161.19 174.89 Z M 162.16 174.65 L 162.88 174.49 C 163.69 174.31 164.20 173.50 164.02 172.69 C 163.84 171.88 163.03 171.37 162.22 171.55 L 161.50 171.72 C 160.69 171.90 160.18 172.70 160.36 173.51 C 160.54 174.32 161.35 174.83 162.16 174.65 Z"
      fill="black"
      fill-rule="nonzero" /></svg>