<svg xmlns="http://www.w3.org/2000/svg" width="300" height="300" viewBox="0 0 300 300">
<path d="M 123.54 138.92 L 124.58 138.92 C 125.40 138.92 126.07 138.25 126.07 137.42 C 126.07 136.60 125.40 135.93 124.58 135.93 L 123.54 135.93 C 122.71 135.93 122.04 136.60 122.04 137.42 C 122.04 138.25 122.71 138.92 123.54 138.92 Z M 124.58 138.99 L 125.56 138.99 C 126.42 138.99 127.12 138.29 127.12 137.42 C 127.12 136.56 126.42 135.86 125.56 135.86 L 124.58 135.86 C 123.71 135.86 123.01 136.56 123.01 137.42 C 123.01 138.29 123.71 138.99 124.58 138.99 Z M 125.56 139.03 L 126.56 139.03 C 127.45 139.03 128.17 138.31 128.17 137.42 C 128.17 136.54 127.45 135.82 126.56 135.82 L 125.56 135.82 C 124.67 135.82 123.95 136.54 123.95 137.42 C 123.95 138.31 124.67 139.03 125.56 139.03 Z M 126.56 139.04 L 127.54 139.04 C 128.43 139.04 129.15 138.31 129.15 137.42 C 129.15 136.53 128.43 135.81 127.54 135.81 L 126.56 135.81 C 125.67 135.81 124.95 136.53 124.95 137.42 C 124.95 138.31 125.67 139.04 126.56 139.04 Z M 127.54 139.04 L 128.49 139.04 C 129.38 139.04 130.10 138.31 130.10 137.42 C 130.10 136.53 129.38 135.81 128.49 135.81 L 127.54 135.81 C 126.65 135.81 125.92 136.53 125.92 137.42 C 125.92 138.31 126.65 139.04 127.54 139.04 Z M 128.49 139.04 L 129.52 139.04 C 130.41 139.04 131.13 138.32 131.13 137.42 C 131.13 136.53 130.41 135.81 129.52 135.81 L 128.49 135.81 C 127.60 135.81 126.87 136.53 126.87 137.42 C 126.87 138.32 127.60 139.04 128.49 139.04 Z M 129.52 139.04 L 130.50 139.04 C 131.39 139.04 132.11 138.32 132.11 137.42 C 132.11 136.53 131.39 135.81 130.50 135.81 L 129.52 135.81 C 128.63 135.81 127.90 136.53 127.90 137.42 C 127.90 138.32 128.63 139.04 129.52 139.04 Z M 130.50 139.04 L 131.50 139.04 C 132.40 139.04 133.12 138.32 133.12 137.42 C 133.12 136.53 132.40 135.81 131.50 135.81 L 130.50 135.81 C 129.60 135.81 128.88 136.53 128.88 137.42 C 128.88 138.32 129.60 139.04 130.50 139.04 Z M 131.50 139.04 L 132.52 139.04 C 133.41 139.04 134.14 138.32 134.14 137.42 C 134.14 136.53 133.41 135.80 132.52 135.80 L 131.50 135.80 C 130.61 135.80 129.88 136.53 129.88 137.42 C 129.88 138.32 130.61 139.04 131.50 139.04 Z M 132.52 139.04 L 133.49 139.04 C 134.39 139.04 135.11 138.32 135.11 137.42 C 135.11 136.53 134.39 135.80 133.49 135.80 L 132.52 135.80 C 131.62 135.80 130.90 136.53 130.90 137.42 C 130.90 138.32 131.62 139.04 132.52 139.04 Z M 133.49 139.05 L 134.51 139.05 C 135.41 139.05 136.13 138.32 136.13 137.42 C 136.13 136.53 135.41 135.80 134.51 135.80 L 133.49 135.80 C 132.60 135.80 131.87 136.53 131.87 137.42 C 131.87 138.32 132.60 139.05 133.49 139.05 Z M 134.51 139.05 L 135.50 139.05 C 136.40 139.05 137.12 138.32 137.12 137.42 C 137.12 136.53 136.40 135.80 135.50 135.80 L 134.51 135.80 C 133.61 135.80 132.89 136.53 132.89 137.42 C 132.89 138.32 133.61 139.05 134.51 139.05 Z M 135.50 139.05 L 136.47 139.05 C 137.37 139.05 138.09 138.32 138.09 137.42 C 138.09 136.53 137.37 135.80 136.47 135.80 L 135.50 135.80 C 134.61 135.80 133.88 136.53 133.88 137.42 C 133.88 138.32 134.61 139.05 135.50 139.05 Z M 136.47 139.05 L 137.49 139.05 C 138.39 139.05 139.11 138.32 139.11 137.42 C 139.11 136.53 138.39 135.80 137.49 135.80 L 136.47 135.80 C 135.57 135.80 134.85 136.53 134.85 137.42 C 134.85 138.32 135.57 139.05 136.47 139.05 Z M 137.49 139.05 L 138.53 139.05 C 139.42 139.05 140.15 138.32 140.15 137.42 C 140.15 136.53 139.42 135.80 138.53 135.80 L 137.49 135.80 C 136.59 135.80 135.87 136.53 135.87 137.42 C 135.87 138.32 136.59 139.05 137.49 139.05 Z M 138.53 139.05 L 139.51 139.05 C 140.41 139.05 141.13 138.32 141.13 137.42 C 141.13 136.53 140.41 135.80 139.51 135.80 L 138.53 135.80 C 137.63 135.80 136.90 136.53 136.90 137.42 C 136.90 138.32 137.63 139.05 138.53 139.05 Z M 139.51 139.05 L 140.52 139.04 C 141.42 139.04 142.14 138.32 142.14 137.42 C 142.14 136.52 141.41 135.80 140.51 135.80 L 139.51 135.80 C 138.61 135.80 137.89 136.53 137.89 137.43 C 137.89 138.32 138.62 139.05 139.51 139.05 Z M 140.52 139.04 L 141.54 139.04 C 142.43 139.04 143.16 138.31 143.15 137.41 C 143.15 136.51 142.42 135.79 141.53 135.80 L 140.51 135.80 C 139.61 135.80 138.89 136.53 138.90 137.43 C 138.90 138.32 139.63 139.05 140.52 139.04 Z M 141.54 139.04 L 142.56 139.03 C 143.45 139.02 144.18 138.29 144.17 137.40 C 144.16 136.50 143.43 135.78 142.53 135.79 L 141.52 135.80 C 140.62 135.80 139.90 136.53 139.91 137.43 C 139.92 138.33 140.65 139.05 141.54 139.04 Z M 142.57 139.03 L 143.57 139.02 C 144.47 139.01 145.19 138.27 145.17 137.38 C 145.16 136.48 144.43 135.76 143.53 135.78 L 142.53 135.79 C 141.63 135.80 140.91 136.54 140.93 137.43 C 140.94 138.33 141.67 139.04 142.57 139.03 Z M 143.59 139.02 L 144.58 139.00 C 145.48 138.98 146.19 138.24 146.17 137.34 C 146.15 136.45 145.41 135.74 144.52 135.76 L 143.52 135.78 C 142.63 135.79 141.92 136.53 141.93 137.43 C 141.95 138.32 142.69 139.03 143.59 139.02 Z M 144.60 139.00 L 145.58 138.97 C 146.48 138.94 147.18 138.19 147.16 137.30 C 147.13 136.41 146.38 135.70 145.49 135.73 L 144.50 135.76 C 143.61 135.78 142.90 136.53 142.93 137.42 C 142.96 138.32 143.70 139.02 144.60 139.00 Z M 145.60 138.96 L 146.61 138.92 C 147.50 138.89 148.19 138.14 148.16 137.24 C 148.12 136.35 147.37 135.66 146.48 135.69 L 145.47 135.73 C 144.58 135.77 143.89 136.52 143.92 137.41 C 143.96 138.30 144.71 139.00 145.60 138.96 Z M 146.62 138.91 L 147.62 138.86 C 148.51 138.82 149.19 138.07 149.15 137.18 C 149.11 136.30 148.35 135.61 147.47 135.66 L 146.47 135.70 C 145.58 135.75 144.90 136.50 144.94 137.39 C 144.98 138.27 145.73 138.95 146.62 138.91 Z M 147.63 138.85 L 148.63 138.80 C 149.51 138.75 150.18 138.00 150.13 137.12 C 150.09 136.24 149.33 135.56 148.45 135.61 L 147.46 135.67 C 146.58 135.71 145.90 136.47 145.95 137.35 C 146.00 138.23 146.75 138.90 147.63 138.85 Z M 148.63 138.79 L 149.63 138.73 C 150.50 138.68 151.17 137.94 151.12 137.06 C 151.07 136.19 150.32 135.52 149.45 135.57 L 148.45 135.62 C 147.58 135.67 146.91 136.42 146.96 137.30 C 147.00 138.17 147.75 138.84 148.63 138.79 Z M 149.63 138.72 L 150.64 138.67 C 151.50 138.62 152.17 137.87 152.12 137.00 C 152.07 136.13 151.33 135.47 150.46 135.52 L 149.45 135.58 C 148.58 135.63 147.92 136.37 147.96 137.24 C 148.01 138.11 148.76 138.77 149.63 138.72 Z M 150.63 138.65 L 151.63 138.60 C 152.49 138.55 153.15 137.81 153.10 136.95 C 153.06 136.09 152.32 135.43 151.46 135.48 L 150.46 135.53 C 149.60 135.58 148.94 136.32 148.98 137.18 C 149.03 138.04 149.77 138.70 150.63 138.65 Z M 151.62 138.59 L 152.61 138.54 C 153.47 138.49 154.12 137.76 154.08 136.90 C 154.03 136.05 153.30 135.39 152.45 135.43 L 151.46 135.49 C 150.60 135.53 149.95 136.26 149.99 137.12 C 150.04 137.98 150.77 138.63 151.62 138.59 Z M 152.60 138.53 L 153.62 138.48 C 154.48 138.44 155.13 137.71 155.09 136.86 C 155.05 136.01 154.33 135.35 153.47 135.39 L 152.45 135.44 C 151.60 135.48 150.94 136.21 150.98 137.06 C 151.02 137.91 151.75 138.57 152.60 138.53 Z M 153.62 138.48 L 154.62 138.43 C 155.48 138.40 156.14 137.67 156.10 136.82 C 156.06 135.96 155.34 135.30 154.48 135.34 L 153.48 135.39 C 152.62 135.43 151.96 136.15 152.00 137.01 C 152.04 137.86 152.77 138.52 153.62 138.48 Z M 154.62 138.43 L 155.60 138.39 C 156.46 138.35 157.12 137.63 157.08 136.78 C 157.04 135.92 156.32 135.26 155.47 135.30 L 154.48 135.34 C 153.63 135.38 152.97 136.10 153.01 136.96 C 153.04 137.81 153.77 138.47 154.62 138.43 Z M 155.60 138.39 L 156.60 138.35 C 157.46 138.31 158.12 137.59 158.08 136.74 C 158.04 135.88 157.32 135.22 156.47 135.26 L 155.47 135.30 C 154.61 135.34 153.95 136.06 153.99 136.91 C 154.02 137.77 154.75 138.43 155.60 138.39 Z M 156.60 138.35 L 157.60 138.31 C 158.45 138.27 159.12 137.55 159.08 136.70 C 159.05 135.84 158.32 135.18 157.47 135.21 L 156.47 135.25 C 155.62 135.29 154.95 136.01 154.99 136.87 C 155.02 137.72 155.74 138.39 156.60 138.35 Z M 157.59 138.31 L 158.58 138.27 C 159.44 138.24 160.10 137.52 160.07 136.67 C 160.04 135.81 159.32 135.14 158.46 135.17 L 157.47 135.21 C 156.62 135.24 155.95 135.96 155.98 136.82 C 156.01 137.68 156.73 138.34 157.59 138.31 Z M 158.57 138.27 L 159.60 138.24 C 160.45 138.21 161.12 137.50 161.10 136.64 C 161.07 135.79 160.35 135.12 159.50 135.14 L 158.47 135.18 C 157.62 135.20 156.95 135.92 156.97 136.77 C 157.00 137.63 157.72 138.30 158.57 138.27 Z M 159.59 138.23 L 160.62 138.20 C 161.47 138.18 162.14 137.47 162.12 136.62 C 162.09 135.77 161.38 135.10 160.53 135.12 L 159.51 135.15 C 158.66 135.17 157.98 135.88 158.01 136.73 C 158.03 137.58 158.74 138.26 159.59 138.23 Z M 160.61 138.19 L 161.58 138.17 C 162.43 138.15 163.10 137.45 163.07 136.60 C 163.05 135.76 162.35 135.09 161.51 135.11 L 160.54 135.13 C 159.69 135.15 159.02 135.86 159.05 136.70 C 159.07 137.55 159.77 138.22 160.61 138.19 Z M 161.58 138.16 L 162.58 138.14 C 163.42 138.12 164.08 137.42 164.06 136.58 C 164.04 135.74 163.35 135.08 162.51 135.10 L 161.51 135.12 C 160.67 135.14 160.00 135.84 160.02 136.68 C 160.04 137.52 160.74 138.18 161.58 138.16 Z M 162.57 138.13 L 163.55 138.11 C 164.38 138.09 165.04 137.40 165.03 136.56 C 165.01 135.73 164.32 135.07 163.48 135.09 L 162.51 135.11 C 161.68 135.12 161.02 135.81 161.03 136.65 C 161.05 137.48 161.74 138.14 162.57 138.13 Z M 163.53 138.10 L 164.53 138.08 C 165.36 138.07 166.02 137.39 166.01 136.56 C 166.00 135.74 165.32 135.07 164.49 135.08 L 163.50 135.10 C 162.67 135.11 162.01 135.79 162.02 136.62 C 162.03 137.44 162.71 138.11 163.53 138.10 Z M 164.51 138.08 L 165.53 138.08 C 166.35 138.08 167.02 137.41 167.02 136.58 C 167.02 135.76 166.35 135.09 165.53 135.09 L 164.51 135.09 C 163.68 135.09 163.02 135.76 163.02 136.58 C 163.02 137.41 163.69 138.08 164.51 138.08 Z M 165.50 138.07 L 166.51 138.09 C 167.33 138.10 168.01 137.45 168.02 136.63 C 168.04 135.80 167.38 135.13 166.56 135.11 L 165.55 135.09 C 164.73 135.08 164.05 135.73 164.04 136.56 C 164.02 137.38 164.68 138.06 165.50 138.07 Z M 166.44 138.08 L 167.70 138.16 C 168.52 138.21 169.22 137.58 169.27 136.77 C 169.32 135.95 168.70 135.25 167.88 135.20 L 166.62 135.12 C 165.81 135.07 165.10 135.69 165.05 136.51 C 165.00 137.33 165.63 138.03 166.44 138.08 Z M 167.31 138.07 L 167.80 138.24 C 168.57 138.50 169.41 138.09 169.67 137.32 C 169.93 136.55 169.52 135.71 168.75 135.45 L 168.26 135.28 C 167.49 135.02 166.66 135.43 166.39 136.20 C 166.13 136.97 166.54 137.81 167.31 138.07 Z M 167.92 135.42 L 167.03 135.65 C 166.25 135.84 165.77 136.64 165.97 137.42 C 166.16 138.20 166.96 138.68 167.74 138.48 L 168.63 138.26 C 169.41 138.07 169.89 137.27 169.69 136.49 C 169.50 135.70 168.70 135.23 167.92 135.42 Z M 167.21 135.62 L 166.09 135.76 C 165.29 135.86 164.73 136.58 164.82 137.38 C 164.92 138.17 165.65 138.74 166.44 138.64 L 167.56 138.51 C 168.36 138.41 168.93 137.68 168.83 136.89 C 168.73 136.09 168.01 135.53 167.21 135.62 Z M 166.14 135.77 L 165.15 135.85 C 164.36 135.92 163.77 136.61 163.84 137.41 C 163.90 138.20 164.60 138.79 165.39 138.72 L 166.39 138.64 C 167.18 138.57 167.77 137.88 167.70 137.08 C 167.64 136.29 166.94 135.70 166.14 135.77 Z M 165.17 135.86 L 164.13 135.93 C 163.34 135.99 162.74 136.67 162.80 137.46 C 162.85 138.25 163.54 138.84 164.33 138.79 L 165.37 138.71 C 166.16 138.66 166.76 137.98 166.70 137.19 C 166.65 136.40 165.96 135.80 165.17 135.86 Z M 164.13 135.94 L 163.97 135.95 C 163.18 136.00 162.59 136.68 162.64 137.46 C 162.69 138.25 163.37 138.85 164.16 138.79 L 164.32 138.78 C 165.11 138.73 165.70 138.05 165.65 137.26 C 165.60 136.48 164.92 135.88 164.13 135.94 Z"
      fill="black"
      fill-rule="nonzero" /><path d="M 134.80 127.08 L 135.36 127.96 C 135.80 128.65 136.73 128.86 137.42 128.41 C 138.12 127.97 138.32 127.05 137.88 126.35 L 137.32 125.47 C 136.88 124.78 135.95 124.57 135.26 125.02 C 134.56 125.46 134.36 126.39 134.80 127.08 Z M 135.23 127.86 L 135.67 128.71 C 136.06 129.48 136.99 129.79 137.76 129.40 C 138.52 129.01 138.83 128.08 138.44 127.31 L 138.01 126.45 C 137.62 125.69 136.68 125.38 135.92 125.77 C 135.15 126.16 134.85 127.09 135.23 127.86 Z M 135.52 128.40 L 135.76 129.37 C 135.98 130.22 136.84 130.73 137.69 130.52 C 138.54 130.31 139.05 129.44 138.84 128.59 L 138.59 127.62 C 138.38 126.78 137.52 126.26 136.67 126.47 C 135.82 126.69 135.30 127.55 135.52 128.40 Z M 135.72 129.13 L 135.81 130.10 C 135.89 130.98 136.66 131.62 137.54 131.54 C 138.41 131.46 139.05 130.68 138.97 129.81 L 138.88 128.84 C 138.80 127.96 138.03 127.32 137.15 127.40 C 136.28 127.48 135.64 128.25 135.72 129.13 Z M 135.80 130.06 L 135.87 131.04 C 135.93 131.92 136.68 132.58 137.56 132.52 C 138.44 132.47 139.10 131.71 139.04 130.83 L 138.98 129.85 C 138.92 128.97 138.16 128.31 137.28 128.37 C 136.41 128.43 135.74 129.19 135.80 130.06 Z M 135.87 131.02 L 135.92 132.03 C 135.97 132.91 136.71 133.58 137.59 133.54 C 138.47 133.49 139.14 132.74 139.10 131.87 L 139.04 130.85 C 139.00 129.98 138.25 129.30 137.37 129.35 C 136.49 129.40 135.82 130.14 135.87 131.02 Z M 135.92 132.01 L 135.96 133.00 C 135.99 133.88 136.73 134.56 137.61 134.53 C 138.49 134.49 139.17 133.75 139.14 132.87 L 139.10 131.89 C 139.06 131.01 138.32 130.32 137.45 130.36 C 136.57 130.39 135.88 131.13 135.92 132.01 Z M 135.96 132.99 L 135.99 134.01 C 136.02 134.89 136.75 135.57 137.63 135.55 C 138.51 135.52 139.20 134.78 139.17 133.91 L 139.14 132.89 C 139.11 132.01 138.37 131.32 137.50 131.35 C 136.62 131.37 135.93 132.11 135.96 132.99 Z M 135.99 134.00 L 136.02 134.98 C 136.04 135.86 136.77 136.55 137.65 136.52 C 138.53 136.50 139.22 135.77 139.20 134.89 L 139.17 133.91 C 139.14 133.03 138.41 132.34 137.53 132.37 C 136.66 132.39 135.96 133.12 135.99 134.00 Z M 136.02 134.97 L 136.04 136.00 C 136.07 136.87 136.80 137.57 137.67 137.54 C 138.55 137.52 139.24 136.79 139.22 135.91 L 139.20 134.89 C 139.17 134.01 138.44 133.32 137.57 133.34 C 136.69 133.37 135.99 134.10 136.02 134.97 Z M 136.04 135.99 L 136.07 136.97 C 136.09 137.85 136.82 138.55 137.69 138.52 C 138.57 138.50 139.27 137.78 139.24 136.90 L 139.22 135.92 C 139.20 135.04 138.47 134.35 137.59 134.37 C 136.72 134.39 136.02 135.12 136.04 135.99 Z M 136.07 136.97 L 136.09 137.97 C 136.11 138.84 136.83 139.54 137.71 139.52 C 138.59 139.51 139.28 138.78 139.26 137.90 L 139.24 136.90 C 139.23 136.03 138.50 135.33 137.62 135.35 C 136.75 135.37 136.05 136.09 136.07 136.97 Z M 136.09 137.96 L 136.10 138.98 C 136.12 139.86 136.84 140.56 137.71 140.55 C 138.59 140.53 139.29 139.81 139.28 138.94 L 139.26 137.91 C 139.25 137.04 138.53 136.34 137.65 136.35 C 136.78 136.36 136.08 137.08 136.09 137.96 Z M 136.11 138.97 L 136.11 139.95 C 136.12 140.82 136.83 141.53 137.71 141.52 C 138.58 141.52 139.29 140.80 139.28 139.93 L 139.28 138.95 C 139.27 138.07 138.56 137.37 137.68 137.38 C 136.80 137.38 136.10 138.10 136.11 138.97 Z M 136.11 139.94 L 136.12 140.94 C 136.12 141.82 136.83 142.53 137.70 142.52 C 138.58 142.52 139.29 141.81 139.28 140.94 L 139.28 139.93 C 139.28 139.06 138.57 138.35 137.69 138.35 C 136.82 138.36 136.11 139.07 136.11 139.94 Z M 136.12 140.94 L 136.12 141.97 C 136.12 142.84 136.83 143.55 137.70 143.55 C 138.57 143.55 139.28 142.84 139.28 141.96 L 139.28 140.94 C 139.28 140.07 138.57 139.36 137.70 139.36 C 136.83 139.36 136.12 140.07 136.12 140.94 Z M 136.12 141.96 L 136.12 142.97 C 136.12 143.85 136.83 144.55 137.70 144.55 C 138.57 144.55 139.28 143.85 139.28 142.97 L 139.28 141.96 C 139.28 141.09 138.57 140.38 137.70 140.38 C 136.83 140.38 136.12 141.09 136.12 141.96 Z M 136.12 142.97 L 136.12 143.98 C 136.12 144.85 136.83 145.56 137.70 145.56 C 138.57 145.56 139.28 144.85 139.28 143.98 L 139.28 142.97 C 139.28 142.10 138.57 141.40 137.70 141.40 C 136.83 141.40 136.12 142.10 136.12 142.97 Z M 136.12 143.98 L 136.12 144.97 C 136.12 145.84 136.83 146.55 137.70 146.55 C 138.57 146.55 139.28 145.84 139.28 144.97 L 139.28 143.98 C 139.28 143.11 138.57 142.40 137.70 142.40 C 136.83 142.40 136.12 143.11 136.12 143.98 Z M 136.13 144.97 L 136.13 146.00 C 136.13 146.87 136.83 147.58 137.70 147.58 C 138.57 147.58 139.27 146.87 139.27 146.00 L 139.27 144.97 C 139.27 144.10 138.57 143.40 137.70 143.40 C 136.83 143.40 136.13 144.10 136.13 144.97 Z M 136.13 146.00 L 136.13 146.99 C 136.13 147.86 136.83 148.56 137.70 148.56 C 138.57 148.56 139.27 147.86 139.27 146.99 L 139.27 146.00 C 139.27 145.13 138.57 144.43 137.70 144.43 C 136.83 144.43 136.13 145.13 136.13 146.00 Z M 136.13 146.99 L 136.13 147.97 C 136.13 148.84 136.83 149.54 137.70 149.54 C 138.57 149.54 139.27 148.84 139.27 147.97 L 139.27 146.99 C 139.27 146.12 138.57 145.42 137.70 145.42 C 136.83 145.42 136.13 146.12 136.13 146.99 Z M 136.14 147.97 L 136.13 148.98 C 136.13 149.84 136.83 150.54 137.69 150.54 C 138.56 150.55 139.26 149.85 139.26 148.99 L 139.26 147.98 C 139.27 147.11 138.57 146.41 137.71 146.41 C 136.84 146.41 136.14 147.10 136.14 147.97 Z M 136.14 148.96 L 136.12 149.95 C 136.11 150.81 136.80 151.52 137.66 151.53 C 138.52 151.54 139.23 150.85 139.24 149.99 L 139.26 149.00 C 139.27 148.14 138.58 147.43 137.72 147.42 C 136.86 147.41 136.15 148.10 136.14 148.96 Z M 136.13 149.92 L 136.10 150.94 C 136.07 151.80 136.75 152.51 137.60 152.54 C 138.46 152.57 139.18 151.89 139.21 151.03 L 139.24 150.02 C 139.27 149.16 138.59 148.44 137.73 148.41 C 136.87 148.39 136.15 149.06 136.13 149.92 Z M 136.10 150.91 L 136.06 151.91 C 136.02 152.77 136.68 153.49 137.53 153.53 C 138.39 153.57 139.12 152.91 139.16 152.05 L 139.20 151.06 C 139.24 150.20 138.58 149.47 137.72 149.43 C 136.87 149.39 136.14 150.06 136.10 150.91 Z M 136.06 151.90 L 136.01 152.90 C 135.96 153.75 136.61 154.48 137.46 154.53 C 138.32 154.58 139.05 153.93 139.09 153.07 L 139.15 152.07 C 139.20 151.22 138.55 150.49 137.69 150.44 C 136.84 150.39 136.11 151.04 136.06 151.90 Z M 136.01 152.90 L 135.95 153.92 C 135.91 154.77 136.56 155.49 137.41 155.54 C 138.26 155.59 138.98 154.94 139.03 154.09 L 139.09 153.07 C 139.14 152.22 138.49 151.50 137.64 151.45 C 136.79 151.40 136.06 152.05 136.01 152.90 Z M 135.96 153.94 L 135.92 154.88 C 135.88 155.73 136.54 156.45 137.39 156.48 C 138.24 156.52 138.95 155.86 138.99 155.01 L 139.03 154.07 C 139.06 153.22 138.40 152.50 137.56 152.47 C 136.71 152.43 135.99 153.09 135.96 153.94 Z M 135.92 154.94 L 135.92 155.89 C 135.91 156.73 136.59 157.42 137.44 157.43 C 138.28 157.43 138.97 156.75 138.98 155.91 L 138.98 154.96 C 138.99 154.11 138.31 153.43 137.46 153.42 C 136.62 153.41 135.93 154.09 135.92 154.94 Z M 135.93 155.95 L 135.96 157.03 C 135.99 157.87 136.69 158.52 137.53 158.50 C 138.37 158.47 139.03 157.77 139.00 156.93 L 138.97 155.85 C 138.94 155.01 138.24 154.35 137.40 154.38 C 136.56 154.41 135.90 155.11 135.93 155.95 Z M 135.98 157.13 L 136.09 158.23 C 136.17 159.06 136.91 159.67 137.74 159.58 C 138.57 159.50 139.18 158.76 139.10 157.93 L 138.99 156.83 C 138.90 156.00 138.16 155.39 137.33 155.47 C 136.50 155.56 135.90 156.30 135.98 157.13 Z M 136.18 158.60 L 136.48 159.40 C 136.77 160.18 137.63 160.58 138.41 160.29 C 139.18 160.01 139.58 159.15 139.30 158.37 L 139.00 157.56 C 138.71 156.79 137.85 156.39 137.08 156.67 C 136.30 156.96 135.90 157.82 136.18 158.60 Z M 137.72 160.36 L 138.47 160.44 C 139.28 160.54 140.01 159.95 140.11 159.14 C 140.20 158.33 139.62 157.60 138.81 157.51 L 138.06 157.42 C 137.25 157.33 136.51 157.91 136.42 158.72 C 136.33 159.53 136.91 160.26 137.72 160.36 Z M 139.51 160.13 L 140.41 159.45 C 141.04 158.97 141.17 158.06 140.69 157.42 C 140.21 156.79 139.30 156.66 138.66 157.14 L 137.77 157.82 C 137.13 158.30 137.00 159.21 137.48 159.85 C 137.96 160.48 138.87 160.61 139.51 160.13 Z M 140.62 159.24 L 141.24 158.52 C 141.76 157.92 141.69 157.02 141.09 156.50 C 140.49 155.98 139.59 156.04 139.07 156.64 L 138.45 157.36 C 137.93 157.96 138.00 158.86 138.60 159.38 C 139.19 159.90 140.10 159.83 140.62 159.24 Z M 141.30 158.43 L 141.92 157.60 C 142.39 156.96 142.26 156.07 141.62 155.60 C 140.99 155.13 140.09 155.26 139.62 155.90 L 139.01 156.73 C 138.54 157.36 138.67 158.26 139.30 158.73 C 139.94 159.20 140.83 159.07 141.30 158.43 Z M 141.94 157.57 L 142.30 157.06 C 142.75 156.42 142.59 155.53 141.95 155.07 C 141.31 154.62 140.42 154.77 139.96 155.42 L 139.60 155.93 C 139.15 156.57 139.31 157.46 139.95 157.91 C 140.59 158.37 141.48 158.21 141.94 157.57 Z"
      fill="black"
      fill-rule="nonzero" /><path d="M 157.03 119.27 L 157.03 120.36 C 157.03 121.19 157.70 121.86 158.53 121.86 C 159.36 121.86 160.03 121.19 160.03 120.36 L 160.03 119.27 C 160.03 118.45 159.36 117.77 158.53 117.77 C 157.70 117.77 157.03 118.45 157.03 119.27 Z M 156.99 120.36 L 156.99 121.38 C 156.99 122.24 157.68 122.93 158.53 122.93 C 159.39 122.93 160.08 122.24 160.08 121.38 L 160.08 120.36 C 160.08 119.50 159.39 118.81 158.53 118.81 C 157.68 118.81 156.99 119.50 156.99 120.36 Z M 156.94 121.38 L 156.94 122.30 C 156.94 123.18 157.65 123.90 158.53 123.90 C 159.41 123.90 160.13 123.18 160.13 122.30 L 160.13 121.38 C 160.13 120.50 159.41 119.79 158.53 119.79 C 157.65 119.79 156.94 120.50 156.94 121.38 Z M 156.91 122.30 L 156.91 123.36 C 156.91 124.26 157.63 124.99 158.53 124.99 C 159.43 124.99 160.16 124.26 160.16 123.37 L 160.16 122.30 C 160.16 121.40 159.43 120.68 158.53 120.68 C 157.64 120.68 156.91 121.40 156.91 122.30 Z M 156.90 123.35 L 156.90 124.28 C 156.89 125.18 157.61 125.92 158.51 125.92 C 159.41 125.93 160.15 125.21 160.16 124.31 L 160.16 123.38 C 160.17 122.48 159.44 121.74 158.54 121.74 C 157.64 121.73 156.91 122.45 156.90 123.35 Z M 156.89 124.26 L 156.87 125.21 C 156.86 126.11 157.57 126.85 158.47 126.87 C 159.37 126.89 160.12 126.17 160.14 125.27 L 160.16 124.33 C 160.18 123.43 159.46 122.68 158.56 122.66 C 157.66 122.64 156.91 123.36 156.89 124.26 Z M 156.87 125.19 L 156.84 126.21 C 156.82 127.11 157.53 127.87 158.43 127.89 C 159.33 127.92 160.08 127.21 160.11 126.31 L 160.14 125.29 C 160.17 124.38 159.46 123.63 158.55 123.61 C 157.65 123.58 156.90 124.29 156.87 125.19 Z M 156.84 126.21 L 156.81 127.18 C 156.78 128.08 157.49 128.84 158.39 128.87 C 159.30 128.90 160.05 128.19 160.08 127.29 L 160.11 126.31 C 160.14 125.41 159.43 124.65 158.53 124.62 C 157.63 124.59 156.87 125.30 156.84 126.21 Z M 156.81 127.17 L 156.77 128.17 C 156.74 129.08 157.44 129.84 158.34 129.87 C 159.24 129.91 160.01 129.20 160.04 128.30 L 160.08 127.30 C 160.12 126.40 159.41 125.64 158.51 125.60 C 157.61 125.56 156.85 126.27 156.81 127.17 Z M 156.77 128.15 L 156.72 129.16 C 156.67 130.07 157.36 130.84 158.27 130.88 C 159.17 130.93 159.94 130.24 159.99 129.33 L 160.04 128.32 C 160.09 127.42 159.39 126.65 158.49 126.60 C 157.59 126.55 156.82 127.25 156.77 128.15 Z M 156.72 129.15 L 156.66 130.13 C 156.60 131.03 157.29 131.81 158.19 131.87 C 159.09 131.92 159.87 131.24 159.93 130.33 L 159.99 129.35 C 160.04 128.45 159.36 127.67 158.45 127.61 C 157.55 127.56 156.77 128.24 156.72 129.15 Z M 156.66 130.13 L 156.59 131.15 C 156.54 132.05 157.22 132.83 158.12 132.89 C 159.03 132.95 159.81 132.26 159.86 131.36 L 159.93 130.33 C 159.98 129.43 159.30 128.65 158.39 128.60 C 157.49 128.54 156.71 129.23 156.66 130.13 Z M 156.59 131.16 L 156.53 132.15 C 156.48 133.06 157.18 133.83 158.08 133.88 C 158.98 133.93 159.76 133.24 159.81 132.34 L 159.86 131.35 C 159.91 130.44 159.22 129.67 158.32 129.62 C 157.41 129.57 156.64 130.26 156.59 131.16 Z M 156.53 132.16 L 156.48 133.15 C 156.43 134.06 157.13 134.83 158.04 134.87 C 158.94 134.92 159.71 134.23 159.76 133.32 L 159.81 132.33 C 159.86 131.43 159.16 130.65 158.26 130.61 C 157.35 130.56 156.58 131.26 156.53 132.16 Z M 156.48 133.14 L 156.42 134.16 C 156.37 135.07 157.07 135.84 157.97 135.89 C 158.88 135.94 159.65 135.25 159.70 134.34 L 159.76 133.33 C 159.81 132.42 159.12 131.64 158.21 131.59 C 157.31 131.54 156.53 132.24 156.48 133.14 Z M 156.42 134.14 L 156.36 135.12 C 156.30 136.03 156.98 136.81 157.89 136.87 C 158.80 136.93 159.58 136.25 159.64 135.34 L 159.71 134.36 C 159.77 133.45 159.08 132.67 158.17 132.61 C 157.26 132.55 156.48 133.24 156.42 134.14 Z M 156.36 135.11 L 156.28 136.09 C 156.22 137.00 156.90 137.79 157.81 137.86 C 158.71 137.93 159.50 137.24 159.57 136.34 L 159.64 135.35 C 159.71 134.44 159.03 133.65 158.12 133.59 C 157.21 133.52 156.42 134.20 156.36 135.11 Z M 156.28 136.09 L 156.20 137.11 C 156.13 138.01 156.81 138.81 157.72 138.88 C 158.63 138.95 159.42 138.27 159.49 137.36 L 159.57 136.34 C 159.64 135.43 158.96 134.64 158.05 134.57 C 157.15 134.50 156.35 135.18 156.28 136.09 Z M 156.20 137.11 L 156.12 138.11 C 156.05 139.02 156.73 139.81 157.64 139.88 C 158.55 139.95 159.35 139.27 159.42 138.36 L 159.49 137.36 C 159.56 136.45 158.88 135.66 157.97 135.59 C 157.07 135.52 156.27 136.20 156.20 137.11 Z M 156.12 138.11 L 156.05 139.09 C 155.98 140.00 156.66 140.79 157.57 140.86 C 158.48 140.93 159.27 140.25 159.34 139.34 L 159.42 138.36 C 159.49 137.45 158.80 136.66 157.89 136.59 C 156.98 136.52 156.19 137.20 156.12 138.11 Z M 156.05 139.09 L 155.98 140.09 C 155.91 141.00 156.59 141.80 157.50 141.86 C 158.41 141.93 159.20 141.25 159.27 140.34 L 159.34 139.33 C 159.41 138.42 158.73 137.63 157.82 137.57 C 156.91 137.50 156.12 138.18 156.05 139.09 Z M 155.98 140.10 L 155.90 141.12 C 155.84 142.03 156.52 142.82 157.43 142.89 C 158.34 142.95 159.13 142.27 159.20 141.36 L 159.27 140.33 C 159.33 139.42 158.65 138.64 157.74 138.57 C 156.83 138.50 156.04 139.19 155.98 140.10 Z M 155.90 141.12 L 155.83 142.11 C 155.77 143.01 156.46 143.80 157.36 143.87 C 158.27 143.93 159.06 143.25 159.13 142.34 L 159.19 141.36 C 159.26 140.45 158.57 139.66 157.67 139.60 C 156.76 139.53 155.97 140.22 155.90 141.12 Z M 155.84 142.11 L 155.76 143.10 C 155.70 144.01 156.38 144.79 157.29 144.86 C 158.20 144.92 158.99 144.24 159.05 143.33 L 159.12 142.34 C 159.19 141.43 158.50 140.64 157.60 140.58 C 156.69 140.51 155.90 141.20 155.84 142.11 Z M 155.77 143.09 L 155.69 144.10 C 155.63 145.01 156.31 145.80 157.22 145.86 C 158.13 145.93 158.92 145.25 158.98 144.34 L 159.05 143.33 C 159.12 142.42 158.44 141.64 157.53 141.57 C 156.62 141.50 155.83 142.19 155.77 143.09 Z M 155.69 144.10 L 155.62 145.11 C 155.55 146.01 156.23 146.80 157.14 146.87 C 158.04 146.94 158.84 146.26 158.90 145.35 L 158.98 144.34 C 159.05 143.44 158.37 142.64 157.46 142.58 C 156.55 142.51 155.76 143.19 155.69 144.10 Z M 155.62 145.10 L 155.54 146.08 C 155.47 146.99 156.15 147.78 157.05 147.85 C 157.96 147.92 158.75 147.25 158.83 146.34 L 158.90 145.36 C 158.97 144.45 158.30 143.66 157.39 143.59 C 156.48 143.52 155.69 144.19 155.62 145.10 Z M 155.54 146.07 L 155.46 147.06 C 155.39 147.97 156.06 148.77 156.97 148.84 C 157.87 148.91 158.67 148.24 158.74 147.33 L 158.82 146.34 C 158.90 145.44 158.22 144.64 157.32 144.57 C 156.41 144.49 155.62 145.17 155.54 146.07 Z M 155.46 147.06 L 155.38 148.07 C 155.31 148.97 155.98 149.77 156.89 149.84 C 157.79 149.92 158.59 149.24 158.66 148.34 L 158.74 147.33 C 158.82 146.43 158.14 145.63 157.24 145.56 C 156.33 145.48 155.54 146.16 155.46 147.06 Z M 155.38 148.07 L 155.30 149.09 C 155.22 149.99 155.90 150.79 156.80 150.86 C 157.71 150.93 158.50 150.26 158.58 149.35 L 158.66 148.34 C 158.73 147.43 158.06 146.64 157.15 146.56 C 156.25 146.49 155.45 147.16 155.38 148.07 Z M 155.30 149.09 L 155.22 150.10 C 155.15 151.01 155.82 151.80 156.73 151.87 C 157.63 151.94 158.42 151.27 158.50 150.36 L 158.58 149.35 C 158.65 148.45 157.97 147.65 157.07 147.58 C 156.16 147.51 155.37 148.19 155.30 149.09 Z M 155.22 150.10 L 155.14 151.11 C 155.07 152.02 155.74 152.81 156.65 152.88 C 157.55 152.95 158.34 152.28 158.42 151.37 L 158.49 150.36 C 158.57 149.46 157.89 148.66 156.99 148.59 C 156.08 148.52 155.29 149.20 155.22 150.10 Z M 155.14 151.11 L 155.06 152.11 C 154.99 153.01 155.66 153.81 156.57 153.88 C 157.47 153.95 158.26 153.27 158.33 152.37 L 158.41 151.37 C 158.49 150.47 157.81 149.68 156.91 149.61 C 156.00 149.53 155.21 150.21 155.14 151.11 Z M 155.06 152.11 L 154.98 153.07 C 154.91 153.98 155.58 154.77 156.49 154.84 C 157.39 154.92 158.18 154.24 158.25 153.34 L 158.33 152.37 C 158.41 151.47 157.74 150.68 156.83 150.61 C 155.93 150.53 155.14 151.20 155.06 152.11 Z M 154.98 153.07 L 154.89 154.12 C 154.82 155.03 155.49 155.82 156.39 155.90 C 157.29 155.98 158.09 155.31 158.16 154.40 L 158.25 153.35 C 158.33 152.44 157.66 151.65 156.76 151.57 C 155.86 151.50 155.06 152.16 154.98 153.07 Z M 154.89 154.12 L 154.80 155.12 C 154.72 156.03 155.39 156.82 156.29 156.90 C 157.20 156.98 157.99 156.32 158.07 155.41 L 158.16 154.41 C 158.24 153.51 157.58 152.71 156.67 152.63 C 155.77 152.55 154.97 153.21 154.89 154.12 Z M 154.80 155.12 L 154.72 156.08 C 154.64 156.99 155.30 157.79 156.21 157.87 C 157.11 157.95 157.91 157.28 157.99 156.38 L 158.08 155.41 C 158.16 154.51 157.49 153.71 156.59 153.63 C 155.68 153.55 154.88 154.22 154.80 155.12 Z M 154.72 156.09 L 154.63 157.07 C 154.55 157.97 155.22 158.77 156.12 158.85 C 157.03 158.93 157.82 158.26 157.90 157.35 L 157.99 156.38 C 158.07 155.47 157.40 154.67 156.50 154.59 C 155.59 154.51 154.80 155.18 154.72 156.09 Z M 154.63 157.07 L 154.54 158.09 C 154.46 158.99 155.13 159.79 156.04 159.87 C 156.94 159.94 157.74 159.27 157.82 158.37 L 157.90 157.35 C 157.98 156.45 157.31 155.65 156.41 155.57 C 155.50 155.49 154.71 156.16 154.63 157.07 Z M 154.54 158.09 L 154.45 159.07 C 154.38 159.98 155.05 160.78 155.95 160.85 C 156.86 160.93 157.66 160.26 157.73 159.35 L 157.82 158.37 C 157.90 157.46 157.22 156.67 156.32 156.59 C 155.41 156.51 154.62 157.18 154.54 158.09 Z M 154.45 159.07 L 154.37 160.05 C 154.29 160.96 154.96 161.75 155.87 161.83 C 156.77 161.91 157.57 161.24 157.65 160.34 L 157.73 159.36 C 157.81 158.45 157.14 157.65 156.24 157.57 C 155.33 157.50 154.53 158.17 154.45 159.07 Z M 154.37 160.05 L 154.28 161.07 C 154.20 161.98 154.87 162.78 155.77 162.86 C 156.68 162.94 157.48 162.27 157.56 161.36 L 157.65 160.34 C 157.73 159.43 157.06 158.63 156.15 158.55 C 155.25 158.47 154.45 159.14 154.37 160.05 Z M 154.28 161.08 L 154.19 162.06 C 154.12 162.97 154.79 163.77 155.70 163.84 C 156.60 163.92 157.40 163.25 157.48 162.34 L 157.56 161.36 C 157.64 160.45 156.96 159.65 156.06 159.58 C 155.15 159.50 154.36 160.17 154.28 161.08 Z M 154.19 162.08 L 154.12 163.07 C 154.05 163.98 154.73 164.77 155.63 164.84 C 156.54 164.91 157.33 164.23 157.40 163.32 L 157.48 162.33 C 157.55 161.42 156.87 160.63 155.96 160.56 C 155.05 160.49 154.26 161.17 154.19 162.08 Z M 154.12 163.09 L 154.05 164.11 C 153.99 165.02 154.68 165.80 155.58 165.86 C 156.49 165.92 157.27 165.23 157.33 164.33 L 157.40 163.30 C 157.46 162.40 156.78 161.61 155.87 161.55 C 154.96 161.49 154.18 162.18 154.12 163.09 Z M 154.05 164.11 L 153.98 165.06 C 153.92 165.97 154.61 166.76 155.52 166.82 C 156.42 166.88 157.21 166.19 157.27 165.29 L 157.33 164.33 C 157.40 163.42 156.71 162.64 155.80 162.57 C 154.90 162.51 154.11 163.20 154.05 164.11 Z M 153.99 165.04 L 153.91 166.01 C 153.84 166.92 154.51 167.71 155.42 167.79 C 156.32 167.86 157.12 167.18 157.19 166.28 L 157.27 165.31 C 157.34 164.40 156.66 163.61 155.76 163.53 C 154.85 163.46 154.06 164.14 153.99 165.04 Z M 153.91 166.00 L 153.83 166.99 C 153.75 167.90 154.42 168.70 155.32 168.77 C 156.23 168.85 157.02 168.18 157.10 167.28 L 157.19 166.29 C 157.27 165.38 156.60 164.58 155.69 164.51 C 154.79 164.43 153.99 165.10 153.91 166.00 Z M 153.83 167.00 L 153.74 168.03 C 153.67 168.93 154.35 169.73 155.25 169.80 C 156.16 169.87 156.95 169.20 157.02 168.29 L 157.10 167.27 C 157.17 166.36 156.50 165.57 155.59 165.50 C 154.69 165.43 153.90 166.10 153.83 167.00 Z M 153.75 168.05 L 153.67 169.08 C 153.61 169.98 154.30 170.77 155.20 170.83 C 156.10 170.89 156.89 170.21 156.95 169.30 L 157.02 168.27 C 157.08 167.37 156.40 166.59 155.49 166.52 C 154.59 166.46 153.81 167.14 153.75 168.05 Z M 153.68 169.11 L 153.62 170.08 C 153.58 170.98 154.27 171.75 155.17 171.80 C 156.08 171.85 156.85 171.16 156.90 170.25 L 156.95 169.28 C 157.00 168.38 156.30 167.60 155.40 167.56 C 154.50 167.51 153.72 168.20 153.68 169.11 Z M 153.63 170.12 L 153.60 171.16 C 153.58 172.06 154.29 172.81 155.19 172.84 C 156.09 172.86 156.84 172.15 156.86 171.25 L 156.89 170.21 C 156.91 169.31 156.20 168.56 155.30 168.54 C 154.40 168.51 153.65 169.22 153.63 170.12 Z M 153.62 171.20 L 153.61 172.24 C 153.61 173.13 154.33 173.86 155.23 173.86 C 156.12 173.86 156.84 173.14 156.85 172.25 L 156.85 171.21 C 156.85 170.32 156.13 169.59 155.24 169.59 C 154.34 169.59 153.62 170.31 153.62 171.20 Z M 153.63 172.29 L 153.65 173.00 C 153.67 173.89 154.41 174.58 155.30 174.55 C 156.19 174.53 156.88 173.79 156.86 172.90 L 156.83 172.19 C 156.81 171.31 156.07 170.61 155.18 170.64 C 154.29 170.66 153.60 171.40 153.63 172.29 Z M 156.83 173.04 L 156.87 172.39 C 156.92 171.52 156.25 170.77 155.38 170.72 C 154.51 170.67 153.77 171.33 153.71 172.20 L 153.68 172.86 C 153.63 173.73 154.29 174.47 155.16 174.53 C 156.03 174.58 156.78 173.91 156.83 173.04 Z M 156.82 172.36 L 156.87 171.19 C 156.91 170.34 156.25 169.63 155.41 169.59 C 154.56 169.55 153.85 170.21 153.81 171.05 L 153.76 172.23 C 153.72 173.07 154.38 173.79 155.22 173.83 C 156.07 173.86 156.78 173.21 156.82 172.36 Z M 156.84 171.18 L 156.87 170.56 C 156.90 169.73 156.26 169.04 155.43 169.00 C 154.60 168.97 153.90 169.61 153.87 170.44 L 153.84 171.06 C 153.81 171.89 154.45 172.58 155.28 172.62 C 156.11 172.65 156.81 172.01 156.84 171.18 Z"
      fill="black"
      fill-rule="nonzero" /></svg>