<svg xmlns="http://www.w3.org/2000/svg" width="300" height="300" viewBox="0 0 300 300">
<path d="M 151.51 117.19 L 151.20 118.07 C 150.92 118.85 151.33 119.71 152.11 119.99 C 152.89 120.26 153.75 119.86 154.03 119.07 L 154.34 118.19 C 154.62 117.41 154.21 116.55 153.43 116.27 C 152.65 116.00 151.79 116.41 151.51 117.19 Z M 151.19 118.01 L 150.81 118.99 C 150.50 119.78 150.89 120.67 151.67 120.97 C 152.46 121.28 153.35 120.89 153.66 120.11 L 154.04 119.13 C 154.35 118.34 153.96 117.46 153.17 117.15 C 152.39 116.84 151.50 117.23 151.19 118.01 Z M 150.81 118.94 L 150.42 119.87 C 150.08 120.65 150.45 121.56 151.23 121.90 C 152.01 122.23 152.92 121.87 153.26 121.08 L 153.65 120.15 C 153.99 119.37 153.62 118.46 152.84 118.13 C 152.05 117.79 151.15 118.16 150.81 118.94 Z M 150.42 119.85 L 150.01 120.77 C 149.67 121.55 150.02 122.47 150.80 122.81 C 151.58 123.16 152.49 122.80 152.84 122.02 L 153.25 121.10 C 153.59 120.32 153.24 119.41 152.46 119.06 C 151.68 118.72 150.77 119.07 150.42 119.85 Z M 150.02 120.76 L 149.60 121.70 C 149.25 122.47 149.59 123.39 150.37 123.74 C 151.14 124.09 152.06 123.75 152.41 122.97 L 152.83 122.04 C 153.19 121.26 152.84 120.34 152.06 119.99 C 151.29 119.64 150.37 119.99 150.02 120.76 Z M 149.61 121.69 L 149.20 122.57 C 148.84 123.34 149.17 124.25 149.95 124.61 C 150.72 124.97 151.63 124.63 151.99 123.86 L 152.40 122.98 C 152.76 122.21 152.42 121.30 151.65 120.94 C 150.88 120.58 149.96 120.91 149.61 121.69 Z M 149.21 122.55 L 148.79 123.42 C 148.42 124.19 148.75 125.11 149.51 125.47 C 150.28 125.84 151.20 125.52 151.57 124.75 L 151.98 123.88 C 152.35 123.11 152.02 122.19 151.26 121.83 C 150.49 121.46 149.57 121.78 149.21 122.55 Z M 148.81 123.40 L 148.34 124.31 C 147.96 125.07 148.27 125.99 149.03 126.38 C 149.78 126.76 150.71 126.45 151.09 125.70 L 151.55 124.78 C 151.93 124.02 151.63 123.10 150.87 122.71 C 150.11 122.33 149.19 122.64 148.81 123.40 Z M 148.36 124.28 L 147.90 125.15 C 147.50 125.89 147.77 126.82 148.52 127.23 C 149.27 127.63 150.20 127.35 150.60 126.60 L 151.07 125.73 C 151.47 124.99 151.19 124.06 150.44 123.65 C 149.70 123.25 148.77 123.53 148.36 124.28 Z M 147.91 125.13 L 147.42 126.01 C 147.00 126.74 147.27 127.68 148.01 128.09 C 148.75 128.50 149.68 128.24 150.09 127.50 L 150.58 126.62 C 151.00 125.88 150.73 124.95 150.00 124.54 C 149.26 124.12 148.32 124.39 147.91 125.13 Z M 147.42 126.00 L 146.93 126.87 C 146.52 127.61 146.78 128.54 147.52 128.96 C 148.25 129.37 149.19 129.11 149.60 128.37 L 150.09 127.50 C 150.50 126.77 150.24 125.84 149.51 125.42 C 148.77 125.01 147.84 125.27 147.42 126.00 Z M 146.94 126.87 L 146.45 127.74 C 146.03 128.47 146.29 129.40 147.02 129.82 C 147.76 130.23 148.69 129.98 149.10 129.24 L 149.60 128.37 C 150.01 127.64 149.75 126.71 149.02 126.29 C 148.28 125.88 147.35 126.14 146.94 126.87 Z M 146.46 127.73 L 145.95 128.60 C 145.53 129.33 145.78 130.26 146.51 130.68 C 147.23 131.11 148.16 130.86 148.59 130.13 L 149.09 129.25 C 149.51 128.53 149.26 127.59 148.54 127.17 C 147.81 126.75 146.88 127.00 146.46 127.73 Z M 145.97 128.59 L 145.46 129.44 C 145.03 130.16 145.26 131.09 145.98 131.52 C 146.70 131.95 147.63 131.72 148.06 131.00 L 148.57 130.14 C 149.00 129.43 148.76 128.50 148.05 128.07 C 147.33 127.64 146.40 127.87 145.97 128.59 Z M 145.47 129.43 L 144.94 130.29 C 144.51 131.00 144.73 131.93 145.44 132.36 C 146.15 132.80 147.08 132.58 147.52 131.87 L 148.04 131.01 C 148.48 130.30 148.26 129.37 147.55 128.94 C 146.84 128.50 145.91 128.72 145.47 129.43 Z M 144.96 130.27 L 144.42 131.12 C 143.98 131.82 144.18 132.75 144.89 133.20 C 145.59 133.64 146.52 133.43 146.96 132.73 L 147.50 131.88 C 147.94 131.18 147.74 130.25 147.04 129.81 C 146.33 129.36 145.41 129.57 144.96 130.27 Z M 144.44 131.11 L 143.89 131.94 C 143.44 132.64 143.63 133.56 144.32 134.02 C 145.01 134.47 145.94 134.28 146.39 133.59 L 146.94 132.75 C 147.40 132.06 147.20 131.13 146.51 130.68 C 145.82 130.22 144.89 130.42 144.44 131.11 Z M 143.91 131.92 L 143.35 132.75 C 142.89 133.43 143.06 134.35 143.74 134.82 C 144.42 135.28 145.35 135.11 145.81 134.43 L 146.37 133.60 C 146.84 132.92 146.66 132.00 145.98 131.53 C 145.30 131.07 144.37 131.24 143.91 131.92 Z M 143.37 132.73 L 142.79 133.54 C 142.32 134.21 142.47 135.14 143.14 135.61 C 143.81 136.09 144.74 135.93 145.21 135.26 L 145.79 134.45 C 146.27 133.78 146.11 132.85 145.44 132.38 C 144.77 131.90 143.85 132.06 143.37 132.73 Z M 142.81 133.53 L 142.22 134.33 C 141.73 134.99 141.87 135.91 142.53 136.40 C 143.19 136.88 144.12 136.74 144.60 136.08 L 145.19 135.28 C 145.68 134.62 145.54 133.69 144.88 133.21 C 144.22 132.73 143.29 132.87 142.81 133.53 Z M 142.23 134.32 L 141.62 135.14 C 141.13 135.79 141.26 136.71 141.91 137.20 C 142.56 137.69 143.48 137.56 143.97 136.91 L 144.59 136.09 C 145.08 135.44 144.95 134.52 144.30 134.03 C 143.65 133.54 142.72 133.67 142.23 134.32 Z M 141.63 135.13 L 141.01 135.92 C 140.52 136.57 140.64 137.49 141.28 137.98 C 141.92 138.48 142.84 138.36 143.34 137.72 L 143.95 136.93 C 144.45 136.28 144.33 135.36 143.69 134.87 C 143.05 134.37 142.13 134.49 141.63 135.13 Z M 141.04 135.90 L 140.41 136.67 C 139.90 137.30 139.99 138.22 140.62 138.73 C 141.24 139.24 142.16 139.15 142.68 138.52 L 143.31 137.75 C 143.82 137.12 143.73 136.20 143.10 135.69 C 142.48 135.18 141.55 135.27 141.04 135.90 Z M 140.45 136.63 L 139.78 137.39 C 139.25 138.00 139.31 138.92 139.91 139.45 C 140.51 139.98 141.43 139.92 141.97 139.32 L 142.64 138.56 C 143.17 137.96 143.11 137.04 142.51 136.50 C 141.90 135.97 140.98 136.03 140.45 136.63 Z M 139.81 137.36 L 139.17 138.04 C 138.62 138.63 138.65 139.55 139.24 140.10 C 139.82 140.65 140.74 140.62 141.29 140.03 L 141.93 139.35 C 142.48 138.77 142.45 137.85 141.87 137.30 C 141.28 136.75 140.36 136.78 139.81 137.36 Z M 139.24 137.99 L 138.53 138.66 C 137.95 139.21 137.92 140.13 138.47 140.71 C 139.02 141.29 139.93 141.31 140.51 140.76 L 141.23 140.09 C 141.81 139.54 141.83 138.63 141.28 138.04 C 140.73 137.46 139.82 137.44 139.24 137.99 Z M 138.64 138.57 L 137.86 139.18 C 137.23 139.67 137.12 140.57 137.61 141.20 C 138.09 141.83 139.00 141.94 139.63 141.45 L 140.40 140.85 C 141.03 140.36 141.15 139.46 140.66 138.83 C 140.17 138.20 139.27 138.09 138.64 138.57 Z M 137.93 139.13 L 137.10 139.70 C 136.45 140.15 136.28 141.04 136.73 141.70 C 137.18 142.35 138.07 142.52 138.73 142.07 L 139.56 141.50 C 140.21 141.05 140.38 140.16 139.93 139.50 C 139.48 138.85 138.58 138.68 137.93 139.13 Z M 137.13 139.69 L 136.45 140.14 C 135.79 140.57 135.61 141.46 136.04 142.12 C 136.48 142.78 137.37 142.96 138.03 142.53 L 138.70 142.08 C 139.36 141.65 139.54 140.76 139.11 140.10 C 138.67 139.44 137.79 139.25 137.13 139.69 Z"
      fill="black"
      fill-rule="nonzero" /><path d="M 147.71 130.69 L 148.66 130.96 C 149.46 131.19 150.29 130.73 150.51 129.93 C 150.74 129.13 150.28 128.30 149.48 128.07 L 148.53 127.80 C 147.73 127.58 146.90 128.04 146.68 128.84 C 146.45 129.64 146.92 130.47 147.71 130.69 Z M 148.67 130.99 L 149.63 131.26 C 150.45 131.48 151.29 131.00 151.51 130.18 C 151.73 129.37 151.25 128.53 150.44 128.30 L 149.47 128.04 C 148.66 127.82 147.82 128.30 147.59 129.12 C 147.37 129.93 147.85 130.77 148.67 130.99 Z M 149.67 131.28 L 150.63 131.52 C 151.46 131.72 152.30 131.21 152.50 130.38 C 152.71 129.55 152.20 128.71 151.37 128.51 L 150.40 128.28 C 149.57 128.07 148.73 128.58 148.53 129.41 C 148.33 130.24 148.84 131.08 149.67 131.28 Z M 150.70 131.55 L 151.67 131.74 C 152.52 131.90 153.34 131.35 153.50 130.50 C 153.67 129.66 153.12 128.84 152.27 128.67 L 151.30 128.48 C 150.45 128.32 149.63 128.87 149.47 129.72 C 149.30 130.56 149.86 131.38 150.70 131.55 Z M 151.76 131.76 L 152.72 131.89 C 153.58 132.01 154.37 131.41 154.49 130.55 C 154.61 129.69 154.01 128.90 153.15 128.79 L 152.19 128.65 C 151.33 128.53 150.54 129.13 150.42 129.99 C 150.30 130.85 150.90 131.64 151.76 131.76 Z M 152.80 131.90 L 153.85 132.00 C 154.71 132.08 155.47 131.44 155.55 130.58 C 155.63 129.71 155.00 128.95 154.13 128.87 L 153.08 128.77 C 152.22 128.70 151.45 129.33 151.38 130.20 C 151.30 131.06 151.93 131.82 152.80 131.90 Z M 153.89 132.00 L 154.92 132.07 C 155.79 132.12 156.53 131.46 156.59 130.59 C 156.64 129.73 155.98 128.98 155.12 128.93 L 154.09 128.87 C 153.22 128.81 152.48 129.47 152.42 130.34 C 152.37 131.20 153.03 131.95 153.89 132.00 Z M 154.94 132.07 L 155.93 132.11 C 156.80 132.15 157.53 131.49 157.58 130.62 C 157.62 129.76 156.95 129.02 156.08 128.98 L 155.09 128.93 C 154.23 128.89 153.49 129.56 153.45 130.42 C 153.41 131.29 154.08 132.02 154.94 132.07 Z M 155.94 132.11 L 156.99 132.16 C 157.85 132.19 158.58 131.52 158.62 130.66 C 158.66 129.80 157.99 129.07 157.13 129.03 L 156.08 128.98 C 155.21 128.94 154.48 129.61 154.44 130.48 C 154.41 131.34 155.08 132.07 155.94 132.11 Z M 157.01 132.15 L 157.94 132.18 C 158.80 132.21 159.52 131.54 159.55 130.67 C 159.58 129.81 158.90 129.09 158.04 129.06 L 157.11 129.03 C 156.25 129.00 155.53 129.68 155.50 130.54 C 155.47 131.40 156.15 132.12 157.01 132.15 Z M 157.97 132.18 L 158.96 132.19 C 159.82 132.20 160.52 131.51 160.53 130.65 C 160.54 129.80 159.85 129.09 159.00 129.08 L 158.01 129.07 C 157.15 129.06 156.45 129.75 156.44 130.60 C 156.43 131.46 157.11 132.17 157.97 132.18 Z M 158.98 132.18 L 159.98 132.18 C 160.83 132.18 161.53 131.49 161.53 130.64 C 161.53 129.78 160.84 129.09 159.98 129.09 L 158.98 129.09 C 158.13 129.09 157.43 129.78 157.43 130.63 C 157.43 131.49 158.12 132.18 158.98 132.18 Z M 159.98 132.17 L 160.97 132.17 C 161.82 132.17 162.51 131.48 162.51 130.64 C 162.51 129.79 161.82 129.10 160.97 129.10 L 159.98 129.10 C 159.13 129.10 158.44 129.79 158.44 130.64 C 158.44 131.48 159.13 132.17 159.98 132.17 Z M 160.97 132.16 L 161.94 132.16 C 162.78 132.16 163.46 131.48 163.46 130.64 C 163.46 129.79 162.78 129.11 161.94 129.11 L 160.97 129.11 C 160.13 129.11 159.45 129.79 159.45 130.64 C 159.45 131.48 160.13 132.16 160.97 132.16 Z M 161.94 132.14 L 162.93 132.14 C 163.76 132.14 164.44 131.47 164.44 130.64 C 164.44 129.80 163.76 129.13 162.93 129.13 L 161.94 129.13 C 161.10 129.13 160.43 129.80 160.43 130.64 C 160.43 131.47 161.10 132.14 161.94 132.14 Z M 162.93 132.13 L 163.97 132.13 C 164.79 132.13 165.46 131.46 165.46 130.63 C 165.46 129.81 164.79 129.14 163.97 129.14 L 162.93 129.14 C 162.10 129.14 161.43 129.81 161.43 130.64 C 161.43 131.46 162.10 132.13 162.93 132.13 Z M 163.98 132.12 L 165.00 132.11 C 165.81 132.10 166.47 131.43 166.46 130.61 C 166.46 129.80 165.79 129.14 164.97 129.14 L 163.95 129.15 C 163.13 129.16 162.48 129.83 162.48 130.65 C 162.49 131.47 163.16 132.12 163.98 132.12 Z M 165.03 132.10 L 166.04 132.06 C 166.85 132.04 167.48 131.36 167.46 130.55 C 167.43 129.73 166.75 129.10 165.94 129.12 L 164.93 129.16 C 164.12 129.18 163.49 129.86 163.51 130.67 C 163.54 131.49 164.22 132.12 165.03 132.10 Z M 166.10 132.05 L 167.18 131.96 C 167.98 131.90 168.58 131.20 168.52 130.39 C 168.45 129.59 167.75 128.99 166.95 129.05 L 165.87 129.14 C 165.07 129.20 164.47 129.91 164.53 130.71 C 164.60 131.51 165.30 132.11 166.10 132.05 Z M 167.24 131.94 L 168.17 131.83 C 168.96 131.74 169.53 131.01 169.43 130.22 C 169.34 129.43 168.62 128.86 167.82 128.96 L 166.89 129.07 C 166.10 129.17 165.53 129.89 165.63 130.68 C 165.72 131.47 166.44 132.04 167.24 131.94 Z M 168.12 131.82 L 169.18 131.73 C 169.97 131.67 170.55 130.97 170.48 130.18 C 170.42 129.40 169.72 128.81 168.93 128.88 L 167.87 128.97 C 167.09 129.03 166.50 129.73 166.57 130.52 C 166.63 131.31 167.33 131.89 168.12 131.82 Z M 168.30 129.10 L 167.83 129.39 C 167.16 129.81 166.96 130.69 167.38 131.36 C 167.80 132.02 168.68 132.23 169.35 131.81 L 169.81 131.51 C 170.48 131.09 170.68 130.21 170.26 129.55 C 169.84 128.88 168.96 128.68 168.30 129.10 Z M 168.06 129.27 L 166.99 129.70 C 166.26 130.00 165.90 130.83 166.20 131.56 C 166.49 132.29 167.32 132.64 168.05 132.35 L 169.12 131.92 C 169.85 131.63 170.21 130.80 169.92 130.07 C 169.62 129.34 168.79 128.98 168.06 129.27 Z M 167.03 129.69 L 165.96 130.08 C 165.22 130.35 164.84 131.17 165.12 131.91 C 165.39 132.65 166.21 133.03 166.95 132.76 L 168.01 132.37 C 168.75 132.09 169.13 131.27 168.86 130.53 C 168.59 129.79 167.77 129.41 167.03 129.69 Z M 165.99 130.06 L 165.07 130.38 C 164.32 130.64 163.93 131.45 164.18 132.20 C 164.44 132.94 165.25 133.34 166.00 133.09 L 166.92 132.77 C 167.67 132.51 168.06 131.70 167.81 130.95 C 167.55 130.21 166.74 129.81 165.99 130.06 Z M 165.10 130.37 L 164.18 130.66 C 163.43 130.90 163.01 131.71 163.25 132.46 C 163.49 133.22 164.30 133.63 165.06 133.39 L 165.97 133.10 C 166.73 132.86 167.14 132.05 166.90 131.30 C 166.66 130.54 165.85 130.13 165.10 130.37 Z M 164.21 130.65 L 163.25 130.93 C 162.49 131.16 162.06 131.96 162.28 132.72 C 162.51 133.49 163.31 133.92 164.08 133.69 L 165.03 133.41 C 165.79 133.18 166.23 132.38 166.00 131.61 C 165.77 130.85 164.97 130.42 164.21 130.65 Z M 163.28 130.91 L 162.31 131.18 C 161.53 131.39 161.08 132.19 161.29 132.96 C 161.50 133.74 162.30 134.19 163.08 133.98 L 164.05 133.71 C 164.82 133.50 165.28 132.70 165.06 131.93 C 164.85 131.15 164.05 130.70 163.28 130.91 Z M 162.33 131.16 L 161.35 131.41 C 160.57 131.61 160.09 132.41 160.30 133.19 C 160.50 133.98 161.30 134.45 162.08 134.25 L 163.06 134.00 C 163.84 133.80 164.32 133.00 164.11 132.21 C 163.91 131.43 163.11 130.96 162.33 131.16 Z M 161.34 131.38 L 160.31 131.65 C 159.51 131.86 159.03 132.67 159.24 133.47 C 159.44 134.27 160.26 134.75 161.06 134.55 L 162.09 134.28 C 162.89 134.07 163.37 133.25 163.16 132.45 C 162.96 131.65 162.14 131.17 161.34 131.38 Z M 159.87 131.79 L 159.10 132.27 C 158.38 132.72 158.17 133.67 158.62 134.39 C 159.07 135.11 160.02 135.33 160.74 134.88 L 161.50 134.40 C 162.22 133.95 162.44 133.00 161.99 132.28 C 161.54 131.56 160.59 131.34 159.87 131.79 Z M 158.38 133.27 L 158.20 134.15 C 158.04 135.00 158.59 135.83 159.45 136.00 C 160.30 136.17 161.13 135.61 161.30 134.76 L 161.47 133.88 C 161.64 133.02 161.08 132.20 160.23 132.03 C 159.37 131.86 158.54 132.42 158.38 133.27 Z M 158.16 134.53 L 158.22 135.59 C 158.26 136.47 159.01 137.14 159.88 137.10 C 160.76 137.05 161.43 136.31 161.39 135.43 L 161.34 134.37 C 161.29 133.50 160.55 132.82 159.67 132.87 C 158.79 132.91 158.12 133.66 158.16 134.53 Z M 158.21 135.46 L 158.18 136.43 C 158.15 137.31 158.84 138.04 159.72 138.07 C 160.61 138.10 161.34 137.41 161.37 136.52 L 161.40 135.56 C 161.43 134.68 160.73 133.94 159.85 133.91 C 158.97 133.89 158.23 134.58 158.21 135.46 Z M 158.20 136.21 L 158.02 137.25 C 157.88 138.12 158.47 138.94 159.34 139.09 C 160.21 139.23 161.04 138.64 161.18 137.77 L 161.35 136.74 C 161.50 135.86 160.91 135.04 160.04 134.90 C 159.16 134.75 158.34 135.34 158.20 136.21 Z M 158.06 137.07 L 157.78 138.06 C 157.54 138.91 158.04 139.79 158.89 140.03 C 159.75 140.27 160.63 139.78 160.87 138.92 L 161.15 137.94 C 161.38 137.09 160.89 136.20 160.04 135.96 C 159.18 135.73 158.30 136.22 158.06 137.07 Z M 157.81 137.97 L 157.48 138.92 C 157.20 139.76 157.65 140.68 158.49 140.96 C 159.32 141.25 160.24 140.80 160.52 139.96 L 160.85 139.01 C 161.13 138.17 160.68 137.26 159.84 136.97 C 159.00 136.68 158.09 137.13 157.81 137.97 Z M 157.49 138.88 L 157.13 139.86 C 156.83 140.69 157.25 141.61 158.09 141.92 C 158.92 142.23 159.84 141.80 160.15 140.97 L 160.51 140.00 C 160.82 139.16 160.39 138.24 159.56 137.93 C 158.73 137.62 157.80 138.05 157.49 138.88 Z M 157.15 139.82 L 156.80 140.70 C 156.47 141.53 156.87 142.46 157.70 142.79 C 158.52 143.12 159.46 142.72 159.79 141.89 L 160.14 141.01 C 160.47 140.18 160.06 139.25 159.24 138.92 C 158.41 138.59 157.48 138.99 157.15 139.82 Z M 156.81 140.67 L 156.44 141.55 C 156.09 142.36 156.47 143.31 157.29 143.66 C 158.10 144.01 159.05 143.63 159.40 142.81 L 159.77 141.93 C 160.12 141.11 159.74 140.17 158.92 139.82 C 158.11 139.47 157.16 139.85 156.81 140.67 Z M 156.45 141.52 L 156.03 142.46 C 155.67 143.27 156.03 144.22 156.84 144.58 C 157.65 144.94 158.60 144.58 158.96 143.77 L 159.38 142.83 C 159.74 142.02 159.38 141.07 158.57 140.71 C 157.76 140.35 156.81 140.71 156.45 141.52 Z M 156.04 142.45 L 155.63 143.34 C 155.26 144.14 155.61 145.09 156.42 145.47 C 157.22 145.84 158.17 145.48 158.54 144.68 L 158.95 143.79 C 159.32 142.98 158.97 142.03 158.17 141.66 C 157.36 141.29 156.41 141.64 156.04 142.45 Z M 155.64 143.32 L 155.21 144.24 C 154.83 145.04 155.16 145.99 155.96 146.37 C 156.76 146.75 157.71 146.41 158.09 145.61 L 158.53 144.70 C 158.91 143.90 158.57 142.95 157.77 142.57 C 156.98 142.19 156.02 142.52 155.64 143.32 Z M 155.22 144.22 L 154.78 145.10 C 154.39 145.89 154.71 146.85 155.50 147.24 C 156.30 147.63 157.25 147.31 157.65 146.52 L 158.08 145.63 C 158.47 144.84 158.15 143.88 157.36 143.49 C 156.57 143.10 155.61 143.42 155.22 144.22 Z M 154.79 145.07 L 154.33 145.96 C 153.93 146.74 154.24 147.71 155.02 148.11 C 155.80 148.52 156.77 148.21 157.17 147.43 L 157.63 146.54 C 158.04 145.76 157.73 144.79 156.95 144.39 C 156.16 143.98 155.20 144.29 154.79 145.07 Z M 154.35 145.93 L 153.86 146.83 C 153.44 147.60 153.73 148.57 154.51 148.99 C 155.28 149.41 156.25 149.13 156.67 148.35 L 157.16 147.46 C 157.58 146.68 157.29 145.71 156.52 145.29 C 155.74 144.87 154.77 145.16 154.35 145.93 Z M 153.88 146.80 L 153.39 147.68 C 152.95 148.44 153.22 149.42 153.99 149.85 C 154.76 150.29 155.73 150.02 156.17 149.25 L 156.66 148.37 C 157.09 147.61 156.82 146.63 156.05 146.20 C 155.29 145.76 154.31 146.03 153.88 146.80 Z M 153.40 147.66 L 152.89 148.53 C 152.45 149.29 152.70 150.27 153.47 150.71 C 154.23 151.15 155.21 150.90 155.65 150.13 L 156.16 149.26 C 156.60 148.50 156.34 147.53 155.58 147.08 C 154.82 146.64 153.84 146.90 153.40 147.66 Z M 152.90 148.51 L 152.38 149.38 C 151.93 150.14 152.18 151.12 152.93 151.57 C 153.69 152.02 154.67 151.77 155.12 151.02 L 155.64 150.15 C 156.09 149.39 155.84 148.41 155.09 147.96 C 154.33 147.51 153.35 147.76 152.90 148.51 Z M 152.40 149.37 L 151.88 150.21 C 151.42 150.96 151.65 151.94 152.40 152.40 C 153.14 152.86 154.12 152.63 154.58 151.88 L 155.10 151.03 C 155.57 150.29 155.33 149.31 154.58 148.85 C 153.84 148.39 152.86 148.62 152.40 149.37 Z M 151.90 150.19 L 151.36 151.03 C 150.89 151.76 151.10 152.74 151.84 153.22 C 152.58 153.69 153.56 153.47 154.03 152.74 L 154.57 151.90 C 155.04 151.16 154.82 150.18 154.08 149.71 C 153.35 149.24 152.37 149.45 151.90 150.19 Z M 151.38 151.01 L 150.82 151.84 C 150.34 152.57 150.54 153.55 151.27 154.03 C 151.99 154.52 152.98 154.32 153.46 153.59 L 154.01 152.76 C 154.49 152.03 154.30 151.05 153.57 150.56 C 152.84 150.08 151.86 150.28 151.38 151.01 Z M 150.84 151.83 L 150.28 152.66 C 149.79 153.38 149.97 154.36 150.69 154.85 C 151.41 155.34 152.39 155.15 152.88 154.43 L 153.45 153.60 C 153.93 152.88 153.75 151.90 153.03 151.41 C 152.31 150.92 151.33 151.11 150.84 151.83 Z M 150.29 152.65 L 149.71 153.48 C 149.22 154.20 149.40 155.17 150.11 155.67 C 150.83 156.16 151.80 155.98 152.30 155.27 L 152.87 154.44 C 153.37 153.72 153.19 152.74 152.47 152.25 C 151.76 151.76 150.78 151.94 150.29 152.65 Z M 149.73 153.46 L 149.15 154.28 C 148.65 154.98 148.81 155.96 149.52 156.46 C 150.22 156.97 151.20 156.80 151.70 156.10 L 152.28 155.29 C 152.78 154.58 152.62 153.60 151.92 153.10 C 151.21 152.59 150.23 152.76 149.73 153.46 Z M 149.18 154.24 L 148.57 155.05 C 148.05 155.74 148.19 156.72 148.88 157.24 C 149.57 157.76 150.55 157.62 151.07 156.93 L 151.68 156.13 C 152.20 155.44 152.06 154.46 151.37 153.94 C 150.68 153.42 149.70 153.55 149.18 154.24 Z M 148.61 155.01 L 147.97 155.79 C 147.43 156.46 147.54 157.44 148.21 157.99 C 148.88 158.53 149.86 158.42 150.40 157.75 L 151.04 156.97 C 151.58 156.30 151.47 155.32 150.80 154.77 C 150.13 154.23 149.15 154.34 148.61 155.01 Z M 148.01 155.75 L 147.37 156.50 C 146.80 157.15 146.87 158.13 147.52 158.69 C 148.18 159.26 149.16 159.19 149.72 158.54 L 150.37 157.79 C 150.93 157.14 150.86 156.16 150.21 155.59 C 149.56 155.03 148.57 155.10 148.01 155.75 Z M 147.40 156.46 L 146.72 157.19 C 146.14 157.82 146.18 158.81 146.81 159.39 C 147.44 159.97 148.42 159.94 149.01 159.31 L 149.69 158.57 C 150.27 157.94 150.23 156.96 149.60 156.37 C 148.97 155.79 147.99 155.83 147.40 156.46 Z M 146.75 157.17 L 146.05 157.89 C 145.46 158.50 145.47 159.49 146.09 160.09 C 146.71 160.68 147.69 160.67 148.29 160.05 L 148.98 159.33 C 149.58 158.71 149.56 157.73 148.95 157.13 C 148.33 156.53 147.35 156.55 146.75 157.17 Z M 146.07 157.87 L 145.34 158.61 C 144.73 159.22 144.74 160.20 145.35 160.80 C 145.95 161.41 146.94 161.41 147.54 160.80 L 148.27 160.06 C 148.88 159.46 148.87 158.47 148.27 157.87 C 147.66 157.26 146.67 157.27 146.07 157.87 Z M 145.37 158.58 L 144.68 159.24 C 144.05 159.83 144.03 160.81 144.62 161.43 C 145.21 162.05 146.19 162.08 146.81 161.49 L 147.51 160.83 C 148.13 160.24 148.15 159.26 147.56 158.64 C 146.98 158.01 145.99 157.99 145.37 158.58 Z M 144.76 159.17 L 144.01 159.79 C 143.35 160.34 143.25 161.31 143.80 161.97 C 144.34 162.63 145.31 162.72 145.97 162.18 L 146.73 161.56 C 147.38 161.01 147.48 160.04 146.93 159.38 C 146.39 158.72 145.42 158.63 144.76 159.17 Z M 144.14 159.70 L 143.32 160.24 C 142.60 160.71 142.41 161.66 142.87 162.38 C 143.34 163.09 144.29 163.28 145.00 162.82 L 145.83 162.27 C 146.54 161.81 146.74 160.85 146.28 160.14 C 145.81 159.43 144.85 159.23 144.14 159.70 Z M 143.43 160.18 L 142.59 160.63 C 141.85 161.04 141.57 161.97 141.97 162.71 C 142.38 163.46 143.31 163.73 144.05 163.33 L 144.89 162.88 C 145.63 162.48 145.91 161.55 145.51 160.80 C 145.11 160.06 144.18 159.78 143.43 160.18 Z M 142.73 160.58 L 141.75 160.99 C 140.97 161.32 140.61 162.21 140.94 162.99 C 141.27 163.77 142.16 164.13 142.94 163.80 L 143.92 163.39 C 144.69 163.06 145.06 162.17 144.73 161.39 C 144.40 160.61 143.51 160.25 142.73 160.58 Z M 141.92 160.93 L 140.91 161.23 C 140.10 161.46 139.63 162.31 139.87 163.11 C 140.10 163.92 140.94 164.38 141.75 164.15 L 142.77 163.86 C 143.58 163.62 144.04 162.78 143.81 161.97 C 143.57 161.17 142.73 160.70 141.92 160.93 Z M 141.06 161.20 L 140.06 161.39 C 139.24 161.53 138.69 162.32 138.84 163.14 C 138.99 163.96 139.78 164.50 140.60 164.36 L 141.60 164.17 C 142.42 164.03 142.96 163.24 142.81 162.42 C 142.66 161.60 141.88 161.06 141.06 161.20 Z M 140.21 161.38 L 139.24 161.45 C 138.42 161.52 137.80 162.24 137.86 163.06 C 137.93 163.88 138.64 164.50 139.47 164.44 L 140.44 164.36 C 141.26 164.30 141.88 163.58 141.82 162.76 C 141.75 161.93 141.04 161.32 140.21 161.38 Z M 139.78 161.53 L 138.90 161.27 C 138.12 161.03 137.30 161.47 137.06 162.25 C 136.83 163.03 137.27 163.86 138.05 164.09 L 138.93 164.36 C 139.71 164.59 140.53 164.15 140.77 163.37 C 141.00 162.59 140.56 161.77 139.78 161.53 Z M 139.75 161.98 L 139.33 161.21 C 138.94 160.51 138.06 160.25 137.36 160.63 C 136.65 161.02 136.39 161.90 136.78 162.60 L 137.20 163.38 C 137.59 164.08 138.47 164.34 139.17 163.96 C 139.88 163.57 140.14 162.69 139.75 161.98 Z M 139.47 161.63 L 139.29 160.74 C 139.14 159.95 138.38 159.45 137.60 159.60 C 136.82 159.75 136.31 160.51 136.46 161.29 L 136.64 162.18 C 136.79 162.97 137.55 163.48 138.33 163.32 C 139.11 163.17 139.62 162.41 139.47 161.63 Z M 139.31 160.87 L 139.20 159.79 C 139.11 159.00 138.41 158.43 137.62 158.51 C 136.83 158.59 136.26 159.29 136.34 160.08 L 136.45 161.16 C 136.53 161.95 137.24 162.52 138.03 162.44 C 138.82 162.36 139.39 161.66 139.31 160.87 Z M 139.19 159.83 L 139.13 158.91 C 139.07 158.12 138.38 157.53 137.60 157.59 C 136.81 157.64 136.22 158.33 136.27 159.12 L 136.34 160.04 C 136.40 160.83 137.08 161.42 137.87 161.36 C 138.66 161.31 139.25 160.62 139.19 159.83 Z"
      fill="black"
      fill-rule="nonzero" /><path d="M 142.17 141.71 L 142.83 142.39 C 143.40 142.98 144.35 143.00 144.94 142.42 C 145.54 141.85 145.55 140.90 144.98 140.30 L 144.32 139.62 C 143.74 139.03 142.80 139.01 142.20 139.59 C 141.61 140.16 141.59 141.11 142.17 141.71 Z M 142.83 142.46 L 143.56 143.17 C 144.17 143.76 145.15 143.75 145.75 143.13 C 146.34 142.51 146.33 141.53 145.71 140.94 L 144.98 140.23 C 144.36 139.64 143.38 139.65 142.79 140.27 C 142.19 140.88 142.21 141.87 142.83 142.46 Z M 143.59 143.25 L 144.36 143.92 C 145.02 144.50 146.03 144.43 146.60 143.77 C 147.18 143.11 147.11 142.11 146.45 141.53 L 145.68 140.86 C 145.02 140.28 144.02 140.35 143.44 141.01 C 142.86 141.67 142.93 142.67 143.59 143.25 Z M 144.40 143.97 L 145.19 144.62 C 145.88 145.17 146.88 145.07 147.44 144.39 C 148.00 143.70 147.90 142.69 147.21 142.14 L 146.42 141.49 C 145.73 140.93 144.72 141.03 144.17 141.72 C 143.61 142.40 143.71 143.41 144.40 143.97 Z M 145.21 144.63 L 145.98 145.25 C 146.68 145.80 147.69 145.68 148.24 144.99 C 148.79 144.29 148.67 143.28 147.97 142.73 L 147.20 142.12 C 146.50 141.57 145.49 141.68 144.94 142.38 C 144.39 143.07 144.51 144.08 145.21 144.63 Z M 145.98 145.25 L 146.79 145.90 C 147.49 146.45 148.50 146.33 149.05 145.64 C 149.61 144.94 149.49 143.93 148.79 143.37 L 147.98 142.73 C 147.28 142.18 146.27 142.29 145.72 142.99 C 145.16 143.69 145.28 144.70 145.98 145.25 Z M 146.77 145.89 L 147.53 146.50 C 148.22 147.06 149.24 146.95 149.80 146.26 C 150.36 145.57 150.25 144.55 149.56 143.99 L 148.81 143.38 C 148.11 142.82 147.10 142.93 146.54 143.62 C 145.97 144.31 146.08 145.33 146.77 145.89 Z M 147.51 146.49 L 148.25 147.11 C 148.94 147.68 149.96 147.58 150.53 146.90 C 151.10 146.21 151.01 145.19 150.32 144.61 L 149.58 144.00 C 148.89 143.42 147.87 143.52 147.30 144.21 C 146.72 144.89 146.82 145.92 147.51 146.49 Z M 148.24 147.10 L 149.01 147.75 C 149.69 148.33 150.72 148.24 151.29 147.55 C 151.87 146.87 151.78 145.84 151.10 145.26 L 150.33 144.62 C 149.64 144.04 148.62 144.13 148.04 144.82 C 147.47 145.50 147.55 146.53 148.24 147.10 Z M 149.02 147.76 L 149.80 148.40 C 150.49 148.98 151.51 148.88 152.08 148.19 C 152.66 147.50 152.56 146.48 151.87 145.90 L 151.09 145.26 C 150.40 144.68 149.38 144.78 148.80 145.47 C 148.23 146.16 148.32 147.18 149.02 147.76 Z M 149.81 148.42 L 150.57 149.04 C 151.27 149.61 152.29 149.50 152.86 148.80 C 153.43 148.11 153.32 147.08 152.63 146.52 L 151.86 145.89 C 151.16 145.33 150.14 145.43 149.57 146.13 C 149.01 146.82 149.11 147.85 149.81 148.42 Z M 150.57 149.04 L 151.35 149.68 C 152.05 150.24 153.07 150.14 153.64 149.45 C 154.21 148.75 154.10 147.73 153.41 147.16 L 152.63 146.52 C 151.93 145.95 150.91 146.05 150.34 146.75 C 149.77 147.44 149.87 148.47 150.57 149.04 Z M 151.34 149.66 L 152.09 150.30 C 152.78 150.87 153.80 150.78 154.38 150.10 C 154.96 149.41 154.87 148.39 154.18 147.81 L 153.43 147.17 C 152.74 146.60 151.71 146.69 151.14 147.37 C 150.56 148.06 150.65 149.08 151.34 149.66 Z M 152.08 150.28 L 152.84 150.93 C 153.52 151.52 154.54 151.44 155.12 150.76 C 155.71 150.08 155.63 149.06 154.95 148.48 L 154.19 147.82 C 153.51 147.24 152.49 147.32 151.91 147.99 C 151.32 148.67 151.40 149.70 152.08 150.28 Z M 152.83 150.92 L 153.60 151.59 C 154.27 152.18 155.29 152.11 155.88 151.44 C 156.47 150.77 156.40 149.74 155.73 149.16 L 154.96 148.49 C 154.29 147.90 153.26 147.97 152.68 148.64 C 152.09 149.31 152.16 150.34 152.83 150.92 Z M 153.60 151.59 L 154.35 152.25 C 155.02 152.83 156.04 152.77 156.63 152.10 C 157.21 151.43 157.15 150.41 156.48 149.82 L 155.73 149.16 C 155.06 148.57 154.04 148.64 153.45 149.31 C 152.86 149.98 152.93 151.00 153.60 151.59 Z M 154.35 152.24 L 155.11 152.90 C 155.78 153.49 156.79 153.42 157.38 152.75 C 157.96 152.08 157.89 151.07 157.23 150.48 L 156.47 149.82 C 155.80 149.24 154.79 149.30 154.20 149.97 C 153.62 150.64 153.68 151.66 154.35 152.24 Z M 155.12 152.91 L 155.88 153.56 C 156.55 154.14 157.56 154.07 158.14 153.40 C 158.72 152.73 158.65 151.72 157.98 151.14 L 157.22 150.48 C 156.55 149.90 155.53 149.97 154.95 150.64 C 154.37 151.31 154.45 152.33 155.12 152.91 Z M 155.89 153.57 L 156.65 154.22 C 157.33 154.80 158.34 154.72 158.91 154.04 C 159.49 153.37 159.41 152.36 158.73 151.79 L 157.97 151.13 C 157.29 150.56 156.28 150.64 155.71 151.31 C 155.13 151.98 155.21 152.99 155.89 153.57 Z M 156.66 154.22 L 157.41 154.87 C 158.09 155.44 159.10 155.36 159.67 154.69 C 160.24 154.01 160.16 153.00 159.49 152.43 L 158.73 151.78 C 158.06 151.21 157.05 151.29 156.47 151.97 C 155.90 152.64 155.98 153.65 156.66 154.22 Z M 157.41 154.87 L 158.17 155.51 C 158.84 156.09 159.85 156.01 160.43 155.34 C 161.00 154.67 160.92 153.66 160.25 153.08 L 159.49 152.43 C 158.82 151.86 157.81 151.94 157.24 152.61 C 156.66 153.28 156.74 154.29 157.41 154.87 Z M 158.17 155.51 L 158.92 156.16 C 159.59 156.74 160.60 156.67 161.18 156.00 C 161.76 155.33 161.68 154.32 161.01 153.74 L 160.26 153.09 C 159.59 152.51 158.58 152.58 158.00 153.25 C 157.42 153.92 157.50 154.93 158.17 155.51 Z M 158.91 156.15 L 159.66 156.81 C 160.33 157.39 161.34 157.33 161.92 156.66 C 162.50 156.00 162.43 154.99 161.77 154.40 L 161.02 153.75 C 160.36 153.17 159.35 153.23 158.76 153.90 C 158.18 154.56 158.25 155.57 158.91 156.15 Z M 159.66 156.80 L 160.43 157.49 C 161.09 158.07 162.10 158.01 162.68 157.36 C 163.27 156.70 163.21 155.69 162.55 155.10 L 161.78 154.41 C 161.12 153.83 160.11 153.89 159.52 154.55 C 158.94 155.21 159.00 156.22 159.66 156.80 Z M 160.43 157.48 L 161.18 158.15 C 161.83 158.73 162.84 158.68 163.42 158.02 C 164.01 157.37 163.95 156.36 163.30 155.78 L 162.55 155.11 C 161.90 154.52 160.89 154.58 160.30 155.23 C 159.72 155.89 159.77 156.90 160.43 157.48 Z M 161.18 158.15 L 161.91 158.79 C 162.56 159.37 163.56 159.31 164.15 158.66 C 164.73 158.00 164.67 157.00 164.01 156.42 L 163.29 155.78 C 162.64 155.20 161.63 155.25 161.05 155.91 C 160.47 156.56 160.53 157.57 161.18 158.15 Z M 161.91 158.79 L 162.64 159.43 C 163.30 160.01 164.29 159.95 164.87 159.30 C 165.45 158.64 165.39 157.64 164.73 157.07 L 164.01 156.42 C 163.35 155.84 162.36 155.91 161.78 156.56 C 161.20 157.21 161.26 158.21 161.91 158.79 Z M 162.64 159.42 L 163.38 160.09 C 164.03 160.67 165.02 160.62 165.60 159.97 C 166.18 159.33 166.13 158.34 165.49 157.76 L 164.74 157.08 C 164.10 156.50 163.10 156.55 162.52 157.20 C 161.94 157.84 161.99 158.83 162.64 159.42 Z M 163.37 160.07 L 164.07 160.73 C 164.70 161.32 165.70 161.28 166.29 160.65 C 166.88 160.01 166.84 159.02 166.21 158.43 L 165.50 157.78 C 164.87 157.19 163.88 157.22 163.29 157.85 C 162.70 158.49 162.73 159.48 163.37 160.07 Z M 164.05 160.70 L 164.79 161.42 C 165.41 162.02 166.40 162.01 167.00 161.39 C 167.61 160.76 167.59 159.77 166.97 159.17 L 166.23 158.45 C 165.61 157.85 164.62 157.87 164.01 158.49 C 163.41 159.11 163.43 160.10 164.05 160.70 Z M 164.76 161.39 L 165.58 162.23 C 166.19 162.85 167.18 162.86 167.80 162.26 C 168.41 161.66 168.43 160.67 167.82 160.05 L 167.00 159.20 C 166.40 158.59 165.41 158.57 164.79 159.18 C 164.17 159.78 164.16 160.77 164.76 161.39 Z M 165.51 162.15 L 166.21 162.98 C 166.77 163.63 167.75 163.72 168.41 163.16 C 169.07 162.61 169.15 161.62 168.59 160.96 L 167.90 160.13 C 167.34 159.48 166.35 159.39 165.70 159.95 C 165.04 160.51 164.96 161.49 165.51 162.15 Z M 165.86 162.08 L 165.89 162.52 C 165.95 163.38 166.69 164.02 167.55 163.96 C 168.40 163.89 169.04 163.15 168.98 162.30 L 168.95 161.86 C 168.89 161.00 168.14 160.36 167.29 160.42 C 166.44 160.49 165.79 161.23 165.86 162.08 Z M 167.78 160.93 L 166.78 160.70 C 165.97 160.51 165.15 161.02 164.96 161.84 C 164.77 162.66 165.28 163.48 166.10 163.66 L 167.09 163.89 C 167.91 164.08 168.73 163.57 168.92 162.75 C 169.11 161.94 168.60 161.12 167.78 160.93 Z"
      fill="black"
      fill-rule="nonzero" /></svg>