<svg xmlns="http://www.w3.org/2000/svg" width="300" height="300" viewBox="0 0 300 300">
<path d="M 143.07 130.99 L 144.09 130.94 C 144.91 130.89 145.54 130.18 145.49 129.36 C 145.45 128.53 144.74 127.90 143.91 127.95 L 142.89 128.01 C 142.07 128.06 141.44 128.76 141.49 129.59 C 141.53 130.41 142.24 131.04 143.07 130.99 Z M 144.09 130.96 L 145.09 130.90 C 145.93 130.86 146.57 130.14 146.52 129.30 C 146.48 128.46 145.76 127.82 144.92 127.87 L 143.91 127.93 C 143.08 127.97 142.44 128.69 142.48 129.53 C 142.53 130.37 143.25 131.01 144.09 130.96 Z M 145.09 130.93 L 146.07 130.87 C 146.92 130.83 147.58 130.10 147.53 129.25 C 147.49 128.40 146.76 127.75 145.91 127.79 L 144.92 127.84 C 144.07 127.89 143.42 128.62 143.47 129.47 C 143.51 130.32 144.24 130.97 145.09 130.93 Z M 146.07 130.88 L 147.13 130.83 C 147.98 130.78 148.64 130.06 148.60 129.20 C 148.55 128.35 147.83 127.69 146.97 127.73 L 145.91 127.79 C 145.06 127.83 144.40 128.56 144.44 129.41 C 144.49 130.26 145.21 130.92 146.07 130.88 Z M 147.12 130.80 L 148.16 130.76 C 149.00 130.72 149.65 130.01 149.61 129.17 C 149.58 128.33 148.86 127.67 148.02 127.71 L 146.98 127.76 C 146.14 127.79 145.49 128.51 145.53 129.35 C 145.56 130.19 146.27 130.84 147.12 130.80 Z M 148.14 130.72 L 149.06 130.69 C 149.88 130.66 150.52 129.97 150.49 129.15 C 150.46 128.33 149.77 127.68 148.95 127.71 L 148.04 127.75 C 147.21 127.78 146.57 128.47 146.60 129.29 C 146.63 130.11 147.32 130.75 148.14 130.72 Z M 149.03 130.66 L 150.09 130.64 C 150.90 130.62 151.54 129.96 151.52 129.15 C 151.50 128.34 150.84 127.70 150.03 127.72 L 148.97 127.74 C 148.17 127.76 147.53 128.43 147.54 129.23 C 147.56 130.04 148.23 130.68 149.03 130.66 Z M 150.07 130.62 L 150.98 130.62 C 151.77 130.61 152.41 129.97 152.41 129.17 C 152.41 128.38 151.76 127.74 150.97 127.74 L 150.06 127.74 C 149.26 127.75 148.62 128.39 148.62 129.19 C 148.63 129.98 149.27 130.62 150.07 130.62 Z M 150.97 130.60 L 151.98 130.60 C 152.76 130.60 153.40 129.97 153.40 129.18 C 153.40 128.39 152.76 127.75 151.98 127.75 L 150.97 127.75 C 150.18 127.75 149.55 128.39 149.55 129.18 C 149.55 129.97 150.18 130.60 150.97 130.60 Z M 151.98 130.60 L 152.98 130.60 C 153.76 130.60 154.40 129.97 154.40 129.18 C 154.40 128.39 153.76 127.75 152.98 127.75 L 151.98 127.75 C 151.19 127.75 150.55 128.39 150.55 129.18 C 150.55 129.97 151.19 130.60 151.98 130.60 Z M 152.98 130.60 L 153.97 130.60 C 154.76 130.60 155.40 129.96 155.40 129.18 C 155.40 128.39 154.76 127.75 153.97 127.75 L 152.98 127.75 C 152.19 127.75 151.55 128.39 151.55 129.18 C 151.55 129.96 152.19 130.60 152.98 130.60 Z M 153.97 130.60 L 154.05 130.60 C 154.84 130.60 155.48 129.96 155.48 129.18 C 155.48 128.39 154.84 127.75 154.05 127.75 L 153.97 127.75 C 153.19 127.75 152.55 128.39 152.55 129.18 C 152.55 129.96 153.19 130.60 153.97 130.60 Z"
      fill="black"
      fill-rule="nonzero" /><path d="M 139.83 145.48 L 140.66 145.96 C 141.39 146.39 142.33 146.14 142.75 145.41 C 143.18 144.68 142.93 143.74 142.20 143.31 L 141.38 142.83 C 140.64 142.41 139.70 142.65 139.28 143.39 C 138.85 144.12 139.10 145.06 139.83 145.48 Z M 140.90 146.12 L 141.87 146.47 C 142.69 146.77 143.60 146.34 143.89 145.52 C 144.18 144.70 143.76 143.80 142.94 143.50 L 141.96 143.15 C 141.14 142.86 140.24 143.29 139.94 144.11 C 139.65 144.93 140.08 145.83 140.90 146.12 Z M 142.20 146.57 L 143.19 146.70 C 144.06 146.81 144.86 146.19 144.97 145.32 C 145.09 144.45 144.47 143.65 143.60 143.54 L 142.61 143.41 C 141.74 143.30 140.94 143.91 140.83 144.78 C 140.71 145.66 141.33 146.45 142.20 146.57 Z M 143.35 146.70 L 144.37 146.73 C 145.24 146.75 145.97 146.07 146.00 145.19 C 146.02 144.32 145.33 143.59 144.46 143.57 L 143.44 143.54 C 142.57 143.51 141.84 144.20 141.82 145.07 C 141.79 145.94 142.48 146.67 143.35 146.70 Z M 144.42 146.72 L 145.47 146.72 C 146.34 146.72 147.04 146.02 147.04 145.15 C 147.04 144.28 146.34 143.57 145.47 143.57 L 144.41 143.57 C 143.55 143.57 142.84 144.28 142.84 145.15 C 142.84 146.02 143.55 146.72 144.42 146.72 Z M 145.50 146.72 L 146.44 146.70 C 147.30 146.69 148.00 145.97 147.98 145.11 C 147.97 144.24 147.25 143.55 146.39 143.56 L 145.44 143.58 C 144.58 143.59 143.89 144.31 143.90 145.17 C 143.91 146.04 144.63 146.73 145.50 146.72 Z M 146.50 146.70 L 147.48 146.64 C 148.34 146.60 149.00 145.86 148.96 144.99 C 148.91 144.13 148.17 143.46 147.30 143.51 L 146.33 143.57 C 145.46 143.61 144.80 144.35 144.84 145.22 C 144.89 146.08 145.63 146.75 146.50 146.70 Z M 147.51 146.64 L 148.51 146.56 C 149.37 146.50 150.02 145.74 149.95 144.88 C 149.89 144.02 149.13 143.37 148.27 143.44 L 147.27 143.52 C 146.41 143.58 145.76 144.34 145.83 145.20 C 145.89 146.06 146.65 146.71 147.51 146.64 Z M 148.51 146.56 L 149.51 146.48 C 150.37 146.41 151.01 145.66 150.95 144.80 C 150.88 143.94 150.13 143.30 149.27 143.37 L 148.27 143.44 C 147.41 143.51 146.77 144.26 146.83 145.12 C 146.90 145.98 147.65 146.63 148.51 146.56 Z M 149.52 146.47 L 150.52 146.39 C 151.38 146.32 152.02 145.56 151.94 144.71 C 151.87 143.85 151.12 143.21 150.26 143.29 L 149.26 143.37 C 148.40 143.44 147.76 144.20 147.84 145.05 C 147.91 145.91 148.66 146.55 149.52 146.47 Z M 150.53 146.39 L 151.51 146.30 C 152.37 146.22 153.00 145.47 152.92 144.62 C 152.85 143.76 152.09 143.13 151.24 143.20 L 150.26 143.29 C 149.40 143.37 148.77 144.12 148.84 144.97 C 148.92 145.83 149.67 146.46 150.53 146.39 Z M 151.51 146.30 L 152.43 146.22 C 153.28 146.15 153.91 145.40 153.84 144.55 C 153.77 143.69 153.02 143.06 152.17 143.13 L 151.25 143.21 C 150.39 143.28 149.76 144.03 149.83 144.88 C 149.90 145.73 150.65 146.37 151.51 146.30 Z M 152.42 146.22 L 153.44 146.14 C 154.29 146.07 154.93 145.33 154.87 144.48 C 154.80 143.63 154.06 142.99 153.21 143.05 L 152.18 143.13 C 151.33 143.20 150.69 143.94 150.75 144.79 C 150.82 145.64 151.56 146.28 152.42 146.22 Z M 153.43 146.14 L 154.36 146.08 C 155.21 146.02 155.86 145.28 155.80 144.43 C 155.74 143.58 155.00 142.93 154.15 142.99 L 153.22 143.05 C 152.37 143.11 151.73 143.85 151.78 144.70 C 151.84 145.55 152.58 146.20 153.43 146.14 Z M 154.34 146.08 L 155.40 146.02 C 156.25 145.98 156.91 145.25 156.86 144.40 C 156.82 143.55 156.09 142.89 155.24 142.93 L 154.18 142.99 C 153.32 143.03 152.67 143.76 152.71 144.61 C 152.76 145.47 153.48 146.12 154.34 146.08 Z M 155.36 146.02 L 156.58 145.99 C 157.43 145.97 158.11 145.26 158.08 144.40 C 158.06 143.55 157.35 142.88 156.50 142.90 L 155.28 142.93 C 154.42 142.96 153.75 143.67 153.77 144.52 C 153.80 145.37 154.51 146.05 155.36 146.02 Z M 156.48 145.99 L 157.60 146.03 C 158.45 146.06 159.16 145.39 159.19 144.54 C 159.23 143.69 158.56 142.97 157.71 142.94 L 156.59 142.90 C 155.74 142.87 155.03 143.54 155.00 144.39 C 154.96 145.24 155.63 145.96 156.48 145.99 Z M 157.13 145.94 L 157.67 146.13 C 158.47 146.42 159.36 146.01 159.65 145.21 C 159.93 144.41 159.52 143.52 158.72 143.23 L 158.18 143.04 C 157.38 142.75 156.49 143.16 156.20 143.96 C 155.91 144.76 156.33 145.65 157.13 145.94 Z M 157.02 143.68 L 156.58 144.19 C 156.03 144.84 156.10 145.81 156.75 146.37 C 157.40 146.93 158.38 146.85 158.93 146.20 L 159.37 145.69 C 159.93 145.04 159.85 144.06 159.20 143.51 C 158.55 142.95 157.58 143.03 157.02 143.68 Z M 156.83 143.94 L 155.77 144.73 C 155.08 145.24 154.94 146.21 155.45 146.90 C 155.96 147.60 156.93 147.74 157.63 147.23 L 158.68 146.45 C 159.37 145.94 159.52 144.96 159.01 144.27 C 158.50 143.58 157.52 143.43 156.83 143.94 Z M 155.72 144.76 L 154.92 145.40 C 154.25 145.94 154.14 146.92 154.68 147.59 C 155.22 148.27 156.21 148.38 156.88 147.84 L 157.68 147.20 C 158.35 146.66 158.46 145.67 157.92 145.00 C 157.38 144.33 156.39 144.22 155.72 144.76 Z M 154.89 145.42 L 154.09 146.10 C 153.43 146.66 153.35 147.65 153.91 148.31 C 154.47 148.96 155.45 149.05 156.11 148.49 L 156.91 147.81 C 157.57 147.25 157.65 146.27 157.10 145.61 C 156.54 144.95 155.55 144.86 154.89 145.42 Z M 154.07 146.12 L 153.34 146.75 C 152.69 147.32 152.63 148.31 153.20 148.96 C 153.77 149.61 154.76 149.68 155.41 149.11 L 156.13 148.47 C 156.79 147.90 156.85 146.91 156.28 146.26 C 155.71 145.61 154.72 145.55 154.07 146.12 Z M 153.32 146.77 L 152.48 147.53 C 151.84 148.11 151.79 149.10 152.37 149.74 C 152.95 150.38 153.94 150.43 154.59 149.85 L 155.43 149.09 C 156.07 148.51 156.12 147.52 155.54 146.88 C 154.96 146.24 153.97 146.19 153.32 146.77 Z M 152.47 147.54 L 151.82 148.15 C 151.18 148.73 151.14 149.73 151.73 150.36 C 152.32 151.00 153.31 151.04 153.94 150.45 L 154.60 149.84 C 155.24 149.25 155.27 148.26 154.69 147.63 C 154.10 146.99 153.11 146.95 152.47 147.54 Z M 151.83 148.13 L 151.12 148.77 C 150.48 149.36 150.43 150.35 151.01 150.99 C 151.60 151.63 152.59 151.68 153.23 151.10 L 153.93 150.46 C 154.58 149.88 154.62 148.88 154.04 148.24 C 153.46 147.60 152.47 147.55 151.83 148.13 Z M 151.12 148.77 L 150.38 149.44 C 149.74 150.02 149.69 151.01 150.27 151.66 C 150.85 152.30 151.85 152.35 152.49 151.77 L 153.23 151.10 C 153.87 150.52 153.92 149.53 153.34 148.88 C 152.76 148.24 151.76 148.19 151.12 148.77 Z M 150.36 149.45 L 149.63 150.13 C 148.99 150.72 148.96 151.72 149.55 152.36 C 150.15 153.00 151.15 153.03 151.78 152.44 L 152.51 151.76 C 153.15 151.16 153.19 150.16 152.59 149.53 C 152.00 148.89 151.00 148.86 150.36 149.45 Z M 149.64 150.12 L 148.90 150.80 C 148.26 151.39 148.22 152.39 148.81 153.03 C 149.40 153.67 150.40 153.71 151.04 153.12 L 151.78 152.45 C 152.42 151.86 152.46 150.86 151.87 150.22 C 151.28 149.57 150.28 149.53 149.64 150.12 Z M 148.92 150.79 L 148.18 151.45 C 147.53 152.03 147.47 153.03 148.05 153.68 C 148.63 154.33 149.63 154.38 150.27 153.80 L 151.02 153.13 C 151.67 152.55 151.73 151.56 151.15 150.91 C 150.57 150.26 149.57 150.21 148.92 150.79 Z M 148.19 151.45 L 147.44 152.11 C 146.79 152.68 146.73 153.67 147.30 154.32 C 147.87 154.97 148.85 155.03 149.50 154.46 L 150.26 153.80 C 150.91 153.24 150.97 152.25 150.40 151.60 C 149.83 150.95 148.84 150.88 148.19 151.45 Z M 147.48 152.10 L 146.72 152.73 C 146.06 153.28 145.98 154.26 146.53 154.92 C 147.08 155.57 148.06 155.66 148.72 155.11 L 149.47 154.48 C 150.13 153.93 150.21 152.95 149.66 152.29 C 149.11 151.63 148.13 151.55 147.48 152.10 Z M 146.76 152.71 L 145.97 153.33 C 145.30 153.86 145.19 154.83 145.72 155.50 C 146.25 156.17 147.22 156.28 147.89 155.75 L 148.68 155.13 C 149.35 154.60 149.46 153.63 148.93 152.96 C 148.40 152.29 147.43 152.18 146.76 152.71 Z M 145.99 153.31 L 145.19 153.92 C 144.52 154.44 144.39 155.41 144.90 156.09 C 145.42 156.77 146.39 156.90 147.07 156.38 L 147.87 155.77 C 148.55 155.25 148.68 154.28 148.16 153.60 C 147.64 152.92 146.67 152.79 145.99 153.31 Z M 145.21 153.91 L 144.40 154.50 C 143.71 155.01 143.57 155.98 144.07 156.67 C 144.58 157.36 145.55 157.51 146.24 157.00 L 147.05 156.40 C 147.74 155.89 147.89 154.92 147.38 154.23 C 146.87 153.54 145.90 153.40 145.21 153.91 Z M 144.43 154.48 L 143.60 155.06 C 142.90 155.55 142.73 156.52 143.22 157.22 C 143.71 157.92 144.68 158.10 145.38 157.61 L 146.21 157.02 C 146.91 156.53 147.09 155.56 146.59 154.86 C 146.10 154.16 145.14 153.99 144.43 154.48 Z M 143.63 155.03 L 142.81 155.58 C 142.09 156.05 141.90 157.02 142.37 157.74 C 142.85 158.45 143.81 158.65 144.53 158.17 L 145.35 157.63 C 146.07 157.16 146.26 156.19 145.79 155.47 C 145.31 154.75 144.35 154.56 143.63 155.03 Z M 142.83 155.56 L 141.99 156.09 C 141.26 156.56 141.04 157.52 141.51 158.25 C 141.97 158.98 142.94 159.20 143.67 158.73 L 144.51 158.19 C 145.24 157.73 145.45 156.76 144.99 156.03 C 144.52 155.31 143.56 155.09 142.83 155.56 Z M 142.00 156.08 L 141.15 156.60 C 140.42 157.05 140.18 158.02 140.64 158.76 C 141.09 159.49 142.06 159.73 142.80 159.27 L 143.65 158.75 C 144.38 158.29 144.62 157.33 144.16 156.59 C 143.71 155.85 142.74 155.62 142.00 156.08 Z M 141.17 156.58 L 140.31 157.09 C 139.57 157.54 139.32 158.50 139.76 159.25 C 140.21 159.99 141.17 160.24 141.92 159.80 L 142.77 159.29 C 143.52 158.85 143.77 157.88 143.33 157.14 C 142.88 156.39 141.92 156.14 141.17 156.58 Z M 140.33 157.08 L 139.46 157.58 C 138.71 158.01 138.45 158.97 138.88 159.72 C 139.31 160.48 140.27 160.74 141.02 160.31 L 141.89 159.81 C 142.65 159.38 142.91 158.42 142.48 157.66 C 142.05 156.91 141.09 156.65 140.33 157.08 Z M 139.48 157.57 L 138.61 158.05 C 137.85 158.48 137.57 159.44 138.00 160.19 C 138.42 160.95 139.38 161.23 140.14 160.80 L 141.01 160.32 C 141.77 159.90 142.04 158.94 141.62 158.18 C 141.20 157.42 140.24 157.15 139.48 157.57 Z M 138.61 158.04 L 137.74 158.52 C 136.98 158.94 136.70 159.90 137.12 160.66 C 137.54 161.43 138.50 161.71 139.26 161.29 L 140.13 160.81 C 140.90 160.39 141.18 159.44 140.76 158.67 C 140.34 157.91 139.38 157.62 138.61 158.04 Z M 137.75 158.51 L 136.89 158.97 C 136.11 159.38 135.83 160.35 136.24 161.12 C 136.66 161.89 137.62 162.18 138.39 161.77 L 139.25 161.30 C 140.03 160.89 140.32 159.93 139.90 159.15 C 139.49 158.38 138.52 158.09 137.75 158.51 Z M 136.89 158.95 L 136.03 159.41 C 135.24 159.83 134.95 160.80 135.36 161.58 C 135.77 162.36 136.74 162.65 137.52 162.24 L 138.39 161.78 C 139.17 161.37 139.47 160.40 139.05 159.62 C 138.64 158.84 137.67 158.54 136.89 158.95 Z M 136.02 159.40 L 135.13 159.88 C 134.34 160.29 134.04 161.27 134.45 162.05 C 134.87 162.84 135.84 163.14 136.63 162.72 L 137.53 162.25 C 138.31 161.84 138.61 160.86 138.20 160.08 C 137.78 159.29 136.81 158.99 136.02 159.40 Z M 135.13 159.87 L 134.26 160.33 C 133.47 160.74 133.16 161.72 133.58 162.51 C 133.99 163.30 134.96 163.60 135.75 163.19 L 136.63 162.73 C 137.41 162.32 137.72 161.34 137.30 160.55 C 136.89 159.76 135.92 159.46 135.13 159.87 Z M 134.27 160.32 L 133.33 160.80 C 132.54 161.21 132.23 162.18 132.64 162.98 C 133.05 163.77 134.02 164.08 134.81 163.67 L 135.74 163.19 C 136.53 162.78 136.85 161.81 136.44 161.02 C 136.03 160.23 135.06 159.92 134.27 160.32 Z M 133.34 160.80 L 132.22 161.37 C 131.43 161.78 131.12 162.75 131.52 163.55 C 131.93 164.34 132.90 164.65 133.70 164.25 L 134.81 163.67 C 135.60 163.27 135.92 162.29 135.51 161.50 C 135.10 160.71 134.13 160.40 133.34 160.80 Z M 132.07 161.46 L 131.45 161.87 C 130.70 162.36 130.49 163.36 130.99 164.11 C 131.48 164.86 132.48 165.06 133.23 164.57 L 133.85 164.16 C 134.59 163.67 134.80 162.67 134.31 161.92 C 133.82 161.17 132.82 160.97 132.07 161.46 Z M 131.86 164.77 L 132.59 164.99 C 133.44 165.25 134.35 164.77 134.61 163.92 C 134.87 163.07 134.39 162.16 133.54 161.90 L 132.81 161.67 C 131.96 161.41 131.05 161.89 130.79 162.74 C 130.53 163.60 131.01 164.50 131.86 164.77 Z M 132.52 164.97 L 133.45 165.30 C 134.30 165.60 135.22 165.16 135.52 164.31 C 135.82 163.47 135.38 162.54 134.53 162.25 L 133.60 161.92 C 132.76 161.62 131.83 162.06 131.54 162.90 C 131.24 163.75 131.68 164.67 132.52 164.97 Z M 133.13 165.15 L 134.02 165.71 C 134.78 166.19 135.78 165.96 136.26 165.20 C 136.74 164.44 136.51 163.44 135.75 162.96 L 134.86 162.40 C 134.10 161.92 133.10 162.15 132.62 162.91 C 132.14 163.67 132.37 164.67 133.13 165.15 Z M 133.95 165.66 L 134.79 166.25 C 135.52 166.77 136.53 166.59 137.05 165.86 C 137.56 165.12 137.39 164.11 136.65 163.60 L 135.82 163.01 C 135.09 162.49 134.07 162.67 133.56 163.40 C 133.04 164.14 133.22 165.15 133.95 165.66 Z M 134.78 166.25 L 135.62 166.84 C 136.35 167.36 137.36 167.19 137.88 166.46 C 138.40 165.73 138.23 164.72 137.50 164.20 L 136.66 163.60 C 135.93 163.08 134.92 163.25 134.40 163.98 C 133.88 164.71 134.05 165.73 134.78 166.25 Z M 135.63 166.85 L 136.46 167.44 C 137.20 167.95 138.21 167.77 138.72 167.04 C 139.24 166.31 139.06 165.29 138.33 164.78 L 137.49 164.19 C 136.76 163.68 135.75 163.85 135.23 164.59 C 134.72 165.32 134.89 166.33 135.63 166.85 Z M 136.48 167.45 L 137.30 168.01 C 138.04 168.51 139.05 168.32 139.56 167.58 C 140.06 166.84 139.87 165.83 139.13 165.32 L 138.31 164.76 C 137.57 164.26 136.56 164.45 136.05 165.19 C 135.55 165.94 135.74 166.95 136.48 167.45 Z M 137.31 168.01 L 138.10 168.55 C 138.84 169.05 139.85 168.85 140.35 168.11 C 140.86 167.37 140.66 166.36 139.92 165.86 L 139.12 165.32 C 138.38 164.82 137.37 165.01 136.87 165.76 C 136.37 166.50 136.56 167.51 137.31 168.01 Z M 138.10 168.53 L 138.94 169.10 C 139.67 169.61 140.68 169.42 141.18 168.68 C 141.68 167.94 141.49 166.94 140.75 166.44 L 139.92 165.87 C 139.18 165.36 138.18 165.56 137.68 166.29 C 137.17 167.03 137.36 168.03 138.10 168.53 Z M 138.94 169.10 L 139.78 169.67 C 140.52 170.16 141.52 169.97 142.01 169.24 C 142.51 168.50 142.32 167.50 141.58 167.00 L 140.75 166.44 C 140.01 165.94 139.01 166.13 138.51 166.87 C 138.02 167.60 138.21 168.60 138.94 169.10 Z M 139.79 169.69 L 140.62 170.23 C 141.36 170.72 142.37 170.51 142.86 169.77 C 143.35 169.02 143.14 168.02 142.39 167.53 L 141.57 166.99 C 140.82 166.50 139.82 166.70 139.33 167.45 C 138.84 168.19 139.05 169.20 139.79 169.69 Z M 140.65 170.25 L 141.49 170.78 C 142.24 171.25 143.25 171.02 143.72 170.26 C 144.20 169.50 143.97 168.50 143.21 168.03 L 142.37 167.50 C 141.61 167.03 140.61 167.26 140.13 168.02 C 139.66 168.78 139.89 169.78 140.65 170.25 Z M 141.52 170.79 L 142.38 171.31 C 143.15 171.77 144.14 171.52 144.60 170.75 C 145.06 169.98 144.81 168.99 144.04 168.53 L 143.18 168.01 C 142.41 167.55 141.41 167.80 140.96 168.57 C 140.50 169.34 140.75 170.34 141.52 170.79 Z M 142.40 171.32 L 143.26 171.82 C 144.04 172.27 145.03 172.00 145.48 171.22 C 145.92 170.45 145.66 169.46 144.88 169.01 L 144.02 168.51 C 143.24 168.07 142.25 168.33 141.81 169.11 C 141.36 169.89 141.63 170.88 142.40 171.32 Z M 143.27 171.83 L 144.14 172.32 C 144.93 172.77 145.92 172.49 146.36 171.71 C 146.80 170.93 146.53 169.93 145.74 169.49 L 144.87 169.00 C 144.09 168.56 143.10 168.83 142.65 169.62 C 142.21 170.40 142.49 171.39 143.27 171.83 Z M 144.15 172.34 L 145.03 172.82 C 145.82 173.26 146.81 172.97 147.25 172.18 C 147.69 171.39 147.40 170.39 146.61 169.96 L 145.73 169.48 C 144.94 169.04 143.95 169.33 143.51 170.12 C 143.08 170.91 143.36 171.90 144.15 172.34 Z M 145.07 172.85 L 145.95 173.31 C 146.76 173.72 147.75 173.41 148.17 172.60 C 148.58 171.79 148.26 170.80 147.46 170.38 L 146.57 169.93 C 145.76 169.51 144.77 169.83 144.36 170.64 C 143.94 171.45 144.26 172.44 145.07 172.85 Z M 146.00 173.34 L 146.89 173.77 C 147.72 174.16 148.71 173.81 149.10 172.98 C 149.49 172.15 149.14 171.16 148.31 170.77 L 147.41 170.35 C 146.58 169.96 145.60 170.31 145.21 171.14 C 144.82 171.96 145.17 172.95 146.00 173.34 Z M 146.92 173.79 L 147.85 174.21 C 148.69 174.59 149.67 174.21 150.05 173.37 C 150.43 172.53 150.05 171.54 149.21 171.17 L 148.29 170.75 C 147.45 170.37 146.46 170.75 146.08 171.59 C 145.70 172.43 146.08 173.41 146.92 173.79 Z M 147.86 174.23 L 148.79 174.63 C 149.64 175.00 150.63 174.61 151.00 173.75 C 151.37 172.90 150.98 171.91 150.12 171.55 L 149.20 171.15 C 148.34 170.78 147.36 171.17 146.99 172.02 C 146.62 172.87 147.01 173.86 147.86 174.23 Z M 148.83 174.65 L 149.77 175.03 C 150.63 175.38 151.61 174.96 151.96 174.10 C 152.31 173.23 151.89 172.25 151.03 171.90 L 150.09 171.53 C 149.22 171.18 148.24 171.59 147.89 172.46 C 147.55 173.32 147.96 174.30 148.83 174.65 Z M 149.83 175.04 L 150.76 175.38 C 151.63 175.69 152.59 175.24 152.91 174.37 C 153.22 173.50 152.77 172.54 151.90 172.23 L 150.96 171.89 C 150.09 171.57 149.13 172.03 148.82 172.90 C 148.50 173.77 148.96 174.73 149.83 175.04 Z M 150.83 175.39 L 151.77 175.68 C 152.64 175.96 153.57 175.47 153.85 174.60 C 154.13 173.73 153.64 172.79 152.77 172.52 L 151.83 172.22 C 150.96 171.94 150.02 172.43 149.75 173.30 C 149.47 174.18 149.95 175.11 150.83 175.39 Z M 151.83 175.68 L 152.79 175.95 C 153.67 176.19 154.57 175.68 154.81 174.80 C 155.05 173.93 154.54 173.03 153.67 172.79 L 152.71 172.52 C 151.83 172.28 150.93 172.79 150.69 173.66 C 150.45 174.53 150.96 175.44 151.83 175.68 Z M 152.84 175.95 L 153.81 176.19 C 154.69 176.41 155.57 175.88 155.79 175.00 C 156.01 174.12 155.47 173.24 154.60 173.02 L 153.62 172.78 C 152.75 172.56 151.86 173.10 151.64 173.97 C 151.43 174.85 151.96 175.74 152.84 175.95 Z M 153.83 176.21 L 154.80 176.44 C 155.68 176.65 156.57 176.10 156.78 175.22 C 156.99 174.33 156.44 173.45 155.56 173.24 L 154.58 173.01 C 153.70 172.80 152.81 173.35 152.60 174.23 C 152.39 175.11 152.94 176.00 153.83 176.21 Z M 154.80 176.45 L 155.77 176.68 C 156.67 176.89 157.56 176.34 157.77 175.45 C 157.98 174.56 157.43 173.67 156.54 173.45 L 155.56 173.22 C 154.67 173.01 153.77 173.57 153.56 174.46 C 153.35 175.35 153.91 176.24 154.80 176.45 Z M 155.79 176.70 L 156.76 176.91 C 157.66 177.11 158.55 176.55 158.75 175.65 C 158.95 174.75 158.38 173.86 157.49 173.66 L 156.52 173.44 C 155.62 173.24 154.73 173.81 154.53 174.71 C 154.33 175.60 154.89 176.49 155.79 176.70 Z M 156.79 176.91 L 157.77 177.11 C 158.67 177.30 159.55 176.72 159.73 175.82 C 159.91 174.92 159.33 174.04 158.44 173.86 L 157.46 173.66 C 156.56 173.47 155.68 174.05 155.49 174.95 C 155.31 175.85 155.89 176.73 156.79 176.91 Z M 157.80 177.11 L 158.76 177.29 C 159.65 177.45 160.52 176.86 160.68 175.96 C 160.85 175.06 160.25 174.20 159.36 174.04 L 158.40 173.86 C 157.50 173.70 156.64 174.29 156.48 175.19 C 156.31 176.08 156.90 176.94 157.80 177.11 Z M 158.90 177.29 L 159.92 177.39 C 160.82 177.48 161.62 176.82 161.71 175.92 C 161.80 175.02 161.14 174.22 160.24 174.13 L 159.21 174.03 C 158.31 173.94 157.51 174.60 157.43 175.50 C 157.34 176.40 158.00 177.20 158.90 177.29 Z M 160.12 177.39 L 161.09 177.37 C 161.99 177.35 162.70 176.60 162.68 175.70 C 162.66 174.80 161.91 174.09 161.01 174.11 L 160.04 174.13 C 159.14 174.15 158.43 174.90 158.45 175.80 C 158.47 176.70 159.22 177.41 160.12 177.39 Z M 161.18 177.36 L 162.20 177.28 C 163.10 177.21 163.77 176.42 163.70 175.53 C 163.62 174.63 162.84 173.96 161.94 174.04 L 160.92 174.12 C 160.03 174.19 159.36 174.97 159.43 175.87 C 159.50 176.76 160.29 177.43 161.18 177.36 Z M 162.22 177.27 L 162.31 177.27 C 163.20 177.19 163.86 176.40 163.78 175.50 C 163.70 174.61 162.91 173.95 162.01 174.03 L 161.93 174.04 C 161.03 174.12 160.38 174.91 160.46 175.80 C 160.54 176.70 161.33 177.36 162.22 177.27 Z"
      fill="black"
      fill-rule="nonzero" /></svg>