<svg xmlns="http://www.w3.org/2000/svg" width="300" height="300" viewBox="0 0 300 300">
<path d="M 143.44 130.25 L 142.75 130.87 C 142.10 131.45 142.04 132.45 142.62 133.10 C 143.21 133.75 144.21 133.81 144.86 133.23 L 145.55 132.61 C 146.20 132.02 146.26 131.02 145.67 130.37 C 145.09 129.72 144.09 129.67 143.44 130.25 Z M 142.60 130.98 L 141.90 131.76 C 141.31 132.43 141.37 133.44 142.04 134.03 C 142.70 134.62 143.71 134.56 144.30 133.90 L 145.00 133.12 C 145.59 132.45 145.53 131.44 144.87 130.85 C 144.21 130.26 143.19 130.32 142.60 130.98 Z M 141.77 131.92 L 141.21 132.74 C 140.71 133.48 140.90 134.49 141.64 134.99 C 142.38 135.49 143.38 135.30 143.88 134.56 L 144.44 133.74 C 144.94 133.00 144.75 132.00 144.01 131.49 C 143.27 130.99 142.27 131.19 141.77 131.92 Z M 141.15 132.83 L 140.63 133.72 C 140.18 134.49 140.44 135.48 141.21 135.94 C 141.98 136.39 142.97 136.13 143.42 135.36 L 143.94 134.47 C 144.39 133.70 144.14 132.71 143.36 132.26 C 142.59 131.80 141.60 132.06 141.15 132.83 Z M 140.61 133.76 L 140.12 134.65 C 139.69 135.43 139.97 136.41 140.75 136.84 C 141.53 137.27 142.52 136.99 142.95 136.21 L 143.44 135.32 C 143.87 134.54 143.59 133.56 142.81 133.13 C 142.03 132.70 141.04 132.98 140.61 133.76 Z M 140.12 134.65 L 139.62 135.56 C 139.19 136.33 139.47 137.32 140.25 137.75 C 141.03 138.18 142.01 137.89 142.45 137.11 L 142.95 136.21 C 143.38 135.43 143.09 134.45 142.31 134.02 C 141.53 133.59 140.55 133.87 140.12 134.65 Z M 139.63 135.55 L 139.17 136.38 C 138.73 137.16 139.01 138.14 139.79 138.57 C 140.56 139.00 141.54 138.72 141.98 137.95 L 142.44 137.12 C 142.87 136.34 142.59 135.36 141.82 134.93 C 141.04 134.50 140.06 134.78 139.63 135.55 Z M 139.17 136.38 L 138.70 137.21 C 138.26 137.99 138.54 138.96 139.31 139.40 C 140.08 139.84 141.06 139.56 141.50 138.79 L 141.97 137.95 C 142.40 137.18 142.13 136.20 141.36 135.77 C 140.59 135.33 139.61 135.60 139.17 136.38 Z M 138.71 137.21 L 138.20 138.09 C 137.77 138.86 138.03 139.83 138.80 140.27 C 139.57 140.71 140.55 140.44 140.99 139.68 L 141.49 138.80 C 141.93 138.03 141.66 137.05 140.89 136.61 C 140.12 136.17 139.15 136.44 138.71 137.21 Z M 138.21 138.08 L 137.71 138.95 C 137.27 139.71 137.53 140.69 138.30 141.13 C 139.06 141.57 140.04 141.31 140.48 140.54 L 140.98 139.68 C 141.42 138.92 141.16 137.94 140.40 137.50 C 139.63 137.05 138.65 137.32 138.21 138.08 Z M 137.72 138.94 L 137.22 139.80 C 136.77 140.56 137.03 141.54 137.79 141.98 C 138.55 142.43 139.53 142.17 139.97 141.41 L 140.48 140.55 C 140.92 139.79 140.66 138.81 139.90 138.37 C 139.14 137.92 138.16 138.18 137.72 138.94 Z M 137.23 139.79 L 136.70 140.68 C 136.25 141.43 136.50 142.41 137.26 142.86 C 138.02 143.31 138.99 143.06 139.44 142.30 L 139.97 141.42 C 140.42 140.66 140.17 139.68 139.41 139.23 C 138.65 138.78 137.67 139.03 137.23 139.79 Z M 136.71 140.67 L 136.21 141.50 C 135.75 142.26 136.00 143.23 136.75 143.69 C 137.50 144.14 138.48 143.90 138.93 143.14 L 139.43 142.31 C 139.89 141.56 139.64 140.58 138.89 140.13 C 138.14 139.67 137.16 139.92 136.71 140.67 Z M 136.22 141.49 L 135.69 142.35 C 135.23 143.10 135.47 144.07 136.22 144.53 C 136.96 144.99 137.94 144.75 138.40 144.01 L 138.92 143.15 C 139.38 142.41 139.14 141.43 138.40 140.97 C 137.65 140.51 136.67 140.75 136.22 141.49 Z M 135.70 142.34 L 135.16 143.21 C 134.70 143.95 134.92 144.93 135.67 145.39 C 136.41 145.85 137.38 145.63 137.85 144.88 L 138.39 144.02 C 138.85 143.27 138.62 142.30 137.88 141.84 C 137.14 141.37 136.16 141.60 135.70 142.34 Z M 135.17 143.20 L 134.63 144.06 C 134.16 144.79 134.38 145.77 135.12 146.23 C 135.86 146.70 136.83 146.48 137.30 145.74 L 137.84 144.89 C 138.30 144.15 138.08 143.18 137.35 142.71 C 136.61 142.25 135.64 142.47 135.17 143.20 Z M 134.64 144.06 L 134.10 144.90 C 133.63 145.64 133.85 146.61 134.58 147.07 C 135.31 147.54 136.28 147.32 136.75 146.59 L 137.29 145.74 C 137.75 145.01 137.54 144.04 136.81 143.58 C 136.08 143.11 135.10 143.32 134.64 144.06 Z M 134.10 144.91 L 133.57 145.75 C 133.10 146.48 133.32 147.45 134.04 147.91 C 134.77 148.38 135.74 148.16 136.20 147.43 L 136.74 146.59 C 137.21 145.86 136.99 144.89 136.26 144.43 C 135.53 143.96 134.57 144.18 134.10 144.91 Z M 133.57 145.76 L 133.02 146.62 C 132.56 147.34 132.77 148.31 133.50 148.77 C 134.22 149.23 135.18 149.02 135.65 148.29 L 136.20 147.43 C 136.66 146.70 136.45 145.74 135.72 145.28 C 135.00 144.82 134.03 145.03 133.57 145.76 Z M 133.03 146.61 L 132.50 147.43 C 132.04 148.15 132.24 149.11 132.96 149.58 C 133.68 150.04 134.64 149.84 135.10 149.12 L 135.64 148.30 C 136.10 147.58 135.90 146.62 135.18 146.15 C 134.46 145.69 133.50 145.89 133.03 146.61 Z M 132.52 147.42 L 131.97 148.25 C 131.49 148.96 131.68 149.91 132.39 150.39 C 133.10 150.86 134.05 150.67 134.53 149.96 L 135.09 149.13 C 135.56 148.42 135.37 147.47 134.66 146.99 C 133.95 146.52 133.00 146.71 132.52 147.42 Z M 131.99 148.23 L 131.42 149.06 C 130.93 149.75 131.11 150.71 131.80 151.19 C 132.50 151.67 133.45 151.50 133.93 150.80 L 134.51 149.98 C 134.99 149.29 134.82 148.33 134.12 147.85 C 133.43 147.37 132.47 147.54 131.99 148.23 Z M 131.44 149.05 L 130.87 149.83 C 130.39 150.52 130.54 151.47 131.23 151.96 C 131.91 152.45 132.86 152.29 133.35 151.60 L 133.91 150.81 C 134.40 150.13 134.24 149.18 133.56 148.69 C 132.88 148.20 131.92 148.36 131.44 149.05 Z M 130.89 149.83 L 130.33 150.60 C 129.84 151.28 129.99 152.22 130.66 152.71 C 131.34 153.21 132.28 153.06 132.78 152.38 L 133.34 151.61 C 133.83 150.93 133.68 149.99 133.00 149.49 C 132.33 149.00 131.38 149.15 130.89 149.83 Z M 130.34 150.60 L 129.73 151.43 C 129.24 152.10 129.38 153.04 130.05 153.54 C 130.72 154.03 131.66 153.88 132.15 153.21 L 132.77 152.38 C 133.26 151.71 133.11 150.77 132.44 150.28 C 131.77 149.78 130.83 149.93 130.34 150.60 Z M 129.73 151.44 L 129.13 152.26 C 128.64 152.92 128.79 153.86 129.45 154.35 C 130.12 154.84 131.05 154.70 131.54 154.03 L 132.15 153.21 C 132.64 152.54 132.49 151.61 131.83 151.12 C 131.16 150.63 130.22 150.77 129.73 151.44 Z M 129.14 152.25 L 128.53 153.08 C 128.03 153.74 128.17 154.68 128.83 155.17 C 129.49 155.66 130.43 155.52 130.92 154.86 L 131.53 154.03 C 132.02 153.37 131.89 152.44 131.23 151.95 C 130.57 151.46 129.63 151.59 129.14 152.25 Z M 128.54 153.07 L 127.95 153.85 C 127.45 154.50 127.57 155.43 128.22 155.93 C 128.87 156.43 129.80 156.31 130.30 155.66 L 130.90 154.88 C 131.40 154.23 131.28 153.29 130.63 152.80 C 129.98 152.30 129.04 152.42 128.54 153.07 Z M 127.98 153.82 L 127.30 154.65 C 126.79 155.28 126.88 156.21 127.50 156.72 C 128.13 157.24 129.06 157.15 129.58 156.52 L 130.26 155.69 C 130.78 155.06 130.69 154.13 130.06 153.62 C 129.43 153.10 128.50 153.19 127.98 153.82 Z M 127.35 154.62 L 126.72 155.33 C 126.19 155.93 126.25 156.85 126.85 157.38 C 127.45 157.91 128.37 157.86 128.90 157.26 L 129.53 156.55 C 130.06 155.95 130.00 155.03 129.40 154.50 C 128.80 153.96 127.88 154.02 127.35 154.62 Z M 126.74 155.32 L 126.55 155.54 C 126.01 156.13 126.06 157.04 126.65 157.58 C 127.24 158.11 128.15 158.07 128.68 157.48 L 128.88 157.26 C 129.41 156.67 129.37 155.76 128.78 155.23 C 128.19 154.69 127.28 154.73 126.74 155.32 Z"
      fill="black"
      fill-rule="nonzero" /><path d="M 136.65 145.03 L 136.90 145.93 C 137.12 146.73 137.95 147.20 138.75 146.97 C 139.55 146.75 140.02 145.92 139.80 145.12 L 139.55 144.22 C 139.33 143.42 138.50 142.95 137.70 143.18 C 136.90 143.40 136.43 144.23 136.65 145.03 Z M 136.82 145.82 L 137.02 146.86 C 137.19 147.71 138.01 148.26 138.85 148.09 C 139.70 147.93 140.25 147.11 140.08 146.27 L 139.88 145.23 C 139.72 144.38 138.90 143.83 138.05 144.00 C 137.21 144.16 136.66 144.98 136.82 145.82 Z M 136.98 146.73 L 137.07 147.65 C 137.16 148.53 137.94 149.16 138.81 149.07 C 139.69 148.98 140.32 148.20 140.23 147.33 L 140.13 146.40 C 140.04 145.53 139.26 144.90 138.39 144.99 C 137.52 145.08 136.88 145.86 136.98 146.73 Z M 137.06 147.58 L 137.12 148.59 C 137.17 149.47 137.92 150.14 138.79 150.09 C 139.67 150.05 140.34 149.30 140.29 148.42 L 140.24 147.40 C 140.19 146.53 139.44 145.86 138.56 145.90 C 137.69 145.95 137.02 146.70 137.06 147.58 Z M 137.12 148.55 L 137.15 149.62 C 137.17 150.50 137.90 151.19 138.78 151.16 C 139.65 151.14 140.35 150.41 140.32 149.53 L 140.29 148.47 C 140.27 147.59 139.54 146.90 138.66 146.92 C 137.79 146.94 137.09 147.67 137.12 148.55 Z M 137.15 149.60 L 137.16 150.66 C 137.17 151.53 137.89 152.24 138.77 152.22 C 139.64 152.21 140.35 151.49 140.34 150.62 L 140.32 149.56 C 140.31 148.68 139.59 147.98 138.71 147.99 C 137.84 148.00 137.13 148.72 137.15 149.60 Z M 137.16 150.64 L 137.16 151.64 C 137.17 152.51 137.88 153.22 138.76 153.22 C 139.63 153.22 140.34 152.50 140.34 151.62 L 140.34 150.63 C 140.33 149.75 139.62 149.04 138.74 149.05 C 137.86 149.05 137.16 149.76 137.16 150.64 Z M 137.16 151.63 L 137.16 152.62 C 137.16 153.50 137.88 154.21 138.75 154.21 C 139.63 154.21 140.34 153.50 140.34 152.62 L 140.34 151.63 C 140.34 150.75 139.63 150.04 138.75 150.04 C 137.87 150.04 137.16 150.75 137.16 151.63 Z M 137.17 152.62 L 137.17 153.62 C 137.17 154.49 137.88 155.20 138.75 155.20 C 139.63 155.20 140.33 154.49 140.33 153.62 L 140.33 152.62 C 140.33 151.75 139.63 151.04 138.75 151.04 C 137.88 151.04 137.17 151.75 137.17 152.62 Z M 137.18 153.62 L 137.18 154.55 C 137.18 155.42 137.88 156.13 138.75 156.13 C 139.62 156.13 140.33 155.42 140.33 154.55 L 140.33 153.62 C 140.33 152.75 139.62 152.04 138.75 152.04 C 137.88 152.04 137.18 152.75 137.18 153.62 Z M 137.18 154.55 L 137.18 155.55 C 137.18 156.42 137.88 157.12 138.75 157.12 C 139.62 157.12 140.32 156.42 140.32 155.55 L 140.32 154.55 C 140.32 153.69 139.62 152.98 138.75 152.98 C 137.88 152.98 137.18 153.69 137.18 154.55 Z M 137.19 155.55 L 137.19 156.57 C 137.19 157.43 137.89 158.13 138.75 158.13 C 139.61 158.13 140.31 157.43 140.31 156.57 L 140.31 155.55 C 140.31 154.69 139.61 153.99 138.75 153.99 C 137.89 153.99 137.19 154.69 137.19 155.55 Z M 137.20 156.56 L 137.19 157.56 C 137.19 158.42 137.88 159.12 138.74 159.13 C 139.60 159.13 140.30 158.44 140.30 157.58 L 140.31 156.58 C 140.31 155.72 139.62 155.02 138.76 155.01 C 137.90 155.01 137.20 155.70 137.20 156.56 Z M 137.20 157.54 L 137.18 158.48 C 137.16 159.34 137.84 160.04 138.70 160.06 C 139.55 160.08 140.26 159.40 140.27 158.55 L 140.29 157.60 C 140.31 156.75 139.63 156.04 138.78 156.03 C 137.92 156.01 137.22 156.69 137.20 157.54 Z M 137.19 158.44 L 137.14 159.44 C 137.10 160.29 137.76 161.01 138.61 161.05 C 139.46 161.09 140.18 160.43 140.22 159.58 L 140.27 158.59 C 140.31 157.74 139.65 157.02 138.80 156.98 C 137.95 156.94 137.23 157.59 137.19 158.44 Z M 137.15 159.41 L 137.08 160.42 C 137.02 161.26 137.66 161.99 138.50 162.05 C 139.35 162.11 140.08 161.47 140.14 160.63 L 140.21 159.62 C 140.27 158.77 139.63 158.04 138.79 157.98 C 137.94 157.92 137.21 158.56 137.15 159.41 Z M 137.09 160.41 L 137.01 161.43 C 136.95 162.27 137.58 163.01 138.43 163.07 C 139.27 163.13 140.00 162.49 140.06 161.65 L 140.14 160.63 C 140.20 159.79 139.56 159.06 138.72 159.00 C 137.88 158.93 137.15 159.57 137.09 160.41 Z M 137.01 161.46 L 136.96 162.47 C 136.91 163.31 137.56 164.03 138.40 164.08 C 139.24 164.12 139.96 163.48 140.00 162.64 L 140.06 161.62 C 140.11 160.78 139.46 160.06 138.62 160.02 C 137.78 159.97 137.06 160.62 137.01 161.46 Z M 136.97 162.53 L 136.95 163.58 C 136.93 164.42 137.60 165.11 138.44 165.12 C 139.27 165.14 139.96 164.47 139.98 163.64 L 140.00 162.58 C 140.01 161.75 139.34 161.06 138.51 161.04 C 137.67 161.03 136.98 161.69 136.97 162.53 Z M 136.96 163.64 L 136.98 164.60 C 137.00 165.43 137.68 166.09 138.51 166.07 C 139.33 166.06 139.99 165.38 139.98 164.55 L 139.96 163.59 C 139.95 162.76 139.26 162.10 138.44 162.11 C 137.61 162.13 136.95 162.81 136.96 163.64 Z M 136.99 164.62 L 137.00 164.94 C 137.02 165.76 137.71 166.41 138.53 166.39 C 139.35 166.36 140.00 165.68 139.98 164.86 L 139.97 164.53 C 139.94 163.71 139.26 163.07 138.44 163.09 C 137.62 163.11 136.97 163.80 136.99 164.62 Z"
      fill="black"
      fill-rule="nonzero" /><path d="M 154.55 135.76 L 155.46 135.23 C 156.18 134.81 156.43 133.89 156.01 133.17 C 155.59 132.45 154.67 132.20 153.95 132.62 L 153.03 133.15 C 152.31 133.56 152.07 134.49 152.48 135.21 C 152.90 135.93 153.83 136.18 154.55 135.76 Z M 153.73 135.18 L 154.30 135.62 C 154.99 136.16 155.99 136.04 156.53 135.34 C 157.06 134.65 156.94 133.65 156.25 133.11 L 155.68 132.67 C 154.99 132.13 153.99 132.26 153.45 132.95 C 152.91 133.64 153.03 134.64 153.73 135.18 Z M 153.71 134.77 L 153.97 135.80 C 154.19 136.67 155.07 137.19 155.93 136.97 C 156.80 136.75 157.32 135.87 157.10 135.01 L 156.84 133.97 C 156.62 133.11 155.74 132.58 154.87 132.80 C 154.01 133.02 153.49 133.90 153.71 134.77 Z M 153.93 135.65 L 154.08 136.61 C 154.21 137.50 155.04 138.11 155.92 137.97 C 156.81 137.84 157.42 137.01 157.28 136.13 L 157.14 135.16 C 157.01 134.28 156.18 133.67 155.29 133.80 C 154.41 133.94 153.80 134.76 153.93 135.65 Z M 154.07 136.55 L 154.19 137.62 C 154.29 138.51 155.10 139.15 155.99 139.05 C 156.88 138.95 157.52 138.14 157.42 137.25 L 157.30 136.18 C 157.19 135.29 156.39 134.65 155.49 134.75 C 154.60 134.86 153.96 135.66 154.07 136.55 Z M 154.18 137.59 L 154.29 138.62 C 154.38 139.52 155.17 140.17 156.07 140.08 C 156.96 139.99 157.61 139.20 157.53 138.30 L 157.42 137.27 C 157.33 136.38 156.54 135.73 155.64 135.81 C 154.75 135.90 154.10 136.70 154.18 137.59 Z M 154.28 138.60 L 154.37 139.58 C 154.45 140.47 155.23 141.14 156.13 141.06 C 157.03 140.98 157.69 140.19 157.61 139.30 L 157.53 138.32 C 157.45 137.43 156.66 136.76 155.77 136.84 C 154.87 136.92 154.21 137.71 154.28 138.60 Z M 154.37 139.55 L 154.44 140.60 C 154.50 141.49 155.27 142.17 156.17 142.11 C 157.06 142.05 157.74 141.28 157.68 140.38 L 157.61 139.33 C 157.55 138.43 156.78 137.75 155.88 137.81 C 154.98 137.87 154.31 138.65 154.37 139.55 Z M 154.43 140.58 L 154.49 141.51 C 154.54 142.40 155.30 143.09 156.20 143.04 C 157.10 142.99 157.79 142.22 157.74 141.33 L 157.68 140.40 C 157.63 139.50 156.87 138.81 155.97 138.86 C 155.07 138.91 154.38 139.68 154.43 140.58 Z M 154.49 141.52 L 154.55 142.52 C 154.61 143.41 155.39 144.09 156.28 144.03 C 157.18 143.98 157.85 143.20 157.80 142.31 L 157.73 141.31 C 157.67 140.42 156.90 139.74 156.01 139.80 C 155.11 139.85 154.43 140.63 154.49 141.52 Z M 154.56 142.51 L 154.62 143.51 C 154.67 144.41 155.44 145.09 156.33 145.03 C 157.22 144.98 157.91 144.21 157.85 143.32 L 157.79 142.32 C 157.74 141.42 156.97 140.74 156.08 140.80 C 155.19 140.85 154.51 141.62 154.56 142.51 Z M 154.62 143.49 L 154.67 144.49 C 154.71 145.38 155.47 146.07 156.36 146.03 C 157.25 145.99 157.94 145.23 157.89 144.34 L 157.85 143.34 C 157.81 142.45 157.05 141.76 156.16 141.81 C 155.27 141.85 154.58 142.60 154.62 143.49 Z M 154.68 144.48 L 154.71 145.47 C 154.75 146.36 155.50 147.05 156.39 147.02 C 157.27 146.98 157.96 146.23 157.93 145.35 L 157.89 144.35 C 157.85 143.46 157.11 142.77 156.22 142.81 C 155.33 142.84 154.64 143.59 154.68 144.48 Z M 154.72 145.47 L 154.76 146.47 C 154.79 147.36 155.53 148.05 156.42 148.02 C 157.30 147.99 157.99 147.24 157.96 146.36 L 157.92 145.35 C 157.89 144.47 157.15 143.78 156.26 143.81 C 155.38 143.84 154.69 144.58 154.72 145.47 Z M 154.76 146.47 L 154.79 147.47 C 154.82 148.36 155.56 149.05 156.45 149.02 C 157.33 148.99 158.02 148.25 157.99 147.36 L 157.96 146.36 C 157.93 145.48 157.19 144.79 156.30 144.82 C 155.42 144.85 154.73 145.59 154.76 146.47 Z M 154.80 147.45 L 154.82 148.46 C 154.84 149.34 155.57 150.03 156.45 150.02 C 157.33 150.00 158.03 149.27 158.01 148.39 L 157.99 147.39 C 157.97 146.51 157.24 145.81 156.36 145.83 C 155.48 145.84 154.78 146.57 154.80 147.45 Z M 154.83 148.43 L 154.83 149.43 C 154.84 150.31 155.55 151.01 156.43 151.01 C 157.30 151.00 158.01 150.29 158.01 149.41 L 158.00 148.41 C 158.00 147.54 157.28 146.83 156.41 146.83 C 155.53 146.84 154.82 147.55 154.83 148.43 Z M 154.84 149.42 L 154.84 150.41 C 154.84 151.29 155.55 152.00 156.42 152.00 C 157.29 152.00 158.00 151.29 158.00 150.41 L 158.00 149.42 C 158.00 148.55 157.29 147.84 156.42 147.84 C 155.55 147.84 154.84 148.55 154.84 149.42 Z M 154.84 150.41 L 154.84 151.40 C 154.84 152.27 155.55 152.97 156.42 152.97 C 157.29 152.97 157.99 152.27 157.99 151.40 L 157.99 150.41 C 157.99 149.54 157.29 148.84 156.42 148.84 C 155.55 148.84 154.84 149.54 154.84 150.41 Z M 154.85 151.40 L 154.85 152.37 C 154.85 153.23 155.55 153.93 156.42 153.93 C 157.28 153.93 157.98 153.23 157.98 152.37 L 157.98 151.40 C 157.98 150.54 157.28 149.84 156.42 149.84 C 155.55 149.84 154.85 150.54 154.85 151.40 Z M 154.87 152.37 L 154.87 153.40 C 154.87 154.26 155.56 154.96 156.42 154.96 C 157.28 154.96 157.97 154.26 157.97 153.40 L 157.97 152.37 C 157.97 151.51 157.28 150.81 156.42 150.81 C 155.56 150.81 154.87 151.51 154.87 152.37 Z M 154.88 153.40 L 154.88 154.43 C 154.88 155.28 155.57 155.97 156.42 155.97 C 157.27 155.97 157.96 155.28 157.96 154.43 L 157.96 153.40 C 157.96 152.55 157.27 151.86 156.42 151.86 C 155.57 151.86 154.88 152.55 154.88 153.40 Z M 154.89 154.42 L 154.89 155.45 C 154.89 156.29 155.57 156.98 156.42 156.98 C 157.26 156.98 157.95 156.30 157.95 155.45 L 157.95 154.43 C 157.95 153.58 157.27 152.90 156.42 152.90 C 155.58 152.89 154.89 153.58 154.89 154.42 Z M 154.91 155.31 L 154.82 156.29 C 154.75 157.12 155.36 157.86 156.19 157.93 C 157.02 158.01 157.76 157.40 157.83 156.57 L 157.92 155.59 C 158.00 154.76 157.38 154.02 156.55 153.95 C 155.72 153.87 154.99 154.48 154.91 155.31 Z M 154.96 155.86 L 154.59 156.73 C 154.28 157.48 154.63 158.35 155.39 158.67 C 156.15 158.99 157.02 158.63 157.34 157.87 L 157.70 157.00 C 158.02 156.24 157.66 155.37 156.90 155.06 C 156.14 154.74 155.27 155.10 154.96 155.86 Z M 154.77 156.45 L 154.18 157.28 C 153.71 157.94 153.86 158.86 154.52 159.33 C 155.18 159.80 156.10 159.64 156.57 158.98 L 157.16 158.15 C 157.63 157.49 157.48 156.57 156.81 156.10 C 156.15 155.63 155.24 155.79 154.77 156.45 Z M 154.22 157.24 L 154.15 157.33 C 153.66 157.97 153.78 158.88 154.41 159.37 C 155.05 159.87 155.97 159.75 156.46 159.11 L 156.53 159.02 C 157.02 158.39 156.90 157.47 156.26 156.98 C 155.63 156.49 154.71 156.60 154.22 157.24 Z"
      fill="black"
      fill-rule="nonzero" /><path d="M 148.27 146.46 L 148.21 147.55 C 148.17 148.41 148.83 149.15 149.69 149.19 C 150.55 149.23 151.28 148.57 151.33 147.71 L 151.38 146.61 C 151.43 145.75 150.76 145.02 149.90 144.98 C 149.04 144.93 148.31 145.60 148.27 146.46 Z M 148.21 147.55 L 148.15 148.59 C 148.11 149.46 148.77 150.19 149.64 150.24 C 150.50 150.28 151.24 149.62 151.28 148.75 L 151.33 147.71 C 151.38 146.85 150.71 146.11 149.85 146.07 C 148.98 146.03 148.25 146.69 148.21 147.55 Z M 148.15 148.59 L 148.10 149.52 C 148.06 150.38 148.72 151.12 149.59 151.16 C 150.46 151.21 151.20 150.54 151.24 149.67 L 151.29 148.75 C 151.33 147.89 150.66 147.15 149.80 147.10 C 148.93 147.06 148.19 147.73 148.15 148.59 Z M 148.10 149.52 L 148.04 150.58 C 148.00 151.44 148.67 152.18 149.54 152.23 C 150.41 152.27 151.15 151.60 151.19 150.74 L 151.24 149.67 C 151.29 148.81 150.62 148.07 149.75 148.02 C 148.88 147.98 148.14 148.65 148.10 149.52 Z M 148.04 150.57 L 147.99 151.48 C 147.95 152.35 148.61 153.10 149.48 153.14 C 150.35 153.19 151.09 152.52 151.14 151.66 L 151.19 150.74 C 151.24 149.87 150.57 149.13 149.70 149.08 C 148.83 149.04 148.09 149.70 148.04 150.57 Z M 147.99 151.47 L 147.93 152.41 C 147.88 153.28 148.53 154.03 149.40 154.08 C 150.27 154.14 151.02 153.48 151.08 152.61 L 151.14 151.67 C 151.20 150.80 150.54 150.05 149.67 150.00 C 148.80 149.94 148.05 150.60 147.99 151.47 Z M 147.93 152.40 L 147.86 153.41 C 147.79 154.28 148.45 155.03 149.31 155.10 C 150.18 155.16 150.94 154.51 151.00 153.64 L 151.08 152.63 C 151.14 151.76 150.49 151.00 149.62 150.94 C 148.75 150.87 148.00 151.53 147.93 152.40 Z M 147.86 153.40 L 147.78 154.40 C 147.71 155.27 148.36 156.03 149.23 156.10 C 150.10 156.17 150.86 155.52 150.93 154.65 L 151.00 153.65 C 151.07 152.78 150.42 152.02 149.55 151.95 C 148.68 151.88 147.93 152.53 147.86 153.40 Z M 147.78 154.40 L 147.70 155.36 C 147.64 156.23 148.29 156.99 149.15 157.05 C 150.02 157.12 150.78 156.47 150.85 155.60 L 150.93 154.65 C 150.99 153.78 150.35 153.02 149.48 152.95 C 148.61 152.88 147.85 153.53 147.78 154.40 Z M 147.70 155.36 L 147.63 156.31 C 147.56 157.18 148.21 157.94 149.08 158.01 C 149.95 158.08 150.71 157.43 150.78 156.56 L 150.85 155.60 C 150.92 154.74 150.27 153.98 149.40 153.91 C 148.53 153.84 147.77 154.49 147.70 155.36 Z M 147.63 156.31 L 147.55 157.32 C 147.47 158.19 148.12 158.95 148.99 159.02 C 149.86 159.09 150.62 158.45 150.69 157.58 L 150.78 156.56 C 150.85 155.70 150.20 154.93 149.33 154.86 C 148.46 154.79 147.70 155.44 147.63 156.31 Z M 147.55 157.32 L 147.47 158.28 C 147.40 159.14 148.04 159.91 148.91 159.98 C 149.78 160.05 150.54 159.40 150.61 158.53 L 150.69 157.58 C 150.76 156.71 150.12 155.95 149.25 155.87 C 148.38 155.80 147.62 156.45 147.55 157.32 Z M 147.47 158.29 L 147.39 159.34 C 147.32 160.21 147.98 160.97 148.85 161.04 C 149.71 161.10 150.47 160.45 150.54 159.58 L 150.62 158.52 C 150.68 157.65 150.03 156.90 149.16 156.83 C 148.29 156.77 147.53 157.42 147.47 158.29 Z M 147.39 159.36 L 147.32 160.44 C 147.27 161.31 147.93 162.06 148.80 162.11 C 149.67 162.16 150.42 161.50 150.47 160.63 L 150.54 159.56 C 150.59 158.69 149.93 157.94 149.06 157.89 C 148.19 157.83 147.44 158.49 147.39 159.36 Z M 147.32 160.46 L 147.27 161.50 C 147.23 162.37 147.90 163.11 148.78 163.15 C 149.65 163.19 150.39 162.52 150.43 161.65 L 150.47 160.61 C 150.51 159.74 149.84 159.00 148.97 158.96 C 148.10 158.92 147.36 159.59 147.32 160.46 Z M 147.27 161.53 L 147.24 162.51 C 147.22 163.38 147.91 164.10 148.78 164.13 C 149.65 164.15 150.38 163.46 150.40 162.59 L 150.43 161.62 C 150.45 160.74 149.76 160.02 148.89 160.00 C 148.02 159.97 147.29 160.66 147.27 161.53 Z M 147.24 162.57 L 147.26 163.62 C 147.27 164.49 147.98 165.19 148.85 165.18 C 149.72 165.17 150.42 164.46 150.41 163.59 L 150.40 162.53 C 150.39 161.66 149.68 160.96 148.80 160.97 C 147.93 160.98 147.23 161.69 147.24 162.57 Z M 147.28 163.87 L 147.44 164.82 C 147.59 165.68 148.41 166.26 149.27 166.11 C 150.12 165.96 150.70 165.15 150.55 164.29 L 150.39 163.34 C 150.24 162.48 149.43 161.90 148.57 162.05 C 147.71 162.20 147.13 163.01 147.28 163.87 Z M 147.70 165.46 L 148.21 166.19 C 148.71 166.90 149.70 167.08 150.41 166.58 C 151.13 166.08 151.30 165.10 150.80 164.38 L 150.29 163.65 C 149.79 162.94 148.81 162.76 148.09 163.26 C 147.38 163.76 147.20 164.75 147.70 165.46 Z M 148.74 166.66 L 149.62 167.15 C 150.38 167.58 151.34 167.31 151.76 166.55 C 152.19 165.78 151.92 164.82 151.15 164.40 L 150.28 163.91 C 149.51 163.48 148.55 163.75 148.13 164.52 C 147.70 165.28 147.98 166.24 148.74 166.66 Z M 150.02 167.31 L 150.97 167.54 C 151.82 167.74 152.67 167.22 152.87 166.37 C 153.07 165.52 152.55 164.67 151.70 164.47 L 150.75 164.24 C 149.90 164.04 149.05 164.56 148.85 165.41 C 148.65 166.26 149.17 167.11 150.02 167.31 Z M 151.23 167.57 L 152.23 167.64 C 153.10 167.70 153.85 167.05 153.91 166.18 C 153.97 165.31 153.31 164.56 152.45 164.50 L 151.44 164.43 C 150.57 164.37 149.82 165.03 149.76 165.89 C 149.70 166.76 150.36 167.52 151.23 167.57 Z M 152.32 167.64 L 153.34 167.66 C 154.21 167.67 154.93 166.97 154.94 166.10 C 154.95 165.23 154.25 164.52 153.38 164.51 L 152.36 164.50 C 151.49 164.48 150.78 165.18 150.76 166.05 C 150.75 166.92 151.45 167.63 152.32 167.64 Z M 153.38 167.66 L 154.40 167.65 C 155.27 167.64 155.97 166.93 155.96 166.06 C 155.95 165.19 155.24 164.49 154.37 164.50 L 153.35 164.51 C 152.48 164.52 151.78 165.23 151.79 166.10 C 151.80 166.97 152.51 167.66 153.38 167.66 Z M 154.46 167.64 L 155.49 167.59 C 156.36 167.55 157.03 166.81 156.98 165.94 C 156.94 165.08 156.20 164.41 155.34 164.45 L 154.31 164.51 C 153.44 164.55 152.77 165.29 152.82 166.15 C 152.86 167.02 153.60 167.68 154.46 167.64 Z M 155.60 167.57 L 156.57 167.46 C 157.43 167.35 158.04 166.57 157.94 165.72 C 157.83 164.86 157.05 164.25 156.20 164.35 L 155.23 164.47 C 154.37 164.57 153.76 165.35 153.86 166.21 C 153.97 167.07 154.75 167.68 155.60 167.57 Z M 156.70 167.43 L 157.66 167.23 C 158.50 167.05 159.04 166.23 158.86 165.39 C 158.68 164.54 157.86 164.01 157.02 164.18 L 156.06 164.38 C 155.22 164.56 154.69 165.38 154.86 166.22 C 155.04 167.07 155.86 167.60 156.70 167.43 Z M 157.73 167.20 L 158.69 166.95 C 159.52 166.73 160.01 165.89 159.80 165.06 C 159.58 164.23 158.73 163.74 157.91 163.96 L 156.95 164.21 C 156.12 164.43 155.63 165.27 155.84 166.10 C 156.06 166.92 156.90 167.42 157.73 167.20 Z M 158.70 166.94 L 159.67 166.68 C 160.49 166.45 160.97 165.61 160.75 164.79 C 160.53 163.97 159.68 163.49 158.87 163.71 L 157.90 163.97 C 157.08 164.19 156.59 165.03 156.82 165.85 C 157.04 166.67 157.88 167.16 158.70 166.94 Z M 159.70 166.66 L 160.60 166.39 C 161.41 166.15 161.87 165.30 161.64 164.50 C 161.40 163.69 160.55 163.22 159.74 163.46 L 158.84 163.73 C 158.03 163.96 157.56 164.81 157.80 165.62 C 158.04 166.43 158.89 166.89 159.70 166.66 Z M 160.61 166.38 L 161.60 166.08 C 162.41 165.83 162.86 164.99 162.61 164.18 C 162.37 163.38 161.52 162.93 160.72 163.17 L 159.73 163.47 C 158.93 163.72 158.47 164.56 158.72 165.37 C 158.96 166.17 159.81 166.62 160.61 166.38 Z M 161.58 166.08 L 162.52 165.81 C 163.32 165.58 163.78 164.74 163.55 163.93 C 163.32 163.13 162.48 162.67 161.67 162.90 L 160.74 163.17 C 159.94 163.40 159.48 164.24 159.71 165.05 C 159.94 165.85 160.78 166.31 161.58 166.08 Z M 162.50 165.81 L 163.49 165.53 C 164.30 165.31 164.77 164.48 164.54 163.68 C 164.32 162.87 163.49 162.40 162.69 162.63 L 161.69 162.90 C 160.89 163.12 160.42 163.95 160.64 164.76 C 160.86 165.56 161.69 166.03 162.50 165.81 Z M 163.47 165.53 L 164.49 165.26 C 165.29 165.05 165.76 164.23 165.55 163.43 C 165.34 162.62 164.52 162.15 163.72 162.36 L 162.70 162.63 C 161.90 162.84 161.43 163.66 161.64 164.46 C 161.85 165.27 162.67 165.74 163.47 165.53 Z M 164.48 165.24 L 165.45 164.99 C 166.25 164.78 166.72 163.96 166.51 163.17 C 166.30 162.38 165.48 161.91 164.69 162.12 L 163.72 162.38 C 162.93 162.59 162.46 163.40 162.67 164.19 C 162.88 164.98 163.69 165.45 164.48 165.24 Z M 165.49 164.96 L 166.42 164.68 C 167.19 164.45 167.64 163.64 167.41 162.86 C 167.18 162.09 166.36 161.65 165.59 161.87 L 164.66 162.15 C 163.88 162.38 163.44 163.19 163.67 163.97 C 163.90 164.74 164.71 165.18 165.49 164.96 Z M 166.48 164.65 L 167.43 164.32 C 168.18 164.06 168.58 163.23 168.32 162.48 C 168.06 161.72 167.24 161.32 166.48 161.58 L 165.53 161.91 C 164.78 162.17 164.37 162.99 164.64 163.75 C 164.90 164.51 165.72 164.91 166.48 164.65 Z M 167.46 164.30 L 168.26 164.00 C 169.00 163.72 169.38 162.89 169.10 162.15 C 168.82 161.40 167.99 161.02 167.25 161.30 L 166.45 161.60 C 165.71 161.88 165.33 162.71 165.61 163.45 C 165.89 164.20 166.71 164.57 167.46 164.30 Z"
      fill="black"
      fill-rule="nonzero" /><path d="M 167.87 146.14 L 167.87 147.21 C 167.87 148.06 168.56 148.75 169.41 148.75 C 170.25 148.75 170.94 148.06 170.94 147.21 L 170.94 146.14 C 170.94 145.29 170.25 144.60 169.41 144.60 C 168.56 144.60 167.87 145.29 167.87 146.14 Z M 167.83 147.21 L 167.83 148.23 C 167.83 149.10 168.53 149.81 169.41 149.81 C 170.28 149.81 170.99 149.10 170.99 148.23 L 170.99 147.21 C 170.99 146.34 170.28 145.63 169.41 145.63 C 168.53 145.63 167.83 146.34 167.83 147.21 Z M 167.78 148.23 L 167.78 149.16 C 167.78 150.05 168.51 150.78 169.41 150.78 C 170.30 150.78 171.03 150.05 171.03 149.16 L 171.03 148.23 C 171.03 147.33 170.30 146.61 169.41 146.61 C 168.51 146.61 167.78 147.33 167.78 148.23 Z M 167.77 149.16 L 167.77 150.22 C 167.77 151.13 168.50 151.86 169.41 151.86 C 170.31 151.86 171.05 151.13 171.05 150.22 L 171.05 149.16 C 171.05 148.25 170.31 147.52 169.41 147.52 C 168.50 147.52 167.77 148.25 167.77 149.16 Z M 167.77 150.22 L 167.77 151.13 C 167.77 152.04 168.50 152.77 169.41 152.77 C 170.31 152.77 171.04 152.04 171.04 151.13 L 171.04 150.22 C 171.04 149.32 170.31 148.59 169.41 148.59 C 168.50 148.59 167.77 149.32 167.77 150.22 Z M 167.78 151.13 L 167.78 152.13 C 167.78 153.02 168.51 153.75 169.41 153.75 C 170.30 153.75 171.03 153.02 171.03 152.13 L 171.03 151.13 C 171.03 150.24 170.30 149.51 169.41 149.51 C 168.51 149.51 167.78 150.24 167.78 151.13 Z M 167.79 152.13 L 167.79 153.13 C 167.79 154.02 168.51 154.74 169.41 154.74 C 170.30 154.74 171.02 154.02 171.02 153.13 L 171.02 152.13 C 171.02 151.24 170.30 150.51 169.41 150.51 C 168.51 150.51 167.79 151.24 167.79 152.13 Z M 167.80 153.13 L 167.80 154.13 C 167.80 155.01 168.52 155.73 169.41 155.73 C 170.29 155.73 171.01 155.01 171.01 154.13 L 171.01 153.13 C 171.01 152.24 170.29 151.53 169.41 151.53 C 168.52 151.53 167.80 152.24 167.80 153.13 Z M 167.82 154.13 L 167.82 155.13 C 167.82 156.01 168.53 156.72 169.41 156.72 C 170.28 156.72 171.00 156.01 171.00 155.13 L 171.00 154.13 C 171.00 153.25 170.28 152.54 169.41 152.54 C 168.53 152.54 167.82 153.25 167.82 154.13 Z M 167.83 155.13 L 167.83 156.14 C 167.83 157.01 168.54 157.71 169.41 157.71 C 170.27 157.71 170.98 157.01 170.98 156.14 L 170.98 155.13 C 170.98 154.26 170.27 153.56 169.41 153.56 C 168.54 153.56 167.83 154.26 167.83 155.13 Z M 167.85 156.14 L 167.85 157.15 C 167.85 158.01 168.55 158.70 169.41 158.70 C 170.26 158.70 170.96 158.01 170.96 157.15 L 170.96 156.14 C 170.96 155.28 170.26 154.58 169.41 154.58 C 168.55 154.58 167.85 155.28 167.85 156.14 Z M 167.87 157.15 L 167.87 158.15 C 167.87 159.00 168.56 159.68 169.41 159.68 C 170.25 159.68 170.94 159.00 170.94 158.15 L 170.94 157.15 C 170.94 156.30 170.25 155.62 169.41 155.62 C 168.56 155.62 167.87 156.30 167.87 157.15 Z M 167.89 158.15 L 167.89 159.15 C 167.89 159.99 168.57 160.67 169.41 160.67 C 170.24 160.67 170.92 159.99 170.92 159.15 L 170.92 158.15 C 170.92 157.31 170.24 156.63 169.41 156.63 C 168.57 156.63 167.89 157.31 167.89 158.15 Z M 167.91 159.15 L 167.91 160.14 C 167.91 160.97 168.58 161.64 169.41 161.64 C 170.23 161.64 170.91 160.97 170.91 160.14 L 170.91 159.15 C 170.91 158.32 170.23 157.65 169.41 157.65 C 168.58 157.65 167.91 158.32 167.91 159.15 Z M 167.93 160.14 L 167.93 161.08 C 167.92 161.89 168.59 162.56 169.40 162.56 C 170.22 162.56 170.89 161.90 170.89 161.08 L 170.89 160.14 C 170.89 159.33 170.23 158.66 169.41 158.66 C 168.59 158.66 167.93 159.32 167.93 160.14 Z M 167.94 161.07 L 167.94 162.11 C 167.93 162.92 168.58 163.57 169.39 163.58 C 170.19 163.59 170.85 162.94 170.86 162.13 L 170.87 161.09 C 170.87 160.28 170.22 159.62 169.42 159.62 C 168.61 159.61 167.95 160.26 167.94 161.07 Z M 167.95 162.10 L 167.94 163.04 C 167.92 163.84 168.56 164.50 169.36 164.51 C 170.16 164.53 170.82 163.89 170.83 163.09 L 170.84 162.14 C 170.86 161.34 170.22 160.69 169.42 160.67 C 168.62 160.66 167.96 161.30 167.95 162.10 Z M 167.94 163.04 L 167.92 164.06 C 167.91 164.85 168.54 165.51 169.33 165.53 C 170.13 165.54 170.78 164.91 170.80 164.12 L 170.82 163.10 C 170.84 162.30 170.21 161.65 169.41 161.63 C 168.62 161.61 167.96 162.24 167.94 163.04 Z M 167.93 164.06 L 167.91 164.87 C 167.90 165.66 168.52 166.31 169.31 166.33 C 170.10 166.35 170.76 165.72 170.77 164.93 L 170.79 164.12 C 170.81 163.33 170.18 162.68 169.39 162.66 C 168.60 162.64 167.95 163.27 167.93 164.06 Z"
      fill="black"
      fill-rule="nonzero" /></svg>