<svg xmlns="http://www.w3.org/2000/svg" width="300" height="300" viewBox="0 0 300 300">
<path d="M 140.63 126.63 L 140.74 125.63 C 140.82 124.82 140.23 124.09 139.42 124.00 C 138.60 123.91 137.87 124.50 137.78 125.32 L 137.67 126.32 C 137.59 127.13 138.18 127.87 138.99 127.95 C 139.81 128.04 140.54 127.45 140.63 126.63 Z M 137.75 125.54 L 137.78 126.23 C 137.81 127.07 138.51 127.71 139.35 127.68 C 140.18 127.65 140.83 126.94 140.80 126.11 L 140.77 125.41 C 140.74 124.58 140.03 123.93 139.20 123.96 C 138.36 124.00 137.71 124.70 137.75 125.54 Z M 137.77 126.17 L 137.77 127.40 C 137.77 128.23 138.45 128.91 139.29 128.91 C 140.13 128.91 140.81 128.23 140.81 127.39 L 140.80 126.17 C 140.80 125.33 140.12 124.65 139.28 124.65 C 138.45 124.65 137.77 125.33 137.77 126.17 Z M 137.77 127.39 L 137.77 128.40 C 137.77 129.23 138.45 129.91 139.29 129.91 C 140.13 129.91 140.81 129.23 140.81 128.40 L 140.81 127.39 C 140.81 126.56 140.13 125.88 139.29 125.88 C 138.45 125.88 137.77 126.56 137.77 127.39 Z M 137.78 128.40 L 137.78 129.38 C 137.78 130.21 138.45 130.89 139.29 130.89 C 140.12 130.89 140.80 130.21 140.80 129.38 L 140.80 128.40 C 140.80 127.56 140.12 126.88 139.29 126.88 C 138.45 126.88 137.78 127.56 137.78 128.40 Z M 137.78 129.38 L 137.78 130.39 C 137.78 131.22 138.46 131.89 139.29 131.89 C 140.12 131.89 140.80 131.22 140.80 130.39 L 140.80 129.38 C 140.80 128.55 140.12 127.87 139.29 127.87 C 138.46 127.87 137.78 128.55 137.78 129.38 Z M 137.79 130.39 L 137.79 131.38 C 137.79 132.21 138.46 132.88 139.29 132.88 C 140.12 132.88 140.79 132.21 140.79 131.38 L 140.79 130.39 C 140.79 129.56 140.12 128.88 139.29 128.88 C 138.46 128.88 137.79 129.56 137.79 130.39 Z M 137.80 131.38 L 137.80 132.37 C 137.80 133.20 138.47 133.86 139.29 133.86 C 140.11 133.86 140.78 133.20 140.78 132.37 L 140.78 131.38 C 140.78 130.56 140.11 129.89 139.29 129.89 C 138.47 129.89 137.80 130.56 137.80 131.38 Z M 137.82 132.37 L 137.82 133.37 C 137.82 134.18 138.48 134.84 139.29 134.84 C 140.10 134.84 140.76 134.18 140.76 133.37 L 140.76 132.37 C 140.76 131.56 140.10 130.90 139.29 130.90 C 138.48 130.90 137.82 131.56 137.82 132.37 Z M 137.84 133.37 L 137.84 134.37 C 137.84 135.17 138.49 135.82 139.29 135.82 C 140.09 135.82 140.74 135.17 140.74 134.37 L 140.74 133.37 C 140.74 132.57 140.09 131.92 139.29 131.92 C 138.49 131.92 137.84 132.57 137.84 133.37 Z M 137.85 134.37 L 137.85 135.12 C 137.85 135.91 138.50 136.56 139.29 136.56 C 140.08 136.56 140.73 135.91 140.73 135.12 L 140.73 134.37 C 140.73 133.57 140.08 132.93 139.29 132.93 C 138.50 132.93 137.85 133.57 137.85 134.37 Z"
      fill="black"
      fill-rule="nonzero" /><path d="M 140.34 129.77 L 141.32 129.77 C 142.16 129.77 142.83 129.10 142.83 128.26 C 142.83 127.42 142.16 126.74 141.32 126.74 L 140.34 126.74 C 139.50 126.74 138.83 127.42 138.83 128.26 C 138.83 129.10 139.50 129.77 140.34 129.77 Z M 141.32 129.80 L 142.33 129.80 C 143.18 129.80 143.87 129.11 143.87 128.26 C 143.87 127.41 143.18 126.72 142.33 126.72 L 141.32 126.72 C 140.47 126.72 139.78 127.41 139.78 128.26 C 139.78 129.11 140.47 129.80 141.32 129.80 Z M 142.33 129.81 L 143.29 129.81 C 144.14 129.81 144.83 129.11 144.83 128.26 C 144.83 127.40 144.14 126.71 143.29 126.71 L 142.33 126.71 C 141.48 126.71 140.78 127.40 140.78 128.26 C 140.78 129.11 141.48 129.81 142.33 129.81 Z M 143.29 129.80 L 144.33 129.80 C 145.18 129.80 145.87 129.11 145.87 128.26 C 145.87 127.41 145.18 126.72 144.33 126.72 L 143.29 126.72 C 142.44 126.72 141.75 127.41 141.75 128.26 C 141.75 129.11 142.44 129.80 143.29 129.80 Z M 144.33 129.79 L 145.30 129.79 C 146.15 129.79 146.83 129.11 146.83 128.26 C 146.83 127.41 146.15 126.73 145.30 126.73 L 144.33 126.73 C 143.48 126.73 142.80 127.41 142.80 128.26 C 142.80 129.11 143.48 129.79 144.33 129.79 Z M 145.30 129.79 L 146.31 129.79 C 147.15 129.79 147.84 129.10 147.84 128.26 C 147.84 127.42 147.15 126.73 146.31 126.73 L 145.30 126.73 C 144.46 126.73 143.77 127.42 143.77 128.26 C 143.77 129.10 144.46 129.79 145.30 129.79 Z M 146.31 129.78 L 147.34 129.78 C 148.18 129.78 148.86 129.10 148.86 128.26 C 148.86 127.42 148.18 126.74 147.34 126.74 L 146.31 126.74 C 145.47 126.74 144.79 127.42 144.79 128.26 C 144.79 129.10 145.47 129.78 146.31 129.78 Z M 147.34 129.77 L 148.33 129.77 C 149.17 129.77 149.84 129.10 149.84 128.26 C 149.84 127.43 149.17 126.75 148.33 126.75 L 147.34 126.75 C 146.50 126.75 145.83 127.42 145.83 128.26 C 145.83 129.09 146.50 129.77 147.34 129.77 Z M 148.33 129.76 L 149.33 129.76 C 150.16 129.77 150.83 129.10 150.84 128.27 C 150.84 127.44 150.17 126.77 149.34 126.76 L 148.34 126.76 C 147.51 126.76 146.84 127.43 146.83 128.25 C 146.83 129.08 147.50 129.76 148.33 129.76 Z M 149.32 129.75 L 150.35 129.76 C 151.17 129.77 151.84 129.11 151.85 128.29 C 151.86 127.47 151.20 126.79 150.38 126.79 L 149.35 126.78 C 148.53 126.77 147.86 127.43 147.85 128.25 C 147.84 129.07 148.50 129.74 149.32 129.75 Z M 150.33 129.75 L 151.36 129.77 C 152.17 129.79 152.85 129.14 152.86 128.33 C 152.88 127.51 152.24 126.84 151.42 126.82 L 150.39 126.80 C 149.58 126.78 148.90 127.43 148.89 128.24 C 148.87 129.06 149.51 129.73 150.33 129.75 Z M 151.32 129.76 L 152.29 129.80 C 153.10 129.84 153.78 129.22 153.82 128.41 C 153.86 127.61 153.24 126.92 152.43 126.88 L 151.46 126.84 C 150.65 126.80 149.97 127.42 149.93 128.23 C 149.89 129.03 150.51 129.72 151.32 129.76 Z M 152.21 129.79 L 153.20 129.89 C 154.00 129.97 154.71 129.39 154.79 128.60 C 154.88 127.80 154.30 127.09 153.50 127.00 L 152.51 126.90 C 151.71 126.82 151.00 127.40 150.92 128.19 C 150.83 128.99 151.41 129.70 152.21 129.79 Z M 153.01 129.85 L 153.95 130.08 C 154.73 130.27 155.51 129.80 155.70 129.02 C 155.89 128.25 155.42 127.47 154.64 127.28 L 153.69 127.04 C 152.92 126.85 152.14 127.33 151.95 128.10 C 151.76 128.88 152.23 129.66 153.01 129.85 Z M 153.68 129.98 L 154.56 130.39 C 155.27 130.73 156.13 130.42 156.47 129.70 C 156.81 128.99 156.50 128.13 155.78 127.79 L 154.91 127.38 C 154.19 127.04 153.34 127.35 153.00 128.06 C 152.66 128.78 152.96 129.64 153.68 129.98 Z M 154.37 130.28 L 155.19 130.83 C 155.84 131.27 156.74 131.09 157.18 130.43 C 157.62 129.77 157.44 128.88 156.78 128.44 L 155.97 127.90 C 155.31 127.46 154.42 127.63 153.98 128.29 C 153.54 128.95 153.71 129.84 154.37 130.28 Z M 155.11 130.77 L 155.94 131.40 C 156.56 131.89 157.46 131.77 157.94 131.14 C 158.43 130.52 158.31 129.62 157.68 129.14 L 156.86 128.50 C 156.23 128.02 155.33 128.14 154.85 128.76 C 154.37 129.39 154.49 130.29 155.11 130.77 Z M 155.92 131.39 L 156.13 131.56 C 156.75 132.05 157.65 131.94 158.14 131.33 C 158.63 130.71 158.52 129.81 157.91 129.32 L 157.70 129.15 C 157.08 128.66 156.18 128.77 155.69 129.38 C 155.20 130.00 155.30 130.90 155.92 131.39 Z"
      fill="black"
      fill-rule="nonzero" /><path d="M 138.07 140.66 L 139.04 140.68 C 139.87 140.70 140.56 140.04 140.58 139.21 C 140.60 138.37 139.94 137.68 139.10 137.66 L 138.13 137.64 C 137.30 137.62 136.61 138.28 136.59 139.12 C 136.57 139.95 137.23 140.65 138.07 140.66 Z M 139.04 140.72 L 140.05 140.74 C 140.90 140.75 141.61 140.07 141.62 139.22 C 141.64 138.36 140.96 137.66 140.10 137.64 L 139.10 137.63 C 138.24 137.61 137.54 138.29 137.52 139.15 C 137.51 140.00 138.19 140.71 139.04 140.72 Z M 140.06 140.76 L 141.09 140.78 C 141.96 140.78 142.67 140.09 142.68 139.22 C 142.69 138.35 141.99 137.64 141.12 137.63 L 140.09 137.62 C 139.22 137.61 138.51 138.31 138.50 139.18 C 138.49 140.04 139.19 140.76 140.06 140.76 Z M 141.10 140.78 L 142.13 140.79 C 143.01 140.79 143.72 140.09 143.72 139.21 C 143.72 138.34 143.02 137.63 142.14 137.62 L 141.11 137.62 C 140.24 137.62 139.53 138.32 139.53 139.20 C 139.52 140.07 140.23 140.78 141.10 140.78 Z M 142.14 140.79 L 143.11 140.79 C 143.98 140.79 144.69 140.08 144.69 139.21 C 144.69 138.33 143.98 137.62 143.11 137.62 L 142.14 137.62 C 141.26 137.62 140.55 138.33 140.55 139.20 C 140.55 140.08 141.26 140.79 142.14 140.79 Z M 143.11 140.78 L 144.16 140.78 C 145.03 140.78 145.74 140.08 145.74 139.21 C 145.74 138.34 145.03 137.63 144.16 137.63 L 143.11 137.63 C 142.24 137.63 141.54 138.34 141.54 139.21 C 141.54 140.08 142.24 140.78 143.11 140.78 Z M 144.16 140.76 L 145.11 140.76 C 145.97 140.76 146.66 140.06 146.66 139.21 C 146.66 138.35 145.97 137.66 145.11 137.66 L 144.16 137.66 C 143.31 137.66 142.61 138.35 142.61 139.21 C 142.61 140.06 143.31 140.76 144.16 140.76 Z M 145.11 140.74 L 146.10 140.74 C 146.94 140.74 147.63 140.05 147.63 139.21 C 147.63 138.36 146.94 137.67 146.10 137.67 L 145.11 137.67 C 144.26 137.67 143.58 138.36 143.58 139.21 C 143.58 140.05 144.26 140.74 145.11 140.74 Z M 146.10 140.72 L 147.10 140.72 C 147.94 140.72 148.62 140.04 148.62 139.21 C 148.62 138.37 147.94 137.69 147.10 137.69 L 146.10 137.69 C 145.26 137.69 144.58 138.37 144.58 139.21 C 144.58 140.04 145.26 140.72 146.10 140.72 Z M 147.10 140.72 L 148.10 140.72 C 148.93 140.72 149.61 140.04 149.61 139.21 C 149.61 138.37 148.93 137.69 148.10 137.69 L 147.10 137.69 C 146.27 137.69 145.59 138.37 145.59 139.21 C 145.59 140.04 146.27 140.72 147.10 140.72 Z M 148.10 140.72 L 149.10 140.72 C 149.94 140.72 150.61 140.04 150.61 139.21 C 150.61 138.37 149.94 137.69 149.10 137.69 L 148.10 137.69 C 147.26 137.69 146.59 138.37 146.59 139.21 C 146.59 140.04 147.26 140.72 148.10 140.72 Z M 149.10 140.72 L 150.10 140.72 C 150.93 140.72 151.61 140.04 151.61 139.21 C 151.61 138.37 150.93 137.70 150.10 137.70 L 149.10 137.70 C 148.27 137.70 147.59 138.37 147.59 139.21 C 147.59 140.04 148.27 140.72 149.10 140.72 Z M 150.10 140.72 L 151.10 140.72 C 151.93 140.72 152.61 140.04 152.61 139.21 C 152.61 138.37 151.93 137.70 151.10 137.70 L 150.10 137.70 C 149.27 137.70 148.59 138.37 148.59 139.21 C 148.59 140.04 149.27 140.72 150.10 140.72 Z M 151.10 140.71 L 152.10 140.71 C 152.93 140.71 153.61 140.04 153.61 139.21 C 153.61 138.37 152.93 137.70 152.10 137.70 L 151.10 137.70 C 150.27 137.70 149.59 138.37 149.59 139.21 C 149.59 140.04 150.27 140.71 151.10 140.71 Z M 152.10 140.71 L 153.10 140.71 C 153.93 140.71 154.60 140.04 154.60 139.21 C 154.60 138.38 153.93 137.70 153.10 137.70 L 152.10 137.70 C 151.27 137.70 150.60 138.38 150.60 139.21 C 150.60 140.04 151.27 140.71 152.10 140.71 Z M 153.10 140.70 L 154.09 140.70 C 154.92 140.70 155.59 140.03 155.59 139.21 C 155.59 138.38 154.92 137.71 154.09 137.71 L 153.10 137.71 C 152.27 137.71 151.60 138.38 151.60 139.21 C 151.60 140.03 152.27 140.70 153.10 140.70 Z M 154.09 140.70 L 155.08 140.70 C 155.91 140.70 156.57 140.03 156.57 139.21 C 156.57 138.38 155.91 137.71 155.08 137.71 L 154.09 137.71 C 153.27 137.71 152.60 138.38 152.60 139.21 C 152.60 140.03 153.27 140.70 154.09 140.70 Z M 155.08 140.69 L 156.06 140.69 C 156.87 140.69 157.54 140.02 157.54 139.21 C 157.54 138.39 156.87 137.72 156.06 137.72 L 155.08 137.72 C 154.26 137.72 153.60 138.39 153.60 139.21 C 153.60 140.02 154.26 140.69 155.08 140.69 Z M 156.06 140.68 L 157.09 140.68 C 157.90 140.68 158.56 140.02 158.56 139.21 C 158.56 138.40 157.90 137.74 157.09 137.74 L 156.06 137.74 C 155.24 137.74 154.59 138.40 154.59 139.21 C 154.59 140.02 155.24 140.68 156.06 140.68 Z M 157.09 140.67 L 158.08 140.67 C 158.89 140.67 159.54 140.01 159.54 139.21 C 159.54 138.40 158.89 137.75 158.08 137.75 L 157.09 137.75 C 156.29 137.75 155.63 138.40 155.63 139.21 C 155.63 140.01 156.29 140.67 157.09 140.67 Z M 158.08 140.66 L 159.10 140.66 C 159.90 140.66 160.55 140.01 160.55 139.21 C 160.55 138.40 159.90 137.75 159.10 137.75 L 158.08 137.75 C 157.28 137.75 156.63 138.40 156.63 139.21 C 156.63 140.01 157.28 140.66 158.08 140.66 Z M 159.10 140.65 L 160.12 140.65 C 160.92 140.65 161.57 140.01 161.57 139.21 C 161.57 138.41 160.92 137.76 160.12 137.76 L 159.10 137.76 C 158.30 137.76 157.65 138.41 157.65 139.21 C 157.65 140.01 158.30 140.65 159.10 140.65 Z M 160.12 140.65 L 161.11 140.65 C 161.91 140.65 162.55 140.00 162.55 139.21 C 162.55 138.41 161.91 137.77 161.11 137.77 L 160.12 137.77 C 159.33 137.77 158.68 138.41 158.68 139.21 C 158.68 140.00 159.33 140.65 160.12 140.65 Z M 161.11 140.64 L 161.76 140.64 C 162.55 140.64 163.19 140.00 163.19 139.21 C 163.19 138.41 162.55 137.77 161.76 137.77 L 161.11 137.77 C 160.32 137.77 159.68 138.41 159.68 139.21 C 159.68 140.00 160.32 140.64 161.11 140.64 Z"
      fill="black"
      fill-rule="nonzero" /><path d="M 146.62 124.24 L 146.55 125.17 C 146.49 126.00 147.11 126.72 147.94 126.79 C 148.77 126.85 149.49 126.23 149.55 125.40 L 149.62 124.46 C 149.69 123.64 149.06 122.91 148.24 122.85 C 147.41 122.79 146.68 123.41 146.62 124.24 Z M 146.53 125.26 L 146.51 126.31 C 146.50 127.15 147.16 127.84 148.00 127.86 C 148.84 127.87 149.54 127.20 149.55 126.36 L 149.57 125.32 C 149.59 124.48 148.92 123.78 148.08 123.77 C 147.24 123.75 146.55 124.42 146.53 125.26 Z M 146.51 126.39 L 146.55 127.40 C 146.58 128.24 147.28 128.90 148.12 128.87 C 148.96 128.84 149.62 128.13 149.59 127.29 L 149.56 126.28 C 149.53 125.44 148.82 124.78 147.98 124.81 C 147.14 124.84 146.48 125.55 146.51 126.39 Z M 146.56 127.46 L 146.63 128.46 C 146.69 129.29 147.42 129.92 148.25 129.86 C 149.09 129.79 149.71 129.07 149.65 128.23 L 149.58 127.23 C 149.52 126.40 148.79 125.78 147.96 125.84 C 147.12 125.90 146.50 126.62 146.56 127.46 Z M 146.65 128.52 L 146.78 129.56 C 146.87 130.38 147.62 130.97 148.44 130.87 C 149.26 130.77 149.85 130.03 149.75 129.20 L 149.63 128.17 C 149.53 127.35 148.79 126.76 147.97 126.86 C 147.15 126.95 146.56 127.70 146.65 128.52 Z M 146.80 129.60 L 146.94 130.54 C 147.06 131.35 147.81 131.90 148.62 131.78 C 149.43 131.66 149.99 130.91 149.87 130.11 L 149.73 129.16 C 149.61 128.36 148.86 127.80 148.05 127.92 C 147.24 128.04 146.68 128.79 146.80 129.60 Z M 146.96 130.53 L 147.10 131.51 C 147.22 132.31 147.96 132.86 148.76 132.74 C 149.56 132.63 150.11 131.88 150.00 131.08 L 149.85 130.11 C 149.74 129.31 148.99 128.76 148.19 128.87 C 147.39 128.99 146.84 129.73 146.96 130.53 Z M 147.11 131.51 L 147.26 132.52 C 147.38 133.31 148.12 133.86 148.91 133.74 C 149.71 133.62 150.26 132.88 150.14 132.09 L 149.99 131.08 C 149.87 130.28 149.13 129.74 148.33 129.85 C 147.54 129.97 146.99 130.71 147.11 131.51 Z M 147.27 132.52 L 147.42 133.51 C 147.54 134.30 148.28 134.84 149.07 134.72 C 149.86 134.60 150.40 133.86 150.28 133.07 L 150.13 132.08 C 150.01 131.29 149.27 130.75 148.48 130.87 C 147.69 130.99 147.14 131.73 147.27 132.52 Z M 147.43 133.51 L 147.58 134.50 C 147.69 135.29 148.43 135.83 149.21 135.71 C 150.00 135.59 150.54 134.86 150.42 134.07 L 150.27 133.08 C 150.16 132.29 149.42 131.75 148.64 131.87 C 147.85 131.99 147.31 132.72 147.43 133.51 Z M 147.58 134.49 L 147.72 135.48 C 147.84 136.27 148.56 136.81 149.35 136.70 C 150.13 136.59 150.68 135.86 150.56 135.07 L 150.42 134.08 C 150.31 133.30 149.58 132.75 148.80 132.87 C 148.01 132.98 147.47 133.71 147.58 134.49 Z M 147.73 135.49 L 147.88 136.48 C 147.99 137.26 148.72 137.80 149.50 137.68 C 150.29 137.56 150.82 136.83 150.71 136.05 L 150.56 135.07 C 150.44 134.28 149.71 133.75 148.93 133.86 C 148.15 133.98 147.61 134.71 147.73 135.49 Z M 147.88 136.49 L 148.04 137.48 C 148.17 138.26 148.90 138.79 149.68 138.66 C 150.46 138.54 150.99 137.80 150.86 137.03 L 150.70 136.04 C 150.58 135.26 149.84 134.73 149.06 134.85 C 148.29 134.98 147.76 135.71 147.88 136.49 Z M 148.04 137.48 L 148.20 138.46 C 148.32 139.24 149.05 139.77 149.83 139.65 C 150.61 139.53 151.14 138.80 151.02 138.02 L 150.86 137.03 C 150.74 136.25 150.01 135.72 149.23 135.84 C 148.45 135.97 147.92 136.70 148.04 137.48 Z M 148.20 138.45 L 148.34 139.44 C 148.45 140.21 149.18 140.75 149.96 140.64 C 150.74 140.53 151.28 139.80 151.16 139.02 L 151.02 138.03 C 150.90 137.25 150.18 136.72 149.40 136.83 C 148.62 136.94 148.08 137.67 148.20 138.45 Z M 148.34 139.43 L 148.41 139.95 C 148.52 140.73 149.25 141.27 150.03 141.16 C 150.80 141.05 151.35 140.33 151.24 139.55 L 151.16 139.03 C 151.05 138.25 150.33 137.71 149.55 137.82 C 148.77 137.93 148.23 138.65 148.34 139.43 Z"
      fill="black"
      fill-rule="nonzero" /><path d="M 145.69 147.02 L 145.75 147.96 C 145.80 148.83 146.54 149.49 147.41 149.44 C 148.27 149.39 148.93 148.65 148.88 147.78 L 148.83 146.84 C 148.78 145.97 148.03 145.31 147.17 145.36 C 146.30 145.41 145.64 146.16 145.69 147.02 Z M 145.76 147.50 L 145.52 148.50 C 145.32 149.35 145.84 150.22 146.70 150.42 C 147.56 150.63 148.42 150.10 148.63 149.24 L 148.87 148.24 C 149.07 147.39 148.55 146.52 147.69 146.32 C 146.83 146.11 145.97 146.64 145.76 147.50 Z M 145.67 148.07 L 145.21 148.89 C 144.77 149.66 145.04 150.64 145.81 151.08 C 146.59 151.52 147.57 151.25 148.01 150.48 L 148.48 149.67 C 148.92 148.89 148.65 147.91 147.87 147.47 C 147.10 147.03 146.11 147.30 145.67 148.07 Z M 145.31 148.73 L 144.69 149.58 C 144.17 150.30 144.32 151.30 145.04 151.83 C 145.76 152.36 146.77 152.20 147.29 151.48 L 147.91 150.64 C 148.44 149.92 148.28 148.91 147.56 148.38 C 146.84 147.86 145.84 148.01 145.31 148.73 Z M 144.73 149.52 L 144.08 150.34 C 143.53 151.03 143.64 152.05 144.34 152.60 C 145.03 153.16 146.05 153.05 146.60 152.35 L 147.25 151.54 C 147.81 150.84 147.70 149.82 147.00 149.27 C 146.30 148.71 145.29 148.83 144.73 149.52 Z M 144.09 150.32 L 143.46 151.09 C 142.89 151.78 143.00 152.80 143.69 153.37 C 144.38 153.93 145.40 153.83 145.96 153.14 L 146.59 152.37 C 147.16 151.68 147.06 150.66 146.37 150.09 C 145.67 149.53 144.66 149.63 144.09 150.32 Z M 143.47 151.08 L 142.83 151.84 C 142.26 152.53 142.35 153.55 143.04 154.12 C 143.73 154.70 144.75 154.60 145.32 153.91 L 145.96 153.15 C 146.53 152.46 146.44 151.44 145.75 150.87 C 145.06 150.30 144.04 150.39 143.47 151.08 Z M 142.84 151.83 L 142.23 152.56 C 141.65 153.24 141.74 154.27 142.42 154.84 C 143.11 155.42 144.13 155.33 144.71 154.65 L 145.32 153.92 C 145.90 153.24 145.81 152.21 145.12 151.64 C 144.44 151.06 143.41 151.15 142.84 151.83 Z M 142.24 152.54 L 141.60 153.29 C 141.02 153.96 141.09 154.99 141.77 155.57 C 142.45 156.15 143.47 156.08 144.06 155.40 L 144.69 154.66 C 145.28 153.98 145.20 152.96 144.52 152.37 C 143.85 151.79 142.82 151.87 142.24 152.54 Z M 141.62 153.27 L 140.92 154.05 C 140.32 154.72 140.38 155.74 141.05 156.34 C 141.71 156.93 142.74 156.87 143.33 156.21 L 144.03 155.42 C 144.63 154.76 144.57 153.73 143.91 153.14 C 143.24 152.54 142.22 152.60 141.62 153.27 Z M 140.95 154.03 L 140.24 154.79 C 139.63 155.44 139.67 156.46 140.32 157.07 C 140.97 157.67 141.99 157.64 142.60 156.99 L 143.31 156.23 C 143.91 155.58 143.88 154.56 143.22 153.95 C 142.57 153.34 141.55 153.38 140.95 154.03 Z M 140.27 154.77 L 139.55 155.52 C 138.93 156.16 138.95 157.17 139.59 157.79 C 140.23 158.40 141.24 158.38 141.86 157.75 L 142.58 157.00 C 143.19 156.36 143.17 155.35 142.53 154.73 C 141.90 154.12 140.88 154.14 140.27 154.77 Z M 139.57 155.51 L 138.87 156.21 C 138.25 156.84 138.25 157.85 138.88 158.47 C 139.50 159.09 140.51 159.09 141.13 158.46 L 141.83 157.76 C 142.45 157.13 142.45 156.12 141.82 155.50 C 141.20 154.88 140.19 154.89 139.57 155.51 Z M 138.90 156.20 L 138.15 156.93 C 137.52 157.53 137.50 158.54 138.11 159.16 C 138.72 159.79 139.72 159.81 140.35 159.20 L 141.10 158.48 C 141.73 157.87 141.75 156.87 141.14 156.24 C 140.53 155.61 139.53 155.59 138.90 156.20 Z M 138.20 156.90 L 137.44 157.58 C 136.80 158.16 136.75 159.15 137.33 159.79 C 137.91 160.44 138.90 160.49 139.54 159.91 L 140.30 159.23 C 140.94 158.65 140.99 157.66 140.41 157.02 C 139.84 156.37 138.84 156.32 138.20 156.90 Z M 137.52 157.54 L 136.82 158.10 C 136.15 158.63 136.05 159.61 136.58 160.28 C 137.12 160.95 138.09 161.05 138.76 160.52 L 139.46 159.95 C 140.13 159.42 140.24 158.44 139.70 157.77 C 139.17 157.11 138.19 157.00 137.52 157.54 Z M 136.91 158.06 L 136.09 158.64 C 135.40 159.13 135.24 160.08 135.72 160.77 C 136.21 161.45 137.16 161.62 137.85 161.13 L 138.67 160.55 C 139.36 160.07 139.52 159.12 139.04 158.43 C 138.55 157.74 137.60 157.58 136.91 158.06 Z M 136.15 158.64 L 135.56 159.03 C 134.88 159.48 134.69 160.41 135.14 161.10 C 135.59 161.78 136.52 161.97 137.21 161.52 L 137.79 161.14 C 138.48 160.68 138.67 159.75 138.21 159.07 C 137.76 158.38 136.83 158.19 136.15 158.64 Z"
      fill="black"
      fill-rule="nonzero" /><path d="M 152.98 153.34 L 154.05 153.45 C 154.86 153.54 155.58 152.95 155.66 152.15 C 155.75 151.34 155.16 150.62 154.36 150.54 L 153.28 150.42 C 152.47 150.34 151.75 150.93 151.67 151.73 C 151.59 152.54 152.17 153.26 152.98 153.34 Z M 153.81 153.43 L 154.72 153.68 C 155.52 153.90 156.34 153.43 156.56 152.63 C 156.77 151.84 156.30 151.02 155.51 150.80 L 154.60 150.55 C 153.80 150.34 152.98 150.81 152.76 151.60 C 152.55 152.40 153.02 153.22 153.81 153.43 Z M 154.10 153.36 L 154.78 153.98 C 155.39 154.54 156.35 154.50 156.91 153.88 C 157.48 153.27 157.43 152.31 156.82 151.75 L 156.14 151.12 C 155.52 150.56 154.56 150.60 154.00 151.22 C 153.43 151.84 153.48 152.80 154.10 153.36 Z M 154.35 153.35 L 154.68 154.32 C 154.95 155.12 155.82 155.55 156.61 155.28 C 157.41 155.00 157.84 154.14 157.57 153.34 L 157.24 152.37 C 156.97 151.57 156.10 151.15 155.31 151.42 C 154.51 151.69 154.08 152.55 154.35 153.35 Z M 154.60 154.01 L 154.71 154.98 C 154.81 155.83 155.58 156.43 156.42 156.33 C 157.26 156.23 157.86 155.47 157.76 154.62 L 157.65 153.65 C 157.55 152.81 156.79 152.20 155.94 152.30 C 155.10 152.40 154.50 153.17 154.60 154.01 Z M 154.70 154.85 L 154.73 155.86 C 154.75 156.71 155.46 157.38 156.31 157.36 C 157.16 157.33 157.83 156.63 157.81 155.78 L 157.78 154.76 C 157.75 153.91 157.04 153.24 156.19 153.27 C 155.35 153.29 154.68 154.00 154.70 154.85 Z M 154.73 155.79 L 154.71 156.81 C 154.69 157.66 155.37 158.37 156.22 158.38 C 157.07 158.40 157.77 157.72 157.79 156.87 L 157.81 155.85 C 157.83 155.00 157.15 154.30 156.30 154.28 C 155.45 154.26 154.75 154.94 154.73 155.79 Z M 154.71 156.71 L 154.63 157.68 C 154.55 158.53 155.18 159.28 156.03 159.35 C 156.87 159.43 157.62 158.80 157.70 157.95 L 157.78 156.98 C 157.86 156.13 157.23 155.38 156.38 155.31 C 155.54 155.23 154.79 155.86 154.71 156.71 Z M 154.65 157.54 L 154.47 158.50 C 154.32 159.33 154.87 160.13 155.71 160.29 C 156.54 160.44 157.34 159.89 157.50 159.05 L 157.67 158.10 C 157.83 157.26 157.28 156.46 156.44 156.31 C 155.61 156.15 154.80 156.70 154.65 157.54 Z M 154.50 158.39 L 154.24 159.38 C 154.03 160.20 154.53 161.04 155.35 161.25 C 156.17 161.46 157.00 160.97 157.22 160.15 L 157.47 159.16 C 157.68 158.34 157.19 157.50 156.37 157.29 C 155.55 157.08 154.71 157.57 154.50 158.39 Z M 154.26 159.35 L 153.99 160.30 C 153.76 161.11 154.23 161.96 155.04 162.19 C 155.86 162.42 156.70 161.95 156.93 161.13 L 157.20 160.18 C 157.43 159.37 156.96 158.52 156.15 158.29 C 155.33 158.06 154.49 158.53 154.26 159.35 Z M 153.99 160.28 L 153.71 161.26 C 153.47 162.07 153.93 162.92 154.74 163.15 C 155.55 163.39 156.40 162.93 156.64 162.12 L 156.93 161.15 C 157.17 160.34 156.70 159.48 155.89 159.25 C 155.08 159.01 154.23 159.47 153.99 160.28 Z M 153.70 161.28 L 153.40 162.37 C 153.17 163.19 153.65 164.03 154.46 164.25 C 155.27 164.48 156.12 164.00 156.34 163.19 L 156.65 162.10 C 156.87 161.28 156.40 160.44 155.58 160.21 C 154.77 159.99 153.93 160.47 153.70 161.28 Z M 153.34 162.79 L 153.35 163.62 C 153.35 164.47 154.04 165.15 154.89 165.14 C 155.73 165.14 156.41 164.45 156.40 163.60 L 156.40 162.77 C 156.39 161.93 155.70 161.25 154.86 161.25 C 154.02 161.26 153.34 161.95 153.34 162.79 Z M 154.15 164.96 L 154.83 165.33 C 155.58 165.73 156.51 165.45 156.91 164.70 C 157.31 163.96 157.03 163.03 156.28 162.63 L 155.60 162.26 C 154.85 161.86 153.93 162.14 153.53 162.89 C 153.13 163.64 153.41 164.56 154.15 164.96 Z M 155.36 165.50 L 156.49 165.65 C 157.34 165.76 158.11 165.17 158.22 164.33 C 158.33 163.49 157.73 162.71 156.89 162.61 L 155.76 162.46 C 154.92 162.35 154.15 162.94 154.04 163.78 C 153.93 164.62 154.52 165.39 155.36 165.50 Z M 156.50 165.65 L 157.47 165.78 C 158.32 165.88 159.09 165.28 159.19 164.44 C 159.30 163.60 158.70 162.83 157.86 162.72 L 156.88 162.60 C 156.04 162.50 155.27 163.09 155.17 163.94 C 155.06 164.78 155.66 165.55 156.50 165.65 Z M 157.48 165.78 L 158.52 165.90 C 159.36 166.00 160.13 165.40 160.23 164.56 C 160.33 163.72 159.73 162.95 158.89 162.85 L 157.85 162.72 C 157.01 162.62 156.24 163.22 156.14 164.07 C 156.04 164.91 156.64 165.68 157.48 165.78 Z M 158.54 165.91 L 159.56 166.01 C 160.41 166.10 161.16 165.48 161.25 164.64 C 161.34 163.79 160.73 163.04 159.88 162.95 L 158.86 162.84 C 158.02 162.76 157.26 163.37 157.17 164.22 C 157.08 165.06 157.70 165.82 158.54 165.91 Z M 159.61 166.02 L 160.58 166.09 C 161.43 166.15 162.17 165.51 162.23 164.67 C 162.29 163.82 161.66 163.08 160.81 163.02 L 159.83 162.94 C 158.99 162.88 158.25 163.52 158.18 164.37 C 158.12 165.22 158.76 165.95 159.61 166.02 Z M 160.63 166.09 L 161.62 166.14 C 162.47 166.17 163.19 165.51 163.22 164.66 C 163.26 163.81 162.60 163.09 161.75 163.05 L 160.76 163.01 C 159.91 162.98 159.19 163.63 159.16 164.49 C 159.12 165.34 159.78 166.06 160.63 166.09 Z M 161.65 166.14 L 162.67 166.16 C 163.52 166.18 164.22 165.50 164.24 164.65 C 164.26 163.80 163.59 163.09 162.73 163.08 L 161.71 163.05 C 160.86 163.04 160.16 163.71 160.14 164.56 C 160.12 165.41 160.80 166.12 161.65 166.14 Z M 162.69 166.16 L 163.71 166.17 C 164.56 166.17 165.26 165.49 165.27 164.64 C 165.28 163.79 164.59 163.09 163.74 163.09 L 162.72 163.08 C 161.87 163.07 161.17 163.75 161.16 164.60 C 161.15 165.45 161.84 166.15 162.69 166.16 Z M 163.72 166.16 L 164.75 166.17 C 165.59 166.17 166.28 165.48 166.29 164.63 C 166.29 163.79 165.60 163.10 164.76 163.09 L 163.73 163.09 C 162.88 163.09 162.19 163.77 162.19 164.62 C 162.19 165.47 162.88 166.16 163.72 166.16 Z M 164.75 166.16 L 165.76 166.16 C 166.61 166.16 167.29 165.48 167.29 164.63 C 167.29 163.78 166.61 163.10 165.76 163.10 L 164.75 163.10 C 163.90 163.10 163.22 163.78 163.22 164.63 C 163.22 165.48 163.90 166.16 164.75 166.16 Z M 165.76 166.16 L 166.85 166.16 C 167.69 166.16 168.38 165.47 168.38 164.63 C 168.37 163.78 167.69 163.10 166.84 163.10 L 165.76 163.10 C 164.91 163.10 164.23 163.79 164.23 164.63 C 164.23 165.48 164.92 166.16 165.76 166.16 Z M 166.86 166.16 L 167.74 166.15 C 168.59 166.14 169.27 165.45 169.26 164.60 C 169.25 163.76 168.56 163.08 167.71 163.09 L 166.83 163.10 C 165.99 163.11 165.31 163.80 165.32 164.64 C 165.32 165.49 166.02 166.17 166.86 166.16 Z M 167.78 166.14 L 168.79 166.11 C 169.63 166.08 170.29 165.37 170.26 164.53 C 170.23 163.69 169.52 163.03 168.68 163.06 L 167.67 163.10 C 166.83 163.13 166.17 163.83 166.20 164.67 C 166.23 165.51 166.94 166.17 167.78 166.14 Z M 168.88 166.10 L 169.88 166.00 C 170.72 165.91 171.33 165.17 171.24 164.33 C 171.16 163.50 170.41 162.89 169.58 162.97 L 168.58 163.07 C 167.75 163.15 167.14 163.90 167.22 164.73 C 167.30 165.57 168.05 166.18 168.88 166.10 Z M 170.28 165.91 L 171.19 165.56 C 171.98 165.26 172.38 164.37 172.07 163.59 C 171.77 162.80 170.89 162.40 170.10 162.71 L 169.18 163.06 C 168.39 163.36 168.00 164.24 168.30 165.03 C 168.60 165.82 169.49 166.21 170.28 165.91 Z M 172.16 164.44 L 172.32 163.64 C 172.49 162.80 171.95 161.99 171.11 161.82 C 170.28 161.65 169.47 162.19 169.30 163.03 L 169.14 163.83 C 168.97 164.66 169.51 165.47 170.34 165.64 C 171.18 165.81 171.99 165.27 172.16 164.44 Z M 172.30 162.93 L 172.02 161.88 C 171.80 161.06 170.96 160.57 170.13 160.79 C 169.31 161.00 168.82 161.85 169.04 162.68 L 169.31 163.73 C 169.53 164.55 170.38 165.04 171.20 164.82 C 172.03 164.61 172.52 163.76 172.30 162.93 Z M 172.00 161.85 L 171.75 160.97 C 171.51 160.15 170.65 159.69 169.84 159.92 C 169.03 160.16 168.56 161.02 168.80 161.83 L 169.05 162.71 C 169.29 163.53 170.15 163.99 170.96 163.76 C 171.78 163.52 172.24 162.66 172.00 161.85 Z M 171.74 161.04 L 171.50 160.04 C 171.30 159.23 170.48 158.73 169.67 158.93 C 168.86 159.13 168.36 159.95 168.56 160.76 L 168.80 161.76 C 169.00 162.57 169.82 163.07 170.63 162.87 C 171.44 162.67 171.94 161.85 171.74 161.04 Z M 171.49 160.09 L 171.29 159.15 C 171.12 158.34 170.32 157.83 169.52 158.00 C 168.71 158.17 168.19 158.96 168.37 159.77 L 168.57 160.71 C 168.74 161.52 169.53 162.04 170.34 161.86 C 171.15 161.69 171.66 160.90 171.49 160.09 Z M 171.27 159.17 L 171.09 158.22 C 170.93 157.42 170.15 156.90 169.35 157.06 C 168.55 157.22 168.03 158.00 168.19 158.80 L 168.38 159.75 C 168.54 160.55 169.32 161.07 170.12 160.91 C 170.91 160.75 171.43 159.97 171.27 159.17 Z M 171.07 158.23 L 170.87 157.20 C 170.72 156.41 169.95 155.89 169.16 156.04 C 168.37 156.19 167.85 156.96 168.01 157.75 L 168.21 158.79 C 168.36 159.58 169.12 160.09 169.91 159.94 C 170.71 159.79 171.22 159.02 171.07 158.23 Z M 170.86 157.20 L 170.69 156.31 C 170.54 155.53 169.78 155.01 169.00 155.16 C 168.22 155.31 167.70 156.07 167.85 156.85 L 168.02 157.74 C 168.17 158.53 168.93 159.04 169.71 158.89 C 170.49 158.74 171.01 157.99 170.86 157.20 Z"
      fill="black"
      fill-rule="nonzero" /></svg>