<svg xmlns="http://www.w3.org/2000/svg" width="300" height="300" viewBox="0 0 300 300">
<path d="M 139.27 141.54 L 140.17 141.85 C 140.95 142.12 141.79 141.71 142.05 140.94 C 142.32 140.17 141.91 139.33 141.14 139.06 L 140.24 138.75 C 139.47 138.48 138.62 138.89 138.36 139.66 C 138.09 140.43 138.50 141.27 139.27 141.54 Z M 140.29 141.94 L 141.28 142.18 C 142.09 142.39 142.92 141.89 143.13 141.07 C 143.33 140.26 142.84 139.43 142.02 139.22 L 141.03 138.98 C 140.21 138.77 139.38 139.27 139.18 140.09 C 138.97 140.90 139.47 141.73 140.29 141.94 Z M 141.47 142.25 L 142.48 142.37 C 143.34 142.47 144.11 141.86 144.21 141.00 C 144.31 140.15 143.70 139.38 142.85 139.28 L 141.83 139.16 C 140.97 139.06 140.20 139.67 140.10 140.52 C 140.00 141.38 140.61 142.15 141.47 142.25 Z M 142.61 142.38 L 143.64 142.42 C 144.50 142.45 145.22 141.78 145.25 140.92 C 145.28 140.05 144.61 139.33 143.75 139.30 L 142.72 139.26 C 141.86 139.23 141.14 139.91 141.11 140.77 C 141.08 141.63 141.75 142.35 142.61 142.38 Z M 143.69 142.42 L 144.70 142.42 C 145.56 142.43 146.26 141.73 146.26 140.87 C 146.26 140.01 145.57 139.31 144.71 139.30 L 143.70 139.30 C 142.84 139.30 142.14 139.99 142.13 140.85 C 142.13 141.72 142.83 142.42 143.69 142.42 Z M 144.70 142.42 L 145.72 142.42 C 146.58 142.42 147.27 141.72 147.27 140.86 C 147.27 140.00 146.58 139.30 145.72 139.30 L 144.70 139.30 C 143.84 139.30 143.14 140.00 143.14 140.86 C 143.14 141.72 143.84 142.42 144.70 142.42 Z M 145.72 142.42 L 146.65 142.42 C 147.51 142.42 148.21 141.72 148.21 140.86 C 148.21 140.00 147.51 139.31 146.65 139.31 L 145.72 139.31 C 144.86 139.31 144.16 140.00 144.16 140.86 C 144.16 141.72 144.86 142.42 145.72 142.42 Z M 146.65 142.41 L 147.65 142.41 C 148.51 142.41 149.20 141.72 149.20 140.86 C 149.20 140.01 148.51 139.32 147.65 139.32 L 146.65 139.32 C 145.80 139.32 145.11 140.01 145.11 140.86 C 145.11 141.72 145.80 142.41 146.65 142.41 Z M 147.65 142.40 L 148.65 142.40 C 149.50 142.40 150.19 141.71 150.19 140.86 C 150.19 140.01 149.50 139.32 148.65 139.32 L 147.65 139.32 C 146.80 139.32 146.11 140.01 146.11 140.86 C 146.11 141.71 146.80 142.40 147.65 142.40 Z M 148.65 142.39 L 149.66 142.39 C 150.50 142.39 151.19 141.71 151.19 140.86 C 151.19 140.02 150.50 139.33 149.66 139.33 L 148.65 139.33 C 147.80 139.33 147.12 140.02 147.12 140.86 C 147.12 141.71 147.80 142.39 148.65 142.39 Z M 149.66 142.39 L 150.65 142.39 C 151.49 142.39 152.18 141.71 152.18 140.86 C 152.18 140.02 151.49 139.34 150.65 139.34 L 149.66 139.34 C 148.81 139.34 148.13 140.02 148.13 140.86 C 148.13 141.71 148.81 142.39 149.66 142.39 Z M 150.65 142.38 L 151.66 142.38 C 152.50 142.38 153.18 141.70 153.18 140.86 C 153.18 140.02 152.50 139.34 151.66 139.34 L 150.65 139.34 C 149.81 139.34 149.13 140.02 149.13 140.86 C 149.13 141.70 149.81 142.38 150.65 142.38 Z M 151.66 142.38 L 152.65 142.38 C 153.49 142.38 154.17 141.70 154.17 140.86 C 154.17 140.02 153.49 139.34 152.65 139.34 L 151.66 139.34 C 150.82 139.34 150.14 140.02 150.14 140.86 C 150.14 141.70 150.82 142.38 151.66 142.38 Z M 152.65 142.38 L 153.66 142.38 C 154.50 142.38 155.18 141.70 155.18 140.86 C 155.18 140.03 154.50 139.35 153.66 139.35 L 152.65 139.35 C 151.81 139.35 151.14 140.03 151.14 140.86 C 151.14 141.70 151.81 142.38 152.65 142.38 Z M 153.66 142.37 L 154.68 142.37 C 155.51 142.37 156.19 141.70 156.19 140.86 C 156.19 140.03 155.51 139.35 154.68 139.35 L 153.66 139.35 C 152.83 139.35 152.15 140.03 152.15 140.86 C 152.15 141.70 152.83 142.37 153.66 142.37 Z M 154.68 142.37 L 155.65 142.37 C 156.48 142.37 157.15 141.69 157.15 140.86 C 157.15 140.03 156.48 139.36 155.65 139.36 L 154.68 139.36 C 153.84 139.36 153.17 140.03 153.17 140.86 C 153.17 141.69 153.84 142.37 154.68 142.37 Z M 155.65 142.36 L 156.59 142.36 C 157.42 142.36 158.10 141.69 158.10 140.86 C 158.10 140.03 157.42 139.36 156.59 139.36 L 155.65 139.36 C 154.82 139.36 154.14 140.03 154.14 140.86 C 154.14 141.69 154.82 142.36 155.65 142.36 Z M 156.59 142.36 L 157.62 142.36 C 158.45 142.36 159.12 141.69 159.12 140.86 C 159.12 140.04 158.45 139.36 157.62 139.36 L 156.59 139.36 C 155.77 139.36 155.09 140.04 155.09 140.86 C 155.09 141.69 155.77 142.36 156.59 142.36 Z M 157.62 142.36 L 158.60 142.36 C 159.42 142.36 160.09 141.69 160.09 140.86 C 160.09 140.04 159.42 139.37 158.60 139.37 L 157.62 139.37 C 156.80 139.37 156.13 140.04 156.13 140.86 C 156.13 141.69 156.80 142.36 157.62 142.36 Z M 158.60 142.35 L 159.64 142.35 C 160.46 142.35 161.13 141.68 161.13 140.86 C 161.13 140.04 160.46 139.37 159.64 139.37 L 158.60 139.37 C 157.78 139.37 157.11 140.04 157.11 140.86 C 157.11 141.68 157.78 142.35 158.60 142.35 Z M 159.64 142.35 L 160.69 142.35 C 161.51 142.35 162.17 141.68 162.17 140.86 C 162.17 140.05 161.51 139.38 160.69 139.38 L 159.64 139.38 C 158.82 139.38 158.16 140.04 158.16 140.86 C 158.16 141.68 158.82 142.34 159.64 142.35 Z M 160.68 142.34 L 161.69 142.35 C 162.50 142.35 163.17 141.70 163.18 140.88 C 163.18 140.07 162.53 139.40 161.71 139.40 L 160.70 139.39 C 159.89 139.38 159.22 140.04 159.22 140.85 C 159.21 141.67 159.87 142.33 160.68 142.34 Z M 161.66 142.34 L 162.62 142.36 C 163.43 142.39 164.10 141.75 164.13 140.94 C 164.15 140.13 163.51 139.45 162.70 139.43 L 161.74 139.40 C 160.93 139.38 160.26 140.02 160.23 140.83 C 160.21 141.64 160.85 142.32 161.66 142.34 Z M 162.57 142.35 L 163.59 142.41 C 164.40 142.46 165.09 141.85 165.13 141.04 C 165.18 140.24 164.57 139.55 163.76 139.50 L 162.74 139.44 C 161.94 139.39 161.25 140.01 161.20 140.81 C 161.16 141.62 161.77 142.31 162.57 142.35 Z M 163.56 142.40 L 164.54 142.48 C 165.34 142.55 166.04 141.95 166.10 141.16 C 166.17 140.36 165.58 139.66 164.78 139.59 L 163.80 139.51 C 163.00 139.45 162.30 140.04 162.23 140.84 C 162.17 141.64 162.76 142.34 163.56 142.40 Z M 164.53 142.48 L 164.80 142.50 C 165.59 142.57 166.29 141.98 166.36 141.19 C 166.44 140.39 165.85 139.69 165.05 139.62 L 164.79 139.60 C 163.99 139.53 163.29 140.12 163.22 140.91 C 163.15 141.70 163.74 142.41 164.53 142.48 Z"
      fill="black"
      fill-rule="nonzero" /><path d="M 157.03 134.40 L 156.07 134.57 C 155.24 134.71 154.68 135.49 154.82 136.33 C 154.96 137.16 155.75 137.72 156.58 137.58 L 157.54 137.42 C 158.37 137.28 158.93 136.49 158.79 135.66 C 158.65 134.83 157.86 134.26 157.03 134.40 Z M 155.48 134.78 L 154.69 135.30 C 153.98 135.77 153.78 136.73 154.25 137.44 C 154.72 138.15 155.68 138.35 156.39 137.88 L 157.18 137.36 C 157.89 136.89 158.09 135.94 157.62 135.22 C 157.15 134.51 156.19 134.31 155.48 134.78 Z M 154.30 135.64 L 153.71 136.41 C 153.18 137.09 153.31 138.07 153.99 138.60 C 154.67 139.13 155.65 139.00 156.17 138.32 L 156.77 137.54 C 157.30 136.86 157.17 135.88 156.49 135.36 C 155.81 134.83 154.83 134.95 154.30 135.64 Z M 153.60 136.55 L 153.03 137.48 C 152.58 138.22 152.81 139.18 153.55 139.64 C 154.29 140.09 155.26 139.86 155.71 139.12 L 156.28 138.18 C 156.73 137.44 156.50 136.48 155.76 136.03 C 155.02 135.57 154.05 135.81 153.60 136.55 Z M 153.00 137.52 L 152.49 138.41 C 152.06 139.17 152.33 140.13 153.08 140.56 C 153.84 140.99 154.80 140.73 155.23 139.97 L 155.74 139.08 C 156.17 138.32 155.91 137.36 155.15 136.93 C 154.39 136.50 153.43 136.76 153.00 137.52 Z M 152.48 138.44 L 152.01 139.30 C 151.59 140.07 151.87 141.02 152.63 141.44 C 153.40 141.86 154.35 141.58 154.77 140.81 L 155.24 139.95 C 155.66 139.19 155.38 138.23 154.62 137.81 C 153.85 137.39 152.90 137.68 152.48 138.44 Z M 152.00 139.33 L 151.52 140.23 C 151.12 141.00 151.41 141.95 152.18 142.35 C 152.95 142.76 153.90 142.46 154.31 141.69 L 154.78 140.79 C 155.18 140.02 154.89 139.07 154.12 138.67 C 153.35 138.26 152.40 138.56 152.00 139.33 Z M 151.52 140.25 L 151.08 141.11 C 150.69 141.88 150.99 142.82 151.76 143.21 C 152.53 143.61 153.47 143.30 153.87 142.53 L 154.31 141.67 C 154.70 140.90 154.40 139.96 153.63 139.57 C 152.86 139.17 151.91 139.48 151.52 140.25 Z M 151.09 141.10 L 150.64 141.95 C 150.24 142.72 150.54 143.66 151.31 144.06 C 152.07 144.46 153.02 144.16 153.42 143.40 L 153.86 142.54 C 154.26 141.78 153.96 140.83 153.20 140.43 C 152.43 140.03 151.48 140.33 151.09 141.10 Z M 150.64 141.94 L 150.17 142.84 C 149.76 143.60 150.05 144.55 150.82 144.96 C 151.58 145.37 152.53 145.07 152.94 144.31 L 153.42 143.41 C 153.82 142.64 153.53 141.70 152.76 141.29 C 152.00 140.88 151.05 141.18 150.64 141.94 Z M 150.16 142.83 L 149.70 143.70 C 149.29 144.47 149.59 145.42 150.35 145.83 C 151.12 146.24 152.07 145.95 152.48 145.18 L 152.94 144.31 C 153.35 143.54 153.06 142.59 152.29 142.18 C 151.53 141.78 150.57 142.07 150.16 142.83 Z M 149.70 143.70 L 149.23 144.58 C 148.82 145.34 149.11 146.30 149.88 146.71 C 150.64 147.12 151.60 146.83 152.01 146.06 L 152.48 145.18 C 152.89 144.42 152.60 143.46 151.84 143.05 C 151.07 142.64 150.11 142.93 149.70 143.70 Z M 149.24 144.57 L 148.75 145.46 C 148.34 146.23 148.62 147.18 149.38 147.60 C 150.14 148.01 151.10 147.73 151.52 146.97 L 152.00 146.07 C 152.42 145.31 152.14 144.35 151.37 143.94 C 150.61 143.52 149.65 143.80 149.24 144.57 Z M 148.76 145.46 L 148.28 146.33 C 147.86 147.09 148.13 148.04 148.89 148.46 C 149.65 148.88 150.60 148.61 151.02 147.85 L 151.51 146.97 C 151.92 146.22 151.65 145.26 150.89 144.84 C 150.13 144.42 149.18 144.70 148.76 145.46 Z M 148.29 146.34 L 147.80 147.22 C 147.38 147.97 147.65 148.92 148.40 149.34 C 149.16 149.76 150.11 149.49 150.52 148.73 L 151.01 147.85 C 151.43 147.09 151.16 146.14 150.41 145.73 C 149.65 145.31 148.70 145.58 148.29 146.34 Z M 147.80 147.23 L 147.32 148.11 C 146.90 148.86 147.18 149.80 147.93 150.22 C 148.68 150.63 149.62 150.36 150.03 149.61 L 150.52 148.73 C 150.93 147.97 150.66 147.03 149.91 146.62 C 149.16 146.20 148.21 146.48 147.80 147.23 Z M 147.32 148.12 L 146.84 148.99 C 146.43 149.74 146.71 150.68 147.46 151.09 C 148.21 151.50 149.15 151.22 149.56 150.47 L 150.03 149.60 C 150.44 148.85 150.16 147.91 149.41 147.50 C 148.66 147.09 147.73 147.37 147.32 148.12 Z M 146.84 149.00 L 146.37 149.88 C 145.97 150.63 146.25 151.56 147.00 151.96 C 147.75 152.37 148.68 152.09 149.08 151.34 L 149.55 150.46 C 149.96 149.71 149.68 148.78 148.93 148.38 C 148.18 147.97 147.25 148.25 146.84 149.00 Z M 146.37 149.89 L 145.90 150.77 C 145.51 151.52 145.79 152.44 146.54 152.84 C 147.28 153.24 148.21 152.96 148.61 152.21 L 149.08 151.33 C 149.48 150.58 149.19 149.65 148.45 149.26 C 147.70 148.86 146.77 149.14 146.37 149.89 Z M 145.91 150.77 L 145.44 151.66 C 145.04 152.40 145.32 153.33 146.06 153.73 C 146.81 154.12 147.74 153.84 148.13 153.10 L 148.61 152.21 C 149.00 151.47 148.72 150.54 147.98 150.14 C 147.23 149.74 146.31 150.03 145.91 150.77 Z M 145.44 151.65 L 144.96 152.54 C 144.56 153.28 144.84 154.20 145.58 154.60 C 146.32 155.00 147.24 154.73 147.64 153.99 L 148.12 153.10 C 148.53 152.36 148.25 151.44 147.51 151.04 C 146.77 150.64 145.85 150.91 145.44 151.65 Z M 144.97 152.53 L 144.49 153.41 C 144.08 154.14 144.35 155.07 145.08 155.47 C 145.82 155.88 146.74 155.61 147.15 154.88 L 147.64 154.00 C 148.04 153.26 147.77 152.34 147.04 151.93 C 146.30 151.53 145.38 151.79 144.97 152.53 Z M 144.50 153.40 L 144.01 154.26 C 143.60 154.99 143.86 155.92 144.59 156.33 C 145.32 156.74 146.25 156.48 146.66 155.75 L 147.14 154.88 C 147.55 154.15 147.29 153.23 146.56 152.82 C 145.83 152.41 144.91 152.67 144.50 153.40 Z M 144.02 154.26 L 143.51 155.14 C 143.10 155.87 143.36 156.79 144.08 157.21 C 144.81 157.62 145.74 157.37 146.15 156.64 L 146.65 155.75 C 147.07 155.03 146.81 154.10 146.08 153.69 C 145.36 153.27 144.43 153.53 144.02 154.26 Z M 143.52 155.14 L 143.02 156.00 C 142.61 156.73 142.86 157.65 143.59 158.07 C 144.31 158.48 145.24 158.23 145.65 157.50 L 146.15 156.64 C 146.56 155.91 146.31 154.99 145.58 154.57 C 144.86 154.16 143.93 154.41 143.52 155.14 Z M 143.02 156.01 L 142.53 156.87 C 142.12 157.60 142.37 158.52 143.10 158.93 C 143.83 159.35 144.75 159.09 145.16 158.37 L 145.65 157.50 C 146.07 156.77 145.81 155.85 145.09 155.44 C 144.36 155.03 143.44 155.28 143.02 156.01 Z M 142.53 156.87 L 142.04 157.74 C 141.63 158.47 141.88 159.39 142.61 159.80 C 143.34 160.21 144.26 159.96 144.67 159.23 L 145.16 158.36 C 145.57 157.64 145.32 156.72 144.59 156.30 C 143.87 155.89 142.94 156.15 142.53 156.87 Z M 142.04 157.74 L 141.55 158.61 C 141.13 159.33 141.39 160.25 142.11 160.67 C 142.83 161.08 143.75 160.83 144.17 160.11 L 144.67 159.24 C 145.08 158.51 144.83 157.59 144.10 157.18 C 143.38 156.76 142.46 157.01 142.04 157.74 Z M 141.55 158.60 L 141.04 159.49 C 140.62 160.21 140.86 161.14 141.58 161.55 C 142.30 161.97 143.22 161.73 143.64 161.01 L 144.16 160.11 C 144.58 159.39 144.33 158.47 143.61 158.05 C 142.89 157.64 141.97 157.88 141.55 158.60 Z M 141.05 159.48 L 140.56 160.31 C 140.13 161.02 140.37 161.95 141.08 162.37 C 141.80 162.79 142.72 162.56 143.14 161.84 L 143.63 161.02 C 144.06 160.30 143.82 159.38 143.11 158.96 C 142.39 158.53 141.47 158.77 141.05 159.48 Z M 140.57 160.31 L 140.06 161.15 C 139.63 161.86 139.86 162.78 140.57 163.20 C 141.28 163.63 142.20 163.40 142.63 162.69 L 143.14 161.85 C 143.56 161.14 143.33 160.22 142.62 159.79 C 141.91 159.37 140.99 159.60 140.57 160.31 Z M 140.04 161.19 L 139.55 162.07 C 139.15 162.79 139.41 163.70 140.12 164.10 C 140.84 164.50 141.75 164.24 142.15 163.53 L 142.64 162.65 C 143.05 161.93 142.79 161.02 142.07 160.62 C 141.35 160.22 140.45 160.47 140.04 161.19 Z M 139.53 162.14 L 139.09 163.01 C 138.73 163.74 139.03 164.63 139.76 164.99 C 140.49 165.36 141.38 165.06 141.75 164.33 L 142.18 163.46 C 142.54 162.73 142.24 161.84 141.51 161.47 C 140.78 161.11 139.89 161.41 139.53 162.14 Z M 139.07 163.08 L 138.66 164.03 C 138.34 164.78 138.68 165.64 139.43 165.97 C 140.18 166.29 141.04 165.94 141.36 165.20 L 141.77 164.25 C 142.09 163.50 141.75 162.64 141.00 162.31 C 140.26 161.99 139.39 162.34 139.07 163.08 Z M 138.63 164.14 L 138.30 165.11 C 138.03 165.87 138.44 166.70 139.21 166.97 C 139.97 167.23 140.80 166.82 141.06 166.06 L 141.40 165.09 C 141.66 164.32 141.25 163.49 140.49 163.23 C 139.72 162.97 138.89 163.38 138.63 164.14 Z M 138.28 165.20 L 138.02 166.16 C 137.81 166.94 138.27 167.73 139.04 167.94 C 139.82 168.15 140.61 167.69 140.82 166.92 L 141.08 165.96 C 141.29 165.19 140.83 164.39 140.06 164.18 C 139.29 163.97 138.49 164.43 138.28 165.20 Z M 138.02 166.20 L 137.89 166.74 C 137.70 167.51 138.17 168.29 138.95 168.48 C 139.72 168.67 140.50 168.19 140.69 167.42 L 140.82 166.88 C 141.01 166.11 140.54 165.33 139.76 165.14 C 138.99 164.95 138.21 165.43 138.02 166.20 Z"
      fill="black"
      fill-rule="nonzero" /><path d="M 146.84 157.05 L 147.20 157.99 C 147.50 158.77 148.37 159.16 149.15 158.86 C 149.92 158.56 150.31 157.69 150.02 156.91 L 149.66 155.97 C 149.36 155.19 148.49 154.80 147.71 155.10 C 146.93 155.40 146.54 156.27 146.84 157.05 Z M 147.15 157.87 L 147.43 158.83 C 147.66 159.63 148.50 160.09 149.30 159.86 C 150.11 159.63 150.57 158.79 150.34 157.98 L 150.07 157.03 C 149.83 156.22 148.99 155.76 148.19 155.99 C 147.38 156.22 146.92 157.07 147.15 157.87 Z M 147.38 158.61 L 147.50 159.55 C 147.62 160.38 148.38 160.97 149.21 160.86 C 150.04 160.75 150.63 159.98 150.52 159.15 L 150.39 158.20 C 150.28 157.37 149.51 156.79 148.68 156.90 C 147.85 157.01 147.27 157.77 147.38 158.61 Z M 147.50 159.41 L 147.54 160.42 C 147.58 161.26 148.28 161.91 149.11 161.87 C 149.94 161.84 150.59 161.14 150.56 160.30 L 150.52 159.29 C 150.49 158.46 149.78 157.81 148.95 157.84 C 148.12 157.88 147.47 158.58 147.50 159.41 Z M 147.55 160.41 L 147.58 161.40 C 147.61 162.23 148.30 162.88 149.13 162.85 C 149.96 162.83 150.61 162.14 150.58 161.31 L 150.55 160.32 C 150.52 159.49 149.83 158.84 149.00 158.86 C 148.18 158.89 147.53 159.58 147.55 160.41 Z M 147.59 161.42 L 147.64 162.42 C 147.67 163.24 148.37 163.88 149.19 163.85 C 150.01 163.81 150.65 163.12 150.61 162.29 L 150.57 161.29 C 150.54 160.47 149.84 159.83 149.02 159.87 C 148.19 159.90 147.56 160.60 147.59 161.42 Z M 147.64 162.43 L 147.69 163.46 C 147.73 164.28 148.43 164.91 149.24 164.87 C 150.06 164.83 150.69 164.14 150.65 163.32 L 150.60 162.29 C 150.57 161.47 149.87 160.84 149.05 160.88 C 148.24 160.92 147.61 161.61 147.64 162.43 Z M 147.70 163.46 L 147.75 164.49 C 147.79 165.30 148.48 165.93 149.29 165.89 C 150.11 165.85 150.73 165.16 150.69 164.35 L 150.64 163.32 C 150.60 162.51 149.91 161.88 149.10 161.92 C 148.29 161.96 147.67 162.65 147.70 163.46 Z M 147.77 164.49 L 147.82 165.49 C 147.86 166.30 148.55 166.91 149.35 166.87 C 150.16 166.83 150.78 166.14 150.73 165.34 L 150.68 164.34 C 150.64 163.54 149.95 162.92 149.15 162.96 C 148.34 163.00 147.72 163.69 147.77 164.49 Z M 147.83 165.51 L 147.89 166.51 C 147.95 167.31 148.64 167.92 149.43 167.87 C 150.23 167.81 150.84 167.12 150.79 166.33 L 150.72 165.32 C 150.67 164.52 149.98 163.92 149.18 163.97 C 148.38 164.02 147.78 164.71 147.83 165.51 Z M 147.91 166.55 L 148.00 167.57 C 148.07 168.36 148.77 168.95 149.56 168.88 C 150.35 168.80 150.94 168.11 150.87 167.31 L 150.78 166.29 C 150.70 165.50 150.00 164.91 149.21 164.99 C 148.42 165.06 147.84 165.76 147.91 166.55 Z M 148.01 167.63 L 148.14 168.57 C 148.24 169.36 148.97 169.91 149.75 169.80 C 150.53 169.70 151.08 168.98 150.98 168.19 L 150.85 167.25 C 150.75 166.47 150.02 165.92 149.24 166.02 C 148.46 166.13 147.91 166.85 148.01 167.63 Z M 148.16 168.66 L 148.36 169.66 C 148.51 170.43 149.27 170.93 150.04 170.78 C 150.81 170.62 151.31 169.87 151.16 169.10 L 150.96 168.10 C 150.80 167.33 150.05 166.83 149.28 166.98 C 148.50 167.14 148.00 167.89 148.16 168.66 Z M 148.37 169.71 L 148.51 170.31 C 148.69 171.07 149.46 171.55 150.23 171.36 C 151.00 171.18 151.47 170.41 151.29 169.65 L 151.15 169.05 C 150.96 168.28 150.19 167.81 149.43 167.99 C 148.66 168.17 148.19 168.94 148.37 169.71 Z"
      fill="black"
      fill-rule="nonzero" /><path d="M 149.21 156.65 L 150.08 156.82 C 150.88 156.98 151.67 156.46 151.82 155.65 C 151.98 154.85 151.46 154.06 150.65 153.91 L 149.79 153.74 C 148.98 153.58 148.20 154.10 148.04 154.91 C 147.88 155.71 148.41 156.50 149.21 156.65 Z M 150.06 156.83 L 151.03 157.03 C 151.84 157.20 152.64 156.68 152.80 155.87 C 152.97 155.06 152.45 154.26 151.64 154.10 L 150.67 153.90 C 149.86 153.73 149.06 154.25 148.90 155.06 C 148.73 155.87 149.25 156.67 150.06 156.83 Z M 151.01 157.04 L 152.10 157.28 C 152.92 157.46 153.72 156.94 153.90 156.13 C 154.08 155.31 153.56 154.51 152.75 154.33 L 151.66 154.09 C 150.84 153.91 150.04 154.43 149.86 155.24 C 149.68 156.06 150.20 156.86 151.01 157.04 Z M 152.09 157.28 L 153.08 157.51 C 153.90 157.69 154.71 157.18 154.90 156.37 C 155.08 155.55 154.57 154.74 153.76 154.56 L 152.76 154.33 C 151.95 154.14 151.13 154.65 150.95 155.47 C 150.76 156.28 151.27 157.09 152.09 157.28 Z M 153.08 157.50 L 154.10 157.74 C 154.92 157.93 155.73 157.43 155.92 156.62 C 156.11 155.80 155.61 154.99 154.79 154.80 L 153.77 154.56 C 152.95 154.37 152.14 154.87 151.95 155.69 C 151.76 156.50 152.26 157.31 153.08 157.50 Z M 154.10 157.74 L 155.06 157.97 C 155.87 158.16 156.69 157.66 156.88 156.85 C 157.07 156.04 156.57 155.23 155.76 155.03 L 154.80 154.80 C 153.99 154.61 153.17 155.11 152.98 155.92 C 152.79 156.73 153.29 157.55 154.10 157.74 Z M 155.06 157.97 L 156.14 158.22 C 156.94 158.42 157.76 157.92 157.95 157.11 C 158.15 156.31 157.65 155.49 156.84 155.30 L 155.77 155.04 C 154.96 154.84 154.14 155.34 153.95 156.15 C 153.75 156.96 154.25 157.77 155.06 157.97 Z M 156.14 158.22 L 157.07 158.44 C 157.88 158.64 158.69 158.14 158.88 157.34 C 159.08 156.54 158.58 155.72 157.78 155.53 L 156.84 155.30 C 156.04 155.11 155.23 155.60 155.03 156.41 C 154.84 157.21 155.33 158.02 156.14 158.22 Z M 157.09 158.44 L 157.90 158.63 C 158.70 158.81 159.50 158.31 159.69 157.50 C 159.87 156.70 159.37 155.90 158.56 155.72 L 157.76 155.53 C 156.95 155.35 156.15 155.85 155.97 156.65 C 155.79 157.46 156.29 158.26 157.09 158.44 Z M 157.91 158.62 L 158.86 158.84 C 159.67 159.01 160.46 158.51 160.64 157.71 C 160.82 156.91 160.31 156.11 159.51 155.93 L 158.55 155.72 C 157.75 155.54 156.96 156.05 156.78 156.85 C 156.60 157.65 157.11 158.45 157.91 158.62 Z M 158.84 158.83 L 159.83 159.07 C 160.63 159.26 161.43 158.77 161.62 157.97 C 161.81 157.17 161.32 156.37 160.52 156.18 L 159.53 155.94 C 158.74 155.75 157.93 156.24 157.74 157.04 C 157.55 157.83 158.04 158.64 158.84 158.83 Z M 159.81 159.06 L 160.78 159.31 C 161.57 159.52 162.38 159.04 162.59 158.25 C 162.79 157.45 162.32 156.64 161.53 156.44 L 160.55 156.19 C 159.76 155.98 158.95 156.46 158.74 157.25 C 158.54 158.04 159.01 158.85 159.81 159.06 Z M 160.76 159.30 L 161.76 159.58 C 162.55 159.80 163.37 159.33 163.59 158.54 C 163.80 157.75 163.34 156.94 162.55 156.72 L 161.55 156.45 C 160.76 156.23 159.94 156.69 159.72 157.48 C 159.51 158.27 159.97 159.09 160.76 159.30 Z M 161.74 159.57 L 162.77 159.88 C 163.56 160.11 164.38 159.66 164.62 158.88 C 164.85 158.09 164.40 157.27 163.62 157.04 L 162.58 156.73 C 161.79 156.50 160.97 156.94 160.73 157.73 C 160.50 158.52 160.95 159.34 161.74 159.57 Z M 162.73 159.87 L 163.65 160.17 C 164.43 160.43 165.27 160.00 165.53 159.22 C 165.78 158.44 165.36 157.61 164.58 157.35 L 163.66 157.05 C 162.88 156.79 162.04 157.21 161.78 157.99 C 161.53 158.77 161.95 159.61 162.73 159.87 Z M 163.55 160.14 L 164.54 160.55 C 165.30 160.86 166.17 160.49 166.49 159.73 C 166.80 158.97 166.43 158.10 165.67 157.79 L 164.68 157.38 C 163.92 157.07 163.05 157.43 162.73 158.19 C 162.42 158.96 162.79 159.83 163.55 160.14 Z M 164.01 160.20 L 164.55 160.77 C 165.12 161.38 166.07 161.41 166.68 160.84 C 167.28 160.27 167.31 159.32 166.74 158.71 L 166.20 158.14 C 165.63 157.53 164.68 157.50 164.08 158.07 C 163.47 158.64 163.44 159.59 164.01 160.20 Z M 164.23 159.20 L 163.94 159.96 C 163.65 160.74 164.04 161.62 164.82 161.91 C 165.61 162.21 166.48 161.82 166.78 161.03 L 167.06 160.28 C 167.36 159.49 166.96 158.62 166.18 158.32 C 165.40 158.03 164.52 158.42 164.23 159.20 Z M 164.24 159.46 L 163.45 160.32 C 162.87 160.93 162.91 161.90 163.53 162.47 C 164.14 163.04 165.10 163.01 165.68 162.39 L 166.48 161.53 C 167.05 160.92 167.01 159.95 166.40 159.38 C 165.78 158.81 164.82 158.84 164.24 159.46 Z M 163.54 160.21 L 162.79 160.88 C 162.16 161.45 162.11 162.42 162.68 163.04 C 163.24 163.67 164.21 163.73 164.83 163.16 L 165.58 162.49 C 166.21 161.93 166.26 160.96 165.70 160.33 C 165.14 159.70 164.17 159.65 163.54 160.21 Z M 162.82 160.85 L 162.02 161.53 C 161.37 162.08 161.29 163.05 161.83 163.70 C 162.38 164.34 163.35 164.43 164.00 163.88 L 164.80 163.20 C 165.45 162.65 165.53 161.68 164.99 161.03 C 164.44 160.39 163.47 160.30 162.82 160.85 Z M 162.03 161.52 L 161.24 162.16 C 160.58 162.70 160.49 163.68 161.03 164.33 C 161.57 164.99 162.54 165.08 163.20 164.54 L 163.98 163.90 C 164.64 163.36 164.74 162.38 164.19 161.73 C 163.65 161.07 162.68 160.98 162.03 161.52 Z M 161.24 162.16 L 160.36 162.88 C 159.71 163.42 159.61 164.39 160.15 165.05 C 160.69 165.71 161.66 165.81 162.32 165.27 L 163.20 164.55 C 163.86 164.01 163.95 163.04 163.41 162.38 C 162.87 161.72 161.90 161.62 161.24 162.16 Z M 160.37 162.87 L 159.71 163.41 C 159.04 163.94 158.94 164.92 159.48 165.58 C 160.01 166.24 160.98 166.35 161.65 165.81 L 162.31 165.27 C 162.98 164.74 163.08 163.76 162.54 163.10 C 162.01 162.44 161.03 162.33 160.37 162.87 Z M 159.73 163.39 L 159.00 163.95 C 158.33 164.48 158.21 165.45 158.73 166.12 C 159.26 166.80 160.23 166.92 160.90 166.39 L 161.63 165.83 C 162.30 165.30 162.42 164.33 161.90 163.66 C 161.37 162.98 160.40 162.86 159.73 163.39 Z M 159.05 163.91 L 158.21 164.52 C 157.51 165.01 157.35 165.98 157.84 166.67 C 158.34 167.37 159.30 167.53 160.00 167.04 L 160.85 166.44 C 161.55 165.94 161.71 164.97 161.21 164.28 C 160.72 163.58 159.75 163.42 159.05 163.91 Z M 158.25 164.49 L 157.46 165.01 C 156.75 165.48 156.55 166.44 157.02 167.15 C 157.49 167.86 158.45 168.06 159.16 167.59 L 159.96 167.07 C 160.67 166.60 160.87 165.64 160.40 164.93 C 159.92 164.21 158.96 164.01 158.25 164.49 Z M 157.49 164.99 L 156.61 165.55 C 155.88 166.00 155.67 166.95 156.12 167.68 C 156.57 168.40 157.53 168.62 158.25 168.16 L 159.14 167.61 C 159.86 167.15 160.07 166.20 159.62 165.48 C 159.17 164.75 158.21 164.54 157.49 164.99 Z M 156.64 165.53 L 155.74 166.07 C 155.01 166.51 154.77 167.46 155.21 168.19 C 155.65 168.91 156.60 169.15 157.33 168.71 L 158.22 168.18 C 158.95 167.74 159.19 166.79 158.75 166.06 C 158.31 165.33 157.36 165.10 156.64 165.53 Z M 155.77 166.07 L 154.89 166.57 C 154.16 166.99 153.91 167.93 154.34 168.66 C 154.76 169.40 155.70 169.65 156.43 169.22 L 157.30 168.72 C 158.03 168.29 158.28 167.36 157.86 166.62 C 157.44 165.89 156.50 165.64 155.77 166.07 Z M 154.91 166.57 L 154.06 167.06 C 153.33 167.47 153.08 168.40 153.49 169.13 C 153.91 169.86 154.84 170.12 155.57 169.70 L 156.42 169.22 C 157.15 168.80 157.40 167.87 156.98 167.14 C 156.57 166.41 155.64 166.16 154.91 166.57 Z M 154.06 167.07 L 153.18 167.58 C 152.46 168.00 152.21 168.92 152.63 169.64 C 153.04 170.37 153.97 170.61 154.69 170.20 L 155.57 169.69 C 156.29 169.27 156.54 168.35 156.12 167.62 C 155.71 166.90 154.78 166.65 154.06 167.07 Z M 153.15 167.61 L 152.31 168.13 C 151.60 168.56 151.38 169.48 151.81 170.18 C 152.24 170.89 153.16 171.11 153.87 170.68 L 154.71 170.17 C 155.42 169.74 155.64 168.81 155.21 168.11 C 154.78 167.40 153.86 167.18 153.15 167.61 Z M 152.26 168.16 L 151.43 168.72 C 150.75 169.17 150.56 170.10 151.02 170.79 C 151.48 171.47 152.41 171.66 153.09 171.20 L 153.92 170.64 C 154.60 170.19 154.79 169.26 154.33 168.57 C 153.87 167.89 152.94 167.71 152.26 168.16 Z M 151.38 168.74 L 150.57 169.33 C 149.90 169.82 149.75 170.76 150.24 171.43 C 150.73 172.10 151.66 172.25 152.34 171.76 L 153.14 171.17 C 153.81 170.68 153.96 169.75 153.48 169.07 C 152.99 168.40 152.05 168.25 151.38 168.74 Z M 150.54 169.33 L 149.98 169.76 C 149.31 170.26 149.18 171.21 149.68 171.88 C 150.18 172.55 151.13 172.68 151.80 172.18 L 152.36 171.75 C 153.03 171.25 153.17 170.30 152.66 169.63 C 152.16 168.97 151.21 168.83 150.54 169.33 Z"
      fill="black"
      fill-rule="nonzero" /></svg>