<svg xmlns="http://www.w3.org/2000/svg" width="300" height="300" viewBox="0 0 300 300">
<path d="M 126.50 142.18 L 127.48 142.13 C 128.31 142.09 128.96 141.38 128.92 140.54 C 128.87 139.71 128.16 139.06 127.33 139.10 L 126.35 139.15 C 125.52 139.19 124.87 139.90 124.91 140.74 C 124.95 141.57 125.66 142.22 126.50 142.18 Z M 127.49 142.13 L 128.44 142.08 C 129.28 142.03 129.92 141.32 129.87 140.48 C 129.82 139.64 129.10 139.00 128.27 139.05 L 127.32 139.10 C 126.48 139.15 125.84 139.86 125.88 140.70 C 125.93 141.54 126.65 142.18 127.49 142.13 Z M 128.45 142.08 L 129.39 142.02 C 130.23 141.96 130.86 141.23 130.81 140.40 C 130.75 139.56 130.03 138.93 129.19 138.98 L 128.25 139.05 C 127.41 139.10 126.78 139.83 126.84 140.67 C 126.89 141.50 127.62 142.14 128.45 142.08 Z M 129.41 142.01 L 130.48 141.93 C 131.32 141.86 131.94 141.13 131.88 140.30 C 131.81 139.46 131.08 138.84 130.25 138.91 L 129.17 138.99 C 128.34 139.05 127.71 139.78 127.78 140.62 C 127.84 141.45 128.57 142.08 129.41 142.01 Z M 130.49 141.92 L 131.37 141.85 C 132.20 141.78 132.82 141.05 132.75 140.22 C 132.68 139.39 131.95 138.77 131.12 138.84 L 130.24 138.91 C 129.41 138.98 128.79 139.71 128.86 140.54 C 128.93 141.37 129.66 141.99 130.49 141.92 Z M 131.37 141.85 L 132.37 141.76 C 133.20 141.70 133.81 140.97 133.75 140.14 C 133.68 139.30 132.95 138.69 132.12 138.76 L 131.12 138.84 C 130.29 138.91 129.67 139.64 129.74 140.47 C 129.81 141.30 130.54 141.92 131.37 141.85 Z M 132.36 141.76 L 133.47 141.67 C 134.30 141.61 134.92 140.88 134.85 140.05 C 134.78 139.22 134.06 138.60 133.23 138.67 L 132.12 138.76 C 131.29 138.83 130.67 139.55 130.74 140.38 C 130.81 141.21 131.53 141.83 132.36 141.76 Z M 133.46 141.67 L 134.55 141.58 C 135.38 141.52 136.00 140.80 135.94 139.97 C 135.87 139.14 135.15 138.52 134.32 138.59 L 133.23 138.67 C 132.41 138.74 131.79 139.46 131.85 140.29 C 131.92 141.11 132.64 141.73 133.46 141.67 Z M 134.55 141.58 L 135.61 141.50 C 136.44 141.44 137.06 140.72 137.00 139.90 C 136.93 139.07 136.22 138.45 135.39 138.52 L 134.33 138.59 C 133.50 138.66 132.89 139.37 132.95 140.20 C 133.01 141.02 133.73 141.64 134.55 141.58 Z M 135.61 141.49 L 136.64 141.42 C 137.46 141.36 138.08 140.65 138.02 139.83 C 137.96 139.01 137.25 138.39 136.43 138.45 L 135.40 138.52 C 134.58 138.58 133.96 139.29 134.02 140.11 C 134.08 140.93 134.79 141.55 135.61 141.49 Z M 136.64 141.41 L 137.58 141.34 C 138.40 141.29 139.02 140.58 138.96 139.76 C 138.90 138.94 138.19 138.33 137.37 138.39 L 136.43 138.46 C 135.62 138.51 135.00 139.22 135.06 140.04 C 135.12 140.85 135.83 141.47 136.64 141.41 Z M 137.58 141.34 L 138.66 141.26 C 139.47 141.20 140.08 140.50 140.03 139.69 C 139.97 138.87 139.26 138.26 138.45 138.32 L 137.37 138.40 C 136.56 138.46 135.95 139.16 136.01 139.97 C 136.07 140.78 136.77 141.39 137.58 141.34 Z M 138.66 141.25 L 139.65 141.17 C 140.46 141.12 141.06 140.42 141.00 139.61 C 140.95 138.81 140.25 138.20 139.44 138.26 L 138.45 138.33 C 137.65 138.39 137.04 139.09 137.10 139.89 C 137.16 140.70 137.86 141.30 138.66 141.25 Z M 139.65 141.16 L 140.50 141.10 C 141.29 141.04 141.89 140.35 141.83 139.55 C 141.77 138.75 141.08 138.16 140.28 138.21 L 139.44 138.28 C 138.65 138.33 138.05 139.03 138.11 139.82 C 138.17 140.62 138.86 141.22 139.65 141.16 Z M 140.50 141.09 L 141.49 141.01 C 142.28 140.96 142.88 140.27 142.82 139.48 C 142.76 138.69 142.07 138.09 141.28 138.15 L 140.28 138.22 C 139.49 138.28 138.90 138.97 138.96 139.76 C 139.02 140.55 139.70 141.15 140.50 141.09 Z M 141.49 141.01 L 141.96 140.97 C 142.75 140.92 143.34 140.23 143.28 139.44 C 143.22 138.66 142.54 138.06 141.75 138.12 L 141.28 138.16 C 140.49 138.21 139.90 138.90 139.96 139.69 C 140.02 140.48 140.70 141.07 141.49 141.01 Z"
      fill="black"
      fill-rule="nonzero" /><path d="M 133.13 136.38 L 133.13 137.35 C 133.13 138.17 133.79 138.83 134.61 138.83 C 135.43 138.83 136.09 138.17 136.09 137.35 L 136.09 136.38 C 136.09 135.56 135.43 134.89 134.61 134.89 C 133.79 134.89 133.13 135.56 133.13 136.38 Z M 133.09 137.35 L 133.09 138.37 C 133.09 139.21 133.77 139.89 134.61 139.89 C 135.45 139.89 136.13 139.21 136.13 138.37 L 136.13 137.35 C 136.13 136.51 135.45 135.83 134.61 135.83 C 133.77 135.83 133.09 136.51 133.09 137.35 Z M 133.07 138.37 L 133.07 139.40 C 133.07 140.25 133.76 140.94 134.61 140.94 C 135.46 140.94 136.15 140.25 136.15 139.40 L 136.15 138.37 C 136.15 137.52 135.46 136.83 134.61 136.83 C 133.76 136.83 133.07 137.52 133.07 138.37 Z M 133.06 139.40 L 133.06 140.40 C 133.06 141.26 133.75 141.95 134.61 141.95 C 135.47 141.95 136.16 141.26 136.16 140.40 L 136.16 139.40 C 136.16 138.54 135.47 137.85 134.61 137.85 C 133.75 137.85 133.06 138.54 133.06 139.40 Z M 133.06 140.40 L 133.06 141.42 C 133.06 142.28 133.75 142.97 134.61 142.97 C 135.47 142.97 136.16 142.28 136.16 141.42 L 136.16 140.40 C 136.16 139.54 135.47 138.85 134.61 138.85 C 133.75 138.85 133.06 139.54 133.06 140.40 Z M 133.05 141.42 L 133.05 142.38 C 133.05 143.24 133.75 143.94 134.61 143.94 C 135.47 143.94 136.17 143.24 136.17 142.38 L 136.17 141.42 C 136.17 140.56 135.47 139.86 134.61 139.86 C 133.75 139.86 133.05 140.56 133.05 141.42 Z M 133.05 142.38 L 133.05 143.35 C 133.05 144.20 133.75 144.90 134.61 144.90 C 135.47 144.90 136.17 144.20 136.17 143.35 L 136.17 142.38 C 136.17 141.52 135.47 140.83 134.61 140.83 C 133.75 140.83 133.05 141.52 133.05 142.38 Z M 133.05 143.35 L 133.05 144.38 C 133.05 145.24 133.75 145.93 134.61 145.93 C 135.47 145.93 136.17 145.24 136.17 144.38 L 136.17 143.35 C 136.17 142.49 135.47 141.79 134.61 141.79 C 133.75 141.79 133.05 142.49 133.05 143.35 Z M 133.05 144.38 L 133.05 145.35 C 133.05 146.21 133.75 146.91 134.61 146.91 C 135.47 146.91 136.17 146.21 136.17 145.35 L 136.17 144.38 C 136.17 143.52 135.47 142.82 134.61 142.82 C 133.75 142.82 133.05 143.52 133.05 144.38 Z M 133.06 145.35 L 133.06 146.37 C 133.06 147.23 133.75 147.93 134.61 147.93 C 135.47 147.93 136.16 147.23 136.16 146.37 L 136.16 145.35 C 136.16 144.50 135.47 143.80 134.61 143.80 C 133.75 143.80 133.06 144.50 133.06 145.35 Z M 133.06 146.37 L 133.06 147.36 C 133.06 148.21 133.75 148.91 134.61 148.91 C 135.47 148.91 136.16 148.21 136.16 147.36 L 136.16 146.37 C 136.16 145.52 135.47 144.82 134.61 144.82 C 133.75 144.82 133.06 145.52 133.06 146.37 Z M 133.06 147.36 L 133.06 148.36 C 133.06 149.22 133.75 149.92 134.61 149.92 C 135.47 149.92 136.16 149.22 136.16 148.36 L 136.16 147.36 C 136.16 146.50 135.47 145.81 134.61 145.81 C 133.75 145.81 133.06 146.50 133.06 147.36 Z M 133.06 148.36 L 133.06 149.36 C 133.06 150.22 133.75 150.91 134.61 150.91 C 135.47 150.91 136.16 150.22 136.16 149.36 L 136.16 148.36 C 136.16 147.51 135.47 146.81 134.61 146.81 C 133.75 146.81 133.06 147.51 133.06 148.36 Z M 133.06 149.36 L 133.06 150.36 C 133.06 151.21 133.75 151.90 134.61 151.90 C 135.47 151.90 136.16 151.21 136.16 150.36 L 136.16 149.36 C 136.16 148.51 135.47 147.81 134.61 147.81 C 133.75 147.81 133.06 148.51 133.06 149.36 Z M 133.06 150.36 L 133.06 151.38 C 133.06 152.23 133.75 152.93 134.61 152.93 C 135.47 152.93 136.16 152.23 136.16 151.38 L 136.16 150.36 C 136.16 149.50 135.47 148.81 134.61 148.81 C 133.75 148.81 133.06 149.50 133.06 150.36 Z M 133.06 151.38 L 133.06 152.39 C 133.06 153.24 133.76 153.94 134.61 153.94 C 135.46 153.94 136.16 153.24 136.16 152.39 L 136.16 151.38 C 136.16 150.53 135.46 149.83 134.61 149.83 C 133.76 149.83 133.06 150.53 133.06 151.38 Z M 133.06 152.39 L 133.06 153.39 C 133.06 154.25 133.76 154.94 134.61 154.94 C 135.46 154.94 136.16 154.25 136.16 153.39 L 136.16 152.39 C 136.16 151.54 135.46 150.84 134.61 150.84 C 133.76 150.84 133.06 151.54 133.06 152.39 Z M 133.07 153.39 L 133.07 154.40 C 133.07 155.26 133.76 155.95 134.61 155.95 C 135.46 155.95 136.15 155.26 136.15 154.40 L 136.15 153.39 C 136.15 152.54 135.46 151.85 134.61 151.85 C 133.76 151.85 133.07 152.54 133.07 153.39 Z M 133.07 154.40 L 133.07 155.41 C 133.07 156.26 133.76 156.95 134.61 156.95 C 135.46 156.95 136.15 156.26 136.15 155.41 L 136.15 154.40 C 136.15 153.55 135.46 152.86 134.61 152.86 C 133.76 152.86 133.07 153.55 133.07 154.40 Z M 133.07 155.41 L 133.07 156.38 C 133.07 157.23 133.76 157.92 134.61 157.92 C 135.46 157.92 136.15 157.23 136.15 156.38 L 136.15 155.41 C 136.15 154.56 135.46 153.87 134.61 153.87 C 133.76 153.87 133.07 154.56 133.07 155.41 Z M 133.07 156.38 L 133.07 157.40 C 133.07 158.25 133.76 158.94 134.61 158.94 C 135.46 158.94 136.15 158.25 136.15 157.40 L 136.15 156.38 C 136.15 155.53 135.46 154.84 134.61 154.84 C 133.76 154.84 133.07 155.53 133.07 156.38 Z M 133.07 157.40 L 133.07 158.38 C 133.07 159.23 133.76 159.92 134.61 159.92 C 135.46 159.92 136.15 159.23 136.15 158.38 L 136.15 157.40 C 136.15 156.55 135.46 155.87 134.61 155.87 C 133.76 155.87 133.07 156.55 133.07 157.40 Z M 133.07 158.38 L 133.07 159.40 C 133.07 160.25 133.76 160.94 134.61 160.94 C 135.46 160.94 136.15 160.25 136.15 159.40 L 136.15 158.38 C 136.15 157.53 135.46 156.85 134.61 156.85 C 133.76 156.85 133.07 157.53 133.07 158.38 Z M 133.07 159.40 L 133.07 160.38 C 133.07 161.23 133.76 161.92 134.61 161.92 C 135.46 161.92 136.15 161.23 136.15 160.38 L 136.15 159.40 C 136.15 158.56 135.46 157.87 134.61 157.87 C 133.76 157.87 133.07 158.56 133.07 159.40 Z M 133.07 160.37 L 133.07 161.31 C 133.06 162.16 133.75 162.85 134.60 162.86 C 135.44 162.86 136.14 162.18 136.14 161.33 L 136.15 160.39 C 136.15 159.54 135.47 158.85 134.62 158.84 C 133.77 158.84 133.08 159.52 133.07 160.37 Z M 133.07 161.26 L 133.03 162.32 C 133.00 163.17 133.66 163.88 134.51 163.91 C 135.36 163.95 136.07 163.28 136.10 162.43 L 136.14 161.38 C 136.17 160.53 135.51 159.82 134.66 159.78 C 133.81 159.75 133.10 160.41 133.07 161.26 Z M 133.03 162.26 L 132.96 163.27 C 132.89 164.12 133.53 164.85 134.37 164.92 C 135.22 164.98 135.96 164.35 136.02 163.50 L 136.10 162.49 C 136.16 161.65 135.53 160.91 134.68 160.84 C 133.83 160.78 133.10 161.42 133.03 162.26 Z M 132.96 163.21 L 132.85 164.22 C 132.75 165.07 133.36 165.83 134.20 165.93 C 135.04 166.02 135.81 165.41 135.90 164.57 L 136.02 163.56 C 136.11 162.71 135.51 161.95 134.66 161.86 C 133.82 161.76 133.06 162.37 132.96 163.21 Z M 132.87 164.10 L 132.64 165.25 C 132.47 166.08 133.01 166.89 133.84 167.06 C 134.68 167.22 135.49 166.68 135.65 165.85 L 135.88 164.70 C 136.05 163.87 135.51 163.06 134.68 162.89 C 133.84 162.72 133.03 163.26 132.87 164.10 Z M 133.06 164.46 L 132.64 164.87 C 132.04 165.47 132.03 166.44 132.63 167.05 C 133.23 167.65 134.20 167.66 134.81 167.06 L 135.23 166.64 C 135.83 166.05 135.84 165.07 135.24 164.47 C 134.64 163.86 133.67 163.86 133.06 164.46 Z M 134.89 164.95 L 134.21 164.16 C 133.65 163.52 132.67 163.45 132.03 164.01 C 131.39 164.57 131.32 165.54 131.87 166.19 L 132.56 166.98 C 133.12 167.62 134.09 167.69 134.74 167.13 C 135.38 166.57 135.45 165.60 134.89 164.95 Z M 134.08 164.03 L 133.35 163.37 C 132.72 162.80 131.74 162.85 131.16 163.48 C 130.59 164.12 130.64 165.10 131.28 165.67 L 132.00 166.33 C 132.64 166.90 133.62 166.85 134.19 166.21 C 134.77 165.58 134.71 164.60 134.08 164.03 Z M 133.24 163.28 L 132.42 162.67 C 131.73 162.16 130.76 162.31 130.25 162.99 C 129.75 163.68 129.89 164.65 130.58 165.16 L 131.39 165.77 C 132.08 166.27 133.05 166.13 133.56 165.44 C 134.07 164.76 133.92 163.79 133.24 163.28 Z M 132.46 162.70 L 131.69 162.10 C 131.02 161.57 130.04 161.69 129.51 162.36 C 128.98 163.03 129.10 164.01 129.78 164.54 L 130.54 165.14 C 131.22 165.66 132.19 165.55 132.72 164.87 C 133.25 164.20 133.13 163.23 132.46 162.70 Z M 131.72 162.12 L 130.92 161.45 C 130.25 160.91 129.27 161.00 128.73 161.66 C 128.18 162.33 128.28 163.31 128.94 163.85 L 129.74 164.52 C 130.41 165.06 131.39 164.97 131.93 164.30 C 132.48 163.64 132.38 162.66 131.72 162.12 Z M 130.93 161.46 L 130.17 160.82 C 129.52 160.27 128.53 160.35 127.98 161.01 C 127.42 161.66 127.50 162.65 128.16 163.20 L 128.92 163.84 C 129.58 164.40 130.56 164.32 131.12 163.66 C 131.67 163.00 131.59 162.02 130.93 161.46 Z M 130.17 160.81 L 129.40 160.17 C 128.74 159.61 127.75 159.70 127.20 160.36 C 126.64 161.02 126.73 162.01 127.39 162.56 L 128.16 163.21 C 128.83 163.76 129.81 163.68 130.37 163.02 C 130.92 162.35 130.83 161.37 130.17 160.81 Z M 129.39 160.15 L 128.58 159.49 C 127.90 158.94 126.92 159.04 126.37 159.72 C 125.82 160.39 125.92 161.38 126.60 161.92 L 127.40 162.58 C 128.08 163.13 129.07 163.03 129.61 162.35 C 130.16 161.68 130.06 160.69 129.39 160.15 Z M 128.60 159.50 L 127.84 158.86 C 127.17 158.30 126.18 158.39 125.62 159.06 C 125.06 159.72 125.15 160.72 125.81 161.28 L 126.57 161.92 C 127.24 162.48 128.24 162.39 128.80 161.72 C 129.36 161.05 129.27 160.06 128.60 159.50 Z M 127.96 158.96 L 127.20 158.19 C 126.59 157.56 125.58 157.56 124.96 158.17 C 124.34 158.78 124.33 159.79 124.94 160.41 L 125.70 161.18 C 126.31 161.81 127.31 161.81 127.94 161.20 C 128.56 160.59 128.57 159.58 127.96 158.96 Z M 127.58 158.79 L 127.31 158.00 C 127.03 157.17 126.13 156.72 125.30 157.01 C 124.46 157.29 124.02 158.19 124.30 159.02 L 124.56 159.81 C 124.84 160.64 125.75 161.09 126.58 160.81 C 127.41 160.53 127.86 159.63 127.58 158.79 Z M 126.91 159.66 L 127.58 159.01 C 128.22 158.40 128.23 157.39 127.62 156.76 C 127.01 156.13 126.01 156.11 125.37 156.72 L 124.70 157.37 C 124.07 157.98 124.05 158.98 124.66 159.62 C 125.27 160.25 126.28 160.27 126.91 159.66 Z M 127.14 159.31 L 128.08 158.88 C 128.88 158.52 129.23 157.57 128.87 156.77 C 128.50 155.97 127.56 155.62 126.76 155.99 L 125.81 156.42 C 125.02 156.78 124.66 157.73 125.03 158.53 C 125.40 159.33 126.34 159.68 127.14 159.31 Z M 127.97 158.93 L 128.92 158.58 C 129.74 158.27 130.16 157.36 129.86 156.54 C 129.56 155.71 128.64 155.29 127.82 155.59 L 126.87 155.94 C 126.05 156.25 125.63 157.16 125.93 157.98 C 126.23 158.81 127.15 159.23 127.97 158.93 Z M 128.91 158.57 L 129.82 158.24 C 130.64 157.94 131.06 157.03 130.76 156.21 C 130.45 155.39 129.55 154.97 128.73 155.27 L 127.82 155.60 C 127.00 155.90 126.58 156.81 126.88 157.63 C 127.19 158.45 128.09 158.87 128.91 158.57 Z M 129.82 158.22 L 130.79 157.86 C 131.60 157.56 132.01 156.65 131.71 155.84 C 131.41 155.03 130.50 154.62 129.69 154.92 L 128.72 155.28 C 127.91 155.59 127.50 156.49 127.80 157.30 C 128.10 158.12 129.01 158.53 129.82 158.22 Z M 130.79 157.85 L 131.69 157.51 C 132.49 157.21 132.90 156.31 132.60 155.51 C 132.29 154.70 131.40 154.29 130.59 154.60 L 129.69 154.94 C 128.89 155.24 128.48 156.14 128.78 156.94 C 129.09 157.74 129.98 158.15 130.79 157.85 Z M 131.69 157.49 L 132.65 157.12 C 133.45 156.82 133.85 155.93 133.54 155.13 C 133.24 154.34 132.35 153.94 131.55 154.24 L 130.59 154.61 C 129.79 154.92 129.39 155.81 129.70 156.61 C 130.00 157.40 130.90 157.80 131.69 157.49 Z M 132.66 157.10 L 133.52 156.76 C 134.31 156.45 134.69 155.57 134.38 154.78 C 134.07 154.00 133.19 153.62 132.40 153.93 L 131.54 154.27 C 130.76 154.58 130.38 155.46 130.68 156.24 C 130.99 157.03 131.88 157.41 132.66 157.10 Z M 133.53 156.74 L 134.44 156.37 C 135.21 156.06 135.57 155.18 135.26 154.41 C 134.95 153.64 134.07 153.27 133.30 153.58 L 132.40 153.95 C 131.63 154.26 131.26 155.14 131.57 155.91 C 131.88 156.68 132.76 157.05 133.53 156.74 Z M 134.44 156.34 L 135.47 155.92 C 136.22 155.60 136.58 154.73 136.26 153.97 C 135.94 153.22 135.08 152.86 134.32 153.18 L 133.29 153.61 C 132.54 153.92 132.18 154.79 132.50 155.55 C 132.82 156.31 133.69 156.66 134.44 156.34 Z M 135.47 155.90 L 136.31 155.54 C 137.06 155.22 137.41 154.35 137.09 153.61 C 136.77 152.86 135.91 152.52 135.16 152.83 L 134.32 153.20 C 133.57 153.52 133.22 154.38 133.54 155.12 C 133.86 155.87 134.72 156.22 135.47 155.90 Z M 136.32 155.52 L 137.23 155.13 C 137.96 154.81 138.30 153.95 137.99 153.21 C 137.67 152.47 136.81 152.13 136.07 152.45 L 135.16 152.85 C 134.42 153.17 134.08 154.02 134.40 154.76 C 134.72 155.50 135.58 155.84 136.32 155.52 Z M 137.22 155.12 L 138.18 154.70 C 138.91 154.38 139.25 153.53 138.93 152.80 C 138.61 152.07 137.76 151.73 137.02 152.05 L 136.07 152.46 C 135.34 152.78 135.00 153.64 135.32 154.37 C 135.64 155.10 136.49 155.44 137.22 155.12 Z M 138.17 154.69 L 139.00 154.33 C 139.73 154.02 140.06 153.17 139.74 152.44 C 139.43 151.71 138.58 151.38 137.85 151.70 L 137.03 152.06 C 136.30 152.38 135.97 153.22 136.28 153.95 C 136.60 154.68 137.45 155.01 138.17 154.69 Z"
      fill="black"
      fill-rule="nonzero" /><path d="M 159.40 118.42 L 158.47 118.90 C 157.71 119.29 157.41 120.23 157.80 120.99 C 158.20 121.75 159.14 122.05 159.90 121.65 L 160.82 121.17 C 161.58 120.78 161.88 119.84 161.49 119.08 C 161.09 118.32 160.16 118.03 159.40 118.42 Z M 158.48 118.90 L 157.58 119.36 C 156.82 119.75 156.52 120.68 156.91 121.44 C 157.30 122.20 158.23 122.50 158.99 122.11 L 159.89 121.66 C 160.65 121.27 160.95 120.33 160.56 119.57 C 160.17 118.81 159.24 118.51 158.48 118.90 Z M 157.60 119.35 L 156.73 119.79 C 155.97 120.17 155.66 121.09 156.04 121.86 C 156.42 122.62 157.34 122.93 158.11 122.55 L 158.98 122.12 C 159.74 121.74 160.05 120.81 159.67 120.05 C 159.29 119.28 158.36 118.97 157.60 119.35 Z M 156.77 119.78 L 155.85 120.21 C 155.09 120.57 154.76 121.49 155.12 122.25 C 155.48 123.02 156.39 123.35 157.16 122.98 L 158.07 122.55 C 158.84 122.19 159.17 121.28 158.80 120.52 C 158.44 119.75 157.53 119.42 156.77 119.78 Z M 155.90 120.21 L 155.01 120.60 C 154.24 120.94 153.89 121.83 154.23 122.60 C 154.57 123.36 155.46 123.71 156.23 123.38 L 157.11 122.99 C 157.88 122.65 158.23 121.76 157.89 120.99 C 157.56 120.22 156.66 119.87 155.90 120.21 Z M 155.04 120.59 L 154.13 120.97 C 153.36 121.29 152.99 122.17 153.31 122.94 C 153.63 123.71 154.51 124.07 155.28 123.76 L 156.19 123.38 C 156.96 123.06 157.33 122.18 157.01 121.41 C 156.69 120.64 155.81 120.28 155.04 120.59 Z M 154.16 120.96 L 153.22 121.32 C 152.44 121.63 152.06 122.50 152.36 123.27 C 152.66 124.05 153.53 124.43 154.31 124.13 L 155.25 123.77 C 156.02 123.47 156.41 122.59 156.11 121.82 C 155.81 121.04 154.93 120.66 154.16 120.96 Z M 153.25 121.31 L 152.30 121.66 C 151.52 121.94 151.11 122.81 151.40 123.59 C 151.68 124.37 152.54 124.77 153.33 124.49 L 154.28 124.14 C 155.06 123.86 155.46 123.00 155.18 122.21 C 154.89 121.43 154.03 121.03 153.25 121.31 Z M 152.34 121.65 L 151.39 121.97 C 150.60 122.23 150.18 123.08 150.44 123.87 C 150.70 124.65 151.55 125.08 152.34 124.81 L 153.29 124.50 C 154.07 124.24 154.50 123.38 154.24 122.60 C 153.97 121.81 153.12 121.39 152.34 121.65 Z M 151.44 121.95 L 150.47 122.24 C 149.68 122.48 149.23 123.31 149.47 124.10 C 149.70 124.90 150.54 125.35 151.33 125.11 L 152.29 124.83 C 153.09 124.59 153.54 123.76 153.30 122.96 C 153.07 122.17 152.23 121.72 151.44 121.95 Z M 150.53 122.23 L 149.55 122.48 C 148.75 122.69 148.27 123.50 148.48 124.30 C 148.69 125.10 149.50 125.58 150.30 125.38 L 151.28 125.12 C 152.08 124.92 152.56 124.10 152.35 123.30 C 152.14 122.50 151.33 122.02 150.53 122.23 Z M 149.61 122.47 L 148.63 122.68 C 147.83 122.86 147.32 123.66 147.49 124.46 C 147.67 125.27 148.47 125.78 149.27 125.60 L 150.25 125.39 C 151.06 125.21 151.56 124.41 151.39 123.61 C 151.21 122.80 150.41 122.29 149.61 122.47 Z M 148.69 122.67 L 147.70 122.85 C 146.89 123.00 146.35 123.77 146.49 124.59 C 146.64 125.40 147.42 125.94 148.23 125.79 L 149.22 125.61 C 150.03 125.47 150.57 124.69 150.42 123.88 C 150.27 123.07 149.50 122.53 148.69 122.67 Z M 147.74 122.84 L 146.65 123.01 C 145.84 123.13 145.27 123.90 145.40 124.71 C 145.52 125.53 146.29 126.09 147.11 125.97 L 148.19 125.80 C 149.01 125.68 149.57 124.91 149.44 124.09 C 149.32 123.28 148.55 122.71 147.74 122.84 Z M 146.11 123.17 L 145.45 123.56 C 144.73 123.99 144.48 124.92 144.91 125.64 C 145.33 126.37 146.26 126.61 146.99 126.19 L 147.65 125.80 C 148.37 125.38 148.62 124.44 148.19 123.72 C 147.77 122.99 146.84 122.75 146.11 123.17 Z M 144.91 125.68 L 145.37 126.43 C 145.82 127.16 146.76 127.39 147.49 126.94 C 148.21 126.50 148.44 125.55 148.00 124.83 L 147.53 124.07 C 147.09 123.35 146.14 123.12 145.42 123.56 C 144.69 124.01 144.47 124.95 144.91 125.68 Z M 145.50 126.62 L 146.22 127.48 C 146.77 128.13 147.74 128.22 148.39 127.68 C 149.04 127.13 149.13 126.16 148.59 125.51 L 147.87 124.64 C 147.32 123.99 146.35 123.90 145.70 124.45 C 145.04 125.00 144.96 125.97 145.50 126.62 Z M 146.13 127.37 L 146.69 128.18 C 147.17 128.88 148.13 129.06 148.83 128.58 C 149.54 128.10 149.71 127.14 149.23 126.43 L 148.67 125.62 C 148.19 124.92 147.23 124.74 146.53 125.22 C 145.83 125.70 145.65 126.66 146.13 127.37 Z M 146.64 128.10 L 147.10 128.88 C 147.54 129.61 148.48 129.85 149.22 129.41 C 149.95 128.98 150.19 128.03 149.75 127.30 L 149.29 126.52 C 148.85 125.79 147.90 125.55 147.17 125.98 C 146.44 126.42 146.20 127.36 146.64 128.10 Z M 147.07 128.82 L 147.55 129.71 C 147.95 130.46 148.89 130.74 149.64 130.34 C 150.39 129.93 150.67 129.00 150.26 128.25 L 149.78 127.36 C 149.38 126.61 148.44 126.33 147.69 126.73 C 146.95 127.14 146.67 128.07 147.07 128.82 Z M 147.53 129.67 L 147.99 130.59 C 148.37 131.35 149.30 131.65 150.06 131.27 C 150.82 130.89 151.13 129.96 150.74 129.20 L 150.28 128.29 C 149.90 127.52 148.97 127.22 148.21 127.60 C 147.45 127.98 147.15 128.91 147.53 129.67 Z M 147.98 130.56 L 148.41 131.46 C 148.78 132.23 149.70 132.55 150.47 132.18 C 151.23 131.81 151.56 130.90 151.19 130.13 L 150.76 129.23 C 150.39 128.46 149.47 128.14 148.70 128.51 C 147.93 128.87 147.61 129.79 147.98 130.56 Z M 148.40 131.44 L 148.84 132.38 C 149.19 133.15 150.10 133.49 150.87 133.14 C 151.65 132.78 151.98 131.87 151.63 131.10 L 151.20 130.15 C 150.84 129.38 149.93 129.04 149.16 129.40 C 148.39 129.75 148.05 130.66 148.40 131.44 Z M 148.83 132.35 L 149.25 133.33 C 149.59 134.11 150.49 134.47 151.26 134.13 C 152.04 133.80 152.40 132.90 152.07 132.12 L 151.64 131.13 C 151.31 130.36 150.40 130.00 149.63 130.33 C 148.85 130.67 148.49 131.57 148.83 132.35 Z M 149.24 133.29 L 149.62 134.25 C 149.93 135.03 150.82 135.41 151.60 135.10 C 152.38 134.79 152.77 133.90 152.46 133.12 L 152.07 132.16 C 151.76 131.38 150.88 131.00 150.10 131.31 C 149.31 131.62 148.93 132.51 149.24 133.29 Z M 149.61 134.20 L 149.93 135.07 C 150.21 135.86 151.08 136.26 151.87 135.98 C 152.65 135.70 153.06 134.83 152.78 134.04 L 152.46 133.17 C 152.18 132.39 151.31 131.98 150.53 132.26 C 149.74 132.54 149.33 133.41 149.61 134.20 Z M 149.92 135.00 L 150.23 135.99 C 150.48 136.78 151.32 137.23 152.11 136.98 C 152.90 136.73 153.34 135.89 153.09 135.10 L 152.78 134.11 C 152.54 133.32 151.70 132.88 150.91 133.12 C 150.12 133.37 149.67 134.21 149.92 135.00 Z M 150.23 135.93 L 150.48 136.85 C 150.70 137.64 151.51 138.11 152.30 137.89 C 153.08 137.68 153.55 136.87 153.34 136.08 L 153.09 135.16 C 152.88 134.37 152.07 133.91 151.28 134.12 C 150.49 134.33 150.02 135.14 150.23 135.93 Z M 150.49 136.83 L 150.52 136.95 C 150.72 137.73 151.52 138.20 152.31 138.00 C 153.09 137.79 153.56 136.99 153.36 136.21 L 153.33 136.10 C 153.13 135.31 152.33 134.84 151.54 135.05 C 150.76 135.25 150.29 136.05 150.49 136.83 Z"
      fill="black"
      fill-rule="nonzero" /><path d="M 152.57 126.73 L 152.74 127.69 C 152.88 128.51 153.65 129.06 154.47 128.92 C 155.29 128.78 155.84 128.00 155.70 127.18 L 155.54 126.22 C 155.40 125.40 154.62 124.85 153.80 124.99 C 152.98 125.13 152.43 125.91 152.57 126.73 Z M 152.73 127.78 L 152.96 128.76 C 153.15 129.58 153.97 130.09 154.79 129.90 C 155.61 129.71 156.12 128.90 155.93 128.08 L 155.70 127.09 C 155.51 126.27 154.69 125.76 153.87 125.95 C 153.06 126.14 152.55 126.96 152.73 127.78 Z M 152.98 128.86 L 153.26 129.81 C 153.50 130.62 154.36 131.08 155.17 130.84 C 155.98 130.60 156.44 129.75 156.20 128.94 L 155.91 127.98 C 155.67 127.17 154.82 126.71 154.01 126.95 C 153.20 127.19 152.74 128.05 152.98 128.86 Z M 153.27 129.83 L 153.58 130.81 C 153.83 131.61 154.69 132.06 155.50 131.80 C 156.30 131.55 156.75 130.69 156.50 129.88 L 156.19 128.91 C 155.93 128.11 155.07 127.66 154.27 127.91 C 153.46 128.17 153.02 129.03 153.27 129.83 Z M 153.58 130.78 L 153.86 131.74 C 154.11 132.54 154.96 133.00 155.76 132.75 C 156.57 132.51 157.02 131.66 156.78 130.86 L 156.50 129.91 C 156.25 129.10 155.40 128.64 154.60 128.89 C 153.79 129.13 153.34 129.98 153.58 130.78 Z M 153.86 131.69 L 154.12 132.66 C 154.34 133.47 155.17 133.95 155.98 133.73 C 156.78 133.51 157.26 132.68 157.05 131.88 L 156.78 130.90 C 156.57 130.10 155.74 129.62 154.93 129.84 C 154.12 130.05 153.65 130.88 153.86 131.69 Z M 154.12 132.61 L 154.35 133.58 C 154.54 134.39 155.34 134.89 156.15 134.70 C 156.96 134.52 157.46 133.71 157.27 132.90 L 157.05 131.93 C 156.86 131.12 156.05 130.62 155.25 130.81 C 154.44 131.00 153.94 131.80 154.12 132.61 Z M 154.36 133.55 L 154.56 134.53 C 154.73 135.33 155.52 135.84 156.32 135.68 C 157.12 135.51 157.64 134.72 157.47 133.92 L 157.27 132.94 C 157.10 132.14 156.31 131.62 155.51 131.79 C 154.71 131.96 154.19 132.74 154.36 133.55 Z M 154.58 134.51 L 154.77 135.50 C 154.93 136.29 155.70 136.81 156.49 136.65 C 157.29 136.50 157.81 135.73 157.65 134.93 L 157.46 133.94 C 157.30 133.15 156.53 132.63 155.73 132.78 C 154.94 132.94 154.42 133.71 154.58 134.51 Z M 154.79 135.48 L 154.98 136.46 C 155.13 137.24 155.88 137.76 156.67 137.61 C 157.45 137.46 157.96 136.70 157.82 135.92 L 157.63 134.94 C 157.48 134.16 156.72 133.64 155.94 133.79 C 155.16 133.94 154.64 134.70 154.79 135.48 Z M 154.99 136.45 L 155.01 136.57 C 155.16 137.35 155.91 137.86 156.68 137.71 C 157.46 137.57 157.97 136.82 157.83 136.04 L 157.80 135.92 C 157.66 135.14 156.91 134.63 156.13 134.78 C 155.35 134.93 154.84 135.68 154.99 136.45 Z"
      fill="black"
      fill-rule="nonzero" /><path d="M 161.37 126.92 L 161.31 128.01 C 161.27 128.84 161.90 129.55 162.73 129.59 C 163.56 129.64 164.27 129.00 164.32 128.17 L 164.38 127.08 C 164.42 126.25 163.79 125.54 162.96 125.49 C 162.13 125.45 161.42 126.09 161.37 126.92 Z M 161.30 128.00 L 161.24 129.03 C 161.19 129.86 161.83 130.58 162.66 130.63 C 163.50 130.68 164.22 130.04 164.27 129.21 L 164.33 128.18 C 164.38 127.34 163.74 126.62 162.90 126.57 C 162.07 126.52 161.35 127.16 161.30 128.00 Z M 161.23 129.01 L 161.16 129.91 C 161.11 130.76 161.74 131.49 162.59 131.55 C 163.43 131.60 164.16 130.97 164.22 130.12 L 164.28 129.22 C 164.34 128.38 163.70 127.64 162.86 127.59 C 162.01 127.53 161.28 128.17 161.23 129.01 Z M 161.18 129.88 L 161.09 130.92 C 161.01 131.75 161.62 132.49 162.45 132.57 C 163.29 132.65 164.03 132.03 164.11 131.20 L 164.20 130.16 C 164.28 129.32 163.67 128.58 162.83 128.51 C 162.00 128.43 161.26 129.04 161.18 129.88 Z M 161.14 130.85 L 161.01 131.77 C 160.89 132.57 161.45 133.32 162.25 133.43 C 163.06 133.55 163.80 132.99 163.92 132.19 L 164.05 131.27 C 164.16 130.47 163.61 129.72 162.80 129.61 C 162.00 129.49 161.26 130.05 161.14 130.85 Z M 161.05 131.73 L 160.88 132.65 C 160.74 133.44 161.26 134.18 162.04 134.32 C 162.83 134.46 163.57 133.94 163.71 133.16 L 163.88 132.23 C 164.02 131.45 163.50 130.71 162.71 130.57 C 161.93 130.43 161.19 130.95 161.05 131.73 Z M 160.89 132.64 L 160.70 133.65 C 160.55 134.43 161.06 135.18 161.83 135.33 C 162.61 135.47 163.36 134.97 163.51 134.19 L 163.70 133.18 C 163.85 132.40 163.34 131.65 162.57 131.50 C 161.79 131.35 161.04 131.86 160.89 132.64 Z M 160.70 133.65 L 160.62 134.05 C 160.47 134.83 160.98 135.58 161.75 135.73 C 162.53 135.88 163.27 135.37 163.43 134.60 L 163.50 134.19 C 163.65 133.42 163.15 132.67 162.38 132.52 C 161.60 132.37 160.85 132.87 160.70 133.65 Z"
      fill="black"
      fill-rule="nonzero" /><path d="M 146.56 139.89 L 147.51 140.13 C 148.36 140.34 149.22 139.82 149.43 138.97 C 149.63 138.13 149.12 137.27 148.27 137.06 L 147.31 136.83 C 146.47 136.62 145.61 137.13 145.40 137.98 C 145.19 138.83 145.71 139.69 146.56 139.89 Z M 147.64 140.17 L 148.63 140.33 C 149.50 140.47 150.32 139.88 150.46 139.01 C 150.59 138.14 150.00 137.32 149.13 137.18 L 148.14 137.02 C 147.27 136.88 146.45 137.47 146.32 138.34 C 146.18 139.21 146.77 140.03 147.64 140.17 Z M 148.80 140.36 L 149.77 140.41 C 150.66 140.45 151.41 139.77 151.46 138.89 C 151.50 138.00 150.82 137.25 149.94 137.20 L 148.96 137.15 C 148.08 137.11 147.32 137.79 147.28 138.67 C 147.23 139.56 147.91 140.31 148.80 140.36 Z M 149.85 140.41 L 150.87 140.42 C 151.76 140.42 152.48 139.70 152.49 138.82 C 152.49 137.93 151.78 137.21 150.89 137.21 L 149.86 137.20 C 148.98 137.20 148.26 137.91 148.25 138.80 C 148.25 139.68 148.96 140.41 149.85 140.41 Z M 150.89 140.42 L 151.86 140.41 C 152.74 140.41 153.46 139.69 153.45 138.80 C 153.45 137.91 152.73 137.20 151.84 137.20 L 150.87 137.21 C 149.99 137.21 149.27 137.93 149.28 138.82 C 149.28 139.70 150.00 140.42 150.89 140.42 Z M 151.88 140.41 L 152.91 140.39 C 153.80 140.37 154.50 139.63 154.48 138.75 C 154.46 137.86 153.73 137.16 152.84 137.18 L 151.81 137.20 C 150.93 137.22 150.23 137.96 150.25 138.84 C 150.27 139.73 151.00 140.43 151.88 140.41 Z M 152.95 140.38 L 153.94 140.33 C 154.82 140.29 155.50 139.54 155.46 138.66 C 155.42 137.78 154.67 137.11 153.79 137.15 L 152.80 137.19 C 151.93 137.23 151.25 137.98 151.29 138.86 C 151.33 139.74 152.07 140.42 152.95 140.38 Z M 153.96 140.31 L 154.96 140.25 C 155.83 140.20 156.49 139.46 156.44 138.59 C 156.39 137.72 155.65 137.06 154.78 137.11 L 153.78 137.17 C 152.91 137.22 152.25 137.96 152.30 138.83 C 152.35 139.70 153.09 140.36 153.96 140.31 Z M 154.95 140.23 L 155.94 140.18 C 156.80 140.14 157.46 139.41 157.41 138.55 C 157.37 137.69 156.64 137.03 155.78 137.08 L 154.79 137.13 C 153.93 137.17 153.28 137.90 153.32 138.76 C 153.36 139.62 154.10 140.28 154.95 140.23 Z M 155.92 140.17 L 156.82 140.14 C 157.67 140.11 158.34 139.39 158.31 138.54 C 158.28 137.69 157.56 137.02 156.71 137.05 L 155.81 137.09 C 154.95 137.12 154.29 137.83 154.32 138.68 C 154.35 139.54 155.07 140.20 155.92 140.17 Z M 156.81 140.13 L 157.80 140.10 C 158.65 140.08 159.32 139.37 159.30 138.53 C 159.27 137.68 158.57 137.01 157.72 137.03 L 156.72 137.06 C 155.87 137.08 155.20 137.79 155.23 138.64 C 155.25 139.49 155.96 140.16 156.81 140.13 Z M 157.80 140.10 L 158.91 140.07 C 159.76 140.05 160.43 139.35 160.40 138.50 C 160.38 137.65 159.68 136.98 158.83 137.01 L 157.72 137.04 C 156.87 137.06 156.21 137.76 156.23 138.61 C 156.25 139.45 156.95 140.12 157.80 140.10 Z M 158.91 140.06 L 159.91 140.04 C 160.75 140.01 161.42 139.31 161.39 138.47 C 161.37 137.63 160.67 136.96 159.83 136.99 L 158.83 137.01 C 157.99 137.04 157.33 137.74 157.35 138.58 C 157.37 139.42 158.07 140.09 158.91 140.06 Z M 159.91 140.03 L 160.95 140.00 C 161.79 139.98 162.45 139.28 162.43 138.45 C 162.41 137.61 161.71 136.95 160.88 136.97 L 159.83 137.00 C 158.99 137.02 158.33 137.71 158.35 138.55 C 158.38 139.39 159.07 140.05 159.91 140.03 Z M 160.95 139.99 L 161.97 139.97 C 162.80 139.95 163.46 139.26 163.45 138.43 C 163.43 137.60 162.74 136.94 161.91 136.96 L 160.88 136.98 C 160.05 137.00 159.39 137.69 159.41 138.52 C 159.43 139.35 160.12 140.01 160.95 139.99 Z M 161.96 139.96 L 162.94 139.95 C 163.77 139.93 164.43 139.25 164.41 138.43 C 164.40 137.60 163.72 136.94 162.90 136.95 L 161.92 136.97 C 161.09 136.98 160.43 137.66 160.44 138.48 C 160.45 139.31 161.13 139.97 161.96 139.96 Z M 162.91 139.93 L 164.05 139.93 C 164.87 139.93 165.53 139.27 165.53 138.45 C 165.53 137.64 164.87 136.97 164.06 136.97 L 162.92 136.97 C 162.10 136.97 161.44 137.63 161.44 138.45 C 161.43 139.26 162.10 139.93 162.91 139.93 Z M 164.02 139.91 L 164.94 139.93 C 165.75 139.95 166.41 139.31 166.43 138.50 C 166.45 137.70 165.81 137.03 165.00 137.01 L 164.08 136.99 C 163.28 136.98 162.61 137.61 162.59 138.42 C 162.58 139.22 163.22 139.89 164.02 139.91 Z M 164.93 139.91 L 165.41 139.93 C 166.20 139.95 166.87 139.33 166.89 138.53 C 166.92 137.74 166.29 137.07 165.50 137.05 L 165.02 137.03 C 164.22 137.01 163.56 137.63 163.53 138.43 C 163.51 139.22 164.13 139.89 164.93 139.91 Z"
      fill="black"
      fill-rule="nonzero" /><path d="M 147.54 147.81 L 148.48 147.68 C 149.33 147.56 149.92 146.78 149.80 145.93 C 149.68 145.09 148.89 144.50 148.05 144.62 L 147.11 144.75 C 146.26 144.87 145.67 145.65 145.79 146.50 C 145.91 147.34 146.69 147.93 147.54 147.81 Z M 148.47 147.70 L 149.46 147.57 C 150.32 147.46 150.93 146.68 150.82 145.82 C 150.71 144.96 149.92 144.36 149.06 144.47 L 148.07 144.59 C 147.21 144.70 146.60 145.49 146.71 146.35 C 146.82 147.21 147.61 147.81 148.47 147.70 Z M 149.43 147.60 L 150.43 147.49 C 151.30 147.39 151.92 146.61 151.83 145.74 C 151.74 144.87 150.96 144.24 150.09 144.34 L 149.09 144.45 C 148.22 144.54 147.59 145.32 147.69 146.19 C 147.78 147.06 148.56 147.69 149.43 147.60 Z M 150.40 147.49 L 151.36 147.41 C 152.23 147.33 152.87 146.55 152.79 145.68 C 152.71 144.81 151.94 144.16 151.07 144.24 L 150.11 144.33 C 149.24 144.41 148.59 145.19 148.68 146.06 C 148.76 146.93 149.53 147.57 150.40 147.49 Z M 151.35 147.40 L 152.37 147.32 C 153.24 147.24 153.89 146.48 153.81 145.60 C 153.74 144.73 152.97 144.09 152.10 144.16 L 151.08 144.25 C 150.21 144.32 149.56 145.09 149.64 145.96 C 149.71 146.83 150.48 147.48 151.35 147.40 Z M 152.37 147.31 L 153.43 147.22 C 154.30 147.15 154.94 146.38 154.87 145.51 C 154.79 144.65 154.03 144.00 153.16 144.08 L 152.10 144.17 C 151.23 144.24 150.59 145.00 150.67 145.87 C 150.74 146.74 151.50 147.38 152.37 147.31 Z M 153.43 147.21 L 154.46 147.12 C 155.32 147.04 155.96 146.28 155.88 145.42 C 155.81 144.56 155.05 143.92 154.18 144.00 L 153.16 144.09 C 152.29 144.16 151.66 144.92 151.73 145.79 C 151.81 146.65 152.57 147.29 153.43 147.21 Z M 154.46 147.11 L 155.47 147.02 C 156.32 146.94 156.96 146.19 156.88 145.34 C 156.81 144.48 156.05 143.85 155.20 143.92 L 154.19 144.01 C 153.33 144.08 152.70 144.84 152.77 145.69 C 152.85 146.55 153.60 147.18 154.46 147.11 Z M 155.46 147.01 L 156.41 146.93 C 157.26 146.86 157.89 146.11 157.82 145.27 C 157.76 144.42 157.01 143.79 156.16 143.86 L 155.21 143.93 C 154.36 144.00 153.73 144.75 153.80 145.60 C 153.87 146.44 154.61 147.08 155.46 147.01 Z M 156.40 146.91 L 157.42 146.84 C 158.26 146.78 158.89 146.05 158.83 145.21 C 158.77 144.37 158.04 143.74 157.20 143.80 L 156.18 143.87 C 155.34 143.93 154.71 144.66 154.77 145.50 C 154.83 146.34 155.56 146.97 156.40 146.91 Z M 157.41 146.81 L 158.38 146.75 C 159.21 146.69 159.83 145.97 159.78 145.15 C 159.72 144.32 159.00 143.70 158.18 143.75 L 157.20 143.82 C 156.38 143.88 155.75 144.60 155.81 145.42 C 155.87 146.25 156.59 146.87 157.41 146.81 Z M 158.40 146.72 L 159.38 146.64 C 160.20 146.57 160.80 145.86 160.73 145.05 C 160.67 144.24 159.95 143.63 159.14 143.70 L 158.16 143.78 C 157.35 143.84 156.74 144.56 156.81 145.37 C 156.87 146.18 157.59 146.79 158.40 146.72 Z M 159.41 146.62 L 160.36 146.53 C 161.16 146.45 161.74 145.73 161.66 144.93 C 161.58 144.12 160.86 143.54 160.06 143.62 L 159.11 143.72 C 158.31 143.80 157.73 144.51 157.81 145.32 C 157.89 146.12 158.61 146.70 159.41 146.62 Z M 160.37 146.52 L 161.38 146.40 C 162.17 146.31 162.75 145.59 162.66 144.80 C 162.56 144.00 161.85 143.43 161.05 143.52 L 160.05 143.63 C 159.25 143.72 158.67 144.44 158.77 145.24 C 158.86 146.03 159.58 146.61 160.37 146.52 Z M 161.38 146.39 L 162.42 146.27 C 163.21 146.18 163.77 145.46 163.68 144.67 C 163.58 143.87 162.87 143.31 162.07 143.40 L 161.04 143.53 C 160.25 143.62 159.68 144.34 159.78 145.13 C 159.87 145.92 160.59 146.49 161.38 146.39 Z M 162.42 146.27 L 162.52 146.25 C 163.31 146.16 163.87 145.44 163.78 144.65 C 163.68 143.86 162.97 143.30 162.18 143.39 L 162.07 143.41 C 161.28 143.50 160.72 144.22 160.82 145.01 C 160.91 145.80 161.63 146.36 162.42 146.27 Z"
      fill="black"
      fill-rule="nonzero" /><path d="M 155.38 137.43 L 154.99 138.26 C 154.63 139.01 154.95 139.92 155.71 140.28 C 156.46 140.65 157.37 140.33 157.74 139.57 L 158.13 138.75 C 158.49 137.99 158.17 137.08 157.41 136.72 C 156.66 136.35 155.75 136.68 155.38 137.43 Z M 154.95 138.27 L 154.50 139.24 C 154.15 140.02 154.49 140.95 155.27 141.30 C 156.06 141.66 156.98 141.31 157.34 140.53 L 157.78 139.56 C 158.14 138.77 157.79 137.85 157.01 137.50 C 156.23 137.14 155.30 137.49 154.95 138.27 Z M 154.47 139.26 L 154.10 140.14 C 153.75 140.93 154.12 141.86 154.92 142.21 C 155.72 142.55 156.65 142.18 156.99 141.38 L 157.37 140.51 C 157.71 139.71 157.34 138.78 156.54 138.44 C 155.74 138.10 154.82 138.46 154.47 139.26 Z M 154.08 140.15 L 153.70 141.10 C 153.36 141.90 153.74 142.83 154.55 143.16 C 155.36 143.49 156.28 143.11 156.61 142.30 L 157.00 141.36 C 157.34 140.56 156.95 139.63 156.15 139.30 C 155.34 138.97 154.42 139.35 154.08 140.15 Z M 153.69 141.11 L 153.30 142.09 C 152.97 142.90 153.37 143.82 154.18 144.14 C 154.99 144.47 155.91 144.07 156.24 143.26 L 156.62 142.29 C 156.95 141.47 156.55 140.55 155.74 140.23 C 154.93 139.91 154.01 140.30 153.69 141.11 Z M 153.29 142.11 L 152.90 143.12 C 152.59 143.94 153.00 144.85 153.81 145.17 C 154.63 145.48 155.54 145.07 155.86 144.25 L 156.25 143.24 C 156.56 142.42 156.15 141.51 155.33 141.19 C 154.52 140.88 153.60 141.29 153.29 142.11 Z M 152.89 143.14 L 152.54 144.08 C 152.24 144.90 152.66 145.81 153.48 146.12 C 154.30 146.42 155.21 146.00 155.52 145.18 L 155.87 144.24 C 156.17 143.42 155.75 142.50 154.93 142.20 C 154.11 141.90 153.20 142.31 152.89 143.14 Z M 152.54 144.08 L 152.21 144.97 C 151.91 145.79 152.33 146.71 153.16 147.01 C 153.98 147.31 154.89 146.89 155.20 146.06 L 155.52 145.18 C 155.82 144.35 155.40 143.44 154.58 143.14 C 153.75 142.83 152.84 143.26 152.54 144.08 Z M 152.21 144.96 L 151.86 145.93 C 151.55 146.75 151.97 147.66 152.79 147.97 C 153.62 148.27 154.53 147.85 154.84 147.03 L 155.19 146.07 C 155.50 145.25 155.08 144.33 154.26 144.03 C 153.43 143.72 152.52 144.14 152.21 144.96 Z M 151.87 145.91 L 151.53 146.78 C 151.22 147.60 151.63 148.51 152.44 148.83 C 153.26 149.14 154.18 148.73 154.49 147.92 L 154.83 147.05 C 155.14 146.23 154.73 145.31 153.92 145.00 C 153.10 144.68 152.18 145.09 151.87 145.91 Z M 151.54 146.77 L 151.18 147.70 C 150.86 148.51 151.26 149.42 152.07 149.74 C 152.88 150.06 153.80 149.66 154.12 148.85 L 154.48 147.93 C 154.80 147.11 154.40 146.20 153.59 145.88 C 152.78 145.56 151.86 145.96 151.54 146.77 Z M 151.18 147.72 L 150.82 148.67 C 150.52 149.48 150.93 150.39 151.74 150.69 C 152.55 151.00 153.46 150.59 153.76 149.77 L 154.12 148.83 C 154.42 148.01 154.01 147.11 153.20 146.80 C 152.39 146.50 151.48 146.91 151.18 147.72 Z M 150.82 148.69 L 150.49 149.64 C 150.19 150.45 150.62 151.34 151.43 151.64 C 152.24 151.93 153.13 151.50 153.42 150.69 L 153.76 149.75 C 154.05 148.94 153.63 148.04 152.82 147.75 C 152.01 147.46 151.12 147.88 150.82 148.69 Z M 150.49 149.65 L 150.15 150.60 C 149.86 151.41 150.28 152.30 151.09 152.58 C 151.90 152.87 152.78 152.45 153.07 151.65 L 153.41 150.69 C 153.70 149.88 153.28 149.00 152.47 148.71 C 151.67 148.42 150.78 148.84 150.49 149.65 Z M 150.16 150.59 L 149.82 151.52 C 149.53 152.32 149.94 153.21 150.74 153.50 C 151.54 153.79 152.43 153.38 152.72 152.58 L 153.06 151.65 C 153.35 150.86 152.94 149.97 152.14 149.68 C 151.34 149.38 150.46 149.79 150.16 150.59 Z M 149.84 151.50 L 149.52 152.32 C 149.22 153.12 149.62 154.00 150.41 154.31 C 151.20 154.61 152.09 154.21 152.39 153.42 L 152.71 152.60 C 153.01 151.81 152.61 150.92 151.82 150.62 C 151.03 150.31 150.14 150.71 149.84 151.50 Z M 149.54 152.30 L 149.14 153.28 C 148.82 154.06 149.20 154.96 149.98 155.27 C 150.77 155.59 151.66 155.21 151.98 154.43 L 152.38 153.45 C 152.69 152.66 152.32 151.77 151.53 151.45 C 150.75 151.14 149.86 151.51 149.54 152.30 Z M 149.15 153.26 L 148.76 154.20 C 148.43 154.97 148.79 155.87 149.57 156.20 C 150.35 156.52 151.24 156.16 151.57 155.38 L 151.97 154.45 C 152.29 153.67 151.93 152.78 151.15 152.45 C 150.38 152.12 149.48 152.48 149.15 153.26 Z M 148.77 154.19 L 148.35 155.15 C 148.02 155.92 148.37 156.82 149.15 157.15 C 149.92 157.48 150.82 157.13 151.15 156.35 L 151.56 155.39 C 151.90 154.62 151.54 153.72 150.77 153.39 C 149.99 153.06 149.10 153.42 148.77 154.19 Z M 148.36 155.14 L 147.95 156.07 C 147.62 156.84 147.97 157.74 148.74 158.07 C 149.51 158.41 150.40 158.06 150.74 157.29 L 151.14 156.36 C 151.48 155.59 151.13 154.69 150.36 154.36 C 149.59 154.02 148.69 154.37 148.36 155.14 Z M 147.96 156.07 L 147.51 157.08 C 147.18 157.84 147.52 158.74 148.28 159.07 C 149.05 159.41 149.94 159.07 150.28 158.31 L 150.73 157.29 C 151.06 156.53 150.72 155.64 149.96 155.30 C 149.20 154.96 148.30 155.30 147.96 156.07 Z M 147.54 157.08 L 147.15 157.92 C 146.81 158.67 147.15 159.56 147.90 159.90 C 148.65 160.24 149.53 159.90 149.87 159.15 L 150.25 158.31 C 150.59 157.56 150.26 156.67 149.51 156.33 C 148.76 155.99 147.88 156.33 147.54 157.08 Z M 147.17 157.92 L 147.04 158.20 C 146.70 158.94 147.03 159.82 147.77 160.16 C 148.51 160.50 149.39 160.17 149.73 159.43 L 149.85 159.15 C 150.19 158.41 149.87 157.54 149.13 157.20 C 148.39 156.86 147.51 157.18 147.17 157.92 Z"
      fill="black"
      fill-rule="nonzero" /><path d="M 153.92 151.61 L 154.93 151.65 C 155.80 151.68 156.53 151.00 156.56 150.14 C 156.59 149.27 155.91 148.55 155.05 148.51 L 154.03 148.48 C 153.17 148.45 152.44 149.12 152.41 149.99 C 152.38 150.86 153.06 151.58 153.92 151.61 Z M 154.87 151.64 L 155.84 151.71 C 156.70 151.78 157.45 151.14 157.52 150.28 C 157.59 149.43 156.95 148.67 156.09 148.60 L 155.11 148.53 C 154.26 148.46 153.50 149.10 153.43 149.96 C 153.37 150.82 154.01 151.57 154.87 151.64 Z M 155.72 151.70 L 156.64 151.84 C 157.48 151.97 158.28 151.39 158.41 150.54 C 158.54 149.69 157.96 148.89 157.11 148.76 L 156.20 148.62 C 155.35 148.49 154.56 149.07 154.43 149.92 C 154.29 150.77 154.88 151.56 155.72 151.70 Z M 156.58 151.83 L 157.63 152.03 C 158.47 152.20 159.29 151.65 159.45 150.80 C 159.62 149.96 159.07 149.15 158.23 148.98 L 157.17 148.77 C 156.33 148.61 155.51 149.16 155.35 150.00 C 155.18 150.84 155.73 151.66 156.58 151.83 Z M 157.62 152.03 L 158.51 152.21 C 159.35 152.38 160.17 151.83 160.34 150.99 C 160.51 150.15 159.96 149.33 159.12 149.16 L 158.24 148.99 C 157.40 148.82 156.58 149.36 156.41 150.20 C 156.24 151.04 156.78 151.86 157.62 152.03 Z M 158.50 152.20 L 159.50 152.41 C 160.34 152.58 161.16 152.05 161.33 151.21 C 161.50 150.37 160.97 149.55 160.13 149.38 L 159.13 149.17 C 158.30 149.00 157.48 149.53 157.30 150.37 C 157.13 151.21 157.66 152.03 158.50 152.20 Z M 159.48 152.40 L 160.55 152.64 C 161.38 152.82 162.20 152.29 162.39 151.46 C 162.57 150.63 162.04 149.80 161.21 149.62 L 160.15 149.39 C 159.31 149.20 158.49 149.73 158.31 150.56 C 158.12 151.40 158.65 152.22 159.48 152.40 Z M 160.53 152.63 L 161.57 152.87 C 162.40 153.06 163.22 152.55 163.42 151.72 C 163.61 150.90 163.10 150.07 162.27 149.88 L 161.23 149.63 C 160.40 149.44 159.58 149.95 159.38 150.78 C 159.19 151.60 159.70 152.43 160.53 152.63 Z M 161.55 152.86 L 162.55 153.11 C 163.37 153.31 164.20 152.81 164.41 151.99 C 164.61 151.17 164.11 150.34 163.29 150.14 L 162.29 149.89 C 161.47 149.68 160.64 150.18 160.44 151.00 C 160.23 151.82 160.73 152.65 161.55 152.86 Z M 162.53 153.10 L 163.43 153.33 C 164.25 153.54 165.08 153.06 165.29 152.24 C 165.51 151.43 165.02 150.60 164.21 150.38 L 163.31 150.15 C 162.49 149.93 161.66 150.42 161.45 151.23 C 161.23 152.05 161.72 152.88 162.53 153.10 Z M 163.36 153.32 L 164.49 153.67 C 165.29 153.92 166.15 153.47 166.40 152.67 C 166.66 151.86 166.21 151.00 165.40 150.75 L 164.28 150.40 C 163.47 150.15 162.61 150.59 162.36 151.40 C 162.11 152.21 162.56 153.06 163.36 153.32 Z M 163.85 153.30 L 164.36 153.81 C 164.96 154.41 165.94 154.41 166.54 153.81 C 167.15 153.20 167.15 152.22 166.54 151.62 L 166.04 151.11 C 165.43 150.51 164.45 150.51 163.85 151.12 C 163.25 151.72 163.25 152.70 163.85 153.30 Z M 164.00 152.14 L 163.66 152.97 C 163.34 153.77 163.73 154.68 164.54 155.00 C 165.34 155.32 166.25 154.93 166.57 154.13 L 166.90 153.29 C 167.22 152.49 166.83 151.58 166.03 151.26 C 165.23 150.94 164.32 151.33 164.00 152.14 Z M 163.88 152.57 L 163.20 153.43 C 162.66 154.11 162.78 155.10 163.46 155.64 C 164.14 156.18 165.13 156.07 165.67 155.39 L 166.35 154.53 C 166.89 153.85 166.78 152.86 166.09 152.32 C 165.41 151.78 164.42 151.89 163.88 152.57 Z M 163.25 153.35 L 162.59 154.09 C 162.01 154.74 162.06 155.75 162.72 156.33 C 163.37 156.91 164.37 156.86 164.96 156.21 L 165.62 155.47 C 166.20 154.81 166.15 153.81 165.49 153.23 C 164.84 152.64 163.84 152.70 163.25 153.35 Z M 162.58 154.09 L 161.92 154.84 C 161.34 155.50 161.40 156.51 162.06 157.09 C 162.72 157.67 163.73 157.61 164.31 156.95 L 164.97 156.20 C 165.55 155.54 165.49 154.54 164.83 153.95 C 164.17 153.37 163.16 153.43 162.58 154.09 Z M 161.90 154.86 L 161.25 155.63 C 160.67 156.30 160.75 157.30 161.42 157.88 C 162.09 158.45 163.10 158.37 163.67 157.70 L 164.33 156.93 C 164.90 156.26 164.82 155.26 164.15 154.68 C 163.48 154.11 162.47 154.19 161.90 154.86 Z M 161.26 155.62 L 160.60 156.37 C 160.02 157.04 160.09 158.04 160.75 158.62 C 161.42 159.20 162.42 159.13 163.00 158.47 L 163.66 157.71 C 164.24 157.05 164.17 156.04 163.51 155.46 C 162.84 154.88 161.84 154.95 161.26 155.62 Z M 160.62 156.35 L 159.95 157.09 C 159.36 157.74 159.41 158.75 160.06 159.34 C 160.71 159.93 161.72 159.88 162.31 159.23 L 162.98 158.49 C 163.57 157.84 163.52 156.83 162.87 156.24 C 162.22 155.65 161.21 155.70 160.62 156.35 Z M 159.96 157.07 L 159.33 157.75 C 158.73 158.40 158.77 159.41 159.41 160.01 C 160.06 160.61 161.07 160.57 161.67 159.92 L 162.30 159.24 C 162.90 158.60 162.86 157.59 162.22 156.99 C 161.57 156.39 160.56 156.42 159.96 157.07 Z M 159.32 157.76 L 158.66 158.48 C 158.06 159.13 158.11 160.14 158.76 160.74 C 159.40 161.33 160.41 161.29 161.01 160.64 L 161.68 159.92 C 162.27 159.27 162.23 158.26 161.58 157.66 C 160.93 157.07 159.92 157.11 159.32 157.76 Z M 158.64 158.50 L 157.94 159.30 C 157.35 159.96 157.41 160.97 158.07 161.55 C 158.73 162.14 159.74 162.08 160.33 161.42 L 161.03 160.62 C 161.61 159.96 161.55 158.95 160.89 158.37 C 160.23 157.78 159.22 157.84 158.64 158.50 Z M 157.92 159.32 L 157.26 160.08 C 156.69 160.75 156.77 161.76 157.43 162.33 C 158.10 162.91 159.11 162.83 159.69 162.16 L 160.34 161.40 C 160.92 160.73 160.84 159.72 160.17 159.15 C 159.50 158.57 158.49 158.65 157.92 159.32 Z M 157.25 160.09 L 156.59 160.88 C 156.02 161.56 156.11 162.56 156.78 163.13 C 157.46 163.70 158.47 163.61 159.03 162.94 L 159.70 162.15 C 160.26 161.47 160.18 160.47 159.50 159.90 C 158.83 159.33 157.82 159.42 157.25 160.09 Z M 156.58 160.90 L 155.93 161.68 C 155.38 162.36 155.47 163.37 156.15 163.93 C 156.84 164.49 157.84 164.39 158.40 163.71 L 159.04 162.92 C 159.60 162.24 159.50 161.24 158.82 160.68 C 158.14 160.12 157.14 160.22 156.58 160.90 Z M 155.93 161.70 L 155.30 162.47 C 154.75 163.16 154.86 164.16 155.55 164.71 C 156.23 165.26 157.24 165.15 157.79 164.47 L 158.41 163.69 C 158.96 163.01 158.85 162.00 158.16 161.45 C 157.48 160.90 156.48 161.01 155.93 161.70 Z M 155.31 162.48 L 154.70 163.24 C 154.15 163.92 154.26 164.92 154.94 165.47 C 155.63 166.02 156.63 165.91 157.17 165.22 L 157.78 164.46 C 158.33 163.78 158.22 162.78 157.54 162.23 C 156.85 161.68 155.85 161.79 155.31 162.48 Z M 154.71 163.23 L 154.08 164.00 C 153.53 164.68 153.63 165.67 154.31 166.22 C 154.99 166.78 155.99 166.67 156.54 166.00 L 157.16 165.23 C 157.71 164.55 157.61 163.56 156.93 163.00 C 156.26 162.45 155.26 162.55 154.71 163.23 Z M 154.10 163.98 L 153.45 164.76 C 152.89 165.43 152.97 166.43 153.64 166.99 C 154.31 167.55 155.30 167.46 155.86 166.79 L 156.52 166.01 C 157.08 165.34 156.99 164.35 156.32 163.79 C 155.66 163.23 154.66 163.32 154.10 163.98 Z M 153.47 164.74 L 152.81 165.49 C 152.24 166.15 152.31 167.14 152.96 167.71 C 153.62 168.28 154.61 168.22 155.18 167.57 L 155.84 166.82 C 156.41 166.16 156.35 165.17 155.69 164.60 C 155.04 164.02 154.04 164.09 153.47 164.74 Z M 152.88 165.43 L 152.00 166.32 C 151.40 166.93 151.40 167.92 152.02 168.53 C 152.63 169.14 153.62 169.14 154.23 168.52 L 155.11 167.63 C 155.72 167.02 155.72 166.02 155.10 165.42 C 154.49 164.81 153.49 164.81 152.88 165.43 Z M 152.56 165.96 L 151.97 166.19 C 151.17 166.49 150.77 167.39 151.07 168.20 C 151.38 169.00 152.28 169.40 153.08 169.10 L 153.67 168.87 C 154.47 168.57 154.88 167.67 154.57 166.87 C 154.27 166.06 153.37 165.66 152.56 165.96 Z M 154.01 167.34 L 153.85 166.54 C 153.68 165.73 152.89 165.20 152.07 165.36 C 151.25 165.53 150.72 166.32 150.88 167.14 L 151.04 167.94 C 151.21 168.76 152.01 169.29 152.83 169.13 C 153.65 168.96 154.18 168.16 154.01 167.34 Z M 153.82 166.91 L 153.85 166.08 C 153.89 165.28 153.27 164.60 152.47 164.56 C 151.66 164.53 150.99 165.15 150.95 165.95 L 150.91 166.78 C 150.88 167.58 151.50 168.26 152.30 168.30 C 153.11 168.33 153.78 167.71 153.82 166.91 Z"
      fill="black"
      fill-rule="nonzero" /><path d="M 151.05 154.81 L 151.63 155.56 C 152.15 156.23 153.12 156.35 153.79 155.82 C 154.46 155.30 154.58 154.33 154.06 153.66 L 153.48 152.92 C 152.96 152.24 151.99 152.12 151.32 152.65 C 150.65 153.17 150.53 154.14 151.05 154.81 Z M 151.59 155.60 L 152.24 156.42 C 152.79 157.11 153.79 157.23 154.48 156.68 C 155.18 156.13 155.29 155.13 154.75 154.44 L 154.10 153.62 C 153.55 152.93 152.55 152.81 151.86 153.36 C 151.16 153.90 151.05 154.91 151.59 155.60 Z M 152.22 156.45 L 152.84 157.21 C 153.40 157.91 154.43 158.02 155.13 157.46 C 155.83 156.89 155.94 155.87 155.38 155.17 L 154.76 154.41 C 154.20 153.70 153.17 153.59 152.47 154.16 C 151.77 154.72 151.66 155.75 152.22 156.45 Z M 152.85 157.23 L 153.50 158.02 C 154.08 158.71 155.10 158.81 155.80 158.24 C 156.49 157.66 156.59 156.63 156.02 155.94 L 155.37 155.15 C 154.79 154.46 153.76 154.36 153.07 154.93 C 152.37 155.51 152.28 156.54 152.85 157.23 Z M 153.52 158.04 L 154.19 158.82 C 154.78 159.50 155.81 159.58 156.49 158.99 C 157.18 158.41 157.25 157.38 156.67 156.69 L 156.00 155.91 C 155.41 155.23 154.38 155.15 153.70 155.74 C 153.01 156.33 152.93 157.36 153.52 158.04 Z M 154.22 158.85 L 154.90 159.60 C 155.50 160.27 156.54 160.32 157.20 159.72 C 157.87 159.11 157.92 158.08 157.32 157.41 L 156.64 156.66 C 156.03 155.99 155.00 155.94 154.33 156.55 C 153.66 157.15 153.61 158.18 154.22 158.85 Z M 154.93 159.64 L 155.60 160.34 C 156.22 160.99 157.26 161.02 157.91 160.39 C 158.56 159.77 158.58 158.73 157.96 158.08 L 157.29 157.38 C 156.67 156.73 155.63 156.70 154.98 157.33 C 154.33 157.95 154.30 158.98 154.93 159.64 Z M 155.63 160.37 L 156.35 161.08 C 156.99 161.72 158.02 161.71 158.65 161.08 C 159.29 160.44 159.29 159.41 158.65 158.77 L 157.93 158.06 C 157.29 157.42 156.26 157.42 155.62 158.06 C 154.99 158.70 154.99 159.73 155.63 160.37 Z M 156.39 161.10 L 157.11 161.78 C 157.75 162.40 158.78 162.37 159.39 161.73 C 160.01 161.08 159.98 160.05 159.33 159.44 L 158.61 158.75 C 157.97 158.14 156.94 158.17 156.33 158.81 C 155.71 159.46 155.74 160.48 156.39 161.10 Z M 157.14 161.80 L 157.89 162.48 C 158.55 163.08 159.56 163.03 160.16 162.37 C 160.76 161.71 160.71 160.70 160.05 160.10 L 159.30 159.42 C 158.64 158.83 157.63 158.88 157.03 159.53 C 156.43 160.19 156.48 161.20 157.14 161.80 Z M 157.93 162.50 L 158.68 163.15 C 159.34 163.72 160.35 163.65 160.93 162.98 C 161.50 162.31 161.43 161.31 160.76 160.73 L 160.01 160.08 C 159.35 159.51 158.34 159.58 157.76 160.25 C 157.19 160.92 157.26 161.92 157.93 162.50 Z M 158.71 163.17 L 159.47 163.79 C 160.15 164.34 161.15 164.24 161.70 163.57 C 162.26 162.89 162.16 161.89 161.48 161.33 L 160.73 160.71 C 160.05 160.16 159.05 160.25 158.49 160.93 C 157.94 161.61 158.04 162.61 158.71 163.17 Z M 159.49 163.79 L 160.27 164.42 C 160.95 164.96 161.94 164.85 162.49 164.17 C 163.03 163.49 162.92 162.50 162.24 161.95 L 161.47 161.33 C 160.79 160.78 159.79 160.89 159.24 161.57 C 158.70 162.25 158.81 163.25 159.49 163.79 Z M 160.25 164.40 L 161.02 165.03 C 161.69 165.58 162.68 165.49 163.23 164.82 C 163.79 164.15 163.69 163.16 163.02 162.61 L 162.26 161.97 C 161.59 161.42 160.60 161.51 160.04 162.18 C 159.49 162.85 159.58 163.84 160.25 164.40 Z M 160.97 164.98 L 161.71 165.65 C 162.35 166.24 163.34 166.19 163.92 165.55 C 164.51 164.91 164.46 163.92 163.82 163.34 L 163.07 162.66 C 162.43 162.08 161.45 162.13 160.86 162.77 C 160.28 163.40 160.33 164.39 160.97 164.98 Z M 161.62 165.55 L 162.31 166.30 C 162.89 166.93 163.87 166.97 164.51 166.39 C 165.14 165.81 165.18 164.82 164.60 164.19 L 163.91 163.45 C 163.33 162.82 162.35 162.77 161.72 163.36 C 161.08 163.94 161.04 164.92 161.62 165.55 Z M 162.20 166.13 L 162.77 166.94 C 163.26 167.64 164.22 167.80 164.91 167.31 C 165.60 166.83 165.77 165.87 165.28 165.17 L 164.71 164.36 C 164.22 163.67 163.26 163.50 162.57 163.99 C 161.88 164.48 161.71 165.43 162.20 166.13 Z M 162.66 166.71 L 163.09 167.60 C 163.45 168.36 164.35 168.68 165.11 168.32 C 165.86 167.96 166.18 167.05 165.82 166.30 L 165.39 165.41 C 165.03 164.65 164.13 164.33 163.37 164.69 C 162.62 165.05 162.30 165.96 162.66 166.71 Z M 163.04 167.41 L 163.35 168.36 C 163.60 169.14 164.44 169.57 165.22 169.32 C 166.00 169.06 166.43 168.22 166.18 167.44 L 165.87 166.49 C 165.61 165.71 164.78 165.28 163.99 165.54 C 163.21 165.79 162.79 166.63 163.04 167.41 Z M 163.35 168.30 L 163.45 168.66 C 163.67 169.44 164.48 169.90 165.26 169.68 C 166.04 169.46 166.50 168.65 166.28 167.87 L 166.17 167.50 C 165.95 166.72 165.14 166.27 164.36 166.49 C 163.58 166.71 163.13 167.52 163.35 168.30 Z"
      fill="black"
      fill-rule="nonzero" /></svg>