<svg xmlns="http://www.w3.org/2000/svg" width="300" height="300" viewBox="0 0 300 300">
<path d="M 129.54 140.31 L 130.46 140.68 C 131.25 141.00 132.14 140.63 132.46 139.84 C 132.79 139.05 132.41 138.15 131.62 137.83 L 130.70 137.46 C 129.91 137.14 129.01 137.51 128.69 138.30 C 128.37 139.09 128.75 139.99 129.54 140.31 Z M 130.78 140.78 L 131.70 140.94 C 132.54 141.08 133.34 140.52 133.49 139.68 C 133.63 138.83 133.06 138.03 132.22 137.89 L 131.30 137.73 C 130.46 137.59 129.66 138.16 129.52 139.00 C 129.37 139.84 129.94 140.64 130.78 140.78 Z M 132.12 140.96 L 132.97 140.87 C 133.82 140.78 134.44 140.02 134.35 139.17 C 134.26 138.32 133.50 137.70 132.65 137.79 L 131.81 137.87 C 130.95 137.96 130.33 138.72 130.42 139.57 C 130.51 140.42 131.27 141.04 132.12 140.96 Z M 133.14 140.84 L 134.27 140.59 C 135.10 140.40 135.63 139.58 135.44 138.74 C 135.26 137.91 134.43 137.38 133.59 137.57 L 132.47 137.82 C 131.64 138.00 131.11 138.83 131.30 139.67 C 131.48 140.50 132.31 141.02 133.14 140.84 Z M 134.30 140.58 L 135.27 140.34 C 136.10 140.14 136.60 139.30 136.40 138.47 C 136.19 137.64 135.35 137.13 134.53 137.34 L 133.56 137.58 C 132.73 137.78 132.23 138.62 132.43 139.45 C 132.64 140.28 133.47 140.78 134.30 140.58 Z M 135.27 140.34 L 136.26 140.09 C 137.09 139.88 137.59 139.04 137.38 138.21 C 137.18 137.39 136.34 136.89 135.51 137.09 L 134.52 137.34 C 133.69 137.55 133.19 138.39 133.40 139.22 C 133.61 140.04 134.45 140.55 135.27 140.34 Z M 136.27 140.09 L 137.29 139.83 C 138.11 139.62 138.61 138.78 138.40 137.95 C 138.19 137.13 137.35 136.63 136.53 136.84 L 135.51 137.10 C 134.68 137.31 134.18 138.15 134.39 138.97 C 134.60 139.80 135.44 140.30 136.27 140.09 Z M 137.29 139.82 L 138.26 139.58 C 139.08 139.36 139.58 138.52 139.37 137.70 C 139.15 136.88 138.32 136.38 137.49 136.59 L 136.52 136.84 C 135.70 137.05 135.20 137.89 135.41 138.71 C 135.63 139.54 136.46 140.04 137.29 139.82 Z M 138.26 139.57 L 139.37 139.28 C 140.18 139.07 140.68 138.23 140.46 137.41 C 140.25 136.59 139.42 136.10 138.60 136.31 L 137.49 136.60 C 136.67 136.81 136.18 137.65 136.39 138.47 C 136.60 139.29 137.44 139.78 138.26 139.57 Z M 139.36 139.26 L 140.32 139.01 C 141.13 138.80 141.62 137.97 141.41 137.16 C 141.20 136.35 140.37 135.87 139.56 136.08 L 138.60 136.33 C 137.79 136.54 137.30 137.37 137.51 138.18 C 137.72 138.99 138.55 139.48 139.36 139.26 Z M 140.32 139.00 L 141.15 138.78 C 141.96 138.57 142.44 137.75 142.23 136.95 C 142.02 136.15 141.20 135.67 140.40 135.88 L 139.56 136.09 C 138.76 136.30 138.28 137.12 138.49 137.92 C 138.69 138.73 139.51 139.21 140.32 139.00 Z M 141.14 138.77 L 142.10 138.52 C 142.90 138.32 143.38 137.51 143.17 136.72 C 142.97 135.92 142.16 135.44 141.37 135.64 L 140.41 135.89 C 139.61 136.09 139.13 136.90 139.33 137.70 C 139.54 138.49 140.35 138.97 141.14 138.77 Z M 142.10 138.51 L 143.06 138.26 C 143.85 138.06 144.32 137.26 144.12 136.47 C 143.92 135.68 143.12 135.21 142.33 135.41 L 141.37 135.66 C 140.58 135.86 140.10 136.66 140.31 137.45 C 140.51 138.24 141.31 138.71 142.10 138.51 Z M 143.07 138.25 L 144.06 137.98 C 144.84 137.77 145.31 136.97 145.10 136.19 C 144.89 135.41 144.09 134.95 143.31 135.16 L 142.32 135.43 C 141.54 135.63 141.08 136.44 141.28 137.21 C 141.49 137.99 142.29 138.46 143.07 138.25 Z M 144.08 137.97 L 145.07 137.69 C 145.84 137.47 146.29 136.66 146.07 135.89 C 145.85 135.12 145.05 134.68 144.28 134.90 L 143.29 135.18 C 142.52 135.40 142.07 136.20 142.29 136.97 C 142.51 137.74 143.31 138.19 144.08 137.97 Z M 145.10 137.67 L 146.05 137.37 C 146.81 137.14 147.23 136.33 147.00 135.57 C 146.76 134.81 145.95 134.38 145.19 134.62 L 144.25 134.91 C 143.49 135.15 143.06 135.96 143.30 136.72 C 143.53 137.48 144.34 137.90 145.10 137.67 Z M 146.10 137.35 L 147.07 137.00 C 147.81 136.74 148.20 135.92 147.93 135.17 C 147.67 134.42 146.85 134.04 146.10 134.30 L 145.14 134.65 C 144.39 134.91 144.00 135.73 144.27 136.48 C 144.54 137.23 145.36 137.61 146.10 137.35 Z M 147.10 136.98 L 147.64 136.77 C 148.37 136.49 148.74 135.66 148.45 134.93 C 148.17 134.19 147.34 133.83 146.61 134.11 L 146.07 134.32 C 145.33 134.61 144.97 135.43 145.25 136.17 C 145.54 136.90 146.37 137.27 147.10 136.98 Z"
      fill="black"
      fill-rule="nonzero" /><path d="M 139.94 132.40 L 139.76 133.37 C 139.61 134.17 140.15 134.94 140.95 135.09 C 141.75 135.24 142.53 134.70 142.67 133.90 L 142.85 132.94 C 142.99 132.13 142.46 131.36 141.66 131.21 C 140.85 131.07 140.08 131.60 139.94 132.40 Z M 139.70 133.59 L 139.67 134.56 C 139.65 135.40 140.30 136.10 141.14 136.12 C 141.98 136.15 142.68 135.49 142.70 134.65 L 142.73 133.68 C 142.76 132.84 142.10 132.14 141.26 132.12 C 140.42 132.09 139.73 132.75 139.70 133.59 Z M 139.67 134.79 L 139.78 135.76 C 139.88 136.60 140.64 137.20 141.48 137.10 C 142.32 137.00 142.92 136.24 142.82 135.40 L 142.71 134.43 C 142.61 133.59 141.85 132.99 141.01 133.09 C 140.17 133.19 139.57 133.95 139.67 134.79 Z M 139.79 135.83 L 139.95 136.83 C 140.08 137.67 140.87 138.24 141.71 138.10 C 142.54 137.97 143.11 137.18 142.98 136.35 L 142.82 135.34 C 142.68 134.51 141.90 133.94 141.06 134.07 C 140.22 134.20 139.66 134.99 139.79 135.83 Z M 139.95 136.82 L 140.09 137.78 C 140.22 138.62 141.00 139.19 141.84 139.06 C 142.68 138.94 143.25 138.15 143.12 137.32 L 142.98 136.36 C 142.85 135.52 142.07 134.95 141.23 135.07 C 140.40 135.20 139.82 135.98 139.95 136.82 Z M 140.09 137.75 L 140.23 138.80 C 140.34 139.64 141.11 140.23 141.95 140.11 C 142.79 140.00 143.38 139.23 143.27 138.39 L 143.13 137.35 C 143.02 136.51 142.25 135.92 141.41 136.03 C 140.57 136.14 139.98 136.91 140.09 137.75 Z M 140.22 138.76 L 140.34 139.80 C 140.43 140.65 141.19 141.25 142.03 141.16 C 142.87 141.07 143.48 140.31 143.39 139.47 L 143.27 138.43 C 143.18 137.58 142.42 136.98 141.58 137.07 C 140.74 137.16 140.13 137.92 140.22 138.76 Z M 140.33 139.78 L 140.43 140.80 C 140.51 141.65 141.26 142.27 142.10 142.19 C 142.94 142.11 143.56 141.36 143.48 140.52 L 143.39 139.49 C 143.31 138.65 142.56 138.03 141.72 138.11 C 140.88 138.19 140.26 138.93 140.33 139.78 Z M 140.43 140.79 L 140.51 141.73 C 140.58 142.58 141.32 143.21 142.16 143.13 C 143.01 143.06 143.63 142.32 143.56 141.48 L 143.49 140.53 C 143.42 139.69 142.67 139.06 141.83 139.13 C 140.99 139.20 140.36 139.94 140.43 140.79 Z M 140.51 141.72 L 140.59 142.79 C 140.65 143.63 141.39 144.27 142.23 144.20 C 143.08 144.14 143.71 143.40 143.65 142.56 L 143.57 141.49 C 143.50 140.65 142.76 140.01 141.92 140.08 C 141.08 140.14 140.44 140.88 140.51 141.72 Z M 140.59 142.77 L 140.65 143.69 C 140.70 144.53 141.43 145.17 142.27 145.12 C 143.12 145.07 143.76 144.34 143.70 143.49 L 143.65 142.58 C 143.59 141.73 142.86 141.09 142.02 141.14 C 141.18 141.20 140.53 141.93 140.59 142.77 Z M 140.65 143.66 L 140.69 144.65 C 140.73 145.50 141.45 146.15 142.30 146.11 C 143.14 146.07 143.79 145.35 143.75 144.50 L 143.71 143.52 C 143.66 142.67 142.95 142.02 142.10 142.06 C 141.26 142.10 140.60 142.82 140.65 143.66 Z M 140.69 144.64 L 140.73 145.65 C 140.77 146.50 141.48 147.16 142.32 147.12 C 143.17 147.09 143.83 146.38 143.79 145.53 L 143.75 144.52 C 143.72 143.68 143.01 143.02 142.16 143.05 C 141.32 143.08 140.66 143.79 140.69 144.64 Z M 140.73 145.65 L 140.77 146.66 C 140.80 147.50 141.51 148.16 142.35 148.13 C 143.20 148.10 143.86 147.39 143.83 146.55 L 143.79 145.54 C 143.76 144.69 143.05 144.03 142.21 144.06 C 141.37 144.09 140.70 144.80 140.73 145.65 Z M 140.77 146.66 L 140.81 147.66 C 140.84 148.50 141.55 149.16 142.39 149.13 C 143.23 149.10 143.89 148.40 143.86 147.55 L 143.82 146.55 C 143.79 145.71 143.09 145.05 142.24 145.08 C 141.40 145.11 140.74 145.81 140.77 146.66 Z M 140.81 147.66 L 140.84 148.64 C 140.87 149.48 141.57 150.15 142.41 150.12 C 143.26 150.09 143.92 149.39 143.89 148.55 L 143.86 147.56 C 143.83 146.72 143.13 146.06 142.29 146.08 C 141.44 146.11 140.78 146.81 140.81 147.66 Z M 140.84 148.61 L 140.86 149.61 C 140.87 150.45 141.56 151.13 142.40 151.11 C 143.24 151.10 143.91 150.41 143.90 149.57 L 143.89 148.57 C 143.88 147.73 143.19 147.06 142.34 147.07 C 141.50 147.08 140.83 147.77 140.84 148.61 Z M 140.86 149.59 L 140.86 150.56 C 140.86 151.40 141.54 152.08 142.38 152.08 C 143.22 152.08 143.90 151.40 143.90 150.56 L 143.90 149.59 C 143.90 148.75 143.22 148.07 142.38 148.07 C 141.54 148.07 140.86 148.75 140.86 149.59 Z M 140.86 150.56 L 140.86 151.52 C 140.86 152.36 141.54 153.03 142.38 153.03 C 143.22 153.03 143.90 152.36 143.90 151.52 L 143.90 150.56 C 143.90 149.72 143.22 149.05 142.38 149.05 C 141.54 149.05 140.86 149.72 140.86 150.56 Z M 140.86 151.52 L 140.86 152.55 C 140.86 153.38 141.54 154.06 142.38 154.06 C 143.22 154.06 143.90 153.38 143.90 152.55 L 143.90 151.52 C 143.90 150.68 143.22 150.00 142.38 150.00 C 141.54 150.00 140.86 150.68 140.86 151.52 Z M 140.87 152.53 L 140.85 153.54 C 140.84 154.37 141.51 155.06 142.35 155.07 C 143.19 155.08 143.87 154.41 143.88 153.57 L 143.89 152.56 C 143.90 151.73 143.23 151.04 142.40 151.03 C 141.56 151.02 140.87 151.69 140.87 152.53 Z M 140.86 153.49 L 140.81 154.53 C 140.78 155.36 141.42 156.07 142.26 156.10 C 143.09 156.14 143.80 155.49 143.84 154.66 L 143.88 153.62 C 143.92 152.78 143.27 152.08 142.43 152.04 C 141.60 152.01 140.89 152.66 140.86 153.49 Z M 140.82 154.44 L 140.71 155.50 C 140.62 156.33 141.23 157.07 142.06 157.16 C 142.89 157.24 143.63 156.64 143.72 155.81 L 143.83 154.75 C 143.91 153.92 143.31 153.17 142.48 153.09 C 141.65 153.00 140.91 153.61 140.82 154.44 Z M 140.73 155.38 L 140.56 156.31 C 140.40 157.13 140.94 157.91 141.76 158.07 C 142.58 158.22 143.37 157.68 143.52 156.86 L 143.70 155.93 C 143.85 155.11 143.31 154.33 142.49 154.17 C 141.67 154.02 140.88 154.56 140.73 155.38 Z M 140.61 156.10 L 140.28 157.09 C 140.02 157.88 140.44 158.73 141.23 159.00 C 142.02 159.26 142.87 158.84 143.14 158.05 L 143.47 157.06 C 143.74 156.28 143.31 155.42 142.52 155.15 C 141.73 154.89 140.88 155.31 140.61 156.10 Z M 140.55 156.60 L 139.97 157.30 C 139.43 157.94 139.51 158.89 140.15 159.42 C 140.79 159.96 141.74 159.88 142.28 159.24 L 142.87 158.54 C 143.40 157.90 143.32 156.95 142.68 156.41 C 142.04 155.87 141.09 155.96 140.55 156.60 Z M 140.60 156.85 L 139.68 157.19 C 138.89 157.47 138.49 158.34 138.78 159.12 C 139.06 159.91 139.93 160.31 140.71 160.03 L 141.64 159.69 C 142.43 159.40 142.83 158.53 142.54 157.75 C 142.26 156.97 141.39 156.56 140.60 156.85 Z M 140.18 157.09 L 139.17 157.10 C 138.33 157.11 137.66 157.80 137.67 158.64 C 137.68 159.47 138.37 160.14 139.20 160.13 L 140.21 160.12 C 141.05 160.11 141.72 159.42 141.71 158.59 C 141.70 157.75 141.01 157.08 140.18 157.09 Z M 139.47 157.13 L 138.48 156.94 C 137.66 156.78 136.86 157.32 136.71 158.15 C 136.55 158.97 137.09 159.77 137.91 159.92 L 138.90 160.11 C 139.73 160.27 140.52 159.73 140.68 158.90 C 140.83 158.08 140.29 157.28 139.47 157.13 Z M 138.69 156.99 L 137.74 156.66 C 136.94 156.39 136.07 156.82 135.80 157.62 C 135.53 158.42 135.96 159.28 136.76 159.55 L 137.71 159.88 C 138.51 160.15 139.37 159.72 139.64 158.92 C 139.91 158.12 139.48 157.26 138.69 156.99 Z M 137.84 156.69 L 136.95 156.32 C 136.17 155.99 135.27 156.36 134.94 157.14 C 134.61 157.92 134.98 158.82 135.76 159.15 L 136.65 159.52 C 137.43 159.85 138.33 159.49 138.66 158.70 C 138.99 157.92 138.62 157.02 137.84 156.69 Z M 137.03 156.35 L 136.14 155.91 C 135.37 155.54 134.45 155.86 134.07 156.62 C 133.70 157.39 134.02 158.32 134.79 158.69 L 135.68 159.12 C 136.45 159.50 137.37 159.18 137.75 158.41 C 138.12 157.64 137.80 156.72 137.03 156.35 Z M 136.29 155.98 L 135.37 155.40 C 134.64 154.94 133.67 155.16 133.22 155.89 C 132.76 156.62 132.98 157.58 133.71 158.04 L 134.63 158.62 C 135.36 159.08 136.33 158.86 136.78 158.13 C 137.24 157.40 137.02 156.44 136.29 155.98 Z M 135.65 155.60 L 134.95 154.91 C 134.34 154.30 133.34 154.30 132.73 154.92 C 132.12 155.53 132.12 156.53 132.74 157.14 L 133.43 157.83 C 134.04 158.44 135.04 158.44 135.65 157.83 C 136.26 157.21 136.26 156.21 135.65 155.60 Z M 135.43 156.08 L 135.45 155.25 C 135.48 154.38 134.79 153.65 133.92 153.62 C 133.04 153.60 132.31 154.28 132.29 155.16 L 132.26 155.98 C 132.24 156.85 132.92 157.58 133.80 157.61 C 134.67 157.64 135.40 156.95 135.43 156.08 Z M 134.99 156.33 L 135.70 155.62 C 136.32 155.00 136.32 154.00 135.70 153.38 C 135.08 152.76 134.08 152.76 133.46 153.38 L 132.75 154.08 C 132.13 154.70 132.13 155.70 132.75 156.32 C 133.37 156.94 134.37 156.94 134.99 156.33 Z M 135.45 155.82 L 136.20 155.33 C 136.93 154.85 137.13 153.86 136.65 153.13 C 136.17 152.40 135.19 152.20 134.46 152.68 L 133.71 153.18 C 132.98 153.66 132.77 154.64 133.25 155.37 C 133.74 156.10 134.72 156.30 135.45 155.82 Z M 136.11 155.38 L 137.11 154.81 C 137.87 154.38 138.14 153.41 137.71 152.65 C 137.28 151.90 136.31 151.63 135.55 152.06 L 134.55 152.63 C 133.79 153.06 133.53 154.02 133.96 154.78 C 134.39 155.54 135.35 155.81 136.11 155.38 Z M 137.09 154.81 L 137.95 154.34 C 138.71 153.92 138.99 152.97 138.57 152.21 C 138.15 151.45 137.20 151.17 136.44 151.59 L 135.58 152.06 C 134.82 152.47 134.54 153.43 134.96 154.19 C 135.37 154.95 136.33 155.23 137.09 154.81 Z M 137.94 154.32 L 138.86 153.82 C 139.61 153.41 139.89 152.47 139.48 151.71 C 139.07 150.96 138.13 150.68 137.37 151.09 L 136.45 151.60 C 135.70 152.01 135.42 152.95 135.83 153.71 C 136.24 154.46 137.19 154.74 137.94 154.32 Z M 138.86 153.81 L 139.73 153.33 C 140.48 152.92 140.75 151.98 140.34 151.24 C 139.93 150.49 139.00 150.22 138.25 150.63 L 137.38 151.11 C 136.63 151.52 136.36 152.45 136.77 153.20 C 137.17 153.94 138.11 154.22 138.86 153.81 Z M 139.73 153.30 L 140.70 152.76 C 141.43 152.36 141.69 151.43 141.28 150.70 C 140.88 149.97 139.95 149.71 139.22 150.12 L 138.25 150.65 C 137.52 151.06 137.26 151.98 137.67 152.72 C 138.08 153.45 139.00 153.71 139.73 153.30 Z M 140.69 152.72 L 141.51 152.25 C 142.21 151.85 142.46 150.95 142.06 150.24 C 141.66 149.54 140.76 149.29 140.05 149.69 L 139.23 150.16 C 138.52 150.56 138.27 151.46 138.68 152.17 C 139.08 152.88 139.98 153.12 140.69 152.72 Z M 141.49 152.23 L 142.29 151.77 C 142.98 151.38 143.22 150.50 142.83 149.81 C 142.44 149.12 141.56 148.87 140.87 149.27 L 140.07 149.72 C 139.38 150.11 139.13 150.99 139.53 151.68 C 139.92 152.38 140.80 152.62 141.49 152.23 Z M 142.27 151.76 L 143.15 151.28 C 143.84 150.89 144.08 150.02 143.70 149.33 C 143.31 148.65 142.44 148.40 141.76 148.78 L 140.88 149.27 C 140.19 149.66 139.95 150.53 140.33 151.21 C 140.72 151.90 141.59 152.15 142.27 151.76 Z M 143.15 151.28 L 143.47 151.09 C 144.16 150.71 144.41 149.84 144.03 149.15 C 143.64 148.47 142.78 148.22 142.09 148.60 L 141.76 148.78 C 141.07 149.17 140.82 150.03 141.21 150.72 C 141.59 151.41 142.46 151.66 143.15 151.28 Z"
      fill="black"
      fill-rule="nonzero" /><path d="M 152.29 132.53 L 153.25 132.30 C 154.07 132.11 154.59 131.28 154.39 130.46 C 154.20 129.63 153.37 129.12 152.55 129.31 L 151.59 129.54 C 150.76 129.73 150.25 130.56 150.44 131.38 C 150.64 132.21 151.46 132.72 152.29 132.53 Z M 153.34 132.25 L 154.31 131.96 C 155.10 131.72 155.56 130.87 155.31 130.07 C 155.07 129.28 154.23 128.82 153.43 129.07 L 152.46 129.36 C 151.66 129.60 151.21 130.45 151.45 131.25 C 151.69 132.05 152.54 132.50 153.34 132.25 Z M 154.42 131.91 L 155.36 131.54 C 156.13 131.24 156.51 130.36 156.20 129.59 C 155.89 128.82 155.02 128.44 154.25 128.74 L 153.31 129.11 C 152.54 129.42 152.16 130.29 152.47 131.07 C 152.77 131.84 153.65 132.22 154.42 131.91 Z M 155.40 131.53 L 156.32 131.14 C 157.09 130.81 157.44 129.92 157.11 129.15 C 156.78 128.38 155.89 128.03 155.12 128.36 L 154.20 128.75 C 153.44 129.08 153.08 129.97 153.41 130.74 C 153.74 131.51 154.63 131.86 155.40 131.53 Z M 156.29 131.14 L 157.22 130.76 C 157.99 130.44 158.36 129.57 158.04 128.80 C 157.73 128.03 156.86 127.66 156.09 127.98 L 155.16 128.36 C 154.39 128.67 154.02 129.54 154.33 130.31 C 154.65 131.08 155.52 131.45 156.29 131.14 Z M 157.15 130.75 L 158.08 130.42 C 158.84 130.15 159.24 129.30 158.97 128.54 C 158.69 127.77 157.85 127.37 157.08 127.65 L 156.16 127.98 C 155.39 128.25 154.99 129.10 155.27 129.86 C 155.54 130.63 156.39 131.03 157.15 130.75 Z M 158.01 130.42 L 158.97 130.12 C 159.73 129.88 160.16 129.07 159.92 128.31 C 159.68 127.54 158.87 127.11 158.10 127.35 L 157.15 127.65 C 156.38 127.89 155.96 128.70 156.20 129.47 C 156.43 130.23 157.25 130.66 158.01 130.42 Z M 158.94 130.11 L 159.47 129.96 C 160.23 129.74 160.66 128.94 160.44 128.18 C 160.21 127.42 159.41 126.98 158.65 127.21 L 158.13 127.36 C 157.37 127.59 156.93 128.38 157.16 129.14 C 157.38 129.90 158.18 130.34 158.94 130.11 Z"
      fill="black"
      fill-rule="nonzero" /><path d="M 154.02 127.99 L 153.66 126.89 C 153.40 126.11 152.55 125.68 151.77 125.94 C 150.98 126.20 150.56 127.05 150.82 127.83 L 151.18 128.93 C 151.44 129.71 152.29 130.14 153.07 129.88 C 153.86 129.62 154.28 128.77 154.02 127.99 Z M 150.73 127.12 L 150.66 127.57 C 150.52 128.41 151.09 129.19 151.93 129.32 C 152.76 129.46 153.55 128.89 153.68 128.05 L 153.75 127.60 C 153.88 126.77 153.31 125.98 152.48 125.85 C 151.65 125.72 150.86 126.29 150.73 127.12 Z M 150.63 127.96 L 150.74 129.09 C 150.82 129.94 151.58 130.56 152.43 130.48 C 153.28 130.40 153.90 129.64 153.82 128.79 L 153.71 127.66 C 153.62 126.82 152.87 126.19 152.02 126.28 C 151.17 126.36 150.55 127.11 150.63 127.96 Z M 150.73 129.11 L 150.84 130.12 C 150.94 130.97 151.70 131.59 152.56 131.49 C 153.41 131.40 154.02 130.64 153.93 129.78 L 153.82 128.77 C 153.73 127.92 152.96 127.31 152.11 127.40 C 151.26 127.49 150.64 128.26 150.73 129.11 Z M 150.84 130.11 L 150.93 131.01 C 151.02 131.87 151.78 132.49 152.63 132.41 C 153.49 132.32 154.11 131.56 154.03 130.70 L 153.93 129.80 C 153.85 128.94 153.09 128.32 152.23 128.40 C 151.38 128.49 150.75 129.25 150.84 130.11 Z M 150.93 130.97 L 151.00 132.00 C 151.06 132.85 151.80 133.50 152.66 133.44 C 153.52 133.38 154.16 132.64 154.10 131.78 L 154.03 130.75 C 153.97 129.89 153.23 129.25 152.37 129.31 C 151.51 129.37 150.87 130.11 150.93 130.97 Z M 150.99 131.94 L 151.03 132.97 C 151.06 133.82 151.78 134.50 152.64 134.47 C 153.50 134.44 154.17 133.72 154.14 132.86 L 154.11 131.83 C 154.08 130.97 153.36 130.30 152.50 130.33 C 151.64 130.36 150.97 131.08 150.99 131.94 Z M 151.03 132.93 L 151.04 133.94 C 151.05 134.80 151.76 135.49 152.62 135.48 C 153.48 135.47 154.17 134.76 154.16 133.90 L 154.14 132.89 C 154.13 132.03 153.43 131.34 152.57 131.35 C 151.71 131.37 151.02 132.07 151.03 132.93 Z M 151.04 133.93 L 151.05 134.96 C 151.05 135.82 151.75 136.51 152.61 136.51 C 153.47 136.51 154.16 135.81 154.16 134.95 L 154.16 133.92 C 154.15 133.06 153.45 132.36 152.59 132.36 C 151.73 132.37 151.04 133.07 151.04 133.93 Z M 151.05 134.95 L 151.05 136.01 C 151.05 136.87 151.74 137.56 152.60 137.56 C 153.46 137.56 154.16 136.86 154.16 136.00 L 154.16 134.95 C 154.16 134.09 153.46 133.39 152.60 133.39 C 151.74 133.39 151.05 134.09 151.05 134.95 Z M 151.04 136.00 L 151.04 137.02 C 151.04 137.88 151.74 138.58 152.60 138.58 C 153.46 138.58 154.16 137.88 154.16 137.02 L 154.16 136.00 C 154.16 135.14 153.46 134.45 152.60 134.45 C 151.74 134.45 151.04 135.14 151.04 136.00 Z M 151.04 137.02 L 151.04 137.96 C 151.04 138.82 151.74 139.52 152.60 139.52 C 153.46 139.52 154.16 138.82 154.16 137.96 L 154.16 137.02 C 154.16 136.16 153.46 135.46 152.60 135.46 C 151.74 135.46 151.04 136.16 151.04 137.02 Z M 151.04 137.95 L 151.04 138.93 C 151.04 139.79 151.73 140.49 152.59 140.49 C 153.45 140.50 154.15 139.80 154.16 138.94 L 154.16 137.97 C 154.16 137.10 153.47 136.40 152.61 136.40 C 151.75 136.40 151.05 137.09 151.04 137.95 Z M 151.04 138.89 L 151.01 139.88 C 150.99 140.75 151.67 141.46 152.53 141.49 C 153.39 141.51 154.10 140.83 154.13 139.97 L 154.16 138.98 C 154.18 138.12 153.50 137.40 152.64 137.38 C 151.78 137.35 151.07 138.03 151.04 138.89 Z M 151.02 139.82 L 150.94 140.83 C 150.88 141.69 151.53 142.43 152.38 142.50 C 153.24 142.56 153.99 141.91 154.05 141.06 L 154.13 140.04 C 154.19 139.18 153.54 138.44 152.68 138.37 C 151.83 138.31 151.08 138.96 151.02 139.82 Z M 150.95 140.78 L 150.84 141.79 C 150.75 142.64 151.37 143.41 152.22 143.50 C 153.08 143.59 153.85 142.97 153.94 142.12 L 154.05 141.11 C 154.14 140.25 153.52 139.48 152.66 139.39 C 151.81 139.30 151.04 139.92 150.95 140.78 Z M 150.84 141.78 L 150.73 142.78 C 150.64 143.63 151.26 144.40 152.11 144.50 C 152.97 144.59 153.74 143.97 153.83 143.12 L 153.94 142.12 C 154.03 141.27 153.41 140.50 152.56 140.40 C 151.70 140.31 150.93 140.93 150.84 141.78 Z M 150.73 142.85 L 150.65 144.02 C 150.59 144.88 151.25 145.62 152.10 145.68 C 152.96 145.73 153.70 145.08 153.76 144.22 L 153.84 143.05 C 153.89 142.19 153.24 141.45 152.38 141.39 C 151.52 141.34 150.78 141.99 150.73 142.85 Z M 150.67 144.38 L 150.81 145.22 C 150.95 146.07 151.76 146.64 152.61 146.49 C 153.46 146.35 154.03 145.54 153.88 144.70 L 153.74 143.86 C 153.60 143.01 152.79 142.44 151.94 142.58 C 151.10 142.73 150.52 143.53 150.67 144.38 Z M 152.24 146.51 L 153.01 146.56 C 153.86 146.62 154.61 145.97 154.66 145.11 C 154.72 144.25 154.07 143.51 153.21 143.45 L 152.45 143.40 C 151.59 143.34 150.85 143.99 150.79 144.85 C 150.73 145.71 151.38 146.46 152.24 146.51 Z M 153.94 146.33 L 154.81 145.78 C 155.54 145.33 155.76 144.36 155.30 143.64 C 154.84 142.91 153.88 142.69 153.15 143.14 L 152.28 143.69 C 151.55 144.14 151.33 145.11 151.79 145.83 C 152.25 146.56 153.21 146.78 153.94 146.33 Z M 154.98 145.65 L 155.76 145.00 C 156.41 144.45 156.50 143.47 155.95 142.81 C 155.40 142.16 154.42 142.07 153.76 142.62 L 152.98 143.27 C 152.33 143.82 152.24 144.80 152.79 145.46 C 153.34 146.12 154.32 146.20 154.98 145.65 Z M 155.81 144.94 L 156.56 144.24 C 157.19 143.66 157.22 142.69 156.65 142.06 C 156.07 141.44 155.09 141.40 154.46 141.98 L 153.71 142.68 C 153.08 143.26 153.05 144.23 153.63 144.86 C 154.20 145.48 155.18 145.52 155.81 144.94 Z M 156.58 144.22 L 157.32 143.50 C 157.93 142.91 157.95 141.94 157.36 141.33 C 156.77 140.72 155.80 140.70 155.19 141.29 L 154.45 142.01 C 153.84 142.59 153.82 143.56 154.41 144.17 C 155.00 144.78 155.97 144.80 156.58 144.22 Z M 157.33 143.47 L 158.05 142.75 C 158.64 142.16 158.64 141.20 158.04 140.60 C 157.45 140.01 156.49 140.01 155.89 140.61 L 155.18 141.32 C 154.58 141.92 154.59 142.88 155.18 143.47 C 155.77 144.07 156.74 144.07 157.33 143.47 Z M 158.04 142.73 L 158.72 142.04 C 159.30 141.44 159.29 140.49 158.69 139.91 C 158.10 139.34 157.15 139.35 156.57 139.94 L 155.90 140.63 C 155.32 141.22 155.33 142.17 155.92 142.75 C 156.51 143.33 157.46 143.32 158.04 142.73 Z M 158.68 142.05 L 159.36 141.38 C 159.95 140.81 159.96 139.88 159.39 139.29 C 158.82 138.71 157.89 138.69 157.30 139.26 L 156.62 139.93 C 156.03 140.50 156.02 141.43 156.59 142.02 C 157.16 142.60 158.09 142.61 158.68 142.05 Z M 159.32 141.39 L 160.07 140.70 C 160.66 140.15 160.69 139.23 160.14 138.64 C 159.60 138.05 158.67 138.01 158.08 138.56 L 157.34 139.25 C 156.75 139.80 156.72 140.72 157.26 141.31 C 157.81 141.90 158.73 141.94 159.32 141.39 Z M 160.05 140.69 L 160.44 140.34 C 161.02 139.80 161.06 138.89 160.52 138.30 C 159.98 137.71 159.07 137.67 158.48 138.21 L 158.10 138.56 C 157.51 139.10 157.47 140.02 158.01 140.61 C 158.55 141.19 159.46 141.23 160.05 140.69 Z"
      fill="black"
      fill-rule="nonzero" /><path d="M 154.09 150.42 L 153.92 149.71 C 153.73 148.89 152.92 148.38 152.09 148.57 C 151.27 148.76 150.76 149.58 150.95 150.40 L 151.12 151.11 C 151.31 151.93 152.13 152.44 152.95 152.25 C 153.77 152.06 154.28 151.24 154.09 150.42 Z M 150.88 149.99 L 150.85 150.72 C 150.81 151.58 151.48 152.31 152.34 152.35 C 153.21 152.38 153.93 151.71 153.97 150.85 L 154.00 150.12 C 154.03 149.26 153.36 148.53 152.50 148.49 C 151.64 148.46 150.91 149.13 150.88 149.99 Z M 150.84 150.76 L 150.82 151.92 C 150.81 152.78 151.50 153.49 152.37 153.51 C 153.23 153.52 153.94 152.83 153.96 151.96 L 153.97 150.81 C 153.99 149.94 153.30 149.23 152.43 149.22 C 151.57 149.21 150.85 149.90 150.84 150.76 Z M 150.82 151.90 L 150.79 153.09 C 150.77 153.96 151.46 154.67 152.32 154.70 C 153.19 154.72 153.91 154.03 153.93 153.16 L 153.96 151.98 C 153.98 151.11 153.29 150.39 152.43 150.37 C 151.56 150.35 150.84 151.04 150.82 151.90 Z M 150.79 153.06 L 150.75 154.10 C 150.72 154.96 151.39 155.69 152.26 155.73 C 153.12 155.76 153.85 155.09 153.89 154.22 L 153.93 153.19 C 153.97 152.32 153.29 151.59 152.43 151.56 C 151.56 151.52 150.83 152.20 150.79 153.06 Z M 150.75 154.08 L 150.71 154.97 C 150.67 155.84 151.33 156.58 152.20 156.62 C 153.07 156.66 153.80 155.99 153.85 155.13 L 153.89 154.24 C 153.93 153.37 153.26 152.63 152.40 152.59 C 151.53 152.55 150.79 153.22 150.75 154.08 Z M 150.71 154.98 L 150.66 156.03 C 150.62 156.90 151.29 157.63 152.15 157.67 C 153.02 157.71 153.75 157.04 153.79 156.18 L 153.84 155.12 C 153.88 154.26 153.22 153.52 152.35 153.48 C 151.49 153.44 150.75 154.11 150.71 154.98 Z M 150.67 156.02 L 150.61 156.94 C 150.57 157.81 151.22 158.54 152.09 158.59 C 152.95 158.64 153.69 157.98 153.73 157.12 L 153.79 156.19 C 153.84 155.33 153.18 154.59 152.32 154.55 C 151.45 154.50 150.72 155.16 150.67 156.02 Z M 150.63 156.90 L 150.54 157.89 C 150.47 158.74 151.11 159.49 151.96 159.56 C 152.82 159.63 153.57 159.00 153.64 158.14 L 153.72 157.16 C 153.79 156.31 153.16 155.56 152.30 155.48 C 151.45 155.41 150.70 156.05 150.63 156.90 Z M 150.56 157.85 L 150.45 158.83 C 150.36 159.68 150.97 160.44 151.82 160.53 C 152.67 160.62 153.43 160.01 153.52 159.17 L 153.63 158.18 C 153.72 157.33 153.11 156.57 152.26 156.48 C 151.41 156.39 150.65 157.00 150.56 157.85 Z M 150.47 158.81 L 150.34 159.83 C 150.24 160.67 150.84 161.43 151.68 161.53 C 152.52 161.63 153.28 161.03 153.38 160.20 L 153.50 159.18 C 153.61 158.35 153.01 157.58 152.17 157.48 C 151.33 157.38 150.57 157.98 150.47 158.81 Z M 150.35 159.82 L 150.30 160.21 C 150.20 161.04 150.79 161.81 151.63 161.91 C 152.46 162.01 153.22 161.42 153.33 160.59 L 153.37 160.20 C 153.48 159.36 152.89 158.60 152.05 158.50 C 151.22 158.40 150.46 158.99 150.35 159.82 Z"
      fill="black"
      fill-rule="nonzero" /><path d="M 153.75 152.18 L 153.77 151.18 C 153.79 150.36 153.13 149.68 152.31 149.67 C 151.49 149.65 150.82 150.30 150.80 151.12 L 150.78 152.12 C 150.76 152.94 151.41 153.62 152.24 153.64 C 153.06 153.65 153.73 153.00 153.75 152.18 Z M 153.79 151.37 L 153.93 150.37 C 154.05 149.54 153.47 148.77 152.64 148.65 C 151.81 148.54 151.04 149.11 150.92 149.94 L 150.78 150.94 C 150.66 151.77 151.24 152.54 152.07 152.66 C 152.90 152.77 153.67 152.20 153.79 151.37 Z M 153.84 150.75 L 154.22 149.84 C 154.55 149.05 154.18 148.16 153.40 147.83 C 152.62 147.50 151.72 147.87 151.40 148.65 L 151.01 149.57 C 150.68 150.35 151.05 151.25 151.83 151.57 C 152.61 151.90 153.51 151.53 153.84 150.75 Z M 153.88 150.34 L 154.58 149.66 C 155.19 149.07 155.20 148.10 154.60 147.49 C 154.01 146.88 153.04 146.87 152.43 147.46 L 151.74 148.14 C 151.13 148.74 151.12 149.71 151.71 150.32 C 152.30 150.92 153.28 150.93 153.88 150.34 Z M 154.18 149.95 L 155.09 149.50 C 155.85 149.13 156.17 148.21 155.80 147.45 C 155.43 146.68 154.51 146.36 153.74 146.74 L 152.83 147.18 C 152.07 147.55 151.75 148.47 152.12 149.24 C 152.49 150.00 153.42 150.32 154.18 149.95 Z M 154.82 149.61 L 155.78 149.35 C 156.60 149.13 157.09 148.28 156.87 147.46 C 156.65 146.64 155.80 146.15 154.98 146.37 L 154.02 146.63 C 153.19 146.85 152.71 147.70 152.93 148.52 C 153.15 149.34 154.00 149.83 154.82 149.61 Z M 155.58 149.39 L 156.57 149.26 C 157.42 149.15 158.01 148.38 157.90 147.53 C 157.79 146.69 157.02 146.09 156.17 146.20 L 155.18 146.33 C 154.34 146.44 153.74 147.22 153.85 148.06 C 153.96 148.90 154.73 149.50 155.58 149.39 Z M 156.44 149.27 L 157.44 149.23 C 158.29 149.19 158.95 148.47 158.92 147.62 C 158.88 146.77 158.16 146.11 157.31 146.15 L 156.31 146.19 C 155.46 146.22 154.79 146.94 154.83 147.80 C 154.87 148.65 155.59 149.31 156.44 149.27 Z M 157.33 149.24 L 158.34 149.26 C 159.19 149.29 159.90 148.61 159.93 147.76 C 159.95 146.91 159.28 146.19 158.42 146.17 L 157.42 146.14 C 156.56 146.12 155.85 146.79 155.83 147.64 C 155.80 148.50 156.48 149.21 157.33 149.24 Z M 157.93 149.20 L 158.85 149.48 C 159.67 149.74 160.54 149.27 160.79 148.46 C 161.04 147.64 160.58 146.77 159.76 146.52 L 158.84 146.23 C 158.02 145.98 157.15 146.44 156.90 147.26 C 156.65 148.08 157.11 148.95 157.93 149.20 Z M 158.27 149.16 L 158.98 149.80 C 159.63 150.37 160.61 150.32 161.18 149.67 C 161.75 149.03 161.70 148.05 161.05 147.47 L 160.34 146.84 C 159.70 146.27 158.71 146.32 158.14 146.96 C 157.57 147.61 157.63 148.59 158.27 149.16 Z M 158.69 149.45 L 159.22 150.32 C 159.67 151.06 160.63 151.29 161.36 150.84 C 162.10 150.39 162.33 149.43 161.88 148.69 L 161.35 147.82 C 160.90 147.09 159.94 146.86 159.21 147.31 C 158.47 147.76 158.24 148.72 158.69 149.45 Z M 159.08 150.05 L 159.42 150.96 C 159.72 151.77 160.62 152.18 161.43 151.89 C 162.24 151.59 162.65 150.69 162.35 149.88 L 162.02 148.97 C 161.72 148.16 160.82 147.74 160.01 148.04 C 159.20 148.34 158.79 149.24 159.08 150.05 Z M 159.36 150.76 L 159.59 151.79 C 159.77 152.63 160.61 153.16 161.45 152.98 C 162.30 152.79 162.83 151.95 162.64 151.11 L 162.41 150.08 C 162.23 149.24 161.39 148.70 160.55 148.89 C 159.71 149.08 159.17 149.91 159.36 150.76 Z M 159.56 151.65 L 159.69 152.67 C 159.80 153.52 160.58 154.13 161.44 154.02 C 162.30 153.91 162.90 153.13 162.80 152.27 L 162.67 151.25 C 162.56 150.40 161.78 149.79 160.92 149.90 C 160.06 150.01 159.45 150.79 159.56 151.65 Z M 159.68 152.58 L 159.76 153.58 C 159.82 154.44 160.57 155.09 161.43 155.02 C 162.29 154.96 162.94 154.21 162.88 153.35 L 162.80 152.36 C 162.74 151.50 161.99 150.85 161.13 150.91 C 160.27 150.97 159.62 151.72 159.68 152.58 Z M 159.75 153.52 L 159.79 154.56 C 159.82 155.43 160.55 156.10 161.41 156.07 C 162.27 156.04 162.95 155.31 162.92 154.45 L 162.88 153.41 C 162.85 152.54 162.12 151.87 161.26 151.90 C 160.40 151.93 159.72 152.66 159.75 153.52 Z M 159.79 154.52 L 159.80 155.46 C 159.81 156.33 160.51 157.02 161.37 157.01 C 162.24 157.01 162.93 156.30 162.92 155.44 L 162.92 154.49 C 162.91 153.63 162.20 152.94 161.34 152.94 C 160.48 152.95 159.78 153.66 159.79 154.52 Z M 159.80 155.44 L 159.80 156.40 C 159.79 157.26 160.49 157.96 161.35 157.97 C 162.21 157.97 162.91 157.28 162.91 156.42 L 162.92 155.46 C 162.92 154.60 162.23 153.90 161.37 153.89 C 160.51 153.89 159.81 154.58 159.80 155.44 Z M 159.80 156.33 L 159.75 157.35 C 159.71 158.21 160.37 158.94 161.23 158.98 C 162.08 159.02 162.81 158.36 162.86 157.51 L 162.91 156.48 C 162.95 155.63 162.29 154.90 161.43 154.86 C 160.58 154.81 159.85 155.47 159.80 156.33 Z M 159.77 157.23 L 159.64 158.23 C 159.52 159.08 160.12 159.86 160.97 159.97 C 161.81 160.08 162.59 159.49 162.70 158.64 L 162.84 157.64 C 162.95 156.79 162.36 156.01 161.51 155.90 C 160.66 155.78 159.88 156.38 159.77 157.23 Z M 159.70 157.98 L 159.40 158.93 C 159.15 159.75 159.60 160.61 160.41 160.86 C 161.23 161.12 162.09 160.66 162.34 159.85 L 162.64 158.90 C 162.89 158.08 162.44 157.22 161.63 156.97 C 160.82 156.71 159.95 157.17 159.70 157.98 Z M 159.58 158.59 L 159.05 159.43 C 158.61 160.15 158.83 161.08 159.54 161.53 C 160.26 161.97 161.20 161.76 161.64 161.04 L 162.17 160.20 C 162.61 159.48 162.39 158.54 161.68 158.10 C 160.96 157.65 160.02 157.87 159.58 158.59 Z M 159.15 159.31 L 158.92 159.62 C 158.41 160.28 158.53 161.23 159.19 161.74 C 159.85 162.25 160.79 162.13 161.30 161.47 L 161.54 161.16 C 162.05 160.50 161.93 159.55 161.27 159.04 C 160.61 158.53 159.66 158.65 159.15 159.31 Z"
      fill="black"
      fill-rule="nonzero" /><path d="M 151.48 154.28 L 150.63 155.00 C 149.99 155.54 149.91 156.50 150.45 157.14 C 150.99 157.79 151.95 157.87 152.60 157.33 L 153.45 156.61 C 154.09 156.07 154.17 155.11 153.63 154.47 C 153.09 153.82 152.13 153.74 151.48 154.28 Z M 151.95 157.69 L 152.54 157.56 C 153.38 157.37 153.92 156.54 153.73 155.70 C 153.55 154.86 152.71 154.32 151.87 154.51 L 151.28 154.64 C 150.44 154.82 149.91 155.65 150.09 156.50 C 150.28 157.34 151.11 157.87 151.95 157.69 Z M 152.84 157.46 L 153.87 157.01 C 154.66 156.66 155.02 155.73 154.67 154.94 C 154.32 154.15 153.39 153.79 152.60 154.14 L 151.57 154.60 C 150.78 154.95 150.42 155.88 150.77 156.67 C 151.13 157.46 152.05 157.82 152.84 157.46 Z M 153.88 157.00 L 154.79 156.59 C 155.58 156.24 155.93 155.31 155.58 154.52 C 155.22 153.73 154.30 153.38 153.51 153.74 L 152.59 154.15 C 151.80 154.50 151.45 155.43 151.81 156.22 C 152.16 157.01 153.09 157.36 153.88 157.00 Z M 154.74 156.61 L 155.65 156.23 C 156.45 155.90 156.83 154.99 156.50 154.20 C 156.17 153.40 155.26 153.02 154.46 153.35 L 153.55 153.72 C 152.76 154.05 152.38 154.96 152.71 155.76 C 153.04 156.56 153.95 156.93 154.74 156.61 Z M 155.62 156.24 L 156.58 155.86 C 157.37 155.55 157.77 154.65 157.46 153.86 C 157.15 153.06 156.25 152.66 155.45 152.97 L 154.49 153.35 C 153.70 153.66 153.30 154.55 153.61 155.35 C 153.92 156.15 154.82 156.55 155.62 156.24 Z M 156.55 155.86 L 157.53 155.49 C 158.32 155.19 158.72 154.31 158.43 153.51 C 158.13 152.72 157.25 152.32 156.45 152.62 L 155.48 152.98 C 154.68 153.28 154.28 154.16 154.58 154.96 C 154.87 155.75 155.76 156.15 156.55 155.86 Z M 157.49 155.48 L 158.43 155.15 C 159.22 154.87 159.64 154.01 159.36 153.22 C 159.09 152.44 158.23 152.02 157.44 152.30 L 156.49 152.63 C 155.71 152.90 155.29 153.76 155.56 154.55 C 155.84 155.34 156.70 155.75 157.49 155.48 Z M 158.36 155.14 L 159.29 154.86 C 160.08 154.63 160.52 153.81 160.29 153.03 C 160.06 152.24 159.24 151.80 158.45 152.03 L 157.52 152.30 C 156.73 152.54 156.29 153.36 156.52 154.14 C 156.75 154.92 157.57 155.37 158.36 155.14 Z M 159.20 154.86 L 160.18 154.63 C 160.96 154.45 161.45 153.67 161.26 152.89 C 161.08 152.11 160.30 151.62 159.52 151.80 L 158.54 152.03 C 157.76 152.21 157.27 152.99 157.46 153.78 C 157.64 154.56 158.42 155.04 159.20 154.86 Z M 160.14 154.62 L 160.86 154.48 C 161.64 154.32 162.14 153.56 161.98 152.78 C 161.82 152.01 161.06 151.51 160.29 151.66 L 159.56 151.81 C 158.78 151.97 158.28 152.73 158.44 153.51 C 158.60 154.28 159.36 154.78 160.14 154.62 Z"
      fill="black"
      fill-rule="nonzero" /><path d="M 152.04 160.80 L 151.40 161.84 C 150.97 162.55 151.20 163.48 151.91 163.92 C 152.62 164.35 153.55 164.12 153.99 163.41 L 154.62 162.37 C 155.05 161.66 154.83 160.73 154.11 160.29 C 153.40 159.86 152.47 160.09 152.04 160.80 Z M 151.12 162.64 L 151.13 163.06 C 151.13 163.93 151.84 164.63 152.71 164.62 C 153.58 164.62 154.28 163.91 154.27 163.04 L 154.27 162.61 C 154.26 161.74 153.55 161.04 152.68 161.05 C 151.82 161.06 151.12 161.77 151.12 162.64 Z M 153.40 164.50 L 154.42 164.00 C 155.22 163.62 155.56 162.66 155.17 161.86 C 154.79 161.06 153.83 160.73 153.03 161.11 L 152.01 161.61 C 151.21 161.99 150.87 162.95 151.26 163.75 C 151.64 164.54 152.60 164.88 153.40 164.50 Z M 154.46 163.99 L 155.29 163.56 C 156.08 163.16 156.39 162.19 155.99 161.40 C 155.59 160.61 154.62 160.30 153.83 160.70 L 153.00 161.13 C 152.21 161.53 151.89 162.50 152.30 163.29 C 152.70 164.08 153.67 164.39 154.46 163.99 Z M 155.25 163.58 L 156.21 163.13 C 157.01 162.74 157.35 161.78 156.96 160.98 C 156.58 160.18 155.62 159.84 154.82 160.23 L 153.87 160.68 C 153.07 161.06 152.73 162.02 153.11 162.82 C 153.49 163.63 154.45 163.96 155.25 163.58 Z M 156.16 163.14 L 157.10 162.72 C 157.91 162.36 158.27 161.42 157.91 160.61 C 157.56 159.80 156.61 159.44 155.80 159.80 L 154.86 160.21 C 154.06 160.57 153.69 161.52 154.05 162.33 C 154.41 163.13 155.36 163.50 156.16 163.14 Z M 157.07 162.72 L 158.01 162.32 C 158.81 161.98 159.19 161.05 158.85 160.25 C 158.51 159.44 157.58 159.06 156.78 159.40 L 155.84 159.80 C 155.03 160.14 154.65 161.07 154.99 161.87 C 155.33 162.68 156.26 163.06 157.07 162.72 Z M 157.99 162.31 L 158.90 161.94 C 159.70 161.61 160.08 160.69 159.76 159.89 C 159.43 159.09 158.51 158.71 157.71 159.04 L 156.80 159.41 C 156.00 159.74 155.61 160.66 155.94 161.46 C 156.27 162.26 157.19 162.64 157.99 162.31 Z M 158.90 161.94 L 159.86 161.55 C 160.66 161.22 161.05 160.31 160.72 159.51 C 160.40 158.70 159.48 158.32 158.68 158.64 L 157.72 159.03 C 156.91 159.36 156.53 160.27 156.85 161.08 C 157.18 161.88 158.09 162.27 158.90 161.94 Z M 159.86 161.57 L 160.75 161.21 C 161.57 160.88 161.96 159.96 161.63 159.15 C 161.31 158.33 160.38 157.94 159.57 158.27 L 158.68 158.62 C 157.87 158.95 157.47 159.87 157.80 160.69 C 158.12 161.50 159.05 161.89 159.86 161.57 Z M 160.75 161.22 L 160.90 161.16 C 161.72 160.83 162.12 159.90 161.79 159.08 C 161.46 158.27 160.53 157.87 159.72 158.20 L 159.57 158.26 C 158.75 158.58 158.35 159.51 158.68 160.33 C 159.01 161.15 159.94 161.55 160.75 161.22 Z"
      fill="black"
      fill-rule="nonzero" /></svg>