<svg xmlns="http://www.w3.org/2000/svg" width="300" height="300" viewBox="0 0 300 300">
<path d="M 145.25 130.25 L 145.73 129.42 C 146.14 128.71 145.90 127.81 145.20 127.40 C 144.49 126.99 143.59 127.22 143.17 127.93 L 142.69 128.76 C 142.28 129.46 142.52 130.37 143.22 130.78 C 143.93 131.19 144.83 130.95 145.25 130.25 Z M 145.65 129.58 L 146.35 128.65 C 146.86 127.99 146.72 127.04 146.06 126.54 C 145.40 126.04 144.46 126.17 143.96 126.83 L 143.25 127.77 C 142.75 128.43 142.88 129.37 143.55 129.87 C 144.21 130.37 145.15 130.24 145.65 129.58 Z M 146.16 128.90 L 146.79 128.35 C 147.43 127.80 147.50 126.84 146.95 126.20 C 146.40 125.56 145.43 125.49 144.79 126.04 L 144.16 126.58 C 143.52 127.14 143.45 128.10 144.00 128.74 C 144.55 129.38 145.52 129.45 146.16 128.90 Z M 144.33 126.68 L 144.10 127.34 C 143.82 128.15 144.24 129.03 145.04 129.31 C 145.85 129.60 146.73 129.17 147.01 128.37 L 147.25 127.71 C 147.53 126.90 147.11 126.02 146.30 125.74 C 145.50 125.46 144.62 125.88 144.33 126.68 Z M 144.23 127.07 L 143.60 128.12 C 143.17 128.86 143.41 129.80 144.15 130.24 C 144.88 130.67 145.83 130.43 146.26 129.70 L 146.89 128.64 C 147.32 127.91 147.08 126.96 146.34 126.53 C 145.61 126.09 144.66 126.34 144.23 127.07 Z M 143.66 128.04 L 143.11 128.84 C 142.63 129.55 142.81 130.51 143.51 130.99 C 144.22 131.47 145.18 131.29 145.66 130.59 L 146.21 129.78 C 146.69 129.08 146.51 128.11 145.81 127.63 C 145.10 127.15 144.14 127.33 143.66 128.04 Z M 143.14 128.80 L 142.53 129.64 C 142.02 130.32 142.17 131.29 142.86 131.80 C 143.55 132.30 144.52 132.15 145.02 131.46 L 145.63 130.63 C 146.14 129.94 145.99 128.97 145.30 128.47 C 144.61 127.96 143.64 128.11 143.14 128.80 Z M 142.54 129.62 L 141.96 130.39 C 141.44 131.07 141.58 132.04 142.26 132.55 C 142.94 133.07 143.91 132.93 144.43 132.25 L 145.01 131.48 C 145.52 130.80 145.39 129.83 144.71 129.31 C 144.03 128.80 143.06 128.93 142.54 129.62 Z M 141.97 130.37 L 141.38 131.13 C 140.85 131.81 140.97 132.78 141.65 133.31 C 142.33 133.83 143.30 133.71 143.82 133.03 L 144.42 132.27 C 144.94 131.59 144.82 130.62 144.14 130.09 C 143.47 129.57 142.49 129.69 141.97 130.37 Z M 141.39 131.12 L 140.74 131.93 C 140.20 132.60 140.31 133.57 140.98 134.11 C 141.65 134.64 142.62 134.53 143.16 133.86 L 143.81 133.05 C 144.34 132.38 144.24 131.41 143.57 130.87 C 142.90 130.34 141.92 130.45 141.39 131.12 Z M 140.75 131.91 L 140.10 132.70 C 139.55 133.36 139.64 134.34 140.30 134.89 C 140.96 135.43 141.94 135.34 142.49 134.68 L 143.14 133.89 C 143.69 133.23 143.60 132.25 142.94 131.70 C 142.28 131.15 141.30 131.25 140.75 131.91 Z M 140.11 132.69 L 139.45 133.46 C 138.89 134.11 138.97 135.09 139.63 135.65 C 140.28 136.20 141.26 136.12 141.82 135.47 L 142.47 134.70 C 143.03 134.04 142.95 133.06 142.30 132.51 C 141.64 131.95 140.66 132.03 140.11 132.69 Z M 139.46 133.45 L 138.79 134.22 C 138.23 134.87 138.30 135.85 138.95 136.41 C 139.60 136.97 140.58 136.90 141.14 136.25 L 141.81 135.48 C 142.37 134.83 142.30 133.85 141.65 133.29 C 141.00 132.73 140.02 132.80 139.46 133.45 Z M 138.80 134.21 L 138.15 134.95 C 137.58 135.59 137.65 136.58 138.29 137.14 C 138.94 137.71 139.92 137.65 140.49 137.00 L 141.14 136.26 C 141.70 135.62 141.64 134.63 140.99 134.07 C 140.35 133.50 139.36 133.56 138.80 134.21 Z M 138.15 134.94 L 137.41 135.77 C 136.84 136.42 136.90 137.40 137.55 137.97 C 138.19 138.54 139.17 138.48 139.75 137.84 L 140.49 137.01 C 141.06 136.36 141.00 135.38 140.35 134.81 C 139.71 134.24 138.72 134.29 138.15 134.94 Z M 137.41 135.78 L 136.75 136.53 C 136.18 137.17 136.24 138.16 136.89 138.73 C 137.54 139.30 138.52 139.23 139.09 138.59 L 139.75 137.84 C 140.32 137.19 140.26 136.20 139.61 135.63 C 138.96 135.07 137.98 135.13 137.41 135.78 Z M 136.72 136.56 L 136.14 137.25 C 135.59 137.91 135.68 138.89 136.34 139.45 C 137.01 140.00 137.99 139.91 138.54 139.25 L 139.12 138.56 C 139.67 137.90 139.58 136.91 138.92 136.36 C 138.26 135.80 137.27 135.89 136.72 136.56 Z M 136.03 137.40 L 135.40 138.36 C 134.93 139.09 135.14 140.06 135.86 140.53 C 136.59 141.00 137.56 140.79 138.03 140.07 L 138.66 139.10 C 139.13 138.37 138.92 137.40 138.20 136.93 C 137.47 136.46 136.50 136.67 136.03 137.40 Z M 135.22 139.71 L 135.40 140.26 C 135.67 141.08 136.56 141.53 137.39 141.26 C 138.21 140.99 138.66 140.10 138.39 139.27 L 138.21 138.72 C 137.94 137.90 137.05 137.45 136.22 137.72 C 135.40 137.99 134.95 138.88 135.22 139.71 Z M 136.71 141.33 L 137.69 141.45 C 138.55 141.55 139.34 140.94 139.44 140.07 C 139.55 139.21 138.93 138.42 138.07 138.32 L 137.09 138.20 C 136.22 138.10 135.44 138.71 135.33 139.57 C 135.23 140.44 135.84 141.22 136.71 141.33 Z M 138.00 141.46 L 139.13 141.37 C 140.00 141.30 140.65 140.54 140.58 139.67 C 140.51 138.80 139.75 138.15 138.88 138.22 L 137.76 138.31 C 136.89 138.38 136.24 139.14 136.31 140.01 C 136.38 140.88 137.14 141.52 138.00 141.46 Z M 139.23 141.36 L 140.25 141.21 C 141.11 141.08 141.71 140.28 141.59 139.42 C 141.46 138.56 140.66 137.96 139.80 138.09 L 138.78 138.23 C 137.92 138.36 137.32 139.16 137.45 140.02 C 137.57 140.88 138.37 141.48 139.23 141.36 Z M 140.32 141.20 L 141.28 141.02 C 142.13 140.86 142.70 140.03 142.54 139.18 C 142.38 138.32 141.55 137.76 140.70 137.92 L 139.73 138.10 C 138.88 138.26 138.32 139.08 138.48 139.94 C 138.64 140.79 139.46 141.36 140.32 141.20 Z M 141.34 141.00 L 142.37 140.76 C 143.21 140.57 143.74 139.72 143.55 138.88 C 143.35 138.03 142.51 137.50 141.66 137.70 L 140.63 137.93 C 139.79 138.13 139.26 138.97 139.45 139.82 C 139.65 140.67 140.49 141.20 141.34 141.00 Z M 142.40 140.75 L 143.32 140.52 C 144.16 140.30 144.66 139.45 144.45 138.60 C 144.23 137.76 143.37 137.26 142.53 137.47 L 141.62 137.71 C 140.78 137.92 140.27 138.78 140.49 139.62 C 140.71 140.46 141.56 140.97 142.40 140.75 Z M 143.31 140.52 L 144.28 140.27 C 145.12 140.06 145.63 139.21 145.41 138.36 C 145.20 137.52 144.34 137.02 143.50 137.23 L 142.54 137.47 C 141.70 137.69 141.19 138.54 141.40 139.38 C 141.61 140.22 142.47 140.73 143.31 140.52 Z M 144.29 140.27 L 145.26 140.01 C 146.10 139.79 146.60 138.93 146.37 138.09 C 146.15 137.25 145.29 136.76 144.45 136.98 L 143.49 137.23 C 142.65 137.46 142.15 138.32 142.37 139.15 C 142.59 139.99 143.45 140.49 144.29 140.27 Z M 145.29 140.00 L 146.24 139.73 C 147.07 139.49 147.55 138.61 147.31 137.78 C 147.07 136.95 146.20 136.47 145.36 136.71 L 144.42 136.99 C 143.59 137.23 143.11 138.10 143.35 138.93 C 143.59 139.77 144.46 140.24 145.29 140.00 Z M 146.26 139.72 L 147.23 139.42 C 148.06 139.17 148.52 138.30 148.27 137.47 C 148.02 136.64 147.14 136.17 146.31 136.42 L 145.34 136.72 C 144.52 136.97 144.05 137.85 144.30 138.68 C 144.55 139.51 145.43 139.97 146.26 139.72 Z M 147.23 139.42 L 148.19 139.13 C 149.02 138.87 149.49 138.00 149.23 137.17 C 148.98 136.34 148.10 135.88 147.27 136.13 L 146.31 136.43 C 145.49 136.68 145.02 137.56 145.27 138.38 C 145.53 139.21 146.41 139.68 147.23 139.42 Z M 148.19 139.12 L 149.15 138.83 C 149.98 138.58 150.44 137.70 150.19 136.88 C 149.94 136.05 149.06 135.59 148.24 135.84 L 147.28 136.13 C 146.45 136.39 145.99 137.26 146.24 138.09 C 146.49 138.91 147.37 139.38 148.19 139.12 Z M 149.15 138.82 L 150.12 138.53 C 150.94 138.28 151.40 137.41 151.15 136.58 C 150.90 135.76 150.03 135.30 149.21 135.55 L 148.24 135.84 C 147.42 136.10 146.96 136.97 147.21 137.79 C 147.46 138.61 148.33 139.08 149.15 138.82 Z M 150.13 138.52 L 151.07 138.23 C 151.89 137.97 152.34 137.10 152.08 136.28 C 151.83 135.46 150.95 135.00 150.13 135.26 L 149.20 135.56 C 148.38 135.81 147.92 136.69 148.18 137.51 C 148.44 138.32 149.31 138.78 150.13 138.52 Z M 151.08 138.22 L 152.03 137.91 C 152.85 137.64 153.29 136.77 153.03 135.95 C 152.76 135.14 151.89 134.70 151.08 134.96 L 150.12 135.27 C 149.31 135.54 148.86 136.41 149.13 137.22 C 149.39 138.04 150.27 138.48 151.08 138.22 Z M 152.03 137.90 L 152.94 137.61 C 153.75 137.35 154.20 136.48 153.93 135.67 C 153.67 134.86 152.81 134.41 152.00 134.67 L 151.08 134.97 C 150.27 135.23 149.83 136.09 150.09 136.90 C 150.35 137.72 151.22 138.16 152.03 137.90 Z M 152.92 137.61 L 153.84 137.32 C 154.65 137.07 155.10 136.21 154.85 135.40 C 154.60 134.59 153.74 134.14 152.93 134.39 L 152.01 134.67 C 151.20 134.92 150.75 135.79 151.00 136.60 C 151.25 137.41 152.11 137.86 152.92 137.61 Z M 153.83 137.32 L 154.85 137.01 C 155.66 136.76 156.11 135.90 155.86 135.09 C 155.61 134.29 154.76 133.83 153.95 134.08 L 152.94 134.39 C 152.13 134.64 151.67 135.50 151.92 136.31 C 152.17 137.11 153.03 137.57 153.83 137.32 Z M 154.85 137.00 L 155.83 136.70 C 156.64 136.45 157.09 135.60 156.84 134.79 C 156.59 133.99 155.74 133.54 154.94 133.78 L 153.95 134.09 C 153.15 134.33 152.70 135.19 152.94 135.99 C 153.19 136.79 154.04 137.25 154.85 137.00 Z M 155.82 136.69 L 156.79 136.40 C 157.59 136.16 158.04 135.31 157.80 134.51 C 157.56 133.71 156.71 133.25 155.91 133.50 L 154.95 133.79 C 154.14 134.03 153.69 134.88 153.93 135.68 C 154.17 136.48 155.02 136.94 155.82 136.69 Z M 156.76 136.40 L 157.80 136.10 C 158.60 135.87 159.06 135.04 158.83 134.24 C 158.60 133.44 157.77 132.98 156.97 133.21 L 155.93 133.50 C 155.13 133.73 154.67 134.56 154.90 135.36 C 155.13 136.16 155.96 136.63 156.76 136.40 Z M 157.74 136.10 L 158.63 135.88 C 159.42 135.68 159.91 134.87 159.71 134.08 C 159.51 133.28 158.71 132.79 157.91 132.99 L 157.03 133.21 C 156.23 133.41 155.74 134.21 155.94 135.01 C 156.14 135.81 156.94 136.30 157.74 136.10 Z M 158.56 135.88 L 159.53 135.68 C 160.33 135.52 160.84 134.74 160.68 133.95 C 160.52 133.15 159.74 132.63 158.95 132.80 L 157.98 132.99 C 157.18 133.15 156.66 133.93 156.83 134.73 C 156.99 135.52 157.76 136.04 158.56 135.88 Z M 159.50 135.68 L 160.11 135.57 C 160.90 135.43 161.43 134.66 161.29 133.87 C 161.14 133.07 160.38 132.54 159.59 132.69 L 158.98 132.80 C 158.18 132.94 157.65 133.70 157.80 134.50 C 157.94 135.29 158.70 135.82 159.50 135.68 Z"
      fill="black"
      fill-rule="nonzero" /><path d="M 132.07 152.75 L 133.02 152.77 C 133.86 152.78 134.55 152.11 134.56 151.27 C 134.57 150.43 133.90 149.74 133.06 149.73 L 132.12 149.71 C 131.28 149.70 130.59 150.37 130.58 151.21 C 130.56 152.05 131.23 152.74 132.07 152.75 Z M 133.10 152.82 L 134.13 152.78 C 134.99 152.74 135.67 152.01 135.63 151.14 C 135.60 150.28 134.87 149.60 134.00 149.64 L 132.98 149.68 C 132.11 149.71 131.44 150.44 131.47 151.31 C 131.51 152.18 132.24 152.85 133.10 152.82 Z M 134.25 152.80 L 135.27 152.68 C 136.15 152.57 136.77 151.78 136.67 150.90 C 136.56 150.02 135.77 149.39 134.89 149.50 L 133.87 149.62 C 132.99 149.72 132.37 150.52 132.47 151.40 C 132.58 152.28 133.37 152.90 134.25 152.80 Z M 135.35 152.67 L 136.36 152.50 C 137.24 152.35 137.83 151.52 137.68 150.64 C 137.53 149.77 136.70 149.18 135.82 149.33 L 134.81 149.50 C 133.93 149.65 133.34 150.48 133.49 151.36 C 133.64 152.23 134.47 152.82 135.35 152.67 Z M 136.40 152.49 L 137.36 152.30 C 138.24 152.13 138.80 151.29 138.63 150.41 C 138.46 149.54 137.62 148.97 136.74 149.15 L 135.78 149.33 C 134.91 149.51 134.34 150.35 134.52 151.22 C 134.69 152.09 135.53 152.66 136.40 152.49 Z M 137.38 152.30 L 138.42 152.08 C 139.29 151.91 139.85 151.06 139.67 150.19 C 139.49 149.32 138.64 148.76 137.77 148.94 L 136.73 149.15 C 135.86 149.33 135.30 150.18 135.48 151.05 C 135.66 151.92 136.51 152.48 137.38 152.30 Z M 138.41 152.08 L 139.33 151.90 C 140.20 151.73 140.77 150.89 140.59 150.02 C 140.42 149.15 139.58 148.58 138.71 148.75 L 137.79 148.94 C 136.92 149.11 136.35 149.95 136.52 150.82 C 136.69 151.69 137.54 152.26 138.41 152.08 Z M 139.30 151.90 L 140.24 151.74 C 141.11 151.58 141.69 150.75 141.54 149.88 C 141.38 149.01 140.55 148.43 139.68 148.59 L 138.74 148.75 C 137.87 148.91 137.29 149.74 137.44 150.61 C 137.60 151.48 138.43 152.06 139.30 151.90 Z M 140.23 151.74 L 141.23 151.57 C 142.10 151.42 142.69 150.59 142.54 149.72 C 142.39 148.85 141.57 148.27 140.70 148.42 L 139.69 148.59 C 138.82 148.73 138.24 149.56 138.38 150.43 C 138.53 151.30 139.36 151.88 140.23 151.74 Z M 141.24 151.56 L 142.23 151.39 C 143.09 151.23 143.67 150.41 143.52 149.54 C 143.36 148.67 142.54 148.09 141.67 148.25 L 140.69 148.42 C 139.82 148.57 139.24 149.40 139.40 150.27 C 139.55 151.14 140.38 151.71 141.24 151.56 Z M 142.23 151.38 L 143.23 151.20 C 144.09 151.04 144.66 150.22 144.51 149.35 C 144.35 148.49 143.52 147.91 142.66 148.07 L 141.66 148.25 C 140.80 148.41 140.23 149.24 140.38 150.10 C 140.54 150.97 141.37 151.54 142.23 151.38 Z M 143.22 151.20 L 144.22 151.02 C 145.09 150.86 145.66 150.04 145.50 149.18 C 145.35 148.31 144.52 147.74 143.66 147.90 L 142.66 148.08 C 141.80 148.23 141.23 149.06 141.38 149.92 C 141.54 150.78 142.36 151.35 143.22 151.20 Z M 144.21 151.02 L 145.20 150.84 C 146.06 150.69 146.64 149.87 146.49 149.01 C 146.34 148.15 145.52 147.57 144.66 147.73 L 143.67 147.90 C 142.81 148.05 142.23 148.87 142.38 149.73 C 142.53 150.59 143.35 151.17 144.21 151.02 Z M 145.20 150.84 L 146.17 150.67 C 147.03 150.53 147.61 149.71 147.46 148.85 C 147.32 147.99 146.50 147.41 145.64 147.56 L 144.66 147.73 C 143.80 147.87 143.23 148.69 143.37 149.55 C 143.52 150.41 144.34 150.99 145.20 150.84 Z M 146.17 150.67 L 147.15 150.50 C 148.01 150.36 148.58 149.55 148.44 148.69 C 148.29 147.83 147.48 147.26 146.63 147.40 L 145.65 147.57 C 144.79 147.71 144.21 148.52 144.36 149.38 C 144.50 150.24 145.31 150.81 146.17 150.67 Z M 147.15 150.49 L 148.14 150.32 C 148.99 150.18 149.57 149.37 149.42 148.52 C 149.27 147.66 148.46 147.09 147.61 147.24 L 146.62 147.41 C 145.77 147.55 145.20 148.36 145.35 149.22 C 145.49 150.07 146.30 150.64 147.15 150.49 Z M 148.15 150.31 L 149.14 150.14 C 149.99 149.99 150.55 149.18 150.40 148.33 C 150.25 147.48 149.44 146.92 148.59 147.07 L 147.60 147.25 C 146.76 147.40 146.19 148.21 146.34 149.06 C 146.49 149.90 147.30 150.47 148.15 150.31 Z M 149.15 150.13 L 150.13 149.95 C 150.97 149.79 151.53 148.98 151.37 148.14 C 151.22 147.30 150.41 146.74 149.57 146.90 L 148.58 147.08 C 147.74 147.24 147.19 148.04 147.34 148.88 C 147.50 149.73 148.30 150.28 149.15 150.13 Z M 150.13 149.94 L 151.11 149.76 C 151.95 149.61 152.50 148.80 152.35 147.97 C 152.20 147.13 151.39 146.57 150.56 146.73 L 149.57 146.91 C 148.74 147.06 148.18 147.86 148.33 148.70 C 148.49 149.54 149.29 150.09 150.13 149.94 Z M 151.10 149.75 L 152.10 149.58 C 152.93 149.43 153.49 148.63 153.34 147.80 C 153.19 146.97 152.40 146.41 151.56 146.56 L 150.57 146.73 C 149.73 146.88 149.18 147.68 149.33 148.51 C 149.47 149.34 150.27 149.90 151.10 149.75 Z M 152.10 149.57 L 153.07 149.39 C 153.90 149.25 154.45 148.46 154.30 147.63 C 154.16 146.80 153.37 146.25 152.54 146.40 L 151.57 146.57 C 150.74 146.71 150.19 147.50 150.33 148.33 C 150.48 149.16 151.27 149.71 152.10 149.57 Z M 153.07 149.38 L 154.06 149.20 C 154.88 149.06 155.43 148.27 155.28 147.45 C 155.13 146.62 154.34 146.08 153.52 146.23 L 152.53 146.41 C 151.71 146.56 151.17 147.34 151.32 148.16 C 151.47 148.99 152.25 149.53 153.07 149.38 Z M 154.06 149.19 L 155.04 149.01 C 155.85 148.86 156.39 148.08 156.24 147.26 C 156.09 146.45 155.31 145.91 154.50 146.06 L 153.52 146.24 C 152.70 146.39 152.16 147.17 152.31 147.99 C 152.46 148.80 153.24 149.34 154.06 149.19 Z M 155.03 149.00 L 155.99 148.83 C 156.80 148.68 157.34 147.91 157.19 147.10 C 157.04 146.29 156.27 145.75 155.46 145.90 L 154.50 146.07 C 153.69 146.22 153.15 146.99 153.30 147.80 C 153.45 148.61 154.22 149.15 155.03 149.00 Z M 155.99 148.82 L 156.96 148.64 C 157.77 148.50 158.30 147.73 158.16 146.92 C 158.01 146.12 157.24 145.58 156.43 145.73 L 155.46 145.91 C 154.65 146.05 154.12 146.82 154.26 147.63 C 154.41 148.43 155.18 148.97 155.99 148.82 Z M 156.97 148.63 L 157.98 148.44 C 158.78 148.30 159.31 147.53 159.16 146.73 C 159.01 145.93 158.25 145.40 157.45 145.55 L 156.43 145.74 C 155.63 145.89 155.10 146.66 155.25 147.45 C 155.40 148.25 156.17 148.78 156.97 148.63 Z M 158.00 148.43 L 159.00 148.23 C 159.79 148.08 160.31 147.31 160.15 146.51 C 159.99 145.72 159.22 145.21 158.43 145.36 L 157.43 145.56 C 156.64 145.72 156.12 146.49 156.28 147.28 C 156.44 148.07 157.21 148.59 158.00 148.43 Z M 159.04 148.22 L 160.01 148.00 C 160.80 147.82 161.29 147.04 161.11 146.25 C 160.93 145.47 160.15 144.98 159.36 145.16 L 158.39 145.38 C 157.61 145.56 157.11 146.34 157.29 147.12 C 157.47 147.91 158.25 148.40 159.04 148.22 Z M 160.09 147.97 L 161.08 147.69 C 161.85 147.47 162.29 146.67 162.07 145.90 C 161.85 145.12 161.05 144.68 160.28 144.90 L 159.29 145.18 C 158.52 145.40 158.07 146.20 158.29 146.98 C 158.51 147.75 159.32 148.19 160.09 147.97 Z M 161.16 147.66 L 162.08 147.34 C 162.83 147.07 163.23 146.25 162.97 145.50 C 162.71 144.74 161.88 144.34 161.13 144.61 L 160.20 144.93 C 159.45 145.19 159.05 146.02 159.31 146.77 C 159.58 147.52 160.40 147.92 161.16 147.66 Z M 162.11 147.32 L 162.53 147.16 C 163.27 146.89 163.65 146.05 163.37 145.31 C 163.10 144.56 162.26 144.19 161.52 144.46 L 161.10 144.62 C 160.35 144.90 159.98 145.73 160.25 146.48 C 160.53 147.22 161.36 147.60 162.11 147.32 Z"
      fill="black"
      fill-rule="nonzero" /><path d="M 142.00 142.56 L 142.29 143.53 C 142.53 144.33 143.37 144.78 144.17 144.54 C 144.97 144.30 145.42 143.46 145.18 142.66 L 144.89 141.69 C 144.65 140.89 143.81 140.44 143.01 140.68 C 142.21 140.92 141.76 141.76 142.00 142.56 Z M 142.25 143.57 L 142.55 144.51 C 142.82 145.33 143.69 145.78 144.51 145.52 C 145.33 145.25 145.78 144.38 145.52 143.56 L 145.22 142.62 C 144.95 141.80 144.08 141.35 143.26 141.61 C 142.44 141.88 141.99 142.75 142.25 143.57 Z M 142.55 144.56 L 142.88 145.50 C 143.17 146.32 144.07 146.75 144.89 146.46 C 145.72 146.17 146.15 145.27 145.86 144.45 L 145.52 143.51 C 145.23 142.69 144.33 142.26 143.51 142.55 C 142.69 142.84 142.26 143.74 142.55 144.56 Z M 142.88 145.49 L 143.21 146.44 C 143.49 147.26 144.39 147.70 145.22 147.41 C 146.04 147.12 146.48 146.22 146.19 145.40 L 145.86 144.45 C 145.57 143.63 144.67 143.19 143.85 143.48 C 143.02 143.77 142.59 144.67 142.88 145.49 Z M 143.19 146.38 L 143.47 147.30 C 143.73 148.13 144.61 148.60 145.44 148.34 C 146.28 148.09 146.74 147.21 146.49 146.37 L 146.20 145.45 C 145.95 144.62 145.07 144.15 144.23 144.41 C 143.40 144.67 142.93 145.55 143.19 146.38 Z M 143.46 147.25 L 143.73 148.24 C 143.95 149.08 144.82 149.58 145.66 149.36 C 146.50 149.13 146.99 148.27 146.77 147.43 L 146.50 146.43 C 146.28 145.59 145.41 145.09 144.57 145.32 C 143.73 145.54 143.23 146.41 143.46 147.25 Z M 143.72 148.20 L 143.95 149.16 C 144.15 150.00 144.99 150.52 145.84 150.32 C 146.68 150.12 147.20 149.28 147.00 148.43 L 146.77 147.47 C 146.58 146.63 145.73 146.11 144.89 146.31 C 144.04 146.51 143.52 147.35 143.72 148.20 Z M 143.95 149.11 L 144.15 150.10 C 144.33 150.94 145.15 151.48 146.00 151.31 C 146.84 151.14 147.38 150.31 147.21 149.47 L 147.00 148.48 C 146.83 147.64 146.00 147.09 145.16 147.27 C 144.32 147.44 143.77 148.27 143.95 149.11 Z M 144.16 150.05 L 144.33 151.06 C 144.48 151.90 145.28 152.46 146.12 152.32 C 146.97 152.17 147.53 151.37 147.38 150.52 L 147.21 149.52 C 147.06 148.67 146.26 148.11 145.41 148.26 C 144.57 148.41 144.01 149.21 144.16 150.05 Z M 144.34 151.01 L 144.48 152.01 C 144.60 152.85 145.38 153.43 146.22 153.31 C 147.06 153.19 147.64 152.42 147.52 151.58 L 147.38 150.57 C 147.26 149.74 146.48 149.15 145.64 149.27 C 144.80 149.39 144.22 150.17 144.34 151.01 Z M 144.49 151.96 L 144.60 152.94 C 144.69 153.77 145.45 154.37 146.28 154.27 C 147.12 154.18 147.72 153.43 147.62 152.59 L 147.51 151.62 C 147.42 150.79 146.66 150.19 145.83 150.28 C 144.99 150.38 144.39 151.13 144.49 151.96 Z M 144.61 152.89 L 144.70 153.88 C 144.77 154.70 145.50 155.32 146.32 155.25 C 147.15 155.18 147.76 154.45 147.69 153.62 L 147.61 152.63 C 147.54 151.81 146.81 151.19 145.98 151.27 C 145.15 151.34 144.54 152.06 144.61 152.89 Z M 144.71 153.85 L 144.78 154.85 C 144.83 155.66 145.54 156.29 146.36 156.23 C 147.18 156.18 147.80 155.47 147.74 154.65 L 147.68 153.65 C 147.62 152.83 146.92 152.21 146.10 152.27 C 145.28 152.32 144.66 153.03 144.71 153.85 Z M 144.79 154.83 L 144.85 155.81 C 144.89 156.62 145.59 157.24 146.40 157.19 C 147.21 157.14 147.83 156.45 147.78 155.64 L 147.73 154.67 C 147.68 153.86 146.99 153.24 146.18 153.28 C 145.37 153.33 144.75 154.02 144.79 154.83 Z M 144.86 155.80 L 144.91 156.81 C 144.96 157.61 145.64 158.23 146.45 158.18 C 147.25 158.14 147.87 157.46 147.82 156.65 L 147.77 155.65 C 147.73 154.84 147.04 154.23 146.24 154.27 C 145.43 154.31 144.82 155.00 144.86 155.80 Z M 144.93 156.81 L 144.97 157.57 C 145.01 158.37 145.69 158.98 146.48 158.94 C 147.28 158.90 147.89 158.22 147.85 157.42 L 147.81 156.65 C 147.77 155.86 147.09 155.25 146.29 155.29 C 145.50 155.33 144.88 156.01 144.93 156.81 Z"
      fill="black"
      fill-rule="nonzero" /><path d="M 149.63 141.49 L 149.88 142.49 C 150.07 143.30 150.89 143.79 151.69 143.59 C 152.50 143.39 152.99 142.58 152.79 141.77 L 152.55 140.77 C 152.35 139.97 151.53 139.48 150.73 139.67 C 149.92 139.87 149.43 140.69 149.63 141.49 Z M 149.84 142.49 L 150.08 143.45 C 150.27 144.28 151.10 144.78 151.93 144.59 C 152.75 144.39 153.26 143.56 153.06 142.74 L 152.83 141.77 C 152.63 140.95 151.80 140.44 150.98 140.64 C 150.15 140.84 149.65 141.67 149.84 142.49 Z M 150.05 143.44 L 150.27 144.40 C 150.46 145.24 151.29 145.76 152.13 145.57 C 152.97 145.38 153.49 144.55 153.30 143.71 L 153.08 142.75 C 152.89 141.91 152.06 141.39 151.22 141.58 C 150.39 141.77 149.86 142.60 150.05 143.44 Z M 150.26 144.37 L 150.46 145.33 C 150.63 146.18 151.46 146.72 152.30 146.55 C 153.14 146.37 153.68 145.55 153.51 144.71 L 153.31 143.74 C 153.14 142.90 152.31 142.36 151.47 142.53 C 150.63 142.71 150.09 143.53 150.26 144.37 Z M 150.46 145.30 L 150.63 146.25 C 150.78 147.09 151.59 147.65 152.43 147.50 C 153.28 147.35 153.84 146.54 153.68 145.70 L 153.51 144.74 C 153.36 143.90 152.55 143.34 151.71 143.49 C 150.86 143.65 150.30 144.45 150.46 145.30 Z M 150.63 146.22 L 150.79 147.19 C 150.92 148.03 151.71 148.60 152.55 148.47 C 153.39 148.34 153.97 147.55 153.84 146.71 L 153.68 145.73 C 153.55 144.89 152.76 144.32 151.92 144.45 C 151.07 144.58 150.50 145.37 150.63 146.22 Z M 150.79 147.15 L 150.93 148.19 C 151.04 149.03 151.81 149.62 152.65 149.51 C 153.49 149.40 154.08 148.63 153.97 147.79 L 153.83 146.74 C 153.72 145.90 152.95 145.31 152.11 145.43 C 151.27 145.54 150.68 146.31 150.79 147.15 Z M 150.94 148.16 L 151.04 149.09 C 151.13 149.92 151.88 150.53 152.72 150.43 C 153.55 150.34 154.16 149.59 154.07 148.75 L 153.96 147.82 C 153.87 146.99 153.12 146.38 152.28 146.47 C 151.45 146.57 150.84 147.32 150.94 148.16 Z M 151.05 149.06 L 151.14 150.05 C 151.21 150.89 151.95 151.50 152.78 151.42 C 153.61 151.35 154.22 150.61 154.15 149.78 L 154.06 148.78 C 153.98 147.95 153.25 147.34 152.42 147.41 C 151.58 147.49 150.97 148.23 151.05 149.06 Z M 151.15 150.03 L 151.23 151.10 C 151.29 151.92 152.01 152.54 152.84 152.48 C 153.66 152.42 154.28 151.70 154.22 150.87 L 154.14 149.80 C 154.08 148.98 153.36 148.36 152.53 148.42 C 151.70 148.48 151.08 149.20 151.15 150.03 Z M 151.24 151.08 L 151.30 152.13 C 151.36 152.96 152.07 153.58 152.89 153.52 C 153.71 153.47 154.33 152.76 154.28 151.94 L 154.21 150.89 C 154.16 150.06 153.45 149.44 152.63 149.50 C 151.80 149.55 151.18 150.26 151.24 151.08 Z M 151.32 152.13 L 151.38 153.16 C 151.43 153.98 152.13 154.60 152.95 154.55 C 153.77 154.50 154.39 153.79 154.33 152.98 L 154.27 151.94 C 154.22 151.13 153.51 150.51 152.70 150.56 C 151.88 150.61 151.26 151.31 151.32 152.13 Z M 151.39 153.17 L 151.46 154.10 C 151.51 154.90 152.21 155.52 153.02 155.46 C 153.83 155.41 154.44 154.70 154.39 153.90 L 154.32 152.97 C 154.27 152.16 153.57 151.55 152.76 151.61 C 151.95 151.66 151.34 152.36 151.39 153.17 Z M 151.47 154.13 L 151.57 155.24 C 151.64 156.04 152.35 156.63 153.15 156.55 C 153.95 156.48 154.54 155.78 154.47 154.98 L 154.37 153.86 C 154.30 153.07 153.59 152.48 152.79 152.55 C 151.99 152.62 151.40 153.33 151.47 154.13 Z M 151.60 155.28 L 151.70 156.14 C 151.80 156.93 152.51 157.49 153.30 157.39 C 154.09 157.30 154.65 156.58 154.55 155.79 L 154.45 154.93 C 154.35 154.15 153.63 153.59 152.85 153.68 C 152.06 153.78 151.50 154.49 151.60 155.28 Z"
      fill="black"
      fill-rule="nonzero" /><path d="M 157.08 141.52 L 157.04 142.52 C 157.01 143.36 157.66 144.06 158.49 144.09 C 159.33 144.13 160.03 143.48 160.07 142.64 L 160.11 141.64 C 160.14 140.81 159.49 140.10 158.66 140.07 C 157.82 140.04 157.12 140.69 157.08 141.52 Z M 157.01 142.49 L 156.95 143.47 C 156.90 144.33 157.56 145.06 158.41 145.11 C 159.27 145.16 160.00 144.51 160.05 143.65 L 160.11 142.67 C 160.15 141.81 159.50 141.08 158.64 141.03 C 157.79 140.98 157.05 141.64 157.01 142.49 Z M 156.94 143.43 L 156.86 144.41 C 156.78 145.27 157.42 146.03 158.28 146.10 C 159.14 146.18 159.90 145.54 159.97 144.68 L 160.06 143.70 C 160.13 142.84 159.49 142.08 158.64 142.01 C 157.78 141.93 157.02 142.57 156.94 143.43 Z M 156.87 144.36 L 156.76 145.35 C 156.66 146.20 157.26 146.97 158.11 147.07 C 158.96 147.17 159.74 146.56 159.84 145.71 L 159.95 144.73 C 160.06 143.88 159.45 143.11 158.60 143.01 C 157.75 142.90 156.98 143.51 156.87 144.36 Z M 156.77 145.33 L 156.64 146.32 C 156.53 147.16 157.12 147.94 157.96 148.05 C 158.80 148.16 159.57 147.57 159.68 146.73 L 159.82 145.73 C 159.93 144.89 159.34 144.12 158.50 144.01 C 157.66 143.90 156.89 144.49 156.77 145.33 Z M 156.66 146.33 L 156.53 147.35 C 156.42 148.18 157.01 148.94 157.84 149.05 C 158.67 149.16 159.43 148.57 159.54 147.74 L 159.67 146.72 C 159.78 145.89 159.19 145.13 158.36 145.02 C 157.53 144.92 156.76 145.50 156.66 146.33 Z M 156.54 147.37 L 156.42 148.36 C 156.33 149.18 156.91 149.93 157.74 150.03 C 158.56 150.12 159.30 149.54 159.40 148.71 L 159.52 147.72 C 159.62 146.90 159.03 146.16 158.21 146.06 C 157.39 145.96 156.64 146.55 156.54 147.37 Z M 156.44 148.36 L 156.32 149.36 C 156.23 150.17 156.81 150.91 157.62 151.01 C 158.43 151.11 159.16 150.53 159.26 149.72 L 159.38 148.71 C 159.48 147.90 158.90 147.17 158.09 147.07 C 157.28 146.97 156.54 147.55 156.44 148.36 Z M 156.34 149.35 L 156.21 150.38 C 156.11 151.18 156.68 151.91 157.48 152.01 C 158.28 152.12 159.01 151.55 159.11 150.75 L 159.24 149.72 C 159.35 148.92 158.78 148.19 157.98 148.09 C 157.18 147.99 156.44 148.55 156.34 149.35 Z M 156.22 150.38 L 156.10 151.36 C 156.00 152.16 156.57 152.88 157.36 152.98 C 158.16 153.08 158.88 152.51 158.98 151.72 L 159.10 150.74 C 159.20 149.94 158.64 149.22 157.84 149.12 C 157.05 149.02 156.32 149.59 156.22 150.38 Z M 156.11 151.39 L 156.01 152.40 C 155.93 153.20 156.50 153.90 157.29 153.98 C 158.08 154.06 158.79 153.49 158.87 152.70 L 158.97 151.69 C 159.06 150.90 158.48 150.19 157.69 150.11 C 156.90 150.03 156.19 150.60 156.11 151.39 Z M 156.01 152.44 L 155.93 153.41 C 155.87 154.20 156.46 154.89 157.25 154.95 C 158.03 155.01 158.72 154.43 158.79 153.64 L 158.87 152.67 C 158.93 151.88 158.34 151.19 157.55 151.12 C 156.77 151.06 156.08 151.65 156.01 152.44 Z M 155.94 153.42 L 155.92 153.63 C 155.86 154.42 156.45 155.10 157.24 155.16 C 158.03 155.22 158.71 154.63 158.77 153.84 L 158.78 153.63 C 158.84 152.84 158.25 152.16 157.47 152.10 C 156.68 152.04 156.00 152.63 155.94 153.42 Z"
      fill="black"
      fill-rule="nonzero" /><path d="M 166.13 141.17 L 165.49 141.91 C 164.93 142.55 165.01 143.53 165.65 144.08 C 166.29 144.64 167.27 144.57 167.82 143.92 L 168.46 143.18 C 169.01 142.54 168.94 141.57 168.30 141.01 C 167.65 140.45 166.68 140.53 166.13 141.17 Z M 165.39 141.96 L 164.78 142.77 C 164.25 143.46 164.39 144.46 165.08 144.99 C 165.78 145.52 166.77 145.38 167.30 144.68 L 167.92 143.87 C 168.45 143.18 168.31 142.18 167.61 141.65 C 166.92 141.12 165.92 141.26 165.39 141.96 Z M 164.70 142.85 L 164.16 143.68 C 163.68 144.42 163.89 145.41 164.63 145.89 C 165.37 146.37 166.36 146.16 166.85 145.42 L 167.38 144.60 C 167.86 143.85 167.65 142.86 166.91 142.38 C 166.17 141.90 165.18 142.11 164.70 142.85 Z M 164.15 143.71 L 163.61 144.58 C 163.15 145.33 163.38 146.31 164.13 146.77 C 164.87 147.23 165.85 147.00 166.32 146.26 L 166.86 145.39 C 167.32 144.64 167.09 143.66 166.34 143.20 C 165.60 142.74 164.61 142.97 164.15 143.71 Z M 163.65 144.57 L 163.12 145.38 C 162.65 146.11 162.86 147.08 163.59 147.55 C 164.31 148.02 165.29 147.82 165.76 147.09 L 166.28 146.27 C 166.76 145.54 166.55 144.57 165.82 144.10 C 165.09 143.63 164.12 143.84 163.65 144.57 Z M 163.17 145.36 L 162.59 146.20 C 162.11 146.90 162.29 147.86 162.99 148.34 C 163.70 148.82 164.65 148.64 165.13 147.94 L 165.71 147.11 C 166.19 146.40 166.01 145.45 165.31 144.96 C 164.61 144.48 163.65 144.66 163.17 145.36 Z M 162.64 146.19 L 162.03 147.02 C 161.55 147.70 161.70 148.64 162.37 149.13 C 163.05 149.62 164.00 149.47 164.49 148.79 L 165.09 147.96 C 165.58 147.28 165.43 146.33 164.75 145.85 C 164.07 145.36 163.13 145.51 162.64 146.19 Z M 162.07 147.01 L 161.46 147.83 C 160.96 148.49 161.09 149.42 161.75 149.92 C 162.41 150.41 163.34 150.28 163.84 149.62 L 164.45 148.80 C 164.95 148.14 164.81 147.21 164.16 146.72 C 163.50 146.22 162.56 146.35 162.07 147.01 Z M 161.49 147.82 L 160.87 148.61 C 160.37 149.25 160.48 150.17 161.12 150.67 C 161.76 151.17 162.69 151.06 163.19 150.42 L 163.81 149.63 C 164.31 148.99 164.19 148.07 163.55 147.56 C 162.91 147.06 161.99 147.18 161.49 147.82 Z M 160.91 148.59 L 160.28 149.35 C 159.77 149.97 159.85 150.88 160.47 151.39 C 161.08 151.91 162.00 151.82 162.51 151.21 L 163.15 150.44 C 163.66 149.83 163.57 148.91 162.96 148.40 C 162.34 147.88 161.43 147.97 160.91 148.59 Z M 160.32 149.32 L 159.68 150.03 C 159.15 150.62 159.20 151.53 159.80 152.06 C 160.39 152.59 161.30 152.54 161.83 151.95 L 162.47 151.24 C 163.00 150.64 162.95 149.74 162.35 149.21 C 161.76 148.68 160.85 148.73 160.32 149.32 Z M 159.72 150.00 L 159.03 150.73 C 158.48 151.30 158.50 152.21 159.07 152.75 C 159.64 153.30 160.55 153.28 161.09 152.71 L 161.79 151.98 C 162.34 151.41 162.31 150.50 161.74 149.96 C 161.17 149.41 160.27 149.43 159.72 150.00 Z M 159.07 150.70 L 158.34 151.40 C 157.78 151.95 157.76 152.85 158.31 153.42 C 158.86 153.98 159.76 154.00 160.33 153.45 L 161.05 152.74 C 161.62 152.19 161.63 151.29 161.08 150.72 C 160.53 150.16 159.63 150.15 159.07 150.70 Z M 158.37 151.37 L 157.64 152.04 C 157.06 152.58 157.02 153.48 157.55 154.06 C 158.08 154.64 158.99 154.68 159.57 154.15 L 160.30 153.47 C 160.88 152.94 160.92 152.04 160.39 151.46 C 159.85 150.88 158.95 150.84 158.37 151.37 Z M 157.65 152.04 L 157.51 152.16 C 156.93 152.69 156.89 153.59 157.41 154.17 C 157.94 154.75 158.84 154.80 159.43 154.27 L 159.56 154.15 C 160.14 153.62 160.19 152.72 159.66 152.14 C 159.13 151.55 158.23 151.51 157.65 152.04 Z"
      fill="black"
      fill-rule="nonzero" /><path d="M 130.78 160.76 L 129.51 161.18 C 128.73 161.43 128.30 162.28 128.56 163.06 C 128.81 163.84 129.66 164.27 130.44 164.01 L 131.71 163.60 C 132.49 163.34 132.92 162.50 132.66 161.72 C 132.41 160.93 131.56 160.51 130.78 160.76 Z M 129.43 161.15 L 128.72 161.42 C 127.92 161.72 127.51 162.61 127.81 163.41 C 128.11 164.21 129.00 164.61 129.80 164.31 L 130.52 164.04 C 131.32 163.74 131.72 162.85 131.42 162.05 C 131.12 161.26 130.23 160.85 129.43 161.15 Z M 129.32 164.45 L 129.74 164.44 C 130.62 164.40 131.30 163.66 131.26 162.79 C 131.23 161.91 130.49 161.23 129.62 161.26 L 129.20 161.28 C 128.32 161.31 127.64 162.05 127.67 162.93 C 127.71 163.80 128.44 164.49 129.32 164.45 Z M 130.01 164.44 L 131.31 164.17 C 132.18 163.98 132.75 163.12 132.56 162.24 C 132.37 161.36 131.51 160.80 130.64 160.99 L 129.34 161.26 C 128.46 161.44 127.90 162.31 128.09 163.18 C 128.27 164.06 129.14 164.62 130.01 164.44 Z M 131.36 164.17 L 132.36 163.93 C 133.25 163.72 133.79 162.83 133.58 161.95 C 133.36 161.07 132.48 160.52 131.59 160.74 L 130.59 160.98 C 129.70 161.19 129.16 162.08 129.37 162.96 C 129.59 163.84 130.47 164.39 131.36 164.17 Z M 132.38 163.93 L 133.35 163.69 C 134.23 163.47 134.77 162.57 134.54 161.69 C 134.32 160.81 133.43 160.27 132.55 160.49 L 131.58 160.74 C 130.69 160.96 130.16 161.85 130.38 162.73 C 130.60 163.62 131.50 164.15 132.38 163.93 Z M 133.34 163.69 L 134.33 163.45 C 135.21 163.23 135.75 162.33 135.53 161.45 C 135.31 160.56 134.42 160.02 133.54 160.24 L 132.55 160.49 C 131.66 160.71 131.13 161.60 131.34 162.49 C 131.56 163.37 132.46 163.91 133.34 163.69 Z M 134.31 163.46 L 135.26 163.23 C 136.15 163.03 136.70 162.14 136.49 161.25 C 136.28 160.36 135.40 159.81 134.51 160.01 L 133.56 160.24 C 132.67 160.44 132.12 161.33 132.32 162.22 C 132.53 163.11 133.42 163.66 134.31 163.46 Z M 135.23 163.24 L 136.17 163.04 C 137.06 162.84 137.62 161.96 137.43 161.07 C 137.23 160.18 136.35 159.61 135.46 159.81 L 134.53 160.01 C 133.64 160.20 133.07 161.08 133.27 161.98 C 133.46 162.87 134.34 163.43 135.23 163.24 Z M 136.16 163.04 L 137.14 162.83 C 138.03 162.64 138.60 161.76 138.41 160.87 C 138.22 159.97 137.34 159.41 136.45 159.60 L 135.47 159.80 C 134.58 160.00 134.01 160.87 134.20 161.77 C 134.39 162.66 135.27 163.23 136.16 163.04 Z M 137.15 162.82 L 138.12 162.61 C 139.01 162.42 139.57 161.54 139.38 160.65 C 139.18 159.75 138.30 159.19 137.41 159.39 L 136.44 159.60 C 135.55 159.80 134.99 160.68 135.18 161.57 C 135.38 162.46 136.26 163.02 137.15 162.82 Z M 138.13 162.60 L 139.10 162.38 C 139.99 162.18 140.55 161.30 140.35 160.41 C 140.15 159.53 139.26 158.97 138.38 159.17 L 137.40 159.39 C 136.51 159.59 135.96 160.48 136.16 161.36 C 136.36 162.25 137.24 162.81 138.13 162.60 Z M 139.11 162.38 L 140.09 162.16 C 140.98 161.95 141.53 161.07 141.33 160.19 C 141.13 159.30 140.25 158.75 139.37 158.95 L 138.38 159.18 C 137.49 159.38 136.94 160.26 137.14 161.14 C 137.34 162.03 138.22 162.58 139.11 162.38 Z M 140.09 162.15 L 141.07 161.93 C 141.96 161.73 142.51 160.85 142.31 159.97 C 142.11 159.09 141.23 158.53 140.35 158.73 L 139.37 158.95 C 138.48 159.15 137.93 160.03 138.13 160.91 C 138.33 161.80 139.21 162.35 140.09 162.15 Z M 141.07 161.93 L 142.05 161.71 C 142.93 161.51 143.48 160.63 143.29 159.75 C 143.09 158.87 142.21 158.32 141.33 158.52 L 140.35 158.74 C 139.47 158.93 138.92 159.81 139.11 160.69 C 139.31 161.57 140.19 162.13 141.07 161.93 Z M 142.04 161.71 L 143.02 161.49 C 143.90 161.29 144.45 160.42 144.26 159.54 C 144.06 158.66 143.19 158.11 142.31 158.30 L 141.34 158.52 C 140.45 158.71 139.90 159.59 140.10 160.47 C 140.29 161.35 141.16 161.90 142.04 161.71 Z M 143.01 161.49 L 143.98 161.28 C 144.86 161.09 145.42 160.22 145.23 159.34 C 145.04 158.46 144.18 157.90 143.30 158.09 L 142.32 158.30 C 141.44 158.49 140.88 159.36 141.07 160.24 C 141.26 161.12 142.13 161.68 143.01 161.49 Z M 143.97 161.27 L 144.93 161.08 C 145.81 160.89 146.37 160.03 146.19 159.15 C 146.00 158.27 145.14 157.71 144.26 157.89 L 143.31 158.09 C 142.43 158.28 141.87 159.14 142.05 160.02 C 142.23 160.89 143.09 161.46 143.97 161.27 Z M 144.92 161.07 L 145.91 160.87 C 146.79 160.69 147.35 159.83 147.17 158.96 C 146.99 158.08 146.14 157.52 145.26 157.70 L 144.27 157.90 C 143.40 158.08 142.83 158.93 143.01 159.81 C 143.19 160.68 144.05 161.25 144.92 161.07 Z M 145.91 160.86 L 146.89 160.66 C 147.76 160.48 148.32 159.63 148.14 158.76 C 147.96 157.89 147.11 157.32 146.24 157.50 L 145.26 157.71 C 144.39 157.88 143.83 158.74 144.01 159.61 C 144.19 160.48 145.04 161.04 145.91 160.86 Z M 146.89 160.65 L 147.87 160.44 C 148.73 160.26 149.29 159.42 149.11 158.55 C 148.93 157.69 148.08 157.13 147.22 157.31 L 146.24 157.51 C 145.38 157.69 144.82 158.54 145.00 159.40 C 145.18 160.27 146.03 160.83 146.89 160.65 Z M 147.87 160.43 L 148.86 160.23 C 149.72 160.05 150.27 159.21 150.09 158.35 C 149.92 157.49 149.07 156.94 148.21 157.11 L 147.22 157.32 C 146.36 157.50 145.81 158.34 145.99 159.20 C 146.16 160.06 147.01 160.61 147.87 160.43 Z M 148.85 160.22 L 149.83 160.02 C 150.68 159.85 151.23 159.01 151.06 158.16 C 150.88 157.30 150.05 156.75 149.19 156.92 L 148.22 157.12 C 147.36 157.30 146.81 158.13 146.99 158.99 C 147.16 159.85 148.00 160.40 148.85 160.22 Z M 149.82 160.01 L 150.80 159.81 C 151.66 159.64 152.20 158.81 152.03 157.96 C 151.86 157.11 151.03 156.56 150.18 156.73 L 149.19 156.93 C 148.34 157.11 147.80 157.94 147.97 158.79 C 148.14 159.64 148.97 160.19 149.82 160.01 Z M 150.80 159.80 L 151.78 159.60 C 152.62 159.43 153.17 158.61 153.00 157.76 C 152.82 156.92 152.00 156.37 151.15 156.54 L 150.18 156.74 C 149.33 156.91 148.79 157.74 148.96 158.58 C 149.13 159.43 149.96 159.97 150.80 159.80 Z M 151.77 159.59 L 152.74 159.40 C 153.58 159.23 154.13 158.41 153.96 157.57 C 153.79 156.73 152.97 156.19 152.13 156.36 L 151.16 156.55 C 150.32 156.72 149.78 157.54 149.95 158.38 C 150.11 159.22 150.93 159.76 151.77 159.59 Z M 152.73 159.39 L 153.72 159.20 C 154.56 159.04 155.11 158.24 154.95 157.40 C 154.79 156.56 153.98 156.01 153.14 156.17 L 152.15 156.36 C 151.31 156.52 150.76 157.33 150.92 158.17 C 151.08 159.00 151.89 159.55 152.73 159.39 Z M 153.70 159.20 L 154.70 159.02 C 155.53 158.88 156.09 158.08 155.94 157.25 C 155.80 156.42 155.00 155.86 154.17 156.00 L 153.17 156.18 C 152.33 156.33 151.78 157.12 151.92 157.95 C 152.07 158.79 152.86 159.34 153.70 159.20 Z M 154.68 159.02 L 155.68 158.85 C 156.51 158.72 157.07 157.93 156.93 157.10 C 156.80 156.27 156.02 155.71 155.19 155.85 L 154.19 156.01 C 153.36 156.15 152.79 156.93 152.93 157.76 C 153.06 158.59 153.85 159.15 154.68 159.02 Z M 155.67 158.84 L 156.64 158.69 C 157.47 158.56 158.03 157.78 157.90 156.96 C 157.76 156.13 156.99 155.57 156.16 155.70 L 155.19 155.86 C 154.37 155.99 153.80 156.76 153.94 157.59 C 154.07 158.41 154.84 158.98 155.67 158.84 Z M 156.64 158.68 L 157.67 158.51 C 158.49 158.38 159.05 157.61 158.92 156.79 C 158.78 155.97 158.01 155.41 157.19 155.54 L 156.16 155.71 C 155.34 155.84 154.78 156.61 154.92 157.44 C 155.05 158.26 155.82 158.81 156.64 158.68 Z M 157.67 158.51 L 158.64 158.35 C 159.45 158.22 160.01 157.46 159.88 156.64 C 159.75 155.82 158.98 155.26 158.17 155.39 L 157.19 155.55 C 156.38 155.68 155.82 156.45 155.95 157.26 C 156.08 158.08 156.85 158.64 157.67 158.51 Z M 158.62 158.35 L 159.60 158.21 C 160.41 158.09 160.98 157.33 160.86 156.51 C 160.74 155.70 159.98 155.14 159.17 155.26 L 158.19 155.40 C 157.37 155.52 156.81 156.28 156.93 157.09 C 157.05 157.90 157.80 158.47 158.62 158.35 Z M 159.57 158.20 L 160.57 158.07 C 161.38 157.97 161.95 157.22 161.85 156.41 C 161.74 155.60 161.00 155.03 160.19 155.13 L 159.19 155.26 C 158.38 155.37 157.81 156.11 157.91 156.92 C 158.02 157.73 158.76 158.31 159.57 158.20 Z M 160.55 158.06 L 161.53 157.95 C 162.34 157.85 162.92 157.12 162.83 156.32 C 162.73 155.51 162.00 154.93 161.19 155.02 L 160.21 155.14 C 159.40 155.23 158.82 155.96 158.92 156.77 C 159.01 157.58 159.74 158.16 160.55 158.06 Z M 161.52 157.94 L 162.52 157.83 C 163.33 157.75 163.91 157.03 163.83 156.23 C 163.74 155.42 163.02 154.84 162.22 154.93 L 161.21 155.03 C 160.41 155.12 159.83 155.84 159.91 156.64 C 159.99 157.44 160.71 158.03 161.52 157.94 Z M 162.51 157.83 L 163.44 157.74 C 164.24 157.67 164.83 156.96 164.76 156.16 C 164.68 155.36 163.97 154.77 163.18 154.85 L 162.24 154.93 C 161.44 155.01 160.85 155.72 160.92 156.51 C 161.00 157.31 161.71 157.90 162.51 157.83 Z M 163.42 157.73 L 164.38 157.66 C 165.18 157.60 165.77 156.91 165.71 156.11 C 165.65 155.32 164.96 154.72 164.16 154.78 L 163.20 154.85 C 162.40 154.91 161.81 155.61 161.87 156.40 C 161.93 157.20 162.62 157.80 163.42 157.73 Z M 164.36 157.66 L 165.36 157.60 C 166.16 157.55 166.76 156.87 166.71 156.07 C 166.67 155.28 165.98 154.68 165.19 154.72 L 164.18 154.78 C 163.39 154.83 162.79 155.51 162.83 156.31 C 162.88 157.10 163.56 157.70 164.36 157.66 Z M 165.35 157.59 L 166.33 157.54 C 167.12 157.50 167.73 156.83 167.68 156.03 C 167.64 155.24 166.97 154.63 166.18 154.68 L 165.20 154.73 C 164.41 154.77 163.80 155.44 163.85 156.23 C 163.89 157.03 164.56 157.63 165.35 157.59 Z M 166.32 157.54 L 167.38 157.49 C 168.17 157.45 168.78 156.78 168.74 155.99 C 168.70 155.20 168.03 154.59 167.24 154.63 L 166.18 154.68 C 165.39 154.72 164.78 155.39 164.82 156.18 C 164.86 156.97 165.53 157.58 166.32 157.54 Z M 167.38 157.48 L 167.70 157.47 C 168.49 157.43 169.10 156.76 169.06 155.97 C 169.02 155.18 168.35 154.58 167.56 154.61 L 167.24 154.63 C 166.45 154.67 165.84 155.34 165.88 156.13 C 165.92 156.91 166.59 157.52 167.38 157.48 Z"
      fill="black"
      fill-rule="nonzero" /><path d="M 136.26 163.34 L 136.20 164.25 C 136.14 165.08 136.77 165.80 137.60 165.85 C 138.44 165.91 139.15 165.28 139.21 164.45 L 139.27 163.54 C 139.32 162.71 138.69 161.99 137.86 161.94 C 137.03 161.88 136.31 162.51 136.26 163.34 Z M 136.15 164.51 L 136.27 165.57 C 136.36 166.43 137.13 167.04 137.98 166.95 C 138.84 166.86 139.46 166.09 139.37 165.23 L 139.25 164.18 C 139.16 163.32 138.39 162.70 137.54 162.80 C 136.68 162.89 136.06 163.66 136.15 164.51 Z M 136.31 165.85 L 136.59 166.79 C 136.83 167.63 137.71 168.11 138.54 167.86 C 139.38 167.61 139.86 166.73 139.61 165.90 L 139.33 164.95 C 139.08 164.12 138.20 163.64 137.37 163.89 C 136.53 164.14 136.06 165.01 136.31 165.85 Z M 136.64 166.92 L 137.02 167.88 C 137.34 168.69 138.24 169.08 139.05 168.77 C 139.85 168.45 140.24 167.55 139.93 166.75 L 139.55 165.78 C 139.24 164.97 138.33 164.58 137.53 164.89 C 136.72 165.21 136.33 166.11 136.64 166.92 Z M 137.06 167.93 L 137.47 168.86 C 137.81 169.64 138.72 169.99 139.50 169.65 C 140.28 169.31 140.64 168.40 140.29 167.62 L 139.89 166.69 C 139.55 165.91 138.64 165.56 137.86 165.90 C 137.08 166.24 136.72 167.15 137.06 167.93 Z M 137.49 168.88 L 137.95 169.89 C 138.31 170.66 139.22 170.99 139.99 170.64 C 140.76 170.28 141.09 169.37 140.74 168.60 L 140.27 167.59 C 139.92 166.82 139.01 166.49 138.24 166.84 C 137.47 167.20 137.13 168.11 137.49 168.88 Z M 137.97 169.93 L 138.38 170.76 C 138.76 171.52 139.68 171.83 140.44 171.46 C 141.20 171.08 141.51 170.16 141.14 169.40 L 140.72 168.56 C 140.35 167.80 139.42 167.49 138.66 167.86 C 137.90 168.24 137.59 169.16 137.97 169.93 Z M 138.41 170.82 L 138.88 171.67 C 139.29 172.41 140.22 172.68 140.97 172.27 C 141.71 171.86 141.98 170.92 141.57 170.18 L 141.11 169.33 C 140.70 168.59 139.76 168.32 139.01 168.73 C 138.27 169.14 138.00 170.08 138.41 170.82 Z M 138.91 171.71 L 139.42 172.56 C 139.85 173.29 140.80 173.53 141.52 173.09 C 142.25 172.65 142.49 171.71 142.05 170.98 L 141.54 170.13 C 141.10 169.40 140.16 169.17 139.43 169.61 C 138.70 170.04 138.47 170.99 138.91 171.71 Z M 139.42 172.57 L 139.49 172.69 C 139.94 173.41 140.88 173.64 141.60 173.19 C 142.33 172.75 142.55 171.81 142.11 171.09 L 142.04 170.97 C 141.60 170.25 140.66 170.02 139.93 170.46 C 139.21 170.91 138.98 171.85 139.42 172.57 Z"
      fill="black"
      fill-rule="nonzero" /><path d="M 144.92 163.40 L 145.24 164.21 C 145.54 165.00 146.42 165.38 147.20 165.08 C 147.98 164.78 148.37 163.90 148.07 163.12 L 147.75 162.30 C 147.45 161.52 146.57 161.13 145.79 161.43 C 145.00 161.74 144.62 162.61 144.92 163.40 Z M 145.24 164.32 L 145.68 165.28 C 146.05 166.07 146.97 166.40 147.76 166.04 C 148.54 165.68 148.88 164.75 148.51 163.97 L 148.07 163.01 C 147.70 162.23 146.77 161.89 145.99 162.25 C 145.21 162.62 144.87 163.54 145.24 164.32 Z M 145.71 165.39 L 146.21 166.30 C 146.64 167.07 147.60 167.35 148.37 166.92 C 149.13 166.50 149.41 165.54 148.99 164.77 L 148.48 163.86 C 148.06 163.10 147.10 162.82 146.33 163.24 C 145.57 163.66 145.29 164.63 145.71 165.39 Z M 146.25 166.35 L 146.79 167.25 C 147.23 168.00 148.20 168.24 148.95 167.79 C 149.70 167.34 149.94 166.37 149.49 165.63 L 148.96 164.73 C 148.51 163.98 147.54 163.73 146.79 164.18 C 146.04 164.63 145.80 165.60 146.25 166.35 Z M 146.81 167.27 L 147.34 168.13 C 147.80 168.86 148.77 169.09 149.50 168.63 C 150.24 168.17 150.46 167.21 150.01 166.47 L 149.47 165.61 C 149.01 164.87 148.05 164.65 147.31 165.11 C 146.58 165.56 146.35 166.53 146.81 167.27 Z M 147.37 168.12 L 147.96 169.05 C 148.42 169.77 149.37 169.98 150.09 169.53 C 150.81 169.07 151.02 168.12 150.56 167.40 L 149.98 166.47 C 149.52 165.75 148.57 165.54 147.85 166.00 C 147.13 166.45 146.92 167.41 147.37 168.12 Z M 148.01 169.03 L 148.52 169.82 C 148.97 170.52 149.89 170.72 150.58 170.27 C 151.27 169.83 151.47 168.91 151.03 168.21 L 150.52 167.42 C 150.07 166.73 149.15 166.53 148.46 166.97 C 147.77 167.41 147.56 168.34 148.01 169.03 Z M 148.56 169.80 L 148.75 170.09 C 149.18 170.76 150.08 170.96 150.75 170.52 C 151.41 170.09 151.61 169.20 151.17 168.53 L 150.98 168.24 C 150.55 167.57 149.66 167.38 148.99 167.81 C 148.32 168.24 148.13 169.13 148.56 169.80 Z"
      fill="black"
      fill-rule="nonzero" /><path d="M 153.13 163.76 L 153.68 164.53 C 154.18 165.26 155.17 165.43 155.90 164.93 C 156.62 164.43 156.79 163.43 156.29 162.71 L 155.75 161.94 C 155.24 161.21 154.25 161.04 153.53 161.54 C 152.81 162.04 152.63 163.04 153.13 163.76 Z M 153.57 164.39 L 154.06 165.29 C 154.48 166.07 155.46 166.37 156.24 165.94 C 157.02 165.52 157.31 164.54 156.89 163.76 L 156.40 162.86 C 155.97 162.08 155.00 161.79 154.22 162.21 C 153.44 162.63 153.15 163.61 153.57 164.39 Z M 154.00 165.14 L 154.38 166.07 C 154.72 166.88 155.66 167.27 156.47 166.93 C 157.29 166.59 157.67 165.65 157.33 164.84 L 156.95 163.91 C 156.61 163.10 155.67 162.71 154.86 163.05 C 154.04 163.39 153.66 164.33 154.00 165.14 Z M 154.39 166.00 L 154.74 166.96 C 155.04 167.77 155.95 168.18 156.76 167.88 C 157.57 167.58 157.99 166.67 157.69 165.86 L 157.33 164.90 C 157.03 164.09 156.12 163.68 155.31 163.98 C 154.50 164.28 154.08 165.19 154.39 166.00 Z M 154.76 166.93 L 155.09 167.84 C 155.38 168.64 156.26 169.05 157.07 168.76 C 157.87 168.47 158.28 167.58 157.99 166.78 L 157.66 165.88 C 157.37 165.08 156.49 164.67 155.69 164.96 C 154.89 165.25 154.47 166.13 154.76 166.93 Z M 155.12 167.83 L 155.47 168.79 C 155.76 169.57 156.63 169.98 157.41 169.69 C 158.19 169.40 158.60 168.53 158.31 167.75 L 157.96 166.79 C 157.67 166.01 156.80 165.60 156.02 165.89 C 155.24 166.18 154.83 167.04 155.12 167.83 Z M 155.50 168.79 L 155.83 169.68 C 156.12 170.45 156.97 170.84 157.74 170.56 C 158.51 170.27 158.90 169.41 158.62 168.64 L 158.29 167.75 C 158.00 166.98 157.14 166.59 156.37 166.87 C 155.60 167.16 155.21 168.02 155.50 168.79 Z M 155.85 169.68 L 156.20 170.62 C 156.49 171.38 157.34 171.76 158.10 171.48 C 158.86 171.19 159.24 170.34 158.95 169.58 L 158.60 168.64 C 158.31 167.88 157.46 167.50 156.70 167.79 C 155.95 168.07 155.56 168.92 155.85 169.68 Z M 156.22 170.61 L 156.59 171.60 C 156.88 172.35 157.71 172.73 158.47 172.45 C 159.22 172.16 159.59 171.32 159.31 170.57 L 158.94 169.59 C 158.65 168.83 157.81 168.46 157.06 168.74 C 156.31 169.03 155.93 169.86 156.22 170.61 Z M 156.60 171.60 L 156.66 171.75 C 156.94 172.50 157.77 172.87 158.52 172.59 C 159.26 172.31 159.64 171.47 159.36 170.73 L 159.30 170.58 C 159.02 169.83 158.18 169.46 157.44 169.74 C 156.69 170.02 156.32 170.85 156.60 171.60 Z"
      fill="black"
      fill-rule="nonzero" /><path d="M 163.19 162.56 L 163.71 163.44 C 164.14 164.18 165.08 164.43 165.82 163.99 C 166.55 163.56 166.80 162.62 166.37 161.88 L 165.86 161.01 C 165.43 160.27 164.48 160.02 163.75 160.45 C 163.01 160.88 162.76 161.83 163.19 162.56 Z M 163.66 163.43 L 164.15 164.30 C 164.57 165.06 165.53 165.33 166.29 164.91 C 167.05 164.48 167.32 163.52 166.90 162.76 L 166.42 161.89 C 165.99 161.13 165.03 160.86 164.27 161.29 C 163.51 161.71 163.24 162.67 163.66 163.43 Z M 164.11 164.24 L 164.57 165.16 C 164.96 165.94 165.91 166.26 166.69 165.87 C 167.48 165.48 167.79 164.52 167.40 163.74 L 166.94 162.82 C 166.55 162.04 165.60 161.72 164.81 162.11 C 164.03 162.51 163.71 163.46 164.11 164.24 Z M 164.55 165.07 L 164.95 165.99 C 165.30 166.78 166.22 167.15 167.01 166.80 C 167.80 166.46 168.16 165.54 167.82 164.75 L 167.42 163.83 C 167.07 163.04 166.15 162.68 165.36 163.02 C 164.57 163.36 164.21 164.28 164.55 165.07 Z M 164.96 165.90 L 165.31 166.83 C 165.60 167.62 166.48 168.02 167.26 167.72 C 168.05 167.43 168.45 166.55 168.15 165.77 L 167.81 164.84 C 167.52 164.05 166.64 163.65 165.85 163.95 C 165.07 164.24 164.67 165.12 164.96 165.90 Z M 165.31 166.73 L 165.60 167.67 C 165.84 168.45 166.67 168.89 167.45 168.65 C 168.23 168.42 168.67 167.59 168.43 166.81 L 168.15 165.87 C 167.91 165.08 167.08 164.64 166.30 164.88 C 165.52 165.12 165.08 165.95 165.31 166.73 Z M 165.61 167.58 L 165.84 168.53 C 166.02 169.31 166.81 169.79 167.59 169.60 C 168.37 169.42 168.85 168.63 168.66 167.85 L 168.43 166.90 C 168.24 166.12 167.46 165.64 166.68 165.83 C 165.90 166.01 165.42 166.80 165.61 167.58 Z M 165.84 168.49 L 166.03 169.35 C 166.19 170.13 166.95 170.63 167.72 170.46 C 168.50 170.30 169.00 169.54 168.83 168.76 L 168.65 167.90 C 168.49 167.12 167.73 166.63 166.95 166.79 C 166.18 166.95 165.68 167.71 165.84 168.49 Z"
      fill="black"
      fill-rule="nonzero" /></svg>