<svg xmlns="http://www.w3.org/2000/svg" width="300" height="300" viewBox="0 0 300 300">
<path d="M 136.30 122.71 L 137.14 123.13 C 137.87 123.51 138.77 123.21 139.14 122.48 C 139.51 121.74 139.22 120.85 138.48 120.48 L 137.65 120.05 C 136.91 119.68 136.02 119.97 135.65 120.71 C 135.27 121.44 135.57 122.34 136.30 122.71 Z M 137.37 123.24 L 138.34 123.54 C 139.13 123.78 139.97 123.33 140.22 122.54 C 140.46 121.75 140.01 120.91 139.22 120.66 L 138.25 120.37 C 137.46 120.13 136.62 120.57 136.37 121.37 C 136.13 122.16 136.58 123.00 137.37 123.24 Z M 138.54 123.58 L 139.49 123.73 C 140.31 123.86 141.07 123.31 141.21 122.49 C 141.34 121.68 140.78 120.91 139.97 120.78 L 139.02 120.63 C 138.20 120.49 137.44 121.05 137.30 121.86 C 137.17 122.68 137.73 123.44 138.54 123.58 Z M 139.55 123.72 L 140.62 123.85 C 141.43 123.94 142.16 123.37 142.26 122.56 C 142.36 121.75 141.78 121.02 140.97 120.92 L 139.91 120.79 C 139.10 120.69 138.36 121.27 138.27 122.08 C 138.17 122.88 138.74 123.62 139.55 123.72 Z M 140.61 123.83 L 141.60 123.96 C 142.40 124.06 143.13 123.49 143.23 122.69 C 143.33 121.89 142.77 121.16 141.97 121.06 L 140.98 120.94 C 140.18 120.83 139.45 121.40 139.35 122.20 C 139.25 123.00 139.81 123.73 140.61 123.83 Z M 141.59 123.94 L 142.58 124.08 C 143.37 124.19 144.10 123.63 144.21 122.84 C 144.32 122.05 143.77 121.32 142.97 121.21 L 141.98 121.08 C 141.19 120.97 140.46 121.52 140.35 122.31 C 140.24 123.10 140.80 123.83 141.59 123.94 Z M 142.57 124.07 L 143.43 124.19 C 144.21 124.30 144.94 123.75 145.05 122.97 C 145.16 122.19 144.62 121.46 143.83 121.35 L 142.98 121.23 C 142.20 121.11 141.47 121.66 141.36 122.44 C 141.25 123.23 141.79 123.95 142.57 124.07 Z"
      fill="black"
      fill-rule="nonzero" /><path d="M 139.26 135.64 L 140.21 135.91 C 141.00 136.14 141.83 135.68 142.06 134.89 C 142.29 134.09 141.83 133.27 141.04 133.04 L 140.09 132.76 C 139.30 132.54 138.47 132.99 138.24 133.79 C 138.01 134.58 138.47 135.41 139.26 135.64 Z M 139.41 135.43 L 139.96 136.13 C 140.49 136.79 141.47 136.90 142.13 136.37 C 142.80 135.84 142.91 134.87 142.38 134.20 L 141.83 133.51 C 141.30 132.84 140.33 132.73 139.66 133.26 C 138.99 133.80 138.88 134.77 139.41 135.43 Z M 139.65 135.53 L 139.88 136.49 C 140.08 137.33 140.93 137.85 141.77 137.65 C 142.61 137.44 143.13 136.60 142.93 135.75 L 142.70 134.80 C 142.49 133.96 141.64 133.44 140.80 133.64 C 139.96 133.85 139.45 134.69 139.65 135.53 Z M 139.84 136.31 L 139.97 137.41 C 140.07 138.28 140.85 138.89 141.72 138.79 C 142.58 138.69 143.20 137.91 143.10 137.04 L 142.97 135.94 C 142.87 135.07 142.08 134.46 141.22 134.56 C 140.36 134.66 139.74 135.44 139.84 136.31 Z M 139.96 137.36 L 140.05 138.39 C 140.12 139.26 140.89 139.90 141.76 139.83 C 142.63 139.75 143.27 138.99 143.20 138.12 L 143.11 137.09 C 143.03 136.22 142.27 135.58 141.40 135.65 C 140.53 135.73 139.89 136.49 139.96 137.36 Z M 140.05 138.36 L 140.12 139.35 C 140.18 140.22 140.93 140.87 141.80 140.81 C 142.67 140.75 143.32 140.00 143.26 139.13 L 143.20 138.15 C 143.14 137.28 142.38 136.62 141.51 136.68 C 140.64 136.74 139.99 137.49 140.05 138.36 Z M 140.11 139.32 L 140.17 140.35 C 140.21 141.22 140.96 141.88 141.83 141.84 C 142.70 141.79 143.37 141.05 143.32 140.18 L 143.27 139.16 C 143.22 138.29 142.48 137.62 141.61 137.66 C 140.74 137.71 140.07 138.45 140.11 139.32 Z M 140.17 140.32 L 140.20 141.29 C 140.24 142.16 140.97 142.84 141.84 142.81 C 142.71 142.77 143.39 142.04 143.36 141.17 L 143.32 140.20 C 143.29 139.33 142.55 138.65 141.68 138.69 C 140.81 138.72 140.13 139.45 140.17 140.32 Z M 140.20 141.28 L 140.24 142.24 C 140.26 143.11 140.99 143.80 141.86 143.77 C 142.73 143.74 143.42 143.01 143.39 142.14 L 143.36 141.18 C 143.33 140.31 142.60 139.63 141.73 139.65 C 140.86 139.68 140.18 140.41 140.20 141.28 Z M 140.24 142.24 L 140.27 143.24 C 140.29 144.12 141.02 144.80 141.89 144.77 C 142.76 144.75 143.45 144.02 143.42 143.15 L 143.39 142.14 C 143.36 141.27 142.63 140.59 141.76 140.61 C 140.89 140.64 140.21 141.37 140.24 142.24 Z M 140.27 143.24 L 140.29 144.23 C 140.32 145.10 141.05 145.79 141.92 145.76 C 142.79 145.74 143.47 145.01 143.45 144.14 L 143.42 143.15 C 143.39 142.28 142.67 141.59 141.80 141.62 C 140.93 141.64 140.24 142.37 140.27 143.24 Z M 140.29 144.22 L 140.32 145.22 C 140.34 146.09 141.06 146.78 141.93 146.76 C 142.80 146.74 143.49 146.02 143.47 145.14 L 143.45 144.15 C 143.43 143.28 142.70 142.59 141.83 142.61 C 140.96 142.63 140.27 143.35 140.29 144.22 Z M 140.32 145.21 L 140.33 146.23 C 140.35 147.10 141.06 147.79 141.93 147.78 C 142.81 147.77 143.50 147.05 143.49 146.18 L 143.47 145.16 C 143.46 144.29 142.74 143.59 141.87 143.60 C 141.00 143.62 140.30 144.33 140.32 145.21 Z M 140.33 146.21 L 140.34 147.21 C 140.34 148.08 141.05 148.79 141.93 148.78 C 142.80 148.78 143.50 148.07 143.49 147.20 L 143.49 146.19 C 143.48 145.32 142.77 144.62 141.90 144.63 C 141.03 144.63 140.33 145.34 140.33 146.21 Z M 140.34 147.21 L 140.34 148.21 C 140.34 149.08 141.05 149.79 141.92 149.79 C 142.79 149.79 143.50 149.08 143.50 148.21 L 143.49 147.20 C 143.49 146.33 142.79 145.62 141.91 145.63 C 141.04 145.63 140.34 146.33 140.34 147.21 Z M 140.34 148.21 L 140.34 149.23 C 140.34 150.10 141.04 150.81 141.92 150.81 C 142.79 150.81 143.50 150.10 143.50 149.23 L 143.50 148.21 C 143.50 147.34 142.79 146.63 141.92 146.63 C 141.04 146.63 140.34 147.34 140.34 148.21 Z M 140.34 149.23 L 140.34 150.22 C 140.34 151.09 141.04 151.80 141.92 151.80 C 142.79 151.80 143.50 151.09 143.50 150.22 L 143.50 149.23 C 143.50 148.35 142.79 147.65 141.92 147.65 C 141.04 147.65 140.34 148.35 140.34 149.23 Z M 140.34 150.22 L 140.34 151.22 C 140.34 152.09 141.04 152.80 141.92 152.80 C 142.79 152.80 143.50 152.09 143.50 151.22 L 143.50 150.22 C 143.50 149.35 142.79 148.64 141.92 148.64 C 141.04 148.64 140.34 149.35 140.34 150.22 Z M 140.34 151.22 L 140.34 152.23 C 140.34 153.10 141.05 153.81 141.92 153.81 C 142.79 153.81 143.50 153.10 143.50 152.23 L 143.50 151.22 C 143.50 150.35 142.79 149.64 141.92 149.64 C 141.05 149.64 140.34 150.35 140.34 151.22 Z M 140.34 152.23 L 140.34 153.22 C 140.34 154.09 141.05 154.80 141.92 154.80 C 142.79 154.80 143.49 154.09 143.49 153.22 L 143.49 152.23 C 143.49 151.35 142.79 150.65 141.92 150.65 C 141.05 150.65 140.34 151.35 140.34 152.23 Z M 140.34 153.22 L 140.34 154.24 C 140.34 155.11 141.05 155.81 141.92 155.81 C 142.79 155.81 143.49 155.11 143.49 154.24 L 143.49 153.22 C 143.49 152.35 142.79 151.64 141.92 151.64 C 141.05 151.64 140.34 152.35 140.34 153.22 Z M 140.35 154.24 L 140.35 155.21 C 140.35 156.08 141.05 156.78 141.92 156.78 C 142.78 156.78 143.49 156.08 143.49 155.21 L 143.49 154.24 C 143.49 153.37 142.78 152.66 141.92 152.66 C 141.05 152.66 140.35 153.37 140.35 154.24 Z M 140.35 155.21 L 140.35 156.24 C 140.35 157.10 141.05 157.80 141.91 157.81 C 142.78 157.81 143.48 157.11 143.48 156.24 L 143.48 155.22 C 143.48 154.35 142.78 153.65 141.92 153.65 C 141.05 153.65 140.35 154.35 140.35 155.21 Z M 140.35 156.22 L 140.34 157.20 C 140.33 158.06 141.02 158.77 141.89 158.78 C 142.75 158.79 143.45 158.10 143.46 157.24 L 143.48 156.26 C 143.49 155.40 142.80 154.69 141.93 154.68 C 141.07 154.67 140.37 155.36 140.35 156.22 Z M 140.35 157.17 L 140.32 158.17 C 140.29 159.03 140.96 159.74 141.82 159.77 C 142.68 159.80 143.40 159.13 143.43 158.27 L 143.46 157.27 C 143.48 156.41 142.81 155.69 141.95 155.66 C 141.10 155.64 140.38 156.31 140.35 157.17 Z M 140.33 158.14 L 140.27 159.10 C 140.23 159.96 140.88 160.69 141.74 160.73 C 142.59 160.78 143.32 160.12 143.36 159.27 L 143.42 158.30 C 143.46 157.45 142.81 156.72 141.95 156.67 C 141.10 156.63 140.37 157.28 140.33 158.14 Z M 140.28 159.09 L 140.22 160.09 C 140.17 160.94 140.82 161.67 141.66 161.72 C 142.51 161.77 143.24 161.13 143.29 160.28 L 143.35 159.28 C 143.41 158.43 142.76 157.71 141.91 157.65 C 141.07 157.60 140.34 158.25 140.28 159.09 Z M 140.23 160.14 L 140.20 161.34 C 140.17 162.19 140.83 162.89 141.68 162.92 C 142.52 162.94 143.23 162.28 143.25 161.43 L 143.29 160.23 C 143.31 159.38 142.65 158.68 141.80 158.66 C 140.96 158.63 140.25 159.30 140.23 160.14 Z M 140.69 162.50 L 140.96 162.75 C 141.58 163.32 142.54 163.28 143.11 162.67 C 143.68 162.06 143.64 161.10 143.02 160.53 L 142.75 160.28 C 142.14 159.71 141.18 159.74 140.61 160.36 C 140.04 160.97 140.08 161.93 140.69 162.50 Z M 143.28 162.40 L 143.66 161.76 C 144.09 161.05 143.85 160.13 143.14 159.71 C 142.44 159.28 141.52 159.52 141.10 160.23 L 140.71 160.87 C 140.29 161.58 140.52 162.50 141.23 162.92 C 141.94 163.34 142.85 163.11 143.28 162.40 Z M 143.70 161.63 L 144.20 160.58 C 144.55 159.85 144.24 158.98 143.52 158.63 C 142.79 158.28 141.91 158.58 141.56 159.31 L 141.06 160.36 C 140.71 161.08 141.02 161.96 141.74 162.31 C 142.47 162.66 143.35 162.35 143.70 161.63 Z M 144.19 160.55 L 144.55 159.75 C 144.88 159.03 144.56 158.18 143.84 157.85 C 143.12 157.52 142.27 157.84 141.94 158.56 L 141.57 159.35 C 141.24 160.07 141.56 160.93 142.28 161.26 C 143.01 161.59 143.86 161.27 144.19 160.55 Z"
      fill="black"
      fill-rule="nonzero" /><path d="M 150.95 135.61 L 151.52 136.37 C 152.01 137.03 152.94 137.16 153.60 136.67 C 154.26 136.18 154.39 135.25 153.90 134.59 L 153.33 133.83 C 152.84 133.17 151.90 133.04 151.25 133.53 C 150.59 134.03 150.46 134.96 150.95 135.61 Z M 151.51 136.47 L 152.18 137.28 C 152.72 137.94 153.70 138.03 154.36 137.49 C 155.02 136.94 155.12 135.97 154.57 135.31 L 153.91 134.50 C 153.36 133.84 152.38 133.74 151.72 134.29 C 151.06 134.83 150.97 135.81 151.51 136.47 Z M 152.21 137.37 L 152.89 138.10 C 153.48 138.75 154.49 138.79 155.13 138.20 C 155.77 137.60 155.81 136.60 155.22 135.96 L 154.54 135.22 C 153.95 134.57 152.95 134.53 152.30 135.13 C 151.66 135.72 151.62 136.72 152.21 137.37 Z M 152.92 138.14 L 153.62 138.87 C 154.24 139.50 155.24 139.51 155.87 138.90 C 156.50 138.29 156.52 137.28 155.90 136.65 L 155.20 135.92 C 154.58 135.29 153.58 135.28 152.95 135.89 C 152.32 136.50 152.30 137.51 152.92 138.14 Z M 153.63 138.87 L 154.34 139.60 C 154.95 140.23 155.96 140.25 156.59 139.63 C 157.22 139.02 157.23 138.01 156.62 137.38 L 155.90 136.65 C 155.29 136.02 154.28 136.01 153.65 136.62 C 153.02 137.24 153.01 138.24 153.63 138.87 Z M 154.32 139.59 L 154.99 140.29 C 155.59 140.93 156.60 140.96 157.24 140.35 C 157.88 139.75 157.91 138.74 157.30 138.10 L 156.64 137.39 C 156.03 136.76 155.02 136.73 154.38 137.33 C 153.74 137.94 153.71 138.95 154.32 139.59 Z M 154.96 140.27 L 155.61 140.98 C 156.20 141.63 157.21 141.68 157.86 141.09 C 158.51 140.49 158.56 139.49 157.97 138.83 L 157.33 138.12 C 156.74 137.47 155.73 137.42 155.07 138.01 C 154.42 138.61 154.37 139.62 154.96 140.27 Z M 155.59 140.95 L 156.26 141.71 C 156.84 142.38 157.84 142.44 158.50 141.86 C 159.17 141.28 159.23 140.28 158.65 139.62 L 157.99 138.86 C 157.41 138.19 156.40 138.13 155.74 138.71 C 155.08 139.29 155.01 140.29 155.59 140.95 Z M 156.25 141.70 L 156.90 142.46 C 157.47 143.13 158.47 143.21 159.14 142.64 C 159.80 142.07 159.88 141.07 159.31 140.40 L 158.66 139.63 C 158.09 138.97 157.09 138.89 156.42 139.46 C 155.76 140.03 155.68 141.03 156.25 141.70 Z M 156.89 142.45 L 157.53 143.21 C 158.09 143.88 159.09 143.97 159.76 143.40 C 160.43 142.84 160.52 141.84 159.96 141.17 L 159.32 140.41 C 158.76 139.74 157.76 139.65 157.09 140.22 C 156.42 140.78 156.33 141.78 156.89 142.45 Z M 157.53 143.20 L 158.18 143.98 C 158.74 144.65 159.74 144.74 160.41 144.19 C 161.08 143.63 161.17 142.63 160.61 141.96 L 159.96 141.18 C 159.40 140.51 158.41 140.42 157.74 140.98 C 157.07 141.54 156.98 142.53 157.53 143.20 Z M 158.19 143.98 L 158.83 144.75 C 159.39 145.42 160.38 145.51 161.05 144.95 C 161.72 144.40 161.81 143.40 161.25 142.74 L 160.61 141.97 C 160.05 141.30 159.06 141.21 158.39 141.76 C 157.72 142.32 157.63 143.31 158.19 143.98 Z M 158.84 144.75 L 159.48 145.52 C 160.03 146.19 161.03 146.27 161.69 145.72 C 162.36 145.16 162.44 144.17 161.89 143.50 L 161.25 142.74 C 160.69 142.07 159.70 141.98 159.03 142.54 C 158.37 143.10 158.28 144.09 158.84 144.75 Z M 159.48 145.52 L 160.14 146.30 C 160.69 146.96 161.68 147.05 162.35 146.49 C 163.01 145.93 163.10 144.95 162.54 144.28 L 161.88 143.50 C 161.33 142.84 160.34 142.75 159.67 143.31 C 159.01 143.87 158.92 144.86 159.48 145.52 Z M 160.13 146.29 L 160.76 147.05 C 161.32 147.72 162.30 147.81 162.97 147.26 C 163.64 146.71 163.73 145.72 163.18 145.05 L 162.54 144.29 C 161.99 143.62 161.00 143.53 160.34 144.09 C 159.67 144.64 159.58 145.63 160.13 146.29 Z M 160.75 147.03 L 161.37 147.81 C 161.91 148.48 162.89 148.59 163.57 148.05 C 164.24 147.51 164.35 146.53 163.81 145.85 L 163.19 145.08 C 162.65 144.40 161.67 144.29 160.99 144.83 C 160.32 145.37 160.21 146.36 160.75 147.03 Z M 161.36 147.79 L 161.97 148.58 C 162.50 149.26 163.48 149.38 164.17 148.85 C 164.85 148.32 164.97 147.34 164.44 146.66 L 163.83 145.87 C 163.30 145.19 162.31 145.07 161.63 145.60 C 160.95 146.13 160.83 147.11 161.36 147.79 Z M 161.98 148.58 L 162.59 149.37 C 163.13 150.05 164.11 150.17 164.79 149.64 C 165.46 149.10 165.58 148.12 165.05 147.44 L 164.43 146.66 C 163.90 145.98 162.92 145.86 162.24 146.39 C 161.56 146.92 161.45 147.91 161.98 148.58 Z M 162.60 149.38 L 163.23 150.16 C 163.77 150.84 164.75 150.95 165.42 150.41 C 166.09 149.87 166.20 148.89 165.67 148.22 L 165.04 147.43 C 164.50 146.76 163.52 146.65 162.85 147.19 C 162.18 147.73 162.07 148.71 162.60 149.38 Z M 163.23 150.16 L 163.86 150.94 C 164.39 151.61 165.37 151.72 166.05 151.19 C 166.72 150.65 166.82 149.67 166.29 149.00 L 165.66 148.22 C 165.13 147.55 164.15 147.44 163.48 147.98 C 162.80 148.51 162.70 149.49 163.23 150.16 Z M 163.85 150.93 L 164.48 151.72 C 165.01 152.39 165.98 152.51 166.65 151.98 C 167.33 151.45 167.44 150.47 166.91 149.80 L 166.29 149.01 C 165.76 148.34 164.79 148.22 164.11 148.75 C 163.44 149.28 163.32 150.26 163.85 150.93 Z M 164.47 151.70 L 165.07 152.48 C 165.59 153.16 166.55 153.29 167.23 152.77 C 167.91 152.26 168.04 151.29 167.52 150.61 L 166.92 149.82 C 166.40 149.15 165.43 149.02 164.76 149.53 C 164.08 150.05 163.95 151.02 164.47 151.70 Z M 165.06 152.46 L 165.66 153.26 C 166.16 153.94 167.12 154.09 167.80 153.58 C 168.48 153.08 168.63 152.12 168.12 151.44 L 167.53 150.63 C 167.02 149.95 166.06 149.81 165.38 150.31 C 164.70 150.82 164.56 151.78 165.06 152.46 Z M 165.66 153.26 L 166.24 154.04 C 166.74 154.72 167.70 154.86 168.38 154.36 C 169.05 153.86 169.20 152.90 168.70 152.23 L 168.12 151.44 C 167.62 150.76 166.66 150.62 165.98 151.12 C 165.30 151.62 165.16 152.58 165.66 153.26 Z M 166.26 154.05 L 166.85 154.83 C 167.35 155.50 168.30 155.63 168.97 155.13 C 169.64 154.62 169.78 153.67 169.27 153.00 L 168.68 152.22 C 168.18 151.55 167.22 151.42 166.56 151.92 C 165.89 152.43 165.75 153.38 166.26 154.05 Z M 166.87 154.84 L 167.51 155.66 C 168.02 156.32 168.97 156.44 169.63 155.92 C 170.28 155.41 170.40 154.47 169.89 153.81 L 169.25 152.99 C 168.74 152.33 167.79 152.22 167.13 152.73 C 166.48 153.24 166.36 154.19 166.87 154.84 Z M 167.53 155.68 L 168.18 156.47 C 168.70 157.12 169.64 157.22 170.28 156.70 C 170.93 156.17 171.03 155.23 170.51 154.59 L 169.86 153.79 C 169.34 153.15 168.40 153.05 167.76 153.57 C 167.11 154.09 167.01 155.03 167.53 155.68 Z M 168.20 156.50 L 168.84 157.25 C 169.37 157.88 170.32 157.95 170.94 157.42 C 171.57 156.89 171.65 155.94 171.12 155.32 L 170.48 154.56 C 169.94 153.94 169.00 153.86 168.37 154.39 C 167.75 154.93 167.67 155.87 168.20 156.50 Z M 168.91 157.31 L 169.63 158.06 C 170.20 158.65 171.14 158.67 171.73 158.11 C 172.32 157.54 172.34 156.60 171.77 156.01 L 171.05 155.25 C 170.48 154.66 169.54 154.64 168.95 155.21 C 168.36 155.78 168.34 156.72 168.91 157.31 Z M 169.85 158.24 L 170.62 158.78 C 171.28 159.25 172.20 159.10 172.67 158.44 C 173.15 157.77 172.99 156.85 172.33 156.38 L 171.55 155.83 C 170.89 155.36 169.97 155.52 169.50 156.18 C 169.03 156.85 169.19 157.77 169.85 158.24 Z M 170.95 158.95 L 171.86 159.30 C 172.61 159.59 173.46 159.21 173.75 158.46 C 174.04 157.70 173.66 156.86 172.91 156.57 L 172.00 156.22 C 171.25 155.93 170.40 156.30 170.11 157.06 C 169.82 157.81 170.20 158.66 170.95 158.95 Z M 172.02 159.34 L 172.94 159.57 C 173.71 159.77 174.50 159.30 174.70 158.52 C 174.90 157.75 174.43 156.96 173.66 156.76 L 172.74 156.53 C 171.97 156.33 171.18 156.80 170.98 157.57 C 170.78 158.35 171.25 159.14 172.02 159.34 Z"
      fill="black"
      fill-rule="nonzero" /><path d="M 172.96 130.86 L 172.30 131.51 C 171.70 132.10 171.69 133.06 172.28 133.66 C 172.87 134.26 173.83 134.27 174.43 133.68 L 175.09 133.04 C 175.69 132.45 175.70 131.49 175.11 130.89 C 174.52 130.29 173.56 130.28 172.96 130.86 Z M 172.16 131.53 L 171.46 132.34 C 170.87 133.00 170.93 134.01 171.60 134.60 C 172.26 135.18 173.27 135.12 173.86 134.46 L 174.56 133.66 C 175.15 132.99 175.09 131.98 174.43 131.39 C 173.76 130.81 172.75 130.87 172.16 131.53 Z M 171.35 132.40 L 170.76 133.18 C 170.20 133.90 170.34 134.93 171.06 135.48 C 171.79 136.03 172.82 135.89 173.37 135.17 L 173.96 134.39 C 174.51 133.67 174.37 132.64 173.65 132.09 C 172.93 131.54 171.90 131.68 171.35 132.40 Z M 170.72 133.22 L 170.12 134.06 C 169.59 134.80 169.76 135.83 170.51 136.36 C 171.25 136.89 172.28 136.72 172.81 135.97 L 173.41 135.13 C 173.94 134.39 173.76 133.36 173.02 132.83 C 172.28 132.30 171.24 132.47 170.72 133.22 Z M 170.10 134.08 L 169.52 134.93 C 169.00 135.69 169.19 136.72 169.95 137.23 C 170.70 137.75 171.73 137.56 172.25 136.80 L 172.83 135.95 C 173.35 135.20 173.15 134.17 172.40 133.65 C 171.64 133.13 170.61 133.33 170.10 134.08 Z M 169.51 134.94 L 168.95 135.77 C 168.44 136.53 168.65 137.56 169.41 138.07 C 170.17 138.58 171.19 138.37 171.70 137.61 L 172.26 136.79 C 172.77 136.03 172.57 135.00 171.81 134.49 C 171.05 133.98 170.02 134.18 169.51 134.94 Z M 168.96 135.77 L 168.42 136.56 C 167.91 137.32 168.11 138.35 168.87 138.86 C 169.63 139.37 170.65 139.17 171.16 138.41 L 171.70 137.61 C 172.21 136.86 172.01 135.83 171.25 135.32 C 170.50 134.81 169.47 135.01 168.96 135.77 Z M 168.43 136.55 L 167.89 137.35 C 167.37 138.10 167.56 139.12 168.31 139.64 C 169.06 140.16 170.09 139.97 170.61 139.22 L 171.15 138.42 C 171.67 137.67 171.48 136.64 170.73 136.13 C 169.98 135.61 168.95 135.80 168.43 136.55 Z M 167.90 137.34 L 167.31 138.19 C 166.79 138.93 166.97 139.95 167.71 140.47 C 168.46 140.99 169.48 140.81 170.00 140.07 L 170.59 139.22 C 171.11 138.48 170.93 137.46 170.19 136.94 C 169.44 136.42 168.42 136.60 167.90 137.34 Z M 167.32 138.18 L 166.75 138.98 C 166.23 139.72 166.41 140.74 167.14 141.26 C 167.88 141.78 168.90 141.61 169.42 140.87 L 169.99 140.07 C 170.51 139.33 170.34 138.31 169.60 137.79 C 168.86 137.27 167.84 137.44 167.32 138.18 Z M 166.76 138.98 L 166.18 139.80 C 165.66 140.53 165.84 141.54 166.57 142.07 C 167.30 142.59 168.32 142.41 168.84 141.68 L 169.42 140.87 C 169.94 140.14 169.76 139.12 169.03 138.60 C 168.30 138.08 167.28 138.25 166.76 138.98 Z M 166.19 139.80 L 165.59 140.65 C 165.07 141.38 165.24 142.39 165.98 142.91 C 166.71 143.43 167.72 143.25 168.24 142.52 L 168.84 141.67 C 169.35 140.94 169.18 139.93 168.45 139.41 C 167.72 138.90 166.70 139.07 166.19 139.80 Z M 165.59 140.66 L 165.03 141.46 C 164.52 142.19 164.70 143.20 165.43 143.71 C 166.16 144.22 167.17 144.04 167.68 143.31 L 168.24 142.51 C 168.75 141.78 168.57 140.77 167.84 140.26 C 167.11 139.75 166.10 139.93 165.59 140.66 Z M 165.03 141.46 L 164.46 142.27 C 163.95 143.00 164.13 144.01 164.86 144.52 C 165.59 145.03 166.59 144.85 167.10 144.13 L 167.68 143.31 C 168.19 142.58 168.01 141.57 167.28 141.06 C 166.55 140.55 165.55 140.73 165.03 141.46 Z M 164.47 142.27 L 163.88 143.10 C 163.36 143.83 163.53 144.83 164.25 145.35 C 164.98 145.86 165.98 145.69 166.50 144.97 L 167.09 144.13 C 167.61 143.41 167.44 142.40 166.72 141.89 C 165.99 141.37 164.99 141.54 164.47 142.27 Z M 163.89 143.09 L 163.32 143.87 C 162.79 144.59 162.95 145.60 163.67 146.12 C 164.39 146.64 165.39 146.48 165.91 145.77 L 166.48 144.98 C 167.01 144.26 166.85 143.26 166.13 142.74 C 165.42 142.22 164.41 142.37 163.89 143.09 Z M 163.33 143.86 L 162.74 144.65 C 162.21 145.36 162.36 146.37 163.07 146.89 C 163.78 147.42 164.78 147.28 165.31 146.57 L 165.90 145.78 C 166.43 145.07 166.28 144.06 165.57 143.54 C 164.86 143.01 163.86 143.15 163.33 143.86 Z M 162.75 144.64 L 162.14 145.45 C 161.60 146.16 161.74 147.16 162.44 147.70 C 163.15 148.23 164.15 148.09 164.68 147.39 L 165.30 146.58 C 165.84 145.87 165.70 144.87 164.99 144.33 C 164.29 143.80 163.29 143.94 162.75 144.64 Z M 162.14 145.44 L 161.52 146.26 C 160.98 146.95 161.11 147.96 161.81 148.50 C 162.51 149.04 163.51 148.91 164.05 148.21 L 164.68 147.40 C 165.22 146.70 165.09 145.69 164.39 145.15 C 163.69 144.61 162.68 144.74 162.14 145.44 Z M 161.52 146.25 L 160.91 147.04 C 160.37 147.73 160.49 148.74 161.19 149.28 C 161.89 149.82 162.89 149.70 163.43 149.00 L 164.05 148.21 C 164.59 147.52 164.46 146.51 163.77 145.97 C 163.07 145.43 162.07 145.55 161.52 146.25 Z M 160.91 147.03 L 160.29 147.83 C 159.74 148.52 159.87 149.53 160.56 150.07 C 161.26 150.62 162.26 150.50 162.81 149.80 L 163.43 149.00 C 163.98 148.31 163.85 147.30 163.16 146.76 C 162.46 146.21 161.46 146.34 160.91 147.03 Z M 160.29 147.82 L 159.67 148.61 C 159.12 149.31 159.24 150.32 159.94 150.86 C 160.64 151.41 161.64 151.29 162.19 150.59 L 162.81 149.80 C 163.36 149.11 163.23 148.10 162.54 147.55 C 161.84 147.01 160.84 147.13 160.29 147.82 Z M 159.67 148.62 L 159.04 149.42 C 158.50 150.11 158.62 151.12 159.31 151.66 C 160.01 152.21 161.01 152.09 161.56 151.39 L 162.19 150.59 C 162.73 149.90 162.61 148.89 161.92 148.34 C 161.22 147.80 160.22 147.92 159.67 148.62 Z M 159.04 149.42 L 158.42 150.22 C 157.87 150.91 158.00 151.92 158.69 152.46 C 159.39 153.00 160.39 152.88 160.93 152.19 L 161.56 151.39 C 162.10 150.70 161.98 149.69 161.29 149.15 C 160.59 148.60 159.59 148.72 159.04 149.42 Z M 158.42 150.22 L 157.81 151.00 C 157.27 151.69 157.39 152.69 158.08 153.24 C 158.77 153.78 159.78 153.66 160.32 152.97 L 160.93 152.19 C 161.47 151.49 161.35 150.49 160.66 149.95 C 159.97 149.41 158.97 149.53 158.42 150.22 Z M 157.82 151.00 L 157.21 151.76 C 156.67 152.45 156.79 153.45 157.48 154.00 C 158.17 154.54 159.17 154.42 159.71 153.73 L 160.31 152.97 C 160.86 152.28 160.74 151.28 160.05 150.73 C 159.36 150.19 158.36 150.31 157.82 151.00 Z M 157.22 151.77 L 156.59 152.57 C 156.04 153.25 156.16 154.25 156.84 154.79 C 157.53 155.33 158.52 155.22 159.07 154.53 L 159.70 153.73 C 160.24 153.05 160.13 152.05 159.44 151.51 C 158.76 150.97 157.76 151.08 157.22 151.77 Z M 156.60 152.57 L 155.97 153.36 C 155.43 154.04 155.54 155.02 156.22 155.57 C 156.90 156.11 157.89 155.99 158.43 155.32 L 159.06 154.53 C 159.60 153.85 159.48 152.86 158.81 152.32 C 158.13 151.78 157.14 151.89 156.60 152.57 Z M 155.98 153.36 L 155.37 154.13 C 154.83 154.80 154.94 155.78 155.61 156.32 C 156.28 156.86 157.27 156.75 157.81 156.08 L 158.42 155.31 C 158.96 154.64 158.85 153.66 158.18 153.12 C 157.50 152.58 156.52 152.69 155.98 153.36 Z M 155.38 154.13 L 154.74 154.93 C 154.20 155.60 154.31 156.57 154.98 157.11 C 155.64 157.65 156.62 157.54 157.16 156.87 L 157.80 156.07 C 158.33 155.41 158.23 154.43 157.56 153.89 C 156.89 153.36 155.91 153.46 155.38 154.13 Z M 154.75 154.93 L 154.11 155.73 C 153.58 156.39 153.68 157.36 154.34 157.89 C 155.01 158.43 155.98 158.32 156.51 157.66 L 157.15 156.87 C 157.68 156.20 157.58 155.23 156.91 154.70 C 156.25 154.16 155.28 154.27 154.75 154.93 Z M 154.12 155.73 L 153.51 156.49 C 152.98 157.15 153.08 158.11 153.74 158.64 C 154.40 159.17 155.36 159.07 155.89 158.41 L 156.50 157.65 C 157.03 156.99 156.93 156.03 156.27 155.50 C 155.61 154.97 154.65 155.07 154.12 155.73 Z M 153.52 156.49 L 152.87 157.29 C 152.35 157.94 152.45 158.90 153.10 159.43 C 153.76 159.96 154.72 159.85 155.24 159.20 L 155.89 158.40 C 156.41 157.75 156.31 156.79 155.65 156.26 C 155.00 155.74 154.04 155.84 153.52 156.49 Z M 152.88 157.30 L 152.25 158.08 C 151.72 158.74 151.83 159.69 152.48 160.21 C 153.13 160.73 154.08 160.63 154.60 159.98 L 155.24 159.19 C 155.76 158.54 155.66 157.59 155.01 157.07 C 154.36 156.54 153.41 156.65 152.88 157.30 Z M 152.25 158.09 L 151.66 158.83 C 151.14 159.48 151.24 160.42 151.89 160.94 C 152.54 161.46 153.48 161.36 154.00 160.71 L 154.60 159.97 C 155.12 159.33 155.01 158.38 154.37 157.86 C 153.72 157.34 152.77 157.44 152.25 158.09 Z M 151.66 158.84 L 151.03 159.63 C 150.52 160.28 150.62 161.21 151.27 161.73 C 151.91 162.24 152.85 162.14 153.37 161.49 L 154.00 160.70 C 154.51 160.06 154.41 159.12 153.76 158.60 C 153.12 158.09 152.18 158.20 151.66 158.84 Z M 151.03 159.66 L 150.42 160.44 C 149.92 161.08 150.04 162.02 150.69 162.52 C 151.34 163.02 152.27 162.90 152.77 162.25 L 153.37 161.47 C 153.87 160.82 153.75 159.89 153.11 159.39 C 152.46 158.89 151.53 159.01 151.03 159.66 Z M 150.41 160.47 L 149.83 161.27 C 149.35 161.92 149.49 162.84 150.15 163.32 C 150.80 163.80 151.72 163.66 152.20 163.00 L 152.78 162.21 C 153.26 161.56 153.12 160.64 152.47 160.16 C 151.81 159.67 150.89 159.82 150.41 160.47 Z M 149.82 161.29 L 149.24 162.12 C 148.78 162.78 148.94 163.69 149.59 164.15 C 150.25 164.62 151.17 164.46 151.63 163.80 L 152.21 162.98 C 152.68 162.32 152.52 161.41 151.86 160.94 C 151.20 160.48 150.29 160.63 149.82 161.29 Z M 149.24 162.13 L 148.91 162.61 C 148.45 163.27 148.61 164.18 149.27 164.63 C 149.93 165.09 150.83 164.93 151.29 164.27 L 151.63 163.79 C 152.09 163.13 151.93 162.22 151.27 161.76 C 150.61 161.31 149.70 161.47 149.24 162.13 Z"
      fill="black"
      fill-rule="nonzero" /></svg>