<svg xmlns="http://www.w3.org/2000/svg" width="300" height="300" viewBox="0 0 300 300">
<path d="M 150.01 128.84 L 150.09 129.73 C 150.16 130.57 150.91 131.20 151.75 131.12 C 152.59 131.05 153.21 130.31 153.14 129.46 L 153.06 128.58 C 152.99 127.73 152.25 127.11 151.41 127.18 C 150.56 127.26 149.94 128.00 150.01 128.84 Z M 150.05 129.72 L 150.13 130.80 C 150.19 131.66 150.95 132.31 151.82 132.25 C 152.68 132.18 153.33 131.43 153.27 130.56 L 153.19 129.48 C 153.12 128.61 152.37 127.96 151.50 128.03 C 150.63 128.09 149.98 128.85 150.05 129.72 Z M 150.10 130.78 L 150.17 131.74 C 150.22 132.62 150.98 133.29 151.87 133.23 C 152.75 133.17 153.41 132.41 153.36 131.53 L 153.29 130.57 C 153.24 129.69 152.47 129.02 151.59 129.08 C 150.71 129.14 150.05 129.90 150.10 130.78 Z M 150.16 131.73 L 150.22 132.77 C 150.27 133.65 151.03 134.33 151.91 134.28 C 152.80 134.23 153.47 133.47 153.42 132.58 L 153.36 131.54 C 153.31 130.66 152.55 129.98 151.67 130.03 C 150.78 130.08 150.11 130.84 150.16 131.73 Z M 150.21 132.75 L 150.26 133.79 C 150.30 134.67 151.06 135.36 151.95 135.32 C 152.83 135.28 153.52 134.52 153.48 133.63 L 153.43 132.60 C 153.39 131.71 152.63 131.02 151.74 131.07 C 150.86 131.11 150.17 131.86 150.21 132.75 Z M 150.26 133.77 L 150.29 134.76 C 150.32 135.65 151.07 136.35 151.96 136.31 C 152.85 136.28 153.55 135.54 153.52 134.64 L 153.48 133.65 C 153.45 132.76 152.70 132.06 151.81 132.10 C 150.92 132.13 150.22 132.87 150.26 133.77 Z M 150.29 134.74 L 150.31 135.73 C 150.34 136.62 151.08 137.33 151.97 137.31 C 152.87 137.28 153.57 136.54 153.55 135.65 L 153.52 134.66 C 153.50 133.77 152.76 133.06 151.86 133.08 C 150.97 133.11 150.26 133.85 150.29 134.74 Z M 150.31 135.72 L 150.33 136.70 C 150.35 137.59 151.09 138.30 151.99 138.28 C 152.88 138.26 153.59 137.52 153.57 136.63 L 153.55 135.65 C 153.53 134.76 152.79 134.05 151.89 134.07 C 151.00 134.09 150.29 134.83 150.31 135.72 Z M 150.33 136.69 L 150.35 137.68 C 150.36 138.58 151.11 139.29 152.00 139.27 C 152.90 139.25 153.61 138.51 153.59 137.62 L 153.57 136.63 C 153.56 135.73 152.82 135.02 151.92 135.04 C 151.02 135.06 150.31 135.80 150.33 136.69 Z M 150.34 137.67 L 150.36 138.70 C 150.37 139.60 151.11 140.31 152.01 140.30 C 152.91 140.29 153.63 139.55 153.61 138.65 L 153.60 137.62 C 153.58 136.73 152.84 136.01 151.95 136.02 C 151.05 136.04 150.33 136.78 150.34 137.67 Z M 150.36 138.69 L 150.37 139.70 C 150.38 140.60 151.11 141.32 152.01 141.32 C 152.91 141.31 153.63 140.57 153.62 139.67 L 153.61 138.66 C 153.61 137.76 152.87 137.04 151.97 137.05 C 151.07 137.06 150.35 137.79 150.36 138.69 Z M 150.37 139.69 L 150.37 140.69 C 150.37 141.59 151.11 142.31 152.01 142.31 C 152.91 142.30 153.63 141.57 153.63 140.67 L 153.63 139.68 C 153.62 138.78 152.89 138.05 151.99 138.06 C 151.09 138.06 150.36 138.79 150.37 139.69 Z M 150.37 140.68 L 150.37 141.69 C 150.37 142.59 151.10 143.32 152.00 143.31 C 152.90 143.31 153.63 142.58 153.63 141.68 L 153.63 140.68 C 153.63 139.78 152.90 139.05 152.00 139.05 C 151.10 139.05 150.37 139.78 150.37 140.68 Z M 150.37 141.68 L 150.37 142.69 C 150.37 143.59 151.10 144.32 152.00 144.32 C 152.90 144.32 153.63 143.59 153.63 142.69 L 153.63 141.68 C 153.63 140.78 152.90 140.05 152.00 140.05 C 151.10 140.05 150.37 140.78 150.37 141.68 Z M 150.37 142.69 L 150.37 143.68 C 150.37 144.58 151.10 145.31 152.00 145.31 C 152.90 145.31 153.63 144.58 153.63 143.68 L 153.63 142.69 C 153.63 141.79 152.90 141.06 152.00 141.06 C 151.10 141.06 150.37 141.79 150.37 142.69 Z M 150.37 143.68 L 150.37 144.68 C 150.37 145.58 151.10 146.31 152.00 146.31 C 152.90 146.31 153.63 145.58 153.63 144.68 L 153.63 143.68 C 153.63 142.78 152.90 142.05 152.00 142.05 C 151.10 142.05 150.37 142.78 150.37 143.68 Z M 150.37 144.68 L 150.37 145.69 C 150.37 146.59 151.10 147.32 152.00 147.32 C 152.90 147.32 153.63 146.59 153.63 145.69 L 153.63 144.68 C 153.63 143.78 152.90 143.05 152.00 143.05 C 151.10 143.05 150.37 143.78 150.37 144.68 Z M 150.37 145.69 L 150.37 146.70 C 150.37 147.60 151.10 148.33 152.00 148.33 C 152.90 148.33 153.63 147.60 153.63 146.70 L 153.63 145.69 C 153.63 144.79 152.90 144.06 152.00 144.06 C 151.10 144.06 150.37 144.79 150.37 145.69 Z M 150.37 146.70 L 150.37 147.70 C 150.37 148.60 151.10 149.33 152.00 149.33 C 152.90 149.33 153.63 148.60 153.63 147.70 L 153.63 146.70 C 153.63 145.80 152.90 145.07 152.00 145.07 C 151.10 145.07 150.37 145.80 150.37 146.70 Z M 150.37 147.70 L 150.37 148.70 C 150.37 149.60 151.10 150.33 152.00 150.33 C 152.90 150.33 153.63 149.60 153.63 148.70 L 153.63 147.70 C 153.63 146.80 152.90 146.07 152.00 146.07 C 151.10 146.07 150.37 146.80 150.37 147.70 Z M 150.37 148.70 L 150.37 149.70 C 150.37 150.60 151.10 151.33 152.00 151.33 C 152.90 151.33 153.63 150.60 153.63 149.70 L 153.63 148.70 C 153.63 147.80 152.90 147.07 152.00 147.07 C 151.10 147.07 150.37 147.80 150.37 148.70 Z M 150.37 149.70 L 150.37 150.73 C 150.37 151.62 151.10 152.35 152.00 152.35 C 152.90 152.35 153.63 151.62 153.63 150.73 L 153.63 149.70 C 153.63 148.81 152.90 148.08 152.00 148.08 C 151.10 148.08 150.37 148.81 150.37 149.70 Z M 150.38 150.73 L 150.38 151.72 C 150.38 152.62 151.10 153.35 152.00 153.35 C 152.90 153.35 153.63 152.62 153.63 151.72 L 153.63 150.73 C 153.63 149.83 152.90 149.10 152.00 149.10 C 151.10 149.10 150.38 149.83 150.38 150.73 Z M 150.38 151.72 L 150.38 152.70 C 150.38 153.60 151.10 154.33 152.00 154.33 C 152.90 154.33 153.63 153.60 153.63 152.70 L 153.63 151.72 C 153.63 150.83 152.90 150.10 152.00 150.10 C 151.10 150.10 150.38 150.83 150.38 151.72 Z M 150.38 152.70 L 150.38 153.72 C 150.38 154.61 151.10 155.34 152.00 155.34 C 152.90 155.34 153.62 154.61 153.62 153.72 L 153.63 152.70 C 153.63 151.81 152.90 151.08 152.00 151.08 C 151.11 151.08 150.38 151.80 150.38 152.70 Z M 150.38 153.71 L 150.37 154.71 C 150.37 155.61 151.09 156.34 151.99 156.34 C 152.88 156.35 153.61 155.62 153.62 154.73 L 153.62 153.73 C 153.63 152.83 152.91 152.10 152.01 152.10 C 151.12 152.09 150.38 152.81 150.38 153.71 Z M 150.38 154.69 L 150.36 155.67 C 150.34 156.57 151.05 157.31 151.95 157.32 C 152.84 157.34 153.58 156.63 153.60 155.73 L 153.62 154.75 C 153.63 153.85 152.92 153.12 152.02 153.10 C 151.13 153.08 150.39 153.80 150.38 154.69 Z M 150.36 155.65 L 150.32 156.68 C 150.29 157.58 150.99 158.33 151.88 158.36 C 152.78 158.39 153.53 157.69 153.56 156.80 L 153.60 155.76 C 153.63 154.87 152.93 154.12 152.04 154.09 C 151.14 154.05 150.39 154.75 150.36 155.65 Z M 150.33 156.66 L 150.27 157.68 C 150.23 158.57 150.91 159.33 151.80 159.38 C 152.69 159.43 153.45 158.74 153.50 157.85 L 153.56 156.83 C 153.60 155.94 152.92 155.18 152.03 155.13 C 151.13 155.08 150.37 155.77 150.33 156.66 Z M 150.28 157.66 L 150.22 158.60 C 150.16 159.49 150.84 160.26 151.73 160.32 C 152.62 160.37 153.38 159.69 153.44 158.80 L 153.50 157.87 C 153.55 156.98 152.88 156.21 151.99 156.15 C 151.10 156.10 150.33 156.77 150.28 157.66 Z M 150.22 158.59 L 150.15 159.66 C 150.09 160.55 150.76 161.32 151.65 161.38 C 152.54 161.44 153.31 160.77 153.37 159.88 L 153.44 158.81 C 153.50 157.92 152.83 157.15 151.94 157.09 C 151.05 157.03 150.28 157.71 150.22 158.59 Z M 150.15 159.65 L 150.07 160.58 C 150.00 161.47 150.66 162.25 151.55 162.32 C 152.44 162.39 153.22 161.73 153.29 160.84 L 153.37 159.90 C 153.44 159.01 152.77 158.23 151.88 158.16 C 150.99 158.09 150.22 158.76 150.15 159.65 Z M 150.07 160.54 L 149.98 161.47 C 149.88 162.36 150.53 163.15 151.42 163.25 C 152.30 163.34 153.10 162.69 153.19 161.81 L 153.29 160.88 C 153.38 159.99 152.74 159.20 151.85 159.10 C 150.96 159.01 150.17 159.65 150.07 160.54 Z M 149.98 161.39 L 149.83 162.41 C 149.70 163.30 150.30 164.12 151.19 164.26 C 152.07 164.39 152.90 163.78 153.03 162.90 L 153.18 161.88 C 153.32 161.00 152.71 160.17 151.83 160.04 C 150.94 159.90 150.12 160.51 149.98 161.39 Z M 149.84 162.35 L 149.66 163.28 C 149.49 164.15 150.07 165.00 150.95 165.17 C 151.83 165.34 152.67 164.77 152.84 163.89 L 153.02 162.96 C 153.19 162.08 152.61 161.23 151.74 161.07 C 150.86 160.90 150.01 161.47 149.84 162.35 Z M 149.67 163.25 L 149.46 164.25 C 149.27 165.13 149.83 165.99 150.71 166.17 C 151.58 166.35 152.44 165.79 152.63 164.92 L 152.84 163.91 C 153.02 163.04 152.46 162.18 151.58 162.00 C 150.71 161.81 149.85 162.37 149.67 163.25 Z M 149.46 164.24 L 149.31 164.96 C 149.12 165.83 149.67 166.69 150.55 166.88 C 151.42 167.07 152.28 166.51 152.47 165.64 L 152.62 164.93 C 152.81 164.05 152.26 163.19 151.38 163.00 C 150.51 162.81 149.65 163.37 149.46 164.24 Z"
      fill="black"
      fill-rule="nonzero" /><path d="M 134.32 169.26 L 135.41 169.28 C 136.25 169.29 136.95 168.62 136.97 167.77 C 136.98 166.93 136.31 166.23 135.46 166.21 L 134.38 166.19 C 133.53 166.18 132.83 166.85 132.81 167.70 C 132.80 168.55 133.47 169.24 134.32 169.26 Z M 135.41 169.33 L 136.45 169.34 C 137.32 169.36 138.04 168.66 138.06 167.79 C 138.07 166.91 137.37 166.19 136.50 166.18 L 135.46 166.16 C 134.58 166.15 133.86 166.85 133.85 167.72 C 133.84 168.60 134.54 169.32 135.41 169.33 Z M 136.46 169.39 L 137.41 169.40 C 138.31 169.41 139.05 168.68 139.05 167.78 C 139.06 166.88 138.33 166.14 137.43 166.13 L 136.48 166.13 C 135.58 166.12 134.85 166.85 134.84 167.75 C 134.83 168.65 135.56 169.39 136.46 169.39 Z M 137.44 169.43 L 138.46 169.42 C 139.38 169.41 140.11 168.65 140.10 167.73 C 140.09 166.81 139.33 166.08 138.41 166.09 L 137.40 166.10 C 136.48 166.11 135.74 166.87 135.75 167.79 C 135.77 168.71 136.52 169.44 137.44 169.43 Z M 138.51 169.42 L 139.49 169.37 C 140.41 169.33 141.12 168.56 141.08 167.64 C 141.04 166.72 140.26 166.01 139.34 166.05 L 138.36 166.09 C 137.44 166.13 136.73 166.91 136.77 167.83 C 136.81 168.75 137.59 169.46 138.51 169.42 Z M 139.52 169.36 L 140.43 169.30 C 141.34 169.24 142.03 168.46 141.97 167.55 C 141.91 166.64 141.13 165.95 140.22 166.01 L 139.31 166.07 C 138.40 166.13 137.72 166.91 137.77 167.82 C 137.83 168.72 138.62 169.41 139.52 169.36 Z M 140.43 169.29 L 141.41 169.22 C 142.31 169.17 143.00 168.39 142.94 167.49 C 142.88 166.58 142.10 165.90 141.20 165.96 L 140.22 166.02 C 139.32 166.08 138.64 166.86 138.69 167.76 C 138.75 168.66 139.53 169.34 140.43 169.29 Z M 141.40 169.22 L 142.44 169.16 C 143.33 169.10 144.02 168.33 143.97 167.43 C 143.91 166.53 143.14 165.85 142.24 165.90 L 141.21 165.96 C 140.31 166.02 139.63 166.79 139.68 167.69 C 139.73 168.59 140.51 169.27 141.40 169.22 Z M 142.43 169.15 L 143.40 169.10 C 144.30 169.05 144.98 168.28 144.93 167.39 C 144.89 166.49 144.12 165.80 143.22 165.85 L 142.25 165.91 C 141.35 165.95 140.67 166.72 140.71 167.62 C 140.76 168.51 141.53 169.20 142.43 169.15 Z M 143.39 169.10 L 144.40 169.05 C 145.29 169.01 145.98 168.25 145.94 167.35 C 145.90 166.46 145.14 165.77 144.25 165.81 L 143.23 165.86 C 142.34 165.90 141.65 166.66 141.69 167.55 C 141.73 168.45 142.49 169.14 143.39 169.10 Z M 144.38 169.05 L 145.38 169.01 C 146.27 168.97 146.97 168.22 146.94 167.33 C 146.90 166.44 146.15 165.74 145.26 165.77 L 144.26 165.81 C 143.37 165.85 142.67 166.60 142.70 167.49 C 142.74 168.38 143.49 169.08 144.38 169.05 Z M 145.36 169.00 L 146.36 168.98 C 147.25 168.95 147.95 168.21 147.93 167.32 C 147.90 166.43 147.16 165.73 146.27 165.75 L 145.27 165.78 C 144.38 165.80 143.68 166.55 143.71 167.44 C 143.73 168.33 144.47 169.03 145.36 169.00 Z M 146.34 168.97 L 147.36 168.95 C 148.25 168.93 148.96 168.20 148.94 167.31 C 148.92 166.43 148.19 165.72 147.30 165.74 L 146.28 165.76 C 145.40 165.77 144.69 166.51 144.71 167.39 C 144.72 168.28 145.46 168.99 146.34 168.97 Z M 147.35 168.94 L 148.33 168.94 C 149.21 168.93 149.92 168.20 149.91 167.32 C 149.90 166.43 149.18 165.72 148.30 165.73 L 147.32 165.74 C 146.43 165.75 145.72 166.48 145.73 167.36 C 145.74 168.24 146.47 168.95 147.35 168.94 Z M 148.32 168.93 L 149.32 168.92 C 150.20 168.92 150.91 168.20 150.90 167.32 C 150.90 166.44 150.18 165.73 149.30 165.74 L 148.30 165.74 C 147.42 165.75 146.71 166.46 146.72 167.34 C 146.72 168.22 147.44 168.93 148.32 168.93 Z M 149.32 168.91 L 150.35 168.91 C 151.22 168.90 151.93 168.18 151.92 167.31 C 151.91 166.44 151.20 165.73 150.32 165.74 L 149.30 165.74 C 148.42 165.75 147.72 166.46 147.73 167.34 C 147.73 168.21 148.45 168.92 149.32 168.91 Z M 150.35 168.90 L 151.36 168.89 C 152.23 168.88 152.92 168.16 152.91 167.29 C 152.90 166.42 152.19 165.72 151.32 165.73 L 150.32 165.74 C 149.45 165.76 148.75 166.47 148.76 167.34 C 148.77 168.21 149.48 168.91 150.35 168.90 Z M 151.36 168.88 L 152.37 168.86 C 153.24 168.85 153.93 168.13 153.92 167.27 C 153.90 166.40 153.19 165.71 152.32 165.72 L 151.31 165.74 C 150.45 165.75 149.76 166.47 149.77 167.33 C 149.78 168.20 150.50 168.89 151.36 168.88 Z M 152.38 168.85 L 153.37 168.83 C 154.23 168.82 154.92 168.10 154.90 167.24 C 154.88 166.38 154.17 165.69 153.31 165.71 L 152.32 165.73 C 151.45 165.75 150.77 166.46 150.79 167.32 C 150.80 168.19 151.52 168.87 152.38 168.85 Z M 153.37 168.83 L 154.40 168.81 C 155.26 168.79 155.94 168.07 155.92 167.21 C 155.90 166.35 155.19 165.67 154.33 165.69 L 153.30 165.72 C 152.44 165.74 151.76 166.45 151.78 167.31 C 151.80 168.17 152.51 168.85 153.37 168.83 Z M 154.41 168.80 L 155.40 168.78 C 156.26 168.76 156.93 168.04 156.91 167.18 C 156.89 166.33 156.18 165.65 155.32 165.67 L 154.33 165.70 C 153.47 165.72 152.79 166.43 152.82 167.29 C 152.84 168.15 153.55 168.82 154.41 168.80 Z M 155.40 168.77 L 156.38 168.75 C 157.24 168.72 157.91 168.01 157.89 167.16 C 157.87 166.30 157.15 165.62 156.30 165.65 L 155.32 165.67 C 154.46 165.70 153.78 166.41 153.81 167.27 C 153.83 168.12 154.54 168.80 155.40 168.77 Z M 156.38 168.75 L 157.39 168.72 C 158.25 168.70 158.92 167.98 158.90 167.13 C 158.88 166.27 158.16 165.60 157.31 165.62 L 156.30 165.65 C 155.44 165.67 154.77 166.38 154.79 167.24 C 154.81 168.10 155.53 168.77 156.38 168.75 Z M 157.39 168.72 L 158.38 168.70 C 159.24 168.67 159.92 167.96 159.89 167.10 C 159.87 166.25 159.16 165.57 158.30 165.59 L 157.31 165.62 C 156.45 165.64 155.78 166.35 155.80 167.21 C 155.82 168.07 156.53 168.74 157.39 168.72 Z M 158.38 168.70 L 159.40 168.68 C 160.26 168.65 160.94 167.94 160.91 167.08 C 160.89 166.22 160.18 165.54 159.32 165.56 L 158.30 165.59 C 157.45 165.61 156.77 166.32 156.79 167.18 C 156.81 168.04 157.52 168.72 158.38 168.70 Z M 159.40 168.68 L 160.40 168.66 C 161.26 168.64 161.95 167.92 161.93 167.06 C 161.91 166.19 161.19 165.51 160.33 165.53 L 159.32 165.56 C 158.46 165.58 157.77 166.29 157.80 167.16 C 157.82 168.02 158.53 168.70 159.40 168.68 Z M 160.41 168.67 L 161.39 168.64 C 162.26 168.62 162.94 167.89 162.92 167.03 C 162.89 166.16 162.17 165.48 161.31 165.50 L 160.32 165.52 C 159.45 165.55 158.77 166.27 158.79 167.14 C 158.82 168.00 159.54 168.69 160.41 168.67 Z M 161.39 168.65 L 162.41 168.62 C 163.29 168.59 163.97 167.86 163.95 166.99 C 163.92 166.12 163.19 165.44 162.32 165.46 L 161.30 165.49 C 160.43 165.52 159.74 166.24 159.77 167.12 C 159.80 167.99 160.52 168.67 161.39 168.65 Z M 162.41 168.62 L 163.37 168.60 C 164.25 168.58 164.94 167.85 164.92 166.98 C 164.90 166.11 164.17 165.41 163.30 165.43 L 162.33 165.46 C 161.46 165.48 160.77 166.20 160.79 167.08 C 160.81 167.95 161.53 168.64 162.41 168.62 Z M 163.35 168.60 L 164.37 168.59 C 165.24 168.59 165.95 167.87 165.94 166.99 C 165.93 166.12 165.21 165.41 164.34 165.42 L 163.32 165.43 C 162.45 165.44 161.74 166.16 161.75 167.03 C 161.76 167.91 162.48 168.61 163.35 168.60 Z M 164.35 168.59 L 165.33 168.59 C 166.20 168.59 166.91 167.88 166.91 167.01 C 166.91 166.13 166.20 165.42 165.33 165.42 L 164.35 165.42 C 163.47 165.42 162.76 166.13 162.76 167.01 C 162.76 167.89 163.48 168.60 164.35 168.59 Z M 165.32 168.59 L 166.30 168.60 C 167.18 168.61 167.89 167.90 167.90 167.02 C 167.90 166.15 167.20 165.43 166.32 165.42 L 165.34 165.42 C 164.46 165.41 163.74 166.12 163.74 167.00 C 163.73 167.87 164.44 168.59 165.32 168.59 Z M 166.26 168.60 L 167.42 168.64 C 168.30 168.66 169.03 167.97 169.06 167.09 C 169.08 166.22 168.39 165.48 167.52 165.46 L 166.36 165.42 C 165.48 165.40 164.75 166.09 164.72 166.97 C 164.70 167.84 165.39 168.57 166.26 168.60 Z M 167.35 168.63 L 168.26 168.71 C 169.14 168.77 169.91 168.12 169.97 167.24 C 170.04 166.37 169.39 165.60 168.51 165.53 L 167.59 165.46 C 166.72 165.39 165.95 166.05 165.88 166.92 C 165.81 167.80 166.47 168.57 167.35 168.63 Z M 168.24 165.52 L 167.54 165.58 C 166.65 165.67 166.00 166.45 166.09 167.34 C 166.17 168.22 166.95 168.87 167.84 168.78 L 168.54 168.72 C 169.42 168.64 170.07 167.85 169.99 166.97 C 169.90 166.08 169.12 165.43 168.24 165.52 Z M 167.62 165.56 L 167.10 165.58 C 166.21 165.62 165.51 166.37 165.54 167.27 C 165.58 168.17 166.33 168.86 167.23 168.83 L 167.75 168.81 C 168.65 168.77 169.35 168.02 169.31 167.12 C 169.28 166.22 168.52 165.53 167.62 165.56 Z"
      fill="black"
      fill-rule="nonzero" /></svg>