<svg xmlns="http://www.w3.org/2000/svg" width="300" height="300" viewBox="0 0 300 300">
<path d="M 143.71 132.16 L 142.53 132.16 C 141.70 132.16 141.03 132.83 141.03 133.66 C 141.03 134.49 141.70 135.16 142.53 135.16 L 143.71 135.16 C 144.54 135.16 145.21 134.49 145.21 133.66 C 145.21 132.83 144.54 132.16 143.71 132.16 Z M 142.50 135.18 L 142.88 135.19 C 143.72 135.21 144.42 134.55 144.44 133.70 C 144.46 132.86 143.79 132.16 142.95 132.15 L 142.57 132.14 C 141.73 132.12 141.03 132.78 141.01 133.63 C 140.99 134.47 141.66 135.17 142.50 135.18 Z M 142.83 135.19 L 143.97 135.26 C 144.81 135.30 145.53 134.66 145.58 133.82 C 145.62 132.97 144.98 132.25 144.14 132.21 L 143.00 132.15 C 142.16 132.10 141.44 132.74 141.39 133.59 C 141.35 134.43 141.99 135.15 142.83 135.19 Z M 143.89 135.24 L 144.89 135.35 C 145.73 135.44 146.48 134.84 146.57 134.00 C 146.66 133.17 146.05 132.42 145.22 132.33 L 144.22 132.22 C 143.38 132.13 142.63 132.73 142.54 133.57 C 142.45 134.40 143.06 135.15 143.89 135.24 Z M 144.83 135.34 L 145.83 135.48 C 146.66 135.61 147.43 135.03 147.55 134.21 C 147.67 133.38 147.10 132.61 146.27 132.49 L 145.27 132.34 C 144.45 132.22 143.68 132.79 143.56 133.62 C 143.43 134.45 144.01 135.22 144.83 135.34 Z M 145.79 135.47 L 146.77 135.64 C 147.60 135.79 148.38 135.23 148.52 134.41 C 148.66 133.59 148.11 132.81 147.29 132.67 L 146.31 132.50 C 145.48 132.36 144.70 132.91 144.56 133.73 C 144.42 134.55 144.97 135.33 145.79 135.47 Z M 146.76 135.64 L 147.78 135.83 C 148.60 135.98 149.38 135.44 149.54 134.62 C 149.69 133.80 149.15 133.02 148.33 132.86 L 147.30 132.67 C 146.49 132.52 145.70 133.06 145.55 133.88 C 145.40 134.70 145.94 135.48 146.76 135.64 Z M 147.78 135.81 L 148.77 136.00 C 149.58 136.15 150.36 135.62 150.51 134.81 C 150.67 134.00 150.13 133.22 149.32 133.06 L 148.33 132.87 C 147.52 132.72 146.74 133.26 146.59 134.07 C 146.43 134.88 146.97 135.66 147.78 135.81 Z M 148.77 135.99 L 149.76 136.17 C 150.56 136.32 151.33 135.79 151.49 134.99 C 151.64 134.19 151.11 133.41 150.30 133.26 L 149.32 133.08 C 148.51 132.93 147.74 133.46 147.59 134.26 C 147.44 135.06 147.97 135.84 148.77 135.99 Z M 149.77 136.16 L 150.77 136.34 C 151.56 136.48 152.33 135.95 152.47 135.15 C 152.61 134.36 152.08 133.60 151.29 133.45 L 150.29 133.27 C 149.49 133.13 148.73 133.66 148.59 134.46 C 148.44 135.25 148.97 136.02 149.77 136.16 Z M 150.78 136.33 L 151.79 136.50 C 152.58 136.64 153.34 136.10 153.47 135.31 C 153.60 134.52 153.07 133.77 152.28 133.63 L 151.27 133.46 C 150.48 133.33 149.73 133.86 149.59 134.65 C 149.46 135.44 149.99 136.19 150.78 136.33 Z M 151.80 136.49 L 152.75 136.65 C 153.53 136.78 154.28 136.25 154.41 135.46 C 154.54 134.68 154.01 133.93 153.22 133.80 L 152.27 133.64 C 151.49 133.51 150.74 134.04 150.61 134.83 C 150.48 135.62 151.01 136.36 151.80 136.49 Z M 152.74 136.64 L 153.75 136.81 C 154.53 136.94 155.28 136.42 155.41 135.63 C 155.54 134.85 155.01 134.11 154.23 133.98 L 153.22 133.81 C 152.44 133.68 151.70 134.20 151.57 134.99 C 151.44 135.77 151.96 136.51 152.74 136.64 Z M 153.75 136.80 L 154.71 136.97 C 155.49 137.10 156.23 136.58 156.36 135.80 C 156.50 135.03 155.98 134.29 155.20 134.15 L 154.24 133.99 C 153.46 133.85 152.72 134.37 152.58 135.15 C 152.45 135.93 152.97 136.67 153.75 136.80 Z M 154.71 136.97 L 154.86 136.99 C 155.64 137.13 156.38 136.61 156.51 135.83 C 156.64 135.05 156.12 134.32 155.35 134.18 L 155.20 134.16 C 154.42 134.02 153.68 134.54 153.55 135.32 C 153.42 136.09 153.94 136.83 154.71 136.97 Z"
      fill="black"
      fill-rule="nonzero" /><path d="M 133.57 148.28 L 134.60 148.14 C 135.41 148.02 135.98 147.26 135.86 146.45 C 135.75 145.63 134.99 145.06 134.18 145.18 L 133.15 145.33 C 132.33 145.44 131.77 146.20 131.88 147.01 C 132.00 147.83 132.75 148.40 133.57 148.28 Z M 134.62 148.19 L 135.59 148.04 C 136.43 147.91 137.01 147.12 136.88 146.28 C 136.75 145.43 135.97 144.85 135.12 144.98 L 134.15 145.13 C 133.31 145.26 132.73 146.05 132.86 146.89 C 132.99 147.74 133.78 148.32 134.62 148.19 Z M 135.63 148.07 L 136.62 147.89 C 137.48 147.74 138.05 146.92 137.90 146.06 C 137.75 145.20 136.93 144.63 136.07 144.78 L 135.08 144.95 C 134.22 145.11 133.65 145.93 133.80 146.79 C 133.95 147.65 134.77 148.22 135.63 148.07 Z M 136.65 147.89 L 137.61 147.70 C 138.47 147.53 139.03 146.69 138.86 145.83 C 138.69 144.97 137.85 144.41 136.99 144.59 L 136.03 144.78 C 135.17 144.95 134.61 145.79 134.79 146.65 C 134.96 147.51 135.80 148.06 136.65 147.89 Z M 137.62 147.70 L 138.55 147.51 C 139.41 147.34 139.97 146.50 139.79 145.63 C 139.62 144.77 138.78 144.22 137.91 144.39 L 136.98 144.58 C 136.12 144.76 135.57 145.60 135.74 146.46 C 135.92 147.32 136.76 147.88 137.62 147.70 Z M 138.57 147.52 L 139.58 147.30 C 140.45 147.12 141.00 146.27 140.81 145.40 C 140.63 144.54 139.78 143.99 138.92 144.17 L 137.90 144.39 C 137.03 144.57 136.48 145.42 136.67 146.29 C 136.85 147.15 137.70 147.70 138.57 147.52 Z M 139.61 147.30 L 140.55 147.08 C 141.41 146.89 141.95 146.02 141.75 145.16 C 141.55 144.30 140.69 143.76 139.83 143.96 L 138.89 144.17 C 138.03 144.37 137.49 145.23 137.69 146.10 C 137.88 146.96 138.75 147.50 139.61 147.30 Z M 140.57 147.08 L 141.55 146.84 C 142.41 146.63 142.94 145.76 142.73 144.90 C 142.52 144.04 141.65 143.51 140.79 143.72 L 139.81 143.96 C 138.94 144.17 138.41 145.04 138.62 145.90 C 138.83 146.76 139.70 147.29 140.57 147.08 Z M 141.56 146.84 L 142.55 146.59 C 143.41 146.38 143.93 145.50 143.72 144.64 C 143.50 143.78 142.62 143.26 141.76 143.47 L 140.78 143.72 C 139.92 143.94 139.39 144.81 139.61 145.67 C 139.83 146.53 140.70 147.06 141.56 146.84 Z M 142.55 146.58 L 143.50 146.34 C 144.36 146.12 144.87 145.25 144.66 144.39 C 144.44 143.53 143.56 143.02 142.71 143.24 L 141.76 143.48 C 140.90 143.70 140.38 144.57 140.60 145.43 C 140.82 146.29 141.70 146.80 142.55 146.58 Z M 143.50 146.33 L 144.49 146.08 C 145.34 145.86 145.85 144.99 145.63 144.14 C 145.41 143.28 144.54 142.77 143.69 142.99 L 142.70 143.25 C 141.85 143.47 141.34 144.34 141.56 145.19 C 141.78 146.04 142.65 146.55 143.50 146.33 Z M 144.49 146.07 L 145.47 145.81 C 146.32 145.59 146.83 144.73 146.61 143.88 C 146.39 143.04 145.53 142.53 144.68 142.75 L 143.70 143.00 C 142.85 143.22 142.34 144.08 142.56 144.93 C 142.78 145.78 143.64 146.28 144.49 146.07 Z M 145.47 145.80 L 146.44 145.55 C 147.28 145.34 147.79 144.48 147.57 143.64 C 147.36 142.80 146.50 142.29 145.66 142.51 L 144.68 142.76 C 143.84 142.97 143.34 143.83 143.55 144.67 C 143.77 145.51 144.63 146.02 145.47 145.80 Z M 146.44 145.54 L 147.41 145.29 C 148.25 145.08 148.75 144.23 148.54 143.39 C 148.32 142.55 147.47 142.05 146.63 142.27 L 145.66 142.52 C 144.82 142.73 144.32 143.58 144.54 144.42 C 144.75 145.25 145.60 145.76 146.44 145.54 Z M 147.41 145.29 L 148.39 145.03 C 149.22 144.82 149.73 143.97 149.51 143.14 C 149.30 142.31 148.45 141.80 147.62 142.02 L 146.63 142.27 C 145.80 142.49 145.30 143.34 145.51 144.17 C 145.73 145.00 146.58 145.50 147.41 145.29 Z M 148.39 145.04 L 149.37 144.78 C 150.21 144.57 150.71 143.72 150.49 142.89 C 150.28 142.05 149.43 141.55 148.60 141.77 L 147.62 142.02 C 146.78 142.23 146.28 143.08 146.49 143.91 C 146.71 144.75 147.56 145.25 148.39 145.04 Z M 149.37 144.79 L 150.32 144.55 C 151.16 144.34 151.66 143.49 151.45 142.65 C 151.24 141.82 150.39 141.31 149.56 141.52 L 148.60 141.76 C 147.77 141.97 147.26 142.82 147.47 143.66 C 147.68 144.49 148.53 145.00 149.37 144.79 Z M 150.31 144.56 L 151.28 144.32 C 152.12 144.12 152.64 143.27 152.43 142.43 C 152.23 141.59 151.38 141.07 150.54 141.28 L 149.57 141.51 C 148.73 141.72 148.21 142.56 148.42 143.40 C 148.62 144.24 149.47 144.76 150.31 144.56 Z M 151.27 144.32 L 152.25 144.09 C 153.09 143.90 153.61 143.05 153.42 142.21 C 153.22 141.37 152.38 140.85 151.53 141.04 L 150.55 141.27 C 149.71 141.47 149.19 142.31 149.39 143.16 C 149.58 144.00 150.43 144.52 151.27 144.32 Z M 152.25 144.09 L 153.20 143.87 C 154.04 143.68 154.57 142.84 154.37 141.99 C 154.18 141.15 153.34 140.63 152.49 140.82 L 151.54 141.05 C 150.70 141.24 150.17 142.08 150.37 142.92 C 150.56 143.77 151.40 144.29 152.25 144.09 Z M 153.21 143.86 L 154.20 143.62 C 155.04 143.43 155.56 142.59 155.36 141.75 C 155.16 140.92 154.32 140.40 153.49 140.60 L 152.49 140.83 C 151.65 141.03 151.14 141.87 151.33 142.71 C 151.53 143.54 152.37 144.06 153.21 143.86 Z M 154.21 143.60 L 155.18 143.37 C 156.00 143.17 156.51 142.34 156.31 141.51 C 156.10 140.69 155.27 140.18 154.45 140.38 L 153.48 140.62 C 152.66 140.82 152.15 141.65 152.35 142.47 C 152.55 143.30 153.38 143.80 154.21 143.60 Z M 155.18 143.35 L 156.15 143.11 C 156.96 142.90 157.45 142.08 157.25 141.27 C 157.05 140.46 156.23 139.96 155.41 140.16 L 154.45 140.40 C 153.63 140.61 153.14 141.43 153.34 142.24 C 153.54 143.05 154.37 143.55 155.18 143.35 Z M 156.14 143.09 L 157.12 142.84 C 157.93 142.64 158.41 141.83 158.21 141.03 C 158.01 140.23 157.20 139.74 156.40 139.94 L 155.42 140.18 C 154.62 140.38 154.13 141.19 154.33 142.00 C 154.53 142.80 155.34 143.29 156.14 143.09 Z M 157.10 142.83 L 158.05 142.61 C 158.85 142.42 159.34 141.62 159.15 140.82 C 158.96 140.03 158.16 139.53 157.37 139.72 L 156.42 139.95 C 155.62 140.14 155.13 140.94 155.32 141.73 C 155.51 142.53 156.31 143.02 157.10 142.83 Z M 158.03 142.60 L 159.02 142.39 C 159.81 142.21 160.31 141.43 160.14 140.63 C 159.96 139.84 159.18 139.34 158.38 139.51 L 157.40 139.73 C 156.60 139.90 156.10 140.69 156.27 141.48 C 156.45 142.28 157.23 142.78 158.03 142.60 Z M 159.01 142.39 L 159.96 142.18 C 160.75 142.01 161.26 141.23 161.09 140.44 C 160.92 139.64 160.14 139.14 159.34 139.31 L 158.39 139.51 C 157.60 139.68 157.09 140.46 157.26 141.26 C 157.43 142.05 158.21 142.56 159.01 142.39 Z M 159.94 142.18 L 160.89 141.99 C 161.69 141.82 162.20 141.05 162.04 140.26 C 161.88 139.46 161.10 138.95 160.31 139.11 L 159.36 139.31 C 158.56 139.47 158.05 140.25 158.21 141.04 C 158.37 141.83 159.15 142.34 159.94 142.18 Z M 160.83 141.99 L 161.83 141.84 C 162.62 141.71 163.17 140.97 163.05 140.17 C 162.92 139.37 162.18 138.83 161.38 138.95 L 160.38 139.11 C 159.58 139.23 159.04 139.98 159.16 140.77 C 159.28 141.57 160.03 142.12 160.83 141.99 Z M 161.76 141.84 L 162.73 141.74 C 163.53 141.66 164.11 140.94 164.02 140.14 C 163.94 139.34 163.22 138.76 162.42 138.85 L 161.45 138.95 C 160.65 139.03 160.07 139.75 160.16 140.55 C 160.24 141.35 160.96 141.93 161.76 141.84 Z M 162.70 141.74 L 163.73 141.65 C 164.53 141.58 165.12 140.88 165.05 140.09 C 164.99 139.29 164.29 138.70 163.49 138.76 L 162.46 138.85 C 161.66 138.92 161.07 139.62 161.13 140.41 C 161.20 141.21 161.90 141.80 162.70 141.74 Z M 163.72 141.65 L 163.85 141.64 C 164.65 141.57 165.24 140.88 165.18 140.08 C 165.12 139.29 164.42 138.69 163.62 138.76 L 163.50 138.77 C 162.70 138.83 162.11 139.53 162.17 140.32 C 162.23 141.12 162.93 141.71 163.72 141.65 Z"
      fill="black"
      fill-rule="nonzero" /><path d="M 147.40 145.02 L 147.31 145.99 C 147.24 146.83 147.86 147.57 148.69 147.64 C 149.53 147.71 150.27 147.09 150.34 146.26 L 150.43 145.28 C 150.50 144.44 149.88 143.71 149.04 143.63 C 148.21 143.56 147.47 144.18 147.40 145.02 Z M 147.27 146.11 L 147.26 147.13 C 147.26 147.99 147.95 148.69 148.81 148.70 C 149.67 148.70 150.37 148.01 150.38 147.15 L 150.38 146.14 C 150.39 145.28 149.70 144.57 148.84 144.57 C 147.98 144.56 147.28 145.25 147.27 146.11 Z M 147.25 147.31 L 147.35 148.23 C 147.44 149.10 148.22 149.73 149.08 149.64 C 149.95 149.54 150.58 148.77 150.48 147.90 L 150.39 146.97 C 150.29 146.11 149.52 145.48 148.65 145.57 C 147.79 145.67 147.16 146.44 147.25 147.31 Z M 147.36 148.31 L 147.52 149.32 C 147.65 150.18 148.46 150.77 149.32 150.64 C 150.18 150.50 150.77 149.70 150.63 148.83 L 150.48 147.83 C 150.34 146.96 149.54 146.38 148.67 146.51 C 147.81 146.64 147.22 147.45 147.36 148.31 Z M 147.51 149.30 L 147.66 150.35 C 147.79 151.21 148.59 151.81 149.45 151.69 C 150.31 151.56 150.91 150.76 150.79 149.90 L 150.64 148.85 C 150.51 147.99 149.71 147.39 148.85 147.51 C 147.99 147.64 147.39 148.44 147.51 149.30 Z M 147.66 150.31 L 147.78 151.34 C 147.88 152.21 148.67 152.83 149.53 152.73 C 150.40 152.63 151.02 151.84 150.91 150.98 L 150.79 149.94 C 150.69 149.08 149.91 148.46 149.04 148.56 C 148.18 148.66 147.56 149.44 147.66 150.31 Z M 147.78 151.31 L 147.87 152.28 C 147.96 153.14 148.73 153.78 149.59 153.70 C 150.46 153.61 151.10 152.84 151.01 151.97 L 150.92 151.01 C 150.83 150.14 150.06 149.51 149.20 149.59 C 148.33 149.67 147.69 150.45 147.78 151.31 Z M 147.87 152.24 L 147.95 153.23 C 148.01 154.10 148.76 154.75 149.63 154.68 C 150.50 154.62 151.15 153.87 151.08 153.00 L 151.01 152.01 C 150.95 151.14 150.19 150.49 149.33 150.56 C 148.46 150.62 147.81 151.38 147.87 152.24 Z M 147.95 153.19 L 148.00 154.16 C 148.04 155.02 148.78 155.68 149.64 155.64 C 150.50 155.60 151.17 154.86 151.12 154.00 L 151.08 153.04 C 151.03 152.18 150.30 151.51 149.44 151.55 C 148.57 151.60 147.91 152.33 147.95 153.19 Z M 148.01 154.15 L 148.05 155.06 C 148.08 155.92 148.81 156.58 149.67 156.55 C 150.53 156.51 151.19 155.78 151.16 154.93 L 151.12 154.01 C 151.08 153.15 150.35 152.49 149.49 152.52 C 148.64 152.56 147.97 153.29 148.01 154.15 Z M 148.05 155.05 L 148.09 156.03 C 148.12 156.89 148.84 157.55 149.70 157.52 C 150.56 157.49 151.22 156.77 151.19 155.91 L 151.15 154.93 C 151.12 154.08 150.40 153.41 149.54 153.44 C 148.68 153.48 148.02 154.20 148.05 155.05 Z M 148.10 156.02 L 148.13 157.11 C 148.15 157.97 148.87 158.64 149.72 158.61 C 150.57 158.59 151.24 157.87 151.22 157.02 L 151.18 155.93 C 151.16 155.07 150.45 154.40 149.59 154.43 C 148.74 154.45 148.07 155.17 148.10 156.02 Z M 148.14 157.09 L 148.15 158.15 C 148.17 159.00 148.87 159.67 149.72 159.66 C 150.56 159.64 151.24 158.94 151.23 158.10 L 151.21 157.04 C 151.19 156.19 150.49 155.52 149.65 155.53 C 148.80 155.55 148.12 156.25 148.14 157.09 Z M 148.17 158.13 L 148.17 159.17 C 148.18 160.01 148.87 160.69 149.71 160.68 C 150.55 160.68 151.23 159.99 151.22 159.15 L 151.21 158.11 C 151.21 157.27 150.52 156.59 149.68 156.60 C 148.84 156.60 148.16 157.29 148.17 158.13 Z M 148.19 159.16 L 148.19 160.15 C 148.19 160.98 148.87 161.66 149.70 161.65 C 150.54 161.65 151.21 160.97 151.21 160.14 L 151.21 159.15 C 151.21 158.32 150.53 157.64 149.69 157.65 C 148.86 157.65 148.18 158.33 148.19 159.16 Z M 148.20 160.14 L 148.20 161.17 C 148.20 162.00 148.87 162.67 149.70 162.67 C 150.53 162.67 151.20 162.00 151.20 161.17 L 151.20 160.14 C 151.20 159.32 150.53 158.65 149.70 158.65 C 148.87 158.65 148.20 159.32 148.20 160.14 Z M 148.23 161.17 L 148.23 162.18 C 148.23 162.99 148.89 163.65 149.70 163.65 C 150.51 163.65 151.17 162.99 151.17 162.18 L 151.17 161.17 C 151.17 160.36 150.51 159.70 149.70 159.70 C 148.89 159.70 148.23 160.36 148.23 161.17 Z M 148.25 162.18 L 148.25 162.97 C 148.25 163.77 148.90 164.42 149.70 164.42 C 150.50 164.42 151.15 163.77 151.15 162.97 L 151.15 162.18 C 151.15 161.38 150.50 160.73 149.70 160.73 C 148.90 160.73 148.25 161.38 148.25 162.18 Z"
      fill="black"
      fill-rule="nonzero" /><path d="M 157.39 143.26 L 157.52 144.12 C 157.64 144.93 158.40 145.49 159.21 145.37 C 160.02 145.25 160.58 144.49 160.46 143.68 L 160.33 142.82 C 160.21 142.01 159.45 141.45 158.64 141.57 C 157.83 141.69 157.27 142.45 157.39 143.26 Z M 157.46 143.98 L 157.52 144.96 C 157.56 145.80 158.28 146.45 159.12 146.40 C 159.96 146.36 160.61 145.64 160.56 144.80 L 160.51 143.82 C 160.47 142.98 159.75 142.33 158.91 142.38 C 158.06 142.42 157.42 143.14 157.46 143.98 Z M 157.48 144.75 L 157.39 145.88 C 157.32 146.74 157.97 147.49 158.83 147.56 C 159.69 147.63 160.44 146.99 160.51 146.13 L 160.60 145.00 C 160.67 144.14 160.02 143.39 159.16 143.32 C 158.30 143.25 157.55 143.89 157.48 144.75 Z M 157.39 145.73 L 157.22 146.69 C 157.07 147.55 157.65 148.37 158.51 148.52 C 159.36 148.67 160.18 148.10 160.34 147.24 L 160.51 146.28 C 160.66 145.42 160.08 144.60 159.22 144.45 C 158.37 144.30 157.55 144.87 157.39 145.73 Z M 157.24 146.62 L 157.01 147.64 C 156.82 148.49 157.35 149.34 158.20 149.53 C 159.05 149.72 159.90 149.19 160.09 148.34 L 160.32 147.32 C 160.51 146.46 159.98 145.62 159.13 145.43 C 158.28 145.23 157.43 145.77 157.24 146.62 Z M 157.02 147.60 L 156.76 148.60 C 156.54 149.45 157.05 150.31 157.90 150.53 C 158.75 150.75 159.61 150.23 159.82 149.39 L 160.08 148.38 C 160.30 147.54 159.79 146.67 158.94 146.46 C 158.10 146.24 157.23 146.75 157.02 147.60 Z M 156.77 148.58 L 156.51 149.50 C 156.28 150.35 156.78 151.22 157.62 151.45 C 158.46 151.68 159.33 151.18 159.56 150.34 L 159.82 149.42 C 160.05 148.57 159.55 147.70 158.71 147.47 C 157.87 147.24 157.00 147.73 156.77 148.58 Z M 156.52 149.49 L 156.19 150.61 C 155.95 151.45 156.44 152.33 157.28 152.57 C 158.12 152.81 159.00 152.33 159.24 151.49 L 159.56 150.36 C 159.80 149.52 159.31 148.64 158.47 148.40 C 157.63 148.16 156.76 148.64 156.52 149.49 Z M 156.20 150.60 L 155.93 151.49 C 155.68 152.32 156.16 153.21 156.99 153.46 C 157.83 153.71 158.71 153.23 158.96 152.40 L 159.23 151.50 C 159.48 150.67 159.01 149.79 158.17 149.53 C 157.33 149.28 156.45 149.76 156.20 150.60 Z M 155.94 151.48 L 155.68 152.32 C 155.42 153.16 155.89 154.04 156.73 154.30 C 157.56 154.56 158.44 154.09 158.70 153.25 L 158.96 152.40 C 159.22 151.57 158.75 150.68 157.91 150.43 C 157.08 150.17 156.19 150.64 155.94 151.48 Z M 155.68 152.32 L 155.39 153.28 C 155.13 154.11 155.60 154.99 156.43 155.25 C 157.26 155.51 158.15 155.04 158.40 154.21 L 158.70 153.25 C 158.95 152.42 158.48 151.54 157.65 151.28 C 156.82 151.02 155.94 151.49 155.68 152.32 Z M 155.40 153.27 L 155.09 154.23 C 154.83 155.06 155.30 155.94 156.12 156.20 C 156.95 156.46 157.83 156.00 158.09 155.17 L 158.39 154.21 C 158.65 153.38 158.19 152.50 157.37 152.24 C 156.54 151.98 155.66 152.44 155.40 153.27 Z M 155.11 154.22 L 154.80 155.15 C 154.53 155.97 154.98 156.86 155.81 157.12 C 156.63 157.39 157.51 156.94 157.78 156.12 L 158.08 155.18 C 158.35 154.36 157.90 153.48 157.08 153.21 C 156.26 152.94 155.37 153.39 155.11 154.22 Z M 154.81 155.14 L 154.49 156.10 C 154.22 156.91 154.66 157.79 155.48 158.07 C 156.29 158.34 157.18 157.90 157.45 157.08 L 157.77 156.13 C 158.04 155.31 157.60 154.43 156.79 154.16 C 155.97 153.88 155.09 154.32 154.81 155.14 Z M 154.50 156.09 L 154.17 157.05 C 153.90 157.86 154.33 158.74 155.14 159.02 C 155.95 159.30 156.83 158.86 157.11 158.05 L 157.44 157.09 C 157.72 156.28 157.28 155.40 156.47 155.12 C 155.66 154.84 154.78 155.28 154.50 156.09 Z M 154.18 157.04 L 153.85 157.99 C 153.56 158.80 153.99 159.68 154.79 159.96 C 155.60 160.25 156.48 159.82 156.77 159.02 L 157.10 158.06 C 157.39 157.26 156.96 156.37 156.16 156.09 C 155.35 155.80 154.47 156.23 154.18 157.04 Z M 153.86 157.97 L 153.51 158.91 C 153.22 159.71 153.63 160.60 154.43 160.89 C 155.23 161.19 156.12 160.78 156.41 159.98 L 156.76 159.04 C 157.05 158.24 156.64 157.35 155.84 157.05 C 155.04 156.76 154.15 157.17 153.86 157.97 Z M 153.52 158.89 L 153.16 159.83 C 152.85 160.63 153.24 161.52 154.04 161.83 C 154.83 162.14 155.72 161.74 156.03 160.95 L 156.40 160.00 C 156.71 159.21 156.31 158.31 155.52 158.01 C 154.72 157.70 153.83 158.09 153.52 158.89 Z M 153.16 159.83 L 152.81 160.73 C 152.50 161.52 152.88 162.41 153.67 162.72 C 154.46 163.03 155.36 162.65 155.67 161.86 L 156.02 160.96 C 156.34 160.17 155.95 159.27 155.16 158.96 C 154.37 158.65 153.48 159.04 153.16 159.83 Z M 152.81 160.73 L 152.44 161.68 C 152.13 162.47 152.52 163.36 153.31 163.66 C 154.10 163.97 154.99 163.58 155.30 162.79 L 155.67 161.85 C 155.98 161.06 155.59 160.17 154.80 159.86 C 154.01 159.55 153.12 159.94 152.81 160.73 Z M 152.45 161.67 L 152.08 162.58 C 151.77 163.37 152.15 164.26 152.94 164.58 C 153.72 164.89 154.62 164.51 154.93 163.72 L 155.30 162.80 C 155.61 162.01 155.23 161.12 154.44 160.81 C 153.65 160.49 152.76 160.88 152.45 161.67 Z M 152.10 162.55 L 151.70 163.49 C 151.36 164.26 151.72 165.16 152.50 165.50 C 153.28 165.83 154.18 165.47 154.51 164.69 L 154.91 163.75 C 155.25 162.98 154.89 162.08 154.11 161.74 C 153.33 161.41 152.43 161.77 152.10 162.55 Z M 151.72 163.44 L 151.30 164.33 C 150.94 165.09 151.27 166.00 152.03 166.36 C 152.80 166.72 153.71 166.39 154.06 165.63 L 154.49 164.74 C 154.85 163.98 154.52 163.07 153.76 162.71 C 152.99 162.35 152.08 162.67 151.72 163.44 Z M 151.34 164.27 L 150.87 165.17 C 150.48 165.91 150.76 166.83 151.50 167.22 C 152.24 167.61 153.16 167.33 153.55 166.59 L 154.03 165.69 C 154.42 164.95 154.13 164.03 153.39 163.64 C 152.65 163.25 151.73 163.53 151.34 164.27 Z M 150.90 165.14 L 150.42 165.99 C 150.00 166.71 150.25 167.63 150.98 168.04 C 151.70 168.45 152.61 168.20 153.02 167.48 L 153.51 166.63 C 153.92 165.91 153.67 164.99 152.95 164.58 C 152.23 164.17 151.31 164.42 150.90 165.14 Z M 150.45 165.96 L 149.93 166.81 C 149.50 167.51 149.72 168.42 150.42 168.85 C 151.12 169.28 152.04 169.06 152.47 168.36 L 152.99 167.51 C 153.41 166.81 153.20 165.90 152.50 165.47 C 151.80 165.04 150.88 165.26 150.45 165.96 Z M 150.00 166.74 L 149.44 167.53 C 148.98 168.20 149.14 169.11 149.80 169.58 C 150.47 170.05 151.39 169.88 151.85 169.22 L 152.40 168.43 C 152.87 167.76 152.71 166.85 152.04 166.38 C 151.38 165.92 150.46 166.08 150.00 166.74 Z M 149.58 167.38 L 148.89 168.12 C 148.34 168.71 148.38 169.63 148.96 170.18 C 149.55 170.73 150.47 170.70 151.02 170.11 L 151.71 169.37 C 152.26 168.78 152.23 167.86 151.64 167.31 C 151.05 166.76 150.13 166.80 149.58 167.38 Z M 149.09 167.96 L 148.34 168.51 C 147.70 168.99 147.57 169.89 148.05 170.53 C 148.52 171.17 149.43 171.31 150.07 170.83 L 150.82 170.28 C 151.46 169.80 151.59 168.90 151.12 168.26 C 150.64 167.61 149.74 167.48 149.09 167.96 Z M 148.59 168.37 L 147.62 168.83 C 146.90 169.17 146.59 170.02 146.93 170.74 C 147.27 171.46 148.13 171.77 148.84 171.43 L 149.82 170.97 C 150.54 170.64 150.84 169.78 150.51 169.06 C 150.17 168.34 149.31 168.03 148.59 168.37 Z M 147.85 168.75 L 146.94 169.00 C 146.18 169.21 145.73 170.00 145.95 170.77 C 146.16 171.53 146.95 171.98 147.71 171.76 L 148.62 171.51 C 149.38 171.30 149.83 170.51 149.61 169.75 C 149.40 168.98 148.61 168.54 147.85 168.75 Z M 147.06 168.98 L 146.06 169.17 C 145.28 169.32 144.77 170.07 144.92 170.84 C 145.07 171.62 145.82 172.13 146.59 171.98 L 147.60 171.79 C 148.37 171.64 148.88 170.89 148.73 170.11 C 148.58 169.34 147.84 168.83 147.06 168.98 Z M 146.10 169.16 L 145.32 169.29 C 144.54 169.41 144.01 170.14 144.14 170.92 C 144.26 171.70 144.99 172.23 145.77 172.11 L 146.55 171.98 C 147.33 171.86 147.86 171.13 147.74 170.35 C 147.61 169.57 146.88 169.04 146.10 169.16 Z"
      fill="black"
      fill-rule="nonzero" /><path d="M 133.76 169.17 L 132.47 169.16 C 131.62 169.15 130.94 169.83 130.93 170.67 C 130.92 171.51 131.59 172.20 132.44 172.21 L 133.73 172.22 C 134.57 172.23 135.26 171.55 135.27 170.71 C 135.28 169.87 134.60 169.18 133.76 169.17 Z M 132.85 169.14 L 132.49 169.05 C 131.64 168.83 130.77 169.35 130.55 170.20 C 130.33 171.05 130.84 171.92 131.70 172.14 L 132.06 172.23 C 132.91 172.45 133.78 171.93 133.99 171.08 C 134.21 170.23 133.70 169.36 132.85 169.14 Z M 132.43 172.19 L 133.40 171.99 C 134.28 171.80 134.85 170.94 134.66 170.06 C 134.48 169.18 133.62 168.61 132.73 168.79 L 131.76 169.00 C 130.88 169.18 130.31 170.04 130.49 170.93 C 130.68 171.81 131.54 172.37 132.43 172.19 Z M 133.32 172.02 L 134.51 171.83 C 135.40 171.69 136.02 170.84 135.87 169.95 C 135.73 169.05 134.89 168.43 133.99 168.58 L 132.81 168.76 C 131.91 168.91 131.30 169.75 131.44 170.65 C 131.58 171.55 132.43 172.16 133.32 172.02 Z M 134.49 171.85 L 135.50 171.70 C 136.41 171.56 137.04 170.72 136.90 169.81 C 136.77 168.90 135.93 168.28 135.02 168.41 L 134.01 168.56 C 133.10 168.69 132.47 169.54 132.61 170.45 C 132.74 171.35 133.58 171.98 134.49 171.85 Z M 135.49 171.71 L 136.46 171.58 C 137.37 171.45 138.01 170.61 137.89 169.69 C 137.76 168.78 136.92 168.14 136.00 168.26 L 135.03 168.40 C 134.12 168.52 133.48 169.37 133.60 170.28 C 133.73 171.20 134.57 171.84 135.49 171.71 Z M 136.44 171.59 L 137.47 171.46 C 138.39 171.34 139.04 170.50 138.93 169.59 C 138.81 168.67 137.98 168.01 137.06 168.13 L 136.02 168.26 C 135.10 168.37 134.45 169.21 134.57 170.13 C 134.68 171.05 135.52 171.70 136.44 171.59 Z M 137.47 171.46 L 138.40 171.34 C 139.32 171.23 139.98 170.39 139.86 169.47 C 139.75 168.55 138.91 167.90 137.99 168.01 L 137.06 168.13 C 136.14 168.24 135.48 169.08 135.60 170.00 C 135.71 170.92 136.55 171.57 137.47 171.46 Z M 138.42 171.34 L 139.41 171.21 C 140.33 171.09 140.97 170.24 140.85 169.32 C 140.73 168.40 139.88 167.75 138.96 167.87 L 137.97 168.01 C 137.05 168.13 136.40 168.98 136.53 169.90 C 136.65 170.82 137.50 171.47 138.42 171.34 Z M 139.39 171.22 L 140.38 171.10 C 141.31 170.98 141.97 170.13 141.85 169.21 C 141.73 168.28 140.89 167.62 139.96 167.74 L 138.97 167.86 C 138.04 167.98 137.38 168.83 137.50 169.76 C 137.62 170.68 138.47 171.34 139.39 171.22 Z M 140.37 171.11 L 141.36 171.00 C 142.30 170.89 142.97 170.04 142.86 169.11 C 142.75 168.17 141.91 167.50 140.97 167.61 L 139.98 167.72 C 139.04 167.83 138.37 168.68 138.48 169.61 C 138.59 170.55 139.43 171.22 140.37 171.11 Z M 141.37 171.00 L 142.37 170.88 C 143.31 170.77 143.97 169.91 143.86 168.97 C 143.74 168.03 142.89 167.37 141.95 167.48 L 140.96 167.60 C 140.02 167.72 139.35 168.57 139.47 169.51 C 139.58 170.45 140.44 171.12 141.37 171.00 Z M 142.38 170.88 L 143.37 170.75 C 144.31 170.63 144.97 169.77 144.85 168.83 C 144.73 167.89 143.87 167.23 142.93 167.35 L 141.94 167.48 C 141.00 167.60 140.34 168.46 140.46 169.40 C 140.58 170.34 141.44 171.00 142.38 170.88 Z M 143.35 170.76 L 144.34 170.64 C 145.28 170.53 145.96 169.68 145.85 168.74 C 145.74 167.80 144.89 167.12 143.95 167.23 L 142.95 167.35 C 142.01 167.46 141.34 168.31 141.45 169.25 C 141.56 170.19 142.41 170.87 143.35 170.76 Z M 144.31 170.64 L 145.31 170.54 C 146.25 170.45 146.94 169.62 146.85 168.68 C 146.76 167.73 145.92 167.04 144.98 167.14 L 143.98 167.23 C 143.04 167.32 142.35 168.16 142.44 169.10 C 142.53 170.04 143.37 170.73 144.31 170.64 Z M 145.28 170.54 L 146.26 170.46 C 147.20 170.39 147.90 169.57 147.83 168.63 C 147.76 167.69 146.93 166.99 145.99 167.06 L 145.01 167.14 C 144.07 167.21 143.37 168.04 143.44 168.97 C 143.52 169.91 144.34 170.62 145.28 170.54 Z M 146.25 170.46 L 147.24 170.39 C 148.17 170.32 148.88 169.51 148.81 168.58 C 148.75 167.64 147.94 166.94 147.00 167.00 L 146.01 167.07 C 145.08 167.13 144.37 167.94 144.43 168.88 C 144.50 169.81 145.31 170.52 146.25 170.46 Z M 147.24 170.37 L 148.25 170.30 C 149.18 170.24 149.88 169.43 149.81 168.50 C 149.74 167.57 148.94 166.88 148.01 166.94 L 147.00 167.01 C 146.07 167.08 145.37 167.89 145.44 168.81 C 145.51 169.74 146.31 170.44 147.24 170.37 Z M 148.25 170.28 L 149.25 170.21 C 150.17 170.14 150.86 169.35 150.79 168.43 C 150.73 167.51 149.93 166.82 149.01 166.89 L 148.01 166.96 C 147.09 167.03 146.40 167.82 146.47 168.74 C 146.54 169.66 147.33 170.35 148.25 170.28 Z M 149.22 170.19 L 150.23 170.13 C 151.13 170.08 151.83 169.31 151.78 168.40 C 151.73 167.50 150.95 166.81 150.05 166.86 L 149.04 166.91 C 148.14 166.96 147.44 167.73 147.49 168.64 C 147.54 169.54 148.32 170.24 149.22 170.19 Z M 150.18 170.12 L 151.18 170.10 C 152.08 170.08 152.80 169.33 152.77 168.43 C 152.75 167.53 152.00 166.82 151.10 166.84 L 150.10 166.86 C 149.20 166.89 148.48 167.63 148.51 168.54 C 148.53 169.44 149.28 170.15 150.18 170.12 Z M 151.15 170.10 L 152.14 170.09 C 153.04 170.09 153.77 169.36 153.76 168.46 C 153.76 167.56 153.03 166.83 152.13 166.84 L 151.14 166.84 C 150.24 166.84 149.51 167.58 149.51 168.48 C 149.52 169.38 150.25 170.10 151.15 170.10 Z M 152.13 170.10 L 153.13 170.10 C 154.03 170.10 154.76 169.37 154.76 168.47 C 154.76 167.56 154.03 166.83 153.13 166.83 L 152.13 166.83 C 151.23 166.83 150.50 167.56 150.50 168.47 C 150.50 169.37 151.23 170.10 152.13 170.10 Z M 153.13 170.10 L 154.13 170.10 C 155.04 170.10 155.77 169.37 155.77 168.47 C 155.77 167.56 155.04 166.83 154.13 166.83 L 153.13 166.83 C 152.22 166.83 151.49 167.56 151.49 168.47 C 151.49 169.37 152.22 170.10 153.13 170.10 Z M 154.13 170.11 L 155.14 170.11 C 156.04 170.11 156.78 169.37 156.78 168.47 C 156.78 167.56 156.04 166.82 155.14 166.82 L 154.13 166.82 C 153.22 166.82 152.49 167.56 152.49 168.47 C 152.49 169.37 153.22 170.11 154.13 170.11 Z M 155.14 170.12 L 156.14 170.12 C 157.05 170.12 157.79 169.38 157.79 168.47 C 157.79 167.55 157.05 166.81 156.14 166.81 L 155.14 166.81 C 154.22 166.81 153.48 167.55 153.48 168.47 C 153.48 169.38 154.22 170.12 155.14 170.12 Z M 156.14 170.12 L 157.14 170.12 C 158.05 170.12 158.79 169.38 158.79 168.47 C 158.79 167.55 158.05 166.81 157.14 166.81 L 156.14 166.81 C 155.22 166.81 154.48 167.55 154.48 168.47 C 154.48 169.38 155.22 170.12 156.14 170.12 Z M 157.14 170.13 L 158.14 170.13 C 159.06 170.13 159.80 169.38 159.80 168.47 C 159.80 167.55 159.06 166.80 158.14 166.80 L 157.14 166.80 C 156.22 166.80 155.48 167.55 155.48 168.47 C 155.48 169.38 156.22 170.13 157.14 170.13 Z M 158.14 170.13 L 159.14 170.13 C 160.05 170.13 160.80 169.38 160.80 168.47 C 160.80 167.55 160.05 166.80 159.14 166.80 L 158.14 166.80 C 157.22 166.80 156.48 167.55 156.48 168.47 C 156.48 169.38 157.22 170.13 158.14 170.13 Z M 159.14 170.13 L 160.13 170.13 C 161.05 170.13 161.80 169.39 161.80 168.47 C 161.80 167.54 161.05 166.80 160.13 166.80 L 159.14 166.80 C 158.21 166.80 157.47 167.54 157.47 168.47 C 157.47 169.39 158.21 170.13 159.14 170.13 Z M 160.13 170.13 L 161.13 170.13 C 162.05 170.13 162.79 169.38 162.79 168.47 C 162.79 167.55 162.05 166.80 161.13 166.80 L 160.13 166.80 C 159.22 166.80 158.47 167.55 158.47 168.47 C 158.47 169.38 159.22 170.13 160.13 170.13 Z M 161.13 170.12 L 162.16 170.12 C 163.07 170.12 163.81 169.38 163.81 168.47 C 163.81 167.55 163.07 166.81 162.16 166.81 L 161.13 166.81 C 160.22 166.81 159.48 167.55 159.48 168.47 C 159.48 169.38 160.22 170.12 161.13 170.12 Z M 162.16 170.11 L 163.16 170.11 C 164.07 170.11 164.80 169.37 164.80 168.47 C 164.80 167.56 164.07 166.82 163.16 166.82 L 162.16 166.82 C 161.25 166.82 160.51 167.56 160.51 168.47 C 160.51 169.37 161.25 170.11 162.16 170.11 Z M 163.16 170.10 L 164.14 170.10 C 165.04 170.10 165.77 169.37 165.77 168.47 C 165.77 167.56 165.04 166.83 164.14 166.83 L 163.16 166.83 C 162.26 166.83 161.53 167.56 161.52 168.46 C 161.52 169.37 162.26 170.10 163.16 170.10 Z M 164.12 170.09 L 165.10 170.10 C 166.00 170.11 166.73 169.39 166.74 168.49 C 166.75 167.60 166.03 166.86 165.14 166.85 L 164.15 166.84 C 163.26 166.83 162.52 167.55 162.51 168.45 C 162.50 169.35 163.22 170.08 164.12 170.09 Z M 165.06 170.09 L 166.06 170.13 C 166.95 170.16 167.70 169.46 167.73 168.56 C 167.76 167.67 167.06 166.92 166.17 166.89 L 165.17 166.86 C 164.28 166.83 163.53 167.53 163.50 168.42 C 163.47 169.31 164.17 170.06 165.06 170.09 Z M 166.01 170.11 L 167.02 170.18 C 167.91 170.25 168.68 169.58 168.74 168.69 C 168.80 167.80 168.13 167.04 167.24 166.97 L 166.23 166.90 C 165.34 166.84 164.57 167.51 164.51 168.40 C 164.45 169.29 165.12 170.05 166.01 170.11 Z M 166.91 170.17 L 168.07 170.33 C 168.95 170.45 169.76 169.84 169.88 168.96 C 170.01 168.09 169.39 167.28 168.52 167.16 L 167.35 166.99 C 166.48 166.87 165.67 167.48 165.55 168.36 C 165.42 169.23 166.03 170.04 166.91 170.17 Z M 167.82 170.27 L 168.60 170.51 C 169.44 170.78 170.34 170.31 170.60 169.47 C 170.87 168.62 170.40 167.72 169.55 167.46 L 168.77 167.22 C 167.93 166.95 167.03 167.42 166.77 168.26 C 166.50 169.11 166.97 170.00 167.82 170.27 Z M 168.86 167.41 L 168.02 167.53 C 167.15 167.65 166.55 168.46 166.67 169.32 C 166.79 170.19 167.59 170.80 168.46 170.68 L 169.30 170.56 C 170.17 170.44 170.77 169.63 170.65 168.77 C 170.53 167.90 169.72 167.29 168.86 167.41 Z M 168.19 167.53 L 167.90 167.54 C 167.03 167.57 166.35 168.30 166.38 169.17 C 166.41 170.03 167.14 170.72 168.01 170.69 L 168.29 170.68 C 169.16 170.65 169.85 169.92 169.82 169.05 C 169.79 168.18 169.06 167.50 168.19 167.53 Z"
      fill="black"
      fill-rule="nonzero" /></svg>