<svg xmlns="http://www.w3.org/2000/svg" width="300" height="300" viewBox="0 0 300 300">
<path d="M 138.08 129.46 L 139.03 129.26 C 139.84 129.09 140.36 128.28 140.19 127.47 C 140.01 126.65 139.21 126.13 138.40 126.31 L 137.45 126.51 C 136.63 126.69 136.11 127.49 136.29 128.31 C 136.46 129.12 137.26 129.64 138.08 129.46 Z M 139.00 129.32 L 139.98 129.13 C 140.83 128.97 141.39 128.16 141.23 127.32 C 141.07 126.47 140.26 125.91 139.41 126.07 L 138.43 126.25 C 137.58 126.41 137.02 127.22 137.18 128.07 C 137.34 128.92 138.15 129.47 139.00 129.32 Z M 139.91 129.18 L 140.94 129.04 C 141.82 128.92 142.43 128.12 142.31 127.25 C 142.19 126.37 141.38 125.76 140.51 125.88 L 139.48 126.02 C 138.61 126.14 138.00 126.95 138.12 127.82 C 138.24 128.69 139.04 129.30 139.91 129.18 Z M 140.88 129.06 L 141.91 128.96 C 142.80 128.87 143.44 128.09 143.36 127.21 C 143.27 126.33 142.49 125.68 141.61 125.76 L 140.57 125.86 C 139.69 125.95 139.05 126.73 139.13 127.61 C 139.22 128.50 140.00 129.14 140.88 129.06 Z M 141.89 128.96 L 142.86 128.88 C 143.74 128.81 144.40 128.03 144.33 127.15 C 144.25 126.27 143.48 125.61 142.60 125.68 L 141.63 125.76 C 140.75 125.83 140.09 126.61 140.16 127.49 C 140.23 128.38 141.01 129.03 141.89 128.96 Z M 142.88 128.88 L 143.94 128.78 C 144.82 128.70 145.47 127.91 145.38 127.03 C 145.30 126.15 144.52 125.50 143.63 125.59 L 142.58 125.69 C 141.69 125.77 141.05 126.55 141.13 127.43 C 141.21 128.31 142.00 128.96 142.88 128.88 Z M 143.97 128.77 L 144.89 128.67 C 145.76 128.57 146.40 127.77 146.29 126.89 C 146.19 126.02 145.40 125.38 144.52 125.49 L 143.60 125.59 C 142.72 125.69 142.09 126.49 142.19 127.37 C 142.29 128.24 143.09 128.88 143.97 128.77 Z M 144.90 128.67 L 145.88 128.55 C 146.75 128.44 147.38 127.64 147.27 126.76 C 147.17 125.89 146.37 125.26 145.49 125.37 L 144.51 125.49 C 143.63 125.60 143.01 126.39 143.11 127.27 C 143.22 128.15 144.02 128.77 144.90 128.67 Z M 145.90 128.54 L 146.89 128.41 C 147.76 128.29 148.38 127.49 148.26 126.61 C 148.14 125.74 147.34 125.12 146.46 125.24 L 145.47 125.37 C 144.60 125.49 143.98 126.30 144.10 127.17 C 144.22 128.05 145.02 128.66 145.90 128.54 Z M 146.91 128.40 L 147.90 128.25 C 148.77 128.12 149.37 127.31 149.24 126.44 C 149.11 125.57 148.29 124.97 147.42 125.10 L 146.44 125.25 C 145.57 125.38 144.97 126.19 145.10 127.06 C 145.23 127.93 146.04 128.53 146.91 128.40 Z M 147.90 128.24 L 148.89 128.09 C 149.75 127.96 150.35 127.15 150.21 126.28 C 150.08 125.42 149.27 124.82 148.40 124.96 L 147.42 125.11 C 146.55 125.24 145.96 126.05 146.09 126.92 C 146.23 127.78 147.04 128.38 147.90 128.24 Z M 148.89 128.08 L 149.88 127.93 C 150.74 127.79 151.33 126.99 151.20 126.13 C 151.06 125.27 150.25 124.68 149.39 124.81 L 148.40 124.97 C 147.54 125.10 146.95 125.91 147.09 126.77 C 147.22 127.63 148.03 128.22 148.89 128.08 Z M 149.89 127.92 L 150.73 127.78 C 151.59 127.64 152.17 126.84 152.03 125.98 C 151.89 125.13 151.08 124.54 150.23 124.68 L 149.39 124.82 C 148.53 124.96 147.95 125.77 148.09 126.62 C 148.23 127.48 149.03 128.06 149.89 127.92 Z M 150.75 127.77 L 151.68 127.61 C 152.53 127.46 153.10 126.65 152.95 125.80 C 152.81 124.95 152.00 124.38 151.15 124.53 L 150.21 124.70 C 149.36 124.84 148.79 125.65 148.94 126.50 C 149.09 127.35 149.90 127.92 150.75 127.77 Z M 151.70 127.60 L 152.86 127.38 C 153.70 127.23 154.26 126.42 154.10 125.57 C 153.95 124.73 153.14 124.17 152.29 124.33 L 151.14 124.54 C 150.29 124.70 149.73 125.51 149.89 126.35 C 150.05 127.19 150.85 127.75 151.70 127.60 Z M 152.86 127.38 L 153.83 127.19 C 154.67 127.04 155.22 126.23 155.07 125.39 C 154.91 124.55 154.11 124.00 153.27 124.15 L 152.29 124.34 C 151.45 124.49 150.90 125.30 151.05 126.14 C 151.21 126.98 152.02 127.53 152.86 127.38 Z M 153.82 127.19 L 154.86 127.01 C 155.70 126.86 156.26 126.06 156.11 125.22 C 155.97 124.38 155.17 123.82 154.33 123.97 L 153.28 124.16 C 152.44 124.30 151.88 125.10 152.03 125.94 C 152.18 126.78 152.98 127.34 153.82 127.19 Z M 154.83 127.01 L 155.85 126.85 C 156.69 126.72 157.27 125.93 157.14 125.09 C 157.01 124.25 156.22 123.68 155.38 123.81 L 154.36 123.97 C 153.52 124.10 152.94 124.89 153.08 125.73 C 153.21 126.57 153.99 127.14 154.83 127.01 Z M 155.79 126.85 L 156.79 126.74 C 157.63 126.64 158.23 125.89 158.14 125.05 C 158.04 124.21 157.28 123.60 156.44 123.70 L 155.45 123.81 C 154.60 123.90 154.00 124.66 154.10 125.50 C 154.19 126.34 154.95 126.95 155.79 126.85 Z M 156.63 126.73 L 157.77 126.72 C 158.60 126.71 159.27 126.03 159.26 125.19 C 159.25 124.36 158.57 123.69 157.74 123.70 L 156.60 123.71 C 155.77 123.71 155.10 124.40 155.10 125.23 C 155.11 126.07 155.80 126.74 156.63 126.73 Z M 157.56 126.67 L 158.39 126.78 C 159.20 126.89 159.94 126.32 160.05 125.51 C 160.16 124.70 159.58 123.95 158.77 123.85 L 157.94 123.74 C 157.13 123.63 156.39 124.20 156.28 125.01 C 156.18 125.82 156.75 126.57 157.56 126.67 Z M 158.32 126.75 L 158.47 126.78 C 159.27 126.92 160.03 126.39 160.17 125.60 C 160.31 124.81 159.79 124.05 158.99 123.90 L 158.84 123.88 C 158.05 123.73 157.29 124.26 157.14 125.06 C 157.00 125.85 157.53 126.61 158.32 126.75 Z"
      fill="black"
      fill-rule="nonzero" /><path d="M 140.93 134.72 L 141.14 135.70 C 141.31 136.53 142.14 137.07 142.97 136.89 C 143.81 136.71 144.34 135.89 144.16 135.05 L 143.96 134.08 C 143.78 133.24 142.96 132.71 142.12 132.88 C 141.28 133.06 140.75 133.89 140.93 134.72 Z M 141.16 135.79 L 141.43 136.76 C 141.66 137.58 142.52 138.06 143.34 137.83 C 144.16 137.60 144.64 136.74 144.41 135.92 L 144.14 134.96 C 143.91 134.13 143.06 133.65 142.23 133.88 C 141.41 134.11 140.93 134.97 141.16 135.79 Z M 141.48 136.90 L 141.83 137.79 C 142.14 138.58 143.04 138.97 143.83 138.66 C 144.63 138.35 145.02 137.45 144.71 136.66 L 144.36 135.77 C 144.05 134.98 143.15 134.59 142.36 134.90 C 141.56 135.21 141.17 136.11 141.48 136.90 Z M 141.87 137.87 L 142.30 138.80 C 142.66 139.58 143.58 139.91 144.35 139.55 C 145.12 139.19 145.46 138.28 145.10 137.51 L 144.67 136.58 C 144.31 135.80 143.39 135.47 142.62 135.83 C 141.85 136.19 141.51 137.10 141.87 137.87 Z M 142.31 138.82 L 142.74 139.70 C 143.10 140.47 144.02 140.80 144.79 140.43 C 145.55 140.06 145.88 139.15 145.51 138.38 L 145.09 137.49 C 144.72 136.73 143.80 136.40 143.04 136.77 C 142.27 137.13 141.95 138.05 142.31 138.82 Z M 142.74 139.69 L 143.16 140.60 C 143.52 141.37 144.43 141.70 145.20 141.34 C 145.97 140.98 146.30 140.07 145.94 139.30 L 145.51 138.39 C 145.15 137.63 144.24 137.30 143.48 137.65 C 142.71 138.01 142.38 138.93 142.74 139.69 Z M 143.16 140.58 L 143.58 141.51 C 143.92 142.28 144.83 142.62 145.60 142.27 C 146.36 141.93 146.71 141.03 146.36 140.26 L 145.94 139.33 C 145.60 138.56 144.69 138.22 143.92 138.56 C 143.16 138.91 142.81 139.81 143.16 140.58 Z M 143.57 141.48 L 143.92 142.30 C 144.25 143.07 145.14 143.43 145.92 143.10 C 146.69 142.77 147.05 141.88 146.72 141.10 L 146.37 140.29 C 146.04 139.51 145.15 139.15 144.37 139.48 C 143.60 139.81 143.24 140.71 143.57 141.48 Z M 143.91 142.27 L 144.27 143.17 C 144.59 143.95 145.47 144.33 146.25 144.01 C 147.03 143.70 147.41 142.82 147.09 142.04 L 146.73 141.13 C 146.42 140.36 145.53 139.98 144.75 140.29 C 143.97 140.61 143.60 141.49 143.91 142.27 Z M 144.27 143.14 L 144.67 144.20 C 144.97 144.98 145.84 145.38 146.62 145.08 C 147.41 144.78 147.80 143.90 147.50 143.12 L 147.10 142.07 C 146.80 141.28 145.93 140.89 145.14 141.19 C 144.36 141.48 143.97 142.36 144.27 143.14 Z M 144.66 144.18 L 145.06 145.27 C 145.35 146.05 146.22 146.45 147.00 146.17 C 147.79 145.88 148.19 145.01 147.90 144.23 L 147.51 143.14 C 147.22 142.36 146.35 141.95 145.57 142.24 C 144.78 142.53 144.38 143.40 144.66 144.18 Z M 145.07 145.26 L 145.46 146.34 C 145.74 147.12 146.61 147.53 147.39 147.24 C 148.18 146.96 148.58 146.09 148.29 145.31 L 147.90 144.23 C 147.61 143.45 146.75 143.04 145.97 143.33 C 145.18 143.61 144.78 144.48 145.07 145.26 Z M 145.47 146.36 L 145.81 147.26 C 146.10 148.04 146.97 148.43 147.75 148.13 C 148.53 147.84 148.92 146.97 148.62 146.19 L 148.28 145.29 C 147.99 144.51 147.12 144.12 146.34 144.42 C 145.57 144.71 145.17 145.58 145.47 146.36 Z M 145.87 147.37 L 146.18 148.03 C 146.54 148.77 147.43 149.09 148.18 148.73 C 148.92 148.38 149.24 147.48 148.88 146.74 L 148.57 146.08 C 148.21 145.34 147.32 145.02 146.57 145.38 C 145.83 145.73 145.51 146.63 145.87 147.37 Z M 148.99 147.31 L 148.95 146.42 C 148.91 145.61 148.22 144.99 147.42 145.03 C 146.61 145.07 145.98 145.76 146.02 146.56 L 146.07 147.46 C 146.11 148.26 146.80 148.89 147.60 148.85 C 148.41 148.81 149.03 148.12 148.99 147.31 Z M 148.92 146.28 L 148.78 145.35 C 148.66 144.56 147.92 144.02 147.13 144.14 C 146.34 144.26 145.80 145.00 145.92 145.78 L 146.06 146.71 C 146.18 147.50 146.91 148.04 147.70 147.92 C 148.49 147.80 149.04 147.07 148.92 146.28 Z M 148.79 145.43 L 148.69 144.36 C 148.61 143.57 147.90 142.98 147.10 143.06 C 146.30 143.14 145.72 143.85 145.80 144.65 L 145.90 145.71 C 145.98 146.51 146.69 147.09 147.49 147.01 C 148.29 146.93 148.87 146.22 148.79 145.43 Z M 148.70 144.45 L 148.66 143.45 C 148.63 142.64 147.96 142.02 147.15 142.05 C 146.35 142.08 145.72 142.75 145.75 143.55 L 145.79 144.56 C 145.82 145.36 146.49 145.99 147.30 145.96 C 148.10 145.93 148.73 145.26 148.70 144.45 Z M 148.67 143.49 L 148.66 142.47 C 148.66 141.66 147.99 141.01 147.18 141.02 C 146.38 141.02 145.73 141.68 145.73 142.49 L 145.74 143.51 C 145.75 144.32 146.41 144.97 147.22 144.97 C 148.03 144.96 148.68 144.30 148.67 143.49 Z M 148.67 142.49 L 148.68 141.44 C 148.68 140.63 148.02 139.97 147.21 139.96 C 146.39 139.96 145.73 140.62 145.73 141.43 L 145.72 142.48 C 145.72 143.29 146.38 143.95 147.19 143.95 C 148.01 143.96 148.67 143.30 148.67 142.49 Z M 148.68 141.55 L 148.75 140.59 C 148.81 139.77 148.20 139.06 147.38 139.00 C 146.57 138.94 145.86 139.55 145.80 140.37 L 145.72 141.33 C 145.66 142.14 146.28 142.85 147.09 142.91 C 147.91 142.97 148.62 142.36 148.68 141.55 Z M 148.71 140.86 L 148.96 139.91 C 149.17 139.11 148.70 138.30 147.90 138.09 C 147.11 137.88 146.29 138.35 146.08 139.15 L 145.83 140.09 C 145.62 140.89 146.10 141.71 146.89 141.92 C 147.69 142.13 148.50 141.65 148.71 140.86 Z M 148.88 140.18 L 149.31 139.27 C 149.67 138.52 149.35 137.63 148.61 137.27 C 147.86 136.91 146.96 137.23 146.60 137.97 L 146.17 138.88 C 145.81 139.63 146.13 140.53 146.87 140.88 C 147.62 141.24 148.52 140.93 148.88 140.18 Z M 149.17 139.53 L 149.78 138.72 C 150.28 138.05 150.14 137.10 149.47 136.60 C 148.80 136.09 147.85 136.23 147.35 136.90 L 146.74 137.71 C 146.24 138.39 146.38 139.34 147.05 139.84 C 147.72 140.34 148.67 140.20 149.17 139.53 Z M 149.53 139.00 L 150.28 138.40 C 150.94 137.86 151.04 136.90 150.50 136.24 C 149.97 135.58 149.00 135.48 148.34 136.01 L 147.60 136.62 C 146.94 137.15 146.84 138.12 147.37 138.78 C 147.91 139.44 148.87 139.54 149.53 139.00 Z M 149.99 138.59 L 150.87 138.16 C 151.64 137.79 151.96 136.87 151.59 136.10 C 151.21 135.33 150.29 135.01 149.52 135.39 L 148.64 135.82 C 147.87 136.19 147.55 137.11 147.92 137.88 C 148.29 138.65 149.22 138.97 149.99 138.59 Z M 150.61 138.26 L 151.51 138.01 C 152.34 137.78 152.82 136.93 152.59 136.11 C 152.36 135.28 151.50 134.80 150.68 135.03 L 149.78 135.29 C 148.96 135.51 148.48 136.37 148.71 137.19 C 148.94 138.01 149.79 138.49 150.61 138.26 Z M 151.31 138.05 L 152.29 137.92 C 153.14 137.80 153.73 137.02 153.62 136.18 C 153.50 135.33 152.72 134.74 151.88 134.86 L 150.89 134.99 C 150.04 135.11 149.45 135.89 149.57 136.73 C 149.68 137.58 150.46 138.17 151.31 138.05 Z M 152.17 137.93 L 153.22 137.88 C 154.07 137.83 154.73 137.10 154.68 136.25 C 154.64 135.40 153.91 134.74 153.06 134.79 L 152.00 134.84 C 151.15 134.89 150.50 135.62 150.54 136.47 C 150.59 137.32 151.31 137.98 152.17 137.93 Z M 153.11 137.88 L 154.14 137.90 C 154.99 137.91 155.69 137.23 155.71 136.37 C 155.72 135.52 155.04 134.81 154.18 134.80 L 153.16 134.78 C 152.31 134.77 151.60 135.45 151.59 136.31 C 151.58 137.16 152.26 137.87 153.11 137.88 Z M 153.98 137.89 L 154.99 138.01 C 155.84 138.10 156.61 137.49 156.71 136.64 C 156.81 135.79 156.20 135.02 155.35 134.92 L 154.34 134.81 C 153.49 134.71 152.72 135.32 152.62 136.17 C 152.52 137.02 153.13 137.79 153.98 137.89 Z M 154.70 137.95 L 155.73 138.27 C 156.54 138.53 157.42 138.07 157.67 137.25 C 157.93 136.43 157.48 135.56 156.66 135.30 L 155.64 134.98 C 154.82 134.73 153.95 135.18 153.69 136.00 C 153.43 136.82 153.89 137.69 154.70 137.95 Z M 155.33 138.08 L 156.14 138.62 C 156.85 139.10 157.82 138.91 158.30 138.20 C 158.77 137.48 158.58 136.52 157.87 136.04 L 157.06 135.49 C 156.34 135.02 155.38 135.21 154.90 135.92 C 154.42 136.63 154.61 137.60 155.33 138.08 Z M 155.74 138.24 L 156.29 139.00 C 156.79 139.70 157.76 139.86 158.46 139.36 C 159.16 138.86 159.32 137.89 158.82 137.19 L 158.27 136.42 C 157.77 135.72 156.79 135.56 156.10 136.07 C 155.40 136.57 155.24 137.54 155.74 138.24 Z M 156.04 138.47 L 156.28 139.44 C 156.49 140.27 157.34 140.78 158.17 140.57 C 159.01 140.36 159.51 139.52 159.30 138.68 L 159.06 137.72 C 158.86 136.88 158.01 136.38 157.18 136.58 C 156.34 136.79 155.83 137.64 156.04 138.47 Z M 156.24 138.99 L 156.20 139.95 C 156.16 140.81 156.82 141.54 157.68 141.58 C 158.54 141.62 159.26 140.95 159.30 140.10 L 159.35 139.13 C 159.39 138.27 158.72 137.55 157.86 137.51 C 157.01 137.47 156.28 138.13 156.24 138.99 Z M 156.27 139.58 L 155.99 140.54 C 155.74 141.35 156.21 142.21 157.02 142.46 C 157.84 142.70 158.70 142.24 158.95 141.42 L 159.23 140.47 C 159.47 139.65 159.01 138.79 158.19 138.55 C 157.37 138.30 156.51 138.77 156.27 139.58 Z M 156.09 140.29 L 155.66 141.14 C 155.28 141.90 155.59 142.83 156.35 143.21 C 157.11 143.59 158.03 143.28 158.41 142.52 L 158.84 141.67 C 159.22 140.91 158.91 139.98 158.15 139.60 C 157.39 139.22 156.47 139.53 156.09 140.29 Z M 155.73 141.02 L 155.19 141.88 C 154.75 142.61 154.97 143.56 155.69 144.01 C 156.42 144.45 157.37 144.23 157.82 143.51 L 158.35 142.64 C 158.80 141.92 158.57 140.97 157.85 140.52 C 157.12 140.07 156.17 140.30 155.73 141.02 Z M 155.23 141.82 L 154.65 142.67 C 154.17 143.38 154.35 144.34 155.06 144.82 C 155.76 145.30 156.72 145.12 157.21 144.41 L 157.78 143.56 C 158.26 142.86 158.08 141.90 157.37 141.42 C 156.67 140.94 155.71 141.12 155.23 141.82 Z M 154.67 142.64 L 154.10 143.43 C 153.60 144.13 153.76 145.09 154.45 145.59 C 155.14 146.09 156.11 145.93 156.61 145.24 L 157.18 144.45 C 157.68 143.75 157.52 142.79 156.83 142.29 C 156.14 141.79 155.17 141.95 154.67 142.64 Z M 154.13 143.40 L 153.51 144.22 C 152.99 144.89 153.12 145.86 153.79 146.38 C 154.47 146.89 155.44 146.77 155.95 146.09 L 156.58 145.27 C 157.10 144.60 156.97 143.63 156.29 143.11 C 155.62 142.60 154.65 142.72 154.13 143.40 Z M 153.54 144.18 L 152.90 144.97 C 152.36 145.63 152.46 146.59 153.11 147.13 C 153.77 147.67 154.74 147.57 155.27 146.91 L 155.92 146.13 C 156.46 145.47 156.36 144.50 155.70 143.96 C 155.05 143.43 154.08 143.52 153.54 144.18 Z M 152.94 144.94 L 152.27 145.70 C 151.72 146.34 151.78 147.30 152.42 147.85 C 153.05 148.41 154.02 148.34 154.57 147.71 L 155.23 146.94 C 155.79 146.31 155.72 145.35 155.09 144.79 C 154.45 144.24 153.49 144.31 152.94 144.94 Z M 152.31 145.68 L 151.63 146.41 C 151.07 147.02 151.11 147.98 151.72 148.55 C 152.33 149.11 153.29 149.07 153.86 148.46 L 154.53 147.73 C 155.10 147.12 155.06 146.16 154.45 145.59 C 153.83 145.03 152.88 145.07 152.31 145.68 Z M 151.67 146.39 L 150.95 147.12 C 150.37 147.71 150.38 148.66 150.97 149.24 C 151.56 149.82 152.51 149.81 153.09 149.22 L 153.81 148.49 C 154.39 147.90 154.39 146.95 153.80 146.37 C 153.20 145.79 152.25 145.79 151.67 146.39 Z M 150.99 147.10 L 150.27 147.79 C 149.68 148.36 149.66 149.30 150.23 149.89 C 150.79 150.49 151.74 150.51 152.33 149.94 L 153.05 149.24 C 153.65 148.67 153.67 147.73 153.10 147.14 C 152.53 146.55 151.59 146.53 150.99 147.10 Z M 150.30 147.77 L 149.59 148.42 C 148.99 148.97 148.95 149.90 149.50 150.51 C 150.05 151.11 150.98 151.15 151.59 150.60 L 152.30 149.95 C 152.90 149.40 152.94 148.47 152.39 147.87 C 151.84 147.26 150.91 147.22 150.30 147.77 Z M 149.62 148.41 L 148.88 149.06 C 148.27 149.60 148.21 150.53 148.74 151.13 C 149.28 151.74 150.21 151.80 150.81 151.27 L 151.56 150.61 C 152.17 150.08 152.23 149.15 151.69 148.54 C 151.16 147.93 150.23 147.87 149.62 148.41 Z M 148.91 149.05 L 148.14 149.70 C 147.53 150.22 147.45 151.14 147.97 151.75 C 148.49 152.36 149.41 152.44 150.02 151.92 L 150.79 151.28 C 151.40 150.76 151.48 149.84 150.96 149.23 C 150.44 148.61 149.52 148.53 148.91 149.05 Z M 148.17 149.69 L 147.40 150.32 C 146.78 150.82 146.69 151.73 147.20 152.35 C 147.70 152.97 148.62 153.06 149.23 152.56 L 150.00 151.93 C 150.62 151.42 150.71 150.51 150.20 149.89 C 149.70 149.28 148.79 149.18 148.17 149.69 Z M 147.42 150.31 L 146.64 150.94 C 146.02 151.43 145.92 152.34 146.42 152.96 C 146.91 153.58 147.82 153.68 148.44 153.18 L 149.22 152.56 C 149.84 152.06 149.94 151.16 149.44 150.54 C 148.95 149.92 148.04 149.82 147.42 150.31 Z M 146.65 150.94 L 145.85 151.57 C 145.23 152.06 145.13 152.96 145.62 153.58 C 146.11 154.20 147.01 154.31 147.63 153.82 L 148.43 153.18 C 149.05 152.69 149.15 151.79 148.66 151.17 C 148.17 150.55 147.27 150.45 146.65 150.94 Z M 145.85 151.57 L 145.79 151.63 C 145.17 152.11 145.06 153.01 145.55 153.63 C 146.04 154.25 146.94 154.36 147.56 153.87 L 147.62 153.81 C 148.24 153.32 148.35 152.43 147.86 151.81 C 147.37 151.19 146.47 151.08 145.85 151.57 Z"
      fill="black"
      fill-rule="nonzero" /><path d="M 144.34 150.69 L 144.74 151.62 C 145.06 152.40 145.95 152.76 146.73 152.44 C 147.50 152.11 147.87 151.22 147.54 150.45 L 147.15 149.51 C 146.82 148.74 145.93 148.37 145.16 148.70 C 144.38 149.02 144.02 149.91 144.34 150.69 Z M 144.70 151.60 L 145.06 152.51 C 145.37 153.31 146.27 153.70 147.06 153.39 C 147.86 153.08 148.25 152.18 147.94 151.39 L 147.58 150.47 C 147.27 149.68 146.37 149.28 145.58 149.60 C 144.78 149.91 144.39 150.80 144.70 151.60 Z M 145.03 152.44 L 145.32 153.29 C 145.59 154.10 146.47 154.53 147.28 154.26 C 148.09 153.99 148.52 153.11 148.25 152.30 L 147.96 151.46 C 147.69 150.65 146.81 150.21 146.00 150.48 C 145.19 150.76 144.76 151.63 145.03 152.44 Z M 145.31 153.21 L 145.60 154.24 C 145.83 155.05 146.67 155.53 147.48 155.30 C 148.30 155.07 148.77 154.23 148.54 153.42 L 148.25 152.38 C 148.02 151.57 147.18 151.10 146.37 151.33 C 145.56 151.55 145.08 152.40 145.31 153.21 Z M 145.61 154.20 L 145.85 155.16 C 146.05 155.97 146.87 156.46 147.68 156.26 C 148.49 156.06 148.98 155.24 148.78 154.43 L 148.54 153.46 C 148.33 152.65 147.51 152.16 146.70 152.36 C 145.89 152.57 145.40 153.39 145.61 154.20 Z M 145.86 155.15 L 146.11 156.16 C 146.31 156.97 147.12 157.46 147.92 157.26 C 148.72 157.06 149.22 156.25 149.02 155.45 L 148.77 154.44 C 148.57 153.63 147.76 153.14 146.96 153.34 C 146.15 153.54 145.66 154.35 145.86 155.15 Z M 146.12 156.17 L 146.37 157.16 C 146.57 157.95 147.38 158.44 148.18 158.23 C 148.97 158.03 149.46 157.22 149.26 156.43 L 149.01 155.44 C 148.80 154.64 148.00 154.16 147.20 154.36 C 146.40 154.56 145.92 155.37 146.12 156.17 Z M 146.39 157.19 L 146.69 158.24 C 146.90 159.02 147.72 159.48 148.50 159.26 C 149.28 159.04 149.74 158.23 149.52 157.44 L 149.23 156.40 C 149.01 155.61 148.20 155.15 147.42 155.37 C 146.63 155.59 146.18 156.40 146.39 157.19 Z M 146.72 158.28 L 147.01 159.20 C 147.26 159.97 148.07 160.39 148.84 160.15 C 149.60 159.90 150.02 159.09 149.78 158.32 L 149.49 157.40 C 149.25 156.64 148.43 156.21 147.67 156.46 C 146.90 156.70 146.48 157.52 146.72 158.28 Z M 147.04 159.22 L 147.22 159.74 C 147.47 160.49 148.28 160.89 149.03 160.64 C 149.78 160.39 150.19 159.57 149.93 158.82 L 149.76 158.30 C 149.50 157.55 148.69 157.15 147.94 157.41 C 147.19 157.66 146.79 158.47 147.04 159.22 Z"
      fill="black"
      fill-rule="nonzero" /><path d="M 151.94 152.21 L 151.98 153.20 C 152.02 154.03 152.72 154.68 153.56 154.64 C 154.39 154.61 155.04 153.91 155.00 153.07 L 154.96 152.09 C 154.93 151.26 154.22 150.61 153.39 150.64 C 152.56 150.68 151.91 151.38 151.94 152.21 Z M 151.95 153.05 L 151.89 154.04 C 151.84 154.90 152.50 155.63 153.35 155.68 C 154.20 155.73 154.93 155.07 154.98 154.22 L 155.04 153.22 C 155.09 152.37 154.44 151.64 153.58 151.59 C 152.73 151.54 152.00 152.19 151.95 153.05 Z M 151.91 153.77 L 151.67 154.77 C 151.47 155.61 151.99 156.46 152.84 156.66 C 153.68 156.86 154.52 156.34 154.72 155.49 L 154.96 154.50 C 155.16 153.65 154.64 152.81 153.80 152.61 C 152.96 152.41 152.11 152.93 151.91 153.77 Z M 151.75 154.55 L 151.37 155.51 C 151.05 156.31 151.43 157.22 152.23 157.54 C 153.03 157.86 153.94 157.47 154.26 156.67 L 154.65 155.71 C 154.97 154.91 154.58 154.00 153.78 153.68 C 152.98 153.36 152.07 153.75 151.75 154.55 Z M 151.44 155.40 L 151.01 156.26 C 150.63 157.02 150.93 157.95 151.70 158.33 C 152.46 158.71 153.38 158.40 153.76 157.64 L 154.19 156.78 C 154.57 156.02 154.26 155.09 153.50 154.71 C 152.74 154.33 151.82 154.64 151.44 155.40 Z M 151.05 156.20 L 150.53 157.12 C 150.12 157.86 150.38 158.79 151.12 159.20 C 151.85 159.62 152.79 159.36 153.20 158.62 L 153.72 157.70 C 154.13 156.97 153.87 156.03 153.14 155.62 C 152.40 155.20 151.47 155.46 151.05 156.20 Z M 150.57 157.06 L 150.08 157.85 C 149.63 158.56 149.85 159.50 150.57 159.95 C 151.28 160.40 152.22 160.18 152.67 159.46 L 153.16 158.68 C 153.61 157.96 153.39 157.02 152.68 156.58 C 151.96 156.13 151.02 156.35 150.57 157.06 Z M 150.10 157.82 L 149.56 158.66 C 149.10 159.36 149.30 160.30 150.00 160.76 C 150.70 161.22 151.64 161.02 152.10 160.32 L 152.65 159.49 C 153.11 158.78 152.91 157.84 152.21 157.38 C 151.51 156.92 150.56 157.12 150.10 157.82 Z M 149.57 158.65 L 149.02 159.48 C 148.55 160.17 148.74 161.11 149.43 161.58 C 150.13 162.04 151.06 161.86 151.53 161.16 L 152.09 160.33 C 152.55 159.64 152.37 158.70 151.67 158.23 C 150.98 157.77 150.04 157.95 149.57 158.65 Z M 149.04 159.46 L 148.46 160.29 C 147.99 160.97 148.15 161.91 148.84 162.38 C 149.52 162.86 150.46 162.69 150.93 162.01 L 151.51 161.18 C 151.98 160.50 151.82 159.56 151.13 159.08 C 150.45 158.61 149.51 158.78 149.04 159.46 Z M 148.49 160.25 L 147.90 161.05 C 147.40 161.72 147.54 162.66 148.21 163.15 C 148.88 163.65 149.82 163.51 150.32 162.84 L 150.91 162.04 C 151.40 161.37 151.26 160.43 150.59 159.94 C 149.93 159.44 148.98 159.58 148.49 160.25 Z M 147.92 161.02 L 147.30 161.82 C 146.79 162.48 146.91 163.43 147.57 163.94 C 148.23 164.44 149.17 164.32 149.68 163.66 L 150.30 162.86 C 150.81 162.21 150.68 161.26 150.03 160.75 C 149.37 160.24 148.42 160.37 147.92 161.02 Z M 147.31 161.82 L 146.68 162.61 C 146.17 163.26 146.28 164.21 146.94 164.72 C 147.59 165.23 148.54 165.12 149.05 164.47 L 149.67 163.67 C 150.19 163.02 150.07 162.07 149.42 161.56 C 148.77 161.05 147.82 161.16 147.31 161.82 Z M 146.70 162.60 L 146.07 163.37 C 145.55 164.02 145.65 164.96 146.30 165.48 C 146.95 166.01 147.89 165.90 148.41 165.26 L 149.04 164.48 C 149.56 163.83 149.46 162.89 148.81 162.37 C 148.16 161.85 147.22 161.95 146.70 162.60 Z M 146.10 163.35 L 145.45 164.12 C 144.91 164.75 144.99 165.70 145.63 166.23 C 146.26 166.76 147.20 166.68 147.74 166.05 L 148.39 165.28 C 148.92 164.65 148.84 163.70 148.21 163.17 C 147.58 162.63 146.63 162.71 146.10 163.35 Z M 145.49 164.08 L 144.82 164.81 C 144.26 165.42 144.30 166.37 144.91 166.92 C 145.52 167.48 146.47 167.44 147.03 166.83 L 147.70 166.09 C 148.25 165.48 148.21 164.54 147.60 163.98 C 146.99 163.42 146.04 163.47 145.49 164.08 Z M 144.87 164.76 L 144.16 165.46 C 143.58 166.05 143.57 166.99 144.15 167.58 C 144.74 168.16 145.68 168.16 146.27 167.58 L 146.98 166.88 C 147.56 166.30 147.56 165.35 146.98 164.77 C 146.40 164.18 145.45 164.18 144.87 164.76 Z M 144.22 165.41 L 143.52 166.03 C 142.90 166.58 142.85 167.53 143.40 168.14 C 143.95 168.76 144.90 168.81 145.51 168.26 L 146.21 167.64 C 146.83 167.09 146.88 166.14 146.33 165.53 C 145.78 164.91 144.83 164.86 144.22 165.41 Z M 143.58 165.98 L 142.76 166.64 C 142.11 167.15 142.01 168.09 142.53 168.74 C 143.04 169.38 143.98 169.49 144.63 168.97 L 145.45 168.32 C 146.10 167.80 146.20 166.86 145.68 166.21 C 145.17 165.57 144.23 165.46 143.58 165.98 Z M 142.80 166.60 L 142.05 167.16 C 141.38 167.65 141.24 168.59 141.74 169.26 C 142.23 169.92 143.17 170.06 143.84 169.57 L 144.59 169.01 C 145.26 168.51 145.39 167.57 144.90 166.91 C 144.41 166.24 143.47 166.10 142.80 166.60 Z M 142.09 167.12 L 141.24 167.70 C 140.55 168.17 140.37 169.11 140.84 169.80 C 141.31 170.48 142.25 170.66 142.94 170.19 L 143.79 169.61 C 144.48 169.14 144.66 168.20 144.19 167.51 C 143.72 166.83 142.78 166.65 142.09 167.12 Z M 141.31 167.64 L 140.26 168.27 C 139.54 168.70 139.31 169.63 139.73 170.35 C 140.16 171.07 141.09 171.30 141.81 170.87 L 142.86 170.25 C 143.58 169.82 143.82 168.89 143.39 168.17 C 142.96 167.45 142.03 167.22 141.31 167.64 Z M 140.29 168.24 L 139.40 168.74 C 138.66 169.14 138.39 170.07 138.80 170.81 C 139.21 171.55 140.14 171.82 140.88 171.41 L 141.78 170.91 C 142.51 170.50 142.78 169.57 142.37 168.83 C 141.96 168.09 141.03 167.83 140.29 168.24 Z M 139.47 171.47 L 139.63 171.55 C 140.40 171.92 141.33 171.59 141.69 170.81 C 142.06 170.04 141.73 169.11 140.96 168.74 L 140.80 168.67 C 140.03 168.30 139.10 168.63 138.73 169.41 C 138.37 170.18 138.70 171.11 139.47 171.47 Z M 140.60 171.70 L 141.85 171.46 C 142.71 171.29 143.27 170.45 143.10 169.59 C 142.93 168.73 142.10 168.17 141.24 168.34 L 139.99 168.59 C 139.13 168.76 138.57 169.59 138.74 170.45 C 138.90 171.31 139.74 171.87 140.60 171.70 Z M 141.75 171.50 L 142.77 171.37 C 143.65 171.26 144.28 170.45 144.17 169.57 C 144.06 168.69 143.25 168.06 142.37 168.17 L 141.34 168.30 C 140.46 168.41 139.83 169.22 139.94 170.10 C 140.06 170.98 140.86 171.61 141.75 171.50 Z M 142.70 171.39 L 143.69 171.31 C 144.58 171.24 145.25 170.45 145.17 169.56 C 145.10 168.66 144.32 168.00 143.42 168.07 L 142.43 168.15 C 141.54 168.22 140.87 169.01 140.95 169.90 C 141.02 170.80 141.80 171.46 142.70 171.39 Z M 143.65 171.32 L 144.69 171.26 C 145.59 171.20 146.28 170.43 146.23 169.53 C 146.17 168.63 145.40 167.94 144.50 168.00 L 143.46 168.06 C 142.56 168.11 141.87 168.89 141.93 169.79 C 141.98 170.69 142.75 171.37 143.65 171.32 Z M 144.67 171.26 L 145.61 171.22 C 146.51 171.17 147.21 170.41 147.17 169.50 C 147.12 168.60 146.36 167.90 145.45 167.95 L 144.52 167.99 C 143.61 168.04 142.92 168.80 142.96 169.71 C 143.00 170.61 143.77 171.31 144.67 171.26 Z M 145.61 171.22 L 146.60 171.18 C 147.50 171.13 148.20 170.37 148.16 169.46 C 148.12 168.56 147.35 167.86 146.45 167.90 L 145.46 167.94 C 144.55 167.99 143.85 168.75 143.89 169.66 C 143.94 170.56 144.70 171.26 145.61 171.22 Z M 146.61 171.18 L 147.62 171.12 C 148.52 171.07 149.21 170.29 149.16 169.39 C 149.11 168.48 148.34 167.79 147.43 167.84 L 146.43 167.90 C 145.52 167.95 144.83 168.72 144.88 169.63 C 144.93 170.53 145.71 171.23 146.61 171.18 Z M 147.64 171.12 L 148.64 171.05 C 149.54 170.99 150.22 170.20 150.16 169.30 C 150.10 168.39 149.31 167.71 148.41 167.78 L 147.41 167.84 C 146.51 167.91 145.82 168.69 145.89 169.59 C 145.95 170.50 146.73 171.18 147.64 171.12 Z M 148.64 171.05 L 149.63 170.97 C 150.53 170.91 151.21 170.12 151.14 169.22 C 151.08 168.32 150.29 167.64 149.39 167.70 L 148.40 167.78 C 147.50 167.84 146.82 168.63 146.89 169.53 C 146.95 170.44 147.74 171.11 148.64 171.05 Z M 149.64 170.97 L 150.64 170.89 C 151.54 170.82 152.22 170.03 152.14 169.13 C 152.07 168.23 151.28 167.55 150.38 167.63 L 149.38 167.71 C 148.48 167.78 147.80 168.57 147.88 169.47 C 147.95 170.37 148.74 171.04 149.64 170.97 Z M 150.66 170.89 L 151.66 170.80 C 152.56 170.71 153.22 169.92 153.14 169.02 C 153.06 168.12 152.26 167.45 151.36 167.54 L 150.36 167.63 C 149.46 167.71 148.80 168.51 148.88 169.41 C 148.97 170.31 149.76 170.97 150.66 170.89 Z M 151.68 170.79 L 152.68 170.69 C 153.58 170.60 154.23 169.80 154.14 168.90 C 154.05 168.00 153.24 167.34 152.34 167.44 L 151.35 167.54 C 150.45 167.63 149.79 168.43 149.89 169.33 C 149.98 170.23 150.78 170.89 151.68 170.79 Z M 152.69 170.69 L 153.70 170.58 C 154.60 170.48 155.25 169.67 155.15 168.77 C 155.05 167.87 154.24 167.23 153.34 167.33 L 152.33 167.44 C 151.43 167.54 150.78 168.35 150.88 169.24 C 150.98 170.14 151.79 170.79 152.69 170.69 Z M 153.71 170.58 L 154.68 170.47 C 155.58 170.36 156.23 169.55 156.12 168.65 C 156.02 167.75 155.21 167.11 154.31 167.21 L 153.33 167.32 C 152.43 167.43 151.79 168.24 151.89 169.14 C 151.99 170.04 152.81 170.68 153.71 170.58 Z M 154.68 170.46 L 155.68 170.35 C 156.57 170.24 157.22 169.43 157.11 168.54 C 157.01 167.64 156.20 167.00 155.30 167.10 L 154.31 167.22 C 153.41 167.32 152.77 168.13 152.87 169.03 C 152.98 169.92 153.79 170.57 154.68 170.46 Z M 155.68 170.33 L 156.68 170.22 C 157.56 170.12 158.20 169.31 158.10 168.42 C 157.99 167.54 157.19 166.90 156.30 167.00 L 155.30 167.12 C 154.42 167.22 153.78 168.02 153.88 168.91 C 153.98 169.80 154.79 170.44 155.68 170.33 Z M 156.68 170.20 L 157.67 170.08 C 158.55 169.98 159.17 169.19 159.07 168.31 C 158.97 167.43 158.17 166.80 157.30 166.90 L 156.30 167.02 C 155.43 167.12 154.80 167.92 154.90 168.80 C 155.00 169.67 155.80 170.30 156.68 170.20 Z M 157.67 170.06 L 158.67 169.94 C 159.54 169.84 160.15 169.05 160.05 168.18 C 159.94 167.32 159.15 166.70 158.29 166.80 L 157.29 166.93 C 156.42 167.03 155.81 167.82 155.91 168.68 C 156.02 169.55 156.81 170.17 157.67 170.06 Z M 158.67 169.92 L 159.65 169.80 C 160.51 169.69 161.12 168.91 161.01 168.06 C 160.91 167.20 160.12 166.59 159.27 166.70 L 158.28 166.82 C 157.43 166.93 156.82 167.71 156.93 168.57 C 157.03 169.42 157.82 170.03 158.67 169.92 Z M 159.67 169.79 L 160.65 169.66 C 161.50 169.54 162.10 168.76 161.99 167.91 C 161.87 167.06 161.09 166.46 160.24 166.58 L 159.25 166.71 C 158.40 166.82 157.81 167.61 157.92 168.46 C 158.03 169.31 158.82 169.90 159.67 169.79 Z M 160.70 169.64 L 161.63 169.48 C 162.47 169.34 163.04 168.55 162.89 167.71 C 162.75 166.87 161.96 166.30 161.12 166.44 L 160.19 166.60 C 159.35 166.74 158.78 167.53 158.92 168.37 C 159.07 169.21 159.86 169.78 160.70 169.64 Z M 161.68 169.46 L 162.66 169.26 C 163.49 169.09 164.02 168.28 163.85 167.45 C 163.68 166.62 162.87 166.09 162.04 166.26 L 161.06 166.46 C 160.24 166.64 159.70 167.45 159.87 168.27 C 160.05 169.10 160.86 169.63 161.68 169.46 Z M 162.68 169.24 L 163.66 169.02 C 164.47 168.83 164.98 168.02 164.80 167.20 C 164.61 166.39 163.80 165.88 162.99 166.06 L 162.01 166.28 C 161.20 166.47 160.69 167.28 160.87 168.10 C 161.06 168.91 161.87 169.42 162.68 169.24 Z M 163.67 169.00 L 164.63 168.78 C 165.44 168.59 165.94 167.78 165.75 166.97 C 165.56 166.16 164.75 165.66 163.94 165.85 L 162.98 166.08 C 162.17 166.26 161.67 167.07 161.86 167.88 C 162.05 168.69 162.86 169.19 163.67 169.00 Z M 164.63 168.77 L 165.66 168.52 C 166.47 168.33 166.96 167.53 166.77 166.72 C 166.58 165.92 165.78 165.42 164.97 165.61 L 163.94 165.86 C 163.14 166.05 162.64 166.86 162.83 167.66 C 163.02 168.46 163.83 168.96 164.63 168.77 Z M 165.66 168.51 L 165.92 168.45 C 166.72 168.26 167.21 167.46 167.02 166.66 C 166.83 165.86 166.03 165.37 165.23 165.56 L 164.98 165.62 C 164.18 165.81 163.68 166.61 163.87 167.41 C 164.06 168.21 164.86 168.70 165.66 168.51 Z"
      fill="black"
      fill-rule="nonzero" /></svg>