<svg xmlns="http://www.w3.org/2000/svg" width="300" height="300" viewBox="0 0 300 300">
<path d="M 148.47 127.17 L 147.51 127.41 C 146.69 127.61 146.19 128.44 146.39 129.26 C 146.59 130.08 147.42 130.58 148.24 130.38 L 149.20 130.14 C 150.02 129.94 150.52 129.11 150.32 128.29 C 150.12 127.47 149.29 126.97 148.47 127.17 Z M 147.40 127.45 L 146.46 127.76 C 145.67 128.02 145.23 128.88 145.49 129.67 C 145.75 130.46 146.61 130.90 147.40 130.64 L 148.34 130.33 C 149.14 130.07 149.57 129.21 149.31 128.42 C 149.05 127.63 148.20 127.19 147.40 127.45 Z M 146.33 127.83 L 145.44 128.22 C 144.68 128.55 144.33 129.43 144.66 130.19 C 145.00 130.95 145.88 131.30 146.64 130.97 L 147.53 130.57 C 148.29 130.24 148.64 129.36 148.30 128.60 C 147.97 127.84 147.09 127.49 146.33 127.83 Z M 145.40 128.24 L 144.47 128.68 C 143.73 129.03 143.41 129.92 143.76 130.67 C 144.12 131.42 145.01 131.73 145.75 131.38 L 146.68 130.94 C 147.42 130.59 147.74 129.70 147.39 128.95 C 147.03 128.20 146.14 127.89 145.40 128.24 Z M 144.49 128.67 L 143.59 129.09 C 142.85 129.43 142.52 130.32 142.86 131.07 C 143.21 131.81 144.09 132.14 144.84 131.80 L 145.74 131.38 C 146.49 131.04 146.81 130.15 146.47 129.41 C 146.12 128.66 145.24 128.33 144.49 128.67 Z M 143.61 129.08 L 142.67 129.50 C 141.92 129.83 141.58 130.71 141.91 131.47 C 142.25 132.22 143.13 132.56 143.88 132.22 L 144.82 131.80 C 145.58 131.47 145.92 130.59 145.58 129.83 C 145.25 129.08 144.36 128.74 143.61 129.08 Z M 142.69 129.49 L 141.81 129.86 C 141.05 130.19 140.70 131.07 141.02 131.82 C 141.35 132.58 142.23 132.93 142.98 132.61 L 143.86 132.23 C 144.62 131.91 144.97 131.03 144.65 130.27 C 144.32 129.51 143.45 129.16 142.69 129.49 Z M 141.84 129.85 L 140.91 130.23 C 140.14 130.54 139.77 131.41 140.08 132.17 C 140.39 132.94 141.27 133.31 142.03 133.00 L 142.96 132.62 C 143.72 132.31 144.09 131.44 143.78 130.68 C 143.47 129.91 142.60 129.54 141.84 129.85 Z M 140.94 130.21 L 139.97 130.58 C 139.20 130.87 138.81 131.74 139.10 132.51 C 139.40 133.28 140.26 133.67 141.03 133.38 L 142.00 133.01 C 142.77 132.72 143.16 131.86 142.87 131.08 C 142.57 130.31 141.71 129.92 140.94 130.21 Z M 140.00 130.57 L 139.04 130.91 C 138.26 131.19 137.86 132.05 138.14 132.83 C 138.42 133.61 139.27 134.01 140.05 133.73 L 141.01 133.39 C 141.79 133.11 142.19 132.25 141.91 131.47 C 141.63 130.69 140.77 130.29 140.00 130.57 Z M 139.05 130.91 L 138.10 131.24 C 137.31 131.52 136.90 132.37 137.18 133.15 C 137.45 133.93 138.31 134.35 139.09 134.07 L 140.04 133.74 C 140.83 133.46 141.24 132.61 140.96 131.82 C 140.69 131.04 139.83 130.63 139.05 130.91 Z M 138.09 131.24 L 136.98 131.63 C 136.20 131.91 135.79 132.77 136.07 133.55 C 136.35 134.34 137.21 134.74 137.99 134.47 L 139.10 134.07 C 139.88 133.79 140.29 132.93 140.01 132.15 C 139.73 131.37 138.87 130.96 138.09 131.24 Z M 136.83 131.70 L 135.94 132.13 C 135.19 132.49 134.88 133.40 135.25 134.14 C 135.62 134.89 136.52 135.20 137.27 134.84 L 138.15 134.40 C 138.90 134.04 139.21 133.13 138.84 132.39 C 138.48 131.64 137.57 131.33 136.83 131.70 Z M 135.20 134.05 L 135.37 134.48 C 135.69 135.25 136.57 135.63 137.34 135.31 C 138.12 135.00 138.49 134.12 138.18 133.34 L 138.01 132.91 C 137.69 132.14 136.81 131.76 136.04 132.08 C 135.26 132.39 134.89 133.27 135.20 134.05 Z M 136.19 135.32 L 137.28 135.77 C 138.06 136.09 138.95 135.72 139.27 134.94 C 139.60 134.17 139.23 133.27 138.45 132.95 L 137.36 132.50 C 136.58 132.18 135.69 132.54 135.37 133.32 C 135.04 134.10 135.41 134.99 136.19 135.32 Z M 137.21 135.75 L 138.14 136.18 C 138.90 136.55 139.82 136.22 140.18 135.45 C 140.54 134.68 140.21 133.77 139.44 133.41 L 138.52 132.97 C 137.75 132.61 136.84 132.94 136.47 133.70 C 136.11 134.47 136.44 135.39 137.21 135.75 Z M 137.98 136.11 L 138.81 136.62 C 139.54 137.07 140.48 136.84 140.93 136.12 C 141.38 135.39 141.15 134.44 140.43 134.00 L 139.60 133.48 C 138.87 133.04 137.92 133.26 137.48 133.99 C 137.03 134.71 137.26 135.66 137.98 136.11 Z M 138.68 136.53 L 139.47 137.14 C 140.14 137.66 141.11 137.54 141.63 136.86 C 142.16 136.19 142.03 135.22 141.36 134.70 L 140.56 134.08 C 139.89 133.56 138.92 133.69 138.40 134.36 C 137.87 135.04 138.00 136.01 138.68 136.53 Z M 139.33 137.03 L 140.05 137.72 C 140.66 138.32 141.64 138.30 142.24 137.69 C 142.83 137.07 142.82 136.09 142.20 135.50 L 141.49 134.81 C 140.87 134.21 139.89 134.23 139.30 134.84 C 138.70 135.45 138.72 136.44 139.33 137.03 Z M 139.92 137.59 L 140.55 138.36 C 141.09 139.03 142.07 139.13 142.74 138.58 C 143.40 138.04 143.50 137.06 142.96 136.40 L 142.33 135.63 C 141.79 134.96 140.81 134.87 140.14 135.41 C 139.48 135.95 139.38 136.93 139.92 137.59 Z M 140.46 138.24 L 141.01 139.08 C 141.49 139.79 142.45 139.99 143.17 139.51 C 143.89 139.03 144.08 138.07 143.60 137.35 L 143.05 136.52 C 142.57 135.80 141.61 135.61 140.89 136.08 C 140.17 136.56 139.98 137.53 140.46 138.24 Z M 140.94 138.96 L 141.42 139.84 C 141.83 140.60 142.78 140.87 143.54 140.46 C 144.29 140.05 144.57 139.10 144.16 138.34 L 143.68 137.46 C 143.27 136.71 142.32 136.43 141.56 136.84 C 140.80 137.26 140.52 138.20 140.94 138.96 Z M 141.34 139.69 L 141.72 140.61 C 142.06 141.41 142.97 141.79 143.77 141.46 C 144.57 141.13 144.95 140.21 144.62 139.41 L 144.23 138.49 C 143.90 137.69 142.99 137.31 142.19 137.65 C 141.39 137.98 141.01 138.89 141.34 139.69 Z M 141.66 140.45 L 141.94 141.40 C 142.17 142.23 143.04 142.71 143.87 142.47 C 144.71 142.23 145.19 141.37 144.95 140.53 L 144.68 139.58 C 144.44 138.75 143.57 138.27 142.74 138.51 C 141.91 138.74 141.42 139.61 141.66 140.45 Z M 141.90 141.25 L 142.08 142.24 C 142.24 143.09 143.06 143.65 143.91 143.49 C 144.76 143.33 145.33 142.52 145.17 141.66 L 144.99 140.68 C 144.83 139.83 144.01 139.26 143.16 139.42 C 142.30 139.58 141.74 140.40 141.90 141.25 Z M 142.06 142.13 L 142.18 143.10 C 142.27 143.97 143.05 144.58 143.92 144.49 C 144.78 144.39 145.40 143.61 145.30 142.75 L 145.19 141.77 C 145.09 140.91 144.31 140.29 143.45 140.39 C 142.58 140.49 141.96 141.27 142.06 142.13 Z M 142.17 143.03 L 142.24 144.07 C 142.30 144.93 143.05 145.59 143.92 145.53 C 144.78 145.47 145.44 144.72 145.38 143.85 L 145.31 142.82 C 145.25 141.95 144.50 141.29 143.63 141.35 C 142.76 141.41 142.11 142.17 142.17 143.03 Z M 142.23 144.02 L 142.27 144.96 C 142.31 145.83 143.05 146.51 143.91 146.47 C 144.78 146.43 145.46 145.70 145.42 144.83 L 145.38 143.89 C 145.35 143.02 144.61 142.35 143.74 142.38 C 142.87 142.42 142.20 143.16 142.23 144.02 Z M 142.27 144.93 L 142.30 145.94 C 142.32 146.81 143.04 147.50 143.91 147.47 C 144.78 147.45 145.47 146.73 145.45 145.86 L 145.42 144.86 C 145.40 143.99 144.68 143.30 143.81 143.32 C 142.94 143.34 142.25 144.06 142.27 144.93 Z M 142.30 145.92 L 142.31 146.98 C 142.32 147.85 143.04 148.55 143.91 148.54 C 144.78 148.52 145.47 147.81 145.46 146.94 L 145.45 145.88 C 145.44 145.01 144.72 144.31 143.85 144.32 C 142.98 144.33 142.29 145.05 142.30 145.92 Z M 142.31 146.96 L 142.31 147.99 C 142.31 148.86 143.02 149.57 143.89 149.57 C 144.76 149.57 145.46 148.86 145.46 147.99 L 145.46 146.96 C 145.46 146.09 144.76 145.38 143.89 145.38 C 143.02 145.38 142.31 146.09 142.31 146.96 Z M 142.31 147.96 L 142.29 148.97 C 142.27 149.84 142.95 150.56 143.82 150.58 C 144.70 150.60 145.42 149.92 145.44 149.05 L 145.46 148.03 C 145.48 147.16 144.79 146.44 143.92 146.42 C 143.05 146.40 142.33 147.08 142.31 147.96 Z M 142.29 148.90 L 142.22 149.88 C 142.16 150.75 142.81 151.50 143.68 151.56 C 144.55 151.62 145.30 150.97 145.37 150.10 L 145.44 149.12 C 145.50 148.25 144.84 147.50 143.97 147.43 C 143.10 147.37 142.35 148.03 142.29 148.90 Z M 142.23 149.75 L 142.08 150.76 C 141.95 151.62 142.54 152.43 143.40 152.56 C 144.26 152.69 145.07 152.10 145.20 151.24 L 145.35 150.23 C 145.48 149.37 144.89 148.56 144.03 148.43 C 143.17 148.30 142.37 148.89 142.23 149.75 Z M 142.10 150.66 L 141.90 151.58 C 141.71 152.43 142.25 153.27 143.10 153.46 C 143.95 153.65 144.79 153.11 144.97 152.26 L 145.18 151.34 C 145.37 150.49 144.83 149.65 143.98 149.46 C 143.13 149.27 142.29 149.81 142.10 150.66 Z M 141.90 151.56 L 141.67 152.56 C 141.47 153.40 142.00 154.25 142.84 154.45 C 143.69 154.65 144.54 154.12 144.73 153.28 L 144.97 152.28 C 145.17 151.43 144.64 150.59 143.80 150.39 C 142.95 150.19 142.10 150.72 141.90 151.56 Z M 141.68 152.54 L 141.44 153.50 C 141.23 154.35 141.75 155.20 142.59 155.40 C 143.43 155.61 144.28 155.10 144.49 154.26 L 144.73 153.29 C 144.93 152.45 144.42 151.60 143.58 151.39 C 142.74 151.19 141.89 151.70 141.68 152.54 Z M 141.47 153.42 L 141.14 154.50 C 140.88 155.33 141.34 156.20 142.17 156.46 C 142.99 156.71 143.86 156.25 144.12 155.43 L 144.45 154.34 C 144.71 153.52 144.25 152.65 143.43 152.39 C 142.60 152.13 141.73 152.59 141.47 153.42 Z M 144.14 154.74 L 144.08 154.35 C 143.96 153.51 143.18 152.93 142.34 153.06 C 141.50 153.19 140.93 153.97 141.05 154.80 L 141.11 155.19 C 141.24 156.03 142.02 156.61 142.86 156.48 C 143.69 156.35 144.27 155.57 144.14 154.74 Z M 144.05 154.70 L 144.14 153.58 C 144.21 152.77 143.61 152.05 142.79 151.98 C 141.98 151.91 141.26 152.51 141.19 153.33 L 141.09 154.45 C 141.02 155.26 141.62 155.98 142.44 156.05 C 143.26 156.12 143.97 155.52 144.05 154.70 Z M 144.10 153.60 L 144.15 153.09 C 144.24 152.30 143.66 151.59 142.86 151.51 C 142.07 151.43 141.36 152.01 141.28 152.80 L 141.23 153.31 C 141.15 154.10 141.73 154.81 142.52 154.89 C 143.31 154.97 144.02 154.39 144.10 153.60 Z"
      fill="black"
      fill-rule="nonzero" /><path d="M 143.88 146.35 L 144.87 146.05 C 145.67 145.81 146.12 144.96 145.88 144.16 C 145.64 143.36 144.79 142.90 143.99 143.15 L 143.00 143.44 C 142.20 143.69 141.75 144.53 141.99 145.34 C 142.23 146.14 143.08 146.59 143.88 146.35 Z M 144.86 146.07 L 145.81 145.80 C 146.63 145.56 147.10 144.70 146.86 143.89 C 146.62 143.07 145.77 142.61 144.95 142.84 L 144.00 143.12 C 143.18 143.36 142.72 144.21 142.95 145.03 C 143.19 145.84 144.04 146.31 144.86 146.07 Z M 145.78 145.81 L 146.75 145.55 C 147.57 145.33 148.06 144.48 147.84 143.66 C 147.62 142.84 146.77 142.35 145.95 142.57 L 144.98 142.83 C 144.16 143.05 143.67 143.90 143.89 144.72 C 144.11 145.54 144.96 146.03 145.78 145.81 Z M 146.72 145.53 L 147.68 145.29 C 148.49 145.09 148.99 144.27 148.78 143.46 C 148.58 142.64 147.76 142.15 146.95 142.35 L 145.98 142.59 C 145.17 142.79 144.68 143.61 144.88 144.43 C 145.08 145.24 145.90 145.74 146.72 145.53 Z M 147.68 145.26 L 148.63 145.02 C 149.42 144.81 149.90 144.00 149.69 143.21 C 149.49 142.41 148.68 141.94 147.89 142.14 L 146.94 142.39 C 146.15 142.59 145.67 143.40 145.87 144.19 C 146.08 144.99 146.89 145.46 147.68 145.26 Z M 148.64 144.99 L 149.61 144.72 C 150.38 144.51 150.84 143.71 150.63 142.93 C 150.41 142.15 149.61 141.69 148.83 141.91 L 147.87 142.17 C 147.09 142.38 146.63 143.19 146.85 143.97 C 147.06 144.74 147.87 145.20 148.64 144.99 Z M 149.60 144.71 L 150.57 144.45 C 151.34 144.24 151.80 143.44 151.59 142.67 C 151.38 141.90 150.58 141.45 149.81 141.65 L 148.84 141.92 C 148.07 142.13 147.61 142.92 147.82 143.69 C 148.03 144.46 148.83 144.92 149.60 144.71 Z M 150.55 144.44 L 151.51 144.19 C 152.28 144.00 152.75 143.21 152.55 142.45 C 152.35 141.68 151.57 141.21 150.80 141.41 L 149.83 141.66 C 149.07 141.86 148.60 142.64 148.80 143.41 C 149.00 144.18 149.78 144.64 150.55 144.44 Z M 151.50 144.19 L 152.42 143.96 C 153.19 143.77 153.65 142.99 153.46 142.23 C 153.27 141.46 152.50 141.00 151.73 141.19 L 150.81 141.42 C 150.05 141.61 149.58 142.38 149.77 143.15 C 149.96 143.91 150.74 144.38 151.50 144.19 Z"
      fill="black"
      fill-rule="nonzero" /><path d="M 158.73 136.27 L 159.63 135.83 C 160.38 135.46 160.69 134.56 160.32 133.82 C 159.96 133.07 159.06 132.77 158.32 133.13 L 157.41 133.57 C 156.67 133.94 156.36 134.84 156.72 135.58 C 157.09 136.33 157.98 136.63 158.73 136.27 Z M 159.57 135.88 L 160.49 135.49 C 161.26 135.16 161.62 134.27 161.29 133.49 C 160.96 132.72 160.07 132.36 159.29 132.69 L 158.38 133.08 C 157.60 133.41 157.24 134.30 157.57 135.08 C 157.90 135.85 158.80 136.21 159.57 135.88 Z M 160.34 135.56 L 161.28 135.27 C 162.09 135.02 162.55 134.16 162.30 133.35 C 162.04 132.54 161.18 132.08 160.37 132.33 L 159.44 132.62 C 158.62 132.87 158.17 133.73 158.42 134.54 C 158.67 135.35 159.53 135.81 160.34 135.56 Z M 161.10 135.31 L 162.10 135.13 C 162.93 134.98 163.49 134.18 163.34 133.35 C 163.19 132.51 162.39 131.96 161.55 132.11 L 160.56 132.29 C 159.72 132.44 159.16 133.24 159.32 134.07 C 159.47 134.91 160.27 135.46 161.10 135.31 Z M 161.92 135.16 L 162.94 135.10 C 163.78 135.05 164.43 134.32 164.38 133.47 C 164.33 132.62 163.60 131.97 162.75 132.02 L 161.73 132.08 C 160.88 132.13 160.24 132.86 160.29 133.71 C 160.34 134.56 161.07 135.21 161.92 135.16 Z M 162.73 135.09 L 163.72 135.17 C 164.56 135.23 165.30 134.60 165.37 133.75 C 165.43 132.90 164.80 132.16 163.95 132.10 L 162.96 132.02 C 162.11 131.96 161.37 132.60 161.31 133.44 C 161.25 134.29 161.88 135.03 162.73 135.09 Z M 163.39 135.11 L 164.34 135.40 C 165.16 135.64 166.02 135.18 166.26 134.37 C 166.51 133.55 166.05 132.69 165.23 132.45 L 164.28 132.16 C 163.46 131.92 162.61 132.38 162.36 133.19 C 162.11 134.00 162.57 134.86 163.39 135.11 Z M 163.94 135.21 L 164.77 135.75 C 165.48 136.22 166.43 136.02 166.90 135.31 C 167.36 134.60 167.17 133.64 166.46 133.18 L 165.63 132.64 C 164.92 132.17 163.97 132.37 163.50 133.08 C 163.03 133.79 163.23 134.74 163.94 135.21 Z M 164.50 135.53 L 165.16 136.22 C 165.75 136.83 166.72 136.85 167.33 136.26 C 167.95 135.68 167.97 134.70 167.38 134.09 L 166.72 133.40 C 166.13 132.78 165.16 132.76 164.55 133.35 C 163.93 133.94 163.91 134.91 164.50 135.53 Z M 164.99 136.02 L 165.58 136.88 C 166.06 137.58 167.01 137.76 167.72 137.29 C 168.42 136.81 168.61 135.85 168.13 135.15 L 167.55 134.29 C 167.07 133.58 166.11 133.40 165.40 133.88 C 164.70 134.35 164.52 135.31 164.99 136.02 Z M 165.47 136.69 L 165.89 137.56 C 166.27 138.32 167.19 138.63 167.96 138.26 C 168.72 137.88 169.04 136.96 168.66 136.19 L 168.24 135.33 C 167.86 134.56 166.94 134.25 166.17 134.63 C 165.41 135.00 165.09 135.93 165.47 136.69 Z M 165.82 137.39 L 166.15 138.34 C 166.44 139.15 167.32 139.57 168.12 139.29 C 168.93 139.00 169.35 138.12 169.07 137.32 L 168.74 136.36 C 168.45 135.56 167.57 135.13 166.77 135.41 C 165.96 135.70 165.54 136.58 165.82 137.39 Z M 166.10 138.18 L 166.34 139.20 C 166.54 140.03 167.37 140.55 168.20 140.35 C 169.04 140.16 169.55 139.32 169.36 138.49 L 169.12 137.47 C 168.93 136.64 168.09 136.13 167.26 136.32 C 166.43 136.52 165.91 137.35 166.10 138.18 Z M 166.32 139.08 L 166.48 140.10 C 166.61 140.95 167.40 141.53 168.25 141.39 C 169.09 141.26 169.67 140.47 169.54 139.63 L 169.38 138.61 C 169.25 137.76 168.46 137.18 167.61 137.31 C 166.77 137.44 166.19 138.24 166.32 139.08 Z M 166.47 140.04 L 166.58 140.99 C 166.67 141.84 167.44 142.46 168.29 142.36 C 169.14 142.26 169.75 141.50 169.66 140.65 L 169.55 139.69 C 169.45 138.84 168.69 138.23 167.84 138.32 C 166.98 138.42 166.37 139.19 166.47 140.04 Z M 166.57 140.96 L 166.67 142.02 C 166.74 142.88 167.49 143.51 168.35 143.43 C 169.20 143.36 169.83 142.61 169.76 141.75 L 169.66 140.68 C 169.59 139.83 168.83 139.20 167.98 139.28 C 167.13 139.35 166.50 140.10 166.57 140.96 Z M 166.66 141.97 L 166.71 142.89 C 166.76 143.75 167.49 144.40 168.35 144.36 C 169.20 144.31 169.86 143.58 169.81 142.72 L 169.76 141.80 C 169.71 140.95 168.98 140.29 168.13 140.34 C 167.27 140.39 166.62 141.12 166.66 141.97 Z M 166.71 142.84 L 166.73 143.84 C 166.75 144.69 167.45 145.37 168.31 145.36 C 169.16 145.34 169.84 144.64 169.83 143.78 L 169.81 142.78 C 169.79 141.93 169.09 141.24 168.23 141.26 C 167.38 141.28 166.70 141.98 166.71 142.84 Z M 166.73 143.81 L 166.73 144.81 C 166.73 145.66 167.43 146.36 168.28 146.36 C 169.14 146.36 169.83 145.66 169.83 144.81 L 169.83 143.81 C 169.83 142.95 169.13 142.26 168.28 142.26 C 167.42 142.26 166.73 142.96 166.73 143.81 Z M 166.74 144.81 L 166.74 145.81 C 166.74 146.66 167.43 147.35 168.28 147.35 C 169.13 147.35 169.82 146.66 169.82 145.81 L 169.82 144.81 C 169.82 143.96 169.13 143.26 168.28 143.26 C 167.43 143.26 166.74 143.96 166.74 144.81 Z M 166.74 145.79 L 166.73 146.64 C 166.72 147.49 167.40 148.19 168.25 148.20 C 169.10 148.21 169.80 147.53 169.81 146.68 L 169.82 145.83 C 169.83 144.98 169.15 144.28 168.30 144.27 C 167.45 144.26 166.75 144.94 166.74 145.79 Z M 166.74 146.51 L 166.63 147.58 C 166.55 148.43 167.17 149.18 168.02 149.26 C 168.86 149.34 169.61 148.72 169.70 147.88 L 169.80 146.81 C 169.88 145.96 169.26 145.21 168.42 145.13 C 167.57 145.04 166.82 145.66 166.74 146.51 Z M 166.65 147.47 L 166.48 148.47 C 166.34 149.31 166.90 150.10 167.74 150.24 C 168.58 150.38 169.37 149.82 169.51 148.98 L 169.68 147.99 C 169.82 147.15 169.26 146.36 168.42 146.22 C 167.59 146.07 166.79 146.64 166.65 147.47 Z M 166.49 148.42 L 166.29 149.44 C 166.12 150.27 166.66 151.08 167.49 151.25 C 168.31 151.42 169.12 150.88 169.29 150.05 L 169.50 149.03 C 169.67 148.20 169.13 147.39 168.30 147.23 C 167.47 147.06 166.66 147.59 166.49 148.42 Z M 166.30 149.41 L 166.07 150.43 C 165.88 151.26 166.40 152.07 167.22 152.26 C 168.05 152.45 168.87 151.93 169.05 151.10 L 169.28 150.08 C 169.47 149.26 168.95 148.44 168.12 148.26 C 167.30 148.07 166.48 148.59 166.30 149.41 Z M 166.08 150.40 L 165.82 151.45 C 165.61 152.27 166.11 153.10 166.92 153.30 C 167.74 153.51 168.57 153.01 168.77 152.20 L 169.04 151.14 C 169.24 150.32 168.75 149.50 167.93 149.29 C 167.12 149.08 166.29 149.58 166.08 150.40 Z M 165.86 151.35 L 165.53 152.34 C 165.27 153.13 165.70 153.98 166.49 154.25 C 167.28 154.51 168.14 154.08 168.40 153.29 L 168.73 152.30 C 168.99 151.51 168.56 150.65 167.77 150.39 C 166.98 150.13 166.12 150.56 165.86 151.35 Z M 165.67 152.07 L 165.25 152.80 C 164.84 153.51 165.09 154.43 165.80 154.84 C 166.52 155.25 167.43 155.00 167.84 154.29 L 168.26 153.56 C 168.67 152.84 168.43 151.93 167.71 151.52 C 167.00 151.10 166.08 151.35 165.67 152.07 Z M 165.52 152.48 L 164.80 153.18 C 164.22 153.74 164.21 154.68 164.78 155.27 C 165.34 155.85 166.28 155.86 166.87 155.29 L 167.58 154.60 C 168.16 154.03 168.18 153.10 167.61 152.51 C 167.04 151.93 166.10 151.91 165.52 152.48 Z M 164.94 153.07 L 164.56 153.37 C 163.92 153.86 163.80 154.78 164.29 155.42 C 164.78 156.06 165.70 156.18 166.35 155.69 L 166.73 155.40 C 167.37 154.90 167.49 153.98 167.00 153.34 C 166.50 152.70 165.58 152.58 164.94 153.07 Z"
      fill="black"
      fill-rule="nonzero" /><path d="M 159.46 142.47 L 158.31 142.57 C 157.48 142.64 156.87 143.36 156.94 144.19 C 157.02 145.01 157.74 145.62 158.57 145.55 L 159.71 145.45 C 160.54 145.38 161.15 144.65 161.08 143.83 C 161.00 143.01 160.28 142.40 159.46 142.47 Z M 158.20 145.57 L 158.53 145.62 C 159.36 145.75 160.14 145.18 160.27 144.35 C 160.40 143.51 159.83 142.73 159.00 142.60 L 158.67 142.55 C 157.84 142.42 157.06 142.99 156.93 143.82 C 156.80 144.66 157.37 145.44 158.20 145.57 Z M 158.78 145.65 L 159.84 145.64 C 160.69 145.63 161.38 144.94 161.37 144.09 C 161.36 143.24 160.66 142.55 159.81 142.56 L 158.75 142.57 C 157.90 142.58 157.22 143.27 157.22 144.12 C 157.23 144.97 157.93 145.66 158.78 145.65 Z M 159.94 145.64 L 161.15 145.55 C 161.99 145.48 162.63 144.74 162.57 143.89 C 162.50 143.05 161.76 142.41 160.91 142.47 L 159.71 142.56 C 158.86 142.63 158.23 143.37 158.29 144.22 C 158.35 145.07 159.10 145.70 159.94 145.64 Z M 161.25 145.53 L 162.19 145.39 C 163.02 145.27 163.60 144.49 163.48 143.65 C 163.36 142.81 162.58 142.23 161.74 142.35 L 160.81 142.49 C 159.97 142.61 159.39 143.39 159.51 144.23 C 159.63 145.07 160.41 145.65 161.25 145.53 Z M 162.26 145.37 L 163.23 145.17 C 164.06 145.01 164.59 144.21 164.43 143.38 C 164.26 142.56 163.46 142.02 162.63 142.18 L 161.66 142.38 C 160.84 142.54 160.30 143.35 160.47 144.17 C 160.63 145.00 161.43 145.53 162.26 145.37 Z M 163.28 145.15 L 164.33 144.91 C 165.14 144.72 165.65 143.90 165.46 143.09 C 165.27 142.28 164.46 141.77 163.64 141.96 L 162.59 142.21 C 161.78 142.40 161.27 143.21 161.46 144.02 C 161.65 144.84 162.46 145.34 163.28 145.15 Z M 164.35 144.89 L 165.25 144.67 C 166.05 144.47 166.54 143.65 166.34 142.85 C 166.14 142.04 165.33 141.55 164.52 141.75 L 163.62 141.98 C 162.82 142.18 162.33 142.99 162.53 143.80 C 162.73 144.60 163.54 145.09 164.35 144.89 Z M 165.26 144.65 L 166.21 144.41 C 167.00 144.20 167.48 143.39 167.28 142.59 C 167.07 141.80 166.26 141.32 165.47 141.52 L 164.52 141.77 C 163.72 141.97 163.24 142.78 163.44 143.58 C 163.65 144.38 164.46 144.86 165.26 144.65 Z M 166.21 144.40 L 167.20 144.14 C 167.99 143.93 168.46 143.12 168.26 142.33 C 168.05 141.54 167.24 141.07 166.45 141.27 L 165.46 141.53 C 164.67 141.74 164.20 142.55 164.40 143.34 C 164.61 144.13 165.42 144.60 166.21 144.40 Z M 167.20 144.13 L 168.22 143.86 C 169.00 143.65 169.47 142.85 169.26 142.06 C 169.05 141.28 168.25 140.81 167.47 141.02 L 166.45 141.29 C 165.67 141.49 165.20 142.30 165.41 143.08 C 165.61 143.87 166.42 144.33 167.20 144.13 Z M 168.22 143.85 L 168.66 143.73 C 169.44 143.53 169.90 142.73 169.69 141.95 C 169.49 141.17 168.69 140.70 167.91 140.91 L 167.47 141.02 C 166.69 141.23 166.22 142.03 166.43 142.81 C 166.64 143.59 167.44 144.06 168.22 143.85 Z"
      fill="black"
      fill-rule="nonzero" /><path d="M 142.86 155.48 L 141.90 155.94 C 141.15 156.30 140.84 157.20 141.20 157.95 C 141.55 158.69 142.45 159.01 143.20 158.65 L 144.16 158.18 C 144.90 157.83 145.22 156.93 144.86 156.18 C 144.50 155.44 143.60 155.12 142.86 155.48 Z M 141.98 158.75 L 142.45 158.93 C 143.25 159.24 144.15 158.84 144.46 158.04 C 144.77 157.24 144.38 156.34 143.58 156.03 L 143.11 155.85 C 142.31 155.53 141.41 155.93 141.10 156.73 C 140.79 157.53 141.18 158.43 141.98 158.75 Z M 142.96 159.06 L 143.98 159.10 C 144.86 159.13 145.59 158.45 145.62 157.57 C 145.66 156.70 144.97 155.96 144.10 155.93 L 143.07 155.89 C 142.20 155.86 141.46 156.54 141.43 157.42 C 141.40 158.29 142.08 159.03 142.96 159.06 Z M 144.11 159.12 L 145.36 159.07 C 146.24 159.03 146.93 158.28 146.90 157.40 C 146.86 156.51 146.11 155.82 145.23 155.86 L 143.98 155.91 C 143.09 155.95 142.40 156.69 142.44 157.58 C 142.47 158.46 143.22 159.15 144.11 159.12 Z M 145.46 159.07 L 146.53 158.96 C 147.42 158.87 148.06 158.07 147.97 157.19 C 147.88 156.30 147.09 155.65 146.20 155.75 L 145.13 155.86 C 144.24 155.95 143.59 156.74 143.69 157.63 C 143.78 158.52 144.57 159.16 145.46 159.07 Z M 146.61 158.95 L 147.60 158.80 C 148.48 158.67 149.09 157.84 148.96 156.96 C 148.82 156.08 148.00 155.47 147.12 155.61 L 146.13 155.76 C 145.25 155.89 144.64 156.71 144.77 157.59 C 144.90 158.47 145.73 159.08 146.61 158.95 Z M 147.65 158.79 L 148.55 158.63 C 149.43 158.47 150.01 157.63 149.85 156.75 C 149.69 155.87 148.86 155.29 147.98 155.45 L 147.07 155.61 C 146.19 155.77 145.61 156.61 145.77 157.49 C 145.93 158.37 146.77 158.95 147.65 158.79 Z M 148.58 158.62 L 149.62 158.41 C 150.50 158.24 151.06 157.39 150.89 156.52 C 150.72 155.64 149.87 155.08 148.99 155.25 L 147.95 155.46 C 147.08 155.63 146.51 156.48 146.68 157.35 C 146.86 158.23 147.71 158.79 148.58 158.62 Z M 149.64 158.40 L 150.55 158.21 C 151.42 158.03 151.97 157.17 151.79 156.30 C 151.60 155.44 150.75 154.88 149.88 155.06 L 148.97 155.26 C 148.10 155.44 147.55 156.30 147.73 157.16 C 147.92 158.03 148.77 158.59 149.64 158.40 Z M 150.55 158.21 L 151.52 158.00 C 152.39 157.81 152.94 156.96 152.76 156.09 C 152.57 155.23 151.72 154.67 150.85 154.86 L 149.88 155.07 C 149.01 155.26 148.46 156.11 148.64 156.98 C 148.83 157.84 149.68 158.39 150.55 158.21 Z M 151.52 157.99 L 152.50 157.78 C 153.36 157.60 153.91 156.75 153.73 155.88 C 153.54 155.02 152.69 154.47 151.83 154.66 L 150.85 154.87 C 149.99 155.05 149.44 155.90 149.62 156.76 C 149.81 157.63 150.66 158.18 151.52 157.99 Z M 152.50 157.78 L 153.47 157.57 C 154.33 157.38 154.87 156.53 154.69 155.67 C 154.50 154.81 153.65 154.27 152.79 154.45 L 151.83 154.66 C 150.97 154.85 150.42 155.70 150.61 156.56 C 150.80 157.42 151.64 157.96 152.50 157.78 Z M 153.49 157.55 L 154.47 157.33 C 155.32 157.13 155.85 156.28 155.65 155.43 C 155.46 154.58 154.61 154.04 153.75 154.24 L 152.77 154.47 C 151.92 154.66 151.39 155.51 151.59 156.37 C 151.78 157.22 152.63 157.75 153.49 157.55 Z M 154.49 157.31 L 155.45 157.08 C 156.29 156.87 156.80 156.01 156.60 155.17 C 156.39 154.32 155.53 153.81 154.69 154.02 L 153.73 154.25 C 152.89 154.46 152.37 155.32 152.58 156.16 C 152.79 157.01 153.65 157.52 154.49 157.31 Z M 155.46 157.06 L 156.45 156.80 C 157.29 156.59 157.79 155.73 157.57 154.89 C 157.35 154.06 156.50 153.56 155.66 153.77 L 154.67 154.03 C 153.83 154.25 153.33 155.11 153.55 155.94 C 153.77 156.78 154.62 157.28 155.46 157.06 Z M 156.46 156.79 L 157.42 156.53 C 158.25 156.31 158.74 155.46 158.52 154.63 C 158.29 153.80 157.44 153.31 156.61 153.53 L 155.65 153.79 C 154.82 154.01 154.33 154.86 154.55 155.69 C 154.78 156.52 155.63 157.01 156.46 156.79 Z M 157.42 156.52 L 158.39 156.25 C 159.22 156.03 159.70 155.18 159.47 154.36 C 159.25 153.53 158.40 153.05 157.58 153.28 L 156.61 153.54 C 155.79 153.77 155.30 154.62 155.53 155.44 C 155.75 156.26 156.60 156.75 157.42 156.52 Z M 158.40 156.24 L 159.35 155.97 C 160.17 155.75 160.65 154.90 160.42 154.09 C 160.19 153.27 159.35 152.80 158.53 153.02 L 157.57 153.29 C 156.76 153.52 156.28 154.36 156.51 155.18 C 156.74 155.99 157.58 156.47 158.40 156.24 Z M 159.36 155.96 L 160.32 155.69 C 161.13 155.46 161.60 154.62 161.37 153.81 C 161.14 153.01 160.30 152.54 159.49 152.76 L 158.53 153.04 C 157.72 153.26 157.25 154.10 157.48 154.91 C 157.71 155.72 158.55 156.19 159.36 155.96 Z M 160.32 155.68 L 161.30 155.40 C 162.10 155.17 162.56 154.33 162.33 153.53 C 162.10 152.73 161.27 152.27 160.47 152.50 L 159.49 152.78 C 158.69 153.01 158.23 153.84 158.46 154.64 C 158.68 155.44 159.52 155.90 160.32 155.68 Z M 161.29 155.38 L 162.26 155.10 C 163.06 154.88 163.51 154.05 163.29 153.26 C 163.06 152.46 162.23 152.01 161.44 152.23 L 160.47 152.51 C 159.68 152.74 159.22 153.57 159.45 154.36 C 159.67 155.15 160.50 155.61 161.29 155.38 Z M 162.26 155.09 L 163.20 154.82 C 163.98 154.60 164.44 153.78 164.21 152.99 C 163.99 152.21 163.17 151.75 162.38 151.98 L 161.45 152.25 C 160.66 152.47 160.21 153.29 160.43 154.08 C 160.66 154.86 161.47 155.31 162.26 155.09 Z M 163.19 154.81 L 164.12 154.55 C 164.90 154.33 165.35 153.52 165.13 152.74 C 164.91 151.96 164.10 151.50 163.32 151.72 L 162.39 151.99 C 161.61 152.21 161.16 153.02 161.38 153.80 C 161.60 154.58 162.41 155.03 163.19 154.81 Z M 164.12 154.54 L 165.11 154.26 C 165.88 154.04 166.33 153.24 166.12 152.46 C 165.90 151.69 165.09 151.24 164.32 151.45 L 163.33 151.73 C 162.55 151.95 162.10 152.76 162.32 153.53 C 162.53 154.31 163.34 154.76 164.12 154.54 Z M 165.10 154.26 L 166.06 153.99 C 166.84 153.78 167.29 152.98 167.08 152.20 C 166.86 151.43 166.06 150.98 165.29 151.19 L 164.32 151.46 C 163.55 151.67 163.10 152.47 163.31 153.24 C 163.53 154.02 164.33 154.47 165.10 154.26 Z M 166.04 153.99 L 167.03 153.74 C 167.80 153.54 168.27 152.75 168.07 151.98 C 167.87 151.20 167.08 150.74 166.31 150.94 L 165.32 151.19 C 164.54 151.39 164.08 152.18 164.28 152.95 C 164.47 153.73 165.26 154.19 166.04 153.99 Z M 166.97 153.75 L 167.98 153.53 C 168.76 153.36 169.26 152.59 169.09 151.81 C 168.92 151.04 168.15 150.54 167.38 150.71 L 166.36 150.93 C 165.58 151.10 165.09 151.86 165.26 152.64 C 165.42 153.42 166.19 153.91 166.97 153.75 Z M 167.91 153.53 L 168.89 153.37 C 169.67 153.25 170.20 152.51 170.07 151.73 C 169.94 150.95 169.21 150.42 168.42 150.54 L 167.45 150.70 C 166.67 150.83 166.14 151.57 166.26 152.35 C 166.39 153.13 167.13 153.66 167.91 153.53 Z M 168.85 153.37 L 169.40 153.30 C 170.18 153.19 170.73 152.47 170.62 151.69 C 170.51 150.90 169.79 150.36 169.01 150.47 L 168.46 150.54 C 167.68 150.65 167.13 151.37 167.24 152.16 C 167.35 152.94 168.07 153.48 168.85 153.37 Z"
      fill="black"
      fill-rule="nonzero" /><path d="M 151.34 160.78 L 151.49 161.77 C 151.62 162.62 152.41 163.20 153.26 163.06 C 154.10 162.93 154.68 162.14 154.55 161.30 L 154.39 160.31 C 154.26 159.46 153.47 158.88 152.63 159.01 C 151.78 159.14 151.20 159.94 151.34 160.78 Z M 151.44 161.63 L 151.50 162.62 C 151.56 163.50 152.31 164.16 153.18 164.10 C 154.06 164.05 154.72 163.30 154.66 162.42 L 154.60 161.43 C 154.55 160.56 153.79 159.90 152.92 159.95 C 152.05 160.01 151.38 160.76 151.44 161.63 Z M 151.48 162.37 L 151.39 163.32 C 151.31 164.20 151.95 164.99 152.83 165.07 C 153.71 165.16 154.50 164.52 154.59 163.63 L 154.68 162.68 C 154.76 161.80 154.12 161.01 153.24 160.93 C 152.36 160.84 151.57 161.48 151.48 162.37 Z M 151.43 163.08 L 151.17 164.09 C 150.95 164.95 151.47 165.82 152.33 166.04 C 153.19 166.27 154.06 165.75 154.29 164.89 L 154.55 163.88 C 154.77 163.02 154.25 162.14 153.39 161.92 C 152.53 161.70 151.65 162.22 151.43 163.08 Z M 151.22 163.92 L 150.86 164.88 C 150.55 165.71 150.97 166.64 151.81 166.95 C 152.64 167.26 153.57 166.84 153.88 166.01 L 154.24 165.05 C 154.55 164.22 154.13 163.29 153.29 162.98 C 152.46 162.67 151.53 163.09 151.22 163.92 Z M 150.89 164.79 L 150.49 165.71 C 150.13 166.52 150.50 167.48 151.32 167.83 C 152.13 168.19 153.09 167.82 153.45 167.01 L 153.85 166.09 C 154.21 165.27 153.84 164.32 153.02 163.96 C 152.21 163.60 151.25 163.98 150.89 164.79 Z M 150.52 165.65 L 150.06 166.59 C 149.67 167.39 150.01 168.36 150.81 168.75 C 151.61 169.14 152.58 168.80 152.97 168.00 L 153.42 167.06 C 153.81 166.26 153.48 165.29 152.67 164.90 C 151.87 164.52 150.90 164.85 150.52 165.65 Z M 150.09 166.53 L 149.65 167.35 C 149.22 168.14 149.51 169.12 150.30 169.54 C 151.08 169.97 152.06 169.67 152.49 168.89 L 152.93 168.06 C 153.36 167.28 153.07 166.30 152.28 165.88 C 151.50 165.45 150.52 165.74 150.09 166.53 Z M 149.68 167.29 L 149.17 168.14 C 148.71 168.90 148.96 169.89 149.72 170.35 C 150.49 170.81 151.48 170.57 151.94 169.80 L 152.45 168.95 C 152.91 168.19 152.66 167.20 151.90 166.74 C 151.14 166.28 150.14 166.52 149.68 167.29 Z M 149.21 168.08 L 148.66 168.92 C 148.17 169.66 148.37 170.66 149.12 171.15 C 149.86 171.64 150.86 171.44 151.35 170.69 L 151.90 169.86 C 152.39 169.11 152.19 168.11 151.44 167.62 C 150.70 167.13 149.70 167.34 149.21 168.08 Z M 148.69 168.87 L 148.11 169.69 C 147.60 170.41 147.77 171.42 148.49 171.94 C 149.22 172.45 150.23 172.28 150.74 171.55 L 151.32 170.74 C 151.84 170.01 151.66 169.00 150.94 168.49 C 150.21 167.97 149.20 168.15 148.69 168.87 Z M 148.13 169.66 L 147.54 170.46 C 147.00 171.18 147.15 172.19 147.87 172.72 C 148.58 173.25 149.59 173.10 150.12 172.39 L 150.72 171.58 C 151.25 170.87 151.10 169.86 150.39 169.33 C 149.67 168.79 148.66 168.94 148.13 169.66 Z M 147.56 170.43 L 146.94 171.23 C 146.39 171.93 146.52 172.94 147.22 173.49 C 147.92 174.03 148.94 173.91 149.48 173.21 L 150.10 172.41 C 150.65 171.71 150.52 170.70 149.82 170.15 C 149.12 169.61 148.11 169.73 147.56 170.43 Z M 146.97 171.19 L 146.33 171.96 C 145.77 172.65 145.86 173.66 146.55 174.23 C 147.24 174.80 148.25 174.70 148.82 174.01 L 149.45 173.24 C 150.02 172.56 149.92 171.54 149.24 170.98 C 148.55 170.41 147.54 170.51 146.97 171.19 Z M 146.36 171.94 L 145.70 172.69 C 145.12 173.36 145.20 174.38 145.87 174.96 C 146.54 175.54 147.56 175.47 148.14 174.80 L 148.79 174.04 C 149.37 173.37 149.30 172.35 148.63 171.77 C 147.96 171.19 146.94 171.26 146.36 171.94 Z M 145.73 172.67 L 145.12 173.34 C 144.53 174.00 144.58 175.02 145.24 175.61 C 145.90 176.20 146.91 176.15 147.50 175.49 L 148.11 174.82 C 148.71 174.16 148.65 173.15 148.00 172.55 C 147.34 171.96 146.32 172.01 145.73 172.67 Z M 145.17 173.30 L 144.42 174.06 C 143.80 174.69 143.81 175.71 144.44 176.33 C 145.07 176.94 146.09 176.93 146.71 176.30 L 147.46 175.54 C 148.07 174.91 148.06 173.89 147.43 173.27 C 146.80 172.66 145.79 172.67 145.17 173.30 Z M 144.47 174.02 L 143.76 174.69 C 143.12 175.30 143.09 176.31 143.69 176.95 C 144.30 177.59 145.31 177.62 145.95 177.01 L 146.66 176.34 C 147.30 175.74 147.33 174.73 146.72 174.09 C 146.12 173.45 145.11 173.42 144.47 174.02 Z M 143.80 174.66 L 143.03 175.34 C 142.37 175.93 142.31 176.93 142.89 177.59 C 143.47 178.25 144.48 178.31 145.14 177.73 L 145.91 177.04 C 146.56 176.46 146.62 175.46 146.04 174.80 C 145.46 174.14 144.46 174.08 143.80 174.66 Z M 143.07 175.31 L 142.29 175.96 C 141.61 176.52 141.52 177.52 142.07 178.19 C 142.63 178.87 143.63 178.96 144.30 178.41 L 145.09 177.76 C 145.77 177.20 145.86 176.20 145.31 175.53 C 144.75 174.85 143.75 174.76 143.07 175.31 Z M 142.37 175.91 L 141.50 176.54 C 140.79 177.06 140.64 178.04 141.15 178.75 C 141.66 179.45 142.65 179.60 143.35 179.09 L 144.22 178.46 C 144.93 177.94 145.08 176.96 144.57 176.26 C 144.06 175.55 143.07 175.40 142.37 175.91 Z M 141.67 176.45 L 140.82 176.92 C 140.07 177.34 139.79 178.29 140.21 179.05 C 140.63 179.80 141.58 180.07 142.34 179.65 L 143.18 179.18 C 143.94 178.76 144.21 177.81 143.79 177.06 C 143.37 176.31 142.42 176.03 141.67 176.45 Z M 141.11 176.81 L 140.21 177.10 C 139.40 177.36 138.95 178.23 139.20 179.04 C 139.46 179.86 140.33 180.31 141.15 180.05 L 142.05 179.76 C 142.86 179.50 143.31 178.63 143.05 177.82 C 142.79 177.01 141.92 176.56 141.11 176.81 Z M 140.51 177.05 L 139.53 177.16 C 138.69 177.25 138.08 178.00 138.17 178.84 C 138.26 179.68 139.01 180.29 139.85 180.20 L 140.84 180.10 C 141.68 180.00 142.29 179.25 142.20 178.41 C 142.11 177.57 141.35 176.96 140.51 177.05 Z M 139.67 177.17 L 138.81 177.18 C 137.97 177.19 137.30 177.88 137.31 178.71 C 137.32 179.55 138.01 180.22 138.85 180.21 L 139.71 180.19 C 140.55 180.18 141.21 179.50 141.20 178.66 C 141.19 177.82 140.51 177.16 139.67 177.17 Z"
      fill="black"
      fill-rule="nonzero" /><path d="M 156.44 168.67 L 157.38 169.06 C 158.15 169.38 159.03 169.02 159.35 168.25 C 159.67 167.48 159.31 166.59 158.54 166.27 L 157.60 165.88 C 156.83 165.56 155.95 165.92 155.62 166.70 C 155.30 167.47 155.67 168.35 156.44 168.67 Z M 156.97 168.84 L 157.70 169.45 C 158.35 170.00 159.32 169.92 159.86 169.27 C 160.41 168.62 160.32 167.65 159.67 167.11 L 158.94 166.49 C 158.29 165.95 157.33 166.03 156.78 166.68 C 156.24 167.33 156.32 168.30 156.97 168.84 Z M 157.32 168.99 L 157.77 169.87 C 158.16 170.63 159.09 170.93 159.85 170.54 C 160.61 170.15 160.91 169.22 160.52 168.46 L 160.06 167.58 C 159.67 166.82 158.74 166.52 157.98 166.91 C 157.23 167.30 156.93 168.23 157.32 168.99 Z M 157.68 169.66 L 157.99 170.57 C 158.26 171.38 159.13 171.82 159.94 171.54 C 160.75 171.27 161.18 170.40 160.91 169.59 L 160.61 168.68 C 160.34 167.87 159.46 167.43 158.66 167.70 C 157.85 167.97 157.41 168.85 157.68 169.66 Z M 157.96 170.50 L 158.23 171.46 C 158.47 172.28 159.32 172.76 160.14 172.53 C 160.96 172.29 161.44 171.44 161.21 170.62 L 160.94 169.66 C 160.71 168.84 159.85 168.36 159.03 168.59 C 158.21 168.82 157.73 169.68 157.96 170.50 Z M 158.22 171.43 L 158.48 172.43 C 158.70 173.26 159.54 173.76 160.37 173.54 C 161.20 173.32 161.70 172.48 161.48 171.65 L 161.22 170.65 C 161.00 169.82 160.16 169.32 159.33 169.54 C 158.50 169.76 158.01 170.60 158.22 171.43 Z M 158.48 172.42 L 158.73 173.42 C 158.94 174.25 159.78 174.76 160.61 174.55 C 161.44 174.34 161.95 173.49 161.74 172.66 L 161.49 171.66 C 161.28 170.83 160.43 170.33 159.60 170.54 C 158.77 170.75 158.27 171.59 158.48 172.42 Z M 158.73 173.42 L 158.97 174.39 C 159.17 175.22 160.01 175.73 160.85 175.52 C 161.68 175.32 162.19 174.47 161.98 173.64 L 161.74 172.67 C 161.54 171.84 160.70 171.33 159.86 171.54 C 159.03 171.74 158.52 172.58 158.73 173.42 Z M 158.97 174.39 L 159.22 175.41 C 159.43 176.24 160.28 176.75 161.11 176.54 C 161.94 176.33 162.45 175.48 162.24 174.65 L 161.98 173.63 C 161.77 172.80 160.93 172.29 160.09 172.50 C 159.26 172.71 158.76 173.56 158.97 174.39 Z M 159.24 175.50 L 159.53 176.40 C 159.79 177.22 160.66 177.67 161.49 177.41 C 162.31 177.15 162.76 176.27 162.50 175.45 L 162.22 174.55 C 161.96 173.73 161.08 173.28 160.26 173.54 C 159.44 173.80 158.98 174.68 159.24 175.50 Z M 159.59 176.58 L 160.02 177.51 C 160.38 178.29 161.31 178.63 162.09 178.27 C 162.88 177.91 163.22 176.98 162.86 176.20 L 162.44 175.27 C 162.08 174.49 161.15 174.14 160.36 174.50 C 159.58 174.86 159.23 175.79 159.59 176.58 Z M 160.21 177.82 L 160.81 178.58 C 161.35 179.26 162.33 179.38 163.01 178.84 C 163.69 178.30 163.81 177.32 163.27 176.64 L 162.67 175.88 C 162.13 175.20 161.15 175.09 160.47 175.62 C 159.79 176.16 159.67 177.15 160.21 177.82 Z M 161.28 178.98 L 162.13 179.45 C 162.89 179.87 163.84 179.59 164.26 178.83 C 164.68 178.07 164.40 177.12 163.64 176.70 L 162.80 176.23 C 162.04 175.82 161.08 176.09 160.66 176.85 C 160.25 177.61 160.52 178.57 161.28 178.98 Z M 162.58 179.62 L 163.56 179.81 C 164.41 179.98 165.24 179.43 165.41 178.58 C 165.58 177.73 165.03 176.90 164.17 176.73 L 163.19 176.53 C 162.34 176.36 161.51 176.92 161.34 177.77 C 161.17 178.62 161.73 179.45 162.58 179.62 Z M 163.82 179.85 L 164.83 179.88 C 165.70 179.90 166.43 179.22 166.45 178.35 C 166.48 177.48 165.80 176.75 164.93 176.73 L 163.91 176.70 C 163.04 176.67 162.32 177.35 162.29 178.22 C 162.27 179.09 162.95 179.82 163.82 179.85 Z M 165.06 179.87 L 166.07 179.75 C 166.93 179.65 167.55 178.87 167.45 178.00 C 167.35 177.13 166.57 176.51 165.70 176.62 L 164.70 176.73 C 163.83 176.83 163.21 177.62 163.31 178.48 C 163.41 179.35 164.20 179.97 165.06 179.87 Z M 166.31 179.70 L 167.26 179.43 C 168.10 179.20 168.58 178.32 168.35 177.49 C 168.11 176.65 167.24 176.16 166.40 176.40 L 165.45 176.66 C 164.62 176.90 164.13 177.77 164.37 178.61 C 164.60 179.45 165.48 179.94 166.31 179.70 Z M 167.46 179.36 L 168.38 178.96 C 169.18 178.61 169.55 177.68 169.20 176.88 C 168.85 176.08 167.92 175.72 167.12 176.07 L 166.20 176.47 C 165.40 176.82 165.03 177.75 165.38 178.55 C 165.73 179.35 166.66 179.71 167.46 179.36 Z M 168.51 178.89 L 169.34 178.44 C 170.11 178.02 170.39 177.06 169.97 176.30 C 169.55 175.53 168.59 175.25 167.83 175.67 L 166.99 176.13 C 166.23 176.55 165.95 177.51 166.37 178.27 C 166.79 179.03 167.74 179.31 168.51 178.89 Z M 169.40 178.40 L 170.28 177.86 C 171.03 177.41 171.26 176.44 170.81 175.70 C 170.36 174.96 169.39 174.72 168.65 175.18 L 167.77 175.71 C 167.03 176.16 166.79 177.13 167.24 177.87 C 167.69 178.61 168.66 178.85 169.40 178.40 Z M 170.31 177.85 L 171.18 177.29 C 171.91 176.83 172.13 175.86 171.66 175.13 C 171.20 174.39 170.23 174.18 169.50 174.64 L 168.62 175.19 C 167.89 175.66 167.67 176.63 168.14 177.36 C 168.60 178.09 169.57 178.31 170.31 177.85 Z M 171.19 177.28 L 172.04 176.73 C 172.76 176.25 172.97 175.28 172.50 174.56 C 172.03 173.84 171.06 173.63 170.33 174.10 L 169.48 174.66 C 168.76 175.13 168.55 176.10 169.02 176.82 C 169.50 177.55 170.47 177.75 171.19 177.28 Z M 172.07 176.70 L 172.89 176.14 C 173.60 175.65 173.79 174.68 173.30 173.97 C 172.81 173.26 171.84 173.08 171.13 173.56 L 170.31 174.13 C 169.59 174.61 169.41 175.58 169.90 176.29 C 170.38 177.01 171.35 177.19 172.07 176.70 Z M 172.93 176.10 L 173.77 175.49 C 174.46 174.98 174.61 174.00 174.10 173.31 C 173.59 172.62 172.61 172.47 171.92 172.98 L 171.09 173.60 C 170.40 174.11 170.25 175.08 170.76 175.77 C 171.27 176.47 172.24 176.61 172.93 176.10 Z M 173.82 175.44 L 174.60 174.81 C 175.26 174.28 175.37 173.30 174.83 172.64 C 174.30 171.97 173.32 171.87 172.66 172.40 L 171.88 173.03 C 171.21 173.56 171.10 174.54 171.64 175.21 C 172.18 175.87 173.15 175.98 173.82 175.44 Z M 174.64 174.77 L 175.36 174.14 C 176.01 173.58 176.08 172.61 175.52 171.97 C 174.97 171.33 173.99 171.26 173.35 171.81 L 172.62 172.44 C 171.98 173.00 171.91 173.97 172.46 174.61 C 173.02 175.26 173.99 175.33 174.64 174.77 Z M 175.40 174.10 L 176.16 173.39 C 176.78 172.82 176.82 171.85 176.24 171.23 C 175.67 170.61 174.70 170.57 174.08 171.15 L 173.31 171.85 C 172.69 172.43 172.66 173.40 173.23 174.02 C 173.81 174.64 174.78 174.68 175.40 174.10 Z M 176.21 173.34 L 176.88 172.65 C 177.47 172.05 177.45 171.08 176.85 170.49 C 176.25 169.90 175.28 169.92 174.69 170.52 L 174.02 171.20 C 173.44 171.81 173.45 172.78 174.05 173.36 C 174.66 173.95 175.62 173.94 176.21 173.34 Z M 176.98 172.53 L 177.61 171.73 C 178.13 171.07 178.01 170.11 177.35 169.59 C 176.69 169.07 175.74 169.19 175.22 169.85 L 174.59 170.64 C 174.07 171.31 174.18 172.26 174.84 172.78 C 175.50 173.30 176.46 173.19 176.98 172.53 Z M 177.80 171.40 L 178.19 170.51 C 178.53 169.75 178.19 168.85 177.43 168.51 C 176.66 168.17 175.77 168.52 175.43 169.28 L 175.03 170.17 C 174.69 170.93 175.03 171.83 175.80 172.17 C 176.56 172.51 177.45 172.17 177.80 171.40 Z M 178.31 169.97 L 178.36 168.98 C 178.40 168.15 177.76 167.45 176.93 167.41 C 176.09 167.37 175.39 168.01 175.35 168.84 L 175.31 169.83 C 175.27 170.66 175.91 171.36 176.74 171.40 C 177.57 171.44 178.27 170.80 178.31 169.97 Z M 178.20 168.28 L 177.79 167.41 C 177.44 166.67 176.56 166.35 175.82 166.70 C 175.08 167.04 174.76 167.93 175.10 168.67 L 175.51 169.54 C 175.86 170.28 176.74 170.60 177.48 170.25 C 178.23 169.91 178.55 169.02 178.20 168.28 Z M 177.58 167.13 L 177.07 166.50 C 176.57 165.87 175.66 165.77 175.03 166.27 C 174.41 166.77 174.30 167.68 174.80 168.31 L 175.31 168.95 C 175.81 169.57 176.73 169.67 177.35 169.17 C 177.98 168.67 178.08 167.76 177.58 167.13 Z"
      fill="black"
      fill-rule="nonzero" /></svg>