<svg xmlns="http://www.w3.org/2000/svg" width="300" height="300" viewBox="0 0 300 300">
<path d="M 138.90 137.55 L 139.92 137.59 C 140.76 137.62 141.46 136.96 141.49 136.13 C 141.52 135.29 140.87 134.59 140.03 134.56 L 139.01 134.52 C 138.17 134.49 137.47 135.15 137.44 135.98 C 137.41 136.82 138.06 137.52 138.90 137.55 Z M 139.93 137.68 L 140.91 137.70 C 141.80 137.73 142.54 137.03 142.56 136.14 C 142.58 135.26 141.88 134.52 141.00 134.50 L 140.02 134.47 C 139.13 134.45 138.40 135.15 138.37 136.03 C 138.35 136.92 139.05 137.65 139.93 137.68 Z M 140.94 137.74 L 141.93 137.75 C 142.84 137.76 143.58 137.03 143.59 136.12 C 143.60 135.22 142.87 134.48 141.96 134.47 L 140.97 134.46 C 140.06 134.45 139.32 135.18 139.31 136.09 C 139.31 136.99 140.04 137.73 140.94 137.74 Z M 141.95 137.75 L 142.92 137.75 C 143.83 137.75 144.56 137.01 144.56 136.11 C 144.56 135.20 143.83 134.47 142.92 134.47 L 141.95 134.47 C 141.04 134.47 140.31 135.21 140.31 136.11 C 140.31 137.01 141.04 137.75 141.95 137.75 Z M 142.94 137.74 L 143.95 137.73 C 144.85 137.72 145.57 136.98 145.56 136.08 C 145.55 135.18 144.82 134.46 143.91 134.47 L 142.90 134.48 C 142.00 134.49 141.28 135.23 141.29 136.13 C 141.30 137.03 142.04 137.75 142.94 137.74 Z M 144.00 137.72 L 144.99 137.69 C 145.89 137.65 146.59 136.90 146.56 136.00 C 146.52 135.10 145.77 134.40 144.87 134.43 L 143.87 134.47 C 142.97 134.51 142.27 135.26 142.31 136.16 C 142.34 137.06 143.10 137.76 144.00 137.72 Z M 145.05 137.68 L 146.06 137.60 C 146.95 137.54 147.62 136.76 147.55 135.86 C 147.49 134.97 146.71 134.30 145.81 134.37 L 144.81 134.44 C 143.92 134.51 143.24 135.29 143.31 136.18 C 143.38 137.07 144.16 137.74 145.05 137.68 Z M 146.12 137.59 L 147.10 137.48 C 147.99 137.38 148.63 136.57 148.52 135.68 C 148.42 134.80 147.62 134.16 146.73 134.26 L 145.75 134.38 C 144.86 134.48 144.22 135.28 144.33 136.17 C 144.43 137.06 145.23 137.70 146.12 137.59 Z M 147.15 137.47 L 148.14 137.32 C 149.03 137.19 149.63 136.37 149.50 135.48 C 149.37 134.60 148.55 133.99 147.66 134.12 L 146.68 134.27 C 145.79 134.40 145.19 135.23 145.32 136.11 C 145.45 136.99 146.27 137.60 147.15 137.47 Z M 148.17 137.31 L 149.17 137.14 C 150.05 137.00 150.64 136.17 150.49 135.29 C 150.34 134.41 149.51 133.82 148.64 133.97 L 147.64 134.13 C 146.76 134.28 146.17 135.11 146.31 135.99 C 146.46 136.87 147.29 137.46 148.17 137.31 Z M 149.18 137.13 L 150.17 136.96 C 151.04 136.80 151.62 135.97 151.46 135.10 C 151.31 134.23 150.47 133.64 149.60 133.80 L 148.62 133.98 C 147.75 134.13 147.17 134.97 147.32 135.84 C 147.48 136.71 148.31 137.29 149.18 137.13 Z M 150.18 136.95 L 151.18 136.75 C 152.05 136.59 152.61 135.75 152.45 134.89 C 152.28 134.02 151.44 133.46 150.58 133.62 L 149.58 133.81 C 148.72 133.98 148.15 134.81 148.32 135.68 C 148.48 136.54 149.32 137.11 150.18 136.95 Z M 151.20 136.74 L 152.18 136.54 C 153.04 136.36 153.59 135.52 153.41 134.67 C 153.24 133.81 152.40 133.26 151.54 133.43 L 150.56 133.64 C 149.70 133.81 149.15 134.65 149.33 135.51 C 149.50 136.37 150.34 136.92 151.20 136.74 Z M 152.19 136.53 L 153.17 136.32 C 154.02 136.13 154.56 135.30 154.38 134.44 C 154.19 133.59 153.36 133.05 152.51 133.23 L 151.53 133.44 C 150.68 133.63 150.14 134.47 150.32 135.32 C 150.50 136.17 151.34 136.71 152.19 136.53 Z M 153.17 136.31 L 154.14 136.10 C 154.99 135.92 155.53 135.08 155.35 134.24 C 155.16 133.39 154.33 132.85 153.49 133.03 L 152.51 133.24 C 151.66 133.43 151.12 134.26 151.31 135.11 C 151.49 135.95 152.32 136.49 153.17 136.31 Z M 154.14 136.09 L 155.12 135.88 C 155.96 135.70 156.50 134.88 156.32 134.04 C 156.14 133.19 155.31 132.66 154.47 132.84 L 153.49 133.04 C 152.65 133.22 152.11 134.05 152.29 134.89 C 152.47 135.73 153.30 136.27 154.14 136.09 Z M 155.11 135.87 L 156.09 135.66 C 156.93 135.49 157.46 134.67 157.29 133.83 C 157.11 133.00 156.29 132.46 155.45 132.64 L 154.48 132.85 C 153.64 133.02 153.11 133.84 153.28 134.68 C 153.46 135.51 154.28 136.05 155.11 135.87 Z M 156.09 135.65 L 157.08 135.44 C 157.91 135.26 158.44 134.45 158.26 133.62 C 158.09 132.79 157.27 132.26 156.44 132.44 L 155.45 132.65 C 154.63 132.83 154.10 133.64 154.27 134.47 C 154.45 135.30 155.26 135.83 156.09 135.65 Z M 157.09 135.43 L 158.07 135.21 C 158.89 135.03 159.41 134.22 159.23 133.40 C 159.04 132.58 158.23 132.06 157.41 132.24 L 156.43 132.45 C 155.61 132.64 155.10 133.45 155.28 134.27 C 155.46 135.09 156.27 135.61 157.09 135.43 Z M 158.09 135.20 L 159.07 134.96 C 159.88 134.77 160.38 133.96 160.19 133.14 C 160.00 132.33 159.18 131.83 158.37 132.02 L 157.39 132.25 C 156.58 132.45 156.08 133.26 156.27 134.07 C 156.46 134.89 157.28 135.39 158.09 135.20 Z M 159.09 134.95 L 160.07 134.70 C 160.87 134.49 161.36 133.68 161.15 132.88 C 160.95 132.07 160.14 131.59 159.33 131.79 L 158.35 132.04 C 157.55 132.24 157.06 133.06 157.26 133.86 C 157.47 134.66 158.28 135.15 159.09 134.95 Z M 160.07 134.68 L 161.02 134.44 C 161.81 134.24 162.29 133.43 162.09 132.63 C 161.88 131.83 161.07 131.36 160.28 131.56 L 159.33 131.80 C 158.53 132.01 158.06 132.82 158.26 133.61 C 158.46 134.41 159.28 134.89 160.07 134.68 Z M 161.00 134.43 L 161.99 134.19 C 162.79 133.99 163.27 133.19 163.07 132.40 C 162.87 131.61 162.07 131.12 161.28 131.32 L 160.29 131.57 C 159.50 131.77 159.02 132.57 159.21 133.36 C 159.41 134.15 160.21 134.63 161.00 134.43 Z M 161.98 134.18 L 162.92 133.95 C 163.71 133.76 164.20 132.98 164.01 132.19 C 163.82 131.40 163.03 130.92 162.25 131.10 L 161.30 131.33 C 160.51 131.52 160.03 132.31 160.21 133.09 C 160.40 133.88 161.19 134.36 161.98 134.18 Z M 162.90 133.95 L 163.89 133.73 C 164.67 133.56 165.16 132.78 164.99 132.00 C 164.82 131.21 164.04 130.72 163.26 130.89 L 162.27 131.11 C 161.49 131.28 160.99 132.06 161.17 132.84 C 161.34 133.62 162.12 134.12 162.90 133.95 Z M 163.83 133.73 L 164.80 133.55 C 165.59 133.41 166.11 132.66 165.97 131.88 C 165.82 131.09 165.07 130.57 164.29 130.71 L 163.32 130.89 C 162.53 131.03 162.01 131.78 162.15 132.57 C 162.29 133.35 163.04 133.87 163.83 133.73 Z M 164.74 133.56 L 165.73 133.42 C 166.51 133.32 167.06 132.60 166.96 131.81 C 166.85 131.03 166.13 130.47 165.35 130.58 L 164.36 130.71 C 163.57 130.82 163.02 131.54 163.12 132.32 C 163.23 133.11 163.95 133.66 164.74 133.56 Z M 165.70 133.42 L 166.14 133.37 C 166.93 133.28 167.49 132.57 167.40 131.78 C 167.31 131.00 166.60 130.44 165.81 130.53 L 165.37 130.58 C 164.58 130.67 164.02 131.38 164.11 132.17 C 164.21 132.95 164.92 133.52 165.70 133.42 Z"
      fill="black"
      fill-rule="nonzero" /><path d="M 134.09 152.00 L 133.34 152.79 C 132.75 153.40 132.76 154.37 133.37 154.96 C 133.98 155.55 134.95 155.53 135.54 154.92 L 136.30 154.14 C 136.89 153.53 136.88 152.56 136.27 151.97 C 135.66 151.38 134.68 151.39 134.09 152.00 Z M 133.87 155.36 L 134.36 155.55 C 135.19 155.86 136.12 155.44 136.43 154.61 C 136.75 153.78 136.33 152.85 135.50 152.53 L 135.01 152.35 C 134.18 152.03 133.25 152.45 132.93 153.28 C 132.62 154.12 133.04 155.05 133.87 155.36 Z M 135.19 155.66 L 136.41 155.46 C 137.30 155.32 137.91 154.48 137.77 153.58 C 137.62 152.69 136.78 152.08 135.89 152.22 L 134.67 152.42 C 133.77 152.56 133.16 153.40 133.31 154.30 C 133.45 155.19 134.29 155.80 135.19 155.66 Z M 136.53 155.45 L 137.53 155.21 C 138.42 154.99 138.96 154.10 138.75 153.22 C 138.53 152.33 137.64 151.78 136.76 152.00 L 135.76 152.24 C 134.87 152.45 134.33 153.34 134.54 154.23 C 134.75 155.12 135.65 155.66 136.53 155.45 Z M 137.58 155.20 L 138.54 154.93 C 139.42 154.69 139.94 153.78 139.70 152.90 C 139.46 152.02 138.55 151.50 137.67 151.75 L 136.71 152.01 C 135.83 152.25 135.31 153.16 135.55 154.04 C 135.79 154.92 136.70 155.44 137.58 155.20 Z M 138.56 154.93 L 139.56 154.64 C 140.44 154.39 140.94 153.47 140.69 152.60 C 140.44 151.72 139.52 151.21 138.65 151.46 L 137.65 151.75 C 136.77 152.00 136.27 152.92 136.52 153.80 C 136.77 154.67 137.69 155.18 138.56 154.93 Z M 139.57 154.64 L 140.48 154.37 C 141.36 154.12 141.86 153.20 141.60 152.32 C 141.35 151.45 140.43 150.94 139.55 151.20 L 138.64 151.46 C 137.76 151.72 137.26 152.64 137.52 153.52 C 137.77 154.39 138.69 154.90 139.57 154.64 Z M 140.47 154.38 L 141.41 154.11 C 142.29 153.86 142.80 152.94 142.55 152.06 C 142.29 151.18 141.38 150.67 140.50 150.93 L 139.56 151.19 C 138.68 151.45 138.17 152.36 138.42 153.24 C 138.68 154.12 139.59 154.63 140.47 154.38 Z M 141.39 154.12 L 142.36 153.85 C 143.25 153.61 143.77 152.70 143.52 151.81 C 143.28 150.93 142.37 150.41 141.49 150.65 L 140.52 150.92 C 139.63 151.16 139.11 152.07 139.36 152.96 C 139.60 153.84 140.51 154.36 141.39 154.12 Z M 142.35 153.86 L 143.30 153.61 C 144.18 153.38 144.71 152.47 144.48 151.58 C 144.25 150.70 143.34 150.17 142.46 150.40 L 141.51 150.65 C 140.62 150.88 140.09 151.78 140.32 152.67 C 140.55 153.56 141.46 154.09 142.35 153.86 Z M 143.30 153.61 L 144.28 153.35 C 145.17 153.12 145.70 152.21 145.46 151.32 C 145.23 150.44 144.33 149.91 143.44 150.14 L 142.46 150.40 C 141.57 150.63 141.04 151.54 141.27 152.42 C 141.51 153.31 142.41 153.84 143.30 153.61 Z M 144.29 153.34 L 145.26 153.08 C 146.14 152.84 146.66 151.93 146.42 151.05 C 146.18 150.17 145.28 149.65 144.40 149.89 L 143.43 150.15 C 142.55 150.39 142.03 151.29 142.27 152.18 C 142.50 153.06 143.41 153.58 144.29 153.34 Z M 145.26 153.07 L 146.24 152.80 C 147.11 152.56 147.62 151.65 147.38 150.78 C 147.14 149.90 146.23 149.39 145.36 149.63 L 144.39 149.90 C 143.51 150.14 143.00 151.05 143.24 151.92 C 143.48 152.80 144.39 153.31 145.26 153.07 Z M 146.24 152.79 L 147.20 152.52 C 148.07 152.27 148.58 151.37 148.33 150.50 C 148.09 149.63 147.18 149.12 146.31 149.37 L 145.35 149.64 C 144.48 149.89 143.98 150.79 144.22 151.66 C 144.47 152.53 145.37 153.04 146.24 152.79 Z M 147.22 152.50 L 148.17 152.22 C 149.03 151.97 149.53 151.06 149.27 150.20 C 149.02 149.34 148.11 148.85 147.25 149.10 L 146.30 149.38 C 145.44 149.64 144.94 150.54 145.20 151.40 C 145.45 152.27 146.36 152.76 147.22 152.50 Z M 148.18 152.21 L 149.14 151.93 C 149.99 151.67 150.48 150.76 150.22 149.90 C 149.96 149.05 149.05 148.56 148.20 148.82 L 147.24 149.11 C 146.39 149.37 145.90 150.27 146.16 151.13 C 146.42 151.99 147.32 152.47 148.18 152.21 Z M 149.12 151.92 L 150.08 151.64 C 150.94 151.39 151.43 150.50 151.18 149.64 C 150.93 148.78 150.04 148.29 149.18 148.54 L 148.22 148.82 C 147.36 149.07 146.87 149.97 147.12 150.82 C 147.37 151.68 148.26 152.17 149.12 151.92 Z M 150.06 151.64 L 151.03 151.37 C 151.88 151.13 152.39 150.25 152.15 149.39 C 151.91 148.54 151.02 148.04 150.17 148.28 L 149.20 148.54 C 148.35 148.78 147.85 149.67 148.09 150.52 C 148.32 151.38 149.21 151.88 150.06 151.64 Z M 151.04 151.36 L 152.00 151.08 C 152.85 150.84 153.34 149.95 153.10 149.11 C 152.85 148.26 151.97 147.77 151.12 148.01 L 150.16 148.29 C 149.31 148.53 148.82 149.42 149.07 150.27 C 149.31 151.11 150.19 151.60 151.04 151.36 Z M 152.03 151.06 L 152.98 150.77 C 153.82 150.51 154.29 149.62 154.03 148.79 C 153.78 147.95 152.89 147.48 152.05 147.74 L 151.10 148.03 C 150.26 148.29 149.79 149.18 150.05 150.01 C 150.30 150.85 151.19 151.32 152.03 151.06 Z M 152.98 150.75 L 153.93 150.46 C 154.76 150.21 155.22 149.33 154.97 148.50 C 154.71 147.67 153.83 147.21 153.00 147.46 L 152.06 147.75 C 151.23 148.01 150.76 148.89 151.02 149.71 C 151.27 150.54 152.15 151.01 152.98 150.75 Z M 153.91 150.45 L 154.87 150.17 C 155.69 149.92 156.16 149.05 155.91 148.23 C 155.66 147.41 154.80 146.94 153.97 147.19 L 153.02 147.47 C 152.20 147.72 151.73 148.58 151.98 149.41 C 152.22 150.23 153.09 150.70 153.91 150.45 Z M 154.86 150.15 L 155.83 149.86 C 156.65 149.62 157.11 148.76 156.87 147.95 C 156.63 147.13 155.77 146.67 154.95 146.91 L 153.98 147.20 C 153.17 147.44 152.70 148.30 152.94 149.11 C 153.19 149.93 154.04 150.39 154.86 150.15 Z M 155.83 149.85 L 156.80 149.56 C 157.60 149.32 158.06 148.47 157.82 147.66 C 157.58 146.86 156.73 146.40 155.93 146.64 L 154.96 146.93 C 154.15 147.17 153.69 148.01 153.93 148.82 C 154.17 149.63 155.02 150.09 155.83 149.85 Z M 156.79 149.55 L 157.71 149.27 C 158.51 149.04 158.97 148.20 158.74 147.40 C 158.50 146.60 157.66 146.14 156.86 146.38 L 155.94 146.65 C 155.14 146.88 154.68 147.72 154.91 148.52 C 155.15 149.32 155.99 149.78 156.79 149.55 Z M 157.69 149.27 L 158.64 149.00 C 159.43 148.78 159.89 147.95 159.67 147.16 C 159.45 146.36 158.62 145.90 157.82 146.12 L 156.88 146.39 C 156.09 146.61 155.63 147.44 155.85 148.23 C 156.07 149.03 156.90 149.49 157.69 149.27 Z M 158.62 148.99 L 159.57 148.74 C 160.37 148.52 160.83 147.71 160.62 146.92 C 160.41 146.13 159.59 145.66 158.80 145.87 L 157.84 146.13 C 157.05 146.34 156.58 147.16 156.80 147.95 C 157.01 148.74 157.82 149.21 158.62 148.99 Z M 159.57 148.73 L 160.54 148.47 C 161.32 148.26 161.79 147.45 161.58 146.66 C 161.37 145.88 160.56 145.41 159.78 145.62 L 158.81 145.88 C 158.02 146.09 157.55 146.90 157.76 147.68 C 157.97 148.47 158.78 148.94 159.57 148.73 Z M 160.55 148.46 L 161.55 148.18 C 162.33 147.97 162.79 147.16 162.58 146.38 C 162.36 145.60 161.56 145.14 160.78 145.36 L 159.77 145.63 C 158.99 145.85 158.53 146.65 158.74 147.43 C 158.96 148.21 159.77 148.67 160.55 148.46 Z M 161.57 148.17 L 162.54 147.89 C 163.31 147.66 163.75 146.86 163.53 146.08 C 163.31 145.31 162.50 144.87 161.73 145.09 L 160.76 145.37 C 159.99 145.59 159.54 146.40 159.77 147.17 C 159.99 147.94 160.80 148.39 161.57 148.17 Z M 162.55 147.87 L 163.50 147.59 C 164.26 147.36 164.70 146.55 164.47 145.79 C 164.24 145.02 163.43 144.59 162.67 144.82 L 161.72 145.11 C 160.96 145.33 160.52 146.14 160.75 146.90 C 160.98 147.67 161.78 148.10 162.55 147.87 Z M 163.50 147.58 L 163.89 147.46 C 164.65 147.23 165.08 146.43 164.85 145.67 C 164.62 144.91 163.82 144.48 163.06 144.71 L 162.67 144.83 C 161.91 145.06 161.48 145.86 161.71 146.62 C 161.94 147.38 162.74 147.81 163.50 147.58 Z"
      fill="black"
      fill-rule="nonzero" /><path d="M 153.67 136.50 L 152.64 136.16 C 151.83 135.90 150.96 136.34 150.70 137.15 C 150.44 137.96 150.88 138.83 151.69 139.09 L 152.71 139.43 C 153.52 139.69 154.39 139.25 154.66 138.44 C 154.92 137.63 154.48 136.76 153.67 136.50 Z M 151.61 136.14 L 150.92 136.40 C 150.10 136.70 149.68 137.62 149.98 138.44 C 150.29 139.26 151.20 139.68 152.02 139.37 L 152.71 139.12 C 153.53 138.81 153.95 137.90 153.65 137.08 C 153.35 136.26 152.43 135.84 151.61 136.14 Z M 149.94 137.35 L 149.58 138.36 C 149.28 139.20 149.73 140.13 150.57 140.43 C 151.42 140.72 152.34 140.28 152.64 139.44 L 153.00 138.43 C 153.30 137.58 152.85 136.66 152.01 136.36 C 151.17 136.06 150.24 136.50 149.94 137.35 Z M 149.50 138.57 L 149.30 139.56 C 149.12 140.45 149.70 141.32 150.59 141.50 C 151.48 141.67 152.35 141.10 152.52 140.21 L 152.72 139.22 C 152.90 138.33 152.32 137.46 151.43 137.28 C 150.54 137.11 149.68 137.68 149.50 138.57 Z M 149.29 139.60 L 149.11 140.62 C 148.96 141.51 149.56 142.37 150.45 142.52 C 151.35 142.68 152.20 142.08 152.36 141.18 L 152.54 140.17 C 152.69 139.27 152.09 138.42 151.20 138.26 C 150.30 138.10 149.45 138.70 149.29 139.60 Z M 149.10 140.64 L 148.94 141.65 C 148.79 142.55 149.41 143.40 150.31 143.55 C 151.21 143.69 152.06 143.08 152.20 142.18 L 152.37 141.16 C 152.51 140.26 151.90 139.41 151.00 139.27 C 150.10 139.12 149.25 139.74 149.10 140.64 Z M 148.94 141.65 L 148.78 142.62 C 148.64 143.52 149.25 144.37 150.15 144.52 C 151.06 144.66 151.91 144.05 152.05 143.15 L 152.21 142.18 C 152.35 141.28 151.74 140.43 150.84 140.28 C 149.93 140.13 149.08 140.75 148.94 141.65 Z M 148.78 142.58 L 148.61 143.52 C 148.45 144.42 149.05 145.29 149.95 145.45 C 150.85 145.61 151.71 145.02 151.88 144.12 L 152.05 143.18 C 152.21 142.28 151.62 141.41 150.71 141.25 C 149.81 141.09 148.95 141.68 148.78 142.58 Z M 148.62 143.49 L 148.42 144.46 C 148.24 145.36 148.82 146.23 149.72 146.42 C 150.62 146.60 151.49 146.02 151.68 145.12 L 151.87 144.15 C 152.06 143.25 151.48 142.37 150.58 142.19 C 149.68 142.01 148.80 142.59 148.62 143.49 Z M 148.42 144.45 L 148.21 145.45 C 148.02 146.35 148.60 147.23 149.49 147.42 C 150.39 147.61 151.27 147.03 151.46 146.13 L 151.67 145.13 C 151.86 144.23 151.29 143.35 150.39 143.16 C 149.49 142.98 148.61 143.55 148.42 144.45 Z M 148.21 145.45 L 148.01 146.39 C 147.82 147.29 148.40 148.17 149.30 148.36 C 150.19 148.55 151.08 147.98 151.27 147.08 L 151.46 146.13 C 151.65 145.24 151.08 144.35 150.18 144.16 C 149.28 143.97 148.40 144.55 148.21 145.45 Z M 148.01 146.39 L 147.80 147.40 C 147.61 148.29 148.18 149.18 149.08 149.37 C 149.98 149.56 150.86 148.98 151.05 148.09 L 151.27 147.08 C 151.46 146.18 150.88 145.30 149.98 145.11 C 149.09 144.92 148.20 145.49 148.01 146.39 Z M 147.80 147.39 L 147.59 148.37 C 147.40 149.27 147.97 150.15 148.87 150.34 C 149.76 150.54 150.65 149.97 150.84 149.07 L 151.05 148.09 C 151.24 147.19 150.67 146.31 149.77 146.11 C 148.88 145.92 147.99 146.49 147.80 147.39 Z M 147.59 148.36 L 147.38 149.34 C 147.18 150.24 147.75 151.12 148.65 151.32 C 149.55 151.51 150.43 150.94 150.63 150.05 L 150.84 149.07 C 151.04 148.17 150.47 147.29 149.57 147.09 C 148.67 146.90 147.78 147.47 147.59 148.36 Z M 147.38 149.34 L 147.16 150.33 C 146.96 151.23 147.53 152.12 148.43 152.31 C 149.33 152.51 150.21 151.94 150.41 151.05 L 150.63 150.05 C 150.82 149.15 150.26 148.26 149.36 148.07 C 148.46 147.87 147.57 148.44 147.38 149.34 Z M 147.16 150.33 L 146.94 151.31 C 146.75 152.21 147.31 153.10 148.21 153.30 C 149.11 153.49 149.99 152.93 150.19 152.03 L 150.41 151.05 C 150.61 150.15 150.04 149.26 149.14 149.07 C 148.25 148.87 147.36 149.43 147.16 150.33 Z M 146.95 151.31 L 146.73 152.28 C 146.53 153.18 147.09 154.06 147.99 154.27 C 148.88 154.47 149.77 153.90 149.97 153.01 L 150.19 152.04 C 150.39 151.14 149.83 150.25 148.93 150.05 C 148.04 149.85 147.15 150.41 146.95 151.31 Z M 146.73 152.27 L 146.51 153.25 C 146.30 154.14 146.86 155.03 147.75 155.24 C 148.64 155.44 149.53 154.89 149.74 153.99 L 149.97 153.02 C 150.17 152.12 149.62 151.23 148.72 151.03 C 147.83 150.82 146.94 151.38 146.73 152.27 Z M 146.51 153.23 L 146.28 154.20 C 146.07 155.09 146.61 155.99 147.50 156.20 C 148.39 156.42 149.29 155.87 149.50 154.98 L 149.74 154.01 C 149.95 153.12 149.40 152.22 148.51 152.01 C 147.62 151.79 146.73 152.34 146.51 153.23 Z M 146.28 154.19 L 146.04 155.16 C 145.82 156.04 146.36 156.94 147.25 157.16 C 148.14 157.38 149.04 156.84 149.26 155.96 L 149.50 154.99 C 149.72 154.10 149.18 153.20 148.29 152.98 C 147.40 152.76 146.51 153.30 146.28 154.19 Z M 146.05 155.14 L 145.80 156.12 C 145.57 157.00 146.10 157.90 146.99 158.13 C 147.87 158.36 148.77 157.83 149.00 156.94 L 149.25 155.97 C 149.48 155.08 148.95 154.18 148.06 153.96 C 147.18 153.73 146.28 154.26 146.05 155.14 Z M 145.80 156.11 L 145.55 157.08 C 145.32 157.96 145.84 158.87 146.72 159.10 C 147.60 159.33 148.51 158.80 148.74 157.92 L 149.00 156.95 C 149.23 156.07 148.70 155.17 147.82 154.93 C 146.94 154.70 146.04 155.23 145.80 156.11 Z M 145.55 157.07 L 145.29 158.04 C 145.05 158.92 145.57 159.82 146.45 160.06 C 147.33 160.30 148.24 159.78 148.47 158.90 L 148.73 157.93 C 148.97 157.05 148.45 156.15 147.57 155.91 C 146.69 155.67 145.79 156.19 145.55 157.07 Z M 145.30 158.03 L 145.03 159.00 C 144.79 159.87 145.31 160.78 146.18 161.02 C 147.06 161.26 147.96 160.75 148.20 159.87 L 148.47 158.90 C 148.71 158.03 148.19 157.12 147.32 156.88 C 146.44 156.64 145.54 157.16 145.30 158.03 Z M 145.04 158.99 L 144.77 159.96 C 144.52 160.83 145.04 161.74 145.91 161.98 C 146.78 162.22 147.69 161.71 147.93 160.84 L 148.20 159.87 C 148.44 159.00 147.93 158.09 147.06 157.85 C 146.18 157.61 145.28 158.12 145.04 158.99 Z M 144.77 159.96 L 144.50 160.93 C 144.25 161.80 144.76 162.71 145.63 162.95 C 146.50 163.19 147.41 162.69 147.65 161.82 L 147.93 160.84 C 148.17 159.97 147.66 159.07 146.79 158.82 C 145.92 158.58 145.02 159.08 144.77 159.96 Z M 144.50 160.93 L 144.23 161.89 C 143.98 162.76 144.49 163.66 145.36 163.91 C 146.23 164.15 147.13 163.65 147.38 162.78 L 147.65 161.82 C 147.90 160.95 147.39 160.04 146.52 159.80 C 145.65 159.55 144.75 160.06 144.50 160.93 Z M 144.23 161.89 L 143.97 162.84 C 143.72 163.71 144.23 164.61 145.10 164.86 C 145.96 165.10 146.87 164.59 147.11 163.73 L 147.38 162.78 C 147.62 161.91 147.11 161.01 146.25 160.76 C 145.38 160.52 144.48 161.02 144.23 161.89 Z M 143.97 162.85 L 143.70 163.82 C 143.45 164.69 143.96 165.59 144.83 165.83 C 145.69 166.07 146.59 165.56 146.83 164.70 L 147.11 163.72 C 147.35 162.86 146.84 161.96 145.98 161.72 C 145.11 161.47 144.21 161.98 143.97 162.85 Z M 143.70 163.82 L 143.43 164.78 C 143.19 165.65 143.70 166.54 144.56 166.79 C 145.43 167.03 146.32 166.52 146.56 165.66 L 146.83 164.70 C 147.07 163.83 146.56 162.93 145.70 162.69 C 144.84 162.45 143.94 162.96 143.70 163.82 Z M 143.44 164.79 L 143.17 165.74 C 142.93 166.61 143.44 167.50 144.30 167.74 C 145.16 167.98 146.05 167.47 146.29 166.61 L 146.56 165.65 C 146.80 164.79 146.29 163.90 145.43 163.66 C 144.57 163.42 143.68 163.92 143.44 164.79 Z M 143.18 165.75 L 142.89 166.76 C 142.66 167.62 143.16 168.51 144.02 168.75 C 144.88 168.99 145.77 168.48 146.00 167.62 L 146.29 166.61 C 146.53 165.75 146.02 164.86 145.16 164.62 C 144.31 164.38 143.42 164.89 143.18 165.75 Z M 142.90 166.76 L 142.63 167.72 C 142.39 168.58 142.89 169.46 143.75 169.70 C 144.60 169.94 145.49 169.44 145.73 168.58 L 146.00 167.62 C 146.24 166.77 145.74 165.88 144.88 165.64 C 144.03 165.40 143.14 165.90 142.90 166.76 Z M 142.64 167.72 L 142.38 168.65 C 142.14 169.50 142.64 170.38 143.49 170.62 C 144.34 170.86 145.22 170.37 145.46 169.51 L 145.72 168.58 C 145.96 167.73 145.46 166.85 144.61 166.61 C 143.76 166.37 142.88 166.87 142.64 167.72 Z M 142.38 168.67 L 142.13 169.62 C 141.90 170.47 142.40 171.35 143.25 171.57 C 144.10 171.80 144.97 171.30 145.20 170.45 L 145.46 169.50 C 145.69 168.65 145.18 167.77 144.33 167.55 C 143.49 167.32 142.61 167.82 142.38 168.67 Z M 142.12 169.69 L 141.90 170.64 C 141.71 171.49 142.24 172.34 143.09 172.54 C 143.95 172.73 144.80 172.20 144.99 171.34 L 145.21 170.39 C 145.40 169.54 144.87 168.69 144.01 168.49 C 143.16 168.30 142.31 168.83 142.12 169.69 Z M 141.90 170.71 L 141.72 171.66 C 141.57 172.51 142.14 173.33 142.99 173.49 C 143.85 173.64 144.67 173.08 144.82 172.22 L 145.00 171.27 C 145.15 170.42 144.58 169.60 143.73 169.44 C 142.87 169.29 142.05 169.86 141.90 170.71 Z M 141.73 171.69 L 141.57 172.71 C 141.43 173.56 142.01 174.37 142.87 174.50 C 143.72 174.64 144.53 174.05 144.66 173.20 L 144.82 172.18 C 144.96 171.33 144.37 170.53 143.52 170.39 C 142.66 170.26 141.86 170.84 141.73 171.69 Z M 141.57 172.72 L 141.50 173.18 C 141.37 174.03 141.96 174.83 142.81 174.96 C 143.66 175.09 144.46 174.50 144.59 173.65 L 144.66 173.19 C 144.79 172.34 144.20 171.54 143.35 171.41 C 142.50 171.28 141.70 171.87 141.57 172.72 Z"
      fill="black"
      fill-rule="nonzero" /><path d="M 148.82 157.16 L 149.75 157.52 C 150.55 157.83 151.44 157.43 151.75 156.64 C 152.06 155.84 151.66 154.95 150.87 154.64 L 149.93 154.28 C 149.14 153.97 148.24 154.36 147.93 155.16 C 147.62 155.96 148.02 156.85 148.82 157.16 Z M 149.63 157.55 L 150.53 157.96 C 151.34 158.33 152.30 157.98 152.67 157.17 C 153.04 156.36 152.69 155.40 151.88 155.03 L 150.98 154.61 C 150.17 154.24 149.22 154.59 148.84 155.40 C 148.47 156.21 148.82 157.17 149.63 157.55 Z M 150.37 157.92 L 151.17 158.39 C 151.96 158.86 152.98 158.59 153.44 157.80 C 153.90 157.01 153.64 156.00 152.85 155.53 L 152.04 155.06 C 151.25 154.60 150.24 154.86 149.78 155.65 C 149.31 156.44 149.58 157.46 150.37 157.92 Z M 151.07 158.36 L 151.96 158.96 C 152.73 159.47 153.78 159.27 154.29 158.50 C 154.81 157.73 154.61 156.69 153.84 156.17 L 152.95 155.57 C 152.18 155.05 151.14 155.26 150.62 156.03 C 150.10 156.80 150.30 157.84 151.07 158.36 Z M 151.93 158.95 L 152.75 159.52 C 153.52 160.06 154.57 159.88 155.11 159.11 C 155.64 158.34 155.46 157.29 154.69 156.75 L 153.87 156.18 C 153.11 155.64 152.05 155.83 151.52 156.59 C 150.98 157.36 151.17 158.41 151.93 158.95 Z M 152.74 159.52 L 153.58 160.12 C 154.34 160.66 155.40 160.48 155.95 159.72 C 156.49 158.95 156.31 157.89 155.54 157.35 L 154.70 156.75 C 153.94 156.21 152.88 156.39 152.34 157.16 C 151.79 157.92 151.97 158.98 152.74 159.52 Z M 153.57 160.12 L 154.41 160.72 C 155.18 161.27 156.24 161.09 156.79 160.32 C 157.33 159.55 157.15 158.49 156.39 157.94 L 155.55 157.35 C 154.78 156.80 153.72 156.98 153.17 157.75 C 152.63 158.51 152.81 159.58 153.57 160.12 Z M 154.41 160.72 L 155.21 161.29 C 155.98 161.84 157.04 161.67 157.59 160.90 C 158.14 160.14 157.96 159.07 157.20 158.53 L 156.39 157.95 C 155.63 157.40 154.56 157.57 154.02 158.34 C 153.47 159.10 153.64 160.17 154.41 160.72 Z M 155.20 161.28 L 155.96 161.84 C 156.72 162.39 157.78 162.22 158.34 161.46 C 158.89 160.71 158.72 159.64 157.97 159.09 L 157.21 158.54 C 156.45 157.98 155.39 158.15 154.83 158.91 C 154.28 159.67 154.45 160.73 155.20 161.28 Z M 155.96 161.83 L 156.76 162.42 C 157.52 162.98 158.58 162.81 159.14 162.06 C 159.69 161.30 159.53 160.24 158.77 159.69 L 157.97 159.09 C 157.21 158.54 156.15 158.70 155.59 159.46 C 155.04 160.21 155.20 161.28 155.96 161.83 Z M 156.79 162.44 L 157.60 163.02 C 158.37 163.56 159.43 163.38 159.97 162.62 C 160.51 161.85 160.33 160.80 159.57 160.25 L 158.75 159.67 C 157.99 159.13 156.93 159.31 156.39 160.07 C 155.84 160.83 156.02 161.89 156.79 162.44 Z M 157.61 163.03 L 158.44 163.60 C 159.21 164.14 160.27 163.95 160.80 163.18 C 161.34 162.41 161.15 161.35 160.38 160.81 L 159.56 160.24 C 158.79 159.70 157.73 159.89 157.19 160.66 C 156.66 161.43 156.84 162.49 157.61 163.03 Z M 158.41 163.59 L 159.23 164.18 C 159.99 164.73 161.06 164.56 161.61 163.79 C 162.16 163.03 161.99 161.96 161.22 161.41 L 160.41 160.82 C 159.64 160.27 158.58 160.45 158.03 161.21 C 157.47 161.97 157.65 163.04 158.41 163.59 Z M 159.19 164.16 L 159.99 164.77 C 160.75 165.33 161.82 165.18 162.39 164.43 C 162.96 163.68 162.81 162.60 162.05 162.04 L 161.25 161.43 C 160.50 160.86 159.43 161.01 158.86 161.77 C 158.29 162.52 158.44 163.59 159.19 164.16 Z M 159.98 164.75 L 160.77 165.37 C 161.51 165.95 162.59 165.81 163.17 165.06 C 163.75 164.31 163.61 163.24 162.86 162.66 L 162.07 162.05 C 161.33 161.47 160.25 161.60 159.67 162.35 C 159.09 163.10 159.23 164.18 159.98 164.75 Z M 160.77 165.36 L 161.55 165.97 C 162.30 166.55 163.37 166.42 163.95 165.67 C 164.53 164.93 164.39 163.85 163.65 163.27 L 162.86 162.66 C 162.12 162.08 161.04 162.22 160.46 162.96 C 159.89 163.71 160.02 164.78 160.77 165.36 Z M 161.57 165.98 L 162.38 166.59 C 163.13 167.16 164.19 167.01 164.76 166.27 C 165.33 165.52 165.18 164.45 164.44 163.89 L 163.63 163.27 C 162.88 162.70 161.82 162.85 161.25 163.59 C 160.68 164.34 160.82 165.41 161.57 165.98 Z M 162.40 166.59 L 163.21 167.20 C 163.96 167.75 165.02 167.60 165.57 166.85 C 166.13 166.10 165.98 165.05 165.23 164.49 L 164.42 163.88 C 163.67 163.33 162.61 163.48 162.05 164.23 C 161.50 164.98 161.65 166.04 162.40 166.59 Z M 163.22 167.19 L 164.03 167.79 C 164.77 168.34 165.82 168.19 166.37 167.44 C 166.93 166.70 166.77 165.65 166.03 165.10 L 165.22 164.50 C 164.48 163.95 163.43 164.10 162.88 164.84 C 162.32 165.59 162.48 166.64 163.22 167.19 Z M 164.03 167.77 L 164.82 168.37 C 165.55 168.92 166.59 168.77 167.15 168.04 C 167.70 167.31 167.55 166.26 166.82 165.71 L 166.03 165.12 C 165.30 164.56 164.25 164.71 163.70 165.44 C 163.15 166.18 163.29 167.22 164.03 167.77 Z M 164.81 168.35 L 165.55 168.92 C 166.28 169.47 167.32 169.33 167.87 168.60 C 168.42 167.88 168.28 166.84 167.56 166.29 L 166.82 165.72 C 166.09 165.17 165.06 165.31 164.50 166.03 C 163.95 166.76 164.09 167.80 164.81 168.35 Z M 165.56 168.92 L 166.41 169.55 C 167.13 170.09 168.16 169.95 168.71 169.22 C 169.26 168.50 169.11 167.47 168.38 166.92 L 167.54 166.29 C 166.82 165.74 165.79 165.89 165.24 166.61 C 164.69 167.34 164.84 168.37 165.56 168.92 Z M 166.43 169.56 L 167.19 170.11 C 167.92 170.65 168.95 170.49 169.48 169.76 C 170.02 169.03 169.86 168.00 169.13 167.47 L 168.36 166.91 C 167.63 166.38 166.61 166.53 166.07 167.27 C 165.54 168.00 165.70 169.02 166.43 169.56 Z M 167.21 170.12 L 168.05 170.73 C 168.79 171.25 169.81 171.08 170.34 170.35 C 170.86 169.61 170.69 168.59 169.95 168.06 L 169.11 167.46 C 168.37 166.93 167.35 167.10 166.82 167.84 C 166.30 168.58 166.47 169.60 167.21 170.12 Z M 168.07 170.74 L 168.95 171.35 C 169.69 171.86 170.71 171.68 171.22 170.93 C 171.74 170.19 171.55 169.18 170.81 168.66 L 169.93 168.05 C 169.19 167.54 168.17 167.72 167.66 168.47 C 167.15 169.21 167.33 170.22 168.07 170.74 Z M 168.97 171.34 L 169.80 171.91 C 170.54 172.42 171.55 172.23 172.06 171.49 C 172.56 170.75 172.37 169.74 171.63 169.23 L 170.80 168.66 C 170.06 168.16 169.05 168.35 168.54 169.09 C 168.04 169.83 168.23 170.84 168.97 171.34 Z M 169.79 171.89 L 170.60 172.45 C 171.32 172.97 172.33 172.79 172.84 172.06 C 173.35 171.34 173.17 170.33 172.45 169.82 L 171.64 169.26 C 170.91 168.75 169.91 168.92 169.40 169.65 C 168.89 170.37 169.06 171.38 169.79 171.89 Z M 170.57 172.41 L 171.35 172.99 C 172.05 173.52 173.05 173.38 173.57 172.68 C 174.10 171.98 173.96 170.99 173.26 170.46 L 172.47 169.87 C 171.77 169.35 170.78 169.49 170.25 170.19 C 169.73 170.89 169.87 171.88 170.57 172.41 Z M 171.35 172.97 L 171.55 173.12 C 172.24 173.65 173.22 173.53 173.75 172.84 C 174.28 172.16 174.15 171.18 173.47 170.65 L 173.26 170.49 C 172.58 169.96 171.59 170.09 171.07 170.77 C 170.54 171.46 170.66 172.44 171.35 172.97 Z"
      fill="black"
      fill-rule="nonzero" /></svg>