<svg xmlns="http://www.w3.org/2000/svg" width="300" height="300" viewBox="0 0 300 300">
<path d="M 138.89 126.88 L 139.85 126.88 C 140.66 126.88 141.32 126.22 141.32 125.41 C 141.32 124.60 140.66 123.95 139.85 123.95 L 138.89 123.95 C 138.08 123.95 137.42 124.60 137.42 125.41 C 137.42 126.22 138.08 126.88 138.89 126.88 Z M 139.85 126.91 L 140.87 126.91 C 141.70 126.91 142.37 126.24 142.37 125.41 C 142.37 124.59 141.70 123.92 140.87 123.92 L 139.85 123.92 C 139.02 123.92 138.35 124.59 138.35 125.41 C 138.35 126.24 139.02 126.91 139.85 126.91 Z M 140.87 126.93 L 141.91 126.93 C 142.74 126.93 143.42 126.25 143.42 125.41 C 143.42 124.58 142.74 123.90 141.91 123.90 L 140.87 123.90 C 140.03 123.90 139.35 124.58 139.35 125.41 C 139.35 126.25 140.03 126.93 140.87 126.93 Z M 141.91 126.93 L 142.93 126.93 C 143.77 126.93 144.45 126.25 144.45 125.41 C 144.45 124.58 143.77 123.90 142.93 123.90 L 141.91 123.90 C 141.07 123.90 140.39 124.58 140.39 125.41 C 140.39 126.25 141.07 126.93 141.91 126.93 Z M 142.93 126.92 L 143.94 126.92 C 144.78 126.92 145.45 126.25 145.45 125.41 C 145.45 124.58 144.78 123.90 143.94 123.90 L 142.93 123.90 C 142.10 123.90 141.42 124.58 141.42 125.41 C 141.42 126.25 142.10 126.92 142.93 126.92 Z M 143.94 126.91 L 144.94 126.91 C 145.77 126.91 146.44 126.24 146.44 125.41 C 146.44 124.59 145.77 123.91 144.94 123.91 L 143.94 123.91 C 143.11 123.91 142.44 124.59 142.44 125.41 C 142.44 126.24 143.11 126.91 143.94 126.91 Z M 144.94 126.90 L 145.88 126.90 C 146.70 126.90 147.37 126.24 147.37 125.41 C 147.37 124.59 146.70 123.92 145.88 123.92 L 144.94 123.92 C 144.11 123.92 143.45 124.59 143.45 125.41 C 143.45 126.24 144.11 126.90 144.94 126.90 Z M 145.88 126.89 L 146.89 126.89 C 147.70 126.89 148.37 126.23 148.37 125.41 C 148.37 124.60 147.70 123.93 146.89 123.93 L 145.88 123.93 C 145.06 123.93 144.40 124.60 144.40 125.41 C 144.40 126.23 145.06 126.89 145.88 126.89 Z M 146.89 126.89 L 147.88 126.89 C 148.69 126.89 149.35 126.23 149.35 125.41 C 149.35 124.60 148.69 123.94 147.88 123.94 L 146.89 123.94 C 146.07 123.94 145.42 124.60 145.42 125.41 C 145.42 126.23 146.07 126.89 146.89 126.89 Z M 147.88 126.88 L 148.89 126.88 C 149.69 126.88 150.35 126.22 150.35 125.41 C 150.35 124.61 149.69 123.95 148.89 123.95 L 147.88 123.95 C 147.07 123.95 146.41 124.61 146.41 125.41 C 146.41 126.22 147.07 126.88 147.88 126.88 Z M 148.89 126.87 L 149.88 126.87 C 150.68 126.87 151.34 126.22 151.34 125.41 C 151.34 124.61 150.68 123.96 149.88 123.96 L 148.89 123.96 C 148.08 123.96 147.43 124.61 147.43 125.41 C 147.43 126.22 148.08 126.87 148.89 126.87 Z M 149.88 126.87 L 150.89 126.87 C 151.69 126.87 152.34 126.22 152.34 125.41 C 152.34 124.61 151.69 123.96 150.89 123.96 L 149.88 123.96 C 149.07 123.96 148.42 124.61 148.42 125.41 C 148.42 126.22 149.07 126.87 149.88 126.87 Z M 150.88 126.86 L 151.89 126.86 C 152.69 126.87 153.34 126.22 153.34 125.42 C 153.34 124.63 152.70 123.98 151.90 123.97 L 150.89 123.97 C 150.10 123.97 149.45 124.61 149.44 125.41 C 149.44 126.21 150.08 126.86 150.88 126.86 Z M 151.87 126.86 L 152.88 126.88 C 153.67 126.89 154.33 126.26 154.34 125.47 C 154.36 124.67 153.73 124.02 152.93 124.00 L 151.92 123.98 C 151.13 123.96 150.47 124.60 150.46 125.39 C 150.44 126.18 151.07 126.84 151.87 126.86 Z M 152.83 126.87 L 153.82 126.92 C 154.61 126.97 155.28 126.36 155.33 125.57 C 155.37 124.78 154.76 124.10 153.97 124.06 L 152.98 124.01 C 152.19 123.97 151.52 124.57 151.48 125.36 C 151.43 126.15 152.04 126.83 152.83 126.87 Z M 153.74 126.91 L 154.66 127.01 C 155.44 127.10 156.15 126.53 156.23 125.74 C 156.31 124.96 155.75 124.25 154.96 124.17 L 154.05 124.07 C 153.26 123.99 152.56 124.55 152.48 125.34 C 152.39 126.12 152.96 126.83 153.74 126.91 Z M 154.59 127.00 L 155.61 127.16 C 156.39 127.28 157.12 126.74 157.24 125.96 C 157.36 125.19 156.83 124.46 156.05 124.34 L 155.03 124.18 C 154.25 124.06 153.52 124.59 153.40 125.37 C 153.28 126.15 153.81 126.88 154.59 127.00 Z M 155.59 127.15 L 156.53 127.32 C 157.31 127.45 158.05 126.93 158.18 126.15 C 158.31 125.37 157.79 124.64 157.02 124.50 L 156.07 124.34 C 155.29 124.21 154.56 124.73 154.42 125.51 C 154.29 126.28 154.81 127.02 155.59 127.15 Z M 156.53 127.31 L 157.52 127.49 C 158.30 127.62 159.03 127.11 159.17 126.33 C 159.31 125.56 158.79 124.82 158.01 124.68 L 157.02 124.51 C 156.25 124.37 155.51 124.89 155.37 125.66 C 155.23 126.44 155.75 127.18 156.53 127.31 Z M 157.52 127.49 L 158.57 127.68 C 159.35 127.81 160.09 127.30 160.22 126.52 C 160.36 125.75 159.85 125.01 159.07 124.87 L 158.02 124.68 C 157.24 124.54 156.50 125.06 156.36 125.83 C 156.23 126.61 156.74 127.35 157.52 127.49 Z"
      fill="black"
      fill-rule="nonzero" /><path d="M 143.80 119.66 L 143.67 120.61 C 143.55 121.43 144.12 122.19 144.93 122.30 C 145.75 122.42 146.51 121.85 146.63 121.03 L 146.76 120.08 C 146.88 119.26 146.31 118.50 145.50 118.39 C 144.68 118.27 143.92 118.84 143.80 119.66 Z M 143.63 120.68 L 143.54 121.70 C 143.46 122.53 144.08 123.27 144.92 123.35 C 145.76 123.42 146.50 122.81 146.57 121.97 L 146.66 120.96 C 146.74 120.12 146.12 119.38 145.28 119.31 C 144.45 119.23 143.71 119.85 143.63 120.68 Z M 143.52 121.79 L 143.50 122.73 C 143.47 123.58 144.14 124.28 144.99 124.31 C 145.84 124.33 146.54 123.66 146.56 122.81 L 146.59 121.87 C 146.61 121.03 145.94 120.32 145.10 120.30 C 144.25 120.28 143.54 120.94 143.52 121.79 Z M 143.50 122.80 L 143.51 123.86 C 143.53 124.70 144.23 125.38 145.07 125.36 C 145.92 125.35 146.59 124.65 146.58 123.81 L 146.56 122.75 C 146.55 121.90 145.85 121.23 145.00 121.24 C 144.16 121.25 143.48 121.95 143.50 122.80 Z M 143.52 123.90 L 143.57 124.94 C 143.60 125.78 144.32 126.43 145.16 126.40 C 146.00 126.36 146.66 125.65 146.62 124.80 L 146.57 123.76 C 146.54 122.92 145.82 122.27 144.98 122.30 C 144.14 122.34 143.48 123.06 143.52 123.90 Z M 143.57 124.96 L 143.63 125.98 C 143.68 126.82 144.40 127.46 145.24 127.41 C 146.07 127.37 146.72 126.65 146.67 125.81 L 146.61 124.78 C 146.56 123.95 145.85 123.30 145.01 123.35 C 144.17 123.40 143.53 124.12 143.57 124.96 Z M 143.64 125.98 L 143.70 126.96 C 143.74 127.80 144.46 128.44 145.29 128.39 C 146.13 128.34 146.76 127.62 146.72 126.79 L 146.66 125.81 C 146.61 124.98 145.90 124.34 145.06 124.39 C 144.23 124.43 143.59 125.15 143.64 125.98 Z M 143.70 126.95 L 143.76 128.00 C 143.80 128.83 144.50 129.47 145.33 129.43 C 146.16 129.39 146.80 128.68 146.76 127.85 L 146.71 126.80 C 146.67 125.97 145.96 125.33 145.13 125.37 C 144.30 125.42 143.66 126.12 143.70 126.95 Z M 143.76 128.00 L 143.81 128.93 C 143.86 129.75 144.56 130.38 145.39 130.34 C 146.21 130.30 146.84 129.59 146.80 128.77 L 146.75 127.84 C 146.71 127.02 146.00 126.39 145.18 126.43 C 144.35 126.47 143.72 127.18 143.76 128.00 Z M 143.82 128.95 L 143.89 129.95 C 143.95 130.77 144.66 131.38 145.48 131.33 C 146.29 131.27 146.91 130.56 146.86 129.74 L 146.79 128.75 C 146.74 127.93 146.03 127.31 145.21 127.36 C 144.39 127.42 143.77 128.13 143.82 128.95 Z M 143.90 129.93 L 143.96 130.93 C 144.00 131.74 144.70 132.36 145.52 132.32 C 146.34 132.27 146.96 131.57 146.91 130.75 L 146.85 129.76 C 146.80 128.94 146.10 128.32 145.29 128.37 C 144.47 128.42 143.85 129.12 143.90 129.93 Z M 143.96 130.90 L 144.00 131.90 C 144.04 132.71 144.72 133.34 145.53 133.31 C 146.35 133.28 146.98 132.59 146.94 131.78 L 146.90 130.78 C 146.87 129.97 146.18 129.34 145.37 129.37 C 144.56 129.40 143.93 130.09 143.96 130.90 Z M 144.01 131.89 L 144.05 132.85 C 144.08 133.66 144.76 134.29 145.56 134.26 C 146.37 134.23 147.00 133.55 146.97 132.74 L 146.94 131.79 C 146.91 130.98 146.23 130.35 145.42 130.38 C 144.61 130.41 143.98 131.09 144.01 131.89 Z M 144.06 132.87 L 144.11 133.90 C 144.15 134.70 144.83 135.32 145.63 135.28 C 146.43 135.24 147.05 134.56 147.01 133.75 L 146.96 132.73 C 146.92 131.93 146.24 131.31 145.44 131.35 C 144.64 131.39 144.02 132.07 144.06 132.87 Z M 144.12 133.93 L 144.19 134.92 C 144.24 135.72 144.94 136.32 145.73 136.26 C 146.53 136.20 147.13 135.51 147.07 134.71 L 147.00 133.72 C 146.95 132.92 146.25 132.32 145.46 132.38 C 144.66 132.44 144.06 133.13 144.12 133.93 Z M 144.20 134.97 L 144.31 135.99 C 144.39 136.78 145.10 137.35 145.90 137.26 C 146.69 137.18 147.26 136.47 147.17 135.67 L 147.06 134.66 C 146.98 133.87 146.27 133.30 145.47 133.38 C 144.68 133.47 144.11 134.18 144.20 134.97 Z M 144.32 136.07 L 144.50 137.08 C 144.63 137.87 145.38 138.39 146.16 138.26 C 146.94 138.12 147.47 137.38 147.33 136.59 L 147.16 135.59 C 147.02 134.80 146.28 134.28 145.50 134.41 C 144.71 134.55 144.19 135.29 144.32 136.07 Z M 144.52 137.17 L 144.75 138.13 C 144.93 138.90 145.71 139.38 146.48 139.20 C 147.24 139.01 147.72 138.24 147.54 137.47 L 147.31 136.51 C 147.12 135.74 146.35 135.26 145.58 135.45 C 144.81 135.63 144.34 136.40 144.52 137.17 Z M 144.76 138.17 L 144.89 138.65 C 145.09 139.41 145.87 139.87 146.63 139.67 C 147.40 139.47 147.85 138.69 147.65 137.92 L 147.52 137.44 C 147.32 136.68 146.54 136.22 145.78 136.42 C 145.02 136.62 144.56 137.40 144.76 138.17 Z"
      fill="black"
      fill-rule="nonzero" /><path d="M 150.57 119.60 L 150.57 120.48 C 150.57 121.31 151.24 121.99 152.08 121.99 C 152.91 121.99 153.59 121.31 153.59 120.48 L 153.59 119.60 C 153.59 118.76 152.91 118.09 152.08 118.09 C 151.24 118.09 150.57 118.76 150.57 119.60 Z M 150.53 120.48 L 150.53 121.60 C 150.53 122.45 151.22 123.14 152.08 123.14 C 152.93 123.14 153.63 122.45 153.63 121.60 L 153.63 120.48 C 153.63 119.62 152.93 118.93 152.08 118.93 C 151.22 118.93 150.53 119.62 150.53 120.48 Z M 150.51 121.60 L 150.51 122.58 C 150.51 123.44 151.21 124.14 152.08 124.14 C 152.94 124.14 153.64 123.44 153.64 122.58 L 153.64 121.60 C 153.64 120.73 152.94 120.03 152.08 120.03 C 151.21 120.03 150.51 120.73 150.51 121.60 Z M 150.51 122.58 L 150.51 123.62 C 150.51 124.49 151.21 125.19 152.08 125.19 C 152.94 125.19 153.64 124.49 153.64 123.62 L 153.64 122.58 C 153.64 121.71 152.94 121.01 152.08 121.01 C 151.21 121.01 150.51 121.71 150.51 122.58 Z M 150.51 123.62 L 150.51 124.63 C 150.51 125.49 151.21 126.19 152.08 126.19 C 152.94 126.19 153.64 125.49 153.64 124.63 L 153.64 123.62 C 153.64 122.76 152.94 122.06 152.08 122.06 C 151.21 122.06 150.51 122.76 150.51 123.62 Z M 150.52 124.63 L 150.52 125.70 C 150.52 126.57 151.22 127.26 152.08 127.26 C 152.94 127.26 153.64 126.57 153.64 125.70 L 153.64 124.63 C 153.64 123.77 152.94 123.07 152.08 123.07 C 151.22 123.07 150.52 123.77 150.52 124.63 Z M 150.53 125.70 L 150.53 126.60 C 150.53 127.45 151.22 128.14 152.08 128.14 C 152.93 128.14 153.63 127.45 153.63 126.60 L 153.63 125.70 C 153.63 124.85 152.93 124.16 152.08 124.16 C 151.22 124.16 150.53 124.85 150.53 125.70 Z M 150.54 126.60 L 150.54 127.58 C 150.54 128.43 151.23 129.12 152.08 129.12 C 152.93 129.12 153.62 128.43 153.62 127.58 L 153.62 126.60 C 153.62 125.74 152.93 125.06 152.08 125.06 C 151.23 125.06 150.54 125.74 150.54 126.60 Z M 150.55 127.58 L 150.55 128.59 C 150.55 129.44 151.23 130.12 152.08 130.12 C 152.92 130.12 153.61 129.44 153.61 128.59 L 153.61 127.58 C 153.61 126.74 152.92 126.05 152.08 126.05 C 151.23 126.05 150.55 126.74 150.55 127.58 Z M 150.55 128.59 L 150.55 129.59 C 150.55 130.43 151.24 131.11 152.08 131.11 C 152.92 131.11 153.60 130.43 153.60 129.59 L 153.60 128.59 C 153.60 127.75 152.92 127.07 152.08 127.07 C 151.24 127.07 150.55 127.75 150.55 128.59 Z M 150.56 129.59 L 150.56 130.59 C 150.56 131.43 151.24 132.11 152.08 132.11 C 152.91 132.11 153.59 131.43 153.59 130.59 L 153.59 129.59 C 153.59 128.75 152.91 128.07 152.08 128.07 C 151.24 128.07 150.56 128.75 150.56 129.59 Z M 150.57 130.59 L 150.57 131.59 C 150.57 132.42 151.24 133.10 152.08 133.10 C 152.91 133.10 153.58 132.42 153.58 131.59 L 153.58 130.59 C 153.58 129.76 152.91 129.08 152.08 129.08 C 151.24 129.08 150.57 129.76 150.57 130.59 Z M 150.58 131.59 L 150.58 132.61 C 150.58 133.43 151.25 134.11 152.08 134.11 C 152.91 134.11 153.58 133.43 153.58 132.61 L 153.58 131.59 C 153.58 130.76 152.91 130.09 152.08 130.09 C 151.25 130.09 150.58 130.76 150.58 131.59 Z M 150.59 132.61 L 150.59 133.62 C 150.59 134.44 151.25 135.11 152.08 135.11 C 152.90 135.11 153.57 134.44 153.57 133.62 L 153.57 132.61 C 153.57 131.78 152.90 131.12 152.08 131.12 C 151.25 131.12 150.59 131.78 150.59 132.61 Z M 150.60 133.62 L 150.60 134.63 C 150.60 135.44 151.26 136.11 152.08 136.11 C 152.89 136.11 153.56 135.44 153.56 134.63 L 153.56 133.62 C 153.56 132.80 152.89 132.13 152.08 132.13 C 151.26 132.13 150.60 132.80 150.60 133.62 Z M 150.61 134.63 L 150.61 135.62 C 150.61 136.43 151.26 137.09 152.08 137.09 C 152.89 137.09 153.55 136.43 153.55 135.62 L 153.55 134.63 C 153.55 133.81 152.89 133.15 152.08 133.15 C 151.26 133.15 150.61 133.81 150.61 134.63 Z M 150.62 135.61 L 150.61 136.56 C 150.61 137.37 151.27 138.03 152.07 138.03 C 152.88 138.03 153.54 137.37 153.54 136.57 L 153.54 135.62 C 153.54 134.81 152.89 134.15 152.08 134.15 C 151.27 134.15 150.62 134.81 150.62 135.61 Z M 150.62 136.55 L 150.61 137.58 C 150.60 138.38 151.24 139.04 152.05 139.05 C 152.85 139.06 153.51 138.42 153.52 137.61 L 153.53 136.58 C 153.54 135.78 152.90 135.12 152.09 135.11 C 151.29 135.10 150.63 135.74 150.62 136.55 Z M 150.62 137.55 L 150.59 138.55 C 150.56 139.35 151.19 140.02 151.99 140.04 C 152.78 140.07 153.45 139.44 153.48 138.64 L 153.51 137.64 C 153.53 136.84 152.91 136.18 152.11 136.15 C 151.31 136.13 150.64 136.75 150.62 137.55 Z M 150.60 138.50 L 150.53 139.50 C 150.47 140.29 151.07 140.98 151.86 141.03 C 152.65 141.09 153.34 140.49 153.40 139.70 L 153.47 138.70 C 153.52 137.91 152.93 137.22 152.13 137.16 C 151.34 137.11 150.65 137.70 150.60 138.50 Z M 150.55 139.38 L 150.39 140.41 C 150.27 141.20 150.81 141.93 151.60 142.04 C 152.38 142.16 153.11 141.62 153.22 140.84 L 153.38 139.81 C 153.50 139.03 152.96 138.30 152.17 138.18 C 151.39 138.06 150.66 138.60 150.55 139.38 Z M 150.41 140.34 L 150.28 140.97 C 150.12 141.74 150.62 142.50 151.39 142.66 C 152.16 142.82 152.91 142.32 153.07 141.55 L 153.21 140.92 C 153.37 140.14 152.87 139.39 152.10 139.23 C 151.33 139.07 150.57 139.56 150.41 140.34 Z"
      fill="black"
      fill-rule="nonzero" /><path d="M 134.50 141.03 L 135.59 141.05 C 136.44 141.07 137.15 140.39 137.17 139.53 C 137.19 138.67 136.50 137.96 135.65 137.95 L 134.57 137.93 C 133.71 137.91 133.00 138.59 132.98 139.45 C 132.97 140.30 133.65 141.01 134.50 141.03 Z M 135.59 141.07 L 136.62 141.09 C 137.49 141.10 138.21 140.41 138.22 139.54 C 138.23 138.67 137.54 137.95 136.67 137.94 L 135.64 137.92 C 134.77 137.91 134.05 138.60 134.04 139.48 C 134.03 140.35 134.72 141.06 135.59 141.07 Z M 136.64 141.11 L 137.56 141.11 C 138.44 141.12 139.16 140.40 139.16 139.52 C 139.16 138.63 138.44 137.91 137.56 137.91 L 136.64 137.91 C 135.76 137.91 135.04 138.63 135.04 139.51 C 135.04 140.40 135.76 141.11 136.64 141.11 Z M 137.61 141.13 L 138.68 141.09 C 139.57 141.07 140.27 140.32 140.24 139.43 C 140.21 138.54 139.47 137.84 138.58 137.87 L 137.51 137.90 C 136.62 137.93 135.92 138.67 135.95 139.56 C 135.97 140.45 136.72 141.15 137.61 141.13 Z M 138.73 141.09 L 139.66 141.03 C 140.55 140.97 141.22 140.20 141.16 139.31 C 141.10 138.42 140.33 137.75 139.44 137.81 L 138.52 137.87 C 137.63 137.93 136.96 138.70 137.02 139.59 C 137.08 140.48 137.85 141.15 138.73 141.09 Z M 139.66 141.03 L 140.61 140.96 C 141.50 140.90 142.17 140.13 142.10 139.24 C 142.04 138.35 141.27 137.68 140.38 137.75 L 139.44 137.81 C 138.55 137.88 137.88 138.65 137.94 139.53 C 138.01 140.42 138.78 141.09 139.66 141.03 Z M 140.60 140.96 L 141.62 140.90 C 142.51 140.84 143.18 140.07 143.12 139.19 C 143.07 138.30 142.30 137.63 141.42 137.68 L 140.40 137.75 C 139.51 137.80 138.84 138.57 138.89 139.45 C 138.95 140.34 139.71 141.02 140.60 140.96 Z M 141.61 140.89 L 142.60 140.84 C 143.49 140.78 144.16 140.02 144.11 139.14 C 144.06 138.25 143.30 137.57 142.41 137.63 L 141.42 137.68 C 140.54 137.74 139.86 138.50 139.91 139.38 C 139.97 140.27 140.73 140.95 141.61 140.89 Z M 142.60 140.83 L 143.61 140.77 C 144.49 140.72 145.17 139.96 145.12 139.08 C 145.06 138.19 144.31 137.52 143.42 137.57 L 142.41 137.63 C 141.53 137.68 140.85 138.44 140.90 139.32 C 140.95 140.21 141.71 140.88 142.60 140.83 Z M 143.61 140.77 L 144.60 140.71 C 145.49 140.66 146.16 139.90 146.11 139.02 C 146.06 138.13 145.30 137.46 144.41 137.51 L 143.42 137.57 C 142.53 137.62 141.86 138.38 141.91 139.27 C 141.97 140.15 142.72 140.82 143.61 140.77 Z M 144.60 140.71 L 145.59 140.66 C 146.47 140.61 147.15 139.85 147.10 138.97 C 147.05 138.09 146.30 137.41 145.41 137.46 L 144.42 137.52 C 143.54 137.57 142.86 138.32 142.91 139.20 C 142.96 140.09 143.71 140.76 144.60 140.71 Z M 145.57 140.65 L 146.59 140.61 C 147.47 140.57 148.15 139.82 148.12 138.94 C 148.08 138.06 147.33 137.38 146.45 137.42 L 145.43 137.46 C 144.55 137.50 143.87 138.25 143.91 139.13 C 143.95 140.01 144.69 140.69 145.57 140.65 Z M 146.57 140.60 L 147.58 140.57 C 148.46 140.55 149.15 139.82 149.12 138.94 C 149.10 138.06 148.36 137.37 147.49 137.39 L 146.47 137.42 C 145.59 137.45 144.90 138.18 144.93 139.06 C 144.95 139.94 145.69 140.63 146.57 140.60 Z M 147.56 140.57 L 148.55 140.55 C 149.43 140.54 150.13 139.81 150.11 138.94 C 150.10 138.06 149.37 137.36 148.50 137.38 L 147.50 137.40 C 146.63 137.41 145.93 138.14 145.95 139.01 C 145.96 139.89 146.68 140.59 147.56 140.57 Z M 148.54 140.54 L 149.57 140.53 C 150.44 140.53 151.14 139.81 151.13 138.94 C 151.12 138.07 150.41 137.37 149.54 137.38 L 148.51 137.39 C 147.64 137.40 146.94 138.11 146.95 138.98 C 146.96 139.85 147.67 140.55 148.54 140.54 Z M 149.56 140.52 L 150.54 140.52 C 151.40 140.52 152.10 139.82 152.10 138.95 C 152.10 138.09 151.39 137.39 150.53 137.39 L 149.55 137.39 C 148.68 137.39 147.99 138.10 147.99 138.96 C 147.99 139.82 148.69 140.52 149.56 140.52 Z M 150.53 140.51 L 151.53 140.51 C 152.39 140.51 153.08 139.81 153.08 138.95 C 153.08 138.10 152.39 137.40 151.53 137.40 L 150.53 137.40 C 149.68 137.40 148.98 138.10 148.98 138.95 C 148.98 139.81 149.68 140.51 150.53 140.51 Z M 151.53 140.49 L 152.53 140.49 C 153.38 140.49 154.06 139.80 154.06 138.95 C 154.06 138.11 153.38 137.42 152.53 137.42 L 151.53 137.42 C 150.68 137.42 149.99 138.11 149.99 138.95 C 149.99 139.80 150.68 140.49 151.53 140.49 Z M 152.53 140.48 L 153.54 140.48 C 154.38 140.48 155.07 139.80 155.07 138.95 C 155.07 138.11 154.38 137.43 153.54 137.43 L 152.53 137.43 C 151.68 137.43 151.00 138.11 151.00 138.95 C 151.00 139.80 151.68 140.48 152.53 140.48 Z M 153.54 140.47 L 154.53 140.47 C 155.37 140.47 156.05 139.79 156.05 138.95 C 156.05 138.12 155.37 137.44 154.53 137.44 L 153.54 137.44 C 152.70 137.44 152.02 138.12 152.02 138.95 C 152.02 139.79 152.70 140.47 153.54 140.47 Z M 154.52 140.47 L 155.42 140.47 C 156.26 140.48 156.94 139.80 156.94 138.97 C 156.95 138.13 156.27 137.45 155.44 137.45 L 154.54 137.44 C 153.70 137.44 153.02 138.11 153.02 138.95 C 153.02 139.78 153.69 140.46 154.52 140.47 Z M 155.34 140.46 L 156.35 140.52 C 157.18 140.57 157.89 139.94 157.94 139.11 C 157.99 138.28 157.36 137.56 156.53 137.51 L 155.52 137.45 C 154.69 137.41 153.97 138.04 153.92 138.87 C 153.88 139.70 154.51 140.41 155.34 140.46 Z M 156.25 140.51 L 157.32 140.64 C 158.14 140.75 158.89 140.17 159.00 139.35 C 159.10 138.53 158.52 137.77 157.70 137.67 L 156.63 137.53 C 155.81 137.43 155.06 138.01 154.95 138.83 C 154.85 139.65 155.43 140.40 156.25 140.51 Z M 157.23 140.62 L 158.28 140.83 C 159.09 140.98 159.87 140.45 160.03 139.64 C 160.18 138.83 159.65 138.05 158.84 137.89 L 157.79 137.69 C 156.98 137.53 156.20 138.06 156.04 138.87 C 155.89 139.68 156.42 140.47 157.23 140.62 Z M 158.13 140.78 L 159.05 141.06 C 159.84 141.30 160.67 140.85 160.91 140.07 C 161.14 139.28 160.70 138.45 159.91 138.22 L 158.99 137.94 C 158.20 137.70 157.37 138.14 157.14 138.93 C 156.90 139.72 157.34 140.55 158.13 140.78 Z M 158.60 140.82 L 159.44 141.44 C 160.10 141.93 161.02 141.79 161.50 141.13 C 161.99 140.48 161.85 139.56 161.19 139.07 L 160.36 138.45 C 159.70 137.97 158.78 138.11 158.30 138.76 C 157.81 139.42 157.95 140.34 158.60 140.82 Z M 158.97 140.82 L 159.23 141.43 C 159.54 142.17 160.40 142.52 161.14 142.21 C 161.88 141.89 162.23 141.04 161.92 140.30 L 161.66 139.69 C 161.35 138.95 160.49 138.60 159.75 138.91 C 159.01 139.23 158.66 140.08 158.97 140.82 Z"
      fill="black"
      fill-rule="nonzero" /><path d="M 144.12 144.19 L 143.48 144.83 C 142.87 145.44 142.87 146.42 143.48 147.03 C 144.08 147.64 145.07 147.64 145.68 147.03 L 146.32 146.39 C 146.93 145.79 146.93 144.80 146.32 144.19 C 145.71 143.58 144.73 143.58 144.12 144.19 Z M 143.14 145.33 L 142.75 146.27 C 142.42 147.06 142.79 147.98 143.58 148.31 C 144.38 148.64 145.29 148.27 145.62 147.47 L 146.02 146.53 C 146.35 145.74 145.97 144.83 145.18 144.49 C 144.39 144.16 143.47 144.54 143.14 145.33 Z M 142.64 146.68 L 142.53 147.55 C 142.42 148.41 143.02 149.19 143.88 149.30 C 144.73 149.41 145.52 148.80 145.62 147.95 L 145.73 147.07 C 145.84 146.21 145.24 145.43 144.38 145.32 C 143.53 145.21 142.75 145.82 142.64 146.68 Z M 142.51 147.70 L 142.48 148.75 C 142.45 149.61 143.12 150.33 143.99 150.36 C 144.85 150.39 145.57 149.71 145.60 148.85 L 145.64 147.80 C 145.67 146.94 144.99 146.22 144.13 146.19 C 143.26 146.16 142.54 146.83 142.51 147.70 Z M 142.47 148.80 L 142.48 149.93 C 142.48 150.79 143.18 151.49 144.05 151.49 C 144.91 151.49 145.61 150.78 145.61 149.92 L 145.61 148.79 C 145.60 147.93 144.90 147.23 144.03 147.23 C 143.17 147.23 142.47 147.94 142.47 148.80 Z M 142.48 149.94 L 142.49 150.98 C 142.50 151.84 143.21 152.54 144.07 152.53 C 144.94 152.52 145.63 151.81 145.62 150.94 L 145.61 149.91 C 145.60 149.04 144.89 148.35 144.03 148.36 C 143.16 148.37 142.47 149.08 142.48 149.94 Z M 142.49 150.98 L 142.50 152.01 C 142.52 152.87 143.23 153.56 144.09 153.55 C 144.96 153.54 145.65 152.83 145.64 151.96 L 145.62 150.94 C 145.61 150.07 144.90 149.38 144.03 149.40 C 143.17 149.41 142.48 150.12 142.49 150.98 Z M 142.51 152.01 L 142.52 152.98 C 142.54 153.85 143.25 154.53 144.11 154.52 C 144.98 154.50 145.67 153.79 145.65 152.93 L 145.64 151.96 C 145.62 151.09 144.91 150.40 144.04 150.42 C 143.18 150.44 142.49 151.15 142.51 152.01 Z M 142.53 152.99 L 142.55 154.03 C 142.56 154.90 143.28 155.58 144.14 155.56 C 145.00 155.55 145.69 154.83 145.67 153.97 L 145.65 152.92 C 145.63 152.06 144.92 151.37 144.06 151.39 C 143.19 151.41 142.51 152.12 142.53 152.99 Z M 142.55 154.03 L 142.57 155.05 C 142.59 155.90 143.30 156.59 144.16 156.57 C 145.02 156.55 145.70 155.84 145.69 154.98 L 145.67 153.97 C 145.65 153.11 144.94 152.43 144.08 152.45 C 143.22 152.46 142.53 153.18 142.55 154.03 Z M 142.58 155.04 L 142.60 155.95 C 142.61 156.80 143.32 157.49 144.17 157.47 C 145.03 157.46 145.71 156.75 145.70 155.89 L 145.68 154.98 C 145.66 154.13 144.96 153.45 144.10 153.46 C 143.25 153.48 142.57 154.18 142.58 155.04 Z M 142.61 155.94 L 142.62 156.97 C 142.63 157.82 143.33 158.50 144.18 158.49 C 145.03 158.48 145.71 157.78 145.70 156.93 L 145.69 155.90 C 145.68 155.05 144.98 154.37 144.13 154.38 C 143.27 154.39 142.59 155.09 142.61 155.94 Z M 142.63 157.01 L 142.67 157.99 C 142.70 158.83 143.41 159.49 144.26 159.46 C 145.10 159.42 145.76 158.71 145.73 157.87 L 145.69 156.89 C 145.66 156.04 144.94 155.39 144.10 155.42 C 143.26 155.45 142.60 156.16 142.63 157.01 Z M 142.69 158.08 L 142.79 159.08 C 142.88 159.91 143.62 160.52 144.45 160.43 C 145.29 160.35 145.89 159.60 145.81 158.77 L 145.71 157.77 C 145.62 156.94 144.88 156.33 144.04 156.42 C 143.21 156.50 142.60 157.25 142.69 158.08 Z M 142.82 159.15 L 142.97 160.13 C 143.10 160.95 143.87 161.51 144.68 161.39 C 145.50 161.26 146.07 160.49 145.94 159.67 L 145.78 158.69 C 145.66 157.87 144.89 157.31 144.07 157.44 C 143.25 157.57 142.69 158.33 142.82 159.15 Z M 142.98 160.15 L 143.02 160.40 C 143.16 161.21 143.93 161.76 144.74 161.62 C 145.56 161.48 146.10 160.71 145.97 159.90 L 145.92 159.65 C 145.79 158.84 145.02 158.29 144.20 158.43 C 143.39 158.57 142.84 159.34 142.98 160.15 Z"
      fill="black"
      fill-rule="nonzero" /><path d="M 145.74 147.75 L 146.71 147.93 C 147.52 148.08 148.31 147.55 148.46 146.73 C 148.60 145.92 148.07 145.14 147.25 144.99 L 146.28 144.81 C 145.47 144.66 144.69 145.20 144.54 146.01 C 144.39 146.82 144.92 147.60 145.74 147.75 Z M 146.41 147.86 L 147.32 148.24 C 148.09 148.56 148.98 148.19 149.30 147.42 C 149.62 146.64 149.25 145.76 148.48 145.44 L 147.56 145.06 C 146.79 144.74 145.90 145.11 145.58 145.88 C 145.26 146.66 145.63 147.54 146.41 147.86 Z M 146.97 148.04 L 147.75 148.65 C 148.41 149.16 149.37 149.04 149.88 148.38 C 150.40 147.71 150.27 146.76 149.61 146.25 L 148.83 145.64 C 148.16 145.13 147.21 145.25 146.70 145.91 C 146.18 146.57 146.30 147.53 146.97 148.04 Z M 147.58 148.48 L 148.27 149.22 C 148.84 149.83 149.79 149.86 150.40 149.29 C 151.01 148.72 151.05 147.76 150.48 147.15 L 149.79 146.42 C 149.22 145.81 148.26 145.77 147.65 146.34 C 147.04 146.91 147.01 147.87 147.58 148.48 Z M 148.16 149.09 L 148.75 149.87 C 149.25 150.54 150.19 150.68 150.86 150.18 C 151.53 149.68 151.67 148.74 151.17 148.07 L 150.58 147.28 C 150.08 146.62 149.14 146.48 148.47 146.98 C 147.80 147.47 147.66 148.42 148.16 149.09 Z M 148.67 149.76 L 149.19 150.61 C 149.62 151.33 150.55 151.55 151.26 151.12 C 151.97 150.69 152.20 149.76 151.77 149.05 L 151.25 148.19 C 150.82 147.48 149.89 147.25 149.18 147.68 C 148.47 148.12 148.24 149.04 148.67 149.76 Z M 149.14 150.52 L 149.58 151.38 C 149.96 152.13 150.86 152.42 151.61 152.04 C 152.35 151.66 152.64 150.76 152.26 150.02 L 151.82 149.15 C 151.44 148.41 150.54 148.11 149.79 148.49 C 149.05 148.87 148.76 149.77 149.14 150.52 Z M 149.54 151.30 L 149.95 152.25 C 150.28 153.01 151.17 153.37 151.93 153.04 C 152.69 152.71 153.04 151.82 152.72 151.06 L 152.30 150.10 C 151.98 149.34 151.09 148.99 150.33 149.32 C 149.56 149.65 149.21 150.53 149.54 151.30 Z M 149.92 152.17 L 150.25 153.09 C 150.53 153.87 151.40 154.27 152.18 153.99 C 152.96 153.71 153.36 152.84 153.08 152.06 L 152.75 151.14 C 152.46 150.36 151.60 149.96 150.82 150.24 C 150.04 150.52 149.64 151.39 149.92 152.17 Z M 150.23 153.01 L 150.52 153.97 C 150.76 154.77 151.60 155.21 152.40 154.97 C 153.19 154.73 153.64 153.89 153.40 153.10 L 153.10 152.14 C 152.86 151.34 152.02 150.90 151.23 151.14 C 150.43 151.38 149.99 152.22 150.23 153.01 Z M 150.50 153.91 L 150.76 154.90 C 150.96 155.71 151.78 156.19 152.58 155.99 C 153.39 155.78 153.87 154.96 153.67 154.16 L 153.41 153.16 C 153.21 152.36 152.39 151.87 151.59 152.08 C 150.78 152.28 150.30 153.10 150.50 153.91 Z M 150.74 154.84 L 150.95 155.84 C 151.13 156.65 151.92 157.17 152.73 157.00 C 153.55 156.82 154.06 156.03 153.89 155.22 L 153.68 154.22 C 153.51 153.41 152.71 152.89 151.90 153.06 C 151.09 153.23 150.57 154.03 150.74 154.84 Z M 150.94 155.78 L 151.11 156.77 C 151.25 157.58 152.03 158.13 152.85 157.99 C 153.66 157.85 154.21 157.07 154.07 156.26 L 153.90 155.27 C 153.76 154.46 152.99 153.91 152.17 154.05 C 151.35 154.19 150.80 154.96 150.94 155.78 Z M 151.10 156.70 L 151.23 157.67 C 151.34 158.49 152.09 159.07 152.91 158.97 C 153.73 158.86 154.31 158.11 154.21 157.29 L 154.08 156.32 C 153.97 155.50 153.22 154.92 152.40 155.02 C 151.58 155.13 151.00 155.88 151.10 156.70 Z M 151.22 157.60 L 151.30 158.57 C 151.37 159.40 152.09 160.01 152.92 159.94 C 153.75 159.87 154.36 159.15 154.29 158.33 L 154.21 157.36 C 154.14 156.53 153.42 155.92 152.59 155.98 C 151.77 156.05 151.16 156.78 151.22 157.60 Z M 151.30 158.51 L 151.34 159.53 C 151.38 160.36 152.08 161.00 152.90 160.97 C 153.73 160.93 154.37 160.23 154.34 159.41 L 154.29 158.39 C 154.26 157.56 153.56 156.92 152.73 156.95 C 151.91 156.99 151.27 157.68 151.30 158.51 Z M 151.34 159.49 L 151.36 160.53 C 151.37 161.36 152.05 162.02 152.87 162.01 C 153.70 162.00 154.36 161.32 154.35 160.50 L 154.33 159.45 C 154.32 158.62 153.65 157.96 152.82 157.97 C 151.99 157.98 151.33 158.66 151.34 159.49 Z M 151.36 160.46 L 151.33 161.50 C 151.30 162.32 151.94 163.01 152.76 163.04 C 153.59 163.07 154.28 162.43 154.31 161.61 L 154.34 160.57 C 154.37 159.74 153.73 159.05 152.91 159.02 C 152.08 159.00 151.39 159.64 151.36 160.46 Z M 151.34 161.34 L 151.21 162.29 C 151.10 163.10 151.66 163.85 152.47 163.97 C 153.29 164.08 154.04 163.52 154.15 162.70 L 154.29 161.76 C 154.40 160.95 153.84 160.20 153.03 160.08 C 152.21 159.97 151.46 160.53 151.34 161.34 Z M 151.33 161.92 L 150.92 162.88 C 150.60 163.62 150.95 164.49 151.70 164.80 C 152.44 165.12 153.31 164.77 153.63 164.03 L 154.03 163.07 C 154.35 162.32 154.01 161.46 153.26 161.14 C 152.51 160.82 151.65 161.17 151.33 161.92 Z M 151.11 162.60 L 150.77 163.06 C 150.30 163.70 150.44 164.60 151.09 165.08 C 151.73 165.55 152.63 165.41 153.11 164.76 L 153.44 164.31 C 153.91 163.66 153.77 162.76 153.13 162.29 C 152.48 161.82 151.58 161.96 151.11 162.60 Z"
      fill="black"
      fill-rule="nonzero" /><path d="M 143.04 155.72 L 144.00 155.72 C 144.83 155.72 145.51 155.04 145.51 154.20 C 145.51 153.37 144.83 152.69 144.00 152.69 L 143.04 152.69 C 142.21 152.69 141.53 153.37 141.53 154.20 C 141.53 155.04 142.21 155.72 143.04 155.72 Z M 144.00 155.73 L 145.02 155.73 C 145.87 155.73 146.55 155.05 146.55 154.20 C 146.55 153.36 145.87 152.68 145.02 152.68 L 144.00 152.68 C 143.15 152.68 142.47 153.36 142.47 154.20 C 142.47 155.05 143.15 155.73 144.00 155.73 Z M 145.02 155.72 L 146.03 155.72 C 146.87 155.72 147.54 155.04 147.54 154.20 C 147.54 153.37 146.87 152.69 146.03 152.69 L 145.02 152.69 C 144.19 152.69 143.51 153.37 143.51 154.20 C 143.51 155.04 144.19 155.72 145.02 155.72 Z M 146.03 155.69 L 147.06 155.69 C 147.87 155.69 148.54 155.02 148.54 154.20 C 148.54 153.39 147.88 152.72 147.06 152.72 L 146.03 152.72 C 145.21 152.72 144.55 153.39 144.55 154.20 C 144.55 155.02 145.21 155.69 146.03 155.69 Z M 147.05 155.66 L 148.07 155.67 C 148.87 155.67 149.53 155.02 149.53 154.22 C 149.53 153.41 148.88 152.76 148.08 152.75 L 147.06 152.75 C 146.26 152.74 145.60 153.39 145.60 154.20 C 145.59 155.00 146.24 155.66 147.05 155.66 Z M 148.04 155.65 L 149.01 155.67 C 149.80 155.69 150.46 155.07 150.48 154.27 C 150.50 153.48 149.88 152.82 149.08 152.80 L 148.11 152.77 C 147.32 152.75 146.66 153.38 146.64 154.17 C 146.61 154.97 147.24 155.63 148.04 155.65 Z M 148.97 155.66 L 149.97 155.72 C 150.75 155.76 151.43 155.16 151.47 154.37 C 151.52 153.58 150.91 152.91 150.13 152.86 L 149.13 152.81 C 148.34 152.76 147.66 153.37 147.62 154.15 C 147.58 154.94 148.18 155.62 148.97 155.66 Z M 149.95 155.71 L 150.53 155.75 C 151.31 155.81 151.99 155.21 152.05 154.43 C 152.10 153.64 151.51 152.96 150.72 152.91 L 150.14 152.87 C 149.36 152.81 148.68 153.41 148.62 154.19 C 148.57 154.98 149.16 155.66 149.95 155.71 Z"
      fill="black"
      fill-rule="nonzero" /><path d="M 140.96 165.01 L 141.89 165.33 C 142.69 165.60 143.55 165.18 143.83 164.39 C 144.10 163.59 143.68 162.73 142.89 162.45 L 141.95 162.13 C 141.16 161.86 140.29 162.28 140.02 163.07 C 139.74 163.87 140.16 164.73 140.96 165.01 Z M 142.00 165.38 L 142.98 165.64 C 143.80 165.85 144.64 165.36 144.86 164.53 C 145.07 163.71 144.58 162.87 143.76 162.65 L 142.78 162.40 C 141.95 162.18 141.11 162.68 140.90 163.50 C 140.68 164.33 141.18 165.17 142.00 165.38 Z M 143.15 165.67 L 144.09 165.80 C 144.93 165.92 145.71 165.33 145.82 164.49 C 145.94 163.65 145.35 162.87 144.51 162.75 L 143.58 162.62 C 142.74 162.50 141.96 163.09 141.84 163.93 C 141.73 164.77 142.31 165.55 143.15 165.67 Z M 144.19 165.78 L 145.22 165.85 C 146.05 165.91 146.77 165.28 146.83 164.46 C 146.89 163.63 146.26 162.91 145.44 162.85 L 144.41 162.77 C 143.58 162.72 142.86 163.34 142.80 164.17 C 142.74 165.00 143.37 165.72 144.19 165.78 Z M 145.25 165.83 L 146.29 165.88 C 147.11 165.93 147.81 165.30 147.85 164.48 C 147.89 163.67 147.27 162.97 146.45 162.93 L 145.41 162.87 C 144.59 162.83 143.90 163.45 143.85 164.27 C 143.81 165.08 144.43 165.78 145.25 165.83 Z M 146.29 165.87 L 147.32 165.92 C 148.13 165.97 148.82 165.35 148.86 164.54 C 148.91 163.73 148.29 163.04 147.48 163.00 L 146.45 162.94 C 145.65 162.90 144.96 163.52 144.91 164.33 C 144.87 165.13 145.49 165.82 146.29 165.87 Z M 147.31 165.91 L 148.31 165.97 C 149.11 166.02 149.80 165.41 149.85 164.61 C 149.90 163.81 149.29 163.12 148.49 163.07 L 147.49 163.01 C 146.69 162.96 146.00 163.57 145.95 164.37 C 145.90 165.17 146.51 165.86 147.31 165.91 Z M 148.29 165.96 L 149.29 166.03 C 150.08 166.10 150.77 165.50 150.83 164.71 C 150.89 163.92 150.30 163.23 149.51 163.16 L 148.51 163.09 C 147.72 163.02 147.03 163.62 146.96 164.41 C 146.90 165.20 147.49 165.89 148.29 165.96 Z M 149.25 166.02 L 150.19 166.12 C 150.97 166.20 151.67 165.63 151.76 164.85 C 151.84 164.06 151.27 163.36 150.48 163.28 L 149.55 163.18 C 148.76 163.10 148.06 163.67 147.98 164.45 C 147.89 165.23 148.46 165.94 149.25 166.02 Z M 150.16 166.11 L 151.16 166.23 C 151.94 166.33 152.65 165.77 152.75 164.99 C 152.84 164.21 152.29 163.50 151.50 163.40 L 150.51 163.28 C 149.73 163.19 149.02 163.74 148.92 164.53 C 148.83 165.31 149.38 166.02 150.16 166.11 Z M 151.16 166.23 L 151.24 166.24 C 152.02 166.34 152.73 165.79 152.83 165.00 C 152.93 164.22 152.37 163.51 151.59 163.41 L 151.51 163.40 C 150.73 163.31 150.02 163.86 149.92 164.64 C 149.82 165.42 150.38 166.13 151.16 166.23 Z"
      fill="black"
      fill-rule="nonzero" /></svg>