<svg xmlns="http://www.w3.org/2000/svg" width="300" height="300" viewBox="0 0 300 300">
<path d="M 148.05 121.60 L 147.07 121.52 C 146.21 121.45 145.45 122.09 145.38 122.95 C 145.30 123.81 145.94 124.57 146.80 124.64 L 147.79 124.72 C 148.65 124.80 149.41 124.16 149.48 123.30 C 149.56 122.43 148.92 121.68 148.05 121.60 Z M 146.72 121.52 L 145.75 121.66 C 144.89 121.77 144.29 122.57 144.41 123.43 C 144.53 124.28 145.32 124.89 146.18 124.77 L 147.15 124.64 C 148.01 124.52 148.61 123.73 148.49 122.87 C 148.37 122.01 147.58 121.41 146.72 121.52 Z M 145.40 121.75 L 144.47 122.11 C 143.66 122.42 143.26 123.33 143.57 124.14 C 143.88 124.94 144.79 125.35 145.60 125.04 L 146.53 124.68 C 147.34 124.36 147.74 123.46 147.43 122.65 C 147.12 121.84 146.21 121.44 145.40 121.75 Z M 144.37 122.16 L 143.51 122.56 C 142.73 122.93 142.40 123.86 142.77 124.64 C 143.14 125.42 144.07 125.75 144.85 125.39 L 145.70 124.99 C 146.48 124.62 146.81 123.69 146.45 122.91 C 146.08 122.13 145.15 121.79 144.37 122.16 Z M 143.52 122.57 L 142.65 122.98 C 141.88 123.34 141.54 124.27 141.91 125.05 C 142.28 125.82 143.21 126.16 143.98 125.79 L 144.85 125.38 C 145.62 125.01 145.95 124.09 145.59 123.31 C 145.22 122.53 144.29 122.20 143.52 122.57 Z M 142.67 122.97 L 141.68 123.43 C 140.90 123.78 140.56 124.70 140.91 125.48 C 141.27 126.26 142.19 126.60 142.97 126.25 L 143.96 125.79 C 144.74 125.44 145.08 124.52 144.73 123.74 C 144.37 122.96 143.45 122.62 142.67 122.97 Z M 141.69 123.42 L 140.82 123.81 C 140.04 124.16 139.69 125.07 140.03 125.86 C 140.38 126.64 141.30 126.99 142.08 126.64 L 142.95 126.25 C 143.73 125.90 144.08 124.99 143.74 124.21 C 143.39 123.43 142.48 123.08 141.69 123.42 Z M 140.83 123.81 L 139.88 124.22 C 139.10 124.57 138.74 125.48 139.08 126.26 C 139.43 127.04 140.34 127.40 141.12 127.06 L 142.07 126.64 C 142.85 126.30 143.20 125.39 142.86 124.61 C 142.52 123.83 141.61 123.47 140.83 123.81 Z M 139.89 124.22 L 138.94 124.63 C 138.16 124.97 137.79 125.87 138.13 126.66 C 138.46 127.44 139.37 127.80 140.15 127.47 L 141.11 127.06 C 141.89 126.72 142.25 125.82 141.92 125.03 C 141.58 124.25 140.68 123.89 139.89 124.22 Z M 138.95 124.63 L 137.92 125.06 C 137.13 125.39 136.77 126.29 137.09 127.08 C 137.42 127.86 138.32 128.23 139.11 127.90 L 140.14 127.47 C 140.92 127.14 141.29 126.24 140.96 125.45 C 140.64 124.67 139.73 124.30 138.95 124.63 Z M 137.93 125.06 L 136.98 125.46 C 136.20 125.78 135.82 126.67 136.14 127.46 C 136.47 128.24 137.36 128.61 138.15 128.29 L 139.10 127.90 C 139.88 127.58 140.25 126.68 139.93 125.90 C 139.61 125.12 138.71 124.74 137.93 125.06 Z M 136.98 125.46 L 136.17 125.79 C 135.39 126.11 135.02 127.00 135.34 127.78 C 135.66 128.56 136.55 128.94 137.33 128.62 L 138.14 128.29 C 138.92 127.97 139.29 127.08 138.97 126.30 C 138.66 125.51 137.76 125.14 136.98 125.46 Z M 136.17 125.80 L 135.18 126.21 C 134.41 126.53 134.04 127.42 134.36 128.20 C 134.68 128.97 135.57 129.34 136.35 129.02 L 137.34 128.61 C 138.11 128.29 138.48 127.40 138.16 126.62 C 137.84 125.85 136.95 125.48 136.17 125.80 Z M 135.19 126.21 L 134.36 126.55 C 133.59 126.86 133.21 127.75 133.53 128.53 C 133.85 129.31 134.74 129.68 135.52 129.36 L 136.34 129.02 C 137.12 128.70 137.49 127.82 137.17 127.04 C 136.86 126.26 135.97 125.89 135.19 126.21 Z M 134.39 126.54 L 133.52 126.87 C 132.74 127.17 132.35 128.05 132.65 128.84 C 132.95 129.62 133.83 130.01 134.61 129.71 L 135.49 129.37 C 136.27 129.07 136.66 128.19 136.36 127.41 C 136.06 126.62 135.18 126.23 134.39 126.54 Z M 133.53 126.87 L 132.55 127.24 C 131.77 127.53 131.37 128.41 131.66 129.19 C 131.96 129.98 132.83 130.37 133.62 130.08 L 134.60 129.71 C 135.38 129.42 135.78 128.54 135.49 127.76 C 135.19 126.97 134.32 126.57 133.53 126.87 Z M 132.56 127.23 L 131.61 127.58 C 130.83 127.88 130.43 128.75 130.72 129.54 C 131.01 130.32 131.88 130.72 132.67 130.43 L 133.61 130.08 C 134.40 129.79 134.80 128.92 134.51 128.13 C 134.22 127.34 133.34 126.94 132.56 127.23 Z M 131.63 127.58 L 130.66 127.92 C 129.87 128.20 129.46 129.07 129.74 129.86 C 130.02 130.65 130.89 131.07 131.68 130.78 L 132.65 130.44 C 133.44 130.16 133.86 129.29 133.57 128.50 C 133.29 127.71 132.42 127.29 131.63 127.58 Z M 130.70 127.91 L 129.69 128.24 C 128.90 128.50 128.46 129.36 128.72 130.16 C 128.99 130.96 129.85 131.39 130.64 131.13 L 131.65 130.80 C 132.45 130.54 132.88 129.68 132.62 128.88 C 132.36 128.08 131.50 127.64 130.70 127.91 Z M 129.74 128.22 L 128.82 128.49 C 128.01 128.72 127.55 129.57 127.78 130.37 C 128.01 131.18 128.86 131.65 129.67 131.42 L 130.59 131.15 C 131.40 130.91 131.87 130.07 131.63 129.26 C 131.40 128.45 130.55 127.98 129.74 128.22 Z M 128.88 128.47 L 127.69 128.76 C 126.87 128.97 126.37 129.80 126.57 130.62 C 126.78 131.43 127.61 131.93 128.42 131.73 L 129.61 131.43 C 130.43 131.23 130.93 130.40 130.73 129.58 C 130.52 128.76 129.69 128.26 128.88 128.47 Z M 126.83 129.33 L 126.78 129.40 C 126.27 130.08 126.42 131.04 127.09 131.54 C 127.77 132.05 128.73 131.90 129.23 131.23 L 129.28 131.16 C 129.79 130.48 129.65 129.52 128.97 129.02 C 128.29 128.52 127.33 128.66 126.83 129.33 Z M 128.13 131.85 L 129.35 131.75 C 130.20 131.68 130.83 130.94 130.76 130.09 C 130.69 129.25 129.95 128.62 129.11 128.68 L 127.88 128.78 C 127.04 128.85 126.41 129.59 126.47 130.44 C 126.54 131.28 127.28 131.91 128.13 131.85 Z M 129.12 131.76 L 130.11 131.83 C 130.96 131.89 131.70 131.25 131.76 130.40 C 131.82 129.55 131.18 128.81 130.33 128.75 L 129.34 128.68 C 128.49 128.61 127.75 129.25 127.69 130.10 C 127.63 130.95 128.27 131.69 129.12 131.76 Z M 129.64 131.72 L 130.54 132.09 C 131.33 132.41 132.24 132.03 132.56 131.24 C 132.88 130.45 132.50 129.54 131.71 129.22 L 130.81 128.85 C 130.01 128.53 129.11 128.91 128.78 129.70 C 128.46 130.50 128.84 131.40 129.64 131.72 Z M 130.18 131.89 L 130.98 132.51 C 131.66 133.03 132.64 132.90 133.16 132.22 C 133.69 131.53 133.56 130.56 132.87 130.03 L 132.07 129.42 C 131.39 128.90 130.41 129.03 129.89 129.71 C 129.36 130.39 129.49 131.37 130.18 131.89 Z M 130.81 132.36 L 131.52 133.09 C 132.13 133.71 133.12 133.72 133.73 133.11 C 134.35 132.51 134.36 131.52 133.76 130.90 L 133.04 130.17 C 132.44 129.56 131.45 129.55 130.83 130.15 C 130.21 130.76 130.21 131.75 130.81 132.36 Z M 131.39 132.95 L 131.99 133.73 C 132.51 134.42 133.50 134.55 134.19 134.03 C 134.88 133.50 135.01 132.51 134.48 131.82 L 133.89 131.04 C 133.36 130.35 132.38 130.22 131.69 130.75 C 131.00 131.27 130.86 132.26 131.39 132.95 Z M 131.87 133.57 L 132.36 134.41 C 132.80 135.16 133.76 135.42 134.52 134.98 C 135.27 134.54 135.53 133.58 135.09 132.83 L 134.60 131.98 C 134.16 131.23 133.19 130.98 132.44 131.41 C 131.69 131.85 131.43 132.82 131.87 133.57 Z M 132.28 134.27 L 132.70 135.18 C 133.05 135.98 133.99 136.34 134.79 135.98 C 135.58 135.62 135.94 134.68 135.58 133.88 L 135.17 132.97 C 134.81 132.17 133.87 131.82 133.07 132.18 C 132.28 132.54 131.92 133.47 132.28 134.27 Z M 132.65 135.07 L 132.97 135.98 C 133.27 136.81 134.18 137.24 135.01 136.94 C 135.83 136.64 136.26 135.73 135.96 134.91 L 135.63 134.00 C 135.33 133.17 134.42 132.74 133.60 133.04 C 132.77 133.34 132.35 134.25 132.65 135.07 Z M 132.94 135.89 L 133.23 136.88 C 133.47 137.73 134.35 138.21 135.20 137.97 C 136.04 137.72 136.53 136.84 136.28 136.00 L 135.99 135.00 C 135.75 134.16 134.87 133.67 134.02 133.92 C 133.18 134.16 132.69 135.04 132.94 135.89 Z M 133.20 136.80 L 133.42 137.73 C 133.61 138.59 134.47 139.12 135.33 138.92 C 136.19 138.73 136.72 137.87 136.52 137.01 L 136.31 136.08 C 136.11 135.22 135.25 134.69 134.40 134.89 C 133.54 135.08 133.00 135.94 133.20 136.80 Z M 133.39 137.64 L 133.57 138.66 C 133.72 139.53 134.55 140.11 135.42 139.96 C 136.29 139.81 136.87 138.99 136.72 138.11 L 136.55 137.10 C 136.40 136.23 135.57 135.64 134.70 135.79 C 133.83 135.94 133.24 136.77 133.39 137.64 Z M 133.55 138.57 L 133.67 139.61 C 133.77 140.49 134.56 141.12 135.44 141.02 C 136.32 140.92 136.96 140.13 136.86 139.24 L 136.74 138.21 C 136.64 137.33 135.85 136.69 134.96 136.79 C 134.08 136.89 133.45 137.69 133.55 138.57 Z M 133.66 139.53 L 133.73 140.56 C 133.79 141.45 134.56 142.12 135.44 142.05 C 136.33 141.99 137.00 141.23 136.94 140.34 L 136.87 139.31 C 136.81 138.43 136.04 137.76 135.15 137.82 C 134.27 137.88 133.60 138.65 133.66 139.53 Z M 133.73 140.52 L 133.77 141.48 C 133.80 142.37 134.55 143.06 135.44 143.03 C 136.32 142.99 137.01 142.24 136.98 141.35 L 136.94 140.39 C 136.90 139.50 136.16 138.81 135.27 138.84 C 134.38 138.88 133.69 139.63 133.73 140.52 Z M 133.76 141.45 L 133.79 142.50 C 133.80 143.39 134.54 144.09 135.43 144.08 C 136.31 144.06 137.02 143.32 137.00 142.43 L 136.98 141.39 C 136.96 140.50 136.23 139.79 135.34 139.81 C 134.45 139.83 133.75 140.56 133.76 141.45 Z M 133.78 142.48 L 133.79 143.43 C 133.79 144.32 134.52 145.04 135.41 145.03 C 136.29 145.03 137.01 144.30 137.01 143.41 L 137.00 142.46 C 137.00 141.57 136.27 140.85 135.39 140.86 C 134.50 140.86 133.78 141.59 133.78 142.48 Z M 133.79 143.42 L 133.79 144.38 C 133.79 145.27 134.51 145.99 135.40 145.99 C 136.29 145.99 137.01 145.27 137.01 144.38 L 137.01 143.42 C 137.01 142.53 136.29 141.81 135.40 141.81 C 134.51 141.81 133.79 142.53 133.79 143.42 Z M 133.79 144.38 L 133.79 145.39 C 133.79 146.28 134.51 147.00 135.40 147.00 C 136.29 147.00 137.01 146.28 137.01 145.39 L 137.01 144.38 C 137.01 143.49 136.29 142.77 135.40 142.77 C 134.51 142.77 133.79 143.49 133.79 144.38 Z M 133.79 145.39 L 133.79 146.38 C 133.79 147.27 134.51 147.99 135.40 147.99 C 136.29 147.99 137.01 147.27 137.01 146.38 L 137.01 145.39 C 137.01 144.50 136.29 143.78 135.40 143.78 C 134.51 143.78 133.79 144.50 133.79 145.39 Z M 133.79 146.37 L 133.78 147.36 C 133.78 148.25 134.49 148.97 135.38 148.98 C 136.27 148.99 136.99 148.27 137.00 147.38 L 137.01 146.39 C 137.01 145.50 136.30 144.78 135.41 144.77 C 134.52 144.76 133.80 145.48 133.79 146.37 Z M 133.78 147.34 L 133.76 148.36 C 133.74 149.25 134.44 149.98 135.33 150.00 C 136.22 150.02 136.95 149.32 136.97 148.43 L 137.00 147.41 C 137.02 146.52 136.31 145.79 135.43 145.77 C 134.54 145.75 133.80 146.45 133.78 147.34 Z M 133.76 148.33 L 133.72 149.32 C 133.68 150.21 134.37 150.96 135.25 151.00 C 136.14 151.03 136.89 150.35 136.93 149.46 L 136.97 148.47 C 137.01 147.58 136.32 146.83 135.44 146.79 C 134.55 146.75 133.80 147.44 133.76 148.33 Z M 133.72 149.29 L 133.66 150.29 C 133.60 151.18 134.27 151.94 135.15 152.00 C 136.04 152.06 136.80 151.39 136.86 150.51 L 136.92 149.50 C 136.98 148.61 136.31 147.85 135.43 147.79 C 134.55 147.73 133.78 148.40 133.72 149.29 Z M 133.66 150.25 L 133.57 151.26 C 133.48 152.14 134.13 152.92 135.01 153.01 C 135.89 153.09 136.68 152.44 136.76 151.56 L 136.85 150.55 C 136.94 149.67 136.29 148.89 135.41 148.80 C 134.53 148.72 133.74 149.37 133.66 150.25 Z M 133.57 151.21 L 133.45 152.20 C 133.34 153.08 133.96 153.88 134.84 153.99 C 135.72 154.10 136.52 153.48 136.63 152.60 L 136.75 151.61 C 136.86 150.73 136.24 149.93 135.36 149.82 C 134.48 149.71 133.68 150.33 133.57 151.21 Z M 133.45 152.16 L 133.31 153.14 C 133.17 154.02 133.78 154.84 134.65 154.97 C 135.53 155.10 136.35 154.49 136.48 153.62 L 136.63 152.64 C 136.76 151.76 136.15 150.95 135.28 150.81 C 134.40 150.68 133.58 151.29 133.45 152.16 Z M 133.31 153.11 L 133.14 154.09 C 132.99 154.97 133.57 155.80 134.45 155.95 C 135.32 156.10 136.16 155.51 136.31 154.64 L 136.48 153.65 C 136.63 152.78 136.04 151.95 135.17 151.80 C 134.29 151.65 133.46 152.23 133.31 153.11 Z M 133.14 154.06 L 132.96 155.05 C 132.79 155.92 133.36 156.76 134.23 156.93 C 135.11 157.09 135.95 156.52 136.12 155.65 L 136.30 154.67 C 136.47 153.79 135.90 152.95 135.02 152.79 C 134.15 152.62 133.31 153.19 133.14 154.06 Z M 132.96 155.03 L 132.76 156.01 C 132.58 156.88 133.14 157.73 134.02 157.91 C 134.89 158.08 135.74 157.52 135.91 156.65 L 136.11 155.67 C 136.29 154.80 135.73 153.95 134.86 153.77 C 133.98 153.59 133.13 154.16 132.96 155.03 Z M 132.76 156.00 L 132.55 156.98 C 132.37 157.85 132.93 158.70 133.80 158.89 C 134.67 159.07 135.52 158.51 135.71 157.64 L 135.91 156.66 C 136.10 155.79 135.54 154.94 134.67 154.75 C 133.80 154.57 132.94 155.13 132.76 156.00 Z M 132.55 156.97 L 132.34 157.94 C 132.15 158.81 132.71 159.67 133.58 159.86 C 134.45 160.05 135.31 159.50 135.49 158.63 L 135.71 157.65 C 135.89 156.78 135.34 155.92 134.47 155.73 C 133.60 155.55 132.74 156.10 132.55 156.97 Z M 132.34 157.94 L 132.12 158.93 C 131.93 159.80 132.48 160.66 133.35 160.85 C 134.22 161.04 135.08 160.49 135.27 159.62 L 135.49 158.63 C 135.69 157.76 135.14 156.90 134.27 156.71 C 133.40 156.52 132.54 157.07 132.34 157.94 Z M 132.13 158.91 L 131.90 159.87 C 131.70 160.74 132.24 161.61 133.11 161.81 C 133.98 162.01 134.84 161.47 135.05 160.61 L 135.27 159.64 C 135.47 158.77 134.93 157.90 134.06 157.70 C 133.20 157.50 132.33 158.04 132.13 158.91 Z M 131.91 159.85 L 131.67 160.81 C 131.45 161.68 131.97 162.55 132.84 162.77 C 133.70 162.99 134.58 162.46 134.80 161.60 L 135.04 160.63 C 135.26 159.77 134.73 158.89 133.87 158.68 C 133.00 158.46 132.13 158.98 131.91 159.85 Z M 131.67 160.79 L 131.42 161.75 C 131.19 162.62 131.70 163.50 132.57 163.73 C 133.43 163.96 134.31 163.44 134.54 162.58 L 134.79 161.62 C 135.02 160.76 134.51 159.87 133.64 159.64 C 132.78 159.42 131.90 159.93 131.67 160.79 Z M 131.41 161.76 L 131.16 162.74 C 130.93 163.60 131.45 164.48 132.31 164.71 C 133.18 164.94 134.06 164.42 134.28 163.56 L 134.54 162.58 C 134.77 161.71 134.25 160.83 133.39 160.60 C 132.52 160.38 131.64 160.89 131.41 161.76 Z M 131.16 162.75 L 130.90 163.74 C 130.68 164.60 131.20 165.48 132.07 165.70 C 132.93 165.92 133.81 165.40 134.03 164.54 L 134.29 163.55 C 134.51 162.68 133.99 161.80 133.12 161.58 C 132.26 161.36 131.38 161.88 131.16 162.75 Z M 130.90 163.72 L 130.65 164.67 C 130.42 165.53 130.94 166.42 131.80 166.65 C 132.67 166.88 133.55 166.36 133.78 165.50 L 134.03 164.55 C 134.26 163.69 133.75 162.80 132.88 162.57 C 132.02 162.34 131.13 162.86 130.90 163.72 Z M 130.66 164.63 L 130.37 165.63 C 130.12 166.49 130.62 167.39 131.47 167.64 C 132.33 167.89 133.23 167.39 133.48 166.54 L 133.77 165.54 C 134.02 164.68 133.53 163.78 132.67 163.53 C 131.81 163.28 130.91 163.77 130.66 164.63 Z M 130.39 165.59 L 130.10 166.46 C 129.83 167.31 130.29 168.23 131.14 168.50 C 131.99 168.78 132.91 168.31 133.18 167.46 L 133.47 166.58 C 133.74 165.73 133.27 164.82 132.42 164.54 C 131.57 164.27 130.66 164.74 130.39 165.59 Z M 130.12 166.41 L 129.80 167.29 C 129.50 168.13 129.94 169.06 130.78 169.36 C 131.62 169.66 132.55 169.23 132.85 168.39 L 133.16 167.51 C 133.47 166.67 133.03 165.74 132.19 165.44 C 131.35 165.14 130.42 165.57 130.12 166.41 Z M 129.82 167.24 L 129.43 168.23 C 129.10 169.06 129.51 170.00 130.34 170.33 C 131.17 170.66 132.11 170.25 132.44 169.42 L 132.83 168.43 C 133.16 167.60 132.75 166.66 131.92 166.34 C 131.09 166.01 130.15 166.41 129.82 167.24 Z M 129.45 168.19 L 129.05 169.12 C 128.69 169.94 129.07 170.89 129.89 171.25 C 130.71 171.60 131.66 171.22 132.02 170.40 L 132.42 169.47 C 132.77 168.65 132.40 167.70 131.58 167.34 C 130.76 166.99 129.81 167.37 129.45 168.19 Z M 129.09 169.03 L 128.63 169.95 C 128.22 170.75 128.54 171.72 129.34 172.12 C 130.14 172.52 131.11 172.20 131.51 171.41 L 131.97 170.49 C 132.38 169.69 132.06 168.72 131.26 168.32 C 130.46 167.92 129.49 168.24 129.09 169.03 Z M 128.76 169.74 L 128.06 170.71 C 127.54 171.43 127.71 172.44 128.44 172.96 C 129.16 173.48 130.17 173.31 130.69 172.59 L 131.38 171.62 C 131.90 170.89 131.73 169.89 131.01 169.37 C 130.28 168.85 129.28 169.01 128.76 169.74 Z M 128.70 170.19 L 128.04 170.49 C 127.24 170.87 126.89 171.82 127.26 172.63 C 127.64 173.43 128.59 173.78 129.40 173.41 L 130.05 173.10 C 130.86 172.73 131.21 171.77 130.83 170.97 C 130.46 170.16 129.50 169.81 128.70 170.19 Z M 130.15 171.32 L 129.83 170.58 C 129.48 169.79 128.55 169.44 127.76 169.79 C 126.97 170.14 126.61 171.06 126.96 171.85 L 127.29 172.58 C 127.64 173.37 128.56 173.73 129.35 173.38 C 130.14 173.03 130.50 172.11 130.15 171.32 Z M 129.89 171.10 L 129.80 169.96 C 129.73 169.14 129.01 168.52 128.18 168.59 C 127.36 168.66 126.74 169.38 126.81 170.21 L 126.90 171.34 C 126.97 172.17 127.69 172.78 128.52 172.71 C 129.34 172.65 129.96 171.92 129.89 171.10 Z M 129.77 170.05 L 129.74 169.06 C 129.73 168.25 129.06 167.61 128.25 167.63 C 127.44 167.65 126.80 168.32 126.82 169.13 L 126.84 170.12 C 126.86 170.92 127.53 171.56 128.34 171.55 C 129.14 171.53 129.78 170.86 129.77 170.05 Z M 129.72 169.09 L 129.72 168.06 C 129.71 167.27 129.07 166.63 128.27 166.63 C 127.48 166.63 126.84 167.28 126.84 168.07 L 126.84 169.10 C 126.85 169.89 127.49 170.53 128.29 170.53 C 129.08 170.53 129.72 169.88 129.72 169.09 Z"
      fill="black"
      fill-rule="nonzero" /><path d="M 135.98 133.53 L 137.02 133.35 C 137.85 133.20 138.41 132.41 138.27 131.58 C 138.12 130.75 137.33 130.19 136.50 130.34 L 135.46 130.52 C 134.63 130.66 134.08 131.45 134.22 132.28 C 134.36 133.11 135.15 133.67 135.98 133.53 Z M 137.01 133.36 L 138.01 133.20 C 138.84 133.06 139.41 132.27 139.28 131.43 C 139.14 130.59 138.35 130.03 137.51 130.16 L 136.51 130.33 C 135.68 130.46 135.11 131.25 135.24 132.09 C 135.38 132.93 136.17 133.50 137.01 133.36 Z M 137.98 133.21 L 138.91 133.08 C 139.75 132.96 140.34 132.17 140.22 131.33 C 140.10 130.48 139.31 129.90 138.47 130.02 L 137.54 130.15 C 136.70 130.27 136.11 131.05 136.23 131.90 C 136.35 132.74 137.13 133.33 137.98 133.21 Z M 138.85 133.09 L 139.84 132.98 C 140.69 132.90 141.31 132.14 141.22 131.29 C 141.13 130.44 140.37 129.82 139.52 129.90 L 138.53 130.01 C 137.68 130.10 137.06 130.86 137.15 131.71 C 137.24 132.56 138.00 133.18 138.85 133.09 Z M 139.77 132.99 L 140.74 132.93 C 141.60 132.88 142.25 132.16 142.20 131.30 C 142.15 130.45 141.42 129.80 140.57 129.85 L 139.60 129.90 C 138.75 129.95 138.09 130.68 138.14 131.53 C 138.19 132.38 138.92 133.03 139.77 132.99 Z M 140.69 132.93 L 141.70 132.91 C 142.55 132.89 143.23 132.18 143.21 131.33 C 143.19 130.48 142.48 129.81 141.63 129.83 L 140.62 129.85 C 139.77 129.87 139.10 130.58 139.12 131.43 C 139.14 132.28 139.84 132.95 140.69 132.93 Z M 141.67 132.90 L 142.70 132.90 C 143.55 132.90 144.24 132.21 144.24 131.36 C 144.24 130.51 143.55 129.83 142.70 129.83 L 141.67 129.83 C 140.82 129.83 140.13 130.52 140.13 131.37 C 140.13 132.22 140.82 132.91 141.67 132.90 Z M 142.66 132.90 L 143.66 132.93 C 144.51 132.95 145.21 132.28 145.23 131.43 C 145.25 130.58 144.58 129.88 143.73 129.85 L 142.74 129.83 C 141.89 129.81 141.18 130.48 141.16 131.33 C 141.14 132.18 141.81 132.88 142.66 132.90 Z M 143.58 132.92 L 144.66 133.00 C 145.51 133.06 146.24 132.43 146.30 131.58 C 146.37 130.74 145.73 130.01 144.89 129.94 L 143.81 129.86 C 142.97 129.80 142.23 130.43 142.17 131.28 C 142.11 132.12 142.74 132.86 143.58 132.92 Z M 144.51 132.97 L 145.43 133.14 C 146.26 133.28 147.06 132.73 147.20 131.90 C 147.35 131.07 146.80 130.28 145.97 130.13 L 145.04 129.97 C 144.21 129.82 143.42 130.37 143.27 131.20 C 143.13 132.03 143.68 132.83 144.51 132.97 Z M 145.19 133.07 L 146.09 133.39 C 146.88 133.67 147.75 133.25 148.03 132.46 C 148.31 131.67 147.90 130.80 147.11 130.52 L 146.21 130.20 C 145.42 129.92 144.55 130.33 144.27 131.12 C 143.99 131.92 144.40 132.79 145.19 133.07 Z M 145.73 133.20 L 146.55 133.77 C 147.24 134.25 148.19 134.08 148.67 133.39 C 149.14 132.70 148.97 131.76 148.29 131.28 L 147.46 130.71 C 146.77 130.23 145.83 130.40 145.35 131.09 C 144.87 131.77 145.04 132.72 145.73 133.20 Z M 146.24 133.49 L 146.82 134.20 C 147.35 134.85 148.31 134.95 148.96 134.42 C 149.61 133.89 149.71 132.93 149.18 132.28 L 148.60 131.57 C 148.07 130.92 147.11 130.82 146.46 131.35 C 145.81 131.88 145.71 132.84 146.24 133.49 Z M 146.62 133.88 L 147.07 134.84 C 147.42 135.60 148.32 135.93 149.09 135.58 C 149.85 135.22 150.18 134.32 149.82 133.56 L 149.38 132.60 C 149.03 131.84 148.12 131.51 147.36 131.86 C 146.60 132.22 146.27 133.12 146.62 133.88 Z M 146.96 134.53 L 147.18 135.51 C 147.36 136.32 148.17 136.84 148.99 136.66 C 149.81 136.48 150.33 135.67 150.15 134.85 L 149.93 133.87 C 149.75 133.05 148.94 132.54 148.12 132.72 C 147.30 132.90 146.78 133.71 146.96 134.53 Z M 147.15 135.29 L 147.22 136.31 C 147.28 137.14 148.01 137.77 148.85 137.71 C 149.68 137.65 150.31 136.92 150.25 136.09 L 150.18 135.07 C 150.12 134.23 149.39 133.60 148.55 133.66 C 147.72 133.72 147.09 134.45 147.15 135.29 Z M 147.22 136.12 L 147.17 137.14 C 147.13 137.98 147.77 138.69 148.61 138.73 C 149.45 138.77 150.16 138.13 150.20 137.29 L 150.25 136.27 C 150.29 135.44 149.65 134.73 148.81 134.68 C 147.98 134.64 147.26 135.29 147.22 136.12 Z M 147.21 136.93 L 147.02 137.92 C 146.85 138.74 147.38 139.53 148.20 139.69 C 149.01 139.85 149.80 139.32 149.96 138.51 L 150.16 137.51 C 150.32 136.70 149.79 135.91 148.98 135.75 C 148.16 135.58 147.37 136.11 147.21 136.93 Z M 147.10 137.70 L 146.77 138.59 C 146.48 139.35 146.87 140.20 147.64 140.49 C 148.40 140.78 149.26 140.39 149.54 139.62 L 149.88 138.73 C 150.16 137.97 149.77 137.12 149.01 136.83 C 148.24 136.54 147.39 136.93 147.10 137.70 Z M 146.87 138.41 L 146.40 139.29 C 146.01 140.00 146.28 140.89 146.99 141.27 C 147.70 141.65 148.59 141.39 148.97 140.68 L 149.44 139.80 C 149.83 139.08 149.56 138.20 148.85 137.82 C 148.14 137.43 147.25 137.70 146.87 138.41 Z M 146.46 139.22 L 146.03 139.90 C 145.61 140.58 145.82 141.47 146.50 141.89 C 147.17 142.31 148.07 142.11 148.49 141.43 L 148.91 140.75 C 149.33 140.07 149.12 139.18 148.45 138.76 C 147.77 138.34 146.88 138.54 146.46 139.22 Z"
      fill="black"
      fill-rule="nonzero" /><path d="M 137.69 134.56 L 136.47 135.02 C 135.68 135.32 135.29 136.20 135.58 136.98 C 135.88 137.77 136.76 138.17 137.55 137.87 L 138.77 137.41 C 139.55 137.11 139.95 136.23 139.65 135.44 C 139.35 134.66 138.47 134.26 137.69 134.56 Z M 136.29 135.07 L 135.64 135.41 C 134.89 135.81 134.60 136.75 135.00 137.51 C 135.40 138.26 136.33 138.55 137.09 138.15 L 137.73 137.82 C 138.49 137.42 138.78 136.48 138.38 135.72 C 137.98 134.96 137.04 134.67 136.29 135.07 Z M 135.97 138.30 L 136.43 138.42 C 137.26 138.64 138.12 138.14 138.34 137.31 C 138.56 136.47 138.07 135.61 137.23 135.39 L 136.77 135.27 C 135.93 135.05 135.07 135.55 134.85 136.38 C 134.63 137.22 135.13 138.08 135.97 138.30 Z M 136.94 138.47 L 138.29 138.37 C 139.15 138.31 139.80 137.56 139.74 136.69 C 139.68 135.83 138.92 135.18 138.06 135.24 L 136.71 135.34 C 135.85 135.40 135.20 136.15 135.26 137.02 C 135.33 137.88 136.08 138.53 136.94 138.47 Z M 138.37 138.36 L 139.33 138.24 C 140.19 138.14 140.80 137.35 140.69 136.50 C 140.59 135.64 139.80 135.03 138.94 135.13 L 137.98 135.25 C 137.12 135.36 136.51 136.14 136.62 137.00 C 136.72 137.86 137.51 138.47 138.37 138.36 Z M 139.36 138.23 L 140.38 138.08 C 141.23 137.96 141.82 137.17 141.70 136.32 C 141.58 135.46 140.78 134.87 139.93 135.00 L 138.91 135.14 C 138.06 135.27 137.47 136.06 137.59 136.91 C 137.72 137.76 138.51 138.35 139.36 138.23 Z M 140.40 138.07 L 141.41 137.91 C 142.25 137.77 142.83 136.98 142.69 136.13 C 142.56 135.29 141.76 134.71 140.91 134.85 L 139.91 135.01 C 139.06 135.14 138.49 135.94 138.62 136.79 C 138.76 137.63 139.56 138.21 140.40 138.07 Z M 141.43 137.90 L 142.48 137.71 C 143.32 137.57 143.88 136.77 143.73 135.93 C 143.59 135.09 142.79 134.53 141.95 134.68 L 140.89 134.86 C 140.06 135.01 139.49 135.81 139.64 136.65 C 139.79 137.48 140.59 138.04 141.43 137.90 Z M 142.50 137.70 L 143.49 137.51 C 144.32 137.36 144.87 136.56 144.72 135.73 C 144.56 134.90 143.76 134.35 142.93 134.50 L 141.93 134.69 C 141.10 134.85 140.56 135.64 140.71 136.48 C 140.87 137.31 141.67 137.85 142.50 137.70 Z M 143.49 137.50 L 144.40 137.33 C 145.22 137.17 145.76 136.38 145.61 135.56 C 145.45 134.74 144.66 134.19 143.84 134.35 L 142.93 134.52 C 142.11 134.67 141.57 135.46 141.72 136.29 C 141.88 137.11 142.67 137.65 143.49 137.50 Z M 144.37 137.32 L 145.34 137.15 C 146.15 137.01 146.70 136.23 146.56 135.42 C 146.42 134.60 145.64 134.05 144.83 134.19 L 143.86 134.36 C 143.05 134.50 142.50 135.28 142.64 136.09 C 142.78 136.91 143.55 137.46 144.37 137.32 Z M 145.30 137.14 L 146.28 136.99 C 147.09 136.87 147.65 136.11 147.52 135.30 C 147.40 134.49 146.65 133.94 145.84 134.06 L 144.86 134.21 C 144.05 134.33 143.49 135.08 143.62 135.89 C 143.74 136.70 144.49 137.26 145.30 137.14 Z M 146.26 136.97 L 147.24 136.84 C 148.04 136.73 148.60 136.00 148.49 135.20 C 148.39 134.40 147.65 133.83 146.85 133.94 L 145.87 134.07 C 145.06 134.18 144.50 134.92 144.61 135.72 C 144.72 136.52 145.45 137.08 146.26 136.97 Z M 147.22 136.83 L 148.20 136.71 C 149.00 136.61 149.56 135.89 149.47 135.09 C 149.37 134.30 148.64 133.73 147.85 133.83 L 146.87 133.95 C 146.07 134.05 145.51 134.77 145.60 135.57 C 145.70 136.36 146.43 136.93 147.22 136.83 Z M 148.20 136.70 L 149.21 136.58 C 150.00 136.48 150.57 135.77 150.47 134.98 C 150.38 134.19 149.66 133.63 148.87 133.72 L 147.86 133.84 C 147.07 133.93 146.50 134.65 146.60 135.44 C 146.69 136.23 147.41 136.79 148.20 136.70 Z M 149.21 136.57 L 149.47 136.54 C 150.25 136.45 150.81 135.74 150.72 134.95 C 150.63 134.17 149.92 133.60 149.13 133.70 L 148.88 133.73 C 148.09 133.82 147.53 134.53 147.62 135.32 C 147.71 136.10 148.42 136.66 149.21 136.57 Z"
      fill="black"
      fill-rule="nonzero" /><path d="M 138.01 144.13 L 136.97 144.89 C 136.30 145.37 136.15 146.31 136.64 146.98 C 137.12 147.65 138.06 147.80 138.73 147.31 L 139.77 146.56 C 140.44 146.07 140.59 145.14 140.10 144.47 C 139.62 143.80 138.68 143.65 138.01 144.13 Z M 136.72 145.05 L 136.30 145.50 C 135.73 146.13 135.77 147.10 136.39 147.68 C 137.02 148.26 137.99 148.22 138.57 147.59 L 138.98 147.14 C 139.56 146.52 139.52 145.54 138.89 144.97 C 138.27 144.39 137.29 144.43 136.72 145.05 Z M 137.66 148.09 L 138.50 147.97 C 139.36 147.84 139.94 147.05 139.82 146.20 C 139.69 145.34 138.90 144.75 138.05 144.88 L 137.21 145.00 C 136.35 145.13 135.76 145.92 135.89 146.78 C 136.01 147.63 136.81 148.22 137.66 148.09 Z M 138.75 147.91 L 139.84 147.57 C 140.66 147.30 141.12 146.42 140.85 145.60 C 140.59 144.78 139.71 144.32 138.89 144.59 L 137.80 144.94 C 136.98 145.20 136.52 146.08 136.78 146.90 C 137.05 147.72 137.93 148.18 138.75 147.91 Z M 139.91 147.54 L 140.84 147.20 C 141.65 146.90 142.06 146.00 141.76 145.19 C 141.46 144.38 140.56 143.97 139.75 144.27 L 138.82 144.61 C 138.01 144.91 137.60 145.81 137.90 146.62 C 138.20 147.43 139.10 147.84 139.91 147.54 Z M 140.90 147.17 L 141.78 146.80 C 142.57 146.47 142.94 145.55 142.61 144.76 C 142.28 143.97 141.36 143.59 140.57 143.93 L 139.69 144.29 C 138.90 144.63 138.52 145.54 138.86 146.34 C 139.19 147.13 140.10 147.50 140.90 147.17 Z M 141.81 146.78 L 142.70 146.38 C 143.48 146.02 143.83 145.10 143.47 144.32 C 143.12 143.54 142.20 143.19 141.41 143.55 L 140.53 143.95 C 139.75 144.30 139.40 145.22 139.76 146.01 C 140.11 146.79 141.03 147.13 141.81 146.78 Z M 142.71 146.37 L 143.70 145.91 C 144.47 145.54 144.81 144.62 144.44 143.84 C 144.08 143.07 143.16 142.74 142.38 143.10 L 141.40 143.56 C 140.62 143.92 140.29 144.85 140.65 145.62 C 141.02 146.40 141.94 146.73 142.71 146.37 Z M 143.70 145.90 L 144.62 145.46 C 145.40 145.10 145.73 144.18 145.36 143.41 C 145.00 142.64 144.08 142.31 143.31 142.67 L 142.38 143.11 C 141.61 143.47 141.28 144.39 141.64 145.16 C 142.01 145.93 142.93 146.26 143.70 145.90 Z M 144.62 145.46 L 145.55 145.02 C 146.32 144.66 146.65 143.75 146.29 142.98 C 145.93 142.22 145.02 141.88 144.25 142.24 L 143.32 142.68 C 142.55 143.03 142.22 143.95 142.58 144.71 C 142.94 145.48 143.85 145.81 144.62 145.46 Z M 145.53 145.02 L 146.43 144.61 C 147.19 144.26 147.53 143.36 147.18 142.59 C 146.83 141.83 145.93 141.49 145.16 141.84 L 144.27 142.25 C 143.50 142.59 143.17 143.50 143.51 144.26 C 143.86 145.03 144.77 145.37 145.53 145.02 Z M 146.39 144.60 L 147.35 144.19 C 148.11 143.86 148.47 142.98 148.14 142.22 C 147.81 141.46 146.93 141.10 146.17 141.43 L 145.20 141.85 C 144.44 142.17 144.09 143.05 144.42 143.82 C 144.74 144.58 145.63 144.93 146.39 144.60 Z M 147.30 144.18 L 148.15 143.84 C 148.90 143.54 149.27 142.69 148.97 141.94 C 148.68 141.18 147.82 140.81 147.07 141.11 L 146.22 141.44 C 145.47 141.74 145.10 142.59 145.39 143.35 C 145.69 144.10 146.54 144.47 147.30 144.18 Z M 148.11 143.83 L 149.04 143.49 C 149.79 143.21 150.17 142.38 149.89 141.63 C 149.61 140.88 148.78 140.50 148.03 140.77 L 147.10 141.12 C 146.35 141.40 145.97 142.23 146.25 142.98 C 146.53 143.73 147.36 144.11 148.11 143.83 Z M 149.03 143.48 L 149.79 143.20 C 150.53 142.93 150.92 142.11 150.65 141.36 C 150.38 140.62 149.55 140.23 148.81 140.50 L 148.05 140.78 C 147.30 141.05 146.92 141.88 147.19 142.62 C 147.46 143.37 148.28 143.75 149.03 143.48 Z"
      fill="black"
      fill-rule="nonzero" /><path d="M 142.31 156.09 L 143.31 156.10 C 144.17 156.10 144.88 155.40 144.88 154.54 C 144.88 153.67 144.18 152.97 143.32 152.97 L 142.32 152.96 C 141.46 152.96 140.75 153.66 140.75 154.52 C 140.75 155.39 141.45 156.09 142.31 156.09 Z M 143.28 156.10 L 144.28 156.12 C 145.15 156.14 145.86 155.46 145.88 154.59 C 145.90 153.73 145.22 153.01 144.36 152.99 L 143.35 152.97 C 142.48 152.95 141.77 153.63 141.75 154.50 C 141.73 155.36 142.41 156.08 143.28 156.10 Z M 144.15 156.11 L 145.15 156.22 C 146.01 156.32 146.79 155.70 146.88 154.84 C 146.98 153.97 146.35 153.20 145.49 153.11 L 144.49 153.00 C 143.63 152.90 142.86 153.52 142.76 154.39 C 142.67 155.25 143.29 156.02 144.15 156.11 Z M 144.71 156.11 L 145.60 156.49 C 146.40 156.83 147.32 156.46 147.66 155.66 C 148.00 154.86 147.63 153.94 146.83 153.60 L 145.94 153.22 C 145.14 152.88 144.22 153.25 143.88 154.05 C 143.54 154.85 143.91 155.77 144.71 156.11 Z M 145.10 156.16 L 145.80 156.87 C 146.42 157.48 147.42 157.49 148.03 156.87 C 148.65 156.26 148.65 155.26 148.04 154.64 L 147.33 153.93 C 146.72 153.32 145.72 153.31 145.10 153.93 C 144.49 154.54 144.48 155.54 145.10 156.16 Z M 145.57 156.57 L 146.09 157.43 C 146.54 158.18 147.51 158.42 148.26 157.97 C 149.00 157.52 149.25 156.55 148.79 155.80 L 148.27 154.94 C 147.82 154.19 146.85 153.95 146.11 154.40 C 145.36 154.85 145.12 155.82 145.57 156.57 Z M 145.96 157.18 L 146.31 158.10 C 146.62 158.92 147.53 159.33 148.35 159.03 C 149.16 158.72 149.58 157.81 149.27 156.99 L 148.92 156.06 C 148.62 155.25 147.70 154.83 146.89 155.14 C 146.07 155.45 145.65 156.36 145.96 157.18 Z M 146.24 157.87 L 146.43 158.80 C 146.61 159.66 147.45 160.21 148.31 160.03 C 149.16 159.85 149.71 159.01 149.53 158.15 L 149.34 157.22 C 149.16 156.37 148.32 155.82 147.47 156.00 C 146.61 156.17 146.06 157.01 146.24 157.87 Z M 146.41 158.63 L 146.50 159.65 C 146.59 160.52 147.36 161.16 148.23 161.08 C 149.10 160.99 149.74 160.22 149.66 159.35 L 149.56 158.33 C 149.48 157.46 148.70 156.82 147.83 156.90 C 146.96 156.98 146.32 157.76 146.41 158.63 Z M 146.50 159.55 L 146.53 160.57 C 146.56 161.44 147.30 162.13 148.17 162.10 C 149.04 162.07 149.73 161.34 149.70 160.47 L 149.66 159.45 C 149.63 158.57 148.90 157.89 148.03 157.92 C 147.15 157.95 146.47 158.68 146.50 159.55 Z M 146.54 160.53 L 146.55 161.55 C 146.55 162.42 147.26 163.12 148.14 163.11 C 149.01 163.10 149.71 162.39 149.70 161.52 L 149.69 160.51 C 149.68 159.64 148.97 158.94 148.10 158.94 C 147.23 158.95 146.53 159.66 146.54 160.53 Z M 146.55 161.53 L 146.55 162.51 C 146.55 163.37 147.25 164.08 148.12 164.08 C 148.98 164.08 149.69 163.38 149.69 162.51 L 149.69 161.54 C 149.70 160.67 148.99 159.97 148.13 159.96 C 147.26 159.96 146.55 160.66 146.55 161.53 Z M 146.56 162.44 L 146.51 163.41 C 146.48 164.28 147.14 165.01 148.01 165.05 C 148.87 165.08 149.60 164.42 149.64 163.55 L 149.68 162.58 C 149.72 161.72 149.05 160.99 148.19 160.95 C 147.33 160.91 146.60 161.58 146.56 162.44 Z M 146.53 163.30 L 146.41 164.28 C 146.31 165.14 146.92 165.91 147.77 166.02 C 148.63 166.12 149.41 165.51 149.51 164.65 L 149.63 163.67 C 149.73 162.81 149.12 162.04 148.26 161.93 C 147.41 161.83 146.63 162.44 146.53 163.30 Z M 146.42 164.20 L 146.25 165.20 C 146.10 166.05 146.67 166.86 147.52 167.00 C 148.37 167.15 149.18 166.58 149.33 165.73 L 149.50 164.73 C 149.64 163.88 149.07 163.07 148.22 162.93 C 147.37 162.78 146.57 163.35 146.42 164.20 Z M 146.26 165.15 L 146.05 166.16 C 145.88 167.00 146.42 167.83 147.27 168.00 C 148.11 168.18 148.94 167.63 149.11 166.79 L 149.32 165.78 C 149.49 164.94 148.95 164.11 148.10 163.94 C 147.26 163.76 146.43 164.31 146.26 165.15 Z M 146.07 166.11 L 145.82 167.14 C 145.61 167.98 146.13 168.82 146.97 169.02 C 147.80 169.22 148.64 168.71 148.85 167.87 L 149.10 166.84 C 149.30 166.00 148.78 165.16 147.95 164.96 C 147.11 164.76 146.27 165.27 146.07 166.11 Z M 145.84 167.07 L 145.57 168.00 C 145.33 168.82 145.80 169.68 146.63 169.92 C 147.45 170.17 148.31 169.69 148.55 168.87 L 148.82 167.94 C 149.06 167.12 148.59 166.26 147.77 166.02 C 146.94 165.78 146.08 166.25 145.84 167.07 Z M 145.61 167.91 L 145.27 168.84 C 144.98 169.64 145.40 170.53 146.20 170.81 C 147.00 171.10 147.89 170.69 148.18 169.89 L 148.51 168.96 C 148.80 168.16 148.39 167.27 147.59 166.98 C 146.78 166.69 145.90 167.11 145.61 167.91 Z M 145.32 168.77 L 144.94 169.68 C 144.61 170.46 144.97 171.35 145.75 171.68 C 146.52 172.01 147.42 171.64 147.74 170.87 L 148.13 169.96 C 148.46 169.18 148.09 168.29 147.32 167.96 C 146.54 167.63 145.65 168.00 145.32 168.77 Z M 144.96 169.67 L 144.83 169.96 C 144.49 170.72 144.84 171.62 145.60 171.95 C 146.36 172.29 147.25 171.94 147.59 171.18 L 147.72 170.88 C 148.06 170.12 147.71 169.23 146.95 168.90 C 146.19 168.56 145.30 168.90 144.96 169.67 Z"
      fill="black"
      fill-rule="nonzero" /><path d="M 154.05 126.93 L 154.05 127.92 C 154.05 128.76 154.73 129.44 155.57 129.44 C 156.41 129.44 157.09 128.76 157.09 127.92 L 157.09 126.93 C 157.09 126.09 156.41 125.41 155.57 125.41 C 154.73 125.41 154.05 126.09 154.05 126.93 Z M 153.99 127.92 L 153.99 128.92 C 153.99 129.79 154.70 130.49 155.57 130.49 C 156.44 130.49 157.14 129.79 157.14 128.92 L 157.14 127.92 C 157.14 127.05 156.44 126.34 155.57 126.34 C 154.70 126.34 153.99 127.05 153.99 127.92 Z M 153.96 128.92 L 153.96 129.96 C 153.96 130.85 154.68 131.57 155.57 131.57 C 156.46 131.57 157.18 130.85 157.18 129.96 L 157.18 128.92 C 157.18 128.03 156.46 127.31 155.57 127.31 C 154.68 127.31 153.96 128.03 153.96 128.92 Z M 153.94 129.96 L 153.94 130.99 C 153.94 131.88 154.67 132.61 155.57 132.61 C 156.46 132.61 157.19 131.88 157.19 130.99 L 157.19 129.96 C 157.19 129.06 156.46 128.33 155.57 128.33 C 154.67 128.33 153.94 129.06 153.94 129.96 Z M 153.95 130.99 L 153.95 131.95 C 153.95 132.84 154.67 133.57 155.57 133.57 C 156.46 133.57 157.19 132.84 157.19 131.95 L 157.19 130.99 C 157.19 130.09 156.46 129.37 155.57 129.37 C 154.67 129.37 153.95 130.09 153.95 130.99 Z M 153.96 131.94 L 153.95 132.98 C 153.95 133.86 154.66 134.59 155.55 134.59 C 156.44 134.60 157.17 133.88 157.17 132.99 L 157.18 131.96 C 157.18 131.07 156.47 130.34 155.58 130.34 C 154.69 130.33 153.96 131.05 153.96 131.94 Z M 153.98 132.92 L 153.94 133.85 C 153.90 134.73 154.58 135.47 155.46 135.51 C 156.33 135.54 157.07 134.86 157.11 133.98 L 157.15 133.05 C 157.18 132.17 156.50 131.44 155.63 131.40 C 154.75 131.36 154.01 132.04 153.98 132.92 Z M 153.96 133.78 L 153.88 134.78 C 153.80 135.64 154.44 136.40 155.30 136.48 C 156.16 136.55 156.92 135.92 157.00 135.05 L 157.08 134.06 C 157.16 133.19 156.52 132.43 155.66 132.36 C 154.80 132.28 154.04 132.92 153.96 133.78 Z M 153.90 134.74 L 153.79 135.73 C 153.69 136.58 154.30 137.35 155.15 137.44 C 156.00 137.54 156.77 136.93 156.86 136.08 L 156.97 135.09 C 157.07 134.24 156.46 133.47 155.61 133.38 C 154.76 133.28 153.99 133.89 153.90 134.74 Z M 153.80 135.70 L 153.67 136.70 C 153.56 137.54 154.15 138.32 154.99 138.43 C 155.83 138.54 156.60 137.95 156.71 137.11 L 156.85 136.11 C 156.96 135.27 156.37 134.50 155.53 134.38 C 154.69 134.27 153.91 134.86 153.80 135.70 Z M 153.68 136.68 L 153.54 137.68 C 153.41 138.51 153.99 139.28 154.82 139.41 C 155.66 139.53 156.43 138.95 156.55 138.12 L 156.70 137.13 C 156.82 136.30 156.25 135.52 155.41 135.40 C 154.58 135.28 153.80 135.85 153.68 136.68 Z M 153.54 137.69 L 153.41 138.68 C 153.30 139.51 153.88 140.28 154.71 140.39 C 155.54 140.50 156.30 139.92 156.41 139.09 L 156.55 138.10 C 156.66 137.27 156.08 136.51 155.25 136.40 C 154.42 136.28 153.66 136.87 153.54 137.69 Z M 153.42 138.71 L 153.30 139.70 C 153.20 140.52 153.79 141.27 154.61 141.37 C 155.44 141.47 156.18 140.88 156.28 140.06 L 156.40 139.07 C 156.50 138.24 155.91 137.50 155.09 137.40 C 154.27 137.30 153.52 137.89 153.42 138.71 Z M 153.32 139.71 L 153.21 140.64 C 153.11 141.45 153.69 142.19 154.51 142.29 C 155.32 142.38 156.06 141.80 156.16 140.98 L 156.27 140.05 C 156.36 139.24 155.78 138.50 154.97 138.40 C 154.15 138.31 153.41 138.89 153.32 139.71 Z M 153.22 140.65 L 153.10 141.70 C 153.01 142.51 153.59 143.23 154.40 143.32 C 155.21 143.42 155.94 142.83 156.03 142.02 L 156.15 140.98 C 156.24 140.17 155.65 139.44 154.85 139.35 C 154.04 139.26 153.31 139.84 153.22 140.65 Z M 153.08 141.71 L 152.98 142.64 C 152.90 143.46 153.49 144.20 154.31 144.28 C 155.13 144.37 155.86 143.77 155.95 142.95 L 156.05 142.01 C 156.13 141.20 155.54 140.46 154.72 140.38 C 153.90 140.29 153.17 140.89 153.08 141.71 Z M 152.94 142.64 L 152.83 143.67 C 152.75 144.52 153.36 145.27 154.21 145.36 C 155.06 145.44 155.81 144.83 155.89 143.98 L 156.00 142.95 C 156.08 142.11 155.47 141.35 154.62 141.27 C 153.78 141.18 153.02 141.80 152.94 142.64 Z M 152.80 143.67 L 152.75 144.15 C 152.66 145.01 153.30 145.78 154.16 145.87 C 155.03 145.95 155.80 145.32 155.88 144.46 L 155.93 143.98 C 156.02 143.12 155.38 142.35 154.52 142.26 C 153.65 142.18 152.88 142.81 152.80 143.67 Z"
      fill="black"
      fill-rule="nonzero" /><path d="M 159.56 128.24 L 160.59 128.26 C 161.46 128.27 162.17 127.57 162.18 126.71 C 162.19 125.84 161.50 125.13 160.63 125.12 L 159.60 125.10 C 158.74 125.09 158.03 125.79 158.01 126.65 C 158.00 127.52 158.70 128.23 159.56 128.24 Z M 160.45 128.25 L 161.43 128.35 C 162.29 128.43 163.06 127.80 163.15 126.94 C 163.23 126.07 162.60 125.30 161.73 125.22 L 160.76 125.12 C 159.90 125.04 159.13 125.67 159.04 126.53 C 158.96 127.40 159.59 128.17 160.45 128.25 Z M 161.10 128.28 L 162.04 128.57 C 162.86 128.84 163.74 128.38 164.01 127.56 C 164.27 126.73 163.81 125.85 162.99 125.59 L 162.06 125.29 C 161.23 125.03 160.35 125.48 160.09 126.31 C 159.82 127.13 160.28 128.01 161.10 128.28 Z M 161.65 128.38 L 162.48 128.93 C 163.20 129.40 164.17 129.20 164.64 128.48 C 165.11 127.76 164.92 126.80 164.20 126.32 L 163.37 125.78 C 162.65 125.30 161.68 125.50 161.21 126.22 C 160.74 126.94 160.94 127.91 161.65 128.38 Z M 162.23 128.72 L 162.95 129.44 C 163.55 130.05 164.54 130.06 165.15 129.45 C 165.76 128.85 165.77 127.86 165.16 127.25 L 164.44 126.53 C 163.84 125.92 162.85 125.91 162.24 126.52 C 161.63 127.12 161.63 128.11 162.23 128.72 Z M 162.76 129.21 L 163.31 130.04 C 163.79 130.76 164.75 130.96 165.47 130.48 C 166.19 130.00 166.38 129.04 165.91 128.32 L 165.35 127.49 C 164.88 126.77 163.91 126.57 163.19 127.05 C 162.48 127.52 162.28 128.49 162.76 129.21 Z M 163.17 129.77 L 163.54 130.69 C 163.87 131.49 164.78 131.87 165.57 131.54 C 166.37 131.22 166.75 130.31 166.43 129.51 L 166.05 128.59 C 165.72 127.80 164.82 127.42 164.02 127.74 C 163.22 128.07 162.84 128.97 163.17 129.77 Z M 163.47 130.48 L 163.71 131.41 C 163.91 132.25 164.76 132.76 165.59 132.55 C 166.42 132.34 166.93 131.50 166.73 130.66 L 166.49 129.73 C 166.29 128.89 165.44 128.39 164.61 128.59 C 163.78 128.80 163.27 129.64 163.47 130.48 Z M 163.68 131.26 L 163.82 132.26 C 163.94 133.11 164.73 133.70 165.58 133.58 C 166.43 133.46 167.02 132.67 166.90 131.82 L 166.76 130.82 C 166.63 129.97 165.85 129.38 165.00 129.50 C 164.15 129.62 163.56 130.41 163.68 131.26 Z M 163.81 132.14 L 163.88 133.15 C 163.93 134.01 164.67 134.66 165.53 134.60 C 166.39 134.54 167.04 133.80 166.98 132.94 L 166.91 131.94 C 166.85 131.08 166.11 130.43 165.26 130.49 C 164.40 130.55 163.75 131.29 163.81 132.14 Z M 163.87 133.07 L 163.89 134.07 C 163.90 134.93 164.61 135.62 165.47 135.60 C 166.33 135.59 167.01 134.88 167.00 134.02 L 166.98 133.02 C 166.97 132.16 166.26 131.48 165.40 131.49 C 164.54 131.50 163.86 132.21 163.87 133.07 Z M 163.89 134.02 L 163.87 135.04 C 163.86 135.90 164.54 136.61 165.40 136.62 C 166.26 136.63 166.97 135.95 166.98 135.09 L 167.00 134.07 C 167.02 133.21 166.33 132.51 165.47 132.49 C 164.61 132.48 163.90 133.16 163.89 134.02 Z M 163.87 134.99 L 163.82 135.94 C 163.78 136.81 164.45 137.54 165.31 137.58 C 166.17 137.62 166.90 136.95 166.94 136.09 L 166.99 135.13 C 167.03 134.27 166.36 133.54 165.50 133.50 C 164.64 133.46 163.91 134.13 163.87 134.99 Z M 163.83 135.86 L 163.73 136.86 C 163.64 137.72 164.27 138.49 165.13 138.57 C 165.99 138.66 166.75 138.03 166.84 137.17 L 166.94 136.17 C 167.03 135.31 166.40 134.55 165.54 134.46 C 164.68 134.37 163.91 135.00 163.83 135.86 Z M 163.74 136.75 L 163.56 137.78 C 163.42 138.63 163.99 139.44 164.84 139.59 C 165.70 139.73 166.51 139.16 166.66 138.30 L 166.83 137.28 C 166.98 136.42 166.40 135.61 165.55 135.47 C 164.69 135.32 163.88 135.90 163.74 136.75 Z M 163.58 137.69 L 163.35 138.69 C 163.15 139.53 163.68 140.38 164.52 140.57 C 165.37 140.77 166.21 140.24 166.41 139.39 L 166.64 138.39 C 166.84 137.55 166.31 136.70 165.46 136.51 C 164.62 136.31 163.77 136.84 163.58 137.69 Z M 163.36 138.62 L 163.09 139.60 C 162.86 140.44 163.35 141.30 164.19 141.54 C 165.03 141.77 165.89 141.28 166.12 140.44 L 166.39 139.46 C 166.63 138.62 166.13 137.75 165.30 137.52 C 164.46 137.29 163.59 137.78 163.36 138.62 Z M 163.11 139.54 L 162.76 140.62 C 162.49 141.45 162.95 142.34 163.78 142.60 C 164.60 142.87 165.49 142.41 165.76 141.58 L 166.11 140.50 C 166.37 139.67 165.92 138.79 165.09 138.52 C 164.26 138.25 163.37 138.71 163.11 139.54 Z M 162.76 140.61 L 162.44 141.61 C 162.17 142.44 162.62 143.32 163.45 143.59 C 164.28 143.86 165.17 143.41 165.43 142.58 L 165.76 141.59 C 166.03 140.76 165.57 139.87 164.75 139.60 C 163.92 139.33 163.03 139.79 162.76 140.61 Z M 163.98 143.67 L 164.28 143.66 C 165.15 143.64 165.83 142.91 165.81 142.04 C 165.79 141.18 165.06 140.49 164.19 140.51 L 163.89 140.52 C 163.02 140.54 162.34 141.27 162.36 142.14 C 162.39 143.01 163.11 143.69 163.98 143.67 Z M 165.32 143.21 L 166.15 142.42 C 166.77 141.82 166.79 140.83 166.19 140.20 C 165.59 139.58 164.60 139.56 163.98 140.16 L 163.15 140.96 C 162.53 141.56 162.51 142.55 163.11 143.17 C 163.71 143.80 164.70 143.81 165.32 143.21 Z M 166.13 142.41 L 166.82 141.76 C 167.44 141.17 167.46 140.19 166.87 139.57 C 166.28 138.95 165.30 138.92 164.68 139.51 L 164.00 140.17 C 163.38 140.76 163.35 141.74 163.94 142.36 C 164.53 142.98 165.51 143.00 166.13 142.41 Z M 166.82 141.73 L 167.59 140.98 C 168.20 140.39 168.21 139.42 167.63 138.82 C 167.04 138.21 166.07 138.20 165.46 138.78 L 164.69 139.54 C 164.08 140.13 164.07 141.09 164.66 141.70 C 165.24 142.31 166.21 142.32 166.82 141.73 Z M 167.60 140.95 L 168.29 140.26 C 168.88 139.67 168.88 138.72 168.29 138.13 C 167.70 137.53 166.74 137.53 166.15 138.12 L 165.46 138.81 C 164.87 139.40 164.87 140.36 165.46 140.95 C 166.05 141.54 167.01 141.54 167.60 140.95 Z M 168.28 140.25 L 169.01 139.52 C 169.59 138.94 169.59 137.99 169.01 137.41 C 168.43 136.82 167.48 136.82 166.89 137.40 L 166.16 138.13 C 165.58 138.72 165.58 139.67 166.16 140.25 C 166.74 140.84 167.69 140.84 168.28 140.25 Z M 168.99 139.52 L 169.72 138.80 C 170.31 138.23 170.32 137.29 169.75 136.71 C 169.17 136.12 168.23 136.11 167.65 136.68 L 166.91 137.40 C 166.33 137.98 166.32 138.92 166.89 139.50 C 167.46 140.09 168.40 140.10 168.99 139.52 Z M 169.69 138.81 L 170.45 138.10 C 171.04 137.54 171.06 136.62 170.51 136.03 C 169.95 135.44 169.02 135.41 168.43 135.97 L 167.68 136.68 C 167.09 137.23 167.06 138.16 167.62 138.75 C 168.17 139.34 169.10 139.37 169.69 138.81 Z M 170.42 138.10 L 171.14 137.45 C 171.73 136.91 171.77 135.99 171.23 135.40 C 170.69 134.81 169.77 134.77 169.18 135.31 L 168.46 135.96 C 167.87 136.50 167.83 137.42 168.37 138.01 C 168.91 138.60 169.83 138.64 170.42 138.10 Z M 171.12 137.44 L 171.50 137.10 C 172.08 136.57 172.13 135.66 171.60 135.07 C 171.07 134.49 170.16 134.44 169.57 134.97 L 169.20 135.31 C 168.61 135.84 168.56 136.75 169.09 137.34 C 169.62 137.93 170.53 137.97 171.12 137.44 Z"
      fill="black"
      fill-rule="nonzero" /><path d="M 159.91 155.15 L 160.71 154.63 C 161.42 154.16 161.62 153.20 161.15 152.49 C 160.68 151.77 159.72 151.58 159.00 152.05 L 158.21 152.57 C 157.50 153.04 157.30 154.00 157.77 154.71 C 158.24 155.43 159.20 155.62 159.91 155.15 Z M 160.73 154.61 L 161.58 154.03 C 162.29 153.54 162.47 152.58 161.98 151.88 C 161.50 151.17 160.54 150.99 159.83 151.48 L 158.98 152.06 C 158.28 152.55 158.10 153.51 158.58 154.21 C 159.06 154.92 160.03 155.10 160.73 154.61 Z M 161.60 154.01 L 162.32 153.50 C 163.01 153.00 163.18 152.04 162.68 151.34 C 162.19 150.65 161.22 150.49 160.53 150.98 L 159.81 151.50 C 159.12 151.99 158.96 152.95 159.45 153.65 C 159.95 154.34 160.91 154.50 161.60 154.01 Z M 162.31 153.49 L 163.15 152.90 C 163.84 152.42 164.01 151.46 163.52 150.77 C 163.04 150.08 162.08 149.91 161.39 150.40 L 160.55 150.99 C 159.85 151.47 159.69 152.43 160.17 153.12 C 160.66 153.81 161.61 153.98 162.31 153.49 Z M 163.11 152.92 L 164.02 152.31 C 164.72 151.84 164.91 150.90 164.44 150.20 C 163.98 149.50 163.03 149.31 162.33 149.78 L 161.42 150.38 C 160.72 150.85 160.53 151.80 161.00 152.50 C 161.47 153.20 162.41 153.38 163.11 152.92 Z M 163.99 152.33 L 164.86 151.78 C 165.57 151.33 165.78 150.39 165.33 149.68 C 164.88 148.97 163.94 148.76 163.23 149.21 L 162.36 149.76 C 161.65 150.21 161.44 151.15 161.89 151.86 C 162.34 152.57 163.28 152.78 163.99 152.33 Z M 164.83 151.79 L 165.72 151.25 C 166.43 150.82 166.66 149.88 166.22 149.16 C 165.79 148.45 164.85 148.22 164.13 148.66 L 163.25 149.19 C 162.53 149.63 162.31 150.57 162.74 151.28 C 163.18 152.00 164.12 152.23 164.83 151.79 Z M 165.69 151.27 L 166.51 150.79 C 167.24 150.37 167.49 149.44 167.06 148.71 C 166.64 147.99 165.71 147.74 164.99 148.16 L 164.16 148.64 C 163.43 149.06 163.19 149.99 163.61 150.72 C 164.03 151.45 164.96 151.69 165.69 151.27 Z M 166.46 150.82 L 167.45 150.30 C 168.19 149.90 168.47 148.98 168.08 148.24 C 167.69 147.50 166.77 147.22 166.03 147.61 L 165.04 148.13 C 164.30 148.53 164.01 149.45 164.41 150.19 C 164.80 150.93 165.72 151.21 166.46 150.82 Z M 167.34 150.35 L 168.19 149.98 C 168.96 149.65 169.32 148.75 168.99 147.98 C 168.65 147.21 167.76 146.86 166.99 147.19 L 166.14 147.56 C 165.37 147.89 165.01 148.78 165.34 149.55 C 165.67 150.32 166.57 150.68 167.34 150.35 Z M 168.02 150.04 L 169.00 149.76 C 169.80 149.52 170.26 148.68 170.03 147.87 C 169.80 147.07 168.95 146.61 168.15 146.84 L 167.17 147.13 C 166.36 147.36 165.90 148.20 166.13 149.01 C 166.37 149.82 167.21 150.28 168.02 150.04 Z M 168.55 149.83 L 169.50 149.84 C 170.34 149.85 171.04 149.18 171.05 148.34 C 171.06 147.49 170.39 146.80 169.54 146.79 L 168.59 146.77 C 167.75 146.76 167.06 147.43 167.04 148.28 C 167.03 149.12 167.70 149.82 168.55 149.83 Z M 168.34 149.30 L 168.86 149.92 C 169.40 150.57 170.37 150.66 171.02 150.11 C 171.68 149.57 171.76 148.60 171.22 147.95 L 170.70 147.33 C 170.16 146.68 169.19 146.59 168.53 147.13 C 167.88 147.68 167.80 148.65 168.34 149.30 Z M 168.51 149.15 L 168.66 150.22 C 168.78 151.07 169.56 151.66 170.40 151.54 C 171.25 151.42 171.84 150.64 171.72 149.80 L 171.57 148.72 C 171.45 147.88 170.67 147.29 169.83 147.41 C 168.98 147.52 168.39 148.30 168.51 149.15 Z M 168.64 150.00 L 168.64 150.97 C 168.63 151.82 169.32 152.52 170.17 152.53 C 171.03 152.53 171.73 151.84 171.73 150.99 L 171.74 150.02 C 171.74 149.17 171.06 148.47 170.20 148.46 C 169.35 148.46 168.65 149.15 168.64 150.00 Z M 168.64 150.80 L 168.53 151.81 C 168.43 152.66 169.04 153.43 169.89 153.53 C 170.74 153.62 171.51 153.01 171.61 152.16 L 171.72 151.16 C 171.82 150.31 171.21 149.54 170.36 149.44 C 169.51 149.34 168.74 149.95 168.64 150.80 Z M 168.56 151.62 L 168.31 152.63 C 168.11 153.46 168.62 154.30 169.46 154.51 C 170.29 154.71 171.13 154.20 171.33 153.36 L 171.58 152.35 C 171.78 151.52 171.27 150.68 170.43 150.48 C 169.60 150.27 168.76 150.78 168.56 151.62 Z M 168.35 152.49 L 168.02 153.47 C 167.74 154.28 168.17 155.17 168.98 155.44 C 169.80 155.72 170.68 155.29 170.96 154.48 L 171.29 153.50 C 171.57 152.69 171.14 151.81 170.32 151.53 C 169.51 151.25 168.63 151.68 168.35 152.49 Z M 168.05 153.39 L 167.69 154.28 C 167.37 155.07 167.75 155.98 168.55 156.30 C 169.34 156.62 170.25 156.24 170.57 155.44 L 170.93 154.56 C 171.25 153.76 170.86 152.86 170.07 152.53 C 169.27 152.21 168.37 152.60 168.05 153.39 Z M 167.72 154.23 L 167.28 155.19 C 166.93 155.97 167.28 156.88 168.06 157.23 C 168.84 157.59 169.76 157.24 170.11 156.46 L 170.54 155.50 C 170.89 154.72 170.54 153.80 169.76 153.45 C 168.98 153.10 168.07 153.45 167.72 154.23 Z M 167.30 155.16 L 166.90 156.01 C 166.54 156.78 166.87 157.70 167.64 158.07 C 168.41 158.43 169.33 158.10 169.69 157.33 L 170.09 156.48 C 170.45 155.71 170.12 154.79 169.35 154.43 C 168.58 154.06 167.66 154.39 167.30 155.16 Z M 166.90 156.03 L 166.49 156.94 C 166.13 157.71 166.47 158.62 167.24 158.97 C 168.01 159.33 168.92 158.99 169.27 158.22 L 169.69 157.31 C 170.04 156.54 169.70 155.63 168.93 155.28 C 168.16 154.92 167.25 155.26 166.90 156.03 Z M 166.50 156.94 L 166.07 157.85 C 165.72 158.61 166.05 159.52 166.81 159.87 C 167.57 160.23 168.48 159.90 168.83 159.14 L 169.26 158.22 C 169.62 157.46 169.29 156.55 168.52 156.20 C 167.76 155.84 166.85 156.17 166.50 156.94 Z M 166.10 157.82 L 165.65 158.71 C 165.28 159.46 165.59 160.37 166.34 160.74 C 167.09 161.11 168.00 160.81 168.37 160.06 L 168.81 159.17 C 169.18 158.42 168.87 157.51 168.13 157.14 C 167.38 156.77 166.47 157.07 166.10 157.82 Z M 165.68 158.69 L 165.22 159.57 C 164.84 160.31 165.12 161.22 165.86 161.60 C 166.60 161.98 167.51 161.70 167.89 160.96 L 168.35 160.08 C 168.73 159.34 168.44 158.43 167.70 158.05 C 166.97 157.67 166.06 157.96 165.68 158.69 Z M 165.23 159.57 L 164.76 160.46 C 164.38 161.19 164.66 162.10 165.40 162.48 C 166.13 162.86 167.03 162.58 167.42 161.85 L 167.88 160.96 C 168.27 160.23 167.98 159.32 167.25 158.94 C 166.52 158.56 165.61 158.84 165.23 159.57 Z M 164.76 160.48 L 164.30 161.37 C 163.93 162.11 164.22 163.01 164.96 163.38 C 165.69 163.75 166.59 163.46 166.97 162.73 L 167.42 161.83 C 167.80 161.10 167.50 160.20 166.77 159.82 C 166.03 159.45 165.13 159.74 164.76 160.48 Z M 164.30 161.39 L 163.86 162.28 C 163.49 163.02 163.79 163.92 164.53 164.28 C 165.27 164.65 166.16 164.34 166.53 163.61 L 166.97 162.71 C 167.34 161.97 167.03 161.08 166.30 160.71 C 165.56 160.35 164.66 160.65 164.30 161.39 Z M 163.86 162.28 L 163.41 163.18 C 163.04 163.91 163.34 164.80 164.07 165.17 C 164.81 165.54 165.70 165.25 166.07 164.51 L 166.52 163.61 C 166.89 162.88 166.59 161.98 165.86 161.62 C 165.12 161.25 164.23 161.54 163.86 162.28 Z M 163.42 163.17 L 162.96 164.06 C 162.59 164.79 162.88 165.69 163.61 166.06 C 164.34 166.43 165.23 166.14 165.61 165.41 L 166.06 164.52 C 166.44 163.79 166.15 162.89 165.42 162.52 C 164.68 162.15 163.79 162.44 163.42 163.17 Z M 162.96 164.06 L 162.51 164.95 C 162.14 165.69 162.43 166.58 163.16 166.95 C 163.90 167.32 164.79 167.03 165.16 166.29 L 165.61 165.41 C 165.98 164.67 165.69 163.78 164.95 163.41 C 164.22 163.04 163.33 163.33 162.96 164.06 Z M 162.50 164.96 L 162.06 165.85 C 161.69 166.59 161.99 167.48 162.73 167.85 C 163.46 168.21 164.36 167.91 164.72 167.18 L 165.17 166.29 C 165.53 165.55 165.23 164.66 164.50 164.29 C 163.76 163.93 162.87 164.23 162.50 164.96 Z M 162.06 165.85 L 161.63 166.72 C 161.26 167.46 161.56 168.35 162.29 168.72 C 163.03 169.08 163.92 168.79 164.28 168.05 L 164.72 167.18 C 165.09 166.45 164.79 165.55 164.05 165.19 C 163.32 164.82 162.43 165.12 162.06 165.85 Z M 161.64 166.71 L 161.18 167.59 C 160.81 168.32 161.09 169.21 161.82 169.59 C 162.55 169.96 163.44 169.68 163.82 168.95 L 164.27 168.07 C 164.65 167.34 164.36 166.45 163.64 166.07 C 162.91 165.69 162.01 165.98 161.64 166.71 Z M 161.20 167.56 L 160.71 168.46 C 160.32 169.17 160.59 170.07 161.30 170.46 C 162.02 170.85 162.92 170.59 163.31 169.87 L 163.80 168.98 C 164.19 168.26 163.92 167.37 163.21 166.97 C 162.49 166.58 161.59 166.85 161.20 167.56 Z M 160.75 168.40 L 160.23 169.25 C 159.81 169.95 160.03 170.86 160.72 171.28 C 161.42 171.70 162.32 171.48 162.75 170.79 L 163.27 169.93 C 163.69 169.24 163.47 168.33 162.78 167.91 C 162.08 167.48 161.18 167.70 160.75 168.40 Z M 160.31 169.14 L 159.71 169.95 C 159.22 170.60 159.35 171.53 160.00 172.01 C 160.65 172.50 161.58 172.36 162.06 171.71 L 162.67 170.90 C 163.15 170.25 163.02 169.33 162.37 168.84 C 161.72 168.36 160.80 168.49 160.31 169.14 Z M 159.83 169.81 L 159.13 170.52 C 158.57 171.10 158.58 172.03 159.16 172.60 C 159.73 173.17 160.66 173.16 161.23 172.58 L 161.93 171.86 C 162.50 171.28 162.49 170.35 161.91 169.78 C 161.33 169.22 160.40 169.23 159.83 169.81 Z M 159.24 170.43 L 158.47 171.07 C 157.86 171.60 157.78 172.52 158.30 173.14 C 158.82 173.76 159.75 173.84 160.37 173.31 L 161.13 172.67 C 161.75 172.15 161.82 171.22 161.30 170.60 C 160.78 169.98 159.85 169.91 159.24 170.43 Z M 158.51 171.05 L 158.15 171.33 C 157.51 171.84 157.41 172.76 157.91 173.39 C 158.41 174.03 159.34 174.13 159.97 173.63 L 160.33 173.34 C 160.97 172.84 161.07 171.92 160.57 171.28 C 160.07 170.65 159.14 170.54 158.51 171.05 Z"
      fill="black"
      fill-rule="nonzero" /><path d="M 160.60 157.76 L 161.20 158.54 C 161.71 159.22 162.67 159.35 163.35 158.84 C 164.02 158.32 164.15 157.36 163.64 156.69 L 163.05 155.90 C 162.53 155.23 161.57 155.10 160.89 155.61 C 160.22 156.13 160.09 157.09 160.60 157.76 Z M 161.16 158.61 L 161.79 159.40 C 162.34 160.10 163.35 160.21 164.04 159.66 C 164.73 159.11 164.85 158.11 164.30 157.41 L 163.67 156.62 C 163.12 155.93 162.12 155.81 161.42 156.36 C 160.73 156.91 160.61 157.92 161.16 158.61 Z M 161.80 159.46 L 162.46 160.25 C 163.05 160.94 164.08 161.03 164.77 160.45 C 165.46 159.86 165.55 158.83 164.96 158.14 L 164.30 157.35 C 163.71 156.66 162.68 156.58 161.99 157.16 C 161.30 157.74 161.21 158.77 161.80 159.46 Z M 162.48 160.27 L 163.14 161.03 C 163.73 161.71 164.76 161.78 165.45 161.18 C 166.13 160.59 166.20 159.56 165.60 158.87 L 164.95 158.12 C 164.35 157.44 163.32 157.37 162.64 157.96 C 161.96 158.56 161.88 159.59 162.48 160.27 Z M 163.14 161.02 L 163.71 161.68 C 164.30 162.37 165.33 162.44 166.01 161.85 C 166.69 161.26 166.77 160.23 166.18 159.55 L 165.60 158.88 C 165.01 158.20 163.98 158.13 163.30 158.72 C 162.62 159.30 162.55 160.33 163.14 161.02 Z M 163.72 161.67 L 164.34 162.40 C 164.92 163.08 165.95 163.16 166.62 162.58 C 167.30 162.00 167.38 160.98 166.80 160.30 L 166.18 159.57 C 165.60 158.89 164.57 158.81 163.89 159.39 C 163.22 159.97 163.14 160.99 163.72 161.67 Z M 164.36 162.40 L 165.07 163.22 C 165.65 163.89 166.66 163.97 167.34 163.38 C 168.01 162.80 168.08 161.79 167.50 161.12 L 166.79 160.30 C 166.21 159.63 165.19 159.55 164.52 160.13 C 163.85 160.72 163.78 161.73 164.36 162.40 Z M 165.08 163.22 L 165.75 163.99 C 166.33 164.66 167.34 164.72 168.01 164.14 C 168.67 163.56 168.74 162.55 168.16 161.88 L 167.49 161.12 C 166.90 160.45 165.89 160.38 165.23 160.97 C 164.56 161.55 164.50 162.56 165.08 163.22 Z M 165.76 163.99 L 166.46 164.79 C 167.04 165.45 168.05 165.51 168.71 164.93 C 169.37 164.35 169.43 163.35 168.85 162.68 L 168.15 161.89 C 167.57 161.22 166.56 161.16 165.90 161.74 C 165.24 162.32 165.18 163.33 165.76 163.99 Z M 166.46 164.79 L 167.11 165.52 C 167.69 166.17 168.69 166.24 169.35 165.66 C 170.01 165.08 170.07 164.07 169.49 163.42 L 168.85 162.69 C 168.27 162.03 167.27 161.96 166.61 162.54 C 165.95 163.12 165.89 164.13 166.46 164.79 Z M 167.12 165.50 L 167.90 166.39 C 168.48 167.04 169.47 167.10 170.12 166.53 C 170.77 165.95 170.83 164.96 170.26 164.31 L 169.48 163.43 C 168.90 162.78 167.91 162.71 167.26 163.29 C 166.61 163.86 166.55 164.85 167.12 165.50 Z M 167.93 166.37 L 168.49 167.01 C 169.05 167.65 170.03 167.70 170.67 167.14 C 171.30 166.58 171.36 165.60 170.80 164.97 L 170.23 164.33 C 169.67 163.69 168.69 163.63 168.06 164.20 C 167.42 164.76 167.36 165.74 167.93 166.37 Z M 168.51 166.99 L 169.14 167.70 C 169.69 168.33 170.65 168.38 171.27 167.83 C 171.90 167.28 171.96 166.32 171.40 165.69 L 170.78 164.98 C 170.22 164.36 169.27 164.30 168.64 164.85 C 168.01 165.41 167.95 166.36 168.51 166.99 Z M 169.12 167.65 L 169.75 168.41 C 170.28 169.04 171.22 169.13 171.86 168.60 C 172.49 168.08 172.58 167.13 172.05 166.50 L 171.42 165.74 C 170.89 165.11 169.95 165.02 169.31 165.55 C 168.68 166.07 168.59 167.02 169.12 167.65 Z M 169.72 168.35 L 170.29 169.10 C 170.79 169.75 171.71 169.87 172.36 169.38 C 173.01 168.89 173.14 167.96 172.65 167.31 L 172.08 166.56 C 171.59 165.91 170.66 165.78 170.01 166.28 C 169.36 166.77 169.23 167.70 169.72 168.35 Z M 170.29 169.07 L 170.91 169.92 C 171.39 170.58 172.30 170.72 172.95 170.24 C 173.61 169.77 173.75 168.85 173.28 168.20 L 172.65 167.34 C 172.18 166.69 171.26 166.55 170.61 167.02 C 169.96 167.50 169.81 168.41 170.29 169.07 Z M 170.91 169.91 L 171.48 170.71 C 171.95 171.36 172.86 171.51 173.51 171.04 C 174.16 170.58 174.31 169.67 173.85 169.02 L 173.27 168.22 C 172.81 167.56 171.90 167.41 171.25 167.88 C 170.60 168.35 170.45 169.25 170.91 169.91 Z M 171.47 170.68 L 172.06 171.53 C 172.51 172.19 173.41 172.36 174.07 171.90 C 174.73 171.45 174.89 170.55 174.44 169.89 L 173.86 169.04 C 173.40 168.38 172.50 168.22 171.85 168.67 C 171.19 169.12 171.02 170.02 171.47 170.68 Z M 172.04 171.49 L 172.59 172.36 C 173.02 173.03 173.91 173.22 174.58 172.80 C 175.25 172.37 175.45 171.48 175.02 170.81 L 174.46 169.94 C 174.04 169.27 173.15 169.07 172.48 169.50 C 171.81 169.93 171.61 170.82 172.04 171.49 Z M 172.57 172.31 L 173.08 173.17 C 173.48 173.85 174.36 174.08 175.04 173.68 C 175.72 173.28 175.95 172.40 175.55 171.72 L 175.04 170.86 C 174.64 170.17 173.76 169.95 173.08 170.35 C 172.40 170.75 172.17 171.63 172.57 172.31 Z M 173.07 173.15 L 173.51 173.92 C 173.89 174.61 174.76 174.85 175.45 174.46 C 176.14 174.08 176.38 173.20 175.99 172.52 L 175.56 171.74 C 175.17 171.06 174.30 170.81 173.61 171.20 C 172.93 171.59 172.68 172.46 173.07 173.15 Z"
      fill="black"
      fill-rule="nonzero" /></svg>