<svg xmlns="http://www.w3.org/2000/svg" width="300" height="300" viewBox="0 0 300 300">
<path d="M 129.40 140.41 L 128.81 141.21 C 128.30 141.90 128.45 142.88 129.14 143.39 C 129.83 143.90 130.81 143.75 131.32 143.06 L 131.91 142.26 C 132.42 141.56 132.28 140.59 131.58 140.07 C 130.89 139.56 129.91 139.71 129.40 140.41 Z M 128.92 143.22 L 129.43 143.76 C 130.03 144.40 131.03 144.42 131.67 143.82 C 132.30 143.21 132.33 142.21 131.72 141.58 L 131.21 141.04 C 130.61 140.41 129.61 140.39 128.97 140.99 C 128.34 141.59 128.32 142.59 128.92 143.22 Z M 130.00 144.15 L 131.03 144.55 C 131.84 144.87 132.76 144.47 133.08 143.65 C 133.40 142.83 133.00 141.91 132.18 141.59 L 131.15 141.19 C 130.34 140.87 129.42 141.28 129.10 142.09 C 128.78 142.91 129.18 143.83 130.00 144.15 Z M 131.15 144.59 L 132.12 144.88 C 132.96 145.13 133.84 144.66 134.10 143.82 C 134.35 142.98 133.87 142.10 133.03 141.84 L 132.06 141.55 C 131.22 141.30 130.34 141.78 130.08 142.62 C 129.83 143.46 130.31 144.34 131.15 144.59 Z M 132.19 144.89 L 133.12 145.13 C 133.97 145.35 134.83 144.84 135.04 143.99 C 135.26 143.15 134.75 142.29 133.90 142.07 L 132.97 141.83 C 132.12 141.62 131.26 142.13 131.05 142.97 C 130.83 143.82 131.34 144.68 132.19 144.89 Z M 133.18 145.14 L 134.19 145.36 C 135.04 145.54 135.87 145.00 136.06 144.15 C 136.24 143.31 135.70 142.47 134.85 142.29 L 133.85 142.07 C 133.00 141.88 132.16 142.42 131.98 143.27 C 131.79 144.12 132.33 144.95 133.18 145.14 Z M 134.22 145.36 L 135.08 145.52 C 135.93 145.69 136.75 145.14 136.92 144.29 C 137.08 143.44 136.53 142.62 135.68 142.46 L 134.82 142.29 C 133.97 142.12 133.15 142.67 132.99 143.52 C 132.82 144.37 133.37 145.19 134.22 145.36 Z M 135.10 145.52 L 136.08 145.70 C 136.92 145.85 137.73 145.29 137.89 144.45 C 138.04 143.60 137.48 142.79 136.64 142.64 L 135.66 142.46 C 134.82 142.31 134.01 142.86 133.85 143.71 C 133.70 144.55 134.26 145.36 135.10 145.52 Z M 136.09 145.69 L 137.17 145.88 C 138.01 146.03 138.81 145.46 138.96 144.62 C 139.11 143.78 138.54 142.98 137.70 142.83 L 136.62 142.65 C 135.78 142.50 134.98 143.06 134.83 143.90 C 134.69 144.74 135.25 145.54 136.09 145.69 Z M 137.18 145.87 L 138.27 146.06 C 139.10 146.20 139.90 145.63 140.04 144.80 C 140.18 143.96 139.62 143.17 138.78 143.03 L 137.69 142.84 C 136.85 142.70 136.06 143.27 135.92 144.10 C 135.78 144.94 136.34 145.73 137.18 145.87 Z M 138.27 146.04 L 139.33 146.22 C 140.16 146.36 140.94 145.80 141.08 144.97 C 141.22 144.14 140.66 143.35 139.83 143.21 L 138.77 143.04 C 137.94 142.90 137.16 143.46 137.02 144.29 C 136.88 145.12 137.44 145.91 138.27 146.04 Z M 139.32 146.21 L 140.36 146.38 C 141.18 146.52 141.96 145.97 142.10 145.14 C 142.24 144.32 141.68 143.54 140.86 143.40 L 139.83 143.23 C 139.01 143.09 138.23 143.64 138.09 144.46 C 137.95 145.29 138.50 146.07 139.32 146.21 Z M 140.35 146.37 L 141.30 146.53 C 142.11 146.68 142.89 146.14 143.04 145.32 C 143.18 144.51 142.64 143.73 141.82 143.59 L 140.87 143.42 C 140.06 143.27 139.28 143.82 139.14 144.63 C 138.99 145.44 139.53 146.22 140.35 146.37 Z M 141.28 146.51 L 142.26 146.71 C 143.06 146.87 143.84 146.34 144.00 145.54 C 144.16 144.74 143.64 143.96 142.83 143.80 L 141.85 143.61 C 141.04 143.45 140.27 143.97 140.11 144.77 C 139.95 145.58 140.47 146.36 141.28 146.51 Z M 142.20 146.67 L 143.25 146.93 C 144.03 147.12 144.83 146.64 145.02 145.86 C 145.21 145.07 144.73 144.28 143.94 144.09 L 142.89 143.83 C 142.11 143.64 141.32 144.12 141.13 144.91 C 140.93 145.69 141.41 146.48 142.20 146.67 Z M 143.18 146.89 L 143.94 147.12 C 144.70 147.35 145.50 146.92 145.73 146.16 C 145.96 145.40 145.54 144.60 144.78 144.37 L 144.02 144.13 C 143.26 143.90 142.45 144.33 142.22 145.09 C 141.99 145.85 142.42 146.66 143.18 146.89 Z"
      fill="black"
      fill-rule="nonzero" /><path d="M 132.30 157.17 L 133.31 157.25 C 134.15 157.32 134.89 156.70 134.96 155.86 C 135.03 155.02 134.41 154.28 133.57 154.21 L 132.56 154.12 C 131.72 154.05 130.98 154.68 130.91 155.52 C 130.84 156.36 131.46 157.10 132.30 157.17 Z M 133.43 157.30 L 134.42 157.31 C 135.28 157.31 135.99 156.61 136.00 155.75 C 136.00 154.88 135.31 154.17 134.44 154.17 L 133.45 154.16 C 132.58 154.15 131.87 154.85 131.87 155.72 C 131.86 156.59 132.56 157.29 133.43 157.30 Z M 134.63 157.29 L 135.62 157.16 C 136.48 157.05 137.09 156.26 136.98 155.40 C 136.87 154.54 136.08 153.94 135.22 154.05 L 134.23 154.18 C 133.36 154.29 132.76 155.08 132.87 155.94 C 132.98 156.80 133.77 157.41 134.63 157.29 Z M 135.74 157.10 L 136.71 156.90 C 137.54 156.72 138.07 155.91 137.89 155.08 C 137.72 154.26 136.91 153.73 136.08 153.90 L 135.10 154.11 C 134.28 154.29 133.75 155.10 133.92 155.92 C 134.10 156.75 134.91 157.28 135.74 157.10 Z M 136.70 156.86 L 137.69 156.65 C 138.50 156.49 139.02 155.69 138.85 154.89 C 138.68 154.08 137.89 153.56 137.08 153.73 L 136.09 153.94 C 135.28 154.11 134.77 154.90 134.93 155.71 C 135.10 156.51 135.90 157.03 136.70 156.86 Z M 137.63 156.64 L 138.61 156.47 C 139.41 156.34 139.94 155.58 139.81 154.78 C 139.67 153.98 138.92 153.45 138.12 153.58 L 137.14 153.75 C 136.34 153.88 135.81 154.64 135.94 155.44 C 136.08 156.24 136.83 156.77 137.63 156.64 Z M 138.53 156.46 L 139.53 156.35 C 140.32 156.26 140.89 155.54 140.80 154.75 C 140.71 153.96 139.99 153.39 139.20 153.48 L 138.20 153.59 C 137.41 153.68 136.84 154.40 136.93 155.19 C 137.02 155.98 137.73 156.55 138.53 156.46 Z M 139.48 156.34 L 140.20 156.28 C 140.99 156.21 141.57 155.52 141.51 154.73 C 141.44 153.94 140.75 153.36 139.96 153.43 L 139.24 153.49 C 138.45 153.55 137.87 154.25 137.94 155.03 C 138.00 155.82 138.70 156.41 139.48 156.34 Z"
      fill="black"
      fill-rule="nonzero" /><path d="M 131.16 169.37 L 130.30 170.28 C 129.70 170.90 129.73 171.89 130.35 172.48 C 130.98 173.08 131.97 173.05 132.56 172.43 L 133.43 171.52 C 134.02 170.90 134.00 169.91 133.37 169.31 C 132.75 168.72 131.76 168.74 131.16 169.37 Z M 130.17 170.33 L 129.80 170.79 C 129.24 171.48 129.34 172.50 130.04 173.07 C 130.73 173.63 131.75 173.53 132.32 172.83 L 132.69 172.38 C 133.25 171.68 133.15 170.66 132.45 170.10 C 131.76 169.53 130.74 169.63 130.17 170.33 Z M 132.05 173.13 L 132.88 172.51 C 133.61 171.96 133.76 170.93 133.22 170.20 C 132.67 169.47 131.64 169.32 130.91 169.86 L 130.07 170.49 C 129.34 171.03 129.19 172.07 129.74 172.80 C 130.28 173.53 131.31 173.68 132.05 173.13 Z M 132.93 172.47 L 133.64 171.90 C 134.35 171.33 134.46 170.29 133.89 169.58 C 133.32 168.87 132.28 168.76 131.57 169.33 L 130.86 169.90 C 130.15 170.47 130.04 171.51 130.61 172.22 C 131.18 172.93 132.22 173.04 132.93 172.47 Z M 133.65 171.89 L 134.47 171.22 C 135.17 170.64 135.28 169.61 134.70 168.90 C 134.13 168.20 133.09 168.09 132.38 168.67 L 131.56 169.34 C 130.86 169.91 130.75 170.95 131.33 171.66 C 131.90 172.36 132.94 172.47 133.65 171.89 Z M 134.47 171.21 L 135.28 170.54 C 135.98 169.97 136.08 168.93 135.50 168.23 C 134.92 167.53 133.89 167.43 133.19 168.01 L 132.38 168.68 C 131.68 169.25 131.58 170.29 132.16 170.99 C 132.73 171.69 133.77 171.79 134.47 171.21 Z M 135.27 170.54 L 136.07 169.88 C 136.76 169.30 136.86 168.27 136.28 167.58 C 135.71 166.88 134.68 166.79 133.98 167.36 L 133.19 168.02 C 132.50 168.60 132.40 169.63 132.97 170.32 C 133.55 171.01 134.58 171.11 135.27 170.54 Z M 136.06 169.87 L 136.80 169.26 C 137.49 168.68 137.59 167.66 137.02 166.97 C 136.44 166.28 135.42 166.18 134.73 166.76 L 133.99 167.37 C 133.30 167.94 133.20 168.97 133.78 169.66 C 134.35 170.35 135.37 170.44 136.06 169.87 Z M 136.79 169.24 L 137.62 168.56 C 138.31 167.99 138.41 166.98 137.84 166.29 C 137.28 165.61 136.27 165.51 135.58 166.08 L 134.74 166.77 C 134.06 167.33 133.96 168.34 134.53 169.03 C 135.09 169.71 136.10 169.81 136.79 169.24 Z M 137.61 168.53 L 138.31 167.95 C 138.99 167.40 139.08 166.40 138.53 165.73 C 137.97 165.05 136.97 164.96 136.30 165.52 L 135.60 166.10 C 134.92 166.65 134.83 167.65 135.38 168.32 C 135.94 169.00 136.94 169.09 137.61 168.53 Z M 138.31 167.92 L 139.08 167.28 C 139.74 166.72 139.82 165.74 139.26 165.08 C 138.71 164.42 137.73 164.34 137.07 164.90 L 136.30 165.54 C 135.64 166.10 135.56 167.08 136.12 167.74 C 136.67 168.40 137.65 168.48 138.31 167.92 Z M 139.08 167.25 L 139.84 166.59 C 140.48 166.04 140.54 165.06 139.99 164.42 C 139.43 163.78 138.46 163.71 137.82 164.27 L 137.06 164.93 C 136.42 165.48 136.35 166.46 136.91 167.10 C 137.47 167.74 138.44 167.81 139.08 167.25 Z M 139.84 166.56 L 140.59 165.89 C 141.21 165.33 141.26 164.37 140.70 163.75 C 140.14 163.12 139.18 163.07 138.55 163.63 L 137.81 164.30 C 137.18 164.86 137.13 165.83 137.70 166.45 C 138.26 167.07 139.22 167.12 139.84 166.56 Z M 140.59 165.87 L 141.32 165.19 C 141.93 164.63 141.97 163.67 141.40 163.07 C 140.84 162.46 139.89 162.42 139.28 162.98 L 138.55 163.66 C 137.94 164.22 137.90 165.18 138.47 165.78 C 139.03 166.39 139.98 166.43 140.59 165.87 Z M 141.32 165.17 L 142.05 164.49 C 142.64 163.93 142.68 162.99 142.11 162.39 C 141.55 161.79 140.61 161.76 140.01 162.32 L 139.28 163.00 C 138.69 163.56 138.65 164.50 139.22 165.10 C 139.78 165.70 140.72 165.73 141.32 165.17 Z M 142.03 164.48 L 142.76 163.81 C 143.36 163.26 143.39 162.33 142.84 161.73 C 142.29 161.13 141.36 161.10 140.76 161.65 L 140.03 162.32 C 139.44 162.87 139.40 163.80 139.95 164.40 C 140.50 165.00 141.43 165.03 142.03 164.48 Z M 142.74 163.81 L 143.49 163.13 C 144.08 162.59 144.13 161.67 143.59 161.07 C 143.05 160.48 142.13 160.43 141.53 160.97 L 140.78 161.65 C 140.19 162.19 140.14 163.11 140.68 163.71 C 141.22 164.30 142.14 164.35 142.74 163.81 Z M 143.48 163.12 L 144.21 162.46 C 144.80 161.93 144.85 161.02 144.31 160.42 C 143.78 159.83 142.87 159.78 142.27 160.32 L 141.54 160.98 C 140.95 161.51 140.90 162.43 141.43 163.02 C 141.97 163.61 142.88 163.66 143.48 163.12 Z M 144.21 162.45 L 144.96 161.76 C 145.54 161.23 145.58 160.32 145.05 159.74 C 144.51 159.15 143.60 159.11 143.02 159.65 L 142.27 160.33 C 141.69 160.87 141.65 161.77 142.18 162.36 C 142.72 162.94 143.63 162.98 144.21 162.45 Z M 145.00 161.77 L 145.73 161.08 C 146.32 160.52 146.34 159.59 145.79 159.00 C 145.23 158.41 144.30 158.39 143.71 158.95 L 142.98 159.64 C 142.39 160.20 142.37 161.13 142.92 161.72 C 143.48 162.30 144.41 162.33 145.00 161.77 Z M 145.80 161.11 L 146.51 160.42 C 147.12 159.82 147.12 158.84 146.53 158.23 C 145.93 157.63 144.95 157.62 144.35 158.22 L 143.64 158.91 C 143.03 159.51 143.02 160.49 143.62 161.09 C 144.22 161.70 145.20 161.71 145.80 161.11 Z M 146.56 160.41 L 147.27 159.68 C 147.87 159.06 147.86 158.06 147.24 157.46 C 146.61 156.85 145.62 156.86 145.01 157.49 L 144.30 158.22 C 143.69 158.84 143.71 159.84 144.33 160.44 C 144.95 161.05 145.95 161.04 146.56 160.41 Z M 147.28 159.66 L 147.81 159.10 C 148.40 158.47 148.37 157.48 147.75 156.89 C 147.12 156.29 146.13 156.32 145.54 156.95 L 145.00 157.51 C 144.41 158.14 144.44 159.13 145.07 159.72 C 145.69 160.31 146.68 160.29 147.28 159.66 Z"
      fill="black"
      fill-rule="nonzero" /><path d="M 157.78 131.82 L 158.41 130.80 C 158.85 130.09 158.63 129.16 157.91 128.72 C 157.20 128.28 156.27 128.51 155.83 129.22 L 155.20 130.24 C 154.77 130.95 154.99 131.88 155.70 132.32 C 156.41 132.76 157.35 132.54 157.78 131.82 Z M 157.81 131.42 L 158.30 131.18 C 159.08 130.80 159.40 129.86 159.02 129.08 C 158.64 128.31 157.70 127.98 156.93 128.36 L 156.44 128.60 C 155.66 128.98 155.33 129.92 155.71 130.70 C 156.09 131.47 157.03 131.80 157.81 131.42 Z M 156.10 130.34 L 156.41 131.15 C 156.72 131.98 157.65 132.40 158.48 132.09 C 159.32 131.77 159.74 130.84 159.42 130.01 L 159.12 129.20 C 158.81 128.37 157.88 127.95 157.05 128.26 C 156.21 128.58 155.79 129.50 156.10 130.34 Z M 156.29 130.82 L 156.47 132.04 C 156.61 132.94 157.44 133.56 158.34 133.43 C 159.24 133.29 159.86 132.46 159.72 131.56 L 159.54 130.34 C 159.41 129.44 158.57 128.82 157.68 128.95 C 156.78 129.09 156.16 129.92 156.29 130.82 Z M 156.45 131.98 L 156.56 133.00 C 156.65 133.91 157.47 134.57 158.38 134.48 C 159.29 134.38 159.95 133.57 159.85 132.66 L 159.75 131.63 C 159.65 130.72 158.83 130.06 157.92 130.15 C 157.01 130.25 156.35 131.07 156.45 131.98 Z M 156.55 132.97 L 156.64 134.01 C 156.72 134.92 157.53 135.60 158.44 135.52 C 159.36 135.44 160.03 134.63 159.95 133.72 L 159.86 132.68 C 159.78 131.77 158.98 131.09 158.06 131.17 C 157.15 131.25 156.47 132.06 156.55 132.97 Z M 156.63 133.99 L 156.71 134.99 C 156.78 135.91 157.58 136.59 158.50 136.53 C 159.41 136.46 160.10 135.66 160.03 134.74 L 159.96 133.74 C 159.89 132.82 159.09 132.13 158.17 132.20 C 157.25 132.27 156.57 133.07 156.63 133.99 Z M 156.71 134.97 L 156.77 136.02 C 156.83 136.94 157.62 137.64 158.54 137.59 C 159.46 137.53 160.16 136.74 160.10 135.82 L 160.04 134.76 C 159.98 133.84 159.19 133.14 158.27 133.20 C 157.35 133.25 156.65 134.05 156.71 134.97 Z M 156.77 135.99 L 156.81 136.87 C 156.85 137.79 157.63 138.50 158.55 138.46 C 159.47 138.42 160.18 137.65 160.14 136.72 L 160.10 135.85 C 160.06 134.93 159.28 134.22 158.36 134.26 C 157.44 134.30 156.73 135.07 156.77 135.99 Z M 156.81 136.86 L 156.85 137.84 C 156.88 138.76 157.65 139.48 158.57 139.45 C 159.49 139.41 160.21 138.64 160.17 137.72 L 160.14 136.74 C 160.10 135.82 159.33 135.10 158.41 135.13 C 157.50 135.17 156.78 135.94 156.81 136.86 Z M 156.85 137.84 L 156.89 138.85 C 156.92 139.76 157.68 140.48 158.60 140.45 C 159.51 140.42 160.23 139.65 160.20 138.74 L 160.17 137.73 C 160.14 136.81 159.37 136.10 158.45 136.13 C 157.54 136.16 156.82 136.92 156.85 137.84 Z M 156.89 138.84 L 156.92 139.84 C 156.95 140.75 157.71 141.46 158.63 141.43 C 159.54 141.40 160.25 140.64 160.22 139.73 L 160.19 138.74 C 160.16 137.83 159.40 137.11 158.49 137.14 C 157.58 137.17 156.86 137.93 156.89 138.84 Z M 156.93 139.83 L 156.96 140.84 C 156.99 141.75 157.75 142.46 158.65 142.44 C 159.56 142.41 160.28 141.65 160.25 140.74 L 160.22 139.73 C 160.19 138.82 159.43 138.11 158.52 138.14 C 157.62 138.17 156.90 138.92 156.93 139.83 Z M 156.97 140.84 L 156.99 141.83 C 157.02 142.73 157.77 143.45 158.68 143.42 C 159.58 143.40 160.29 142.65 160.27 141.74 L 160.24 140.75 C 160.22 139.84 159.47 139.13 158.56 139.15 C 157.66 139.18 156.94 139.93 156.97 140.84 Z M 157.00 141.82 L 157.02 142.83 C 157.03 143.73 157.78 144.45 158.68 144.43 C 159.58 144.41 160.30 143.67 160.28 142.77 L 160.26 141.76 C 160.25 140.85 159.50 140.14 158.60 140.15 C 157.70 140.17 156.98 140.91 157.00 141.82 Z M 157.02 142.81 L 157.03 143.79 C 157.04 144.69 157.77 145.41 158.67 145.41 C 159.57 145.40 160.29 144.67 160.28 143.77 L 160.28 142.78 C 160.27 141.89 159.54 141.16 158.64 141.17 C 157.74 141.18 157.02 141.91 157.02 142.81 Z M 157.04 143.78 L 157.04 144.80 C 157.04 145.69 157.76 146.42 158.66 146.42 C 159.56 146.42 160.28 145.69 160.28 144.79 L 160.28 143.78 C 160.28 142.88 159.55 142.16 158.66 142.16 C 157.76 142.16 157.03 142.89 157.04 143.78 Z M 157.04 144.80 L 157.04 145.81 C 157.04 146.70 157.77 147.42 158.66 147.42 C 159.55 147.42 160.27 146.70 160.27 145.81 L 160.27 144.80 C 160.27 143.90 159.55 143.18 158.66 143.18 C 157.77 143.18 157.04 143.90 157.04 144.80 Z M 157.05 145.81 L 157.05 146.81 C 157.05 147.70 157.77 148.42 158.66 148.42 C 159.54 148.42 160.26 147.70 160.26 146.81 L 160.26 145.81 C 160.26 144.92 159.54 144.20 158.66 144.20 C 157.77 144.20 157.05 144.92 157.05 145.81 Z M 157.06 146.81 L 157.06 147.83 C 157.06 148.71 157.78 149.42 158.66 149.42 C 159.54 149.42 160.25 148.71 160.25 147.83 L 160.25 146.81 C 160.25 145.93 159.54 145.22 158.66 145.22 C 157.78 145.22 157.06 145.93 157.06 146.81 Z M 157.07 147.83 L 157.07 148.83 C 157.07 149.70 157.78 150.41 158.66 150.41 C 159.53 150.41 160.24 149.70 160.24 148.83 L 160.24 147.83 C 160.24 146.95 159.53 146.24 158.66 146.24 C 157.78 146.24 157.07 146.95 157.07 147.83 Z M 157.09 148.83 L 157.09 149.81 C 157.09 150.68 157.79 151.38 158.66 151.38 C 159.53 151.38 160.23 150.68 160.23 149.81 L 160.23 148.83 C 160.23 147.96 159.53 147.25 158.66 147.25 C 157.79 147.25 157.09 147.96 157.09 148.83 Z M 157.10 149.81 L 157.10 150.82 C 157.10 151.68 157.80 152.38 158.66 152.38 C 159.52 152.38 160.22 151.68 160.22 150.82 L 160.22 149.81 C 160.22 148.95 159.52 148.25 158.66 148.25 C 157.80 148.25 157.10 148.95 157.10 149.81 Z M 157.11 150.82 L 157.11 151.78 C 157.11 152.63 157.80 153.32 158.66 153.32 C 159.51 153.32 160.20 152.63 160.20 151.78 L 160.20 150.82 C 160.20 149.97 159.51 149.27 158.66 149.27 C 157.80 149.27 157.11 149.97 157.11 150.82 Z M 157.13 151.78 L 157.13 152.75 C 157.13 153.60 157.81 154.28 158.66 154.28 C 159.50 154.28 160.19 153.60 160.19 152.75 L 160.19 151.78 C 160.19 150.93 159.50 150.25 158.66 150.25 C 157.81 150.25 157.13 150.93 157.13 151.78 Z M 157.14 152.75 L 157.14 153.77 C 157.14 154.60 157.82 155.28 158.66 155.28 C 159.50 155.28 160.18 154.60 160.18 153.77 L 160.18 152.75 C 160.18 151.91 159.50 151.23 158.66 151.23 C 157.82 151.23 157.14 151.91 157.14 152.75 Z M 157.15 153.77 L 157.15 154.77 C 157.15 155.60 157.83 156.28 158.66 156.28 C 159.49 156.28 160.17 155.60 160.17 154.77 L 160.17 153.77 C 160.17 152.93 159.49 152.26 158.66 152.26 C 157.83 152.26 157.15 152.93 157.15 153.77 Z M 157.16 154.77 L 157.16 155.80 C 157.16 156.63 157.83 157.30 158.66 157.30 C 159.49 157.30 160.16 156.63 160.16 155.80 L 160.16 154.77 C 160.16 153.94 159.49 153.27 158.66 153.27 C 157.83 153.27 157.16 153.94 157.16 154.77 Z M 157.17 155.80 L 157.17 156.83 C 157.17 157.65 157.84 158.32 158.66 158.32 C 159.48 158.32 160.14 157.65 160.14 156.83 L 160.14 155.80 C 160.14 154.98 159.48 154.32 158.66 154.32 C 157.84 154.32 157.17 154.98 157.17 155.80 Z M 157.19 156.83 L 157.19 157.81 C 157.19 158.62 157.85 159.28 158.66 159.28 C 159.47 159.28 160.12 158.62 160.12 157.81 L 160.12 156.83 C 160.12 156.02 159.47 155.36 158.66 155.36 C 157.85 155.36 157.19 156.02 157.19 156.83 Z M 157.21 157.81 L 157.21 158.22 C 157.21 159.02 157.86 159.67 158.66 159.67 C 159.46 159.67 160.11 159.02 160.11 158.22 L 160.11 157.81 C 160.11 157.01 159.46 156.36 158.66 156.36 C 157.86 156.36 157.21 157.01 157.21 157.81 Z"
      fill="black"
      fill-rule="nonzero" /><path d="M 156.10 136.64 L 155.32 137.24 C 154.63 137.79 154.51 138.79 155.05 139.48 C 155.60 140.18 156.60 140.30 157.30 139.75 L 158.07 139.15 C 158.76 138.60 158.88 137.60 158.34 136.91 C 157.79 136.21 156.79 136.09 156.10 136.64 Z M 155.22 137.32 L 154.48 138.01 C 153.83 138.61 153.79 139.62 154.39 140.27 C 154.99 140.92 156.00 140.96 156.65 140.36 L 157.40 139.68 C 158.05 139.07 158.09 138.06 157.49 137.41 C 156.89 136.76 155.87 136.72 155.22 137.32 Z M 154.34 138.15 L 153.68 138.94 C 153.11 139.62 153.20 140.63 153.88 141.19 C 154.55 141.76 155.56 141.68 156.13 141.00 L 156.79 140.21 C 157.36 139.54 157.27 138.53 156.60 137.96 C 155.92 137.39 154.91 137.48 154.34 138.15 Z M 153.62 139.04 L 153.03 139.86 C 152.52 140.57 152.68 141.56 153.39 142.07 C 154.10 142.58 155.09 142.42 155.61 141.71 L 156.19 140.90 C 156.71 140.19 156.55 139.19 155.83 138.68 C 155.12 138.17 154.13 138.33 153.62 139.04 Z M 153.04 139.88 L 152.45 140.72 C 151.95 141.43 152.12 142.41 152.82 142.91 C 153.53 143.40 154.51 143.24 155.01 142.53 L 155.60 141.69 C 156.10 140.98 155.93 140.00 155.22 139.50 C 154.52 139.00 153.54 139.17 153.04 139.88 Z M 152.48 140.71 L 151.92 141.48 C 151.41 142.17 151.56 143.14 152.25 143.64 C 152.94 144.15 153.91 144.00 154.41 143.31 L 154.98 142.54 C 155.48 141.85 155.33 140.88 154.64 140.37 C 153.95 139.87 152.98 140.02 152.48 140.71 Z M 151.94 141.48 L 151.35 142.26 C 150.85 142.94 150.98 143.89 151.66 144.40 C 152.33 144.91 153.29 144.77 153.80 144.09 L 154.39 143.31 C 154.89 142.63 154.76 141.68 154.08 141.17 C 153.41 140.66 152.45 140.80 151.94 141.48 Z M 151.38 142.25 L 150.76 143.05 C 150.25 143.71 150.37 144.66 151.03 145.17 C 151.69 145.68 152.64 145.56 153.15 144.90 L 153.77 144.10 C 154.28 143.44 154.16 142.49 153.50 141.98 C 152.84 141.47 151.89 141.59 151.38 142.25 Z M 150.79 143.04 L 150.16 143.82 C 149.65 144.47 149.75 145.41 150.40 145.93 C 151.05 146.45 151.99 146.34 152.51 145.69 L 153.13 144.91 C 153.65 144.26 153.54 143.32 152.89 142.80 C 152.24 142.29 151.30 142.39 150.79 143.04 Z M 150.17 143.84 L 149.55 144.63 C 149.04 145.27 149.15 146.21 149.80 146.71 C 150.44 147.22 151.38 147.11 151.88 146.46 L 152.50 145.67 C 153.01 145.03 152.90 144.10 152.25 143.59 C 151.61 143.08 150.67 143.20 150.17 143.84 Z M 149.56 144.64 L 148.94 145.43 C 148.44 146.07 148.56 146.99 149.20 147.49 C 149.84 147.99 150.76 147.88 151.26 147.24 L 151.87 146.45 C 152.37 145.81 152.26 144.89 151.62 144.39 C 150.98 143.89 150.06 144.00 149.56 144.64 Z M 148.97 145.41 L 148.37 146.15 C 147.86 146.77 147.96 147.69 148.58 148.20 C 149.20 148.70 150.12 148.61 150.63 147.99 L 151.23 147.26 C 151.74 146.63 151.65 145.71 151.02 145.20 C 150.40 144.70 149.48 144.79 148.97 145.41 Z M 148.39 146.14 L 147.74 146.93 C 147.22 147.54 147.31 148.45 147.92 148.96 C 148.53 149.47 149.44 149.39 149.95 148.78 L 150.61 147.99 C 151.12 147.38 151.04 146.47 150.43 145.96 C 149.82 145.45 148.90 145.53 148.39 146.14 Z M 147.73 146.94 L 147.11 147.69 C 146.61 148.31 146.70 149.21 147.31 149.72 C 147.92 150.22 148.83 150.13 149.33 149.52 L 149.95 148.77 C 150.46 148.15 150.37 147.25 149.76 146.74 C 149.14 146.24 148.24 146.33 147.73 146.94 Z M 147.11 147.70 L 146.47 148.49 C 145.98 149.10 146.07 150.01 146.68 150.51 C 147.30 151.00 148.20 150.91 148.70 150.30 L 149.34 149.51 C 149.84 148.90 149.74 147.99 149.13 147.49 C 148.51 147.00 147.61 147.09 147.11 147.70 Z M 146.47 148.49 L 145.95 149.15 C 145.45 149.76 145.55 150.66 146.16 151.16 C 146.78 151.65 147.68 151.56 148.17 150.94 L 148.70 150.29 C 149.20 149.68 149.10 148.78 148.48 148.28 C 147.87 147.78 146.97 147.88 146.47 148.49 Z"
      fill="black"
      fill-rule="nonzero" /><path d="M 162.48 145.58 L 163.38 145.34 C 164.19 145.12 164.68 144.28 164.46 143.47 C 164.24 142.66 163.40 142.17 162.59 142.39 L 161.69 142.63 C 160.88 142.85 160.39 143.68 160.61 144.50 C 160.83 145.31 161.67 145.80 162.48 145.58 Z M 163.43 145.37 L 164.45 145.07 C 165.28 144.82 165.76 143.95 165.51 143.12 C 165.27 142.28 164.39 141.81 163.56 142.05 L 162.54 142.36 C 161.71 142.60 161.23 143.48 161.48 144.31 C 161.72 145.14 162.60 145.62 163.43 145.37 Z M 164.50 145.08 L 165.41 144.78 C 166.25 144.51 166.71 143.61 166.44 142.77 C 166.17 141.94 165.27 141.48 164.43 141.75 L 163.51 142.05 C 162.68 142.32 162.22 143.22 162.49 144.05 C 162.76 144.89 163.66 145.35 164.50 145.08 Z M 165.41 144.78 L 166.38 144.47 C 167.22 144.20 167.68 143.31 167.42 142.47 C 167.15 141.63 166.26 141.17 165.42 141.44 L 164.44 141.75 C 163.60 142.02 163.14 142.91 163.41 143.75 C 163.68 144.58 164.57 145.05 165.41 144.78 Z M 166.33 144.48 L 167.34 144.19 C 168.18 143.96 168.67 143.09 168.43 142.25 C 168.20 141.41 167.33 140.91 166.49 141.15 L 165.48 141.43 C 164.64 141.67 164.14 142.54 164.38 143.38 C 164.61 144.22 165.49 144.71 166.33 144.48 Z M 167.23 144.19 L 168.27 143.98 C 169.11 143.80 169.65 142.97 169.47 142.13 C 169.29 141.29 168.47 140.75 167.62 140.93 L 166.59 141.15 C 165.75 141.33 165.21 142.15 165.39 142.99 C 165.57 143.83 166.39 144.37 167.23 144.19 Z M 168.16 143.96 L 169.07 143.83 C 169.90 143.71 170.48 142.94 170.36 142.11 C 170.24 141.28 169.48 140.70 168.65 140.82 L 167.73 140.95 C 166.90 141.07 166.32 141.84 166.44 142.67 C 166.56 143.50 167.33 144.08 168.16 143.96 Z M 168.96 143.80 L 169.99 143.73 C 170.81 143.68 171.42 142.97 171.37 142.16 C 171.32 141.34 170.61 140.73 169.80 140.78 L 168.76 140.85 C 167.95 140.90 167.33 141.61 167.38 142.42 C 167.44 143.24 168.14 143.85 168.96 143.80 Z M 169.91 143.70 L 170.61 143.69 C 171.40 143.68 172.04 143.03 172.04 142.24 C 172.03 141.44 171.38 140.80 170.58 140.81 L 169.88 140.81 C 169.09 140.82 168.45 141.47 168.45 142.27 C 168.46 143.06 169.11 143.70 169.91 143.70 Z"
      fill="black"
      fill-rule="nonzero" /><path d="M 167.64 150.07 L 167.32 150.99 C 167.05 151.78 167.48 152.65 168.27 152.93 C 169.07 153.20 169.94 152.77 170.21 151.98 L 170.52 151.06 C 170.80 150.27 170.37 149.40 169.58 149.12 C 168.78 148.85 167.91 149.28 167.64 150.07 Z M 167.24 150.98 L 166.93 151.93 C 166.65 152.77 167.11 153.67 167.95 153.95 C 168.79 154.23 169.70 153.77 169.98 152.93 L 170.29 151.99 C 170.57 151.14 170.11 150.24 169.27 149.96 C 168.43 149.68 167.52 150.14 167.24 150.98 Z M 166.86 151.93 L 166.55 152.92 C 166.28 153.81 166.77 154.74 167.66 155.02 C 168.54 155.29 169.48 154.79 169.75 153.91 L 170.05 152.92 C 170.33 152.04 169.83 151.10 168.95 150.83 C 168.07 150.56 167.13 151.05 166.86 151.93 Z M 166.51 152.94 L 166.23 153.92 C 165.97 154.83 166.49 155.77 167.39 156.03 C 168.30 156.29 169.24 155.77 169.50 154.87 L 169.79 153.89 C 170.05 152.99 169.53 152.04 168.62 151.78 C 167.72 151.52 166.77 152.04 166.51 152.94 Z M 166.23 153.93 L 165.95 154.91 C 165.69 155.81 166.22 156.75 167.13 157.01 C 168.03 157.27 168.98 156.74 169.23 155.83 L 169.51 154.86 C 169.76 153.95 169.24 153.01 168.33 152.75 C 167.42 152.50 166.48 153.02 166.23 153.93 Z M 165.95 154.89 L 165.68 155.84 C 165.41 156.75 165.93 157.70 166.84 157.96 C 167.74 158.22 168.69 157.70 168.95 156.80 L 169.23 155.85 C 169.49 154.94 168.97 153.99 168.07 153.73 C 167.16 153.47 166.22 153.99 165.95 154.89 Z M 165.69 155.81 L 165.38 156.78 C 165.10 157.68 165.60 158.64 166.50 158.92 C 167.40 159.20 168.36 158.70 168.64 157.80 L 168.94 156.83 C 169.22 155.93 168.72 154.98 167.82 154.69 C 166.93 154.41 165.97 154.91 165.69 155.81 Z M 165.39 156.75 L 165.08 157.66 C 164.78 158.56 165.26 159.52 166.16 159.83 C 167.05 160.13 168.02 159.65 168.32 158.75 L 168.63 157.84 C 168.93 156.94 168.45 155.98 167.55 155.68 C 166.66 155.38 165.70 155.85 165.39 156.75 Z M 165.10 157.64 L 164.77 158.55 C 164.46 159.43 164.93 160.41 165.81 160.72 C 166.70 161.03 167.67 160.57 167.99 159.68 L 168.31 158.78 C 168.62 157.89 168.16 156.92 167.27 156.60 C 166.38 156.29 165.41 156.75 165.10 157.64 Z M 164.78 158.53 L 164.44 159.46 C 164.12 160.34 164.57 161.32 165.45 161.64 C 166.33 161.97 167.31 161.52 167.63 160.63 L 167.98 159.70 C 168.30 158.82 167.85 157.84 166.97 157.52 C 166.09 157.19 165.11 157.65 164.78 158.53 Z M 164.45 159.44 L 164.08 160.41 C 163.75 161.29 164.19 162.27 165.06 162.60 C 165.94 162.94 166.92 162.50 167.25 161.62 L 167.62 160.65 C 167.96 159.78 167.52 158.80 166.64 158.46 C 165.77 158.13 164.79 158.57 164.45 159.44 Z M 164.09 160.40 L 163.74 161.29 C 163.40 162.16 163.83 163.14 164.69 163.48 C 165.56 163.83 166.55 163.40 166.89 162.53 L 167.24 161.64 C 167.59 160.77 167.16 159.79 166.29 159.44 C 165.42 159.10 164.44 159.53 164.09 160.40 Z M 163.75 161.28 L 163.38 162.20 C 163.03 163.06 163.44 164.05 164.31 164.40 C 165.17 164.75 166.15 164.33 166.50 163.47 L 166.88 162.54 C 167.23 161.68 166.81 160.70 165.95 160.35 C 165.09 160.00 164.10 160.41 163.75 161.28 Z M 163.39 162.19 L 162.99 163.15 C 162.63 164.01 163.04 164.99 163.89 165.35 C 164.75 165.71 165.73 165.30 166.09 164.44 L 166.49 163.48 C 166.85 162.63 166.44 161.64 165.59 161.29 C 164.73 160.93 163.75 161.33 163.39 162.19 Z M 163.00 163.14 L 162.62 164.05 C 162.26 164.90 162.65 165.88 163.50 166.24 C 164.35 166.60 165.33 166.21 165.69 165.36 L 166.07 164.45 C 166.44 163.61 166.04 162.62 165.19 162.26 C 164.35 161.90 163.37 162.29 163.00 163.14 Z M 162.64 164.03 L 162.23 164.95 C 161.86 165.79 162.24 166.77 163.07 167.14 C 163.91 167.51 164.89 167.13 165.26 166.29 L 165.67 165.37 C 166.04 164.54 165.66 163.56 164.82 163.19 C 163.99 162.82 163.01 163.20 162.64 164.03 Z M 162.26 164.93 L 161.83 165.84 C 161.45 166.66 161.80 167.64 162.62 168.03 C 163.44 168.41 164.42 168.05 164.80 167.23 L 165.23 166.32 C 165.62 165.50 165.26 164.52 164.44 164.13 C 163.62 163.75 162.64 164.11 162.26 164.93 Z M 161.86 165.81 L 161.41 166.71 C 161.01 167.52 161.33 168.49 162.13 168.90 C 162.94 169.30 163.91 168.98 164.32 168.17 L 164.77 167.27 C 165.17 166.46 164.85 165.49 164.05 165.08 C 163.24 164.68 162.27 165.01 161.86 165.81 Z M 161.44 166.68 L 160.97 167.57 C 160.55 168.35 160.85 169.33 161.63 169.75 C 162.41 170.17 163.39 169.87 163.81 169.09 L 164.28 168.20 C 164.70 167.42 164.41 166.44 163.62 166.03 C 162.84 165.61 161.86 165.90 161.44 166.68 Z M 161.00 167.55 L 160.52 168.41 C 160.09 169.18 160.36 170.15 161.12 170.58 C 161.89 171.01 162.86 170.74 163.29 169.97 L 163.77 169.11 C 164.20 168.34 163.93 167.37 163.17 166.94 C 162.40 166.51 161.43 166.78 161.00 167.55 Z M 160.54 168.40 L 160.04 169.26 C 159.61 170.01 159.86 170.98 160.61 171.41 C 161.36 171.85 162.33 171.59 162.76 170.84 L 163.26 169.98 C 163.70 169.23 163.44 168.27 162.69 167.83 C 161.94 167.40 160.98 167.65 160.54 168.40 Z M 160.07 169.26 L 159.56 170.12 C 159.12 170.86 159.36 171.81 160.10 172.25 C 160.83 172.69 161.79 172.45 162.22 171.71 L 162.74 170.85 C 163.18 170.11 162.93 169.16 162.20 168.72 C 161.46 168.28 160.51 168.52 160.07 169.26 Z M 159.58 170.12 L 159.06 170.97 C 158.62 171.70 158.85 172.64 159.57 173.08 C 160.30 173.52 161.24 173.29 161.68 172.57 L 162.20 171.71 C 162.64 170.99 162.41 170.05 161.69 169.60 C 160.96 169.16 160.02 169.39 159.58 170.12 Z M 159.08 170.97 L 158.56 171.82 C 158.11 172.53 158.33 173.46 159.04 173.90 C 159.75 174.35 160.69 174.13 161.13 173.42 L 161.66 172.57 C 162.10 171.86 161.88 170.92 161.17 170.48 C 160.46 170.04 159.53 170.26 159.08 170.97 Z M 158.58 171.81 L 158.03 172.67 C 157.58 173.36 157.79 174.29 158.49 174.74 C 159.18 175.18 160.11 174.98 160.56 174.28 L 161.11 173.43 C 161.55 172.73 161.35 171.80 160.65 171.35 C 159.95 170.91 159.02 171.11 158.58 171.81 Z M 158.05 172.66 L 157.50 173.49 C 157.05 174.18 157.24 175.10 157.93 175.55 C 158.61 176.00 159.53 175.81 159.99 175.13 L 160.54 174.29 C 160.99 173.61 160.80 172.68 160.11 172.23 C 159.43 171.78 158.51 171.97 158.05 172.66 Z M 157.53 173.48 L 156.97 174.30 C 156.52 174.97 156.69 175.88 157.36 176.34 C 158.03 176.80 158.95 176.63 159.40 175.95 L 159.96 175.14 C 160.42 174.47 160.24 173.55 159.57 173.09 C 158.90 172.64 157.99 172.81 157.53 173.48 Z M 157.00 174.28 L 156.40 175.13 C 155.93 175.79 156.09 176.70 156.75 177.16 C 157.40 177.63 158.31 177.47 158.78 176.82 L 159.38 175.97 C 159.84 175.31 159.69 174.40 159.03 173.94 C 158.37 173.47 157.46 173.63 157.00 174.28 Z M 156.42 175.12 L 155.84 175.91 C 155.36 176.56 155.50 177.46 156.15 177.94 C 156.79 178.41 157.70 178.27 158.17 177.63 L 158.76 176.83 C 159.23 176.18 159.09 175.28 158.45 174.80 C 157.80 174.33 156.89 174.47 156.42 175.12 Z M 155.86 175.90 L 155.26 176.69 C 154.79 177.32 154.91 178.22 155.55 178.70 C 156.18 179.18 157.08 179.06 157.56 178.42 L 158.16 177.64 C 158.63 177.00 158.51 176.10 157.87 175.62 C 157.24 175.14 156.33 175.27 155.86 175.90 Z M 155.28 176.68 L 154.66 177.48 C 154.18 178.10 154.30 179.00 154.92 179.49 C 155.55 179.97 156.45 179.85 156.93 179.23 L 157.55 178.43 C 158.03 177.80 157.92 176.90 157.29 176.42 C 156.66 175.93 155.76 176.05 155.28 176.68 Z M 154.67 177.47 L 154.07 178.24 C 153.59 178.86 153.70 179.76 154.32 180.25 C 154.94 180.73 155.84 180.62 156.32 180.00 L 156.93 179.23 C 157.41 178.61 157.30 177.71 156.68 177.23 C 156.06 176.74 155.16 176.85 154.67 177.47 Z"
      fill="black"
      fill-rule="nonzero" /></svg>