<svg xmlns="http://www.w3.org/2000/svg" width="300" height="300" viewBox="0 0 300 300">
<path d="M 127.70 142.33 L 128.57 142.73 C 129.34 143.09 130.26 142.75 130.61 141.98 C 130.97 141.21 130.63 140.30 129.86 139.94 L 128.98 139.54 C 128.21 139.18 127.30 139.52 126.95 140.29 C 126.59 141.06 126.93 141.98 127.70 142.33 Z M 128.73 142.82 L 129.68 143.14 C 130.50 143.40 131.39 142.96 131.66 142.14 C 131.92 141.32 131.48 140.44 130.66 140.17 L 129.70 139.86 C 128.88 139.59 128.00 140.03 127.73 140.85 C 127.46 141.67 127.91 142.55 128.73 142.82 Z M 129.96 143.21 L 130.95 143.35 C 131.81 143.47 132.61 142.87 132.73 142.00 C 132.85 141.14 132.24 140.34 131.38 140.23 L 130.39 140.09 C 129.52 139.97 128.73 140.58 128.61 141.44 C 128.49 142.30 129.10 143.10 129.96 143.21 Z M 131.16 143.37 L 132.18 143.37 C 133.05 143.37 133.76 142.66 133.76 141.79 C 133.76 140.92 133.06 140.21 132.18 140.21 L 131.17 140.21 C 130.30 140.21 129.59 140.91 129.59 141.79 C 129.59 142.66 130.29 143.37 131.16 143.37 Z M 132.29 143.36 L 133.30 143.29 C 134.17 143.23 134.82 142.47 134.76 141.61 C 134.70 140.74 133.94 140.08 133.08 140.15 L 132.07 140.22 C 131.20 140.28 130.55 141.04 130.61 141.90 C 130.67 142.77 131.43 143.42 132.29 143.36 Z M 133.36 143.28 L 134.39 143.16 C 135.25 143.06 135.87 142.29 135.78 141.43 C 135.68 140.57 134.91 139.95 134.05 140.05 L 133.01 140.16 C 132.15 140.26 131.54 141.03 131.63 141.89 C 131.73 142.75 132.50 143.37 133.36 143.28 Z M 134.42 143.14 L 135.39 143.01 C 136.24 142.90 136.84 142.12 136.73 141.27 C 136.62 140.42 135.84 139.82 134.99 139.93 L 134.02 140.06 C 133.17 140.18 132.57 140.96 132.68 141.81 C 132.79 142.66 133.57 143.25 134.42 143.14 Z M 135.39 143.00 L 136.33 142.88 C 137.17 142.77 137.77 142.00 137.66 141.16 C 137.55 140.32 136.78 139.72 135.94 139.83 L 135.00 139.95 C 134.15 140.06 133.56 140.83 133.67 141.67 C 133.77 142.51 134.54 143.11 135.39 143.00 Z M 136.31 142.87 L 137.27 142.76 C 138.11 142.66 138.71 141.91 138.61 141.07 C 138.52 140.24 137.76 139.64 136.93 139.73 L 135.96 139.84 C 135.13 139.94 134.53 140.69 134.62 141.52 C 134.72 142.36 135.47 142.96 136.31 142.87 Z M 137.26 142.74 L 138.30 142.63 C 139.13 142.54 139.72 141.80 139.64 140.97 C 139.55 140.14 138.80 139.55 137.98 139.63 L 136.94 139.75 C 136.11 139.83 135.51 140.58 135.60 141.40 C 135.69 142.23 136.43 142.83 137.26 142.74 Z M 138.30 142.61 L 139.34 142.50 C 140.16 142.42 140.75 141.68 140.66 140.86 C 140.57 140.04 139.84 139.45 139.02 139.54 L 137.98 139.65 C 137.16 139.74 136.57 140.47 136.65 141.29 C 136.74 142.11 137.48 142.70 138.30 142.61 Z M 139.33 142.49 L 140.35 142.39 C 141.16 142.30 141.75 141.58 141.67 140.77 C 141.59 139.96 140.87 139.37 140.05 139.45 L 139.03 139.55 C 138.22 139.63 137.63 140.36 137.71 141.17 C 137.79 141.98 138.52 142.57 139.33 142.49 Z M 140.33 142.37 L 141.29 142.29 C 142.10 142.22 142.69 141.52 142.63 140.71 C 142.56 139.91 141.85 139.31 141.05 139.38 L 140.08 139.46 C 139.28 139.53 138.68 140.23 138.75 141.04 C 138.82 141.84 139.52 142.44 140.33 142.37 Z M 141.23 142.28 L 142.28 142.24 C 143.07 142.20 143.69 141.53 143.66 140.74 C 143.63 139.94 142.96 139.32 142.16 139.35 L 141.11 139.39 C 140.31 139.42 139.69 140.10 139.73 140.89 C 139.76 141.69 140.43 142.31 141.23 142.28 Z M 142.22 142.22 L 142.79 142.22 C 143.58 142.22 144.22 141.57 144.21 140.78 C 144.21 139.99 143.56 139.36 142.77 139.36 L 142.21 139.36 C 141.42 139.37 140.78 140.01 140.79 140.80 C 140.79 141.59 141.43 142.23 142.22 142.22 Z"
      fill="black"
      fill-rule="nonzero" /><path d="M 129.94 154.08 L 130.87 154.02 C 131.71 153.97 132.36 153.25 132.31 152.41 C 132.26 151.56 131.53 150.92 130.69 150.97 L 129.77 151.02 C 128.92 151.07 128.28 151.79 128.33 152.64 C 128.38 153.48 129.10 154.12 129.94 154.08 Z M 130.99 154.06 L 132.04 153.92 C 132.90 153.81 133.51 153.01 133.40 152.15 C 133.28 151.28 132.49 150.67 131.62 150.79 L 130.57 150.93 C 129.70 151.04 129.09 151.84 129.21 152.70 C 129.32 153.57 130.12 154.18 130.99 154.06 Z M 132.15 153.93 L 133.05 153.74 C 133.92 153.56 134.48 152.72 134.30 151.85 C 134.12 150.98 133.28 150.42 132.41 150.60 L 131.51 150.78 C 130.64 150.96 130.08 151.81 130.26 152.68 C 130.44 153.55 131.28 154.11 132.15 153.93 Z M 133.09 153.73 L 134.09 153.50 C 134.95 153.31 135.49 152.45 135.30 151.58 C 135.10 150.72 134.24 150.18 133.38 150.38 L 132.37 150.61 C 131.51 150.81 130.97 151.66 131.17 152.53 C 131.37 153.39 132.22 153.93 133.09 153.73 Z M 134.08 153.50 L 135.13 153.26 C 135.99 153.07 136.53 152.22 136.34 151.36 C 136.15 150.50 135.30 149.96 134.44 150.15 L 133.39 150.39 C 132.53 150.58 131.99 151.43 132.18 152.29 C 132.37 153.15 133.22 153.69 134.08 153.50 Z M 135.10 153.25 L 136.11 153.04 C 136.96 152.87 137.51 152.04 137.34 151.19 C 137.16 150.34 136.33 149.79 135.48 149.96 L 134.47 150.17 C 133.61 150.34 133.07 151.17 133.24 152.02 C 133.41 152.88 134.24 153.43 135.10 153.25 Z M 136.09 153.02 L 137.07 152.83 C 137.91 152.67 138.46 151.86 138.30 151.02 C 138.14 150.18 137.32 149.63 136.48 149.79 L 135.50 149.98 C 134.66 150.14 134.11 150.95 134.27 151.79 C 134.43 152.63 135.25 153.18 136.09 153.02 Z M 137.05 152.81 L 138.05 152.62 C 138.87 152.47 139.42 151.68 139.26 150.85 C 139.11 150.03 138.32 149.48 137.49 149.63 L 136.50 149.82 C 135.67 149.97 135.13 150.77 135.28 151.59 C 135.43 152.42 136.23 152.96 137.05 152.81 Z M 138.03 152.60 L 139.06 152.41 C 139.87 152.27 140.41 151.50 140.26 150.69 C 140.12 149.88 139.35 149.34 138.54 149.48 L 137.51 149.66 C 136.70 149.81 136.16 150.58 136.30 151.39 C 136.44 152.20 137.22 152.74 138.03 152.60 Z M 139.01 152.39 L 139.91 152.26 C 140.70 152.14 141.25 151.40 141.14 150.61 C 141.02 149.81 140.28 149.26 139.48 149.37 L 138.59 149.51 C 137.79 149.62 137.24 150.36 137.36 151.16 C 137.47 151.95 138.21 152.50 139.01 152.39 Z M 139.82 152.25 L 140.84 152.16 C 141.63 152.09 142.22 151.39 142.15 150.60 C 142.08 149.81 141.38 149.23 140.59 149.30 L 139.57 149.39 C 138.78 149.45 138.20 150.15 138.26 150.94 C 138.33 151.73 139.03 152.32 139.82 152.25 Z M 140.79 152.15 L 141.46 152.12 C 142.25 152.08 142.86 151.41 142.82 150.62 C 142.78 149.84 142.11 149.23 141.32 149.27 L 140.65 149.30 C 139.86 149.34 139.25 150.01 139.29 150.80 C 139.33 151.58 140.00 152.19 140.79 152.15 Z"
      fill="black"
      fill-rule="nonzero" /><path d="M 128.09 164.95 L 127.22 165.40 C 126.46 165.80 126.16 166.74 126.55 167.51 C 126.95 168.27 127.89 168.57 128.66 168.18 L 129.52 167.73 C 130.29 167.33 130.59 166.39 130.19 165.62 C 129.80 164.86 128.85 164.56 128.09 164.95 Z M 128.07 168.40 L 128.87 168.34 C 129.76 168.27 130.42 167.49 130.35 166.59 C 130.28 165.70 129.50 165.04 128.61 165.11 L 127.81 165.17 C 126.92 165.24 126.25 166.02 126.32 166.92 C 126.40 167.81 127.18 168.48 128.07 168.40 Z M 129.11 168.31 L 130.20 168.05 C 131.07 167.84 131.61 166.97 131.40 166.09 C 131.20 165.22 130.32 164.68 129.45 164.89 L 128.36 165.14 C 127.49 165.35 126.95 166.22 127.16 167.10 C 127.36 167.97 128.24 168.51 129.11 168.31 Z M 130.30 168.02 L 131.25 167.73 C 132.11 167.47 132.60 166.56 132.33 165.70 C 132.07 164.84 131.16 164.36 130.30 164.62 L 129.35 164.91 C 128.49 165.18 128.00 166.08 128.27 166.94 C 128.53 167.80 129.44 168.28 130.30 168.02 Z M 131.30 167.71 L 132.27 167.38 C 133.12 167.09 133.57 166.17 133.28 165.32 C 132.99 164.47 132.07 164.02 131.22 164.31 L 130.25 164.64 C 129.41 164.93 128.95 165.85 129.24 166.70 C 129.53 167.55 130.45 168.00 131.30 167.71 Z M 132.28 167.37 L 133.22 167.04 C 134.06 166.74 134.50 165.82 134.20 164.98 C 133.90 164.13 132.98 163.69 132.13 163.99 L 131.20 164.32 C 130.36 164.62 129.92 165.54 130.22 166.39 C 130.52 167.23 131.44 167.67 132.28 167.37 Z M 133.21 167.03 L 134.18 166.69 C 135.02 166.39 135.45 165.47 135.16 164.64 C 134.86 163.80 133.94 163.36 133.11 163.66 L 132.14 164.00 C 131.30 164.30 130.86 165.21 131.16 166.05 C 131.45 166.89 132.37 167.33 133.21 167.03 Z M 134.16 166.68 L 135.12 166.36 C 135.95 166.07 136.40 165.16 136.11 164.33 C 135.82 163.49 134.92 163.05 134.08 163.33 L 133.13 163.66 C 132.29 163.95 131.85 164.86 132.13 165.69 C 132.42 166.52 133.33 166.97 134.16 166.68 Z M 135.10 166.35 L 136.05 166.03 C 136.88 165.75 137.33 164.86 137.05 164.03 C 136.78 163.20 135.88 162.75 135.05 163.03 L 134.10 163.34 C 133.27 163.62 132.82 164.52 133.10 165.34 C 133.37 166.17 134.27 166.62 135.10 166.35 Z M 136.04 166.02 L 136.97 165.71 C 137.80 165.44 138.24 164.56 137.98 163.74 C 137.71 162.91 136.82 162.47 136.00 162.73 L 135.07 163.04 C 134.24 163.31 133.80 164.19 134.06 165.02 C 134.33 165.84 135.22 166.29 136.04 166.02 Z M 136.97 165.69 L 137.82 165.41 C 138.63 165.15 139.08 164.28 138.81 163.47 C 138.55 162.65 137.68 162.21 136.86 162.47 L 136.01 162.75 C 135.20 163.02 134.75 163.89 135.02 164.70 C 135.28 165.51 136.15 165.96 136.97 165.69 Z M 137.81 165.39 L 138.74 165.09 C 139.54 164.83 139.98 163.97 139.72 163.17 C 139.46 162.37 138.60 161.93 137.80 162.19 L 136.87 162.50 C 136.07 162.76 135.63 163.61 135.89 164.41 C 136.15 165.21 137.01 165.65 137.81 165.39 Z M 138.74 165.07 L 139.80 164.73 C 140.59 164.47 141.02 163.62 140.76 162.84 C 140.51 162.05 139.66 161.61 138.87 161.87 L 137.81 162.21 C 137.02 162.47 136.59 163.32 136.85 164.10 C 137.10 164.89 137.95 165.33 138.74 165.07 Z M 139.79 164.71 L 140.64 164.44 C 141.42 164.18 141.85 163.35 141.59 162.57 C 141.34 161.79 140.50 161.36 139.72 161.61 L 138.88 161.89 C 138.10 162.14 137.67 162.98 137.92 163.76 C 138.17 164.54 139.01 164.96 139.79 164.71 Z M 140.63 164.43 L 141.56 164.13 C 142.34 163.88 142.76 163.04 142.51 162.27 C 142.26 161.50 141.43 161.07 140.66 161.32 L 139.73 161.62 C 138.95 161.87 138.53 162.70 138.78 163.48 C 139.03 164.25 139.86 164.68 140.63 164.43 Z M 141.56 164.12 L 142.55 163.80 C 143.32 163.55 143.74 162.72 143.49 161.95 C 143.24 161.19 142.42 160.76 141.65 161.01 L 140.66 161.33 C 139.89 161.58 139.47 162.41 139.72 163.17 C 139.97 163.94 140.79 164.36 141.56 164.12 Z M 142.54 163.79 L 143.57 163.46 C 144.33 163.21 144.75 162.39 144.50 161.63 C 144.25 160.87 143.44 160.45 142.67 160.69 L 141.65 161.02 C 140.89 161.27 140.47 162.09 140.72 162.85 C 140.96 163.61 141.78 164.03 142.54 163.79 Z M 143.56 163.45 L 144.01 163.30 C 144.77 163.06 145.19 162.24 144.94 161.49 C 144.70 160.73 143.88 160.31 143.12 160.56 L 142.68 160.70 C 141.92 160.95 141.50 161.76 141.75 162.52 C 141.99 163.28 142.80 163.69 143.56 163.45 Z"
      fill="black"
      fill-rule="nonzero" /><path d="M 146.47 131.90 L 145.58 132.61 C 144.94 133.12 144.83 134.06 145.34 134.70 C 145.85 135.34 146.79 135.45 147.43 134.94 L 148.32 134.23 C 148.96 133.72 149.07 132.79 148.56 132.14 C 148.05 131.50 147.12 131.39 146.47 131.90 Z M 144.98 133.95 L 145.05 134.51 C 145.15 135.35 145.91 135.96 146.75 135.86 C 147.59 135.76 148.19 135.00 148.09 134.16 L 148.03 133.60 C 147.93 132.76 147.17 132.15 146.33 132.25 C 145.49 132.35 144.88 133.11 144.98 133.95 Z M 146.03 135.81 L 147.03 136.17 C 147.84 136.47 148.74 136.05 149.04 135.24 C 149.34 134.43 148.92 133.53 148.11 133.23 L 147.11 132.86 C 146.30 132.57 145.40 132.98 145.10 133.79 C 144.80 134.61 145.22 135.51 146.03 135.81 Z M 147.28 136.26 L 148.32 136.45 C 149.18 136.61 150.01 136.04 150.17 135.18 C 150.33 134.32 149.76 133.49 148.90 133.33 L 147.86 133.14 C 146.99 132.98 146.17 133.55 146.01 134.41 C 145.85 135.28 146.42 136.10 147.28 136.26 Z M 148.45 136.48 L 149.44 136.58 C 150.32 136.66 151.10 136.02 151.19 135.15 C 151.27 134.27 150.63 133.49 149.75 133.40 L 148.77 133.31 C 147.89 133.22 147.11 133.86 147.02 134.74 C 146.94 135.61 147.58 136.39 148.45 136.48 Z M 149.53 136.59 L 150.51 136.63 C 151.39 136.67 152.14 135.98 152.18 135.10 C 152.21 134.22 151.53 133.47 150.65 133.44 L 149.67 133.39 C 148.79 133.36 148.04 134.04 148.00 134.92 C 147.97 135.80 148.65 136.55 149.53 136.59 Z M 150.56 136.63 L 151.55 136.64 C 152.44 136.65 153.16 135.94 153.17 135.06 C 153.18 134.18 152.47 133.46 151.59 133.45 L 150.60 133.43 C 149.71 133.42 148.99 134.13 148.98 135.01 C 148.97 135.90 149.68 136.62 150.56 136.63 Z M 151.58 136.64 L 152.63 136.63 C 153.51 136.63 154.22 135.91 154.21 135.03 C 154.21 134.14 153.49 133.43 152.61 133.44 L 151.56 133.45 C 150.68 133.45 149.97 134.17 149.97 135.05 C 149.98 135.94 150.70 136.65 151.58 136.64 Z M 152.65 136.63 L 153.69 136.62 C 154.57 136.60 155.27 135.87 155.26 134.99 C 155.24 134.11 154.51 133.40 153.63 133.42 L 152.59 133.44 C 151.71 133.45 151.00 134.18 151.02 135.07 C 151.03 135.95 151.76 136.65 152.65 136.63 Z M 153.73 136.62 L 154.72 136.57 C 155.60 136.53 156.29 135.79 156.25 134.91 C 156.21 134.02 155.46 133.34 154.58 133.38 L 153.59 133.42 C 152.71 133.46 152.02 134.20 152.06 135.09 C 152.10 135.97 152.85 136.65 153.73 136.62 Z M 154.81 136.56 L 155.84 136.46 C 156.72 136.37 157.36 135.59 157.27 134.71 C 157.18 133.83 156.40 133.19 155.52 133.28 L 154.49 133.39 C 153.61 133.47 152.97 134.26 153.06 135.14 C 153.15 136.01 153.93 136.65 154.81 136.56 Z M 155.97 136.43 L 156.91 136.26 C 157.78 136.10 158.35 135.27 158.18 134.40 C 158.02 133.54 157.19 132.97 156.33 133.13 L 155.39 133.31 C 154.52 133.47 153.95 134.30 154.12 135.16 C 154.28 136.03 155.11 136.60 155.97 136.43 Z M 157.00 136.23 L 157.95 135.99 C 158.79 135.78 159.31 134.92 159.10 134.08 C 158.89 133.23 158.03 132.72 157.18 132.93 L 156.24 133.16 C 155.39 133.37 154.88 134.23 155.09 135.08 C 155.30 135.92 156.16 136.44 157.00 136.23 Z M 158.01 135.96 L 158.96 135.68 C 159.79 135.44 160.27 134.57 160.02 133.74 C 159.78 132.91 158.91 132.43 158.07 132.68 L 157.12 132.96 C 156.29 133.20 155.82 134.07 156.06 134.90 C 156.31 135.73 157.18 136.21 158.01 135.96 Z M 159.01 135.65 L 159.96 135.34 C 160.78 135.06 161.22 134.18 160.94 133.37 C 160.67 132.55 159.79 132.11 158.97 132.39 L 158.02 132.70 C 157.21 132.98 156.77 133.86 157.04 134.67 C 157.31 135.49 158.20 135.93 159.01 135.65 Z M 159.98 135.32 L 160.93 134.98 C 161.74 134.70 162.16 133.82 161.87 133.01 C 161.59 132.21 160.71 131.79 159.90 132.07 L 158.95 132.41 C 158.15 132.69 157.73 133.57 158.01 134.38 C 158.30 135.18 159.18 135.60 159.98 135.32 Z M 160.96 134.96 L 161.88 134.62 C 162.67 134.32 163.07 133.43 162.77 132.64 C 162.47 131.85 161.59 131.45 160.79 131.74 L 159.88 132.09 C 159.08 132.39 158.68 133.27 158.98 134.07 C 159.28 134.86 160.16 135.26 160.96 134.96 Z M 161.92 134.59 L 162.72 134.26 C 163.50 133.94 163.87 133.05 163.55 132.27 C 163.23 131.49 162.33 131.12 161.55 131.44 L 160.75 131.77 C 159.97 132.09 159.60 132.98 159.92 133.76 C 160.25 134.54 161.14 134.91 161.92 134.59 Z M 162.74 134.24 L 163.77 133.80 C 164.54 133.46 164.89 132.57 164.56 131.80 C 164.23 131.03 163.33 130.68 162.57 131.01 L 161.53 131.46 C 160.76 131.79 160.41 132.68 160.74 133.45 C 161.08 134.22 161.97 134.58 162.74 134.24 Z M 163.77 133.79 L 164.66 133.40 C 165.42 133.07 165.77 132.18 165.44 131.41 C 165.11 130.65 164.22 130.30 163.45 130.63 L 162.56 131.02 C 161.80 131.35 161.45 132.24 161.78 133.01 C 162.12 133.77 163.01 134.12 163.77 133.79 Z M 164.66 133.39 L 165.62 132.97 C 166.38 132.64 166.73 131.76 166.40 131.00 C 166.07 130.24 165.18 129.89 164.42 130.22 L 163.46 130.64 C 162.69 130.97 162.35 131.86 162.68 132.62 C 163.01 133.38 163.90 133.73 164.66 133.39 Z M 165.61 132.97 L 166.54 132.57 C 167.30 132.24 167.65 131.36 167.32 130.60 C 166.99 129.84 166.11 129.50 165.35 129.82 L 164.43 130.22 C 163.67 130.55 163.32 131.43 163.65 132.19 C 163.97 132.95 164.85 133.30 165.61 132.97 Z M 166.52 132.56 L 167.54 132.13 C 168.29 131.81 168.64 130.94 168.32 130.19 C 168.00 129.43 167.14 129.08 166.38 129.40 L 165.37 129.83 C 164.61 130.15 164.26 131.02 164.58 131.78 C 164.90 132.53 165.77 132.88 166.52 132.56 Z M 167.52 132.11 L 168.38 131.75 C 169.12 131.44 169.47 130.59 169.16 129.85 C 168.86 129.10 168.00 128.75 167.26 129.06 L 166.40 129.42 C 165.66 129.73 165.31 130.58 165.62 131.32 C 165.93 132.07 166.78 132.42 167.52 132.11 Z M 168.37 131.74 L 168.64 131.63 C 169.38 131.32 169.73 130.48 169.43 129.74 C 169.12 129.01 168.28 128.66 167.54 128.96 L 167.27 129.07 C 166.53 129.38 166.18 130.22 166.49 130.96 C 166.79 131.69 167.64 132.04 168.37 131.74 Z"
      fill="black"
      fill-rule="nonzero" /><path d="M 151.21 128.38 L 151.41 129.32 C 151.58 130.17 152.41 130.70 153.25 130.52 C 154.09 130.34 154.63 129.52 154.45 128.68 L 154.25 127.74 C 154.07 126.90 153.24 126.36 152.40 126.54 C 151.56 126.72 151.03 127.54 151.21 128.38 Z M 151.39 129.32 L 151.60 130.31 C 151.78 131.16 152.61 131.70 153.46 131.52 C 154.31 131.35 154.85 130.51 154.67 129.67 L 154.46 128.68 C 154.28 127.83 153.45 127.29 152.61 127.47 C 151.76 127.64 151.21 128.48 151.39 129.32 Z M 151.59 130.30 L 151.78 131.25 C 151.95 132.10 152.78 132.65 153.63 132.48 C 154.48 132.31 155.04 131.48 154.87 130.63 L 154.68 129.68 C 154.51 128.83 153.68 128.28 152.83 128.45 C 151.98 128.62 151.42 129.44 151.59 130.30 Z M 151.77 131.20 L 151.95 132.24 C 152.09 133.10 152.90 133.67 153.76 133.53 C 154.62 133.39 155.19 132.58 155.05 131.72 L 154.87 130.68 C 154.73 129.82 153.92 129.24 153.06 129.39 C 152.21 129.53 151.63 130.34 151.77 131.20 Z M 151.94 132.18 L 152.07 133.15 C 152.18 134.01 152.97 134.61 153.83 134.50 C 154.69 134.39 155.29 133.60 155.18 132.74 L 155.05 131.78 C 154.94 130.92 154.16 130.31 153.30 130.42 C 152.44 130.54 151.83 131.32 151.94 132.18 Z M 152.07 133.10 L 152.17 134.11 C 152.26 134.97 153.02 135.60 153.88 135.51 C 154.74 135.42 155.37 134.66 155.28 133.80 L 155.18 132.79 C 155.09 131.93 154.33 131.30 153.47 131.39 C 152.61 131.48 151.98 132.24 152.07 133.10 Z M 152.17 134.07 L 152.25 135.08 C 152.32 135.94 153.06 136.58 153.92 136.52 C 154.77 136.45 155.42 135.71 155.35 134.85 L 155.28 133.84 C 155.21 132.98 154.46 132.34 153.61 132.40 C 152.75 132.47 152.11 133.22 152.17 134.07 Z M 152.26 135.06 L 152.32 136.05 C 152.37 136.90 153.10 137.55 153.95 137.50 C 154.80 137.45 155.45 136.73 155.40 135.87 L 155.34 134.88 C 155.29 134.03 154.56 133.38 153.71 133.43 C 152.86 133.47 152.21 134.20 152.26 135.06 Z M 152.33 136.04 L 152.38 137.04 C 152.42 137.89 153.14 138.54 153.98 138.49 C 154.83 138.45 155.48 137.73 155.44 136.89 L 155.39 135.89 C 155.35 135.04 154.63 134.39 153.78 134.44 C 152.94 134.48 152.29 135.20 152.33 136.04 Z M 152.39 137.04 L 152.44 138.00 C 152.48 138.84 153.19 139.49 154.03 139.44 C 154.87 139.40 155.51 138.69 155.47 137.85 L 155.42 136.89 C 155.38 136.05 154.67 135.41 153.83 135.45 C 153.00 135.49 152.35 136.20 152.39 137.04 Z M 152.45 138.01 L 152.51 138.99 C 152.55 139.82 153.26 140.46 154.09 140.41 C 154.92 140.37 155.55 139.66 155.51 138.83 L 155.46 137.85 C 155.41 137.02 154.71 136.38 153.88 136.43 C 153.05 136.47 152.41 137.18 152.45 138.01 Z M 152.52 139.00 L 152.58 140.05 C 152.63 140.87 153.34 141.49 154.16 141.44 C 154.98 141.39 155.61 140.69 155.56 139.87 L 155.50 138.82 C 155.45 138.00 154.74 137.37 153.92 137.42 C 153.10 137.47 152.47 138.18 152.52 139.00 Z M 152.60 140.06 L 152.67 141.09 C 152.72 141.91 153.43 142.52 154.24 142.47 C 155.06 142.41 155.67 141.71 155.62 140.89 L 155.55 139.85 C 155.49 139.04 154.78 138.43 153.97 138.48 C 153.16 138.54 152.54 139.24 152.60 140.06 Z M 152.68 141.12 L 152.77 142.15 C 152.84 142.96 153.55 143.56 154.36 143.49 C 155.17 143.42 155.76 142.71 155.69 141.90 L 155.60 140.87 C 155.53 140.06 154.82 139.46 154.02 139.53 C 153.21 139.60 152.61 140.31 152.68 141.12 Z M 152.79 142.20 L 152.91 143.15 C 153.00 143.94 153.73 144.51 154.52 144.41 C 155.32 144.32 155.89 143.59 155.79 142.79 L 155.67 141.85 C 155.58 141.05 154.85 140.49 154.06 140.58 C 153.26 140.68 152.69 141.41 152.79 142.20 Z M 152.94 143.26 L 153.15 144.33 C 153.31 145.11 154.07 145.61 154.85 145.45 C 155.63 145.29 156.14 144.53 155.98 143.75 L 155.76 142.68 C 155.60 141.90 154.84 141.40 154.06 141.56 C 153.28 141.72 152.78 142.48 152.94 143.26 Z M 153.20 144.47 L 153.47 145.34 C 153.71 146.10 154.52 146.52 155.27 146.28 C 156.03 146.04 156.44 145.24 156.21 144.48 L 155.93 143.61 C 155.69 142.85 154.89 142.43 154.14 142.67 C 153.38 142.91 152.96 143.71 153.20 144.47 Z M 153.50 145.39 L 153.56 145.57 C 153.82 146.31 154.64 146.70 155.38 146.44 C 156.12 146.18 156.51 145.36 156.25 144.62 L 156.19 144.44 C 155.92 143.69 155.11 143.31 154.36 143.57 C 153.62 143.83 153.23 144.65 153.50 145.39 Z"
      fill="black"
      fill-rule="nonzero" /><path d="M 161.26 128.18 L 161.26 129.19 C 161.25 130.04 161.94 130.74 162.80 130.75 C 163.65 130.75 164.35 130.06 164.36 129.21 L 164.36 128.20 C 164.37 127.34 163.68 126.64 162.82 126.64 C 161.97 126.63 161.27 127.32 161.26 128.18 Z M 161.25 129.14 L 161.21 130.13 C 161.18 130.99 161.85 131.72 162.71 131.75 C 163.57 131.78 164.29 131.11 164.33 130.25 L 164.37 129.26 C 164.40 128.40 163.73 127.67 162.87 127.64 C 162.01 127.61 161.28 128.28 161.25 129.14 Z M 161.21 130.03 L 161.11 131.00 C 161.02 131.86 161.65 132.63 162.50 132.72 C 163.36 132.81 164.13 132.19 164.22 131.33 L 164.32 130.35 C 164.41 129.50 163.79 128.73 162.93 128.64 C 162.07 128.55 161.30 129.17 161.21 130.03 Z M 161.13 130.90 L 160.97 131.88 C 160.82 132.73 161.39 133.54 162.24 133.68 C 163.09 133.82 163.89 133.25 164.03 132.41 L 164.20 131.43 C 164.35 130.58 163.78 129.77 162.93 129.63 C 162.08 129.49 161.28 130.06 161.13 130.90 Z M 160.98 131.83 L 160.77 132.84 C 160.60 133.68 161.14 134.50 161.97 134.67 C 162.81 134.84 163.63 134.31 163.80 133.47 L 164.02 132.46 C 164.19 131.62 163.65 130.80 162.82 130.63 C 161.98 130.46 161.16 130.99 160.98 131.83 Z M 160.79 132.81 L 160.56 133.82 C 160.37 134.64 160.89 135.47 161.72 135.66 C 162.54 135.85 163.37 135.33 163.56 134.50 L 163.79 133.50 C 163.98 132.67 163.46 131.85 162.63 131.66 C 161.81 131.47 160.98 131.98 160.79 132.81 Z M 160.58 133.79 L 160.34 134.72 C 160.14 135.54 160.64 136.37 161.46 136.58 C 162.27 136.78 163.10 136.28 163.31 135.46 L 163.54 134.53 C 163.74 133.71 163.25 132.88 162.43 132.68 C 161.61 132.47 160.78 132.97 160.58 133.79 Z M 160.37 134.68 L 160.10 135.62 C 159.88 136.43 160.35 137.26 161.15 137.49 C 161.95 137.72 162.79 137.25 163.02 136.45 L 163.28 135.51 C 163.51 134.70 163.04 133.87 162.24 133.64 C 161.43 133.41 160.60 133.88 160.37 134.68 Z M 160.13 135.58 L 159.83 136.54 C 159.58 137.33 160.02 138.17 160.80 138.42 C 161.59 138.67 162.43 138.23 162.68 137.44 L 162.99 136.49 C 163.24 135.70 162.80 134.86 162.01 134.61 C 161.23 134.36 160.38 134.80 160.13 135.58 Z M 159.85 136.52 L 159.55 137.42 C 159.29 138.20 159.71 139.04 160.48 139.30 C 161.26 139.56 162.10 139.14 162.36 138.36 L 162.66 137.46 C 162.92 136.68 162.50 135.84 161.73 135.58 C 160.95 135.32 160.11 135.74 159.85 136.52 Z M 159.56 137.40 L 159.22 138.38 C 158.95 139.15 159.35 140.00 160.12 140.27 C 160.89 140.54 161.73 140.13 162.00 139.36 L 162.35 138.38 C 162.62 137.61 162.21 136.77 161.44 136.50 C 160.68 136.23 159.83 136.63 159.56 137.40 Z M 159.24 138.36 L 158.87 139.34 C 158.58 140.10 158.97 140.94 159.73 141.23 C 160.49 141.51 161.33 141.13 161.62 140.37 L 161.99 139.39 C 162.27 138.63 161.89 137.78 161.13 137.50 C 160.37 137.21 159.52 137.60 159.24 138.36 Z M 158.89 139.30 L 158.51 140.24 C 158.21 140.98 158.56 141.83 159.31 142.14 C 160.05 142.44 160.91 142.08 161.21 141.34 L 161.59 140.40 C 161.90 139.66 161.54 138.81 160.79 138.50 C 160.05 138.20 159.20 138.56 158.89 139.30 Z M 158.54 140.19 L 158.14 141.08 C 157.82 141.81 158.14 142.66 158.87 142.99 C 159.60 143.32 160.45 142.99 160.78 142.27 L 161.18 141.38 C 161.51 140.65 161.18 139.80 160.45 139.47 C 159.73 139.14 158.87 139.47 158.54 140.19 Z M 158.18 141.02 L 157.70 141.97 C 157.34 142.68 157.63 143.54 158.34 143.90 C 159.04 144.26 159.91 143.98 160.27 143.27 L 160.74 142.32 C 161.10 141.61 160.82 140.75 160.11 140.39 C 159.40 140.03 158.54 140.32 158.18 141.02 Z M 157.75 141.89 L 157.26 142.73 C 156.86 143.41 157.09 144.29 157.77 144.69 C 158.45 145.09 159.33 144.86 159.73 144.18 L 160.22 143.34 C 160.62 142.66 160.39 141.78 159.71 141.38 C 159.03 140.98 158.15 141.21 157.75 141.89 Z M 157.34 142.61 L 156.74 143.43 C 156.28 144.07 156.41 144.96 157.05 145.42 C 157.68 145.89 158.58 145.75 159.04 145.12 L 159.64 144.30 C 160.11 143.67 159.97 142.77 159.34 142.31 C 158.70 141.84 157.81 141.98 157.34 142.61 Z M 156.83 143.32 L 156.22 143.99 C 155.70 144.58 155.74 145.48 156.33 146.01 C 156.91 146.54 157.81 146.49 158.34 145.91 L 158.95 145.23 C 159.48 144.65 159.43 143.74 158.85 143.22 C 158.26 142.69 157.36 142.73 156.83 143.32 Z"
      fill="black"
      fill-rule="nonzero" /><path d="M 150.72 152.58 L 150.46 151.55 C 150.26 150.73 149.44 150.23 148.62 150.43 C 147.80 150.63 147.30 151.46 147.50 152.28 L 147.76 153.31 C 147.96 154.13 148.78 154.63 149.60 154.43 C 150.42 154.22 150.92 153.40 150.72 152.58 Z M 147.42 151.79 L 147.36 152.50 C 147.29 153.37 147.94 154.12 148.80 154.19 C 149.67 154.26 150.42 153.62 150.49 152.75 L 150.55 152.04 C 150.62 151.17 149.97 150.41 149.11 150.34 C 148.24 150.28 147.49 150.92 147.42 151.79 Z M 147.35 152.72 L 147.41 153.81 C 147.46 154.68 148.20 155.35 149.08 155.30 C 149.95 155.25 150.62 154.51 150.57 153.63 L 150.51 152.54 C 150.46 151.66 149.71 151.00 148.84 151.05 C 147.96 151.10 147.30 151.84 147.35 152.72 Z M 147.41 153.85 L 147.49 154.86 C 147.56 155.73 148.32 156.39 149.20 156.32 C 150.07 156.25 150.72 155.48 150.65 154.61 L 150.57 153.59 C 150.50 152.72 149.73 152.07 148.86 152.14 C 147.99 152.21 147.34 152.98 147.41 153.85 Z M 147.49 154.84 L 147.55 155.83 C 147.62 156.70 148.37 157.36 149.25 157.30 C 150.12 157.24 150.78 156.48 150.72 155.61 L 150.65 154.62 C 150.59 153.75 149.83 153.09 148.96 153.15 C 148.08 153.21 147.42 153.97 147.49 154.84 Z M 147.55 155.81 L 147.61 156.80 C 147.66 157.67 148.41 158.34 149.28 158.29 C 150.16 158.24 150.82 157.50 150.78 156.62 L 150.72 155.63 C 150.67 154.76 149.92 154.09 149.05 154.14 C 148.18 154.19 147.51 154.93 147.55 155.81 Z M 147.61 156.79 L 147.66 157.84 C 147.71 158.72 148.45 159.39 149.32 159.35 C 150.20 159.30 150.87 158.56 150.83 157.69 L 150.77 156.63 C 150.73 155.76 149.99 155.09 149.12 155.13 C 148.24 155.17 147.57 155.91 147.61 156.79 Z M 147.67 157.84 L 147.72 158.88 C 147.76 159.76 148.50 160.43 149.37 160.39 C 150.24 160.35 150.91 159.61 150.87 158.74 L 150.82 157.69 C 150.78 156.82 150.04 156.15 149.17 156.19 C 148.30 156.23 147.63 156.97 147.67 157.84 Z M 147.72 158.88 L 147.76 159.88 C 147.80 160.75 148.53 161.42 149.40 161.38 C 150.27 161.35 150.94 160.62 150.91 159.75 L 150.86 158.75 C 150.83 157.88 150.10 157.20 149.23 157.24 C 148.36 157.28 147.69 158.01 147.72 158.88 Z M 147.77 159.86 L 147.80 160.88 C 147.83 161.74 148.55 162.42 149.41 162.40 C 150.27 162.37 150.95 161.65 150.93 160.79 L 150.90 159.77 C 150.87 158.90 150.15 158.22 149.29 158.25 C 148.42 158.27 147.74 158.99 147.77 159.86 Z M 147.81 160.85 L 147.82 161.82 C 147.83 162.68 148.53 163.37 149.39 163.36 C 150.25 163.35 150.94 162.65 150.93 161.79 L 150.92 160.82 C 150.91 159.96 150.21 159.27 149.35 159.28 C 148.49 159.29 147.80 159.99 147.81 160.85 Z M 147.83 161.80 L 147.83 162.76 C 147.83 163.61 148.52 164.30 149.37 164.30 C 150.23 164.30 150.92 163.61 150.92 162.76 L 150.92 161.80 C 150.92 160.95 150.23 160.26 149.37 160.26 C 148.52 160.26 147.83 160.95 147.83 161.80 Z M 147.84 162.76 L 147.84 163.76 C 147.84 164.61 148.53 165.29 149.37 165.29 C 150.22 165.29 150.91 164.61 150.91 163.76 L 150.91 162.76 C 150.91 161.91 150.22 161.22 149.37 161.22 C 148.53 161.22 147.84 161.91 147.84 162.76 Z M 147.85 163.76 L 147.85 164.76 C 147.85 165.61 148.53 166.29 149.37 166.29 C 150.22 166.29 150.90 165.61 150.90 164.76 L 150.90 163.76 C 150.90 162.92 150.22 162.23 149.37 162.23 C 148.53 162.23 147.85 162.92 147.85 163.76 Z M 147.86 164.76 L 147.86 165.72 C 147.86 166.55 148.54 167.23 149.37 167.23 C 150.21 167.23 150.89 166.55 150.89 165.72 L 150.89 164.76 C 150.89 163.93 150.21 163.25 149.37 163.25 C 148.54 163.25 147.86 163.93 147.86 164.76 Z M 147.87 165.72 L 147.87 166.72 C 147.87 167.55 148.54 168.23 149.37 168.23 C 150.21 168.23 150.88 167.55 150.88 166.72 L 150.88 165.72 C 150.88 164.89 150.21 164.21 149.37 164.21 C 148.54 164.21 147.87 164.89 147.87 165.72 Z M 147.88 166.72 L 147.88 167.72 C 147.88 168.55 148.55 169.22 149.38 169.22 C 150.20 169.22 150.87 168.55 150.87 167.72 L 150.87 166.72 C 150.87 165.90 150.20 165.23 149.37 165.23 C 148.55 165.23 147.88 165.90 147.88 166.72 Z M 147.89 167.74 L 147.90 168.76 C 147.91 169.58 148.58 170.24 149.40 170.24 C 150.22 170.23 150.88 169.56 150.87 168.74 L 150.86 167.71 C 150.85 166.89 150.18 166.23 149.36 166.24 C 148.54 166.24 147.88 166.91 147.89 167.74 Z M 147.91 168.79 L 147.94 169.83 C 147.96 170.64 148.64 171.29 149.45 171.26 C 150.27 171.24 150.91 170.56 150.89 169.75 L 150.86 168.71 C 150.84 167.90 150.16 167.25 149.34 167.28 C 148.53 167.30 147.89 167.98 147.91 168.79 Z M 147.95 169.86 L 148.00 170.86 C 148.05 171.66 148.73 172.28 149.54 172.24 C 150.34 172.20 150.96 171.51 150.92 170.71 L 150.87 169.71 C 150.83 168.91 150.14 168.29 149.34 168.33 C 148.53 168.37 147.91 169.06 147.95 169.86 Z M 148.02 170.87 L 148.05 171.45 C 148.10 172.25 148.79 172.86 149.59 172.81 C 150.39 172.76 150.99 172.07 150.95 171.27 L 150.91 170.69 C 150.86 169.89 150.17 169.29 149.37 169.34 C 148.58 169.39 147.97 170.07 148.02 170.87 Z"
      fill="black"
      fill-rule="nonzero" /><path d="M 152.56 156.59 L 153.48 156.36 C 154.29 156.17 154.79 155.35 154.59 154.54 C 154.39 153.74 153.58 153.24 152.77 153.44 L 151.85 153.66 C 151.04 153.86 150.54 154.67 150.74 155.48 C 150.94 156.29 151.75 156.78 152.56 156.59 Z M 153.51 156.40 L 154.50 156.14 C 155.32 155.93 155.82 155.08 155.61 154.25 C 155.39 153.43 154.55 152.93 153.72 153.14 L 152.74 153.40 C 151.91 153.61 151.41 154.46 151.63 155.29 C 151.84 156.12 152.69 156.61 153.51 156.40 Z M 154.54 156.16 L 155.54 155.88 C 156.38 155.64 156.87 154.76 156.63 153.92 C 156.39 153.08 155.52 152.60 154.68 152.84 L 153.67 153.13 C 152.83 153.36 152.35 154.24 152.59 155.08 C 152.83 155.92 153.70 156.40 154.54 156.16 Z M 155.57 155.88 L 156.56 155.58 C 157.40 155.33 157.88 154.44 157.63 153.60 C 157.37 152.76 156.49 152.28 155.65 152.54 L 154.65 152.84 C 153.81 153.09 153.34 153.98 153.59 154.82 C 153.84 155.66 154.73 156.13 155.57 155.88 Z M 156.56 155.58 L 157.49 155.30 C 158.33 155.05 158.80 154.16 158.55 153.32 C 158.30 152.48 157.41 152.00 156.57 152.26 L 155.65 152.54 C 154.81 152.79 154.33 153.68 154.58 154.52 C 154.84 155.36 155.72 155.83 156.56 155.58 Z M 157.46 155.31 L 158.50 155.02 C 159.34 154.78 159.83 153.90 159.60 153.06 C 159.36 152.21 158.48 151.72 157.64 151.96 L 156.60 152.25 C 155.76 152.49 155.26 153.36 155.50 154.21 C 155.74 155.05 156.61 155.55 157.46 155.31 Z M 158.46 155.03 L 159.34 154.80 C 160.19 154.59 160.70 153.72 160.49 152.88 C 160.27 152.03 159.41 151.51 158.56 151.73 L 157.68 151.95 C 156.83 152.17 156.31 153.03 156.53 153.88 C 156.74 154.73 157.61 155.24 158.46 155.03 Z M 159.32 154.80 L 160.29 154.57 C 161.14 154.37 161.66 153.51 161.46 152.66 C 161.25 151.81 160.40 151.29 159.55 151.49 L 158.58 151.73 C 157.73 151.93 157.21 152.78 157.41 153.63 C 157.61 154.48 158.47 155.01 159.32 154.80 Z M 160.26 154.57 L 161.24 154.36 C 162.09 154.17 162.63 153.32 162.44 152.47 C 162.25 151.62 161.41 151.08 160.55 151.27 L 159.58 151.49 C 158.73 151.68 158.19 152.52 158.38 153.37 C 158.57 154.23 159.41 154.76 160.26 154.57 Z M 161.21 154.36 L 162.19 154.16 C 163.04 153.99 163.59 153.16 163.42 152.31 C 163.25 151.45 162.42 150.90 161.56 151.07 L 160.59 151.27 C 159.73 151.44 159.18 152.27 159.35 153.13 C 159.53 153.98 160.36 154.53 161.21 154.36 Z M 162.17 154.16 L 163.15 153.97 C 164.00 153.81 164.56 152.98 164.40 152.13 C 164.23 151.28 163.41 150.73 162.56 150.89 L 161.58 151.08 C 160.73 151.24 160.17 152.06 160.34 152.91 C 160.50 153.76 161.32 154.32 162.17 154.16 Z M 163.14 153.97 L 164.12 153.79 C 164.97 153.63 165.53 152.82 165.38 151.97 C 165.22 151.12 164.41 150.56 163.56 150.71 L 162.58 150.89 C 161.73 151.05 161.17 151.86 161.32 152.71 C 161.48 153.56 162.29 154.12 163.14 153.97 Z M 164.10 153.78 L 165.08 153.62 C 165.93 153.48 166.50 152.68 166.36 151.83 C 166.22 150.99 165.42 150.41 164.57 150.55 L 163.59 150.72 C 162.74 150.86 162.17 151.66 162.31 152.50 C 162.45 153.35 163.25 153.92 164.10 153.78 Z M 165.04 153.62 L 166.02 153.48 C 166.87 153.36 167.46 152.58 167.34 151.73 C 167.22 150.88 166.44 150.29 165.59 150.41 L 164.61 150.55 C 163.76 150.67 163.17 151.46 163.29 152.30 C 163.41 153.15 164.19 153.74 165.04 153.62 Z M 165.98 153.49 L 166.92 153.38 C 167.76 153.29 168.38 152.52 168.28 151.67 C 168.19 150.83 167.42 150.21 166.58 150.31 L 165.64 150.41 C 164.79 150.51 164.18 151.27 164.27 152.12 C 164.36 152.97 165.13 153.58 165.98 153.49 Z M 166.86 153.38 L 167.91 153.31 C 168.76 153.25 169.40 152.51 169.34 151.66 C 169.28 150.81 168.54 150.17 167.69 150.23 L 166.63 150.31 C 165.79 150.37 165.15 151.11 165.21 151.96 C 165.27 152.81 166.01 153.44 166.86 153.38 Z M 167.86 153.31 L 168.84 153.27 C 169.69 153.23 170.35 152.51 170.32 151.66 C 170.28 150.81 169.57 150.15 168.72 150.19 L 167.74 150.23 C 166.89 150.27 166.23 150.98 166.26 151.83 C 166.30 152.68 167.01 153.34 167.86 153.31 Z M 168.82 153.27 L 169.85 153.24 C 170.70 153.22 171.37 152.52 171.35 151.66 C 171.33 150.81 170.62 150.14 169.77 150.16 L 168.74 150.19 C 167.89 150.21 167.22 150.92 167.24 151.77 C 167.26 152.62 167.97 153.29 168.82 153.27 Z M 169.83 153.24 L 170.88 153.23 C 171.73 153.22 172.41 152.52 172.40 151.67 C 172.39 150.82 171.69 150.14 170.84 150.15 L 169.79 150.16 C 168.94 150.17 168.26 150.87 168.27 151.72 C 168.28 152.57 168.98 153.25 169.83 153.24 Z M 170.84 153.23 L 171.85 153.25 C 172.70 153.26 173.40 152.58 173.41 151.73 C 173.42 150.88 172.75 150.18 171.89 150.17 L 170.89 150.15 C 170.04 150.14 169.34 150.82 169.32 151.67 C 169.31 152.52 169.99 153.22 170.84 153.23 Z M 171.74 153.24 L 172.71 153.32 C 173.55 153.39 174.30 152.76 174.37 151.91 C 174.44 151.06 173.81 150.32 172.96 150.25 L 172.00 150.17 C 171.15 150.10 170.41 150.73 170.34 151.58 C 170.27 152.43 170.90 153.17 171.74 153.24 Z M 172.42 153.27 L 173.38 153.54 C 174.20 153.76 175.05 153.28 175.28 152.46 C 175.51 151.64 175.02 150.79 174.20 150.56 L 173.24 150.30 C 172.42 150.07 171.57 150.56 171.35 151.38 C 171.12 152.20 171.60 153.04 172.42 153.27 Z M 172.81 153.25 L 173.54 153.84 C 174.21 154.38 175.18 154.29 175.72 153.63 C 176.26 152.97 176.16 151.99 175.50 151.45 L 174.77 150.85 C 174.11 150.31 173.14 150.41 172.60 151.07 C 172.06 151.73 172.15 152.71 172.81 153.25 Z M 173.16 153.40 L 173.65 154.29 C 174.07 155.04 175.01 155.31 175.77 154.90 C 176.52 154.48 176.79 153.53 176.38 152.78 L 175.89 151.89 C 175.47 151.14 174.52 150.87 173.77 151.28 C 173.02 151.70 172.74 152.65 173.16 153.40 Z M 173.50 153.95 L 173.77 154.92 C 174.00 155.75 174.86 156.25 175.70 156.02 C 176.53 155.79 177.02 154.92 176.79 154.09 L 176.53 153.12 C 176.30 152.28 175.43 151.79 174.60 152.02 C 173.76 152.25 173.27 153.11 173.50 153.95 Z M 173.71 154.65 L 173.80 155.64 C 173.88 156.50 174.65 157.14 175.52 157.06 C 176.39 156.98 177.03 156.21 176.94 155.34 L 176.85 154.35 C 176.77 153.49 176.00 152.85 175.13 152.93 C 174.26 153.01 173.63 153.78 173.71 154.65 Z M 173.79 155.52 L 173.81 156.50 C 173.83 157.37 174.56 158.07 175.43 158.05 C 176.31 158.03 177.00 157.30 176.98 156.43 L 176.96 155.45 C 176.94 154.58 176.21 153.88 175.34 153.90 C 174.46 153.92 173.77 154.65 173.79 155.52 Z M 173.81 156.46 L 173.80 157.48 C 173.80 158.36 174.51 159.07 175.38 159.08 C 176.26 159.08 176.98 158.37 176.98 157.49 L 176.98 156.47 C 176.99 155.59 176.28 154.88 175.40 154.87 C 174.52 154.87 173.81 155.58 173.81 156.46 Z M 173.80 157.45 L 173.77 158.44 C 173.75 159.32 174.45 160.05 175.33 160.07 C 176.21 160.10 176.94 159.40 176.96 158.52 L 176.98 157.53 C 177.01 156.65 176.31 155.91 175.43 155.89 C 174.55 155.87 173.82 156.57 173.80 157.45 Z M 173.77 158.38 L 173.71 159.38 C 173.65 160.26 174.32 161.02 175.20 161.08 C 176.08 161.14 176.84 160.47 176.89 159.59 L 176.96 158.59 C 177.02 157.71 176.35 156.95 175.47 156.89 C 174.59 156.83 173.83 157.50 173.77 158.38 Z M 173.71 159.29 L 173.60 160.16 C 173.49 161.04 174.11 161.84 174.99 161.95 C 175.87 162.06 176.67 161.44 176.78 160.56 L 176.89 159.69 C 177.00 158.81 176.38 158.01 175.50 157.90 C 174.62 157.79 173.82 158.41 173.71 159.29 Z M 173.61 160.11 L 173.45 161.07 C 173.31 161.94 173.91 162.77 174.78 162.91 C 175.65 163.05 176.47 162.45 176.62 161.58 L 176.77 160.62 C 176.91 159.75 176.32 158.92 175.45 158.78 C 174.57 158.64 173.75 159.24 173.61 160.11 Z M 173.45 161.07 L 173.27 162.18 C 173.13 163.05 173.73 163.87 174.60 164.01 C 175.47 164.15 176.30 163.56 176.44 162.69 L 176.62 161.58 C 176.76 160.71 176.16 159.89 175.29 159.74 C 174.42 159.60 173.60 160.20 173.45 161.07 Z M 173.27 162.19 L 173.12 163.17 C 172.99 164.05 173.59 164.86 174.46 165.00 C 175.34 165.13 176.16 164.53 176.29 163.66 L 176.44 162.67 C 176.57 161.80 175.97 160.98 175.10 160.85 C 174.22 160.71 173.41 161.31 173.27 162.19 Z M 173.12 163.17 L 172.96 164.21 C 172.83 165.09 173.43 165.90 174.31 166.04 C 175.19 166.17 176.00 165.57 176.13 164.69 L 176.29 163.65 C 176.42 162.78 175.82 161.96 174.94 161.83 C 174.07 161.70 173.25 162.30 173.12 163.17 Z M 172.96 164.21 L 172.81 165.21 C 172.68 166.09 173.28 166.90 174.15 167.04 C 175.03 167.17 175.85 166.57 175.98 165.69 L 176.13 164.69 C 176.27 163.82 175.67 163.00 174.79 162.87 C 173.92 162.73 173.10 163.33 172.96 164.21 Z M 172.81 165.20 L 172.64 166.27 C 172.50 167.14 173.10 167.97 173.97 168.11 C 174.84 168.25 175.67 167.65 175.81 166.78 L 175.98 165.71 C 176.12 164.83 175.52 164.01 174.65 163.87 C 173.78 163.73 172.95 164.32 172.81 165.20 Z M 172.65 166.25 L 172.47 167.25 C 172.32 168.13 172.91 168.95 173.78 169.10 C 174.65 169.26 175.48 168.67 175.63 167.80 L 175.80 166.80 C 175.95 165.92 175.37 165.10 174.50 164.95 C 173.62 164.79 172.80 165.38 172.65 166.25 Z M 172.48 167.25 L 172.32 168.10 C 172.17 168.97 172.75 169.80 173.62 169.96 C 174.49 170.11 175.32 169.53 175.48 168.66 L 175.63 167.80 C 175.78 166.93 175.20 166.10 174.33 165.95 C 173.46 165.80 172.63 166.38 172.48 167.25 Z M 172.33 168.12 L 172.17 169.09 C 172.02 169.96 172.61 170.78 173.48 170.92 C 174.35 171.07 175.17 170.48 175.31 169.61 L 175.47 168.64 C 175.62 167.77 175.03 166.95 174.16 166.81 C 173.29 166.66 172.47 167.25 172.33 168.12 Z M 172.17 169.10 L 172.01 170.09 C 171.87 170.96 172.46 171.77 173.33 171.91 C 174.19 172.05 175.01 171.46 175.14 170.60 L 175.30 169.60 C 175.44 168.74 174.86 167.93 173.99 167.79 C 173.13 167.65 172.31 168.23 172.17 169.10 Z M 172.02 170.08 L 171.85 171.08 C 171.71 171.94 172.29 172.75 173.15 172.90 C 174.01 173.05 174.82 172.47 174.97 171.61 L 175.13 170.61 C 175.28 169.75 174.70 168.94 173.84 168.79 C 172.98 168.65 172.17 169.22 172.02 170.08 Z M 171.87 171.03 L 171.67 172.02 C 171.50 172.86 172.05 173.69 172.90 173.87 C 173.75 174.04 174.57 173.49 174.75 172.64 L 174.95 171.66 C 175.12 170.81 174.57 169.98 173.72 169.81 C 172.87 169.63 172.05 170.18 171.87 171.03 Z M 171.72 171.88 L 171.40 172.97 C 171.15 173.79 171.62 174.66 172.44 174.90 C 173.26 175.15 174.13 174.68 174.37 173.86 L 174.70 172.77 C 174.94 171.95 174.48 171.09 173.65 170.84 C 172.83 170.59 171.97 171.06 171.72 171.88 Z M 171.81 172.33 L 171.26 172.88 C 170.66 173.48 170.66 174.45 171.25 175.04 C 171.85 175.64 172.82 175.64 173.41 175.04 L 173.97 174.49 C 174.56 173.90 174.56 172.93 173.97 172.33 C 173.37 171.74 172.40 171.74 171.81 172.33 Z M 173.26 172.79 L 172.69 172.33 C 172.04 171.82 171.10 171.93 170.59 172.58 C 170.07 173.23 170.18 174.17 170.83 174.68 L 171.41 175.13 C 172.05 175.65 172.99 175.54 173.51 174.89 C 174.02 174.24 173.91 173.30 173.26 172.79 Z M 172.96 172.67 L 172.30 171.73 C 171.84 171.07 170.92 170.90 170.26 171.37 C 169.60 171.83 169.44 172.74 169.90 173.40 L 170.56 174.34 C 171.02 175.00 171.93 175.16 172.59 174.70 C 173.26 174.24 173.42 173.33 172.96 172.67 Z M 172.31 171.79 L 172.13 171.51 C 171.70 170.84 170.82 170.64 170.15 171.07 C 169.48 171.50 169.28 172.39 169.71 173.06 L 169.89 173.34 C 170.32 174.01 171.20 174.20 171.87 173.77 C 172.54 173.35 172.74 172.46 172.31 171.79 Z"
      fill="black"
      fill-rule="nonzero" /><path d="M 159.43 146.15 L 158.89 145.06 C 158.53 144.34 157.65 144.05 156.94 144.41 C 156.22 144.77 155.93 145.64 156.28 146.36 L 156.83 147.46 C 157.19 148.17 158.06 148.47 158.78 148.11 C 159.50 147.75 159.79 146.87 159.43 146.15 Z M 158.04 144.28 L 157.88 144.23 C 157.09 143.98 156.24 144.42 155.99 145.21 C 155.75 146.00 156.18 146.84 156.97 147.09 L 157.14 147.14 C 157.92 147.39 158.77 146.95 159.02 146.16 C 159.26 145.37 158.83 144.53 158.04 144.28 Z M 155.94 146.10 L 156.27 147.21 C 156.52 148.03 157.38 148.50 158.20 148.25 C 159.02 148.01 159.48 147.15 159.24 146.33 L 158.91 145.22 C 158.66 144.40 157.80 143.93 156.98 144.18 C 156.16 144.42 155.70 145.28 155.94 146.10 Z M 156.26 147.27 L 156.57 148.19 C 156.84 149.02 157.74 149.47 158.56 149.19 C 159.39 148.91 159.84 148.02 159.56 147.19 L 159.25 146.27 C 158.98 145.44 158.08 145.00 157.26 145.27 C 156.43 145.55 155.98 146.44 156.26 147.27 Z M 156.54 148.14 L 156.84 149.15 C 157.08 149.99 157.96 150.48 158.80 150.23 C 159.64 149.99 160.13 149.11 159.88 148.27 L 159.59 147.25 C 159.34 146.41 158.46 145.93 157.62 146.17 C 156.78 146.42 156.30 147.30 156.54 148.14 Z M 156.81 149.08 L 157.05 150.08 C 157.26 150.94 158.12 151.47 158.98 151.26 C 159.83 151.05 160.36 150.19 160.15 149.33 L 159.91 148.33 C 159.70 147.48 158.84 146.95 157.98 147.16 C 157.13 147.36 156.60 148.23 156.81 149.08 Z M 157.03 150.04 L 157.23 151.00 C 157.42 151.87 158.27 152.42 159.14 152.24 C 160.00 152.05 160.56 151.20 160.38 150.33 L 160.17 149.37 C 159.99 148.51 159.14 147.95 158.27 148.14 C 157.40 148.32 156.85 149.17 157.03 150.04 Z M 157.22 150.96 L 157.41 152.01 C 157.57 152.88 158.41 153.46 159.29 153.30 C 160.17 153.14 160.75 152.30 160.58 151.42 L 160.39 150.37 C 160.23 149.50 159.39 148.92 158.51 149.08 C 157.63 149.24 157.05 150.08 157.22 150.96 Z M 157.40 151.98 L 157.55 152.90 C 157.70 153.78 158.53 154.38 159.41 154.23 C 160.29 154.09 160.89 153.25 160.75 152.37 L 160.59 151.45 C 160.45 150.57 159.62 149.97 158.73 150.12 C 157.85 150.26 157.25 151.10 157.40 151.98 Z M 157.55 152.89 L 157.70 153.87 C 157.85 154.76 158.68 155.36 159.56 155.22 C 160.44 155.08 161.05 154.25 160.91 153.36 L 160.75 152.38 C 160.61 151.50 159.78 150.89 158.89 151.03 C 158.01 151.17 157.41 152.01 157.55 152.89 Z M 157.70 153.84 L 157.84 154.83 C 157.96 155.72 158.78 156.34 159.67 156.21 C 160.55 156.09 161.17 155.27 161.05 154.38 L 160.91 153.39 C 160.79 152.51 159.97 151.89 159.08 152.01 C 158.19 152.13 157.58 152.95 157.70 153.84 Z M 157.83 154.80 L 157.95 155.80 C 158.06 156.69 158.87 157.32 159.76 157.22 C 160.65 157.11 161.28 156.30 161.17 155.41 L 161.05 154.41 C 160.95 153.52 160.14 152.89 159.25 152.99 C 158.36 153.10 157.72 153.91 157.83 154.80 Z M 157.95 155.79 L 158.06 156.78 C 158.17 157.67 158.97 158.31 159.86 158.21 C 160.75 158.10 161.39 157.30 161.29 156.41 L 161.18 155.42 C 161.07 154.53 160.27 153.89 159.38 153.99 C 158.49 154.09 157.85 154.90 157.95 155.79 Z M 158.06 156.76 L 158.16 157.76 C 158.25 158.65 159.05 159.30 159.94 159.21 C 160.83 159.12 161.49 158.32 161.39 157.43 L 161.29 156.43 C 161.20 155.54 160.41 154.89 159.51 154.98 C 158.62 155.07 157.97 155.86 158.06 156.76 Z M 158.16 157.72 L 158.24 158.71 C 158.31 159.60 159.10 160.27 159.99 160.19 C 160.88 160.12 161.55 159.34 161.48 158.44 L 161.40 157.46 C 161.33 156.57 160.54 155.90 159.65 155.97 C 158.75 156.04 158.09 156.83 158.16 157.72 Z M 158.24 158.71 L 158.32 159.71 C 158.39 160.60 159.18 161.27 160.07 161.20 C 160.97 161.13 161.63 160.34 161.56 159.45 L 161.48 158.44 C 161.41 157.55 160.62 156.88 159.73 156.95 C 158.83 157.03 158.17 157.81 158.24 158.71 Z M 158.32 159.72 L 158.41 160.70 C 158.49 161.60 159.28 162.25 160.18 162.17 C 161.07 162.09 161.73 161.30 161.65 160.41 L 161.56 159.43 C 161.48 158.54 160.69 157.88 159.79 157.96 C 158.90 158.04 158.24 158.83 158.32 159.72 Z M 158.41 160.69 L 158.50 161.71 C 158.57 162.60 159.36 163.27 160.25 163.19 C 161.14 163.12 161.81 162.33 161.73 161.44 L 161.65 160.42 C 161.57 159.53 160.79 158.86 159.89 158.94 C 159.00 159.01 158.34 159.80 158.41 160.69 Z M 158.50 161.68 L 158.56 162.68 C 158.62 163.57 159.40 164.25 160.29 164.19 C 161.18 164.13 161.86 163.36 161.80 162.46 L 161.73 161.47 C 161.67 160.57 160.90 159.90 160.01 159.96 C 159.11 160.02 158.44 160.79 158.50 161.68 Z M 158.57 162.66 L 158.62 163.66 C 158.67 164.55 159.43 165.24 160.32 165.19 C 161.21 165.14 161.89 164.38 161.85 163.49 L 161.80 162.49 C 161.75 161.59 160.99 160.91 160.10 160.96 C 159.20 161.00 158.52 161.76 158.57 162.66 Z M 158.62 163.64 L 158.66 164.66 C 158.70 165.55 159.45 166.24 160.34 166.20 C 161.23 166.17 161.92 165.42 161.89 164.53 L 161.84 163.51 C 161.81 162.62 161.06 161.93 160.17 161.97 C 159.28 162.00 158.59 162.75 158.62 163.64 Z M 158.67 164.64 L 158.70 165.63 C 158.73 166.52 159.47 167.21 160.36 167.19 C 161.24 167.16 161.94 166.42 161.91 165.53 L 161.88 164.54 C 161.85 163.65 161.11 162.96 160.22 162.98 C 159.34 163.01 158.64 163.76 158.67 164.64 Z M 158.70 165.63 L 158.73 166.63 C 158.76 167.52 159.50 168.21 160.38 168.19 C 161.27 168.16 161.96 167.42 161.94 166.53 L 161.91 165.53 C 161.88 164.65 161.14 163.95 160.26 163.98 C 159.37 164.00 158.68 164.74 158.70 165.63 Z M 158.73 166.62 L 158.76 167.62 C 158.78 168.50 159.51 169.20 160.40 169.18 C 161.28 169.16 161.98 168.42 161.96 167.54 L 161.94 166.54 C 161.91 165.66 161.18 164.96 160.30 164.98 C 159.41 165.00 158.71 165.74 158.73 166.62 Z M 158.76 167.60 L 158.77 168.60 C 158.78 169.49 159.51 170.19 160.39 170.18 C 161.27 170.17 161.98 169.45 161.97 168.57 L 161.96 167.56 C 161.95 166.68 161.22 165.97 160.34 165.98 C 159.46 165.99 158.75 166.71 158.76 167.60 Z M 158.77 168.59 L 158.78 169.58 C 158.78 170.46 159.49 171.18 160.38 171.18 C 161.26 171.17 161.97 170.46 161.97 169.58 L 161.97 168.58 C 161.97 167.70 161.25 166.99 160.37 166.99 C 159.48 166.99 158.77 167.71 158.77 168.59 Z M 158.78 169.58 L 158.78 170.60 C 158.78 171.48 159.49 172.19 160.37 172.19 C 161.25 172.19 161.97 171.48 161.97 170.60 L 161.97 169.58 C 161.97 168.70 161.25 167.98 160.37 167.98 C 159.49 167.98 158.78 168.70 158.78 169.58 Z M 158.78 170.60 L 158.78 171.58 C 158.78 172.45 159.49 173.16 160.37 173.16 C 161.25 173.16 161.96 172.45 161.96 171.58 L 161.96 170.60 C 161.96 169.72 161.25 169.01 160.37 169.01 C 159.49 169.01 158.78 169.72 158.78 170.60 Z M 158.79 171.58 L 158.79 172.52 C 158.79 173.39 159.50 174.10 160.37 174.10 C 161.25 174.10 161.95 173.39 161.95 172.52 L 161.95 171.58 C 161.95 170.70 161.25 169.99 160.37 169.99 C 159.50 169.99 158.79 170.70 158.79 171.58 Z M 158.80 172.52 L 158.80 173.56 C 158.80 174.43 159.50 175.14 160.37 175.14 C 161.24 175.14 161.95 174.43 161.95 173.56 L 161.95 172.52 C 161.95 171.65 161.24 170.94 160.37 170.94 C 159.50 170.94 158.80 171.65 158.80 172.52 Z M 158.81 173.56 L 158.80 174.55 C 158.80 175.41 159.50 176.12 160.37 176.12 C 161.23 176.12 161.93 175.42 161.94 174.56 L 161.94 173.57 C 161.94 172.70 161.24 172.00 160.38 172.00 C 159.51 172.00 158.81 172.70 158.81 173.56 Z M 158.81 174.54 L 158.80 175.56 C 158.79 176.42 159.48 177.13 160.34 177.14 C 161.20 177.15 161.91 176.46 161.92 175.60 L 161.93 174.57 C 161.94 173.71 161.25 173.00 160.39 172.99 C 159.53 172.98 158.82 173.67 158.81 174.54 Z M 158.81 175.52 L 158.76 176.79 C 158.73 177.64 159.40 178.36 160.25 178.40 C 161.10 178.43 161.82 177.76 161.86 176.91 L 161.91 175.64 C 161.94 174.79 161.27 174.07 160.42 174.03 C 159.56 174.00 158.84 174.67 158.81 175.52 Z M 158.84 176.44 L 158.74 176.80 C 158.51 177.62 158.99 178.46 159.80 178.68 C 160.62 178.91 161.46 178.43 161.68 177.62 L 161.78 177.26 C 162.01 176.44 161.53 175.60 160.72 175.38 C 159.90 175.15 159.06 175.63 158.84 176.44 Z M 161.69 177.04 L 161.58 176.04 C 161.48 175.23 160.74 174.64 159.93 174.73 C 159.11 174.82 158.52 175.56 158.62 176.38 L 158.73 177.38 C 158.82 178.20 159.56 178.78 160.38 178.69 C 161.20 178.60 161.78 177.86 161.69 177.04 Z M 161.54 176.10 L 161.46 174.96 C 161.40 174.16 160.70 173.56 159.91 173.62 C 159.11 173.68 158.51 174.38 158.57 175.18 L 158.65 176.32 C 158.71 177.12 159.41 177.71 160.20 177.66 C 161.00 177.60 161.60 176.90 161.54 176.10 Z M 161.44 174.98 L 161.38 173.98 C 161.33 173.19 160.65 172.59 159.86 172.64 C 159.07 172.69 158.47 173.37 158.52 174.16 L 158.58 175.16 C 158.63 175.95 159.31 176.55 160.10 176.50 C 160.89 176.45 161.49 175.77 161.44 174.98 Z M 161.37 173.98 L 161.33 173.33 C 161.29 172.54 160.61 171.94 159.82 171.99 C 159.04 172.04 158.44 172.72 158.48 173.50 L 158.52 174.16 C 158.57 174.94 159.25 175.54 160.03 175.50 C 160.82 175.45 161.42 174.77 161.37 173.98 Z"
      fill="black"
      fill-rule="nonzero" /><path d="M 158.15 162.37 L 157.15 162.32 C 156.27 162.27 155.52 162.95 155.48 163.83 C 155.43 164.71 156.11 165.45 156.98 165.50 L 157.99 165.55 C 158.86 165.60 159.61 164.93 159.66 164.05 C 159.71 163.17 159.03 162.42 158.15 162.37 Z M 156.52 162.41 L 155.63 162.74 C 154.80 163.05 154.38 163.96 154.68 164.79 C 154.99 165.62 155.90 166.04 156.73 165.74 L 157.62 165.41 C 158.45 165.10 158.87 164.19 158.57 163.36 C 158.26 162.53 157.34 162.11 156.52 162.41 Z M 155.08 163.08 L 154.35 163.77 C 153.71 164.38 153.68 165.39 154.29 166.03 C 154.89 166.67 155.90 166.70 156.54 166.09 L 157.28 165.40 C 157.92 164.79 157.94 163.78 157.34 163.14 C 156.73 162.50 155.72 162.47 155.08 163.08 Z M 154.26 163.87 L 153.57 164.64 C 152.99 165.30 153.05 166.30 153.70 166.89 C 154.36 167.47 155.37 167.42 155.95 166.76 L 156.64 165.99 C 157.22 165.33 157.16 164.33 156.51 163.74 C 155.85 163.16 154.84 163.22 154.26 163.87 Z M 153.61 164.62 L 152.94 165.33 C 152.34 165.97 152.37 166.97 153.00 167.57 C 153.64 168.17 154.64 168.14 155.24 167.50 L 155.92 166.78 C 156.51 166.15 156.48 165.15 155.85 164.55 C 155.21 163.95 154.21 163.98 153.61 164.62 Z M 152.97 165.33 L 152.28 166.03 C 151.68 166.65 151.69 167.64 152.31 168.25 C 152.93 168.85 153.92 168.83 154.52 168.22 L 155.21 167.51 C 155.81 166.89 155.80 165.90 155.18 165.30 C 154.56 164.69 153.57 164.71 152.97 165.33 Z M 152.30 166.04 L 151.59 166.76 C 150.99 167.37 151.00 168.34 151.60 168.94 C 152.21 169.54 153.19 169.54 153.79 168.93 L 154.50 168.21 C 155.10 167.60 155.09 166.62 154.49 166.03 C 153.88 165.43 152.90 165.43 152.30 166.04 Z M 151.61 166.77 L 150.89 167.48 C 150.29 168.08 150.29 169.05 150.89 169.64 C 151.49 170.24 152.46 170.24 153.05 169.64 L 153.77 168.92 C 154.37 168.33 154.36 167.36 153.77 166.76 C 153.17 166.17 152.20 166.17 151.61 166.77 Z M 150.91 167.48 L 150.20 168.17 C 149.61 168.76 149.60 169.72 150.18 170.32 C 150.77 170.92 151.73 170.92 152.33 170.34 L 153.03 169.65 C 153.63 169.06 153.64 168.10 153.05 167.50 C 152.47 166.91 151.51 166.90 150.91 167.48 Z M 150.25 168.16 L 149.51 168.84 C 148.91 169.40 148.87 170.35 149.43 170.95 C 149.99 171.56 150.94 171.60 151.55 171.03 L 152.28 170.35 C 152.89 169.79 152.92 168.85 152.36 168.24 C 151.80 167.63 150.85 167.60 150.25 168.16 Z M 149.61 168.79 L 148.84 169.41 C 148.20 169.92 148.10 170.84 148.61 171.48 C 149.12 172.11 150.05 172.21 150.69 171.70 L 151.46 171.08 C 152.09 170.57 152.19 169.65 151.68 169.01 C 151.17 168.38 150.24 168.28 149.61 168.79 Z M 148.92 169.37 L 148.10 169.95 C 147.45 170.41 147.29 171.32 147.76 171.97 C 148.22 172.63 149.12 172.78 149.78 172.32 L 150.60 171.74 C 151.25 171.28 151.41 170.37 150.95 169.72 C 150.48 169.06 149.58 168.91 148.92 169.37 Z M 148.13 169.95 L 147.90 170.11 C 147.25 170.55 147.08 171.45 147.53 172.10 C 147.97 172.76 148.87 172.93 149.52 172.48 L 149.75 172.32 C 150.41 171.87 150.58 170.98 150.13 170.32 C 149.68 169.67 148.79 169.50 148.13 169.95 Z"
      fill="black"
      fill-rule="nonzero" /><path d="M 151.48 163.11 L 152.28 163.66 C 152.97 164.13 153.91 163.96 154.39 163.26 C 154.86 162.57 154.69 161.63 154.00 161.15 L 153.20 160.60 C 152.51 160.13 151.56 160.31 151.09 161.00 C 150.61 161.69 150.79 162.64 151.48 163.11 Z M 152.41 163.78 L 153.32 164.25 C 154.08 164.65 155.02 164.36 155.42 163.60 C 155.82 162.84 155.52 161.90 154.76 161.50 L 153.86 161.03 C 153.10 160.63 152.16 160.92 151.76 161.68 C 151.36 162.44 151.65 163.38 152.41 163.78 Z M 153.49 164.34 L 154.43 164.70 C 155.24 165.00 156.14 164.59 156.44 163.78 C 156.75 162.97 156.34 162.07 155.53 161.76 L 154.59 161.41 C 153.78 161.11 152.88 161.52 152.57 162.33 C 152.27 163.14 152.68 164.04 153.49 164.34 Z M 154.48 164.71 L 155.44 165.03 C 156.26 165.31 157.15 164.86 157.42 164.05 C 157.69 163.23 157.25 162.35 156.43 162.07 L 155.47 161.75 C 154.66 161.48 153.77 161.92 153.50 162.74 C 153.23 163.55 153.67 164.44 154.48 164.71 Z M 155.41 165.00 L 156.35 165.35 C 157.15 165.64 158.04 165.23 158.33 164.43 C 158.63 163.63 158.22 162.74 157.41 162.45 L 156.47 162.10 C 155.67 161.81 154.78 162.22 154.49 163.02 C 154.19 163.82 154.61 164.71 155.41 165.00 Z M 156.27 165.30 L 157.17 165.69 C 157.95 166.02 158.85 165.67 159.18 164.90 C 159.52 164.12 159.16 163.23 158.39 162.89 L 157.49 162.50 C 156.72 162.16 155.82 162.52 155.48 163.29 C 155.15 164.06 155.50 164.96 156.27 165.30 Z M 157.11 165.63 L 157.98 166.08 C 158.73 166.45 159.63 166.15 160.00 165.41 C 160.38 164.66 160.08 163.76 159.33 163.38 L 158.46 162.94 C 157.71 162.57 156.81 162.87 156.44 163.61 C 156.06 164.36 156.36 165.26 157.11 165.63 Z M 157.95 166.04 L 158.85 166.53 C 159.57 166.92 160.47 166.65 160.87 165.93 C 161.26 165.21 160.99 164.31 160.27 163.92 L 159.37 163.42 C 158.65 163.03 157.75 163.30 157.35 164.02 C 156.96 164.74 157.23 165.64 157.95 166.04 Z M 158.84 166.50 L 159.72 167.00 C 160.43 167.40 161.32 167.15 161.72 166.45 C 162.12 165.74 161.87 164.85 161.17 164.45 L 160.29 163.95 C 159.58 163.55 158.69 163.79 158.29 164.50 C 157.89 165.20 158.13 166.10 158.84 166.50 Z M 159.70 166.97 L 160.55 167.47 C 161.24 167.88 162.12 167.66 162.54 166.97 C 162.95 166.29 162.72 165.40 162.04 164.99 L 161.19 164.48 C 160.50 164.07 159.61 164.29 159.20 164.98 C 158.79 165.67 159.02 166.56 159.70 166.97 Z M 160.51 167.44 L 161.37 167.99 C 162.04 168.42 162.93 168.23 163.36 167.56 C 163.79 166.90 163.60 166.01 162.93 165.58 L 162.07 165.02 C 161.41 164.59 160.52 164.79 160.09 165.45 C 159.66 166.12 159.85 167.01 160.51 167.44 Z M 161.35 167.97 L 162.14 168.51 C 162.80 168.96 163.68 168.79 164.13 168.14 C 164.57 167.48 164.41 166.60 163.76 166.15 L 162.96 165.61 C 162.31 165.16 161.42 165.33 160.97 165.98 C 160.53 166.63 160.69 167.52 161.35 167.97 Z"
      fill="black"
      fill-rule="nonzero" /><path d="M 167.04 159.94 L 166.19 160.53 C 165.46 161.03 165.28 162.03 165.78 162.76 C 166.29 163.49 167.29 163.68 168.02 163.17 L 168.87 162.59 C 169.60 162.08 169.78 161.08 169.28 160.35 C 168.77 159.62 167.77 159.43 167.04 159.94 Z M 166.07 160.61 L 165.32 161.23 C 164.64 161.81 164.55 162.83 165.12 163.51 C 165.70 164.20 166.72 164.29 167.40 163.71 L 168.15 163.09 C 168.83 162.51 168.92 161.49 168.35 160.81 C 167.77 160.12 166.75 160.04 166.07 160.61 Z M 165.11 161.46 L 164.49 162.23 C 163.94 162.92 164.05 163.93 164.73 164.49 C 165.42 165.04 166.44 164.94 166.99 164.25 L 167.61 163.48 C 168.17 162.79 168.06 161.78 167.37 161.22 C 166.68 160.67 165.67 160.77 165.11 161.46 Z M 164.43 162.38 L 163.88 163.22 C 163.41 163.95 163.62 164.92 164.34 165.39 C 165.07 165.87 166.04 165.66 166.51 164.93 L 167.06 164.09 C 167.53 163.37 167.32 162.40 166.60 161.92 C 165.87 161.45 164.90 161.66 164.43 162.38 Z M 163.93 163.20 L 163.38 164.01 C 162.89 164.71 163.07 165.66 163.77 166.15 C 164.47 166.63 165.42 166.46 165.91 165.76 L 166.46 164.95 C 166.95 164.25 166.77 163.30 166.07 162.81 C 165.37 162.33 164.42 162.51 163.93 163.20 Z M 163.43 163.98 L 162.82 164.81 C 162.32 165.48 162.46 166.42 163.13 166.92 C 163.80 167.42 164.74 167.28 165.24 166.61 L 165.85 165.78 C 166.35 165.11 166.21 164.17 165.54 163.67 C 164.87 163.17 163.93 163.31 163.43 163.98 Z M 162.86 164.79 L 162.23 165.60 C 161.72 166.24 161.83 167.18 162.48 167.68 C 163.12 168.19 164.06 168.08 164.57 167.43 L 165.20 166.63 C 165.70 165.98 165.59 165.05 164.95 164.54 C 164.30 164.03 163.37 164.14 162.86 164.79 Z M 162.27 165.58 L 161.64 166.33 C 161.12 166.96 161.21 167.88 161.83 168.40 C 162.46 168.91 163.38 168.83 163.90 168.21 L 164.52 167.45 C 165.04 166.83 164.96 165.90 164.33 165.39 C 163.71 164.87 162.78 164.95 162.27 165.58 Z M 161.69 166.30 L 161.01 167.07 C 160.47 167.67 160.53 168.58 161.12 169.11 C 161.72 169.65 162.64 169.59 163.17 169.00 L 163.85 168.23 C 164.38 167.64 164.33 166.72 163.73 166.19 C 163.14 165.65 162.22 165.71 161.69 166.30 Z M 161.04 167.05 L 160.45 167.68 C 159.91 168.26 159.94 169.17 160.52 169.71 C 161.10 170.25 162.01 170.22 162.55 169.64 L 163.14 169.01 C 163.68 168.43 163.65 167.53 163.07 166.98 C 162.49 166.44 161.58 166.47 161.04 167.05 Z"
      fill="black"
      fill-rule="nonzero" /><path d="M 165.40 157.74 L 165.97 158.52 C 166.50 159.24 167.52 159.39 168.24 158.86 C 168.96 158.33 169.11 157.32 168.58 156.60 L 168.01 155.82 C 167.48 155.10 166.46 154.94 165.74 155.47 C 165.02 156.01 164.87 157.02 165.40 157.74 Z M 165.99 158.59 L 166.63 159.39 C 167.20 160.10 168.24 160.22 168.95 159.65 C 169.66 159.08 169.78 158.04 169.21 157.32 L 168.57 156.52 C 167.99 155.81 166.96 155.70 166.24 156.27 C 165.53 156.84 165.42 157.88 165.99 158.59 Z M 166.68 159.47 L 167.35 160.20 C 167.96 160.88 169.01 160.94 169.69 160.33 C 170.37 159.72 170.43 158.67 169.81 157.99 L 169.15 157.25 C 168.54 156.57 167.49 156.51 166.81 157.12 C 166.13 157.74 166.07 158.78 166.68 159.47 Z M 167.39 160.22 L 168.09 160.96 C 168.72 161.61 169.75 161.64 170.41 161.02 C 171.06 160.40 171.09 159.36 170.47 158.70 L 169.77 157.97 C 169.15 157.31 168.11 157.29 167.45 157.91 C 166.80 158.53 166.77 159.57 167.39 160.22 Z M 168.11 160.93 L 168.80 161.67 C 169.41 162.32 170.43 162.35 171.08 161.75 C 171.72 161.14 171.76 160.12 171.15 159.47 L 170.45 158.73 C 169.85 158.08 168.83 158.05 168.18 158.66 C 167.53 159.27 167.50 160.28 168.11 160.93 Z M 168.80 161.62 L 169.46 162.37 C 170.04 163.02 171.03 163.08 171.68 162.50 C 172.34 161.92 172.40 160.93 171.82 160.27 L 171.15 159.53 C 170.58 158.88 169.58 158.82 168.93 159.39 C 168.28 159.97 168.22 160.97 168.80 161.62 Z M 169.45 162.31 L 170.08 163.05 C 170.62 163.71 171.59 163.80 172.25 163.25 C 172.90 162.71 172.99 161.74 172.45 161.08 L 171.82 160.34 C 171.28 159.68 170.31 159.59 169.65 160.14 C 169.00 160.68 168.91 161.65 169.45 162.31 Z M 170.07 162.99 L 170.65 163.74 C 171.16 164.40 172.11 164.52 172.77 164.01 C 173.43 163.50 173.55 162.55 173.04 161.89 L 172.45 161.14 C 171.94 160.48 170.99 160.36 170.34 160.87 C 169.68 161.39 169.56 162.34 170.07 162.99 Z M 170.63 163.68 L 171.23 164.52 C 171.70 165.19 172.63 165.34 173.30 164.87 C 173.97 164.39 174.12 163.47 173.65 162.80 L 173.05 161.96 C 172.58 161.29 171.65 161.13 170.98 161.61 C 170.31 162.08 170.16 163.01 170.63 163.68 Z M 171.21 164.46 L 171.75 165.28 C 172.19 165.96 173.10 166.15 173.78 165.71 C 174.45 165.27 174.64 164.36 174.20 163.68 L 173.67 162.86 C 173.22 162.18 172.32 161.99 171.64 162.43 C 170.96 162.87 170.77 163.78 171.21 164.46 Z M 171.74 165.24 L 172.26 166.09 C 172.68 166.77 173.58 166.98 174.26 166.56 C 174.94 166.14 175.15 165.25 174.73 164.57 L 174.21 163.72 C 173.79 163.04 172.90 162.83 172.21 163.25 C 171.53 163.67 171.32 164.56 171.74 165.24 Z M 172.26 166.07 L 172.80 166.96 C 173.21 167.64 174.09 167.86 174.77 167.45 C 175.45 167.04 175.67 166.16 175.27 165.48 L 174.73 164.59 C 174.32 163.91 173.44 163.68 172.76 164.09 C 172.08 164.50 171.86 165.39 172.26 166.07 Z M 172.80 166.95 L 172.99 167.27 C 173.40 167.95 174.28 168.17 174.96 167.77 C 175.64 167.36 175.86 166.48 175.45 165.81 L 175.26 165.48 C 174.86 164.81 173.98 164.58 173.30 164.99 C 172.62 165.39 172.40 166.27 172.80 166.95 Z"
      fill="black"
      fill-rule="nonzero" /></svg>