<svg xmlns="http://www.w3.org/2000/svg" width="300" height="300" viewBox="0 0 300 300">
<path d="M 130.92 137.03 L 130.34 137.88 C 129.86 138.57 130.03 139.51 130.72 139.99 C 131.41 140.46 132.36 140.29 132.83 139.60 L 133.42 138.75 C 133.89 138.06 133.72 137.12 133.03 136.64 C 132.34 136.17 131.40 136.34 130.92 137.03 Z M 130.74 140.04 L 131.32 140.41 C 132.03 140.88 132.99 140.67 133.46 139.96 C 133.92 139.24 133.72 138.28 133.00 137.82 L 132.43 137.44 C 131.71 136.98 130.75 137.18 130.29 137.90 C 129.82 138.61 130.03 139.57 130.74 140.04 Z M 131.99 140.67 L 133.12 140.79 C 133.97 140.88 134.74 140.26 134.84 139.40 C 134.93 138.55 134.31 137.78 133.45 137.68 L 132.33 137.56 C 131.47 137.47 130.70 138.09 130.61 138.95 C 130.52 139.80 131.14 140.57 131.99 140.67 Z M 133.23 140.80 L 134.30 140.84 C 135.16 140.87 135.89 140.19 135.92 139.33 C 135.95 138.46 135.27 137.73 134.40 137.70 L 133.34 137.67 C 132.47 137.64 131.75 138.32 131.72 139.18 C 131.69 140.05 132.37 140.77 133.23 140.80 Z M 134.34 140.84 L 135.31 140.85 C 136.17 140.85 136.88 140.16 136.89 139.29 C 136.89 138.42 136.19 137.71 135.33 137.71 L 134.36 137.70 C 133.49 137.70 132.79 138.40 132.78 139.26 C 132.78 140.13 133.47 140.84 134.34 140.84 Z M 135.32 140.84 L 136.30 140.84 C 137.17 140.84 137.87 140.14 137.87 139.28 C 137.87 138.41 137.17 137.71 136.30 137.71 L 135.32 137.71 C 134.45 137.71 133.75 138.41 133.75 139.28 C 133.75 140.14 134.45 140.84 135.32 140.84 Z M 136.30 140.83 L 137.31 140.83 C 138.17 140.83 138.87 140.14 138.87 139.28 C 138.87 138.42 138.17 137.72 137.31 137.72 L 136.30 137.72 C 135.45 137.72 134.75 138.42 134.75 139.28 C 134.75 140.14 135.45 140.83 136.30 140.83 Z M 137.31 140.83 L 138.32 140.83 C 139.17 140.83 139.87 140.13 139.87 139.28 C 139.87 138.42 139.17 137.73 138.32 137.73 L 137.31 137.73 C 136.46 137.73 135.77 138.42 135.77 139.28 C 135.77 140.13 136.46 140.83 137.31 140.83 Z M 138.32 140.82 L 139.31 140.82 C 140.17 140.82 140.86 140.13 140.86 139.28 C 140.86 138.43 140.17 137.73 139.31 137.73 L 138.32 137.73 C 137.47 137.73 136.77 138.43 136.77 139.28 C 136.77 140.13 137.47 140.82 138.32 140.82 Z M 139.32 140.82 L 140.31 140.81 C 141.16 140.81 141.84 140.12 141.84 139.27 C 141.84 138.42 141.15 137.74 140.30 137.74 L 139.31 137.74 C 138.46 137.74 137.77 138.43 137.78 139.28 C 137.78 140.13 138.47 140.82 139.32 140.82 Z M 140.33 140.80 L 141.34 140.78 C 142.18 140.77 142.85 140.07 142.84 139.23 C 142.82 138.39 142.13 137.72 141.29 137.73 L 140.28 137.75 C 139.44 137.77 138.77 138.46 138.78 139.30 C 138.80 140.14 139.49 140.82 140.33 140.80 Z M 141.38 140.77 L 142.40 140.72 C 143.24 140.68 143.88 139.98 143.84 139.15 C 143.81 138.31 143.10 137.67 142.27 137.71 L 141.25 137.75 C 140.41 137.79 139.77 138.49 139.81 139.33 C 139.84 140.16 140.55 140.80 141.38 140.77 Z M 142.43 140.70 L 143.41 140.63 C 144.23 140.58 144.85 139.87 144.80 139.05 C 144.74 138.23 144.03 137.61 143.21 137.66 L 142.24 137.73 C 141.42 137.78 140.79 138.49 140.85 139.31 C 140.90 140.13 141.61 140.75 142.43 140.70 Z M 143.43 140.62 L 144.42 140.54 C 145.23 140.47 145.83 139.76 145.77 138.95 C 145.71 138.14 144.99 137.53 144.18 137.60 L 143.19 137.68 C 142.38 137.74 141.78 138.45 141.84 139.27 C 141.91 140.08 142.62 140.68 143.43 140.62 Z M 144.41 140.53 L 145.40 140.45 C 146.20 140.39 146.81 139.69 146.74 138.88 C 146.68 138.08 145.98 137.47 145.17 137.54 L 144.19 137.61 C 143.38 137.67 142.78 138.38 142.84 139.18 C 142.90 139.99 143.61 140.59 144.41 140.53 Z M 145.38 140.44 L 146.37 140.38 C 147.17 140.33 147.77 139.64 147.72 138.84 C 147.67 138.04 146.98 137.43 146.18 137.48 L 145.19 137.55 C 144.39 137.60 143.79 138.29 143.84 139.09 C 143.89 139.89 144.58 140.49 145.38 140.44 Z M 146.36 140.37 L 147.15 140.32 C 147.94 140.27 148.55 139.59 148.50 138.80 C 148.45 138.00 147.77 137.40 146.97 137.44 L 146.19 137.49 C 145.39 137.54 144.79 138.22 144.84 139.02 C 144.88 139.81 145.57 140.42 146.36 140.37 Z"
      fill="black"
      fill-rule="nonzero" /><path d="M 136.46 144.69 L 135.39 144.97 C 134.59 145.19 134.11 146.01 134.33 146.81 C 134.54 147.61 135.36 148.09 136.16 147.87 L 137.23 147.59 C 138.04 147.38 138.51 146.55 138.30 145.75 C 138.09 144.95 137.27 144.48 136.46 144.69 Z M 135.49 147.92 L 136.01 148.02 C 136.84 148.18 137.64 147.64 137.80 146.81 C 137.96 145.99 137.42 145.19 136.59 145.03 L 136.07 144.93 C 135.24 144.77 134.44 145.31 134.28 146.13 C 134.12 146.96 134.66 147.76 135.49 147.92 Z M 136.29 148.05 L 137.52 148.06 C 138.37 148.07 139.05 147.39 139.06 146.55 C 139.07 145.70 138.39 145.02 137.55 145.01 L 136.32 145.00 C 135.47 144.99 134.79 145.67 134.78 146.51 C 134.77 147.35 135.45 148.04 136.29 148.05 Z M 137.54 148.05 L 138.56 148.05 C 139.39 148.05 140.07 147.37 140.07 146.53 C 140.07 145.70 139.39 145.02 138.56 145.02 L 137.54 145.02 C 136.70 145.02 136.02 145.70 136.02 146.53 C 136.02 147.37 136.70 148.05 137.54 148.05 Z M 138.56 148.04 L 139.51 148.04 C 140.34 148.04 141.01 147.36 141.01 146.53 C 141.01 145.70 140.34 145.03 139.51 145.03 L 138.56 145.03 C 137.73 145.03 137.05 145.70 137.05 146.53 C 137.05 147.36 137.73 148.04 138.56 148.04 Z M 139.51 148.02 L 140.51 148.02 C 141.33 148.02 142.00 147.36 142.00 146.53 C 142.00 145.71 141.33 145.05 140.51 145.05 L 139.51 145.05 C 138.69 145.05 138.02 145.71 138.02 146.53 C 138.02 147.36 138.69 148.02 139.51 148.02 Z M 140.51 148.01 L 141.51 148.01 C 142.33 148.01 142.99 147.35 142.99 146.53 C 142.99 145.72 142.33 145.06 141.51 145.06 L 140.51 145.06 C 139.69 145.06 139.03 145.72 139.03 146.53 C 139.03 147.35 139.69 148.01 140.51 148.01 Z M 141.51 148.00 L 142.51 148.00 C 143.32 148.00 143.98 147.34 143.98 146.53 C 143.98 145.72 143.32 145.07 142.51 145.07 L 141.51 145.07 C 140.70 145.07 140.05 145.72 140.05 146.53 C 140.05 147.34 140.70 148.00 141.51 148.00 Z M 142.51 147.99 L 143.49 147.99 C 144.29 147.99 144.94 147.34 144.94 146.54 C 144.95 145.74 144.30 145.09 143.50 145.09 L 142.52 145.08 C 141.72 145.08 141.06 145.73 141.06 146.53 C 141.06 147.33 141.71 147.98 142.51 147.99 Z M 143.47 147.97 L 144.46 147.99 C 145.26 148.00 145.91 147.37 145.92 146.58 C 145.94 145.79 145.31 145.13 144.51 145.12 L 143.52 145.10 C 142.72 145.09 142.07 145.72 142.06 146.51 C 142.04 147.31 142.67 147.96 143.47 147.97 Z M 144.45 147.98 L 145.45 148.01 C 146.24 148.04 146.89 147.42 146.92 146.63 C 146.94 145.84 146.32 145.18 145.53 145.16 L 144.53 145.13 C 143.74 145.10 143.09 145.72 143.06 146.51 C 143.04 147.30 143.66 147.96 144.45 147.98 Z M 145.44 148.01 L 146.09 148.03 C 146.87 148.06 147.53 147.44 147.56 146.65 C 147.59 145.87 146.97 145.21 146.18 145.18 L 145.54 145.16 C 144.75 145.13 144.09 145.75 144.06 146.54 C 144.04 147.32 144.65 147.98 145.44 148.01 Z"
      fill="black"
      fill-rule="nonzero" /><path d="M 140.09 138.52 L 139.34 139.11 C 138.71 139.61 138.60 140.54 139.10 141.17 C 139.60 141.81 140.53 141.92 141.17 141.42 L 141.91 140.83 C 142.55 140.33 142.66 139.40 142.16 138.76 C 141.66 138.12 140.73 138.01 140.09 138.52 Z M 138.91 139.59 L 138.48 140.47 C 138.11 141.21 138.41 142.11 139.15 142.48 C 139.89 142.85 140.79 142.55 141.16 141.81 L 141.60 140.93 C 141.97 140.19 141.67 139.29 140.93 138.92 C 140.19 138.55 139.28 138.85 138.91 139.59 Z M 138.32 140.96 L 138.20 141.92 C 138.10 142.76 138.69 143.51 139.52 143.61 C 140.35 143.71 141.11 143.12 141.21 142.29 L 141.32 141.32 C 141.42 140.49 140.83 139.73 140.00 139.63 C 139.17 139.53 138.42 140.13 138.32 140.96 Z M 138.18 142.11 L 138.19 143.18 C 138.19 144.02 138.87 144.69 139.71 144.69 C 140.55 144.69 141.23 144.01 141.23 143.17 L 141.22 142.10 C 141.22 141.26 140.54 140.58 139.70 140.58 C 138.86 140.59 138.18 141.27 138.18 142.11 Z M 138.18 143.25 L 138.24 144.29 C 138.29 145.13 139.00 145.77 139.84 145.73 C 140.68 145.68 141.33 144.97 141.28 144.12 L 141.23 143.09 C 141.18 142.25 140.47 141.60 139.63 141.65 C 138.78 141.69 138.14 142.41 138.18 143.25 Z M 138.24 144.33 L 138.33 145.31 C 138.40 146.15 139.13 146.77 139.97 146.70 C 140.81 146.63 141.43 145.90 141.36 145.06 L 141.28 144.08 C 141.21 143.24 140.47 142.62 139.64 142.69 C 138.80 142.76 138.17 143.49 138.24 144.33 Z M 138.33 145.34 L 138.43 146.28 C 138.51 147.12 139.26 147.73 140.09 147.64 C 140.93 147.56 141.54 146.81 141.46 145.97 L 141.36 145.03 C 141.27 144.19 140.53 143.58 139.69 143.67 C 138.85 143.75 138.24 144.50 138.33 145.34 Z M 138.43 146.29 L 138.53 147.26 C 138.62 148.09 139.37 148.69 140.21 148.60 C 141.04 148.51 141.64 147.76 141.55 146.93 L 141.45 145.96 C 141.36 145.13 140.61 144.53 139.78 144.62 C 138.94 144.71 138.34 145.46 138.43 146.29 Z M 138.54 147.25 L 138.65 148.31 C 138.74 149.14 139.49 149.75 140.32 149.66 C 141.15 149.57 141.75 148.82 141.66 147.99 L 141.55 146.93 C 141.46 146.10 140.72 145.50 139.88 145.59 C 139.05 145.68 138.45 146.42 138.54 147.25 Z M 138.66 148.30 L 138.76 149.31 C 138.84 150.14 139.58 150.74 140.41 150.66 C 141.24 150.57 141.84 149.83 141.76 149.00 L 141.66 148.00 C 141.57 147.17 140.83 146.57 140.00 146.65 C 139.18 146.74 138.57 147.48 138.66 148.30 Z M 138.77 149.30 L 138.86 150.32 C 138.94 151.15 139.68 151.75 140.50 151.67 C 141.33 151.59 141.93 150.86 141.85 150.03 L 141.75 149.01 C 141.67 148.19 140.94 147.58 140.11 147.66 C 139.29 147.74 138.69 148.48 138.77 149.30 Z M 138.87 150.31 L 138.96 151.30 C 139.03 152.12 139.76 152.72 140.58 152.65 C 141.40 152.58 142.01 151.85 141.94 151.03 L 141.85 150.04 C 141.77 149.22 141.05 148.62 140.22 148.69 C 139.40 148.76 138.80 149.49 138.87 150.31 Z M 138.97 151.28 L 139.06 152.32 C 139.12 153.14 139.83 153.75 140.65 153.68 C 141.46 153.62 142.07 152.91 142.00 152.09 L 141.92 151.05 C 141.86 150.23 141.15 149.62 140.33 149.69 C 139.52 149.75 138.91 150.46 138.97 151.28 Z M 139.07 152.30 L 139.13 153.23 C 139.18 154.03 139.87 154.65 140.67 154.60 C 141.48 154.55 142.09 153.86 142.04 153.06 L 141.99 152.12 C 141.94 151.32 141.25 150.70 140.44 150.75 C 139.64 150.80 139.03 151.49 139.07 152.30 Z M 139.14 153.20 L 139.19 154.18 C 139.22 154.98 139.89 155.60 140.69 155.56 C 141.48 155.53 142.10 154.86 142.07 154.06 L 142.03 153.08 C 141.99 152.29 141.32 151.67 140.53 151.70 C 139.73 151.74 139.11 152.41 139.14 153.20 Z M 139.19 154.17 L 139.23 155.17 C 139.25 155.97 139.91 156.59 140.70 156.56 C 141.49 156.54 142.12 155.88 142.09 155.08 L 142.06 154.08 C 142.03 153.29 141.37 152.66 140.58 152.69 C 139.79 152.71 139.17 153.38 139.19 154.17 Z M 139.23 155.17 L 139.24 155.43 C 139.26 156.22 139.92 156.84 140.71 156.82 C 141.50 156.80 142.12 156.14 142.09 155.35 L 142.09 155.09 C 142.06 154.30 141.41 153.68 140.62 153.70 C 139.83 153.72 139.21 154.38 139.23 155.17 Z"
      fill="black"
      fill-rule="nonzero" /><path d="M 130.83 157.86 L 131.68 158.26 C 132.46 158.63 133.40 158.30 133.77 157.52 C 134.15 156.73 133.81 155.80 133.03 155.42 L 132.18 155.02 C 131.40 154.64 130.46 154.98 130.09 155.76 C 129.71 156.54 130.05 157.48 130.83 157.86 Z M 131.96 158.38 L 132.98 158.64 C 133.83 158.86 134.70 158.34 134.91 157.49 C 135.13 156.64 134.61 155.78 133.76 155.56 L 132.74 155.30 C 131.89 155.09 131.03 155.60 130.81 156.45 C 130.60 157.30 131.11 158.16 131.96 158.38 Z M 133.32 158.69 L 134.26 158.73 C 135.14 158.76 135.88 158.07 135.91 157.19 C 135.94 156.31 135.26 155.57 134.38 155.54 L 133.43 155.51 C 132.55 155.48 131.81 156.16 131.78 157.04 C 131.75 157.92 132.44 158.66 133.32 158.69 Z M 134.42 158.72 L 135.45 158.66 C 136.32 158.60 136.99 157.85 136.94 156.97 C 136.88 156.10 136.13 155.43 135.25 155.49 L 134.22 155.55 C 133.35 155.60 132.68 156.36 132.73 157.23 C 132.79 158.11 133.54 158.77 134.42 158.72 Z M 135.50 158.65 L 136.51 158.55 C 137.39 158.47 138.03 157.70 137.95 156.83 C 137.86 155.96 137.09 155.32 136.22 155.40 L 135.20 155.49 C 134.33 155.58 133.69 156.35 133.77 157.22 C 133.85 158.09 134.63 158.73 135.50 158.65 Z M 136.51 158.55 L 137.48 158.46 C 138.34 158.39 138.99 157.62 138.91 156.75 C 138.83 155.88 138.06 155.24 137.19 155.31 L 136.23 155.40 C 135.36 155.48 134.71 156.25 134.79 157.12 C 134.87 157.99 135.64 158.63 136.51 158.55 Z M 137.46 158.46 L 138.45 158.38 C 139.32 158.31 139.97 157.55 139.90 156.68 C 139.83 155.81 139.06 155.16 138.20 155.23 L 137.20 155.32 C 136.34 155.39 135.69 156.15 135.76 157.02 C 135.83 157.89 136.60 158.53 137.46 158.46 Z M 138.45 158.37 L 139.45 158.30 C 140.32 158.23 140.97 157.47 140.90 156.61 C 140.83 155.74 140.08 155.10 139.21 155.16 L 138.20 155.24 C 137.34 155.31 136.69 156.06 136.76 156.93 C 136.83 157.80 137.58 158.44 138.45 158.37 Z M 139.45 158.28 L 140.46 158.20 C 141.32 158.14 141.96 157.39 141.89 156.53 C 141.82 155.67 141.08 155.03 140.22 155.10 L 139.21 155.18 C 138.36 155.24 137.71 155.99 137.78 156.85 C 137.85 157.71 138.60 158.35 139.45 158.28 Z M 140.46 158.18 L 141.48 158.10 C 142.33 158.04 142.96 157.29 142.89 156.45 C 142.83 155.60 142.09 154.97 141.24 155.04 L 140.22 155.12 C 139.37 155.19 138.74 155.93 138.81 156.77 C 138.87 157.62 139.61 158.25 140.46 158.18 Z M 141.49 158.08 L 142.51 158.00 C 143.34 157.92 143.96 157.19 143.89 156.35 C 143.82 155.52 143.08 154.90 142.25 154.97 L 141.23 155.06 C 140.40 155.13 139.78 155.86 139.85 156.70 C 139.92 157.53 140.65 158.15 141.49 158.08 Z M 142.52 157.97 L 143.55 157.87 C 144.37 157.79 144.97 157.06 144.90 156.24 C 144.82 155.42 144.09 154.82 143.27 154.90 L 142.23 155.00 C 141.41 155.07 140.81 155.80 140.89 156.63 C 140.97 157.45 141.70 158.05 142.52 157.97 Z M 143.56 157.84 L 144.52 157.74 C 145.33 157.65 145.91 156.93 145.82 156.13 C 145.74 155.32 145.02 154.74 144.21 154.83 L 143.25 154.93 C 142.45 155.01 141.87 155.73 141.95 156.54 C 142.04 157.34 142.76 157.93 143.56 157.84 Z M 144.53 157.72 L 145.50 157.60 C 146.29 157.51 146.85 156.80 146.76 156.01 C 146.67 155.21 145.96 154.65 145.16 154.74 L 144.20 154.85 C 143.41 154.94 142.84 155.66 142.93 156.45 C 143.02 157.24 143.74 157.81 144.53 157.72 Z M 145.50 157.59 L 146.50 157.47 C 147.28 157.38 147.84 156.66 147.74 155.88 C 147.65 155.09 146.93 154.53 146.15 154.63 L 145.16 154.75 C 144.37 154.84 143.81 155.56 143.91 156.34 C 144.00 157.13 144.72 157.69 145.50 157.59 Z M 146.50 157.47 L 147.49 157.34 C 148.27 157.24 148.83 156.53 148.73 155.75 C 148.63 154.97 147.92 154.41 147.14 154.51 L 146.14 154.63 C 145.36 154.73 144.81 155.44 144.91 156.23 C 145.00 157.01 145.72 157.56 146.50 157.47 Z M 147.49 157.34 L 147.58 157.33 C 148.36 157.23 148.91 156.52 148.81 155.74 C 148.71 154.96 148.00 154.40 147.22 154.50 L 147.14 154.51 C 146.36 154.61 145.80 155.32 145.90 156.10 C 146.00 156.88 146.71 157.44 147.49 157.34 Z"
      fill="black"
      fill-rule="nonzero" /><path d="M 161.11 119.29 L 160.23 119.64 C 159.40 119.96 158.99 120.90 159.32 121.72 C 159.64 122.55 160.58 122.96 161.41 122.63 L 162.29 122.29 C 163.12 121.96 163.52 121.03 163.20 120.20 C 162.87 119.37 161.94 118.96 161.11 119.29 Z M 159.89 119.80 L 159.06 120.38 C 158.32 120.89 158.14 121.91 158.66 122.64 C 159.17 123.38 160.18 123.56 160.92 123.04 L 161.74 122.47 C 162.48 121.95 162.66 120.94 162.15 120.20 C 161.63 119.47 160.62 119.29 159.89 119.80 Z M 158.78 120.61 L 158.16 121.30 C 157.55 121.96 157.60 122.99 158.27 123.60 C 158.93 124.20 159.96 124.16 160.57 123.49 L 161.19 122.81 C 161.80 122.15 161.75 121.11 161.09 120.51 C 160.42 119.90 159.39 119.95 158.78 120.61 Z M 158.08 121.39 L 157.43 122.23 C 156.88 122.94 157.00 123.97 157.72 124.52 C 158.43 125.07 159.45 124.94 160.00 124.23 L 160.65 123.39 C 161.20 122.68 161.07 121.66 160.36 121.11 C 159.65 120.55 158.63 120.68 158.08 121.39 Z M 157.42 122.25 L 156.79 123.07 C 156.25 123.79 156.38 124.81 157.10 125.35 C 157.81 125.90 158.84 125.76 159.38 125.04 L 160.01 124.22 C 160.55 123.50 160.42 122.48 159.70 121.94 C 158.99 121.39 157.96 121.53 157.42 122.25 Z M 156.80 123.06 L 156.18 123.85 C 155.63 124.56 155.76 125.58 156.47 126.13 C 157.17 126.69 158.19 126.56 158.75 125.85 L 159.37 125.06 C 159.92 124.35 159.79 123.33 159.08 122.78 C 158.38 122.23 157.36 122.35 156.80 123.06 Z M 156.20 123.85 L 155.57 124.64 C 155.02 125.34 155.13 126.36 155.83 126.91 C 156.54 127.47 157.55 127.35 158.11 126.65 L 158.73 125.86 C 159.29 125.16 159.17 124.14 158.47 123.58 C 157.77 123.03 156.75 123.15 156.20 123.85 Z M 155.58 124.63 L 154.95 125.43 C 154.39 126.12 154.50 127.13 155.20 127.69 C 155.89 128.25 156.91 128.14 157.46 127.44 L 158.10 126.65 C 158.65 125.96 158.54 124.94 157.85 124.38 C 157.15 123.83 156.14 123.94 155.58 124.63 Z M 154.97 125.43 L 154.34 126.20 C 153.78 126.89 153.88 127.89 154.57 128.45 C 155.25 129.00 156.26 128.90 156.81 128.22 L 157.44 127.44 C 158.00 126.76 157.90 125.75 157.21 125.19 C 156.53 124.64 155.52 124.74 154.97 125.43 Z M 154.36 126.20 L 153.73 126.96 C 153.18 127.63 153.27 128.62 153.94 129.18 C 154.61 129.74 155.61 129.65 156.16 128.97 L 156.79 128.22 C 157.35 127.55 157.25 126.55 156.58 125.99 C 155.91 125.44 154.92 125.53 154.36 126.20 Z M 153.75 126.96 L 153.11 127.72 C 152.55 128.38 152.63 129.36 153.29 129.92 C 153.95 130.48 154.93 130.40 155.49 129.74 L 156.14 128.98 C 156.70 128.32 156.62 127.33 155.96 126.77 C 155.30 126.22 154.31 126.30 153.75 126.96 Z M 153.12 127.72 L 152.47 128.49 C 151.91 129.14 151.99 130.12 152.64 130.67 C 153.29 131.23 154.27 131.15 154.83 130.50 L 155.48 129.73 C 156.03 129.08 155.96 128.11 155.30 127.55 C 154.65 127.00 153.68 127.07 153.12 127.72 Z M 152.47 128.51 L 151.83 129.27 C 151.29 129.92 151.38 130.89 152.03 131.43 C 152.68 131.98 153.64 131.89 154.19 131.24 L 154.82 130.48 C 155.37 129.83 155.28 128.86 154.63 128.32 C 153.98 127.77 153.01 127.86 152.47 128.51 Z M 151.83 129.30 L 151.19 130.09 C 150.67 130.74 150.77 131.70 151.42 132.23 C 152.08 132.75 153.04 132.65 153.56 132.00 L 154.20 131.21 C 154.72 130.55 154.62 129.60 153.97 129.07 C 153.31 128.54 152.35 128.65 151.83 129.30 Z M 151.18 130.12 L 150.58 130.91 C 150.07 131.57 150.20 132.52 150.85 133.02 C 151.51 133.53 152.46 133.41 152.97 132.75 L 153.57 131.96 C 154.08 131.30 153.96 130.35 153.30 129.85 C 152.64 129.34 151.69 129.46 151.18 130.12 Z M 150.57 130.95 L 149.98 131.74 C 149.50 132.41 149.64 133.34 150.30 133.83 C 150.96 134.32 151.90 134.17 152.38 133.51 L 152.97 132.71 C 153.46 132.05 153.32 131.12 152.66 130.63 C 151.99 130.14 151.06 130.28 150.57 130.95 Z M 149.99 131.78 L 149.41 132.59 C 148.94 133.25 149.09 134.17 149.75 134.64 C 150.41 135.11 151.33 134.96 151.80 134.29 L 152.38 133.48 C 152.85 132.82 152.70 131.90 152.04 131.43 C 151.38 130.96 150.46 131.11 149.99 131.78 Z M 149.42 132.61 L 148.84 133.43 C 148.38 134.09 148.54 134.99 149.20 135.45 C 149.86 135.91 150.76 135.75 151.22 135.09 L 151.79 134.27 C 152.25 133.61 152.09 132.71 151.44 132.25 C 150.78 131.79 149.88 131.95 149.42 132.61 Z M 148.85 133.44 L 148.72 133.63 C 148.27 134.28 148.43 135.18 149.08 135.63 C 149.73 136.09 150.63 135.92 151.08 135.27 L 151.21 135.08 C 151.66 134.43 151.50 133.54 150.85 133.08 C 150.20 132.63 149.30 132.79 148.85 133.44 Z"
      fill="black"
      fill-rule="nonzero" /><path d="M 155.77 130.01 L 156.56 129.46 C 157.24 128.98 157.40 128.04 156.92 127.36 C 156.44 126.68 155.50 126.52 154.82 127.00 L 154.04 127.55 C 153.36 128.03 153.19 128.97 153.67 129.65 C 154.15 130.33 155.09 130.49 155.77 130.01 Z M 156.19 129.67 L 157.15 129.34 C 157.95 129.06 158.37 128.19 158.09 127.39 C 157.81 126.59 156.94 126.17 156.14 126.45 L 155.18 126.79 C 154.38 127.07 153.97 127.94 154.24 128.74 C 154.52 129.53 155.40 129.95 156.19 129.67 Z M 156.79 129.43 L 157.80 129.33 C 158.64 129.25 159.27 128.50 159.19 127.66 C 159.11 126.81 158.36 126.19 157.51 126.27 L 156.50 126.36 C 155.66 126.44 155.03 127.19 155.11 128.04 C 155.19 128.88 155.94 129.51 156.79 129.43 Z M 157.67 129.34 L 158.69 129.33 C 159.55 129.33 160.23 128.63 160.22 127.78 C 160.21 126.92 159.52 126.24 158.66 126.25 L 157.64 126.26 C 156.79 126.27 156.10 126.96 156.11 127.82 C 156.12 128.67 156.82 129.35 157.67 129.34 Z M 158.67 129.33 L 159.68 129.34 C 160.53 129.34 161.22 128.66 161.23 127.81 C 161.23 126.96 160.55 126.26 159.70 126.26 L 158.69 126.25 C 157.84 126.25 157.14 126.93 157.14 127.78 C 157.13 128.63 157.82 129.33 158.67 129.33 Z M 159.63 129.33 L 160.55 129.36 C 161.40 129.39 162.11 128.73 162.14 127.88 C 162.17 127.04 161.51 126.33 160.66 126.30 L 159.74 126.27 C 158.90 126.24 158.19 126.90 158.16 127.74 C 158.13 128.59 158.79 129.30 159.63 129.33 Z M 160.48 129.35 L 161.46 129.43 C 162.30 129.51 163.03 128.89 163.11 128.05 C 163.18 127.21 162.56 126.47 161.72 126.40 L 160.74 126.31 C 159.90 126.24 159.16 126.86 159.09 127.70 C 159.02 128.54 159.64 129.27 160.48 129.35 Z M 161.37 129.42 L 162.39 129.57 C 163.22 129.69 163.99 129.11 164.11 128.29 C 164.23 127.46 163.66 126.69 162.83 126.57 L 161.81 126.42 C 160.98 126.29 160.21 126.87 160.09 127.70 C 159.97 128.52 160.54 129.29 161.37 129.42 Z M 162.33 129.55 L 163.32 129.74 C 164.14 129.89 164.93 129.36 165.09 128.54 C 165.25 127.72 164.71 126.93 163.89 126.77 L 162.89 126.58 C 162.07 126.43 161.28 126.96 161.13 127.78 C 160.97 128.60 161.51 129.39 162.33 129.55 Z M 163.28 129.72 L 164.28 129.95 C 165.09 130.12 165.89 129.61 166.07 128.80 C 166.25 127.99 165.74 127.19 164.93 127.01 L 163.93 126.78 C 163.12 126.61 162.32 127.12 162.14 127.93 C 161.96 128.74 162.47 129.54 163.28 129.72 Z M 164.22 129.93 L 165.26 130.20 C 166.06 130.41 166.88 129.93 167.09 129.13 C 167.30 128.33 166.82 127.51 166.02 127.30 L 164.98 127.02 C 164.18 126.81 163.36 127.29 163.15 128.10 C 162.94 128.90 163.42 129.72 164.22 129.93 Z M 165.16 130.16 L 166.05 130.46 C 166.83 130.73 167.68 130.31 167.95 129.53 C 168.21 128.75 167.79 127.90 167.01 127.63 L 166.12 127.33 C 165.34 127.07 164.49 127.48 164.23 128.27 C 163.96 129.05 164.38 129.90 165.16 130.16 Z M 165.78 130.36 L 166.69 130.88 C 167.42 131.29 168.34 131.04 168.75 130.32 C 169.16 129.59 168.91 128.67 168.19 128.26 L 167.28 127.74 C 166.55 127.33 165.63 127.58 165.22 128.30 C 164.81 129.03 165.06 129.95 165.78 130.36 Z M 165.98 130.06 L 166.24 130.83 C 166.51 131.64 167.38 132.07 168.19 131.80 C 168.99 131.53 169.43 130.66 169.16 129.85 L 168.90 129.08 C 168.63 128.27 167.76 127.84 166.95 128.11 C 166.15 128.38 165.71 129.25 165.98 130.06 Z M 166.24 129.79 L 165.89 130.72 C 165.58 131.52 165.99 132.42 166.79 132.73 C 167.59 133.03 168.49 132.63 168.80 131.83 L 169.16 130.90 C 169.46 130.09 169.06 129.19 168.25 128.89 C 167.45 128.58 166.55 128.98 166.24 129.79 Z M 165.98 130.50 L 165.48 131.38 C 165.06 132.13 165.32 133.08 166.07 133.51 C 166.82 133.94 167.78 133.68 168.20 132.93 L 168.70 132.05 C 169.13 131.30 168.87 130.34 168.12 129.91 C 167.37 129.48 166.41 129.75 165.98 130.50 Z M 165.50 131.34 L 165.00 132.17 C 164.55 132.91 164.79 133.87 165.53 134.32 C 166.28 134.77 167.24 134.53 167.69 133.79 L 168.19 132.96 C 168.64 132.22 168.40 131.26 167.66 130.81 C 166.91 130.36 165.95 130.60 165.50 131.34 Z M 165.00 132.16 L 164.46 133.05 C 164.00 133.80 164.24 134.76 164.98 135.22 C 165.73 135.67 166.69 135.43 167.15 134.69 L 167.69 133.80 C 168.14 133.05 167.91 132.08 167.16 131.63 C 166.42 131.18 165.45 131.42 165.00 132.16 Z M 164.45 133.05 L 163.97 133.85 C 163.52 134.60 163.76 135.57 164.50 136.02 C 165.25 136.47 166.22 136.23 166.67 135.49 L 167.15 134.69 C 167.60 133.94 167.36 132.97 166.62 132.52 C 165.87 132.07 164.90 132.31 164.45 133.05 Z M 163.97 133.84 L 163.44 134.72 C 162.98 135.46 163.21 136.43 163.95 136.89 C 164.70 137.34 165.67 137.11 166.13 136.37 L 166.66 135.50 C 167.12 134.75 166.89 133.78 166.14 133.32 C 165.40 132.87 164.43 133.10 163.97 133.84 Z M 163.44 134.70 L 162.87 135.61 C 162.40 136.35 162.62 137.33 163.36 137.79 C 164.10 138.26 165.07 138.04 165.54 137.30 L 166.12 136.39 C 166.59 135.65 166.37 134.67 165.63 134.21 C 164.89 133.74 163.91 133.96 163.44 134.70 Z M 162.88 135.59 L 162.29 136.48 C 161.81 137.21 162.01 138.19 162.74 138.67 C 163.47 139.15 164.45 138.95 164.94 138.22 L 165.52 137.33 C 166.01 136.60 165.80 135.61 165.07 135.13 C 164.34 134.65 163.36 134.86 162.88 135.59 Z M 162.31 136.46 L 161.72 137.31 C 161.23 138.03 161.42 139.02 162.14 139.51 C 162.86 140.00 163.84 139.82 164.33 139.10 L 164.92 138.24 C 165.41 137.52 165.23 136.54 164.51 136.04 C 163.79 135.55 162.80 135.74 162.31 136.46 Z M 161.74 137.29 L 161.20 138.05 C 160.69 138.77 160.85 139.75 161.56 140.26 C 162.28 140.77 163.26 140.60 163.77 139.89 L 164.32 139.12 C 164.82 138.41 164.66 137.42 163.95 136.92 C 163.24 136.41 162.25 136.58 161.74 137.29 Z M 161.23 138.02 L 160.59 138.85 C 160.07 139.55 160.20 140.54 160.90 141.06 C 161.59 141.59 162.58 141.45 163.11 140.76 L 163.74 139.92 C 164.26 139.23 164.13 138.24 163.43 137.72 C 162.74 137.19 161.75 137.33 161.23 138.02 Z M 160.65 138.80 L 160.03 139.53 C 159.48 140.20 159.57 141.19 160.23 141.74 C 160.90 142.30 161.89 142.21 162.44 141.54 L 163.05 140.81 C 163.61 140.14 163.52 139.16 162.86 138.60 C 162.19 138.05 161.20 138.14 160.65 138.80 Z M 160.09 139.49 L 159.46 140.18 C 158.88 140.82 158.93 141.80 159.57 142.38 C 160.20 142.96 161.19 142.91 161.77 142.27 L 162.39 141.59 C 162.97 140.95 162.92 139.96 162.29 139.39 C 161.65 138.81 160.66 138.85 160.09 139.49 Z M 159.51 140.14 L 158.81 140.85 C 158.20 141.46 158.21 142.44 158.82 143.04 C 159.43 143.64 160.41 143.64 161.01 143.03 L 161.72 142.32 C 162.32 141.71 162.31 140.73 161.70 140.12 C 161.10 139.52 160.11 139.53 159.51 140.14 Z M 158.90 140.78 L 158.13 141.44 C 157.49 142.00 157.42 142.98 157.98 143.62 C 158.54 144.26 159.52 144.33 160.16 143.77 L 160.92 143.10 C 161.56 142.54 161.63 141.57 161.07 140.93 C 160.51 140.28 159.54 140.22 158.90 140.78 Z M 158.24 141.38 L 157.43 141.98 C 156.76 142.48 156.62 143.43 157.12 144.11 C 157.62 144.78 158.58 144.92 159.25 144.42 L 160.05 143.83 C 160.73 143.33 160.87 142.37 160.37 141.70 C 159.86 141.02 158.91 140.88 158.24 141.38 Z M 157.49 141.97 L 156.76 142.47 C 156.08 142.94 155.90 143.88 156.37 144.56 C 156.84 145.24 157.78 145.41 158.46 144.94 L 159.19 144.44 C 159.88 143.97 160.05 143.03 159.58 142.35 C 159.11 141.67 158.18 141.50 157.49 141.97 Z"
      fill="black"
      fill-rule="nonzero" /><path d="M 153.12 134.58 L 154.03 134.92 C 154.82 135.21 155.71 134.81 156.00 134.01 C 156.30 133.21 155.89 132.33 155.10 132.03 L 154.19 131.70 C 153.39 131.40 152.51 131.81 152.21 132.60 C 151.92 133.40 152.32 134.28 153.12 134.58 Z M 154.15 134.97 L 155.12 135.24 C 155.95 135.47 156.81 134.99 157.03 134.16 C 157.26 133.33 156.78 132.47 155.95 132.25 L 154.98 131.98 C 154.15 131.75 153.29 132.23 153.06 133.06 C 152.83 133.89 153.32 134.75 154.15 134.97 Z M 155.33 135.29 L 156.34 135.43 C 157.19 135.54 157.98 134.95 158.09 134.09 C 158.21 133.24 157.61 132.45 156.76 132.34 L 155.75 132.20 C 154.89 132.08 154.11 132.68 153.99 133.53 C 153.87 134.39 154.47 135.17 155.33 135.29 Z M 156.48 135.43 L 157.51 135.47 C 158.36 135.51 159.08 134.84 159.11 133.99 C 159.15 133.14 158.49 132.42 157.64 132.38 L 156.61 132.34 C 155.76 132.30 155.04 132.96 155.00 133.82 C 154.97 134.67 155.63 135.39 156.48 135.43 Z M 157.56 135.45 L 158.57 135.45 C 159.41 135.46 160.09 134.78 160.10 133.94 C 160.10 133.10 159.42 132.41 158.58 132.41 L 157.58 132.40 C 156.74 132.40 156.05 133.08 156.05 133.92 C 156.04 134.76 156.72 135.45 157.56 135.45 Z M 158.58 135.42 L 159.61 135.42 C 160.43 135.42 161.10 134.75 161.10 133.92 C 161.10 133.10 160.43 132.43 159.60 132.43 L 158.57 132.44 C 157.74 132.44 157.08 133.11 157.08 133.93 C 157.08 134.76 157.75 135.43 158.58 135.42 Z M 159.63 135.39 L 160.57 135.37 C 161.37 135.36 162.02 134.70 162.01 133.89 C 161.99 133.08 161.33 132.44 160.52 132.45 L 159.58 132.47 C 158.78 132.48 158.13 133.14 158.14 133.95 C 158.16 134.76 158.82 135.40 159.63 135.39 Z M 160.59 135.35 L 161.59 135.32 C 162.38 135.30 163.01 134.64 162.98 133.84 C 162.96 133.04 162.30 132.42 161.50 132.44 L 160.50 132.47 C 159.71 132.50 159.08 133.16 159.10 133.96 C 159.13 134.75 159.79 135.38 160.59 135.35 Z M 161.57 135.32 L 162.57 135.29 C 163.36 135.28 163.99 134.62 163.97 133.83 C 163.96 133.04 163.30 132.41 162.51 132.43 L 161.52 132.45 C 160.72 132.47 160.10 133.12 160.11 133.91 C 160.13 134.70 160.78 135.33 161.57 135.32 Z M 162.55 135.29 L 163.55 135.29 C 164.34 135.28 164.97 134.64 164.97 133.85 C 164.97 133.06 164.32 132.43 163.54 132.43 L 162.54 132.44 C 161.75 132.44 161.11 133.08 161.11 133.87 C 161.12 134.66 161.76 135.29 162.55 135.29 Z M 163.54 135.28 L 163.74 135.28 C 164.53 135.28 165.16 134.65 165.16 133.86 C 165.16 133.07 164.53 132.43 163.74 132.43 L 163.54 132.43 C 162.75 132.43 162.12 133.07 162.12 133.86 C 162.12 134.65 162.75 135.28 163.54 135.28 Z"
      fill="black"
      fill-rule="nonzero" /><path d="M 152.09 138.93 L 153.03 139.21 C 153.82 139.45 154.66 139.01 154.90 138.22 C 155.14 137.43 154.69 136.59 153.90 136.35 L 152.96 136.07 C 152.17 135.83 151.34 136.27 151.10 137.06 C 150.86 137.85 151.30 138.68 152.09 138.93 Z M 153.17 139.28 L 154.16 139.48 C 154.99 139.64 155.80 139.10 155.96 138.27 C 156.12 137.44 155.58 136.63 154.75 136.47 L 153.76 136.28 C 152.93 136.12 152.13 136.66 151.96 137.49 C 151.80 138.32 152.34 139.12 153.17 139.28 Z M 154.42 139.52 L 155.42 139.54 C 156.27 139.56 156.98 138.89 157.00 138.04 C 157.02 137.19 156.35 136.48 155.49 136.46 L 154.49 136.43 C 153.64 136.41 152.93 137.09 152.91 137.94 C 152.89 138.79 153.57 139.50 154.42 139.52 Z M 155.58 139.52 L 156.59 139.44 C 157.43 139.37 158.06 138.63 157.99 137.79 C 157.92 136.95 157.18 136.33 156.34 136.40 L 155.33 136.48 C 154.49 136.55 153.87 137.28 153.94 138.12 C 154.00 138.96 154.74 139.59 155.58 139.52 Z M 156.62 139.41 L 157.63 139.31 C 158.45 139.22 159.05 138.49 158.97 137.66 C 158.89 136.84 158.15 136.24 157.32 136.32 L 156.32 136.42 C 155.49 136.51 154.89 137.25 154.97 138.07 C 155.06 138.89 155.80 139.50 156.62 139.41 Z M 157.58 139.29 L 158.58 139.22 C 159.39 139.16 160.00 138.45 159.94 137.64 C 159.89 136.82 159.18 136.21 158.37 136.27 L 157.37 136.34 C 156.56 136.40 155.95 137.11 156.00 137.92 C 156.06 138.73 156.77 139.35 157.58 139.29 Z M 158.52 139.20 L 159.50 139.16 C 160.30 139.13 160.93 138.45 160.90 137.65 C 160.87 136.85 160.19 136.23 159.39 136.25 L 158.42 136.29 C 157.61 136.32 156.99 137.00 157.02 137.80 C 157.05 138.60 157.72 139.23 158.52 139.20 Z M 159.46 139.14 L 160.46 139.13 C 161.25 139.12 161.89 138.47 161.88 137.68 C 161.87 136.88 161.22 136.25 160.42 136.26 L 159.43 136.27 C 158.63 136.28 158.00 136.93 158.01 137.72 C 158.02 138.52 158.67 139.15 159.46 139.14 Z M 160.44 139.12 L 161.24 139.12 C 162.03 139.12 162.67 138.48 162.66 137.69 C 162.66 136.90 162.02 136.26 161.23 136.26 L 160.44 136.27 C 159.65 136.27 159.01 136.91 159.01 137.70 C 159.01 138.49 159.65 139.13 160.44 139.12 Z"
      fill="black"
      fill-rule="nonzero" /><path d="M 152.05 145.65 L 152.29 146.62 C 152.49 147.42 153.31 147.92 154.11 147.72 C 154.92 147.52 155.41 146.71 155.21 145.90 L 154.98 144.93 C 154.78 144.13 153.96 143.63 153.16 143.83 C 152.35 144.03 151.86 144.84 152.05 145.65 Z M 152.25 146.54 L 152.44 147.53 C 152.59 148.36 153.39 148.90 154.22 148.74 C 155.05 148.59 155.60 147.79 155.44 146.96 L 155.25 145.97 C 155.10 145.15 154.30 144.60 153.47 144.76 C 152.64 144.91 152.10 145.71 152.25 146.54 Z M 152.41 147.38 L 152.50 148.38 C 152.58 149.23 153.32 149.85 154.17 149.77 C 155.01 149.70 155.64 148.95 155.56 148.10 L 155.47 147.10 C 155.39 146.26 154.65 145.64 153.80 145.71 C 152.96 145.79 152.33 146.54 152.41 147.38 Z M 152.50 148.26 L 152.51 149.26 C 152.52 150.11 153.21 150.79 154.06 150.78 C 154.90 150.77 155.58 150.07 155.57 149.23 L 155.56 148.23 C 155.55 147.38 154.86 146.70 154.01 146.71 C 153.17 146.72 152.49 147.42 152.50 148.26 Z M 152.53 149.20 L 152.49 150.22 C 152.47 151.06 153.12 151.76 153.96 151.79 C 154.79 151.82 155.49 151.16 155.52 150.33 L 155.55 149.30 C 155.58 148.46 154.93 147.76 154.09 147.73 C 153.26 147.71 152.56 148.36 152.53 149.20 Z M 152.52 150.20 L 152.47 151.20 C 152.43 152.02 153.06 152.72 153.88 152.76 C 154.70 152.80 155.40 152.17 155.45 151.35 L 155.50 150.35 C 155.54 149.53 154.90 148.83 154.08 148.79 C 153.26 148.75 152.56 149.38 152.52 150.20 Z M 152.49 151.22 L 152.46 152.22 C 152.43 153.03 153.06 153.70 153.87 153.73 C 154.68 153.76 155.36 153.13 155.39 152.32 L 155.42 151.32 C 155.45 150.51 154.82 149.83 154.01 149.81 C 153.20 149.78 152.52 150.41 152.49 151.22 Z M 152.48 152.26 L 152.48 153.23 C 152.47 154.03 153.11 154.68 153.91 154.68 C 154.70 154.69 155.35 154.05 155.36 153.25 L 155.36 152.28 C 155.37 151.48 154.73 150.83 153.93 150.83 C 153.14 150.82 152.49 151.46 152.48 152.26 Z M 152.49 153.24 L 152.49 153.34 C 152.49 154.13 153.13 154.77 153.92 154.77 C 154.70 154.77 155.34 154.13 155.34 153.34 L 155.34 153.24 C 155.34 152.45 154.70 151.81 153.92 151.81 C 153.13 151.81 152.49 152.45 152.49 153.24 Z"
      fill="black"
      fill-rule="nonzero" /><path d="M 154.96 149.38 L 155.86 149.27 C 156.69 149.17 157.29 148.41 157.19 147.57 C 157.08 146.74 156.33 146.15 155.49 146.25 L 154.60 146.36 C 153.76 146.46 153.17 147.22 153.27 148.05 C 153.37 148.89 154.13 149.48 154.96 149.38 Z M 155.81 149.29 L 156.83 149.20 C 157.68 149.13 158.31 148.38 158.23 147.53 C 158.16 146.69 157.41 146.06 156.56 146.13 L 155.54 146.22 C 154.69 146.30 154.07 147.04 154.14 147.89 C 154.22 148.74 154.96 149.37 155.81 149.29 Z M 156.77 149.22 L 157.80 149.17 C 158.65 149.13 159.31 148.41 159.27 147.55 C 159.24 146.70 158.51 146.04 157.66 146.07 L 156.63 146.12 C 155.77 146.16 155.11 146.88 155.15 147.74 C 155.19 148.59 155.91 149.25 156.77 149.22 Z M 157.75 149.16 L 158.76 149.14 C 159.61 149.13 160.29 148.43 160.27 147.57 C 160.26 146.72 159.56 146.05 158.70 146.06 L 157.70 146.08 C 156.85 146.10 156.17 146.80 156.18 147.65 C 156.20 148.50 156.90 149.18 157.75 149.16 Z M 158.74 149.13 L 159.78 149.12 C 160.62 149.12 161.30 148.43 161.29 147.59 C 161.29 146.75 160.60 146.07 159.76 146.07 L 158.72 146.08 C 157.88 146.08 157.20 146.77 157.21 147.61 C 157.21 148.46 157.90 149.13 158.74 149.13 Z M 159.77 149.11 L 160.80 149.11 C 161.63 149.11 162.31 148.43 162.31 147.60 C 162.31 146.76 161.63 146.09 160.80 146.09 L 159.77 146.09 C 158.93 146.09 158.26 146.76 158.26 147.60 C 158.26 148.43 158.93 149.11 159.77 149.11 Z M 160.80 149.09 L 161.84 149.09 C 162.66 149.09 163.33 148.42 163.33 147.60 C 163.33 146.77 162.66 146.10 161.84 146.10 L 160.80 146.10 C 159.97 146.10 159.30 146.77 159.30 147.60 C 159.30 148.42 159.97 149.09 160.80 149.09 Z M 161.84 149.07 L 162.80 149.07 C 163.62 149.07 164.28 148.41 164.28 147.60 C 164.28 146.78 163.62 146.12 162.80 146.12 L 161.84 146.12 C 161.03 146.12 160.37 146.78 160.37 147.60 C 160.37 148.41 161.03 149.07 161.84 149.07 Z M 162.80 149.05 L 163.76 149.05 C 164.57 149.05 165.22 148.40 165.22 147.60 C 165.22 146.79 164.57 146.14 163.76 146.14 L 162.80 146.14 C 162.00 146.14 161.35 146.79 161.35 147.60 C 161.35 148.40 162.00 149.05 162.80 149.05 Z M 163.76 149.04 L 164.76 149.05 C 165.56 149.05 166.21 148.40 166.21 147.60 C 166.21 146.80 165.56 146.15 164.77 146.15 L 163.77 146.15 C 162.97 146.15 162.32 146.80 162.32 147.59 C 162.32 148.39 162.96 149.04 163.76 149.04 Z M 164.75 149.04 L 165.76 149.04 C 166.55 149.05 167.20 148.41 167.20 147.62 C 167.21 146.82 166.57 146.17 165.78 146.17 L 164.77 146.16 C 163.98 146.15 163.33 146.79 163.32 147.59 C 163.32 148.38 163.96 149.03 164.75 149.04 Z M 165.74 149.04 L 166.75 149.05 C 167.54 149.07 168.19 148.43 168.20 147.64 C 168.21 146.85 167.58 146.20 166.79 146.19 L 165.79 146.17 C 165.00 146.16 164.35 146.79 164.33 147.58 C 164.32 148.37 164.95 149.03 165.74 149.04 Z M 166.73 149.05 L 167.73 149.07 C 168.52 149.09 169.18 148.47 169.20 147.68 C 169.21 146.89 168.59 146.23 167.80 146.21 L 166.80 146.19 C 166.01 146.17 165.36 146.80 165.34 147.59 C 165.32 148.38 165.95 149.03 166.73 149.05 Z M 167.73 149.07 L 168.71 149.10 C 169.49 149.12 170.15 148.49 170.17 147.71 C 170.19 146.92 169.57 146.26 168.78 146.24 L 167.80 146.22 C 167.02 146.20 166.36 146.82 166.34 147.61 C 166.32 148.39 166.94 149.05 167.73 149.07 Z"
      fill="black"
      fill-rule="nonzero" /><path d="M 152.84 156.80 L 153.26 157.71 C 153.60 158.45 154.47 158.77 155.21 158.44 C 155.94 158.10 156.27 157.23 155.93 156.49 L 155.52 155.57 C 155.18 154.84 154.31 154.51 153.57 154.85 C 152.83 155.19 152.50 156.06 152.84 156.80 Z M 153.93 158.48 L 154.71 158.86 C 155.47 159.22 156.39 158.90 156.76 158.14 C 157.13 157.37 156.80 156.45 156.04 156.09 L 155.26 155.71 C 154.50 155.34 153.58 155.67 153.21 156.43 C 152.84 157.20 153.16 158.12 153.93 158.48 Z M 155.44 159.03 L 156.48 158.99 C 157.34 158.95 158.01 158.22 157.97 157.36 C 157.94 156.50 157.21 155.83 156.35 155.87 L 155.31 155.91 C 154.45 155.95 153.78 156.68 153.81 157.54 C 153.85 158.40 154.58 159.07 155.44 159.03 Z M 156.68 158.97 L 157.69 158.79 C 158.54 158.64 159.11 157.83 158.96 156.98 C 158.81 156.13 158.00 155.56 157.15 155.71 L 156.14 155.89 C 155.29 156.04 154.72 156.85 154.87 157.70 C 155.02 158.55 155.83 159.12 156.68 158.97 Z M 157.75 158.78 L 158.73 158.57 C 159.57 158.39 160.10 157.56 159.92 156.71 C 159.74 155.87 158.91 155.33 158.07 155.51 L 157.09 155.72 C 156.25 155.91 155.71 156.74 155.89 157.58 C 156.07 158.42 156.91 158.96 157.75 158.78 Z M 158.72 158.56 L 159.71 158.35 C 160.55 158.17 161.09 157.35 160.91 156.51 C 160.73 155.67 159.90 155.13 159.06 155.31 L 158.07 155.52 C 157.23 155.70 156.70 156.52 156.87 157.36 C 157.05 158.21 157.88 158.74 158.72 158.56 Z M 159.68 158.36 L 160.66 158.17 C 161.50 158.01 162.05 157.20 161.89 156.35 C 161.73 155.51 160.92 154.96 160.08 155.12 L 159.10 155.30 C 158.25 155.46 157.70 156.28 157.86 157.12 C 158.02 157.96 158.83 158.52 159.68 158.36 Z M 160.62 158.17 L 161.62 158.01 C 162.46 157.87 163.03 157.08 162.90 156.23 C 162.76 155.39 161.96 154.81 161.12 154.95 L 160.12 155.11 C 159.27 155.25 158.70 156.05 158.84 156.89 C 158.97 157.74 159.77 158.31 160.62 158.17 Z M 161.57 158.01 L 162.57 157.88 C 163.41 157.77 164.01 156.99 163.90 156.15 C 163.79 155.31 163.01 154.71 162.17 154.82 L 161.17 154.95 C 160.32 155.06 159.73 155.84 159.84 156.68 C 159.95 157.53 160.72 158.12 161.57 158.01 Z M 162.52 157.87 L 163.51 157.77 C 164.35 157.69 164.96 156.94 164.88 156.10 C 164.79 155.27 164.05 154.66 163.21 154.74 L 162.22 154.84 C 161.38 154.92 160.77 155.66 160.85 156.50 C 160.94 157.34 161.68 157.95 162.52 157.87 Z M 163.46 157.75 L 164.46 157.69 C 165.29 157.63 165.92 156.91 165.86 156.08 C 165.81 155.26 165.09 154.63 164.26 154.69 L 163.26 154.75 C 162.43 154.81 161.80 155.53 161.86 156.35 C 161.92 157.18 162.63 157.81 163.46 157.75 Z M 164.42 157.67 L 165.43 157.63 C 166.25 157.59 166.88 156.90 166.85 156.08 C 166.81 155.27 166.12 154.63 165.31 154.66 L 164.30 154.70 C 163.48 154.74 162.85 155.43 162.88 156.25 C 162.91 157.06 163.60 157.70 164.42 157.67 Z M 165.40 157.61 L 166.39 157.59 C 167.20 157.57 167.84 156.90 167.82 156.09 C 167.80 155.28 167.14 154.64 166.33 154.66 L 165.34 154.68 C 164.53 154.70 163.89 155.37 163.90 156.18 C 163.92 156.98 164.59 157.62 165.40 157.61 Z M 166.37 157.57 L 167.41 157.56 C 168.21 157.55 168.85 156.90 168.84 156.10 C 168.83 155.30 168.18 154.66 167.38 154.67 L 166.35 154.68 C 165.55 154.68 164.91 155.34 164.91 156.14 C 164.92 156.93 165.57 157.58 166.37 157.57 Z M 167.40 157.55 L 168.35 157.55 C 169.15 157.55 169.79 156.90 169.79 156.11 C 169.79 155.32 169.14 154.68 168.35 154.68 L 167.39 154.68 C 166.60 154.68 165.96 155.32 165.96 156.12 C 165.96 156.91 166.60 157.55 167.40 157.55 Z M 168.35 157.54 L 169.38 157.54 C 170.17 157.54 170.81 156.90 170.81 156.11 C 170.81 155.32 170.17 154.68 169.38 154.68 L 168.35 154.68 C 167.56 154.68 166.92 155.32 166.92 156.11 C 166.92 156.90 167.56 157.54 168.35 157.54 Z M 169.38 157.54 L 170.07 157.54 C 170.86 157.54 171.50 156.90 171.50 156.11 C 171.50 155.33 170.86 154.69 170.07 154.69 L 169.38 154.69 C 168.59 154.69 167.95 155.33 167.95 156.11 C 167.95 156.90 168.59 157.54 169.38 157.54 Z"
      fill="black"
      fill-rule="nonzero" /><path d="M 164.84 147.80 L 163.85 147.55 C 163.05 147.34 162.23 147.82 162.02 148.62 C 161.81 149.42 162.30 150.24 163.10 150.45 L 164.09 150.70 C 164.89 150.91 165.71 150.43 165.92 149.63 C 166.12 148.83 165.64 148.01 164.84 147.80 Z M 162.14 148.25 L 161.78 148.89 C 161.36 149.63 161.63 150.56 162.36 150.97 C 163.10 151.39 164.04 151.12 164.45 150.39 L 164.81 149.75 C 165.22 149.01 164.96 148.08 164.22 147.66 C 163.48 147.25 162.55 147.51 162.14 148.25 Z M 161.57 149.61 L 161.55 150.74 C 161.53 151.60 162.21 152.30 163.06 152.32 C 163.91 152.34 164.62 151.66 164.63 150.81 L 164.66 149.67 C 164.67 148.82 164.00 148.11 163.14 148.10 C 162.29 148.08 161.59 148.76 161.57 149.61 Z M 161.54 150.83 L 161.57 151.81 C 161.60 152.66 162.32 153.33 163.17 153.30 C 164.03 153.28 164.70 152.56 164.67 151.70 L 164.64 150.73 C 164.61 149.87 163.90 149.20 163.04 149.23 C 162.18 149.25 161.51 149.97 161.54 150.83 Z M 161.57 151.86 L 161.64 152.88 C 161.70 153.74 162.44 154.39 163.29 154.33 C 164.15 154.27 164.80 153.53 164.74 152.67 L 164.67 151.65 C 164.61 150.79 163.87 150.15 163.02 150.20 C 162.16 150.26 161.51 151.00 161.57 151.86 Z M 161.64 152.94 L 161.74 153.84 C 161.83 154.70 162.59 155.32 163.45 155.23 C 164.30 155.14 164.92 154.37 164.83 153.52 L 164.74 152.62 C 164.65 151.76 163.88 151.14 163.03 151.23 C 162.17 151.32 161.56 152.09 161.64 152.94 Z M 161.74 153.87 L 161.87 154.87 C 161.97 155.73 162.75 156.33 163.60 156.23 C 164.45 156.12 165.05 155.35 164.95 154.50 L 164.83 153.49 C 164.72 152.64 163.95 152.04 163.10 152.14 C 162.25 152.24 161.64 153.02 161.74 153.87 Z M 161.87 154.87 L 162.00 155.92 C 162.10 156.77 162.87 157.37 163.72 157.27 C 164.57 157.17 165.17 156.40 165.07 155.55 L 164.95 154.50 C 164.84 153.65 164.07 153.05 163.22 153.15 C 162.37 153.25 161.77 154.02 161.87 154.87 Z M 162.00 155.91 L 162.12 156.89 C 162.21 157.74 162.97 158.35 163.82 158.25 C 164.67 158.16 165.27 157.39 165.18 156.55 L 165.07 155.56 C 164.97 154.71 164.21 154.10 163.36 154.20 C 162.51 154.30 161.91 155.06 162.00 155.91 Z M 162.12 156.89 L 162.24 157.91 C 162.33 158.75 163.08 159.36 163.92 159.26 C 164.76 159.17 165.37 158.42 165.28 157.58 L 165.17 156.56 C 165.08 155.72 164.32 155.11 163.48 155.20 C 162.64 155.29 162.03 156.05 162.12 156.89 Z M 162.25 157.90 L 162.35 158.91 C 162.44 159.74 163.19 160.35 164.02 160.26 C 164.85 160.17 165.46 159.43 165.37 158.59 L 165.27 157.59 C 165.18 156.75 164.43 156.14 163.60 156.23 C 162.76 156.32 162.16 157.07 162.25 157.90 Z M 162.37 158.90 L 162.47 159.97 C 162.56 160.79 163.29 161.39 164.12 161.31 C 164.95 161.23 165.55 160.49 165.47 159.66 L 165.36 158.60 C 165.28 157.77 164.54 157.17 163.71 157.25 C 162.89 157.34 162.28 158.07 162.37 158.90 Z M 162.49 159.96 L 162.59 160.94 C 162.67 161.75 163.40 162.35 164.21 162.27 C 165.03 162.19 165.62 161.46 165.54 160.65 L 165.45 159.67 C 165.37 158.85 164.64 158.26 163.82 158.34 C 163.01 158.42 162.41 159.14 162.49 159.96 Z M 162.61 160.94 L 162.70 161.89 C 162.78 162.70 163.50 163.28 164.31 163.20 C 165.11 163.12 165.70 162.40 165.62 161.59 L 165.53 160.64 C 165.44 159.84 164.72 159.25 163.92 159.33 C 163.11 159.41 162.52 160.13 162.61 160.94 Z M 162.72 161.89 L 162.83 162.92 C 162.91 163.72 163.62 164.30 164.42 164.22 C 165.22 164.13 165.80 163.42 165.71 162.62 L 165.61 161.59 C 165.52 160.79 164.81 160.21 164.01 160.30 C 163.21 160.38 162.63 161.09 162.72 161.89 Z M 162.84 162.92 L 162.93 163.87 C 163.01 164.66 163.72 165.24 164.51 165.16 C 165.30 165.08 165.87 164.38 165.80 163.59 L 165.70 162.63 C 165.62 161.84 164.92 161.26 164.13 161.34 C 163.34 161.42 162.76 162.12 162.84 162.92 Z M 162.94 163.85 L 163.02 164.86 C 163.09 165.65 163.78 166.23 164.57 166.17 C 165.35 166.10 165.94 165.41 165.87 164.62 L 165.79 163.61 C 165.72 162.82 165.03 162.24 164.25 162.30 C 163.46 162.37 162.87 163.06 162.94 163.85 Z M 163.02 164.84 L 163.09 165.81 C 163.15 166.60 163.83 167.19 164.61 167.14 C 165.40 167.09 165.99 166.40 165.94 165.62 L 165.87 164.64 C 165.82 163.86 165.14 163.26 164.35 163.32 C 163.56 163.37 162.97 164.05 163.02 164.84 Z M 163.09 165.81 L 163.10 165.98 C 163.16 166.77 163.83 167.36 164.62 167.31 C 165.40 167.26 166.00 166.58 165.95 165.80 L 165.94 165.62 C 165.89 164.84 165.21 164.24 164.42 164.29 C 163.64 164.34 163.04 165.02 163.09 165.81 Z"
      fill="black"
      fill-rule="nonzero" /><path d="M 152.38 162.44 L 151.81 163.27 C 151.32 163.97 151.50 164.93 152.20 165.42 C 152.90 165.90 153.86 165.73 154.35 165.03 L 154.92 164.20 C 155.41 163.49 155.24 162.53 154.53 162.04 C 153.83 161.56 152.87 161.73 152.38 162.44 Z M 151.64 163.61 L 151.30 164.51 C 151.00 165.30 151.41 166.19 152.20 166.49 C 152.99 166.79 153.88 166.38 154.18 165.59 L 154.52 164.69 C 154.81 163.89 154.41 163.01 153.62 162.71 C 152.82 162.41 151.94 162.81 151.64 163.61 Z M 151.21 165.05 L 151.21 166.05 C 151.21 166.89 151.89 167.58 152.74 167.58 C 153.58 167.58 154.27 166.89 154.27 166.05 L 154.27 165.05 C 154.27 164.20 153.59 163.52 152.74 163.52 C 151.89 163.52 151.21 164.20 151.21 165.05 Z M 151.26 166.44 L 151.52 167.42 C 151.74 168.24 152.58 168.72 153.40 168.51 C 154.21 168.29 154.70 167.45 154.48 166.63 L 154.22 165.65 C 154.00 164.84 153.16 164.35 152.35 164.57 C 151.53 164.79 151.04 165.63 151.26 166.44 Z M 151.66 167.76 L 152.13 168.63 C 152.53 169.37 153.46 169.65 154.20 169.25 C 154.95 168.84 155.22 167.92 154.82 167.17 L 154.34 166.30 C 153.94 165.56 153.01 165.28 152.27 165.68 C 151.53 166.09 151.25 167.01 151.66 167.76 Z M 152.41 169.00 L 153.11 169.67 C 153.71 170.26 154.68 170.24 155.27 169.63 C 155.86 169.03 155.84 168.06 155.23 167.47 L 154.54 166.80 C 153.93 166.22 152.96 166.23 152.38 166.84 C 151.79 167.45 151.81 168.42 152.41 169.00 Z M 153.49 169.94 L 154.38 170.39 C 155.14 170.77 156.06 170.46 156.43 169.70 C 156.81 168.95 156.50 168.03 155.75 167.65 L 154.85 167.20 C 154.10 166.82 153.18 167.13 152.80 167.89 C 152.42 168.65 152.73 169.56 153.49 169.94 Z M 154.66 170.49 L 155.54 170.73 C 156.35 170.95 157.19 170.48 157.41 169.67 C 157.64 168.86 157.16 168.02 156.35 167.79 L 155.47 167.55 C 154.66 167.33 153.82 167.80 153.60 168.61 C 153.37 169.42 153.85 170.26 154.66 170.49 Z M 155.70 170.75 L 156.76 170.93 C 157.58 171.06 158.36 170.50 158.49 169.68 C 158.63 168.86 158.07 168.08 157.25 167.94 L 156.19 167.77 C 155.37 167.64 154.59 168.19 154.45 169.02 C 154.32 169.84 154.88 170.62 155.70 170.75 Z M 156.85 170.93 L 157.81 171.03 C 158.64 171.12 159.38 170.52 159.46 169.69 C 159.55 168.87 158.95 168.13 158.13 168.04 L 157.16 167.94 C 156.33 167.85 155.59 168.45 155.51 169.28 C 155.42 170.10 156.02 170.84 156.85 170.93 Z M 157.86 171.03 L 158.84 171.10 C 159.67 171.16 160.39 170.54 160.45 169.71 C 160.51 168.89 159.88 168.17 159.06 168.11 L 158.08 168.04 C 157.25 167.98 156.53 168.60 156.47 169.43 C 156.41 170.26 157.03 170.98 157.86 171.03 Z M 158.88 171.11 L 159.92 171.16 C 160.75 171.20 161.46 170.56 161.49 169.73 C 161.53 168.90 160.89 168.19 160.06 168.15 L 159.02 168.10 C 158.19 168.07 157.49 168.71 157.45 169.54 C 157.41 170.36 158.05 171.07 158.88 171.11 Z M 159.95 171.16 L 161.00 171.19 C 161.83 171.21 162.52 170.56 162.55 169.73 C 162.57 168.90 161.92 168.21 161.09 168.18 L 160.04 168.15 C 159.21 168.13 158.52 168.78 158.49 169.61 C 158.47 170.44 159.12 171.13 159.95 171.16 Z M 161.03 171.18 L 162.05 171.19 C 162.88 171.20 163.56 170.54 163.57 169.71 C 163.57 168.89 162.91 168.21 162.09 168.20 L 161.06 168.19 C 160.23 168.18 159.56 168.84 159.55 169.67 C 159.54 170.50 160.20 171.17 161.03 171.18 Z M 162.08 171.18 L 163.09 171.18 C 163.91 171.17 164.57 170.50 164.57 169.68 C 164.56 168.85 163.89 168.19 163.07 168.20 L 162.06 168.21 C 161.24 168.22 160.58 168.89 160.58 169.71 C 160.59 170.53 161.26 171.19 162.08 171.18 Z M 163.13 171.17 L 164.09 171.13 C 164.90 171.11 165.54 170.42 165.52 169.61 C 165.49 168.79 164.81 168.15 163.99 168.18 L 163.03 168.21 C 162.21 168.24 161.57 168.92 161.60 169.74 C 161.63 170.55 162.31 171.19 163.13 171.17 Z M 164.14 171.12 L 165.20 171.05 C 166.01 171.00 166.62 170.30 166.57 169.49 C 166.52 168.68 165.82 168.07 165.01 168.12 L 163.94 168.19 C 163.13 168.24 162.52 168.94 162.57 169.75 C 162.63 170.56 163.33 171.18 164.14 171.12 Z M 165.24 171.04 L 166.23 170.95 C 167.03 170.87 167.62 170.16 167.54 169.35 C 167.47 168.55 166.75 167.96 165.95 168.04 L 164.96 168.13 C 164.16 168.21 163.57 168.92 163.65 169.73 C 163.73 170.53 164.44 171.12 165.24 171.04 Z M 166.25 170.93 L 167.18 170.83 C 167.98 170.74 168.55 170.02 168.46 169.23 C 168.38 168.43 167.66 167.86 166.86 167.95 L 165.93 168.05 C 165.13 168.14 164.56 168.86 164.65 169.65 C 164.74 170.45 165.45 171.02 166.25 170.93 Z M 167.18 170.82 L 168.19 170.71 C 168.98 170.62 169.55 169.91 169.47 169.12 C 169.38 168.33 168.66 167.75 167.87 167.84 L 166.86 167.95 C 166.07 168.04 165.50 168.76 165.59 169.55 C 165.68 170.34 166.39 170.91 167.18 170.82 Z M 168.19 170.70 L 169.17 170.60 C 169.96 170.51 170.53 169.80 170.44 169.02 C 170.36 168.23 169.65 167.66 168.86 167.74 L 167.88 167.85 C 167.09 167.94 166.52 168.64 166.60 169.43 C 166.69 170.22 167.40 170.79 168.19 170.70 Z M 169.17 170.59 L 169.70 170.53 C 170.48 170.45 171.05 169.75 170.96 168.96 C 170.88 168.18 170.18 167.61 169.39 167.69 L 168.86 167.75 C 168.08 167.83 167.51 168.54 167.60 169.32 C 167.68 170.11 168.39 170.67 169.17 170.59 Z"
      fill="black"
      fill-rule="nonzero" /><path d="M 173.03 159.85 L 172.90 160.74 C 172.77 161.58 173.35 162.36 174.19 162.48 C 175.03 162.61 175.81 162.03 175.93 161.19 L 176.07 160.30 C 176.19 159.46 175.61 158.68 174.77 158.56 C 173.94 158.43 173.16 159.01 173.03 159.85 Z M 172.84 160.85 L 172.76 161.92 C 172.69 162.79 173.35 163.55 174.22 163.62 C 175.09 163.68 175.85 163.03 175.91 162.16 L 175.99 161.08 C 176.06 160.21 175.41 159.45 174.53 159.39 C 173.66 159.32 172.90 159.98 172.84 160.85 Z M 172.75 162.02 L 172.74 162.94 C 172.73 163.81 173.43 164.53 174.30 164.54 C 175.17 164.55 175.89 163.86 175.91 162.98 L 175.92 162.06 C 175.93 161.19 175.23 160.47 174.36 160.46 C 173.48 160.44 172.77 161.14 172.75 162.02 Z M 172.78 162.98 L 172.79 164.01 C 172.80 164.86 173.50 165.55 174.35 165.54 C 175.20 165.53 175.88 164.83 175.87 163.98 L 175.86 162.94 C 175.86 162.09 175.16 161.41 174.31 161.42 C 173.46 161.43 172.77 162.12 172.78 162.98 Z M 172.83 164.02 L 172.84 164.86 C 172.86 165.69 173.55 166.35 174.38 166.33 C 175.21 166.32 175.87 165.63 175.85 164.80 L 175.84 163.97 C 175.82 163.14 175.14 162.48 174.31 162.49 C 173.47 162.51 172.81 163.19 172.83 164.02 Z"
      fill="black"
      fill-rule="nonzero" /></svg>