<svg xmlns="http://www.w3.org/2000/svg" width="300" height="300" viewBox="0 0 300 300">
<path d="M 138.72 126.57 L 139.45 127.26 C 140.04 127.83 140.99 127.81 141.56 127.22 C 142.13 126.62 142.11 125.68 141.51 125.10 L 140.79 124.41 C 140.19 123.84 139.24 123.86 138.67 124.45 C 138.10 125.05 138.12 125.99 138.72 126.57 Z M 139.42 127.30 L 140.14 127.99 C 140.76 128.57 141.73 128.55 142.32 127.93 C 142.91 127.31 142.88 126.34 142.26 125.75 L 141.54 125.06 C 140.92 124.48 139.95 124.50 139.36 125.12 C 138.77 125.74 138.80 126.72 139.42 127.30 Z M 140.15 128.00 L 140.89 128.68 C 141.51 129.26 142.48 129.23 143.07 128.60 C 143.65 127.98 143.61 127.01 142.99 126.43 L 142.25 125.74 C 141.63 125.16 140.66 125.20 140.07 125.82 C 139.49 126.44 139.53 127.42 140.15 128.00 Z M 140.94 128.64 L 141.67 129.32 C 142.27 129.87 143.21 129.83 143.76 129.23 C 144.31 128.63 144.27 127.69 143.67 127.14 L 142.94 126.47 C 142.34 125.91 141.40 125.95 140.85 126.55 C 140.30 127.15 140.34 128.09 140.94 128.64 Z M 141.70 129.28 L 141.87 129.44 C 142.46 129.98 143.37 129.94 143.90 129.35 C 144.44 128.77 144.40 127.86 143.81 127.33 L 143.64 127.17 C 143.05 126.63 142.15 126.67 141.61 127.26 C 141.08 127.84 141.12 128.75 141.70 129.28 Z"
      fill="black"
      fill-rule="nonzero" /><path d="M 155.31 123.36 L 154.53 123.92 C 153.84 124.42 153.68 125.40 154.18 126.09 C 154.68 126.79 155.65 126.94 156.35 126.44 L 157.13 125.88 C 157.82 125.38 157.98 124.41 157.48 123.71 C 156.98 123.02 156.01 122.86 155.31 123.36 Z M 154.42 124.01 L 153.69 124.65 C 153.04 125.21 152.97 126.19 153.53 126.84 C 154.10 127.49 155.08 127.55 155.72 126.99 L 156.46 126.35 C 157.10 125.79 157.17 124.81 156.61 124.17 C 156.05 123.52 155.07 123.45 154.42 124.01 Z M 153.59 124.76 L 152.94 125.45 C 152.36 126.06 152.38 127.04 153.00 127.62 C 153.62 128.21 154.59 128.18 155.17 127.56 L 155.82 126.88 C 156.41 126.26 156.38 125.29 155.76 124.71 C 155.15 124.12 154.17 124.15 153.59 124.76 Z M 152.89 125.53 L 152.17 126.39 C 151.63 127.03 151.72 127.99 152.36 128.53 C 153.01 129.07 153.97 128.99 154.51 128.34 L 155.22 127.48 C 155.76 126.84 155.68 125.88 155.03 125.34 C 154.39 124.80 153.43 124.88 152.89 125.53 Z M 152.15 126.44 L 151.52 127.24 C 151.01 127.90 151.12 128.85 151.78 129.36 C 152.44 129.87 153.39 129.75 153.90 129.10 L 154.53 128.29 C 155.04 127.63 154.92 126.69 154.27 126.17 C 153.61 125.66 152.66 125.78 152.15 126.44 Z M 151.51 127.27 L 150.89 128.09 C 150.39 128.75 150.52 129.69 151.18 130.19 C 151.84 130.69 152.78 130.56 153.28 129.90 L 153.91 129.07 C 154.40 128.41 154.27 127.47 153.61 126.97 C 152.95 126.47 152.01 126.61 151.51 127.27 Z M 150.89 128.11 L 150.31 128.89 C 149.82 129.55 149.96 130.48 150.62 130.97 C 151.28 131.46 152.21 131.32 152.70 130.66 L 153.28 129.88 C 153.77 129.22 153.63 128.29 152.97 127.80 C 152.31 127.31 151.38 127.45 150.89 128.11 Z M 150.32 128.90 L 149.72 129.71 C 149.24 130.36 149.37 131.29 150.03 131.77 C 150.68 132.26 151.61 132.12 152.09 131.46 L 152.69 130.65 C 153.18 130.00 153.04 129.08 152.39 128.59 C 151.73 128.11 150.81 128.24 150.32 128.90 Z M 149.74 129.71 L 149.16 130.47 C 148.67 131.12 148.80 132.04 149.45 132.53 C 150.10 133.01 151.01 132.88 151.50 132.23 L 152.08 131.46 C 152.56 130.82 152.43 129.90 151.79 129.41 C 151.14 128.93 150.22 129.06 149.74 129.71 Z M 149.17 130.47 L 148.61 131.20 C 148.12 131.84 148.24 132.75 148.88 133.24 C 149.52 133.73 150.44 133.61 150.93 132.97 L 151.49 132.24 C 151.98 131.60 151.86 130.69 151.22 130.20 C 150.58 129.71 149.66 129.83 149.17 130.47 Z M 148.62 131.18 L 147.98 131.99 C 147.48 132.63 147.59 133.54 148.22 134.04 C 148.85 134.54 149.77 134.43 150.27 133.80 L 150.91 132.99 C 151.41 132.36 151.30 131.44 150.67 130.94 C 150.04 130.44 149.12 130.55 148.62 131.18 Z M 148.00 131.97 L 147.34 132.77 C 146.83 133.39 146.92 134.31 147.54 134.82 C 148.16 135.33 149.08 135.25 149.59 134.63 L 150.25 133.83 C 150.76 133.21 150.68 132.29 150.05 131.77 C 149.43 131.26 148.52 131.35 148.00 131.97 Z M 147.37 132.74 L 146.72 133.47 C 146.19 134.08 146.25 135.00 146.86 135.53 C 147.47 136.06 148.39 136.00 148.92 135.39 L 149.56 134.66 C 150.10 134.05 150.03 133.13 149.43 132.60 C 148.82 132.07 147.90 132.13 147.37 132.74 Z M 146.75 133.43 L 146.06 134.17 C 145.51 134.76 145.55 135.69 146.14 136.24 C 146.73 136.79 147.66 136.76 148.21 136.17 L 148.90 135.43 C 149.45 134.84 149.41 133.91 148.82 133.36 C 148.23 132.81 147.30 132.84 146.75 133.43 Z M 146.09 134.13 L 145.36 134.88 C 144.78 135.46 144.79 136.39 145.37 136.96 C 145.95 137.53 146.88 137.53 147.45 136.95 L 148.19 136.20 C 148.76 135.62 148.75 134.69 148.17 134.12 C 147.59 133.55 146.66 133.56 146.09 134.13 Z M 145.38 134.84 L 144.61 135.58 C 144.02 136.14 144.00 137.08 144.57 137.67 C 145.13 138.26 146.07 138.28 146.66 137.71 L 147.43 136.98 C 148.02 136.42 148.04 135.48 147.47 134.89 C 146.91 134.30 145.97 134.28 145.38 134.84 Z M 144.64 135.54 L 143.89 136.21 C 143.28 136.76 143.24 137.71 143.79 138.32 C 144.34 138.93 145.29 138.98 145.90 138.42 L 146.64 137.75 C 147.25 137.20 147.30 136.25 146.75 135.64 C 146.19 135.03 145.25 134.98 144.64 135.54 Z M 143.93 136.16 L 143.06 136.88 C 142.42 137.41 142.33 138.36 142.87 139.00 C 143.40 139.64 144.35 139.73 144.99 139.20 L 145.86 138.48 C 146.50 137.95 146.59 136.99 146.06 136.35 C 145.53 135.71 144.57 135.62 143.93 136.16 Z M 143.04 136.87 L 142.42 137.39 C 141.77 137.93 141.69 138.90 142.23 139.55 C 142.78 140.20 143.75 140.28 144.39 139.74 L 145.01 139.21 C 145.66 138.67 145.75 137.70 145.20 137.05 C 144.65 136.40 143.69 136.32 143.04 136.87 Z M 143.77 140.08 L 144.52 139.90 C 145.36 139.70 145.88 138.86 145.68 138.02 C 145.48 137.18 144.63 136.66 143.80 136.86 L 143.04 137.05 C 142.21 137.25 141.69 138.09 141.89 138.92 C 142.09 139.76 142.93 140.28 143.77 140.08 Z M 144.63 139.88 L 145.64 139.57 C 146.46 139.31 146.93 138.43 146.67 137.60 C 146.41 136.77 145.53 136.31 144.70 136.57 L 143.69 136.88 C 142.86 137.14 142.40 138.02 142.66 138.85 C 142.92 139.68 143.80 140.14 144.63 139.88 Z M 145.60 139.58 L 146.55 139.31 C 147.38 139.07 147.86 138.20 147.63 137.36 C 147.39 136.53 146.51 136.05 145.68 136.28 L 144.74 136.55 C 143.90 136.79 143.42 137.67 143.66 138.50 C 143.90 139.34 144.77 139.82 145.60 139.58 Z M 146.53 139.31 L 147.56 139.03 C 148.40 138.80 148.89 137.93 148.66 137.09 C 148.42 136.26 147.56 135.76 146.72 136.00 L 145.69 136.28 C 144.85 136.51 144.36 137.38 144.60 138.22 C 144.83 139.06 145.69 139.55 146.53 139.31 Z M 147.56 139.03 L 148.51 138.77 C 149.35 138.54 149.84 137.67 149.61 136.83 C 149.38 135.99 148.51 135.50 147.68 135.73 L 146.72 136.00 C 145.88 136.23 145.39 137.09 145.62 137.93 C 145.85 138.77 146.72 139.26 147.56 139.03 Z M 148.52 138.76 L 149.52 138.48 C 150.36 138.25 150.84 137.38 150.61 136.55 C 150.38 135.71 149.51 135.22 148.67 135.46 L 147.67 135.74 C 146.84 135.97 146.35 136.84 146.58 137.67 C 146.81 138.51 147.68 139.00 148.52 138.76 Z M 149.53 138.48 L 150.52 138.19 C 151.35 137.96 151.84 137.09 151.60 136.25 C 151.36 135.42 150.49 134.94 149.65 135.18 L 148.66 135.46 C 147.83 135.70 147.35 136.57 147.59 137.40 C 147.83 138.24 148.70 138.72 149.53 138.48 Z M 150.54 138.18 L 151.55 137.88 C 152.38 137.63 152.85 136.76 152.60 135.93 C 152.35 135.10 151.48 134.63 150.65 134.88 L 149.64 135.19 C 148.81 135.43 148.34 136.31 148.59 137.14 C 148.84 137.96 149.71 138.43 150.54 138.18 Z M 151.57 137.87 L 152.49 137.58 C 153.31 137.32 153.77 136.44 153.51 135.62 C 153.25 134.80 152.38 134.35 151.56 134.60 L 150.63 134.89 C 149.81 135.15 149.36 136.03 149.61 136.85 C 149.87 137.67 150.75 138.13 151.57 137.87 Z M 152.50 137.57 L 153.41 137.27 C 154.23 137.01 154.68 136.13 154.41 135.32 C 154.15 134.50 153.27 134.05 152.46 134.32 L 151.55 134.61 C 150.73 134.88 150.28 135.75 150.55 136.57 C 150.81 137.39 151.69 137.83 152.50 137.57 Z M 153.42 137.26 L 154.38 136.94 C 155.19 136.67 155.62 135.80 155.35 134.99 C 155.08 134.18 154.21 133.74 153.40 134.01 L 152.45 134.33 C 151.64 134.60 151.20 135.47 151.47 136.28 C 151.74 137.09 152.61 137.53 153.42 137.26 Z M 154.39 136.93 L 155.33 136.61 C 156.13 136.33 156.56 135.46 156.28 134.65 C 156.00 133.85 155.13 133.42 154.32 133.70 L 153.39 134.02 C 152.58 134.30 152.15 135.18 152.43 135.98 C 152.71 136.78 153.59 137.21 154.39 136.93 Z M 155.34 136.59 L 156.32 136.24 C 157.12 135.96 157.53 135.08 157.24 134.28 C 156.96 133.49 156.08 133.08 155.29 133.36 L 154.31 133.71 C 153.51 134.00 153.10 134.88 153.39 135.67 C 153.67 136.47 154.55 136.88 155.34 136.59 Z M 156.34 136.22 L 157.27 135.86 C 158.05 135.57 158.45 134.69 158.15 133.91 C 157.85 133.13 156.98 132.74 156.20 133.03 L 155.27 133.39 C 154.48 133.68 154.09 134.56 154.39 135.34 C 154.68 136.12 155.56 136.51 156.34 136.22 Z M 157.30 135.83 L 158.22 135.46 C 158.99 135.14 159.35 134.27 159.04 133.50 C 158.73 132.74 157.85 132.37 157.09 132.69 L 156.17 133.06 C 155.40 133.38 155.04 134.25 155.35 135.02 C 155.66 135.78 156.54 136.15 157.30 135.83 Z M 158.26 135.42 L 159.16 135.02 C 159.90 134.69 160.24 133.81 159.90 133.07 C 159.57 132.32 158.69 131.98 157.95 132.32 L 157.05 132.72 C 156.30 133.05 155.97 133.93 156.30 134.68 C 156.64 135.42 157.51 135.76 158.26 135.42 Z M 159.18 134.99 L 160.06 134.58 C 160.79 134.23 161.10 133.36 160.75 132.63 C 160.41 131.90 159.53 131.58 158.80 131.93 L 157.92 132.35 C 157.19 132.69 156.88 133.57 157.23 134.30 C 157.57 135.03 158.45 135.34 159.18 134.99 Z M 160.06 134.56 L 160.97 134.12 C 161.69 133.77 161.99 132.90 161.64 132.18 C 161.29 131.46 160.43 131.16 159.71 131.51 L 158.80 131.95 C 158.08 132.30 157.78 133.16 158.12 133.89 C 158.47 134.61 159.34 134.91 160.06 134.56 Z M 160.97 134.11 L 161.27 133.97 C 161.98 133.62 162.28 132.76 161.93 132.04 C 161.58 131.32 160.72 131.03 160.00 131.37 L 159.71 131.52 C 158.99 131.87 158.69 132.73 159.04 133.45 C 159.39 134.16 160.25 134.46 160.97 134.11 Z"
      fill="black"
      fill-rule="nonzero" /><path d="M 139.51 148.80 L 140.46 148.42 C 141.24 148.11 141.61 147.23 141.30 146.46 C 140.99 145.68 140.11 145.31 139.34 145.62 L 138.39 146.00 C 137.62 146.31 137.24 147.19 137.55 147.96 C 137.86 148.74 138.74 149.11 139.51 148.80 Z M 140.48 148.47 L 141.40 148.11 C 142.20 147.78 142.59 146.87 142.27 146.07 C 141.94 145.27 141.03 144.88 140.23 145.20 L 139.32 145.56 C 138.51 145.89 138.12 146.80 138.45 147.60 C 138.77 148.41 139.68 148.80 140.48 148.47 Z M 141.41 148.12 L 142.34 147.74 C 143.15 147.42 143.54 146.49 143.22 145.68 C 142.89 144.87 141.96 144.48 141.15 144.81 L 140.22 145.18 C 139.41 145.51 139.01 146.44 139.34 147.25 C 139.67 148.06 140.59 148.45 141.41 148.12 Z M 142.35 147.72 L 143.26 147.34 C 144.05 147.01 144.43 146.09 144.10 145.29 C 143.77 144.50 142.85 144.12 142.05 144.45 L 141.14 144.83 C 140.35 145.16 139.97 146.08 140.30 146.88 C 140.64 147.67 141.55 148.05 142.35 147.72 Z M 143.27 147.32 L 144.17 146.93 C 144.95 146.59 145.31 145.68 144.98 144.89 C 144.64 144.11 143.73 143.75 142.94 144.09 L 142.04 144.48 C 141.26 144.82 140.90 145.73 141.24 146.51 C 141.58 147.29 142.49 147.65 143.27 147.32 Z M 144.16 146.92 L 145.10 146.52 C 145.88 146.18 146.24 145.28 145.90 144.50 C 145.57 143.72 144.67 143.36 143.88 143.69 L 142.95 144.09 C 142.17 144.43 141.81 145.33 142.14 146.11 C 142.48 146.89 143.38 147.25 144.16 146.92 Z M 145.08 146.52 L 145.98 146.15 C 146.76 145.83 147.13 144.93 146.81 144.15 C 146.49 143.37 145.59 142.99 144.81 143.32 L 143.91 143.69 C 143.12 144.01 142.75 144.91 143.07 145.69 C 143.40 146.47 144.29 146.85 145.08 146.52 Z M 145.97 146.15 L 146.92 145.76 C 147.70 145.44 148.08 144.55 147.76 143.77 C 147.44 142.98 146.55 142.61 145.77 142.93 L 144.82 143.32 C 144.03 143.64 143.66 144.53 143.98 145.31 C 144.30 146.09 145.19 146.47 145.97 146.15 Z M 146.93 145.75 L 147.84 145.38 C 148.62 145.05 148.98 144.16 148.66 143.38 C 148.34 142.60 147.45 142.24 146.67 142.56 L 145.76 142.94 C 144.98 143.26 144.61 144.15 144.93 144.93 C 145.26 145.71 146.15 146.08 146.93 145.75 Z M 147.84 145.37 L 148.77 144.98 C 149.55 144.66 149.91 143.77 149.59 142.99 C 149.26 142.22 148.37 141.85 147.60 142.17 L 146.66 142.56 C 145.89 142.89 145.52 143.78 145.85 144.55 C 146.17 145.33 147.06 145.70 147.84 145.37 Z M 148.77 144.98 L 149.70 144.59 C 150.47 144.27 150.83 143.38 150.51 142.61 C 150.19 141.84 149.31 141.47 148.53 141.79 L 147.60 142.18 C 146.83 142.50 146.46 143.39 146.78 144.16 C 147.10 144.93 147.99 145.30 148.77 144.98 Z M 149.69 144.58 L 150.62 144.20 C 151.38 143.88 151.75 143.00 151.43 142.23 C 151.11 141.46 150.23 141.10 149.46 141.42 L 148.54 141.80 C 147.77 142.12 147.40 143.00 147.72 143.77 C 148.04 144.54 148.92 144.90 149.69 144.58 Z M 150.62 144.19 L 151.54 143.80 C 152.30 143.48 152.66 142.61 152.34 141.85 C 152.02 141.08 151.15 140.73 150.38 141.04 L 149.46 141.43 C 148.70 141.75 148.34 142.62 148.66 143.39 C 148.98 144.15 149.85 144.51 150.62 144.19 Z M 151.54 143.79 L 152.46 143.40 C 153.21 143.08 153.57 142.21 153.25 141.46 C 152.93 140.70 152.06 140.35 151.30 140.67 L 150.38 141.06 C 149.63 141.38 149.27 142.25 149.59 143.00 C 149.91 143.76 150.78 144.11 151.54 143.79 Z M 152.45 143.39 L 153.37 143.01 C 154.13 142.69 154.48 141.83 154.16 141.08 C 153.85 140.32 152.98 139.97 152.23 140.29 L 151.31 140.68 C 150.56 140.99 150.20 141.86 150.52 142.61 C 150.83 143.36 151.70 143.71 152.45 143.39 Z M 153.36 143.00 L 154.30 142.62 C 155.05 142.31 155.41 141.45 155.10 140.70 C 154.80 139.95 153.94 139.60 153.19 139.90 L 152.25 140.29 C 151.50 140.60 151.14 141.45 151.45 142.20 C 151.75 142.95 152.61 143.31 153.36 143.00 Z M 154.29 142.62 L 155.22 142.24 C 155.97 141.94 156.33 141.09 156.03 140.34 C 155.73 139.59 154.88 139.23 154.13 139.53 L 153.20 139.90 C 152.45 140.20 152.09 141.05 152.39 141.80 C 152.69 142.55 153.54 142.92 154.29 142.62 Z M 155.21 142.24 L 156.15 141.87 C 156.90 141.57 157.27 140.73 156.97 139.98 C 156.68 139.23 155.83 138.87 155.09 139.16 L 154.14 139.53 C 153.40 139.83 153.03 140.67 153.32 141.42 C 153.62 142.17 154.46 142.53 155.21 142.24 Z M 156.14 141.87 L 157.08 141.50 C 157.82 141.22 158.19 140.38 157.90 139.63 C 157.61 138.88 156.77 138.51 156.03 138.80 L 155.10 139.16 C 154.35 139.45 153.98 140.29 154.27 141.04 C 154.56 141.78 155.40 142.16 156.14 141.87 Z M 157.06 141.50 L 157.94 141.17 C 158.69 140.89 159.07 140.06 158.79 139.31 C 158.50 138.57 157.67 138.19 156.93 138.47 L 156.04 138.80 C 155.30 139.08 154.92 139.92 155.20 140.66 C 155.48 141.41 156.31 141.78 157.06 141.50 Z M 157.94 141.17 L 158.86 140.82 C 159.60 140.54 159.97 139.72 159.69 138.97 C 159.42 138.23 158.59 137.85 157.85 138.13 L 156.93 138.48 C 156.19 138.76 155.81 139.58 156.09 140.33 C 156.37 141.07 157.20 141.44 157.94 141.17 Z M 158.88 140.81 L 159.81 140.44 C 160.54 140.15 160.90 139.32 160.61 138.58 C 160.32 137.85 159.49 137.49 158.75 137.78 L 157.82 138.15 C 157.09 138.44 156.73 139.27 157.02 140.01 C 157.31 140.74 158.14 141.10 158.88 140.81 Z M 159.83 140.43 L 160.74 140.05 C 161.47 139.75 161.81 138.91 161.51 138.18 C 161.21 137.45 160.37 137.11 159.65 137.41 L 158.73 137.79 C 158.00 138.09 157.66 138.93 157.96 139.66 C 158.26 140.38 159.10 140.73 159.83 140.43 Z M 160.75 140.04 L 161.72 139.63 C 162.44 139.33 162.78 138.49 162.47 137.76 C 162.17 137.04 161.33 136.70 160.61 137.01 L 159.64 137.42 C 158.91 137.72 158.57 138.56 158.88 139.29 C 159.19 140.01 160.02 140.35 160.75 140.04 Z M 161.72 139.63 L 161.79 139.60 C 162.52 139.29 162.86 138.46 162.55 137.73 C 162.24 137.01 161.40 136.67 160.68 136.98 L 160.60 137.01 C 159.88 137.32 159.54 138.15 159.85 138.88 C 160.16 139.60 160.99 139.94 161.72 139.63 Z"
      fill="black"
      fill-rule="nonzero" /><path d="M 150.06 118.79 L 149.95 119.73 C 149.86 120.55 150.45 121.28 151.27 121.38 C 152.09 121.47 152.83 120.87 152.92 120.06 L 153.02 119.11 C 153.11 118.29 152.52 117.56 151.70 117.47 C 150.88 117.38 150.15 117.97 150.06 118.79 Z M 149.93 119.69 L 149.79 120.73 C 149.68 121.56 150.26 122.32 151.09 122.44 C 151.92 122.55 152.69 121.97 152.80 121.13 L 152.94 120.10 C 153.05 119.26 152.47 118.50 151.64 118.39 C 150.81 118.27 150.04 118.86 149.93 119.69 Z M 149.78 120.68 L 149.62 121.67 C 149.48 122.50 150.05 123.29 150.89 123.43 C 151.72 123.56 152.51 123.00 152.65 122.16 L 152.81 121.18 C 152.95 120.34 152.38 119.55 151.54 119.42 C 150.71 119.28 149.92 119.85 149.78 120.68 Z M 149.62 121.64 L 149.44 122.64 C 149.29 123.47 149.84 124.27 150.67 124.42 C 151.51 124.58 152.31 124.02 152.46 123.19 L 152.64 122.19 C 152.80 121.36 152.25 120.56 151.41 120.40 C 150.58 120.25 149.78 120.80 149.62 121.64 Z M 149.44 122.61 L 149.25 123.61 C 149.08 124.44 149.62 125.25 150.45 125.42 C 151.29 125.58 152.09 125.04 152.26 124.21 L 152.46 123.21 C 152.62 122.38 152.08 121.57 151.25 121.41 C 150.42 121.24 149.61 121.78 149.44 122.61 Z M 149.25 123.60 L 149.05 124.56 C 148.88 125.39 149.42 126.21 150.25 126.37 C 151.08 126.54 151.89 126.01 152.06 125.18 L 152.26 124.22 C 152.43 123.39 151.89 122.58 151.06 122.41 C 150.23 122.24 149.42 122.77 149.25 123.60 Z M 149.05 124.58 L 148.87 125.52 C 148.71 126.36 149.25 127.16 150.09 127.32 C 150.92 127.48 151.73 126.94 151.89 126.10 L 152.07 125.16 C 152.23 124.32 151.68 123.52 150.85 123.36 C 150.01 123.20 149.21 123.75 149.05 124.58 Z M 148.86 125.53 L 148.68 126.52 C 148.53 127.36 149.08 128.16 149.92 128.31 C 150.75 128.47 151.56 127.91 151.71 127.08 L 151.89 126.09 C 152.05 125.25 151.49 124.45 150.66 124.30 C 149.82 124.14 149.02 124.70 148.86 125.53 Z M 148.68 126.51 L 148.49 127.50 C 148.33 128.34 148.88 129.15 149.71 129.31 C 150.55 129.47 151.36 128.92 151.52 128.09 L 151.71 127.09 C 151.87 126.25 151.33 125.45 150.49 125.28 C 149.65 125.12 148.84 125.67 148.68 126.51 Z M 148.49 127.48 L 148.29 128.44 C 148.12 129.28 148.66 130.10 149.50 130.27 C 150.33 130.44 151.15 129.90 151.32 129.07 L 151.52 128.11 C 151.69 127.27 151.15 126.45 150.32 126.28 C 149.48 126.11 148.66 126.65 148.49 127.48 Z M 148.29 128.44 L 148.08 129.44 C 147.90 130.28 148.44 131.10 149.27 131.28 C 150.11 131.45 150.93 130.92 151.11 130.08 L 151.32 129.07 C 151.50 128.24 150.96 127.42 150.13 127.24 C 149.29 127.06 148.47 127.60 148.29 128.44 Z M 148.08 129.44 L 147.87 130.42 C 147.69 131.26 148.23 132.08 149.07 132.26 C 149.91 132.43 150.73 131.90 150.91 131.06 L 151.11 130.08 C 151.29 129.24 150.75 128.42 149.91 128.24 C 149.07 128.07 148.25 128.60 148.08 129.44 Z M 147.87 130.42 L 147.66 131.40 C 147.49 132.25 148.02 133.07 148.86 133.25 C 149.70 133.42 150.53 132.88 150.70 132.04 L 150.91 131.06 C 151.09 130.22 150.55 129.39 149.71 129.22 C 148.87 129.04 148.04 129.58 147.87 130.42 Z M 147.66 131.40 L 147.45 132.38 C 147.27 133.23 147.81 134.05 148.65 134.23 C 149.49 134.41 150.32 133.87 150.50 133.03 L 150.71 132.05 C 150.89 131.20 150.35 130.38 149.51 130.20 C 148.66 130.02 147.84 130.56 147.66 131.40 Z M 147.45 132.38 L 147.24 133.36 C 147.05 134.20 147.59 135.03 148.43 135.22 C 149.27 135.40 150.10 134.87 150.28 134.02 L 150.50 133.04 C 150.68 132.20 150.15 131.37 149.31 131.18 C 148.46 131.00 147.63 131.53 147.45 132.38 Z M 147.24 133.35 L 147.02 134.32 C 146.83 135.16 147.36 136.00 148.20 136.19 C 149.04 136.38 149.88 135.85 150.07 135.01 L 150.28 134.03 C 150.47 133.19 149.94 132.36 149.10 132.17 C 148.26 131.98 147.43 132.51 147.24 133.35 Z M 147.02 134.31 L 146.80 135.28 C 146.60 136.12 147.12 136.96 147.97 137.16 C 148.81 137.35 149.65 136.83 149.84 135.99 L 150.07 135.02 C 150.26 134.18 149.74 133.34 148.90 133.14 C 148.05 132.95 147.21 133.47 147.02 134.31 Z M 146.80 135.27 L 146.56 136.23 C 146.36 137.07 146.88 137.92 147.72 138.12 C 148.56 138.32 149.40 137.81 149.61 136.97 L 149.84 136.00 C 150.04 135.16 149.53 134.31 148.69 134.11 C 147.85 133.91 147.00 134.43 146.80 135.27 Z M 146.57 136.22 L 146.32 137.19 C 146.11 138.03 146.62 138.88 147.45 139.09 C 148.29 139.30 149.14 138.80 149.36 137.96 L 149.60 136.98 C 149.82 136.15 149.31 135.29 148.47 135.08 C 147.63 134.87 146.78 135.38 146.57 136.22 Z M 146.33 137.17 L 146.07 138.13 C 145.84 138.97 146.34 139.83 147.17 140.05 C 148.01 140.28 148.87 139.78 149.09 138.95 L 149.35 137.98 C 149.58 137.14 149.08 136.28 148.24 136.06 C 147.41 135.83 146.55 136.33 146.33 137.17 Z M 146.07 138.11 L 145.80 139.08 C 145.56 139.91 146.05 140.78 146.88 141.01 C 147.72 141.25 148.58 140.76 148.82 139.93 L 149.09 138.97 C 149.32 138.13 148.84 137.27 148.00 137.03 C 147.17 136.80 146.30 137.28 146.07 138.11 Z M 145.80 139.06 L 145.52 140.03 C 145.28 140.86 145.76 141.73 146.59 141.97 C 147.42 142.21 148.30 141.73 148.54 140.90 L 148.82 139.94 C 149.06 139.11 148.58 138.24 147.75 137.99 C 146.91 137.75 146.04 138.23 145.80 139.06 Z M 145.52 140.02 L 145.24 140.99 C 144.99 141.82 145.47 142.69 146.30 142.94 C 147.14 143.18 148.01 142.70 148.25 141.87 L 148.54 140.91 C 148.78 140.07 148.30 139.20 147.47 138.96 C 146.64 138.71 145.77 139.19 145.52 140.02 Z M 145.24 140.98 L 144.95 141.94 C 144.70 142.77 145.17 143.65 146.00 143.90 C 146.84 144.15 147.71 143.68 147.96 142.84 L 148.25 141.88 C 148.50 141.05 148.03 140.17 147.20 139.92 C 146.37 139.67 145.49 140.15 145.24 140.98 Z M 144.96 141.92 L 144.66 142.87 C 144.40 143.70 144.86 144.58 145.69 144.84 C 146.52 145.10 147.40 144.64 147.66 143.81 L 147.96 142.86 C 148.22 142.03 147.76 141.15 146.93 140.89 C 146.10 140.63 145.22 141.09 144.96 141.92 Z M 144.67 142.84 L 144.35 143.78 C 144.07 144.60 144.51 145.50 145.34 145.77 C 146.16 146.05 147.06 145.61 147.34 144.78 L 147.65 143.84 C 147.93 143.02 147.49 142.12 146.66 141.84 C 145.84 141.57 144.94 142.01 144.67 142.84 Z M 144.36 143.75 L 144.02 144.68 C 143.73 145.50 144.16 146.41 144.98 146.70 C 145.80 146.99 146.70 146.57 146.99 145.75 L 147.33 144.81 C 147.62 143.99 147.19 143.09 146.37 142.79 C 145.55 142.50 144.65 142.93 144.36 143.75 Z M 144.03 144.67 L 143.67 145.61 C 143.37 146.43 143.79 147.34 144.61 147.64 C 145.42 147.95 146.33 147.53 146.64 146.71 L 146.99 145.77 C 147.29 144.95 146.88 144.04 146.06 143.73 C 145.24 143.43 144.33 143.85 144.03 144.67 Z M 143.68 145.60 L 143.32 146.55 C 143.01 147.37 143.42 148.28 144.23 148.59 C 145.05 148.90 145.96 148.49 146.27 147.68 L 146.64 146.72 C 146.95 145.91 146.53 144.99 145.72 144.68 C 144.90 144.37 143.99 144.78 143.68 145.60 Z M 143.32 146.54 L 142.95 147.48 C 142.64 148.29 143.04 149.21 143.86 149.53 C 144.67 149.85 145.59 149.44 145.91 148.63 L 146.27 147.69 C 146.59 146.87 146.18 145.95 145.37 145.64 C 144.55 145.32 143.63 145.72 143.32 146.54 Z M 142.96 147.46 L 142.58 148.39 C 142.26 149.20 142.65 150.12 143.46 150.45 C 144.28 150.78 145.20 150.39 145.53 149.57 L 145.90 148.65 C 146.23 147.83 145.84 146.91 145.02 146.58 C 144.21 146.25 143.29 146.65 142.96 147.46 Z M 142.60 148.36 L 142.20 149.30 C 141.86 150.11 142.24 151.04 143.04 151.38 C 143.85 151.72 144.78 151.34 145.12 150.53 L 145.52 149.60 C 145.86 148.79 145.48 147.86 144.67 147.52 C 143.87 147.18 142.94 147.56 142.60 148.36 Z M 142.21 149.27 L 141.82 150.15 C 141.47 150.95 141.83 151.89 142.63 152.25 C 143.43 152.60 144.36 152.24 144.72 151.44 L 145.11 150.56 C 145.46 149.76 145.10 148.82 144.30 148.47 C 143.51 148.11 142.57 148.47 142.21 149.27 Z M 141.84 150.13 L 141.41 151.04 C 141.05 151.83 141.39 152.77 142.18 153.14 C 142.97 153.51 143.91 153.16 144.28 152.37 L 144.70 151.46 C 145.07 150.67 144.73 149.73 143.94 149.36 C 143.14 148.99 142.20 149.34 141.84 150.13 Z M 141.43 151.02 L 140.99 151.92 C 140.62 152.71 140.95 153.65 141.73 154.03 C 142.52 154.40 143.46 154.07 143.84 153.29 L 144.27 152.39 C 144.65 151.60 144.32 150.66 143.53 150.28 C 142.75 149.90 141.80 150.24 141.43 151.02 Z M 141.00 151.91 L 140.56 152.81 C 140.18 153.59 140.50 154.53 141.28 154.92 C 142.06 155.30 143.00 154.98 143.38 154.20 L 143.83 153.30 C 144.21 152.52 143.89 151.58 143.11 151.19 C 142.33 150.81 141.39 151.13 141.00 151.91 Z M 140.57 152.80 L 140.12 153.69 C 139.73 154.46 140.04 155.40 140.81 155.80 C 141.58 156.19 142.53 155.88 142.92 155.11 L 143.37 154.21 C 143.76 153.44 143.45 152.50 142.68 152.11 C 141.91 151.71 140.97 152.02 140.57 152.80 Z M 140.14 153.66 L 139.67 154.54 C 139.27 155.30 139.56 156.25 140.32 156.66 C 141.08 157.06 142.02 156.77 142.43 156.01 L 142.90 155.13 C 143.31 154.37 143.02 153.42 142.26 153.02 C 141.49 152.61 140.55 152.90 140.14 153.66 Z M 139.69 154.52 L 139.20 155.39 C 138.78 156.14 139.05 157.09 139.80 157.51 C 140.55 157.93 141.50 157.66 141.92 156.91 L 142.41 156.04 C 142.83 155.29 142.56 154.34 141.81 153.92 C 141.06 153.50 140.12 153.77 139.69 154.52 Z M 139.22 155.38 L 138.74 156.21 C 138.31 156.95 138.56 157.90 139.30 158.33 C 140.04 158.76 140.99 158.50 141.42 157.76 L 141.90 156.93 C 142.33 156.19 142.08 155.24 141.34 154.81 C 140.60 154.38 139.65 154.63 139.22 155.38 Z M 138.75 156.19 L 138.27 156.99 C 137.83 157.73 138.07 158.68 138.81 159.11 C 139.54 159.55 140.49 159.31 140.93 158.58 L 141.41 157.78 C 141.84 157.05 141.61 156.10 140.87 155.66 C 140.14 155.22 139.19 155.46 138.75 156.19 Z M 138.30 156.96 L 137.71 157.87 C 137.25 158.59 137.47 159.54 138.19 160.00 C 138.91 160.46 139.86 160.25 140.32 159.53 L 140.90 158.62 C 141.36 157.90 141.15 156.94 140.43 156.48 C 139.71 156.02 138.76 156.24 138.30 156.96 Z M 137.74 157.83 L 137.18 158.65 C 136.71 159.35 136.89 160.32 137.60 160.79 C 138.30 161.27 139.26 161.09 139.74 160.38 L 140.30 159.57 C 140.78 158.86 140.59 157.90 139.88 157.42 C 139.18 156.94 138.22 157.13 137.74 157.83 Z M 137.20 158.62 L 136.60 159.46 C 136.11 160.16 136.27 161.12 136.97 161.62 C 137.66 162.11 138.63 161.95 139.12 161.26 L 139.72 160.41 C 140.22 159.72 140.06 158.75 139.36 158.26 C 138.67 157.76 137.70 157.92 137.20 158.62 Z M 136.63 159.42 L 136.02 160.23 C 135.51 160.91 135.64 161.88 136.33 162.39 C 137.01 162.91 137.98 162.77 138.49 162.09 L 139.10 161.29 C 139.61 160.61 139.48 159.64 138.80 159.12 C 138.11 158.61 137.14 158.74 136.63 159.42 Z M 136.08 160.17 L 135.37 161.02 C 134.82 161.67 134.91 162.65 135.56 163.19 C 136.21 163.74 137.19 163.65 137.73 163.00 L 138.44 162.15 C 138.99 161.49 138.90 160.52 138.25 159.98 C 137.59 159.43 136.62 159.52 136.08 160.17 Z M 135.48 160.92 L 134.79 161.59 C 134.19 162.18 134.18 163.14 134.77 163.75 C 135.36 164.35 136.33 164.36 136.93 163.77 L 137.62 163.10 C 138.22 162.51 138.23 161.54 137.64 160.94 C 137.05 160.34 136.09 160.33 135.48 160.92 Z M 135.01 161.43 L 134.24 161.96 C 133.55 162.43 133.37 163.37 133.84 164.06 C 134.31 164.75 135.25 164.93 135.94 164.46 L 136.71 163.93 C 137.40 163.46 137.58 162.52 137.11 161.83 C 136.64 161.14 135.70 160.96 135.01 161.43 Z M 134.49 161.84 L 133.58 162.24 C 132.83 162.57 132.48 163.45 132.81 164.20 C 133.15 164.96 134.02 165.30 134.78 164.97 L 135.68 164.57 C 136.44 164.24 136.78 163.36 136.45 162.61 C 136.12 161.85 135.24 161.51 134.49 161.84 Z M 133.67 162.22 L 133.38 162.32 C 132.61 162.60 132.22 163.45 132.50 164.22 C 132.78 164.99 133.63 165.38 134.39 165.10 L 134.69 164.99 C 135.46 164.71 135.85 163.86 135.57 163.10 C 135.29 162.33 134.44 161.93 133.67 162.22 Z"
      fill="black"
      fill-rule="nonzero" /><path d="M 152.66 147.91 L 153.63 147.87 C 154.45 147.84 155.10 147.14 155.07 146.32 C 155.04 145.49 154.34 144.84 153.52 144.88 L 152.55 144.91 C 151.72 144.94 151.07 145.64 151.11 146.46 C 151.14 147.29 151.83 147.94 152.66 147.91 Z M 153.59 147.91 L 154.62 147.90 C 155.47 147.89 156.15 147.19 156.14 146.34 C 156.13 145.50 155.43 144.82 154.58 144.82 L 153.56 144.84 C 152.71 144.85 152.03 145.54 152.04 146.39 C 152.05 147.24 152.74 147.92 153.59 147.91 Z M 154.55 147.92 L 155.57 147.95 C 156.43 147.98 157.15 147.31 157.18 146.45 C 157.21 145.59 156.53 144.87 155.67 144.84 L 154.65 144.81 C 153.79 144.78 153.07 145.45 153.04 146.31 C 153.01 147.17 153.69 147.89 154.55 147.92 Z M 155.44 147.95 L 156.40 148.06 C 157.26 148.16 158.04 147.55 158.14 146.69 C 158.24 145.84 157.62 145.06 156.77 144.96 L 155.80 144.85 C 154.95 144.75 154.17 145.36 154.07 146.21 C 153.97 147.07 154.58 147.85 155.44 147.95 Z M 156.22 148.02 L 157.14 148.25 C 157.97 148.45 158.82 147.94 159.02 147.11 C 159.22 146.27 158.71 145.43 157.88 145.22 L 156.96 145.00 C 156.12 144.79 155.28 145.30 155.07 146.14 C 154.87 146.98 155.38 147.82 156.22 148.02 Z M 157.07 148.22 L 158.03 148.50 C 158.85 148.75 159.72 148.28 159.96 147.46 C 160.20 146.64 159.73 145.78 158.91 145.53 L 157.94 145.25 C 157.12 145.01 156.26 145.48 156.02 146.30 C 155.78 147.12 156.25 147.98 157.07 148.22 Z M 158.05 148.50 L 158.98 148.76 C 159.80 148.99 160.65 148.51 160.88 147.70 C 161.11 146.88 160.63 146.03 159.81 145.80 L 158.89 145.54 C 158.07 145.31 157.22 145.79 156.99 146.60 C 156.76 147.42 157.24 148.27 158.05 148.50 Z M 159.00 148.76 L 160.03 149.03 C 160.84 149.25 161.68 148.76 161.90 147.95 C 162.11 147.13 161.63 146.29 160.81 146.08 L 159.79 145.81 C 158.98 145.59 158.14 146.07 157.92 146.89 C 157.71 147.70 158.19 148.54 159.00 148.76 Z M 160.06 149.02 L 161.08 149.27 C 161.89 149.48 162.71 148.98 162.91 148.17 C 163.11 147.36 162.62 146.54 161.81 146.34 L 160.79 146.09 C 159.98 145.88 159.16 146.38 158.96 147.19 C 158.75 148.00 159.25 148.82 160.06 149.02 Z M 161.10 149.26 L 162.10 149.49 C 162.90 149.68 163.70 149.19 163.89 148.39 C 164.08 147.58 163.58 146.78 162.78 146.59 L 161.79 146.36 C 160.99 146.17 160.19 146.66 160.00 147.46 C 159.81 148.27 160.30 149.07 161.10 149.26 Z M 162.10 149.47 L 163.04 149.69 C 163.83 149.88 164.62 149.39 164.81 148.60 C 165.00 147.82 164.51 147.02 163.72 146.84 L 162.78 146.61 C 161.99 146.43 161.20 146.92 161.01 147.70 C 160.82 148.49 161.31 149.28 162.10 149.47 Z M 163.03 149.67 L 164.03 149.92 C 164.81 150.12 165.59 149.65 165.79 148.87 C 165.98 148.09 165.51 147.30 164.73 147.11 L 163.73 146.86 C 162.96 146.66 162.17 147.14 161.98 147.91 C 161.78 148.69 162.25 149.48 163.03 149.67 Z M 164.01 149.91 L 164.96 150.16 C 165.73 150.36 166.52 149.91 166.72 149.14 C 166.93 148.37 166.47 147.58 165.70 147.38 L 164.75 147.13 C 163.98 146.92 163.20 147.38 162.99 148.15 C 162.79 148.91 163.24 149.70 164.01 149.91 Z M 164.96 150.15 L 165.48 150.29 C 166.24 150.50 167.03 150.05 167.23 149.29 C 167.44 148.52 166.99 147.74 166.23 147.53 L 165.71 147.39 C 164.94 147.18 164.16 147.63 163.95 148.39 C 163.74 149.16 164.19 149.94 164.96 150.15 Z"
      fill="black"
      fill-rule="nonzero" /><path d="M 145.55 155.69 L 145.36 156.65 C 145.19 157.48 145.73 158.29 146.57 158.46 C 147.41 158.63 148.22 158.08 148.38 157.25 L 148.57 156.29 C 148.74 155.45 148.19 154.64 147.36 154.47 C 146.52 154.31 145.71 154.85 145.55 155.69 Z M 145.31 156.77 L 145.20 157.75 C 145.10 158.61 145.72 159.39 146.59 159.48 C 147.45 159.58 148.23 158.96 148.33 158.09 L 148.43 157.12 C 148.53 156.26 147.91 155.48 147.04 155.38 C 146.18 155.29 145.40 155.91 145.31 156.77 Z M 145.18 157.88 L 145.15 158.86 C 145.13 159.73 145.82 160.46 146.69 160.49 C 147.57 160.51 148.30 159.82 148.32 158.94 L 148.35 157.96 C 148.37 157.09 147.68 156.36 146.80 156.34 C 145.93 156.31 145.20 157.00 145.18 157.88 Z M 145.15 158.90 L 145.15 159.96 C 145.15 160.83 145.86 161.55 146.73 161.55 C 147.61 161.55 148.32 160.84 148.32 159.96 L 148.32 158.90 C 148.32 158.03 147.61 157.32 146.74 157.32 C 145.86 157.31 145.15 158.02 145.15 158.90 Z M 145.15 159.96 L 145.15 160.99 C 145.15 161.87 145.86 162.58 146.73 162.58 C 147.61 162.58 148.32 161.87 148.32 160.99 L 148.32 159.96 C 148.32 159.09 147.61 158.38 146.73 158.38 C 145.86 158.38 145.15 159.09 145.15 159.96 Z M 145.15 160.99 L 145.15 161.98 C 145.15 162.85 145.86 163.56 146.73 163.56 C 147.61 163.56 148.32 162.85 148.32 161.98 L 148.32 160.99 C 148.32 160.12 147.61 159.41 146.73 159.41 C 145.86 159.41 145.15 160.12 145.15 160.99 Z M 145.16 161.98 L 145.16 163.02 C 145.16 163.89 145.86 164.59 146.73 164.59 C 147.60 164.59 148.31 163.89 148.31 163.02 L 148.31 161.98 C 148.31 161.11 147.60 160.41 146.73 160.41 C 145.86 160.41 145.16 161.11 145.16 161.98 Z M 145.17 163.02 L 145.17 163.96 C 145.17 164.82 145.87 165.52 146.73 165.52 C 147.60 165.52 148.30 164.82 148.30 163.96 L 148.30 163.02 C 148.30 162.16 147.60 161.46 146.73 161.46 C 145.87 161.45 145.17 162.16 145.17 163.02 Z M 145.18 163.94 L 145.17 164.95 C 145.17 165.80 145.86 166.51 146.72 166.51 C 147.57 166.52 148.27 165.83 148.28 164.97 L 148.29 163.97 C 148.29 163.11 147.60 162.41 146.75 162.40 C 145.89 162.40 145.19 163.09 145.18 163.94 Z M 145.18 164.92 L 145.16 165.78 C 145.14 166.63 145.81 167.34 146.66 167.36 C 147.52 167.38 148.23 166.71 148.25 165.86 L 148.27 165.00 C 148.29 164.14 147.62 163.44 146.77 163.41 C 145.91 163.39 145.20 164.06 145.18 164.92 Z M 145.17 165.75 L 145.13 166.83 C 145.09 167.68 145.75 168.40 146.60 168.43 C 147.44 168.47 148.16 167.81 148.19 166.96 L 148.24 165.88 C 148.27 165.03 147.62 164.32 146.77 164.28 C 145.92 164.25 145.20 164.91 145.17 165.75 Z M 145.13 166.83 L 145.09 167.83 C 145.05 168.67 145.70 169.39 146.54 169.43 C 147.38 169.47 148.10 168.82 148.14 167.97 L 148.19 166.97 C 148.23 166.13 147.58 165.41 146.73 165.37 C 145.89 165.33 145.17 165.98 145.13 166.83 Z M 145.09 167.82 L 145.04 168.85 C 144.99 169.70 145.64 170.41 146.48 170.45 C 147.32 170.50 148.04 169.85 148.08 169.01 L 148.13 167.98 C 148.18 167.14 147.53 166.42 146.69 166.38 C 145.85 166.34 145.13 166.98 145.09 167.82 Z M 145.04 168.85 L 144.98 169.89 C 144.94 170.72 145.58 171.44 146.42 171.49 C 147.26 171.53 147.97 170.89 148.02 170.05 L 148.08 169.02 C 148.12 168.18 147.48 167.46 146.64 167.41 C 145.81 167.37 145.09 168.01 145.04 168.85 Z M 144.99 169.87 L 144.92 170.94 C 144.87 171.78 145.50 172.50 146.33 172.55 C 147.17 172.61 147.89 171.98 147.94 171.14 L 148.01 170.07 C 148.07 169.24 147.43 168.52 146.60 168.46 C 145.77 168.41 145.05 169.04 144.99 169.87 Z M 144.94 170.91 L 144.85 171.93 C 144.78 172.75 145.39 173.48 146.22 173.55 C 147.04 173.62 147.77 173.01 147.84 172.19 L 147.92 171.17 C 148.00 170.35 147.38 169.62 146.56 169.55 C 145.74 169.48 145.01 170.09 144.94 170.91 Z M 144.87 171.88 L 144.77 172.77 C 144.67 173.58 145.25 174.31 146.06 174.41 C 146.87 174.51 147.61 173.93 147.71 173.12 L 147.81 172.23 C 147.91 171.42 147.33 170.68 146.52 170.59 C 145.71 170.49 144.97 171.07 144.87 171.88 Z M 144.79 172.71 L 144.63 173.70 C 144.50 174.50 145.05 175.25 145.85 175.38 C 146.65 175.51 147.40 174.96 147.53 174.16 L 147.68 173.17 C 147.81 172.38 147.27 171.62 146.47 171.50 C 145.67 171.37 144.92 171.91 144.79 172.71 Z M 144.65 173.67 L 144.47 174.65 C 144.32 175.44 144.85 176.20 145.63 176.34 C 146.42 176.49 147.18 175.97 147.33 175.18 L 147.51 174.20 C 147.65 173.41 147.13 172.65 146.34 172.50 C 145.55 172.36 144.80 172.88 144.65 173.67 Z M 144.48 174.64 L 144.45 174.79 C 144.30 175.57 144.82 176.33 145.60 176.48 C 146.39 176.62 147.14 176.11 147.29 175.32 L 147.32 175.18 C 147.47 174.40 146.95 173.64 146.17 173.49 C 145.38 173.35 144.63 173.86 144.48 174.64 Z"
      fill="black"
      fill-rule="nonzero" /><path d="M 147.49 156.82 L 148.47 156.71 C 149.30 156.61 149.89 155.87 149.80 155.04 C 149.71 154.21 148.96 153.62 148.13 153.71 L 147.15 153.83 C 146.33 153.92 145.73 154.66 145.83 155.49 C 145.92 156.32 146.67 156.91 147.49 156.82 Z M 148.50 156.72 L 149.51 156.59 C 150.34 156.48 150.93 155.72 150.82 154.88 C 150.71 154.05 149.95 153.46 149.11 153.57 L 148.11 153.70 C 147.27 153.81 146.68 154.57 146.79 155.41 C 146.90 156.24 147.67 156.83 148.50 156.72 Z M 149.53 156.59 L 150.53 156.45 C 151.37 156.33 151.95 155.55 151.83 154.72 C 151.71 153.88 150.94 153.30 150.10 153.42 L 149.09 153.56 C 148.26 153.68 147.67 154.46 147.79 155.30 C 147.91 156.13 148.69 156.71 149.53 156.59 Z M 150.48 156.45 L 151.47 156.35 C 152.31 156.26 152.92 155.51 152.83 154.67 C 152.74 153.83 151.99 153.22 151.15 153.31 L 150.16 153.42 C 149.32 153.51 148.71 154.26 148.80 155.09 C 148.89 155.93 149.64 156.54 150.48 156.45 Z M 151.34 156.35 L 152.33 156.33 C 153.17 156.31 153.84 155.62 153.82 154.78 C 153.81 153.94 153.11 153.28 152.27 153.29 L 151.28 153.31 C 150.44 153.33 149.78 154.02 149.79 154.86 C 149.81 155.70 150.50 156.36 151.34 156.35 Z M 152.21 156.32 L 153.18 156.38 C 154.01 156.43 154.73 155.80 154.78 154.96 C 154.84 154.13 154.20 153.41 153.37 153.36 L 152.40 153.30 C 151.56 153.25 150.85 153.88 150.79 154.72 C 150.74 155.55 151.38 156.27 152.21 156.32 Z M 152.88 156.32 L 153.84 156.59 C 154.65 156.81 155.48 156.33 155.69 155.53 C 155.91 154.73 155.44 153.90 154.64 153.68 L 153.67 153.42 C 152.87 153.20 152.04 153.67 151.82 154.47 C 151.60 155.28 152.07 156.11 152.88 156.32 Z M 153.43 156.40 L 154.24 156.92 C 154.94 157.37 155.88 157.17 156.32 156.46 C 156.77 155.76 156.57 154.83 155.86 154.38 L 155.05 153.86 C 154.35 153.42 153.42 153.62 152.97 154.32 C 152.52 155.02 152.73 155.96 153.43 156.40 Z M 153.99 156.73 L 154.72 157.44 C 155.31 158.03 156.27 158.03 156.85 157.44 C 157.44 156.84 157.43 155.89 156.84 155.30 L 156.12 154.58 C 155.52 153.99 154.57 154.00 153.98 154.59 C 153.39 155.18 153.40 156.14 153.99 156.73 Z M 154.56 157.26 L 155.12 158.04 C 155.61 158.72 156.56 158.87 157.23 158.38 C 157.91 157.89 158.06 156.94 157.57 156.27 L 157.00 155.49 C 156.51 154.81 155.57 154.66 154.89 155.15 C 154.22 155.64 154.07 156.58 154.56 157.26 Z M 155.00 157.84 L 155.48 158.78 C 155.86 159.52 156.77 159.81 157.51 159.43 C 158.26 159.05 158.55 158.14 158.17 157.40 L 157.69 156.46 C 157.31 155.72 156.40 155.43 155.66 155.81 C 154.91 156.19 154.62 157.10 155.00 157.84 Z M 155.40 158.60 L 155.75 159.56 C 156.04 160.35 156.90 160.75 157.69 160.47 C 158.47 160.18 158.88 159.32 158.59 158.53 L 158.25 157.57 C 157.96 156.79 157.09 156.38 156.31 156.67 C 155.52 156.95 155.12 157.82 155.40 158.60 Z M 155.71 159.45 L 155.98 160.42 C 156.20 161.22 157.03 161.70 157.84 161.48 C 158.64 161.26 159.12 160.42 158.90 159.62 L 158.63 158.65 C 158.41 157.84 157.58 157.37 156.77 157.59 C 155.97 157.81 155.49 158.64 155.71 159.45 Z M 155.96 160.32 L 156.16 161.33 C 156.33 162.14 157.13 162.67 157.95 162.50 C 158.77 162.34 159.29 161.54 159.13 160.72 L 158.92 159.71 C 158.75 158.89 157.95 158.37 157.13 158.54 C 156.32 158.70 155.79 159.50 155.96 160.32 Z M 156.14 161.22 L 156.27 162.17 C 156.38 163.00 157.14 163.59 157.97 163.48 C 158.80 163.37 159.38 162.61 159.27 161.78 L 159.15 160.82 C 159.04 159.99 158.27 159.41 157.45 159.52 C 156.62 159.63 156.03 160.39 156.14 161.22 Z M 156.26 162.10 L 156.34 163.07 C 156.41 163.91 157.15 164.53 157.98 164.46 C 158.81 164.38 159.43 163.65 159.36 162.82 L 159.28 161.85 C 159.21 161.01 158.48 160.39 157.64 160.46 C 156.81 160.53 156.19 161.27 156.26 162.10 Z M 156.34 163.03 L 156.39 164.04 C 156.44 164.87 157.15 165.52 157.99 165.47 C 158.83 165.43 159.47 164.71 159.42 163.87 L 159.37 162.86 C 159.32 162.02 158.61 161.38 157.77 161.43 C 156.93 161.47 156.29 162.19 156.34 163.03 Z M 156.39 163.99 L 156.41 164.99 C 156.43 165.83 157.12 166.50 157.96 166.48 C 158.80 166.46 159.47 165.77 159.45 164.93 L 159.43 163.92 C 159.41 163.08 158.71 162.41 157.87 162.43 C 157.03 162.45 156.37 163.15 156.39 163.99 Z M 156.41 164.96 L 156.41 165.96 C 156.41 166.80 157.10 167.48 157.94 167.48 C 158.78 167.48 159.46 166.79 159.46 165.95 L 159.45 164.95 C 159.45 164.11 158.77 163.43 157.92 163.44 C 157.08 163.44 156.40 164.12 156.41 164.96 Z M 156.41 165.95 L 156.41 166.96 C 156.41 167.81 157.09 168.49 157.93 168.49 C 158.77 168.49 159.46 167.81 159.46 166.96 L 159.46 165.95 C 159.46 165.11 158.77 164.43 157.93 164.43 C 157.09 164.43 156.41 165.11 156.41 165.95 Z M 156.41 166.96 L 156.41 167.96 C 156.41 168.80 157.09 169.49 157.93 169.49 C 158.77 169.49 159.46 168.80 159.46 167.96 L 159.46 166.96 C 159.46 166.12 158.78 165.44 157.93 165.44 C 157.09 165.44 156.41 166.12 156.41 166.96 Z M 156.41 167.95 L 156.40 168.95 C 156.39 169.80 157.06 170.49 157.91 170.49 C 158.75 170.50 159.44 169.83 159.45 168.98 L 159.46 167.98 C 159.47 167.13 158.79 166.44 157.95 166.44 C 157.11 166.43 156.42 167.10 156.41 167.95 Z M 156.40 168.88 L 156.34 169.87 C 156.30 170.72 156.94 171.44 157.78 171.48 C 158.62 171.53 159.34 170.89 159.39 170.05 L 159.44 169.05 C 159.49 168.21 158.85 167.49 158.01 167.45 C 157.17 167.40 156.45 168.04 156.40 168.88 Z M 156.35 169.77 L 156.23 170.76 C 156.13 171.59 156.72 172.35 157.55 172.46 C 158.39 172.56 159.15 171.97 159.25 171.14 L 159.38 170.15 C 159.48 169.32 158.89 168.55 158.06 168.45 C 157.22 168.34 156.46 168.94 156.35 169.77 Z M 156.25 170.67 L 156.06 171.65 C 155.91 172.47 156.45 173.27 157.28 173.42 C 158.11 173.58 158.90 173.03 159.06 172.21 L 159.24 171.23 C 159.39 170.40 158.85 169.61 158.02 169.45 C 157.20 169.30 156.40 169.84 156.25 170.67 Z M 156.07 171.61 L 155.87 172.57 C 155.69 173.39 156.22 174.20 157.04 174.38 C 157.86 174.55 158.67 174.02 158.84 173.20 L 159.05 172.24 C 159.22 171.42 158.70 170.61 157.88 170.44 C 157.05 170.26 156.25 170.79 156.07 171.61 Z M 155.87 172.56 L 155.66 173.52 C 155.49 174.34 156.01 175.15 156.82 175.33 C 157.64 175.51 158.45 174.99 158.63 174.17 L 158.84 173.21 C 159.02 172.39 158.50 171.58 157.68 171.41 C 156.86 171.23 156.05 171.75 155.87 172.56 Z M 155.68 173.49 L 155.44 174.48 C 155.24 175.30 155.74 176.11 156.55 176.31 C 157.36 176.51 158.17 176.01 158.37 175.20 L 158.61 174.20 C 158.81 173.39 158.32 172.58 157.50 172.38 C 156.69 172.18 155.88 172.68 155.68 173.49 Z M 155.45 174.45 L 155.18 175.43 C 154.97 176.23 155.44 177.06 156.24 177.28 C 157.05 177.50 157.87 177.02 158.09 176.22 L 158.36 175.24 C 158.58 174.43 158.10 173.61 157.30 173.39 C 156.50 173.17 155.67 173.65 155.45 174.45 Z M 155.20 175.39 L 154.90 176.38 C 154.66 177.17 155.10 178.01 155.89 178.25 C 156.69 178.50 157.52 178.05 157.77 177.26 L 158.07 176.27 C 158.31 175.47 157.87 174.63 157.08 174.39 C 156.28 174.15 155.45 174.59 155.20 175.39 Z M 154.99 176.17 L 154.57 177.04 C 154.21 177.78 154.52 178.67 155.26 179.03 C 156.00 179.39 156.89 179.08 157.25 178.34 L 157.67 177.47 C 158.03 176.73 157.72 175.84 156.98 175.48 C 156.24 175.12 155.35 175.43 154.99 176.17 Z M 154.91 176.60 L 154.21 177.24 C 153.61 177.79 153.56 178.73 154.12 179.33 C 154.67 179.93 155.60 179.98 156.21 179.42 L 156.91 178.78 C 157.51 178.23 157.55 177.29 157.00 176.69 C 156.45 176.09 155.52 176.05 154.91 176.60 Z M 154.49 177.05 L 153.72 177.48 C 153.01 177.88 152.76 178.78 153.16 179.48 C 153.56 180.19 154.46 180.44 155.16 180.04 L 155.93 179.61 C 156.63 179.21 156.88 178.32 156.49 177.61 C 156.09 176.91 155.19 176.66 154.49 177.05 Z"
      fill="black"
      fill-rule="nonzero" /><path d="M 148.37 164.93 L 149.14 164.29 C 149.78 163.75 149.86 162.79 149.32 162.15 C 148.79 161.51 147.83 161.42 147.19 161.96 L 146.42 162.60 C 145.78 163.14 145.70 164.10 146.24 164.74 C 146.77 165.38 147.73 165.47 148.37 164.93 Z M 149.05 164.39 L 149.87 163.82 C 150.57 163.33 150.74 162.36 150.24 161.66 C 149.75 160.96 148.78 160.79 148.08 161.29 L 147.27 161.86 C 146.57 162.35 146.40 163.32 146.89 164.02 C 147.39 164.72 148.35 164.88 149.05 164.39 Z M 149.70 163.92 L 150.56 163.46 C 151.32 163.06 151.60 162.12 151.20 161.37 C 150.80 160.62 149.87 160.33 149.12 160.73 L 148.25 161.19 C 147.50 161.59 147.21 162.52 147.61 163.28 C 148.01 164.03 148.95 164.32 149.70 163.92 Z M 150.46 163.47 L 151.38 163.06 C 152.15 162.71 152.49 161.82 152.15 161.06 C 151.80 160.30 150.91 159.96 150.15 160.30 L 149.22 160.72 C 148.46 161.06 148.12 161.95 148.46 162.71 C 148.80 163.47 149.70 163.81 150.46 163.47 Z M 151.35 163.05 L 152.26 162.66 C 153.02 162.34 153.37 161.47 153.05 160.71 C 152.73 159.96 151.86 159.60 151.10 159.92 L 150.19 160.31 C 149.43 160.63 149.08 161.50 149.40 162.26 C 149.72 163.01 150.59 163.37 151.35 163.05 Z M 152.24 162.66 L 153.18 162.27 C 153.94 161.97 154.30 161.11 153.99 160.35 C 153.69 159.60 152.83 159.24 152.08 159.54 L 151.13 159.93 C 150.37 160.23 150.01 161.09 150.32 161.85 C 150.62 162.60 151.48 162.96 152.24 162.66 Z M 153.16 162.27 L 154.12 161.89 C 154.87 161.60 155.24 160.75 154.95 160.00 C 154.66 159.25 153.81 158.88 153.06 159.17 L 152.10 159.55 C 151.35 159.84 150.98 160.69 151.27 161.44 C 151.56 162.19 152.41 162.56 153.16 162.27 Z M 154.08 161.89 L 154.99 161.56 C 155.74 161.28 156.12 160.46 155.85 159.71 C 155.58 158.96 154.75 158.58 154.00 158.85 L 153.10 159.18 C 152.35 159.45 151.96 160.28 152.24 161.03 C 152.51 161.77 153.34 162.16 154.08 161.89 Z M 154.94 161.56 L 155.92 161.24 C 156.67 161.00 157.08 160.19 156.84 159.44 C 156.59 158.69 155.79 158.28 155.03 158.52 L 154.05 158.84 C 153.30 159.09 152.89 159.89 153.14 160.65 C 153.38 161.40 154.19 161.81 154.94 161.56 Z M 155.89 161.25 L 156.57 161.05 C 157.32 160.82 157.75 160.02 157.52 159.27 C 157.30 158.51 156.50 158.09 155.75 158.31 L 155.07 158.52 C 154.31 158.74 153.88 159.54 154.11 160.29 C 154.34 161.05 155.13 161.48 155.89 161.25 Z"
      fill="black"
      fill-rule="nonzero" /><path d="M 148.39 170.98 L 149.08 170.29 C 149.67 169.70 149.67 168.74 149.08 168.15 C 148.49 167.56 147.53 167.56 146.94 168.15 L 146.25 168.84 C 145.66 169.43 145.66 170.39 146.25 170.98 C 146.84 171.57 147.80 171.57 148.39 170.98 Z M 148.95 170.44 L 149.75 169.83 C 150.43 169.31 150.56 168.34 150.04 167.66 C 149.52 166.99 148.55 166.86 147.88 167.38 L 147.07 167.99 C 146.40 168.51 146.27 169.48 146.78 170.15 C 147.30 170.83 148.27 170.96 148.95 170.44 Z M 149.54 169.97 L 150.39 169.51 C 151.14 169.11 151.43 168.18 151.03 167.43 C 150.63 166.67 149.69 166.39 148.94 166.79 L 148.09 167.24 C 147.34 167.64 147.05 168.57 147.45 169.33 C 147.85 170.08 148.79 170.37 149.54 169.97 Z M 150.26 169.55 L 151.22 169.15 C 151.99 168.82 152.35 167.92 152.02 167.14 C 151.69 166.37 150.80 166.01 150.02 166.34 L 149.07 166.75 C 148.29 167.08 147.93 167.97 148.26 168.75 C 148.59 169.52 149.49 169.88 150.26 169.55 Z M 151.17 169.15 L 152.08 168.79 C 152.86 168.49 153.25 167.62 152.94 166.84 C 152.64 166.06 151.77 165.68 150.99 165.98 L 150.07 166.34 C 149.30 166.64 148.91 167.51 149.21 168.29 C 149.51 169.07 150.39 169.45 151.17 169.15 Z M 152.04 168.79 L 152.98 168.46 C 153.76 168.18 154.16 167.33 153.89 166.55 C 153.61 165.77 152.76 165.37 151.98 165.64 L 151.04 165.98 C 150.26 166.25 149.85 167.11 150.13 167.89 C 150.41 168.66 151.26 169.07 152.04 168.79 Z M 152.92 168.47 L 153.90 168.16 C 154.68 167.92 155.12 167.09 154.88 166.31 C 154.64 165.53 153.81 165.09 153.03 165.33 L 152.04 165.64 C 151.26 165.88 150.82 166.71 151.07 167.49 C 151.31 168.27 152.14 168.71 152.92 168.47 Z M 153.83 168.17 L 154.83 167.91 C 155.61 167.71 156.08 166.90 155.88 166.12 C 155.67 165.33 154.87 164.86 154.09 165.07 L 153.09 165.33 C 152.31 165.53 151.84 166.33 152.04 167.12 C 152.25 167.90 153.05 168.37 153.83 168.17 Z M 154.75 167.92 L 155.72 167.72 C 156.51 167.56 157.02 166.78 156.86 165.99 C 156.69 165.20 155.92 164.70 155.13 164.86 L 154.16 165.06 C 153.37 165.22 152.86 165.99 153.03 166.78 C 153.19 167.57 153.96 168.08 154.75 167.92 Z M 155.61 167.73 L 156.64 167.59 C 157.43 167.49 157.99 166.76 157.88 165.97 C 157.78 165.17 157.05 164.61 156.26 164.72 L 155.24 164.85 C 154.44 164.96 153.88 165.68 153.99 166.48 C 154.09 167.27 154.82 167.83 155.61 167.73 Z M 156.53 167.59 L 157.50 167.54 C 158.29 167.49 158.90 166.81 158.86 166.02 C 158.81 165.22 158.13 164.62 157.34 164.66 L 156.37 164.72 C 155.57 164.76 154.96 165.44 155.01 166.24 C 155.05 167.03 155.73 167.64 156.53 167.59 Z M 157.46 167.53 L 157.85 167.52 C 158.64 167.50 159.26 166.84 159.24 166.05 C 159.22 165.26 158.56 164.63 157.77 164.66 L 157.38 164.67 C 156.59 164.69 155.97 165.35 155.99 166.14 C 156.01 166.93 156.67 167.55 157.46 167.53 Z"
      fill="black"
      fill-rule="nonzero" /><path d="M 147.04 181.08 L 147.93 180.81 C 148.74 180.57 149.20 179.72 148.96 178.90 C 148.72 178.09 147.86 177.63 147.05 177.87 L 146.16 178.14 C 145.35 178.38 144.89 179.24 145.13 180.05 C 145.37 180.86 146.22 181.32 147.04 181.08 Z M 148.04 180.81 L 149.03 180.44 C 149.83 180.14 150.25 179.24 149.94 178.43 C 149.64 177.62 148.74 177.21 147.93 177.51 L 146.94 177.88 C 146.14 178.18 145.73 179.08 146.03 179.89 C 146.33 180.70 147.23 181.11 148.04 180.81 Z M 149.11 180.39 L 150.03 179.98 C 150.82 179.63 151.17 178.71 150.82 177.93 C 150.47 177.15 149.55 176.79 148.77 177.14 L 147.85 177.55 C 147.06 177.90 146.71 178.82 147.06 179.61 C 147.41 180.39 148.33 180.74 149.11 180.39 Z M 150.05 179.93 L 150.96 179.50 C 151.72 179.15 152.04 178.24 151.69 177.49 C 151.33 176.73 150.43 176.41 149.67 176.76 L 148.76 177.19 C 148.00 177.55 147.67 178.45 148.03 179.21 C 148.39 179.97 149.29 180.29 150.05 179.93 Z M 150.93 179.48 L 151.89 179.04 C 152.63 178.70 152.96 177.82 152.61 177.08 C 152.27 176.33 151.39 176.01 150.65 176.35 L 149.70 176.79 C 148.96 177.13 148.63 178.01 148.97 178.75 C 149.31 179.49 150.19 179.82 150.93 179.48 Z M 151.83 179.03 L 152.70 178.67 C 153.44 178.36 153.79 177.51 153.48 176.77 C 153.17 176.03 152.32 175.68 151.58 175.99 L 150.71 176.35 C 149.97 176.66 149.62 177.51 149.93 178.25 C 150.24 178.99 151.09 179.34 151.83 179.03 Z M 152.64 178.68 L 153.57 178.33 C 154.31 178.06 154.69 177.23 154.41 176.49 C 154.14 175.74 153.31 175.37 152.57 175.64 L 151.64 175.98 C 150.90 176.26 150.52 177.09 150.79 177.83 C 151.07 178.57 151.90 178.95 152.64 178.68 Z M 153.54 178.34 L 154.33 178.06 C 155.07 177.80 155.46 176.98 155.20 176.24 C 154.94 175.50 154.13 175.10 153.38 175.36 L 152.59 175.64 C 151.85 175.90 151.46 176.71 151.72 177.46 C 151.98 178.20 152.79 178.60 153.54 178.34 Z"
      fill="black"
      fill-rule="nonzero" /></svg>