<svg xmlns="http://www.w3.org/2000/svg" width="300" height="300" viewBox="0 0 300 300">
<path d="M 135.76 131.15 L 136.63 131.51 C 137.39 131.82 138.26 131.45 138.58 130.69 C 138.89 129.93 138.52 129.06 137.76 128.74 L 136.89 128.39 C 136.12 128.08 135.25 128.44 134.94 129.21 C 134.63 129.97 135.00 130.84 135.76 131.15 Z M 136.76 131.61 L 137.76 131.90 C 138.58 132.14 139.43 131.67 139.67 130.85 C 139.91 130.03 139.44 129.17 138.62 128.93 L 137.63 128.64 C 136.81 128.41 135.95 128.88 135.71 129.69 C 135.47 130.51 135.94 131.37 136.76 131.61 Z M 137.95 131.97 L 138.95 132.12 C 139.81 132.25 140.61 131.66 140.74 130.80 C 140.87 129.94 140.28 129.14 139.42 129.01 L 138.42 128.86 C 137.56 128.73 136.76 129.32 136.63 130.18 C 136.50 131.04 137.09 131.84 137.95 131.97 Z M 139.06 132.14 L 140.09 132.22 C 140.96 132.28 141.71 131.64 141.78 130.77 C 141.85 129.90 141.20 129.14 140.33 129.08 L 139.31 129.00 C 138.44 128.93 137.68 129.58 137.61 130.44 C 137.54 131.31 138.19 132.07 139.06 132.14 Z M 140.13 132.22 L 141.13 132.27 C 141.99 132.32 142.74 131.65 142.78 130.79 C 142.83 129.92 142.17 129.18 141.30 129.13 L 140.30 129.08 C 139.43 129.03 138.69 129.69 138.64 130.56 C 138.59 131.43 139.26 132.17 140.13 132.22 Z M 141.11 132.26 L 142.15 132.33 C 143.01 132.38 143.76 131.73 143.81 130.87 C 143.87 130.00 143.21 129.26 142.35 129.20 L 141.31 129.14 C 140.45 129.08 139.71 129.74 139.65 130.60 C 139.60 131.46 140.25 132.21 141.11 132.26 Z M 142.13 132.32 L 143.07 132.39 C 143.93 132.46 144.67 131.82 144.74 130.96 C 144.81 130.11 144.17 129.36 143.31 129.29 L 142.37 129.22 C 141.51 129.15 140.76 129.79 140.70 130.65 C 140.63 131.50 141.27 132.25 142.13 132.32 Z M 143.06 132.38 L 144.04 132.47 C 144.89 132.54 145.64 131.91 145.72 131.06 C 145.79 130.21 145.16 129.46 144.31 129.38 L 143.32 129.30 C 142.47 129.23 141.72 129.86 141.65 130.71 C 141.58 131.56 142.21 132.31 143.06 132.38 Z M 144.05 132.46 L 145.05 132.54 C 145.90 132.61 146.65 131.98 146.72 131.14 C 146.79 130.29 146.16 129.54 145.31 129.47 L 144.30 129.39 C 143.46 129.32 142.71 129.95 142.64 130.80 C 142.57 131.65 143.20 132.39 144.05 132.46 Z M 145.07 132.54 L 146.07 132.61 C 146.92 132.67 147.65 132.04 147.71 131.19 C 147.78 130.35 147.14 129.61 146.30 129.55 L 145.29 129.48 C 144.45 129.42 143.71 130.05 143.65 130.90 C 143.59 131.74 144.22 132.48 145.07 132.54 Z M 146.08 132.61 L 147.07 132.68 C 147.91 132.74 148.64 132.10 148.70 131.26 C 148.76 130.42 148.13 129.68 147.29 129.62 L 146.29 129.55 C 145.45 129.49 144.72 130.13 144.66 130.97 C 144.60 131.82 145.23 132.55 146.08 132.61 Z M 147.05 132.68 L 148.05 132.76 C 148.90 132.83 149.63 132.20 149.70 131.36 C 149.77 130.52 149.15 129.78 148.30 129.71 L 147.30 129.63 C 146.46 129.56 145.72 130.19 145.65 131.03 C 145.58 131.87 146.21 132.61 147.05 132.68 Z M 148.04 132.75 L 149.03 132.85 C 149.87 132.93 150.62 132.31 150.69 131.47 C 150.77 130.63 150.16 129.89 149.32 129.81 L 148.32 129.71 C 147.48 129.64 146.74 130.25 146.66 131.09 C 146.58 131.93 147.20 132.68 148.04 132.75 Z M 149.02 132.84 L 150.03 132.94 C 150.87 133.03 151.62 132.42 151.70 131.58 C 151.78 130.74 151.17 129.99 150.33 129.91 L 149.32 129.81 C 148.49 129.73 147.74 130.34 147.66 131.18 C 147.57 132.01 148.19 132.76 149.02 132.84 Z M 150.04 132.94 L 151.02 133.04 C 151.86 133.12 152.60 132.51 152.68 131.67 C 152.76 130.83 152.15 130.09 151.31 130.01 L 150.33 129.91 C 149.49 129.83 148.75 130.44 148.67 131.28 C 148.59 132.12 149.20 132.86 150.04 132.94 Z M 151.04 133.04 L 152.05 133.12 C 152.88 133.19 153.62 132.57 153.69 131.74 C 153.76 130.90 153.14 130.16 152.30 130.09 L 151.30 130.01 C 150.46 129.93 149.72 130.56 149.65 131.39 C 149.58 132.23 150.20 132.97 151.04 133.04 Z M 152.05 133.12 L 153.02 133.21 C 153.86 133.28 154.60 132.66 154.67 131.82 C 154.74 130.99 154.12 130.25 153.28 130.18 L 152.31 130.09 C 151.47 130.02 150.73 130.64 150.66 131.48 C 150.59 132.31 151.21 133.05 152.05 133.12 Z M 152.99 133.20 L 153.99 133.31 C 154.83 133.40 155.58 132.80 155.67 131.97 C 155.76 131.14 155.16 130.39 154.33 130.29 L 153.32 130.18 C 152.49 130.09 151.74 130.69 151.64 131.53 C 151.55 132.36 152.15 133.11 152.99 133.20 Z M 153.97 133.30 L 154.94 133.42 C 155.76 133.53 156.52 132.94 156.62 132.11 C 156.73 131.29 156.14 130.53 155.31 130.42 L 154.35 130.30 C 153.52 130.20 152.77 130.78 152.66 131.61 C 152.56 132.44 153.14 133.20 153.97 133.30 Z M 154.92 133.41 L 155.91 133.55 C 156.73 133.67 157.49 133.09 157.60 132.27 C 157.72 131.44 157.14 130.68 156.32 130.57 L 155.33 130.43 C 154.51 130.32 153.75 130.89 153.63 131.72 C 153.52 132.54 154.10 133.30 154.92 133.41 Z M 155.86 133.54 L 157.05 133.75 C 157.86 133.89 158.64 133.34 158.78 132.52 C 158.92 131.70 158.37 130.92 157.55 130.78 L 156.37 130.58 C 155.55 130.44 154.77 130.99 154.63 131.81 C 154.49 132.62 155.04 133.40 155.86 133.54 Z M 156.35 133.43 L 156.61 133.64 C 157.25 134.17 158.20 134.08 158.73 133.43 C 159.25 132.79 159.16 131.84 158.52 131.32 L 158.25 131.10 C 157.61 130.57 156.66 130.67 156.14 131.31 C 155.61 131.96 155.70 132.90 156.35 133.43 Z M 157.22 131.01 L 156.10 131.27 C 155.29 131.46 154.78 132.27 154.97 133.08 C 155.16 133.89 155.97 134.39 156.78 134.21 L 157.90 133.95 C 158.71 133.76 159.22 132.95 159.03 132.14 C 158.84 131.33 158.03 130.83 157.22 131.01 Z M 156.01 131.30 L 155.16 131.55 C 154.37 131.78 153.91 132.62 154.15 133.42 C 154.38 134.22 155.22 134.67 156.02 134.43 L 156.87 134.18 C 157.66 133.95 158.12 133.11 157.88 132.31 C 157.64 131.52 156.81 131.06 156.01 131.30 Z M 155.08 131.57 L 154.06 131.94 C 153.28 132.21 152.87 133.08 153.15 133.86 C 153.43 134.64 154.29 135.05 155.07 134.77 L 156.10 134.41 C 156.88 134.13 157.29 133.27 157.01 132.49 C 156.73 131.70 155.87 131.29 155.08 131.57 Z M 154.02 131.95 L 153.05 132.33 C 152.28 132.63 151.89 133.51 152.20 134.28 C 152.50 135.06 153.38 135.44 154.15 135.14 L 155.12 134.76 C 155.89 134.46 156.28 133.58 155.97 132.80 C 155.67 132.03 154.79 131.65 154.02 131.95 Z M 153.03 132.34 L 152.08 132.73 C 151.31 133.04 150.94 133.93 151.26 134.70 C 151.58 135.47 152.46 135.84 153.23 135.52 L 154.18 135.13 C 154.95 134.81 155.32 133.93 155.00 133.16 C 154.68 132.39 153.80 132.02 153.03 132.34 Z M 152.07 132.73 L 151.12 133.13 C 150.35 133.46 149.99 134.34 150.31 135.11 C 150.64 135.88 151.52 136.24 152.29 135.92 L 153.24 135.51 C 154.01 135.19 154.37 134.30 154.05 133.54 C 153.72 132.77 152.84 132.41 152.07 132.73 Z M 151.11 133.14 L 150.18 133.54 C 149.41 133.87 149.06 134.76 149.39 135.52 C 149.72 136.29 150.61 136.64 151.38 136.31 L 152.30 135.91 C 153.07 135.58 153.42 134.69 153.09 133.92 C 152.76 133.16 151.87 132.80 151.11 133.14 Z M 150.16 133.54 L 149.21 133.97 C 148.44 134.30 148.10 135.20 148.44 135.96 C 148.78 136.73 149.67 137.07 150.44 136.73 L 151.39 136.31 C 152.16 135.97 152.50 135.07 152.16 134.31 C 151.82 133.55 150.93 133.20 150.16 133.54 Z M 149.18 133.97 L 148.32 134.37 C 147.56 134.72 147.23 135.63 147.58 136.39 C 147.94 137.15 148.84 137.48 149.60 137.12 L 150.46 136.72 C 151.22 136.37 151.55 135.47 151.20 134.71 C 150.85 133.95 149.94 133.62 149.18 133.97 Z M 148.30 134.38 L 147.41 134.81 C 146.65 135.18 146.34 136.09 146.70 136.84 C 147.07 137.60 147.98 137.91 148.73 137.55 L 149.62 137.12 C 150.38 136.75 150.69 135.84 150.33 135.08 C 149.96 134.33 149.05 134.01 148.30 134.38 Z M 147.38 134.82 L 146.46 135.29 C 145.70 135.67 145.40 136.58 145.78 137.33 C 146.16 138.09 147.08 138.39 147.83 138.01 L 148.76 137.54 C 149.51 137.16 149.81 136.25 149.43 135.50 C 149.05 134.74 148.14 134.44 147.38 134.82 Z M 146.44 135.29 L 145.59 135.73 C 144.84 136.12 144.55 137.04 144.94 137.79 C 145.33 138.54 146.25 138.83 147.00 138.44 L 147.84 138.00 C 148.59 137.62 148.88 136.69 148.50 135.95 C 148.11 135.20 147.19 134.91 146.44 135.29 Z M 145.57 135.74 L 144.64 136.25 C 143.90 136.64 143.62 137.57 144.02 138.31 C 144.42 139.06 145.34 139.33 146.08 138.93 L 147.02 138.43 C 147.76 138.03 148.04 137.11 147.64 136.37 C 147.24 135.62 146.31 135.35 145.57 135.74 Z M 144.63 136.25 L 143.82 136.70 C 143.08 137.10 142.81 138.02 143.21 138.76 C 143.61 139.50 144.54 139.77 145.28 139.37 L 146.09 138.93 C 146.83 138.53 147.10 137.60 146.70 136.86 C 146.30 136.12 145.37 135.85 144.63 136.25 Z M 143.81 136.71 L 142.93 137.20 C 142.20 137.61 141.94 138.53 142.35 139.26 C 142.76 140.00 143.68 140.26 144.42 139.85 L 145.29 139.36 C 146.02 138.95 146.28 138.02 145.87 137.29 C 145.46 136.56 144.54 136.30 143.81 136.71 Z M 142.78 137.29 L 141.98 137.88 C 141.30 138.37 141.15 139.32 141.64 140.00 C 142.13 140.68 143.08 140.83 143.76 140.33 L 144.56 139.75 C 145.24 139.26 145.39 138.31 144.90 137.63 C 144.41 136.95 143.46 136.80 142.78 137.29 Z M 141.70 138.14 L 141.07 138.91 C 140.53 139.55 140.62 140.51 141.27 141.04 C 141.92 141.58 142.87 141.48 143.41 140.84 L 144.04 140.07 C 144.57 139.43 144.48 138.47 143.83 137.94 C 143.19 137.40 142.23 137.49 141.70 138.14 Z M 140.83 139.28 L 140.46 140.16 C 140.14 140.94 140.50 141.83 141.28 142.16 C 142.06 142.48 142.95 142.12 143.27 141.34 L 143.64 140.46 C 143.97 139.68 143.60 138.79 142.82 138.47 C 142.05 138.14 141.16 138.51 140.83 139.28 Z M 140.37 140.40 L 140.13 141.41 C 139.94 142.24 140.44 143.06 141.27 143.26 C 142.10 143.46 142.92 142.95 143.12 142.12 L 143.36 141.11 C 143.56 140.28 143.05 139.46 142.22 139.26 C 141.40 139.06 140.57 139.57 140.37 140.40 Z M 140.10 141.50 L 139.93 142.50 C 139.78 143.34 140.35 144.14 141.19 144.28 C 142.03 144.43 142.83 143.87 142.97 143.03 L 143.15 142.03 C 143.30 141.19 142.73 140.39 141.89 140.24 C 141.05 140.10 140.25 140.66 140.10 141.50 Z M 139.92 142.55 L 139.78 143.54 C 139.66 144.39 140.26 145.17 141.10 145.29 C 141.95 145.40 142.73 144.81 142.85 143.96 L 142.99 142.97 C 143.11 142.13 142.51 141.34 141.66 141.23 C 140.82 141.11 140.03 141.70 139.92 142.55 Z M 139.77 143.59 L 139.67 144.58 C 139.58 145.44 140.20 146.20 141.06 146.29 C 141.91 146.37 142.67 145.75 142.76 144.90 L 142.86 143.91 C 142.95 143.06 142.33 142.29 141.47 142.21 C 140.62 142.12 139.86 142.74 139.77 143.59 Z M 139.66 144.64 L 139.59 145.63 C 139.54 146.49 140.19 147.23 141.04 147.29 C 141.90 147.35 142.65 146.70 142.70 145.84 L 142.77 144.84 C 142.83 143.99 142.18 143.24 141.32 143.19 C 140.46 143.13 139.72 143.78 139.66 144.64 Z M 139.59 145.67 L 139.55 146.62 C 139.52 147.48 140.18 148.20 141.04 148.24 C 141.90 148.28 142.63 147.61 142.67 146.75 L 142.71 145.80 C 142.74 144.94 142.07 144.21 141.21 144.18 C 140.35 144.14 139.63 144.81 139.59 145.67 Z M 139.55 146.64 L 139.53 147.66 C 139.50 148.52 140.18 149.24 141.04 149.26 C 141.91 149.28 142.62 148.60 142.64 147.74 L 142.67 146.72 C 142.69 145.86 142.01 145.15 141.15 145.13 C 140.29 145.10 139.57 145.78 139.55 146.64 Z M 139.53 147.68 L 139.51 148.73 C 139.50 149.59 140.19 150.29 141.05 150.30 C 141.91 150.31 142.62 149.62 142.63 148.76 L 142.64 147.72 C 142.65 146.86 141.96 146.15 141.10 146.14 C 140.24 146.13 139.54 146.82 139.53 147.68 Z M 139.51 148.74 L 139.51 149.77 C 139.51 150.63 140.20 151.33 141.06 151.33 C 141.92 151.33 142.62 150.64 142.62 149.78 L 142.63 148.75 C 142.63 147.89 141.94 147.19 141.08 147.19 C 140.22 147.19 139.52 147.88 139.51 148.74 Z M 139.51 149.77 L 139.51 150.74 C 139.51 151.60 140.21 152.30 141.07 152.30 C 141.92 152.30 142.62 151.60 142.62 150.74 L 142.62 149.77 C 142.62 148.92 141.93 148.22 141.07 148.22 C 140.21 148.22 139.51 148.91 139.51 149.77 Z M 139.51 150.74 L 139.51 151.79 C 139.51 152.64 140.21 153.34 141.07 153.34 C 141.92 153.34 142.62 152.64 142.62 151.79 L 142.62 150.74 C 142.62 149.88 141.92 149.19 141.07 149.19 C 140.21 149.19 139.51 149.88 139.51 150.74 Z M 139.52 151.79 L 139.52 152.74 C 139.52 153.59 140.21 154.29 141.07 154.29 C 141.92 154.29 142.62 153.59 142.62 152.74 L 142.62 151.79 C 142.62 150.93 141.92 150.24 141.07 150.24 C 140.21 150.24 139.52 150.93 139.52 151.79 Z M 139.52 152.74 L 139.52 153.73 C 139.52 154.59 140.21 155.28 141.07 155.28 C 141.92 155.28 142.61 154.59 142.61 153.73 L 142.61 152.74 C 142.61 151.88 141.92 151.19 141.07 151.19 C 140.21 151.19 139.52 151.88 139.52 152.74 Z M 139.52 153.73 L 139.52 154.74 C 139.52 155.59 140.21 156.29 141.07 156.29 C 141.92 156.29 142.61 155.59 142.61 154.74 L 142.61 153.73 C 142.61 152.88 141.92 152.18 141.07 152.18 C 140.21 152.18 139.52 152.88 139.52 153.73 Z M 139.52 154.74 L 139.52 155.75 C 139.52 156.60 140.21 157.29 141.06 157.30 C 141.92 157.30 142.61 156.61 142.61 155.75 L 142.61 154.74 C 142.61 153.89 141.92 153.20 141.07 153.19 C 140.22 153.19 139.52 153.88 139.52 154.74 Z M 139.52 155.73 L 139.51 156.72 C 139.50 157.58 140.18 158.28 141.04 158.28 C 141.89 158.29 142.59 157.61 142.60 156.76 L 142.61 155.77 C 142.62 154.91 141.93 154.21 141.08 154.21 C 140.23 154.20 139.53 154.88 139.52 155.73 Z M 139.51 156.70 L 139.48 157.70 C 139.46 158.55 140.14 159.26 140.99 159.28 C 141.84 159.31 142.55 158.63 142.57 157.78 L 142.60 156.78 C 142.62 155.93 141.95 155.22 141.09 155.20 C 140.24 155.17 139.53 155.85 139.51 156.70 Z M 139.49 157.69 L 139.45 158.68 C 139.42 159.53 140.09 160.25 140.94 160.28 C 141.79 160.31 142.50 159.64 142.53 158.79 L 142.57 157.80 C 142.60 156.95 141.93 156.23 141.08 156.20 C 140.23 156.17 139.52 156.84 139.49 157.69 Z M 139.46 158.68 L 139.42 159.68 C 139.39 160.53 140.05 161.24 140.89 161.28 C 141.74 161.31 142.46 160.65 142.49 159.80 L 142.53 158.80 C 142.56 157.95 141.90 157.24 141.05 157.20 C 140.20 157.17 139.49 157.83 139.46 158.68 Z M 139.42 159.68 L 139.39 160.69 C 139.35 161.54 140.01 162.25 140.86 162.28 C 141.70 162.31 142.41 161.65 142.44 160.81 L 142.48 159.80 C 142.52 158.95 141.86 158.24 141.01 158.21 C 140.17 158.18 139.46 158.84 139.42 159.68 Z M 139.39 160.69 L 139.35 161.69 C 139.31 162.53 139.97 163.24 140.81 163.28 C 141.65 163.31 142.36 162.66 142.40 161.81 L 142.44 160.81 C 142.48 159.97 141.82 159.26 140.98 159.22 C 140.14 159.19 139.43 159.84 139.39 160.69 Z M 139.35 161.66 L 139.30 162.56 C 139.25 163.40 139.89 164.12 140.73 164.17 C 141.57 164.22 142.29 163.58 142.34 162.74 L 142.39 161.84 C 142.44 161.00 141.80 160.28 140.96 160.23 C 140.12 160.18 139.40 160.82 139.35 161.66 Z M 139.30 162.56 L 139.24 163.58 C 139.18 164.41 139.82 165.14 140.66 165.19 C 141.50 165.24 142.22 164.61 142.27 163.77 L 142.34 162.75 C 142.39 161.91 141.75 161.19 140.92 161.13 C 140.08 161.08 139.36 161.72 139.30 162.56 Z M 139.24 163.60 L 139.18 164.84 C 139.15 165.68 139.79 166.39 140.63 166.42 C 141.47 166.46 142.18 165.81 142.22 164.97 L 142.27 163.74 C 142.31 162.90 141.66 162.19 140.82 162.16 C 139.99 162.12 139.28 162.77 139.24 163.60 Z M 139.19 164.95 L 139.21 165.96 C 139.23 166.79 139.93 167.45 140.76 167.43 C 141.60 167.41 142.26 166.72 142.24 165.88 L 142.21 164.87 C 142.19 164.03 141.50 163.37 140.66 163.39 C 139.82 163.41 139.16 164.11 139.19 164.95 Z M 140.44 167.39 L 140.68 167.44 C 141.50 167.60 142.29 167.06 142.44 166.25 C 142.60 165.44 142.07 164.65 141.25 164.49 L 141.01 164.44 C 140.20 164.29 139.41 164.82 139.25 165.64 C 139.09 166.45 139.63 167.24 140.44 167.39 Z M 142.33 166.55 L 142.79 165.47 C 143.11 164.72 142.77 163.85 142.01 163.53 C 141.26 163.21 140.39 163.56 140.07 164.31 L 139.61 165.38 C 139.29 166.13 139.63 167.00 140.38 167.32 C 141.13 167.65 142.00 167.30 142.33 166.55 Z M 142.80 165.41 L 142.90 165.15 C 143.18 164.39 142.80 163.55 142.05 163.26 C 141.29 162.98 140.45 163.36 140.16 164.11 L 140.06 164.37 C 139.78 165.13 140.16 165.97 140.91 166.26 C 141.67 166.54 142.51 166.16 142.80 165.41 Z"
      fill="black"
      fill-rule="nonzero" /><path d="M 145.91 146.22 L 146.96 146.06 C 147.77 145.94 148.33 145.18 148.21 144.37 C 148.08 143.56 147.32 143.00 146.51 143.12 L 145.46 143.28 C 144.65 143.40 144.09 144.16 144.21 144.98 C 144.33 145.79 145.09 146.35 145.91 146.22 Z M 146.94 146.11 L 147.91 145.98 C 148.75 145.87 149.34 145.09 149.23 144.26 C 149.11 143.42 148.34 142.83 147.51 142.94 L 146.53 143.08 C 145.69 143.19 145.10 143.96 145.22 144.80 C 145.33 145.63 146.10 146.22 146.94 146.11 Z M 147.84 146.01 L 148.85 145.93 C 149.70 145.85 150.34 145.10 150.26 144.24 C 150.19 143.38 149.44 142.75 148.58 142.82 L 147.58 142.91 C 146.72 142.98 146.08 143.74 146.16 144.59 C 146.23 145.45 146.99 146.09 147.84 146.01 Z M 148.74 145.94 L 149.70 145.92 C 150.56 145.90 151.25 145.19 151.23 144.32 C 151.21 143.46 150.50 142.77 149.64 142.79 L 148.68 142.81 C 147.82 142.83 147.13 143.54 147.15 144.41 C 147.16 145.27 147.88 145.96 148.74 145.94 Z M 149.67 145.92 L 150.62 145.92 C 151.49 145.92 152.18 145.22 152.18 144.36 C 152.18 143.49 151.49 142.80 150.62 142.80 L 149.67 142.80 C 148.80 142.80 148.11 143.49 148.11 144.36 C 148.11 145.22 148.80 145.92 149.67 145.92 Z M 150.62 145.91 L 151.65 145.91 C 152.51 145.91 153.21 145.21 153.21 144.36 C 153.21 143.50 152.51 142.80 151.65 142.80 L 150.62 142.80 C 149.77 142.80 149.07 143.50 149.07 144.36 C 149.07 145.21 149.77 145.91 150.62 145.91 Z M 151.65 145.91 L 152.63 145.91 C 153.49 145.91 154.19 145.21 154.19 144.36 C 154.19 143.50 153.49 142.80 152.63 142.80 L 151.65 142.80 C 150.80 142.80 150.10 143.50 150.10 144.36 C 150.10 145.21 150.80 145.91 151.65 145.91 Z M 152.63 145.91 L 153.66 145.91 C 154.51 145.91 155.21 145.21 155.21 144.36 C 155.21 143.50 154.51 142.81 153.66 142.81 L 152.63 142.81 C 151.78 142.81 151.08 143.50 151.08 144.36 C 151.08 145.21 151.78 145.91 152.63 145.91 Z M 153.66 145.91 L 154.64 145.91 C 155.49 145.91 156.19 145.21 156.19 144.36 C 156.19 143.50 155.49 142.81 154.64 142.81 L 153.66 142.81 C 152.80 142.81 152.11 143.50 152.11 144.36 C 152.11 145.21 152.80 145.91 153.66 145.91 Z M 154.64 145.90 L 155.65 145.90 C 156.51 145.90 157.20 145.21 157.20 144.36 C 157.20 143.50 156.51 142.81 155.65 142.81 L 154.64 142.81 C 153.78 142.81 153.09 143.50 153.09 144.36 C 153.09 145.21 153.78 145.90 154.64 145.90 Z M 155.65 145.90 L 156.67 145.90 C 157.52 145.91 158.21 145.21 158.22 144.36 C 158.22 143.50 157.52 142.81 156.67 142.81 L 155.65 142.81 C 154.80 142.81 154.11 143.50 154.10 144.35 C 154.10 145.21 154.80 145.90 155.65 145.90 Z M 156.66 145.90 L 157.66 145.91 C 158.52 145.92 159.21 145.23 159.22 144.37 C 159.22 143.52 158.53 142.82 157.68 142.81 L 156.68 142.81 C 155.82 142.80 155.12 143.49 155.12 144.35 C 155.11 145.20 155.80 145.90 156.66 145.90 Z M 157.64 145.91 L 158.66 145.93 C 159.51 145.95 160.22 145.27 160.23 144.41 C 160.25 143.56 159.57 142.85 158.71 142.83 L 157.70 142.81 C 156.84 142.80 156.14 143.48 156.12 144.33 C 156.11 145.19 156.79 145.89 157.64 145.91 Z M 158.62 145.93 L 159.61 145.97 C 160.47 146.00 161.19 145.34 161.22 144.49 C 161.26 143.63 160.59 142.91 159.74 142.88 L 158.75 142.83 C 157.90 142.80 157.17 143.46 157.14 144.32 C 157.10 145.17 157.77 145.89 158.62 145.93 Z M 159.56 145.97 L 160.50 146.03 C 161.35 146.10 162.09 145.46 162.15 144.60 C 162.21 143.75 161.57 143.01 160.72 142.95 L 159.79 142.88 C 158.94 142.82 158.20 143.46 158.13 144.31 C 158.07 145.16 158.71 145.90 159.56 145.97 Z M 160.43 146.02 L 161.41 146.14 C 162.25 146.24 163.02 145.63 163.12 144.78 C 163.22 143.94 162.61 143.17 161.76 143.07 L 160.79 142.96 C 159.94 142.86 159.18 143.47 159.08 144.31 C 158.98 145.16 159.58 145.92 160.43 146.02 Z M 161.34 146.12 L 162.35 146.28 C 163.19 146.42 163.98 145.85 164.11 145.01 C 164.25 144.17 163.68 143.38 162.84 143.25 L 161.83 143.09 C 160.99 142.95 160.20 143.52 160.07 144.36 C 159.93 145.20 160.50 145.99 161.34 146.12 Z M 162.30 146.27 L 163.27 146.46 C 164.10 146.63 164.91 146.09 165.07 145.26 C 165.24 144.43 164.70 143.62 163.87 143.45 L 162.89 143.26 C 162.06 143.10 161.25 143.64 161.09 144.47 C 160.93 145.30 161.47 146.11 162.30 146.27 Z M 163.20 146.44 L 164.21 146.69 C 165.03 146.89 165.86 146.39 166.06 145.57 C 166.26 144.75 165.76 143.92 164.94 143.72 L 163.94 143.47 C 163.12 143.27 162.29 143.77 162.09 144.59 C 161.88 145.41 162.38 146.24 163.20 146.44 Z M 164.11 146.66 L 165.13 146.99 C 165.93 147.24 166.79 146.80 167.05 146.00 C 167.31 145.20 166.86 144.34 166.06 144.08 L 165.04 143.76 C 164.24 143.50 163.38 143.94 163.13 144.74 C 162.87 145.54 163.31 146.40 164.11 146.66 Z M 164.99 146.93 L 165.93 147.33 C 166.70 147.67 167.59 147.31 167.93 146.54 C 168.26 145.77 167.90 144.87 167.13 144.54 L 166.20 144.14 C 165.43 143.81 164.53 144.16 164.20 144.93 C 163.87 145.70 164.22 146.60 164.99 146.93 Z M 165.75 147.24 L 166.56 147.72 C 167.28 148.15 168.21 147.91 168.64 147.19 C 169.07 146.47 168.83 145.54 168.11 145.11 L 167.31 144.63 C 166.58 144.20 165.65 144.44 165.22 145.16 C 164.80 145.88 165.03 146.81 165.75 147.24 Z M 166.30 147.53 L 167.06 148.23 C 167.68 148.80 168.64 148.76 169.21 148.15 C 169.78 147.53 169.74 146.57 169.12 146.00 L 168.37 145.30 C 167.75 144.73 166.79 144.77 166.22 145.38 C 165.65 146.00 165.68 146.96 166.30 147.53 Z M 166.80 147.93 L 167.29 148.72 C 167.74 149.43 168.69 149.64 169.40 149.19 C 170.12 148.74 170.33 147.80 169.88 147.09 L 169.38 146.30 C 168.93 145.58 167.99 145.37 167.27 145.82 C 166.56 146.27 166.35 147.21 166.80 147.93 Z M 167.13 148.39 L 167.44 149.30 C 167.71 150.10 168.58 150.53 169.39 150.26 C 170.19 149.99 170.62 149.11 170.35 148.31 L 170.04 147.41 C 169.77 146.60 168.90 146.17 168.09 146.44 C 167.29 146.72 166.86 147.59 167.13 148.39 Z M 167.37 149.05 L 167.53 150.08 C 167.67 150.92 168.46 151.50 169.30 151.36 C 170.15 151.22 170.72 150.43 170.58 149.59 L 170.42 148.56 C 170.28 147.71 169.49 147.14 168.65 147.28 C 167.80 147.41 167.23 148.21 167.37 149.05 Z M 167.51 149.95 L 167.59 150.95 C 167.65 151.81 168.40 152.44 169.25 152.38 C 170.11 152.31 170.75 151.57 170.68 150.71 L 170.60 149.71 C 170.54 148.86 169.79 148.22 168.94 148.29 C 168.08 148.35 167.45 149.10 167.51 149.95 Z M 167.58 150.88 L 167.61 151.90 C 167.63 152.76 168.35 153.43 169.21 153.41 C 170.07 153.38 170.74 152.67 170.72 151.81 L 170.69 150.79 C 170.66 149.93 169.95 149.25 169.09 149.28 C 168.23 149.30 167.56 150.02 167.58 150.88 Z M 167.61 151.82 L 167.59 152.83 C 167.57 153.69 168.26 154.40 169.12 154.42 C 169.98 154.43 170.69 153.75 170.70 152.89 L 170.72 151.88 C 170.74 151.02 170.05 150.31 169.19 150.30 C 168.33 150.28 167.62 150.96 167.61 151.82 Z M 167.59 152.72 L 167.50 153.69 C 167.42 154.55 168.05 155.31 168.91 155.39 C 169.77 155.47 170.53 154.84 170.61 153.98 L 170.70 153.00 C 170.78 152.15 170.15 151.39 169.29 151.31 C 168.43 151.23 167.67 151.86 167.59 152.72 Z M 167.52 153.56 L 167.34 154.55 C 167.19 155.39 167.75 156.20 168.60 156.36 C 169.44 156.51 170.25 155.95 170.41 155.11 L 170.59 154.12 C 170.74 153.27 170.18 152.46 169.34 152.30 C 168.49 152.15 167.68 152.71 167.52 153.56 Z M 167.36 154.46 L 167.12 155.46 C 166.92 156.29 167.43 157.13 168.27 157.34 C 169.10 157.54 169.95 157.02 170.15 156.19 L 170.39 155.19 C 170.59 154.36 170.08 153.51 169.24 153.31 C 168.40 153.11 167.56 153.62 167.36 154.46 Z M 167.13 155.43 L 166.88 156.39 C 166.66 157.22 167.16 158.07 167.99 158.29 C 168.82 158.50 169.67 158.01 169.89 157.17 L 170.14 156.21 C 170.36 155.38 169.86 154.53 169.03 154.32 C 168.19 154.10 167.34 154.60 167.13 155.43 Z M 166.87 156.41 L 166.62 157.44 C 166.42 158.27 166.93 159.11 167.77 159.32 C 168.60 159.52 169.44 159.01 169.64 158.18 L 169.89 157.15 C 170.10 156.32 169.59 155.48 168.75 155.27 C 167.92 155.07 167.08 155.58 166.87 156.41 Z M 166.61 157.48 L 166.42 158.37 C 166.24 159.21 166.78 160.04 167.62 160.22 C 168.46 160.40 169.28 159.87 169.46 159.03 L 169.65 158.13 C 169.83 157.29 169.30 156.47 168.46 156.29 C 167.62 156.11 166.79 156.64 166.61 157.48 Z M 166.41 158.42 L 166.24 159.35 C 166.09 160.20 166.65 161.01 167.50 161.16 C 168.34 161.31 169.15 160.75 169.30 159.91 L 169.47 158.98 C 169.63 158.13 169.06 157.32 168.22 157.17 C 167.37 157.02 166.57 157.58 166.41 158.42 Z M 166.24 159.39 L 166.08 160.41 C 165.95 161.26 166.53 162.06 167.38 162.19 C 168.23 162.32 169.02 161.74 169.15 160.89 L 169.31 159.87 C 169.44 159.02 168.86 158.23 168.01 158.09 C 167.16 157.96 166.37 158.54 166.24 159.39 Z M 166.08 160.44 L 165.94 161.43 C 165.82 162.28 166.41 163.06 167.26 163.18 C 168.11 163.30 168.90 162.71 169.02 161.86 L 169.16 160.87 C 169.27 160.02 168.68 159.23 167.83 159.11 C 166.98 158.99 166.20 159.59 166.08 160.44 Z M 165.94 161.45 L 165.81 162.48 C 165.71 163.34 166.32 164.11 167.17 164.21 C 168.02 164.31 168.79 163.71 168.89 162.86 L 169.02 161.83 C 169.12 160.98 168.52 160.20 167.66 160.10 C 166.81 160.00 166.04 160.60 165.94 161.45 Z M 165.81 162.53 L 165.71 163.60 C 165.64 164.46 166.26 165.21 167.11 165.29 C 167.96 165.36 168.72 164.74 168.80 163.89 L 168.89 162.81 C 168.97 161.96 168.35 161.21 167.49 161.13 C 166.64 161.05 165.89 161.68 165.81 162.53 Z M 165.72 163.64 L 165.65 164.60 C 165.59 165.45 166.23 166.19 167.08 166.25 C 167.93 166.31 168.66 165.67 168.72 164.82 L 168.79 163.85 C 168.85 163.01 168.21 162.27 167.36 162.21 C 166.51 162.15 165.78 162.79 165.72 163.64 Z M 165.66 164.60 L 165.59 165.60 C 165.53 166.44 166.16 167.17 167.00 167.23 C 167.84 167.29 168.58 166.66 168.64 165.82 L 168.71 164.82 C 168.77 163.98 168.14 163.25 167.30 163.19 C 166.46 163.13 165.72 163.76 165.66 164.60 Z M 165.61 165.58 L 165.52 166.53 C 165.45 167.36 166.07 168.10 166.90 168.17 C 167.73 168.24 168.47 167.62 168.54 166.79 L 168.62 165.84 C 168.69 165.01 168.08 164.27 167.24 164.20 C 166.41 164.13 165.68 164.74 165.61 165.58 Z"
      fill="black"
      fill-rule="nonzero" /><path d="M 151.84 148.93 L 151.60 149.85 C 151.39 150.68 151.89 151.51 152.71 151.72 C 153.54 151.93 154.38 151.43 154.58 150.61 L 154.82 149.69 C 155.03 148.86 154.53 148.03 153.71 147.82 C 152.88 147.61 152.05 148.10 151.84 148.93 Z M 151.55 149.98 L 151.38 151.00 C 151.25 151.85 151.83 152.66 152.68 152.79 C 153.54 152.93 154.34 152.35 154.48 151.50 L 154.64 150.48 C 154.78 149.63 154.19 148.82 153.34 148.69 C 152.49 148.55 151.69 149.13 151.55 149.98 Z M 151.36 151.12 L 151.28 152.14 C 151.21 153.00 151.85 153.76 152.72 153.83 C 153.59 153.90 154.35 153.26 154.42 152.39 L 154.50 151.38 C 154.57 150.51 153.93 149.75 153.06 149.68 C 152.19 149.61 151.43 150.25 151.36 151.12 Z M 151.28 152.18 L 151.22 153.20 C 151.17 154.07 151.84 154.81 152.71 154.85 C 153.57 154.90 154.31 154.24 154.36 153.37 L 154.42 152.35 C 154.46 151.48 153.80 150.74 152.93 150.69 C 152.07 150.65 151.32 151.31 151.28 152.18 Z M 151.23 153.20 L 151.17 154.19 C 151.13 155.05 151.79 155.79 152.66 155.84 C 153.52 155.88 154.26 155.22 154.31 154.35 L 154.36 153.37 C 154.40 152.50 153.74 151.76 152.87 151.72 C 152.01 151.67 151.27 152.34 151.23 153.20 Z M 151.18 154.18 L 151.12 155.15 C 151.07 156.01 151.73 156.75 152.59 156.80 C 153.45 156.85 154.19 156.20 154.24 155.33 L 154.30 154.36 C 154.35 153.50 153.70 152.76 152.83 152.71 C 151.97 152.66 151.23 153.32 151.18 154.18 Z M 151.13 155.14 L 151.07 156.15 C 151.01 157.01 151.67 157.75 152.52 157.80 C 153.38 157.86 154.12 157.20 154.17 156.35 L 154.23 155.34 C 154.29 154.48 153.64 153.74 152.78 153.69 C 151.92 153.63 151.18 154.29 151.13 155.14 Z M 151.07 156.17 L 151.02 157.16 C 150.98 158.02 151.64 158.74 152.49 158.79 C 153.34 158.83 154.07 158.18 154.11 157.32 L 154.16 156.33 C 154.21 155.48 153.55 154.75 152.70 154.71 C 151.85 154.66 151.12 155.32 151.07 156.17 Z M 151.04 157.17 L 150.99 158.18 C 150.95 159.02 151.60 159.74 152.44 159.78 C 153.29 159.82 154.01 159.17 154.05 158.33 L 154.10 157.32 C 154.14 156.47 153.49 155.75 152.64 155.71 C 151.80 155.67 151.08 156.32 151.04 157.17 Z M 151.00 158.16 L 150.95 159.16 C 150.90 160.00 151.54 160.71 152.38 160.76 C 153.21 160.81 153.93 160.17 153.98 159.33 L 154.03 158.34 C 154.08 157.50 153.44 156.78 152.60 156.73 C 151.77 156.69 151.05 157.33 151.00 158.16 Z M 150.96 159.16 L 150.90 160.17 C 150.86 161.00 151.50 161.71 152.33 161.75 C 153.16 161.80 153.87 161.16 153.91 160.33 L 153.97 159.33 C 154.01 158.50 153.37 157.79 152.54 157.74 C 151.71 157.70 151.00 158.33 150.96 159.16 Z M 150.91 160.19 L 150.87 161.19 C 150.84 162.02 151.48 162.72 152.30 162.75 C 153.13 162.78 153.83 162.14 153.86 161.32 L 153.90 160.31 C 153.94 159.49 153.29 158.79 152.47 158.76 C 151.64 158.72 150.95 159.36 150.91 160.19 Z M 150.88 161.20 L 150.85 162.19 C 150.81 163.01 151.46 163.70 152.27 163.73 C 153.09 163.76 153.78 163.12 153.81 162.30 L 153.85 161.31 C 153.88 160.49 153.24 159.80 152.42 159.77 C 151.60 159.74 150.91 160.38 150.88 161.20 Z M 150.85 162.19 L 150.82 163.19 C 150.78 164.00 151.42 164.69 152.23 164.72 C 153.05 164.75 153.73 164.12 153.77 163.30 L 153.80 162.31 C 153.84 161.49 153.20 160.80 152.39 160.77 C 151.57 160.74 150.89 161.38 150.85 162.19 Z M 150.82 163.19 L 150.79 164.17 C 150.76 164.98 151.39 165.66 152.20 165.69 C 153.01 165.72 153.69 165.09 153.72 164.28 L 153.76 163.30 C 153.79 162.49 153.16 161.81 152.35 161.78 C 151.54 161.75 150.85 162.38 150.82 163.19 Z M 150.80 164.18 L 150.77 165.16 C 150.74 165.97 151.38 166.64 152.18 166.66 C 152.99 166.69 153.66 166.06 153.68 165.25 L 153.71 164.27 C 153.74 163.46 153.10 162.79 152.30 162.76 C 151.49 162.74 150.82 163.37 150.80 164.18 Z M 150.77 165.18 L 150.76 166.22 C 150.74 167.02 151.38 167.68 152.18 167.69 C 152.99 167.70 153.65 167.07 153.66 166.26 L 153.67 165.23 C 153.69 164.43 153.05 163.77 152.25 163.76 C 151.45 163.74 150.79 164.38 150.77 165.18 Z M 150.76 166.24 L 150.76 167.26 C 150.76 168.06 151.41 168.71 152.21 168.71 C 153.01 168.71 153.65 168.06 153.65 167.26 L 153.65 166.24 C 153.65 165.44 153.01 164.80 152.21 164.80 C 151.41 164.80 150.76 165.44 150.76 166.24 Z M 150.77 167.30 L 150.79 168.30 C 150.81 169.09 151.47 169.72 152.27 169.70 C 153.06 169.68 153.69 169.02 153.67 168.23 L 153.65 167.23 C 153.63 166.43 152.97 165.80 152.17 165.82 C 151.38 165.84 150.75 166.50 150.77 167.30 Z M 150.80 168.35 L 150.86 169.36 C 150.91 170.15 151.58 170.76 152.37 170.71 C 153.16 170.67 153.77 169.99 153.72 169.20 L 153.66 168.18 C 153.62 167.39 152.94 166.79 152.15 166.83 C 151.36 166.88 150.76 167.56 150.80 168.35 Z M 150.87 169.39 L 150.92 170.02 C 150.98 170.80 151.66 171.39 152.45 171.33 C 153.24 171.27 153.83 170.58 153.76 169.79 L 153.72 169.17 C 153.65 168.38 152.97 167.80 152.18 167.86 C 151.39 167.92 150.81 168.61 150.87 169.39 Z"
      fill="black"
      fill-rule="nonzero" /><path d="M 159.49 148.66 L 159.49 149.62 C 159.49 150.47 160.18 151.17 161.04 151.17 C 161.89 151.17 162.58 150.47 162.58 149.62 L 162.58 148.66 C 162.58 147.81 161.89 147.11 161.04 147.11 C 160.18 147.11 159.49 147.81 159.49 148.66 Z M 159.45 149.62 L 159.45 150.66 C 159.45 151.53 160.16 152.24 161.04 152.24 C 161.91 152.24 162.62 151.53 162.62 150.66 L 162.62 149.62 C 162.62 148.74 161.91 148.03 161.04 148.03 C 160.16 148.03 159.45 148.74 159.45 149.62 Z M 159.43 150.66 L 159.43 151.67 C 159.43 152.56 160.15 153.28 161.04 153.28 C 161.92 153.28 162.64 152.56 162.64 151.67 L 162.64 150.66 C 162.64 149.77 161.92 149.06 161.04 149.06 C 160.15 149.06 159.43 149.77 159.43 150.66 Z M 159.44 151.67 L 159.44 152.67 C 159.44 153.55 160.15 154.27 161.04 154.27 C 161.92 154.27 162.63 153.55 162.63 152.67 L 162.63 151.67 C 162.63 150.79 161.92 150.08 161.04 150.08 C 160.15 150.08 159.44 150.79 159.44 151.67 Z M 159.45 152.67 L 159.45 153.70 C 159.45 154.58 160.16 155.29 161.04 155.29 C 161.91 155.29 162.62 154.58 162.62 153.70 L 162.62 152.67 C 162.62 151.79 161.91 151.08 161.04 151.08 C 160.16 151.08 159.45 151.79 159.45 152.67 Z M 159.46 153.70 L 159.46 154.65 C 159.46 155.52 160.17 156.23 161.04 156.23 C 161.91 156.23 162.61 155.52 162.61 154.65 L 162.61 153.70 C 162.61 152.83 161.91 152.13 161.04 152.13 C 160.17 152.13 159.46 152.83 159.46 153.70 Z M 159.47 154.65 L 159.47 155.63 C 159.47 156.50 160.17 157.20 161.04 157.20 C 161.90 157.20 162.60 156.50 162.60 155.63 L 162.60 154.65 C 162.60 153.79 161.90 153.09 161.04 153.09 C 160.17 153.09 159.47 153.79 159.47 154.65 Z M 159.48 155.63 L 159.48 156.65 C 159.48 157.51 160.18 158.20 161.04 158.20 C 161.89 158.20 162.59 157.51 162.59 156.65 L 162.59 155.63 C 162.59 154.77 161.89 154.08 161.04 154.08 C 160.18 154.08 159.48 154.77 159.48 155.63 Z M 159.49 156.64 L 159.49 157.64 C 159.48 158.49 160.17 159.18 161.02 159.19 C 161.87 159.19 162.57 158.51 162.57 157.66 L 162.58 156.66 C 162.58 155.81 161.90 155.11 161.05 155.11 C 160.19 155.10 159.50 155.79 159.49 156.64 Z M 159.50 157.60 L 159.47 158.62 C 159.45 159.46 160.12 160.16 160.96 160.19 C 161.80 160.21 162.51 159.54 162.53 158.70 L 162.56 157.69 C 162.58 156.84 161.92 156.14 161.07 156.12 C 160.23 156.09 159.52 156.76 159.50 157.60 Z M 159.49 158.58 L 159.43 159.58 C 159.39 160.41 160.03 161.12 160.87 161.17 C 161.70 161.21 162.42 160.57 162.46 159.74 L 162.51 158.74 C 162.56 157.90 161.92 157.19 161.08 157.15 C 160.25 157.10 159.53 157.74 159.49 158.58 Z M 159.45 159.56 L 159.38 160.56 C 159.33 161.39 159.96 162.10 160.79 162.16 C 161.62 162.21 162.33 161.58 162.38 160.75 L 162.45 159.75 C 162.50 158.92 161.87 158.21 161.04 158.16 C 160.22 158.10 159.50 158.73 159.45 159.56 Z M 159.40 160.56 L 159.33 161.56 C 159.28 162.38 159.91 163.09 160.73 163.14 C 161.55 163.19 162.26 162.57 162.31 161.75 L 162.37 160.75 C 162.42 159.93 161.80 159.22 160.98 159.17 C 160.16 159.12 159.45 159.74 159.40 160.56 Z M 159.35 161.56 L 159.28 162.56 C 159.23 163.37 159.85 164.08 160.66 164.13 C 161.48 164.18 162.18 163.56 162.23 162.75 L 162.29 161.75 C 162.35 160.94 161.73 160.24 160.92 160.18 C 160.10 160.13 159.40 160.75 159.35 161.56 Z M 159.30 162.56 L 159.23 163.56 C 159.18 164.37 159.79 165.07 160.60 165.12 C 161.40 165.17 162.10 164.56 162.15 163.75 L 162.22 162.75 C 162.27 161.94 161.66 161.25 160.85 161.19 C 160.04 161.14 159.35 161.75 159.30 162.56 Z M 159.24 163.58 L 159.19 164.57 C 159.14 165.37 159.75 166.06 160.56 166.10 C 161.36 166.15 162.04 165.54 162.09 164.73 L 162.14 163.74 C 162.19 162.94 161.57 162.25 160.77 162.21 C 159.97 162.16 159.28 162.78 159.24 163.58 Z M 159.19 164.60 L 159.15 165.61 C 159.12 166.40 159.75 167.07 160.54 167.11 C 161.34 167.14 162.01 166.51 162.04 165.72 L 162.08 164.71 C 162.11 163.91 161.49 163.24 160.69 163.21 C 159.89 163.18 159.22 163.80 159.19 164.60 Z M 159.16 165.63 L 159.14 166.59 C 159.13 167.38 159.76 168.04 160.55 168.05 C 161.34 168.07 162.00 167.44 162.02 166.65 L 162.03 165.69 C 162.05 164.90 161.42 164.24 160.63 164.23 C 159.83 164.21 159.18 164.84 159.16 165.63 Z M 159.15 166.61 L 159.14 167.56 C 159.14 168.35 159.77 169.00 160.56 169.00 C 161.36 169.01 162.00 168.37 162.00 167.58 L 162.01 166.63 C 162.02 165.83 161.38 165.19 160.59 165.18 C 159.80 165.18 159.15 165.82 159.15 166.61 Z M 159.14 167.57 L 159.14 168.60 C 159.14 169.39 159.78 170.03 160.57 170.03 C 161.36 170.03 162.00 169.39 162.00 168.60 L 162.00 167.57 C 162.00 166.78 161.36 166.14 160.57 166.14 C 159.78 166.14 159.14 166.78 159.14 167.57 Z M 159.15 168.60 L 159.15 169.56 C 159.15 170.35 159.78 170.99 160.57 170.99 C 161.36 170.99 162.00 170.35 162.00 169.56 L 162.00 168.60 C 162.00 167.81 161.36 167.17 160.57 167.17 C 159.78 167.17 159.15 167.81 159.15 168.60 Z M 159.15 169.56 L 159.15 170.61 C 159.15 171.39 159.79 172.03 160.57 172.03 C 161.36 172.03 162.00 171.39 162.00 170.61 L 162.00 169.56 C 162.00 168.77 161.36 168.13 160.57 168.13 C 159.79 168.13 159.15 168.77 159.15 169.56 Z M 159.15 170.61 L 159.15 171.17 C 159.15 171.95 159.79 172.59 160.57 172.59 C 161.36 172.59 162.00 171.95 162.00 171.17 L 162.00 170.61 C 162.00 169.82 161.36 169.18 160.57 169.18 C 159.79 169.18 159.15 169.82 159.15 170.61 Z"
      fill="black"
      fill-rule="nonzero" /></svg>