<svg xmlns="http://www.w3.org/2000/svg" width="300" height="300" viewBox="0 0 300 300">
<path d="M 142.08 120.16 L 140.83 120.14 C 140.00 120.12 139.32 120.78 139.31 121.60 C 139.29 122.43 139.95 123.11 140.78 123.12 L 142.03 123.14 C 142.85 123.16 143.53 122.50 143.55 121.68 C 143.56 120.85 142.91 120.17 142.08 120.16 Z M 142.23 121.03 L 142.17 120.88 C 141.84 120.09 140.93 119.72 140.14 120.05 C 139.35 120.38 138.98 121.29 139.31 122.08 L 139.37 122.23 C 139.70 123.02 140.61 123.39 141.40 123.06 C 142.19 122.73 142.56 121.82 142.23 121.03 Z M 141.07 123.03 L 142.26 122.78 C 143.12 122.59 143.66 121.75 143.48 120.90 C 143.30 120.04 142.46 119.50 141.61 119.68 L 140.41 119.93 C 139.56 120.11 139.01 120.95 139.19 121.81 C 139.37 122.66 140.21 123.21 141.07 123.03 Z M 142.17 122.80 L 143.15 122.66 C 144.02 122.53 144.63 121.72 144.50 120.85 C 144.37 119.98 143.56 119.38 142.69 119.50 L 141.70 119.65 C 140.83 119.78 140.23 120.59 140.36 121.46 C 140.48 122.33 141.29 122.93 142.17 122.80 Z M 143.12 122.66 L 144.11 122.54 C 144.98 122.43 145.60 121.63 145.49 120.75 C 145.38 119.88 144.58 119.26 143.71 119.37 L 142.72 119.50 C 141.84 119.61 141.23 120.41 141.34 121.28 C 141.45 122.16 142.25 122.78 143.12 122.66 Z M 144.12 122.54 L 145.08 122.41 C 145.95 122.29 146.56 121.49 146.44 120.61 C 146.33 119.74 145.52 119.13 144.65 119.25 L 143.70 119.38 C 142.82 119.49 142.21 120.30 142.33 121.17 C 142.45 122.04 143.25 122.65 144.12 122.54 Z M 145.08 122.41 L 146.10 122.27 C 146.97 122.15 147.58 121.35 147.47 120.48 C 147.35 119.61 146.55 118.99 145.68 119.11 L 144.65 119.25 C 143.78 119.36 143.17 120.17 143.28 121.04 C 143.40 121.91 144.20 122.52 145.08 122.41 Z M 146.08 122.27 L 147.07 122.15 C 147.94 122.04 148.56 121.25 148.45 120.37 C 148.35 119.50 147.55 118.88 146.68 118.99 L 145.69 119.11 C 144.82 119.22 144.20 120.01 144.31 120.88 C 144.42 121.76 145.21 122.38 146.08 122.27 Z M 147.06 122.14 L 148.06 122.03 C 148.93 121.92 149.55 121.14 149.45 120.27 C 149.34 119.40 148.56 118.77 147.69 118.88 L 146.69 118.99 C 145.82 119.10 145.20 119.88 145.30 120.75 C 145.40 121.62 146.19 122.24 147.06 122.14 Z M 148.06 122.02 L 149.02 121.90 C 149.89 121.80 150.50 121.01 150.40 120.15 C 150.30 119.28 149.51 118.67 148.65 118.77 L 147.68 118.88 C 146.82 118.99 146.20 119.77 146.30 120.64 C 146.41 121.50 147.19 122.12 148.06 122.02 Z M 149.02 121.89 L 149.96 121.78 C 150.82 121.67 151.43 120.89 151.32 120.03 C 151.22 119.17 150.43 118.56 149.57 118.67 L 148.64 118.78 C 147.78 118.88 147.17 119.67 147.28 120.53 C 147.38 121.39 148.16 122.00 149.02 121.89 Z M 149.95 121.77 L 150.99 121.65 C 151.84 121.55 152.45 120.77 152.35 119.92 C 152.25 119.06 151.48 118.45 150.62 118.55 L 149.58 118.68 C 148.73 118.78 148.12 119.55 148.22 120.40 C 148.32 121.26 149.09 121.87 149.95 121.77 Z M 150.97 121.64 L 152.00 121.53 C 152.85 121.43 153.46 120.67 153.37 119.82 C 153.28 118.97 152.52 118.36 151.67 118.45 L 150.64 118.56 C 149.79 118.66 149.18 119.42 149.27 120.27 C 149.36 121.12 150.12 121.73 150.97 121.64 Z M 151.99 121.52 L 153.00 121.41 C 153.85 121.33 154.46 120.57 154.38 119.73 C 154.29 118.89 153.54 118.27 152.69 118.36 L 151.68 118.46 C 150.83 118.55 150.22 119.30 150.31 120.14 C 150.39 120.99 151.14 121.60 151.99 121.52 Z M 153.00 121.40 L 154.02 121.30 C 154.86 121.22 155.47 120.48 155.39 119.64 C 155.31 118.80 154.57 118.19 153.73 118.27 L 152.70 118.37 C 151.86 118.45 151.25 119.19 151.33 120.03 C 151.41 120.87 152.16 121.48 153.00 121.40 Z M 154.01 121.29 L 155.00 121.20 C 155.83 121.12 156.44 120.39 156.37 119.56 C 156.29 118.72 155.55 118.11 154.72 118.19 L 153.73 118.28 C 152.90 118.36 152.29 119.09 152.37 119.93 C 152.44 120.76 153.18 121.37 154.01 121.29 Z M 154.99 121.19 L 156.11 121.09 C 156.93 121.02 157.54 120.29 157.47 119.47 C 157.40 118.65 156.68 118.04 155.85 118.11 L 154.73 118.20 C 153.91 118.28 153.30 119.00 153.37 119.82 C 153.44 120.65 154.17 121.26 154.99 121.19 Z M 156.09 121.07 L 157.03 121.00 C 157.84 120.94 158.45 120.23 158.39 119.42 C 158.33 118.61 157.63 118.00 156.82 118.06 L 155.88 118.13 C 155.07 118.19 154.46 118.89 154.51 119.70 C 154.57 120.52 155.28 121.12 156.09 121.07 Z M 156.99 120.98 L 157.94 120.94 C 158.74 120.90 159.36 120.22 159.32 119.42 C 159.28 118.62 158.60 118.00 157.80 118.04 L 156.86 118.08 C 156.06 118.12 155.44 118.80 155.47 119.60 C 155.51 120.40 156.19 121.02 156.99 120.98 Z M 157.89 120.92 L 158.88 120.91 C 159.67 120.90 160.30 120.25 160.29 119.45 C 160.28 118.66 159.63 118.03 158.84 118.04 L 157.85 118.05 C 157.06 118.06 156.42 118.71 156.43 119.51 C 156.44 120.30 157.10 120.93 157.89 120.92 Z M 158.86 120.90 L 159.26 120.90 C 160.05 120.90 160.69 120.26 160.69 119.47 C 160.69 118.68 160.05 118.04 159.26 118.04 L 158.86 118.04 C 158.07 118.04 157.43 118.69 157.43 119.47 C 157.43 120.26 158.07 120.90 158.86 120.90 Z"
      fill="black"
      fill-rule="nonzero" /><path d="M 145.81 120.45 L 145.01 121.03 C 144.34 121.50 144.19 122.42 144.67 123.09 C 145.14 123.75 146.06 123.90 146.73 123.43 L 147.53 122.85 C 148.19 122.38 148.35 121.46 147.87 120.79 C 147.40 120.13 146.48 119.98 145.81 120.45 Z M 144.54 121.49 L 144.10 122.28 C 143.70 123.01 143.97 123.94 144.70 124.34 C 145.43 124.75 146.35 124.48 146.76 123.75 L 147.19 122.96 C 147.60 122.23 147.33 121.31 146.60 120.90 C 145.87 120.50 144.94 120.76 144.54 121.49 Z M 143.90 122.82 L 143.78 123.79 C 143.68 124.63 144.28 125.40 145.12 125.51 C 145.97 125.61 146.74 125.01 146.84 124.17 L 146.96 123.21 C 147.07 122.36 146.47 121.59 145.62 121.48 C 144.78 121.38 144.01 121.98 143.90 122.82 Z M 143.75 123.95 L 143.73 125.03 C 143.71 125.90 144.40 126.61 145.26 126.62 C 146.12 126.64 146.83 125.96 146.85 125.10 L 146.87 124.01 C 146.89 123.15 146.20 122.44 145.34 122.42 C 144.48 122.40 143.77 123.09 143.75 123.95 Z M 143.72 125.06 L 143.71 126.05 C 143.71 126.92 144.41 127.62 145.28 127.63 C 146.15 127.63 146.86 126.93 146.86 126.06 L 146.86 125.07 C 146.87 124.20 146.16 123.49 145.29 123.49 C 144.43 123.49 143.72 124.19 143.72 125.06 Z M 143.70 126.06 L 143.71 127.09 C 143.72 127.97 144.43 128.67 145.31 128.66 C 146.18 128.66 146.89 127.94 146.88 127.07 L 146.87 126.04 C 146.86 125.16 146.15 124.46 145.27 124.47 C 144.40 124.47 143.70 125.19 143.70 126.06 Z M 143.70 127.12 L 143.73 128.14 C 143.75 129.02 144.47 129.72 145.35 129.70 C 146.23 129.68 146.93 128.95 146.91 128.07 L 146.89 127.04 C 146.87 126.16 146.14 125.47 145.26 125.49 C 144.38 125.51 143.68 126.24 143.70 127.12 Z M 143.72 128.16 L 143.76 129.16 C 143.79 130.04 144.53 130.73 145.42 130.70 C 146.30 130.67 146.99 129.93 146.95 129.04 L 146.92 128.04 C 146.88 127.16 146.14 126.47 145.26 126.51 C 144.38 126.54 143.69 127.28 143.72 128.16 Z M 143.76 129.18 L 143.80 130.16 C 143.84 131.05 144.59 131.73 145.47 131.69 C 146.36 131.65 147.04 130.90 147.00 130.02 L 146.95 129.03 C 146.91 128.15 146.17 127.46 145.28 127.50 C 144.40 127.54 143.72 128.29 143.76 129.18 Z M 143.80 130.16 L 143.85 131.20 C 143.89 132.08 144.64 132.77 145.52 132.73 C 146.40 132.69 147.09 131.94 147.05 131.05 L 147.00 130.02 C 146.96 129.13 146.21 128.45 145.33 128.49 C 144.44 128.53 143.76 129.28 143.80 130.16 Z M 143.85 131.19 L 143.89 132.23 C 143.93 133.11 144.67 133.80 145.56 133.76 C 146.44 133.73 147.13 132.98 147.09 132.10 L 147.05 131.06 C 147.01 130.17 146.27 129.49 145.38 129.52 C 144.50 129.56 143.81 130.31 143.85 131.19 Z M 143.89 132.22 L 143.92 133.16 C 143.95 134.04 144.69 134.73 145.58 134.70 C 146.46 134.67 147.16 133.93 147.13 133.05 L 147.09 132.11 C 147.06 131.22 146.32 130.53 145.44 130.56 C 144.55 130.59 143.86 131.33 143.89 132.22 Z M 143.92 133.13 L 143.94 134.19 C 143.96 135.08 144.69 135.78 145.57 135.76 C 146.46 135.75 147.16 135.02 147.15 134.13 L 147.13 133.07 C 147.11 132.18 146.38 131.48 145.49 131.50 C 144.61 131.51 143.90 132.25 143.92 133.13 Z M 143.94 134.17 L 143.94 135.08 C 143.95 135.97 144.67 136.68 145.55 136.68 C 146.44 136.68 147.15 135.96 147.15 135.07 L 147.15 134.16 C 147.14 133.27 146.42 132.56 145.54 132.56 C 144.65 132.56 143.94 133.28 143.94 134.17 Z M 143.95 135.08 L 143.95 136.00 C 143.95 136.88 144.66 137.60 145.55 137.60 C 146.43 137.60 147.15 136.88 147.15 136.00 L 147.15 135.08 C 147.15 134.20 146.43 133.48 145.55 133.48 C 144.66 133.48 143.95 134.20 143.95 135.08 Z M 143.95 136.00 L 143.95 137.07 C 143.95 137.95 144.66 138.67 145.55 138.67 C 146.43 138.67 147.14 137.95 147.14 137.07 L 147.14 136.00 C 147.14 135.12 146.43 134.40 145.55 134.40 C 144.66 134.40 143.95 135.12 143.95 136.00 Z M 143.95 137.07 L 143.95 138.02 C 143.95 138.90 144.66 139.61 145.54 139.62 C 146.42 139.62 147.14 138.90 147.14 138.02 L 147.14 137.07 C 147.14 136.19 146.43 135.48 145.55 135.48 C 144.67 135.48 143.95 136.19 143.95 137.07 Z M 143.95 138.02 L 143.95 139.05 C 143.95 139.93 144.66 140.64 145.53 140.64 C 146.41 140.65 147.13 139.94 147.13 139.06 L 147.14 138.03 C 147.14 137.15 146.43 136.43 145.55 136.43 C 144.67 136.43 143.96 137.14 143.95 138.02 Z M 143.95 139.04 L 143.94 140.06 C 143.94 140.94 144.64 141.66 145.51 141.67 C 146.39 141.68 147.11 140.97 147.12 140.10 L 147.13 139.07 C 147.14 138.19 146.43 137.48 145.56 137.47 C 144.68 137.46 143.96 138.16 143.95 139.04 Z M 143.95 140.04 L 143.93 141.02 C 143.91 141.90 144.60 142.62 145.47 142.64 C 146.35 142.66 147.07 141.97 147.09 141.09 L 147.11 140.12 C 147.13 139.24 146.44 138.52 145.57 138.50 C 144.69 138.48 143.97 139.17 143.95 140.04 Z M 143.94 140.99 L 143.89 141.99 C 143.86 142.86 144.53 143.59 145.39 143.63 C 146.26 143.67 147.00 143.00 147.03 142.13 L 147.08 141.13 C 147.12 140.26 146.45 139.53 145.58 139.49 C 144.71 139.45 143.98 140.12 143.94 140.99 Z M 143.91 141.95 L 143.83 142.98 C 143.77 143.84 144.41 144.59 145.28 144.65 C 146.14 144.71 146.88 144.07 146.95 143.20 L 147.02 142.17 C 147.09 141.31 146.44 140.57 145.58 140.50 C 144.72 140.44 143.97 141.09 143.91 141.95 Z M 143.84 142.94 L 143.74 143.97 C 143.66 144.82 144.28 145.58 145.13 145.67 C 145.99 145.75 146.75 145.13 146.83 144.28 L 146.93 143.24 C 147.02 142.39 146.40 141.63 145.54 141.55 C 144.69 141.46 143.93 142.08 143.84 142.94 Z M 143.75 143.94 L 143.63 144.93 C 143.53 145.78 144.13 146.55 144.98 146.65 C 145.83 146.75 146.59 146.15 146.70 145.30 L 146.82 144.31 C 146.92 143.46 146.32 142.69 145.47 142.59 C 144.63 142.49 143.86 143.09 143.75 143.94 Z M 143.65 144.90 L 143.51 145.90 C 143.39 146.74 143.97 147.51 144.80 147.63 C 145.64 147.75 146.42 147.17 146.54 146.34 L 146.68 145.34 C 146.80 144.50 146.22 143.72 145.38 143.60 C 144.55 143.48 143.77 144.06 143.65 144.90 Z M 143.53 145.86 L 143.36 146.87 C 143.22 147.69 143.77 148.47 144.59 148.61 C 145.41 148.75 146.19 148.20 146.33 147.38 L 146.51 146.38 C 146.65 145.55 146.10 144.77 145.28 144.63 C 144.46 144.49 143.68 145.04 143.53 145.86 Z M 143.39 146.84 L 143.24 147.64 C 143.08 148.44 143.61 149.22 144.41 149.38 C 145.22 149.53 146.00 149.00 146.15 148.20 L 146.30 147.40 C 146.46 146.60 145.93 145.82 145.13 145.67 C 144.32 145.51 143.55 146.04 143.39 146.84 Z"
      fill="black"
      fill-rule="nonzero" /><path d="M 146.41 131.56 L 147.41 131.56 C 148.25 131.56 148.93 130.88 148.93 130.04 C 148.93 129.20 148.25 128.52 147.41 128.52 L 146.41 128.52 C 145.57 128.52 144.89 129.20 144.89 130.04 C 144.89 130.88 145.57 131.56 146.41 131.56 Z M 147.41 131.59 L 148.39 131.59 C 149.25 131.59 149.94 130.90 149.94 130.04 C 149.94 129.19 149.25 128.50 148.39 128.50 L 147.41 128.50 C 146.55 128.50 145.86 129.19 145.86 130.04 C 145.86 130.90 146.55 131.59 147.41 131.59 Z M 148.39 131.59 L 149.39 131.59 C 150.24 131.59 150.94 130.90 150.94 130.04 C 150.94 129.19 150.24 128.49 149.39 128.49 L 148.39 128.49 C 147.54 128.49 146.84 129.19 146.84 130.04 C 146.84 130.90 147.54 131.59 148.39 131.59 Z M 149.39 131.58 L 150.39 131.58 C 151.24 131.58 151.93 130.89 151.93 130.04 C 151.93 129.19 151.24 128.50 150.39 128.50 L 149.39 128.50 C 148.54 128.50 147.85 129.19 147.85 130.04 C 147.85 130.89 148.54 131.58 149.39 131.58 Z M 150.39 131.57 L 151.40 131.57 C 152.24 131.57 152.93 130.88 152.93 130.04 C 152.93 129.20 152.24 128.52 151.40 128.52 L 150.39 128.52 C 149.55 128.52 148.86 129.20 148.86 130.04 C 148.86 130.88 149.55 131.57 150.39 131.57 Z M 151.40 131.55 L 152.42 131.55 C 153.26 131.55 153.93 130.87 153.93 130.04 C 153.93 129.21 153.26 128.53 152.42 128.53 L 151.40 128.53 C 150.57 128.53 149.89 129.21 149.89 130.04 C 149.89 130.87 150.57 131.55 151.40 131.55 Z M 152.42 131.53 L 153.42 131.53 C 154.24 131.53 154.91 130.86 154.91 130.04 C 154.91 129.22 154.24 128.55 153.42 128.55 L 152.42 128.55 C 151.60 128.55 150.93 129.22 150.93 130.04 C 150.93 130.86 151.60 131.53 152.42 131.53 Z M 153.42 131.51 L 154.42 131.51 C 155.23 131.51 155.89 130.86 155.89 130.04 C 155.89 129.23 155.23 128.57 154.42 128.57 L 153.42 128.57 C 152.61 128.57 151.95 129.23 151.95 130.04 C 151.95 130.85 152.61 131.51 153.42 131.51 Z M 154.41 131.50 L 155.40 131.50 C 156.21 131.51 156.86 130.86 156.87 130.06 C 156.87 129.25 156.22 128.60 155.42 128.59 L 154.43 128.59 C 153.62 128.58 152.97 129.23 152.96 130.03 C 152.96 130.84 153.60 131.49 154.41 131.50 Z M 155.38 131.49 L 156.38 131.51 C 157.18 131.52 157.84 130.89 157.85 130.09 C 157.86 129.30 157.23 128.64 156.43 128.62 L 155.44 128.61 C 154.64 128.59 153.98 129.22 153.97 130.02 C 153.95 130.82 154.59 131.47 155.38 131.49 Z M 156.37 131.50 L 157.37 131.53 C 158.16 131.55 158.82 130.92 158.84 130.13 C 158.86 129.34 158.24 128.68 157.45 128.66 L 156.45 128.63 C 155.66 128.61 155.00 129.24 154.98 130.03 C 154.95 130.82 155.58 131.48 156.37 131.50 Z M 157.37 131.52 L 157.44 131.52 C 158.23 131.55 158.89 130.93 158.91 130.14 C 158.93 129.35 158.31 128.69 157.52 128.67 L 157.45 128.67 C 156.66 128.64 156.00 129.26 155.98 130.05 C 155.96 130.84 156.58 131.50 157.37 131.52 Z"
      fill="black"
      fill-rule="nonzero" /><path d="M 144.06 139.92 L 145.06 139.98 C 145.89 140.03 146.60 139.40 146.66 138.57 C 146.71 137.74 146.08 137.03 145.25 136.98 L 144.25 136.91 C 143.42 136.86 142.71 137.49 142.66 138.32 C 142.60 139.15 143.23 139.86 144.06 139.92 Z M 145.12 140.02 L 146.12 140.04 C 146.97 140.06 147.67 139.39 147.69 138.54 C 147.71 137.69 147.04 136.98 146.19 136.96 L 145.19 136.94 C 144.34 136.92 143.64 137.59 143.62 138.44 C 143.60 139.29 144.27 140.00 145.12 140.02 Z M 146.22 140.06 L 147.13 140.02 C 147.99 139.98 148.65 139.25 148.61 138.39 C 148.57 137.53 147.85 136.87 146.99 136.91 L 146.08 136.95 C 145.23 136.98 144.56 137.71 144.60 138.57 C 144.64 139.43 145.37 140.10 146.22 140.06 Z M 147.22 140.01 L 148.24 139.90 C 149.09 139.81 149.71 139.04 149.62 138.19 C 149.53 137.34 148.77 136.72 147.91 136.81 L 146.89 136.91 C 146.04 137.00 145.42 137.77 145.51 138.62 C 145.60 139.48 146.37 140.10 147.22 140.01 Z M 148.29 139.89 L 149.27 139.76 C 150.12 139.64 150.72 138.85 150.60 138.00 C 150.48 137.15 149.70 136.56 148.85 136.68 L 147.86 136.81 C 147.01 136.93 146.42 137.72 146.54 138.57 C 146.66 139.42 147.44 140.01 148.29 139.89 Z M 149.29 139.75 L 150.24 139.61 C 151.09 139.48 151.67 138.69 151.55 137.85 C 151.42 137.00 150.64 136.42 149.79 136.54 L 148.83 136.69 C 147.99 136.81 147.41 137.60 147.53 138.44 C 147.66 139.29 148.44 139.87 149.29 139.75 Z M 150.24 139.60 L 151.27 139.45 C 152.12 139.32 152.70 138.54 152.57 137.70 C 152.45 136.86 151.67 136.28 150.83 136.40 L 149.79 136.55 C 148.95 136.67 148.37 137.46 148.49 138.30 C 148.62 139.14 149.40 139.72 150.24 139.60 Z M 151.26 139.44 L 152.33 139.30 C 153.17 139.18 153.75 138.41 153.64 137.57 C 153.52 136.73 152.75 136.14 151.91 136.26 L 150.84 136.40 C 150.00 136.52 149.41 137.29 149.53 138.13 C 149.65 138.97 150.42 139.56 151.26 139.44 Z M 152.30 139.29 L 153.36 139.16 C 154.19 139.06 154.78 138.30 154.68 137.46 C 154.58 136.63 153.82 136.03 152.99 136.14 L 151.93 136.27 C 151.10 136.37 150.50 137.13 150.61 137.96 C 150.71 138.80 151.47 139.39 152.30 139.29 Z M 153.33 139.14 L 154.35 139.03 C 155.18 138.94 155.78 138.20 155.69 137.37 C 155.60 136.55 154.85 135.95 154.03 136.04 L 153.01 136.15 C 152.18 136.24 151.58 136.98 151.67 137.81 C 151.76 138.64 152.51 139.23 153.33 139.14 Z M 154.33 139.02 L 155.27 138.93 C 156.09 138.86 156.69 138.13 156.62 137.31 C 156.54 136.49 155.81 135.89 154.99 135.96 L 154.05 136.05 C 153.23 136.13 152.63 136.86 152.70 137.68 C 152.78 138.49 153.51 139.10 154.33 139.02 Z M 155.24 138.92 L 156.28 138.84 C 157.09 138.78 157.70 138.08 157.64 137.27 C 157.58 136.45 156.87 135.84 156.06 135.90 L 155.02 135.98 C 154.21 136.04 153.60 136.74 153.66 137.56 C 153.72 138.37 154.43 138.98 155.24 138.92 Z M 156.24 138.83 L 157.23 138.78 C 158.03 138.74 158.65 138.06 158.61 137.25 C 158.57 136.45 157.89 135.83 157.09 135.87 L 156.10 135.92 C 155.30 135.96 154.68 136.64 154.72 137.44 C 154.76 138.25 155.44 138.87 156.24 138.83 Z M 157.21 138.76 L 157.98 138.73 C 158.78 138.71 159.40 138.04 159.37 137.25 C 159.34 136.46 158.68 135.83 157.88 135.86 L 157.11 135.89 C 156.32 135.92 155.70 136.58 155.72 137.37 C 155.75 138.17 156.42 138.79 157.21 138.76 Z"
      fill="black"
      fill-rule="nonzero" /><path d="M 131.00 149.96 L 132.01 150.13 C 132.84 150.26 133.62 149.70 133.76 148.87 C 133.89 148.04 133.33 147.26 132.50 147.13 L 131.49 146.96 C 130.66 146.83 129.88 147.39 129.74 148.22 C 129.61 149.05 130.17 149.83 131.00 149.96 Z M 132.07 150.21 L 133.04 150.32 C 133.91 150.43 134.70 149.81 134.81 148.93 C 134.91 148.06 134.29 147.27 133.42 147.16 L 132.45 147.05 C 131.58 146.94 130.79 147.56 130.68 148.44 C 130.57 149.31 131.20 150.10 132.07 150.21 Z M 133.18 150.37 L 134.17 150.40 C 135.07 150.43 135.82 149.73 135.85 148.83 C 135.88 147.93 135.18 147.18 134.28 147.15 L 133.28 147.12 C 132.39 147.09 131.64 147.79 131.61 148.69 C 131.58 149.59 132.28 150.34 133.18 150.37 Z M 134.29 150.40 L 135.26 150.36 C 136.15 150.33 136.85 149.58 136.82 148.68 C 136.79 147.79 136.03 147.09 135.14 147.12 L 134.17 147.15 C 133.27 147.19 132.57 147.94 132.60 148.84 C 132.64 149.73 133.39 150.43 134.29 150.40 Z M 135.32 150.36 L 136.33 150.28 C 137.22 150.21 137.89 149.43 137.82 148.54 C 137.75 147.64 136.97 146.97 136.08 147.04 L 135.07 147.12 C 134.18 147.19 133.51 147.97 133.58 148.87 C 133.65 149.76 134.43 150.43 135.32 150.36 Z M 136.38 150.28 L 137.38 150.17 C 138.27 150.07 138.92 149.26 138.82 148.37 C 138.72 147.48 137.91 146.84 137.02 146.94 L 136.02 147.05 C 135.13 147.15 134.49 147.95 134.59 148.84 C 134.69 149.73 135.49 150.38 136.38 150.28 Z M 137.42 150.16 L 138.42 150.03 C 139.30 149.91 139.93 149.09 139.81 148.20 C 139.69 147.32 138.88 146.69 137.99 146.81 L 136.99 146.94 C 136.10 147.06 135.48 147.88 135.59 148.77 C 135.71 149.65 136.53 150.28 137.42 150.16 Z M 138.42 150.03 L 139.41 149.89 C 140.30 149.77 140.92 148.95 140.80 148.06 C 140.67 147.17 139.85 146.55 138.96 146.67 L 137.98 146.81 C 137.09 146.93 136.47 147.75 136.59 148.64 C 136.72 149.53 137.54 150.15 138.42 150.03 Z M 139.41 149.89 L 140.40 149.75 C 141.29 149.63 141.91 148.82 141.79 147.93 C 141.67 147.04 140.85 146.42 139.96 146.54 L 138.97 146.67 C 138.08 146.80 137.46 147.61 137.58 148.50 C 137.70 149.39 138.52 150.01 139.41 149.89 Z M 140.39 149.75 L 141.37 149.63 C 142.25 149.51 142.88 148.70 142.77 147.81 C 142.65 146.93 141.84 146.30 140.95 146.41 L 139.97 146.54 C 139.09 146.65 138.46 147.47 138.57 148.35 C 138.69 149.24 139.50 149.87 140.39 149.75 Z M 141.38 149.63 L 142.38 149.49 C 143.26 149.37 143.88 148.56 143.76 147.67 C 143.65 146.78 142.83 146.16 141.94 146.28 L 140.94 146.42 C 140.06 146.54 139.44 147.35 139.56 148.24 C 139.68 149.12 140.49 149.74 141.38 149.63 Z M 142.41 149.48 L 143.40 149.33 C 144.28 149.19 144.88 148.36 144.74 147.48 C 144.61 146.60 143.78 146.00 142.90 146.14 L 141.91 146.29 C 141.03 146.43 140.43 147.25 140.56 148.14 C 140.70 149.02 141.53 149.62 142.41 149.48 Z M 143.42 149.32 L 144.41 149.15 C 145.29 149.01 145.88 148.17 145.73 147.29 C 145.58 146.41 144.74 145.82 143.86 145.97 L 142.88 146.14 C 142.00 146.29 141.41 147.12 141.56 148.00 C 141.71 148.88 142.54 149.47 143.42 149.32 Z M 144.40 149.15 L 145.39 148.99 C 146.27 148.84 146.86 148.01 146.71 147.13 C 146.57 146.26 145.74 145.66 144.86 145.81 L 143.87 145.97 C 142.99 146.12 142.40 146.95 142.55 147.83 C 142.69 148.71 143.52 149.30 144.40 149.15 Z M 145.38 148.99 L 146.37 148.83 C 147.24 148.69 147.84 147.86 147.70 146.99 C 147.56 146.11 146.73 145.51 145.86 145.65 L 144.87 145.81 C 143.99 145.95 143.40 146.78 143.54 147.65 C 143.68 148.53 144.50 149.13 145.38 148.99 Z M 146.37 148.82 L 147.36 148.66 C 148.23 148.52 148.82 147.70 148.68 146.82 C 148.54 145.95 147.72 145.36 146.84 145.50 L 145.85 145.66 C 144.98 145.80 144.39 146.62 144.53 147.50 C 144.67 148.37 145.50 148.96 146.37 148.82 Z M 147.37 148.65 L 148.34 148.49 C 149.21 148.34 149.80 147.52 149.65 146.65 C 149.50 145.78 148.68 145.19 147.81 145.34 L 146.83 145.51 C 145.96 145.65 145.38 146.48 145.53 147.35 C 145.67 148.22 146.50 148.80 147.37 148.65 Z M 148.34 148.48 L 149.34 148.31 C 150.21 148.16 150.79 147.34 150.64 146.48 C 150.49 145.61 149.67 145.03 148.80 145.18 L 147.81 145.35 C 146.94 145.50 146.36 146.32 146.51 147.18 C 146.66 148.05 147.48 148.63 148.34 148.48 Z M 149.33 148.30 L 150.34 148.14 C 151.20 147.99 151.78 147.18 151.64 146.32 C 151.49 145.46 150.68 144.87 149.82 145.02 L 148.81 145.18 C 147.95 145.33 147.37 146.14 147.51 147.00 C 147.66 147.87 148.47 148.45 149.33 148.30 Z M 150.32 148.13 L 151.31 147.97 C 152.17 147.84 152.75 147.03 152.62 146.17 C 152.48 145.32 151.68 144.73 150.82 144.87 L 149.83 145.02 C 148.97 145.16 148.39 145.97 148.52 146.82 C 148.66 147.68 149.46 148.27 150.32 148.13 Z M 151.29 147.97 L 152.29 147.82 C 153.15 147.70 153.74 146.90 153.62 146.05 C 153.49 145.19 152.70 144.60 151.84 144.73 L 150.84 144.87 C 149.98 145.00 149.39 145.79 149.52 146.65 C 149.64 147.50 150.43 148.09 151.29 147.97 Z M 152.28 147.81 L 153.26 147.68 C 154.11 147.57 154.71 146.78 154.59 145.93 C 154.48 145.08 153.69 144.49 152.84 144.60 L 151.86 144.73 C 151.01 144.85 150.41 145.63 150.53 146.48 C 150.64 147.33 151.43 147.93 152.28 147.81 Z M 153.26 147.67 L 154.24 147.54 C 155.09 147.42 155.68 146.64 155.57 145.80 C 155.45 144.95 154.67 144.36 153.83 144.48 L 152.84 144.61 C 152.00 144.73 151.41 145.51 151.52 146.35 C 151.64 147.20 152.42 147.79 153.26 147.67 Z M 154.25 147.53 L 155.23 147.39 C 156.07 147.27 156.66 146.50 156.54 145.66 C 156.42 144.82 155.65 144.23 154.81 144.35 L 153.82 144.49 C 152.98 144.61 152.40 145.38 152.52 146.22 C 152.63 147.06 153.41 147.64 154.25 147.53 Z M 155.22 147.38 L 156.16 147.25 C 156.99 147.15 157.58 146.38 157.47 145.55 C 157.36 144.71 156.60 144.13 155.77 144.24 L 154.82 144.36 C 153.99 144.47 153.40 145.23 153.51 146.07 C 153.62 146.90 154.39 147.49 155.22 147.38 Z M 156.14 147.25 L 157.15 147.13 C 157.97 147.03 158.57 146.28 158.47 145.45 C 158.37 144.62 157.62 144.03 156.79 144.13 L 155.79 144.24 C 154.96 144.34 154.37 145.09 154.46 145.92 C 154.56 146.75 155.31 147.34 156.14 147.25 Z M 157.12 147.12 L 158.12 147.02 C 158.95 146.93 159.55 146.20 159.46 145.37 C 159.38 144.55 158.64 143.95 157.82 144.03 L 156.82 144.13 C 155.99 144.22 155.39 144.96 155.48 145.78 C 155.56 146.61 156.30 147.21 157.12 147.12 Z M 158.06 147.02 L 159.08 146.96 C 159.90 146.91 160.53 146.20 160.48 145.38 C 160.44 144.55 159.73 143.92 158.91 143.97 L 157.88 144.03 C 157.06 144.08 156.43 144.79 156.48 145.61 C 156.53 146.44 157.23 147.06 158.06 147.02 Z M 158.93 146.95 L 159.95 146.99 C 160.77 147.03 161.47 146.40 161.50 145.58 C 161.54 144.76 160.91 144.06 160.09 144.03 L 159.06 143.98 C 158.24 143.94 157.55 144.58 157.51 145.40 C 157.47 146.22 158.11 146.91 158.93 146.95 Z M 159.75 146.96 L 160.73 147.14 C 161.53 147.28 162.29 146.75 162.44 145.96 C 162.59 145.16 162.06 144.39 161.26 144.24 L 160.29 144.06 C 159.49 143.92 158.72 144.45 158.57 145.24 C 158.43 146.04 158.95 146.81 159.75 146.96 Z M 160.64 147.11 L 161.15 147.23 C 161.93 147.42 162.72 146.95 162.91 146.16 C 163.11 145.38 162.63 144.59 161.85 144.40 L 161.34 144.27 C 160.56 144.08 159.77 144.56 159.58 145.34 C 159.38 146.12 159.86 146.91 160.64 147.11 Z"
      fill="black"
      fill-rule="nonzero" /><path d="M 143.52 147.05 L 143.47 148.03 C 143.43 148.86 144.06 149.56 144.89 149.61 C 145.72 149.65 146.42 149.02 146.47 148.19 L 146.52 147.21 C 146.56 146.38 145.93 145.67 145.10 145.63 C 144.27 145.59 143.56 146.22 143.52 147.05 Z M 143.44 148.06 L 143.40 149.06 C 143.37 149.90 144.04 150.61 144.88 150.64 C 145.73 150.67 146.44 150.01 146.46 149.16 L 146.50 148.16 C 146.53 147.32 145.87 146.61 145.02 146.58 C 144.18 146.55 143.47 147.21 143.44 148.06 Z M 143.38 149.11 L 143.38 150.15 C 143.38 151.01 144.07 151.70 144.93 151.70 C 145.79 151.70 146.49 151.01 146.49 150.15 L 146.49 149.11 C 146.49 148.25 145.79 147.56 144.93 147.56 C 144.07 147.56 143.38 148.25 143.38 149.11 Z M 143.37 150.20 L 143.40 151.23 C 143.43 152.09 144.15 152.77 145.01 152.75 C 145.88 152.72 146.55 152.00 146.53 151.14 L 146.50 150.10 C 146.47 149.24 145.75 148.56 144.89 148.58 C 144.02 148.61 143.34 149.33 143.37 150.20 Z M 143.40 151.25 L 143.44 152.20 C 143.48 153.06 144.21 153.73 145.08 153.69 C 145.94 153.65 146.61 152.92 146.57 152.06 L 146.53 151.11 C 146.49 150.25 145.76 149.58 144.90 149.62 C 144.03 149.66 143.36 150.39 143.40 151.25 Z M 143.44 152.19 L 143.49 153.26 C 143.52 154.12 144.25 154.79 145.12 154.76 C 145.98 154.72 146.65 153.99 146.62 153.13 L 146.57 152.06 C 146.53 151.20 145.81 150.53 144.94 150.56 C 144.08 150.60 143.41 151.33 143.44 152.19 Z M 143.48 153.23 L 143.51 154.16 C 143.53 155.03 144.25 155.71 145.12 155.69 C 145.98 155.66 146.66 154.94 146.64 154.08 L 146.62 153.15 C 146.60 152.29 145.88 151.60 145.01 151.63 C 144.15 151.65 143.46 152.37 143.48 153.23 Z M 143.51 154.13 L 143.51 155.12 C 143.52 155.99 144.23 156.69 145.09 156.68 C 145.96 156.67 146.66 155.97 146.65 155.10 L 146.64 154.11 C 146.64 153.24 145.93 152.55 145.06 152.55 C 144.20 152.56 143.50 153.26 143.51 154.13 Z M 143.51 155.11 L 143.51 156.12 C 143.51 156.99 144.22 157.69 145.08 157.69 C 145.95 157.69 146.65 156.99 146.65 156.12 L 146.65 155.11 C 146.65 154.25 145.95 153.54 145.08 153.54 C 144.22 153.54 143.51 154.25 143.51 155.11 Z M 143.51 156.12 L 143.51 157.12 C 143.51 157.99 144.22 158.69 145.08 158.69 C 145.95 158.69 146.65 157.99 146.65 157.12 L 146.65 156.12 C 146.65 155.25 145.95 154.55 145.08 154.55 C 144.22 154.55 143.51 155.25 143.51 156.12 Z M 143.51 157.12 L 143.51 158.13 C 143.51 159.00 144.21 159.70 145.08 159.70 C 145.95 159.70 146.65 159.00 146.65 158.13 L 146.65 157.12 C 146.65 156.26 145.95 155.55 145.08 155.55 C 144.21 155.55 143.51 156.26 143.51 157.12 Z M 143.51 158.13 L 143.51 159.12 C 143.51 159.99 144.21 160.70 145.08 160.70 C 145.95 160.70 146.66 159.99 146.66 159.12 L 146.66 158.13 C 146.66 157.26 145.95 156.56 145.08 156.56 C 144.21 156.56 143.51 157.26 143.51 158.13 Z M 143.51 159.12 L 143.51 160.12 C 143.51 160.99 144.21 161.70 145.08 161.70 C 145.95 161.70 146.66 160.99 146.66 160.12 L 146.66 159.12 C 146.66 158.25 145.95 157.55 145.08 157.55 C 144.21 157.55 143.51 158.25 143.51 159.12 Z M 143.50 160.12 L 143.50 161.10 C 143.50 161.97 144.21 162.68 145.08 162.68 C 145.95 162.68 146.66 161.97 146.66 161.10 L 146.66 160.12 C 146.66 159.25 145.96 158.54 145.08 158.54 C 144.21 158.54 143.50 159.25 143.50 160.12 Z M 143.50 161.08 L 143.49 162.06 C 143.48 162.94 144.18 163.65 145.05 163.67 C 145.92 163.68 146.64 162.98 146.65 162.10 L 146.66 161.12 C 146.67 160.25 145.98 159.53 145.10 159.52 C 144.23 159.51 143.51 160.21 143.50 161.08 Z M 143.49 162.01 L 143.44 163.03 C 143.40 163.90 144.08 164.64 144.95 164.68 C 145.82 164.72 146.56 164.05 146.60 163.17 L 146.65 162.16 C 146.69 161.29 146.02 160.54 145.14 160.50 C 144.27 160.46 143.53 161.14 143.49 162.01 Z M 143.44 162.98 L 143.37 163.99 C 143.30 164.86 143.96 165.62 144.83 165.69 C 145.70 165.75 146.46 165.10 146.53 164.22 L 146.60 163.22 C 146.67 162.35 146.01 161.59 145.14 161.52 C 144.27 161.46 143.51 162.11 143.44 162.98 Z M 143.37 163.97 L 143.28 165.07 C 143.20 165.94 143.85 166.71 144.72 166.78 C 145.59 166.85 146.36 166.21 146.43 165.33 L 146.53 164.24 C 146.60 163.37 145.95 162.60 145.08 162.53 C 144.21 162.45 143.44 163.10 143.37 163.97 Z M 143.27 165.20 L 143.27 166.26 C 143.27 167.13 143.97 167.84 144.85 167.85 C 145.72 167.85 146.43 167.14 146.44 166.27 L 146.44 165.20 C 146.44 164.33 145.73 163.62 144.86 163.62 C 143.98 163.62 143.27 164.32 143.27 165.20 Z M 144.25 167.72 L 144.72 167.92 C 145.53 168.25 146.45 167.86 146.78 167.06 C 147.11 166.25 146.73 165.32 145.92 164.99 L 145.45 164.80 C 144.65 164.47 143.72 164.85 143.39 165.66 C 143.06 166.47 143.44 167.39 144.25 167.72 Z M 146.27 167.70 L 147.19 167.00 C 147.88 166.48 148.01 165.49 147.48 164.80 C 146.95 164.11 145.97 163.98 145.28 164.51 L 144.37 165.21 C 143.68 165.73 143.55 166.72 144.07 167.41 C 144.60 168.10 145.59 168.23 146.27 167.70 Z M 147.28 166.89 L 147.97 166.26 C 148.60 165.68 148.64 164.70 148.06 164.07 C 147.49 163.44 146.51 163.40 145.88 163.98 L 145.19 164.62 C 144.56 165.19 144.52 166.17 145.09 166.80 C 145.67 167.43 146.65 167.47 147.28 166.89 Z M 147.98 166.21 L 148.74 165.47 C 149.34 164.89 149.35 163.93 148.77 163.33 C 148.19 162.73 147.23 162.72 146.63 163.30 L 145.87 164.03 C 145.27 164.62 145.26 165.57 145.84 166.17 C 146.42 166.77 147.38 166.79 147.98 166.21 Z M 148.73 165.43 L 149.47 164.69 C 150.05 164.11 150.05 163.17 149.47 162.59 C 148.89 162.01 147.95 162.01 147.37 162.59 L 146.63 163.34 C 146.05 163.92 146.05 164.86 146.63 165.44 C 147.21 166.02 148.15 166.02 148.73 165.43 Z M 149.47 164.67 L 150.19 163.93 C 150.75 163.36 150.74 162.43 150.17 161.86 C 149.59 161.30 148.66 161.31 148.10 161.88 L 147.38 162.62 C 146.81 163.20 146.82 164.12 147.40 164.69 C 147.97 165.25 148.90 165.25 149.47 164.67 Z M 150.17 163.92 L 150.85 163.23 C 151.41 162.66 151.40 161.74 150.83 161.19 C 150.26 160.63 149.35 160.64 148.79 161.21 L 148.11 161.90 C 147.55 162.47 147.56 163.38 148.13 163.94 C 148.70 164.50 149.62 164.49 150.17 163.92 Z M 150.84 163.22 L 151.58 162.47 C 152.14 161.91 152.13 161.00 151.57 160.45 C 151.01 159.89 150.10 159.89 149.55 160.46 L 148.80 161.21 C 148.25 161.77 148.25 162.68 148.81 163.23 C 149.38 163.79 150.28 163.79 150.84 163.22 Z M 151.58 162.47 L 152.10 161.95 C 152.66 161.39 152.65 160.49 152.10 159.93 C 151.54 159.37 150.64 159.37 150.08 159.93 L 149.56 160.45 C 149.00 161.01 149.00 161.92 149.56 162.47 C 150.11 163.03 151.02 163.03 151.58 162.47 Z"
      fill="black"
      fill-rule="nonzero" /><path d="M 163.51 150.77 L 162.60 151.07 C 161.79 151.34 161.36 152.22 161.63 153.02 C 161.90 153.83 162.77 154.26 163.58 153.99 L 164.49 153.68 C 165.30 153.41 165.73 152.54 165.46 151.73 C 165.19 150.93 164.32 150.50 163.51 150.77 Z M 162.37 151.20 L 161.49 151.68 C 160.75 152.08 160.48 153.00 160.88 153.73 C 161.28 154.46 162.20 154.73 162.93 154.33 L 163.81 153.86 C 164.54 153.46 164.81 152.54 164.41 151.81 C 164.01 151.08 163.10 150.81 162.37 151.20 Z M 161.30 151.82 L 160.52 152.42 C 159.86 152.93 159.74 153.86 160.24 154.52 C 160.74 155.17 161.68 155.30 162.34 154.79 L 163.12 154.19 C 163.77 153.69 163.90 152.75 163.39 152.10 C 162.89 151.44 161.95 151.32 161.30 151.82 Z M 160.48 152.46 L 159.68 153.12 C 159.04 153.64 158.95 154.58 159.47 155.21 C 159.99 155.85 160.93 155.94 161.56 155.42 L 162.37 154.76 C 163.00 154.24 163.10 153.30 162.58 152.66 C 162.05 152.03 161.12 151.94 160.48 152.46 Z M 159.71 153.10 L 158.92 153.72 C 158.27 154.22 158.16 155.15 158.66 155.80 C 159.16 156.44 160.09 156.56 160.74 156.06 L 161.53 155.44 C 162.18 154.94 162.29 154.01 161.79 153.36 C 161.29 152.71 160.35 152.60 159.71 153.10 Z M 158.95 153.70 L 158.15 154.30 C 157.49 154.78 157.36 155.71 157.84 156.36 C 158.33 157.02 159.25 157.15 159.91 156.67 L 160.71 156.07 C 161.36 155.58 161.50 154.66 161.01 154.01 C 160.53 153.35 159.60 153.22 158.95 153.70 Z M 158.17 154.29 L 157.38 154.85 C 156.72 155.33 156.57 156.25 157.04 156.91 C 157.52 157.57 158.44 157.72 159.10 157.25 L 159.89 156.68 C 160.55 156.20 160.70 155.28 160.22 154.62 C 159.75 153.96 158.83 153.81 158.17 154.29 Z M 157.39 154.84 L 156.56 155.42 C 155.90 155.89 155.74 156.81 156.21 157.48 C 156.68 158.15 157.60 158.31 158.26 157.84 L 159.09 157.26 C 159.75 156.79 159.91 155.87 159.45 155.20 C 158.98 154.53 158.05 154.37 157.39 154.84 Z M 156.57 155.41 L 155.73 156.00 C 155.05 156.47 154.89 157.39 155.36 158.06 C 155.82 158.73 156.75 158.90 157.42 158.43 L 158.26 157.85 C 158.93 157.38 159.10 156.45 158.63 155.78 C 158.16 155.11 157.24 154.95 156.57 155.41 Z M 155.71 156.00 L 154.87 156.60 C 154.20 157.07 154.05 158.00 154.52 158.67 C 155.00 159.34 155.93 159.50 156.60 159.02 L 157.44 158.43 C 158.11 157.95 158.26 157.02 157.79 156.35 C 157.31 155.68 156.38 155.52 155.71 156.00 Z M 154.82 156.62 L 154.01 157.24 C 153.35 157.75 153.23 158.69 153.74 159.35 C 154.25 160.01 155.19 160.13 155.85 159.62 L 156.66 159.00 C 157.31 158.49 157.44 157.55 156.93 156.89 C 156.42 156.23 155.48 156.11 154.82 156.62 Z M 153.83 157.37 L 153.06 158.16 C 152.47 158.77 152.49 159.73 153.09 160.32 C 153.70 160.91 154.67 160.90 155.26 160.29 L 156.03 159.50 C 156.62 158.89 156.60 157.92 155.99 157.34 C 155.39 156.75 154.42 156.76 153.83 157.37 Z M 152.62 159.53 L 152.74 160.10 C 152.90 160.95 153.73 161.50 154.58 161.34 C 155.43 161.17 155.98 160.35 155.81 159.50 L 155.70 158.92 C 155.53 158.07 154.71 157.52 153.86 157.69 C 153.01 157.85 152.46 158.68 152.62 159.53 Z M 153.76 161.31 L 154.82 161.67 C 155.66 161.96 156.57 161.52 156.85 160.68 C 157.14 159.85 156.69 158.94 155.86 158.66 L 154.79 158.29 C 153.96 158.00 153.05 158.45 152.76 159.28 C 152.48 160.11 152.92 161.02 153.76 161.31 Z M 154.97 161.73 L 155.94 161.96 C 156.80 162.17 157.67 161.64 157.88 160.77 C 158.09 159.91 157.56 159.04 156.69 158.83 L 155.72 158.60 C 154.85 158.39 153.98 158.93 153.78 159.79 C 153.57 160.66 154.10 161.52 154.97 161.73 Z M 155.93 161.97 L 156.91 162.21 C 157.78 162.42 158.65 161.89 158.86 161.02 C 159.07 160.16 158.54 159.28 157.68 159.07 L 156.70 158.83 C 155.83 158.62 154.96 159.15 154.75 160.02 C 154.54 160.88 155.07 161.76 155.93 161.97 Z M 156.84 162.19 L 157.80 162.47 C 158.66 162.72 159.56 162.23 159.80 161.37 C 160.05 160.51 159.56 159.61 158.70 159.36 L 157.75 159.08 C 156.89 158.84 155.99 159.33 155.74 160.19 C 155.49 161.04 155.99 161.94 156.84 162.19 Z M 157.67 162.43 L 158.60 162.79 C 159.43 163.11 160.37 162.69 160.69 161.86 C 161.01 161.02 160.60 160.09 159.76 159.76 L 158.83 159.41 C 158.00 159.08 157.06 159.50 156.74 160.33 C 156.42 161.17 156.83 162.11 157.67 162.43 Z M 158.48 162.74 L 159.36 163.16 C 160.17 163.55 161.14 163.20 161.52 162.40 C 161.91 161.59 161.57 160.62 160.76 160.24 L 159.88 159.81 C 159.07 159.43 158.10 159.77 157.72 160.57 C 157.33 161.38 157.67 162.35 158.48 162.74 Z M 159.26 163.11 L 160.15 163.61 C 160.93 164.05 161.92 163.78 162.36 163.00 C 162.80 162.23 162.53 161.24 161.75 160.79 L 160.86 160.29 C 160.09 159.85 159.10 160.12 158.65 160.90 C 158.21 161.67 158.48 162.66 159.26 163.11 Z M 160.02 163.53 L 160.84 164.11 C 161.58 164.62 162.59 164.44 163.10 163.71 C 163.61 162.98 163.44 161.97 162.70 161.45 L 161.88 160.88 C 161.15 160.36 160.14 160.54 159.63 161.27 C 159.11 162.00 159.29 163.01 160.02 163.53 Z M 160.68 163.97 L 161.41 164.64 C 162.07 165.24 163.10 165.19 163.70 164.53 C 164.30 163.87 164.25 162.85 163.59 162.25 L 162.86 161.59 C 162.20 160.98 161.18 161.03 160.58 161.69 C 159.98 162.35 160.03 163.37 160.68 163.97 Z M 161.28 164.49 L 161.93 165.26 C 162.51 165.94 163.52 166.02 164.20 165.44 C 164.88 164.87 164.96 163.85 164.38 163.18 L 163.73 162.40 C 163.15 161.73 162.14 161.64 161.46 162.22 C 160.79 162.79 160.70 163.81 161.28 164.49 Z M 161.85 165.12 L 162.42 165.96 C 162.92 166.68 163.91 166.87 164.63 166.37 C 165.36 165.88 165.55 164.89 165.05 164.16 L 164.47 163.32 C 163.98 162.59 162.99 162.41 162.26 162.90 C 161.54 163.40 161.35 164.39 161.85 165.12 Z M 162.35 165.79 L 162.82 166.68 C 163.23 167.45 164.17 167.74 164.94 167.33 C 165.70 166.93 165.99 165.98 165.59 165.22 L 165.12 164.33 C 164.71 163.56 163.77 163.27 163.00 163.68 C 162.24 164.08 161.95 165.03 162.35 165.79 Z M 162.78 166.47 L 163.12 167.40 C 163.41 168.19 164.28 168.59 165.07 168.31 C 165.85 168.02 166.26 167.15 165.97 166.36 L 165.63 165.43 C 165.34 164.64 164.47 164.24 163.69 164.53 C 162.90 164.81 162.50 165.68 162.78 166.47 Z M 163.14 167.30 L 163.26 167.70 C 163.49 168.47 164.31 168.92 165.08 168.69 C 165.86 168.45 166.30 167.64 166.07 166.86 L 165.96 166.46 C 165.72 165.69 164.91 165.24 164.13 165.47 C 163.35 165.70 162.91 166.52 163.14 167.30 Z"
      fill="black"
      fill-rule="nonzero" /></svg>