<svg xmlns="http://www.w3.org/2000/svg" width="300" height="300" viewBox="0 0 300 300">
<path d="M 131.25 134.35 L 132.20 134.23 C 133.05 134.11 133.64 133.33 133.53 132.48 C 133.41 131.63 132.63 131.03 131.78 131.15 L 130.83 131.27 C 129.98 131.39 129.39 132.17 129.50 133.02 C 129.62 133.87 130.40 134.47 131.25 134.35 Z M 132.16 134.23 L 133.19 134.12 C 134.04 134.03 134.66 133.26 134.57 132.41 C 134.48 131.55 133.71 130.93 132.85 131.03 L 131.82 131.14 C 130.97 131.23 130.35 132.00 130.44 132.85 C 130.53 133.71 131.30 134.33 132.16 134.23 Z M 133.13 134.13 L 134.03 134.06 C 134.89 134.00 135.53 133.25 135.47 132.40 C 135.40 131.54 134.66 130.90 133.80 130.96 L 132.91 131.02 C 132.05 131.09 131.41 131.83 131.47 132.69 C 131.53 133.54 132.28 134.19 133.13 134.13 Z M 133.99 134.05 L 134.99 134.01 C 135.84 133.96 136.50 133.24 136.46 132.38 C 136.42 131.53 135.69 130.87 134.84 130.92 L 133.84 130.96 C 132.99 131.01 132.33 131.73 132.37 132.58 C 132.41 133.44 133.14 134.10 133.99 134.05 Z M 134.97 134.00 L 136.07 133.96 C 136.92 133.93 137.59 133.22 137.56 132.37 C 137.53 131.52 136.82 130.86 135.97 130.89 L 134.86 130.92 C 134.01 130.95 133.35 131.66 133.38 132.51 C 133.41 133.36 134.12 134.03 134.97 134.00 Z M 136.06 133.95 L 137.07 133.93 C 137.92 133.91 138.59 133.20 138.57 132.36 C 138.54 131.51 137.84 130.85 137.00 130.87 L 135.98 130.89 C 135.14 130.91 134.47 131.62 134.49 132.46 C 134.51 133.31 135.21 133.97 136.06 133.95 Z M 137.07 133.92 L 138.10 133.90 C 138.94 133.88 139.61 133.19 139.59 132.35 C 139.58 131.50 138.88 130.84 138.04 130.85 L 137.01 130.87 C 136.16 130.89 135.49 131.59 135.51 132.43 C 135.53 133.27 136.22 133.94 137.07 133.92 Z M 138.09 133.89 L 139.07 133.88 C 139.91 133.87 140.58 133.18 140.57 132.34 C 140.56 131.50 139.87 130.83 139.03 130.84 L 138.05 130.86 C 137.21 130.87 136.54 131.56 136.55 132.40 C 136.57 133.24 137.26 133.91 138.09 133.89 Z M 139.07 133.87 L 140.16 133.86 C 140.99 133.85 141.66 133.17 141.65 132.34 C 141.65 131.50 140.96 130.83 140.13 130.84 L 139.04 130.85 C 138.20 130.86 137.53 131.54 137.54 132.38 C 137.55 133.21 138.23 133.88 139.07 133.87 Z M 140.15 133.84 L 141.13 133.84 C 141.96 133.84 142.62 133.17 142.62 132.34 C 142.62 131.52 141.95 130.85 141.12 130.85 L 140.14 130.86 C 139.32 130.86 138.65 131.53 138.65 132.36 C 138.66 133.18 139.33 133.85 140.15 133.84 Z M 141.13 133.82 L 142.05 133.82 C 142.86 133.82 143.52 133.16 143.52 132.35 C 143.52 131.53 142.86 130.87 142.05 130.87 L 141.13 130.87 C 140.31 130.87 139.65 131.53 139.65 132.35 C 139.65 133.16 140.31 133.82 141.13 133.82 Z M 141.99 133.81 L 143.00 133.85 C 143.81 133.88 144.49 133.24 144.51 132.43 C 144.54 131.63 143.91 130.95 143.10 130.92 L 142.10 130.88 C 141.29 130.85 140.61 131.48 140.58 132.29 C 140.55 133.10 141.18 133.78 141.99 133.81 Z M 142.78 133.81 L 143.77 134.00 C 144.56 134.15 145.32 133.63 145.47 132.84 C 145.62 132.05 145.10 131.29 144.31 131.14 L 143.32 130.95 C 142.53 130.80 141.77 131.32 141.62 132.11 C 141.47 132.90 141.99 133.67 142.78 133.81 Z M 143.26 133.79 L 144.07 134.30 C 144.74 134.73 145.63 134.53 146.06 133.86 C 146.49 133.19 146.29 132.29 145.62 131.86 L 144.81 131.35 C 144.14 130.92 143.25 131.12 142.82 131.79 C 142.39 132.46 142.59 133.36 143.26 133.79 Z M 143.46 133.45 L 143.69 134.33 C 143.90 135.09 144.69 135.54 145.45 135.34 C 146.21 135.13 146.67 134.35 146.46 133.58 L 146.23 132.71 C 146.02 131.94 145.23 131.49 144.47 131.70 C 143.70 131.90 143.25 132.69 143.46 133.45 Z M 143.71 133.54 L 143.41 134.52 C 143.18 135.27 143.61 136.07 144.36 136.30 C 145.12 136.53 145.92 136.10 146.15 135.35 L 146.44 134.37 C 146.67 133.61 146.25 132.82 145.49 132.59 C 144.74 132.36 143.94 132.78 143.71 133.54 Z M 143.62 134.11 L 143.07 134.87 C 142.62 135.52 142.77 136.41 143.41 136.86 C 144.05 137.32 144.95 137.17 145.40 136.52 L 145.94 135.76 C 146.40 135.11 146.25 134.22 145.61 133.77 C 144.96 133.31 144.07 133.46 143.62 134.11 Z M 143.22 134.70 L 142.46 135.47 C 141.90 136.03 141.91 136.94 142.47 137.49 C 143.03 138.04 143.94 138.04 144.49 137.47 L 145.25 136.70 C 145.81 136.14 145.80 135.23 145.24 134.68 C 144.68 134.13 143.77 134.13 143.22 134.70 Z M 142.54 135.39 L 141.75 136.07 C 141.15 136.58 141.08 137.48 141.60 138.08 C 142.11 138.68 143.01 138.75 143.61 138.24 L 144.40 137.56 C 145.00 137.04 145.07 136.14 144.56 135.54 C 144.05 134.94 143.14 134.87 142.54 135.39 Z M 141.80 136.02 L 141.00 136.65 C 140.37 137.14 140.26 138.04 140.75 138.66 C 141.24 139.28 142.13 139.39 142.76 138.91 L 143.56 138.28 C 144.19 137.79 144.30 136.89 143.81 136.27 C 143.33 135.65 142.43 135.54 141.80 136.02 Z M 141.03 136.62 L 140.23 137.21 C 139.59 137.68 139.45 138.57 139.91 139.21 C 140.38 139.85 141.27 139.99 141.91 139.52 L 142.72 138.94 C 143.36 138.47 143.50 137.58 143.03 136.94 C 142.57 136.30 141.67 136.16 141.03 136.62 Z M 140.27 137.18 L 139.43 137.75 C 138.77 138.19 138.60 139.08 139.04 139.73 C 139.48 140.39 140.37 140.56 141.03 140.12 L 141.87 139.55 C 142.52 139.11 142.70 138.23 142.26 137.57 C 141.82 136.91 140.93 136.74 140.27 137.18 Z M 139.48 137.71 L 138.69 138.19 C 138.02 138.60 137.80 139.49 138.22 140.16 C 138.63 140.84 139.51 141.05 140.18 140.64 L 140.97 140.16 C 141.65 139.74 141.86 138.86 141.45 138.19 C 141.04 137.51 140.16 137.30 139.48 137.71 Z M 138.72 138.18 L 137.85 138.68 C 137.17 139.08 136.93 139.96 137.33 140.64 C 137.73 141.33 138.61 141.56 139.29 141.16 L 140.16 140.65 C 140.84 140.26 141.08 139.38 140.68 138.69 C 140.28 138.01 139.40 137.78 138.72 138.18 Z M 137.85 138.68 L 137.07 139.13 C 136.38 139.53 136.15 140.41 136.55 141.10 C 136.95 141.78 137.83 142.02 138.51 141.62 L 139.29 141.16 C 139.98 140.76 140.21 139.88 139.81 139.20 C 139.41 138.51 138.53 138.28 137.85 138.68 Z M 137.09 139.11 L 136.16 139.63 C 135.46 140.02 135.21 140.89 135.59 141.59 C 135.98 142.29 136.86 142.54 137.55 142.15 L 138.49 141.64 C 139.18 141.25 139.44 140.37 139.05 139.68 C 138.67 138.98 137.79 138.73 137.09 139.11 Z M 136.19 139.60 L 135.29 140.07 C 134.58 140.43 134.30 141.31 134.67 142.02 C 135.04 142.73 135.91 143.01 136.62 142.64 L 137.52 142.18 C 138.23 141.81 138.51 140.94 138.14 140.23 C 137.78 139.52 136.90 139.24 136.19 139.60 Z M 135.32 140.05 L 134.38 140.50 C 133.66 140.85 133.36 141.72 133.71 142.45 C 134.06 143.17 134.93 143.47 135.66 143.12 L 136.59 142.66 C 137.32 142.31 137.62 141.44 137.27 140.72 C 136.91 139.99 136.04 139.69 135.32 140.05 Z M 134.42 140.47 L 133.44 140.91 C 132.71 141.25 132.38 142.11 132.71 142.85 C 133.04 143.59 133.91 143.92 134.65 143.58 L 135.62 143.15 C 136.36 142.81 136.69 141.95 136.35 141.21 C 136.02 140.47 135.15 140.14 134.42 140.47 Z M 133.50 140.87 L 132.47 141.28 C 131.71 141.58 131.34 142.44 131.64 143.20 C 131.94 143.96 132.79 144.33 133.56 144.03 L 134.59 143.63 C 135.35 143.33 135.72 142.47 135.42 141.71 C 135.12 140.95 134.26 140.57 133.50 140.87 Z M 133.35 144.11 L 133.69 144.03 C 134.49 143.85 134.99 143.04 134.80 142.24 C 134.61 141.43 133.81 140.93 133.00 141.12 L 132.67 141.20 C 131.87 141.39 131.37 142.19 131.56 143.00 C 131.74 143.80 132.55 144.30 133.35 144.11 Z M 133.71 144.04 L 134.95 143.73 C 135.76 143.52 136.25 142.70 136.05 141.90 C 135.84 141.09 135.02 140.60 134.22 140.81 L 132.98 141.12 C 132.17 141.32 131.68 142.14 131.88 142.95 C 132.09 143.75 132.91 144.24 133.71 144.04 Z M 134.92 143.74 L 135.82 143.53 C 136.63 143.35 137.14 142.54 136.95 141.73 C 136.77 140.92 135.96 140.41 135.15 140.59 L 134.25 140.79 C 133.44 140.98 132.93 141.79 133.11 142.60 C 133.30 143.41 134.11 143.92 134.92 143.74 Z M 135.79 143.54 L 136.80 143.33 C 137.62 143.16 138.14 142.36 137.97 141.55 C 137.80 140.73 137.00 140.21 136.19 140.38 L 135.18 140.59 C 134.36 140.76 133.84 141.55 134.01 142.37 C 134.18 143.18 134.97 143.71 135.79 143.54 Z M 136.77 143.33 L 137.84 143.13 C 138.66 142.98 139.20 142.20 139.05 141.38 C 138.90 140.56 138.11 140.02 137.29 140.17 L 136.22 140.37 C 135.40 140.52 134.86 141.31 135.01 142.13 C 135.17 142.94 135.95 143.48 136.77 143.33 Z M 137.80 143.14 L 138.87 142.97 C 139.69 142.84 140.25 142.07 140.12 141.25 C 139.99 140.43 139.22 139.87 138.40 140.00 L 137.33 140.17 C 136.51 140.30 135.95 141.07 136.08 141.89 C 136.21 142.71 136.98 143.27 137.80 143.14 Z M 138.84 142.97 L 139.87 142.83 C 140.69 142.72 141.26 141.96 141.15 141.14 C 141.04 140.32 140.28 139.75 139.46 139.86 L 138.43 140.00 C 137.61 140.11 137.04 140.87 137.15 141.69 C 137.26 142.51 138.02 143.08 138.84 142.97 Z M 139.84 142.83 L 140.79 142.71 C 141.61 142.61 142.19 141.87 142.10 141.05 C 142.00 140.23 141.25 139.65 140.44 139.75 L 139.49 139.86 C 138.67 139.96 138.09 140.70 138.18 141.52 C 138.28 142.34 139.03 142.92 139.84 142.83 Z M 140.77 142.71 L 141.80 142.60 C 142.61 142.52 143.21 141.79 143.12 140.97 C 143.04 140.15 142.31 139.56 141.49 139.64 L 140.46 139.75 C 139.64 139.83 139.05 140.57 139.13 141.38 C 139.22 142.20 139.95 142.80 140.77 142.71 Z M 141.76 142.60 L 142.75 142.52 C 143.57 142.46 144.18 141.74 144.11 140.92 C 144.05 140.10 143.33 139.49 142.51 139.56 L 141.52 139.64 C 140.70 139.71 140.09 140.42 140.16 141.24 C 140.23 142.06 140.94 142.67 141.76 142.60 Z M 142.70 142.53 L 143.61 142.48 C 144.43 142.45 145.06 141.75 145.02 140.94 C 144.99 140.12 144.29 139.48 143.47 139.52 L 142.57 139.56 C 141.75 139.60 141.11 140.29 141.15 141.11 C 141.19 141.93 141.88 142.56 142.70 142.53 Z M 143.55 142.48 L 144.55 142.47 C 145.37 142.47 146.02 141.80 146.02 140.98 C 146.01 140.17 145.34 139.51 144.53 139.51 L 143.53 139.52 C 142.71 139.53 142.06 140.20 142.06 141.01 C 142.07 141.83 142.74 142.49 143.55 142.48 Z M 144.49 142.47 L 145.55 142.51 C 146.36 142.53 147.04 141.90 147.07 141.08 C 147.10 140.27 146.46 139.58 145.65 139.56 L 144.59 139.52 C 143.77 139.49 143.09 140.13 143.06 140.94 C 143.03 141.76 143.67 142.44 144.49 142.47 Z M 145.07 142.41 L 145.92 142.73 C 146.68 143.02 147.53 142.64 147.82 141.88 C 148.11 141.12 147.73 140.26 146.97 139.97 L 146.12 139.65 C 145.36 139.36 144.51 139.74 144.22 140.51 C 143.93 141.27 144.31 142.12 145.07 142.41 Z M 145.00 141.66 L 145.17 142.46 C 145.33 143.26 146.12 143.78 146.92 143.61 C 147.71 143.44 148.23 142.66 148.06 141.86 L 147.89 141.05 C 147.73 140.25 146.94 139.74 146.14 139.91 C 145.35 140.07 144.83 140.86 145.00 141.66 Z M 145.21 141.71 L 144.86 142.77 C 144.61 143.55 145.04 144.38 145.81 144.64 C 146.59 144.89 147.43 144.46 147.68 143.68 L 148.02 142.62 C 148.27 141.84 147.85 141.01 147.07 140.75 C 146.29 140.50 145.46 140.93 145.21 141.71 Z M 144.98 142.49 L 144.49 143.36 C 144.08 144.07 144.33 144.98 145.04 145.38 C 145.75 145.79 146.65 145.54 147.06 144.83 L 147.56 143.96 C 147.96 143.25 147.72 142.35 147.00 141.94 C 146.29 141.54 145.39 141.78 144.98 142.49 Z M 144.55 143.26 L 143.97 144.10 C 143.51 144.77 143.68 145.69 144.35 146.16 C 145.03 146.62 145.95 146.45 146.41 145.78 L 146.99 144.94 C 147.46 144.26 147.29 143.34 146.61 142.88 C 145.94 142.41 145.02 142.58 144.55 143.26 Z M 144.01 144.05 L 143.40 144.87 C 142.91 145.53 143.04 146.45 143.70 146.94 C 144.35 147.43 145.28 147.30 145.77 146.64 L 146.38 145.82 C 146.87 145.17 146.73 144.24 146.08 143.75 C 145.43 143.26 144.50 143.40 144.01 144.05 Z M 143.44 144.83 L 142.82 145.58 C 142.31 146.21 142.41 147.14 143.04 147.66 C 143.67 148.17 144.60 148.07 145.11 147.44 L 145.73 146.69 C 146.24 146.05 146.14 145.13 145.51 144.61 C 144.88 144.10 143.95 144.20 143.44 144.83 Z M 142.88 145.53 L 142.23 146.24 C 141.69 146.84 141.74 147.77 142.34 148.31 C 142.94 148.86 143.86 148.81 144.41 148.21 L 145.05 147.50 C 145.60 146.90 145.55 145.97 144.95 145.42 C 144.35 144.88 143.42 144.93 142.88 145.53 Z M 142.31 146.18 L 141.59 146.87 C 141.01 147.43 141.00 148.36 141.56 148.94 C 142.12 149.51 143.04 149.53 143.62 148.97 L 144.34 148.27 C 144.92 147.71 144.93 146.79 144.37 146.21 C 143.81 145.63 142.88 145.62 142.31 146.18 Z M 141.69 146.80 L 140.89 147.45 C 140.27 147.96 140.18 148.87 140.69 149.49 C 141.19 150.11 142.11 150.20 142.73 149.69 L 143.52 149.04 C 144.14 148.53 144.23 147.62 143.73 147.00 C 143.22 146.38 142.31 146.29 141.69 146.80 Z M 141.00 147.38 L 140.18 147.94 C 139.52 148.39 139.35 149.29 139.80 149.94 C 140.25 150.60 141.15 150.77 141.81 150.32 L 142.62 149.76 C 143.28 149.31 143.45 148.41 143.00 147.76 C 142.55 147.10 141.65 146.93 141.00 147.38 Z M 140.24 147.91 L 139.38 148.44 C 138.71 148.85 138.50 149.73 138.91 150.41 C 139.33 151.08 140.21 151.29 140.88 150.88 L 141.74 150.35 C 142.42 149.94 142.63 149.05 142.21 148.38 C 141.80 147.70 140.92 147.49 140.24 147.91 Z M 139.40 148.43 L 139.08 148.62 C 138.41 149.02 138.18 149.90 138.59 150.58 C 138.99 151.26 139.87 151.48 140.55 151.08 L 140.86 150.89 C 141.54 150.48 141.76 149.60 141.36 148.93 C 140.96 148.25 140.08 148.03 139.40 148.43 Z"
      fill="black"
      fill-rule="nonzero" /><path d="M 134.63 134.40 L 134.63 135.47 C 134.63 136.30 135.30 136.96 136.12 136.96 C 136.95 136.96 137.62 136.29 137.62 135.47 L 137.62 134.40 C 137.62 133.57 136.95 132.91 136.12 132.91 C 135.30 132.91 134.63 133.57 134.63 134.40 Z M 134.60 135.47 L 134.60 136.49 C 134.60 137.34 135.29 138.02 136.13 138.02 C 136.98 138.01 137.66 137.33 137.66 136.48 L 137.65 135.47 C 137.65 134.62 136.96 133.94 136.12 133.94 C 135.28 133.94 134.59 134.63 134.60 135.47 Z M 134.56 136.50 L 134.57 137.41 C 134.58 138.28 135.28 138.97 136.15 138.97 C 137.01 138.96 137.71 138.25 137.70 137.39 L 137.69 136.47 C 137.68 135.61 136.98 134.92 136.11 134.92 C 135.25 134.93 134.56 135.64 134.56 136.50 Z M 134.55 137.43 L 134.57 138.49 C 134.59 139.37 135.31 140.06 136.19 140.04 C 137.06 140.02 137.75 139.30 137.74 138.43 L 137.72 137.37 C 137.70 136.50 136.98 135.80 136.10 135.82 C 135.23 135.84 134.54 136.56 134.55 137.43 Z M 134.57 138.51 L 134.60 139.45 C 134.63 140.32 135.36 141.01 136.23 140.98 C 137.10 140.96 137.79 140.23 137.76 139.35 L 137.74 138.41 C 137.71 137.54 136.98 136.85 136.11 136.88 C 135.23 136.91 134.55 137.63 134.57 138.51 Z M 134.60 139.45 L 134.63 140.40 C 134.66 141.27 135.39 141.96 136.26 141.93 C 137.14 141.91 137.82 141.18 137.79 140.30 L 137.77 139.35 C 137.74 138.48 137.01 137.79 136.14 137.82 C 135.26 137.85 134.58 138.58 134.60 139.45 Z M 134.63 140.41 L 134.67 141.43 C 134.70 142.31 135.43 142.99 136.30 142.96 C 137.18 142.93 137.86 142.20 137.83 141.32 L 137.79 140.30 C 137.76 139.43 137.03 138.74 136.16 138.77 C 135.29 138.80 134.60 139.53 134.63 140.41 Z M 134.67 141.45 L 134.71 142.43 C 134.75 143.30 135.49 143.98 136.36 143.94 C 137.23 143.90 137.91 143.16 137.87 142.29 L 137.83 141.31 C 137.79 140.44 137.05 139.76 136.18 139.80 C 135.31 139.84 134.63 140.57 134.67 141.45 Z M 134.71 142.44 L 134.76 143.43 C 134.80 144.30 135.55 144.97 136.42 144.93 C 137.29 144.89 137.96 144.14 137.92 143.27 L 137.87 142.28 C 137.83 141.41 137.09 140.74 136.21 140.78 C 135.34 140.82 134.67 141.56 134.71 142.44 Z M 134.76 143.43 L 134.81 144.46 C 134.85 145.33 135.60 146.01 136.47 145.96 C 137.34 145.92 138.01 145.18 137.97 144.31 L 137.92 143.27 C 137.88 142.40 137.14 141.73 136.26 141.77 C 135.39 141.81 134.72 142.55 134.76 143.43 Z M 134.81 144.46 L 134.86 145.43 C 134.89 146.30 135.63 146.97 136.50 146.93 C 137.38 146.90 138.05 146.16 138.01 145.29 L 137.97 144.32 C 137.93 143.44 137.19 142.77 136.32 142.81 C 135.45 142.85 134.77 143.58 134.81 144.46 Z M 134.86 145.42 L 134.90 146.43 C 134.93 147.30 135.66 147.98 136.54 147.94 C 137.41 147.91 138.09 147.18 138.05 146.30 L 138.01 145.29 C 137.98 144.42 137.24 143.74 136.37 143.78 C 135.50 143.81 134.82 144.55 134.86 145.42 Z M 134.90 146.42 L 134.93 147.44 C 134.96 148.32 135.69 149.00 136.56 148.97 C 137.43 148.94 138.12 148.21 138.09 147.34 L 138.05 146.31 C 138.02 145.44 137.29 144.76 136.42 144.79 C 135.55 144.82 134.87 145.55 134.90 146.42 Z M 134.93 147.44 L 134.96 148.43 C 134.99 149.30 135.71 149.99 136.58 149.96 C 137.46 149.94 138.14 149.21 138.12 148.34 L 138.09 147.34 C 138.06 146.47 137.33 145.79 136.46 145.81 C 135.59 145.84 134.91 146.56 134.93 147.44 Z M 134.96 148.42 L 134.99 149.42 C 135.01 150.29 135.73 150.98 136.60 150.96 C 137.47 150.94 138.16 150.21 138.14 149.34 L 138.11 148.34 C 138.09 147.47 137.37 146.79 136.50 146.81 C 135.63 146.83 134.94 147.55 134.96 148.42 Z M 134.99 149.42 L 135.01 150.43 C 135.03 151.29 135.75 151.98 136.62 151.96 C 137.49 151.94 138.18 151.22 138.16 150.35 L 138.14 149.35 C 138.12 148.48 137.40 147.79 136.53 147.81 C 135.66 147.83 134.97 148.55 134.99 149.42 Z M 135.01 150.42 L 135.04 151.42 C 135.05 152.28 135.77 152.97 136.64 152.95 C 137.51 152.94 138.20 152.22 138.18 151.35 L 138.16 150.36 C 138.14 149.49 137.42 148.80 136.55 148.82 C 135.68 148.84 135.00 149.55 135.01 150.42 Z M 135.04 151.41 L 135.06 152.41 C 135.07 153.28 135.79 153.97 136.66 153.95 C 137.53 153.94 138.22 153.22 138.20 152.35 L 138.18 151.35 C 138.16 150.48 137.44 149.79 136.58 149.81 C 135.71 149.83 135.02 150.55 135.04 151.41 Z M 135.06 152.41 L 135.08 153.42 C 135.10 154.29 135.81 154.98 136.68 154.96 C 137.55 154.94 138.23 154.22 138.22 153.36 L 138.20 152.35 C 138.18 151.48 137.46 150.80 136.60 150.81 C 135.73 150.83 135.04 151.55 135.06 152.41 Z M 135.08 153.42 L 135.10 154.42 C 135.12 155.29 135.83 155.98 136.70 155.96 C 137.56 155.94 138.25 155.23 138.24 154.36 L 138.22 153.36 C 138.20 152.49 137.48 151.80 136.62 151.82 C 135.75 151.84 135.06 152.55 135.08 153.42 Z M 135.10 154.42 L 135.12 155.42 C 135.13 156.29 135.85 156.98 136.71 156.96 C 137.58 156.95 138.27 156.23 138.25 155.37 L 138.24 154.36 C 138.22 153.50 137.51 152.81 136.64 152.82 C 135.77 152.84 135.08 153.55 135.10 154.42 Z M 135.12 155.42 L 135.13 156.41 C 135.14 157.28 135.85 157.97 136.72 157.96 C 137.59 157.95 138.28 157.24 138.27 156.37 L 138.25 155.37 C 138.24 154.51 137.53 153.81 136.66 153.83 C 135.80 153.84 135.10 154.55 135.12 155.42 Z M 135.13 156.41 L 135.14 157.42 C 135.15 158.28 135.85 158.98 136.72 158.97 C 137.59 158.96 138.28 158.26 138.28 157.39 L 138.27 156.38 C 138.26 155.51 137.55 154.82 136.68 154.82 C 135.82 154.83 135.12 155.54 135.13 156.41 Z M 135.14 157.41 L 135.14 158.42 C 135.15 159.28 135.85 159.98 136.72 159.98 C 137.58 159.97 138.28 159.27 138.28 158.40 L 138.28 157.40 C 138.27 156.53 137.57 155.83 136.70 155.83 C 135.83 155.84 135.14 156.54 135.14 157.41 Z M 135.14 158.41 L 135.14 159.40 C 135.14 160.27 135.85 160.97 136.71 160.97 C 137.58 160.97 138.28 160.26 138.28 159.40 L 138.28 158.41 C 138.28 157.54 137.58 156.84 136.71 156.84 C 135.84 156.84 135.14 157.54 135.14 158.41 Z M 135.14 159.40 L 135.14 160.39 C 135.14 161.26 135.85 161.96 136.71 161.96 C 137.58 161.96 138.28 161.26 138.28 160.39 L 138.28 159.40 C 138.28 158.53 137.58 157.83 136.71 157.83 C 135.85 157.83 135.14 158.53 135.14 159.40 Z M 135.15 160.39 L 135.15 161.39 C 135.15 162.26 135.85 162.96 136.71 162.96 C 137.58 162.96 138.28 162.26 138.28 161.39 L 138.28 160.39 C 138.28 159.53 137.58 158.83 136.71 158.83 C 135.85 158.83 135.15 159.53 135.15 160.39 Z M 135.15 161.39 L 135.15 162.39 C 135.15 163.25 135.85 163.95 136.71 163.95 C 137.58 163.95 138.28 163.25 138.28 162.39 L 138.28 161.39 C 138.28 160.53 137.58 159.83 136.71 159.83 C 135.85 159.83 135.15 160.53 135.15 161.39 Z M 135.15 162.39 L 135.15 163.42 C 135.15 164.28 135.85 164.98 136.71 164.98 C 137.57 164.98 138.27 164.28 138.27 163.42 L 138.27 162.39 C 138.27 161.53 137.57 160.83 136.71 160.83 C 135.85 160.83 135.15 161.53 135.15 162.39 Z M 135.16 163.42 L 135.16 164.45 C 135.16 165.31 135.85 166.01 136.71 166.01 C 137.57 166.01 138.27 165.31 138.27 164.45 L 138.27 163.42 C 138.27 162.56 137.57 161.86 136.71 161.86 C 135.85 161.86 135.16 162.56 135.16 163.42 Z M 135.16 164.45 L 135.16 165.41 C 135.16 166.27 135.85 166.96 136.71 166.96 C 137.57 166.96 138.26 166.27 138.26 165.41 L 138.26 164.45 C 138.26 163.59 137.57 162.90 136.71 162.90 C 135.85 162.90 135.16 163.59 135.16 164.45 Z M 135.16 165.41 L 135.16 166.48 C 135.16 167.34 135.86 168.03 136.71 168.03 C 137.57 168.03 138.26 167.34 138.26 166.48 L 138.26 165.41 C 138.26 164.55 137.57 163.86 136.71 163.86 C 135.86 163.86 135.16 164.55 135.16 165.41 Z M 135.17 166.48 L 135.17 167.43 C 135.17 168.28 135.86 168.97 136.71 168.97 C 137.56 168.97 138.25 168.28 138.25 167.43 L 138.25 166.48 C 138.25 165.63 137.56 164.94 136.71 164.94 C 135.86 164.94 135.17 165.63 135.17 166.48 Z M 135.18 167.43 L 135.18 168.40 C 135.18 169.25 135.86 169.94 136.71 169.94 C 137.56 169.94 138.25 169.25 138.25 168.40 L 138.25 167.43 C 138.25 166.58 137.56 165.89 136.71 165.89 C 135.86 165.89 135.18 166.58 135.18 167.43 Z M 135.18 168.40 L 135.18 169.42 C 135.18 170.26 135.87 170.95 136.71 170.95 C 137.56 170.95 138.24 170.26 138.24 169.42 L 138.24 168.40 C 138.24 167.56 137.56 166.87 136.71 166.87 C 135.87 166.87 135.18 167.56 135.18 168.40 Z M 135.21 169.60 L 135.32 170.55 C 135.42 171.38 136.18 171.97 137.01 171.87 C 137.84 171.77 138.43 171.02 138.33 170.18 L 138.22 169.24 C 138.12 168.41 137.36 167.81 136.53 167.91 C 135.70 168.01 135.10 168.77 135.21 169.60 Z M 138.09 171.17 L 138.42 170.66 C 138.87 169.96 138.66 169.03 137.96 168.59 C 137.27 168.14 136.34 168.35 135.89 169.04 L 135.56 169.56 C 135.12 170.26 135.32 171.18 136.02 171.63 C 136.72 172.08 137.64 171.87 138.09 171.17 Z M 138.53 170.40 L 138.97 169.27 C 139.27 168.52 138.90 167.66 138.14 167.36 C 137.39 167.06 136.53 167.43 136.23 168.19 L 135.78 169.31 C 135.48 170.07 135.86 170.92 136.61 171.22 C 137.37 171.52 138.23 171.15 138.53 170.40 Z M 138.97 169.24 L 139.07 168.98 C 139.35 168.22 138.97 167.38 138.21 167.10 C 137.46 166.81 136.62 167.20 136.33 167.95 L 136.23 168.21 C 135.95 168.97 136.33 169.81 137.09 170.10 C 137.84 170.38 138.68 170.00 138.97 169.24 Z"
      fill="black"
      fill-rule="nonzero" /><path d="M 160.99 122.89 L 160.14 123.41 C 159.44 123.84 159.22 124.75 159.65 125.45 C 160.07 126.15 160.99 126.37 161.69 125.94 L 162.54 125.42 C 163.23 124.99 163.45 124.08 163.03 123.38 C 162.60 122.68 161.69 122.46 160.99 122.89 Z M 160.04 123.44 L 159.22 124.02 C 158.54 124.51 158.38 125.45 158.86 126.13 C 159.35 126.81 160.29 126.97 160.97 126.49 L 161.79 125.90 C 162.47 125.42 162.63 124.48 162.14 123.80 C 161.66 123.12 160.72 122.96 160.04 123.44 Z M 159.07 124.11 L 158.32 124.77 C 157.69 125.34 157.63 126.31 158.19 126.94 C 158.76 127.58 159.73 127.64 160.37 127.07 L 161.12 126.41 C 161.75 125.84 161.81 124.87 161.24 124.23 C 160.68 123.60 159.71 123.54 159.07 124.11 Z M 158.19 124.88 L 157.53 125.60 C 156.95 126.24 157.00 127.22 157.64 127.80 C 158.28 128.38 159.26 128.33 159.84 127.69 L 160.50 126.97 C 161.08 126.33 161.03 125.35 160.39 124.77 C 159.75 124.19 158.77 124.24 158.19 124.88 Z M 157.44 125.70 L 156.83 126.50 C 156.31 127.19 156.44 128.17 157.13 128.69 C 157.82 129.21 158.80 129.08 159.32 128.39 L 159.93 127.60 C 160.45 126.91 160.32 125.93 159.63 125.41 C 158.95 124.88 157.97 125.01 157.44 125.70 Z M 156.80 126.55 L 156.25 127.32 C 155.76 128.03 155.92 129.00 156.63 129.50 C 157.34 130.00 158.31 129.83 158.81 129.12 L 159.35 128.35 C 159.85 127.64 159.68 126.67 158.98 126.17 C 158.27 125.67 157.30 125.84 156.80 126.55 Z M 156.23 127.35 L 155.66 128.21 C 155.18 128.93 155.37 129.90 156.09 130.38 C 156.81 130.86 157.78 130.67 158.26 129.95 L 158.83 129.09 C 159.31 128.37 159.12 127.40 158.40 126.92 C 157.68 126.44 156.71 126.64 156.23 127.35 Z M 155.64 128.24 L 155.07 129.13 C 154.61 129.86 154.83 130.83 155.56 131.29 C 156.29 131.75 157.26 131.53 157.72 130.80 L 158.28 129.92 C 158.74 129.19 158.52 128.22 157.79 127.76 C 157.06 127.29 156.10 127.51 155.64 128.24 Z M 155.06 129.15 L 154.53 130.03 C 154.08 130.77 154.31 131.73 155.05 132.18 C 155.79 132.63 156.75 132.39 157.20 131.65 L 157.73 130.78 C 158.18 130.04 157.95 129.08 157.21 128.63 C 156.47 128.18 155.51 128.41 155.06 129.15 Z M 154.52 130.05 L 154.01 130.92 C 153.57 131.66 153.82 132.62 154.56 133.06 C 155.31 133.50 156.27 133.25 156.70 132.50 L 157.21 131.63 C 157.65 130.89 157.40 129.93 156.66 129.49 C 155.91 129.06 154.95 129.31 154.52 130.05 Z M 154.00 130.94 L 153.52 131.80 C 153.09 132.54 153.35 133.49 154.10 133.92 C 154.85 134.34 155.80 134.08 156.22 133.33 L 156.71 132.48 C 157.13 131.73 156.87 130.78 156.12 130.36 C 155.38 129.93 154.43 130.19 154.00 130.94 Z M 153.53 131.80 L 153.05 132.64 C 152.63 133.38 152.89 134.32 153.63 134.74 C 154.37 135.16 155.31 134.91 155.73 134.17 L 156.21 133.33 C 156.63 132.59 156.37 131.65 155.63 131.23 C 154.89 130.80 153.95 131.06 153.53 131.80 Z M 153.07 132.63 L 152.56 133.49 C 152.14 134.23 152.38 135.16 153.11 135.59 C 153.84 136.02 154.78 135.77 155.21 135.04 L 155.71 134.18 C 156.14 133.44 155.90 132.51 155.16 132.08 C 154.43 131.65 153.50 131.90 153.07 132.63 Z M 152.57 133.49 L 152.06 134.36 C 151.63 135.08 151.87 136.02 152.59 136.45 C 153.32 136.88 154.25 136.64 154.68 135.91 L 155.20 135.05 C 155.63 134.32 155.39 133.38 154.66 132.96 C 153.94 132.53 153.00 132.77 152.57 133.49 Z M 152.05 134.38 L 151.56 135.24 C 151.14 135.97 151.39 136.90 152.12 137.32 C 152.85 137.74 153.78 137.48 154.20 136.75 L 154.69 135.89 C 155.11 135.17 154.86 134.24 154.13 133.82 C 153.40 133.40 152.47 133.65 152.05 134.38 Z M 151.55 135.27 L 151.07 136.14 C 150.66 136.87 150.93 137.79 151.66 138.20 C 152.40 138.60 153.32 138.33 153.72 137.60 L 154.20 136.73 C 154.61 136.00 154.34 135.08 153.61 134.67 C 152.88 134.27 151.95 134.53 151.55 135.27 Z M 151.08 136.15 L 150.63 136.96 C 150.24 137.69 150.51 138.60 151.23 139.00 C 151.96 139.40 152.87 139.13 153.27 138.40 L 153.71 137.59 C 154.11 136.86 153.84 135.95 153.11 135.55 C 152.38 135.16 151.47 135.43 151.08 136.15 Z M 150.63 137.00 L 150.15 137.93 C 149.77 138.66 150.05 139.55 150.78 139.93 C 151.51 140.31 152.41 140.03 152.78 139.30 L 153.27 138.37 C 153.65 137.64 153.36 136.74 152.64 136.36 C 151.91 135.99 151.01 136.27 150.63 137.00 Z M 150.15 137.96 L 149.72 138.82 C 149.36 139.55 149.66 140.43 150.39 140.79 C 151.12 141.15 152.00 140.86 152.36 140.13 L 152.79 139.27 C 153.15 138.54 152.85 137.66 152.12 137.30 C 151.39 136.94 150.51 137.23 150.15 137.96 Z M 149.72 138.84 L 149.27 139.78 C 148.92 140.51 149.23 141.39 149.95 141.74 C 150.68 142.09 151.56 141.78 151.91 141.05 L 152.36 140.11 C 152.71 139.38 152.40 138.51 151.68 138.16 C 150.95 137.81 150.07 138.11 149.72 138.84 Z M 149.27 139.80 L 148.83 140.73 C 148.49 141.46 148.80 142.33 149.53 142.67 C 150.26 143.01 151.13 142.70 151.47 141.97 L 151.91 141.04 C 152.25 140.31 151.94 139.44 151.21 139.10 C 150.48 138.75 149.61 139.07 149.27 139.80 Z M 148.82 140.74 L 148.40 141.64 C 148.06 142.38 148.38 143.25 149.12 143.59 C 149.85 143.93 150.72 143.61 151.06 142.87 L 151.48 141.96 C 151.82 141.23 151.50 140.36 150.76 140.02 C 150.03 139.68 149.16 140.00 148.82 140.74 Z M 148.39 141.65 L 148.03 142.43 C 147.70 143.17 148.02 144.04 148.76 144.38 C 149.50 144.72 150.38 144.39 150.71 143.65 L 151.07 142.87 C 151.41 142.13 151.08 141.26 150.34 140.92 C 149.60 140.58 148.73 140.91 148.39 141.65 Z"
      fill="black"
      fill-rule="nonzero" /><path d="M 161.72 128.15 L 162.66 128.21 C 163.47 128.27 164.18 127.65 164.24 126.84 C 164.29 126.02 163.67 125.32 162.86 125.26 L 161.92 125.20 C 161.11 125.14 160.40 125.76 160.35 126.57 C 160.29 127.39 160.91 128.10 161.72 128.15 Z M 162.45 128.19 L 163.45 128.41 C 164.26 128.58 165.05 128.07 165.22 127.27 C 165.39 126.46 164.88 125.67 164.08 125.50 L 163.07 125.28 C 162.27 125.11 161.48 125.62 161.30 126.43 C 161.13 127.23 161.64 128.02 162.45 128.19 Z M 163.28 128.37 L 164.22 128.69 C 165.00 128.96 165.85 128.55 166.12 127.77 C 166.39 126.99 165.98 126.14 165.19 125.87 L 164.25 125.54 C 163.47 125.27 162.62 125.68 162.35 126.47 C 162.08 127.25 162.50 128.10 163.28 128.37 Z M 164.13 128.67 L 165.09 129.06 C 165.86 129.38 166.74 129.01 167.05 128.24 C 167.37 127.48 167.00 126.60 166.24 126.28 L 165.28 125.89 C 164.51 125.58 163.63 125.94 163.32 126.71 C 163.00 127.48 163.37 128.35 164.13 128.67 Z M 165.05 129.04 L 165.98 129.46 C 166.73 129.80 167.62 129.46 167.96 128.71 C 168.30 127.95 167.96 127.07 167.21 126.73 L 166.28 126.31 C 165.53 125.97 164.64 126.31 164.30 127.06 C 163.96 127.81 164.30 128.70 165.05 129.04 Z M 165.96 129.43 L 166.84 129.85 C 167.58 130.20 168.47 129.89 168.82 129.15 C 169.17 128.41 168.86 127.53 168.12 127.17 L 167.23 126.75 C 166.49 126.40 165.60 126.71 165.25 127.45 C 164.90 128.19 165.22 129.08 165.96 129.43 Z M 166.84 129.83 L 167.73 130.26 C 168.46 130.62 169.34 130.31 169.69 129.58 C 170.04 128.85 169.74 127.98 169.01 127.62 L 168.12 127.19 C 167.39 126.84 166.51 127.15 166.16 127.87 C 165.81 128.60 166.11 129.48 166.84 129.83 Z M 167.74 130.25 L 168.64 130.69 C 169.36 131.03 170.23 130.73 170.58 130.01 C 170.93 129.29 170.63 128.43 169.91 128.08 L 169.00 127.64 C 168.28 127.29 167.42 127.59 167.07 128.31 C 166.72 129.03 167.02 129.90 167.74 130.25 Z M 168.65 130.67 L 169.04 130.86 C 169.76 131.21 170.61 130.91 170.96 130.20 C 171.31 129.49 171.01 128.63 170.30 128.28 L 169.90 128.09 C 169.19 127.75 168.33 128.04 167.98 128.76 C 167.64 129.47 167.94 130.33 168.65 130.67 Z"
      fill="black"
      fill-rule="nonzero" /><path d="M 154.47 136.64 L 155.43 136.75 C 156.27 136.84 157.03 136.24 157.12 135.40 C 157.22 134.55 156.61 133.79 155.77 133.70 L 154.81 133.59 C 153.97 133.50 153.21 134.11 153.12 134.95 C 153.02 135.79 153.63 136.55 154.47 136.64 Z M 155.50 136.77 L 156.50 136.84 C 157.36 136.90 158.09 136.25 158.15 135.40 C 158.21 134.54 157.56 133.81 156.71 133.75 L 155.70 133.68 C 154.85 133.62 154.11 134.27 154.05 135.12 C 154.00 135.97 154.64 136.71 155.50 136.77 Z M 156.57 136.84 L 157.53 136.86 C 158.38 136.87 159.09 136.20 159.11 135.35 C 159.13 134.50 158.45 133.79 157.60 133.77 L 156.64 133.75 C 155.79 133.73 155.08 134.41 155.06 135.26 C 155.05 136.11 155.72 136.82 156.57 136.84 Z M 157.56 136.83 L 158.63 136.84 C 159.47 136.84 160.15 136.16 160.15 135.32 C 160.15 134.48 159.47 133.80 158.64 133.80 L 157.57 133.80 C 156.73 133.79 156.05 134.47 156.05 135.31 C 156.04 136.15 156.72 136.83 157.56 136.83 Z M 158.63 136.81 L 159.58 136.81 C 160.41 136.81 161.08 136.14 161.08 135.32 C 161.08 134.49 160.41 133.82 159.58 133.82 L 158.63 133.82 C 157.80 133.82 157.13 134.49 157.13 135.32 C 157.13 136.14 157.80 136.81 158.63 136.81 Z M 159.58 136.80 L 160.59 136.80 C 161.41 136.80 162.07 136.13 162.07 135.32 C 162.07 134.50 161.41 133.84 160.59 133.84 L 159.58 133.84 C 158.76 133.84 158.10 134.50 158.10 135.32 C 158.10 136.13 158.76 136.80 159.58 136.80 Z M 160.59 136.78 L 161.63 136.78 C 162.44 136.78 163.09 136.13 163.09 135.32 C 163.09 134.51 162.44 133.85 161.63 133.85 L 160.59 133.85 C 159.78 133.85 159.13 134.51 159.13 135.32 C 159.13 136.13 159.78 136.78 160.59 136.78 Z M 161.63 136.77 L 162.63 136.77 C 163.43 136.77 164.08 136.12 164.08 135.32 C 164.08 134.52 163.43 133.86 162.63 133.86 L 161.63 133.86 C 160.83 133.86 160.18 134.52 160.18 135.32 C 160.18 136.12 160.83 136.77 161.63 136.77 Z M 162.63 136.76 L 163.64 136.76 C 164.44 136.76 165.08 136.11 165.08 135.32 C 165.08 134.52 164.44 133.87 163.64 133.87 L 162.63 133.87 C 161.83 133.87 161.19 134.52 161.19 135.32 C 161.19 136.11 161.83 136.76 162.63 136.76 Z M 163.64 136.75 L 164.64 136.75 C 165.44 136.75 166.08 136.11 166.08 135.32 C 166.08 134.52 165.44 133.88 164.64 133.88 L 163.64 133.88 C 162.85 133.88 162.20 134.52 162.20 135.32 C 162.20 136.11 162.85 136.75 163.64 136.75 Z M 164.64 136.75 L 165.65 136.75 C 166.44 136.75 167.08 136.11 167.08 135.32 C 167.08 134.53 166.44 133.89 165.65 133.89 L 164.64 133.89 C 163.85 133.89 163.21 134.53 163.21 135.32 C 163.21 136.11 163.85 136.75 164.64 136.75 Z M 165.65 136.74 L 166.64 136.74 C 167.43 136.74 168.07 136.11 168.07 135.32 C 168.07 134.53 167.43 133.89 166.64 133.89 L 165.65 133.89 C 164.87 133.89 164.23 134.53 164.23 135.32 C 164.23 136.11 164.87 136.74 165.65 136.74 Z M 166.64 136.74 L 167.17 136.74 C 167.95 136.74 168.59 136.10 168.59 135.32 C 168.59 134.53 167.95 133.89 167.17 133.89 L 166.64 133.89 C 165.86 133.89 165.22 134.53 165.22 135.32 C 165.22 136.10 165.86 136.74 166.64 136.74 Z"
      fill="black"
      fill-rule="nonzero" /><path d="M 155.88 144.82 L 156.80 144.38 C 157.56 144.02 157.89 143.11 157.53 142.35 C 157.17 141.59 156.26 141.26 155.50 141.62 L 154.58 142.06 C 153.82 142.42 153.49 143.33 153.85 144.09 C 154.21 144.85 155.12 145.18 155.88 144.82 Z M 156.61 144.44 L 157.55 144.14 C 158.34 143.89 158.78 143.03 158.53 142.24 C 158.27 141.45 157.42 141.01 156.62 141.26 L 155.69 141.56 C 154.89 141.82 154.46 142.67 154.71 143.46 C 154.97 144.26 155.82 144.70 156.61 144.44 Z M 157.25 144.20 L 158.24 144.09 C 159.06 144.00 159.66 143.26 159.57 142.43 C 159.48 141.61 158.74 141.01 157.91 141.10 L 156.92 141.21 C 156.10 141.29 155.50 142.04 155.59 142.86 C 155.68 143.69 156.42 144.29 157.25 144.20 Z M 158.11 144.10 L 159.11 144.08 C 159.94 144.06 160.60 143.38 160.58 142.54 C 160.57 141.71 159.88 141.05 159.05 141.07 L 158.04 141.09 C 157.21 141.11 156.55 141.79 156.57 142.63 C 156.59 143.46 157.27 144.12 158.11 144.10 Z M 159.10 144.08 L 160.09 144.07 C 160.92 144.06 161.59 143.38 161.58 142.55 C 161.57 141.72 160.88 141.05 160.05 141.06 L 159.06 141.07 C 158.23 141.08 157.56 141.76 157.57 142.59 C 157.58 143.42 158.26 144.09 159.10 144.08 Z M 160.11 144.06 L 161.06 144.04 C 161.89 144.02 162.54 143.34 162.52 142.51 C 162.50 141.68 161.82 141.02 160.99 141.04 L 160.04 141.06 C 159.21 141.08 158.55 141.77 158.57 142.60 C 158.59 143.43 159.28 144.08 160.11 144.06 Z M 161.04 144.04 L 162.13 144.03 C 162.96 144.01 163.62 143.33 163.61 142.50 C 163.60 141.68 162.92 141.01 162.09 141.03 L 161.00 141.04 C 160.17 141.05 159.51 141.73 159.52 142.56 C 159.53 143.39 160.22 144.05 161.04 144.04 Z M 161.98 144.03 L 163.03 144.12 C 163.86 144.19 164.59 143.58 164.66 142.75 C 164.74 141.92 164.12 141.19 163.29 141.11 L 162.24 141.02 C 161.41 140.95 160.68 141.56 160.61 142.39 C 160.53 143.23 161.15 143.96 161.98 144.03 Z M 162.14 143.74 L 162.70 144.26 C 163.33 144.83 164.29 144.78 164.85 144.16 C 165.42 143.54 165.38 142.58 164.76 142.01 L 164.19 141.49 C 163.57 140.93 162.60 140.97 162.04 141.59 C 161.47 142.21 161.51 143.18 162.14 143.74 Z M 162.25 142.73 L 161.98 143.73 C 161.76 144.55 162.24 145.39 163.05 145.61 C 163.87 145.83 164.71 145.35 164.94 144.54 L 165.21 143.54 C 165.43 142.72 164.95 141.88 164.13 141.66 C 163.32 141.44 162.48 141.92 162.25 142.73 Z M 162.13 143.37 L 161.63 144.23 C 161.21 144.96 161.46 145.90 162.19 146.32 C 162.93 146.75 163.86 146.49 164.29 145.76 L 164.79 144.90 C 165.21 144.17 164.96 143.23 164.23 142.81 C 163.49 142.38 162.55 142.63 162.13 143.37 Z M 161.70 144.13 L 161.13 144.96 C 160.65 145.66 160.83 146.61 161.53 147.09 C 162.23 147.56 163.18 147.38 163.65 146.69 L 164.22 145.86 C 164.70 145.16 164.52 144.21 163.82 143.73 C 163.13 143.26 162.17 143.43 161.70 144.13 Z M 161.17 144.92 L 160.58 145.73 C 160.08 146.40 160.22 147.35 160.89 147.85 C 161.57 148.35 162.52 148.21 163.02 147.53 L 163.61 146.73 C 164.11 146.05 163.97 145.10 163.29 144.61 C 162.62 144.11 161.67 144.25 161.17 144.92 Z M 160.65 145.67 L 160.03 146.41 C 159.51 147.05 159.59 147.99 160.23 148.52 C 160.86 149.05 161.81 148.96 162.33 148.32 L 162.95 147.59 C 163.47 146.95 163.39 146.01 162.75 145.48 C 162.12 144.95 161.17 145.04 160.65 145.67 Z M 160.12 146.36 L 159.40 147.12 C 158.85 147.70 158.87 148.63 159.46 149.19 C 160.05 149.74 160.98 149.72 161.53 149.13 L 162.25 148.37 C 162.80 147.79 162.78 146.86 162.19 146.30 C 161.60 145.75 160.68 145.77 160.12 146.36 Z M 159.47 147.09 L 158.78 147.75 C 158.21 148.30 158.19 149.22 158.75 149.79 C 159.30 150.36 160.21 150.38 160.79 149.82 L 161.47 149.16 C 162.04 148.61 162.06 147.69 161.51 147.12 C 160.95 146.55 160.04 146.53 159.47 147.09 Z M 158.81 147.74 L 158.05 148.44 C 157.47 148.98 157.44 149.89 157.98 150.47 C 158.52 151.05 159.43 151.08 160.00 150.54 L 160.76 149.84 C 161.34 149.30 161.37 148.39 160.83 147.81 C 160.29 147.23 159.39 147.20 158.81 147.74 Z M 158.06 148.44 L 157.83 148.65 C 157.25 149.19 157.21 150.09 157.75 150.67 C 158.28 151.25 159.18 151.29 159.76 150.75 L 160.00 150.54 C 160.58 150.00 160.61 149.10 160.08 148.52 C 159.54 147.94 158.64 147.91 158.06 148.44 Z"
      fill="black"
      fill-rule="nonzero" /><path d="M 150.21 153.62 L 151.10 153.67 C 151.95 153.71 152.67 153.06 152.72 152.21 C 152.76 151.36 152.11 150.63 151.26 150.59 L 150.37 150.54 C 149.52 150.50 148.79 151.15 148.75 152.00 C 148.70 152.85 149.36 153.58 150.21 153.62 Z M 151.21 153.70 L 152.22 153.68 C 153.09 153.67 153.78 152.95 153.76 152.08 C 153.75 151.21 153.03 150.52 152.16 150.54 L 151.15 150.56 C 150.28 150.57 149.59 151.29 149.61 152.15 C 149.62 153.02 150.34 153.71 151.21 153.70 Z M 152.36 153.69 L 153.43 153.57 C 154.31 153.48 154.94 152.69 154.84 151.82 C 154.75 150.95 153.96 150.32 153.09 150.41 L 152.02 150.53 C 151.15 150.62 150.52 151.41 150.61 152.28 C 150.71 153.15 151.49 153.79 152.36 153.69 Z M 153.52 153.56 L 154.55 153.39 C 155.41 153.24 156.00 152.43 155.85 151.56 C 155.71 150.70 154.89 150.11 154.03 150.26 L 153.00 150.43 C 152.14 150.57 151.55 151.39 151.70 152.25 C 151.84 153.12 152.66 153.70 153.52 153.56 Z M 154.59 153.37 L 155.61 153.17 C 156.46 153.00 157.02 152.18 156.85 151.33 C 156.69 150.47 155.86 149.92 155.01 150.08 L 153.99 150.28 C 153.14 150.44 152.58 151.27 152.74 152.12 C 152.91 152.97 153.73 153.53 154.59 153.37 Z M 155.62 153.15 L 156.57 152.96 C 157.42 152.79 157.96 151.96 157.79 151.12 C 157.62 150.28 156.80 149.73 155.96 149.90 L 155.00 150.10 C 154.16 150.27 153.61 151.09 153.78 151.93 C 153.95 152.78 154.78 153.32 155.62 153.15 Z M 156.56 152.94 L 157.64 152.73 C 158.48 152.56 159.02 151.76 158.86 150.93 C 158.70 150.09 157.89 149.55 157.06 149.71 L 155.97 149.92 C 155.14 150.09 154.60 150.89 154.76 151.72 C 154.92 152.56 155.73 153.10 156.56 152.94 Z M 157.62 152.70 L 158.46 152.55 C 159.28 152.40 159.82 151.61 159.67 150.79 C 159.52 149.97 158.73 149.43 157.92 149.58 L 157.08 149.74 C 156.26 149.89 155.72 150.68 155.87 151.49 C 156.02 152.31 156.81 152.85 157.62 152.70 Z M 158.46 152.53 L 159.44 152.35 C 160.25 152.20 160.79 151.42 160.64 150.61 C 160.49 149.80 159.71 149.27 158.90 149.42 L 157.92 149.60 C 157.11 149.75 156.58 150.53 156.73 151.34 C 156.88 152.14 157.65 152.68 158.46 152.53 Z M 159.44 152.34 L 160.43 152.16 C 161.23 152.01 161.76 151.24 161.62 150.44 C 161.47 149.64 160.70 149.10 159.90 149.25 L 158.91 149.43 C 158.11 149.58 157.57 150.34 157.72 151.15 C 157.87 151.95 158.63 152.48 159.44 152.34 Z M 160.42 152.14 L 161.40 151.97 C 162.20 151.82 162.73 151.06 162.58 150.27 C 162.44 149.47 161.68 148.95 160.89 149.09 L 159.91 149.26 C 159.11 149.41 158.58 150.17 158.73 150.96 C 158.87 151.75 159.63 152.28 160.42 152.14 Z M 161.41 151.95 L 162.40 151.76 C 163.18 151.61 163.70 150.86 163.55 150.07 C 163.40 149.29 162.64 148.77 161.86 148.92 L 160.87 149.11 C 160.09 149.25 159.57 150.01 159.72 150.80 C 159.87 151.58 160.63 152.10 161.41 151.95 Z M 162.38 151.75 L 163.36 151.58 C 164.14 151.44 164.66 150.70 164.52 149.92 C 164.39 149.14 163.64 148.61 162.86 148.75 L 161.88 148.93 C 161.09 149.07 160.57 149.81 160.71 150.59 C 160.85 151.37 161.60 151.89 162.38 151.75 Z M 163.31 151.58 L 164.30 151.44 C 165.09 151.33 165.63 150.61 165.52 149.83 C 165.41 149.05 164.69 148.50 163.90 148.61 L 162.91 148.75 C 162.13 148.86 161.59 149.58 161.70 150.37 C 161.81 151.15 162.53 151.69 163.31 151.58 Z M 164.29 151.44 L 165.28 151.31 C 166.06 151.21 166.61 150.50 166.51 149.72 C 166.41 148.93 165.69 148.38 164.91 148.48 L 163.92 148.61 C 163.14 148.71 162.59 149.43 162.69 150.21 C 162.79 150.99 163.50 151.54 164.29 151.44 Z M 165.28 151.31 L 166.23 151.19 C 167.01 151.09 167.56 150.37 167.45 149.59 C 167.35 148.81 166.64 148.26 165.86 148.36 L 164.91 148.48 C 164.13 148.59 163.58 149.30 163.68 150.08 C 163.78 150.86 164.50 151.41 165.28 151.31 Z"
      fill="black"
      fill-rule="nonzero" /><path d="M 151.02 159.37 L 151.97 159.29 C 152.82 159.22 153.46 158.47 153.39 157.62 C 153.32 156.76 152.57 156.13 151.71 156.20 L 150.76 156.28 C 149.91 156.35 149.27 157.10 149.34 157.95 C 149.41 158.81 150.16 159.44 151.02 159.37 Z M 152.00 159.31 L 152.99 159.21 C 153.86 159.13 154.49 158.36 154.40 157.49 C 154.32 156.63 153.55 155.99 152.68 156.08 L 151.69 156.18 C 150.82 156.26 150.19 157.03 150.28 157.90 C 150.36 158.76 151.13 159.40 152.00 159.31 Z M 153.01 159.20 L 153.95 159.10 C 154.81 159.01 155.43 158.23 155.34 157.37 C 155.25 156.52 154.47 155.89 153.62 155.99 L 152.67 156.09 C 151.81 156.18 151.19 156.96 151.28 157.81 C 151.38 158.67 152.15 159.29 153.01 159.20 Z M 153.93 159.07 L 155.02 158.96 C 155.86 158.88 156.48 158.13 156.40 157.29 C 156.31 156.44 155.56 155.83 154.72 155.91 L 153.64 156.02 C 152.79 156.10 152.18 156.85 152.26 157.69 C 152.34 158.54 153.09 159.15 153.93 159.07 Z M 154.99 158.94 L 156.01 158.86 C 156.84 158.80 157.46 158.07 157.39 157.24 C 157.33 156.40 156.60 155.78 155.77 155.85 L 154.75 155.93 C 153.92 156.00 153.30 156.72 153.36 157.56 C 153.43 158.39 154.16 159.01 154.99 158.94 Z M 155.99 158.85 L 157.00 158.78 C 157.83 158.73 158.45 158.01 158.40 157.19 C 158.34 156.37 157.63 155.74 156.81 155.80 L 155.79 155.86 C 154.97 155.92 154.34 156.63 154.40 157.45 C 154.45 158.28 155.16 158.90 155.99 158.85 Z M 156.99 158.77 L 158.01 158.71 C 158.82 158.67 159.45 157.97 159.40 157.15 C 159.36 156.34 158.66 155.71 157.85 155.76 L 156.83 155.81 C 156.01 155.86 155.38 156.55 155.43 157.37 C 155.47 158.18 156.17 158.81 156.99 158.77 Z M 157.98 158.69 L 158.99 158.66 C 159.79 158.62 160.42 157.95 160.39 157.14 C 160.36 156.33 159.68 155.71 158.88 155.74 L 157.87 155.77 C 157.06 155.80 156.44 156.48 156.47 157.29 C 156.50 158.09 157.17 158.72 157.98 158.69 Z M 158.96 158.64 L 159.90 158.62 C 160.70 158.61 161.33 157.95 161.32 157.15 C 161.30 156.36 160.64 155.72 159.85 155.73 L 158.91 155.75 C 158.11 155.77 157.47 156.42 157.49 157.22 C 157.50 158.02 158.16 158.65 158.96 158.64 Z M 159.89 158.61 L 160.88 158.60 C 161.68 158.59 162.31 157.94 162.30 157.15 C 162.29 156.36 161.64 155.72 160.85 155.73 L 159.85 155.74 C 159.06 155.75 158.43 156.40 158.44 157.20 C 158.45 157.99 159.10 158.62 159.89 158.61 Z M 160.91 158.61 L 161.84 158.58 C 162.63 158.56 163.26 157.90 163.24 157.10 C 163.22 156.30 162.55 155.67 161.75 155.70 L 160.82 155.72 C 160.03 155.75 159.40 156.41 159.42 157.21 C 159.44 158.01 160.11 158.63 160.91 158.61 Z M 161.83 158.61 L 162.88 158.58 C 163.69 158.56 164.33 157.89 164.31 157.08 C 164.29 156.27 163.62 155.63 162.81 155.65 L 161.76 155.67 C 160.95 155.69 160.31 156.37 160.33 157.18 C 160.35 157.99 161.02 158.63 161.83 158.61 Z M 162.86 158.59 L 163.80 158.58 C 164.62 158.57 165.27 157.91 165.26 157.09 C 165.26 156.28 164.59 155.62 163.78 155.63 L 162.83 155.64 C 162.02 155.65 161.36 156.31 161.37 157.13 C 161.38 157.94 162.04 158.60 162.86 158.59 Z M 163.79 158.57 L 164.84 158.57 C 165.65 158.56 166.30 157.91 166.30 157.10 C 166.30 156.29 165.64 155.64 164.83 155.64 L 163.79 155.64 C 162.98 155.64 162.32 156.30 162.33 157.11 C 162.33 157.92 162.98 158.57 163.79 158.57 Z M 164.84 158.56 L 165.19 158.56 C 165.99 158.56 166.64 157.91 166.64 157.10 C 166.64 156.30 165.99 155.65 165.19 155.65 L 164.84 155.65 C 164.03 155.65 163.38 156.30 163.38 157.10 C 163.38 157.91 164.03 158.56 164.84 158.56 Z"
      fill="black"
      fill-rule="nonzero" /><path d="M 157.91 157.67 L 157.43 158.55 C 157.02 159.29 157.28 160.23 158.03 160.64 C 158.77 161.05 159.70 160.78 160.12 160.04 L 160.60 159.16 C 161.02 158.42 160.75 157.49 160.01 157.07 C 159.26 156.66 158.33 156.93 157.91 157.67 Z M 157.41 158.57 L 156.94 159.45 C 156.54 160.21 156.82 161.14 157.58 161.54 C 158.33 161.94 159.27 161.66 159.67 160.90 L 160.14 160.02 C 160.54 159.27 160.25 158.33 159.50 157.93 C 158.74 157.53 157.81 157.82 157.41 158.57 Z M 156.92 159.49 L 156.47 160.40 C 156.09 161.16 156.40 162.09 157.17 162.47 C 157.93 162.85 158.86 162.54 159.24 161.77 L 159.69 160.87 C 160.07 160.10 159.76 159.17 158.99 158.79 C 158.22 158.41 157.30 158.72 156.92 159.49 Z M 156.46 160.41 L 156.03 161.30 C 155.67 162.07 155.99 162.99 156.76 163.36 C 157.53 163.73 158.46 163.41 158.83 162.64 L 159.25 161.75 C 159.62 160.98 159.29 160.06 158.52 159.69 C 157.75 159.32 156.83 159.64 156.46 160.41 Z M 156.04 161.30 L 155.61 162.19 C 155.24 162.96 155.56 163.88 156.33 164.25 C 157.10 164.62 158.03 164.30 158.40 163.53 L 158.83 162.64 C 159.20 161.87 158.87 160.94 158.10 160.57 C 157.33 160.20 156.40 160.53 156.04 161.30 Z M 155.61 162.19 L 155.19 163.05 C 154.82 163.82 155.14 164.74 155.91 165.12 C 156.68 165.49 157.61 165.16 157.98 164.39 L 158.40 163.53 C 158.77 162.76 158.45 161.84 157.68 161.46 C 156.91 161.09 155.98 161.42 155.61 162.19 Z M 155.20 163.05 L 154.77 163.93 C 154.40 164.70 154.72 165.63 155.49 166.00 C 156.26 166.37 157.18 166.05 157.55 165.28 L 157.98 164.39 C 158.35 163.63 158.03 162.70 157.26 162.33 C 156.49 161.96 155.57 162.28 155.20 163.05 Z M 154.77 163.94 L 154.31 164.91 C 153.94 165.67 154.26 166.60 155.03 166.96 C 155.80 167.33 156.72 167.01 157.09 166.24 L 157.55 165.27 C 157.92 164.50 157.59 163.58 156.83 163.22 C 156.06 162.85 155.14 163.17 154.77 163.94 Z M 154.30 164.91 L 153.86 165.84 C 153.50 166.61 153.83 167.53 154.60 167.89 C 155.36 168.26 156.28 167.93 156.65 167.16 L 157.09 166.23 C 157.45 165.46 157.12 164.55 156.36 164.18 C 155.59 163.82 154.67 164.14 154.30 164.91 Z M 153.86 165.85 L 153.43 166.76 C 153.08 167.53 153.41 168.45 154.18 168.81 C 154.95 169.17 155.87 168.84 156.23 168.06 L 156.65 167.15 C 157.01 166.38 156.68 165.47 155.91 165.11 C 155.13 164.75 154.22 165.08 153.86 165.85 Z M 153.43 166.78 L 152.99 167.75 C 152.64 168.53 152.99 169.44 153.77 169.78 C 154.54 170.13 155.45 169.79 155.80 169.01 L 156.24 168.04 C 156.58 167.27 156.24 166.36 155.46 166.01 C 154.69 165.66 153.77 166.01 153.43 166.78 Z M 152.98 167.79 L 152.61 168.67 C 152.29 169.45 152.66 170.35 153.44 170.68 C 154.23 171.00 155.13 170.63 155.45 169.85 L 155.82 168.97 C 156.14 168.18 155.77 167.28 154.99 166.96 C 154.20 166.63 153.30 167.01 152.98 167.79 Z M 152.58 168.77 L 152.23 169.81 C 151.97 170.61 152.40 171.48 153.20 171.75 C 154.00 172.02 154.87 171.58 155.14 170.78 L 155.49 169.74 C 155.75 168.94 155.32 168.07 154.52 167.80 C 153.72 167.54 152.85 167.97 152.58 168.77 Z M 152.44 171.18 L 152.76 171.62 C 153.24 172.30 154.19 172.47 154.88 171.98 C 155.57 171.49 155.73 170.54 155.24 169.86 L 154.93 169.42 C 154.44 168.73 153.49 168.57 152.81 169.05 C 152.12 169.54 151.96 170.49 152.44 171.18 Z M 154.49 172.18 L 155.57 171.81 C 156.37 171.53 156.79 170.67 156.52 169.87 C 156.24 169.07 155.38 168.65 154.58 168.92 L 153.50 169.30 C 152.71 169.57 152.28 170.44 152.56 171.23 C 152.83 172.03 153.70 172.45 154.49 172.18 Z M 155.71 171.75 L 156.57 171.35 C 157.34 171.01 157.67 170.10 157.32 169.34 C 156.97 168.58 156.07 168.24 155.31 168.59 L 154.44 168.98 C 153.68 169.33 153.35 170.24 153.69 171.00 C 154.04 171.76 154.95 172.10 155.71 171.75 Z M 156.59 171.33 L 157.53 170.88 C 158.28 170.52 158.59 169.62 158.23 168.87 C 157.87 168.12 156.97 167.81 156.23 168.17 L 155.29 168.62 C 154.54 168.98 154.22 169.87 154.58 170.62 C 154.94 171.37 155.84 171.69 156.59 171.33 Z M 157.53 170.86 L 158.43 170.42 C 159.17 170.06 159.48 169.17 159.12 168.43 C 158.76 167.69 157.86 167.38 157.12 167.74 L 156.22 168.18 C 155.48 168.54 155.17 169.43 155.53 170.18 C 155.90 170.92 156.79 171.22 157.53 170.86 Z M 158.42 170.42 L 159.33 169.99 C 160.07 169.63 160.38 168.74 160.02 168.00 C 159.67 167.26 158.78 166.95 158.03 167.30 L 157.13 167.74 C 156.39 168.10 156.08 168.99 156.43 169.73 C 156.79 170.47 157.68 170.78 158.42 170.42 Z M 159.31 169.99 L 160.22 169.57 C 160.96 169.23 161.28 168.34 160.94 167.60 C 160.59 166.85 159.70 166.53 158.96 166.87 L 158.05 167.30 C 157.31 167.64 156.99 168.53 157.33 169.27 C 157.68 170.02 158.57 170.34 159.31 169.99 Z M 160.18 169.59 L 161.07 169.20 C 161.83 168.87 162.17 167.99 161.84 167.24 C 161.51 166.49 160.64 166.14 159.88 166.47 L 158.99 166.86 C 158.24 167.19 157.89 168.07 158.22 168.82 C 158.55 169.57 159.43 169.92 160.18 169.59 Z M 161.03 169.22 L 161.97 168.84 C 162.74 168.54 163.11 167.68 162.81 166.91 C 162.51 166.15 161.64 165.77 160.88 166.08 L 159.93 166.45 C 159.17 166.75 158.79 167.62 159.10 168.38 C 159.40 169.15 160.26 169.52 161.03 169.22 Z M 161.92 168.86 L 162.90 168.52 C 163.68 168.25 164.09 167.40 163.81 166.62 C 163.54 165.85 162.69 165.44 161.92 165.71 L 160.93 166.06 C 160.16 166.33 159.75 167.18 160.02 167.95 C 160.29 168.73 161.14 169.13 161.92 168.86 Z M 162.85 168.53 L 163.84 168.22 C 164.63 167.98 165.06 167.15 164.82 166.37 C 164.58 165.58 163.75 165.15 162.96 165.39 L 161.97 165.70 C 161.19 165.94 160.75 166.77 161.00 167.56 C 161.24 168.34 162.07 168.77 162.85 168.53 Z M 163.79 168.23 L 164.71 167.98 C 165.50 167.77 165.96 166.96 165.75 166.17 C 165.53 165.38 164.72 164.92 163.93 165.13 L 163.02 165.38 C 162.23 165.59 161.76 166.41 161.98 167.19 C 162.19 167.98 163.00 168.45 163.79 168.23 Z M 164.62 167.99 L 165.63 167.78 C 166.43 167.62 166.94 166.85 166.78 166.05 C 166.61 165.26 165.84 164.75 165.04 164.91 L 164.03 165.12 C 163.23 165.28 162.72 166.06 162.88 166.85 C 163.05 167.65 163.82 168.16 164.62 167.99 Z M 165.48 167.79 L 166.43 167.70 C 167.22 167.62 167.81 166.91 167.73 166.11 C 167.65 165.31 166.93 164.73 166.13 164.81 L 165.19 164.90 C 164.39 164.98 163.81 165.69 163.89 166.49 C 163.97 167.29 164.69 167.87 165.48 167.79 Z M 166.33 167.69 L 167.27 167.66 C 168.07 167.64 168.69 166.97 168.67 166.17 C 168.64 165.38 167.98 164.75 167.18 164.78 L 166.23 164.81 C 165.44 164.84 164.81 165.50 164.84 166.30 C 164.86 167.10 165.53 167.72 166.33 167.69 Z M 167.24 167.66 L 168.27 167.65 C 169.06 167.64 169.70 167.00 169.69 166.20 C 169.69 165.41 169.04 164.77 168.25 164.78 L 167.22 164.79 C 166.43 164.79 165.79 165.44 165.79 166.23 C 165.80 167.02 166.44 167.66 167.24 167.66 Z M 168.26 167.64 L 168.62 167.64 C 169.41 167.64 170.05 167.00 170.05 166.21 C 170.05 165.42 169.41 164.78 168.62 164.78 L 168.26 164.78 C 167.47 164.78 166.83 165.43 166.83 166.21 C 166.83 167.00 167.47 167.64 168.26 167.64 Z"
      fill="black"
      fill-rule="nonzero" /><path d="M 167.07 161.33 L 167.43 162.20 C 167.76 162.98 168.66 163.34 169.44 163.01 C 170.22 162.69 170.58 161.79 170.25 161.01 L 169.89 160.15 C 169.56 159.37 168.67 159.00 167.89 159.33 C 167.11 159.66 166.74 160.56 167.07 161.33 Z M 167.35 162.11 L 167.69 163.11 C 167.97 163.93 168.86 164.37 169.69 164.09 C 170.51 163.81 170.95 162.92 170.67 162.09 L 170.34 161.10 C 170.06 160.28 169.16 159.84 168.34 160.11 C 167.52 160.39 167.07 161.29 167.35 162.11 Z M 167.65 163.01 L 167.91 163.98 C 168.13 164.83 169.00 165.33 169.85 165.11 C 170.69 164.89 171.20 164.02 170.97 163.17 L 170.71 162.19 C 170.49 161.35 169.62 160.84 168.78 161.07 C 167.93 161.29 167.43 162.16 167.65 163.01 Z M 167.92 163.94 L 168.15 164.92 C 168.35 165.76 169.20 166.28 170.04 166.08 C 170.88 165.88 171.40 165.03 171.20 164.19 L 170.97 163.21 C 170.76 162.37 169.92 161.85 169.08 162.05 C 168.23 162.26 167.72 163.10 167.92 163.94 Z M 168.17 164.92 L 168.42 165.93 C 168.62 166.76 169.45 167.27 170.28 167.07 C 171.11 166.87 171.62 166.03 171.42 165.20 L 171.18 164.19 C 170.98 163.36 170.14 162.85 169.31 163.05 C 168.48 163.25 167.97 164.09 168.17 164.92 Z M 168.44 165.93 L 168.67 166.86 C 168.88 167.67 169.70 168.17 170.51 167.96 C 171.33 167.76 171.82 166.94 171.62 166.13 L 171.39 165.20 C 171.19 164.38 170.37 163.89 169.55 164.09 C 168.74 164.29 168.24 165.11 168.44 165.93 Z M 168.70 166.84 L 168.93 167.79 C 169.12 168.60 169.93 169.09 170.73 168.89 C 171.53 168.70 172.03 167.89 171.83 167.09 L 171.60 166.14 C 171.41 165.34 170.60 164.84 169.80 165.04 C 168.99 165.23 168.50 166.04 168.70 166.84 Z M 168.94 167.77 L 169.17 168.76 C 169.35 169.55 170.14 170.05 170.93 169.87 C 171.72 169.69 172.22 168.90 172.04 168.11 L 171.81 167.12 C 171.63 166.32 170.85 165.83 170.05 166.01 C 169.26 166.19 168.76 166.97 168.94 167.77 Z M 169.18 168.73 L 169.38 169.69 C 169.54 170.48 170.31 170.99 171.10 170.82 C 171.89 170.66 172.39 169.89 172.23 169.10 L 172.03 168.14 C 171.87 167.35 171.10 166.85 170.31 167.01 C 169.52 167.17 169.02 167.95 169.18 168.73 Z M 169.39 169.68 L 169.59 170.68 C 169.75 171.46 170.51 171.97 171.29 171.81 C 172.07 171.66 172.58 170.89 172.42 170.11 L 172.22 169.11 C 172.06 168.33 171.30 167.82 170.52 167.98 C 169.74 168.14 169.23 168.90 169.39 169.68 Z M 169.60 170.68 L 169.80 171.65 C 169.96 172.43 170.71 172.93 171.49 172.77 C 172.27 172.61 172.77 171.85 172.61 171.08 L 172.41 170.11 C 172.25 169.33 171.49 168.83 170.72 168.99 C 169.94 169.15 169.44 169.91 169.60 170.68 Z M 169.80 171.66 L 170.02 172.65 C 170.18 173.43 170.94 173.92 171.71 173.75 C 172.49 173.59 172.98 172.83 172.81 172.05 L 172.60 171.07 C 172.44 170.29 171.68 169.80 170.90 169.96 C 170.13 170.13 169.64 170.89 169.80 171.66 Z M 170.02 172.67 L 170.25 173.65 C 170.42 174.42 171.19 174.90 171.95 174.73 C 172.72 174.55 173.21 173.79 173.03 173.02 L 172.81 172.04 C 172.63 171.27 171.87 170.79 171.10 170.96 C 170.33 171.14 169.85 171.90 170.02 172.67 Z M 170.25 173.66 L 170.48 174.64 C 170.66 175.40 171.43 175.88 172.20 175.69 C 172.97 175.51 173.44 174.74 173.26 173.98 L 173.03 173.00 C 172.84 172.24 172.07 171.76 171.31 171.95 C 170.54 172.13 170.07 172.90 170.25 173.66 Z M 170.48 174.64 L 170.59 175.06 C 170.77 175.83 171.54 176.30 172.31 176.12 C 173.07 175.93 173.54 175.16 173.36 174.40 L 173.25 173.97 C 173.07 173.21 172.30 172.74 171.54 172.92 C 170.77 173.10 170.30 173.87 170.48 174.64 Z"
      fill="black"
      fill-rule="nonzero" /></svg>