<svg xmlns="http://www.w3.org/2000/svg" width="300" height="300" viewBox="0 0 300 300">
<path d="M 141.92 118.35 L 141.64 117.12 C 141.46 116.32 140.66 115.81 139.86 115.99 C 139.05 116.18 138.55 116.98 138.73 117.78 L 139.01 119.01 C 139.19 119.81 139.99 120.32 140.80 120.14 C 141.60 119.95 142.10 119.15 141.92 118.35 Z M 141.72 117.40 L 141.71 117.11 C 141.68 116.27 140.97 115.60 140.13 115.63 C 139.28 115.66 138.62 116.37 138.65 117.21 L 138.65 117.50 C 138.68 118.34 139.39 119.01 140.24 118.98 C 141.08 118.95 141.74 118.25 141.72 117.40 Z M 138.69 117.61 L 139.04 118.76 C 139.28 119.59 140.15 120.05 140.97 119.81 C 141.79 119.56 142.26 118.70 142.01 117.88 L 141.66 116.72 C 141.42 115.90 140.55 115.43 139.73 115.67 C 138.91 115.92 138.44 116.78 138.69 117.61 Z M 139.00 118.65 L 139.22 119.64 C 139.40 120.48 140.23 121.01 141.07 120.83 C 141.91 120.65 142.44 119.82 142.26 118.98 L 142.04 117.99 C 141.86 117.15 141.03 116.62 140.19 116.80 C 139.35 116.98 138.82 117.81 139.00 118.65 Z M 139.20 119.59 L 139.38 120.58 C 139.54 121.42 140.35 121.99 141.19 121.84 C 142.04 121.68 142.60 120.87 142.45 120.03 L 142.27 119.04 C 142.12 118.19 141.31 117.62 140.46 117.78 C 139.62 117.93 139.05 118.74 139.20 119.59 Z M 139.38 120.54 L 139.53 121.57 C 139.66 122.42 140.46 123.00 141.31 122.88 C 142.16 122.75 142.74 121.95 142.61 121.10 L 142.46 120.07 C 142.33 119.22 141.53 118.63 140.68 118.76 C 139.83 118.89 139.25 119.69 139.38 120.54 Z M 139.53 121.54 L 139.65 122.46 C 139.76 123.31 140.54 123.92 141.39 123.81 C 142.25 123.69 142.85 122.91 142.74 122.06 L 142.62 121.13 C 142.51 120.28 141.73 119.68 140.87 119.79 C 140.02 119.90 139.42 120.68 139.53 121.54 Z M 139.65 122.45 L 139.77 123.44 C 139.88 124.29 140.65 124.90 141.51 124.79 C 142.36 124.69 142.96 123.91 142.86 123.06 L 142.74 122.07 C 142.63 121.22 141.86 120.61 141.00 120.72 C 140.15 120.82 139.55 121.60 139.65 122.45 Z M 139.77 123.42 L 139.88 124.42 C 139.97 125.27 140.74 125.88 141.59 125.79 C 142.44 125.70 143.06 124.93 142.97 124.08 L 142.86 123.08 C 142.77 122.23 142.00 121.62 141.15 121.71 C 140.30 121.80 139.68 122.57 139.77 123.42 Z M 139.88 124.39 L 139.97 125.38 C 140.05 126.23 140.80 126.86 141.65 126.79 C 142.50 126.71 143.13 125.96 143.05 125.11 L 142.97 124.11 C 142.89 123.26 142.14 122.63 141.29 122.71 C 140.43 122.78 139.81 123.54 139.88 124.39 Z M 139.98 125.37 L 140.06 126.36 C 140.12 127.21 140.87 127.84 141.72 127.77 C 142.57 127.71 143.20 126.96 143.13 126.11 L 143.05 125.12 C 142.98 124.27 142.24 123.64 141.39 123.71 C 140.54 123.77 139.91 124.52 139.98 125.37 Z M 140.06 126.34 L 140.13 127.34 C 140.18 128.19 140.92 128.83 141.76 128.77 C 142.61 128.71 143.25 127.98 143.19 127.14 L 143.12 126.13 C 143.07 125.29 142.34 124.65 141.49 124.70 C 140.64 124.76 140.00 125.49 140.06 126.34 Z M 140.13 127.31 L 140.18 128.32 C 140.23 129.16 140.94 129.81 141.79 129.77 C 142.63 129.72 143.28 129.01 143.24 128.16 L 143.19 127.16 C 143.14 126.32 142.43 125.67 141.58 125.71 C 140.74 125.75 140.09 126.47 140.13 127.31 Z M 140.19 128.30 L 140.23 129.30 C 140.27 130.14 140.98 130.79 141.82 130.75 C 142.65 130.72 143.31 130.01 143.27 129.17 L 143.23 128.17 C 143.19 127.34 142.48 126.68 141.65 126.72 C 140.81 126.76 140.16 127.46 140.19 128.30 Z M 140.24 129.29 L 140.28 130.29 C 140.32 131.13 141.02 131.78 141.85 131.74 C 142.68 131.71 143.33 131.01 143.30 130.18 L 143.26 129.18 C 143.23 128.34 142.53 127.69 141.69 127.73 C 140.86 127.76 140.21 128.46 140.24 129.29 Z M 140.29 130.29 L 140.33 131.23 C 140.36 132.06 141.05 132.70 141.88 132.67 C 142.70 132.64 143.35 131.95 143.32 131.12 L 143.29 130.18 C 143.26 129.36 142.57 128.71 141.74 128.74 C 140.91 128.77 140.27 129.46 140.29 130.29 Z M 140.34 131.21 L 140.36 132.25 C 140.38 133.07 141.06 133.72 141.88 133.70 C 142.70 133.69 143.35 133.01 143.33 132.19 L 143.31 131.15 C 143.29 130.33 142.61 129.68 141.79 129.69 C 140.97 129.71 140.32 130.39 140.34 131.21 Z M 140.37 132.23 L 140.38 133.19 C 140.38 134.01 141.05 134.66 141.86 134.66 C 142.68 134.65 143.33 133.99 143.33 133.17 L 143.32 132.21 C 143.31 131.39 142.65 130.74 141.84 130.74 C 141.02 130.75 140.37 131.42 140.37 132.23 Z M 140.39 133.19 L 140.39 134.22 C 140.39 135.03 141.05 135.69 141.86 135.69 C 142.67 135.69 143.32 135.03 143.32 134.22 L 143.32 133.18 C 143.32 132.37 142.66 131.72 141.85 131.72 C 141.04 131.72 140.38 132.38 140.39 133.19 Z M 140.40 134.22 L 140.40 135.23 C 140.40 136.04 141.05 136.69 141.85 136.69 C 142.66 136.69 143.31 136.04 143.31 135.23 L 143.31 134.22 C 143.31 133.42 142.66 132.76 141.85 132.76 C 141.05 132.76 140.40 133.42 140.40 134.22 Z M 140.41 135.23 L 140.41 136.23 C 140.41 137.03 141.06 137.68 141.85 137.68 C 142.65 137.68 143.30 137.03 143.30 136.23 L 143.30 135.23 C 143.30 134.43 142.65 133.79 141.85 133.79 C 141.06 133.79 140.41 134.43 140.41 135.23 Z M 140.42 136.23 L 140.42 136.97 C 140.42 137.77 141.06 138.41 141.85 138.41 C 142.65 138.41 143.29 137.77 143.29 136.97 L 143.29 136.23 C 143.29 135.44 142.65 134.80 141.85 134.80 C 141.06 134.80 140.42 135.44 140.42 136.23 Z"
      fill="black"
      fill-rule="nonzero" /><path d="M 154.56 117.45 L 155.03 118.29 C 155.45 119.02 156.38 119.28 157.12 118.87 C 157.85 118.45 158.11 117.52 157.70 116.78 L 157.23 115.95 C 156.81 115.21 155.88 114.95 155.14 115.37 C 154.41 115.78 154.15 116.72 154.56 117.45 Z M 154.86 117.99 L 155.15 118.95 C 155.40 119.79 156.29 120.25 157.12 120.00 C 157.95 119.74 158.42 118.86 158.16 118.03 L 157.87 117.07 C 157.62 116.24 156.74 115.77 155.90 116.03 C 155.07 116.28 154.60 117.16 154.86 117.99 Z M 155.07 118.62 L 155.15 119.58 C 155.22 120.46 155.99 121.11 156.87 121.04 C 157.74 120.97 158.40 120.20 158.33 119.32 L 158.25 118.36 C 158.17 117.48 157.40 116.83 156.53 116.90 C 155.65 116.98 155.00 117.75 155.07 118.62 Z M 155.14 119.42 L 155.12 120.49 C 155.10 121.37 155.80 122.09 156.68 122.11 C 157.56 122.13 158.29 121.43 158.31 120.55 L 158.33 119.49 C 158.35 118.61 157.65 117.88 156.77 117.86 C 155.89 117.84 155.16 118.54 155.14 119.42 Z M 155.13 120.41 L 155.06 121.46 C 155.00 122.33 155.66 123.09 156.53 123.15 C 157.40 123.21 158.16 122.55 158.22 121.68 L 158.30 120.63 C 158.36 119.76 157.70 119.00 156.83 118.94 C 155.95 118.88 155.19 119.53 155.13 120.41 Z M 155.08 121.41 L 154.98 122.39 C 154.89 123.26 155.52 124.03 156.38 124.12 C 157.24 124.20 158.01 123.58 158.10 122.72 L 158.20 121.73 C 158.29 120.87 157.66 120.10 156.80 120.01 C 155.94 119.92 155.17 120.55 155.08 121.41 Z M 155.00 122.35 L 154.87 123.35 C 154.75 124.20 155.34 124.98 156.19 125.09 C 157.04 125.21 157.82 124.62 157.94 123.77 L 158.07 122.77 C 158.19 121.92 157.60 121.14 156.75 121.02 C 155.90 120.91 155.12 121.50 155.00 122.35 Z M 154.90 123.30 L 154.74 124.24 C 154.59 125.07 155.15 125.86 155.98 126.00 C 156.80 126.15 157.59 125.59 157.74 124.76 L 157.90 123.82 C 158.05 122.99 157.49 122.20 156.66 122.06 C 155.83 121.92 155.04 122.47 154.90 123.30 Z M 154.76 124.22 L 154.58 125.18 C 154.43 125.99 154.96 126.78 155.78 126.93 C 156.59 127.09 157.38 126.55 157.53 125.74 L 157.71 124.78 C 157.87 123.97 157.33 123.18 156.52 123.03 C 155.70 122.87 154.92 123.41 154.76 124.22 Z M 154.59 125.19 L 154.41 126.19 C 154.27 127.00 154.81 127.77 155.62 127.92 C 156.43 128.06 157.20 127.52 157.34 126.71 L 157.52 125.72 C 157.67 124.91 157.13 124.13 156.32 123.99 C 155.51 123.85 154.74 124.38 154.59 125.19 Z M 154.42 126.22 L 154.26 127.19 C 154.14 128.00 154.69 128.76 155.49 128.88 C 156.30 129.01 157.05 128.46 157.18 127.66 L 157.34 126.68 C 157.47 125.88 156.92 125.12 156.11 124.99 C 155.30 124.86 154.55 125.41 154.42 126.22 Z M 154.27 127.20 L 154.12 128.21 C 153.99 129.01 154.54 129.76 155.34 129.88 C 156.14 130.01 156.89 129.46 157.02 128.66 L 157.17 127.65 C 157.30 126.85 156.75 126.10 155.95 125.98 C 155.15 125.85 154.40 126.40 154.27 127.20 Z M 154.13 128.21 L 153.97 129.20 C 153.85 130.00 154.39 130.74 155.18 130.87 C 155.98 130.99 156.72 130.45 156.85 129.66 L 157.00 128.66 C 157.13 127.87 156.59 127.12 155.79 127.00 C 155.00 126.87 154.25 127.41 154.13 128.21 Z M 153.98 129.22 L 153.84 130.17 C 153.73 130.96 154.27 131.70 155.06 131.81 C 155.85 131.93 156.58 131.38 156.70 130.59 L 156.84 129.64 C 156.95 128.85 156.41 128.12 155.62 128.00 C 154.83 127.89 154.09 128.43 153.98 129.22 Z M 153.84 130.22 L 153.73 131.19 C 153.64 131.97 154.21 132.69 155.00 132.78 C 155.79 132.87 156.50 132.30 156.59 131.51 L 156.70 130.55 C 156.79 129.76 156.22 129.04 155.43 128.95 C 154.64 128.87 153.93 129.43 153.84 130.22 Z M 153.73 131.24 L 153.66 132.23 C 153.60 133.02 154.19 133.71 154.98 133.77 C 155.76 133.83 156.45 133.24 156.51 132.45 L 156.59 131.46 C 156.65 130.67 156.06 129.98 155.27 129.92 C 154.48 129.86 153.79 130.45 153.73 131.24 Z M 153.66 132.26 L 153.60 133.24 C 153.56 134.03 154.16 134.71 154.95 134.75 C 155.74 134.80 156.41 134.19 156.46 133.40 L 156.51 132.42 C 156.56 131.63 155.95 130.96 155.17 130.91 C 154.38 130.87 153.70 131.47 153.66 132.26 Z M 153.60 133.25 L 153.55 134.31 C 153.51 135.10 154.12 135.77 154.91 135.81 C 155.70 135.85 156.37 135.24 156.40 134.45 L 156.46 133.39 C 156.49 132.61 155.89 131.94 155.10 131.90 C 154.31 131.86 153.64 132.47 153.60 133.25 Z M 153.55 134.31 L 153.54 134.53 C 153.51 135.32 154.11 135.98 154.90 136.02 C 155.69 136.06 156.36 135.45 156.39 134.66 L 156.40 134.45 C 156.44 133.66 155.83 132.99 155.04 132.96 C 154.26 132.92 153.59 133.53 153.55 134.31 Z"
      fill="black"
      fill-rule="nonzero" /></svg>