<svg xmlns="http://www.w3.org/2000/svg" width="300" height="300" viewBox="0 0 300 300">
<path d="M 152.26 131.32 L 152.50 130.33 C 152.69 129.49 152.17 128.66 151.34 128.46 C 150.50 128.26 149.66 128.78 149.47 129.62 L 149.24 130.60 C 149.04 131.44 149.56 132.28 150.40 132.47 C 151.23 132.67 152.07 132.15 152.26 131.32 Z M 149.36 129.77 L 149.27 130.46 C 149.16 131.35 149.79 132.18 150.69 132.29 C 151.59 132.40 152.41 131.77 152.52 130.87 L 152.61 130.18 C 152.72 129.28 152.09 128.46 151.19 128.35 C 150.29 128.23 149.47 128.87 149.36 129.77 Z M 149.29 130.28 L 149.00 131.48 C 148.79 132.37 149.34 133.26 150.22 133.47 C 151.11 133.68 152.00 133.13 152.22 132.25 L 152.50 131.05 C 152.71 130.16 152.17 129.27 151.28 129.06 C 150.39 128.84 149.50 129.39 149.29 130.28 Z M 149.03 131.34 L 148.71 132.32 C 148.43 133.19 148.90 134.12 149.77 134.41 C 150.64 134.70 151.58 134.22 151.86 133.35 L 152.18 132.38 C 152.47 131.51 152.00 130.57 151.13 130.29 C 150.26 130.00 149.32 130.48 149.03 131.34 Z M 148.73 132.26 L 148.39 133.19 C 148.07 134.04 148.51 135.00 149.37 135.32 C 150.23 135.63 151.18 135.19 151.50 134.34 L 151.84 133.41 C 152.16 132.55 151.72 131.60 150.86 131.28 C 150.01 130.96 149.05 131.40 148.73 132.26 Z M 148.40 133.17 L 148.04 134.11 C 147.71 134.96 148.13 135.92 148.99 136.25 C 149.84 136.58 150.80 136.15 151.13 135.30 L 151.49 134.36 C 151.82 133.50 151.39 132.55 150.54 132.22 C 149.69 131.89 148.73 132.31 148.40 133.17 Z M 148.05 134.09 L 147.69 134.98 C 147.35 135.82 147.76 136.78 148.61 137.12 C 149.45 137.46 150.41 137.05 150.76 136.21 L 151.11 135.32 C 151.45 134.47 151.04 133.51 150.20 133.17 C 149.35 132.83 148.39 133.24 148.05 134.09 Z M 147.71 134.96 L 147.32 135.88 C 146.97 136.72 147.37 137.68 148.20 138.03 C 149.04 138.38 150.00 137.99 150.35 137.15 L 150.74 136.23 C 151.09 135.39 150.70 134.43 149.86 134.08 C 149.02 133.73 148.06 134.12 147.71 134.96 Z M 147.34 135.86 L 146.94 136.79 C 146.58 137.61 146.96 138.58 147.78 138.94 C 148.61 139.30 149.58 138.92 149.94 138.09 L 150.34 137.17 C 150.70 136.34 150.32 135.37 149.49 135.01 C 148.66 134.65 147.70 135.03 147.34 135.86 Z M 146.96 136.77 L 146.54 137.68 C 146.17 138.50 146.54 139.46 147.35 139.83 C 148.17 140.20 149.13 139.84 149.50 139.02 L 149.92 138.11 C 150.29 137.29 149.92 136.33 149.11 135.96 C 148.29 135.59 147.33 135.95 146.96 136.77 Z M 146.57 137.66 L 146.14 138.56 C 145.76 139.36 146.10 140.33 146.91 140.71 C 147.71 141.09 148.67 140.75 149.06 139.94 L 149.48 139.04 C 149.86 138.23 149.52 137.27 148.72 136.89 C 147.91 136.51 146.95 136.85 146.57 137.66 Z M 146.16 138.55 L 145.72 139.45 C 145.33 140.24 145.66 141.20 146.46 141.59 C 147.25 141.98 148.21 141.65 148.60 140.85 L 149.04 139.95 C 149.43 139.15 149.09 138.20 148.30 137.81 C 147.50 137.42 146.54 137.75 146.16 138.55 Z M 145.72 139.46 L 145.29 140.36 C 144.91 141.15 145.24 142.10 146.03 142.48 C 146.83 142.87 147.78 142.53 148.16 141.74 L 148.59 140.84 C 148.98 140.05 148.64 139.10 147.85 138.71 C 147.06 138.33 146.11 138.66 145.72 139.46 Z M 145.29 140.37 L 144.87 141.27 C 144.49 142.06 144.83 143.01 145.62 143.38 C 146.41 143.76 147.36 143.42 147.73 142.63 L 148.16 141.73 C 148.53 140.94 148.19 139.99 147.40 139.62 C 146.61 139.24 145.67 139.58 145.29 140.37 Z M 144.87 141.28 L 144.44 142.18 C 144.07 142.97 144.41 143.91 145.19 144.28 C 145.98 144.66 146.92 144.32 147.29 143.53 L 147.72 142.63 C 148.10 141.84 147.76 140.90 146.97 140.53 C 146.19 140.15 145.25 140.49 144.87 141.28 Z M 144.45 142.18 L 144.03 143.07 C 143.65 143.85 143.98 144.79 144.76 145.16 C 145.54 145.54 146.48 145.21 146.85 144.43 L 147.28 143.54 C 147.66 142.76 147.33 141.82 146.55 141.44 C 145.77 141.07 144.83 141.40 144.45 142.18 Z M 144.04 143.07 L 143.59 143.98 C 143.21 144.76 143.53 145.69 144.31 146.07 C 145.08 146.45 146.02 146.13 146.40 145.35 L 146.84 144.43 C 147.22 143.66 146.90 142.72 146.12 142.35 C 145.35 141.97 144.42 142.29 144.04 143.07 Z M 143.60 143.98 L 143.15 144.89 C 142.77 145.66 143.09 146.59 143.86 146.97 C 144.62 147.35 145.55 147.03 145.93 146.26 L 146.38 145.35 C 146.76 144.59 146.45 143.66 145.68 143.28 C 144.91 142.90 143.98 143.21 143.60 143.98 Z M 143.17 144.89 L 142.72 145.78 C 142.34 146.54 142.65 147.46 143.41 147.85 C 144.17 148.23 145.09 147.92 145.47 147.16 L 145.92 146.26 C 146.30 145.51 145.99 144.58 145.23 144.20 C 144.47 143.82 143.55 144.13 143.17 144.89 Z M 142.73 145.78 L 142.27 146.70 C 141.89 147.45 142.19 148.36 142.94 148.75 C 143.69 149.13 144.61 148.83 144.99 148.07 L 145.46 147.16 C 145.84 146.41 145.54 145.49 144.78 145.11 C 144.03 144.73 143.12 145.03 142.73 145.78 Z M 142.29 146.69 L 141.83 147.57 C 141.45 148.31 141.74 149.23 142.49 149.61 C 143.23 149.99 144.14 149.70 144.52 148.96 L 144.98 148.08 C 145.36 147.33 145.07 146.42 144.33 146.04 C 143.58 145.66 142.67 145.95 142.29 146.69 Z M 141.85 147.56 L 141.39 148.44 C 141.00 149.18 141.28 150.09 142.01 150.47 C 142.74 150.86 143.65 150.58 144.04 149.85 L 144.51 148.96 C 144.89 148.23 144.61 147.32 143.88 146.94 C 143.15 146.55 142.24 146.83 141.85 147.56 Z M 141.40 148.44 L 140.93 149.30 C 140.54 150.03 140.81 150.93 141.53 151.32 C 142.25 151.72 143.16 151.45 143.55 150.72 L 144.02 149.86 C 144.41 149.13 144.15 148.23 143.42 147.84 C 142.70 147.44 141.80 147.71 141.40 148.44 Z M 140.94 149.31 L 140.51 150.11 C 140.12 150.83 140.38 151.72 141.10 152.11 C 141.81 152.50 142.71 152.24 143.10 151.52 L 143.54 150.72 C 143.93 150.00 143.66 149.11 142.95 148.72 C 142.23 148.33 141.33 148.59 140.94 149.31 Z M 140.50 150.15 L 140.02 151.10 C 139.65 151.82 139.94 152.70 140.66 153.07 C 141.38 153.44 142.26 153.15 142.63 152.43 L 143.11 151.48 C 143.48 150.76 143.19 149.88 142.47 149.51 C 141.75 149.15 140.87 149.43 140.50 150.15 Z M 140.01 151.14 L 139.62 151.97 C 139.27 152.69 139.58 153.56 140.31 153.90 C 141.04 154.25 141.91 153.94 142.25 153.21 L 142.64 152.39 C 142.98 151.66 142.67 150.79 141.94 150.45 C 141.22 150.11 140.35 150.42 140.01 151.14 Z M 139.61 151.99 L 139.19 152.92 C 138.86 153.65 139.18 154.51 139.90 154.84 C 140.63 155.17 141.49 154.85 141.82 154.13 L 142.25 153.19 C 142.58 152.46 142.26 151.60 141.53 151.27 C 140.81 150.94 139.95 151.26 139.61 151.99 Z M 139.19 152.93 L 138.83 153.74 C 138.50 154.46 138.82 155.32 139.55 155.65 C 140.27 155.97 141.13 155.65 141.46 154.93 L 141.82 154.12 C 142.15 153.39 141.83 152.54 141.10 152.21 C 140.37 151.88 139.52 152.20 139.19 152.93 Z"
      fill="black"
      fill-rule="nonzero" /><path d="M 148.96 145.91 L 149.93 145.62 C 150.75 145.37 151.21 144.51 150.96 143.69 C 150.72 142.87 149.85 142.41 149.03 142.65 L 148.07 142.94 C 147.25 143.19 146.78 144.05 147.03 144.87 C 147.27 145.69 148.14 146.16 148.96 145.91 Z M 149.84 145.65 L 150.80 145.42 C 151.64 145.22 152.15 144.38 151.95 143.54 C 151.75 142.71 150.91 142.19 150.08 142.39 L 149.12 142.62 C 148.28 142.82 147.77 143.66 147.97 144.50 C 148.17 145.34 149.01 145.85 149.84 145.65 Z M 150.64 145.45 L 151.64 145.32 C 152.49 145.21 153.09 144.42 152.98 143.57 C 152.86 142.72 152.08 142.12 151.23 142.23 L 150.24 142.36 C 149.39 142.48 148.79 143.26 148.90 144.11 C 149.01 144.96 149.79 145.56 150.64 145.45 Z M 151.51 145.32 L 152.51 145.27 C 153.36 145.23 154.02 144.50 153.98 143.64 C 153.93 142.79 153.20 142.13 152.35 142.18 L 151.35 142.23 C 150.50 142.27 149.84 143.00 149.89 143.86 C 149.93 144.71 150.66 145.37 151.51 145.32 Z M 152.45 145.27 L 153.44 145.26 C 154.30 145.25 154.98 144.54 154.97 143.69 C 154.96 142.83 154.25 142.15 153.40 142.16 L 152.40 142.17 C 151.55 142.19 150.87 142.89 150.88 143.75 C 150.89 144.60 151.60 145.29 152.45 145.27 Z M 153.42 145.26 L 154.43 145.26 C 155.29 145.26 155.98 144.56 155.98 143.71 C 155.98 142.85 155.28 142.15 154.42 142.16 L 153.42 142.16 C 152.56 142.16 151.87 142.85 151.87 143.71 C 151.87 144.57 152.57 145.26 153.42 145.26 Z M 154.42 145.26 L 155.42 145.26 C 156.28 145.26 156.97 144.57 156.98 143.71 C 156.98 142.86 156.28 142.16 155.43 142.16 L 154.43 142.15 C 153.57 142.15 152.88 142.85 152.87 143.70 C 152.87 144.56 153.57 145.26 154.42 145.26 Z M 155.40 145.26 L 156.42 145.28 C 157.28 145.29 157.98 144.60 157.99 143.74 C 158.00 142.88 157.31 142.18 156.45 142.17 L 155.44 142.16 C 154.58 142.15 153.88 142.83 153.87 143.69 C 153.86 144.55 154.55 145.25 155.40 145.26 Z M 156.31 145.28 L 157.31 145.36 C 158.17 145.42 158.93 144.78 158.99 143.92 C 159.06 143.06 158.42 142.31 157.56 142.25 L 156.56 142.17 C 155.70 142.10 154.95 142.74 154.88 143.60 C 154.81 144.46 155.45 145.21 156.31 145.28 Z M 156.95 145.29 L 157.88 145.60 C 158.70 145.86 159.59 145.41 159.86 144.59 C 160.13 143.76 159.68 142.88 158.85 142.61 L 157.92 142.31 C 157.10 142.04 156.21 142.49 155.94 143.31 C 155.68 144.14 156.13 145.03 156.95 145.29 Z M 157.39 145.35 L 158.16 145.96 C 158.86 146.50 159.85 146.38 160.39 145.69 C 160.93 145.00 160.81 144.00 160.12 143.46 L 159.34 142.85 C 158.65 142.31 157.65 142.43 157.11 143.12 C 156.57 143.82 156.70 144.81 157.39 145.35 Z M 157.81 145.61 L 158.36 146.42 C 158.85 147.16 159.85 147.36 160.59 146.86 C 161.32 146.37 161.52 145.37 161.03 144.63 L 160.48 143.81 C 159.98 143.08 158.98 142.88 158.25 143.38 C 157.51 143.87 157.31 144.87 157.81 145.61 Z M 158.16 146.05 L 158.47 146.96 C 158.75 147.81 159.68 148.26 160.52 147.97 C 161.37 147.68 161.82 146.76 161.53 145.91 L 161.23 145.00 C 160.94 144.16 160.02 143.70 159.17 143.99 C 158.32 144.28 157.87 145.20 158.16 146.05 Z M 158.39 146.68 L 158.54 147.72 C 158.68 148.61 159.51 149.23 160.40 149.09 C 161.29 148.96 161.90 148.13 161.77 147.24 L 161.61 146.20 C 161.48 145.31 160.65 144.69 159.76 144.82 C 158.87 144.96 158.25 145.79 158.39 146.68 Z M 158.52 147.54 L 158.55 148.51 C 158.59 149.41 159.35 150.12 160.25 150.09 C 161.15 150.06 161.86 149.30 161.83 148.39 L 161.79 147.42 C 161.76 146.52 161.00 145.81 160.10 145.84 C 159.19 145.88 158.49 146.64 158.52 147.54 Z M 158.55 148.35 L 158.49 149.37 C 158.43 150.27 159.12 151.05 160.03 151.11 C 160.93 151.16 161.71 150.48 161.77 149.57 L 161.83 148.55 C 161.89 147.65 161.20 146.87 160.29 146.81 C 159.39 146.75 158.61 147.44 158.55 148.35 Z M 158.50 149.18 L 158.32 150.21 C 158.16 151.10 158.76 151.96 159.66 152.12 C 160.55 152.28 161.41 151.68 161.57 150.78 L 161.75 149.76 C 161.91 148.86 161.31 148.00 160.42 147.84 C 159.52 147.68 158.66 148.28 158.50 149.18 Z M 158.36 150.03 L 158.07 151.03 C 157.81 151.91 158.31 152.82 159.18 153.08 C 160.06 153.34 160.98 152.84 161.23 151.96 L 161.53 150.96 C 161.79 150.09 161.29 149.17 160.41 148.91 C 159.54 148.65 158.62 149.15 158.36 150.03 Z M 158.10 150.93 L 157.77 151.82 C 157.46 152.68 157.89 153.63 158.75 153.94 C 159.61 154.26 160.56 153.82 160.87 152.96 L 161.20 152.07 C 161.52 151.21 161.08 150.26 160.22 149.95 C 159.36 149.63 158.42 150.07 158.10 150.93 Z M 157.78 151.79 L 157.40 152.76 C 157.07 153.62 157.49 154.57 158.35 154.91 C 159.20 155.24 160.16 154.81 160.49 153.96 L 160.86 152.99 C 161.19 152.14 160.77 151.18 159.92 150.85 C 159.07 150.52 158.11 150.94 157.78 151.79 Z M 157.39 152.77 L 157.06 153.64 C 156.73 154.50 157.16 155.46 158.01 155.79 C 158.87 156.12 159.83 155.69 160.16 154.83 L 160.50 153.96 C 160.82 153.10 160.40 152.14 159.54 151.81 C 158.68 151.48 157.72 151.91 157.39 152.77 Z M 157.05 153.64 L 156.70 154.57 C 156.37 155.43 156.81 156.40 157.67 156.72 C 158.53 157.05 159.49 156.61 159.82 155.75 L 160.17 154.83 C 160.50 153.96 160.06 153.00 159.20 152.67 C 158.34 152.35 157.37 152.78 157.05 153.64 Z M 156.70 154.55 L 156.34 155.48 C 156.00 156.34 156.43 157.31 157.29 157.65 C 158.15 157.99 159.12 157.56 159.46 156.70 L 159.82 155.77 C 160.16 154.91 159.73 153.94 158.87 153.60 C 158.01 153.27 157.03 153.69 156.70 154.55 Z M 156.34 155.46 L 155.97 156.38 C 155.62 157.23 156.04 158.21 156.90 158.56 C 157.75 158.91 158.73 158.49 159.08 157.64 L 159.45 156.72 C 159.80 155.86 159.39 154.88 158.53 154.54 C 157.67 154.19 156.69 154.60 156.34 155.46 Z M 155.97 156.39 L 155.59 157.34 C 155.25 158.20 155.67 159.17 156.53 159.51 C 157.39 159.85 158.37 159.43 158.71 158.57 L 159.08 157.62 C 159.42 156.76 159.00 155.79 158.14 155.45 C 157.28 155.11 156.31 155.53 155.97 156.39 Z M 155.59 157.35 L 155.23 158.29 C 154.89 159.15 155.32 160.12 156.18 160.46 C 157.04 160.79 158.01 160.36 158.34 159.50 L 158.71 158.56 C 159.05 157.70 158.62 156.73 157.76 156.39 C 156.90 156.06 155.93 156.49 155.59 157.35 Z M 155.24 158.27 L 154.86 159.20 C 154.51 160.06 154.92 161.03 155.78 161.38 C 156.63 161.73 157.60 161.31 157.95 160.46 L 158.33 159.52 C 158.68 158.67 158.27 157.70 157.41 157.35 C 156.56 157.00 155.58 157.41 155.24 158.27 Z M 154.87 159.20 L 154.49 160.10 C 154.14 160.95 154.54 161.93 155.39 162.28 C 156.24 162.63 157.21 162.23 157.57 161.38 L 157.94 160.47 C 158.29 159.62 157.89 158.65 157.04 158.29 C 156.19 157.94 155.22 158.35 154.87 159.20 Z M 154.48 160.15 L 154.12 161.07 C 153.80 161.92 154.23 162.88 155.08 163.21 C 155.94 163.54 156.90 163.11 157.23 162.25 L 157.58 161.33 C 157.91 160.48 157.48 159.52 156.62 159.19 C 155.77 158.86 154.80 159.29 154.48 160.15 Z M 154.12 161.09 L 153.77 162.04 C 153.46 162.89 153.90 163.85 154.75 164.16 C 155.61 164.48 156.56 164.04 156.88 163.18 L 157.23 162.23 C 157.55 161.38 157.11 160.42 156.25 160.11 C 155.39 159.79 154.44 160.23 154.12 161.09 Z M 153.78 162.02 L 153.43 162.95 C 153.10 163.80 153.53 164.76 154.38 165.08 C 155.23 165.41 156.19 164.98 156.52 164.13 L 156.87 163.20 C 157.20 162.35 156.77 161.39 155.92 161.07 C 155.06 160.74 154.11 161.17 153.78 162.02 Z M 153.44 162.92 L 153.07 163.85 C 152.73 164.70 153.14 165.66 153.98 166.00 C 154.83 166.34 155.79 165.93 156.13 165.08 L 156.50 164.15 C 156.84 163.31 156.43 162.35 155.59 162.01 C 154.74 161.67 153.78 162.08 153.44 162.92 Z M 153.08 163.83 L 152.69 164.75 C 152.34 165.59 152.74 166.56 153.58 166.91 C 154.42 167.26 155.39 166.86 155.74 166.02 L 156.12 165.10 C 156.47 164.26 156.07 163.30 155.23 162.95 C 154.39 162.60 153.43 162.99 153.08 163.83 Z M 152.70 164.74 L 152.31 165.66 C 151.95 166.50 152.34 167.47 153.18 167.82 C 154.02 168.18 154.99 167.79 155.34 166.95 L 155.73 166.03 C 156.09 165.19 155.70 164.22 154.86 163.87 C 154.02 163.51 153.05 163.90 152.70 164.74 Z M 152.31 165.66 L 151.92 166.57 C 151.56 167.41 151.96 168.38 152.80 168.74 C 153.63 169.09 154.60 168.70 154.96 167.86 L 155.35 166.95 C 155.70 166.11 155.31 165.14 154.47 164.78 C 153.63 164.43 152.66 164.82 152.31 165.66 Z M 151.92 166.58 L 151.52 167.52 C 151.17 168.36 151.56 169.33 152.40 169.68 C 153.24 170.04 154.21 169.64 154.57 168.80 L 154.96 167.86 C 155.32 167.02 154.92 166.05 154.08 165.69 C 153.24 165.34 152.27 165.74 151.92 166.58 Z M 151.52 167.52 L 151.12 168.45 C 150.77 169.29 151.16 170.26 152.01 170.62 C 152.85 170.97 153.82 170.58 154.17 169.74 L 154.57 168.80 C 154.92 167.96 154.53 166.99 153.69 166.64 C 152.84 166.28 151.87 166.67 151.52 167.52 Z M 151.13 168.43 L 150.73 169.34 C 150.36 170.18 150.74 171.16 151.58 171.53 C 152.42 171.89 153.39 171.51 153.76 170.68 L 154.17 169.76 C 154.53 168.92 154.15 167.94 153.32 167.58 C 152.48 167.21 151.50 167.59 151.13 168.43 Z M 150.75 169.30 L 150.32 170.21 C 149.93 171.04 150.28 172.03 151.11 172.42 C 151.94 172.81 152.92 172.45 153.31 171.63 L 153.74 170.71 C 154.13 169.89 153.78 168.90 152.95 168.51 C 152.13 168.12 151.14 168.47 150.75 169.30 Z M 150.33 170.19 L 149.90 171.07 C 149.50 171.89 149.84 172.88 150.66 173.28 C 151.47 173.68 152.46 173.35 152.87 172.53 L 153.30 171.65 C 153.70 170.83 153.36 169.84 152.54 169.44 C 151.73 169.04 150.74 169.37 150.33 170.19 Z M 149.91 171.06 L 149.46 171.95 C 149.05 172.76 149.38 173.75 150.19 174.16 C 151.01 174.57 152.00 174.25 152.40 173.43 L 152.85 172.54 C 153.26 171.73 152.94 170.74 152.12 170.33 C 151.31 169.92 150.32 170.25 149.91 171.06 Z M 149.48 171.93 L 149.02 172.81 C 148.59 173.61 148.90 174.60 149.70 175.03 C 150.50 175.45 151.49 175.15 151.92 174.34 L 152.38 173.46 C 152.81 172.66 152.50 171.67 151.70 171.24 C 150.90 170.82 149.91 171.13 149.48 171.93 Z M 149.04 172.78 L 148.56 173.65 C 148.12 174.44 148.40 175.43 149.18 175.87 C 149.97 176.31 150.96 176.03 151.40 175.24 L 151.89 174.37 C 152.33 173.59 152.05 172.59 151.26 172.15 C 150.48 171.72 149.48 172.00 149.04 172.78 Z M 148.58 173.63 L 148.07 174.50 C 147.62 175.27 147.88 176.26 148.65 176.72 C 149.43 177.17 150.42 176.91 150.87 176.14 L 151.38 175.27 C 151.83 174.49 151.57 173.50 150.80 173.05 C 150.02 172.60 149.03 172.86 148.58 173.63 Z M 148.09 174.49 L 147.59 175.32 C 147.13 176.08 147.37 177.07 148.14 177.53 C 148.90 177.99 149.89 177.75 150.35 176.98 L 150.85 176.15 C 151.31 175.39 151.06 174.40 150.30 173.94 C 149.54 173.48 148.55 173.72 148.09 174.49 Z M 147.61 175.30 L 147.11 176.10 C 146.64 176.85 146.87 177.84 147.62 178.31 C 148.37 178.78 149.36 178.55 149.83 177.80 L 150.33 177.00 C 150.79 176.25 150.57 175.26 149.82 174.80 C 149.07 174.33 148.08 174.55 147.61 175.30 Z M 147.15 176.06 L 146.56 176.93 C 146.07 177.66 146.26 178.65 146.98 179.14 C 147.71 179.63 148.70 179.44 149.20 178.72 L 149.79 177.84 C 150.28 177.12 150.09 176.13 149.36 175.63 C 148.64 175.14 147.65 175.33 147.15 176.06 Z M 146.60 176.89 L 146.01 177.70 C 145.49 178.40 145.64 179.39 146.35 179.91 C 147.06 180.43 148.05 180.27 148.56 179.57 L 149.16 178.76 C 149.67 178.05 149.52 177.06 148.81 176.54 C 148.11 176.03 147.12 176.18 146.60 176.89 Z M 146.05 177.65 L 145.42 178.45 C 144.87 179.13 144.99 180.12 145.67 180.66 C 146.34 181.21 147.34 181.09 147.88 180.41 L 148.52 179.61 C 149.06 178.94 148.95 177.94 148.27 177.40 C 147.59 176.86 146.60 176.97 146.05 177.65 Z M 145.51 178.36 L 144.77 179.15 C 144.18 179.77 144.20 180.76 144.83 181.35 C 145.46 181.95 146.45 181.92 147.04 181.29 L 147.78 180.50 C 148.37 179.88 148.35 178.89 147.72 178.30 C 147.09 177.71 146.10 177.73 145.51 178.36 Z M 145.05 178.93 L 144.28 179.45 C 143.57 179.92 143.37 180.87 143.84 181.58 C 144.31 182.29 145.27 182.49 145.98 182.02 L 146.75 181.51 C 147.46 181.04 147.66 180.08 147.19 179.37 C 146.72 178.66 145.76 178.47 145.05 178.93 Z M 144.89 179.23 L 143.97 179.38 C 143.14 179.51 142.57 180.28 142.70 181.11 C 142.83 181.94 143.60 182.51 144.43 182.38 L 145.36 182.23 C 146.19 182.11 146.75 181.33 146.63 180.50 C 146.50 179.67 145.72 179.11 144.89 179.23 Z M 144.39 179.40 L 143.38 179.27 C 142.56 179.16 141.81 179.74 141.71 180.56 C 141.60 181.38 142.18 182.12 143.00 182.23 L 144.01 182.36 C 144.83 182.47 145.58 181.89 145.68 181.07 C 145.79 180.25 145.21 179.50 144.39 179.40 Z"
      fill="black"
      fill-rule="nonzero" /><path d="M 142.81 154.25 L 141.74 154.37 C 140.89 154.46 140.28 155.22 140.37 156.07 C 140.46 156.92 141.23 157.54 142.08 157.45 L 143.15 157.33 C 144.00 157.24 144.61 156.47 144.52 155.62 C 144.43 154.77 143.66 154.16 142.81 154.25 Z M 140.95 157.18 L 141.37 157.49 C 142.07 158.02 143.07 157.88 143.59 157.18 C 144.12 156.48 143.99 155.48 143.28 154.95 L 142.87 154.64 C 142.17 154.11 141.17 154.25 140.64 154.95 C 140.11 155.65 140.25 156.65 140.95 157.18 Z M 141.76 157.72 L 142.82 158.11 C 143.65 158.42 144.57 158.00 144.88 157.18 C 145.19 156.35 144.77 155.43 143.95 155.12 L 142.89 154.72 C 142.06 154.41 141.14 154.83 140.83 155.66 C 140.52 156.48 140.94 157.41 141.76 157.72 Z M 142.86 158.12 L 143.89 158.48 C 144.72 158.77 145.63 158.33 145.92 157.50 C 146.21 156.66 145.77 155.75 144.94 155.47 L 143.91 155.11 C 143.08 154.82 142.17 155.26 141.88 156.09 C 141.59 156.92 142.03 157.83 142.86 158.12 Z M 143.90 158.47 L 144.79 158.77 C 145.61 159.06 146.52 158.62 146.80 157.80 C 147.09 156.97 146.65 156.07 145.83 155.79 L 144.93 155.48 C 144.11 155.19 143.21 155.63 142.92 156.45 C 142.64 157.28 143.07 158.18 143.90 158.47 Z M 144.81 158.76 L 145.79 159.10 C 146.61 159.37 147.50 158.94 147.77 158.12 C 148.05 157.30 147.61 156.42 146.80 156.14 L 145.81 155.80 C 144.99 155.53 144.11 155.96 143.83 156.78 C 143.55 157.60 143.99 158.48 144.81 158.76 Z M 145.81 159.08 L 146.80 159.41 C 147.61 159.68 148.48 159.24 148.75 158.43 C 149.01 157.62 148.57 156.75 147.77 156.48 L 146.78 156.15 C 145.97 155.88 145.10 156.32 144.83 157.13 C 144.56 157.94 145.00 158.81 145.81 159.08 Z M 146.81 159.39 L 147.81 159.72 C 148.61 159.98 149.47 159.54 149.73 158.74 C 149.99 157.94 149.56 157.08 148.76 156.82 L 147.75 156.49 C 146.95 156.23 146.09 156.67 145.83 157.47 C 145.57 158.27 146.01 159.13 146.81 159.39 Z M 147.82 159.70 L 148.79 160.02 C 149.58 160.28 150.43 159.85 150.69 159.05 C 150.95 158.26 150.52 157.41 149.73 157.15 L 148.75 156.84 C 147.96 156.58 147.11 157.01 146.85 157.80 C 146.59 158.60 147.02 159.45 147.82 159.70 Z M 148.79 160.00 L 149.74 160.31 C 150.52 160.57 151.36 160.15 151.62 159.36 C 151.87 158.58 151.45 157.74 150.67 157.49 L 149.72 157.17 C 148.94 156.92 148.10 157.34 147.84 158.12 C 147.59 158.90 148.01 159.74 148.79 160.00 Z M 149.73 160.28 L 150.76 160.64 C 151.53 160.90 152.36 160.49 152.62 159.73 C 152.88 158.96 152.48 158.13 151.71 157.87 L 150.68 157.51 C 149.91 157.25 149.08 157.66 148.82 158.43 C 148.56 159.19 148.96 160.02 149.73 160.28 Z M 150.75 160.61 L 151.39 160.84 C 152.14 161.10 152.96 160.71 153.23 159.96 C 153.50 159.22 153.11 158.39 152.36 158.13 L 151.72 157.90 C 150.97 157.63 150.15 158.02 149.88 158.77 C 149.62 159.52 150.01 160.34 150.75 160.61 Z"
      fill="black"
      fill-rule="nonzero" /></svg>