<svg xmlns="http://www.w3.org/2000/svg" width="300" height="300" viewBox="0 0 300 300">
<path d="M 146.23 116.07 L 146.08 117.02 C 145.95 117.84 146.51 118.62 147.33 118.75 C 148.16 118.88 148.93 118.32 149.06 117.50 L 149.21 116.54 C 149.34 115.72 148.78 114.95 147.96 114.82 C 147.14 114.68 146.37 115.24 146.23 116.07 Z M 146.02 117.12 L 145.93 118.14 C 145.86 119.00 146.49 119.75 147.35 119.83 C 148.20 119.90 148.96 119.27 149.03 118.41 L 149.12 117.39 C 149.19 116.54 148.56 115.78 147.71 115.71 C 146.85 115.64 146.10 116.27 146.02 117.12 Z M 145.91 118.26 L 145.89 119.27 C 145.88 120.14 146.58 120.85 147.45 120.87 C 148.32 120.88 149.03 120.18 149.04 119.31 L 149.06 118.30 C 149.07 117.43 148.37 116.71 147.50 116.70 C 146.63 116.69 145.92 117.39 145.91 118.26 Z M 145.89 119.35 L 145.93 120.36 C 145.96 121.23 146.69 121.91 147.56 121.88 C 148.43 121.85 149.11 121.12 149.08 120.25 L 149.04 119.24 C 149.01 118.37 148.28 117.69 147.41 117.72 C 146.54 117.75 145.86 118.48 145.89 119.35 Z M 145.94 120.42 L 146.01 121.40 C 146.08 122.27 146.83 122.92 147.70 122.85 C 148.56 122.79 149.21 122.03 149.15 121.17 L 149.07 120.19 C 149.01 119.32 148.25 118.67 147.39 118.74 C 146.52 118.80 145.87 119.56 145.94 120.42 Z M 146.02 121.44 L 146.12 122.41 C 146.20 123.27 146.97 123.90 147.83 123.81 C 148.69 123.73 149.32 122.96 149.23 122.10 L 149.14 121.13 C 149.05 120.27 148.28 119.64 147.42 119.73 C 146.56 119.81 145.93 120.58 146.02 121.44 Z M 146.12 122.41 L 146.22 123.43 C 146.31 124.28 147.07 124.91 147.93 124.82 C 148.78 124.74 149.41 123.98 149.33 123.12 L 149.23 122.10 C 149.14 121.25 148.38 120.62 147.52 120.70 C 146.67 120.79 146.04 121.55 146.12 122.41 Z M 146.23 123.39 L 146.31 124.39 C 146.38 125.24 147.12 125.88 147.97 125.82 C 148.83 125.75 149.46 125.00 149.40 124.15 L 149.32 123.15 C 149.25 122.30 148.51 121.66 147.66 121.73 C 146.80 121.80 146.16 122.54 146.23 123.39 Z M 146.32 124.35 L 146.37 125.35 C 146.41 126.20 147.13 126.85 147.98 126.81 C 148.83 126.77 149.48 126.04 149.44 125.20 L 149.39 124.19 C 149.35 123.35 148.62 122.69 147.78 122.74 C 146.93 122.78 146.28 123.50 146.32 124.35 Z M 146.38 125.30 L 146.40 126.32 C 146.42 127.16 147.11 127.82 147.95 127.81 C 148.79 127.79 149.46 127.10 149.44 126.26 L 149.42 125.25 C 149.41 124.41 148.72 123.74 147.88 123.75 C 147.04 123.77 146.37 124.46 146.38 125.30 Z M 146.42 126.29 L 146.42 127.28 C 146.42 128.11 147.10 128.78 147.93 128.78 C 148.76 128.78 149.43 128.10 149.43 127.27 L 149.42 126.29 C 149.42 125.46 148.75 124.78 147.92 124.79 C 147.09 124.79 146.42 125.46 146.42 126.29 Z M 146.44 127.28 L 146.44 128.28 C 146.44 129.09 147.11 129.76 147.92 129.76 C 148.74 129.76 149.40 129.09 149.40 128.28 L 149.40 127.28 C 149.40 126.46 148.74 125.80 147.92 125.80 C 147.11 125.80 146.44 126.46 146.44 127.28 Z M 146.47 128.28 L 146.47 129.27 C 146.47 130.08 147.12 130.73 147.92 130.73 C 148.73 130.73 149.38 130.08 149.38 129.27 L 149.38 128.28 C 149.38 127.47 148.73 126.82 147.92 126.82 C 147.12 126.82 146.47 127.47 146.47 128.28 Z M 146.49 129.27 L 146.49 130.24 C 146.49 131.03 147.13 131.68 147.92 131.68 C 148.72 131.68 149.36 131.03 149.36 130.24 L 149.36 129.27 C 149.36 128.48 148.72 127.84 147.92 127.84 C 147.13 127.84 146.49 128.48 146.49 129.27 Z"
      fill="black"
      fill-rule="nonzero" /><path d="M 135.16 136.22 L 136.14 136.15 C 136.97 136.10 137.59 135.38 137.53 134.55 C 137.48 133.73 136.76 133.10 135.93 133.16 L 134.96 133.23 C 134.13 133.28 133.51 134.00 133.56 134.83 C 133.62 135.65 134.34 136.28 135.16 136.22 Z M 136.21 136.21 L 137.22 136.10 C 138.08 136.01 138.70 135.23 138.60 134.37 C 138.51 133.51 137.73 132.89 136.87 132.99 L 135.87 133.10 C 135.01 133.19 134.39 133.97 134.48 134.83 C 134.57 135.69 135.35 136.31 136.21 136.21 Z M 137.32 136.12 L 138.34 135.95 C 139.21 135.80 139.79 134.97 139.64 134.09 C 139.49 133.22 138.66 132.64 137.79 132.79 L 136.77 132.97 C 135.90 133.12 135.32 133.95 135.47 134.82 C 135.62 135.69 136.45 136.28 137.32 136.12 Z M 138.39 135.94 L 139.37 135.74 C 140.23 135.56 140.79 134.71 140.61 133.84 C 140.43 132.97 139.58 132.41 138.71 132.59 L 137.74 132.80 C 136.87 132.98 136.31 133.83 136.49 134.69 C 136.67 135.56 137.52 136.12 138.39 135.94 Z M 139.35 135.74 L 140.35 135.55 C 141.22 135.37 141.79 134.53 141.61 133.66 C 141.44 132.79 140.60 132.22 139.73 132.39 L 138.73 132.59 C 137.86 132.76 137.29 133.61 137.46 134.48 C 137.64 135.35 138.48 135.91 139.35 135.74 Z M 140.32 135.55 L 141.27 135.38 C 142.14 135.23 142.72 134.39 142.57 133.52 C 142.41 132.64 141.58 132.06 140.70 132.22 L 139.76 132.39 C 138.88 132.54 138.30 133.38 138.45 134.25 C 138.61 135.13 139.45 135.71 140.32 135.55 Z M 141.27 135.39 L 142.23 135.21 C 143.10 135.05 143.69 134.22 143.53 133.34 C 143.37 132.47 142.53 131.88 141.66 132.04 L 140.70 132.22 C 139.82 132.37 139.24 133.21 139.40 134.09 C 139.56 134.96 140.40 135.54 141.27 135.39 Z M 142.20 135.22 L 143.20 135.06 C 144.08 134.92 144.68 134.09 144.54 133.21 C 144.40 132.33 143.57 131.73 142.69 131.87 L 141.69 132.04 C 140.81 132.18 140.21 133.00 140.35 133.88 C 140.49 134.76 141.32 135.36 142.20 135.22 Z M 143.14 135.07 L 144.13 134.95 C 145.01 134.84 145.64 134.03 145.53 133.15 C 145.43 132.27 144.62 131.64 143.74 131.75 L 142.75 131.87 C 141.87 131.97 141.24 132.78 141.35 133.66 C 141.46 134.55 142.26 135.17 143.14 135.07 Z M 144.10 134.95 L 145.10 134.84 C 145.99 134.75 146.63 133.96 146.54 133.07 C 146.45 132.19 145.66 131.55 144.77 131.64 L 143.77 131.74 C 142.88 131.83 142.24 132.63 142.33 133.51 C 142.42 134.40 143.22 135.04 144.10 134.95 Z M 145.09 134.84 L 146.08 134.75 C 146.97 134.66 147.62 133.87 147.53 132.99 C 147.44 132.10 146.66 131.46 145.77 131.54 L 144.78 131.64 C 143.90 131.73 143.25 132.51 143.33 133.40 C 143.42 134.28 144.21 134.93 145.09 134.84 Z M 146.06 134.75 L 147.07 134.66 C 147.95 134.59 148.61 133.81 148.53 132.92 C 148.46 132.04 147.68 131.38 146.79 131.46 L 145.79 131.54 C 144.91 131.62 144.25 132.40 144.33 133.28 C 144.40 134.17 145.18 134.82 146.06 134.75 Z M 147.04 134.66 L 148.03 134.59 C 148.92 134.53 149.59 133.77 149.53 132.88 C 149.47 132.00 148.70 131.33 147.82 131.39 L 146.82 131.46 C 145.94 131.52 145.27 132.28 145.33 133.17 C 145.39 134.05 146.15 134.72 147.04 134.66 Z M 148.01 134.59 L 149.01 134.54 C 149.90 134.49 150.58 133.74 150.53 132.86 C 150.48 131.97 149.73 131.29 148.84 131.34 L 147.84 131.39 C 146.96 131.44 146.28 132.19 146.33 133.08 C 146.37 133.96 147.13 134.64 148.01 134.59 Z M 148.99 134.54 L 149.99 134.50 C 150.88 134.47 151.56 133.72 151.53 132.84 C 151.50 131.96 150.75 131.27 149.87 131.30 L 148.87 131.34 C 147.98 131.37 147.30 132.12 147.33 133.00 C 147.36 133.88 148.11 134.57 148.99 134.54 Z M 149.97 134.50 L 150.96 134.47 C 151.85 134.45 152.54 133.72 152.52 132.84 C 152.50 131.96 151.77 131.26 150.89 131.28 L 149.89 131.30 C 149.01 131.32 148.31 132.06 148.33 132.94 C 148.36 133.82 149.09 134.52 149.97 134.50 Z M 150.94 134.47 L 151.94 134.46 C 152.82 134.46 153.53 133.74 153.52 132.86 C 153.51 131.98 152.79 131.27 151.91 131.27 L 150.91 131.28 C 150.03 131.29 149.32 132.01 149.33 132.89 C 149.34 133.77 150.06 134.48 150.94 134.47 Z M 151.93 134.46 L 152.92 134.46 C 153.80 134.46 154.51 133.75 154.51 132.87 C 154.51 131.99 153.80 131.27 152.92 131.27 L 151.92 131.27 C 151.04 131.28 150.33 131.99 150.33 132.87 C 150.33 133.75 151.05 134.46 151.93 134.46 Z M 152.92 134.46 L 153.89 134.46 C 154.77 134.46 155.48 133.75 155.48 132.87 C 155.48 131.99 154.77 131.27 153.89 131.27 L 152.92 131.27 C 152.04 131.27 151.32 131.99 151.32 132.87 C 151.32 133.75 152.04 134.46 152.92 134.46 Z M 153.89 134.46 L 154.93 134.46 C 155.81 134.46 156.52 133.75 156.52 132.87 C 156.52 131.99 155.81 131.27 154.93 131.27 L 153.89 131.27 C 153.01 131.27 152.29 131.99 152.29 132.87 C 152.29 133.75 153.01 134.46 153.89 134.46 Z M 154.92 134.46 L 155.94 134.46 C 156.81 134.46 157.53 133.75 157.53 132.87 C 157.53 132.00 156.82 131.28 155.94 131.28 L 154.93 131.28 C 154.05 131.28 153.34 131.99 153.34 132.87 C 153.34 133.74 154.05 134.45 154.92 134.46 Z M 155.92 134.45 L 156.92 134.46 C 157.80 134.47 158.51 133.78 158.52 132.90 C 158.54 132.03 157.84 131.32 156.97 131.30 L 155.96 131.29 C 155.09 131.28 154.37 131.98 154.36 132.85 C 154.35 133.72 155.05 134.44 155.92 134.45 Z M 156.87 134.47 L 158.10 134.52 C 158.97 134.57 159.71 133.89 159.75 133.02 C 159.80 132.14 159.12 131.40 158.25 131.36 L 157.02 131.30 C 156.15 131.26 155.40 131.93 155.36 132.81 C 155.32 133.68 156.00 134.42 156.87 134.47 Z M 157.59 134.45 L 157.97 134.60 C 158.80 134.92 159.74 134.51 160.06 133.68 C 160.39 132.85 159.98 131.91 159.15 131.59 L 158.76 131.44 C 157.93 131.12 156.99 131.53 156.67 132.36 C 156.34 133.19 156.76 134.12 157.59 134.45 Z M 157.70 131.69 L 156.84 132.22 C 156.06 132.69 155.82 133.71 156.29 134.48 C 156.77 135.26 157.78 135.50 158.56 135.03 L 159.42 134.50 C 160.20 134.02 160.44 133.01 159.97 132.23 C 159.49 131.46 158.48 131.21 157.70 131.69 Z M 156.19 132.91 L 155.81 133.73 C 155.41 134.56 155.77 135.55 156.60 135.94 C 157.43 136.34 158.43 135.98 158.82 135.15 L 159.20 134.33 C 159.60 133.50 159.24 132.51 158.41 132.12 C 157.57 131.72 156.58 132.08 156.19 132.91 Z M 155.71 133.96 L 155.39 135.02 C 155.13 135.91 155.63 136.84 156.52 137.10 C 157.40 137.37 158.33 136.86 158.59 135.98 L 158.91 134.92 C 159.18 134.03 158.68 133.10 157.79 132.84 C 156.91 132.57 155.98 133.07 155.71 133.96 Z M 155.39 135.04 L 155.12 135.96 C 154.86 136.85 155.38 137.78 156.26 138.03 C 157.15 138.29 158.08 137.78 158.34 136.89 L 158.60 135.97 C 158.86 135.08 158.35 134.15 157.46 133.89 C 156.57 133.64 155.64 134.15 155.39 135.04 Z M 155.12 135.95 L 154.83 136.96 C 154.56 137.85 155.07 138.78 155.96 139.04 C 156.85 139.30 157.78 138.79 158.04 137.90 L 158.33 136.90 C 158.59 136.01 158.09 135.08 157.20 134.82 C 156.31 134.56 155.38 135.07 155.12 135.95 Z M 154.83 136.94 L 154.52 137.95 C 154.25 138.84 154.75 139.78 155.64 140.05 C 156.52 140.32 157.46 139.82 157.73 138.93 L 158.04 137.92 C 158.31 137.04 157.81 136.10 156.92 135.83 C 156.04 135.56 155.10 136.06 154.83 136.94 Z M 154.53 137.92 L 154.18 138.99 C 153.89 139.87 154.38 140.81 155.26 141.10 C 156.14 141.39 157.08 140.91 157.37 140.03 L 157.72 138.96 C 158.01 138.08 157.53 137.13 156.64 136.85 C 155.76 136.56 154.82 137.04 154.53 137.92 Z M 154.19 138.96 L 153.86 139.91 C 153.56 140.79 154.02 141.74 154.89 142.05 C 155.77 142.35 156.72 141.89 157.03 141.02 L 157.36 140.06 C 157.67 139.18 157.20 138.23 156.33 137.92 C 155.45 137.62 154.50 138.08 154.19 138.96 Z M 153.87 139.89 L 153.56 140.73 C 153.25 141.60 153.70 142.56 154.57 142.88 C 155.44 143.19 156.40 142.74 156.72 141.87 L 157.02 141.04 C 157.34 140.17 156.89 139.20 156.02 138.89 C 155.15 138.57 154.18 139.02 153.87 139.89 Z M 153.57 140.71 L 153.21 141.68 C 152.88 142.55 153.32 143.51 154.19 143.84 C 155.06 144.16 156.02 143.72 156.35 142.86 L 156.71 141.89 C 157.04 141.02 156.60 140.05 155.73 139.73 C 154.86 139.40 153.89 139.84 153.57 140.71 Z M 153.21 141.66 L 152.87 142.55 C 152.53 143.41 152.96 144.39 153.83 144.72 C 154.69 145.05 155.66 144.63 155.99 143.76 L 156.34 142.87 C 156.67 142.01 156.25 141.04 155.38 140.70 C 154.52 140.37 153.55 140.80 153.21 141.66 Z M 152.88 142.53 L 152.52 143.43 C 152.17 144.29 152.59 145.26 153.45 145.61 C 154.31 145.95 155.28 145.54 155.63 144.68 L 155.99 143.78 C 156.33 142.92 155.91 141.95 155.06 141.60 C 154.20 141.26 153.22 141.68 152.88 142.53 Z M 152.53 143.41 L 152.14 144.35 C 151.79 145.20 152.19 146.18 153.05 146.54 C 153.90 146.89 154.88 146.48 155.23 145.63 L 155.62 144.69 C 155.97 143.84 155.57 142.86 154.71 142.51 C 153.86 142.15 152.88 142.56 152.53 143.41 Z M 152.15 144.33 L 151.75 145.26 C 151.39 146.11 151.78 147.09 152.63 147.45 C 153.48 147.82 154.46 147.42 154.83 146.57 L 155.22 145.65 C 155.59 144.80 155.19 143.82 154.34 143.45 C 153.49 143.09 152.51 143.48 152.15 144.33 Z M 151.76 145.24 L 151.36 146.15 C 150.98 146.99 151.36 147.98 152.21 148.35 C 153.05 148.73 154.04 148.35 154.41 147.50 L 154.82 146.59 C 155.19 145.75 154.81 144.76 153.97 144.39 C 153.13 144.01 152.14 144.39 151.76 145.24 Z M 151.37 146.12 L 150.95 147.03 C 150.56 147.87 150.93 148.86 151.76 149.25 C 152.60 149.63 153.59 149.27 153.98 148.43 L 154.40 147.53 C 154.79 146.69 154.42 145.70 153.59 145.31 C 152.75 144.92 151.76 145.29 151.37 146.12 Z M 150.96 147.01 L 150.54 147.90 C 150.14 148.73 150.49 149.73 151.32 150.12 C 152.15 150.52 153.15 150.17 153.54 149.34 L 153.97 148.45 C 154.37 147.62 154.01 146.63 153.18 146.23 C 152.35 145.83 151.36 146.18 150.96 147.01 Z M 150.54 147.89 L 150.10 148.81 C 149.69 149.63 150.04 150.63 150.86 151.03 C 151.69 151.43 152.68 151.09 153.09 150.27 L 153.53 149.35 C 153.94 148.52 153.60 147.53 152.77 147.12 C 151.94 146.72 150.95 147.06 150.54 147.89 Z M 150.10 148.80 L 149.67 149.68 C 149.26 150.51 149.60 151.50 150.42 151.91 C 151.24 152.31 152.24 151.98 152.64 151.15 L 153.08 150.27 C 153.49 149.45 153.15 148.45 152.33 148.05 C 151.50 147.64 150.51 147.98 150.10 148.80 Z M 149.68 149.67 L 149.23 150.57 C 148.82 151.38 149.14 152.38 149.96 152.79 C 150.77 153.20 151.77 152.87 152.18 152.06 L 152.63 151.16 C 153.04 150.35 152.72 149.35 151.90 148.94 C 151.09 148.53 150.09 148.86 149.68 149.67 Z M 149.25 150.55 L 148.77 151.45 C 148.35 152.25 148.66 153.25 149.47 153.67 C 150.27 154.09 151.27 153.78 151.69 152.98 L 152.16 152.08 C 152.59 151.27 152.28 150.28 151.47 149.86 C 150.67 149.43 149.67 149.74 149.25 150.55 Z M 148.80 151.42 L 148.32 152.29 C 147.88 153.08 148.17 154.08 148.96 154.52 C 149.76 154.95 150.75 154.67 151.19 153.87 L 151.67 153.00 C 152.11 152.21 151.82 151.21 151.03 150.78 C 150.23 150.34 149.23 150.63 148.80 151.42 Z M 148.34 152.26 L 147.84 153.14 C 147.39 153.92 147.66 154.92 148.44 155.37 C 149.22 155.82 150.22 155.55 150.67 154.76 L 151.17 153.89 C 151.62 153.11 151.35 152.11 150.57 151.66 C 149.79 151.21 148.79 151.48 148.34 152.26 Z M 147.85 153.12 L 147.34 153.98 C 146.88 154.75 147.14 155.75 147.91 156.21 C 148.69 156.67 149.69 156.42 150.14 155.64 L 150.66 154.78 C 151.11 154.01 150.86 153.01 150.09 152.55 C 149.31 152.09 148.31 152.34 147.85 153.12 Z M 147.35 153.96 L 146.84 154.81 C 146.37 155.58 146.61 156.58 147.38 157.05 C 148.15 157.51 149.15 157.27 149.62 156.50 L 150.13 155.66 C 150.60 154.89 150.36 153.89 149.59 153.42 C 148.82 152.95 147.82 153.20 147.35 153.96 Z M 146.85 154.79 L 146.32 155.65 C 145.84 156.41 146.07 157.41 146.83 157.89 C 147.59 158.36 148.59 158.13 149.07 157.37 L 149.60 156.52 C 150.08 155.76 149.85 154.76 149.09 154.28 C 148.33 153.80 147.33 154.03 146.85 154.79 Z M 146.33 155.63 L 145.78 156.49 C 145.29 157.24 145.51 158.25 146.26 158.73 C 147.02 159.22 148.02 159.00 148.51 158.24 L 149.06 157.39 C 149.54 156.63 149.33 155.63 148.57 155.14 C 147.82 154.66 146.81 154.88 146.33 155.63 Z M 145.79 156.47 L 145.23 157.32 C 144.74 158.07 144.94 159.07 145.69 159.57 C 146.44 160.06 147.45 159.85 147.94 159.11 L 148.50 158.26 C 148.99 157.51 148.78 156.50 148.04 156.01 C 147.29 155.52 146.28 155.72 145.79 156.47 Z M 145.24 157.30 L 144.68 158.13 C 144.18 158.87 144.37 159.88 145.12 160.38 C 145.86 160.88 146.87 160.69 147.37 159.95 L 147.93 159.12 C 148.43 158.38 148.24 157.37 147.49 156.87 C 146.75 156.37 145.74 156.56 145.24 157.30 Z M 144.70 158.11 L 144.11 158.94 C 143.60 159.67 143.78 160.69 144.51 161.20 C 145.25 161.71 146.26 161.53 146.77 160.80 L 147.36 159.97 C 147.87 159.23 147.69 158.22 146.96 157.71 C 146.22 157.19 145.21 157.37 144.70 158.11 Z M 144.13 158.92 L 143.54 159.73 C 143.01 160.46 143.17 161.48 143.90 162.00 C 144.63 162.53 145.64 162.36 146.17 161.64 L 146.76 160.82 C 147.29 160.09 147.12 159.08 146.40 158.55 C 145.67 158.03 144.65 158.19 144.13 158.92 Z M 143.55 159.72 L 142.97 160.49 C 142.44 161.21 142.59 162.23 143.31 162.77 C 144.03 163.30 145.05 163.15 145.59 162.43 L 146.16 161.65 C 146.69 160.93 146.54 159.91 145.82 159.38 C 145.10 158.84 144.08 159.00 143.55 159.72 Z M 142.98 160.48 L 142.37 161.29 C 141.83 162.01 141.97 163.03 142.69 163.57 C 143.41 164.11 144.43 163.97 144.97 163.25 L 145.58 162.44 C 146.12 161.72 145.98 160.70 145.26 160.16 C 144.54 159.62 143.52 159.76 142.98 160.48 Z M 142.38 161.28 L 141.77 162.07 C 141.23 162.78 141.36 163.80 142.07 164.35 C 142.79 164.90 143.81 164.76 144.35 164.05 L 144.96 163.26 C 145.50 162.55 145.37 161.53 144.66 160.98 C 143.94 160.43 142.92 160.57 142.38 161.28 Z M 141.79 162.06 L 141.17 162.85 C 140.61 163.55 140.73 164.57 141.44 165.13 C 142.14 165.68 143.16 165.56 143.72 164.85 L 144.34 164.06 C 144.89 163.36 144.77 162.34 144.07 161.78 C 143.36 161.23 142.34 161.35 141.79 162.06 Z M 141.19 162.83 L 140.55 163.60 C 139.99 164.29 140.09 165.31 140.78 165.88 C 141.48 166.44 142.49 166.34 143.06 165.65 L 143.69 164.87 C 144.26 164.18 144.16 163.16 143.47 162.60 C 142.77 162.03 141.75 162.13 141.19 162.83 Z M 140.59 163.57 L 139.94 164.32 C 139.36 165.00 139.43 166.01 140.11 166.59 C 140.78 167.18 141.79 167.10 142.38 166.43 L 143.02 165.68 C 143.61 165.01 143.53 163.99 142.86 163.41 C 142.19 162.83 141.17 162.90 140.59 163.57 Z M 139.98 164.29 L 139.30 165.04 C 138.70 165.69 138.74 166.70 139.39 167.30 C 140.05 167.89 141.06 167.85 141.66 167.20 L 142.34 166.46 C 142.93 165.81 142.89 164.80 142.24 164.20 C 141.59 163.60 140.58 163.64 139.98 164.29 Z M 139.32 165.02 L 138.67 165.72 C 138.06 166.35 138.09 167.36 138.73 167.96 C 139.36 168.57 140.37 168.54 140.97 167.90 L 141.63 167.21 C 142.23 166.58 142.21 165.57 141.57 164.97 C 140.93 164.36 139.93 164.39 139.32 165.02 Z M 138.70 165.70 L 138.03 166.38 C 137.42 167.01 137.42 168.00 138.05 168.61 C 138.67 169.23 139.67 169.22 140.28 168.60 L 140.95 167.92 C 141.56 167.29 141.55 166.30 140.93 165.68 C 140.31 165.07 139.31 165.08 138.70 165.70 Z M 138.08 166.35 L 137.31 167.08 C 136.68 167.67 136.65 168.66 137.25 169.29 C 137.84 169.92 138.83 169.95 139.46 169.35 L 140.23 168.63 C 140.86 168.03 140.88 167.04 140.29 166.41 C 139.69 165.79 138.70 165.76 138.08 166.35 Z M 137.36 167.05 L 136.60 167.72 C 135.96 168.28 135.89 169.26 136.46 169.91 C 137.03 170.55 138.01 170.62 138.65 170.05 L 139.41 169.38 C 140.06 168.82 140.12 167.83 139.55 167.19 C 138.99 166.55 138.00 166.48 137.36 167.05 Z M 136.66 167.68 L 135.86 168.32 C 135.20 168.85 135.09 169.82 135.62 170.48 C 136.15 171.15 137.12 171.26 137.79 170.73 L 138.59 170.09 C 139.26 169.56 139.37 168.58 138.83 167.92 C 138.30 167.25 137.33 167.14 136.66 167.68 Z M 136.00 168.24 L 134.97 168.90 C 134.26 169.36 134.06 170.31 134.52 171.01 C 134.98 171.72 135.93 171.93 136.64 171.47 L 137.66 170.81 C 138.37 170.35 138.57 169.40 138.11 168.69 C 137.65 167.98 136.71 167.78 136.00 168.24 Z M 135.46 168.71 L 134.77 168.88 C 133.96 169.07 133.46 169.88 133.65 170.69 C 133.84 171.51 134.65 172.01 135.47 171.82 L 136.15 171.65 C 136.96 171.46 137.47 170.65 137.27 169.84 C 137.08 169.02 136.27 168.52 135.46 168.71 Z M 136.48 170.92 L 136.77 170.22 C 137.09 169.46 136.73 168.60 135.98 168.28 C 135.23 167.97 134.36 168.32 134.05 169.08 L 133.75 169.78 C 133.44 170.53 133.80 171.39 134.55 171.71 C 135.30 172.02 136.17 171.67 136.48 170.92 Z M 136.60 170.46 L 137.05 169.80 C 137.50 169.14 137.33 168.25 136.67 167.80 C 136.02 167.35 135.12 167.52 134.67 168.17 L 134.22 168.83 C 133.77 169.49 133.94 170.39 134.60 170.83 C 135.25 171.28 136.15 171.12 136.60 170.46 Z"
      fill="black"
      fill-rule="nonzero" /><path d="M 148.51 153.07 L 148.51 154.07 C 148.51 154.91 149.19 155.59 150.03 155.59 C 150.86 155.59 151.54 154.91 151.54 154.07 L 151.54 153.07 C 151.54 152.23 150.86 151.55 150.03 151.55 C 149.19 151.55 148.51 152.23 148.51 153.07 Z M 148.44 154.07 L 148.44 155.07 C 148.44 155.95 149.15 156.65 150.03 156.65 C 150.90 156.65 151.61 155.95 151.61 155.07 L 151.61 154.07 C 151.61 153.20 150.90 152.49 150.03 152.49 C 149.15 152.49 148.44 153.20 148.44 154.07 Z M 148.39 155.07 L 148.39 156.10 C 148.39 157.00 149.12 157.73 150.03 157.73 C 150.93 157.73 151.66 157.00 151.66 156.10 L 151.66 155.07 C 151.66 154.17 150.93 153.44 150.02 153.44 C 149.12 153.44 148.39 154.17 148.39 155.07 Z M 148.38 156.11 L 148.38 157.13 C 148.39 158.04 149.13 158.77 150.03 158.77 C 150.94 158.76 151.68 158.02 151.68 157.11 L 151.67 156.09 C 151.67 155.19 150.93 154.45 150.02 154.45 C 149.11 154.46 148.38 155.20 148.38 156.11 Z M 148.38 157.14 L 148.40 158.12 C 148.41 159.03 149.16 159.76 150.07 159.74 C 150.98 159.73 151.70 158.98 151.69 158.07 L 151.68 157.10 C 151.66 156.19 150.91 155.46 150.00 155.47 C 149.10 155.49 148.37 156.24 148.38 157.14 Z M 148.40 158.15 L 148.43 159.15 C 148.46 160.06 149.22 160.77 150.12 160.74 C 151.03 160.72 151.74 159.96 151.72 159.05 L 151.69 158.05 C 151.66 157.14 150.90 156.43 149.99 156.46 C 149.09 156.48 148.37 157.24 148.40 158.15 Z M 148.44 159.14 L 148.46 160.09 C 148.48 161.00 149.23 161.71 150.13 161.69 C 151.04 161.67 151.75 160.92 151.73 160.02 L 151.71 159.06 C 151.69 158.16 150.94 157.45 150.04 157.47 C 149.13 157.49 148.42 158.24 148.44 159.14 Z M 148.47 160.07 L 148.48 161.08 C 148.49 161.98 149.23 162.70 150.12 162.69 C 151.02 162.68 151.74 161.94 151.73 161.04 L 151.72 160.04 C 151.71 159.14 150.98 158.42 150.08 158.43 C 149.18 158.44 148.46 159.18 148.47 160.07 Z M 148.49 161.09 L 148.51 162.09 C 148.52 162.98 149.26 163.69 150.16 163.67 C 151.05 163.65 151.76 162.92 151.74 162.02 L 151.72 161.03 C 151.71 160.13 150.97 159.42 150.07 159.44 C 149.18 159.46 148.47 160.20 148.49 161.09 Z M 148.51 162.09 L 148.54 163.10 C 148.56 163.99 149.30 164.70 150.19 164.68 C 151.08 164.66 151.78 163.92 151.76 163.03 L 151.74 162.02 C 151.72 161.13 150.98 160.42 150.09 160.44 C 149.20 160.46 148.49 161.20 148.51 162.09 Z M 148.54 163.08 L 148.55 164.08 C 148.56 164.97 149.29 165.68 150.18 165.67 C 151.07 165.66 151.78 164.93 151.77 164.05 L 151.76 163.05 C 151.74 162.16 151.02 161.45 150.13 161.46 C 149.24 161.47 148.53 162.20 148.54 163.08 Z M 148.56 164.07 L 148.56 165.07 C 148.56 165.96 149.28 166.67 150.17 166.67 C 151.05 166.67 151.77 165.95 151.76 165.06 L 151.76 164.06 C 151.76 163.18 151.04 162.46 150.16 162.46 C 149.27 162.47 148.56 163.18 148.56 164.07 Z M 148.57 165.07 L 148.57 166.08 C 148.57 166.96 149.28 167.67 150.16 167.67 C 151.04 167.67 151.76 166.96 151.76 166.08 L 151.76 165.07 C 151.76 164.19 151.04 163.47 150.16 163.47 C 149.28 163.47 148.57 164.19 148.57 165.07 Z M 148.57 166.08 L 148.57 167.07 C 148.57 167.95 149.28 168.66 150.16 168.66 C 151.04 168.66 151.75 167.95 151.75 167.07 L 151.75 166.08 C 151.75 165.20 151.04 164.49 150.16 164.49 C 149.28 164.49 148.57 165.20 148.57 166.08 Z M 148.58 167.07 L 148.58 168.07 C 148.58 168.95 149.29 169.65 150.16 169.65 C 151.04 169.65 151.75 168.95 151.75 168.07 L 151.75 167.07 C 151.75 166.20 151.04 165.49 150.16 165.49 C 149.29 165.49 148.58 166.20 148.58 167.07 Z M 148.58 168.07 L 148.58 169.07 C 148.58 169.94 149.29 170.65 150.16 170.65 C 151.04 170.65 151.74 169.94 151.74 169.07 L 151.74 168.07 C 151.74 167.20 151.04 166.49 150.16 166.49 C 149.29 166.49 148.58 167.20 148.58 168.07 Z M 148.59 169.07 L 148.59 170.09 C 148.59 170.96 149.29 171.66 150.16 171.66 C 151.03 171.66 151.73 170.96 151.73 170.09 L 151.73 169.07 C 151.73 168.20 151.03 167.50 150.16 167.50 C 149.29 167.50 148.59 168.20 148.59 169.07 Z M 148.60 170.09 L 148.60 171.07 C 148.60 171.93 149.30 172.63 150.16 172.63 C 151.02 172.63 151.72 171.93 151.72 171.07 L 151.72 170.09 C 151.72 169.23 151.02 168.53 150.16 168.53 C 149.30 168.53 148.60 169.23 148.60 170.09 Z M 148.62 171.07 L 148.62 172.05 C 148.62 172.90 149.31 173.59 150.16 173.59 C 151.02 173.59 151.71 172.90 151.71 172.05 L 151.71 171.07 C 151.71 170.22 151.02 169.52 150.16 169.52 C 149.31 169.52 148.62 170.22 148.62 171.07 Z M 148.63 172.05 L 148.63 173.05 C 148.63 173.90 149.31 174.59 150.16 174.59 C 151.01 174.59 151.70 173.90 151.70 173.05 L 151.70 172.05 C 151.70 171.20 151.01 170.51 150.16 170.51 C 149.32 170.51 148.63 171.20 148.63 172.05 Z M 148.64 173.04 L 148.63 174.05 C 148.62 174.89 149.29 175.58 150.14 175.59 C 150.98 175.60 151.67 174.92 151.68 174.08 L 151.69 173.07 C 151.70 172.22 151.02 171.54 150.18 171.53 C 149.34 171.52 148.65 172.19 148.64 173.04 Z M 148.64 173.99 L 148.59 175.17 C 148.54 176.00 149.19 176.71 150.02 176.75 C 150.85 176.79 151.56 176.15 151.60 175.32 L 151.66 174.14 C 151.70 173.31 151.06 172.60 150.23 172.56 C 149.39 172.52 148.68 173.16 148.64 173.99 Z M 148.63 175.01 L 148.52 175.68 C 148.39 176.49 148.94 177.25 149.75 177.38 C 150.57 177.51 151.33 176.96 151.45 176.15 L 151.56 175.48 C 151.69 174.67 151.14 173.90 150.33 173.78 C 149.52 173.65 148.76 174.20 148.63 175.01 Z M 151.44 175.88 L 151.41 174.85 C 151.39 174.05 150.73 173.42 149.93 173.44 C 149.13 173.46 148.49 174.12 148.51 174.92 L 148.54 175.95 C 148.56 176.75 149.22 177.38 150.02 177.36 C 150.82 177.34 151.46 176.68 151.44 175.88 Z M 151.39 174.88 L 151.39 174.73 C 151.39 173.94 150.75 173.30 149.96 173.30 C 149.17 173.30 148.54 173.94 148.54 174.73 L 148.54 174.89 C 148.54 175.67 149.17 176.31 149.96 176.31 C 150.75 176.31 151.39 175.67 151.39 174.88 Z"
      fill="black"
      fill-rule="nonzero" /><path d="M 150.91 156.30 L 151.85 156.25 C 152.72 156.20 153.39 155.45 153.33 154.58 C 153.28 153.71 152.53 153.04 151.66 153.09 L 150.72 153.15 C 149.85 153.20 149.18 153.95 149.24 154.82 C 149.29 155.69 150.04 156.36 150.91 156.30 Z M 151.44 156.28 L 152.46 156.48 C 153.35 156.66 154.21 156.08 154.39 155.19 C 154.56 154.30 153.99 153.44 153.10 153.27 L 152.07 153.06 C 151.19 152.89 150.33 153.47 150.15 154.35 C 149.97 155.24 150.55 156.10 151.44 156.28 Z M 152.03 156.36 L 152.85 156.77 C 153.67 157.19 154.67 156.86 155.09 156.04 C 155.50 155.22 155.17 154.22 154.35 153.80 L 153.53 153.39 C 152.71 152.97 151.71 153.30 151.30 154.12 C 150.88 154.94 151.21 155.94 152.03 156.36 Z M 152.69 156.67 L 153.55 157.24 C 154.31 157.75 155.34 157.54 155.85 156.77 C 156.35 156.01 156.14 154.98 155.38 154.47 L 154.51 153.90 C 153.75 153.40 152.72 153.61 152.22 154.37 C 151.71 155.14 151.92 156.17 152.69 156.67 Z M 153.51 157.20 L 154.38 157.82 C 155.13 158.35 156.16 158.18 156.68 157.43 C 157.21 156.69 157.04 155.66 156.29 155.13 L 155.42 154.51 C 154.67 153.98 153.64 154.16 153.12 154.90 C 152.59 155.65 152.76 156.68 153.51 157.20 Z M 154.41 157.81 L 155.29 158.42 C 156.03 158.93 157.04 158.75 157.55 158.01 C 158.06 157.27 157.88 156.26 157.14 155.75 L 156.26 155.14 C 155.53 154.63 154.51 154.81 154.00 155.55 C 153.49 156.29 153.67 157.30 154.41 157.81 Z M 155.32 158.40 L 156.12 158.94 C 156.84 159.43 157.83 159.24 158.32 158.51 C 158.81 157.78 158.62 156.80 157.89 156.31 L 157.10 155.77 C 156.38 155.28 155.39 155.47 154.90 156.20 C 154.41 156.92 154.60 157.91 155.32 158.40 Z M 156.15 158.91 L 156.99 159.48 C 157.70 159.95 158.67 159.76 159.14 159.04 C 159.62 158.33 159.42 157.37 158.71 156.89 L 157.86 156.33 C 157.15 155.85 156.19 156.05 155.71 156.76 C 155.24 157.48 155.43 158.44 156.15 158.91 Z M 157.00 159.45 L 157.79 159.98 C 158.49 160.44 159.44 160.26 159.90 159.56 C 160.37 158.86 160.18 157.91 159.48 157.44 L 158.70 156.92 C 158.00 156.45 157.05 156.64 156.58 157.34 C 156.12 158.04 156.30 158.98 157.00 159.45 Z M 157.78 159.94 L 158.57 160.49 C 159.25 160.97 160.19 160.80 160.66 160.12 C 161.14 159.44 160.97 158.50 160.29 158.03 L 159.49 157.48 C 158.81 157.00 157.88 157.17 157.40 157.85 C 156.93 158.53 157.10 159.47 157.78 159.94 Z M 158.59 160.49 L 159.43 161.06 C 160.11 161.53 161.03 161.35 161.50 160.68 C 161.96 160.00 161.79 159.07 161.11 158.61 L 160.27 158.03 C 159.59 157.57 158.67 157.74 158.20 158.42 C 157.74 159.10 157.91 160.02 158.59 160.49 Z M 159.47 161.07 L 160.30 161.62 C 160.99 162.06 161.90 161.87 162.34 161.19 C 162.79 160.50 162.59 159.59 161.91 159.15 L 161.07 158.60 C 160.39 158.16 159.48 158.35 159.04 159.03 C 158.59 159.71 158.78 160.63 159.47 161.07 Z M 160.32 161.61 L 161.17 162.15 C 161.85 162.59 162.75 162.39 163.19 161.71 C 163.62 161.04 163.42 160.13 162.75 159.70 L 161.90 159.15 C 161.22 158.72 160.31 158.91 159.88 159.59 C 159.44 160.27 159.64 161.17 160.32 161.61 Z M 161.17 162.14 L 162.01 162.69 C 162.69 163.12 163.58 162.92 164.02 162.25 C 164.45 161.58 164.25 160.68 163.58 160.25 L 162.74 159.71 C 162.07 159.28 161.17 159.47 160.74 160.14 C 160.31 160.82 160.50 161.71 161.17 162.14 Z M 162.04 162.69 L 162.88 163.22 C 163.56 163.64 164.45 163.43 164.87 162.76 C 165.29 162.08 165.08 161.19 164.41 160.77 L 163.56 160.25 C 162.89 159.83 162.00 160.03 161.58 160.71 C 161.16 161.38 161.36 162.27 162.04 162.69 Z M 162.90 163.22 L 163.76 163.74 C 164.44 164.15 165.32 163.93 165.73 163.26 C 166.14 162.58 165.92 161.70 165.24 161.29 L 164.39 160.77 C 163.71 160.36 162.83 160.58 162.42 161.25 C 162.01 161.93 162.23 162.81 162.90 163.22 Z M 163.76 163.73 L 164.61 164.26 C 165.28 164.67 166.16 164.46 166.57 163.79 C 166.99 163.12 166.78 162.24 166.11 161.82 L 165.25 161.30 C 164.58 160.88 163.70 161.09 163.29 161.77 C 162.87 162.44 163.08 163.32 163.76 163.73 Z M 164.59 164.24 L 165.43 164.78 C 166.10 165.20 166.98 165.00 167.40 164.34 C 167.82 163.67 167.63 162.79 166.96 162.37 L 166.12 161.84 C 165.46 161.41 164.58 161.61 164.15 162.28 C 163.73 162.94 163.93 163.82 164.59 164.24 Z M 165.43 164.77 L 165.54 164.84 C 166.20 165.26 167.08 165.07 167.50 164.41 C 167.93 163.74 167.73 162.86 167.07 162.44 L 166.96 162.37 C 166.30 161.95 165.42 162.14 165.00 162.80 C 164.57 163.47 164.77 164.35 165.43 164.77 Z"
      fill="black"
      fill-rule="nonzero" /></svg>