<svg xmlns="http://www.w3.org/2000/svg" width="300" height="300" viewBox="0 0 300 300">
<path d="M 150.64 146.85 L 149.68 146.88 C 148.83 146.90 148.16 147.61 148.19 148.46 C 148.21 149.31 148.92 149.98 149.77 149.95 L 150.73 149.93 C 151.58 149.90 152.25 149.19 152.23 148.35 C 152.20 147.50 151.49 146.83 150.64 146.85 Z M 149.45 146.90 L 148.46 147.07 C 147.62 147.22 147.06 148.02 147.21 148.86 C 147.36 149.70 148.16 150.26 149.00 150.11 L 149.99 149.94 C 150.83 149.79 151.39 148.99 151.24 148.15 C 151.10 147.31 150.29 146.75 149.45 146.90 Z M 148.22 147.13 L 147.29 147.45 C 146.49 147.73 146.06 148.61 146.34 149.42 C 146.62 150.22 147.50 150.65 148.30 150.37 L 149.23 150.05 C 150.04 149.77 150.47 148.89 150.19 148.09 C 149.91 147.28 149.03 146.85 148.22 147.13 Z M 147.18 147.50 L 146.23 147.92 C 145.45 148.26 145.10 149.17 145.44 149.95 C 145.79 150.73 146.70 151.08 147.48 150.74 L 148.42 150.32 C 149.20 149.98 149.55 149.07 149.21 148.29 C 148.87 147.51 147.96 147.16 147.18 147.50 Z M 146.16 147.95 L 145.30 148.39 C 144.54 148.77 144.23 149.70 144.61 150.46 C 145.00 151.22 145.92 151.52 146.68 151.14 L 147.55 150.71 C 148.31 150.32 148.61 149.40 148.23 148.64 C 147.85 147.88 146.92 147.57 146.16 147.95 Z M 145.23 148.43 L 144.34 148.93 C 143.60 149.35 143.35 150.29 143.77 151.03 C 144.19 151.77 145.13 152.03 145.87 151.61 L 146.75 151.10 C 147.49 150.68 147.75 149.74 147.33 149.00 C 146.91 148.26 145.97 148.01 145.23 148.43 Z M 144.28 148.97 L 143.41 149.52 C 142.69 149.97 142.48 150.93 142.94 151.65 C 143.39 152.36 144.34 152.58 145.06 152.12 L 145.93 151.57 C 146.65 151.11 146.86 150.16 146.41 149.44 C 145.95 148.73 145.00 148.51 144.28 148.97 Z M 143.37 149.54 L 142.52 150.12 C 141.82 150.60 141.63 151.56 142.11 152.26 C 142.59 152.97 143.55 153.15 144.26 152.67 L 145.10 152.10 C 145.81 151.62 145.99 150.66 145.51 149.95 C 145.03 149.25 144.08 149.06 143.37 149.54 Z M 142.50 150.13 L 141.69 150.70 C 140.99 151.20 140.82 152.16 141.31 152.86 C 141.81 153.55 142.77 153.72 143.47 153.23 L 144.28 152.66 C 144.98 152.17 145.14 151.20 144.65 150.51 C 144.16 149.81 143.20 149.64 142.50 150.13 Z M 141.67 150.72 L 140.83 151.33 C 140.13 151.83 139.98 152.80 140.48 153.49 C 140.99 154.18 141.95 154.33 142.65 153.83 L 143.49 153.22 C 144.18 152.72 144.33 151.75 143.83 151.06 C 143.33 150.37 142.36 150.21 141.67 150.72 Z M 140.79 151.35 L 140.05 151.92 C 139.37 152.44 139.25 153.42 139.77 154.10 C 140.29 154.77 141.27 154.90 141.94 154.38 L 142.68 153.81 C 143.36 153.28 143.49 152.31 142.96 151.63 C 142.44 150.95 141.47 150.83 140.79 151.35 Z M 140.00 151.95 L 139.24 152.59 C 138.58 153.14 138.48 154.12 139.03 154.78 C 139.58 155.44 140.56 155.53 141.22 154.98 L 141.99 154.34 C 142.65 153.80 142.74 152.82 142.19 152.16 C 141.64 151.50 140.67 151.40 140.00 151.95 Z M 139.21 152.61 L 138.46 153.27 C 137.81 153.83 137.74 154.81 138.30 155.46 C 138.87 156.11 139.85 156.18 140.50 155.61 L 141.25 154.96 C 141.90 154.39 141.97 153.41 141.40 152.76 C 140.84 152.12 139.85 152.05 139.21 152.61 Z M 138.43 153.29 L 137.69 153.97 C 137.05 154.55 137.01 155.53 137.59 156.17 C 138.17 156.80 139.15 156.85 139.79 156.27 L 140.53 155.59 C 141.16 155.01 141.21 154.02 140.63 153.39 C 140.05 152.75 139.06 152.71 138.43 153.29 Z M 137.64 154.01 L 136.93 154.71 C 136.32 155.31 136.31 156.30 136.91 156.91 C 137.52 157.53 138.51 157.53 139.12 156.93 L 139.83 156.23 C 140.45 155.62 140.45 154.63 139.85 154.02 C 139.24 153.41 138.26 153.40 137.64 154.01 Z M 136.89 154.75 L 136.20 155.48 C 135.61 156.11 135.64 157.10 136.27 157.69 C 136.90 158.27 137.89 158.24 138.48 157.62 L 139.16 156.88 C 139.75 156.26 139.72 155.27 139.09 154.68 C 138.46 154.09 137.48 154.12 136.89 154.75 Z M 136.17 155.52 L 135.51 156.27 C 134.94 156.92 135.00 157.91 135.65 158.47 C 136.30 159.04 137.28 158.98 137.85 158.33 L 138.51 157.58 C 139.08 156.93 139.02 155.94 138.37 155.38 C 137.72 154.81 136.74 154.87 136.17 155.52 Z M 135.47 156.32 L 134.84 157.09 C 134.30 157.76 134.39 158.74 135.06 159.28 C 135.73 159.83 136.71 159.73 137.26 159.06 L 137.89 158.29 C 138.43 157.62 138.33 156.64 137.67 156.09 C 137.00 155.55 136.02 155.65 135.47 156.32 Z M 134.80 157.14 L 134.20 157.93 C 133.68 158.62 133.82 159.60 134.51 160.11 C 135.20 160.63 136.18 160.50 136.69 159.81 L 137.29 159.01 C 137.81 158.33 137.68 157.35 136.99 156.83 C 136.30 156.31 135.32 156.45 134.80 157.14 Z M 134.17 157.97 L 133.61 158.77 C 133.11 159.48 133.28 160.45 133.98 160.95 C 134.68 161.45 135.66 161.28 136.16 160.57 L 136.72 159.77 C 137.22 159.07 137.05 158.09 136.35 157.59 C 135.65 157.10 134.67 157.26 134.17 157.97 Z M 133.57 158.83 L 133.05 159.63 C 132.58 160.36 132.79 161.32 133.52 161.79 C 134.25 162.26 135.21 162.05 135.68 161.32 L 136.20 160.52 C 136.66 159.79 136.45 158.83 135.73 158.36 C 135.00 157.89 134.03 158.10 133.57 158.83 Z M 132.98 159.74 L 132.49 160.67 C 132.09 161.43 132.38 162.38 133.14 162.78 C 133.90 163.19 134.85 162.90 135.26 162.14 L 135.75 161.21 C 136.15 160.45 135.86 159.50 135.10 159.09 C 134.34 158.69 133.39 158.98 132.98 159.74 Z M 132.44 160.79 L 132.05 161.68 C 131.71 162.48 132.08 163.40 132.87 163.74 C 133.67 164.08 134.59 163.71 134.93 162.91 L 135.31 162.02 C 135.65 161.22 135.28 160.30 134.49 159.96 C 133.70 159.62 132.78 159.99 132.44 160.79 Z M 132.01 161.79 L 131.68 162.76 C 131.40 163.58 131.83 164.47 132.65 164.75 C 133.47 165.03 134.36 164.60 134.64 163.78 L 134.97 162.80 C 135.25 161.99 134.82 161.10 134.00 160.82 C 133.18 160.54 132.29 160.97 132.01 161.79 Z M 131.64 162.90 L 131.39 163.89 C 131.18 164.73 131.70 165.58 132.54 165.79 C 133.38 165.99 134.23 165.48 134.43 164.64 L 134.68 163.65 C 134.88 162.81 134.37 161.96 133.53 161.75 C 132.69 161.54 131.84 162.06 131.64 162.90 Z M 131.36 164.03 L 131.21 165.02 C 131.08 165.88 131.67 166.67 132.53 166.80 C 133.38 166.93 134.18 166.34 134.31 165.49 L 134.46 164.50 C 134.59 163.64 134.00 162.85 133.15 162.72 C 132.29 162.59 131.49 163.18 131.36 164.03 Z M 131.20 165.13 L 131.12 166.11 C 131.05 166.98 131.69 167.73 132.56 167.80 C 133.42 167.87 134.17 167.23 134.24 166.37 L 134.32 165.38 C 134.39 164.52 133.75 163.76 132.89 163.69 C 132.03 163.62 131.27 164.27 131.20 165.13 Z M 131.12 166.19 L 131.09 167.22 C 131.06 168.08 131.74 168.81 132.61 168.83 C 133.47 168.86 134.19 168.18 134.22 167.31 L 134.25 166.29 C 134.27 165.42 133.59 164.70 132.73 164.67 C 131.86 164.65 131.14 165.33 131.12 166.19 Z M 131.09 167.34 L 131.14 168.34 C 131.18 169.21 131.91 169.87 132.78 169.83 C 133.64 169.79 134.31 169.05 134.27 168.19 L 134.22 167.19 C 134.17 166.32 133.44 165.66 132.57 165.70 C 131.71 165.74 131.04 166.48 131.09 167.34 Z M 131.16 168.56 L 131.35 169.52 C 131.51 170.37 132.33 170.93 133.18 170.77 C 134.03 170.60 134.59 169.78 134.43 168.93 L 134.24 167.97 C 134.08 167.12 133.26 166.56 132.41 166.73 C 131.56 166.89 131.00 167.71 131.16 168.56 Z M 131.43 169.82 L 131.81 170.74 C 132.14 171.54 133.05 171.92 133.85 171.59 C 134.66 171.27 135.04 170.35 134.71 169.55 L 134.34 168.63 C 134.01 167.83 133.09 167.45 132.29 167.77 C 131.49 168.10 131.11 169.02 131.43 169.82 Z M 131.95 171.01 L 132.50 171.84 C 132.98 172.56 133.96 172.76 134.68 172.28 C 135.40 171.80 135.60 170.82 135.12 170.10 L 134.57 169.27 C 134.09 168.55 133.11 168.36 132.39 168.84 C 131.67 169.31 131.47 170.29 131.95 171.01 Z M 132.65 172.03 L 133.29 172.72 C 133.87 173.36 134.86 173.40 135.50 172.82 C 136.14 172.23 136.19 171.24 135.60 170.60 L 134.97 169.91 C 134.38 169.27 133.39 169.23 132.75 169.81 C 132.11 170.40 132.07 171.39 132.65 172.03 Z M 133.41 172.84 L 134.18 173.51 C 134.83 174.08 135.82 174.01 136.39 173.36 C 136.96 172.71 136.89 171.72 136.24 171.15 L 135.48 170.48 C 134.82 169.91 133.83 169.98 133.26 170.63 C 132.69 171.28 132.76 172.27 133.41 172.84 Z M 134.28 173.59 L 135.13 174.22 C 135.83 174.74 136.81 174.59 137.33 173.90 C 137.84 173.20 137.69 172.22 137.00 171.70 L 136.14 171.07 C 135.45 170.56 134.47 170.70 133.95 171.40 C 133.44 172.09 133.58 173.08 134.28 173.59 Z M 135.20 174.27 L 136.07 174.85 C 136.80 175.33 137.77 175.13 138.25 174.41 C 138.72 173.68 138.53 172.71 137.80 172.23 L 136.93 171.66 C 136.21 171.18 135.24 171.38 134.76 172.10 C 134.28 172.82 134.48 173.79 135.20 174.27 Z M 136.13 174.88 L 136.97 175.39 C 137.71 175.84 138.68 175.60 139.12 174.86 C 139.57 174.12 139.33 173.15 138.59 172.71 L 137.75 172.20 C 137.01 171.75 136.04 171.99 135.60 172.73 C 135.15 173.47 135.39 174.44 136.13 174.88 Z M 137.05 175.43 L 137.98 175.93 C 138.74 176.33 139.69 176.04 140.09 175.28 C 140.50 174.52 140.21 173.57 139.45 173.16 L 138.52 172.67 C 137.75 172.26 136.81 172.55 136.40 173.31 C 135.99 174.08 136.28 175.03 137.05 175.43 Z M 138.08 175.98 L 138.93 176.35 C 139.73 176.70 140.65 176.34 141.00 175.55 C 141.34 174.76 140.99 173.84 140.20 173.49 L 139.34 173.11 C 138.55 172.77 137.63 173.12 137.28 173.91 C 136.93 174.70 137.29 175.63 138.08 175.98 Z M 138.99 176.37 L 139.88 176.73 C 140.68 177.04 141.59 176.65 141.91 175.85 C 142.23 175.05 141.83 174.14 141.03 173.82 L 140.14 173.47 C 139.34 173.15 138.43 173.55 138.11 174.35 C 137.80 175.15 138.19 176.06 138.99 176.37 Z M 139.94 176.74 L 140.88 177.08 C 141.70 177.37 142.59 176.94 142.88 176.13 C 143.16 175.32 142.74 174.43 141.93 174.14 L 140.98 173.80 C 140.17 173.51 139.27 173.94 138.99 174.75 C 138.70 175.56 139.12 176.46 139.94 176.74 Z M 140.97 177.11 L 141.92 177.39 C 142.75 177.63 143.62 177.15 143.86 176.32 C 144.10 175.50 143.62 174.63 142.80 174.39 L 141.84 174.11 C 141.01 173.87 140.15 174.35 139.91 175.17 C 139.66 176.00 140.14 176.87 140.97 177.11 Z M 142.00 177.41 L 142.97 177.64 C 143.81 177.84 144.65 177.32 144.85 176.49 C 145.05 175.65 144.54 174.80 143.70 174.60 L 142.72 174.37 C 141.89 174.17 141.04 174.69 140.84 175.52 C 140.64 176.36 141.16 177.20 142.00 177.41 Z M 143.05 177.66 L 144.03 177.84 C 144.88 178.00 145.69 177.44 145.85 176.59 C 146.01 175.75 145.45 174.93 144.61 174.77 L 143.62 174.59 C 142.77 174.43 141.96 174.99 141.80 175.83 C 141.64 176.68 142.20 177.50 143.05 177.66 Z M 144.13 177.85 L 145.11 177.97 C 145.97 178.08 146.74 177.47 146.85 176.61 C 146.95 175.76 146.34 174.98 145.49 174.88 L 144.51 174.76 C 143.65 174.65 142.87 175.26 142.77 176.12 C 142.67 176.97 143.27 177.75 144.13 177.85 Z M 145.19 177.98 L 146.20 178.05 C 147.05 178.11 147.80 177.46 147.86 176.61 C 147.92 175.75 147.27 175.01 146.42 174.95 L 145.41 174.87 C 144.55 174.81 143.81 175.46 143.75 176.32 C 143.69 177.17 144.33 177.92 145.19 177.98 Z M 146.24 178.05 L 147.24 178.09 C 148.10 178.13 148.82 177.47 148.86 176.62 C 148.90 175.76 148.24 175.03 147.39 174.99 L 146.38 174.95 C 145.52 174.91 144.80 175.57 144.76 176.43 C 144.72 177.28 145.38 178.01 146.24 178.05 Z M 147.27 178.09 L 148.27 178.12 C 149.12 178.14 149.83 177.47 149.86 176.62 C 149.88 175.76 149.21 175.05 148.36 175.03 L 147.36 175.00 C 146.51 174.97 145.79 175.64 145.77 176.50 C 145.74 177.35 146.42 178.07 147.27 178.09 Z M 148.31 178.12 L 149.32 178.12 C 150.17 178.12 150.87 177.43 150.87 176.58 C 150.87 175.73 150.18 175.03 149.33 175.03 L 148.31 175.03 C 147.46 175.03 146.77 175.72 146.77 176.57 C 146.77 177.42 147.46 178.11 148.31 178.12 Z M 149.43 178.11 L 150.41 178.04 C 151.26 177.98 151.90 177.25 151.84 176.40 C 151.78 175.55 151.05 174.91 150.20 174.97 L 149.22 175.04 C 148.37 175.10 147.73 175.83 147.79 176.68 C 147.85 177.53 148.58 178.17 149.43 178.11 Z M 150.58 178.02 L 151.56 177.85 C 152.39 177.70 152.95 176.90 152.80 176.06 C 152.65 175.22 151.85 174.66 151.01 174.81 L 150.03 174.99 C 149.19 175.14 148.64 175.94 148.79 176.78 C 148.94 177.61 149.74 178.17 150.58 178.02 Z M 151.71 177.81 L 152.67 177.54 C 153.49 177.30 153.96 176.45 153.73 175.64 C 153.49 174.82 152.64 174.34 151.82 174.58 L 150.86 174.85 C 150.05 175.08 149.57 175.93 149.80 176.75 C 150.04 177.57 150.89 178.04 151.71 177.81 Z M 152.79 177.49 L 153.73 177.14 C 154.52 176.84 154.92 175.95 154.62 175.16 C 154.32 174.36 153.43 173.96 152.64 174.26 L 151.70 174.62 C 150.91 174.92 150.51 175.81 150.81 176.60 C 151.11 177.40 152.00 177.79 152.79 177.49 Z M 153.82 177.09 L 154.73 176.68 C 155.50 176.32 155.84 175.41 155.48 174.64 C 155.13 173.87 154.22 173.54 153.45 173.89 L 152.54 174.31 C 151.77 174.66 151.44 175.57 151.79 176.34 C 152.14 177.11 153.06 177.45 153.82 177.09 Z M 154.80 176.64 L 155.69 176.17 C 156.44 175.78 156.72 174.85 156.33 174.10 C 155.94 173.36 155.01 173.07 154.26 173.46 L 153.38 173.93 C 152.63 174.32 152.34 175.25 152.74 176.00 C 153.13 176.74 154.05 177.03 154.80 176.64 Z M 155.73 176.14 L 156.59 175.65 C 157.32 175.23 157.57 174.30 157.16 173.57 C 156.74 172.84 155.81 172.59 155.08 173.00 L 154.22 173.49 C 153.49 173.91 153.24 174.84 153.65 175.57 C 154.07 176.30 155.00 176.56 155.73 176.14 Z M 156.61 175.63 L 157.48 175.11 C 158.20 174.68 158.43 173.75 158.00 173.03 C 157.57 172.31 156.64 172.08 155.92 172.51 L 155.06 173.03 C 154.34 173.45 154.10 174.38 154.53 175.10 C 154.96 175.82 155.89 176.06 156.61 175.63 Z M 157.48 175.10 L 158.35 174.57 C 159.06 174.14 159.29 173.21 158.86 172.50 C 158.42 171.79 157.50 171.56 156.79 171.99 L 155.92 172.52 C 155.21 172.95 154.98 173.88 155.41 174.59 C 155.84 175.30 156.77 175.53 157.48 175.10 Z M 158.37 174.55 L 159.22 174.01 C 159.91 173.57 160.12 172.64 159.68 171.94 C 159.23 171.25 158.31 171.04 157.61 171.48 L 156.77 172.02 C 156.07 172.46 155.86 173.39 156.30 174.09 C 156.75 174.79 157.67 174.99 158.37 174.55 Z M 159.27 173.97 L 160.10 173.39 C 160.78 172.91 160.94 171.98 160.47 171.31 C 160.00 170.63 159.07 170.47 158.39 170.94 L 157.56 171.53 C 156.88 172.00 156.72 172.93 157.19 173.60 C 157.66 174.28 158.59 174.44 159.27 173.97 Z M 160.16 173.34 L 160.93 172.74 C 161.58 172.24 161.69 171.31 161.19 170.66 C 160.69 170.01 159.76 169.89 159.11 170.39 L 158.34 170.99 C 157.69 171.49 157.57 172.43 158.07 173.07 C 158.58 173.72 159.51 173.84 160.16 173.34 Z M 160.97 172.70 L 161.74 172.06 C 162.37 171.54 162.45 170.60 161.93 169.97 C 161.40 169.35 160.47 169.26 159.84 169.79 L 159.07 170.43 C 158.44 170.95 158.36 171.89 158.88 172.52 C 159.40 173.14 160.34 173.23 160.97 172.70 Z M 161.79 172.01 L 162.50 171.36 C 163.10 170.81 163.14 169.87 162.59 169.27 C 162.04 168.67 161.10 168.63 160.50 169.18 L 159.79 169.83 C 159.19 170.39 159.15 171.32 159.70 171.92 C 160.25 172.52 161.19 172.56 161.79 172.01 Z M 162.57 171.29 L 163.23 170.60 C 163.80 170.01 163.78 169.08 163.19 168.51 C 162.60 167.94 161.66 167.96 161.09 168.55 L 160.43 169.24 C 159.87 169.83 159.89 170.77 160.48 171.34 C 161.07 171.90 162.01 171.88 162.57 171.29 Z M 163.29 170.54 L 163.96 169.76 C 164.49 169.14 164.42 168.20 163.80 167.67 C 163.17 167.14 162.24 167.21 161.70 167.83 L 161.03 168.61 C 160.50 169.24 160.57 170.17 161.20 170.71 C 161.82 171.24 162.76 171.17 163.29 170.54 Z M 164.00 169.72 L 164.61 168.95 C 165.12 168.30 165.02 167.37 164.37 166.86 C 163.73 166.34 162.79 166.45 162.28 167.10 L 161.67 167.87 C 161.16 168.51 161.26 169.45 161.91 169.96 C 162.55 170.47 163.49 170.37 164.00 169.72 Z M 164.65 168.90 L 165.27 168.06 C 165.75 167.40 165.61 166.47 164.95 165.98 C 164.28 165.49 163.35 165.63 162.86 166.30 L 162.25 167.14 C 161.76 167.80 161.90 168.74 162.57 169.22 C 163.23 169.71 164.16 169.57 164.65 168.90 Z M 165.31 168.00 L 165.89 167.11 C 166.35 166.42 166.15 165.50 165.46 165.04 C 164.77 164.59 163.85 164.79 163.40 165.48 L 162.82 166.36 C 162.36 167.05 162.56 167.98 163.25 168.43 C 163.94 168.88 164.86 168.69 165.31 168.00 Z M 165.95 167.02 L 166.44 166.15 C 166.84 165.43 166.58 164.52 165.86 164.12 C 165.14 163.72 164.23 163.97 163.83 164.69 L 163.34 165.56 C 162.94 166.29 163.20 167.20 163.92 167.60 C 164.64 168.00 165.55 167.74 165.95 167.02 Z M 166.50 166.02 L 166.89 165.13 C 167.23 164.38 166.88 163.49 166.12 163.16 C 165.37 162.83 164.48 163.17 164.15 163.93 L 163.76 164.82 C 163.43 165.58 163.77 166.46 164.53 166.79 C 165.29 167.13 166.17 166.78 166.50 166.02 Z M 166.96 164.95 L 167.24 163.99 C 167.47 163.20 167.02 162.37 166.22 162.13 C 165.43 161.90 164.59 162.36 164.36 163.15 L 164.08 164.11 C 163.85 164.91 164.31 165.74 165.10 165.97 C 165.90 166.20 166.73 165.75 166.96 164.95 Z M 167.28 163.80 L 167.43 162.85 C 167.56 162.03 167.00 161.26 166.18 161.13 C 165.36 161.01 164.60 161.57 164.47 162.39 L 164.32 163.34 C 164.19 164.16 164.75 164.93 165.57 165.06 C 166.39 165.18 167.16 164.62 167.28 163.80 Z M 167.45 162.71 L 167.51 161.71 C 167.56 160.89 166.93 160.18 166.10 160.13 C 165.28 160.08 164.57 160.71 164.52 161.53 L 164.46 162.53 C 164.41 163.35 165.04 164.06 165.86 164.11 C 166.69 164.16 167.40 163.53 167.45 162.71 Z M 167.50 161.63 L 167.51 160.62 C 167.51 159.80 166.85 159.12 166.03 159.12 C 165.20 159.11 164.53 159.78 164.52 160.60 L 164.52 161.62 C 164.51 162.44 165.18 163.11 166.00 163.12 C 166.83 163.12 167.50 162.46 167.50 161.63 Z M 167.51 160.52 L 167.45 159.52 C 167.39 158.69 166.68 158.07 165.86 158.12 C 165.04 158.17 164.41 158.88 164.46 159.71 L 164.53 160.71 C 164.58 161.53 165.29 162.16 166.11 162.10 C 166.94 162.05 167.56 161.34 167.51 160.52 Z M 167.42 159.29 L 167.20 158.32 C 167.02 157.51 166.22 157.00 165.41 157.18 C 164.61 157.36 164.10 158.16 164.28 158.97 L 164.49 159.94 C 164.67 160.75 165.47 161.26 166.28 161.08 C 167.09 160.90 167.60 160.10 167.42 159.29 Z M 167.12 158.04 L 166.72 157.14 C 166.39 156.38 165.50 156.03 164.74 156.37 C 163.98 156.70 163.63 157.59 163.97 158.35 L 164.36 159.25 C 164.70 160.01 165.58 160.36 166.34 160.02 C 167.10 159.69 167.45 158.80 167.12 158.04 Z M 166.63 156.97 L 166.11 156.10 C 165.68 155.39 164.76 155.16 164.04 155.59 C 163.33 156.02 163.10 156.95 163.53 157.66 L 164.06 158.52 C 164.48 159.23 165.41 159.46 166.12 159.03 C 166.83 158.60 167.06 157.68 166.63 156.97 Z M 166.05 156.01 L 165.48 155.21 C 165.00 154.54 164.06 154.38 163.39 154.86 C 162.71 155.34 162.55 156.28 163.03 156.96 L 163.60 157.75 C 164.08 158.43 165.02 158.59 165.69 158.11 C 166.37 157.63 166.53 156.69 166.05 156.01 Z M 165.43 155.15 L 164.79 154.34 C 164.27 153.70 163.32 153.59 162.68 154.11 C 162.03 154.63 161.93 155.58 162.44 156.22 L 163.09 157.03 C 163.61 157.67 164.55 157.78 165.20 157.26 C 165.84 156.74 165.95 155.79 165.43 155.15 Z M 164.74 154.29 L 164.08 153.55 C 163.53 152.93 162.58 152.87 161.96 153.42 C 161.34 153.97 161.29 154.92 161.84 155.54 L 162.49 156.28 C 163.04 156.90 163.99 156.95 164.61 156.41 C 165.23 155.86 165.28 154.91 164.74 154.29 Z M 164.03 153.50 L 163.33 152.78 C 162.75 152.19 161.81 152.17 161.22 152.74 C 160.62 153.32 160.61 154.26 161.18 154.86 L 161.88 155.58 C 162.46 156.17 163.40 156.19 164.00 155.61 C 164.59 155.04 164.60 154.09 164.03 153.50 Z M 163.28 152.73 L 162.54 152.04 C 161.94 151.47 160.99 151.50 160.43 152.10 C 159.87 152.70 159.90 153.65 160.50 154.21 L 161.23 154.90 C 161.83 155.47 162.78 155.44 163.34 154.84 C 163.91 154.24 163.88 153.29 163.28 152.73 Z M 162.48 151.99 L 161.71 151.34 C 161.08 150.80 160.14 150.88 159.61 151.51 C 159.08 152.14 159.16 153.08 159.79 153.61 L 160.55 154.26 C 161.18 154.79 162.12 154.71 162.65 154.09 C 163.19 153.46 163.11 152.52 162.48 151.99 Z M 161.64 151.28 L 160.85 150.69 C 160.20 150.19 159.26 150.32 158.77 150.98 C 158.27 151.64 158.40 152.57 159.06 153.07 L 159.85 153.66 C 160.51 154.16 161.44 154.03 161.94 153.37 C 162.43 152.71 162.30 151.78 161.64 151.28 Z M 160.78 150.64 L 159.95 150.08 C 159.26 149.63 158.34 149.81 157.88 150.49 C 157.43 151.18 157.61 152.10 158.30 152.56 L 159.13 153.11 C 159.81 153.57 160.74 153.39 161.19 152.70 C 161.65 152.02 161.47 151.10 160.78 150.64 Z M 159.87 150.04 L 159.00 149.54 C 158.30 149.13 157.39 149.36 156.98 150.07 C 156.57 150.78 156.81 151.68 157.51 152.10 L 158.38 152.60 C 159.08 153.01 159.99 152.77 160.40 152.07 C 160.81 151.36 160.57 150.45 159.87 150.04 Z M 158.92 149.50 L 158.02 149.05 C 157.29 148.69 156.41 148.98 156.05 149.71 C 155.68 150.44 155.98 151.32 156.71 151.69 L 157.60 152.13 C 158.33 152.50 159.21 152.20 159.58 151.47 C 159.94 150.75 159.64 149.86 158.92 149.50 Z M 157.92 149.02 L 156.98 148.63 C 156.24 148.33 155.38 148.68 155.08 149.43 C 154.77 150.17 155.12 151.03 155.87 151.33 L 156.81 151.72 C 157.55 152.03 158.41 151.67 158.71 150.93 C 159.02 150.18 158.67 149.33 157.92 149.02 Z M 156.86 148.60 L 155.93 148.31 C 155.17 148.07 154.36 148.49 154.11 149.25 C 153.87 150.01 154.29 150.82 155.05 151.07 L 155.99 151.36 C 156.75 151.60 157.56 151.18 157.80 150.42 C 158.05 149.66 157.63 148.85 156.86 148.60 Z M 155.79 148.28 L 154.80 148.07 C 154.03 147.90 153.26 148.40 153.10 149.17 C 152.93 149.95 153.43 150.71 154.20 150.88 L 155.19 151.09 C 155.97 151.26 156.73 150.76 156.90 149.99 C 157.06 149.21 156.57 148.45 155.79 148.28 Z M 154.71 148.06 L 153.73 147.92 C 152.95 147.80 152.22 148.35 152.11 149.13 C 152.00 149.91 152.54 150.63 153.32 150.75 L 154.30 150.89 C 155.08 151.00 155.80 150.46 155.92 149.68 C 156.03 148.90 155.49 148.17 154.71 148.06 Z M 153.71 147.92 L 153.51 147.89 C 152.73 147.79 152.01 148.34 151.91 149.13 C 151.81 149.91 152.36 150.62 153.15 150.72 L 153.34 150.75 C 154.12 150.85 154.84 150.30 154.94 149.51 C 155.04 148.73 154.49 148.02 153.71 147.92 Z"
      fill="black"
      fill-rule="nonzero" /></svg>