<svg xmlns="http://www.w3.org/2000/svg" width="300" height="300" viewBox="0 0 300 300">
<path d="M 144.31 137.29 L 144.17 136.23 C 144.05 135.39 143.28 134.80 142.43 134.91 C 141.59 135.03 141.00 135.80 141.11 136.65 L 141.25 137.70 C 141.37 138.55 142.14 139.14 142.99 139.02 C 143.83 138.91 144.42 138.13 144.31 137.29 Z M 141.64 135.17 L 141.18 135.53 C 140.48 136.08 140.35 137.09 140.90 137.80 C 141.46 138.50 142.47 138.63 143.18 138.08 L 143.64 137.72 C 144.34 137.16 144.46 136.15 143.91 135.44 C 143.36 134.74 142.34 134.61 141.64 135.17 Z M 140.82 135.90 L 140.14 136.91 C 139.64 137.67 139.85 138.68 140.60 139.18 C 141.35 139.68 142.37 139.47 142.87 138.72 L 143.54 137.70 C 144.04 136.95 143.83 135.94 143.08 135.44 C 142.33 134.94 141.32 135.15 140.82 135.90 Z M 140.20 136.89 L 139.61 137.72 C 139.09 138.44 139.26 139.44 139.98 139.96 C 140.70 140.47 141.71 140.30 142.22 139.58 L 142.81 138.75 C 143.33 138.03 143.16 137.02 142.44 136.51 C 141.71 136.00 140.71 136.16 140.20 136.89 Z M 139.67 137.72 L 139.08 138.51 C 138.57 139.20 138.71 140.17 139.40 140.68 C 140.08 141.19 141.05 141.05 141.57 140.37 L 142.16 139.57 C 142.67 138.89 142.53 137.92 141.84 137.41 C 141.15 136.89 140.18 137.04 139.67 137.72 Z M 139.12 138.54 L 138.50 139.36 C 138.00 140.03 138.13 140.97 138.80 141.47 C 139.46 141.97 140.41 141.84 140.91 141.17 L 141.53 140.35 C 142.03 139.68 141.89 138.74 141.23 138.24 C 140.56 137.74 139.62 137.87 139.12 138.54 Z M 138.51 139.40 L 137.94 140.17 C 137.46 140.83 137.61 141.76 138.27 142.24 C 138.93 142.72 139.85 142.57 140.33 141.91 L 140.89 141.14 C 141.37 140.48 141.23 139.55 140.57 139.07 C 139.91 138.60 138.99 138.74 138.51 139.40 Z M 137.94 140.22 L 137.38 141.03 C 136.92 141.69 137.09 142.60 137.75 143.05 C 138.42 143.51 139.32 143.34 139.78 142.68 L 140.34 141.87 C 140.79 141.21 140.62 140.30 139.96 139.84 C 139.30 139.39 138.39 139.56 137.94 140.22 Z M 137.38 141.05 L 136.81 141.89 C 136.37 142.55 136.55 143.45 137.21 143.90 C 137.87 144.34 138.77 144.16 139.21 143.50 L 139.78 142.66 C 140.22 142.00 140.05 141.10 139.39 140.65 C 138.72 140.21 137.82 140.39 137.38 141.05 Z M 136.82 141.89 L 136.27 142.72 C 135.83 143.37 136.00 144.27 136.66 144.71 C 137.32 145.15 138.21 144.98 138.65 144.32 L 139.21 143.50 C 139.65 142.84 139.48 141.95 138.82 141.50 C 138.16 141.06 137.26 141.23 136.82 141.89 Z M 136.27 142.73 L 135.71 143.58 C 135.27 144.24 135.46 145.12 136.12 145.56 C 136.78 145.99 137.66 145.81 138.10 145.15 L 138.66 144.31 C 139.09 143.65 138.91 142.76 138.25 142.32 C 137.59 141.89 136.70 142.07 136.27 142.73 Z M 135.70 143.60 L 135.16 144.45 C 134.73 145.12 134.93 146.00 135.60 146.42 C 136.26 146.85 137.15 146.65 137.57 145.98 L 138.11 145.13 C 138.53 144.46 138.33 143.58 137.67 143.16 C 137.00 142.74 136.12 142.93 135.70 143.60 Z M 135.14 144.48 L 134.63 145.33 C 134.22 146.01 134.44 146.88 135.12 147.29 C 135.79 147.70 136.67 147.48 137.07 146.80 L 137.58 145.95 C 137.99 145.28 137.77 144.40 137.10 144.00 C 136.42 143.59 135.55 143.81 135.14 144.48 Z M 134.61 145.37 L 134.11 146.25 C 133.72 146.93 133.97 147.80 134.65 148.19 C 135.34 148.58 136.21 148.34 136.59 147.65 L 137.09 146.77 C 137.48 146.09 137.24 145.22 136.55 144.83 C 135.87 144.44 135.00 144.68 134.61 145.37 Z M 134.10 146.26 L 133.75 146.91 C 133.37 147.60 133.62 148.47 134.31 148.85 C 135.00 149.22 135.87 148.97 136.25 148.28 L 136.60 147.63 C 136.98 146.94 136.73 146.08 136.04 145.70 C 135.35 145.32 134.48 145.57 134.10 146.26 Z"
      fill="black"
      fill-rule="nonzero" /><path d="M 132.29 170.94 L 133.25 170.82 C 134.07 170.71 134.65 169.96 134.54 169.14 C 134.44 168.31 133.68 167.73 132.86 167.84 L 131.90 167.97 C 131.08 168.07 130.50 168.83 130.61 169.65 C 130.71 170.47 131.47 171.05 132.29 170.94 Z M 133.20 170.88 L 134.22 170.79 C 135.08 170.71 135.71 169.95 135.63 169.09 C 135.55 168.23 134.79 167.60 133.93 167.68 L 132.91 167.78 C 132.05 167.86 131.42 168.62 131.50 169.47 C 131.58 170.33 132.34 170.96 133.20 170.88 Z M 134.14 170.83 L 135.16 170.79 C 136.04 170.75 136.72 170.01 136.69 169.13 C 136.65 168.25 135.91 167.57 135.03 167.60 L 134.01 167.64 C 133.13 167.68 132.45 168.42 132.48 169.30 C 132.52 170.18 133.26 170.86 134.14 170.83 Z M 135.11 170.79 L 136.12 170.78 C 137.00 170.77 137.71 170.05 137.70 169.17 C 137.69 168.29 136.97 167.58 136.09 167.59 L 135.08 167.60 C 134.20 167.61 133.49 168.33 133.50 169.21 C 133.51 170.09 134.23 170.80 135.11 170.79 Z M 136.10 170.78 L 137.13 170.78 C 138.01 170.78 138.72 170.07 138.72 169.18 C 138.72 168.30 138.01 167.59 137.13 167.59 L 136.10 167.59 C 135.22 167.59 134.51 168.31 134.51 169.19 C 134.51 170.07 135.22 170.78 136.10 170.78 Z M 137.13 170.78 L 138.09 170.78 C 138.97 170.78 139.68 170.06 139.68 169.19 C 139.68 168.31 138.97 167.59 138.09 167.59 L 137.13 167.59 C 136.25 167.59 135.54 168.31 135.54 169.19 C 135.54 170.06 136.25 170.78 137.13 170.78 Z M 138.09 170.77 L 139.06 170.77 C 139.93 170.77 140.64 170.06 140.64 169.19 C 140.64 168.31 139.93 167.60 139.06 167.60 L 138.09 167.60 C 137.21 167.60 136.50 168.31 136.50 169.19 C 136.50 170.06 137.21 170.77 138.09 170.77 Z M 139.06 170.77 L 140.08 170.77 C 140.96 170.77 141.67 170.06 141.67 169.19 C 141.67 168.31 140.96 167.60 140.08 167.60 L 139.06 167.60 C 138.18 167.60 137.47 168.31 137.47 169.19 C 137.47 170.06 138.18 170.77 139.06 170.77 Z M 140.08 170.77 L 141.07 170.77 C 141.95 170.77 142.66 170.06 142.66 169.19 C 142.66 168.31 141.95 167.60 141.07 167.60 L 140.08 167.60 C 139.21 167.60 138.50 168.31 138.50 169.19 C 138.50 170.06 139.21 170.77 140.08 170.77 Z M 141.07 170.76 L 142.08 170.76 C 142.95 170.76 143.66 170.06 143.66 169.19 C 143.66 168.31 142.95 167.61 142.08 167.61 L 141.07 167.61 C 140.20 167.61 139.49 168.31 139.49 169.19 C 139.49 170.06 140.20 170.76 141.07 170.76 Z M 142.08 170.76 L 143.09 170.76 C 143.96 170.76 144.67 170.06 144.67 169.19 C 144.67 168.31 143.96 167.61 143.09 167.61 L 142.08 167.61 C 141.21 167.61 140.51 168.31 140.51 169.19 C 140.51 170.06 141.21 170.76 142.08 170.76 Z M 143.09 170.76 L 144.08 170.76 C 144.95 170.76 145.66 170.06 145.66 169.19 C 145.66 168.32 144.95 167.61 144.08 167.61 L 143.09 167.61 C 142.22 167.61 141.51 168.32 141.51 169.19 C 141.51 170.06 142.22 170.76 143.09 170.76 Z M 144.08 170.76 L 145.09 170.76 C 145.95 170.76 146.66 170.05 146.66 169.19 C 146.66 168.32 145.95 167.61 145.09 167.61 L 144.08 167.61 C 143.21 167.61 142.51 168.32 142.51 169.19 C 142.51 170.05 143.21 170.76 144.08 170.76 Z M 145.09 170.76 L 146.09 170.76 C 146.95 170.76 147.66 170.05 147.66 169.19 C 147.66 168.32 146.95 167.61 146.09 167.61 L 145.09 167.61 C 144.22 167.61 143.51 168.32 143.51 169.19 C 143.51 170.05 144.22 170.76 145.09 170.76 Z M 146.09 170.75 L 147.09 170.75 C 147.96 170.75 148.66 170.05 148.66 169.19 C 148.66 168.32 147.96 167.62 147.09 167.62 L 146.09 167.62 C 145.22 167.62 144.52 168.32 144.52 169.19 C 144.52 170.05 145.22 170.75 146.09 170.75 Z M 147.09 170.75 L 148.09 170.75 C 148.96 170.75 149.66 170.05 149.66 169.19 C 149.66 168.32 148.96 167.62 148.09 167.62 L 147.09 167.62 C 146.23 167.62 145.53 168.32 145.53 169.19 C 145.53 170.05 146.23 170.75 147.09 170.75 Z M 148.09 170.74 L 149.09 170.74 C 149.95 170.74 150.65 170.05 150.65 169.19 C 150.65 168.32 149.95 167.63 149.09 167.63 L 148.09 167.63 C 147.23 167.63 146.53 168.32 146.53 169.19 C 146.53 170.05 147.23 170.74 148.09 170.74 Z M 149.09 170.74 L 150.03 170.74 C 150.89 170.74 151.58 170.04 151.58 169.19 C 151.58 168.33 150.89 167.63 150.03 167.63 L 149.09 167.63 C 148.23 167.63 147.54 168.33 147.54 169.19 C 147.54 170.04 148.23 170.74 149.09 170.74 Z M 150.03 170.73 L 151.06 170.73 C 151.92 170.73 152.61 170.04 152.61 169.19 C 152.61 168.33 151.92 167.64 151.06 167.64 L 150.03 167.64 C 149.17 167.64 148.48 168.33 148.48 169.19 C 148.48 170.04 149.17 170.73 150.03 170.73 Z M 151.06 170.73 L 152.07 170.73 C 152.92 170.72 153.61 170.03 153.61 169.18 C 153.60 168.32 152.91 167.64 152.06 167.64 L 151.06 167.64 C 150.20 167.64 149.51 168.34 149.52 169.19 C 149.52 170.04 150.21 170.73 151.06 170.73 Z M 152.10 170.73 L 153.13 170.70 C 153.98 170.68 154.65 169.97 154.63 169.12 C 154.61 168.27 153.91 167.59 153.05 167.61 L 152.03 167.64 C 151.17 167.66 150.50 168.37 150.52 169.22 C 150.54 170.07 151.25 170.75 152.10 170.73 Z M 153.24 170.70 L 154.39 170.59 C 155.25 170.51 155.87 169.76 155.79 168.90 C 155.71 168.05 154.96 167.43 154.10 167.51 L 152.95 167.62 C 152.10 167.70 151.47 168.45 151.55 169.30 C 151.63 170.15 152.38 170.78 153.24 170.70 Z M 155.05 170.39 L 155.68 170.02 C 156.43 169.57 156.67 168.61 156.23 167.87 C 155.78 167.13 154.82 166.88 154.08 167.33 L 153.45 167.70 C 152.71 168.15 152.46 169.11 152.91 169.85 C 153.35 170.59 154.31 170.84 155.05 170.39 Z M 156.20 167.80 L 155.74 167.10 C 155.26 166.37 154.28 166.17 153.55 166.65 C 152.82 167.12 152.62 168.10 153.10 168.83 L 153.56 169.54 C 154.04 170.27 155.02 170.47 155.75 169.99 C 156.48 169.51 156.68 168.53 156.20 167.80 Z M 155.56 166.88 L 154.79 166.06 C 154.19 165.43 153.19 165.40 152.56 166.01 C 151.92 166.61 151.90 167.61 152.50 168.24 L 153.27 169.05 C 153.87 169.69 154.87 169.71 155.51 169.11 C 156.14 168.51 156.17 167.51 155.56 166.88 Z M 154.86 166.15 L 154.24 165.39 C 153.69 164.72 152.70 164.62 152.02 165.17 C 151.35 165.72 151.25 166.71 151.80 167.39 L 152.43 168.15 C 152.98 168.82 153.97 168.92 154.64 168.37 C 155.32 167.82 155.42 166.83 154.86 166.15 Z M 154.28 165.46 L 153.69 164.66 C 153.17 163.96 152.19 163.82 151.50 164.33 C 150.80 164.85 150.66 165.83 151.17 166.53 L 151.76 167.32 C 152.28 168.02 153.26 168.16 153.95 167.65 C 154.65 167.13 154.79 166.15 154.28 165.46 Z M 153.70 164.69 L 153.14 163.89 C 152.64 163.19 151.67 163.02 150.96 163.52 C 150.26 164.02 150.10 164.99 150.59 165.70 L 151.16 166.49 C 151.65 167.20 152.63 167.36 153.33 166.86 C 154.03 166.37 154.20 165.39 153.70 164.69 Z M 153.15 163.92 L 152.56 163.05 C 152.08 162.34 151.11 162.16 150.40 162.64 C 149.69 163.12 149.51 164.09 149.99 164.80 L 150.58 165.67 C 151.06 166.38 152.03 166.56 152.74 166.08 C 153.45 165.60 153.63 164.63 153.15 163.92 Z M 152.57 163.08 L 152.03 162.25 C 151.56 161.53 150.60 161.33 149.88 161.80 C 149.17 162.27 148.97 163.23 149.43 163.94 L 149.98 164.77 C 150.45 165.49 151.41 165.69 152.12 165.22 C 152.84 164.75 153.04 163.79 152.57 163.08 Z M 152.04 162.28 L 151.51 161.42 C 151.06 160.69 150.10 160.47 149.38 160.92 C 148.65 161.37 148.43 162.33 148.88 163.05 L 149.42 163.91 C 149.87 164.64 150.82 164.86 151.55 164.41 C 152.27 163.96 152.50 163.00 152.04 162.28 Z M 151.53 161.46 L 151.03 160.59 C 150.60 159.85 149.65 159.60 148.91 160.03 C 148.18 160.46 147.92 161.40 148.35 162.14 L 148.86 163.01 C 149.29 163.75 150.23 164.00 150.97 163.57 C 151.71 163.14 151.96 162.20 151.53 161.46 Z M 151.05 160.64 L 150.58 159.75 C 150.18 159.00 149.25 158.71 148.49 159.11 C 147.74 159.51 147.46 160.45 147.86 161.20 L 148.33 162.09 C 148.73 162.84 149.66 163.13 150.41 162.73 C 151.17 162.33 151.45 161.39 151.05 160.64 Z M 150.60 159.80 L 150.17 158.91 C 149.79 158.15 148.87 157.84 148.11 158.21 C 147.35 158.58 147.03 159.50 147.40 160.26 L 147.84 161.15 C 148.21 161.91 149.13 162.23 149.89 161.85 C 150.65 161.48 150.97 160.56 150.60 159.80 Z M 150.18 158.95 L 149.77 158.05 C 149.42 157.28 148.51 156.94 147.74 157.29 C 146.97 157.64 146.63 158.55 146.98 159.32 L 147.39 160.22 C 147.74 160.99 148.65 161.33 149.42 160.98 C 150.19 160.63 150.53 159.72 150.18 158.95 Z M 149.78 158.09 L 149.39 157.17 C 149.06 156.39 148.17 156.03 147.39 156.36 C 146.61 156.69 146.25 157.58 146.58 158.36 L 146.97 159.28 C 147.30 160.06 148.19 160.42 148.97 160.09 C 149.75 159.76 150.11 158.87 149.78 158.09 Z M 149.40 157.21 L 149.04 156.27 C 148.74 155.49 147.85 155.10 147.07 155.40 C 146.29 155.71 145.90 156.59 146.20 157.37 L 146.57 158.31 C 146.87 159.10 147.75 159.49 148.54 159.18 C 149.32 158.88 149.71 158.00 149.40 157.21 Z M 149.05 156.33 L 148.72 155.37 C 148.45 154.57 147.58 154.16 146.79 154.43 C 146.00 154.71 145.58 155.57 145.85 156.36 L 146.19 157.32 C 146.46 158.11 147.33 158.53 148.12 158.26 C 148.91 157.98 149.33 157.12 149.05 156.33 Z M 148.73 155.43 L 148.45 154.48 C 148.21 153.68 147.36 153.23 146.56 153.47 C 145.77 153.71 145.31 154.55 145.55 155.35 L 145.84 156.30 C 146.08 157.10 146.92 157.55 147.72 157.31 C 148.52 157.07 148.98 156.23 148.73 155.43 Z M 148.46 154.56 L 148.22 153.57 C 148.03 152.76 147.21 152.27 146.40 152.46 C 145.60 152.66 145.10 153.47 145.30 154.28 L 145.54 155.27 C 145.74 156.08 146.55 156.58 147.36 156.38 C 148.17 156.18 148.66 155.37 148.46 154.56 Z M 148.23 153.65 L 148.05 152.67 C 147.90 151.86 147.12 151.32 146.30 151.48 C 145.49 151.63 144.95 152.41 145.10 153.22 L 145.29 154.20 C 145.44 155.01 146.22 155.55 147.03 155.40 C 147.85 155.25 148.38 154.46 148.23 153.65 Z M 148.06 152.74 L 147.92 151.75 C 147.80 150.93 147.04 150.36 146.23 150.48 C 145.41 150.59 144.84 151.35 144.96 152.16 L 145.10 153.16 C 145.21 153.97 145.97 154.54 146.79 154.43 C 147.60 154.31 148.17 153.56 148.06 152.74 Z M 147.92 151.80 L 147.82 150.81 C 147.74 149.99 147.00 149.39 146.18 149.47 C 145.36 149.56 144.77 150.29 144.85 151.11 L 144.95 152.11 C 145.04 152.93 145.77 153.52 146.59 153.44 C 147.41 153.36 148.01 152.62 147.92 151.80 Z M 147.83 150.88 L 147.78 149.90 C 147.73 149.07 147.03 148.44 146.20 148.48 C 145.38 148.53 144.75 149.23 144.79 150.05 L 144.84 151.04 C 144.89 151.86 145.59 152.49 146.41 152.45 C 147.24 152.41 147.87 151.70 147.83 150.88 Z M 147.78 149.99 L 147.79 149.01 C 147.80 148.18 147.14 147.50 146.31 147.49 C 145.49 147.48 144.81 148.14 144.80 148.97 L 144.79 149.96 C 144.78 150.78 145.44 151.46 146.26 151.47 C 147.09 151.48 147.77 150.82 147.78 149.99 Z M 147.79 149.13 L 147.88 148.12 C 147.96 147.30 147.35 146.57 146.53 146.49 C 145.70 146.41 144.97 147.02 144.90 147.84 L 144.80 148.85 C 144.73 149.67 145.33 150.41 146.16 150.48 C 146.98 150.56 147.71 149.95 147.79 149.13 Z M 147.84 148.38 L 148.10 147.43 C 148.32 146.63 147.85 145.80 147.05 145.58 C 146.25 145.36 145.43 145.83 145.21 146.63 L 144.94 147.58 C 144.72 148.38 145.19 149.21 145.99 149.43 C 146.79 149.65 147.62 149.18 147.84 148.38 Z M 147.91 147.85 L 148.45 147.01 C 148.91 146.31 148.71 145.38 148.01 144.93 C 147.31 144.48 146.38 144.68 145.93 145.38 L 145.39 146.21 C 144.94 146.91 145.14 147.84 145.84 148.29 C 146.53 148.74 147.46 148.54 147.91 147.85 Z M 148.24 147.27 L 148.91 146.61 C 149.51 146.03 149.52 145.08 148.94 144.49 C 148.36 143.89 147.41 143.88 146.81 144.46 L 146.14 145.12 C 145.55 145.70 145.54 146.65 146.12 147.24 C 146.70 147.84 147.65 147.85 148.24 147.27 Z M 148.74 146.76 L 149.59 146.15 C 150.27 145.67 150.43 144.73 149.94 144.05 C 149.46 143.38 148.52 143.22 147.84 143.70 L 146.99 144.31 C 146.31 144.80 146.16 145.74 146.64 146.41 C 147.12 147.09 148.06 147.25 148.74 146.76 Z M 149.47 146.24 L 150.30 145.76 C 151.02 145.34 151.27 144.42 150.86 143.70 C 150.44 142.98 149.52 142.73 148.80 143.14 L 147.97 143.62 C 147.24 144.04 147.00 144.96 147.41 145.68 C 147.82 146.40 148.75 146.65 149.47 146.24 Z M 150.20 145.82 L 151.13 145.38 C 151.89 145.02 152.21 144.12 151.85 143.36 C 151.50 142.61 150.60 142.29 149.84 142.64 L 148.91 143.08 C 148.15 143.44 147.83 144.34 148.18 145.10 C 148.54 145.85 149.44 146.17 150.20 145.82 Z M 150.98 145.44 L 151.94 145.11 C 152.73 144.83 153.14 143.97 152.87 143.18 C 152.59 142.39 151.73 141.97 150.94 142.25 L 149.99 142.58 C 149.20 142.85 148.78 143.72 149.06 144.51 C 149.33 145.30 150.19 145.71 150.98 145.44 Z M 151.77 145.16 L 152.73 144.95 C 153.55 144.77 154.07 143.96 153.89 143.14 C 153.71 142.32 152.90 141.80 152.08 141.98 L 151.11 142.20 C 150.29 142.38 149.78 143.19 149.96 144.00 C 150.14 144.82 150.95 145.34 151.77 145.16 Z M 152.59 144.97 L 153.59 144.85 C 154.42 144.75 155.01 143.99 154.91 143.16 C 154.81 142.32 154.05 141.73 153.22 141.83 L 152.22 141.96 C 151.39 142.06 150.80 142.82 150.90 143.65 C 151.00 144.48 151.76 145.07 152.59 144.97 Z M 153.49 144.86 L 154.50 144.80 C 155.34 144.75 155.98 144.03 155.93 143.20 C 155.88 142.36 155.16 141.72 154.33 141.77 L 153.32 141.83 C 152.48 141.87 151.84 142.59 151.89 143.43 C 151.94 144.27 152.65 144.91 153.49 144.86 Z M 154.43 144.80 L 155.43 144.79 C 156.27 144.78 156.94 144.09 156.93 143.25 C 156.92 142.41 156.23 141.74 155.39 141.75 L 154.40 141.76 C 153.56 141.77 152.88 142.46 152.89 143.30 C 152.91 144.14 153.59 144.81 154.43 144.80 Z M 155.36 144.79 L 156.37 144.82 C 157.21 144.85 157.91 144.19 157.93 143.35 C 157.96 142.51 157.30 141.81 156.46 141.78 L 155.46 141.75 C 154.62 141.72 153.92 142.38 153.89 143.22 C 153.87 144.06 154.53 144.77 155.36 144.79 Z M 156.24 144.82 L 157.22 144.93 C 158.05 145.03 158.81 144.43 158.90 143.59 C 159.00 142.76 158.40 142.00 157.57 141.90 L 156.59 141.79 C 155.75 141.69 155.00 142.29 154.90 143.13 C 154.80 143.96 155.40 144.72 156.24 144.82 Z M 157.04 144.90 L 158.00 145.13 C 158.82 145.32 159.64 144.81 159.84 144.00 C 160.03 143.18 159.52 142.35 158.70 142.16 L 157.74 141.93 C 156.92 141.74 156.10 142.25 155.91 143.06 C 155.71 143.88 156.22 144.71 157.04 144.90 Z M 157.86 145.09 L 158.82 145.41 C 159.62 145.68 160.48 145.25 160.75 144.45 C 161.02 143.66 160.59 142.79 159.79 142.52 L 158.84 142.20 C 158.04 141.93 157.18 142.36 156.91 143.16 C 156.64 143.95 157.07 144.82 157.86 145.09 Z M 158.73 145.38 L 159.67 145.76 C 160.45 146.08 161.34 145.70 161.65 144.92 C 161.97 144.14 161.60 143.25 160.82 142.94 L 159.88 142.55 C 159.10 142.24 158.21 142.61 157.90 143.39 C 157.58 144.17 157.95 145.06 158.73 145.38 Z M 159.61 145.73 L 160.49 146.13 C 161.25 146.49 162.15 146.15 162.50 145.39 C 162.86 144.63 162.52 143.72 161.76 143.37 L 160.88 142.97 C 160.12 142.61 159.21 142.95 158.86 143.71 C 158.51 144.47 158.84 145.38 159.61 145.73 Z M 160.41 146.09 L 161.29 146.56 C 162.03 146.95 162.95 146.67 163.35 145.93 C 163.74 145.19 163.46 144.27 162.72 143.88 L 161.83 143.41 C 161.09 143.02 160.18 143.30 159.78 144.04 C 159.39 144.78 159.67 145.70 160.41 146.09 Z M 161.22 146.52 L 162.10 147.05 C 162.82 147.48 163.75 147.25 164.18 146.53 C 164.61 145.81 164.38 144.88 163.67 144.45 L 162.79 143.92 C 162.07 143.49 161.14 143.72 160.71 144.44 C 160.28 145.16 160.51 146.09 161.22 146.52 Z M 162.05 147.02 L 162.91 147.58 C 163.61 148.04 164.55 147.84 165.01 147.15 C 165.47 146.45 165.27 145.51 164.57 145.05 L 163.72 144.49 C 163.02 144.03 162.08 144.22 161.62 144.92 C 161.16 145.62 161.35 146.56 162.05 147.02 Z M 162.87 147.56 L 163.69 148.13 C 164.38 148.61 165.33 148.45 165.81 147.76 C 166.29 147.07 166.12 146.13 165.43 145.65 L 164.61 145.07 C 163.93 144.59 162.98 144.76 162.50 145.44 C 162.02 146.13 162.19 147.08 162.87 147.56 Z M 163.65 148.11 L 164.51 148.75 C 165.18 149.25 166.13 149.11 166.64 148.44 C 167.14 147.77 167.00 146.82 166.33 146.31 L 165.47 145.67 C 164.80 145.17 163.85 145.31 163.35 145.98 C 162.85 146.65 162.98 147.60 163.65 148.11 Z M 164.45 148.70 L 165.21 149.33 C 165.86 149.87 166.82 149.78 167.35 149.13 C 167.89 148.48 167.80 147.52 167.15 146.99 L 166.39 146.36 C 165.74 145.82 164.78 145.91 164.25 146.56 C 163.71 147.21 163.80 148.17 164.45 148.70 Z M 165.12 149.25 L 165.79 149.90 C 166.39 150.49 167.36 150.47 167.94 149.87 C 168.53 149.26 168.51 148.30 167.91 147.71 L 167.24 147.07 C 166.64 146.48 165.67 146.50 165.09 147.10 C 164.50 147.70 164.52 148.67 165.12 149.25 Z M 165.68 149.79 L 166.31 150.54 C 166.85 151.19 167.81 151.27 168.46 150.73 C 169.10 150.19 169.19 149.23 168.65 148.59 L 168.02 147.83 C 167.48 147.18 166.52 147.10 165.87 147.64 C 165.22 148.18 165.14 149.14 165.68 149.79 Z M 166.22 150.43 L 166.78 151.25 C 167.26 151.94 168.21 152.12 168.91 151.64 C 169.60 151.16 169.78 150.21 169.30 149.51 L 168.74 148.70 C 168.26 148.00 167.31 147.82 166.61 148.30 C 165.92 148.78 165.74 149.73 166.22 150.43 Z M 166.68 151.10 L 167.16 151.99 C 167.55 152.74 168.48 153.03 169.23 152.63 C 169.99 152.23 170.27 151.30 169.87 150.55 L 169.40 149.66 C 169.00 148.91 168.07 148.62 167.32 149.02 C 166.57 149.42 166.29 150.35 166.68 151.10 Z M 167.04 151.74 L 167.33 152.63 C 167.59 153.44 168.45 153.89 169.27 153.63 C 170.08 153.37 170.53 152.50 170.27 151.69 L 169.99 150.80 C 169.73 149.99 168.86 149.54 168.05 149.80 C 167.23 150.06 166.79 150.93 167.04 151.74 Z M 167.27 152.38 L 167.42 153.42 C 167.54 154.26 168.33 154.85 169.18 154.72 C 170.02 154.60 170.61 153.81 170.48 152.96 L 170.33 151.93 C 170.20 151.09 169.42 150.50 168.57 150.63 C 167.73 150.75 167.14 151.54 167.27 152.38 Z M 167.40 153.29 L 167.46 154.31 C 167.52 155.16 168.26 155.81 169.11 155.76 C 169.97 155.70 170.62 154.96 170.56 154.11 L 170.50 153.09 C 170.44 152.23 169.71 151.59 168.85 151.64 C 167.99 151.69 167.35 152.43 167.40 153.29 Z M 167.46 154.22 L 167.47 155.26 C 167.47 156.12 168.18 156.81 169.04 156.80 C 169.90 156.79 170.59 156.09 170.58 155.23 L 170.57 154.19 C 170.56 153.33 169.86 152.64 169.00 152.65 C 168.14 152.66 167.45 153.36 167.46 154.22 Z M 167.46 155.13 L 167.39 156.15 C 167.33 157.01 167.98 157.75 168.84 157.82 C 169.70 157.88 170.45 157.23 170.51 156.37 L 170.58 155.36 C 170.64 154.50 170.00 153.75 169.14 153.69 C 168.27 153.62 167.53 154.27 167.46 155.13 Z M 167.42 155.91 L 167.20 156.91 C 167.01 157.76 167.53 158.59 168.38 158.78 C 169.22 158.98 170.06 158.45 170.25 157.60 L 170.48 156.60 C 170.67 155.76 170.14 154.92 169.30 154.73 C 168.45 154.54 167.61 155.07 167.42 155.91 Z M 167.27 156.67 L 166.92 157.53 C 166.60 158.33 166.99 159.25 167.79 159.57 C 168.60 159.89 169.51 159.50 169.83 158.70 L 170.18 157.84 C 170.50 157.04 170.11 156.13 169.31 155.80 C 168.50 155.48 167.59 155.87 167.27 156.67 Z M 166.98 157.40 L 166.53 158.28 C 166.13 159.05 166.43 160.00 167.20 160.40 C 167.98 160.79 168.92 160.49 169.32 159.72 L 169.77 158.83 C 170.17 158.06 169.87 157.12 169.10 156.72 C 168.33 156.32 167.38 156.63 166.98 157.40 Z M 166.58 158.20 L 166.07 159.04 C 165.63 159.79 165.87 160.75 166.61 161.19 C 167.36 161.64 168.32 161.39 168.76 160.65 L 169.27 159.80 C 169.71 159.06 169.47 158.10 168.73 157.66 C 167.98 157.21 167.02 157.45 166.58 158.20 Z M 166.13 158.97 L 165.55 159.81 C 165.07 160.53 165.26 161.50 165.97 161.98 C 166.68 162.46 167.65 162.28 168.14 161.57 L 168.71 160.72 C 169.19 160.01 169.01 159.04 168.29 158.56 C 167.58 158.07 166.61 158.26 166.13 158.97 Z M 165.61 159.74 L 165.01 160.52 C 164.48 161.20 164.60 162.18 165.29 162.71 C 165.97 163.23 166.95 163.11 167.47 162.43 L 168.08 161.64 C 168.61 160.96 168.48 159.98 167.80 159.45 C 167.12 158.93 166.14 159.05 165.61 159.74 Z M 165.05 160.46 L 164.40 161.22 C 163.84 161.88 163.91 162.87 164.57 163.43 C 165.23 163.99 166.21 163.91 166.77 163.25 L 167.43 162.49 C 167.99 161.83 167.91 160.84 167.26 160.28 C 166.60 159.72 165.61 159.80 165.05 160.46 Z M 164.43 161.18 L 163.76 161.91 C 163.18 162.55 163.22 163.54 163.86 164.13 C 164.50 164.71 165.49 164.67 166.07 164.03 L 166.74 163.30 C 167.33 162.66 167.28 161.67 166.64 161.08 C 166.00 160.50 165.01 160.54 164.43 161.18 Z M 163.77 161.90 L 163.07 162.64 C 162.48 163.28 162.52 164.27 163.15 164.86 C 163.79 165.45 164.78 165.42 165.37 164.78 L 166.06 164.04 C 166.66 163.41 166.62 162.41 165.99 161.82 C 165.35 161.23 164.36 161.26 163.77 161.90 Z M 163.07 162.64 L 162.38 163.38 C 161.78 164.02 161.82 165.02 162.46 165.61 C 163.09 166.20 164.09 166.17 164.68 165.53 L 165.38 164.79 C 165.97 164.15 165.93 163.15 165.30 162.56 C 164.66 161.97 163.66 162.00 163.07 162.64 Z M 162.38 163.37 L 161.71 164.08 C 161.10 164.72 161.13 165.72 161.76 166.32 C 162.40 166.92 163.40 166.89 164.00 166.26 L 164.68 165.55 C 165.28 164.91 165.25 163.91 164.62 163.31 C 163.99 162.71 162.99 162.74 162.38 163.37 Z M 161.72 164.06 L 161.03 164.76 C 160.42 165.38 160.42 166.39 161.05 167.00 C 161.67 167.62 162.67 167.61 163.29 166.99 L 163.98 166.29 C 164.59 165.66 164.59 164.66 163.97 164.04 C 163.34 163.43 162.34 163.44 161.72 164.06 Z M 161.02 164.77 L 160.26 165.55 C 159.65 166.18 159.66 167.19 160.29 167.80 C 160.92 168.41 161.93 168.39 162.54 167.76 L 163.30 166.98 C 163.91 166.35 163.90 165.34 163.27 164.73 C 162.64 164.12 161.63 164.14 161.02 164.77 Z M 159.94 166.00 L 159.58 166.79 C 159.22 167.60 159.57 168.54 160.38 168.91 C 161.19 169.27 162.13 168.92 162.50 168.11 L 162.86 167.32 C 163.22 166.51 162.87 165.56 162.06 165.20 C 161.26 164.83 160.31 165.19 159.94 166.00 Z M 160.01 168.69 L 160.62 169.20 C 161.31 169.76 162.32 169.67 162.89 168.98 C 163.46 168.30 163.36 167.28 162.68 166.72 L 162.07 166.21 C 161.38 165.64 160.37 165.74 159.80 166.42 C 159.23 167.11 159.33 168.12 160.01 168.69 Z M 161.19 169.50 L 162.28 169.83 C 163.14 170.09 164.03 169.60 164.29 168.75 C 164.55 167.90 164.06 167.00 163.21 166.74 L 162.11 166.41 C 161.26 166.16 160.36 166.64 160.11 167.49 C 159.85 168.34 160.33 169.24 161.19 169.50 Z M 162.44 169.87 L 163.38 170.05 C 164.25 170.22 165.10 169.65 165.27 168.78 C 165.44 167.91 164.87 167.06 164.00 166.89 L 163.06 166.70 C 162.18 166.53 161.34 167.10 161.16 167.98 C 160.99 168.85 161.56 169.70 162.44 169.87 Z M 163.47 170.07 L 164.49 170.21 C 165.37 170.33 166.18 169.71 166.30 168.82 C 166.42 167.94 165.80 167.13 164.92 167.01 L 163.91 166.87 C 163.02 166.75 162.21 167.37 162.09 168.25 C 161.97 169.14 162.59 169.95 163.47 170.07 Z M 164.55 170.21 L 165.56 170.31 C 166.44 170.40 167.23 169.75 167.32 168.86 C 167.40 167.97 166.75 167.19 165.87 167.10 L 164.86 167.00 C 163.97 166.92 163.18 167.57 163.10 168.45 C 163.01 169.34 163.66 170.13 164.55 170.21 Z M 165.60 170.31 L 166.61 170.38 C 167.50 170.45 168.27 169.78 168.34 168.89 C 168.40 168.00 167.73 167.23 166.84 167.17 L 165.83 167.10 C 164.94 167.04 164.17 167.70 164.11 168.59 C 164.04 169.48 164.71 170.25 165.60 170.31 Z M 166.65 170.38 L 167.64 170.43 C 168.53 170.48 169.28 169.79 169.33 168.91 C 169.37 168.02 168.69 167.26 167.80 167.22 L 166.81 167.17 C 165.92 167.13 165.17 167.81 165.12 168.70 C 165.08 169.59 165.76 170.34 166.65 170.38 Z M 167.68 170.42 L 168.74 170.45 C 169.62 170.47 170.36 169.78 170.38 168.90 C 170.40 168.01 169.71 167.28 168.83 167.26 L 167.76 167.23 C 166.88 167.21 166.15 167.90 166.12 168.78 C 166.10 169.67 166.80 170.40 167.68 170.42 Z M 168.77 170.43 L 169.74 170.44 C 170.61 170.44 171.32 169.74 171.33 168.87 C 171.33 168.00 170.63 167.29 169.76 167.28 L 168.79 167.28 C 167.92 167.27 167.21 167.97 167.21 168.84 C 167.20 169.71 167.90 170.43 168.77 170.43 Z M 169.75 170.41 L 170.71 170.41 C 171.57 170.41 172.26 169.72 172.26 168.86 C 172.26 168.00 171.56 167.31 170.70 167.31 L 169.75 167.31 C 168.89 167.31 168.19 168.00 168.20 168.86 C 168.20 169.72 168.89 170.42 169.75 170.41 Z M 170.74 170.38 L 171.73 170.37 C 172.57 170.35 173.24 169.65 173.22 168.81 C 173.20 167.97 172.51 167.30 171.67 167.32 L 170.68 167.34 C 169.83 167.35 169.17 168.05 169.18 168.89 C 169.20 169.73 169.89 170.40 170.74 170.38 Z M 171.78 170.33 L 172.77 170.28 C 173.60 170.23 174.23 169.52 174.18 168.70 C 174.13 167.87 173.42 167.24 172.60 167.29 L 171.61 167.35 C 170.78 167.40 170.15 168.10 170.20 168.93 C 170.25 169.75 170.96 170.38 171.78 170.33 Z M 172.82 170.25 L 173.81 170.16 C 174.62 170.09 175.22 169.37 175.14 168.56 C 175.07 167.75 174.36 167.16 173.55 167.23 L 172.55 167.32 C 171.74 167.39 171.15 168.11 171.22 168.91 C 171.29 169.72 172.01 170.32 172.82 170.25 Z M 173.83 170.14 L 174.82 170.03 C 175.62 169.95 176.20 169.24 176.12 168.44 C 176.03 167.65 175.32 167.07 174.53 167.15 L 173.53 167.25 C 172.73 167.33 172.15 168.05 172.24 168.84 C 172.32 169.64 173.03 170.22 173.83 170.14 Z"
      fill="black"
      fill-rule="nonzero" /></svg>