<svg xmlns="http://www.w3.org/2000/svg" width="300" height="300" viewBox="0 0 300 300">
<path d="M 125.87 138.66 L 126.85 138.96 C 127.65 139.19 128.48 138.74 128.72 137.94 C 128.95 137.15 128.50 136.31 127.71 136.08 L 126.73 135.79 C 125.93 135.55 125.10 136.00 124.86 136.80 C 124.63 137.59 125.08 138.43 125.87 138.66 Z M 127.11 139.06 L 128.07 139.17 C 128.92 139.27 129.69 138.65 129.79 137.79 C 129.88 136.94 129.27 136.17 128.41 136.07 L 127.45 135.97 C 126.60 135.87 125.83 136.49 125.73 137.34 C 125.64 138.20 126.25 138.97 127.11 139.06 Z M 128.45 139.19 L 129.43 139.05 C 130.30 138.94 130.91 138.14 130.79 137.27 C 130.67 136.41 129.87 135.80 129.01 135.92 L 128.03 136.06 C 127.16 136.17 126.56 136.97 126.67 137.84 C 126.79 138.70 127.59 139.31 128.45 139.19 Z M 129.51 139.04 L 130.48 138.86 C 131.34 138.70 131.90 137.87 131.74 137.01 C 131.58 136.15 130.75 135.59 129.89 135.75 L 128.93 135.93 C 128.07 136.10 127.50 136.92 127.67 137.78 C 127.83 138.64 128.66 139.20 129.51 139.04 Z M 130.47 138.86 L 131.47 138.68 C 132.33 138.53 132.90 137.71 132.75 136.85 C 132.60 135.99 131.78 135.42 130.92 135.57 L 129.91 135.75 C 129.05 135.90 128.48 136.72 128.63 137.58 C 128.79 138.44 129.61 139.01 130.47 138.86 Z M 131.48 138.68 L 132.45 138.50 C 133.31 138.34 133.88 137.52 133.72 136.66 C 133.56 135.80 132.73 135.23 131.88 135.39 L 130.91 135.57 C 130.05 135.73 129.48 136.56 129.64 137.41 C 129.80 138.27 130.62 138.84 131.48 138.68 Z M 132.46 138.49 L 133.46 138.30 C 134.31 138.13 134.87 137.31 134.70 136.45 C 134.54 135.60 133.71 135.04 132.85 135.21 L 131.86 135.40 C 131.01 135.56 130.45 136.39 130.62 137.25 C 130.78 138.10 131.61 138.66 132.46 138.49 Z M 133.46 138.29 L 134.43 138.10 C 135.28 137.93 135.84 137.10 135.67 136.25 C 135.50 135.40 134.67 134.85 133.82 135.02 L 132.85 135.21 C 132.00 135.38 131.44 136.21 131.61 137.06 C 131.78 137.91 132.61 138.46 133.46 138.29 Z M 134.43 138.10 L 135.41 137.90 C 136.26 137.73 136.81 136.91 136.64 136.06 C 136.48 135.21 135.65 134.66 134.80 134.83 L 133.82 135.02 C 132.97 135.19 132.42 136.02 132.59 136.86 C 132.76 137.71 133.58 138.26 134.43 138.10 Z M 135.40 137.90 L 136.40 137.71 C 137.24 137.54 137.80 136.72 137.63 135.88 C 137.47 135.03 136.65 134.48 135.81 134.64 L 134.81 134.83 C 133.97 134.99 133.41 135.81 133.58 136.66 C 133.74 137.51 134.56 138.06 135.40 137.90 Z M 136.39 137.70 L 137.36 137.52 C 138.20 137.37 138.76 136.55 138.60 135.71 C 138.44 134.86 137.63 134.31 136.79 134.46 L 135.82 134.64 C 134.97 134.80 134.41 135.61 134.57 136.46 C 134.73 137.30 135.54 137.86 136.39 137.70 Z M 137.36 137.52 L 138.36 137.33 C 139.20 137.17 139.76 136.36 139.60 135.52 C 139.44 134.68 138.63 134.12 137.79 134.28 L 136.79 134.47 C 135.94 134.62 135.39 135.43 135.54 136.28 C 135.70 137.12 136.51 137.68 137.36 137.52 Z M 138.36 137.33 L 139.34 137.14 C 140.18 136.98 140.73 136.17 140.57 135.33 C 140.41 134.49 139.60 133.94 138.76 134.10 L 137.78 134.28 C 136.94 134.45 136.39 135.26 136.55 136.10 C 136.71 136.94 137.52 137.49 138.36 137.33 Z M 139.34 137.14 L 140.33 136.95 C 141.17 136.79 141.71 135.97 141.55 135.13 C 141.39 134.30 140.58 133.75 139.74 133.91 L 138.76 134.10 C 137.92 134.26 137.37 135.07 137.53 135.91 C 137.69 136.75 138.50 137.30 139.34 137.14 Z M 140.32 136.95 L 141.31 136.76 C 142.15 136.60 142.70 135.80 142.54 134.96 C 142.38 134.12 141.58 133.57 140.74 133.72 L 139.75 133.91 C 138.91 134.07 138.36 134.87 138.51 135.71 C 138.67 136.55 139.48 137.10 140.32 136.95 Z M 141.29 136.76 L 142.26 136.59 C 143.10 136.44 143.66 135.64 143.51 134.80 C 143.36 133.96 142.56 133.41 141.72 133.55 L 140.75 133.73 C 139.92 133.87 139.36 134.67 139.51 135.51 C 139.66 136.35 140.45 136.91 141.29 136.76 Z M 142.25 136.58 L 143.24 136.41 C 144.07 136.27 144.63 135.48 144.49 134.64 C 144.35 133.81 143.55 133.25 142.72 133.39 L 141.73 133.56 C 140.90 133.70 140.34 134.50 140.48 135.33 C 140.62 136.17 141.42 136.73 142.25 136.58 Z M 143.24 136.41 L 144.24 136.24 C 145.07 136.09 145.63 135.30 145.49 134.47 C 145.34 133.64 144.55 133.08 143.72 133.22 L 142.72 133.40 C 141.89 133.54 141.33 134.33 141.47 135.16 C 141.61 135.99 142.40 136.55 143.24 136.41 Z M 144.24 136.23 L 145.24 136.05 C 146.06 135.91 146.62 135.12 146.47 134.30 C 146.33 133.47 145.54 132.92 144.72 133.06 L 143.72 133.23 C 142.89 133.38 142.34 134.16 142.48 134.99 C 142.63 135.82 143.41 136.37 144.24 136.23 Z M 145.23 136.04 L 146.23 135.87 C 147.05 135.73 147.60 134.95 147.45 134.13 C 147.31 133.30 146.53 132.75 145.71 132.90 L 144.72 133.07 C 143.90 133.21 143.35 133.99 143.49 134.81 C 143.63 135.63 144.41 136.18 145.23 136.04 Z M 146.22 135.86 L 147.21 135.69 C 148.03 135.55 148.58 134.78 148.44 133.96 C 148.30 133.15 147.53 132.60 146.71 132.74 L 145.72 132.91 C 144.90 133.04 144.35 133.82 144.49 134.63 C 144.63 135.45 145.40 136.00 146.22 135.86 Z M 147.20 135.69 L 148.21 135.52 C 149.02 135.39 149.57 134.62 149.44 133.81 C 149.30 132.99 148.54 132.44 147.72 132.58 L 146.72 132.74 C 145.90 132.88 145.35 133.65 145.49 134.46 C 145.62 135.27 146.39 135.82 147.20 135.69 Z M 148.21 135.51 L 149.17 135.35 C 149.98 135.22 150.52 134.45 150.39 133.64 C 150.25 132.84 149.49 132.29 148.68 132.42 L 147.72 132.58 C 146.91 132.72 146.37 133.49 146.50 134.29 C 146.64 135.10 147.40 135.65 148.21 135.51 Z M 149.18 135.35 L 150.17 135.17 C 150.98 135.03 151.51 134.26 151.37 133.46 C 151.23 132.65 150.46 132.11 149.66 132.26 L 148.66 132.43 C 147.86 132.58 147.32 133.34 147.47 134.15 C 147.61 134.95 148.38 135.49 149.18 135.35 Z M 150.19 135.16 L 151.17 134.97 C 151.97 134.82 152.49 134.05 152.34 133.25 C 152.19 132.45 151.42 131.93 150.62 132.08 L 149.64 132.27 C 148.84 132.42 148.31 133.19 148.47 133.99 C 148.62 134.79 149.39 135.31 150.19 135.16 Z M 151.19 134.96 L 152.17 134.76 C 152.96 134.60 153.47 133.83 153.31 133.03 C 153.15 132.24 152.38 131.73 151.58 131.89 L 150.60 132.09 C 149.81 132.25 149.30 133.02 149.46 133.82 C 149.62 134.61 150.39 135.13 151.19 134.96 Z M 152.18 134.76 L 153.17 134.54 C 153.96 134.37 154.46 133.60 154.29 132.81 C 154.12 132.02 153.35 131.52 152.56 131.69 L 151.57 131.90 C 150.78 132.07 150.28 132.84 150.45 133.63 C 150.62 134.42 151.39 134.92 152.18 134.76 Z M 153.17 134.54 L 154.13 134.33 C 154.92 134.15 155.42 133.38 155.24 132.60 C 155.07 131.81 154.30 131.31 153.51 131.49 L 152.55 131.70 C 151.77 131.87 151.27 132.64 151.44 133.42 C 151.62 134.21 152.39 134.71 153.17 134.54 Z M 154.14 134.32 L 155.13 134.10 C 155.91 133.93 156.40 133.15 156.23 132.37 C 156.06 131.59 155.29 131.10 154.51 131.27 L 153.51 131.49 C 152.73 131.67 152.24 132.44 152.41 133.22 C 152.59 134.00 153.36 134.49 154.14 134.32 Z M 155.16 134.08 L 156.12 133.85 C 156.89 133.66 157.36 132.88 157.17 132.11 C 156.98 131.34 156.20 130.86 155.43 131.05 L 154.47 131.29 C 153.70 131.48 153.23 132.26 153.42 133.03 C 153.61 133.80 154.39 134.27 155.16 134.08 Z M 156.18 133.83 L 157.13 133.55 C 157.89 133.32 158.33 132.52 158.10 131.76 C 157.88 131.00 157.08 130.57 156.32 130.79 L 155.37 131.08 C 154.61 131.30 154.17 132.10 154.39 132.86 C 154.62 133.62 155.42 134.05 156.18 133.83 Z M 157.21 133.52 L 158.12 133.19 C 158.86 132.93 159.25 132.11 158.98 131.36 C 158.72 130.62 157.90 130.23 157.15 130.50 L 156.25 130.82 C 155.50 131.09 155.11 131.91 155.38 132.65 C 155.65 133.40 156.47 133.78 157.21 133.52 Z M 158.30 133.11 L 159.20 132.63 C 159.90 132.26 160.16 131.40 159.80 130.70 C 159.43 130.00 158.56 129.74 157.86 130.11 L 156.97 130.58 C 156.27 130.95 156.00 131.82 156.37 132.51 C 156.74 133.21 157.61 133.48 158.30 133.11 Z M 159.42 132.48 L 160.18 131.88 C 160.79 131.39 160.89 130.49 160.40 129.88 C 159.91 129.26 159.01 129.16 158.39 129.65 L 157.64 130.25 C 157.03 130.75 156.93 131.64 157.42 132.26 C 157.91 132.88 158.81 132.98 159.42 132.48 Z M 160.27 131.80 L 161.02 131.08 C 161.59 130.54 161.60 129.63 161.06 129.06 C 160.51 128.50 159.61 128.48 159.04 129.02 L 158.30 129.74 C 157.73 130.28 157.71 131.19 158.25 131.76 C 158.80 132.32 159.70 132.34 160.27 131.80 Z M 161.04 131.06 L 161.19 130.91 C 161.75 130.35 161.75 129.45 161.20 128.89 C 160.64 128.33 159.74 128.33 159.18 128.89 L 159.02 129.04 C 158.47 129.60 158.46 130.50 159.02 131.06 C 159.58 131.62 160.48 131.62 161.04 131.06 Z"
      fill="black"
      fill-rule="nonzero" /><path d="M 138.35 124.64 L 138.73 125.60 C 139.03 126.37 139.90 126.76 140.67 126.46 C 141.44 126.15 141.83 125.28 141.52 124.51 L 141.15 123.55 C 140.85 122.78 139.98 122.40 139.21 122.70 C 138.43 123.00 138.05 123.87 138.35 124.64 Z M 138.69 125.64 L 139.05 126.55 C 139.37 127.34 140.28 127.72 141.07 127.40 C 141.87 127.08 142.25 126.18 141.93 125.39 L 141.56 124.48 C 141.24 123.68 140.34 123.30 139.55 123.62 C 138.75 123.94 138.37 124.84 138.69 125.64 Z M 139.04 126.59 L 139.43 127.50 C 139.78 128.30 140.70 128.67 141.50 128.32 C 142.31 127.98 142.68 127.05 142.33 126.25 L 141.94 125.34 C 141.60 124.54 140.67 124.17 139.87 124.52 C 139.07 124.86 138.70 125.79 139.04 126.59 Z M 139.44 127.51 L 139.85 128.43 C 140.20 129.23 141.13 129.59 141.93 129.24 C 142.73 128.88 143.09 127.95 142.73 127.15 L 142.33 126.23 C 141.97 125.43 141.04 125.07 140.24 125.43 C 139.44 125.78 139.08 126.72 139.44 127.51 Z M 139.84 128.42 L 140.22 129.28 C 140.57 130.08 141.50 130.44 142.30 130.09 C 143.10 129.74 143.46 128.81 143.11 128.01 L 142.74 127.16 C 142.39 126.36 141.46 125.99 140.66 126.34 C 139.86 126.69 139.49 127.63 139.84 128.42 Z M 140.21 129.28 L 140.63 130.22 C 140.98 131.03 141.91 131.39 142.71 131.04 C 143.51 130.69 143.88 129.76 143.53 128.96 L 143.11 128.01 C 142.76 127.21 141.83 126.85 141.03 127.19 C 140.23 127.54 139.86 128.48 140.21 129.28 Z M 140.63 130.23 L 141.03 131.14 C 141.38 131.93 142.32 132.29 143.12 131.94 C 143.92 131.59 144.28 130.65 143.92 129.85 L 143.52 128.95 C 143.17 128.15 142.24 127.79 141.44 128.15 C 140.64 128.50 140.28 129.43 140.63 130.23 Z M 141.03 131.14 L 141.43 132.04 C 141.78 132.84 142.72 133.20 143.52 132.84 C 144.32 132.49 144.68 131.55 144.32 130.75 L 143.92 129.85 C 143.57 129.05 142.64 128.69 141.84 129.05 C 141.04 129.40 140.68 130.34 141.03 131.14 Z M 141.42 132.03 L 141.84 132.99 C 142.19 133.79 143.12 134.16 143.93 133.81 C 144.73 133.46 145.10 132.52 144.75 131.72 L 144.33 130.76 C 143.98 129.96 143.05 129.59 142.24 129.94 C 141.44 130.29 141.07 131.22 141.42 132.03 Z M 141.83 132.97 L 142.21 133.87 C 142.55 134.68 143.48 135.05 144.29 134.71 C 145.10 134.37 145.47 133.44 145.13 132.64 L 144.76 131.74 C 144.42 130.93 143.49 130.55 142.68 130.89 C 141.87 131.23 141.49 132.16 141.83 132.97 Z M 142.20 133.85 L 142.57 134.76 C 142.91 135.58 143.83 135.96 144.65 135.63 C 145.46 135.30 145.85 134.37 145.51 133.56 L 145.14 132.65 C 144.81 131.84 143.88 131.45 143.07 131.78 C 142.26 132.11 141.87 133.04 142.20 133.85 Z M 142.57 134.75 L 142.95 135.71 C 143.28 136.52 144.20 136.92 145.02 136.59 C 145.83 136.26 146.23 135.34 145.90 134.52 L 145.52 133.57 C 145.19 132.76 144.27 132.36 143.45 132.69 C 142.64 133.01 142.24 133.94 142.57 134.75 Z M 142.95 135.70 L 143.32 136.64 C 143.64 137.45 144.57 137.85 145.38 137.53 C 146.20 137.21 146.60 136.28 146.28 135.47 L 145.90 134.53 C 145.58 133.71 144.66 133.31 143.84 133.64 C 143.02 133.96 142.62 134.88 142.95 135.70 Z M 143.32 136.63 L 143.67 137.54 C 143.99 138.35 144.91 138.76 145.73 138.43 C 146.55 138.11 146.95 137.19 146.63 136.37 L 146.28 135.47 C 145.96 134.65 145.03 134.25 144.22 134.57 C 143.40 134.89 143.00 135.82 143.32 136.63 Z M 143.67 137.53 L 144.03 138.47 C 144.35 139.28 145.28 139.69 146.09 139.37 C 146.91 139.05 147.32 138.12 147.00 137.31 L 146.63 136.37 C 146.31 135.56 145.39 135.15 144.57 135.47 C 143.75 135.79 143.35 136.72 143.67 137.53 Z M 144.04 138.46 L 144.41 139.43 C 144.73 140.24 145.65 140.65 146.47 140.33 C 147.29 140.01 147.69 139.09 147.37 138.27 L 147.00 137.31 C 146.68 136.49 145.75 136.09 144.94 136.41 C 144.12 136.73 143.72 137.65 144.04 138.46 Z M 144.41 139.43 L 144.78 140.37 C 145.10 141.19 146.02 141.59 146.84 141.27 C 147.66 140.95 148.06 140.03 147.74 139.21 L 147.37 138.27 C 147.05 137.45 146.13 137.05 145.31 137.37 C 144.50 137.69 144.09 138.61 144.41 139.43 Z M 144.78 140.37 L 145.15 141.30 C 145.46 142.12 146.39 142.52 147.20 142.20 C 148.02 141.88 148.42 140.96 148.10 140.14 L 147.74 139.21 C 147.42 138.40 146.50 137.99 145.68 138.31 C 144.87 138.63 144.46 139.55 144.78 140.37 Z M 145.15 141.30 L 145.51 142.24 C 145.83 143.05 146.75 143.46 147.57 143.14 C 148.38 142.82 148.79 141.90 148.47 141.08 L 148.10 140.14 C 147.78 139.33 146.86 138.92 146.05 139.24 C 145.23 139.56 144.83 140.48 145.15 141.30 Z M 145.51 142.23 L 145.87 143.17 C 146.19 143.99 147.11 144.39 147.93 144.08 C 148.74 143.76 149.15 142.84 148.83 142.02 L 148.47 141.09 C 148.15 140.27 147.23 139.86 146.42 140.18 C 145.60 140.50 145.19 141.42 145.51 142.23 Z M 145.87 143.17 L 146.24 144.11 C 146.55 144.93 147.47 145.33 148.28 145.02 C 149.10 144.71 149.51 143.79 149.20 142.97 L 148.83 142.03 C 148.52 141.21 147.60 140.80 146.79 141.12 C 145.97 141.43 145.56 142.35 145.87 143.17 Z M 146.23 144.10 L 146.59 145.05 C 146.90 145.87 147.82 146.28 148.64 145.97 C 149.46 145.66 149.87 144.74 149.56 143.92 L 149.20 142.98 C 148.89 142.16 147.97 141.75 147.15 142.06 C 146.33 142.37 145.92 143.28 146.23 144.10 Z M 146.59 145.04 L 146.94 145.98 C 147.25 146.80 148.16 147.21 148.98 146.91 C 149.80 146.60 150.22 145.68 149.91 144.86 L 149.56 143.93 C 149.25 143.11 148.34 142.69 147.52 143.00 C 146.70 143.31 146.28 144.22 146.59 145.04 Z M 146.94 145.97 L 147.28 146.90 C 147.58 147.72 148.50 148.14 149.32 147.83 C 150.14 147.53 150.56 146.62 150.26 145.80 L 149.91 144.87 C 149.61 144.05 148.70 143.63 147.87 143.93 C 147.05 144.24 146.63 145.15 146.94 145.97 Z M 147.28 146.89 L 147.62 147.83 C 147.92 148.65 148.83 149.07 149.65 148.77 C 150.48 148.47 150.90 147.56 150.60 146.74 L 150.26 145.80 C 149.96 144.98 149.05 144.56 148.22 144.86 C 147.40 145.16 146.98 146.07 147.28 146.89 Z M 147.62 147.82 L 147.96 148.77 C 148.26 149.59 149.17 150.02 149.99 149.72 C 150.82 149.42 151.24 148.52 150.95 147.69 L 150.60 146.74 C 150.30 145.92 149.39 145.49 148.57 145.79 C 147.75 146.09 147.32 147.00 147.62 147.82 Z M 147.96 148.77 L 148.30 149.71 C 148.59 150.53 149.50 150.96 150.33 150.67 C 151.15 150.37 151.58 149.46 151.29 148.64 L 150.95 147.69 C 150.65 146.87 149.74 146.44 148.92 146.74 C 148.09 147.03 147.66 147.94 147.96 148.77 Z M 148.30 149.71 L 148.63 150.64 C 148.93 151.47 149.83 151.90 150.66 151.60 C 151.48 151.31 151.91 150.40 151.62 149.57 L 151.29 148.64 C 150.99 147.81 150.08 147.38 149.26 147.68 C 148.43 147.97 148.00 148.88 148.30 149.71 Z M 148.63 150.64 L 148.97 151.59 C 149.26 152.42 150.17 152.85 151.00 152.55 C 151.82 152.26 152.25 151.35 151.96 150.53 L 151.62 149.57 C 151.32 148.75 150.42 148.32 149.59 148.61 C 148.77 148.91 148.34 149.82 148.63 150.64 Z M 148.97 151.59 L 149.31 152.55 C 149.61 153.38 150.52 153.81 151.34 153.51 C 152.17 153.22 152.60 152.31 152.30 151.48 L 151.96 150.52 C 151.66 149.70 150.75 149.27 149.93 149.57 C 149.11 149.86 148.68 150.77 148.97 151.59 Z M 149.32 152.55 L 149.65 153.49 C 149.95 154.31 150.86 154.74 151.68 154.45 C 152.50 154.15 152.93 153.25 152.63 152.42 L 152.30 151.48 C 152.00 150.66 151.10 150.23 150.27 150.53 C 149.45 150.82 149.02 151.73 149.32 152.55 Z M 149.66 153.49 L 149.98 154.41 C 150.28 155.23 151.19 155.66 152.01 155.36 C 152.83 155.07 153.26 154.16 152.96 153.34 L 152.63 152.42 C 152.34 151.60 151.43 151.17 150.61 151.47 C 149.79 151.76 149.36 152.67 149.66 153.49 Z M 149.99 154.41 L 150.34 155.38 C 150.63 156.21 151.54 156.63 152.36 156.34 C 153.18 156.04 153.61 155.13 153.31 154.31 L 152.96 153.34 C 152.66 152.52 151.76 152.09 150.94 152.39 C 150.12 152.68 149.69 153.59 149.99 154.41 Z M 150.34 155.39 L 150.69 156.34 C 150.98 157.16 151.89 157.58 152.71 157.29 C 153.53 156.99 153.95 156.08 153.65 155.27 L 153.31 154.31 C 153.01 153.49 152.11 153.07 151.29 153.37 C 150.47 153.66 150.05 154.57 150.34 155.39 Z M 150.69 156.34 L 151.03 157.25 C 151.32 158.07 152.23 158.49 153.05 158.19 C 153.86 157.89 154.28 156.99 153.98 156.17 L 153.65 155.26 C 153.35 154.44 152.45 154.03 151.63 154.32 C 150.81 154.62 150.39 155.53 150.69 156.34 Z M 151.03 157.26 L 151.38 158.20 C 151.68 159.01 152.59 159.43 153.40 159.12 C 154.22 158.82 154.63 157.92 154.33 157.10 L 153.98 156.16 C 153.67 155.35 152.77 154.94 151.96 155.24 C 151.14 155.54 150.73 156.45 151.03 157.26 Z M 151.39 158.21 L 151.75 159.15 C 152.06 159.96 152.97 160.37 153.77 160.06 C 154.58 159.75 154.99 158.84 154.68 158.04 L 154.32 157.09 C 154.01 156.28 153.10 155.88 152.29 156.19 C 151.49 156.50 151.08 157.40 151.39 158.21 Z M 151.76 159.17 L 152.12 160.07 C 152.43 160.88 153.34 161.27 154.15 160.95 C 154.95 160.63 155.34 159.73 155.03 158.92 L 154.67 158.02 C 154.35 157.22 153.44 156.82 152.64 157.14 C 151.84 157.46 151.44 158.37 151.76 159.17 Z M 152.13 160.09 L 152.51 161.01 C 152.84 161.81 153.75 162.19 154.55 161.86 C 155.34 161.53 155.72 160.62 155.39 159.82 L 155.01 158.90 C 154.68 158.11 153.77 157.73 152.98 158.06 C 152.18 158.39 151.80 159.30 152.13 160.09 Z M 152.53 161.05 L 152.94 161.96 C 153.29 162.75 154.20 163.10 154.99 162.75 C 155.77 162.40 156.12 161.48 155.78 160.70 L 155.37 159.79 C 155.02 159.00 154.10 158.65 153.32 159.00 C 152.54 159.35 152.18 160.27 152.53 161.05 Z M 152.97 162.02 L 153.41 162.91 C 153.79 163.68 154.72 163.99 155.48 163.61 C 156.25 163.23 156.56 162.30 156.19 161.54 L 155.74 160.65 C 155.36 159.88 154.44 159.57 153.67 159.95 C 152.91 160.32 152.59 161.25 152.97 162.02 Z M 153.46 162.98 L 153.96 163.87 C 154.38 164.61 155.32 164.87 156.06 164.45 C 156.80 164.04 157.06 163.10 156.64 162.36 L 156.14 161.47 C 155.72 160.73 154.78 160.47 154.04 160.88 C 153.30 161.30 153.04 162.24 153.46 162.98 Z M 154.02 163.95 L 154.57 164.79 C 155.03 165.49 155.98 165.69 156.69 165.23 C 157.40 164.76 157.59 163.81 157.13 163.11 L 156.58 162.27 C 156.12 161.57 155.17 161.37 154.46 161.83 C 153.75 162.30 153.56 163.25 154.02 163.95 Z M 154.65 164.89 L 155.28 165.70 C 155.80 166.36 156.76 166.48 157.42 165.96 C 158.08 165.44 158.20 164.48 157.68 163.82 L 157.05 163.01 C 156.53 162.34 155.57 162.23 154.91 162.75 C 154.24 163.27 154.13 164.22 154.65 164.89 Z M 155.42 165.83 L 156.14 166.54 C 156.73 167.13 157.69 167.12 158.28 166.53 C 158.87 165.93 158.86 164.97 158.26 164.39 L 157.54 163.68 C 156.95 163.09 155.99 163.10 155.40 163.69 C 154.82 164.29 154.82 165.25 155.42 165.83 Z M 156.41 166.74 L 157.26 167.26 C 157.96 167.70 158.88 167.48 159.32 166.78 C 159.76 166.07 159.54 165.15 158.83 164.71 L 157.99 164.19 C 157.29 163.75 156.36 163.97 155.93 164.68 C 155.49 165.38 155.71 166.30 156.41 166.74 Z M 157.96 167.47 L 158.90 167.52 C 159.72 167.57 160.42 166.94 160.46 166.12 C 160.51 165.31 159.88 164.61 159.07 164.56 L 158.13 164.51 C 157.31 164.46 156.61 165.09 156.56 165.90 C 156.52 166.72 157.14 167.42 157.96 167.47 Z M 160.11 166.96 L 160.65 166.31 C 161.16 165.68 161.07 164.76 160.44 164.25 C 159.81 163.74 158.89 163.83 158.38 164.46 L 157.85 165.12 C 157.34 165.74 157.43 166.66 158.06 167.17 C 158.68 167.68 159.60 167.59 160.11 166.96 Z M 160.89 165.81 L 161.21 164.76 C 161.45 164.00 161.02 163.20 160.26 162.96 C 159.50 162.73 158.70 163.16 158.46 163.92 L 158.14 164.96 C 157.91 165.72 158.33 166.52 159.09 166.76 C 159.85 166.99 160.66 166.57 160.89 165.81 Z"
      fill="black"
      fill-rule="nonzero" /><path d="M 141.28 119.50 L 142.17 119.86 C 142.95 120.17 143.84 119.80 144.15 119.02 C 144.47 118.24 144.09 117.35 143.31 117.03 L 142.43 116.67 C 141.65 116.36 140.76 116.73 140.44 117.51 C 140.12 118.29 140.50 119.18 141.28 119.50 Z M 142.11 119.85 L 143.03 120.26 C 143.80 120.61 144.71 120.26 145.06 119.49 C 145.41 118.71 145.06 117.80 144.29 117.45 L 143.37 117.04 C 142.60 116.69 141.68 117.04 141.34 117.81 C 140.99 118.59 141.33 119.50 142.11 119.85 Z M 142.94 120.22 L 143.85 120.70 C 144.60 121.10 145.54 120.81 145.93 120.05 C 146.33 119.30 146.04 118.37 145.29 117.98 L 144.37 117.50 C 143.62 117.10 142.69 117.39 142.29 118.14 C 141.90 118.89 142.19 119.82 142.94 120.22 Z M 143.80 120.64 L 144.68 121.16 C 145.40 121.59 146.33 121.35 146.75 120.63 C 147.18 119.91 146.94 118.98 146.22 118.56 L 145.34 118.03 C 144.62 117.61 143.69 117.85 143.27 118.57 C 142.84 119.29 143.08 120.21 143.80 120.64 Z M 144.66 121.11 L 145.51 121.64 C 146.20 122.08 147.11 121.88 147.55 121.19 C 147.98 120.50 147.78 119.58 147.09 119.15 L 146.24 118.61 C 145.55 118.17 144.64 118.38 144.20 119.07 C 143.77 119.76 143.97 120.67 144.66 121.11 Z M 145.50 121.61 L 146.36 122.17 C 147.03 122.62 147.93 122.43 148.37 121.76 C 148.81 121.10 148.63 120.20 147.96 119.76 L 147.10 119.19 C 146.43 118.75 145.53 118.93 145.09 119.60 C 144.65 120.26 144.83 121.16 145.50 121.61 Z M 146.34 122.15 L 147.15 122.70 C 147.80 123.15 148.69 122.99 149.15 122.34 C 149.60 121.69 149.43 120.79 148.78 120.34 L 147.97 119.78 C 147.32 119.33 146.43 119.50 145.98 120.15 C 145.52 120.80 145.69 121.70 146.34 122.15 Z M 147.13 122.68 L 147.90 123.24 C 148.54 123.70 149.43 123.56 149.90 122.92 C 150.36 122.28 150.22 121.39 149.58 120.93 L 148.80 120.36 C 148.16 119.90 147.27 120.04 146.81 120.68 C 146.34 121.32 146.49 122.22 147.13 122.68 Z M 147.88 123.23 L 148.68 123.82 C 149.31 124.29 150.20 124.16 150.68 123.53 C 151.15 122.90 151.02 122.01 150.39 121.54 L 149.59 120.94 C 148.96 120.47 148.07 120.60 147.60 121.23 C 147.13 121.86 147.25 122.75 147.88 123.23 Z M 148.67 123.81 L 149.48 124.43 C 150.11 124.91 151.00 124.78 151.48 124.16 C 151.96 123.53 151.83 122.64 151.21 122.16 L 150.40 121.54 C 149.77 121.07 148.88 121.19 148.40 121.82 C 147.92 122.44 148.05 123.34 148.67 123.81 Z"
      fill="black"
      fill-rule="nonzero" /><path d="M 158.59 139.09 L 157.95 139.74 C 157.34 140.36 157.35 141.37 157.97 141.98 C 158.60 142.60 159.60 142.59 160.22 141.96 L 160.86 141.31 C 161.47 140.68 161.46 139.68 160.83 139.06 C 160.21 138.45 159.20 138.46 158.59 139.09 Z M 157.87 139.73 L 157.15 140.51 C 156.53 141.18 156.57 142.22 157.24 142.84 C 157.91 143.46 158.95 143.42 159.57 142.75 L 160.29 141.97 C 160.91 141.30 160.87 140.26 160.20 139.64 C 159.53 139.02 158.49 139.06 157.87 139.73 Z M 157.10 140.52 L 156.46 141.25 C 155.85 141.95 155.91 143.01 156.61 143.62 C 157.30 144.23 158.36 144.16 158.97 143.47 L 159.62 142.74 C 160.23 142.04 160.16 140.99 159.47 140.37 C 158.77 139.76 157.71 139.83 157.10 140.52 Z M 156.45 141.27 L 155.77 142.05 C 155.17 142.75 155.24 143.81 155.94 144.41 C 156.64 145.02 157.70 144.94 158.30 144.24 L 158.98 143.46 C 159.59 142.76 159.51 141.70 158.81 141.10 C 158.11 140.49 157.06 140.57 156.45 141.27 Z M 155.77 142.05 L 155.11 142.82 C 154.51 143.52 154.58 144.57 155.28 145.18 C 155.97 145.78 157.03 145.70 157.63 145.01 L 158.30 144.24 C 158.90 143.54 158.82 142.49 158.13 141.89 C 157.43 141.28 156.38 141.36 155.77 142.05 Z M 155.12 142.83 L 154.47 143.57 C 153.87 144.26 153.95 145.31 154.64 145.91 C 155.33 146.51 156.38 146.44 156.98 145.74 L 157.62 145.00 C 158.22 144.31 158.15 143.26 157.46 142.66 C 156.76 142.06 155.72 142.14 155.12 142.83 Z M 154.48 143.59 L 153.82 144.35 C 153.23 145.04 153.31 146.08 154.00 146.67 C 154.69 147.26 155.73 147.18 156.33 146.49 L 156.98 145.73 C 157.57 145.04 157.49 144.00 156.80 143.41 C 156.11 142.81 155.07 142.89 154.48 143.59 Z M 153.82 144.36 L 153.22 145.07 C 152.64 145.76 152.72 146.80 153.42 147.38 C 154.11 147.97 155.14 147.88 155.73 147.19 L 156.32 146.48 C 156.91 145.79 156.82 144.75 156.13 144.17 C 155.44 143.58 154.41 143.67 153.82 144.36 Z M 153.23 145.08 L 152.58 145.84 C 152.00 146.53 152.08 147.56 152.77 148.14 C 153.46 148.72 154.49 148.64 155.07 147.95 L 155.72 147.18 C 156.30 146.50 156.21 145.47 155.53 144.89 C 154.84 144.30 153.81 144.39 153.23 145.08 Z M 152.60 145.84 L 151.90 146.65 C 151.32 147.33 151.39 148.35 152.07 148.93 C 152.75 149.52 153.77 149.44 154.36 148.76 L 155.05 147.95 C 155.64 147.28 155.56 146.25 154.88 145.67 C 154.20 145.08 153.18 145.16 152.60 145.84 Z M 151.92 146.64 L 151.29 147.35 C 150.70 148.02 150.77 149.04 151.44 149.63 C 152.10 150.22 153.12 150.15 153.71 149.48 L 154.34 148.77 C 154.93 148.10 154.86 147.08 154.19 146.50 C 153.53 145.91 152.51 145.97 151.92 146.64 Z M 151.31 147.35 L 150.65 148.09 C 150.05 148.75 150.11 149.76 150.77 150.35 C 151.43 150.94 152.44 150.89 153.03 150.23 L 153.69 149.49 C 154.28 148.83 154.23 147.82 153.57 147.23 C 152.91 146.64 151.90 146.69 151.31 147.35 Z M 150.66 148.08 L 149.97 148.85 C 149.37 149.49 149.42 150.50 150.07 151.09 C 150.72 151.69 151.73 151.64 152.32 150.99 L 153.01 150.23 C 153.61 149.58 153.56 148.57 152.91 147.98 C 152.26 147.39 151.25 147.43 150.66 148.08 Z M 149.98 148.84 L 149.29 149.58 C 148.70 150.23 148.74 151.23 149.38 151.82 C 150.02 152.41 151.02 152.38 151.62 151.73 L 152.30 150.99 C 152.90 150.35 152.86 149.35 152.22 148.76 C 151.58 148.16 150.57 148.20 149.98 148.84 Z M 149.31 149.58 L 148.64 150.29 C 148.05 150.93 148.08 151.92 148.71 152.52 C 149.35 153.11 150.34 153.08 150.94 152.45 L 151.60 151.74 C 152.20 151.10 152.17 150.11 151.53 149.51 C 150.90 148.92 149.90 148.95 149.31 149.58 Z M 148.66 150.29 L 147.97 151.02 C 147.37 151.64 147.40 152.63 148.03 153.23 C 148.65 153.82 149.64 153.80 150.24 153.17 L 150.93 152.45 C 151.52 151.82 151.50 150.83 150.87 150.23 C 150.24 149.64 149.25 149.66 148.66 150.29 Z M 147.98 151.01 L 147.27 151.75 C 146.68 152.37 146.70 153.36 147.32 153.95 C 147.93 154.55 148.92 154.53 149.52 153.91 L 150.23 153.17 C 150.82 152.55 150.80 151.57 150.18 150.97 C 149.56 150.38 148.58 150.39 147.98 151.01 Z M 147.28 151.75 L 146.57 152.48 C 145.98 153.10 145.99 154.08 146.60 154.67 C 147.21 155.27 148.19 155.25 148.79 154.64 L 149.50 153.91 C 150.10 153.30 150.09 152.32 149.47 151.72 C 148.86 151.13 147.88 151.14 147.28 151.75 Z M 146.59 152.48 L 145.88 153.19 C 145.29 153.80 145.29 154.77 145.90 155.37 C 146.50 155.97 147.48 155.96 148.08 155.36 L 148.78 154.64 C 149.37 154.04 149.37 153.06 148.76 152.47 C 148.16 151.87 147.18 151.88 146.59 152.48 Z M 145.90 153.19 L 145.19 153.91 C 144.59 154.50 144.59 155.47 145.19 156.07 C 145.78 156.67 146.75 156.67 147.35 156.07 L 148.06 155.36 C 148.66 154.76 148.66 153.79 148.06 153.19 C 147.46 152.60 146.50 152.60 145.90 153.19 Z M 145.20 153.90 L 144.48 154.61 C 143.89 155.20 143.88 156.16 144.47 156.76 C 145.06 157.36 146.02 157.36 146.62 156.78 L 147.33 156.07 C 147.93 155.48 147.94 154.52 147.35 153.92 C 146.76 153.32 145.80 153.32 145.20 153.90 Z M 144.50 154.61 L 143.78 155.30 C 143.18 155.88 143.17 156.83 143.75 157.43 C 144.33 158.03 145.28 158.05 145.88 157.47 L 146.60 156.78 C 147.20 156.20 147.22 155.24 146.64 154.64 C 146.06 154.04 145.10 154.03 144.50 154.61 Z M 143.80 155.29 L 143.05 156.00 C 142.45 156.57 142.42 157.52 142.99 158.12 C 143.56 158.73 144.51 158.76 145.11 158.19 L 145.86 157.48 C 146.47 156.91 146.49 155.96 145.92 155.35 C 145.36 154.75 144.41 154.72 143.80 155.29 Z M 143.07 155.99 L 142.33 156.68 C 141.72 157.24 141.68 158.18 142.24 158.79 C 142.80 159.40 143.75 159.44 144.35 158.88 L 145.09 158.19 C 145.70 157.63 145.74 156.69 145.18 156.08 C 144.62 155.47 143.68 155.44 143.07 155.99 Z M 142.35 156.67 L 141.61 157.33 C 141.00 157.88 140.95 158.82 141.50 159.43 C 142.05 160.04 142.99 160.09 143.60 159.54 L 144.33 158.88 C 144.95 158.33 145.00 157.39 144.45 156.78 C 143.90 156.17 142.96 156.12 142.35 156.67 Z M 141.63 157.32 L 140.90 157.96 C 140.29 158.50 140.23 159.44 140.76 160.05 C 141.30 160.67 142.24 160.73 142.85 160.19 L 143.58 159.55 C 144.20 159.01 144.26 158.07 143.72 157.46 C 143.18 156.85 142.25 156.78 141.63 157.32 Z M 140.92 157.96 L 140.14 158.63 C 139.52 159.15 139.45 160.08 139.97 160.70 C 140.50 161.32 141.43 161.39 142.05 160.86 L 142.83 160.20 C 143.45 159.67 143.53 158.74 143.00 158.12 C 142.47 157.50 141.54 157.43 140.92 157.96 Z M 140.15 158.62 L 139.38 159.27 C 138.76 159.78 138.67 160.71 139.19 161.33 C 139.71 161.95 140.64 162.04 141.26 161.52 L 142.03 160.87 C 142.65 160.35 142.74 159.43 142.22 158.81 C 141.70 158.18 140.78 158.10 140.15 158.62 Z M 139.40 159.26 L 138.63 159.88 C 138.01 160.39 137.92 161.31 138.43 161.94 C 138.94 162.56 139.86 162.65 140.48 162.14 L 141.24 161.52 C 141.87 161.01 141.96 160.09 141.45 159.47 C 140.94 158.84 140.02 158.75 139.40 159.26 Z M 138.65 159.88 L 137.87 160.50 C 137.24 161.01 137.14 161.92 137.65 162.55 C 138.15 163.17 139.06 163.27 139.69 162.77 L 140.47 162.15 C 141.09 161.64 141.19 160.73 140.69 160.10 C 140.19 159.48 139.27 159.38 138.65 159.88 Z M 137.88 160.50 L 137.06 161.14 C 136.43 161.64 136.33 162.55 136.82 163.18 C 137.32 163.81 138.23 163.92 138.86 163.42 L 139.68 162.78 C 140.31 162.28 140.42 161.37 139.92 160.74 C 139.42 160.11 138.51 160.00 137.88 160.50 Z M 137.07 161.14 L 136.29 161.74 C 135.66 162.24 135.54 163.15 136.03 163.78 C 136.52 164.41 137.43 164.53 138.07 164.04 L 138.85 163.43 C 139.49 162.94 139.60 162.03 139.11 161.39 C 138.62 160.76 137.71 160.64 137.07 161.14 Z M 136.30 161.74 L 135.55 162.31 C 134.91 162.80 134.78 163.71 135.27 164.34 C 135.76 164.98 136.67 165.11 137.30 164.62 L 138.06 164.05 C 138.70 163.56 138.82 162.65 138.33 162.01 C 137.85 161.37 136.94 161.25 136.30 161.74 Z M 135.56 162.30 L 134.72 162.92 C 134.08 163.40 133.95 164.31 134.43 164.96 C 134.91 165.60 135.82 165.73 136.46 165.25 L 137.29 164.63 C 137.94 164.15 138.07 163.24 137.59 162.60 C 137.11 161.95 136.20 161.82 135.56 162.30 Z M 134.73 162.91 L 133.93 163.49 C 133.29 163.97 133.15 164.88 133.62 165.53 C 134.10 166.18 135.01 166.32 135.66 165.85 L 136.46 165.26 C 137.11 164.79 137.25 163.87 136.77 163.22 C 136.29 162.57 135.38 162.43 134.73 162.91 Z M 133.94 163.49 L 133.35 163.92 C 132.69 164.39 132.55 165.31 133.03 165.96 C 133.50 166.61 134.42 166.76 135.07 166.28 L 135.66 165.85 C 136.31 165.38 136.46 164.46 135.98 163.81 C 135.51 163.15 134.59 163.01 133.94 163.49 Z"
      fill="black"
      fill-rule="nonzero" /></svg>