<svg xmlns="http://www.w3.org/2000/svg" width="300" height="300" viewBox="0 0 300 300">
<path d="M 151.19 126.62 L 151.20 125.47 C 151.21 124.65 150.56 123.98 149.74 123.96 C 148.92 123.95 148.24 124.61 148.23 125.43 L 148.21 126.58 C 148.20 127.40 148.86 128.08 149.68 128.09 C 150.50 128.10 151.17 127.44 151.19 126.62 Z M 148.22 125.73 L 148.30 126.14 C 148.46 126.97 149.25 127.51 150.08 127.35 C 150.90 127.19 151.44 126.40 151.29 125.57 L 151.21 125.17 C 151.05 124.34 150.26 123.80 149.43 123.96 C 148.61 124.11 148.07 124.91 148.22 125.73 Z M 148.27 125.99 L 148.38 127.26 C 148.46 128.10 149.20 128.72 150.04 128.65 C 150.88 128.57 151.50 127.83 151.43 126.99 L 151.32 125.72 C 151.24 124.88 150.50 124.26 149.66 124.33 C 148.82 124.41 148.19 125.15 148.27 125.99 Z M 148.38 127.25 L 148.46 128.23 C 148.53 129.08 149.27 129.70 150.11 129.63 C 150.96 129.56 151.58 128.82 151.51 127.98 L 151.43 126.99 C 151.36 126.15 150.62 125.52 149.78 125.59 C 148.94 125.66 148.31 126.40 148.38 127.25 Z M 148.46 128.21 L 148.52 129.21 C 148.58 130.05 149.31 130.69 150.15 130.64 C 151.00 130.58 151.64 129.85 151.58 129.01 L 151.52 128.01 C 151.46 127.16 150.73 126.52 149.89 126.58 C 149.04 126.63 148.40 127.36 148.46 128.21 Z M 148.52 129.16 L 148.56 130.15 C 148.59 130.99 149.30 131.65 150.14 131.62 C 150.99 131.59 151.65 130.88 151.62 130.04 L 151.58 129.05 C 151.55 128.21 150.84 127.55 150.00 127.58 C 149.15 127.61 148.49 128.32 148.52 129.16 Z M 148.56 130.11 L 148.57 131.11 C 148.58 131.95 149.27 132.63 150.12 132.62 C 150.96 132.61 151.64 131.92 151.63 131.07 L 151.62 130.07 C 151.61 129.23 150.91 128.55 150.07 128.56 C 149.22 128.57 148.55 129.26 148.56 130.11 Z M 148.57 131.09 L 148.57 132.12 C 148.57 132.96 149.26 133.64 150.10 133.64 C 150.95 133.64 151.63 132.96 151.63 132.11 L 151.63 131.09 C 151.63 130.24 150.94 129.56 150.10 129.56 C 149.25 129.56 148.57 130.25 148.57 131.09 Z M 148.58 132.11 L 148.58 133.12 C 148.58 133.96 149.26 134.64 150.10 134.64 C 150.94 134.64 151.62 133.96 151.62 133.12 L 151.62 132.11 C 151.62 131.27 150.94 130.59 150.10 130.59 C 149.26 130.59 148.58 131.27 148.58 132.11 Z M 148.58 133.12 L 148.58 134.12 C 148.58 134.96 149.26 135.64 150.10 135.64 C 150.94 135.64 151.62 134.96 151.62 134.12 L 151.62 133.12 C 151.62 132.28 150.94 131.60 150.10 131.60 C 149.26 131.60 148.58 132.28 148.58 133.12 Z M 148.59 134.12 L 148.59 135.13 C 148.59 135.97 149.26 136.65 150.10 136.65 C 150.93 136.65 151.61 135.97 151.61 135.13 L 151.61 134.12 C 151.61 133.29 150.94 132.61 150.10 132.61 C 149.27 132.61 148.59 133.29 148.59 134.12 Z M 148.60 135.12 L 148.59 136.13 C 148.59 136.96 149.26 137.64 150.08 137.64 C 150.91 137.65 151.59 136.98 151.59 136.15 L 151.60 135.14 C 151.61 134.31 150.94 133.64 150.11 133.63 C 149.28 133.63 148.61 134.30 148.60 135.12 Z M 148.61 136.10 L 148.58 137.08 C 148.56 137.90 149.21 138.58 150.03 138.60 C 150.85 138.62 151.53 137.98 151.55 137.15 L 151.58 136.18 C 151.60 135.36 150.95 134.68 150.13 134.66 C 149.31 134.64 148.63 135.28 148.61 136.10 Z M 148.60 137.03 L 148.54 137.95 C 148.50 138.76 149.12 139.46 149.93 139.51 C 150.74 139.56 151.44 138.94 151.49 138.12 L 151.54 137.20 C 151.59 136.39 150.97 135.69 150.15 135.65 C 149.34 135.60 148.64 136.22 148.60 137.03 Z M 148.56 137.91 L 148.47 138.90 C 148.40 139.70 148.99 140.41 149.79 140.49 C 150.60 140.56 151.31 139.97 151.38 139.16 L 151.47 138.17 C 151.54 137.37 150.95 136.66 150.15 136.58 C 149.34 136.51 148.63 137.10 148.56 137.91 Z M 148.48 138.86 L 148.37 139.89 C 148.27 140.69 148.85 141.41 149.64 141.50 C 150.44 141.59 151.16 141.02 151.25 140.22 L 151.37 139.20 C 151.46 138.40 150.89 137.68 150.09 137.59 C 149.29 137.50 148.57 138.07 148.48 138.86 Z M 148.37 139.87 L 148.26 140.81 C 148.15 141.60 148.71 142.33 149.51 142.43 C 150.30 142.53 151.02 141.97 151.12 141.18 L 151.24 140.24 C 151.34 139.45 150.78 138.73 149.99 138.62 C 149.20 138.52 148.48 139.08 148.37 139.87 Z M 148.26 140.81 L 148.13 141.82 C 148.02 142.60 148.58 143.33 149.36 143.43 C 150.15 143.54 150.87 142.98 150.98 142.20 L 151.11 141.19 C 151.22 140.40 150.66 139.68 149.88 139.57 C 149.09 139.47 148.37 140.02 148.26 140.81 Z M 148.13 141.81 L 147.99 142.87 C 147.88 143.65 148.43 144.37 149.22 144.48 C 150.00 144.58 150.72 144.04 150.83 143.25 L 150.97 142.20 C 151.08 141.42 150.53 140.69 149.75 140.59 C 148.96 140.48 148.24 141.03 148.13 141.81 Z M 147.99 142.87 L 147.96 143.12 C 147.85 143.90 148.40 144.62 149.18 144.73 C 149.96 144.83 150.68 144.29 150.79 143.51 L 150.82 143.25 C 150.93 142.47 150.38 141.75 149.60 141.64 C 148.82 141.54 148.10 142.08 147.99 142.87 Z"
      fill="black"
      fill-rule="nonzero" /><path d="M 135.82 142.37 L 136.28 141.32 C 136.61 140.58 136.27 139.71 135.52 139.38 C 134.78 139.05 133.91 139.39 133.58 140.14 L 133.12 141.19 C 132.79 141.94 133.13 142.81 133.88 143.13 C 134.63 143.46 135.50 143.12 135.82 142.37 Z M 134.75 142.23 L 135.23 142.28 C 136.05 142.38 136.80 141.79 136.90 140.97 C 137.00 140.14 136.41 139.39 135.59 139.29 L 135.11 139.24 C 134.29 139.14 133.54 139.73 133.44 140.55 C 133.34 141.38 133.93 142.13 134.75 142.23 Z M 133.95 141.24 L 134.30 142.33 C 134.55 143.13 135.40 143.58 136.20 143.33 C 137.01 143.08 137.45 142.22 137.20 141.42 L 136.86 140.33 C 136.61 139.53 135.76 139.08 134.95 139.33 C 134.15 139.59 133.70 140.44 133.95 141.24 Z M 134.23 142.07 L 134.35 143.04 C 134.46 143.88 135.23 144.48 136.06 144.37 C 136.90 144.26 137.50 143.50 137.39 142.66 L 137.27 141.68 C 137.16 140.84 136.39 140.25 135.56 140.36 C 134.72 140.46 134.12 141.23 134.23 142.07 Z M 134.34 142.96 L 134.41 143.98 C 134.47 144.82 135.21 145.46 136.05 145.40 C 136.90 145.34 137.54 144.60 137.47 143.76 L 137.40 142.74 C 137.34 141.90 136.61 141.26 135.76 141.32 C 134.92 141.38 134.28 142.12 134.34 142.96 Z M 134.41 143.96 L 134.47 144.95 C 134.52 145.79 135.25 146.44 136.09 146.39 C 136.94 146.34 137.59 145.61 137.54 144.77 L 137.48 143.78 C 137.43 142.93 136.70 142.28 135.85 142.33 C 135.01 142.38 134.36 143.11 134.41 143.96 Z M 134.47 144.92 L 134.51 145.94 C 134.54 146.78 135.26 147.44 136.10 147.41 C 136.95 147.38 137.61 146.66 137.58 145.82 L 137.54 144.80 C 137.50 143.95 136.79 143.29 135.94 143.32 C 135.09 143.35 134.43 144.07 134.47 144.92 Z M 134.51 145.90 L 134.52 146.90 C 134.54 147.75 135.23 148.43 136.08 148.42 C 136.93 148.40 137.61 147.71 137.59 146.86 L 137.58 145.85 C 137.57 145.00 136.87 144.33 136.02 144.34 C 135.17 144.35 134.49 145.05 134.51 145.90 Z M 134.52 146.88 L 134.53 147.88 C 134.53 148.73 135.22 149.41 136.07 149.41 C 136.91 149.41 137.60 148.72 137.60 147.87 L 137.59 146.88 C 137.59 146.03 136.90 145.34 136.05 145.35 C 135.21 145.35 134.52 146.04 134.52 146.88 Z M 134.53 147.88 L 134.53 148.84 C 134.53 149.69 135.21 150.37 136.06 150.38 C 136.91 150.38 137.59 149.69 137.59 148.84 L 137.59 147.88 C 137.59 147.03 136.91 146.35 136.06 146.35 C 135.22 146.34 134.53 147.03 134.53 147.88 Z M 134.53 148.83 L 134.53 149.84 C 134.52 150.68 135.20 151.37 136.04 151.38 C 136.89 151.38 137.58 150.70 137.58 149.86 L 137.59 148.85 C 137.59 148.01 136.91 147.32 136.07 147.32 C 135.23 147.31 134.54 147.99 134.53 148.83 Z M 134.53 149.82 L 134.51 150.85 C 134.50 151.69 135.17 152.39 136.01 152.40 C 136.85 152.41 137.55 151.74 137.56 150.90 L 137.58 149.87 C 137.59 149.03 136.92 148.34 136.08 148.33 C 135.24 148.31 134.55 148.98 134.53 149.82 Z M 134.52 150.83 L 134.49 151.86 C 134.46 152.70 135.12 153.40 135.96 153.42 C 136.80 153.45 137.49 152.79 137.52 151.96 L 137.55 150.93 C 137.58 150.09 136.92 149.39 136.08 149.36 C 135.25 149.34 134.55 149.99 134.52 150.83 Z M 134.50 151.82 L 134.44 152.80 C 134.40 153.63 135.03 154.34 135.86 154.39 C 136.70 154.44 137.41 153.80 137.46 152.97 L 137.51 151.99 C 137.56 151.16 136.92 150.45 136.09 150.40 C 135.26 150.35 134.55 150.99 134.50 151.82 Z M 134.46 152.73 L 134.35 153.78 C 134.27 154.60 134.86 155.34 135.68 155.42 C 136.50 155.51 137.24 154.92 137.33 154.09 L 137.44 153.04 C 137.52 152.22 136.93 151.49 136.11 151.40 C 135.29 151.31 134.55 151.91 134.46 152.73 Z M 134.38 153.72 L 134.26 154.51 C 134.15 155.32 134.70 156.07 135.51 156.19 C 136.32 156.30 137.06 155.75 137.18 154.94 L 137.30 154.15 C 137.42 153.35 136.86 152.60 136.05 152.48 C 135.25 152.36 134.50 152.92 134.38 153.72 Z"
      fill="black"
      fill-rule="nonzero" /><path d="M 138.82 145.39 L 139.20 144.47 C 139.51 143.70 139.14 142.83 138.38 142.52 C 137.62 142.21 136.74 142.57 136.43 143.34 L 136.06 144.26 C 135.74 145.02 136.11 145.89 136.87 146.21 C 137.64 146.52 138.51 146.15 138.82 145.39 Z M 138.78 145.11 L 139.46 144.57 C 140.12 144.04 140.23 143.06 139.70 142.40 C 139.17 141.73 138.20 141.62 137.53 142.15 L 136.85 142.69 C 136.18 143.23 136.07 144.20 136.61 144.87 C 137.14 145.53 138.11 145.64 138.78 145.11 Z M 138.85 144.88 L 139.77 144.67 C 140.61 144.47 141.13 143.62 140.93 142.78 C 140.73 141.94 139.89 141.42 139.05 141.62 L 138.13 141.84 C 137.29 142.04 136.77 142.88 136.97 143.72 C 137.17 144.56 138.01 145.08 138.85 144.88 Z M 139.58 144.70 L 140.72 144.58 C 141.58 144.49 142.21 143.72 142.11 142.86 C 142.02 141.99 141.25 141.37 140.39 141.46 L 139.24 141.58 C 138.38 141.68 137.76 142.45 137.85 143.31 C 137.94 144.17 138.71 144.79 139.58 144.70 Z M 140.68 144.59 L 141.70 144.50 C 142.57 144.43 143.21 143.67 143.14 142.81 C 143.07 141.94 142.31 141.30 141.44 141.37 L 140.43 141.46 C 139.56 141.53 138.92 142.29 138.99 143.15 C 139.06 144.02 139.82 144.66 140.68 144.59 Z M 141.69 144.51 L 142.72 144.43 C 143.59 144.37 144.24 143.61 144.18 142.75 C 144.11 141.88 143.36 141.23 142.49 141.29 L 141.46 141.37 C 140.59 141.43 139.94 142.18 140.00 143.05 C 140.07 143.92 140.82 144.57 141.69 144.51 Z M 142.71 144.43 L 143.69 144.37 C 144.56 144.32 145.22 143.57 145.16 142.70 C 145.11 141.83 144.36 141.17 143.49 141.22 L 142.51 141.29 C 141.64 141.34 140.98 142.09 141.03 142.96 C 141.09 143.83 141.84 144.49 142.71 144.43 Z M 143.67 144.37 L 144.74 144.32 C 145.61 144.28 146.29 143.54 146.24 142.67 C 146.20 141.80 145.46 141.13 144.59 141.17 L 143.51 141.22 C 142.64 141.27 141.97 142.01 142.01 142.88 C 142.06 143.75 142.80 144.42 143.67 144.37 Z M 144.72 144.32 L 145.61 144.29 C 146.48 144.26 147.16 143.53 147.13 142.65 C 147.10 141.78 146.36 141.10 145.49 141.14 L 144.61 141.17 C 143.74 141.20 143.06 141.93 143.09 142.80 C 143.12 143.67 143.85 144.35 144.72 144.32 Z M 145.61 144.29 L 146.58 144.25 C 147.45 144.22 148.13 143.49 148.10 142.62 C 148.07 141.75 147.34 141.07 146.47 141.10 L 145.49 141.14 C 144.62 141.17 143.94 141.90 143.97 142.77 C 144.01 143.64 144.74 144.32 145.61 144.29 Z M 146.58 144.25 L 147.60 144.22 C 148.47 144.18 149.15 143.45 149.12 142.58 C 149.09 141.71 148.36 141.03 147.49 141.06 L 146.47 141.10 C 145.60 141.13 144.92 141.86 144.95 142.73 C 144.98 143.60 145.71 144.28 146.58 144.25 Z M 147.60 144.21 L 148.59 144.18 C 149.46 144.15 150.14 143.42 150.11 142.56 C 150.08 141.69 149.36 141.01 148.49 141.03 L 147.50 141.07 C 146.63 141.10 145.95 141.82 145.97 142.69 C 146.00 143.56 146.73 144.24 147.60 144.21 Z M 148.58 144.17 L 149.59 144.15 C 150.45 144.13 151.14 143.41 151.12 142.55 C 151.10 141.68 150.38 141.00 149.52 141.02 L 148.50 141.04 C 147.64 141.06 146.96 141.78 146.98 142.64 C 146.99 143.51 147.71 144.19 148.58 144.17 Z M 149.57 144.14 L 150.57 144.13 C 151.43 144.13 152.12 143.42 152.11 142.56 C 152.11 141.70 151.40 141.01 150.54 141.02 L 149.54 141.03 C 148.68 141.03 147.99 141.74 147.99 142.60 C 148.00 143.46 148.71 144.15 149.57 144.14 Z M 150.56 144.13 L 151.55 144.12 C 152.41 144.12 153.10 143.43 153.10 142.57 C 153.10 141.71 152.41 141.02 151.55 141.02 L 150.55 141.02 C 149.70 141.02 149.00 141.72 149.00 142.58 C 149.00 143.43 149.70 144.13 150.56 144.13 Z M 151.55 144.12 L 152.55 144.12 C 153.40 144.12 154.10 143.43 154.10 142.57 C 154.10 141.72 153.40 141.02 152.55 141.02 L 151.55 141.02 C 150.69 141.02 150.00 141.72 150.00 142.57 C 150.00 143.43 150.69 144.12 151.55 144.12 Z M 152.55 144.13 L 153.55 144.13 C 154.41 144.13 155.11 143.43 155.11 142.57 C 155.11 141.71 154.41 141.01 153.55 141.01 L 152.55 141.01 C 151.69 141.01 150.99 141.71 150.99 142.57 C 150.99 143.43 151.69 144.13 152.55 144.13 Z M 153.55 144.14 L 154.55 144.14 C 155.42 144.14 156.12 143.44 156.12 142.57 C 156.12 141.71 155.42 141.01 154.55 141.01 L 153.55 141.01 C 152.69 141.01 151.99 141.71 151.99 142.57 C 151.99 143.44 152.69 144.14 153.55 144.14 Z M 154.55 144.15 L 155.55 144.15 C 156.42 144.15 157.12 143.44 157.12 142.57 C 157.12 141.71 156.42 141.00 155.55 141.00 L 154.55 141.00 C 153.68 141.00 152.98 141.71 152.98 142.57 C 152.98 143.44 153.68 144.15 154.55 144.15 Z M 155.55 144.15 L 156.55 144.15 C 157.42 144.15 158.13 143.44 158.13 142.57 C 158.13 141.70 157.42 141.00 156.55 141.00 L 155.55 141.00 C 154.68 141.00 153.98 141.70 153.98 142.57 C 153.98 143.44 154.68 144.15 155.55 144.15 Z M 156.55 144.15 L 157.55 144.15 C 158.42 144.15 159.13 143.44 159.13 142.57 C 159.13 141.70 158.42 141.00 157.55 141.00 L 156.55 141.00 C 155.68 141.00 154.98 141.70 154.98 142.57 C 154.98 143.44 155.68 144.15 156.55 144.15 Z M 157.55 144.15 L 158.54 144.15 C 159.41 144.15 160.12 143.44 160.12 142.58 C 160.12 141.71 159.41 141.00 158.55 141.00 L 157.55 141.00 C 156.68 141.00 155.98 141.70 155.98 142.57 C 155.98 143.44 156.68 144.15 157.55 144.15 Z M 158.53 144.15 L 159.53 144.16 C 160.40 144.17 161.11 143.47 161.12 142.60 C 161.13 141.73 160.43 141.02 159.56 141.01 L 158.56 141.00 C 157.69 140.99 156.98 141.69 156.97 142.56 C 156.96 143.42 157.66 144.14 158.53 144.15 Z M 159.49 144.15 L 160.46 144.19 C 161.32 144.21 162.05 143.54 162.08 142.67 C 162.11 141.81 161.43 141.08 160.57 141.05 L 159.60 141.02 C 158.73 140.99 158.01 141.67 157.98 142.53 C 157.95 143.40 158.63 144.12 159.49 144.15 Z M 160.40 144.18 L 161.37 144.25 C 162.23 144.31 162.98 143.66 163.04 142.80 C 163.11 141.94 162.46 141.19 161.60 141.13 L 160.62 141.06 C 159.76 141.00 159.02 141.65 158.95 142.51 C 158.89 143.37 159.54 144.11 160.40 144.18 Z M 161.30 144.23 L 162.34 144.36 C 163.20 144.46 163.97 143.86 164.07 143.00 C 164.18 142.15 163.57 141.38 162.72 141.27 L 161.67 141.15 C 160.82 141.04 160.05 141.65 159.94 142.50 C 159.84 143.35 160.45 144.13 161.30 144.23 Z M 162.28 144.34 L 163.26 144.51 C 164.10 144.65 164.90 144.07 165.04 143.23 C 165.18 142.39 164.61 141.59 163.77 141.45 L 162.78 141.29 C 161.94 141.15 161.14 141.72 161.00 142.56 C 160.86 143.41 161.43 144.20 162.28 144.34 Z M 163.21 144.49 L 164.21 144.69 C 165.05 144.86 165.86 144.32 166.03 143.48 C 166.20 142.65 165.65 141.83 164.82 141.67 L 163.82 141.46 C 162.98 141.30 162.17 141.84 162.00 142.67 C 161.83 143.51 162.37 144.32 163.21 144.49 Z M 164.16 144.68 L 165.16 144.92 C 165.99 145.12 166.82 144.61 167.02 143.78 C 167.22 142.95 166.71 142.12 165.88 141.92 L 164.87 141.68 C 164.05 141.48 163.21 141.99 163.02 142.82 C 162.82 143.65 163.33 144.48 164.16 144.68 Z M 165.10 144.90 L 166.11 145.19 C 166.92 145.43 167.78 144.96 168.01 144.14 C 168.25 143.32 167.78 142.47 166.96 142.23 L 165.95 141.94 C 165.13 141.71 164.28 142.18 164.04 142.99 C 163.81 143.81 164.28 144.66 165.10 144.90 Z M 166.03 145.17 L 166.89 145.47 C 167.70 145.74 168.58 145.32 168.85 144.51 C 169.13 143.70 168.70 142.83 167.90 142.55 L 167.03 142.25 C 166.23 141.98 165.35 142.41 165.07 143.21 C 164.80 144.02 165.23 144.89 166.03 145.17 Z M 166.71 145.41 L 167.64 145.86 C 168.41 146.24 169.34 145.92 169.72 145.15 C 170.10 144.38 169.78 143.44 169.01 143.06 L 168.08 142.61 C 167.31 142.23 166.37 142.55 166.00 143.32 C 165.62 144.10 165.94 145.03 166.71 145.41 Z M 166.97 145.30 L 167.44 146.05 C 167.90 146.79 168.88 147.02 169.62 146.56 C 170.37 146.10 170.60 145.13 170.14 144.38 L 169.67 143.63 C 169.21 142.88 168.23 142.65 167.49 143.11 C 166.74 143.58 166.51 144.55 166.97 145.30 Z M 167.19 145.29 L 167.23 146.27 C 167.28 147.15 168.03 147.84 168.91 147.79 C 169.79 147.75 170.47 147.00 170.43 146.12 L 170.38 145.14 C 170.34 144.26 169.59 143.58 168.71 143.62 C 167.83 143.66 167.15 144.41 167.19 145.29 Z M 167.24 146.07 L 167.15 147.10 C 167.08 147.98 167.74 148.76 168.62 148.83 C 169.50 148.90 170.27 148.24 170.35 147.36 L 170.43 146.33 C 170.50 145.44 169.85 144.67 168.96 144.60 C 168.08 144.53 167.31 145.18 167.24 146.07 Z M 167.15 147.10 L 167.07 148.02 C 167.00 148.90 167.65 149.67 168.54 149.75 C 169.42 149.82 170.19 149.17 170.27 148.29 L 170.35 147.37 C 170.42 146.48 169.77 145.71 168.88 145.63 C 168.00 145.56 167.23 146.21 167.15 147.10 Z M 167.07 148.00 L 166.97 149.07 C 166.89 149.95 167.54 150.73 168.42 150.82 C 169.30 150.90 170.09 150.25 170.17 149.37 L 170.27 148.30 C 170.35 147.42 169.70 146.64 168.82 146.55 C 167.94 146.47 167.16 147.12 167.07 148.00 Z M 166.98 149.05 L 166.88 149.98 C 166.78 150.86 167.42 151.65 168.30 151.74 C 169.18 151.84 169.97 151.21 170.06 150.32 L 170.17 149.39 C 170.26 148.51 169.63 147.72 168.75 147.63 C 167.86 147.53 167.07 148.17 166.98 149.05 Z M 166.88 149.95 L 166.75 150.96 C 166.65 151.84 167.27 152.64 168.15 152.75 C 169.03 152.86 169.83 152.23 169.94 151.35 L 170.06 150.35 C 170.17 149.47 169.55 148.67 168.67 148.56 C 167.79 148.45 166.99 149.08 166.88 149.95 Z M 166.76 150.93 L 166.61 151.97 C 166.49 152.85 167.10 153.66 167.97 153.79 C 168.85 153.91 169.66 153.30 169.79 152.42 L 169.93 151.38 C 170.06 150.50 169.45 149.69 168.57 149.57 C 167.69 149.45 166.88 150.06 166.76 150.93 Z M 166.62 151.94 L 166.44 153.01 C 166.29 153.88 166.88 154.71 167.76 154.85 C 168.63 155.00 169.46 154.41 169.60 153.53 L 169.78 152.46 C 169.93 151.59 169.33 150.76 168.46 150.62 C 167.59 150.47 166.76 151.06 166.62 151.94 Z M 166.45 152.96 L 166.24 154.00 C 166.07 154.87 166.64 155.71 167.51 155.88 C 168.38 156.05 169.22 155.49 169.39 154.62 L 169.59 153.58 C 169.76 152.71 169.20 151.87 168.33 151.70 C 167.46 151.53 166.62 152.09 166.45 152.96 Z M 166.25 153.96 L 166.05 154.88 C 165.85 155.74 166.40 156.60 167.26 156.80 C 168.13 156.99 168.98 156.44 169.18 155.58 L 169.38 154.66 C 169.58 153.79 169.03 152.94 168.17 152.74 C 167.30 152.55 166.45 153.09 166.25 153.96 Z M 166.06 154.84 L 165.81 155.81 C 165.60 156.67 166.11 157.54 166.97 157.76 C 167.83 157.97 168.70 157.45 168.92 156.60 L 169.16 155.62 C 169.38 154.77 168.86 153.90 168.01 153.68 C 167.15 153.46 166.28 153.98 166.06 154.84 Z M 165.83 155.76 L 165.56 156.70 C 165.31 157.55 165.80 158.43 166.65 158.68 C 167.50 158.92 168.38 158.43 168.63 157.59 L 168.90 156.65 C 169.14 155.80 168.66 154.92 167.81 154.67 C 166.96 154.43 166.08 154.91 165.83 155.76 Z M 165.58 156.66 L 165.29 157.57 C 165.02 158.41 165.48 159.30 166.32 159.57 C 167.16 159.83 168.05 159.37 168.32 158.53 L 168.61 157.63 C 168.87 156.79 168.41 155.89 167.58 155.63 C 166.74 155.36 165.84 155.82 165.58 156.66 Z M 165.31 157.53 L 164.98 158.47 C 164.69 159.29 165.13 160.20 165.95 160.49 C 166.78 160.78 167.69 160.34 167.97 159.51 L 168.30 158.58 C 168.59 157.75 168.15 156.84 167.33 156.55 C 166.50 156.27 165.59 156.70 165.31 157.53 Z M 165.01 158.40 L 164.63 159.32 C 164.31 160.13 164.70 161.06 165.51 161.39 C 166.32 161.71 167.25 161.32 167.57 160.51 L 167.95 159.58 C 168.27 158.77 167.88 157.85 167.07 157.52 C 166.26 157.19 165.33 157.58 165.01 158.40 Z M 164.66 159.26 L 164.25 160.18 C 163.89 160.98 164.24 161.92 165.04 162.28 C 165.84 162.63 166.78 162.28 167.14 161.48 L 167.55 160.56 C 167.91 159.76 167.55 158.83 166.75 158.47 C 165.95 158.11 165.01 158.47 164.66 159.26 Z M 164.26 160.14 L 163.83 161.05 C 163.45 161.84 163.78 162.78 164.57 163.16 C 165.36 163.54 166.31 163.21 166.69 162.42 L 167.12 161.51 C 167.50 160.72 167.17 159.78 166.38 159.40 C 165.59 159.02 164.64 159.35 164.26 160.14 Z M 163.86 161.00 L 163.39 161.88 C 162.99 162.66 163.28 163.62 164.06 164.02 C 164.84 164.43 165.79 164.13 166.20 163.35 L 166.66 162.47 C 167.07 161.69 166.77 160.73 166.00 160.33 C 165.22 159.92 164.26 160.22 163.86 161.00 Z M 163.43 161.82 L 162.93 162.68 C 162.48 163.43 162.74 164.40 163.49 164.84 C 164.25 165.29 165.22 165.03 165.66 164.28 L 166.16 163.42 C 166.60 162.66 166.35 161.69 165.60 161.25 C 164.84 160.81 163.87 161.06 163.43 161.82 Z M 162.97 162.61 L 162.43 163.43 C 161.95 164.16 162.15 165.14 162.88 165.62 C 163.60 166.10 164.58 165.90 165.07 165.17 L 165.61 164.35 C 166.09 163.62 165.89 162.64 165.16 162.16 C 164.44 161.68 163.45 161.88 162.97 162.61 Z M 162.47 163.37 L 161.89 164.16 C 161.38 164.87 161.53 165.85 162.23 166.37 C 162.94 166.88 163.92 166.73 164.44 166.03 L 165.02 165.23 C 165.53 164.53 165.38 163.54 164.68 163.03 C 163.98 162.51 162.99 162.67 162.47 163.37 Z M 161.96 164.09 L 161.34 164.82 C 160.78 165.49 160.87 166.48 161.54 167.04 C 162.21 167.60 163.20 167.51 163.76 166.84 L 164.37 166.11 C 164.93 165.44 164.84 164.45 164.17 163.89 C 163.51 163.33 162.51 163.42 161.96 164.09 Z M 161.45 164.71 L 160.71 165.43 C 160.10 166.04 160.09 167.03 160.69 167.65 C 161.30 168.27 162.29 168.28 162.91 167.67 L 163.65 166.95 C 164.27 166.35 164.28 165.35 163.67 164.73 C 163.06 164.11 162.07 164.10 161.45 164.71 Z M 160.82 165.35 L 160.07 165.97 C 159.40 166.51 159.30 167.50 159.85 168.17 C 160.40 168.83 161.39 168.93 162.05 168.38 L 162.81 167.76 C 163.47 167.21 163.57 166.23 163.02 165.56 C 162.47 164.89 161.49 164.80 160.82 165.35 Z M 160.16 165.90 L 159.31 166.50 C 158.61 167.00 158.44 167.97 158.93 168.67 C 159.43 169.37 160.40 169.54 161.10 169.05 L 161.96 168.45 C 162.66 167.95 162.83 166.98 162.33 166.28 C 161.84 165.57 160.87 165.41 160.16 165.90 Z M 159.42 166.45 L 158.57 166.95 C 157.84 167.38 157.59 168.33 158.03 169.06 C 158.46 169.80 159.41 170.04 160.14 169.61 L 160.99 169.10 C 161.73 168.67 161.97 167.72 161.54 166.99 C 161.10 166.25 160.15 166.01 159.42 166.45 Z M 158.70 166.90 L 157.81 167.32 C 157.05 167.68 156.72 168.59 157.08 169.35 C 157.45 170.11 158.36 170.44 159.12 170.08 L 160.01 169.66 C 160.77 169.30 161.10 168.39 160.74 167.62 C 160.38 166.86 159.47 166.53 158.70 166.90 Z M 157.96 167.27 L 156.99 167.62 C 156.20 167.90 155.79 168.76 156.07 169.55 C 156.35 170.34 157.21 170.75 158.00 170.47 L 158.97 170.12 C 159.76 169.84 160.17 168.98 159.89 168.19 C 159.61 167.41 158.75 167.00 157.96 167.27 Z M 157.13 167.59 L 156.13 167.84 C 155.33 168.04 154.84 168.85 155.04 169.66 C 155.25 170.46 156.06 170.95 156.86 170.75 L 157.85 170.50 C 158.66 170.30 159.14 169.48 158.94 168.68 C 158.74 167.88 157.93 167.39 157.13 167.59 Z M 156.26 167.82 L 155.24 167.99 C 154.43 168.12 153.88 168.89 154.01 169.70 C 154.15 170.51 154.91 171.06 155.72 170.93 L 156.74 170.76 C 157.55 170.63 158.10 169.86 157.97 169.05 C 157.83 168.24 157.07 167.69 156.26 167.82 Z M 155.37 167.98 L 154.40 168.06 C 153.59 168.12 152.98 168.83 153.04 169.64 C 153.10 170.46 153.81 171.07 154.62 171.01 L 155.59 170.93 C 156.41 170.87 157.02 170.16 156.96 169.35 C 156.90 168.53 156.19 167.92 155.37 167.98 Z M 154.59 168.07 L 153.53 168.02 C 152.72 167.98 152.04 168.60 152.00 169.41 C 151.96 170.22 152.58 170.90 153.39 170.94 L 154.44 171.00 C 155.25 171.03 155.94 170.41 155.98 169.60 C 156.02 168.79 155.39 168.11 154.59 168.07 Z M 153.72 168.06 L 152.77 167.88 C 151.98 167.74 151.23 168.26 151.08 169.05 C 150.94 169.84 151.46 170.59 152.25 170.73 L 153.20 170.90 C 153.99 171.05 154.74 170.52 154.89 169.74 C 155.03 168.95 154.51 168.20 153.72 168.06 Z M 152.84 167.92 L 152.34 167.79 C 151.57 167.61 150.80 168.08 150.61 168.85 C 150.42 169.62 150.90 170.39 151.67 170.58 L 152.17 170.70 C 152.94 170.88 153.72 170.41 153.90 169.64 C 154.09 168.87 153.61 168.10 152.84 167.92 Z"
      fill="black"
      fill-rule="nonzero" /><path d="M 165.13 124.40 L 165.24 125.38 C 165.34 126.22 166.09 126.82 166.93 126.72 C 167.76 126.63 168.36 125.87 168.27 125.04 L 168.15 124.05 C 168.06 123.22 167.30 122.62 166.47 122.71 C 165.63 122.81 165.03 123.56 165.13 124.40 Z M 165.27 125.64 L 165.54 126.59 C 165.78 127.41 166.64 127.88 167.46 127.64 C 168.28 127.40 168.75 126.55 168.51 125.72 L 168.24 124.78 C 168.00 123.96 167.14 123.49 166.32 123.72 C 165.50 123.96 165.03 124.82 165.27 125.64 Z M 165.63 126.80 L 166.06 127.72 C 166.42 128.49 167.33 128.82 168.10 128.46 C 168.87 128.11 169.20 127.19 168.85 126.42 L 168.42 125.51 C 168.06 124.74 167.15 124.40 166.38 124.76 C 165.61 125.12 165.28 126.03 165.63 126.80 Z M 166.09 127.72 L 166.52 128.62 C 166.89 129.37 167.79 129.69 168.54 129.33 C 169.29 128.97 169.60 128.07 169.24 127.32 L 168.81 126.42 C 168.45 125.67 167.55 125.35 166.80 125.71 C 166.05 126.07 165.73 126.97 166.09 127.72 Z M 166.52 128.56 L 166.93 129.49 C 167.25 130.24 168.13 130.59 168.88 130.26 C 169.64 129.93 169.98 129.05 169.65 128.30 L 169.25 127.37 C 168.92 126.62 168.04 126.28 167.29 126.61 C 166.54 126.94 166.19 127.81 166.52 128.56 Z M 166.92 129.43 L 167.28 130.36 C 167.57 131.12 168.42 131.49 169.18 131.20 C 169.94 130.91 170.31 130.06 170.02 129.31 L 169.66 128.37 C 169.37 127.61 168.52 127.24 167.76 127.53 C 167.00 127.82 166.63 128.67 166.92 129.43 Z M 167.29 130.33 L 167.63 131.27 C 167.91 132.02 168.74 132.41 169.49 132.13 C 170.24 131.86 170.63 131.03 170.36 130.27 L 170.01 129.34 C 169.74 128.58 168.91 128.20 168.15 128.47 C 167.40 128.75 167.02 129.58 167.29 130.33 Z M 167.65 131.28 L 168.00 132.22 C 168.28 132.96 169.11 133.34 169.85 133.06 C 170.60 132.78 170.97 131.95 170.69 131.21 L 170.34 130.27 C 170.06 129.52 169.23 129.15 168.49 129.43 C 167.75 129.71 167.37 130.53 167.65 131.28 Z M 168.02 132.23 L 168.34 133.06 C 168.62 133.80 169.45 134.16 170.18 133.88 C 170.92 133.59 171.29 132.77 171.00 132.03 L 170.68 131.20 C 170.40 130.46 169.57 130.10 168.83 130.38 C 168.10 130.67 167.73 131.49 168.02 132.23 Z"
      fill="black"
      fill-rule="nonzero" /><path d="M 172.18 124.62 L 172.59 125.47 C 172.96 126.24 173.88 126.56 174.64 126.19 C 175.40 125.82 175.72 124.90 175.35 124.14 L 174.94 123.29 C 174.57 122.53 173.66 122.21 172.89 122.58 C 172.13 122.94 171.81 123.86 172.18 124.62 Z M 172.48 125.31 L 172.82 126.30 C 173.09 127.12 173.98 127.56 174.80 127.29 C 175.63 127.01 176.07 126.12 175.79 125.30 L 175.46 124.31 C 175.19 123.49 174.30 123.04 173.47 123.32 C 172.65 123.59 172.21 124.48 172.48 125.31 Z M 172.78 126.09 L 172.97 127.09 C 173.13 127.93 173.95 128.48 174.79 128.32 C 175.64 128.16 176.19 127.34 176.03 126.49 L 175.83 125.50 C 175.67 124.66 174.85 124.11 174.01 124.27 C 173.16 124.43 172.61 125.25 172.78 126.09 Z M 173.01 127.00 L 173.15 127.99 C 173.26 128.81 174.02 129.38 174.84 129.27 C 175.66 129.16 176.23 128.40 176.12 127.58 L 175.98 126.59 C 175.87 125.77 175.11 125.19 174.29 125.31 C 173.47 125.42 172.90 126.18 173.01 127.00 Z M 173.19 127.97 L 173.32 129.02 C 173.43 129.82 174.16 130.38 174.96 130.28 C 175.75 130.18 176.32 129.45 176.21 128.65 L 176.08 127.60 C 175.98 126.80 175.25 126.24 174.45 126.34 C 173.65 126.44 173.09 127.18 173.19 127.97 Z M 173.35 129.03 L 173.48 129.96 C 173.59 130.74 174.32 131.29 175.10 131.18 C 175.89 131.07 176.43 130.34 176.32 129.56 L 176.19 128.63 C 176.08 127.85 175.35 127.30 174.57 127.41 C 173.78 127.52 173.24 128.25 173.35 129.03 Z M 173.49 129.98 L 173.65 130.97 C 173.77 131.74 174.50 132.28 175.28 132.15 C 176.06 132.03 176.59 131.30 176.47 130.52 L 176.31 129.53 C 176.19 128.76 175.45 128.22 174.68 128.35 C 173.90 128.47 173.37 129.20 173.49 129.98 Z M 173.65 130.98 L 173.73 131.46 C 173.86 132.24 174.59 132.76 175.37 132.64 C 176.15 132.51 176.67 131.77 176.54 131.00 L 176.46 130.51 C 176.33 129.73 175.60 129.21 174.82 129.34 C 174.05 129.46 173.52 130.20 173.65 130.98 Z"
      fill="black"
      fill-rule="nonzero" /></svg>