<svg xmlns="http://www.w3.org/2000/svg" width="300" height="300" viewBox="0 0 300 300">
<path d="M 144.18 128.52 L 143.68 127.50 C 143.32 126.76 142.43 126.45 141.69 126.82 C 140.95 127.18 140.64 128.07 141.00 128.81 L 141.50 129.83 C 141.86 130.57 142.76 130.88 143.50 130.52 C 144.24 130.16 144.54 129.26 144.18 128.52 Z M 140.92 127.55 L 140.74 127.96 C 140.41 128.75 140.78 129.65 141.56 129.99 C 142.35 130.32 143.26 129.96 143.59 129.17 L 143.77 128.76 C 144.10 127.98 143.74 127.07 142.95 126.73 C 142.16 126.40 141.25 126.76 140.92 127.55 Z M 140.59 128.61 L 140.62 129.82 C 140.65 130.69 141.37 131.38 142.24 131.36 C 143.11 131.33 143.80 130.61 143.78 129.74 L 143.74 128.52 C 143.72 127.65 143.00 126.97 142.13 126.99 C 141.26 127.01 140.57 127.74 140.59 128.61 Z M 140.61 129.87 L 140.67 130.83 C 140.72 131.70 141.47 132.37 142.34 132.33 C 143.22 132.28 143.89 131.53 143.84 130.65 L 143.79 129.69 C 143.74 128.82 142.99 128.15 142.11 128.20 C 141.24 128.25 140.57 128.99 140.61 129.87 Z M 140.66 130.83 L 140.72 131.87 C 140.77 132.75 141.53 133.42 142.40 133.37 C 143.28 133.32 143.95 132.57 143.90 131.69 L 143.84 130.65 C 143.79 129.77 143.04 129.10 142.16 129.15 C 141.29 129.20 140.61 129.95 140.66 130.83 Z M 140.72 131.86 L 140.77 132.87 C 140.81 133.75 141.56 134.43 142.44 134.38 C 143.32 134.34 144.00 133.59 143.96 132.71 L 143.91 131.70 C 143.86 130.82 143.11 130.14 142.23 130.19 C 141.35 130.23 140.67 130.98 140.72 131.86 Z M 140.76 132.86 L 140.81 133.88 C 140.85 134.77 141.60 135.45 142.48 135.41 C 143.36 135.37 144.05 134.62 144.01 133.74 L 143.96 132.72 C 143.92 131.84 143.17 131.15 142.29 131.19 C 141.41 131.23 140.72 131.98 140.76 132.86 Z M 140.81 133.88 L 140.85 134.90 C 140.89 135.78 141.64 136.47 142.52 136.43 C 143.41 136.39 144.09 135.65 144.05 134.76 L 144.01 133.74 C 143.97 132.86 143.23 132.17 142.34 132.21 C 141.46 132.25 140.77 133.00 140.81 133.88 Z M 140.85 134.89 L 140.88 135.88 C 140.92 136.77 141.66 137.46 142.55 137.43 C 143.44 137.40 144.13 136.65 144.10 135.76 L 144.06 134.77 C 144.02 133.88 143.28 133.19 142.39 133.22 C 141.50 133.26 140.81 134.00 140.85 134.89 Z M 140.88 135.86 L 140.90 136.80 C 140.92 137.69 141.66 138.39 142.55 138.37 C 143.44 138.35 144.14 137.61 144.12 136.73 L 144.10 135.79 C 144.08 134.90 143.34 134.20 142.45 134.22 C 141.57 134.24 140.86 134.97 140.88 135.86 Z M 140.90 136.77 L 140.91 137.76 C 140.91 138.65 141.64 139.36 142.53 139.36 C 143.42 139.35 144.13 138.63 144.13 137.74 L 144.12 136.75 C 144.11 135.86 143.39 135.15 142.50 135.15 C 141.61 135.16 140.90 135.88 140.90 136.77 Z M 140.91 137.75 L 140.91 138.77 C 140.91 139.65 141.63 140.37 142.52 140.37 C 143.41 140.37 144.13 139.65 144.13 138.76 L 144.13 137.75 C 144.13 136.86 143.41 136.14 142.52 136.14 C 141.63 136.14 140.91 136.86 140.91 137.75 Z M 140.91 138.76 L 140.91 139.76 C 140.91 140.64 141.63 141.37 142.52 141.37 C 143.41 141.37 144.13 140.64 144.13 139.76 L 144.13 138.76 C 144.13 137.88 143.41 137.16 142.52 137.16 C 141.63 137.16 140.91 137.88 140.91 138.76 Z M 140.91 139.76 L 140.91 140.78 C 140.91 141.67 141.63 142.39 142.52 142.39 C 143.41 142.39 144.13 141.67 144.13 140.78 L 144.13 139.76 C 144.13 138.87 143.41 138.15 142.52 138.15 C 141.63 138.15 140.91 138.87 140.91 139.76 Z M 140.91 140.78 L 140.91 141.76 C 140.91 142.65 141.63 143.37 142.52 143.37 C 143.41 143.37 144.13 142.65 144.13 141.76 L 144.13 140.78 C 144.13 139.89 143.41 139.17 142.52 139.17 C 141.63 139.17 140.91 139.89 140.91 140.78 Z M 140.91 141.76 L 140.91 142.77 C 140.91 143.66 141.63 144.38 142.52 144.38 C 143.41 144.38 144.13 143.66 144.13 142.77 L 144.13 141.76 C 144.13 140.87 143.41 140.15 142.52 140.15 C 141.63 140.15 140.91 140.87 140.91 141.76 Z M 140.91 142.77 L 140.91 143.76 C 140.91 144.65 141.63 145.37 142.52 145.37 C 143.41 145.37 144.13 144.65 144.13 143.76 L 144.13 142.77 C 144.13 141.88 143.41 141.16 142.52 141.16 C 141.63 141.16 140.91 141.88 140.91 142.77 Z M 140.91 143.76 L 140.91 144.75 C 140.91 145.63 141.63 146.35 142.52 146.35 C 143.41 146.35 144.13 145.63 144.13 144.75 L 144.13 143.76 C 144.13 142.87 143.41 142.15 142.52 142.15 C 141.63 142.15 140.91 142.87 140.91 143.76 Z M 140.91 144.75 L 140.91 145.77 C 140.91 146.66 141.63 147.38 142.52 147.38 C 143.41 147.38 144.12 146.66 144.12 145.77 L 144.12 144.75 C 144.12 143.86 143.41 143.14 142.52 143.14 C 141.63 143.14 140.91 143.86 140.91 144.75 Z M 140.91 145.77 L 140.91 146.75 C 140.91 147.64 141.63 148.36 142.52 148.36 C 143.40 148.36 144.12 147.64 144.12 146.75 L 144.12 145.77 C 144.12 144.89 143.40 144.17 142.52 144.17 C 141.63 144.17 140.91 144.89 140.91 145.77 Z M 140.91 146.75 L 140.91 147.75 C 140.91 148.63 141.63 149.35 142.52 149.35 C 143.40 149.35 144.12 148.63 144.12 147.75 L 144.12 146.75 C 144.12 145.87 143.40 145.15 142.52 145.15 C 141.63 145.15 140.91 145.87 140.91 146.75 Z M 140.91 147.75 L 140.91 148.77 C 140.91 149.66 141.63 150.38 142.52 150.38 C 143.40 150.38 144.12 149.66 144.12 148.77 L 144.12 147.75 C 144.12 146.86 143.40 146.14 142.52 146.14 C 141.63 146.14 140.91 146.86 140.91 147.75 Z M 140.92 148.77 L 140.92 149.77 C 140.92 150.65 141.63 151.37 142.52 151.37 C 143.40 151.37 144.12 150.65 144.12 149.77 L 144.12 148.77 C 144.12 147.89 143.40 147.17 142.52 147.17 C 141.63 147.17 140.92 147.89 140.92 148.77 Z M 140.92 149.77 L 140.92 150.77 C 140.92 151.65 141.63 152.37 142.52 152.37 C 143.40 152.37 144.12 151.65 144.12 150.77 L 144.12 149.77 C 144.12 148.88 143.40 148.17 142.52 148.17 C 141.63 148.17 140.92 148.88 140.92 149.77 Z M 140.92 150.77 L 140.92 151.78 C 140.92 152.66 141.64 153.37 142.52 153.37 C 143.40 153.37 144.12 152.66 144.12 151.78 L 144.12 150.77 C 144.12 149.88 143.40 149.17 142.52 149.17 C 141.64 149.17 140.92 149.88 140.92 150.77 Z M 140.92 151.78 L 140.92 152.77 C 140.92 153.65 141.64 154.37 142.52 154.37 C 143.40 154.37 144.11 153.65 144.11 152.77 L 144.11 151.78 C 144.11 150.90 143.40 150.18 142.52 150.18 C 141.64 150.18 140.92 150.90 140.92 151.78 Z M 140.93 152.77 L 140.93 153.76 C 140.93 154.64 141.64 155.35 142.52 155.35 C 143.40 155.35 144.11 154.64 144.11 153.76 L 144.11 152.77 C 144.11 151.89 143.40 151.18 142.52 151.18 C 141.64 151.18 140.93 151.89 140.93 152.77 Z M 140.93 153.76 L 140.93 154.76 C 140.93 155.64 141.64 156.35 142.52 156.35 C 143.40 156.35 144.11 155.64 144.11 154.76 L 144.11 153.76 C 144.11 152.88 143.40 152.17 142.52 152.17 C 141.64 152.17 140.93 152.88 140.93 153.76 Z M 140.93 154.76 L 140.93 155.78 C 140.93 156.66 141.64 157.37 142.52 157.37 C 143.39 157.37 144.10 156.66 144.10 155.78 L 144.10 154.76 C 144.10 153.89 143.39 153.18 142.52 153.18 C 141.64 153.18 140.93 153.89 140.93 154.76 Z M 140.94 155.78 L 140.94 156.79 C 140.94 157.67 141.64 158.37 142.52 158.38 C 143.39 158.38 144.10 157.67 144.10 156.79 L 144.10 155.78 C 144.10 154.91 143.39 154.20 142.52 154.20 C 141.64 154.20 140.94 154.91 140.94 155.78 Z M 140.94 156.79 L 140.94 157.80 C 140.94 158.67 141.64 159.38 142.51 159.38 C 143.38 159.39 144.09 158.68 144.09 157.81 L 144.09 156.80 C 144.10 155.93 143.39 155.22 142.52 155.22 C 141.65 155.21 140.94 155.92 140.94 156.79 Z M 140.94 157.80 L 140.94 158.78 C 140.93 159.65 141.63 160.36 142.50 160.37 C 143.37 160.37 144.07 159.67 144.08 158.80 L 144.09 157.82 C 144.09 156.95 143.39 156.24 142.52 156.24 C 141.66 156.23 140.95 156.93 140.94 157.80 Z M 140.94 158.77 L 140.93 159.80 C 140.92 160.67 141.61 161.38 142.48 161.39 C 143.34 161.40 144.05 160.71 144.06 159.84 L 144.07 158.81 C 144.08 157.95 143.39 157.24 142.53 157.23 C 141.66 157.22 140.95 157.91 140.94 158.77 Z M 140.94 159.80 L 140.92 160.81 C 140.90 161.67 141.59 162.38 142.45 162.39 C 143.31 162.41 144.02 161.72 144.04 160.86 L 144.05 159.85 C 144.07 158.99 143.38 158.28 142.52 158.27 C 141.66 158.25 140.95 158.94 140.94 159.80 Z M 140.93 160.81 L 140.91 161.77 C 140.89 162.63 141.58 163.34 142.43 163.35 C 143.29 163.37 144.00 162.68 144.01 161.83 L 144.03 160.86 C 144.04 160.00 143.36 159.30 142.50 159.28 C 141.65 159.27 140.94 159.95 140.93 160.81 Z M 140.92 161.78 L 140.90 162.78 C 140.89 163.64 141.58 164.34 142.43 164.35 C 143.28 164.36 143.98 163.67 143.99 162.82 L 144.00 161.82 C 144.01 160.97 143.33 160.27 142.48 160.26 C 141.63 160.25 140.93 160.93 140.92 161.78 Z M 140.91 162.79 L 140.91 163.81 C 140.90 164.66 141.59 165.35 142.44 165.35 C 143.29 165.36 143.98 164.67 143.98 163.82 L 143.99 162.81 C 143.99 161.96 143.31 161.27 142.46 161.26 C 141.61 161.26 140.92 161.95 140.91 162.79 Z M 140.91 163.81 L 140.91 164.79 C 140.91 165.63 141.60 166.32 142.44 166.32 C 143.29 166.32 143.97 165.64 143.97 164.79 L 143.97 163.82 C 143.97 162.97 143.29 162.28 142.45 162.28 C 141.60 162.28 140.91 162.97 140.91 163.81 Z M 140.92 164.79 L 140.92 165.83 C 140.92 166.67 141.60 167.36 142.44 167.36 C 143.28 167.36 143.97 166.67 143.97 165.83 L 143.97 164.79 C 143.97 163.95 143.28 163.27 142.44 163.27 C 141.60 163.27 140.92 163.95 140.92 164.79 Z M 140.92 165.83 L 140.92 166.83 C 140.92 167.67 141.60 168.35 142.44 168.35 C 143.28 168.35 143.96 167.67 143.96 166.83 L 143.96 165.83 C 143.96 164.99 143.28 164.31 142.44 164.31 C 141.60 164.31 140.92 164.99 140.92 165.83 Z M 140.93 166.83 L 140.93 167.82 C 140.93 168.66 141.61 169.33 142.45 169.33 C 143.28 169.33 143.96 168.65 143.96 167.82 L 143.96 166.82 C 143.96 165.99 143.28 165.31 142.44 165.31 C 141.60 165.31 140.93 165.99 140.93 166.83 Z M 140.94 167.88 L 140.98 168.88 C 141.01 169.72 141.71 170.36 142.54 170.33 C 143.38 170.30 144.02 169.59 143.99 168.76 L 143.95 167.76 C 143.92 166.93 143.22 166.28 142.38 166.31 C 141.55 166.35 140.90 167.05 140.94 167.88 Z M 141.01 169.11 L 141.19 170.05 C 141.35 170.87 142.14 171.40 142.95 171.24 C 143.76 171.09 144.30 170.30 144.14 169.49 L 143.96 168.54 C 143.80 167.73 143.01 167.19 142.20 167.35 C 141.39 167.51 140.85 168.29 141.01 169.11 Z M 141.27 170.30 L 141.63 171.23 C 141.92 172.00 142.78 172.38 143.55 172.09 C 144.32 171.80 144.70 170.94 144.41 170.17 L 144.06 169.24 C 143.77 168.47 142.90 168.09 142.14 168.38 C 141.37 168.67 140.98 169.53 141.27 170.30 Z M 141.66 171.29 L 141.75 171.49 C 142.08 172.24 142.95 172.58 143.70 172.25 C 144.45 171.93 144.79 171.05 144.46 170.30 L 144.38 170.10 C 144.05 169.35 143.18 169.01 142.43 169.34 C 141.68 169.67 141.33 170.54 141.66 171.29 Z"
      fill="black"
      fill-rule="nonzero" /><path d="M 147.15 147.74 L 146.38 146.90 C 145.81 146.27 144.83 146.23 144.20 146.80 C 143.57 147.38 143.53 148.36 144.10 148.99 L 144.87 149.83 C 145.44 150.46 146.42 150.50 147.05 149.93 C 147.68 149.35 147.72 148.37 147.15 147.74 Z M 146.24 149.18 L 146.60 148.89 C 147.28 148.34 147.38 147.34 146.83 146.66 C 146.27 145.97 145.27 145.87 144.59 146.42 L 144.24 146.71 C 143.56 147.26 143.45 148.27 144.01 148.95 C 144.56 149.63 145.56 149.73 146.24 149.18 Z M 145.45 149.26 L 146.61 149.37 C 147.49 149.45 148.28 148.79 148.36 147.91 C 148.44 147.02 147.78 146.24 146.89 146.16 L 145.74 146.05 C 144.85 145.97 144.07 146.63 143.99 147.52 C 143.91 148.40 144.56 149.18 145.45 149.26 Z M 146.55 149.37 L 147.56 149.49 C 148.44 149.61 149.25 148.98 149.37 148.09 C 149.48 147.21 148.85 146.40 147.96 146.29 L 146.95 146.16 C 146.07 146.05 145.26 146.67 145.15 147.56 C 145.04 148.45 145.66 149.25 146.55 149.37 Z M 147.56 149.49 L 148.56 149.61 C 149.44 149.72 150.25 149.10 150.36 148.21 C 150.47 147.33 149.84 146.52 148.95 146.41 L 147.96 146.29 C 147.08 146.18 146.27 146.81 146.16 147.69 C 146.05 148.58 146.68 149.38 147.56 149.49 Z M 148.55 149.61 L 149.58 149.74 C 150.46 149.86 151.27 149.23 151.38 148.35 C 151.50 147.47 150.87 146.66 149.99 146.55 L 148.96 146.42 C 148.08 146.30 147.27 146.93 147.16 147.81 C 147.04 148.69 147.67 149.50 148.55 149.61 Z M 149.58 149.73 L 150.61 149.87 C 151.48 149.99 152.29 149.37 152.40 148.49 C 152.52 147.62 151.91 146.81 151.03 146.70 L 150.00 146.56 C 149.12 146.44 148.32 147.06 148.20 147.94 C 148.08 148.81 148.70 149.62 149.58 149.73 Z M 150.62 149.86 L 151.57 149.98 C 152.44 150.09 153.23 149.48 153.34 148.61 C 153.46 147.74 152.84 146.94 151.97 146.83 L 151.02 146.71 C 150.15 146.60 149.35 147.21 149.24 148.08 C 149.13 148.95 149.75 149.75 150.62 149.86 Z M 151.60 149.97 L 152.66 150.08 C 153.52 150.18 154.30 149.55 154.39 148.69 C 154.48 147.83 153.86 147.05 153.00 146.96 L 151.94 146.84 C 151.07 146.75 150.30 147.37 150.20 148.24 C 150.11 149.10 150.74 149.88 151.60 149.97 Z M 152.69 150.07 L 153.61 150.15 C 154.47 150.22 155.22 149.59 155.30 148.73 C 155.37 147.87 154.73 147.12 153.88 147.05 L 152.96 146.97 C 152.10 146.90 151.35 147.53 151.27 148.39 C 151.20 149.25 151.84 150.00 152.69 150.07 Z M 153.62 150.13 L 154.62 150.21 C 155.46 150.28 156.21 149.65 156.28 148.81 C 156.35 147.96 155.72 147.22 154.87 147.15 L 153.87 147.06 C 153.03 146.99 152.28 147.62 152.21 148.47 C 152.14 149.32 152.77 150.06 153.62 150.13 Z M 154.59 150.19 L 155.59 150.29 C 156.42 150.38 157.17 149.77 157.26 148.94 C 157.34 148.11 156.74 147.36 155.90 147.27 L 154.90 147.17 C 154.07 147.08 153.32 147.69 153.23 148.52 C 153.15 149.36 153.75 150.10 154.59 150.19 Z M 155.56 150.27 L 156.54 150.40 C 157.37 150.50 158.12 149.92 158.22 149.10 C 158.32 148.27 157.74 147.52 156.92 147.42 L 155.93 147.29 C 155.11 147.19 154.36 147.77 154.26 148.60 C 154.15 149.42 154.73 150.17 155.56 150.27 Z M 156.53 150.38 L 157.52 150.51 C 158.33 150.62 159.08 150.05 159.19 149.24 C 159.30 148.42 158.72 147.68 157.91 147.57 L 156.93 147.44 C 156.11 147.33 155.37 147.90 155.26 148.71 C 155.15 149.52 155.72 150.27 156.53 150.38 Z M 157.50 150.49 L 158.49 150.64 C 159.29 150.76 160.04 150.21 160.16 149.40 C 160.28 148.60 159.73 147.86 158.93 147.74 L 157.93 147.59 C 157.13 147.47 156.39 148.02 156.27 148.82 C 156.15 149.62 156.70 150.37 157.50 150.49 Z M 158.48 150.62 L 159.47 150.78 C 160.26 150.90 161.00 150.37 161.13 149.57 C 161.26 148.78 160.72 148.04 159.93 147.91 L 158.94 147.76 C 158.15 147.63 157.40 148.17 157.28 148.96 C 157.15 149.75 157.69 150.49 158.48 150.62 Z M 159.49 150.77 L 160.48 150.91 C 161.26 151.03 161.99 150.49 162.11 149.70 C 162.22 148.91 161.68 148.18 160.89 148.07 L 159.91 147.92 C 159.12 147.81 158.39 148.35 158.27 149.14 C 158.16 149.92 158.70 150.65 159.49 150.77 Z M 160.46 150.90 L 161.44 151.06 C 162.22 151.19 162.96 150.66 163.08 149.88 C 163.21 149.10 162.68 148.36 161.90 148.24 L 160.91 148.08 C 160.13 147.95 159.40 148.48 159.27 149.26 C 159.15 150.04 159.68 150.78 160.46 150.90 Z M 161.40 151.05 L 162.38 151.24 C 163.15 151.39 163.90 150.89 164.05 150.11 C 164.20 149.34 163.70 148.59 162.92 148.44 L 161.94 148.25 C 161.17 148.10 160.42 148.60 160.27 149.38 C 160.12 150.15 160.62 150.90 161.40 151.05 Z M 162.37 151.24 L 162.67 151.30 C 163.44 151.46 164.19 150.96 164.35 150.19 C 164.50 149.41 164.01 148.66 163.23 148.50 L 162.94 148.44 C 162.17 148.29 161.41 148.79 161.26 149.56 C 161.10 150.33 161.60 151.08 162.37 151.24 Z"
      fill="black"
      fill-rule="nonzero" /></svg>