<svg xmlns="http://www.w3.org/2000/svg" width="300" height="300" viewBox="0 0 300 300">
<path d="M 133.99 117.61 L 134.96 117.86 C 135.72 118.06 136.50 117.60 136.69 116.84 C 136.89 116.08 136.44 115.30 135.67 115.10 L 134.71 114.85 C 133.94 114.65 133.17 115.11 132.97 115.87 C 132.77 116.63 133.23 117.41 133.99 117.61 Z M 134.96 117.86 L 135.30 117.95 C 136.06 118.15 136.84 117.69 137.04 116.93 C 137.24 116.17 136.78 115.39 136.02 115.19 L 135.67 115.10 C 134.91 114.91 134.13 115.36 133.94 116.12 C 133.74 116.89 134.19 117.66 134.96 117.86 Z"
      fill="black"
      fill-rule="nonzero" /><path d="M 137.28 118.58 L 138.10 118.05 C 138.81 117.59 139.02 116.64 138.56 115.93 C 138.10 115.22 137.15 115.01 136.43 115.48 L 135.62 116.00 C 134.90 116.46 134.70 117.42 135.16 118.13 C 135.62 118.84 136.57 119.04 137.28 118.58 Z M 138.37 117.87 L 139.12 117.13 C 139.73 116.53 139.73 115.54 139.13 114.92 C 138.52 114.31 137.53 114.31 136.92 114.91 L 136.17 115.65 C 135.56 116.26 135.55 117.25 136.16 117.86 C 136.77 118.48 137.75 118.48 138.37 117.87 Z M 139.43 116.74 L 139.90 115.81 C 140.30 115.03 139.99 114.07 139.21 113.68 C 138.43 113.28 137.47 113.59 137.08 114.37 L 136.60 115.31 C 136.20 116.09 136.52 117.04 137.30 117.44 C 138.08 117.84 139.03 117.52 139.43 116.74 Z M 139.95 114.44 L 139.67 113.79 C 139.31 112.98 138.36 112.62 137.55 112.98 C 136.74 113.34 136.38 114.29 136.74 115.10 L 137.03 115.74 C 137.39 116.55 138.33 116.91 139.14 116.55 C 139.95 116.19 140.31 115.25 139.95 114.44 Z M 138.43 112.85 L 137.35 112.70 C 136.47 112.57 135.66 113.18 135.53 114.06 C 135.40 114.93 136.01 115.75 136.89 115.88 L 137.97 116.04 C 138.85 116.16 139.67 115.55 139.79 114.68 C 139.92 113.80 139.31 112.98 138.43 112.85 Z M 137.00 112.68 L 136.06 112.75 C 135.18 112.82 134.51 113.59 134.58 114.47 C 134.64 115.35 135.41 116.02 136.30 115.96 L 137.23 115.89 C 138.12 115.83 138.78 115.06 138.72 114.17 C 138.66 113.29 137.89 112.62 137.00 112.68 Z M 135.83 112.79 L 134.81 113.02 C 133.95 113.21 133.41 114.07 133.60 114.94 C 133.80 115.80 134.65 116.34 135.52 116.15 L 136.53 115.92 C 137.40 115.72 137.94 114.87 137.74 114.00 C 137.55 113.14 136.69 112.59 135.83 112.79 Z M 134.57 113.09 L 133.63 113.47 C 132.81 113.80 132.41 114.73 132.73 115.55 C 133.06 116.37 133.99 116.77 134.81 116.45 L 135.76 116.07 C 136.58 115.75 136.98 114.81 136.65 113.99 C 136.33 113.17 135.40 112.77 134.57 113.09 Z M 133.46 113.55 L 132.56 114.04 C 131.79 114.47 131.50 115.44 131.93 116.21 C 132.35 116.99 133.32 117.27 134.10 116.85 L 134.99 116.36 C 135.77 115.94 136.05 114.97 135.63 114.19 C 135.20 113.41 134.23 113.13 133.46 113.55 Z M 132.42 114.13 L 131.60 114.70 C 130.87 115.21 130.69 116.20 131.19 116.93 C 131.70 117.65 132.69 117.83 133.42 117.33 L 134.24 116.76 C 134.97 116.26 135.15 115.26 134.65 114.53 C 134.14 113.81 133.15 113.63 132.42 114.13 Z M 131.45 114.82 L 130.70 115.48 C 130.04 116.07 129.97 117.08 130.56 117.74 C 131.14 118.40 132.15 118.46 132.81 117.88 L 133.56 117.21 C 134.23 116.63 134.29 115.62 133.71 114.96 C 133.12 114.30 132.11 114.23 131.45 114.82 Z M 130.57 115.61 L 129.91 116.33 C 129.32 116.99 129.37 118.00 130.02 118.59 C 130.67 119.18 131.68 119.13 132.28 118.48 L 132.94 117.75 C 133.53 117.10 133.48 116.09 132.83 115.50 C 132.17 114.91 131.17 114.96 130.57 115.61 Z M 129.83 116.44 L 129.23 117.22 C 128.70 117.92 128.83 118.92 129.53 119.45 C 130.23 119.99 131.23 119.85 131.77 119.15 L 132.36 118.38 C 132.90 117.68 132.76 116.67 132.06 116.14 C 131.36 115.61 130.36 115.74 129.83 116.44 Z M 129.15 117.33 L 128.61 118.19 C 128.14 118.93 128.37 119.92 129.11 120.39 C 129.86 120.86 130.84 120.63 131.31 119.89 L 131.85 119.03 C 132.32 118.29 132.09 117.31 131.35 116.84 C 130.61 116.37 129.62 116.59 129.15 117.33 Z M 128.53 118.34 L 128.09 119.23 C 127.71 120.02 128.03 120.98 128.82 121.36 C 129.61 121.75 130.57 121.42 130.96 120.63 L 131.39 119.74 C 131.78 118.95 131.45 117.99 130.66 117.61 C 129.87 117.22 128.92 117.55 128.53 118.34 Z M 128.03 119.39 L 127.69 120.32 C 127.39 121.15 127.82 122.06 128.64 122.36 C 129.47 122.66 130.38 122.24 130.68 121.41 L 131.02 120.48 C 131.32 119.65 130.89 118.74 130.07 118.44 C 129.24 118.14 128.33 118.56 128.03 119.39 Z M 127.65 120.47 L 127.39 121.45 C 127.17 122.30 127.68 123.17 128.53 123.39 C 129.38 123.61 130.25 123.10 130.47 122.25 L 130.73 121.27 C 130.95 120.42 130.44 119.55 129.59 119.33 C 128.74 119.11 127.87 119.62 127.65 120.47 Z M 127.37 121.57 L 127.19 122.54 C 127.04 123.40 127.61 124.23 128.48 124.38 C 129.34 124.54 130.17 123.96 130.32 123.10 L 130.49 122.13 C 130.65 121.27 130.07 120.44 129.21 120.29 C 128.35 120.13 127.52 120.71 127.37 121.57 Z M 127.18 122.63 L 127.06 123.63 C 126.96 124.51 127.59 125.29 128.46 125.39 C 129.33 125.49 130.12 124.87 130.22 124.00 L 130.33 123.00 C 130.44 122.13 129.81 121.34 128.94 121.24 C 128.07 121.14 127.28 121.76 127.18 122.63 Z M 127.06 123.71 L 126.99 124.73 C 126.94 125.61 127.60 126.36 128.47 126.42 C 129.35 126.47 130.10 125.81 130.16 124.93 L 130.22 123.92 C 130.28 123.04 129.62 122.29 128.74 122.23 C 127.87 122.18 127.12 122.84 127.06 123.71 Z M 126.99 124.82 L 126.98 125.83 C 126.97 126.70 127.67 127.42 128.55 127.43 C 129.42 127.44 130.14 126.73 130.15 125.86 L 130.16 124.85 C 130.17 123.97 129.47 123.26 128.59 123.25 C 127.72 123.24 127.00 123.94 126.99 124.82 Z M 126.99 125.95 L 127.05 126.94 C 127.11 127.81 127.87 128.47 128.74 128.41 C 129.61 128.36 130.27 127.60 130.21 126.73 L 130.14 125.74 C 130.09 124.86 129.33 124.21 128.46 124.26 C 127.59 124.32 126.93 125.08 126.99 125.95 Z M 127.08 127.11 L 127.26 128.10 C 127.41 128.96 128.23 129.53 129.09 129.38 C 129.95 129.22 130.52 128.40 130.36 127.54 L 130.19 126.56 C 130.03 125.70 129.21 125.13 128.35 125.28 C 127.50 125.44 126.92 126.26 127.08 127.11 Z M 127.31 128.30 L 127.62 129.25 C 127.88 130.08 128.77 130.54 129.60 130.27 C 130.42 130.01 130.88 129.12 130.61 128.29 L 130.31 127.34 C 130.04 126.51 129.16 126.06 128.33 126.32 C 127.50 126.59 127.05 127.47 127.31 128.30 Z M 127.70 129.45 L 128.13 130.34 C 128.50 131.12 129.44 131.45 130.22 131.08 C 131.00 130.70 131.33 129.77 130.96 128.99 L 130.53 128.09 C 130.16 127.31 129.22 126.98 128.44 127.36 C 127.66 127.73 127.33 128.67 127.70 129.45 Z M 128.23 130.51 L 128.77 131.34 C 129.24 132.06 130.20 132.27 130.93 131.80 C 131.65 131.33 131.86 130.36 131.39 129.64 L 130.85 128.81 C 130.38 128.09 129.41 127.88 128.69 128.35 C 127.97 128.82 127.76 129.79 128.23 130.51 Z M 128.88 131.48 L 129.52 132.25 C 130.07 132.91 131.05 133.00 131.71 132.46 C 132.37 131.91 132.46 130.93 131.91 130.27 L 131.27 129.50 C 130.73 128.84 129.75 128.74 129.09 129.29 C 128.42 129.84 128.33 130.82 128.88 131.48 Z M 129.63 132.36 L 130.35 133.07 C 130.96 133.67 131.94 133.66 132.54 133.05 C 133.14 132.45 133.13 131.47 132.52 130.87 L 131.80 130.16 C 131.19 129.56 130.22 129.57 129.62 130.18 C 129.02 130.78 129.02 131.76 129.63 132.36 Z M 130.46 133.15 L 131.24 133.79 C 131.89 134.33 132.86 134.24 133.40 133.58 C 133.93 132.93 133.84 131.96 133.19 131.42 L 132.41 130.79 C 131.76 130.25 130.79 130.34 130.25 131.00 C 129.72 131.65 129.81 132.62 130.46 133.15 Z M 131.36 133.86 L 132.19 134.43 C 132.88 134.90 133.82 134.72 134.30 134.02 C 134.77 133.33 134.59 132.39 133.89 131.91 L 133.07 131.35 C 132.37 130.88 131.43 131.06 130.96 131.75 C 130.48 132.45 130.66 133.39 131.36 133.86 Z M 132.32 134.49 L 133.20 134.97 C 133.93 135.36 134.84 135.09 135.24 134.36 C 135.63 133.63 135.36 132.72 134.63 132.32 L 133.75 131.85 C 133.02 131.45 132.11 131.72 131.72 132.45 C 131.32 133.18 131.59 134.10 132.32 134.49 Z M 133.34 135.02 L 134.26 135.40 C 135.02 135.71 135.89 135.36 136.20 134.60 C 136.52 133.84 136.16 132.97 135.41 132.66 L 134.49 132.27 C 133.73 131.96 132.86 132.32 132.55 133.07 C 132.23 133.83 132.59 134.70 133.34 135.02 Z M 134.39 135.42 L 135.34 135.73 C 136.11 135.98 136.94 135.55 137.19 134.78 C 137.43 134.01 137.01 133.18 136.24 132.94 L 135.28 132.63 C 134.51 132.39 133.68 132.81 133.44 133.58 C 133.19 134.35 133.62 135.18 134.39 135.42 Z M 135.44 135.74 L 136.39 135.98 C 137.17 136.17 137.96 135.69 138.15 134.91 C 138.34 134.14 137.87 133.35 137.09 133.16 L 136.14 132.92 C 135.36 132.73 134.57 133.21 134.38 133.99 C 134.19 134.76 134.66 135.55 135.44 135.74 Z M 136.47 135.99 L 137.46 136.17 C 138.24 136.32 139.00 135.80 139.14 135.02 C 139.29 134.24 138.78 133.48 137.99 133.33 L 137.01 133.15 C 136.22 133.00 135.47 133.52 135.32 134.30 C 135.17 135.08 135.69 135.84 136.47 135.99 Z M 137.53 136.17 L 138.53 136.31 C 139.32 136.42 140.04 135.88 140.15 135.09 C 140.26 134.30 139.71 133.58 138.93 133.47 L 137.92 133.33 C 137.14 133.22 136.41 133.77 136.30 134.56 C 136.19 135.34 136.74 136.07 137.53 136.17 Z M 138.59 136.32 L 139.58 136.42 C 140.36 136.49 141.06 135.92 141.14 135.14 C 141.22 134.35 140.65 133.65 139.86 133.57 L 138.87 133.47 C 138.09 133.39 137.39 133.96 137.31 134.75 C 137.23 135.54 137.80 136.24 138.59 136.32 Z M 139.61 136.42 L 140.61 136.49 C 141.40 136.55 142.08 135.97 142.14 135.18 C 142.20 134.39 141.62 133.71 140.83 133.64 L 139.83 133.57 C 139.04 133.51 138.36 134.09 138.29 134.88 C 138.23 135.67 138.82 136.36 139.61 136.42 Z M 140.62 136.49 L 141.36 136.54 C 142.14 136.60 142.82 136.00 142.88 135.22 C 142.93 134.43 142.34 133.75 141.55 133.70 L 140.82 133.65 C 140.03 133.59 139.35 134.19 139.30 134.97 C 139.24 135.76 139.84 136.44 140.62 136.49 Z"
      fill="black"
      fill-rule="nonzero" /><path d="M 148.89 118.34 L 148.93 117.36 C 148.96 116.57 148.34 115.91 147.55 115.88 C 146.76 115.85 146.09 116.46 146.06 117.26 L 146.03 118.23 C 146.00 119.02 146.61 119.69 147.41 119.72 C 148.20 119.75 148.86 119.13 148.89 118.34 Z M 148.96 117.33 L 148.98 116.20 C 148.99 115.39 148.34 114.72 147.54 114.71 C 146.73 114.70 146.06 115.35 146.05 116.16 L 146.03 117.29 C 146.02 118.10 146.67 118.76 147.48 118.78 C 148.28 118.79 148.95 118.14 148.96 117.33 Z M 149.01 115.80 L 148.80 115.01 C 148.60 114.19 147.76 113.69 146.93 113.90 C 146.11 114.11 145.61 114.95 145.82 115.77 L 146.02 116.56 C 146.23 117.38 147.07 117.88 147.89 117.67 C 148.72 117.46 149.21 116.62 149.01 115.80 Z M 146.23 114.22 L 145.60 114.80 C 144.95 115.40 144.91 116.41 145.50 117.06 C 146.10 117.70 147.11 117.75 147.75 117.15 L 148.39 116.56 C 149.04 115.97 149.08 114.96 148.49 114.31 C 147.89 113.66 146.88 113.62 146.23 114.22 Z M 145.23 115.29 L 144.77 116.26 C 144.39 117.06 144.73 118.01 145.53 118.39 C 146.33 118.77 147.28 118.44 147.66 117.64 L 148.12 116.67 C 148.50 115.87 148.17 114.91 147.37 114.53 C 146.57 114.15 145.61 114.49 145.23 115.29 Z M 144.68 116.47 L 144.38 117.45 C 144.12 118.30 144.59 119.20 145.44 119.46 C 146.29 119.72 147.19 119.24 147.45 118.39 L 147.75 117.42 C 148.01 116.57 147.54 115.67 146.69 115.41 C 145.84 115.15 144.94 115.62 144.68 116.47 Z M 144.35 117.55 L 144.12 118.52 C 143.91 119.38 144.45 120.25 145.32 120.46 C 146.18 120.66 147.05 120.13 147.26 119.26 L 147.49 118.29 C 147.69 117.42 147.15 116.55 146.29 116.35 C 145.42 116.14 144.55 116.68 144.35 117.55 Z M 144.10 118.60 L 143.92 119.58 C 143.76 120.46 144.34 121.30 145.22 121.46 C 146.10 121.62 146.94 121.04 147.10 120.16 L 147.28 119.18 C 147.44 118.30 146.86 117.46 145.98 117.30 C 145.10 117.14 144.26 117.72 144.10 118.60 Z M 143.90 119.66 L 143.78 120.59 C 143.67 121.48 144.29 122.29 145.18 122.41 C 146.06 122.53 146.87 121.90 146.99 121.01 L 147.11 120.08 C 147.23 119.19 146.60 118.38 145.72 118.27 C 144.83 118.15 144.02 118.77 143.90 119.66 Z M 143.77 120.67 L 143.69 121.63 C 143.61 122.52 144.27 123.31 145.16 123.38 C 146.06 123.46 146.84 122.80 146.92 121.91 L 147.00 120.94 C 147.08 120.05 146.42 119.27 145.52 119.19 C 144.63 119.11 143.85 119.77 143.77 120.67 Z M 143.68 121.69 L 143.63 122.79 C 143.59 123.68 144.28 124.44 145.18 124.48 C 146.07 124.53 146.83 123.83 146.87 122.94 L 146.92 121.84 C 146.96 120.95 146.27 120.19 145.38 120.15 C 144.49 120.11 143.73 120.80 143.68 121.69 Z M 143.63 122.83 L 143.61 123.81 C 143.59 124.70 144.30 125.44 145.20 125.46 C 146.09 125.48 146.83 124.77 146.85 123.87 L 146.87 122.90 C 146.89 122.00 146.18 121.26 145.29 121.24 C 144.39 121.22 143.65 121.93 143.63 122.83 Z M 143.61 123.83 L 143.60 124.86 C 143.60 125.75 144.32 126.48 145.21 126.49 C 146.11 126.49 146.84 125.77 146.85 124.88 L 146.85 123.85 C 146.86 122.96 146.14 122.22 145.24 122.22 C 144.35 122.21 143.61 122.94 143.61 123.83 Z M 143.60 124.87 L 143.61 125.88 C 143.61 126.78 144.34 127.50 145.24 127.50 C 146.13 127.50 146.85 126.77 146.85 125.87 L 146.85 124.86 C 146.84 123.96 146.11 123.24 145.22 123.25 C 144.32 123.25 143.60 123.98 143.60 124.87 Z M 143.61 125.90 L 143.62 126.97 C 143.64 127.87 144.37 128.58 145.27 128.57 C 146.16 128.56 146.88 127.82 146.86 126.93 L 146.85 125.85 C 146.84 124.96 146.10 124.24 145.21 124.26 C 144.31 124.27 143.60 125.01 143.61 125.90 Z M 143.63 127.03 L 143.67 128.02 C 143.72 128.92 144.47 129.61 145.37 129.57 C 146.26 129.52 146.95 128.77 146.91 127.87 L 146.86 126.87 C 146.82 125.98 146.06 125.29 145.17 125.33 C 144.28 125.37 143.59 126.13 143.63 127.03 Z M 143.69 128.14 L 143.79 129.05 C 143.90 129.94 144.70 130.57 145.59 130.47 C 146.47 130.36 147.11 129.56 147.00 128.67 L 146.90 127.76 C 146.79 126.87 145.99 126.24 145.10 126.34 C 144.22 126.45 143.58 127.25 143.69 128.14 Z M 143.83 129.23 L 144.07 130.23 C 144.27 131.10 145.13 131.64 146.00 131.44 C 146.86 131.23 147.40 130.37 147.20 129.50 L 146.97 128.50 C 146.76 127.63 145.90 127.09 145.03 127.30 C 144.17 127.50 143.63 128.36 143.83 129.23 Z M 144.13 130.41 L 144.46 131.33 C 144.76 132.16 145.68 132.59 146.51 132.29 C 147.34 131.99 147.77 131.08 147.47 130.25 L 147.14 129.33 C 146.84 128.50 145.92 128.07 145.09 128.37 C 144.26 128.67 143.83 129.58 144.13 130.41 Z M 144.54 131.49 L 144.98 132.38 C 145.36 133.16 146.31 133.49 147.10 133.11 C 147.88 132.72 148.21 131.77 147.83 130.99 L 147.39 130.09 C 147.01 129.31 146.06 128.98 145.27 129.36 C 144.48 129.75 144.16 130.70 144.54 131.49 Z M 145.08 132.52 L 145.61 133.36 C 146.08 134.09 147.04 134.30 147.77 133.84 C 148.50 133.38 148.72 132.41 148.26 131.68 L 147.72 130.84 C 147.26 130.11 146.29 129.90 145.56 130.36 C 144.83 130.82 144.62 131.79 145.08 132.52 Z M 145.73 133.49 L 146.35 134.27 C 146.89 134.93 147.86 135.04 148.53 134.50 C 149.19 133.97 149.30 133.00 148.76 132.33 L 148.14 131.55 C 147.60 130.89 146.63 130.78 145.97 131.31 C 145.30 131.85 145.19 132.82 145.73 133.49 Z M 146.50 134.39 L 147.21 135.09 C 147.81 135.68 148.78 135.66 149.37 135.06 C 149.95 134.46 149.94 133.50 149.34 132.91 L 148.62 132.21 C 148.02 131.62 147.06 131.63 146.47 132.23 C 145.88 132.84 145.89 133.80 146.50 134.39 Z M 147.41 135.22 L 148.22 135.79 C 148.90 136.27 149.83 136.11 150.31 135.44 C 150.79 134.76 150.63 133.83 149.95 133.35 L 149.14 132.78 C 148.47 132.30 147.53 132.46 147.06 133.13 C 146.58 133.81 146.74 134.74 147.41 135.22 Z M 148.46 135.90 L 149.35 136.33 C 150.09 136.67 150.96 136.36 151.31 135.63 C 151.66 134.89 151.35 134.02 150.61 133.67 L 149.72 133.24 C 148.98 132.89 148.10 133.21 147.76 133.94 C 147.41 134.68 147.72 135.55 148.46 135.90 Z M 149.55 136.38 L 150.50 136.68 C 151.27 136.92 152.08 136.49 152.32 135.72 C 152.56 134.96 152.13 134.15 151.36 133.91 L 150.41 133.61 C 149.65 133.37 148.84 133.80 148.60 134.57 C 148.36 135.33 148.79 136.14 149.55 136.38 Z M 150.63 136.70 L 151.61 136.91 C 152.38 137.08 153.15 136.58 153.31 135.81 C 153.48 135.03 152.99 134.27 152.21 134.10 L 151.24 133.89 C 150.46 133.72 149.70 134.21 149.53 134.99 C 149.36 135.76 149.85 136.53 150.63 136.70 Z M 151.65 136.91 L 152.41 137.05 C 153.19 137.19 153.93 136.67 154.07 135.90 C 154.21 135.12 153.70 134.38 152.92 134.23 L 152.16 134.10 C 151.39 133.96 150.64 134.47 150.50 135.25 C 150.36 136.03 150.88 136.77 151.65 136.91 Z"
      fill="black"
      fill-rule="nonzero" /></svg>