<svg xmlns="http://www.w3.org/2000/svg" width="300" height="300" viewBox="0 0 300 300">
<path d="M 132.94 147.25 L 133.13 146.17 C 133.27 145.38 132.74 144.63 131.95 144.49 C 131.15 144.35 130.40 144.88 130.26 145.67 L 130.07 146.75 C 129.94 147.54 130.47 148.30 131.26 148.44 C 132.05 148.57 132.80 148.04 132.94 147.25 Z M 132.95 146.75 L 133.41 146.05 C 133.87 145.35 133.68 144.42 132.98 143.96 C 132.29 143.51 131.36 143.70 130.90 144.39 L 130.44 145.10 C 129.98 145.79 130.18 146.72 130.87 147.18 C 131.56 147.63 132.50 147.44 132.95 146.75 Z M 132.32 146.78 L 133.28 146.68 C 134.14 146.59 134.77 145.82 134.68 144.96 C 134.59 144.10 133.82 143.47 132.95 143.56 L 132.00 143.66 C 131.13 143.75 130.51 144.52 130.59 145.38 C 130.68 146.24 131.46 146.87 132.32 146.78 Z M 132.86 146.73 L 133.85 146.88 C 134.73 147.02 135.57 146.42 135.71 145.53 C 135.85 144.64 135.24 143.81 134.35 143.67 L 133.37 143.51 C 132.48 143.37 131.65 143.98 131.51 144.87 C 131.37 145.75 131.97 146.59 132.86 146.73 Z M 133.83 146.89 L 134.83 147.06 C 135.73 147.21 136.57 146.60 136.72 145.71 C 136.87 144.82 136.26 143.98 135.37 143.83 L 134.37 143.66 C 133.48 143.51 132.63 144.12 132.48 145.01 C 132.34 145.90 132.94 146.74 133.83 146.89 Z M 134.89 147.06 L 135.91 147.20 C 136.81 147.31 137.63 146.68 137.74 145.79 C 137.86 144.89 137.23 144.07 136.33 143.95 L 135.31 143.82 C 134.42 143.70 133.60 144.33 133.48 145.23 C 133.36 146.13 134.00 146.95 134.89 147.06 Z M 135.96 147.20 L 136.97 147.31 C 137.87 147.40 138.67 146.74 138.77 145.84 C 138.86 144.94 138.20 144.14 137.30 144.05 L 136.29 143.95 C 135.39 143.85 134.58 144.51 134.49 145.41 C 134.40 146.31 135.06 147.11 135.96 147.20 Z M 137.01 147.31 L 138.03 147.39 C 138.93 147.46 139.72 146.79 139.79 145.88 C 139.86 144.98 139.19 144.19 138.28 144.12 L 137.26 144.04 C 136.36 143.97 135.57 144.65 135.50 145.55 C 135.43 146.45 136.11 147.24 137.01 147.31 Z M 138.07 147.39 L 139.03 147.44 C 139.93 147.49 140.71 146.80 140.75 145.89 C 140.80 144.99 140.11 144.22 139.20 144.17 L 138.24 144.12 C 137.34 144.07 136.57 144.77 136.52 145.67 C 136.47 146.58 137.17 147.35 138.07 147.39 Z M 139.05 147.44 L 140.00 147.48 C 140.90 147.52 141.67 146.82 141.70 145.92 C 141.74 145.01 141.04 144.25 140.14 144.21 L 139.18 144.17 C 138.28 144.13 137.52 144.84 137.48 145.74 C 137.44 146.64 138.14 147.41 139.05 147.44 Z M 140.01 147.48 L 141.05 147.52 C 141.95 147.55 142.71 146.85 142.74 145.94 C 142.77 145.04 142.07 144.28 141.16 144.25 L 140.13 144.21 C 139.22 144.18 138.46 144.89 138.43 145.79 C 138.40 146.69 139.11 147.45 140.01 147.48 Z M 141.06 147.52 L 142.05 147.54 C 142.95 147.57 143.70 146.86 143.72 145.96 C 143.75 145.06 143.04 144.31 142.14 144.28 L 141.15 144.25 C 140.25 144.23 139.50 144.94 139.47 145.84 C 139.45 146.74 140.16 147.49 141.06 147.52 Z M 142.06 147.54 L 143.08 147.56 C 143.97 147.57 144.71 146.86 144.73 145.96 C 144.75 145.06 144.03 144.32 143.14 144.31 L 142.12 144.29 C 141.22 144.27 140.48 144.98 140.46 145.88 C 140.45 146.78 141.16 147.52 142.06 147.54 Z M 143.09 147.55 L 144.09 147.56 C 144.98 147.56 145.71 146.85 145.72 145.95 C 145.72 145.06 145.01 144.33 144.11 144.32 L 143.12 144.31 C 142.23 144.31 141.49 145.02 141.49 145.92 C 141.48 146.81 142.20 147.54 143.09 147.55 Z M 144.10 147.55 L 145.10 147.55 C 145.99 147.55 146.71 146.83 146.71 145.94 C 146.71 145.05 145.99 144.33 145.10 144.33 L 144.10 144.33 C 143.21 144.33 142.49 145.05 142.49 145.94 C 142.49 146.83 143.21 147.55 144.10 147.55 Z M 145.10 147.54 L 146.09 147.54 C 146.97 147.54 147.69 146.82 147.69 145.94 C 147.69 145.06 146.97 144.34 146.09 144.34 L 145.10 144.34 C 144.22 144.34 143.50 145.06 143.50 145.94 C 143.50 146.82 144.22 147.54 145.10 147.54 Z M 146.09 147.53 L 147.10 147.53 C 147.97 147.53 148.69 146.82 148.69 145.94 C 148.69 145.06 147.97 144.35 147.10 144.35 L 146.09 144.35 C 145.21 144.35 144.50 145.06 144.50 145.94 C 144.50 146.82 145.21 147.53 146.09 147.53 Z M 147.10 147.51 L 148.10 147.51 C 148.97 147.51 149.68 146.81 149.68 145.94 C 149.68 145.07 148.97 144.37 148.10 144.37 L 147.10 144.37 C 146.23 144.37 145.53 145.07 145.53 145.94 C 145.53 146.81 146.23 147.51 147.10 147.51 Z M 148.10 147.50 L 149.10 147.50 C 149.96 147.50 150.66 146.80 150.66 145.94 C 150.66 145.08 149.96 144.38 149.10 144.38 L 148.10 144.38 C 147.24 144.38 146.54 145.08 146.54 145.94 C 146.54 146.80 147.24 147.50 148.10 147.50 Z M 149.10 147.49 L 150.11 147.49 C 150.96 147.49 151.65 146.79 151.65 145.94 C 151.65 145.09 150.96 144.39 150.11 144.39 L 149.10 144.39 C 148.25 144.39 147.56 145.09 147.56 145.94 C 147.56 146.79 148.25 147.49 149.10 147.49 Z M 150.11 147.47 L 151.11 147.47 C 151.95 147.47 152.64 146.79 152.64 145.94 C 152.64 145.09 151.95 144.41 151.11 144.41 L 150.11 144.41 C 149.26 144.41 148.57 145.09 148.57 145.94 C 148.57 146.79 149.26 147.47 150.11 147.47 Z M 151.11 147.46 L 152.11 147.46 C 152.95 147.46 153.63 146.78 153.63 145.94 C 153.63 145.10 152.95 144.42 152.11 144.42 L 151.11 144.42 C 150.27 144.42 149.59 145.10 149.59 145.94 C 149.59 146.78 150.27 147.46 151.11 147.46 Z M 152.11 147.45 L 153.10 147.45 C 153.93 147.45 154.61 146.77 154.61 145.94 C 154.60 145.11 153.93 144.43 153.10 144.43 L 152.11 144.43 C 151.27 144.43 150.60 145.11 150.60 145.94 C 150.60 146.77 151.27 147.45 152.11 147.45 Z M 153.10 147.44 L 154.10 147.44 C 154.93 147.43 155.60 146.76 155.60 145.93 C 155.59 145.10 154.92 144.43 154.09 144.43 L 153.09 144.44 C 152.26 144.44 151.59 145.12 151.59 145.95 C 151.60 146.78 152.27 147.45 153.10 147.44 Z M 154.11 147.43 L 155.13 147.42 C 155.96 147.41 156.62 146.73 156.61 145.91 C 156.60 145.08 155.93 144.42 155.10 144.43 L 154.08 144.44 C 153.25 144.45 152.59 145.13 152.60 145.95 C 152.61 146.78 153.29 147.44 154.11 147.43 Z M 155.14 147.42 L 156.16 147.40 C 156.98 147.39 157.64 146.71 157.63 145.88 C 157.61 145.06 156.93 144.40 156.11 144.41 L 155.09 144.43 C 154.27 144.44 153.61 145.12 153.62 145.95 C 153.64 146.77 154.32 147.43 155.14 147.42 Z M 156.15 147.40 L 157.14 147.38 C 157.97 147.37 158.62 146.70 158.61 145.87 C 158.60 145.05 157.92 144.39 157.10 144.40 L 156.11 144.42 C 155.29 144.43 154.63 145.11 154.64 145.93 C 154.65 146.75 155.33 147.41 156.15 147.40 Z M 157.13 147.38 L 158.16 147.37 C 158.98 147.37 159.64 146.70 159.64 145.88 C 159.63 145.06 158.96 144.40 158.14 144.40 L 157.11 144.41 C 156.29 144.41 155.63 145.08 155.64 145.90 C 155.64 146.72 156.31 147.38 157.13 147.38 Z M 158.15 147.36 L 159.11 147.36 C 159.93 147.36 160.59 146.70 160.59 145.89 C 160.59 145.07 159.93 144.41 159.11 144.41 L 158.15 144.41 C 157.34 144.41 156.68 145.07 156.68 145.89 C 156.68 146.70 157.34 147.37 158.15 147.36 Z M 159.11 147.35 L 160.13 147.35 C 160.94 147.35 161.60 146.70 161.60 145.89 C 161.60 145.08 160.94 144.42 160.13 144.42 L 159.11 144.42 C 158.30 144.42 157.64 145.08 157.64 145.89 C 157.64 146.70 158.30 147.35 159.11 147.35 Z M 160.13 147.34 L 161.09 147.34 C 161.89 147.34 162.54 146.69 162.54 145.89 C 162.54 145.08 161.89 144.43 161.09 144.43 L 160.13 144.43 C 159.32 144.43 158.67 145.08 158.67 145.89 C 158.67 146.69 159.32 147.34 160.13 147.34 Z M 161.09 147.33 L 162.07 147.33 C 162.87 147.33 163.52 146.69 163.52 145.89 C 163.52 145.09 162.87 144.44 162.07 144.44 L 161.09 144.44 C 160.29 144.44 159.64 145.09 159.64 145.89 C 159.64 146.69 160.29 147.33 161.09 147.33 Z M 162.07 147.33 L 163.08 147.33 C 163.87 147.33 164.52 146.68 164.52 145.89 C 164.52 145.09 163.87 144.44 163.08 144.44 L 162.07 144.44 C 161.27 144.44 160.63 145.09 160.63 145.89 C 160.63 146.68 161.27 147.33 162.07 147.33 Z M 163.08 147.32 L 164.10 147.32 C 164.90 147.32 165.54 146.68 165.54 145.89 C 165.54 145.09 164.90 144.45 164.10 144.45 L 163.08 144.45 C 162.28 144.45 161.64 145.09 161.64 145.89 C 161.64 146.68 162.28 147.32 163.08 147.32 Z M 164.10 147.32 L 165.14 147.32 C 165.93 147.32 166.57 146.68 166.57 145.89 C 166.57 145.09 165.93 144.45 165.14 144.45 L 164.10 144.45 C 163.31 144.45 162.67 145.09 162.67 145.89 C 162.67 146.68 163.31 147.32 164.10 147.32 Z M 165.14 147.32 L 166.13 147.32 C 166.92 147.32 167.56 146.68 167.56 145.89 C 167.56 145.10 166.92 144.46 166.13 144.46 L 165.14 144.46 C 164.35 144.46 163.71 145.10 163.71 145.89 C 163.71 146.68 164.35 147.32 165.14 147.32 Z M 166.13 147.31 L 166.64 147.31 C 167.43 147.31 168.07 146.67 168.07 145.89 C 168.07 145.10 167.43 144.46 166.64 144.46 L 166.13 144.46 C 165.35 144.46 164.71 145.10 164.71 145.89 C 164.71 146.67 165.35 147.31 166.13 147.31 Z"
      fill="black"
      fill-rule="nonzero" /><path d="M 152.31 135.86 L 151.96 136.74 C 151.64 137.51 152.01 138.40 152.79 138.71 C 153.57 139.03 154.45 138.65 154.77 137.88 L 155.12 137.00 C 155.44 136.23 155.06 135.34 154.29 135.03 C 153.51 134.71 152.62 135.09 152.31 135.86 Z M 151.86 136.81 L 151.53 137.81 C 151.25 138.64 151.71 139.54 152.54 139.81 C 153.37 140.08 154.26 139.63 154.53 138.80 L 154.86 137.80 C 155.14 136.97 154.69 136.08 153.86 135.80 C 153.03 135.53 152.13 135.98 151.86 136.81 Z M 151.46 137.92 L 151.22 138.89 C 151.01 139.76 151.54 140.64 152.41 140.85 C 153.28 141.07 154.15 140.53 154.37 139.67 L 154.61 138.69 C 154.82 137.82 154.29 136.95 153.42 136.73 C 152.55 136.52 151.67 137.05 151.46 137.92 Z M 151.19 138.95 L 150.99 139.96 C 150.81 140.84 151.38 141.70 152.26 141.88 C 153.15 142.06 154.01 141.49 154.19 140.61 L 154.39 139.61 C 154.57 138.72 154.00 137.86 153.12 137.68 C 152.24 137.50 151.37 138.07 151.19 138.95 Z M 150.98 139.97 L 150.78 140.98 C 150.62 141.87 151.20 142.73 152.09 142.90 C 152.98 143.07 153.84 142.49 154.01 141.60 L 154.20 140.59 C 154.37 139.70 153.79 138.84 152.90 138.67 C 152.01 138.50 151.15 139.08 150.98 139.97 Z M 150.78 140.97 L 150.59 141.92 C 150.41 142.82 150.99 143.68 151.88 143.86 C 152.77 144.04 153.64 143.46 153.82 142.57 L 154.01 141.61 C 154.19 140.72 153.61 139.85 152.72 139.68 C 151.83 139.50 150.96 140.07 150.78 140.97 Z M 150.60 141.88 L 150.38 142.81 C 150.17 143.70 150.73 144.58 151.62 144.79 C 152.51 144.99 153.39 144.44 153.60 143.55 L 153.81 142.62 C 154.02 141.73 153.46 140.84 152.58 140.64 C 151.69 140.43 150.80 140.99 150.60 141.88 Z M 150.39 142.76 L 150.13 143.73 C 149.90 144.62 150.43 145.52 151.31 145.75 C 152.20 145.99 153.10 145.46 153.33 144.57 L 153.59 143.60 C 153.82 142.72 153.29 141.81 152.41 141.58 C 151.52 141.35 150.62 141.88 150.39 142.76 Z M 150.14 143.70 L 149.87 144.66 C 149.62 145.54 150.13 146.46 151.01 146.71 C 151.89 146.96 152.80 146.45 153.05 145.57 L 153.33 144.61 C 153.58 143.73 153.07 142.81 152.19 142.56 C 151.31 142.31 150.39 142.82 150.14 143.70 Z M 149.87 144.65 L 149.59 145.60 C 149.33 146.48 149.83 147.40 150.71 147.66 C 151.59 147.91 152.51 147.41 152.77 146.54 L 153.05 145.58 C 153.31 144.71 152.81 143.78 151.93 143.53 C 151.05 143.27 150.13 143.77 149.87 144.65 Z M 149.59 145.60 L 149.31 146.56 C 149.06 147.44 149.56 148.36 150.43 148.61 C 151.31 148.87 152.23 148.37 152.48 147.49 L 152.77 146.53 C 153.02 145.66 152.52 144.74 151.64 144.48 C 150.77 144.23 149.85 144.73 149.59 145.60 Z M 149.31 146.57 L 149.04 147.52 C 148.79 148.39 149.29 149.31 150.16 149.56 C 151.04 149.82 151.95 149.31 152.21 148.44 L 152.48 147.49 C 152.74 146.61 152.23 145.70 151.36 145.44 C 150.48 145.19 149.57 145.69 149.31 146.57 Z M 149.05 147.51 L 148.75 148.49 C 148.49 149.36 148.99 150.28 149.86 150.54 C 150.73 150.80 151.65 150.31 151.91 149.43 L 152.20 148.45 C 152.46 147.58 151.96 146.66 151.09 146.40 C 150.22 146.14 149.31 146.64 149.05 147.51 Z M 148.76 148.47 L 148.47 149.41 C 148.20 150.28 148.68 151.20 149.54 151.47 C 150.41 151.74 151.33 151.26 151.60 150.40 L 151.89 149.46 C 152.17 148.59 151.69 147.67 150.82 147.40 C 149.96 147.13 149.04 147.61 148.76 148.47 Z M 148.48 149.39 L 148.17 150.35 C 147.88 151.20 148.35 152.13 149.20 152.41 C 150.06 152.69 150.99 152.23 151.27 151.37 L 151.59 150.42 C 151.87 149.56 151.40 148.63 150.55 148.35 C 149.69 148.07 148.76 148.53 148.48 149.39 Z M 148.18 150.33 L 147.85 151.27 C 147.56 152.12 148.01 153.05 148.86 153.35 C 149.71 153.64 150.64 153.19 150.93 152.34 L 151.26 151.39 C 151.55 150.54 151.10 149.61 150.25 149.32 C 149.40 149.02 148.47 149.48 148.18 150.33 Z M 147.86 151.25 L 147.53 152.19 C 147.22 153.03 147.66 153.96 148.50 154.27 C 149.34 154.57 150.27 154.14 150.58 153.29 L 150.92 152.36 C 151.22 151.52 150.79 150.58 149.94 150.28 C 149.10 149.97 148.17 150.41 147.86 151.25 Z M 147.54 152.16 L 147.18 153.10 C 146.86 153.94 147.28 154.87 148.11 155.19 C 148.94 155.51 149.88 155.10 150.20 154.26 L 150.56 153.32 C 150.88 152.49 150.47 151.55 149.63 151.23 C 148.80 150.91 147.86 151.33 147.54 152.16 Z M 147.20 153.07 L 146.82 153.99 C 146.49 154.81 146.88 155.75 147.71 156.09 C 148.53 156.43 149.47 156.03 149.81 155.21 L 150.18 154.29 C 150.52 153.47 150.13 152.53 149.30 152.19 C 148.48 151.85 147.53 152.25 147.20 153.07 Z M 146.84 153.96 L 146.44 154.87 C 146.09 155.69 146.47 156.64 147.28 156.99 C 148.10 157.34 149.05 156.97 149.40 156.15 L 149.79 155.23 C 150.15 154.42 149.77 153.47 148.96 153.12 C 148.14 152.76 147.19 153.14 146.84 153.96 Z M 146.46 154.85 L 146.04 155.78 C 145.67 156.59 146.03 157.54 146.84 157.91 C 147.65 158.27 148.60 157.91 148.97 157.10 L 149.39 156.17 C 149.75 155.36 149.39 154.41 148.58 154.05 C 147.77 153.68 146.82 154.04 146.46 154.85 Z M 146.05 155.76 L 145.61 156.68 C 145.24 157.48 145.58 158.44 146.39 158.82 C 147.19 159.19 148.15 158.85 148.52 158.04 L 148.95 157.12 C 149.33 156.32 148.99 155.36 148.18 154.99 C 147.38 154.61 146.42 154.96 146.05 155.76 Z M 145.63 156.66 L 145.19 157.57 C 144.80 158.36 145.13 159.32 145.93 159.71 C 146.72 160.10 147.68 159.77 148.07 158.97 L 148.51 158.06 C 148.90 157.27 148.57 156.31 147.77 155.92 C 146.97 155.53 146.01 155.86 145.63 156.66 Z M 145.20 157.54 L 144.76 158.42 C 144.35 159.21 144.67 160.17 145.46 160.57 C 146.25 160.97 147.21 160.66 147.61 159.87 L 148.05 159.00 C 148.45 158.21 148.14 157.24 147.35 156.84 C 146.56 156.44 145.60 156.76 145.20 157.54 Z M 144.77 158.39 L 144.28 159.30 C 143.86 160.08 144.15 161.05 144.93 161.47 C 145.71 161.89 146.68 161.60 147.10 160.82 L 147.59 159.90 C 148.01 159.13 147.72 158.16 146.94 157.74 C 146.16 157.32 145.19 157.61 144.77 158.39 Z M 144.30 159.26 L 143.82 160.11 C 143.38 160.87 143.64 161.85 144.40 162.29 C 145.17 162.73 146.14 162.47 146.59 161.70 L 147.07 160.86 C 147.51 160.10 147.25 159.12 146.49 158.68 C 145.72 158.24 144.75 158.50 144.30 159.26 Z M 143.85 160.06 L 143.32 160.91 C 142.85 161.65 143.08 162.64 143.83 163.11 C 144.58 163.57 145.57 163.34 146.03 162.59 L 146.56 161.75 C 147.02 161.00 146.79 160.01 146.05 159.55 C 145.30 159.08 144.31 159.31 143.85 160.06 Z M 143.35 160.86 L 142.79 161.68 C 142.30 162.41 142.49 163.41 143.22 163.90 C 143.95 164.39 144.94 164.20 145.44 163.47 L 146.00 162.64 C 146.49 161.91 146.30 160.92 145.57 160.43 C 144.84 159.93 143.85 160.13 143.35 160.86 Z M 142.84 161.63 L 142.24 162.43 C 141.72 163.14 141.87 164.14 142.57 164.66 C 143.28 165.18 144.28 165.03 144.80 164.33 L 145.40 163.53 C 145.92 162.82 145.77 161.82 145.06 161.30 C 144.36 160.77 143.36 160.92 142.84 161.63 Z M 142.29 162.38 L 141.65 163.17 C 141.10 163.85 141.21 164.85 141.89 165.40 C 142.57 165.95 143.57 165.84 144.12 165.16 L 144.76 164.38 C 145.31 163.70 145.20 162.70 144.52 162.15 C 143.84 161.59 142.84 161.70 142.29 162.38 Z M 141.69 163.14 L 141.06 163.87 C 140.49 164.53 140.57 165.53 141.23 166.09 C 141.90 166.66 142.89 166.58 143.46 165.92 L 144.09 165.19 C 144.65 164.53 144.58 163.53 143.91 162.97 C 143.25 162.40 142.26 162.48 141.69 163.14 Z M 141.11 163.82 L 140.45 164.53 C 139.86 165.17 139.89 166.16 140.53 166.75 C 141.16 167.34 142.16 167.31 142.75 166.67 L 143.41 165.97 C 144.00 165.33 143.97 164.34 143.33 163.75 C 142.70 163.15 141.70 163.19 141.11 163.82 Z M 140.55 164.45 L 139.78 165.15 C 139.14 165.73 139.09 166.72 139.67 167.36 C 140.26 167.99 141.24 168.04 141.88 167.46 L 142.65 166.76 C 143.29 166.18 143.34 165.19 142.76 164.55 C 142.17 163.91 141.19 163.87 140.55 164.45 Z M 139.94 165.04 L 139.09 165.63 C 138.39 166.12 138.22 167.09 138.71 167.79 C 139.20 168.49 140.17 168.66 140.87 168.17 L 141.72 167.58 C 142.42 167.08 142.59 166.12 142.10 165.42 C 141.61 164.71 140.64 164.54 139.94 165.04 Z M 139.49 165.44 L 138.59 165.75 C 137.79 166.02 137.35 166.89 137.63 167.70 C 137.90 168.50 138.77 168.93 139.58 168.66 L 140.48 168.36 C 141.28 168.08 141.71 167.21 141.44 166.40 C 141.17 165.60 140.29 165.17 139.49 165.44 Z M 139.37 165.71 L 138.44 165.54 C 137.61 165.38 136.82 165.92 136.66 166.74 C 136.51 167.56 137.05 168.36 137.87 168.52 L 138.80 168.69 C 139.62 168.85 140.42 168.31 140.57 167.49 C 140.73 166.66 140.19 165.87 139.37 165.71 Z M 138.87 165.72 L 137.97 165.23 C 137.25 164.83 136.34 165.10 135.95 165.82 C 135.55 166.54 135.82 167.44 136.54 167.84 L 137.44 168.33 C 138.16 168.73 139.06 168.46 139.46 167.74 C 139.85 167.02 139.59 166.12 138.87 165.72 Z M 138.03 165.28 L 137.95 165.23 C 137.26 164.80 136.35 165.02 135.92 165.71 C 135.50 166.40 135.71 167.31 136.40 167.74 L 136.48 167.78 C 137.17 168.21 138.07 168.00 138.50 167.31 C 138.93 166.62 138.72 165.71 138.03 165.28 Z"
      fill="black"
      fill-rule="nonzero" /><path d="M 153.47 156.46 L 154.56 156.64 C 155.37 156.78 156.13 156.24 156.27 155.43 C 156.41 154.62 155.86 153.86 155.06 153.72 L 153.96 153.53 C 153.16 153.40 152.39 153.94 152.25 154.75 C 152.12 155.56 152.66 156.32 153.47 156.46 Z M 154.21 156.60 L 155.03 156.94 C 155.81 157.27 156.71 156.90 157.04 156.12 C 157.37 155.34 157.00 154.44 156.22 154.11 L 155.40 153.77 C 154.62 153.44 153.72 153.80 153.39 154.59 C 153.06 155.37 153.43 156.27 154.21 156.60 Z M 154.19 156.17 L 154.56 157.00 C 154.92 157.79 155.85 158.14 156.65 157.79 C 157.44 157.43 157.79 156.50 157.43 155.70 L 157.06 154.88 C 156.70 154.08 155.77 153.73 154.98 154.09 C 154.18 154.45 153.83 155.38 154.19 156.17 Z M 154.41 156.29 L 154.37 157.30 C 154.33 158.18 155.01 158.92 155.89 158.96 C 156.77 158.99 157.51 158.31 157.55 157.43 L 157.59 156.42 C 157.62 155.54 156.94 154.80 156.06 154.76 C 155.18 154.72 154.44 155.41 154.41 156.29 Z M 154.37 157.17 L 154.25 158.15 C 154.14 159.03 154.77 159.83 155.64 159.94 C 156.52 160.04 157.32 159.42 157.43 158.54 L 157.55 157.56 C 157.66 156.68 157.03 155.88 156.15 155.78 C 155.27 155.67 154.47 156.29 154.37 157.17 Z M 154.25 158.11 L 154.10 159.12 C 153.97 160.00 154.57 160.82 155.45 160.95 C 156.33 161.08 157.14 160.48 157.28 159.60 L 157.43 158.58 C 157.56 157.70 156.95 156.89 156.08 156.75 C 155.20 156.62 154.38 157.23 154.25 158.11 Z M 154.10 159.10 L 153.94 160.09 C 153.79 160.97 154.39 161.79 155.27 161.94 C 156.14 162.08 156.97 161.48 157.11 160.61 L 157.27 159.62 C 157.42 158.74 156.82 157.91 155.94 157.77 C 155.07 157.63 154.24 158.22 154.10 159.10 Z M 153.94 160.07 L 153.76 161.07 C 153.61 161.95 154.19 162.78 155.07 162.94 C 155.94 163.09 156.78 162.51 156.93 161.63 L 157.11 160.63 C 157.27 159.75 156.68 158.92 155.81 158.76 C 154.93 158.61 154.09 159.19 153.94 160.07 Z M 153.77 161.04 L 153.58 162.03 C 153.41 162.90 153.97 163.75 154.85 163.92 C 155.72 164.09 156.57 163.52 156.74 162.65 L 156.93 161.66 C 157.10 160.79 156.53 159.94 155.66 159.77 C 154.78 159.60 153.94 160.17 153.77 161.04 Z M 153.58 162.00 L 153.37 162.97 C 153.19 163.84 153.74 164.70 154.61 164.88 C 155.48 165.07 156.33 164.52 156.52 163.65 L 156.73 162.68 C 156.91 161.81 156.36 160.95 155.49 160.76 C 154.63 160.58 153.77 161.13 153.58 162.00 Z M 153.38 162.94 L 153.15 163.91 C 152.95 164.78 153.49 165.64 154.35 165.84 C 155.22 166.05 156.08 165.51 156.29 164.64 L 156.51 163.67 C 156.71 162.81 156.18 161.95 155.31 161.74 C 154.45 161.54 153.58 162.08 153.38 162.94 Z M 153.16 163.91 L 152.93 164.88 C 152.72 165.75 153.26 166.61 154.12 166.82 C 154.98 167.02 155.85 166.49 156.05 165.62 L 156.28 164.65 C 156.49 163.79 155.95 162.92 155.09 162.72 C 154.23 162.51 153.36 163.05 153.16 163.91 Z M 152.92 164.91 L 152.71 165.88 C 152.52 166.75 153.07 167.60 153.94 167.79 C 154.80 167.98 155.66 167.43 155.85 166.57 L 156.06 165.60 C 156.25 164.73 155.70 163.87 154.83 163.69 C 153.96 163.50 153.11 164.05 152.92 164.91 Z M 152.69 165.95 L 152.53 166.91 C 152.37 167.79 152.96 168.62 153.83 168.77 C 154.71 168.93 155.54 168.34 155.69 167.47 L 155.86 166.50 C 156.01 165.63 155.43 164.79 154.55 164.64 C 153.68 164.49 152.85 165.07 152.69 165.95 Z M 152.51 167.02 L 152.40 168.03 C 152.30 168.92 152.94 169.71 153.82 169.81 C 154.71 169.91 155.50 169.27 155.60 168.38 L 155.71 167.37 C 155.81 166.48 155.17 165.69 154.28 165.59 C 153.40 165.49 152.60 166.13 152.51 167.02 Z M 152.39 168.19 L 152.37 169.27 C 152.36 170.16 153.07 170.89 153.96 170.90 C 154.85 170.91 155.59 170.20 155.60 169.31 L 155.61 168.23 C 155.62 167.34 154.91 166.61 154.02 166.60 C 153.13 166.58 152.40 167.30 152.39 168.19 Z M 152.41 169.65 L 152.63 170.59 C 152.83 171.46 153.69 172.01 154.56 171.81 C 155.43 171.61 155.97 170.74 155.77 169.87 L 155.56 168.93 C 155.36 168.06 154.49 167.52 153.62 167.71 C 152.76 167.91 152.21 168.78 152.41 169.65 Z M 153.08 171.40 L 153.68 171.97 C 154.32 172.59 155.34 172.58 155.96 171.93 C 156.58 171.29 156.56 170.27 155.92 169.65 L 155.32 169.07 C 154.68 168.45 153.66 168.47 153.04 169.11 C 152.42 169.75 152.44 170.78 153.08 171.40 Z M 154.46 172.39 L 155.41 172.60 C 156.28 172.78 157.14 172.23 157.33 171.35 C 157.52 170.48 156.96 169.62 156.09 169.44 L 155.14 169.23 C 154.27 169.05 153.41 169.60 153.22 170.48 C 153.03 171.35 153.59 172.21 154.46 172.39 Z M 155.72 172.63 L 156.80 172.66 C 157.69 172.68 158.43 171.97 158.45 171.07 C 158.47 170.18 157.76 169.44 156.87 169.42 L 155.79 169.40 C 154.89 169.38 154.15 170.09 154.13 170.98 C 154.11 171.87 154.82 172.61 155.72 172.63 Z M 156.84 172.66 L 157.83 172.66 C 158.72 172.66 159.44 171.93 159.44 171.04 C 159.44 170.14 158.71 169.42 157.82 169.42 L 156.83 169.42 C 155.94 169.42 155.21 170.15 155.22 171.04 C 155.22 171.94 155.94 172.66 156.84 172.66 Z M 157.84 172.66 L 158.84 172.65 C 159.73 172.64 160.45 171.91 160.44 171.01 C 160.43 170.12 159.70 169.40 158.80 169.41 L 157.81 169.42 C 156.91 169.43 156.19 170.16 156.20 171.05 C 156.21 171.95 156.94 172.67 157.84 172.66 Z M 158.86 172.65 L 159.86 172.63 C 160.76 172.60 161.46 171.86 161.44 170.96 C 161.42 170.07 160.68 169.36 159.78 169.38 L 158.78 169.41 C 157.88 169.43 157.18 170.17 157.20 171.07 C 157.22 171.96 157.96 172.67 158.86 172.65 Z M 159.89 172.62 L 160.88 172.58 C 161.78 172.55 162.47 171.79 162.44 170.90 C 162.40 170.00 161.64 169.30 160.75 169.34 L 159.75 169.38 C 158.86 169.42 158.16 170.18 158.20 171.07 C 158.24 171.97 158.99 172.66 159.89 172.62 Z M 160.91 172.58 L 161.92 172.52 C 162.82 172.47 163.50 171.70 163.45 170.81 C 163.39 169.91 162.63 169.23 161.73 169.28 L 160.72 169.34 C 159.83 169.40 159.14 170.16 159.20 171.06 C 159.25 171.95 160.02 172.63 160.91 172.58 Z M 161.96 172.52 L 162.99 172.43 C 163.88 172.36 164.55 171.58 164.47 170.69 C 164.40 169.80 163.62 169.13 162.73 169.20 L 161.70 169.29 C 160.81 169.36 160.14 170.14 160.21 171.03 C 160.28 171.92 161.06 172.59 161.96 172.52 Z M 163.02 172.43 L 164.04 172.33 C 164.93 172.24 165.58 171.44 165.49 170.56 C 165.40 169.67 164.61 169.02 163.72 169.11 L 162.70 169.21 C 161.81 169.30 161.16 170.09 161.25 170.98 C 161.34 171.87 162.13 172.52 163.02 172.43 Z M 164.06 172.32 L 165.02 172.21 C 165.91 172.11 166.54 171.31 166.44 170.43 C 166.34 169.54 165.54 168.90 164.66 169.01 L 163.70 169.11 C 162.81 169.22 162.18 170.01 162.28 170.90 C 162.38 171.78 163.18 172.42 164.06 172.32 Z M 165.04 172.20 L 166.05 172.08 C 166.93 171.97 167.56 171.16 167.45 170.28 C 167.34 169.40 166.53 168.77 165.65 168.88 L 164.64 169.01 C 163.76 169.12 163.13 169.93 163.24 170.81 C 163.35 171.69 164.16 172.31 165.04 172.20 Z M 166.13 172.06 L 167.09 171.89 C 167.97 171.74 168.55 170.91 168.40 170.03 C 168.24 169.16 167.41 168.58 166.54 168.73 L 165.58 168.90 C 164.70 169.05 164.12 169.88 164.27 170.76 C 164.43 171.63 165.26 172.21 166.13 172.06 Z M 167.26 171.85 L 168.19 171.58 C 169.03 171.34 169.53 170.45 169.28 169.61 C 169.04 168.76 168.16 168.27 167.31 168.51 L 166.38 168.78 C 165.53 169.02 165.04 169.90 165.28 170.75 C 165.52 171.60 166.41 172.09 167.26 171.85 Z M 168.33 171.52 L 169.26 171.16 C 170.08 170.83 170.48 169.91 170.15 169.09 C 169.83 168.28 168.91 167.88 168.09 168.20 L 167.16 168.57 C 166.35 168.89 165.95 169.81 166.27 170.63 C 166.59 171.45 167.52 171.85 168.33 171.52 Z M 169.32 171.12 L 169.98 170.83 C 170.78 170.48 171.14 169.54 170.79 168.74 C 170.44 167.95 169.50 167.58 168.71 167.94 L 168.04 168.23 C 167.24 168.58 166.88 169.52 167.23 170.32 C 167.58 171.12 168.52 171.48 169.32 171.12 Z"
      fill="black"
      fill-rule="nonzero" /></svg>