<svg xmlns="http://www.w3.org/2000/svg" width="300" height="300" viewBox="0 0 300 300">
<path d="M 145.57 134.39 L 145.00 135.09 C 144.45 135.77 144.55 136.76 145.23 137.32 C 145.91 137.87 146.91 137.77 147.46 137.09 L 148.03 136.39 C 148.58 135.71 148.48 134.71 147.80 134.16 C 147.12 133.61 146.12 133.71 145.57 134.39 Z M 144.94 135.14 L 144.30 136.01 C 143.78 136.72 143.93 137.72 144.64 138.25 C 145.35 138.77 146.36 138.62 146.88 137.91 L 147.52 137.04 C 148.04 136.32 147.89 135.32 147.18 134.80 C 146.47 134.27 145.46 134.42 144.94 135.14 Z M 144.26 136.05 L 143.71 136.86 C 143.21 137.60 143.40 138.60 144.13 139.09 C 144.87 139.59 145.87 139.40 146.37 138.67 L 146.92 137.86 C 147.42 137.13 147.23 136.13 146.49 135.63 C 145.76 135.13 144.76 135.32 144.26 136.05 Z M 143.71 136.88 L 143.13 137.75 C 142.64 138.48 142.84 139.48 143.58 139.97 C 144.31 140.46 145.31 140.26 145.80 139.52 L 146.37 138.65 C 146.86 137.92 146.66 136.92 145.92 136.43 C 145.19 135.94 144.19 136.14 143.71 136.88 Z M 143.13 137.75 L 142.56 138.62 C 142.07 139.35 142.26 140.34 143.00 140.83 C 143.73 141.32 144.72 141.12 145.21 140.39 L 145.79 139.52 C 146.28 138.79 146.08 137.79 145.35 137.31 C 144.61 136.82 143.62 137.01 143.13 137.75 Z M 142.57 138.61 L 142.01 139.43 C 141.51 140.16 141.70 141.15 142.43 141.64 C 143.16 142.14 144.15 141.95 144.64 141.22 L 145.20 140.40 C 145.69 139.67 145.51 138.68 144.78 138.19 C 144.05 137.69 143.06 137.88 142.57 138.61 Z M 142.01 139.42 L 141.47 140.21 C 140.98 140.93 141.16 141.92 141.88 142.42 C 142.61 142.92 143.60 142.74 144.10 142.01 L 144.63 141.23 C 145.13 140.50 144.95 139.51 144.22 139.01 C 143.50 138.52 142.51 138.70 142.01 139.42 Z M 141.48 140.20 L 140.92 141.01 C 140.42 141.73 140.60 142.72 141.32 143.22 C 142.04 143.72 143.04 143.54 143.54 142.82 L 144.09 142.02 C 144.59 141.29 144.41 140.30 143.69 139.80 C 142.97 139.30 141.98 139.48 141.48 140.20 Z M 140.93 140.99 L 140.34 141.82 C 139.83 142.54 139.99 143.54 140.71 144.05 C 141.43 144.56 142.42 144.39 142.93 143.67 L 143.53 142.84 C 144.04 142.12 143.87 141.13 143.15 140.62 C 142.43 140.11 141.44 140.27 140.93 140.99 Z M 140.35 141.80 L 139.76 142.60 C 139.24 143.30 139.39 144.30 140.10 144.83 C 140.81 145.35 141.80 145.20 142.33 144.49 L 142.92 143.70 C 143.44 142.99 143.29 141.99 142.58 141.47 C 141.87 140.94 140.88 141.09 140.35 141.80 Z M 139.78 142.58 L 139.17 143.38 C 138.63 144.08 138.77 145.08 139.47 145.61 C 140.17 146.15 141.17 146.01 141.71 145.31 L 142.32 144.51 C 142.85 143.81 142.71 142.81 142.01 142.27 C 141.31 141.74 140.31 141.88 139.78 142.58 Z M 139.17 143.37 L 138.55 144.17 C 138.02 144.87 138.14 145.87 138.84 146.41 C 139.54 146.95 140.54 146.82 141.08 146.12 L 141.70 145.32 C 142.24 144.62 142.11 143.62 141.41 143.08 C 140.72 142.54 139.71 142.67 139.17 143.37 Z M 138.56 144.17 L 137.95 144.96 C 137.41 145.65 137.53 146.65 138.22 147.19 C 138.92 147.73 139.92 147.61 140.46 146.91 L 141.07 146.12 C 141.61 145.43 141.49 144.43 140.79 143.89 C 140.10 143.35 139.10 143.47 138.56 144.17 Z M 137.96 144.96 L 137.34 145.75 C 136.80 146.43 136.92 147.43 137.61 147.97 C 138.30 148.50 139.29 148.38 139.83 147.70 L 140.45 146.91 C 140.98 146.22 140.86 145.23 140.18 144.69 C 139.49 144.15 138.50 144.27 137.96 144.96 Z M 137.35 145.75 L 136.73 146.54 C 136.19 147.22 136.30 148.21 136.98 148.75 C 137.66 149.29 138.65 149.17 139.19 148.49 L 139.82 147.69 C 140.36 147.01 140.24 146.03 139.56 145.49 C 138.88 144.95 137.89 145.07 137.35 145.75 Z M 136.74 146.55 L 136.12 147.33 C 135.58 148.00 135.69 148.98 136.36 149.52 C 137.03 150.05 138.01 149.94 138.55 149.27 L 139.17 148.49 C 139.71 147.82 139.60 146.84 138.93 146.30 C 138.26 145.76 137.28 145.87 136.74 146.55 Z M 136.13 147.33 L 135.51 148.10 C 134.97 148.76 135.07 149.73 135.73 150.27 C 136.39 150.81 137.36 150.71 137.90 150.04 L 138.53 149.27 C 139.07 148.61 138.96 147.64 138.30 147.10 C 137.64 146.57 136.67 146.67 136.13 147.33 Z M 135.53 148.10 L 134.88 148.88 C 134.34 149.53 134.43 150.49 135.08 151.03 C 135.73 151.57 136.70 151.48 137.23 150.83 L 137.88 150.05 C 138.42 149.40 138.33 148.43 137.68 147.89 C 137.03 147.36 136.07 147.45 135.53 148.10 Z M 134.89 148.88 L 134.27 149.63 C 133.73 150.27 133.82 151.23 134.46 151.76 C 135.10 152.30 136.06 152.22 136.59 151.57 L 137.22 150.83 C 137.76 150.19 137.67 149.23 137.03 148.69 C 136.39 148.15 135.43 148.24 134.89 148.88 Z M 134.28 149.63 L 133.63 150.40 C 133.10 151.04 133.18 151.98 133.81 152.52 C 134.45 153.05 135.40 152.97 135.93 152.34 L 136.58 151.57 C 137.11 150.93 137.03 149.99 136.40 149.45 C 135.77 148.92 134.82 149.00 134.28 149.63 Z M 133.67 150.39 L 133.01 151.14 C 132.47 151.75 132.53 152.69 133.15 153.23 C 133.77 153.77 134.70 153.71 135.25 153.10 L 135.90 152.35 C 136.44 151.73 136.38 150.79 135.76 150.25 C 135.15 149.71 134.21 149.77 133.67 150.39 Z M 133.06 151.11 L 132.38 151.83 C 131.82 152.42 131.85 153.35 132.44 153.91 C 133.03 154.47 133.96 154.44 134.52 153.85 L 135.20 153.12 C 135.75 152.53 135.73 151.60 135.14 151.05 C 134.54 150.49 133.61 150.52 133.06 151.11 Z M 132.41 151.82 L 131.71 152.53 C 131.14 153.10 131.15 154.02 131.72 154.59 C 132.29 155.15 133.21 155.15 133.78 154.58 L 134.48 153.86 C 135.05 153.29 135.04 152.37 134.47 151.81 C 133.90 151.24 132.98 151.25 132.41 151.82 Z M 131.72 152.53 L 131.54 152.72 C 130.97 153.28 130.97 154.19 131.54 154.76 C 132.10 155.32 133.01 155.32 133.58 154.76 L 133.76 154.58 C 134.33 154.01 134.33 153.10 133.76 152.53 C 133.20 151.97 132.28 151.97 131.72 152.53 Z"
      fill="black"
      fill-rule="nonzero" /><path d="M 157.33 129.60 L 158.35 129.65 C 159.17 129.69 159.87 129.06 159.91 128.24 C 159.95 127.42 159.32 126.72 158.50 126.68 L 157.48 126.63 C 156.66 126.59 155.96 127.22 155.92 128.04 C 155.88 128.86 156.51 129.56 157.33 129.60 Z M 158.19 129.68 L 159.17 129.83 C 160.00 129.95 160.78 129.38 160.91 128.54 C 161.04 127.71 160.46 126.92 159.62 126.80 L 158.65 126.65 C 157.82 126.52 157.04 127.10 156.91 127.94 C 156.78 128.77 157.36 129.55 158.19 129.68 Z M 158.87 129.78 L 159.76 130.10 C 160.57 130.39 161.46 129.97 161.75 129.16 C 162.04 128.35 161.62 127.46 160.81 127.17 L 159.92 126.85 C 159.11 126.56 158.22 126.98 157.93 127.79 C 157.64 128.60 158.06 129.49 158.87 129.78 Z M 159.53 130.00 L 160.42 130.50 C 161.18 130.92 162.13 130.65 162.55 129.89 C 162.97 129.14 162.70 128.19 161.94 127.77 L 161.05 127.27 C 160.29 126.85 159.34 127.12 158.92 127.87 C 158.50 128.63 158.77 129.58 159.53 130.00 Z M 160.32 130.44 L 161.18 131.00 C 161.90 131.48 162.86 131.28 163.34 130.56 C 163.82 129.84 163.62 128.87 162.90 128.40 L 162.05 127.83 C 161.33 127.36 160.36 127.55 159.88 128.27 C 159.41 128.99 159.60 129.96 160.32 130.44 Z M 161.14 130.97 L 161.98 131.56 C 162.68 132.06 163.66 131.89 164.15 131.19 C 164.65 130.48 164.48 129.51 163.78 129.01 L 162.94 128.42 C 162.23 127.92 161.26 128.09 160.76 128.80 C 160.26 129.50 160.43 130.48 161.14 130.97 Z M 161.96 131.55 L 162.78 132.15 C 163.48 132.66 164.46 132.51 164.96 131.81 C 165.47 131.11 165.32 130.14 164.62 129.63 L 163.79 129.03 C 163.10 128.52 162.12 128.67 161.61 129.37 C 161.11 130.07 161.26 131.04 161.96 131.55 Z M 162.77 132.14 L 163.56 132.73 C 164.25 133.25 165.23 133.11 165.75 132.42 C 166.26 131.73 166.12 130.75 165.43 130.23 L 164.64 129.64 C 163.95 129.12 162.97 129.27 162.45 129.96 C 161.94 130.65 162.08 131.62 162.77 132.14 Z M 163.54 132.71 L 164.29 133.30 C 164.97 133.82 165.95 133.70 166.47 133.02 C 167.00 132.35 166.88 131.37 166.20 130.84 L 165.45 130.26 C 164.78 129.73 163.80 129.85 163.27 130.53 C 162.74 131.20 162.86 132.18 163.54 132.71 Z M 164.26 133.27 L 165.04 133.90 C 165.70 134.45 166.68 134.35 167.22 133.69 C 167.77 133.02 167.67 132.05 167.01 131.50 L 166.23 130.87 C 165.57 130.32 164.59 130.42 164.05 131.09 C 163.50 131.75 163.60 132.73 164.26 133.27 Z M 165.01 133.87 L 165.78 134.53 C 166.42 135.09 167.40 135.01 167.95 134.37 C 168.51 133.72 168.44 132.75 167.79 132.19 L 167.03 131.53 C 166.39 130.98 165.41 131.05 164.85 131.69 C 164.30 132.34 164.37 133.31 165.01 133.87 Z M 165.75 134.50 L 166.49 135.17 C 167.12 135.74 168.10 135.69 168.66 135.06 C 169.23 134.43 169.18 133.46 168.56 132.89 L 167.81 132.22 C 167.19 131.65 166.21 131.70 165.64 132.33 C 165.08 132.96 165.12 133.93 165.75 134.50 Z M 166.48 135.15 L 167.14 135.77 C 167.76 136.35 168.73 136.31 169.30 135.70 C 169.88 135.08 169.85 134.11 169.23 133.53 L 168.57 132.91 C 167.95 132.33 166.99 132.37 166.41 132.98 C 165.83 133.60 165.86 134.57 166.48 135.15 Z M 167.12 135.74 L 167.90 136.50 C 168.50 137.09 169.47 137.07 170.06 136.47 C 170.65 135.87 170.63 134.90 170.03 134.31 L 169.25 133.56 C 168.65 132.97 167.68 132.98 167.09 133.59 C 166.50 134.19 166.52 135.16 167.12 135.74 Z M 167.89 136.48 L 168.56 137.15 C 169.15 137.74 170.12 137.74 170.71 137.15 C 171.30 136.55 171.30 135.59 170.71 134.99 L 170.04 134.33 C 169.44 133.73 168.48 133.74 167.89 134.33 C 167.29 134.93 167.29 135.89 167.89 136.48 Z M 168.55 137.13 L 169.27 137.87 C 169.85 138.47 170.81 138.48 171.41 137.89 C 172.01 137.31 172.02 136.35 171.44 135.75 L 170.72 135.01 C 170.13 134.41 169.17 134.40 168.57 134.99 C 167.97 135.57 167.96 136.53 168.55 137.13 Z M 169.25 137.84 L 169.97 138.60 C 170.54 139.21 171.49 139.24 172.10 138.67 C 172.71 138.09 172.74 137.14 172.17 136.53 L 171.45 135.77 C 170.88 135.16 169.92 135.13 169.31 135.71 C 168.71 136.28 168.68 137.24 169.25 137.84 Z M 169.95 138.56 L 170.65 139.36 C 171.20 139.97 172.15 140.03 172.77 139.48 C 173.39 138.93 173.44 137.98 172.89 137.36 L 172.19 136.57 C 171.63 135.95 170.69 135.89 170.07 136.45 C 169.45 137.00 169.39 137.95 169.95 138.56 Z M 170.63 139.31 L 171.26 140.06 C 171.79 140.69 172.72 140.78 173.35 140.25 C 173.98 139.72 174.07 138.79 173.54 138.16 L 172.91 137.40 C 172.38 136.77 171.45 136.69 170.82 137.22 C 170.19 137.74 170.10 138.68 170.63 139.31 Z M 171.24 140.02 L 171.84 140.78 C 172.34 141.42 173.26 141.54 173.91 141.04 C 174.55 140.53 174.66 139.61 174.16 138.97 L 173.56 138.20 C 173.06 137.56 172.13 137.45 171.49 137.95 C 170.85 138.45 170.74 139.38 171.24 140.02 Z M 171.82 140.73 L 172.40 141.54 C 172.88 142.20 173.79 142.35 174.44 141.87 C 175.09 141.40 175.24 140.49 174.77 139.84 L 174.18 139.02 C 173.71 138.37 172.80 138.22 172.14 138.69 C 171.49 139.16 171.34 140.08 171.82 140.73 Z M 172.38 141.49 L 172.92 142.30 C 173.36 142.97 174.26 143.15 174.93 142.71 C 175.59 142.27 175.78 141.37 175.33 140.70 L 174.80 139.89 C 174.35 139.22 173.45 139.04 172.79 139.48 C 172.12 139.92 171.94 140.82 172.38 141.49 Z M 172.90 142.26 L 173.42 143.11 C 173.84 143.78 174.72 144.00 175.40 143.58 C 176.08 143.16 176.29 142.28 175.87 141.60 L 175.35 140.75 C 174.94 140.07 174.05 139.86 173.37 140.28 C 172.69 140.69 172.48 141.58 172.90 142.26 Z M 173.41 143.08 L 173.92 143.94 C 174.32 144.63 175.20 144.85 175.88 144.45 C 176.57 144.05 176.79 143.17 176.39 142.49 L 175.88 141.63 C 175.48 140.94 174.60 140.72 173.92 141.12 C 173.24 141.52 173.01 142.40 173.41 143.08 Z M 173.92 143.94 L 173.98 144.03 C 174.38 144.71 175.25 144.94 175.93 144.54 C 176.61 144.15 176.84 143.27 176.45 142.59 L 176.39 142.50 C 175.99 141.82 175.12 141.59 174.44 141.98 C 173.75 142.38 173.53 143.26 173.92 143.94 Z"
      fill="black"
      fill-rule="nonzero" /><path d="M 148.77 147.40 L 149.69 147.44 C 150.57 147.48 151.31 146.80 151.35 145.92 C 151.39 145.04 150.70 144.30 149.83 144.26 L 148.90 144.22 C 148.03 144.19 147.28 144.87 147.25 145.75 C 147.21 146.63 147.89 147.37 148.77 147.40 Z M 149.73 147.45 L 150.71 147.46 C 151.59 147.48 152.32 146.78 152.34 145.90 C 152.35 145.02 151.65 144.29 150.77 144.28 L 149.79 144.26 C 148.91 144.24 148.18 144.95 148.17 145.83 C 148.15 146.71 148.85 147.43 149.73 147.45 Z M 150.78 147.47 L 151.87 147.44 C 152.75 147.42 153.45 146.68 153.43 145.80 C 153.40 144.92 152.67 144.22 151.79 144.25 L 150.70 144.27 C 149.82 144.30 149.12 145.03 149.15 145.91 C 149.17 146.79 149.90 147.49 150.78 147.47 Z M 151.93 147.43 L 152.90 147.37 C 153.78 147.31 154.44 146.55 154.39 145.68 C 154.33 144.80 153.58 144.14 152.70 144.19 L 151.73 144.26 C 150.85 144.31 150.19 145.07 150.25 145.95 C 150.30 146.82 151.06 147.48 151.93 147.43 Z M 152.94 147.35 L 153.96 147.26 C 154.83 147.18 155.47 146.42 155.39 145.55 C 155.31 144.69 154.55 144.05 153.69 144.12 L 152.66 144.21 C 151.80 144.29 151.16 145.05 151.24 145.92 C 151.31 146.78 152.08 147.42 152.94 147.35 Z M 153.98 147.24 L 155.00 147.13 C 155.86 147.05 156.48 146.28 156.39 145.43 C 156.30 144.57 155.54 143.95 154.68 144.04 L 153.66 144.14 C 152.81 144.23 152.19 144.99 152.27 145.85 C 152.36 146.70 153.13 147.33 153.98 147.24 Z M 155.01 147.12 L 156.01 147.01 C 156.85 146.91 157.46 146.15 157.37 145.30 C 157.28 144.46 156.51 143.85 155.67 143.94 L 154.67 144.05 C 153.82 144.15 153.21 144.91 153.31 145.76 C 153.40 146.60 154.16 147.21 155.01 147.12 Z M 156.01 146.99 L 157.02 146.88 C 157.86 146.78 158.46 146.02 158.36 145.18 C 158.27 144.35 157.51 143.74 156.67 143.84 L 155.66 143.96 C 154.83 144.05 154.22 144.81 154.32 145.65 C 154.42 146.49 155.17 147.09 156.01 146.99 Z M 157.02 146.86 L 157.98 146.75 C 158.81 146.66 159.41 145.90 159.31 145.07 C 159.22 144.24 158.47 143.65 157.63 143.74 L 156.67 143.85 C 155.84 143.95 155.24 144.70 155.34 145.53 C 155.44 146.36 156.19 146.96 157.02 146.86 Z M 157.98 146.74 L 158.97 146.63 C 159.79 146.54 160.38 145.79 160.29 144.97 C 160.20 144.14 159.45 143.55 158.63 143.64 L 157.64 143.75 C 156.81 143.85 156.22 144.59 156.31 145.42 C 156.41 146.24 157.15 146.83 157.98 146.74 Z M 158.96 146.62 L 159.99 146.51 C 160.81 146.42 161.40 145.68 161.31 144.86 C 161.22 144.04 160.49 143.45 159.67 143.54 L 158.64 143.65 C 157.82 143.74 157.23 144.48 157.31 145.30 C 157.40 146.12 158.14 146.71 158.96 146.62 Z M 159.98 146.50 L 161.02 146.39 C 161.83 146.31 162.42 145.58 162.34 144.76 C 162.25 143.95 161.52 143.36 160.71 143.44 L 159.67 143.55 C 158.86 143.63 158.27 144.36 158.35 145.18 C 158.44 145.99 159.17 146.58 159.98 146.50 Z M 161.01 146.38 L 161.97 146.29 C 162.77 146.21 163.37 145.49 163.29 144.68 C 163.21 143.87 162.49 143.28 161.68 143.36 L 160.72 143.45 C 159.91 143.53 159.32 144.25 159.40 145.06 C 159.48 145.87 160.20 146.46 161.01 146.38 Z M 161.95 146.28 L 163.03 146.18 C 163.84 146.11 164.43 145.40 164.36 144.60 C 164.29 143.79 163.58 143.20 162.78 143.27 L 161.69 143.37 C 160.89 143.44 160.29 144.15 160.37 144.95 C 160.44 145.75 161.15 146.35 161.95 146.28 Z M 162.99 146.17 L 163.93 146.11 C 164.73 146.06 165.33 145.38 165.29 144.58 C 165.24 143.78 164.55 143.18 163.75 143.22 L 162.82 143.28 C 162.02 143.33 161.41 144.02 161.46 144.81 C 161.51 145.61 162.19 146.22 162.99 146.17 Z M 163.86 146.10 L 164.79 146.09 C 165.58 146.09 166.22 145.44 166.21 144.65 C 166.20 143.85 165.55 143.22 164.76 143.22 L 163.83 143.23 C 163.04 143.24 162.40 143.89 162.41 144.68 C 162.41 145.47 163.06 146.11 163.86 146.10 Z M 164.73 146.09 L 165.73 146.12 C 166.52 146.14 167.18 145.52 167.20 144.73 C 167.23 143.94 166.61 143.29 165.82 143.26 L 164.82 143.23 C 164.03 143.21 163.37 143.83 163.35 144.62 C 163.32 145.40 163.94 146.06 164.73 146.09 Z M 165.72 146.12 L 165.92 146.12 C 166.71 146.16 167.37 145.54 167.40 144.76 C 167.44 143.97 166.82 143.30 166.04 143.27 L 165.83 143.26 C 165.04 143.23 164.38 143.84 164.35 144.63 C 164.32 145.42 164.93 146.08 165.72 146.12 Z"
      fill="black"
      fill-rule="nonzero" /><path d="M 160.06 145.39 L 159.23 145.70 C 158.48 145.98 158.11 146.82 158.39 147.56 C 158.67 148.30 159.51 148.68 160.25 148.40 L 161.08 148.08 C 161.83 147.80 162.20 146.97 161.92 146.22 C 161.64 145.48 160.81 145.10 160.06 145.39 Z M 159.19 145.71 L 158.18 146.12 C 157.44 146.42 157.08 147.27 157.39 148.01 C 157.69 148.75 158.54 149.11 159.28 148.80 L 160.29 148.39 C 161.03 148.09 161.38 147.24 161.08 146.50 C 160.78 145.76 159.93 145.40 159.19 145.71 Z M 158.15 146.12 L 157.24 146.51 C 156.50 146.84 156.16 147.70 156.48 148.44 C 156.80 149.18 157.66 149.52 158.40 149.20 L 159.31 148.80 C 160.05 148.48 160.39 147.62 160.07 146.88 C 159.75 146.14 158.89 145.80 158.15 146.12 Z M 157.20 146.51 L 156.26 146.94 C 155.52 147.28 155.19 148.16 155.53 148.90 C 155.87 149.65 156.74 149.97 157.49 149.63 L 158.43 149.20 C 159.18 148.86 159.51 147.98 159.17 147.24 C 158.83 146.50 157.95 146.17 157.20 146.51 Z M 156.21 146.94 L 155.27 147.41 C 154.53 147.77 154.22 148.67 154.59 149.42 C 154.96 150.16 155.86 150.46 156.60 150.10 L 157.54 149.63 C 158.28 149.26 158.58 148.37 158.22 147.62 C 157.85 146.88 156.95 146.58 156.21 146.94 Z M 155.14 147.46 L 154.30 147.97 C 153.58 148.41 153.36 149.35 153.80 150.07 C 154.24 150.78 155.18 151.00 155.89 150.56 L 156.73 150.05 C 157.45 149.61 157.67 148.67 157.23 147.95 C 156.79 147.24 155.85 147.02 155.14 147.46 Z M 154.05 148.13 L 153.37 148.75 C 152.74 149.33 152.70 150.31 153.28 150.93 C 153.85 151.56 154.83 151.60 155.45 151.03 L 156.14 150.41 C 156.76 149.83 156.81 148.85 156.23 148.23 C 155.66 147.60 154.68 147.56 154.05 148.13 Z M 153.18 148.95 L 152.59 149.73 C 152.06 150.41 152.19 151.38 152.87 151.90 C 153.55 152.42 154.52 152.30 155.05 151.62 L 155.64 150.84 C 156.17 150.16 156.04 149.18 155.36 148.66 C 154.68 148.14 153.71 148.27 153.18 148.95 Z M 152.50 149.85 L 151.94 150.74 C 151.49 151.47 151.72 152.43 152.44 152.88 C 153.17 153.33 154.13 153.11 154.58 152.38 L 155.14 151.49 C 155.59 150.76 155.36 149.80 154.63 149.35 C 153.91 148.90 152.95 149.12 152.50 149.85 Z M 151.90 150.81 L 151.41 151.71 C 150.99 152.46 151.26 153.41 152.02 153.82 C 152.77 154.24 153.72 153.96 154.13 153.21 L 154.63 152.31 C 155.04 151.56 154.77 150.61 154.01 150.20 C 153.26 149.78 152.32 150.06 151.90 150.81 Z M 151.38 151.75 L 150.94 152.62 C 150.55 153.39 150.85 154.33 151.61 154.72 C 152.38 155.11 153.32 154.80 153.71 154.04 L 154.15 153.17 C 154.54 152.40 154.24 151.46 153.48 151.07 C 152.71 150.68 151.77 150.99 151.38 151.75 Z M 150.92 152.66 L 150.48 153.57 C 150.11 154.34 150.44 155.27 151.22 155.64 C 151.99 156.01 152.92 155.69 153.29 154.91 L 153.73 154.00 C 154.10 153.23 153.77 152.30 152.99 151.93 C 152.22 151.56 151.29 151.88 150.92 152.66 Z M 150.46 153.62 L 150.07 154.52 C 149.73 155.30 150.09 156.22 150.87 156.57 C 151.66 156.91 152.58 156.55 152.92 155.76 L 153.31 154.86 C 153.66 154.07 153.30 153.15 152.51 152.81 C 151.72 152.47 150.81 152.83 150.46 153.62 Z M 150.03 154.63 L 149.66 155.68 C 149.38 156.49 149.80 157.38 150.61 157.66 C 151.42 157.94 152.31 157.52 152.59 156.71 L 152.96 155.65 C 153.24 154.84 152.82 153.96 152.01 153.67 C 151.20 153.39 150.31 153.82 150.03 154.63 Z M 149.59 156.39 L 149.69 157.13 C 149.79 157.98 150.56 158.58 151.41 158.47 C 152.25 158.37 152.86 157.60 152.75 156.75 L 152.66 156.01 C 152.55 155.16 151.78 154.56 150.94 154.66 C 150.09 154.77 149.49 155.54 149.59 156.39 Z M 150.93 158.45 L 151.70 158.60 C 152.54 158.76 153.34 158.21 153.50 157.38 C 153.66 156.54 153.11 155.73 152.28 155.58 L 151.50 155.43 C 150.67 155.27 149.86 155.82 149.71 156.65 C 149.55 157.49 150.10 158.30 150.93 158.45 Z M 152.27 158.60 L 153.48 158.38 C 154.31 158.22 154.87 157.42 154.71 156.59 C 154.56 155.75 153.76 155.20 152.92 155.35 L 151.71 155.58 C 150.88 155.73 150.32 156.53 150.48 157.37 C 150.63 158.20 151.43 158.76 152.27 158.60 Z M 153.60 158.35 L 154.55 158.09 C 155.37 157.87 155.86 157.03 155.64 156.21 C 155.41 155.39 154.57 154.91 153.75 155.13 L 152.80 155.38 C 151.98 155.60 151.50 156.45 151.72 157.26 C 151.94 158.08 152.78 158.57 153.60 158.35 Z M 154.59 158.07 L 155.59 157.78 C 156.40 157.54 156.86 156.69 156.62 155.88 C 156.38 155.07 155.53 154.61 154.73 154.85 L 153.72 155.14 C 152.91 155.38 152.45 156.23 152.69 157.04 C 152.93 157.85 153.78 158.31 154.59 158.07 Z M 155.60 157.77 L 156.56 157.48 C 157.36 157.23 157.81 156.38 157.57 155.58 C 157.33 154.78 156.48 154.32 155.68 154.57 L 154.72 154.86 C 153.91 155.10 153.46 155.95 153.70 156.75 C 153.95 157.56 154.80 158.01 155.60 157.77 Z M 156.54 157.48 L 157.61 157.17 C 158.41 156.93 158.87 156.09 158.64 155.29 C 158.41 154.49 157.57 154.02 156.77 154.26 L 155.69 154.57 C 154.89 154.80 154.43 155.64 154.66 156.44 C 154.89 157.25 155.73 157.71 156.54 157.48 Z M 157.57 157.17 L 158.50 156.93 C 159.30 156.72 159.78 155.89 159.57 155.09 C 159.36 154.28 158.54 153.80 157.73 154.01 L 156.80 154.25 C 156.00 154.46 155.52 155.29 155.73 156.09 C 155.94 156.90 156.76 157.38 157.57 157.17 Z M 158.45 156.93 L 159.36 156.72 C 160.16 156.54 160.67 155.73 160.48 154.92 C 160.29 154.11 159.49 153.61 158.68 153.80 L 157.78 154.00 C 156.97 154.19 156.46 155.00 156.65 155.81 C 156.84 156.62 157.64 157.12 158.45 156.93 Z M 159.31 156.73 L 160.30 156.54 C 161.11 156.38 161.64 155.59 161.48 154.78 C 161.32 153.96 160.53 153.44 159.72 153.59 L 158.73 153.79 C 157.92 153.95 157.39 154.74 157.55 155.55 C 157.71 156.36 158.49 156.89 159.31 156.73 Z M 160.21 156.55 L 161.18 156.42 C 161.99 156.31 162.57 155.55 162.46 154.74 C 162.35 153.92 161.59 153.34 160.78 153.45 L 159.81 153.58 C 158.99 153.69 158.42 154.45 158.53 155.26 C 158.64 156.08 159.39 156.66 160.21 156.55 Z M 161.03 156.42 L 162.02 156.39 C 162.84 156.35 163.48 155.66 163.45 154.84 C 163.42 154.02 162.72 153.38 161.90 153.41 L 160.92 153.45 C 160.09 153.48 159.45 154.17 159.49 154.99 C 159.52 155.82 160.21 156.46 161.03 156.42 Z M 161.86 156.38 L 162.89 156.45 C 163.71 156.51 164.42 155.88 164.47 155.06 C 164.53 154.24 163.90 153.53 163.08 153.48 L 162.06 153.41 C 161.24 153.35 160.53 153.98 160.47 154.80 C 160.42 155.62 161.04 156.33 161.86 156.38 Z M 162.63 156.42 L 163.61 156.66 C 164.41 156.85 165.22 156.35 165.42 155.55 C 165.61 154.74 165.11 153.94 164.31 153.74 L 163.34 153.51 C 162.53 153.31 161.72 153.81 161.53 154.61 C 161.33 155.42 161.83 156.23 162.63 156.42 Z M 163.06 156.41 L 163.83 156.98 C 164.50 157.47 165.44 157.33 165.94 156.66 C 166.43 155.99 166.29 155.04 165.62 154.55 L 164.85 153.98 C 164.18 153.49 163.24 153.63 162.74 154.30 C 162.25 154.97 162.39 155.92 163.06 156.41 Z M 163.38 156.47 L 163.84 157.36 C 164.23 158.10 165.15 158.39 165.89 158.00 C 166.64 157.61 166.92 156.69 166.53 155.95 L 166.07 155.06 C 165.68 154.31 164.76 154.03 164.02 154.42 C 163.27 154.81 162.99 155.72 163.38 156.47 Z M 163.72 157.05 L 163.97 157.96 C 164.19 158.77 165.02 159.24 165.83 159.02 C 166.65 158.80 167.12 157.97 166.90 157.16 L 166.66 156.25 C 166.44 155.44 165.60 154.97 164.79 155.19 C 163.98 155.41 163.50 156.24 163.72 157.05 Z M 163.93 157.78 L 164.09 158.83 C 164.21 159.66 164.98 160.23 165.81 160.11 C 166.64 159.99 167.22 159.21 167.09 158.38 L 166.94 157.33 C 166.82 156.50 166.04 155.93 165.21 156.05 C 164.38 156.17 163.81 156.95 163.93 157.78 Z M 164.07 158.72 L 164.14 159.67 C 164.20 160.51 164.93 161.14 165.77 161.08 C 166.61 161.02 167.24 160.29 167.18 159.45 L 167.11 158.50 C 167.05 157.66 166.32 157.03 165.48 157.09 C 164.64 157.15 164.01 157.88 164.07 158.72 Z M 164.14 159.61 L 164.17 160.62 C 164.19 161.46 164.89 162.13 165.73 162.10 C 166.58 162.08 167.24 161.37 167.21 160.53 L 167.18 159.52 C 167.16 158.68 166.46 158.02 165.61 158.04 C 164.77 158.07 164.11 158.77 164.14 159.61 Z M 164.16 160.58 L 164.17 161.59 C 164.17 162.43 164.86 163.11 165.70 163.11 C 166.54 163.11 167.22 162.42 167.22 161.58 L 167.22 160.57 C 167.21 159.73 166.53 159.05 165.68 159.05 C 164.84 159.06 164.16 159.74 164.16 160.58 Z M 164.17 161.55 L 164.14 162.49 C 164.12 163.34 164.78 164.04 165.63 164.06 C 166.47 164.08 167.17 163.42 167.19 162.57 L 167.22 161.63 C 167.24 160.78 166.58 160.08 165.73 160.06 C 164.89 160.04 164.19 160.70 164.17 161.55 Z M 164.15 162.40 L 164.06 163.41 C 163.99 164.25 164.61 164.99 165.45 165.06 C 166.29 165.14 167.03 164.51 167.10 163.67 L 167.19 162.67 C 167.26 161.83 166.64 161.09 165.80 161.01 C 164.96 160.94 164.22 161.56 164.15 162.40 Z M 164.07 163.29 L 163.90 164.33 C 163.76 165.16 164.32 165.95 165.15 166.09 C 165.99 166.23 166.77 165.67 166.91 164.84 L 167.09 163.79 C 167.23 162.96 166.67 162.17 165.83 162.03 C 165.00 161.89 164.21 162.45 164.07 163.29 Z M 163.92 164.23 L 163.68 165.22 C 163.48 166.05 163.99 166.87 164.81 167.07 C 165.64 167.26 166.46 166.76 166.66 165.93 L 166.90 164.94 C 167.09 164.12 166.58 163.29 165.76 163.09 C 164.94 162.90 164.11 163.41 163.92 164.23 Z M 163.69 165.16 L 163.41 166.15 C 163.18 166.97 163.65 167.82 164.47 168.05 C 165.29 168.28 166.13 167.81 166.37 166.99 L 166.65 166.00 C 166.88 165.18 166.40 164.33 165.59 164.10 C 164.77 163.87 163.92 164.34 163.69 165.16 Z M 163.42 166.11 L 163.13 167.04 C 162.87 167.85 163.32 168.71 164.14 168.97 C 164.95 169.22 165.81 168.77 166.06 167.96 L 166.36 167.03 C 166.61 166.22 166.16 165.36 165.35 165.10 C 164.54 164.85 163.67 165.30 163.42 166.11 Z M 163.13 167.01 L 162.77 168.07 C 162.50 168.88 162.93 169.75 163.74 170.03 C 164.55 170.30 165.42 169.87 165.70 169.06 L 166.06 168.00 C 166.33 167.19 165.90 166.31 165.09 166.04 C 164.28 165.77 163.41 166.20 163.13 167.01 Z M 162.79 168.01 L 162.44 168.92 C 162.14 169.72 162.54 170.62 163.34 170.92 C 164.14 171.22 165.04 170.82 165.34 170.02 L 165.68 169.11 C 165.99 168.31 165.58 167.42 164.79 167.12 C 163.99 166.81 163.09 167.21 162.79 168.01 Z M 162.48 168.83 L 162.10 169.66 C 161.74 170.44 162.09 171.36 162.87 171.72 C 163.65 172.08 164.57 171.73 164.93 170.95 L 165.31 170.12 C 165.66 169.33 165.32 168.41 164.53 168.06 C 163.75 167.70 162.83 168.05 162.48 168.83 Z M 162.18 169.49 L 161.66 170.33 C 161.21 171.07 161.45 172.03 162.18 172.48 C 162.92 172.93 163.88 172.70 164.33 171.96 L 164.85 171.12 C 165.30 170.38 165.07 169.42 164.33 168.97 C 163.59 168.52 162.63 168.75 162.18 169.49 Z M 161.84 170.07 L 161.15 170.82 C 160.56 171.46 160.60 172.47 161.24 173.06 C 161.88 173.65 162.88 173.61 163.47 172.97 L 164.16 172.22 C 164.75 171.58 164.71 170.57 164.07 169.98 C 163.43 169.39 162.43 169.43 161.84 170.07 Z M 161.68 170.42 L 160.83 170.78 C 160.02 171.13 159.64 172.08 159.99 172.89 C 160.34 173.70 161.29 174.08 162.10 173.73 L 162.94 173.37 C 163.76 173.02 164.13 172.07 163.78 171.26 C 163.43 170.45 162.49 170.07 161.68 170.42 Z M 161.96 170.72 L 161.05 170.43 C 160.20 170.16 159.29 170.63 159.02 171.48 C 158.75 172.33 159.22 173.24 160.07 173.51 L 160.98 173.80 C 161.83 174.07 162.74 173.60 163.01 172.75 C 163.28 171.90 162.81 170.99 161.96 170.72 Z M 161.42 170.60 L 160.55 170.05 C 159.79 169.58 158.80 169.81 158.32 170.56 C 157.85 171.32 158.08 172.32 158.83 172.79 L 159.70 173.34 C 160.46 173.81 161.46 173.59 161.93 172.83 C 162.41 172.07 162.18 171.07 161.42 170.60 Z M 160.61 170.10 L 159.77 169.52 C 159.04 169.01 158.04 169.20 157.53 169.93 C 157.03 170.66 157.21 171.66 157.94 172.17 L 158.77 172.75 C 159.51 173.25 160.51 173.07 161.01 172.34 C 161.52 171.61 161.34 170.61 160.61 170.10 Z M 159.78 169.55 L 158.96 168.96 C 158.24 168.45 157.25 168.61 156.74 169.33 C 156.22 170.05 156.39 171.04 157.11 171.55 L 157.93 172.14 C 158.65 172.65 159.64 172.49 160.15 171.77 C 160.66 171.05 160.50 170.06 159.78 169.55 Z M 158.94 168.98 L 158.13 168.40 C 157.43 167.90 156.45 168.06 155.94 168.77 C 155.44 169.47 155.61 170.45 156.31 170.95 L 157.12 171.53 C 157.83 172.03 158.81 171.87 159.31 171.16 C 159.81 170.46 159.65 169.48 158.94 168.98 Z M 158.11 168.41 L 157.29 167.84 C 156.59 167.36 155.63 167.53 155.14 168.22 C 154.66 168.92 154.83 169.88 155.52 170.37 L 156.34 170.94 C 157.04 171.43 158.00 171.26 158.49 170.56 C 158.97 169.86 158.80 168.90 158.11 168.41 Z M 157.26 167.84 L 156.44 167.29 C 155.74 166.81 154.79 166.99 154.32 167.69 C 153.84 168.39 154.03 169.34 154.73 169.81 L 155.55 170.37 C 156.25 170.85 157.20 170.66 157.67 169.96 C 158.14 169.27 157.96 168.32 157.26 167.84 Z M 156.40 167.28 L 155.55 166.72 C 154.84 166.27 153.91 166.47 153.45 167.17 C 153.00 167.87 153.20 168.81 153.90 169.26 L 154.76 169.82 C 155.46 170.27 156.40 170.07 156.85 169.37 C 157.31 168.67 157.11 167.73 156.40 167.28 Z M 155.50 166.71 L 154.62 166.19 C 153.92 165.76 153.00 165.99 152.57 166.69 C 152.14 167.40 152.37 168.32 153.08 168.74 L 153.95 169.27 C 154.66 169.70 155.58 169.47 156.00 168.77 C 156.43 168.06 156.20 167.14 155.50 166.71 Z M 154.55 166.17 L 153.69 165.71 C 152.97 165.32 152.08 165.59 151.69 166.31 C 151.31 167.02 151.58 167.92 152.29 168.30 L 153.15 168.76 C 153.87 169.15 154.76 168.88 155.15 168.16 C 155.53 167.45 155.26 166.55 154.55 166.17 Z M 153.58 165.68 L 152.65 165.26 C 151.91 164.94 151.05 165.27 150.73 166.00 C 150.40 166.73 150.73 167.59 151.47 167.92 L 152.40 168.33 C 153.14 168.66 153.99 168.33 154.32 167.59 C 154.64 166.86 154.31 166.00 153.58 165.68 Z M 152.57 165.25 L 151.79 164.95 C 151.05 164.66 150.22 165.03 149.94 165.77 C 149.65 166.51 150.02 167.34 150.76 167.63 L 151.54 167.93 C 152.28 168.21 153.11 167.85 153.40 167.11 C 153.68 166.37 153.31 165.53 152.57 165.25 Z"
      fill="black"
      fill-rule="nonzero" /></svg>