<svg xmlns="http://www.w3.org/2000/svg" width="300" height="300" viewBox="0 0 300 300">
<path d="M 136.44 135.38 L 135.40 135.90 C 134.67 136.27 134.37 137.17 134.74 137.90 C 135.11 138.63 136.01 138.93 136.74 138.56 L 137.78 138.03 C 138.52 137.66 138.81 136.77 138.44 136.03 C 138.07 135.30 137.17 135.00 136.44 135.38 Z M 135.08 138.39 L 135.36 138.63 C 136.00 139.17 136.96 139.09 137.51 138.45 C 138.05 137.81 137.98 136.85 137.33 136.30 L 137.06 136.07 C 136.42 135.52 135.46 135.60 134.91 136.24 C 134.36 136.88 134.44 137.85 135.08 138.39 Z M 136.39 139.00 L 137.62 138.97 C 138.47 138.94 139.14 138.23 139.11 137.38 C 139.08 136.53 138.37 135.86 137.52 135.88 L 136.30 135.92 C 135.45 135.95 134.78 136.66 134.80 137.51 C 134.83 138.36 135.54 139.03 136.39 139.00 Z M 137.76 138.96 L 138.63 138.85 C 139.48 138.75 140.09 137.98 139.98 137.13 C 139.88 136.28 139.11 135.68 138.26 135.78 L 137.38 135.89 C 136.53 135.99 135.93 136.76 136.03 137.61 C 136.14 138.46 136.91 139.06 137.76 138.96 Z M 138.69 138.85 L 139.69 138.69 C 140.54 138.56 141.12 137.76 140.98 136.92 C 140.85 136.07 140.06 135.49 139.21 135.63 L 138.20 135.79 C 137.36 135.92 136.78 136.71 136.91 137.56 C 137.05 138.40 137.84 138.98 138.69 138.85 Z M 139.70 138.69 L 140.78 138.52 C 141.63 138.38 142.20 137.58 142.06 136.73 C 141.93 135.89 141.13 135.31 140.28 135.45 L 139.20 135.63 C 138.36 135.76 137.78 136.56 137.92 137.41 C 138.06 138.26 138.86 138.83 139.70 138.69 Z M 140.78 138.52 L 141.80 138.36 C 142.65 138.22 143.23 137.42 143.09 136.58 C 142.96 135.73 142.16 135.15 141.31 135.28 L 140.29 135.45 C 139.44 135.58 138.86 136.38 139.00 137.23 C 139.13 138.08 139.93 138.65 140.78 138.52 Z M 141.80 138.36 L 142.83 138.19 C 143.68 138.06 144.26 137.26 144.13 136.41 C 144.00 135.57 143.20 134.99 142.35 135.12 L 141.32 135.28 C 140.47 135.42 139.89 136.21 140.02 137.06 C 140.16 137.91 140.95 138.49 141.80 138.36 Z M 142.83 138.20 L 143.76 138.05 C 144.61 137.92 145.19 137.12 145.06 136.27 C 144.92 135.42 144.12 134.84 143.27 134.97 L 142.35 135.12 C 141.50 135.25 140.92 136.05 141.05 136.90 C 141.19 137.75 141.98 138.33 142.83 138.20 Z M 143.76 138.05 L 144.92 137.87 C 145.77 137.73 146.34 136.93 146.21 136.08 C 146.07 135.23 145.27 134.65 144.42 134.79 L 143.27 134.97 C 142.42 135.11 141.84 135.91 141.98 136.76 C 142.11 137.61 142.91 138.19 143.76 138.05 Z M 144.91 137.86 L 145.74 137.73 C 146.59 137.60 147.17 136.81 147.03 135.96 C 146.90 135.11 146.10 134.53 145.26 134.66 L 144.43 134.79 C 143.58 134.92 143.00 135.72 143.13 136.57 C 143.27 137.42 144.06 138.00 144.91 137.86 Z M 145.72 137.73 L 146.68 137.60 C 147.53 137.47 148.12 136.69 148.00 135.84 C 147.88 134.99 147.09 134.40 146.24 134.52 L 145.28 134.66 C 144.43 134.78 143.84 135.57 143.96 136.42 C 144.08 137.26 144.87 137.85 145.72 137.73 Z M 146.69 137.59 L 147.68 137.45 C 148.53 137.32 149.11 136.54 148.99 135.69 C 148.87 134.84 148.08 134.26 147.23 134.38 L 146.24 134.53 C 145.39 134.65 144.81 135.44 144.93 136.28 C 145.05 137.13 145.84 137.72 146.69 137.59 Z M 147.69 137.44 L 148.68 137.29 C 149.53 137.16 150.11 136.37 149.98 135.53 C 149.85 134.68 149.06 134.10 148.21 134.23 L 147.22 134.39 C 146.38 134.52 145.80 135.31 145.93 136.15 C 146.06 136.99 146.85 137.57 147.69 137.44 Z M 148.66 137.29 L 149.64 137.15 C 150.49 137.04 151.08 136.25 150.96 135.41 C 150.84 134.56 150.06 133.97 149.21 134.09 L 148.23 134.23 C 147.39 134.35 146.80 135.13 146.92 135.98 C 147.04 136.82 147.82 137.41 148.66 137.29 Z M 149.63 137.15 L 150.63 137.02 C 151.48 136.91 152.07 136.13 151.96 135.29 C 151.85 134.44 151.07 133.85 150.22 133.96 L 149.22 134.10 C 148.38 134.21 147.79 134.98 147.90 135.83 C 148.01 136.67 148.79 137.27 149.63 137.15 Z M 150.64 137.01 L 151.64 136.87 C 152.48 136.75 153.07 135.98 152.95 135.14 C 152.83 134.29 152.05 133.71 151.21 133.83 L 150.22 133.97 C 149.37 134.09 148.79 134.86 148.91 135.70 C 149.03 136.54 149.80 137.13 150.64 137.01 Z M 151.64 136.86 L 152.54 136.74 C 153.38 136.62 153.96 135.85 153.85 135.01 C 153.73 134.17 152.96 133.59 152.12 133.71 L 151.22 133.83 C 150.38 133.95 149.80 134.73 149.91 135.56 C 150.03 136.40 150.80 136.98 151.64 136.86 Z M 152.53 136.73 L 153.37 136.63 C 154.21 136.52 154.80 135.75 154.69 134.92 C 154.58 134.08 153.82 133.49 152.98 133.60 L 152.14 133.71 C 151.30 133.82 150.71 134.58 150.82 135.42 C 150.93 136.25 151.69 136.84 152.53 136.73 Z M 153.36 136.62 L 154.56 136.48 C 155.39 136.38 155.99 135.63 155.89 134.79 C 155.79 133.96 155.04 133.36 154.20 133.46 L 153.00 133.60 C 152.17 133.70 151.57 134.46 151.67 135.29 C 151.77 136.13 152.52 136.72 153.36 136.62 Z M 154.55 136.48 L 155.49 136.37 C 156.33 136.28 156.92 135.52 156.83 134.69 C 156.73 133.86 155.98 133.26 155.15 133.36 L 154.21 133.46 C 153.38 133.56 152.78 134.31 152.87 135.14 C 152.97 135.97 153.72 136.57 154.55 136.48 Z M 155.49 136.37 L 156.54 136.25 C 157.37 136.16 157.97 135.41 157.88 134.58 C 157.78 133.75 157.04 133.15 156.20 133.24 L 155.15 133.36 C 154.32 133.45 153.72 134.20 153.82 135.03 C 153.91 135.86 154.66 136.46 155.49 136.37 Z M 156.53 136.25 L 157.59 136.14 C 158.42 136.05 159.02 135.30 158.93 134.47 C 158.84 133.64 158.09 133.04 157.26 133.13 L 156.21 133.24 C 155.38 133.33 154.78 134.08 154.87 134.91 C 154.96 135.74 155.70 136.34 156.53 136.25 Z M 157.58 136.13 L 158.53 136.04 C 159.36 135.95 159.96 135.21 159.88 134.38 C 159.79 133.55 159.05 132.95 158.22 133.03 L 157.27 133.13 C 156.44 133.22 155.84 133.96 155.92 134.79 C 156.01 135.62 156.75 136.22 157.58 136.13 Z M 158.52 136.03 L 159.94 135.89 C 160.77 135.82 161.37 135.09 161.30 134.26 C 161.22 133.44 160.49 132.83 159.67 132.91 L 158.24 133.04 C 157.41 133.12 156.81 133.85 156.88 134.67 C 156.96 135.50 157.69 136.10 158.52 136.03 Z M 159.86 135.88 L 160.22 135.87 C 161.04 135.84 161.67 135.15 161.65 134.34 C 161.62 133.52 160.93 132.88 160.12 132.91 L 159.75 132.92 C 158.94 132.95 158.30 133.64 158.33 134.45 C 158.36 135.27 159.04 135.91 159.86 135.88 Z M 159.78 132.97 L 158.81 133.24 C 158.03 133.46 157.57 134.27 157.79 135.05 C 158.00 135.83 158.81 136.29 159.59 136.07 L 160.56 135.80 C 161.34 135.59 161.80 134.78 161.58 134.00 C 161.37 133.21 160.56 132.76 159.78 132.97 Z M 158.58 133.33 L 157.64 133.78 C 156.91 134.12 156.60 134.99 156.94 135.72 C 157.28 136.45 158.15 136.76 158.88 136.42 L 159.82 135.98 C 160.55 135.64 160.87 134.77 160.52 134.04 C 160.18 133.31 159.31 132.99 158.58 133.33 Z M 157.53 133.85 L 156.66 134.36 C 155.97 134.77 155.74 135.66 156.15 136.35 C 156.56 137.04 157.45 137.26 158.13 136.86 L 159.00 136.34 C 159.69 135.94 159.92 135.05 159.51 134.36 C 159.10 133.67 158.21 133.44 157.53 133.85 Z M 156.62 134.40 L 155.72 134.98 C 155.05 135.41 154.85 136.29 155.28 136.96 C 155.71 137.63 156.60 137.83 157.26 137.40 L 158.17 136.82 C 158.84 136.39 159.03 135.50 158.61 134.84 C 158.18 134.17 157.29 133.97 156.62 134.40 Z M 155.71 134.99 L 155.64 135.04 C 154.98 135.46 154.79 136.35 155.22 137.01 C 155.65 137.68 156.53 137.86 157.20 137.44 L 157.27 137.39 C 157.93 136.96 158.12 136.07 157.69 135.41 C 157.26 134.75 156.38 134.56 155.71 134.99 Z"
      fill="black"
      fill-rule="nonzero" /><path d="M 137.52 146.35 L 137.53 147.30 C 137.53 148.14 138.21 148.81 139.04 148.80 C 139.88 148.80 140.55 148.12 140.54 147.28 L 140.53 146.33 C 140.53 145.49 139.85 144.82 139.02 144.83 C 138.18 144.83 137.51 145.51 137.52 146.35 Z M 137.52 147.35 L 137.56 148.38 C 137.60 149.21 138.30 149.86 139.13 149.83 C 139.97 149.79 140.62 149.09 140.58 148.26 L 140.54 147.23 C 140.51 146.40 139.81 145.75 138.97 145.78 C 138.14 145.82 137.49 146.52 137.52 147.35 Z M 137.56 148.43 L 137.64 149.43 C 137.70 150.26 138.43 150.88 139.26 150.82 C 140.09 150.76 140.72 150.03 140.66 149.20 L 140.58 148.20 C 140.52 147.37 139.79 146.74 138.96 146.81 C 138.13 146.87 137.50 147.59 137.56 148.43 Z M 137.64 149.46 L 137.74 150.47 C 137.83 151.30 138.57 151.91 139.40 151.83 C 140.23 151.74 140.84 151.00 140.75 150.17 L 140.65 149.16 C 140.57 148.33 139.83 147.73 139.00 147.81 C 138.17 147.89 137.56 148.63 137.64 149.46 Z M 137.75 150.50 L 137.87 151.46 C 137.96 152.29 138.71 152.88 139.54 152.78 C 140.36 152.68 140.95 151.94 140.86 151.11 L 140.74 150.15 C 140.65 149.32 139.90 148.73 139.07 148.83 C 138.25 148.92 137.66 149.67 137.75 150.50 Z M 137.88 151.46 L 138.00 152.49 C 138.09 153.31 138.84 153.90 139.66 153.80 C 140.48 153.70 141.06 152.96 140.97 152.14 L 140.85 151.11 C 140.75 150.29 140.01 149.70 139.19 149.80 C 138.37 149.90 137.78 150.64 137.88 151.46 Z M 138.00 152.47 L 138.11 153.49 C 138.20 154.31 138.94 154.90 139.75 154.81 C 140.57 154.72 141.16 153.99 141.07 153.17 L 140.96 152.15 C 140.87 151.34 140.14 150.75 139.32 150.84 C 138.51 150.92 137.92 151.66 138.00 152.47 Z M 138.12 153.48 L 138.23 154.49 C 138.31 155.30 139.04 155.89 139.85 155.80 C 140.66 155.72 141.25 154.99 141.17 154.18 L 141.06 153.18 C 140.98 152.37 140.25 151.78 139.44 151.86 C 138.63 151.95 138.04 152.67 138.12 153.48 Z M 138.24 154.50 L 138.35 155.51 C 138.44 156.31 139.17 156.89 139.97 156.80 C 140.78 156.71 141.36 155.98 141.27 155.18 L 141.15 154.17 C 141.06 153.37 140.34 152.79 139.53 152.88 C 138.73 152.97 138.15 153.69 138.24 154.50 Z M 138.38 155.59 L 138.54 156.53 C 138.68 157.32 139.43 157.85 140.22 157.72 C 141.01 157.58 141.54 156.83 141.40 156.04 L 141.24 155.10 C 141.11 154.31 140.36 153.78 139.57 153.91 C 138.78 154.05 138.25 154.80 138.38 155.59 Z M 138.59 156.67 L 138.84 157.59 C 139.05 158.35 139.85 158.80 140.61 158.59 C 141.38 158.38 141.82 157.59 141.61 156.82 L 141.36 155.90 C 141.15 155.14 140.35 154.69 139.59 154.90 C 138.82 155.11 138.37 155.91 138.59 156.67 Z M 138.87 157.66 L 139.20 158.63 C 139.45 159.38 140.26 159.79 141.01 159.53 C 141.76 159.28 142.16 158.47 141.91 157.72 L 141.58 156.75 C 141.33 156.00 140.52 155.59 139.77 155.85 C 139.02 156.10 138.62 156.91 138.87 157.66 Z M 139.21 158.65 L 139.32 158.97 C 139.58 159.71 140.40 160.10 141.14 159.84 C 141.89 159.57 142.28 158.76 142.01 158.01 L 141.90 157.70 C 141.64 156.96 140.82 156.57 140.08 156.83 C 139.34 157.09 138.95 157.91 139.21 158.65 Z"
      fill="black"
      fill-rule="nonzero" /><path d="M 143.30 150.17 L 143.39 149.17 C 143.46 148.37 142.87 147.66 142.07 147.60 C 141.27 147.53 140.57 148.12 140.50 148.91 L 140.41 149.92 C 140.34 150.72 140.93 151.42 141.73 151.49 C 142.53 151.56 143.23 150.97 143.30 150.17 Z M 143.14 149.89 L 143.65 149.17 C 144.12 148.51 143.96 147.59 143.30 147.13 C 142.64 146.66 141.73 146.81 141.26 147.47 L 140.75 148.19 C 140.28 148.85 140.43 149.77 141.09 150.23 C 141.75 150.70 142.67 150.55 143.14 149.89 Z M 143.04 149.67 L 143.98 149.26 C 144.73 148.94 145.07 148.07 144.75 147.33 C 144.42 146.58 143.56 146.24 142.82 146.56 L 141.87 146.97 C 141.13 147.29 140.78 148.16 141.11 148.90 C 141.43 149.65 142.29 149.99 143.04 149.67 Z M 143.61 149.37 L 144.63 149.22 C 145.43 149.10 145.99 148.35 145.87 147.55 C 145.75 146.75 145.01 146.19 144.21 146.31 L 143.19 146.46 C 142.38 146.57 141.83 147.32 141.94 148.12 C 142.06 148.93 142.81 149.48 143.61 149.37 Z M 144.44 149.23 L 145.46 149.22 C 146.28 149.20 146.92 148.53 146.91 147.72 C 146.90 146.91 146.23 146.26 145.42 146.27 L 144.39 146.29 C 143.58 146.31 142.93 146.97 142.95 147.79 C 142.96 148.60 143.63 149.25 144.44 149.23 Z M 145.33 149.22 L 146.41 149.30 C 147.22 149.35 147.93 148.74 147.99 147.93 C 148.05 147.12 147.43 146.41 146.62 146.35 L 145.55 146.27 C 144.73 146.21 144.03 146.83 143.97 147.64 C 143.91 148.45 144.52 149.16 145.33 149.22 Z M 146.07 149.25 L 146.97 149.52 C 147.76 149.77 148.59 149.33 148.84 148.54 C 149.08 147.76 148.64 146.92 147.85 146.68 L 146.96 146.40 C 146.17 146.16 145.34 146.60 145.09 147.38 C 144.85 148.17 145.29 149.00 146.07 149.25 Z M 146.15 148.91 L 146.63 149.66 C 147.08 150.36 148.01 150.57 148.71 150.12 C 149.40 149.67 149.61 148.74 149.16 148.04 L 148.68 147.29 C 148.23 146.59 147.30 146.39 146.60 146.83 C 145.90 147.28 145.70 148.21 146.15 148.91 Z M 146.39 148.93 L 146.44 149.93 C 146.48 150.77 147.19 151.41 148.03 151.36 C 148.86 151.32 149.50 150.61 149.46 149.78 L 149.40 148.78 C 149.36 147.94 148.65 147.30 147.82 147.35 C 146.98 147.39 146.34 148.10 146.39 148.93 Z M 146.46 149.56 L 146.27 150.53 C 146.10 151.35 146.64 152.15 147.46 152.31 C 148.28 152.48 149.08 151.94 149.24 151.12 L 149.43 150.15 C 149.60 149.33 149.07 148.53 148.24 148.37 C 147.42 148.20 146.62 148.74 146.46 149.56 Z M 146.35 150.24 L 145.98 151.14 C 145.65 151.92 146.02 152.81 146.79 153.13 C 147.57 153.45 148.46 153.09 148.78 152.31 L 149.16 151.41 C 149.48 150.64 149.11 149.75 148.34 149.42 C 147.57 149.10 146.68 149.47 146.35 150.24 Z M 146.05 150.99 L 145.56 151.87 C 145.15 152.60 145.41 153.53 146.14 153.94 C 146.87 154.35 147.80 154.08 148.21 153.35 L 148.70 152.47 C 149.11 151.74 148.85 150.81 148.12 150.40 C 147.39 149.99 146.46 150.25 146.05 150.99 Z M 145.61 151.79 L 145.05 152.66 C 144.60 153.37 144.80 154.31 145.51 154.76 C 146.21 155.21 147.15 155.01 147.60 154.30 L 148.16 153.43 C 148.61 152.72 148.41 151.79 147.70 151.33 C 147.00 150.88 146.06 151.09 145.61 151.79 Z M 145.08 152.62 L 144.51 153.43 C 144.04 154.12 144.20 155.06 144.89 155.54 C 145.58 156.02 146.52 155.85 147.00 155.16 L 147.57 154.35 C 148.05 153.66 147.88 152.72 147.19 152.24 C 146.50 151.76 145.56 151.93 145.08 152.62 Z M 144.54 153.39 L 143.94 154.20 C 143.44 154.87 143.57 155.82 144.25 156.32 C 144.92 156.82 145.86 156.68 146.36 156.01 L 146.97 155.20 C 147.47 154.53 147.33 153.58 146.66 153.08 C 145.99 152.58 145.04 152.72 144.54 153.39 Z M 143.96 154.17 L 143.37 154.92 C 142.85 155.58 142.96 156.53 143.62 157.05 C 144.27 157.57 145.22 157.46 145.74 156.80 L 146.34 156.05 C 146.86 155.39 146.74 154.44 146.09 153.92 C 145.43 153.40 144.48 153.51 143.96 154.17 Z M 143.40 154.89 L 142.76 155.64 C 142.22 156.28 142.31 157.24 142.94 157.77 C 143.58 158.31 144.54 158.23 145.08 157.59 L 145.71 156.84 C 146.25 156.20 146.17 155.24 145.53 154.70 C 144.89 154.17 143.94 154.25 143.40 154.89 Z M 142.79 155.61 L 142.09 156.39 C 141.53 157.01 141.58 157.97 142.20 158.53 C 142.82 159.09 143.78 159.04 144.34 158.41 L 145.05 157.63 C 145.60 157.01 145.55 156.05 144.93 155.49 C 144.31 154.93 143.35 154.98 142.79 155.61 Z M 142.12 156.36 L 141.41 157.10 C 140.83 157.71 140.86 158.67 141.46 159.24 C 142.07 159.82 143.02 159.79 143.60 159.19 L 144.31 158.45 C 144.88 157.84 144.86 156.88 144.26 156.31 C 143.65 155.73 142.69 155.76 142.12 156.36 Z M 141.44 157.08 L 140.71 157.81 C 140.12 158.40 140.12 159.36 140.71 159.95 C 141.30 160.54 142.26 160.53 142.85 159.94 L 143.57 159.21 C 144.16 158.62 144.16 157.67 143.57 157.08 C 142.98 156.49 142.02 156.49 141.44 157.08 Z M 140.74 157.78 L 140.05 158.44 C 139.44 159.02 139.42 159.97 139.99 160.58 C 140.57 161.18 141.52 161.20 142.13 160.63 L 142.82 159.97 C 143.42 159.39 143.44 158.44 142.87 157.83 C 142.29 157.23 141.34 157.21 140.74 157.78 Z M 140.09 158.40 L 139.27 159.12 C 138.65 159.67 138.59 160.62 139.14 161.25 C 139.69 161.87 140.64 161.93 141.26 161.38 L 142.08 160.67 C 142.71 160.12 142.77 159.16 142.22 158.54 C 141.67 157.92 140.72 157.85 140.09 158.40 Z M 139.35 159.07 L 138.61 159.64 C 137.96 160.15 137.84 161.09 138.35 161.75 C 138.86 162.40 139.80 162.52 140.45 162.01 L 141.19 161.44 C 141.84 160.93 141.96 159.99 141.45 159.33 C 140.94 158.68 140.00 158.56 139.35 159.07 Z M 138.72 159.58 L 137.75 160.20 C 137.06 160.65 136.87 161.58 137.32 162.27 C 137.77 162.96 138.69 163.15 139.38 162.70 L 140.35 162.07 C 141.04 161.63 141.23 160.70 140.78 160.01 C 140.33 159.32 139.41 159.13 138.72 159.58 Z M 139.30 160.17 L 138.98 159.99 C 138.27 159.59 137.37 159.84 136.97 160.54 C 136.56 161.25 136.81 162.15 137.52 162.56 L 137.84 162.74 C 138.55 163.14 139.45 162.89 139.85 162.18 C 140.25 161.47 140.00 160.57 139.30 160.17 Z M 139.58 161.86 L 139.94 161.04 C 140.27 160.31 139.94 159.45 139.20 159.12 C 138.47 158.79 137.60 159.13 137.28 159.86 L 136.92 160.68 C 136.59 161.42 136.92 162.28 137.66 162.61 C 138.40 162.93 139.26 162.60 139.58 161.86 Z M 139.87 161.14 L 140.48 160.05 C 140.86 159.35 140.60 158.48 139.91 158.09 C 139.21 157.71 138.34 157.97 137.95 158.66 L 137.35 159.76 C 136.97 160.46 137.22 161.33 137.92 161.71 C 138.62 162.10 139.49 161.84 139.87 161.14 Z"
      fill="black"
      fill-rule="nonzero" /><path d="M 158.27 143.30 L 159.34 142.94 C 160.10 142.69 160.51 141.86 160.26 141.10 C 160.00 140.34 159.18 139.93 158.42 140.19 L 157.35 140.55 C 156.59 140.80 156.18 141.63 156.43 142.39 C 156.69 143.15 157.51 143.56 158.27 143.30 Z M 159.22 143.00 L 160.17 142.78 C 160.97 142.59 161.46 141.80 161.28 141.01 C 161.09 140.21 160.30 139.72 159.51 139.91 L 158.55 140.13 C 157.76 140.31 157.26 141.10 157.45 141.90 C 157.63 142.69 158.42 143.19 159.22 143.00 Z M 159.64 142.83 L 160.51 142.94 C 161.33 143.05 162.08 142.47 162.19 141.65 C 162.30 140.83 161.72 140.08 160.90 139.97 L 160.04 139.86 C 159.22 139.75 158.46 140.33 158.36 141.15 C 158.25 141.97 158.82 142.72 159.64 142.83 Z M 159.50 142.38 L 160.08 143.13 C 160.59 143.80 161.55 143.92 162.21 143.41 C 162.87 142.90 162.99 141.95 162.48 141.29 L 161.90 140.53 C 161.39 139.87 160.44 139.75 159.78 140.26 C 159.12 140.77 158.99 141.72 159.50 142.38 Z M 159.82 142.64 L 160.08 143.54 C 160.32 144.35 161.16 144.81 161.97 144.57 C 162.78 144.34 163.25 143.49 163.01 142.68 L 162.75 141.78 C 162.51 140.97 161.66 140.51 160.86 140.74 C 160.05 140.98 159.58 141.83 159.82 142.64 Z M 160.03 143.34 L 160.19 144.37 C 160.31 145.21 161.10 145.78 161.93 145.65 C 162.77 145.53 163.35 144.74 163.22 143.90 L 163.06 142.88 C 162.93 142.04 162.15 141.46 161.31 141.59 C 160.48 141.72 159.90 142.50 160.03 143.34 Z M 160.17 144.27 L 160.25 145.29 C 160.33 146.14 161.07 146.77 161.92 146.70 C 162.77 146.62 163.39 145.88 163.32 145.03 L 163.24 144.01 C 163.17 143.16 162.42 142.53 161.57 142.60 C 160.73 142.67 160.10 143.42 160.17 144.27 Z M 160.25 145.24 L 160.30 146.27 C 160.34 147.12 161.07 147.77 161.92 147.73 C 162.77 147.68 163.43 146.96 163.38 146.11 L 163.33 145.08 C 163.29 144.23 162.56 143.58 161.71 143.62 C 160.86 143.66 160.20 144.39 160.25 145.24 Z M 160.30 146.24 L 160.33 147.24 C 160.35 148.10 161.07 148.77 161.92 148.74 C 162.77 148.72 163.44 148.00 163.42 147.15 L 163.39 146.14 C 163.36 145.29 162.65 144.62 161.79 144.64 C 160.94 144.67 160.27 145.38 160.30 146.24 Z M 160.33 147.22 L 160.34 148.22 C 160.35 149.08 161.05 149.76 161.90 149.75 C 162.76 149.74 163.44 149.04 163.43 148.18 L 163.42 147.18 C 163.41 146.32 162.71 145.64 161.85 145.65 C 161.00 145.66 160.32 146.36 160.33 147.22 Z M 160.34 148.20 L 160.34 149.15 C 160.34 150.00 161.03 150.69 161.89 150.69 C 162.74 150.69 163.43 150.00 163.43 149.14 L 163.43 148.20 C 163.43 147.35 162.74 146.65 161.88 146.65 C 161.03 146.66 160.34 147.35 160.34 148.20 Z M 160.34 149.15 L 160.34 150.12 C 160.34 150.98 161.03 151.67 161.89 151.67 C 162.74 151.67 163.43 150.98 163.43 150.12 L 163.43 149.15 C 163.43 148.29 162.74 147.60 161.89 147.60 C 161.03 147.60 160.34 148.29 160.34 149.15 Z M 160.34 150.12 L 160.34 151.16 C 160.34 152.01 161.03 152.70 161.89 152.70 C 162.74 152.70 163.43 152.01 163.43 151.16 L 163.43 150.12 C 163.43 149.27 162.74 148.58 161.89 148.58 C 161.03 148.58 160.34 149.27 160.34 150.12 Z M 160.34 151.16 L 160.34 152.14 C 160.34 152.99 161.03 153.69 161.88 153.69 C 162.73 153.69 163.43 153.00 163.43 152.15 L 163.43 151.16 C 163.43 150.31 162.74 149.62 161.89 149.61 C 161.04 149.61 160.34 150.30 160.34 151.16 Z M 160.34 152.12 L 160.33 153.14 C 160.32 153.99 161.00 154.69 161.85 154.70 C 162.71 154.71 163.41 154.03 163.42 153.18 L 163.43 152.16 C 163.44 151.31 162.76 150.61 161.90 150.60 C 161.05 150.59 160.35 151.27 160.34 152.12 Z M 160.33 153.11 L 160.30 154.12 C 160.27 154.97 160.94 155.68 161.80 155.71 C 162.65 155.73 163.36 155.06 163.38 154.21 L 163.41 153.20 C 163.44 152.35 162.77 151.64 161.92 151.62 C 161.07 151.59 160.36 152.26 160.33 153.11 Z M 160.30 154.08 L 160.25 155.08 C 160.20 155.93 160.85 156.66 161.70 156.70 C 162.55 156.75 163.28 156.10 163.33 155.25 L 163.38 154.25 C 163.43 153.40 162.78 152.67 161.93 152.63 C 161.08 152.58 160.35 153.23 160.30 154.08 Z M 160.25 155.04 L 160.17 156.03 C 160.10 156.88 160.73 157.62 161.58 157.69 C 162.42 157.77 163.17 157.13 163.24 156.29 L 163.32 155.29 C 163.40 154.44 162.77 153.70 161.92 153.63 C 161.07 153.56 160.32 154.19 160.25 155.04 Z M 160.17 155.99 L 160.06 156.98 C 159.97 157.82 160.58 158.58 161.42 158.68 C 162.27 158.77 163.03 158.17 163.12 157.32 L 163.24 156.33 C 163.33 155.48 162.72 154.72 161.88 154.63 C 161.03 154.53 160.27 155.14 160.17 155.99 Z M 160.07 156.95 L 159.94 157.95 C 159.83 158.79 160.42 159.56 161.27 159.67 C 162.11 159.78 162.88 159.18 162.99 158.34 L 163.12 157.35 C 163.23 156.50 162.64 155.73 161.79 155.62 C 160.95 155.51 160.17 156.11 160.07 156.95 Z M 159.94 157.94 L 159.80 158.93 C 159.69 159.77 160.28 160.55 161.13 160.66 C 161.97 160.77 162.75 160.18 162.86 159.34 L 162.99 158.35 C 163.11 157.50 162.51 156.73 161.67 156.62 C 160.83 156.50 160.05 157.09 159.94 157.94 Z M 159.80 158.93 L 159.67 159.92 C 159.56 160.76 160.15 161.54 160.99 161.65 C 161.84 161.77 162.61 161.17 162.73 160.33 L 162.86 159.34 C 162.97 158.49 162.38 157.72 161.54 157.61 C 160.69 157.49 159.92 158.08 159.80 158.93 Z M 159.67 159.92 L 159.54 160.92 C 159.43 161.76 160.02 162.54 160.86 162.65 C 161.71 162.76 162.48 162.17 162.59 161.32 L 162.73 160.33 C 162.84 159.48 162.25 158.71 161.40 158.60 C 160.56 158.49 159.78 159.08 159.67 159.92 Z M 159.54 160.92 L 159.41 161.91 C 159.29 162.76 159.89 163.53 160.73 163.64 C 161.57 163.76 162.35 163.16 162.46 162.32 L 162.59 161.32 C 162.71 160.48 162.11 159.71 161.27 159.59 C 160.43 159.48 159.65 160.07 159.54 160.92 Z M 159.41 161.90 L 159.27 162.89 C 159.15 163.73 159.74 164.51 160.58 164.63 C 161.43 164.75 162.20 164.16 162.32 163.32 L 162.46 162.33 C 162.58 161.49 161.99 160.71 161.15 160.59 C 160.30 160.47 159.53 161.06 159.41 161.90 Z M 159.27 162.87 L 159.12 163.86 C 159.00 164.71 159.57 165.49 160.41 165.62 C 161.26 165.75 162.04 165.17 162.17 164.33 L 162.32 163.33 C 162.45 162.49 161.87 161.71 161.03 161.58 C 160.19 161.45 159.40 162.03 159.27 162.87 Z M 159.12 163.85 L 158.97 164.84 C 158.83 165.68 159.41 166.47 160.25 166.60 C 161.09 166.74 161.88 166.16 162.01 165.32 L 162.17 164.34 C 162.30 163.50 161.73 162.71 160.89 162.58 C 160.05 162.44 159.26 163.01 159.12 163.85 Z M 158.97 164.85 L 158.81 165.85 C 158.68 166.69 159.26 167.47 160.10 167.60 C 160.94 167.73 161.73 167.16 161.86 166.32 L 162.01 165.32 C 162.14 164.48 161.56 163.69 160.72 163.56 C 159.88 163.43 159.10 164.01 158.97 164.85 Z M 158.81 165.86 L 158.66 166.88 C 158.54 167.72 159.12 168.50 159.96 168.62 C 160.80 168.75 161.59 168.17 161.71 167.32 L 161.86 166.31 C 161.98 165.46 161.40 164.68 160.56 164.56 C 159.72 164.43 158.93 165.02 158.81 165.86 Z M 158.66 166.87 L 158.52 167.81 C 158.39 168.65 158.96 169.44 159.81 169.57 C 160.65 169.70 161.44 169.12 161.57 168.28 L 161.71 167.33 C 161.84 166.49 161.26 165.70 160.42 165.57 C 159.58 165.45 158.79 166.02 158.66 166.87 Z M 158.52 167.77 L 158.35 168.73 C 158.20 169.57 158.76 170.37 159.60 170.53 C 160.43 170.68 161.24 170.12 161.39 169.28 L 161.56 168.32 C 161.71 167.48 161.15 166.67 160.31 166.52 C 159.47 166.37 158.67 166.93 158.52 167.77 Z M 158.36 168.68 L 158.14 169.67 C 157.96 170.50 158.49 171.33 159.33 171.51 C 160.16 171.69 160.99 171.16 161.17 170.32 L 161.38 169.33 C 161.56 168.50 161.03 167.67 160.19 167.49 C 159.36 167.31 158.54 167.84 158.36 168.68 Z M 158.15 169.63 L 157.94 170.53 C 157.74 171.36 158.25 172.19 159.08 172.39 C 159.90 172.59 160.74 172.08 160.94 171.25 L 161.16 170.36 C 161.36 169.53 160.85 168.69 160.02 168.49 C 159.19 168.29 158.35 168.80 158.15 169.63 Z M 157.95 170.49 L 157.68 171.49 C 157.46 172.32 157.96 173.16 158.78 173.38 C 159.60 173.60 160.45 173.11 160.66 172.28 L 160.93 171.28 C 161.15 170.46 160.66 169.62 159.83 169.40 C 159.01 169.18 158.17 169.67 157.95 170.49 Z M 157.69 171.46 L 157.39 172.49 C 157.15 173.31 157.62 174.16 158.44 174.40 C 159.26 174.64 160.11 174.17 160.35 173.36 L 160.65 172.32 C 160.89 171.50 160.42 170.65 159.61 170.41 C 158.79 170.17 157.93 170.64 157.69 171.46 Z M 157.40 172.45 L 157.08 173.45 C 156.82 174.26 157.26 175.13 158.08 175.39 C 158.89 175.65 159.76 175.21 160.02 174.40 L 160.34 173.40 C 160.60 172.59 160.16 171.72 159.35 171.45 C 158.53 171.19 157.66 171.64 157.40 172.45 Z M 157.09 173.40 L 156.76 174.31 C 156.47 175.12 156.89 176.01 157.70 176.30 C 158.50 176.59 159.39 176.17 159.68 175.36 L 160.01 174.45 C 160.30 173.64 159.88 172.75 159.07 172.46 C 158.27 172.17 157.38 172.59 157.09 173.40 Z M 156.79 174.22 L 156.38 175.18 C 156.03 175.97 156.39 176.88 157.18 177.22 C 157.97 177.57 158.89 177.21 159.23 176.42 L 159.65 175.46 C 159.99 174.67 159.63 173.76 158.84 173.41 C 158.05 173.07 157.14 173.43 156.79 174.22 Z M 156.51 174.94 L 155.99 175.71 C 155.52 176.42 155.71 177.39 156.42 177.87 C 157.14 178.34 158.10 178.15 158.58 177.44 L 159.10 176.66 C 159.57 175.95 159.38 174.98 158.67 174.50 C 157.95 174.03 156.98 174.22 156.51 174.94 Z M 156.29 175.38 L 155.54 176.00 C 154.88 176.55 154.79 177.54 155.34 178.20 C 155.90 178.86 156.88 178.94 157.54 178.39 L 158.29 177.77 C 158.95 177.22 159.03 176.23 158.48 175.57 C 157.93 174.91 156.95 174.82 156.29 175.38 Z M 155.90 175.77 L 155.00 176.17 C 154.21 176.53 153.85 177.45 154.20 178.24 C 154.56 179.02 155.48 179.38 156.27 179.03 L 157.17 178.62 C 157.96 178.27 158.32 177.35 157.97 176.56 C 157.62 175.77 156.69 175.42 155.90 175.77 Z M 155.40 176.05 L 154.42 176.20 C 153.57 176.33 152.98 177.12 153.11 177.98 C 153.23 178.83 154.03 179.42 154.88 179.29 L 155.86 179.15 C 156.71 179.02 157.30 178.23 157.18 177.37 C 157.05 176.52 156.26 175.93 155.40 176.05 Z M 154.61 176.18 L 153.62 176.21 C 152.75 176.23 152.07 176.95 152.09 177.81 C 152.11 178.67 152.83 179.35 153.69 179.33 L 154.69 179.31 C 155.55 179.29 156.23 178.57 156.21 177.71 C 156.19 176.85 155.48 176.16 154.61 176.18 Z M 153.65 176.21 L 152.64 176.22 C 151.78 176.22 151.08 176.92 151.09 177.78 C 151.09 178.64 151.79 179.34 152.65 179.33 L 153.66 179.33 C 154.52 179.33 155.22 178.63 155.21 177.76 C 155.21 176.90 154.51 176.21 153.65 176.21 Z M 152.65 176.23 L 151.67 176.22 C 150.81 176.22 150.12 176.91 150.11 177.76 C 150.11 178.62 150.80 179.31 151.65 179.32 L 152.64 179.32 C 153.49 179.33 154.19 178.64 154.19 177.78 C 154.20 176.93 153.51 176.23 152.65 176.23 Z M 151.72 176.24 L 150.73 176.20 C 149.89 176.17 149.17 176.83 149.14 177.67 C 149.11 178.52 149.77 179.23 150.61 179.26 L 151.60 179.30 C 152.44 179.33 153.16 178.67 153.19 177.83 C 153.22 176.98 152.56 176.27 151.72 176.24 Z M 150.82 176.21 L 149.89 176.11 C 149.05 176.03 148.29 176.64 148.21 177.48 C 148.12 178.32 148.74 179.07 149.58 179.16 L 150.52 179.25 C 151.36 179.34 152.11 178.73 152.19 177.88 C 152.28 177.04 151.67 176.29 150.82 176.21 Z M 150.00 176.12 L 148.96 175.93 C 148.12 175.78 147.32 176.34 147.17 177.18 C 147.02 178.02 147.58 178.82 148.41 178.97 L 149.46 179.16 C 150.30 179.31 151.10 178.75 151.25 177.91 C 151.40 177.07 150.84 176.27 150.00 176.12 Z M 149.05 175.94 L 148.12 175.72 C 147.29 175.52 146.46 176.03 146.26 176.87 C 146.06 177.70 146.57 178.53 147.40 178.73 L 148.33 178.95 C 149.16 179.15 149.99 178.64 150.19 177.81 C 150.39 176.98 149.88 176.14 149.05 175.94 Z M 148.16 175.73 L 147.17 175.47 C 146.34 175.24 145.50 175.73 145.27 176.56 C 145.05 177.38 145.54 178.23 146.37 178.45 L 147.36 178.72 C 148.19 178.94 149.03 178.45 149.26 177.63 C 149.48 176.80 148.99 175.95 148.16 175.73 Z M 147.18 175.47 L 146.55 175.29 C 145.73 175.07 144.87 175.55 144.64 176.37 C 144.42 177.19 144.90 178.04 145.72 178.27 L 146.35 178.45 C 147.18 178.68 148.03 178.20 148.26 177.37 C 148.48 176.55 148.00 175.70 147.18 175.47 Z"
      fill="black"
      fill-rule="nonzero" /></svg>