<svg xmlns="http://www.w3.org/2000/svg" width="300" height="300" viewBox="0 0 300 300">
<path d="M 130.38 136.50 L 131.31 136.55 C 132.15 136.60 132.86 135.95 132.90 135.12 C 132.94 134.29 132.30 133.57 131.47 133.53 L 130.53 133.48 C 129.70 133.44 128.99 134.08 128.94 134.91 C 128.90 135.75 129.54 136.46 130.38 136.50 Z M 131.42 136.59 L 132.47 136.57 C 133.33 136.55 134.01 135.84 133.99 134.99 C 133.97 134.13 133.26 133.45 132.41 133.47 L 131.36 133.49 C 130.50 133.51 129.82 134.22 129.84 135.07 C 129.86 135.93 130.57 136.61 131.42 136.59 Z M 132.61 136.58 L 133.62 136.47 C 134.48 136.38 135.11 135.60 135.01 134.74 C 134.92 133.87 134.14 133.25 133.28 133.35 L 132.27 133.46 C 131.40 133.55 130.78 134.33 130.88 135.19 C 130.97 136.05 131.75 136.68 132.61 136.58 Z M 133.69 136.46 L 134.71 136.30 C 135.57 136.17 136.16 135.36 136.02 134.51 C 135.89 133.65 135.08 133.06 134.22 133.19 L 133.21 133.35 C 132.35 133.49 131.76 134.29 131.89 135.15 C 132.03 136.01 132.83 136.60 133.69 136.46 Z M 134.74 136.30 L 135.74 136.12 C 136.60 135.98 137.17 135.16 137.02 134.31 C 136.88 133.45 136.06 132.88 135.21 133.02 L 134.20 133.20 C 133.34 133.35 132.77 134.16 132.92 135.02 C 133.07 135.87 133.88 136.45 134.74 136.30 Z M 135.74 136.12 L 136.72 135.95 C 137.57 135.81 138.15 135.00 138.00 134.14 C 137.86 133.29 137.05 132.71 136.19 132.86 L 135.21 133.03 C 134.36 133.17 133.78 133.98 133.93 134.84 C 134.07 135.69 134.88 136.27 135.74 136.12 Z M 136.71 135.95 L 137.64 135.80 C 138.49 135.66 139.07 134.86 138.93 134.01 C 138.80 133.15 137.99 132.58 137.14 132.71 L 136.21 132.86 C 135.36 133.00 134.78 133.80 134.91 134.66 C 135.05 135.51 135.85 136.09 136.71 135.95 Z M 137.62 135.80 L 138.62 135.65 C 139.47 135.52 140.05 134.73 139.93 133.88 C 139.80 133.03 139.00 132.44 138.15 132.57 L 137.16 132.72 C 136.31 132.84 135.72 133.64 135.85 134.49 C 135.98 135.34 136.77 135.92 137.62 135.80 Z M 138.59 135.65 L 139.59 135.51 C 140.44 135.39 141.04 134.61 140.92 133.76 C 140.81 132.91 140.02 132.32 139.17 132.43 L 138.18 132.57 C 137.33 132.68 136.73 133.47 136.85 134.32 C 136.96 135.17 137.74 135.76 138.59 135.65 Z M 139.57 135.51 L 140.56 135.39 C 141.41 135.28 142.01 134.51 141.90 133.66 C 141.80 132.81 141.02 132.21 140.17 132.31 L 139.19 132.43 C 138.34 132.54 137.74 133.31 137.85 134.16 C 137.95 135.01 138.73 135.62 139.57 135.51 Z M 140.55 135.39 L 141.54 135.26 C 142.39 135.16 142.99 134.39 142.89 133.54 C 142.79 132.69 142.02 132.09 141.17 132.19 L 140.18 132.31 C 139.33 132.42 138.73 133.19 138.83 134.04 C 138.93 134.88 139.70 135.49 140.55 135.39 Z M 141.54 135.26 L 142.53 135.14 C 143.38 135.04 143.99 134.27 143.88 133.42 C 143.78 132.58 143.01 131.97 142.16 132.08 L 141.17 132.20 C 140.32 132.30 139.72 133.07 139.82 133.91 C 139.92 134.76 140.69 135.36 141.54 135.26 Z M 142.54 135.14 L 143.53 135.01 C 144.38 134.91 144.98 134.14 144.87 133.29 C 144.76 132.45 143.99 131.85 143.15 131.96 L 142.16 132.08 C 141.31 132.19 140.72 132.96 140.82 133.80 C 140.93 134.64 141.70 135.24 142.54 135.14 Z M 143.55 135.00 L 144.55 134.86 C 145.39 134.74 145.97 133.97 145.85 133.13 C 145.74 132.29 144.96 131.71 144.13 131.83 L 143.13 131.97 C 142.29 132.08 141.71 132.86 141.83 133.70 C 141.94 134.53 142.72 135.12 143.55 135.00 Z M 144.55 134.85 L 145.54 134.71 C 146.37 134.59 146.95 133.82 146.83 132.99 C 146.71 132.16 145.94 131.58 145.11 131.70 L 144.12 131.84 C 143.29 131.96 142.71 132.73 142.83 133.56 C 142.95 134.39 143.72 134.97 144.55 134.85 Z M 145.52 134.70 L 146.51 134.57 C 147.33 134.46 147.92 133.70 147.80 132.87 C 147.69 132.04 146.93 131.46 146.10 131.57 L 145.12 131.70 C 144.29 131.82 143.71 132.58 143.82 133.40 C 143.93 134.23 144.70 134.81 145.52 134.70 Z M 146.51 134.56 L 147.47 134.43 C 148.30 134.31 148.87 133.55 148.76 132.73 C 148.64 131.91 147.88 131.34 147.06 131.45 L 146.10 131.58 C 145.28 131.70 144.70 132.46 144.82 133.28 C 144.93 134.10 145.69 134.67 146.51 134.56 Z M 147.48 134.41 L 148.46 134.28 C 149.28 134.16 149.85 133.41 149.73 132.59 C 149.62 131.78 148.86 131.21 148.05 131.32 L 147.06 131.46 C 146.24 131.58 145.68 132.33 145.79 133.15 C 145.91 133.96 146.66 134.53 147.48 134.41 Z M 148.44 134.27 L 149.43 134.14 C 150.24 134.04 150.82 133.30 150.71 132.49 C 150.61 131.68 149.87 131.10 149.06 131.20 L 148.07 131.33 C 147.26 131.43 146.68 132.17 146.79 132.99 C 146.89 133.80 147.63 134.37 148.44 134.27 Z M 149.40 134.14 L 150.40 134.03 C 151.21 133.95 151.79 133.22 151.71 132.41 C 151.62 131.60 150.89 131.01 150.08 131.10 L 149.09 131.21 C 148.28 131.29 147.69 132.02 147.78 132.83 C 147.86 133.64 148.59 134.23 149.40 134.14 Z M 150.36 134.03 L 151.40 133.94 C 152.21 133.88 152.81 133.16 152.74 132.35 C 152.67 131.55 151.96 130.95 151.15 131.01 L 150.11 131.10 C 149.30 131.17 148.70 131.88 148.77 132.69 C 148.84 133.50 149.55 134.10 150.36 134.03 Z M 151.37 133.94 L 152.36 133.88 C 153.16 133.83 153.78 133.13 153.73 132.32 C 153.67 131.52 152.98 130.90 152.17 130.96 L 151.18 131.02 C 150.37 131.07 149.76 131.77 149.81 132.57 C 149.86 133.38 150.56 133.99 151.37 133.94 Z M 152.34 133.87 L 153.34 133.82 C 154.15 133.78 154.77 133.09 154.72 132.29 C 154.68 131.49 154.00 130.87 153.20 130.91 L 152.19 130.96 C 151.39 131.00 150.77 131.69 150.81 132.49 C 150.85 133.29 151.54 133.91 152.34 133.87 Z M 153.34 133.81 L 153.72 133.80 C 154.52 133.76 155.14 133.08 155.10 132.28 C 155.06 131.48 154.38 130.86 153.58 130.90 L 153.20 130.92 C 152.40 130.95 151.78 131.63 151.82 132.43 C 151.86 133.23 152.54 133.85 153.34 133.81 Z"
      fill="black"
      fill-rule="nonzero" /><path d="M 135.01 129.05 L 135.01 130.14 C 135.01 130.97 135.68 131.64 136.51 131.64 C 137.34 131.64 138.02 130.97 138.02 130.14 L 138.02 129.05 C 138.02 128.22 137.34 127.55 136.51 127.55 C 135.68 127.55 135.01 128.22 135.01 129.05 Z M 134.99 130.14 L 134.99 131.17 C 134.99 132.01 135.68 132.69 136.52 132.69 C 137.36 132.69 138.04 132.00 138.04 131.16 L 138.04 130.13 C 138.04 129.29 137.35 128.61 136.51 128.61 C 135.66 128.61 134.98 129.30 134.99 130.14 Z M 134.97 131.18 L 134.97 132.08 C 134.98 132.93 135.68 133.62 136.54 133.61 C 137.39 133.61 138.08 132.91 138.07 132.05 L 138.06 131.15 C 138.06 130.29 137.36 129.61 136.50 129.61 C 135.65 129.62 134.96 130.32 134.97 131.18 Z M 134.96 132.10 L 134.99 133.19 C 135.01 134.05 135.73 134.73 136.59 134.71 C 137.45 134.69 138.13 133.98 138.11 133.11 L 138.08 132.03 C 138.06 131.16 137.35 130.48 136.49 130.50 C 135.62 130.52 134.94 131.24 134.96 132.10 Z M 134.99 133.21 L 135.02 134.11 C 135.06 134.97 135.78 135.64 136.65 135.61 C 137.51 135.58 138.18 134.85 138.15 133.99 L 138.11 133.09 C 138.08 132.23 137.35 131.56 136.49 131.59 C 135.63 131.62 134.95 132.35 134.99 133.21 Z M 135.02 134.11 L 135.06 135.09 C 135.10 135.95 135.82 136.62 136.69 136.59 C 137.55 136.55 138.22 135.83 138.19 134.96 L 138.15 133.99 C 138.11 133.12 137.39 132.45 136.52 132.49 C 135.66 132.52 134.99 133.25 135.02 134.11 Z M 135.06 135.10 L 135.11 136.11 C 135.15 136.97 135.88 137.64 136.74 137.60 C 137.61 137.56 138.27 136.83 138.23 135.97 L 138.18 134.95 C 138.14 134.09 137.41 133.43 136.55 133.47 C 135.69 133.51 135.02 134.24 135.06 135.10 Z M 135.11 136.13 L 135.17 137.11 C 135.22 137.97 135.95 138.63 136.81 138.59 C 137.67 138.54 138.33 137.80 138.28 136.94 L 138.23 135.95 C 138.18 135.09 137.45 134.43 136.58 134.48 C 135.72 134.53 135.07 135.27 135.11 136.13 Z M 135.17 137.11 L 135.22 138.12 C 135.27 138.98 136.00 139.64 136.86 139.60 C 137.72 139.55 138.38 138.82 138.33 137.96 L 138.28 136.95 C 138.24 136.09 137.51 135.43 136.65 135.47 C 135.79 135.52 135.13 136.25 135.17 137.11 Z M 135.22 138.10 L 135.26 139.09 C 135.29 139.95 136.02 140.62 136.88 140.59 C 137.73 140.56 138.40 139.83 138.37 138.97 L 138.33 137.98 C 138.30 137.12 137.58 136.45 136.72 136.48 C 135.86 136.52 135.19 137.24 135.22 138.10 Z M 135.26 139.07 L 135.29 140.08 C 135.31 140.94 136.02 141.61 136.88 141.59 C 137.73 141.57 138.41 140.86 138.39 140.01 L 138.37 139.00 C 138.35 138.14 137.64 137.46 136.78 137.48 C 135.92 137.50 135.24 138.21 135.26 139.07 Z M 135.29 140.06 L 135.30 141.05 C 135.31 141.90 136.01 142.59 136.86 142.58 C 137.72 142.58 138.41 141.88 138.40 141.02 L 138.39 140.03 C 138.38 139.17 137.68 138.49 136.83 138.49 C 135.97 138.50 135.28 139.20 135.29 140.06 Z M 135.30 141.04 L 135.30 142.05 C 135.30 142.90 136.00 143.59 136.85 143.59 C 137.71 143.59 138.40 142.90 138.40 142.04 L 138.39 141.03 C 138.39 140.18 137.70 139.49 136.85 139.49 C 135.99 139.49 135.30 140.18 135.30 141.04 Z M 135.31 142.04 L 135.31 143.04 C 135.31 143.89 136.00 144.58 136.85 144.58 C 137.70 144.58 138.39 143.89 138.39 143.04 L 138.39 142.04 C 138.39 141.19 137.70 140.50 136.85 140.50 C 136.00 140.50 135.31 141.19 135.31 142.04 Z M 135.31 143.04 L 135.31 144.04 C 135.31 144.89 136.00 145.58 136.85 145.58 C 137.70 145.58 138.39 144.89 138.39 144.04 L 138.39 143.04 C 138.39 142.19 137.70 141.50 136.85 141.50 C 136.00 141.50 135.31 142.19 135.31 143.04 Z M 135.32 144.04 L 135.32 145.06 C 135.32 145.91 136.00 146.59 136.85 146.59 C 137.70 146.59 138.38 145.91 138.38 145.06 L 138.38 144.04 C 138.38 143.19 137.70 142.51 136.85 142.51 C 136.00 142.51 135.32 143.19 135.32 144.04 Z M 135.32 145.06 L 135.32 146.06 C 135.32 146.91 136.01 147.59 136.85 147.59 C 137.69 147.59 138.38 146.91 138.38 146.06 L 138.38 145.06 C 138.38 144.22 137.69 143.53 136.85 143.53 C 136.01 143.53 135.32 144.22 135.32 145.06 Z M 135.33 146.06 L 135.33 147.08 C 135.33 147.92 136.01 148.60 136.85 148.60 C 137.69 148.60 138.37 147.92 138.37 147.08 L 138.37 146.06 C 138.37 145.22 137.69 144.54 136.85 144.54 C 136.01 144.54 135.33 145.22 135.33 146.06 Z M 135.33 147.08 L 135.33 148.07 C 135.33 148.91 136.01 149.59 136.85 149.59 C 137.69 149.59 138.37 148.91 138.37 148.07 L 138.37 147.08 C 138.37 146.24 137.69 145.56 136.85 145.56 C 136.01 145.56 135.33 146.24 135.33 147.08 Z M 135.34 148.07 L 135.34 149.02 C 135.34 149.85 136.01 150.53 136.85 150.53 C 137.69 150.53 138.36 149.85 138.36 149.02 L 138.36 148.07 C 138.36 147.23 137.69 146.56 136.85 146.56 C 136.01 146.56 135.34 147.23 135.34 148.07 Z M 135.34 149.02 L 135.34 150.01 C 135.34 150.85 136.02 151.52 136.85 151.52 C 137.68 151.52 138.36 150.85 138.36 150.01 L 138.36 149.02 C 138.36 148.18 137.68 147.51 136.85 147.51 C 136.02 147.51 135.34 148.18 135.34 149.02 Z M 135.35 150.01 L 135.35 151.02 C 135.35 151.85 136.02 152.53 136.85 152.53 C 137.68 152.53 138.35 151.86 138.35 151.03 L 138.35 150.02 C 138.35 149.19 137.68 148.51 136.85 148.51 C 136.02 148.51 135.35 149.18 135.35 150.01 Z M 135.35 151.01 L 135.34 152.04 C 135.34 152.86 136.00 153.54 136.83 153.55 C 137.65 153.55 138.33 152.89 138.34 152.06 L 138.34 151.04 C 138.35 150.21 137.69 149.54 136.86 149.53 C 136.04 149.52 135.36 150.19 135.35 151.01 Z M 135.36 152.00 L 135.32 153.21 C 135.29 154.03 135.93 154.71 136.75 154.74 C 137.57 154.77 138.26 154.12 138.29 153.30 L 138.32 152.10 C 138.35 151.28 137.71 150.59 136.89 150.57 C 136.07 150.54 135.38 151.18 135.36 152.00 Z M 135.33 153.20 L 135.30 153.89 C 135.27 154.70 135.90 155.38 136.71 155.42 C 137.52 155.45 138.21 154.82 138.24 154.01 L 138.27 153.32 C 138.30 152.51 137.67 151.82 136.86 151.79 C 136.05 151.76 135.37 152.39 135.33 153.20 Z M 138.20 154.14 L 138.34 153.10 C 138.44 152.31 137.88 151.59 137.09 151.49 C 136.30 151.38 135.58 151.94 135.48 152.73 L 135.34 153.76 C 135.24 154.55 135.80 155.28 136.58 155.38 C 137.37 155.48 138.10 154.93 138.20 154.14 Z"
      fill="black"
      fill-rule="nonzero" /><path d="M 142.61 125.65 L 142.67 126.57 C 142.73 127.39 143.44 128.01 144.27 127.95 C 145.09 127.89 145.71 127.18 145.65 126.36 L 145.58 125.43 C 145.52 124.61 144.81 123.99 143.99 124.05 C 143.17 124.11 142.55 124.82 142.61 125.65 Z M 142.62 126.58 L 142.71 127.62 C 142.78 128.47 143.52 129.10 144.37 129.04 C 145.21 128.97 145.85 128.23 145.78 127.38 L 145.70 126.34 C 145.63 125.49 144.88 124.86 144.04 124.93 C 143.19 124.99 142.56 125.74 142.62 126.58 Z M 142.68 127.64 L 142.77 128.64 C 142.85 129.51 143.61 130.14 144.48 130.06 C 145.34 129.98 145.98 129.22 145.90 128.36 L 145.81 127.36 C 145.73 126.50 144.96 125.86 144.10 125.94 C 143.24 126.02 142.60 126.78 142.68 127.64 Z M 142.77 128.65 L 142.86 129.67 C 142.95 130.54 143.72 131.17 144.58 131.09 C 145.45 131.01 146.08 130.24 146.00 129.37 L 145.90 128.35 C 145.82 127.48 145.05 126.85 144.18 126.93 C 143.32 127.02 142.68 127.78 142.77 128.65 Z M 142.86 129.67 L 142.96 130.68 C 143.04 131.54 143.82 132.18 144.68 132.09 C 145.55 132.01 146.18 131.24 146.10 130.37 L 146.00 129.37 C 145.92 128.50 145.15 127.87 144.28 127.95 C 143.41 128.04 142.78 128.81 142.86 129.67 Z M 142.96 130.67 L 143.06 131.70 C 143.14 132.56 143.91 133.20 144.77 133.12 C 145.64 133.04 146.28 132.27 146.19 131.40 L 146.10 130.38 C 146.02 129.51 145.25 128.87 144.38 128.95 C 143.52 129.04 142.88 129.80 142.96 130.67 Z M 143.05 131.69 L 143.14 132.66 C 143.21 133.52 143.98 134.17 144.85 134.09 C 145.71 134.01 146.36 133.25 146.28 132.38 L 146.20 131.41 C 146.12 130.55 145.36 129.90 144.49 129.98 C 143.62 130.05 142.98 130.82 143.05 131.69 Z M 143.14 132.64 L 143.22 133.61 C 143.28 134.48 144.04 135.13 144.91 135.06 C 145.78 134.99 146.43 134.23 146.36 133.36 L 146.28 132.39 C 146.21 131.53 145.45 130.88 144.58 130.95 C 143.72 131.02 143.07 131.78 143.14 132.64 Z M 143.21 133.60 L 143.28 134.58 C 143.35 135.45 144.10 136.11 144.97 136.04 C 145.84 135.98 146.49 135.23 146.43 134.36 L 146.36 133.38 C 146.30 132.51 145.54 131.85 144.67 131.91 C 143.81 131.98 143.15 132.73 143.21 133.60 Z M 143.28 134.56 L 143.34 135.59 C 143.40 136.46 144.14 137.12 145.01 137.07 C 145.88 137.02 146.54 136.27 146.49 135.40 L 146.43 134.38 C 146.38 133.51 145.63 132.85 144.76 132.90 C 143.89 132.95 143.23 133.70 143.28 134.56 Z M 143.34 135.56 L 143.39 136.57 C 143.43 137.44 144.16 138.11 145.03 138.07 C 145.90 138.04 146.57 137.30 146.54 136.43 L 146.49 135.42 C 146.45 134.55 145.72 133.88 144.85 133.92 C 143.98 133.96 143.30 134.69 143.34 135.56 Z M 143.39 136.55 L 143.42 137.54 C 143.44 138.41 144.17 139.10 145.04 139.07 C 145.91 139.04 146.59 138.32 146.57 137.45 L 146.54 136.45 C 146.51 135.58 145.78 134.90 144.91 134.92 C 144.04 134.95 143.36 135.68 143.39 136.55 Z M 143.42 137.53 L 143.44 138.54 C 143.46 139.41 144.18 140.10 145.05 140.08 C 145.92 140.06 146.61 139.33 146.59 138.46 L 146.57 137.46 C 146.55 136.59 145.83 135.90 144.96 135.92 C 144.09 135.94 143.40 136.66 143.42 137.53 Z M 143.44 138.53 L 143.46 139.53 C 143.48 140.40 144.20 141.09 145.07 141.07 C 145.94 141.06 146.63 140.34 146.61 139.47 L 146.59 138.47 C 146.57 137.60 145.85 136.91 144.98 136.93 C 144.11 136.94 143.42 137.66 143.44 138.53 Z M 143.46 139.53 L 143.48 140.53 C 143.50 141.40 144.22 142.09 145.09 142.08 C 145.96 142.06 146.65 141.34 146.63 140.47 L 146.61 139.47 C 146.60 138.60 145.88 137.91 145.01 137.92 C 144.14 137.94 143.45 138.66 143.46 139.53 Z M 143.48 140.52 L 143.50 141.53 C 143.51 142.40 144.22 143.09 145.09 143.08 C 145.96 143.07 146.66 142.35 146.65 141.48 L 146.63 140.48 C 146.62 139.61 145.90 138.91 145.03 138.93 C 144.16 138.94 143.47 139.65 143.48 140.52 Z M 143.50 141.52 L 143.50 142.53 C 143.51 143.40 144.22 144.10 145.09 144.09 C 145.96 144.08 146.66 143.37 146.65 142.50 L 146.65 141.49 C 146.64 140.62 145.93 139.92 145.06 139.93 C 144.19 139.94 143.49 140.65 143.50 141.52 Z M 143.50 142.52 L 143.51 143.52 C 143.51 144.39 144.22 145.10 145.09 145.09 C 145.96 145.09 146.66 144.38 146.66 143.51 L 146.65 142.51 C 146.65 141.64 145.94 140.94 145.07 140.94 C 144.20 140.94 143.50 141.65 143.50 142.52 Z M 143.51 143.52 L 143.51 144.50 C 143.51 145.37 144.21 146.08 145.08 146.08 C 145.95 146.08 146.66 145.37 146.66 144.50 L 146.66 143.52 C 146.66 142.65 145.95 141.94 145.08 141.94 C 144.21 141.94 143.51 142.65 143.51 143.52 Z M 143.51 144.50 L 143.51 145.53 C 143.51 146.39 144.21 147.10 145.08 147.10 C 145.95 147.10 146.66 146.39 146.66 145.53 L 146.66 144.50 C 146.66 143.63 145.95 142.93 145.08 142.93 C 144.21 142.93 143.51 143.63 143.51 144.50 Z M 143.51 145.53 L 143.51 146.52 C 143.51 147.39 144.21 148.10 145.08 148.10 C 145.95 148.10 146.66 147.39 146.66 146.52 L 146.66 145.53 C 146.66 144.66 145.95 143.95 145.08 143.95 C 144.21 143.95 143.51 144.66 143.51 145.53 Z M 143.51 146.52 L 143.51 147.51 C 143.51 148.38 144.21 149.08 145.08 149.08 C 145.95 149.08 146.65 148.38 146.65 147.51 L 146.65 146.52 C 146.65 145.66 145.95 144.95 145.08 144.95 C 144.21 144.95 143.51 145.66 143.51 146.52 Z M 143.51 147.51 L 143.51 148.52 C 143.51 149.39 144.22 150.09 145.08 150.09 C 145.95 150.09 146.65 149.39 146.65 148.52 L 146.65 147.51 C 146.65 146.64 145.95 145.94 145.08 145.94 C 144.22 145.94 143.51 146.64 143.51 147.51 Z M 143.52 148.52 L 143.52 149.51 C 143.52 150.37 144.22 151.08 145.08 151.08 C 145.95 151.08 146.65 150.37 146.65 149.51 L 146.65 148.52 C 146.65 147.65 145.95 146.95 145.08 146.95 C 144.22 146.95 143.52 147.65 143.52 148.52 Z M 143.52 149.51 L 143.52 150.54 C 143.52 151.41 144.22 152.11 145.08 152.11 C 145.95 152.11 146.65 151.41 146.65 150.54 L 146.65 149.51 C 146.65 148.64 145.95 147.94 145.08 147.94 C 144.22 147.94 143.52 148.64 143.52 149.51 Z M 143.52 150.54 L 143.51 151.54 C 143.51 152.40 144.21 153.11 145.07 153.11 C 145.94 153.11 146.64 152.42 146.64 151.55 L 146.65 150.55 C 146.65 149.68 145.95 148.98 145.09 148.98 C 144.22 148.97 143.52 149.67 143.52 150.54 Z M 143.52 151.52 L 143.50 152.49 C 143.49 153.35 144.18 154.06 145.04 154.07 C 145.90 154.09 146.61 153.40 146.63 152.54 L 146.64 151.57 C 146.65 150.71 145.96 150.00 145.10 149.98 C 144.24 149.97 143.53 150.66 143.52 151.52 Z M 143.50 152.45 L 143.46 153.42 C 143.43 154.28 144.09 155.01 144.95 155.05 C 145.82 155.08 146.54 154.42 146.58 153.55 L 146.62 152.58 C 146.66 151.72 145.99 150.99 145.13 150.95 C 144.27 150.92 143.54 151.58 143.50 152.45 Z M 143.47 153.35 L 143.38 154.35 C 143.30 155.21 143.94 155.97 144.80 156.04 C 145.66 156.12 146.41 155.48 146.49 154.63 L 146.58 153.62 C 146.65 152.77 146.02 152.01 145.16 151.93 C 144.30 151.86 143.54 152.49 143.47 153.35 Z M 143.39 154.29 L 143.26 155.31 C 143.15 156.17 143.76 156.94 144.61 157.05 C 145.46 157.16 146.24 156.55 146.35 155.70 L 146.48 154.68 C 146.59 153.83 145.98 153.05 145.13 152.95 C 144.28 152.84 143.50 153.44 143.39 154.29 Z M 143.28 155.25 L 143.09 156.34 C 142.95 157.18 143.52 157.98 144.36 158.12 C 145.21 158.27 146.01 157.70 146.15 156.85 L 146.33 155.77 C 146.48 154.92 145.91 154.12 145.06 153.98 C 144.22 153.84 143.42 154.40 143.28 155.25 Z M 143.17 156.08 L 142.91 156.83 C 142.63 157.63 143.05 158.51 143.84 158.79 C 144.64 159.07 145.52 158.66 145.80 157.86 L 146.07 157.11 C 146.35 156.31 145.93 155.43 145.13 155.15 C 144.33 154.86 143.46 155.28 143.17 156.08 Z M 145.85 157.16 L 145.75 156.40 C 145.65 155.58 144.90 154.99 144.07 155.10 C 143.25 155.20 142.67 155.95 142.77 156.77 L 142.87 157.53 C 142.97 158.35 143.72 158.94 144.54 158.83 C 145.37 158.73 145.95 157.98 145.85 157.16 Z M 145.72 156.54 L 145.70 155.67 C 145.67 154.86 144.99 154.23 144.18 154.25 C 143.37 154.28 142.74 154.96 142.77 155.77 L 142.80 156.64 C 142.82 157.44 143.50 158.08 144.31 158.05 C 145.12 158.02 145.75 157.35 145.72 156.54 Z"
      fill="black"
      fill-rule="nonzero" /><path d="M 135.36 144.96 L 136.30 144.95 C 137.14 144.94 137.81 144.25 137.80 143.40 C 137.79 142.56 137.10 141.89 136.26 141.90 L 135.32 141.91 C 134.47 141.93 133.80 142.62 133.81 143.46 C 133.82 144.30 134.51 144.97 135.36 144.96 Z M 136.41 144.96 L 137.44 144.87 C 138.29 144.80 138.91 144.05 138.84 143.21 C 138.77 142.36 138.02 141.73 137.18 141.80 L 136.15 141.89 C 135.30 141.96 134.67 142.71 134.75 143.56 C 134.82 144.40 135.56 145.03 136.41 144.96 Z M 137.59 144.85 L 138.57 144.67 C 139.41 144.52 139.96 143.71 139.81 142.87 C 139.65 142.04 138.85 141.48 138.01 141.64 L 137.03 141.82 C 136.19 141.98 135.64 142.78 135.79 143.62 C 135.95 144.45 136.75 145.01 137.59 144.85 Z M 138.66 144.64 L 139.66 144.39 C 140.47 144.18 140.97 143.36 140.77 142.54 C 140.56 141.72 139.73 141.22 138.92 141.43 L 137.92 141.67 C 137.11 141.88 136.61 142.71 136.81 143.52 C 137.02 144.34 137.84 144.84 138.66 144.64 Z M 139.70 144.36 L 140.67 144.08 C 141.47 143.85 141.93 143.02 141.70 142.22 C 141.47 141.42 140.64 140.95 139.84 141.18 L 138.87 141.46 C 138.07 141.69 137.61 142.52 137.84 143.32 C 138.07 144.12 138.90 144.59 139.70 144.36 Z M 140.68 144.05 L 141.65 143.76 C 142.44 143.52 142.88 142.69 142.64 141.91 C 142.41 141.12 141.58 140.68 140.79 140.91 L 139.82 141.21 C 139.04 141.45 138.59 142.28 138.83 143.06 C 139.07 143.85 139.90 144.29 140.68 144.05 Z M 141.64 143.74 L 142.57 143.47 C 143.35 143.24 143.79 142.43 143.56 141.65 C 143.34 140.87 142.52 140.43 141.75 140.66 L 140.81 140.93 C 140.03 141.16 139.59 141.97 139.82 142.75 C 140.04 143.53 140.86 143.97 141.64 143.74 Z M 142.53 143.46 L 143.46 143.22 C 144.24 143.02 144.70 142.22 144.50 141.45 C 144.29 140.68 143.50 140.21 142.73 140.42 L 141.79 140.66 C 141.02 140.86 140.56 141.66 140.76 142.43 C 140.96 143.20 141.75 143.67 142.53 143.46 Z M 143.43 143.22 L 144.41 142.99 C 145.18 142.80 145.66 142.03 145.47 141.25 C 145.29 140.48 144.52 140.00 143.74 140.19 L 142.76 140.42 C 141.99 140.60 141.51 141.38 141.70 142.15 C 141.88 142.92 142.65 143.40 143.43 143.22 Z M 144.39 142.98 L 145.27 142.78 C 146.04 142.61 146.53 141.84 146.35 141.07 C 146.18 140.30 145.41 139.81 144.64 139.99 L 143.76 140.19 C 142.99 140.36 142.50 141.13 142.68 141.90 C 142.85 142.67 143.62 143.16 144.39 142.98 Z"
      fill="black"
      fill-rule="nonzero" /><path d="M 134.81 151.35 L 135.79 151.30 C 136.62 151.26 137.26 150.56 137.22 149.73 C 137.18 148.90 136.48 148.26 135.65 148.30 L 134.66 148.35 C 133.84 148.39 133.20 149.09 133.24 149.92 C 133.28 150.75 133.98 151.39 134.81 151.35 Z M 135.88 151.32 L 136.89 151.21 C 137.72 151.12 138.33 150.37 138.24 149.53 C 138.15 148.69 137.40 148.09 136.56 148.18 L 135.56 148.28 C 134.72 148.37 134.11 149.12 134.20 149.96 C 134.29 150.80 135.04 151.41 135.88 151.32 Z M 137.01 151.20 L 137.97 151.02 C 138.80 150.86 139.35 150.06 139.19 149.23 C 139.03 148.39 138.23 147.85 137.39 148.00 L 136.44 148.19 C 135.61 148.34 135.06 149.15 135.22 149.98 C 135.37 150.81 136.18 151.36 137.01 151.20 Z M 138.02 151.00 L 139.02 150.78 C 139.84 150.59 140.36 149.77 140.17 148.95 C 139.99 148.13 139.17 147.61 138.34 147.79 L 137.34 148.02 C 136.52 148.21 136.00 149.03 136.19 149.85 C 136.38 150.67 137.19 151.19 138.02 151.00 Z M 139.00 150.77 L 139.99 150.56 C 140.81 150.38 141.33 149.57 141.16 148.75 C 140.98 147.93 140.17 147.41 139.35 147.58 L 138.36 147.80 C 137.53 147.98 137.01 148.79 137.19 149.61 C 137.37 150.43 138.18 150.95 139.00 150.77 Z M 139.97 150.55 L 140.96 150.35 C 141.77 150.18 142.30 149.38 142.13 148.57 C 141.96 147.75 141.16 147.22 140.35 147.39 L 139.36 147.59 C 138.55 147.76 138.02 148.56 138.19 149.38 C 138.35 150.19 139.15 150.72 139.97 150.55 Z M 140.95 150.34 L 141.95 150.14 C 142.77 149.98 143.29 149.18 143.13 148.37 C 142.97 147.56 142.18 147.03 141.36 147.20 L 140.36 147.40 C 139.54 147.56 139.02 148.35 139.18 149.16 C 139.34 149.98 140.13 150.50 140.95 150.34 Z M 141.94 150.13 L 142.91 149.94 C 143.71 149.79 144.24 149.01 144.09 148.21 C 143.94 147.40 143.16 146.87 142.35 147.02 L 141.38 147.21 C 140.58 147.36 140.05 148.14 140.20 148.94 C 140.35 149.75 141.13 150.28 141.94 150.13 Z M 142.86 149.94 L 143.84 149.78 C 144.64 149.66 145.19 148.90 145.06 148.10 C 144.93 147.30 144.18 146.75 143.38 146.88 L 142.40 147.03 C 141.60 147.16 141.05 147.91 141.18 148.71 C 141.31 149.51 142.06 150.06 142.86 149.94 Z M 143.78 149.77 L 144.75 149.66 C 145.55 149.57 146.13 148.85 146.03 148.05 C 145.94 147.25 145.22 146.68 144.42 146.77 L 143.44 146.88 C 142.64 146.98 142.07 147.70 142.16 148.50 C 142.26 149.30 142.98 149.87 143.78 149.77 Z M 144.71 149.66 L 145.70 149.58 C 146.50 149.51 147.09 148.80 147.02 148.01 C 146.95 147.21 146.25 146.61 145.45 146.68 L 144.46 146.77 C 143.66 146.84 143.07 147.54 143.14 148.34 C 143.21 149.14 143.91 149.73 144.71 149.66 Z M 145.68 149.59 L 146.58 149.52 C 147.38 149.46 147.99 148.76 147.93 147.96 C 147.87 147.15 147.17 146.55 146.37 146.61 L 145.47 146.67 C 144.66 146.73 144.06 147.43 144.12 148.24 C 144.17 149.04 144.88 149.65 145.68 149.59 Z"
      fill="black"
      fill-rule="nonzero" /><path d="M 132.58 160.66 L 133.44 160.28 C 134.21 159.95 134.55 159.05 134.22 158.29 C 133.88 157.53 132.99 157.18 132.22 157.52 L 131.36 157.90 C 130.60 158.24 130.25 159.13 130.59 159.89 C 130.93 160.65 131.82 161.00 132.58 160.66 Z M 133.45 160.27 L 134.38 159.86 C 135.14 159.52 135.48 158.63 135.14 157.87 C 134.80 157.11 133.91 156.77 133.15 157.11 L 132.22 157.53 C 131.46 157.87 131.12 158.76 131.46 159.51 C 131.80 160.27 132.69 160.61 133.45 160.27 Z M 134.38 159.86 L 135.21 159.48 C 135.97 159.15 136.30 158.26 135.97 157.50 C 135.63 156.75 134.74 156.41 133.98 156.74 L 133.15 157.12 C 132.40 157.45 132.06 158.34 132.40 159.10 C 132.73 159.85 133.62 160.19 134.38 159.86 Z M 135.19 159.49 L 136.17 159.07 C 136.93 158.74 137.28 157.86 136.95 157.10 C 136.62 156.34 135.73 155.99 134.97 156.32 L 134.00 156.74 C 133.24 157.07 132.89 157.95 133.22 158.71 C 133.55 159.47 134.43 159.82 135.19 159.49 Z M 136.14 159.08 L 137.13 158.67 C 137.90 158.36 138.26 157.48 137.94 156.71 C 137.63 155.95 136.75 155.58 135.98 155.90 L 135.00 156.31 C 134.23 156.62 133.87 157.50 134.18 158.27 C 134.50 159.03 135.38 159.40 136.14 159.08 Z M 137.11 158.68 L 138.08 158.29 C 138.85 157.99 139.22 157.11 138.92 156.34 C 138.61 155.57 137.74 155.20 136.97 155.51 L 136.00 155.89 C 135.23 156.20 134.86 157.07 135.16 157.84 C 135.47 158.61 136.34 158.99 137.11 158.68 Z M 138.07 158.30 L 139.00 157.93 C 139.78 157.63 140.16 156.76 139.86 155.99 C 139.56 155.22 138.69 154.84 137.91 155.14 L 136.98 155.50 C 136.21 155.80 135.83 156.67 136.13 157.44 C 136.43 158.22 137.30 158.60 138.07 158.30 Z M 139.00 157.93 L 139.97 157.56 C 140.74 157.26 141.13 156.39 140.83 155.62 C 140.53 154.85 139.67 154.46 138.89 154.76 L 137.92 155.14 C 137.15 155.43 136.76 156.30 137.06 157.07 C 137.36 157.85 138.23 158.23 139.00 157.93 Z M 139.96 157.56 L 140.90 157.21 C 141.67 156.92 142.06 156.05 141.77 155.28 C 141.48 154.50 140.61 154.11 139.84 154.41 L 138.90 154.76 C 138.13 155.05 137.74 155.92 138.03 156.69 C 138.32 157.46 139.19 157.85 139.96 157.56 Z M 140.88 157.22 L 141.84 156.88 C 142.62 156.59 143.03 155.73 142.74 154.95 C 142.46 154.17 141.60 153.76 140.82 154.04 L 139.86 154.39 C 139.07 154.67 138.67 155.54 138.95 156.32 C 139.23 157.10 140.10 157.51 140.88 157.22 Z M 141.40 157.00 L 142.18 156.96 C 143.03 156.92 143.68 156.20 143.64 155.35 C 143.60 154.50 142.88 153.84 142.03 153.88 L 141.25 153.92 C 140.40 153.96 139.75 154.68 139.79 155.53 C 139.83 156.38 140.55 157.04 141.40 157.00 Z M 140.70 154.72 L 140.33 155.45 C 139.95 156.23 140.26 157.17 141.04 157.56 C 141.82 157.94 142.76 157.63 143.15 156.85 L 143.51 156.12 C 143.90 155.35 143.58 154.40 142.81 154.02 C 142.03 153.63 141.08 153.94 140.70 154.72 Z M 140.49 155.19 L 139.79 156.10 C 139.26 156.79 139.38 157.78 140.08 158.31 C 140.77 158.85 141.76 158.72 142.29 158.03 L 142.99 157.11 C 143.53 156.42 143.40 155.43 142.71 154.90 C 142.02 154.37 141.02 154.49 140.49 155.19 Z M 139.81 156.06 L 139.22 156.79 C 138.67 157.47 138.77 158.47 139.45 159.02 C 140.13 159.57 141.13 159.47 141.68 158.79 L 142.27 158.06 C 142.82 157.38 142.72 156.38 142.04 155.83 C 141.36 155.28 140.36 155.38 139.81 156.06 Z M 139.21 156.80 L 138.56 157.62 C 138.02 158.30 138.13 159.29 138.81 159.84 C 139.50 160.38 140.49 160.27 141.04 159.59 L 141.69 158.78 C 142.23 158.09 142.12 157.10 141.44 156.55 C 140.75 156.01 139.76 156.12 139.21 156.80 Z M 138.56 157.64 L 137.99 158.37 C 137.45 159.06 137.58 160.05 138.26 160.58 C 138.95 161.12 139.94 160.99 140.47 160.30 L 141.04 159.57 C 141.58 158.88 141.45 157.89 140.77 157.36 C 140.08 156.83 139.09 156.95 138.56 157.64 Z M 137.99 158.39 L 137.36 159.21 C 136.83 159.90 136.96 160.88 137.65 161.40 C 138.33 161.93 139.32 161.80 139.84 161.11 L 140.47 160.29 C 141.00 159.60 140.87 158.62 140.18 158.10 C 139.49 157.57 138.51 157.70 137.99 158.39 Z M 137.36 159.22 L 136.72 160.07 C 136.20 160.75 136.33 161.73 137.02 162.24 C 137.70 162.76 138.67 162.63 139.19 161.95 L 139.84 161.10 C 140.35 160.42 140.22 159.44 139.54 158.92 C 138.86 158.41 137.88 158.54 137.36 159.22 Z M 136.72 160.07 L 136.11 160.88 C 135.60 161.56 135.73 162.53 136.41 163.04 C 137.10 163.56 138.07 163.43 138.58 162.74 L 139.19 161.94 C 139.71 161.26 139.57 160.29 138.89 159.77 C 138.21 159.26 137.24 159.39 136.72 160.07 Z M 136.11 160.88 L 135.51 161.67 C 135.00 162.35 135.13 163.33 135.82 163.84 C 136.50 164.36 137.47 164.22 137.99 163.54 L 138.59 162.74 C 139.10 162.06 138.97 161.09 138.28 160.57 C 137.60 160.06 136.63 160.19 136.11 160.88 Z M 135.51 161.67 L 134.91 162.47 C 134.39 163.16 134.53 164.13 135.22 164.64 C 135.91 165.16 136.88 165.02 137.39 164.33 L 137.99 163.53 C 138.51 162.85 138.37 161.87 137.68 161.36 C 137.00 160.85 136.02 160.98 135.51 161.67 Z M 134.90 162.47 L 134.28 163.32 C 133.76 164.00 133.90 164.98 134.59 165.49 C 135.28 166.01 136.25 165.86 136.77 165.18 L 137.40 164.33 C 137.91 163.64 137.77 162.67 137.08 162.16 C 136.39 161.64 135.42 161.78 134.90 162.47 Z M 134.27 163.32 L 133.65 164.15 C 133.14 164.84 133.28 165.81 133.97 166.33 C 134.66 166.84 135.63 166.70 136.15 166.01 L 136.77 165.18 C 137.28 164.49 137.14 163.51 136.45 163.00 C 135.76 162.49 134.79 162.63 134.27 163.32 Z M 133.66 164.14 L 133.08 164.91 C 132.57 165.59 132.71 166.57 133.39 167.09 C 134.08 167.60 135.06 167.46 135.57 166.78 L 136.14 166.01 C 136.66 165.33 136.52 164.35 135.83 163.83 C 135.15 163.32 134.17 163.46 133.66 164.14 Z M 133.09 164.89 L 132.45 165.74 C 131.92 166.42 132.05 167.40 132.73 167.92 C 133.41 168.44 134.39 168.31 134.92 167.63 L 135.56 166.79 C 136.09 166.11 135.96 165.13 135.28 164.61 C 134.59 164.08 133.62 164.21 133.09 164.89 Z M 132.47 165.71 L 131.88 166.45 C 131.34 167.12 131.45 168.10 132.12 168.64 C 132.79 169.17 133.77 169.07 134.31 168.39 L 134.90 167.66 C 135.43 166.99 135.33 166.01 134.65 165.47 C 133.98 164.93 133.00 165.04 132.47 165.71 Z M 131.90 166.43 L 131.15 167.33 C 130.60 167.99 130.70 168.97 131.35 169.51 C 132.01 170.06 132.99 169.97 133.54 169.31 L 134.28 168.41 C 134.83 167.75 134.74 166.78 134.08 166.23 C 133.42 165.68 132.45 165.77 131.90 166.43 Z M 130.83 168.41 L 130.83 168.48 C 130.88 169.32 131.60 169.96 132.43 169.91 C 133.27 169.87 133.91 169.15 133.86 168.31 L 133.86 168.24 C 133.81 167.40 133.10 166.76 132.26 166.81 C 131.42 166.85 130.78 167.57 130.83 168.41 Z M 133.38 169.43 L 134.05 168.76 C 134.62 168.19 134.62 167.27 134.05 166.70 C 133.48 166.13 132.56 166.13 131.99 166.69 L 131.32 167.36 C 130.75 167.93 130.75 168.86 131.32 169.43 C 131.89 170.00 132.81 170.00 133.38 169.43 Z"
      fill="black"
      fill-rule="nonzero" /><path d="M 140.61 163.09 L 141.59 163.35 C 142.42 163.57 143.27 163.07 143.49 162.24 C 143.70 161.41 143.21 160.55 142.38 160.34 L 141.40 160.08 C 140.57 159.86 139.72 160.36 139.50 161.19 C 139.28 162.02 139.78 162.88 140.61 163.09 Z M 141.41 163.30 L 142.29 163.64 C 143.10 163.96 144.01 163.56 144.32 162.75 C 144.63 161.95 144.23 161.04 143.43 160.73 L 142.55 160.39 C 141.74 160.07 140.84 160.47 140.52 161.27 C 140.21 162.08 140.61 162.99 141.41 163.30 Z M 142.08 163.54 L 142.91 164.02 C 143.66 164.45 144.61 164.19 145.04 163.45 C 145.48 162.70 145.22 161.74 144.47 161.31 L 143.64 160.83 C 142.89 160.40 141.94 160.66 141.51 161.41 C 141.08 162.15 141.33 163.11 142.08 163.54 Z M 142.86 163.98 L 143.72 164.53 C 144.45 164.99 145.41 164.78 145.87 164.05 C 146.33 163.33 146.12 162.36 145.39 161.90 L 144.53 161.35 C 143.80 160.89 142.84 161.10 142.38 161.83 C 141.92 162.55 142.13 163.52 142.86 163.98 Z M 143.72 164.51 L 144.55 165.05 C 145.26 165.51 146.22 165.31 146.69 164.59 C 147.15 163.87 146.94 162.92 146.23 162.45 L 145.40 161.92 C 144.68 161.45 143.72 161.66 143.26 162.38 C 142.79 163.09 143.00 164.05 143.72 164.51 Z M 144.52 165.02 L 145.39 165.62 C 146.10 166.09 147.05 165.91 147.53 165.21 C 148.01 164.51 147.82 163.55 147.12 163.07 L 146.25 162.48 C 145.55 162.00 144.59 162.19 144.11 162.89 C 143.64 163.59 143.82 164.55 144.52 165.02 Z M 145.35 165.57 L 146.18 166.18 C 146.86 166.68 147.81 166.54 148.31 165.86 C 148.81 165.19 148.67 164.23 147.99 163.73 L 147.16 163.12 C 146.49 162.62 145.53 162.76 145.03 163.44 C 144.53 164.12 144.68 165.07 145.35 165.57 Z M 146.15 166.13 L 146.93 166.75 C 147.58 167.27 148.52 167.16 149.04 166.52 C 149.56 165.87 149.45 164.93 148.81 164.41 L 148.03 163.79 C 147.38 163.27 146.44 163.38 145.92 164.02 C 145.40 164.67 145.51 165.61 146.15 166.13 Z M 146.93 166.71 L 147.68 167.34 C 148.31 167.86 149.23 167.78 149.75 167.16 C 150.27 166.53 150.19 165.61 149.57 165.09 L 148.81 164.45 C 148.19 163.93 147.26 164.02 146.74 164.64 C 146.22 165.26 146.30 166.19 146.93 166.71 Z M 147.69 167.33 L 147.77 167.40 C 148.39 167.92 149.31 167.84 149.82 167.22 C 150.34 166.61 150.26 165.69 149.65 165.17 L 149.56 165.10 C 148.95 164.58 148.03 164.66 147.51 165.28 C 147.00 165.89 147.07 166.81 147.69 167.33 Z"
      fill="black"
      fill-rule="nonzero" /><path d="M 166.69 131.98 L 165.86 132.54 C 165.15 133.03 164.96 133.99 165.44 134.70 C 165.93 135.41 166.89 135.60 167.60 135.12 L 168.44 134.55 C 169.15 134.07 169.34 133.10 168.85 132.39 C 168.37 131.68 167.41 131.49 166.69 131.98 Z M 165.80 132.57 L 165.01 133.16 C 164.32 133.67 164.17 134.65 164.68 135.34 C 165.19 136.04 166.17 136.19 166.87 135.67 L 167.66 135.09 C 168.35 134.58 168.50 133.60 167.99 132.90 C 167.48 132.21 166.50 132.06 165.80 132.57 Z M 164.95 133.21 L 164.20 133.83 C 163.54 134.37 163.44 135.35 163.99 136.02 C 164.54 136.68 165.52 136.78 166.18 136.23 L 166.93 135.62 C 167.59 135.07 167.69 134.09 167.14 133.42 C 166.59 132.76 165.61 132.67 164.95 133.21 Z M 164.22 133.83 L 163.42 134.48 C 162.76 135.02 162.66 135.99 163.19 136.65 C 163.73 137.31 164.70 137.41 165.36 136.88 L 166.16 136.23 C 166.82 135.69 166.93 134.72 166.39 134.06 C 165.86 133.40 164.89 133.29 164.22 133.83 Z M 163.47 134.45 L 162.66 135.06 C 161.98 135.57 161.84 136.53 162.34 137.20 C 162.85 137.88 163.81 138.02 164.48 137.51 L 165.30 136.90 C 165.98 136.40 166.12 135.44 165.61 134.76 C 165.11 134.09 164.15 133.95 163.47 134.45 Z M 162.68 135.06 L 161.88 135.63 C 161.20 136.12 161.05 137.07 161.54 137.76 C 162.03 138.44 162.98 138.59 163.66 138.10 L 164.46 137.52 C 165.14 137.03 165.29 136.08 164.80 135.40 C 164.31 134.72 163.36 134.56 162.68 135.06 Z M 161.88 135.64 L 161.03 136.26 C 160.35 136.75 160.20 137.69 160.69 138.37 C 161.18 139.05 162.12 139.20 162.80 138.71 L 163.66 138.09 C 164.33 137.60 164.48 136.66 163.99 135.98 C 163.51 135.30 162.56 135.15 161.88 135.64 Z M 161.04 136.26 L 160.30 136.79 C 159.63 137.28 159.47 138.22 159.95 138.89 C 160.44 139.56 161.38 139.72 162.05 139.24 L 162.79 138.71 C 163.46 138.22 163.62 137.28 163.14 136.61 C 162.65 135.94 161.71 135.78 161.04 136.26 Z M 160.33 136.78 L 159.55 137.31 C 158.86 137.78 158.68 138.71 159.15 139.39 C 159.62 140.08 160.55 140.25 161.23 139.79 L 162.02 139.25 C 162.70 138.79 162.88 137.86 162.41 137.17 C 161.95 136.49 161.02 136.31 160.33 136.78 Z M 159.58 137.29 L 158.71 137.84 C 158.02 138.28 157.81 139.21 158.25 139.91 C 158.70 140.61 159.62 140.81 160.32 140.37 L 161.19 139.81 C 161.89 139.37 162.10 138.44 161.65 137.75 C 161.21 137.05 160.28 136.84 159.58 137.29 Z M 158.73 137.83 L 157.88 138.35 C 157.17 138.78 156.95 139.70 157.38 140.41 C 157.82 141.12 158.74 141.34 159.45 140.91 L 160.30 140.38 C 161.01 139.95 161.23 139.03 160.80 138.32 C 160.36 137.61 159.44 137.39 158.73 137.83 Z M 157.89 138.34 L 157.00 138.88 C 156.28 139.30 156.05 140.23 156.48 140.94 C 156.91 141.65 157.83 141.88 158.54 141.45 L 159.43 140.92 C 160.15 140.49 160.38 139.57 159.95 138.86 C 159.52 138.15 158.60 137.91 157.89 138.34 Z M 157.01 138.87 L 156.12 139.40 C 155.41 139.82 155.17 140.74 155.59 141.45 C 156.01 142.16 156.93 142.40 157.64 141.98 L 158.53 141.46 C 159.24 141.04 159.48 140.12 159.06 139.40 C 158.64 138.69 157.72 138.45 157.01 138.87 Z M 156.14 139.39 L 155.28 139.88 C 154.57 140.30 154.32 141.21 154.73 141.93 C 155.15 142.64 156.06 142.89 156.78 142.48 L 157.63 141.98 C 158.35 141.57 158.59 140.66 158.18 139.94 C 157.77 139.23 156.85 138.98 156.14 139.39 Z M 155.30 139.88 L 154.32 140.42 C 153.60 140.83 153.34 141.74 153.74 142.46 C 154.15 143.17 155.06 143.43 155.78 143.03 L 156.76 142.48 C 157.48 142.08 157.73 141.17 157.33 140.45 C 156.93 139.73 156.02 139.47 155.30 139.88 Z M 154.24 140.48 L 153.36 141.04 C 152.67 141.49 152.47 142.41 152.92 143.10 C 153.36 143.79 154.29 143.99 154.98 143.55 L 155.86 142.98 C 156.55 142.53 156.75 141.61 156.30 140.92 C 155.85 140.23 154.93 140.03 154.24 140.48 Z M 152.78 142.86 L 152.94 143.23 C 153.25 144.00 154.13 144.36 154.89 144.05 C 155.66 143.73 156.02 142.86 155.71 142.09 L 155.56 141.72 C 155.24 140.96 154.36 140.59 153.60 140.91 C 152.83 141.22 152.47 142.10 152.78 142.86 Z M 154.06 144.16 L 155.23 144.36 C 156.05 144.50 156.84 143.95 156.98 143.13 C 157.13 142.30 156.57 141.51 155.75 141.37 L 154.58 141.17 C 153.76 141.02 152.97 141.58 152.83 142.40 C 152.68 143.23 153.24 144.01 154.06 144.16 Z M 155.08 144.34 L 156.05 144.61 C 156.87 144.84 157.71 144.36 157.94 143.55 C 158.16 142.73 157.69 141.89 156.87 141.66 L 155.90 141.39 C 155.08 141.17 154.24 141.64 154.02 142.46 C 153.79 143.27 154.26 144.11 155.08 144.34 Z M 155.81 144.52 L 156.69 144.94 C 157.45 145.30 158.37 144.97 158.73 144.21 C 159.09 143.44 158.76 142.53 158.00 142.17 L 157.12 141.75 C 156.35 141.39 155.44 141.72 155.08 142.48 C 154.72 143.25 155.04 144.16 155.81 144.52 Z M 156.41 144.78 L 157.20 145.38 C 157.88 145.89 158.84 145.76 159.36 145.08 C 159.87 144.41 159.74 143.44 159.06 142.92 L 158.27 142.33 C 157.60 141.81 156.63 141.94 156.12 142.62 C 155.60 143.30 155.73 144.26 156.41 144.78 Z M 156.92 145.11 L 157.54 145.90 C 158.07 146.57 159.04 146.69 159.71 146.16 C 160.39 145.63 160.50 144.66 159.97 143.99 L 159.35 143.19 C 158.82 142.52 157.85 142.41 157.17 142.94 C 156.50 143.46 156.39 144.44 156.92 145.11 Z M 157.38 145.67 L 157.85 146.56 C 158.25 147.32 159.19 147.61 159.95 147.21 C 160.71 146.81 161.00 145.87 160.60 145.11 L 160.13 144.22 C 159.73 143.46 158.79 143.17 158.03 143.57 C 157.27 143.97 156.98 144.91 157.38 145.67 Z M 157.77 146.40 L 158.14 147.34 C 158.45 148.14 159.36 148.54 160.16 148.22 C 160.96 147.91 161.36 147.00 161.04 146.20 L 160.68 145.27 C 160.36 144.47 159.46 144.07 158.66 144.38 C 157.86 144.70 157.46 145.60 157.77 146.40 Z M 158.08 147.17 L 158.34 148.12 C 158.56 148.95 159.41 149.45 160.24 149.22 C 161.08 149.00 161.57 148.15 161.35 147.31 L 161.10 146.37 C 160.88 145.54 160.02 145.04 159.19 145.26 C 158.36 145.48 157.86 146.34 158.08 147.17 Z M 158.31 147.98 L 158.47 148.95 C 158.61 149.80 159.42 150.37 160.27 150.23 C 161.12 150.08 161.69 149.28 161.55 148.43 L 161.38 147.46 C 161.24 146.61 160.43 146.04 159.58 146.18 C 158.73 146.32 158.16 147.13 158.31 147.98 Z M 158.46 148.85 L 158.56 149.82 C 158.65 150.67 159.41 151.29 160.26 151.21 C 161.12 151.12 161.74 150.36 161.65 149.50 L 161.56 148.53 C 161.47 147.68 160.71 147.06 159.85 147.14 C 159.00 147.23 158.37 147.99 158.46 148.85 Z M 158.56 149.73 L 158.60 150.69 C 158.64 151.54 159.37 152.21 160.22 152.17 C 161.08 152.13 161.74 151.40 161.70 150.54 L 161.66 149.59 C 161.62 148.73 160.89 148.07 160.03 148.11 C 159.18 148.15 158.52 148.88 158.56 149.73 Z M 158.60 150.63 L 158.61 151.70 C 158.61 152.56 159.31 153.25 160.17 153.24 C 161.03 153.23 161.72 152.53 161.71 151.68 L 161.70 150.60 C 161.70 149.75 161.00 149.06 160.14 149.06 C 159.28 149.07 158.59 149.77 158.60 150.63 Z M 158.61 151.66 L 158.59 152.68 C 158.58 153.54 159.26 154.25 160.11 154.26 C 160.97 154.28 161.67 153.60 161.69 152.74 L 161.71 151.72 C 161.72 150.86 161.04 150.16 160.19 150.14 C 159.33 150.12 158.63 150.81 158.61 151.66 Z M 158.59 152.64 L 158.55 153.66 C 158.50 154.51 159.16 155.23 160.02 155.28 C 160.87 155.32 161.59 154.66 161.64 153.81 L 161.68 152.79 C 161.73 151.93 161.07 151.21 160.21 151.17 C 159.36 151.13 158.64 151.78 158.59 152.64 Z M 158.55 153.57 L 158.44 154.60 C 158.35 155.45 158.97 156.21 159.81 156.30 C 160.66 156.39 161.42 155.78 161.52 154.93 L 161.63 153.90 C 161.72 153.05 161.10 152.29 160.26 152.20 C 159.41 152.10 158.65 152.72 158.55 153.57 Z M 158.47 154.43 L 158.26 155.36 C 158.08 156.20 158.60 157.02 159.43 157.21 C 160.26 157.40 161.09 156.87 161.27 156.04 L 161.48 155.11 C 161.67 154.28 161.15 153.45 160.32 153.26 C 159.49 153.08 158.66 153.60 158.47 154.43 Z M 158.33 155.17 L 157.93 156.23 C 157.63 157.03 158.04 157.92 158.84 158.21 C 159.63 158.51 160.52 158.10 160.82 157.30 L 161.21 156.24 C 161.51 155.44 161.10 154.56 160.30 154.26 C 159.51 153.96 158.62 154.37 158.33 155.17 Z M 158.20 155.79 L 157.78 156.29 C 157.24 156.94 157.32 157.90 157.97 158.44 C 158.62 158.99 159.59 158.90 160.13 158.25 L 160.55 157.75 C 161.09 157.10 161.00 156.14 160.36 155.59 C 159.71 155.05 158.74 155.14 158.20 155.79 Z M 160.43 157.04 L 160.29 156.14 C 160.16 155.32 159.40 154.77 158.58 154.89 C 157.77 155.02 157.21 155.79 157.34 156.60 L 157.48 157.50 C 157.60 158.32 158.37 158.88 159.19 158.75 C 160.00 158.62 160.56 157.85 160.43 157.04 Z M 160.27 156.32 L 160.25 155.79 C 160.22 154.99 159.55 154.36 158.75 154.39 C 157.94 154.42 157.31 155.09 157.34 155.89 L 157.36 156.42 C 157.39 157.23 158.06 157.86 158.86 157.83 C 159.67 157.80 160.30 157.13 160.27 156.32 Z"
      fill="black"
      fill-rule="nonzero" /><path d="M 160.31 148.97 L 161.07 148.69 C 161.87 148.40 162.28 147.52 161.99 146.72 C 161.70 145.93 160.82 145.52 160.02 145.81 L 159.26 146.08 C 158.46 146.37 158.05 147.25 158.34 148.05 C 158.63 148.85 159.51 149.26 160.31 148.97 Z M 160.93 148.75 L 162.02 148.47 C 162.85 148.26 163.35 147.42 163.14 146.59 C 162.92 145.76 162.08 145.26 161.26 145.47 L 160.17 145.75 C 159.34 145.96 158.84 146.80 159.05 147.63 C 159.26 148.46 160.10 148.96 160.93 148.75 Z M 161.91 148.49 L 162.89 148.32 C 163.73 148.17 164.29 147.37 164.15 146.53 C 164.00 145.68 163.19 145.12 162.35 145.27 L 161.37 145.45 C 160.53 145.59 159.96 146.40 160.11 147.24 C 160.26 148.08 161.06 148.64 161.91 148.49 Z M 162.84 148.32 L 163.87 148.17 C 164.72 148.05 165.30 147.26 165.17 146.42 C 165.05 145.58 164.27 145.00 163.43 145.12 L 162.40 145.27 C 161.56 145.39 160.97 146.18 161.10 147.02 C 161.22 147.86 162.00 148.44 162.84 148.32 Z M 163.85 148.16 L 164.89 148.03 C 165.73 147.92 166.33 147.15 166.22 146.31 C 166.11 145.47 165.34 144.88 164.50 144.99 L 163.45 145.13 C 162.61 145.24 162.02 146.01 162.13 146.84 C 162.24 147.68 163.01 148.27 163.85 148.16 Z M 164.88 148.02 L 165.87 147.90 C 166.71 147.80 167.30 147.04 167.20 146.20 C 167.10 145.37 166.34 144.78 165.51 144.88 L 164.51 145.00 C 163.68 145.10 163.08 145.86 163.18 146.69 C 163.29 147.53 164.05 148.12 164.88 148.02 Z M 165.86 147.88 L 167.01 147.75 C 167.83 147.66 168.43 146.91 168.33 146.09 C 168.24 145.26 167.50 144.67 166.67 144.76 L 165.52 144.89 C 164.70 144.99 164.10 145.73 164.20 146.56 C 164.29 147.38 165.04 147.98 165.86 147.88 Z M 166.99 147.72 L 167.85 147.64 C 168.66 147.56 169.25 146.83 169.17 146.02 C 169.09 145.21 168.37 144.62 167.56 144.70 L 166.69 144.79 C 165.88 144.87 165.29 145.59 165.37 146.40 C 165.45 147.21 166.18 147.81 166.99 147.72 Z M 167.83 147.62 L 168.79 147.54 C 169.58 147.47 170.18 146.77 170.11 145.97 C 170.05 145.17 169.35 144.58 168.55 144.64 L 167.59 144.72 C 166.79 144.79 166.19 145.49 166.26 146.29 C 166.33 147.09 167.03 147.68 167.83 147.62 Z M 168.75 147.53 L 169.73 147.47 C 170.52 147.43 171.13 146.75 171.08 145.95 C 171.04 145.16 170.35 144.55 169.56 144.60 L 168.58 144.65 C 167.79 144.70 167.18 145.38 167.23 146.17 C 167.27 146.97 167.95 147.58 168.75 147.53 Z M 169.67 147.47 L 170.68 147.45 C 171.48 147.43 172.10 146.77 172.09 145.98 C 172.07 145.19 171.41 144.56 170.62 144.58 L 169.61 144.60 C 168.82 144.62 168.19 145.27 168.21 146.07 C 168.23 146.86 168.88 147.49 169.67 147.47 Z M 170.66 147.44 L 171.26 147.44 C 172.05 147.44 172.69 146.80 172.69 146.01 C 172.69 145.22 172.04 144.58 171.26 144.58 L 170.65 144.58 C 169.86 144.59 169.22 145.23 169.23 146.02 C 169.23 146.81 169.87 147.44 170.66 147.44 Z"
      fill="black"
      fill-rule="nonzero" /><path d="M 165.92 146.79 L 165.16 147.26 C 164.45 147.69 164.23 148.61 164.67 149.31 C 165.10 150.02 166.02 150.24 166.72 149.81 L 167.49 149.34 C 168.19 148.91 168.41 147.99 167.98 147.28 C 167.55 146.58 166.63 146.36 165.92 146.79 Z M 164.49 147.93 L 164.11 148.85 C 163.77 149.65 164.15 150.57 164.96 150.90 C 165.76 151.24 166.68 150.86 167.01 150.05 L 167.39 149.14 C 167.73 148.33 167.35 147.41 166.55 147.08 C 165.74 146.75 164.82 147.13 164.49 147.93 Z M 163.95 149.36 L 163.90 150.28 C 163.85 151.16 164.53 151.92 165.42 151.97 C 166.31 152.02 167.07 151.34 167.12 150.45 L 167.17 149.54 C 167.22 148.65 166.54 147.89 165.65 147.84 C 164.76 147.79 164.00 148.47 163.95 149.36 Z M 163.89 150.42 L 163.93 151.49 C 163.96 152.38 164.71 153.08 165.61 153.05 C 166.50 153.02 167.20 152.26 167.17 151.37 L 167.13 150.30 C 167.10 149.41 166.35 148.71 165.45 148.74 C 164.56 148.78 163.86 149.53 163.89 150.42 Z M 163.92 151.54 L 163.99 152.63 C 164.05 153.53 164.83 154.21 165.73 154.16 C 166.63 154.10 167.31 153.32 167.25 152.42 L 167.18 151.32 C 167.12 150.42 166.34 149.74 165.44 149.80 C 164.54 149.86 163.86 150.64 163.92 151.54 Z M 163.99 152.62 L 164.05 153.75 C 164.11 154.65 164.88 155.34 165.79 155.29 C 166.69 155.23 167.38 154.46 167.33 153.55 L 167.26 152.43 C 167.20 151.53 166.43 150.84 165.52 150.89 C 164.62 150.94 163.93 151.72 163.99 152.62 Z M 164.05 153.73 L 164.10 154.72 C 164.14 155.63 164.91 156.32 165.82 156.28 C 166.72 156.23 167.42 155.46 167.38 154.56 L 167.33 153.57 C 167.29 152.66 166.51 151.96 165.61 152.01 C 164.70 152.05 164.00 152.82 164.05 153.73 Z M 164.09 154.71 L 164.13 155.62 C 164.17 156.52 164.94 157.23 165.85 157.19 C 166.76 157.15 167.46 156.38 167.42 155.47 L 167.38 154.57 C 167.34 153.66 166.57 152.95 165.66 152.99 C 164.76 153.03 164.05 153.80 164.09 154.71 Z M 164.13 155.61 L 164.17 156.65 C 164.21 157.56 164.98 158.26 165.89 158.22 C 166.80 158.19 167.51 157.42 167.47 156.51 L 167.42 155.47 C 167.39 154.56 166.62 153.86 165.71 153.90 C 164.80 153.93 164.09 154.70 164.13 155.61 Z M 164.17 156.62 L 164.20 157.54 C 164.22 158.45 164.98 159.17 165.89 159.15 C 166.80 159.12 167.52 158.37 167.49 157.46 L 167.47 156.53 C 167.44 155.62 166.69 154.90 165.78 154.93 C 164.87 154.95 164.15 155.71 164.17 156.62 Z M 164.20 157.51 L 164.21 158.51 C 164.21 159.42 164.95 160.15 165.86 160.14 C 166.77 160.14 167.51 159.40 167.50 158.49 L 167.49 157.49 C 167.49 156.58 166.74 155.85 165.84 155.85 C 164.93 155.86 164.19 156.60 164.20 157.51 Z M 164.21 158.50 L 164.21 159.50 C 164.21 160.41 164.94 161.15 165.85 161.15 C 166.76 161.15 167.50 160.41 167.50 159.50 L 167.50 158.50 C 167.50 157.59 166.76 156.85 165.85 156.85 C 164.94 156.85 164.21 157.59 164.21 158.50 Z M 164.21 159.50 L 164.21 160.51 C 164.21 161.42 164.95 162.15 165.85 162.15 C 166.76 162.15 167.50 161.42 167.50 160.51 L 167.50 159.50 C 167.50 158.60 166.76 157.86 165.85 157.86 C 164.95 157.86 164.21 158.60 164.21 159.50 Z M 164.21 160.51 L 164.21 161.52 C 164.21 162.42 164.95 163.16 165.85 163.16 C 166.76 163.16 167.49 162.42 167.49 161.52 L 167.49 160.51 C 167.49 159.60 166.76 158.87 165.85 158.87 C 164.95 158.87 164.21 159.60 164.21 160.51 Z M 164.22 161.52 L 164.22 162.51 C 164.22 163.41 164.95 164.15 165.85 164.15 C 166.76 164.15 167.49 163.41 167.49 162.51 L 167.49 161.52 C 167.49 160.61 166.76 159.88 165.85 159.88 C 164.95 159.88 164.22 160.61 164.22 161.52 Z M 164.22 162.51 L 164.22 163.50 C 164.22 164.40 164.95 165.14 165.85 165.14 C 166.76 165.14 167.49 164.40 167.49 163.50 L 167.49 162.51 C 167.49 161.61 166.76 160.87 165.85 160.87 C 164.95 160.87 164.22 161.61 164.22 162.51 Z M 164.22 163.50 L 164.22 164.49 C 164.22 165.39 164.95 166.12 165.85 166.12 C 166.76 166.12 167.49 165.39 167.49 164.49 L 167.49 163.50 C 167.49 162.60 166.76 161.87 165.85 161.87 C 164.95 161.87 164.22 162.60 164.22 163.50 Z M 164.22 164.49 L 164.22 165.46 C 164.22 166.36 164.95 167.09 165.85 167.09 C 166.75 167.09 167.49 166.36 167.49 165.46 L 167.49 164.49 C 167.49 163.59 166.75 162.86 165.85 162.86 C 164.95 162.86 164.22 163.59 164.22 164.49 Z M 164.22 165.46 L 164.22 166.49 C 164.22 167.39 164.95 168.12 165.85 168.12 C 166.75 168.12 167.49 167.39 167.49 166.49 L 167.49 165.46 C 167.49 164.56 166.75 163.82 165.85 163.82 C 164.95 163.82 164.22 164.56 164.22 165.46 Z M 164.22 166.47 L 164.21 167.44 C 164.21 168.34 164.93 169.08 165.83 169.08 C 166.73 169.09 167.47 168.36 167.48 167.46 L 167.48 166.50 C 167.49 165.60 166.77 164.86 165.86 164.85 C 164.96 164.85 164.23 165.57 164.22 166.47 Z M 164.22 167.40 L 164.18 168.44 C 164.15 169.34 164.86 170.09 165.76 170.12 C 166.66 170.15 167.41 169.44 167.44 168.54 L 167.47 167.50 C 167.50 166.60 166.80 165.85 165.90 165.82 C 165.00 165.79 164.25 166.50 164.22 167.40 Z M 164.19 168.36 L 164.09 169.66 C 164.02 170.56 164.69 171.34 165.58 171.41 C 166.48 171.48 167.26 170.81 167.33 169.92 L 167.44 168.62 C 167.50 167.72 166.83 166.94 165.94 166.87 C 165.04 166.80 164.26 167.47 164.19 168.36 Z M 164.10 169.54 L 163.98 170.36 C 163.84 171.25 164.45 172.08 165.34 172.21 C 166.23 172.35 167.06 171.74 167.19 170.85 L 167.32 170.04 C 167.45 169.15 166.84 168.32 165.96 168.18 C 165.07 168.05 164.24 168.66 164.10 169.54 Z M 167.18 170.39 L 167.12 169.94 C 167.00 169.06 166.19 168.44 165.31 168.56 C 164.43 168.68 163.81 169.49 163.93 170.37 L 163.99 170.82 C 164.11 171.70 164.92 172.32 165.80 172.20 C 166.68 172.08 167.30 171.27 167.18 170.39 Z M 167.10 170.14 L 167.09 168.81 C 167.08 167.94 166.37 167.24 165.50 167.25 C 164.64 167.26 163.94 167.96 163.94 168.83 L 163.95 170.16 C 163.96 171.03 164.67 171.73 165.54 171.72 C 166.40 171.72 167.10 171.01 167.10 170.14 Z"
      fill="black"
      fill-rule="nonzero" /></svg>