<svg xmlns="http://www.w3.org/2000/svg" width="300" height="300" viewBox="0 0 300 300">
<path d="M 129.80 135.05 L 128.61 135.31 C 127.80 135.48 127.29 136.28 127.47 137.09 C 127.65 137.89 128.45 138.40 129.25 138.23 L 130.44 137.96 C 131.25 137.79 131.75 136.99 131.58 136.18 C 131.40 135.38 130.60 134.87 129.80 135.05 Z M 127.45 136.46 L 127.41 136.65 C 127.24 137.47 127.77 138.27 128.59 138.44 C 129.41 138.60 130.21 138.07 130.38 137.25 L 130.42 137.07 C 130.58 136.25 130.05 135.45 129.23 135.28 C 128.41 135.11 127.61 135.64 127.45 136.46 Z M 128.73 138.46 L 129.86 138.59 C 130.69 138.68 131.45 138.07 131.54 137.23 C 131.63 136.40 131.02 135.65 130.18 135.56 L 129.06 135.44 C 128.22 135.35 127.47 135.95 127.38 136.79 C 127.29 137.62 127.89 138.37 128.73 138.46 Z M 129.93 138.59 L 131.04 138.66 C 131.88 138.71 132.60 138.07 132.65 137.23 C 132.70 136.39 132.06 135.67 131.22 135.62 L 130.11 135.55 C 129.27 135.50 128.55 136.14 128.50 136.98 C 128.45 137.82 129.09 138.54 129.93 138.59 Z M 131.06 138.66 L 132.06 138.70 C 132.90 138.74 133.61 138.10 133.65 137.26 C 133.69 136.42 133.04 135.70 132.20 135.66 L 131.20 135.62 C 130.36 135.58 129.65 136.22 129.61 137.06 C 129.57 137.90 130.22 138.62 131.06 138.66 Z M 132.07 138.70 L 133.12 138.75 C 133.96 138.78 134.67 138.13 134.70 137.29 C 134.74 136.45 134.08 135.74 133.24 135.71 L 132.19 135.66 C 131.35 135.63 130.64 136.28 130.61 137.12 C 130.58 137.96 131.23 138.67 132.07 138.70 Z M 133.13 138.75 L 134.16 138.78 C 135.00 138.81 135.70 138.15 135.73 137.31 C 135.76 136.47 135.10 135.77 134.26 135.74 L 133.23 135.71 C 132.39 135.68 131.69 136.34 131.66 137.18 C 131.64 138.02 132.29 138.72 133.13 138.75 Z M 134.18 138.78 L 135.27 138.80 C 136.10 138.82 136.80 138.16 136.82 137.32 C 136.84 136.48 136.17 135.78 135.33 135.76 L 134.24 135.74 C 133.41 135.72 132.71 136.39 132.69 137.22 C 132.67 138.06 133.34 138.76 134.18 138.78 Z M 135.28 138.80 L 136.30 138.81 C 137.13 138.82 137.82 138.15 137.83 137.31 C 137.84 136.47 137.17 135.79 136.33 135.78 L 135.32 135.77 C 134.48 135.76 133.79 136.43 133.78 137.27 C 133.77 138.10 134.44 138.79 135.28 138.80 Z M 136.31 138.81 L 137.24 138.81 C 138.08 138.82 138.76 138.14 138.77 137.30 C 138.77 136.47 138.09 135.78 137.25 135.78 L 136.32 135.78 C 135.48 135.78 134.80 136.45 134.80 137.29 C 134.79 138.13 135.47 138.81 136.31 138.81 Z M 137.25 138.81 L 138.21 138.81 C 139.05 138.81 139.72 138.13 139.72 137.30 C 139.73 136.46 139.05 135.78 138.21 135.78 L 137.25 135.78 C 136.41 135.78 135.74 136.46 135.74 137.30 C 135.73 138.13 136.41 138.81 137.25 138.81 Z M 138.21 138.81 L 139.22 138.81 C 140.05 138.81 140.73 138.13 140.73 137.30 C 140.73 136.46 140.05 135.79 139.22 135.79 L 138.21 135.79 C 137.38 135.79 136.70 136.46 136.70 137.30 C 136.70 138.13 137.38 138.81 138.21 138.81 Z M 139.22 138.81 L 140.21 138.81 C 141.05 138.81 141.72 138.13 141.72 137.30 C 141.72 136.46 141.05 135.79 140.21 135.79 L 139.22 135.79 C 138.38 135.79 137.71 136.46 137.71 137.30 C 137.71 138.13 138.38 138.81 139.22 138.81 Z M 140.21 138.80 L 141.24 138.80 C 142.07 138.80 142.74 138.13 142.74 137.30 C 142.74 136.47 142.07 135.79 141.24 135.79 L 140.21 135.79 C 139.38 135.79 138.71 136.47 138.71 137.30 C 138.71 138.13 139.38 138.80 140.21 138.80 Z M 141.23 138.79 L 142.25 138.80 C 143.08 138.80 143.75 138.13 143.75 137.30 C 143.75 136.48 143.08 135.81 142.26 135.80 L 141.24 135.80 C 140.41 135.80 139.74 136.47 139.74 137.29 C 139.74 138.12 140.41 138.79 141.23 138.79 Z M 142.24 138.79 L 143.20 138.79 C 144.02 138.80 144.70 138.14 144.70 137.32 C 144.71 136.50 144.05 135.83 143.23 135.82 L 142.27 135.81 C 141.45 135.81 140.78 136.47 140.77 137.29 C 140.76 138.11 141.42 138.78 142.24 138.79 Z M 143.18 138.79 L 144.24 138.81 C 145.06 138.83 145.73 138.19 145.75 137.37 C 145.78 136.56 145.13 135.88 144.31 135.86 L 143.25 135.83 C 142.44 135.81 141.76 136.46 141.74 137.27 C 141.72 138.09 142.36 138.76 143.18 138.79 Z M 144.15 138.80 L 145.11 138.88 C 145.92 138.95 146.63 138.35 146.70 137.54 C 146.77 136.73 146.17 136.02 145.36 135.95 L 144.40 135.87 C 143.59 135.80 142.88 136.40 142.81 137.21 C 142.74 138.02 143.35 138.73 144.15 138.80 Z M 144.92 138.84 L 145.89 139.06 C 146.68 139.23 147.46 138.74 147.63 137.95 C 147.81 137.16 147.31 136.38 146.52 136.20 L 145.55 135.99 C 144.77 135.81 143.99 136.31 143.81 137.10 C 143.63 137.89 144.13 138.67 144.92 138.84 Z M 145.71 139.00 L 146.62 139.33 C 147.38 139.60 148.21 139.21 148.48 138.46 C 148.76 137.70 148.37 136.87 147.61 136.60 L 146.70 136.27 C 145.95 135.99 145.11 136.38 144.84 137.14 C 144.57 137.89 144.96 138.72 145.71 139.00 Z"
      fill="black"
      fill-rule="nonzero" /><path d="M 136.13 131.92 L 135.13 131.26 C 134.45 130.82 133.55 131.01 133.11 131.69 C 132.67 132.36 132.86 133.27 133.54 133.71 L 134.54 134.36 C 135.22 134.80 136.12 134.61 136.56 133.93 C 137.00 133.26 136.81 132.36 136.13 131.92 Z M 134.78 131.07 L 134.04 130.84 C 133.26 130.59 132.42 131.02 132.17 131.80 C 131.93 132.59 132.36 133.42 133.14 133.67 L 133.88 133.90 C 134.67 134.15 135.50 133.71 135.75 132.93 C 135.99 132.15 135.56 131.31 134.78 131.07 Z M 132.21 131.65 L 131.91 132.34 C 131.58 133.10 131.93 133.99 132.69 134.32 C 133.45 134.65 134.34 134.30 134.67 133.54 L 134.97 132.85 C 135.30 132.09 134.95 131.20 134.19 130.87 C 133.43 130.54 132.54 130.89 132.21 131.65 Z M 131.78 133.04 L 131.85 134.16 C 131.91 134.99 132.63 135.63 133.46 135.57 C 134.30 135.52 134.93 134.80 134.87 133.96 L 134.80 132.84 C 134.75 132.01 134.03 131.37 133.19 131.43 C 132.36 131.48 131.73 132.20 131.78 133.04 Z M 131.86 134.24 L 131.97 135.20 C 132.07 136.04 132.83 136.63 133.66 136.53 C 134.49 136.43 135.09 135.68 134.99 134.84 L 134.87 133.88 C 134.77 133.05 134.02 132.45 133.18 132.55 C 132.35 132.65 131.76 133.41 131.86 134.24 Z M 131.97 135.21 L 132.10 136.26 C 132.20 137.09 132.96 137.69 133.79 137.58 C 134.62 137.48 135.22 136.73 135.12 135.89 L 134.99 134.84 C 134.89 134.01 134.13 133.41 133.30 133.51 C 132.46 133.61 131.87 134.37 131.97 135.21 Z M 132.09 136.23 L 132.20 137.26 C 132.29 138.10 133.04 138.71 133.87 138.62 C 134.71 138.53 135.32 137.78 135.23 136.95 L 135.12 135.92 C 135.03 135.08 134.29 134.47 133.45 134.56 C 132.61 134.65 132.01 135.40 132.09 136.23 Z M 132.20 137.24 L 132.29 138.25 C 132.36 139.09 133.10 139.71 133.94 139.64 C 134.78 139.56 135.40 138.82 135.32 137.98 L 135.23 136.97 C 135.16 136.13 134.42 135.51 133.58 135.59 C 132.74 135.66 132.12 136.40 132.20 137.24 Z M 132.28 138.23 L 132.36 139.23 C 132.42 140.07 133.15 140.70 133.99 140.64 C 134.83 140.58 135.46 139.85 135.40 139.01 L 135.32 138.01 C 135.26 137.17 134.53 136.54 133.69 136.60 C 132.85 136.66 132.22 137.39 132.28 138.23 Z M 132.36 139.20 L 132.41 140.19 C 132.45 141.03 133.17 141.67 134.01 141.63 C 134.85 141.59 135.49 140.87 135.45 140.03 L 135.40 139.04 C 135.36 138.20 134.64 137.56 133.80 137.60 C 132.96 137.64 132.31 138.36 132.36 139.20 Z M 132.41 140.16 L 132.44 141.11 C 132.47 141.95 133.18 142.61 134.02 142.58 C 134.86 142.55 135.52 141.84 135.49 141.00 L 135.45 140.05 C 135.42 139.21 134.71 138.55 133.87 138.59 C 133.03 138.62 132.37 139.32 132.41 140.16 Z M 132.44 141.10 L 132.47 142.11 C 132.49 142.95 133.20 143.61 134.04 143.59 C 134.88 143.56 135.54 142.86 135.52 142.02 L 135.49 141.01 C 135.46 140.17 134.76 139.51 133.92 139.53 C 133.08 139.56 132.42 140.26 132.44 141.10 Z M 132.47 142.08 L 132.48 143.10 C 132.50 143.94 133.19 144.61 134.03 144.60 C 134.87 144.59 135.54 143.89 135.53 143.05 L 135.52 142.04 C 135.50 141.20 134.81 140.53 133.97 140.54 C 133.13 140.55 132.46 141.24 132.47 142.08 Z M 132.48 143.08 L 132.49 144.07 C 132.49 144.91 133.17 145.59 134.01 145.59 C 134.85 145.58 135.53 144.90 135.53 144.06 L 135.53 143.07 C 135.53 142.23 134.85 141.55 134.00 141.55 C 133.16 141.55 132.48 142.24 132.48 143.08 Z M 132.49 144.06 L 132.49 145.07 C 132.49 145.91 133.17 146.59 134.01 146.59 C 134.85 146.59 135.53 145.91 135.53 145.07 L 135.53 144.06 C 135.53 143.22 134.85 142.54 134.01 142.54 C 133.17 142.54 132.49 143.22 132.49 144.06 Z M 132.49 145.07 L 132.49 146.07 C 132.49 146.91 133.17 147.59 134.01 147.59 C 134.85 147.59 135.53 146.91 135.53 146.07 L 135.53 145.07 C 135.53 144.23 134.85 143.55 134.01 143.55 C 133.17 143.55 132.49 144.23 132.49 145.07 Z M 132.49 146.07 L 132.49 147.07 C 132.49 147.91 133.17 148.59 134.01 148.59 C 134.85 148.59 135.53 147.91 135.53 147.07 L 135.53 146.07 C 135.53 145.23 134.85 144.55 134.01 144.55 C 133.17 144.55 132.49 145.23 132.49 146.07 Z M 132.49 147.06 L 132.49 147.99 C 132.49 148.83 133.17 149.51 134.01 149.51 C 134.84 149.51 135.52 148.83 135.53 147.99 L 135.53 147.07 C 135.53 146.23 134.85 145.55 134.01 145.55 C 133.17 145.55 132.49 146.23 132.49 147.06 Z M 132.49 147.98 L 132.48 149.04 C 132.48 149.87 133.15 150.56 133.98 150.57 C 134.82 150.57 135.50 149.90 135.51 149.07 L 135.52 148.01 C 135.53 147.17 134.86 146.48 134.02 146.48 C 133.19 146.47 132.50 147.14 132.49 147.98 Z M 132.49 149.01 L 132.46 149.93 C 132.44 150.76 133.11 151.46 133.94 151.48 C 134.78 151.50 135.47 150.84 135.49 150.00 L 135.51 149.09 C 135.53 148.25 134.87 147.56 134.03 147.54 C 133.20 147.52 132.51 148.18 132.49 149.01 Z M 132.47 149.88 L 132.41 150.92 C 132.37 151.76 133.01 152.47 133.84 152.51 C 134.68 152.56 135.39 151.92 135.43 151.08 L 135.49 150.04 C 135.53 149.21 134.89 148.50 134.06 148.45 C 133.22 148.41 132.51 149.05 132.47 149.88 Z M 132.42 150.85 L 132.30 152.08 C 132.21 152.91 132.82 153.65 133.64 153.74 C 134.47 153.82 135.21 153.22 135.30 152.39 L 135.42 151.16 C 135.51 150.33 134.90 149.59 134.07 149.50 C 133.24 149.42 132.50 150.02 132.42 150.85 Z M 132.31 152.02 L 132.14 153.15 C 132.03 153.97 132.60 154.74 133.42 154.86 C 134.24 154.97 135.00 154.40 135.12 153.58 L 135.29 152.45 C 135.40 151.63 134.83 150.86 134.01 150.75 C 133.19 150.63 132.43 151.20 132.31 152.02 Z M 132.16 153.15 L 132.12 153.38 C 132.00 154.20 132.57 154.95 133.39 155.07 C 134.20 155.19 134.96 154.63 135.08 153.81 L 135.11 153.58 C 135.23 152.77 134.66 152.01 133.85 151.89 C 133.03 151.77 132.28 152.34 132.16 153.15 Z M 135.04 153.86 L 135.23 152.83 C 135.37 152.03 134.84 151.27 134.05 151.12 C 133.25 150.98 132.49 151.51 132.35 152.30 L 132.16 153.33 C 132.02 154.13 132.54 154.89 133.34 155.03 C 134.13 155.18 134.90 154.65 135.04 153.86 Z M 135.20 152.82 L 135.30 152.28 C 135.44 151.50 134.92 150.75 134.14 150.61 C 133.36 150.47 132.61 150.99 132.47 151.77 L 132.37 152.31 C 132.23 153.09 132.75 153.84 133.53 153.98 C 134.31 154.12 135.06 153.60 135.20 152.82 Z"
      fill="black"
      fill-rule="nonzero" /><path d="M 141.86 130.50 L 142.26 129.29 C 142.51 128.52 142.09 127.69 141.33 127.44 C 140.56 127.18 139.73 127.60 139.47 128.37 L 139.07 129.58 C 138.82 130.35 139.24 131.18 140.01 131.43 C 140.77 131.69 141.60 131.27 141.86 130.50 Z M 141.74 130.04 L 141.99 129.86 C 142.66 129.38 142.81 128.45 142.33 127.78 C 141.85 127.11 140.91 126.95 140.24 127.44 L 139.99 127.62 C 139.32 128.10 139.17 129.03 139.65 129.70 C 140.13 130.37 141.07 130.52 141.74 130.04 Z M 139.61 128.77 L 139.68 129.69 C 139.75 130.53 140.48 131.15 141.32 131.08 C 142.15 131.01 142.77 130.28 142.70 129.44 L 142.62 128.53 C 142.55 127.69 141.82 127.07 140.99 127.14 C 140.16 127.21 139.54 127.94 139.61 128.77 Z M 139.67 129.61 L 139.70 130.86 C 139.72 131.70 140.42 132.36 141.26 132.34 C 142.10 132.32 142.76 131.62 142.74 130.78 L 142.71 129.53 C 142.69 128.69 142.00 128.03 141.15 128.05 C 140.31 128.07 139.65 128.77 139.67 129.61 Z M 139.70 130.88 L 139.73 131.87 C 139.76 132.71 140.47 133.37 141.31 133.34 C 142.16 133.31 142.81 132.60 142.78 131.76 L 142.75 130.76 C 142.72 129.92 142.01 129.26 141.16 129.29 C 140.32 129.33 139.66 130.03 139.70 130.88 Z M 139.73 131.88 L 139.78 132.88 C 139.82 133.72 140.53 134.37 141.38 134.33 C 142.22 134.29 142.87 133.58 142.83 132.73 L 142.78 131.74 C 142.74 130.90 142.03 130.25 141.19 130.29 C 140.34 130.33 139.69 131.04 139.73 131.88 Z M 139.78 132.88 L 139.83 133.91 C 139.87 134.75 140.58 135.40 141.42 135.36 C 142.27 135.32 142.92 134.61 142.88 133.77 L 142.83 132.73 C 142.79 131.89 142.08 131.24 141.23 131.28 C 140.39 131.32 139.74 132.03 139.78 132.88 Z M 139.83 133.90 L 139.87 134.94 C 139.90 135.79 140.62 136.44 141.46 136.41 C 142.30 136.37 142.96 135.66 142.92 134.81 L 142.88 133.77 C 142.84 132.93 142.13 132.28 141.29 132.31 C 140.45 132.35 139.79 133.06 139.83 133.90 Z M 139.87 134.93 L 139.90 135.89 C 139.93 136.73 140.64 137.39 141.48 137.36 C 142.33 137.33 142.99 136.63 142.96 135.78 L 142.92 134.83 C 142.89 133.98 142.19 133.32 141.34 133.35 C 140.50 133.38 139.84 134.09 139.87 134.93 Z M 139.90 135.87 L 139.92 136.93 C 139.94 137.78 140.64 138.45 141.48 138.43 C 142.33 138.41 143.00 137.71 142.98 136.87 L 142.96 135.80 C 142.94 134.96 142.24 134.29 141.40 134.31 C 140.55 134.32 139.88 135.02 139.90 135.87 Z M 139.92 136.91 L 139.93 137.82 C 139.93 138.66 140.62 139.35 141.46 139.34 C 142.30 139.34 142.99 138.65 142.98 137.81 L 142.98 136.89 C 142.98 136.05 142.29 135.37 141.44 135.37 C 140.60 135.37 139.92 136.06 139.92 136.91 Z M 139.93 137.81 L 139.93 138.80 C 139.93 139.64 140.61 140.33 141.45 140.33 C 142.30 140.33 142.98 139.64 142.98 138.80 L 142.98 137.81 C 142.98 136.97 142.30 136.29 141.45 136.29 C 140.61 136.29 139.93 136.97 139.93 137.81 Z M 139.93 138.80 L 139.93 139.81 C 139.93 140.65 140.61 141.34 141.45 141.34 C 142.30 141.34 142.98 140.65 142.98 139.81 L 142.98 138.80 C 142.98 137.96 142.30 137.27 141.45 137.27 C 140.61 137.27 139.93 137.96 139.93 138.80 Z M 139.93 139.81 L 139.93 140.82 C 139.93 141.66 140.61 142.34 141.45 142.34 C 142.30 142.34 142.98 141.66 142.98 140.82 L 142.98 139.81 C 142.98 138.97 142.30 138.29 141.45 138.29 C 140.61 138.29 139.93 138.97 139.93 139.81 Z M 139.93 140.82 L 139.93 141.82 C 139.93 142.66 140.61 143.34 141.45 143.34 C 142.29 143.34 142.97 142.66 142.97 141.82 L 142.97 140.82 C 142.97 139.98 142.29 139.30 141.45 139.30 C 140.61 139.30 139.93 139.98 139.93 140.82 Z M 139.94 141.82 L 139.94 142.81 C 139.94 143.65 140.62 144.33 141.45 144.33 C 142.29 144.33 142.97 143.65 142.97 142.81 L 142.97 141.82 C 142.97 140.99 142.29 140.31 141.45 140.31 C 140.62 140.31 139.94 140.99 139.94 141.82 Z M 139.94 142.81 L 139.94 143.66 C 139.94 144.50 140.62 145.18 141.45 145.18 C 142.29 145.18 142.97 144.50 142.97 143.66 L 142.97 142.81 C 142.97 141.98 142.29 141.30 141.45 141.30 C 140.62 141.30 139.94 141.98 139.94 142.81 Z M 139.94 143.66 L 139.94 144.81 C 139.94 145.64 140.62 146.32 141.45 146.32 C 142.29 146.32 142.97 145.64 142.97 144.81 L 142.97 143.66 C 142.97 142.83 142.29 142.15 141.45 142.15 C 140.62 142.15 139.94 142.83 139.94 143.66 Z M 139.94 144.81 L 139.94 145.76 C 139.94 146.59 140.62 147.27 141.45 147.27 C 142.29 147.27 142.96 146.59 142.96 145.76 L 142.96 144.81 C 142.96 143.97 142.29 143.30 141.45 143.30 C 140.62 143.30 139.94 143.97 139.94 144.81 Z M 139.94 145.76 L 139.94 146.81 C 139.94 147.64 140.62 148.32 141.45 148.32 C 142.29 148.32 142.96 147.64 142.96 146.81 L 142.96 145.76 C 142.96 144.93 142.29 144.25 141.45 144.25 C 140.62 144.25 139.94 144.93 139.94 145.76 Z M 139.95 146.81 L 139.95 147.83 C 139.95 148.66 140.62 149.33 141.45 149.33 C 142.29 149.33 142.96 148.66 142.96 147.83 L 142.96 146.81 C 142.96 145.97 142.29 145.30 141.45 145.30 C 140.62 145.30 139.95 145.97 139.95 146.81 Z M 139.95 147.83 L 139.95 148.96 C 139.95 149.79 140.62 150.46 141.45 150.46 C 142.29 150.46 142.96 149.79 142.96 148.96 L 142.96 147.83 C 142.96 147.00 142.29 146.32 141.45 146.32 C 140.62 146.32 139.95 147.00 139.95 147.83 Z M 139.96 148.96 L 139.96 149.90 C 139.96 150.73 140.63 151.40 141.45 151.40 C 142.28 151.40 142.95 150.73 142.95 149.90 L 142.95 148.96 C 142.95 148.13 142.28 147.46 141.45 147.46 C 140.63 147.46 139.96 148.13 139.96 148.96 Z M 139.97 149.90 L 139.96 151.02 C 139.96 151.84 140.63 152.51 141.45 152.51 C 142.27 152.51 142.94 151.85 142.94 151.02 L 142.94 149.91 C 142.94 149.08 142.28 148.42 141.46 148.41 C 140.64 148.41 139.97 149.08 139.97 149.90 Z M 140.09 150.47 L 140.03 150.61 C 139.73 151.36 140.10 152.21 140.85 152.52 C 141.60 152.82 142.46 152.46 142.76 151.70 L 142.82 151.57 C 143.12 150.82 142.75 149.96 142.00 149.66 C 141.25 149.35 140.39 149.72 140.09 150.47 Z M 142.84 151.03 L 142.77 150.24 C 142.70 149.45 142.00 148.86 141.20 148.93 C 140.41 149.00 139.82 149.70 139.89 150.50 L 139.96 151.28 C 140.03 152.08 140.73 152.66 141.52 152.59 C 142.32 152.52 142.91 151.82 142.84 151.03 Z"
      fill="black"
      fill-rule="nonzero" /><path d="M 132.79 138.92 L 132.82 139.99 C 132.85 140.81 133.53 141.45 134.35 141.43 C 135.16 141.40 135.80 140.72 135.78 139.91 L 135.75 138.84 C 135.73 138.02 135.05 137.38 134.23 137.40 C 133.41 137.43 132.77 138.11 132.79 138.92 Z M 133.03 140.72 L 133.45 141.43 C 133.88 142.13 134.80 142.36 135.50 141.93 C 136.21 141.50 136.43 140.59 136.01 139.88 L 135.58 139.18 C 135.15 138.47 134.23 138.25 133.53 138.67 C 132.83 139.10 132.60 140.02 133.03 140.72 Z M 134.34 142.10 L 135.28 142.36 C 136.08 142.58 136.90 142.11 137.12 141.31 C 137.34 140.51 136.87 139.69 136.07 139.47 L 135.12 139.21 C 134.33 138.99 133.50 139.46 133.29 140.26 C 133.07 141.06 133.54 141.88 134.34 142.10 Z M 135.59 142.41 L 136.65 142.47 C 137.48 142.51 138.18 141.88 138.23 141.06 C 138.28 140.23 137.65 139.53 136.82 139.48 L 135.76 139.42 C 134.94 139.37 134.23 140.00 134.19 140.83 C 134.14 141.65 134.77 142.36 135.59 142.41 Z M 136.72 142.46 L 137.73 142.48 C 138.56 142.49 139.23 141.83 139.25 141.01 C 139.26 140.19 138.60 139.51 137.78 139.50 L 136.76 139.48 C 135.93 139.47 135.26 140.13 135.25 140.95 C 135.23 141.78 135.89 142.45 136.72 142.46 Z M 137.75 142.47 L 138.78 142.47 C 139.60 142.47 140.26 141.81 140.26 140.99 C 140.26 140.17 139.60 139.51 138.78 139.51 L 137.76 139.51 C 136.94 139.51 136.27 140.17 136.27 140.99 C 136.27 141.81 136.94 142.47 137.75 142.47 Z M 138.78 142.46 L 139.77 142.46 C 140.58 142.46 141.24 141.80 141.24 140.99 C 141.24 140.18 140.58 139.52 139.77 139.52 L 138.78 139.52 C 137.97 139.52 137.31 140.18 137.31 140.99 C 137.31 141.80 137.97 142.46 138.78 142.46 Z M 139.77 142.44 L 140.74 142.44 C 141.54 142.44 142.19 141.79 142.19 140.99 C 142.19 140.19 141.54 139.54 140.74 139.54 L 139.77 139.54 C 138.97 139.54 138.32 140.19 138.32 140.99 C 138.32 141.79 138.97 142.44 139.77 142.44 Z M 140.74 142.43 L 141.74 142.43 C 142.54 142.43 143.18 141.78 143.18 140.99 C 143.18 140.19 142.54 139.55 141.74 139.55 L 140.74 139.55 C 139.94 139.55 139.30 140.19 139.30 140.99 C 139.30 141.78 139.94 142.43 140.74 142.43 Z M 141.74 142.42 L 142.73 142.42 C 143.52 142.42 144.16 141.78 144.16 140.99 C 144.16 140.20 143.52 139.56 142.73 139.56 L 141.74 139.56 C 140.95 139.56 140.31 140.20 140.31 140.99 C 140.31 141.78 140.95 142.42 141.74 142.42 Z M 142.73 142.42 L 143.74 142.42 C 144.53 142.42 145.17 141.78 145.17 140.99 C 145.17 140.20 144.53 139.56 143.74 139.56 L 142.73 139.56 C 141.94 139.56 141.30 140.20 141.30 140.99 C 141.30 141.78 141.94 142.42 142.73 142.42 Z M 143.74 142.41 L 143.83 142.41 C 144.62 142.41 145.26 141.78 145.26 140.99 C 145.26 140.20 144.62 139.56 143.83 139.56 L 143.74 139.56 C 142.96 139.56 142.32 140.20 142.32 140.99 C 142.32 141.78 142.96 142.41 143.74 142.41 Z"
      fill="black"
      fill-rule="nonzero" /><path d="M 134.10 147.49 L 135.06 147.43 C 135.88 147.38 136.50 146.68 136.45 145.86 C 136.40 145.05 135.70 144.43 134.89 144.48 L 133.92 144.54 C 133.11 144.59 132.49 145.29 132.54 146.10 C 132.59 146.92 133.29 147.54 134.10 147.49 Z M 135.04 147.45 L 136.07 147.41 C 136.89 147.37 137.53 146.67 137.50 145.84 C 137.46 145.02 136.76 144.38 135.94 144.41 L 134.91 144.46 C 134.08 144.49 133.44 145.19 133.48 146.02 C 133.52 146.84 134.21 147.49 135.04 147.45 Z M 136.03 147.41 L 137.05 147.40 C 137.88 147.38 138.54 146.70 138.53 145.87 C 138.52 145.04 137.83 144.37 137.00 144.39 L 135.98 144.40 C 135.14 144.42 134.48 145.10 134.50 145.93 C 134.51 146.77 135.20 147.43 136.03 147.41 Z M 137.01 147.39 L 138.02 147.40 C 138.85 147.40 139.52 146.74 139.53 145.91 C 139.53 145.08 138.87 144.41 138.04 144.40 L 137.04 144.39 C 136.21 144.39 135.53 145.05 135.53 145.88 C 135.52 146.71 136.19 147.38 137.01 147.39 Z M 137.97 147.39 L 139.01 147.43 C 139.83 147.46 140.52 146.82 140.55 146.00 C 140.59 145.18 139.95 144.49 139.13 144.45 L 138.09 144.41 C 137.27 144.38 136.57 145.02 136.54 145.84 C 136.51 146.66 137.15 147.35 137.97 147.39 Z M 138.96 147.41 L 139.90 147.48 C 140.71 147.54 141.42 146.92 141.48 146.11 C 141.54 145.30 140.93 144.60 140.12 144.54 L 139.17 144.47 C 138.36 144.41 137.66 145.02 137.60 145.83 C 137.54 146.65 138.15 147.35 138.96 147.41 Z M 139.88 147.46 L 140.86 147.55 C 141.67 147.61 142.37 147.02 142.44 146.22 C 142.51 145.42 141.92 144.71 141.12 144.64 L 140.14 144.56 C 139.33 144.49 138.63 145.08 138.56 145.88 C 138.49 146.68 139.08 147.39 139.88 147.46 Z M 140.82 147.53 L 141.81 147.64 C 142.61 147.74 143.32 147.17 143.42 146.38 C 143.51 145.58 142.94 144.87 142.15 144.77 L 141.16 144.66 C 140.36 144.56 139.65 145.13 139.55 145.93 C 139.46 146.72 140.03 147.44 140.82 147.53 Z M 141.77 147.63 L 142.76 147.78 C 143.55 147.89 144.28 147.35 144.39 146.57 C 144.51 145.78 143.97 145.05 143.19 144.94 L 142.19 144.79 C 141.41 144.67 140.68 145.21 140.56 146.00 C 140.45 146.78 140.99 147.51 141.77 147.63 Z M 142.75 147.77 L 143.08 147.82 C 143.86 147.94 144.60 147.41 144.72 146.63 C 144.84 145.85 144.31 145.12 143.53 145.00 L 143.20 144.94 C 142.42 144.82 141.69 145.35 141.56 146.13 C 141.44 146.91 141.97 147.65 142.75 147.77 Z"
      fill="black"
      fill-rule="nonzero" /><path d="M 127.19 151.39 L 126.17 151.86 C 125.41 152.20 125.08 153.09 125.43 153.84 C 125.77 154.59 126.66 154.92 127.41 154.58 L 128.44 154.11 C 129.19 153.76 129.52 152.88 129.18 152.12 C 128.83 151.37 127.95 151.04 127.19 151.39 Z M 126.11 154.58 L 126.52 154.79 C 127.27 155.16 128.19 154.85 128.56 154.10 C 128.94 153.34 128.63 152.43 127.88 152.05 L 127.47 151.85 C 126.71 151.47 125.80 151.78 125.42 152.54 C 125.05 153.29 125.35 154.21 126.11 154.58 Z M 127.15 154.96 L 128.37 155.00 C 129.22 155.02 129.93 154.36 129.96 153.51 C 129.99 152.66 129.32 151.95 128.47 151.92 L 127.25 151.88 C 126.40 151.86 125.69 152.52 125.66 153.37 C 125.63 154.22 126.30 154.93 127.15 154.96 Z M 128.41 155.00 L 129.38 155.01 C 130.23 155.01 130.93 154.33 130.93 153.48 C 130.94 152.62 130.25 151.93 129.40 151.92 L 128.43 151.92 C 127.58 151.91 126.89 152.60 126.88 153.45 C 126.87 154.30 127.56 154.99 128.41 155.00 Z M 129.39 155.01 L 130.42 155.01 C 131.27 155.01 131.96 154.32 131.96 153.47 C 131.96 152.62 131.27 151.93 130.42 151.93 L 129.40 151.93 C 128.54 151.92 127.85 152.61 127.85 153.46 C 127.85 154.31 128.54 155.00 129.39 155.01 Z M 130.42 155.01 L 131.45 155.01 C 132.30 155.01 132.99 154.32 132.99 153.47 C 132.99 152.62 132.30 151.93 131.45 151.93 L 130.42 151.93 C 129.57 151.93 128.88 152.62 128.88 153.47 C 128.88 154.32 129.57 155.01 130.42 155.01 Z M 131.45 155.00 L 132.47 155.00 C 133.31 155.00 134.00 154.32 134.00 153.47 C 134.00 152.62 133.31 151.93 132.47 151.93 L 131.45 151.93 C 130.60 151.93 129.92 152.62 129.92 153.47 C 129.92 154.32 130.60 155.00 131.45 155.00 Z M 132.47 155.00 L 133.44 155.00 C 134.29 155.00 134.97 154.31 134.97 153.47 C 134.97 152.62 134.29 151.93 133.44 151.93 L 132.47 151.93 C 131.62 151.93 130.93 152.62 130.93 153.47 C 130.93 154.31 131.62 155.00 132.47 155.00 Z M 133.44 155.00 L 134.40 155.00 C 135.25 155.00 135.93 154.31 135.93 153.47 C 135.93 152.62 135.25 151.93 134.40 151.93 L 133.44 151.93 C 132.59 151.93 131.90 152.62 131.90 153.47 C 131.90 154.31 132.59 155.00 133.44 155.00 Z M 134.40 155.00 L 135.33 155.00 C 136.18 155.00 136.86 154.31 136.86 153.47 C 136.86 152.62 136.18 151.93 135.33 151.93 L 134.40 151.93 C 133.55 151.93 132.86 152.62 132.87 153.47 C 132.87 154.31 133.55 155.00 134.40 155.00 Z M 135.34 155.00 L 136.26 154.99 C 137.10 154.99 137.78 154.29 137.78 153.45 C 137.77 152.60 137.08 151.92 136.23 151.93 L 135.32 151.93 C 134.47 151.94 133.79 152.63 133.80 153.48 C 133.81 154.32 134.50 155.00 135.34 155.00 Z M 136.28 154.99 L 137.36 154.97 C 138.21 154.95 138.88 154.24 138.86 153.40 C 138.84 152.55 138.14 151.88 137.29 151.90 L 136.21 151.93 C 135.36 151.95 134.69 152.65 134.71 153.50 C 134.73 154.34 135.44 155.01 136.28 154.99 Z M 137.39 154.96 L 138.47 154.92 C 139.32 154.88 139.97 154.17 139.94 153.32 C 139.90 152.48 139.19 151.82 138.34 151.86 L 137.26 151.91 C 136.42 151.94 135.76 152.66 135.80 153.50 C 135.83 154.34 136.55 155.00 137.39 154.96 Z M 138.50 154.91 L 139.51 154.85 C 140.35 154.80 140.99 154.08 140.94 153.24 C 140.90 152.40 140.18 151.76 139.34 151.81 L 138.32 151.87 C 137.48 151.92 136.84 152.64 136.89 153.48 C 136.94 154.32 137.66 154.96 138.50 154.91 Z M 139.52 154.84 L 140.55 154.78 C 141.39 154.72 142.02 154.00 141.97 153.17 C 141.92 152.33 141.19 151.70 140.36 151.75 L 139.33 151.82 C 138.49 151.87 137.86 152.59 137.91 153.43 C 137.96 154.26 138.68 154.90 139.52 154.84 Z M 140.55 154.77 L 141.54 154.71 C 142.38 154.65 143.01 153.93 142.95 153.10 C 142.90 152.27 142.18 151.64 141.35 151.69 L 140.36 151.76 C 139.52 151.81 138.89 152.53 138.95 153.36 C 139.00 154.20 139.72 154.83 140.55 154.77 Z M 141.54 154.70 L 142.63 154.63 C 143.46 154.58 144.09 153.87 144.04 153.04 C 143.99 152.21 143.27 151.58 142.45 151.63 L 141.35 151.70 C 140.52 151.75 139.90 152.46 139.95 153.29 C 140.00 154.12 140.71 154.75 141.54 154.70 Z M 142.62 154.62 L 143.66 154.56 C 144.48 154.51 145.11 153.81 145.06 152.99 C 145.02 152.17 144.31 151.54 143.49 151.59 L 142.46 151.65 C 141.64 151.69 141.01 152.39 141.05 153.22 C 141.10 154.04 141.80 154.66 142.62 154.62 Z M 143.66 154.54 L 144.54 154.49 C 145.35 154.45 145.97 153.75 145.92 152.94 C 145.88 152.13 145.18 151.51 144.37 151.55 L 143.50 151.60 C 142.68 151.65 142.06 152.34 142.11 153.16 C 142.15 153.97 142.85 154.59 143.66 154.54 Z M 144.55 154.48 L 145.57 154.41 C 146.37 154.36 146.98 153.67 146.93 152.86 C 146.88 152.06 146.18 151.45 145.38 151.50 L 144.36 151.57 C 143.56 151.62 142.95 152.31 143.00 153.12 C 143.05 153.92 143.74 154.53 144.55 154.48 Z M 145.56 154.41 L 146.51 154.35 C 147.31 154.30 147.92 153.61 147.87 152.81 C 147.82 152.01 147.13 151.40 146.33 151.45 L 145.38 151.51 C 144.58 151.56 143.98 152.24 144.02 153.04 C 144.07 153.84 144.76 154.45 145.56 154.41 Z M 146.46 154.34 L 147.45 154.32 C 148.25 154.30 148.88 153.63 148.86 152.84 C 148.84 152.04 148.17 151.41 147.38 151.43 L 146.38 151.46 C 145.59 151.48 144.96 152.14 144.98 152.94 C 145.00 153.74 145.66 154.36 146.46 154.34 Z M 147.42 154.31 L 148.25 154.31 C 149.05 154.31 149.69 153.66 149.68 152.87 C 149.68 152.07 149.04 151.43 148.24 151.44 L 147.41 151.44 C 146.62 151.44 145.98 152.09 145.98 152.88 C 145.98 153.67 146.63 154.31 147.42 154.31 Z"
      fill="black"
      fill-rule="nonzero" /><path d="M 135.20 153.96 L 134.90 154.84 C 134.62 155.64 135.05 156.51 135.85 156.78 C 136.64 157.06 137.52 156.63 137.79 155.84 L 138.10 154.96 C 138.37 154.16 137.95 153.29 137.15 153.01 C 136.35 152.74 135.48 153.16 135.20 153.96 Z M 134.88 154.87 L 134.58 155.83 C 134.32 156.63 134.77 157.50 135.57 157.76 C 136.38 158.01 137.25 157.57 137.50 156.76 L 137.81 155.80 C 138.07 155.00 137.62 154.13 136.81 153.87 C 136.00 153.62 135.14 154.06 134.88 154.87 Z M 134.56 155.88 L 134.28 156.89 C 134.05 157.71 134.53 158.56 135.35 158.78 C 136.17 159.01 137.02 158.53 137.24 157.71 L 137.53 156.71 C 137.75 155.89 137.27 155.04 136.45 154.81 C 135.64 154.58 134.79 155.06 134.56 155.88 Z M 134.26 156.93 L 134.02 157.90 C 133.81 158.73 134.31 159.57 135.14 159.78 C 135.97 159.98 136.81 159.48 137.01 158.65 L 137.26 157.67 C 137.46 156.85 136.96 156.01 136.13 155.80 C 135.31 155.60 134.47 156.10 134.26 156.93 Z M 134.01 157.92 L 133.77 158.92 C 133.58 159.75 134.09 160.58 134.92 160.78 C 135.75 160.98 136.58 160.47 136.78 159.64 L 137.02 158.64 C 137.22 157.81 136.70 156.97 135.87 156.77 C 135.04 156.58 134.21 157.09 134.01 157.92 Z M 133.77 158.91 L 133.54 159.89 C 133.34 160.72 133.85 161.56 134.68 161.76 C 135.51 161.96 136.34 161.45 136.54 160.62 L 136.78 159.64 C 136.98 158.81 136.47 157.97 135.64 157.77 C 134.81 157.57 133.97 158.08 133.77 158.91 Z M 133.54 159.87 L 133.28 160.89 C 133.07 161.72 133.57 162.56 134.40 162.77 C 135.23 162.98 136.07 162.48 136.28 161.65 L 136.54 160.64 C 136.75 159.81 136.25 158.97 135.42 158.76 C 134.60 158.55 133.76 159.05 133.54 159.87 Z M 133.29 160.87 L 133.04 161.80 C 132.82 162.62 133.31 163.47 134.13 163.69 C 134.96 163.91 135.80 163.42 136.02 162.60 L 136.27 161.67 C 136.49 160.85 136.00 160.00 135.18 159.78 C 134.36 159.56 133.51 160.05 133.29 160.87 Z M 133.05 161.80 L 132.79 162.75 C 132.57 163.57 133.05 164.41 133.87 164.63 C 134.69 164.85 135.53 164.37 135.76 163.55 L 136.01 162.60 C 136.24 161.79 135.75 160.94 134.94 160.72 C 134.12 160.50 133.27 160.98 133.05 161.80 Z M 132.80 162.75 L 132.53 163.73 C 132.31 164.55 132.79 165.38 133.61 165.61 C 134.42 165.83 135.26 165.35 135.48 164.53 L 135.75 163.55 C 135.97 162.74 135.49 161.90 134.68 161.68 C 133.86 161.46 133.02 161.94 132.80 162.75 Z M 132.55 163.73 L 132.29 164.67 C 132.07 165.47 132.54 166.31 133.35 166.53 C 134.15 166.75 134.99 166.28 135.21 165.47 L 135.47 164.54 C 135.69 163.73 135.22 162.89 134.41 162.67 C 133.60 162.45 132.77 162.92 132.55 163.73 Z M 132.30 164.66 L 132.03 165.64 C 131.81 166.44 132.27 167.27 133.07 167.49 C 133.87 167.72 134.70 167.25 134.92 166.45 L 135.20 165.47 C 135.42 164.67 134.95 163.84 134.15 163.62 C 133.35 163.40 132.53 163.87 132.30 164.66 Z M 132.04 165.66 L 131.78 166.60 C 131.57 167.39 132.04 168.21 132.83 168.43 C 133.62 168.64 134.44 168.17 134.65 167.38 L 134.91 166.44 C 135.13 165.65 134.66 164.83 133.87 164.61 C 133.08 164.40 132.26 164.86 132.04 165.66 Z M 131.79 166.62 L 131.55 167.57 C 131.34 168.36 131.82 169.17 132.61 169.37 C 133.39 169.57 134.20 169.10 134.40 168.31 L 134.65 167.36 C 134.85 166.57 134.38 165.77 133.59 165.56 C 132.80 165.36 131.99 165.83 131.79 166.62 Z M 131.55 167.59 L 131.31 168.57 C 131.11 169.36 131.59 170.15 132.37 170.35 C 133.16 170.54 133.95 170.07 134.15 169.28 L 134.39 168.30 C 134.59 167.51 134.11 166.72 133.33 166.52 C 132.54 166.33 131.75 166.80 131.55 167.59 Z M 131.31 168.58 L 131.28 168.71 C 131.09 169.49 131.56 170.28 132.35 170.47 C 133.13 170.67 133.92 170.19 134.11 169.41 L 134.14 169.28 C 134.34 168.50 133.86 167.71 133.08 167.51 C 132.30 167.32 131.51 167.80 131.31 168.58 Z"
      fill="black"
      fill-rule="nonzero" /><path d="M 137.56 158.68 L 138.08 159.53 C 138.51 160.23 139.43 160.45 140.13 160.02 C 140.83 159.59 141.05 158.67 140.62 157.97 L 140.10 157.12 C 139.66 156.42 138.75 156.20 138.05 156.63 C 137.35 157.06 137.13 157.98 137.56 158.68 Z M 138.28 159.81 L 138.97 160.50 C 139.56 161.09 140.51 161.09 141.10 160.51 C 141.69 159.92 141.69 158.97 141.11 158.38 L 140.42 157.69 C 139.83 157.10 138.88 157.10 138.29 157.68 C 137.70 158.27 137.70 159.22 138.28 159.81 Z M 139.29 160.76 L 140.15 161.25 C 140.88 161.66 141.80 161.41 142.22 160.68 C 142.63 159.95 142.38 159.03 141.65 158.61 L 140.79 158.12 C 140.06 157.71 139.14 157.96 138.72 158.69 C 138.31 159.42 138.56 160.34 139.29 160.76 Z M 140.20 161.28 L 141.08 161.73 C 141.83 162.12 142.74 161.83 143.13 161.08 C 143.51 160.34 143.22 159.42 142.48 159.04 L 141.60 158.58 C 140.85 158.20 139.94 158.49 139.55 159.23 C 139.17 159.98 139.46 160.89 140.20 161.28 Z M 140.99 161.69 L 141.83 162.19 C 142.55 162.63 143.48 162.39 143.92 161.68 C 144.35 160.96 144.12 160.02 143.40 159.59 L 142.57 159.08 C 141.85 158.65 140.91 158.88 140.48 159.60 C 140.04 160.32 140.28 161.25 140.99 161.69 Z M 141.78 162.16 L 142.66 162.74 C 143.36 163.20 144.30 163.00 144.76 162.30 C 145.22 161.60 145.03 160.65 144.33 160.19 L 143.45 159.62 C 142.75 159.16 141.80 159.35 141.34 160.06 C 140.88 160.76 141.08 161.70 141.78 162.16 Z M 142.65 162.73 L 143.51 163.30 C 144.21 163.76 145.15 163.57 145.61 162.87 C 146.08 162.17 145.89 161.23 145.19 160.77 L 144.33 160.20 C 143.63 159.74 142.69 159.93 142.23 160.63 C 141.77 161.32 141.96 162.26 142.65 162.73 Z M 143.54 163.31 L 144.38 163.84 C 145.08 164.28 146.02 164.07 146.46 163.37 C 146.91 162.66 146.70 161.73 145.99 161.29 L 145.16 160.76 C 144.45 160.31 143.52 160.52 143.07 161.23 C 142.63 161.93 142.84 162.86 143.54 163.31 Z M 144.47 163.87 L 145.40 164.38 C 146.13 164.77 147.03 164.50 147.43 163.78 C 147.82 163.06 147.55 162.15 146.83 161.76 L 145.90 161.25 C 145.17 160.86 144.27 161.13 143.87 161.85 C 143.48 162.57 143.75 163.48 144.47 163.87 Z M 145.51 164.39 L 146.33 164.77 C 147.06 165.10 147.93 164.78 148.26 164.05 C 148.60 163.32 148.27 162.45 147.54 162.12 L 146.72 161.74 C 145.99 161.41 145.12 161.73 144.79 162.46 C 144.45 163.19 144.78 164.06 145.51 164.39 Z"
      fill="black"
      fill-rule="nonzero" /><path d="M 160.49 141.12 L 161.57 141.14 C 162.41 141.15 163.10 140.48 163.11 139.64 C 163.13 138.81 162.46 138.11 161.62 138.10 L 160.53 138.08 C 159.70 138.07 159.00 138.74 158.99 139.58 C 158.98 140.42 159.65 141.11 160.49 141.12 Z M 161.34 138.10 L 160.59 138.23 C 159.75 138.36 159.18 139.16 159.32 140.00 C 159.46 140.84 160.25 141.40 161.09 141.26 L 161.85 141.14 C 162.69 141.00 163.25 140.21 163.11 139.37 C 162.97 138.53 162.18 137.96 161.34 138.10 Z M 160.52 138.25 L 159.46 138.48 C 158.63 138.65 158.10 139.47 158.28 140.30 C 158.46 141.13 159.28 141.65 160.11 141.47 L 161.17 141.24 C 161.99 141.06 162.52 140.25 162.34 139.42 C 162.16 138.59 161.34 138.07 160.52 138.25 Z M 159.32 138.53 L 158.36 138.84 C 157.57 139.09 157.13 139.95 157.38 140.74 C 157.64 141.54 158.49 141.98 159.29 141.72 L 160.24 141.42 C 161.04 141.16 161.48 140.31 161.22 139.51 C 160.97 138.72 160.12 138.28 159.32 138.53 Z M 158.30 138.88 L 157.37 139.23 C 156.60 139.52 156.21 140.39 156.50 141.16 C 156.80 141.93 157.66 142.32 158.43 142.03 L 159.36 141.68 C 160.13 141.39 160.52 140.52 160.23 139.75 C 159.93 138.98 159.07 138.59 158.30 138.88 Z M 157.32 139.26 L 156.39 139.66 C 155.63 139.98 155.28 140.86 155.60 141.62 C 155.93 142.37 156.80 142.72 157.56 142.40 L 158.49 142.00 C 159.25 141.67 159.60 140.80 159.27 140.04 C 158.95 139.29 158.07 138.94 157.32 139.26 Z M 156.35 139.68 L 155.45 140.10 C 154.70 140.44 154.38 141.33 154.72 142.07 C 155.06 142.81 155.95 143.14 156.69 142.79 L 157.59 142.38 C 158.34 142.03 158.66 141.15 158.32 140.41 C 157.98 139.66 157.09 139.34 156.35 139.68 Z M 155.46 140.10 L 154.55 140.51 C 153.80 140.85 153.47 141.72 153.81 142.47 C 154.15 143.22 155.02 143.55 155.77 143.21 L 156.68 142.80 C 157.43 142.46 157.76 141.58 157.42 140.84 C 157.08 140.09 156.20 139.76 155.46 140.10 Z M 154.57 140.50 L 153.66 140.89 C 152.91 141.22 152.57 142.09 152.89 142.84 C 153.22 143.59 154.09 143.94 154.84 143.61 L 155.75 143.22 C 156.50 142.89 156.85 142.02 156.52 141.27 C 156.19 140.52 155.32 140.17 154.57 140.50 Z M 153.65 140.89 L 152.72 141.31 C 151.97 141.64 151.63 142.51 151.96 143.26 C 152.30 144.01 153.17 144.35 153.92 144.02 L 154.85 143.61 C 155.60 143.28 155.94 142.40 155.61 141.65 C 155.28 140.90 154.40 140.56 153.65 140.89 Z M 152.69 141.32 L 151.79 141.74 C 151.04 142.09 150.73 142.98 151.08 143.72 C 151.43 144.46 152.31 144.78 153.05 144.43 L 153.95 144.01 C 154.70 143.66 155.02 142.77 154.67 142.03 C 154.32 141.29 153.43 140.97 152.69 141.32 Z M 151.75 141.76 L 150.85 142.21 C 150.11 142.58 149.82 143.48 150.19 144.21 C 150.56 144.94 151.45 145.24 152.19 144.87 L 153.09 144.42 C 153.82 144.05 154.12 143.15 153.75 142.42 C 153.38 141.69 152.49 141.39 151.75 141.76 Z M 150.77 142.26 L 149.77 142.84 C 149.06 143.25 148.82 144.16 149.23 144.87 C 149.65 145.58 150.56 145.82 151.27 145.41 L 152.27 144.83 C 152.98 144.41 153.22 143.50 152.80 142.79 C 152.39 142.08 151.48 141.84 150.77 142.26 Z M 149.36 143.20 L 148.86 143.82 C 148.35 144.47 148.46 145.40 149.10 145.91 C 149.75 146.42 150.68 146.31 151.19 145.67 L 151.68 145.05 C 152.19 144.40 152.08 143.47 151.44 142.96 C 150.80 142.45 149.86 142.56 149.36 143.20 Z M 148.74 145.49 L 149.17 146.25 C 149.59 146.96 150.50 147.21 151.21 146.79 C 151.92 146.38 152.17 145.47 151.75 144.76 L 151.31 144.00 C 150.90 143.29 149.99 143.04 149.28 143.46 C 148.57 143.87 148.32 144.78 148.74 145.49 Z M 149.43 146.60 L 150.23 147.35 C 150.83 147.92 151.78 147.89 152.35 147.28 C 152.92 146.68 152.89 145.73 152.29 145.16 L 151.49 144.41 C 150.89 143.84 149.94 143.87 149.37 144.48 C 148.80 145.08 148.83 146.03 149.43 146.60 Z M 150.14 147.27 L 150.80 148.00 C 151.36 148.62 152.32 148.67 152.94 148.11 C 153.56 147.55 153.60 146.60 153.05 145.98 L 152.38 145.24 C 151.82 144.62 150.87 144.57 150.25 145.13 C 149.63 145.69 149.58 146.65 150.14 147.27 Z M 150.72 147.91 L 151.31 148.69 C 151.82 149.35 152.77 149.48 153.44 148.97 C 154.10 148.46 154.23 147.51 153.72 146.84 L 153.13 146.07 C 152.62 145.40 151.67 145.28 151.00 145.78 C 150.34 146.29 150.21 147.25 150.72 147.91 Z M 151.23 148.58 L 151.77 149.43 C 152.22 150.14 153.16 150.35 153.87 149.90 C 154.58 149.45 154.79 148.52 154.34 147.81 L 153.80 146.95 C 153.35 146.24 152.41 146.03 151.70 146.48 C 151.00 146.93 150.78 147.87 151.23 148.58 Z M 151.69 149.29 L 152.11 150.14 C 152.48 150.89 153.40 151.20 154.15 150.83 C 154.90 150.45 155.21 149.54 154.84 148.79 L 154.42 147.95 C 154.05 147.19 153.14 146.88 152.38 147.26 C 151.63 147.63 151.32 148.54 151.69 149.29 Z M 152.05 150.00 L 152.41 150.95 C 152.70 151.74 153.58 152.14 154.37 151.84 C 155.16 151.55 155.56 150.67 155.26 149.88 L 154.90 148.93 C 154.60 148.14 153.73 147.74 152.94 148.04 C 152.15 148.33 151.75 149.21 152.05 150.00 Z M 152.37 150.84 L 152.65 151.81 C 152.89 152.62 153.73 153.08 154.54 152.85 C 155.35 152.61 155.82 151.76 155.58 150.95 L 155.30 149.99 C 155.06 149.18 154.22 148.72 153.41 148.95 C 152.60 149.19 152.13 150.03 152.37 150.84 Z M 152.63 151.73 L 152.85 152.70 C 153.05 153.52 153.87 154.03 154.69 153.84 C 155.51 153.65 156.02 152.82 155.83 152.00 L 155.60 151.03 C 155.41 150.21 154.59 149.70 153.77 149.89 C 152.95 150.08 152.44 150.91 152.63 151.73 Z M 152.84 152.63 L 153.03 153.65 C 153.18 154.48 153.98 155.03 154.81 154.87 C 155.64 154.72 156.19 153.93 156.03 153.10 L 155.85 152.07 C 155.69 151.24 154.90 150.70 154.07 150.85 C 153.24 151.00 152.69 151.80 152.84 152.63 Z M 153.01 153.57 L 153.15 154.60 C 153.26 155.44 154.03 156.03 154.86 155.92 C 155.70 155.81 156.29 155.04 156.18 154.21 L 156.05 153.17 C 155.94 152.34 155.17 151.75 154.33 151.86 C 153.49 151.97 152.91 152.73 153.01 153.57 Z M 153.14 154.51 L 153.21 155.52 C 153.27 156.36 154.00 156.99 154.84 156.94 C 155.68 156.88 156.32 156.15 156.26 155.31 L 156.19 154.30 C 156.13 153.46 155.40 152.82 154.56 152.88 C 153.72 152.94 153.08 153.67 153.14 154.51 Z M 153.21 155.40 L 153.20 156.36 C 153.19 157.20 153.86 157.89 154.71 157.90 C 155.55 157.91 156.24 157.23 156.25 156.39 L 156.26 155.43 C 156.27 154.59 155.59 153.90 154.75 153.89 C 153.91 153.88 153.22 154.55 153.21 155.40 Z M 153.21 156.20 L 153.09 157.22 C 153.00 158.06 153.60 158.81 154.44 158.91 C 155.27 159.00 156.03 158.40 156.12 157.56 L 156.24 156.54 C 156.33 155.71 155.73 154.95 154.89 154.86 C 154.06 154.76 153.30 155.36 153.21 156.20 Z M 153.12 157.10 L 152.93 158.07 C 152.77 158.89 153.30 159.69 154.13 159.85 C 154.95 160.01 155.75 159.47 155.91 158.65 L 156.10 157.68 C 156.26 156.86 155.73 156.06 154.90 155.90 C 154.08 155.74 153.28 156.28 153.12 157.10 Z M 152.94 158.02 L 152.84 158.48 C 152.65 159.30 153.16 160.11 153.98 160.30 C 154.80 160.48 155.61 159.97 155.80 159.15 L 155.90 158.69 C 156.09 157.87 155.57 157.06 154.75 156.88 C 153.94 156.69 153.12 157.21 152.94 158.02 Z"
      fill="black"
      fill-rule="nonzero" /><path d="M 155.40 150.60 L 155.98 149.80 C 156.47 149.13 156.33 148.18 155.65 147.69 C 154.98 147.20 154.03 147.34 153.54 148.02 L 152.96 148.81 C 152.47 149.48 152.61 150.43 153.29 150.92 C 153.96 151.42 154.90 151.27 155.40 150.60 Z M 155.52 150.22 L 156.34 149.75 C 157.06 149.33 157.31 148.40 156.90 147.68 C 156.48 146.96 155.55 146.71 154.83 147.12 L 154.00 147.60 C 153.28 148.02 153.03 148.94 153.45 149.67 C 153.87 150.39 154.79 150.64 155.52 150.22 Z M 155.80 149.94 L 156.78 149.80 C 157.61 149.68 158.18 148.91 158.06 148.08 C 157.94 147.25 157.17 146.67 156.34 146.79 L 155.37 146.93 C 154.54 147.05 153.96 147.82 154.08 148.65 C 154.20 149.48 154.97 150.06 155.80 149.94 Z M 156.60 149.81 L 157.66 149.79 C 158.49 149.77 159.16 149.07 159.14 148.23 C 159.12 147.39 158.42 146.73 157.58 146.75 L 156.52 146.78 C 155.68 146.80 155.02 147.49 155.04 148.33 C 155.06 149.17 155.76 149.83 156.60 149.81 Z M 157.63 149.79 L 158.63 149.78 C 159.47 149.77 160.15 149.09 160.14 148.26 C 160.14 147.42 159.45 146.74 158.62 146.75 L 157.61 146.75 C 156.77 146.76 156.10 147.44 156.10 148.28 C 156.11 149.11 156.79 149.79 157.63 149.79 Z M 158.63 149.77 L 159.62 149.77 C 160.45 149.77 161.13 149.10 161.12 148.26 C 161.12 147.43 160.45 146.75 159.61 146.75 L 158.62 146.75 C 157.79 146.75 157.11 147.43 157.11 148.26 C 157.12 149.10 157.79 149.77 158.63 149.77 Z M 159.61 149.77 L 160.62 149.77 C 161.45 149.77 162.13 149.09 162.13 148.26 C 162.13 147.43 161.45 146.76 160.62 146.76 L 159.61 146.76 C 158.78 146.76 158.11 147.43 158.11 148.26 C 158.11 149.09 158.78 149.77 159.61 149.77 Z M 160.62 149.76 L 161.62 149.76 C 162.44 149.76 163.11 149.09 163.11 148.26 C 163.11 147.44 162.44 146.76 161.62 146.76 L 160.62 146.76 C 159.79 146.76 159.12 147.44 159.12 148.26 C 159.12 149.09 159.79 149.76 160.62 149.76 Z M 161.61 149.75 L 162.60 149.75 C 163.42 149.76 164.09 149.09 164.09 148.27 C 164.09 147.45 163.43 146.78 162.60 146.78 L 161.62 146.77 C 160.80 146.77 160.13 147.44 160.13 148.26 C 160.13 149.08 160.79 149.75 161.61 149.75 Z M 162.57 149.74 L 163.57 149.76 C 164.39 149.78 165.06 149.13 165.08 148.32 C 165.09 147.50 164.45 146.83 163.63 146.81 L 162.63 146.79 C 161.82 146.77 161.14 147.42 161.13 148.24 C 161.11 149.05 161.76 149.72 162.57 149.74 Z M 163.52 149.75 L 164.55 149.81 C 165.36 149.85 166.05 149.24 166.10 148.43 C 166.14 147.62 165.53 146.93 164.72 146.89 L 163.69 146.83 C 162.88 146.78 162.19 147.39 162.14 148.20 C 162.10 149.01 162.71 149.70 163.52 149.75 Z M 164.42 149.78 L 165.42 149.93 C 166.21 150.05 166.95 149.51 167.07 148.71 C 167.19 147.92 166.64 147.18 165.85 147.06 L 164.85 146.91 C 164.06 146.79 163.32 147.33 163.20 148.13 C 163.08 148.92 163.63 149.66 164.42 149.78 Z M 165.11 149.85 L 166.04 150.20 C 166.78 150.49 167.62 150.12 167.91 149.38 C 168.20 148.63 167.83 147.79 167.08 147.50 L 166.16 147.15 C 165.41 146.86 164.57 147.23 164.28 147.97 C 163.99 148.72 164.36 149.56 165.11 149.85 Z M 165.69 150.01 L 166.47 150.59 C 167.11 151.07 168.01 150.94 168.49 150.30 C 168.97 149.67 168.84 148.77 168.20 148.29 L 167.42 147.70 C 166.79 147.23 165.89 147.35 165.41 147.99 C 164.93 148.62 165.06 149.53 165.69 150.01 Z M 166.38 150.51 L 166.54 150.65 C 167.13 151.18 168.04 151.12 168.56 150.53 C 169.09 149.94 169.04 149.03 168.44 148.50 L 168.29 148.37 C 167.70 147.84 166.79 147.89 166.26 148.49 C 165.74 149.08 165.79 149.99 166.38 150.51 Z"
      fill="black"
      fill-rule="nonzero" /><path d="M 160.11 151.11 L 160.08 152.05 C 160.06 152.88 160.71 153.58 161.54 153.60 C 162.38 153.63 163.07 152.98 163.10 152.14 L 163.13 151.21 C 163.16 150.38 162.51 149.68 161.67 149.65 C 160.84 149.63 160.14 150.28 160.11 151.11 Z M 160.02 152.08 L 160.01 153.14 C 160.00 154.01 160.70 154.72 161.57 154.73 C 162.44 154.73 163.15 154.04 163.16 153.17 L 163.17 152.11 C 163.18 151.24 162.48 150.53 161.61 150.52 C 160.74 150.51 160.03 151.21 160.02 152.08 Z M 159.98 153.17 L 159.99 154.19 C 160.00 155.07 160.73 155.78 161.62 155.77 C 162.50 155.76 163.21 155.03 163.20 154.14 L 163.19 153.13 C 163.18 152.24 162.45 151.54 161.56 151.55 C 160.68 151.56 159.97 152.29 159.98 153.17 Z M 159.99 154.21 L 160.01 155.21 C 160.03 156.10 160.77 156.80 161.66 156.78 C 162.55 156.76 163.25 156.02 163.23 155.13 L 163.21 154.12 C 163.18 153.24 162.44 152.53 161.55 152.56 C 160.67 152.58 159.96 153.32 159.99 154.21 Z M 160.01 155.23 L 160.05 156.27 C 160.08 157.16 160.83 157.86 161.72 157.83 C 162.61 157.80 163.30 157.05 163.27 156.16 L 163.23 155.11 C 163.20 154.22 162.45 153.53 161.56 153.56 C 160.67 153.59 159.98 154.34 160.01 155.23 Z M 160.04 156.28 L 160.08 157.23 C 160.12 158.12 160.87 158.81 161.76 158.77 C 162.66 158.74 163.35 157.98 163.31 157.09 L 163.27 156.15 C 163.23 155.26 162.48 154.56 161.59 154.60 C 160.70 154.64 160.01 155.39 160.04 156.28 Z M 160.08 157.22 L 160.12 158.21 C 160.16 159.10 160.91 159.80 161.80 159.76 C 162.69 159.73 163.38 158.98 163.35 158.08 L 163.31 157.10 C 163.28 156.20 162.53 155.51 161.63 155.54 C 160.74 155.58 160.05 156.33 160.08 157.22 Z M 160.12 158.22 L 160.17 159.23 C 160.21 160.12 160.97 160.81 161.86 160.77 C 162.75 160.73 163.44 159.97 163.40 159.08 L 163.35 158.07 C 163.31 157.18 162.55 156.49 161.66 156.53 C 160.77 156.57 160.08 157.33 160.12 158.22 Z M 160.17 159.25 L 160.23 160.25 C 160.28 161.14 161.05 161.82 161.94 161.77 C 162.83 161.71 163.51 160.95 163.46 160.05 L 163.40 159.06 C 163.34 158.17 162.58 157.49 161.69 157.54 C 160.79 157.60 160.11 158.36 160.17 159.25 Z M 160.23 160.24 L 160.28 161.24 C 160.33 162.13 161.09 162.81 161.99 162.76 C 162.88 162.72 163.56 161.95 163.51 161.06 L 163.46 160.06 C 163.41 159.17 162.65 158.49 161.75 158.53 C 160.86 158.58 160.18 159.35 160.23 160.24 Z M 160.28 161.22 L 160.32 162.22 C 160.36 163.11 161.12 163.81 162.01 163.77 C 162.90 163.73 163.60 162.97 163.56 162.08 L 163.52 161.08 C 163.48 160.18 162.72 159.49 161.83 159.53 C 160.93 159.57 160.24 160.32 160.28 161.22 Z M 160.32 162.21 L 160.36 163.21 C 160.39 164.11 161.14 164.81 162.04 164.78 C 162.93 164.74 163.63 163.99 163.60 163.10 L 163.56 162.09 C 163.53 161.19 162.78 160.49 161.88 160.53 C 160.99 160.56 160.29 161.31 160.32 162.21 Z M 160.35 163.21 L 160.39 164.21 C 160.42 165.11 161.17 165.81 162.07 165.78 C 162.96 165.75 163.66 165.00 163.63 164.10 L 163.60 163.10 C 163.57 162.20 162.82 161.50 161.92 161.53 C 161.03 161.56 160.32 162.31 160.35 163.21 Z M 160.39 164.21 L 160.42 165.22 C 160.45 166.11 161.20 166.82 162.10 166.79 C 163.00 166.76 163.70 166.00 163.67 165.11 L 163.64 164.10 C 163.61 163.20 162.85 162.50 161.96 162.53 C 161.06 162.56 160.36 163.31 160.39 164.21 Z M 160.42 165.22 L 160.45 166.21 C 160.49 167.11 161.24 167.81 162.14 167.78 C 163.04 167.75 163.74 167.00 163.71 166.10 L 163.67 165.10 C 163.64 164.21 162.88 163.50 161.99 163.54 C 161.09 163.57 160.39 164.32 160.42 165.22 Z M 160.45 166.22 L 160.49 167.21 C 160.53 168.11 161.29 168.81 162.18 168.77 C 163.08 168.74 163.78 167.98 163.75 167.08 L 163.71 166.09 C 163.67 165.19 162.91 164.50 162.02 164.53 C 161.12 164.57 160.42 165.32 160.45 166.22 Z M 160.49 167.21 L 160.53 168.21 C 160.57 169.11 161.33 169.81 162.22 169.77 C 163.12 169.74 163.82 168.98 163.78 168.08 L 163.74 167.08 C 163.71 166.18 162.95 165.49 162.05 165.52 C 161.16 165.56 160.46 166.31 160.49 167.21 Z M 160.54 168.21 L 160.57 169.14 C 160.60 170.04 161.35 170.74 162.25 170.71 C 163.15 170.68 163.85 169.92 163.82 169.03 L 163.78 168.09 C 163.75 167.20 163.00 166.49 162.10 166.52 C 161.21 166.56 160.50 167.31 160.54 168.21 Z M 160.57 169.13 L 160.60 170.19 C 160.63 171.09 161.37 171.79 162.27 171.76 C 163.17 171.74 163.87 170.99 163.85 170.09 L 163.82 169.04 C 163.79 168.14 163.04 167.43 162.14 167.46 C 161.25 167.49 160.54 168.23 160.57 169.13 Z M 160.60 170.18 L 160.62 171.12 C 160.65 172.02 161.39 172.73 162.29 172.71 C 163.18 172.68 163.89 171.94 163.87 171.04 L 163.85 170.10 C 163.82 169.21 163.08 168.50 162.18 168.52 C 161.29 168.54 160.58 169.29 160.60 170.18 Z M 160.63 171.12 L 160.65 172.13 C 160.66 173.03 161.40 173.74 162.30 173.72 C 163.19 173.70 163.90 172.97 163.89 172.07 L 163.87 171.05 C 163.85 170.16 163.11 169.45 162.21 169.46 C 161.32 169.48 160.61 170.22 160.63 171.12 Z M 160.65 172.12 L 160.66 173.26 C 160.67 174.15 161.41 174.87 162.30 174.86 C 163.19 174.85 163.91 174.11 163.90 173.22 L 163.89 172.08 C 163.87 171.19 163.14 170.47 162.25 170.48 C 161.35 170.49 160.64 171.23 160.65 172.12 Z M 160.66 173.25 L 160.67 174.44 C 160.67 175.33 161.40 176.05 162.29 176.05 C 163.19 176.04 163.91 175.31 163.90 174.42 L 163.90 173.23 C 163.89 172.34 163.17 171.62 162.27 171.62 C 161.38 171.63 160.66 172.35 160.66 173.25 Z M 160.67 174.43 L 160.67 175.09 C 160.67 175.98 161.40 176.70 162.29 176.70 C 163.18 176.70 163.90 175.97 163.90 175.08 L 163.90 174.43 C 163.90 173.53 163.18 172.81 162.28 172.81 C 161.39 172.81 160.67 173.54 160.67 174.43 Z M 163.88 175.10 L 163.90 174.17 C 163.91 173.29 163.20 172.56 162.32 172.55 C 161.44 172.54 160.71 173.25 160.70 174.13 L 160.69 175.06 C 160.68 175.95 161.38 176.67 162.27 176.68 C 163.15 176.69 163.87 175.99 163.88 175.10 Z M 163.84 174.20 L 163.87 173.20 C 163.90 172.35 163.23 171.64 162.38 171.61 C 161.53 171.58 160.82 172.25 160.79 173.10 L 160.76 174.10 C 160.73 174.95 161.40 175.66 162.25 175.69 C 163.10 175.72 163.81 175.05 163.84 174.20 Z M 163.81 173.21 L 163.83 172.74 C 163.86 171.92 163.23 171.23 162.41 171.20 C 161.59 171.17 160.90 171.80 160.87 172.62 L 160.85 173.09 C 160.82 173.91 161.45 174.60 162.27 174.63 C 163.09 174.66 163.78 174.03 163.81 173.21 Z"
      fill="black"
      fill-rule="nonzero" /></svg>