<svg xmlns="http://www.w3.org/2000/svg" width="300" height="300" viewBox="0 0 300 300">
<path d="M 135.45 128.74 L 136.37 129.03 C 137.18 129.29 138.05 128.84 138.31 128.03 C 138.57 127.22 138.12 126.35 137.31 126.09 L 136.39 125.80 C 135.58 125.54 134.72 125.99 134.46 126.80 C 134.20 127.61 134.64 128.48 135.45 128.74 Z M 136.56 129.10 L 137.56 129.29 C 138.41 129.44 139.23 128.88 139.39 128.03 C 139.54 127.18 138.98 126.36 138.13 126.21 L 137.12 126.02 C 136.27 125.87 135.46 126.43 135.30 127.28 C 135.14 128.13 135.71 128.95 136.56 129.10 Z M 137.80 129.32 L 138.74 129.35 C 139.61 129.37 140.34 128.69 140.36 127.82 C 140.38 126.95 139.70 126.22 138.83 126.20 L 137.89 126.17 C 137.02 126.15 136.29 126.83 136.27 127.70 C 136.25 128.58 136.93 129.30 137.80 129.32 Z M 138.88 129.35 L 139.92 129.28 C 140.79 129.23 141.45 128.48 141.39 127.61 C 141.34 126.74 140.59 126.08 139.72 126.13 L 138.68 126.20 C 137.81 126.25 137.15 127.00 137.21 127.87 C 137.26 128.74 138.01 129.40 138.88 129.35 Z M 140.00 129.27 L 140.94 129.17 C 141.81 129.07 142.43 128.29 142.33 127.42 C 142.24 126.56 141.46 125.94 140.59 126.03 L 139.64 126.14 C 138.78 126.24 138.16 127.02 138.25 127.88 C 138.35 128.75 139.13 129.37 140.00 129.27 Z M 140.99 129.16 L 141.92 129.03 C 142.78 128.90 143.38 128.11 143.26 127.25 C 143.13 126.38 142.33 125.79 141.47 125.91 L 140.55 126.04 C 139.68 126.16 139.09 126.96 139.21 127.82 C 139.33 128.68 140.13 129.28 140.99 129.16 Z M 141.95 129.02 L 142.99 128.85 C 143.85 128.70 144.43 127.90 144.29 127.04 C 144.15 126.18 143.34 125.60 142.48 125.74 L 141.44 125.92 C 140.58 126.06 140.00 126.87 140.15 127.73 C 140.29 128.58 141.10 129.16 141.95 129.02 Z M 143.02 128.84 L 144.04 128.66 C 144.89 128.50 145.45 127.68 145.30 126.83 C 145.14 125.98 144.33 125.41 143.47 125.57 L 142.46 125.75 C 141.60 125.91 141.04 126.72 141.19 127.58 C 141.35 128.43 142.16 129.00 143.02 128.84 Z M 144.05 128.65 L 144.98 128.47 C 145.83 128.31 146.38 127.49 146.22 126.64 C 146.06 125.79 145.24 125.23 144.39 125.39 L 143.46 125.57 C 142.61 125.73 142.05 126.56 142.22 127.40 C 142.38 128.25 143.20 128.81 144.05 128.65 Z M 144.99 128.47 L 145.97 128.27 C 146.82 128.10 147.37 127.28 147.20 126.43 C 147.04 125.59 146.21 125.04 145.37 125.20 L 144.38 125.40 C 143.53 125.57 142.98 126.39 143.15 127.24 C 143.32 128.08 144.14 128.63 144.99 128.47 Z M 145.98 128.26 L 147.01 128.05 C 147.85 127.88 148.39 127.06 148.22 126.21 C 148.05 125.37 147.22 124.83 146.38 125.00 L 145.36 125.21 C 144.51 125.38 143.97 126.21 144.14 127.05 C 144.32 127.89 145.14 128.44 145.98 128.26 Z M 147.02 128.05 L 148.05 127.83 C 148.89 127.65 149.43 126.83 149.25 125.99 C 149.07 125.15 148.25 124.61 147.41 124.79 L 146.37 125.01 C 145.53 125.18 144.99 126.01 145.17 126.85 C 145.35 127.69 146.18 128.23 147.02 128.05 Z M 148.06 127.82 L 149.12 127.59 C 149.95 127.40 150.48 126.58 150.30 125.75 C 150.12 124.91 149.29 124.39 148.46 124.57 L 147.40 124.80 C 146.57 124.98 146.04 125.80 146.22 126.64 C 146.40 127.47 147.23 128.00 148.06 127.82 Z M 149.12 127.57 L 150.15 127.34 C 150.98 127.16 151.50 126.34 151.31 125.51 C 151.13 124.69 150.31 124.17 149.48 124.35 L 148.46 124.58 C 147.63 124.77 147.11 125.59 147.29 126.41 C 147.48 127.24 148.30 127.76 149.12 127.57 Z M 150.15 127.33 L 151.12 127.11 C 151.94 126.92 152.45 126.11 152.27 125.29 C 152.08 124.47 151.27 123.96 150.45 124.15 L 149.48 124.37 C 148.66 124.55 148.15 125.37 148.34 126.19 C 148.52 127.00 149.34 127.51 150.15 127.33 Z M 151.13 127.09 L 152.01 126.89 C 152.82 126.70 153.33 125.89 153.14 125.08 C 152.95 124.27 152.14 123.77 151.33 123.95 L 150.45 124.16 C 149.64 124.35 149.13 125.16 149.32 125.97 C 149.51 126.78 150.32 127.28 151.13 127.09 Z M 152.02 126.87 L 153.03 126.63 C 153.83 126.44 154.33 125.64 154.14 124.84 C 153.95 124.04 153.15 123.54 152.35 123.73 L 151.33 123.97 C 150.53 124.16 150.03 124.96 150.22 125.76 C 150.41 126.56 151.21 127.06 152.02 126.87 Z M 153.03 126.61 L 154.00 126.39 C 154.79 126.20 155.28 125.40 155.09 124.61 C 154.90 123.82 154.11 123.33 153.32 123.52 L 152.35 123.74 C 151.56 123.93 151.07 124.73 151.26 125.52 C 151.44 126.31 152.24 126.80 153.03 126.61 Z M 153.99 126.37 L 154.90 126.16 C 155.68 125.98 156.17 125.19 155.99 124.41 C 155.80 123.62 155.02 123.14 154.23 123.32 L 153.33 123.53 C 152.54 123.71 152.05 124.50 152.24 125.28 C 152.42 126.07 153.20 126.55 153.99 126.37 Z M 154.88 126.15 L 155.81 125.94 C 156.59 125.77 157.08 124.99 156.90 124.21 C 156.73 123.43 155.95 122.94 155.17 123.12 L 154.25 123.33 C 153.47 123.50 152.98 124.28 153.15 125.06 C 153.33 125.84 154.10 126.33 154.88 126.15 Z M 155.80 125.94 L 156.77 125.72 C 157.55 125.55 158.04 124.79 157.87 124.01 C 157.70 123.23 156.93 122.74 156.16 122.91 L 155.18 123.12 C 154.41 123.29 153.92 124.06 154.09 124.84 C 154.26 125.61 155.02 126.11 155.80 125.94 Z M 156.77 125.72 L 157.77 125.50 C 158.55 125.34 159.04 124.57 158.87 123.80 C 158.70 123.02 157.94 122.53 157.17 122.70 L 156.16 122.91 C 155.39 123.08 154.90 123.84 155.06 124.62 C 155.23 125.39 155.99 125.89 156.77 125.72 Z M 157.77 125.50 L 158.11 125.43 C 158.88 125.26 159.37 124.50 159.21 123.73 C 159.04 122.95 158.28 122.46 157.51 122.63 L 157.17 122.70 C 156.40 122.87 155.90 123.63 156.07 124.40 C 156.24 125.17 157.00 125.67 157.77 125.50 Z"
      fill="black"
      fill-rule="nonzero" /><path d="M 146.12 119.74 L 146.26 120.79 C 146.37 121.60 147.11 122.17 147.91 122.06 C 148.72 121.96 149.29 121.22 149.18 120.41 L 149.05 119.35 C 148.94 118.55 148.20 117.98 147.39 118.08 C 146.59 118.19 146.02 118.93 146.12 119.74 Z M 146.22 120.82 L 146.36 121.80 C 146.48 122.63 147.25 123.20 148.08 123.08 C 148.91 122.96 149.49 122.19 149.37 121.36 L 149.23 120.38 C 149.11 119.55 148.34 118.98 147.51 119.10 C 146.68 119.22 146.10 119.99 146.22 120.82 Z M 146.34 121.86 L 146.52 122.85 C 146.68 123.70 147.49 124.25 148.33 124.10 C 149.17 123.94 149.73 123.13 149.57 122.29 L 149.39 121.30 C 149.24 120.45 148.43 119.90 147.58 120.05 C 146.74 120.21 146.18 121.02 146.34 121.86 Z M 146.52 122.93 L 146.74 123.86 C 146.94 124.70 147.78 125.22 148.62 125.02 C 149.47 124.83 149.99 123.98 149.79 123.14 L 149.57 122.21 C 149.38 121.37 148.53 120.85 147.69 121.05 C 146.85 121.24 146.32 122.09 146.52 122.93 Z M 146.73 123.85 L 146.95 124.79 C 147.14 125.64 147.99 126.16 148.83 125.97 C 149.68 125.78 150.21 124.93 150.01 124.09 L 149.80 123.15 C 149.60 122.30 148.76 121.77 147.91 121.97 C 147.07 122.16 146.54 123.00 146.73 123.85 Z M 146.94 124.77 L 147.16 125.76 C 147.34 126.61 148.18 127.15 149.03 126.96 C 149.88 126.78 150.42 125.94 150.23 125.09 L 150.02 124.11 C 149.84 123.26 149.00 122.72 148.15 122.90 C 147.30 123.08 146.76 123.92 146.94 124.77 Z M 147.16 125.76 L 147.36 126.72 C 147.54 127.57 148.38 128.12 149.23 127.94 C 150.08 127.75 150.62 126.92 150.44 126.07 L 150.24 125.10 C 150.05 124.25 149.22 123.71 148.37 123.89 C 147.52 124.07 146.97 124.91 147.16 125.76 Z M 147.36 126.70 L 147.55 127.69 C 147.72 128.54 148.55 129.09 149.40 128.92 C 150.26 128.75 150.81 127.92 150.64 127.07 L 150.45 126.09 C 150.28 125.24 149.45 124.68 148.59 124.85 C 147.74 125.02 147.19 125.85 147.36 126.70 Z M 147.55 127.66 L 147.72 128.63 C 147.87 129.49 148.69 130.06 149.55 129.90 C 150.41 129.75 150.98 128.93 150.82 128.08 L 150.65 127.10 C 150.49 126.24 149.68 125.68 148.82 125.83 C 147.96 125.98 147.39 126.80 147.55 127.66 Z M 147.72 128.60 L 147.88 129.61 C 148.02 130.46 148.83 131.05 149.68 130.91 C 150.54 130.77 151.13 129.96 150.99 129.10 L 150.83 128.10 C 150.69 127.24 149.88 126.66 149.02 126.80 C 148.16 126.94 147.58 127.75 147.72 128.60 Z M 147.87 129.59 L 148.02 130.58 C 148.15 131.44 148.95 132.03 149.81 131.91 C 150.67 131.78 151.27 130.98 151.14 130.12 L 150.99 129.12 C 150.86 128.26 150.06 127.67 149.20 127.80 C 148.34 127.92 147.75 128.72 147.87 129.59 Z M 148.02 130.56 L 148.16 131.56 C 148.28 132.42 149.07 133.03 149.93 132.91 C 150.79 132.79 151.40 132.00 151.28 131.13 L 151.14 130.13 C 151.02 129.27 150.23 128.67 149.37 128.79 C 148.50 128.90 147.90 129.70 148.02 130.56 Z M 148.15 131.54 L 148.28 132.53 C 148.39 133.40 149.17 134.01 150.04 133.90 C 150.90 133.79 151.51 133.01 151.41 132.14 L 151.28 131.15 C 151.17 130.29 150.39 129.68 149.52 129.78 C 148.66 129.89 148.05 130.68 148.15 131.54 Z M 148.28 132.50 L 148.38 133.49 C 148.47 134.36 149.24 134.99 150.11 134.90 C 150.97 134.81 151.60 134.03 151.51 133.17 L 151.41 132.18 C 151.32 131.31 150.54 130.68 149.68 130.77 C 148.81 130.86 148.19 131.64 148.28 132.50 Z M 148.38 133.46 L 148.46 134.44 C 148.52 135.31 149.28 135.96 150.15 135.89 C 151.01 135.82 151.66 135.06 151.59 134.20 L 151.51 133.21 C 151.45 132.34 150.69 131.69 149.82 131.76 C 148.96 131.83 148.31 132.59 148.38 133.46 Z M 148.45 134.42 L 148.52 135.42 C 148.57 136.29 149.32 136.95 150.19 136.89 C 151.05 136.84 151.71 136.09 151.66 135.23 L 151.59 134.22 C 151.54 133.36 150.79 132.70 149.92 132.75 C 149.06 132.81 148.40 133.55 148.45 134.42 Z M 148.52 135.42 L 148.58 136.42 C 148.63 137.29 149.37 137.95 150.23 137.90 C 151.10 137.85 151.76 137.11 151.71 136.24 L 151.66 135.24 C 151.61 134.37 150.86 133.71 150.00 133.76 C 149.13 133.81 148.47 134.55 148.52 135.42 Z M 148.58 136.41 L 148.63 137.41 C 148.67 138.28 149.41 138.94 150.28 138.90 C 151.14 138.85 151.81 138.12 151.76 137.25 L 151.71 136.25 C 151.67 135.39 150.93 134.72 150.06 134.77 C 149.20 134.81 148.53 135.55 148.58 136.41 Z M 148.63 137.40 L 148.67 138.40 C 148.71 139.26 149.44 139.93 150.30 139.90 C 151.17 139.86 151.84 139.13 151.80 138.27 L 151.76 137.27 C 151.73 136.40 151.00 135.73 150.13 135.76 C 149.27 135.80 148.59 136.53 148.63 137.40 Z M 148.67 138.38 L 148.70 139.37 C 148.73 140.24 149.45 140.92 150.31 140.90 C 151.18 140.87 151.86 140.15 151.83 139.28 L 151.80 138.29 C 151.78 137.42 151.06 136.74 150.19 136.77 C 149.33 136.79 148.65 137.51 148.67 138.38 Z M 148.70 139.35 L 148.72 140.34 C 148.73 141.21 149.44 141.90 150.31 141.89 C 151.17 141.87 151.86 141.16 151.85 140.30 L 151.83 139.30 C 151.82 138.44 151.11 137.75 150.24 137.76 C 149.38 137.78 148.69 138.49 148.70 139.35 Z M 148.72 140.33 L 148.72 141.33 C 148.73 142.19 149.43 142.89 150.29 142.88 C 151.16 142.88 151.85 142.17 151.85 141.31 L 151.85 140.31 C 151.84 139.45 151.14 138.75 150.28 138.76 C 149.41 138.76 148.72 139.46 148.72 140.33 Z M 148.73 141.32 L 148.73 142.30 C 148.73 143.16 149.43 143.86 150.29 143.86 C 151.15 143.86 151.85 143.16 151.85 142.30 L 151.85 141.32 C 151.85 140.46 151.15 139.76 150.29 139.76 C 149.43 139.76 148.73 140.46 148.73 141.32 Z M 148.73 142.30 L 148.73 143.27 C 148.73 144.13 149.43 144.82 150.29 144.82 C 151.15 144.82 151.84 144.13 151.84 143.27 L 151.84 142.30 C 151.84 141.44 151.15 140.75 150.29 140.75 C 149.43 140.75 148.73 141.44 148.73 142.30 Z M 148.74 143.27 L 148.74 144.32 C 148.74 145.18 149.43 145.87 150.29 145.87 C 151.15 145.87 151.84 145.18 151.84 144.32 L 151.84 143.27 C 151.84 142.41 151.15 141.72 150.29 141.72 C 149.43 141.72 148.74 142.41 148.74 143.27 Z M 148.74 144.32 L 148.74 145.32 C 148.73 146.18 149.42 146.87 150.28 146.88 C 151.14 146.88 151.83 146.19 151.83 145.33 L 151.84 144.33 C 151.84 143.47 151.15 142.78 150.29 142.77 C 149.44 142.77 148.74 143.46 148.74 144.32 Z M 148.74 145.29 L 148.72 146.31 C 148.70 147.17 149.38 147.87 150.23 147.89 C 151.09 147.91 151.79 147.23 151.81 146.38 L 151.83 145.36 C 151.85 144.50 151.17 143.80 150.32 143.78 C 149.46 143.76 148.76 144.44 148.74 145.29 Z M 148.72 146.25 L 148.66 147.28 C 148.61 148.13 149.26 148.86 150.11 148.92 C 150.96 148.97 151.69 148.32 151.74 147.47 L 151.80 146.44 C 151.86 145.59 151.21 144.86 150.36 144.81 C 149.51 144.75 148.78 145.40 148.72 146.25 Z M 148.68 147.15 L 148.53 148.16 C 148.40 149.00 148.98 149.78 149.82 149.91 C 150.66 150.03 151.44 149.45 151.57 148.62 L 151.72 147.61 C 151.85 146.77 151.27 145.98 150.43 145.86 C 149.59 145.73 148.81 146.31 148.68 147.15 Z M 148.60 147.92 L 148.29 148.85 C 148.03 149.65 148.47 150.51 149.27 150.77 C 150.07 151.03 150.93 150.60 151.19 149.80 L 151.50 148.86 C 151.76 148.06 151.32 147.20 150.52 146.94 C 149.72 146.68 148.86 147.12 148.60 147.92 Z M 148.60 148.34 L 147.99 149.04 C 147.45 149.67 147.52 150.62 148.15 151.17 C 148.78 151.72 149.73 151.65 150.28 151.01 L 150.89 150.31 C 151.43 149.68 151.36 148.73 150.73 148.18 C 150.10 147.64 149.15 147.70 148.60 148.34 Z M 149.70 148.65 L 148.90 148.33 C 148.14 148.02 147.27 148.38 146.96 149.14 C 146.66 149.90 147.02 150.77 147.78 151.08 L 148.58 151.40 C 149.34 151.71 150.20 151.35 150.51 150.59 C 150.82 149.83 150.46 148.96 149.70 148.65 Z M 149.32 148.62 L 148.97 148.30 C 148.37 147.76 147.45 147.80 146.91 148.40 C 146.36 148.99 146.41 149.92 147.00 150.46 L 147.36 150.78 C 147.95 151.32 148.88 151.28 149.42 150.69 C 149.96 150.09 149.92 149.17 149.32 148.62 Z"
      fill="black"
      fill-rule="nonzero" /><path d="M 150.00 130.54 L 149.19 131.10 C 148.48 131.60 148.30 132.57 148.79 133.28 C 149.28 133.99 150.25 134.16 150.96 133.67 L 151.78 133.11 C 152.49 132.62 152.66 131.64 152.17 130.93 C 151.68 130.23 150.71 130.05 150.00 130.54 Z M 148.99 131.22 L 148.26 131.89 C 147.62 132.49 147.58 133.50 148.18 134.15 C 148.78 134.79 149.79 134.83 150.43 134.23 L 151.16 133.56 C 151.81 132.96 151.84 131.95 151.24 131.30 C 150.64 130.66 149.63 130.62 148.99 131.22 Z M 148.05 132.11 L 147.54 132.80 C 147.01 133.52 147.17 134.53 147.89 135.06 C 148.61 135.58 149.62 135.43 150.14 134.71 L 150.65 134.02 C 151.18 133.30 151.02 132.29 150.30 131.76 C 149.58 131.23 148.57 131.39 148.05 132.11 Z M 147.47 132.91 L 146.91 133.80 C 146.44 134.56 146.68 135.56 147.44 136.03 C 148.20 136.49 149.19 136.26 149.66 135.50 L 150.21 134.60 C 150.68 133.85 150.45 132.85 149.69 132.38 C 148.93 131.91 147.93 132.15 147.47 132.91 Z M 146.91 133.80 L 146.36 134.69 C 145.89 135.45 146.13 136.44 146.89 136.91 C 147.65 137.38 148.64 137.15 149.11 136.39 L 149.66 135.50 C 150.13 134.74 149.90 133.75 149.14 133.28 C 148.38 132.81 147.38 133.04 146.91 133.80 Z M 146.38 134.67 L 145.84 135.50 C 145.36 136.25 145.58 137.25 146.33 137.74 C 147.08 138.22 148.08 138.00 148.56 137.25 L 149.10 136.41 C 149.58 135.66 149.36 134.66 148.61 134.18 C 147.86 133.70 146.86 133.91 146.38 134.67 Z M 145.85 135.49 L 145.28 136.36 C 144.79 137.10 145.00 138.11 145.74 138.60 C 146.49 139.09 147.50 138.88 147.99 138.13 L 148.56 137.26 C 149.05 136.51 148.84 135.51 148.09 135.02 C 147.34 134.53 146.34 134.74 145.85 135.49 Z M 145.29 136.34 L 144.71 137.20 C 144.22 137.94 144.42 138.95 145.16 139.44 C 145.91 139.94 146.91 139.74 147.41 139.00 L 147.98 138.14 C 148.48 137.40 148.28 136.39 147.53 135.90 C 146.79 135.40 145.78 135.60 145.29 136.34 Z M 144.72 137.18 L 144.09 138.12 C 143.58 138.86 143.77 139.86 144.51 140.37 C 145.25 140.87 146.26 140.68 146.76 139.94 L 147.40 139.01 C 147.91 138.27 147.71 137.26 146.97 136.76 C 146.24 136.25 145.23 136.44 144.72 137.18 Z M 144.10 138.10 L 143.51 138.95 C 143.00 139.68 143.18 140.69 143.91 141.20 C 144.64 141.71 145.65 141.53 146.16 140.80 L 146.75 139.96 C 147.27 139.22 147.09 138.21 146.35 137.70 C 145.62 137.19 144.61 137.37 144.10 138.10 Z M 143.52 138.93 L 143.00 139.65 C 142.48 140.37 142.65 141.38 143.37 141.91 C 144.10 142.43 145.11 142.26 145.63 141.54 L 146.15 140.82 C 146.67 140.09 146.51 139.08 145.78 138.56 C 145.06 138.04 144.04 138.20 143.52 138.93 Z M 143.03 139.62 L 142.40 140.45 C 141.86 141.17 142.01 142.18 142.72 142.72 C 143.43 143.26 144.45 143.11 144.98 142.40 L 145.61 141.56 C 146.15 140.85 146.01 139.84 145.29 139.30 C 144.58 138.76 143.56 138.91 143.03 139.62 Z M 142.44 140.41 L 141.85 141.13 C 141.29 141.83 141.40 142.84 142.09 143.40 C 142.79 143.96 143.80 143.85 144.36 143.16 L 144.95 142.44 C 145.51 141.75 145.40 140.73 144.71 140.17 C 144.01 139.61 143.00 139.72 142.44 140.41 Z M 141.89 141.10 L 141.25 141.84 C 140.67 142.51 140.74 143.53 141.41 144.11 C 142.09 144.69 143.10 144.62 143.68 143.94 L 144.33 143.20 C 144.91 142.53 144.83 141.51 144.16 140.93 C 143.49 140.35 142.47 140.42 141.89 141.10 Z M 141.27 141.82 L 140.60 142.57 C 140.01 143.23 140.07 144.25 140.73 144.84 C 141.40 145.43 142.41 145.37 143.00 144.71 L 143.67 143.96 C 144.26 143.30 144.20 142.28 143.53 141.69 C 142.87 141.10 141.86 141.16 141.27 141.82 Z M 140.61 142.57 L 139.95 143.30 C 139.36 143.96 139.41 144.97 140.07 145.57 C 140.72 146.16 141.74 146.10 142.33 145.45 L 142.99 144.71 C 143.58 144.05 143.53 143.04 142.87 142.45 C 142.22 141.86 141.20 141.91 140.61 142.57 Z M 139.96 143.30 L 139.34 143.98 C 138.74 144.63 138.78 145.63 139.43 146.23 C 140.08 146.83 141.09 146.78 141.69 146.14 L 142.31 145.46 C 142.91 144.81 142.87 143.80 142.22 143.20 C 141.57 142.61 140.56 142.65 139.96 143.30 Z M 139.40 143.93 L 138.72 144.59 C 138.10 145.21 138.09 146.21 138.71 146.84 C 139.33 147.46 140.33 147.47 140.96 146.85 L 141.63 146.18 C 142.25 145.57 142.26 144.56 141.64 143.94 C 141.02 143.32 140.02 143.31 139.40 143.93 Z M 138.81 144.52 L 137.97 145.24 C 137.30 145.81 137.23 146.81 137.80 147.47 C 138.36 148.13 139.36 148.21 140.02 147.64 L 140.87 146.92 C 141.53 146.35 141.61 145.36 141.04 144.69 C 140.47 144.03 139.48 143.95 138.81 144.52 Z M 138.03 145.20 L 137.24 145.81 C 136.55 146.34 136.42 147.33 136.95 148.02 C 137.49 148.71 138.48 148.84 139.16 148.30 L 139.96 147.69 C 140.65 147.16 140.77 146.17 140.24 145.48 C 139.71 144.79 138.72 144.67 138.03 145.20 Z M 137.28 145.78 L 136.43 146.39 C 135.73 146.90 135.57 147.88 136.07 148.59 C 136.58 149.29 137.56 149.45 138.27 148.95 L 139.12 148.33 C 139.82 147.83 139.98 146.85 139.48 146.14 C 138.97 145.44 137.99 145.28 137.28 145.78 Z M 136.49 146.36 L 135.67 146.90 C 134.94 147.37 134.74 148.34 135.21 149.07 C 135.69 149.79 136.66 149.99 137.38 149.52 L 138.21 148.98 C 138.93 148.51 139.13 147.54 138.66 146.81 C 138.19 146.09 137.22 145.89 136.49 146.36 Z M 135.80 146.84 L 134.79 147.37 C 134.03 147.77 133.74 148.71 134.14 149.46 C 134.54 150.22 135.48 150.51 136.23 150.11 L 137.25 149.58 C 138.00 149.18 138.29 148.24 137.90 147.49 C 137.50 146.73 136.56 146.44 135.80 146.84 Z M 135.11 147.28 L 134.27 147.51 C 133.46 147.73 132.98 148.57 133.21 149.38 C 133.43 150.19 134.27 150.66 135.08 150.44 L 135.92 150.21 C 136.73 149.99 137.20 149.15 136.98 148.34 C 136.76 147.53 135.92 147.05 135.11 147.28 Z M 134.75 147.48 L 133.79 147.43 C 132.97 147.39 132.27 148.02 132.22 148.84 C 132.18 149.66 132.81 150.37 133.63 150.41 L 134.59 150.46 C 135.42 150.51 136.12 149.87 136.16 149.05 C 136.21 148.23 135.58 147.53 134.75 147.48 Z M 134.07 147.50 L 133.26 147.29 C 132.47 147.09 131.68 147.57 131.48 148.35 C 131.28 149.14 131.75 149.93 132.53 150.13 L 133.35 150.34 C 134.13 150.54 134.93 150.07 135.13 149.28 C 135.33 148.50 134.86 147.70 134.07 147.50 Z"
      fill="black"
      fill-rule="nonzero" /><path d="M 150.21 138.34 L 151.11 138.69 C 151.86 138.99 152.72 138.62 153.02 137.87 C 153.31 137.11 152.94 136.26 152.19 135.96 L 151.29 135.61 C 150.54 135.31 149.68 135.68 149.38 136.43 C 149.09 137.19 149.46 138.04 150.21 138.34 Z M 151.09 138.69 L 152.01 139.07 C 152.76 139.37 153.62 139.01 153.93 138.26 C 154.24 137.51 153.88 136.64 153.12 136.34 L 152.21 135.96 C 151.45 135.66 150.59 136.02 150.28 136.77 C 149.98 137.53 150.34 138.39 151.09 138.69 Z M 152.00 139.08 L 152.87 139.43 C 153.63 139.74 154.50 139.38 154.81 138.62 C 155.12 137.85 154.75 136.99 153.99 136.68 L 153.13 136.32 C 152.37 136.01 151.50 136.38 151.19 137.14 C 150.88 137.90 151.24 138.77 152.00 139.08 Z M 152.90 139.47 L 153.95 139.85 C 154.73 140.14 155.59 139.75 155.88 138.97 C 156.17 138.18 155.78 137.32 155.00 137.03 L 153.95 136.64 C 153.17 136.35 152.30 136.75 152.01 137.53 C 151.72 138.31 152.12 139.18 152.90 139.47 Z M 153.99 139.89 L 154.95 140.21 C 155.75 140.47 156.61 140.04 156.88 139.24 C 157.14 138.44 156.71 137.58 155.91 137.31 L 154.95 136.99 C 154.15 136.73 153.29 137.16 153.02 137.96 C 152.76 138.76 153.19 139.62 153.99 139.89 Z M 154.97 140.23 L 155.96 140.54 C 156.77 140.79 157.63 140.34 157.89 139.53 C 158.15 138.72 157.69 137.86 156.88 137.60 L 155.89 137.29 C 155.08 137.04 154.22 137.49 153.96 138.30 C 153.71 139.11 154.16 139.97 154.97 140.23 Z M 155.96 140.55 L 156.89 140.85 C 157.71 141.10 158.58 140.65 158.84 139.83 C 159.09 139.01 158.64 138.14 157.82 137.88 L 156.89 137.59 C 156.07 137.33 155.20 137.79 154.94 138.61 C 154.68 139.42 155.14 140.30 155.96 140.55 Z M 156.86 140.84 L 157.89 141.19 C 158.71 141.46 159.59 141.02 159.86 140.20 C 160.14 139.38 159.69 138.50 158.88 138.23 L 157.85 137.88 C 157.03 137.61 156.15 138.05 155.87 138.87 C 155.60 139.69 156.04 140.57 156.86 140.84 Z M 157.86 141.18 L 158.70 141.47 C 159.51 141.76 160.40 141.34 160.69 140.53 C 160.98 139.71 160.56 138.82 159.74 138.53 L 158.90 138.24 C 158.09 137.95 157.20 138.37 156.91 139.18 C 156.62 140.00 157.05 140.89 157.86 141.18 Z M 158.69 141.47 L 159.63 141.81 C 160.44 142.11 161.33 141.69 161.63 140.88 C 161.92 140.07 161.51 139.18 160.70 138.88 L 159.76 138.54 C 158.95 138.24 158.05 138.66 157.76 139.47 C 157.46 140.28 157.88 141.17 158.69 141.47 Z M 159.60 141.80 L 160.49 142.15 C 161.29 142.46 162.19 142.06 162.51 141.26 C 162.82 140.46 162.42 139.55 161.62 139.24 L 160.73 138.89 C 159.92 138.58 159.02 138.98 158.71 139.78 C 158.40 140.58 158.79 141.49 159.60 141.80 Z M 160.44 142.12 L 161.39 142.53 C 162.18 142.86 163.10 142.50 163.43 141.71 C 163.77 140.92 163.40 140.00 162.61 139.67 L 161.66 139.26 C 160.87 138.93 159.96 139.29 159.62 140.08 C 159.29 140.87 159.65 141.79 160.44 142.12 Z M 161.35 142.50 L 162.27 142.92 C 163.04 143.28 163.96 142.95 164.32 142.17 C 164.68 141.40 164.34 140.48 163.57 140.12 L 162.65 139.69 C 161.88 139.33 160.96 139.67 160.60 140.45 C 160.24 141.22 160.58 142.14 161.35 142.50 Z M 162.19 142.88 L 163.08 143.35 C 163.83 143.75 164.76 143.47 165.16 142.73 C 165.56 141.98 165.28 141.05 164.53 140.64 L 163.64 140.17 C 162.90 139.76 161.96 140.05 161.56 140.79 C 161.16 141.54 161.44 142.47 162.19 142.88 Z M 162.93 143.24 L 163.78 143.83 C 164.46 144.31 165.41 144.15 165.89 143.46 C 166.37 142.78 166.20 141.84 165.52 141.36 L 164.68 140.76 C 163.99 140.28 163.05 140.44 162.57 141.13 C 162.09 141.81 162.25 142.75 162.93 143.24 Z M 163.68 143.71 L 164.29 144.23 C 164.90 144.76 165.84 144.70 166.37 144.08 C 166.90 143.46 166.83 142.53 166.22 142.00 L 165.62 141.48 C 165.00 140.94 164.07 141.01 163.53 141.63 C 163.00 142.24 163.07 143.18 163.68 143.71 Z"
      fill="black"
      fill-rule="nonzero" /><path d="M 142.41 154.22 L 143.00 155.03 C 143.48 155.70 144.42 155.86 145.09 155.37 C 145.76 154.89 145.92 153.95 145.43 153.28 L 144.85 152.47 C 144.37 151.79 143.43 151.64 142.76 152.12 C 142.08 152.60 141.93 153.54 142.41 154.22 Z M 142.83 154.90 L 143.30 155.77 C 143.71 156.54 144.67 156.82 145.43 156.41 C 146.20 156.00 146.48 155.05 146.07 154.28 L 145.60 153.41 C 145.19 152.64 144.23 152.36 143.47 152.77 C 142.71 153.18 142.42 154.14 142.83 154.90 Z M 143.14 155.49 L 143.41 156.39 C 143.67 157.25 144.56 157.73 145.42 157.48 C 146.27 157.22 146.75 156.33 146.50 155.48 L 146.23 154.57 C 145.97 153.72 145.08 153.23 144.23 153.49 C 143.38 153.74 142.89 154.64 143.14 155.49 Z M 143.37 156.20 L 143.54 157.23 C 143.69 158.11 144.52 158.70 145.40 158.55 C 146.28 158.40 146.87 157.57 146.72 156.69 L 146.54 155.67 C 146.40 154.79 145.57 154.20 144.69 154.35 C 143.81 154.49 143.22 155.33 143.37 156.20 Z M 143.53 157.18 L 143.67 158.20 C 143.79 159.08 144.60 159.70 145.48 159.59 C 146.36 159.47 146.98 158.66 146.86 157.77 L 146.73 156.75 C 146.61 155.87 145.80 155.25 144.92 155.36 C 144.03 155.48 143.41 156.29 143.53 157.18 Z M 143.67 158.18 L 143.79 159.19 C 143.89 160.07 144.69 160.70 145.58 160.60 C 146.46 160.49 147.09 159.69 146.99 158.81 L 146.87 157.80 C 146.76 156.91 145.96 156.28 145.08 156.39 C 144.19 156.49 143.56 157.29 143.67 158.18 Z M 143.78 159.15 L 143.88 160.17 C 143.96 161.06 144.75 161.71 145.63 161.63 C 146.52 161.54 147.17 160.76 147.09 159.87 L 146.99 158.85 C 146.91 157.96 146.12 157.31 145.24 157.39 C 144.35 157.48 143.70 158.26 143.78 159.15 Z M 143.88 160.11 L 143.93 161.07 C 143.98 161.96 144.74 162.64 145.63 162.59 C 146.51 162.54 147.19 161.78 147.14 160.89 L 147.09 159.93 C 147.04 159.04 146.28 158.37 145.39 158.41 C 144.51 158.46 143.83 159.22 143.88 160.11 Z M 143.93 161.05 L 143.97 162.02 C 144.01 162.90 144.76 163.59 145.64 163.56 C 146.53 163.52 147.22 162.77 147.18 161.88 L 147.14 160.91 C 147.10 160.03 146.36 159.34 145.47 159.37 C 144.58 159.41 143.90 160.16 143.93 161.05 Z M 143.98 162.02 L 144.02 162.97 C 144.06 163.85 144.81 164.54 145.69 164.50 C 146.57 164.46 147.26 163.71 147.22 162.83 L 147.18 161.88 C 147.14 161.00 146.39 160.31 145.51 160.35 C 144.62 160.39 143.94 161.14 143.98 162.02 Z M 144.02 162.96 L 144.06 163.84 C 144.09 164.73 144.83 165.41 145.71 165.38 C 146.59 165.34 147.28 164.60 147.25 163.72 L 147.21 162.84 C 147.18 161.96 146.44 161.27 145.56 161.30 C 144.68 161.34 143.99 162.08 144.02 162.96 Z M 144.06 163.81 L 144.08 164.95 C 144.10 165.83 144.82 166.53 145.70 166.51 C 146.58 166.49 147.28 165.77 147.26 164.89 L 147.24 163.75 C 147.23 162.87 146.50 162.18 145.62 162.19 C 144.74 162.21 144.05 162.93 144.06 163.81 Z M 144.09 164.93 L 144.10 165.93 C 144.10 166.80 144.82 167.50 145.69 167.50 C 146.57 167.49 147.27 166.78 147.27 165.90 L 147.26 164.91 C 147.25 164.03 146.54 163.33 145.66 163.33 C 144.79 163.34 144.08 164.05 144.09 164.93 Z M 144.10 165.92 L 144.11 166.98 C 144.11 167.85 144.82 168.55 145.69 168.55 C 146.56 168.55 147.26 167.84 147.26 166.97 L 147.26 165.91 C 147.26 165.04 146.55 164.34 145.68 164.34 C 144.81 164.34 144.10 165.05 144.10 165.92 Z M 144.11 166.97 L 144.11 167.95 C 144.11 168.82 144.82 169.52 145.68 169.52 C 146.55 169.52 147.25 168.82 147.25 167.95 L 147.25 166.97 C 147.25 166.11 146.55 165.40 145.68 165.40 C 144.82 165.40 144.11 166.11 144.11 166.97 Z M 144.12 167.94 L 144.12 169.11 C 144.11 169.97 144.81 170.67 145.67 170.68 C 146.53 170.68 147.23 169.99 147.24 169.13 L 147.24 167.96 C 147.25 167.10 146.55 166.40 145.69 166.39 C 144.83 166.39 144.13 167.08 144.12 167.94 Z M 144.13 169.03 L 144.08 169.88 C 144.03 170.74 144.68 171.47 145.54 171.52 C 146.39 171.57 147.12 170.92 147.17 170.06 L 147.22 169.21 C 147.27 168.35 146.62 167.62 145.77 167.57 C 144.91 167.52 144.18 168.17 144.13 169.03 Z M 144.13 169.62 L 143.89 170.65 C 143.69 171.48 144.20 172.30 145.03 172.50 C 145.85 172.69 146.68 172.18 146.88 171.36 L 147.12 170.33 C 147.31 169.50 146.80 168.68 145.98 168.48 C 145.16 168.29 144.33 168.80 144.13 169.62 Z M 146.84 170.63 L 146.71 170.14 C 146.51 169.34 145.69 168.85 144.88 169.06 C 144.08 169.27 143.59 170.09 143.80 170.89 L 143.93 171.38 C 144.13 172.18 144.95 172.67 145.76 172.46 C 146.56 172.26 147.05 171.44 146.84 170.63 Z M 146.73 170.48 L 146.70 169.22 C 146.68 168.41 146.01 167.77 145.19 167.79 C 144.38 167.81 143.74 168.48 143.76 169.29 L 143.79 170.55 C 143.81 171.36 144.48 172.00 145.29 171.99 C 146.10 171.97 146.75 171.29 146.73 170.48 Z M 146.68 169.25 L 146.67 168.29 C 146.67 167.48 146.02 166.84 145.21 166.84 C 144.41 166.85 143.77 167.50 143.77 168.30 L 143.78 169.27 C 143.78 170.07 144.44 170.71 145.24 170.71 C 146.04 170.71 146.68 170.05 146.68 169.25 Z M 146.67 168.29 L 146.67 167.25 C 146.67 166.45 146.02 165.81 145.22 165.81 C 144.42 165.81 143.77 166.46 143.77 167.26 L 143.78 168.30 C 143.78 169.10 144.43 169.74 145.23 169.74 C 146.02 169.74 146.67 169.09 146.67 168.29 Z M 146.66 167.26 L 146.66 166.19 C 146.66 165.40 146.02 164.75 145.22 164.75 C 144.42 164.75 143.78 165.40 143.78 166.19 L 143.78 167.26 C 143.78 168.05 144.42 168.70 145.22 168.70 C 146.02 168.70 146.66 168.05 146.66 167.26 Z M 146.66 166.19 L 146.66 165.11 C 146.66 164.31 146.02 163.67 145.22 163.67 C 144.43 163.67 143.78 164.31 143.78 165.11 L 143.78 166.19 C 143.78 166.99 144.42 167.63 145.22 167.63 C 146.01 167.63 146.66 166.99 146.66 166.19 Z M 146.66 165.11 L 146.67 164.15 C 146.67 163.36 146.03 162.71 145.23 162.71 C 144.44 162.70 143.79 163.35 143.79 164.14 L 143.78 165.10 C 143.78 165.90 144.42 166.54 145.21 166.55 C 146.01 166.55 146.66 165.91 146.66 165.11 Z M 146.67 164.17 L 146.68 163.22 C 146.70 162.42 146.06 161.77 145.27 161.76 C 144.47 161.74 143.82 162.38 143.80 163.17 L 143.79 164.12 C 143.77 164.92 144.41 165.57 145.20 165.59 C 146.00 165.60 146.65 164.97 146.67 164.17 Z M 146.68 163.28 L 146.74 162.32 C 146.79 161.53 146.18 160.85 145.39 160.80 C 144.60 160.75 143.91 161.35 143.86 162.15 L 143.80 163.11 C 143.75 163.90 144.36 164.59 145.15 164.63 C 145.95 164.68 146.63 164.08 146.68 163.28 Z M 146.73 162.42 L 146.86 161.47 C 146.96 160.68 146.40 159.95 145.61 159.85 C 144.82 159.75 144.10 160.31 143.99 161.10 L 143.87 162.05 C 143.77 162.84 144.32 163.57 145.12 163.67 C 145.91 163.77 146.63 163.21 146.73 162.42 Z M 146.85 161.54 L 147.03 160.55 C 147.18 159.76 146.66 159.01 145.87 158.86 C 145.08 158.72 144.33 159.24 144.18 160.03 L 144.00 161.02 C 143.85 161.81 144.38 162.56 145.16 162.71 C 145.95 162.85 146.71 162.33 146.85 161.54 Z M 147.02 160.63 L 147.27 159.62 C 147.45 158.83 146.97 158.05 146.19 157.86 C 145.41 157.67 144.62 158.15 144.43 158.94 L 144.19 159.95 C 144.00 160.73 144.49 161.52 145.27 161.71 C 146.05 161.89 146.84 161.41 147.02 160.63 Z M 147.25 159.71 L 147.55 158.75 C 147.79 157.98 147.36 157.16 146.58 156.92 C 145.81 156.68 144.99 157.11 144.75 157.88 L 144.45 158.84 C 144.21 159.61 144.64 160.43 145.42 160.67 C 146.19 160.91 147.01 160.48 147.25 159.71 Z M 147.52 158.85 L 147.88 157.93 C 148.18 157.17 147.80 156.32 147.04 156.02 C 146.29 155.73 145.43 156.10 145.14 156.86 L 144.78 157.78 C 144.48 158.54 144.86 159.39 145.61 159.69 C 146.37 159.98 147.23 159.61 147.52 158.85 Z M 147.85 158.02 L 148.28 157.12 C 148.63 156.38 148.31 155.50 147.57 155.15 C 146.83 154.80 145.95 155.11 145.60 155.85 L 145.17 156.76 C 144.82 157.50 145.14 158.38 145.88 158.73 C 146.62 159.08 147.50 158.76 147.85 158.02 Z M 148.23 157.23 L 148.73 156.36 C 149.14 155.65 148.89 154.74 148.18 154.33 C 147.47 153.91 146.56 154.16 146.15 154.87 L 145.65 155.74 C 145.24 156.45 145.48 157.36 146.19 157.78 C 146.91 158.19 147.82 157.94 148.23 157.23 Z M 148.65 156.50 L 149.24 155.69 C 149.72 155.02 149.58 154.09 148.91 153.60 C 148.24 153.11 147.31 153.26 146.82 153.93 L 146.23 154.73 C 145.74 155.40 145.89 156.34 146.56 156.83 C 147.22 157.31 148.16 157.17 148.65 156.50 Z M 149.12 155.85 L 149.81 155.12 C 150.38 154.51 150.36 153.56 149.75 152.99 C 149.15 152.42 148.19 152.44 147.62 153.05 L 146.93 153.77 C 146.36 154.38 146.39 155.33 146.99 155.90 C 147.60 156.47 148.55 156.45 149.12 155.85 Z M 149.68 155.25 L 150.44 154.62 C 151.09 154.08 151.18 153.13 150.64 152.49 C 150.11 151.84 149.16 151.75 148.51 152.29 L 147.75 152.92 C 147.11 153.45 147.02 154.40 147.55 155.05 C 148.08 155.69 149.04 155.78 149.68 155.25 Z M 150.31 154.72 L 151.14 154.18 C 151.85 153.71 152.04 152.77 151.58 152.07 C 151.12 151.37 150.17 151.17 149.47 151.63 L 148.64 152.18 C 147.94 152.64 147.74 153.59 148.21 154.29 C 148.67 154.99 149.61 155.18 150.31 154.72 Z M 151.00 154.27 L 151.90 153.81 C 152.65 153.42 152.95 152.50 152.56 151.75 C 152.18 151.00 151.26 150.70 150.50 151.09 L 149.61 151.54 C 148.86 151.93 148.56 152.85 148.95 153.60 C 149.33 154.35 150.25 154.65 151.00 154.27 Z M 151.75 153.88 L 152.65 153.54 C 153.44 153.23 153.84 152.34 153.54 151.55 C 153.23 150.76 152.35 150.37 151.55 150.67 L 150.65 151.01 C 149.86 151.32 149.46 152.20 149.77 153.00 C 150.07 153.79 150.96 154.18 151.75 153.88 Z M 152.49 153.59 L 153.45 153.34 C 154.27 153.13 154.77 152.30 154.56 151.47 C 154.35 150.65 153.51 150.15 152.68 150.36 L 151.72 150.61 C 150.90 150.82 150.40 151.66 150.61 152.48 C 150.82 153.31 151.66 153.80 152.49 153.59 Z M 153.27 153.38 L 154.30 153.24 C 155.14 153.13 155.74 152.36 155.62 151.51 C 155.51 150.67 154.74 150.08 153.89 150.19 L 152.86 150.33 C 152.02 150.44 151.43 151.22 151.54 152.06 C 151.65 152.90 152.43 153.50 153.27 153.38 Z M 154.14 153.26 L 155.16 153.23 C 156.01 153.21 156.69 152.50 156.66 151.65 C 156.64 150.80 155.93 150.12 155.08 150.15 L 154.06 150.17 C 153.20 150.20 152.53 150.90 152.55 151.76 C 152.57 152.61 153.28 153.28 154.14 153.26 Z M 154.99 153.23 L 155.99 153.31 C 156.84 153.39 157.59 152.75 157.66 151.90 C 157.73 151.05 157.10 150.30 156.24 150.23 L 155.25 150.15 C 154.40 150.08 153.65 150.71 153.58 151.56 C 153.51 152.41 154.14 153.16 154.99 153.23 Z M 155.75 153.28 L 156.74 153.52 C 157.58 153.72 158.41 153.21 158.61 152.38 C 158.82 151.55 158.31 150.71 157.48 150.51 L 156.48 150.27 C 155.65 150.07 154.81 150.58 154.61 151.41 C 154.41 152.24 154.92 153.08 155.75 153.28 Z M 156.47 153.42 L 157.36 153.83 C 158.14 154.19 159.06 153.85 159.42 153.07 C 159.77 152.29 159.43 151.37 158.65 151.02 L 157.75 150.61 C 156.98 150.25 156.06 150.59 155.70 151.37 C 155.35 152.15 155.69 153.07 156.47 153.42 Z M 157.17 153.73 L 157.99 154.26 C 158.71 154.72 159.67 154.51 160.13 153.79 C 160.59 153.07 160.38 152.11 159.66 151.64 L 158.84 151.12 C 158.12 150.66 157.16 150.86 156.70 151.59 C 156.24 152.31 156.45 153.27 157.17 153.73 Z M 157.85 154.16 L 158.63 154.79 C 159.30 155.33 160.28 155.22 160.82 154.55 C 161.36 153.88 161.25 152.90 160.58 152.36 L 159.80 151.74 C 159.13 151.20 158.15 151.31 157.61 151.98 C 157.07 152.65 157.18 153.63 157.85 154.16 Z M 158.48 154.65 L 159.16 155.37 C 159.76 155.99 160.74 156.02 161.37 155.42 C 161.99 154.83 162.01 153.84 161.42 153.22 L 160.74 152.50 C 160.14 151.88 159.16 151.85 158.53 152.45 C 157.91 153.04 157.88 154.03 158.48 154.65 Z M 159.01 155.19 L 159.58 156.01 C 160.07 156.72 161.04 156.89 161.75 156.40 C 162.46 155.91 162.64 154.94 162.15 154.23 L 161.58 153.41 C 161.08 152.70 160.11 152.52 159.40 153.01 C 158.69 153.50 158.51 154.48 159.01 155.19 Z M 159.45 155.81 L 159.89 156.69 C 160.27 157.47 161.21 157.79 161.99 157.41 C 162.76 157.03 163.09 156.09 162.70 155.31 L 162.27 154.42 C 161.89 153.65 160.95 153.33 160.17 153.71 C 159.39 154.09 159.07 155.03 159.45 155.81 Z M 159.80 156.50 L 160.12 157.44 C 160.39 158.27 161.28 158.72 162.11 158.44 C 162.93 158.17 163.38 157.28 163.10 156.45 L 162.79 155.51 C 162.51 154.68 161.62 154.23 160.80 154.51 C 159.97 154.78 159.53 155.67 159.80 156.50 Z M 160.07 157.28 L 160.28 158.25 C 160.46 159.10 161.30 159.65 162.15 159.46 C 163.00 159.28 163.54 158.44 163.36 157.59 L 163.15 156.62 C 162.97 155.77 162.13 155.22 161.28 155.41 C 160.43 155.59 159.89 156.43 160.07 157.28 Z M 160.25 158.12 L 160.38 159.12 C 160.49 159.98 161.28 160.59 162.15 160.48 C 163.01 160.37 163.62 159.58 163.51 158.72 L 163.38 157.72 C 163.27 156.86 162.48 156.24 161.62 156.36 C 160.75 156.47 160.14 157.26 160.25 158.12 Z M 160.37 159.01 L 160.43 160.01 C 160.48 160.88 161.23 161.55 162.10 161.49 C 162.97 161.44 163.64 160.69 163.58 159.82 L 163.52 158.82 C 163.47 157.95 162.72 157.29 161.85 157.34 C 160.98 157.39 160.32 158.14 160.37 159.01 Z M 160.43 159.94 L 160.44 160.94 C 160.46 161.81 161.18 162.51 162.05 162.49 C 162.92 162.48 163.62 161.76 163.60 160.89 L 163.59 159.89 C 163.57 159.02 162.85 158.32 161.98 158.34 C 161.11 158.35 160.41 159.07 160.43 159.94 Z M 160.45 160.91 L 160.45 161.92 C 160.45 162.79 161.15 163.49 162.02 163.49 C 162.89 163.49 163.60 162.79 163.60 161.92 L 163.60 160.91 C 163.60 160.04 162.89 159.34 162.02 159.34 C 161.15 159.34 160.45 160.04 160.45 160.91 Z M 160.45 161.88 L 160.42 162.87 C 160.40 163.74 161.09 164.47 161.96 164.49 C 162.83 164.51 163.55 163.82 163.57 162.96 L 163.60 161.96 C 163.62 161.09 162.93 160.37 162.06 160.34 C 161.20 160.32 160.47 161.01 160.45 161.88 Z M 160.44 162.76 L 160.34 163.75 C 160.25 164.61 160.88 165.38 161.74 165.47 C 162.60 165.56 163.37 164.93 163.46 164.07 L 163.56 163.07 C 163.65 162.21 163.02 161.44 162.16 161.35 C 161.29 161.27 160.52 161.90 160.44 162.76 Z M 160.37 163.59 L 160.17 164.54 C 159.99 165.38 160.53 166.21 161.38 166.38 C 162.22 166.56 163.05 166.02 163.22 165.18 L 163.42 164.23 C 163.60 163.39 163.06 162.56 162.22 162.38 C 161.38 162.20 160.55 162.74 160.37 163.59 Z M 160.22 164.39 L 159.91 165.37 C 159.65 166.18 160.10 167.05 160.92 167.31 C 161.73 167.57 162.61 167.12 162.86 166.30 L 163.17 165.33 C 163.43 164.51 162.98 163.64 162.17 163.38 C 161.35 163.12 160.48 163.57 160.22 164.39 Z M 159.96 165.25 L 159.58 166.19 C 159.26 166.98 159.63 167.88 160.42 168.20 C 161.21 168.52 162.10 168.14 162.43 167.36 L 162.81 166.42 C 163.13 165.63 162.76 164.74 161.97 164.41 C 161.18 164.09 160.29 164.47 159.96 165.25 Z M 159.63 166.10 L 159.18 167.01 C 158.81 167.77 159.12 168.68 159.87 169.06 C 160.63 169.43 161.55 169.12 161.92 168.36 L 162.37 167.45 C 162.74 166.70 162.43 165.78 161.68 165.41 C 160.92 165.03 160.01 165.34 159.63 166.10 Z M 159.25 166.91 L 158.74 167.77 C 158.31 168.48 158.54 169.42 159.26 169.85 C 159.97 170.28 160.90 170.04 161.33 169.33 L 161.85 168.47 C 162.28 167.75 162.05 166.82 161.33 166.39 C 160.61 165.96 159.68 166.19 159.25 166.91 Z M 158.87 167.61 L 158.22 168.41 C 157.71 169.05 157.81 170.00 158.45 170.52 C 159.10 171.03 160.04 170.93 160.56 170.29 L 161.20 169.49 C 161.72 168.84 161.62 167.90 160.97 167.38 C 160.33 166.86 159.39 166.96 158.87 167.61 Z M 158.50 168.17 L 157.75 168.74 C 157.10 169.24 156.97 170.16 157.47 170.81 C 157.96 171.46 158.89 171.59 159.54 171.09 L 160.29 170.52 C 160.94 170.03 161.06 169.10 160.57 168.45 C 160.07 167.80 159.15 167.68 158.50 168.17 Z M 158.12 168.56 L 157.21 168.90 C 156.46 169.19 156.08 170.03 156.37 170.79 C 156.66 171.54 157.50 171.92 158.26 171.63 L 159.16 171.28 C 159.92 170.99 160.29 170.15 160.00 169.40 C 159.72 168.64 158.87 168.27 158.12 168.56 Z M 157.43 168.86 L 156.44 169.07 C 155.66 169.24 155.16 170.00 155.33 170.78 C 155.49 171.56 156.26 172.05 157.04 171.89 L 158.03 171.67 C 158.81 171.51 159.31 170.74 159.14 169.97 C 158.98 169.19 158.21 168.69 157.43 168.86 Z M 156.48 169.07 L 156.36 169.09 C 155.59 169.23 155.07 169.98 155.21 170.76 C 155.35 171.53 156.10 172.05 156.88 171.91 L 156.99 171.89 C 157.77 171.74 158.28 171.00 158.14 170.22 C 158.00 169.44 157.26 168.93 156.48 169.07 Z"
      fill="black"
      fill-rule="nonzero" /><path d="M 145.14 164.88 L 146.14 164.94 C 146.97 164.98 147.68 164.34 147.73 163.51 C 147.78 162.67 147.14 161.96 146.30 161.91 L 145.30 161.86 C 144.47 161.81 143.75 162.45 143.71 163.29 C 143.66 164.12 144.30 164.84 145.14 164.88 Z M 146.28 164.98 L 147.28 164.94 C 148.14 164.90 148.80 164.18 148.77 163.32 C 148.73 162.46 148.01 161.80 147.15 161.83 L 146.16 161.87 C 145.30 161.91 144.63 162.63 144.66 163.49 C 144.70 164.34 145.42 165.01 146.28 164.98 Z M 147.51 164.93 L 148.39 164.76 C 149.24 164.59 149.80 163.77 149.63 162.92 C 149.47 162.06 148.64 161.51 147.79 161.67 L 146.92 161.84 C 146.07 162.01 145.51 162.83 145.67 163.68 C 145.84 164.53 146.66 165.09 147.51 164.93 Z M 148.52 164.72 L 149.50 164.44 C 150.33 164.20 150.81 163.34 150.58 162.51 C 150.34 161.68 149.48 161.19 148.64 161.43 L 147.66 161.71 C 146.83 161.95 146.35 162.81 146.58 163.64 C 146.82 164.47 147.68 164.96 148.52 164.72 Z M 149.52 164.43 L 150.52 164.13 C 151.35 163.88 151.81 163.02 151.57 162.19 C 151.32 161.37 150.46 160.90 149.63 161.14 L 148.63 161.44 C 147.80 161.69 147.33 162.56 147.58 163.38 C 147.82 164.20 148.69 164.67 149.52 164.43 Z M 150.51 164.13 L 151.47 163.85 C 152.29 163.61 152.77 162.75 152.53 161.93 C 152.30 161.11 151.44 160.63 150.62 160.87 L 149.65 161.15 C 148.83 161.39 148.35 162.24 148.59 163.07 C 148.83 163.89 149.68 164.36 150.51 164.13 Z M 151.46 163.84 L 152.46 163.56 C 153.28 163.33 153.75 162.48 153.52 161.66 C 153.29 160.84 152.44 160.36 151.62 160.60 L 150.63 160.88 C 149.81 161.11 149.33 161.96 149.56 162.78 C 149.79 163.59 150.64 164.07 151.46 163.84 Z M 152.45 163.55 L 153.43 163.28 C 154.25 163.06 154.73 162.22 154.50 161.40 C 154.28 160.59 153.44 160.11 152.62 160.33 L 151.64 160.60 C 150.82 160.83 150.34 161.67 150.57 162.48 C 150.79 163.30 151.63 163.78 152.45 163.55 Z M 153.42 163.27 L 154.46 162.99 C 155.27 162.78 155.75 161.95 155.53 161.14 C 155.32 160.33 154.49 159.85 153.68 160.07 L 152.64 160.35 C 151.83 160.56 151.35 161.39 151.57 162.20 C 151.78 163.00 152.61 163.48 153.42 163.27 Z M 154.43 162.97 L 155.36 162.74 C 156.15 162.54 156.64 161.73 156.44 160.94 C 156.24 160.14 155.44 159.66 154.64 159.86 L 153.71 160.09 C 152.92 160.29 152.43 161.09 152.63 161.89 C 152.83 162.68 153.64 163.17 154.43 162.97 Z M 155.32 162.72 L 156.25 162.51 C 157.04 162.33 157.53 161.55 157.35 160.77 C 157.18 159.98 156.40 159.49 155.61 159.67 L 154.68 159.87 C 153.90 160.05 153.40 160.83 153.58 161.62 C 153.75 162.40 154.53 162.90 155.32 162.72 Z M 156.21 162.50 L 157.19 162.31 C 157.98 162.15 158.48 161.39 158.33 160.61 C 158.17 159.83 157.42 159.32 156.63 159.48 L 155.65 159.67 C 154.87 159.83 154.36 160.59 154.51 161.37 C 154.67 162.15 155.43 162.66 156.21 162.50 Z M 157.17 162.30 L 158.00 162.15 C 158.78 162.01 159.30 161.26 159.15 160.48 C 159.01 159.70 158.26 159.19 157.49 159.33 L 156.65 159.48 C 155.88 159.63 155.36 160.37 155.50 161.15 C 155.65 161.93 156.40 162.45 157.17 162.30 Z"
      fill="black"
      fill-rule="nonzero" /><path d="M 146.19 175.54 L 147.19 175.55 C 148.04 175.56 148.73 174.89 148.74 174.05 C 148.75 173.20 148.08 172.51 147.24 172.50 L 146.23 172.48 C 145.39 172.47 144.69 173.15 144.68 173.99 C 144.67 174.83 145.34 175.52 146.19 175.54 Z M 147.26 175.58 L 148.26 175.55 C 149.12 175.52 149.79 174.80 149.76 173.95 C 149.74 173.09 149.02 172.42 148.16 172.44 L 147.17 172.47 C 146.31 172.50 145.64 173.22 145.66 174.07 C 145.69 174.93 146.41 175.60 147.26 175.58 Z M 148.40 175.55 L 149.38 175.43 C 150.23 175.32 150.84 174.54 150.74 173.69 C 150.63 172.83 149.86 172.22 149.00 172.32 L 148.02 172.44 C 147.17 172.55 146.56 173.33 146.66 174.18 C 146.77 175.04 147.54 175.65 148.40 175.55 Z M 149.50 175.39 L 150.47 175.19 C 151.31 175.02 151.85 174.20 151.67 173.36 C 151.50 172.52 150.68 171.98 149.84 172.16 L 148.87 172.36 C 148.04 172.53 147.50 173.35 147.67 174.19 C 147.85 175.03 148.67 175.56 149.50 175.39 Z M 150.51 175.16 L 151.50 174.92 C 152.32 174.72 152.82 173.90 152.63 173.08 C 152.43 172.26 151.61 171.76 150.79 171.96 L 149.80 172.19 C 148.98 172.39 148.48 173.21 148.68 174.03 C 148.87 174.85 149.70 175.35 150.51 175.16 Z M 151.48 174.90 L 152.45 174.68 C 153.26 174.49 153.76 173.68 153.57 172.88 C 153.39 172.07 152.58 171.56 151.77 171.75 L 150.81 171.97 C 150.00 172.16 149.50 172.97 149.68 173.78 C 149.87 174.58 150.68 175.09 151.48 174.90 Z M 152.42 174.67 L 153.41 174.46 C 154.21 174.28 154.72 173.50 154.55 172.69 C 154.38 171.89 153.59 171.38 152.79 171.55 L 151.80 171.76 C 151.00 171.93 150.49 172.72 150.66 173.52 C 150.83 174.33 151.62 174.84 152.42 174.67 Z M 153.37 174.45 L 154.36 174.26 C 155.16 174.11 155.68 173.34 155.53 172.54 C 155.38 171.75 154.61 171.22 153.82 171.37 L 152.82 171.56 C 152.03 171.71 151.51 172.48 151.66 173.28 C 151.81 174.07 152.58 174.60 153.37 174.45 Z M 154.33 174.25 L 155.32 174.08 C 156.11 173.95 156.64 173.20 156.51 172.41 C 156.38 171.62 155.63 171.08 154.84 171.22 L 153.85 171.38 C 153.06 171.52 152.52 172.27 152.66 173.06 C 152.79 173.85 153.54 174.38 154.33 174.25 Z M 155.30 174.07 L 156.28 173.92 C 157.07 173.79 157.60 173.06 157.48 172.27 C 157.36 171.49 156.62 170.95 155.84 171.07 L 154.85 171.23 C 154.07 171.35 153.53 172.09 153.66 172.87 C 153.78 173.66 154.52 174.19 155.30 174.07 Z M 156.28 173.91 L 156.37 173.89 C 157.15 173.77 157.69 173.04 157.57 172.26 C 157.45 171.48 156.72 170.95 155.94 171.07 L 155.84 171.08 C 155.06 171.20 154.53 171.93 154.65 172.71 C 154.77 173.49 155.50 174.03 156.28 173.91 Z"
      fill="black"
      fill-rule="nonzero" /></svg>