<svg xmlns="http://www.w3.org/2000/svg" width="300" height="300" viewBox="0 0 300 300">
<path d="M 132.25 139.91 L 133.20 139.93 C 134.05 139.96 134.76 139.29 134.79 138.43 C 134.81 137.58 134.14 136.87 133.29 136.84 L 132.34 136.81 C 131.49 136.79 130.77 137.46 130.75 138.31 C 130.72 139.17 131.40 139.88 132.25 139.91 Z M 133.15 139.95 L 134.16 140.01 C 135.03 140.06 135.77 139.40 135.82 138.53 C 135.87 137.67 135.21 136.93 134.34 136.88 L 133.33 136.82 C 132.46 136.77 131.72 137.43 131.67 138.30 C 131.62 139.16 132.29 139.91 133.15 139.95 Z M 134.10 140.01 L 135.07 140.11 C 135.94 140.19 136.71 139.56 136.79 138.69 C 136.88 137.83 136.24 137.06 135.38 136.97 L 134.41 136.88 C 133.54 136.79 132.77 137.43 132.69 138.29 C 132.60 139.16 133.23 139.93 134.10 140.01 Z M 135.02 140.08 L 135.98 140.20 C 136.83 140.31 137.61 139.72 137.72 138.87 C 137.83 138.02 137.23 137.24 136.39 137.13 L 135.43 137.01 C 134.58 136.89 133.80 137.49 133.69 138.34 C 133.58 139.19 134.18 139.96 135.02 140.08 Z M 135.95 140.16 L 136.99 140.32 C 137.81 140.45 138.58 139.88 138.71 139.06 C 138.84 138.23 138.27 137.46 137.45 137.33 L 136.42 137.17 C 135.59 137.05 134.82 137.61 134.69 138.44 C 134.56 139.26 135.13 140.03 135.95 140.16 Z M 136.97 140.29 L 137.98 140.46 C 138.79 140.60 139.55 140.06 139.69 139.25 C 139.83 138.45 139.29 137.68 138.48 137.54 L 137.47 137.37 C 136.66 137.23 135.90 137.77 135.76 138.58 C 135.62 139.38 136.16 140.15 136.97 140.29 Z M 137.97 140.44 L 138.94 140.62 C 139.73 140.76 140.49 140.24 140.64 139.44 C 140.78 138.65 140.26 137.89 139.46 137.74 L 138.50 137.56 C 137.70 137.42 136.94 137.94 136.80 138.74 C 136.65 139.53 137.17 140.29 137.97 140.44 Z M 138.93 140.60 L 139.92 140.79 C 140.71 140.94 141.47 140.43 141.62 139.64 C 141.77 138.85 141.25 138.09 140.46 137.94 L 139.47 137.76 C 138.69 137.61 137.93 138.12 137.78 138.91 C 137.63 139.70 138.14 140.45 138.93 140.60 Z M 139.92 140.78 L 140.92 140.98 C 141.70 141.13 142.45 140.62 142.61 139.84 C 142.76 139.06 142.25 138.30 141.47 138.15 L 140.47 137.96 C 139.69 137.81 138.93 138.32 138.78 139.09 C 138.63 139.87 139.14 140.63 139.92 140.78 Z M 140.92 140.97 L 141.12 141.01 C 141.89 141.16 142.64 140.65 142.80 139.88 C 142.95 139.10 142.44 138.35 141.67 138.20 L 141.47 138.16 C 140.69 138.01 139.94 138.51 139.79 139.29 C 139.64 140.07 140.15 140.82 140.92 140.97 Z"
      fill="black"
      fill-rule="nonzero" /><path d="M 135.43 149.92 L 136.44 149.98 C 137.28 150.03 138.01 149.39 138.06 148.55 C 138.11 147.70 137.47 146.98 136.63 146.93 L 135.62 146.86 C 134.78 146.81 134.05 147.45 134.00 148.29 C 133.94 149.14 134.58 149.86 135.43 149.92 Z M 136.39 149.99 L 137.38 150.08 C 138.23 150.16 138.98 149.53 139.06 148.68 C 139.14 147.83 138.51 147.08 137.66 147.01 L 136.67 146.92 C 135.82 146.84 135.07 147.46 135.00 148.31 C 134.92 149.16 135.54 149.91 136.39 149.99 Z M 137.30 150.05 L 138.29 150.20 C 139.12 150.33 139.90 149.75 140.02 148.92 C 140.15 148.08 139.57 147.30 138.74 147.18 L 137.75 147.03 C 136.91 146.91 136.13 147.48 136.01 148.32 C 135.89 149.15 136.46 149.93 137.30 150.05 Z M 138.21 150.14 L 139.18 150.34 C 139.98 150.51 140.76 150.00 140.93 149.20 C 141.10 148.41 140.59 147.62 139.79 147.45 L 138.82 147.25 C 138.02 147.08 137.24 147.59 137.07 148.38 C 136.90 149.18 137.41 149.97 138.21 150.14 Z M 139.12 150.29 L 140.08 150.54 C 140.85 150.75 141.64 150.29 141.84 149.52 C 142.04 148.75 141.58 147.96 140.81 147.76 L 139.85 147.50 C 139.08 147.30 138.29 147.76 138.09 148.53 C 137.89 149.30 138.35 150.09 139.12 150.29 Z M 140.05 150.52 L 141.01 150.80 C 141.77 151.03 142.56 150.59 142.78 149.83 C 143.00 149.08 142.57 148.28 141.81 148.06 L 140.85 147.78 C 140.09 147.56 139.30 147.99 139.07 148.75 C 138.85 149.51 139.29 150.30 140.05 150.52 Z M 141.00 150.80 L 141.24 150.87 C 142.00 151.10 142.79 150.67 143.02 149.92 C 143.25 149.16 142.82 148.37 142.06 148.14 L 141.82 148.07 C 141.07 147.84 140.27 148.27 140.04 149.02 C 139.82 149.78 140.24 150.57 141.00 150.80 Z"
      fill="black"
      fill-rule="nonzero" /><path d="M 134.76 161.35 L 135.63 161.52 C 136.49 161.68 137.31 161.13 137.48 160.28 C 137.64 159.43 137.09 158.60 136.24 158.43 L 135.36 158.26 C 134.51 158.10 133.68 158.65 133.52 159.50 C 133.35 160.35 133.91 161.18 134.76 161.35 Z M 135.76 161.55 L 136.85 161.67 C 137.72 161.76 138.50 161.13 138.59 160.27 C 138.69 159.40 138.06 158.62 137.20 158.52 L 136.11 158.40 C 135.24 158.31 134.46 158.94 134.36 159.80 C 134.27 160.67 134.90 161.45 135.76 161.55 Z M 136.96 161.65 L 137.90 161.69 C 138.76 161.72 139.49 161.05 139.52 160.19 C 139.56 159.33 138.89 158.61 138.02 158.57 L 137.08 158.54 C 136.22 158.50 135.50 159.17 135.46 160.03 C 135.43 160.89 136.10 161.62 136.96 161.65 Z M 137.95 161.65 L 138.99 161.65 C 139.82 161.66 140.51 160.99 140.51 160.15 C 140.52 159.32 139.85 158.63 139.01 158.63 L 137.98 158.62 C 137.14 158.61 136.46 159.28 136.45 160.12 C 136.44 160.95 137.11 161.64 137.95 161.65 Z M 139.01 161.61 L 140.06 161.60 C 140.87 161.60 141.52 160.93 141.52 160.12 C 141.51 159.31 140.85 158.66 140.04 158.66 L 138.99 158.67 C 138.18 158.68 137.52 159.34 137.53 160.15 C 137.54 160.96 138.20 161.62 139.01 161.61 Z M 140.07 161.58 L 141.11 161.56 C 141.91 161.54 142.54 160.89 142.53 160.09 C 142.51 159.29 141.85 158.66 141.06 158.67 L 140.02 158.69 C 139.22 158.70 138.59 159.36 138.60 160.16 C 138.62 160.96 139.27 161.59 140.07 161.58 Z M 141.12 161.55 L 142.10 161.53 C 142.89 161.51 143.52 160.85 143.50 160.06 C 143.48 159.26 142.82 158.64 142.03 158.66 L 141.05 158.68 C 140.25 158.70 139.63 159.36 139.65 160.15 C 139.67 160.94 140.32 161.57 141.12 161.55 Z M 142.10 161.52 L 142.68 161.50 C 143.47 161.48 144.09 160.82 144.07 160.04 C 144.05 159.25 143.39 158.63 142.60 158.65 L 142.02 158.66 C 141.23 158.68 140.61 159.34 140.63 160.13 C 140.65 160.92 141.31 161.54 142.10 161.52 Z"
      fill="black"
      fill-rule="nonzero" /><path d="M 151.54 127.91 L 152.49 127.91 C 153.33 127.91 154.00 127.24 154.00 126.40 C 154.00 125.57 153.33 124.90 152.49 124.90 L 151.54 124.90 C 150.71 124.90 150.03 125.57 150.03 126.40 C 150.03 127.24 150.71 127.91 151.54 127.91 Z M 152.49 127.96 L 153.50 127.96 C 154.35 127.96 155.05 127.26 155.05 126.40 C 155.05 125.55 154.35 124.85 153.50 124.85 L 152.49 124.85 C 151.64 124.85 150.94 125.55 150.94 126.40 C 150.94 127.26 151.64 127.96 152.49 127.96 Z M 153.49 127.96 L 154.46 127.96 C 155.32 127.96 156.02 127.27 156.02 126.41 C 156.02 125.55 155.33 124.85 154.47 124.85 L 153.50 124.85 C 152.64 124.85 151.94 125.54 151.94 126.40 C 151.94 127.26 152.63 127.96 153.49 127.96 Z M 154.45 127.94 L 155.51 127.95 C 156.36 127.96 157.05 127.28 157.06 126.43 C 157.07 125.59 156.39 124.90 155.55 124.89 L 154.48 124.88 C 153.64 124.87 152.94 125.55 152.94 126.39 C 152.93 127.24 153.60 127.93 154.45 127.94 Z M 155.50 127.93 L 156.47 127.95 C 157.30 127.97 157.99 127.31 158.01 126.48 C 158.03 125.64 157.37 124.95 156.54 124.93 L 155.56 124.91 C 154.73 124.89 154.04 125.55 154.02 126.38 C 154.00 127.22 154.66 127.91 155.50 127.93 Z M 156.44 127.93 L 157.46 127.97 C 158.28 128.01 158.97 127.37 159.01 126.55 C 159.04 125.72 158.41 125.03 157.58 124.99 L 156.57 124.95 C 155.74 124.92 155.05 125.56 155.01 126.38 C 154.98 127.20 155.62 127.90 156.44 127.93 Z M 157.42 127.95 L 158.43 128.02 C 159.24 128.08 159.95 127.47 160.00 126.66 C 160.06 125.85 159.45 125.14 158.64 125.09 L 157.62 125.01 C 156.81 124.96 156.11 125.57 156.05 126.38 C 155.99 127.19 156.61 127.90 157.42 127.95 Z M 158.39 128.00 L 159.39 128.10 C 160.19 128.18 160.90 127.59 160.98 126.79 C 161.06 125.99 160.47 125.28 159.67 125.20 L 158.68 125.11 C 157.87 125.03 157.16 125.61 157.08 126.41 C 157.01 127.21 157.59 127.93 158.39 128.00 Z M 159.37 128.08 L 160.36 128.20 C 161.15 128.29 161.87 127.72 161.96 126.93 C 162.05 126.13 161.48 125.42 160.69 125.33 L 159.69 125.22 C 158.90 125.13 158.19 125.70 158.10 126.49 C 158.01 127.28 158.58 128.00 159.37 128.08 Z M 160.36 128.19 L 160.67 128.22 C 161.45 128.31 162.17 127.75 162.26 126.97 C 162.35 126.18 161.79 125.47 161.00 125.38 L 160.69 125.34 C 159.90 125.25 159.19 125.81 159.10 126.60 C 159.01 127.38 159.57 128.09 160.36 128.19 Z"
      fill="black"
      fill-rule="nonzero" /><path d="M 152.11 135.53 L 153.01 135.58 C 153.85 135.63 154.58 134.99 154.63 134.14 C 154.68 133.30 154.03 132.58 153.19 132.53 L 152.29 132.47 C 151.45 132.42 150.72 133.07 150.67 133.91 C 150.62 134.76 151.27 135.48 152.11 135.53 Z M 153.03 135.60 L 154.07 135.64 C 154.92 135.68 155.64 135.02 155.68 134.16 C 155.71 133.31 155.05 132.59 154.19 132.55 L 153.16 132.51 C 152.31 132.47 151.59 133.14 151.55 133.99 C 151.52 134.85 152.18 135.57 153.03 135.60 Z M 154.10 135.65 L 155.16 135.67 C 156.01 135.68 156.72 135.00 156.74 134.15 C 156.75 133.29 156.07 132.59 155.22 132.57 L 154.16 132.55 C 153.31 132.53 152.60 133.21 152.58 134.07 C 152.56 134.92 153.24 135.63 154.10 135.65 Z M 155.18 135.65 L 156.23 135.65 C 157.07 135.66 157.76 134.98 157.77 134.14 C 157.77 133.29 157.09 132.60 156.25 132.60 L 155.20 132.59 C 154.36 132.58 153.67 133.26 153.66 134.11 C 153.65 134.95 154.33 135.64 155.18 135.65 Z M 156.23 135.63 L 157.24 135.63 C 158.07 135.63 158.75 134.96 158.75 134.13 C 158.75 133.30 158.08 132.63 157.25 132.63 L 156.24 132.63 C 155.41 132.63 154.74 133.30 154.74 134.12 C 154.74 134.95 155.41 135.62 156.23 135.63 Z M 157.25 135.60 L 158.28 135.60 C 159.09 135.60 159.75 134.94 159.75 134.13 C 159.75 133.32 159.09 132.66 158.28 132.66 L 157.25 132.66 C 156.43 132.66 155.77 133.32 155.77 134.13 C 155.77 134.94 156.43 135.60 157.25 135.60 Z M 158.28 135.58 L 159.23 135.58 C 160.03 135.58 160.68 134.93 160.68 134.13 C 160.68 133.33 160.03 132.68 159.23 132.68 L 158.28 132.68 C 157.48 132.68 156.83 133.33 156.83 134.13 C 156.83 134.93 157.48 135.58 158.28 135.58 Z M 159.23 135.56 L 160.15 135.56 C 160.94 135.56 161.58 134.92 161.58 134.13 C 161.58 133.34 160.94 132.69 160.15 132.69 L 159.23 132.69 C 158.44 132.69 157.80 133.34 157.80 134.13 C 157.80 134.92 158.44 135.56 159.23 135.56 Z M 160.15 135.56 L 161.13 135.56 C 161.92 135.56 162.56 134.92 162.56 134.13 C 162.56 133.34 161.92 132.70 161.13 132.70 L 160.15 132.70 C 159.36 132.70 158.72 133.34 158.72 134.13 C 158.72 134.92 159.36 135.56 160.15 135.56 Z M 161.13 135.56 L 162.19 135.56 C 162.98 135.56 163.62 134.92 163.62 134.13 C 163.62 133.34 162.98 132.70 162.19 132.70 L 161.13 132.70 C 160.34 132.70 159.70 133.34 159.70 134.13 C 159.70 134.92 160.34 135.56 161.13 135.56 Z M 162.19 135.55 L 162.29 135.55 C 163.07 135.55 163.71 134.92 163.71 134.13 C 163.71 133.34 163.07 132.70 162.29 132.70 L 162.19 132.70 C 161.40 132.70 160.77 133.34 160.77 134.13 C 160.77 134.92 161.40 135.55 162.19 135.55 Z"
      fill="black"
      fill-rule="nonzero" /><path d="M 157.85 122.91 L 157.77 123.89 C 157.69 124.74 158.32 125.48 159.17 125.55 C 160.01 125.63 160.76 125.00 160.83 124.15 L 160.92 123.17 C 160.99 122.32 160.36 121.58 159.52 121.50 C 158.67 121.43 157.92 122.06 157.85 122.91 Z M 157.75 123.91 L 157.68 124.92 C 157.62 125.78 158.27 126.52 159.13 126.58 C 159.99 126.64 160.73 125.99 160.79 125.13 L 160.85 124.13 C 160.91 123.27 160.26 122.52 159.40 122.47 C 158.55 122.41 157.80 123.06 157.75 123.91 Z M 157.67 124.97 L 157.63 126.01 C 157.60 126.87 158.28 127.60 159.14 127.63 C 160.01 127.66 160.73 126.98 160.76 126.12 L 160.80 125.08 C 160.83 124.21 160.15 123.49 159.29 123.46 C 158.42 123.43 157.70 124.10 157.67 124.97 Z M 157.63 126.05 L 157.63 127.07 C 157.62 127.93 158.32 128.63 159.18 128.64 C 160.04 128.64 160.75 127.95 160.75 127.08 L 160.76 126.07 C 160.76 125.21 160.07 124.50 159.20 124.50 C 158.34 124.49 157.64 125.19 157.63 126.05 Z M 157.64 127.10 L 157.66 128.10 C 157.67 128.96 158.38 129.64 159.24 129.62 C 160.09 129.61 160.77 128.90 160.76 128.05 L 160.74 127.05 C 160.72 126.19 160.02 125.51 159.16 125.53 C 158.31 125.54 157.62 126.25 157.64 127.10 Z M 157.68 128.15 L 157.73 129.13 C 157.78 129.97 158.49 130.61 159.33 130.57 C 160.18 130.53 160.82 129.81 160.78 128.97 L 160.73 128.00 C 160.69 127.16 159.97 126.51 159.13 126.55 C 158.29 126.59 157.64 127.31 157.68 128.15 Z M 157.76 129.18 L 157.85 130.14 C 157.92 130.96 158.65 131.57 159.48 131.50 C 160.30 131.42 160.91 130.70 160.84 129.87 L 160.75 128.91 C 160.68 128.09 159.95 127.48 159.12 127.55 C 158.30 127.63 157.69 128.36 157.76 129.18 Z M 157.87 130.15 L 157.97 131.17 C 158.05 131.98 158.78 132.57 159.59 132.49 C 160.40 132.41 161.00 131.69 160.92 130.87 L 160.82 129.86 C 160.74 129.04 160.01 128.45 159.20 128.53 C 158.38 128.61 157.79 129.34 157.87 130.15 Z M 157.98 131.14 L 158.06 132.12 C 158.13 132.92 158.83 133.53 159.64 133.46 C 160.45 133.39 161.05 132.69 160.99 131.88 L 160.91 130.90 C 160.84 130.09 160.13 129.49 159.32 129.56 C 158.52 129.62 157.91 130.33 157.98 131.14 Z M 158.07 132.10 L 158.14 133.11 C 158.19 133.92 158.89 134.52 159.69 134.47 C 160.50 134.41 161.10 133.72 161.05 132.91 L 160.98 131.90 C 160.92 131.09 160.23 130.49 159.42 130.54 C 158.62 130.60 158.01 131.29 158.07 132.10 Z M 158.15 133.11 L 158.22 134.11 C 158.27 134.91 158.96 135.52 159.76 135.46 C 160.56 135.41 161.16 134.72 161.11 133.92 L 161.04 132.92 C 160.99 132.12 160.29 131.51 159.50 131.57 C 158.70 131.62 158.09 132.31 158.15 133.11 Z M 158.22 134.11 L 158.29 135.12 C 158.35 135.91 159.03 136.51 159.83 136.46 C 160.62 136.40 161.22 135.71 161.17 134.92 L 161.10 133.92 C 161.04 133.13 160.36 132.53 159.56 132.58 C 158.77 132.63 158.17 133.32 158.22 134.11 Z M 158.30 135.11 L 158.37 136.13 C 158.42 136.92 159.10 137.52 159.89 137.46 C 160.68 137.41 161.28 136.72 161.23 135.93 L 161.16 134.92 C 161.11 134.13 160.42 133.53 159.63 133.59 C 158.84 133.64 158.24 134.32 158.30 135.11 Z M 158.36 136.11 L 158.42 137.06 C 158.46 137.85 159.14 138.46 159.93 138.41 C 160.73 138.37 161.33 137.69 161.29 136.90 L 161.23 135.95 C 161.19 135.16 160.51 134.55 159.72 134.60 C 158.92 134.64 158.32 135.32 158.36 136.11 Z M 158.39 137.04 L 158.44 138.01 C 158.47 138.81 159.16 139.44 159.96 139.40 C 160.77 139.36 161.39 138.68 161.35 137.88 L 161.31 136.91 C 161.27 136.11 160.59 135.49 159.79 135.52 C 158.98 135.56 158.36 136.24 158.39 137.04 Z M 158.41 138.01 L 158.46 139.02 C 158.49 139.84 159.19 140.47 160.01 140.44 C 160.83 140.40 161.46 139.71 161.42 138.89 L 161.38 137.88 C 161.34 137.06 160.65 136.42 159.83 136.46 C 159.01 136.49 158.37 137.19 158.41 138.01 Z M 158.45 139.02 L 158.50 140.00 C 158.53 140.83 159.23 141.46 160.06 141.42 C 160.88 141.39 161.52 140.69 161.48 139.86 L 161.43 138.88 C 161.39 138.06 160.69 137.42 159.87 137.46 C 159.05 137.50 158.41 138.20 158.45 139.02 Z M 158.50 140.00 L 158.55 141.06 C 158.59 141.88 159.29 142.52 160.11 142.48 C 160.93 142.44 161.57 141.74 161.53 140.92 L 161.47 139.86 C 161.43 139.04 160.74 138.41 159.91 138.45 C 159.09 138.48 158.46 139.18 158.50 140.00 Z M 158.55 141.06 L 158.56 141.26 C 158.60 142.08 159.30 142.71 160.12 142.67 C 160.94 142.63 161.57 141.94 161.53 141.11 L 161.52 140.92 C 161.48 140.10 160.79 139.46 159.97 139.50 C 159.14 139.54 158.51 140.24 158.55 141.06 Z"
      fill="black"
      fill-rule="nonzero" /><path d="M 150.87 143.85 L 151.77 143.82 C 152.61 143.79 153.27 143.08 153.24 142.23 C 153.21 141.39 152.50 140.73 151.65 140.76 L 150.76 140.79 C 149.91 140.82 149.25 141.53 149.28 142.38 C 149.31 143.22 150.02 143.88 150.87 143.85 Z M 151.77 143.85 L 152.81 143.81 C 153.67 143.77 154.34 143.05 154.31 142.18 C 154.27 141.32 153.54 140.65 152.68 140.68 L 151.65 140.73 C 150.78 140.76 150.11 141.49 150.15 142.35 C 150.18 143.22 150.91 143.89 151.77 143.85 Z M 152.82 143.83 L 153.80 143.78 C 154.67 143.74 155.34 143.00 155.30 142.13 C 155.26 141.26 154.52 140.58 153.65 140.62 L 152.67 140.67 C 151.80 140.71 151.12 141.45 151.16 142.32 C 151.20 143.19 151.94 143.87 152.82 143.83 Z M 153.80 143.78 L 154.76 143.74 C 155.63 143.70 156.30 142.96 156.26 142.08 C 156.22 141.21 155.48 140.54 154.61 140.58 L 153.65 140.62 C 152.78 140.66 152.11 141.40 152.15 142.27 C 152.19 143.15 152.93 143.82 153.80 143.78 Z M 154.75 143.73 L 155.79 143.69 C 156.66 143.65 157.33 142.92 157.30 142.05 C 157.26 141.18 156.53 140.51 155.66 140.54 L 154.62 140.59 C 153.75 140.62 153.08 141.35 153.11 142.22 C 153.15 143.09 153.88 143.76 154.75 143.73 Z M 155.78 143.68 L 156.86 143.65 C 157.72 143.62 158.40 142.90 158.38 142.03 C 158.35 141.17 157.63 140.49 156.77 140.52 L 155.68 140.55 C 154.82 140.58 154.14 141.30 154.16 142.16 C 154.19 143.03 154.91 143.70 155.78 143.68 Z M 156.84 143.63 L 157.89 143.61 C 158.75 143.60 159.43 142.89 159.42 142.03 C 159.40 141.18 158.70 140.50 157.84 140.51 L 156.79 140.53 C 155.93 140.55 155.25 141.25 155.26 142.11 C 155.28 142.97 155.98 143.65 156.84 143.63 Z M 157.88 143.60 L 158.91 143.59 C 159.76 143.58 160.44 142.89 160.43 142.04 C 160.43 141.19 159.73 140.51 158.88 140.52 L 157.85 140.53 C 157.01 140.53 156.32 141.23 156.33 142.08 C 156.34 142.92 157.03 143.61 157.88 143.60 Z M 158.90 143.57 L 159.88 143.57 C 160.71 143.57 161.39 142.89 161.39 142.05 C 161.39 141.21 160.71 140.53 159.87 140.53 L 158.89 140.53 C 158.05 140.54 157.38 141.22 157.38 142.06 C 157.38 142.90 158.06 143.58 158.90 143.57 Z M 159.87 143.55 L 160.87 143.55 C 161.70 143.55 162.38 142.88 162.38 142.05 C 162.38 141.22 161.70 140.55 160.87 140.55 L 159.87 140.55 C 159.04 140.55 158.37 141.22 158.37 142.05 C 158.37 142.88 159.04 143.55 159.87 143.55 Z M 160.87 143.53 L 161.92 143.54 C 162.74 143.54 163.41 142.88 163.41 142.06 C 163.41 141.24 162.75 140.58 161.93 140.57 L 160.88 140.57 C 160.06 140.57 159.40 141.23 159.39 142.05 C 159.39 142.87 160.05 143.53 160.87 143.53 Z M 161.91 143.51 L 162.83 143.52 C 163.63 143.53 164.29 142.89 164.30 142.09 C 164.32 141.28 163.67 140.62 162.87 140.61 L 161.95 140.60 C 161.14 140.59 160.48 141.23 160.47 142.03 C 160.46 142.84 161.10 143.50 161.91 143.51 Z M 162.80 143.51 L 163.78 143.54 C 164.57 143.57 165.24 142.94 165.27 142.15 C 165.30 141.35 164.67 140.69 163.88 140.66 L 162.89 140.63 C 162.10 140.60 161.43 141.22 161.41 142.02 C 161.38 142.81 162.00 143.48 162.80 143.51 Z M 163.75 143.53 L 164.74 143.58 C 165.53 143.62 166.21 143.02 166.25 142.23 C 166.29 141.44 165.68 140.76 164.89 140.72 L 163.90 140.67 C 163.11 140.63 162.44 141.23 162.40 142.02 C 162.36 142.81 162.96 143.49 163.75 143.53 Z M 164.73 143.58 L 165.17 143.60 C 165.95 143.65 166.63 143.05 166.68 142.26 C 166.72 141.48 166.12 140.80 165.34 140.75 L 164.90 140.73 C 164.12 140.68 163.44 141.28 163.39 142.07 C 163.35 142.85 163.95 143.53 164.73 143.58 Z"
      fill="black"
      fill-rule="nonzero" /><path d="M 154.42 147.60 L 154.08 148.40 C 153.75 149.18 154.12 150.08 154.89 150.41 C 155.67 150.74 156.57 150.37 156.90 149.60 L 157.24 148.79 C 157.57 148.01 157.20 147.11 156.43 146.78 C 155.65 146.45 154.75 146.82 154.42 147.60 Z M 153.94 148.67 L 153.71 149.74 C 153.53 150.60 154.07 151.44 154.93 151.62 C 155.79 151.80 156.63 151.26 156.82 150.40 L 157.04 149.33 C 157.22 148.47 156.68 147.63 155.82 147.45 C 154.96 147.26 154.12 147.81 153.94 148.67 Z M 153.65 149.95 L 153.58 150.88 C 153.52 151.77 154.19 152.55 155.08 152.61 C 155.97 152.68 156.74 152.01 156.80 151.12 L 156.87 150.18 C 156.94 149.30 156.27 148.52 155.38 148.46 C 154.49 148.39 153.72 149.06 153.65 149.95 Z M 153.58 150.96 L 153.56 152.01 C 153.54 152.90 154.24 153.64 155.13 153.66 C 156.02 153.68 156.76 152.97 156.78 152.08 L 156.81 151.04 C 156.83 150.15 156.12 149.41 155.23 149.39 C 154.34 149.37 153.60 150.07 153.58 150.96 Z M 153.56 152.04 L 153.55 153.10 C 153.55 153.99 154.27 154.72 155.16 154.72 C 156.05 154.72 156.78 154.00 156.78 153.11 L 156.78 152.05 C 156.79 151.16 156.07 150.43 155.17 150.43 C 154.28 150.43 153.56 151.15 153.56 152.04 Z M 153.56 153.10 L 153.56 154.21 C 153.56 155.10 154.28 155.82 155.17 155.82 C 156.06 155.82 156.78 155.10 156.78 154.21 L 156.78 153.11 C 156.78 152.22 156.06 151.50 155.17 151.49 C 154.28 151.49 153.56 152.21 153.56 153.10 Z M 153.56 154.20 L 153.56 155.17 C 153.55 156.05 154.27 156.78 155.16 156.78 C 156.04 156.78 156.76 156.07 156.77 155.18 L 156.77 154.22 C 156.78 153.33 156.06 152.61 155.17 152.60 C 154.29 152.60 153.57 153.32 153.56 154.20 Z M 153.57 155.15 L 153.55 156.12 C 153.54 157.00 154.24 157.73 155.12 157.74 C 156.01 157.76 156.73 157.05 156.74 156.17 L 156.76 155.20 C 156.77 154.32 156.07 153.59 155.19 153.58 C 154.30 153.57 153.58 154.27 153.57 155.15 Z M 153.57 156.10 L 153.54 157.07 C 153.51 157.94 154.19 158.67 155.07 158.70 C 155.94 158.73 156.67 158.04 156.70 157.17 L 156.73 156.20 C 156.76 155.32 156.07 154.59 155.20 154.57 C 154.32 154.54 153.60 155.22 153.57 156.10 Z M 153.55 157.06 L 153.52 158.02 C 153.48 158.88 154.16 159.61 155.02 159.64 C 155.88 159.68 156.61 159.01 156.64 158.14 L 156.68 157.18 C 156.71 156.32 156.04 155.59 155.18 155.56 C 154.32 155.52 153.59 156.20 153.55 157.06 Z M 153.53 158.00 L 153.48 159.01 C 153.44 159.87 154.10 160.59 154.95 160.64 C 155.81 160.68 156.54 160.02 156.58 159.16 L 156.63 158.16 C 156.67 157.30 156.01 156.57 155.16 156.53 C 154.30 156.49 153.57 157.15 153.53 158.00 Z M 153.49 158.98 L 153.42 159.98 C 153.36 160.83 154.00 161.57 154.85 161.63 C 155.70 161.69 156.44 161.05 156.50 160.20 L 156.57 159.19 C 156.63 158.34 155.99 157.61 155.14 157.55 C 154.29 157.49 153.55 158.13 153.49 158.98 Z M 153.43 159.97 L 153.35 160.93 C 153.29 161.78 153.92 162.52 154.76 162.59 C 155.61 162.65 156.35 162.02 156.42 161.17 L 156.49 160.21 C 156.56 159.36 155.93 158.62 155.08 158.56 C 154.24 158.49 153.49 159.12 153.43 159.97 Z M 153.36 160.94 L 153.29 161.90 C 153.22 162.74 153.86 163.48 154.70 163.54 C 155.55 163.60 156.28 162.97 156.34 162.12 L 156.41 161.17 C 156.47 160.32 155.84 159.59 155.00 159.53 C 154.15 159.46 153.42 160.10 153.36 160.94 Z M 153.29 161.92 L 153.23 162.96 C 153.18 163.80 153.82 164.52 154.66 164.57 C 155.50 164.62 156.22 163.98 156.27 163.14 L 156.33 162.10 C 156.39 161.26 155.75 160.54 154.91 160.49 C 154.07 160.44 153.34 161.08 153.29 161.92 Z M 153.24 162.96 L 153.18 163.98 C 153.14 164.82 153.78 165.53 154.61 165.58 C 155.44 165.62 156.16 164.99 156.20 164.15 L 156.26 163.13 C 156.31 162.30 155.67 161.59 154.84 161.54 C 154.00 161.49 153.29 162.13 153.24 162.96 Z M 153.20 163.97 L 153.14 164.98 C 153.08 165.81 153.71 166.52 154.54 166.57 C 155.36 166.62 156.07 166.00 156.13 165.17 L 156.19 164.16 C 156.24 163.34 155.62 162.63 154.79 162.57 C 153.96 162.52 153.25 163.15 153.20 163.97 Z M 153.16 164.96 L 153.07 166.03 C 153.00 166.84 153.61 167.56 154.42 167.62 C 155.24 167.69 155.95 167.08 156.02 166.27 L 156.11 165.20 C 156.17 164.38 155.57 163.67 154.75 163.60 C 153.94 163.54 153.22 164.14 153.16 164.96 Z M 153.09 166.04 L 153.02 166.96 C 152.96 167.76 153.56 168.46 154.36 168.52 C 155.17 168.58 155.86 167.98 155.93 167.18 L 155.99 166.26 C 156.06 165.46 155.45 164.76 154.65 164.70 C 153.85 164.64 153.15 165.24 153.09 166.04 Z M 153.03 167.03 L 153.01 168.04 C 152.98 168.83 153.61 169.50 154.40 169.52 C 155.20 169.54 155.86 168.92 155.88 168.12 L 155.91 167.11 C 155.93 166.32 155.31 165.65 154.52 165.63 C 153.72 165.61 153.06 166.23 153.03 167.03 Z M 153.01 168.08 L 153.01 168.66 C 153.01 169.45 153.65 170.09 154.44 170.09 C 155.23 170.10 155.87 169.46 155.87 168.67 L 155.87 168.09 C 155.88 167.30 155.24 166.65 154.45 166.65 C 153.66 166.65 153.02 167.29 153.01 168.08 Z"
      fill="black"
      fill-rule="nonzero" /><path d="M 158.14 151.26 L 158.59 150.37 C 158.97 149.60 158.66 148.67 157.90 148.29 C 157.13 147.91 156.20 148.22 155.81 148.98 L 155.37 149.87 C 154.99 150.64 155.30 151.57 156.06 151.95 C 156.83 152.34 157.76 152.03 158.14 151.26 Z M 158.14 150.92 L 158.88 150.36 C 159.56 149.84 159.70 148.86 159.18 148.18 C 158.66 147.49 157.68 147.36 157.00 147.88 L 156.26 148.44 C 155.58 148.96 155.44 149.93 155.96 150.62 C 156.48 151.30 157.46 151.43 158.14 150.92 Z M 158.26 150.64 L 159.25 150.43 C 160.09 150.25 160.63 149.43 160.45 148.58 C 160.27 147.74 159.44 147.20 158.60 147.38 L 157.62 147.59 C 156.77 147.77 156.24 148.60 156.41 149.44 C 156.59 150.28 157.42 150.82 158.26 150.64 Z M 158.94 150.47 L 159.99 150.46 C 160.85 150.45 161.55 149.75 161.54 148.89 C 161.53 148.03 160.83 147.33 159.97 147.34 L 158.91 147.35 C 158.05 147.36 157.36 148.06 157.36 148.92 C 157.37 149.78 158.07 150.47 158.94 150.47 Z M 159.75 150.44 L 160.75 150.59 C 161.60 150.71 162.39 150.12 162.52 149.27 C 162.64 148.42 162.05 147.63 161.20 147.50 L 160.21 147.36 C 159.36 147.23 158.56 147.82 158.44 148.67 C 158.31 149.52 158.90 150.31 159.75 150.44 Z M 160.44 150.51 L 161.35 150.84 C 162.16 151.14 163.05 150.73 163.35 149.92 C 163.65 149.11 163.23 148.22 162.43 147.92 L 161.51 147.59 C 160.71 147.29 159.81 147.70 159.52 148.51 C 159.22 149.32 159.63 150.21 160.44 150.51 Z M 160.98 150.64 L 161.78 151.22 C 162.48 151.72 163.45 151.56 163.95 150.86 C 164.45 150.17 164.29 149.19 163.59 148.69 L 162.80 148.12 C 162.10 147.62 161.13 147.78 160.63 148.47 C 160.12 149.17 160.28 150.14 160.98 150.64 Z M 161.52 150.98 L 162.15 151.70 C 162.72 152.35 163.70 152.41 164.35 151.84 C 164.99 151.28 165.06 150.29 164.49 149.65 L 163.86 148.93 C 163.29 148.28 162.31 148.22 161.66 148.79 C 161.01 149.35 160.95 150.34 161.52 150.98 Z M 162.00 151.51 L 162.53 152.35 C 163.00 153.07 163.96 153.29 164.69 152.83 C 165.41 152.37 165.63 151.40 165.17 150.68 L 164.64 149.84 C 164.17 149.11 163.21 148.90 162.48 149.36 C 161.76 149.82 161.54 150.78 162.00 151.51 Z M 162.44 152.18 L 162.89 153.14 C 163.26 153.92 164.19 154.26 164.97 153.89 C 165.75 153.52 166.09 152.59 165.72 151.81 L 165.26 150.84 C 164.89 150.06 163.96 149.73 163.18 150.10 C 162.40 150.47 162.07 151.40 162.44 152.18 Z M 162.84 153.01 L 163.19 153.98 C 163.49 154.79 164.38 155.20 165.20 154.91 C 166.01 154.61 166.42 153.71 166.13 152.90 L 165.77 151.94 C 165.48 151.13 164.58 150.71 163.77 151.01 C 162.96 151.30 162.54 152.20 162.84 153.01 Z M 163.16 153.90 L 163.45 154.85 C 163.71 155.68 164.58 156.15 165.41 155.89 C 166.24 155.64 166.70 154.77 166.45 153.94 L 166.16 152.98 C 165.90 152.15 165.03 151.69 164.20 151.94 C 163.37 152.19 162.91 153.07 163.16 153.90 Z M 163.44 154.80 L 163.70 155.80 C 163.92 156.64 164.78 157.14 165.62 156.92 C 166.45 156.70 166.95 155.84 166.73 155.00 L 166.47 154.00 C 166.24 153.16 165.39 152.66 164.55 152.88 C 163.71 153.10 163.21 153.96 163.44 154.80 Z M 163.68 155.72 L 163.88 156.67 C 164.06 157.52 164.89 158.06 165.74 157.88 C 166.58 157.71 167.13 156.87 166.95 156.03 L 166.75 155.08 C 166.57 154.23 165.74 153.69 164.89 153.87 C 164.05 154.04 163.50 154.87 163.68 155.72 Z M 163.86 156.56 L 163.99 157.51 C 164.11 158.36 164.90 158.97 165.76 158.85 C 166.62 158.73 167.22 157.94 167.10 157.08 L 166.97 156.14 C 166.85 155.28 166.06 154.68 165.20 154.79 C 164.34 154.91 163.74 155.70 163.86 156.56 Z M 163.98 157.41 L 164.05 158.41 C 164.12 159.27 164.87 159.92 165.73 159.86 C 166.60 159.79 167.24 159.04 167.18 158.18 L 167.11 157.18 C 167.04 156.31 166.29 155.67 165.43 155.73 C 164.57 155.79 163.92 156.54 163.98 157.41 Z M 164.05 158.34 L 164.08 159.32 C 164.11 160.19 164.83 160.87 165.69 160.84 C 166.56 160.82 167.24 160.10 167.21 159.23 L 167.18 158.25 C 167.16 157.38 166.44 156.70 165.57 156.73 C 164.71 156.75 164.03 157.47 164.05 158.34 Z M 164.08 159.29 L 164.09 160.30 C 164.09 161.16 164.80 161.86 165.66 161.85 C 166.53 161.85 167.22 161.14 167.22 160.28 L 167.21 159.27 C 167.21 158.40 166.50 157.71 165.64 157.71 C 164.77 157.72 164.08 158.42 164.08 159.29 Z M 164.09 160.29 L 164.09 161.29 C 164.09 162.15 164.79 162.85 165.65 162.85 C 166.52 162.85 167.21 162.15 167.21 161.28 L 167.21 160.29 C 167.21 159.42 166.52 158.72 165.65 158.72 C 164.79 158.72 164.09 159.42 164.09 160.29 Z M 164.09 161.29 L 164.09 162.29 C 164.09 163.15 164.79 163.85 165.65 163.85 C 166.51 163.85 167.21 163.15 167.21 162.29 L 167.21 161.29 C 167.21 160.42 166.51 159.73 165.65 159.73 C 164.79 159.73 164.09 160.42 164.09 161.29 Z M 164.10 162.29 L 164.10 163.30 C 164.10 164.16 164.79 164.86 165.65 164.86 C 166.51 164.86 167.21 164.16 167.21 163.30 L 167.21 162.29 C 167.21 161.43 166.51 160.73 165.65 160.73 C 164.79 160.73 164.10 161.43 164.10 162.29 Z M 164.10 163.29 L 164.09 164.29 C 164.09 165.15 164.78 165.85 165.64 165.86 C 166.50 165.86 167.20 165.17 167.20 164.31 L 167.21 163.31 C 167.21 162.45 166.52 161.75 165.66 161.75 C 164.80 161.74 164.10 162.43 164.10 163.29 Z M 164.10 164.27 L 164.07 165.27 C 164.05 166.12 164.73 166.83 165.59 166.85 C 166.45 166.87 167.16 166.19 167.18 165.34 L 167.20 164.34 C 167.22 163.48 166.54 162.77 165.68 162.75 C 164.82 162.73 164.11 163.41 164.10 164.27 Z M 164.08 165.22 L 164.03 166.22 C 163.99 167.08 164.64 167.81 165.50 167.85 C 166.35 167.89 167.08 167.23 167.12 166.38 L 167.17 165.38 C 167.22 164.52 166.56 163.79 165.70 163.75 C 164.85 163.71 164.12 164.37 164.08 165.22 Z M 164.03 166.18 L 163.95 167.17 C 163.88 168.02 164.52 168.77 165.37 168.84 C 166.22 168.91 166.97 168.27 167.04 167.42 L 167.12 166.43 C 167.19 165.57 166.55 164.83 165.70 164.76 C 164.85 164.69 164.10 165.32 164.03 166.18 Z M 163.96 167.12 L 163.84 168.14 C 163.74 168.99 164.35 169.76 165.20 169.86 C 166.05 169.96 166.82 169.35 166.92 168.50 L 167.03 167.47 C 167.13 166.62 166.52 165.86 165.67 165.76 C 164.82 165.66 164.05 166.27 163.96 167.12 Z M 163.84 168.10 L 163.70 169.08 C 163.59 169.93 164.18 170.71 165.03 170.83 C 165.87 170.95 166.66 170.36 166.77 169.51 L 166.91 168.53 C 167.03 167.68 166.44 166.90 165.59 166.78 C 164.74 166.67 163.96 167.26 163.84 168.10 Z M 163.71 169.07 L 163.56 170.03 C 163.44 170.88 164.02 171.67 164.86 171.80 C 165.71 171.92 166.50 171.34 166.63 170.49 L 166.77 169.53 C 166.90 168.68 166.32 167.89 165.47 167.77 C 164.62 167.64 163.83 168.22 163.71 169.07 Z M 163.56 170.01 L 163.41 170.99 C 163.27 171.84 163.84 172.63 164.69 172.77 C 165.53 172.91 166.33 172.33 166.47 171.49 L 166.63 170.51 C 166.76 169.67 166.19 168.87 165.34 168.73 C 164.50 168.60 163.70 169.17 163.56 170.01 Z M 163.41 170.97 L 163.23 171.95 C 163.08 172.79 163.64 173.60 164.49 173.75 C 165.33 173.90 166.14 173.34 166.29 172.50 L 166.46 171.51 C 166.61 170.67 166.05 169.87 165.21 169.71 C 164.37 169.56 163.56 170.12 163.41 170.97 Z M 163.24 171.92 L 163.04 172.92 C 162.87 173.76 163.42 174.58 164.26 174.75 C 165.10 174.92 165.91 174.37 166.08 173.53 L 166.28 172.53 C 166.45 171.69 165.90 170.87 165.06 170.70 C 164.22 170.54 163.41 171.08 163.24 171.92 Z M 163.05 172.87 L 162.81 173.89 C 162.61 174.72 163.12 175.56 163.96 175.76 C 164.79 175.96 165.62 175.44 165.82 174.61 L 166.07 173.59 C 166.27 172.75 165.75 171.92 164.92 171.72 C 164.09 171.52 163.25 172.03 163.05 172.87 Z M 162.86 173.73 L 162.53 174.66 C 162.25 175.46 162.67 176.35 163.47 176.63 C 164.27 176.92 165.15 176.50 165.44 175.69 L 165.77 174.77 C 166.05 173.97 165.64 173.08 164.83 172.80 C 164.03 172.51 163.15 172.93 162.86 173.73 Z M 162.73 174.30 L 162.18 175.09 C 161.69 175.78 161.86 176.74 162.55 177.22 C 163.25 177.71 164.20 177.54 164.69 176.85 L 165.24 176.06 C 165.73 175.36 165.56 174.41 164.87 173.92 C 164.17 173.44 163.22 173.60 162.73 174.30 Z M 162.43 174.83 L 161.81 175.37 C 161.18 175.93 161.12 176.89 161.67 177.52 C 162.23 178.15 163.19 178.21 163.82 177.65 L 164.44 177.11 C 165.07 176.55 165.13 175.59 164.57 174.96 C 164.02 174.33 163.06 174.27 162.43 174.83 Z"
      fill="black"
      fill-rule="nonzero" /><path d="M 156.28 156.06 L 157.29 156.02 C 158.13 155.98 158.79 155.27 158.75 154.43 C 158.72 153.59 158.01 152.93 157.17 152.96 L 156.16 153.00 C 155.32 153.03 154.66 153.75 154.69 154.59 C 154.72 155.43 155.43 156.09 156.28 156.06 Z M 157.30 156.04 L 158.29 155.99 C 159.15 155.95 159.81 155.22 159.77 154.37 C 159.72 153.51 159.00 152.85 158.14 152.89 L 157.15 152.94 C 156.30 152.98 155.64 153.71 155.68 154.56 C 155.72 155.42 156.44 156.08 157.30 156.04 Z M 158.30 155.99 L 159.29 155.93 C 160.14 155.88 160.80 155.15 160.75 154.30 C 160.70 153.44 159.97 152.79 159.11 152.84 L 158.13 152.90 C 157.27 152.94 156.62 153.68 156.67 154.53 C 156.72 155.38 157.45 156.04 158.30 155.99 Z M 159.26 155.91 L 160.26 155.87 C 161.11 155.83 161.76 155.12 161.73 154.28 C 161.69 153.44 160.98 152.79 160.14 152.82 L 159.14 152.86 C 158.30 152.90 157.64 153.61 157.68 154.45 C 157.71 155.29 158.42 155.94 159.26 155.91 Z M 160.22 155.85 L 161.22 155.83 C 162.04 155.82 162.71 155.14 162.70 154.31 C 162.69 153.48 162.00 152.82 161.18 152.83 L 160.18 152.84 C 159.35 152.85 158.69 153.54 158.70 154.36 C 158.71 155.19 159.39 155.86 160.22 155.85 Z M 161.20 155.81 L 162.22 155.81 C 163.04 155.81 163.70 155.15 163.70 154.33 C 163.70 153.51 163.04 152.85 162.22 152.85 L 161.19 152.85 C 160.38 152.85 159.71 153.52 159.72 154.33 C 159.72 155.15 160.38 155.81 161.20 155.81 Z M 162.22 155.79 L 163.24 155.79 C 164.04 155.79 164.70 155.14 164.70 154.34 C 164.70 153.53 164.05 152.88 163.24 152.87 L 162.22 152.87 C 161.42 152.87 160.76 153.52 160.76 154.33 C 160.76 155.13 161.41 155.79 162.22 155.79 Z M 163.22 155.77 L 164.20 155.79 C 165.00 155.80 165.65 155.16 165.67 154.36 C 165.68 153.57 165.04 152.91 164.24 152.90 L 163.26 152.89 C 162.46 152.88 161.81 153.52 161.80 154.31 C 161.79 155.11 162.42 155.76 163.22 155.77 Z M 164.18 155.78 L 165.19 155.81 C 165.98 155.83 166.64 155.21 166.66 154.42 C 166.69 153.63 166.07 152.97 165.28 152.95 L 164.27 152.92 C 163.48 152.89 162.82 153.51 162.79 154.30 C 162.77 155.09 163.39 155.75 164.18 155.78 Z M 165.18 155.80 L 165.79 155.83 C 166.58 155.86 167.25 155.25 167.28 154.46 C 167.31 153.67 166.70 153.01 165.91 152.98 L 165.29 152.95 C 164.51 152.92 163.84 153.53 163.81 154.32 C 163.78 155.11 164.39 155.77 165.18 155.80 Z"
      fill="black"
      fill-rule="nonzero" /><path d="M 156.95 162.42 L 157.83 162.65 C 158.65 162.87 159.49 162.39 159.71 161.57 C 159.93 160.76 159.44 159.92 158.63 159.70 L 157.74 159.46 C 156.93 159.24 156.09 159.73 155.87 160.54 C 155.65 161.36 156.13 162.20 156.95 162.42 Z M 158.08 162.72 L 159.11 162.83 C 159.97 162.91 160.73 162.29 160.81 161.43 C 160.90 160.58 160.27 159.82 159.42 159.73 L 158.38 159.63 C 157.53 159.54 156.77 160.17 156.68 161.02 C 156.60 161.88 157.22 162.64 158.08 162.72 Z M 159.31 162.82 L 160.25 162.79 C 161.11 162.77 161.78 162.06 161.75 161.21 C 161.73 160.36 161.02 159.69 160.17 159.71 L 159.22 159.74 C 158.37 159.76 157.70 160.47 157.72 161.32 C 157.74 162.17 158.45 162.84 159.31 162.82 Z M 160.32 162.75 L 161.38 162.67 C 162.20 162.61 162.82 161.89 162.76 161.06 C 162.70 160.24 161.98 159.61 161.15 159.68 L 160.10 159.75 C 159.27 159.82 158.65 160.54 158.71 161.36 C 158.77 162.19 159.49 162.81 160.32 162.75 Z M 161.39 162.64 L 161.83 162.61 C 162.64 162.54 163.24 161.82 163.17 161.01 C 163.10 160.20 162.38 159.60 161.57 159.67 L 161.14 159.71 C 160.33 159.78 159.73 160.49 159.80 161.30 C 159.87 162.11 160.58 162.71 161.39 162.64 Z"
      fill="black"
      fill-rule="nonzero" /></svg>