<svg xmlns="http://www.w3.org/2000/svg" width="300" height="300" viewBox="0 0 300 300">
<path d="M 130.16 141.22 L 129.29 141.93 C 128.65 142.45 128.55 143.39 129.07 144.03 C 129.60 144.67 130.54 144.77 131.18 144.25 L 132.05 143.53 C 132.69 143.01 132.78 142.07 132.26 141.43 C 131.74 140.79 130.80 140.70 130.16 141.22 Z M 129.25 144.26 L 129.63 144.57 C 130.27 145.11 131.23 145.03 131.77 144.38 C 132.31 143.74 132.23 142.78 131.59 142.24 L 131.21 141.92 C 130.57 141.38 129.61 141.47 129.07 142.11 C 128.52 142.75 128.61 143.71 129.25 144.26 Z M 130.56 144.94 L 131.75 144.97 C 132.60 144.99 133.30 144.33 133.32 143.48 C 133.35 142.63 132.68 141.93 131.84 141.91 L 130.65 141.87 C 129.80 141.85 129.10 142.52 129.08 143.36 C 129.05 144.21 129.72 144.91 130.56 144.94 Z M 131.81 144.97 L 132.81 144.96 C 133.65 144.95 134.33 144.26 134.32 143.41 C 134.31 142.57 133.62 141.89 132.78 141.90 L 131.78 141.91 C 130.93 141.92 130.25 142.61 130.26 143.45 C 130.27 144.30 130.96 144.98 131.81 144.97 Z M 132.88 144.95 L 133.84 144.90 C 134.68 144.85 135.33 144.13 135.28 143.29 C 135.23 142.45 134.51 141.80 133.67 141.85 L 132.71 141.90 C 131.86 141.95 131.22 142.67 131.27 143.51 C 131.31 144.36 132.04 145.00 132.88 144.95 Z M 133.93 144.89 L 134.87 144.78 C 135.70 144.68 136.30 143.92 136.20 143.08 C 136.10 142.25 135.34 141.65 134.51 141.75 L 133.57 141.86 C 132.74 141.96 132.14 142.72 132.24 143.55 C 132.34 144.39 133.10 144.99 133.93 144.89 Z M 134.93 144.76 L 136.00 144.59 C 136.83 144.45 137.40 143.67 137.26 142.84 C 137.12 142.01 136.34 141.45 135.51 141.59 L 134.44 141.76 C 133.61 141.90 133.05 142.68 133.19 143.51 C 133.32 144.34 134.11 144.90 134.93 144.76 Z M 136.04 144.58 L 137.02 144.39 C 137.84 144.23 138.38 143.44 138.22 142.61 C 138.07 141.79 137.27 141.25 136.45 141.41 L 135.47 141.60 C 134.65 141.75 134.11 142.55 134.27 143.37 C 134.42 144.19 135.22 144.73 136.04 144.58 Z M 137.04 144.38 L 138.05 144.17 C 138.87 143.99 139.39 143.19 139.22 142.38 C 139.05 141.56 138.24 141.04 137.43 141.21 L 136.42 141.42 C 135.60 141.59 135.08 142.40 135.25 143.21 C 135.43 144.03 136.23 144.55 137.04 144.38 Z M 138.09 144.15 L 139.08 143.91 C 139.89 143.72 140.39 142.91 140.20 142.11 C 140.01 141.30 139.20 140.80 138.39 140.99 L 137.39 141.22 C 136.59 141.42 136.09 142.22 136.28 143.03 C 136.47 143.84 137.28 144.34 138.09 144.15 Z M 139.13 143.89 L 140.12 143.62 C 140.92 143.40 141.38 142.59 141.17 141.79 C 140.95 141.00 140.14 140.53 139.34 140.75 L 138.35 141.02 C 137.55 141.23 137.09 142.05 137.30 142.84 C 137.52 143.63 138.33 144.10 139.13 143.89 Z M 140.15 143.59 L 141.04 143.32 C 141.82 143.09 142.26 142.27 142.03 141.50 C 141.80 140.72 140.98 140.28 140.20 140.51 L 139.31 140.77 C 138.53 141.01 138.09 141.83 138.33 142.60 C 138.56 143.38 139.38 143.82 140.15 143.59 Z M 141.06 143.30 L 142.02 143.00 C 142.78 142.76 143.21 141.94 142.96 141.18 C 142.72 140.41 141.90 139.99 141.14 140.23 L 140.18 140.53 C 139.42 140.77 138.99 141.59 139.24 142.35 C 139.48 143.12 140.29 143.54 141.06 143.30 Z M 142.07 142.97 L 143.01 142.63 C 143.76 142.35 144.14 141.52 143.87 140.77 C 143.59 140.02 142.76 139.64 142.02 139.92 L 141.08 140.26 C 140.33 140.53 139.95 141.36 140.22 142.11 C 140.50 142.86 141.33 143.24 142.07 142.97 Z M 143.10 142.58 L 144.01 142.17 C 144.73 141.85 145.06 141.00 144.73 140.27 C 144.41 139.55 143.56 139.23 142.83 139.55 L 141.93 139.96 C 141.20 140.29 140.88 141.14 141.21 141.86 C 141.53 142.58 142.38 142.90 143.10 142.58 Z M 144.06 142.14 L 144.96 141.69 C 145.67 141.34 145.95 140.48 145.60 139.77 C 145.25 139.07 144.39 138.78 143.68 139.13 L 142.78 139.58 C 142.08 139.94 141.79 140.80 142.14 141.50 C 142.50 142.21 143.35 142.49 144.06 142.14 Z"
      fill="black"
      fill-rule="nonzero" /><path d="M 138.65 136.23 L 138.34 137.16 C 138.08 137.95 138.51 138.80 139.30 139.06 C 140.09 139.32 140.95 138.89 141.21 138.10 L 141.51 137.17 C 141.77 136.38 141.34 135.53 140.55 135.27 C 139.76 135.01 138.91 135.44 138.65 136.23 Z M 138.28 137.29 L 138.06 138.28 C 137.87 139.11 138.39 139.93 139.21 140.11 C 140.04 140.30 140.86 139.78 141.04 138.96 L 141.27 137.96 C 141.45 137.14 140.93 136.32 140.11 136.14 C 139.29 135.95 138.47 136.47 138.28 137.29 Z M 138.01 138.49 L 137.93 139.49 C 137.86 140.34 138.49 141.08 139.34 141.15 C 140.19 141.22 140.93 140.59 141.00 139.75 L 141.09 138.75 C 141.16 137.90 140.53 137.16 139.68 137.09 C 138.83 137.02 138.09 137.65 138.01 138.49 Z M 137.93 139.62 L 137.93 140.63 C 137.93 141.48 138.62 142.17 139.47 142.17 C 140.32 142.17 141.01 141.48 141.01 140.63 L 141.01 139.62 C 141.01 138.77 140.32 138.08 139.47 138.08 C 138.62 138.08 137.93 138.77 137.93 139.62 Z M 137.93 140.68 L 137.96 141.69 C 137.98 142.54 138.69 143.21 139.54 143.18 C 140.40 143.16 141.06 142.45 141.04 141.60 L 141.01 140.59 C 140.98 139.74 140.27 139.07 139.42 139.09 C 138.57 139.12 137.90 139.83 137.93 140.68 Z M 137.96 141.71 L 138.00 142.69 C 138.04 143.54 138.76 144.20 139.61 144.17 C 140.46 144.13 141.12 143.41 141.08 142.56 L 141.04 141.58 C 141.00 140.73 140.28 140.07 139.43 140.10 C 138.58 140.14 137.92 140.86 137.96 141.71 Z M 138.00 142.72 L 138.06 143.69 C 138.12 144.54 138.85 145.18 139.70 145.13 C 140.55 145.07 141.19 144.34 141.14 143.49 L 141.08 142.53 C 141.03 141.68 140.29 141.03 139.44 141.09 C 138.59 141.14 137.95 141.87 138.00 142.72 Z M 138.06 143.71 L 138.14 144.69 C 138.21 145.54 138.95 146.17 139.80 146.11 C 140.65 146.04 141.28 145.30 141.22 144.45 L 141.14 143.47 C 141.07 142.62 140.33 141.99 139.48 142.05 C 138.63 142.12 138.00 142.86 138.06 143.71 Z M 138.14 144.69 L 138.22 145.73 C 138.29 146.58 139.03 147.21 139.88 147.14 C 140.73 147.08 141.37 146.33 141.30 145.48 L 141.22 144.45 C 141.15 143.60 140.41 142.97 139.56 143.03 C 138.71 143.10 138.07 143.84 138.14 144.69 Z M 138.22 145.72 L 138.29 146.68 C 138.36 147.53 139.10 148.17 139.95 148.11 C 140.79 148.05 141.43 147.31 141.37 146.46 L 141.30 145.49 C 141.24 144.64 140.50 144.00 139.65 144.07 C 138.80 144.13 138.16 144.87 138.22 145.72 Z M 138.29 146.68 L 138.36 147.69 C 138.42 148.54 139.16 149.18 140.01 149.12 C 140.86 149.06 141.50 148.32 141.44 147.47 L 141.37 146.46 C 141.31 145.61 140.57 144.97 139.72 145.03 C 138.87 145.09 138.23 145.83 138.29 146.68 Z M 138.36 147.69 L 138.43 148.71 C 138.49 149.56 139.23 150.20 140.08 150.14 C 140.93 150.08 141.57 149.34 141.51 148.50 L 141.44 147.48 C 141.38 146.63 140.65 145.99 139.80 146.04 C 138.95 146.10 138.31 146.84 138.36 147.69 Z M 138.44 148.70 L 138.50 149.70 C 138.56 150.55 139.29 151.19 140.14 151.14 C 140.99 151.08 141.63 150.35 141.58 149.50 L 141.51 148.50 C 141.45 147.65 140.72 147.01 139.87 147.06 C 139.02 147.12 138.38 147.85 138.44 148.70 Z M 138.50 149.70 L 138.57 150.70 C 138.62 151.55 139.35 152.19 140.20 152.14 C 141.05 152.09 141.69 151.35 141.64 150.51 L 141.57 149.50 C 141.52 148.65 140.79 148.01 139.94 148.06 C 139.09 148.12 138.45 148.85 138.50 149.70 Z M 138.57 150.69 L 138.63 151.71 C 138.68 152.55 139.40 153.20 140.25 153.15 C 141.10 153.10 141.75 152.37 141.70 151.53 L 141.64 150.51 C 141.59 149.67 140.86 149.02 140.01 149.07 C 139.17 149.12 138.52 149.85 138.57 150.69 Z M 138.63 151.70 L 138.68 152.70 C 138.72 153.55 139.45 154.20 140.29 154.16 C 141.14 154.11 141.79 153.39 141.75 152.54 L 141.70 151.54 C 141.65 150.69 140.93 150.04 140.08 150.08 C 139.23 150.13 138.58 150.85 138.63 151.70 Z M 138.68 152.69 L 138.72 153.67 C 138.76 154.52 139.48 155.18 140.32 155.14 C 141.17 155.10 141.83 154.39 141.79 153.54 L 141.75 152.56 C 141.71 151.71 140.99 151.05 140.15 151.09 C 139.30 151.13 138.64 151.84 138.68 152.69 Z M 138.72 153.66 L 138.76 154.67 C 138.79 155.52 139.50 156.18 140.35 156.15 C 141.19 156.13 141.86 155.41 141.83 154.57 L 141.79 153.55 C 141.76 152.70 141.05 152.04 140.20 152.07 C 139.36 152.10 138.69 152.81 138.72 153.66 Z M 138.76 154.66 L 138.79 155.66 C 138.81 156.51 139.52 157.18 140.36 157.15 C 141.21 157.13 141.88 156.43 141.85 155.58 L 141.83 154.58 C 141.80 153.73 141.10 153.06 140.25 153.09 C 139.40 153.11 138.74 153.82 138.76 154.66 Z M 138.79 155.66 L 138.81 156.65 C 138.84 157.49 139.54 158.16 140.39 158.14 C 141.23 158.12 141.90 157.41 141.88 156.57 L 141.85 155.58 C 141.83 154.74 141.13 154.07 140.28 154.09 C 139.44 154.11 138.77 154.81 138.79 155.66 Z M 138.81 156.65 L 138.84 157.67 C 138.86 158.51 139.56 159.18 140.41 159.16 C 141.26 159.14 141.92 158.44 141.90 157.59 L 141.88 156.57 C 141.86 155.72 141.15 155.05 140.31 155.08 C 139.46 155.10 138.79 155.80 138.81 156.65 Z M 138.84 157.66 L 138.86 158.63 C 138.88 159.48 139.58 160.15 140.42 160.13 C 141.27 160.12 141.94 159.42 141.92 158.57 L 141.90 157.60 C 141.89 156.75 141.19 156.08 140.34 156.10 C 139.50 156.12 138.82 156.82 138.84 157.66 Z M 138.86 158.62 L 138.87 159.66 C 138.88 160.50 139.57 161.18 140.42 161.17 C 141.26 161.16 141.94 160.47 141.93 159.63 L 141.92 158.59 C 141.91 157.74 141.22 157.06 140.38 157.07 C 139.53 157.08 138.85 157.77 138.86 158.62 Z M 138.87 159.64 L 138.87 160.61 C 138.87 161.46 139.56 162.14 140.41 162.14 C 141.25 162.14 141.93 161.45 141.93 160.60 L 141.93 159.64 C 141.93 158.79 141.24 158.11 140.40 158.11 C 139.55 158.11 138.87 158.80 138.87 159.64 Z M 138.87 160.61 L 138.87 161.56 C 138.87 162.40 139.56 163.08 140.40 163.08 C 141.25 163.08 141.93 162.40 141.93 161.56 L 141.93 160.61 C 141.93 159.76 141.25 159.08 140.40 159.08 C 139.56 159.08 138.87 159.76 138.87 160.61 Z M 138.88 161.56 L 138.88 162.60 C 138.88 163.45 139.56 164.13 140.40 164.13 C 141.25 164.13 141.93 163.45 141.93 162.60 L 141.93 161.56 C 141.93 160.71 141.25 160.03 140.40 160.03 C 139.56 160.03 138.88 160.71 138.88 161.56 Z M 138.88 162.60 L 138.88 163.85 C 138.88 164.69 139.56 165.37 140.40 165.37 C 141.25 165.37 141.93 164.69 141.93 163.85 L 141.93 162.60 C 141.93 161.76 141.25 161.08 140.40 161.08 C 139.56 161.08 138.88 161.76 138.88 162.60 Z M 138.88 163.84 L 138.88 164.23 C 138.88 165.07 139.56 165.75 140.40 165.75 C 141.24 165.75 141.92 165.07 141.92 164.23 L 141.93 163.85 C 141.93 163.01 141.25 162.33 140.41 162.32 C 139.57 162.32 138.88 163.00 138.88 163.84 Z M 141.91 164.16 L 141.86 163.04 C 141.82 162.20 141.12 161.56 140.28 161.59 C 139.45 161.63 138.80 162.34 138.84 163.17 L 138.89 164.30 C 138.93 165.13 139.64 165.78 140.47 165.74 C 141.31 165.70 141.95 165.00 141.91 164.16 Z M 141.83 162.92 L 141.69 161.87 C 141.59 161.05 140.84 160.48 140.03 160.58 C 139.22 160.69 138.64 161.43 138.74 162.24 L 138.88 163.29 C 138.98 164.11 139.73 164.68 140.54 164.58 C 141.35 164.48 141.93 163.73 141.83 162.92 Z M 141.64 161.79 L 141.46 160.82 C 141.31 160.03 140.55 159.51 139.76 159.66 C 138.98 159.81 138.46 160.57 138.61 161.35 L 138.79 162.33 C 138.94 163.11 139.70 163.63 140.49 163.48 C 141.27 163.33 141.79 162.57 141.64 161.79 Z M 141.43 160.80 L 141.41 160.71 C 141.26 159.94 140.51 159.44 139.73 159.59 C 138.96 159.75 138.46 160.50 138.62 161.27 L 138.63 161.37 C 138.79 162.14 139.54 162.64 140.32 162.48 C 141.09 162.33 141.59 161.58 141.43 160.80 Z"
      fill="black"
      fill-rule="nonzero" /><path d="M 140.84 150.14 L 140.82 148.92 C 140.80 148.10 140.12 147.45 139.30 147.46 C 138.48 147.48 137.83 148.16 137.84 148.98 L 137.87 150.20 C 137.88 151.02 138.56 151.67 139.38 151.66 C 140.20 151.64 140.85 150.96 140.84 150.14 Z M 140.71 148.25 L 140.55 147.94 C 140.17 147.18 139.23 146.87 138.47 147.26 C 137.71 147.65 137.40 148.58 137.79 149.34 L 137.95 149.65 C 138.34 150.41 139.27 150.72 140.03 150.33 C 140.79 149.94 141.10 149.01 140.71 148.25 Z M 137.83 147.82 L 137.27 148.74 C 136.82 149.48 137.05 150.45 137.80 150.90 C 138.54 151.35 139.51 151.12 139.96 150.38 L 140.52 149.46 C 140.97 148.72 140.74 147.75 139.99 147.30 C 139.25 146.84 138.28 147.08 137.83 147.82 Z M 137.32 148.65 L 136.68 149.57 C 136.19 150.28 136.36 151.27 137.07 151.76 C 137.79 152.26 138.77 152.09 139.27 151.37 L 139.91 150.46 C 140.41 149.74 140.23 148.76 139.52 148.26 C 138.80 147.77 137.82 147.94 137.32 148.65 Z M 136.73 149.51 L 136.09 150.34 C 135.56 151.03 135.69 152.02 136.38 152.55 C 137.07 153.08 138.06 152.95 138.59 152.26 L 139.23 151.43 C 139.76 150.74 139.63 149.75 138.94 149.22 C 138.25 148.69 137.26 148.82 136.73 149.51 Z M 136.11 150.32 L 135.45 151.15 C 134.91 151.83 135.02 152.82 135.70 153.36 C 136.38 153.90 137.37 153.79 137.91 153.11 L 138.57 152.28 C 139.11 151.60 139.00 150.61 138.32 150.07 C 137.64 149.53 136.65 149.64 136.11 150.32 Z M 135.45 151.15 L 134.84 151.92 C 134.29 152.60 134.40 153.59 135.08 154.13 C 135.76 154.67 136.75 154.56 137.29 153.89 L 137.91 153.11 C 138.45 152.43 138.34 151.44 137.67 150.90 C 136.99 150.36 136.00 150.47 135.45 151.15 Z M 134.83 151.94 L 134.12 152.85 C 133.59 153.53 133.71 154.51 134.39 155.04 C 135.07 155.57 136.05 155.45 136.58 154.77 L 137.29 153.86 C 137.82 153.18 137.70 152.20 137.02 151.67 C 136.34 151.14 135.36 151.26 134.83 151.94 Z M 134.12 152.89 L 133.63 153.54 C 133.13 154.22 133.27 155.19 133.95 155.69 C 134.63 156.20 135.59 156.06 136.10 155.38 L 136.59 154.73 C 137.10 154.05 136.96 153.09 136.27 152.58 C 135.59 152.07 134.63 152.21 134.12 152.89 Z M 133.64 153.55 L 133.05 154.35 C 132.55 155.02 132.69 155.98 133.37 156.48 C 134.05 156.99 135.01 156.84 135.51 156.17 L 136.10 155.37 C 136.60 154.69 136.46 153.73 135.78 153.23 C 135.10 152.73 134.14 152.87 133.64 153.55 Z M 133.05 154.34 L 132.45 155.15 C 131.95 155.83 132.09 156.78 132.76 157.29 C 133.44 157.79 134.40 157.65 134.90 156.98 L 135.51 156.17 C 136.01 155.49 135.87 154.54 135.19 154.03 C 134.52 153.52 133.56 153.66 133.05 154.34 Z M 132.45 155.14 L 131.85 155.94 C 131.35 156.62 131.48 157.58 132.16 158.09 C 132.83 158.59 133.79 158.46 134.30 157.78 L 134.90 156.98 C 135.41 156.31 135.27 155.35 134.60 154.84 C 133.92 154.33 132.96 154.47 132.45 155.14 Z M 131.85 155.94 L 131.26 156.74 C 130.75 157.41 130.88 158.37 131.56 158.88 C 132.23 159.39 133.19 159.25 133.70 158.58 L 134.30 157.78 C 134.81 157.11 134.67 156.15 134.00 155.64 C 133.32 155.13 132.36 155.27 131.85 155.94 Z M 131.26 156.73 L 130.66 157.52 C 130.14 158.19 130.27 159.15 130.94 159.67 C 131.61 160.18 132.58 160.05 133.09 159.38 L 133.69 158.59 C 134.21 157.92 134.08 156.96 133.41 156.44 C 132.74 155.93 131.78 156.06 131.26 156.73 Z M 130.67 157.50 L 130.12 158.19 C 129.60 158.85 129.71 159.82 130.37 160.34 C 131.03 160.87 132.00 160.76 132.52 160.09 L 133.07 159.40 C 133.60 158.74 133.49 157.78 132.82 157.25 C 132.16 156.72 131.20 156.84 130.67 157.50 Z M 130.15 158.16 L 129.43 159.02 C 128.89 159.67 128.98 160.64 129.63 161.18 C 130.28 161.72 131.24 161.63 131.78 160.98 L 132.50 160.12 C 133.04 159.47 132.95 158.51 132.30 157.97 C 131.65 157.42 130.69 157.51 130.15 158.16 Z M 129.45 159.00 L 128.81 159.74 C 128.26 160.38 128.33 161.35 128.98 161.90 C 129.62 162.45 130.58 162.38 131.13 161.74 L 131.77 161.00 C 132.32 160.36 132.25 159.39 131.61 158.84 C 130.96 158.29 130.00 158.36 129.45 159.00 Z M 128.82 159.73 L 128.13 160.51 C 127.58 161.15 127.64 162.12 128.28 162.67 C 128.91 163.23 129.88 163.17 130.44 162.53 L 131.12 161.75 C 131.68 161.11 131.62 160.14 130.98 159.59 C 130.35 159.03 129.38 159.09 128.82 159.73 Z M 128.15 160.50 L 127.47 161.26 C 126.91 161.89 126.96 162.86 127.59 163.42 C 128.22 163.98 129.19 163.93 129.75 163.30 L 130.43 162.54 C 130.99 161.91 130.93 160.95 130.30 160.38 C 129.67 159.82 128.71 159.87 128.15 160.50 Z M 127.46 161.27 L 126.63 162.22 C 126.08 162.86 126.14 163.82 126.77 164.38 C 127.41 164.93 128.37 164.87 128.93 164.23 L 129.76 163.28 C 130.31 162.65 130.25 161.69 129.61 161.13 C 128.98 160.58 128.02 160.64 127.46 161.27 Z M 126.41 163.88 L 126.52 164.11 C 126.88 164.86 127.78 165.18 128.54 164.82 C 129.30 164.46 129.61 163.55 129.25 162.80 L 129.15 162.57 C 128.78 161.82 127.88 161.50 127.12 161.86 C 126.37 162.22 126.05 163.13 126.41 163.88 Z M 128.44 164.85 L 129.54 164.41 C 130.31 164.10 130.69 163.23 130.38 162.46 C 130.07 161.68 129.20 161.31 128.43 161.62 L 127.33 162.06 C 126.56 162.36 126.18 163.24 126.49 164.01 C 126.80 164.78 127.67 165.16 128.44 164.85 Z M 129.52 164.41 L 130.40 164.08 C 131.17 163.78 131.55 162.91 131.26 162.14 C 130.96 161.36 130.09 160.98 129.32 161.28 L 128.44 161.61 C 127.67 161.91 127.29 162.78 127.58 163.55 C 127.88 164.33 128.75 164.71 129.52 164.41 Z M 130.32 164.11 L 131.33 163.78 C 132.13 163.52 132.56 162.67 132.30 161.88 C 132.04 161.09 131.19 160.66 130.40 160.91 L 129.39 161.24 C 128.60 161.50 128.17 162.35 128.42 163.14 C 128.68 163.93 129.53 164.37 130.32 164.11 Z M 131.29 163.80 L 132.22 163.53 C 133.02 163.30 133.49 162.47 133.26 161.66 C 133.03 160.86 132.19 160.40 131.39 160.63 L 130.45 160.89 C 129.65 161.12 129.18 161.96 129.41 162.77 C 129.64 163.57 130.48 164.03 131.29 163.80 Z M 132.19 163.55 L 133.19 163.28 C 134.00 163.07 134.48 162.24 134.27 161.43 C 134.05 160.62 133.22 160.14 132.41 160.35 L 131.42 160.61 C 130.61 160.83 130.12 161.66 130.34 162.47 C 130.55 163.28 131.38 163.76 132.19 163.55 Z M 133.16 163.29 L 134.17 163.05 C 134.99 162.85 135.49 162.03 135.29 161.21 C 135.09 160.39 134.27 159.89 133.45 160.09 L 132.44 160.34 C 131.63 160.54 131.13 161.36 131.33 162.18 C 131.53 162.99 132.35 163.49 133.16 163.29 Z M 134.13 163.06 L 135.13 162.84 C 135.95 162.66 136.48 161.85 136.30 161.03 C 136.12 160.21 135.31 159.69 134.49 159.86 L 133.49 160.08 C 132.66 160.26 132.14 161.07 132.32 161.89 C 132.50 162.72 133.31 163.24 134.13 163.06 Z M 135.10 162.86 L 136.02 162.68 C 136.85 162.52 137.39 161.72 137.23 160.89 C 137.07 160.06 136.27 159.52 135.44 159.67 L 134.52 159.85 C 133.69 160.01 133.15 160.81 133.31 161.64 C 133.47 162.47 134.27 163.01 135.10 162.86 Z M 135.99 162.69 L 136.97 162.52 C 137.81 162.37 138.36 161.57 138.22 160.74 C 138.07 159.91 137.28 159.35 136.44 159.49 L 135.46 159.67 C 134.63 159.81 134.07 160.61 134.22 161.44 C 134.36 162.28 135.16 162.83 135.99 162.69 Z M 136.95 162.52 L 137.94 162.37 C 138.78 162.23 139.35 161.45 139.22 160.61 C 139.09 159.77 138.30 159.20 137.47 159.33 L 136.47 159.49 C 135.63 159.62 135.06 160.40 135.19 161.24 C 135.32 162.08 136.11 162.65 136.95 162.52 Z M 137.91 162.37 L 138.92 162.23 C 139.76 162.11 140.35 161.34 140.23 160.50 C 140.11 159.66 139.34 159.07 138.50 159.19 L 137.49 159.33 C 136.65 159.45 136.07 160.22 136.18 161.06 C 136.30 161.90 137.08 162.49 137.91 162.37 Z M 138.91 162.23 L 139.87 162.10 C 140.71 162.00 141.31 161.23 141.20 160.39 C 141.09 159.55 140.32 158.96 139.48 159.06 L 138.51 159.19 C 137.67 159.30 137.08 160.07 137.19 160.91 C 137.30 161.74 138.07 162.34 138.91 162.23 Z M 139.87 162.10 L 140.83 161.98 C 141.66 161.87 142.26 161.11 142.15 160.27 C 142.04 159.43 141.28 158.84 140.44 158.95 L 139.49 159.07 C 138.65 159.17 138.05 159.94 138.16 160.78 C 138.27 161.61 139.03 162.21 139.87 162.10 Z M 140.84 161.97 L 141.86 161.83 C 142.69 161.72 143.28 160.95 143.16 160.12 C 143.05 159.29 142.28 158.70 141.45 158.82 L 140.43 158.95 C 139.59 159.07 139.01 159.84 139.12 160.67 C 139.24 161.50 140.01 162.09 140.84 161.97 Z M 141.88 161.82 L 142.89 161.67 C 143.72 161.54 144.29 160.77 144.16 159.95 C 144.04 159.12 143.27 158.55 142.44 158.67 L 141.43 158.83 C 140.60 158.95 140.03 159.72 140.16 160.55 C 140.28 161.38 141.05 161.95 141.88 161.82 Z M 142.92 161.66 L 143.90 161.49 C 144.72 161.35 145.27 160.57 145.12 159.75 C 144.98 158.93 144.20 158.38 143.38 158.52 L 142.41 158.69 C 141.59 158.83 141.04 159.61 141.18 160.43 C 141.32 161.25 142.10 161.80 142.92 161.66 Z M 143.96 161.45 L 145.00 161.23 C 145.80 161.05 146.31 160.26 146.13 159.46 C 145.96 158.66 145.16 158.15 144.36 158.33 L 143.32 158.55 C 142.52 158.73 142.01 159.52 142.19 160.32 C 142.36 161.12 143.15 161.63 143.96 161.45 Z M 145.04 161.19 L 145.71 161.02 C 146.49 160.82 146.96 160.03 146.76 159.25 C 146.56 158.47 145.76 158.00 144.98 158.19 L 144.32 158.36 C 143.54 158.56 143.07 159.36 143.27 160.14 C 143.47 160.92 144.26 161.39 145.04 161.19 Z"
      fill="black"
      fill-rule="nonzero" /><path d="M 152.58 137.85 L 152.55 138.78 C 152.53 139.63 153.20 140.34 154.05 140.36 C 154.90 140.38 155.61 139.71 155.63 138.86 L 155.66 137.93 C 155.68 137.08 155.01 136.38 154.16 136.35 C 153.31 136.33 152.60 137.00 152.58 137.85 Z M 152.52 138.82 L 152.52 139.89 C 152.53 140.75 153.23 141.45 154.10 141.45 C 154.97 141.45 155.67 140.74 155.66 139.88 L 155.66 138.81 C 155.66 137.95 154.95 137.25 154.09 137.25 C 153.22 137.25 152.52 137.96 152.52 138.82 Z M 152.51 139.94 L 152.55 140.93 C 152.58 141.81 153.32 142.49 154.19 142.45 C 155.07 142.42 155.75 141.69 155.72 140.81 L 155.68 139.82 C 155.64 138.95 154.91 138.27 154.03 138.30 C 153.16 138.33 152.48 139.07 152.51 139.94 Z M 152.55 140.96 L 152.61 141.99 C 152.65 142.86 153.40 143.53 154.28 143.48 C 155.15 143.43 155.82 142.69 155.77 141.81 L 155.72 140.78 C 155.67 139.91 154.92 139.24 154.04 139.29 C 153.17 139.34 152.50 140.08 152.55 140.96 Z M 152.61 142.00 L 152.67 143.02 C 152.73 143.90 153.48 144.56 154.36 144.50 C 155.23 144.45 155.89 143.69 155.84 142.82 L 155.77 141.80 C 155.72 140.92 154.96 140.26 154.09 140.32 C 153.21 140.37 152.55 141.13 152.61 142.00 Z M 152.67 143.02 L 152.74 144.03 C 152.80 144.91 153.55 145.57 154.42 145.51 C 155.29 145.46 155.96 144.70 155.90 143.83 L 155.83 142.82 C 155.78 141.95 155.03 141.28 154.15 141.34 C 153.28 141.40 152.62 142.15 152.67 143.02 Z M 152.74 144.02 L 152.80 144.97 C 152.84 145.84 153.59 146.50 154.46 146.45 C 155.33 146.41 155.99 145.66 155.95 144.79 L 155.90 143.85 C 155.85 142.98 155.10 142.31 154.23 142.36 C 153.36 142.40 152.70 143.15 152.74 144.02 Z M 152.80 144.94 L 152.84 145.92 C 152.87 146.79 153.60 147.46 154.47 147.43 C 155.34 147.40 156.01 146.67 155.98 145.80 L 155.94 144.82 C 155.91 143.95 155.18 143.27 154.31 143.31 C 153.44 143.34 152.77 144.07 152.80 144.94 Z M 152.84 145.89 L 152.86 146.91 C 152.88 147.78 153.60 148.47 154.46 148.45 C 155.33 148.43 156.02 147.71 156.00 146.84 L 155.98 145.82 C 155.96 144.96 155.24 144.27 154.37 144.29 C 153.51 144.31 152.82 145.03 152.84 145.89 Z M 152.87 146.89 L 152.87 147.88 C 152.88 148.74 153.59 149.44 154.45 149.43 C 155.32 149.42 156.01 148.72 156.00 147.85 L 156.00 146.86 C 155.99 146.00 155.28 145.31 154.42 145.31 C 153.55 145.32 152.86 146.03 152.87 146.89 Z M 152.88 147.87 L 152.88 148.88 C 152.88 149.74 153.58 150.44 154.45 150.43 C 155.31 150.43 156.00 149.73 156.00 148.87 L 156.00 147.86 C 156.00 147.00 155.30 146.30 154.44 146.31 C 153.57 146.31 152.88 147.01 152.88 147.87 Z M 152.89 148.87 L 152.89 149.88 C 152.89 150.74 153.58 151.44 154.44 151.44 C 155.30 151.44 156.00 150.74 156.00 149.88 L 156.00 148.87 C 156.00 148.01 155.30 147.32 154.44 147.32 C 153.58 147.32 152.89 148.01 152.89 148.87 Z M 152.89 149.88 L 152.89 150.89 C 152.89 151.74 153.59 152.44 154.44 152.44 C 155.30 152.44 155.99 151.74 155.99 150.89 L 155.99 149.88 C 155.99 149.03 155.30 148.34 154.44 148.34 C 153.59 148.34 152.89 149.03 152.89 149.88 Z M 152.90 150.89 L 152.90 151.89 C 152.90 152.74 153.59 153.43 154.44 153.43 C 155.29 153.43 155.98 152.74 155.98 151.89 L 155.98 150.89 C 155.98 150.04 155.29 149.35 154.44 149.35 C 153.59 149.35 152.90 150.04 152.90 150.89 Z M 152.91 151.89 L 152.91 152.90 C 152.91 153.75 153.59 154.44 154.44 154.44 C 155.29 154.44 155.98 153.75 155.98 152.90 L 155.98 151.89 C 155.98 151.04 155.29 150.35 154.44 150.35 C 153.59 150.35 152.91 151.04 152.91 151.89 Z M 152.92 152.90 L 152.92 153.89 C 152.92 154.73 153.60 155.41 154.44 155.41 C 155.28 155.41 155.97 154.73 155.97 153.89 L 155.97 152.90 C 155.97 152.06 155.28 151.38 154.44 151.38 C 153.60 151.38 152.92 152.06 152.92 152.90 Z M 152.92 153.89 L 152.92 154.83 C 152.92 155.67 153.60 156.35 154.44 156.35 C 155.28 156.35 155.96 155.67 155.96 154.83 L 155.96 153.89 C 155.96 153.05 155.28 152.37 154.44 152.37 C 153.60 152.37 152.92 153.05 152.92 153.89 Z M 152.92 154.83 L 152.92 155.83 C 152.92 156.66 153.60 157.34 154.44 157.34 C 155.28 157.34 155.96 156.66 155.96 155.83 L 155.96 154.83 C 155.96 153.99 155.28 153.31 154.44 153.31 C 153.60 153.31 152.92 153.99 152.92 154.83 Z M 152.93 155.83 L 152.93 156.86 C 152.93 157.70 153.61 158.38 154.44 158.38 C 155.28 158.38 155.96 157.70 155.96 156.86 L 155.96 155.83 C 155.96 154.99 155.28 154.31 154.44 154.31 C 153.61 154.31 152.93 154.99 152.93 155.83 Z M 152.93 156.86 L 152.93 157.88 C 152.93 158.72 153.61 159.39 154.44 159.39 C 155.28 159.39 155.95 158.72 155.95 157.88 L 155.95 156.86 C 155.95 156.03 155.28 155.35 154.44 155.35 C 153.61 155.35 152.93 156.03 152.93 156.86 Z M 152.94 157.88 L 152.94 158.90 C 152.94 159.73 153.61 160.41 154.44 160.41 C 155.27 160.41 155.95 159.73 155.95 158.90 L 155.95 157.88 C 155.95 157.05 155.27 156.38 154.44 156.38 C 153.61 156.38 152.94 157.05 152.94 157.88 Z M 152.94 158.90 L 152.94 160.16 C 152.95 160.99 153.62 161.66 154.45 161.66 C 155.27 161.66 155.94 160.99 155.94 160.16 L 155.94 158.90 C 155.94 158.07 155.27 157.40 154.44 157.40 C 153.61 157.40 152.94 158.08 152.94 158.90 Z M 152.96 160.25 L 153.01 160.99 C 153.06 161.81 153.76 162.43 154.58 162.38 C 155.40 162.33 156.02 161.62 155.97 160.80 L 155.93 160.07 C 155.87 159.25 155.17 158.63 154.35 158.68 C 153.53 158.73 152.91 159.44 152.96 160.25 Z M 155.92 161.20 L 156.05 160.58 C 156.22 159.79 155.72 159.02 154.93 158.85 C 154.14 158.68 153.36 159.18 153.19 159.97 L 153.06 160.59 C 152.89 161.38 153.39 162.15 154.18 162.32 C 154.97 162.49 155.75 161.99 155.92 161.20 Z M 156.05 160.47 L 156.20 159.36 C 156.31 158.57 155.76 157.84 154.98 157.73 C 154.19 157.62 153.47 158.17 153.36 158.96 L 153.20 160.08 C 153.09 160.86 153.64 161.59 154.42 161.70 C 155.21 161.81 155.94 161.26 156.05 160.47 Z"
      fill="black"
      fill-rule="nonzero" /><path d="M 156.22 137.44 L 157.18 137.32 C 157.99 137.21 158.56 136.47 158.45 135.66 C 158.35 134.86 157.61 134.29 156.80 134.40 L 155.84 134.52 C 155.03 134.63 154.46 135.37 154.57 136.18 C 154.68 136.98 155.42 137.55 156.22 137.44 Z M 157.35 137.31 L 158.34 137.06 C 159.14 136.87 159.63 136.06 159.44 135.26 C 159.24 134.46 158.43 133.97 157.63 134.16 L 156.64 134.41 C 155.84 134.60 155.35 135.41 155.54 136.21 C 155.74 137.01 156.55 137.50 157.35 137.31 Z M 158.52 137.02 L 159.45 136.67 C 160.23 136.37 160.62 135.50 160.33 134.73 C 160.03 133.95 159.16 133.56 158.39 133.85 L 157.45 134.21 C 156.67 134.50 156.28 135.37 156.58 136.15 C 156.87 136.93 157.74 137.32 158.52 137.02 Z M 159.48 136.66 L 160.42 136.29 C 161.19 135.97 161.57 135.09 161.25 134.32 C 160.94 133.55 160.06 133.17 159.29 133.48 L 158.36 133.86 C 157.58 134.17 157.21 135.05 157.52 135.82 C 157.83 136.60 158.71 136.97 159.48 136.66 Z M 160.31 136.33 L 161.29 136.01 C 162.09 135.76 162.53 134.91 162.27 134.11 C 162.02 133.32 161.17 132.88 160.37 133.13 L 159.39 133.44 C 158.60 133.70 158.16 134.55 158.41 135.34 C 158.66 136.14 159.52 136.58 160.31 136.33 Z M 161.12 136.06 L 162.08 135.87 C 162.90 135.71 163.43 134.91 163.27 134.09 C 163.11 133.27 162.31 132.74 161.49 132.90 L 160.54 133.09 C 159.71 133.25 159.18 134.05 159.34 134.87 C 159.51 135.69 160.30 136.22 161.12 136.06 Z M 161.91 135.89 L 162.89 135.81 C 163.72 135.74 164.34 135.01 164.27 134.17 C 164.20 133.34 163.47 132.72 162.63 132.79 L 161.65 132.87 C 160.82 132.95 160.20 133.68 160.27 134.51 C 160.34 135.35 161.08 135.96 161.91 135.89 Z M 162.76 135.81 L 163.77 135.82 C 164.61 135.82 165.29 135.15 165.29 134.31 C 165.29 133.48 164.62 132.79 163.78 132.79 L 162.77 132.79 C 161.93 132.78 161.25 133.46 161.25 134.29 C 161.24 135.13 161.92 135.81 162.76 135.81 Z M 163.62 135.81 L 164.60 135.91 C 165.44 136.00 166.18 135.40 166.27 134.56 C 166.35 133.73 165.75 132.99 164.92 132.90 L 163.93 132.80 C 163.10 132.71 162.35 133.32 162.27 134.15 C 162.18 134.98 162.79 135.73 163.62 135.81 Z M 164.30 135.85 L 165.26 136.16 C 166.05 136.41 166.91 135.97 167.16 135.17 C 167.42 134.37 166.97 133.52 166.18 133.26 L 165.22 132.96 C 164.42 132.71 163.57 133.15 163.31 133.95 C 163.06 134.75 163.50 135.60 164.30 135.85 Z M 164.89 135.99 L 165.68 136.50 C 166.38 136.96 167.33 136.76 167.78 136.05 C 168.24 135.35 168.04 134.41 167.33 133.95 L 166.54 133.44 C 165.84 132.98 164.90 133.18 164.44 133.88 C 163.98 134.59 164.18 135.53 164.89 135.99 Z M 165.43 136.31 L 166.17 137.03 C 166.76 137.63 167.73 137.62 168.32 137.03 C 168.91 136.43 168.91 135.46 168.31 134.87 L 167.58 134.14 C 166.98 133.55 166.02 133.55 165.43 134.15 C 164.83 134.75 164.84 135.71 165.43 136.31 Z M 166.02 136.87 L 166.64 137.70 C 167.15 138.38 168.11 138.51 168.78 138.01 C 169.46 137.50 169.60 136.54 169.09 135.87 L 168.46 135.03 C 167.95 134.36 167.00 134.22 166.32 134.73 C 165.65 135.24 165.51 136.19 166.02 136.87 Z M 166.56 137.58 L 167.09 138.46 C 167.54 139.18 168.48 139.41 169.20 138.97 C 169.92 138.53 170.15 137.58 169.71 136.86 L 169.17 135.99 C 168.73 135.26 167.79 135.04 167.07 135.48 C 166.34 135.92 166.12 136.86 166.56 137.58 Z M 167.03 138.36 L 167.47 139.23 C 167.86 139.98 168.79 140.28 169.54 139.90 C 170.30 139.51 170.60 138.59 170.21 137.83 L 169.77 136.96 C 169.38 136.21 168.46 135.91 167.70 136.29 C 166.95 136.68 166.65 137.60 167.03 138.36 Z M 167.41 139.10 L 167.80 140.06 C 168.11 140.85 169.01 141.23 169.80 140.91 C 170.59 140.60 170.97 139.70 170.66 138.91 L 170.27 137.96 C 169.96 137.17 169.06 136.78 168.27 137.10 C 167.48 137.41 167.10 138.31 167.41 139.10 Z M 167.75 139.92 L 168.02 140.83 C 168.26 141.65 169.12 142.11 169.93 141.87 C 170.75 141.63 171.21 140.77 170.97 139.95 L 170.70 139.05 C 170.46 138.23 169.60 137.76 168.79 138.01 C 167.97 138.25 167.51 139.11 167.75 139.92 Z M 168.00 140.75 L 168.23 141.72 C 168.43 142.55 169.26 143.06 170.09 142.86 C 170.92 142.66 171.43 141.83 171.23 141.00 L 170.99 140.03 C 170.80 139.20 169.96 138.69 169.14 138.89 C 168.31 139.09 167.80 139.92 168.00 140.75 Z M 168.21 141.63 L 168.39 142.62 C 168.53 143.46 169.33 144.02 170.17 143.87 C 171.01 143.72 171.57 142.92 171.42 142.08 L 171.25 141.09 C 171.10 140.25 170.30 139.69 169.46 139.84 C 168.62 139.99 168.06 140.79 168.21 141.63 Z M 168.37 142.51 L 168.47 143.50 C 168.56 144.35 169.32 144.97 170.17 144.88 C 171.02 144.79 171.63 144.03 171.54 143.18 L 171.44 142.19 C 171.35 141.34 170.59 140.73 169.74 140.82 C 168.90 140.91 168.28 141.67 168.37 142.51 Z M 168.47 143.43 L 168.52 144.43 C 168.57 145.28 169.31 145.93 170.16 145.88 C 171.01 145.83 171.66 145.10 171.61 144.25 L 171.55 143.25 C 171.50 142.40 170.77 141.75 169.92 141.80 C 169.07 141.85 168.42 142.58 168.47 143.43 Z M 168.52 144.40 L 168.56 145.39 C 168.59 146.24 169.31 146.91 170.16 146.88 C 171.01 146.85 171.68 146.13 171.65 145.28 L 171.61 144.28 C 171.58 143.43 170.86 142.77 170.01 142.80 C 169.16 142.83 168.49 143.54 168.52 144.40 Z M 168.56 145.37 L 168.58 146.37 C 168.60 147.23 169.30 147.91 170.15 147.89 C 171.01 147.87 171.68 147.17 171.67 146.31 L 171.65 145.30 C 171.63 144.45 170.92 143.77 170.07 143.79 C 169.22 143.81 168.54 144.51 168.56 145.37 Z M 168.58 146.36 L 168.59 147.35 C 168.59 148.20 169.29 148.89 170.14 148.88 C 171.00 148.87 171.68 148.18 171.67 147.32 L 171.67 146.33 C 171.66 145.48 170.96 144.79 170.11 144.80 C 169.26 144.81 168.57 145.50 168.58 146.36 Z M 168.59 147.34 L 168.59 148.35 C 168.59 149.20 169.28 149.89 170.13 149.89 C 170.99 149.89 171.68 149.20 171.68 148.34 L 171.67 147.33 C 171.67 146.48 170.98 145.79 170.13 145.79 C 169.28 145.79 168.59 146.49 168.59 147.34 Z M 168.59 148.34 L 168.59 149.33 C 168.59 150.18 169.28 150.87 170.13 150.87 C 170.98 150.88 171.67 150.19 171.67 149.34 L 171.67 148.35 C 171.68 147.50 170.99 146.80 170.14 146.80 C 169.28 146.80 168.59 147.49 168.59 148.34 Z M 168.59 149.31 L 168.57 150.32 C 168.56 151.17 169.24 151.87 170.09 151.88 C 170.95 151.89 171.65 151.21 171.66 150.36 L 171.67 149.35 C 171.68 148.50 171.00 147.80 170.15 147.79 C 169.30 147.78 168.60 148.46 168.59 149.31 Z M 168.58 150.28 L 168.54 151.27 C 168.51 152.12 169.17 152.84 170.02 152.87 C 170.87 152.90 171.59 152.23 171.62 151.38 L 171.66 150.40 C 171.69 149.55 171.02 148.83 170.17 148.80 C 169.32 148.77 168.61 149.43 168.58 150.28 Z M 168.54 151.23 L 168.48 152.23 C 168.42 153.07 169.07 153.81 169.92 153.86 C 170.76 153.92 171.50 153.27 171.55 152.42 L 171.62 151.43 C 171.67 150.58 171.03 149.84 170.18 149.79 C 169.33 149.73 168.60 150.38 168.54 151.23 Z M 168.48 152.18 L 168.39 153.20 C 168.31 154.05 168.93 154.80 169.78 154.88 C 170.63 154.96 171.38 154.33 171.46 153.49 L 171.55 152.47 C 171.63 151.62 171.00 150.87 170.16 150.79 C 169.31 150.71 168.56 151.33 168.48 152.18 Z M 168.39 153.17 L 168.27 154.18 C 168.17 155.03 168.78 155.79 169.62 155.89 C 170.47 155.99 171.23 155.38 171.33 154.54 L 171.45 153.52 C 171.55 152.68 170.94 151.91 170.10 151.81 C 169.25 151.72 168.49 152.32 168.39 153.17 Z M 168.27 154.15 L 168.14 155.11 C 168.03 155.96 168.62 156.73 169.46 156.85 C 170.30 156.96 171.08 156.37 171.20 155.53 L 171.33 154.57 C 171.44 153.73 170.85 152.95 170.01 152.83 C 169.17 152.72 168.39 153.31 168.27 154.15 Z M 168.15 155.08 L 167.98 156.12 C 167.85 156.96 168.42 157.75 169.26 157.88 C 170.11 158.02 170.89 157.44 171.03 156.60 L 171.19 155.56 C 171.33 154.72 170.75 153.93 169.91 153.80 C 169.07 153.67 168.28 154.24 168.15 155.08 Z M 167.99 156.09 L 167.82 157.02 C 167.67 157.86 168.23 158.66 169.07 158.81 C 169.91 158.96 170.71 158.40 170.86 157.56 L 171.02 156.63 C 171.17 155.80 170.61 154.99 169.78 154.84 C 168.94 154.70 168.14 155.25 167.99 156.09 Z M 167.83 157.00 L 167.64 157.95 C 167.48 158.78 168.03 159.59 168.87 159.75 C 169.70 159.91 170.51 159.36 170.67 158.53 L 170.85 157.58 C 171.01 156.75 170.47 155.94 169.63 155.78 C 168.79 155.62 167.99 156.17 167.83 157.00 Z M 167.65 157.93 L 167.44 158.94 C 167.27 159.77 167.81 160.59 168.64 160.76 C 169.48 160.93 170.29 160.39 170.46 159.56 L 170.67 158.54 C 170.84 157.71 170.30 156.90 169.47 156.73 C 168.63 156.56 167.82 157.10 167.65 157.93 Z M 167.44 158.92 L 167.24 159.90 C 167.06 160.73 167.59 161.55 168.42 161.73 C 169.25 161.91 170.07 161.38 170.25 160.54 L 170.46 159.57 C 170.64 158.74 170.11 157.92 169.27 157.74 C 168.44 157.56 167.62 158.09 167.44 158.92 Z M 167.24 159.87 L 167.01 160.86 C 166.81 161.68 167.33 162.51 168.16 162.71 C 168.98 162.90 169.81 162.39 170.01 161.56 L 170.24 160.57 C 170.44 159.75 169.92 158.92 169.10 158.72 C 168.27 158.53 167.44 159.04 167.24 159.87 Z M 167.04 160.74 L 166.68 161.90 C 166.42 162.71 166.87 163.57 167.68 163.83 C 168.49 164.09 169.36 163.64 169.61 162.83 L 169.98 161.67 C 170.23 160.86 169.79 160.00 168.97 159.74 C 168.16 159.48 167.30 159.93 167.04 160.74 Z M 168.01 160.83 L 167.65 160.86 C 166.80 160.93 166.17 161.68 166.24 162.52 C 166.32 163.37 167.06 164.00 167.91 163.93 L 168.28 163.89 C 169.12 163.82 169.75 163.08 169.68 162.23 C 169.60 161.38 168.86 160.76 168.01 160.83 Z M 169.23 161.90 L 168.94 161.02 C 168.67 160.22 167.80 159.78 166.99 160.05 C 166.19 160.32 165.75 161.19 166.02 162.00 L 166.32 162.88 C 166.59 163.68 167.46 164.12 168.27 163.85 C 169.07 163.58 169.50 162.71 169.23 161.90 Z M 168.97 161.15 L 168.72 160.11 C 168.52 159.29 167.69 158.78 166.87 158.98 C 166.05 159.18 165.54 160.01 165.74 160.83 L 165.99 161.87 C 166.19 162.69 167.02 163.20 167.84 163.00 C 168.66 162.80 169.17 161.97 168.97 161.15 Z"
      fill="black"
      fill-rule="nonzero" /><path d="M 156.73 148.70 L 157.70 148.54 C 158.52 148.41 159.08 147.63 158.95 146.81 C 158.82 145.98 158.04 145.42 157.22 145.55 L 156.25 145.71 C 155.43 145.84 154.87 146.61 155.00 147.44 C 155.13 148.27 155.91 148.83 156.73 148.70 Z M 157.66 148.56 L 158.66 148.43 C 159.49 148.31 160.08 147.54 159.97 146.71 C 159.85 145.87 159.08 145.28 158.25 145.40 L 157.25 145.53 C 156.41 145.65 155.83 146.42 155.94 147.25 C 156.05 148.09 156.82 148.67 157.66 148.56 Z M 158.62 148.43 L 159.59 148.32 C 160.43 148.22 161.03 147.47 160.94 146.63 C 160.85 145.80 160.09 145.19 159.25 145.29 L 158.28 145.40 C 157.44 145.49 156.84 146.24 156.94 147.08 C 157.03 147.92 157.78 148.52 158.62 148.43 Z M 159.60 148.30 L 160.62 148.18 C 161.45 148.09 162.04 147.34 161.95 146.51 C 161.85 145.69 161.11 145.09 160.28 145.19 L 159.25 145.30 C 158.43 145.40 157.83 146.15 157.93 146.97 C 158.02 147.80 158.77 148.40 159.60 148.30 Z M 160.64 148.17 L 161.62 148.05 C 162.44 147.94 163.02 147.19 162.92 146.37 C 162.81 145.55 162.06 144.97 161.24 145.08 L 160.26 145.20 C 159.44 145.30 158.86 146.05 158.97 146.87 C 159.07 147.69 159.82 148.27 160.64 148.17 Z M 161.62 148.04 L 162.63 147.91 C 163.45 147.80 164.02 147.06 163.92 146.24 C 163.81 145.43 163.07 144.85 162.25 144.95 L 161.24 145.09 C 160.43 145.19 159.85 145.94 159.95 146.75 C 160.06 147.57 160.81 148.14 161.62 148.04 Z M 162.62 147.90 L 163.63 147.77 C 164.44 147.68 165.02 146.94 164.92 146.13 C 164.82 145.32 164.09 144.75 163.28 144.84 L 162.26 144.97 C 161.45 145.06 160.88 145.80 160.98 146.61 C 161.07 147.42 161.81 147.99 162.62 147.90 Z M 163.61 147.76 L 164.60 147.65 C 165.40 147.57 165.98 146.85 165.90 146.05 C 165.81 145.25 165.09 144.67 164.29 144.75 L 163.30 144.86 C 162.50 144.94 161.92 145.66 162.00 146.46 C 162.09 147.27 162.81 147.84 163.61 147.76 Z M 164.57 147.64 L 165.57 147.55 C 166.37 147.48 166.95 146.78 166.88 145.99 C 166.81 145.19 166.11 144.61 165.32 144.68 L 164.32 144.76 C 163.53 144.83 162.94 145.53 163.01 146.33 C 163.08 147.12 163.78 147.71 164.57 147.64 Z M 165.55 147.54 L 166.54 147.48 C 167.33 147.42 167.92 146.74 167.87 145.95 C 167.81 145.16 167.13 144.56 166.34 144.62 L 165.35 144.68 C 164.56 144.74 163.96 145.42 164.02 146.21 C 164.07 147.00 164.76 147.60 165.55 147.54 Z M 166.53 147.47 L 167.06 147.44 C 167.84 147.39 168.44 146.71 168.39 145.92 C 168.34 145.14 167.66 144.54 166.88 144.59 L 166.35 144.62 C 165.56 144.67 164.96 145.35 165.01 146.13 C 165.06 146.92 165.74 147.52 166.53 147.47 Z"
      fill="black"
      fill-rule="nonzero" /><path d="M 156.87 156.07 L 157.70 156.26 C 158.51 156.45 159.32 155.94 159.51 155.13 C 159.70 154.32 159.19 153.51 158.38 153.32 L 157.55 153.13 C 156.73 152.94 155.92 153.45 155.73 154.26 C 155.55 155.08 156.06 155.89 156.87 156.07 Z M 157.93 156.33 L 158.95 156.40 C 159.80 156.45 160.53 155.81 160.59 154.97 C 160.65 154.12 160.01 153.38 159.16 153.33 L 158.14 153.26 C 157.29 153.20 156.56 153.84 156.50 154.69 C 156.44 155.53 157.08 156.27 157.93 156.33 Z M 159.21 156.41 L 160.26 156.30 C 161.11 156.21 161.74 155.45 161.65 154.59 C 161.56 153.74 160.79 153.11 159.94 153.20 L 158.89 153.31 C 158.04 153.40 157.41 154.17 157.50 155.02 C 157.59 155.88 158.36 156.50 159.21 156.41 Z M 160.40 156.28 L 161.34 156.09 C 162.19 155.93 162.74 155.11 162.57 154.26 C 162.40 153.42 161.58 152.87 160.74 153.04 L 159.80 153.22 C 158.95 153.39 158.40 154.21 158.57 155.05 C 158.74 155.90 159.56 156.45 160.40 156.28 Z M 161.40 156.07 L 162.42 155.83 C 163.25 155.63 163.76 154.79 163.56 153.96 C 163.36 153.13 162.53 152.62 161.69 152.82 L 160.68 153.06 C 159.85 153.26 159.33 154.09 159.53 154.93 C 159.73 155.76 160.57 156.27 161.40 156.07 Z M 162.44 155.82 L 163.46 155.55 C 164.29 155.34 164.78 154.49 164.57 153.67 C 164.35 152.84 163.51 152.35 162.69 152.56 L 161.67 152.83 C 160.84 153.04 160.35 153.89 160.56 154.71 C 160.78 155.54 161.62 156.03 162.44 155.82 Z M 163.47 155.54 L 164.53 155.26 C 165.35 155.04 165.83 154.20 165.62 153.39 C 165.40 152.57 164.57 152.08 163.75 152.30 L 162.69 152.58 C 161.87 152.79 161.38 153.63 161.59 154.45 C 161.81 155.27 162.65 155.75 163.47 155.54 Z M 164.51 155.24 L 165.59 154.97 C 166.41 154.76 166.90 153.94 166.69 153.13 C 166.48 152.32 165.66 151.83 164.85 152.03 L 163.76 152.31 C 162.95 152.52 162.46 153.34 162.67 154.15 C 162.88 154.96 163.70 155.45 164.51 155.24 Z M 165.57 154.95 L 166.51 154.73 C 167.31 154.54 167.80 153.74 167.61 152.94 C 167.42 152.13 166.62 151.64 165.82 151.83 L 164.88 152.05 C 164.08 152.24 163.58 153.04 163.77 153.85 C 163.96 154.65 164.76 155.14 165.57 154.95 Z M 166.46 154.72 L 167.30 154.54 C 168.09 154.38 168.60 153.60 168.43 152.80 C 168.27 152.01 167.49 151.50 166.70 151.67 L 165.86 151.84 C 165.07 152.01 164.56 152.79 164.72 153.58 C 164.89 154.37 165.67 154.88 166.46 154.72 Z M 167.22 154.54 L 168.28 154.37 C 169.07 154.25 169.61 153.51 169.49 152.72 C 169.37 151.93 168.63 151.39 167.84 151.51 L 166.78 151.67 C 165.99 151.79 165.44 152.53 165.57 153.32 C 165.69 154.11 166.43 154.66 167.22 154.54 Z M 168.20 154.37 L 168.89 154.30 C 169.67 154.22 170.25 153.52 170.17 152.73 C 170.09 151.94 169.39 151.37 168.60 151.45 L 167.92 151.51 C 167.13 151.59 166.56 152.30 166.63 153.08 C 166.71 153.87 167.42 154.45 168.20 154.37 Z"
      fill="black"
      fill-rule="nonzero" /><path d="M 156.74 169.53 L 157.66 169.34 C 158.51 169.16 159.05 168.33 158.87 167.48 C 158.69 166.63 157.86 166.09 157.01 166.27 L 156.09 166.46 C 155.25 166.64 154.70 167.47 154.88 168.32 C 155.06 169.17 155.89 169.71 156.74 169.53 Z M 157.68 169.35 L 158.65 169.13 C 159.51 168.94 160.05 168.09 159.85 167.23 C 159.66 166.38 158.81 165.84 157.95 166.04 L 156.98 166.26 C 156.13 166.45 155.59 167.30 155.79 168.15 C 155.98 169.01 156.83 169.54 157.68 169.35 Z M 158.69 169.14 L 159.72 168.88 C 160.57 168.67 161.09 167.80 160.88 166.94 C 160.66 166.08 159.79 165.56 158.94 165.78 L 157.91 166.03 C 157.06 166.25 156.54 167.12 156.75 167.97 C 156.97 168.83 157.84 169.35 158.69 169.14 Z M 159.75 168.88 L 160.69 168.62 C 161.55 168.38 162.05 167.50 161.82 166.65 C 161.59 165.79 160.70 165.29 159.85 165.52 L 158.90 165.78 C 158.05 166.01 157.54 166.90 157.78 167.75 C 158.01 168.61 158.89 169.11 159.75 168.88 Z M 160.72 168.61 L 161.70 168.33 C 162.55 168.08 163.04 167.19 162.79 166.34 C 162.55 165.49 161.66 165.00 160.81 165.25 L 159.83 165.53 C 158.98 165.78 158.49 166.66 158.73 167.51 C 158.98 168.36 159.87 168.85 160.72 168.61 Z M 161.71 168.32 L 162.69 168.03 C 163.53 167.77 164.01 166.88 163.76 166.04 C 163.51 165.19 162.61 164.71 161.77 164.96 L 160.80 165.25 C 159.95 165.51 159.47 166.40 159.72 167.24 C 159.98 168.09 160.87 168.57 161.71 168.32 Z M 162.70 168.02 L 163.75 167.69 C 164.59 167.43 165.06 166.54 164.80 165.70 C 164.54 164.86 163.65 164.39 162.81 164.65 L 161.76 164.97 C 160.92 165.23 160.45 166.13 160.71 166.96 C 160.97 167.80 161.86 168.27 162.70 168.02 Z M 163.76 167.67 L 164.73 167.36 C 165.56 167.10 166.02 166.21 165.76 165.38 C 165.49 164.55 164.61 164.09 163.78 164.35 L 162.80 164.67 C 161.97 164.93 161.51 165.82 161.77 166.65 C 162.04 167.48 162.93 167.94 163.76 167.67 Z M 164.74 167.35 L 165.59 167.07 C 166.41 166.80 166.86 165.92 166.59 165.10 C 166.32 164.28 165.44 163.83 164.62 164.09 L 163.77 164.37 C 162.95 164.64 162.50 165.52 162.77 166.34 C 163.03 167.17 163.92 167.61 164.74 167.35 Z M 165.59 167.05 L 166.54 166.73 C 167.35 166.46 167.79 165.58 167.52 164.77 C 167.24 163.96 166.37 163.53 165.56 163.80 L 164.61 164.12 C 163.80 164.39 163.37 165.26 163.64 166.07 C 163.91 166.88 164.78 167.32 165.59 167.05 Z M 166.56 166.69 L 167.47 166.37 C 168.26 166.09 168.68 165.22 168.40 164.43 C 168.12 163.64 167.25 163.23 166.46 163.51 L 165.55 163.84 C 164.76 164.11 164.34 164.98 164.62 165.77 C 164.90 166.56 165.77 166.97 166.56 166.69 Z M 167.49 166.34 L 168.39 166.00 C 169.17 165.71 169.56 164.85 169.27 164.08 C 168.98 163.31 168.12 162.91 167.35 163.20 L 166.44 163.54 C 165.67 163.83 165.28 164.69 165.57 165.46 C 165.86 166.24 166.72 166.63 167.49 166.34 Z M 168.41 165.99 L 169.37 165.61 C 170.13 165.31 170.51 164.45 170.21 163.69 C 169.91 162.92 169.04 162.55 168.28 162.85 L 167.33 163.22 C 166.56 163.52 166.19 164.38 166.49 165.15 C 166.79 165.91 167.65 166.28 168.41 165.99 Z M 169.39 165.59 L 170.36 165.19 C 171.11 164.87 171.46 164.01 171.15 163.26 C 170.83 162.51 169.97 162.15 169.22 162.47 L 168.25 162.87 C 167.50 163.18 167.15 164.05 167.46 164.80 C 167.78 165.55 168.64 165.90 169.39 165.59 Z M 170.39 165.16 L 171.32 164.73 C 172.06 164.40 172.38 163.54 172.05 162.80 C 171.71 162.06 170.85 161.74 170.11 162.07 L 169.18 162.49 C 168.45 162.83 168.12 163.69 168.45 164.43 C 168.79 165.16 169.65 165.49 170.39 165.16 Z M 171.35 164.70 L 172.21 164.28 C 172.93 163.93 173.23 163.06 172.87 162.34 C 172.52 161.63 171.65 161.33 170.94 161.68 L 170.08 162.11 C 169.36 162.46 169.07 163.32 169.42 164.04 C 169.77 164.76 170.64 165.05 171.35 164.70 Z M 172.25 164.25 L 173.14 163.78 C 173.85 163.41 174.11 162.54 173.74 161.84 C 173.37 161.14 172.51 160.87 171.80 161.24 L 170.90 161.71 C 170.20 162.08 169.94 162.95 170.31 163.65 C 170.68 164.35 171.54 164.62 172.25 164.25 Z M 173.17 163.76 L 174.03 163.28 C 174.72 162.90 174.97 162.03 174.59 161.34 C 174.21 160.65 173.34 160.40 172.64 160.78 L 171.78 161.26 C 171.09 161.64 170.84 162.51 171.22 163.20 C 171.60 163.89 172.47 164.14 173.17 163.76 Z M 174.03 163.28 L 174.12 163.23 C 174.81 162.85 175.05 161.98 174.67 161.29 C 174.29 160.60 173.42 160.35 172.73 160.74 L 172.64 160.79 C 171.95 161.17 171.71 162.04 172.09 162.73 C 172.47 163.41 173.34 163.66 174.03 163.28 Z"
      fill="black"
      fill-rule="nonzero" /></svg>