<svg xmlns="http://www.w3.org/2000/svg" width="300" height="300" viewBox="0 0 300 300">
<path d="M 133.24 133.69 L 133.30 134.73 C 133.35 135.55 134.06 136.18 134.88 136.13 C 135.71 136.09 136.34 135.38 136.29 134.55 L 136.23 133.52 C 136.18 132.69 135.47 132.06 134.65 132.11 C 133.82 132.16 133.19 132.87 133.24 133.69 Z M 133.70 135.69 L 134.29 136.30 C 134.87 136.91 135.84 136.93 136.44 136.35 C 137.04 135.76 137.06 134.80 136.48 134.20 L 135.89 133.58 C 135.31 132.98 134.35 132.96 133.74 133.54 C 133.14 134.12 133.12 135.09 133.70 135.69 Z M 135.05 136.74 L 136.07 136.97 C 136.89 137.16 137.71 136.64 137.89 135.82 C 138.08 134.99 137.56 134.17 136.74 133.99 L 135.72 133.76 C 134.90 133.57 134.08 134.09 133.90 134.91 C 133.71 135.74 134.23 136.55 135.05 136.74 Z M 136.20 136.99 L 137.16 137.12 C 137.99 137.23 138.76 136.64 138.87 135.80 C 138.98 134.97 138.39 134.20 137.56 134.09 L 136.60 133.97 C 135.77 133.86 135.00 134.45 134.89 135.28 C 134.78 136.12 135.37 136.88 136.20 136.99 Z M 137.16 137.11 L 138.19 137.24 C 139.02 137.35 139.79 136.77 139.90 135.94 C 140.00 135.11 139.42 134.35 138.59 134.24 L 137.56 134.10 C 136.72 133.99 135.96 134.58 135.85 135.41 C 135.74 136.24 136.33 137.00 137.16 137.11 Z M 138.19 137.24 L 139.15 137.37 C 139.97 137.48 140.73 136.90 140.85 136.07 C 140.96 135.25 140.38 134.48 139.55 134.37 L 138.59 134.24 C 137.77 134.13 137.01 134.71 136.89 135.54 C 136.78 136.36 137.36 137.13 138.19 137.24 Z M 139.15 137.36 L 140.18 137.50 C 141.00 137.61 141.76 137.03 141.87 136.20 C 141.98 135.38 141.40 134.62 140.57 134.51 L 139.55 134.38 C 138.72 134.27 137.97 134.85 137.86 135.67 C 137.75 136.50 138.33 137.25 139.15 137.36 Z M 140.19 137.49 L 141.23 137.62 C 142.05 137.72 142.79 137.13 142.89 136.31 C 142.99 135.49 142.41 134.74 141.59 134.64 L 140.55 134.52 C 139.73 134.42 138.99 135.01 138.89 135.83 C 138.79 136.65 139.37 137.39 140.19 137.49 Z M 141.25 137.60 L 142.24 137.71 C 143.06 137.80 143.79 137.21 143.87 136.39 C 143.96 135.58 143.37 134.85 142.56 134.76 L 141.56 134.66 C 140.75 134.57 140.02 135.16 139.93 135.97 C 139.85 136.79 140.43 137.52 141.25 137.60 Z M 142.25 137.69 L 143.20 137.79 C 144.00 137.88 144.72 137.30 144.81 136.49 C 144.89 135.69 144.31 134.97 143.51 134.89 L 142.56 134.78 C 141.75 134.70 141.03 135.28 140.95 136.08 C 140.86 136.88 141.44 137.60 142.25 137.69 Z M 143.19 137.78 L 144.17 137.89 C 144.96 137.98 145.68 137.41 145.77 136.61 C 145.86 135.82 145.29 135.10 144.49 135.01 L 143.52 134.90 C 142.73 134.81 142.01 135.38 141.92 136.17 C 141.83 136.97 142.40 137.69 143.19 137.78 Z M 144.18 137.88 L 145.19 137.99 C 145.98 138.08 146.69 137.50 146.78 136.72 C 146.86 135.93 146.29 135.22 145.50 135.13 L 144.49 135.02 C 143.70 134.94 142.99 135.51 142.90 136.29 C 142.82 137.08 143.39 137.79 144.18 137.88 Z M 145.21 137.99 L 146.19 138.08 C 146.98 138.15 147.68 137.57 147.75 136.78 C 147.82 136.00 147.24 135.30 146.46 135.23 L 145.48 135.14 C 144.69 135.06 144.00 135.64 143.92 136.43 C 143.85 137.21 144.43 137.91 145.21 137.99 Z M 146.21 138.07 L 147.21 138.16 C 148.00 138.22 148.69 137.64 148.75 136.85 C 148.82 136.07 148.24 135.38 147.45 135.31 L 146.44 135.23 C 145.66 135.16 144.97 135.75 144.90 136.53 C 144.84 137.32 145.42 138.01 146.21 138.07 Z M 147.22 138.16 L 147.73 138.20 C 148.52 138.26 149.21 137.67 149.27 136.89 C 149.33 136.10 148.75 135.42 147.96 135.35 L 147.44 135.31 C 146.66 135.25 145.97 135.84 145.91 136.62 C 145.85 137.41 146.43 138.09 147.22 138.16 Z"
      fill="black"
      fill-rule="nonzero" /><path d="M 132.75 144.65 L 133.71 144.91 C 134.53 145.13 135.37 144.65 135.59 143.83 C 135.82 143.02 135.34 142.17 134.52 141.95 L 133.56 141.69 C 132.75 141.47 131.90 141.95 131.68 142.76 C 131.46 143.58 131.94 144.42 132.75 144.65 Z M 133.80 144.92 L 134.78 145.13 C 135.61 145.31 136.42 144.78 136.59 143.96 C 136.77 143.13 136.24 142.32 135.42 142.15 L 134.43 141.94 C 133.61 141.76 132.80 142.29 132.62 143.11 C 132.45 143.94 132.97 144.75 133.80 144.92 Z M 134.92 145.15 L 135.89 145.27 C 136.73 145.37 137.48 144.77 137.59 143.94 C 137.69 143.10 137.09 142.35 136.26 142.25 L 135.28 142.13 C 134.45 142.03 133.69 142.62 133.59 143.46 C 133.49 144.29 134.08 145.05 134.92 145.15 Z M 135.98 145.27 L 136.99 145.34 C 137.83 145.39 138.55 144.75 138.60 143.91 C 138.66 143.08 138.02 142.36 137.18 142.30 L 136.17 142.24 C 135.33 142.19 134.61 142.83 134.56 143.66 C 134.51 144.50 135.14 145.22 135.98 145.27 Z M 137.03 145.33 L 138.02 145.37 C 138.86 145.41 139.56 144.76 139.59 143.92 C 139.63 143.09 138.98 142.38 138.14 142.35 L 137.15 142.31 C 136.31 142.27 135.61 142.92 135.58 143.76 C 135.54 144.59 136.19 145.30 137.03 145.33 Z M 138.03 145.36 L 139.04 145.40 C 139.87 145.42 140.56 144.77 140.59 143.94 C 140.62 143.11 139.97 142.42 139.14 142.39 L 138.13 142.36 C 137.30 142.33 136.61 142.98 136.58 143.81 C 136.55 144.64 137.20 145.34 138.03 145.36 Z M 139.05 145.39 L 140.06 145.42 C 140.89 145.44 141.58 144.79 141.60 143.96 C 141.62 143.14 140.97 142.45 140.15 142.43 L 139.13 142.40 C 138.30 142.37 137.61 143.03 137.59 143.85 C 137.57 144.68 138.22 145.37 139.05 145.39 Z M 140.06 145.41 L 141.07 145.44 C 141.89 145.46 142.58 144.81 142.60 143.99 C 142.62 143.16 141.97 142.48 141.15 142.46 L 140.14 142.43 C 139.32 142.41 138.64 143.06 138.61 143.88 C 138.59 144.70 139.24 145.39 140.06 145.41 Z M 141.06 145.43 L 142.02 145.46 C 142.84 145.49 143.52 144.84 143.55 144.02 C 143.57 143.20 142.93 142.52 142.11 142.49 L 141.15 142.46 C 140.33 142.44 139.64 143.08 139.62 143.90 C 139.59 144.72 140.24 145.41 141.06 145.43 Z M 142.00 145.46 L 142.97 145.50 C 143.79 145.53 144.47 144.89 144.51 144.07 C 144.54 143.26 143.90 142.57 143.09 142.54 L 142.12 142.50 C 141.30 142.47 140.61 143.10 140.58 143.92 C 140.55 144.74 141.19 145.42 142.00 145.46 Z M 142.95 145.49 L 144.08 145.55 C 144.90 145.59 145.59 144.97 145.63 144.15 C 145.67 143.33 145.05 142.64 144.23 142.60 L 143.10 142.54 C 142.29 142.50 141.59 143.12 141.55 143.94 C 141.51 144.76 142.14 145.45 142.95 145.49 Z M 144.04 145.56 L 145.21 145.65 C 146.03 145.72 146.75 145.11 146.81 144.29 C 146.88 143.46 146.27 142.75 145.45 142.68 L 144.27 142.59 C 143.45 142.52 142.73 143.13 142.67 143.96 C 142.60 144.78 143.22 145.49 144.04 145.56 Z M 144.92 145.62 L 145.52 145.79 C 146.33 146.02 147.16 145.55 147.39 144.74 C 147.61 143.94 147.14 143.10 146.34 142.88 L 145.73 142.71 C 144.93 142.48 144.09 142.95 143.87 143.76 C 143.65 144.56 144.12 145.40 144.92 145.62 Z M 145.27 142.95 L 144.42 143.35 C 143.66 143.72 143.33 144.63 143.69 145.39 C 144.06 146.16 144.97 146.48 145.73 146.12 L 146.58 145.72 C 147.35 145.36 147.67 144.44 147.31 143.68 C 146.95 142.92 146.04 142.59 145.27 142.95 Z M 144.42 143.34 L 143.50 143.77 C 142.73 144.13 142.40 145.05 142.76 145.82 C 143.12 146.59 144.04 146.92 144.81 146.56 L 145.73 146.13 C 146.50 145.77 146.83 144.85 146.47 144.08 C 146.11 143.31 145.19 142.98 144.42 143.34 Z M 143.33 143.86 L 142.46 144.41 C 141.74 144.86 141.52 145.82 141.97 146.54 C 142.42 147.26 143.38 147.48 144.10 147.03 L 144.98 146.48 C 145.70 146.02 145.92 145.07 145.46 144.35 C 145.01 143.63 144.06 143.41 143.33 143.86 Z M 142.39 144.46 L 141.58 145.03 C 140.88 145.52 140.72 146.48 141.21 147.18 C 141.71 147.88 142.67 148.04 143.36 147.55 L 144.17 146.98 C 144.87 146.49 145.03 145.52 144.54 144.83 C 144.05 144.13 143.08 143.96 142.39 144.46 Z M 141.55 145.06 L 140.73 145.67 C 140.05 146.18 139.92 147.15 140.43 147.83 C 140.94 148.51 141.91 148.65 142.58 148.13 L 143.40 147.52 C 144.08 147.01 144.22 146.04 143.70 145.36 C 143.19 144.68 142.23 144.55 141.55 145.06 Z M 140.70 145.70 L 139.95 146.29 C 139.29 146.82 139.18 147.79 139.71 148.46 C 140.25 149.12 141.21 149.23 141.88 148.70 L 142.62 148.10 C 143.28 147.57 143.39 146.60 142.86 145.94 C 142.33 145.28 141.36 145.17 140.70 145.70 Z M 139.91 146.33 L 139.17 146.97 C 138.53 147.52 138.46 148.50 139.02 149.14 C 139.57 149.78 140.54 149.85 141.19 149.30 L 141.92 148.66 C 142.57 148.10 142.64 147.13 142.08 146.49 C 141.52 145.85 140.55 145.78 139.91 146.33 Z M 139.14 147.00 L 138.37 147.71 C 137.74 148.28 137.70 149.26 138.27 149.88 C 138.85 150.51 139.82 150.55 140.45 149.98 L 141.22 149.27 C 141.85 148.69 141.89 147.72 141.31 147.09 C 140.74 146.46 139.76 146.42 139.14 147.00 Z M 138.35 147.73 L 137.60 148.44 C 136.98 149.02 136.95 149.99 137.54 150.61 C 138.12 151.23 139.09 151.25 139.71 150.67 L 140.46 149.96 C 141.08 149.38 141.11 148.41 140.52 147.79 C 139.94 147.17 138.97 147.14 138.35 147.73 Z M 137.60 148.44 L 136.86 149.15 C 136.24 149.73 136.22 150.70 136.80 151.32 C 137.38 151.93 138.35 151.95 138.97 151.37 L 139.71 150.66 C 140.32 150.08 140.35 149.11 139.76 148.50 C 139.18 147.89 138.21 147.86 137.60 148.44 Z M 136.86 149.15 L 136.11 149.86 C 135.50 150.44 135.48 151.41 136.06 152.02 C 136.64 152.63 137.60 152.66 138.22 152.07 L 138.96 151.37 C 139.57 150.79 139.60 149.82 139.02 149.21 C 138.44 148.60 137.47 148.57 136.86 149.15 Z M 136.12 149.86 L 135.43 150.52 C 134.82 151.09 134.79 152.06 135.36 152.67 C 135.94 153.28 136.90 153.31 137.51 152.73 L 138.21 152.07 C 138.82 151.50 138.85 150.54 138.27 149.93 C 137.70 149.32 136.73 149.29 136.12 149.86 Z M 135.43 150.53 L 134.75 151.17 C 134.14 151.75 134.12 152.71 134.70 153.31 C 135.27 153.92 136.23 153.94 136.83 153.37 L 137.51 152.72 C 138.12 152.14 138.14 151.19 137.56 150.58 C 136.99 149.98 136.03 149.95 135.43 150.53 Z M 134.74 151.19 L 134.03 151.88 C 133.43 152.46 133.41 153.41 133.99 154.01 C 134.57 154.61 135.53 154.63 136.12 154.05 L 136.84 153.35 C 137.44 152.77 137.45 151.82 136.87 151.22 C 136.29 150.62 135.34 150.61 134.74 151.19 Z M 134.02 151.89 L 133.28 152.63 C 132.69 153.21 132.68 154.17 133.27 154.76 C 133.85 155.35 134.81 155.35 135.40 154.77 L 136.13 154.03 C 136.73 153.45 136.73 152.49 136.14 151.90 C 135.56 151.31 134.61 151.31 134.02 151.89 Z M 133.26 152.65 L 132.53 153.40 C 131.95 153.99 131.96 154.94 132.56 155.52 C 133.15 156.10 134.10 156.08 134.68 155.49 L 135.41 154.74 C 135.99 154.15 135.98 153.20 135.38 152.62 C 134.79 152.05 133.84 152.06 133.26 152.65 Z M 132.52 153.42 L 131.85 154.13 C 131.29 154.73 131.32 155.67 131.92 156.24 C 132.51 156.80 133.46 156.77 134.02 156.18 L 134.69 155.47 C 135.25 154.87 135.22 153.92 134.63 153.36 C 134.03 152.80 133.08 152.83 132.52 153.42 Z M 131.83 154.17 L 131.15 154.94 C 130.60 155.54 130.66 156.48 131.26 157.02 C 131.87 157.57 132.81 157.52 133.35 156.91 L 134.04 156.14 C 134.58 155.53 134.53 154.60 133.92 154.05 C 133.31 153.51 132.38 153.56 131.83 154.17 Z M 131.07 155.04 L 130.49 155.82 C 130.01 156.47 130.14 157.39 130.79 157.87 C 131.44 158.36 132.36 158.22 132.85 157.58 L 133.43 156.80 C 133.91 156.15 133.78 155.23 133.13 154.75 C 132.48 154.26 131.56 154.39 131.07 155.04 Z M 130.35 156.08 L 129.93 156.98 C 129.59 157.71 129.91 158.58 130.64 158.92 C 131.36 159.26 132.23 158.94 132.57 158.21 L 132.99 157.31 C 133.33 156.58 133.01 155.72 132.28 155.38 C 131.56 155.04 130.69 155.35 130.35 156.08 Z M 129.87 157.19 L 129.66 157.88 C 129.44 158.64 129.87 159.45 130.63 159.67 C 131.40 159.90 132.20 159.46 132.42 158.70 L 132.63 158.01 C 132.86 157.25 132.42 156.44 131.66 156.22 C 130.90 155.99 130.10 156.43 129.87 157.19 Z"
      fill="black"
      fill-rule="nonzero" /><path d="M 139.45 152.06 L 139.88 152.98 C 140.22 153.73 141.11 154.05 141.86 153.70 C 142.61 153.36 142.93 152.47 142.59 151.72 L 142.16 150.80 C 141.81 150.05 140.92 149.73 140.17 150.08 C 139.42 150.43 139.10 151.31 139.45 152.06 Z M 139.77 152.86 L 140.10 153.79 C 140.38 154.59 141.26 155.02 142.06 154.74 C 142.87 154.46 143.29 153.58 143.01 152.78 L 142.69 151.84 C 142.41 151.04 141.53 150.61 140.72 150.89 C 139.92 151.17 139.49 152.05 139.77 152.86 Z M 140.00 153.52 L 140.15 154.49 C 140.28 155.35 141.08 155.93 141.94 155.80 C 142.80 155.67 143.38 154.87 143.25 154.02 L 143.11 153.05 C 142.98 152.19 142.18 151.60 141.32 151.73 C 140.46 151.86 139.87 152.66 140.00 153.52 Z M 140.13 154.29 L 140.16 155.30 C 140.18 156.17 140.90 156.86 141.77 156.83 C 142.64 156.81 143.32 156.09 143.30 155.22 L 143.27 154.21 C 143.25 153.34 142.53 152.66 141.66 152.68 C 140.79 152.70 140.11 153.43 140.13 154.29 Z M 140.16 155.26 L 140.16 156.24 C 140.16 157.10 140.86 157.81 141.73 157.81 C 142.60 157.81 143.30 157.10 143.30 156.24 L 143.30 155.26 C 143.30 154.39 142.60 153.69 141.73 153.69 C 140.86 153.69 140.16 154.39 140.16 155.26 Z M 140.16 156.24 L 140.16 157.25 C 140.16 158.11 140.86 158.82 141.73 158.82 C 142.60 158.82 143.30 158.11 143.30 157.25 L 143.30 156.24 C 143.30 155.37 142.60 154.66 141.73 154.66 C 140.86 154.66 140.16 155.37 140.16 156.24 Z M 140.16 157.24 L 140.16 158.23 C 140.16 159.09 140.86 159.80 141.73 159.80 C 142.59 159.80 143.30 159.09 143.30 158.23 L 143.30 157.25 C 143.30 156.38 142.60 155.68 141.73 155.68 C 140.86 155.68 140.16 156.38 140.16 157.24 Z M 140.17 158.21 L 140.15 159.19 C 140.14 160.05 140.84 160.76 141.70 160.77 C 142.56 160.78 143.27 160.09 143.28 159.23 L 143.29 158.25 C 143.30 157.38 142.61 156.68 141.75 156.66 C 140.88 156.65 140.18 157.35 140.17 158.21 Z M 140.16 159.15 L 140.12 160.20 C 140.09 161.06 140.76 161.78 141.61 161.82 C 142.47 161.85 143.20 161.18 143.23 160.32 L 143.27 159.27 C 143.31 158.41 142.64 157.69 141.78 157.65 C 140.92 157.62 140.20 158.29 140.16 159.15 Z M 140.13 160.15 L 140.06 161.17 C 139.99 162.02 140.64 162.76 141.49 162.83 C 142.34 162.89 143.09 162.25 143.15 161.39 L 143.22 160.37 C 143.28 159.52 142.64 158.78 141.79 158.72 C 140.93 158.65 140.19 159.30 140.13 160.15 Z M 140.06 161.14 L 139.97 162.16 C 139.89 163.01 140.52 163.76 141.37 163.84 C 142.22 163.91 142.97 163.29 143.05 162.44 L 143.14 161.42 C 143.22 160.57 142.59 159.82 141.74 159.74 C 140.89 159.66 140.14 160.29 140.06 161.14 Z M 139.97 162.16 L 139.88 163.12 C 139.81 163.97 140.43 164.72 141.28 164.80 C 142.13 164.88 142.88 164.25 142.96 163.41 L 143.04 162.44 C 143.12 161.59 142.50 160.84 141.65 160.76 C 140.80 160.68 140.05 161.31 139.97 162.16 Z M 139.90 163.15 L 139.82 164.19 C 139.75 165.03 140.38 165.76 141.22 165.83 C 142.06 165.89 142.80 165.26 142.86 164.42 L 142.94 163.38 C 143.01 162.54 142.38 161.81 141.54 161.74 C 140.70 161.68 139.96 162.30 139.90 163.15 Z M 139.84 164.22 L 139.78 165.17 C 139.74 166.00 140.37 166.71 141.20 166.76 C 142.03 166.81 142.74 166.17 142.79 165.34 L 142.84 164.39 C 142.89 163.56 142.25 162.85 141.43 162.80 C 140.60 162.75 139.89 163.39 139.84 164.22 Z M 139.80 165.20 L 139.76 166.17 C 139.73 166.99 140.36 167.68 141.18 167.71 C 142.00 167.75 142.69 167.11 142.73 166.29 L 142.77 165.32 C 142.80 164.50 142.17 163.81 141.35 163.78 C 140.53 163.74 139.84 164.38 139.80 165.20 Z M 139.77 166.18 L 139.74 167.19 C 139.71 168.00 140.35 168.68 141.16 168.71 C 141.97 168.73 142.65 168.10 142.68 167.29 L 142.71 166.28 C 142.74 165.47 142.11 164.79 141.29 164.76 C 140.48 164.73 139.80 165.37 139.77 166.18 Z M 139.75 167.19 L 139.73 167.75 C 139.71 168.56 140.34 169.23 141.14 169.26 C 141.95 169.28 142.63 168.65 142.65 167.85 L 142.67 167.28 C 142.70 166.48 142.06 165.80 141.26 165.78 C 140.45 165.75 139.77 166.38 139.75 167.19 Z"
      fill="black"
      fill-rule="nonzero" /><path d="M 143.80 152.61 L 143.92 151.61 C 144.02 150.79 143.45 150.05 142.63 149.94 C 141.81 149.84 141.07 150.42 140.97 151.23 L 140.84 152.24 C 140.74 153.05 141.32 153.80 142.13 153.90 C 142.95 154.00 143.69 153.42 143.80 152.61 Z M 143.35 152.63 L 144.02 152.13 C 144.69 151.63 144.82 150.68 144.32 150.01 C 143.82 149.34 142.87 149.21 142.21 149.71 L 141.54 150.21 C 140.87 150.71 140.73 151.66 141.23 152.33 C 141.74 153.00 142.68 153.13 143.35 152.63 Z M 143.24 152.44 L 144.27 152.35 C 145.11 152.28 145.73 151.54 145.66 150.70 C 145.59 149.86 144.85 149.24 144.01 149.31 L 142.99 149.40 C 142.15 149.47 141.53 150.21 141.60 151.05 C 141.67 151.88 142.40 152.51 143.24 152.44 Z M 143.98 152.34 L 145.07 152.46 C 145.90 152.55 146.65 151.94 146.74 151.11 C 146.83 150.27 146.22 149.52 145.39 149.43 L 144.30 149.32 C 143.47 149.23 142.72 149.83 142.63 150.67 C 142.54 151.51 143.14 152.26 143.98 152.34 Z M 144.88 152.42 L 145.86 152.65 C 146.67 152.84 147.48 152.33 147.67 151.52 C 147.86 150.71 147.36 149.89 146.54 149.70 L 145.57 149.48 C 144.76 149.29 143.95 149.79 143.76 150.60 C 143.57 151.41 144.07 152.23 144.88 152.42 Z M 145.71 152.59 L 146.65 152.91 C 147.43 153.18 148.28 152.76 148.55 151.98 C 148.81 151.20 148.40 150.35 147.62 150.08 L 146.69 149.76 C 145.91 149.49 145.06 149.91 144.79 150.69 C 144.52 151.47 144.93 152.32 145.71 152.59 Z M 146.54 152.84 L 147.43 153.24 C 148.18 153.57 149.05 153.24 149.38 152.49 C 149.71 151.75 149.37 150.88 148.63 150.55 L 147.73 150.15 C 146.99 149.82 146.12 150.15 145.79 150.90 C 145.46 151.64 145.79 152.51 146.54 152.84 Z M 147.38 153.20 L 148.25 153.63 C 148.96 153.99 149.84 153.70 150.20 152.98 C 150.56 152.26 150.27 151.39 149.55 151.03 L 148.68 150.59 C 147.96 150.23 147.09 150.52 146.73 151.24 C 146.37 151.96 146.66 152.84 147.38 153.20 Z M 148.23 153.61 L 149.14 154.08 C 149.85 154.45 150.72 154.17 151.08 153.46 C 151.45 152.76 151.18 151.89 150.47 151.52 L 149.56 151.05 C 148.85 150.68 147.98 150.96 147.62 151.66 C 147.25 152.37 147.53 153.24 148.23 153.61 Z M 149.14 154.07 L 150.02 154.53 C 150.72 154.89 151.59 154.62 151.95 153.91 C 152.32 153.21 152.04 152.34 151.34 151.98 L 150.46 151.53 C 149.76 151.16 148.90 151.44 148.53 152.14 C 148.17 152.84 148.44 153.71 149.14 154.07 Z M 150.02 154.52 L 150.82 154.93 C 151.52 155.30 152.38 155.02 152.75 154.32 C 153.11 153.62 152.83 152.76 152.13 152.40 L 151.34 151.98 C 150.64 151.62 149.77 151.90 149.41 152.60 C 149.05 153.30 149.32 154.16 150.02 154.52 Z"
      fill="black"
      fill-rule="nonzero" /><path d="M 151.74 138.40 L 151.39 139.28 C 151.08 140.05 151.45 140.92 152.22 141.22 C 152.98 141.53 153.85 141.16 154.16 140.39 L 154.51 139.51 C 154.82 138.74 154.45 137.87 153.68 137.57 C 152.92 137.26 152.05 137.63 151.74 138.40 Z M 151.30 139.50 L 151.07 140.49 C 150.88 141.31 151.39 142.12 152.21 142.31 C 153.02 142.49 153.84 141.98 154.02 141.17 L 154.25 140.18 C 154.44 139.36 153.93 138.55 153.11 138.36 C 152.30 138.17 151.48 138.68 151.30 139.50 Z M 151.03 140.72 L 150.96 141.68 C 150.90 142.52 151.53 143.25 152.37 143.31 C 153.21 143.37 153.94 142.74 154.00 141.90 L 154.07 140.94 C 154.13 140.10 153.50 139.37 152.66 139.31 C 151.82 139.25 151.09 139.88 151.03 140.72 Z M 150.95 141.77 L 150.94 142.83 C 150.93 143.67 151.60 144.36 152.45 144.37 C 153.29 144.38 153.98 143.70 153.99 142.86 L 154.00 141.81 C 154.01 140.97 153.34 140.27 152.49 140.26 C 151.65 140.26 150.96 140.93 150.95 141.77 Z M 150.94 142.84 L 150.94 143.84 C 150.94 144.68 151.62 145.37 152.46 145.37 C 153.31 145.37 153.99 144.68 153.99 143.84 L 153.99 142.84 C 153.99 142.00 153.31 141.32 152.46 141.32 C 151.62 141.32 150.94 142.00 150.94 142.84 Z M 150.94 143.84 L 150.94 144.84 C 150.94 145.68 151.62 146.37 152.46 146.37 C 153.31 146.37 153.99 145.68 153.99 144.84 L 153.99 143.84 C 153.99 143.00 153.31 142.32 152.46 142.32 C 151.62 142.32 150.94 143.00 150.94 143.84 Z M 150.94 144.84 L 150.94 145.85 C 150.94 146.69 151.62 147.37 152.46 147.37 C 153.31 147.37 153.99 146.69 153.99 145.85 L 153.99 144.84 C 153.99 144.00 153.31 143.32 152.46 143.32 C 151.62 143.32 150.94 144.00 150.94 144.84 Z M 150.95 145.85 L 150.95 146.85 C 150.95 147.69 151.63 148.37 152.46 148.37 C 153.30 148.37 153.98 147.69 153.98 146.85 L 153.98 145.85 C 153.98 145.01 153.30 144.33 152.46 144.33 C 151.63 144.33 150.95 145.01 150.95 145.85 Z M 150.95 146.85 L 150.95 147.85 C 150.95 148.69 151.63 149.36 152.46 149.36 C 153.30 149.36 153.98 148.69 153.98 147.85 L 153.98 146.85 C 153.98 146.02 153.30 145.34 152.46 145.34 C 151.63 145.34 150.95 146.02 150.95 146.85 Z M 150.96 147.85 L 150.96 148.86 C 150.96 149.69 151.64 150.36 152.46 150.36 C 153.29 150.36 153.97 149.69 153.97 148.86 L 153.97 147.85 C 153.97 147.02 153.29 146.35 152.46 146.35 C 151.64 146.35 150.96 147.02 150.96 147.85 Z M 150.97 148.86 L 150.97 149.86 C 150.97 150.68 151.64 151.35 152.46 151.35 C 153.29 151.35 153.95 150.68 153.95 149.86 L 153.95 148.86 C 153.95 148.03 153.29 147.37 152.46 147.37 C 151.64 147.37 150.97 148.03 150.97 148.86 Z M 150.99 149.86 L 150.99 150.85 C 150.99 151.67 151.65 152.33 152.46 152.33 C 153.28 152.33 153.94 151.67 153.94 150.85 L 153.94 149.86 C 153.94 149.04 153.28 148.38 152.46 148.38 C 151.65 148.38 150.99 149.04 150.99 149.86 Z M 151.00 150.85 L 151.00 151.87 C 151.00 152.68 151.66 153.34 152.46 153.34 C 153.27 153.34 153.93 152.68 153.93 151.87 L 153.93 150.85 C 153.93 150.04 153.27 149.39 152.46 149.39 C 151.66 149.39 151.00 150.04 151.00 150.85 Z M 151.01 151.87 L 151.01 152.87 C 151.01 153.67 151.66 154.32 152.46 154.32 C 153.27 154.32 153.92 153.67 153.92 152.87 L 153.92 151.87 C 153.92 151.07 153.27 150.42 152.46 150.42 C 151.66 150.42 151.01 151.07 151.01 151.87 Z M 151.02 152.87 L 151.02 153.87 C 151.02 154.66 151.67 155.31 152.46 155.31 C 153.26 155.31 153.91 154.66 153.91 153.87 L 153.91 152.87 C 153.91 152.07 153.26 151.43 152.46 151.43 C 151.67 151.43 151.02 152.07 151.02 152.87 Z M 151.03 153.87 L 151.03 154.87 C 151.03 155.67 151.67 156.31 152.46 156.31 C 153.26 156.31 153.90 155.67 153.90 154.87 L 153.90 153.87 C 153.90 153.07 153.26 152.43 152.46 152.43 C 151.67 152.43 151.03 153.07 151.03 153.87 Z M 151.04 154.87 L 151.04 155.84 C 151.04 156.63 151.68 157.27 152.46 157.27 C 153.25 157.27 153.89 156.63 153.89 155.84 L 153.89 154.87 C 153.89 154.08 153.25 153.44 152.46 153.44 C 151.68 153.44 151.04 154.08 151.04 154.87 Z"
      fill="black"
      fill-rule="nonzero" /><path d="M 154.08 141.03 L 154.96 141.54 C 155.67 141.96 156.58 141.73 157.00 141.02 C 157.42 140.31 157.18 139.40 156.47 138.98 L 155.60 138.46 C 154.89 138.05 153.98 138.28 153.56 138.99 C 153.14 139.70 153.38 140.61 154.08 141.03 Z M 155.22 141.68 L 156.14 142.01 C 156.92 142.28 157.78 141.87 158.06 141.09 C 158.33 140.30 157.92 139.44 157.14 139.17 L 156.22 138.84 C 155.43 138.57 154.57 138.98 154.29 139.76 C 154.02 140.55 154.43 141.41 155.22 141.68 Z M 156.52 142.09 L 157.51 142.17 C 158.34 142.23 159.07 141.61 159.13 140.78 C 159.20 139.95 158.58 139.22 157.75 139.16 L 156.75 139.08 C 155.92 139.02 155.19 139.64 155.13 140.47 C 155.06 141.30 155.69 142.03 156.52 142.09 Z M 157.62 142.17 L 158.60 142.17 C 159.43 142.18 160.11 141.50 160.11 140.67 C 160.11 139.84 159.44 139.16 158.61 139.16 L 157.63 139.16 C 156.80 139.15 156.12 139.83 156.12 140.66 C 156.12 141.49 156.79 142.17 157.62 142.17 Z M 158.58 142.17 L 159.60 142.19 C 160.43 142.20 161.12 141.54 161.13 140.71 C 161.15 139.88 160.48 139.19 159.65 139.18 L 158.63 139.16 C 157.80 139.15 157.11 139.81 157.10 140.64 C 157.08 141.47 157.75 142.16 158.58 142.17 Z M 159.55 142.19 L 160.54 142.24 C 161.37 142.28 162.07 141.64 162.12 140.81 C 162.16 139.97 161.52 139.27 160.69 139.23 L 159.70 139.18 C 158.87 139.14 158.16 139.78 158.12 140.61 C 158.08 141.44 158.72 142.15 159.55 142.19 Z M 160.44 142.22 L 161.45 142.34 C 162.27 142.44 163.02 141.85 163.12 141.03 C 163.21 140.20 162.62 139.45 161.80 139.36 L 160.79 139.24 C 159.96 139.14 159.22 139.73 159.12 140.55 C 159.02 141.38 159.61 142.13 160.44 142.22 Z M 161.28 142.31 L 162.25 142.54 C 163.06 142.73 163.87 142.23 164.06 141.42 C 164.25 140.61 163.75 139.80 162.94 139.62 L 161.96 139.39 C 161.16 139.20 160.35 139.70 160.16 140.51 C 159.97 141.32 160.47 142.12 161.28 142.31 Z M 162.08 142.49 L 163.02 142.83 C 163.80 143.11 164.66 142.71 164.95 141.93 C 165.23 141.15 164.83 140.29 164.05 140.01 L 163.11 139.67 C 162.33 139.38 161.47 139.79 161.18 140.57 C 160.90 141.35 161.30 142.21 162.08 142.49 Z M 162.88 142.77 L 163.77 143.20 C 164.52 143.56 165.41 143.25 165.78 142.50 C 166.14 141.75 165.82 140.86 165.08 140.49 L 164.19 140.07 C 163.44 139.70 162.54 140.02 162.18 140.77 C 161.82 141.51 162.13 142.41 162.88 142.77 Z M 163.64 143.13 L 164.50 143.65 C 165.21 144.08 166.13 143.86 166.56 143.15 C 166.99 142.44 166.77 141.51 166.06 141.08 L 165.20 140.56 C 164.49 140.13 163.57 140.36 163.14 141.07 C 162.71 141.78 162.93 142.70 163.64 143.13 Z M 164.37 143.57 L 165.19 144.18 C 165.85 144.68 166.80 144.55 167.29 143.88 C 167.79 143.22 167.66 142.27 167.00 141.78 L 166.18 141.16 C 165.52 140.67 164.57 140.80 164.08 141.46 C 163.58 142.13 163.71 143.07 164.37 143.57 Z M 165.08 144.09 L 165.82 144.77 C 166.43 145.33 167.39 145.29 167.95 144.68 C 168.51 144.06 168.47 143.11 167.85 142.55 L 167.11 141.87 C 166.49 141.31 165.54 141.35 164.98 141.96 C 164.42 142.58 164.46 143.53 165.08 144.09 Z M 165.71 144.66 L 166.37 145.41 C 166.92 146.03 167.88 146.09 168.50 145.53 C 169.12 144.98 169.18 144.03 168.63 143.41 L 167.96 142.66 C 167.41 142.04 166.46 141.98 165.84 142.53 C 165.21 143.08 165.16 144.04 165.71 144.66 Z M 166.25 145.25 L 166.82 146.09 C 167.29 146.78 168.23 146.96 168.92 146.49 C 169.60 146.02 169.78 145.09 169.31 144.40 L 168.74 143.56 C 168.28 142.87 167.34 142.69 166.65 143.16 C 165.96 143.63 165.78 144.57 166.25 145.25 Z M 166.72 145.91 L 167.15 146.79 C 167.52 147.53 168.43 147.84 169.17 147.47 C 169.92 147.10 170.22 146.19 169.85 145.45 L 169.42 144.58 C 169.05 143.83 168.14 143.53 167.40 143.90 C 166.66 144.27 166.35 145.17 166.72 145.91 Z M 167.08 146.60 L 167.40 147.54 C 167.67 148.33 168.52 148.75 169.31 148.48 C 170.09 148.21 170.51 147.36 170.25 146.57 L 169.92 145.63 C 169.66 144.85 168.80 144.43 168.02 144.69 C 167.23 144.96 166.81 145.82 167.08 146.60 Z M 167.35 147.37 L 167.56 148.34 C 167.73 149.16 168.52 149.68 169.33 149.51 C 170.15 149.34 170.67 148.54 170.50 147.73 L 170.29 146.75 C 170.12 145.94 169.33 145.42 168.51 145.59 C 167.70 145.76 167.18 146.55 167.35 147.37 Z M 167.53 148.20 L 167.64 149.15 C 167.73 149.97 168.47 150.57 169.30 150.47 C 170.12 150.38 170.71 149.64 170.62 148.82 L 170.52 147.87 C 170.43 147.05 169.69 146.45 168.86 146.54 C 168.04 146.63 167.44 147.38 167.53 148.20 Z M 167.63 149.05 L 167.68 150.09 C 167.72 150.92 168.43 151.56 169.25 151.52 C 170.08 151.48 170.72 150.78 170.68 149.95 L 170.63 148.91 C 170.59 148.08 169.89 147.44 169.06 147.48 C 168.23 147.52 167.59 148.23 167.63 149.05 Z M 167.68 150.04 L 167.69 151.04 C 167.71 151.87 168.39 152.53 169.21 152.52 C 170.04 152.51 170.71 151.83 170.70 151.00 L 170.68 150.00 C 170.67 149.17 169.99 148.51 169.16 148.52 C 168.33 148.53 167.67 149.21 167.68 150.04 Z M 167.70 150.96 L 167.66 151.98 C 167.62 152.80 168.26 153.50 169.09 153.54 C 169.92 153.57 170.62 152.93 170.65 152.10 L 170.69 151.09 C 170.73 150.26 170.08 149.56 169.26 149.53 C 168.43 149.49 167.73 150.14 167.70 150.96 Z M 167.67 151.82 L 167.53 152.85 C 167.41 153.66 167.97 154.42 168.79 154.54 C 169.61 154.66 170.36 154.09 170.48 153.28 L 170.63 152.25 C 170.75 151.44 170.18 150.68 169.37 150.56 C 168.55 150.44 167.79 151.01 167.67 151.82 Z M 167.59 152.60 L 167.26 153.60 C 167.01 154.38 167.44 155.22 168.22 155.47 C 169.00 155.73 169.84 155.30 170.09 154.52 L 170.42 153.52 C 170.67 152.74 170.25 151.90 169.47 151.65 C 168.68 151.39 167.85 151.82 167.59 152.60 Z M 167.43 153.27 L 166.94 154.04 C 166.50 154.73 166.71 155.64 167.40 156.08 C 168.08 156.52 169.00 156.31 169.43 155.62 L 169.92 154.85 C 170.36 154.17 170.16 153.25 169.47 152.81 C 168.78 152.38 167.87 152.58 167.43 153.27 Z M 167.34 153.64 L 166.53 154.22 C 165.87 154.68 165.72 155.60 166.18 156.26 C 166.65 156.91 167.56 157.07 168.22 156.60 L 169.03 156.02 C 169.69 155.56 169.85 154.64 169.38 153.98 C 168.91 153.33 168.00 153.17 167.34 153.64 Z M 166.79 154.09 L 166.38 154.27 C 165.65 154.60 165.32 155.45 165.65 156.18 C 165.97 156.91 166.83 157.24 167.56 156.91 L 167.97 156.73 C 168.70 156.40 169.02 155.55 168.70 154.82 C 168.37 154.09 167.52 153.76 166.79 154.09 Z"
      fill="black"
      fill-rule="nonzero" /><path d="M 154.54 148.63 L 155.53 148.52 C 156.36 148.43 156.96 147.69 156.86 146.86 C 156.77 146.03 156.03 145.43 155.20 145.52 L 154.21 145.63 C 153.38 145.72 152.79 146.46 152.88 147.29 C 152.97 148.12 153.71 148.72 154.54 148.63 Z M 155.44 148.55 L 156.44 148.50 C 157.28 148.45 157.93 147.73 157.89 146.89 C 157.84 146.05 157.12 145.40 156.28 145.44 L 155.28 145.49 C 154.44 145.54 153.79 146.26 153.83 147.10 C 153.88 147.94 154.60 148.59 155.44 148.55 Z M 156.33 148.50 L 157.32 148.52 C 158.17 148.54 158.87 147.87 158.88 147.02 C 158.90 146.18 158.23 145.48 157.39 145.46 L 156.39 145.44 C 155.55 145.42 154.85 146.09 154.83 146.93 C 154.81 147.78 155.48 148.48 156.33 148.50 Z M 157.25 148.51 L 158.22 148.57 C 159.05 148.63 159.78 148.00 159.84 147.16 C 159.89 146.32 159.26 145.60 158.42 145.54 L 157.46 145.48 C 156.62 145.42 155.90 146.05 155.84 146.89 C 155.78 147.72 156.41 148.45 157.25 148.51 Z M 158.18 148.55 L 159.14 148.65 C 159.97 148.73 160.71 148.12 160.79 147.29 C 160.87 146.47 160.26 145.73 159.43 145.65 L 158.47 145.56 C 157.64 145.48 156.90 146.09 156.82 146.91 C 156.74 147.74 157.35 148.48 158.18 148.55 Z M 159.12 148.63 L 160.18 148.75 C 161.00 148.85 161.73 148.26 161.83 147.44 C 161.92 146.62 161.33 145.88 160.52 145.79 L 159.46 145.67 C 158.64 145.58 157.90 146.16 157.81 146.98 C 157.71 147.80 158.30 148.54 159.12 148.63 Z M 160.16 148.74 L 161.18 148.86 C 161.99 148.97 162.73 148.39 162.83 147.58 C 162.93 146.77 162.36 146.04 161.55 145.93 L 160.53 145.81 C 159.72 145.70 158.98 146.28 158.88 147.09 C 158.78 147.89 159.35 148.63 160.16 148.74 Z M 161.16 148.85 L 162.16 148.99 C 162.96 149.10 163.70 148.55 163.81 147.75 C 163.93 146.95 163.37 146.21 162.57 146.09 L 161.57 145.95 C 160.77 145.84 160.03 146.39 159.92 147.19 C 159.80 147.99 160.36 148.73 161.16 148.85 Z M 162.12 148.97 L 163.16 149.15 C 163.95 149.28 164.70 148.75 164.83 147.97 C 164.97 147.18 164.44 146.43 163.65 146.29 L 162.61 146.11 C 161.82 145.98 161.07 146.51 160.94 147.30 C 160.80 148.08 161.33 148.83 162.12 148.97 Z M 163.11 149.12 L 164.04 149.32 C 164.82 149.49 165.58 148.99 165.75 148.22 C 165.91 147.44 165.42 146.68 164.64 146.51 L 163.70 146.32 C 162.93 146.15 162.17 146.65 162.00 147.42 C 161.84 148.20 162.33 148.96 163.11 149.12 Z M 164.02 149.31 L 164.34 149.38 C 165.11 149.56 165.88 149.08 166.06 148.31 C 166.23 147.54 165.75 146.78 164.98 146.60 L 164.66 146.53 C 163.90 146.35 163.13 146.83 162.95 147.60 C 162.78 148.37 163.26 149.13 164.02 149.31 Z"
      fill="black"
      fill-rule="nonzero" /><path d="M 149.37 158.22 L 150.08 158.85 C 150.69 159.39 151.63 159.34 152.18 158.72 C 152.73 158.11 152.68 157.16 152.06 156.62 L 151.36 155.99 C 150.74 155.44 149.80 155.50 149.25 156.11 C 148.70 156.73 148.75 157.67 149.37 158.22 Z M 150.46 159.13 L 151.38 159.53 C 152.16 159.87 153.05 159.52 153.39 158.75 C 153.73 157.98 153.38 157.08 152.61 156.74 L 151.68 156.34 C 150.91 156.00 150.01 156.35 149.67 157.12 C 149.33 157.89 149.69 158.79 150.46 159.13 Z M 151.80 159.66 L 152.75 159.78 C 153.59 159.89 154.36 159.30 154.47 158.45 C 154.57 157.61 153.98 156.84 153.14 156.73 L 152.19 156.61 C 151.35 156.51 150.58 157.10 150.47 157.94 C 150.36 158.78 150.96 159.55 151.80 159.66 Z M 152.93 159.80 L 153.98 159.81 C 154.83 159.82 155.52 159.14 155.53 158.29 C 155.54 157.44 154.86 156.74 154.01 156.73 L 152.96 156.72 C 152.11 156.71 151.41 157.39 151.41 158.24 C 151.40 159.09 152.08 159.79 152.93 159.80 Z M 154.06 159.80 L 155.09 159.76 C 155.94 159.73 156.59 159.01 156.56 158.16 C 156.52 157.32 155.81 156.66 154.96 156.69 L 153.93 156.74 C 153.08 156.77 152.43 157.49 152.46 158.33 C 152.50 159.18 153.21 159.84 154.06 159.80 Z M 155.14 159.76 L 156.13 159.68 C 156.97 159.62 157.60 158.89 157.54 158.04 C 157.48 157.20 156.74 156.57 155.90 156.63 L 154.91 156.70 C 154.07 156.76 153.44 157.50 153.50 158.34 C 153.56 159.18 154.29 159.82 155.14 159.76 Z M 156.17 159.67 L 157.16 159.57 C 158.00 159.48 158.61 158.73 158.53 157.90 C 158.44 157.06 157.69 156.45 156.85 156.53 L 155.86 156.64 C 155.02 156.72 154.41 157.47 154.49 158.31 C 154.58 159.15 155.33 159.76 156.17 159.67 Z M 157.20 159.56 L 158.24 159.43 C 159.07 159.32 159.66 158.57 159.55 157.73 C 159.45 156.90 158.69 156.31 157.86 156.42 L 156.82 156.55 C 155.99 156.65 155.40 157.41 155.50 158.24 C 155.61 159.07 156.37 159.66 157.20 159.56 Z M 158.25 159.41 L 159.24 159.28 C 160.06 159.17 160.64 158.41 160.53 157.58 C 160.41 156.76 159.65 156.18 158.83 156.29 L 157.84 156.43 C 157.02 156.54 156.44 157.30 156.56 158.13 C 156.67 158.95 157.43 159.53 158.25 159.41 Z M 159.24 159.27 L 160.21 159.13 C 161.02 159.02 161.59 158.27 161.48 157.45 C 161.37 156.63 160.62 156.06 159.80 156.17 L 158.83 156.31 C 158.01 156.42 157.44 157.18 157.56 157.99 C 157.67 158.81 158.42 159.38 159.24 159.27 Z M 160.21 159.11 L 161.16 158.98 C 161.97 158.86 162.53 158.12 162.42 157.31 C 162.30 156.50 161.55 155.94 160.75 156.06 L 159.79 156.19 C 158.99 156.31 158.43 157.06 158.54 157.86 C 158.66 158.67 159.41 159.23 160.21 159.11 Z M 161.19 158.96 L 162.11 158.81 C 162.91 158.68 163.45 157.93 163.32 157.13 C 163.19 156.34 162.44 155.80 161.64 155.93 L 160.72 156.08 C 159.93 156.20 159.38 156.95 159.51 157.75 C 159.64 158.55 160.39 159.09 161.19 158.96 Z M 162.14 158.80 L 163.11 158.61 C 163.90 158.47 164.42 157.71 164.27 156.92 C 164.12 156.13 163.36 155.61 162.58 155.76 L 161.61 155.94 C 160.82 156.09 160.30 156.85 160.45 157.64 C 160.60 158.42 161.36 158.94 162.14 158.80 Z M 163.16 158.60 L 164.23 158.36 C 165.01 158.19 165.50 157.41 165.32 156.63 C 165.15 155.85 164.38 155.36 163.60 155.54 L 162.53 155.77 C 161.75 155.95 161.26 156.72 161.43 157.50 C 161.61 158.28 162.38 158.77 163.16 158.60 Z M 164.27 158.34 L 165.21 158.10 C 165.98 157.90 166.44 157.12 166.24 156.34 C 166.04 155.57 165.26 155.11 164.49 155.31 L 163.55 155.55 C 162.78 155.75 162.32 156.54 162.52 157.31 C 162.72 158.08 163.50 158.54 164.27 158.34 Z M 165.24 158.09 L 166.21 157.82 C 166.97 157.60 167.41 156.81 167.20 156.04 C 166.98 155.28 166.19 154.84 165.43 155.05 L 164.46 155.32 C 163.69 155.54 163.25 156.33 163.47 157.10 C 163.68 157.86 164.47 158.30 165.24 158.09 Z M 166.22 157.81 L 167.20 157.52 C 167.96 157.29 168.40 156.50 168.17 155.74 C 167.95 154.98 167.16 154.55 166.40 154.77 L 165.41 155.06 C 164.65 155.28 164.22 156.08 164.44 156.84 C 164.67 157.59 165.46 158.03 166.22 157.81 Z M 167.21 157.51 L 167.31 157.48 C 168.06 157.26 168.50 156.46 168.27 155.71 C 168.05 154.95 167.25 154.52 166.50 154.74 L 166.40 154.78 C 165.64 155.00 165.21 155.79 165.43 156.55 C 165.66 157.30 166.45 157.74 167.21 157.51 Z"
      fill="black"
      fill-rule="nonzero" /><path d="M 157.02 131.59 L 157.23 132.55 C 157.40 133.35 158.18 133.86 158.98 133.69 C 159.78 133.52 160.29 132.73 160.12 131.93 L 159.92 130.98 C 159.75 130.18 158.96 129.67 158.16 129.84 C 157.36 130.01 156.85 130.79 157.02 131.59 Z M 157.18 132.50 L 157.35 133.50 C 157.49 134.32 158.28 134.88 159.11 134.74 C 159.93 134.59 160.49 133.81 160.34 132.98 L 160.17 131.98 C 160.03 131.16 159.24 130.60 158.42 130.75 C 157.59 130.89 157.04 131.67 157.18 132.50 Z M 157.32 133.41 L 157.42 134.37 C 157.52 135.21 158.28 135.82 159.13 135.73 C 159.97 135.63 160.58 134.87 160.49 134.02 L 160.38 133.07 C 160.28 132.22 159.52 131.61 158.68 131.71 C 157.83 131.80 157.22 132.57 157.32 133.41 Z M 157.41 134.31 L 157.49 135.31 C 157.55 136.16 158.29 136.80 159.14 136.74 C 159.99 136.68 160.63 135.94 160.57 135.09 L 160.50 134.08 C 160.43 133.23 159.69 132.59 158.84 132.65 C 157.99 132.72 157.35 133.46 157.41 134.31 Z M 157.48 135.30 L 157.55 136.35 C 157.60 137.20 158.34 137.85 159.19 137.79 C 160.05 137.74 160.69 137.00 160.64 136.15 L 160.57 135.10 C 160.52 134.25 159.78 133.60 158.93 133.65 C 158.08 133.71 157.43 134.44 157.48 135.30 Z M 157.54 136.35 L 157.61 137.38 C 157.67 138.24 158.41 138.89 159.26 138.83 C 160.12 138.78 160.77 138.04 160.71 137.18 L 160.64 136.15 C 160.59 135.29 159.85 134.64 158.99 134.70 C 158.14 134.75 157.49 135.49 157.54 136.35 Z M 157.61 137.38 L 157.67 138.36 C 157.72 139.22 158.46 139.87 159.32 139.81 C 160.18 139.76 160.83 139.02 160.78 138.16 L 160.72 137.18 C 160.66 136.32 159.92 135.67 159.06 135.73 C 158.20 135.78 157.55 136.52 157.61 137.38 Z M 157.66 138.34 L 157.72 139.38 C 157.76 140.24 158.50 140.90 159.36 140.86 C 160.22 140.81 160.88 140.07 160.84 139.21 L 160.78 138.18 C 160.74 137.31 160.00 136.65 159.14 136.70 C 158.28 136.74 157.62 137.48 157.66 138.34 Z M 157.71 139.36 L 157.75 140.31 C 157.78 141.17 158.51 141.84 159.38 141.81 C 160.24 141.78 160.91 141.05 160.88 140.18 L 160.84 139.23 C 160.81 138.37 160.08 137.70 159.22 137.73 C 158.35 137.76 157.68 138.49 157.71 139.36 Z M 157.75 140.30 L 157.78 141.26 C 157.81 142.12 158.53 142.80 159.40 142.77 C 160.27 142.74 160.95 142.02 160.92 141.15 L 160.88 140.19 C 160.85 139.32 160.13 138.65 159.26 138.68 C 158.40 138.71 157.72 139.43 157.75 140.30 Z M 157.78 141.26 L 157.81 142.28 C 157.84 143.14 158.57 143.82 159.43 143.79 C 160.30 143.76 160.98 143.04 160.95 142.17 L 160.92 141.15 C 160.89 140.29 160.16 139.61 159.30 139.64 C 158.43 139.66 157.75 140.39 157.78 141.26 Z M 157.81 142.28 L 157.84 143.25 C 157.87 144.12 158.60 144.80 159.47 144.77 C 160.34 144.74 161.02 144.02 160.99 143.15 L 160.95 142.17 C 160.92 141.30 160.20 140.62 159.33 140.65 C 158.46 140.68 157.78 141.41 157.81 142.28 Z M 157.84 143.24 L 157.87 144.26 C 157.89 145.13 158.62 145.81 159.48 145.79 C 160.35 145.77 161.04 145.04 161.01 144.17 L 160.99 143.16 C 160.96 142.29 160.24 141.61 159.37 141.63 C 158.50 141.65 157.82 142.37 157.84 143.24 Z M 157.87 144.24 L 157.88 145.21 C 157.89 146.08 158.61 146.77 159.48 146.76 C 160.35 146.75 161.04 146.04 161.03 145.17 L 161.02 144.19 C 161.01 143.32 160.29 142.63 159.42 142.64 C 158.55 142.65 157.86 143.37 157.87 144.24 Z M 157.88 145.19 L 157.88 146.19 C 157.88 147.06 158.59 147.77 159.46 147.76 C 160.34 147.76 161.04 147.05 161.04 146.18 L 161.03 145.18 C 161.03 144.31 160.32 143.61 159.45 143.61 C 158.58 143.61 157.87 144.32 157.88 145.19 Z M 157.88 146.19 L 157.88 147.21 C 157.88 148.09 158.59 148.79 159.46 148.79 C 160.33 148.79 161.04 148.09 161.04 147.21 L 161.04 146.19 C 161.04 145.31 160.33 144.61 159.46 144.61 C 158.59 144.61 157.88 145.31 157.88 146.19 Z M 157.88 147.21 L 157.88 148.20 C 157.88 149.08 158.58 149.79 159.46 149.79 C 160.33 149.79 161.04 149.08 161.04 148.20 L 161.04 147.21 C 161.04 146.34 160.33 145.63 159.46 145.63 C 158.58 145.63 157.88 146.34 157.88 147.21 Z M 157.87 148.20 L 157.87 149.22 C 157.87 150.10 158.58 150.81 159.46 150.81 C 160.34 150.81 161.05 150.10 161.05 149.22 L 161.05 148.20 C 161.05 147.33 160.34 146.62 159.46 146.62 C 158.58 146.62 157.87 147.33 157.87 148.20 Z M 157.87 149.22 L 157.87 150.23 C 157.87 151.11 158.58 151.82 159.46 151.82 C 160.34 151.82 161.05 151.11 161.05 150.23 L 161.05 149.22 C 161.05 148.34 160.34 147.63 159.46 147.63 C 158.58 147.63 157.87 148.34 157.87 149.22 Z M 157.87 150.23 L 157.87 151.23 C 157.87 152.10 158.58 152.82 159.46 152.82 C 160.34 152.82 161.05 152.10 161.05 151.23 L 161.05 150.23 C 161.05 149.35 160.34 148.64 159.46 148.64 C 158.58 148.64 157.87 149.35 157.87 150.23 Z M 157.87 151.23 L 157.87 152.23 C 157.87 153.10 158.58 153.82 159.46 153.82 C 160.34 153.82 161.05 153.10 161.05 152.23 L 161.05 151.23 C 161.05 150.35 160.34 149.64 159.46 149.64 C 158.58 149.64 157.87 150.35 157.87 151.23 Z M 157.87 152.23 L 157.87 153.21 C 157.87 154.09 158.58 154.80 159.46 154.80 C 160.34 154.80 161.05 154.09 161.05 153.22 L 161.05 152.23 C 161.05 151.35 160.34 150.64 159.46 150.64 C 158.58 150.64 157.87 151.35 157.87 152.23 Z M 157.87 153.21 L 157.86 154.20 C 157.86 155.08 158.57 155.79 159.44 155.80 C 160.32 155.81 161.03 155.10 161.04 154.22 L 161.05 153.23 C 161.05 152.35 160.35 151.63 159.47 151.63 C 158.59 151.62 157.88 152.33 157.87 153.21 Z M 157.87 154.18 L 157.85 155.19 C 157.83 156.07 158.52 156.79 159.40 156.81 C 160.28 156.83 161.00 156.13 161.02 155.26 L 161.04 154.24 C 161.06 153.37 160.36 152.64 159.48 152.63 C 158.61 152.61 157.88 153.30 157.87 154.18 Z M 157.85 155.16 L 157.81 156.16 C 157.77 157.03 158.45 157.77 159.33 157.81 C 160.20 157.84 160.94 157.16 160.98 156.29 L 161.02 155.29 C 161.05 154.41 160.37 153.67 159.50 153.64 C 158.62 153.60 157.88 154.29 157.85 155.16 Z M 157.81 156.13 L 157.75 157.13 C 157.70 158.01 158.37 158.76 159.25 158.81 C 160.12 158.85 160.87 158.19 160.92 157.31 L 160.98 156.31 C 161.02 155.44 160.36 154.69 159.48 154.64 C 158.61 154.59 157.86 155.26 157.81 156.13 Z M 157.75 157.12 L 157.69 158.12 C 157.63 159.00 158.29 159.75 159.17 159.81 C 160.04 159.86 160.80 159.20 160.86 158.33 L 160.92 157.32 C 160.98 156.45 160.31 155.69 159.44 155.64 C 158.56 155.58 157.81 156.25 157.75 157.12 Z M 157.69 158.12 L 157.62 159.12 C 157.56 159.99 158.22 160.75 159.10 160.81 C 159.97 160.87 160.73 160.20 160.79 159.33 L 160.86 158.33 C 160.91 157.45 160.25 156.70 159.38 156.64 C 158.50 156.58 157.75 157.24 157.69 158.12 Z M 157.62 159.12 L 157.55 160.12 C 157.49 160.99 158.16 161.75 159.03 161.81 C 159.91 161.87 160.66 161.20 160.72 160.33 L 160.79 159.33 C 160.85 158.45 160.19 157.70 159.31 157.64 C 158.44 157.58 157.68 158.24 157.62 159.12 Z M 157.55 160.11 L 157.48 161.11 C 157.43 161.99 158.09 162.74 158.96 162.80 C 159.84 162.86 160.60 162.20 160.66 161.32 L 160.72 160.33 C 160.78 159.45 160.12 158.69 159.24 158.64 C 158.37 158.58 157.61 159.24 157.55 160.11 Z M 157.48 161.11 L 157.42 162.10 C 157.36 162.98 158.02 163.74 158.90 163.80 C 159.77 163.86 160.53 163.19 160.59 162.32 L 160.66 161.32 C 160.72 160.45 160.05 159.69 159.18 159.63 C 158.30 159.57 157.54 160.23 157.48 161.11 Z M 157.41 162.10 L 157.34 163.10 C 157.28 163.97 157.95 164.74 158.82 164.80 C 159.70 164.86 160.46 164.19 160.52 163.32 L 160.59 162.32 C 160.65 161.44 159.99 160.68 159.11 160.62 C 158.24 160.56 157.47 161.22 157.41 162.10 Z M 157.34 163.09 L 157.27 164.09 C 157.21 164.97 157.87 165.73 158.74 165.80 C 159.62 165.86 160.39 165.20 160.45 164.32 L 160.52 163.32 C 160.59 162.44 159.93 161.68 159.05 161.62 C 158.17 161.55 157.41 162.21 157.34 163.09 Z M 157.27 164.08 L 157.19 165.11 C 157.12 165.99 157.77 166.76 158.65 166.83 C 159.53 166.90 160.30 166.24 160.37 165.36 L 160.45 164.33 C 160.52 163.45 159.87 162.69 158.99 162.62 C 158.11 162.55 157.34 163.20 157.27 164.08 Z M 157.19 165.10 L 157.10 166.11 C 157.02 166.99 157.67 167.77 158.56 167.84 C 159.44 167.92 160.21 167.27 160.29 166.38 L 160.37 165.37 C 160.45 164.49 159.80 163.72 158.92 163.64 C 158.04 163.57 157.26 164.22 157.19 165.10 Z M 157.10 166.10 L 157.01 167.05 C 156.92 167.94 157.57 168.72 158.45 168.80 C 159.33 168.88 160.11 168.23 160.20 167.35 L 160.29 166.40 C 160.37 165.52 159.72 164.74 158.84 164.65 C 157.96 164.57 157.18 165.22 157.10 166.10 Z M 157.01 167.04 L 156.90 168.10 C 156.81 168.98 157.45 169.77 158.33 169.86 C 159.21 169.95 160.00 169.31 160.09 168.43 L 160.20 167.37 C 160.29 166.49 159.65 165.70 158.77 165.61 C 157.89 165.52 157.10 166.16 157.01 167.04 Z M 156.90 168.09 L 156.80 169.06 C 156.70 169.94 157.34 170.72 158.22 170.82 C 159.10 170.91 159.89 170.27 159.98 169.39 L 160.09 168.43 C 160.18 167.55 159.54 166.76 158.66 166.67 C 157.78 166.58 156.99 167.21 156.90 168.09 Z M 156.80 169.08 L 156.70 170.07 C 156.62 170.95 157.27 171.73 158.15 171.81 C 159.03 171.90 159.81 171.25 159.89 170.37 L 159.99 169.37 C 160.07 168.49 159.42 167.71 158.54 167.63 C 157.66 167.55 156.88 168.19 156.80 169.08 Z M 156.70 170.09 L 156.63 171.08 C 156.56 171.96 157.21 172.73 158.09 172.80 C 158.98 172.87 159.75 172.21 159.82 171.33 L 159.89 170.34 C 159.96 169.46 159.30 168.69 158.42 168.62 C 157.54 168.55 156.77 169.21 156.70 170.09 Z M 156.63 171.08 L 156.55 172.05 C 156.48 172.93 157.14 173.70 158.02 173.76 C 158.90 173.83 159.67 173.17 159.74 172.29 L 159.81 171.33 C 159.88 170.45 159.22 169.68 158.34 169.61 C 157.46 169.54 156.69 170.20 156.63 171.08 Z M 156.55 172.02 L 156.46 173.02 C 156.38 173.90 157.03 174.68 157.91 174.76 C 158.78 174.84 159.56 174.20 159.64 173.32 L 159.74 172.32 C 159.82 171.44 159.17 170.66 158.29 170.58 C 157.41 170.50 156.64 171.14 156.55 172.02 Z M 156.46 172.99 L 156.35 173.97 C 156.25 174.85 156.88 175.64 157.76 175.74 C 158.64 175.84 159.43 175.21 159.53 174.33 L 159.64 173.35 C 159.74 172.47 159.11 171.68 158.23 171.58 C 157.36 171.48 156.56 172.11 156.46 172.99 Z M 156.35 173.97 L 156.24 174.98 C 156.14 175.86 156.77 176.65 157.65 176.75 C 158.53 176.85 159.32 176.22 159.42 175.34 L 159.53 174.33 C 159.63 173.45 159.00 172.66 158.12 172.56 C 157.24 172.46 156.45 173.10 156.35 173.97 Z M 156.23 175.02 L 156.13 176.19 C 156.05 177.07 156.70 177.85 157.58 177.92 C 158.46 178.00 159.24 177.36 159.32 176.48 L 159.42 175.31 C 159.50 174.43 158.85 173.65 157.97 173.57 C 157.09 173.49 156.31 174.14 156.23 175.02 Z M 159.29 176.48 L 159.34 176.02 C 159.42 175.15 158.79 174.38 157.92 174.30 C 157.05 174.21 156.28 174.85 156.19 175.72 L 156.15 176.18 C 156.06 177.05 156.70 177.82 157.57 177.90 C 158.44 177.99 159.21 177.35 159.29 176.48 Z M 159.31 176.00 L 159.35 175.53 C 159.42 174.68 158.79 173.93 157.94 173.85 C 157.09 173.78 156.34 174.41 156.26 175.26 L 156.22 175.73 C 156.15 176.59 156.78 177.34 157.63 177.41 C 158.48 177.49 159.24 176.86 159.31 176.00 Z"
      fill="black"
      fill-rule="nonzero" /></svg>