<svg xmlns="http://www.w3.org/2000/svg" width="300" height="300" viewBox="0 0 300 300">
<path d="M 129.70 133.35 L 130.51 133.84 C 131.21 134.26 132.12 134.03 132.54 133.32 C 132.96 132.62 132.73 131.71 132.03 131.29 L 131.22 130.80 C 130.51 130.38 129.60 130.61 129.18 131.32 C 128.76 132.02 128.99 132.93 129.70 133.35 Z M 130.78 133.99 L 131.73 134.32 C 132.52 134.59 133.38 134.18 133.65 133.39 C 133.93 132.60 133.51 131.74 132.72 131.47 L 131.76 131.13 C 130.97 130.86 130.11 131.28 129.84 132.07 C 129.57 132.86 129.99 133.72 130.78 133.99 Z M 132.00 134.39 L 132.97 134.54 C 133.80 134.66 134.57 134.09 134.69 133.26 C 134.82 132.43 134.24 131.66 133.42 131.54 L 132.45 131.39 C 131.62 131.27 130.85 131.84 130.73 132.67 C 130.61 133.50 131.18 134.27 132.00 134.39 Z M 133.10 134.54 L 134.15 134.60 C 134.98 134.66 135.69 134.03 135.75 133.20 C 135.80 132.37 135.17 131.66 134.34 131.61 L 133.29 131.54 C 132.46 131.48 131.75 132.11 131.70 132.94 C 131.64 133.77 132.27 134.48 133.10 134.54 Z M 134.21 134.59 L 135.22 134.61 C 136.04 134.64 136.72 133.99 136.74 133.17 C 136.76 132.35 136.12 131.67 135.30 131.65 L 134.29 131.62 C 133.47 131.60 132.79 132.25 132.76 133.07 C 132.74 133.88 133.39 134.57 134.21 134.59 Z M 135.25 134.59 L 136.24 134.60 C 137.05 134.60 137.71 133.95 137.71 133.15 C 137.72 132.34 137.07 131.69 136.26 131.68 L 135.27 131.67 C 134.46 131.67 133.81 132.32 133.80 133.12 C 133.80 133.93 134.44 134.58 135.25 134.59 Z M 136.25 134.58 L 137.25 134.58 C 138.05 134.58 138.69 133.93 138.69 133.14 C 138.69 132.34 138.05 131.70 137.25 131.70 L 136.25 131.70 C 135.46 131.70 134.81 132.34 134.81 133.14 C 134.81 133.93 135.46 134.58 136.25 134.58 Z M 137.25 134.57 L 138.25 134.57 C 139.04 134.57 139.68 133.93 139.68 133.14 C 139.68 132.35 139.04 131.71 138.25 131.71 L 137.25 131.71 C 136.46 131.71 135.82 132.35 135.82 133.14 C 135.82 133.93 136.46 134.57 137.25 134.57 Z M 138.25 134.57 L 138.95 134.57 C 139.74 134.57 140.38 133.93 140.38 133.14 C 140.38 132.35 139.74 131.71 138.95 131.71 L 138.25 131.71 C 137.46 131.71 136.82 132.35 136.82 133.14 C 136.82 133.93 137.46 134.57 138.25 134.57 Z"
      fill="black"
      fill-rule="nonzero" /><path d="M 124.60 143.89 L 125.56 144.14 C 126.35 144.36 127.17 143.89 127.39 143.09 C 127.60 142.30 127.13 141.48 126.33 141.27 L 125.38 141.01 C 124.58 140.79 123.76 141.26 123.55 142.06 C 123.33 142.85 123.81 143.67 124.60 143.89 Z M 125.65 144.21 L 126.64 144.41 C 127.47 144.57 128.28 144.02 128.44 143.19 C 128.60 142.36 128.06 141.55 127.22 141.39 L 126.24 141.20 C 125.41 141.04 124.60 141.58 124.44 142.41 C 124.28 143.25 124.82 144.05 125.65 144.21 Z M 126.83 144.46 L 127.86 144.52 C 128.72 144.58 129.46 143.93 129.52 143.06 C 129.58 142.20 128.92 141.46 128.06 141.40 L 127.03 141.34 C 126.17 141.28 125.43 141.93 125.37 142.80 C 125.31 143.66 125.97 144.40 126.83 144.46 Z M 128.02 144.53 L 129.02 144.49 C 129.89 144.46 130.56 143.73 130.53 142.86 C 130.49 142.00 129.76 141.32 128.90 141.36 L 127.90 141.40 C 127.03 141.43 126.36 142.16 126.39 143.03 C 126.42 143.89 127.15 144.57 128.02 144.53 Z M 129.13 144.48 L 130.13 144.37 C 130.99 144.28 131.61 143.50 131.52 142.64 C 131.42 141.78 130.65 141.16 129.79 141.25 L 128.79 141.36 C 127.93 141.46 127.31 142.23 127.40 143.10 C 127.50 143.96 128.27 144.58 129.13 144.48 Z M 130.21 144.36 L 131.17 144.20 C 132.02 144.07 132.60 143.26 132.46 142.40 C 132.32 141.55 131.52 140.97 130.66 141.11 L 129.71 141.27 C 128.85 141.41 128.27 142.21 128.41 143.07 C 128.55 143.92 129.36 144.50 130.21 144.36 Z M 131.19 144.20 L 132.15 144.03 C 133.00 143.87 133.57 143.06 133.42 142.21 C 133.27 141.36 132.45 140.79 131.60 140.95 L 130.64 141.12 C 129.79 141.27 129.22 142.08 129.37 142.93 C 129.53 143.78 130.34 144.35 131.19 144.20 Z M 132.17 144.02 L 133.17 143.83 C 134.01 143.67 134.57 142.85 134.41 142.01 C 134.25 141.16 133.43 140.60 132.59 140.76 L 131.59 140.95 C 130.74 141.11 130.18 141.93 130.34 142.78 C 130.51 143.62 131.32 144.18 132.17 144.02 Z M 133.19 143.82 L 134.17 143.62 C 135.01 143.44 135.55 142.62 135.38 141.78 C 135.20 140.94 134.38 140.40 133.54 140.57 L 132.56 140.77 C 131.72 140.95 131.18 141.77 131.36 142.61 C 131.53 143.45 132.35 143.99 133.19 143.82 Z M 134.17 143.61 L 135.15 143.41 C 135.99 143.23 136.53 142.41 136.35 141.58 C 136.18 140.74 135.36 140.20 134.52 140.37 L 133.54 140.58 C 132.70 140.75 132.17 141.57 132.34 142.41 C 132.51 143.24 133.33 143.78 134.17 143.61 Z M 135.13 143.41 L 136.12 143.21 C 136.95 143.05 137.50 142.24 137.33 141.40 C 137.17 140.56 136.36 140.02 135.52 140.18 L 134.54 140.37 C 133.70 140.54 133.16 141.35 133.32 142.19 C 133.48 143.02 134.30 143.57 135.13 143.41 Z M 136.12 143.21 L 137.11 143.01 C 137.94 142.84 138.48 142.03 138.31 141.19 C 138.15 140.36 137.33 139.82 136.50 139.99 L 135.51 140.19 C 134.68 140.36 134.14 141.17 134.31 142.00 C 134.48 142.84 135.29 143.38 136.12 143.21 Z M 137.13 143.00 L 138.11 142.79 C 138.94 142.61 139.47 141.80 139.29 140.97 C 139.11 140.14 138.29 139.61 137.46 139.78 L 136.48 139.99 C 135.65 140.17 135.12 140.99 135.30 141.82 C 135.48 142.65 136.30 143.18 137.13 143.00 Z M 138.10 142.79 L 139.02 142.60 C 139.85 142.42 140.38 141.61 140.21 140.78 C 140.03 139.95 139.22 139.42 138.39 139.59 L 137.47 139.79 C 136.64 139.96 136.11 140.77 136.28 141.60 C 136.46 142.43 137.27 142.96 138.10 142.79 Z M 139.00 142.60 L 139.98 142.40 C 140.81 142.24 141.34 141.43 141.18 140.60 C 141.01 139.77 140.21 139.23 139.38 139.40 L 138.40 139.60 C 137.57 139.76 137.04 140.57 137.20 141.40 C 137.37 142.23 138.18 142.76 139.00 142.60 Z M 139.98 142.40 L 140.95 142.20 C 141.78 142.04 142.31 141.24 142.15 140.41 C 141.98 139.58 141.18 139.05 140.35 139.21 L 139.38 139.40 C 138.55 139.57 138.02 140.37 138.18 141.20 C 138.35 142.03 139.15 142.56 139.98 142.40 Z M 140.95 142.20 L 141.93 142.00 C 142.75 141.84 143.28 141.03 143.12 140.21 C 142.95 139.39 142.15 138.86 141.33 139.02 L 140.35 139.22 C 139.53 139.38 139.00 140.18 139.16 141.01 C 139.33 141.83 140.13 142.36 140.95 142.20 Z M 141.93 141.99 L 142.97 141.78 C 143.79 141.62 144.32 140.82 144.15 140.00 C 143.98 139.18 143.18 138.65 142.37 138.82 L 141.33 139.03 C 140.51 139.19 139.98 139.99 140.15 140.81 C 140.31 141.63 141.11 142.16 141.93 141.99 Z M 142.98 141.78 L 144.23 141.52 C 145.05 141.35 145.57 140.55 145.40 139.73 C 145.23 138.91 144.43 138.39 143.61 138.56 L 142.36 138.82 C 141.54 138.99 141.01 139.79 141.18 140.61 C 141.36 141.43 142.16 141.95 142.98 141.78 Z M 144.28 141.52 L 145.15 141.30 C 145.97 141.11 146.47 140.28 146.27 139.47 C 146.07 138.65 145.25 138.15 144.43 138.35 L 143.56 138.56 C 142.74 138.76 142.24 139.58 142.44 140.40 C 142.64 141.21 143.46 141.71 144.28 141.52 Z M 145.23 138.36 L 144.97 138.28 C 144.16 138.04 143.31 138.51 143.07 139.32 C 142.83 140.13 143.29 140.98 144.10 141.22 L 144.36 141.29 C 145.17 141.53 146.02 141.07 146.26 140.26 C 146.50 139.45 146.04 138.60 145.23 138.36 Z M 144.16 138.25 L 143.03 138.54 C 142.21 138.74 141.70 139.58 141.91 140.41 C 142.12 141.23 142.95 141.74 143.78 141.53 L 144.91 141.25 C 145.74 141.04 146.24 140.20 146.03 139.38 C 145.83 138.55 144.99 138.05 144.16 138.25 Z M 142.65 138.68 L 141.78 139.17 C 141.03 139.59 140.76 140.53 141.18 141.28 C 141.60 142.03 142.55 142.29 143.30 141.87 L 144.17 141.39 C 144.91 140.97 145.18 140.02 144.76 139.27 C 144.34 138.52 143.39 138.26 142.65 138.68 Z M 141.56 139.31 L 140.82 139.90 C 140.16 140.44 140.05 141.43 140.60 142.09 C 141.14 142.76 142.12 142.87 142.79 142.32 L 143.52 141.73 C 144.19 141.19 144.29 140.21 143.75 139.54 C 143.21 138.87 142.23 138.77 141.56 139.31 Z M 140.69 140.02 L 139.96 140.76 C 139.35 141.38 139.37 142.37 139.99 142.98 C 140.61 143.58 141.60 143.57 142.20 142.95 L 142.93 142.21 C 143.53 141.59 143.52 140.60 142.90 139.99 C 142.28 139.39 141.29 139.40 140.69 140.02 Z M 139.87 140.85 L 139.21 141.64 C 138.66 142.30 138.74 143.29 139.41 143.85 C 140.08 144.41 141.07 144.32 141.63 143.66 L 142.29 142.87 C 142.84 142.20 142.76 141.21 142.09 140.65 C 141.43 140.09 140.43 140.18 139.87 140.85 Z M 139.18 141.67 L 138.55 142.48 C 138.01 143.17 138.13 144.16 138.82 144.69 C 139.51 145.23 140.50 145.11 141.03 144.42 L 141.66 143.62 C 142.20 142.93 142.08 141.94 141.39 141.40 C 140.71 140.87 139.71 140.99 139.18 141.67 Z M 138.54 142.49 L 137.91 143.31 C 137.38 144.00 137.51 144.99 138.20 145.52 C 138.89 146.05 139.88 145.92 140.41 145.23 L 141.04 144.41 C 141.57 143.72 141.44 142.73 140.75 142.20 C 140.06 141.67 139.07 141.80 138.54 142.49 Z M 137.91 143.30 L 137.32 144.07 C 136.78 144.76 136.91 145.75 137.60 146.29 C 138.29 146.82 139.28 146.70 139.81 146.01 L 140.41 145.24 C 140.94 144.55 140.82 143.55 140.13 143.02 C 139.44 142.49 138.45 142.61 137.91 143.30 Z M 137.31 144.08 L 136.77 144.78 C 136.24 145.47 136.37 146.47 137.06 147.00 C 137.75 147.53 138.74 147.40 139.28 146.71 L 139.82 146.00 C 140.35 145.31 140.22 144.32 139.53 143.79 C 138.83 143.26 137.84 143.39 137.31 144.08 Z M 136.78 144.77 L 136.15 145.57 C 135.61 146.26 135.73 147.25 136.41 147.79 C 137.10 148.33 138.09 148.21 138.63 147.53 L 139.26 146.72 C 139.80 146.04 139.69 145.04 139.00 144.50 C 138.31 143.96 137.32 144.08 136.78 144.77 Z M 136.17 145.54 L 135.56 146.28 C 135.00 146.96 135.10 147.95 135.77 148.51 C 136.44 149.06 137.44 148.97 137.99 148.30 L 138.61 147.56 C 139.16 146.88 139.07 145.89 138.40 145.33 C 137.73 144.78 136.73 144.87 136.17 145.54 Z M 135.58 146.26 L 134.93 147.01 C 134.36 147.67 134.43 148.66 135.09 149.23 C 135.75 149.81 136.75 149.73 137.32 149.08 L 137.97 148.33 C 138.54 147.67 138.47 146.67 137.81 146.10 C 137.15 145.53 136.16 145.60 135.58 146.26 Z M 134.96 146.97 L 134.23 147.77 C 133.64 148.41 133.69 149.41 134.33 150.00 C 134.97 150.59 135.97 150.55 136.56 149.90 L 137.29 149.11 C 137.88 148.47 137.84 147.47 137.19 146.88 C 136.55 146.29 135.55 146.33 134.96 146.97 Z M 134.27 147.74 L 133.58 148.44 C 132.97 149.06 132.99 150.06 133.61 150.67 C 134.23 151.28 135.23 151.26 135.84 150.64 L 136.53 149.94 C 137.13 149.31 137.12 148.32 136.50 147.71 C 135.87 147.10 134.88 147.11 134.27 147.74 Z M 133.62 148.41 L 132.91 149.09 C 132.29 149.69 132.27 150.69 132.87 151.32 C 133.48 151.94 134.47 151.96 135.10 151.35 L 135.81 150.67 C 136.43 150.07 136.45 149.07 135.84 148.44 C 135.24 147.82 134.24 147.80 133.62 148.41 Z M 132.94 149.06 L 132.19 149.75 C 131.55 150.34 131.51 151.33 132.09 151.97 C 132.68 152.61 133.68 152.66 134.32 152.07 L 135.07 151.38 C 135.71 150.79 135.75 149.80 135.17 149.16 C 134.58 148.52 133.58 148.48 132.94 149.06 Z M 132.22 149.73 L 131.43 150.42 C 130.78 150.99 130.72 151.98 131.29 152.63 C 131.86 153.28 132.85 153.35 133.50 152.78 L 134.29 152.09 C 134.94 151.52 135.00 150.53 134.43 149.88 C 133.86 149.23 132.87 149.16 132.22 149.73 Z M 131.46 150.40 L 130.67 151.07 C 130.01 151.63 129.92 152.61 130.48 153.27 C 131.04 153.93 132.02 154.02 132.68 153.46 L 133.47 152.79 C 134.13 152.24 134.22 151.25 133.66 150.59 C 133.11 149.93 132.12 149.85 131.46 150.40 Z M 130.69 151.06 L 129.90 151.71 C 129.24 152.25 129.14 153.23 129.68 153.89 C 130.22 154.55 131.20 154.65 131.86 154.11 L 132.65 153.47 C 133.32 152.93 133.42 151.95 132.88 151.29 C 132.34 150.62 131.36 150.52 130.69 151.06 Z M 129.93 151.70 L 129.18 152.29 C 128.51 152.82 128.40 153.79 128.92 154.46 C 129.45 155.13 130.42 155.24 131.09 154.71 L 131.84 154.12 C 132.51 153.59 132.62 152.62 132.09 151.95 C 131.57 151.29 130.60 151.17 129.93 151.70 Z M 129.21 152.28 L 128.34 152.94 C 127.67 153.45 127.54 154.41 128.05 155.08 C 128.55 155.75 129.51 155.89 130.19 155.38 L 131.05 154.72 C 131.73 154.21 131.86 153.25 131.35 152.58 C 130.84 151.91 129.88 151.77 129.21 152.28 Z M 128.39 152.92 L 127.59 153.49 C 126.90 153.97 126.74 154.92 127.22 155.60 C 127.71 156.28 128.65 156.44 129.33 155.96 L 130.14 155.39 C 130.82 154.91 130.98 153.97 130.50 153.28 C 130.02 152.60 129.08 152.44 128.39 152.92 Z M 127.65 153.47 L 126.88 153.96 C 126.18 154.41 125.98 155.34 126.43 156.03 C 126.88 156.73 127.80 156.93 128.50 156.48 L 129.27 155.98 C 129.96 155.54 130.17 154.61 129.72 153.92 C 129.27 153.22 128.35 153.02 127.65 153.47 Z M 126.95 153.94 L 126.06 154.45 C 125.35 154.86 125.10 155.77 125.51 156.47 C 125.92 157.18 126.82 157.43 127.53 157.02 L 128.42 156.50 C 129.13 156.10 129.38 155.19 128.97 154.49 C 128.56 153.78 127.66 153.53 126.95 153.94 Z M 126.13 154.44 L 125.27 154.87 C 124.55 155.24 124.27 156.12 124.64 156.84 C 125.00 157.56 125.88 157.84 126.60 157.47 L 127.46 157.04 C 128.17 156.67 128.46 155.79 128.09 155.07 C 127.73 154.35 126.85 154.07 126.13 154.44 Z M 125.34 154.86 L 124.41 155.28 C 123.69 155.61 123.37 156.46 123.70 157.19 C 124.03 157.92 124.88 158.24 125.61 157.91 L 126.53 157.49 C 127.26 157.16 127.58 156.30 127.25 155.58 C 126.92 154.85 126.06 154.53 125.34 154.86 Z M 124.45 155.28 L 123.89 155.52 C 123.16 155.83 122.82 156.67 123.13 157.40 C 123.44 158.12 124.29 158.46 125.01 158.15 L 125.58 157.91 C 126.30 157.60 126.64 156.76 126.33 156.03 C 126.02 155.30 125.18 154.97 124.45 155.28 Z"
      fill="black"
      fill-rule="nonzero" /><path d="M 138.42 149.90 L 138.42 150.97 C 138.42 151.81 139.10 152.49 139.94 152.49 C 140.78 152.49 141.46 151.81 141.46 150.97 L 141.46 149.90 C 141.46 149.06 140.78 148.38 139.94 148.38 C 139.10 148.38 138.42 149.06 138.42 149.90 Z M 138.38 150.97 L 138.38 151.99 C 138.38 152.86 139.08 153.56 139.94 153.56 C 140.80 153.56 141.50 152.86 141.50 151.99 L 141.50 150.97 C 141.50 150.11 140.80 149.41 139.94 149.41 C 139.08 149.41 138.38 150.11 138.38 150.97 Z M 138.33 151.99 L 138.33 152.90 C 138.33 153.79 139.05 154.51 139.94 154.51 C 140.83 154.51 141.55 153.79 141.55 152.90 L 141.55 151.99 C 141.55 151.10 140.83 150.38 139.94 150.38 C 139.05 150.38 138.33 151.10 138.33 151.99 Z M 138.31 152.90 L 138.31 153.97 C 138.31 154.87 139.04 155.60 139.94 155.60 C 140.84 155.60 141.57 154.87 141.57 153.97 L 141.57 152.90 C 141.57 152.00 140.84 151.27 139.94 151.27 C 139.04 151.27 138.31 152.00 138.31 152.90 Z M 138.30 153.97 L 138.30 154.91 C 138.30 155.81 139.04 156.54 139.94 156.54 C 140.85 156.54 141.58 155.81 141.58 154.91 L 141.58 153.97 C 141.58 153.06 140.85 152.33 139.94 152.33 C 139.04 152.33 138.30 153.06 138.30 153.97 Z M 138.30 154.90 L 138.30 155.84 C 138.29 156.75 139.02 157.48 139.93 157.49 C 140.84 157.49 141.57 156.76 141.58 155.85 L 141.58 154.91 C 141.58 154.01 140.85 153.27 139.95 153.27 C 139.04 153.26 138.30 153.99 138.30 154.90 Z M 138.30 155.80 L 138.27 156.82 C 138.24 157.73 138.96 158.48 139.86 158.51 C 140.77 158.53 141.52 157.82 141.55 156.92 L 141.57 155.89 C 141.60 154.99 140.89 154.23 139.98 154.21 C 139.08 154.18 138.32 154.89 138.30 155.80 Z M 138.28 156.75 L 138.20 157.80 C 138.14 158.70 138.82 159.48 139.72 159.55 C 140.62 159.61 141.40 158.93 141.46 158.03 L 141.54 156.99 C 141.60 156.09 140.93 155.30 140.02 155.24 C 139.12 155.17 138.34 155.85 138.28 156.75 Z M 138.21 157.74 L 138.10 158.76 C 138.01 159.66 138.66 160.46 139.56 160.56 C 140.45 160.65 141.26 160.00 141.35 159.10 L 141.46 158.08 C 141.55 157.19 140.90 156.38 140.00 156.29 C 139.11 156.20 138.30 156.85 138.21 157.74 Z M 138.11 158.74 L 138.00 159.68 C 137.89 160.58 138.53 161.39 139.42 161.49 C 140.32 161.60 141.12 160.96 141.23 160.07 L 141.34 159.13 C 141.45 158.23 140.81 157.42 139.92 157.32 C 139.03 157.21 138.22 157.85 138.11 158.74 Z M 138.01 159.67 L 137.89 160.58 C 137.78 161.47 138.41 162.28 139.30 162.39 C 140.18 162.50 140.99 161.87 141.11 160.99 L 141.22 160.08 C 141.33 159.19 140.71 158.38 139.82 158.27 C 138.93 158.16 138.12 158.79 138.01 159.67 Z M 137.91 160.55 L 137.75 161.61 C 137.62 162.49 138.23 163.30 139.11 163.43 C 139.99 163.56 140.80 162.96 140.93 162.08 L 141.09 161.02 C 141.22 160.14 140.61 159.32 139.73 159.19 C 138.86 159.06 138.04 159.67 137.91 160.55 Z M 137.77 161.59 L 137.62 162.49 C 137.48 163.36 138.07 164.18 138.94 164.32 C 139.81 164.47 140.63 163.88 140.77 163.00 L 140.92 162.10 C 141.06 161.23 140.47 160.41 139.60 160.27 C 138.73 160.12 137.91 160.71 137.77 161.59 Z M 137.63 162.47 L 137.46 163.46 C 137.31 164.33 137.89 165.15 138.75 165.30 C 139.62 165.45 140.45 164.87 140.60 164.00 L 140.77 163.02 C 140.92 162.15 140.34 161.33 139.47 161.18 C 138.60 161.03 137.78 161.61 137.63 162.47 Z M 137.46 163.45 L 137.27 164.49 C 137.12 165.36 137.69 166.19 138.55 166.34 C 139.42 166.50 140.24 165.92 140.40 165.06 L 140.59 164.02 C 140.75 163.15 140.17 162.33 139.31 162.17 C 138.45 162.01 137.62 162.59 137.46 163.45 Z M 137.28 164.48 L 137.08 165.55 C 136.91 166.41 137.48 167.24 138.34 167.40 C 139.20 167.56 140.03 167.00 140.19 166.14 L 140.39 165.07 C 140.56 164.22 139.99 163.39 139.13 163.22 C 138.27 163.06 137.44 163.62 137.28 164.48 Z M 137.09 165.54 L 136.87 166.62 C 136.70 167.47 137.25 168.30 138.10 168.47 C 138.95 168.65 139.78 168.10 139.95 167.25 L 140.17 166.16 C 140.35 165.31 139.79 164.48 138.94 164.31 C 138.09 164.13 137.26 164.68 137.09 165.54 Z M 136.89 166.61 L 136.69 167.59 C 136.51 168.43 137.04 169.25 137.88 169.43 C 138.72 169.61 139.55 169.07 139.73 168.23 L 139.93 167.26 C 140.11 166.42 139.58 165.59 138.74 165.41 C 137.90 165.24 137.07 165.77 136.89 166.61 Z M 136.71 167.58 L 136.52 168.41 C 136.34 169.24 136.86 170.06 137.69 170.24 C 138.52 170.43 139.34 169.91 139.52 169.08 L 139.71 168.24 C 139.89 167.42 139.37 166.59 138.54 166.41 C 137.71 166.23 136.89 166.75 136.71 167.58 Z M 136.55 168.39 L 136.29 169.48 C 136.10 170.29 136.60 171.10 137.42 171.30 C 138.23 171.49 139.04 170.99 139.23 170.17 L 139.49 169.09 C 139.68 168.28 139.18 167.46 138.37 167.27 C 137.56 167.08 136.74 167.58 136.55 168.39 Z M 136.33 169.46 L 136.14 170.21 C 135.94 171.00 136.42 171.80 137.21 172.00 C 138.00 172.20 138.81 171.73 139.01 170.93 L 139.20 170.19 C 139.40 169.40 138.92 168.59 138.13 168.39 C 137.34 168.19 136.53 168.67 136.33 169.46 Z"
      fill="black"
      fill-rule="nonzero" /><path d="M 141.90 152.47 L 142.41 151.64 C 142.85 150.92 142.62 149.99 141.90 149.55 C 141.18 149.11 140.25 149.34 139.81 150.06 L 139.30 150.89 C 138.87 151.61 139.10 152.55 139.81 152.98 C 140.53 153.42 141.47 153.19 141.90 152.47 Z M 141.87 152.24 L 142.71 151.78 C 143.47 151.36 143.75 150.39 143.33 149.63 C 142.91 148.86 141.95 148.58 141.18 149.00 L 140.35 149.46 C 139.58 149.88 139.30 150.85 139.72 151.61 C 140.14 152.38 141.11 152.66 141.87 152.24 Z M 142.12 151.99 L 143.13 151.88 C 144.02 151.78 144.65 150.99 144.56 150.10 C 144.46 149.22 143.67 148.59 142.78 148.68 L 141.77 148.79 C 140.89 148.89 140.25 149.68 140.35 150.57 C 140.44 151.45 141.24 152.09 142.12 151.99 Z M 142.91 151.88 L 143.97 151.91 C 144.86 151.94 145.60 151.24 145.62 150.36 C 145.65 149.47 144.95 148.73 144.07 148.71 L 143.01 148.68 C 142.12 148.65 141.38 149.35 141.36 150.23 C 141.33 151.12 142.03 151.86 142.91 151.88 Z M 143.83 151.88 L 144.80 152.00 C 145.67 152.11 146.46 151.49 146.57 150.62 C 146.67 149.75 146.05 148.96 145.18 148.85 L 144.21 148.74 C 143.34 148.63 142.55 149.25 142.45 150.12 C 142.34 150.99 142.96 151.78 143.83 151.88 Z M 144.65 151.95 L 145.60 152.16 C 146.44 152.35 147.28 151.82 147.46 150.98 C 147.65 150.14 147.12 149.30 146.28 149.12 L 145.33 148.91 C 144.49 148.72 143.66 149.25 143.47 150.09 C 143.28 150.93 143.81 151.76 144.65 151.95 Z M 145.51 152.11 L 146.48 152.39 C 147.29 152.62 148.14 152.16 148.37 151.35 C 148.61 150.54 148.14 149.69 147.33 149.45 L 146.37 149.17 C 145.56 148.94 144.71 149.40 144.47 150.21 C 144.24 151.02 144.70 151.87 145.51 152.11 Z M 146.43 152.34 L 147.38 152.66 C 148.16 152.92 149.01 152.50 149.27 151.71 C 149.53 150.93 149.11 150.08 148.33 149.82 L 147.38 149.50 C 146.60 149.24 145.75 149.66 145.49 150.44 C 145.22 151.23 145.65 152.08 146.43 152.34 Z M 147.31 152.60 L 148.24 152.97 C 148.99 153.27 149.85 152.90 150.14 152.15 C 150.44 151.40 150.08 150.54 149.32 150.25 L 148.39 149.88 C 147.64 149.58 146.79 149.95 146.49 150.70 C 146.19 151.45 146.56 152.30 147.31 152.60 Z M 148.18 152.92 L 149.09 153.34 C 149.82 153.67 150.67 153.35 151.00 152.62 C 151.34 151.90 151.02 151.04 150.29 150.71 L 149.38 150.29 C 148.66 149.96 147.80 150.28 147.47 151.01 C 147.14 151.73 147.46 152.59 148.18 152.92 Z M 149.08 153.32 L 149.35 153.45 C 150.06 153.79 150.92 153.48 151.26 152.77 C 151.60 152.05 151.29 151.20 150.58 150.86 L 150.31 150.73 C 149.59 150.39 148.74 150.69 148.40 151.41 C 148.06 152.12 148.36 152.98 149.08 153.32 Z"
      fill="black"
      fill-rule="nonzero" /><path d="M 149.88 124.15 L 150.03 125.09 C 150.16 125.94 150.96 126.52 151.81 126.38 C 152.66 126.25 153.24 125.45 153.10 124.60 L 152.95 123.66 C 152.82 122.81 152.02 122.23 151.17 122.36 C 150.32 122.50 149.74 123.30 149.88 124.15 Z M 150.01 125.08 L 150.16 126.07 C 150.29 126.92 151.09 127.51 151.95 127.38 C 152.80 127.25 153.39 126.45 153.26 125.60 L 153.11 124.61 C 152.98 123.75 152.19 123.17 151.33 123.29 C 150.47 123.42 149.88 124.22 150.01 125.08 Z M 150.15 126.05 L 150.29 127.04 C 150.41 127.90 151.20 128.51 152.06 128.39 C 152.93 128.27 153.53 127.47 153.41 126.61 L 153.27 125.62 C 153.16 124.75 152.36 124.15 151.50 124.27 C 150.63 124.39 150.03 125.18 150.15 126.05 Z M 150.28 127.02 L 150.39 127.93 C 150.50 128.80 151.29 129.41 152.15 129.30 C 153.02 129.20 153.63 128.41 153.53 127.55 L 153.42 126.63 C 153.31 125.77 152.52 125.15 151.66 125.26 C 150.79 125.37 150.18 126.15 150.28 127.02 Z M 150.40 127.91 L 150.50 128.90 C 150.60 129.77 151.37 130.39 152.24 130.30 C 153.10 130.21 153.73 129.43 153.63 128.57 L 153.53 127.57 C 153.43 126.70 152.66 126.08 151.79 126.17 C 150.93 126.26 150.30 127.04 150.40 127.91 Z M 150.50 128.88 L 150.60 129.97 C 150.68 130.84 151.45 131.47 152.31 131.40 C 153.18 131.32 153.81 130.55 153.73 129.69 L 153.63 128.59 C 153.55 127.73 152.79 127.09 151.93 127.17 C 151.06 127.25 150.42 128.01 150.50 128.88 Z M 150.61 129.95 L 150.69 130.97 C 150.75 131.83 151.50 132.47 152.36 132.41 C 153.23 132.34 153.87 131.59 153.81 130.73 L 153.73 129.71 C 153.66 128.85 152.91 128.20 152.05 128.27 C 151.19 128.34 150.54 129.09 150.61 129.95 Z M 150.70 130.95 L 150.76 131.97 C 150.82 132.83 151.56 133.48 152.41 133.42 C 153.27 133.37 153.92 132.63 153.86 131.77 L 153.80 130.75 C 153.74 129.89 153.00 129.24 152.15 129.30 C 151.29 129.35 150.64 130.09 150.70 130.95 Z M 150.77 131.96 L 150.83 132.98 C 150.88 133.83 151.60 134.48 152.45 134.43 C 153.30 134.39 153.95 133.66 153.91 132.81 L 153.85 131.79 C 153.80 130.94 153.08 130.29 152.23 130.34 C 151.38 130.38 150.73 131.11 150.77 131.96 Z M 150.84 132.96 L 150.88 133.94 C 150.92 134.78 151.64 135.43 152.48 135.40 C 153.32 135.36 153.98 134.64 153.94 133.80 L 153.89 132.83 C 153.86 131.99 153.14 131.33 152.30 131.37 C 151.46 131.41 150.80 132.12 150.84 132.96 Z M 150.90 133.92 L 150.93 134.99 C 150.96 135.82 151.66 136.47 152.49 136.45 C 153.33 136.42 153.98 135.73 153.95 134.89 L 153.92 133.82 C 153.90 132.99 153.20 132.33 152.36 132.36 C 151.53 132.38 150.87 133.08 150.90 133.92 Z M 150.96 134.96 L 150.97 135.98 C 150.99 136.80 151.66 137.46 152.48 137.44 C 153.31 137.43 153.96 136.75 153.95 135.93 L 153.93 134.91 C 153.92 134.09 153.24 133.44 152.42 133.45 C 151.60 133.46 150.94 134.14 150.96 134.96 Z M 151.00 135.96 L 151.00 136.89 C 151.01 137.70 151.66 138.35 152.47 138.35 C 153.28 138.35 153.93 137.69 153.93 136.88 L 153.92 135.95 C 153.92 135.14 153.26 134.49 152.45 134.49 C 151.65 134.50 151.00 135.15 151.00 135.96 Z M 151.02 136.89 L 151.02 137.30 C 151.02 138.09 151.67 138.74 152.47 138.74 C 153.26 138.74 153.91 138.09 153.91 137.30 L 153.91 136.89 C 153.91 136.09 153.26 135.44 152.46 135.44 C 151.67 135.44 151.02 136.09 151.02 136.89 Z"
      fill="black"
      fill-rule="nonzero" /><path d="M 153.37 124.90 L 154.35 124.91 C 155.20 124.93 155.90 124.25 155.91 123.40 C 155.93 122.56 155.25 121.86 154.40 121.84 L 153.42 121.83 C 152.57 121.81 151.87 122.49 151.86 123.34 C 151.84 124.18 152.52 124.88 153.37 124.90 Z M 154.20 124.91 L 155.21 125.02 C 156.05 125.12 156.81 124.51 156.91 123.66 C 157.01 122.82 156.40 122.06 155.55 121.96 L 154.55 121.85 C 153.71 121.75 152.94 122.36 152.85 123.20 C 152.75 124.05 153.36 124.81 154.20 124.91 Z M 154.96 124.98 L 155.93 125.25 C 156.76 125.48 157.61 125.00 157.84 124.18 C 158.07 123.36 157.59 122.50 156.76 122.27 L 155.80 122.00 C 154.97 121.77 154.12 122.25 153.89 123.08 C 153.66 123.90 154.14 124.75 154.96 124.98 Z M 155.71 125.17 L 156.62 125.59 C 157.40 125.94 158.32 125.60 158.67 124.82 C 159.03 124.04 158.68 123.12 157.90 122.77 L 156.99 122.35 C 156.21 122.00 155.29 122.34 154.94 123.12 C 154.59 123.90 154.93 124.82 155.71 125.17 Z M 156.38 125.46 L 157.22 126.03 C 157.93 126.52 158.89 126.34 159.38 125.63 C 159.87 124.92 159.69 123.96 158.98 123.47 L 158.14 122.90 C 157.43 122.41 156.47 122.59 155.98 123.30 C 155.50 124.00 155.68 124.97 156.38 125.46 Z M 156.94 125.80 L 157.60 126.52 C 158.18 127.16 159.16 127.21 159.80 126.63 C 160.44 126.05 160.49 125.07 159.91 124.43 L 159.25 123.71 C 158.68 123.07 157.69 123.02 157.05 123.60 C 156.42 124.17 156.37 125.16 156.94 125.80 Z M 157.37 126.19 L 157.80 127.03 C 158.19 127.80 159.14 128.10 159.90 127.70 C 160.67 127.31 160.97 126.36 160.57 125.60 L 160.14 124.76 C 159.75 123.99 158.81 123.69 158.04 124.09 C 157.27 124.48 156.97 125.43 157.37 126.19 Z M 157.68 126.72 L 157.94 127.70 C 158.16 128.54 159.02 129.03 159.85 128.81 C 160.69 128.59 161.18 127.73 160.96 126.89 L 160.70 125.91 C 160.48 125.07 159.62 124.58 158.78 124.80 C 157.95 125.02 157.45 125.88 157.68 126.72 Z M 157.89 127.48 L 158.02 128.50 C 158.12 129.36 158.90 129.97 159.75 129.87 C 160.61 129.77 161.23 128.99 161.12 128.13 L 161.00 127.11 C 160.90 126.25 160.12 125.64 159.26 125.74 C 158.41 125.84 157.79 126.62 157.89 127.48 Z M 158.00 128.34 L 158.02 129.36 C 158.04 130.23 158.75 130.92 159.61 130.90 C 160.48 130.89 161.17 130.18 161.15 129.31 L 161.14 128.29 C 161.12 127.42 160.41 126.74 159.54 126.75 C 158.68 126.77 157.99 127.48 158.00 128.34 Z M 158.03 129.19 L 157.93 130.19 C 157.85 131.05 158.48 131.82 159.34 131.90 C 160.20 131.98 160.97 131.35 161.05 130.49 L 161.15 129.49 C 161.23 128.63 160.60 127.86 159.74 127.78 C 158.87 127.70 158.11 128.33 158.03 129.19 Z M 157.98 129.94 L 157.73 130.91 C 157.51 131.75 158.01 132.60 158.85 132.82 C 159.68 133.04 160.54 132.54 160.76 131.70 L 161.01 130.73 C 161.23 129.90 160.72 129.04 159.89 128.82 C 159.05 128.61 158.19 129.11 157.98 129.94 Z M 157.81 130.67 L 157.42 131.55 C 157.07 132.34 157.43 133.27 158.22 133.62 C 159.01 133.97 159.93 133.61 160.28 132.82 L 160.67 131.94 C 161.02 131.15 160.66 130.22 159.87 129.88 C 159.08 129.53 158.16 129.88 157.81 130.67 Z M 157.50 131.40 L 157.00 132.26 C 156.57 133.01 156.83 133.96 157.57 134.39 C 158.32 134.83 159.27 134.57 159.70 133.83 L 160.20 132.97 C 160.63 132.22 160.38 131.27 159.63 130.84 C 158.89 130.41 157.93 130.66 157.50 131.40 Z M 157.07 132.18 L 156.50 133.01 C 156.02 133.72 156.21 134.69 156.92 135.17 C 157.63 135.65 158.59 135.46 159.07 134.75 L 159.64 133.91 C 160.12 133.20 159.93 132.24 159.22 131.76 C 158.51 131.28 157.55 131.46 157.07 132.18 Z M 156.55 132.95 L 155.96 133.74 C 155.45 134.42 155.59 135.39 156.27 135.90 C 156.95 136.41 157.92 136.28 158.43 135.59 L 159.02 134.81 C 159.53 134.13 159.40 133.16 158.72 132.65 C 158.03 132.14 157.07 132.27 156.55 132.95 Z M 156.03 133.67 L 155.36 134.45 C 154.81 135.09 154.89 136.06 155.53 136.61 C 156.18 137.16 157.15 137.09 157.70 136.44 L 158.36 135.66 C 158.92 135.02 158.84 134.05 158.20 133.50 C 157.55 132.95 156.58 133.02 156.03 133.67 Z M 155.44 134.38 L 154.73 135.11 C 154.15 135.71 154.16 136.67 154.76 137.26 C 155.36 137.85 156.32 137.84 156.91 137.23 L 157.62 136.51 C 158.21 135.91 158.20 134.95 157.59 134.36 C 156.99 133.77 156.03 133.78 155.44 134.38 Z M 154.81 135.06 L 154.07 135.74 C 153.46 136.30 153.41 137.25 153.97 137.86 C 154.53 138.47 155.48 138.52 156.09 137.96 L 156.83 137.28 C 157.45 136.72 157.49 135.77 156.93 135.16 C 156.37 134.55 155.42 134.50 154.81 135.06 Z M 154.15 135.69 L 153.36 136.33 C 152.72 136.84 152.62 137.78 153.13 138.41 C 153.64 139.05 154.57 139.15 155.21 138.64 L 156.01 138.00 C 156.65 137.49 156.75 136.56 156.24 135.92 C 155.72 135.28 154.79 135.18 154.15 135.69 Z M 153.44 136.30 L 152.64 136.87 C 151.99 137.33 151.84 138.24 152.30 138.90 C 152.77 139.55 153.68 139.71 154.34 139.24 L 155.13 138.67 C 155.78 138.21 155.94 137.30 155.47 136.64 C 155.00 135.99 154.09 135.83 153.44 136.30 Z M 152.68 136.87 L 152.44 137.03 C 151.78 137.48 151.62 138.37 152.07 139.03 C 152.52 139.69 153.41 139.85 154.07 139.40 L 154.30 139.24 C 154.96 138.79 155.13 137.90 154.68 137.24 C 154.23 136.58 153.33 136.42 152.68 136.87 Z"
      fill="black"
      fill-rule="nonzero" /><path d="M 163.80 125.59 L 163.73 126.59 C 163.68 127.42 164.31 128.15 165.15 128.20 C 165.99 128.26 166.71 127.62 166.77 126.78 L 166.83 125.78 C 166.88 124.95 166.25 124.22 165.41 124.17 C 164.58 124.11 163.85 124.75 163.80 125.59 Z M 163.70 126.62 L 163.66 127.60 C 163.62 128.46 164.28 129.18 165.14 129.22 C 165.99 129.26 166.72 128.60 166.75 127.74 L 166.80 126.76 C 166.84 125.90 166.18 125.18 165.32 125.14 C 164.46 125.10 163.74 125.76 163.70 126.62 Z M 163.64 127.65 L 163.63 128.62 C 163.62 129.49 164.31 130.19 165.17 130.21 C 166.04 130.22 166.75 129.52 166.76 128.66 L 166.77 127.69 C 166.78 126.83 166.09 126.12 165.23 126.11 C 164.36 126.10 163.65 126.79 163.64 127.65 Z M 163.63 128.66 L 163.64 129.67 C 163.65 130.53 164.36 131.23 165.22 131.22 C 166.08 131.21 166.77 130.50 166.76 129.64 L 166.75 128.63 C 166.74 127.76 166.04 127.07 165.18 127.08 C 164.32 127.09 163.62 127.80 163.63 128.66 Z M 163.66 129.69 L 163.67 130.66 C 163.69 131.51 164.40 132.19 165.25 132.18 C 166.11 132.16 166.79 131.45 166.77 130.60 L 166.75 129.63 C 166.74 128.77 166.03 128.09 165.17 128.11 C 164.32 128.12 163.64 128.83 163.66 129.69 Z M 163.69 130.65 L 163.71 131.70 C 163.72 132.54 164.42 133.22 165.27 133.20 C 166.11 133.19 166.79 132.49 166.77 131.65 L 166.75 130.60 C 166.74 129.76 166.04 129.08 165.20 129.10 C 164.35 129.11 163.68 129.81 163.69 130.65 Z M 163.73 131.69 L 163.74 132.73 C 163.75 133.57 164.43 134.24 165.26 134.23 C 166.10 134.22 166.77 133.54 166.76 132.70 L 166.75 131.66 C 166.74 130.83 166.06 130.15 165.23 130.16 C 164.39 130.17 163.72 130.85 163.73 131.69 Z M 163.76 132.72 L 163.76 133.73 C 163.76 134.55 164.43 135.21 165.26 135.21 C 166.08 135.21 166.74 134.54 166.74 133.72 L 166.74 132.71 C 166.74 131.89 166.07 131.23 165.25 131.23 C 164.42 131.23 163.76 131.90 163.76 132.72 Z M 163.78 133.72 L 163.78 134.73 C 163.78 135.54 164.44 136.20 165.25 136.20 C 166.06 136.20 166.72 135.54 166.72 134.73 L 166.72 133.72 C 166.72 132.91 166.06 132.25 165.25 132.25 C 164.44 132.25 163.78 132.91 163.78 133.72 Z M 163.81 134.73 L 163.81 135.71 C 163.81 136.51 164.45 137.16 165.25 137.16 C 166.05 137.16 166.70 136.51 166.70 135.71 L 166.70 134.73 C 166.70 133.93 166.05 133.28 165.25 133.28 C 164.45 133.28 163.81 133.93 163.81 134.73 Z M 163.82 135.71 L 163.82 136.11 C 163.82 136.90 164.46 137.54 165.25 137.54 C 166.04 137.54 166.68 136.90 166.68 136.11 L 166.68 135.71 C 166.68 134.92 166.04 134.28 165.25 134.28 C 164.46 134.28 163.82 134.92 163.82 135.71 Z"
      fill="black"
      fill-rule="nonzero" /><path d="M 166.40 124.31 L 167.41 124.25 C 168.26 124.20 168.91 123.46 168.85 122.61 C 168.80 121.76 168.07 121.11 167.22 121.16 L 166.21 121.22 C 165.36 121.28 164.71 122.01 164.76 122.86 C 164.81 123.71 165.55 124.36 166.40 124.31 Z M 167.34 124.25 L 168.34 124.23 C 169.20 124.21 169.87 123.51 169.86 122.65 C 169.84 121.80 169.13 121.12 168.28 121.14 L 167.28 121.16 C 166.42 121.18 165.75 121.88 165.76 122.74 C 165.78 123.59 166.49 124.27 167.34 124.25 Z M 168.17 124.23 L 169.18 124.32 C 170.03 124.39 170.78 123.76 170.86 122.91 C 170.94 122.06 170.31 121.31 169.46 121.23 L 168.45 121.14 C 167.60 121.07 166.85 121.70 166.77 122.55 C 166.69 123.40 167.32 124.15 168.17 124.23 Z M 168.79 124.23 L 169.70 124.55 C 170.51 124.84 171.39 124.43 171.68 123.63 C 171.97 122.83 171.55 121.94 170.75 121.65 L 169.84 121.32 C 169.04 121.03 168.16 121.45 167.87 122.25 C 167.58 123.05 167.99 123.94 168.79 124.23 Z M 169.26 124.30 L 170.04 124.92 C 170.70 125.46 171.66 125.36 172.20 124.70 C 172.73 124.04 172.63 123.07 171.97 122.54 L 171.19 121.91 C 170.53 121.38 169.57 121.48 169.03 122.14 C 168.50 122.80 168.60 123.76 169.26 124.30 Z M 169.77 124.63 L 170.34 125.41 C 170.83 126.09 171.79 126.24 172.47 125.74 C 173.15 125.24 173.30 124.29 172.80 123.61 L 172.24 122.83 C 171.74 122.15 170.78 122.00 170.10 122.50 C 169.42 123.00 169.27 123.95 169.77 124.63 Z M 170.15 125.06 L 170.53 126.02 C 170.83 126.80 171.71 127.18 172.49 126.88 C 173.28 126.58 173.66 125.69 173.36 124.91 L 172.99 123.95 C 172.68 123.17 171.80 122.79 171.02 123.09 C 170.24 123.39 169.85 124.28 170.15 125.06 Z M 170.45 125.69 L 170.59 126.66 C 170.72 127.48 171.49 128.05 172.31 127.93 C 173.14 127.81 173.71 127.04 173.58 126.21 L 173.44 125.24 C 173.31 124.42 172.54 123.85 171.72 123.97 C 170.89 124.09 170.33 124.86 170.45 125.69 Z M 170.59 126.46 L 170.61 127.49 C 170.62 128.32 171.31 128.97 172.14 128.96 C 172.96 128.94 173.62 128.26 173.61 127.43 L 173.59 126.41 C 173.57 125.58 172.89 124.92 172.06 124.94 C 171.23 124.95 170.57 125.64 170.59 126.46 Z M 170.63 127.34 L 170.54 128.33 C 170.48 129.15 171.09 129.87 171.91 129.93 C 172.72 130.00 173.44 129.39 173.51 128.57 L 173.59 127.58 C 173.66 126.76 173.05 126.04 172.23 125.98 C 171.41 125.91 170.69 126.52 170.63 127.34 Z M 170.59 128.13 L 170.37 129.11 C 170.20 129.90 170.70 130.69 171.49 130.86 C 172.28 131.04 173.07 130.54 173.25 129.75 L 173.46 128.77 C 173.64 127.98 173.14 127.19 172.35 127.01 C 171.55 126.84 170.77 127.34 170.59 128.13 Z M 170.45 128.89 L 170.10 129.79 C 169.80 130.54 170.17 131.39 170.92 131.68 C 171.67 131.98 172.52 131.61 172.82 130.86 L 173.17 129.96 C 173.46 129.21 173.09 128.36 172.34 128.07 C 171.59 127.77 170.75 128.14 170.45 128.89 Z M 170.17 129.64 L 169.70 130.53 C 169.32 131.24 169.59 132.12 170.30 132.50 C 171.01 132.87 171.89 132.60 172.27 131.90 L 172.74 131.00 C 173.12 130.29 172.85 129.42 172.14 129.04 C 171.43 128.66 170.55 128.93 170.17 129.64 Z M 169.76 130.45 L 169.22 131.31 C 168.79 131.99 169.00 132.88 169.68 133.31 C 170.35 133.73 171.25 133.52 171.67 132.85 L 172.21 131.98 C 172.63 131.30 172.43 130.41 171.75 129.99 C 171.07 129.57 170.18 129.77 169.76 130.45 Z M 169.26 131.26 L 168.69 132.07 C 168.24 132.73 168.40 133.62 169.06 134.08 C 169.71 134.53 170.61 134.37 171.06 133.71 L 171.63 132.90 C 172.08 132.25 171.92 131.35 171.26 130.89 C 170.61 130.44 169.71 130.60 169.26 131.26 Z M 168.73 132.03 L 168.12 132.84 C 167.64 133.47 167.77 134.37 168.40 134.85 C 169.04 135.33 169.94 135.20 170.42 134.57 L 171.03 133.76 C 171.50 133.13 171.38 132.22 170.74 131.75 C 170.11 131.27 169.21 131.40 168.73 132.03 Z M 168.16 132.80 L 167.53 133.58 C 167.03 134.19 167.12 135.09 167.74 135.59 C 168.35 136.09 169.25 136.00 169.75 135.38 L 170.38 134.61 C 170.88 133.99 170.79 133.09 170.17 132.59 C 169.56 132.09 168.65 132.19 168.16 132.80 Z M 167.55 133.55 L 166.90 134.31 C 166.39 134.91 166.46 135.82 167.06 136.33 C 167.66 136.84 168.56 136.77 169.08 136.17 L 169.73 135.41 C 170.24 134.81 170.17 133.90 169.57 133.39 C 168.97 132.88 168.06 132.95 167.55 133.55 Z M 166.92 134.30 L 166.25 135.06 C 165.73 135.65 165.79 136.55 166.39 137.07 C 166.98 137.59 167.88 137.53 168.40 136.94 L 169.06 136.18 C 169.58 135.59 169.52 134.69 168.93 134.17 C 168.34 133.65 167.43 133.71 166.92 134.30 Z M 166.26 135.06 L 166.22 135.10 C 165.70 135.69 165.76 136.59 166.35 137.11 C 166.94 137.63 167.84 137.57 168.36 136.98 L 168.40 136.94 C 168.92 136.35 168.86 135.45 168.27 134.93 C 167.68 134.41 166.78 134.46 166.26 135.06 Z"
      fill="black"
      fill-rule="nonzero" /><path d="M 154.04 142.93 L 153.89 143.93 C 153.75 144.81 154.36 145.63 155.24 145.76 C 156.12 145.90 156.94 145.29 157.07 144.41 L 157.22 143.41 C 157.36 142.53 156.75 141.71 155.87 141.57 C 154.99 141.44 154.17 142.05 154.04 142.93 Z M 153.88 144.00 L 153.77 144.98 C 153.67 145.86 154.31 146.66 155.20 146.75 C 156.08 146.85 156.88 146.21 156.97 145.32 L 157.08 144.34 C 157.18 143.46 156.54 142.66 155.65 142.57 C 154.77 142.47 153.97 143.11 153.88 144.00 Z M 153.77 145.10 L 153.74 146.10 C 153.71 146.99 154.41 147.73 155.30 147.75 C 156.18 147.78 156.92 147.08 156.95 146.19 L 156.98 145.20 C 157.00 144.31 156.31 143.57 155.42 143.55 C 154.53 143.52 153.79 144.22 153.77 145.10 Z M 153.75 146.17 L 153.76 147.17 C 153.78 148.05 154.50 148.75 155.38 148.74 C 156.26 148.73 156.97 148.00 156.95 147.12 L 156.94 146.12 C 156.92 145.24 156.20 144.54 155.32 144.55 C 154.44 144.56 153.74 145.29 153.75 146.17 Z M 153.78 147.16 L 153.79 148.12 C 153.79 149.00 154.51 149.70 155.38 149.69 C 156.25 149.68 156.95 148.97 156.95 148.09 L 156.94 147.13 C 156.93 146.26 156.22 145.56 155.34 145.57 C 154.47 145.57 153.77 146.29 153.78 147.16 Z M 153.80 148.11 L 153.80 149.14 C 153.80 150.01 154.51 150.71 155.37 150.71 C 156.23 150.70 156.93 150.00 156.93 149.14 L 156.93 148.11 C 156.93 147.24 156.23 146.54 155.36 146.54 C 154.50 146.55 153.80 147.25 153.80 148.11 Z M 153.82 149.14 L 153.82 150.15 C 153.82 151.01 154.51 151.70 155.37 151.70 C 156.22 151.70 156.92 151.01 156.92 150.15 L 156.92 149.14 C 156.92 148.29 156.22 147.59 155.37 147.59 C 154.51 147.59 153.82 148.29 153.82 149.14 Z M 153.84 150.15 L 153.84 151.16 C 153.84 152.01 154.52 152.69 155.37 152.69 C 156.21 152.69 156.90 152.01 156.90 151.16 L 156.90 150.15 C 156.90 149.31 156.21 148.62 155.37 148.62 C 154.52 148.62 153.84 149.31 153.84 150.15 Z M 153.86 151.16 L 153.86 152.19 C 153.86 153.02 154.53 153.70 155.37 153.70 C 156.20 153.70 156.88 153.02 156.88 152.19 L 156.88 151.16 C 156.88 150.33 156.20 149.65 155.37 149.65 C 154.53 149.65 153.86 150.33 153.86 151.16 Z M 153.88 152.19 L 153.88 153.18 C 153.88 154.01 154.54 154.67 155.37 154.67 C 156.19 154.67 156.86 154.01 156.86 153.18 L 156.86 152.19 C 156.86 151.36 156.19 150.70 155.37 150.70 C 154.54 150.70 153.88 151.36 153.88 152.19 Z M 153.89 153.18 L 153.89 154.16 C 153.89 154.98 154.55 155.64 155.37 155.64 C 156.18 155.64 156.84 154.98 156.84 154.16 L 156.84 153.18 C 156.84 152.37 156.18 151.71 155.37 151.71 C 154.55 151.71 153.89 152.37 153.89 153.18 Z M 153.91 154.16 L 153.91 155.15 C 153.91 155.96 154.56 156.61 155.37 156.61 C 156.17 156.61 156.83 155.96 156.83 155.15 L 156.83 154.16 C 156.83 153.36 156.17 152.71 155.37 152.71 C 154.56 152.71 153.91 153.36 153.91 154.16 Z M 153.92 155.15 L 153.92 155.39 C 153.92 156.19 154.57 156.84 155.37 156.84 C 156.17 156.84 156.82 156.19 156.82 155.39 L 156.82 155.15 C 156.82 154.35 156.17 153.70 155.37 153.70 C 154.57 153.70 153.92 154.35 153.92 155.15 Z"
      fill="black"
      fill-rule="nonzero" /><path d="M 158.42 143.02 L 159.36 142.60 C 160.12 142.26 160.46 141.38 160.12 140.62 C 159.78 139.87 158.90 139.53 158.15 139.87 L 157.20 140.29 C 156.45 140.63 156.11 141.51 156.44 142.26 C 156.78 143.02 157.66 143.36 158.42 143.02 Z M 159.34 142.66 L 160.23 142.29 C 161.02 141.97 161.39 141.07 161.07 140.29 C 160.75 139.50 159.85 139.12 159.06 139.44 L 158.17 139.81 C 157.39 140.13 157.01 141.03 157.33 141.81 C 157.65 142.60 158.55 142.98 159.34 142.66 Z M 160.11 142.36 L 161.06 142.07 C 161.88 141.81 162.34 140.93 162.09 140.11 C 161.83 139.28 160.95 138.82 160.13 139.08 L 159.18 139.37 C 158.35 139.63 157.89 140.51 158.15 141.33 C 158.41 142.16 159.29 142.62 160.11 142.36 Z M 160.86 142.12 L 161.84 141.95 C 162.69 141.80 163.26 140.99 163.12 140.14 C 162.97 139.28 162.15 138.71 161.30 138.85 L 160.32 139.02 C 159.47 139.17 158.90 139.99 159.04 140.84 C 159.19 141.70 160.01 142.27 160.86 142.12 Z M 161.70 141.97 L 162.70 141.89 C 163.57 141.82 164.21 141.06 164.14 140.19 C 164.07 139.32 163.31 138.68 162.44 138.75 L 161.44 138.83 C 160.57 138.91 159.93 139.67 160.00 140.53 C 160.07 141.40 160.83 142.05 161.70 141.97 Z M 162.63 141.89 L 163.65 141.86 C 164.52 141.82 165.20 141.09 165.17 140.22 C 165.13 139.35 164.40 138.67 163.53 138.71 L 162.51 138.75 C 161.64 138.78 160.96 139.51 161.00 140.38 C 161.03 141.25 161.76 141.93 162.63 141.89 Z M 163.60 141.86 L 164.60 141.85 C 165.47 141.85 166.17 141.14 166.17 140.27 C 166.16 139.40 165.45 138.70 164.58 138.70 L 163.59 138.71 C 162.72 138.71 162.01 139.42 162.02 140.29 C 162.02 141.16 162.73 141.86 163.60 141.86 Z M 164.54 141.85 L 165.52 141.88 C 166.39 141.91 167.12 141.23 167.14 140.36 C 167.17 139.49 166.49 138.76 165.62 138.74 L 164.64 138.70 C 163.77 138.67 163.05 139.36 163.02 140.23 C 162.99 141.09 163.67 141.82 164.54 141.85 Z M 165.41 141.87 L 166.41 141.97 C 167.27 142.06 168.04 141.43 168.13 140.56 C 168.22 139.70 167.59 138.93 166.72 138.84 L 165.73 138.74 C 164.86 138.66 164.09 139.29 164.01 140.15 C 163.92 141.02 164.55 141.79 165.41 141.87 Z M 166.21 141.94 L 167.19 142.16 C 168.03 142.36 168.88 141.83 169.07 140.99 C 169.27 140.14 168.74 139.30 167.90 139.11 L 166.92 138.88 C 166.07 138.68 165.23 139.21 165.04 140.05 C 164.84 140.90 165.37 141.74 166.21 141.94 Z M 166.98 142.10 L 167.92 142.46 C 168.73 142.77 169.63 142.36 169.94 141.56 C 170.25 140.75 169.85 139.84 169.04 139.53 L 168.10 139.17 C 167.30 138.86 166.39 139.26 166.08 140.07 C 165.77 140.88 166.17 141.79 166.98 142.10 Z M 167.74 142.37 L 168.63 142.85 C 169.39 143.26 170.34 142.97 170.75 142.21 C 171.15 141.45 170.87 140.50 170.11 140.09 L 169.22 139.61 C 168.46 139.21 167.51 139.49 167.10 140.25 C 166.69 141.02 166.98 141.96 167.74 142.37 Z M 168.47 142.75 L 169.28 143.32 C 169.99 143.82 170.97 143.65 171.46 142.94 C 171.96 142.24 171.79 141.26 171.08 140.76 L 170.27 140.19 C 169.56 139.69 168.58 139.86 168.09 140.57 C 167.59 141.28 167.76 142.25 168.47 142.75 Z M 169.15 143.22 L 169.90 143.87 C 170.54 144.44 171.53 144.38 172.10 143.74 C 172.67 143.09 172.61 142.10 171.96 141.53 L 171.22 140.87 C 170.57 140.30 169.58 140.36 169.01 141.01 C 168.44 141.66 168.50 142.64 169.15 143.22 Z M 169.78 143.75 L 170.45 144.49 C 171.03 145.13 172.02 145.17 172.65 144.59 C 173.29 144.01 173.34 143.02 172.75 142.39 L 172.08 141.65 C 171.50 141.01 170.52 140.97 169.88 141.55 C 169.24 142.13 169.20 143.12 169.78 143.75 Z M 170.34 144.35 L 170.93 145.16 C 171.43 145.86 172.40 146.02 173.10 145.52 C 173.79 145.02 173.95 144.04 173.45 143.35 L 172.87 142.53 C 172.36 141.83 171.39 141.68 170.70 142.18 C 170.00 142.68 169.84 143.65 170.34 144.35 Z M 170.81 144.97 L 171.28 145.86 C 171.67 146.62 172.61 146.91 173.37 146.51 C 174.13 146.12 174.42 145.18 174.03 144.42 L 173.56 143.54 C 173.17 142.78 172.23 142.48 171.47 142.88 C 170.71 143.28 170.42 144.21 170.81 144.97 Z M 171.18 145.60 L 171.47 146.54 C 171.73 147.35 172.60 147.81 173.41 147.55 C 174.23 147.29 174.68 146.42 174.42 145.61 L 174.13 144.67 C 173.87 143.86 173.00 143.40 172.18 143.66 C 171.37 143.92 170.92 144.79 171.18 145.60 Z M 171.43 146.32 L 171.59 147.31 C 171.72 148.15 172.51 148.73 173.35 148.59 C 174.19 148.46 174.76 147.67 174.63 146.83 L 174.47 145.83 C 174.33 144.99 173.54 144.42 172.70 144.55 C 171.86 144.69 171.29 145.48 171.43 146.32 Z M 171.58 147.19 L 171.65 148.16 C 171.72 149.01 172.45 149.64 173.30 149.58 C 174.14 149.51 174.77 148.78 174.71 147.93 L 174.63 146.95 C 174.57 146.11 173.83 145.48 172.99 145.54 C 172.15 145.61 171.52 146.34 171.58 147.19 Z M 171.66 148.08 L 171.68 149.09 C 171.70 149.93 172.39 150.60 173.23 150.58 C 174.07 150.57 174.74 149.87 174.72 149.03 L 174.70 148.02 C 174.69 147.18 173.99 146.51 173.15 146.53 C 172.31 146.54 171.64 147.24 171.66 148.08 Z M 171.69 149.02 L 171.66 150.02 C 171.64 150.85 172.29 151.55 173.12 151.57 C 173.95 151.60 174.65 150.95 174.68 150.12 L 174.71 149.11 C 174.74 148.28 174.08 147.58 173.25 147.56 C 172.42 147.53 171.72 148.18 171.69 149.02 Z M 171.69 149.89 L 171.57 150.88 C 171.47 151.70 172.05 152.45 172.87 152.54 C 173.69 152.64 174.44 152.06 174.53 151.24 L 174.65 150.24 C 174.75 149.43 174.17 148.68 173.35 148.58 C 172.53 148.49 171.79 149.07 171.69 149.89 Z M 171.62 150.69 L 171.37 151.63 C 171.17 152.42 171.64 153.22 172.43 153.43 C 173.22 153.64 174.03 153.17 174.23 152.38 L 174.48 151.44 C 174.69 150.65 174.22 149.84 173.43 149.63 C 172.64 149.42 171.83 149.90 171.62 150.69 Z M 171.46 151.43 L 171.07 152.34 C 170.75 153.08 171.10 153.94 171.85 154.26 C 172.59 154.58 173.45 154.23 173.77 153.48 L 174.15 152.58 C 174.47 151.83 174.12 150.97 173.38 150.65 C 172.63 150.34 171.77 150.69 171.46 151.43 Z M 171.15 152.20 L 170.65 153.09 C 170.26 153.79 170.51 154.68 171.21 155.07 C 171.91 155.46 172.80 155.21 173.19 154.51 L 173.69 153.62 C 174.08 152.92 173.83 152.04 173.13 151.64 C 172.43 151.25 171.54 151.50 171.15 152.20 Z M 170.71 153.02 L 170.18 153.84 C 169.74 154.51 169.93 155.40 170.60 155.83 C 171.27 156.27 172.16 156.08 172.60 155.41 L 173.13 154.59 C 173.56 153.92 173.37 153.03 172.70 152.59 C 172.04 152.16 171.14 152.35 170.71 153.02 Z M 170.21 153.80 L 169.63 154.64 C 169.17 155.29 169.33 156.19 169.98 156.64 C 170.63 157.09 171.53 156.93 171.98 156.28 L 172.56 155.44 C 173.02 154.79 172.86 153.90 172.21 153.45 C 171.56 152.99 170.66 153.15 170.21 153.80 Z M 169.64 154.64 L 169.37 155.02 C 168.91 155.66 169.06 156.55 169.71 157.01 C 170.35 157.47 171.24 157.31 171.70 156.67 L 171.97 156.29 C 172.42 155.65 172.27 154.75 171.63 154.30 C 170.99 153.84 170.09 153.99 169.64 154.64 Z"
      fill="black"
      fill-rule="nonzero" /><path d="M 158.20 150.42 L 159.24 150.42 C 160.07 150.42 160.74 149.74 160.74 148.91 C 160.74 148.08 160.07 147.40 159.23 147.40 L 158.19 147.40 C 157.36 147.41 156.69 148.08 156.69 148.91 C 156.69 149.75 157.37 150.42 158.20 150.42 Z M 159.25 150.44 L 160.25 150.43 C 161.09 150.43 161.77 149.73 161.76 148.89 C 161.76 148.04 161.06 147.36 160.22 147.37 L 159.22 147.38 C 158.37 147.38 157.69 148.08 157.70 148.92 C 157.71 149.77 158.40 150.45 159.25 150.44 Z M 160.27 150.45 L 161.23 150.43 C 162.09 150.40 162.76 149.69 162.74 148.83 C 162.72 147.97 162.00 147.30 161.15 147.32 L 160.19 147.35 C 159.33 147.37 158.66 148.09 158.68 148.94 C 158.70 149.80 159.42 150.48 160.27 150.45 Z M 161.26 150.43 L 162.22 150.38 C 163.08 150.34 163.74 149.62 163.70 148.76 C 163.66 147.90 162.94 147.24 162.08 147.28 L 161.12 147.32 C 160.26 147.36 159.60 148.09 159.64 148.95 C 159.68 149.80 160.40 150.46 161.26 150.43 Z M 162.22 150.37 L 163.24 150.33 C 164.09 150.29 164.75 149.57 164.71 148.72 C 164.68 147.87 163.96 147.21 163.10 147.24 L 162.09 147.29 C 161.23 147.32 160.57 148.04 160.61 148.90 C 160.65 149.75 161.37 150.41 162.22 150.37 Z M 163.22 150.32 L 164.19 150.29 C 165.04 150.26 165.71 149.56 165.68 148.71 C 165.65 147.86 164.95 147.20 164.10 147.22 L 163.12 147.25 C 162.28 147.28 161.61 147.99 161.64 148.83 C 161.66 149.68 162.37 150.34 163.22 150.32 Z M 164.18 150.28 L 165.21 150.25 C 166.05 150.24 166.72 149.54 166.70 148.70 C 166.68 147.86 165.99 147.20 165.15 147.21 L 164.12 147.24 C 163.28 147.25 162.61 147.95 162.63 148.79 C 162.65 149.63 163.34 150.29 164.18 150.28 Z M 165.20 150.24 L 166.24 150.23 C 167.07 150.21 167.73 149.53 167.72 148.70 C 167.71 147.87 167.03 147.20 166.19 147.22 L 165.16 147.23 C 164.33 147.24 163.66 147.92 163.67 148.75 C 163.69 149.59 164.37 150.25 165.20 150.24 Z M 166.22 150.20 L 167.24 150.20 C 168.06 150.19 168.72 149.52 168.71 148.71 C 168.71 147.89 168.04 147.23 167.22 147.23 L 166.21 147.24 C 165.39 147.24 164.73 147.91 164.73 148.73 C 164.74 149.55 165.40 150.21 166.22 150.20 Z M 167.23 150.17 L 168.20 150.17 C 169.01 150.17 169.66 149.52 169.66 148.71 C 169.66 147.91 169.01 147.25 168.20 147.26 L 167.23 147.26 C 166.42 147.26 165.77 147.91 165.77 148.72 C 165.77 149.52 166.43 150.17 167.23 150.17 Z M 168.20 150.15 L 168.48 150.15 C 169.28 150.15 169.92 149.51 169.92 148.71 C 169.92 147.92 169.28 147.27 168.48 147.27 L 168.20 147.27 C 167.41 147.27 166.76 147.92 166.76 148.71 C 166.76 149.51 167.41 150.15 168.20 150.15 Z"
      fill="black"
      fill-rule="nonzero" /><path d="M 154.50 157.48 L 155.41 157.53 C 156.24 157.57 156.94 156.93 156.98 156.11 C 157.02 155.28 156.39 154.58 155.56 154.54 L 154.65 154.50 C 153.83 154.45 153.13 155.09 153.09 155.91 C 153.05 156.74 153.68 157.44 154.50 157.48 Z M 155.52 157.56 L 156.56 157.54 C 157.40 157.53 158.08 156.83 158.06 155.99 C 158.05 155.14 157.35 154.47 156.50 154.49 L 155.46 154.50 C 154.62 154.52 153.94 155.22 153.96 156.06 C 153.97 156.91 154.67 157.58 155.52 157.56 Z M 156.68 157.56 L 157.67 157.46 C 158.53 157.37 159.15 156.62 159.06 155.76 C 158.98 154.91 158.22 154.29 157.37 154.37 L 156.38 154.47 C 155.53 154.56 154.91 155.31 154.99 156.17 C 155.07 157.02 155.83 157.64 156.68 157.56 Z M 157.74 157.45 L 158.74 157.31 C 159.59 157.19 160.18 156.41 160.07 155.56 C 159.95 154.72 159.16 154.12 158.32 154.24 L 157.31 154.38 C 156.46 154.50 155.87 155.28 155.99 156.13 C 156.11 156.98 156.89 157.57 157.74 157.45 Z M 158.76 157.30 L 159.78 157.15 C 160.63 157.02 161.21 156.24 161.08 155.39 C 160.95 154.55 160.17 153.97 159.32 154.09 L 158.30 154.25 C 157.46 154.37 156.87 155.16 157.00 156.01 C 157.13 156.85 157.92 157.43 158.76 157.30 Z M 159.76 157.15 L 160.81 157.00 C 161.65 156.89 162.24 156.11 162.12 155.27 C 162.01 154.42 161.23 153.84 160.39 153.95 L 159.34 154.10 C 158.50 154.21 157.91 154.99 158.03 155.83 C 158.14 156.68 158.92 157.26 159.76 157.15 Z M 160.77 157.00 L 161.77 156.88 C 162.61 156.79 163.21 156.03 163.12 155.19 C 163.02 154.36 162.27 153.75 161.43 153.85 L 160.43 153.96 C 159.59 154.05 158.99 154.81 159.08 155.65 C 159.18 156.49 159.93 157.09 160.77 157.00 Z M 161.72 156.88 L 162.66 156.80 C 163.49 156.73 164.11 156.00 164.05 155.16 C 163.98 154.33 163.24 153.71 162.41 153.78 L 161.48 153.85 C 160.64 153.92 160.02 154.66 160.09 155.49 C 160.16 156.32 160.89 156.94 161.72 156.88 Z M 162.61 156.79 L 163.65 156.74 C 164.47 156.69 165.11 155.99 165.07 155.16 C 165.03 154.33 164.32 153.69 163.49 153.74 L 162.46 153.79 C 161.63 153.83 160.99 154.54 161.04 155.36 C 161.08 156.19 161.78 156.83 162.61 156.79 Z M 163.61 156.72 L 164.59 156.70 C 165.41 156.67 166.06 155.99 166.04 155.17 C 166.02 154.35 165.34 153.70 164.52 153.72 L 163.53 153.75 C 162.71 153.77 162.06 154.45 162.08 155.27 C 162.10 156.09 162.79 156.74 163.61 156.72 Z M 164.57 156.68 L 165.57 156.67 C 166.38 156.67 167.04 156.00 167.03 155.19 C 167.02 154.38 166.36 153.72 165.55 153.73 L 164.54 153.74 C 163.73 153.75 163.08 154.41 163.08 155.22 C 163.09 156.03 163.75 156.69 164.57 156.68 Z M 165.49 156.65 L 166.47 156.70 C 167.27 156.74 167.96 156.12 168.00 155.32 C 168.03 154.52 167.42 153.83 166.61 153.80 L 165.63 153.75 C 164.83 153.71 164.14 154.33 164.11 155.13 C 164.07 155.93 164.69 156.62 165.49 156.65 Z M 166.29 156.67 L 167.25 156.85 C 168.04 156.99 168.79 156.46 168.93 155.68 C 169.07 154.89 168.55 154.14 167.76 154.00 L 166.80 153.82 C 166.01 153.68 165.26 154.21 165.12 154.99 C 164.98 155.78 165.50 156.53 166.29 156.67 Z M 167.10 156.81 L 168.06 157.09 C 168.83 157.32 169.64 156.88 169.86 156.11 C 170.09 155.34 169.64 154.53 168.87 154.31 L 167.91 154.03 C 167.14 153.80 166.34 154.25 166.11 155.02 C 165.89 155.78 166.33 156.59 167.10 156.81 Z M 168.02 157.09 L 168.30 157.18 C 169.06 157.42 169.88 157.00 170.13 156.24 C 170.38 155.47 169.96 154.65 169.19 154.40 L 168.91 154.31 C 168.15 154.07 167.33 154.49 167.08 155.25 C 166.84 156.02 167.26 156.84 168.02 157.09 Z"
      fill="black"
      fill-rule="nonzero" /><path d="M 151.21 163.14 L 152.16 163.31 C 152.98 163.46 153.76 162.92 153.91 162.09 C 154.06 161.27 153.51 160.49 152.69 160.34 L 151.74 160.17 C 150.92 160.03 150.14 160.57 149.99 161.39 C 149.84 162.21 150.39 163.00 151.21 163.14 Z M 152.21 163.39 L 153.22 163.52 C 154.08 163.64 154.87 163.03 154.99 162.17 C 155.11 161.31 154.50 160.52 153.64 160.40 L 152.63 160.27 C 151.77 160.15 150.98 160.76 150.86 161.62 C 150.75 162.48 151.35 163.27 152.21 163.39 Z M 153.32 163.57 L 154.35 163.64 C 155.24 163.70 156.01 163.03 156.07 162.14 C 156.13 161.25 155.46 160.48 154.57 160.42 L 153.54 160.35 C 152.65 160.30 151.88 160.97 151.82 161.86 C 151.76 162.75 152.44 163.51 153.32 163.57 Z M 154.43 163.65 L 155.45 163.67 C 156.35 163.69 157.09 162.98 157.11 162.09 C 157.12 161.19 156.41 160.45 155.52 160.43 L 154.49 160.41 C 153.60 160.39 152.86 161.10 152.84 162.00 C 152.82 162.89 153.53 163.63 154.43 163.65 Z M 155.48 163.67 L 156.48 163.67 C 157.38 163.67 158.10 162.95 158.10 162.06 C 158.10 161.17 157.38 160.44 156.49 160.44 L 155.49 160.44 C 154.60 160.44 153.87 161.16 153.87 162.05 C 153.87 162.94 154.59 163.67 155.48 163.67 Z M 156.49 163.66 L 157.50 163.66 C 158.39 163.66 159.11 162.94 159.11 162.06 C 159.11 161.17 158.39 160.45 157.50 160.45 L 156.49 160.45 C 155.60 160.45 154.88 161.17 154.88 162.06 C 154.88 162.94 155.60 163.66 156.49 163.66 Z M 157.50 163.65 L 158.44 163.65 C 159.33 163.65 160.04 162.94 160.04 162.06 C 160.04 161.17 159.33 160.46 158.44 160.46 L 157.50 160.46 C 156.62 160.46 155.91 161.17 155.91 162.06 C 155.91 162.94 156.62 163.65 157.50 163.65 Z M 158.44 163.64 L 159.44 163.64 C 160.32 163.64 161.03 162.93 161.03 162.06 C 161.03 161.18 160.32 160.47 159.44 160.47 L 158.44 160.47 C 157.57 160.47 156.86 161.18 156.86 162.06 C 156.86 162.93 157.57 163.64 158.44 163.64 Z M 159.44 163.63 L 160.45 163.63 C 161.32 163.63 162.02 162.93 162.02 162.06 C 162.02 161.18 161.32 160.48 160.45 160.48 L 159.44 160.48 C 158.57 160.48 157.87 161.18 157.87 162.06 C 157.87 162.93 158.57 163.63 159.44 163.63 Z M 160.45 163.62 L 161.45 163.62 C 162.31 163.62 163.02 162.92 163.02 162.06 C 163.02 161.19 162.31 160.49 161.45 160.49 L 160.45 160.49 C 159.58 160.49 158.88 161.19 158.88 162.06 C 158.88 162.92 159.58 163.62 160.45 163.62 Z M 161.45 163.62 L 162.44 163.62 C 163.30 163.62 164.00 162.92 164.00 162.06 C 164.00 161.19 163.30 160.50 162.44 160.50 L 161.45 160.50 C 160.59 160.50 159.89 161.19 159.89 162.06 C 159.89 162.92 160.59 163.62 161.45 163.62 Z M 162.44 163.61 L 163.45 163.61 C 164.31 163.61 165.00 162.91 165.00 162.06 C 165.00 161.20 164.31 160.50 163.45 160.50 L 162.44 160.50 C 161.58 160.50 160.88 161.20 160.88 162.06 C 160.88 162.91 161.58 163.61 162.44 163.61 Z M 163.45 163.59 L 164.46 163.59 C 165.31 163.59 166.00 162.90 166.00 162.06 C 166.00 161.21 165.31 160.52 164.46 160.52 L 163.45 160.52 C 162.60 160.52 161.91 161.21 161.91 162.06 C 161.91 162.90 162.60 163.59 163.45 163.59 Z M 164.46 163.57 L 165.46 163.57 C 166.30 163.57 166.98 162.89 166.98 162.06 C 166.98 161.22 166.30 160.54 165.46 160.54 L 164.46 160.54 C 163.62 160.54 162.94 161.22 162.94 162.06 C 162.94 162.89 163.62 163.57 164.46 163.57 Z M 165.46 163.55 L 166.47 163.55 C 167.30 163.55 167.97 162.88 167.97 162.06 C 167.97 161.23 167.30 160.56 166.47 160.56 L 165.46 160.56 C 164.64 160.56 163.97 161.23 163.97 162.06 C 163.97 162.88 164.64 163.55 165.46 163.55 Z M 166.47 163.54 L 167.40 163.53 C 168.22 163.53 168.88 162.87 168.88 162.05 C 168.88 161.23 168.21 160.57 167.39 160.57 L 166.47 160.57 C 165.65 160.58 164.99 161.24 164.99 162.06 C 164.99 162.87 165.65 163.54 166.47 163.54 Z M 167.43 163.52 L 168.45 163.50 C 169.26 163.48 169.90 162.81 169.88 162.00 C 169.86 161.19 169.19 160.55 168.38 160.57 L 167.36 160.59 C 166.55 160.61 165.91 161.28 165.93 162.09 C 165.95 162.90 166.62 163.54 167.43 163.52 Z M 168.50 163.48 L 169.47 163.43 C 170.27 163.39 170.88 162.70 170.84 161.90 C 170.79 161.10 170.11 160.48 169.31 160.53 L 168.34 160.58 C 167.53 160.62 166.92 161.31 166.96 162.11 C 167.01 162.91 167.69 163.53 168.50 163.48 Z M 169.50 163.42 L 170.53 163.34 C 171.32 163.27 171.92 162.57 171.85 161.78 C 171.79 160.98 171.09 160.39 170.29 160.45 L 169.27 160.54 C 168.47 160.60 167.88 161.30 167.94 162.09 C 168.01 162.89 168.71 163.48 169.50 163.42 Z M 170.57 163.32 L 171.60 163.21 C 172.40 163.12 172.96 162.41 172.88 161.62 C 172.79 160.83 172.08 160.26 171.29 160.35 L 170.25 160.46 C 169.46 160.55 168.89 161.26 168.98 162.05 C 169.07 162.84 169.78 163.41 170.57 163.32 Z M 171.65 163.20 L 172.64 163.06 C 173.43 162.95 173.97 162.22 173.86 161.44 C 173.75 160.65 173.03 160.11 172.24 160.22 L 171.25 160.36 C 170.46 160.47 169.92 161.20 170.03 161.98 C 170.14 162.76 170.86 163.31 171.65 163.20 Z M 172.66 163.05 L 173.64 162.90 C 174.42 162.77 174.95 162.04 174.83 161.26 C 174.70 160.48 173.97 159.95 173.19 160.07 L 172.22 160.23 C 171.44 160.35 170.91 161.08 171.03 161.86 C 171.15 162.64 171.89 163.17 172.66 163.05 Z M 173.65 162.89 L 173.79 162.87 C 174.57 162.74 175.09 162.01 174.97 161.23 C 174.84 160.46 174.11 159.93 173.33 160.05 L 173.19 160.08 C 172.41 160.20 171.88 160.94 172.01 161.71 C 172.14 162.49 172.87 163.02 173.65 162.89 Z"
      fill="black"
      fill-rule="nonzero" /><path d="M 163.07 142.29 L 162.80 143.20 C 162.57 144.01 163.03 144.85 163.83 145.09 C 164.64 145.32 165.48 144.86 165.72 144.05 L 165.98 143.14 C 166.22 142.34 165.76 141.49 164.95 141.26 C 164.15 141.02 163.30 141.49 163.07 142.29 Z M 162.67 143.46 L 162.57 144.49 C 162.47 145.36 163.11 146.15 163.99 146.24 C 164.86 146.33 165.65 145.70 165.74 144.82 L 165.85 143.79 C 165.94 142.92 165.30 142.13 164.43 142.04 C 163.55 141.95 162.77 142.58 162.67 143.46 Z M 162.52 144.77 L 162.59 145.76 C 162.65 146.67 163.43 147.35 164.33 147.28 C 165.23 147.22 165.91 146.44 165.85 145.54 L 165.79 144.54 C 165.72 143.64 164.94 142.96 164.04 143.02 C 163.14 143.08 162.46 143.86 162.52 144.77 Z M 162.59 145.85 L 162.71 146.86 C 162.82 147.77 163.64 148.41 164.55 148.30 C 165.45 148.19 166.09 147.36 165.98 146.46 L 165.86 145.45 C 165.75 144.55 164.92 143.91 164.02 144.02 C 163.12 144.13 162.47 144.95 162.59 145.85 Z M 162.70 146.83 L 162.81 147.88 C 162.90 148.79 163.72 149.45 164.63 149.35 C 165.54 149.25 166.20 148.44 166.10 147.53 L 165.99 146.49 C 165.90 145.58 165.08 144.92 164.17 145.01 C 163.26 145.11 162.60 145.93 162.70 146.83 Z M 162.80 147.85 L 162.88 148.79 C 162.96 149.71 163.77 150.38 164.68 150.30 C 165.60 150.22 166.27 149.42 166.19 148.50 L 166.11 147.56 C 166.03 146.64 165.22 145.97 164.31 146.05 C 163.40 146.13 162.72 146.93 162.80 147.85 Z M 162.88 148.81 L 162.98 149.79 C 163.07 150.70 163.88 151.37 164.80 151.28 C 165.71 151.19 166.38 150.38 166.29 149.46 L 166.19 148.49 C 166.10 147.57 165.29 146.90 164.38 146.99 C 163.46 147.08 162.79 147.90 162.88 148.81 Z M 162.98 149.78 L 163.07 150.79 C 163.16 151.70 163.97 152.38 164.89 152.29 C 165.80 152.20 166.47 151.39 166.39 150.47 L 166.29 149.47 C 166.21 148.55 165.39 147.88 164.48 147.97 C 163.56 148.06 162.89 148.87 162.98 149.78 Z M 163.07 150.76 L 163.14 151.74 C 163.21 152.66 164.02 153.34 164.94 153.27 C 165.85 153.20 166.54 152.40 166.47 151.48 L 166.39 150.50 C 166.32 149.58 165.52 148.90 164.60 148.97 C 163.68 149.04 162.99 149.84 163.07 150.76 Z M 163.14 151.73 L 163.22 152.75 C 163.29 153.67 164.09 154.36 165.01 154.29 C 165.92 154.22 166.61 153.42 166.55 152.50 L 166.47 151.48 C 166.40 150.56 165.60 149.87 164.68 149.94 C 163.76 150.01 163.07 150.81 163.14 151.73 Z M 163.22 152.76 L 163.29 153.73 C 163.36 154.65 164.17 155.33 165.09 155.26 C 166.01 155.19 166.69 154.39 166.62 153.47 L 166.55 152.50 C 166.48 151.58 165.67 150.89 164.75 150.96 C 163.83 151.03 163.14 151.84 163.22 152.76 Z M 163.29 153.72 L 163.37 154.74 C 163.43 155.66 164.24 156.35 165.16 156.29 C 166.08 156.22 166.77 155.42 166.70 154.49 L 166.62 153.47 C 166.56 152.55 165.75 151.86 164.83 151.93 C 163.91 152.00 163.22 152.80 163.29 153.72 Z M 163.36 154.72 L 163.43 155.70 C 163.48 156.62 164.28 157.32 165.20 157.26 C 166.12 157.20 166.82 156.41 166.76 155.49 L 166.70 154.51 C 166.64 153.59 165.85 152.89 164.93 152.95 C 164.00 153.01 163.30 153.80 163.36 154.72 Z M 163.42 155.68 L 163.48 156.69 C 163.53 157.61 164.32 158.32 165.24 158.27 C 166.17 158.21 166.87 157.43 166.82 156.50 L 166.77 155.50 C 166.72 154.58 165.93 153.87 165.00 153.92 C 164.08 153.97 163.37 154.76 163.42 155.68 Z M 163.48 156.68 L 163.53 157.69 C 163.57 158.62 164.36 159.33 165.28 159.28 C 166.21 159.24 166.92 158.45 166.87 157.53 L 166.82 156.51 C 166.78 155.59 165.99 154.88 165.07 154.92 C 164.14 154.97 163.43 155.75 163.48 156.68 Z M 163.53 157.69 L 163.57 158.66 C 163.61 159.58 164.40 160.30 165.32 160.26 C 166.24 160.21 166.96 159.43 166.92 158.51 L 166.87 157.53 C 166.83 156.61 166.05 155.89 165.12 155.94 C 164.20 155.98 163.48 156.76 163.53 157.69 Z M 163.57 158.65 L 163.61 159.66 C 163.65 160.59 164.43 161.31 165.35 161.27 C 166.28 161.23 167.00 160.45 166.96 159.53 L 166.92 158.51 C 166.88 157.59 166.10 156.87 165.18 156.91 C 164.25 156.94 163.53 157.72 163.57 158.65 Z M 163.61 159.65 L 163.64 160.67 C 163.67 161.60 164.45 162.32 165.38 162.29 C 166.30 162.26 167.03 161.48 167.00 160.56 L 166.96 159.54 C 166.93 158.61 166.15 157.89 165.23 157.92 C 164.30 157.95 163.58 158.72 163.61 159.65 Z M 163.64 160.66 L 163.67 161.67 C 163.70 162.59 164.47 163.32 165.39 163.30 C 166.32 163.27 167.05 162.50 167.02 161.57 L 167.00 160.57 C 166.97 159.64 166.20 158.91 165.27 158.94 C 164.35 158.96 163.62 159.74 163.64 160.66 Z M 163.67 161.66 L 163.69 162.67 C 163.72 163.59 164.49 164.33 165.41 164.30 C 166.34 164.28 167.07 163.51 167.05 162.58 L 167.03 161.58 C 167.00 160.65 166.23 159.92 165.31 159.94 C 164.38 159.96 163.65 160.73 163.67 161.66 Z M 163.69 162.66 L 163.72 163.67 C 163.74 164.60 164.51 165.33 165.43 165.31 C 166.36 165.29 167.10 164.52 167.07 163.59 L 167.05 162.59 C 167.03 161.66 166.26 160.92 165.33 160.95 C 164.41 160.97 163.67 161.74 163.69 162.66 Z M 163.72 163.67 L 163.74 164.69 C 163.76 165.62 164.53 166.35 165.46 166.33 C 166.38 166.31 167.12 165.54 167.10 164.61 L 167.08 163.60 C 167.05 162.67 166.29 161.93 165.36 161.95 C 164.43 161.97 163.69 162.74 163.72 163.67 Z M 163.74 164.69 L 163.76 165.68 C 163.78 166.60 164.55 167.34 165.48 167.32 C 166.41 167.30 167.14 166.53 167.12 165.60 L 167.10 164.61 C 167.08 163.69 166.31 162.95 165.38 162.97 C 164.45 162.99 163.72 163.76 163.74 164.69 Z M 163.76 165.68 L 163.78 166.67 C 163.80 167.59 164.57 168.33 165.50 168.31 C 166.43 168.29 167.16 167.52 167.14 166.59 L 167.12 165.60 C 167.10 164.67 166.33 163.94 165.40 163.96 C 164.47 163.98 163.74 164.75 163.76 165.68 Z M 163.78 166.66 L 163.80 167.67 C 163.82 168.60 164.59 169.34 165.52 169.32 C 166.45 169.30 167.18 168.53 167.16 167.60 L 167.14 166.59 C 167.12 165.66 166.35 164.93 165.43 164.95 C 164.50 164.97 163.76 165.74 163.78 166.66 Z M 163.80 167.66 L 163.82 168.65 C 163.84 169.58 164.60 170.32 165.53 170.31 C 166.46 170.29 167.20 169.52 167.18 168.60 L 167.17 167.61 C 167.15 166.68 166.38 165.94 165.45 165.95 C 164.53 165.97 163.79 166.74 163.80 167.66 Z M 163.82 168.64 L 163.83 169.65 C 163.84 170.58 164.60 171.32 165.53 171.31 C 166.46 171.31 167.20 170.55 167.19 169.62 L 167.18 168.61 C 167.17 167.68 166.41 166.93 165.48 166.94 C 164.56 166.95 163.81 167.71 163.82 168.64 Z M 163.83 169.64 L 163.83 170.64 C 163.84 171.57 164.59 172.32 165.52 172.32 C 166.45 172.31 167.20 171.56 167.20 170.63 L 167.19 169.63 C 167.19 168.70 166.43 167.95 165.51 167.95 C 164.58 167.96 163.83 168.71 163.83 169.64 Z M 163.84 170.64 L 163.84 171.63 C 163.84 172.55 164.59 173.30 165.52 173.30 C 166.44 173.30 167.20 172.55 167.19 171.62 L 167.19 170.64 C 167.19 169.71 166.44 168.96 165.51 168.96 C 164.59 168.96 163.83 169.71 163.84 170.64 Z M 163.84 171.62 L 163.84 172.65 C 163.84 173.57 164.59 174.32 165.52 174.32 C 166.44 174.32 167.19 173.57 167.19 172.65 L 167.19 171.62 C 167.19 170.70 166.44 169.95 165.52 169.95 C 164.59 169.95 163.84 170.70 163.84 171.62 Z M 163.84 172.65 L 163.84 173.63 C 163.84 174.55 164.59 175.30 165.52 175.30 C 166.44 175.30 167.19 174.55 167.19 173.63 L 167.19 172.65 C 167.19 171.72 166.44 170.97 165.52 170.97 C 164.59 170.97 163.84 171.72 163.84 172.65 Z M 163.84 173.63 L 163.84 174.63 C 163.84 175.55 164.59 176.30 165.52 176.30 C 166.44 176.30 167.19 175.55 167.19 174.63 L 167.19 173.63 C 167.19 172.70 166.44 171.95 165.52 171.95 C 164.59 171.95 163.84 172.70 163.84 173.63 Z M 163.84 174.63 L 163.84 175.62 C 163.84 176.55 164.59 177.29 165.52 177.29 C 166.44 177.29 167.19 176.55 167.19 175.62 L 167.19 174.63 C 167.19 173.70 166.44 172.95 165.52 172.95 C 164.59 172.95 163.84 173.70 163.84 174.63 Z M 163.84 175.62 L 163.84 176.60 C 163.84 177.52 164.59 178.27 165.51 178.27 C 166.44 178.27 167.19 177.52 167.19 176.60 L 167.19 175.62 C 167.19 174.70 166.44 173.95 165.52 173.95 C 164.59 173.95 163.84 174.70 163.84 175.62 Z M 163.84 176.58 L 163.83 177.57 C 163.82 178.50 164.56 179.25 165.48 179.26 C 166.41 179.27 167.16 178.53 167.17 177.61 L 167.19 176.62 C 167.20 175.69 166.46 174.94 165.53 174.93 C 164.61 174.92 163.85 175.66 163.84 176.58 Z M 163.83 177.53 L 163.80 178.54 C 163.76 179.46 164.49 180.23 165.41 180.27 C 166.33 180.30 167.10 179.58 167.14 178.66 L 167.17 177.65 C 167.21 176.73 166.49 175.96 165.56 175.92 C 164.64 175.89 163.87 176.61 163.83 177.53 Z M 163.80 178.49 L 163.74 179.46 C 163.68 180.38 164.38 181.17 165.30 181.23 C 166.22 181.29 167.01 180.59 167.07 179.67 L 167.13 178.70 C 167.19 177.78 166.49 176.99 165.57 176.93 C 164.65 176.87 163.86 177.57 163.80 178.49 Z M 163.74 179.43 L 163.66 180.46 C 163.58 181.37 164.26 182.18 165.18 182.25 C 166.10 182.33 166.90 181.65 166.98 180.73 L 167.07 179.71 C 167.14 178.79 166.46 177.98 165.54 177.91 C 164.63 177.83 163.82 178.51 163.74 179.43 Z M 163.67 180.43 L 163.54 181.67 C 163.45 182.58 164.12 183.40 165.03 183.49 C 165.95 183.58 166.76 182.91 166.85 182.00 L 166.97 180.76 C 167.06 179.84 166.40 179.03 165.48 178.94 C 164.57 178.85 163.76 179.52 163.67 180.43 Z M 163.55 181.64 L 163.44 182.60 C 163.33 183.51 163.98 184.33 164.89 184.44 C 165.79 184.55 166.62 183.90 166.72 182.99 L 166.84 182.03 C 166.95 181.12 166.30 180.30 165.39 180.19 C 164.49 180.08 163.66 180.73 163.55 181.64 Z M 166.45 181.96 L 166.40 181.87 C 165.93 181.12 164.95 180.88 164.19 181.34 C 163.44 181.81 163.20 182.79 163.66 183.55 L 163.71 183.64 C 164.18 184.39 165.16 184.63 165.92 184.17 C 166.67 183.70 166.91 182.72 166.45 181.96 Z M 166.54 182.75 L 166.56 181.90 C 166.59 181.07 165.93 180.37 165.09 180.35 C 164.26 180.33 163.56 180.99 163.54 181.82 L 163.52 182.67 C 163.50 183.50 164.15 184.20 164.99 184.22 C 165.82 184.24 166.52 183.59 166.54 182.75 Z"
      fill="black"
      fill-rule="nonzero" /></svg>