<svg xmlns="http://www.w3.org/2000/svg" width="300" height="300" viewBox="0 0 300 300">
<path d="M 140.35 136.10 L 141.13 135.61 C 141.82 135.17 142.03 134.25 141.59 133.56 C 141.15 132.87 140.23 132.66 139.54 133.10 L 138.76 133.59 C 138.06 134.03 137.86 134.95 138.30 135.64 C 138.74 136.34 139.65 136.54 140.35 136.10 Z M 139.16 133.41 L 138.70 133.99 C 138.18 134.64 138.28 135.59 138.93 136.11 C 139.58 136.62 140.53 136.52 141.05 135.87 L 141.51 135.29 C 142.03 134.65 141.92 133.70 141.27 133.18 C 140.63 132.66 139.68 132.77 139.16 133.41 Z M 138.76 133.94 L 137.95 134.85 C 137.40 135.46 137.45 136.41 138.07 136.96 C 138.68 137.51 139.63 137.45 140.18 136.84 L 140.99 135.93 C 141.54 135.31 141.48 134.37 140.87 133.82 C 140.25 133.27 139.31 133.32 138.76 133.94 Z M 137.93 134.87 L 137.29 135.61 C 136.75 136.24 136.82 137.18 137.44 137.71 C 138.06 138.25 139.00 138.18 139.54 137.56 L 140.19 136.82 C 140.72 136.19 140.66 135.25 140.03 134.72 C 139.41 134.18 138.47 134.25 137.93 134.87 Z M 137.27 135.63 L 136.62 136.41 C 136.10 137.04 136.18 137.98 136.81 138.51 C 137.44 139.03 138.38 138.95 138.91 138.32 L 139.56 137.54 C 140.08 136.91 140.00 135.97 139.37 135.45 C 138.74 134.92 137.80 135.00 137.27 135.63 Z M 136.61 136.42 L 136.06 137.10 C 135.54 137.74 135.63 138.67 136.27 139.19 C 136.91 139.71 137.84 139.62 138.36 138.98 L 138.92 138.31 C 139.44 137.67 139.34 136.73 138.71 136.21 C 138.07 135.70 137.13 135.79 136.61 136.42 Z M 136.06 137.10 L 135.46 137.84 C 134.94 138.48 135.03 139.41 135.67 139.93 C 136.31 140.45 137.24 140.36 137.76 139.72 L 138.36 138.98 C 138.88 138.34 138.79 137.41 138.15 136.89 C 137.51 136.37 136.58 136.47 136.06 137.10 Z M 135.46 137.84 L 134.74 138.72 C 134.22 139.35 134.31 140.29 134.94 140.81 C 135.57 141.33 136.51 141.24 137.03 140.61 L 137.76 139.73 C 138.28 139.09 138.19 138.15 137.55 137.63 C 136.92 137.11 135.98 137.20 135.46 137.84 Z M 134.74 138.71 L 134.08 139.50 C 133.56 140.13 133.64 141.07 134.27 141.59 C 134.90 142.12 135.84 142.03 136.36 141.40 L 137.03 140.61 C 137.55 139.98 137.47 139.05 136.84 138.52 C 136.21 137.99 135.27 138.08 134.74 138.71 Z M 134.09 139.50 L 133.41 140.30 C 132.88 140.93 132.96 141.87 133.59 142.40 C 134.21 142.93 135.15 142.85 135.68 142.22 L 136.36 141.41 C 136.89 140.78 136.81 139.84 136.18 139.31 C 135.55 138.79 134.61 138.87 134.09 139.50 Z M 133.41 140.30 L 132.73 141.10 C 132.20 141.73 132.28 142.67 132.91 143.20 C 133.54 143.73 134.48 143.65 135.01 143.02 L 135.68 142.22 C 136.21 141.59 136.13 140.65 135.50 140.12 C 134.87 139.60 133.94 139.68 133.41 140.30 Z M 132.73 141.11 L 132.12 141.83 C 131.59 142.46 131.67 143.40 132.30 143.93 C 132.93 144.46 133.87 144.37 134.40 143.75 L 135.01 143.02 C 135.53 142.39 135.45 141.45 134.82 140.92 C 134.20 140.40 133.26 140.48 132.73 141.11 Z M 132.10 141.86 L 131.29 142.86 C 130.78 143.50 130.88 144.43 131.52 144.95 C 132.15 145.46 133.09 145.36 133.60 144.72 L 134.41 143.72 C 134.93 143.08 134.83 142.15 134.19 141.63 C 133.55 141.12 132.62 141.22 132.10 141.86 Z M 131.07 143.25 L 130.81 143.90 C 130.52 144.66 130.89 145.52 131.66 145.82 C 132.42 146.12 133.28 145.74 133.58 144.98 L 133.83 144.33 C 134.13 143.57 133.75 142.71 132.99 142.41 C 132.23 142.11 131.36 142.49 131.07 143.25 Z M 131.66 145.82 L 132.31 146.07 C 133.07 146.37 133.93 145.99 134.23 145.23 C 134.52 144.47 134.15 143.61 133.39 143.31 L 132.73 143.06 C 131.97 142.76 131.11 143.14 130.82 143.90 C 130.52 144.66 130.90 145.52 131.66 145.82 Z M 132.84 146.17 L 134.02 146.17 C 134.83 146.17 135.49 145.51 135.50 144.70 C 135.50 143.89 134.84 143.22 134.03 143.22 L 132.85 143.22 C 132.04 143.21 131.37 143.87 131.37 144.69 C 131.37 145.50 132.03 146.16 132.84 146.17 Z M 134.14 146.16 L 135.12 146.09 C 135.93 146.02 136.54 145.32 136.48 144.51 C 136.42 143.70 135.71 143.09 134.90 143.15 L 133.91 143.23 C 133.10 143.29 132.49 144.00 132.55 144.81 C 132.62 145.62 133.32 146.23 134.14 146.16 Z M 135.19 146.08 L 136.19 145.96 C 136.99 145.87 137.57 145.13 137.47 144.33 C 137.38 143.52 136.65 142.94 135.84 143.04 L 134.84 143.16 C 134.03 143.25 133.45 143.99 133.55 144.79 C 133.65 145.60 134.38 146.18 135.19 146.08 Z M 136.23 145.96 L 137.24 145.81 C 138.04 145.69 138.59 144.94 138.47 144.13 C 138.35 143.33 137.60 142.77 136.80 142.89 L 135.79 143.04 C 134.99 143.16 134.44 143.91 134.56 144.72 C 134.68 145.52 135.43 146.08 136.23 145.96 Z M 137.27 145.80 L 138.26 145.63 C 139.06 145.48 139.59 144.72 139.45 143.92 C 139.31 143.12 138.55 142.59 137.75 142.73 L 136.76 142.90 C 135.96 143.04 135.43 143.80 135.57 144.60 C 135.71 145.41 136.47 145.94 137.27 145.80 Z M 138.30 145.62 L 139.28 145.42 C 140.08 145.25 140.59 144.48 140.43 143.68 C 140.27 142.89 139.49 142.37 138.70 142.53 L 137.71 142.73 C 136.91 142.90 136.40 143.67 136.56 144.47 C 136.72 145.27 137.50 145.78 138.30 145.62 Z M 139.31 145.41 L 140.28 145.19 C 141.08 145.01 141.58 144.23 141.40 143.44 C 141.22 142.64 140.43 142.14 139.64 142.32 L 138.67 142.54 C 137.88 142.72 137.38 143.50 137.56 144.30 C 137.73 145.09 138.52 145.59 139.31 145.41 Z M 140.29 145.19 L 141.22 144.98 C 142.02 144.80 142.51 144.01 142.33 143.22 C 142.15 142.43 141.37 141.93 140.58 142.11 L 139.64 142.32 C 138.85 142.50 138.35 143.29 138.53 144.08 C 138.71 144.87 139.50 145.37 140.29 145.19 Z M 141.23 144.97 L 142.19 144.75 C 142.98 144.57 143.47 143.78 143.29 142.99 C 143.10 142.20 142.31 141.71 141.52 141.89 L 140.57 142.12 C 139.78 142.30 139.29 143.09 139.47 143.88 C 139.66 144.67 140.45 145.16 141.23 144.97 Z M 142.24 144.74 L 143.35 144.44 C 144.13 144.22 144.59 143.42 144.38 142.64 C 144.17 141.86 143.37 141.40 142.59 141.61 L 141.48 141.91 C 140.70 142.12 140.23 142.92 140.44 143.70 C 140.66 144.48 141.46 144.95 142.24 144.74 Z M 143.31 144.44 L 144.33 144.20 C 145.12 144.01 145.60 143.22 145.41 142.43 C 145.22 141.65 144.43 141.17 143.65 141.35 L 142.63 141.60 C 141.84 141.79 141.36 142.58 141.55 143.36 C 141.74 144.15 142.53 144.63 143.31 144.44 Z M 142.65 143.34 L 142.78 143.65 C 143.09 144.39 143.95 144.74 144.69 144.42 C 145.43 144.11 145.78 143.26 145.46 142.51 L 145.33 142.21 C 145.02 141.47 144.16 141.12 143.42 141.43 C 142.68 141.75 142.33 142.60 142.65 143.34 Z M 143.06 142.08 L 142.26 142.94 C 141.71 143.52 141.73 144.44 142.32 144.99 C 142.90 145.54 143.82 145.52 144.37 144.93 L 145.18 144.08 C 145.73 143.50 145.70 142.58 145.12 142.02 C 144.53 141.47 143.61 141.50 143.06 142.08 Z M 142.25 142.94 L 141.57 143.67 C 141.02 144.26 141.05 145.18 141.64 145.73 C 142.23 146.28 143.15 146.25 143.70 145.66 L 144.38 144.93 C 144.93 144.34 144.90 143.42 144.31 142.87 C 143.72 142.32 142.80 142.35 142.25 142.94 Z M 141.58 143.66 L 140.88 144.39 C 140.32 144.97 140.34 145.90 140.93 146.46 C 141.51 147.01 142.44 146.99 143.00 146.40 L 143.69 145.67 C 144.25 145.09 144.23 144.16 143.64 143.60 C 143.06 143.05 142.13 143.07 141.58 143.66 Z M 140.90 144.36 L 140.19 145.07 C 139.62 145.65 139.62 146.57 140.20 147.15 C 140.77 147.72 141.70 147.71 142.27 147.14 L 142.98 146.43 C 143.55 145.86 143.55 144.93 142.97 144.36 C 142.40 143.79 141.47 143.79 140.90 144.36 Z M 140.20 145.05 L 139.51 145.73 C 138.93 146.30 138.92 147.23 139.49 147.81 C 140.06 148.39 140.99 148.40 141.57 147.83 L 142.26 147.16 C 142.84 146.59 142.85 145.66 142.28 145.08 C 141.72 144.50 140.78 144.49 140.20 145.05 Z M 139.52 145.72 L 138.83 146.38 C 138.24 146.95 138.22 147.88 138.79 148.47 C 139.35 149.05 140.28 149.07 140.87 148.51 L 141.56 147.84 C 142.15 147.28 142.17 146.35 141.60 145.76 C 141.04 145.17 140.11 145.16 139.52 145.72 Z M 138.83 146.37 L 138.02 147.14 C 137.43 147.70 137.41 148.64 137.97 149.23 C 138.54 149.82 139.47 149.84 140.06 149.28 L 140.87 148.51 C 141.46 147.95 141.48 147.02 140.92 146.43 C 140.36 145.83 139.42 145.81 138.83 146.37 Z M 137.99 147.17 L 137.15 148.01 C 136.58 148.60 136.58 149.53 137.17 150.11 C 137.75 150.69 138.69 150.68 139.26 150.10 L 140.10 149.25 C 140.67 148.67 140.67 147.73 140.09 147.16 C 139.50 146.58 138.57 146.59 137.99 147.17 Z M 136.94 148.28 L 136.53 148.94 C 136.10 149.64 136.32 150.56 137.02 150.99 C 137.72 151.42 138.64 151.20 139.07 150.50 L 139.47 149.83 C 139.90 149.13 139.69 148.22 138.99 147.79 C 138.29 147.36 137.37 147.58 136.94 148.28 Z M 137.19 151.08 L 137.77 151.34 C 138.52 151.68 139.40 151.34 139.74 150.59 C 140.08 149.84 139.74 148.96 138.99 148.62 L 138.41 148.36 C 137.66 148.03 136.78 148.36 136.44 149.11 C 136.10 149.86 136.44 150.74 137.19 151.08 Z M 138.53 151.46 L 139.73 151.34 C 140.55 151.26 141.15 150.53 141.07 149.71 C 140.98 148.89 140.25 148.30 139.44 148.38 L 138.23 148.50 C 137.42 148.58 136.82 149.31 136.90 150.13 C 136.98 150.95 137.71 151.55 138.53 151.46 Z M 139.84 151.32 L 140.86 151.15 C 141.66 151.01 142.21 150.24 142.07 149.43 C 141.93 148.63 141.16 148.08 140.35 148.22 L 139.33 148.40 C 138.53 148.54 137.98 149.30 138.12 150.11 C 138.26 150.92 139.03 151.46 139.84 151.32 Z M 140.90 151.14 L 141.83 150.95 C 142.63 150.78 143.15 150.00 142.99 149.20 C 142.83 148.40 142.05 147.88 141.25 148.05 L 140.31 148.24 C 139.51 148.40 138.99 149.18 139.15 149.98 C 139.32 150.78 140.10 151.30 140.90 151.14 Z M 141.84 150.93 L 142.83 150.73 C 143.63 150.56 144.13 149.78 143.97 148.98 C 143.80 148.19 143.02 147.68 142.22 147.85 L 141.24 148.06 C 140.44 148.23 139.93 149.01 140.10 149.80 C 140.27 150.60 141.05 151.10 141.84 150.93 Z M 142.80 150.72 L 143.77 150.53 C 144.56 150.38 145.08 149.62 144.93 148.83 C 144.78 148.04 144.02 147.52 143.22 147.67 L 142.25 147.85 C 141.46 148.01 140.94 148.77 141.09 149.56 C 141.24 150.35 142.01 150.87 142.80 150.72 Z M 143.72 150.53 L 144.71 150.38 C 145.50 150.26 146.04 149.52 145.92 148.73 C 145.79 147.94 145.05 147.40 144.26 147.52 L 143.28 147.67 C 142.49 147.79 141.95 148.53 142.07 149.32 C 142.19 150.11 142.93 150.65 143.72 150.53 Z M 144.68 150.37 L 145.34 150.28 C 146.13 150.17 146.68 149.45 146.57 148.66 C 146.46 147.87 145.73 147.33 144.95 147.43 L 144.29 147.53 C 143.50 147.64 142.95 148.36 143.06 149.15 C 143.17 149.93 143.90 150.48 144.68 150.37 Z"
      fill="black"
      fill-rule="nonzero" /><path d="M 126.14 153.32 L 126.39 154.27 C 126.60 155.06 127.41 155.52 128.19 155.31 C 128.97 155.10 129.43 154.30 129.22 153.51 L 128.97 152.56 C 128.76 151.78 127.96 151.32 127.17 151.53 C 126.39 151.74 125.93 152.54 126.14 153.32 Z M 126.41 154.39 L 126.73 155.30 C 127.01 156.07 127.85 156.48 128.62 156.20 C 129.40 155.93 129.80 155.08 129.53 154.31 L 129.20 153.40 C 128.93 152.63 128.09 152.22 127.31 152.50 C 126.54 152.77 126.14 153.62 126.41 154.39 Z M 126.78 155.42 L 127.17 156.28 C 127.51 157.02 128.39 157.35 129.14 157.01 C 129.88 156.67 130.21 155.79 129.87 155.04 L 129.48 154.19 C 129.14 153.44 128.26 153.11 127.51 153.45 C 126.77 153.79 126.44 154.67 126.78 155.42 Z M 127.19 156.32 L 127.67 157.28 C 128.03 158.02 128.92 158.32 129.65 157.96 C 130.39 157.59 130.69 156.70 130.33 155.97 L 129.85 155.00 C 129.49 154.27 128.60 153.97 127.86 154.33 C 127.13 154.69 126.83 155.58 127.19 156.32 Z M 127.67 157.29 L 128.09 158.12 C 128.45 158.85 129.34 159.15 130.07 158.78 C 130.80 158.42 131.10 157.53 130.74 156.80 L 130.32 155.97 C 129.96 155.24 129.07 154.94 128.34 155.30 C 127.61 155.67 127.31 156.56 127.67 157.29 Z M 128.10 158.12 L 128.56 159.04 C 128.92 159.77 129.81 160.06 130.54 159.69 C 131.26 159.33 131.56 158.44 131.19 157.71 L 130.73 156.80 C 130.36 156.07 129.48 155.78 128.75 156.14 C 128.02 156.51 127.73 157.40 128.10 158.12 Z M 128.56 159.05 L 129.05 160.00 C 129.42 160.73 130.31 161.01 131.03 160.64 C 131.76 160.27 132.04 159.39 131.67 158.66 L 131.18 157.71 C 130.81 156.98 129.93 156.70 129.21 157.07 C 128.48 157.44 128.20 158.32 128.56 159.05 Z M 129.07 160.01 L 129.54 160.91 C 129.91 161.63 130.79 161.91 131.51 161.53 C 132.23 161.16 132.50 160.27 132.13 159.56 L 131.66 158.66 C 131.29 157.94 130.40 157.66 129.69 158.04 C 128.97 158.41 128.69 159.29 129.07 160.01 Z M 129.55 160.92 L 130.03 161.81 C 130.41 162.52 131.29 162.79 132.00 162.41 C 132.70 162.03 132.97 161.15 132.59 160.44 L 132.12 159.55 C 131.74 158.84 130.86 158.57 130.15 158.95 C 129.44 159.33 129.17 160.21 129.55 160.92 Z M 130.04 161.82 L 130.52 162.69 C 130.91 163.39 131.78 163.64 132.48 163.25 C 133.18 162.87 133.44 161.99 133.05 161.29 L 132.57 160.43 C 132.19 159.73 131.31 159.47 130.61 159.86 C 129.91 160.24 129.66 161.12 130.04 161.82 Z M 130.54 162.70 L 131.04 163.58 C 131.43 164.27 132.31 164.51 133.00 164.11 C 133.69 163.72 133.93 162.84 133.54 162.15 L 133.03 161.27 C 132.64 160.58 131.76 160.35 131.07 160.74 C 130.38 161.14 130.14 162.01 130.54 162.70 Z M 131.06 163.60 L 131.57 164.46 C 131.97 165.14 132.85 165.37 133.53 164.96 C 134.21 164.56 134.44 163.68 134.03 163.00 L 133.52 162.13 C 133.12 161.45 132.24 161.23 131.56 161.63 C 130.88 162.04 130.65 162.92 131.06 163.60 Z M 131.58 164.47 L 132.09 165.31 C 132.50 165.99 133.38 166.20 134.05 165.79 C 134.73 165.38 134.94 164.50 134.53 163.83 L 134.02 162.99 C 133.61 162.31 132.73 162.10 132.06 162.51 C 131.38 162.92 131.17 163.80 131.58 164.47 Z M 132.09 165.31 L 132.33 165.70 C 132.74 166.37 133.62 166.58 134.29 166.17 C 134.96 165.76 135.17 164.88 134.76 164.21 L 134.53 163.83 C 134.12 163.15 133.24 162.94 132.57 163.35 C 131.89 163.76 131.68 164.64 132.09 165.31 Z"
      fill="black"
      fill-rule="nonzero" /><path d="M 134.84 156.30 L 135.21 157.26 C 135.49 158.00 136.32 158.37 137.06 158.09 C 137.80 157.81 138.17 156.98 137.89 156.24 L 137.53 155.28 C 137.25 154.54 136.42 154.17 135.68 154.45 C 134.94 154.73 134.56 155.55 134.84 156.30 Z M 135.20 157.29 L 135.56 158.21 C 135.86 158.96 136.71 159.32 137.45 159.02 C 138.20 158.73 138.56 157.88 138.27 157.13 L 137.90 156.21 C 137.60 155.47 136.76 155.10 136.01 155.40 C 135.27 155.69 134.90 156.54 135.20 157.29 Z M 135.57 158.27 L 135.98 159.18 C 136.31 159.92 137.17 160.25 137.92 159.92 C 138.66 159.60 138.99 158.73 138.66 157.99 L 138.26 157.08 C 137.93 156.34 137.06 156.00 136.32 156.33 C 135.58 156.66 135.25 157.53 135.57 158.27 Z M 136.01 159.25 L 136.46 160.13 C 136.83 160.85 137.71 161.14 138.43 160.77 C 139.16 160.41 139.45 159.52 139.08 158.80 L 138.63 157.92 C 138.26 157.19 137.38 156.90 136.65 157.27 C 135.93 157.64 135.64 158.53 136.01 159.25 Z M 136.49 160.19 L 136.97 161.03 C 137.37 161.74 138.27 161.98 138.97 161.58 C 139.68 161.18 139.92 160.29 139.52 159.58 L 139.04 158.74 C 138.64 158.04 137.75 157.79 137.04 158.19 C 136.34 158.59 136.09 159.48 136.49 160.19 Z M 137.00 161.06 L 137.51 161.91 C 137.92 162.60 138.82 162.82 139.51 162.41 C 140.20 161.99 140.42 161.10 140.01 160.41 L 139.50 159.56 C 139.08 158.87 138.19 158.64 137.50 159.06 C 136.81 159.47 136.58 160.37 137.00 161.06 Z M 137.52 161.90 L 138.05 162.78 C 138.46 163.46 139.35 163.68 140.04 163.27 C 140.72 162.86 140.94 161.97 140.52 161.29 L 139.99 160.41 C 139.58 159.73 138.69 159.51 138.01 159.92 C 137.33 160.33 137.11 161.22 137.52 161.90 Z M 138.05 162.77 L 138.56 163.62 C 138.96 164.30 139.84 164.52 140.52 164.12 C 141.21 163.71 141.43 162.83 141.03 162.15 L 140.52 161.30 C 140.12 160.62 139.24 160.39 138.56 160.80 C 137.87 161.20 137.65 162.08 138.05 162.77 Z M 138.56 163.61 L 139.07 164.48 C 139.47 165.16 140.35 165.39 141.03 164.99 C 141.71 164.59 141.94 163.72 141.54 163.04 L 141.03 162.16 C 140.63 161.48 139.75 161.25 139.07 161.65 C 138.39 162.05 138.16 162.92 138.56 163.61 Z M 139.07 164.48 L 139.23 164.75 C 139.63 165.44 140.50 165.66 141.18 165.27 C 141.87 164.87 142.09 164.00 141.70 163.32 L 141.54 163.04 C 141.14 162.36 140.27 162.13 139.59 162.53 C 138.90 162.92 138.68 163.80 139.07 164.48 Z"
      fill="black"
      fill-rule="nonzero" /><path d="M 143.78 154.88 L 143.40 155.79 C 143.09 156.54 143.45 157.41 144.21 157.72 C 144.96 158.03 145.83 157.67 146.14 156.92 L 146.51 156.01 C 146.82 155.26 146.46 154.39 145.71 154.08 C 144.96 153.77 144.09 154.13 143.78 154.88 Z M 143.31 156.12 L 143.17 157.05 C 143.04 157.85 143.59 158.61 144.40 158.74 C 145.20 158.86 145.96 158.31 146.09 157.50 L 146.23 156.58 C 146.36 155.77 145.81 155.02 145.00 154.89 C 144.19 154.76 143.44 155.32 143.31 156.12 Z M 143.16 157.44 L 143.26 158.37 C 143.35 159.18 144.08 159.77 144.89 159.68 C 145.70 159.59 146.29 158.86 146.20 158.05 L 146.10 157.11 C 146.01 156.30 145.28 155.72 144.46 155.81 C 143.65 155.90 143.07 156.63 143.16 157.44 Z M 143.31 158.61 L 143.61 159.68 C 143.83 160.47 144.64 160.93 145.43 160.71 C 146.21 160.49 146.67 159.67 146.45 158.89 L 146.15 157.81 C 145.93 157.03 145.12 156.57 144.33 156.79 C 143.55 157.01 143.09 157.82 143.31 158.61 Z M 143.65 159.79 L 143.99 160.73 C 144.27 161.50 145.12 161.89 145.88 161.61 C 146.65 161.33 147.04 160.48 146.76 159.72 L 146.41 158.78 C 146.13 158.01 145.29 157.62 144.52 157.90 C 143.76 158.18 143.37 159.03 143.65 159.79 Z M 144.01 160.78 L 144.41 161.74 C 144.72 162.50 145.57 162.85 146.33 162.55 C 147.08 162.24 147.44 161.38 147.13 160.63 L 146.73 159.67 C 146.43 158.92 145.57 158.56 144.82 158.86 C 144.07 159.17 143.71 160.03 144.01 160.78 Z M 144.43 161.77 L 144.83 162.69 C 145.15 163.43 146.02 163.77 146.76 163.45 C 147.50 163.12 147.84 162.26 147.51 161.52 L 147.11 160.60 C 146.79 159.86 145.92 159.52 145.18 159.84 C 144.44 160.17 144.10 161.03 144.43 161.77 Z M 144.85 162.72 L 145.31 163.70 C 145.64 164.43 146.51 164.75 147.24 164.41 C 147.97 164.07 148.28 163.21 147.95 162.48 L 147.49 161.50 C 147.15 160.77 146.29 160.45 145.56 160.79 C 144.83 161.12 144.51 161.99 144.85 162.72 Z M 145.33 163.72 L 145.74 164.55 C 146.08 165.26 146.94 165.56 147.66 165.21 C 148.37 164.86 148.67 164.00 148.32 163.29 L 147.92 162.46 C 147.57 161.75 146.71 161.45 146.00 161.79 C 145.28 162.14 144.99 163.00 145.33 163.72 Z M 145.75 164.55 L 145.84 164.74 C 146.19 165.45 147.05 165.74 147.75 165.39 C 148.46 165.04 148.75 164.18 148.40 163.48 L 148.31 163.29 C 147.96 162.58 147.11 162.29 146.40 162.64 C 145.69 162.99 145.40 163.84 145.75 164.55 Z"
      fill="black"
      fill-rule="nonzero" /><path d="M 146.90 134.14 L 146.85 135.22 C 146.82 136.04 147.46 136.74 148.28 136.77 C 149.10 136.80 149.80 136.16 149.83 135.34 L 149.87 134.26 C 149.91 133.44 149.27 132.75 148.45 132.71 C 147.62 132.68 146.93 133.32 146.90 134.14 Z M 147.07 136.06 L 147.49 136.75 C 147.91 137.45 148.83 137.68 149.54 137.25 C 150.24 136.82 150.47 135.90 150.04 135.20 L 149.62 134.51 C 149.19 133.80 148.27 133.58 147.57 134.01 C 146.86 134.43 146.64 135.35 147.07 136.06 Z M 148.48 137.44 L 149.47 137.64 C 150.28 137.79 151.07 137.26 151.22 136.45 C 151.38 135.64 150.85 134.85 150.04 134.70 L 149.05 134.50 C 148.24 134.35 147.45 134.88 147.29 135.69 C 147.14 136.50 147.67 137.29 148.48 137.44 Z M 149.70 137.66 L 150.72 137.70 C 151.54 137.74 152.24 137.09 152.27 136.26 C 152.30 135.44 151.66 134.74 150.83 134.71 L 149.81 134.67 C 148.98 134.64 148.29 135.28 148.26 136.11 C 148.22 136.94 148.87 137.63 149.70 137.66 Z M 150.70 137.70 L 151.69 137.75 C 152.52 137.79 153.22 137.15 153.26 136.33 C 153.30 135.50 152.67 134.80 151.84 134.76 L 150.85 134.71 C 150.02 134.67 149.32 135.31 149.28 136.13 C 149.24 136.96 149.88 137.66 150.70 137.70 Z M 151.67 137.74 L 152.64 137.81 C 153.46 137.86 154.17 137.24 154.23 136.41 C 154.28 135.59 153.66 134.88 152.83 134.83 L 151.86 134.76 C 151.04 134.71 150.33 135.34 150.28 136.16 C 150.22 136.98 150.85 137.69 151.67 137.74 Z M 152.64 137.80 L 153.65 137.87 C 154.47 137.93 155.18 137.31 155.24 136.49 C 155.29 135.67 154.67 134.96 153.85 134.90 L 152.84 134.83 C 152.02 134.78 151.31 135.40 151.25 136.22 C 151.20 137.04 151.82 137.75 152.64 137.80 Z M 153.66 137.86 L 154.59 137.92 C 155.41 137.97 156.11 137.35 156.16 136.54 C 156.21 135.72 155.59 135.02 154.77 134.97 L 153.85 134.91 C 153.03 134.86 152.33 135.48 152.27 136.29 C 152.22 137.11 152.84 137.81 153.66 137.86 Z M 154.59 137.91 L 155.65 137.98 C 156.47 138.03 157.16 137.41 157.21 136.60 C 157.26 135.78 156.64 135.09 155.83 135.04 L 154.77 134.97 C 153.96 134.93 153.26 135.54 153.21 136.36 C 153.16 137.17 153.78 137.87 154.59 137.91 Z M 155.66 137.97 L 156.63 138.03 C 157.44 138.08 158.13 137.46 158.18 136.65 C 158.23 135.85 157.61 135.15 156.80 135.10 L 155.83 135.05 C 155.02 135.00 154.33 135.61 154.28 136.42 C 154.23 137.23 154.85 137.92 155.66 137.97 Z M 156.63 138.02 L 157.64 138.08 C 158.44 138.13 159.13 137.52 159.18 136.72 C 159.23 135.92 158.62 135.23 157.82 135.18 L 156.81 135.11 C 156.01 135.06 155.32 135.67 155.27 136.48 C 155.22 137.28 155.82 137.97 156.63 138.02 Z M 157.63 138.07 L 158.66 138.14 C 159.46 138.20 160.15 137.60 160.20 136.80 C 160.26 136.00 159.65 135.31 158.86 135.26 L 157.83 135.19 C 157.03 135.13 156.34 135.73 156.29 136.53 C 156.23 137.33 156.83 138.02 157.63 138.07 Z M 158.64 138.13 L 159.68 138.22 C 160.47 138.28 161.16 137.69 161.23 136.90 C 161.29 136.11 160.70 135.41 159.91 135.35 L 158.87 135.27 C 158.08 135.20 157.39 135.79 157.32 136.59 C 157.26 137.38 157.85 138.07 158.64 138.13 Z M 159.66 138.21 L 160.66 138.30 C 161.44 138.37 162.14 137.79 162.21 137.00 C 162.28 136.21 161.70 135.52 160.91 135.45 L 159.92 135.36 C 159.13 135.28 158.43 135.87 158.36 136.65 C 158.29 137.44 158.87 138.14 159.66 138.21 Z M 160.65 138.30 L 161.61 138.39 C 162.40 138.46 163.10 137.89 163.17 137.10 C 163.25 136.32 162.67 135.62 161.89 135.54 L 160.92 135.45 C 160.14 135.38 159.44 135.95 159.36 136.74 C 159.29 137.52 159.86 138.22 160.65 138.30 Z M 161.61 138.39 L 161.69 138.39 C 162.47 138.47 163.17 137.90 163.24 137.11 C 163.32 136.33 162.75 135.63 161.96 135.55 L 161.89 135.55 C 161.11 135.47 160.41 136.04 160.33 136.83 C 160.26 137.61 160.83 138.31 161.61 138.39 Z"
      fill="black"
      fill-rule="nonzero" /><path d="M 148.79 140.73 L 148.31 141.60 C 147.90 142.32 148.17 143.24 148.89 143.64 C 149.61 144.04 150.53 143.78 150.93 143.05 L 151.41 142.18 C 151.81 141.46 151.55 140.55 150.83 140.14 C 150.10 139.74 149.19 140.00 148.79 140.73 Z M 148.17 141.92 L 147.91 142.84 C 147.68 143.64 148.14 144.47 148.94 144.70 C 149.74 144.93 150.57 144.46 150.80 143.67 L 151.06 142.74 C 151.29 141.94 150.83 141.11 150.03 140.88 C 149.23 140.66 148.40 141.12 148.17 141.92 Z M 147.85 143.18 L 147.80 144.18 C 147.76 145.01 148.39 145.72 149.22 145.76 C 150.05 145.80 150.75 145.17 150.80 144.34 L 150.85 143.33 C 150.89 142.51 150.26 141.80 149.43 141.76 C 148.60 141.71 147.90 142.35 147.85 143.18 Z M 147.80 144.26 L 147.80 145.28 C 147.80 146.11 148.47 146.78 149.30 146.78 C 150.13 146.78 150.80 146.11 150.80 145.28 L 150.80 144.26 C 150.80 143.43 150.13 142.76 149.30 142.76 C 148.47 142.76 147.80 143.43 147.80 144.26 Z M 147.80 145.30 L 147.82 146.31 C 147.83 147.14 148.51 147.80 149.34 147.79 C 150.16 147.78 150.83 147.10 150.81 146.27 L 150.80 145.26 C 150.79 144.43 150.11 143.77 149.28 143.78 C 148.45 143.80 147.79 144.48 147.80 145.30 Z M 147.82 146.36 L 147.87 147.39 C 147.91 148.22 148.61 148.85 149.44 148.81 C 150.26 148.77 150.90 148.07 150.86 147.25 L 150.81 146.22 C 150.77 145.39 150.07 144.76 149.24 144.80 C 148.42 144.84 147.78 145.54 147.82 146.36 Z M 147.88 147.46 L 147.97 148.42 C 148.05 149.24 148.78 149.85 149.60 149.77 C 150.42 149.69 151.02 148.96 150.94 148.14 L 150.85 147.18 C 150.77 146.35 150.04 145.75 149.22 145.83 C 148.40 145.91 147.80 146.64 147.88 147.46 Z M 148.01 148.60 L 148.23 149.60 C 148.41 150.40 149.20 150.90 150.00 150.72 C 150.80 150.54 151.30 149.75 151.13 148.95 L 150.90 147.96 C 150.73 147.16 149.93 146.65 149.14 146.83 C 148.34 147.01 147.83 147.80 148.01 148.60 Z M 148.57 150.24 L 149.17 150.93 C 149.70 151.54 150.63 151.60 151.25 151.06 C 151.86 150.53 151.92 149.60 151.38 148.99 L 150.79 148.30 C 150.25 147.69 149.32 147.63 148.71 148.17 C 148.10 148.70 148.03 149.63 148.57 150.24 Z M 149.76 151.33 L 150.71 151.69 C 151.47 151.97 152.32 151.59 152.61 150.83 C 152.89 150.07 152.51 149.23 151.75 148.94 L 150.79 148.58 C 150.03 148.30 149.19 148.68 148.90 149.44 C 148.62 150.20 149.00 151.05 149.76 151.33 Z M 151.00 151.76 L 152.01 151.92 C 152.81 152.05 153.56 151.51 153.69 150.71 C 153.82 149.91 153.27 149.16 152.47 149.03 L 151.46 148.87 C 150.66 148.74 149.91 149.28 149.78 150.08 C 149.66 150.88 150.20 151.63 151.00 151.76 Z M 152.15 151.93 L 153.14 152.00 C 153.95 152.05 154.64 151.44 154.70 150.64 C 154.75 149.83 154.14 149.14 153.34 149.09 L 152.34 149.02 C 151.53 148.97 150.84 149.58 150.79 150.38 C 150.73 151.19 151.34 151.88 152.15 151.93 Z M 153.21 152.00 L 154.21 152.02 C 155.02 152.03 155.68 151.39 155.70 150.59 C 155.71 149.79 155.07 149.12 154.27 149.11 L 153.27 149.09 C 152.46 149.07 151.80 149.71 151.78 150.51 C 151.77 151.32 152.41 151.98 153.21 152.00 Z M 154.27 152.02 L 155.26 152.00 C 156.07 151.98 156.70 151.32 156.69 150.51 C 156.67 149.71 156.01 149.07 155.21 149.09 L 154.21 149.11 C 153.41 149.12 152.77 149.79 152.79 150.59 C 152.80 151.39 153.47 152.03 154.27 152.02 Z M 155.32 151.99 L 156.32 151.94 C 157.12 151.89 157.73 151.21 157.68 150.40 C 157.64 149.60 156.95 148.99 156.15 149.04 L 155.15 149.09 C 154.35 149.14 153.74 149.82 153.79 150.63 C 153.83 151.43 154.52 152.04 155.32 151.99 Z M 156.38 151.93 L 157.38 151.83 C 158.18 151.75 158.76 151.04 158.68 150.25 C 158.60 149.45 157.90 148.87 157.10 148.95 L 156.09 149.05 C 155.30 149.12 154.72 149.83 154.79 150.63 C 154.87 151.42 155.58 152.01 156.38 151.93 Z M 157.44 151.82 L 158.43 151.69 C 159.23 151.58 159.78 150.85 159.67 150.06 C 159.56 149.26 158.83 148.71 158.04 148.82 L 157.04 148.95 C 156.25 149.06 155.70 149.79 155.81 150.58 C 155.91 151.38 156.64 151.93 157.44 151.82 Z M 158.44 151.69 L 159.35 151.56 C 160.14 151.45 160.69 150.72 160.58 149.92 C 160.47 149.13 159.73 148.57 158.94 148.69 L 158.03 148.81 C 157.24 148.93 156.69 149.66 156.80 150.45 C 156.91 151.25 157.65 151.80 158.44 151.69 Z M 159.29 151.57 L 160.27 151.47 C 161.07 151.39 161.65 150.67 161.56 149.87 C 161.48 149.07 160.76 148.49 159.96 148.58 L 158.99 148.68 C 158.19 148.76 157.61 149.48 157.70 150.28 C 157.78 151.08 158.50 151.66 159.29 151.57 Z M 160.21 151.48 L 161.27 151.41 C 162.08 151.36 162.69 150.67 162.64 149.86 C 162.58 149.06 161.89 148.45 161.09 148.50 L 160.02 148.57 C 159.22 148.62 158.61 149.31 158.66 150.12 C 158.71 150.92 159.40 151.53 160.21 151.48 Z M 161.21 151.42 L 162.25 151.40 C 163.06 151.39 163.70 150.72 163.69 149.91 C 163.67 149.10 163.00 148.46 162.20 148.47 L 161.15 148.49 C 160.34 148.51 159.70 149.17 159.71 149.98 C 159.73 150.79 160.40 151.44 161.21 151.42 Z M 162.13 151.41 L 163.13 151.47 C 163.94 151.52 164.64 150.90 164.69 150.09 C 164.74 149.28 164.13 148.58 163.32 148.53 L 162.31 148.47 C 161.50 148.42 160.80 149.03 160.75 149.84 C 160.70 150.66 161.32 151.36 162.13 151.41 Z M 162.85 151.43 L 163.88 151.70 C 164.66 151.91 165.47 151.44 165.68 150.65 C 165.89 149.86 165.42 149.05 164.63 148.84 L 163.60 148.57 C 162.81 148.36 162.01 148.83 161.80 149.62 C 161.59 150.41 162.06 151.22 162.85 151.43 Z M 163.51 151.55 L 164.30 152.01 C 165.01 152.43 165.91 152.19 166.33 151.49 C 166.74 150.78 166.50 149.88 165.80 149.46 L 165.00 149.00 C 164.30 148.58 163.39 148.82 162.98 149.52 C 162.57 150.23 162.80 151.13 163.51 151.55 Z M 164.20 151.94 L 164.33 152.04 C 165.00 152.52 165.92 152.36 166.40 151.69 C 166.87 151.03 166.71 150.10 166.05 149.63 L 165.91 149.53 C 165.24 149.06 164.32 149.22 163.85 149.88 C 163.37 150.55 163.53 151.47 164.20 151.94 Z"
      fill="black"
      fill-rule="nonzero" /><path d="M 154.90 130.02 L 154.73 130.93 C 154.58 131.73 155.11 132.50 155.91 132.65 C 156.72 132.80 157.49 132.28 157.64 131.47 L 157.81 130.57 C 157.96 129.76 157.43 128.99 156.63 128.84 C 155.83 128.69 155.05 129.22 154.90 130.02 Z M 154.70 131.04 L 154.59 132.10 C 154.50 132.92 155.09 133.66 155.92 133.75 C 156.74 133.83 157.47 133.24 157.56 132.42 L 157.67 131.36 C 157.76 130.54 157.17 129.80 156.34 129.71 C 155.52 129.63 154.79 130.22 154.70 131.04 Z M 154.57 132.21 L 154.53 133.21 C 154.51 134.04 155.16 134.74 155.99 134.77 C 156.82 134.79 157.52 134.14 157.54 133.31 L 157.58 132.31 C 157.61 131.48 156.96 130.78 156.13 130.75 C 155.29 130.72 154.60 131.38 154.57 132.21 Z M 154.53 133.26 L 154.53 134.28 C 154.53 135.11 155.20 135.79 156.04 135.79 C 156.87 135.79 157.55 135.12 157.55 134.28 L 157.55 133.26 C 157.55 132.43 156.87 131.75 156.04 131.75 C 155.21 131.75 154.53 132.43 154.53 133.26 Z M 154.53 134.31 L 154.55 135.36 C 154.56 136.19 155.25 136.86 156.08 136.84 C 156.92 136.83 157.58 136.14 157.57 135.30 L 157.55 134.26 C 157.53 133.42 156.85 132.76 156.01 132.77 C 155.18 132.79 154.51 133.48 154.53 134.31 Z M 154.55 135.38 L 154.58 136.33 C 154.60 137.16 155.30 137.82 156.13 137.79 C 156.97 137.77 157.62 137.07 157.60 136.24 L 157.57 135.28 C 157.54 134.45 156.84 133.79 156.01 133.82 C 155.18 133.85 154.52 134.54 154.55 135.38 Z M 154.58 136.33 L 154.61 137.29 C 154.64 138.13 155.34 138.78 156.17 138.75 C 157.00 138.72 157.66 138.02 157.63 137.19 L 157.60 136.23 C 157.57 135.40 156.87 134.74 156.04 134.77 C 155.20 134.80 154.55 135.50 154.58 136.33 Z M 154.61 137.29 L 154.64 138.31 C 154.67 139.14 155.36 139.80 156.20 139.77 C 157.03 139.75 157.69 139.05 157.66 138.21 L 157.63 137.19 C 157.60 136.36 156.91 135.70 156.07 135.73 C 155.24 135.76 154.58 136.45 154.61 137.29 Z M 154.64 138.31 L 154.67 139.30 C 154.69 140.13 155.39 140.79 156.23 140.77 C 157.06 140.74 157.72 140.04 157.70 139.21 L 157.67 138.22 C 157.64 137.38 156.94 136.72 156.11 136.75 C 155.27 136.77 154.61 137.47 154.64 138.31 Z M 154.66 139.30 L 154.70 140.31 C 154.72 141.15 155.42 141.80 156.26 141.78 C 157.10 141.75 157.75 141.05 157.73 140.22 L 157.70 139.21 C 157.67 138.37 156.97 137.71 156.14 137.74 C 155.30 137.76 154.64 138.46 154.66 139.30 Z M 154.69 140.31 L 154.73 141.31 C 154.75 142.15 155.45 142.81 156.29 142.78 C 157.13 142.75 157.79 142.05 157.76 141.21 L 157.73 140.21 C 157.70 139.38 157.00 138.72 156.16 138.74 C 155.33 138.77 154.67 139.47 154.69 140.31 Z M 154.73 141.31 L 154.76 142.31 C 154.79 143.15 155.49 143.81 156.33 143.78 C 157.16 143.75 157.82 143.05 157.80 142.21 L 157.76 141.21 C 157.74 140.37 157.03 139.72 156.19 139.74 C 155.36 139.77 154.70 140.47 154.73 141.31 Z M 154.76 142.31 L 154.79 143.30 C 154.81 144.14 155.51 144.80 156.35 144.77 C 157.19 144.75 157.85 144.05 157.83 143.21 L 157.80 142.21 C 157.77 141.38 157.07 140.72 156.23 140.74 C 155.39 140.77 154.73 141.47 154.76 142.31 Z M 154.79 143.30 L 154.82 144.29 C 154.84 145.13 155.54 145.79 156.38 145.77 C 157.22 145.75 157.88 145.05 157.85 144.21 L 157.83 143.21 C 157.80 142.37 157.10 141.71 156.26 141.74 C 155.43 141.76 154.77 142.46 154.79 143.30 Z M 154.82 144.29 L 154.84 145.30 C 154.87 146.14 155.56 146.80 156.40 146.78 C 157.24 146.76 157.90 146.06 157.88 145.22 L 157.85 144.21 C 157.83 143.37 157.13 142.71 156.29 142.73 C 155.46 142.75 154.79 143.45 154.82 144.29 Z M 154.84 145.30 L 154.87 146.30 C 154.89 147.14 155.59 147.80 156.43 147.78 C 157.27 147.76 157.93 147.06 157.91 146.22 L 157.88 145.22 C 157.86 144.38 157.16 143.72 156.32 143.75 C 155.48 143.77 154.82 144.46 154.84 145.30 Z M 154.87 146.30 L 154.90 147.31 C 154.92 148.14 155.62 148.80 156.46 148.78 C 157.29 148.76 157.96 148.06 157.93 147.22 L 157.91 146.22 C 157.88 145.38 157.18 144.72 156.35 144.74 C 155.51 144.77 154.85 145.46 154.87 146.30 Z M 154.90 147.31 L 154.93 148.31 C 154.95 149.15 155.65 149.81 156.49 149.78 C 157.33 149.76 157.98 149.06 157.96 148.22 L 157.93 147.22 C 157.91 146.38 157.21 145.72 156.37 145.75 C 155.53 145.77 154.87 146.47 154.90 147.31 Z M 154.93 148.31 L 154.95 149.30 C 154.98 150.14 155.67 150.80 156.51 150.78 C 157.35 150.76 158.01 150.06 157.99 149.22 L 157.96 148.23 C 157.94 147.39 157.24 146.73 156.40 146.75 C 155.57 146.77 154.91 147.47 154.93 148.31 Z M 154.95 149.29 L 154.97 150.28 C 154.98 151.12 155.67 151.78 156.51 151.77 C 157.35 151.76 158.02 151.07 158.00 150.23 L 157.99 149.24 C 157.97 148.40 157.28 147.73 156.44 147.75 C 155.61 147.76 154.94 148.45 154.95 149.29 Z M 154.97 150.26 L 154.98 151.25 C 154.98 152.09 155.67 152.76 156.50 152.76 C 157.34 152.75 158.01 152.07 158.01 151.23 L 158.00 150.24 C 158.00 149.41 157.31 148.73 156.48 148.74 C 155.64 148.74 154.96 149.43 154.97 150.26 Z M 154.98 151.24 L 154.98 152.26 C 154.98 153.10 155.66 153.78 156.50 153.78 C 157.33 153.78 158.01 153.10 158.01 152.26 L 158.01 151.24 C 158.01 150.40 157.33 149.72 156.49 149.73 C 155.65 149.73 154.98 150.41 154.98 151.24 Z M 154.98 152.26 L 154.98 153.28 C 154.98 154.12 155.66 154.79 156.49 154.79 C 157.33 154.79 158.01 154.12 158.01 153.28 L 158.01 152.26 C 158.01 151.42 157.33 150.74 156.49 150.74 C 155.66 150.74 154.98 151.42 154.98 152.26 Z M 154.98 153.28 L 154.98 154.29 C 154.98 155.12 155.66 155.80 156.49 155.80 C 157.33 155.80 158.01 155.12 158.01 154.29 L 158.01 153.28 C 158.01 152.44 157.33 151.76 156.49 151.76 C 155.66 151.76 154.98 152.44 154.98 153.28 Z M 154.98 154.29 L 154.98 155.30 C 154.98 156.13 155.66 156.81 156.49 156.81 C 157.33 156.81 158.01 156.13 158.01 155.30 L 158.01 154.29 C 158.01 153.45 157.33 152.77 156.49 152.77 C 155.66 152.77 154.98 153.45 154.98 154.29 Z M 154.98 155.30 L 154.98 156.31 C 154.98 157.15 155.66 157.83 156.49 157.83 C 157.33 157.83 158.01 157.15 158.01 156.31 L 158.01 155.30 C 158.01 154.46 157.33 153.78 156.49 153.78 C 155.66 153.78 154.98 154.46 154.98 155.30 Z M 154.98 156.31 L 154.98 157.27 C 154.98 158.11 155.66 158.79 156.49 158.79 C 157.33 158.79 158.01 158.11 158.01 157.27 L 158.01 156.31 C 158.01 155.47 157.33 154.79 156.49 154.79 C 155.66 154.79 154.98 155.47 154.98 156.31 Z M 154.98 157.27 L 154.98 158.29 C 154.98 159.13 155.66 159.81 156.49 159.81 C 157.33 159.81 158.01 159.13 158.01 158.29 L 158.01 157.27 C 158.01 156.44 157.33 155.76 156.49 155.76 C 155.66 155.76 154.98 156.44 154.98 157.27 Z M 154.98 158.29 L 154.98 159.22 C 154.98 160.06 155.66 160.74 156.49 160.74 C 157.33 160.74 158.01 160.06 158.01 159.22 L 158.01 158.29 C 158.01 157.45 157.33 156.77 156.49 156.77 C 155.66 156.77 154.98 157.45 154.98 158.29 Z M 154.98 159.23 L 154.99 160.15 C 154.99 160.99 155.68 161.66 156.51 161.65 C 157.35 161.64 158.02 160.96 158.02 160.12 L 158.01 159.21 C 158.00 158.37 157.32 157.70 156.48 157.71 C 155.64 157.71 154.97 158.40 154.98 159.23 Z M 154.99 160.18 L 155.02 161.28 C 155.04 162.12 155.74 162.78 156.57 162.76 C 157.41 162.73 158.07 162.04 158.05 161.20 L 158.02 160.09 C 157.99 159.26 157.30 158.60 156.46 158.62 C 155.62 158.64 154.96 159.34 154.99 160.18 Z M 155.02 161.31 L 155.06 162.31 C 155.10 163.15 155.81 163.79 156.65 163.76 C 157.48 163.72 158.13 163.01 158.09 162.17 L 158.05 161.17 C 158.01 160.34 157.30 159.69 156.46 159.73 C 155.63 159.76 154.98 160.47 155.02 161.31 Z M 155.06 162.34 L 155.13 163.39 C 155.19 164.23 155.91 164.86 156.75 164.80 C 157.58 164.75 158.22 164.02 158.16 163.19 L 158.09 162.14 C 158.04 161.30 157.31 160.67 156.48 160.73 C 155.64 160.78 155.01 161.50 155.06 162.34 Z M 155.14 163.45 L 155.24 164.44 C 155.33 165.27 156.08 165.88 156.91 165.79 C 157.74 165.70 158.35 164.96 158.26 164.12 L 158.16 163.13 C 158.07 162.30 157.32 161.69 156.49 161.78 C 155.66 161.87 155.05 162.61 155.14 163.45 Z M 155.27 164.62 L 155.52 165.73 C 155.71 166.55 156.52 167.06 157.34 166.87 C 158.15 166.69 158.67 165.88 158.48 165.06 L 158.23 163.95 C 158.05 163.13 157.23 162.62 156.42 162.80 C 155.60 162.99 155.09 163.80 155.27 164.62 Z M 155.75 166.24 L 156.20 166.91 C 156.66 167.60 157.61 167.79 158.30 167.32 C 158.99 166.85 159.18 165.91 158.71 165.21 L 158.26 164.55 C 157.79 163.85 156.85 163.67 156.15 164.14 C 155.46 164.61 155.28 165.55 155.75 166.24 Z M 156.85 167.45 L 157.72 167.82 C 158.49 168.15 159.38 167.80 159.71 167.04 C 160.04 166.27 159.69 165.38 158.92 165.05 L 158.05 164.68 C 157.29 164.34 156.40 164.70 156.07 165.46 C 155.73 166.23 156.09 167.12 156.85 167.45 Z M 158.04 167.92 L 159.07 168.11 C 159.88 168.26 160.67 167.72 160.82 166.91 C 160.98 166.09 160.44 165.30 159.62 165.15 L 158.60 164.96 C 157.78 164.81 156.99 165.34 156.84 166.16 C 156.69 166.98 157.23 167.76 158.04 167.92 Z M 159.12 168.11 L 160.12 168.27 C 160.94 168.40 161.71 167.83 161.84 167.01 C 161.96 166.19 161.40 165.42 160.58 165.30 L 159.57 165.14 C 158.75 165.02 157.99 165.58 157.86 166.40 C 157.73 167.22 158.30 167.99 159.12 168.11 Z M 160.17 168.28 L 161.17 168.40 C 161.99 168.49 162.74 167.91 162.84 167.08 C 162.94 166.26 162.35 165.51 161.53 165.41 L 160.53 165.29 C 159.71 165.19 158.96 165.78 158.86 166.60 C 158.76 167.43 159.35 168.18 160.17 168.28 Z M 161.24 168.40 L 162.22 168.47 C 163.05 168.53 163.77 167.91 163.83 167.08 C 163.89 166.25 163.26 165.53 162.43 165.47 L 161.45 165.40 C 160.63 165.35 159.91 165.97 159.85 166.80 C 159.79 167.62 160.41 168.34 161.24 168.40 Z M 162.29 168.48 L 163.28 168.50 C 164.11 168.53 164.80 167.87 164.82 167.04 C 164.84 166.21 164.19 165.52 163.36 165.50 L 162.37 165.47 C 161.54 165.45 160.85 166.10 160.83 166.93 C 160.80 167.76 161.46 168.45 162.29 168.48 Z M 163.31 168.50 L 164.33 168.51 C 165.16 168.51 165.83 167.84 165.84 167.02 C 165.84 166.19 165.17 165.51 164.34 165.51 L 163.33 165.50 C 162.50 165.50 161.82 166.16 161.82 166.99 C 161.81 167.82 162.48 168.50 163.31 168.50 Z M 164.34 168.50 L 165.38 168.50 C 166.21 168.50 166.88 167.83 166.87 167.00 C 166.87 166.17 166.20 165.50 165.37 165.51 L 164.33 165.51 C 163.50 165.51 162.84 166.18 162.84 167.01 C 162.84 167.84 163.51 168.51 164.34 168.50 Z M 165.45 168.49 L 166.42 168.45 C 167.24 168.41 167.88 167.71 167.84 166.89 C 167.80 166.06 167.10 165.43 166.28 165.47 L 165.31 165.52 C 164.48 165.55 163.85 166.25 163.89 167.07 C 163.93 167.90 164.62 168.53 165.45 168.49 Z M 166.60 168.41 L 167.59 168.24 C 168.39 168.11 168.93 167.34 168.79 166.54 C 168.65 165.74 167.89 165.20 167.09 165.33 L 166.10 165.50 C 165.30 165.64 164.76 166.40 164.89 167.21 C 165.03 168.01 165.79 168.55 166.60 168.41 Z M 167.70 168.20 L 168.38 168.02 C 169.16 167.82 169.63 167.02 169.43 166.24 C 169.22 165.46 168.43 165.00 167.65 165.20 L 166.97 165.38 C 166.19 165.58 165.72 166.38 165.93 167.16 C 166.13 167.93 166.93 168.40 167.70 168.20 Z"
      fill="black"
      fill-rule="nonzero" /></svg>