<svg xmlns="http://www.w3.org/2000/svg" width="300" height="300" viewBox="0 0 300 300">
<path d="M 135.35 135.72 L 136.38 135.14 C 137.10 134.74 137.36 133.81 136.96 133.08 C 136.55 132.35 135.62 132.09 134.89 132.50 L 133.87 133.08 C 133.14 133.49 132.88 134.41 133.29 135.14 C 133.70 135.87 134.62 136.13 135.35 135.72 Z M 135.46 135.36 L 136.08 135.43 C 136.93 135.52 137.69 134.91 137.79 134.06 C 137.88 133.21 137.27 132.45 136.42 132.35 L 135.81 132.29 C 134.96 132.19 134.19 132.80 134.10 133.65 C 134.00 134.50 134.62 135.27 135.46 135.36 Z M 134.69 133.94 L 134.72 134.87 C 134.74 135.73 135.47 136.41 136.33 136.38 C 137.19 136.35 137.87 135.63 137.84 134.77 L 137.81 133.84 C 137.78 132.98 137.06 132.30 136.20 132.33 C 135.34 132.36 134.66 133.08 134.69 133.94 Z M 134.76 134.45 L 134.49 135.58 C 134.28 136.42 134.80 137.27 135.64 137.47 C 136.48 137.67 137.32 137.16 137.52 136.32 L 137.80 135.18 C 138.00 134.34 137.48 133.50 136.64 133.30 C 135.80 133.10 134.96 133.61 134.76 134.45 Z M 134.53 135.45 L 134.19 136.42 C 133.91 137.24 134.35 138.12 135.17 138.40 C 135.98 138.68 136.87 138.25 137.15 137.43 L 137.48 136.46 C 137.76 135.64 137.33 134.75 136.51 134.47 C 135.69 134.19 134.80 134.63 134.53 135.45 Z M 134.22 136.35 L 133.86 137.27 C 133.54 138.07 133.94 138.98 134.74 139.29 C 135.55 139.61 136.45 139.21 136.77 138.41 L 137.13 137.49 C 137.44 136.69 137.05 135.78 136.24 135.47 C 135.44 135.15 134.53 135.55 134.22 136.35 Z M 133.87 137.23 L 133.48 138.17 C 133.15 138.96 133.52 139.88 134.31 140.21 C 135.11 140.55 136.03 140.17 136.36 139.38 L 136.75 138.44 C 137.09 137.65 136.72 136.73 135.92 136.40 C 135.12 136.06 134.21 136.44 133.87 137.23 Z M 133.49 138.14 L 133.11 139.01 C 132.76 139.80 133.11 140.73 133.90 141.07 C 134.69 141.42 135.61 141.07 135.96 140.28 L 136.35 139.41 C 136.70 138.62 136.34 137.69 135.55 137.34 C 134.76 136.99 133.84 137.35 133.49 138.14 Z M 133.11 139.01 L 132.70 139.92 C 132.35 140.71 132.70 141.64 133.49 141.99 C 134.28 142.34 135.20 141.99 135.55 141.20 L 135.96 140.28 C 136.31 139.50 135.96 138.57 135.17 138.22 C 134.38 137.87 133.46 138.22 133.11 139.01 Z M 132.69 139.94 L 132.29 140.86 C 131.95 141.65 132.31 142.57 133.10 142.91 C 133.89 143.26 134.81 142.90 135.16 142.10 L 135.56 141.19 C 135.90 140.39 135.54 139.47 134.75 139.13 C 133.96 138.79 133.04 139.15 132.69 139.94 Z M 132.30 140.84 L 131.89 141.75 C 131.54 142.53 131.89 143.46 132.68 143.81 C 133.47 144.16 134.39 143.81 134.74 143.02 L 135.15 142.12 C 135.50 141.33 135.15 140.41 134.36 140.06 C 133.58 139.70 132.65 140.06 132.30 140.84 Z M 131.90 141.73 L 131.48 142.63 C 131.12 143.42 131.45 144.34 132.24 144.71 C 133.02 145.07 133.94 144.73 134.31 143.95 L 134.73 143.05 C 135.10 142.26 134.76 141.34 133.98 140.97 C 133.20 140.61 132.27 140.95 131.90 141.73 Z M 131.48 142.64 L 131.09 143.50 C 130.73 144.28 131.07 145.21 131.85 145.57 C 132.63 145.93 133.56 145.58 133.92 144.80 L 134.31 143.94 C 134.67 143.16 134.33 142.24 133.55 141.88 C 132.76 141.52 131.84 141.86 131.48 142.64 Z M 131.09 143.49 L 130.65 144.43 C 130.28 145.21 130.62 146.14 131.39 146.50 C 132.17 146.87 133.10 146.54 133.46 145.76 L 133.91 144.81 C 134.28 144.04 133.94 143.11 133.16 142.74 C 132.39 142.38 131.46 142.71 131.09 143.49 Z M 130.66 144.41 L 130.25 145.24 C 129.88 146.01 130.19 146.94 130.97 147.32 C 131.74 147.70 132.67 147.38 133.05 146.61 L 133.45 145.78 C 133.83 145.01 133.51 144.08 132.74 143.70 C 131.97 143.32 131.04 143.64 130.66 144.41 Z M 130.26 145.24 L 129.79 146.18 C 129.41 146.95 129.73 147.88 130.50 148.26 C 131.27 148.64 132.20 148.32 132.58 147.55 L 133.04 146.61 C 133.42 145.84 133.11 144.91 132.34 144.53 C 131.57 144.15 130.64 144.47 130.26 145.24 Z M 129.78 146.19 L 129.26 147.29 C 128.89 148.06 129.21 148.99 129.99 149.36 C 130.76 149.74 131.69 149.41 132.06 148.64 L 132.59 147.54 C 132.96 146.76 132.63 145.84 131.86 145.46 C 131.08 145.09 130.16 145.42 129.78 146.19 Z M 129.21 147.41 L 128.84 148.38 C 128.53 149.18 128.93 150.07 129.73 150.38 C 130.53 150.69 131.42 150.29 131.73 149.49 L 132.11 148.52 C 132.42 147.72 132.02 146.82 131.22 146.51 C 130.42 146.21 129.52 146.61 129.21 147.41 Z M 128.88 149.58 L 129.06 149.97 C 129.41 150.74 130.33 151.08 131.11 150.73 C 131.89 150.37 132.23 149.45 131.87 148.68 L 131.69 148.29 C 131.33 147.51 130.42 147.17 129.64 147.53 C 128.86 147.88 128.52 148.80 128.88 149.58 Z M 131.17 150.68 L 132.13 150.18 C 132.88 149.79 133.17 148.86 132.78 148.11 C 132.39 147.36 131.46 147.07 130.71 147.46 L 129.75 147.96 C 129.00 148.35 128.71 149.28 129.10 150.03 C 129.49 150.78 130.42 151.08 131.17 150.68 Z M 132.30 150.07 L 133.16 149.46 C 133.85 148.98 134.02 148.03 133.54 147.34 C 133.05 146.65 132.10 146.48 131.41 146.96 L 130.54 147.57 C 129.86 148.06 129.69 149.01 130.17 149.70 C 130.66 150.39 131.61 150.55 132.30 150.07 Z M 133.20 149.43 L 134.00 148.83 C 134.67 148.32 134.81 147.37 134.31 146.70 C 133.80 146.03 132.85 145.89 132.18 146.40 L 131.38 147.00 C 130.71 147.50 130.57 148.45 131.07 149.12 C 131.58 149.80 132.53 149.93 133.20 149.43 Z M 134.02 148.81 L 134.79 148.21 C 135.45 147.70 135.57 146.75 135.05 146.09 C 134.54 145.42 133.59 145.30 132.93 145.82 L 132.16 146.41 C 131.50 146.93 131.38 147.88 131.89 148.54 C 132.41 149.20 133.36 149.32 134.02 148.81 Z M 134.79 148.21 L 135.53 147.63 C 136.19 147.11 136.30 146.15 135.78 145.50 C 135.27 144.84 134.31 144.73 133.66 145.24 L 132.92 145.83 C 132.26 146.34 132.15 147.30 132.67 147.95 C 133.18 148.61 134.14 148.72 134.79 148.21 Z M 135.53 147.63 L 136.36 146.98 C 137.01 146.46 137.13 145.51 136.61 144.85 C 136.10 144.19 135.14 144.08 134.48 144.59 L 133.66 145.24 C 133.00 145.76 132.88 146.71 133.40 147.37 C 133.92 148.03 134.87 148.14 135.53 147.63 Z M 136.35 146.99 L 137.18 146.35 C 137.84 145.83 137.96 144.88 137.45 144.22 C 136.94 143.55 135.98 143.43 135.32 143.94 L 134.49 144.59 C 133.83 145.10 133.71 146.05 134.22 146.72 C 134.73 147.38 135.69 147.50 136.35 146.99 Z M 137.17 146.35 L 138.00 145.72 C 138.67 145.21 138.80 144.26 138.29 143.59 C 137.78 142.92 136.82 142.79 136.16 143.30 L 135.33 143.93 C 134.66 144.44 134.53 145.40 135.04 146.07 C 135.55 146.74 136.50 146.86 137.17 146.35 Z M 137.99 145.73 L 138.81 145.12 C 139.48 144.62 139.62 143.66 139.11 142.99 C 138.61 142.31 137.65 142.17 136.98 142.68 L 136.16 143.29 C 135.49 143.80 135.35 144.76 135.86 145.43 C 136.36 146.10 137.32 146.24 137.99 145.73 Z M 138.80 145.14 L 139.67 144.50 C 140.35 144.00 140.50 143.04 140.00 142.36 C 139.50 141.68 138.54 141.53 137.86 142.03 L 136.99 142.67 C 136.31 143.16 136.16 144.12 136.66 144.81 C 137.16 145.49 138.12 145.64 138.80 145.14 Z M 139.56 144.59 L 140.52 144.00 C 141.25 143.56 141.48 142.61 141.03 141.88 C 140.59 141.15 139.64 140.92 138.91 141.37 L 137.96 141.95 C 137.23 142.39 137.00 143.34 137.44 144.07 C 137.89 144.80 138.84 145.03 139.56 144.59 Z M 138.77 143.92 L 139.09 144.17 C 139.77 144.69 140.75 144.57 141.27 143.88 C 141.80 143.20 141.67 142.22 140.99 141.70 L 140.67 141.45 C 139.98 140.93 139.00 141.05 138.48 141.74 C 137.96 142.42 138.08 143.40 138.77 143.92 Z M 138.52 142.55 L 138.25 143.62 C 138.04 144.46 138.55 145.31 139.39 145.52 C 140.23 145.73 141.08 145.22 141.29 144.38 L 141.56 143.32 C 141.77 142.48 141.26 141.62 140.42 141.41 C 139.58 141.20 138.73 141.71 138.52 142.55 Z M 138.31 143.41 L 137.93 144.38 C 137.60 145.18 137.99 146.10 138.80 146.42 C 139.60 146.75 140.52 146.36 140.84 145.55 L 141.23 144.59 C 141.55 143.78 141.16 142.87 140.36 142.54 C 139.55 142.22 138.64 142.61 138.31 143.41 Z M 137.96 144.31 L 137.54 145.22 C 137.17 146.01 137.52 146.94 138.30 147.30 C 139.09 147.67 140.03 147.32 140.39 146.54 L 140.81 145.62 C 141.18 144.84 140.83 143.90 140.04 143.54 C 139.26 143.17 138.32 143.52 137.96 144.31 Z M 137.55 145.19 L 137.12 146.06 C 136.74 146.84 137.06 147.78 137.84 148.16 C 138.62 148.54 139.56 148.22 139.95 147.44 L 140.38 146.57 C 140.76 145.79 140.43 144.85 139.66 144.47 C 138.88 144.08 137.93 144.41 137.55 145.19 Z M 137.13 146.04 L 136.71 146.89 C 136.32 147.67 136.63 148.61 137.40 149.00 C 138.18 149.39 139.13 149.08 139.52 148.30 L 139.94 147.46 C 140.33 146.68 140.02 145.74 139.24 145.35 C 138.47 144.96 137.52 145.27 137.13 146.04 Z M 136.71 146.88 L 136.23 147.82 C 135.83 148.59 136.14 149.54 136.91 149.93 C 137.68 150.33 138.63 150.03 139.03 149.25 L 139.51 148.31 C 139.91 147.54 139.60 146.59 138.83 146.20 C 138.06 145.80 137.11 146.11 136.71 146.88 Z M 136.23 147.81 L 135.77 148.70 C 135.37 149.47 135.67 150.42 136.44 150.82 C 137.21 151.22 138.16 150.93 138.56 150.15 L 139.02 149.26 C 139.43 148.49 139.13 147.54 138.36 147.14 C 137.59 146.74 136.63 147.04 136.23 147.81 Z M 135.77 148.70 L 135.31 149.58 C 134.90 150.35 135.20 151.30 135.97 151.71 C 136.74 152.11 137.69 151.81 138.09 151.04 L 138.56 150.16 C 138.96 149.39 138.66 148.44 137.89 148.03 C 137.12 147.63 136.17 147.93 135.77 148.70 Z M 135.30 149.58 L 134.83 150.49 C 134.42 151.26 134.72 152.21 135.49 152.62 C 136.26 153.02 137.21 152.72 137.62 151.95 L 138.09 151.04 C 138.50 150.27 138.20 149.32 137.43 148.92 C 136.66 148.51 135.71 148.81 135.30 149.58 Z M 134.82 150.50 L 134.35 151.41 C 133.95 152.18 134.25 153.13 135.02 153.53 C 135.79 153.93 136.75 153.63 137.15 152.86 L 137.62 151.95 C 138.02 151.18 137.72 150.23 136.95 149.82 C 136.18 149.42 135.23 149.72 134.82 150.50 Z M 134.35 151.41 L 133.84 152.40 C 133.45 153.17 133.75 154.12 134.53 154.52 C 135.30 154.92 136.25 154.61 136.65 153.83 L 137.15 152.85 C 137.55 152.08 137.24 151.13 136.47 150.73 C 135.69 150.33 134.74 150.64 134.35 151.41 Z M 133.84 152.41 L 133.38 153.30 C 132.99 154.08 133.30 155.03 134.08 155.42 C 134.86 155.82 135.81 155.50 136.20 154.72 L 136.66 153.83 C 137.05 153.05 136.74 152.10 135.96 151.71 C 135.18 151.31 134.23 151.63 133.84 152.41 Z M 133.38 153.31 L 132.98 154.11 C 132.60 154.89 132.92 155.84 133.70 156.22 C 134.48 156.61 135.43 156.29 135.82 155.51 L 136.21 154.72 C 136.60 153.93 136.28 152.99 135.50 152.60 C 134.71 152.21 133.77 152.53 133.38 153.31 Z M 132.95 154.19 L 132.47 155.31 C 132.12 156.11 132.50 157.04 133.30 157.38 C 134.10 157.73 135.03 157.35 135.38 156.55 L 135.85 155.43 C 136.20 154.63 135.82 153.70 135.02 153.35 C 134.22 153.01 133.29 153.38 132.95 154.19 Z M 133.25 157.36 L 133.59 157.52 C 134.38 157.88 135.32 157.54 135.69 156.75 C 136.05 155.96 135.71 155.02 134.92 154.65 L 134.59 154.50 C 133.80 154.13 132.86 154.47 132.49 155.26 C 132.12 156.05 132.46 156.99 133.25 157.36 Z M 135.05 157.44 L 135.92 156.93 C 136.67 156.50 136.93 155.53 136.49 154.78 C 136.05 154.03 135.09 153.78 134.34 154.21 L 133.46 154.72 C 132.71 155.16 132.45 156.12 132.89 156.88 C 133.33 157.63 134.29 157.88 135.05 157.44 Z M 136.02 156.87 L 137.00 156.19 C 137.72 155.70 137.90 154.72 137.41 154.01 C 136.92 153.30 135.94 153.11 135.23 153.60 L 134.24 154.28 C 133.53 154.77 133.35 155.75 133.84 156.46 C 134.33 157.17 135.30 157.36 136.02 156.87 Z M 137.01 156.17 L 137.85 155.58 C 138.56 155.09 138.73 154.11 138.23 153.41 C 137.74 152.70 136.76 152.53 136.06 153.03 L 135.22 153.62 C 134.51 154.11 134.34 155.09 134.84 155.79 C 135.34 156.50 136.31 156.67 137.01 156.17 Z M 137.85 155.58 L 138.61 155.05 C 139.31 154.55 139.48 153.58 138.99 152.88 C 138.50 152.18 137.53 152.01 136.82 152.50 L 136.06 153.03 C 135.36 153.53 135.19 154.50 135.68 155.20 C 136.18 155.90 137.15 156.07 137.85 155.58 Z M 138.58 155.06 L 139.40 154.51 C 140.12 154.03 140.30 153.06 139.82 152.35 C 139.34 151.64 138.38 151.45 137.67 151.93 L 136.85 152.48 C 136.14 152.96 135.95 153.93 136.43 154.64 C 136.91 155.35 137.87 155.54 138.58 155.06 Z M 139.35 154.54 L 140.21 154.02 C 140.94 153.57 141.17 152.61 140.72 151.88 C 140.27 151.15 139.32 150.92 138.58 151.37 L 137.73 151.89 C 136.99 152.34 136.76 153.30 137.21 154.03 C 137.66 154.76 138.62 154.99 139.35 154.54 Z M 140.12 154.07 L 141.01 153.60 C 141.77 153.21 142.07 152.27 141.67 151.50 C 141.27 150.74 140.33 150.45 139.57 150.85 L 138.67 151.31 C 137.91 151.71 137.62 152.65 138.02 153.41 C 138.41 154.18 139.35 154.47 140.12 154.07 Z M 140.84 153.69 L 141.82 153.32 C 142.63 153.01 143.03 152.11 142.73 151.31 C 142.43 150.50 141.53 150.09 140.72 150.40 L 139.74 150.76 C 138.93 151.07 138.53 151.97 138.83 152.78 C 139.13 153.58 140.03 153.99 140.84 153.69 Z M 141.28 153.43 L 142.24 153.42 C 143.10 153.41 143.80 152.70 143.79 151.83 C 143.78 150.97 143.07 150.27 142.21 150.28 L 141.25 150.29 C 140.39 150.30 139.69 151.01 139.70 151.87 C 139.71 152.74 140.42 153.44 141.28 153.43 Z M 141.06 152.91 L 141.62 153.53 C 142.21 154.17 143.21 154.21 143.85 153.63 C 144.49 153.04 144.54 152.04 143.95 151.40 L 143.39 150.78 C 142.80 150.14 141.80 150.10 141.16 150.68 C 140.51 151.27 140.47 152.27 141.06 152.91 Z M 141.27 152.91 L 141.58 153.96 C 141.83 154.79 142.71 155.27 143.55 155.02 C 144.38 154.77 144.85 153.89 144.61 153.05 L 144.29 152.01 C 144.05 151.18 143.17 150.70 142.33 150.95 C 141.50 151.20 141.02 152.08 141.27 152.91 Z M 141.55 153.77 L 141.72 154.74 C 141.86 155.60 142.67 156.17 143.52 156.02 C 144.37 155.88 144.95 155.07 144.80 154.22 L 144.64 153.24 C 144.49 152.39 143.68 151.82 142.83 151.96 C 141.98 152.11 141.41 152.92 141.55 153.77 Z M 141.74 154.68 L 141.86 155.68 C 141.97 156.52 142.74 157.12 143.58 157.01 C 144.42 156.91 145.02 156.14 144.91 155.30 L 144.78 154.29 C 144.68 153.45 143.91 152.85 143.07 152.96 C 142.23 153.07 141.63 153.83 141.74 154.68 Z M 141.88 155.66 L 141.94 156.16 C 142.03 156.99 142.78 157.59 143.61 157.49 C 144.45 157.40 145.04 156.65 144.95 155.82 L 144.89 155.32 C 144.80 154.49 144.05 153.89 143.22 153.98 C 142.38 154.08 141.79 154.83 141.88 155.66 Z"
      fill="black"
      fill-rule="nonzero" /><path d="M 116.64 166.44 L 117.62 166.63 C 118.47 166.80 119.30 166.25 119.46 165.40 C 119.63 164.55 119.08 163.72 118.23 163.56 L 117.25 163.36 C 116.40 163.19 115.57 163.75 115.40 164.60 C 115.24 165.45 115.79 166.27 116.64 166.44 Z M 117.59 166.66 L 118.57 166.86 C 119.43 167.05 120.28 166.50 120.46 165.63 C 120.65 164.77 120.10 163.92 119.23 163.74 L 118.26 163.53 C 117.40 163.35 116.55 163.90 116.36 164.76 C 116.18 165.62 116.73 166.47 117.59 166.66 Z M 118.52 166.86 L 119.49 167.10 C 120.35 167.31 121.22 166.78 121.43 165.92 C 121.64 165.05 121.11 164.19 120.25 163.98 L 119.28 163.74 C 118.42 163.53 117.55 164.06 117.34 164.92 C 117.13 165.78 117.66 166.65 118.52 166.86 Z M 119.45 167.07 L 120.41 167.34 C 121.26 167.57 122.14 167.08 122.37 166.23 C 122.61 165.38 122.11 164.50 121.26 164.27 L 120.29 164.00 C 119.45 163.77 118.57 164.26 118.33 165.11 C 118.10 165.96 118.60 166.84 119.45 167.07 Z M 120.38 167.31 L 121.33 167.60 C 122.16 167.85 123.04 167.38 123.29 166.55 C 123.55 165.72 123.08 164.84 122.24 164.58 L 121.30 164.29 C 120.46 164.04 119.58 164.51 119.33 165.34 C 119.07 166.18 119.54 167.06 120.38 167.31 Z M 121.31 167.58 L 122.27 167.88 C 123.09 168.14 123.97 167.69 124.23 166.87 C 124.49 166.05 124.03 165.17 123.21 164.91 L 122.26 164.61 C 121.44 164.35 120.56 164.80 120.30 165.62 C 120.04 166.44 120.49 167.32 121.31 167.58 Z M 122.28 167.86 L 123.23 168.16 C 124.04 168.41 124.91 167.97 125.16 167.16 C 125.41 166.35 124.96 165.48 124.16 165.23 L 123.20 164.93 C 122.39 164.68 121.53 165.13 121.28 165.94 C 121.02 166.75 121.47 167.61 122.28 167.86 Z M 123.26 168.14 L 124.21 168.43 C 125.01 168.68 125.86 168.22 126.10 167.42 C 126.34 166.62 125.89 165.78 125.09 165.54 L 124.13 165.25 C 123.33 165.00 122.49 165.46 122.25 166.26 C 122.00 167.06 122.46 167.90 123.26 168.14 Z M 124.24 168.42 L 125.22 168.70 C 126.01 168.93 126.83 168.47 127.06 167.68 C 127.29 166.89 126.84 166.06 126.04 165.84 L 125.07 165.55 C 124.28 165.32 123.45 165.78 123.22 166.57 C 122.99 167.36 123.45 168.19 124.24 168.42 Z M 125.24 168.69 L 126.22 168.95 C 127.00 169.16 127.81 168.70 128.02 167.92 C 128.23 167.14 127.77 166.33 126.99 166.12 L 126.02 165.85 C 125.23 165.64 124.43 166.10 124.21 166.88 C 124.00 167.67 124.46 168.47 125.24 168.69 Z M 126.25 168.94 L 127.22 169.18 C 127.99 169.38 128.78 168.90 128.98 168.13 C 129.17 167.35 128.70 166.56 127.92 166.37 L 126.96 166.13 C 126.18 165.93 125.39 166.40 125.20 167.18 C 125.00 167.96 125.47 168.75 126.25 168.94 Z M 127.25 169.18 L 128.23 169.40 C 129.00 169.57 129.77 169.09 129.95 168.31 C 130.12 167.54 129.64 166.77 128.86 166.60 L 127.89 166.37 C 127.11 166.20 126.34 166.68 126.17 167.46 C 125.99 168.23 126.48 169.00 127.25 169.18 Z M 128.24 169.39 L 128.83 169.52 C 129.60 169.69 130.36 169.20 130.53 168.43 C 130.69 167.65 130.20 166.89 129.43 166.73 L 128.85 166.60 C 128.08 166.43 127.32 166.92 127.15 167.69 C 126.98 168.47 127.47 169.23 128.24 169.39 Z"
      fill="black"
      fill-rule="nonzero" /><path d="M 130.13 164.65 L 131.10 164.73 C 131.95 164.80 132.69 164.16 132.76 163.32 C 132.83 162.47 132.19 161.73 131.35 161.66 L 130.38 161.58 C 129.53 161.52 128.79 162.15 128.72 163.00 C 128.65 163.84 129.29 164.59 130.13 164.65 Z M 130.76 164.71 L 131.72 165.00 C 132.55 165.25 133.44 164.78 133.69 163.94 C 133.94 163.11 133.47 162.22 132.64 161.97 L 131.68 161.68 C 130.85 161.43 129.96 161.90 129.71 162.73 C 129.46 163.57 129.93 164.46 130.76 164.71 Z M 131.43 164.86 L 132.31 165.34 C 133.07 165.76 134.02 165.48 134.44 164.72 C 134.85 163.95 134.57 163.00 133.81 162.59 L 132.93 162.11 C 132.17 161.69 131.21 161.97 130.80 162.73 C 130.38 163.49 130.67 164.45 131.43 164.86 Z M 132.20 165.24 L 133.05 165.81 C 133.75 166.29 134.70 166.11 135.18 165.41 C 135.66 164.70 135.48 163.75 134.77 163.27 L 133.93 162.69 C 133.22 162.22 132.27 162.40 131.79 163.10 C 131.31 163.80 131.49 164.76 132.20 165.24 Z M 132.98 165.77 L 133.78 166.37 C 134.45 166.89 135.42 166.75 135.93 166.07 C 136.45 165.40 136.31 164.43 135.64 163.92 L 134.84 163.31 C 134.16 162.80 133.20 162.93 132.68 163.61 C 132.17 164.29 132.30 165.26 132.98 165.77 Z M 133.75 166.37 L 134.10 166.65 C 134.78 167.18 135.76 167.06 136.29 166.38 C 136.82 165.70 136.70 164.73 136.02 164.20 L 135.66 163.92 C 134.99 163.39 134.01 163.51 133.48 164.19 C 132.95 164.86 133.07 165.84 133.75 166.37 Z"
      fill="black"
      fill-rule="nonzero" /><path d="M 140.13 160.48 L 140.31 161.49 C 140.47 162.33 141.28 162.89 142.12 162.73 C 142.96 162.58 143.52 161.77 143.36 160.93 L 143.18 159.92 C 143.03 159.08 142.22 158.52 141.37 158.67 C 140.53 158.83 139.97 159.64 140.13 160.48 Z M 140.30 161.50 L 140.49 162.47 C 140.65 163.32 141.47 163.87 142.32 163.71 C 143.17 163.55 143.72 162.73 143.56 161.88 L 143.37 160.91 C 143.21 160.06 142.39 159.51 141.54 159.67 C 140.70 159.83 140.14 160.65 140.30 161.50 Z M 140.54 162.49 L 140.74 163.47 C 140.91 164.29 141.72 164.82 142.54 164.65 C 143.36 164.48 143.89 163.67 143.72 162.85 L 143.51 161.87 C 143.34 161.04 142.54 160.52 141.72 160.69 C 140.89 160.86 140.37 161.66 140.54 162.49 Z M 140.80 163.46 L 140.89 163.87 C 141.06 164.66 141.84 165.16 142.62 164.99 C 143.41 164.82 143.91 164.05 143.74 163.26 L 143.65 162.85 C 143.49 162.07 142.71 161.57 141.92 161.73 C 141.14 161.90 140.64 162.68 140.80 163.46 Z"
      fill="black"
      fill-rule="nonzero" /><path d="M 156.45 129.24 L 155.87 129.95 C 155.32 130.62 155.42 131.62 156.09 132.17 C 156.77 132.72 157.76 132.62 158.32 131.95 L 158.89 131.24 C 159.44 130.56 159.35 129.57 158.67 129.02 C 157.99 128.46 157.00 128.56 156.45 129.24 Z M 155.84 129.99 L 155.21 130.81 C 154.68 131.51 154.82 132.50 155.51 133.02 C 156.21 133.55 157.20 133.42 157.72 132.72 L 158.35 131.90 C 158.88 131.21 158.74 130.22 158.05 129.69 C 157.35 129.16 156.36 129.30 155.84 129.99 Z M 155.17 130.87 L 154.59 131.70 C 154.10 132.42 154.28 133.40 154.99 133.89 C 155.71 134.39 156.69 134.21 157.19 133.50 L 157.76 132.67 C 158.26 131.95 158.08 130.97 157.37 130.47 C 156.65 129.97 155.67 130.15 155.17 130.87 Z M 154.57 131.74 L 154.02 132.58 C 153.54 133.31 153.74 134.29 154.47 134.77 C 155.20 135.24 156.18 135.04 156.66 134.31 L 157.21 133.46 C 157.69 132.73 157.48 131.75 156.75 131.28 C 156.02 130.80 155.05 131.01 154.57 131.74 Z M 154.00 132.61 L 153.45 133.48 C 152.99 134.22 153.21 135.19 153.95 135.66 C 154.69 136.12 155.66 135.90 156.12 135.16 L 156.67 134.29 C 157.14 133.55 156.92 132.57 156.18 132.11 C 155.44 131.65 154.47 131.87 154.00 132.61 Z M 153.44 133.50 L 152.90 134.38 C 152.45 135.12 152.68 136.09 153.43 136.55 C 154.17 137.00 155.14 136.77 155.60 136.02 L 156.14 135.14 C 156.59 134.40 156.36 133.43 155.61 132.97 C 154.87 132.52 153.90 132.75 153.44 133.50 Z M 152.89 134.39 L 152.38 135.25 C 151.93 136.00 152.18 136.97 152.93 137.42 C 153.68 137.86 154.65 137.62 155.09 136.87 L 155.61 136.01 C 156.05 135.26 155.81 134.29 155.06 133.84 C 154.31 133.40 153.34 133.64 152.89 134.39 Z M 152.38 135.26 L 151.88 136.10 C 151.44 136.85 151.69 137.82 152.44 138.26 C 153.20 138.70 154.16 138.45 154.61 137.70 L 155.10 136.86 C 155.54 136.11 155.29 135.14 154.54 134.70 C 153.79 134.26 152.82 134.51 152.38 135.26 Z M 151.88 136.10 L 151.37 136.98 C 150.93 137.73 151.18 138.70 151.93 139.14 C 152.68 139.58 153.65 139.33 154.09 138.57 L 154.61 137.70 C 155.05 136.94 154.80 135.98 154.04 135.54 C 153.29 135.09 152.32 135.35 151.88 136.10 Z M 151.37 136.98 L 150.85 137.87 C 150.41 138.62 150.67 139.59 151.42 140.03 C 152.17 140.47 153.14 140.21 153.58 139.46 L 154.09 138.57 C 154.53 137.82 154.28 136.85 153.52 136.41 C 152.77 135.97 151.81 136.23 151.37 136.98 Z M 150.84 137.88 L 150.37 138.71 C 149.94 139.46 150.20 140.43 150.96 140.86 C 151.71 141.29 152.68 141.03 153.11 140.27 L 153.58 139.45 C 154.01 138.69 153.75 137.73 153.00 137.30 C 152.24 136.86 151.28 137.13 150.84 137.88 Z M 150.33 138.80 L 149.81 139.88 C 149.43 140.66 149.75 141.60 150.53 141.98 C 151.31 142.36 152.25 142.03 152.62 141.25 L 153.15 140.18 C 153.53 139.40 153.20 138.46 152.43 138.08 C 151.65 137.70 150.71 138.03 150.33 138.80 Z M 149.76 141.11 L 149.94 141.61 C 150.24 142.42 151.14 142.83 151.94 142.53 C 152.75 142.23 153.16 141.33 152.86 140.53 L 152.67 140.03 C 152.37 139.22 151.48 138.81 150.67 139.11 C 149.87 139.41 149.46 140.30 149.76 141.11 Z M 151.54 142.61 L 152.47 142.53 C 153.32 142.45 153.95 141.70 153.87 140.85 C 153.80 140.00 153.05 139.37 152.20 139.45 L 151.27 139.53 C 150.42 139.60 149.79 140.35 149.86 141.20 C 149.93 142.05 150.68 142.68 151.54 142.61 Z M 152.78 142.46 L 153.90 142.13 C 154.71 141.88 155.17 141.02 154.93 140.20 C 154.68 139.39 153.82 138.93 153.01 139.17 L 151.89 139.51 C 151.07 139.76 150.61 140.62 150.85 141.43 C 151.10 142.25 151.96 142.71 152.78 142.46 Z M 153.98 142.10 L 154.93 141.75 C 155.73 141.46 156.14 140.57 155.85 139.77 C 155.56 138.97 154.67 138.56 153.87 138.86 L 152.92 139.20 C 152.12 139.49 151.71 140.38 152.00 141.18 C 152.30 141.98 153.18 142.39 153.98 142.10 Z M 154.95 141.74 L 155.90 141.38 C 156.70 141.08 157.10 140.19 156.80 139.39 C 156.50 138.60 155.61 138.20 154.81 138.50 L 153.85 138.86 C 153.06 139.16 152.66 140.05 152.96 140.85 C 153.26 141.65 154.15 142.05 154.95 141.74 Z M 155.88 141.39 L 156.86 141.03 C 157.66 140.74 158.08 139.86 157.79 139.06 C 157.50 138.26 156.61 137.84 155.81 138.13 L 154.83 138.49 C 154.03 138.78 153.62 139.67 153.91 140.47 C 154.20 141.27 155.08 141.68 155.88 141.39 Z M 156.81 141.05 L 157.77 140.74 C 158.58 140.49 159.03 139.62 158.77 138.81 C 158.51 138.00 157.64 137.55 156.83 137.81 L 155.87 138.12 C 155.06 138.37 154.61 139.24 154.87 140.05 C 155.13 140.86 156.00 141.31 156.81 141.05 Z M 157.70 140.77 L 158.61 140.52 C 159.43 140.30 159.92 139.46 159.70 138.63 C 159.48 137.81 158.63 137.32 157.81 137.54 L 156.90 137.79 C 156.08 138.01 155.59 138.85 155.81 139.68 C 156.03 140.50 156.88 140.99 157.70 140.77 Z M 158.53 140.55 L 159.54 140.33 C 160.37 140.15 160.91 139.33 160.73 138.49 C 160.55 137.66 159.73 137.12 158.89 137.30 L 157.88 137.52 C 157.05 137.70 156.51 138.52 156.69 139.36 C 156.87 140.19 157.69 140.73 158.53 140.55 Z M 159.45 140.36 L 160.40 140.21 C 161.25 140.08 161.84 139.28 161.71 138.43 C 161.58 137.58 160.78 137.00 159.93 137.13 L 158.98 137.28 C 158.13 137.41 157.55 138.20 157.68 139.05 C 157.81 139.90 158.60 140.49 159.45 140.36 Z M 160.29 140.23 L 161.30 140.15 C 162.16 140.08 162.80 139.33 162.73 138.47 C 162.67 137.61 161.91 136.97 161.05 137.03 L 160.05 137.11 C 159.19 137.18 158.54 137.93 158.61 138.79 C 158.68 139.65 159.43 140.30 160.29 140.23 Z M 161.20 140.16 L 162.19 140.14 C 163.05 140.13 163.74 139.42 163.73 138.55 C 163.72 137.69 163.01 137.00 162.14 137.01 L 161.15 137.03 C 160.29 137.04 159.60 137.75 159.61 138.61 C 159.63 139.48 160.34 140.17 161.20 140.16 Z M 162.02 140.14 L 163.03 140.23 C 163.90 140.31 164.66 139.68 164.74 138.81 C 164.82 137.95 164.18 137.18 163.32 137.10 L 162.31 137.01 C 161.45 136.93 160.68 137.57 160.60 138.43 C 160.52 139.30 161.16 140.06 162.02 140.14 Z M 162.47 140.09 L 163.32 140.51 C 164.10 140.90 165.05 140.58 165.44 139.79 C 165.83 139.01 165.51 138.06 164.73 137.67 L 163.88 137.25 C 163.09 136.86 162.14 137.18 161.76 137.96 C 161.37 138.75 161.69 139.70 162.47 140.09 Z M 162.74 140.04 L 163.33 140.84 C 163.86 141.55 164.86 141.70 165.57 141.17 C 166.28 140.64 166.42 139.64 165.90 138.93 L 165.31 138.13 C 164.78 137.43 163.78 137.28 163.07 137.80 C 162.36 138.33 162.21 139.33 162.74 140.04 Z M 163.10 140.46 L 163.45 141.38 C 163.77 142.22 164.70 142.64 165.53 142.32 C 166.37 142.00 166.79 141.07 166.47 140.24 L 166.12 139.31 C 165.81 138.48 164.88 138.06 164.04 138.37 C 163.21 138.69 162.79 139.62 163.10 140.46 Z M 163.37 141.12 L 163.56 142.09 C 163.73 142.97 164.59 143.55 165.47 143.37 C 166.34 143.20 166.92 142.35 166.75 141.47 L 166.56 140.50 C 166.38 139.62 165.53 139.04 164.65 139.22 C 163.77 139.39 163.20 140.24 163.37 141.12 Z M 163.54 141.95 L 163.65 142.99 C 163.74 143.89 164.54 144.53 165.43 144.44 C 166.33 144.35 166.97 143.55 166.88 142.65 L 166.77 141.61 C 166.68 140.72 165.88 140.07 164.98 140.16 C 164.09 140.26 163.44 141.06 163.54 141.95 Z M 163.64 142.93 L 163.71 143.96 C 163.76 144.86 164.54 145.54 165.44 145.48 C 166.34 145.42 167.02 144.64 166.96 143.75 L 166.89 142.72 C 166.83 141.82 166.05 141.14 165.16 141.20 C 164.26 141.26 163.58 142.03 163.64 142.93 Z M 163.70 143.92 L 163.74 144.90 C 163.78 145.80 164.54 146.50 165.44 146.46 C 166.34 146.43 167.04 145.67 167.00 144.77 L 166.96 143.78 C 166.92 142.88 166.16 142.19 165.26 142.22 C 164.36 142.26 163.66 143.02 163.70 143.92 Z M 163.74 144.86 L 163.76 145.89 C 163.77 146.79 164.52 147.51 165.42 147.50 C 166.32 147.48 167.04 146.74 167.02 145.84 L 167.00 144.81 C 166.99 143.90 166.24 143.19 165.34 143.20 C 164.44 143.22 163.72 143.96 163.74 144.86 Z M 163.76 145.87 L 163.76 146.81 C 163.76 147.71 164.49 148.44 165.39 148.44 C 166.29 148.44 167.02 147.71 167.02 146.81 L 167.02 145.86 C 167.02 144.96 166.29 144.23 165.39 144.23 C 164.49 144.23 163.76 144.96 163.76 145.87 Z M 163.76 146.81 L 163.76 147.81 C 163.76 148.71 164.49 149.44 165.39 149.44 C 166.29 149.44 167.02 148.71 167.02 147.81 L 167.02 146.81 C 167.02 145.90 166.29 145.17 165.39 145.17 C 164.49 145.17 163.76 145.90 163.76 146.81 Z M 163.76 147.81 L 163.75 148.80 C 163.75 149.70 164.48 150.44 165.38 150.44 C 166.28 150.44 167.02 149.71 167.02 148.81 L 167.02 147.82 C 167.03 146.91 166.30 146.18 165.40 146.18 C 164.49 146.17 163.76 146.90 163.76 147.81 Z M 163.75 148.75 L 163.72 149.75 C 163.69 150.65 164.39 151.41 165.29 151.44 C 166.20 151.47 166.95 150.77 166.98 149.87 L 167.02 148.86 C 167.05 147.96 166.35 147.21 165.44 147.17 C 164.54 147.14 163.79 147.85 163.75 148.75 Z M 163.72 149.67 L 163.64 150.64 C 163.56 151.54 164.23 152.33 165.13 152.41 C 166.03 152.49 166.82 151.82 166.90 150.92 L 166.98 149.95 C 167.06 149.05 166.39 148.26 165.49 148.18 C 164.59 148.10 163.80 148.77 163.72 149.67 Z M 163.64 150.61 L 163.54 151.63 C 163.44 152.53 164.10 153.33 164.99 153.43 C 165.89 153.52 166.69 152.87 166.79 151.97 L 166.89 150.95 C 166.99 150.05 166.33 149.25 165.44 149.16 C 164.54 149.06 163.74 149.72 163.64 150.61 Z M 163.54 151.64 L 163.43 152.64 C 163.34 153.54 164.00 154.34 164.90 154.43 C 165.79 154.52 166.60 153.86 166.69 152.97 L 166.79 151.96 C 166.88 151.07 166.22 150.26 165.33 150.17 C 164.43 150.08 163.63 150.74 163.54 151.64 Z M 163.43 152.63 L 163.33 153.64 C 163.24 154.53 163.89 155.34 164.79 155.43 C 165.69 155.52 166.49 154.87 166.58 153.97 L 166.69 152.97 C 166.78 152.07 166.13 151.27 165.23 151.18 C 164.33 151.08 163.53 151.74 163.43 152.63 Z M 163.33 153.63 L 163.22 154.62 C 163.12 155.52 163.77 156.33 164.67 156.43 C 165.57 156.52 166.38 155.88 166.47 154.98 L 166.58 153.98 C 166.68 153.08 166.03 152.28 165.13 152.18 C 164.24 152.08 163.43 152.73 163.33 153.63 Z M 163.22 154.62 L 163.11 155.60 C 163.01 156.50 163.66 157.31 164.55 157.41 C 165.45 157.51 166.26 156.86 166.36 155.96 L 166.47 154.98 C 166.57 154.08 165.93 153.27 165.03 153.17 C 164.13 153.07 163.32 153.72 163.22 154.62 Z M 163.11 155.59 L 163.00 156.58 C 162.89 157.48 163.53 158.29 164.43 158.40 C 165.33 158.50 166.14 157.86 166.25 156.97 L 166.36 155.97 C 166.47 155.08 165.83 154.26 164.93 154.16 C 164.03 154.05 163.22 154.69 163.11 155.59 Z M 163.00 156.56 L 162.87 157.56 C 162.75 158.45 163.38 159.27 164.28 159.39 C 165.17 159.51 165.99 158.88 166.11 157.98 L 166.24 156.99 C 166.36 156.09 165.73 155.27 164.83 155.15 C 163.94 155.03 163.12 155.66 163.00 156.56 Z M 162.87 157.56 L 162.74 158.55 C 162.62 159.45 163.26 160.27 164.15 160.38 C 165.05 160.50 165.87 159.86 165.98 158.97 L 166.11 157.98 C 166.23 157.08 165.59 156.26 164.70 156.15 C 163.80 156.03 162.98 156.67 162.87 157.56 Z M 162.73 158.60 L 162.64 159.60 C 162.55 160.50 163.20 161.30 164.10 161.39 C 165.00 161.48 165.80 160.82 165.89 159.92 L 165.99 158.92 C 166.08 158.02 165.42 157.22 164.52 157.13 C 163.62 157.04 162.82 157.70 162.73 158.60 Z M 162.63 159.61 L 162.54 160.60 C 162.46 161.50 163.12 162.29 164.02 162.38 C 164.92 162.46 165.72 161.80 165.80 160.90 L 165.89 159.91 C 165.97 159.01 165.31 158.21 164.41 158.13 C 163.51 158.05 162.72 158.71 162.63 159.61 Z M 162.55 160.57 L 162.44 161.57 C 162.35 162.46 163.00 163.27 163.90 163.36 C 164.79 163.46 165.60 162.81 165.69 161.91 L 165.80 160.92 C 165.90 160.02 165.24 159.22 164.35 159.12 C 163.45 159.03 162.64 159.68 162.55 160.57 Z M 162.44 161.58 L 162.35 162.52 C 162.26 163.41 162.92 164.21 163.82 164.30 C 164.72 164.39 165.52 163.73 165.61 162.83 L 165.70 161.89 C 165.78 161.00 165.12 160.20 164.22 160.11 C 163.33 160.02 162.53 160.68 162.44 161.58 Z M 162.35 162.54 L 162.27 163.50 C 162.19 164.40 162.86 165.19 163.76 165.26 C 164.66 165.34 165.45 164.67 165.53 163.77 L 165.61 162.81 C 165.68 161.91 165.01 161.12 164.11 161.04 C 163.21 160.97 162.42 161.64 162.35 162.54 Z M 162.27 163.49 L 162.18 164.56 C 162.10 165.46 162.76 166.26 163.66 166.34 C 164.56 166.41 165.36 165.75 165.43 164.85 L 165.53 163.78 C 165.61 162.88 164.94 162.08 164.04 162.00 C 163.14 161.92 162.35 162.59 162.27 163.49 Z M 162.18 164.55 L 162.08 165.57 C 161.99 166.47 162.65 167.27 163.55 167.35 C 164.45 167.44 165.25 166.78 165.34 165.88 L 165.43 164.86 C 165.52 163.96 164.86 163.16 163.96 163.08 C 163.06 162.99 162.26 163.65 162.18 164.55 Z M 162.08 165.56 L 161.98 166.58 C 161.88 167.48 162.53 168.28 163.43 168.37 C 164.33 168.47 165.13 167.81 165.23 166.91 L 165.33 165.89 C 165.43 164.99 164.77 164.19 163.88 164.10 C 162.98 164.00 162.17 164.66 162.08 165.56 Z M 161.98 166.55 L 161.83 167.77 C 161.72 168.67 162.36 169.48 163.25 169.59 C 164.15 169.70 164.96 169.06 165.07 168.17 L 165.22 166.95 C 165.33 166.05 164.70 165.24 163.80 165.13 C 162.91 165.02 162.09 165.65 161.98 166.55 Z M 161.93 167.40 L 161.69 168.03 C 161.38 168.87 161.80 169.81 162.65 170.12 C 163.49 170.44 164.43 170.01 164.74 169.17 L 164.98 168.54 C 165.29 167.70 164.86 166.76 164.02 166.44 C 163.18 166.13 162.24 166.56 161.93 167.40 Z M 164.65 167.89 L 164.31 167.21 C 163.92 166.42 162.96 166.10 162.17 166.50 C 161.38 166.89 161.06 167.85 161.45 168.64 L 161.79 169.31 C 162.18 170.10 163.14 170.42 163.93 170.03 C 164.72 169.63 165.04 168.68 164.65 167.89 Z M 164.36 167.46 L 164.09 166.61 C 163.84 165.79 162.96 165.34 162.15 165.60 C 161.33 165.86 160.87 166.73 161.13 167.55 L 161.40 168.39 C 161.66 169.21 162.53 169.67 163.35 169.41 C 164.16 169.15 164.62 168.28 164.36 167.46 Z"
      fill="black"
      fill-rule="nonzero" /><path d="M 149.37 156.51 L 150.26 156.36 C 151.10 156.21 151.66 155.42 151.51 154.58 C 151.37 153.75 150.58 153.19 149.74 153.33 L 148.85 153.48 C 148.02 153.63 147.46 154.42 147.60 155.26 C 147.74 156.09 148.54 156.65 149.37 156.51 Z M 150.30 156.40 L 151.32 156.20 C 152.18 156.03 152.73 155.20 152.57 154.34 C 152.40 153.48 151.57 152.93 150.71 153.09 L 149.70 153.29 C 148.84 153.46 148.28 154.29 148.45 155.15 C 148.62 156.00 149.45 156.56 150.30 156.40 Z M 151.37 156.22 L 152.31 156.01 C 153.18 155.81 153.73 154.95 153.53 154.08 C 153.34 153.21 152.48 152.67 151.61 152.86 L 150.66 153.07 C 149.80 153.27 149.25 154.13 149.44 155.00 C 149.64 155.87 150.50 156.41 151.37 156.22 Z M 152.33 156.00 L 153.26 155.78 C 154.12 155.57 154.66 154.71 154.45 153.84 C 154.24 152.98 153.38 152.44 152.51 152.65 L 151.59 152.87 C 150.72 153.07 150.19 153.94 150.40 154.81 C 150.60 155.67 151.47 156.21 152.33 156.00 Z M 153.26 155.77 L 154.27 155.52 C 155.13 155.32 155.66 154.45 155.45 153.60 C 155.25 152.74 154.38 152.21 153.53 152.42 L 152.51 152.66 C 151.65 152.87 151.13 153.73 151.33 154.59 C 151.54 155.45 152.40 155.97 153.26 155.77 Z M 154.26 155.51 L 155.33 155.26 C 156.18 155.06 156.71 154.21 156.51 153.35 C 156.31 152.50 155.46 151.97 154.60 152.18 L 153.54 152.43 C 152.68 152.63 152.16 153.48 152.36 154.33 C 152.56 155.19 153.41 155.71 154.26 155.51 Z M 155.31 155.24 L 156.26 155.03 C 157.10 154.84 157.63 154.00 157.44 153.16 C 157.25 152.31 156.41 151.79 155.57 151.98 L 154.62 152.19 C 153.78 152.39 153.25 153.22 153.44 154.07 C 153.63 154.91 154.47 155.43 155.31 155.24 Z M 156.24 155.00 L 157.22 154.79 C 158.04 154.60 158.56 153.78 158.38 152.96 C 158.20 152.13 157.38 151.61 156.55 151.79 L 155.58 152.01 C 154.75 152.19 154.23 153.01 154.41 153.83 C 154.60 154.66 155.42 155.18 156.24 155.00 Z M 157.20 154.76 L 158.19 154.54 C 159.01 154.37 159.52 153.57 159.34 152.75 C 159.17 151.94 158.37 151.43 157.55 151.60 L 156.56 151.82 C 155.75 151.99 155.24 152.80 155.41 153.61 C 155.59 154.42 156.39 154.93 157.20 154.76 Z M 158.18 154.52 L 159.18 154.30 C 159.98 154.13 160.49 153.34 160.32 152.55 C 160.14 151.75 159.36 151.24 158.56 151.42 L 157.56 151.63 C 156.77 151.80 156.26 152.59 156.43 153.38 C 156.60 154.18 157.39 154.69 158.18 154.52 Z M 159.18 154.28 L 159.36 154.24 C 160.15 154.07 160.65 153.30 160.48 152.51 C 160.31 151.73 159.54 151.22 158.75 151.39 L 158.57 151.43 C 157.78 151.60 157.28 152.38 157.45 153.16 C 157.62 153.95 158.39 154.45 159.18 154.28 Z"
      fill="black"
      fill-rule="nonzero" /></svg>