<svg xmlns="http://www.w3.org/2000/svg" width="300" height="300" viewBox="0 0 300 300">
<path d="M 138.63 139.52 L 139.70 139.52 C 140.54 139.52 141.21 138.85 141.21 138.02 C 141.21 137.19 140.54 136.51 139.70 136.51 L 138.63 136.51 C 137.80 136.51 137.12 137.19 137.12 138.02 C 137.12 138.85 137.80 139.52 138.63 139.52 Z M 139.70 139.56 L 140.73 139.56 C 141.58 139.56 142.27 138.87 142.27 138.02 C 142.27 137.17 141.58 136.48 140.73 136.48 L 139.70 136.48 C 138.85 136.48 138.16 137.17 138.16 138.02 C 138.16 138.87 138.85 139.56 139.70 139.56 Z M 140.73 139.59 L 141.65 139.59 C 142.52 139.59 143.23 138.89 143.23 138.02 C 143.23 137.15 142.52 136.44 141.65 136.44 L 140.73 136.44 C 139.86 136.44 139.16 137.15 139.16 138.02 C 139.16 138.89 139.86 139.59 140.73 139.59 Z M 141.65 139.61 L 142.72 139.61 C 143.60 139.61 144.32 138.90 144.32 138.02 C 144.32 137.14 143.61 136.43 142.73 136.42 L 141.65 136.42 C 140.77 136.42 140.06 137.14 140.06 138.02 C 140.06 138.90 140.77 139.61 141.65 139.61 Z M 142.71 139.61 L 143.64 139.62 C 144.52 139.63 145.24 138.92 145.24 138.04 C 145.25 137.16 144.54 136.44 143.67 136.43 L 142.74 136.43 C 141.86 136.42 141.14 137.13 141.13 138.01 C 141.12 138.89 141.83 139.60 142.71 139.61 Z M 143.61 139.61 L 144.57 139.64 C 145.45 139.66 146.18 138.97 146.20 138.09 C 146.22 137.21 145.53 136.48 144.65 136.46 L 143.69 136.44 C 142.81 136.42 142.09 137.11 142.06 137.99 C 142.04 138.86 142.74 139.59 143.61 139.61 Z M 144.54 139.64 L 145.56 139.68 C 146.43 139.71 147.17 139.03 147.21 138.16 C 147.24 137.28 146.56 136.54 145.69 136.51 L 144.68 136.46 C 143.80 136.43 143.06 137.11 143.02 137.98 C 142.99 138.86 143.67 139.60 144.54 139.64 Z M 145.54 139.68 L 146.52 139.73 C 147.40 139.77 148.14 139.10 148.19 138.23 C 148.23 137.35 147.56 136.61 146.69 136.56 L 145.70 136.51 C 144.83 136.46 144.08 137.13 144.04 138.01 C 143.99 138.88 144.66 139.63 145.54 139.68 Z M 146.52 139.73 L 147.53 139.78 C 148.41 139.83 149.15 139.16 149.20 138.28 C 149.24 137.41 148.57 136.66 147.70 136.61 L 146.69 136.56 C 145.81 136.51 145.07 137.19 145.02 138.06 C 144.98 138.93 145.65 139.68 146.52 139.73 Z M 147.55 139.78 L 148.53 139.82 C 149.40 139.86 150.14 139.18 150.18 138.31 C 150.22 137.43 149.54 136.69 148.66 136.66 L 147.68 136.61 C 146.81 136.58 146.07 137.26 146.03 138.13 C 145.99 139.00 146.67 139.74 147.55 139.78 Z M 148.54 139.82 L 149.55 139.86 C 150.42 139.89 151.16 139.20 151.19 138.33 C 151.22 137.45 150.53 136.72 149.66 136.69 L 148.65 136.66 C 147.77 136.63 147.04 137.31 147.01 138.19 C 146.98 139.06 147.67 139.79 148.54 139.82 Z M 149.55 139.86 L 150.57 139.89 C 151.44 139.91 152.17 139.23 152.20 138.35 C 152.23 137.48 151.54 136.75 150.67 136.72 L 149.65 136.69 C 148.78 136.66 148.05 137.35 148.02 138.23 C 147.99 139.10 148.68 139.83 149.55 139.86 Z M 150.57 139.89 L 151.58 139.91 C 152.45 139.94 153.18 139.25 153.21 138.38 C 153.23 137.51 152.55 136.78 151.67 136.75 L 150.66 136.72 C 149.79 136.70 149.06 137.39 149.04 138.26 C 149.01 139.13 149.70 139.86 150.57 139.89 Z M 151.58 139.91 L 152.58 139.94 C 153.46 139.96 154.18 139.28 154.21 138.40 C 154.23 137.53 153.54 136.81 152.67 136.78 L 151.67 136.75 C 150.80 136.73 150.07 137.42 150.05 138.29 C 150.02 139.16 150.71 139.89 151.58 139.91 Z M 152.59 139.94 L 153.61 139.96 C 154.48 139.99 155.21 139.30 155.23 138.43 C 155.25 137.56 154.56 136.83 153.69 136.81 L 152.67 136.78 C 151.80 136.76 151.07 137.45 151.05 138.32 C 151.03 139.19 151.72 139.91 152.59 139.94 Z M 153.61 139.96 L 154.58 139.99 C 155.45 140.01 156.17 139.33 156.19 138.46 C 156.22 137.59 155.53 136.87 154.67 136.84 L 153.70 136.82 C 152.83 136.79 152.10 137.48 152.08 138.34 C 152.05 139.21 152.74 139.94 153.61 139.96 Z M 154.57 139.98 L 155.52 140.01 C 156.39 140.04 157.11 139.36 157.14 138.49 C 157.17 137.63 156.49 136.90 155.62 136.88 L 154.67 136.85 C 153.80 136.82 153.08 137.50 153.05 138.37 C 153.03 139.23 153.71 139.96 154.57 139.98 Z M 155.53 140.01 L 156.55 140.03 C 157.42 140.05 158.13 139.37 158.15 138.51 C 158.18 137.65 157.49 136.93 156.63 136.91 L 155.61 136.88 C 154.75 136.86 154.03 137.54 154.01 138.41 C 153.99 139.27 154.67 139.99 155.53 140.01 Z M 156.57 140.03 L 157.59 140.04 C 158.45 140.05 159.15 139.36 159.16 138.50 C 159.17 137.64 158.48 136.94 157.62 136.93 L 156.61 136.91 C 155.75 136.90 155.05 137.59 155.04 138.45 C 155.03 139.31 155.71 140.02 156.57 140.03 Z M 157.60 140.03 L 158.62 140.04 C 159.48 140.04 160.18 139.35 160.18 138.49 C 160.19 137.63 159.49 136.94 158.64 136.93 L 157.61 136.93 C 156.75 136.93 156.06 137.62 156.05 138.48 C 156.05 139.33 156.74 140.03 157.60 140.03 Z M 158.63 140.04 L 159.70 140.04 C 160.55 140.04 161.25 139.34 161.25 138.49 C 161.25 137.63 160.56 136.94 159.70 136.94 L 158.63 136.94 C 157.78 136.94 157.08 137.63 157.08 138.49 C 157.08 139.34 157.77 140.04 158.63 140.04 Z M 159.69 140.05 L 160.86 140.06 C 161.72 140.06 162.43 139.36 162.43 138.50 C 162.43 137.63 161.73 136.93 160.87 136.92 L 159.71 136.92 C 158.84 136.92 158.14 137.61 158.13 138.48 C 158.13 139.34 158.83 140.05 159.69 140.05 Z M 160.57 136.92 L 160.34 136.97 C 159.47 137.13 158.90 137.96 159.06 138.82 C 159.22 139.69 160.05 140.26 160.92 140.10 L 161.15 140.06 C 162.02 139.90 162.59 139.07 162.43 138.20 C 162.27 137.34 161.44 136.76 160.57 136.92 Z M 160.41 136.95 L 159.22 137.11 C 158.35 137.22 157.73 138.03 157.85 138.91 C 157.97 139.79 158.78 140.40 159.65 140.28 L 160.84 140.12 C 161.72 140.00 162.33 139.20 162.22 138.32 C 162.10 137.44 161.29 136.83 160.41 136.95 Z M 159.05 137.15 L 158.08 137.39 C 157.23 137.61 156.71 138.48 156.93 139.33 C 157.14 140.18 158.01 140.70 158.86 140.49 L 159.83 140.24 C 160.68 140.02 161.20 139.16 160.98 138.30 C 160.77 137.45 159.90 136.93 159.05 137.15 Z M 157.97 137.43 L 157.04 137.74 C 156.21 138.02 155.76 138.92 156.03 139.75 C 156.31 140.58 157.21 141.03 158.04 140.75 L 158.97 140.44 C 159.80 140.17 160.25 139.27 159.98 138.44 C 159.70 137.61 158.80 137.16 157.97 137.43 Z M 156.97 137.77 L 156.03 138.12 C 155.21 138.43 154.80 139.35 155.11 140.17 C 155.43 140.99 156.34 141.40 157.16 141.09 L 158.10 140.73 C 158.92 140.42 159.33 139.50 159.02 138.69 C 158.71 137.87 157.79 137.45 156.97 137.77 Z M 156.00 138.13 L 155.06 138.52 C 154.25 138.85 153.86 139.77 154.19 140.59 C 154.52 141.40 155.45 141.79 156.26 141.46 L 157.20 141.08 C 158.01 140.75 158.40 139.82 158.07 139.01 C 157.74 138.20 156.81 137.80 156.00 138.13 Z M 155.05 138.53 L 154.12 138.92 C 153.32 139.26 152.94 140.19 153.28 140.99 C 153.62 141.80 154.55 142.18 155.35 141.84 L 156.28 141.45 C 157.08 141.11 157.46 140.18 157.12 139.37 C 156.78 138.57 155.85 138.19 155.05 138.53 Z M 154.11 138.93 L 153.18 139.34 C 152.39 139.68 152.02 140.61 152.37 141.41 C 152.71 142.20 153.64 142.57 154.44 142.22 L 155.36 141.82 C 156.16 141.48 156.53 140.55 156.18 139.75 C 155.83 138.96 154.91 138.59 154.11 138.93 Z M 153.17 139.34 L 152.26 139.74 C 151.47 140.09 151.11 141.02 151.46 141.82 C 151.81 142.62 152.74 142.98 153.54 142.62 L 154.45 142.22 C 155.24 141.87 155.60 140.94 155.25 140.14 C 154.90 139.35 153.97 138.99 153.17 139.34 Z M 152.25 139.74 L 151.34 140.15 C 150.54 140.51 150.18 141.44 150.54 142.24 C 150.90 143.04 151.84 143.40 152.63 143.04 L 153.55 142.63 C 154.35 142.27 154.70 141.33 154.34 140.53 C 153.99 139.74 153.05 139.38 152.25 139.74 Z M 151.33 140.15 L 150.44 140.55 C 149.64 140.92 149.28 141.86 149.65 142.65 C 150.01 143.45 150.95 143.81 151.75 143.44 L 152.64 143.04 C 153.44 142.68 153.79 141.74 153.43 140.94 C 153.07 140.14 152.13 139.79 151.33 140.15 Z M 150.43 140.56 L 149.51 140.99 C 148.72 141.35 148.37 142.29 148.74 143.09 C 149.11 143.88 150.05 144.22 150.84 143.86 L 151.75 143.43 C 152.55 143.07 152.89 142.13 152.53 141.34 C 152.16 140.54 151.22 140.20 150.43 140.56 Z M 149.50 141.00 L 148.59 141.43 C 147.81 141.81 147.47 142.75 147.85 143.53 C 148.22 144.32 149.16 144.65 149.94 144.28 L 150.85 143.84 C 151.64 143.47 151.97 142.53 151.60 141.75 C 151.22 140.96 150.29 140.63 149.50 141.00 Z M 148.58 141.45 L 147.68 141.89 C 146.90 142.27 146.58 143.21 146.96 143.98 C 147.34 144.76 148.28 145.08 149.05 144.70 L 149.95 144.26 C 150.73 143.88 151.05 142.94 150.67 142.17 C 150.29 141.39 149.36 141.07 148.58 141.45 Z M 147.67 141.91 L 146.78 142.36 C 146.01 142.74 145.70 143.67 146.08 144.43 C 146.46 145.20 147.39 145.51 148.16 145.13 L 149.06 144.68 C 149.82 144.30 150.13 143.37 149.75 142.60 C 149.37 141.84 148.44 141.53 147.67 141.91 Z M 146.77 142.37 L 145.87 142.83 C 145.11 143.21 144.81 144.14 145.19 144.89 C 145.58 145.65 146.50 145.96 147.26 145.57 L 148.16 145.12 C 148.92 144.73 149.22 143.81 148.84 143.05 C 148.46 142.29 147.53 141.99 146.77 142.37 Z M 145.87 142.83 L 144.98 143.28 C 144.23 143.67 143.93 144.59 144.31 145.35 C 144.70 146.10 145.62 146.40 146.38 146.02 L 147.26 145.57 C 148.02 145.18 148.32 144.26 147.93 143.50 C 147.55 142.75 146.62 142.45 145.87 142.83 Z M 144.99 143.29 L 144.09 143.74 C 143.33 144.13 143.03 145.05 143.42 145.80 C 143.80 146.56 144.72 146.86 145.48 146.47 L 146.37 146.02 C 147.13 145.63 147.43 144.71 147.05 143.96 C 146.66 143.20 145.74 142.90 144.99 143.29 Z M 144.09 143.74 L 143.20 144.19 C 142.44 144.57 142.13 145.49 142.52 146.25 C 142.90 147.01 143.82 147.31 144.58 146.93 L 145.47 146.48 C 146.23 146.10 146.53 145.17 146.15 144.42 C 145.77 143.66 144.85 143.36 144.09 143.74 Z M 143.20 144.18 L 142.33 144.61 C 141.56 144.99 141.25 145.91 141.63 146.68 C 142.01 147.44 142.93 147.75 143.69 147.37 L 144.57 146.94 C 145.33 146.56 145.64 145.64 145.27 144.88 C 144.89 144.11 143.96 143.80 143.20 144.18 Z M 142.32 144.61 L 141.44 145.05 C 140.68 145.43 140.37 146.35 140.75 147.12 C 141.13 147.88 142.06 148.19 142.82 147.81 L 143.70 147.37 C 144.46 146.99 144.77 146.07 144.39 145.30 C 144.01 144.54 143.08 144.23 142.32 144.61 Z M 141.40 145.07 L 140.50 145.55 C 139.75 145.96 139.46 146.89 139.87 147.65 C 140.27 148.40 141.21 148.68 141.96 148.28 L 142.86 147.79 C 143.62 147.39 143.90 146.45 143.49 145.70 C 143.09 144.95 142.15 144.66 141.40 145.07 Z M 140.40 145.60 L 139.51 146.17 C 138.78 146.63 138.57 147.58 139.03 148.31 C 139.48 149.03 140.44 149.25 141.16 148.79 L 142.06 148.22 C 142.78 147.77 143.00 146.81 142.54 146.09 C 142.08 145.36 141.13 145.15 140.40 145.60 Z M 139.26 146.36 L 138.56 147.03 C 137.94 147.63 137.92 148.61 138.52 149.23 C 139.12 149.85 140.10 149.87 140.72 149.27 L 141.42 148.60 C 142.03 148.00 142.05 147.02 141.45 146.40 C 140.86 145.78 139.87 145.76 139.26 146.36 Z M 138.15 147.67 L 137.88 148.53 C 137.61 149.35 138.06 150.23 138.89 150.50 C 139.71 150.76 140.59 150.31 140.85 149.49 L 141.13 148.63 C 141.39 147.81 140.94 146.93 140.12 146.66 C 139.29 146.40 138.41 146.85 138.15 147.67 Z M 137.80 149.19 L 137.92 150.19 C 138.02 151.05 138.79 151.67 139.66 151.57 C 140.52 151.47 141.14 150.69 141.04 149.83 L 140.92 148.83 C 140.82 147.97 140.05 147.35 139.18 147.45 C 138.32 147.55 137.70 148.33 137.80 149.19 Z M 137.92 150.27 L 138.09 151.22 C 138.23 152.08 139.05 152.65 139.91 152.51 C 140.76 152.36 141.34 151.54 141.19 150.69 L 141.03 149.74 C 140.88 148.88 140.07 148.31 139.21 148.45 C 138.35 148.60 137.78 149.42 137.92 150.27 Z M 138.07 151.13 L 138.18 152.09 C 138.28 152.96 139.06 153.58 139.93 153.48 C 140.79 153.38 141.42 152.60 141.32 151.73 L 141.21 150.77 C 141.11 149.91 140.32 149.28 139.46 149.38 C 138.59 149.48 137.97 150.27 138.07 151.13 Z M 138.18 152.05 L 138.27 153.13 C 138.35 154.00 139.12 154.64 139.99 154.57 C 140.86 154.49 141.50 153.72 141.42 152.85 L 141.32 151.77 C 141.24 150.90 140.48 150.26 139.61 150.34 C 138.74 150.42 138.10 151.18 138.18 152.05 Z M 138.27 153.13 L 138.35 154.08 C 138.43 154.95 139.19 155.59 140.06 155.52 C 140.93 155.44 141.58 154.68 141.50 153.81 L 141.42 152.86 C 141.35 151.99 140.58 151.34 139.71 151.42 C 138.84 151.49 138.20 152.26 138.27 153.13 Z M 138.35 154.07 L 138.44 155.09 C 138.51 155.96 139.27 156.61 140.14 156.54 C 141.01 156.46 141.66 155.70 141.59 154.83 L 141.50 153.81 C 141.43 152.94 140.67 152.30 139.80 152.37 C 138.93 152.44 138.28 153.20 138.35 154.07 Z M 138.44 155.08 L 138.51 156.11 C 138.58 156.98 139.34 157.63 140.21 157.57 C 141.08 157.50 141.73 156.74 141.67 155.87 L 141.59 154.84 C 141.52 153.97 140.76 153.32 139.89 153.38 C 139.02 153.45 138.37 154.21 138.44 155.08 Z M 138.51 156.09 L 138.58 157.18 C 138.64 158.05 139.39 158.71 140.26 158.65 C 141.13 158.60 141.79 157.84 141.74 156.97 L 141.67 155.89 C 141.61 155.02 140.86 154.36 139.99 154.41 C 139.12 154.47 138.46 155.22 138.51 156.09 Z M 138.58 157.16 L 138.64 158.19 C 138.68 159.06 139.43 159.73 140.30 159.69 C 141.17 159.64 141.84 158.90 141.79 158.02 L 141.74 156.99 C 141.69 156.12 140.95 155.45 140.08 155.50 C 139.20 155.54 138.54 156.29 138.58 157.16 Z M 138.64 158.18 L 138.68 159.11 C 138.72 159.98 139.45 160.65 140.33 160.61 C 141.20 160.57 141.87 159.84 141.83 158.97 L 141.79 158.04 C 141.75 157.17 141.02 156.49 140.14 156.53 C 139.27 156.57 138.60 157.31 138.64 158.18 Z M 138.68 159.10 L 138.72 160.13 C 138.75 161.00 139.48 161.68 140.36 161.65 C 141.23 161.61 141.91 160.88 141.87 160.01 L 141.83 158.97 C 141.80 158.10 141.07 157.42 140.19 157.46 C 139.32 157.49 138.64 158.22 138.68 159.10 Z M 138.72 160.11 L 138.75 161.07 C 138.77 161.95 139.50 162.63 140.37 162.61 C 141.24 162.58 141.93 161.85 141.90 160.98 L 141.87 160.02 C 141.85 159.15 141.12 158.46 140.25 158.49 C 139.38 158.52 138.69 159.24 138.72 160.11 Z M 138.75 161.05 L 138.76 162.02 C 138.77 162.89 139.49 163.58 140.36 163.57 C 141.23 163.56 141.93 162.84 141.91 161.97 L 141.90 161.01 C 141.89 160.13 141.17 159.44 140.30 159.45 C 139.43 159.47 138.73 160.18 138.75 161.05 Z M 138.76 162.00 L 138.77 163.00 C 138.77 163.87 139.48 164.57 140.35 164.57 C 141.21 164.56 141.92 163.86 141.91 162.99 L 141.91 161.99 C 141.91 161.12 141.20 160.42 140.33 160.42 C 139.46 160.42 138.76 161.13 138.76 162.00 Z M 138.77 162.99 L 138.77 163.99 C 138.77 164.86 139.47 165.56 140.34 165.56 C 141.21 165.56 141.91 164.86 141.91 163.99 L 141.91 162.99 C 141.91 162.12 141.21 161.42 140.34 161.42 C 139.47 161.42 138.77 162.12 138.77 162.99 Z M 138.77 163.99 L 138.77 164.99 C 138.77 165.86 139.47 166.56 140.34 166.56 C 141.21 166.56 141.91 165.86 141.91 164.99 L 141.91 163.99 C 141.91 163.12 141.21 162.42 140.34 162.42 C 139.47 162.42 138.77 163.12 138.77 163.99 Z M 138.77 164.99 L 138.77 165.99 C 138.77 166.86 139.47 167.56 140.34 167.56 C 141.21 167.56 141.91 166.86 141.91 165.99 L 141.91 164.99 C 141.91 164.12 141.21 163.42 140.34 163.42 C 139.47 163.42 138.77 164.12 138.77 164.99 Z M 138.78 165.99 L 138.78 166.99 C 138.78 167.85 139.48 168.56 140.34 168.56 C 141.20 168.56 141.91 167.85 141.91 166.99 L 141.91 165.99 C 141.91 165.13 141.20 164.43 140.34 164.43 C 139.48 164.43 138.78 165.13 138.78 165.99 Z M 138.78 166.99 L 138.78 168.01 C 138.78 168.87 139.48 169.57 140.34 169.57 C 141.20 169.57 141.90 168.87 141.90 168.01 L 141.90 166.99 C 141.90 166.13 141.20 165.43 140.34 165.43 C 139.48 165.43 138.78 166.13 138.78 166.99 Z M 138.79 168.01 L 138.79 169.00 C 138.79 169.85 139.48 170.55 140.34 170.55 C 141.20 170.55 141.89 169.85 141.89 169.00 L 141.89 168.01 C 141.89 167.15 141.20 166.45 140.34 166.45 C 139.48 166.45 138.79 167.15 138.79 168.01 Z M 138.79 169.00 L 138.79 170.00 C 138.79 170.85 139.49 171.54 140.34 171.54 C 141.19 171.54 141.89 170.85 141.89 170.00 L 141.89 169.00 C 141.89 168.14 141.19 167.45 140.34 167.45 C 139.49 167.45 138.79 168.14 138.79 169.00 Z M 138.81 170.00 L 138.81 170.95 C 138.81 171.80 139.49 172.49 140.34 172.49 C 141.19 172.49 141.88 171.80 141.88 170.95 L 141.88 170.00 C 141.88 169.15 141.19 168.46 140.34 168.46 C 139.49 168.46 138.81 169.15 138.81 170.00 Z M 138.82 170.96 L 138.83 171.97 C 138.83 172.81 139.52 173.49 140.36 173.48 C 141.20 173.48 141.87 172.79 141.87 171.95 L 141.86 170.94 C 141.86 170.10 141.17 169.43 140.33 169.43 C 139.49 169.44 138.81 170.12 138.82 170.96 Z M 138.84 171.99 L 138.86 172.97 C 138.87 173.80 139.56 174.46 140.39 174.45 C 141.22 174.43 141.89 173.75 141.87 172.91 L 141.86 171.94 C 141.84 171.10 141.15 170.44 140.32 170.45 C 139.49 170.47 138.82 171.16 138.84 171.99 Z M 138.87 172.98 L 138.89 174.00 C 138.91 174.82 139.60 175.48 140.42 175.46 C 141.25 175.44 141.91 174.75 141.89 173.92 L 141.86 172.90 C 141.84 172.08 141.16 171.42 140.33 171.44 C 139.50 171.46 138.85 172.15 138.87 172.98 Z M 138.90 174.00 L 138.91 174.57 C 138.93 175.39 139.62 176.04 140.44 176.02 C 141.26 176.00 141.91 175.32 141.89 174.50 L 141.88 173.92 C 141.86 173.10 141.17 172.45 140.35 172.47 C 139.53 172.49 138.88 173.17 138.90 174.00 Z"
      fill="black"
      fill-rule="nonzero" /><path d="M 144.11 152.18 L 145.05 152.10 C 145.87 152.02 146.48 151.29 146.40 150.47 C 146.32 149.65 145.60 149.04 144.77 149.12 L 143.83 149.20 C 143.01 149.28 142.40 150.01 142.48 150.83 C 142.56 151.65 143.28 152.26 144.11 152.18 Z M 145.01 152.16 L 146.04 152.09 C 146.90 152.03 147.55 151.29 147.49 150.44 C 147.43 149.58 146.69 148.93 145.84 148.99 L 144.81 149.06 C 143.95 149.11 143.30 149.85 143.36 150.71 C 143.42 151.57 144.16 152.21 145.01 152.16 Z M 145.99 152.13 L 147.00 152.09 C 147.88 152.07 148.57 151.33 148.54 150.46 C 148.52 149.58 147.78 148.89 146.91 148.92 L 145.89 148.95 C 145.01 148.98 144.32 149.71 144.35 150.59 C 144.38 151.46 145.11 152.15 145.99 152.13 Z M 146.97 152.10 L 148.00 152.09 C 148.88 152.08 149.59 151.36 149.58 150.48 C 149.57 149.60 148.85 148.89 147.97 148.90 L 146.94 148.91 C 146.06 148.92 145.35 149.64 145.36 150.52 C 145.37 151.40 146.09 152.11 146.97 152.10 Z M 147.98 152.09 L 148.98 152.09 C 149.87 152.09 150.58 151.37 150.58 150.49 C 150.58 149.61 149.86 148.90 148.98 148.90 L 147.98 148.90 C 147.10 148.90 146.39 149.62 146.39 150.50 C 146.39 151.38 147.10 152.09 147.98 152.09 Z M 148.98 152.09 L 150.01 152.09 C 150.89 152.09 151.60 151.38 151.60 150.50 C 151.61 149.62 150.89 148.90 150.01 148.90 L 148.99 148.90 C 148.10 148.90 147.39 149.61 147.39 150.49 C 147.39 151.37 148.10 152.09 148.98 152.09 Z M 149.99 152.09 L 150.94 152.10 C 151.82 152.11 152.55 151.41 152.56 150.53 C 152.57 149.64 151.86 148.92 150.98 148.91 L 150.03 148.90 C 149.15 148.89 148.42 149.60 148.41 150.48 C 148.40 151.36 149.11 152.08 149.99 152.09 Z M 150.92 152.10 L 151.89 152.13 C 152.77 152.15 153.51 151.46 153.53 150.58 C 153.55 149.70 152.86 148.96 151.98 148.94 L 151.00 148.92 C 150.12 148.89 149.39 149.59 149.37 150.47 C 149.34 151.35 150.04 152.08 150.92 152.10 Z M 151.86 152.12 L 152.88 152.17 C 153.76 152.21 154.50 151.53 154.54 150.65 C 154.58 149.78 153.91 149.03 153.03 148.99 L 152.01 148.95 C 151.13 148.91 150.39 149.58 150.35 150.46 C 150.31 151.34 150.99 152.08 151.86 152.12 Z M 152.85 152.16 L 153.83 152.23 C 154.70 152.29 155.46 151.63 155.52 150.76 C 155.58 149.88 154.92 149.13 154.04 149.07 L 153.06 149.00 C 152.19 148.94 151.43 149.60 151.37 150.47 C 151.31 151.35 151.97 152.10 152.85 152.16 Z M 153.79 152.22 L 154.80 152.31 C 155.67 152.39 156.43 151.75 156.51 150.88 C 156.59 150.01 155.95 149.24 155.08 149.16 L 154.08 149.07 C 153.21 149.00 152.44 149.64 152.36 150.51 C 152.28 151.38 152.92 152.15 153.79 152.22 Z M 154.77 152.31 L 155.78 152.42 C 156.64 152.51 157.42 151.88 157.52 151.02 C 157.61 150.15 156.98 149.37 156.12 149.28 L 155.11 149.17 C 154.24 149.08 153.46 149.70 153.37 150.57 C 153.27 151.44 153.90 152.21 154.77 152.31 Z M 155.75 152.41 L 156.75 152.54 C 157.62 152.64 158.41 152.03 158.51 151.17 C 158.62 150.30 158.01 149.51 157.14 149.41 L 156.14 149.28 C 155.28 149.17 154.49 149.79 154.38 150.65 C 154.27 151.52 154.89 152.30 155.75 152.41 Z M 156.73 152.53 L 157.71 152.67 C 158.57 152.80 159.37 152.20 159.50 151.33 C 159.62 150.47 159.02 149.67 158.16 149.55 L 157.17 149.41 C 156.31 149.29 155.51 149.89 155.39 150.75 C 155.26 151.61 155.86 152.41 156.73 152.53 Z M 157.68 152.67 L 158.69 152.84 C 159.55 152.98 160.36 152.40 160.50 151.54 C 160.65 150.68 160.06 149.87 159.20 149.72 L 158.19 149.56 C 157.33 149.41 156.52 150.00 156.38 150.85 C 156.24 151.71 156.82 152.53 157.68 152.67 Z M 158.65 152.83 L 159.61 153.01 C 160.47 153.17 161.30 152.61 161.46 151.75 C 161.62 150.90 161.06 150.07 160.20 149.91 L 159.24 149.73 C 158.38 149.57 157.56 150.13 157.40 150.99 C 157.24 151.84 157.80 152.67 158.65 152.83 Z M 159.58 153.00 L 160.57 153.21 C 161.42 153.39 162.26 152.85 162.44 151.99 C 162.62 151.14 162.07 150.31 161.22 150.13 L 160.23 149.92 C 159.38 149.74 158.55 150.29 158.37 151.14 C 158.19 151.99 158.73 152.82 159.58 153.00 Z M 160.55 153.20 L 161.51 153.42 C 162.36 153.61 163.20 153.09 163.39 152.24 C 163.59 151.40 163.06 150.56 162.21 150.36 L 161.25 150.14 C 160.40 149.95 159.56 150.47 159.37 151.32 C 159.17 152.16 159.70 153.01 160.55 153.20 Z M 161.49 153.41 L 162.48 153.65 C 163.32 153.85 164.17 153.34 164.37 152.50 C 164.57 151.66 164.06 150.82 163.22 150.61 L 162.23 150.37 C 161.39 150.17 160.55 150.68 160.34 151.52 C 160.14 152.36 160.65 153.21 161.49 153.41 Z M 162.47 153.64 L 163.42 153.88 C 164.26 154.09 165.10 153.58 165.31 152.75 C 165.52 151.92 165.02 151.07 164.18 150.86 L 163.23 150.62 C 162.40 150.41 161.55 150.92 161.34 151.75 C 161.13 152.59 161.64 153.43 162.47 153.64 Z M 163.42 153.87 L 164.33 154.11 C 165.16 154.32 166.00 153.82 166.22 152.99 C 166.43 152.16 165.93 151.32 165.10 151.10 L 164.19 150.87 C 163.36 150.66 162.52 151.16 162.30 151.99 C 162.09 152.81 162.59 153.66 163.42 153.87 Z M 164.28 154.09 L 165.29 154.38 C 166.11 154.62 166.97 154.15 167.20 153.33 C 167.44 152.51 166.97 151.65 166.15 151.41 L 165.15 151.12 C 164.33 150.88 163.47 151.35 163.23 152.17 C 162.99 152.99 163.47 153.85 164.28 154.09 Z M 165.22 154.36 L 166.17 154.68 C 166.98 154.95 167.85 154.52 168.13 153.72 C 168.40 152.91 167.97 152.03 167.16 151.76 L 166.22 151.44 C 165.41 151.16 164.53 151.59 164.26 152.40 C 163.99 153.21 164.42 154.08 165.22 154.36 Z M 166.08 154.64 L 167.03 155.03 C 167.82 155.35 168.71 154.98 169.04 154.19 C 169.36 153.41 168.98 152.51 168.20 152.18 L 167.25 151.80 C 166.47 151.47 165.57 151.85 165.25 152.64 C 164.92 153.42 165.30 154.32 166.08 154.64 Z M 166.84 154.94 L 167.73 155.45 C 168.47 155.88 169.41 155.62 169.83 154.89 C 170.26 154.15 170.00 153.21 169.27 152.79 L 168.38 152.28 C 167.65 151.85 166.71 152.10 166.28 152.84 C 165.86 153.57 166.11 154.51 166.84 154.94 Z M 167.38 155.17 L 168.03 155.86 C 168.60 156.49 169.58 156.52 170.20 155.94 C 170.82 155.36 170.85 154.39 170.27 153.77 L 169.62 153.07 C 169.05 152.45 168.07 152.42 167.45 153.00 C 166.83 153.58 166.80 154.55 167.38 155.17 Z M 167.75 155.47 L 168.16 156.34 C 168.52 157.11 169.44 157.44 170.21 157.08 C 170.98 156.72 171.31 155.80 170.95 155.03 L 170.55 154.16 C 170.19 153.39 169.27 153.06 168.50 153.42 C 167.72 153.78 167.39 154.70 167.75 155.47 Z M 168.05 156.08 L 168.31 157.08 C 168.53 157.91 169.39 158.40 170.22 158.18 C 171.05 157.96 171.54 157.11 171.32 156.28 L 171.06 155.29 C 170.84 154.46 169.99 153.96 169.16 154.18 C 168.33 154.40 167.83 155.25 168.05 156.08 Z M 168.27 156.91 L 168.42 157.89 C 168.55 158.75 169.34 159.33 170.20 159.21 C 171.05 159.08 171.64 158.28 171.51 157.43 L 171.36 156.45 C 171.24 155.59 170.44 155.00 169.59 155.13 C 168.73 155.26 168.14 156.06 168.27 156.91 Z M 168.40 157.77 L 168.47 158.77 C 168.53 159.63 169.28 160.28 170.15 160.22 C 171.01 160.16 171.66 159.41 171.60 158.55 L 171.53 157.55 C 171.47 156.69 170.72 156.03 169.86 156.10 C 168.99 156.16 168.34 156.91 168.40 157.77 Z M 168.47 158.70 L 168.49 159.68 C 168.51 160.55 169.24 161.23 170.10 161.21 C 170.97 161.19 171.65 160.47 171.63 159.60 L 171.61 158.62 C 171.58 157.75 170.86 157.06 169.99 157.09 C 169.13 157.11 168.44 157.83 168.47 158.70 Z M 168.49 159.65 L 168.49 160.65 C 168.50 161.52 169.20 162.22 170.07 162.22 C 170.94 162.21 171.64 161.51 171.63 160.64 L 171.63 159.64 C 171.63 158.77 170.92 158.07 170.06 158.07 C 169.19 158.07 168.49 158.78 168.49 159.65 Z M 168.49 160.63 L 168.48 161.67 C 168.47 162.54 169.16 163.25 170.03 163.26 C 170.90 163.27 171.61 162.58 171.62 161.71 L 171.63 160.67 C 171.65 159.80 170.95 159.09 170.08 159.08 C 169.22 159.07 168.51 159.76 168.49 160.63 Z M 168.48 161.65 L 168.45 162.69 C 168.43 163.55 169.11 164.28 169.98 164.30 C 170.85 164.32 171.57 163.64 171.59 162.77 L 171.62 161.73 C 171.65 160.87 170.96 160.14 170.09 160.12 C 169.23 160.10 168.50 160.78 168.48 161.65 Z M 168.45 162.65 L 168.40 163.59 C 168.36 164.46 169.03 165.20 169.90 165.24 C 170.77 165.28 171.50 164.61 171.55 163.75 L 171.59 162.81 C 171.64 161.94 170.97 161.20 170.10 161.16 C 169.23 161.12 168.49 161.78 168.45 162.65 Z M 168.41 163.53 L 168.33 164.41 C 168.25 165.28 168.89 166.04 169.76 166.12 C 170.62 166.20 171.39 165.56 171.46 164.70 L 171.54 163.81 C 171.62 162.95 170.98 162.18 170.12 162.10 C 169.25 162.02 168.49 162.66 168.41 163.53 Z M 168.34 164.34 L 168.19 165.39 C 168.07 166.25 168.67 167.04 169.53 167.16 C 170.39 167.28 171.19 166.68 171.31 165.82 L 171.45 164.77 C 171.57 163.91 170.97 163.12 170.11 163.00 C 169.25 162.88 168.46 163.48 168.34 164.34 Z M 168.20 165.36 L 168.05 166.30 C 167.91 167.16 168.50 167.96 169.35 168.10 C 170.21 168.24 171.01 167.65 171.15 166.80 L 171.30 165.85 C 171.44 164.99 170.85 164.19 170.00 164.05 C 169.14 163.92 168.34 164.50 168.20 165.36 Z M 168.05 166.29 L 167.88 167.28 C 167.74 168.14 168.32 168.95 169.17 169.09 C 170.03 169.24 170.83 168.66 170.98 167.80 L 171.15 166.81 C 171.29 165.95 170.71 165.14 169.86 165.00 C 169.01 164.86 168.20 165.43 168.05 166.29 Z M 167.89 167.27 L 167.70 168.31 C 167.55 169.17 168.12 169.98 168.97 170.13 C 169.82 170.28 170.64 169.71 170.79 168.86 L 170.98 167.82 C 171.13 166.97 170.56 166.15 169.71 166.00 C 168.85 165.85 168.04 166.42 167.89 167.27 Z M 167.71 168.30 L 167.51 169.35 C 167.35 170.19 167.90 171.01 168.75 171.18 C 169.60 171.34 170.42 170.78 170.58 169.93 L 170.78 168.88 C 170.95 168.03 170.39 167.21 169.54 167.05 C 168.69 166.89 167.87 167.45 167.71 168.30 Z M 167.52 169.32 L 167.29 170.42 C 167.12 171.27 167.66 172.09 168.50 172.27 C 169.34 172.44 170.16 171.90 170.34 171.06 L 170.57 169.96 C 170.75 169.11 170.21 168.29 169.36 168.11 C 168.52 167.94 167.70 168.48 167.52 169.32 Z M 167.31 170.40 L 167.10 171.33 C 166.91 172.17 167.43 172.99 168.26 173.18 C 169.09 173.37 169.92 172.85 170.11 172.02 L 170.32 171.09 C 170.51 170.26 169.99 169.43 169.16 169.24 C 168.33 169.05 167.50 169.57 167.31 170.40 Z M 167.12 171.31 L 166.90 172.19 C 166.70 173.01 167.20 173.84 168.02 174.04 C 168.84 174.25 169.67 173.75 169.87 172.93 L 170.09 172.04 C 170.29 171.22 169.79 170.40 168.97 170.19 C 168.15 169.99 167.32 170.49 167.12 171.31 Z M 166.94 172.13 L 166.66 173.08 C 166.42 173.88 166.88 174.72 167.68 174.96 C 168.48 175.19 169.32 174.73 169.55 173.93 L 169.83 172.99 C 170.07 172.19 169.61 171.35 168.81 171.11 C 168.01 170.88 167.17 171.33 166.94 172.13 Z M 166.73 172.93 L 166.37 173.79 C 166.05 174.55 166.40 175.42 167.16 175.74 C 167.91 176.06 168.79 175.71 169.11 174.95 L 169.48 174.09 C 169.80 173.33 169.45 172.46 168.69 172.14 C 167.93 171.81 167.06 172.17 166.73 172.93 Z M 166.44 173.68 L 165.97 174.57 C 165.58 175.29 165.86 176.18 166.58 176.56 C 167.30 176.94 168.19 176.67 168.57 175.95 L 169.04 175.06 C 169.42 174.34 169.15 173.45 168.43 173.07 C 167.71 172.69 166.82 172.96 166.44 173.68 Z M 165.99 174.54 L 165.69 175.07 C 165.29 175.78 165.54 176.67 166.25 177.07 C 166.95 177.47 167.84 177.22 168.24 176.51 L 168.54 175.98 C 168.94 175.27 168.69 174.38 167.99 173.98 C 167.28 173.59 166.39 173.83 165.99 174.54 Z"
      fill="black"
      fill-rule="nonzero" /><path d="M 151.11 153.56 L 150.53 154.36 C 150.03 155.04 150.19 155.99 150.87 156.49 C 151.55 156.98 152.50 156.83 153.00 156.15 L 153.57 155.35 C 154.07 154.67 153.92 153.72 153.23 153.22 C 152.55 152.73 151.60 152.88 151.11 153.56 Z M 150.33 154.60 L 149.91 155.51 C 149.55 156.30 149.89 157.23 150.68 157.60 C 151.47 157.96 152.40 157.61 152.77 156.83 L 153.19 155.91 C 153.55 155.12 153.21 154.19 152.42 153.83 C 151.63 153.46 150.70 153.81 150.33 154.60 Z M 149.77 155.91 L 149.61 156.89 C 149.46 157.76 150.05 158.58 150.92 158.72 C 151.79 158.86 152.61 158.28 152.75 157.41 L 152.91 156.43 C 153.06 155.56 152.47 154.74 151.60 154.59 C 150.73 154.45 149.91 155.04 149.77 155.91 Z M 149.58 157.10 L 149.56 158.11 C 149.53 158.99 150.22 159.73 151.11 159.75 C 151.99 159.78 152.72 159.08 152.75 158.20 L 152.78 157.19 C 152.80 156.31 152.11 155.58 151.23 155.55 C 150.34 155.53 149.61 156.22 149.58 157.10 Z M 149.56 158.16 L 149.56 159.18 C 149.56 160.06 150.27 160.77 151.15 160.77 C 152.03 160.77 152.74 160.06 152.74 159.18 L 152.74 158.16 C 152.74 157.28 152.03 156.57 151.15 156.57 C 150.27 156.57 149.56 157.28 149.56 158.16 Z M 149.57 159.18 L 149.57 160.15 C 149.57 161.03 150.28 161.74 151.15 161.74 C 152.02 161.74 152.73 161.03 152.73 160.15 L 152.73 159.18 C 152.73 158.31 152.02 157.60 151.15 157.60 C 150.28 157.60 149.57 158.31 149.57 159.18 Z M 149.58 160.15 L 149.58 161.12 C 149.58 161.99 150.28 162.70 151.15 162.70 C 152.02 162.70 152.72 161.99 152.72 161.12 L 152.72 160.15 C 152.72 159.28 152.02 158.58 151.15 158.58 C 150.28 158.58 149.58 159.28 149.58 160.15 Z M 149.59 161.12 L 149.59 162.15 C 149.59 163.02 150.29 163.72 151.15 163.72 C 152.01 163.72 152.72 163.02 152.72 162.15 L 152.72 161.12 C 152.72 160.26 152.01 159.56 151.15 159.56 C 150.29 159.56 149.59 160.26 149.59 161.12 Z M 149.60 162.15 L 149.60 163.14 C 149.60 164.00 150.29 164.69 151.15 164.69 C 152.01 164.69 152.71 164.00 152.71 163.14 L 152.71 162.15 C 152.71 161.29 152.01 160.60 151.15 160.60 C 150.29 160.60 149.60 161.29 149.60 162.15 Z M 149.61 163.14 L 149.61 164.15 C 149.61 165.00 150.30 165.69 151.15 165.69 C 152.00 165.69 152.69 165.00 152.69 164.15 L 152.69 163.14 C 152.69 162.29 152.00 161.60 151.15 161.60 C 150.30 161.60 149.61 162.29 149.61 163.14 Z M 149.62 164.15 L 149.62 165.16 C 149.62 166.01 150.30 166.69 151.15 166.69 C 152.00 166.69 152.68 166.01 152.68 165.16 L 152.68 164.15 C 152.68 163.30 152.00 162.62 151.15 162.62 C 150.30 162.62 149.62 163.30 149.62 164.15 Z M 149.63 165.16 L 149.63 166.16 C 149.63 167.00 150.31 167.68 151.15 167.68 C 151.99 167.68 152.67 167.00 152.67 166.16 L 152.67 165.16 C 152.67 164.32 151.99 163.64 151.15 163.64 C 150.31 163.64 149.63 164.32 149.63 165.16 Z M 149.64 166.16 L 149.64 167.17 C 149.64 168.00 150.32 168.68 151.15 168.68 C 151.98 168.68 152.66 168.00 152.66 167.17 L 152.66 166.16 C 152.66 165.32 151.98 164.65 151.15 164.65 C 150.32 164.65 149.64 165.32 149.64 166.16 Z M 149.66 167.17 L 149.66 168.16 C 149.66 168.99 150.33 169.66 151.15 169.66 C 151.98 169.66 152.65 168.99 152.65 168.16 L 152.65 167.17 C 152.65 166.34 151.98 165.68 151.15 165.68 C 150.33 165.68 149.66 166.34 149.66 167.17 Z M 149.67 168.16 L 149.67 169.12 C 149.67 169.94 150.33 170.60 151.15 170.60 C 151.97 170.60 152.63 169.94 152.63 169.12 L 152.63 168.16 C 152.63 167.34 151.97 166.68 151.15 166.68 C 150.33 166.68 149.67 167.35 149.67 168.16 Z M 149.68 169.13 L 149.69 170.13 C 149.69 170.94 150.35 171.59 151.16 171.59 C 151.98 171.59 152.63 170.92 152.63 170.11 L 152.62 169.11 C 152.62 168.30 151.96 167.65 151.14 167.65 C 150.33 167.66 149.68 168.32 149.68 169.13 Z M 149.70 170.14 L 149.71 171.17 C 149.73 171.97 150.39 172.62 151.20 172.60 C 152.00 172.59 152.65 171.92 152.63 171.12 L 152.62 170.10 C 152.60 169.29 151.94 168.65 151.13 168.66 C 150.33 168.67 149.68 169.34 149.70 170.14 Z M 149.72 171.22 L 149.78 172.24 C 149.82 173.04 150.50 173.66 151.30 173.62 C 152.10 173.58 152.72 172.89 152.68 172.09 L 152.62 171.07 C 152.58 170.27 151.90 169.65 151.10 169.69 C 150.30 169.73 149.68 170.42 149.72 171.22 Z M 149.79 172.36 L 149.93 173.36 C 150.04 174.15 150.76 174.70 151.55 174.60 C 152.34 174.49 152.90 173.76 152.79 172.97 L 152.66 171.97 C 152.55 171.18 151.82 170.63 151.03 170.73 C 150.24 170.84 149.69 171.57 149.79 172.36 Z M 149.98 173.55 L 150.25 174.53 C 150.46 175.29 151.25 175.74 152.02 175.53 C 152.78 175.31 153.23 174.52 153.02 173.76 L 152.74 172.78 C 152.53 172.02 151.74 171.57 150.98 171.78 C 150.21 172.00 149.76 172.79 149.98 173.55 Z M 150.29 174.64 L 150.54 175.30 C 150.81 176.04 151.63 176.42 152.37 176.14 C 153.11 175.87 153.49 175.05 153.22 174.31 L 152.97 173.65 C 152.70 172.91 151.88 172.53 151.14 172.80 C 150.40 173.08 150.02 173.90 150.29 174.64 Z"
      fill="black"
      fill-rule="nonzero" /><path d="M 156.99 152.87 L 156.99 153.92 C 156.99 154.78 157.68 155.47 158.53 155.47 C 159.39 155.47 160.08 154.78 160.08 153.92 L 160.08 152.87 C 160.08 152.02 159.39 151.33 158.53 151.33 C 157.68 151.33 156.99 152.02 156.99 152.87 Z M 156.95 153.92 L 156.95 154.91 C 156.95 155.78 157.66 156.49 158.53 156.49 C 159.41 156.49 160.12 155.78 160.12 154.91 L 160.12 153.92 C 160.12 153.05 159.41 152.34 158.53 152.34 C 157.66 152.34 156.95 153.05 156.95 153.92 Z M 156.92 154.91 L 156.92 155.91 C 156.92 156.80 157.64 157.53 158.53 157.53 C 159.43 157.53 160.15 156.80 160.15 155.91 L 160.15 154.91 C 160.15 154.02 159.43 153.29 158.53 153.29 C 157.64 153.29 156.92 154.02 156.92 154.91 Z M 156.91 155.91 L 156.91 156.88 C 156.91 157.77 157.64 158.50 158.53 158.50 C 159.43 158.50 160.15 157.77 160.15 156.88 L 160.15 155.91 C 160.15 155.02 159.43 154.29 158.53 154.29 C 157.64 154.29 156.91 155.02 156.91 155.91 Z M 156.92 156.88 L 156.92 157.84 C 156.92 158.73 157.64 159.46 158.53 159.46 C 159.42 159.46 160.15 158.73 160.15 157.84 L 160.15 156.88 C 160.15 155.99 159.42 155.27 158.53 155.27 C 157.64 155.27 156.92 155.99 156.92 156.88 Z M 156.93 157.84 L 156.93 158.87 C 156.93 159.75 157.65 160.47 158.53 160.47 C 159.42 160.47 160.14 159.75 160.14 158.87 L 160.14 157.84 C 160.14 156.96 159.42 156.24 158.53 156.24 C 157.65 156.24 156.93 156.96 156.93 157.84 Z M 156.93 158.86 L 156.93 159.84 C 156.93 160.72 157.65 161.44 158.53 161.44 C 159.41 161.44 160.13 160.72 160.13 159.84 L 160.13 158.87 C 160.13 157.98 159.42 157.27 158.53 157.27 C 157.65 157.27 156.94 157.98 156.93 158.86 Z M 156.95 159.83 L 156.94 160.85 C 156.93 161.72 157.64 162.44 158.52 162.44 C 159.39 162.45 160.11 161.74 160.11 160.87 L 160.12 159.85 C 160.13 158.97 159.42 158.26 158.54 158.25 C 157.67 158.25 156.95 158.95 156.95 159.83 Z M 156.95 160.83 L 156.94 161.83 C 156.92 162.70 157.62 163.41 158.49 163.42 C 159.36 163.44 160.07 162.74 160.08 161.88 L 160.10 160.88 C 160.11 160.01 159.42 159.30 158.55 159.28 C 157.68 159.27 156.97 159.96 156.95 160.83 Z M 156.95 161.81 L 156.93 162.82 C 156.91 163.68 157.59 164.40 158.45 164.42 C 159.31 164.44 160.03 163.75 160.05 162.89 L 160.07 161.89 C 160.09 161.03 159.41 160.31 158.55 160.29 C 157.69 160.27 156.97 160.95 156.95 161.81 Z M 156.95 162.82 L 156.92 163.83 C 156.90 164.68 157.57 165.39 158.42 165.41 C 159.27 165.44 159.98 164.77 160.00 163.91 L 160.03 162.90 C 160.05 162.05 159.38 161.34 158.53 161.32 C 157.68 161.29 156.97 161.96 156.95 162.82 Z M 156.94 163.83 L 156.91 164.83 C 156.88 165.67 157.55 166.37 158.39 166.39 C 159.23 166.42 159.93 165.76 159.95 164.92 L 159.98 163.92 C 160.01 163.08 159.35 162.37 158.50 162.35 C 157.66 162.32 156.96 162.99 156.94 163.83 Z M 156.93 164.83 L 156.90 165.83 C 156.87 166.66 157.53 167.35 158.36 167.37 C 159.19 167.40 159.88 166.74 159.91 165.91 L 159.94 164.91 C 159.96 164.08 159.31 163.39 158.47 163.37 C 157.64 163.34 156.95 164.00 156.93 164.83 Z M 156.91 165.83 L 156.89 166.82 C 156.87 167.64 157.51 168.32 158.34 168.35 C 159.16 168.37 159.84 167.72 159.86 166.90 L 159.89 165.91 C 159.91 165.09 159.26 164.41 158.44 164.38 C 157.62 164.36 156.94 165.01 156.91 165.83 Z M 156.90 166.82 L 156.88 167.82 C 156.86 168.64 157.50 169.31 158.31 169.33 C 159.13 169.35 159.80 168.71 159.82 167.90 L 159.85 166.90 C 159.87 166.08 159.23 165.41 158.41 165.39 C 157.60 165.37 156.92 166.01 156.90 166.82 Z M 156.89 167.82 L 156.87 168.83 C 156.85 169.63 157.48 170.30 158.29 170.32 C 159.09 170.34 159.76 169.70 159.78 168.90 L 159.81 167.90 C 159.83 167.09 159.19 166.42 158.39 166.40 C 157.58 166.38 156.91 167.02 156.89 167.82 Z M 156.88 168.83 L 156.86 169.82 C 156.84 170.62 157.47 171.29 158.27 171.30 C 159.07 171.32 159.73 170.69 159.75 169.89 L 159.77 168.90 C 159.79 168.10 159.16 167.43 158.36 167.42 C 157.56 167.40 156.90 168.03 156.88 168.83 Z M 156.86 169.83 L 156.84 170.84 C 156.83 171.63 157.46 172.29 158.26 172.31 C 159.05 172.32 159.71 171.69 159.73 170.89 L 159.74 169.88 C 159.76 169.09 159.12 168.43 158.33 168.42 C 157.53 168.40 156.88 169.04 156.86 169.83 Z M 156.85 170.85 L 156.84 171.85 C 156.83 172.65 157.47 173.29 158.26 173.30 C 159.05 173.31 159.70 172.68 159.71 171.88 L 159.72 170.88 C 159.73 170.09 159.09 169.44 158.30 169.43 C 157.51 169.42 156.86 170.06 156.85 170.85 Z M 156.84 171.86 L 156.84 172.86 C 156.84 173.65 157.48 174.30 158.27 174.30 C 159.06 174.30 159.70 173.67 159.70 172.88 L 159.71 171.87 C 159.71 171.08 159.07 170.44 158.28 170.44 C 157.49 170.43 156.85 171.07 156.84 171.86 Z M 156.84 172.87 L 156.84 173.87 C 156.84 174.66 157.48 175.30 158.27 175.30 C 159.06 175.30 159.70 174.66 159.70 173.87 L 159.70 172.87 C 159.70 172.08 159.06 171.44 158.27 171.44 C 157.48 171.44 156.84 172.08 156.84 172.87 Z M 156.84 173.87 L 156.84 174.87 C 156.84 175.66 157.48 176.30 158.27 176.30 C 159.06 176.30 159.70 175.66 159.70 174.87 L 159.70 173.87 C 159.70 173.08 159.06 172.44 158.27 172.44 C 157.48 172.44 156.84 173.08 156.84 173.87 Z M 156.85 174.87 L 156.85 175.87 C 156.85 176.66 157.48 177.30 158.27 177.30 C 159.06 177.30 159.70 176.66 159.70 175.87 L 159.70 174.87 C 159.70 174.09 159.06 173.45 158.27 173.45 C 157.48 173.45 156.85 174.09 156.85 174.87 Z M 156.85 175.87 L 156.85 176.51 C 156.85 177.30 157.48 177.94 158.27 177.94 C 159.06 177.94 159.70 177.30 159.70 176.51 L 159.70 175.87 C 159.70 175.08 159.06 174.45 158.27 174.45 C 157.48 174.45 156.85 175.08 156.85 175.87 Z"
      fill="black"
      fill-rule="nonzero" /></svg>