<svg xmlns="http://www.w3.org/2000/svg" width="300" height="300" viewBox="0 0 300 300">
<path d="M 150.29 118.81 L 150.26 119.71 C 150.22 120.55 150.87 121.26 151.71 121.30 C 152.55 121.33 153.26 120.68 153.30 119.84 L 153.33 118.94 C 153.37 118.10 152.72 117.39 151.88 117.36 C 151.04 117.32 150.33 117.97 150.29 118.81 Z M 150.24 119.74 L 150.22 120.82 C 150.20 121.67 150.87 122.37 151.71 122.40 C 152.56 122.42 153.26 121.74 153.28 120.90 L 153.31 119.81 C 153.33 118.97 152.66 118.26 151.81 118.24 C 150.97 118.22 150.26 118.89 150.24 119.74 Z M 150.21 120.85 L 150.20 121.83 C 150.19 122.68 150.88 123.38 151.73 123.38 C 152.58 123.39 153.27 122.71 153.28 121.86 L 153.29 120.87 C 153.30 120.02 152.61 119.33 151.76 119.32 C 150.91 119.31 150.22 120.00 150.21 120.85 Z M 150.20 121.84 L 150.20 122.88 C 150.20 123.73 150.89 124.42 151.74 124.42 C 152.59 124.42 153.28 123.74 153.28 122.89 L 153.28 121.85 C 153.28 121.00 152.59 120.31 151.74 120.31 C 150.90 120.30 150.21 120.99 150.20 121.84 Z M 150.20 122.88 L 150.20 123.93 C 150.20 124.78 150.89 125.47 151.74 125.47 C 152.59 125.47 153.27 124.78 153.27 123.93 L 153.27 122.88 C 153.27 122.04 152.59 121.35 151.74 121.35 C 150.89 121.35 150.20 122.04 150.20 122.88 Z M 150.21 123.93 L 150.21 124.93 C 150.21 125.78 150.90 126.46 151.74 126.46 C 152.58 126.46 153.27 125.78 153.27 124.93 L 153.27 123.93 C 153.27 123.09 152.58 122.41 151.74 122.41 C 150.90 122.41 150.21 123.09 150.21 123.93 Z M 150.22 124.93 L 150.22 125.88 C 150.22 126.72 150.90 127.40 151.74 127.40 C 152.58 127.40 153.25 126.72 153.25 125.88 L 153.25 124.93 C 153.25 124.10 152.58 123.42 151.74 123.42 C 150.90 123.42 150.22 124.10 150.22 124.93 Z M 150.24 125.87 L 150.23 126.89 C 150.23 127.72 150.90 128.39 151.73 128.40 C 152.56 128.40 153.23 127.73 153.24 126.90 L 153.24 125.89 C 153.25 125.06 152.58 124.38 151.75 124.38 C 150.92 124.38 150.24 125.04 150.24 125.87 Z M 150.25 126.86 L 150.22 127.83 C 150.20 128.65 150.85 129.33 151.67 129.35 C 152.49 129.37 153.17 128.73 153.20 127.90 L 153.22 126.93 C 153.24 126.11 152.59 125.43 151.77 125.41 C 150.95 125.39 150.27 126.03 150.25 126.86 Z M 150.24 127.79 L 150.19 128.76 C 150.15 129.57 150.78 130.26 151.59 130.30 C 152.40 130.34 153.09 129.71 153.13 128.90 L 153.18 127.94 C 153.22 127.12 152.59 126.43 151.78 126.40 C 150.97 126.36 150.28 126.98 150.24 127.79 Z M 150.21 128.78 L 150.17 129.79 C 150.15 130.59 150.78 131.27 151.58 131.29 C 152.38 131.32 153.06 130.69 153.08 129.89 L 153.12 128.88 C 153.14 128.07 152.52 127.40 151.71 127.37 C 150.91 127.34 150.23 127.97 150.21 128.78 Z M 150.18 129.82 L 150.17 130.79 C 150.16 131.59 150.80 132.24 151.60 132.25 C 152.40 132.26 153.05 131.62 153.06 130.83 L 153.07 129.86 C 153.08 129.06 152.44 128.40 151.65 128.39 C 150.85 128.38 150.19 129.02 150.18 129.82 Z M 150.18 130.81 L 150.18 131.85 C 150.17 132.65 150.82 133.29 151.61 133.29 C 152.41 133.30 153.05 132.65 153.05 131.86 L 153.05 130.81 C 153.06 130.02 152.41 129.37 151.62 129.37 C 150.83 129.37 150.18 130.01 150.18 130.81 Z M 150.18 131.86 L 150.18 132.15 C 150.18 132.94 150.82 133.58 151.61 133.58 C 152.41 133.58 153.05 132.94 153.05 132.15 L 153.05 131.86 C 153.05 131.06 152.41 130.42 151.61 130.42 C 150.82 130.42 150.18 131.06 150.18 131.86 Z"
      fill="black"
      fill-rule="nonzero" /><path d="M 153.43 128.19 L 154.11 127.60 C 154.73 127.07 154.80 126.14 154.27 125.52 C 153.74 124.90 152.81 124.83 152.19 125.36 L 151.50 125.95 C 150.89 126.48 150.81 127.41 151.35 128.03 C 151.88 128.65 152.81 128.72 153.43 128.19 Z M 153.81 127.82 L 154.77 127.35 C 155.51 126.98 155.81 126.09 155.45 125.35 C 155.09 124.62 154.19 124.31 153.46 124.67 L 152.50 125.14 C 151.76 125.50 151.45 126.40 151.82 127.14 C 152.18 127.87 153.07 128.18 153.81 127.82 Z M 154.42 127.47 L 155.35 127.27 C 156.16 127.10 156.67 126.30 156.50 125.50 C 156.33 124.69 155.53 124.18 154.73 124.35 L 153.80 124.55 C 152.99 124.72 152.48 125.52 152.65 126.32 C 152.82 127.13 153.62 127.64 154.42 127.47 Z M 155.19 127.29 L 156.23 127.19 C 157.05 127.10 157.64 126.37 157.55 125.55 C 157.47 124.73 156.74 124.13 155.92 124.22 L 154.89 124.33 C 154.07 124.41 153.47 125.15 153.56 125.97 C 153.64 126.78 154.38 127.38 155.19 127.29 Z M 156.15 127.19 L 157.18 127.13 C 158.00 127.09 158.63 126.39 158.58 125.57 C 158.54 124.75 157.84 124.12 157.02 124.17 L 156.00 124.22 C 155.18 124.26 154.55 124.96 154.59 125.78 C 154.63 126.60 155.33 127.23 156.15 127.19 Z M 157.14 127.13 L 158.24 127.10 C 159.05 127.08 159.70 126.40 159.68 125.58 C 159.66 124.77 158.98 124.12 158.16 124.14 L 157.06 124.17 C 156.24 124.19 155.60 124.87 155.62 125.69 C 155.64 126.50 156.32 127.15 157.14 127.13 Z M 158.21 127.09 L 159.17 127.09 C 159.98 127.08 160.63 126.42 160.63 125.61 C 160.63 124.80 159.97 124.15 159.16 124.15 L 158.19 124.15 C 157.38 124.16 156.73 124.82 156.73 125.63 C 156.73 126.44 157.39 127.09 158.21 127.09 Z M 159.14 127.07 L 160.08 127.09 C 160.89 127.10 161.55 126.46 161.56 125.66 C 161.58 124.85 160.94 124.19 160.13 124.18 L 159.19 124.16 C 158.38 124.15 157.72 124.79 157.71 125.59 C 157.69 126.40 158.34 127.06 159.14 127.07 Z M 160.06 127.08 L 161.06 127.11 C 161.86 127.13 162.52 126.50 162.55 125.71 C 162.57 124.91 161.95 124.24 161.15 124.22 L 160.15 124.19 C 159.35 124.17 158.69 124.79 158.67 125.59 C 158.64 126.39 159.27 127.05 160.06 127.08 Z M 161.06 127.09 L 161.65 127.11 C 162.44 127.14 163.10 126.53 163.13 125.74 C 163.16 124.95 162.54 124.28 161.75 124.25 L 161.16 124.23 C 160.37 124.20 159.70 124.82 159.68 125.61 C 159.65 126.40 160.27 127.07 161.06 127.09 Z"
      fill="black"
      fill-rule="nonzero" /><path d="M 139.90 136.40 L 140.84 136.69 C 141.61 136.93 142.44 136.50 142.68 135.72 C 142.92 134.94 142.49 134.11 141.71 133.87 L 140.78 133.58 C 140.00 133.34 139.17 133.78 138.93 134.56 C 138.69 135.33 139.13 136.16 139.90 136.40 Z M 140.92 136.75 L 141.89 136.99 C 142.70 137.18 143.52 136.69 143.71 135.88 C 143.91 135.07 143.42 134.25 142.61 134.06 L 141.63 133.82 C 140.82 133.62 140.01 134.11 139.81 134.92 C 139.61 135.73 140.11 136.55 140.92 136.75 Z M 142.04 137.04 L 143.07 137.18 C 143.91 137.29 144.68 136.70 144.79 135.86 C 144.90 135.02 144.31 134.25 143.48 134.14 L 142.45 134.00 C 141.61 133.89 140.84 134.48 140.73 135.32 C 140.62 136.16 141.21 136.93 142.04 137.04 Z M 143.20 137.20 L 144.23 137.25 C 145.08 137.29 145.80 136.63 145.84 135.78 C 145.88 134.93 145.22 134.21 144.37 134.17 L 143.34 134.12 C 142.49 134.08 141.77 134.74 141.73 135.59 C 141.69 136.44 142.35 137.16 143.20 137.20 Z M 144.29 137.25 L 145.25 137.26 C 146.10 137.26 146.80 136.58 146.80 135.72 C 146.81 134.87 146.12 134.18 145.27 134.17 L 144.31 134.16 C 143.46 134.16 142.76 134.84 142.76 135.70 C 142.75 136.55 143.44 137.24 144.29 137.25 Z M 145.26 137.26 L 146.32 137.26 C 147.17 137.26 147.86 136.57 147.86 135.71 C 147.86 134.86 147.17 134.17 146.32 134.17 L 145.26 134.17 C 144.41 134.17 143.72 134.86 143.72 135.71 C 143.72 136.57 144.41 137.26 145.26 137.26 Z M 146.32 137.26 L 147.25 137.26 C 148.10 137.26 148.79 136.57 148.79 135.71 C 148.79 134.86 148.10 134.17 147.25 134.17 L 146.32 134.17 C 145.46 134.17 144.77 134.86 144.77 135.71 C 144.77 136.57 145.46 137.26 146.32 137.26 Z M 147.26 137.26 L 148.26 137.25 C 149.11 137.24 149.80 136.54 149.79 135.69 C 149.78 134.84 149.08 134.15 148.23 134.16 L 147.24 134.17 C 146.38 134.18 145.70 134.88 145.71 135.73 C 145.71 136.58 146.41 137.27 147.26 137.26 Z M 148.32 137.24 L 149.31 137.19 C 150.16 137.15 150.82 136.43 150.78 135.58 C 150.73 134.73 150.01 134.07 149.16 134.12 L 148.17 134.16 C 147.32 134.21 146.66 134.93 146.70 135.78 C 146.75 136.63 147.47 137.28 148.32 137.24 Z M 149.39 137.18 L 150.38 137.08 C 151.23 137.00 151.84 136.24 151.75 135.40 C 151.67 134.55 150.91 133.94 150.07 134.02 L 149.08 134.12 C 148.24 134.21 147.62 134.97 147.71 135.81 C 147.79 136.66 148.55 137.27 149.39 137.18 Z M 150.45 137.07 L 151.45 136.93 C 152.28 136.80 152.87 136.02 152.74 135.19 C 152.62 134.35 151.84 133.77 151.00 133.89 L 150.00 134.03 C 149.16 134.16 148.58 134.94 148.71 135.77 C 148.83 136.61 149.61 137.19 150.45 137.07 Z M 151.48 136.92 L 152.47 136.75 C 153.31 136.61 153.87 135.82 153.73 134.98 C 153.59 134.15 152.79 133.59 151.96 133.73 L 150.97 133.90 C 150.13 134.04 149.57 134.83 149.71 135.66 C 149.86 136.50 150.65 137.06 151.48 136.92 Z M 152.47 136.75 L 153.47 136.57 C 154.30 136.43 154.86 135.64 154.72 134.81 C 154.58 133.98 153.79 133.42 152.95 133.56 L 151.96 133.73 C 151.13 133.88 150.57 134.67 150.71 135.50 C 150.85 136.33 151.64 136.89 152.47 136.75 Z M 153.46 136.57 L 154.45 136.41 C 155.28 136.27 155.84 135.49 155.70 134.66 C 155.56 133.82 154.78 133.26 153.95 133.40 L 152.96 133.56 C 152.13 133.70 151.57 134.49 151.71 135.32 C 151.85 136.15 152.63 136.71 153.46 136.57 Z M 154.45 136.40 L 155.44 136.24 C 156.26 136.10 156.82 135.31 156.68 134.48 C 156.54 133.65 155.75 133.10 154.92 133.24 L 153.94 133.41 C 153.11 133.55 152.56 134.33 152.70 135.16 C 152.84 135.99 153.63 136.55 154.45 136.40 Z M 155.45 136.23 L 156.43 136.05 C 157.26 135.90 157.81 135.11 157.66 134.29 C 157.51 133.47 156.72 132.92 155.90 133.07 L 154.91 133.25 C 154.09 133.39 153.54 134.18 153.69 135.01 C 153.84 135.83 154.62 136.38 155.45 136.23 Z M 156.43 136.04 L 157.42 135.86 C 158.24 135.72 158.78 134.93 158.63 134.12 C 158.49 133.30 157.70 132.75 156.89 132.90 L 155.90 133.08 C 155.08 133.22 154.54 134.01 154.68 134.83 C 154.83 135.65 155.61 136.19 156.43 136.04 Z M 157.41 135.86 L 158.40 135.69 C 159.21 135.55 159.76 134.77 159.62 133.96 C 159.48 133.14 158.70 132.59 157.89 132.74 L 156.90 132.91 C 156.08 133.05 155.54 133.82 155.68 134.64 C 155.82 135.45 156.59 136.00 157.41 135.86 Z M 158.39 135.68 L 159.37 135.52 C 160.18 135.38 160.73 134.61 160.59 133.80 C 160.46 132.99 159.69 132.44 158.88 132.58 L 157.90 132.74 C 157.09 132.88 156.54 133.65 156.68 134.46 C 156.81 135.27 157.58 135.82 158.39 135.68 Z M 159.36 135.51 L 160.36 135.35 C 161.17 135.22 161.72 134.45 161.59 133.65 C 161.46 132.84 160.70 132.29 159.89 132.42 L 158.89 132.58 C 158.08 132.72 157.53 133.48 157.66 134.29 C 157.79 135.09 158.55 135.64 159.36 135.51 Z M 160.34 135.35 L 161.32 135.20 C 162.12 135.08 162.68 134.33 162.56 133.52 C 162.44 132.72 161.69 132.16 160.88 132.28 L 159.91 132.42 C 159.10 132.54 158.55 133.29 158.67 134.10 C 158.78 134.91 159.54 135.46 160.34 135.35 Z M 161.28 135.20 L 162.28 135.08 C 163.08 134.98 163.65 134.24 163.55 133.43 C 163.45 132.63 162.72 132.06 161.91 132.16 L 160.92 132.28 C 160.11 132.38 159.54 133.12 159.64 133.92 C 159.74 134.73 160.48 135.30 161.28 135.20 Z M 162.25 135.07 L 163.23 134.97 C 164.04 134.88 164.62 134.16 164.53 133.35 C 164.44 132.54 163.72 131.96 162.91 132.05 L 161.93 132.16 C 161.13 132.25 160.55 132.97 160.64 133.78 C 160.72 134.58 161.45 135.16 162.25 135.07 Z M 163.21 134.97 L 164.19 134.87 C 165.00 134.79 165.58 134.08 165.51 133.27 C 165.43 132.47 164.71 131.88 163.91 131.96 L 162.93 132.05 C 162.12 132.13 161.54 132.85 161.61 133.65 C 161.69 134.46 162.41 135.05 163.21 134.97 Z M 164.15 134.87 L 165.18 134.80 C 165.99 134.74 166.59 134.04 166.54 133.24 C 166.48 132.43 165.78 131.82 164.97 131.88 L 163.94 131.95 C 163.14 132.01 162.53 132.71 162.59 133.52 C 162.65 134.32 163.35 134.93 164.15 134.87 Z M 165.13 134.80 L 166.15 134.77 C 166.96 134.74 167.59 134.06 167.56 133.25 C 167.53 132.44 166.85 131.81 166.04 131.84 L 165.03 131.88 C 164.22 131.91 163.59 132.59 163.61 133.39 C 163.64 134.20 164.32 134.83 165.13 134.80 Z M 166.08 134.77 L 167.11 134.78 C 167.92 134.79 168.58 134.15 168.59 133.34 C 168.60 132.53 167.96 131.87 167.15 131.86 L 166.12 131.84 C 165.31 131.83 164.64 132.48 164.63 133.28 C 164.62 134.09 165.27 134.76 166.08 134.77 Z M 166.83 134.75 L 167.83 134.96 C 168.63 135.12 169.40 134.61 169.56 133.82 C 169.73 133.03 169.22 132.26 168.43 132.09 L 167.43 131.88 C 166.64 131.72 165.86 132.23 165.70 133.02 C 165.53 133.81 166.04 134.59 166.83 134.75 Z M 166.65 133.51 L 166.64 134.21 C 166.63 135.03 167.29 135.70 168.11 135.71 C 168.92 135.72 169.59 135.06 169.60 134.24 L 169.61 133.54 C 169.62 132.73 168.97 132.06 168.15 132.05 C 167.33 132.04 166.66 132.69 166.65 133.51 Z M 167.01 133.21 L 166.27 134.03 C 165.71 134.64 165.76 135.60 166.37 136.16 C 166.99 136.71 167.94 136.67 168.50 136.05 L 169.24 135.24 C 169.80 134.62 169.75 133.67 169.14 133.11 C 168.52 132.55 167.57 132.60 167.01 133.21 Z M 166.52 133.79 L 165.70 134.36 C 165.01 134.84 164.84 135.78 165.32 136.47 C 165.80 137.16 166.74 137.33 167.43 136.86 L 168.25 136.29 C 168.94 135.81 169.11 134.86 168.64 134.17 C 168.16 133.48 167.21 133.31 166.52 133.79 Z M 165.83 134.28 L 164.95 134.77 C 164.22 135.17 163.96 136.10 164.36 136.83 C 164.77 137.56 165.70 137.83 166.43 137.42 L 167.30 136.94 C 168.04 136.53 168.30 135.60 167.89 134.87 C 167.49 134.14 166.56 133.87 165.83 134.28 Z M 165.05 134.72 L 164.15 135.14 C 163.39 135.49 163.06 136.39 163.41 137.15 C 163.77 137.91 164.67 138.24 165.43 137.89 L 166.33 137.47 C 167.09 137.12 167.42 136.21 167.07 135.45 C 166.71 134.69 165.81 134.37 165.05 134.72 Z M 164.25 135.10 L 163.31 135.46 C 162.54 135.76 162.15 136.64 162.45 137.42 C 162.75 138.19 163.62 138.58 164.40 138.28 L 165.33 137.92 C 166.11 137.62 166.50 136.75 166.20 135.97 C 165.90 135.19 165.02 134.80 164.25 135.10 Z M 163.37 135.46 L 162.43 135.79 C 161.65 136.06 161.23 136.91 161.50 137.69 C 161.77 138.47 162.63 138.88 163.41 138.61 L 164.35 138.28 C 165.13 138.01 165.54 137.16 165.27 136.38 C 165.00 135.60 164.15 135.19 163.37 135.46 Z M 162.45 135.80 L 161.56 136.10 C 160.79 136.36 160.37 137.19 160.63 137.96 C 160.88 138.73 161.72 139.15 162.49 138.89 L 163.38 138.60 C 164.15 138.34 164.57 137.50 164.31 136.73 C 164.06 135.96 163.22 135.54 162.45 135.80 Z"
      fill="black"
      fill-rule="nonzero" /><path d="M 138.33 135.99 L 138.33 137.01 C 138.33 137.83 139.00 138.49 139.82 138.49 C 140.64 138.49 141.30 137.82 141.30 137.00 L 141.30 135.98 C 141.30 135.16 140.63 134.50 139.81 134.50 C 138.99 134.50 138.33 135.16 138.33 135.99 Z M 138.31 137.02 L 138.32 138.02 C 138.32 138.85 139.00 139.52 139.84 139.51 C 140.67 139.50 141.34 138.82 141.33 137.99 L 141.32 136.99 C 141.32 136.16 140.64 135.49 139.80 135.50 C 138.97 135.50 138.30 136.18 138.31 137.02 Z M 138.30 138.04 L 138.32 139.06 C 138.35 139.91 139.05 140.57 139.89 140.55 C 140.73 140.53 141.40 139.83 141.38 138.99 L 141.35 137.96 C 141.33 137.12 140.63 136.45 139.79 136.48 C 138.94 136.50 138.28 137.20 138.30 138.04 Z M 138.31 139.09 L 138.36 140.11 C 138.40 140.96 139.11 141.62 139.96 141.58 C 140.81 141.55 141.47 140.83 141.43 139.98 L 141.39 138.96 C 141.35 138.11 140.63 137.45 139.78 137.49 C 138.93 137.52 138.28 138.24 138.31 139.09 Z M 138.35 140.13 L 138.40 141.08 C 138.45 141.94 139.17 142.59 140.03 142.55 C 140.88 142.50 141.53 141.77 141.49 140.92 L 141.44 139.97 C 141.39 139.11 140.67 138.46 139.81 138.50 C 138.96 138.55 138.31 139.28 138.35 140.13 Z M 138.40 141.08 L 138.45 142.07 C 138.49 142.93 139.22 143.59 140.07 143.54 C 140.93 143.50 141.59 142.77 141.54 141.92 L 141.49 140.93 C 141.45 140.07 140.72 139.41 139.87 139.45 C 139.01 139.50 138.35 140.22 138.40 141.08 Z M 138.44 142.06 L 138.48 143.01 C 138.52 143.87 139.24 144.54 140.10 144.50 C 140.96 144.46 141.62 143.74 141.59 142.88 L 141.55 141.93 C 141.51 141.07 140.79 140.41 139.93 140.44 C 139.07 140.48 138.41 141.20 138.44 142.06 Z M 138.48 143.00 L 138.51 144.01 C 138.54 144.87 139.26 145.55 140.12 145.52 C 140.98 145.49 141.66 144.77 141.63 143.91 L 141.59 142.89 C 141.56 142.03 140.84 141.36 139.98 141.39 C 139.12 141.42 138.45 142.14 138.48 143.00 Z M 138.51 144.01 L 138.54 145.00 C 138.57 145.86 139.29 146.54 140.15 146.51 C 141.01 146.49 141.69 145.76 141.66 144.90 L 141.63 143.91 C 141.60 143.05 140.88 142.37 140.02 142.40 C 139.16 142.43 138.48 143.15 138.51 144.01 Z M 138.54 144.99 L 138.56 146.00 C 138.58 146.87 139.30 147.55 140.16 147.53 C 141.03 147.51 141.71 146.79 141.69 145.93 L 141.67 144.91 C 141.64 144.05 140.93 143.36 140.06 143.39 C 139.20 143.41 138.51 144.12 138.54 144.99 Z M 138.56 145.98 L 138.57 146.98 C 138.58 147.84 139.29 148.54 140.16 148.53 C 141.02 148.51 141.72 147.80 141.70 146.94 L 141.69 145.94 C 141.68 145.08 140.97 144.39 140.10 144.40 C 139.24 144.41 138.55 145.12 138.56 145.98 Z M 138.57 146.96 L 138.57 147.96 C 138.57 148.83 139.28 149.53 140.15 149.53 C 141.01 149.52 141.71 148.82 141.71 147.95 L 141.71 146.95 C 141.70 146.09 141.00 145.39 140.13 145.39 C 139.27 145.39 138.57 146.10 138.57 146.96 Z M 138.57 147.96 L 138.57 148.96 C 138.57 149.83 139.27 150.53 140.14 150.53 C 141.01 150.53 141.71 149.83 141.71 148.96 L 141.71 147.96 C 141.71 147.09 141.01 146.39 140.14 146.39 C 139.27 146.39 138.57 147.09 138.57 147.96 Z M 138.57 148.96 L 138.57 149.95 C 138.57 150.82 139.27 151.52 140.14 151.52 C 141.01 151.52 141.71 150.82 141.71 149.95 L 141.71 148.96 C 141.71 148.09 141.01 147.39 140.14 147.39 C 139.27 147.39 138.57 148.09 138.57 148.96 Z M 138.57 149.95 L 138.57 150.97 C 138.57 151.84 139.27 152.54 140.14 152.54 C 141.01 152.54 141.71 151.84 141.71 150.97 L 141.71 149.95 C 141.71 149.08 141.01 148.38 140.14 148.38 C 139.27 148.38 138.57 149.08 138.57 149.95 Z M 138.57 150.97 L 138.57 151.96 C 138.57 152.83 139.27 153.53 140.14 153.53 C 141.01 153.53 141.71 152.83 141.71 151.96 L 141.71 150.97 C 141.71 150.11 141.01 149.40 140.14 149.40 C 139.27 149.40 138.57 150.11 138.57 150.97 Z M 138.57 151.96 L 138.57 152.96 C 138.57 153.83 139.27 154.53 140.14 154.53 C 141.01 154.53 141.71 153.83 141.71 152.96 L 141.71 151.96 C 141.71 151.10 141.01 150.39 140.14 150.39 C 139.27 150.39 138.57 151.10 138.57 151.96 Z M 138.57 152.96 L 138.57 153.97 C 138.57 154.84 139.27 155.54 140.14 155.54 C 141.01 155.54 141.71 154.84 141.71 153.97 L 141.71 152.96 C 141.71 152.10 141.01 151.40 140.14 151.40 C 139.27 151.40 138.57 152.10 138.57 152.96 Z M 138.57 153.97 L 138.57 154.96 C 138.57 155.83 139.27 156.53 140.14 156.53 C 141.01 156.53 141.71 155.83 141.71 154.96 L 141.71 153.97 C 141.71 153.11 141.01 152.40 140.14 152.40 C 139.27 152.40 138.57 153.11 138.57 153.97 Z M 138.57 154.96 L 138.57 155.97 C 138.57 156.84 139.27 157.54 140.14 157.54 C 141.01 157.54 141.71 156.84 141.71 155.97 L 141.71 154.96 C 141.71 154.10 141.01 153.40 140.14 153.40 C 139.27 153.40 138.57 154.10 138.57 154.96 Z M 138.57 155.97 L 138.57 156.96 C 138.57 157.83 139.27 158.53 140.14 158.53 C 141.01 158.53 141.71 157.83 141.71 156.96 L 141.71 155.97 C 141.71 155.10 141.01 154.40 140.14 154.40 C 139.27 154.40 138.57 155.10 138.57 155.97 Z M 138.57 156.96 L 138.57 157.94 C 138.56 158.80 139.26 159.51 140.13 159.51 C 141.00 159.52 141.70 158.82 141.71 157.95 L 141.71 156.97 C 141.71 156.10 141.01 155.40 140.15 155.39 C 139.28 155.39 138.57 156.09 138.57 156.96 Z M 138.57 157.92 L 138.55 158.93 C 138.54 159.80 139.23 160.51 140.10 160.53 C 140.96 160.54 141.68 159.85 141.69 158.98 L 141.71 157.97 C 141.72 157.10 141.03 156.39 140.16 156.37 C 139.29 156.36 138.58 157.05 138.57 157.92 Z M 138.55 158.91 L 138.52 159.92 C 138.49 160.79 139.17 161.52 140.04 161.54 C 140.91 161.57 141.63 160.89 141.66 160.02 L 141.69 159.01 C 141.72 158.14 141.04 157.41 140.17 157.39 C 139.30 157.36 138.58 158.04 138.55 158.91 Z M 138.52 159.90 L 138.47 160.91 C 138.43 161.78 139.10 162.51 139.97 162.55 C 140.83 162.60 141.57 161.93 141.61 161.06 L 141.66 160.05 C 141.70 159.18 141.03 158.45 140.16 158.41 C 139.30 158.37 138.56 159.03 138.52 159.90 Z M 138.47 160.89 L 138.41 161.90 C 138.36 162.76 139.03 163.51 139.89 163.56 C 140.76 163.61 141.50 162.95 141.55 162.08 L 141.61 161.08 C 141.66 160.21 141.00 159.47 140.13 159.42 C 139.27 159.37 138.52 160.03 138.47 160.89 Z M 138.41 161.89 L 138.35 162.90 C 138.30 163.76 138.95 164.51 139.82 164.56 C 140.68 164.62 141.43 163.96 141.48 163.10 L 141.55 162.09 C 141.60 161.22 140.95 160.48 140.08 160.42 C 139.22 160.37 138.47 161.02 138.41 161.89 Z M 138.35 162.89 L 138.28 163.91 C 138.22 164.78 138.87 165.53 139.74 165.59 C 140.61 165.65 141.36 164.99 141.41 164.13 L 141.49 163.10 C 141.54 162.24 140.89 161.49 140.03 161.43 C 139.16 161.37 138.41 162.02 138.35 162.89 Z M 138.28 163.90 L 138.20 164.87 C 138.14 165.73 138.79 166.49 139.65 166.56 C 140.52 166.62 141.27 165.98 141.34 165.11 L 141.42 164.14 C 141.48 163.27 140.83 162.52 139.97 162.45 C 139.10 162.38 138.35 163.03 138.28 163.90 Z M 138.20 164.85 L 138.12 165.84 C 138.04 166.71 138.68 167.47 139.54 167.55 C 140.41 167.63 141.17 166.99 141.25 166.12 L 141.34 165.13 C 141.42 164.26 140.78 163.50 139.91 163.42 C 139.05 163.34 138.28 163.98 138.20 164.85 Z M 138.12 165.82 L 138.01 166.83 C 137.93 167.69 138.56 168.46 139.43 168.55 C 140.29 168.64 141.06 168.01 141.15 167.14 L 141.25 166.14 C 141.34 165.27 140.71 164.50 139.84 164.41 C 138.97 164.33 138.20 164.96 138.12 165.82 Z M 138.01 166.83 L 137.92 167.80 C 137.83 168.67 138.46 169.44 139.33 169.53 C 140.19 169.61 140.97 168.98 141.05 168.11 L 141.15 167.14 C 141.24 166.27 140.61 165.50 139.74 165.41 C 138.87 165.33 138.10 165.96 138.01 166.83 Z M 137.91 167.81 L 137.82 168.84 C 137.74 169.70 138.38 170.47 139.25 170.55 C 140.12 170.63 140.88 169.99 140.96 169.12 L 141.05 168.10 C 141.13 167.23 140.50 166.47 139.63 166.39 C 138.76 166.31 137.99 166.95 137.91 167.81 Z M 137.82 168.85 L 137.74 169.83 C 137.67 170.69 138.32 171.45 139.18 171.52 C 140.05 171.60 140.81 170.95 140.88 170.08 L 140.96 169.11 C 141.03 168.24 140.39 167.48 139.52 167.41 C 138.65 167.34 137.89 167.99 137.82 168.85 Z M 137.74 169.84 L 137.67 170.85 C 137.60 171.72 138.25 172.47 139.12 172.54 C 139.98 172.60 140.74 171.95 140.80 171.09 L 140.88 170.07 C 140.94 169.21 140.30 168.45 139.43 168.39 C 138.56 168.32 137.81 168.97 137.74 169.84 Z M 137.67 170.86 L 137.60 171.84 C 137.54 172.70 138.19 173.45 139.06 173.51 C 139.92 173.58 140.67 172.92 140.73 172.06 L 140.80 171.08 C 140.86 170.22 140.21 169.47 139.35 169.40 C 138.48 169.34 137.73 169.99 137.67 170.86 Z M 137.60 171.84 L 137.53 172.84 C 137.47 173.70 138.12 174.45 138.99 174.51 C 139.85 174.57 140.60 173.92 140.66 173.06 L 140.73 172.06 C 140.79 171.20 140.14 170.45 139.28 170.39 C 138.41 170.33 137.66 170.98 137.60 171.84 Z M 137.54 172.84 L 137.47 173.82 C 137.40 174.68 138.05 175.43 138.91 175.49 C 139.77 175.55 140.52 174.91 140.58 174.05 L 140.65 173.06 C 140.72 172.20 140.07 171.45 139.21 171.39 C 138.35 171.33 137.60 171.98 137.54 172.84 Z M 137.47 173.82 L 137.40 174.79 C 137.34 175.65 137.99 176.39 138.85 176.45 C 139.71 176.51 140.45 175.87 140.51 175.01 L 140.58 174.04 C 140.64 173.19 139.99 172.44 139.13 172.38 C 138.28 172.32 137.53 172.97 137.47 173.82 Z M 137.41 174.83 L 137.36 175.85 C 137.32 176.71 137.98 177.44 138.84 177.48 C 139.69 177.52 140.42 176.86 140.46 176.00 L 140.51 174.97 C 140.55 174.12 139.89 173.39 139.03 173.35 C 138.17 173.31 137.45 173.97 137.41 174.83 Z M 137.36 175.90 L 137.34 176.91 C 137.33 177.76 138.01 178.47 138.87 178.48 C 139.72 178.50 140.43 177.81 140.44 176.96 L 140.46 175.95 C 140.47 175.10 139.79 174.39 138.93 174.38 C 138.08 174.36 137.37 175.04 137.36 175.90 Z M 137.34 176.93 L 137.34 177.93 C 137.34 178.78 138.03 179.48 138.89 179.48 C 139.74 179.48 140.44 178.79 140.44 177.93 L 140.44 176.94 C 140.44 176.08 139.75 175.38 138.90 175.38 C 138.04 175.38 137.34 176.07 137.34 176.93 Z M 137.34 177.93 L 137.34 178.95 C 137.34 179.80 138.03 180.50 138.89 180.50 C 139.75 180.50 140.44 179.80 140.44 178.95 L 140.44 177.93 C 140.44 177.07 139.75 176.38 138.89 176.38 C 138.03 176.38 137.34 177.07 137.34 177.93 Z M 137.34 178.95 L 137.34 179.96 C 137.34 180.82 138.03 181.51 138.89 181.51 C 139.75 181.51 140.44 180.82 140.44 179.96 L 140.44 178.95 C 140.44 178.09 139.75 177.40 138.89 177.40 C 138.03 177.40 137.34 178.09 137.34 178.95 Z M 137.34 179.98 L 137.35 181.13 C 137.36 181.98 138.06 182.67 138.92 182.66 C 139.77 182.65 140.46 181.95 140.45 181.09 L 140.44 179.95 C 140.43 179.09 139.73 178.41 138.87 178.42 C 138.02 178.42 137.33 179.12 137.34 179.98 Z M 140.37 181.52 L 140.43 181.29 C 140.66 180.48 140.18 179.64 139.37 179.42 C 138.56 179.19 137.72 179.67 137.49 180.48 L 137.43 180.70 C 137.21 181.51 137.68 182.35 138.49 182.58 C 139.30 182.81 140.15 182.33 140.37 181.52 Z M 140.43 181.10 L 140.62 179.75 C 140.74 178.94 140.18 178.19 139.38 178.07 C 138.57 177.95 137.82 178.51 137.70 179.32 L 137.50 180.67 C 137.38 181.48 137.94 182.23 138.75 182.35 C 139.56 182.47 140.31 181.91 140.43 181.10 Z M 140.59 179.80 L 140.74 178.94 C 140.89 178.15 140.37 177.40 139.58 177.25 C 138.80 177.10 138.04 177.62 137.90 178.41 L 137.74 179.27 C 137.59 180.05 138.11 180.81 138.90 180.96 C 139.68 181.10 140.44 180.58 140.59 179.80 Z M 140.73 178.96 L 140.93 177.99 C 141.09 177.21 140.58 176.45 139.80 176.29 C 139.02 176.13 138.26 176.64 138.10 177.42 L 137.91 178.39 C 137.75 179.17 138.25 179.93 139.03 180.09 C 139.82 180.25 140.58 179.74 140.73 178.96 Z M 140.92 178.00 L 141.14 176.96 C 141.31 176.19 140.81 175.43 140.03 175.26 C 139.26 175.10 138.50 175.59 138.33 176.37 L 138.11 177.41 C 137.95 178.18 138.44 178.95 139.22 179.11 C 140.00 179.27 140.76 178.78 140.92 178.00 Z M 141.13 176.97 L 141.34 176.02 C 141.50 175.25 141.01 174.49 140.24 174.32 C 139.47 174.16 138.71 174.65 138.54 175.42 L 138.34 176.37 C 138.17 177.14 138.66 177.90 139.44 178.06 C 140.21 178.23 140.97 177.74 141.13 176.97 Z"
      fill="black"
      fill-rule="nonzero" /><path d="M 146.36 140.31 L 147.10 140.96 C 147.71 141.49 148.64 141.42 149.17 140.81 C 149.70 140.20 149.64 139.28 149.02 138.75 L 148.28 138.10 C 147.67 137.57 146.75 137.63 146.22 138.24 C 145.69 138.85 145.75 139.78 146.36 140.31 Z M 147.53 141.25 L 148.43 141.59 C 149.20 141.88 150.07 141.50 150.36 140.72 C 150.65 139.95 150.27 139.09 149.50 138.80 L 148.59 138.45 C 147.82 138.16 146.96 138.55 146.67 139.32 C 146.37 140.09 146.76 140.95 147.53 141.25 Z M 148.86 141.69 L 149.87 141.77 C 150.70 141.83 151.42 141.20 151.48 140.37 C 151.54 139.55 150.91 138.83 150.08 138.77 L 149.07 138.69 C 148.24 138.63 147.52 139.26 147.46 140.09 C 147.40 140.91 148.03 141.63 148.86 141.69 Z M 149.97 141.77 L 151.00 141.77 C 151.83 141.77 152.51 141.10 152.51 140.27 C 152.51 139.44 151.84 138.77 151.01 138.77 L 149.98 138.76 C 149.15 138.76 148.47 139.43 148.47 140.26 C 148.47 141.09 149.14 141.77 149.97 141.77 Z M 151.01 141.77 L 152.01 141.76 C 152.84 141.75 153.50 141.08 153.50 140.25 C 153.49 139.43 152.82 138.76 151.99 138.76 L 150.99 138.77 C 150.17 138.78 149.50 139.45 149.51 140.28 C 149.51 141.10 150.19 141.77 151.01 141.77 Z M 152.03 141.75 L 153.02 141.73 C 153.85 141.72 154.50 141.03 154.48 140.21 C 154.47 139.39 153.78 138.73 152.96 138.75 L 151.97 138.77 C 151.15 138.79 150.49 139.47 150.51 140.29 C 150.53 141.12 151.21 141.77 152.03 141.75 Z M 153.03 141.72 L 154.03 141.70 C 154.85 141.68 155.50 141.00 155.48 140.18 C 155.46 139.36 154.77 138.71 153.96 138.73 L 152.95 138.76 C 152.13 138.78 151.49 139.46 151.51 140.28 C 151.53 141.10 152.21 141.75 153.03 141.72 Z M 154.02 141.69 L 155.02 141.68 C 155.84 141.66 156.49 140.99 156.48 140.18 C 156.46 139.36 155.79 138.71 154.98 138.72 L 153.97 138.74 C 153.16 138.75 152.51 139.42 152.52 140.24 C 152.53 141.05 153.20 141.70 154.02 141.69 Z M 155.01 141.67 L 156.01 141.66 C 156.82 141.65 157.48 140.99 157.47 140.18 C 157.46 139.37 156.80 138.72 155.99 138.72 L 154.99 138.73 C 154.18 138.74 153.53 139.40 153.53 140.21 C 153.54 141.02 154.20 141.67 155.01 141.67 Z M 156.02 141.65 L 157.05 141.63 C 157.86 141.62 158.50 140.96 158.49 140.15 C 158.47 139.35 157.81 138.70 157.00 138.72 L 155.98 138.73 C 155.17 138.75 154.53 139.41 154.54 140.21 C 154.56 141.02 155.22 141.66 156.02 141.65 Z M 157.06 141.62 L 158.04 141.60 C 158.84 141.59 159.48 140.92 159.46 140.12 C 159.44 139.32 158.78 138.69 157.98 138.71 L 157.00 138.73 C 156.20 138.74 155.56 139.41 155.58 140.21 C 155.59 141.01 156.26 141.64 157.06 141.62 Z M 158.03 141.59 L 159.03 141.58 C 159.83 141.57 160.46 140.92 160.45 140.12 C 160.44 139.33 159.79 138.69 158.99 138.70 L 157.99 138.72 C 157.20 138.73 156.56 139.38 156.57 140.18 C 156.58 140.97 157.24 141.61 158.03 141.59 Z M 159.06 141.57 L 160.04 141.54 C 160.83 141.52 161.45 140.85 161.42 140.06 C 161.40 139.27 160.74 138.65 159.95 138.68 L 158.97 138.71 C 158.18 138.73 157.56 139.40 157.58 140.19 C 157.61 140.98 158.27 141.60 159.06 141.57 Z M 160.10 141.53 L 161.09 141.46 C 161.88 141.40 162.47 140.72 162.41 139.93 C 162.36 139.15 161.67 138.56 160.89 138.61 L 159.89 138.68 C 159.10 138.74 158.51 139.43 158.57 140.21 C 158.62 141.00 159.31 141.59 160.10 141.53 Z M 161.11 141.46 L 161.56 141.42 C 162.34 141.35 162.92 140.66 162.86 139.88 C 162.79 139.09 162.10 138.51 161.31 138.58 L 160.87 138.62 C 160.08 138.68 159.50 139.37 159.57 140.16 C 159.63 140.94 160.33 141.53 161.11 141.46 Z"
      fill="black"
      fill-rule="nonzero" /><path d="M 150.42 135.05 L 150.42 135.98 C 150.42 136.82 151.10 137.50 151.94 137.50 C 152.78 137.50 153.46 136.82 153.46 135.98 L 153.46 135.05 C 153.46 134.21 152.78 133.53 151.94 133.53 C 151.10 133.53 150.42 134.21 150.42 135.05 Z M 150.42 135.98 L 150.42 137.01 C 150.42 137.85 151.10 138.53 151.94 138.53 C 152.78 138.53 153.46 137.85 153.46 137.01 L 153.46 135.98 C 153.46 135.14 152.78 134.46 151.94 134.46 C 151.10 134.46 150.42 135.14 150.42 135.98 Z M 150.42 137.01 L 150.42 138.01 C 150.42 138.84 151.10 139.52 151.94 139.52 C 152.78 139.52 153.46 138.84 153.46 138.01 L 153.46 137.01 C 153.46 136.18 152.78 135.50 151.94 135.50 C 151.10 135.50 150.42 136.18 150.42 137.01 Z M 150.42 138.01 L 150.42 139.02 C 150.42 139.86 151.10 140.53 151.94 140.53 C 152.78 140.53 153.46 139.86 153.46 139.02 L 153.46 138.01 C 153.46 137.17 152.78 136.49 151.94 136.49 C 151.10 136.49 150.42 137.17 150.42 138.01 Z M 150.42 139.02 L 150.42 140.05 C 150.42 140.88 151.10 141.56 151.94 141.56 C 152.78 141.56 153.45 140.88 153.45 140.05 L 153.45 139.02 C 153.45 138.18 152.78 137.50 151.94 137.50 C 151.10 137.50 150.42 138.18 150.42 139.02 Z M 150.43 140.05 L 150.43 141.08 C 150.43 141.92 151.10 142.60 151.94 142.60 C 152.78 142.60 153.45 141.92 153.45 141.08 L 153.45 140.05 C 153.45 139.21 152.78 138.53 151.94 138.53 C 151.10 138.53 150.43 139.21 150.43 140.05 Z M 150.43 141.08 L 150.43 142.08 C 150.43 142.91 151.10 143.59 151.94 143.59 C 152.78 143.59 153.45 142.91 153.45 142.08 L 153.45 141.08 C 153.45 140.25 152.78 139.57 151.94 139.57 C 151.10 139.57 150.43 140.25 150.43 141.08 Z M 150.43 142.08 L 150.43 143.03 C 150.43 143.87 151.10 144.54 151.94 144.54 C 152.78 144.54 153.45 143.87 153.45 143.03 L 153.45 142.08 C 153.45 141.24 152.78 140.56 151.94 140.56 C 151.10 140.56 150.43 141.24 150.43 142.08 Z M 150.42 143.03 L 150.42 143.93 C 150.42 144.76 151.10 145.44 151.93 145.45 C 152.77 145.45 153.45 144.77 153.45 143.94 L 153.45 143.03 C 153.46 142.20 152.78 141.52 151.94 141.52 C 151.11 141.51 150.43 142.19 150.42 143.03 Z M 150.42 143.91 L 150.41 144.90 C 150.39 145.74 151.06 146.43 151.90 146.44 C 152.74 146.45 153.43 145.78 153.44 144.95 L 153.45 143.95 C 153.46 143.12 152.80 142.43 151.96 142.42 C 151.12 142.40 150.43 143.07 150.42 143.91 Z M 150.41 144.88 L 150.37 146.01 C 150.35 146.85 151.00 147.55 151.84 147.57 C 152.68 147.60 153.38 146.94 153.40 146.10 L 153.44 144.97 C 153.46 144.13 152.81 143.43 151.97 143.41 C 151.13 143.38 150.43 144.04 150.41 144.88 Z M 150.37 146.01 L 150.33 147.12 C 150.31 147.95 150.96 148.66 151.80 148.68 C 152.64 148.71 153.34 148.06 153.37 147.22 L 153.40 146.11 C 153.43 145.27 152.78 144.57 151.94 144.54 C 151.10 144.51 150.40 145.17 150.37 146.01 Z M 150.33 147.17 L 150.34 148.26 C 150.34 149.09 151.02 149.77 151.86 149.77 C 152.70 149.76 153.38 149.08 153.37 148.24 L 153.37 147.16 C 153.37 146.32 152.68 145.65 151.85 145.65 C 151.01 145.65 150.33 146.34 150.33 147.17 Z M 150.35 148.42 L 150.44 149.30 C 150.54 150.13 151.29 150.74 152.12 150.64 C 152.95 150.55 153.55 149.80 153.46 148.97 L 153.36 148.08 C 153.27 147.25 152.52 146.65 151.69 146.74 C 150.86 146.83 150.25 147.58 150.35 148.42 Z M 150.69 149.98 L 151.15 150.66 C 151.62 151.36 152.56 151.54 153.26 151.08 C 153.95 150.61 154.14 149.66 153.67 148.97 L 153.21 148.29 C 152.75 147.59 151.80 147.41 151.11 147.88 C 150.41 148.34 150.22 149.29 150.69 149.98 Z M 152.56 151.33 L 153.52 151.23 C 154.35 151.15 154.96 150.40 154.87 149.56 C 154.79 148.73 154.04 148.12 153.21 148.21 L 152.25 148.30 C 151.42 148.39 150.81 149.13 150.90 149.97 C 150.98 150.80 151.73 151.41 152.56 151.33 Z M 153.84 151.16 L 154.77 150.85 C 155.57 150.59 156.00 149.73 155.74 148.93 C 155.48 148.13 154.61 147.70 153.82 147.96 L 152.88 148.27 C 152.08 148.54 151.65 149.40 151.92 150.20 C 152.18 150.99 153.04 151.43 153.84 151.16 Z M 154.78 150.85 L 155.74 150.53 C 156.54 150.26 156.97 149.40 156.70 148.60 C 156.43 147.80 155.57 147.37 154.77 147.64 L 153.81 147.96 C 153.01 148.23 152.58 149.10 152.85 149.89 C 153.12 150.69 153.98 151.12 154.78 150.85 Z M 155.73 150.53 L 156.72 150.21 C 157.52 149.94 157.95 149.08 157.69 148.28 C 157.43 147.49 156.57 147.05 155.77 147.31 L 154.78 147.64 C 153.98 147.90 153.55 148.76 153.81 149.56 C 154.07 150.36 154.93 150.79 155.73 150.53 Z M 156.70 150.21 L 157.67 149.91 C 158.47 149.65 158.91 148.80 158.66 148.00 C 158.41 147.20 157.56 146.76 156.76 147.01 L 155.79 147.31 C 154.99 147.56 154.54 148.42 154.80 149.22 C 155.05 150.02 155.90 150.46 156.70 150.21 Z M 157.64 149.90 L 158.59 149.62 C 159.39 149.38 159.85 148.54 159.61 147.74 C 159.37 146.94 158.53 146.48 157.73 146.72 L 156.78 147.01 C 155.98 147.25 155.52 148.09 155.76 148.89 C 156.00 149.69 156.84 150.14 157.64 149.90 Z M 158.57 149.62 L 159.53 149.35 C 160.33 149.12 160.80 148.29 160.57 147.49 C 160.34 146.69 159.51 146.22 158.71 146.45 L 157.75 146.72 C 156.95 146.95 156.48 147.78 156.71 148.58 C 156.94 149.38 157.77 149.85 158.57 149.62 Z M 159.51 149.35 L 160.47 149.09 C 161.27 148.88 161.75 148.05 161.53 147.25 C 161.31 146.45 160.49 145.97 159.68 146.19 L 158.73 146.45 C 157.93 146.66 157.45 147.49 157.67 148.29 C 157.89 149.09 158.71 149.57 159.51 149.35 Z M 160.46 149.09 L 161.42 148.84 C 162.22 148.63 162.70 147.81 162.49 147.01 C 162.28 146.20 161.46 145.73 160.65 145.94 L 159.69 146.19 C 158.89 146.40 158.42 147.22 158.63 148.02 C 158.84 148.82 159.66 149.30 160.46 149.09 Z M 161.41 148.83 L 162.37 148.58 C 163.17 148.37 163.64 147.56 163.43 146.76 C 163.23 145.97 162.41 145.49 161.62 145.70 L 160.66 145.95 C 159.86 146.15 159.39 146.97 159.60 147.76 C 159.80 148.56 160.62 149.04 161.41 148.83 Z M 162.36 148.56 L 163.35 148.31 C 164.13 148.10 164.61 147.30 164.40 146.51 C 164.20 145.72 163.39 145.25 162.60 145.46 L 161.62 145.71 C 160.84 145.92 160.36 146.72 160.57 147.51 C 160.77 148.30 161.58 148.77 162.36 148.56 Z M 163.34 148.30 L 163.64 148.22 C 164.42 148.02 164.89 147.22 164.69 146.44 C 164.49 145.66 163.69 145.19 162.91 145.39 L 162.61 145.47 C 161.83 145.67 161.36 146.47 161.56 147.25 C 161.76 148.03 162.56 148.50 163.34 148.30 Z"
      fill="black"
      fill-rule="nonzero" /><path d="M 148.46 157.95 L 149.32 158.46 C 150.05 158.89 150.99 158.65 151.42 157.92 C 151.84 157.19 151.60 156.25 150.87 155.82 L 150.01 155.32 C 149.29 154.89 148.35 155.13 147.92 155.86 C 147.49 156.59 147.73 157.52 148.46 157.95 Z M 149.55 158.58 L 150.48 158.93 C 151.27 159.23 152.16 158.83 152.46 158.04 C 152.76 157.24 152.36 156.36 151.57 156.05 L 150.64 155.70 C 149.85 155.40 148.96 155.80 148.66 156.60 C 148.36 157.39 148.76 158.28 149.55 158.58 Z M 150.83 159.02 L 151.81 159.14 C 152.65 159.24 153.42 158.64 153.52 157.80 C 153.62 156.96 153.02 156.19 152.18 156.09 L 151.21 155.97 C 150.37 155.87 149.60 156.46 149.50 157.31 C 149.39 158.15 149.99 158.91 150.83 159.02 Z M 151.97 159.14 L 153.00 159.15 C 153.84 159.16 154.53 158.49 154.54 157.65 C 154.55 156.80 153.88 156.11 153.04 156.10 L 152.01 156.09 C 151.17 156.08 150.48 156.75 150.47 157.59 C 150.46 158.43 151.13 159.12 151.97 159.14 Z M 153.02 159.14 L 154.02 159.14 C 154.85 159.14 155.53 158.46 155.53 157.63 C 155.53 156.79 154.85 156.11 154.02 156.11 L 153.02 156.11 C 152.18 156.11 151.51 156.79 151.51 157.63 C 151.51 158.46 152.18 159.14 153.02 159.14 Z M 154.02 159.13 L 155.02 159.13 C 155.85 159.13 156.52 158.45 156.52 157.63 C 156.52 156.80 155.85 156.12 155.02 156.12 L 154.02 156.12 C 153.19 156.12 152.51 156.80 152.51 157.63 C 152.51 158.45 153.19 159.13 154.02 159.13 Z M 155.02 159.12 L 156.02 159.12 C 156.84 159.12 157.51 158.45 157.51 157.63 C 157.51 156.80 156.84 156.14 156.02 156.14 L 155.02 156.14 C 154.20 156.14 153.53 156.80 153.53 157.63 C 153.53 158.45 154.20 159.12 155.02 159.12 Z M 156.02 159.10 L 157.02 159.10 C 157.84 159.10 158.50 158.44 158.50 157.63 C 158.50 156.81 157.84 156.15 157.02 156.15 L 156.02 156.15 C 155.20 156.15 154.54 156.81 154.54 157.63 C 154.54 158.44 155.20 159.10 156.02 159.10 Z M 157.02 159.09 L 158.02 159.09 C 158.83 159.09 159.48 158.44 159.48 157.63 C 159.48 156.82 158.83 156.16 158.02 156.16 L 157.02 156.16 C 156.21 156.16 155.55 156.82 155.55 157.63 C 155.55 158.44 156.21 159.09 157.02 159.09 Z M 158.02 159.08 L 159.02 159.08 C 159.82 159.08 160.47 158.43 160.47 157.63 C 160.47 156.82 159.82 156.17 159.02 156.17 L 158.02 156.17 C 157.22 156.17 156.57 156.82 156.57 157.63 C 156.57 158.43 157.22 159.08 158.02 159.08 Z M 159.02 159.07 L 160.02 159.07 C 160.81 159.07 161.46 158.42 161.46 157.63 C 161.46 156.83 160.81 156.18 160.02 156.18 L 159.02 156.18 C 158.22 156.18 157.58 156.83 157.58 157.63 C 157.58 158.42 158.22 159.07 159.02 159.07 Z M 160.02 159.06 L 161.02 159.06 C 161.81 159.06 162.45 158.42 162.45 157.63 C 162.45 156.83 161.81 156.19 161.02 156.19 L 160.02 156.19 C 159.23 156.19 158.59 156.83 158.59 157.63 C 158.59 158.42 159.23 159.06 160.02 159.06 Z M 161.02 159.05 L 161.30 159.05 C 162.09 159.05 162.73 158.41 162.73 157.63 C 162.73 156.84 162.09 156.20 161.30 156.20 L 161.02 156.20 C 160.23 156.20 159.59 156.84 159.59 157.63 C 159.59 158.41 160.23 159.05 161.02 159.05 Z"
      fill="black"
      fill-rule="nonzero" /><path d="M 147.06 165.21 L 148.01 165.21 C 148.84 165.21 149.52 164.54 149.52 163.71 C 149.52 162.88 148.84 162.21 148.01 162.21 L 147.06 162.21 C 146.23 162.21 145.56 162.88 145.56 163.71 C 145.56 164.54 146.23 165.21 147.06 165.21 Z M 148.01 165.26 L 149.02 165.26 C 149.87 165.26 150.56 164.57 150.56 163.71 C 150.56 162.86 149.87 162.17 149.02 162.17 L 148.01 162.17 C 147.16 162.17 146.47 162.86 146.47 163.71 C 146.47 164.57 147.16 165.26 148.01 165.26 Z M 149.03 165.27 L 150.00 165.27 C 150.87 165.26 151.56 164.55 151.55 163.69 C 151.55 162.83 150.84 162.13 149.98 162.14 L 149.00 162.15 C 148.14 162.16 147.45 162.86 147.45 163.72 C 147.46 164.59 148.17 165.28 149.03 165.27 Z M 150.04 165.27 L 151.11 165.23 C 151.97 165.21 152.65 164.49 152.62 163.62 C 152.60 162.76 151.88 162.08 151.02 162.11 L 149.94 162.14 C 149.08 162.17 148.40 162.89 148.43 163.75 C 148.45 164.61 149.18 165.29 150.04 165.27 Z M 151.15 165.23 L 152.19 165.17 C 153.05 165.12 153.71 164.39 153.66 163.53 C 153.61 162.66 152.87 162.00 152.01 162.05 L 150.97 162.11 C 150.11 162.16 149.45 162.90 149.50 163.76 C 149.55 164.62 150.29 165.28 151.15 165.23 Z M 152.21 165.17 L 153.20 165.10 C 154.05 165.04 154.70 164.29 154.64 163.43 C 154.58 162.57 153.83 161.92 152.97 161.99 L 151.99 162.06 C 151.13 162.12 150.48 162.87 150.54 163.73 C 150.61 164.59 151.35 165.23 152.21 165.17 Z M 153.21 165.09 L 154.25 165.01 C 155.11 164.93 155.75 164.18 155.67 163.32 C 155.60 162.47 154.85 161.83 153.99 161.90 L 152.95 161.99 C 152.09 162.06 151.46 162.82 151.53 163.67 C 151.60 164.53 152.36 165.17 153.21 165.09 Z M 154.28 165.00 L 155.20 164.90 C 156.05 164.82 156.68 164.06 156.59 163.21 C 156.51 162.35 155.74 161.73 154.89 161.82 L 153.97 161.91 C 153.12 162.00 152.49 162.76 152.58 163.61 C 152.67 164.46 153.43 165.08 154.28 165.00 Z M 155.23 164.90 L 156.22 164.78 C 157.06 164.68 157.67 163.91 157.57 163.06 C 157.47 162.22 156.70 161.61 155.86 161.71 L 154.87 161.83 C 154.02 161.93 153.41 162.69 153.51 163.54 C 153.61 164.39 154.38 165.00 155.23 164.90 Z M 156.23 164.77 L 157.22 164.65 C 158.06 164.54 158.66 163.77 158.56 162.93 C 158.45 162.09 157.68 161.49 156.84 161.59 L 155.85 161.72 C 155.00 161.82 154.41 162.59 154.51 163.44 C 154.62 164.28 155.38 164.88 156.23 164.77 Z M 157.22 164.64 L 158.21 164.51 C 159.05 164.41 159.65 163.64 159.54 162.80 C 159.44 161.97 158.67 161.37 157.83 161.48 L 156.84 161.60 C 156.00 161.71 155.41 162.47 155.51 163.31 C 155.62 164.15 156.38 164.74 157.22 164.64 Z M 158.21 164.50 L 159.20 164.38 C 160.03 164.27 160.62 163.51 160.52 162.68 C 160.41 161.85 159.65 161.26 158.82 161.36 L 157.83 161.49 C 157.00 161.59 156.41 162.35 156.52 163.19 C 156.62 164.02 157.38 164.61 158.21 164.50 Z M 159.21 164.37 L 160.14 164.25 C 160.97 164.13 161.55 163.37 161.44 162.54 C 161.33 161.72 160.57 161.13 159.74 161.25 L 158.81 161.37 C 157.98 161.48 157.40 162.24 157.51 163.07 C 157.62 163.90 158.38 164.48 159.21 164.37 Z M 160.16 164.24 L 160.95 164.12 C 161.77 164.00 162.34 163.24 162.22 162.41 C 162.10 161.59 161.34 161.02 160.51 161.14 L 159.73 161.25 C 158.90 161.37 158.33 162.14 158.45 162.96 C 158.57 163.79 159.34 164.36 160.16 164.24 Z M 160.95 164.12 L 162.13 163.94 C 162.95 163.82 163.52 163.05 163.39 162.23 C 163.27 161.41 162.51 160.85 161.69 160.97 L 160.51 161.15 C 159.69 161.27 159.12 162.03 159.25 162.85 C 159.37 163.67 160.13 164.24 160.95 164.12 Z M 162.13 163.93 L 163.02 163.80 C 163.84 163.68 164.40 162.92 164.28 162.10 C 164.16 161.28 163.39 160.72 162.58 160.84 L 161.69 160.97 C 160.87 161.10 160.31 161.86 160.43 162.68 C 160.55 163.49 161.31 164.06 162.13 163.93 Z M 163.02 163.80 L 163.92 163.66 C 164.74 163.54 165.30 162.78 165.18 161.96 C 165.06 161.15 164.30 160.59 163.48 160.71 L 162.58 160.84 C 161.76 160.97 161.20 161.73 161.32 162.54 C 161.44 163.36 162.20 163.92 163.02 163.80 Z M 163.92 163.66 L 164.93 163.51 C 165.74 163.39 166.30 162.63 166.18 161.82 C 166.06 161.00 165.30 160.44 164.49 160.56 L 163.48 160.71 C 162.67 160.83 162.11 161.59 162.23 162.41 C 162.35 163.22 163.11 163.78 163.92 163.66 Z M 164.93 163.51 L 166.00 163.35 C 166.81 163.22 167.37 162.47 167.25 161.66 C 167.13 160.84 166.37 160.28 165.56 160.40 L 164.49 160.57 C 163.67 160.69 163.11 161.44 163.24 162.26 C 163.36 163.07 164.11 163.63 164.93 163.51 Z M 166.00 163.34 L 167.11 163.18 C 167.92 163.06 168.48 162.30 168.36 161.49 C 168.24 160.68 167.48 160.12 166.67 160.24 L 165.56 160.41 C 164.75 160.53 164.19 161.28 164.31 162.09 C 164.43 162.90 165.19 163.46 166.00 163.34 Z M 167.11 163.17 L 167.45 163.12 C 168.26 163.00 168.81 162.25 168.69 161.44 C 168.57 160.63 167.82 160.07 167.01 160.19 L 166.67 160.24 C 165.86 160.37 165.30 161.12 165.43 161.93 C 165.55 162.74 166.30 163.30 167.11 163.17 Z"
      fill="black"
      fill-rule="nonzero" /><path d="M 161.53 161.25 L 160.94 162.07 C 160.46 162.75 160.61 163.69 161.29 164.17 C 161.96 164.65 162.90 164.50 163.38 163.82 L 163.97 163.00 C 164.45 162.33 164.30 161.39 163.62 160.91 C 162.95 160.42 162.01 160.58 161.53 161.25 Z M 160.84 162.16 L 160.34 163.02 C 159.90 163.75 160.14 164.69 160.87 165.12 C 161.60 165.55 162.54 165.31 162.98 164.59 L 163.48 163.73 C 163.91 163.00 163.67 162.06 162.95 161.63 C 162.22 161.20 161.27 161.44 160.84 162.16 Z M 160.21 163.23 L 159.86 164.12 C 159.54 164.91 159.93 165.82 160.73 166.14 C 161.53 166.45 162.43 166.06 162.75 165.26 L 163.10 164.37 C 163.42 163.57 163.03 162.67 162.23 162.35 C 161.43 162.04 160.52 162.43 160.21 163.23 Z M 159.79 164.28 L 159.53 165.25 C 159.31 166.08 159.80 166.94 160.64 167.17 C 161.47 167.39 162.33 166.90 162.55 166.06 L 162.81 165.10 C 163.04 164.26 162.54 163.40 161.71 163.18 C 160.88 162.95 160.02 163.45 159.79 164.28 Z M 159.52 165.28 L 159.27 166.30 C 159.07 167.14 159.58 167.98 160.42 168.19 C 161.26 168.40 162.11 167.88 162.32 167.04 L 162.57 166.03 C 162.77 165.19 162.26 164.34 161.42 164.14 C 160.58 163.93 159.73 164.44 159.52 165.28 Z M 159.28 166.27 L 159.02 167.27 C 158.80 168.11 159.30 168.97 160.14 169.19 C 160.98 169.41 161.84 168.90 162.06 168.06 L 162.32 167.06 C 162.53 166.22 162.03 165.37 161.19 165.15 C 160.35 164.93 159.49 165.44 159.28 166.27 Z M 159.02 167.25 L 158.76 168.18 C 158.53 169.01 159.02 169.88 159.86 170.11 C 160.70 170.34 161.56 169.85 161.80 169.02 L 162.05 168.09 C 162.28 167.25 161.79 166.38 160.95 166.15 C 160.12 165.92 159.25 166.41 159.02 167.25 Z M 158.77 168.14 L 158.47 169.16 C 158.21 169.99 158.68 170.87 159.52 171.12 C 160.35 171.37 161.22 170.90 161.48 170.07 L 161.78 169.05 C 162.04 168.22 161.57 167.34 160.73 167.09 C 159.90 166.84 159.03 167.31 158.77 168.14 Z M 158.48 169.13 L 158.19 170.02 C 157.93 170.84 158.38 171.73 159.20 171.99 C 160.03 172.26 160.91 171.81 161.18 170.98 L 161.46 170.10 C 161.73 169.27 161.28 168.39 160.45 168.12 C 159.63 167.86 158.74 168.31 158.48 169.13 Z M 158.19 170.02 L 157.89 170.96 C 157.63 171.79 158.08 172.67 158.91 172.93 C 159.73 173.20 160.61 172.74 160.88 171.92 L 161.18 170.98 C 161.44 170.16 160.99 169.27 160.16 169.01 C 159.34 168.74 158.46 169.20 158.19 170.02 Z M 157.90 170.95 L 157.58 171.91 C 157.31 172.73 157.75 173.62 158.58 173.89 C 159.40 174.16 160.28 173.71 160.55 172.89 L 160.87 171.93 C 161.14 171.11 160.70 170.22 159.88 169.95 C 159.05 169.68 158.17 170.13 157.90 170.95 Z M 157.59 171.89 L 157.26 172.83 C 156.98 173.65 157.41 174.54 158.23 174.82 C 159.05 175.11 159.94 174.67 160.22 173.85 L 160.55 172.91 C 160.83 172.09 160.40 171.20 159.58 170.92 C 158.76 170.64 157.87 171.07 157.59 171.89 Z M 157.27 172.82 L 156.93 173.76 C 156.64 174.58 157.07 175.47 157.89 175.76 C 158.70 176.05 159.60 175.62 159.88 174.81 L 160.22 173.87 C 160.50 173.05 160.08 172.16 159.26 171.87 C 158.45 171.58 157.55 172.01 157.27 172.82 Z M 156.94 173.76 L 156.60 174.69 C 156.31 175.50 156.73 176.40 157.55 176.69 C 158.36 176.98 159.25 176.56 159.54 175.75 L 159.88 174.81 C 160.17 174.00 159.75 173.11 158.93 172.82 C 158.12 172.53 157.23 172.95 156.94 173.76 Z M 156.61 174.69 L 156.26 175.64 C 155.97 176.45 156.38 177.34 157.19 177.64 C 158.00 177.93 158.89 177.52 159.19 176.71 L 159.54 175.75 C 159.83 174.95 159.42 174.05 158.61 173.76 C 157.80 173.46 156.91 173.88 156.61 174.69 Z M 156.27 175.62 L 155.92 176.57 C 155.61 177.37 156.02 178.27 156.82 178.57 C 157.62 178.88 158.51 178.47 158.82 177.67 L 159.17 176.72 C 159.48 175.92 159.08 175.03 158.27 174.72 C 157.47 174.42 156.58 174.82 156.27 175.62 Z M 155.94 176.54 L 155.56 177.47 C 155.23 178.26 155.61 179.16 156.40 179.48 C 157.19 179.80 158.09 179.42 158.42 178.63 L 158.80 177.71 C 159.12 176.92 158.74 176.01 157.95 175.69 C 157.16 175.37 156.26 175.75 155.94 176.54 Z M 155.58 177.42 L 155.17 178.34 C 154.82 179.12 155.16 180.03 155.94 180.38 C 156.72 180.73 157.63 180.38 157.98 179.60 L 158.39 178.68 C 158.74 177.91 158.39 176.99 157.62 176.65 C 156.84 176.30 155.93 176.64 155.58 177.42 Z M 155.18 178.32 L 154.76 179.22 C 154.40 179.98 154.73 180.90 155.50 181.26 C 156.27 181.62 157.19 181.28 157.55 180.52 L 157.96 179.62 C 158.32 178.85 157.99 177.94 157.22 177.58 C 156.45 177.22 155.54 177.55 155.18 178.32 Z M 154.77 179.21 L 154.34 180.12 C 153.98 180.88 154.31 181.80 155.07 182.16 C 155.84 182.52 156.75 182.19 157.11 181.43 L 157.54 180.52 C 157.90 179.75 157.57 178.84 156.81 178.48 C 156.04 178.12 155.13 178.45 154.77 179.21 Z M 154.36 180.08 L 153.93 180.94 C 153.55 181.69 153.85 182.61 154.60 182.99 C 155.35 183.37 156.27 183.07 156.65 182.32 L 157.09 181.46 C 157.47 180.71 157.17 179.79 156.42 179.41 C 155.67 179.03 154.75 179.33 154.36 180.08 Z M 153.96 180.89 L 153.47 181.78 C 153.06 182.51 153.32 183.44 154.05 183.85 C 154.79 184.26 155.72 183.99 156.12 183.26 L 156.62 182.37 C 157.03 181.64 156.77 180.71 156.03 180.30 C 155.30 179.89 154.37 180.15 153.96 180.89 Z M 153.49 181.75 L 152.98 182.61 C 152.56 183.33 152.80 184.26 153.52 184.68 C 154.24 185.11 155.17 184.87 155.59 184.15 L 156.10 183.29 C 156.53 182.57 156.29 181.64 155.57 181.22 C 154.85 180.79 153.92 181.03 153.49 181.75 Z M 153.03 182.55 L 152.47 183.38 C 152.01 184.08 152.20 185.01 152.90 185.47 C 153.59 185.94 154.53 185.75 154.99 185.05 L 155.54 184.22 C 156.00 183.52 155.82 182.58 155.12 182.12 C 154.43 181.66 153.49 181.85 153.03 182.55 Z M 152.68 183.16 L 151.90 183.93 C 151.32 184.51 151.31 185.45 151.89 186.04 C 152.47 186.62 153.42 186.63 154.00 186.05 L 154.78 185.28 C 155.37 184.70 155.37 183.75 154.79 183.17 C 154.21 182.58 153.27 182.58 152.68 183.16 Z M 154.08 184.05 L 153.71 183.60 C 153.19 182.97 152.27 182.88 151.64 183.40 C 151.02 183.92 150.93 184.84 151.44 185.47 L 151.82 185.92 C 152.34 186.55 153.26 186.64 153.89 186.12 C 154.51 185.60 154.60 184.68 154.08 184.05 Z M 154.01 184.39 L 153.90 183.30 C 153.82 182.51 153.11 181.93 152.32 182.01 C 151.53 182.09 150.95 182.80 151.03 183.59 L 151.14 184.68 C 151.22 185.47 151.93 186.05 152.72 185.97 C 153.52 185.88 154.09 185.18 154.01 184.39 Z"
      fill="black"
      fill-rule="nonzero" /><path d="M 149.66 172.17 L 150.47 172.74 C 151.18 173.24 152.15 173.07 152.64 172.36 C 153.14 171.66 152.97 170.69 152.26 170.20 L 151.45 169.62 C 150.74 169.13 149.77 169.30 149.28 170.00 C 148.78 170.70 148.95 171.68 149.66 172.17 Z M 150.46 172.77 L 151.28 173.34 C 152.00 173.84 152.98 173.66 153.48 172.95 C 153.98 172.23 153.81 171.25 153.09 170.74 L 152.27 170.17 C 151.56 169.67 150.57 169.85 150.07 170.56 C 149.57 171.28 149.75 172.27 150.46 172.77 Z M 151.28 173.36 L 152.10 173.93 C 152.82 174.43 153.82 174.25 154.32 173.52 C 154.83 172.79 154.64 171.79 153.92 171.29 L 153.10 170.72 C 152.37 170.22 151.37 170.40 150.87 171.13 C 150.37 171.86 150.55 172.86 151.28 173.36 Z M 152.10 173.94 L 152.92 174.49 C 153.65 174.99 154.65 174.80 155.15 174.07 C 155.65 173.33 155.46 172.33 154.73 171.83 L 153.91 171.28 C 153.18 170.78 152.17 170.97 151.68 171.70 C 151.18 172.44 151.37 173.44 152.10 173.94 Z M 152.93 174.50 L 153.77 175.06 C 154.51 175.55 155.51 175.35 156.00 174.61 C 156.49 173.87 156.29 172.87 155.55 172.38 L 154.71 171.83 C 153.97 171.33 152.98 171.53 152.49 172.27 C 151.99 173.01 152.19 174.01 152.93 174.50 Z M 153.79 175.06 L 154.66 175.63 C 155.40 176.11 156.40 175.90 156.88 175.16 C 157.36 174.42 157.15 173.43 156.41 172.95 L 155.53 172.38 C 154.79 171.90 153.80 172.11 153.32 172.85 C 152.84 173.59 153.05 174.58 153.79 175.06 Z M 154.68 175.63 L 155.55 176.19 C 156.29 176.66 157.28 176.44 157.75 175.70 C 158.22 174.96 158.01 173.98 157.27 173.50 L 156.39 172.95 C 155.65 172.47 154.67 172.69 154.19 173.43 C 153.72 174.17 153.94 175.16 154.68 175.63 Z M 155.56 176.18 L 156.36 176.69 C 157.10 177.16 158.08 176.94 158.55 176.20 C 159.02 175.46 158.80 174.48 158.06 174.02 L 157.26 173.51 C 156.52 173.04 155.54 173.26 155.07 174.00 C 154.60 174.74 154.82 175.72 155.56 176.18 Z M 156.37 176.68 L 157.28 177.26 C 158.01 177.72 158.98 177.50 159.45 176.77 C 159.91 176.04 159.69 175.06 158.96 174.60 L 158.05 174.02 C 157.32 173.56 156.35 173.78 155.88 174.51 C 155.42 175.25 155.63 176.22 156.37 176.68 Z M 157.29 177.25 L 158.06 177.74 C 158.79 178.20 159.76 177.98 160.22 177.24 C 160.67 176.51 160.45 175.55 159.72 175.09 L 158.95 174.60 C 158.22 174.15 157.25 174.37 156.79 175.10 C 156.34 175.83 156.56 176.79 157.29 177.25 Z M 158.08 177.74 L 158.86 178.22 C 159.60 178.66 160.55 178.43 161.00 177.70 C 161.45 176.96 161.21 176.01 160.48 175.56 L 159.70 175.09 C 158.97 174.64 158.01 174.87 157.56 175.61 C 157.12 176.34 157.35 177.29 158.08 177.74 Z M 158.88 178.22 L 159.78 178.75 C 160.51 179.19 161.46 178.95 161.90 178.22 C 162.34 177.49 162.10 176.54 161.37 176.10 L 160.47 175.56 C 159.73 175.12 158.78 175.36 158.35 176.10 C 157.91 176.83 158.15 177.78 158.88 178.22 Z M 159.78 178.75 L 160.55 179.21 C 161.28 179.65 162.23 179.41 162.67 178.68 C 163.10 177.95 162.86 177.00 162.13 176.57 L 161.36 176.11 C 160.63 175.67 159.69 175.91 159.25 176.64 C 158.82 177.37 159.05 178.31 159.78 178.75 Z M 160.55 179.20 L 161.44 179.74 C 162.17 180.18 163.11 179.94 163.55 179.22 C 163.99 178.49 163.75 177.55 163.03 177.11 L 162.14 176.58 C 161.41 176.14 160.47 176.37 160.03 177.10 C 159.59 177.82 159.83 178.77 160.55 179.20 Z M 161.44 179.73 L 162.38 180.31 C 163.10 180.75 164.04 180.52 164.48 179.80 C 164.92 179.08 164.69 178.14 163.97 177.70 L 163.03 177.12 C 162.31 176.68 161.37 176.91 160.93 177.63 C 160.49 178.35 160.72 179.29 161.44 179.73 Z M 162.37 180.29 L 163.26 180.85 C 163.97 181.29 164.91 181.08 165.36 180.37 C 165.80 179.66 165.59 178.72 164.88 178.27 L 163.98 177.72 C 163.27 177.27 162.34 177.48 161.89 178.20 C 161.45 178.91 161.66 179.84 162.37 180.29 Z M 163.24 180.82 L 164.09 181.38 C 164.78 181.84 165.72 181.65 166.18 180.96 C 166.64 180.27 166.45 179.33 165.75 178.87 L 164.90 178.30 C 164.21 177.84 163.27 178.03 162.81 178.73 C 162.35 179.42 162.54 180.36 163.24 180.82 Z M 164.03 181.33 L 164.77 181.88 C 165.44 182.37 166.38 182.23 166.87 181.56 C 167.36 180.90 167.22 179.96 166.55 179.47 L 165.81 178.92 C 165.15 178.43 164.21 178.57 163.72 179.24 C 163.22 179.90 163.36 180.84 164.03 181.33 Z M 164.65 181.76 L 165.47 182.51 C 166.07 183.07 167.00 183.03 167.56 182.43 C 168.12 181.83 168.08 180.90 167.48 180.34 L 166.67 179.59 C 166.07 179.03 165.13 179.07 164.58 179.67 C 164.02 180.27 164.05 181.20 164.65 181.76 Z M 165.35 182.36 L 165.93 183.05 C 166.45 183.67 167.37 183.75 167.99 183.24 C 168.60 182.72 168.69 181.80 168.17 181.18 L 167.59 180.49 C 167.08 179.87 166.15 179.79 165.54 180.31 C 164.92 180.82 164.84 181.74 165.35 182.36 Z M 165.91 183.01 L 165.96 183.08 C 166.46 183.71 167.37 183.82 168.00 183.33 C 168.63 182.83 168.74 181.92 168.24 181.29 L 168.19 181.22 C 167.70 180.59 166.79 180.48 166.16 180.98 C 165.53 181.47 165.42 182.38 165.91 183.01 Z"
      fill="black"
      fill-rule="nonzero" /></svg>