<svg xmlns="http://www.w3.org/2000/svg" width="300" height="300" viewBox="0 0 300 300">
<path d="M 128.08 133.42 L 128.94 133.65 C 129.75 133.87 130.59 133.39 130.81 132.58 C 131.03 131.77 130.55 130.94 129.74 130.72 L 128.88 130.48 C 128.07 130.26 127.23 130.74 127.01 131.55 C 126.79 132.36 127.27 133.20 128.08 133.42 Z M 129.08 133.71 L 130.13 133.90 C 130.97 134.04 131.78 133.47 131.92 132.63 C 132.07 131.79 131.50 130.98 130.66 130.84 L 129.60 130.66 C 128.76 130.51 127.96 131.08 127.81 131.92 C 127.67 132.77 128.23 133.57 129.08 133.71 Z M 130.28 133.93 L 131.24 134.00 C 132.11 134.07 132.86 133.42 132.92 132.55 C 132.99 131.69 132.34 130.94 131.47 130.87 L 130.51 130.80 C 129.65 130.74 128.89 131.39 128.83 132.25 C 128.76 133.12 129.41 133.87 130.28 133.93 Z M 131.32 134.01 L 132.33 134.04 C 133.20 134.06 133.92 133.38 133.95 132.51 C 133.97 131.64 133.29 130.92 132.42 130.89 L 131.40 130.87 C 130.53 130.84 129.81 131.53 129.79 132.39 C 129.76 133.26 130.45 133.99 131.32 134.01 Z M 132.37 134.04 L 133.41 134.04 C 134.28 134.05 134.99 133.35 134.99 132.48 C 135.00 131.61 134.30 130.91 133.43 130.90 L 132.39 130.89 C 131.52 130.89 130.81 131.59 130.80 132.46 C 130.80 133.32 131.50 134.03 132.37 134.04 Z M 133.42 134.04 L 134.48 134.04 C 135.34 134.04 136.05 133.34 136.05 132.47 C 136.05 131.61 135.34 130.90 134.48 130.90 L 133.42 130.90 C 132.55 130.90 131.85 131.60 131.85 132.47 C 131.85 133.34 132.55 134.04 133.42 134.04 Z M 134.48 134.04 L 135.49 134.04 C 136.35 134.04 137.05 133.34 137.05 132.47 C 137.05 131.61 136.35 130.91 135.49 130.91 L 134.48 130.91 C 133.61 130.91 132.91 131.61 132.91 132.47 C 132.91 133.34 133.61 134.04 134.48 134.04 Z M 135.49 134.03 L 136.44 134.03 C 137.31 134.03 138.01 133.34 138.01 132.47 C 138.01 131.61 137.31 130.91 136.44 130.91 L 135.49 130.91 C 134.62 130.91 133.92 131.61 133.92 132.47 C 133.92 133.34 134.62 134.03 135.49 134.03 Z M 136.44 134.03 L 137.45 134.03 C 138.31 134.03 139.01 133.33 139.01 132.47 C 139.01 131.61 138.31 130.92 137.45 130.92 L 136.44 130.92 C 135.58 130.92 134.89 131.61 134.89 132.47 C 134.89 133.33 135.58 134.03 136.44 134.03 Z M 137.45 134.02 L 138.46 134.02 C 139.32 134.02 140.01 133.33 140.01 132.47 C 140.01 131.62 139.32 130.93 138.46 130.93 L 137.45 130.93 C 136.60 130.93 135.91 131.62 135.91 132.47 C 135.91 133.33 136.60 134.02 137.45 134.02 Z M 138.46 134.01 L 139.44 134.01 C 140.28 134.01 140.97 133.32 140.97 132.47 C 140.97 131.63 140.28 130.94 139.44 130.94 L 138.46 130.94 C 137.62 130.94 136.93 131.63 136.93 132.47 C 136.93 133.32 137.62 134.01 138.46 134.01 Z M 139.44 133.99 L 140.47 133.99 C 141.31 133.99 141.99 133.31 141.99 132.47 C 141.99 131.63 141.31 130.96 140.47 130.96 L 139.44 130.96 C 138.60 130.96 137.92 131.63 137.92 132.47 C 137.92 133.31 138.60 133.99 139.44 133.99 Z M 140.47 133.97 L 141.44 133.97 C 142.26 133.97 142.93 133.30 142.93 132.47 C 142.93 131.65 142.26 130.98 141.44 130.98 L 140.47 130.98 C 139.65 130.98 138.98 131.65 138.98 132.47 C 138.98 133.30 139.65 133.97 140.47 133.97 Z M 141.43 133.95 L 142.42 133.95 C 143.24 133.95 143.90 133.29 143.90 132.47 C 143.90 131.66 143.24 131.00 142.43 130.99 L 141.44 130.99 C 140.62 130.99 139.96 131.65 139.96 132.47 C 139.96 133.29 140.62 133.95 141.43 133.95 Z M 142.41 133.94 L 143.41 133.95 C 144.22 133.95 144.88 133.30 144.89 132.49 C 144.89 131.68 144.24 131.02 143.43 131.02 L 142.44 131.01 C 141.63 131.00 140.97 131.65 140.96 132.46 C 140.95 133.27 141.60 133.93 142.41 133.94 Z M 143.39 133.93 L 144.38 133.95 C 145.18 133.97 145.85 133.33 145.86 132.53 C 145.88 131.73 145.24 131.07 144.44 131.05 L 143.45 131.03 C 142.65 131.01 141.99 131.65 141.97 132.45 C 141.95 133.25 142.59 133.92 143.39 133.93 Z M 144.37 133.94 L 145.38 133.97 C 146.17 134.00 146.83 133.37 146.86 132.57 C 146.88 131.78 146.26 131.12 145.46 131.09 L 144.45 131.06 C 143.66 131.04 142.99 131.66 142.97 132.46 C 142.95 133.25 143.57 133.92 144.37 133.94 Z M 145.37 133.96 L 145.76 133.98 C 146.55 134.00 147.21 133.38 147.24 132.59 C 147.26 131.80 146.64 131.14 145.85 131.11 L 145.46 131.10 C 144.67 131.08 144.01 131.70 143.99 132.49 C 143.96 133.28 144.58 133.94 145.37 133.96 Z"
      fill="black"
      fill-rule="nonzero" /><path d="M 129.69 137.65 L 129.61 138.61 C 129.55 139.44 130.17 140.16 130.99 140.22 C 131.82 140.28 132.54 139.67 132.60 138.84 L 132.68 137.88 C 132.74 137.06 132.12 136.34 131.30 136.27 C 130.47 136.21 129.75 136.83 129.69 137.65 Z M 129.56 138.64 L 129.50 139.67 C 129.45 140.52 130.10 141.25 130.96 141.30 C 131.81 141.35 132.55 140.70 132.60 139.85 L 132.66 138.82 C 132.71 137.96 132.05 137.23 131.20 137.18 C 130.34 137.13 129.61 137.78 129.56 138.64 Z M 129.48 139.70 L 129.44 140.72 C 129.41 141.58 130.09 142.31 130.95 142.35 C 131.82 142.38 132.55 141.70 132.58 140.83 L 132.62 139.81 C 132.65 138.94 131.97 138.21 131.10 138.18 C 130.24 138.15 129.51 138.83 129.48 139.70 Z M 129.44 140.74 L 129.42 141.74 C 129.40 142.61 130.09 143.33 130.96 143.35 C 131.83 143.36 132.54 142.68 132.56 141.81 L 132.58 140.81 C 132.60 139.94 131.91 139.22 131.04 139.20 C 130.18 139.18 129.46 139.87 129.44 140.74 Z M 129.42 141.76 L 129.41 142.78 C 129.40 143.65 130.10 144.36 130.96 144.37 C 131.83 144.38 132.54 143.68 132.55 142.81 L 132.56 141.79 C 132.57 140.92 131.87 140.21 131.01 140.20 C 130.14 140.19 129.43 140.89 129.42 141.76 Z M 129.42 142.77 L 129.40 143.73 C 129.38 144.59 130.07 145.30 130.93 145.32 C 131.80 145.33 132.51 144.65 132.52 143.78 L 132.54 142.83 C 132.56 141.96 131.87 141.25 131.01 141.23 C 130.14 141.22 129.43 141.91 129.42 142.77 Z M 129.40 143.70 L 129.37 144.70 C 129.34 145.56 130.01 146.28 130.87 146.31 C 131.73 146.34 132.45 145.67 132.48 144.81 L 132.52 143.81 C 132.55 142.95 131.88 142.23 131.02 142.20 C 130.16 142.17 129.44 142.84 129.40 143.70 Z M 129.38 144.69 L 129.33 145.69 C 129.30 146.55 129.96 147.27 130.82 147.31 C 131.68 147.34 132.40 146.68 132.43 145.82 L 132.48 144.82 C 132.51 143.96 131.85 143.24 130.99 143.20 C 130.13 143.17 129.41 143.83 129.38 144.69 Z M 129.34 145.69 L 129.30 146.70 C 129.27 147.55 129.93 148.27 130.78 148.30 C 131.63 148.34 132.35 147.68 132.38 146.82 L 132.43 145.82 C 132.46 144.97 131.80 144.25 130.95 144.21 C 130.10 144.18 129.38 144.84 129.34 145.69 Z M 129.31 146.69 L 129.27 147.70 C 129.23 148.55 129.89 149.26 130.73 149.30 C 131.58 149.33 132.29 148.68 132.33 147.83 L 132.37 146.83 C 132.41 145.98 131.75 145.27 130.91 145.23 C 130.06 145.19 129.35 145.85 129.31 146.69 Z M 129.28 147.68 L 129.23 148.59 C 129.18 149.43 129.82 150.14 130.66 150.19 C 131.50 150.24 132.22 149.60 132.27 148.76 L 132.32 147.85 C 132.36 147.02 131.72 146.30 130.89 146.25 C 130.05 146.20 129.33 146.84 129.28 147.68 Z M 129.24 148.58 L 129.18 149.54 C 129.13 150.37 129.77 151.09 130.60 151.14 C 131.43 151.19 132.15 150.55 132.20 149.72 L 132.26 148.76 C 132.30 147.93 131.67 147.21 130.84 147.17 C 130.00 147.12 129.29 147.75 129.24 148.58 Z M 129.19 149.57 L 129.15 150.65 C 129.12 151.48 129.76 152.18 130.59 152.21 C 131.42 152.25 132.12 151.60 132.15 150.77 L 132.19 149.69 C 132.22 148.86 131.58 148.16 130.75 148.13 C 129.92 148.10 129.22 148.74 129.19 149.57 Z M 129.15 150.68 L 129.13 151.70 C 129.11 152.53 129.76 153.21 130.59 153.23 C 131.42 153.25 132.10 152.60 132.12 151.77 L 132.14 150.75 C 132.16 149.92 131.51 149.24 130.68 149.22 C 129.86 149.20 129.17 149.85 129.15 150.68 Z M 129.13 151.72 L 129.12 152.77 C 129.12 153.59 129.78 154.26 130.60 154.27 C 131.42 154.28 132.10 153.62 132.10 152.80 L 132.12 151.75 C 132.12 150.93 131.46 150.26 130.64 150.25 C 129.82 150.24 129.14 150.90 129.13 151.72 Z M 129.13 152.80 L 129.14 153.87 C 129.15 154.68 129.82 155.34 130.64 155.33 C 131.46 155.32 132.12 154.65 132.11 153.83 L 132.10 152.77 C 132.09 151.95 131.42 151.29 130.60 151.30 C 129.78 151.31 129.12 151.98 129.13 152.80 Z M 129.16 153.92 L 129.21 154.93 C 129.25 155.74 129.94 156.36 130.74 156.32 C 131.55 156.28 132.17 155.60 132.14 154.79 L 132.09 153.78 C 132.05 152.97 131.36 152.35 130.56 152.39 C 129.75 152.43 129.12 153.11 129.16 153.92 Z M 129.23 154.97 L 129.28 155.56 C 129.34 156.35 130.03 156.95 130.83 156.89 C 131.62 156.83 132.22 156.13 132.16 155.34 L 132.11 154.75 C 132.05 153.95 131.36 153.36 130.56 153.42 C 129.77 153.48 129.17 154.17 129.23 154.97 Z"
      fill="black"
      fill-rule="nonzero" /><path d="M 133.22 141.08 L 134.22 141.08 C 135.03 141.08 135.69 140.42 135.69 139.60 C 135.69 138.79 135.03 138.13 134.22 138.13 L 133.22 138.13 C 132.41 138.13 131.74 138.79 131.74 139.60 C 131.74 140.42 132.41 141.08 133.22 141.08 Z M 134.22 141.11 L 135.22 141.11 C 136.05 141.11 136.73 140.44 136.73 139.60 C 136.73 138.77 136.05 138.09 135.22 138.09 L 134.22 138.09 C 133.38 138.09 132.71 138.77 132.71 139.60 C 132.71 140.44 133.38 141.11 134.22 141.11 Z M 135.22 141.13 L 136.22 141.13 C 137.06 141.13 137.74 140.44 137.74 139.60 C 137.74 138.76 137.06 138.08 136.22 138.08 L 135.22 138.08 C 134.38 138.08 133.70 138.76 133.70 139.60 C 133.70 140.44 134.38 141.13 135.22 141.13 Z M 136.22 141.12 L 137.21 141.12 C 138.05 141.12 138.73 140.44 138.73 139.60 C 138.73 138.76 138.05 138.08 137.21 138.08 L 136.22 138.08 C 135.38 138.08 134.70 138.76 134.70 139.60 C 134.70 140.44 135.38 141.12 136.22 141.12 Z M 137.20 141.12 L 138.20 141.13 C 139.04 141.13 139.72 140.46 139.73 139.62 C 139.73 138.78 139.06 138.10 138.22 138.09 L 137.22 138.09 C 136.38 138.08 135.70 138.76 135.69 139.59 C 135.69 140.43 136.36 141.11 137.20 141.12 Z M 138.17 141.12 L 139.16 141.15 C 139.99 141.17 140.69 140.51 140.71 139.68 C 140.73 138.84 140.08 138.15 139.24 138.12 L 138.25 138.10 C 137.42 138.07 136.72 138.73 136.70 139.57 C 136.67 140.40 137.33 141.10 138.17 141.12 Z M 139.02 141.14 L 140.02 141.26 C 140.85 141.36 141.60 140.77 141.70 139.94 C 141.80 139.11 141.21 138.36 140.38 138.25 L 139.38 138.13 C 138.55 138.03 137.80 138.62 137.69 139.45 C 137.59 140.28 138.19 141.04 139.02 141.14 Z M 139.75 141.21 L 140.69 141.50 C 141.49 141.74 142.34 141.29 142.59 140.49 C 142.83 139.69 142.38 138.85 141.58 138.60 L 140.64 138.31 C 139.84 138.06 139.00 138.51 138.75 139.31 C 138.50 140.11 138.95 140.96 139.75 141.21 Z M 140.45 141.40 L 141.34 141.85 C 142.09 142.23 143.00 141.94 143.38 141.19 C 143.76 140.45 143.46 139.53 142.72 139.15 L 141.83 138.70 C 141.08 138.32 140.17 138.61 139.79 139.36 C 139.41 140.10 139.70 141.02 140.45 141.40 Z M 141.17 141.75 L 142.00 142.32 C 142.69 142.80 143.63 142.62 144.10 141.94 C 144.58 141.25 144.41 140.31 143.72 139.83 L 142.89 139.26 C 142.20 138.78 141.26 138.95 140.78 139.64 C 140.31 140.33 140.48 141.27 141.17 141.75 Z M 141.86 142.22 L 142.60 142.86 C 143.23 143.41 144.19 143.35 144.74 142.72 C 145.29 142.09 145.23 141.13 144.60 140.58 L 143.85 139.94 C 143.23 139.39 142.27 139.45 141.72 140.08 C 141.17 140.71 141.23 141.67 141.86 142.22 Z M 142.48 142.74 L 143.17 143.50 C 143.74 144.12 144.69 144.16 145.31 143.60 C 145.93 143.04 145.97 142.08 145.41 141.46 L 144.72 140.70 C 144.16 140.09 143.20 140.04 142.58 140.60 C 141.96 141.17 141.92 142.13 142.48 142.74 Z M 143.07 143.37 L 143.65 144.17 C 144.14 144.85 145.09 145.00 145.76 144.50 C 146.44 144.01 146.59 143.06 146.10 142.39 L 145.52 141.59 C 145.03 140.91 144.08 140.76 143.40 141.26 C 142.72 141.75 142.57 142.70 143.07 143.37 Z M 143.56 144.04 L 144.06 144.91 C 144.48 145.63 145.41 145.88 146.13 145.46 C 146.86 145.04 147.11 144.11 146.69 143.39 L 146.18 142.52 C 145.76 141.79 144.84 141.55 144.11 141.97 C 143.39 142.39 143.14 143.31 143.56 144.04 Z M 143.99 144.77 L 144.40 145.68 C 144.75 146.45 145.64 146.79 146.41 146.44 C 147.17 146.10 147.51 145.20 147.17 144.44 L 146.76 143.53 C 146.41 142.76 145.52 142.42 144.75 142.77 C 143.99 143.11 143.65 144.01 143.99 144.77 Z M 144.35 145.54 L 144.64 146.42 C 144.90 147.21 145.76 147.64 146.55 147.38 C 147.34 147.12 147.78 146.26 147.51 145.47 L 147.22 144.59 C 146.96 143.79 146.10 143.36 145.31 143.63 C 144.52 143.89 144.09 144.74 144.35 145.54 Z M 144.61 146.27 L 144.82 147.24 C 145.00 148.05 145.81 148.56 146.62 148.38 C 147.44 148.20 147.95 147.39 147.76 146.58 L 147.55 145.61 C 147.37 144.80 146.56 144.29 145.75 144.47 C 144.93 144.65 144.42 145.46 144.61 146.27 Z M 144.80 147.11 L 144.95 148.19 C 145.06 149.01 145.82 149.59 146.64 149.48 C 147.46 149.37 148.04 148.61 147.93 147.79 L 147.78 146.71 C 147.67 145.88 146.92 145.31 146.09 145.42 C 145.27 145.53 144.69 146.28 144.80 147.11 Z M 144.94 148.10 L 145.02 149.08 C 145.08 149.90 145.80 150.52 146.62 150.46 C 147.45 150.40 148.07 149.68 148.01 148.86 L 147.93 147.88 C 147.87 147.05 147.15 146.43 146.33 146.49 C 145.50 146.56 144.88 147.27 144.94 148.10 Z M 145.02 149.02 L 145.06 150.05 C 145.09 150.88 145.78 151.52 146.61 151.49 C 147.43 151.46 148.08 150.76 148.04 149.94 L 148.01 148.91 C 147.97 148.08 147.28 147.44 146.45 147.47 C 145.63 147.50 144.99 148.20 145.02 149.02 Z M 145.06 150.01 L 145.07 151.03 C 145.08 151.86 145.76 152.52 146.58 152.51 C 147.40 152.50 148.06 151.82 148.05 151.00 L 148.04 149.98 C 148.03 149.15 147.36 148.49 146.53 148.50 C 145.71 148.51 145.05 149.19 145.06 150.01 Z M 145.08 151.00 L 145.07 152.01 C 145.06 152.83 145.71 153.50 146.53 153.51 C 147.35 153.52 148.03 152.86 148.04 152.04 L 148.05 151.03 C 148.06 150.21 147.40 149.54 146.58 149.53 C 145.76 149.52 145.09 150.18 145.08 151.00 Z M 145.08 151.96 L 145.03 153.06 C 145.00 153.87 145.63 154.56 146.44 154.59 C 147.26 154.63 147.95 154.00 147.98 153.18 L 148.02 152.09 C 148.06 151.27 147.43 150.58 146.61 150.55 C 145.80 150.52 145.11 151.15 145.08 151.96 Z M 145.05 152.97 L 144.95 153.93 C 144.87 154.73 145.46 155.45 146.26 155.53 C 147.07 155.61 147.78 155.03 147.86 154.22 L 147.96 153.27 C 148.04 152.46 147.45 151.75 146.65 151.67 C 145.85 151.58 145.13 152.17 145.05 152.97 Z M 144.99 153.80 L 144.81 154.70 C 144.66 155.48 145.17 156.24 145.96 156.39 C 146.74 156.55 147.50 156.04 147.65 155.25 L 147.83 154.35 C 147.98 153.57 147.47 152.81 146.69 152.66 C 145.90 152.50 145.14 153.01 144.99 153.80 Z M 144.86 154.54 L 144.56 155.50 C 144.32 156.26 144.74 157.07 145.49 157.31 C 146.25 157.55 147.06 157.13 147.30 156.37 L 147.60 155.41 C 147.84 154.65 147.42 153.84 146.67 153.60 C 145.91 153.36 145.10 153.78 144.86 154.54 Z M 144.60 155.40 L 144.23 156.31 C 143.94 157.05 144.29 157.88 145.03 158.18 C 145.76 158.47 146.59 158.12 146.89 157.38 L 147.26 156.47 C 147.55 155.74 147.20 154.90 146.46 154.61 C 145.73 154.31 144.90 154.67 144.60 155.40 Z M 144.25 156.29 L 144.17 156.47 C 143.86 157.20 144.20 158.04 144.92 158.35 C 145.65 158.66 146.49 158.32 146.80 157.59 L 146.88 157.41 C 147.18 156.68 146.85 155.84 146.12 155.53 C 145.39 155.23 144.55 155.56 144.25 156.29 Z"
      fill="black"
      fill-rule="nonzero" /><path d="M 130.38 149.23 L 131.36 149.23 C 132.19 149.23 132.86 148.55 132.86 147.72 C 132.86 146.89 132.19 146.22 131.36 146.22 L 130.38 146.22 C 129.55 146.22 128.88 146.89 128.88 147.72 C 128.88 148.55 129.55 149.23 130.38 149.23 Z M 131.36 149.25 L 132.35 149.25 C 133.19 149.25 133.87 148.57 133.87 147.72 C 133.87 146.88 133.19 146.20 132.35 146.20 L 131.36 146.20 C 130.51 146.20 129.83 146.88 129.83 147.72 C 129.83 148.57 130.51 149.25 131.36 149.25 Z M 132.34 149.25 L 133.31 149.26 C 134.16 149.26 134.85 148.59 134.85 147.74 C 134.86 146.90 134.18 146.21 133.34 146.20 L 132.36 146.19 C 131.51 146.19 130.82 146.87 130.82 147.71 C 130.81 148.56 131.49 149.25 132.34 149.25 Z M 133.28 149.25 L 134.31 149.28 C 135.15 149.30 135.85 148.64 135.88 147.80 C 135.90 146.96 135.24 146.26 134.40 146.24 L 133.37 146.21 C 132.53 146.19 131.83 146.85 131.81 147.69 C 131.78 148.53 132.45 149.23 133.28 149.25 Z M 134.28 149.27 L 135.26 149.32 C 136.10 149.36 136.81 148.71 136.85 147.88 C 136.89 147.04 136.24 146.33 135.41 146.29 L 134.43 146.25 C 133.59 146.21 132.88 146.85 132.84 147.68 C 132.80 148.52 133.45 149.23 134.28 149.27 Z M 135.24 149.31 L 136.27 149.38 C 137.10 149.43 137.82 148.80 137.87 147.97 C 137.93 147.14 137.30 146.42 136.47 146.37 L 135.43 146.30 C 134.60 146.24 133.88 146.88 133.83 147.71 C 133.77 148.54 134.40 149.26 135.24 149.31 Z M 136.25 149.37 L 137.25 149.45 C 138.08 149.51 138.80 148.90 138.87 148.07 C 138.93 147.25 138.32 146.52 137.49 146.46 L 136.49 146.38 C 135.66 146.31 134.94 146.93 134.87 147.75 C 134.81 148.58 135.42 149.30 136.25 149.37 Z M 137.24 149.43 L 138.24 149.52 C 139.05 149.59 139.77 148.99 139.85 148.18 C 139.92 147.36 139.32 146.64 138.50 146.57 L 137.50 146.48 C 136.69 146.40 135.97 147.00 135.89 147.82 C 135.82 148.63 136.42 149.36 137.24 149.43 Z M 138.23 149.50 L 139.23 149.60 C 140.03 149.68 140.75 149.09 140.83 148.28 C 140.91 147.48 140.32 146.76 139.51 146.68 L 138.51 146.58 C 137.71 146.51 136.99 147.10 136.91 147.90 C 136.83 148.71 137.42 149.42 138.23 149.50 Z M 139.22 149.58 L 140.24 149.69 C 141.03 149.77 141.75 149.19 141.83 148.39 C 141.91 147.59 141.33 146.88 140.53 146.80 L 139.52 146.70 C 138.72 146.61 138.01 147.19 137.93 147.99 C 137.84 148.79 138.42 149.50 139.22 149.58 Z M 140.22 149.68 L 141.21 149.79 C 142.00 149.87 142.71 149.30 142.80 148.51 C 142.89 147.72 142.32 147.01 141.53 146.92 L 140.54 146.81 C 139.75 146.72 139.04 147.29 138.95 148.08 C 138.86 148.88 139.43 149.59 140.22 149.68 Z M 141.19 149.78 L 142.19 149.90 C 142.97 150.00 143.69 149.44 143.78 148.65 C 143.88 147.86 143.32 147.15 142.54 147.05 L 141.54 146.93 C 140.76 146.83 140.04 147.39 139.94 148.18 C 139.85 148.96 140.41 149.68 141.19 149.78 Z M 142.17 149.89 L 143.16 150.03 C 143.94 150.13 144.66 149.58 144.77 148.80 C 144.87 148.02 144.32 147.30 143.54 147.19 L 142.55 147.06 C 141.77 146.95 141.05 147.50 140.94 148.28 C 140.84 149.07 141.39 149.79 142.17 149.89 Z M 143.15 150.02 L 143.90 150.13 C 144.68 150.24 145.40 149.69 145.51 148.91 C 145.62 148.13 145.07 147.41 144.29 147.30 L 143.55 147.20 C 142.77 147.09 142.05 147.63 141.94 148.41 C 141.83 149.19 142.37 149.91 143.15 150.02 Z"
      fill="black"
      fill-rule="nonzero" /><path d="M 129.63 158.15 L 130.53 158.52 C 131.29 158.84 132.16 158.47 132.47 157.71 C 132.78 156.96 132.42 156.09 131.66 155.78 L 130.76 155.41 C 130.00 155.10 129.13 155.46 128.82 156.22 C 128.51 156.97 128.87 157.84 129.63 158.15 Z M 130.72 158.60 L 131.70 158.86 C 132.50 159.07 133.32 158.58 133.53 157.78 C 133.74 156.98 133.25 156.16 132.45 155.95 L 131.47 155.70 C 130.67 155.49 129.85 155.97 129.64 156.77 C 129.44 157.58 129.92 158.40 130.72 158.60 Z M 131.94 158.91 L 132.92 158.99 C 133.75 159.06 134.48 158.45 134.55 157.62 C 134.63 156.79 134.01 156.06 133.18 155.98 L 132.20 155.90 C 131.37 155.83 130.64 156.44 130.57 157.27 C 130.50 158.11 131.11 158.84 131.94 158.91 Z M 133.03 159.00 L 134.06 159.01 C 134.90 159.02 135.58 158.35 135.59 157.52 C 135.60 156.68 134.93 156.00 134.10 155.99 L 133.07 155.98 C 132.23 155.97 131.55 156.64 131.54 157.47 C 131.53 158.30 132.20 158.99 133.03 159.00 Z M 134.08 159.00 L 135.06 159.00 C 135.89 159.00 136.56 158.33 136.56 157.50 C 136.56 156.67 135.89 156.00 135.06 156.00 L 134.08 156.00 C 133.25 156.00 132.58 156.67 132.58 157.50 C 132.58 158.33 133.25 159.00 134.08 159.00 Z M 135.06 158.98 L 136.07 158.98 C 136.89 158.98 137.55 158.32 137.55 157.50 C 137.55 156.68 136.89 156.02 136.07 156.02 L 135.06 156.02 C 134.24 156.02 133.57 156.68 133.57 157.50 C 133.57 158.32 134.24 158.98 135.06 158.98 Z M 136.07 158.97 L 137.06 158.97 C 137.87 158.97 138.53 158.31 138.53 157.50 C 138.53 156.69 137.87 156.03 137.06 156.03 L 136.07 156.03 C 135.25 156.03 134.60 156.69 134.60 157.50 C 134.60 158.31 135.25 158.97 136.07 158.97 Z M 137.06 158.96 L 138.07 158.96 C 138.88 158.96 139.53 158.31 139.53 157.50 C 139.53 156.69 138.88 156.04 138.07 156.04 L 137.06 156.04 C 136.26 156.04 135.60 156.69 135.60 157.50 C 135.60 158.31 136.26 158.96 137.06 158.96 Z M 138.07 158.95 L 139.09 158.95 C 139.89 158.95 140.54 158.30 140.54 157.50 C 140.54 156.70 139.89 156.05 139.09 156.05 L 138.07 156.05 C 137.27 156.05 136.62 156.70 136.62 157.50 C 136.62 158.30 137.27 158.95 138.07 158.95 Z M 139.09 158.94 L 140.12 158.94 C 140.91 158.94 141.56 158.30 141.56 157.50 C 141.56 156.70 140.91 156.06 140.12 156.06 L 139.09 156.06 C 138.29 156.06 137.65 156.70 137.65 157.50 C 137.65 158.30 138.29 158.94 139.09 158.94 Z M 140.12 158.93 L 141.09 158.93 C 141.88 158.93 142.53 158.29 142.53 157.50 C 142.53 156.71 141.88 156.06 141.09 156.06 L 140.12 156.06 C 139.32 156.06 138.68 156.71 138.68 157.50 C 138.68 158.29 139.32 158.93 140.12 158.93 Z M 141.09 158.93 L 142.11 158.93 C 142.89 158.93 143.54 158.29 143.54 157.50 C 143.54 156.71 142.89 156.07 142.11 156.07 L 141.09 156.07 C 140.30 156.07 139.66 156.71 139.66 157.50 C 139.66 158.29 140.30 158.93 141.09 158.93 Z M 142.11 158.93 L 143.09 158.93 C 143.88 158.93 144.52 158.29 144.52 157.50 C 144.52 156.71 143.88 156.07 143.09 156.07 L 142.11 156.07 C 141.32 156.07 140.68 156.71 140.68 157.50 C 140.68 158.29 141.32 158.93 142.11 158.93 Z M 143.09 158.93 L 143.37 158.93 C 144.16 158.93 144.79 158.29 144.79 157.50 C 144.79 156.71 144.16 156.07 143.37 156.07 L 143.09 156.07 C 142.30 156.07 141.66 156.71 141.66 157.50 C 141.66 158.29 142.30 158.93 143.09 158.93 Z"
      fill="black"
      fill-rule="nonzero" /><path d="M 126.50 165.58 L 127.41 165.88 C 128.19 166.14 129.03 165.71 129.29 164.93 C 129.55 164.14 129.12 163.30 128.34 163.04 L 127.43 162.74 C 126.65 162.49 125.80 162.91 125.55 163.70 C 125.29 164.48 125.72 165.32 126.50 165.58 Z M 127.58 165.96 L 128.59 166.16 C 129.42 166.32 130.22 165.78 130.38 164.95 C 130.54 164.12 130.00 163.32 129.17 163.15 L 128.16 162.96 C 127.33 162.80 126.53 163.34 126.37 164.17 C 126.21 165.00 126.75 165.80 127.58 165.96 Z M 128.77 166.19 L 129.78 166.26 C 130.63 166.32 131.37 165.69 131.43 164.84 C 131.49 163.99 130.85 163.25 130.00 163.19 L 128.99 163.12 C 128.14 163.06 127.41 163.70 127.35 164.55 C 127.29 165.40 127.92 166.13 128.77 166.19 Z M 129.86 166.26 L 130.88 166.28 C 131.72 166.30 132.42 165.63 132.44 164.78 C 132.46 163.94 131.79 163.24 130.94 163.22 L 129.92 163.20 C 129.08 163.18 128.38 163.85 128.36 164.69 C 128.34 165.54 129.01 166.24 129.86 166.26 Z M 130.90 166.27 L 131.91 166.28 C 132.75 166.28 133.44 165.61 133.44 164.77 C 133.45 163.92 132.77 163.24 131.93 163.23 L 130.92 163.23 C 130.08 163.22 129.39 163.90 129.39 164.74 C 129.38 165.58 130.06 166.26 130.90 166.27 Z M 131.92 166.27 L 132.89 166.27 C 133.72 166.27 134.40 165.59 134.40 164.76 C 134.40 163.92 133.72 163.25 132.89 163.25 L 131.92 163.25 C 131.09 163.25 130.41 163.92 130.41 164.75 C 130.41 165.59 131.09 166.26 131.92 166.27 Z M 132.89 166.26 L 133.88 166.26 C 134.71 166.26 135.38 165.58 135.38 164.76 C 135.38 163.93 134.71 163.26 133.88 163.26 L 132.89 163.26 C 132.06 163.26 131.39 163.93 131.39 164.76 C 131.39 165.58 132.06 166.26 132.89 166.26 Z M 133.88 166.25 L 134.88 166.25 C 135.71 166.25 136.38 165.58 136.38 164.76 C 136.38 163.93 135.71 163.26 134.88 163.26 L 133.88 163.26 C 133.06 163.26 132.39 163.93 132.39 164.76 C 132.39 165.58 133.06 166.25 133.88 166.25 Z M 134.88 166.24 L 135.89 166.24 C 136.71 166.24 137.37 165.58 137.37 164.76 C 137.37 163.94 136.71 163.27 135.89 163.27 L 134.88 163.27 C 134.06 163.27 133.40 163.94 133.40 164.76 C 133.40 165.58 134.06 166.24 134.88 166.24 Z M 135.89 166.23 L 136.89 166.23 C 137.70 166.23 138.36 165.57 138.36 164.75 C 138.36 163.94 137.70 163.28 136.88 163.28 L 135.88 163.28 C 135.07 163.28 134.41 163.94 134.41 164.76 C 134.41 165.57 135.07 166.23 135.89 166.23 Z M 136.90 166.22 L 137.90 166.21 C 138.71 166.20 139.36 165.54 139.35 164.73 C 139.34 163.92 138.68 163.27 137.87 163.28 L 136.87 163.29 C 136.06 163.30 135.41 163.96 135.42 164.77 C 135.43 165.58 136.09 166.23 136.90 166.22 Z M 137.94 166.20 L 138.95 166.16 C 139.75 166.13 140.38 165.46 140.35 164.66 C 140.32 163.85 139.65 163.22 138.84 163.25 L 137.83 163.29 C 137.03 163.32 136.40 163.99 136.43 164.80 C 136.46 165.60 137.14 166.23 137.94 166.20 Z M 138.99 166.15 L 139.99 166.08 C 140.79 166.03 141.39 165.34 141.34 164.54 C 141.28 163.74 140.59 163.14 139.79 163.20 L 138.80 163.26 C 138.00 163.32 137.40 164.01 137.45 164.81 C 137.50 165.60 138.20 166.21 138.99 166.15 Z M 140.04 166.07 L 141.03 165.97 C 141.82 165.88 142.40 165.18 142.31 164.38 C 142.23 163.59 141.52 163.02 140.73 163.10 L 139.74 163.21 C 138.95 163.29 138.38 164.00 138.46 164.79 C 138.55 165.58 139.25 166.15 140.04 166.07 Z M 141.07 165.96 L 142.06 165.82 C 142.85 165.72 143.40 164.99 143.29 164.21 C 143.18 163.42 142.46 162.88 141.68 162.98 L 140.69 163.12 C 139.91 163.22 139.36 163.94 139.46 164.73 C 139.57 165.51 140.29 166.06 141.07 165.96 Z M 142.08 165.81 L 143.08 165.67 C 143.86 165.55 144.40 164.82 144.28 164.04 C 144.17 163.26 143.44 162.72 142.66 162.84 L 141.66 162.99 C 140.88 163.10 140.34 163.83 140.46 164.61 C 140.57 165.39 141.30 165.93 142.08 165.81 Z M 143.08 165.66 L 144.07 165.52 C 144.85 165.40 145.39 164.68 145.28 163.90 C 145.16 163.12 144.44 162.58 143.66 162.70 L 142.66 162.84 C 141.88 162.96 141.35 163.68 141.46 164.46 C 141.57 165.24 142.30 165.78 143.08 165.66 Z M 144.06 165.52 L 145.06 165.39 C 145.84 165.28 146.39 164.56 146.28 163.78 C 146.18 163.00 145.46 162.46 144.68 162.56 L 143.68 162.69 C 142.90 162.80 142.35 163.52 142.45 164.30 C 142.56 165.08 143.27 165.62 144.06 165.52 Z M 145.04 165.39 L 146.01 165.27 C 146.79 165.18 147.35 164.47 147.26 163.69 C 147.17 162.91 146.46 162.35 145.68 162.44 L 144.70 162.56 C 143.92 162.65 143.36 163.36 143.46 164.14 C 143.55 164.92 144.26 165.48 145.04 165.39 Z M 146.01 165.27 L 146.17 165.25 C 146.95 165.16 147.51 164.46 147.42 163.67 C 147.33 162.89 146.63 162.33 145.84 162.42 L 145.68 162.44 C 144.90 162.53 144.34 163.24 144.43 164.02 C 144.52 164.80 145.23 165.36 146.01 165.27 Z"
      fill="black"
      fill-rule="nonzero" /><path d="M 136.89 127.59 L 136.89 128.66 C 136.89 129.48 137.55 130.13 138.36 130.13 C 139.18 130.13 139.84 129.48 139.84 128.66 L 139.84 127.59 C 139.84 126.78 139.18 126.12 138.36 126.12 C 137.55 126.12 136.89 126.78 136.89 127.59 Z M 136.85 128.66 L 136.85 129.66 C 136.85 130.49 137.53 131.17 138.36 131.17 C 139.20 131.17 139.88 130.49 139.88 129.66 L 139.88 128.66 C 139.88 127.83 139.20 127.15 138.36 127.15 C 137.53 127.15 136.85 127.83 136.85 128.66 Z M 136.82 129.66 L 136.82 130.65 C 136.82 131.50 137.51 132.20 138.36 132.20 C 139.22 132.20 139.91 131.50 139.91 130.65 L 139.91 129.66 C 139.91 128.80 139.22 128.11 138.36 128.11 C 137.51 128.11 136.82 128.80 136.82 129.66 Z M 136.80 130.65 L 136.80 131.62 C 136.80 132.48 137.50 133.18 138.36 133.18 C 139.23 133.18 139.93 132.48 139.93 131.62 L 139.93 130.65 C 139.93 129.79 139.23 129.09 138.36 129.09 C 137.50 129.09 136.80 129.79 136.80 130.65 Z M 136.80 131.62 L 136.80 132.56 C 136.80 133.42 137.50 134.12 138.36 134.12 C 139.23 134.12 139.93 133.42 139.93 132.56 L 139.93 131.62 C 139.93 130.75 139.23 130.05 138.36 130.05 C 137.50 130.05 136.80 130.75 136.80 131.62 Z M 136.80 132.56 L 136.80 133.58 C 136.80 134.45 137.50 135.15 138.36 135.15 C 139.23 135.15 139.93 134.45 139.93 133.58 L 139.93 132.56 C 139.93 131.69 139.23 130.99 138.36 130.99 C 137.50 130.99 136.80 131.69 136.80 132.56 Z M 136.79 133.58 L 136.79 134.55 C 136.79 135.42 137.50 136.12 138.37 136.12 C 139.23 136.12 139.93 135.42 139.93 134.55 L 139.93 133.58 C 139.93 132.71 139.23 132.01 138.36 132.01 C 137.50 132.01 136.79 132.71 136.79 133.58 Z M 136.79 134.56 L 136.80 135.58 C 136.80 136.45 137.51 137.15 138.38 137.14 C 139.25 137.14 139.95 136.43 139.94 135.56 L 139.94 134.54 C 139.93 133.67 139.22 132.97 138.36 132.98 C 137.49 132.98 136.79 133.69 136.79 134.56 Z M 136.80 135.59 L 136.81 136.59 C 136.82 137.46 137.54 138.15 138.41 138.14 C 139.28 138.13 139.97 137.41 139.96 136.55 L 139.94 135.54 C 139.93 134.68 139.22 133.98 138.35 133.99 C 137.48 134.01 136.78 134.72 136.80 135.59 Z M 136.81 136.60 L 136.83 137.61 C 136.85 138.48 137.57 139.16 138.44 139.15 C 139.31 139.13 140.00 138.41 139.98 137.54 L 139.96 136.53 C 139.94 135.67 139.22 134.98 138.35 134.99 C 137.48 135.01 136.79 135.73 136.81 136.60 Z M 136.83 137.61 L 136.86 138.63 C 136.88 139.50 137.60 140.19 138.47 140.16 C 139.34 140.14 140.02 139.42 140.00 138.55 L 139.98 137.53 C 139.96 136.67 139.24 135.98 138.37 136.00 C 137.50 136.02 136.81 136.74 136.83 137.61 Z M 136.86 138.63 L 136.88 139.63 C 136.91 140.50 137.63 141.18 138.50 141.16 C 139.37 141.14 140.05 140.42 140.03 139.55 L 140.00 138.55 C 139.98 137.68 139.26 137.00 138.39 137.02 C 137.52 137.04 136.84 137.76 136.86 138.63 Z M 136.89 139.64 L 136.92 140.64 C 136.94 141.50 137.67 142.19 138.54 142.16 C 139.40 142.13 140.09 141.41 140.06 140.54 L 140.03 139.54 C 140.00 138.67 139.28 137.99 138.41 138.02 C 137.54 138.04 136.86 138.77 136.89 139.64 Z M 136.92 140.65 L 136.96 141.64 C 136.99 142.51 137.72 143.19 138.59 143.15 C 139.46 143.12 140.13 142.39 140.10 141.52 L 140.06 140.53 C 140.02 139.66 139.29 138.98 138.42 139.02 C 137.56 139.05 136.88 139.78 136.92 140.65 Z M 136.96 141.66 L 137.01 142.65 C 137.05 143.52 137.78 144.19 138.65 144.15 C 139.51 144.10 140.18 143.37 140.14 142.50 L 140.10 141.51 C 140.05 140.64 139.32 139.97 138.45 140.01 C 137.59 140.05 136.92 140.79 136.96 141.66 Z M 137.01 142.66 L 137.06 143.67 C 137.10 144.53 137.84 145.20 138.70 145.15 C 139.57 145.11 140.23 144.38 140.19 143.51 L 140.14 142.50 C 140.10 141.64 139.36 140.97 138.50 141.01 C 137.63 141.05 136.97 141.79 137.01 142.66 Z M 137.06 143.66 L 137.11 144.65 C 137.15 145.52 137.88 146.18 138.75 146.14 C 139.61 146.10 140.28 145.36 140.24 144.50 L 140.19 143.51 C 140.15 142.65 139.41 141.98 138.55 142.02 C 137.69 142.06 137.02 142.80 137.06 143.66 Z M 137.11 144.65 L 137.16 145.65 C 137.20 146.51 137.93 147.18 138.79 147.14 C 139.66 147.10 140.32 146.37 140.28 145.50 L 140.24 144.50 C 140.20 143.64 139.46 142.97 138.60 143.01 C 137.73 143.05 137.07 143.79 137.11 144.65 Z M 137.16 145.65 L 137.20 146.65 C 137.24 147.51 137.98 148.18 138.84 148.14 C 139.70 148.10 140.37 147.37 140.33 146.50 L 140.28 145.50 C 140.24 144.64 139.51 143.97 138.65 144.01 C 137.78 144.05 137.12 144.79 137.16 145.65 Z M 137.21 146.65 L 137.25 147.63 C 137.29 148.50 138.03 149.16 138.89 149.12 C 139.75 149.08 140.42 148.35 140.38 147.48 L 140.33 146.50 C 140.29 145.64 139.55 144.97 138.69 145.02 C 137.83 145.06 137.16 145.79 137.21 146.65 Z M 137.25 147.63 L 137.30 148.64 C 137.34 149.50 138.07 150.17 138.94 150.13 C 139.80 150.08 140.46 149.35 140.42 148.49 L 140.37 147.49 C 140.33 146.62 139.60 145.96 138.74 146.00 C 137.88 146.04 137.21 146.77 137.25 147.63 Z M 137.30 148.64 L 137.35 149.64 C 137.39 150.50 138.12 151.16 138.98 151.12 C 139.84 151.08 140.51 150.35 140.47 149.49 L 140.42 148.49 C 140.38 147.63 139.65 146.97 138.79 147.01 C 137.93 147.05 137.26 147.78 137.30 148.64 Z M 137.35 149.63 L 137.39 150.61 C 137.43 151.47 138.16 152.14 139.02 152.10 C 139.88 152.06 140.55 151.33 140.51 150.47 L 140.47 149.49 C 140.43 148.63 139.70 147.97 138.84 148.00 C 137.98 148.04 137.31 148.77 137.35 149.63 Z M 137.39 150.61 L 137.44 151.62 C 137.47 152.48 138.20 153.14 139.06 153.11 C 139.92 153.07 140.59 152.34 140.55 151.48 L 140.51 150.47 C 140.47 149.61 139.74 148.95 138.89 148.98 C 138.03 149.02 137.36 149.75 137.39 150.61 Z M 137.44 151.61 L 137.48 152.64 C 137.52 153.50 138.24 154.17 139.10 154.13 C 139.96 154.10 140.63 153.37 140.59 152.51 L 140.55 151.49 C 140.51 150.63 139.79 149.96 138.93 150.00 C 138.07 150.03 137.41 150.75 137.44 151.61 Z M 137.49 152.64 L 137.53 153.64 C 137.56 154.50 138.28 155.16 139.13 155.13 C 139.99 155.10 140.66 154.38 140.62 153.52 L 140.58 152.52 C 140.55 151.66 139.83 151.00 138.98 151.03 C 138.12 151.06 137.46 151.78 137.49 152.64 Z M 137.53 153.64 L 137.57 154.64 C 137.60 155.50 138.31 156.16 139.16 156.13 C 140.01 156.10 140.68 155.39 140.65 154.54 L 140.61 153.53 C 140.58 152.68 139.87 152.01 139.02 152.04 C 138.17 152.07 137.50 152.79 137.53 153.64 Z M 137.58 154.64 L 137.61 155.63 C 137.63 156.47 138.34 157.14 139.19 157.11 C 140.03 157.08 140.70 156.38 140.67 155.53 L 140.64 154.54 C 140.61 153.70 139.91 153.03 139.06 153.06 C 138.22 153.09 137.55 153.79 137.58 154.64 Z M 137.62 155.62 L 137.64 156.65 C 137.67 157.49 138.37 158.16 139.21 158.14 C 140.05 158.11 140.71 157.41 140.69 156.57 L 140.66 155.54 C 140.64 154.70 139.94 154.03 139.10 154.05 C 138.26 154.08 137.59 154.78 137.62 155.62 Z M 137.65 156.65 L 137.68 157.64 C 137.70 158.48 138.39 159.15 139.23 159.13 C 140.07 159.10 140.73 158.41 140.71 157.57 L 140.68 156.58 C 140.66 155.74 139.97 155.07 139.13 155.09 C 138.29 155.11 137.63 155.81 137.65 156.65 Z M 137.68 157.64 L 137.70 158.61 C 137.72 159.45 138.42 160.11 139.25 160.09 C 140.08 160.07 140.74 159.38 140.72 158.54 L 140.70 157.57 C 140.68 156.74 139.99 156.08 139.16 156.10 C 138.32 156.12 137.66 156.81 137.68 157.64 Z M 137.71 158.62 L 137.73 159.62 C 137.75 160.45 138.44 161.11 139.27 161.09 C 140.11 161.07 140.76 160.38 140.74 159.55 L 140.72 158.54 C 140.70 157.71 140.01 157.06 139.18 157.08 C 138.35 157.10 137.69 157.79 137.71 158.62 Z M 137.74 159.62 L 137.76 160.62 C 137.78 161.45 138.47 162.11 139.30 162.09 C 140.13 162.07 140.78 161.38 140.76 160.55 L 140.74 159.55 C 140.72 158.72 140.03 158.07 139.20 158.09 C 138.37 158.11 137.72 158.80 137.74 159.62 Z M 137.77 160.62 L 137.79 161.61 C 137.81 162.44 138.50 163.09 139.32 163.07 C 140.15 163.05 140.80 162.36 140.78 161.54 L 140.76 160.55 C 140.74 159.72 140.05 159.07 139.23 159.09 C 138.40 159.11 137.75 159.80 137.77 160.62 Z M 137.80 161.61 L 137.82 162.63 C 137.84 163.45 138.52 164.10 139.35 164.08 C 140.17 164.06 140.82 163.38 140.80 162.56 L 140.78 161.54 C 140.76 160.72 140.08 160.06 139.25 160.08 C 138.43 160.10 137.78 160.79 137.80 161.61 Z M 137.82 162.63 L 137.85 163.63 C 137.87 164.45 138.55 165.10 139.37 165.08 C 140.19 165.06 140.84 164.38 140.82 163.56 L 140.80 162.56 C 140.78 161.74 140.10 161.09 139.28 161.11 C 138.46 161.13 137.81 161.81 137.82 162.63 Z M 137.85 163.63 L 137.87 164.62 C 137.89 165.44 138.57 166.09 139.39 166.07 C 140.21 166.05 140.86 165.37 140.84 164.55 L 140.82 163.56 C 140.80 162.74 140.12 162.09 139.30 162.11 C 138.48 162.13 137.83 162.81 137.85 163.63 Z M 137.88 164.62 L 137.90 165.65 C 137.92 166.47 138.60 167.11 139.42 167.09 C 140.24 167.07 140.89 166.39 140.87 165.57 L 140.84 164.55 C 140.82 163.73 140.14 163.08 139.32 163.10 C 138.50 163.12 137.86 163.81 137.88 164.62 Z M 137.90 165.66 L 137.93 166.64 C 137.96 167.46 138.65 168.10 139.46 168.07 C 140.28 168.04 140.92 167.36 140.90 166.54 L 140.87 165.56 C 140.84 164.74 140.15 164.10 139.34 164.13 C 138.52 164.16 137.88 164.84 137.90 165.66 Z M 137.94 166.66 L 137.98 167.66 C 138.02 168.48 138.71 169.11 139.53 169.07 C 140.35 169.04 140.98 168.34 140.94 167.53 L 140.90 166.52 C 140.86 165.71 140.17 165.07 139.35 165.11 C 138.53 165.15 137.90 165.84 137.94 166.66 Z M 137.98 167.68 L 138.04 168.67 C 138.09 169.48 138.79 170.11 139.60 170.06 C 140.42 170.01 141.04 169.31 141.00 168.50 L 140.94 167.51 C 140.89 166.69 140.19 166.07 139.38 166.11 C 138.56 166.16 137.94 166.86 137.98 167.68 Z M 138.04 168.67 L 138.10 169.67 C 138.15 170.49 138.85 171.11 139.67 171.06 C 140.48 171.01 141.10 170.31 141.05 169.49 L 140.99 168.49 C 140.94 167.68 140.24 167.06 139.43 167.11 C 138.61 167.16 137.99 167.86 138.04 168.67 Z M 138.11 169.75 L 138.23 170.75 C 138.32 171.56 139.05 172.14 139.86 172.05 C 140.67 171.96 141.25 171.23 141.16 170.42 L 141.04 169.42 C 140.95 168.61 140.22 168.03 139.41 168.12 C 138.60 168.21 138.02 168.94 138.11 169.75 Z M 138.29 171.01 L 138.57 171.94 C 138.80 172.72 139.62 173.16 140.40 172.92 C 141.17 172.69 141.61 171.87 141.38 171.09 L 141.10 170.16 C 140.86 169.39 140.04 168.95 139.27 169.18 C 138.49 169.41 138.05 170.23 138.29 171.01 Z M 138.72 172.27 L 139.23 173.12 C 139.65 173.81 140.54 174.04 141.24 173.62 C 141.93 173.21 142.15 172.31 141.74 171.62 L 141.23 170.76 C 140.81 170.07 139.91 169.85 139.22 170.26 C 138.53 170.68 138.30 171.58 138.72 172.27 Z M 139.33 173.26 L 139.77 173.84 C 140.26 174.47 141.18 174.60 141.82 174.11 C 142.46 173.62 142.58 172.70 142.09 172.06 L 141.64 171.48 C 141.15 170.84 140.24 170.72 139.60 171.21 C 138.96 171.70 138.84 172.62 139.33 173.26 Z"
      fill="black"
      fill-rule="nonzero" /><path d="M 150.28 130.88 L 151.28 130.89 C 152.11 130.89 152.79 130.22 152.79 129.39 C 152.80 128.56 152.13 127.89 151.30 127.88 L 150.30 127.87 C 149.47 127.87 148.79 128.53 148.78 129.36 C 148.78 130.19 149.45 130.87 150.28 130.88 Z M 151.21 130.92 L 152.20 130.98 C 153.06 131.02 153.78 130.37 153.83 129.52 C 153.87 128.67 153.22 127.94 152.37 127.89 L 151.37 127.84 C 150.52 127.80 149.79 128.45 149.75 129.30 C 149.70 130.15 150.36 130.88 151.21 130.92 Z M 152.08 130.99 L 152.97 131.11 C 153.83 131.22 154.62 130.62 154.74 129.77 C 154.85 128.91 154.25 128.12 153.39 128.01 L 152.50 127.88 C 151.64 127.77 150.85 128.37 150.74 129.23 C 150.62 130.08 151.22 130.87 152.08 130.99 Z M 152.89 131.09 L 153.86 131.28 C 154.71 131.45 155.53 130.89 155.69 130.04 C 155.85 129.19 155.30 128.37 154.45 128.21 L 153.48 128.02 C 152.63 127.86 151.81 128.41 151.65 129.26 C 151.48 130.11 152.04 130.93 152.89 131.09 Z M 153.84 131.27 L 154.91 131.49 C 155.75 131.67 156.57 131.13 156.75 130.28 C 156.92 129.44 156.38 128.62 155.54 128.44 L 154.47 128.22 C 153.63 128.05 152.80 128.59 152.63 129.43 C 152.45 130.27 152.99 131.10 153.84 131.27 Z M 154.92 131.48 L 155.93 131.69 C 156.77 131.86 157.58 131.32 157.75 130.48 C 157.92 129.65 157.38 128.83 156.55 128.66 L 155.53 128.45 C 154.70 128.28 153.88 128.82 153.71 129.66 C 153.54 130.50 154.08 131.31 154.92 131.48 Z M 155.94 131.68 L 156.96 131.88 C 157.79 132.05 158.60 131.51 158.76 130.68 C 158.93 129.85 158.39 129.04 157.56 128.87 L 156.54 128.67 C 155.71 128.51 154.90 129.04 154.74 129.87 C 154.57 130.70 155.11 131.51 155.94 131.68 Z M 156.97 131.87 L 157.90 132.05 C 158.73 132.21 159.52 131.67 159.68 130.85 C 159.84 130.02 159.31 129.23 158.48 129.07 L 157.55 128.89 C 156.73 128.73 155.93 129.27 155.77 130.09 C 155.61 130.91 156.15 131.71 156.97 131.87 Z M 157.92 132.03 L 158.98 132.23 C 159.80 132.38 160.58 131.84 160.73 131.03 C 160.88 130.21 160.34 129.43 159.53 129.28 L 158.47 129.08 C 157.65 128.93 156.87 129.47 156.72 130.29 C 156.57 131.10 157.11 131.88 157.92 132.03 Z M 158.99 132.21 L 159.89 132.37 C 160.70 132.52 161.47 131.98 161.61 131.17 C 161.75 130.36 161.21 129.59 160.41 129.45 L 159.51 129.29 C 158.71 129.15 157.94 129.69 157.79 130.50 C 157.65 131.30 158.19 132.07 158.99 132.21 Z M 159.88 132.36 L 160.82 132.53 C 161.62 132.68 162.39 132.15 162.54 131.35 C 162.68 130.55 162.16 129.79 161.36 129.64 L 160.42 129.47 C 159.62 129.32 158.85 129.85 158.70 130.65 C 158.56 131.45 159.08 132.21 159.88 132.36 Z M 160.81 132.52 L 161.82 132.72 C 162.61 132.88 163.38 132.36 163.54 131.57 C 163.70 130.78 163.18 130.01 162.39 129.85 L 161.38 129.65 C 160.58 129.49 159.81 130.01 159.65 130.80 C 159.50 131.59 160.01 132.36 160.81 132.52 Z M 161.78 132.71 L 162.79 132.93 C 163.57 133.11 164.35 132.61 164.53 131.83 C 164.70 131.05 164.21 130.27 163.43 130.09 L 162.42 129.87 C 161.64 129.69 160.86 130.18 160.68 130.97 C 160.51 131.75 161.00 132.53 161.78 132.71 Z M 162.71 132.90 L 163.67 133.17 C 164.43 133.39 165.23 132.94 165.45 132.17 C 165.67 131.41 165.22 130.61 164.45 130.39 L 163.50 130.12 C 162.73 129.90 161.93 130.35 161.72 131.12 C 161.50 131.89 161.95 132.68 162.71 132.90 Z M 163.54 133.12 L 164.46 133.47 C 165.20 133.76 166.03 133.39 166.31 132.65 C 166.60 131.91 166.23 131.08 165.49 130.79 L 164.58 130.44 C 163.84 130.16 163.01 130.52 162.72 131.26 C 162.43 132.00 162.80 132.83 163.54 133.12 Z M 164.35 133.42 L 165.25 133.86 C 165.96 134.20 166.81 133.91 167.16 133.20 C 167.50 132.49 167.21 131.63 166.50 131.29 L 165.60 130.85 C 164.89 130.50 164.03 130.80 163.69 131.51 C 163.34 132.22 163.64 133.07 164.35 133.42 Z M 165.20 133.83 L 165.90 134.20 C 166.59 134.57 167.46 134.31 167.83 133.61 C 168.20 132.91 167.93 132.05 167.24 131.68 L 166.54 131.31 C 165.84 130.94 164.98 131.21 164.61 131.90 C 164.24 132.60 164.51 133.46 165.20 133.83 Z"
      fill="black"
      fill-rule="nonzero" /><path d="M 150.59 133.90 L 150.20 134.85 C 149.89 135.59 150.24 136.45 150.99 136.76 C 151.74 137.06 152.59 136.71 152.90 135.96 L 153.29 135.01 C 153.60 134.26 153.24 133.41 152.50 133.10 C 151.75 132.79 150.90 133.15 150.59 133.90 Z M 150.14 134.94 L 149.84 135.86 C 149.59 136.63 150.01 137.47 150.78 137.72 C 151.56 137.98 152.39 137.56 152.65 136.78 L 152.95 135.87 C 153.21 135.09 152.79 134.26 152.01 134.00 C 151.24 133.75 150.40 134.17 150.14 134.94 Z M 149.77 136.07 L 149.62 136.97 C 149.48 137.78 150.02 138.56 150.84 138.70 C 151.65 138.84 152.42 138.29 152.56 137.48 L 152.72 136.57 C 152.86 135.76 152.31 134.99 151.50 134.85 C 150.68 134.71 149.91 135.25 149.77 136.07 Z M 149.58 137.15 L 149.52 138.21 C 149.48 139.05 150.12 139.76 150.95 139.80 C 151.79 139.85 152.50 139.21 152.54 138.37 L 152.60 137.30 C 152.64 136.47 152.00 135.76 151.17 135.71 C 150.33 135.67 149.62 136.31 149.58 137.15 Z M 149.51 138.27 L 149.50 139.23 C 149.49 140.07 150.16 140.77 151.00 140.78 C 151.84 140.79 152.53 140.12 152.54 139.27 L 152.56 138.31 C 152.57 137.47 151.89 136.78 151.05 136.77 C 150.21 136.76 149.52 137.43 149.51 138.27 Z M 149.50 139.26 L 149.50 140.31 C 149.51 141.15 150.20 141.82 151.04 141.82 C 151.88 141.81 152.56 141.13 152.55 140.28 L 152.54 139.24 C 152.54 138.40 151.85 137.73 151.01 137.73 C 150.17 137.74 149.49 138.42 149.50 139.26 Z M 149.50 140.34 L 149.53 141.34 C 149.56 142.18 150.26 142.84 151.10 142.82 C 151.94 142.79 152.61 142.09 152.58 141.25 L 152.55 140.25 C 152.53 139.41 151.82 138.75 150.98 138.77 C 150.14 138.80 149.48 139.50 149.50 140.34 Z M 149.54 141.39 L 149.60 142.32 C 149.65 143.16 150.38 143.79 151.22 143.74 C 152.06 143.68 152.69 142.96 152.64 142.12 L 152.58 141.20 C 152.52 140.36 151.80 139.72 150.96 139.78 C 150.12 139.83 149.48 140.56 149.54 141.39 Z M 149.61 142.39 L 149.72 143.38 C 149.81 144.21 150.57 144.81 151.40 144.72 C 152.24 144.62 152.84 143.87 152.74 143.04 L 152.63 142.05 C 152.54 141.21 151.78 140.61 150.95 140.71 C 150.11 140.80 149.51 141.56 149.61 142.39 Z M 149.73 143.44 L 149.89 144.50 C 150.02 145.32 150.79 145.89 151.62 145.77 C 152.45 145.64 153.02 144.86 152.89 144.04 L 152.73 142.98 C 152.60 142.15 151.83 141.58 151.00 141.71 C 150.17 141.83 149.60 142.61 149.73 143.44 Z M 149.90 144.53 L 150.08 145.53 C 150.22 146.35 151.01 146.90 151.83 146.76 C 152.65 146.61 153.20 145.83 153.06 145.01 L 152.88 144.00 C 152.74 143.18 151.95 142.63 151.13 142.77 C 150.31 142.92 149.76 143.70 149.90 144.53 Z M 150.09 145.54 L 150.28 146.58 C 150.43 147.40 151.22 147.94 152.04 147.79 C 152.86 147.63 153.40 146.85 153.24 146.03 L 153.05 144.99 C 152.90 144.17 152.11 143.63 151.29 143.78 C 150.47 143.94 149.93 144.73 150.09 145.54 Z M 150.29 146.59 L 150.48 147.58 C 150.64 148.39 151.43 148.92 152.24 148.76 C 153.05 148.61 153.59 147.82 153.43 147.00 L 153.24 146.02 C 153.08 145.20 152.29 144.67 151.48 144.83 C 150.66 144.99 150.13 145.78 150.29 146.59 Z M 150.49 147.58 L 150.70 148.63 C 150.86 149.44 151.65 149.96 152.46 149.80 C 153.26 149.64 153.79 148.86 153.63 148.05 L 153.42 147.00 C 153.25 146.19 152.47 145.67 151.66 145.83 C 150.85 145.99 150.33 146.77 150.49 147.58 Z M 150.72 148.64 L 150.93 149.64 C 151.10 150.44 151.88 150.94 152.67 150.78 C 153.47 150.61 153.98 149.83 153.81 149.03 L 153.60 148.04 C 153.44 147.24 152.66 146.73 151.86 146.90 C 151.06 147.07 150.55 147.85 150.72 148.64 Z M 150.96 149.67 L 151.16 150.50 C 151.34 151.28 152.12 151.76 152.90 151.58 C 153.67 151.40 154.16 150.62 153.98 149.84 L 153.78 149.01 C 153.60 148.23 152.82 147.74 152.04 147.93 C 151.26 148.11 150.78 148.89 150.96 149.67 Z M 151.18 150.53 L 151.42 151.47 C 151.62 152.24 152.40 152.70 153.17 152.50 C 153.94 152.31 154.40 151.52 154.20 150.76 L 153.96 149.81 C 153.76 149.04 152.97 148.58 152.21 148.78 C 151.44 148.98 150.98 149.76 151.18 150.53 Z M 151.43 151.49 L 151.70 152.48 C 151.91 153.24 152.69 153.69 153.45 153.48 C 154.22 153.27 154.67 152.49 154.46 151.72 L 154.19 150.74 C 153.98 149.98 153.20 149.53 152.43 149.74 C 151.67 149.94 151.22 150.73 151.43 151.49 Z M 151.70 152.48 L 151.75 152.66 C 151.96 153.42 152.75 153.86 153.51 153.65 C 154.27 153.44 154.71 152.66 154.50 151.90 L 154.45 151.72 C 154.24 150.96 153.46 150.51 152.70 150.72 C 151.94 150.93 151.49 151.72 151.70 152.48 Z"
      fill="black"
      fill-rule="nonzero" /><path d="M 155.63 136.40 L 155.84 137.24 C 156.04 138.04 156.85 138.53 157.65 138.33 C 158.46 138.13 158.95 137.31 158.74 136.51 L 158.54 135.67 C 158.34 134.87 157.52 134.38 156.72 134.58 C 155.92 134.78 155.43 135.60 155.63 136.40 Z M 155.80 137.18 L 156.02 138.22 C 156.18 139.05 156.99 139.58 157.81 139.41 C 158.63 139.24 159.16 138.44 158.99 137.62 L 158.78 136.57 C 158.61 135.75 157.81 135.22 156.99 135.38 C 156.17 135.55 155.64 136.35 155.80 137.18 Z M 155.99 138.16 L 156.15 139.16 C 156.29 139.99 157.07 140.56 157.91 140.43 C 158.74 140.29 159.31 139.51 159.18 138.67 L 159.02 137.68 C 158.88 136.84 158.10 136.28 157.26 136.41 C 156.43 136.54 155.86 137.33 155.99 138.16 Z M 156.15 139.13 L 156.29 140.14 C 156.40 140.98 157.18 141.56 158.02 141.45 C 158.86 141.33 159.44 140.56 159.32 139.72 L 159.18 138.71 C 159.07 137.87 158.29 137.28 157.45 137.40 C 156.61 137.52 156.03 138.29 156.15 139.13 Z M 156.28 140.12 L 156.42 141.16 C 156.52 142.00 157.29 142.59 158.13 142.49 C 158.97 142.38 159.57 141.61 159.46 140.77 L 159.33 139.73 C 159.22 138.89 158.45 138.30 157.61 138.41 C 156.77 138.51 156.18 139.28 156.28 140.12 Z M 156.42 141.15 L 156.54 142.16 C 156.64 143.00 157.40 143.60 158.24 143.50 C 159.08 143.39 159.68 142.63 159.58 141.79 L 159.46 140.78 C 159.36 139.94 158.60 139.34 157.75 139.44 C 156.91 139.54 156.31 140.31 156.42 141.15 Z M 156.54 142.15 L 156.66 143.14 C 156.76 143.98 157.51 144.58 158.35 144.48 C 159.19 144.39 159.79 143.63 159.69 142.79 L 159.57 141.80 C 159.48 140.96 158.72 140.36 157.89 140.46 C 157.05 140.55 156.45 141.31 156.54 142.15 Z M 156.67 143.14 L 156.78 144.09 C 156.87 144.92 157.62 145.52 158.45 145.42 C 159.28 145.33 159.88 144.58 159.78 143.75 L 159.68 142.80 C 159.58 141.97 158.84 141.37 158.01 141.47 C 157.18 141.56 156.58 142.31 156.67 143.14 Z M 156.79 144.09 L 156.91 145.09 C 157.00 145.91 157.74 146.50 158.56 146.41 C 159.38 146.32 159.97 145.57 159.88 144.75 L 159.77 143.76 C 159.68 142.93 158.94 142.34 158.11 142.43 C 157.29 142.53 156.70 143.27 156.79 144.09 Z M 156.92 145.09 L 157.03 146.09 C 157.13 146.91 157.86 147.49 158.68 147.40 C 159.50 147.30 160.08 146.56 159.99 145.75 L 159.87 144.75 C 159.78 143.93 159.04 143.35 158.22 143.44 C 157.41 143.54 156.82 144.27 156.92 145.09 Z M 157.04 146.10 L 157.17 147.12 C 157.26 147.94 158.00 148.51 158.81 148.42 C 159.62 148.32 160.20 147.58 160.10 146.77 L 159.98 145.74 C 159.88 144.93 159.14 144.35 158.33 144.45 C 157.52 144.55 156.94 145.29 157.04 146.10 Z M 157.18 147.13 L 157.30 148.11 C 157.41 148.92 158.14 149.49 158.95 149.38 C 159.75 149.28 160.32 148.54 160.22 147.74 L 160.09 146.76 C 159.99 145.95 159.25 145.39 158.45 145.49 C 157.64 145.59 157.07 146.33 157.18 147.13 Z M 157.32 148.13 L 157.47 149.24 C 157.59 150.03 158.33 150.59 159.13 150.47 C 159.92 150.36 160.48 149.62 160.36 148.82 L 160.20 147.72 C 160.09 146.92 159.35 146.37 158.55 146.48 C 157.75 146.60 157.20 147.34 157.32 148.13 Z M 157.49 149.27 L 157.66 150.23 C 157.79 151.02 158.54 151.54 159.33 151.41 C 160.11 151.28 160.64 150.53 160.51 149.74 L 160.34 148.78 C 160.21 148.00 159.46 147.47 158.67 147.60 C 157.89 147.74 157.36 148.49 157.49 149.27 Z M 157.68 150.28 L 157.87 151.18 C 158.03 151.96 158.79 152.45 159.57 152.29 C 160.34 152.13 160.84 151.37 160.67 150.59 L 160.49 149.69 C 160.32 148.92 159.56 148.42 158.79 148.58 C 158.01 148.75 157.52 149.51 157.68 150.28 Z M 157.89 151.23 L 158.13 152.20 C 158.32 152.97 159.10 153.43 159.86 153.24 C 160.63 153.05 161.09 152.28 160.90 151.51 L 160.66 150.54 C 160.46 149.78 159.69 149.31 158.93 149.50 C 158.16 149.69 157.70 150.47 157.89 151.23 Z M 158.14 152.23 L 158.27 152.72 C 158.47 153.48 159.26 153.93 160.02 153.73 C 160.78 153.52 161.23 152.74 161.02 151.98 L 160.89 151.49 C 160.69 150.73 159.90 150.28 159.14 150.48 C 158.38 150.68 157.93 151.47 158.14 152.23 Z"
      fill="black"
      fill-rule="nonzero" /><path d="M 164.61 136.54 L 164.51 137.50 C 164.42 138.33 165.02 139.07 165.85 139.16 C 166.68 139.25 167.42 138.65 167.51 137.82 L 167.62 136.87 C 167.71 136.04 167.11 135.29 166.28 135.20 C 165.45 135.11 164.70 135.71 164.61 136.54 Z M 164.47 137.55 L 164.40 138.58 C 164.34 139.43 164.99 140.16 165.84 140.22 C 166.69 140.28 167.42 139.64 167.48 138.79 L 167.55 137.77 C 167.61 136.92 166.97 136.18 166.12 136.12 C 165.27 136.06 164.53 136.71 164.47 137.55 Z M 164.38 138.65 L 164.36 139.64 C 164.34 140.50 165.02 141.21 165.88 141.23 C 166.74 141.25 167.46 140.57 167.48 139.71 L 167.50 138.72 C 167.52 137.86 166.84 137.15 165.98 137.13 C 165.12 137.11 164.40 137.79 164.38 138.65 Z M 164.36 139.67 L 164.36 140.69 C 164.35 141.55 165.05 142.25 165.91 142.26 C 166.77 142.26 167.47 141.56 167.48 140.70 L 167.48 139.68 C 167.48 138.82 166.79 138.12 165.92 138.12 C 165.06 138.11 164.36 138.81 164.36 139.67 Z M 164.36 140.69 L 164.36 141.68 C 164.36 142.55 165.05 143.24 165.92 143.24 C 166.78 143.24 167.48 142.55 167.48 141.68 L 167.48 140.69 C 167.48 139.83 166.78 139.14 165.92 139.14 C 165.05 139.14 164.36 139.83 164.36 140.69 Z M 164.36 141.68 L 164.36 142.69 C 164.36 143.55 165.06 144.24 165.92 144.24 C 166.77 144.24 167.47 143.55 167.47 142.69 L 167.47 141.68 C 167.47 140.82 166.77 140.13 165.92 140.13 C 165.06 140.13 164.36 140.82 164.36 141.68 Z M 164.37 142.69 L 164.37 143.72 C 164.37 144.57 165.06 145.27 165.92 145.27 C 166.77 145.27 167.47 144.57 167.47 143.72 L 167.47 142.69 C 167.47 141.83 166.77 141.14 165.92 141.14 C 165.06 141.14 164.37 141.83 164.37 142.69 Z M 164.37 143.72 L 164.37 144.73 C 164.37 145.58 165.06 146.27 165.92 146.27 C 166.77 146.27 167.46 145.58 167.46 144.73 L 167.46 143.72 C 167.46 142.87 166.77 142.18 165.92 142.18 C 165.06 142.18 164.37 142.87 164.37 143.72 Z M 164.39 144.73 L 164.39 145.69 C 164.39 146.54 165.07 147.22 165.92 147.22 C 166.76 147.22 167.44 146.54 167.44 145.69 L 167.44 144.73 C 167.44 143.88 166.76 143.20 165.92 143.20 C 165.07 143.20 164.39 143.88 164.39 144.73 Z M 164.41 145.69 L 164.41 146.66 C 164.41 147.50 165.08 148.17 165.92 148.17 C 166.75 148.17 167.42 147.50 167.42 146.66 L 167.42 145.69 C 167.42 144.86 166.75 144.18 165.92 144.18 C 165.08 144.18 164.41 144.86 164.41 145.69 Z M 164.43 146.66 L 164.43 147.62 C 164.43 148.44 165.09 149.11 165.92 149.11 C 166.74 149.11 167.41 148.44 167.41 147.62 L 167.41 146.66 C 167.41 145.84 166.74 145.17 165.92 145.17 C 165.09 145.17 164.43 145.84 164.43 146.66 Z M 164.44 147.62 L 164.44 148.62 C 164.44 149.43 165.10 150.09 165.92 150.09 C 166.73 150.09 167.39 149.43 167.39 148.62 L 167.39 147.62 C 167.39 146.80 166.73 146.14 165.92 146.14 C 165.10 146.14 164.44 146.80 164.44 147.62 Z M 164.45 148.62 L 164.45 149.69 C 164.45 150.50 165.11 151.16 165.92 151.16 C 166.73 151.16 167.38 150.50 167.38 149.69 L 167.38 148.62 C 167.38 147.81 166.73 147.15 165.92 147.15 C 165.11 147.15 164.45 147.81 164.45 148.62 Z M 164.46 149.69 L 164.46 150.70 C 164.46 151.51 165.11 152.16 165.92 152.16 C 166.72 152.16 167.37 151.51 167.37 150.70 L 167.37 149.69 C 167.37 148.89 166.72 148.24 165.92 148.24 C 165.11 148.24 164.46 148.89 164.46 149.69 Z M 164.47 150.70 L 164.47 151.71 C 164.47 152.50 165.12 153.15 165.92 153.15 C 166.71 153.15 167.36 152.50 167.36 151.71 L 167.36 150.70 C 167.36 149.91 166.71 149.26 165.92 149.26 C 165.12 149.26 164.47 149.91 164.47 150.70 Z M 164.48 151.71 L 164.48 152.70 C 164.48 153.49 165.12 154.13 165.92 154.13 C 166.71 154.13 167.35 153.49 167.35 152.70 L 167.35 151.71 C 167.35 150.91 166.71 150.27 165.92 150.27 C 165.12 150.27 164.48 150.91 164.48 151.71 Z M 164.49 152.70 L 164.49 153.71 C 164.49 154.50 165.13 155.14 165.92 155.14 C 166.70 155.14 167.34 154.50 167.34 153.71 L 167.34 152.70 C 167.34 151.91 166.70 151.27 165.92 151.27 C 165.13 151.27 164.49 151.91 164.49 152.70 Z M 164.49 153.71 L 164.49 154.70 C 164.49 155.49 165.13 156.13 165.92 156.13 C 166.70 156.13 167.34 155.49 167.34 154.70 L 167.34 153.71 C 167.34 152.92 166.70 152.28 165.92 152.28 C 165.13 152.28 164.49 152.92 164.49 153.71 Z M 164.49 154.70 L 164.49 155.39 C 164.49 156.18 165.13 156.82 165.92 156.82 C 166.70 156.82 167.34 156.18 167.34 155.39 L 167.34 154.70 C 167.34 153.92 166.70 153.28 165.92 153.28 C 165.13 153.28 164.49 153.92 164.49 154.70 Z"
      fill="black"
      fill-rule="nonzero" /><path d="M 151.67 158.08 L 152.48 158.51 C 153.23 158.91 154.17 158.62 154.58 157.86 C 154.98 157.11 154.69 156.17 153.93 155.76 L 153.13 155.34 C 152.37 154.93 151.43 155.22 151.03 155.98 C 150.63 156.74 150.92 157.68 151.67 158.08 Z M 152.80 158.67 L 153.82 158.94 C 154.67 159.16 155.54 158.65 155.76 157.80 C 155.98 156.95 155.47 156.09 154.63 155.86 L 153.61 155.60 C 152.76 155.37 151.89 155.88 151.67 156.73 C 151.45 157.58 151.95 158.45 152.80 158.67 Z M 154.09 158.99 L 155.06 159.07 C 155.94 159.14 156.71 158.49 156.78 157.61 C 156.86 156.73 156.20 155.96 155.32 155.89 L 154.35 155.81 C 153.47 155.74 152.70 156.39 152.63 157.27 C 152.56 158.15 153.21 158.92 154.09 158.99 Z M 155.16 159.06 L 156.21 159.08 C 157.09 159.10 157.81 158.40 157.82 157.53 C 157.84 156.65 157.14 155.93 156.27 155.92 L 155.22 155.90 C 154.35 155.88 153.63 156.58 153.61 157.45 C 153.59 158.32 154.29 159.05 155.16 159.06 Z M 156.24 159.07 L 157.24 159.07 C 158.11 159.07 158.81 158.37 158.81 157.50 C 158.81 156.64 158.11 155.93 157.25 155.93 L 156.24 155.93 C 155.38 155.93 154.67 156.63 154.67 157.50 C 154.67 158.36 155.37 159.07 156.24 159.07 Z M 157.24 159.05 L 158.20 159.05 C 159.06 159.05 159.75 158.37 159.76 157.51 C 159.76 156.66 159.07 155.96 158.22 155.96 L 157.25 155.95 C 156.40 155.95 155.70 156.64 155.70 157.49 C 155.70 158.35 156.38 159.04 157.24 159.05 Z M 158.19 159.03 L 159.22 159.04 C 160.06 159.06 160.76 158.38 160.77 157.54 C 160.78 156.70 160.11 156.01 159.27 156.00 L 158.23 155.98 C 157.39 155.97 156.70 156.64 156.69 157.48 C 156.67 158.32 157.35 159.02 158.19 159.03 Z M 159.21 159.02 L 160.16 159.05 C 160.99 159.07 161.68 158.41 161.70 157.58 C 161.72 156.75 161.06 156.06 160.23 156.04 L 159.28 156.01 C 158.45 155.99 157.76 156.65 157.74 157.48 C 157.72 158.31 158.38 159.00 159.21 159.02 Z M 160.14 159.03 L 161.16 159.07 C 161.98 159.10 162.67 158.45 162.70 157.63 C 162.73 156.81 162.08 156.12 161.26 156.09 L 160.25 156.05 C 159.42 156.03 158.73 156.67 158.70 157.49 C 158.68 158.32 159.32 159.01 160.14 159.03 Z M 161.15 159.06 L 162.18 159.10 C 163.00 159.13 163.69 158.50 163.72 157.68 C 163.75 156.87 163.12 156.18 162.30 156.14 L 161.27 156.10 C 160.45 156.07 159.77 156.70 159.73 157.52 C 159.70 158.33 160.33 159.02 161.15 159.06 Z M 162.17 159.08 L 163.20 159.14 C 164.01 159.18 164.70 158.55 164.74 157.75 C 164.78 156.94 164.16 156.25 163.35 156.21 L 162.32 156.16 C 161.51 156.12 160.82 156.74 160.78 157.55 C 160.74 158.36 161.36 159.04 162.17 159.08 Z M 163.19 159.12 L 164.20 159.18 C 165.00 159.23 165.68 158.62 165.73 157.82 C 165.78 157.02 165.17 156.33 164.37 156.28 L 163.36 156.22 C 162.56 156.18 161.87 156.79 161.83 157.59 C 161.78 158.39 162.39 159.08 163.19 159.12 Z M 164.19 159.17 L 165.17 159.23 C 165.96 159.28 166.64 158.68 166.69 157.89 C 166.74 157.09 166.14 156.41 165.35 156.36 L 164.37 156.30 C 163.58 156.25 162.90 156.85 162.85 157.64 C 162.80 158.43 163.40 159.12 164.19 159.17 Z M 165.17 159.22 L 165.62 159.25 C 166.41 159.30 167.09 158.70 167.14 157.92 C 167.19 157.13 166.60 156.45 165.81 156.40 L 165.35 156.37 C 164.56 156.32 163.88 156.91 163.83 157.70 C 163.78 158.49 164.38 159.17 165.17 159.22 Z"
      fill="black"
      fill-rule="nonzero" /><path d="M 158.21 156.93 L 157.78 157.86 C 157.43 158.62 157.76 159.52 158.52 159.87 C 159.28 160.22 160.18 159.89 160.53 159.13 L 160.96 158.21 C 161.31 157.45 160.98 156.55 160.22 156.20 C 159.46 155.84 158.56 156.18 158.21 156.93 Z M 157.70 157.98 L 157.37 158.91 C 157.09 159.71 157.51 160.59 158.31 160.88 C 159.12 161.16 160.00 160.74 160.28 159.94 L 160.61 159.01 C 160.90 158.21 160.47 157.33 159.67 157.04 C 158.87 156.76 157.98 157.18 157.70 157.98 Z M 157.30 159.14 L 157.12 160.12 C 156.96 160.96 157.52 161.78 158.37 161.93 C 159.22 162.08 160.03 161.52 160.18 160.68 L 160.36 159.70 C 160.52 158.86 159.95 158.04 159.11 157.89 C 158.26 157.74 157.45 158.30 157.30 159.14 Z M 157.10 160.25 L 157.01 161.18 C 156.93 162.04 157.56 162.80 158.41 162.88 C 159.27 162.97 160.03 162.34 160.11 161.48 L 160.20 160.55 C 160.28 159.69 159.66 158.93 158.80 158.85 C 157.94 158.77 157.18 159.39 157.10 160.25 Z M 157.01 161.25 L 156.95 162.26 C 156.90 163.12 157.56 163.85 158.42 163.90 C 159.27 163.95 160.01 163.29 160.06 162.44 L 160.11 161.42 C 160.16 160.56 159.51 159.83 158.65 159.78 C 157.79 159.73 157.06 160.39 157.01 161.25 Z M 156.95 162.31 L 156.93 163.34 C 156.91 164.19 157.59 164.90 158.44 164.92 C 159.30 164.94 160.01 164.27 160.03 163.41 L 160.05 162.38 C 160.07 161.53 159.40 160.82 158.54 160.80 C 157.68 160.78 156.97 161.46 156.95 162.31 Z M 156.94 163.36 L 156.93 164.39 C 156.92 165.24 157.61 165.94 158.46 165.94 C 159.31 165.95 160.01 165.26 160.01 164.41 L 160.02 163.39 C 160.03 162.53 159.34 161.84 158.49 161.83 C 157.64 161.83 156.94 162.51 156.94 163.36 Z M 156.94 164.40 L 156.94 165.42 C 156.94 166.27 157.62 166.95 158.47 166.96 C 159.32 166.96 160.00 166.27 160.00 165.42 L 160.00 164.40 C 160.00 163.56 159.32 162.87 158.47 162.87 C 157.63 162.87 156.94 163.55 156.94 164.40 Z M 156.96 165.42 L 156.96 166.46 C 156.96 167.29 157.64 167.97 158.47 167.97 C 159.30 167.97 159.98 167.29 159.98 166.46 L 159.98 165.42 C 159.98 164.59 159.30 163.91 158.47 163.91 C 157.64 163.91 156.96 164.59 156.96 165.42 Z M 157.00 166.46 L 157.00 167.40 C 157.00 168.21 157.66 168.87 158.47 168.87 C 159.29 168.87 159.95 168.21 159.95 167.40 L 159.95 166.46 C 159.95 165.64 159.29 164.98 158.47 164.98 C 157.66 164.98 157.00 165.64 157.00 166.46 Z M 157.02 167.40 L 157.02 168.40 C 157.02 169.20 157.67 169.85 158.47 169.85 C 159.27 169.85 159.92 169.20 159.92 168.40 L 159.92 167.40 C 159.92 166.60 159.27 165.95 158.47 165.95 C 157.67 165.95 157.02 166.60 157.02 167.40 Z M 157.03 168.40 L 157.03 169.40 C 157.03 170.19 157.68 170.83 158.47 170.83 C 159.26 170.83 159.91 170.19 159.91 169.40 L 159.91 168.40 C 159.91 167.61 159.26 166.97 158.47 166.97 C 157.68 166.97 157.03 167.61 157.03 168.40 Z M 157.04 169.40 L 157.04 170.40 C 157.04 171.19 157.68 171.83 158.47 171.83 C 159.26 171.83 159.90 171.19 159.90 170.40 L 159.90 169.40 C 159.90 168.61 159.26 167.97 158.47 167.97 C 157.68 167.97 157.04 168.61 157.04 169.40 Z M 157.04 170.40 L 157.04 170.84 C 157.04 171.63 157.68 172.27 158.47 172.27 C 159.26 172.27 159.90 171.63 159.90 170.84 L 159.90 170.40 C 159.90 169.61 159.26 168.97 158.47 168.97 C 157.68 168.97 157.04 169.61 157.04 170.40 Z"
      fill="black"
      fill-rule="nonzero" /><path d="M 149.96 172.32 L 150.89 172.03 C 151.71 171.77 152.16 170.90 151.90 170.09 C 151.65 169.27 150.78 168.82 149.96 169.07 L 149.04 169.36 C 148.22 169.62 147.77 170.49 148.02 171.30 C 148.28 172.12 149.15 172.57 149.96 172.32 Z M 150.75 172.13 L 151.75 171.93 C 152.62 171.75 153.18 170.90 153.01 170.03 C 152.83 169.16 151.98 168.59 151.11 168.77 L 150.11 168.97 C 149.24 169.15 148.67 170.00 148.85 170.87 C 149.02 171.74 149.87 172.31 150.75 172.13 Z M 151.53 171.99 L 152.47 171.93 C 153.38 171.87 154.07 171.10 154.01 170.19 C 153.96 169.29 153.18 168.60 152.27 168.65 L 151.33 168.71 C 150.42 168.77 149.73 169.54 149.79 170.45 C 149.84 171.35 150.62 172.04 151.53 171.99 Z M 152.35 171.93 L 153.38 171.94 C 154.29 171.95 155.03 171.23 155.04 170.33 C 155.06 169.42 154.33 168.68 153.43 168.67 L 152.40 168.66 C 151.49 168.64 150.75 169.36 150.74 170.27 C 150.73 171.17 151.45 171.91 152.35 171.93 Z M 153.34 171.93 L 154.40 171.98 C 155.30 172.01 156.05 171.32 156.09 170.42 C 156.13 169.52 155.43 168.76 154.53 168.72 L 153.47 168.68 C 152.58 168.64 151.82 169.34 151.78 170.24 C 151.74 171.14 152.44 171.90 153.34 171.93 Z M 154.39 171.97 L 155.41 172.02 C 156.30 172.06 157.06 171.37 157.10 170.48 C 157.15 169.58 156.46 168.82 155.56 168.78 L 154.54 168.73 C 153.65 168.68 152.89 169.38 152.84 170.27 C 152.80 171.17 153.49 171.93 154.39 171.97 Z M 155.41 172.01 L 156.40 172.06 C 157.29 172.10 158.04 171.41 158.08 170.52 C 158.13 169.63 157.44 168.88 156.55 168.83 L 155.56 168.79 C 154.67 168.74 153.91 169.43 153.87 170.32 C 153.83 171.21 154.52 171.97 155.41 172.01 Z M 156.41 172.04 L 157.41 172.08 C 158.29 172.11 159.03 171.42 159.07 170.54 C 159.10 169.66 158.41 168.92 157.53 168.89 L 156.53 168.85 C 155.65 168.82 154.91 169.51 154.88 170.39 C 154.85 171.27 155.53 172.01 156.41 172.04 Z M 157.44 172.06 L 158.39 172.07 C 159.26 172.09 159.97 171.39 159.99 170.52 C 160.00 169.65 159.31 168.94 158.44 168.92 L 157.50 168.91 C 156.63 168.89 155.91 169.58 155.90 170.45 C 155.88 171.32 156.57 172.04 157.44 172.06 Z M 158.39 172.06 L 159.40 172.07 C 160.26 172.08 160.97 171.39 160.98 170.53 C 160.99 169.67 160.30 168.96 159.44 168.95 L 158.43 168.94 C 157.57 168.93 156.86 169.62 156.85 170.48 C 156.84 171.34 157.53 172.05 158.39 172.06 Z M 159.38 172.06 L 160.38 172.09 C 161.24 172.11 161.95 171.44 161.97 170.59 C 162.00 169.73 161.33 169.02 160.47 168.99 L 159.47 168.96 C 158.61 168.94 157.90 169.61 157.88 170.46 C 157.85 171.32 158.52 172.03 159.38 172.06 Z M 160.36 172.07 L 161.37 172.12 C 162.22 172.15 162.93 171.49 162.97 170.64 C 163.00 169.80 162.34 169.08 161.50 169.05 L 160.49 169.01 C 159.64 168.97 158.93 169.63 158.89 170.48 C 158.86 171.32 159.52 172.04 160.36 172.07 Z M 161.36 172.10 L 162.36 172.15 C 163.20 172.19 163.91 171.54 163.95 170.70 C 163.99 169.86 163.34 169.15 162.50 169.11 L 161.51 169.06 C 160.67 169.02 159.95 169.67 159.91 170.51 C 159.87 171.35 160.52 172.06 161.36 172.10 Z M 162.33 172.13 L 163.32 172.20 C 164.15 172.25 164.87 171.62 164.92 170.79 C 164.98 169.97 164.35 169.25 163.52 169.20 L 162.53 169.13 C 161.70 169.08 160.99 169.70 160.93 170.53 C 160.88 171.36 161.50 172.08 162.33 172.13 Z M 163.27 172.17 L 164.27 172.27 C 165.08 172.35 165.81 171.76 165.89 170.95 C 165.97 170.13 165.38 169.41 164.57 169.32 L 163.57 169.22 C 162.76 169.14 162.03 169.73 161.95 170.54 C 161.87 171.36 162.46 172.09 163.27 172.17 Z M 164.20 172.24 L 165.18 172.39 C 165.98 172.51 166.73 171.97 166.85 171.17 C 166.97 170.37 166.42 169.63 165.62 169.50 L 164.64 169.35 C 163.84 169.23 163.09 169.78 162.97 170.58 C 162.85 171.37 163.40 172.12 164.20 172.24 Z M 165.16 172.37 L 166.08 172.53 C 166.87 172.66 167.62 172.13 167.75 171.35 C 167.88 170.56 167.35 169.81 166.57 169.68 L 165.64 169.52 C 164.86 169.39 164.11 169.92 163.98 170.71 C 163.84 171.49 164.37 172.24 165.16 172.37 Z M 166.06 172.52 L 167.03 172.70 C 167.81 172.84 168.56 172.33 168.71 171.55 C 168.85 170.77 168.34 170.02 167.56 169.87 L 166.59 169.69 C 165.81 169.55 165.06 170.06 164.91 170.84 C 164.77 171.62 165.28 172.37 166.06 172.52 Z M 166.98 172.68 L 167.96 172.90 C 168.73 173.07 169.50 172.59 169.67 171.81 C 169.84 171.04 169.35 170.28 168.58 170.11 L 167.61 169.89 C 166.83 169.72 166.07 170.20 165.90 170.97 C 165.72 171.74 166.21 172.51 166.98 172.68 Z M 167.93 172.89 L 168.89 173.12 C 169.65 173.31 170.43 172.84 170.61 172.08 C 170.80 171.31 170.33 170.54 169.57 170.35 L 168.61 170.12 C 167.84 169.93 167.07 170.40 166.88 171.16 C 166.70 171.93 167.16 172.70 167.93 172.89 Z M 168.88 173.12 L 169.91 173.38 C 170.67 173.58 171.45 173.11 171.64 172.35 C 171.84 171.58 171.37 170.81 170.61 170.62 L 169.58 170.35 C 168.81 170.16 168.04 170.62 167.84 171.39 C 167.65 172.15 168.11 172.93 168.88 173.12 Z M 169.91 173.38 L 170.24 173.47 C 171.01 173.66 171.78 173.20 171.98 172.44 C 172.17 171.67 171.71 170.90 170.95 170.70 L 170.61 170.62 C 169.85 170.42 169.07 170.88 168.88 171.65 C 168.68 172.41 169.15 173.19 169.91 173.38 Z"
      fill="black"
      fill-rule="nonzero" /></svg>