<svg xmlns="http://www.w3.org/2000/svg" width="300" height="300" viewBox="0 0 300 300">
<path d="M 167.48 128.83 L 167.51 127.92 C 167.53 127.06 166.86 126.34 166.00 126.31 C 165.13 126.28 164.41 126.95 164.39 127.82 L 164.36 128.73 C 164.33 129.59 165.00 130.31 165.86 130.34 C 166.73 130.37 167.45 129.69 167.48 128.83 Z M 164.38 127.38 L 164.18 128.03 C 163.92 128.89 164.40 129.80 165.26 130.07 C 166.12 130.34 167.04 129.86 167.31 128.99 L 167.51 128.35 C 167.77 127.49 167.29 126.57 166.43 126.31 C 165.57 126.04 164.65 126.52 164.38 127.38 Z M 164.20 127.97 L 163.76 129.20 C 163.46 130.05 163.92 130.99 164.77 131.29 C 165.63 131.59 166.57 131.14 166.87 130.28 L 167.30 129.05 C 167.60 128.20 167.15 127.26 166.29 126.96 C 165.43 126.66 164.49 127.11 164.20 127.97 Z M 163.81 129.08 L 163.40 130.02 C 163.03 130.85 163.41 131.82 164.25 132.18 C 165.08 132.55 166.05 132.17 166.42 131.33 L 166.82 130.40 C 167.19 129.57 166.81 128.60 165.97 128.23 C 165.14 127.87 164.17 128.25 163.81 129.08 Z M 163.43 129.96 L 162.97 130.89 C 162.58 131.71 162.92 132.69 163.74 133.09 C 164.55 133.49 165.54 133.15 165.94 132.33 L 166.39 131.39 C 166.79 130.58 166.44 129.59 165.63 129.19 C 164.81 128.80 163.82 129.14 163.43 129.96 Z M 162.99 130.85 L 162.54 131.72 C 162.12 132.52 162.43 133.52 163.24 133.94 C 164.04 134.36 165.04 134.05 165.46 133.24 L 165.91 132.37 C 166.33 131.56 166.02 130.57 165.22 130.15 C 164.41 129.73 163.42 130.04 162.99 130.85 Z M 162.57 131.66 L 162.04 132.59 C 161.59 133.38 161.87 134.39 162.65 134.84 C 163.44 135.29 164.45 135.01 164.90 134.22 L 165.43 133.29 C 165.88 132.50 165.60 131.50 164.82 131.05 C 164.03 130.60 163.02 130.87 162.57 131.66 Z M 162.09 132.52 L 161.61 133.27 C 161.12 134.04 161.34 135.05 162.10 135.54 C 162.86 136.03 163.88 135.81 164.37 135.05 L 164.85 134.30 C 165.34 133.53 165.12 132.52 164.36 132.03 C 163.59 131.54 162.58 131.76 162.09 132.52 Z M 161.64 133.23 L 161.08 134.05 C 160.57 134.79 160.75 135.81 161.50 136.32 C 162.25 136.84 163.26 136.65 163.78 135.90 L 164.34 135.09 C 164.85 134.34 164.66 133.32 163.91 132.81 C 163.17 132.30 162.15 132.49 161.64 133.23 Z M 161.10 134.03 L 160.51 134.85 C 159.99 135.59 160.16 136.61 160.89 137.13 C 161.62 137.65 162.64 137.48 163.17 136.75 L 163.75 135.92 C 164.28 135.19 164.11 134.17 163.37 133.65 C 162.64 133.12 161.62 133.29 161.10 134.03 Z M 160.53 134.84 L 159.94 135.64 C 159.41 136.36 159.57 137.38 160.29 137.91 C 161.01 138.44 162.03 138.28 162.56 137.56 L 163.15 136.76 C 163.68 136.04 163.52 135.02 162.80 134.49 C 162.08 133.96 161.06 134.12 160.53 134.84 Z M 159.97 135.61 L 159.36 136.40 C 158.82 137.11 158.95 138.12 159.65 138.67 C 160.36 139.21 161.37 139.08 161.92 138.38 L 162.53 137.59 C 163.07 136.88 162.94 135.87 162.24 135.32 C 161.53 134.78 160.52 134.91 159.97 135.61 Z M 159.39 136.38 L 158.77 137.14 C 158.21 137.83 158.31 138.84 159.00 139.40 C 159.68 139.97 160.70 139.86 161.26 139.17 L 161.88 138.41 C 162.44 137.72 162.34 136.71 161.65 136.15 C 160.97 135.59 159.95 135.69 159.39 136.38 Z M 158.79 137.12 L 158.14 137.90 C 157.57 138.57 157.65 139.58 158.32 140.15 C 158.99 140.72 160.00 140.64 160.57 139.97 L 161.23 139.19 C 161.80 138.52 161.72 137.51 161.05 136.94 C 160.37 136.37 159.36 136.45 158.79 137.12 Z M 158.16 137.88 L 157.51 138.63 C 156.93 139.29 156.99 140.29 157.65 140.87 C 158.31 141.45 159.32 141.39 159.90 140.73 L 160.55 139.98 C 161.13 139.32 161.07 138.31 160.41 137.73 C 159.75 137.15 158.74 137.22 158.16 137.88 Z M 157.53 138.61 L 156.85 139.36 C 156.26 140.01 156.31 141.01 156.96 141.60 C 157.61 142.19 158.61 142.14 159.20 141.49 L 159.88 140.74 C 160.47 140.09 160.42 139.09 159.77 138.50 C 159.12 137.91 158.12 137.96 157.53 138.61 Z M 156.87 139.35 L 156.19 140.08 C 155.59 140.72 155.63 141.71 156.26 142.31 C 156.90 142.90 157.90 142.87 158.49 142.24 L 159.17 141.51 C 159.77 140.87 159.74 139.87 159.10 139.28 C 158.46 138.68 157.47 138.71 156.87 139.35 Z M 156.21 140.06 L 155.52 140.78 C 154.91 141.41 154.93 142.40 155.55 143.00 C 156.17 143.61 157.16 143.59 157.77 142.97 L 158.47 142.25 C 159.07 141.63 159.05 140.63 158.43 140.03 C 157.81 139.43 156.82 139.44 156.21 140.06 Z M 155.54 140.77 L 154.84 141.47 C 154.22 142.07 154.22 143.06 154.82 143.68 C 155.43 144.29 156.42 144.29 157.03 143.69 L 157.74 142.99 C 158.35 142.38 158.36 141.39 157.75 140.78 C 157.15 140.17 156.16 140.16 155.54 140.77 Z M 154.86 141.46 L 154.14 142.15 C 153.52 142.74 153.50 143.72 154.09 144.34 C 154.68 144.96 155.66 144.98 156.28 144.39 L 157.00 143.70 C 157.62 143.11 157.65 142.12 157.05 141.51 C 156.46 140.89 155.48 140.86 154.86 141.46 Z M 154.16 142.14 L 153.41 142.84 C 152.79 143.42 152.76 144.40 153.34 145.02 C 153.92 145.64 154.90 145.67 155.52 145.09 L 156.26 144.39 C 156.88 143.81 156.92 142.84 156.34 142.21 C 155.75 141.59 154.78 141.56 154.16 142.14 Z M 153.44 142.84 L 152.69 143.52 C 152.06 144.09 152.02 145.06 152.59 145.68 C 153.15 146.30 154.12 146.35 154.74 145.78 L 155.49 145.09 C 156.12 144.53 156.16 143.56 155.59 142.94 C 155.03 142.32 154.06 142.27 153.44 142.84 Z M 152.73 143.50 L 151.99 144.13 C 151.36 144.68 151.29 145.63 151.83 146.27 C 152.37 146.90 153.33 146.97 153.96 146.43 L 154.70 145.80 C 155.33 145.25 155.41 144.30 154.86 143.67 C 154.32 143.03 153.36 142.96 152.73 143.50 Z M 152.06 144.10 L 151.29 144.69 C 150.64 145.19 150.52 146.13 151.02 146.79 C 151.52 147.45 152.47 147.57 153.12 147.06 L 153.89 146.47 C 154.55 145.96 154.67 145.02 154.16 144.37 C 153.66 143.71 152.72 143.59 152.06 144.10 Z M 151.36 144.66 L 150.53 145.23 C 149.86 145.70 149.69 146.63 150.16 147.30 C 150.63 147.97 151.56 148.14 152.23 147.67 L 153.06 147.09 C 153.73 146.63 153.89 145.70 153.43 145.03 C 152.96 144.35 152.03 144.19 151.36 144.66 Z M 150.60 145.20 L 149.74 145.74 C 149.04 146.17 148.83 147.08 149.26 147.77 C 149.69 148.46 150.60 148.67 151.29 148.24 L 152.16 147.70 C 152.85 147.27 153.06 146.36 152.63 145.67 C 152.20 144.98 151.29 144.77 150.60 145.20 Z M 149.88 145.67 L 148.97 146.10 C 148.24 146.45 147.93 147.33 148.28 148.06 C 148.63 148.78 149.50 149.09 150.23 148.75 L 151.14 148.31 C 151.87 147.96 152.18 147.09 151.83 146.36 C 151.49 145.63 150.61 145.32 149.88 145.67 Z M 149.22 146.03 L 148.25 146.29 C 147.47 146.50 147.02 147.30 147.23 148.07 C 147.44 148.84 148.23 149.30 149.01 149.09 L 149.98 148.82 C 150.75 148.62 151.21 147.82 151.00 147.05 C 150.79 146.27 149.99 145.82 149.22 146.03 Z M 148.39 146.27 L 147.75 146.38 C 146.97 146.51 146.44 147.25 146.57 148.03 C 146.70 148.81 147.44 149.34 148.22 149.21 L 148.86 149.11 C 149.64 148.98 150.17 148.24 150.04 147.46 C 149.91 146.67 149.18 146.14 148.39 146.27 Z"
      fill="black"
      fill-rule="nonzero" /><path d="M 167.42 131.66 L 168.42 131.67 C 169.25 131.68 169.93 131.02 169.93 130.19 C 169.94 129.37 169.28 128.69 168.45 128.68 L 167.44 128.67 C 166.62 128.66 165.94 129.33 165.93 130.15 C 165.92 130.98 166.59 131.66 167.42 131.66 Z M 168.33 131.71 L 169.32 131.78 C 170.17 131.84 170.90 131.20 170.96 130.35 C 171.02 129.50 170.38 128.77 169.53 128.71 L 168.54 128.64 C 167.70 128.58 166.96 129.22 166.90 130.07 C 166.84 130.92 167.48 131.65 168.33 131.71 Z M 169.16 131.79 L 170.14 131.96 C 170.99 132.11 171.81 131.54 171.95 130.68 C 172.10 129.83 171.53 129.02 170.68 128.87 L 169.70 128.70 C 168.84 128.55 168.03 129.12 167.88 129.98 C 167.73 130.83 168.30 131.64 169.16 131.79 Z M 170.01 131.96 L 170.99 132.21 C 171.84 132.43 172.70 131.91 172.92 131.06 C 173.14 130.21 172.63 129.35 171.78 129.13 L 170.80 128.88 C 169.95 128.66 169.09 129.17 168.87 130.02 C 168.65 130.87 169.16 131.74 170.01 131.96 Z M 170.91 132.20 L 171.88 132.49 C 172.73 132.75 173.62 132.28 173.88 131.44 C 174.14 130.59 173.67 129.70 172.82 129.44 L 171.85 129.14 C 171.01 128.88 170.12 129.35 169.86 130.20 C 169.60 131.04 170.07 131.94 170.91 132.20 Z M 171.84 132.48 L 172.78 132.80 C 173.62 133.08 174.53 132.63 174.81 131.79 C 175.09 130.96 174.64 130.05 173.81 129.77 L 172.86 129.45 C 172.03 129.17 171.12 129.62 170.84 130.45 C 170.55 131.29 171.00 132.20 171.84 132.48 Z M 172.75 132.79 L 173.68 133.12 C 174.51 133.42 175.42 132.99 175.73 132.16 C 176.03 131.33 175.60 130.42 174.77 130.12 L 173.84 129.78 C 173.01 129.48 172.09 129.91 171.79 130.74 C 171.49 131.57 171.92 132.48 172.75 132.79 Z M 173.65 133.11 L 174.50 133.44 C 175.33 133.76 176.25 133.35 176.57 132.53 C 176.88 131.71 176.48 130.78 175.66 130.46 L 174.80 130.13 C 173.98 129.82 173.05 130.22 172.74 131.04 C 172.42 131.87 172.83 132.79 173.65 133.11 Z M 174.50 133.43 L 175.47 133.81 C 176.29 134.13 177.21 133.73 177.53 132.92 C 177.85 132.10 177.45 131.18 176.64 130.86 L 175.66 130.48 C 174.85 130.15 173.93 130.55 173.60 131.37 C 173.28 132.18 173.68 133.11 174.50 133.43 Z M 175.48 133.80 L 176.40 134.16 C 177.21 134.48 178.12 134.08 178.44 133.27 C 178.75 132.45 178.35 131.54 177.54 131.22 L 176.63 130.87 C 175.81 130.55 174.90 130.95 174.58 131.76 C 174.27 132.57 174.67 133.49 175.48 133.80 Z M 176.41 134.15 L 177.36 134.52 C 178.16 134.83 179.07 134.43 179.38 133.62 C 179.69 132.82 179.29 131.91 178.48 131.60 L 177.53 131.24 C 176.73 130.93 175.82 131.33 175.51 132.13 C 175.20 132.93 175.60 133.84 176.41 134.15 Z M 177.37 134.50 L 178.34 134.88 C 179.14 135.18 180.03 134.79 180.34 133.99 C 180.64 133.19 180.25 132.30 179.45 131.99 L 178.48 131.62 C 177.68 131.31 176.79 131.71 176.48 132.50 C 176.17 133.30 176.57 134.20 177.37 134.50 Z M 178.35 134.86 L 179.33 135.24 C 180.12 135.54 181.00 135.15 181.30 134.36 C 181.61 133.58 181.21 132.70 180.43 132.39 L 179.44 132.01 C 178.66 131.71 177.78 132.10 177.47 132.89 C 177.17 133.67 177.56 134.55 178.35 134.86 Z M 179.34 135.21 L 180.25 135.56 C 181.02 135.86 181.88 135.47 182.18 134.70 C 182.48 133.93 182.09 133.07 181.32 132.77 L 180.42 132.42 C 179.65 132.12 178.78 132.51 178.49 133.28 C 178.19 134.05 178.57 134.91 179.34 135.21 Z M 180.25 135.54 L 181.19 135.90 C 181.95 136.19 182.80 135.82 183.09 135.06 C 183.39 134.30 183.01 133.45 182.25 133.16 L 181.32 132.79 C 180.56 132.50 179.71 132.88 179.41 133.63 C 179.12 134.39 179.50 135.24 180.25 135.54 Z M 181.20 135.88 L 182.11 136.23 C 182.85 136.52 183.69 136.15 183.98 135.40 C 184.27 134.66 183.90 133.82 183.16 133.53 L 182.25 133.18 C 181.50 132.89 180.66 133.26 180.37 134.00 C 180.08 134.75 180.45 135.59 181.20 135.88 Z M 182.11 136.22 L 182.40 136.33 C 183.14 136.61 183.97 136.25 184.25 135.51 C 184.54 134.77 184.18 133.94 183.44 133.66 L 183.15 133.55 C 182.41 133.26 181.58 133.63 181.30 134.36 C 181.01 135.10 181.38 135.93 182.11 136.22 Z"
      fill="black"
      fill-rule="nonzero" /><path d="M 162.38 139.40 L 161.67 140.02 C 161.01 140.59 160.94 141.58 161.51 142.24 C 162.08 142.90 163.08 142.97 163.73 142.40 L 164.45 141.78 C 165.10 141.21 165.17 140.22 164.60 139.56 C 164.03 138.90 163.04 138.83 162.38 139.40 Z M 162.37 142.78 L 163.08 142.93 C 163.95 143.11 164.80 142.56 164.98 141.69 C 165.16 140.82 164.61 139.97 163.74 139.79 L 163.03 139.64 C 162.17 139.46 161.32 140.01 161.13 140.88 C 160.95 141.74 161.50 142.60 162.37 142.78 Z M 163.45 142.97 L 164.65 142.94 C 165.54 142.92 166.24 142.18 166.22 141.29 C 166.20 140.41 165.47 139.70 164.58 139.72 L 163.37 139.75 C 162.49 139.77 161.78 140.51 161.80 141.40 C 161.82 142.29 162.56 142.99 163.45 142.97 Z M 164.77 142.93 L 165.79 142.83 C 166.68 142.74 167.32 141.96 167.24 141.07 C 167.15 140.19 166.36 139.54 165.48 139.63 L 164.45 139.73 C 163.57 139.82 162.92 140.61 163.01 141.49 C 163.10 142.38 163.89 143.02 164.77 142.93 Z M 165.85 142.82 L 166.82 142.69 C 167.70 142.57 168.32 141.76 168.20 140.88 C 168.07 140.00 167.26 139.39 166.39 139.51 L 165.42 139.64 C 164.54 139.76 163.92 140.57 164.05 141.45 C 164.17 142.33 164.98 142.94 165.85 142.82 Z M 166.82 142.68 L 167.80 142.55 C 168.67 142.43 169.28 141.63 169.17 140.75 C 169.05 139.88 168.24 139.27 167.37 139.38 L 166.39 139.52 C 165.52 139.63 164.91 140.44 165.02 141.31 C 165.14 142.18 165.94 142.80 166.82 142.68 Z M 167.79 142.53 L 168.78 142.41 C 169.65 142.29 170.26 141.50 170.15 140.63 C 170.04 139.77 169.25 139.16 168.38 139.27 L 167.38 139.40 C 166.52 139.51 165.90 140.30 166.01 141.17 C 166.13 142.03 166.92 142.65 167.79 142.53 Z M 168.79 142.39 L 169.79 142.25 C 170.65 142.14 171.25 141.35 171.13 140.49 C 171.02 139.63 170.23 139.03 169.37 139.15 L 168.37 139.29 C 167.51 139.40 166.91 140.19 167.03 141.05 C 167.15 141.90 167.94 142.50 168.79 142.39 Z M 169.81 142.23 L 170.80 142.08 C 171.64 141.96 172.23 141.17 172.10 140.32 C 171.97 139.48 171.19 138.90 170.34 139.02 L 169.35 139.17 C 168.51 139.30 167.92 140.08 168.05 140.93 C 168.18 141.78 168.96 142.36 169.81 142.23 Z M 170.82 142.06 L 171.77 141.90 C 172.61 141.77 173.17 140.98 173.03 140.15 C 172.89 139.31 172.11 138.75 171.27 138.89 L 170.32 139.04 C 169.49 139.18 168.92 139.97 169.06 140.80 C 169.20 141.64 169.99 142.20 170.82 142.06 Z M 171.78 141.88 L 172.72 141.72 C 173.54 141.58 174.09 140.80 173.95 139.98 C 173.81 139.16 173.03 138.61 172.21 138.75 L 171.27 138.91 C 170.45 139.05 169.90 139.83 170.04 140.65 C 170.18 141.47 170.96 142.02 171.78 141.88 Z M 172.70 141.70 L 173.75 141.54 C 174.56 141.41 175.12 140.65 174.99 139.84 C 174.86 139.02 174.10 138.47 173.29 138.60 L 172.23 138.76 C 171.42 138.89 170.87 139.65 171.00 140.46 C 171.12 141.28 171.89 141.83 172.70 141.70 Z M 173.72 141.52 L 174.64 141.40 C 175.45 141.29 176.01 140.54 175.90 139.74 C 175.79 138.94 175.05 138.37 174.24 138.48 L 173.32 138.61 C 172.52 138.72 171.95 139.46 172.06 140.27 C 172.18 141.07 172.92 141.63 173.72 141.52 Z M 174.63 141.38 L 175.63 141.26 C 176.43 141.16 176.99 140.43 176.89 139.63 C 176.79 138.83 176.06 138.27 175.27 138.37 L 174.26 138.49 C 173.46 138.60 172.90 139.32 173.00 140.12 C 173.10 140.92 173.83 141.49 174.63 141.38 Z M 175.62 141.25 L 176.67 141.12 C 177.46 141.02 178.02 140.30 177.93 139.51 C 177.83 138.72 177.11 138.16 176.32 138.25 L 175.27 138.38 C 174.48 138.48 173.92 139.20 174.01 139.99 C 174.11 140.78 174.83 141.34 175.62 141.25 Z M 176.67 141.11 L 176.76 141.10 C 177.55 141.01 178.11 140.29 178.01 139.50 C 177.92 138.71 177.20 138.15 176.42 138.25 L 176.32 138.26 C 175.54 138.35 174.97 139.07 175.07 139.86 C 175.16 140.65 175.88 141.21 176.67 141.11 Z"
      fill="black"
      fill-rule="nonzero" /><path d="M 159.58 151.65 L 160.57 151.44 C 161.39 151.26 161.91 150.45 161.73 149.63 C 161.55 148.81 160.74 148.29 159.92 148.47 L 158.93 148.69 C 158.11 148.87 157.60 149.68 157.78 150.50 C 157.96 151.32 158.77 151.83 159.58 151.65 Z M 160.58 151.46 L 161.56 151.25 C 162.39 151.07 162.92 150.25 162.74 149.42 C 162.56 148.58 161.74 148.05 160.90 148.23 L 159.92 148.44 C 159.09 148.62 158.56 149.45 158.74 150.28 C 158.92 151.11 159.74 151.64 160.58 151.46 Z M 161.55 151.28 L 162.52 151.08 C 163.37 150.90 163.91 150.07 163.73 149.22 C 163.55 148.37 162.72 147.82 161.87 148.00 L 160.91 148.20 C 160.06 148.38 159.51 149.22 159.69 150.06 C 159.87 150.91 160.70 151.46 161.55 151.28 Z M 162.50 151.09 L 163.56 150.88 C 164.42 150.71 164.97 149.87 164.80 149.02 C 164.63 148.16 163.80 147.60 162.94 147.78 L 161.88 147.99 C 161.03 148.16 160.47 148.99 160.64 149.85 C 160.81 150.71 161.65 151.26 162.50 151.09 Z M 163.55 150.88 L 164.53 150.69 C 165.39 150.52 165.95 149.69 165.78 148.84 C 165.61 147.98 164.79 147.42 163.93 147.59 L 162.95 147.78 C 162.09 147.94 161.54 148.77 161.70 149.63 C 161.87 150.48 162.70 151.04 163.55 150.88 Z M 164.53 150.68 L 165.45 150.50 C 166.30 150.34 166.85 149.51 166.69 148.66 C 166.52 147.81 165.70 147.25 164.85 147.42 L 163.93 147.60 C 163.08 147.76 162.53 148.58 162.69 149.44 C 162.86 150.29 163.68 150.84 164.53 150.68 Z M 165.45 150.48 L 166.40 150.29 C 167.24 150.12 167.78 149.30 167.61 148.46 C 167.44 147.62 166.62 147.08 165.78 147.25 L 164.84 147.44 C 164.00 147.61 163.46 148.43 163.63 149.27 C 163.80 150.11 164.61 150.65 165.45 150.48 Z M 166.41 150.26 L 167.40 150.05 C 168.23 149.87 168.75 149.06 168.57 148.24 C 168.40 147.41 167.58 146.88 166.76 147.06 L 165.77 147.27 C 164.94 147.45 164.42 148.26 164.60 149.09 C 164.77 149.91 165.59 150.44 166.41 150.26 Z M 167.41 150.04 L 168.40 149.82 C 169.22 149.64 169.73 148.83 169.55 148.01 C 169.37 147.19 168.56 146.68 167.74 146.86 L 166.75 147.08 C 165.93 147.26 165.42 148.07 165.60 148.88 C 165.78 149.70 166.59 150.22 167.41 150.04 Z M 168.40 149.81 L 169.40 149.59 C 170.21 149.41 170.72 148.60 170.54 147.79 C 170.36 146.97 169.55 146.46 168.74 146.64 L 167.74 146.86 C 166.93 147.04 166.42 147.85 166.60 148.66 C 166.78 149.48 167.59 149.99 168.40 149.81 Z M 169.39 149.58 L 170.37 149.36 C 171.18 149.18 171.69 148.38 171.51 147.58 C 171.33 146.77 170.54 146.26 169.73 146.44 L 168.74 146.65 C 167.94 146.83 167.43 147.63 167.60 148.44 C 167.78 149.25 168.58 149.76 169.39 149.58 Z M 170.37 149.34 L 171.31 149.14 C 172.10 148.96 172.61 148.17 172.43 147.37 C 172.25 146.57 171.46 146.07 170.66 146.25 L 169.73 146.45 C 168.93 146.63 168.43 147.42 168.60 148.22 C 168.78 149.02 169.57 149.52 170.37 149.34 Z M 171.32 149.12 L 172.25 148.90 C 173.04 148.72 173.53 147.93 173.34 147.14 C 173.16 146.35 172.37 145.86 171.59 146.05 L 170.65 146.26 C 169.86 146.45 169.37 147.23 169.56 148.02 C 169.74 148.81 170.53 149.30 171.32 149.12 Z M 172.26 148.89 L 173.24 148.65 C 174.02 148.47 174.51 147.68 174.32 146.90 C 174.13 146.12 173.35 145.64 172.57 145.82 L 171.58 146.06 C 170.80 146.25 170.32 147.03 170.50 147.81 C 170.69 148.59 171.48 149.08 172.26 148.89 Z M 173.25 148.64 L 174.26 148.40 C 175.04 148.21 175.52 147.42 175.33 146.65 C 175.14 145.87 174.35 145.40 173.58 145.58 L 172.56 145.83 C 171.79 146.02 171.31 146.80 171.50 147.58 C 171.69 148.36 172.47 148.83 173.25 148.64 Z M 174.27 148.39 L 175.26 148.14 C 176.03 147.95 176.50 147.17 176.31 146.40 C 176.12 145.63 175.34 145.16 174.57 145.35 L 173.58 145.59 C 172.80 145.78 172.33 146.56 172.52 147.34 C 172.71 148.11 173.49 148.58 174.27 148.39 Z M 175.26 148.13 L 176.21 147.90 C 176.98 147.71 177.45 146.93 177.26 146.16 C 177.07 145.39 176.29 144.93 175.52 145.12 L 174.57 145.36 C 173.80 145.55 173.33 146.32 173.52 147.09 C 173.71 147.86 174.49 148.33 175.26 148.13 Z M 176.21 147.89 L 176.61 147.79 C 177.37 147.60 177.84 146.83 177.65 146.06 C 177.46 145.30 176.68 144.83 175.92 145.02 L 175.52 145.12 C 174.76 145.31 174.29 146.09 174.48 146.85 C 174.67 147.62 175.45 148.08 176.21 147.89 Z"
      fill="black"
      fill-rule="nonzero" /><path d="M 168.18 140.89 L 168.02 141.85 C 167.89 142.67 168.45 143.45 169.27 143.58 C 170.10 143.72 170.87 143.16 171.01 142.33 L 171.16 141.37 C 171.29 140.55 170.73 139.77 169.91 139.64 C 169.09 139.51 168.31 140.07 168.18 140.89 Z M 167.94 141.91 L 167.82 142.93 C 167.73 143.81 168.35 144.59 169.22 144.69 C 170.09 144.79 170.88 144.16 170.98 143.29 L 171.09 142.27 C 171.19 141.40 170.56 140.61 169.69 140.51 C 168.82 140.42 168.04 141.04 167.94 141.91 Z M 167.78 143.04 L 167.73 144.06 C 167.69 144.96 168.38 145.72 169.28 145.76 C 170.18 145.80 170.94 145.10 170.98 144.21 L 171.02 143.19 C 171.06 142.29 170.37 141.53 169.47 141.49 C 168.58 141.45 167.82 142.14 167.78 143.04 Z M 167.72 144.12 L 167.71 145.12 C 167.71 146.01 168.43 146.75 169.33 146.76 C 170.23 146.77 170.96 146.04 170.97 145.15 L 170.98 144.15 C 170.99 143.25 170.27 142.51 169.37 142.51 C 168.47 142.50 167.73 143.22 167.72 144.12 Z M 167.71 145.13 L 167.71 146.16 C 167.71 147.06 168.44 147.79 169.34 147.79 C 170.24 147.79 170.98 147.06 170.98 146.16 L 170.98 145.13 C 170.98 144.23 170.24 143.50 169.34 143.50 C 168.44 143.50 167.71 144.23 167.71 145.13 Z M 167.71 146.16 L 167.71 147.11 C 167.71 148.01 168.44 148.74 169.34 148.74 C 170.25 148.74 170.98 148.01 170.98 147.11 L 170.98 146.16 C 170.98 145.26 170.25 144.53 169.34 144.53 C 168.44 144.53 167.71 145.26 167.71 146.16 Z M 167.71 147.11 L 167.71 148.08 C 167.71 148.99 168.44 149.72 169.34 149.72 C 170.25 149.72 170.98 148.99 170.98 148.08 L 170.98 147.11 C 170.98 146.21 170.25 145.48 169.34 145.48 C 168.44 145.48 167.71 146.21 167.71 147.11 Z M 167.71 148.08 L 167.71 149.10 C 167.71 150.00 168.44 150.73 169.34 150.73 C 170.24 150.73 170.98 150.00 170.98 149.10 L 170.98 148.08 C 170.97 147.18 170.24 146.45 169.34 146.45 C 168.44 146.45 167.71 147.18 167.71 148.08 Z M 167.71 149.11 L 167.72 150.11 C 167.72 151.01 168.45 151.74 169.35 151.74 C 170.25 151.73 170.98 151.00 170.98 150.10 L 170.97 149.09 C 170.97 148.19 170.24 147.47 169.34 147.47 C 168.44 147.47 167.71 148.21 167.71 149.11 Z M 167.72 150.13 L 167.74 151.14 C 167.75 152.04 168.49 152.76 169.39 152.74 C 170.29 152.73 171.01 151.99 170.99 151.09 L 170.98 150.08 C 170.96 149.18 170.22 148.46 169.32 148.48 C 168.42 148.49 167.71 149.23 167.72 150.13 Z M 167.74 151.16 L 167.77 152.16 C 167.80 153.06 168.54 153.76 169.44 153.74 C 170.34 153.71 171.04 152.96 171.02 152.06 L 170.99 151.07 C 170.96 150.17 170.21 149.47 169.32 149.49 C 168.42 149.52 167.71 150.27 167.74 151.16 Z M 167.77 152.17 L 167.81 153.16 C 167.84 154.06 168.59 154.76 169.48 154.73 C 170.38 154.70 171.08 153.95 171.05 153.06 L 171.01 152.06 C 170.98 151.16 170.23 150.46 169.34 150.49 C 168.45 150.52 167.74 151.27 167.77 152.17 Z M 167.81 153.16 L 167.85 154.17 C 167.88 155.06 168.62 155.76 169.52 155.73 C 170.41 155.70 171.11 154.95 171.08 154.06 L 171.04 153.05 C 171.01 152.16 170.26 151.47 169.37 151.50 C 168.48 151.53 167.78 152.27 167.81 153.16 Z M 167.85 154.17 L 167.89 155.18 C 167.93 156.07 168.67 156.76 169.56 156.73 C 170.45 156.69 171.14 155.95 171.11 155.06 L 171.07 154.05 C 171.03 153.16 170.29 152.47 169.40 152.50 C 168.51 152.54 167.82 153.28 167.85 154.17 Z M 167.90 155.18 L 167.94 156.17 C 167.97 157.06 168.72 157.74 169.60 157.71 C 170.48 157.67 171.17 156.93 171.13 156.05 L 171.10 155.06 C 171.06 154.17 170.32 153.49 169.44 153.52 C 168.55 153.56 167.87 154.30 167.90 155.18 Z M 167.95 156.17 L 167.99 157.18 C 168.02 158.05 168.75 158.74 169.63 158.71 C 170.51 158.67 171.19 157.94 171.16 157.06 L 171.12 156.05 C 171.09 155.18 170.36 154.49 169.48 154.53 C 168.60 154.56 167.92 155.29 167.95 156.17 Z M 168.00 157.16 L 168.02 158.14 C 168.05 159.00 168.77 159.69 169.64 159.67 C 170.51 159.65 171.19 158.93 171.17 158.06 L 171.15 157.08 C 171.13 156.21 170.40 155.52 169.53 155.55 C 168.67 155.57 167.98 156.29 168.00 157.16 Z M 168.04 158.11 L 168.04 159.03 C 168.05 159.89 168.76 160.59 169.62 160.58 C 170.48 160.57 171.17 159.87 171.17 159.00 L 171.16 158.08 C 171.15 157.22 170.45 156.53 169.58 156.54 C 168.72 156.54 168.03 157.25 168.04 158.11 Z M 168.06 159.02 L 168.06 160.09 C 168.06 160.94 168.75 161.63 169.61 161.63 C 170.46 161.63 171.16 160.94 171.15 160.08 L 171.15 159.02 C 171.15 158.16 170.46 157.47 169.60 157.47 C 168.75 157.47 168.06 158.16 168.06 159.02 Z M 168.07 160.08 L 168.07 161.04 C 168.07 161.89 168.75 162.58 169.60 162.58 C 170.45 162.58 171.14 161.90 171.14 161.05 L 171.14 160.09 C 171.14 159.24 170.46 158.55 169.61 158.55 C 168.76 158.55 168.07 159.23 168.07 160.08 Z M 168.08 161.03 L 168.07 162.07 C 168.06 162.91 168.74 163.60 169.58 163.61 C 170.43 163.62 171.11 162.94 171.12 162.10 L 171.13 161.06 C 171.14 160.22 170.46 159.53 169.62 159.52 C 168.78 159.51 168.09 160.19 168.08 161.03 Z M 168.08 162.05 L 168.06 163.10 C 168.04 163.93 168.70 164.62 169.54 164.64 C 170.38 164.66 171.07 164.00 171.09 163.16 L 171.11 162.12 C 171.13 161.28 170.46 160.59 169.63 160.57 C 168.79 160.55 168.10 161.22 168.08 162.05 Z M 168.07 163.07 L 168.03 164.09 C 168.00 164.91 168.65 165.61 169.48 165.64 C 170.30 165.67 171.00 165.03 171.03 164.20 L 171.07 163.19 C 171.10 162.36 170.46 161.66 169.63 161.63 C 168.80 161.60 168.11 162.24 168.07 163.07 Z M 168.05 164.07 L 168.00 165.04 C 167.96 165.86 168.59 166.56 169.41 166.60 C 170.23 166.64 170.93 166.01 170.97 165.19 L 171.02 164.22 C 171.06 163.40 170.43 162.70 169.61 162.66 C 168.79 162.62 168.09 163.25 168.05 164.07 Z M 168.01 165.04 L 167.99 165.34 C 167.95 166.16 168.58 166.85 169.39 166.90 C 170.20 166.94 170.90 166.32 170.94 165.50 L 170.96 165.20 C 171.00 164.38 170.38 163.69 169.56 163.64 C 168.75 163.60 168.05 164.22 168.01 165.04 Z"
      fill="black"
      fill-rule="nonzero" /><path d="M 166.45 151.90 L 165.52 152.18 C 164.68 152.42 164.21 153.31 164.46 154.14 C 164.70 154.98 165.59 155.46 166.42 155.21 L 167.36 154.93 C 168.19 154.68 168.67 153.80 168.42 152.96 C 168.17 152.12 167.29 151.65 166.45 151.90 Z M 165.25 152.27 L 164.37 152.72 C 163.58 153.12 163.27 154.07 163.66 154.86 C 164.06 155.64 165.02 155.96 165.80 155.56 L 166.69 155.11 C 167.47 154.71 167.79 153.76 167.39 152.97 C 166.99 152.19 166.04 151.87 165.25 152.27 Z M 164.08 152.90 L 163.38 153.47 C 162.69 154.02 162.59 155.03 163.14 155.71 C 163.69 156.40 164.69 156.50 165.38 155.95 L 166.09 155.38 C 166.77 154.83 166.88 153.82 166.32 153.14 C 165.77 152.45 164.77 152.35 164.08 152.90 Z M 163.26 153.58 L 162.50 154.34 C 161.87 154.96 161.87 155.96 162.49 156.59 C 163.11 157.21 164.11 157.21 164.74 156.59 L 165.50 155.84 C 166.12 155.22 166.12 154.21 165.51 153.59 C 164.89 152.97 163.88 152.96 163.26 153.58 Z M 162.46 154.38 L 161.77 155.11 C 161.17 155.75 161.20 156.75 161.83 157.35 C 162.47 157.95 163.47 157.92 164.08 157.29 L 164.77 156.55 C 165.37 155.92 165.34 154.91 164.70 154.31 C 164.07 153.71 163.07 153.74 162.46 154.38 Z M 161.76 155.13 L 161.08 155.87 C 160.48 156.51 160.52 157.51 161.16 158.10 C 161.80 158.69 162.80 158.65 163.40 158.01 L 164.08 157.27 C 164.68 156.63 164.64 155.63 164.00 155.04 C 163.36 154.45 162.36 154.49 161.76 155.13 Z M 161.07 155.88 L 160.38 156.64 C 159.80 157.28 159.84 158.27 160.49 158.86 C 161.13 159.45 162.12 159.40 162.71 158.76 L 163.40 158.00 C 163.99 157.36 163.94 156.36 163.30 155.78 C 162.66 155.19 161.66 155.24 161.07 155.88 Z M 160.38 156.65 L 159.69 157.43 C 159.11 158.07 159.16 159.06 159.80 159.64 C 160.45 160.21 161.43 160.16 162.01 159.52 L 162.71 158.74 C 163.29 158.10 163.23 157.11 162.59 156.54 C 161.95 155.96 160.96 156.01 160.38 156.65 Z M 159.69 157.45 L 159.02 158.21 C 158.45 158.85 158.51 159.82 159.15 160.39 C 159.79 160.96 160.76 160.90 161.33 160.26 L 162.00 159.50 C 162.57 158.86 162.51 157.88 161.87 157.32 C 161.24 156.75 160.26 156.81 159.69 157.45 Z M 159.03 158.23 L 158.40 158.95 C 157.84 159.59 157.91 160.55 158.54 161.10 C 159.17 161.66 160.13 161.59 160.69 160.96 L 161.32 160.24 C 161.87 159.60 161.81 158.64 161.18 158.09 C 160.55 157.53 159.58 157.60 159.03 158.23 Z M 158.41 158.97 L 157.76 159.72 C 157.22 160.34 157.29 161.29 157.91 161.83 C 158.54 162.38 159.49 162.31 160.03 161.68 L 160.68 160.94 C 161.22 160.31 161.15 159.37 160.52 158.82 C 159.90 158.28 158.95 158.35 158.41 158.97 Z M 157.77 159.73 L 157.12 160.48 C 156.59 161.10 156.66 162.04 157.28 162.58 C 157.90 163.11 158.84 163.04 159.37 162.42 L 160.02 161.67 C 160.55 161.05 160.49 160.11 159.87 159.58 C 159.24 159.04 158.31 159.11 157.77 159.73 Z M 157.14 160.49 L 156.48 161.25 C 155.95 161.86 156.02 162.79 156.63 163.32 C 157.25 163.85 158.17 163.78 158.70 163.17 L 159.36 162.41 C 159.89 161.80 159.82 160.87 159.21 160.34 C 158.59 159.81 157.67 159.88 157.14 160.49 Z M 156.50 161.26 L 155.85 162.00 C 155.32 162.61 155.39 163.52 155.99 164.05 C 156.60 164.58 157.52 164.51 158.04 163.91 L 158.69 163.16 C 159.22 162.56 159.15 161.64 158.55 161.11 C 157.94 160.59 157.02 160.65 156.50 161.26 Z M 155.86 162.01 L 155.20 162.76 C 154.68 163.37 154.74 164.28 155.34 164.80 C 155.94 165.32 156.85 165.26 157.37 164.66 L 158.03 163.90 C 158.56 163.30 158.50 162.39 157.89 161.87 C 157.29 161.34 156.38 161.41 155.86 162.01 Z M 155.21 162.77 L 154.75 163.29 C 154.23 163.89 154.29 164.79 154.89 165.31 C 155.48 165.83 156.39 165.77 156.91 165.18 L 157.37 164.65 C 157.89 164.06 157.82 163.15 157.23 162.63 C 156.63 162.11 155.73 162.17 155.21 162.77 Z"
      fill="black"
      fill-rule="nonzero" /><path d="M 170.48 156.89 L 171.48 156.97 C 172.30 157.03 173.02 156.42 173.09 155.59 C 173.15 154.77 172.54 154.04 171.71 153.98 L 170.71 153.90 C 169.89 153.83 169.17 154.45 169.10 155.27 C 169.04 156.10 169.65 156.82 170.48 156.89 Z M 171.40 156.97 L 172.39 157.09 C 173.22 157.20 173.97 156.62 174.08 155.79 C 174.19 154.97 173.60 154.21 172.78 154.11 L 171.79 153.98 C 170.96 153.87 170.21 154.45 170.10 155.28 C 169.99 156.10 170.58 156.86 171.40 156.97 Z M 172.26 157.10 L 173.24 157.31 C 174.06 157.49 174.88 156.97 175.06 156.14 C 175.24 155.31 174.72 154.50 173.89 154.32 L 172.91 154.10 C 172.08 153.92 171.27 154.45 171.09 155.27 C 170.91 156.10 171.43 156.92 172.26 157.10 Z M 173.09 157.30 L 173.97 157.58 C 174.79 157.84 175.67 157.39 175.93 156.56 C 176.19 155.74 175.74 154.86 174.91 154.60 L 174.04 154.32 C 173.21 154.06 172.33 154.52 172.07 155.34 C 171.81 156.16 172.27 157.04 173.09 157.30 Z M 173.82 157.54 L 174.69 157.92 C 175.50 158.26 176.42 157.89 176.77 157.09 C 177.11 156.28 176.74 155.36 175.94 155.01 L 175.06 154.64 C 174.26 154.30 173.33 154.67 172.99 155.47 C 172.64 156.27 173.02 157.20 173.82 157.54 Z M 174.59 157.88 L 175.57 158.37 C 176.35 158.77 177.30 158.46 177.70 157.68 C 178.10 156.90 177.79 155.95 177.01 155.55 L 176.04 155.05 C 175.26 154.65 174.30 154.96 173.90 155.74 C 173.50 156.53 173.81 157.48 174.59 157.88 Z M 175.53 158.35 L 176.41 158.84 C 177.18 159.25 178.15 158.97 178.57 158.20 C 178.98 157.43 178.70 156.47 177.93 156.05 L 177.04 155.57 C 176.27 155.15 175.31 155.43 174.89 156.20 C 174.47 156.97 174.76 157.94 175.53 158.35 Z M 176.41 158.83 L 177.32 159.33 C 178.09 159.76 179.05 159.48 179.47 158.71 C 179.90 157.95 179.62 156.98 178.85 156.56 L 177.94 156.05 C 177.17 155.63 176.21 155.91 175.78 156.68 C 175.36 157.44 175.64 158.41 176.41 158.83 Z M 177.33 159.33 L 178.24 159.83 C 179.01 160.25 179.97 159.96 180.38 159.20 C 180.80 158.43 180.52 157.47 179.75 157.05 L 178.84 156.56 C 178.07 156.14 177.12 156.43 176.70 157.19 C 176.28 157.96 176.57 158.92 177.33 159.33 Z M 178.29 159.83 L 179.25 160.32 C 180.02 160.71 180.95 160.40 181.34 159.64 C 181.73 158.87 181.43 157.93 180.66 157.54 L 179.70 157.05 C 178.94 156.66 178.00 156.97 177.61 157.73 C 177.22 158.50 177.52 159.44 178.29 159.83 Z M 179.34 160.32 L 180.14 160.68 C 180.90 161.02 181.80 160.67 182.15 159.91 C 182.49 159.14 182.14 158.24 181.38 157.90 L 180.58 157.54 C 179.81 157.20 178.91 157.54 178.57 158.31 C 178.22 159.08 178.57 159.98 179.34 160.32 Z M 180.24 160.68 L 181.19 161.03 C 181.96 161.31 182.81 160.92 183.10 160.15 C 183.38 159.37 182.98 158.52 182.21 158.24 L 181.27 157.89 C 180.50 157.61 179.64 158.00 179.36 158.77 C 179.08 159.54 179.47 160.40 180.24 160.68 Z M 181.26 161.02 L 182.01 161.26 C 182.77 161.51 183.59 161.09 183.84 160.32 C 184.09 159.56 183.67 158.74 182.90 158.49 L 182.15 158.25 C 181.38 158.00 180.56 158.42 180.32 159.19 C 180.07 159.95 180.49 160.77 181.26 161.02 Z"
      fill="black"
      fill-rule="nonzero" /><path d="M 135.05 148.21 L 135.97 147.79 C 136.74 147.43 137.09 146.52 136.73 145.75 C 136.38 144.97 135.47 144.63 134.70 144.98 L 133.77 145.40 C 133.00 145.75 132.66 146.67 133.01 147.44 C 133.36 148.22 134.27 148.56 135.05 148.21 Z M 135.87 147.87 L 136.80 147.53 C 137.62 147.24 138.04 146.33 137.74 145.51 C 137.44 144.69 136.54 144.27 135.72 144.57 L 134.80 144.90 C 133.98 145.20 133.55 146.10 133.85 146.92 C 134.15 147.74 135.05 148.17 135.87 147.87 Z M 136.58 147.60 L 137.46 147.42 C 138.32 147.24 138.87 146.40 138.69 145.54 C 138.51 144.68 137.67 144.13 136.81 144.31 L 135.93 144.50 C 135.08 144.68 134.53 145.52 134.70 146.37 C 134.88 147.23 135.72 147.78 136.58 147.60 Z M 137.30 147.42 L 138.35 147.31 C 139.21 147.23 139.84 146.46 139.75 145.60 C 139.66 144.74 138.89 144.11 138.03 144.20 L 136.98 144.31 C 136.12 144.40 135.49 145.17 135.58 146.03 C 135.67 146.89 136.44 147.51 137.30 147.42 Z M 138.30 147.30 L 139.29 147.23 C 140.14 147.18 140.78 146.44 140.72 145.58 C 140.67 144.73 139.93 144.09 139.08 144.15 L 138.09 144.21 C 137.24 144.27 136.59 145.01 136.65 145.86 C 136.71 146.72 137.45 147.36 138.30 147.30 Z M 139.27 147.22 L 140.29 147.16 C 141.14 147.12 141.78 146.39 141.74 145.55 C 141.69 144.70 140.97 144.05 140.12 144.10 L 139.10 144.16 C 138.25 144.21 137.60 144.93 137.65 145.78 C 137.70 146.62 138.42 147.27 139.27 147.22 Z M 140.27 147.15 L 141.30 147.11 C 142.14 147.07 142.79 146.36 142.75 145.52 C 142.72 144.68 142.01 144.03 141.17 144.07 L 140.14 144.11 C 139.30 144.15 138.65 144.86 138.69 145.70 C 138.72 146.54 139.43 147.19 140.27 147.15 Z M 141.28 147.09 L 142.35 147.06 C 143.18 147.04 143.83 146.34 143.81 145.51 C 143.78 144.68 143.09 144.03 142.26 144.05 L 141.19 144.08 C 140.36 144.11 139.71 144.80 139.73 145.63 C 139.75 146.46 140.45 147.11 141.28 147.09 Z M 142.32 147.04 L 143.32 147.03 C 144.13 147.02 144.79 146.35 144.78 145.53 C 144.77 144.71 144.10 144.06 143.28 144.06 L 142.29 144.08 C 141.47 144.09 140.81 144.76 140.82 145.57 C 140.83 146.39 141.50 147.05 142.32 147.04 Z M 143.30 147.00 L 144.23 147.00 C 145.04 147.00 145.69 146.35 145.69 145.54 C 145.69 144.74 145.03 144.09 144.23 144.09 L 143.30 144.09 C 142.49 144.09 141.84 144.74 141.84 145.55 C 141.84 146.35 142.50 147.00 143.30 147.00 Z M 144.23 146.98 L 145.24 146.98 C 146.03 146.98 146.68 146.34 146.68 145.54 C 146.68 144.75 146.03 144.10 145.24 144.10 L 144.23 144.10 C 143.43 144.10 142.79 144.75 142.79 145.54 C 142.79 146.34 143.43 146.98 144.23 146.98 Z M 145.24 146.98 L 146.23 146.98 C 147.02 146.98 147.66 146.34 147.66 145.54 C 147.66 144.75 147.02 144.11 146.23 144.11 L 145.24 144.11 C 144.45 144.11 143.81 144.75 143.81 145.54 C 143.81 146.34 144.45 146.98 145.24 146.98 Z M 146.23 146.97 L 146.41 146.97 C 147.20 146.97 147.84 146.33 147.84 145.54 C 147.84 144.76 147.20 144.12 146.41 144.12 L 146.23 144.12 C 145.44 144.12 144.80 144.76 144.80 145.54 C 144.80 146.33 145.44 146.97 146.23 146.97 Z"
      fill="black"
      fill-rule="nonzero" /><path d="M 135.52 156.57 L 136.46 156.54 C 137.33 156.50 138.00 155.77 137.97 154.90 C 137.93 154.03 137.20 153.35 136.33 153.38 L 135.40 153.42 C 134.53 153.46 133.85 154.19 133.88 155.06 C 133.92 155.93 134.65 156.61 135.52 156.57 Z M 136.43 156.53 L 137.49 156.51 C 138.36 156.49 139.04 155.77 139.02 154.90 C 139.00 154.03 138.28 153.34 137.41 153.36 L 136.36 153.39 C 135.49 153.41 134.80 154.13 134.82 155.00 C 134.84 155.86 135.56 156.55 136.43 156.53 Z M 137.46 156.50 L 138.47 156.50 C 139.34 156.49 140.03 155.78 140.03 154.92 C 140.02 154.05 139.32 153.35 138.45 153.36 L 137.44 153.37 C 136.57 153.37 135.88 154.08 135.88 154.94 C 135.89 155.81 136.59 156.51 137.46 156.50 Z M 138.45 156.49 L 139.46 156.50 C 140.33 156.51 141.03 155.81 141.04 154.94 C 141.04 154.08 140.35 153.37 139.48 153.37 L 138.47 153.36 C 137.61 153.36 136.90 154.05 136.89 154.92 C 136.89 155.78 137.59 156.49 138.45 156.49 Z M 139.41 156.49 L 140.48 156.53 C 141.34 156.56 142.06 155.89 142.09 155.03 C 142.12 154.17 141.45 153.45 140.59 153.42 L 139.53 153.38 C 138.67 153.35 137.95 154.02 137.92 154.88 C 137.89 155.74 138.56 156.46 139.41 156.49 Z M 140.26 156.48 L 141.17 156.65 C 142.00 156.80 142.80 156.25 142.95 155.42 C 143.10 154.58 142.55 153.78 141.72 153.63 L 140.82 153.46 C 139.98 153.31 139.18 153.86 139.03 154.70 C 138.88 155.53 139.43 156.33 140.26 156.48 Z M 140.66 156.44 L 141.52 156.95 C 142.24 157.38 143.17 157.15 143.60 156.43 C 144.03 155.72 143.80 154.79 143.08 154.36 L 142.22 153.84 C 141.51 153.41 140.58 153.64 140.15 154.36 C 139.72 155.08 139.95 156.01 140.66 156.44 Z M 140.90 156.19 L 141.23 157.06 C 141.53 157.84 142.39 158.23 143.16 157.93 C 143.94 157.64 144.33 156.78 144.04 156.00 L 143.70 155.12 C 143.41 154.35 142.54 153.96 141.77 154.25 C 141.00 154.55 140.61 155.41 140.90 156.19 Z M 141.19 156.18 L 140.95 157.16 C 140.75 157.96 141.24 158.76 142.04 158.96 C 142.84 159.15 143.65 158.66 143.84 157.86 L 144.08 156.88 C 144.28 156.08 143.78 155.28 142.99 155.08 C 142.19 154.89 141.38 155.38 141.19 156.18 Z M 141.26 156.55 L 140.68 157.23 C 140.14 157.86 140.22 158.80 140.85 159.33 C 141.47 159.87 142.42 159.79 142.95 159.16 L 143.53 158.48 C 144.07 157.85 143.99 156.91 143.36 156.37 C 142.73 155.84 141.79 155.92 141.26 156.55 Z M 140.94 156.98 L 140.06 157.61 C 139.39 158.09 139.24 159.03 139.72 159.70 C 140.20 160.38 141.14 160.53 141.81 160.04 L 142.69 159.42 C 143.36 158.93 143.51 158.00 143.03 157.32 C 142.55 156.65 141.61 156.50 140.94 156.98 Z M 140.13 157.55 L 139.27 158.10 C 138.57 158.54 138.36 159.48 138.81 160.18 C 139.25 160.88 140.19 161.09 140.89 160.65 L 141.75 160.10 C 142.45 159.66 142.66 158.72 142.21 158.02 C 141.77 157.31 140.83 157.11 140.13 157.55 Z M 139.30 158.06 L 138.43 158.59 C 137.71 159.02 137.47 159.95 137.90 160.67 C 138.33 161.39 139.27 161.63 139.99 161.20 L 140.86 160.68 C 141.58 160.25 141.82 159.31 141.39 158.59 C 140.96 157.87 140.02 157.63 139.30 158.06 Z M 138.46 158.55 L 137.58 159.04 C 136.84 159.45 136.57 160.39 136.98 161.13 C 137.39 161.87 138.33 162.14 139.07 161.73 L 139.95 161.23 C 140.69 160.82 140.96 159.89 140.55 159.15 C 140.14 158.41 139.21 158.14 138.46 158.55 Z M 137.63 159.00 L 136.77 159.44 C 136.00 159.82 135.70 160.75 136.08 161.51 C 136.46 162.27 137.39 162.58 138.16 162.20 L 139.02 161.77 C 139.78 161.38 140.09 160.45 139.70 159.69 C 139.32 158.93 138.39 158.62 137.63 159.00 Z M 136.78 159.42 L 135.71 159.94 C 134.94 160.32 134.62 161.25 135.00 162.02 C 135.38 162.79 136.31 163.11 137.08 162.73 L 138.14 162.21 C 138.91 161.84 139.23 160.91 138.86 160.14 C 138.48 159.36 137.55 159.04 136.78 159.42 Z M 135.52 160.05 L 134.85 160.50 C 134.14 160.99 133.95 161.96 134.44 162.67 C 134.92 163.38 135.89 163.56 136.60 163.08 L 137.27 162.63 C 137.98 162.14 138.17 161.17 137.69 160.46 C 137.20 159.75 136.23 159.56 135.52 160.05 Z M 135.32 163.30 L 136.02 163.48 C 136.85 163.71 137.71 163.21 137.93 162.38 C 138.15 161.55 137.66 160.70 136.83 160.47 L 136.13 160.29 C 135.30 160.07 134.44 160.56 134.22 161.39 C 134.00 162.22 134.49 163.08 135.32 163.30 Z M 136.42 163.53 L 137.56 163.54 C 138.42 163.54 139.12 162.85 139.12 161.99 C 139.13 161.13 138.43 160.43 137.57 160.43 L 136.43 160.42 C 135.57 160.42 134.87 161.11 134.87 161.97 C 134.86 162.83 135.56 163.53 136.42 163.53 Z M 137.57 163.53 L 138.57 163.53 C 139.42 163.53 140.12 162.84 140.12 161.98 C 140.12 161.13 139.42 160.43 138.57 160.43 L 137.57 160.43 C 136.71 160.43 136.02 161.13 136.02 161.98 C 136.02 162.84 136.71 163.53 137.57 163.53 Z M 138.57 163.53 L 139.58 163.53 C 140.44 163.53 141.13 162.84 141.13 161.98 C 141.13 161.13 140.44 160.44 139.59 160.44 L 138.57 160.44 C 137.72 160.44 137.02 161.13 137.02 161.98 C 137.02 162.83 137.71 163.53 138.57 163.53 Z M 139.57 163.52 L 140.57 163.53 C 141.42 163.53 142.12 162.85 142.12 162.00 C 142.13 161.15 141.44 160.46 140.60 160.45 L 139.60 160.45 C 138.75 160.44 138.05 161.12 138.05 161.97 C 138.04 162.82 138.72 163.52 139.57 163.52 Z M 140.53 163.53 L 141.53 163.56 C 142.38 163.59 143.09 162.92 143.11 162.07 C 143.14 161.23 142.48 160.52 141.63 160.49 L 140.64 160.46 C 139.79 160.43 139.08 161.09 139.05 161.94 C 139.02 162.79 139.69 163.50 140.53 163.53 Z M 141.36 163.54 L 142.34 163.68 C 143.18 163.80 143.96 163.22 144.08 162.38 C 144.20 161.54 143.61 160.76 142.77 160.64 L 141.80 160.50 C 140.96 160.38 140.18 160.97 140.06 161.81 C 139.94 162.65 140.52 163.42 141.36 163.54 Z M 142.09 163.62 L 143.05 163.93 C 143.85 164.19 144.72 163.75 144.98 162.94 C 145.24 162.14 144.80 161.27 143.99 161.01 L 143.03 160.70 C 142.22 160.44 141.36 160.88 141.10 161.69 C 140.84 162.50 141.28 163.36 142.09 163.62 Z M 142.79 163.83 L 143.68 164.30 C 144.43 164.70 145.36 164.42 145.76 163.67 C 146.16 162.92 145.87 161.99 145.13 161.59 L 144.24 161.12 C 143.49 160.72 142.56 161.00 142.16 161.75 C 141.76 162.50 142.05 163.43 142.79 163.83 Z M 143.32 164.03 L 144.01 164.73 C 144.61 165.33 145.59 165.33 146.19 164.73 C 146.79 164.13 146.79 163.16 146.19 162.56 L 145.49 161.86 C 144.89 161.26 143.92 161.26 143.32 161.86 C 142.72 162.46 142.72 163.43 143.32 164.03 Z M 143.65 164.15 L 143.97 165.06 C 144.25 165.86 145.12 166.28 145.92 166.00 C 146.72 165.72 147.15 164.85 146.87 164.05 L 146.55 163.14 C 146.27 162.34 145.39 161.92 144.59 162.20 C 143.79 162.48 143.37 163.35 143.65 164.15 Z M 143.90 164.35 L 143.76 165.35 C 143.65 166.19 144.24 166.96 145.08 167.07 C 145.92 167.19 146.69 166.60 146.80 165.76 L 146.94 164.76 C 147.05 163.92 146.46 163.15 145.62 163.03 C 144.78 162.92 144.01 163.51 143.90 164.35 Z M 144.03 164.67 L 143.47 165.48 C 142.98 166.17 143.15 167.12 143.85 167.61 C 144.54 168.09 145.49 167.92 145.98 167.23 L 146.54 166.43 C 147.02 165.74 146.85 164.78 146.16 164.30 C 145.47 163.81 144.51 163.98 144.03 164.67 Z M 143.78 165.15 L 142.98 165.79 C 142.32 166.31 142.21 167.27 142.73 167.93 C 143.25 168.59 144.21 168.70 144.87 168.18 L 145.67 167.55 C 146.33 167.03 146.44 166.07 145.92 165.41 C 145.40 164.75 144.44 164.63 143.78 165.15 Z M 143.24 165.63 L 142.35 166.07 C 141.60 166.45 141.30 167.37 141.68 168.12 C 142.06 168.87 142.98 169.17 143.73 168.79 L 144.61 168.34 C 145.36 167.96 145.66 167.05 145.28 166.30 C 144.90 165.55 143.99 165.25 143.24 165.63 Z M 142.55 166.00 L 141.61 166.31 C 140.82 166.58 140.40 167.45 140.67 168.24 C 140.94 169.03 141.80 169.46 142.59 169.19 L 143.53 168.87 C 144.32 168.60 144.74 167.74 144.47 166.94 C 144.20 166.15 143.34 165.73 142.55 166.00 Z M 141.75 166.28 L 140.77 166.51 C 139.96 166.71 139.46 167.53 139.66 168.34 C 139.86 169.16 140.68 169.65 141.49 169.46 L 142.46 169.22 C 143.27 169.02 143.77 168.21 143.57 167.39 C 143.38 166.58 142.56 166.08 141.75 166.28 Z M 140.90 166.49 L 139.94 166.64 C 139.12 166.77 138.55 167.54 138.68 168.37 C 138.81 169.19 139.59 169.76 140.41 169.63 L 141.37 169.48 C 142.19 169.35 142.76 168.58 142.63 167.75 C 142.50 166.93 141.72 166.36 140.90 166.49 Z M 140.05 166.63 L 139.08 166.71 C 138.25 166.77 137.63 167.51 137.69 168.34 C 137.76 169.17 138.49 169.79 139.33 169.72 L 140.30 169.64 C 141.14 169.58 141.76 168.84 141.69 168.01 C 141.62 167.18 140.89 166.56 140.05 166.63 Z M 139.15 166.70 L 138.11 166.73 C 137.27 166.76 136.61 167.47 136.64 168.30 C 136.67 169.14 137.37 169.80 138.21 169.77 L 139.26 169.73 C 140.09 169.70 140.75 169.00 140.72 168.16 C 140.69 167.32 139.99 166.67 139.15 166.70 Z M 138.14 166.73 L 137.14 166.74 C 136.30 166.75 135.62 167.44 135.64 168.28 C 135.65 169.12 136.34 169.80 137.18 169.79 L 138.18 169.77 C 139.02 169.76 139.69 169.07 139.68 168.23 C 139.67 167.39 138.98 166.72 138.14 166.73 Z M 137.15 166.74 L 136.13 166.74 C 135.28 166.74 134.60 167.43 134.60 168.27 C 134.61 169.12 135.29 169.80 136.14 169.79 L 137.16 169.79 C 138.01 169.79 138.69 169.10 138.68 168.26 C 138.68 167.42 138.00 166.73 137.15 166.74 Z M 136.13 166.73 L 135.06 166.73 C 134.22 166.73 133.53 167.42 133.53 168.27 C 133.53 169.11 134.21 169.80 135.06 169.80 L 136.13 169.80 C 136.98 169.80 137.67 169.12 137.67 168.27 C 137.67 167.42 136.98 166.73 136.13 166.73 Z M 135.07 166.72 L 134.07 166.71 C 133.21 166.70 132.51 167.39 132.51 168.25 C 132.50 169.10 133.19 169.80 134.04 169.81 L 135.05 169.82 C 135.91 169.82 136.61 169.13 136.61 168.28 C 136.62 167.42 135.93 166.72 135.07 166.72 Z M 134.11 166.70 L 133.04 166.66 C 132.18 166.63 131.45 167.31 131.43 168.17 C 131.40 169.03 132.07 169.76 132.93 169.79 L 134.00 169.82 C 134.86 169.85 135.59 169.17 135.62 168.31 C 135.65 167.45 134.97 166.73 134.11 166.70 Z M 133.27 166.67 L 132.84 166.60 C 131.98 166.44 131.16 167.01 131.01 167.86 C 130.85 168.72 131.42 169.54 132.27 169.69 L 132.71 169.77 C 133.56 169.93 134.38 169.36 134.54 168.51 C 134.69 167.65 134.12 166.83 133.27 166.67 Z M 132.57 169.74 L 133.34 169.73 C 134.22 169.72 134.92 169.00 134.91 168.12 C 134.90 167.24 134.18 166.53 133.30 166.54 L 132.54 166.55 C 131.66 166.56 130.95 167.28 130.96 168.16 C 130.97 169.04 131.69 169.75 132.57 169.74 Z M 133.25 169.75 L 134.45 169.81 C 135.34 169.84 136.10 169.15 136.13 168.26 C 136.17 167.36 135.48 166.61 134.58 166.57 L 133.39 166.52 C 132.50 166.48 131.74 167.17 131.70 168.07 C 131.66 168.96 132.36 169.72 133.25 169.75 Z M 134.34 169.82 L 135.50 169.94 C 136.40 170.04 137.20 169.38 137.30 168.48 C 137.40 167.58 136.74 166.77 135.84 166.68 L 134.69 166.56 C 133.79 166.46 132.98 167.11 132.88 168.01 C 132.79 168.92 133.44 169.72 134.34 169.82 Z M 135.40 169.94 L 136.42 170.11 C 137.32 170.26 138.17 169.65 138.32 168.75 C 138.47 167.85 137.86 167.00 136.96 166.85 L 135.94 166.68 C 135.04 166.53 134.19 167.14 134.04 168.04 C 133.89 168.94 134.50 169.79 135.40 169.94 Z M 136.36 170.10 L 137.25 170.29 C 138.15 170.47 139.03 169.89 139.21 169.00 C 139.39 168.10 138.82 167.23 137.92 167.04 L 137.02 166.86 C 136.13 166.67 135.25 167.25 135.07 168.15 C 134.88 169.04 135.46 169.92 136.36 170.10 Z M 137.22 170.28 L 138.25 170.52 C 139.14 170.72 140.03 170.17 140.24 169.27 C 140.44 168.38 139.88 167.49 138.99 167.28 L 137.96 167.04 C 137.06 166.84 136.17 167.40 135.97 168.29 C 135.76 169.19 136.32 170.08 137.22 170.28 Z M 138.23 170.52 L 139.12 170.74 C 140.02 170.95 140.92 170.40 141.13 169.51 C 141.35 168.61 140.80 167.71 139.91 167.50 L 139.01 167.28 C 138.12 167.06 137.22 167.61 137.00 168.51 C 136.78 169.40 137.33 170.30 138.23 170.52 Z M 139.13 170.74 L 140.09 170.97 C 140.98 171.18 141.88 170.63 142.10 169.73 C 142.31 168.83 141.76 167.93 140.86 167.72 L 139.90 167.49 C 139.00 167.28 138.10 167.83 137.89 168.73 C 137.68 169.63 138.23 170.53 139.13 170.74 Z M 140.08 170.97 L 141.06 171.21 C 141.96 171.42 142.86 170.87 143.08 169.97 C 143.30 169.07 142.74 168.17 141.84 167.95 L 140.86 167.72 C 139.96 167.50 139.06 168.05 138.84 168.95 C 138.63 169.85 139.18 170.76 140.08 170.97 Z M 141.04 171.20 L 142.00 171.45 C 142.90 171.67 143.81 171.13 144.04 170.23 C 144.27 169.34 143.72 168.43 142.83 168.20 L 141.86 167.96 C 140.97 167.73 140.06 168.27 139.83 169.17 C 139.60 170.06 140.14 170.98 141.04 171.20 Z M 141.97 171.44 L 142.94 171.70 C 143.83 171.95 144.76 171.42 145.00 170.53 C 145.24 169.64 144.72 168.72 143.83 168.47 L 142.86 168.21 C 141.96 167.96 141.04 168.49 140.80 169.38 C 140.55 170.27 141.08 171.20 141.97 171.44 Z M 142.92 171.70 L 143.87 171.97 C 144.76 172.23 145.69 171.72 145.95 170.83 C 146.20 169.94 145.69 169.01 144.80 168.75 L 143.85 168.48 C 142.96 168.22 142.03 168.73 141.77 169.62 C 141.52 170.51 142.03 171.44 142.92 171.70 Z M 143.87 171.98 L 144.84 172.25 C 145.73 172.51 146.66 172.00 146.91 171.11 C 147.17 170.22 146.66 169.29 145.77 169.03 L 144.80 168.75 C 143.91 168.50 142.98 169.01 142.72 169.90 C 142.47 170.79 142.98 171.72 143.87 171.98 Z M 144.85 172.26 L 145.79 172.52 C 146.69 172.77 147.61 172.25 147.86 171.36 C 148.11 170.46 147.59 169.54 146.70 169.29 L 145.75 169.02 C 144.86 168.77 143.93 169.30 143.68 170.19 C 143.43 171.08 143.96 172.01 144.85 172.26 Z M 145.79 172.53 L 146.79 172.81 C 147.69 173.05 148.62 172.53 148.87 171.63 C 149.11 170.73 148.59 169.81 147.69 169.56 L 146.69 169.28 C 145.80 169.03 144.87 169.56 144.62 170.46 C 144.37 171.35 144.90 172.28 145.79 172.53 Z M 146.79 172.81 L 147.74 173.07 C 148.64 173.32 149.57 172.80 149.82 171.90 C 150.07 171.00 149.54 170.07 148.65 169.82 L 147.70 169.55 C 146.80 169.30 145.87 169.83 145.61 170.73 C 145.36 171.63 145.89 172.56 146.79 172.81 Z M 147.74 173.08 L 148.71 173.35 C 149.61 173.60 150.54 173.08 150.80 172.18 C 151.05 171.27 150.52 170.34 149.62 170.09 L 148.65 169.82 C 147.75 169.56 146.81 170.09 146.56 170.99 C 146.31 171.89 146.84 172.82 147.74 173.08 Z M 148.71 173.35 L 149.68 173.62 C 150.58 173.88 151.52 173.35 151.77 172.45 C 152.02 171.55 151.50 170.61 150.60 170.36 L 149.62 170.09 C 148.72 169.83 147.79 170.36 147.53 171.26 C 147.28 172.16 147.81 173.10 148.71 173.35 Z M 149.68 173.63 L 150.65 173.89 C 151.55 174.15 152.49 173.62 152.74 172.71 C 152.99 171.81 152.46 170.87 151.55 170.62 L 150.59 170.35 C 149.69 170.10 148.75 170.63 148.50 171.54 C 148.25 172.44 148.78 173.38 149.68 173.63 Z M 150.66 173.90 L 151.62 174.16 C 152.53 174.40 153.46 173.86 153.70 172.95 C 153.95 172.05 153.41 171.12 152.50 170.87 L 151.54 170.62 C 150.63 170.37 149.70 170.91 149.46 171.82 C 149.22 172.73 149.76 173.66 150.66 173.90 Z M 151.65 174.16 L 152.60 174.40 C 153.51 174.63 154.43 174.08 154.66 173.17 C 154.89 172.26 154.34 171.34 153.43 171.11 L 152.48 170.87 C 151.57 170.64 150.64 171.19 150.41 172.10 C 150.18 173.01 150.74 173.93 151.65 174.16 Z M 152.61 174.41 L 153.59 174.64 C 154.50 174.87 155.42 174.31 155.64 173.39 C 155.86 172.48 155.30 171.56 154.39 171.34 L 153.42 171.10 C 152.51 170.88 151.59 171.44 151.36 172.35 C 151.14 173.27 151.70 174.19 152.61 174.41 Z M 153.59 174.64 L 154.57 174.88 C 155.48 175.10 156.40 174.54 156.62 173.63 C 156.84 172.72 156.28 171.80 155.37 171.58 L 154.39 171.34 C 153.48 171.12 152.56 171.68 152.34 172.59 C 152.12 173.51 152.68 174.42 153.59 174.64 Z M 154.57 174.88 L 155.54 175.11 C 156.45 175.34 157.37 174.78 157.59 173.86 C 157.81 172.95 157.25 172.04 156.34 171.81 L 155.37 171.58 C 154.46 171.36 153.54 171.92 153.32 172.83 C 153.10 173.74 153.66 174.66 154.57 174.88 Z M 155.55 175.11 L 156.53 175.34 C 157.44 175.56 158.36 174.99 158.57 174.08 C 158.78 173.17 158.22 172.26 157.31 172.05 L 156.33 171.81 C 155.42 171.60 154.50 172.17 154.29 173.08 C 154.08 173.99 154.64 174.90 155.55 175.11 Z M 156.55 175.35 L 157.54 175.57 C 158.45 175.77 159.36 175.19 159.56 174.28 C 159.76 173.37 159.18 172.46 158.27 172.26 L 157.28 172.04 C 156.37 171.84 155.47 172.42 155.27 173.33 C 155.07 174.24 155.64 175.15 156.55 175.35 Z M 157.57 175.57 L 158.55 175.77 C 159.46 175.96 160.36 175.37 160.55 174.46 C 160.73 173.54 160.15 172.65 159.23 172.46 L 158.25 172.26 C 157.33 172.07 156.44 172.66 156.25 173.57 C 156.06 174.49 156.65 175.38 157.57 175.57 Z M 158.57 175.77 L 159.54 175.96 C 160.45 176.14 161.34 175.55 161.52 174.63 C 161.70 173.72 161.10 172.83 160.19 172.65 L 159.22 172.46 C 158.30 172.28 157.42 172.88 157.24 173.79 C 157.06 174.71 157.65 175.59 158.57 175.77 Z M 159.54 175.96 L 160.52 176.15 C 161.44 176.32 162.32 175.72 162.49 174.81 C 162.67 173.90 162.07 173.01 161.16 172.84 L 160.18 172.65 C 159.26 172.48 158.38 173.08 158.21 173.99 C 158.03 174.90 158.63 175.79 159.54 175.96 Z M 160.53 176.15 L 161.50 176.33 C 162.42 176.51 163.30 175.91 163.47 174.99 C 163.64 174.08 163.04 173.20 162.13 173.02 L 161.15 172.84 C 160.24 172.67 159.36 173.27 159.18 174.18 C 159.01 175.09 159.61 175.97 160.53 176.15 Z M 161.50 176.33 L 162.50 176.52 C 163.41 176.69 164.29 176.09 164.46 175.18 C 164.64 174.27 164.04 173.39 163.13 173.22 L 162.13 173.03 C 161.22 172.85 160.34 173.45 160.16 174.36 C 159.99 175.28 160.59 176.16 161.50 176.33 Z M 162.50 176.52 L 163.51 176.71 C 164.42 176.88 165.30 176.29 165.47 175.37 C 165.64 174.46 165.05 173.58 164.14 173.41 L 163.13 173.22 C 162.22 173.04 161.34 173.64 161.16 174.55 C 160.99 175.46 161.59 176.34 162.50 176.52 Z M 163.51 176.71 L 164.48 176.89 C 165.39 177.06 166.27 176.46 166.44 175.55 C 166.61 174.64 166.01 173.76 165.10 173.59 L 164.13 173.41 C 163.22 173.24 162.34 173.84 162.17 174.75 C 162.00 175.66 162.60 176.54 163.51 176.71 Z M 164.50 176.89 L 165.52 177.07 C 166.43 177.23 167.30 176.63 167.46 175.72 C 167.62 174.81 167.01 173.94 166.10 173.77 L 165.08 173.59 C 164.17 173.43 163.30 174.04 163.14 174.95 C 162.98 175.86 163.59 176.73 164.50 176.89 Z M 165.54 177.07 L 166.50 177.23 C 167.41 177.38 168.27 176.77 168.42 175.86 C 168.57 174.95 167.96 174.09 167.05 173.94 L 166.08 173.78 C 165.17 173.62 164.31 174.24 164.16 175.15 C 164.01 176.06 164.63 176.92 165.54 177.07 Z M 166.51 177.23 L 167.49 177.38 C 168.40 177.53 169.25 176.91 169.40 176.00 C 169.54 175.09 168.92 174.24 168.01 174.09 L 167.03 173.94 C 166.12 173.79 165.27 174.41 165.13 175.32 C 164.98 176.23 165.61 177.08 166.51 177.23 Z M 167.49 177.38 L 168.47 177.53 C 169.38 177.67 170.22 177.05 170.37 176.15 C 170.51 175.24 169.89 174.39 168.98 174.25 L 168.01 174.10 C 167.10 173.96 166.25 174.57 166.11 175.48 C 165.97 176.39 166.59 177.24 167.49 177.38 Z M 168.46 177.52 L 169.40 177.67 C 170.30 177.82 171.15 177.21 171.30 176.30 C 171.44 175.40 170.83 174.55 169.93 174.41 L 168.99 174.26 C 168.09 174.11 167.24 174.72 167.09 175.63 C 166.95 176.53 167.56 177.38 168.46 177.52 Z M 169.41 177.67 L 170.44 177.83 C 171.34 177.97 172.18 177.35 172.32 176.45 C 172.46 175.55 171.84 174.71 170.94 174.57 L 169.91 174.41 C 169.01 174.27 168.17 174.89 168.03 175.79 C 167.90 176.69 168.51 177.53 169.41 177.67 Z M 170.45 177.82 L 171.40 177.96 C 172.29 178.10 173.13 177.48 173.26 176.58 C 173.40 175.69 172.78 174.85 171.88 174.72 L 170.93 174.58 C 170.04 174.44 169.20 175.06 169.07 175.96 C 168.93 176.85 169.55 177.69 170.45 177.82 Z M 171.32 177.95 L 172.33 178.15 C 173.22 178.32 174.08 177.74 174.26 176.86 C 174.43 175.97 173.85 175.11 172.97 174.94 L 171.96 174.74 C 171.07 174.56 170.21 175.14 170.03 176.02 C 169.86 176.91 170.44 177.77 171.32 177.95 Z M 172.17 178.10 L 173.14 178.40 C 174.00 178.66 174.91 178.18 175.18 177.32 C 175.45 176.46 174.96 175.55 174.10 175.29 L 173.13 174.98 C 172.27 174.72 171.36 175.20 171.09 176.06 C 170.83 176.92 171.31 177.83 172.17 178.10 Z M 173.00 178.33 L 173.92 178.72 C 174.74 179.07 175.69 178.68 176.04 177.85 C 176.38 177.03 175.99 176.08 175.17 175.73 L 174.25 175.35 C 173.42 175.00 172.48 175.39 172.13 176.22 C 171.78 177.04 172.17 177.99 173.00 178.33 Z M 173.86 178.69 L 174.46 178.96 C 175.26 179.34 176.22 178.99 176.60 178.18 C 176.97 177.38 176.62 176.42 175.82 176.04 L 175.22 175.77 C 174.42 175.39 173.46 175.74 173.08 176.55 C 172.71 177.35 173.06 178.31 173.86 178.69 Z"
      fill="black"
      fill-rule="nonzero" /></svg>