<svg xmlns="http://www.w3.org/2000/svg" width="300" height="300" viewBox="0 0 300 300">
<path d="M 141.88 135.69 L 140.77 136.22 C 140.04 136.58 139.73 137.46 140.08 138.20 C 140.43 138.94 141.32 139.25 142.06 138.89 L 143.16 138.36 C 143.90 138.01 144.21 137.12 143.85 136.39 C 143.50 135.65 142.61 135.34 141.88 135.69 Z M 140.18 136.64 L 139.92 136.99 C 139.41 137.67 139.55 138.63 140.23 139.14 C 140.91 139.65 141.87 139.51 142.38 138.83 L 142.65 138.48 C 143.15 137.80 143.01 136.83 142.33 136.33 C 141.65 135.82 140.69 135.96 140.18 136.64 Z M 141.07 139.48 L 142.17 139.53 C 143.03 139.58 143.77 138.91 143.81 138.04 C 143.86 137.17 143.19 136.44 142.32 136.39 L 141.23 136.34 C 140.36 136.30 139.62 136.97 139.58 137.83 C 139.54 138.70 140.21 139.44 141.07 139.48 Z M 142.24 139.54 L 143.14 139.55 C 144.02 139.55 144.73 138.84 144.73 137.97 C 144.73 137.10 144.02 136.39 143.15 136.39 L 142.25 136.38 C 141.37 136.38 140.67 137.09 140.66 137.96 C 140.66 138.83 141.37 139.54 142.24 139.54 Z M 143.13 139.55 L 144.24 139.55 C 145.12 139.56 145.83 138.86 145.84 137.99 C 145.84 137.11 145.14 136.40 144.27 136.40 L 143.16 136.39 C 142.29 136.38 141.57 137.08 141.57 137.95 C 141.56 138.83 142.26 139.54 143.13 139.55 Z M 144.24 139.55 L 145.19 139.57 C 146.06 139.58 146.78 138.88 146.79 138.00 C 146.80 137.13 146.10 136.42 145.23 136.41 L 144.27 136.39 C 143.40 136.38 142.69 137.08 142.68 137.96 C 142.67 138.83 143.36 139.54 144.24 139.55 Z M 145.19 139.57 L 146.23 139.58 C 147.10 139.59 147.82 138.89 147.83 138.02 C 147.84 137.14 147.14 136.43 146.27 136.42 L 145.23 136.40 C 144.35 136.39 143.64 137.09 143.63 137.97 C 143.62 138.84 144.32 139.56 145.19 139.57 Z M 146.23 139.58 L 147.26 139.59 C 148.14 139.60 148.85 138.90 148.86 138.03 C 148.87 137.15 148.17 136.44 147.30 136.43 L 146.26 136.42 C 145.39 136.41 144.67 137.11 144.66 137.98 C 144.66 138.86 145.36 139.57 146.23 139.58 Z M 147.27 139.59 L 148.40 139.59 C 149.27 139.60 149.98 138.90 149.98 138.03 C 149.99 137.15 149.29 136.44 148.42 136.44 L 147.29 136.43 C 146.42 136.43 145.71 137.13 145.70 138.00 C 145.70 138.87 146.40 139.58 147.27 139.59 Z M 148.40 139.58 L 149.38 139.58 C 150.25 139.58 150.95 138.89 150.95 138.02 C 150.95 137.16 150.25 136.45 149.39 136.45 L 148.41 136.45 C 147.55 136.45 146.84 137.15 146.84 138.01 C 146.84 138.88 147.54 139.58 148.40 139.58 Z M 149.39 139.57 L 150.33 139.57 C 151.19 139.57 151.88 138.88 151.88 138.02 C 151.88 137.16 151.19 136.46 150.33 136.46 L 149.39 136.46 C 148.53 136.46 147.83 137.16 147.83 138.02 C 147.83 138.88 148.53 139.57 149.39 139.57 Z M 150.33 139.56 L 151.32 139.56 C 152.17 139.56 152.87 138.87 152.87 138.02 C 152.87 137.16 152.17 136.47 151.32 136.47 L 150.33 136.47 C 149.48 136.47 148.78 137.16 148.78 138.02 C 148.78 138.87 149.48 139.56 150.33 139.56 Z M 151.32 139.56 L 152.27 139.56 C 153.12 139.56 153.81 138.87 153.81 138.02 C 153.81 137.17 153.12 136.48 152.27 136.48 L 151.32 136.48 C 150.47 136.48 149.78 137.17 149.78 138.02 C 149.78 138.87 150.47 139.56 151.32 139.56 Z M 152.27 139.55 L 153.28 139.55 C 154.13 139.55 154.81 138.87 154.81 138.02 C 154.81 137.17 154.13 136.48 153.28 136.48 L 152.27 136.48 C 151.42 136.48 150.73 137.17 150.73 138.02 C 150.73 138.87 151.42 139.55 152.27 139.55 Z M 153.28 139.54 L 154.27 139.54 C 155.11 139.54 155.79 138.86 155.79 138.02 C 155.79 137.18 155.11 136.49 154.27 136.49 L 153.28 136.49 C 152.44 136.49 151.75 137.18 151.75 138.02 C 151.75 138.86 152.44 139.54 153.28 139.54 Z M 154.27 139.53 L 155.26 139.53 C 156.09 139.53 156.77 138.85 156.77 138.02 C 156.77 137.18 156.09 136.50 155.26 136.50 L 154.27 136.50 C 153.43 136.50 152.76 137.18 152.76 138.02 C 152.76 138.85 153.43 139.53 154.27 139.53 Z M 155.26 139.52 L 156.21 139.52 C 157.04 139.52 157.71 138.85 157.71 138.02 C 157.71 137.19 157.04 136.52 156.21 136.52 L 155.26 136.52 C 154.43 136.52 153.76 137.19 153.76 138.02 C 153.76 138.85 154.43 139.52 155.26 139.52 Z M 156.21 139.50 L 157.25 139.50 C 158.07 139.50 158.74 138.84 158.74 138.02 C 158.74 137.20 158.07 136.53 157.25 136.53 L 156.21 136.53 C 155.39 136.53 154.73 137.20 154.73 138.02 C 154.73 138.84 155.39 139.50 156.21 139.50 Z M 157.25 139.49 L 158.21 139.50 C 159.02 139.50 159.68 138.84 159.68 138.02 C 159.69 137.21 159.03 136.55 158.21 136.55 L 157.26 136.54 C 156.44 136.54 155.78 137.20 155.78 138.01 C 155.78 138.83 156.44 139.49 157.25 139.49 Z M 158.19 139.49 L 159.23 139.50 C 160.04 139.51 160.71 138.86 160.72 138.05 C 160.73 137.24 160.07 136.57 159.26 136.56 L 158.23 136.55 C 157.41 136.54 156.75 137.19 156.74 138.00 C 156.73 138.82 157.38 139.48 158.19 139.49 Z M 159.21 139.49 L 160.29 139.52 C 161.10 139.55 161.77 138.91 161.79 138.10 C 161.81 137.29 161.18 136.62 160.37 136.60 L 159.29 136.57 C 158.48 136.55 157.81 137.18 157.78 137.99 C 157.76 138.80 158.40 139.47 159.21 139.49 Z M 160.22 139.51 L 161.26 139.59 C 162.06 139.66 162.76 139.06 162.83 138.26 C 162.89 137.46 162.29 136.75 161.49 136.69 L 160.44 136.61 C 159.64 136.55 158.94 137.15 158.88 137.95 C 158.81 138.75 159.41 139.45 160.22 139.51 Z M 161.07 139.56 L 161.97 139.75 C 162.75 139.92 163.52 139.42 163.69 138.64 C 163.86 137.86 163.36 137.09 162.58 136.92 L 161.68 136.73 C 160.90 136.56 160.13 137.06 159.96 137.84 C 159.79 138.62 160.29 139.39 161.07 139.56 Z M 161.54 139.57 L 162.41 140.09 C 163.09 140.50 163.97 140.27 164.38 139.59 C 164.79 138.91 164.56 138.02 163.88 137.62 L 163.01 137.10 C 162.33 136.69 161.44 136.92 161.04 137.60 C 160.63 138.28 160.85 139.17 161.54 139.57 Z M 162.06 139.78 L 162.65 140.48 C 163.17 141.08 164.07 141.15 164.67 140.64 C 165.27 140.12 165.34 139.22 164.83 138.62 L 164.23 137.92 C 163.72 137.32 162.81 137.25 162.21 137.77 C 161.61 138.28 161.54 139.18 162.06 139.78 Z"
      fill="black"
      fill-rule="nonzero" /><path d="M 142.03 154.73 L 142.94 154.75 C 143.78 154.76 144.47 154.10 144.49 153.26 C 144.50 152.42 143.83 151.73 142.99 151.71 L 142.08 151.70 C 141.24 151.68 140.55 152.35 140.54 153.19 C 140.52 154.03 141.19 154.72 142.03 154.73 Z M 143.02 154.76 L 144.05 154.73 C 144.90 154.70 145.56 154.00 145.54 153.15 C 145.51 152.30 144.80 151.64 143.96 151.66 L 142.92 151.70 C 142.07 151.72 141.41 152.43 141.44 153.28 C 141.46 154.13 142.17 154.79 143.02 154.76 Z M 144.14 154.73 L 145.14 154.64 C 145.98 154.56 146.61 153.81 146.53 152.97 C 146.45 152.12 145.70 151.49 144.85 151.57 L 143.86 151.66 C 143.01 151.74 142.39 152.49 142.47 153.34 C 142.55 154.19 143.30 154.81 144.14 154.73 Z M 145.18 154.64 L 146.18 154.51 C 147.03 154.41 147.63 153.64 147.52 152.79 C 147.42 151.95 146.65 151.35 145.80 151.45 L 144.81 151.58 C 143.96 151.68 143.36 152.45 143.46 153.30 C 143.57 154.14 144.34 154.74 145.18 154.64 Z M 146.20 154.51 L 147.23 154.37 C 148.07 154.26 148.66 153.49 148.55 152.64 C 148.44 151.80 147.66 151.21 146.82 151.32 L 145.79 151.46 C 144.95 151.57 144.35 152.34 144.47 153.18 C 144.58 154.03 145.35 154.62 146.20 154.51 Z M 147.21 154.37 L 148.29 154.24 C 149.13 154.14 149.73 153.37 149.62 152.53 C 149.52 151.68 148.75 151.08 147.91 151.19 L 146.83 151.32 C 145.99 151.42 145.39 152.19 145.50 153.04 C 145.60 153.88 146.37 154.48 147.21 154.37 Z M 148.26 154.24 L 149.30 154.13 C 150.15 154.04 150.76 153.28 150.67 152.44 C 150.58 151.59 149.82 150.98 148.98 151.08 L 147.93 151.19 C 147.09 151.28 146.48 152.03 146.57 152.88 C 146.66 153.72 147.42 154.33 148.26 154.24 Z M 149.28 154.13 L 150.20 154.04 C 151.04 153.96 151.66 153.21 151.58 152.37 C 151.49 151.53 150.75 150.91 149.90 150.99 L 148.99 151.08 C 148.15 151.16 147.53 151.90 147.61 152.75 C 147.69 153.59 148.44 154.21 149.28 154.13 Z M 150.18 154.04 L 151.16 153.95 C 152.00 153.88 152.62 153.14 152.55 152.30 C 152.48 151.46 151.74 150.84 150.90 150.91 L 149.92 150.99 C 149.08 151.07 148.46 151.81 148.53 152.65 C 148.60 153.49 149.34 154.11 150.18 154.04 Z M 151.14 153.94 L 152.10 153.88 C 152.94 153.82 153.57 153.09 153.51 152.25 C 153.45 151.42 152.73 150.79 151.89 150.85 L 150.92 150.92 C 150.08 150.98 149.46 151.70 149.51 152.54 C 149.57 153.37 150.30 154.00 151.14 153.94 Z M 152.08 153.87 L 153.04 153.82 C 153.87 153.77 154.51 153.06 154.46 152.22 C 154.42 151.39 153.70 150.75 152.87 150.80 L 151.91 150.85 C 151.08 150.90 150.44 151.61 150.49 152.45 C 150.54 153.28 151.25 153.92 152.08 153.87 Z M 153.04 153.81 L 154.06 153.75 C 154.89 153.71 155.53 153.00 155.48 152.17 C 155.44 151.34 154.73 150.70 153.90 150.75 L 152.87 150.80 C 152.04 150.85 151.41 151.56 151.45 152.39 C 151.50 153.22 152.21 153.86 153.04 153.81 Z M 154.08 153.75 L 155.12 153.68 C 155.95 153.63 156.58 152.92 156.52 152.09 C 156.47 151.27 155.76 150.64 154.93 150.69 L 153.89 150.76 C 153.06 150.81 152.43 151.52 152.49 152.35 C 152.54 153.17 153.25 153.80 154.08 153.75 Z M 155.15 153.67 L 156.17 153.59 C 156.99 153.52 157.60 152.81 157.53 151.99 C 157.47 151.17 156.75 150.55 155.93 150.62 L 154.91 150.70 C 154.09 150.77 153.48 151.48 153.54 152.30 C 153.61 153.12 154.33 153.74 155.15 153.67 Z M 156.20 153.58 L 157.15 153.48 C 157.96 153.40 158.55 152.67 158.47 151.86 C 158.39 151.05 157.66 150.45 156.85 150.54 L 155.90 150.63 C 155.09 150.71 154.49 151.44 154.57 152.25 C 154.66 153.07 155.38 153.66 156.20 153.58 Z M 157.19 153.46 L 158.22 153.33 C 159.02 153.22 159.59 152.48 159.48 151.67 C 159.37 150.87 158.63 150.31 157.82 150.41 L 156.80 150.55 C 156.00 150.66 155.43 151.40 155.54 152.21 C 155.65 153.01 156.39 153.57 157.19 153.46 Z M 158.33 153.30 L 159.27 153.09 C 160.06 152.92 160.56 152.15 160.39 151.36 C 160.22 150.57 159.44 150.07 158.66 150.24 L 157.71 150.45 C 156.93 150.62 156.43 151.39 156.60 152.18 C 156.77 152.97 157.54 153.47 158.33 153.30 Z M 159.42 153.04 L 160.37 152.72 C 161.13 152.47 161.54 151.65 161.29 150.89 C 161.04 150.13 160.22 149.72 159.46 149.98 L 158.51 150.29 C 157.75 150.55 157.34 151.37 157.59 152.13 C 157.84 152.88 158.66 153.29 159.42 153.04 Z M 160.45 152.69 L 161.10 152.43 C 161.84 152.14 162.20 151.30 161.91 150.56 C 161.62 149.82 160.78 149.46 160.04 149.75 L 159.39 150.01 C 158.65 150.30 158.29 151.14 158.58 151.88 C 158.87 152.62 159.71 152.98 160.45 152.69 Z"
      fill="black"
      fill-rule="nonzero" /><path d="M 153.93 143.51 L 153.59 142.29 C 153.38 141.52 152.57 141.06 151.79 141.28 C 151.01 141.50 150.56 142.31 150.78 143.08 L 151.12 144.30 C 151.34 145.08 152.14 145.53 152.92 145.31 C 153.70 145.09 154.15 144.29 153.93 143.51 Z M 153.19 141.58 L 152.99 141.40 C 152.38 140.84 151.43 140.89 150.87 141.50 C 150.32 142.11 150.36 143.06 150.98 143.62 L 151.18 143.80 C 151.79 144.36 152.74 144.31 153.30 143.70 C 153.86 143.08 153.81 142.13 153.19 141.58 Z M 150.46 142.47 L 150.44 143.50 C 150.42 144.34 151.08 145.04 151.93 145.06 C 152.77 145.08 153.46 144.42 153.48 143.58 L 153.51 142.54 C 153.53 141.70 152.86 141.01 152.02 140.99 C 151.18 140.97 150.48 141.63 150.46 142.47 Z M 150.43 143.61 L 150.49 144.81 C 150.53 145.65 151.24 146.31 152.08 146.27 C 152.93 146.23 153.58 145.52 153.54 144.67 L 153.49 143.47 C 153.45 142.63 152.74 141.97 151.89 142.01 C 151.05 142.05 150.40 142.76 150.43 143.61 Z M 150.49 144.84 L 150.55 145.88 C 150.61 146.72 151.33 147.36 152.18 147.31 C 153.02 147.26 153.66 146.53 153.61 145.68 L 153.55 144.64 C 153.49 143.80 152.76 143.16 151.92 143.21 C 151.08 143.26 150.43 143.99 150.49 144.84 Z M 150.55 145.88 L 150.62 146.88 C 150.67 147.72 151.41 148.36 152.25 148.30 C 153.10 148.25 153.73 147.51 153.68 146.67 L 153.61 145.68 C 153.55 144.83 152.82 144.19 151.98 144.25 C 151.13 144.31 150.49 145.04 150.55 145.88 Z M 150.62 146.86 L 150.68 147.95 C 150.73 148.79 151.46 149.44 152.30 149.39 C 153.15 149.33 153.79 148.61 153.74 147.76 L 153.68 146.68 C 153.63 145.84 152.90 145.19 152.06 145.24 C 151.21 145.29 150.57 146.02 150.62 146.86 Z M 150.68 147.93 L 150.73 148.86 C 150.77 149.70 151.48 150.35 152.33 150.31 C 153.17 150.27 153.82 149.56 153.79 148.71 L 153.74 147.78 C 153.70 146.94 152.99 146.29 152.14 146.33 C 151.30 146.37 150.64 147.08 150.68 147.93 Z M 150.73 148.85 L 150.77 149.81 C 150.81 150.65 151.52 151.31 152.37 151.27 C 153.21 151.23 153.86 150.52 153.82 149.67 L 153.78 148.72 C 153.74 147.87 153.03 147.22 152.19 147.26 C 151.35 147.30 150.69 148.01 150.73 148.85 Z M 150.78 149.81 L 150.82 150.80 C 150.86 151.64 151.58 152.29 152.42 152.25 C 153.26 152.21 153.91 151.50 153.87 150.66 L 153.82 149.67 C 153.78 148.83 153.07 148.18 152.23 148.22 C 151.39 148.26 150.74 148.97 150.78 149.81 Z M 150.83 150.79 L 150.87 151.79 C 150.90 152.63 151.61 153.28 152.45 153.25 C 153.29 153.21 153.94 152.50 153.91 151.66 L 153.86 150.67 C 153.83 149.83 153.12 149.17 152.28 149.21 C 151.44 149.25 150.79 149.96 150.83 150.79 Z M 150.87 151.79 L 150.91 152.79 C 150.94 153.63 151.65 154.28 152.49 154.25 C 153.33 154.21 153.98 153.51 153.95 152.67 L 153.91 151.67 C 153.87 150.83 153.17 150.18 152.33 150.21 C 151.49 150.24 150.84 150.95 150.87 151.79 Z M 150.91 152.77 L 150.94 153.77 C 150.96 154.61 151.66 155.27 152.50 155.25 C 153.34 155.22 154.00 154.52 153.97 153.69 L 153.95 152.68 C 153.92 151.85 153.22 151.19 152.38 151.21 C 151.55 151.23 150.88 151.93 150.91 152.77 Z M 150.94 153.74 L 150.95 154.74 C 150.96 155.58 151.64 156.25 152.48 156.24 C 153.32 156.23 153.99 155.55 153.98 154.71 L 153.97 153.72 C 153.96 152.88 153.28 152.21 152.44 152.21 C 151.61 152.22 150.93 152.91 150.94 153.74 Z M 150.95 154.73 L 150.95 155.72 C 150.95 156.55 151.63 157.23 152.47 157.23 C 153.30 157.23 153.98 156.55 153.98 155.72 L 153.98 154.72 C 153.98 153.89 153.30 153.21 152.46 153.21 C 151.63 153.21 150.95 153.89 150.95 154.73 Z M 150.96 155.72 L 150.96 156.72 C 150.96 157.56 151.63 158.23 152.46 158.23 C 153.30 158.23 153.97 157.56 153.97 156.72 L 153.97 155.72 C 153.97 154.88 153.30 154.21 152.46 154.21 C 151.63 154.21 150.96 154.88 150.96 155.72 Z M 150.97 156.72 L 150.97 157.73 C 150.97 158.56 151.64 159.23 152.46 159.23 C 153.29 159.23 153.96 158.56 153.96 157.73 L 153.96 156.72 C 153.96 155.90 153.29 155.23 152.46 155.23 C 151.64 155.23 150.97 155.90 150.97 156.72 Z M 150.97 157.73 L 150.97 158.72 C 150.97 159.54 151.64 160.21 152.46 160.21 C 153.29 160.21 153.96 159.54 153.96 158.72 L 153.96 157.73 C 153.96 156.91 153.29 156.24 152.46 156.24 C 151.64 156.24 150.97 156.91 150.97 157.73 Z M 150.98 158.72 L 150.98 159.65 C 150.98 160.47 151.64 161.14 152.46 161.14 C 153.29 161.14 153.95 160.47 153.95 159.65 L 153.95 158.72 C 153.95 157.90 153.29 157.23 152.46 157.23 C 151.64 157.23 150.98 157.90 150.98 158.72 Z M 150.98 159.65 L 150.98 160.70 C 150.98 161.52 151.65 162.18 152.46 162.18 C 153.28 162.18 153.95 161.52 153.95 160.70 L 153.95 159.65 C 153.95 158.83 153.28 158.17 152.46 158.17 C 151.65 158.17 150.98 158.83 150.98 159.65 Z M 150.99 160.70 L 150.99 161.69 C 150.99 162.51 151.65 163.17 152.46 163.17 C 153.28 163.17 153.94 162.51 153.94 161.69 L 153.94 160.70 C 153.94 159.89 153.28 159.22 152.47 159.22 C 151.65 159.22 150.99 159.88 150.99 160.70 Z M 150.99 161.68 L 150.99 162.72 C 150.98 163.53 151.64 164.20 152.45 164.20 C 153.26 164.20 153.93 163.55 153.93 162.74 L 153.94 161.70 C 153.94 160.89 153.28 160.22 152.47 160.22 C 151.66 160.22 151.00 160.87 150.99 161.68 Z M 150.99 162.70 L 150.97 163.76 C 150.96 164.57 151.61 165.24 152.42 165.25 C 153.23 165.27 153.89 164.62 153.91 163.81 L 153.92 162.75 C 153.94 161.94 153.29 161.28 152.48 161.26 C 151.67 161.25 151.00 161.89 150.99 162.70 Z M 150.98 163.71 L 150.93 164.70 C 150.89 165.50 151.51 166.19 152.32 166.23 C 153.12 166.27 153.81 165.65 153.85 164.85 L 153.90 163.86 C 153.94 163.06 153.32 162.37 152.51 162.33 C 151.71 162.29 151.02 162.91 150.98 163.71 Z M 150.95 164.59 L 150.83 165.55 C 150.74 166.35 151.30 167.07 152.10 167.17 C 152.89 167.27 153.61 166.70 153.71 165.91 L 153.83 164.95 C 153.93 164.15 153.36 163.43 152.57 163.33 C 151.77 163.23 151.05 163.80 150.95 164.59 Z M 150.86 165.44 L 150.66 166.42 C 150.50 167.20 151.01 167.96 151.79 168.12 C 152.57 168.28 153.33 167.78 153.49 166.99 L 153.69 166.02 C 153.85 165.24 153.34 164.47 152.56 164.32 C 151.78 164.16 151.02 164.66 150.86 165.44 Z M 150.68 166.38 L 150.54 166.95 C 150.36 167.72 150.84 168.49 151.61 168.67 C 152.38 168.86 153.15 168.38 153.34 167.61 L 153.47 167.04 C 153.65 166.27 153.18 165.49 152.41 165.31 C 151.63 165.13 150.86 165.60 150.68 166.38 Z"
      fill="black"
      fill-rule="nonzero" /><path d="M 137.16 170.16 L 137.96 169.82 C 138.72 169.51 139.08 168.64 138.77 167.88 C 138.45 167.13 137.58 166.77 136.83 167.08 L 136.02 167.42 C 135.26 167.73 134.90 168.60 135.22 169.36 C 135.53 170.12 136.40 170.47 137.16 170.16 Z M 137.74 169.91 L 138.81 169.66 C 139.62 169.47 140.12 168.66 139.93 167.85 C 139.74 167.05 138.93 166.55 138.12 166.74 L 137.05 166.99 C 136.24 167.18 135.74 167.99 135.93 168.80 C 136.13 169.61 136.93 170.10 137.74 169.91 Z M 138.61 169.72 L 139.59 169.63 C 140.43 169.55 141.05 168.81 140.97 167.97 C 140.90 167.13 140.15 166.51 139.31 166.59 L 138.33 166.68 C 137.49 166.76 136.87 167.50 136.94 168.34 C 137.02 169.18 137.77 169.80 138.61 169.72 Z M 139.50 169.68 L 140.56 169.64 C 141.42 169.61 142.10 168.89 142.07 168.02 C 142.04 167.16 141.32 166.48 140.45 166.51 L 139.40 166.54 C 138.54 166.57 137.86 167.30 137.89 168.16 C 137.91 169.03 138.64 169.70 139.50 169.68 Z M 140.52 169.68 L 141.51 169.67 C 142.40 169.67 143.11 168.94 143.11 168.06 C 143.10 167.17 142.38 166.46 141.49 166.46 L 140.49 166.47 C 139.61 166.48 138.89 167.20 138.90 168.09 C 138.91 168.97 139.63 169.69 140.52 169.68 Z M 141.50 169.70 L 142.62 169.70 C 143.52 169.70 144.25 168.97 144.25 168.07 C 144.25 167.17 143.52 166.44 142.62 166.44 L 141.50 166.44 C 140.60 166.44 139.87 167.17 139.87 168.07 C 139.87 168.97 140.60 169.70 141.50 169.70 Z M 142.64 169.71 L 143.53 169.70 C 144.43 169.69 145.16 168.95 145.15 168.04 C 145.14 167.14 144.40 166.41 143.50 166.42 L 142.61 166.43 C 141.70 166.44 140.97 167.18 140.98 168.08 C 140.99 168.99 141.73 169.72 142.64 169.71 Z M 143.56 169.71 L 144.51 169.68 C 145.42 169.66 146.14 168.90 146.11 167.99 C 146.09 167.08 145.33 166.36 144.42 166.39 L 143.47 166.41 C 142.56 166.44 141.84 167.19 141.86 168.10 C 141.89 169.01 142.65 169.73 143.56 169.71 Z M 144.51 169.69 L 145.52 169.66 C 146.43 169.64 147.15 168.88 147.13 167.96 C 147.11 167.05 146.35 166.33 145.43 166.35 L 144.42 166.38 C 143.51 166.40 142.78 167.16 142.81 168.08 C 142.83 168.99 143.59 169.71 144.51 169.69 Z M 145.49 169.67 L 146.48 169.66 C 147.39 169.65 148.13 168.90 148.12 167.98 C 148.11 167.07 147.36 166.33 146.44 166.34 L 145.46 166.35 C 144.54 166.36 143.81 167.11 143.82 168.02 C 143.82 168.94 144.57 169.68 145.49 169.67 Z M 146.46 169.66 L 147.47 169.66 C 148.39 169.66 149.13 168.91 149.13 168.00 C 149.13 167.08 148.38 166.33 147.47 166.33 L 146.46 166.33 C 145.54 166.34 144.80 167.08 144.80 168.00 C 144.80 168.92 145.54 169.66 146.46 169.66 Z M 147.47 169.66 L 148.45 169.66 C 149.37 169.65 150.11 168.91 150.11 167.99 C 150.11 167.07 149.36 166.33 148.44 166.33 L 147.46 166.34 C 146.54 166.34 145.80 167.08 145.81 168.00 C 145.81 168.92 146.55 169.66 147.47 169.66 Z M 148.47 169.65 L 149.50 169.64 C 150.41 169.63 151.14 168.88 151.13 167.96 C 151.12 167.05 150.37 166.31 149.46 166.33 L 148.43 166.34 C 147.51 166.35 146.78 167.10 146.79 168.01 C 146.80 168.93 147.55 169.66 148.47 169.65 Z M 149.51 169.63 L 150.51 169.61 C 151.42 169.59 152.14 168.83 152.12 167.92 C 152.10 167.01 151.35 166.29 150.44 166.31 L 149.44 166.33 C 148.53 166.35 147.81 167.11 147.83 168.02 C 147.85 168.93 148.60 169.65 149.51 169.63 Z M 150.51 169.60 L 151.52 169.58 C 152.42 169.56 153.14 168.81 153.12 167.90 C 153.10 167.00 152.35 166.28 151.45 166.30 L 150.44 166.32 C 149.54 166.34 148.82 167.09 148.84 167.99 C 148.86 168.90 149.61 169.62 150.51 169.60 Z M 151.50 169.56 L 152.51 169.55 C 153.41 169.54 154.13 168.81 154.12 167.91 C 154.11 167.01 153.37 166.29 152.47 166.30 L 151.46 166.31 C 150.56 166.32 149.84 167.06 149.85 167.96 C 149.86 168.85 150.60 169.57 151.50 169.56 Z M 152.50 169.54 L 153.49 169.53 C 154.37 169.53 155.09 168.81 155.09 167.92 C 155.09 167.03 154.37 166.31 153.48 166.32 L 152.49 166.32 C 151.60 166.32 150.88 167.04 150.88 167.93 C 150.89 168.82 151.61 169.54 152.50 169.54 Z M 153.48 169.52 L 154.47 169.52 C 155.35 169.52 156.07 168.80 156.07 167.92 C 156.07 167.05 155.35 166.33 154.47 166.33 L 153.48 166.33 C 152.60 166.33 151.89 167.05 151.89 167.92 C 151.89 168.80 152.60 169.52 153.48 169.52 Z M 154.47 169.50 L 155.48 169.50 C 156.35 169.50 157.05 168.79 157.05 167.92 C 157.05 167.06 156.35 166.35 155.48 166.35 L 154.47 166.35 C 153.61 166.35 152.90 167.06 152.90 167.92 C 152.90 168.79 153.61 169.50 154.47 169.50 Z M 155.48 169.48 L 156.48 169.48 C 157.34 169.48 158.04 168.78 158.04 167.92 C 158.04 167.06 157.34 166.37 156.48 166.37 L 155.48 166.37 C 154.62 166.37 153.92 167.06 153.92 167.92 C 153.92 168.78 154.62 169.48 155.48 169.48 Z M 156.48 169.47 L 157.48 169.47 C 158.33 169.47 159.02 168.78 159.02 167.92 C 159.02 167.07 158.33 166.38 157.48 166.38 L 156.48 166.38 C 155.63 166.38 154.94 167.07 154.94 167.92 C 154.94 168.78 155.63 169.47 156.48 169.47 Z M 157.48 169.45 L 158.49 169.45 C 159.33 169.45 160.02 168.77 160.02 167.92 C 160.02 167.08 159.33 166.40 158.49 166.40 L 157.48 166.40 C 156.64 166.40 155.95 167.08 155.95 167.92 C 155.95 168.77 156.64 169.45 157.48 169.45 Z M 158.49 169.44 L 159.50 169.44 C 160.33 169.44 161.01 168.76 161.01 167.92 C 161.01 167.09 160.33 166.41 159.50 166.41 L 158.49 166.41 C 157.65 166.41 156.97 167.09 156.97 167.92 C 156.97 168.76 157.65 169.44 158.49 169.44 Z M 159.50 169.43 L 160.49 169.43 C 161.32 169.43 161.99 168.76 161.99 167.92 C 161.99 167.09 161.32 166.42 160.49 166.42 L 159.50 166.42 C 158.66 166.42 157.99 167.09 157.99 167.92 C 157.99 168.76 158.66 169.43 159.50 169.43 Z M 160.49 169.43 L 161.48 169.43 C 162.32 169.43 162.99 168.76 162.99 167.92 C 162.99 167.09 162.32 166.42 161.48 166.42 L 160.49 166.42 C 159.66 166.42 158.98 167.09 158.98 167.92 C 158.98 168.76 159.66 169.43 160.49 169.43 Z M 161.48 169.43 L 162.45 169.43 C 163.29 169.43 163.96 168.76 163.96 167.92 C 163.96 167.09 163.29 166.42 162.45 166.42 L 161.48 166.42 C 160.65 166.42 159.98 167.09 159.98 167.92 C 159.98 168.76 160.65 169.43 161.48 169.43 Z M 162.45 169.44 L 163.43 169.44 C 164.27 169.44 164.94 168.76 164.94 167.92 C 164.94 167.09 164.27 166.41 163.43 166.41 L 162.45 166.41 C 161.62 166.41 160.94 167.09 160.94 167.92 C 160.94 168.76 161.62 169.44 162.45 169.44 Z M 163.43 169.45 L 164.46 169.45 C 165.30 169.45 165.99 168.77 165.99 167.92 C 165.99 167.08 165.30 166.40 164.46 166.40 L 163.43 166.40 C 162.59 166.40 161.91 167.08 161.91 167.92 C 161.91 168.77 162.59 169.45 163.43 169.45 Z M 164.46 169.45 L 165.46 169.45 C 166.31 169.45 166.99 168.77 166.99 167.92 C 166.99 167.08 166.31 166.40 165.46 166.40 L 164.46 166.40 C 163.62 166.40 162.94 167.08 162.94 167.92 C 162.94 168.77 163.62 169.45 164.46 169.45 Z M 165.46 169.45 L 166.48 169.45 C 167.32 169.45 168.01 168.77 168.01 167.92 C 168.01 167.08 167.32 166.40 166.48 166.40 L 165.46 166.40 C 164.62 166.40 163.93 167.08 163.93 167.92 C 163.93 168.77 164.62 169.45 165.46 169.45 Z M 166.48 169.46 L 167.51 169.46 C 168.36 169.46 169.04 168.77 169.04 167.92 C 169.04 167.08 168.36 166.39 167.51 166.39 L 166.48 166.39 C 165.63 166.39 164.95 167.08 164.95 167.92 C 164.95 168.77 165.63 169.46 166.48 169.46 Z M 167.51 169.47 L 168.50 169.47 C 169.35 169.47 170.04 168.78 170.04 167.92 C 170.04 167.07 169.35 166.38 168.50 166.38 L 167.51 166.38 C 166.65 166.38 165.96 167.07 165.96 167.92 C 165.96 168.78 166.65 169.47 167.51 169.47 Z M 168.50 169.48 L 169.01 169.48 C 169.86 169.48 170.56 168.78 170.56 167.92 C 170.56 167.07 169.86 166.37 169.01 166.37 L 168.50 166.37 C 167.64 166.37 166.94 167.07 166.94 167.92 C 166.94 168.78 167.64 169.48 168.50 169.48 Z"
      fill="black"
      fill-rule="nonzero" /></svg>